<svg xmlns="http://www.w3.org/2000/svg" xmlns:xlink="http://www.w3.org/1999/xlink" width="450" height="300" version="1.0"><path d="M0 0h450v300H0z" style="fill:#bf0a30"/><path d="M37.5 148.84 224.225 275 412.5 148.595 224.225 25z" style="fill:#002868"/><path d="M84 149.128 224.417 244 366 148.944 224.417 56z" style="fill:#fff"/><path d="M148.175 145.014h7.835l1.36 4.376h4.82l-7.48-21.228h-5.116l-7.568 21.228h4.671zm3.903-12.063h.059l2.631 8.397h-5.41zm12.97 16.439h4.345v-8.308h4.583q2.37-.021 2.96.924.59.944.499 3.097.001 1.61.126 2.587.123.977.347 1.7h4.908v-.562q-.681-.206-.828-1.083-.148-.877-.118-3.145-.005-2.864-.691-3.888-.686-1.023-2-1.493 1.583-.562 2.428-1.918t.854-3.138q.033-.975-.477-2.37-.51-1.394-1.963-2.483-1.45-1.088-4.242-1.148h-10.732zm4.345-11.886v-5.676h5.529q1.901.068 2.528.968.626.9.576 1.811.002 1.559-.85 2.236t-2.58.661zm21.78 4.701 2.07-2.128 6.563 9.313h5.706l-9.165-12.536 8.662-8.692h-5.735l-8.101 8.633v-8.633h-4.435v21.228h4.435zm21.1 2.809h7.834l1.36 4.376h4.82l-7.48-21.228h-5.115l-7.569 21.228h4.671zm3.902-12.063h.06l2.63 8.397h-5.41zm25.919 9.993h-.06l-8.425-14.782h-4.672v21.228h4.14v-15.138h.059l8.662 15.138h4.435v-21.228h-4.14v14.782zm7.322-.088q-.046 1.374.632 3.009.68 1.635 2.649 2.831 1.97 1.197 5.796 1.255 1.034.049 2.997-.382t3.614-1.926q1.653-1.495 1.756-4.64-.075-2.792-1.693-4.017-1.616-1.224-3.866-1.689l-5.174-1.27a4.1 4.1 0 0 1-1.456-.566q-.733-.447-.79-1.652.072-1.42 1.215-1.992a5.3 5.3 0 0 1 2.48-.55q2.802.11 3.581 1.24.78 1.132.765 1.952h4.258q.013-1.356-.714-2.934-.728-1.58-2.534-2.725-1.807-1.144-5.03-1.2-3.405.055-5.178 1.168c-1.773 1.113-1.981 1.616-2.398 2.62q-.625 1.508-.585 2.746.1 3.38 2.085 4.571t4.656 1.667l2.277.532q1.714.359 2.764.895 1.05.535 1.08 1.737-.081 1.646-1.431 2.217-1.35.57-3.005.532-2.82-.104-3.688-1.271-.868-1.168-.805-2.158zm25.337 2.158h7.835l1.36 4.376h4.819l-7.48-21.228h-5.115l-7.569 21.228h4.672zm3.902-12.063h.06l2.63 8.397h-5.41zm11.876 9.905q-.048 1.374.632 3.009.678 1.635 2.648 2.831 1.971 1.197 5.796 1.255 1.035.049 2.997-.382 1.964-.431 3.615-1.926t1.755-4.64q-.076-2.792-1.692-4.017-1.617-1.224-3.866-1.689l-5.174-1.27a4.1 4.1 0 0 1-1.456-.566q-.735-.447-.79-1.652.072-1.42 1.215-1.992a5.3 5.3 0 0 1 2.48-.55q2.803.11 3.58 1.24.78 1.132.766 1.952h4.257q.014-1.356-.714-2.934-.728-1.58-2.534-2.725-1.805-1.144-5.03-1.2-3.404.055-5.177 1.168-1.774 1.114-2.398 2.62-.625 1.508-.585 2.746.1 3.38 2.084 4.571 1.985 1.191 4.657 1.667l2.276.532q1.715.359 2.765.895 1.05.535 1.079 1.737-.08 1.646-1.43 2.217-1.35.57-3.005.532-2.82-.104-3.688-1.271-.87-1.168-.806-2.158z" style="font-size:28px;font-style:normal;font-variant:normal;font-weight:700;font-stretch:normal;text-align:start;line-height:125%;writing-mode:lr-tb;text-anchor:start;fill:#002868;fill-opacity:1;stroke:none;stroke-width:1px;stroke-linecap:butt;stroke-linejoin:miter;stroke-opacity:1;font-family:Helvetica LT Std;-inkscape-font-specification:Helvetica LT Std Bold"/><path d="m229.484 49.981-5.521-4L218.452 50l2.095-6.491-5.522-4.004 6.815-.012 2.1-6.493 2.118 6.484 6.818-.01-5.507 4.02 2.116 6.487z" style="fill:#fff"/><path d="M234.964 190 225 197.081l-9.976-7.075 3.81 11.453-9.966 7.088 12.319-.003L225.004 220l3.804-11.454 12.324-.009-9.968-7.076z" style="fill:#002868"/><path id="a" d="m202.7 190-9.965-7.081-9.976 7.075 3.81-11.453-9.965-7.088 12.319.003L192.74 160l3.803 11.454 12.325.009-9.968 7.076z" style="fill:#002868"/><path id="b" d="m215.981 243.541-4 5.521 4.019 5.511-6.491-2.095-4.004 5.522-.012-6.815-6.493-2.099 6.484-2.118-.01-6.818 4.02 5.507z" style="fill:#fff"/><path id="c" d="m233.019 243.541 4 5.521-4.019 5.511 6.491-2.095 4.004 5.522.012-6.815 6.493-2.099-6.484-2.118.01-6.818-4.02 5.507z" style="fill:#fff"/><use xlink:href="#a" width="450" height="300" transform="translate(64.528)"/><use xlink:href="#a" width="450" height="300" transform="translate(32.264 -85)"/><use xlink:href="#b" width="450" height="300" transform="translate(151.478 -119)"/><use xlink:href="#b" width="450" height="300" transform="translate(124.478 -137)"/><use xlink:href="#b" width="450" height="300" transform="translate(97.478 -155)"/><use xlink:href="#b" width="450" height="300" transform="translate(70.478 -172)"/><use xlink:href="#b" width="450" height="300" transform="translate(43.478 -190)"/><use xlink:href="#b" width="450" height="300" transform="translate(-120 -82)"/><use xlink:href="#b" width="450" height="300" transform="translate(-96 -66)"/><use xlink:href="#b" width="450" height="300" transform="translate(-72 -50)"/><use xlink:href="#b" width="450" height="300" transform="translate(-48 -33)"/><use xlink:href="#b" width="450" height="300" transform="translate(-24 -17)"/><use xlink:href="#b" width="450" height="300" transform="translate(-144 -99.075)"/><use xlink:href="#c" width="450" height="300" transform="translate(-151 -119)"/><use xlink:href="#c" width="450" height="300" transform="translate(-124 -137)"/><use xlink:href="#c" width="450" height="300" transform="translate(-97 -155)"/><use xlink:href="#c" width="450" height="300" transform="translate(-70 -172)"/><use xlink:href="#c" width="450" height="300" transform="translate(-43 -190)"/><use xlink:href="#c" width="450" height="300" transform="translate(144 -99.075)"/><use xlink:href="#c" width="450" height="300" transform="translate(120 -82)"/><use xlink:href="#c" width="450" height="300" transform="translate(96 -66)"/><use xlink:href="#c" width="450" height="300" transform="translate(72 -50)"/><use xlink:href="#c" width="450" height="300" transform="translate(48 -33)"/><use xlink:href="#c" width="450" height="300" transform="translate(24 -17)"/></svg>