<svg width="1200" height="600" viewBox="0 0 1200 600" fill="none" xmlns="http://www.w3.org/2000/svg"><g clip-path="url(#clip0_2230_242)"><path d="M0 0H1200V600H0V0Z" fill="#012169"/><mask id="mask0_2230_242" style="mask-type:luminance" maskUnits="userSpaceOnUse" x="0" y="0" width="600" height="300"><path d="M0 0H600V300H0V0Z" fill="white"/></mask><g mask="url(#mask0_2230_242)"><path d="M0 0L600 300ZM600 0L0 300Z" fill="black"/><path d="M0 0L600 300M600 0L0 300" stroke="white" stroke-width="60"/></g><mask id="mask1_2230_242" style="mask-type:luminance" maskUnits="userSpaceOnUse" x="0" y="0" width="600" height="300"><path d="M0 0V150H600V300L0 0ZM600 0H300V300H0L600 0Z" fill="white"/></mask><g mask="url(#mask1_2230_242)"><path d="M0 0L600 300ZM600 0L0 300Z" fill="black"/><path d="M0 0L600 300M600 0L0 300" stroke="#E4002B" stroke-width="40"/></g><path d="M300 0V300ZM0 150H600Z" fill="black"/><path d="M300 0V300M0 150H600" stroke="white" stroke-width="100"/><path d="M300 0V300ZM0 150H600Z" fill="black"/><path d="M300 0V300M0 150H600" stroke="#E4002B" stroke-width="60"/><path d="M899.999 463.637L909.698 490.909L899.999 518.182L890.301 490.909L899.999 463.637Z" fill="white"/><path d="M927.272 490.909L900 500.608L872.727 490.909L900 481.211L927.272 490.909Z" fill="white"/><path d="M919.285 471.624L906.858 497.766L880.715 510.193L893.142 484.05L919.285 471.624Z" fill="white"/><path d="M919.285 510.194L893.142 497.767L880.715 471.624L906.858 484.051L919.285 510.194Z" fill="white"/><path d="M807.693 350L813.116 363.738L827.238 359.413L819.879 372.218L832.066 380.563L817.465 382.794L818.54 397.524L807.693 387.5L796.845 397.524L797.92 382.794L783.319 380.563L795.506 372.218L788.147 359.413L802.269 363.738L807.693 350Z" fill="white"/><path d="M900 250L905.424 263.738L919.546 259.413L912.187 272.218L924.373 280.563L909.773 282.794L910.847 297.524L900 287.5L889.153 297.524L890.227 282.794L875.627 280.563L887.814 272.218L880.454 259.413L894.577 263.738L900 250Z" fill="white"/><path d="M985.715 328.57L995.459 349.999L985.715 371.427L975.971 349.999L985.715 328.57Z" fill="white"/><path d="M1004.27 339.286L990.587 358.439L967.157 360.715L980.843 341.562L1004.27 339.286Z" fill="white"/><path d="M1004.27 360.712L980.843 358.436L967.157 339.284L990.587 341.559L1004.27 360.712Z" fill="white"/><path d="M937.5 385L941.909 393.932L951.766 395.365L944.633 402.318L946.317 412.135L937.5 407.5L928.683 412.135L930.367 402.318L923.234 395.365L933.092 393.932L937.5 385Z" fill="white"/><path d="M893.681 183.215C887.09 183.299 880.499 183.438 873.959 183.886C869.132 184.277 863.631 184.724 858.934 185.45L857.74 185.674C854.782 186.289 854.367 190.089 855.924 192.157C859.09 196.433 877.852 199.758 900.013 199.758C922.149 199.758 940.911 196.433 944.077 192.157C945.634 190.089 945.218 186.289 942.26 185.674L941.066 185.45C936.395 184.724 930.868 184.277 926.041 183.886C919.502 183.438 912.91 183.299 906.319 183.215H900.013H893.681Z" fill="white"/><path d="M904.399 187.294C902.764 187.014 901.259 186.651 899.832 186.26C898.586 185.896 897.418 185.505 896.276 185.086C896.614 185.673 897.107 186.26 898.3 186.707C897.34 186.679 896.069 187.07 895.601 187.294C896.069 187.489 897.392 187.88 898.352 187.852C897.185 188.3 896.743 188.886 896.484 189.473C897.496 189.082 898.586 188.719 899.728 188.383C901.181 187.964 902.712 187.601 904.399 187.294ZM887.168 187.377C885.533 187.154 884.028 186.846 882.6 186.483C881.329 186.176 880.135 185.812 879.019 185.421C879.331 186.008 879.85 186.567 881.069 186.986C880.083 186.986 878.838 187.433 878.397 187.657C878.864 187.852 880.187 188.188 881.147 188.132C880.005 188.607 879.564 189.222 879.305 189.809C880.317 189.389 881.381 188.97 882.523 188.607C883.976 188.132 885.507 187.741 887.168 187.377ZM870.067 188.272C868.432 188.16 866.875 187.964 865.421 187.713C864.15 187.489 862.93 187.238 861.788 186.93C862.152 187.489 862.697 188.02 863.942 188.328C862.982 188.411 861.762 188.942 861.321 189.194C861.814 189.334 863.138 189.585 864.098 189.473C862.982 190.032 862.593 190.675 862.385 191.29C863.371 190.787 864.409 190.284 865.525 189.837C866.927 189.25 868.432 188.719 870.067 188.272ZM921.63 187.657C919.995 187.908 918.464 188.188 917.037 188.551C915.765 188.858 914.571 189.222 913.455 189.641C913.793 189.054 914.286 188.467 915.505 188.076C914.545 188.048 913.274 187.629 912.833 187.405C913.3 187.21 914.623 186.874 915.583 186.902C914.441 186.427 914 185.84 913.767 185.226C914.779 185.673 915.843 186.064 916.985 186.455C918.412 186.902 919.943 187.322 921.63 187.657ZM938.679 189.194C937.044 189.306 935.513 189.473 934.06 189.725C932.788 189.948 931.569 190.228 930.401 190.535C930.79 189.976 931.335 189.445 932.581 189.138C931.595 189.054 930.375 188.523 929.934 188.272C930.427 188.104 931.75 187.852 932.736 187.992C931.621 187.433 931.205 186.791 930.998 186.176C931.984 186.679 933.022 187.154 934.138 187.629C935.539 188.188 937.044 188.719 938.679 189.194Z" fill="black"/><path d="M900.013 191.32C873.596 191.32 857.585 192.969 858.908 194.227C868.172 198.39 886.416 199.732 900.013 199.76C913.585 199.732 931.828 198.39 941.093 194.227C942.416 192.969 926.405 191.32 900.013 191.32Z" fill="#CCCCCC"/><path d="M941.041 194.31C941.274 193.64 940.236 193.444 939.146 193.304C934.916 192.718 930.219 192.326 926.041 191.991C919.502 191.544 912.911 191.404 906.319 191.32H893.681C887.09 191.404 880.499 191.544 873.959 191.991C869.781 192.326 865.084 192.718 860.854 193.304C859.764 193.444 858.726 193.64 858.96 194.31" stroke="black" stroke-width="0.468049"/><path d="M893.681 183.215C887.09 183.299 880.499 183.438 873.959 183.886C869.132 184.277 863.631 184.724 858.934 185.45L857.74 185.674C854.782 186.289 854.367 190.089 855.924 192.157C859.09 196.433 877.852 199.758 900.013 199.758C922.149 199.758 940.911 196.433 944.077 192.157C945.634 190.089 945.218 186.289 942.26 185.674L941.066 185.45C936.395 184.724 930.868 184.277 926.041 183.886C919.502 183.438 912.91 183.299 906.319 183.215H900.013H893.681Z" stroke="black" stroke-width="0.468049"/><path fill-rule="evenodd" clip-rule="evenodd" d="M935.616 176.951L938.808 166.913L940.097 162.757L943.292 160.619L946.527 152.7L948.051 150.628L948.287 143.332C948.287 143.332 946.051 138.156 942.592 136.297C937.643 133.638 930.926 134.003 930.926 134.003C930.926 134.003 929.374 129.584 926.528 127.865C923.683 126.145 920.523 125.73 917.206 125.73C913.889 125.73 907.936 128.924 904.717 129.863C903.044 130.351 899.265 131.997 899.265 131.997C899.265 131.997 895.485 130.351 893.812 129.863C890.593 128.924 884.641 125.73 881.324 125.73C878.007 125.73 874.95 126.083 872.001 127.865C869.258 129.522 865.493 134.003 865.493 134.003C865.493 134.003 861.182 133.373 858.154 135.336C854.376 137.783 851.714 142.932 851.714 142.932L851.975 150.904L852.57 153.952L855.011 156.974L858.193 163.077L860.473 169.095L862.913 176.951H935.616Z" fill="#E4002B"/><path d="M935.616 176.951L938.808 166.913L940.097 162.757L943.292 160.619L946.527 152.7L948.051 150.628L948.287 143.332C948.287 143.332 946.051 138.156 942.592 136.297C937.643 133.638 930.926 134.003 930.926 134.003C930.926 134.003 929.374 129.584 926.528 127.865C923.683 126.145 920.523 125.73 917.206 125.73C913.889 125.73 907.936 128.924 904.717 129.863C903.044 130.351 899.265 131.997 899.265 131.997C899.265 131.997 895.485 130.351 893.812 129.863C890.593 128.924 884.641 125.73 881.324 125.73C878.007 125.73 874.95 126.083 872.001 127.865C869.258 129.522 865.493 134.003 865.493 134.003C865.493 134.003 861.182 133.373 858.154 135.336C854.376 137.783 851.714 142.932 851.714 142.932L851.975 150.904L852.57 153.952L855.011 156.974L858.193 163.077L860.473 169.095L862.913 176.951H935.616Z" stroke="black" stroke-width="0.46831"/><path d="M939.72 107.185C943.179 108.011 946.85 109.653 949.741 112.736C952.422 115.593 954.204 118.966 955.232 123.063C956.193 126.897 956.223 129.177 955.795 132.995C955.245 137.908 952.439 142.839 952.439 142.839L947.601 141.909C947.601 141.909 950.516 135.294 950.844 132.363C951.238 128.842 951.226 127.713 950.413 124.47C949.57 121.11 948.347 118.801 946.241 116.557C944.255 114.439 941.458 113.128 938.593 112.413C936.038 111.775 933.15 111.502 930.909 112C926.652 112.945 923.886 114.442 919.257 116.014C915.919 117.149 913.367 117.538 909.991 117.744C907.926 117.87 905.539 117.316 903.302 116.802C901.064 116.288 899.19 115.756 899.19 115.756L900.449 110.554C900.449 110.554 902.237 111.064 904.345 111.548C906.453 112.032 909.085 112.425 909.703 112.387C912.886 112.193 914.754 111.907 917.747 110.89C922.031 109.434 925.064 107.82 929.902 106.733C933.162 106.001 936.507 106.417 939.72 107.185Z" fill="#FFC72C"/><path d="M939.72 107.185C943.179 108.011 946.85 109.653 949.741 112.736C952.422 115.593 954.204 118.966 955.232 123.063C956.193 126.897 956.223 129.177 955.795 132.995C955.245 137.908 952.439 142.839 952.439 142.839L947.601 141.909C947.601 141.909 950.516 135.294 950.844 132.363C951.238 128.842 951.226 127.713 950.413 124.47C949.57 121.11 948.347 118.801 946.241 116.557C944.255 114.439 941.458 113.128 938.593 112.413C936.038 111.775 933.15 111.502 930.909 112C926.652 112.945 923.886 114.442 919.257 116.014C915.919 117.149 913.367 117.538 909.991 117.744C907.926 117.87 905.539 117.316 903.302 116.802C901.064 116.288 899.19 115.756 899.19 115.756L900.449 110.554C900.449 110.554 902.237 111.064 904.345 111.548C906.453 112.032 909.085 112.425 909.703 112.387C912.886 112.193 914.754 111.907 917.747 110.89C922.031 109.434 925.064 107.82 929.902 106.733C933.162 106.001 936.507 106.417 939.72 107.185Z" stroke="black" stroke-width="0.46831"/><path d="M953.13 137.081C953.13 137.466 953.199 137.847 953.333 138.203C953.467 138.559 953.664 138.883 953.913 139.155C954.162 139.428 954.457 139.644 954.782 139.792C955.107 139.939 955.456 140.015 955.808 140.015C956.16 140.015 956.508 139.939 956.833 139.792C957.158 139.644 957.454 139.428 957.702 139.155C957.951 138.883 958.148 138.559 958.283 138.203C958.417 137.847 958.486 137.466 958.485 137.081C958.486 136.695 958.417 136.314 958.283 135.958C958.148 135.602 957.951 135.278 957.702 135.006C957.454 134.733 957.158 134.517 956.833 134.369C956.508 134.222 956.16 134.146 955.808 134.146C955.456 134.146 955.107 134.222 954.782 134.369C954.457 134.517 954.162 134.733 953.913 135.006C953.664 135.278 953.467 135.602 953.333 135.958C953.199 136.314 953.13 136.695 953.13 137.081ZM954.419 130.155C954.419 130.54 954.488 130.921 954.622 131.278C954.756 131.634 954.954 131.957 955.202 132.23C955.451 132.502 955.746 132.718 956.071 132.866C956.396 133.013 956.745 133.089 957.097 133.089C957.449 133.089 957.797 133.013 958.122 132.866C958.447 132.718 958.743 132.502 958.991 132.23C959.24 131.957 959.437 131.634 959.572 131.278C959.706 130.921 959.775 130.54 959.774 130.155C959.775 129.77 959.706 129.388 959.572 129.032C959.437 128.676 959.24 128.352 958.991 128.08C958.743 127.807 958.447 127.591 958.122 127.444C957.797 127.296 957.449 127.22 957.097 127.22C956.745 127.22 956.396 127.296 956.071 127.444C955.746 127.591 955.451 127.807 955.202 128.08C954.954 128.352 954.756 128.676 954.622 129.032C954.488 129.388 954.419 129.77 954.419 130.155ZM954.03 122.828C954.03 123.213 954.099 123.595 954.233 123.951C954.367 124.307 954.564 124.631 954.813 124.903C955.062 125.176 955.357 125.392 955.682 125.539C956.007 125.687 956.356 125.763 956.708 125.763C957.06 125.763 957.408 125.687 957.733 125.539C958.058 125.392 958.354 125.176 958.602 124.903C958.851 124.631 959.048 124.307 959.182 123.951C959.317 123.595 959.386 123.213 959.385 122.828C959.386 122.443 959.317 122.062 959.182 121.706C959.048 121.349 958.851 121.026 958.602 120.753C958.354 120.481 958.058 120.265 957.733 120.117C957.408 119.97 957.06 119.894 956.708 119.894C956.356 119.894 956.007 119.97 955.682 120.117C955.357 120.265 955.062 120.481 954.813 120.753C954.564 121.026 954.367 121.349 954.233 121.706C954.099 122.062 954.03 122.443 954.03 122.828ZM951.413 115.877C951.413 116.263 951.482 116.644 951.616 117C951.75 117.356 951.948 117.68 952.196 117.952C952.445 118.225 952.74 118.441 953.065 118.589C953.39 118.736 953.739 118.812 954.091 118.812C954.443 118.812 954.791 118.736 955.116 118.589C955.441 118.441 955.737 118.225 955.986 117.952C956.234 117.68 956.431 117.356 956.566 117C956.7 116.644 956.769 116.263 956.768 115.877C956.769 115.492 956.7 115.111 956.566 114.755C956.431 114.399 956.234 114.075 955.986 113.803C955.737 113.53 955.441 113.314 955.116 113.166C954.791 113.019 954.443 112.943 954.091 112.943C953.739 112.943 953.39 113.019 953.065 113.166C952.74 113.314 952.445 113.53 952.196 113.803C951.948 114.075 951.75 114.399 951.616 114.755C951.482 115.111 951.413 115.492 951.413 115.877ZM946.529 110.429C946.528 110.815 946.597 111.196 946.731 111.552C946.866 111.908 947.063 112.232 947.312 112.504C947.56 112.777 947.856 112.993 948.181 113.141C948.506 113.288 948.854 113.364 949.206 113.364C949.558 113.364 949.907 113.288 950.232 113.141C950.557 112.993 950.852 112.777 951.101 112.504C951.35 112.232 951.547 111.908 951.681 111.552C951.815 111.196 951.884 110.815 951.884 110.429C951.884 110.044 951.815 109.663 951.681 109.307C951.547 108.951 951.35 108.627 951.101 108.355C950.852 108.082 950.557 107.866 950.232 107.718C949.907 107.571 949.558 107.495 949.206 107.495C948.854 107.495 948.506 107.571 948.181 107.718C947.856 107.866 947.56 108.082 947.312 108.355C947.063 108.627 946.866 108.951 946.731 109.307C946.597 109.663 946.528 110.044 946.529 110.429ZM940.423 106.86C940.422 107.245 940.491 107.627 940.626 107.983C940.76 108.339 940.957 108.662 941.206 108.935C941.454 109.208 941.75 109.424 942.075 109.571C942.4 109.719 942.748 109.795 943.1 109.795C943.452 109.795 943.801 109.719 944.126 109.571C944.451 109.424 944.746 109.208 944.995 108.935C945.244 108.662 945.441 108.339 945.575 107.983C945.71 107.627 945.778 107.245 945.778 106.86C945.778 106.475 945.71 106.093 945.575 105.737C945.441 105.381 945.244 105.058 944.995 104.785C944.746 104.513 944.451 104.296 944.126 104.149C943.801 104.001 943.452 103.925 943.1 103.925C942.748 103.925 942.4 104.001 942.075 104.149C941.75 104.296 941.454 104.513 941.206 104.785C940.957 105.058 940.76 105.381 940.626 105.737C940.491 106.093 940.422 106.475 940.423 106.86ZM933.445 104.982C933.444 105.367 933.513 105.748 933.647 106.104C933.782 106.46 933.979 106.784 934.228 107.056C934.476 107.329 934.772 107.545 935.097 107.693C935.422 107.84 935.77 107.916 936.122 107.916C936.474 107.916 936.823 107.84 937.148 107.693C937.473 107.545 937.768 107.329 938.017 107.056C938.266 106.784 938.463 106.46 938.597 106.104C938.731 105.748 938.8 105.367 938.8 104.982C938.8 104.596 938.731 104.215 938.597 103.859C938.463 103.503 938.266 103.179 938.017 102.907C937.768 102.634 937.473 102.418 937.148 102.27C936.823 102.123 936.474 102.047 936.122 102.047C935.77 102.047 935.422 102.123 935.097 102.27C934.772 102.418 934.476 102.634 934.228 102.907C933.979 103.179 933.782 103.503 933.647 103.859C933.513 104.215 933.444 104.596 933.445 104.982ZM926.292 105.357C926.292 105.742 926.361 106.124 926.495 106.48C926.629 106.836 926.826 107.16 927.075 107.432C927.324 107.705 927.619 107.921 927.944 108.068C928.269 108.216 928.618 108.292 928.97 108.292C929.322 108.292 929.67 108.216 929.995 108.068C930.32 107.921 930.616 107.705 930.864 107.432C931.113 107.16 931.31 106.836 931.445 106.48C931.579 106.124 931.648 105.742 931.647 105.357C931.648 104.972 931.579 104.591 931.445 104.235C931.31 103.879 931.113 103.555 930.864 103.282C930.616 103.01 930.32 102.794 929.995 102.646C929.67 102.499 929.322 102.423 928.97 102.423C928.618 102.423 928.269 102.499 927.944 102.646C927.619 102.794 927.324 103.01 927.075 103.282C926.826 103.555 926.629 103.879 926.495 104.235C926.361 104.591 926.292 104.972 926.292 105.357ZM906.928 110.805C906.927 111.19 906.996 111.572 907.131 111.928C907.265 112.284 907.462 112.607 907.711 112.88C907.959 113.153 908.255 113.369 908.58 113.516C908.905 113.664 909.254 113.74 909.605 113.74C909.957 113.74 910.306 113.664 910.631 113.516C910.956 113.369 911.251 113.153 911.5 112.88C911.749 112.607 911.946 112.284 912.08 111.928C912.215 111.572 912.283 111.19 912.283 110.805C912.283 110.42 912.215 110.038 912.08 109.682C911.946 109.326 911.749 109.003 911.5 108.73C911.251 108.458 910.956 108.242 910.631 108.094C910.306 107.946 909.957 107.871 909.605 107.871C909.254 107.871 908.905 107.946 908.58 108.094C908.255 108.242 907.959 108.458 907.711 108.73C907.462 109.003 907.265 109.326 907.131 109.682C906.996 110.038 906.927 110.42 906.928 110.805ZM919.488 107.424C919.488 107.809 919.557 108.19 919.691 108.546C919.826 108.903 920.023 109.226 920.271 109.499C920.52 109.771 920.815 109.987 921.141 110.135C921.466 110.282 921.814 110.358 922.166 110.358C922.518 110.358 922.866 110.282 923.192 110.135C923.517 109.987 923.812 109.771 924.061 109.499C924.309 109.226 924.506 108.903 924.641 108.546C924.775 108.19 924.844 107.809 924.844 107.424C924.844 107.039 924.775 106.657 924.641 106.301C924.506 105.945 924.309 105.621 924.061 105.349C923.812 105.076 923.517 104.86 923.192 104.713C922.866 104.565 922.518 104.489 922.166 104.489C921.814 104.489 921.466 104.565 921.141 104.713C920.815 104.86 920.52 105.076 920.271 105.349C920.023 105.621 919.826 105.945 919.691 106.301C919.557 106.657 919.488 107.039 919.488 107.424ZM913.208 109.49C913.208 109.875 913.277 110.257 913.411 110.613C913.545 110.969 913.742 111.292 913.991 111.565C914.24 111.838 914.535 112.054 914.86 112.201C915.185 112.349 915.534 112.425 915.886 112.425C916.238 112.425 916.586 112.349 916.911 112.201C917.236 112.054 917.532 111.838 917.78 111.565C918.029 111.292 918.226 110.969 918.361 110.613C918.495 110.257 918.564 109.875 918.563 109.49C918.564 109.105 918.495 108.723 918.361 108.367C918.226 108.011 918.029 107.688 917.78 107.415C917.532 107.143 917.236 106.927 916.911 106.779C916.586 106.631 916.238 106.556 915.886 106.556C915.534 106.556 915.185 106.631 914.86 106.779C914.535 106.927 914.24 107.143 913.991 107.415C913.742 107.688 913.545 108.011 913.411 108.367C913.277 108.723 913.208 109.105 913.208 109.49Z" fill="white" stroke="black" stroke-width="0.46831"/><path d="M860.28 107.185C856.821 108.011 853.15 109.653 850.259 112.736C847.578 115.593 845.796 118.966 844.768 123.063C843.807 126.897 843.777 129.177 844.205 132.995C844.755 137.908 847.561 142.839 847.561 142.839L852.399 141.909C852.399 141.909 849.484 135.294 849.156 132.363C848.762 128.842 848.774 127.713 849.587 124.47C850.43 121.11 851.653 118.801 853.759 116.557C855.745 114.439 858.542 113.128 861.407 112.413C863.962 111.775 866.85 111.502 869.091 112C873.348 112.945 876.114 114.442 880.743 116.014C884.081 117.149 886.633 117.538 890.009 117.744C892.074 117.87 894.461 117.316 896.698 116.802C898.936 116.288 900.81 115.756 900.81 115.756L899.551 110.554C899.551 110.554 897.763 111.064 895.655 111.548C893.547 112.032 890.915 112.425 890.297 112.387C887.114 112.193 885.246 111.907 882.253 110.89C877.969 109.434 874.936 107.82 870.098 106.733C866.838 106.001 863.493 106.417 860.28 107.185Z" fill="#FFC72C"/><path d="M860.28 107.185C856.821 108.011 853.15 109.653 850.259 112.736C847.578 115.593 845.796 118.966 844.768 123.063C843.807 126.897 843.777 129.177 844.205 132.995C844.755 137.908 847.561 142.839 847.561 142.839L852.399 141.909C852.399 141.909 849.484 135.294 849.156 132.363C848.762 128.842 848.774 127.713 849.587 124.47C850.43 121.11 851.653 118.801 853.759 116.557C855.745 114.439 858.542 113.128 861.407 112.413C863.962 111.775 866.85 111.502 869.091 112C873.348 112.945 876.114 114.442 880.743 116.014C884.081 117.149 886.633 117.538 890.009 117.744C892.074 117.87 894.461 117.316 896.698 116.802C898.936 116.288 900.81 115.756 900.81 115.756L899.551 110.554C899.551 110.554 897.763 111.064 895.655 111.548C893.547 112.032 890.915 112.425 890.297 112.387C887.114 112.193 885.246 111.907 882.253 110.89C877.969 109.434 874.936 107.82 870.098 106.733C866.838 106.001 863.493 106.417 860.28 107.185Z" stroke="black" stroke-width="0.46831"/><path d="M846.87 137.081C846.87 137.466 846.801 137.847 846.667 138.203C846.533 138.559 846.336 138.883 846.087 139.155C845.838 139.428 845.543 139.644 845.218 139.792C844.893 139.939 844.544 140.015 844.192 140.015C843.84 140.015 843.492 139.939 843.167 139.792C842.842 139.644 842.546 139.428 842.298 139.155C842.049 138.883 841.852 138.559 841.717 138.203C841.583 137.847 841.514 137.466 841.515 137.081C841.514 136.695 841.583 136.314 841.717 135.958C841.852 135.602 842.049 135.278 842.298 135.006C842.546 134.733 842.842 134.517 843.167 134.369C843.492 134.222 843.84 134.146 844.192 134.146C844.544 134.146 844.893 134.222 845.218 134.369C845.543 134.517 845.838 134.733 846.087 135.006C846.336 135.278 846.533 135.602 846.667 135.958C846.801 136.314 846.87 136.695 846.87 137.081ZM845.581 130.155C845.581 130.54 845.512 130.921 845.378 131.278C845.244 131.634 845.046 131.957 844.798 132.23C844.549 132.502 844.254 132.718 843.929 132.866C843.604 133.013 843.255 133.089 842.903 133.089C842.551 133.089 842.203 133.013 841.878 132.866C841.553 132.718 841.257 132.502 841.009 132.23C840.76 131.957 840.563 131.634 840.428 131.278C840.294 130.921 840.225 130.54 840.226 130.155C840.225 129.77 840.294 129.388 840.428 129.032C840.563 128.676 840.76 128.352 841.009 128.08C841.257 127.807 841.553 127.591 841.878 127.444C842.203 127.296 842.551 127.22 842.903 127.22C843.255 127.22 843.604 127.296 843.929 127.444C844.254 127.591 844.549 127.807 844.798 128.08C845.046 128.352 845.244 128.676 845.378 129.032C845.512 129.388 845.581 129.77 845.581 130.155ZM845.97 122.828C845.97 123.213 845.901 123.595 845.767 123.951C845.633 124.307 845.436 124.631 845.187 124.903C844.938 125.176 844.643 125.392 844.318 125.539C843.993 125.687 843.644 125.763 843.292 125.763C842.94 125.763 842.592 125.687 842.267 125.539C841.942 125.392 841.646 125.176 841.398 124.903C841.149 124.631 840.952 124.307 840.818 123.951C840.683 123.595 840.614 123.213 840.615 122.828C840.614 122.443 840.683 122.062 840.818 121.706C840.952 121.349 841.149 121.026 841.398 120.753C841.646 120.481 841.942 120.265 842.267 120.117C842.592 119.97 842.94 119.894 843.292 119.894C843.644 119.894 843.993 119.97 844.318 120.117C844.643 120.265 844.938 120.481 845.187 120.753C845.436 121.026 845.633 121.349 845.767 121.706C845.901 122.062 845.97 122.443 845.97 122.828ZM848.587 115.877C848.587 116.263 848.518 116.644 848.384 117C848.25 117.356 848.052 117.68 847.804 117.952C847.555 118.225 847.26 118.441 846.935 118.589C846.61 118.736 846.261 118.812 845.909 118.812C845.557 118.812 845.209 118.736 844.884 118.589C844.559 118.441 844.263 118.225 844.014 117.952C843.766 117.68 843.569 117.356 843.434 117C843.3 116.644 843.231 116.263 843.232 115.877C843.231 115.492 843.3 115.111 843.434 114.755C843.569 114.399 843.766 114.075 844.014 113.803C844.263 113.53 844.559 113.314 844.884 113.166C845.209 113.019 845.557 112.943 845.909 112.943C846.261 112.943 846.61 113.019 846.935 113.166C847.26 113.314 847.555 113.53 847.804 113.803C848.052 114.075 848.25 114.399 848.384 114.755C848.518 115.111 848.587 115.492 848.587 115.877ZM853.471 110.429C853.472 110.815 853.403 111.196 853.269 111.552C853.134 111.908 852.937 112.232 852.688 112.504C852.44 112.777 852.144 112.993 851.819 113.141C851.494 113.288 851.146 113.364 850.794 113.364C850.442 113.364 850.093 113.288 849.768 113.141C849.443 112.993 849.148 112.777 848.899 112.504C848.65 112.232 848.453 111.908 848.319 111.552C848.185 111.196 848.116 110.815 848.116 110.429C848.116 110.044 848.185 109.663 848.319 109.307C848.453 108.951 848.65 108.627 848.899 108.355C849.148 108.082 849.443 107.866 849.768 107.718C850.093 107.571 850.442 107.495 850.794 107.495C851.146 107.495 851.494 107.571 851.819 107.718C852.144 107.866 852.44 108.082 852.688 108.355C852.937 108.627 853.134 108.951 853.269 109.307C853.403 109.663 853.472 110.044 853.471 110.429ZM859.577 106.86C859.578 107.245 859.509 107.627 859.374 107.983C859.24 108.339 859.043 108.662 858.794 108.935C858.546 109.208 858.25 109.424 857.925 109.571C857.6 109.719 857.252 109.795 856.9 109.795C856.548 109.795 856.199 109.719 855.874 109.571C855.549 109.424 855.254 109.208 855.005 108.935C854.756 108.662 854.559 108.339 854.425 107.983C854.29 107.627 854.222 107.245 854.222 106.86C854.222 106.475 854.29 106.093 854.425 105.737C854.559 105.381 854.756 105.058 855.005 104.785C855.254 104.513 855.549 104.296 855.874 104.149C856.199 104.001 856.548 103.925 856.9 103.925C857.252 103.925 857.6 104.001 857.925 104.149C858.25 104.296 858.546 104.513 858.794 104.785C859.043 105.058 859.24 105.381 859.374 105.737C859.509 106.093 859.578 106.475 859.577 106.86ZM866.555 104.982C866.556 105.367 866.487 105.748 866.353 106.104C866.218 106.46 866.021 106.784 865.772 107.056C865.524 107.329 865.228 107.545 864.903 107.693C864.578 107.84 864.23 107.916 863.878 107.916C863.526 107.916 863.177 107.84 862.852 107.693C862.527 107.545 862.232 107.329 861.983 107.056C861.734 106.784 861.537 106.46 861.403 106.104C861.269 105.748 861.2 105.367 861.2 104.982C861.2 104.596 861.269 104.215 861.403 103.859C861.537 103.503 861.734 103.179 861.983 102.907C862.232 102.634 862.527 102.418 862.852 102.27C863.177 102.123 863.526 102.047 863.878 102.047C864.23 102.047 864.578 102.123 864.903 102.27C865.228 102.418 865.524 102.634 865.772 102.907C866.021 103.179 866.218 103.503 866.353 103.859C866.487 104.215 866.556 104.596 866.555 104.982ZM873.708 105.357C873.708 105.742 873.639 106.124 873.505 106.48C873.371 106.836 873.174 107.16 872.925 107.432C872.676 107.705 872.381 107.921 872.056 108.068C871.731 108.216 871.382 108.292 871.03 108.292C870.678 108.292 870.33 108.216 870.005 108.068C869.68 107.921 869.384 107.705 869.136 107.432C868.887 107.16 868.69 106.836 868.555 106.48C868.421 106.124 868.352 105.742 868.353 105.357C868.352 104.972 868.421 104.591 868.555 104.235C868.69 103.879 868.887 103.555 869.136 103.282C869.384 103.01 869.68 102.794 870.005 102.646C870.33 102.499 870.678 102.423 871.03 102.423C871.382 102.423 871.731 102.499 872.056 102.646C872.381 102.794 872.676 103.01 872.925 103.282C873.174 103.555 873.371 103.879 873.505 104.235C873.639 104.591 873.708 104.972 873.708 105.357ZM893.072 110.805C893.073 111.19 893.004 111.572 892.869 111.928C892.735 112.284 892.538 112.607 892.289 112.88C892.041 113.153 891.745 113.369 891.42 113.516C891.095 113.664 890.746 113.74 890.395 113.74C890.043 113.74 889.694 113.664 889.369 113.516C889.044 113.369 888.749 113.153 888.5 112.88C888.251 112.607 888.054 112.284 887.92 111.928C887.785 111.572 887.717 111.19 887.717 110.805C887.717 110.42 887.785 110.038 887.92 109.682C888.054 109.326 888.251 109.003 888.5 108.73C888.749 108.458 889.044 108.242 889.369 108.094C889.694 107.946 890.043 107.871 890.395 107.871C890.746 107.871 891.095 107.946 891.42 108.094C891.745 108.242 892.041 108.458 892.289 108.73C892.538 109.003 892.735 109.326 892.869 109.682C893.004 110.038 893.073 110.42 893.072 110.805ZM880.512 107.424C880.512 107.809 880.443 108.19 880.309 108.546C880.174 108.903 879.977 109.226 879.729 109.499C879.48 109.771 879.185 109.987 878.859 110.135C878.534 110.282 878.186 110.358 877.834 110.358C877.482 110.358 877.134 110.282 876.808 110.135C876.483 109.987 876.188 109.771 875.939 109.499C875.691 109.226 875.494 108.903 875.359 108.546C875.225 108.19 875.156 107.809 875.156 107.424C875.156 107.039 875.225 106.657 875.359 106.301C875.494 105.945 875.691 105.621 875.939 105.349C876.188 105.076 876.483 104.86 876.808 104.713C877.134 104.565 877.482 104.489 877.834 104.489C878.186 104.489 878.534 104.565 878.859 104.713C879.185 104.86 879.48 105.076 879.729 105.349C879.977 105.621 880.174 105.945 880.309 106.301C880.443 106.657 880.512 107.039 880.512 107.424ZM886.792 109.49C886.792 109.875 886.723 110.257 886.589 110.613C886.455 110.969 886.258 111.292 886.009 111.565C885.76 111.838 885.465 112.054 885.14 112.201C884.815 112.349 884.466 112.425 884.114 112.425C883.762 112.425 883.414 112.349 883.089 112.201C882.764 112.054 882.468 111.838 882.22 111.565C881.971 111.292 881.774 110.969 881.639 110.613C881.505 110.257 881.436 109.875 881.437 109.49C881.436 109.105 881.505 108.723 881.639 108.367C881.774 108.011 881.971 107.688 882.22 107.415C882.468 107.143 882.764 106.927 883.089 106.779C883.414 106.631 883.762 106.556 884.114 106.556C884.466 106.556 884.815 106.631 885.14 106.779C885.465 106.927 885.76 107.143 886.009 107.415C886.258 107.688 886.455 108.011 886.589 108.367C886.723 108.723 886.792 109.105 886.792 109.49Z" fill="white" stroke="black" stroke-width="0.46831"/><path d="M893.467 97.4619C894.194 96.4703 895.063 95.7337 895.767 94.7254C896.507 93.6661 897.072 92.3273 897.362 90.9752C896.076 91.3205 894.833 91.9284 893.849 92.7251C892.913 93.4835 892.228 94.4192 891.308 95.2025V82.5016C892.228 83.2849 892.913 84.2206 893.849 84.979C894.833 85.7757 896.076 86.3836 897.362 86.7289C897.072 85.3768 896.507 84.038 895.767 82.9787C895.063 81.9704 894.194 81.2338 893.467 80.2422H906.534C905.806 81.2338 904.937 81.9704 904.233 82.9787C903.493 84.038 902.929 85.3768 902.638 86.7289C903.925 86.3836 905.168 85.7757 906.152 84.979C907.088 84.2206 907.772 83.2849 908.693 82.5016V95.2025C907.772 94.4192 907.088 93.4835 906.152 92.7251C905.168 91.9284 903.925 91.3205 902.638 90.9752C902.929 92.3273 903.493 93.6661 904.233 94.7254C904.937 95.7337 905.806 96.4703 906.534 97.4619H893.467Z" fill="#FFC72C" stroke="black" stroke-width="0.46831"/><path d="M903.24 88.8517C903.241 89.3178 903.158 89.7794 902.995 90.2102C902.833 90.641 902.594 91.0325 902.293 91.3623C901.992 91.6921 901.635 91.9537 901.241 92.1323C900.848 92.3108 900.426 92.4027 900.001 92.4027C899.575 92.4027 899.153 92.3108 898.76 92.1323C898.366 91.9537 898.009 91.6921 897.708 91.3623C897.407 91.0325 897.169 90.641 897.006 90.2102C896.844 89.7794 896.76 89.3178 896.761 88.8517C896.76 88.3856 896.844 87.924 897.006 87.4932C897.169 87.0624 897.407 86.6709 897.708 86.3411C898.009 86.0113 898.366 85.7497 898.76 85.5712C899.153 85.3927 899.575 85.3008 900.001 85.3008C900.426 85.3008 900.848 85.3927 901.241 85.5712C901.635 85.7497 901.992 86.0113 902.293 86.3411C902.594 86.6709 902.833 87.0624 902.995 87.4932C903.158 87.924 903.241 88.3856 903.24 88.8517Z" fill="white" stroke="black" stroke-width="0.468313"/><path d="M907.354 105.422C907.355 106.463 907.166 107.494 906.797 108.456C906.428 109.418 905.886 110.292 905.203 111.028C904.52 111.765 903.709 112.349 902.816 112.748C901.924 113.146 900.967 113.351 900 113.351C899.033 113.351 898.076 113.146 897.184 112.748C896.291 112.349 895.48 111.765 894.797 111.028C894.114 110.292 893.572 109.418 893.203 108.456C892.834 107.494 892.645 106.463 892.646 105.422C892.645 104.381 892.834 103.35 893.203 102.388C893.572 101.426 894.114 100.552 894.797 99.8154C895.48 99.0789 896.291 98.4946 897.184 98.096C898.076 97.6974 899.033 97.4922 900 97.4922C900.967 97.4922 901.924 97.6974 902.816 98.096C903.709 98.4946 904.52 99.0789 905.203 99.8154C905.886 100.552 906.428 101.426 906.797 102.388C907.166 103.35 907.355 104.381 907.354 105.422Z" fill="#FFC72C"/><path d="M907.354 105.422C907.355 106.463 907.166 107.494 906.797 108.456C906.428 109.418 905.886 110.292 905.203 111.028C904.52 111.765 903.709 112.349 902.816 112.748C901.924 113.146 900.967 113.351 900 113.351C899.033 113.351 898.076 113.146 897.184 112.748C896.291 112.349 895.48 111.765 894.797 111.028C894.114 110.292 893.572 109.418 893.203 108.456C892.834 107.494 892.645 106.463 892.646 105.422C892.645 104.381 892.834 103.35 893.203 102.388C893.572 101.426 894.114 100.552 894.797 99.8154C895.48 99.0789 896.291 98.4946 897.184 98.096C898.076 97.6974 899.033 97.4922 900 97.4922C900.967 97.4922 901.924 97.6974 902.816 98.096C903.709 98.4946 904.52 99.0789 905.203 99.8154C905.886 100.552 906.428 101.426 906.797 102.388C907.166 103.35 907.355 104.381 907.354 105.422Z" stroke="black" stroke-width="0.46831"/><path d="M898.429 96.8945V103.542H892.256V106.926H907.744V103.542H901.56V96.8945H898.429Z" fill="#FFC72C"/><path d="M898.429 96.8945V103.542H892.256V106.926H907.744V103.542H901.56V96.8945H898.429Z" stroke="black" stroke-width="0.46831"/><path d="M902.407 111.703H897.593C896.24 111.703 895.144 112.884 895.144 114.341V138.691C895.144 140.148 896.24 141.329 897.593 141.329H902.407C903.76 141.329 904.857 140.148 904.857 138.691V114.341C904.857 112.884 903.76 111.703 902.407 111.703Z" fill="#FFC72C"/><path d="M902.407 111.703H897.593C896.24 111.703 895.144 112.884 895.144 114.341V138.691C895.144 140.148 896.24 141.329 897.593 141.329H902.407C903.76 141.329 904.857 140.148 904.857 138.691V114.341C904.857 112.884 903.76 111.703 902.407 111.703Z" stroke="black" stroke-width="0.46831"/><path d="M896.325 113.095C896.325 112.309 895.632 111.672 894.776 111.672C893.921 111.672 893.228 112.309 893.228 113.095V139.934C893.228 140.72 893.921 141.357 894.776 141.357C895.632 141.357 896.325 140.72 896.325 139.934V113.095Z" fill="#FFC72C"/><path d="M894.776 111.672C895.635 111.672 896.325 112.307 896.325 113.095V139.934C896.325 140.723 895.635 141.357 894.776 141.357C893.918 141.357 893.228 140.723 893.228 139.934V113.095C893.228 112.307 893.918 111.672 894.776 111.672Z" stroke="black" stroke-width="0.46831"/><path d="M906.773 113.095C906.773 112.309 906.079 111.672 905.224 111.672C904.368 111.672 903.675 112.309 903.675 113.095V139.934C903.675 140.72 904.368 141.357 905.224 141.357C906.079 141.357 906.773 140.72 906.773 139.934V113.095Z" fill="#FFC72C"/><path d="M906.773 113.095C906.773 112.309 906.079 111.672 905.224 111.672C904.368 111.672 903.675 112.309 903.675 113.095V139.934C903.675 140.72 904.368 141.357 905.224 141.357C906.079 141.357 906.773 140.72 906.773 139.934V113.095Z" stroke="black" stroke-width="0.46831"/><path d="M902.677 112.333C902.678 112.718 902.609 113.1 902.475 113.456C902.34 113.812 902.143 114.135 901.894 114.408C901.646 114.681 901.35 114.897 901.025 115.044C900.7 115.192 900.352 115.268 900 115.268C899.648 115.268 899.299 115.192 898.974 115.044C898.649 114.897 898.354 114.681 898.105 114.408C897.857 114.135 897.659 113.812 897.525 113.456C897.391 113.1 897.322 112.718 897.322 112.333C897.322 111.948 897.391 111.566 897.525 111.21C897.659 110.854 897.857 110.531 898.105 110.258C898.354 109.986 898.649 109.769 898.974 109.622C899.299 109.474 899.648 109.398 900 109.398C900.352 109.398 900.7 109.474 901.025 109.622C901.35 109.769 901.646 109.986 901.894 110.258C902.143 110.531 902.34 110.854 902.475 111.21C902.609 111.566 902.678 111.948 902.677 112.333Z" fill="white" stroke="black" stroke-width="0.46831"/><path d="M902.677 118.161C902.678 118.546 902.609 118.928 902.475 119.284C902.34 119.64 902.143 119.964 901.894 120.236C901.646 120.509 901.35 120.725 901.025 120.872C900.7 121.02 900.352 121.096 900 121.096C899.648 121.096 899.299 121.02 898.974 120.872C898.649 120.725 898.354 120.509 898.105 120.236C897.857 119.964 897.659 119.64 897.525 119.284C897.391 118.928 897.322 118.546 897.322 118.161C897.322 117.776 897.391 117.395 897.525 117.038C897.659 116.682 897.857 116.359 898.105 116.086C898.354 115.814 898.649 115.598 898.974 115.45C899.299 115.302 899.648 115.227 900 115.227C900.352 115.227 900.7 115.302 901.025 115.45C901.35 115.598 901.646 115.814 901.894 116.086C902.143 116.359 902.34 116.682 902.475 117.038C902.609 117.395 902.678 117.776 902.677 118.161Z" fill="white" stroke="black" stroke-width="0.46831"/><path d="M902.677 123.997C902.678 124.382 902.609 124.764 902.475 125.12C902.34 125.476 902.143 125.799 901.894 126.072C901.646 126.345 901.35 126.561 901.025 126.708C900.7 126.856 900.352 126.932 900 126.932C899.648 126.932 899.299 126.856 898.974 126.708C898.649 126.561 898.354 126.345 898.105 126.072C897.857 125.799 897.659 125.476 897.525 125.12C897.391 124.764 897.322 124.382 897.322 123.997C897.322 123.612 897.391 123.23 897.525 122.874C897.659 122.518 897.857 122.195 898.105 121.922C898.354 121.65 898.649 121.434 898.974 121.286C899.299 121.138 899.648 121.063 900 121.062C900.352 121.063 900.7 121.138 901.025 121.286C901.35 121.434 901.646 121.65 901.894 121.922C902.143 122.195 902.34 122.518 902.475 122.874C902.609 123.23 902.678 123.612 902.677 123.997Z" fill="white" stroke="black" stroke-width="0.46831"/><path d="M902.677 129.833C902.678 130.218 902.609 130.6 902.475 130.956C902.34 131.312 902.143 131.635 901.894 131.908C901.646 132.181 901.35 132.397 901.025 132.544C900.7 132.692 900.352 132.768 900 132.768C899.648 132.768 899.299 132.692 898.974 132.544C898.649 132.397 898.354 132.181 898.105 131.908C897.857 131.635 897.659 131.312 897.525 130.956C897.391 130.6 897.322 130.218 897.322 129.833C897.322 129.448 897.391 129.066 897.525 128.71C897.659 128.354 897.857 128.031 898.105 127.758C898.354 127.486 898.649 127.269 898.974 127.122C899.299 126.974 899.648 126.898 900 126.898C900.352 126.898 900.7 126.974 901.025 127.122C901.35 127.269 901.646 127.486 901.894 127.758C902.143 128.031 902.34 128.354 902.475 128.71C902.609 129.066 902.678 129.448 902.677 129.833Z" fill="white" stroke="black" stroke-width="0.46831"/><path d="M902.677 135.669C902.678 136.054 902.609 136.436 902.475 136.792C902.34 137.148 902.143 137.471 901.894 137.744C901.646 138.016 901.35 138.233 901.025 138.38C900.7 138.528 900.352 138.604 900 138.604C899.648 138.604 899.299 138.528 898.974 138.38C898.649 138.233 898.354 138.016 898.105 137.744C897.857 137.471 897.659 137.148 897.525 136.792C897.391 136.436 897.322 136.054 897.322 135.669C897.322 135.284 897.391 134.902 897.525 134.546C897.659 134.19 897.857 133.867 898.105 133.594C898.354 133.322 898.649 133.105 898.974 132.958C899.299 132.81 899.648 132.734 900 132.734C900.352 132.734 900.7 132.81 901.025 132.958C901.35 133.105 901.646 133.322 901.894 133.594C902.143 133.867 902.34 134.19 902.475 134.546C902.609 134.902 902.678 135.284 902.677 135.669Z" fill="white" stroke="black" stroke-width="0.46831"/><path d="M948.085 154.191C945.508 160.397 943.443 166.456 941.42 172.69H858.323C856.368 166.663 854.373 160.181 851.914 154.191C851.914 154.191 857.086 161.984 860.959 163.869C863.11 164.915 865.801 165.227 868.025 164.376C870.956 163.254 874.856 157.527 874.856 157.527C874.856 157.527 878.362 161.947 880.744 163.108C882.98 164.197 885.595 164.241 888.046 164.122C890.216 164.017 892.619 163.928 894.406 162.6C897.112 160.589 899.823 153.723 899.823 153.723C899.823 153.723 902.446 159.125 904.534 161.078C906.257 162.69 908.42 163.894 910.658 164.376C912.897 164.858 915.342 164.702 917.489 163.869C920.4 162.738 925.027 158.035 925.027 158.035C925.027 158.035 928.211 162.288 930.444 163.361C932.606 164.4 935.206 164.706 937.511 164.122C939.949 163.504 941.998 161.602 943.87 159.81C945.541 158.211 948.085 154.191 948.085 154.191Z" fill="#FFC72C"/><path d="M948.085 154.191C945.508 160.397 943.443 166.456 941.42 172.69H858.323C856.368 166.663 854.373 160.181 851.914 154.191C851.914 154.191 857.086 161.984 860.959 163.869C863.11 164.915 865.801 165.227 868.025 164.376C870.956 163.254 874.856 157.527 874.856 157.527C874.856 157.527 878.362 161.947 880.744 163.108C882.98 164.197 885.595 164.241 888.046 164.122C890.216 164.017 892.619 163.928 894.406 162.6C897.112 160.589 899.823 153.723 899.823 153.723C899.823 153.723 902.446 159.125 904.534 161.078C906.257 162.69 908.42 163.894 910.658 164.376C912.897 164.858 915.342 164.702 917.489 163.869C920.4 162.738 925.027 158.035 925.027 158.035C925.027 158.035 928.211 162.288 930.444 163.361C932.606 164.4 935.206 164.706 937.511 164.122C939.949 163.504 941.998 161.602 943.87 159.81C945.541 158.211 948.085 154.191 948.085 154.191Z" stroke="black" stroke-width="0.46831"/><path d="M900 157.709C900 157.709 898.105 160.85 896.94 161.923C895.322 163.413 894.257 164.311 892.179 165.017C890.104 165.721 887.21 166.117 885.038 165.989C882.937 165.865 880.776 165.209 878.882 164.221C877.236 163.363 874.614 160.862 874.614 160.862C873.339 162.644 871.716 163.895 870.171 164.819C868.195 166.001 866.243 166.108 864.192 165.989C860.023 165.747 856.135 162.943 853.015 157.257C850.993 152.106 848.666 146.889 845.761 141.419C849.109 140.143 853.012 139.463 857.34 139.242C855.58 144.584 853.753 149.787 854.399 154.087C858.036 151.154 859.213 147.161 860.465 143.201L864.692 159.233C862.127 158.748 863.491 158.177 856.753 156.802C858.103 159.543 861.194 162.929 864.602 163.262C866.893 163.486 868.557 162.724 870.013 161.363C871.06 160.386 872.014 159.094 872.001 157.638C871.994 156.804 871.987 155.97 871.98 155.136C871.975 154.6 871.361 153.842 870.864 153.834C870.389 153.827 870.258 154.656 870.132 155.148C869.879 156.132 870.387 157.228 870.132 158.212C869.85 159.297 869.311 160.153 868.424 160.751C867.686 161.249 865.904 161.364 865.904 161.364L866.473 159C866.874 157.332 865.371 156.038 865.009 154.36C864.777 153.279 864.648 152.071 865.009 151.033C865.4 149.909 866.191 148.815 867.205 148.318C867.575 148.137 868.019 148.112 868.424 148.143C868.998 148.187 870.132 148.581 870.132 148.581C870.132 148.581 869.806 146.891 869.888 145.867C869.987 144.625 870.964 142.323 871.514 141.226C872.427 139.405 873.88 137.763 874.046 137.587C874.205 137.759 875.78 139.338 876.809 141.086C877.428 142.14 878.064 143.662 878.243 144.893C878.39 145.909 878.337 148.057 878.337 148.057C878.337 148.057 880.012 147.316 880.581 147.23C880.984 147.168 881.429 147.16 881.809 147.313C882.853 147.733 883.712 148.765 884.175 149.856C884.602 150.865 884.552 152.08 884.39 153.175C884.137 154.877 883.209 156.193 883.717 157.827L884.438 160.142C884.438 160.142 882.652 160.161 881.884 159.72C880.961 159.19 880.367 158.376 880.017 157.315C879.698 156.352 879.883 155.174 879.331 154.345C879.086 153.979 878.744 153.572 878.272 153.615C877.776 153.66 877.428 154.532 877.407 155.067L877.32 157.319C877.293 158.011 877.585 158.73 877.929 159.29C878.772 160.662 880.027 161.494 881.442 162.111C882.975 162.78 884.358 163.038 886.012 163.058C887.392 163.076 889.79 162.832 891.098 162.357C892.709 161.771 893.656 161.026 894.902 159.781C895.605 159.079 896.074 158.059 896.383 157.082C896.739 155.957 896.611 154.015 896.611 154.015C895.008 154.67 893.614 155.549 892.358 156.577C890.939 157.738 889.695 159.089 888.523 160.517L888.409 141.135C890.079 143.119 891.293 144.895 892.963 146.389C894.369 147.647 895.091 148.127 896.497 148.618C896.095 147.059 895.96 146.113 894.923 144.554C893.486 142.392 892.086 140.071 890.346 137.909C893.55 137.335 896.753 137.18 900 137.18C903.247 137.18 906.449 137.335 909.654 137.909C907.913 140.071 906.514 142.392 905.076 144.554C904.04 146.113 903.904 147.059 903.502 148.618C904.908 148.127 905.631 147.647 907.037 146.389C908.706 144.895 909.92 143.119 911.59 141.135L911.476 160.517C910.304 159.089 909.06 157.738 907.641 156.577C906.385 155.549 904.991 154.67 903.388 154.015C903.388 154.015 903.26 155.957 903.616 157.082C903.925 158.059 904.395 159.079 905.097 159.781C906.343 161.026 907.291 161.771 908.901 162.357C910.209 162.832 912.607 163.076 913.987 163.058C915.641 163.038 917.024 162.78 918.557 162.111C919.973 161.494 921.227 160.662 922.07 159.29C922.414 158.73 922.707 158.011 922.68 157.319L922.592 155.067C922.571 154.532 922.223 153.66 921.727 153.615C921.255 153.572 920.913 153.979 920.669 154.345C920.116 155.174 920.301 156.352 919.983 157.315C919.632 158.376 919.038 159.19 918.115 159.72C917.347 160.161 915.561 160.142 915.561 160.142L916.282 157.827C916.79 156.193 915.862 154.877 915.61 153.175C915.447 152.08 915.397 150.865 915.825 149.856C916.287 148.765 917.146 147.733 918.19 147.313C918.571 147.16 919.015 147.168 919.418 147.23C919.987 147.316 921.662 148.057 921.662 148.057C921.662 148.057 921.609 145.909 921.757 144.893C921.935 143.662 922.571 142.14 923.191 141.086C924.22 139.338 925.794 137.759 925.953 137.587C926.119 137.763 927.572 139.405 928.485 141.226C929.035 142.323 930.013 144.625 930.111 145.867C930.193 146.891 929.868 148.581 929.868 148.581C929.868 148.581 931.002 148.187 931.575 148.143C931.98 148.112 932.425 148.137 932.795 148.318C933.809 148.815 934.599 149.909 934.99 151.033C935.351 152.071 935.223 153.279 934.99 154.36C934.628 156.038 933.125 157.332 933.526 159L934.096 161.364C934.096 161.364 932.313 161.249 931.575 160.751C930.689 160.153 930.149 159.297 929.868 158.212C929.612 157.228 930.121 156.132 929.868 155.148C929.741 154.656 929.61 153.827 929.136 153.834C928.638 153.842 928.024 154.6 928.02 155.136C928.013 155.97 928.005 156.804 927.998 157.638C927.986 159.094 928.94 160.386 929.986 161.363C931.443 162.724 933.106 163.486 935.397 163.262C938.805 162.929 941.896 159.543 943.247 156.802C936.508 158.177 937.873 158.748 935.307 159.233L939.534 143.201C940.787 147.161 941.963 151.154 945.6 154.087C946.246 149.787 944.419 144.584 942.659 139.242C946.987 139.463 950.89 140.143 954.239 141.419C951.333 146.889 949.007 152.106 946.984 157.257C943.865 162.943 939.976 165.747 935.807 165.989C933.756 166.108 931.804 166.001 929.828 164.819C928.283 163.895 926.66 162.644 925.385 160.862C925.385 160.862 922.763 163.363 921.117 164.221C919.224 165.209 917.062 165.865 914.961 165.989C912.789 166.117 909.895 165.721 907.82 165.017C905.742 164.311 904.678 163.413 903.06 161.923C901.894 160.85 900 157.709 900 157.709Z" fill="#FFC72C"/><path d="M864.192 165.989C860.023 165.747 856.135 162.943 853.015 157.258C850.993 152.106 848.666 146.889 845.761 141.419C849.109 140.143 853.012 139.463 857.34 139.242C855.58 144.584 853.753 149.787 854.399 154.087C858.036 151.154 859.213 147.161 860.465 143.201L864.692 159.233C862.127 158.748 863.491 158.178 856.753 156.802C858.103 159.544 861.194 162.929 864.602 163.262L864.192 165.989ZM935.397 163.262C938.805 162.929 941.896 159.544 943.247 156.802C936.508 158.178 937.873 158.748 935.307 159.233L939.534 143.201C940.787 147.161 941.963 151.154 945.6 154.087C946.246 149.787 944.419 144.584 942.659 139.242C946.987 139.463 950.89 140.143 954.239 141.419C951.333 146.889 949.007 152.106 946.984 157.258C943.865 162.943 939.976 165.747 935.807 165.989L935.727 166.148L935.397 163.262Z" fill="#FFC72C"/><path d="M885.038 165.988C882.937 165.864 880.776 165.208 878.882 164.22C877.236 163.361 874.614 160.861 874.614 160.861C873.339 162.642 871.716 163.894 870.171 164.818C868.195 166 866.243 166.107 864.192 165.988L864.12 166.761L864.602 163.261C866.893 163.485 868.557 162.723 870.013 161.362C871.059 160.385 872.014 159.092 872.001 157.636C871.994 156.803 871.987 155.969 871.979 155.135C871.975 154.599 871.361 153.841 870.863 153.833C870.389 153.826 870.258 154.655 870.132 155.147C869.878 156.131 870.387 157.227 870.132 158.211C869.85 159.296 869.31 160.152 868.424 160.75C867.686 161.248 865.904 161.363 865.904 161.363L866.473 158.999C866.874 157.331 865.371 156.037 865.009 154.359C864.777 153.278 864.648 152.07 865.009 151.032C865.4 149.908 866.191 148.814 867.205 148.317C867.575 148.136 868.019 148.111 868.424 148.142C868.998 148.186 870.132 148.58 870.132 148.58C870.132 148.58 869.806 146.89 869.888 145.866C869.987 144.623 870.964 142.322 871.514 141.225C872.427 139.404 873.88 137.762 874.046 137.586C874.205 137.758 875.779 139.336 876.808 141.085C877.428 142.138 878.064 143.66 878.243 144.892C878.39 145.908 878.337 148.056 878.337 148.056C878.337 148.056 880.012 147.315 880.581 147.229C880.984 147.167 881.429 147.159 881.809 147.312C882.853 147.732 883.712 148.763 884.175 149.855C884.602 150.864 884.552 152.079 884.39 153.174C884.137 154.876 883.209 156.192 883.717 157.825L884.438 160.141C884.438 160.141 882.652 160.16 881.884 159.719C880.961 159.188 880.367 158.374 880.016 157.313C879.698 156.351 879.883 155.173 879.331 154.344C879.086 153.977 878.744 153.571 878.272 153.614C877.776 153.659 877.428 154.531 877.407 155.066L877.319 157.318C877.293 158.01 877.585 158.729 877.929 159.289C878.772 160.66 880.027 161.492 881.442 162.11C882.975 162.779 884.358 163.036 886.012 163.057L885.038 165.988Z" fill="#FFC72C"/><path d="M926.391 157.581L926.343 157.494C926.285 156.432 926.618 154.615 926.618 154.615C926.804 153.71 927.524 152.742 928.416 152.395C928.897 152.207 929.481 152.135 929.999 152.407C930.314 152.574 930.569 152.703 930.778 152.937C930.987 153.171 931.117 153.479 931.257 153.918C931.463 154.56 931.373 155.229 931.269 155.803C931.098 156.749 931.117 157.576 931.365 158.216C931.541 158.669 931.893 159.008 932.348 159.301C932.264 158.977 932.203 158.82 932.157 158.462C932.088 157.93 932.171 157.381 932.36 156.9C932.69 156.062 933.144 155.402 933.451 154.667C933.744 153.965 933.897 153.171 933.847 152.42C933.805 151.801 933.635 151.161 933.307 150.716C932.952 150.234 932.41 149.834 931.869 149.722C931.388 149.623 930.597 149.8 929.963 150.019C929.329 150.239 928.848 150.484 928.848 150.484L928.285 150.768L928.38 150.11C928.71 147.896 929.001 146.771 928.38 144.701C928.125 143.85 927.699 142.911 926.978 141.822C926.628 141.294 926.237 140.663 925.791 140.08C924.63 141.504 923.82 142.946 923.358 144.404C922.852 146 922.832 148.122 922.95 149.826L922.998 150.51L922.459 150.161C922.459 150.161 921.845 149.756 921.104 149.374C920.363 148.991 919.459 148.654 919.078 148.69C918.359 148.758 917.88 149.128 917.412 149.774C917.015 150.323 916.929 150.799 916.849 151.555C916.797 152.034 916.909 152.933 916.98 153.518C917.064 154.203 917.438 154.923 917.544 155.79C917.579 156.076 917.661 156.301 917.724 156.577C917.786 156.853 917.817 157.178 917.748 157.558C917.699 157.821 917.627 158.011 917.532 158.333C917.716 158.237 917.842 158.188 917.939 158.113C918.295 157.838 918.439 157.35 918.671 156.758C918.795 156.439 918.822 156.153 918.838 155.815C918.854 155.478 918.87 155.081 919.03 154.641C919.304 153.888 919.626 152.995 920.337 152.446C920.918 151.997 921.694 151.872 922.375 152.098C922.778 152.231 923.066 152.499 923.274 152.808C923.481 153.116 923.62 153.453 923.765 153.789C923.951 154.219 924.062 154.862 924.149 155.428C924.236 155.995 924.281 156.474 924.281 156.474L924.293 156.525L924.281 156.59L923.785 158.363L923.154 158.21L923.633 156.514C923.63 156.481 923.582 156.071 923.502 155.546C923.418 155 923.291 154.349 923.178 154.087C923.03 153.744 922.896 153.445 922.746 153.222C922.597 153 922.445 152.857 922.183 152.771C921.714 152.615 921.105 152.71 920.709 153.016C920.206 153.404 919.901 154.156 919.63 154.901C919.512 155.224 919.502 155.515 919.486 155.856C919.47 156.197 919.453 156.593 919.282 157.03C919.07 157.573 918.895 158.24 918.323 158.683C917.901 159.009 917.136 159.328 917.136 159.328L916.465 159.625L916.705 158.889C916.705 158.889 917.043 157.81 917.112 157.431C917.16 157.168 917.141 156.978 917.088 156.746C917.036 156.514 916.941 156.245 916.896 155.882C916.813 155.196 916.438 154.476 916.333 153.61C916.264 153.045 916.129 152.153 916.201 151.48C916.285 150.694 916.408 150.013 916.896 149.337C917.432 148.597 918.111 148.08 919.018 147.994C919.736 147.927 920.618 148.344 921.392 148.743C921.89 149 922.041 149.118 922.291 149.272C922.21 147.637 922.234 145.75 922.734 144.173C923.265 142.502 924.173 140.854 925.551 139.255L925.791 138.984L926.031 139.255C926.672 139.998 927.11 140.813 927.505 141.411C928.26 142.55 928.727 143.56 929.004 144.483C929.597 146.461 929.379 147.811 929.1 149.634C929.318 149.535 929.394 149.48 929.771 149.35C930.449 149.115 931.276 148.893 931.989 149.04C932.718 149.19 933.375 149.671 933.823 150.279C934.267 150.883 934.458 151.655 934.506 152.37C934.566 153.259 934.384 154.168 934.051 154.965C933.706 155.79 933.25 156.448 932.96 157.185C932.814 157.557 932.742 157.988 932.792 158.373C932.866 158.949 933.152 159.883 933.152 159.883L933.355 160.542L932.732 160.322C931.737 159.959 931.086 159.3 930.766 158.476C930.446 157.652 930.448 156.69 930.634 155.662C930.732 155.122 930.784 154.583 930.646 154.152C930.519 153.753 930.426 153.558 930.31 153.429C930.195 153.3 930.018 153.203 929.711 153.042C929.428 152.892 928.99 152.915 928.632 153.054C928.039 153.286 927.33 154.14 927.266 154.745C927.152 155.815 926.87 156.903 926.391 157.581ZM945.091 156.32L945.259 155.959L944.899 155.829C942.222 154.917 939.75 155.607 937.419 156.669C938.361 153.897 939.078 151.129 939.589 148.355C942.13 153.272 944.286 154.881 946.314 155.881L946.685 156.062L946.769 155.623C947.374 152.266 947.421 147.793 944.863 141.139C947.729 141.3 950.58 141.67 953.41 143.024L953.674 142.379C950.566 140.892 947.462 140.522 944.396 140.378L943.868 140.352L944.084 140.868C946.711 147.435 946.711 151.709 946.182 155.004C944.234 153.983 942.262 152.441 939.745 147.271L939.301 146.368L939.133 147.374C938.586 150.633 937.733 153.897 936.58 157.159L936.292 157.96L937.011 157.598C939.365 156.448 941.746 155.699 944.312 156.424L944.375 156.466L945.091 156.32ZM855.688 156.423C858.251 155.703 860.626 156.449 862.977 157.598L863.696 157.959L863.42 157.159C862.267 153.897 861.414 150.633 860.867 147.374L860.699 146.368L860.256 147.271C857.737 152.443 855.755 153.983 853.806 155.004C853.277 151.709 853.289 147.435 855.916 140.868L856.12 140.352L855.604 140.378C852.538 140.522 849.434 140.892 846.326 142.379L846.59 143.024C849.424 141.668 852.267 141.299 855.137 141.139C852.579 147.793 852.626 152.266 853.231 155.623L853.303 156.062L853.686 155.881C855.713 154.881 857.873 153.277 860.411 148.368C860.922 151.137 861.641 153.902 862.581 156.669C860.25 155.607 857.778 154.917 855.101 155.829L854.741 155.959L854.909 156.32L854.84 156.358L855.688 156.423ZM876.742 157.984L876.367 156.475C876.373 156.411 876.409 156.049 876.487 155.546C876.571 155 876.709 154.349 876.822 154.087C876.971 153.743 877.104 153.445 877.254 153.222C877.404 153 877.556 152.857 877.817 152.77C878.287 152.615 878.884 152.71 879.28 153.016C879.783 153.404 880.099 154.156 880.371 154.9C880.488 155.224 880.498 155.515 880.514 155.856C880.531 156.196 880.547 156.593 880.718 157.03C880.93 157.572 881.105 158.24 881.677 158.683C882.099 159.009 882.864 159.328 882.864 159.328L883.523 159.625L883.296 158.889C883.296 158.889 882.958 157.81 882.888 157.43C882.84 157.168 882.859 156.978 882.912 156.746C882.964 156.514 883.048 156.245 883.092 155.881C883.175 155.196 883.55 154.476 883.655 153.609C883.724 153.045 883.871 152.153 883.799 151.479C883.715 150.694 883.593 150.013 883.104 149.337C882.568 148.596 881.889 148.08 880.982 147.994C880.265 147.926 879.382 148.343 878.608 148.743C878.111 149 877.959 149.118 877.709 149.272C877.791 147.636 877.766 145.75 877.266 144.173C876.736 142.501 875.828 140.853 874.449 139.255L874.209 138.984L873.969 139.255C873.328 139.998 872.879 140.813 872.483 141.411C871.728 142.549 871.273 143.56 870.996 144.483C870.403 146.461 870.621 147.811 870.9 149.634C870.682 149.534 870.609 149.481 870.229 149.35C869.551 149.115 868.725 148.893 868.011 149.04C867.282 149.19 866.625 149.671 866.177 150.279C865.733 150.883 865.542 151.654 865.494 152.37C865.434 153.258 865.616 154.167 865.95 154.965C866.294 155.79 866.751 156.447 867.041 157.185C867.187 157.557 867.246 157.988 867.196 158.373C867.122 158.949 866.849 159.883 866.849 159.883L866.645 160.541L867.268 160.322C868.263 159.958 868.915 159.3 869.234 158.476C869.554 157.652 869.552 156.69 869.366 155.662C869.268 155.122 869.216 154.583 869.354 154.152C869.482 153.753 869.575 153.558 869.69 153.429C869.805 153.3 869.97 153.203 870.277 153.041C870.561 152.892 871.011 152.915 871.368 153.054C871.961 153.285 872.607 154.149 872.735 154.745C872.735 154.745 872.735 154.758 872.735 154.758C872.738 154.775 873.044 156.621 872.998 157.456L873.768 157.602C873.704 156.434 873.37 154.616 873.37 154.616C873.184 153.712 872.476 152.744 871.584 152.396C871.103 152.208 870.507 152.136 869.989 152.409C869.674 152.575 869.431 152.704 869.222 152.938C869.013 153.172 868.871 153.48 868.731 153.919C868.526 154.561 868.615 155.23 868.719 155.804C868.89 156.75 868.871 157.577 868.623 158.218C868.448 158.67 868.107 159.009 867.652 159.302C867.736 158.978 867.797 158.822 867.844 158.463C867.912 157.931 867.829 157.382 867.64 156.901C867.311 156.063 866.856 155.403 866.549 154.668C866.256 153.967 866.091 153.172 866.141 152.422C866.183 151.802 866.353 151.163 866.681 150.718C867.036 150.235 867.59 149.835 868.131 149.724C868.613 149.625 869.391 149.801 870.025 150.021C870.66 150.24 871.152 150.485 871.152 150.485L871.716 150.769L871.608 150.111C871.278 147.897 870.999 146.773 871.62 144.702C871.875 143.851 872.289 142.912 873.01 141.824C873.361 141.295 873.763 140.664 874.209 140.081C875.37 141.505 876.18 142.948 876.642 144.405C877.149 146.001 877.157 148.123 877.038 149.827L877.002 150.511L877.542 150.163C877.542 150.163 878.143 149.758 878.884 149.375C879.625 148.993 880.541 148.655 880.922 148.691C881.641 148.759 882.121 149.129 882.588 149.775C882.985 150.324 883.071 150.8 883.152 151.557C883.203 152.035 883.079 152.934 883.008 153.519C882.924 154.204 882.562 154.925 882.456 155.791C882.422 156.077 882.339 156.302 882.277 156.578C882.214 156.855 882.171 157.179 882.241 157.559C882.289 157.822 882.361 158.012 882.456 158.334C882.273 158.238 882.146 158.19 882.049 158.114C881.693 157.839 881.549 157.351 881.318 156.759C881.193 156.44 881.178 156.154 881.162 155.817C881.146 155.479 881.13 155.082 880.97 154.642C880.696 153.89 880.374 152.996 879.663 152.448C879.082 151.998 878.306 151.873 877.626 152.099C877.222 152.233 876.922 152.501 876.714 152.809C876.507 153.117 876.38 153.454 876.235 153.79C876.049 154.22 875.938 154.863 875.851 155.429C875.764 155.996 875.708 156.475 875.708 156.475V156.527L875.719 156.591L876.106 158.139L876.297 158.161L876.742 157.984ZM901.552 152.267L901.564 151.828L901.96 151.931C903.784 152.424 905.179 153.089 906.335 153.829C907.803 154.767 908.887 155.821 910.028 156.837L910.219 145.18C909.248 146.335 908.336 147.572 906.995 148.562C905.899 149.37 903.846 150.433 901.924 150.666L901.469 150.718L901.564 150.24C901.835 148.926 901.827 148.014 902.44 146.458C903.021 144.982 904.246 142.841 906.683 139.255C904.575 139.004 902.738 138.726 899.994 138.726C897.251 138.726 895.424 139.004 893.317 139.255C895.755 142.841 896.98 144.982 897.561 146.458C898.173 148.014 898.165 148.926 898.436 150.24L898.532 150.718L898.076 150.666C896.155 150.433 894.101 149.37 893.005 148.562C891.669 147.576 890.748 146.344 889.781 145.193L889.973 156.824C891.108 155.811 892.202 154.764 893.665 153.829C894.822 153.089 896.204 152.424 898.028 151.931L898.436 151.828V152.267L897.779 152.761C896.238 153.229 895.007 153.792 894 154.436C892.388 155.466 891.223 156.67 889.853 157.843L889.337 158.282L889.325 157.572L889.121 144.276L889.097 143.399L889.673 144.018C890.938 145.392 891.886 146.89 893.365 147.981C894.277 148.654 896.064 149.554 897.704 149.866C897.522 148.807 897.441 147.979 896.949 146.729C896.373 145.265 895.187 143.119 892.478 139.177L892.142 138.687L892.706 138.622C895.04 138.362 896.966 138.016 899.994 138.016C903.023 138.016 904.948 138.362 907.283 138.623L907.858 138.687L907.522 139.178C904.814 143.119 903.615 145.265 903.039 146.729C902.545 147.984 902.48 148.814 902.296 149.879C903.937 149.567 905.711 148.655 906.623 147.981C908.102 146.89 909.062 145.392 910.327 144.018L910.891 143.399L910.879 144.277L910.663 157.573V158.283L910.136 157.844C908.765 156.67 907.612 155.466 906 154.436C904.993 153.792 903.762 153.229 902.224 152.771L901.552 152.267Z" fill="black"/><path d="M900 157.709C900 157.709 898.105 160.85 896.94 161.923C895.322 163.413 894.257 164.311 892.179 165.017C890.104 165.721 887.21 166.117 885.038 165.989C882.937 165.865 880.776 165.209 878.882 164.221C877.236 163.363 874.614 160.862 874.614 160.862C873.339 162.644 871.716 163.895 870.171 164.819C868.195 166.001 866.243 166.108 864.192 165.989C860.023 165.747 856.135 162.943 853.015 157.257C850.993 152.106 848.666 146.889 845.761 141.419C849.109 140.143 853.012 139.463 857.34 139.242C855.58 144.584 853.753 149.787 854.399 154.087C858.036 151.154 859.213 147.161 860.465 143.201L864.692 159.233C862.127 158.748 863.491 158.177 856.753 156.802C858.103 159.543 861.194 162.929 864.602 163.262C866.893 163.486 868.557 162.724 870.013 161.363C871.06 160.386 872.014 159.094 872.001 157.638C871.994 156.804 871.987 155.97 871.98 155.136C871.975 154.6 871.361 153.842 870.864 153.834C870.389 153.827 870.258 154.656 870.132 155.148C869.879 156.132 870.387 157.228 870.132 158.212C869.85 159.297 869.311 160.153 868.424 160.751C867.686 161.249 865.904 161.364 865.904 161.364L866.473 159C866.874 157.332 865.371 156.038 865.009 154.36C864.777 153.279 864.648 152.071 865.009 151.033C865.4 149.909 866.191 148.815 867.205 148.318C867.575 148.137 868.019 148.112 868.424 148.143C868.998 148.187 870.132 148.581 870.132 148.581C870.132 148.581 869.806 146.891 869.888 145.867C869.987 144.625 870.964 142.323 871.514 141.226C872.427 139.405 873.88 137.763 874.046 137.587C874.205 137.759 875.78 139.338 876.809 141.086C877.428 142.14 878.064 143.662 878.243 144.893C878.39 145.909 878.337 148.057 878.337 148.057C878.337 148.057 880.012 147.316 880.581 147.23C880.984 147.168 881.429 147.16 881.809 147.313C882.853 147.733 883.712 148.765 884.175 149.856C884.602 150.865 884.552 152.08 884.39 153.175C884.137 154.877 883.209 156.193 883.717 157.827L884.438 160.142C884.438 160.142 882.652 160.161 881.884 159.72C880.961 159.19 880.367 158.376 880.017 157.315C879.698 156.352 879.883 155.174 879.331 154.345C879.086 153.979 878.744 153.572 878.272 153.615C877.776 153.66 877.428 154.532 877.407 155.067L877.32 157.319C877.293 158.011 877.585 158.73 877.929 159.29C878.772 160.662 880.027 161.494 881.442 162.111C882.975 162.78 884.358 163.038 886.012 163.058C887.392 163.076 889.79 162.832 891.098 162.357C892.709 161.771 893.656 161.026 894.902 159.781C895.605 159.079 896.074 158.059 896.383 157.082C896.739 155.957 896.611 154.015 896.611 154.015C895.008 154.67 893.614 155.549 892.358 156.577C890.939 157.738 889.695 159.089 888.523 160.517L888.409 141.135C890.079 143.119 891.293 144.895 892.963 146.389C894.369 147.647 895.091 148.127 896.497 148.618C896.095 147.059 895.96 146.113 894.923 144.554C893.486 142.392 892.086 140.071 890.346 137.909C893.55 137.335 896.753 137.18 900 137.18C903.247 137.18 906.449 137.335 909.654 137.909C907.913 140.071 906.514 142.392 905.076 144.554C904.04 146.113 903.904 147.059 903.502 148.618C904.908 148.127 905.631 147.647 907.037 146.389C908.706 144.895 909.92 143.119 911.59 141.135L911.476 160.517C910.304 159.089 909.06 157.738 907.641 156.577C906.385 155.549 904.991 154.67 903.388 154.015C903.388 154.015 903.26 155.957 903.616 157.082C903.925 158.059 904.395 159.079 905.097 159.781C906.343 161.026 907.291 161.771 908.901 162.357C910.209 162.832 912.607 163.076 913.987 163.058C915.641 163.038 917.024 162.78 918.557 162.111C919.973 161.494 921.227 160.662 922.07 159.29C922.414 158.73 922.707 158.011 922.68 157.319L922.592 155.067C922.571 154.532 922.223 153.66 921.727 153.615C921.255 153.572 920.913 153.979 920.669 154.345C920.116 155.174 920.301 156.352 919.983 157.315C919.632 158.376 919.038 159.19 918.115 159.72C917.347 160.161 915.561 160.142 915.561 160.142L916.282 157.827C916.79 156.193 915.862 154.877 915.61 153.175C915.447 152.08 915.397 150.865 915.825 149.856C916.287 148.765 917.146 147.733 918.19 147.313C918.571 147.16 919.015 147.168 919.418 147.23C919.987 147.316 921.662 148.057 921.662 148.057C921.662 148.057 921.609 145.909 921.757 144.893C921.935 143.662 922.571 142.14 923.191 141.086C924.22 139.338 925.794 137.759 925.953 137.587C926.119 137.763 927.572 139.405 928.485 141.226C929.035 142.323 930.013 144.625 930.111 145.867C930.193 146.891 929.868 148.581 929.868 148.581C929.868 148.581 931.002 148.187 931.575 148.143C931.98 148.112 932.425 148.137 932.795 148.318C933.809 148.815 934.599 149.909 934.99 151.033C935.351 152.071 935.223 153.279 934.99 154.36C934.628 156.038 933.125 157.332 933.526 159L934.096 161.364C934.096 161.364 932.313 161.249 931.575 160.751C930.689 160.153 930.149 159.297 929.868 158.212C929.612 157.228 930.121 156.132 929.868 155.148C929.741 154.656 929.61 153.827 929.136 153.834C928.638 153.842 928.024 154.6 928.02 155.136C928.013 155.97 928.005 156.804 927.998 157.638C927.986 159.094 928.94 160.386 929.986 161.363C931.443 162.724 933.106 163.486 935.397 163.262C938.805 162.929 941.896 159.543 943.247 156.802C936.508 158.177 937.873 158.748 935.307 159.233L939.534 143.201C940.787 147.161 941.963 151.154 945.6 154.087C946.246 149.787 944.419 144.584 942.659 139.242C946.987 139.463 950.89 140.143 954.239 141.419C951.333 146.889 949.007 152.106 946.984 157.257C943.865 162.943 939.976 165.747 935.807 165.989C933.756 166.108 931.804 166.001 929.828 164.819C928.283 163.895 926.66 162.644 925.385 160.862C925.385 160.862 922.763 163.363 921.117 164.221C919.224 165.209 917.062 165.865 914.961 165.989C912.789 166.117 909.895 165.721 907.82 165.017C905.742 164.311 904.678 163.413 903.06 161.923C901.894 160.85 900 157.709 900 157.709Z" stroke="black" stroke-width="0.46831"/><path d="M902.945 151.193C902.945 151.617 902.87 152.036 902.722 152.428C902.574 152.82 902.357 153.176 902.084 153.475C901.81 153.775 901.485 154.013 901.128 154.175C900.77 154.338 900.387 154.421 900 154.421C899.612 154.421 899.229 154.338 898.872 154.175C898.514 154.013 898.189 153.775 897.916 153.475C897.642 153.176 897.425 152.82 897.277 152.428C897.13 152.036 897.054 151.617 897.054 151.193C897.054 150.769 897.13 150.35 897.277 149.958C897.425 149.566 897.642 149.21 897.916 148.911C898.189 148.611 898.514 148.373 898.872 148.211C899.229 148.048 899.612 147.965 900 147.965C900.387 147.965 900.77 148.048 901.128 148.211C901.485 148.373 901.81 148.611 902.084 148.911C902.357 149.21 902.574 149.566 902.722 149.958C902.87 150.35 902.945 150.769 902.945 151.193ZM856.344 155.627C856.344 156.051 856.269 156.471 856.121 156.862C855.973 157.254 855.756 157.61 855.483 157.91C855.209 158.209 854.884 158.447 854.527 158.609C854.169 158.772 853.786 158.855 853.398 158.855C853.011 158.855 852.628 158.772 852.27 158.609C851.913 158.447 851.588 158.209 851.314 157.91C851.041 157.61 850.824 157.254 850.676 156.862C850.528 156.471 850.453 156.051 850.453 155.627C850.453 155.203 850.528 154.784 850.676 154.392C850.824 154.001 851.041 153.645 851.314 153.345C851.588 153.045 851.913 152.807 852.27 152.645C852.628 152.483 853.011 152.399 853.398 152.399C853.786 152.399 854.169 152.483 854.527 152.645C854.884 152.807 855.209 153.045 855.483 153.345C855.756 153.645 855.973 154.001 856.121 154.392C856.269 154.784 856.344 155.203 856.344 155.627ZM943.655 155.627C943.655 156.051 943.731 156.471 943.878 156.862C944.026 157.254 944.243 157.61 944.517 157.91C944.79 158.209 945.115 158.447 945.473 158.609C945.83 158.772 946.214 158.855 946.601 158.855C946.988 158.855 947.371 158.772 947.729 158.609C948.086 158.447 948.411 158.209 948.685 157.91C948.958 157.61 949.175 157.254 949.323 156.862C949.471 156.471 949.547 156.051 949.546 155.627C949.547 155.203 949.471 154.784 949.323 154.392C949.175 154.001 948.958 153.645 948.685 153.345C948.411 153.045 948.086 152.807 947.729 152.645C947.371 152.483 946.988 152.399 946.601 152.399C946.214 152.399 945.83 152.483 945.473 152.645C945.115 152.807 944.79 153.045 944.517 153.345C944.243 153.645 944.026 154.001 943.878 154.392C943.731 154.784 943.655 155.203 943.655 155.627Z" fill="white" stroke="black" stroke-width="0.46831"/><path d="M871.634 155.955L878.109 155.577L879.03 157.098L878.267 158.717L871.793 159.095L870.677 157.586L871.634 155.955Z" fill="#FFC72C"/><path d="M871.634 155.955L878.109 155.577L879.03 157.098L878.267 158.717L871.793 159.095L870.677 157.586L871.634 155.955Z" stroke="black" stroke-width="0.468318"/><path d="M928.366 155.955L921.891 155.577L920.97 157.098L921.733 158.717L928.207 159.095L929.323 157.586L928.366 155.955Z" fill="#F6E078"/><path d="M928.366 155.955L921.891 155.577L920.97 157.098L921.733 158.717L928.207 159.095L929.323 157.586L928.366 155.955Z" fill="#FFC72C" stroke="black" stroke-width="0.468318"/><path fill-rule="evenodd" clip-rule="evenodd" d="M859.117 183.03C859.117 183.03 863.741 182.665 871.89 182.17C880.038 181.674 888.768 181.414 893.221 181.414H906.796C911.11 181.414 920.045 181.674 928.127 182.17C936.21 182.665 940.807 183.08 940.807 183.08L943.641 169.447C943.641 169.447 914.603 166.625 900.009 166.625C885.414 166.625 856.376 169.447 856.376 169.447L859.117 183.03Z" fill="#FFC72C"/><path d="M899.822 166.773C914.403 166.766 928.983 167.617 943.5 169.349L940.842 183.109C926.403 181.714 914.584 181.34 899.985 181.217M900.179 166.773C885.597 166.766 871.018 167.617 856.501 169.349L859.159 183.109C873.597 181.714 885.416 181.34 900.015 181.217" stroke="black" stroke-width="0.46831"/><path d="M871.753 167.104L871.741 167.114H871.729C866.544 167.516 860.543 167.954 855.306 168.722C854.566 169.675 854.504 170.544 855.851 171.239C860.879 170.502 866.807 170.053 871.996 169.651C879.033 169.212 886.128 168.937 893.206 168.862H906.78C911.014 168.862 919.955 169.14 927.991 169.661C935.99 170.18 944.159 171.239 944.159 171.239C945.553 170.473 945.402 169.615 944.644 168.722C944.644 168.722 936.399 167.633 928.233 167.104C920.104 166.577 911.174 166.305 906.78 166.305H893.206C886.044 166.328 878.894 166.691 871.753 167.104Z" fill="#FFC72C"/><path d="M871.753 167.104L871.741 167.114H871.729C866.544 167.516 860.543 167.954 855.306 168.722C854.566 169.675 854.504 170.544 855.851 171.239C860.879 170.502 866.807 170.053 871.996 169.651C879.033 169.212 886.128 168.937 893.206 168.862H906.78C911.014 168.862 919.955 169.14 927.991 169.661C935.99 170.18 944.159 171.239 944.159 171.239C945.553 170.473 945.402 169.615 944.644 168.722C944.644 168.722 936.399 167.633 928.233 167.104C920.104 166.577 911.174 166.305 906.78 166.305H893.206C886.044 166.328 878.894 166.691 871.753 167.104Z" stroke="black" stroke-width="0.46831"/><path d="M873.736 181.307L873.725 181.317H873.714C868.892 181.719 863.312 182.157 858.443 182.925C857.755 183.878 857.698 184.747 858.95 185.443C863.625 184.705 869.137 184.256 873.962 183.854C880.505 183.415 887.103 183.14 893.683 183.065H906.305C910.242 183.065 918.555 183.343 926.027 183.864C933.465 184.383 941.061 185.442 941.061 185.442C942.357 184.676 942.216 183.818 941.511 182.925C941.511 182.925 933.845 181.836 926.252 181.307C918.694 180.78 910.391 180.508 906.305 180.508H893.683C887.024 180.531 880.376 180.895 873.736 181.307Z" fill="#FFC72C"/><path d="M873.736 181.306L873.725 181.316H873.714C868.892 181.718 863.312 182.156 858.443 182.924C857.755 183.877 857.698 184.747 858.95 185.442C863.625 184.704 869.137 184.255 873.962 183.853C880.505 183.414 887.103 183.285 893.683 183.21H906.305C910.242 183.21 918.555 183.342 926.027 183.863C933.465 184.382 941.061 185.442 941.061 185.442C942.357 184.675 942.216 183.817 941.511 182.924C941.511 182.924 933.845 181.835 926.252 181.306C918.694 180.779 910.391 180.652 906.305 180.652H893.683C887.024 180.675 880.376 180.894 873.736 181.306Z" stroke="black" stroke-width="0.46831"/><path d="M908.094 169.871H891.905C891.583 169.871 891.322 170.086 891.322 170.352V178.847C891.322 179.113 891.583 179.328 891.905 179.328H908.094C908.416 179.328 908.677 179.113 908.677 178.847V170.352C908.677 170.086 908.416 169.871 908.094 169.871Z" stroke="black" stroke-width="0.46831"/><path d="M905.808 171.113H894.191C893.636 171.113 893.187 171.484 893.187 171.941V177.26C893.187 177.717 893.636 178.088 894.191 178.088H905.808C906.363 178.088 906.812 177.717 906.812 177.26V171.941C906.812 171.484 906.363 171.113 905.808 171.113Z" fill="#012169" stroke="#A0892C" stroke-width="0.46831"/><path fill-rule="evenodd" clip-rule="evenodd" d="M906.519 177.845C906.337 177.994 906.086 178.087 905.808 178.087H894.191C893.912 178.087 893.661 177.994 893.48 177.845C893.298 177.695 893.187 177.488 893.187 177.259V171.94C893.187 171.711 893.298 171.504 893.48 171.354C893.661 171.205 906.7 177.695 906.519 177.845Z" fill="#2B96F6" stroke="#A0892C" stroke-width="0.46831"/><path fill-rule="evenodd" clip-rule="evenodd" d="M906.519 177.845C906.337 177.994 906.086 178.087 905.808 178.087H894.191C893.912 178.087 893.661 177.994 893.48 177.845C893.298 177.695 893.187 177.488 893.187 177.259V171.94C893.187 171.711 893.298 171.504 893.48 171.354C893.572 171.278 896.978 172.914 900.286 174.562C903.493 176.161 906.608 177.771 906.519 177.845Z" fill="#012169" stroke="black" stroke-width="0.46831"/><path fill-rule="evenodd" clip-rule="evenodd" d="M906.519 171.354C906.701 171.504 906.813 171.711 906.813 171.94V177.259C906.813 177.488 906.701 177.695 906.519 177.845C906.338 177.994 906.087 178.087 905.809 178.087H894.191C893.913 178.087 893.662 177.994 893.48 177.845C893.299 177.695 906.338 171.205 906.519 171.354Z" fill="#012169" stroke="black" stroke-width="0.46831"/><path fill-rule="evenodd" clip-rule="evenodd" d="M906.519 177.843C906.338 177.993 906.087 178.085 905.809 178.085H894.191C893.913 178.085 893.662 177.993 893.48 177.843C893.388 177.768 896.7 176.059 900.008 174.414C900.008 174.414 906.701 177.694 906.519 177.843Z" fill="#012169" stroke="black" stroke-width="0.46831"/><path d="M905.808 171.113H894.191C893.636 171.113 893.187 171.484 893.187 171.941V177.26C893.187 177.717 893.636 178.088 894.191 178.088H905.808C906.363 178.088 906.812 177.717 906.812 177.26V171.941C906.812 171.484 906.363 171.113 905.808 171.113Z" stroke="black" stroke-width="0.46831"/><path fill-rule="evenodd" clip-rule="evenodd" d="M896.183 172.707H903.817V176.272H896.183V172.707Z" fill="#012169" stroke="black" stroke-width="0.46831"/><path d="M879.219 171.244L874.474 171.747C872.499 171.956 871.149 173.659 871.459 175.552L871.518 175.912C871.829 177.805 873.681 179.17 875.657 178.961L880.401 178.459C882.377 178.25 883.727 176.546 883.416 174.653L883.357 174.293C883.047 172.4 881.194 171.035 879.219 171.244Z" fill="#FFC72C" stroke="black" stroke-width="0.468692"/><path d="M879.234 172.234L874.78 172.705C873.263 172.866 872.226 174.174 872.465 175.628C872.703 177.081 874.126 178.129 875.643 177.969L880.097 177.497C881.614 177.337 882.65 176.028 882.412 174.575C882.174 173.122 880.751 172.074 879.234 172.234Z" fill="#4A7729"/><path d="M879.234 172.234L874.78 172.705C873.263 172.866 872.226 174.174 872.465 175.628C872.703 177.081 874.126 178.129 875.643 177.969L880.097 177.497C881.614 177.337 882.65 176.028 882.412 174.575C882.174 173.122 880.751 172.074 879.234 172.234Z" stroke="black" stroke-width="0.468692"/><path d="M858.073 181.443L864.754 175.371L856.599 172.347L856.475 177.329L858.073 181.443Z" fill="#FFC72C" stroke="black" stroke-width="0.468384"/><path d="M857.871 180.194L862.714 175.792L856.802 173.6L855.535 177.073L857.871 180.194Z" fill="#E4002B"/><path d="M857.871 180.191L862.714 175.789L855.592 177.059L857.871 180.191Z" fill="#E4002B"/><path d="M862.725 175.763L855.52 177.108M857.871 180.193L862.714 175.791L856.802 173.598L855.468 177.017L857.871 180.193Z" stroke="black" stroke-width="0.468384"/><path d="M888.601 172.154C888.601 172.365 888.564 172.574 888.49 172.769C888.416 172.964 888.308 173.141 888.172 173.291C888.036 173.44 887.874 173.558 887.696 173.639C887.518 173.72 887.327 173.762 887.134 173.762C886.942 173.762 886.751 173.72 886.573 173.639C886.395 173.558 886.233 173.44 886.097 173.291C885.961 173.141 885.853 172.964 885.779 172.769C885.705 172.574 885.668 172.365 885.668 172.154C885.668 171.943 885.705 171.734 885.779 171.539C885.853 171.344 885.961 171.167 886.097 171.018C886.233 170.868 886.395 170.75 886.573 170.669C886.751 170.588 886.942 170.547 887.134 170.547C887.327 170.547 887.518 170.588 887.696 170.669C887.874 170.75 888.036 170.868 888.172 171.018C888.308 171.167 888.416 171.344 888.49 171.539C888.564 171.734 888.601 171.943 888.601 172.154Z" fill="white" stroke="black" stroke-width="0.46831"/><path d="M888.901 177.189C888.901 177.4 888.863 177.609 888.79 177.804C888.716 177.999 888.608 178.177 888.472 178.326C888.336 178.475 888.174 178.594 887.996 178.674C887.818 178.755 887.627 178.797 887.434 178.797C887.242 178.797 887.051 178.755 886.873 178.674C886.695 178.594 886.533 178.475 886.397 178.326C886.26 178.177 886.152 177.999 886.079 177.804C886.005 177.609 885.968 177.4 885.968 177.189C885.968 176.978 886.005 176.769 886.079 176.574C886.152 176.379 886.26 176.202 886.397 176.053C886.533 175.904 886.695 175.785 886.873 175.704C887.051 175.624 887.242 175.582 887.434 175.582C887.627 175.582 887.818 175.624 887.996 175.704C888.174 175.785 888.336 175.904 888.472 176.053C888.608 176.202 888.716 176.379 888.79 176.574C888.863 176.769 888.901 176.978 888.901 177.189Z" fill="white" stroke="black" stroke-width="0.468049"/><path d="M868.871 173.314C868.871 173.525 868.833 173.734 868.759 173.929C868.686 174.124 868.578 174.302 868.442 174.451C868.306 174.6 868.144 174.719 867.966 174.799C867.788 174.88 867.597 174.922 867.404 174.922C867.211 174.922 867.02 174.88 866.842 174.799C866.664 174.719 866.503 174.6 866.366 174.451C866.23 174.302 866.122 174.124 866.049 173.929C865.975 173.734 865.937 173.525 865.938 173.314C865.937 173.103 865.975 172.894 866.049 172.699C866.122 172.504 866.23 172.327 866.366 172.178C866.503 172.029 866.664 171.91 866.842 171.829C867.02 171.749 867.211 171.707 867.404 171.707C867.597 171.707 867.788 171.749 867.966 171.829C868.144 171.91 868.306 172.029 868.442 172.178C868.578 172.327 868.686 172.504 868.759 172.699C868.833 172.894 868.871 173.103 868.871 173.314ZM869.17 178.349C869.171 178.56 869.133 178.769 869.059 178.964C868.986 179.159 868.878 179.336 868.742 179.486C868.605 179.635 868.444 179.753 868.266 179.834C868.088 179.915 867.897 179.957 867.704 179.957C867.511 179.957 867.32 179.915 867.142 179.834C866.964 179.753 866.802 179.635 866.666 179.486C866.53 179.336 866.422 179.159 866.348 178.964C866.275 178.769 866.237 178.56 866.237 178.349C866.237 178.138 866.275 177.929 866.348 177.734C866.422 177.539 866.53 177.362 866.666 177.213C866.802 177.064 866.964 176.945 867.142 176.864C867.32 176.784 867.511 176.742 867.704 176.742C867.897 176.742 868.088 176.784 868.266 176.864C868.444 176.945 868.605 177.064 868.742 177.213C868.878 177.362 868.986 177.539 869.059 177.734C869.133 177.929 869.171 178.138 869.17 178.349Z" fill="white" stroke="black" stroke-width="0.46831"/><path d="M920.781 171.244L925.526 171.747C927.501 171.956 928.851 173.659 928.541 175.552L928.482 175.912C928.171 177.805 926.319 179.17 924.343 178.961L919.599 178.459C917.623 178.25 916.273 176.546 916.584 174.653L916.643 174.293C916.953 172.4 918.806 171.035 920.781 171.244Z" fill="#FFC72C" stroke="black" stroke-width="0.468692"/><path d="M920.766 172.234L925.22 172.705C926.737 172.866 927.774 174.174 927.535 175.628C927.297 177.081 925.874 178.129 924.357 177.969L919.903 177.497C918.386 177.337 917.35 176.028 917.588 174.575C917.826 173.122 919.249 172.074 920.766 172.234Z" fill="#4A7729"/><path d="M920.766 172.234L925.22 172.705C926.737 172.866 927.774 174.174 927.535 175.628C927.297 177.081 925.874 178.129 924.357 177.969L919.903 177.497C918.386 177.337 917.35 176.028 917.588 174.575C917.826 173.122 919.249 172.074 920.766 172.234Z" stroke="black" stroke-width="0.468692"/><path d="M941.927 181.443L935.246 175.371L943.401 172.347L943.525 177.329L941.927 181.443Z" fill="#FFC72C" stroke="black" stroke-width="0.468384"/><path d="M942.129 180.194L937.286 175.792L943.198 173.6L944.465 177.073L942.129 180.194Z" fill="#E4002B"/><path d="M942.129 180.191L937.286 175.789L944.408 177.059L942.129 180.191Z" fill="#E4002B"/><path d="M937.275 175.763L944.48 177.108M942.129 180.193L937.286 175.791L943.198 173.598L944.532 177.017L942.129 180.193Z" stroke="black" stroke-width="0.468384"/><path d="M911.399 172.154C911.398 172.365 911.436 172.574 911.51 172.769C911.583 172.964 911.691 173.141 911.828 173.291C911.964 173.44 912.126 173.558 912.304 173.639C912.482 173.72 912.672 173.762 912.865 173.762C913.058 173.762 913.249 173.72 913.427 173.639C913.605 173.558 913.767 173.44 913.903 173.291C914.039 173.141 914.147 172.964 914.221 172.769C914.294 172.574 914.332 172.365 914.332 172.154C914.332 171.943 914.294 171.734 914.221 171.539C914.147 171.344 914.039 171.167 913.903 171.018C913.767 170.868 913.605 170.75 913.427 170.669C913.249 170.588 913.058 170.547 912.865 170.547C912.672 170.547 912.482 170.588 912.304 170.669C912.126 170.75 911.964 170.868 911.828 171.018C911.691 171.167 911.583 171.344 911.51 171.539C911.436 171.734 911.398 171.943 911.399 172.154ZM911.099 177.189C911.099 177.4 911.136 177.609 911.21 177.804C911.283 177.999 911.391 178.176 911.528 178.326C911.664 178.475 911.826 178.593 912.004 178.674C912.182 178.755 912.373 178.796 912.565 178.796C912.758 178.796 912.949 178.755 913.127 178.674C913.305 178.593 913.467 178.475 913.603 178.326C913.739 178.176 913.847 177.999 913.921 177.804C913.994 177.609 914.032 177.4 914.032 177.189C914.032 176.978 913.994 176.769 913.921 176.574C913.847 176.379 913.739 176.202 913.603 176.053C913.467 175.903 913.305 175.785 913.127 175.704C912.949 175.623 912.758 175.582 912.565 175.582C912.373 175.582 912.182 175.623 912.004 175.704C911.826 175.785 911.664 175.903 911.528 176.053C911.391 176.202 911.283 176.379 911.21 176.574C911.136 176.769 911.099 176.978 911.099 177.189ZM931.129 173.316C931.129 173.527 931.167 173.736 931.241 173.931C931.314 174.126 931.422 174.303 931.558 174.453C931.694 174.602 931.856 174.72 932.034 174.801C932.212 174.882 932.403 174.923 932.596 174.923C932.789 174.923 932.98 174.882 933.158 174.801C933.336 174.72 933.497 174.602 933.634 174.453C933.77 174.303 933.878 174.126 933.951 173.931C934.025 173.736 934.063 173.527 934.062 173.316C934.063 173.105 934.025 172.896 933.951 172.701C933.878 172.506 933.77 172.329 933.634 172.18C933.497 172.03 933.336 171.912 933.158 171.831C932.98 171.75 932.789 171.709 932.596 171.709C932.403 171.709 932.212 171.75 932.034 171.831C931.856 171.912 931.694 172.03 931.558 172.18C931.422 172.329 931.314 172.506 931.241 172.701C931.167 172.896 931.129 173.105 931.129 173.316ZM930.83 178.351C930.829 178.562 930.867 178.771 930.941 178.966C931.014 179.161 931.122 179.338 931.258 179.487C931.395 179.637 931.556 179.755 931.734 179.836C931.912 179.917 932.103 179.958 932.296 179.958C932.489 179.958 932.68 179.917 932.858 179.836C933.036 179.755 933.198 179.637 933.334 179.487C933.47 179.338 933.578 179.161 933.652 178.966C933.725 178.771 933.763 178.562 933.763 178.351C933.763 178.14 933.725 177.931 933.652 177.736C933.578 177.541 933.47 177.364 933.334 177.215C933.198 177.065 933.036 176.947 932.858 176.866C932.68 176.785 932.489 176.744 932.296 176.744C932.103 176.744 931.912 176.785 931.734 176.866C931.556 176.947 931.395 177.065 931.258 177.215C931.122 177.364 931.014 177.541 930.941 177.736C930.867 177.931 930.829 178.14 930.83 178.351Z" fill="white" stroke="black" stroke-width="0.46831"/></g><defs><clipPath id="clip0_2230_242"><rect width="1200" height="600" fill="white"/></clipPath></defs></svg>