<svg xmlns="http://www.w3.org/2000/svg" width="600" height="400" fill="none" viewBox="0 0 600 400">
  <g id="umbria 1" clip-path="url(#clip0_1048_2)">
    <path id="rect2194" fill="#00943A" stroke="#395475" stroke-linecap="round" stroke-width=".6" d="M599.7.297H.3v399.4h599.4V.297Z"/>
    <g id="Group">
      <path id="Vector" fill="#fff" d="m219.726 79.172.013 241.655h160.498l.037-241.655H219.726Z"/>
      <path id="Vector_2" fill="#A2A4A3" d="M245.936 118.484h-23.71v52.564h23.71v-52.564Z"/>
      <path id="Vector_3" fill="#A2A4A3" d="M245.936 228.922h-23.67v52.591h23.67v-52.591Z"/>
      <path id="Vector_4" fill="#A2A4A3" d="m245.936 173.672 6.626 19.613-2.29 2.289v8.717l2.241 2.178-6.577 19.803h-23.71v-52.6h23.71Z"/>
      <path id="Vector_5" fill="#A2A4A3" d="M250.272 81.664v12.201l2.241 2.18-6.577 19.802h-23.71V81.668l28.046-.004Z"/>
      <path id="Vector_6" fill="#A2A4A3" d="M289.444 93.865v-12.2h-18.441v12.2l-2.24 2.18 6.578 19.802h9.766l6.578-19.803-2.241-2.179Z"/>
      <path id="Vector_7" fill="#A2A4A3" d="M328.96 93.865v-12.2h-18.441v12.2l-2.24 2.18 6.578 19.802h9.767l6.577-19.803-2.241-2.179Z"/>
      <path id="Vector_8" fill="#A2A4A3" d="M349.727 81.664v12.201l-2.242 2.18 6.578 19.802h23.711V81.668l-28.047-.004Z"/>
      <path id="Vector_9" fill="#A2A4A3" d="M245.935 284.141h-23.696v34.187h30.794V305.72l-7.098-21.579Z"/>
      <path id="Vector_10" fill="#A2A4A3" d="M285.483 118.484h-10.528v52.564h10.528v-52.564Z"/>
      <path id="Vector_11" fill="#A2A4A3" d="M285.484 228.953h-10.475v52.558h10.475v-52.558Z"/>
      <path id="Vector_12" fill="#A2A4A3" d="m274.956 226.293-6.589-19.821 2.636-2.304v-8.718l-2.636-2.182 6.641-19.596h10.309l6.761 19.72-2.634 2.182v8.717l2.634 2.304-6.585 19.698-5.241-.021-5.296.021Z"/>
      <path id="Vector_13" fill="#A2A4A3" d="M275.008 284.141h10.476l6.594 21.579v12.608h-23.709V305.72l6.639-21.579Z"/>
      <path id="Vector_14" fill="#A2A4A3" d="M325.008 118.484h-10.452v52.552h10.452v-52.552Z"/>
      <path id="Vector_15" fill="#A2A4A3" d="M325.034 228.922h-10.562v52.591h10.562v-52.591Z"/>
      <path id="Vector_16" fill="#A2A4A3" d="m314.472 226.293-6.589-19.698 2.636-2.322v-8.699l-2.636-2.194 6.673-19.708h10.477l6.64 19.708-2.636 2.194v8.699l2.636 2.322-6.64 19.677h-5.242l-5.319.021Z"/>
      <path id="Vector_17" fill="#A2A4A3" d="M314.556 284.141h10.477l7.099 21.567v12.62h-24.247v-12.62l6.671-21.567Z"/>
      <path id="Vector_18" fill="#C4262E" d="M272.321 118.484h-23.71v52.564h23.71v-52.564Z"/>
      <path id="Vector_19" fill="#C4262E" d="M272.321 228.922h-23.71v52.591h23.71v-52.591Z"/>
      <path id="Vector_20" fill="#C4262E" d="m248.611 173.672 6.585 20.15-2.634 2.473v7.279l2.634 2.399-6.585 20.299h23.709l-6.725-20.381 2.772-2.44v-7.279l-2.632-2.449 6.585-20.051h-23.709Z"/>
      <path id="Vector_21" fill="#C4262E" d="m272.32 284.141-6.585 21.567v12.62h-10.539V305.72l-6.585-21.579h23.709Z"/>
      <path id="Vector_22" fill="#C4262E" d="M311.837 118.484h-23.71v52.564h23.71v-52.564Z"/>
      <path id="Vector_23" fill="#C4262E" d="M311.837 228.922h-23.71v52.591h23.71v-52.591Z"/>
      <path id="Vector_24" fill="#C4262E" d="m288.127 173.672 6.585 20.15-2.634 2.473v7.279l2.634 2.399-6.585 20.299h23.709l-6.585-20.258 2.632-2.44v-7.279l-2.632-2.449 6.585-20.174h-23.709Z"/>
      <path id="Vector_25" fill="#C4262E" d="m311.836 284.141-6.585 21.567v12.62h-10.539V305.72l-6.585-21.579h23.709Z"/>
      <path id="Vector_26" fill="#C4262E" d="M351.431 118.484h-23.71v52.564h23.71v-52.564Z"/>
      <path id="Vector_27" fill="#C4262E" d="M351.432 228.922h-23.71v52.591h23.71v-52.591Z"/>
      <path id="Vector_28" fill="#C4262E" d="m327.721 173.672 6.587 20.15-2.635 2.473v7.279l2.635 2.399-6.587 20.299h23.71l-6.587-20.258 2.635-2.44v-7.279l-2.635-2.449 6.587-20.174h-23.71Z"/>
      <path id="Vector_29" fill="#C4262E" d="m351.431 284.141-6.587 21.567v12.62h-10.536V305.72l-6.587-21.579h23.71Z"/>
      <path id="Vector_30" fill="#C4262E" d="M252.562 81.672v10.744l2.634 2.399-6.588 21.037h23.71l-6.583-21.037 2.772-2.44V81.672h-15.945Z"/>
      <path id="Vector_31" fill="#C4262E" d="M292.076 81.664v10.744l2.634 2.4-6.589 21.036h23.71l-6.583-21.037 2.773-2.44V81.664h-15.945Z"/>
      <path id="Vector_32" fill="#C4262E" d="M331.673 81.672v10.744l2.635 2.399-6.588 21.037h23.71l-6.586-21.037 2.774-2.44V81.672h-15.945Z"/>
      <path id="Vector_33" fill="#A2A4A3" d="M377.765 228.922h-23.7v52.591h23.7v-52.591Z"/>
      <path id="Vector_34" fill="#A2A4A3" d="M377.764 118.477h-23.699v52.561h23.699v-52.561Z"/>
      <path id="Vector_35" fill="#A2A4A3" d="m354.119 226.294-6.64-19.674 2.634-2.307v-8.711l-2.634-2.185 6.64-19.714h23.645v52.591h-23.645Z"/>
      <path id="Vector_36" fill="#A2A4A3" d="M354.119 284.141h23.618v34.187h-30.258V305.72l6.64-21.579Z"/>
    </g>
  </g>
  <defs>
    <clipPath id="clip0_1048_2">
      <path fill="#fff" d="M0 0h600v400H0z"/>
    </clipPath>
  </defs>
</svg>
