<?xml version="1.0" encoding="UTF-8" standalone="no"?>
<svg
   xmlns:dc="http://purl.org/dc/elements/1.1/"
   xmlns:cc="http://creativecommons.org/ns#"
   xmlns:rdf="http://www.w3.org/1999/02/22-rdf-syntax-ns#"
   xmlns:svg="http://www.w3.org/2000/svg"
   xmlns="http://www.w3.org/2000/svg"
   xmlns:sodipodi="http://sodipodi.sourceforge.net/DTD/sodipodi-0.dtd"
   xmlns:inkscape="http://www.inkscape.org/namespaces/inkscape"
   width="512"
   height="512"
   viewBox="0 0 512 512.00002"
   version="1.1"
   id="svg1023"
   inkscape:version="1.0.1 (3bc2e813f5, 2020-09-07)"
   sodipodi:docname="drawing-1.svg">
  <defs
     id="defs1017" />
  <sodipodi:namedview
     id="base"
     pagecolor="#ffffff"
     bordercolor="#666666"
     borderopacity="1.0"
     inkscape:pageopacity="0.0"
     inkscape:pageshadow="2"
     inkscape:zoom="1.4"
     inkscape:cx="433.43729"
     inkscape:cy="225.4085"
     inkscape:document-units="px"
     inkscape:current-layer="layer1"
     inkscape:document-rotation="0"
     showgrid="false"
     units="px"
     inkscape:window-width="1920"
     inkscape:window-height="1057"
     inkscape:window-x="-8"
     inkscape:window-y="-8"
     inkscape:window-maximized="1" />
  <metadata
     id="metadata1020">
    <rdf:RDF>
      <cc:Work
         rdf:about="">
        <dc:format>image/svg+xml</dc:format>
        <dc:type
           rdf:resource="http://purl.org/dc/dcmitype/StillImage" />
        <dc:title></dc:title>
      </cc:Work>
    </rdf:RDF>
  </metadata>
  <g
     inkscape:label="Layer 1"
     inkscape:groupmode="layer"
     id="layer1"
     transform="translate(0,-610.51965)">
    <circle
       style="fill:#dc241f;fill-opacity:1;stroke:none;stroke-width:0.0510748"
       id="path1025"
       cx="256"
       cy="866.51965"
       r="255" />
    <circle
       style="fill:#ffffff;stroke:none;stroke-width:0.050474"
       id="circle1027"
       cx="256"
       cy="866.51965"
       r="252" />
    <circle
       style="fill:#dc241f;fill-opacity:1;stroke:none;stroke-width:0.0410601"
       id="circle1029"
       cx="256"
       cy="866.51965"
       r="205" />
    <circle
       style="fill:#ffffff;stroke:none;stroke-width:0.0404593"
       id="circle1031"
       cx="256"
       cy="866.51965"
       r="202" />
    <path
       class="st3"
       d="m 39.9,888.21965 c -0.2,0.9 -0.5,1.5 -1.1,2.4 -0.6,0.8 -1.6,1.8 -3.4,3.4 -1.5,1.3 -3.5,3.1 -4.5,3.7 -1.4,-2.2 -3.5,-3.9 -6.5,-3.4 -2.2,0.4 -3.6,1.6 -4.3,3.2 -0.8,1.6 -0.8,3.4 -0.2,6.5 l 1.7,9.9 1.2,-0.2 c -0.2,-2.6 0.1,-3 2.9,-3.5 l 13.6,-2.4 c 2.9,-0.5 3.3,-0.2 4,2.4 l 1.2,-0.2 -1.7,-10.5 -1.3,0.2 c 0.2,2.7 -0.1,3.1 -2.9,3.6 l -5.2,0.9 -0.1,-0.7 c -0.2,-1.1 0.2,-1.8 1.2,-2.6 1.7,-1.4 3.4,-2.6 4.7,-3.8 2,-1.8 2.7,-3.4 2.1,-7.8 -0.1,-0.4 -0.1,-0.9 -0.1,-1.1 z m -7.9,16.3 -8.7,1.5 c -0.7,0.1 -1.1,0.1 -1.3,-0.1 -0.2,-0.2 -0.5,-0.7 -0.7,-1.6 -0.3,-2 0.7,-4.4 4.4,-5.1 1.8,-0.3 3.3,-0.1 4.5,1 0.8,0.7 1.3,1.8 1.6,3.3 z m 1.3,-34.6 c 1.7,0.5 2.8,1.1 3.7,1.7 0.9,0.8 1.3,2 1.5,3.8 0.1,1.4 0.1,2.6 -0.1,3.3 -0.3,0.8 -1.2,1 -2.9,1.1 l -6.1,0.5 -0.2,-2.4 c -0.2,-3 -0.2,-3.5 2.4,-4.2 l -0.1,-1.3 -7.2,0.6 0.1,1.3 c 2.5,0.3 2.7,0.7 3.1,3.7 l 0.2,2.4 -7.6,0.6 c -1.2,0.1 -1.2,0 -1.4,-1.4 l -0.1,-1.7 c -0.2,-2 -0.1,-3 0.6,-3.7 0.6,-0.7 1.7,-1.3 3,-1.8 l -0.3,-1.3 c -2.2,0.3 -4.7,0.7 -5.3,0.8 l 1.5,16.8 1.2,-0.1 c -0.1,-2.5 0.1,-2.9 3.2,-3.2 l 13.7,-1.2 c 3,-0.3 3.2,0.1 3.7,3.1 l 1.3,-0.1 -1.6,-18.2 c -1.1,-0.2 -4.4,-0.6 -6,-0.7 z m -16.5,-3.1 h 1.3 c 0.3,-2.5 0.6,-2.8 3.5,-2.8 h 13.8 c 3,0 3.3,0.3 3.6,3 h 1.3 v -11.1 h -1.4 c -0.3,3.1 -0.5,3.4 -3.6,3.4 h -4.9 l 0.6,-2.4 c 0,-0.4 0,-1 -0.1,-1.5 -0.5,-3.8 -2.6,-7.3 -7.4,-7.3 -2.4,0 -4.1,1 -5.3,2.7 -1.1,1.4 -1.5,3.4 -1.5,6.3 z m 2.9,-7.5 c -0.5,0 -0.9,-0.1 -1.1,-0.3 -0.2,-0.2 -0.4,-0.7 -0.4,-1.3 0,-2.2 1.3,-4.5 5.3,-4.5 4.8,0 5.8,2.9 5.8,4.2 0,0.7 -0.2,1.5 -0.4,1.9 z m 1.1,-40.7 -1.1,8.9 1.3,0.2 c 0.4,-2.4 1.2,-3.1 2.5,-3.2 1.1,0 2.5,-0.1 5,0.3 l 3.8,0.4 c 5.9,0.7 8.9,3 8.4,7.3 -0.4,3.9 -3.8,5.4 -9.1,4.7 l -7.7,-0.9 c -3.4,-0.4 -3.6,-0.8 -3.5,-3.5 l -1.3,-0.2 -1.3,10.7 1.2,0.1 c 0.6,-2.6 0.9,-2.9 4.2,-2.5 l 8.4,1 c 4.1,0.5 6.9,-0.1 8.7,-1.9 1.6,-1.6 2.4,-3.7 2.6,-6.1 0.3,-2.5 -0.2,-5.1 -1.8,-6.9 -1.8,-2.3 -4.8,-3.2 -8.6,-3.6 l -3.9,-0.5 c -2.5,-0.3 -3.8,-0.6 -4.9,-0.9 -1.2,-0.3 -1.8,-1.4 -1.7,-3.3 z m -4.5,5.9 c -0.9,0 -2.7,0.9 -3,1.5 1.2,2.2 2.4,4.5 3.7,6.7 l 1,-0.4 -1.2,-7.6 z m 19.8,-20.5 c 0.2,-2.6 -0.3,-5.9 -3.6,-6.8 -1.8,-0.5 -3.4,-0.2 -4.6,0.9 -1.2,1.1 -2.1,2.7 -2.8,5.4 l -2.8,10 1.2,0.3 c 0.9,-2.4 1.2,-2.6 4.2,-1.8 l 13.2,3.8 c 3,0.8 3.1,1.2 2.6,4 l 1.2,0.3 2.5,-8.7 c 0.8,-2.9 1.1,-5.6 0.6,-7.7 -0.5,-2.3 -1.9,-4.1 -4.2,-4.7 -3.3,-1 -5.7,1.2 -7.5,5 z m -1.8,5 -6.6,-1.9 c -0.8,-0.2 -1.3,-0.4 -1.4,-0.8 -0.2,-0.2 -0.2,-0.9 0,-1.7 0.6,-1.8 2.3,-3.4 5.4,-2.5 2.9,0.8 3.7,2.6 2.8,6 z m 1.3,0.4 0.2,-0.7 c 1.1,-3.9 3.4,-5.5 6.6,-4.5 3.4,1 4.2,3.6 3.7,5.5 -0.5,1.8 -1.5,2.3 -4,1.6 z m 15.1,-29.1 c 1.4,1.3 2.2,2.3 2.7,3.3 0.6,1.2 0.3,2.4 -0.2,3.8 -0.4,1 -0.8,1.9 -1.3,2.4 -0.6,0.6 -1.3,0.5 -2.8,-0.2 l -12.9,-5.3 c -2.9,-1.2 -3,-1.5 -2.1,-4.2 l -1.2,-0.5 -4.1,10.2 1.2,0.5 c 1.3,-2.4 1.6,-2.7 4.5,-1.5 l 12.7,5.1 c 2.8,1.1 2.9,1.5 2,4.5 l 1.2,0.5 6.5,-16.2 c -0.8,-0.6 -3.8,-2.7 -5.1,-3.5 z m 11.6,-9.5 -1.1,-0.5 c -1.3,2.3 -1.7,2.5 -4.4,1.3 l -12.6,-5.6 c -2.8,-1.2 -2.9,-1.7 -2,-4.2 l -1.1,-0.5 -4.4,9.8 1.2,0.5 c 1.3,-2.3 1.6,-2.5 4.4,-1.3 l 12.6,5.6 c 2.8,1.2 2.9,1.6 2,4.2 l 1.1,0.5 z m 5.4,-23.2 c 2.3,3.4 2.9,6.2 1.4,8.8 -2.4,4.2 -7.9,5.3 -13.7,2.1 -4.6,-2.5 -7.5,-7.5 -5,-12 1.4,-2.4 3.8,-4.2 8.1,-3.2 l 0.4,-1.3 c -2.1,-0.9 -3.7,-1.5 -5.5,-2.1 -0.6,0.8 -2.6,2.7 -4,5.3 -4.1,7.5 -2.4,14.9 4,18.5 5,2.8 12.4,2.3 17,-6.1 1.2,-2.1 2.2,-5.4 2.4,-6.3 -0.8,-1.2 -2.7,-3.3 -4,-4.5 z m 20.7,-18.2 -1,-0.7 c -1.6,1.7 -2.2,1.8 -5.5,1 -6.4,-1.6 -12.8,-3.4 -19.2,-5.1 l -0.7,1.8 10.9,16.6 c 1.8,2.7 1.9,3.3 0.8,5.4 l 1,0.8 4.6,-6.6 -1,-0.7 c -1.8,2 -2.2,1.8 -3.4,0.4 -0.9,-1.2 -1.7,-2.3 -2.3,-3.3 l 3.9,-5.6 c 1.5,0.4 3.1,0.8 4.1,1.1 1.6,0.4 1.9,0.8 0.9,2.8 l 1.1,0.7 z m -13.9,3.3 -3.2,4.6 c -1.5,-2.2 -3.2,-4.4 -4.7,-6.7 l 0.1,-0.1 z m 8.1,-31.4 0.9,0.9 c 2,-1.6 2.4,-1.7 4.5,0.5 l 9.5,9.9 c 2.1,2.2 2,2.6 0.2,4.8 l 0.9,0.9 6.6,-6.4 c 3.2,-3.1 5.2,-6.4 5.7,-9.7 0.6,-3.4 -0.4,-6.9 -3.4,-10.1 -2.4,-2.4 -5.2,-3.3 -7.6,-3.2 -3.2,0 -6.4,1.8 -9.6,4.9 z m 8.3,-2.5 c -0.7,-0.8 -1.1,-1.2 -1.1,-1.7 0,-0.3 0.3,-1 1.2,-2 1.8,-1.7 3.7,-2.5 5.8,-2.5 2.3,0 4.9,1.3 7.3,3.8 4.4,4.6 4.8,9.7 1.3,13 -1.8,1.8 -2.8,1.5 -4.6,-0.4 z m 37.3,-14.7 c 0.5,1.7 0.8,2.9 0.7,4 -0.1,1.2 -0.9,2.2 -2.3,3.4 -1.1,0.9 -2,1.6 -2.7,1.8 -0.8,0.2 -1.4,-0.4 -2.5,-1.7 l -4,-4.7 1.8,-1.6 c 2.4,-2 2.7,-2.1 4.8,-0.5 l 1,-0.8 -4.7,-5.6 -1,0.9 c 1.2,2.3 1,2.7 -1.3,4.6 l -1.9,1.5 -4.9,-5.8 c -0.8,-0.9 -0.7,-1.1 0.3,-1.9 l 1.3,-1.1 c 1.5,-1.3 2.4,-1.7 3.3,-1.6 0.9,0.1 2.1,0.7 3.2,1.4 l 0.8,-1 c -1.5,-1.6 -3.2,-3.4 -3.7,-3.9 l -12.9,10.8 0.8,1 c 2.1,-1.5 2.4,-1.5 4.4,0.8 l 8.9,10.6 c 1.9,2.4 1.8,2.7 -0.4,4.9 l 0.8,1 14,-11.7 c -0.5,-1 -2,-4 -2.9,-5.4 z m 31.7,-11.3 -0.6,-1.1 c -2.6,1.1 -2.8,1 -4.6,-1.8 l -7,-11.5 c -1.5,-2.5 -1.5,-2.9 0.8,-4.5 l -0.6,-1.1 -6.2,3.6 1.8,17.1 -13.9,-10.1 -6.4,3.7 0.6,1.1 c 2.8,-1.3 3.3,-1 5.1,2.7 l 3.1,6.4 c 1.6,3.4 2.3,5.1 2.7,6.2 0.5,1.2 0.2,2.1 -1.4,3.3 l 0.6,1.1 7.4,-4.3 -0.6,-1.1 c -2.2,1 -3,1.1 -3.9,-0.2 -0.7,-0.9 -1.5,-2.4 -2.9,-5 l -4.3,-8.3 0.1,-0.1 15.5,12.2 0.8,-0.5 -2.5,-20.1 0.2,-0.1 7,11.9 c 1.7,2.8 1.6,3.2 -0.6,4.8 l 0.6,1.1 z m 4.4,-28.1 c -7.6,3.1 -9.4,10.3 -7.1,16 2.6,6.4 9.1,9.4 15.8,6.7 6.3,-2.5 9.7,-9 6.8,-16.2 -2.6,-6.5 -9.4,-8.9 -15.5,-6.5 z m 0,1.6 c 3.8,-1.5 8.2,1.4 10.8,8 2.5,6.1 1.2,10.3 -2,11.5 -4.2,1.7 -8.8,-2.1 -11.1,-7.8 -2.3,-5.7 -1.1,-10.3 2.3,-11.7 z m 41.3,2.8 c -0.7,4 -2.3,6.4 -5.1,7.3 -4.7,1.4 -9.3,-1.7 -11.3,-8 -1.6,-5 -0.2,-10.6 4.8,-12.1 2.6,-0.8 5.6,-0.4 8,3.3 l 1.2,-0.6 c -0.9,-2.1 -1.7,-3.6 -2.5,-5.4 -1,0.1 -3.8,0.1 -6.5,1 -8.2,2.5 -12.1,9.1 -10,16.1 1.7,5.5 7.3,10.2 16.4,7.4 2.3,-0.7 5.3,-2.4 6.1,-2.9 0.2,-1.4 0.3,-4.2 0.2,-6 z m 26.5,1.6 c -0.9,-0.1 -1.5,-0.5 -2.4,-1.1 -0.8,-0.6 -1.7,-1.6 -3.4,-3.3 -1.3,-1.5 -3.1,-3.6 -3.8,-4.5 2.2,-1.4 3.9,-3.4 3.4,-6.6 -0.4,-2.2 -1.7,-3.6 -3.3,-4.2 -1.6,-0.8 -3.4,-0.8 -6.5,-0.2 l -9.9,1.8 0.2,1.2 c 2.6,-0.2 3,0.1 3.5,2.9 l 2.4,13.5 c 0.5,2.9 0.2,3.3 -2.4,4.1 l 0.2,1.2 10.7,-1.9 -0.2,-1.2 c -2.7,0.2 -3.1,-0.1 -3.6,-3 l -0.9,-5.1 0.6,-0.1 c 1.2,-0.2 1.9,0.1 2.7,1.1 1.3,1.7 2.6,3.4 3.8,4.7 1.8,2 3.4,2.7 7.9,2.1 0.4,-0.1 0.9,-0.1 1.1,-0.2 z m -16.3,-7.9 -1.6,-8.6 c -0.1,-0.7 -0.1,-1.1 0.1,-1.4 0.1,-0.2 0.6,-0.4 1.5,-0.6 2,-0.4 4.4,0.7 5.1,4.4 0.3,1.8 0.1,3.3 -1,4.5 -0.7,0.8 -1.8,1.3 -3.3,1.6 z m 40.9,6.7 -0.1,-1.3 c -2.3,-0.1 -2.8,-0.5 -4.3,-3.5 -2.9,-5.9 -5.6,-12 -8.4,-18 l -1.8,0.6 -5.7,19 c -0.9,3.1 -1.3,3.5 -3.6,4 v 1.3 l 8,-0.7 -0.1,-1.2 c -2.6,-0.1 -2.8,-0.6 -2.4,-2.3 0.4,-1.5 0.7,-2.8 1,-4 l 6.8,-0.6 c 0.7,1.4 1.3,2.9 1.8,3.9 0.7,1.5 0.6,2 -1.5,2.5 l 0.1,1.3 z m -11.5,-8.6 -5.5,0.5 c 0.7,-2.6 1.4,-5.3 2.1,-8 h 0.1 z m 3.3,-17.9 c -0.2,-0.9 -1.4,-2.4 -2.1,-2.6 -1.9,1.5 -3.8,3.2 -5.8,4.9 l 0.6,0.9 7.2,-2.8 z m 28.4,10.7 c -0.2,-2.3 -0.3,-5.4 -0.3,-6.9 h -0.9 c -0.7,0.7 -1.2,0.9 -2.1,0.9 l -14.5,-0.3 c -1,0 -1.4,-0.1 -2,-0.9 h -0.9 c -0.2,1.8 -0.4,4.4 -0.6,7.1 h 1.3 c 0.5,-1.8 1,-3 1.5,-3.6 0.6,-0.6 1.3,-1 4.2,-0.9 h 1.2 l -0.3,17 c -0.1,3.1 -0.4,3.3 -3.4,3.4 v 1.3 l 11.7,0.2 v -1.2 c -3.1,-0.3 -3.5,-0.6 -3.5,-3.6 l 0.3,-16.9 h 1.6 c 2.1,0 3,0.3 3.6,0.9 0.7,0.6 1.2,1.8 1.6,3.7 z m 12.2,19.3 0.2,-1.2 c -2.6,-0.6 -2.9,-0.9 -2.5,-3.9 l 1.9,-13.6 c 0.4,-3 0.8,-3.2 3.5,-3.1 l 0.2,-1.2 -10.6,-1.5 -0.2,1.2 c 2.6,0.6 2.8,0.9 2.4,3.9 l -1.9,13.6 c -0.4,3 -0.8,3.2 -3.5,3.1 l -0.2,1.2 z m 24.1,-1.7 c -2.6,3.1 -5.3,4.4 -8.2,3.7 -4.7,-1.2 -7.1,-6.3 -5.5,-12.7 1.3,-5.1 5.3,-9.2 10.3,-8 2.7,0.7 5,2.5 5.1,7 l 1.4,0.1 c 0.2,-2.2 0.4,-3.9 0.6,-5.9 -0.9,-0.5 -3.3,-1.8 -6.1,-2.5 -8.3,-2.1 -15.1,1.6 -16.8,8.7 -1.4,5.5 0.9,12.5 10.2,14.9 2.4,0.5 5.8,0.7 6.7,0.7 0.9,-1.1 2.4,-3.5 3.3,-5 z m 23.2,14.1 0.4,-1.2 c -2.1,-1 -2.4,-1.6 -2.6,-5 -0.3,-6.6 -0.4,-13.2 -0.7,-19.9 l -1.9,-0.1 -12.6,15.3 c -2.1,2.5 -2.6,2.7 -4.9,2.3 l -0.5,1.2 7.6,2.5 0.4,-1.2 c -2.4,-1.1 -2.3,-1.6 -1.3,-3.1 0.9,-1.2 1.7,-2.3 2.4,-3.2 l 6.5,2.1 c 0.1,1.6 0.1,3.2 0.1,4.3 0.1,1.7 -0.2,2.1 -2.3,1.7 l -0.4,1.2 z m -7.1,-12.4 -5.3,-1.7 c 1.7,-2.1 3.3,-4.3 5.1,-6.5 l 0.1,0.1 z m 33,-1.4 -0.6,1.1 c 2.1,1.5 2.3,1.8 0.7,4.5 l -6.9,11.9 c -1.5,2.6 -1.9,2.7 -4.5,1.5 l -0.6,1.1 8,4.6 c 3.9,2.3 7.6,3.3 10.9,2.9 3.5,-0.4 6.6,-2.3 8.7,-6.1 1.6,-2.9 1.7,-5.8 1.1,-8.2 -0.9,-3.1 -3.5,-5.6 -7.3,-7.8 z m 4.8,7.2 c 0.5,-0.9 0.9,-1.4 1.3,-1.5 0.3,-0.1 1.1,0 2.2,0.7 2.2,1.2 3.4,2.8 4,4.9 0.6,2.2 0.1,5.1 -1.6,8 -3.2,5.5 -8,7.3 -12.2,4.9 -2.2,-1.3 -2.2,-2.3 -0.9,-4.5 z m 24.4,31.8 c -1.5,0.9 -2.7,1.4 -3.7,1.7 -1.2,0.2 -2.4,-0.3 -4,-1.4 -1.1,-0.8 -2,-1.6 -2.4,-2.2 -0.4,-0.7 0.1,-1.5 1,-2.9 l 3.7,-5 2,1.4 c 2.4,1.8 2.7,2.2 1.6,4.5 l 1,0.8 4.3,-5.9 -1.1,-0.7 c -1.9,1.7 -2.3,1.6 -4.8,-0.2 l -2,-1.4 4.5,-6.1 c 0.7,-1 0.9,-0.9 2,-0.2 l 1.4,1 c 1.6,1.2 2.2,1.9 2.3,2.8 0.2,0.9 -0.2,2.1 -0.6,3.4 l 1.1,0.6 c 1.2,-1.9 2.5,-4 2.9,-4.6 l -13.7,-9.9 -0.7,1 c 1.9,1.7 2.1,2 0.2,4.5 l -8.1,11.2 c -1.8,2.5 -2.2,2.4 -4.9,0.8 l -0.7,1 14.8,10.8 c 0.9,-0.7 3.4,-2.9 4.5,-4.1 z m 35.6,17 c 1.4,-1.8 3.5,-4.2 4.5,-5.4 l -0.6,-0.6 c -0.9,0.1 -1.4,-0.1 -2.1,-0.8 l -10.6,-9.8 c -0.7,-0.7 -1,-1.1 -0.9,-2 l -0.6,-0.6 c -1.4,1.3 -3.2,3.1 -5.2,4.9 l 0.9,0.9 c 1.6,-1 2.7,-1.5 3.6,-1.6 0.8,0 1.5,0.1 3.7,2.1 l 0.9,0.8 -11.6,12.4 c -2.1,2.3 -2.5,2.2 -4.9,0.3 l -0.8,0.9 8.5,8 0.8,-0.9 c -2.1,-2.3 -2.2,-2.8 -0.1,-5 l 11.6,-12.4 1.2,1.1 c 1.6,1.4 2.1,2.2 2.1,3.1 0.1,0.9 -0.4,2.1 -1.4,3.8 z m -3.8,22.5 0.9,-0.8 c -1.6,-2.2 -1.6,-2.6 0.7,-4.6 l 10.4,-9 c 2.3,-2 2.7,-1.9 4.6,-0.1 l 1,-0.8 -7.1,-8.1 -0.9,0.8 c 1.6,2.2 1.6,2.6 -0.8,4.6 l -10.3,9 c -2.3,2 -2.7,1.9 -4.6,0.1 l -1,0.8 z m 19,25.8 1,-0.7 c -1.4,-2.4 -1.3,-2.8 1.4,-4.7 l 10.8,-8 c 2.4,-1.8 2.7,-1.8 4.6,0.4 l 1,-0.7 -4.1,-5.9 -16.9,3.2 8.9,-14.7 -4.3,-6.1 -1,0.7 c 1.5,2.7 1.3,3.2 -2.3,5.3 l -6.1,3.6 c -3.2,1.9 -4.9,2.8 -6,3.2 -1.1,0.5 -2.1,0.4 -3.3,-1.2 l -1,0.7 4.9,7 1,-0.7 c -1.2,-2.1 -1.3,-2.8 -0.1,-3.9 0.8,-0.8 2.2,-1.7 4.7,-3.3 l 7.9,-5 0.1,0.1 -10.8,16.5 0.6,0.8 19.9,-4.2 0.1,0.2 -11.3,8 c -2.7,1.9 -3,1.9 -4.8,-0.2 l -1,0.7 z m 27.6,2.3 c -3.8,-7.3 -11.1,-8.5 -16.6,-5.7 -6.2,3.1 -8.6,10 -5.3,16.4 3,6 9.8,8.8 16.7,5.3 6.3,-3.3 8.1,-10.2 5.2,-16 m -1.6,0.1 c 1.9,3.7 -0.7,8.2 -7,11.5 -5.9,3 -10.1,2 -11.6,-1 -2.1,-4.1 1.3,-8.9 6.8,-11.6 5.4,-3 10.1,-2.2 11.8,1.1 z m -4.9,43.6 c 0,-0.9 0.2,-1.6 0.7,-2.6 0.4,-1 1.2,-2.1 2.6,-4 1.2,-1.5 2.9,-3.7 3.7,-4.5 1.8,1.9 4.1,3.2 7.1,2.1 2.1,-0.8 3.2,-2.3 3.6,-4 0.4,-1.7 0.1,-3.5 -1,-6.5 l -3.6,-9.4 -1.2,0.4 c 0.6,2.5 0.5,3 -2.2,4 l -12.9,5 c -2.8,1.1 -3.2,0.8 -4.4,-1.6 l -1.2,0.4 3.9,10.1 1.1,-0.4 c -0.7,-2.6 -0.5,-3.1 2.2,-4.1 l 4.9,-1.9 0.2,0.7 c 0.4,1.1 0.2,1.8 -0.6,2.8 -1.3,1.6 -2.9,3.2 -3.8,4.6 -1.6,2.2 -2.1,3.8 -0.7,8.1 0.2,0.4 0.3,0.8 0.3,1 z m 4.7,-17.4 8.2,-3.1 c 0.7,-0.2 1.1,-0.3 1.4,-0.2 0.3,0.1 0.6,0.5 0.9,1.4 0.7,1.9 0.2,4.5 -3.3,5.8 -1.7,0.7 -3.2,0.7 -4.6,-0.1 -0.9,-0.5 -1.6,-1.5 -2.1,-2.9 z m 5.8,23.9 -2.4,-8.5 -2.6,0.2 2.4,8.4 z m 1.7,20 c -1.9,-0.3 -3.1,-0.7 -4,-1.2 -1.1,-0.6 -1.7,-1.9 -2,-3.3 -0.2,-1.1 -0.4,-2.1 -0.2,-2.7 0.2,-0.8 0.8,-1.1 2.4,-1.4 l 13.7,-2.9 c 3,-0.7 3.3,-0.4 4.1,2.3 l 1.2,-0.3 -2.3,-10.7 -1.2,0.3 c 0.3,2.7 0.2,3.1 -2.8,3.7 l -13.5,2.9 c -2.9,0.6 -3.3,0.3 -4.2,-2.7 l -1.2,0.2 3.7,17.1 c 1,0.1 4.7,0.1 6.2,0 z m 2.3,20.7 c -1.7,-0.5 -2.9,-1 -3.8,-1.6 -1,-0.7 -1.4,-2 -1.6,-3.8 -0.2,-1.4 -0.3,-2.6 0,-3.3 0.3,-0.8 1.1,-1 2.8,-1.2 l 6.1,-0.8 0.3,2.4 c 0.4,3 0.2,3.5 -2.2,4.3 l 0.2,1.3 7.2,-0.9 -0.2,-1.3 c -2.6,-0.2 -2.8,-0.6 -3.1,-3.6 l -0.3,-2.4 7.5,-0.9 c 1.2,-0.2 1.3,-0.1 1.5,1.3 l 0.2,1.7 c 0.2,2 0.1,3 -0.5,3.7 -0.5,0.7 -1.6,1.3 -2.9,1.8 l 0.4,1.3 c 2.2,-0.4 4.7,-0.9 5.3,-1 l -2.1,-16.8 -1.2,0.1 c 0.1,2.6 0,3 -3.1,3.3 l -13.7,1.7 c -3,0.4 -3.3,0.1 -3.9,-2.9 l -1.2,0.1 2.2,18.2 c 1.1,0.2 4.4,0.5 6.1,0.5 z m 11.8,17.9 c 2.2,-0.3 3.8,-0.6 5.1,-0.7 0.2,-0.6 0.9,-2.7 0.9,-5 0,-5.1 -3.1,-8.2 -7,-8.2 -3.4,0 -5.4,2.5 -7.2,6.2 -1.4,2.7 -2.7,4.3 -4.9,4.3 -2.3,0 -3.8,-1.4 -3.8,-3.6 0,-3.4 4,-5.6 6.3,-6.3 l -0.4,-1.2 c -2.2,0.2 -5.2,0.7 -6,1 -0.2,0.5 -0.5,1.2 -0.8,2.2 -0.3,1 -0.5,2.3 -0.5,3.6 0,5.2 3.2,8.7 7.3,8.7 3.5,0 5.5,-2.6 7.3,-6.4 1.6,-3.1 2.7,-4.4 4.7,-4.4 2.1,0 3.5,1.5 3.5,3.5 0,2.9 -2.6,4.3 -4.9,5 z m -1.7,24.9 c 2.3,0 5.4,0.1 7,0.2 v -0.9 c -0.6,-0.7 -0.8,-1.2 -0.6,-2.1 l 1.2,-14.4 c 0.1,-1 0.2,-1.5 1.1,-1.9 v -0.9 c -1.8,-0.2 -4.4,-0.7 -7,-1.1 l -0.2,1.3 c 1.8,0.6 3,1.2 3.5,1.8 0.6,0.6 0.9,1.3 0.6,4.2 l -0.1,1.2 -16.9,-1.5 c -3,-0.3 -3.2,-0.7 -3.2,-3.7 l -1.2,-0.1 -1,11.7 1.2,0.1 c 0.6,-3.1 0.8,-3.5 3.8,-3.2 l 16.9,1.5 -0.2,1.7 c -0.2,2.1 -0.5,3 -1.1,3.5 -0.7,0.6 -1.9,1 -3.8,1.2 z m -14.2,19.1 c -1.5,-1 -2.5,-1.8 -3.1,-2.6 -0.8,-1 -0.8,-2.3 -0.5,-4.1 0.3,-1.3 0.5,-2.5 0.9,-3.1 0.5,-0.6 1.4,-0.6 3,-0.3 l 6.2,1.1 -0.4,2.4 c -0.6,3 -0.8,3.4 -3.3,3.4 l -0.3,1.3 7.1,1.3 0.3,-1.3 c -2.4,-0.9 -2.5,-1.4 -2,-4.4 l 0.4,-2.4 7.5,1.3 c 1.1,0.2 1.2,0.4 1,1.7 l -0.3,1.7 c -0.3,2 -0.8,2.9 -1.5,3.4 -0.8,0.5 -2,0.8 -3.3,0.9 l -0.1,1.3 c 2.2,0.2 4.7,0.5 5.4,0.6 l 3,-16.7 -1.3,-0.2 c -0.6,2.4 -0.9,2.8 -3.9,2.2 l -13.6,-2.4 c -3,-0.5 -3.2,-0.9 -2.9,-4 l -1.2,-0.2 -3.2,18 c 1,0.5 4.1,1.8 5.7,2.3 z"
       id="path78"
       style="clip-rule:evenodd;fill:#dc241f;fill-opacity:1;fill-rule:evenodd;stroke:none" />
    <path
       class="st3"
       d="m 210.7,1107.6197 c -0.7,-0.5 -1.2,-1.5 -1.8,-3.3 -0.5,-1.6 -0.9,-3.3 -1.5,-6.4 -0.5,-2.6 -1.1,-6.5 -1.3,-8.5 3.1,-1 5.6,-3.3 6.7,-7.8 0.7,-3.2 0.2,-5.6 -0.9,-7.4 -1.1,-1.7 -2.7,-2.6 -5.3,-3.2 l -9.4,-2.2 -0.3,1.1 c 2.4,1 2.6,1.3 1.6,5.8 l -5,21.7 c -1,4.5 -1.4,4.9 -4.2,4.5 l -0.2,1.1 10,2.3 0.2,-1.1 c -2.6,-0.9 -2.7,-1.4 -1.7,-5.9 l 2.1,-8.8 0.8,0.2 c 1.3,0.4 1.5,1.3 1.7,3 0.4,3 0.8,6.5 1.3,8.8 0.7,3.7 1.7,5.5 5.6,6.7 0.4,0.1 0.8,0.2 1.2,0.2 z m -10.7,-19.5 3.2,-13.7 c 0.3,-1.3 0.5,-1.7 0.8,-1.9 0.3,-0.2 0.9,-0.3 1.7,-0.1 2.1,0.5 3.9,3.3 2.6,9.1 -0.7,3.1 -1.8,5.1 -3.3,6.2 -1.1,0.9 -2.1,1 -3.6,0.7 z m 31.6,-12.6 -0.1,1.1 c 2.5,0.6 2.8,0.9 2.4,5.7 l -1.5,21.9 c -0.3,4.8 -0.8,5.2 -3.6,5.3 l -0.1,1.1 8,0.6 c 4.4,0.3 7.9,-0.8 10.6,-3.7 2.7,-2.8 4.6,-7.5 5.2,-14.2 0.3,-5.1 -0.6,-9 -2.2,-11.7 -1.9,-3.4 -4.9,-5.1 -9.6,-5.4 z m 6.8,5.4 c 0.1,-1.9 0.3,-2.5 0.6,-2.8 0.4,-0.3 1,-0.5 1.9,-0.4 1.9,0.1 3.4,1 4.7,3.1 1.9,2.6 2.6,7.5 2.2,13 -0.7,10.4 -4.2,16.2 -8.7,15.8 -2.1,-0.2 -2.6,-1.6 -2.4,-5 z m 50.1,2 c -0.4,-2.7 -0.8,-6.8 -1,-9.1 h -0.7 c -0.5,1.1 -1,1.5 -1.9,1.5 l -13.4,0.9 c -1.1,0.1 -1.6,-0.2 -2.2,-1.2 l -0.6,0.1 c 0.1,2.7 0.1,6.3 0.3,9.3 l 0.9,-0.1 c 0.2,-2.1 0.5,-3.8 0.9,-4.8 0.5,-1.3 1.3,-1.8 3.6,-1.9 l 1.7,-0.1 1.9,27.2 c 0.3,4.5 0.1,5 -2.8,5.5 l 0.1,1.2 10.7,-0.8 v -1.2 c -3.1,-0.1 -3.4,-0.5 -3.7,-5 l -1.9,-27.2 2,-0.1 c 1.9,-0.1 2.9,0.1 3.5,1.2 0.7,0.9 1.2,2.3 1.8,4.8 z m 35.3,11 c 0.1,2.3 -0.2,4.1 -0.5,5.4 -0.5,1.6 -1.6,2.3 -3.3,2.8 -1.4,0.4 -2.3,0.5 -3,0.3 -0.8,-0.3 -1.2,-1.4 -1.9,-4 l -5.8,-21.6 c -1.2,-4.4 -1.1,-4.8 1.4,-5.9 l -0.3,-1.1 -9.6,2.6 0.3,1.1 c 2.5,-0.3 2.9,-0.1 4.1,4.3 l 5.8,21.8 c 1.1,4.2 1,4.7 -1.8,5.8 l 0.3,1.1 16.1,-4.3 c -0.1,-1.4 -0.6,-6.3 -0.8,-8.2 z"
       id="path80"
       style="clip-rule:evenodd;fill:#dc241f;fill-opacity:1;fill-rule:evenodd;stroke:none" />
    <path
       id="path1179"
       style="clip-rule:evenodd;fill:none;fill-rule:evenodd;stroke:#dc241f;stroke-width:59.384;stroke-miterlimit:4;stroke-dasharray:none;stroke-opacity:1"
       d="m 256.00019,711.34366 c -72.29977,48.1 -115.80001,125.90016 -120.4,212.20029 7.05736,-1.1064 14.00795,-1.8812 20.87768,-2.3258 34.11079,-2.2078 66.22779,3.7251 99.52232,17.6256 39.99987,-16.7 78.30014,-21.8998 120.4,-15.2998 -4.59999,-86.30013 -48.10023,-164.10029 -120.4,-212.20029 z"
       sodipodi:nodetypes="ccsccc" />
    <path
       id="path1757"
       style="clip-rule:evenodd;fill:none;fill-rule:evenodd;stroke:#ffc726;stroke-width:15.41;stroke-miterlimit:4;stroke-dasharray:none;stroke-opacity:1"
       d="m 256.00019,711.34366 c -72.29977,48.1 -115.80001,125.90016 -120.4,212.20029 42.09986,-6.6001 80.40013,-1.4002 120.4,15.2998 39.99987,-16.7 78.30014,-21.8998 120.4,-15.2998 -4.59999,-86.30013 -48.10023,-164.10029 -120.4,-212.20029 z"
       sodipodi:nodetypes="ccccc" />
    <path
       id="path1759"
       style="clip-rule:evenodd;fill:#000000;fill-rule:nonzero;stroke:none;stroke-width:0.999998"
       d="m 256.00019,711.34379 c -72.29977,48.1 -115.80001,125.90013 -120.4,212.20036 42.09986,-6.6001 80.40013,-1.4002 120.4,15.2998 39.99987,-16.7 78.30014,-21.8998 120.4,-15.2998 -4.59999,-86.30023 -48.10023,-164.10036 -120.4,-212.20036 z"
       sodipodi:nodetypes="ccccc" />
    <path
       id="path1832"
       style="clip-rule:evenodd;fill:#ffc726;fill-opacity:1;fill-rule:evenodd;stroke:none;stroke-width:0.999763"
       d="m 224.94629,763.34878 c -0.57187,-0.042 -1.17188,0.1831 -1.54688,0.6327 l -2.69921,2.4981 c -0.4,0.3999 -0.59961,0.9006 -0.59961,1.4004 v 11.39469 l -0.59961,-0.1002 -0.20118,0.1993 -2.5996,4.1976 -0.19922,0.3009 0.19922,0.1991 3.30078,2.9982 v 1.3008 l -1.20118,3.0976 -5.29882,0.4004 -0.30078,0.1 -0.0996,0.3008 -0.9004,4.7969 v 0.2988 l 0.30079,0.1016 4.79882,1.9981 v 4.3985 l -4.79882,1.998 -0.30079,0.1016 v 0.2988 l 0.9004,4.7969 0.0996,0.3008 h 0.30078 l 5.29882,0.3999 1.20118,3.0997 v 1.4004 l -3.30078,2.99805 -0.19922,0.1993 0.19922,0.3007 2.5996,4.1974 0.20118,0.1992 h 0.29882 l 5.09961,-1.2989 3.10157,3.3985 -2.20118,4.2988 -0.0996,0.2989 0.19922,0.2011 4.10157,3.0978 0.19921,0.1991 0.19922,-0.1991 4.20118,-2.7989 4.19921,2.1993 -0.5,4.6971 -0.0996,0.3009 0.30078,0.1001 5.59961,1.8984 -1.30078,1.7989 -1.19922,-0.2989 c -0.79999,-0.2999 -1.69963,-0.6003 -2.59961,-0.9003 -0.89998,-0.2998 -1.70001,-0.6983 -2.5,-0.9981 l -0.20117,-0.1054 H 224.4002 v 7.3007 h 63.1996 v -7.3007 h -11.89961 l -0.20117,0.1054 c -0.79999,0.2998 -1.60002,0.6983 -2.5,0.9981 -0.89998,0.3 -1.79962,0.6004 -2.59961,0.9003 l -1.19922,0.2984 -1.30078,-1.7989 5.59961,-1.8984 0.30078,-0.1001 -0.0996,-0.3009 -0.5,-4.6971 4.19922,-2.1993 4.20117,2.7989 0.19922,0.1991 0.19922,-0.1991 4.10156,-3.0978 0.19922,-0.2011 -0.0996,-0.2989 -2.20117,-4.2988 3.10156,-3.3985 5.09961,1.2994 h 0.29883 l 0.20117,-0.1992 2.59961,-4.1974 0.19922,-0.3007 -0.19922,-0.1993 -3.30078,-2.99805 v -1.4004 l 1.20117,-3.0997 5.29883,-0.4003 h 0.30078 l 0.0996,-0.3008 0.90039,-4.7969 v -0.2988 l -0.30078,-0.1016 -4.79883,-1.998 v -4.3985 l 4.79883,-1.9981 0.30078,-0.1016 v -0.2988 l -0.90039,-4.7969 -0.0996,-0.3008 -0.30078,-0.1001 -5.29883,-0.3999 -1.20117,-3.0976 v -1.3008 l 3.30078,-2.9982 0.19922,-0.1991 -0.19922,-0.3009 -2.59961,-4.1971 -0.20117,-0.1993 -0.59961,0.1002 v -11.39469 c 0,-0.4998 -0.19962,-1.0005 -0.59961,-1.4004 l -2.69922,-2.4981 c -0.37499,-0.4496 -0.97501,-0.6748 -1.54687,-0.6327 -0.19062,0.014 -0.37969,0.058 -0.55469,0.1327 -10.76227,3.7851 -21.12475,8.9993 -30.49883,15.76149 -9.37408,-6.76219 -19.73695,-11.97639 -30.49921,-15.76149 -0.175,-0.075 -0.36407,-0.1186 -0.55469,-0.1327 z"
       sodipodi:nodetypes="cccsccccccccccccccccccccccccccccccccccccccccccccccccccccccccccccccccccccccccccccccccccccccccccccccccccccccccccscccccccc" />
    <path
       class="st2"
       d="m 206.9866,779.14376 c -1.09948,2.70001 0.69968,5.00001 0.99953,7.60001 0.29986,2.3 0,4.9 -0.79962,7.5 -1.79915,5.6 -2.99859,9.8 -2.29892,15.3 0.69967,5.4 3.59831,12.30005 0.49977,17.30005 2.29892,-5.2 -0.99953,-11.60005 -2.09901,-16.70005 -1.19943,-5.4 -0.39981,-9.8 0.89957,-15.3 0.99953,-3.5 1.39934,-5.9 -0.3998,-9.3 -0.29986,-0.7 -0.69967,-1.4 -0.79963,-2.4 -1.09948,1 -2.49882,1.3 -3.79821,1.8 -4.09808,1.4 -6.29704,4 -8.2961,7.6 -3.09855,5.6 -5.49742,11.5 -12.79399,11.7 6.5969,-2.4 7.69638,-6.4 10.49507,-12.8 2.19896,-5 4.29798,-8.1 9.69544,-10.1 1.99906,-0.8 4.39793,-1.60001 5.29751,-3.70001 z m -6.89675,8.60001 c -0.39981,-0.2 -0.69967,-0.4 -1.09948,-0.6 -0.29986,-0.2 -0.79962,-0.3 -1.09948,-0.5 -0.59972,-0.2 -1.39934,1.3 -0.79963,1.6 0.39982,0.2 0.69968,0.4 1.09949,0.6 0.39981,0.2 0.79962,0.3 1.19943,0.5 0.49977,0.2 1.29939,-1.3 0.69967,-1.6 m 0.99953,-2.2 c -0.29985,-0.2 -0.59971,-0.3 -0.89957,-0.5 -0.29986,0.1 -0.59972,0.2 -0.89958,0.3 -0.49976,0.2 -0.89958,0.4 -1.39934,0.6 0.0999,0.1 0.0999,0.1 0.0999,0.1 0.39981,0.2 0.79962,0.4 1.09948,0.5 0.39981,0.2 0.79963,0.3 1.09948,0.5 0.79963,0.3 1.39935,-1.2 0.89958,-1.5 m -0.1999,-0.7 c 0.1,0 0.1999,0.1 0.29985,0.1 0.29986,0.1 0.69968,-0.3 0.89958,-0.7 -0.29986,0.3 -0.79962,0.4 -1.19943,0.6 m 2.39887,1.1 -0.89958,-0.4 c -0.29986,-0.2 -0.1999,-0.8 0.19991,-1.2 0.1999,0.5 0.29986,1 0.59972,1.5 z m -15.79258,32.30005 c 0.29986,0.1 0.59972,0.2 0.79963,0.3 0.29986,0.1 0.59971,0.3 0.79962,0.4 0.49977,0.2 -0.39981,1.5 -0.89958,1.3 -0.1999,-0.1 -0.39981,-0.2 -0.69967,-0.3 -0.29986,-0.1 -0.39981,-0.2 -0.69967,-0.4 -0.39981,-0.1 0.19991,-1.4 0.69967,-1.3 m 0.99953,-2.00005 c 0.29986,0.10005 0.59972,0.30005 0.89958,0.40005 0.29986,0.1 0.59972,0.3 0.89958,0.5 0.39981,0.3 -0.49977,1.6 -0.89958,1.4 -0.29986,-0.1 -0.59972,-0.2 -0.79962,-0.4 -0.29986,-0.1 -0.59972,-0.3 -0.79963,-0.4 -0.49976,-0.2 0.1,-1.60005 0.69967,-1.50005 m 0.99953,-2 c 0.29986,0.1 0.69967,0.2 0.99953,0.4 0.39981,0.2 0.69967,0.3 0.99953,0.5 0.49977,0.3 -0.29986,1.70005 -0.89957,1.50005 -0.29986,-0.1 -0.69968,-0.2 -0.89958,-0.40005 -0.29986,-0.1 -0.59972,-0.3 -0.89958,-0.5 -0.49976,-0.3 0.0999,-1.8 0.69967,-1.5 m 0.99953,-2.2 c 0.29986,0.1 0.69967,0.3 0.99953,0.4 0.39981,0.2 0.69967,0.3 1.09949,0.5 0.49976,0.3 -0.29986,1.8 -0.89958,1.5 -0.29986,-0.1 -0.69967,-0.2 -0.99953,-0.4 -0.39981,-0.2 -0.69967,-0.3 -0.99953,-0.5 -0.49977,-0.2 0.1999,-1.7 0.79962,-1.5 m 1.09949,-2.2 c 0.39981,0.1 0.69967,0.3 1.19943,0.5 0.39981,0.1 0.69967,0.4 0.99953,0.5 0.59972,0.3 -0.1999,1.8 -0.79962,1.6 -0.39981,-0.1 -0.69967,-0.3 -1.09949,-0.4 -0.39981,-0.2 -0.69967,-0.3 -1.09948,-0.5 -0.59972,-0.4 0.19991,-1.9 0.79963,-1.7 m 1.09948,-2.4 c 0.29986,0.1 0.69967,0.3 1.09948,0.5 0.39981,0.2 0.79963,0.4 1.09949,0.6 0.59971,0.3 -0.29986,1.9 -0.89958,1.7 -0.39981,-0.1 -0.79963,-0.3 -1.09948,-0.5 -0.39982,-0.2 -0.69968,-0.4 -1.09949,-0.6 -0.49976,-0.3 0.19991,-1.9 0.89958,-1.7 m 0.99953,-2.3 c 0.39981,0.2 0.79962,0.3 1.19944,0.5 0.39981,0.2 0.79962,0.4 1.19943,0.6 0.59972,0.3 -0.1999,2 -0.79962,1.7 -0.39981,-0.1 -0.79963,-0.3 -1.19944,-0.5 -0.39981,-0.2 -0.79962,-0.4 -1.09948,-0.6 -0.69967,-0.3 0.1,-2 0.69967,-1.7 m 1.19944,-2.5 c 0.39981,0.1 0.79962,0.3 1.19943,0.5 0.39981,0.2 0.79963,0.4 1.19944,0.6 0.59972,0.4 -0.19991,2.1 -0.79963,1.8 -0.39981,-0.1 -0.79962,-0.3 -1.19943,-0.5 -0.39981,-0.2 -0.79963,-0.4 -1.19944,-0.6 -0.69967,-0.3 0.1,-2 0.79963,-1.8 m 1.09948,-2.4 c 0.39981,0.1 0.79962,0.3 1.19943,0.5 0.29986,0.2 0.79963,0.4 1.09949,0.6 0.59972,0.3 -0.19991,2 -0.79963,1.8 -0.39981,-0.2 -0.79962,-0.3 -1.19943,-0.5 -0.39981,-0.2 -0.79963,-0.4 -1.19944,-0.6 -0.49976,-0.4 0.19991,-2.1 0.89958,-1.8 m 1.09948,-2.5 c 0.39981,0.2 0.79963,0.3 1.19944,0.5 0.39981,0.2 0.79962,0.4 1.19943,0.6 0.59972,0.3 -0.1999,2 -0.79962,1.8 -0.39981,-0.1 -0.79962,-0.3 -1.19944,-0.5 -0.39981,-0.2 -0.79962,-0.4 -1.19943,-0.6 -0.69967,-0.3 0.1999,-2 0.79962,-1.8 m 1.09948,-2.4 c 0.39982,0.1 0.79963,0.3 1.19944,0.5 0.39981,0.2 0.79962,0.4 1.09948,0.6 0.59972,0.3 -0.1999,2.1 -0.79962,1.8 -0.39981,-0.2 -0.79962,-0.3 -1.19944,-0.5 -0.39981,-0.2 -0.79962,-0.4 -1.19943,-0.6 -0.49977,-0.4 0.1999,-2.1 0.89957,-1.8 m 1.09949,-2.4 c 0.39981,0.2 0.79962,0.3 1.19943,0.5 0.39982,0.2 0.79963,0.4 1.19944,0.6 0.59972,0.3 -0.19991,2 -0.79962,1.8 -0.39982,-0.2 -0.79963,-0.3 -1.19944,-0.5 -0.39981,-0.2 -0.79962,-0.4 -1.19944,-0.6 -0.59971,-0.4 0.1,-2.1 0.79963,-1.8 m 1.09948,-2.4 c 0.39981,0.2 0.79962,0.3 1.19944,0.5 0.39981,0.2 0.79962,0.3 1.09948,0.6 0.59972,0.3 -0.0999,1.9 -0.79962,1.7 -0.39982,-0.1 -0.79963,-0.3 -1.19944,-0.5 -0.39981,-0.2 -0.79962,-0.4 -1.09948,-0.6 -0.59972,-0.3 0.1,-1.9 0.79962,-1.7 m 0.99953,-2.2 c 0.39981,0.1 0.79963,0.3 1.19944,0.5 0.29986,0.2 0.69967,0.4 1.09948,0.5 0.59971,0.3 0,1.9 -0.69967,1.7 -0.39981,-0.2 -0.79962,-0.3 -1.19944,-0.5 -0.39981,-0.2 -0.79962,-0.4 -1.09948,-0.6 -0.69967,-0.3 0.1,-1.9 0.69967,-1.6 m 0.89958,-2.2 c 0.39981,0.1 0.69967,0.2 0.99953,0.4 0.1999,0.1 0.29986,0.1 0.39981,0.2 0.29985,0.7 0.49976,1.3 0.59971,2 -0.0999,0.1 -0.19991,0.1 -0.29986,0.1 -0.3998,-0.1 -0.79961,-0.3 -1.09947,-0.5 -0.39982,-0.2 -0.79963,-0.3 -1.09949,-0.5 -0.69967,-0.4 -0.1,-2 0.49977,-1.7 m -11.19474,33.80005 c 0.29986,0.3 -0.69967,1.3 -1.09948,1.3 -0.19991,-0.1 -0.29986,-0.1 -0.49977,-0.2 -0.1999,-0.1 -0.29986,-0.2 -0.39981,-0.3 -0.29986,-0.2 0.49977,-1.4 0.99953,-1.3 0.19991,0.1 0.29986,0.1 0.49977,0.2 0.0999,0.1 0.39981,0.2 0.49976,0.3 m 1.29939,-1.9 c 0.39981,0.2 -0.49977,1.4 -0.99953,1.3 -0.0999,0 -0.29986,-0.1 -0.49977,-0.2 -0.1999,-0.1 -0.39981,-0.2 -0.49976,-0.3 -0.29986,-0.3 0.49976,-1.5 0.99953,-1.4 0.19991,0 0.39981,0.1 0.59972,0.2 0.1,0.2 0.1999,0.3 0.39981,0.4 m 1.29939,-1.90005 c 0.49976,0.30005 -0.49977,1.60005 -0.99953,1.40005 -0.19991,0 -0.39981,-0.1 -0.59972,-0.2 -0.19991,-0.1 -0.39981,-0.2 -0.49976,-0.3 -0.39982,-0.3 0.39981,-1.60005 0.89957,-1.40005 0.19991,0 0.39982,0.1 0.59972,0.2 0.29986,0.1 0.39981,0.2 0.59972,0.3 m 1.29939,-2.1 c 0.49976,0.3 -0.39981,1.6 -0.89958,1.5 -0.1999,-0.1 -0.39981,-0.1 -0.69967,-0.2 -0.19991,-0.1 -0.39981,-0.2 -0.49976,-0.3 -0.39982,-0.3 0.39981,-1.6 0.89957,-1.5 0.19991,0.1 0.49977,0.1 0.69967,0.2 0.1,0.1 0.29986,0.2 0.49977,0.3 m 1.29939,-2.1 c 0.39981,0.3 -0.39981,1.7 -0.99953,1.6 -0.19991,-0.1 -0.39981,-0.1 -0.69967,-0.2 -0.19991,-0.1 -0.39982,-0.2 -0.59972,-0.4 -0.39981,-0.3 0.29986,-1.7 0.89958,-1.6 0.1999,0.1 0.49976,0.2 0.69967,0.3 0.1999,0.1 0.49976,0.2 0.69967,0.3 m 1.19943,-2.2 c 0.49977,0.3 -0.39981,1.8 -0.89957,1.6 -0.19991,-0.1 -0.39982,-0.2 -0.69967,-0.2 -0.19991,-0.1 -0.39982,-0.3 -0.59972,-0.4 -0.49977,-0.4 0.29986,-1.8 0.89957,-1.6 0.19991,0.1 0.49977,0.2 0.79963,0.3 0.1,0 0.29986,0.2 0.49976,0.3 m 1.19944,-2.3 c 0.59972,0.4 -0.19991,1.9 -0.89958,1.7 -0.1999,-0.1 -0.49976,-0.1 -0.69967,-0.3 -0.1999,-0.1 -0.49976,-0.3 -0.69967,-0.4 -0.49976,-0.3 0.29986,-1.9 0.89958,-1.7 0.29986,0.1 0.49976,0.2 0.69967,0.3 0.29986,0.1 0.59972,0.3 0.69967,0.4 m 1.19944,-2.4 c 0.49976,0.4 -0.19991,2 -0.79963,1.8 -0.1999,-0.1 -0.49976,-0.2 -0.79962,-0.3 -0.29986,-0.1 -0.49977,-0.3 -0.69967,-0.4 -0.49977,-0.4 0.1999,-2 0.89957,-1.8 0.19991,0 0.39982,0.1 0.69967,0.2 0.29986,0.2 0.49977,0.3 0.69968,0.5 m 1.09948,-2.5 c 0.59972,0.4 -0.19991,2 -0.79963,1.8 -0.1999,0 -0.49976,-0.2 -0.69967,-0.3 -0.1999,-0.1 -0.49976,-0.3 -0.69967,-0.4 -0.49976,-0.4 0.19991,-2 0.79963,-1.8 0.1999,0.1 0.49976,0.1 0.69967,0.3 0.29986,0.1 0.49976,0.3 0.69967,0.4 m 1.09948,-2.5 c 0.59972,0.4 -0.1,2 -0.79962,1.8 -0.19991,-0.1 -0.49977,-0.2 -0.69967,-0.3 -0.19991,-0.1 -0.49977,-0.3 -0.69967,-0.4 -0.49977,-0.4 0.1,-2 0.79962,-1.8 0.19991,0 0.49976,0.1 0.69967,0.2 0.29986,0.3 0.49977,0.4 0.69967,0.5 m 0.39981,-0.6 c 0,0 0,0 0,0 -0.29985,-0.1 -0.49976,-0.2 -0.79962,-0.3 -0.29986,-0.1 -0.49977,-0.2 -0.69967,-0.4 -0.49977,-0.4 0.1999,-1.9 0.79962,-1.8 0.19991,0.1 0.49977,0.2 0.69967,0.3 0.19991,0.1 0.19991,0.1 0.29986,0.2 0,0.6 -0.1999,1.3 -0.29986,2 m 0.49977,-2.6 c -0.1,-0.1 -0.19991,-0.1 -0.19991,-0.1 -0.1999,-0.1 -0.49976,-0.2 -0.69967,-0.4 -0.49976,-0.3 0.19991,-1.9 0.79963,-1.7 0.1999,0.1 0.39981,0.1 0.59971,0.2 -0.1,0.6 -0.29985,1.3 -0.49976,2 m 0.69967,-2.6 c -0.19991,-0.1 -0.39981,-0.2 -0.39981,-0.3 -0.49977,-0.4 0.1999,-1.9 0.79961,-1.7 0,0 0.1,0.1 0.1,0.1 -0.1999,0.5 -0.3998,1.2 -0.49975,1.9 m 0.49975,-2.6 c -0.29985,-0.2 -0.1999,-1 0.19991,-1.4 0,0.4 0,0.9 -0.19991,1.4 m -21.28998,24.5 c -0.39981,-0.1 -0.59972,1.40005 -0.19991,1.60005 0.1,0.1 0.29986,0.2 0.39982,0.3 0.1999,0.1 0.29986,0.1 0.49976,0.1 0.39981,0.1 0.69967,-1.3 0.29986,-1.6 -0.1999,-0.1 -0.29986,-0.2 -0.49976,-0.30005 -0.19991,0 -0.29986,0 -0.49977,-0.1 m 0.49977,-2.2 c -0.49977,-0.1 -0.69968,1.4 -0.39982,1.7 0.19991,0.1 0.29986,0.2 0.49977,0.3 0.0999,0.1 0.39981,0.1 0.49976,0.2 0.39982,0.1 0.79963,-1.4 0.39982,-1.7 -0.19991,-0.1 -0.39982,-0.2 -0.49977,-0.3 -0.1,-0.1 -0.29986,-0.1 -0.49976,-0.2 m 0.69967,-2.2 c -0.39981,-0.2 -0.79963,1.4 -0.39981,1.7 0.1,0.1 0.29985,0.2 0.49976,0.3 0.19991,0.1 0.39981,0.2 0.59972,0.2 0.49976,0.1 0.99953,-1.3 0.49976,-1.7 -0.1999,-0.1 -0.39981,-0.2 -0.59971,-0.3 -0.19991,-0.1 -0.39982,-0.2 -0.59972,-0.2 m 0.69967,-2.3 c -0.49977,-0.1 -0.89958,1.4 -0.39981,1.7 0.1999,0.1 0.29986,0.2 0.59971,0.3 0.19991,0.1 0.39982,0.2 0.59972,0.2 0.49977,0.1 0.99953,-1.3 0.49977,-1.7 -0.19991,-0.1 -0.39981,-0.2 -0.59972,-0.3 -0.19991,-0.1 -0.49977,-0.2 -0.69967,-0.2 m 0.69967,-2.4 c -0.59972,-0.1 -0.99953,1.4 -0.49977,1.8 0.19991,0.1 0.29986,0.2 0.59972,0.3 0.19991,0.1 0.39981,0.2 0.59972,0.2 0.59972,0.1 1.09948,-1.4 0.59972,-1.7 -0.19991,-0.1 -0.39981,-0.3 -0.59972,-0.3 -0.19991,-0.1 -0.39981,-0.2 -0.69967,-0.3 m 0.89958,-2.4 c -0.59972,-0.2 -1.09949,1.4 -0.59972,1.8 0.1999,0.1 0.39981,0.3 0.59972,0.3 0.29986,0.1 0.49976,0.2 0.69967,0.3 0.59972,0.1 1.09948,-1.4 0.59972,-1.8 -0.19991,-0.1 -0.49977,-0.3 -0.69968,-0.4 -0.1,0 -0.39981,-0.1 -0.59971,-0.2 m 0.89957,-2.5 c -0.59971,-0.2 -1.19943,1.5 -0.69967,1.8 0.19991,0.2 0.49977,0.3 0.69967,0.4 0.19991,0.1 0.49977,0.2 0.69967,0.3 0.59972,0.1 1.29939,-1.5 0.69968,-1.8 -0.0999,-0.1 -0.39982,-0.3 -0.69968,-0.4 -0.1999,-0.1 -0.49976,-0.2 -0.69967,-0.3 m 1.09949,-2.4 c -0.59972,-0.2 -1.29939,1.4 -0.79963,1.8 0.19991,0.1 0.39981,0.3 0.59972,0.4 0.29986,0.1 0.49977,0.2 0.69967,0.2 0.59972,0.2 1.29939,-1.4 0.79963,-1.8 -0.19991,-0.1 -0.39982,-0.3 -0.69968,-0.4 -0.1,-0.1 -0.29985,-0.2 -0.59971,-0.2 m 1.09948,-2.4 c -0.59972,-0.2 -1.29939,1.4 -0.79962,1.8 0.1999,0.1 0.39981,0.3 0.69967,0.4 0.1999,0.1 0.49976,0.2 0.79962,0.3 0.59972,0.1 1.29939,-1.5 0.79962,-1.8 -0.1999,-0.1 -0.49976,-0.2 -0.69967,-0.4 -0.1999,-0.2 -0.49976,-0.3 -0.79962,-0.3 m 1.19944,-2.5 c -0.59972,-0.2 -1.29939,1.4 -0.79963,1.8 0.19991,0.1 0.49977,0.3 0.69967,0.4 0.29986,0.1 0.49977,0.2 0.79963,0.3 0.59971,0.1 1.39934,-1.5 0.79962,-1.8 -0.1,-0.1 -0.39981,-0.3 -0.69967,-0.4 -0.29986,-0.2 -0.49977,-0.2 -0.79962,-0.3 m 1.09948,-2.5 c -0.1,0 -0.19991,0 -0.29986,0.1 l -0.19991,0.3 c -0.1999,0.3 -0.29986,0.6 -0.49976,0.9 -0.1,0.2 0,0.4 0.1999,0.5 0.19991,0.1 0.39982,0.3 0.59972,0.4 0.29986,0.1 0.49977,0.2 0.79963,0.2 0.59972,0.2 1.29939,-1.5 0.79962,-1.8 -0.1999,-0.2 -0.39981,-0.3 -0.69967,-0.4 -0.19991,0 -0.49977,-0.1 -0.69967,-0.2 m 0.1999,-0.8 c 0,0.1 0.1,0.1 0.1,0.2 0.19991,0.1 0.39982,0.3 0.69968,0.4 0.1999,0.1 0.49976,0.2 0.69967,0.3 0.59972,0.1 1.29939,-1.4 0.79962,-1.7 -0.1999,-0.2 -0.39981,-0.3 -0.69967,-0.4 -0.19991,-0.1 -0.39981,-0.2 -0.59972,-0.2 -0.29986,0.4 -0.69967,0.9 -0.99953,1.4 m 1.4993,-2 c 0.1,0.1 0.1999,0.2 0.39981,0.2 0.29986,0.1 0.49976,0.2 0.69967,0.3 0.59972,0.1 1.39934,-1.3 0.79962,-1.7 -0.1,-0.1 -0.39981,-0.2 -0.59971,-0.3 -0.39982,0.4 -0.89958,0.9 -1.29939,1.5 m 1.8991,-1.9 c 0.1,0 0.19991,0.1 0.39982,0.1 0.39981,0.1 0.89957,-0.6 0.99953,-1.1 -0.49977,0.3 -0.99953,0.6 -1.39935,1 m -11.29469,36.30005 c -0.1,-0.1 -0.1999,-0.1 -0.29985,-0.1 -0.1,-0.1 -0.19991,-0.1 -0.29986,-0.1 -0.1,-0.1 0,0.8 0.0999,0.8 0.1,0.1 0.1999,0.1 0.1999,0.1 0,0 0.1,0 0.19991,0.1 0,-0.1 0.1999,-0.7 0.1,-0.8 m 0.39981,0.2 c 0.1,0.1 0.19991,0.1 0.29986,0.1 0.1,0 0.19991,0.1 0.29986,0.1 0.1,0.1 -0.49977,0.6 -0.59972,0.5 -0.1,0 -0.1,0 -0.19991,0 -0.1,-0.1 -0.1,-0.1 -0.1999,-0.1 -0.1,0 0.1999,-0.6 0.39981,-0.6 m 1.4993,0.7 c 0.1999,0.1 -0.69968,0.5 -0.79963,0.4 -0.1,0 -0.1,0 -0.1999,0 0,0 -0.1,-0.1 -0.1,-0.1 -0.1,-0.1 0.49976,-0.5 0.69967,-0.5 0.1,0 0.1999,0.1 0.1999,0.1 0.1,0 0.19991,0.1 0.19991,0.1 m -3.49836,-1.6 c -0.1,-0.1 0.19991,0.8 0.29986,0.9 0,0 0.0999,0 0.0999,0.1 0.1,0 0.1,0.1 0.19991,0.1 0.1999,0 0,-0.8 -0.19991,-0.9 -0.0999,0 -0.0999,-0.1 -0.29986,-0.2 0,0 -0.0999,0 -0.0999,0 m 1.99906,-0.4 c -0.1999,-0.1 -0.29986,-0.2 -0.49976,-0.2 -0.19991,-0.1 -0.29986,-0.2 -0.39981,-0.2 -0.29986,0 -0.29986,0.9 0,1 0.1,0 0.1999,0.1 0.29985,0.2 0.0999,0 0.19991,0.1 0.29986,0.1 0.1,-0.1 0.49977,-0.8 0.29986,-0.9 m 0.49977,0.2 c 0.1999,0.1 0.29986,0.1 0.49976,0.2 l 0.39981,0.2 c 0.19991,0.1 -0.49976,0.7 -0.69967,0.7 -0.1999,-0.1 -0.29986,-0.1 -0.39981,-0.2 -0.1,-0.1 -0.1999,-0.1 -0.29986,-0.2 -0.1,0 0.29986,-0.8 0.49977,-0.7 m 2.19896,1 c 0.19991,0.2 -0.59971,0.6 -0.89957,0.6 -0.1,0 -0.19991,-0.1 -0.29986,-0.1 -0.1,-0.1 -0.19991,-0.1 -0.29986,-0.1 -0.1,-0.1 0.59972,-0.7 0.79962,-0.6 0.0999,0 0.19991,0.1 0.29986,0.1 0.19991,0 0.29986,0.1 0.39981,0.1 m -4.89769,-2.2 c -0.19991,-0.1 0,0.9 0.1999,1 0.0999,0.1 0.19991,0.1 0.19991,0.2 0.1,0 0.1999,0.1 0.1999,0.1 0.19991,0 0.19991,-0.8 0,-1 -0.0999,-0.1 -0.1999,-0.1 -0.29986,-0.2 -0.0999,-0.1 -0.1999,-0.1 -0.29985,-0.1 m 2.69873,-0.4 c -0.19991,-0.1 -0.39981,-0.2 -0.59972,-0.3 -0.19991,-0.1 -0.39981,-0.2 -0.59972,-0.2 -0.29986,-0.1 -0.39981,0.9 -0.1999,1.1 0.1999,0.1 0.29985,0.2 0.39981,0.2 0.1999,0.1 0.29986,0.1 0.49976,0.2 0.39981,0.1 0.79963,-0.8 0.49977,-1 m 0.69967,0.3 c 0.1999,0.1 0.39981,0.2 0.59972,0.2 0.1999,0.1 0.39981,0.2 0.49976,0.3 0.29986,0.2 -0.49976,1 -0.69967,0.9 -0.19991,-0.1 -0.29986,-0.1 -0.49976,-0.2 -0.19991,-0.1 -0.29986,-0.2 -0.39982,-0.2 -0.1999,-0.1 0.19991,-1.1 0.49977,-1 m 2.59878,1.2 c 0.29986,0.2 -0.59972,0.9 -0.89958,0.8 -0.1,0 -0.19991,-0.1 -0.29986,-0.1 -0.1,0 -0.19991,-0.1 -0.29986,-0.1 -0.1999,-0.2 0.39981,-0.9 0.79963,-0.8 0.1999,0.1 0.1999,0.1 0.29985,0.1 0.19991,0 0.39982,0.1 0.39982,0.1 m -5.89723,-2.7 c -0.29986,0 -0.19991,1 0,1.2 0.1,0.1 0.1999,0.1 0.29986,0.2 0.1,0.1 0.1999,0.1 0.29986,0.1 0.1999,0 0.39981,-1 0.1,-1.2 -0.1,-0.1 -0.19991,-0.1 -0.39982,-0.2 -0.1,-0.1 -0.1999,-0.1 -0.29985,-0.1 m 3.29845,-0.5 c -0.19991,-0.1 -0.39982,-0.2 -0.69968,-0.3 -0.29985,-0.1 -0.49976,-0.2 -0.69967,-0.3 -0.39981,-0.2 -0.59971,1.1 -0.29986,1.3 0.19991,0.1 0.39982,0.2 0.59972,0.3 0.19991,0.1 0.39981,0.2 0.59972,0.3 0.29986,0.1 0.79962,-1.1 0.49977,-1.3 m 0.79962,0.4 c 0.29986,0.1 0.49976,0.2 0.69967,0.3 0.19991,0.1 0.49977,0.2 0.69967,0.3 0.29986,0.2 -0.49976,1.2 -0.79962,1.1 -0.19991,-0.1 -0.39981,-0.1 -0.59972,-0.2 -0.19991,-0.1 -0.29986,-0.2 -0.59972,-0.3 -0.29986,-0.2 0.19991,-1.3 0.59972,-1.2 m 3.09854,1.4 c 0.29986,0.2 -0.59972,1.1 -0.99953,1 -0.1999,-0.1 -0.29986,-0.1 -0.49976,-0.2 -0.1,-0.1 -0.19991,-0.1 -0.29986,-0.2 -0.19991,-0.2 0.49976,-1.1 0.89958,-1 0.1999,0 0.29985,0.1 0.49976,0.2 0.19991,0.1 0.29986,0.2 0.39981,0.2 m -6.99671,-3.2 c -0.29986,-0.1 -0.39981,1.2 -0.0999,1.4 0.0999,0.1 0.19991,0.2 0.39981,0.2 0.19991,0 0.19991,0.1 0.39982,0.1 0.29986,0.1 0.49976,-1.1 0.1999,-1.4 -0.1999,-0.1 -0.29986,-0.1 -0.39981,-0.2 -0.19991,0 -0.39981,-0.1 -0.49977,-0.1 m 3.89817,-0.5 c -0.1999,-0.2 -0.49976,-0.3 -0.79962,-0.4 -0.29986,-0.1 -0.59972,-0.2 -0.79963,-0.3 -0.39981,-0.2 -0.79962,1.3 -0.39981,1.5 0.19991,0.1 0.39981,0.3 0.69967,0.4 0.19991,0.1 0.49977,0.2 0.69967,0.3 0.39982,0.1 0.99953,-1.3 0.59972,-1.5 m 0.89958,-2.10005 c -0.29986,-0.2 -0.49977,-0.3 -0.89958,-0.5 -0.29986,-0.1 -0.59972,-0.2 -0.89957,-0.4 -0.49977,-0.2 -0.89958,1.3 -0.49977,1.60005 0.29986,0.1 0.49977,0.3 0.79962,0.4 0.29986,0.1 0.59972,0.2 0.89958,0.4 0.39981,0.2 0.99953,-1.20005 0.59972,-1.50005 m 0.89958,-2.1 c -0.29986,-0.2 -0.59972,-0.3 -0.99953,-0.5 -0.29986,-0.1 -0.69967,-0.3 -0.99953,-0.4 -0.59972,-0.2 -1.09949,1.4 -0.59972,1.6 0.29986,0.1 0.59972,0.3 0.89958,0.5 0.29985,0.1 0.59971,0.3 0.99953,0.4 0.49976,0.1 1.19943,-1.3 0.69967,-1.6 m 0.99953,-2.1 c -0.39982,-0.2 -0.69967,-0.4 -0.99953,-0.6 -0.39982,-0.2 -0.69967,-0.3 -1.09949,-0.4 -0.59971,-0.2 -1.09948,1.4 -0.59971,1.7 0.39981,0.2 0.69967,0.3 0.99953,0.5 0.39981,0.2 0.69967,0.3 1.09948,0.4 0.39981,0.1 1.09948,-1.4 0.59972,-1.6 m 0.99953,-2.3 c -0.39982,-0.2 -0.69967,-0.4 -1.09949,-0.5 -0.29986,-0.2 -0.69967,-0.3 -1.09948,-0.4 -0.59972,-0.2 -1.19944,1.4 -0.69967,1.7 0.39981,0.2 0.69967,0.4 1.09948,0.5 0.39981,0.2 0.69967,0.3 1.09949,0.4 0.49976,0.2 1.19943,-1.4 0.69967,-1.7 m 0.99953,-2.4 c -0.29986,-0.2 -0.69967,-0.4 -1.09949,-0.5 -0.39981,-0.2 -0.79962,-0.3 -1.19943,-0.5 -0.69967,-0.2 -1.29939,1.4 -0.69967,1.8 0.29986,0.2 0.69967,0.3 1.09948,0.5 0.29986,0.2 0.69967,0.3 1.09948,0.5 0.69967,0.2 1.39934,-1.4 0.79963,-1.8 m 1.09948,-2.3 c -0.39981,-0.2 -0.79962,-0.4 -1.19944,-0.6 -0.39981,-0.2 -0.79962,-0.4 -1.19943,-0.5 -0.59972,-0.3 -1.29939,1.4 -0.69967,1.8 0.29986,0.2 0.79962,0.4 1.09948,0.6 0.39981,0.2 0.79962,0.4 1.19944,0.5 0.59971,0.2 1.39934,-1.5 0.79962,-1.8 m 1.09948,-2.5 c -0.39981,-0.2 -0.79962,-0.4 -1.19943,-0.6 -0.39982,-0.2 -0.79963,-0.3 -1.19944,-0.5 -0.69967,-0.3 -1.49929,1.5 -0.79962,1.8 0.29986,0.2 0.79962,0.4 1.09948,0.6 0.39981,0.2 0.79962,0.3 1.19944,0.5 0.69967,0.3 1.49929,-1.4 0.89957,-1.8 m 1.09949,-2.5 c -0.39982,-0.2 -0.79963,-0.4 -1.09949,-0.6 -0.39981,-0.2 -0.79962,-0.3 -1.29939,-0.5 -0.59971,-0.2 -1.39934,1.5 -0.79962,1.8 0.39981,0.2 0.79962,0.4 1.19944,0.6 0.29986,0.2 0.79962,0.4 1.19943,0.5 0.69967,0.3 1.39934,-1.4 0.79963,-1.8 m 1.09948,-2.4 c -0.39981,-0.2 -0.79962,-0.4 -1.09948,-0.6 -0.39982,-0.2 -0.79963,-0.4 -1.19944,-0.5 -0.59972,-0.2 -1.4993,1.5 -0.89958,1.8 0.39982,0.2 0.79963,0.4 1.09949,0.6 0.39981,0.1 0.79962,0.3 1.19943,0.5 0.79963,0.3 1.59925,-1.5 0.89958,-1.8 m 1.19944,-2.5 c -0.39982,-0.2 -0.79963,-0.4 -1.19944,-0.6 -0.39981,-0.2 -0.79962,-0.3 -1.19944,-0.5 -0.69967,-0.2 -1.39934,1.5 -0.79962,1.8 0.39981,0.2 0.79962,0.4 1.19944,0.6 0.39981,0.2 0.79962,0.3 1.09948,0.5 0.69967,0.3 1.49929,-1.4 0.89958,-1.8 m 1.09948,-2.4 c -0.29986,-0.2 -0.79963,-0.4 -1.19944,-0.6 -0.39981,-0.2 -0.79962,-0.4 -1.19943,-0.5 -0.59972,-0.2 -1.39935,1.4 -0.79963,1.8 l 1.19944,0.6 c 0.39981,0.2 0.79962,0.3 1.19943,0.5 0.59972,0.2 1.39935,-1.4 0.79963,-1.8 m 0.99953,-2.3 c -0.39981,-0.2 -0.79963,-0.4 -1.09948,-0.5 -0.39982,-0.2 -0.79963,-0.4 -1.19944,-0.5 -0.59972,-0.2 -1.39934,1.3 -0.79962,1.7 0.39981,0.2 0.79962,0.4 1.19943,0.6 0.39981,0.2 0.79963,0.4 1.09948,0.5 0.69968,0.2 1.39935,-1.5 0.79963,-1.8"
       id="path1813"
       style="clip-rule:evenodd;fill:#ffc726;fill-opacity:1;fill-rule:evenodd;stroke:none;stroke-width:0.999765" />
    <path
       class="st2"
       d="m 332.90019,802.24377 c -3.29901,-1.7 -7.69769,-7 -10.9967,-11.2 -2.9991,-3.9 -5.99819,-5.9 -8.39747,-7.1 -1.89943,-1 -3.49895,-1.3 -5.59832,-1.5 5.19844,9.7 -3.09907,25.3 -0.19994,42.20005 -11.59652,-25.70005 5.9982,-32.80005 -2.9991,-45.30006 l 1.39958,-1 c 4.69859,5.30001 12.99609,2.00001 20.49384,13.50001 2.59922,3.9 3.49895,6.8 6.29811,10.4 m -15.39538,10 c 0.19994,-0.3 0.29991,-0.5 0.39988,-0.7 0.49985,-0.9 0.9997,-1.7 1.19964,-2.8 0.59982,-1.8 0.59982,-3.8 0.1,-5.6 -0.1,-0.2 -0.1,-0.3 -0.19994,-0.4 -0.59982,-0.8 -0.9997,-1.7 -1.29961,-2.6 0,-0.1 -0.19994,-0.4 -0.29991,-0.8 -0.1,0.5 -0.19994,1 -0.39988,1.5 -0.39988,0.9 -0.79975,1.8 -1.19963,2.4 -0.49985,1.8 -0.49985,3.6 0,5.4 0.29991,1 0.69978,1.9 1.19963,2.8 0.19994,0.3 0.39988,0.5 0.49985,0.8 m 8.89733,7.00005 v 0 c 0.39988,0.2 0.59982,0.4 0.89973,0.6 1.29961,0.9 2.29931,2.1 2.89913,3.6 0.29991,0.8 0.49985,1.6 0.69979,2.4 0,0.2 0,0.3 0,0.5 -0.1,0 -0.29991,-0.1 -0.39988,-0.2 -0.79976,-0.3 -1.59952,-0.7 -2.29931,-1.2 -0.49985,-0.3 -0.89973,-0.7 -1.39958,-1.1 0.1,-0.8 0.1,-1.8 0,-2.9 0,-0.6 -0.19994,-1.1 -0.39988,-1.7 m -0.19994,5.1 c -0.19994,-0.1 -0.29991,-0.2 -0.39988,-0.3 -0.69979,-0.5 -1.39958,-1.1 -1.9994,-1.7 -0.9997,-1 -1.59952,-2.2 -1.89943,-3.6 0.29991,-0.8 0.59982,-1.6 0.69979,-2.70005 0.69979,1.10005 1.69949,2.00005 2.79916,2.70005 0.39988,0.7 0.59982,1.6 0.69979,2.4 0.19994,0.9 0.19994,1.8 0.1,2.7 0,0.1 0,0.3 0,0.5 m 2.89913,-4.8 c -0.19994,-0.1 -0.39988,-0.2 -0.59982,-0.2 -0.89973,-0.3 -1.79946,-0.6 -2.49925,-1.1 -1.39958,-0.8 -2.49925,-2.00005 -3.29901,-3.30005 0.1,-1.3 -0.1,-2.5 -0.49985,-3.6 0.39988,0.3 0.69979,0.6 1.19964,0.9 0.79976,0.5 1.59952,0.9 2.29931,1.2 0.9997,0.8 1.79946,1.8 2.29931,2.90005 0.49985,0.9 0.69979,1.7 0.89973,2.6 0.1,0.2 0.19994,0.4 0.19994,0.6 m -8.09757,-0.7 c -0.1,-0.2 -0.29991,-0.3 -0.39988,-0.5 -0.59982,-0.7 -1.19964,-1.5 -1.49955,-2.40005 -0.49985,-1.1 -0.79976,-2.3 -0.89973,-3.4 0.49985,-1 1.19964,-2.1 1.59952,-3.5 0.1,-0.2 0.19994,-0.5 0.19994,-0.7 0.19994,0.3 0.39988,0.7 0.59982,1 0,0 0,0.1 0,0.1 0.19994,0.3 0.39988,0.6 0.59982,0.9 0.69979,1.6 0.9997,3.3 0.79976,5.1 -0.1,1.00005 -0.29991,1.80005 -0.69979,2.80005 -0.1,0.1 -0.19994,0.4 -0.29991,0.6 m 6.09817,-5.60005 c -0.19994,-0.1 -0.49985,-0.2 -0.69979,-0.3 -0.89973,-0.4 -1.79946,-0.8 -2.59922,-1.4 -1.59952,-1.1 -2.69919,-2.4 -3.39898,-4.2 -0.1,-0.2 -0.19994,-0.4 -0.19994,-0.6 0.1,-0.9 0,-2 -0.19994,-2.9 l 0.19994,0.2 c 0.29991,0.2 0.49985,0.4 0.69979,0.6 1.09967,0.8 2.19934,1.3 3.09907,1.7 0.89973,0.9 1.59952,1.9 2.09937,3.1 0.39988,0.9 0.59982,1.9 0.79976,2.8 0.1,0.5 0.19994,0.7 0.19994,1 m -18.09456,-30 c 0.1,0.2 0.1,0.3 0.19994,0.4 0.29991,0.8 0.59982,1.6 1.09967,2.3 0.79976,1.3 1.9994,2.3 3.49895,3 0.79976,0.4 1.59952,0.6 2.39928,0.7 0.19993,0 0.2999,0.1 0.49984,0.1 -0.1,-0.2 -0.1,-0.3 -0.19994,-0.5 -0.2999,-0.8 -0.59981,-1.6 -1.19963,-2.3 -0.79976,-1.3 -2.09937,-2.3 -3.49895,-3 -0.79976,-0.4 -1.59952,-0.5 -2.49925,-0.7 0,0 -0.1,0 -0.29991,0 m 3.79886,12.8 c 0.1,-0.2 0.1,-0.3 0.19994,-0.5 0.39988,-0.9 0.69979,-1.7 0.79976,-2.6 0.19994,-1.1 0.1,-2.3 -0.1,-3.4 h -0.1 c -1.09967,-0.5 -2.09937,-1.2 -2.79916,-2.1 -0.1,0.3 -0.19994,0.7 -0.19994,1 -0.29991,1.6 -0.1,3.2 0.59982,4.8 0.29991,0.8 0.79976,1.6 1.29961,2.3 0,0.3 0.1,0.4 0.29991,0.5 m 8.69738,1.8 c -0.1,-0.2 -0.1,-0.4 -0.1,-0.6 -0.19994,-0.9 -0.39988,-1.8 -0.79976,-2.7 -0.69979,-1.6 -1.79946,-2.9 -3.19904,-3.9 -0.79976,-0.2 -1.79945,-0.3 -2.89912,-0.7 0.19994,0.9 0.29991,1.7 0.69979,2.5 0.69979,1.6 1.69948,2.9 3.19903,3.9 0.79976,0.5 1.59952,0.9 2.39928,1.2 0.19994,0.2 0.49985,0.2 0.69979,0.3 m -6.79795,6 c 0.1,-0.2 0.19994,-0.4 0.39988,-0.6 0.49985,-0.8 0.89973,-1.6 1.2996,-2.6 0.49985,-1.6 0.59982,-3.2 0.29991,-4.8 -0.79975,-0.8 -1.49954,-1.7 -1.99939,-2.8 0,-0.1 -0.19994,-0.4 -0.29991,-0.7 0,0.2 0,0.4 -0.1,0.6 -0.19994,1.3 -0.59982,2.4 -0.9997,3.2 -0.29991,1.4 -0.29991,2.8 0,4.2 0.19994,0.9 0.59982,1.8 0.9997,2.7 0.19994,0.3 0.29991,0.6 0.39988,0.8 m 10.09696,2.2 c -0.1,-0.3 -0.1,-0.5 -0.1,-0.8 -0.19994,-1 -0.29991,-1.9 -0.69979,-2.9 -0.49985,-1.4 -1.29961,-2.7 -2.39928,-3.7 -0.9997,-0.4 -2.29931,-0.8 -3.59892,-1.7 -0.1,-0.1 -0.29991,-0.2 -0.39988,-0.3 0,0.1 0,0.2 0,0.3 0.1,1 0.29991,1.9 0.59982,2.9 0.59982,1.7 1.79946,3.2 3.19904,4.3 0.79976,0.6 1.69949,1 2.49925,1.5 0.39988,0.2 0.59982,0.3 0.89973,0.4"
       id="path1811"
       style="clip-rule:evenodd;fill:#ffc726;fill-opacity:1;fill-rule:evenodd;stroke:none;stroke-width:0.99985" />
    <path
       id="path2043-9"
       style="clip-rule:evenodd;fill:#dc241f;fill-opacity:1;fill-rule:evenodd;stroke:none;stroke-width:0.999947"
       d="m 224.50153,764.54588 c -0.19999,0.1 -0.30004,0.1012 -0.40004,0.2012 l -2.70127,2.5982 c -0.10003,0.2 -0.20003,0.3 -0.20003,0.5 v 48.99954 h 0.099 v 0.099 0.3008 h 0.10099 c 0,0.1005 9.7e-4,0.099 0.10098,0.099 h 0.099 0.099 c 5.60007,1.9996 11.10273,4.3003 16.30278,7 5.20006,2.6996 10.0987,5.801 14.89875,9.3006 0.10001,0.1003 0.20004,0.1993 0.40005,0.1993 h 2.69933 2.69933 c 0.2,0 0.30004,-0.099 0.40005,-0.1992 4.80004,-3.4997 9.69869,-6.601 14.89874,-9.3007 5.20006,-2.6996 10.70273,-5.0003 16.30279,-6.9999 h 0.0991 0.0991 c 0.1,0 0.10099,8e-4 0.10099,-0.1 h 0.10098 v -0.3008 -0.1 h 0.099 v -48.99954 c 0,-0.2 -0.1,-0.3 -0.20003,-0.5 l -2.70126,-2.5983 c -0.10001,-0.1001 -0.20005,-0.1012 -0.40005,-0.2012 h -0.0991 l -0.20002,0.1035 h -0.20003 c -5.70006,2 -11.09983,4.2991 -16.39989,6.9987 -5.16276,2.6806 -10.02833,5.73019 -14.59967,9.19739 -4.57134,-3.4672 -9.43691,-6.51679 -14.59969,-9.19749 -5.30005,-2.6996 -10.69982,-4.9986 -16.39988,-6.9986 h -0.20002 l -0.20003,-0.1035 z"
       sodipodi:nodetypes="cccscccccsccccscsccccscccccsccccccccccccc" />
    <path
       class="st1"
       d="m 228.00019,800.74337 c 4.6,1.7 9,3.7 13.3,6 4.1,2.1 8.1,4.5 11.9,7.1 v 1.5 c -4,-2.8 -8.1,-5.3 -12.4,-7.5 -4.2,-2.2 -8.39999,-4.1 -12.8,-5.7 z"
       id="path2141"
       style="clip-rule:evenodd;fill:#000000;fill-rule:evenodd;stroke:none" />
    <path
       id="path2147"
       style="clip-rule:evenodd;fill:#ffc726;fill-opacity:1;fill-rule:evenodd;stroke-width:1.00001"
       d="m 224.60019,809.54387 v 4.6998 c 5.70015,1.9999 11.10005,4.40005 16.40019,7.10005 5.20013,2.7 10.29969,5.7999 14.99981,9.2998 4.70012,-3.4999 9.79968,-6.5998 14.99981,-9.2998 5.30014,-2.7 10.70005,-5.10015 16.40019,-7.10005 v -4.6998 c -5.60014,2 -11.10005,4.2996 -16.40019,7.09965 -5.20012,2.7 -10.29969,5.8003 -14.99981,9.3002 -4.70012,-3.4999 -9.79968,-6.6002 -14.99981,-9.3002 -5.30014,-2.80005 -10.80005,-5.09965 -16.40019,-7.09965 z"
       sodipodi:nodetypes="ccccccccccc" />
    <path
       class="st1"
       d="m 228.00019,792.24347 c 4.6,1.7 9,3.7 13.3,6 4.1,2.1 8.1,4.5 11.9,7.1 v 1.5 c -4,-2.8 -8.1,-5.3 -12.4,-7.5 -4.2,-2.2 -8.39999,-4.1 -12.8,-5.7 z"
       id="path2187"
       style="clip-rule:evenodd;fill:#000000;fill-rule:evenodd;stroke:none" />
    <path
       class="st1"
       d="m 228.00019,783.74357 c 4.6,1.7 9,3.7 13.3,6 4.1,2.1 8.1,4.5 11.9,7.1 v 1.5 c -4,-2.8 -8.1,-5.3 -12.4,-7.5 -4.2,-2.2 -8.39999,-4.1 -12.8,-5.7 z"
       id="path2209"
       style="clip-rule:evenodd;fill:#000000;fill-rule:evenodd;stroke:none" />
    <path
       class="st1"
       d="m 228.00019,775.24358 c 4.6,1.69999 9,3.69999 13.3,5.99999 4.1,2.1 8.1,4.5 11.9,7.1 v 1.5 c -4,-2.8 -8.1,-5.3 -12.4,-7.5 -4.2,-2.2 -8.39999,-4.1 -12.8,-5.7 z"
       id="path2231"
       style="clip-rule:evenodd;fill:#000000;fill-rule:evenodd;stroke:none" />
    <path
       class="st1"
       d="m 283.9998,800.74337 c -4.6,1.7 -9,3.7 -13.3,6 -4.1,2.1 -8.1,4.5 -11.9,7.1 v 1.5 c 4,-2.8 8.1,-5.3 12.4,-7.5 4.2,-2.2 8.4,-4.1 12.8,-5.7 z"
       id="path2244"
       style="clip-rule:evenodd;fill:#000000;fill-rule:evenodd;stroke:none" />
    <path
       class="st1"
       d="m 283.9998,792.24347 c -4.6,1.7 -9,3.7 -13.3,6 -4.1,2.1 -8.1,4.5 -11.9,7.1 v 1.5 c 4,-2.8 8.1,-5.3 12.4,-7.5 4.2,-2.2 8.4,-4.1 12.8,-5.7 z"
       id="path2246"
       style="clip-rule:evenodd;fill:#000000;fill-rule:evenodd;stroke:none" />
    <path
       class="st1"
       d="m 283.9998,783.74357 c -4.6,1.7 -9,3.7 -13.3,6 -4.1,2.1 -8.1,4.5 -11.9,7.1 v 1.5 c 4,-2.8 8.1,-5.3 12.4,-7.5 4.2,-2.2 8.4,-4.1 12.8,-5.7 z"
       id="path2248"
       style="clip-rule:evenodd;fill:#000000;fill-rule:evenodd;stroke:none" />
    <path
       class="st1"
       d="m 283.9998,775.24358 c -4.6,1.69999 -9,3.69999 -13.3,5.99999 -4.1,2.1 -8.1,4.5 -11.9,7.1 v 1.5 c 4,-2.8 8.1,-5.3 12.4,-7.5 4.2,-2.2 8.4,-4.1 12.8,-5.7 z"
       id="path2250"
       style="clip-rule:evenodd;fill:#000000;fill-rule:evenodd;stroke:none" />
    <path
       class="st1"
       d="m 256.00018,748.14377 -2.9,26.1 2.9,1.99999 2.89982,-2.00011"
       id="path2272"
       style="clip-rule:evenodd;fill:#ffffff;fill-rule:evenodd;stroke:none"
       sodipodi:nodetypes="cccc" />
    <path
       class="st1"
       d="m 247.50018,751.54377 -2.8,17.7 -3.9,-2 z"
       id="path2298"
       style="clip-rule:evenodd;fill:#ffffff;fill-rule:evenodd;stroke:none"
       sodipodi:nodetypes="cccc" />
    <path
       class="st1"
       d="m 227.40018,761.54377 16.6,-20.8 -10.3,23.2"
       id="path2324"
       style="clip-rule:evenodd;fill:#ffffff;fill-rule:evenodd;stroke:none"
       sodipodi:nodetypes="ccc" />
    <path
       class="st1"
       d="m 284.6002,761.54377 -16.6,-20.8 10.3,23.2"
       id="path2343"
       style="clip-rule:evenodd;fill:#ffffff;fill-rule:evenodd;stroke:none"
       sodipodi:nodetypes="ccc" />
    <path
       class="st1"
       d="m 264.5002,751.54377 2.8,17.7 3.9,-2 z"
       id="path2356"
       style="clip-rule:evenodd;fill:#ffffff;fill-rule:evenodd;stroke:none"
       sodipodi:nodetypes="cccc" />
    <path
       d="m 269.20056,732.02628 -21.35836,15.5175 8.15817,-25.1081 8.15817,25.1081 -21.35835,-15.5175"
       id="path4"
       inkscape:connector-curvature="0"
       style="fill:#ffffff;stroke:none;stroke-width:0.0917125"
       sodipodi:nodetypes="ccccc" />
    <path
       id="path1815"
       style="clip-rule:evenodd;fill:#ffc726;fill-opacity:1;fill-rule:evenodd;stroke:none"
       d="m 188.50058,849.94324 c -3.1,0.3 -6.20117,0.4004 -9.20117,0.4004 h -1.5 l 1.30078,0.5996 c 2.8,1.2 5.59922,2.7012 8.19922,4.2012 l 0.10156,0.3985 h 0.0996 c 1.5,-0.6 2.99961,-0.7989 4.59961,-0.7989 1.5,0 1.2,1.2992 3,1.6992 2.4,0.4 5.00039,0.5 7.40039,1 l 27.19922,5.9004 0.30079,-0.3007 0.0996,-0.1 8.5996,-0.1992 -35.5,-8.0996 c -2.5,-0.6 -4.79883,-1.6012 -7.29883,-2.2012 -1.9,-0.6 -1.90039,1.0012 -3.40039,0.2012 -1.5,-0.7 -2.70039,-1.6015 -3.90039,-2.6015 v -0.1 z m 91.79883,22 -2.59961,0.2012 c -0.7,0 -1.3,0.099 -2,0.1992 -0.5,0.2 -1.09961,0.3 -1.59961,0.5 l 58.80078,12.6993 c 0.4,0.1 0.79844,-1.4997 0.39844,-1.5997 z m -97.31445,22.0215 c -0.88867,-0.029 -1.18438,0.9657 -0.48438,1.5782 l 7.29883,6.70121 c 0.2,0.2 0.40117,0.1989 0.70117,0.2989 3.9,0.3999 9.49961,1.9011 13.09961,3.7011 10.79999,5.4 24.59961,15.6996 40.09961,17.0996 l 3.20117,2.8008 h 18.29883 l 3.30078,-2.8008 c 21,-1.9 37.00039,-20.5 54.40039,-20.5 h 7.59961 v 0.3008 c 0,0.3 0.0988,0.5988 0.29883,0.7988 l 0.40039,0.3008 c 0.1,0.2 0.50117,0.1 0.70117,0 l 2.29883,-1.5 h 2.5 c 0.7,0 0.6,-2 0,-2 l -2.5,0.2989 -2.40039,-3.89861 c -0.1,-0.3 -0.39922,-0.4012 -0.69922,-0.2012 l -0.19922,0.1 c -0.3,0.1 -0.40039,0.3015 -0.40039,0.6015 v 1.1992 H 195.10019 l -0.5,-1.0996 c -0.2,-0.5 -0.5,-0.8 -1,-1 l -10.19922,-2.7011 c -0.15,-0.05 -0.28906,-0.074 -0.41601,-0.078 z m 12.51562,5.97921 h 135 v 1.0991 h -7.59961 c -20.1,0 -34.80039,16.2015 -55.90039,18.1015 l -3.09961,2.7988 h -15.5 l -3.20117,-2.7988 c -17.9,-1.6 -32.1004,-13.1 -48.90039,-18 -0.3,0 -0.3,-0.1004 -0.5,-0.4004 z"
       sodipodi:nodetypes="cscccccscccccccccccccccccccccccsccccscsccccscccccscccccscccscccccccc" />
    <path
       class="st4"
       d="m 236.39862,878.14414 0.99996,-2.4999 h 0.29999 c 0.79998,0 1.39996,0.3 1.89994,0.9999 0.49998,0.7 0.79997,1.1 1.69995,1.4 0.19999,0.1 0.19999,0 0.1,-0.2 -0.39998,-0.5 -0.69997,-1.1 -0.49998,-1.7999 0.19999,-1 0.69998,-1.5 1.49995,-2 l 0.1,-0.1 1.59994,-0.1 c 0.79998,-0.1 1.89994,0.2 1.89994,1.3 v 2.0999 c 0,1 -0.49998,1.6 -1.49995,1.9 -0.19999,0.1 -0.29999,0.1 -0.59998,0.1 -0.29999,0 -0.49998,0.1 -0.69998,0.1 l -4.09986,0.1 c -0.49999,0 -1.09997,0 -1.49995,-0.2999 -0.2,-0.1 -0.39999,-0.2 -0.59998,-0.4 z"
       id="path2510"
       style="clip-rule:evenodd;fill:none;fill-rule:nonzero;stroke:#ffffff;stroke-width:2.5;stroke-miterlimit:4;stroke-dasharray:none;stroke-opacity:1" />
    <path
       id="path2512"
       style="clip-rule:evenodd;fill:none;fill-rule:nonzero;stroke:#ffffff;stroke-width:2.5;stroke-miterlimit:4;stroke-dasharray:none;stroke-opacity:1"
       d="m 323.79498,859.54384 c -0.1,0.1 -0.0996,0.3003 -0.0996,0.4003 0,0.4 -0.0992,0.9008 -0.19921,1.3007 -0.1,0.4 -0.29999,0.7992 -0.49998,1.1992 l -1.90033,4.0996 v 0.2011 l -8.69894,0.1 v 1.5995 h 5.99981 10.79847 c 0.2,-0.3 0.2,-1.2995 0,-1.5995 h -2.79873 l -0.60154,-6.8005 c 0,-0.1 3.9e-4,-0.2985 -0.0996,-0.3985 -0.1,-0.1 -0.30038,-0.1016 -0.40038,-0.1015 h -1.29879 -0.0996 z m -60.29685,1 c 0.29999,0.9999 0.69958,2.1014 1.09957,3.1014 h 2.69913 0.10156 v 0.1 l 0.49998,1.1991 h 7.99974 2.39836 26.60069 c 0.19999,0 0.29882,0.1008 0.29882,0.3008 v 2.9999 l 1.70111,1.5 2.19915,-1.2011 2.49992,0.2011 0.19921,-0.2011 v -1.6992 l -0.19921,-0.8011 c 0,-0.2001 -0.19921,-0.2985 -0.19921,-0.3985 -0.1,0 -0.10156,0 -0.10156,-0.1015 -0.1,0 -0.0996,-0.1 -0.0996,-0.1 h -0.0996 c -0.79998,-0.4 -1.39918,-0.9004 -2.19915,-1.4002 -1.19996,-1 -1.89994,-1.2989 -3.49989,-1.2989 l -10.20083,-0.1 v 0.1 h -0.59959 l -0.90036,-1 h -15.29833 -3.70105 l -0.0996,-0.1 c -0.1,-0.1 -0.19921,-0.3 -0.19921,-0.5 -0.29999,-0.3999 -0.70115,-0.6014 -1.20113,-0.6014 z m 0.19921,2.3006 -33.19812,0.6993 -4.49986,4.4998 1.29879,3.4999 c 0.19999,0.5 0.40116,0.9007 0.70115,1.3007 0.49998,0.4999 1.09957,0.8995 1.59955,1.0995 h 0.0996 0.0996 0.10156 0.0996 0.0996 c 0.1,0 0.20078,-3e-4 0.30077,0.1 h 0.0996 0.0996 0.30077 0.19922 0.19921 0.20116 0.19922 l 10.20083,-0.9999 1.89837,-0.1993 c 1.09997,-0.1 2.5007,0.2996 2.80069,1.5995 l 2.40031,-0.4003 1.49995,-0.9999 c 0.1,-0.1 0.0992,-0.1 0.19922,-0.1 5.59981,-0.5 11.29963,-0.8992 16.99944,-1.1992 v -6.3006 l -0.40038,-1.0996 h -2.69913 -0.19921 v -0.1 z m 4.40025,2.9003 v 5.9998 l 0.59959,0.1992 c 2.09993,0.5 2.8999,0.7 4.99983,0 0.59998,-0.2 1.20035,-0.4 1.90033,-0.5 0.69998,-0.2 1.39957,-0.1992 2.09954,-0.1992 l 14.09915,-0.5 c 0.59998,0 1.30074,-0.1004 1.80072,-0.4004 0.39999,-0.2999 0.70037,-0.6991 0.90036,-1.1991 l 0.29882,-0.8008 h 9.70085 v -2.5995 H 276.4977 Z m -42.59821,2.4999 -3.59949,0.9004 1.09957,6.5994 1.19918,-0.4004 c 1.19996,-0.4 2.5007,-0.099 3.30067,0.8008 l 0.49999,0.4999 0.29882,0.3985 0.20116,0.2011 c 0.49998,0.6 0.69881,1.2996 0.29882,2.0996 l -3.49989,8.8005 c -0.39998,0.9999 0.10156,2.1991 1.10153,2.6991 l 1.59956,0.6993 c 1.09996,0.3999 2.29914,-0.1993 2.69913,-1.1993 l 6.40017,-16.0991 -5.3006,0.5 h -0.0996 -0.90036 -0.29882 -0.20116 l -0.19922,-0.1 -0.19921,-0.1015 h -0.20116 -0.0996 l -0.0996,-0.1 h -0.0996 c -0.2,-0.1 -0.29999,-0.099 -0.49999,-0.1992 v -0.1 l -0.40037,-0.2012 c -0.1,-0.1 -0.10117,-0.1 -0.20117,-0.1 l -0.0996,-0.1 -0.0996,-0.1 v -0.1015 l -0.0996,-0.1 -0.0996,-0.1 c -0.1,0 -0.10156,-0.099 -0.10156,-0.1991 l -0.0996,-0.1015 h -0.0996 c 0,-0.1 -0.0992,-0.099 -0.19921,-0.1993 0,-0.1 -0.002,-0.099 -0.10156,-0.1992 l -0.0996,-0.1015 v -0.1 -0.1 -0.1 l -0.0996,-0.1 -0.0996,-0.1015 -0.0996,-0.1993 -0.10156,-0.1 v 0.1 z m -4.30064,1 -6.59939,1.4999 c -0.79998,0.2 -1.60034,0.2992 -2.40032,0.1992 -0.79997,-0.2 -1.49956,-0.3988 -2.09954,-0.7987 l -19.39975,4.3983 c -0.59998,0.1 -1.29918,0.4003 -1.69917,0.9003 -0.29999,0.5 -0.30077,1.0996 -0.30077,1.5996 l 1.59956,10.9 c 0,0.3 0.20116,0.5012 0.20116,0.7011 0.2,0.3 0.49882,0.5988 0.79881,0.7988 0.29999,0.2 0.80114,0.2012 1.20113,0.2012 0.29999,-0.1 0.70037,-0.2008 0.90036,-0.3008 4.69985,-2.4999 9.49814,-4.899 14.39797,-7.1989 4.69984,-2.2 9.50008,-4.2015 14.39992,-6.1013 z m 37.59837,3.6991 -7.99974,0.7011 -1.19918,0.7988 v 0.1 c 0.2,1.2 0.60076,2.3999 0.80076,3.4999 0.1,0.4 0.19843,0.7015 0.39842,1.1015 0.49999,1.5999 1.00114,3.0995 1.70112,4.5994 3.29989,7.6998 8.69932,13.9995 15.5991,18.49951 l 5.19905,-8.59941 c -0.89997,-0.6 -1.79994,-1.1008 -2.49992,-1.8008 -0.99997,-0.7999 -1.89877,-1.6003 -2.79874,-2.4003 -4.39986,-4.2998 -7.49975,-9.9001 -8.9997,-15.8998 z m -17.79824,0.9003 -3.30068,0.3008 -0.29882,0.6992 c 0.99997,0 1.99994,0.2004 2.49992,0.9004 0.1,-0.7 0.49959,-1.4004 1.09958,-1.9004 z m 7.79857,0.9004 -2.19915,0.4004 v 1.4999 l 2.59953,-0.2012 -0.29882,-1.4999 z"
       sodipodi:nodetypes="cssccccccccccsccccccccccccsscccccccccccccccccccscscccccccccccsccccccccccccccccccccccccsccccccccccccccccccccccccccccccccccccccccccccccccccccccccccccccccccccsccccccccccccccccccccccccccccc" />
    <path
       class="st4"
       d="m 236.39862,878.14414 0.99996,-2.4999 h 0.29999 c 0.79998,0 1.39996,0.3 1.89994,0.9999 0.49998,0.7 0.79997,1.1 1.69995,1.4 0.19999,0.1 0.19999,0 0.1,-0.2 -0.39998,-0.5 -0.69997,-1.1 -0.49998,-1.7999 0.19999,-1 0.69998,-1.5 1.49995,-2 l 0.1,-0.1 1.59994,-0.1 c 0.79998,-0.1 1.89994,0.2 1.89994,1.3 v 2.0999 c 0,1 -0.49998,1.6 -1.49995,1.9 -0.19999,0.1 -0.29999,0.1 -0.59998,0.1 -0.29999,0 -0.49998,0.1 -0.69998,0.1 l -4.09986,0.1 c -0.49999,0 -1.09997,0 -1.49995,-0.2999 -0.2,-0.1 -0.39999,-0.2 -0.59998,-0.4 z"
       id="path2540"
       style="clip-rule:evenodd;fill:#000000;fill-rule:nonzero;stroke:none;stroke-width:0.999967;stroke-opacity:1" />
    <path
       id="path2542"
       style="clip-rule:evenodd;fill:#000000;fill-rule:nonzero;stroke:none;stroke-width:0.999967;stroke-opacity:1"
       d="m 323.79498,859.54384 c -0.1,0.1 -0.0996,0.3003 -0.0996,0.4003 0,0.4 -0.0992,0.9008 -0.19921,1.3007 -0.1,0.4 -0.29999,0.7992 -0.49998,1.1992 l -1.90033,4.0996 v 0.2011 l -8.69894,0.1 v 1.5995 h 5.99981 10.79847 c 0.2,-0.3 0.2,-1.2995 0,-1.5995 h -2.79873 l -0.60154,-6.8005 c 0,-0.1 3.9e-4,-0.2985 -0.0996,-0.3985 -0.1,-0.1 -0.30038,-0.1016 -0.40038,-0.1015 h -1.29879 -0.0996 z m -60.29685,1 c 0.29999,0.9999 0.69958,2.1014 1.09957,3.1014 h 2.69913 0.10156 v 0.1 l 0.49998,1.1991 h 7.99974 2.39836 26.60069 c 0.19999,0 0.29882,0.1008 0.29882,0.3008 v 2.9999 l 1.70111,1.5 2.19915,-1.2011 2.49992,0.2011 0.19921,-0.2011 v -1.6992 l -0.19921,-0.8011 c 0,-0.2001 -0.19921,-0.2985 -0.19921,-0.3985 -0.1,0 -0.10156,0 -0.10156,-0.1015 -0.1,0 -0.0996,-0.1 -0.0996,-0.1 h -0.0996 c -0.79998,-0.4 -1.39918,-0.9004 -2.19915,-1.4002 -1.19996,-1 -1.89994,-1.2989 -3.49989,-1.2989 l -10.20083,-0.1 v 0.1 h -0.59959 l -0.90036,-1 h -15.29833 -3.70105 l -0.0996,-0.1 c -0.1,-0.1 -0.19921,-0.3 -0.19921,-0.5 -0.29999,-0.3999 -0.70115,-0.6014 -1.20113,-0.6014 z m 0.19921,2.3006 -33.19812,0.6993 -4.49986,4.4998 1.29879,3.4999 c 0.19999,0.5 0.40116,0.9007 0.70115,1.3007 0.49998,0.4999 1.09957,0.8995 1.59955,1.0995 h 0.0996 0.0996 0.10156 0.0996 0.0996 c 0.1,0 0.20078,-3e-4 0.30077,0.1 h 0.0996 0.0996 0.30077 0.19922 0.19921 0.20116 0.19922 l 10.20083,-0.9999 1.89837,-0.1993 c 1.09997,-0.1 2.5007,0.2996 2.80069,1.5995 l 2.40031,-0.4003 1.49995,-0.9999 c 0.1,-0.1 0.0992,-0.1 0.19922,-0.1 5.59981,-0.5 11.29963,-0.8992 16.99944,-1.1992 v -6.3006 l -0.40038,-1.0996 h -2.69913 -0.19921 v -0.1 z m 4.40025,2.9003 v 5.9998 l 0.59959,0.1992 c 2.09993,0.5 2.8999,0.7 4.99983,0 0.59998,-0.2 1.20035,-0.4 1.90033,-0.5 0.69998,-0.2 1.39957,-0.1992 2.09954,-0.1992 l 14.09915,-0.5 c 0.59998,0 1.30074,-0.1004 1.80072,-0.4004 0.39999,-0.2999 0.70037,-0.6991 0.90036,-1.1991 l 0.29882,-0.8008 h 9.70085 v -2.5995 H 276.4977 Z m -42.59821,2.4999 -3.59949,0.9004 1.09957,6.5994 1.19918,-0.4004 c 1.19996,-0.4 2.5007,-0.099 3.30067,0.8008 l 0.49999,0.4999 0.29882,0.3985 0.20116,0.2011 c 0.49998,0.6 0.69881,1.2996 0.29882,2.0996 l -3.49989,8.8005 c -0.39998,0.9999 0.10156,2.1991 1.10153,2.6991 l 1.59956,0.6993 c 1.09996,0.3999 2.29914,-0.1993 2.69913,-1.1993 l 6.40017,-16.0991 -5.3006,0.5 h -0.0996 -0.90036 -0.29882 -0.20116 l -0.19922,-0.1 -0.19921,-0.1015 h -0.20116 -0.0996 l -0.0996,-0.1 h -0.0996 c -0.2,-0.1 -0.29999,-0.099 -0.49999,-0.1992 v -0.1 l -0.40037,-0.2012 c -0.1,-0.1 -0.10117,-0.1 -0.20117,-0.1 l -0.0996,-0.1 -0.0996,-0.1 v -0.1015 l -0.0996,-0.1 -0.0996,-0.1 c -0.1,0 -0.10156,-0.099 -0.10156,-0.1991 l -0.0996,-0.1015 h -0.0996 c 0,-0.1 -0.0992,-0.099 -0.19921,-0.1993 0,-0.1 -0.002,-0.099 -0.10156,-0.1992 l -0.0996,-0.1015 v -0.1 -0.1 -0.1 l -0.0996,-0.1 -0.0996,-0.1015 -0.0996,-0.1993 -0.10156,-0.1 v 0.1 z m -4.30064,1 -6.59939,1.4999 c -0.79998,0.2 -1.60034,0.2992 -2.40032,0.1992 -0.79997,-0.2 -1.49956,-0.3988 -2.09954,-0.7987 l -19.39975,4.3983 c -0.59998,0.1 -1.29918,0.4003 -1.69917,0.9003 -0.29999,0.5 -0.30077,1.0996 -0.30077,1.5996 l 1.59956,10.9 c 0,0.3 0.20116,0.5012 0.20116,0.7011 0.2,0.3 0.49882,0.5988 0.79881,0.7988 0.29999,0.2 0.80114,0.2012 1.20113,0.2012 0.29999,-0.1 0.70037,-0.2008 0.90036,-0.3008 4.69985,-2.4999 9.49814,-4.899 14.39797,-7.1989 4.69984,-2.2 9.50008,-4.2015 14.39992,-6.1013 z m 37.59837,3.6991 -7.99974,0.7011 -1.19918,0.7988 v 0.1 c 0.2,1.2 0.60076,2.3999 0.80076,3.4999 0.1,0.4 0.19843,0.7015 0.39842,1.1015 0.49999,1.5999 1.00114,3.0995 1.70112,4.5994 3.29989,7.6998 8.69932,13.9995 15.5991,18.49951 l 5.19905,-8.59941 c -0.89997,-0.6 -1.79994,-1.1008 -2.49992,-1.8008 -0.99997,-0.7999 -1.89877,-1.6003 -2.79874,-2.4003 -4.39986,-4.2998 -7.49975,-9.9001 -8.9997,-15.8998 z m -17.79824,0.9003 -3.30068,0.3008 -0.29882,0.6992 c 0.99997,0 1.99994,0.2004 2.49992,0.9004 0.1,-0.7 0.49959,-1.4004 1.09958,-1.9004 z m 7.79857,0.9004 -2.19915,0.4004 v 1.4999 l 2.59953,-0.2012 -0.29882,-1.4999 z"
       sodipodi:nodetypes="cssccccccccccsccccccccccccsscccccccccccccccccccscscccccccccccsccccccccccccccccccccccccsccccccccccccccccccccccccccccccccccccccccccccccccccccccccccccccccccccsccccccccccccccccccccccccccccc" />
    <path
       class="st3"
       d="m 297.49999,968.37415 0.2,0.8991 c 1.1,-0.1 1.2,0.1 1.7,1.898 l 2.2,8.6911 c 0.5,1.8981 0.3,2.0979 -0.7,2.4975 l 0.2,0.7991 4.7,-1.1987 -0.2,-0.7992 c -1.3,0.1998 -1.5,0 -2,-1.7982 l -0.8,-3.0968 1.1,0.1 c 0.2,-0.1 0.3,-0.1 0.5,-0.1998 1.7,-0.7992 2.8,-2.5973 2,-5.5943 -0.4,-1.4984 -1.1,-2.5973 -2,-3.0968 -0.8,-0.4995 -1.7,-0.4995 -2.9,-0.1998 z m 3.6,1.0989 c 0,-0.3996 -0.1,-0.5994 0,-0.7992 0,-0.1 0.2,-0.2997 0.5,-0.2997 0.8,-0.1998 2,0.2997 2.7,2.9969 0.7,2.997 -0.4,3.896 -0.8,3.9959 -0.3,0.1 -0.6,0 -0.9,0 z m 19.3,8.8909 c -0.3,-0.1 -0.7,-0.3996 -1.2,-0.8991 -0.4,-0.3996 -0.8,-0.999 -1.6,-2.1978 -0.7,-0.9989 -1.6,-2.4974 -1.8,-3.0968 0.9,-0.8991 1.6,-2.1977 1.2,-4.1957 -0.2,-1.4985 -0.9,-2.3975 -1.6,-2.897 -0.7,-0.4995 -1.5,-0.5994 -2.7,-0.3996 l -4.5,0.7992 0.2,0.899 c 1.1,0 1.3,0.1 1.6,1.998 l 1.5,8.791 c 0.4,1.898 0.2,2.0978 -0.9,2.3975 l 0.2,0.8991 4.7,-0.7992 -0.2,-0.8991 c -1.1,0.1 -1.3,-0.1 -1.6,-1.9979 l -0.6,-3.2966 0.3,-0.1 c 0.5,-0.1 0.8,0.1998 1.1,0.8991 0.6,1.1987 1.3,2.2976 1.9,3.1967 1,1.3985 1.6,1.898 3.5,1.6982 0.2,0 0.5,0 0.6,-0.1 z m -7.6,-5.7941 -0.9,-5.3945 c -0.1,-0.4995 -0.2,-0.6993 -0.1,-0.899 0.1,-0.1998 0.2,-0.2997 0.6,-0.3996 0.9,-0.1998 2,0.4994 2.4,2.897 0.2,1.1988 0.1,2.1977 -0.3,2.897 -0.2,0.3996 -0.6,0.6993 -1.2,0.7992 z m 12.3,-9.6901 c -3.4,0.2997 -4.7,4.4954 -4.3,8.3914 0.4,4.4954 2.6,7.6921 5.6,7.4923 2.8,-0.2996 4.6,-3.4964 4.2,-8.4912 -0.4,-4.6952 -2.7,-7.6922 -5.5,-7.3925 m -0.1,1.0989 c 1.6,-0.1 2.7,2.5973 3.2,7.0927 0.4,4.1957 -0.3,6.4934 -1.6,6.5933 -1.8,0.1998 -2.9,-3.1967 -3.3,-7.0928 -0.4,-3.6962 0.3,-6.4933 1.7,-6.5932 m 18.1,6.0938 -4.7,0.1 v 0.899 c 1.6,0.1998 1.6,0.2997 1.6,1.6983 l 0.1,2.3975 c 0,0.6993 -0.1,0.999 -0.3,1.2987 -0.2,0.1 -0.4,0.2997 -0.7,0.2997 -2.1,0 -3.3,-3.2966 -3.3,-7.0927 -0.1,-4.2956 1.4,-6.6932 3,-6.7931 1.2,0 2.1,0.8991 2.7,3.4964 l 0.7,-0.1997 c -0.2,-1.6983 -0.2,-2.8971 -0.3,-3.6963 -0.6,-0.1998 -1.6,-0.5993 -2.8,-0.5993 -3.2,0.1 -5.8,2.9969 -5.8,8.2915 0.1,4.4953 2.2,7.6921 5.7,7.5922 1.2,0 2.5,-0.4995 3.4,-0.8991 -0.1,-0.5994 -0.1,-1.3986 -0.2,-2.1978 v -2.0978 c -0.1,-1.4985 0.1,-1.4985 0.8,-1.7982 z m 11.7,7.2925 c -0.3,-0.1 -0.6,-0.4995 -0.9,-1.0989 -0.3,-0.4995 -0.6,-1.1988 -1.1,-2.4974 -0.3,-1.0989 -0.9,-2.7972 -1.1,-3.4964 1.1,-0.5994 2,-1.6983 2.2,-3.7962 0.1,-1.4984 -0.3,-2.4974 -1,-3.1967 -0.6,-0.5994 -1.3,-0.8991 -2.6,-0.999 l -4.6,-0.1997 -0.1,0.899 c 1.1,0.1998 1.2,0.3996 1.1,2.2977 l -0.5,8.9908 c -0.1,1.898 -0.3,2.0978 -1.5,2.1977 v 0.8991 l 4.7,0.1998 v -0.8991 c -1.1,-0.1998 -1.2,-0.3996 -1.1,-2.2976 l 0.2,-3.3966 h 0.2 c 0.5,0.1 0.7,0.2997 0.9,1.0989 0.3,1.2987 0.7,2.5973 1.1,3.5963 0.6,1.4985 1.1,2.1978 3.1,2.3976 0.2,0 0.5,0.1 0.6,0.1 z m -6.1,-7.2925 0.3,-5.4944 c 0,-0.4995 0,-0.6993 0.2,-0.8991 0.1,-0.1 0.3,-0.1998 0.7,-0.1998 0.8,0 1.8,0.999 1.6,3.3965 -0.1,1.1988 -0.4,2.1978 -0.9,2.6973 -0.4,0.3996 -0.8,0.4995 -1.4,0.4995 z m 15.3,4.9948 c -0.4,0.8991 -0.7,1.5984 -1.1,2.0979 -0.4,0.5994 -0.9,0.6993 -1.8,0.5994 -0.6,-0.1 -1,-0.1998 -1.3,-0.3996 -0.3,-0.2997 -0.3,-0.7992 -0.2,-1.8981 l 0.4,-4.0958 1,0.1 c 1.4,0.1 1.4,0.1998 1.5,1.998 l 0.7,0.1 0.5,-4.7951 -0.7,-0.1 c -0.3,1.6983 -0.5,1.6983 -1.8,1.5984 l -1,-0.1 0.5,-4.6952 c 0.1,-0.7992 0.2,-0.8991 0.7,-0.7992 l 0.6,0.1 c 1,0.1 1.4,0.3996 1.6,0.7992 0.2,0.3996 0.3,1.0988 0.4,1.898 h 0.7 c 0.1,-1.3985 0.1,-2.9969 0.2,-3.4964 l -7.4,-0.7992 -0.1,0.8991 c 1.1,0.2997 1.2,0.3996 1,2.2976 l -0.9,8.9908 c -0.2,1.8981 -0.4,1.998 -1.6,1.998 l -0.1,0.8991 7.9,0.7991 c 0.2,-0.5993 0.7,-2.7971 0.9,-3.6962 z m 9.7,-5.9938 c 0.1,-1.4985 0.2,-2.4975 0.2,-3.3965 -0.3,-0.1998 -1.2,-0.7992 -2.1,-0.8991 -2.3,-0.3996 -3.9,1.3986 -4.3,3.896 -0.3,2.1977 0.7,3.7961 2.1,5.1947 1,1.0988 1.5,2.0978 1.3,3.3965 -0.2,1.3985 -1,2.1977 -1.9,2.0978 -1.5,-0.1998 -1.9,-2.7971 -2,-4.1957 l -0.7,0.1998 c -0.1,1.4985 -0.2,3.1968 -0.1,3.896 0.2,0.1998 0.5,0.3996 0.9,0.6993 0.4,0.2997 0.9,0.4995 1.5,0.4995 2.4,0.3996 4.2,-1.3986 4.6,-3.9959 0.3,-2.2976 -0.6,-3.7961 -2,-5.2946 -1.2,-1.1987 -1.6,-1.9979 -1.4,-3.2966 0.2,-1.3986 1.1,-2.0978 1.8,-1.9979 1.3,0.1998 1.4,1.898 1.6,3.3965 z m 9.3,1.898 c 0.2,-1.4984 0.2,-2.4974 0.4,-3.3965 -0.3,-0.2997 -1.1,-0.8991 -2,-0.999 -2.3,-0.4994 -4,1.1988 -4.5,3.5964 -0.4,2.1977 0.5,3.7961 1.7,5.2945 1,1.1988 1.4,2.1978 1.1,3.4964 -0.3,1.3986 -1.1,2.1978 -2,1.998 -1.5,-0.2997 -1.8,-2.897 -1.8,-4.2956 l -0.7,0.1 c -0.2,1.4985 -0.3,3.1967 -0.3,3.7961 0.2,0.1998 0.4,0.3996 0.9,0.6993 0.4,0.2997 0.9,0.4995 1.5,0.5994 2.3,0.4995 4.3,-1.1988 4.8,-3.7961 0.5,-2.2977 -0.3,-3.7961 -1.7,-5.3945 -1.1,-1.1988 -1.6,-2.0979 -1.2,-3.2966 0.2,-1.3986 1.1,-2.0979 1.9,-1.8981 1.3,0.2997 1.4,1.998 1.4,3.4964 z m 8.6,-1.9979 c -3.3,-0.7992 -5.9,2.6972 -6.8,6.4933 -1.1,4.3955 -0.1,8.0917 2.8,8.8909 2.7,0.6993 5.5,-1.6982 6.8,-6.5932 1.1,-4.5953 -0.1,-8.1916 -2.8,-8.791 z m -0.5,0.999 c 1.6,0.3996 1.8,3.2966 0.7,7.792 -1,4.0958 -2.4,5.9938 -3.7,5.6941 -1.7,-0.3996 -1.8,-3.896 -0.8,-7.6921 0.9,-3.7961 2.4,-6.1936 3.8,-5.794"
       id="path82"
       style="clip-rule:evenodd;fill:#dc241f;fill-opacity:1;fill-rule:evenodd;stroke:none;stroke-width:0.999488" />
    <path
       class="st3"
       d="m 130.1,968.07445 -4.9,1.0989 0.3,0.8991 c 1.3,-0.1998 1.9,0 2.1,0.7991 0.2,0.5994 0.5,1.3986 0.9,3.2967 l 0.6,2.6972 c 0.8,3.6962 0.2,5.5943 -1.8,5.9938 -1.9,0.3996 -3.3,-0.899 -4,-4.1957 l -1.3,-5.3944 c -0.4,-1.998 -0.3,-2.1978 1,-2.5974 l -0.2,-0.899 -5.7,1.2986 0.2,0.8991 c 1.4,-0.1998 1.6,0 2.1,1.8981 l 1.3,5.5942 c 0.6,2.6973 1.4,4.1957 2.6,4.895 1.1,0.6993 2.4,0.6993 3.7,0.3996 1.3,-0.2997 2.5,-1.1988 3.1,-2.4974 0.7,-1.4985 0.5,-3.6962 0,-5.894 l -0.5,-2.3975 c -0.4,-1.8981 -0.5,-2.5974 -0.6,-3.3966 -0.1,-0.7991 0.2,-1.2986 1.2,-1.5983 z m 14.6,-2.6972 -4.8,0.7992 0.2,0.899 c 1.3,-0.1998 1.8,0.1 2,0.8991 0.2,0.6993 0.5,1.7982 0.9,3.7961 l 0.7,4.0958 h -0.1 l -8.4,-8.791 -3.6,0.5994 0.2,0.8991 c 0.8,-0.1 1.3,0.1 1.8,0.5994 0.5,0.4995 0.5,0.8991 0.8,2.3975 l 0.8,4.7951 c 0.4,1.8981 0.5,3.0968 0.5,3.896 0,0.7992 -0.3,1.2987 -1.4,1.4985 l 0.2,0.8991 4.9,-0.8991 -0.2,-0.8991 c -1.4,0.1998 -1.8,-0.1 -2.1,-0.999 -0.2,-0.6993 -0.5,-1.7981 -0.8,-3.6962 l -0.9,-4.9949 h 0.1 l 9.1,9.8899 1.1,-0.1998 -1.6,-9.2905 c -0.3,-1.9979 -0.5,-3.0968 -0.5,-3.896 -0.1,-0.8991 0.3,-1.2987 1.3,-1.4984 z m 9.9,14.0855 -0.1,-0.899 c -1.4,0 -1.6,-0.1998 -1.8,-2.0979 l -0.9,-8.8909 c -0.2,-1.898 -0.1,-2.0978 1.3,-2.3975 l -0.1,-0.8991 -5.9,0.5994 0.1,0.8991 c 1.5,0 1.6,0.1998 1.8,2.0978 l 0.9,8.8909 c 0.2,1.898 0.1,2.0978 -1.3,2.3975 l 0.1,0.8991 z m 1.1,-15.4841 0.1,0.8991 c 1.4,0.1 1.5,0.1998 1.7,2.1977 l 0.5,8.8909 c 0.1,1.998 -0.1,2.0979 -1.6,2.3976 v 0.899 l 4.7,-0.2997 c 2.4,-0.1 4.3,-0.7991 5.6,-2.1977 1.3,-1.3986 2.1,-3.4964 1.9,-6.3934 -0.1,-2.0979 -0.9,-3.7962 -1.9,-4.7951 -1.3,-1.3986 -3.2,-1.8981 -5.6,-1.7982 z m 4.4,2.1978 c -0.1,-0.6993 0,-0.999 0.1,-1.1988 0.1,-0.1998 0.4,-0.2997 1,-0.2997 1,-0.1 2.1,0.2997 2.8,1.1988 0.8,0.9989 1.4,2.5973 1.5,4.9948 0.3,4.5953 -1.4,6.893 -3.4,6.9929 -1.1,0.1 -1.4,-0.4995 -1.5,-2.0979 z m 22.4,12.7868 v -0.899 c -1.1,-0.1998 -1.4,-0.4995 -1.9,-2.4975 -1.1,-4.0958 -2.1,-8.1916 -3.3,-12.3873 l -1.1,0.1998 -4.4,12.0876 c -0.6,1.6983 -1,1.998 -2.2,2.0979 v 0.8991 l 4.4,0.1997 v -0.899 c -1.3,-0.2997 -1.4,-0.4995 -1.1,-1.7982 0.2,-0.8991 0.5,-1.5983 0.7,-2.0978 l 3.6,0.1998 c 0.2,0.6992 0.4,1.5983 0.5,2.1977 0.3,1.1988 0.2,1.3986 -0.9,1.4985 l -0.1,0.899 z m -5.5,-6.1936 -2.9,-0.1 c 0.6,-1.6983 1.1,-3.2966 1.6,-4.9949 h 0.1 z m 8.6,-8.5912 -0.1,0.8991 c 1.3,0.2997 1.5,0.4995 1.3,2.4974 l -1.1,8.791 c -0.2,1.8981 -0.4,2.0979 -1.9,1.998 v 0.899 l 4.7,0.5994 c 2.4,0.2997 4.3,0 5.9,-1.1988 1.5,-1.1987 2.8,-3.0968 3.1,-5.9938 0.3,-2.1978 -0.2,-3.896 -1,-5.0948 -1,-1.5983 -2.8,-2.3975 -5.2,-2.6972 z m 3.9,2.9969 c 0.1,-0.6993 0.2,-0.9989 0.4,-1.0988 0.1,-0.1 0.4,-0.1998 1,-0.1 1.1,0.1 2,0.5993 2.6,1.6982 0.7,1.0989 1,2.7971 0.7,5.0948 -0.6,4.4954 -2.6,6.4933 -4.7,6.1936 -1,-0.1 -1.3,-0.6992 -1.1,-2.2976 z m 18.69999,12.3873 c -0.5,0.8991 -1,1.4985 -1.5,1.8981 -0.5,0.4995 -1.1,0.4995 -2.2,0.2997 -0.79999,-0.1998 -1.29999,-0.3996 -1.59999,-0.5994 -0.3,-0.2997 -0.3,-0.7992 -0.1,-1.8981 l 0.9,-3.9959 1.19999,0.2997 c 1.6,0.3996 1.8,0.4995 1.7,2.1978 l 0.8,0.1998 1.1,-4.6952 -0.8,-0.1998 c -0.7,1.5983 -0.9,1.5983 -2.5,1.1988 l -1.1,-0.2997 1.1,-4.6952 c 0.2,-0.7992 0.3,-0.7992 1,-0.6993 l 0.8,0.1998 c 1.2,0.2997 1.7,0.5994 1.8,1.0989 0.2,0.4995 0.3,1.1987 0.3,1.898 l 0.9,0.1 c 0.2,-1.3986 0.5,-2.9969 0.6,-3.3965 l -8.99999,-2.0979 -0.2,0.8991 c 1.3,0.4995 1.5,0.5994 1,2.4975 l -2,8.791 c -0.5,1.898 -0.6,1.898 -2.2,1.7981 l -0.1,0.8991 9.59999,2.2976 c 0.3,-0.5994 1.2,-2.6972 1.5,-3.5963 z"
       id="path84"
       style="clip-rule:evenodd;fill:#dc241f;fill-opacity:1;fill-rule:evenodd;stroke:none;stroke-width:0.999488" />
    <path
       class="st3"
       d="m 235.49999,1010.4311 0.3,-0.8991 c -0.9,-0.4995 -1.1,-0.7992 -1,-2.7971 0.2,-4.2956 0.4,-8.39145 0.7,-12.68705 l -1.1,-0.1 -7.1,10.58915 c -1.1,1.4985 -1.4,1.6983 -2.5,1.4985 l -0.3,0.8991 3.8,1.1987 0.2,-0.8991 c -1.1,-0.4994 -1,-0.7991 -0.4,-1.898 0.5,-0.7992 0.9,-1.3986 1.1,-1.7982 l 3.1,0.999 c 0,0.6993 -0.1,1.5984 -0.2,2.2977 -0.1,1.1987 -0.3,1.3985 -1.2,1.1987 l -0.1,0.7992 z m -3,-7.3924 -2.4,-0.7992 c 0.9,-1.4985 1.8,-2.997 2.8,-4.39555 v 0 z m 15.5,5.1946 c -1.1,1.998 -2.2,3.0968 -3.5,2.8971 -2,-0.2997 -3.1,-3.2967 -2.6,-7.4924 0.5,-3.5963 2.3,-6.39345 4.3,-6.19365 1.3,0.1998 2.2,1.0989 2.4,3.69625 l 0.8,-0.1 c 0,-1.3986 0.1,-2.49745 0.2,-3.69625 -0.5,-0.1998 -1.6,-0.6993 -2.8,-0.8991 -4,-0.5994 -7,2.3976 -7.7,7.19265 -0.5,3.6962 0.6,7.8919 5,8.4913 1.2,0.1998 2.6,-0.1 3.2,-0.1 0.4,-0.7991 1,-2.3975 1.4,-3.3965 z m 12.6,0.3996 c -0.9,2.1978 -1.8,3.3965 -3.1,3.3965 -2,0 -3.5,-2.6972 -3.5,-6.9928 0,-3.5963 1.3,-6.49335 3.3,-6.49335 1.3,0 2.2,0.69925 2.9,3.29665 l 0.8,-0.1998 c -0.2,-1.3986 -0.3,-2.2977 -0.4,-3.69625 -0.5,-0.1998 -1.6,-0.5994 -2.9,-0.5994 -4,0 -6.6,3.39655 -6.6,8.19165 0,3.5963 1.7,7.5922 5.9,7.6921 l -0.6,0.8991 c -0.4,0.4995 -0.3,0.8991 0.2,1.4984 0.1,0.1998 0.3,0.4995 0.3,0.7992 0,0.3996 -0.3,0.7992 -1,1.2987 l 0.4,0.6993 c 1.4,-0.5994 2.1,-1.4985 2.1,-2.3976 0,-0.4995 -0.2,-0.9989 -0.6,-1.5983 -0.3,-0.4995 -0.4,-0.6993 -0.2,-0.8991 l 0.3,-0.3996 c 1,-0.1 2.1,-0.3996 2.5,-0.4995 0.2,-0.8991 0.7,-2.4974 0.9,-3.5963 z m 14.7,1.8981 -0.2,-0.8991 c -1.1,0 -1.3,-0.1998 -2.2,-1.998 -1.9,-3.7961 -3.6,-7.5922 -5.4,-11.48825 l -1,0.3996 -1.3,12.68705 c -0.2,1.8981 -0.4,2.0978 -1.5,2.4974 l 0.2,0.8991 3.9,-0.6993 -0.2,-0.899 c -1.2,0 -1.3,-0.1998 -1.2,-1.4985 0,-0.8991 0,-1.5984 0.1,-2.0979 l 3.2,-0.5993 c 0.3,0.5993 0.6,1.4984 0.9,2.0978 0.5,1.0989 0.5,1.2987 -0.5,1.6983 l 0.2,0.899 z m -6.1,-4.9949 -2.6,0.3996 c 0.2,-1.6983 0.3,-3.4964 0.4,-5.1947 v 0 z m -3.8,-12.48725 c -0.5,0.1 -1.1,0.6993 -1.3,2.5973 l 0.8,0.3996 c 0.2,-0.7992 0.4,-1.1987 0.7,-1.2986 0.4,-0.1 0.6,0 1,0.1998 0.5,0.1997 0.9,0.3995 1.4,0.2996 0.6,-0.1 1.1,-0.6992 1.3,-2.5973 l -0.7,-0.2997 c -0.1,0.5994 -0.3,1.0989 -0.7,1.1988 -0.4,0 -0.7,-0.1 -1.1,-0.2997 -0.7,-0.1998 -1,-0.2997 -1.4,-0.1998 z m 13,0.1998 c -3.6,1.1988 -4.1,5.6942 -2.9,9.39045 1.4,4.2956 4.5,6.793 7.7,5.794 3,-0.999 4.4,-4.5953 2.8,-9.3903 -1.5,-4.49545 -4.6,-6.79315 -7.6,-5.79415 m 0.1,1.0989 c 1.7,-0.5994 3.5,1.7981 5,6.09375 1.3,3.9959 1,6.3935 -0.4,6.793 -1.8,0.5994 -3.9,-2.2976 -5.1,-5.9938 -1.1,-3.49645 -1,-6.39345 0.5,-6.89295 z"
       id="path86"
       style="clip-rule:evenodd;fill:#dc241f;fill-opacity:1;fill-rule:evenodd;stroke:none;stroke-width:0.999488" />
    <path
       class="st3"
       d="M 231.79999,965.97665 C 193,951.89105 157.6,951.39155 116,962.67995 c -3.6,0.999 -7.1,1.998 -10.6,3.0969 0.9,11.688 6,23.2761 17.1,28.4708 9.6,4.4954 21,3.9959 30.6,9.78995 v -15.38425 c 2.1,-0.2997 4.1,-0.3996 6.2,-0.5994 19.2,-1.4984 37.4,0.7992 56.59999,7.0927 v 16.78285 c 12,6.0938 25.7,9.5902 40.1,9.5902 14.5,0 28.1,-3.4964 40.2,-9.5902 v -16.78285 c 19.5,-6.3934 37.9,-8.691 57.4,-6.9928 1.7,0.1 3.5,0.2997 5.3,0.4995 v 15.38425 c 9.6,-5.79405 21.1,-5.19465 30.6,-9.78995 11,-5.1947 16.2,-16.7828 17.1,-28.4708 -3.5,-1.0989 -7.1,-2.0979 -10.7,-3.0969 -41.6,-11.3883 -77.1,-10.7889 -115.8,3.2967 v 18.0814 c -7.7,2.9969 -15.9,4.5953 -24.1,4.5953 -8.2,0 -16.4,-1.4985 -24.1,-4.5953 z M 149.9,998.94285 c -2.6,-1.0989 -5.3,-1.8981 -8,-2.5974 -4.5,-1.0989 -9,-1.7981 -13.4,-3.1967 7.3,-1.8981 14.4,-3.2966 21.4,-4.2956 z m 211.99999,-9.9898 c 7,0.999 14.2,2.3975 21.5,4.2956 -4.4,1.2987 -8.9,2.0978 -13.4,3.1967 -2.8,0.6993 -5.5,1.4985 -8.1,2.59745 z m -106,29.27005 c -12.8,0 -25.5,-2.7972 -37,-8.3914 v -28.97035 c 2.7,1.7982 5.6,3.2966 8.5,4.5953 2.1,0.999 4.2,1.7981 6.3,2.4974 7.1,2.3976 14.6,3.5963 22.2,3.5963 7.5,0 15,-1.1987 22.2,-3.5963 2.2,-0.6993 4.3,-1.5983 6.4,-2.4974 2.9,-1.2987 5.7,-2.7971 8.5,-4.5953 v 28.97035 c -11.6,5.4944 -24.2,8.3914 -37.1,8.3914 m 46.3,-28.37095 c 15.8,-4.3955 31.5,-6.1937 47.9,-5.2946 4.2,0.2997 8.3,0.6993 12.4,1.2987 8.3,1.1987 16.8,2.9969 25.7,5.3944 9,-4.3955 13.6,-13.6859 14.8,-23.2761 -2.7,-0.7992 -5.4,-1.5984 -8.1,-2.2976 -39.1,-10.6891 -73.8,-10.9888 -111.9,2.3975 v 14.5851 c 4.5,-2.0979 8.8,-4.6952 12.9,-7.7921 v 16.8827 c 2.2,-0.6993 4.3,-1.2986 6.3,-1.898 m -92.7,0 C 193.7,985.45665 178,983.65845 161.5,984.55755 c -4.2,0.2997 -8.3,0.6993 -12.5,1.2987 -8.2,1.1987 -16.7,2.9969 -25.6,5.3944 -9,-4.3955 -13.6,-13.6859 -14.8,-23.2761 2.7,-0.7992 5.3,-1.5984 8.1,-2.2976 39.2,-10.6891 73.8,-10.9888 111.89999,2.3975 v 14.5851 c -4.5,-2.0979 -8.8,-4.6952 -12.9,-7.7921 v 16.8827 c -2,-0.6993 -4,-1.2986 -6.2,-1.898"
       id="path110"
       style="clip-rule:evenodd;fill:#dc241f;fill-opacity:1;fill-rule:evenodd;stroke:none;stroke-width:0.999488" />
  </g>
</svg>
