<?xml version="1.0" encoding="UTF-8" standalone="no"?>
<!-- Created with Inkscape (http://www.inkscape.org/) -->
<svg
   xmlns:dc="http://purl.org/dc/elements/1.1/"
   xmlns:cc="http://web.resource.org/cc/"
   xmlns:rdf="http://www.w3.org/1999/02/22-rdf-syntax-ns#"
   xmlns:svg="http://www.w3.org/2000/svg"
   xmlns="http://www.w3.org/2000/svg"
   xmlns:xlink="http://www.w3.org/1999/xlink"
   xmlns:sodipodi="http://sodipodi.sourceforge.net/DTD/sodipodi-0.dtd"
   xmlns:inkscape="http://www.inkscape.org/namespaces/inkscape"
   id="svg2"
   sodipodi:version="0.32"
   inkscape:version="0.45.1"
   width="622"
   height="600"
   version="1.0"
   sodipodi:docbase="F:\WIKI"
   sodipodi:docname="622px-Armoiries_de_la_République_démocratique_du_Congo_-_2006.png.svg"
   inkscape:output_extension="org.inkscape.output.svg.inkscape">
  <metadata
     id="metadata7">
    <rdf:RDF>
      <cc:Work
         rdf:about="">
        <dc:format>image/svg+xml</dc:format>
        <dc:type
           rdf:resource="http://purl.org/dc/dcmitype/StillImage" />
      </cc:Work>
    </rdf:RDF>
  </metadata>
  <defs
     id="defs5">
    <linearGradient
       inkscape:collect="always"
       id="linearGradient39619">
      <stop
         style="stop-color:#bfbfb5;stop-opacity:1;"
         offset="0"
         id="stop39621" />
      <stop
         style="stop-color:#bfbfb5;stop-opacity:0;"
         offset="1"
         id="stop39623" />
    </linearGradient>
    <linearGradient
       inkscape:collect="always"
       id="linearGradient29742">
      <stop
         style="stop-color:#ffffff;stop-opacity:1;"
         offset="0"
         id="stop29744" />
      <stop
         style="stop-color:#ffffff;stop-opacity:0;"
         offset="1"
         id="stop29746" />
    </linearGradient>
    <radialGradient
       inkscape:collect="always"
       xlink:href="#linearGradient29742"
       id="radialGradient29748"
       cx="311.34664"
       cy="282.70821"
       fx="311.34664"
       fy="282.70821"
       r="22.462642"
       gradientTransform="matrix(1,0,0,0.9945753,0,1.5335993)"
       gradientUnits="userSpaceOnUse" />
    <radialGradient
       inkscape:collect="always"
       xlink:href="#linearGradient39619"
       id="radialGradient39625"
       cx="87.533157"
       cy="-191.08267"
       fx="87.533157"
       fy="-191.08267"
       r="124.12418"
       gradientTransform="matrix(1,0,0,1.0358169,114.62472,330.84606)"
       gradientUnits="userSpaceOnUse" />
    <radialGradient
       inkscape:collect="always"
       xlink:href="#linearGradient39619"
       id="radialGradient39627"
       cx="-79.575607"
       cy="-92.298859"
       fx="-79.575607"
       fy="-92.298859"
       r="124.12418"
       gradientTransform="matrix(1,0,0,1.0358169,496.58759,225.3411)"
       gradientUnits="userSpaceOnUse" />
    <radialGradient
       inkscape:collect="always"
       xlink:href="#linearGradient39619"
       id="radialGradient40696"
       gradientUnits="userSpaceOnUse"
       gradientTransform="matrix(1,0,0,1.0358169,496.58759,225.3411)"
       cx="-79.575607"
       cy="-92.298859"
       fx="-79.575607"
       fy="-92.298859"
       r="124.12418" />
    <radialGradient
       inkscape:collect="always"
       xlink:href="#linearGradient39619"
       id="radialGradient40698"
       gradientUnits="userSpaceOnUse"
       gradientTransform="matrix(1,0,0,1.0358169,114.62472,330.84606)"
       cx="87.533157"
       cy="-191.08267"
       fx="87.533157"
       fy="-191.08267"
       r="124.12418" />
    <radialGradient
       inkscape:collect="always"
       xlink:href="#linearGradient29742"
       id="radialGradient40700"
       gradientUnits="userSpaceOnUse"
       gradientTransform="matrix(1,0,0,0.9945753,0,1.5335993)"
       cx="311.34664"
       cy="282.70821"
       fx="311.34664"
       fy="282.70821"
       r="22.462642" />
  </defs>
  <sodipodi:namedview
     inkscape:window-height="742"
     inkscape:window-width="1024"
     inkscape:pageshadow="2"
     inkscape:pageopacity="0.0"
     guidetolerance="10.0"
     gridtolerance="10.0"
     objecttolerance="10.0"
     borderopacity="1.0"
     bordercolor="#666666"
     pagecolor="#ffffff"
     id="base"
     inkscape:zoom="0.44429876"
     inkscape:cx="488.7231"
     inkscape:cy="547.54669"
     inkscape:window-x="-4"
     inkscape:window-y="-4"
     inkscape:current-layer="svg2" />
  <text
     xml:space="preserve"
     style="font-size:14px;font-style:normal;font-weight:normal;fill:#000000;fill-opacity:1;stroke:none;stroke-width:1px;stroke-linecap:butt;stroke-linejoin:miter;stroke-opacity:1;font-family:Arial Black"
     x="-112.99735"
     y="424.13794"
     id="text24747"><tspan
       sodipodi:role="line"
       id="tspan24749"
       x="-112.99735"
       y="424.13794"></tspan></text>
  <g
     id="g42646">
    <path
       sodipodi:nodetypes="cccccc"
       id="path23740"
       d="M 356.74194,434.57077 L 461.40124,162.2315 C 411.95104,86.456185 503.10314,29.559687 530.04874,1.3037543 C 530.94568,67.043665 558.05432,137.29601 478.28178,170.10909 L 380.37468,440.19762 L 356.74194,434.57077 z "
       style="fill:#393939;fill-rule:evenodd;stroke:#000000;stroke-width:1.5;stroke-linecap:butt;stroke-linejoin:miter;stroke-opacity:1;stroke-miterlimit:4;stroke-dasharray:none;fill-opacity:1" />
    <path
       sodipodi:nodetypes="cccccccccccssccccccccc"
       id="path19856"
       d="M 117.77188,499.33687 C 152.98408,495.82229 186.55267,497.23855 220.82228,496.55172 C 248.80637,495.53708 276.79045,500.63538 304.77454,502.91777 C 330.23873,504.69372 355.70292,501.61579 381.16711,500.92838 L 448.01061,504.50928 L 493.76658,506.49867 C 500.75004,506.93509 500.38774,510.5197 500.13263,514.05836 C 498.21238,533.05266 488.51452,545.82488 481.83024,561.00796 C 473.65116,571.88045 465.07227,580.35405 456.36605,588.06366 C 450.81914,593.67137 442.54947,594.92266 431.69761,592.04244 C 426.63542,589.01899 383.1565,592.04244 358.88594,592.04244 C 358.88594,592.04244 349.73475,589.95358 343.3687,590.05305 C 337.00265,590.15252 339.09151,592.24138 333.42175,592.44032 C 327.75199,592.63926 325.76261,590.5504 320.68966,590.84881 C 317.20823,591.34616 317.6061,593.53448 313.12997,593.63395 C 300.22183,593.85514 271.76183,589.42143 268.56764,591.24668 C 245.67489,603.68796 213.43514,596.71624 184.21751,596.02122 L 153.5809,596.02122 C 142.57779,595.94902 138.17407,587.86329 134.48276,578.91247 C 131.23823,569.54793 126.33466,565.16049 122.14854,558.62069 C 111.32459,539.40705 114.37476,524.81811 113.99204,509.08488 C 111.26181,500.37463 114.77853,500.73199 117.77188,499.33687 z "
       style="fill:#d5b5af;fill-rule:evenodd;stroke:#000000;stroke-width:1.5;stroke-linecap:butt;stroke-linejoin:miter;stroke-opacity:1;stroke-miterlimit:4;stroke-dasharray:none;fill-opacity:1" />
    <path
       sodipodi:nodetypes="cccccc"
       id="path20827"
       d="M 114.22494,500.96754 C 124.76821,485.8011 159.13804,473.0722 181.32506,458.34419 L 441.42594,470.16056 C 460.6472,480.22329 478.22777,492.33688 496.00634,504.20297 C 501.67106,509.3296 498.91797,509.09944 496.56902,509.12646 C 369.12099,510.97042 241.67297,513.54691 114.22494,500.96754 z "
       style="fill:#d5b5af;fill-rule:evenodd;stroke:#000000;stroke-width:1.5;stroke-linecap:butt;stroke-linejoin:miter;stroke-opacity:1;stroke-miterlimit:4;stroke-dasharray:none;fill-opacity:1" />
    <path
       sodipodi:nodetypes="cccc"
       id="path21798"
       d="M 288.65712,435.69614 C 75.370505,211.4156 167.64025,85.167376 203.12908,21.560394 C 33.568231,167.02357 113.1338,331.10038 200.87835,452.57668 L 288.65712,435.69614 z "
       style="fill:#ffffff;fill-rule:evenodd;stroke:#000000;stroke-width:1.5;stroke-linecap:butt;stroke-linejoin:miter;stroke-opacity:1;stroke-miterlimit:4;stroke-dasharray:none;fill-opacity:1" />
    <path
       sodipodi:nodetypes="cc"
       id="path22769"
       d="M 200.31566,23.811132 C 107.15426,119.9594 109.63618,282.20034 228.44988,433.44541"
       style="fill:none;fill-rule:evenodd;stroke:#000000;stroke-width:1.5;stroke-linecap:butt;stroke-linejoin:miter;stroke-opacity:1;stroke-miterlimit:4;stroke-dasharray:none" />
    <g
       id="g25844">
      <path
         style="fill:#cf223f;fill-rule:evenodd;stroke:#000000;stroke-width:1.5;stroke-linecap:butt;stroke-linejoin:miter;stroke-opacity:1;stroke-miterlimit:4;stroke-dasharray:none;fill-opacity:1"
         d="M 193.3687,436.47215 C 203.97916,419.02232 201.0361,398.88453 189.38992,387.53316 C 151.25787,353.2429 97.014055,304.36542 77.984085,250.66313 C 67.327921,217.11775 54.940543,186.04553 51.32626,142.44032 C 46.287164,108.35302 -5.4761449,122.21691 1.193634,162.7321 L 15.915119,225.19894 C 47.543771,376.03866 136.58589,399.06167 188.59416,454.37666 L 193.3687,436.47215 z "
         id="path18883"
         sodipodi:nodetypes="cccccccc" />
      <g
         id="g24841"
         style="fill:#ecd718;fill-opacity:1">
        <path
           sodipodi:nodetypes="cccccsssssssssssccsscccc"
           id="text24739"
           d="M 169.92917,-48.422888 L 181.69361,-48.885649 L 181.63924,-46.886113 C 180.31447,-46.360925 180.03519,-45.428766 179.97176,-42.936687 L 179.97176,-27.102958 C 179.97174,-24.002973 179.66174,-21.74953 179.04177,-20.342623 C 178.42175,-18.935708 177.32086,-17.759307 175.7391,-16.813419 C 174.1573,-15.867528 172.2536,-15.394584 170.02799,-15.394583 C 167.30954,-15.394584 165.11174,-16.109962 163.43457,-17.540721 C 161.7574,-18.971477 161.00376,-22.341898 161.00376,-24.07471 C 161.00376,-25.187516 161.34555,-26.089687 162.02914,-26.781229 C 162.71272,-27.472753 163.54733,-27.818519 164.53297,-27.818529 C 165.5027,-27.818519 166.31744,-27.508522 166.97718,-26.888536 C 167.63691,-26.268532 167.96678,-25.505462 167.96679,-24.599322 C 167.96678,-24.154191 167.91114,-23.764707 167.79987,-23.430869 C 167.73627,-23.271891 167.62768,-22.617453 167.04872,-22.226647 C 165.72239,-21.331349 166.06446,-19.48839 166.30801,-19.066863 C 167.00178,-17.453135 167.95618,-17.355828 169.28876,-17.326107 C 169.97234,-17.326106 170.53669,-17.500976 170.98183,-17.850719 C 171.42694,-18.200458 171.74091,-18.74494 171.92374,-19.484168 C 172.10655,-20.223389 172.19796,-22.278116 172.19797,-25.648353 L 172.19797,-42.936687 C 172.36832,-45.85275 171.64698,-46.189056 169.92609,-46.578147 L 169.92917,-48.422888 z "
           style="font-size:48.83656311px;font-style:normal;font-weight:normal;fill:#ecd718;fill-opacity:1;stroke:none;stroke-width:1px;stroke-linecap:butt;stroke-linejoin:miter;stroke-opacity:1;font-family:Times New Roman"
           transform="matrix(4.0992862e-2,1.1559138,-0.8631696,5.4895605e-2,0,0)" />
        <path
           id="text24743"
           d="M 220.55645,6.4836537 L 232.64508,6.4836537 L 232.73484,7.2915917 C 231.6071,7.2916199 231.1428,7.3937148 230.7217,7.6292246 C 230.30057,7.8647902 230.0008,8.1895467 229.82237,8.6034952 C 229.64392,9.0174974 229.5547,10.052436 229.55471,11.708313 L 229.55471,25.92624 C 229.5547,28.524302 229.66365,28.430332 230.05623,29.272553 C 230.44878,30.114784 231.09472,30.814259 231.99406,31.370982 C 232.89338,31.92771 234.02824,32.206073 235.39866,32.206071 C 236.96889,32.206073 238.30717,31.852766 239.41351,31.146151 C 240.00263,30.76987 240.51281,30.317688 240.94407,29.789605 C 242.44747,28.705536 241.91618,15.879657 242.40224,8.9246833 C 242.13099,8.3679844 241.78839,7.982559 241.37444,7.7684061 C 240.73204,7.4401086 239.82557,7.2759459 238.65504,7.2759177 L 238.65504,6.4836537 L 247.66977,6.4836537 L 247.52646,7.3124211 C 245.52147,7.6338067 244.79836,9.3527729 244.60773,11.708313 L 244.60773,22.735772 C 244.6077,26.147512 244.38287,28.609952 243.93323,30.123098 C 243.48355,31.636255 242.38794,33.028069 240.64641,34.298543 C 238.90484,35.569021 236.52805,36.204259 233.51603,36.20426 C 231.00362,36.204259 229.06221,35.868796 227.69182,35.19787 C 225.82179,34.28427 224.50135,33.113719 223.7305,31.686214 C 222.95965,30.258716 222.57422,28.338727 222.57423,25.92624 L 222.57423,11.708313 C 222.71219,9.0349006 222.19027,7.8497957 220.31892,7.4423074 L 220.55645,6.4836537 z "
           style="font-size:43.85288239px;font-style:normal;font-weight:normal;fill:#ecd718;fill-opacity:1;stroke:none;stroke-width:1px;stroke-linecap:butt;stroke-linejoin:miter;stroke-opacity:1;font-family:Times New Roman"
           transform="matrix(0.272966,0.9764735,-0.9452687,0.281977,0,0)" />
        <path
           id="text24757"
           d="M 248.10879,58.261332 L 248.36182,68.658518 L 247.41871,68.658518 C 246.97398,66.051578 245.88135,63.954508 244.14084,62.3673 C 242.40029,60.780149 240.51791,59.986559 238.4937,59.986529 C 236.92951,59.986559 235.6912,60.40444 234.77877,61.240172 C 233.86633,62.075962 233.41011,63.038237 233.41012,64.127001 C 233.41011,64.817105 233.57113,65.430508 233.89317,65.967211 C 234.33788,66.687983 235.05096,67.401064 236.03242,68.106455 C 236.75315,68.612534 238.41701,69.509635 241.02399,70.797762 C 244.67372,72.591984 247.13499,74.286509 248.40783,75.881341 C 249.66528,77.476202 250.29402,79.301075 250.29404,81.355965 C 250.29402,83.962935 249.27807,86.205689 247.2462,88.084232 C 245.21428,89.96278 242.63415,90.902053 239.50581,90.902054 C 238.52435,90.902053 237.59658,90.802375 236.7225,90.60302 C 235.84839,90.403663 234.75193,90.027954 233.43312,89.475891 C 232.69703,89.169191 232.09129,89.01584 231.61591,89.015839 C 231.2172,89.01584 230.79548,89.169191 230.35077,89.475891 C 229.90605,89.782593 229.54567,90.250313 229.26965,90.879051 L 228.41855,90.879051 L 228.41855,79.101708 L 229.26965,79.101708 C 229.94439,82.414094 231.24403,84.940546 233.16859,86.681073 C 235.09313,88.421606 237.1672,89.291871 239.3908,89.29187 C 241.10831,89.291871 242.47697,88.824152 243.49677,87.88871 C 244.51653,86.953273 245.02642,85.864484 245.02644,84.622338 C 245.02642,83.88626 244.8309,83.17318 244.43988,82.483094 C 244.04881,81.793024 243.45458,81.137449 242.65717,80.51637 C 241.85973,79.895309 240.44891,79.086384 238.42469,78.089593 C 235.58769,76.694114 233.54813,75.505646 232.30599,74.524186 C 231.06384,73.542758 230.10924,72.446301 229.44217,71.234811 C 228.77509,70.02336 228.44155,68.689209 228.44155,67.232355 C 228.44155,64.748097 229.35399,62.631858 231.17886,60.883631 C 233.00373,59.135463 235.30399,58.261364 238.07965,58.261332 C 239.09175,58.261364 240.0732,58.384045 241.02399,58.629374 C 241.74472,58.813427 242.62265,59.154632 243.65779,59.652991 C 244.69289,60.151411 245.41747,60.400606 245.83153,60.400576 C 246.23023,60.400606 246.54459,60.277925 246.77464,60.032534 C 247.00465,59.787203 247.21934,59.196803 247.41871,58.261332 L 248.10879,58.261332 z "
           style="font-size:47.10937119px;font-style:normal;font-weight:normal;fill:#ecd718;fill-opacity:1;stroke:none;stroke-width:1px;stroke-linecap:butt;stroke-linejoin:miter;stroke-opacity:1;font-family:Times New Roman"
           transform="matrix(0.4873042,0.993014,-0.79569,0.4306729,0,0)" />
        <path
           id="text24761"
           d="M 297.48349,92.444255 L 297.48349,100.01545 L 296.74081,100.01545 C 296.30068,98.268801 295.81244,97.013813 295.27608,96.250482 C 294.73968,95.487198 294.00388,94.878615 293.06868,94.424731 C 292.54603,94.177198 291.63144,94.053418 290.3249,94.053392 L 288.24127,94.053392 L 288.24127,115.63232 C 288.24125,117.06267 288.32033,117.95663 288.47852,118.31422 C 288.63666,118.6718 288.94611,118.98469 289.40686,119.25288 C 289.86758,119.52107 290.49679,119.65516 291.2945,119.65516 L 292.22285,119.65516 L 292.22285,120.41847 L 277.57558,120.41847 L 277.57558,119.65516 L 278.50393,119.65516 C 279.31537,119.65516 279.96865,119.51076 280.46378,119.22193 C 280.82135,119.02939 281.1033,118.69931 281.30961,118.2317 C 281.46088,117.90162 281.53653,117.03516 281.53654,115.63232 L 281.53654,94.053392 L 279.5148,94.053392 C 277.63059,94.053418 276.26214,94.452263 275.40944,95.249929 C 274.2129,96.36397 273.45647,97.952475 273.14014,100.01545 L 272.35621,100.01545 L 272.35621,92.444255 L 297.48349,92.444255 z "
           style="font-size:42.25014496px;font-style:normal;font-weight:normal;fill:#ecd718;fill-opacity:1;stroke:none;stroke-width:1px;stroke-linecap:butt;stroke-linejoin:miter;stroke-opacity:1;font-family:Times New Roman"
           transform="matrix(0.5607876,0.8381647,-0.8015497,0.5851936,0,0)" />
        <path
           id="text24765"
           d="M 273.63754,196.51518 L 273.63754,197.39789 L 256.72301,197.39789 L 256.72301,196.51518 L 257.79657,196.51518 C 258.73493,196.51518 259.4904,196.34819 260.06297,196.01419 C 260.47649,195.79153 260.79458,195.40982 261.01725,194.86906 C 261.19219,194.48735 261.27967,193.48536 261.27967,191.86309 L 261.27967,170.58274 C 261.27967,168.92869 261.19219,167.89489 261.01725,167.48134 C 260.84229,167.06785 260.48841,166.70603 259.95561,166.39586 C 259.42281,166.08575 258.70312,165.93068 257.79657,165.93065 L 256.72301,165.93065 L 256.72301,165.04794 L 273.63754,165.04794 L 273.63754,165.93065 L 272.56398,165.93065 C 271.6256,165.93068 270.87013,166.09768 270.29758,166.43164 C 269.88404,166.65434 269.558,167.03605 269.31945,167.57677 C 269.14448,167.95851 269.05701,168.9605 269.05702,170.58274 L 269.05702,191.86309 C 269.05701,193.51717 269.14846,194.55097 269.33137,194.96449 C 269.51426,195.37801 269.87212,195.73984 270.40493,196.04997 C 270.93772,196.36011 271.6574,196.51518 272.56398,196.51518 L 273.63754,196.51518 z "
           style="font-size:48.85891724px;font-style:normal;font-weight:normal;fill:#ecd718;fill-opacity:1;stroke:none;stroke-width:1px;stroke-linecap:butt;stroke-linejoin:miter;stroke-opacity:1;font-family:Times New Roman"
           transform="matrix(0.8004358,0.8593005,-0.6520876,0.5492768,0,0)" />
        <path
           id="text24769"
           d="M 305.68043,211.40561 L 305.68043,221.62902 L 304.8321,221.62902 C 304.19402,218.9608 303.00491,216.91612 301.26478,215.49497 C 299.5246,214.07387 297.55243,213.36331 295.34826,213.36328 C 293.50657,213.36331 291.81717,213.89261 290.28005,214.95117 C 288.7429,216.00979 287.61905,217.39467 286.9085,219.10579 C 285.99491,221.29551 285.53812,223.73172 285.53813,226.41445 C 285.53812,229.05369 285.87165,231.45728 286.53872,233.62521 C 287.20577,235.79316 288.24986,237.43181 289.671,238.54115 C 291.09211,239.6505 292.93377,240.20518 295.19599,240.20517 C 297.05214,240.20518 298.75241,239.79914 300.29682,238.98707 C 301.84118,238.175 303.46895,236.77562 305.18013,234.78894 L 305.18013,237.33392 C 303.52696,239.05957 301.80493,240.31031 300.01405,241.08613 C 298.22311,241.86195 296.1313,242.24986 293.73861,242.24986 C 290.59182,242.24986 287.7967,241.61905 285.35324,240.35744 C 282.90976,239.09583 281.0246,237.28317 279.69774,234.91945 C 278.37086,232.55575 277.70743,230.03978 277.70743,227.37153 C 277.70743,224.5583 278.44337,221.89006 279.91525,219.36682 C 281.38713,216.84362 283.37381,214.88594 285.87529,213.49379 C 288.37675,212.1017 291.03411,211.40564 293.84737,211.40561 C 295.92104,211.40564 298.11073,211.85518 300.41646,212.75423 C 301.75055,213.2763 302.59887,213.53733 302.96143,213.5373 C 303.42545,213.53733 303.82786,213.36694 304.16867,213.02613 C 304.50942,212.68538 304.73056,212.1452 304.8321,211.40561 L 305.68043,211.40561 z "
           style="font-size:44.54796982px;font-style:normal;font-weight:normal;fill:#ecd718;fill-opacity:1;stroke:none;stroke-width:1px;stroke-linecap:butt;stroke-linejoin:miter;stroke-opacity:1;font-family:Times New Roman"
           transform="matrix(0.8294522,0.5571638,-0.5558642,0.8322271,0,0)" />
        <path
           id="text24773"
           d="M 325.67519,193.53446 L 325.67519,206.17235 L 326.29334,206.17235 C 328.26227,206.17236 329.68938,205.55421 330.57466,204.31788 C 331.4599,203.08158 332.02464,201.25764 332.26887,198.84604 L 333.13887,198.84604 L 333.13887,215.10129 L 332.26887,215.10129 C 332.08569,213.33077 331.70029,211.88078 331.11268,210.75129 C 330.52503,209.62183 329.84201,208.86249 329.0636,208.47327 C 328.28517,208.08407 327.1557,207.88947 325.67519,207.88945 L 325.67519,216.63524 C 325.67517,218.34471 325.74767,219.39024 325.89269,219.77181 C 326.03767,220.15339 326.30859,220.46629 326.70545,220.7105 C 327.10228,220.95471 327.74333,221.07681 328.62861,221.07681 L 330.48308,221.07681 C 333.38305,221.07681 335.70687,220.40523 337.45452,219.06208 C 339.20212,217.71892 340.45752,215.67366 341.2207,212.92629 L 342.06781,212.92629 L 340.67123,222.79391 L 313.83862,222.79391 L 313.83862,221.94681 L 314.86888,221.94681 C 315.7694,221.94681 316.4944,221.78655 317.04388,221.46602 C 317.44071,221.25234 317.74598,220.88602 317.95967,220.36707 C 318.12756,220.00076 318.2115,219.03918 318.21151,217.48234 L 318.21151,197.06025 C 318.2115,195.65607 318.17334,194.7937 318.09703,194.47315 C 317.9444,193.93897 317.66203,193.52686 317.24993,193.23683 C 316.66993,192.80949 315.87624,192.59581 314.86888,192.59578 L 313.83862,192.59578 L 313.83862,191.74867 L 339.82412,191.74867 L 339.82412,200.92946 L 338.95412,200.92946 C 338.51147,198.6858 337.88949,197.07554 337.0882,196.09867 C 336.28687,195.12186 335.15358,194.40449 333.68834,193.94657 C 332.83358,193.67186 331.23095,193.53449 328.88045,193.53446 L 325.67519,193.53446 z "
           style="font-size:46.88838577px;font-style:normal;font-weight:normal;fill:#ecd718;fill-opacity:1;stroke:none;stroke-width:1px;stroke-linecap:butt;stroke-linejoin:miter;stroke-opacity:1;font-family:Times New Roman"
           transform="matrix(0.8226508,0.7122928,-0.6015401,0.6947387,0,0)" />
      </g>
    </g>
    <g
       id="g25833">
      <path
         style="fill:#cf223f;fill-rule:evenodd;stroke:#000000;stroke-width:1.5;stroke-linecap:butt;stroke-linejoin:miter;stroke-miterlimit:4;stroke-dasharray:none;stroke-opacity:1;fill-opacity:1"
         d="M 427.94037,438.22002 C 417.32991,420.77019 420.27297,400.6324 431.91915,389.28103 C 470.0512,354.99077 524.29502,306.11329 543.32499,252.411 C 553.98115,218.86562 566.36853,187.7934 569.98281,144.18819 C 575.02191,110.10089 626.78522,123.96478 620.11544,164.47997 L 605.39395,226.94681 C 573.7653,377.78653 484.72318,400.80954 432.71491,456.12453 L 427.94037,438.22002 z "
         id="path19854"
         sodipodi:nodetypes="cccccccc" />
      <g
         id="g24832"
         style="fill:#ecd718;fill-opacity:1">
        <path
           id="path24785"
           d="M 472.14913,370.8655 L 477.05853,376.55383 L 476.47198,377.01955 C 474.99179,375.98327 473.7924,375.34655 472.87383,375.1094 C 471.95524,374.87231 470.97949,374.87647 469.94656,375.12191 C 469.37327,375.2637 468.57067,375.74422 467.53877,376.5635 L 465.89313,377.87012 L 479.88563,394.08261 C 480.81309,395.15726 481.45522,395.77931 481.81204,395.94878 C 482.16879,396.11825 482.61609,396.15929 483.15389,396.07186 C 483.69166,395.98444 484.27555,395.69062 484.90557,395.19038 L 485.63877,394.60824 L 486.13374,395.18171 L 474.56547,404.36679 L 474.07051,403.7933 L 474.80372,403.21116 C 475.44459,402.70231 475.8669,402.18417 476.07066,401.65667 C 476.22823,401.28779 476.23687,400.863 476.09659,400.38229 C 476.00203,400.03944 475.49994,399.34102 474.59031,398.28704 L 460.59782,382.07456 L 459.00106,383.34236 C 457.51295,384.52394 456.69079,385.68173 456.53457,386.81575 C 456.31193,388.40307 456.74455,390.07088 457.83243,391.81918 L 457.21328,392.31077 L 452.30388,386.62245 L 472.14913,370.8655 z "
           style="font-size:42.25014496px;font-style:normal;font-weight:normal;fill:#ecd718;fill-opacity:1;stroke:none;stroke-width:1px;stroke-linecap:butt;stroke-linejoin:miter;stroke-opacity:1;font-family:Times New Roman" />
        <path
           id="path24787"
           d="M 574.75509,261.71291 L 570.67289,271.53047 L 572.89258,273.82369 C 573.63533,274.58126 574.30047,275.08222 574.88801,275.32651 C 575.66686,275.65037 576.37143,275.57472 577.0017,275.09957 C 577.37373,274.82156 577.91551,273.98109 578.62708,272.57815 L 579.38542,272.89348 L 574.77397,283.98387 L 574.01563,283.66854 C 573.96657,282.50554 574.43049,282.04208 573.79831,280.69342 C 573.16611,279.34476 572.32136,278.39654 570.59548,276.57307 L 554.82606,259.37219 L 556.69094,254.88372 L 580.44091,254.62955 C 582.99752,254.57079 584.68377,254.35043 585.49967,253.96845 C 586.11642,253.68004 586.63509,253.12644 587.05567,252.30764 L 587.81402,252.62297 L 582.22336,266.06832 L 581.46502,265.753 L 581.69513,265.1996 C 582.14396,264.12017 582.30898,263.29932 582.19018,262.73706 C 582.09655,262.34557 581.84478,262.06458 581.43486,261.89412 C 581.18891,261.79188 580.91908,261.72776 580.62538,261.70176 C 580.49103,261.67798 579.89343,261.66988 578.83252,261.67747 L 574.75509,261.71291 z M 572.94863,261.77912 L 561.6555,261.93937 L 569.45447,270.18246 L 572.94863,261.77912 z "
           style="font-size:45.45980835px;font-style:normal;font-weight:bold;fill:#ecd718;fill-opacity:1;stroke:none;stroke-width:1px;stroke-linecap:butt;stroke-linejoin:miter;stroke-opacity:1;font-family:Times New Roman" />
        <path
           id="path24789"
           d="M 536.51402,332.85387 L 529.6728,340.99307 L 531.10167,343.84687 C 531.58272,344.79249 532.06679,345.47001 532.5539,345.87942 C 533.1996,346.42217 533.89437,346.56152 534.63822,346.2975 C 535.07655,346.144 535.84566,345.50495 536.94557,344.38034 L 537.57428,344.90879 L 529.8461,354.10321 L 529.2174,353.57477 C 529.51976,352.4507 530.10141,352.14788 529.90326,350.67164 C 529.70511,349.19541 529.18399,348.03731 528.08512,345.77983 L 518.20697,324.63825 L 521.33331,320.91667 L 544.06407,327.80417 C 546.52039,328.51564 548.19502,328.81167 549.08795,328.69225 C 549.76284,328.6023 550.42378,328.22994 551.07078,327.57518 L 551.69948,328.10362 L 542.33028,339.25043 L 541.70158,338.72198 L 542.08721,338.2632 C 542.8394,337.3683 543.24323,336.63485 543.29872,336.06286 C 543.32693,335.66131 543.17112,335.31771 542.83129,335.03205 C 542.62738,334.86068 542.38923,334.71852 542.11689,334.60556 C 541.99588,334.54254 541.42826,334.35541 540.41402,334.04415 L 536.51402,332.85387 z M 534.77101,332.37471 L 523.95069,329.13727 L 528.91528,339.34146 L 534.77101,332.37471 z "
           style="font-size:45.45980835px;font-style:normal;font-weight:bold;fill:#ecd718;fill-opacity:1;stroke:none;stroke-width:1px;stroke-linecap:butt;stroke-linejoin:miter;stroke-opacity:1;font-family:Times New Roman" />
        <path
           id="path24791"
           d="M 565.01046,236.96176 L 564.30285,236.70547 L 570.12704,217.71495 L 570.83466,217.97125 L 570.465,219.17657 C 570.14189,220.2301 570.01562,221.12678 570.08622,221.8666 C 570.12232,222.39552 570.31878,222.86348 570.67561,223.27049 C 570.92136,223.57772 571.69447,223.96688 572.99493,224.43791 L 590.05401,230.61671 C 591.37996,231.09696 592.23881,231.29891 592.63057,231.22257 C 593.02228,231.14621 593.43417,230.85395 593.86627,230.3458 C 594.29833,229.83765 594.67045,229.07466 594.98263,228.05686 L 595.35229,226.85154 L 596.0599,227.10783 L 590.23571,246.09835 L 589.5281,245.84205 L 589.89775,244.63672 C 590.22084,243.58317 590.3471,242.68649 590.27653,241.9467 C 590.2404,241.41774 590.04668,240.94085 589.69536,240.51603 C 589.44959,240.20874 588.67648,239.8196 587.37603,239.3486 L 570.31695,233.1698 C 568.99099,232.68953 568.13077,232.49203 567.73629,232.57733 C 567.34183,232.6626 566.92856,232.95932 566.49648,233.46749 C 566.06441,233.9756 565.69229,234.7386 565.38012,235.75644 L 565.01046,236.96176 z "
           style="font-size:48.85891724px;font-style:normal;font-weight:normal;fill:#ecd718;fill-opacity:1;stroke:none;stroke-width:1px;stroke-linecap:butt;stroke-linejoin:miter;stroke-opacity:1;font-family:Times New Roman" />
        <path
           id="text24795"
           d="M 135.33049,604.57502 L 135.33049,612.65677 C 135.33048,614.21641 135.42619,615.19828 135.61761,615.60236 C 135.80901,616.00645 136.14575,616.32901 136.62783,616.57005 C 137.10988,616.81108 138.01022,616.9316 139.32884,616.9316 L 139.32884,617.71851 L 124.56899,617.71851 L 124.56899,616.9316 C 125.90177,616.9316 126.80565,616.80754 127.28064,616.55941 C 127.75561,616.31129 128.08881,615.98873 128.28022,615.59173 C 128.47163,615.19473 128.56733,614.21641 128.56734,612.65677 L 128.56734,593.94112 C 128.56733,592.38151 128.47163,591.39965 128.28022,590.99554 C 128.08881,590.59148 127.75207,590.26891 127.27,590.02785 C 126.78793,589.78685 125.88759,589.66633 124.56899,589.6663 L 124.56899,588.87939 L 137.9677,588.87939 C 141.4556,588.87942 144.00773,589.12046 145.6241,589.6025 C 147.24043,590.08459 148.55903,590.9743 149.57991,592.2716 C 150.60073,593.56896 151.11116,595.08961 151.11119,596.83354 C 151.11116,598.96034 150.34552,600.71848 148.81427,602.10795 C 147.83592,602.98704 146.4677,603.64634 144.70958,604.08586 L 151.64288,613.84777 C 152.55028,615.10966 153.1954,615.89657 153.57825,616.20849 C 154.15954,616.64803 154.83302,616.88906 155.59869,616.9316 L 155.59869,617.71851 L 146.51735,617.71851 L 137.22333,604.57502 L 135.33049,604.57502 z M 135.33049,590.43194 L 135.33049,603.065 L 136.54276,603.065 C 138.51356,603.06502 139.98812,602.88424 140.96645,602.52267 C 141.94475,602.16114 142.71394,601.50893 143.27401,600.56604 C 143.83404,599.62319 144.11407,598.3932 144.11409,596.87608 C 144.11407,594.67843 143.6001,593.05499 142.57217,592.00576 C 141.54421,590.95657 139.88887,590.43197 137.60615,590.43194 L 135.33049,590.43194 z "
           style="font-size:43.55641937px;font-style:normal;font-weight:bold;fill:#ecd718;fill-opacity:1;stroke:none;stroke-width:1px;stroke-linecap:butt;stroke-linejoin:miter;stroke-opacity:1;font-family:Times New Roman"
           transform="matrix(0.7516953,-0.6595106,0.6595106,0.7516953,0,0)" />
        <path
           sodipodi:nodetypes="cccccccscccccssscccssssccc"
           id="text24799"
           d="M 39.76764,614.15172 L 39.76764,614.99463 C 38.643728,615.17691 37.64135,615.77682 36.760503,616.79436 C 36.122596,617.55376 35.173375,619.3383 33.912836,622.14797 L 24.72148,643.09814 L 21.474194,643.31993 L 11.928846,621.19115 C 10.653087,618.22961 9.7987879,616.49063 9.3659457,615.97423 C 8.933098,615.45788 8.1167675,615.13135 6.916952,614.99463 L 6.916952,614.15172 L 21.724821,614.15172 L 21.724821,614.99463 L 21.223631,614.99463 C 19.887113,614.99466 18.975861,615.16172 18.489871,615.49582 C 18.140546,615.72366 17.965889,616.05779 17.9659,616.4982 C 17.965889,616.7716 18.026639,617.09434 18.148151,617.4664 C 18.26964,617.83853 18.679703,618.83711 19.378343,620.46215 L 25.96215,635.83955 L 32.067548,622.14797 C 32.796524,620.49255 33.244557,619.38386 33.411647,618.82189 C 33.578683,618.25998 33.662214,617.78157 33.662241,617.38667 C 33.662214,616.93107 33.540714,616.5286 33.29774,616.17926 C 33.054712,615.82997 32.697805,615.56419 32.227017,615.38191 C 31.573927,615.12375 30.708237,614.99466 29.629945,614.99463 L 29.629945,614.15172 L 39.76764,614.15172 z "
           style="font-size:46.65617752px;font-style:normal;font-weight:bold;fill:#ecd718;fill-opacity:1;stroke:none;stroke-width:1px;stroke-linecap:butt;stroke-linejoin:miter;stroke-opacity:1;font-family:Times New Roman"
           transform="matrix(0.5091618,-0.8606708,0.8606708,0.5091618,0,0)" />
        <path
           id="text24803"
           d="M -32.952477,635.53024 L -34.001557,645.32166 L -58.768069,645.32166 L -58.768069,644.56056 L -57.84241,644.56056 C -57.033318,644.56056 -56.38193,644.41657 -55.888242,644.12858 C -55.531696,643.9366 -55.257427,643.60747 -55.065434,643.14121 C -54.914591,642.81209 -54.839167,641.94815 -54.839162,640.54937 L -54.839162,622.20076 C -54.839167,620.77458 -54.914591,619.88321 -55.065434,619.52663 C -55.216286,619.17011 -55.521411,618.85813 -55.980808,618.59069 C -56.440212,618.3233 -57.060745,618.1896 -57.84241,618.18957 L -58.768069,618.18957 L -58.768069,617.42847 L -43.89582,617.42847 L -43.89582,618.18957 L -45.109461,618.18957 C -45.918569,618.1896 -46.569958,618.33359 -47.063629,618.62155 C -47.420191,618.81356 -47.701317,619.14268 -47.907007,619.60891 C -48.057867,619.93806 -48.133291,620.80201 -48.133279,622.20076 L -48.133279,639.97341 C -48.133291,641.39961 -48.05101,642.30813 -47.886437,642.69896 C -47.721887,643.08979 -47.399621,643.3812 -46.919638,643.57319 C -46.576814,643.69661 -45.747151,643.75832 -44.430645,643.75832 L -42.106213,643.75832 C -40.625178,643.75832 -39.390968,643.49777 -38.403578,642.97665 C -37.416231,642.45554 -36.562569,641.63274 -35.842589,640.50823 C -35.122657,639.38373 -34.440413,637.72441 -33.795855,635.53024 L -32.952477,635.53024 z "
           style="font-size:42.12775421px;font-style:normal;font-weight:bold;fill:#ecd718;fill-opacity:1;stroke:none;stroke-width:1px;stroke-linecap:butt;stroke-linejoin:miter;stroke-opacity:1;font-family:Times New Roman"
           transform="matrix(0.2367158,-0.9904499,0.9507022,0.2466125,0,0)" />
      </g>
    </g>
    <g
       id="g25825">
      <path
         style="fill:#cf223f;fill-rule:evenodd;stroke:#000000;stroke-width:1.5;stroke-linecap:butt;stroke-linejoin:miter;stroke-opacity:1;stroke-miterlimit:4;stroke-dasharray:none;fill-opacity:1"
         d="M 181.83024,453.18302 C 170.94788,422.16305 206.20965,421.4312 214.05836,427.71883 L 378.77984,428.51459 C 388.29905,430.65787 393.97913,430.58562 401.06101,428.51459 C 414.40655,426.45047 434.00151,415.50874 439.25729,430.90186 C 438.88006,445.73532 440.66907,458.40255 441.64456,471.88329 C 441.93504,478.35849 440.05655,486.72923 435.67639,487.40053 L 220.02653,488.99204 C 192.36286,493.26425 178.45643,479.7611 181.83024,453.18302 z "
         id="path17912"
         sodipodi:nodetypes="ccccccccc" />
      <g
         id="g24850"
         style="fill:#ecd718;fill-opacity:1">
        <path
           sodipodi:nodetypes="cccccccccccsssccccccssscc"
           id="text24711"
           d="M 217.10144,503.10953 C 217.43709,506.38535 217.35845,506.47802 220.24583,506.75222 L 220.24583,508.55258 L 206.90415,508.55258 L 206.90415,506.52384 C 210.04483,506.64416 210.01223,506.31622 210.2435,503.10953 L 210.2435,483.82842 C 210.24349,482.22169 210.1449,481.21017 209.94771,480.79384 C 209.26935,480.08514 208.37329,480.26798 207.45651,480.26186 L 207.42689,478.61376 L 219.07337,478.61376 C 223.33856,478.61379 226.3987,479.37335 228.2538,480.89244 C 230.10885,482.41158 231.03639,484.31048 231.03641,486.58913 C 231.03639,488.51726 230.43751,490.16784 229.23977,491.54087 C 228.04198,492.91393 226.3914,493.84877 224.28803,494.34539 C 222.87114,494.69597 220.47561,494.87125 217.10144,494.87124 L 217.10144,503.10953 z M 217.10144,480.32277 L 217.10144,493.00997 C 218.21014,493.15742 219.28986,493.11781 220.37388,492.87773 C 221.14293,492.61516 221.79033,492.1951 222.3161,491.61755 C 223.28013,490.55857 223.76216,488.91895 223.76218,486.69868 C 223.76216,484.49306 223.28013,482.879 222.3161,481.85649 C 221.35203,480.83404 219.91325,480.3228 217.99976,480.32277 L 217.10144,480.32277 z "
           style="font-size:44.87238312px;font-style:normal;font-weight:normal;fill:#ecd718;fill-opacity:1;stroke:none;stroke-width:1px;stroke-linecap:butt;stroke-linejoin:miter;stroke-opacity:1;font-family:Arial Black"
           transform="scale(1.0823625,0.9239049)" />
        <path
           sodipodi:nodetypes="cccsscccczccccscccccssscccccc"
           id="text24723"
           d="M 286.04019,460.92789 L 275.40775,460.92789 L 274.14251,463.85792 C 273.72816,464.8346 273.52098,465.6411 273.52099,466.27741 C 273.52098,467.12091 273.86134,467.74243 274.54206,468.14197 C 274.9416,468.37875 275.92567,468.55632 277.49428,468.67471 L 277.49428,469.496 L 265.48336,469.496 L 265.48336,468.67471 C 266.53839,468.1829 267.14445,468.43332 268.14702,467.33178 C 269.14959,466.23024 269.70082,465.08617 270.72189,462.79246 L 280.55,441.62756 L 285.41047,441.62622 L 294.76368,463.45837 C 295.79952,465.79648 296.65041,467.26889 297.31636,467.87561 C 297.81946,468.33435 298.52977,468.60072 299.44729,468.67471 L 299.44729,469.496 L 284.88594,469.496 L 284.88594,468.67471 L 285.48527,468.67471 C 286.6543,468.67471 287.47559,468.51193 287.94915,468.18637 C 288.27469,467.9496 288.43747,467.60924 288.43749,467.1653 C 288.43747,466.89894 288.39307,466.62517 288.30431,466.344 C 288.27469,466.21082 288.05272,465.6559 287.63839,464.67922 L 286.04019,460.92789 z M 285.28549,459.2853 L 280.80166,448.91922 L 276.18465,459.2853 L 285.28549,459.2853 z "
           style="font-size:45.45980835px;font-style:normal;font-weight:bold;fill:#ecd718;fill-opacity:1;stroke:none;stroke-width:1px;stroke-linecap:butt;stroke-linejoin:miter;stroke-opacity:1;font-family:Times New Roman" />
        <path
           sodipodi:nodetypes="ccsccccssscccccccccscccsscccccssccccssscccccc"
           id="text24731"
           d="M 367.92237,453.52417 L 375.27373,464.43327 C 376.58158,466.374 377.51327,467.55179 378.0688,467.96666 C 378.62427,468.38152 379.28172,468.63115 380.04116,468.71552 L 380.04116,469.49603 L 366.09748,469.49603 L 366.09748,468.71552 C 367.20846,468.63115 367.92568,468.46239 368.24915,468.20925 C 368.57259,467.95611 368.73432,467.64672 368.73434,467.28108 C 368.73432,467.02794 368.68509,466.80293 368.58667,466.60604 C 368.38977,466.18415 367.89755,465.39661 367.11003,464.24342 L 363.4193,458.78187 L 356.60481,466.69042 C 356.28175,467.21004 356.47762,467.65814 357.11108,468.02848 C 357.63606,468.3354 357.94784,468.43426 358.60882,468.58895 C 358.90413,468.67334 359.50885,468.71552 360.42297,468.71552 L 360.42297,469.49603 L 349.43257,469.49603 L 349.43257,468.71552 C 350.68419,468.5327 351.66861,468.19519 352.38584,467.70297 C 353.32807,467.05607 354.64298,465.706 356.33057,463.65276 L 362.00508,456.73366 L 354.72737,446.03858 C 353.53199,444.2807 352.84992,443.30331 352.68117,443.1064 C 352.30146,442.64234 351.92878,442.31185 351.56314,442.11494 C 351.1975,441.91808 350.69122,441.77042 350.04432,441.67195 L 350.04432,440.89144 L 364.24114,440.89144 L 364.24114,441.67195 L 363.52391,441.67195 C 362.70823,441.67198 362.13867,441.80206 361.81523,442.06221 C 361.49176,442.3224 361.33004,442.64937 361.33005,443.04312 C 361.33004,443.35253 361.37926,443.61973 361.47771,443.84472 L 362.93326,446.03858 L 366.47719,451.43886 L 369.49375,447.74726 C 371.04068,445.84875 371.81416,444.51978 371.81418,443.76034 C 371.81416,443.38066 371.70517,443.02908 371.48721,442.7056 C 371.26921,442.38217 370.9563,442.12903 370.54849,441.94618 C 370.14064,441.76339 369.50779,441.67198 368.64996,441.67195 L 368.64996,440.89144 L 379.17628,440.89144 L 379.17628,441.67195 C 378.34652,441.68604 377.57904,441.68853 376.67492,442.37571 L 367.92237,453.52417 z "
           style="font-size:43.20221329px;font-style:normal;font-weight:bold;fill:#ecd718;fill-opacity:1;stroke:none;stroke-width:1px;stroke-linecap:butt;stroke-linejoin:miter;stroke-opacity:1;font-family:Times New Roman" />
        <path
           id="path24793"
           d="M 332.34051,468.91843 L 332.30749,469.67029 L 312.4443,469.79021 L 312.47732,469.03834 L 313.73803,469.03073 C 314.83997,469.02408 315.73338,468.87648 316.41826,468.58793 C 316.9122,468.39535 317.30002,468.06795 317.58173,467.60577 C 317.80145,467.2794 317.94165,466.4253 318.00232,465.04349 L 318.79824,446.91738 C 318.86011,445.5085 318.79605,444.62855 318.60608,444.27754 C 318.41608,443.92658 318.01404,443.62089 317.39996,443.36048 C 316.78588,443.10011 315.94652,442.97313 314.88194,442.97953 L 313.62123,442.98714 L 313.65425,442.23526 L 333.51744,442.11536 L 333.48442,442.86722 L 332.22371,442.87483 C 331.12175,442.88151 330.22833,443.02912 329.54348,443.31763 C 329.04952,443.51025 328.65237,443.8377 328.35201,444.29996 C 328.13226,444.62637 327.99205,445.48045 327.9314,446.86224 L 327.13548,464.98835 C 327.0736,466.39726 327.14233,467.27718 327.34166,467.62811 C 327.54097,467.97904 327.94768,468.28471 328.56177,468.54509 C 329.17584,468.80548 330.01518,468.93246 331.07981,468.92604 L 332.34051,468.91843 z "
           style="font-size:48.85891724px;font-style:normal;font-weight:normal;fill:#ecd718;fill-opacity:1;stroke:none;stroke-width:1px;stroke-linecap:butt;stroke-linejoin:miter;stroke-opacity:1;font-family:Times New Roman" />
      </g>
    </g>
    <g
       id="g40608">
      <path
         id="path2161"
         style="fill:#ecd618;fill-opacity:1;fill-rule:evenodd;stroke:#000000;stroke-width:1.5;stroke-linecap:butt;stroke-linejoin:miter;stroke-miterlimit:4;stroke-opacity:1"
         d="M 379.64684,139.11702 C 386.65615,130.41944 395.4919,123.19742 405.90678,116.43798 C 423.79136,106.204 436.82761,111.70615 430.57522,149.46185 C 426.44479,160.82964 420.16358,168.29376 413.46646,174.13029 L 414.26222,176.51755 L 407.89617,182.48572 C 401.8821,189.18753 406.36033,194.2016 409.08981,199.1966 C 419.94467,221.77308 408.99832,236.09777 398.74498,246.54408 L 379.24896,262.06132 C 375.77932,267.04378 374.52597,272.46951 373.67867,277.97644 C 372.39285,284.38346 364.5091,292.26401 359.35506,301.84912 C 356.123,309.399 357.18993,316.29673 355.77416,325.7218 C 347.39555,352.94595 321.42403,349.32923 308.78894,349.86354 C 296.15384,349.4695 270.18232,353.08622 261.80371,325.86207 C 260.38794,316.437 261.45487,309.53927 258.22281,301.98939 C 253.06877,292.40428 245.18502,284.52373 243.8992,278.11671 C 243.0519,272.60978 241.79855,267.18405 238.32891,262.20159 L 218.83289,246.68435 C 208.57955,236.23804 197.6332,221.91335 208.48806,199.33687 C 211.21754,194.34187 215.69577,189.3278 209.6817,182.62599 L 203.31565,176.65782 L 204.11141,174.27056 C 197.41429,168.43403 191.13308,160.96991 187.00265,149.60212 C 180.75026,111.84642 193.78651,106.34427 211.67109,116.57825 C 222.08597,123.33769 230.92172,130.55971 237.93103,139.25729 L 228.73123,129.03312 C 241.07594,119.47771 261.40728,115.38831 276.5594,110.74588 C 301.94513,88.382691 317.36659,88.868462 342.39349,111.30856 C 358.32631,115.81499 376.76229,120.89856 388.53361,129.31446 L 379.64684,139.11702 z "
         sodipodi:nodetypes="cccccccccccccccccccccccccccccc" />
      <path
         id="path35723"
         style="fill:url(#radialGradient40696);fill-opacity:1;fill-rule:evenodd;stroke:#000000;stroke-width:1.5;stroke-linecap:butt;stroke-linejoin:miter;stroke-miterlimit:4;stroke-opacity:1"
         d="M 379.64708,139.11747 C 386.65639,130.41989 395.49214,123.19788 405.90703,116.43844 C 423.79161,106.20446 436.82786,111.70661 430.57547,149.4623 C 426.44504,160.83009 420.16383,168.29421 413.46671,174.13074 L 414.26247,176.518 L 407.89642,182.48617 C 401.88235,189.18798 406.36058,194.20205 409.09006,199.19705 C 419.94492,221.77353 408.99857,236.09822 398.74523,246.54453 L 379.2492,262.06177 C 375.77956,267.04423 374.52621,272.46996 373.67891,277.97689 C 372.39309,284.38391 364.50934,292.26446 359.3553,301.84957 C 356.12324,309.39945 357.19017,316.29718 355.7744,325.72225 C 347.39579,352.94641 321.42427,349.32969 308.78918,349.864 C 296.15408,349.46996 270.18256,353.08668 261.80395,325.86252 C 260.38818,316.43745 261.45511,309.53972 258.22305,301.98984 C 253.06901,292.40473 245.18526,284.52418 243.89944,278.11716 C 243.05214,272.61023 241.79879,267.1845 238.32915,262.20204 L 218.83313,246.6848 C 208.57979,236.23849 197.63344,221.9138 208.4883,199.33732 C 211.21778,194.34232 215.69601,189.32825 209.68194,182.62644 L 203.31589,176.65827 L 204.11165,174.27101 C 197.41453,168.43448 191.13332,160.97036 187.00289,149.60257 C 180.7505,111.84688 193.78675,106.34473 211.67133,116.57871 C 222.08621,123.33815 230.92196,130.56016 237.93127,139.25774 L 228.73147,129.03357 C 241.07618,119.47817 261.40752,115.38877 276.55964,110.74634 C 301.94537,88.38315 317.36683,88.86892 342.39373,111.30902 C 358.32655,115.81545 376.76253,120.89902 388.53385,129.31491 L 379.64708,139.11747 z "
         sodipodi:nodetypes="cccccccccccccccccccccccccccccc" />
      <path
         id="path35725"
         style="fill:url(#radialGradient40698);fill-opacity:1;fill-rule:evenodd;stroke:#000000;stroke-width:1.5;stroke-linecap:butt;stroke-linejoin:miter;stroke-miterlimit:4;stroke-opacity:1"
         d="M 379.64708,139.11748 C 386.65639,130.4199 395.49214,123.19788 405.90702,116.43844 C 423.7916,106.20446 436.82785,111.70661 430.57546,149.46231 C 426.44503,160.8301 420.16382,168.29422 413.4667,174.13075 L 414.26246,176.51801 L 407.89641,182.48618 C 401.88234,189.18799 406.36057,194.20206 409.09005,199.19706 C 419.94491,221.77354 408.99856,236.09823 398.74522,246.54454 L 379.2492,262.06178 C 375.77956,267.04424 374.52621,272.46997 373.67891,277.9769 C 372.39309,284.38392 364.50934,292.26447 359.3553,301.84958 C 356.12324,309.39946 357.19017,316.29719 355.7744,325.72226 C 347.39579,352.94641 321.42427,349.32969 308.78918,349.864 C 296.15408,349.46996 270.18256,353.08668 261.80395,325.86253 C 260.38818,316.43746 261.45511,309.53973 258.22305,301.98985 C 253.06901,292.40474 245.18526,284.52419 243.89944,278.11717 C 243.05214,272.61024 241.79879,267.18451 238.32915,262.20205 L 218.83313,246.68481 C 208.57979,236.2385 197.63344,221.91381 208.4883,199.33733 C 211.21778,194.34233 215.69601,189.32826 209.68194,182.62645 L 203.31589,176.65828 L 204.11165,174.27102 C 197.41453,168.43449 191.13332,160.97037 187.00289,149.60258 C 180.7505,111.84688 193.78675,106.34473 211.67133,116.57871 C 222.08621,123.33815 230.92196,130.56017 237.93127,139.25775 L 228.73147,129.03358 C 241.07618,119.47817 261.40752,115.38877 276.55964,110.74634 C 301.94537,88.383151 317.36683,88.868921 342.39373,111.30902 C 358.32655,115.81545 376.76253,120.89902 388.53385,129.31492 L 379.64708,139.11748 z "
         sodipodi:nodetypes="cccccccccccccccccccccccccccccc" />
      <path
         style="fill:#ffffff;fill-opacity:0.77653629;fill-rule:evenodd;stroke:none;stroke-width:1px;stroke-linecap:butt;stroke-linejoin:miter;stroke-opacity:1"
         d="M 245.27164,175.70747 C 245.2197,173.57367 270.92098,170.66046 281.08066,178.09473 C 292.15467,189.04359 276.43205,195.82937 269.34326,192.81622 C 267.01109,191.65013 263.85661,189.08275 259.47398,185.46046 C 252.88522,180.0148 243.52126,177.13811 245.27164,175.70747 z "
         id="path40702"
         sodipodi:nodetypes="cccsc" />
      <path
         style="fill:#000000;fill-opacity:1;fill-rule:evenodd;stroke:#000000;stroke-width:1px;stroke-linecap:butt;stroke-linejoin:miter;stroke-opacity:1"
         d="M 246.88329,172.48011 C 246.83135,170.34631 272.53263,167.4331 282.69231,174.86737 C 293.76632,185.81623 278.0437,192.60201 270.95491,189.58886 C 268.62274,188.42277 265.46826,185.85539 261.08563,182.2331 C 254.49687,176.78744 245.13291,173.91075 246.88329,172.48011 z "
         id="path11993"
         sodipodi:nodetypes="cccsc" />
      <path
         sodipodi:type="arc"
         style="opacity:1;fill:#000000;fill-opacity:1;fill-rule:nonzero;stroke:#777772;stroke-width:1.5;stroke-miterlimit:4;stroke-dasharray:none;stroke-dashoffset:0;stroke-opacity:1"
         id="path12964"
         sodipodi:cx="275.03314"
         sodipodi:cy="181.23341"
         sodipodi:rx="7.6591511"
         sodipodi:ry="7.3607426"
         d="M 282.69229 181.23341 A 7.6591511 7.3607426 0 1 1  267.37399,181.23341 A 7.6591511 7.3607426 0 1 1  282.69229 181.23341 z"
         transform="translate(-0.994695,0)" />
      <path
         id="path13937"
         style="fill:#270000;fill-opacity:1;fill-rule:evenodd;stroke:#000000;stroke-width:1px;stroke-linecap:butt;stroke-linejoin:miter;stroke-opacity:1"
         d="M 312.5172,314.54974 C 315.75461,314.9727 318.10601,316.21396 321.14614,318.21519 C 339.47753,327.03389 343.45837,307.59994 345.01882,283.40086 C 348.06922,260.98707 362.40231,258.45905 361.33182,254.35577 C 360.49351,253.05327 349.99989,255.22543 344.81988,256.14622 C 325.4498,259.50201 318.76943,254.61247 311.76671,250.22165 C 304.76398,254.69967 298.08361,259.58921 278.71353,256.23342 C 273.53352,255.31263 263.0399,253.14047 262.20159,254.44297 C 261.1311,258.54625 275.46419,261.07427 278.51459,283.48806 C 280.07504,307.68714 284.05588,327.12109 302.38727,318.30239 C 305.89504,315.99332 308.74662,314.75628 312.5172,314.54974 z "
         sodipodi:nodetypes="ccccccccccc" />
      <path
         id="path14913"
         style="fill:#800000;fill-opacity:1;fill-rule:evenodd;stroke:#000000;stroke-width:0.43638942px;stroke-linecap:butt;stroke-linejoin:miter;stroke-opacity:1"
         d="M 312.46279,302.18559 C 313.87556,302.37017 314.90168,302.91184 316.22836,303.78516 C 324.22799,307.63354 327.35776,299.15277 328.03872,288.59255 C 327.77837,275.23051 334.03318,264.18036 333.56603,262.38973 C 333.2002,261.82133 328.42196,262.76924 326.16145,263.17106 C 317.70856,264.6355 314.99225,262.50175 311.93634,260.58564 C 308.88042,262.53981 305.96518,264.67355 297.51228,263.20912 C 295.25178,262.80729 289.47885,262.05833 289.11302,262.62672 C 288.77476,263.64397 296.3863,271.92505 296.43078,289.42636 C 297.11174,299.98659 300.04257,307.6716 308.04219,303.82321 C 309.57295,302.81556 310.81734,302.27573 312.46279,302.18559 z "
         sodipodi:nodetypes="ccccccccccc" />
      <path
         style="fill:#ffffff;fill-opacity:1;fill-rule:evenodd;stroke:#000000;stroke-width:0.80000001;stroke-linecap:butt;stroke-linejoin:miter;stroke-miterlimit:4;stroke-dasharray:none;stroke-opacity:1"
         d="M 335.64127,262.10799 C 336.78091,256.72456 340.53088,258.128 343.37818,257.1845 C 346.64167,260.85806 339.85635,275.7258 336.20395,275.47175 L 335.64127,262.10799 z "
         id="path15888"
         sodipodi:nodetypes="cccc" />
      <path
         style="fill:#ffffff;fill-opacity:1;fill-rule:evenodd;stroke:#000000;stroke-width:0.80000001;stroke-linecap:butt;stroke-linejoin:miter;stroke-miterlimit:4;stroke-dasharray:none;stroke-opacity:1"
         d="M 283.25074,261.26236 C 282.1111,255.87893 278.36113,257.28237 275.51383,256.33887 C 272.25034,260.01243 279.03566,274.88017 282.68806,274.62612 L 283.25074,261.26236 z "
         id="path16859"
         sodipodi:nodetypes="cccc" />
      <g
         id="g33721"
         style="fill:#000000;fill-opacity:1;stroke:#000000;stroke-opacity:1">
        <path
           sodipodi:nodetypes="ccc"
           id="path11931"
           d="M 299.24457,174.96859 C 302.95854,174.89021 306.53152,185.99351 299.79907,187.29932 C 298.98081,187.00473 298.81466,176.06928 299.24457,174.96859 z "
           style="fill:#000000;fill-opacity:1;fill-rule:evenodd;stroke:#000000;stroke-width:1px;stroke-linecap:butt;stroke-linejoin:miter;stroke-opacity:1" />
        <g
           style="fill:#000000;fill-opacity:1;stroke:#000000;stroke-opacity:1"
           id="g29785">
          <path
             style="fill:#000000;fill-opacity:1;fill-rule:evenodd;stroke:#000000;stroke-width:0.6528179px;stroke-linecap:butt;stroke-linejoin:miter;stroke-opacity:1"
             d="M 282.53155,240.77653 C 281.47547,241.74077 281.61323,242.79685 282.53155,243.89884 C 283.44989,245.00082 284.96512,245.2304 286.0212,244.26616 C 287.07727,243.30192 287.12319,242.42951 286.20486,241.32752 C 285.28653,240.22552 283.58763,239.81228 282.53155,240.77653 z "
             id="path11907"
             sodipodi:nodetypes="cssss" />
          <path
             style="fill:#000000;fill-opacity:1;fill-rule:evenodd;stroke:#000000;stroke-width:0.6528179px;stroke-linecap:butt;stroke-linejoin:miter;stroke-opacity:1"
             d="M 278.14397,221.78593 C 277.08789,222.75017 277.22565,223.80625 278.14397,224.90824 C 279.06231,226.01022 280.57754,226.2398 281.63362,225.27556 C 282.68969,224.31132 282.73561,223.43891 281.81728,222.33692 C 280.89895,221.23492 279.20005,220.82168 278.14397,221.78593 z "
             id="path11909"
             sodipodi:nodetypes="cssss" />
          <path
             style="fill:#000000;fill-opacity:1;fill-rule:evenodd;stroke:#000000;stroke-width:0.48784918px;stroke-linecap:butt;stroke-linejoin:miter;stroke-opacity:1"
             d="M 288.21935,228.71582 C 289.63124,227.20764 293.88415,233.11245 292.50135,233.94529 C 291.05507,233.73136 289.32788,232.62677 288.21935,228.71582 z "
             id="path11911"
             sodipodi:nodetypes="ccc" />
          <path
             style="fill:#000000;fill-opacity:1;fill-rule:evenodd;stroke:#000000;stroke-width:0.48784918px;stroke-linecap:butt;stroke-linejoin:miter;stroke-opacity:1"
             d="M 277.09543,213.33513 C 278.50732,211.82695 283.18224,215.76236 281.79944,216.5952 C 280.35316,216.38127 278.20396,217.24608 277.09543,213.33513 z "
             id="path11913"
             sodipodi:nodetypes="ccc" />
          <path
             style="fill:#000000;fill-opacity:1;fill-rule:evenodd;stroke:#000000;stroke-width:0.68774241px;stroke-linecap:butt;stroke-linejoin:miter;stroke-opacity:1"
             d="M 287.67543,233.69635 C 287.08168,232.02393 284.2249,230.724 283.18329,232.23547 C 282.14167,233.74694 283.53341,237.6041 285.16877,237.76505 C 286.80411,237.92601 288.26917,235.36878 287.67543,233.69635 z "
             id="path11915"
             sodipodi:nodetypes="csss" />
          <path
             style="fill:#000000;fill-opacity:1;fill-rule:evenodd;stroke:#000000;stroke-width:0.56141293px;stroke-linecap:butt;stroke-linejoin:miter;stroke-opacity:1"
             d="M 293.85942,239.86086 C 293.37474,238.49565 291.04271,237.4345 290.19243,238.66833 C 289.34215,239.90216 290.47824,243.05081 291.81321,243.1822 C 293.14815,243.31359 294.3441,241.22609 293.85942,239.86086 z "
             id="path11917"
             sodipodi:nodetypes="csss" />
          <path
             style="fill:#000000;fill-opacity:1;fill-rule:evenodd;stroke:#000000;stroke-width:0.46315667px;stroke-linecap:butt;stroke-linejoin:miter;stroke-opacity:1"
             d="M 273.5223,216.92989 C 273.12245,215.80361 271.19856,214.92818 270.4971,215.94607 C 269.79563,216.96396 270.73288,219.56155 271.83421,219.66994 C 272.93552,219.77834 273.92216,218.05618 273.5223,216.92989 z "
             id="path11919"
             sodipodi:nodetypes="csss" />
          <path
             style="fill:#000000;fill-opacity:1;fill-rule:evenodd;stroke:#000000;stroke-width:0.62534451px;stroke-linecap:butt;stroke-linejoin:miter;stroke-opacity:1"
             d="M 272.146,223.65368 C 271.14327,224.918 271.51916,227.747 273.1866,227.82086 C 274.85405,227.89472 277.1559,224.96157 276.49119,223.6234 C 275.82649,222.28524 273.14873,222.38938 272.146,223.65368 z "
             id="path11921"
             sodipodi:nodetypes="csss" />
          <path
             style="fill:#000000;fill-opacity:1;fill-rule:evenodd;stroke:#000000;stroke-width:0.48784918px;stroke-linecap:butt;stroke-linejoin:miter;stroke-opacity:1"
             d="M 277.27379,230.46046 C 279.0576,229.41831 282.41391,234.52493 280.85085,234.92817 C 279.5259,234.31011 277.21923,234.52511 277.27379,230.46046 z "
             id="path11923"
             sodipodi:nodetypes="ccc" />
          <path
             style="fill:#000000;fill-opacity:1;fill-rule:evenodd;stroke:#000000;stroke-width:1px;stroke-linecap:butt;stroke-linejoin:miter;stroke-opacity:1"
             d="M 284.0577,204.42959 C 286.75781,201.34919 298.00074,209.67903 297.0862,212.62728 C 295.33753,214.39013 283.09016,207.45964 284.0577,204.42959 z "
             id="path11925"
             sodipodi:nodetypes="ccc" />
          <path
             style="fill:#000000;fill-opacity:1;fill-rule:evenodd;stroke:#000000;stroke-width:1px;stroke-linecap:butt;stroke-linejoin:miter;stroke-opacity:1"
             d="M 291.14186,196.06476 C 294.54884,193.79057 301.25562,204.15579 301.59672,207.36253 C 297.85899,206.025 289.42116,198.73993 291.14186,196.06476 z "
             id="path11927"
             sodipodi:nodetypes="ccc" />
          <path
             style="fill:#000000;fill-opacity:1;fill-rule:evenodd;stroke:#000000;stroke-width:1px;stroke-linecap:butt;stroke-linejoin:miter;stroke-opacity:1"
             d="M 302.05629,192.19785 C 304.74239,192.43231 304.83887,200.45233 302.61079,201.5445 C 300.14528,201.24991 299.07203,193.29854 302.05629,192.19785 z "
             id="path11929"
             sodipodi:nodetypes="ccc" />
          <g
             style="fill:#000000;fill-opacity:1;stroke:#000000;stroke-opacity:1"
             id="g29750">
            <path
               sodipodi:nodetypes="csss"
               id="path3154"
               d="M 257.42813,138.59875 C 254.96639,137.82506 250.11323,143.10023 250.95726,145.63231 C 251.80129,148.16439 259.18652,150.48546 260.80424,148.72707 C 262.42196,146.96868 259.88988,139.37244 257.42813,138.59875 z "
               style="fill:#000000;fill-opacity:1;fill-rule:evenodd;stroke:#000000;stroke-width:1px;stroke-linecap:butt;stroke-linejoin:miter;stroke-opacity:1" />
            <path
               sodipodi:nodetypes="csss"
               id="path4125"
               d="M 243.29533,154.92894 C 240.83359,154.15525 235.98043,157.74237 236.82446,160.27445 C 237.66849,162.80653 245.05372,165.1276 246.67144,163.36921 C 248.28916,161.61082 245.75708,155.70263 243.29533,154.92894 z "
               style="fill:#000000;fill-opacity:1;fill-rule:evenodd;stroke:#000000;stroke-width:1px;stroke-linecap:butt;stroke-linejoin:miter;stroke-opacity:1" />
            <path
               sodipodi:nodetypes="csss"
               id="path4127"
               d="M 291.96753,123.15246 C 289.50579,122.37877 282.12055,126.52857 282.96458,129.06065 C 283.80861,131.59273 292.03787,132.78844 293.65559,131.03005 C 295.27331,129.27166 294.42928,123.92615 291.96753,123.15246 z "
               style="fill:#000000;fill-opacity:1;fill-rule:evenodd;stroke:#000000;stroke-width:1px;stroke-linecap:butt;stroke-linejoin:miter;stroke-opacity:1" />
            <path
               sodipodi:nodetypes="cssss"
               id="path4129"
               d="M 258.83484,123.12494 C 257.21712,124.60199 256.58411,128.1891 257.99082,129.87715 C 259.39753,131.5652 262.84397,131.3542 264.46169,129.87715 C 266.07941,128.4001 265.8684,125.65701 264.46169,123.96896 C 263.05498,122.28091 260.45256,121.64789 258.83484,123.12494 z "
               style="fill:#000000;fill-opacity:1;fill-rule:evenodd;stroke:#000000;stroke-width:1px;stroke-linecap:butt;stroke-linejoin:miter;stroke-opacity:1" />
            <path
               sodipodi:nodetypes="cssss"
               id="path5100"
               d="M 243.88559,127.16493 C 242.26787,128.64198 242.47889,130.2597 243.8856,131.94775 C 245.29231,133.6358 247.61338,133.98748 249.2311,132.51043 C 250.84882,131.03338 250.91915,129.697 249.51244,128.00895 C 248.10573,126.3209 245.50331,125.68788 243.88559,127.16493 z "
               style="fill:#000000;fill-opacity:1;fill-rule:evenodd;stroke:#000000;stroke-width:1px;stroke-linecap:butt;stroke-linejoin:miter;stroke-opacity:1" />
            <path
               sodipodi:nodetypes="css"
               id="path5102"
               d="M 286.12504,161.95016 C 283.68861,164.1681 269.26651,147.37619 272.62061,146.47634 C 273.7559,146.17176 287.91143,160.32397 286.12504,161.95016 z "
               style="fill:#000000;fill-opacity:1;fill-rule:evenodd;stroke:#000000;stroke-width:1px;stroke-linecap:butt;stroke-linejoin:miter;stroke-opacity:1" />
            <path
               sodipodi:nodetypes="css"
               id="path5104"
               d="M 297.55249,158.33499 C 295.49344,160.9071 280.79061,144.06482 284.04806,142.86117 C 287.14197,141.71795 299.28197,156.17457 297.55249,158.33499 z "
               style="fill:#000000;fill-opacity:1;fill-rule:evenodd;stroke:#000000;stroke-width:1px;stroke-linecap:butt;stroke-linejoin:miter;stroke-opacity:1" />
            <path
               sodipodi:nodetypes="csss"
               id="path6075"
               d="M 285.21532,108.52266 C 282.75358,107.74897 278.74445,109.92938 279.58848,112.46146 C 280.43251,114.99354 286.12968,116.75193 287.7474,114.99354 C 289.36512,113.23515 287.67707,109.29635 285.21532,108.52266 z "
               style="fill:#000000;fill-opacity:1;fill-rule:evenodd;stroke:#000000;stroke-width:1px;stroke-linecap:butt;stroke-linejoin:miter;stroke-opacity:1" />
            <path
               sodipodi:nodetypes="ccc"
               id="path6077"
               d="M 238.85955,179.67472 C 240.17248,178.92447 252.3694,192.51239 249.55055,193.46049 C 244.84363,193.43968 238.59375,188.51164 238.85955,179.67472 z "
               style="fill:#000000;fill-opacity:1;fill-rule:evenodd;stroke:#000000;stroke-width:1px;stroke-linecap:butt;stroke-linejoin:miter;stroke-opacity:1" />
            <path
               sodipodi:nodetypes="ccc"
               id="path6079"
               d="M 229.0873,194.7415 C 232.48063,192.20805 238.93037,205.65797 235.83951,206.83922 C 232.99848,205.88546 229.91216,203.03309 229.0873,194.7415 z "
               style="fill:#000000;fill-opacity:1;fill-rule:evenodd;stroke:#000000;stroke-width:1px;stroke-linecap:butt;stroke-linejoin:miter;stroke-opacity:1" />
            <path
               sodipodi:nodetypes="ccc"
               id="path6081"
               d="M 257.99082,191.20975 C 262.84941,194.47282 271.05186,202.91533 268.68182,206.68358 C 265.61737,207.64791 259.14972,196.83922 257.99082,191.20975 z "
               style="fill:#000000;fill-opacity:1;fill-rule:evenodd;stroke:#000000;stroke-width:1px;stroke-linecap:butt;stroke-linejoin:miter;stroke-opacity:1" />
            <path
               sodipodi:nodetypes="ccc"
               id="path8021"
               d="M 254.44297,222.41379 C 250.80333,227.37255 265.571,238.87973 270.15915,233.95225 C 263.50841,232.22412 259.03467,227.23048 254.44297,222.41379 z "
               style="fill:#000000;fill-opacity:1;fill-rule:evenodd;stroke:#000000;stroke-width:1px;stroke-linecap:butt;stroke-linejoin:miter;stroke-opacity:1" />
            <path
               sodipodi:nodetypes="css"
               id="path8992"
               d="M 244.09814,229.97347 C 244.38291,229.6887 259.3777,239.16341 257.82493,240.71618 C 255.8474,242.69371 243.62141,230.4502 244.09814,229.97347 z "
               style="fill:#000000;fill-opacity:1;fill-rule:evenodd;stroke:#000000;stroke-width:1px;stroke-linecap:butt;stroke-linejoin:miter;stroke-opacity:1" />
            <path
               sodipodi:nodetypes="css"
               id="path8994"
               d="M 249.23925,269.13298 C 250.33982,265.98764 257.39452,283.19702 256.68881,284.89162 C 255.61365,287.47334 249.01658,269.76934 249.23925,269.13298 z "
               style="fill:#000000;fill-opacity:1;fill-rule:evenodd;stroke:#000000;stroke-width:1px;stroke-linecap:butt;stroke-linejoin:miter;stroke-opacity:1" />
            <path
               sodipodi:nodetypes="ccsc"
               id="path9965"
               d="M 219.62865,210.47745 C 214.59128,224.06349 221.50704,240.10664 230.57029,242.10875 C 231.90476,240.12562 224.29894,237.25571 222.12124,227.31056 C 220.37008,219.31334 220.87202,209.98676 219.62865,210.47745 z "
               style="fill:#000000;fill-opacity:1;fill-rule:evenodd;stroke:#000000;stroke-width:1px;stroke-linecap:butt;stroke-linejoin:miter;stroke-opacity:1" />
            <path
               sodipodi:nodetypes="csss"
               id="path10936"
               d="M 263.19629,289.65517 C 264.04792,288.38777 269.07219,299.00807 270.15915,303.97878 C 271.07514,308.16763 265.59329,309.32659 265.38462,307.75862 C 264.77208,303.15602 262.55441,290.61043 263.19629,289.65517 z "
               style="fill:#000000;fill-opacity:1;fill-rule:evenodd;stroke:#000000;stroke-width:1px;stroke-linecap:butt;stroke-linejoin:miter;stroke-opacity:1" />
            <path
               sodipodi:nodetypes="ccccccc"
               id="path12966"
               d="M 301.03618,220.04733 C 306.84989,226.71561 311.84581,223.47423 314.5406,219.90666 C 322.78419,211.33555 330.60626,220.20658 324.95026,226.09619 L 316.36933,234.67713 C 313.22409,237.98842 303.75269,238.36587 301.03617,235.09914 L 291.32987,225.25216 C 286.56031,218.91149 293.49943,212.77684 301.03618,220.04733 z "
               style="fill:#000000;fill-opacity:1;fill-rule:evenodd;stroke:#000000;stroke-width:1px;stroke-linecap:butt;stroke-linejoin:miter;stroke-opacity:1" />
            <path
               sodipodi:nodetypes="csss"
               id="path17836"
               d="M 360.14974,138.45848 C 362.61148,137.68479 367.46464,142.95996 366.62061,145.49204 C 365.77658,148.02412 358.39135,150.34519 356.77363,148.5868 C 355.15591,146.82841 357.68799,139.23217 360.14974,138.45848 z "
               style="fill:#000000;fill-opacity:1;fill-rule:evenodd;stroke:#000000;stroke-width:1px;stroke-linecap:butt;stroke-linejoin:miter;stroke-opacity:1" />
            <path
               sodipodi:nodetypes="csss"
               id="path17838"
               d="M 374.28254,154.78867 C 376.74428,154.01498 381.59744,157.6021 380.75341,160.13418 C 379.90938,162.66626 372.52415,164.98733 370.90643,163.22894 C 369.28871,161.47055 371.82079,155.56236 374.28254,154.78867 z "
               style="fill:#000000;fill-opacity:1;fill-rule:evenodd;stroke:#000000;stroke-width:1px;stroke-linecap:butt;stroke-linejoin:miter;stroke-opacity:1" />
            <path
               sodipodi:nodetypes="csss"
               id="path17840"
               d="M 325.61034,123.01219 C 328.07208,122.2385 335.45732,126.3883 334.61329,128.92038 C 333.76926,131.45246 325.54,132.64817 323.92228,130.88978 C 322.30456,129.13139 323.14859,123.78588 325.61034,123.01219 z "
               style="fill:#000000;fill-opacity:1;fill-rule:evenodd;stroke:#000000;stroke-width:1px;stroke-linecap:butt;stroke-linejoin:miter;stroke-opacity:1" />
            <path
               sodipodi:nodetypes="cssss"
               id="path17842"
               d="M 358.74303,122.98467 C 360.36075,124.46172 360.99376,128.04883 359.58705,129.73688 C 358.18034,131.42493 354.7339,131.21393 353.11618,129.73688 C 351.49846,128.25983 351.70947,125.51674 353.11618,123.82869 C 354.52289,122.14064 357.12531,121.50762 358.74303,122.98467 z "
               style="fill:#000000;fill-opacity:1;fill-rule:evenodd;stroke:#000000;stroke-width:1px;stroke-linecap:butt;stroke-linejoin:miter;stroke-opacity:1" />
            <path
               sodipodi:nodetypes="cssss"
               id="path17844"
               d="M 373.69228,127.02466 C 375.31,128.50171 375.09898,130.11943 373.69227,131.80748 C 372.28556,133.49553 369.96449,133.84721 368.34677,132.37016 C 366.72905,130.89311 366.65872,129.55673 368.06543,127.86868 C 369.47214,126.18063 372.07456,125.54761 373.69228,127.02466 z "
               style="fill:#000000;fill-opacity:1;fill-rule:evenodd;stroke:#000000;stroke-width:1px;stroke-linecap:butt;stroke-linejoin:miter;stroke-opacity:1" />
            <path
               sodipodi:nodetypes="css"
               id="path17846"
               d="M 331.45283,161.80989 C 333.88926,164.02783 348.31136,147.23592 344.95726,146.33607 C 343.82197,146.03149 329.66644,160.1837 331.45283,161.80989 z "
               style="fill:#000000;fill-opacity:1;fill-rule:evenodd;stroke:#000000;stroke-width:1px;stroke-linecap:butt;stroke-linejoin:miter;stroke-opacity:1" />
            <path
               sodipodi:nodetypes="css"
               id="path17848"
               d="M 320.02538,158.19472 C 322.08443,160.76683 336.78726,143.92455 333.52981,142.7209 C 330.4359,141.57768 318.2959,156.0343 320.02538,158.19472 z "
               style="fill:#000000;fill-opacity:1;fill-rule:evenodd;stroke:#000000;stroke-width:1px;stroke-linecap:butt;stroke-linejoin:miter;stroke-opacity:1" />
            <path
               sodipodi:nodetypes="csss"
               id="path17850"
               d="M 332.36255,108.38239 C 334.82429,107.6087 338.83342,109.78911 337.98939,112.32119 C 337.14536,114.85327 331.44819,116.61166 329.83047,114.85327 C 328.21275,113.09488 329.9008,109.15608 332.36255,108.38239 z "
               style="fill:#000000;fill-opacity:1;fill-rule:evenodd;stroke:#000000;stroke-width:1px;stroke-linecap:butt;stroke-linejoin:miter;stroke-opacity:1" />
            <path
               sodipodi:nodetypes="ccc"
               id="path17852"
               d="M 378.71832,179.53445 C 377.40539,178.7842 365.20847,192.37212 368.02732,193.32022 C 372.73424,193.29941 378.98412,188.37137 378.71832,179.53445 z "
               style="fill:#000000;fill-opacity:1;fill-rule:evenodd;stroke:#000000;stroke-width:1px;stroke-linecap:butt;stroke-linejoin:miter;stroke-opacity:1" />
            <path
               sodipodi:nodetypes="ccc"
               id="path17854"
               d="M 388.49057,194.60123 C 385.09724,192.06778 378.6475,205.5177 381.73836,206.69895 C 384.57939,205.74519 387.66571,202.89282 388.49057,194.60123 z "
               style="fill:#000000;fill-opacity:1;fill-rule:evenodd;stroke:#000000;stroke-width:1px;stroke-linecap:butt;stroke-linejoin:miter;stroke-opacity:1" />
            <path
               sodipodi:nodetypes="ccc"
               id="path17856"
               d="M 359.58705,191.06948 C 354.72846,194.33255 346.52601,202.77506 348.89605,206.54331 C 351.9605,207.50764 358.42815,196.69895 359.58705,191.06948 z "
               style="fill:#000000;fill-opacity:1;fill-rule:evenodd;stroke:#000000;stroke-width:1px;stroke-linecap:butt;stroke-linejoin:miter;stroke-opacity:1" />
            <path
               sodipodi:nodetypes="ccc"
               id="path17858"
               d="M 363.1349,222.27352 C 366.77454,227.23228 352.00687,238.73946 347.41872,233.81198 C 354.06946,232.08385 358.5432,227.09021 363.1349,222.27352 z "
               style="fill:#000000;fill-opacity:1;fill-rule:evenodd;stroke:#000000;stroke-width:1px;stroke-linecap:butt;stroke-linejoin:miter;stroke-opacity:1" />
            <path
               sodipodi:nodetypes="css"
               id="path17860"
               d="M 373.47973,229.8332 C 373.19496,229.54843 358.20017,239.02314 359.75294,240.57591 C 361.73047,242.55344 373.95646,230.30993 373.47973,229.8332 z "
               style="fill:#000000;fill-opacity:1;fill-rule:evenodd;stroke:#000000;stroke-width:1px;stroke-linecap:butt;stroke-linejoin:miter;stroke-opacity:1" />
            <path
               sodipodi:nodetypes="css"
               id="path17862"
               d="M 368.33862,268.99271 C 367.23805,265.84737 360.18335,283.05675 360.88906,284.75135 C 361.96422,287.33307 368.56129,269.62907 368.33862,268.99271 z "
               style="fill:#000000;fill-opacity:1;fill-rule:evenodd;stroke:#000000;stroke-width:1px;stroke-linecap:butt;stroke-linejoin:miter;stroke-opacity:1" />
            <path
               sodipodi:nodetypes="ccsc"
               id="path17864"
               d="M 397.94922,210.33718 C 402.98659,223.92322 396.07083,239.96637 387.00758,241.96848 C 385.67311,239.98535 393.27893,237.11544 395.45663,227.17029 C 397.20779,219.17307 396.70585,209.84649 397.94922,210.33718 z "
               style="fill:#000000;fill-opacity:1;fill-rule:evenodd;stroke:#000000;stroke-width:1px;stroke-linecap:butt;stroke-linejoin:miter;stroke-opacity:1" />
            <path
               sodipodi:nodetypes="csss"
               id="path17866"
               d="M 354.38158,289.5149 C 353.52995,288.2475 348.50568,298.8678 347.41872,303.83851 C 346.50273,308.02736 351.98458,309.18632 352.19325,307.61835 C 352.80579,303.01575 355.02346,290.47016 354.38158,289.5149 z "
               style="fill:#000000;fill-opacity:1;fill-rule:evenodd;stroke:#000000;stroke-width:1px;stroke-linecap:butt;stroke-linejoin:miter;stroke-opacity:1" />
          </g>
          <path
             style="fill:#000000;fill-opacity:1;fill-rule:evenodd;stroke:#000000;stroke-width:0.6528179px;stroke-linecap:butt;stroke-linejoin:miter;stroke-opacity:1"
             d="M 335.04632,240.63626 C 336.1024,241.6005 335.96464,242.65658 335.04632,243.75857 C 334.12798,244.86055 332.61275,245.09013 331.55667,244.12589 C 330.5006,243.16165 330.45468,242.28924 331.37301,241.18725 C 332.29134,240.08525 333.99024,239.67201 335.04632,240.63626 z "
             id="path17868"
             sodipodi:nodetypes="cssss" />
          <path
             style="fill:#000000;fill-opacity:1;fill-rule:evenodd;stroke:#000000;stroke-width:0.6528179px;stroke-linecap:butt;stroke-linejoin:miter;stroke-opacity:1"
             d="M 339.4339,221.64566 C 340.48998,222.6099 340.35222,223.66598 339.4339,224.76797 C 338.51556,225.86995 337.00033,226.09953 335.94425,225.13529 C 334.88818,224.17105 334.84226,223.29864 335.76059,222.19665 C 336.67892,221.09465 338.37782,220.68141 339.4339,221.64566 z "
             id="path17870"
             sodipodi:nodetypes="cssss" />
          <path
             style="fill:#000000;fill-opacity:1;fill-rule:evenodd;stroke:#000000;stroke-width:0.48784918px;stroke-linecap:butt;stroke-linejoin:miter;stroke-opacity:1"
             d="M 329.35852,228.57555 C 327.94663,227.06737 323.69372,232.97218 325.07652,233.80502 C 326.5228,233.59109 328.24999,232.4865 329.35852,228.57555 z "
             id="path17872"
             sodipodi:nodetypes="ccc" />
          <path
             style="fill:#000000;fill-opacity:1;fill-rule:evenodd;stroke:#000000;stroke-width:0.48784918px;stroke-linecap:butt;stroke-linejoin:miter;stroke-opacity:1"
             d="M 340.48244,213.19486 C 339.07055,211.68668 334.39563,215.62209 335.77843,216.45493 C 337.22471,216.241 339.37391,217.10581 340.48244,213.19486 z "
             id="path17874"
             sodipodi:nodetypes="ccc" />
          <path
             style="fill:#000000;fill-opacity:1;fill-rule:evenodd;stroke:#000000;stroke-width:0.68774241px;stroke-linecap:butt;stroke-linejoin:miter;stroke-opacity:1"
             d="M 329.90244,233.55608 C 330.49619,231.88366 333.35297,230.58373 334.39458,232.0952 C 335.4362,233.60667 334.04446,237.46383 332.4091,237.62478 C 330.77376,237.78574 329.3087,235.22851 329.90244,233.55608 z "
             id="path17876"
             sodipodi:nodetypes="csss" />
          <path
             style="fill:#000000;fill-opacity:1;fill-rule:evenodd;stroke:#000000;stroke-width:0.56141293px;stroke-linecap:butt;stroke-linejoin:miter;stroke-opacity:1"
             d="M 323.71845,239.72059 C 324.20313,238.35538 326.53516,237.29423 327.38544,238.52806 C 328.23572,239.76189 327.09963,242.91054 325.76466,243.04193 C 324.42972,243.17332 323.23377,241.08582 323.71845,239.72059 z "
             id="path17878"
             sodipodi:nodetypes="csss" />
          <path
             style="fill:#000000;fill-opacity:1;fill-rule:evenodd;stroke:#000000;stroke-width:0.46315667px;stroke-linecap:butt;stroke-linejoin:miter;stroke-opacity:1"
             d="M 344.05557,216.78962 C 344.45542,215.66334 346.37931,214.78791 347.08077,215.8058 C 347.78224,216.82369 346.84499,219.42128 345.74366,219.52967 C 344.64235,219.63807 343.65571,217.91591 344.05557,216.78962 z "
             id="path17880"
             sodipodi:nodetypes="csss" />
          <path
             style="fill:#000000;fill-opacity:1;fill-rule:evenodd;stroke:#000000;stroke-width:0.62534451px;stroke-linecap:butt;stroke-linejoin:miter;stroke-opacity:1"
             d="M 345.43187,223.51341 C 346.4346,224.77773 346.05871,227.60673 344.39127,227.68059 C 342.72382,227.75445 340.42197,224.8213 341.08668,223.48313 C 341.75138,222.14497 344.42914,222.24911 345.43187,223.51341 z "
             id="path17882"
             sodipodi:nodetypes="csss" />
          <path
             style="fill:#000000;fill-opacity:1;fill-rule:evenodd;stroke:#000000;stroke-width:0.48784918px;stroke-linecap:butt;stroke-linejoin:miter;stroke-opacity:1"
             d="M 340.30408,230.32019 C 338.52027,229.27804 335.16396,234.38466 336.72702,234.7879 C 338.05197,234.16984 340.35864,234.38484 340.30408,230.32019 z "
             id="path17884"
             sodipodi:nodetypes="ccc" />
          <path
             style="fill:#000000;fill-opacity:1;fill-rule:evenodd;stroke:#000000;stroke-width:1px;stroke-linecap:butt;stroke-linejoin:miter;stroke-opacity:1"
             d="M 333.52017,204.28932 C 330.82006,201.20892 319.57713,209.53876 320.49167,212.48701 C 322.24034,214.24986 334.48771,207.31937 333.52017,204.28932 z "
             id="path17886"
             sodipodi:nodetypes="ccc" />
          <path
             style="fill:#000000;fill-opacity:1;fill-rule:evenodd;stroke:#000000;stroke-width:1px;stroke-linecap:butt;stroke-linejoin:miter;stroke-opacity:1"
             d="M 326.43601,195.92449 C 323.02903,193.6503 316.32225,204.01552 315.98115,207.22226 C 319.71888,205.88473 328.15671,198.59966 326.43601,195.92449 z "
             id="path17888"
             sodipodi:nodetypes="ccc" />
          <path
             style="fill:#000000;fill-opacity:1;fill-rule:evenodd;stroke:#000000;stroke-width:1px;stroke-linecap:butt;stroke-linejoin:miter;stroke-opacity:1"
             d="M 315.52158,192.05758 C 312.83548,192.29204 312.739,200.31206 314.96708,201.40423 C 317.43259,201.10964 318.50584,193.15827 315.52158,192.05758 z "
             id="path17890"
             sodipodi:nodetypes="ccc" />
        </g>
        <path
           sodipodi:nodetypes="ccc"
           id="path17892"
           d="M 318.3333,174.82832 C 314.61933,174.74994 311.04635,185.85324 317.7788,187.15905 C 318.59706,186.86446 318.76321,175.92901 318.3333,174.82832 z "
           style="fill:#000000;fill-opacity:1;fill-rule:evenodd;stroke:#000000;stroke-width:1px;stroke-linecap:butt;stroke-linejoin:miter;stroke-opacity:1" />
      </g>
      <path
         style="fill:#ffffff;fill-opacity:0.77653629;fill-rule:evenodd;stroke:none;stroke-width:1px;stroke-linecap:butt;stroke-linejoin:miter;stroke-opacity:1"
         d="M 371.83711,175.3096 C 371.88905,173.1758 346.18777,170.26259 336.02809,177.69686 C 324.95408,188.64572 340.6767,195.4315 347.76549,192.41835 C 350.09766,191.25226 353.25214,188.68488 357.63477,185.06259 C 364.22353,179.61693 373.58749,176.74024 371.83711,175.3096 z "
         id="path41673"
         sodipodi:nodetypes="cccsc" />
      <path
         style="fill:#000000;fill-opacity:1;fill-rule:evenodd;stroke:#000000;stroke-width:1px;stroke-linecap:butt;stroke-linejoin:miter;stroke-opacity:1"
         d="M 370.69458,172.33984 C 370.74652,170.20604 345.04524,167.29283 334.88556,174.7271 C 323.81155,185.67596 339.53417,192.46174 346.62296,189.44859 C 348.95513,188.2825 352.10961,185.71512 356.49224,182.09283 C 363.081,176.64717 372.44496,173.77048 370.69458,172.33984 z "
         id="path17894"
         sodipodi:nodetypes="cccsc" />
      <path
         sodipodi:type="arc"
         style="opacity:1;fill:#000000;fill-opacity:1;fill-rule:nonzero;stroke:#777772;stroke-width:1.5;stroke-miterlimit:4;stroke-dasharray:none;stroke-dashoffset:0;stroke-opacity:1"
         id="path17896"
         sodipodi:cx="275.03314"
         sodipodi:cy="181.23341"
         sodipodi:rx="7.6591511"
         sodipodi:ry="7.3607426"
         d="M 282.69229 181.23341 A 7.6591511 7.3607426 0 1 1  267.37399,181.23341 A 7.6591511 7.3607426 0 1 1  282.69229 181.23341 z"
         transform="matrix(-1,0,0,1,618.57256,-0.1402632)" />
      <path
         id="path27794"
         style="fill:url(#radialGradient40700);fill-opacity:1;fill-rule:evenodd;stroke:#000000;stroke-width:0.43638942px;stroke-linecap:butt;stroke-linejoin:miter;stroke-opacity:1"
         d="M 312.46291,302.18557 C 313.87568,302.37015 314.9018,302.91182 316.22848,303.78514 C 324.22811,307.63352 327.35788,299.15275 328.03884,288.59253 C 327.77849,275.23049 334.0333,264.18034 333.56615,262.38971 C 333.20032,261.82131 328.42208,262.76922 326.16157,263.17104 C 317.70868,264.63548 314.99237,262.50173 311.93646,260.58562 C 308.88054,262.53979 305.9653,264.67353 297.5124,263.2091 C 295.2519,262.80727 289.47897,262.05831 289.11314,262.6267 C 288.77488,263.64395 296.38642,271.92503 296.4309,289.42634 C 297.11186,299.98657 300.04269,307.67158 308.04231,303.82319 C 309.57307,302.81554 310.81746,302.27571 312.46291,302.18557 z "
         sodipodi:nodetypes="ccccccccccc" />
      <path
         style="fill:#ffffff;fill-opacity:1;fill-rule:evenodd;stroke:#000000;stroke-width:0.80000001;stroke-linecap:butt;stroke-linejoin:miter;stroke-miterlimit:4;stroke-dasharray:none;stroke-opacity:1"
         d="M 289.85411,309.74801 C 289.82483,316.69986 302.31473,314.65101 302.78515,309.94695 C 303.11613,302.46747 298.5532,296.83301 299.60212,289.85411 C 295.26124,294.75355 290.13118,299.54998 289.85411,309.74801 z "
         id="path14915"
         sodipodi:nodetypes="cccc" />
      <path
         style="fill:#ffffff;fill-opacity:1;fill-rule:evenodd;stroke:#000000;stroke-width:0.80000001;stroke-linecap:butt;stroke-linejoin:miter;stroke-miterlimit:4;stroke-dasharray:none;stroke-opacity:1"
         d="M 332.83108,308.77205 C 332.86036,315.7239 320.37046,313.67505 319.90004,308.97099 C 319.56906,301.49151 324.13199,295.85705 323.08307,288.87815 C 327.42395,293.77759 332.55401,298.57402 332.83108,308.77205 z "
         id="path15886"
         sodipodi:nodetypes="cccc" />
      <path
         style="fill:#ffffff;fill-opacity:1;fill-rule:evenodd;stroke:#000000;stroke-width:0.80000001;stroke-linecap:butt;stroke-linejoin:miter;stroke-miterlimit:4;stroke-dasharray:none;stroke-opacity:1"
         d="M 301.45819,259.99793 C 300.69568,258.43825 304.57393,256.74608 305.39698,258.30987 C 306.45201,260.31443 306.24101,265.20276 306.24101,265.20276 C 306.24101,265.20276 302.23188,261.58048 301.45819,259.99793 z "
         id="path16861"
         sodipodi:nodetypes="cscs" />
      <path
         style="fill:#ffffff;fill-opacity:1;fill-rule:evenodd;stroke:#000000;stroke-width:0.80000001;stroke-linecap:butt;stroke-linejoin:miter;stroke-miterlimit:4;stroke-dasharray:none;stroke-opacity:1"
         d="M 319.70468,259.25399 C 320.46719,257.69431 316.58894,256.00214 315.76589,257.56593 C 314.71086,259.57049 314.92186,264.45882 314.92186,264.45882 C 314.92186,264.45882 318.93099,260.83654 319.70468,259.25399 z "
         id="path17832"
         sodipodi:nodetypes="cscs" />
      <path
         style="fill:#000000;fill-opacity:1;fill-rule:evenodd;stroke:#000000;stroke-width:1.5;stroke-linecap:butt;stroke-linejoin:miter;stroke-miterlimit:4;stroke-opacity:1"
         d="M 204.11165,174.27102 C 197.41453,168.43449 191.13332,160.97037 187.00289,149.60258 C 180.7505,111.84688 193.78675,106.34473 211.67133,116.57871 C 222.08621,123.33815 230.92196,130.56017 237.93127,139.25775 L 237.7321,139.25729 C 225.35177,130.96368 181.24255,82.773289 188.7931,149.0053 C 191.76713,160.83866 198.7743,166.21898 204.11165,174.27102 z "
         id="path40604"
         sodipodi:nodetypes="ccccccc" />
      <path
         style="fill:#000000;fill-opacity:1;fill-rule:evenodd;stroke:#000000;stroke-width:1.5;stroke-linecap:butt;stroke-linejoin:miter;stroke-miterlimit:4;stroke-opacity:1"
         d="M 413.53831,174.07242 C 420.23543,168.23589 426.51664,160.77177 430.64707,149.40398 C 436.89946,111.64828 423.86321,106.14613 405.97863,116.38011 C 395.56375,123.13955 386.728,130.36157 379.71869,139.05915 L 379.91786,139.05869 C 392.29819,130.76508 436.40741,82.57469 428.85686,148.8067 C 425.88283,160.64006 418.87566,166.02038 413.53831,174.07242 z "
         id="path40606"
         sodipodi:nodetypes="ccccccc" />
    </g>
    <path
       sodipodi:nodetypes="cc"
       id="path41675"
       d="M 529.57559,1.9893899 L 477.45358,149.60212"
       style="fill:none;fill-rule:evenodd;stroke:#000000;stroke-width:1.5;stroke-linecap:butt;stroke-linejoin:miter;stroke-opacity:1;stroke-miterlimit:4;stroke-dasharray:none" />
  </g>
</svg>
