<svg xmlns="http://www.w3.org/2000/svg" width="1500" height="1000" viewBox="0 0 3 2">
  <path style="fill:#fff;fill-opacity:1" d="M0 0h3v2H0z"/>
  <path fill="#008d46" style="fill:#009246;fill-opacity:1" d="M0 0h1v2H0z"/>
  <path fill="#d2232c" style="fill:#ce2b37;fill-opacity:1" d="M2 0h1v2H2z"/>
  <path style="fill:#e6e6e6;fill-opacity:1;fill-rule:evenodd;stroke:#000;stroke-width:.01118568;stroke-linecap:butt;stroke-linejoin:miter;stroke-miterlimit:4;stroke-dasharray:none;stroke-opacity:1" d="M1.3860192.54965995c-.031043.0107595-.0601841.0119504-.0908836.01165175-.0174627-.00016331-.0247947.01117151-.0256338.01980797-.053559-.00039523-.0836314.00831767-.0629195.03728559.0048788-.02662676.0411952-.01447128.0827274-.0093214.0061972.00998583.0132294.0168132.0093214.02679902-.0338208-.00188329-.0457125.00555071-.0512677.01631245.0153707-.00301678.0387858-.00661297.0594239.00349552.0066036.00323434.0111245.0080227.0151473.01281693.001432.00143765.0016596.00202076.0034955.0046607.0006968.00100806.0005259.00247729.0011652.00349552.0032049.00543694.0069911.01203163.0069911.02097315 0 .00441447-.0007403.0085536-.0011652.01281692C1.2661141.71651 1.2309145.70750329 1.1506539.64636946 1.1016347.60903166 1.0198037.58578037.92810554.58578037H.70788751c-.07669282 0-.17594139.00972296-.17594139.02330349 0 .00482401.0058601.0139821.05243286.0139821.0039068 0 .00741861-5.2e-7.01165175 0C.53902418.62595999.48883465.63276179.48883465.64287393c0 .01198098.0376369.01671923.08622293.01980797.00356737.00022678.01099399.00094341.01514728.00116518C.54558177.66804784.53078094.67463483.53078094.68482022c0 .01033514.03960103.01822802.08156224.02213833C.5928248.70964129.58088346.71329705.58088346.71977547c0 .0119806.05278413.02837135.1013702.03145972.02564953.00163052.06686175.00150635.11069161.00233035C.7320305.75651102.68212768.76022605.68225366.77337351c.00011476.01198022.05275681.02767187.10137021.03029454.01491255.00080467.03913804.00072591.06175426.00116518C.83448227.80710645.82957638.81170186.83023086.82114567.83130316.8366177.86734975.83681553.9024717.8339626.89388811.83940161.88782744.84507498.8884896.85027504c.00151331.01188477.03948451.00857122.07457119.00699105C.98206208.8564105 1.0052566.85232288 1.0283106.84561434c-.0178253.01100387-.02850151.02252995-.0244687.03145972.0056433.01249588.0458945.00889896.0803971.00233035.0144679-.00275446.0301738-.00881292.046607-.01631244-.0333517.02035836-.0554412.04438739-.0454419.05476321.007331.00760693.0418051-.0014439.073406-.01048657-.0217094.01699906-.0335248.03492325-.0256338.04311146.0057834.00600112.0307679.00198058.0559284-.00582587-.01747.01520391-.026871.02995666-.019808.03728559.0068133.00706972.0338581-.00105839.0594239-.01281692-.023545.02214466-.0306139.04014263-.0221383.04893733.0093344.0096857.0512848-.006218.0780667-.02679901-.0161294.02277251-.0212925.03781221-.0128169.04660701.009758.0101253.0462326-.0045127.0640846-.0349553.011054-.01885003.0203751-.03704868.0279642-.05476318.0046522.00528516.0082556.01090183.0139821.01631245-.0194375.04481653-.0335853.09172833-.0291294.13632543.0016459.0164717.0280199-.001088.0326249-.0139821 0 0 .0075099.0126464.0174777-.0034955-.002633.0102744-.0048419.0204084-.0081563.0291294-.0080567.0211991-.0309435.0541558-.026799.0617542.0034131.0062576.0275894-.0170182.0372856-.026799-.0160481.0369808-.0418967.076319-.0617543.1013702-.0051385-.0001361-.0142227.0055526-.0186428.0081562-.0096922.0057095-.0217695.0106932-.0244686.0081563-.0107667-.0101201-.0279642-.0058259-.0279642-.0058259-1e-7 0-.0049818-.0018248-.0104866 0-.0054244.0017979-.0099923.0044467-.0128169.0104866v.0011651c-.0068108.0054597-.0119479.0115549-.0128169.0186428h-.13283s-.0067205.0197166-.0081562.0419463c-.0000234.0003779.0000225.0007856 0 .0011652h-.046607v.0163124h.046607c.0006552.0120666.002922.0221383.0046607.0302946.0002428.001139-.0002286.0013282 0 .0023303.0000645.0002984-.0000634.0008769 0 .0011652.0010754.0045745.0034955.0104866.0034955.0104866h.7259039s.0016142-.0066419.0034955-.0163125c.0010922-.0054926.0027128-.0114954.0034956-.0186428.0000753-.0007138-.0000679-.0016074 0-.0023303.0002068-.002206.0010421-.0047253.0011651-.0069911h.0431115v.0093214c1e-7 .0161242-.0477722.0687454-.0477722.0687454 1e-7 0 .0155189.0233035.0559284.0233035.0399491 0 .0547633-.0233035.0547633-.0233035s-.046607-.0525686-.046607-.0687454v-.0093214h.0233035c.0088733.0076984.0157635.0163125.0186428.0163125.0044517 0 .0148364-.0144314.0407811-.0244687-.0259447-.0100372-.0363295-.0233035-.0407811-.0233035-.0028928 0-.009704.0074489-.0186428.0151473h-.0233035v-.0256338c.0076939-.0088651.0163124-.0146003.0163124-.0174777-1e-7-.0044519-.0144315-.0148363-.0244687-.0407811-.0100372.0259448-.0233035.0363292-.0233035.0407811 0 .0029038.0074212.0096503.0151473.0186428v.0244687h-.0431115c-.000206-.0035943-.0007671-.0070765-.0011651-.0104866-.0021165-.0181323-.0069911-.0326249-.0069911-.0326249h-.0547632c-.000869-.0070879-.0060061-.0131831-.0128169-.0186428V1.269738c-.0028247-.0060399-.0073925-.0086887-.0128169-.0104866-.0055049-.0018248-.0104867 0-.0104866 0 0 0-.0171976-.0042942-.0279642.0058259-.0026991.0025369-.0081563-.0034956-.0081562-.0034956-.0033122-.004117-.0076784-.0071271-.012817-.006991-.0169753-.0214151-.0342462-.0582741-.0477721-.0943792.0132562.0105612.0280203.0181984.0419463.0244687.01341-.0224112-.0013539-.0460898-.0151473-.0675801.017524.0045716.0354436-.005528.0221383-.0326249-.0100679-.0205037-.0387725-.0683888-.0431114-.0757364.0204069.0201958.0432142.0352676.0524328.0256339.0079159-.0082726-.0001655-.03458254-.0046607-.04777221.0325201.02239121.0626111.03315521.0699105.02679901.0088103-.0076716-.0010231-.02884774-.0233035-.05592838.0341878.01936219.0630731.02605521.073406.0186428.0149653-.01073568-.0054324-.02507825-.0442766-.06058909.0499683.02721267.0944479.0333913.1060309.02213832.0127321-.0123692-.0177104-.0253361-.0722408-.06641496.059941.02980829.1175419.03551444.1363254.01980797C1.9576334.87392537 1.892287.86441903 1.8148036.8106591c.0693311.04413235.143653.0531858.1654548.03495524.0139032-.01162577-.0157167-.01693625-.0594239-.03495524.0611886.02134893.1172175.02218559.1339951.00815622.014083-.01177622-.0301365-.02642824-.0873882-.05010251.0956108.02449009.214364.03072921.2307047.00815622.0112838-.01558742-.0402396-.02024034-.1048658-.03029454.1086904.0117936.2079219.01668097.2213832-.00349553.0084769-.01270539-.0084182-.01707665-.0629194-.02330349.0904148.00452438.1653586.00192542.1759414-.0139821.0039512-.00593928.0005432-.00951152-.0104866-.01281692.0387283-.00145757.0659578-.00570288.0722408-.01514727.0105012-.01578467-.0277644-.01843892-.1316647-.02446867.0609036-.00189987.110994-.00765768.1211782-.02213833.0095707-.01360848-.0104905-.00883559-.086223-.00699104C2.3761055.61558253 2.3181224.6169838 2.2331013.61607491c.0072055-.00334539.0132011-.006915.0139821-.01165175.0010614-.0064367-.090527-.00218779-.1479772-.00116517-.0040759.00028682-.0074277.00039116-.0104866 0-.0091767-.00117346-.0139667-.00514728-.0151472-.01165175-.1077621 0-.1249193-.01980797-.1899235-.01980797-.0474879 0-.110329.01147837-.179437.07573636-.0524975.04881355-.086435.07806672-.1712806.07806671-.0081488 0-.0143152-.0013101-.019808-.00233035-.000697-.00017735-.0016386.00019366-.0023304 0-.018395-.00515012-.035914-.01619827-.0501025-.03262489.0019882-.00436801.0114361-.0074079.0244687-.0093214-.0310132-.02169534-.0274939-.03980639-.0431115-.06058909-.0010277-.00125979-.0024687-.00223538-.0034955-.00349552-.0024659-.00283022-.0047147-.00638328-.0081562-.0093214-.0044741-.00407164-.009673-.0077472-.0174776-.01048657l.0151472-.0046607C1.4134717.5788404 1.3952006.57069313 1.3720371.5706331c.0091103-.00512603.013551-.01237547.0139821-.02097315zm.0745712.47189575c.0046541.0022226.0096916.0053985.0139821.0069911-.0045835.0156927.0030717.036522.0151473.0477722-.0018301.033227.00398.0648631.0326249.0932139l.006991-.0349552c.0081777.0102774.0171793.0212285.0326249.0302945.005567-.000478.0073866-.0040913.0093214-.006991.0057397.0117114.0187159.0209187.0302946.0302945.0098334-.0142021.0113453-.027744.0093214-.0419463.0108899.0309739.0269337.0698115.0454418.1083613l-.0093214.0128169s-.0154691.0129963-.0233035.0116518c-.0078344-.0013446-.0051425.0050324-.0116518.0023303-.0065092-.0027021-.0042688-.0113665-.0139821-.0139821-.0097132-.0026156-.0256338.0034956-.0256338.0034955v.0011652c-.0088109-.0010448-.0182327.0081159-.0128169.0174776.0008614-.0070566.0073186-.0123403.0128169-.0104865v.0011651s-.0005425.0048569.0023303.0093214h-.1398209v-.0023303s-.0159206-.0270843-.0256339-.0244687c-.0097131.0026152-.0051425.0066193-.0116517.0093214-.0065092.0027021-.0038174-.00484-.0116518-.0034955l-.0174776-.0209732c.0136075-.0283425.0293917-.0533414.0419463-.0757363.0016415.0137439.0049594.0273018.0093214.026799.007335-.0008453.0177-.0177498.0256338-.0524329.0095486-.0417424.013104-.0927248.0151473-.1246737zm-.1013702.2493474c.0109974-.000777.0245537.0106115.0337901.0163125.0011233.0006933.0014256.0016787.0023303.0023303H1.331256c.0087873-.0023142.0195748-.0073406.0279642-.0186428zm-.0326249.0034956-.0011652.006991s-.0089262.0007379-.0139821.0023304c-.0050558.0015928.000441.0015596-.006991.0034955-.003716.0009681-.0058971.0016323-.0093214.0023303h-.0594239c.0018322-.0046143.0066776-.0074598.0128169-.0093214v.0011652s.006151.0027196.0104866.0023304c.0043357-.0003893.0021068-.0049284.006991-.0046607.0063428.0003479.0070279.0058042.012817.0046607.0064194-.0009165.0104524-.002273.0128169-.0069911.0129837-.0008475.0234252-.0015675.0349552-.0023303zm.3495525 0c.0115299.0007628.0219714.0014828.0349552.0023303.0023645.0047181.0063975.0060746.0128169.0069911.0057891.0011435.0064741-.0043128.0128169-.0046607.0048843-.0002677.0026554.0042714.0069911.0046607.0043356.0003892.0104866-.0023304.0104866-.0023304v-.0011652c.0061393.0018616.0109847.0047071.0128169.0093214h-.0570936c-.0042528-.0007155-.0072656-.0011876-.0116517-.0023303-.007432-.0019359-.0019352-.0019027-.0069911-.0034955-.0050559-.0015925-.0139821-.0023304-.0139821-.0023304l-.0011651-.006991z"/>
  <path style="fill:#4d4d4d;fill-opacity:1;fill-rule:evenodd;stroke:#000;stroke-width:.00376262px;stroke-linecap:butt;stroke-linejoin:miter;stroke-opacity:1" d="M2.4892037.67779823c-.0259416.03899402-.4051632-.00305034-.5040335-.01909209l.0268124-.03033742c.3979284.03516031.4952839.02227851.4772211.04942951z"/>
  <path d="M2.4788311.63082696c-.028072.03991497-.3525711.01813235-.40156.01130089l.0208656-.03033743c.3290226.03055518.3977101-.00515771.3806944.01903654z" style="fill:#4d4d4d;fill-opacity:1;fill-rule:evenodd;stroke:#000;stroke-width:.00376262px;stroke-linecap:butt;stroke-linejoin:miter;stroke-opacity:1"/>
  <path style="fill:#4d4d4d;fill-opacity:1;fill-rule:evenodd;stroke:#000;stroke-width:.00376262px;stroke-linecap:butt;stroke-linejoin:miter;stroke-opacity:1" d="M2.3977825.63113195c-.0010829.0226085-.2815887.00886875-.3205113.00368382l.0165781-.02302535c.1860439.00921029.3050072-.0030809.3039332.01934153zM2.427496.70634967c-.0259416.03899402-.4318725-.00673452-.5307427-.02277628l.0268123-.03033742c.3979285.03516032.5219932.02596271.5039304.0531137z"/>
  <path style="fill:#4d4d4d;fill-opacity:1;fill-rule:evenodd;stroke:#000;stroke-width:.00376262px;stroke-linecap:butt;stroke-linejoin:miter;stroke-opacity:1" d="M2.0653252.60404099c.0427849.00190977.1827082-.00748061.1814117.00038143-.0046165.02799812-.1410469.0305451-.1777549.02118344L2.0653252.60404099zM2.3144427.74320201C2.2872228.78400027 1.9096032.72556256 1.811319.7048918l.0278031-.03150595c.3965444.05173637.4942734.04140901.4753206.06981616z"/>
  <path d="M2.1977962.77669901C2.1711324.81353233 1.8721061.7764011 1.8451674.7022147l.0583782-.02313497c.084143.08074867.317133.06600967.2942506.09761928z" style="fill:#4d4d4d;fill-opacity:1;fill-rule:evenodd;stroke:#000;stroke-width:.00376262px;stroke-linecap:butt;stroke-linejoin:miter;stroke-opacity:1"/>
  <path style="fill:#4d4d4d;fill-opacity:1;fill-rule:evenodd;stroke:#000;stroke-width:.00376262px;stroke-linecap:butt;stroke-linejoin:miter;stroke-opacity:1" d="M2.0548491.81850697c-.0348829.02916889-.2360467-.00537621-.311202-.15666287l.0351432-.02303467c.0807722.12189816.3059947.15466511.2760588.17969754z"/>
  <path d="M1.9802473.84613709C1.9453644.87530598 1.776436.8343142 1.7077277.69223745l.0351432-.02303467c.1074815.15597533.2673123.15190225.2373764.17693431z" style="fill:#4d4d4d;fill-opacity:1;fill-rule:evenodd;stroke:#000;stroke-width:.00376262px;stroke-linecap:butt;stroke-linejoin:miter;stroke-opacity:1"/>
  <path style="fill:#806600;fill-opacity:1;fill-rule:nonzero;stroke:#000;stroke-width:.00376262;stroke-linecap:butt;stroke-linejoin:miter;stroke-miterlimit:4;stroke-dasharray:none;stroke-dashoffset:0;stroke-opacity:1" d="M1.8847823 1.2487018c-.0100372.0259448-.0238691.0361141-.0238691.040566 0 .0029038.0079123.0093501.0156384.0183426v.02528h-.0636118v.0165791h.0636118v.0092889c0 .0161242-.0483262.0685503-.0483262.0685503 1e-7 0 .016265.0225757.0566745.0225757.0399491 0 .055146-.0225757.055146-.0225757s-.0469152-.0523735-.0469152-.0685503v-.0092889h.0231636c.0088735.0076983.015346.0156383.0182252.0156383.0044516 0 .0146211-.0139493.0405658-.0239866-.0259447-.0100372-.0361142-.0238691-.0405658-.0238691-.0028928 0-.0094039.00794-.0183428.0156383h-.023046v-.0255152c.007694-.0088651.0156384-.0152301.0156384-.0181074-1e-7-.0044519-.0139496-.0146212-.0239868-.040566zM1.1080742 1.3328904h-.0636118v.0165791h.0636118v-.0165791z"/>
  <path style="fill:#806600;fill-opacity:1;fill-rule:nonzero;stroke:none;stroke-width:1;stroke-linecap:butt;stroke-linejoin:miter;stroke-miterlimit:4;stroke-dasharray:none;stroke-dashoffset:0;stroke-opacity:1" d="M1.0988558 1.2896537h.7266765s.0075252.0257882.0075252.0515764-.0075252.0515764-.0075252.0515764h-.7266765s-.0075253-.0257882-.0075253-.0515764.0075253-.0515764.0075253-.0515764z"/>
  <path style="fill:#540;fill-opacity:1;fill-rule:nonzero;stroke:none;stroke-width:2;stroke-linecap:butt;stroke-linejoin:miter;stroke-miterlimit:4;stroke-dasharray:none;stroke-dashoffset:0;stroke-opacity:.56179774" d="M1.0916921 1.3320675c-.0001875.0030232-.0003527.0061048-.0003527.0091712 0 .0018482.0001634.0036879.0002351.0055265h.7412366c.0000718-.0018386.0002352-.0036783.0002352-.0055265 0-.0030664-.0001653-.006148-.0003527-.0091712h-.7410015zm.0007055.0266909c.002056.0187722.006467.0340988.006467.0340988h.7266564s.004411-.0153266.006467-.0340988h-.7395904z"/>
  <path style="fill:#806600;fill-opacity:1;fill-rule:nonzero;stroke:#000;stroke-width:.00376262;stroke-linecap:butt;stroke-linejoin:miter;stroke-miterlimit:4;stroke-dasharray:none;stroke-dashoffset:0;stroke-opacity:1" d="M1.168238 1.2896205v.1032367h.0150504v-.1032367H1.168238zm.2864296 0v.1032367h.0150505v-.1032367h-.0150505zm.2864296 0v.1032367h.0150505v-.1032367h-.0150505zM1.2145652 1.2896205l.1787246.1032367h.030101l-.1787246-.1032367h-.030101z"/>
  <path style="fill:#806600;fill-opacity:1;fill-rule:nonzero;stroke:#000;stroke-width:.00376262;stroke-linecap:butt;stroke-linejoin:miter;stroke-miterlimit:4;stroke-dasharray:none;stroke-dashoffset:0;stroke-opacity:1" d="m1.3932898 1.2896205-.1787246.1032367h.030101l.1787246-.1032367h-.030101zM1.5009949 1.2896205l.1787245.1032367h.030101l-.1787246-.1032367h-.0301009z"/>
  <path style="fill:#806600;fill-opacity:1;fill-rule:nonzero;stroke:#000;stroke-width:.00376262;stroke-linecap:butt;stroke-linejoin:miter;stroke-miterlimit:4;stroke-dasharray:none;stroke-dashoffset:0;stroke-opacity:1" d="m1.6797194 1.2896205-.1787245.1032367h.0301009l.1787246-.1032367h-.030101z"/>
  <path d="M1.0988558 1.2896537h.7266765s.0075252.0257882.0075252.0515764-.0075252.0515764-.0075252.0515764h-.7266765s-.0075253-.0257882-.0075253-.0515764.0075253-.0515764.0075253-.0515764z" style="fill:none;fill-opacity:1;fill-rule:nonzero;stroke:#000;stroke-width:.00376262;stroke-linecap:butt;stroke-linejoin:miter;stroke-miterlimit:4;stroke-dasharray:none;stroke-dashoffset:0;stroke-opacity:1"/>
  <path style="fill:#4d4d4d;fill-opacity:1;fill-rule:evenodd;stroke:#000;stroke-width:.00376262px;stroke-linecap:butt;stroke-linejoin:miter;stroke-opacity:1" d="M1.0826025.75300924S.86208081.75106255.79845447.75408008C.73480976.75709835.68186936.76033436.68199949.77391452c.00011476.01198024.0529587.02710663.1015721.0297293.08555292.00461633.33367381.00243736.33367381.00243736L1.0826025.75300924z"/>
  <path d="M.98155791.70301485S.76106493.69895519.69741264.7013631C.6337419.70377175.58077294.70650031.58077294.72008121c0 .01198061.05269659.02761259.10128266.03070096.08550474.00543549.3336351.00563385.3336351.00563385L.98155791.70301485z" style="fill:#4d4d4d;fill-opacity:1;fill-rule:evenodd;stroke:#000;stroke-width:.00376262px;stroke-linecap:butt;stroke-linejoin:miter;stroke-opacity:1"/>
  <path style="fill:#4d4d4d;fill-opacity:1;fill-rule:evenodd;stroke:#000;stroke-width:.00376262px;stroke-linecap:butt;stroke-linejoin:miter;stroke-opacity:1" d="M.93201031.66172516S.73410745.65766513.64566292.66062411C.5572184.6635831.53122535.67181725.53122535.68539778c0 .01198098.05269658.02045562.10128266.02354436.08550477.00543549.33363506.00618419.33363506.00618419L.93201031.66172516z"/>
  <path d="M.88961958.61933442.65502191.62153651c-.07669278 0-.16618726.00789-.16618726.02147053 0 .01198098.03783231.01715249.08641835.02024123.08550477.0054355.34849937.00948732.34849937.00948732L.88961958.61933442z" style="fill:#4d4d4d;fill-opacity:1;fill-rule:evenodd;stroke:#000;stroke-width:.00376262px;stroke-linecap:butt;stroke-linejoin:miter;stroke-opacity:1"/>
  <path style="fill:#4d4d4d;fill-opacity:1;fill-rule:evenodd;stroke:#000;stroke-width:.00376262px;stroke-linecap:butt;stroke-linejoin:miter;stroke-opacity:1" d="M1.0644466.62430459S1.0013881.62343733.95545784.62437021C.90951431.6253031.87476679.63574381.87664986.65191979.87823524.6655391.91775726.6744388.95262619.67864946c.06136461.00741051.17612861-.00462602.17612861-.00462602L1.0644466.62430459zM.81639925.5852017H.70842323c-.07669281 0-.1760968.01009209-.1760968.02367262 0 .00482401.00571282.01473564.05228559.01473564.08477942 0 .25215679.00012863.25215679.00012863L.81639925.5852017z"/>
  <path d="M1.1223444.65357154S1.0207564.66478817.97488565.6673042C.92900159.6698206.89463471.68145259.89707435.69755437.8991283.71111067.93893369.71864273.97392704.7216487c.06158356.00529045.17586436-.01069538.17586436-.01069538l-.027447-.05738178z" style="fill:#4d4d4d;fill-opacity:1;fill-rule:evenodd;stroke:#000;stroke-width:.00376262px;stroke-linecap:butt;stroke-linejoin:miter;stroke-opacity:1"/>
  <path style="fill:#4d4d4d;fill-opacity:1;fill-rule:evenodd;stroke:#000;stroke-width:.00376262px;stroke-linecap:butt;stroke-linejoin:miter;stroke-opacity:1" d="M1.1418725.70035974s-.0938204.00690231-.1396042.01068456C.95647134.7148273.92243895.72740485.92532255.7434328c.00242766.01349441.04247321.01923005.07748905.02196196.0835274.00647427.1362571-.0155686.171648-.04748096L1.1418725.70035974zM1.1044025.78673331S1.0115397.80333509.966388.81180712C.92122322.82028214.88714232.83663038.88885776.85010204c.00151331.01188478.03958693.00921923.07467361.00763907.06174793-.00278039.16813053-.05082064.16813053-.05082064L1.1044025.78673331z"/>
  <path d="M1.0473627.76576538C1.020193.77681758.91624734.80025195.86273473.80305582.83920144.8042993.8290608.80764642.82999973.82119452c.00108452.01564839.03841169.01614429.07389732.01317934C.98130459.8279447 1.0753455.79621578 1.0753455.79621578l-.0279828-.0304504z" style="fill:#4d4d4d;fill-opacity:1;fill-rule:evenodd;stroke:#000;stroke-width:.00376262px;stroke-linecap:butt;stroke-linejoin:miter;stroke-opacity:1"/>
  <path d="M1.1842632.70806705s-.0585866.04323749-.1153809.04867112C1.0137754.76201035.97584024.76924487.97872383.78527283c.00242766.0134944.04243477.01977852.07748907.02196196.0956389.00592394.1593793-.01942206.190366-.05408723L1.1842632.70806705z" style="fill:#4d4d4d;fill-opacity:1;fill-rule:evenodd;stroke:#000;stroke-width:.00376262px;stroke-linecap:butt;stroke-linejoin:miter;stroke-opacity:1"/>
  <path d="M1.2078294.78302973s-.0928484.02692505-.1363299.04175129c-.0434941.01483034-.07467471.03687284-.0679719.05171474.0056433.0124959.0460025.00898359.080505.00241499.0607198-.01156002.1536569-.07978856.1536569-.07978856L1.2078294.78302973z" style="fill:#4d4d4d;fill-opacity:1;fill-rule:evenodd;stroke:#000;stroke-width:.00376262px;stroke-linecap:butt;stroke-linejoin:miter;stroke-opacity:1"/>
  <path style="fill:#4d4d4d;fill-opacity:1;fill-rule:evenodd;stroke:#000;stroke-width:.00376262px;stroke-linecap:butt;stroke-linejoin:miter;stroke-opacity:1" d="M1.2316087.72843654s-.0371831.04759319-.069687.05858051c-.0319633.01080462-.0776273.01966368-.0747437.03569201.0024277.0134944.0322547.02414056.067029.01920916.0791231-.0111428.1169886-.04970132.1479753-.08436648l-.0705736-.0291152z"/>
  <path style="fill:#4d4d4d;fill-opacity:1;fill-rule:evenodd;stroke:#000;stroke-width:.00376262px;stroke-linecap:butt;stroke-linejoin:miter;stroke-opacity:1" d="M1.2705697.79070572s-.0859115.04286239-.1266741.06404881c-.0407745.02119239-.0698169.05191013-.0585161.06363644.009758.01012528.0696279-.00940901.1034407-.01890976.0760722-.02137396.1288441-.07633218.1164503-.09274381L1.2705697.79070572z"/>
  <path d="M1.3051076.81603345s-.0725569.04976992-.1133195.07095634c-.0407746.02119239-.0698169.05191012-.0585161.06363644.009758.01012528.0736882-.00679194.1020592-.02581729.0642833-.04310736.1007931-.09366476.1007931-.09366476L1.3051076.81603345z" style="fill:#4d4d4d;fill-opacity:1;fill-rule:evenodd;stroke:#000;stroke-width:.00376262px;stroke-linecap:butt;stroke-linejoin:miter;stroke-opacity:1"/>
  <path style="fill:#4d4d4d;fill-opacity:1;fill-rule:evenodd;stroke:#000;stroke-width:.00376262px;stroke-linecap:butt;stroke-linejoin:miter;stroke-opacity:1" d="M1.3262908.83905879s-.0582812.05805889-.0990439.07924531c-.0407745.02119238-.0698168.05191012-.058516.06363644.009758.01012527.0617151-.01001528.0900861-.02904063.0642833-.04310774.0984905-.09873039.0984905-.09873039L1.3262908.83905879z"/>
  <path style="fill:#4d4d4d;fill-opacity:1;fill-rule:evenodd;stroke:#000;stroke-width:.00376262px;stroke-linecap:butt;stroke-linejoin:miter;stroke-opacity:1" d="M1.3196933.76862519s-.0206608.0367222-.0454637.05803018c-.023576.02025353-.0572578.04333629-.0543742.05936425.0024277.0134944.0240804.01938105.0477605.00819873.0478289-.02258575.0817548-.06566664.1006298-.10088214L1.3196933.76862519zM1.3470135.85886042s-.0424653.05504361-.0893733.08707379c-.0472215.03224459-.0619882.06065989-.0506875.07238629.009758.0101252.0543471-.0090944.0808761-.03088295.059812-.04912339.0902015-.11346639.0902015-.11346639L1.3470135.85886042z"/>
  <path d="M1.3448684.79625157s-.0144148.03958053-.0371356.0630958c-.0215968.02235197-.0458369.04570543-.0414799.06139707.0036683.01321103.0131113.02477255.0384054.0053874.0419823-.03217486.0753152-.07296269.0908443-.10977662L1.3448684.79625157z" style="fill:#4d4d4d;fill-opacity:1;fill-rule:evenodd;stroke:#000;stroke-width:.00376262px;stroke-linecap:butt;stroke-linejoin:miter;stroke-opacity:1"/>
  <path style="fill:#4d4d4d;fill-opacity:1;fill-rule:evenodd;stroke:#000;stroke-width:.00376262px;stroke-linecap:butt;stroke-linejoin:miter;stroke-opacity:1" d="M1.3681967.85425528s-.0340922.07531988-.0640455.11148094c-.0304081.03670988-.0440286.06065958-.0327278.07238588.009758.0101253.0469063-.0045846.0647583-.0350272.0390666-.06661892.0556637-.13649175.0556637-.13649175L1.3681967.85425528zM1.6189556 1.1008984c.0096985.0450488.0396038.1199794.0666365.1540823.0051385-.0001361.0090373.0026145.0123494.0067315 0 0 .0060097.0060772.0087088.0035403.0107667-.01012.0277288-.0060373.0277288-.0060373s.0052658-.0020171.0107706-.0001924c.0054244.0017979.0101245.0048263.0129491.0108662l-.0039218.0109765s-.0057276.0030827-.0100632.0026935c-.0043357-.0003893-.0023952-.0045179-.0072795-.0042502-.0063427.0003479-.0075498.0050127-.0133389.0038691-.0064195-.0009165-.0096774-.0022688-.0120418-.0069869-.0129838-.0008475-.024078-.0015847-.035608-.0023475l.0018505.0072136s.00816.000817.0132159.0024094c.0050558.0015929-.0004243.002025.0070077.0039609.007432.0019362.0121067.0037371.0227201.003783.0114088.0000496.0100733.0070775.0174194.0092136.0073461.0021357.0065055-.0038572.011965-.0006696.0054596.0031875.0098733.0134198.0098733.0134198l-.0036143.0107211s-.0092071.0040417-.016871.0001107c-.0076639-.003931-.0079052-.0141409-.0137847-.015834-.0066701-.001921-.0106157.009972-.0202981.0057867-.0096824-.004185-.0110112-.0171074-.0184316-.0225272-.0074203-.0054199-.0114934.002337-.0114934.002337l.0108728.0203106s.0048547-.001972.0094684.0019176c.0046137.00389.0050965.0095183.0093298.0128419.0043638.0034258.0091737.0008759.0138874.0054549.0047136.0045787.0046237.0136607.0046237.0136607l-.0108373.0100272s-.0156204.0043673-.0215616-.0037155c-.0040271-.0054787.0085484-.008384.0051881-.0125425-.0033603-.0041585-.0126353-.0001894-.0176706-.0054019-.0050354-.0052126.0023519-.0103166-.0024707-.0154486-.0048226-.0051316-.0150574.0034728-.0177783-.0037684-.0021568-.0057402.0018842-.0174064-.0006096-.0216257 0 0-.0217247.0119896-.0327221.0112122-.0109974-.0007771-.0007623-.011591-.0112676-.0143207-.0105052-.00273-.0208184.0059612-.0312967.0028229-.0104783-.0031379-.0106166-.0153762-.0106166-.0153762l.0008819-.0089672s.0154832-.0055209.0251964-.0029053c.0097132.0026156.0071473.0106648.0136565.0133669.0065092.0027021.0045459-.003903.0123803-.0025585.0078344.0013445.0234608-.0109497.0234608-.0109497l.0082856-.013387c-.0237669-.0495033-.0462932-.1052192-.0546332-.1351495l.0177838-.0183683zM1.4137087 1.1087134c-.0096986.0450488-.0474189.1056517-.0744516.1397546-.0051385-.0001361-.0137906.0060821-.0182107.0086857-.0096922.0057095-.022291.0106357-.0249901.0080988-.0107667-.01012-.0277288-.0060373-.0277288-.0060373s-.0052658-.0020171-.0107706-.0001924c-.0054243.0017979-.0101245.0048263-.0129491.0108662l.0039219.0109765s.0057275.0030827.0100631.0026935c.0043357-.0003893.0023953-.0045179.0072795-.0042502.0063428.0003479.0075498.0050127.0133389.0038691.0064195-.0009165.0096774-.0022688.0120418-.0069869.0129838-.0008475.024078-.0015847.0356081-.0023475l-.0018506.0072136s-.00816.000817-.0132158.0024094c-.0050559.0015929.0004242.002025-.0070078.0039609-.0074319.0019362-.0121067.0037371-.0227201.003783-.0114088.0000496-.0022582.0116364-.0096043.0137721-.0073462.0021361-.0065055-.0038572-.0119651-.0006696-.0054595.0031875-.0046632.0186301-.0046632.0186301l.0036143.0107211s.0085558.0001342.0162198-.0037968c.0076639-.003931.0033464-.0154437.0092258-.0171364.0066702-.001921.0028007.0054131.0124831.0012278.0096824-.004185.0110112-.0171074.0184316-.0225272 0 0 .0267595.0020451.0435384-.0205593.0109974-.000777.024825.0105869.0340614.0162878.0124589.0076902.0102987.0126559.0195742.0184534.0085245.0053281.0203853-.0075611.0203853-.0075611l.0010718-.0109214s-.0154831-.0270119-.0251963-.0243963c-.0097132.0026152-.0045423.0061059-.0110515.008808-.0065092.0027021-.0045459-.0039031-.0123803-.0025586l-.0167676-.0210805c.0237669-.0495033.0541082-.0908914.0624483-.1208217l-.0177838-.0183684z"/>
  <path style="fill:#4d4d4d;fill-opacity:1;fill-rule:evenodd;stroke:#000;stroke-width:.00376262px;stroke-linecap:butt;stroke-linejoin:miter;stroke-opacity:1" d="M1.4159864.98387827s-.0076888.08131723-.0257883.12894143c-.0080567.0211991-.0299328.0541092-.0257883.0617076.0041446.0075985.0442085-.0340771.0442085-.0340771s.0018003.0590898.0110521.0580234c.0073351-.0008452.0178375-.017246.0257713-.0519291.0121354-.0530511.0156633-.1345316.0170557-.15207451l-.046511-.01059172z"/>
  <path style="fill:#4d4d4d;fill-opacity:1;fill-rule:evenodd;stroke:#000;stroke-width:.00376262px;stroke-linecap:butt;stroke-linejoin:miter;stroke-opacity:1" d="M1.4261175.9921676 1.380988.9553272c-.0215996.0475854-.0369934.0974381-.0322353.1450589.0016457.0164716.0276303-.0004605.0322353-.0133546 0 0 .0094403.0161178.0202622-.0055261.0108219-.0216436.0248673-.0893378.0248673-.0893378z"/>
  <path d="M1.675794 1.2944743c-.0019023-.0030939-.0024921-.0058605-.0024939-.0084806" style="fill:#e6e6e6;fill-opacity:1;fill-rule:evenodd;stroke:#000;stroke-width:.00376262px;stroke-linecap:butt;stroke-linejoin:miter;stroke-opacity:1"/>
  <path d="M1.7558176 1.2692093c.0119332.008963.0194164.0191457.0117492.0334798.0020376-.0141633-.0025369-.0205921-.0153096-.0235753-.0012062-.003714-.00084-.0081566.0035604-.0099045zM1.7562398 1.3113215c.0137053.0013896.0167428.0138661.0119775.0211946.0004825-.0074385-.0038274-.0158225-.0160993-.0115962-.0005214-.0039187.0001294-.0073926.0041218-.0095984z" style="fill:#4d4d4d;fill-opacity:1;fill-rule:evenodd;stroke:#000;stroke-width:.00376262px;stroke-linecap:butt;stroke-linejoin:miter;stroke-opacity:1"/>
  <path d="M1.7195393 1.3453953c.0089462.0116387.0018269.025676-.0061907.0321618.0043468-.0071808.0060735-.0168501-.0023398-.0240496.001092-.0038359.0037228-.0066775.0085305-.0081122z" style="fill:#4d4d4d;fill-rule:evenodd;stroke:#000;stroke-width:.00376262px;stroke-linecap:butt;stroke-linejoin:miter;stroke-opacity:1"/>
  <path d="M1.5761935 1.2726858c-.0097856-.0058233-.0240951.0075656-.0161998.0185969.0003597-.0085198.0087809-.0169049.0150001-.0114247l.0011997-.0071722zM1.246889 1.2692093c-.0119332.008963-.0194164.0191457-.0117491.0334798-.0020377-.0141633.0025368-.0205921.0153096-.0235753.0012061-.003714.0008399-.0081566-.0035605-.0099045zM1.2577685 1.3199967c-.0089462.0116383-.0018269.0256756.0061907.0321614-.0043468-.0071808-.0060735-.0168501.0023398-.0240495-.001092-.003836-.0037228-.0066775-.0085305-.0081119zM1.428145 1.2890124c.0153955-.0009575.0246993.0193997.0084584.0264631.0047012-.0086402-.0004692-.0211231-.0113268-.0187472l.0028684-.0077159zM1.2916163.73944735s-.0388281.0543389-.0680354.07234374c-.026458.01630984-.0682683.03012378-.0653847.04615174.0024276.0134944.0185228.01842877.0461089.0126029.0524093-.0110686.1081801-.06896977.1270552-.10418564l-.039744-.02691274z" style="fill:#4d4d4d;fill-opacity:1;fill-rule:evenodd;stroke:#000;stroke-width:.00376262px;stroke-linecap:butt;stroke-linejoin:miter;stroke-opacity:1"/>
  <path style="fill:#4d4d4d;fill-opacity:1;fill-rule:evenodd;stroke:#000;stroke-width:.00376262px;stroke-linecap:butt;stroke-linejoin:miter;stroke-opacity:1" d="m.75109927.58539111.1775314.00018978c.09169813 0 .17242413.02380387.22144333.06114166.0802606.06113383.1155788.06948469.1818859.06342876l.0007785.03970692s-.0128463.02978-.0217998.02802833C1.3019851.77613451 1.2952728.7489067 1.2952728.7489067s-.0117786.02917449-.0209268.02820133C1.2651979.77613451 1.2597813.74446338 1.2597813.74446338s-.0126851.02953019-.023585.02641609C1.2252964.76776501 1.2167322.73420872 1.2167322.73420872s-.0165445.02421364-.030364.02187807c-.0138196-.00233594-.0249141-.0389284-.0249141-.0389284s-.0307533.01401416-.041264.00155705C1.1096795.70625832 1.1194116.6673303 1.1194116.6673303s-.0223838.02121587-.0404854.01401416C1.0608245.67414275 1.047005.63852345 1.047005.63852345S1.0163146.64680421.98811745.64397311C.97629001.64278557.97359188.62904694.97359188.62904694S.93124875.62713382.90380432.63238922C.87635992.63764463.87649866.64727773.84894991.64566401.81234429.64351935.80979287.61548058.80979287.61548058.77486824.61618789.75716706.59820728.75109927.58539111z"/>
  <path style="fill:#4d4d4d;fill-opacity:1;fill-rule:evenodd;stroke:#000;stroke-width:.00376262px;stroke-linecap:butt;stroke-linejoin:miter;stroke-opacity:1" d="M1.3174383.66428817s.0156572.0118721.0156572.03315621c0 .03868865-.0184202.06999475-.0184202.1215734 0 .0475011.0137639.08191645.0377614.11604731.0236889.03369126.0824496.07815771.1224942.09302201-.0045835.0156927.0026606.037563.0147362.0488131-.00183.0332271.0045115.0646711.0331564.093022l.006447-.0349981c.0081777.0102774.0172502.020406.0326959.029472.005567-.000478.0079259-.0030947.0098607-.0059944.0057397.0117114.0186245.0205649.0302032.0299407.0159423-.023025.0093521-.0460503.002763-.0690757.0153022.0337539.0467499.0528512.0746018.0653919.01341-.0224113-.0009427-.0457435-.0147362-.0672338.017524.0045716.0356201-.0055119.0223148-.0326088-.0108381-.0220724-.0458005-.0811357-.0458005-.0811357l.0558837-.03998286-.0670056-.19133847-.0943337-.04544219c-.0287791 0-.0541317-.01222036-.0746018-.03591945.0019882-.00436801.0104531-.00729642.0234858-.00920992-.0377061-.02637732-.0232653-.04803394-.0558097-.07480858l-.1113536.05730934zM1.9369599.89126682C1.902077.92043534 1.7331485.87944356 1.6644403.73736681l.0425112-.03408686c.1074815.1559757.2599443.16295445.2300084.18798687z"/>
  <path style="fill:#4d4d4d;fill-opacity:1;fill-rule:evenodd;stroke:#000;stroke-width:.00376262px;stroke-linecap:butt;stroke-linejoin:miter;stroke-opacity:1" d="M1.6066353.96177425c.0128941.02486726.0727053.09014165.0893379.07275985.0100748-.0105287-.008289-.05894479-.008289-.05894479M1.8734102.9382381c-.023166.02250595-.177102-.02655928-.2458103-.16863603L1.6618221.7391994c.1323487.15689665.2330123.17822513.2115881.1990387z"/>
  <path style="fill:#4d4d4d;fill-opacity:1;fill-rule:evenodd;stroke:#000;stroke-width:.00376262px;stroke-linecap:butt;stroke-linejoin:miter;stroke-opacity:1" d="M1.6315026.93045995c.0457274.06038066.1179211.09328895.1298623.08289075.0111396-.0096999-.0071378-.04052425-.0432874-.07828561-.0361496-.03776173-.093496-.07992353-.093496-.07992353l-.0262352.04400408s.0208284.01503579.0331563.03131431z"/>
  <path style="fill:#4d4d4d;fill-opacity:1;fill-rule:evenodd;stroke:#000;stroke-width:.00376262px;stroke-linecap:butt;stroke-linejoin:miter;stroke-opacity:1" d="M1.8114871.97661765c-.0262439.01882624-.1719682-.04997463-.2210855-.19995518l.037976-.02555965c.1102084.17316697.2117266.20498575.1831095.22551483z"/>
  <path style="fill:#4d4d4d;fill-rule:evenodd;stroke:#000;stroke-width:.00376262px;stroke-linecap:butt;stroke-linejoin:miter;stroke-opacity:1" d="M1.3218964.78671578s.0206772.03500484.0293063.03126025c.0086291-.00374497.00521-.04623899.00521-.04623899s.0190491.0206771.0267013.01367636c.0076523-.00700112.0039076-.04168007.0039076-.04168007s.0179094.02328224.023445.01888627c.0055357-.00439597-.0013024-.03647016-.0013024-.03647016s.0203516.01563012.0293063.00846607c.0089547-.00716368.0065125-.03712117.0065125-.03712117.0084663.00442394.0169325.01131171.0253988.0058613M1.3218964.84142083s.0159557.0307718.0221426.02995786c.0061868-.00081432.0026049-.03321401.0026049-.03321401s.0216542.02295674.0286551.01823527C1.3823.8516781 1.3746478.81927841 1.3746478.81927841s.0133506.02442206.0214913.01888627c.0081406-.00553579.0110713-.04102869.0110713-.04102869s.0201888.02214242.0280038.02018866c.0078151-.00195377.0032563-.02800372.0032563-.02800372s.0131879.00814056.0156301.00260477c.0024422-.00553542-.0058613-.02474757-.0058613-.02474757s.0205144.01823527.0260501.01172259c.0055356-.0065123-.0039076-.03777254-.0039076-.03777254s.0206772.01693251.0286551.01172259c.0079778-.00520991.0032563-.03256263.0032563-.03256263M1.3261295.88472917s.0218169.02295674.0315857.02051453C1.367484.9028015 1.367484.87463484 1.367484.87463484s.019212.01986315.0280039.01432736c.0087918-.00553542.0071637-.03646978.0071637-.03646978s.0133507.02832922.0221426.02474756c.0087919-.00358202.013025-.0390753.013025-.0390753s.0158025.02136353.0299576.01953765"/>
  <path style="fill:#4d4d4d;fill-opacity:1;fill-rule:evenodd;stroke:#000;stroke-width:.00376262px;stroke-linecap:butt;stroke-linejoin:miter;stroke-opacity:1" d="M1.4996882.83816468s.0180722.02442207.0247475.01888627c.0066754-.00553542.0019538-.04102869.0019538-.04102869"/>
  <path style="fill:#4d4d4d;fill-rule:evenodd;stroke:#000;stroke-width:.00376262px;stroke-linecap:butt;stroke-linejoin:miter;stroke-opacity:1" d="M1.3443646.92087382c.0045587.00455854.0105828.01758389.0179094.01693251.0073266-.00065138.0091175-.01888627.0091175-.01888627s.0112341.01758388.0175838.01497874c.0063497-.00260515.0078151-.02539895.0078151-.02539895s.0149788.0203516.023445.01758389c.0084663-.00276771.0104201-.0286551.0104201-.0286551s.0172582.02409619.0247475.02018866c.0074894-.00390753.00521-.03581878.00521-.03581878M1.3850679.95799499s.018235.02165435.0221425.01953765c.0039075-.00211671-.0065125-.02800372-.0065125-.02800372s.020026.02149104.0312601.01758351C1.4431921.9632049 1.4456343.9338988 1.4456343.9338988s.0135134.02360774.02084.02018866c.0073266-.00341909.0084663-.03386502.0084663-.03386502s.0177466.02197986.0260501.01693251c.0083035-.00504698.0071638-.03712116.0071638-.03712116M1.4169792.98925523c.0065125.00455853.0185607.01514167.0260501.01237357.0074893-.00276769.0039074-.02344478.0039074-.02344478s.0227939.01904883.0312602.01628112c.0084663-.00276771.002605-.02735271.002605-.02735271s.0210029.02051453.0299576.01563012c.0089547-.00488441.0058612-.0351674.0058612-.0351674s.021817.02197986.0312601.0182349c.0094432-.0037446.0065126-.03321364.0065126-.03321364M1.460613 1.0159566c.0039076.0013023.0224682.0097688.0306089.0065126.0081406-.0032565.0019537-.0195376.0019537-.0195376s.0197005.0151413.0273527.0117226c.0076522-.0034191.0032562-.02539897.0032562-.02539897s.0232823.01953767.0319114.01497877c.008629-.00455894.002605-.03321404.002605-.03321404M1.4765687 1.0566597c.0035819.0107458.019212.0245847.027027.021817.0078151-.0027677.0032563-.0325627.0032563-.0325627s.0190491.0219799.0273525.0201891c.0083035-.0017912.0058613-.0273527.0058613-.0273527s.0182351.0094433.0234451.0052099c.00521-.0042331-.002605-.0221424-.002605-.0221424"/>
  <path style="fill:#4d4d4d;fill-rule:evenodd;stroke:#000;stroke-width:.00376262px;stroke-linecap:butt;stroke-linejoin:miter;stroke-opacity:1" d="M1.535507 1.0661031c.0059919.0309865.0187651.061881.0358189.0915007M1.5035957 1.0784767c.0051983.0211517.014605.0417956.0257244.0563333M1.3375264.70205288c.0032563.00455891.0079779.0286551.0156301.02735271.0076522-.00130239.0149788-.03256263.0149788-.03256263s.0100944.02263124.0143275.01888628c.0042332-.0037446.0026051-.03386502.0026051-.03386502s.0087918.01318792.0136762.00976883c.0048844-.00341909.0058613-.02344518.0058613-.02344518"/>
  <path style="fill:#4d4d4d;fill-opacity:1;fill-rule:evenodd;stroke:#000;stroke-width:.00376262px;stroke-linecap:butt;stroke-linejoin:miter;stroke-opacity:1" d="M1.2697962.58157157c-.053559-.00039523-.0838834.00815324-.0631715.03712116.0048788-.02662676.0411769-.01491871.0827091-.00976882.0061971.00998583.0136767.01736688.0097687.02735271-.0338208-.0018833-.0465449.00486838-.0521001.01563012.0153706-.00301678.0386258-.00620097.0592639.00390753.0132071.00646868.0199911.01747016.0253989.02735234 0 0 .0203516.00716405.02605-.00195377C1.3634137.6720954 1.354459.64669645 1.354459.64669645s.0161184.01774682.0227938.01563012c.0066753-.00211633.0039075-.02409619.0039075-.02409619s.0281667.02539895.0358189.02279381c.0076522-.00260515-.00521-.03321401-.00521-.03321401s.0203516.01790939.0280038.0162815c.0076522-.00162826.002605-.0227938.002605-.0227938C1.4351674.61245933 1.428681.60333144 1.4130716.5978527l.0143276-.00455891c-.0144938-.01393102-.0321929-.02273377-.0553564-.0227938.0091102-.00512603.0132451-.01224236.0136763-.02084004-.0310431.0107595-.0598246.01137024-.0905241.01107158-.0174627-.00016331-.0245596.01220358-.0253988.02084004z"/>
  <path style="fill:none;fill-rule:evenodd;stroke:#000;stroke-width:.00376262px;stroke-linecap:butt;stroke-linejoin:miter;stroke-opacity:1" d="M1.2893338.5854791s-.0014654-.00781506.0091175-.00846644c.0105828-.00065138.0224682.00569836.0332139.0058613.0107456.00016293.0097687-.00520992.0097687-.00520992"/>
  <path style="fill:#000;fill-opacity:1;fill-rule:nonzero;stroke:none;stroke-width:1;stroke-linecap:butt;stroke-linejoin:miter;stroke-miterlimit:4;stroke-dasharray:none;stroke-dashoffset:0;stroke-opacity:1" d="M249.7611 46.084866a2.2501001 2.2501001 0 1 1-4.5002 0 2.2501001 2.2501001 0 1 1 4.5002 0z" transform="matrix(.00376 0 0 .00376 .3710684 .4153352)"/>
  <path style="fill:none;fill-rule:evenodd;stroke:#000;stroke-width:.00376262px;stroke-linecap:butt;stroke-linejoin:miter;stroke-opacity:1" d="M1.2216036.59720132c.0101337-.00439635.0396825-.00016406.0644739.00195376"/>
  <path style="fill:#4d4d4d;fill-opacity:1;fill-rule:evenodd;stroke:#000;stroke-width:.00376262px;stroke-linecap:butt;stroke-linejoin:miter;stroke-opacity:1" d="M1.5559798.9000666c.004605.00368419.0678622.04142541.0764438.02947239.0128941-.01795972-.0211832-.0497345-.0211832-.0497345"/>
  <path style="fill:#4d4d4d;fill-opacity:1;fill-rule:evenodd;stroke:#000;stroke-width:.00376262px;stroke-linecap:butt;stroke-linejoin:miter;stroke-opacity:1" d="M1.5320336.84204313s.0780232.05794778.10039.04420841c.0161177-.00990082-.0064471-.05157679-.0064471-.05157679"/>
  <path style="fill:#4d4d4d;fill-opacity:1;fill-rule:evenodd;stroke:#000;stroke-width:.00376262px;stroke-linecap:butt;stroke-linejoin:miter;stroke-opacity:1" d="M1.578084.8153336s.0794852.05852048.1003901.0423665c.0058758-.00454027.0058448-.01485086.0035962-.02579045-.0035669-.01735383-.0850027-.10076469-.0850027-.10076469"/>
  <path style="fill:#4d4d4d;fill-opacity:1;fill-rule:evenodd;stroke:#000;stroke-width:.00376262px;stroke-linecap:butt;stroke-linejoin:miter;stroke-opacity:1" d="M1.575321.75731013c.0340773.0294724.1487994.10407677.1703868.07460176.0057038-.00778784-.0214421-.04361967-.03596-.06075016-.0145179-.0171305-.0577134-.05599066-.0577134-.05599066L1.575321.72415391"/>
  <path style="fill:#4d4d4d;fill-opacity:1;fill-rule:evenodd;stroke:#000;stroke-width:.00376262px;stroke-linecap:butt;stroke-linejoin:miter;stroke-opacity:1" d="M1.6471597.74257412s.1369657.08255589.1547296.05986537c.0075925-.00969798-.0091368-.04001751-.0209439-.05888625-.0057737-.0092267-.0481317-.06637097-.0481317-.06637097"/>
  <path style="fill:#4d4d4d;fill-opacity:1;fill-rule:evenodd;stroke:#000;stroke-width:.00376262px;stroke-linecap:butt;stroke-linejoin:miter;stroke-opacity:1" d="M1.7097883.71770686s.1295591.06935941.1538087.03960327C1.87307.74568597 1.8590675.7243698 1.8473099.71009128 1.8403207.70160359 1.7816271.62560586 1.7816271.62560586"/>
  <path style="fill:#4d4d4d;fill-opacity:1;fill-rule:evenodd;stroke:#000;stroke-width:.00376262px;stroke-linecap:butt;stroke-linejoin:miter;stroke-opacity:1" d="M1.7558388.67626132s.1797556.06970728.1998591.04144554c.0138032-.01940491-.0838119-.06723375-.1040741-.1215734"/>
  <path style="fill:#4d4d4d;fill-opacity:1;fill-rule:evenodd;stroke:#000;stroke-width:.00376262px;stroke-linecap:butt;stroke-linejoin:miter;stroke-opacity:1" d="M1.7899162.63021063s.2255797.08898505.2560407.03960363C2.0594219.64798541 1.961224.59244927 1.961224.59244927"/>
  <path style="fill:#4d4d4d;fill-opacity:1;fill-rule:evenodd;stroke:#000;stroke-width:.00376262px;stroke-linecap:butt;stroke-linejoin:miter;stroke-opacity:1" d="M1.5011797.72046973s.0135835.00460514.0317749.00460514c.0848456 0 .1188102-.02855144.1713077-.077365.0691079-.06425799.132109-.07644367.1795969-.07644367.0650042 0 .0819659.02026211.189728.02026211.001574.00867263.0094846.01312043.0257882.01197315 0 0 .0103613.0239463-.003684.03315622-.0182108.01194145-.0782858-.00368382-.0782858-.00368382s.0023025.01381506-.0147362.01289411c-.0170387-.00092096-.0534185-.0165783-.0534185-.0165783s-.0013816.01749925-.0128942.01289411C1.9248441.63757901 1.9032004.61086947 1.9032004.61086947s-.004605.02670954-.0221043.02763049c-.0174992.00092095-.0478925-.0239463-.0478925-.0239463s.0018421.02210402-.00921.0294724c-.0110521.007368-.0349984 0-.0349984 0s.0124336.01703839.003684.02026211c-.0087496.00322334-.0386824-.00736801-.0386824-.00736801s.0087496.02670916.0036841.03499812c-.0050656.00828934-.0239463-.00184191-.0239463-.00184191s.0105916.03131431-.0119731.03960327c-.0225648.00828933-.0782858-.00644705-.0782858-.00644705s.0310555.02641274.0110521.03039335C1.6104141.7624052 1.577163.72691678 1.577163.72691678s.0335762.02637396.0055261.0368404c-.0061016.00227666-.0239463-.0184202-.0239463-.0184202s-.005526.02302534-.0202622.02210439C1.5237445.76652004 1.4997982.74165279 1.4997982.74165279l.0013815-.02118306z"/>
</svg>
