<svg height="600" viewBox="0 0 1000 377.358" width="1200" xmlns="http://www.w3.org/2000/svg"><g fill-rule="evenodd" transform="translate(0,-0.001)"><path d="m 0,-61.32 h 1000 v 500 H 0 Z" fill="#d21034"/><path d="m 0,-61.32 h 500 v 500 H 0 Z"/></g><g transform="translate(-39.49355,14.065472) translate(557.3247,-14.064977)"><path d="M -174.08115,67.84501 H 138.41884 V 309.512 h -312.49999 z" fill="#fff" fill-rule="evenodd"/><g transform="translate(-517.83115)"><g transform="translate(0.75035071)" stroke="#000" stroke-width=".384"><path style="font-variation-settings:normal;-inkscape-stroke:none" d="m 461.322,156.08 10.63,22.157 3.202,-1.665 -0.513,-1.153 1.41,-0.512 -0.77,-1.409 -1.92,0.897 z" fill="#fff"/><path d="m 494.877,216.147 -21.772,-42.136 1.28,-0.513 20.876,35.989 z" fill="#ffce00"/><path d="m 485.656,192.837 -2.306,1.025 -2.561,-4.867 1.921,-1.024 z m -7.813,-47.899 6.148,22.413 2.945,-0.897 -0.384,-1.92 1.537,-0.129 -0.512,-1.409 -2.177,0.512 z" fill="#fff"/><path d="m 495.645,195.783 -10.373,-32.787 1.408,-0.256 9.734,27.28 z" fill="#ffce00"/><path d="m 491.675,176.956 -1.793,0.513 -1.665,-5.123 1.537,-0.769 z m -24.205,-31.506 9.605,25.743 2.817,-1.28 -0.512,-1.666 1.409,-0.512 -0.512,-1.28 -2.178,0.768 z" fill="#fff"/><path d="m 493.724,203.596 -15.753,-36.758 1.41,-0.512 14.6,32.019 z" fill="#ffce00"/><path style="font-variation-settings:normal;-inkscape-stroke:none" d="m 486.168,181.439 -1.665,0.896 -2.05,-5.123 1.41,-0.768 z" fill="#fff"/></g><path d="m 596.567,185.036 c 0,0 0.134,29.19 -5.501,45.2 -5.507,15.752 -9.863,23.323 -9.863,23.323 l -44.873,-1.026 c -6.335,9.796 -32.878,13.819 -32.878,13.819 l -0.13,-17.79 34.586,-24.089 c 0.132,0.088 0.237,0.236 0.342,0.407 z"/><path d="m 594.18,217.185 c -0.129,0.797 -0.265,1.59 -0.41,2.374 -0.707,3.854 -1.593,7.521 -2.704,10.676 -5.507,15.753 -9.863,23.324 -9.863,23.324 l -44.873,-1.026 c -6.335,9.796 -32.878,13.819 -32.878,13.819 l -0.025,-3.396 -0.024,-3.283 -0.033,-4.574 c 29.665,-12.582 60.131,-25.284 90.81,-37.914 z" fill="#d21034"/><path d="m 581.323,159.025 c 0,0 2.693,18.315 2.18,34.196 l -45.979,30.811 v 0.049 c -30.482,21.644 -36.247,23.828 -36.247,23.828 l -2.685,-12.81 37.272,-34.7 c 0.025,0.016 0.04,0.047 0.065,0.065 z"/><path d="m 583.499,184.381 c 0.085,2.944 0.099,5.933 0.005,8.84 l -45.98,30.811 v 0.049 c -30.481,21.644 -36.247,23.828 -36.247,23.828 l -0.475,-2.269 c 31.45,-23.566 31.893,-23.824 82.697,-61.259 z" fill="#d21034"/><path d="m 556.868,143.656 c 0,0 6.4,11.262 8.578,28.808 l -36.621,33.562 c 0,0 -0.016,-0.129 -0.017,-0.147 -26.523,25.876 -30.338,27.686 -30.338,27.686 l 2.425,-19.222 23.307,-30.095 c 0.023,0.011 0.043,0.037 0.065,0.049 z"/><path d="m 563.954,163.779 c 0.687,2.657 1.107,5.585 1.492,8.685 l -36.621,33.562 c 0,0 -0.016,-0.129 -0.017,-0.147 -26.523,25.876 -30.338,27.686 -30.338,27.686 l 0.564,-4.474 c 35.986,-35.986 47.304,-47.696 64.92,-65.312 z" fill="#d21034"/><path style="font-variation-settings:normal;-inkscape-stroke:none" d="m 534.452,156.08 -10.502,22.157 -3.202,-1.665 0.512,-1.153 -1.409,-0.512 0.64,-1.409 2.05,0.897 z" fill="#fff" stroke="#000" stroke-width=".384"/><path d="m 500.897,216.147 21.772,-42.136 -1.28,-0.513 -20.62,35.989 z" fill="#ffce00" stroke-width=".384" stroke="#000"/><g stroke="#000" stroke-width=".384"><path d="m 596.567,185.281 c 0,0 -0.384,23.95 -3.33,37.526 -2.919,9.65 -4.847,17.391 -11.819,29.986 m -24.425,-108.88 c 0,0 6.147,10.63 8.324,28.176" fill="none"/><path d="m 549.18,144.81 c 0,0 1.537,-1.281 2.562,-1.281 3.202,0.128 7.428,0 7.428,0 0,0 -7.556,1.665 -8.581,1.921 -0.512,0.256 -0.768,-0.128 -1.409,-0.64 z" fill="#fff"/><path d="m 549.18,144.81 c 0.769,0.768 1.025,0.768 1.409,0.64 2.946,-0.768 8.581,-1.921 8.581,-1.921 0,0 -4.995,2.305 -6.532,2.69 -2.305,0.64 -3.586,-1.537 -3.458,-1.41 z"/><g fill="#ffce00"><path d="m 559.938,140.327 2.562,-2.818 c 0,0 1.537,-0.64 2.946,0.513 l 5.123,-12.68 c 0,0 -9.35,7.3 -10.759,8.581 0,0 1.793,1.537 1.025,2.69 -0.64,1.153 -2.433,2.818 -2.433,2.818 z m -59.042,74.027 57.634,-72.746 -1.153,-0.384 -56.48,70.568 z"/><path d="m 553.535,139.174 2.177,-3.201 8.069,5.507 -2.306,3.202 z"/><path d="m 554.815,138.918 1.153,-1.665 6.404,4.483 -1.153,1.665 z"/></g><path d="m 559.17,143.529 c 0.128,0.256 0.64,2.05 1.025,2.69 0.384,0.512 2.945,2.817 3.97,3.201 1.024,0.385 3.714,3.586 3.97,9.734 0,0 -2.05,0.256 -2.433,0.512 0,0 -0.385,-5.379 -2.178,-7.172 -1.664,-1.793 -4.61,-4.867 -5.122,-8.709 z"/><path d="m 565.702,159.538 c 0,0 -0.385,-5.379 -2.178,-7.172 -1.793,-1.793 -4.738,-4.867 -5.122,-8.58 l -0.64,0.383 c 0,0 0.255,3.586 1.792,5.892 1.665,2.305 3.458,4.098 4.099,9.99 0,0 1.152,-0.257 2.049,-0.513 z" fill="#d21034"/><path d="m 561.603,160.563 2.05,-0.513 c -0.64,-5.89 -2.434,-7.684 -4.099,-9.99 -1.537,-2.305 -1.793,-5.89 -1.793,-5.89 l -0.768,0.384 c 0,0 0,3.458 2.177,8.068 0.384,0.769 2.05,2.818 2.433,7.94 z" fill="#d21034"/><path d="m 559.17,143.529 c 0,0 -2.177,-1.665 -3.33,-2.562 -3.074,-2.433 -6.66,-2.945 -8.325,-2.049 0,0 -1.024,1.537 -0.384,2.434 0,0 2.946,-0.897 5.891,0.256 2.434,0.896 6.148,1.921 6.148,1.921 z"/><path d="m 559.17,143.529 c 0,0 -3.714,-1.025 -6.148,-1.921 -2.945,-1.153 -5.891,-0.256 -5.891,-0.256 0,0 -0.128,1.024 0.897,2.177 0.384,0.512 1.024,-1.409 3.97,-0.897 1.152,0.129 7.172,0.897 7.172,0.897 z" fill="#d21034"/><path d="m 559.17,143.529 c 0,0 -6.02,-0.768 -7.172,-0.897 -2.946,-0.512 -3.586,1.537 -3.97,0.897 l 1.152,1.28 c 0,0 1.537,-1.28 2.562,-1.28 3.202,0.128 7.428,0 7.428,0 z" fill="#d21034"/><path d="m 581.327,159.282 c 0,0 2.69,16.137 2.177,33.94" fill="none"/><path d="m 573.642,159.026 c 0,0 1.665,-1.025 2.69,-0.897 3.202,0.513 7.428,1.153 7.428,1.153 0,0 -7.812,0.512 -8.837,0.512 -0.64,0.128 -0.768,-0.256 -1.28,-0.768 z" fill="#fff"/><path d="m 573.642,159.026 c 0.513,0.896 0.769,0.896 1.281,0.768 2.946,-0.256 8.837,-0.512 8.837,-0.512 0,0 -5.379,1.409 -7.044,1.665 -2.433,0.256 -3.33,-2.05 -3.074,-1.921 z"/><g fill="#ffce00"><path d="m 584.913,156.208 2.945,-2.433 c 0,0 1.665,-0.384 2.818,1.024 l 7.044,-11.782 c 0,0 -10.374,5.763 -11.91,6.788 0,0 1.408,1.793 0.512,2.817 -0.897,1.153 -2.818,2.434 -2.818,2.434 z m -86.322,78.894 84.785,-77.87 -1.153,-0.64 -83.888,76.717 z"/><path d="m 578.765,154.031 2.69,-2.818 7.044,6.788 -2.818,2.69 z"/><path d="m 580.046,154.031 1.409,-1.537 5.763,5.507 -1.537,1.41 z"/></g><path d="m 583.76,159.282 c 0,0.256 0.256,2.05 0.512,2.69 0.257,0.64 2.434,3.33 3.33,3.97 1.025,0.512 3.202,3.97 2.434,10.118 0,0 -1.921,0 -2.434,0.128 0,0 0.385,-5.38 -1.024,-7.429 -1.41,-2.049 -3.97,-5.635 -3.714,-9.349 z"/><path d="m 587.602,176.06 c 0,0 0.385,-5.38 -1.024,-7.429 -1.41,-2.049 -3.97,-5.507 -3.714,-9.22 l -0.64,0.255 c 0,0 -0.385,3.586 0.896,6.148 1.152,2.561 2.561,4.482 2.433,10.374 0,0 1.153,0 2.05,-0.128 z" fill="#d21034"/><path d="m 583.376,176.444 2.177,-0.256 c 0.128,-5.892 -1.28,-7.813 -2.433,-10.374 -1.281,-2.562 -0.897,-6.148 -0.897,-6.148 l -0.896,0.128 c 0,0 -0.513,3.586 0.896,8.325 0.256,0.897 1.665,3.202 1.153,8.325 z" fill="#d21034"/><path d="m 583.76,159.282 c 0,0 -1.921,-2.05 -2.946,-3.202 -2.561,-2.817 -6.147,-3.842 -7.94,-3.202 0,0 -1.28,1.41 -0.897,2.306 0,0 3.202,-0.385 5.892,1.152 2.305,1.281 5.891,2.946 5.891,2.946 z"/><path d="m 583.76,159.282 c 0,0 -3.586,-1.665 -5.891,-2.946 -2.69,-1.537 -5.892,-1.152 -5.892,-1.152 0,0 -0.256,1.024 0.64,2.433 0.385,0.512 1.153,-1.28 4.1,-0.384 1.152,0.384 7.043,2.049 7.043,2.049 z" fill="#d21034"/><path d="m 583.76,159.282 c 0,0 -5.891,-1.665 -7.044,-2.05 -2.946,-0.896 -3.842,0.897 -4.098,0.385 l 1.024,1.409 c 0,0 1.665,-1.025 2.69,-0.897 3.202,0.513 7.428,1.153 7.428,1.153 z" fill="#d21034"/><path d="m 600.666,183.488 3.33,-1.921 c 0,0 1.665,-0.256 2.561,1.409 l 8.837,-10.63 c 0,0 -11.27,4.226 -12.935,4.994 0,0 1.153,2.05 0.128,2.946 -1.025,0.897 -3.074,1.921 -3.074,1.921 z M 503.458,248.55 599,184.255 l -1.153,-0.768 -94.39,63.268 z" fill="#ffce00"/><path d="m 599,203.98 c 0,0 1.025,-7.172 0.129,-11.527 -0.64,-4.482 -1.793,-5.763 -1.793,-5.763 l -0.897,0.256 c 0,0 2.562,12.551 -0.384,17.546 0,0 1.793,-0.128 2.946,-0.512 z" fill="#d21034"/><path d="m 596.055,204.492 c 2.946,-6.147 0.384,-17.546 0.384,-17.546 l -0.768,0.128 c 0,0 0.896,14.6 -0.768,17.546 z" fill="#d21034"/><path d="m 594.903,180.414 3.073,-2.305 6.02,7.684 -3.202,2.434 z" fill="#ffce00"/><path d="m 596.183,180.67 1.665,-1.28 4.739,6.275 -1.665,1.153 z" fill="#ffce00"/><path d="m 602.715,202.699 -3.714,1.28 c 0,0 1.024,-7.171 0.128,-11.526 -0.64,-4.482 -1.793,-5.763 -1.793,-5.763 l 1.28,-1.025 c 0,0 1.666,0.897 3.074,5.123 0.385,1.409 1.41,6.532 1.025,11.911 z"/><path d="m 598.104,186.69 c 0,0 -4.482,0.896 -5.891,0.768 -1.409,-0.128 -1.921,-0.768 -1.921,-0.768 0.512,-0.128 2.305,-0.384 3.842,0 1.537,0.384 3.97,0 3.97,0 z m 0.769,-0.128 c 0,0 -1.409,-2.562 -2.306,-3.714 -2.049,-2.562 -3.97,-3.843 -5.89,-3.458 0,0 -1.41,1.28 -1.154,2.177 0,0 3.074,0.128 5.636,2.049 2.049,1.665 3.714,2.946 3.714,2.946 z"/><g fill="#d21034"><path d="m 598.873,186.562 c 0,0 -1.665,-1.281 -3.714,-2.946 -2.562,-1.921 -5.636,-2.05 -5.636,-2.05 0,0 0.129,1.666 0.385,3.075 0.128,0.768 1.408,-1.025 4.098,0.256 1.025,0.512 4.867,1.665 4.867,1.665 z"/><path d="m 598.873,186.562 c 0,0 -3.842,-1.153 -4.867,-1.665 -2.69,-1.281 -3.97,0.512 -4.098,-0.256 l 0.384,2.049 c 0,0 3.33,-0.384 4.354,0 0.897,0.384 4.227,-0.128 4.227,-0.128 z"/></g></g><path d="m 399.334,185.036 c 0,0 -0.134,29.19 5.501,45.2 5.508,15.752 9.864,23.323 9.864,23.323 l 44.873,-1.026 c 6.335,9.796 32.877,13.819 32.877,13.819 l 0.13,-17.79 -34.586,-24.089 c -0.132,0.088 -0.237,0.236 -0.342,0.407 z"/><path d="m 401.72,217.185 c 0.13,0.797 0.267,1.59 0.41,2.374 0.708,3.854 1.595,7.521 2.705,10.676 5.508,15.753 9.864,23.324 9.864,23.324 l 44.873,-1.026 c 6.335,9.796 32.877,13.819 32.877,13.819 l 0.025,-3.396 0.024,-3.283 0.034,-4.574 C 462.867,242.517 432.4,229.815 401.721,217.185 Z" fill="#d21034"/><path d="m 414.579,159.025 c 0,0 -2.694,18.315 -2.181,34.196 l 45.98,30.811 v 0.049 c 30.481,21.644 36.246,23.828 36.246,23.828 l 2.686,-12.81 -37.272,-34.7 c -0.026,0.016 -0.04,0.047 -0.065,0.065 z"/><path d="m 412.402,184.381 a 146.003,146.003 0 0 0 -0.005,8.84 l 45.98,30.811 v 0.049 c 30.482,21.644 36.247,23.828 36.247,23.828 l 0.476,-2.269 c -31.45,-23.566 -31.894,-23.824 -82.698,-61.259 z" fill="#d21034"/><path d="m 439.033,143.656 c 0,0 -6.4,11.262 -8.577,28.808 l 36.62,33.562 c 0,0 0.016,-0.129 0.017,-0.147 26.524,25.876 30.339,27.686 30.339,27.686 l -2.425,-19.222 -23.308,-30.095 c -0.023,0.011 -0.042,0.037 -0.065,0.049 z"/><path d="m 431.947,163.779 c -0.687,2.657 -1.106,5.585 -1.491,8.685 l 36.62,33.562 c 0,0 0.016,-0.129 0.017,-0.147 26.524,25.876 30.339,27.686 30.339,27.686 l -0.565,-4.474 c -35.986,-35.986 -47.304,-47.696 -64.92,-65.312 z" fill="#d21034"/><path d="m 399.334,185.281 c 0,0 0.384,23.95 3.33,37.526 2.92,9.65 4.847,17.391 11.82,29.986" fill="none" stroke="#000" stroke-width=".384"/><path d="m 556.733,143.656 -32.6,40.625 c -0.018,-0.009 -0.032,-0.025 -0.05,-0.033 l -23.307,30.095 -2.441,19.222 c 0,0 3.841,-1.8 30.485,-27.67 v 0.13 l 36.637,-33.56 c -2.177,-17.547 -8.724,-28.81 -8.724,-28.81 z" fill="none"/><g stroke="#000" stroke-width=".384"><path d="m 438.909,143.913 c 0,0 -6.148,10.63 -8.325,28.176" fill="none"/><path d="m 446.721,144.81 c 0,0 -1.537,-1.281 -2.561,-1.281 -3.202,0.128 -7.428,0 -7.428,0 0,0 7.556,1.665 8.58,1.921 0.513,0.256 0.769,-0.128 1.41,-0.64 z" fill="#fff"/><path d="m 446.721,144.81 c -0.768,0.768 -1.024,0.768 -1.409,0.64 -2.945,-0.768 -8.58,-1.921 -8.58,-1.921 0,0 4.994,2.305 6.531,2.69 2.306,0.64 3.586,-1.537 3.458,-1.41 z"/><g fill="#ffce00"><path d="m 435.963,140.327 -2.561,-2.818 c 0,0 -1.537,-0.64 -2.946,0.513 l -5.123,-12.68 c 0,0 9.35,7.3 10.758,8.581 0,0 -1.793,1.537 -1.024,2.69 0.64,1.153 2.433,2.818 2.433,2.818 z m 59.042,74.027 -57.633,-72.746 1.153,-0.384 56.48,70.568 z"/><path d="m 442.367,139.174 -2.177,-3.201 -8.07,5.507 2.306,3.202 z"/><path d="m 441.086,138.918 -1.153,-1.665 -6.403,4.483 1.152,1.665 z"/></g><path d="m 436.732,143.529 c -0.129,0.256 -0.64,2.05 -1.025,2.69 -0.384,0.512 -2.946,2.817 -3.97,3.201 -1.025,0.385 -3.714,3.586 -3.97,9.734 0,0 2.049,0.256 2.433,0.512 0,0 0.384,-5.379 2.177,-7.172 1.665,-1.793 4.61,-4.867 5.123,-8.709 z"/><path d="m 430.2,159.538 c 0,0 0.384,-5.379 2.177,-7.172 1.793,-1.793 4.739,-4.867 5.123,-8.58 l 0.64,0.383 c 0,0 -0.256,3.586 -1.793,5.892 -1.665,2.305 -3.458,4.098 -4.098,9.99 0,0 -1.153,-0.257 -2.05,-0.513 z" fill="#d21034"/><path d="m 434.298,160.563 -2.049,-0.513 c 0.64,-5.89 2.433,-7.684 4.098,-9.99 1.537,-2.305 1.793,-5.89 1.793,-5.89 l 0.769,0.384 c 0,0 0,3.458 -2.177,8.068 -0.385,0.769 -2.05,2.818 -2.434,7.94 z" fill="#d21034"/><path d="m 436.732,143.529 c 0,0 2.177,-1.665 3.33,-2.562 3.073,-2.433 6.66,-2.945 8.324,-2.049 0,0 1.025,1.537 0.384,2.434 0,0 -2.945,-0.897 -5.89,0.256 -2.434,0.896 -6.148,1.921 -6.148,1.921 z"/><path d="m 436.732,143.529 c 0,0 3.714,-1.025 6.147,-1.921 2.946,-1.153 5.891,-0.256 5.891,-0.256 0,0 0.129,1.024 -0.896,2.177 -0.384,0.512 -1.025,-1.409 -3.97,-0.897 -1.153,0.129 -7.172,0.897 -7.172,0.897 z" fill="#d21034"/><path d="m 436.732,143.529 c 0,0 6.019,-0.768 7.172,-0.897 2.945,-0.512 3.586,1.537 3.97,0.897 l -1.153,1.28 c 0,0 -1.537,-1.28 -2.561,-1.28 -3.202,0.128 -7.428,0 -7.428,0 z" fill="#d21034"/><path d="m 414.575,159.282 c 0,0 -2.69,16.137 -2.177,33.94" fill="none"/><path d="m 422.26,159.026 c 0,0 -1.666,-1.025 -2.69,-0.897 -3.202,0.513 -7.429,1.153 -7.429,1.153 0,0 7.813,0.512 8.837,0.512 0.64,0.128 0.769,-0.256 1.281,-0.768 z" fill="#fff"/><path d="m 422.26,159.026 c -0.513,0.896 -0.77,0.896 -1.282,0.768 -2.945,-0.256 -8.837,-0.512 -8.837,-0.512 0,0 5.38,1.409 7.044,1.665 2.434,0.256 3.33,-2.05 3.074,-1.921 z"/><g fill="#ffce00"><path d="m 410.989,156.208 -2.946,-2.433 c 0,0 -1.665,-0.384 -2.818,1.024 l -7.044,-11.782 c 0,0 10.374,5.763 11.911,6.788 0,0 -1.409,1.793 -0.512,2.817 0.896,1.153 2.818,2.434 2.818,2.434 z m 86.321,78.894 -84.784,-77.87 1.152,-0.64 83.889,76.717 z"/><path d="m 417.136,154.031 -2.69,-2.818 -7.043,6.788 2.817,2.69 z"/><path d="m 415.856,154.031 -1.41,-1.537 -5.763,5.507 1.537,1.41 z"/></g><path d="m 412.141,159.282 c 0,0.256 -0.256,2.05 -0.512,2.69 -0.256,0.64 -2.433,3.33 -3.33,3.97 -1.024,0.512 -3.202,3.97 -2.433,10.118 0,0 1.92,0 2.433,0.128 0,0 -0.384,-5.38 1.025,-7.429 1.409,-2.049 3.97,-5.635 3.714,-9.349 z"/><path d="m 408.3,176.06 c 0,0 -0.385,-5.38 1.024,-7.429 1.409,-2.049 3.97,-5.507 3.714,-9.22 l 0.64,0.255 c 0,0 0.384,3.586 -0.896,6.148 -1.153,2.561 -2.562,4.482 -2.434,10.374 0,0 -1.152,0 -2.049,-0.128 z" fill="#d21034"/><path d="m 412.526,176.444 -2.178,-0.256 c -0.128,-5.892 1.281,-7.813 2.434,-10.374 1.28,-2.562 0.896,-6.148 0.896,-6.148 l 0.897,0.128 c 0,0 0.512,3.586 -0.897,8.325 -0.256,0.897 -1.665,3.202 -1.152,8.325 z" fill="#d21034"/><path d="m 412.141,159.282 c 0,0 1.921,-2.05 2.946,-3.202 2.562,-2.817 6.148,-3.842 7.94,-3.202 0,0 1.281,1.41 0.897,2.306 0,0 -3.202,-0.385 -5.891,1.152 -2.306,1.281 -5.892,2.946 -5.892,2.946 z"/><path d="m 412.141,159.282 c 0,0 3.586,-1.665 5.892,-2.946 2.69,-1.537 5.891,-1.152 5.891,-1.152 0,0 0.256,1.024 -0.64,2.433 -0.384,0.512 -1.153,-1.28 -4.099,-0.384 -1.152,0.384 -7.044,2.049 -7.044,2.049 z" fill="#d21034"/><path d="m 412.141,159.282 c 0,0 5.892,-1.665 7.044,-2.05 2.946,-0.896 3.843,0.897 4.099,0.385 l -1.025,1.409 c 0,0 -1.665,-1.025 -2.69,-0.897 -3.201,0.513 -7.428,1.153 -7.428,1.153 z" fill="#d21034"/><path d="m 395.236,183.488 -3.33,-1.921 c 0,0 -1.665,-0.256 -2.562,1.409 l -8.837,-10.63 c 0,0 11.27,4.226 12.936,4.994 0,0 -1.153,2.05 -0.128,2.946 1.025,0.896 3.073,1.921 3.073,1.921 z m 97.208,65.062 -95.544,-64.295 1.152,-0.768 94.39,63.268 z" fill="#ffce00"/><path d="m 396.9,203.98 c 0,0 -1.024,-7.172 -0.127,-11.527 0.64,-4.482 1.793,-5.763 1.793,-5.763 l 0.896,0.256 c 0,0 -2.561,12.551 0.384,17.546 0,0 -1.793,-0.128 -2.945,-0.512 z" fill="#d21034"/><path d="m 399.846,204.492 c -2.945,-6.147 -0.384,-17.546 -0.384,-17.546 l 0.769,0.128 c 0,0 -0.897,14.6 0.768,17.546 z" fill="#d21034"/><path d="m 400.999,180.414 -3.074,-2.305 -6.02,7.684 3.203,2.434 z" fill="#ffce00"/><path d="m 399.718,180.67 -1.665,-1.28 -4.738,6.275 1.665,1.153 z" fill="#ffce00"/><path d="m 393.186,202.699 3.715,1.28 c 0,0 -1.025,-7.171 -0.128,-11.526 0.64,-4.482 1.793,-5.763 1.793,-5.763 l -1.281,-1.025 c 0,0 -1.665,0.897 -3.074,5.123 -0.384,1.409 -1.409,6.532 -1.025,11.911 z"/><path d="m 397.797,186.69 c 0,0 4.483,0.896 5.892,0.768 1.408,-0.128 1.92,-0.768 1.92,-0.768 -0.512,-0.128 -2.305,-0.384 -3.842,0 -1.537,0.384 -3.97,0 -3.97,0 z m -0.768,-0.128 c 0,0 1.408,-2.562 2.305,-3.714 2.05,-2.562 3.97,-3.843 5.891,-3.458 0,0 1.41,1.28 1.153,2.177 0,0 -3.074,0.128 -5.635,2.049 -2.05,1.665 -3.714,2.946 -3.714,2.946 z"/><g fill="#d21034"><path d="m 397.029,186.562 c 0,0 1.665,-1.281 3.714,-2.946 2.561,-1.921 5.635,-2.05 5.635,-2.05 0,0 -0.128,1.666 -0.384,3.075 -0.128,0.768 -1.409,-1.025 -4.099,0.256 -1.024,0.512 -4.866,1.665 -4.866,1.665 z"/><path d="m 397.029,186.562 c 0,0 3.842,-1.153 4.866,-1.665 2.69,-1.281 3.97,0.512 4.099,-0.256 l -0.384,2.049 c 0,0 -3.33,-0.384 -4.355,0 -0.896,0.384 -4.226,-0.128 -4.226,-0.128 z"/></g></g><path d="m 343.75,289.533 c 3.074,-2.177 20.876,-11.527 28.304,-15.753 7.3,-4.226 14.729,-9.477 19.852,-12.551 5.379,-3.202 26.383,-12.68 30.481,-13.704 7.429,-1.793 40.984,-4.227 75.564,-4.227 34.58,0 81.71,8.453 86.065,8.453 4.227,0 32.531,19.98 38.807,24.078 6.275,4.227 33.427,15.753 33.427,15.753 v 17.93 h -312.5 z" fill="#007e3a"/><g stroke="#000"><path d="m 418.93,238.304 c 0,0 3.201,6.147 4.738,7.428 1.537,1.28 2.177,1.793 4.483,2.049 2.433,0.256 20.491,2.177 22.028,2.305 1.537,0.385 2.818,7.429 3.97,7.94 1.025,0.513 1.281,0.77 3.074,1.538 1.921,0.896 6.916,2.305 37.014,10.886 0,0 1.537,-4.61 -0.513,-5.379 -6.531,-2.05 -11.782,-3.586 -22.797,-7.3 -3.074,-1.025 -5.507,-3.202 -7.044,-4.995 -1.665,-1.793 -7.684,-8.325 -8.965,-8.965 -1.28,-0.513 -3.842,-2.05 -8.709,-2.306 -4.61,-0.256 -27.28,-3.201 -27.28,-3.201 z m 157.914,0 c 0,0 -3.074,6.147 -4.61,7.428 -1.665,1.28 -2.178,1.793 -4.483,2.049 -2.433,0.256 -20.492,2.177 -22.029,2.305 -1.665,0.385 -2.945,7.429 -3.97,7.94 -1.025,0.513 -1.28,0.77 -3.202,1.538 -1.793,0.896 -6.788,2.305 -36.885,10.886 0,0 -1.537,-4.61 0.512,-5.379 6.532,-2.05 11.783,-3.586 22.797,-7.3 3.074,-1.025 5.508,-3.202 7.044,-4.995 1.537,-1.793 7.557,-8.325 8.966,-8.965 1.28,-0.513 3.97,-2.05 8.58,-2.306 4.74,-0.256 27.28,-3.201 27.28,-3.201 z" fill="#ffce00" stroke-width=".512"/><g stroke-width=".615"><g fill="#ffce00" stroke-width=".384"><path d="m 469.262,237.279 c 0,0 6.02,-0.512 5.636,3.202 -0.129,3.586 -6.148,0.768 -6.148,0.768 0,0 0.256,-1.793 0.512,-3.97 z M 398.95,221.014 c 1.024,-0.128 0.512,1.024 1.537,1.665 l 67.366,9.861 0.513,1.537 c 0,0 0.896,0.128 0.896,1.537 0,1.28 -0.896,7.3 -1.409,7.428 -1.28,0.513 -1.28,0.513 -1.024,0.513 0.256,0 -0.256,1.92 -1.025,1.92 -0.769,0 -66.854,-9.99 -66.854,-9.99 0,0 -2.05,1.538 -2.946,0.513 0,0 -1.024,-3.202 -0.256,-8.197 0.64,-3.842 1.153,-6.531 3.202,-6.787 z"/><path d="m 474.898,240.48 c 0.64,3.587 -6.148,0.77 -6.148,0.77 0,0 0.128,-0.897 0.256,-2.05 0,0 2.305,0.384 3.074,0.384 0.768,0 2.69,-1.024 2.818,0.897 z"/></g><path d="m 400.487,222.679 c 0,0 -0.769,0.384 -0.897,1.665 m 2.434,-1.281 c 0,0 -0.769,0.384 -0.897,1.665 m 3.073,-1.538 c 0,0 -0.896,0.385 -0.896,1.666 m 2.69,-1.409 c 0,0 -0.769,0.256 -0.897,1.665 m 2.69,-1.409 c 0,0 -0.769,0.384 -0.897,1.665 m 6.148,-0.768 c 0,0 -0.769,0.384 -0.897,1.665 m 2.946,-1.409 c 0,0 -0.896,0.384 -0.896,1.665 m 2.817,-1.409 c 0,0 -0.768,0.384 -0.896,1.665 m 2.818,-1.409 c 0,0 -0.641,0.384 -0.897,1.665 m 2.945,-1.409 c 0,0 -0.768,0.384 -0.896,1.665 m 2.818,-1.409 c 0,0 -0.769,0.385 -0.897,1.793 m 2.817,-1.536 c 0,0 -0.64,0.384 -0.896,1.664 m 2.818,-1.152 c 0,0 -0.769,0.384 -0.897,1.665 m 2.818,-1.409 c 0,0 -0.769,0.384 -0.897,1.665 m 2.818,-1.409 c 0,0 -0.768,0.512 -0.897,1.793 m 2.946,-1.537 c 0,0 -0.768,0.384 -0.896,1.665 m 2.689,-1.409 c 0,0 -0.768,0.513 -0.896,1.793 m 2.945,-1.536 c 0,0 -0.896,0.384 -0.896,1.665 m 2.818,-1.409 c 0,0 -0.769,0.384 -0.897,1.793 m 2.818,-1.409 c 0,0 -0.769,0.384 -0.897,1.665 m 2.818,-1.281 c 0,0 -0.769,0.384 -1.025,1.665 m 2.946,-1.537 c 0,0 -0.769,0.513 -0.897,1.793 m 10.502,-0.384 c 0,0 -0.768,0.384 -0.896,1.665 m 2.817,-1.409 c 0,0 -0.768,0.384 -0.896,1.665 m -8.71,-2.946 c 0,0 -0.768,0.385 -0.896,1.665 m 2.946,-1.536 c 0,0 -0.768,0.512 -1.024,1.793 m 2.689,-1.409 c 0,0 -0.768,0.384 -0.896,1.665 m 2.817,-1.409 c 0,0 -0.64,0.384 -0.896,1.665 m 9.477,-0.256 c 0,0 -0.768,0.384 -0.896,1.665 m 2.817,-1.409 c 0,0 -0.768,0.384 -0.896,1.665 m 2.561,-1.409 c 0,0 -0.768,0.384 -0.896,1.793 m 2.945,-1.537 c 0,0 -0.768,0.384 -0.896,1.665 m -66.599,-6.276 69.288,10.759 m -69.544,-9.478 69.416,10.758 m -69.8,-9.349 69.416,10.758 m -69.928,-9.221 69.416,10.758 m -69.416,-9.606 69.416,10.63 m -69.672,-9.861 69.416,10.63 m -69.545,-9.989 69.289,10.758 m -69.16,-10.887 69.416,10.63 m -69.416,-11.782 69.416,10.758 M 396.9,232.54 l 69.289,10.758 m -68.519,-12.038 69.415,10.758" stroke-width=".384" fill="none"/><g fill="#ffce00" stroke-width=".384"><path d="m 409.452,229.595 c 0.896,-3.97 1.921,-5.636 1.921,-5.636 -1.28,-1.152 -1.409,-0.384 -1.409,-0.384 -0.896,0 -1.409,0.897 -2.433,6.404 -0.897,5.507 0.768,7.3 0.768,7.3 0.897,0.512 1.793,0.256 1.793,0.256 0,0 -1.665,-3.458 -0.64,-7.94 z m 48.028,7.172 c 0.896,-4.099 2.049,-6.148 2.049,-6.148 -0.513,-1.153 -1.153,-0.256 -1.153,-0.256 -0.896,0 -1.793,1.28 -2.818,6.66 -0.896,5.507 0.769,7.3 0.769,7.3 0.896,0.384 1.793,0.256 1.793,0.256 0,0 -1.665,-3.458 -0.64,-7.812 z m 9.861,1.793 c 0.256,-4.099 -0.128,-6.148 -0.128,-6.148 0.769,-1.024 1.28,0.128 1.28,0.128 0.897,0.256 1.154,1.409 0.513,6.916 -0.641,5.507 -2.561,6.276 -2.561,6.276 -0.897,0.128 -1.921,-0.128 -1.921,-0.128 0,0 2.561,-2.562 2.817,-7.044 z m 59.299,-1.281 c 0,0 -6.02,-0.512 -5.764,3.202 0.256,3.586 6.276,0.768 6.276,0.768 0,0 -0.257,-1.793 -0.513,-3.97 z m 70.312,-16.265 c -1.025,-0.128 -0.512,1.024 -1.537,1.665 l -67.367,9.861 -0.64,1.537 c 0,0 -0.769,0.128 -0.769,1.537 0,1.28 0.769,7.3 1.41,7.428 1.28,0.513 1.28,0.513 1.024,0.513 -0.384,0 0.256,1.92 0.896,1.92 0.897,0 66.983,-9.99 66.983,-9.99 0,0 1.92,1.538 2.817,0.513 0,0 1.153,-3.202 0.257,-8.197 -0.64,-3.842 -1.153,-6.531 -3.074,-6.787 z"/><path d="m 520.876,240.48 c -0.512,3.587 6.276,0.77 6.276,0.77 0,0 -0.128,-0.897 -0.385,-2.05 0,0 -2.305,0.384 -3.073,0.384 -0.64,0 -2.562,-1.024 -2.818,0.897 z"/></g><path d="m 595.415,222.679 c 0,0 0.64,0.384 0.896,1.665 m -2.561,-1.281 c 0,0 0.897,0.384 0.897,1.665 M 591.7,223.19 c 0,0 0.77,0.385 0.897,1.666 m -2.817,-1.409 c 0,0 0.768,0.256 1.024,1.665 m -2.817,-1.409 c 0,0 0.768,0.384 0.896,1.665 m -6.147,-0.768 c 0,0 0.896,0.384 0.896,1.665 m -2.817,-1.409 c 0,0 0.768,0.384 0.896,1.665 m -2.946,-1.409 c 0,0 0.897,0.384 0.897,1.665 m -2.818,-1.409 c 0,0 0.897,0.384 0.897,1.665 m -2.818,-1.409 c 0,0 0.769,0.384 0.897,1.665 m -2.946,-1.409 c 0,0 0.896,0.385 0.896,1.793 m -2.817,-1.536 c 0,0 0.768,0.384 0.896,1.664 m -2.689,-1.152 c 0,0 0.768,0.384 0.896,1.665 m -2.817,-1.409 c 0,0 0.64,0.384 0.896,1.665 m -2.945,-1.409 c 0,0 0.768,0.512 0.896,1.793 m -2.818,-1.537 c 0,0 0.769,0.384 0.897,1.665 m -2.818,-1.409 c 0,0 0.897,0.513 0.897,1.793 m -2.818,-1.536 c 0,0 0.769,0.384 0.897,1.665 m -2.818,-1.409 c 0,0 0.769,0.384 0.897,1.793 m -2.946,-1.409 c 0,0 0.896,0.384 0.896,1.665 m -2.689,-1.281 c 0,0 0.768,0.384 0.896,1.665 m -2.817,-1.537 c 0,0 0.768,0.513 0.896,1.793 m -10.502,-0.384 c 0,0 0.769,0.384 0.897,1.665 m -2.946,-1.409 c 0,0 0.897,0.384 1.025,1.665 m 8.581,-2.946 c 0,0 0.768,0.385 0.896,1.665 m -2.817,-1.536 c 0,0 0.768,0.512 0.896,1.793 m -2.69,-1.409 c 0,0 0.897,0.384 1.025,1.665 m -2.946,-1.409 c 0,0 0.897,0.384 0.897,1.665 m -9.478,-0.256 c 0,0 0.897,0.384 1.025,1.665 m -2.946,-1.409 c 0,0 0.897,0.384 0.897,1.665 m -2.562,-1.409 c 0,0 0.769,0.384 0.897,1.793 m -2.817,-1.537 c 0,0 0.768,0.384 0.896,1.665 m 66.598,-6.276 -69.416,10.759 m 69.672,-9.478 -69.416,10.758 m 69.672,-9.349 -69.416,10.759 m 69.929,-9.222 -69.416,10.758 m 69.416,-9.606 -69.416,10.63 m 69.672,-9.861 -69.416,10.63 m 69.672,-9.989 -69.416,10.758 m 69.16,-10.887 -69.416,10.63 m 69.416,-11.782 -69.416,10.758 m 69.672,-11.527 -69.416,10.758 m 68.648,-12.038 -69.416,10.758" stroke-width=".384" fill="none"/><path d="m 586.45,229.595 c -0.897,-3.97 -1.921,-5.636 -1.921,-5.636 1.28,-1.152 1.408,-0.384 1.408,-0.384 0.897,0 1.41,0.897 2.306,6.404 0.896,5.507 -0.64,7.3 -0.64,7.3 -0.897,0.512 -1.794,0.256 -1.794,0.256 0,0 1.665,-3.458 0.64,-7.94 z m -48.028,7.172 c -0.896,-4.099 -2.05,-6.148 -2.05,-6.148 0.513,-1.153 1.154,-0.256 1.154,-0.256 0.896,0 1.92,1.28 2.817,6.66 0.897,5.507 -0.768,7.3 -0.768,7.3 -0.897,0.384 -1.793,0.256 -1.793,0.256 0,0 1.665,-3.458 0.64,-7.812 z m -9.862,1.793 c -0.384,-4.099 0,-6.148 0,-6.148 -0.768,-1.024 -1.28,0.128 -1.28,0.128 -0.897,0.256 -1.153,1.409 -0.385,6.916 0.64,5.507 2.434,6.276 2.434,6.276 1.024,0.128 1.921,-0.128 1.921,-0.128 0,0 -2.433,-2.562 -2.69,-7.044 z m -66.598,29.969 -33.3,-54.816 1.025,-0.896 33.3,55.2 z" stroke-width=".384" fill="#ffce00"/><path d="m 429.687,213.713 c -0.768,0.513 -2.561,0.769 -5.763,-4.482 -3.074,-5.251 -4.354,-6.02 -2.561,-7.044 1.793,-1.153 3.33,1.537 4.995,4.098 1.536,2.69 5.25,6.404 3.33,7.428 z" fill="#fff" stroke-width=".384"/><path d="m 533.811,268.529 33.428,-54.816 -1.153,-0.896 -33.3,55.2 z" fill="#ffce00" stroke-width=".384"/><path d="m 566.086,213.713 c 0.897,0.513 2.69,0.769 5.763,-4.482 3.202,-5.251 4.483,-6.02 2.69,-7.044 -1.793,-1.153 -3.458,1.537 -4.995,4.098 -1.665,2.69 -5.251,6.404 -3.458,7.428 z" fill="#fff" stroke-width=".384"/><g fill="#ffce00" stroke-width=".384"><path d="m 433.274,231.516 c 0,0 -0.513,0.512 -0.897,1.024 -0.256,0.64 -0.256,29.201 -0.256,29.201 l 1.024,0.897 c 0,0 -2.945,0.384 -3.842,0.128 0,0 0.64,-1.025 0.769,-1.665 0.128,-0.513 0.128,-28.177 0.128,-28.177 0,0 -0.769,-1.408 -1.025,-1.665 0,0 1.409,-0.256 2.05,-0.128 0.64,0.257 2.049,0.385 2.049,0.385 z"/><path d="m 443.391,237.663 c 0,0 -0.768,0 -1.408,0.128 -0.64,0.256 -20.748,20.492 -20.748,20.492 v 1.409 c 0,0 -2.306,-1.921 -2.69,-2.69 0,0 1.153,-0.256 1.665,-0.64 0.512,-0.256 19.98,-19.851 19.98,-19.851 0,0 0.512,-1.537 0.512,-1.922 0,0 1.152,0.769 1.537,1.41 0.256,0.64 1.152,1.664 1.152,1.664 z"/><path d="m 421.363,234.461 c 0,0 0.128,0.769 0.256,1.41 0.128,0.64 20.364,20.747 20.364,20.747 h 1.408 c 0,0 -1.793,2.305 -2.69,2.69 0,0 -0.255,-1.153 -0.511,-1.665 -0.257,-0.513 -19.852,-20.108 -19.852,-20.108 0,0 -1.537,-0.384 -1.921,-0.384 0,0 0.768,-1.28 1.409,-1.409 0.64,-0.384 1.537,-1.28 1.537,-1.28 z"/><path d="m 446.465,249.318 c 0,0 -0.64,-0.512 -1.28,-0.897 -0.513,-0.384 -28.945,-0.256 -28.945,-0.256 l -1.025,1.025 c 0,0 -0.384,-2.946 -0.128,-3.842 0,0 1.153,0.64 1.665,0.896 0.512,0.128 28.176,0 28.176,0 0,0 1.41,-0.768 1.665,-1.024 0,0 0.384,1.408 0,2.049 -0.128,0.64 -0.128,2.049 -0.128,2.049 z"/></g></g></g><path d="m 430.84,262.766 c -8.709,0 -15.753,-6.916 -15.753,-15.753 0,-8.71 7.044,-15.754 15.753,-15.754 8.709,0 15.753,7.045 15.753,15.754 0,8.837 -7.044,15.753 -15.753,15.753 v 5.635 c 11.783,0 21.26,-9.606 21.26,-21.388 0,-11.655 -9.477,-21.26 -21.26,-21.26 -11.655,0 -21.26,9.605 -21.26,21.26 0,11.782 9.605,21.388 21.26,21.388 z" fill="#ffce00"/><g stroke="#000"><g stroke-width=".512"><path d="m 430.84,250.214 a 3.17,3.17 0 0 0 3.202,-3.201 c 0,-1.665 -1.409,-3.074 -3.202,-3.074 -1.665,0 -3.202,1.409 -3.202,3.074 0,1.793 1.537,3.201 3.202,3.201 z" fill="#ffce00"/><g fill="none"><path d="m 430.84,268.4 c 11.783,0 21.26,-9.605 21.26,-21.387 0,-11.655 -9.477,-21.26 -21.26,-21.26 -11.655,0 -21.26,9.605 -21.26,21.26 0,11.782 9.605,21.388 21.26,21.388"/><path d="m 430.84,262.766 c 8.71,0 15.753,-6.916 15.753,-15.753 0,-8.71 -7.044,-15.754 -15.753,-15.754 -8.709,0 -15.753,7.045 -15.753,15.754 0,8.837 7.044,15.753 15.753,15.753"/></g></g><g stroke-width=".384"><path d="m 431.224,229.082 c 0.385,0 0.64,-0.256 0.64,-0.64 0,-0.384 -0.255,-0.64 -0.64,-0.64 -0.385,0 -0.64,0.256 -0.64,0.64 0,0.384 0.256,0.64 0.64,0.64 z m -6.916,1.281 c 0.385,-0.128 0.513,-0.512 0.385,-0.897 -0.128,-0.385 -0.513,-0.512 -0.897,-0.384 -0.256,0.256 -0.384,0.513 -0.256,0.897 0,0.256 0.384,0.384 0.768,0.384 z m -5.891,3.714 a 0.619,0.619 0 0 0 0,-0.896 0.619,0.619 0 0 0 -0.897,0 0.619,0.619 0 0 0 0,0.896 c 0.257,0.256 0.64,0.256 0.897,0 z m -3.97,5.763 c 0.128,-0.384 0,-0.768 -0.385,-0.896 -0.384,-0.128 -0.768,0.128 -0.896,0.384 -0.128,0.256 0.128,0.64 0.384,0.769 0.256,0.256 0.64,0 0.897,-0.257 z m -1.537,6.788 c 0,-0.384 -0.384,-0.512 -0.64,-0.512 -0.385,0 -0.64,0.128 -0.64,0.512 0,0.384 0.255,0.769 0.64,0.769 0.256,0 0.64,-0.384 0.64,-0.769 z m 1.152,7.044 c -0.128,-0.384 -0.512,-0.64 -0.768,-0.384 -0.384,0.128 -0.512,0.512 -0.384,0.769 0.128,0.384 0.512,0.512 0.896,0.384 0.256,-0.128 0.385,-0.512 0.256,-0.769 z m 3.843,5.892 c -0.256,-0.256 -0.769,-0.256 -0.897,0 -0.256,0.128 -0.256,0.64 0,0.896 0.128,0.256 0.64,0.256 0.897,0 0.128,-0.256 0.128,-0.768 0,-0.896 z m 5.635,3.97 c -0.256,-0.128 -0.64,0 -0.768,0.384 -0.129,0.256 0,0.64 0.384,0.769 0.256,0.128 0.64,0 0.768,-0.384 0.256,-0.257 0,-0.64 -0.384,-0.769 z m 6.916,1.537 c -0.384,0 -0.64,0.256 -0.64,0.64 0,0.384 0.256,0.64 0.64,0.64 0.384,0 0.64,-0.255 0.64,-0.64 0,-0.385 -0.256,-0.64 -0.64,-0.64 z m 6.916,-1.281 c -0.384,0.128 -0.512,0.513 -0.384,0.897 0.128,0.384 0.512,0.512 0.896,0.384 0.256,-0.256 0.384,-0.64 0.384,-0.897 -0.128,-0.384 -0.512,-0.512 -0.896,-0.384 z m 5.891,-3.714 a 0.619,0.619 0 0 0 0,0.897 c 0.256,0.256 0.64,0.256 0.897,0 a 0.619,0.619 0 0 0 0,-0.897 0.619,0.619 0 0 0 -0.897,0 z m 4.099,-5.763 c -0.256,0.384 0,0.768 0.384,0.768 0.256,0.128 0.64,0 0.768,-0.256 0.128,-0.384 -0.128,-0.768 -0.384,-0.896 -0.256,-0.128 -0.64,0 -0.768,0.384 z m 1.408,-6.788 c 0,0.256 0.385,0.512 0.769,0.512 0.256,0 0.512,-0.256 0.512,-0.512 0,-0.384 -0.256,-0.769 -0.512,-0.769 -0.384,0 -0.769,0.385 -0.769,0.769 z m -1.152,-7.045 c 0.128,0.385 0.512,0.641 0.768,0.385 0.384,-0.128 0.64,-0.512 0.384,-0.768 -0.128,-0.385 -0.512,-0.513 -0.896,-0.385 -0.256,0.128 -0.384,0.513 -0.256,0.769 z m -3.714,-5.89 c 0.128,0.256 0.64,0.256 0.896,0 0.128,-0.257 0.128,-0.641 0,-0.897 -0.256,-0.256 -0.768,-0.256 -0.896,0 a 0.619,0.619 0 0 0 0,0.896 z m -5.764,-3.97 c 0.257,0.127 0.64,0 0.769,-0.385 0.128,-0.256 0,-0.64 -0.384,-0.769 -0.257,-0.128 -0.64,0 -0.769,0.257 -0.128,0.384 0,0.768 0.384,0.896 z"/><g fill="#ffce00"><path d="m 562.628,231.516 c 0,0 0.512,0.512 0.897,1.024 0.384,0.64 0.256,29.201 0.256,29.201 l -1.025,0.897 c 0,0 2.946,0.384 3.714,0.128 0,0 -0.512,-1.025 -0.768,-1.665 -0.128,-0.513 0,-28.177 0,-28.177 0,0 0.768,-1.408 0.896,-1.665 0,0 -1.28,-0.256 -1.92,-0.128 -0.641,0.257 -2.05,0.385 -2.05,0.385 z"/><path d="m 552.51,237.663 c 0,0 0.64,0 1.409,0.128 0.512,0.256 20.748,20.492 20.748,20.492 l -0.128,1.409 c 0,0 2.305,-1.921 2.818,-2.69 0,0 -1.153,-0.256 -1.665,-0.64 -0.64,-0.256 -20.108,-19.851 -20.108,-19.851 0,0 -0.384,-1.537 -0.384,-1.922 0,0 -1.281,0.769 -1.537,1.41 -0.256,0.64 -1.153,1.664 -1.153,1.664 z"/><path d="m 574.41,234.461 c 0,0 0,0.769 -0.255,1.41 -0.128,0.64 -20.236,20.747 -20.236,20.747 h -1.409 c 0,0 1.793,2.305 2.562,2.69 0,0 0.384,-1.153 0.64,-1.665 0.256,-0.512 19.852,-20.108 19.852,-20.108 0,0 1.536,-0.384 1.92,-0.384 0,0 -0.768,-1.28 -1.408,-1.409 -0.64,-0.384 -1.665,-1.28 -1.665,-1.28 z"/><path d="m 549.565,249.318 c 0,0 0.512,-0.512 1.024,-0.897 0.64,-0.384 29.073,-0.256 29.073,-0.256 l 1.024,1.025 c 0,0 0.385,-2.946 0,-3.842 0,0 -1.024,0.64 -1.536,0.896 -0.513,0.128 -28.177,0 -28.177,0 0,0 -1.408,-0.768 -1.665,-1.024 0,0 -0.384,1.408 -0.128,2.049 0.256,0.64 0.385,2.049 0.385,2.049 z"/></g></g></g><path d="m 564.933,262.766 c 8.837,0 15.882,-6.916 15.882,-15.753 0,-8.71 -7.045,-15.754 -15.882,-15.754 -8.58,0 -15.753,7.045 -15.753,15.754 0,8.837 7.172,15.753 15.753,15.753 v 5.635 c -11.654,0 -21.132,-9.606 -21.132,-21.388 0,-11.655 9.478,-21.26 21.132,-21.26 11.783,0 21.26,9.605 21.26,21.26 0,11.782 -9.477,21.388 -21.26,21.388 z" fill="#ffce00"/><g stroke="#000"><g stroke-width=".512"><path d="m 564.933,250.214 c -1.665,0 -3.073,-1.408 -3.073,-3.201 0,-1.665 1.408,-3.074 3.073,-3.074 1.793,0 3.202,1.409 3.202,3.074 a 3.17,3.17 0 0 1 -3.202,3.201 z" fill="#ffce00"/><g fill="none"><path d="m 564.933,268.4 c -11.654,0 -21.132,-9.605 -21.132,-21.387 0,-11.655 9.478,-21.26 21.132,-21.26 11.783,0 21.26,9.605 21.26,21.26 0,11.782 -9.477,21.388 -21.26,21.388"/><path d="m 564.933,262.766 c -8.58,0 -15.753,-6.916 -15.753,-15.753 0,-8.71 7.172,-15.754 15.753,-15.754 8.837,0 15.882,7.045 15.882,15.754 0,8.837 -7.045,15.753 -15.882,15.753"/></g></g><path d="m 564.677,229.082 c -0.384,0 -0.768,-0.256 -0.768,-0.64 0,-0.384 0.384,-0.64 0.768,-0.64 0.256,0 0.513,0.256 0.513,0.64 0,0.384 -0.257,0.64 -0.513,0.64 z m 6.788,1.281 c -0.256,-0.128 -0.384,-0.512 -0.256,-0.897 0,-0.384 0.512,-0.512 0.768,-0.384 0.385,0.256 0.513,0.513 0.385,0.897 -0.128,0.256 -0.513,0.384 -0.897,0.384 z m 6.02,3.714 c -0.385,-0.256 -0.385,-0.64 0,-0.896 0.256,-0.257 0.512,-0.257 0.896,0 a 0.619,0.619 0 0 1 0,0.896 c -0.384,0.256 -0.64,0.256 -0.896,0 z m 3.97,5.763 c -0.128,-0.384 0,-0.768 0.384,-0.896 0.256,-0.128 0.64,0.128 0.769,0.384 0.256,0.256 0,0.64 -0.257,0.769 -0.384,0.256 -0.768,0 -0.896,-0.257 z m 1.537,6.788 c 0,-0.384 0.256,-0.512 0.64,-0.512 0.384,0 0.64,0.128 0.64,0.512 0,0.384 -0.256,0.769 -0.64,0.769 -0.384,0 -0.64,-0.384 -0.64,-0.769 z m -1.281,7.044 c 0.256,-0.384 0.64,-0.64 0.897,-0.384 0.256,0.128 0.512,0.512 0.384,0.769 -0.128,0.384 -0.512,0.512 -0.897,0.384 -0.384,-0.128 -0.512,-0.512 -0.384,-0.769 z m -3.714,5.892 a 0.619,0.619 0 0 1 0.896,0 c 0.257,0.128 0.257,0.64 0,0.896 a 0.619,0.619 0 0 1 -0.896,0 c -0.256,-0.256 -0.256,-0.768 0,-0.896 z m -5.763,3.97 c 0.256,-0.128 0.64,0 0.896,0.384 0.128,0.256 0,0.64 -0.384,0.769 -0.384,0.128 -0.769,0 -0.897,-0.384 -0.128,-0.257 0.128,-0.64 0.385,-0.769 z m -6.916,1.537 c 0.384,0 0.768,0.256 0.768,0.64 0,0.384 -0.384,0.64 -0.768,0.64 -0.257,0 -0.513,-0.255 -0.513,-0.64 0,-0.385 0.256,-0.64 0.513,-0.64 z m -6.788,-1.281 c 0.256,0.128 0.384,0.513 0.256,0.897 0,0.384 -0.384,0.512 -0.769,0.384 -0.384,-0.256 -0.512,-0.64 -0.384,-0.897 0.128,-0.384 0.512,-0.512 0.897,-0.384 z m -5.892,-3.714 a 0.619,0.619 0 0 1 0,0.897 c -0.384,0.256 -0.768,0.256 -1.024,0 a 0.619,0.619 0 0 1 0,-0.897 c 0.256,-0.256 0.64,-0.256 1.024,0 z m -4.098,-5.763 c 0.128,0.384 0,0.768 -0.256,0.768 a 0.996,0.996 0 0 1 -1.025,-0.256 c 0,-0.384 0.128,-0.768 0.384,-0.896 0.385,-0.129 0.769,0 0.897,0.384 z m -1.537,-6.788 c 0,0.256 -0.256,0.512 -0.64,0.512 -0.385,0 -0.64,-0.256 -0.64,-0.512 0,-0.384 0.255,-0.769 0.64,-0.769 0.384,0 0.64,0.385 0.64,0.769 z m 1.281,-7.045 c -0.256,0.385 -0.64,0.641 -0.897,0.385 -0.256,-0.128 -0.384,-0.512 -0.384,-0.768 0.128,-0.385 0.512,-0.513 0.897,-0.385 0.384,0.128 0.512,0.513 0.384,0.769 z m 3.714,-5.89 a 0.619,0.619 0 0 1 -0.897,0 0.619,0.619 0 0 1 0,-0.897 c 0.257,-0.256 0.64,-0.256 0.897,0 0.257,0.256 0.256,0.64 0,0.896 z m 5.763,-3.97 c -0.256,0.127 -0.64,0 -0.896,-0.385 -0.128,-0.256 0,-0.64 0.384,-0.769 0.384,-0.129 0.768,0 0.896,0.257 0.129,0.384 0,0.768 -0.384,0.896 z" stroke-width=".384"/></g><path d="m 370.517,231.26 c 0,0 -2.69,-0.769 -5.25,1.536 -1.281,1.153 0.768,5.764 -0.641,7.173 -1.28,1.28 -9.35,0.128 -8.58,3.842 0,0 4.738,-1.793 6.275,-1.025 1.665,0.769 4.226,0.256 4.995,-0.768 0.768,-1.025 0.256,-4.483 2.177,-4.995 1.793,-0.512 6.275,-0.512 6.275,-0.512 z" fill="#d21034"/><path d="m 367.828,228.314 16.521,16.65" fill="none" stroke-width=".384" stroke="#000"/><g fill="#fff" stroke="#000" stroke-width=".384"><path d="m 404.585,256.49 -21.516,-11.014 0.512,-1.41 23.053,12.168 z"/><path d="m 396.004,264.815 -12.423,-20.748 1.153,-0.769 13.191,22.541 z"/><path d="m 400.23,261.1 -17.418,-16.649 0.769,-1.153 18.699,18.187 z"/></g><path d="m 385.118,246.244 0.512,-0.768" fill="none" stroke-width=".384" stroke="#000"/><path d="m 398.694,281.849 c 1.92,0 3.458,-1.537 3.458,-3.586 0,-1.793 -1.537,-3.458 -3.458,-3.458 -1.921,0 -3.586,1.665 -3.586,3.458 0,2.049 1.665,3.586 3.586,3.586 z m 8.068,0 c 1.921,0 3.586,-1.537 3.586,-3.586 0,-1.793 -1.665,-3.458 -3.586,-3.458 -1.92,0 -3.458,1.665 -3.458,3.458 0,2.049 1.537,3.586 3.458,3.586 z m 8.197,0 c 1.921,0 3.458,-1.537 3.458,-3.586 0,-1.793 -1.537,-3.458 -3.458,-3.458 -2.05,0 -3.586,1.665 -3.586,3.458 0,2.049 1.537,3.586 3.586,3.586 z m 8.069,0 c 2.049,0 3.458,-1.537 3.458,-3.586 0,-1.793 -1.41,-3.458 -3.458,-3.458 -1.921,0 -3.458,1.665 -3.458,3.458 0,2.049 1.537,3.586 3.458,3.586 z m -20.364,-6.276 c 1.921,0 3.458,-1.537 3.458,-3.586 a 3.444,3.444 0 0 0 -3.458,-3.458 c -2.05,0 -3.586,1.537 -3.586,3.458 0,2.05 1.537,3.586 3.586,3.586 z m 8.069,0 c 1.92,0 3.458,-1.537 3.458,-3.586 0,-1.921 -1.537,-3.458 -3.458,-3.458 -1.921,0 -3.586,1.537 -3.586,3.458 0,2.05 1.664,3.586 3.586,3.586 z m 8.068,0 c 2.05,0 3.586,-1.537 3.586,-3.586 0,-1.921 -1.537,-3.458 -3.586,-3.458 a 3.444,3.444 0 0 0 -3.458,3.458 c 0,2.05 1.537,3.586 3.458,3.586 z m -12.295,-6.276 c 2.05,0 3.586,-1.536 3.586,-3.458 0,-2.049 -1.537,-3.586 -3.586,-3.586 -1.921,0 -3.586,1.537 -3.586,3.586 0,1.922 1.665,3.458 3.586,3.458 z m 8.197,0 a 3.444,3.444 0 0 0 3.458,-3.458 c 0,-2.049 -1.537,-3.586 -3.458,-3.586 -1.921,0 -3.586,1.537 -3.586,3.586 0,1.922 1.665,3.458 3.586,3.458 z m 17.546,7.557 a 3.444,3.444 0 0 0 3.458,-3.458 c 0,-1.921 -1.537,-3.586 -3.458,-3.586 -1.921,0 -3.458,1.665 -3.458,3.586 a 3.444,3.444 0 0 0 3.458,3.458 z m 12.295,-0.769 c 1.921,0 3.586,-1.537 3.586,-3.458 0,-2.049 -1.665,-3.586 -3.586,-3.586 -1.921,0 -3.458,1.537 -3.458,3.586 a 3.444,3.444 0 0 0 3.458,3.458 z m 8.196,6.66 c 1.922,0 3.459,-1.665 3.459,-3.586 0,-1.921 -1.537,-3.586 -3.458,-3.586 -2.05,0 -3.586,1.665 -3.586,3.586 0,1.921 1.537,3.586 3.586,3.586 z" stroke-width=".384" fill="#ffce00" stroke="#000"/><path d="m 451.076,261.87 c 0,0 1.92,0.896 1.92,1.92 0,1.024 -2.304,1.665 -3.329,1.793 -1.025,0.384 -3.97,1.281 -1.28,4.483 2.689,3.202 8.196,0.512 9.093,-0.512 1.408,-1.281 1.408,-4.867 -0.513,-6.788 -2.561,-2.69 -5.763,-2.178 -5.763,-2.178 z" fill="#fff" stroke-width=".384" stroke="#000"/><path d="m 451.972,259.82 -0.256,3.202 -1.28,-0.256 0.64,-2.946 z" fill="#fff" stroke-width=".384" stroke="#000"/><path d="m 490.266,222.679 c 0.385,1.92 -1.92,1.024 -4.098,1.024 -0.896,0.128 -2.177,0.384 -3.074,1.153 -1.024,0.768 -0.64,3.458 -0.64,3.458 -2.69,-0.513 -3.202,-1.665 -3.97,-4.355 0,0 1.408,1.153 2.69,0.769 1.152,-0.384 3.713,-1.281 4.61,-1.281 0.896,0 4.482,-0.768 4.482,-0.768 z" stroke-width=".384" stroke="#000"/><path d="m 488.858,240.48 -2.434,-15.624 -1.152,0.128 2.433,16.01 z" stroke-width=".384" fill="#fff" stroke="#000"/><path d="m 490.266,222.679 c -0.256,-2.05 -1.92,-0.897 -4.482,-0.385 -3.074,0.64 -4.995,-0.512 -5.507,-3.458 0,0 -2.562,1.793 -1.793,5.123 0.768,2.69 1.28,3.842 3.97,4.355 0,0 -0.384,-2.69 0.64,-3.458 0.897,-0.769 2.178,-1.025 3.074,-1.153 2.177,0 4.483,0.897 4.098,-1.024 z" stroke-width=".384" fill="#fff" stroke="#000"/><path style="font-variation-settings:normal;-inkscape-stroke:none" d="m 486.68,225.368 -0.512,-3.842 -1.793,0.128 0.512,4.098 z" fill="#fff" stroke="#000" stroke-width=".384"/><path d="m 510.246,192.837 2.305,1.025 2.434,-4.867 -1.921,-1.024 z m 7.812,-47.899 -6.147,22.413 -3.074,-0.897 0.512,-1.92 -1.537,-0.129 0.513,-1.409 2.177,0.512 z" fill="#fff" stroke-width=".384" stroke="#000"/><path d="m 500.256,195.783 10.246,-32.787 -1.28,-0.256 -9.734,27.28 z" fill="#ffce00" stroke-width=".384" stroke="#000"/><path d="m 504.098,176.956 1.921,0.513 1.537,-5.123 -1.537,-0.769 z m 24.334,-31.506 -9.605,25.743 -2.946,-1.28 0.64,-1.666 -1.408,-0.512 0.512,-1.28 2.177,0.768 z" fill="#fff" stroke-width=".384" stroke="#000"/><path d="m 502.177,203.596 15.625,-36.758 -1.28,-0.512 -14.6,32.019 z" fill="#ffce00" stroke-width=".384" stroke="#000"/><path d="m 509.606,181.439 1.793,0.896 2.049,-5.123 -1.41,-0.768 z" fill="#fff" stroke-width=".384" stroke="#000"/><path d="m 505.507,222.679 c -0.256,1.92 2.05,1.024 4.227,1.024 0.768,0.128 2.049,0.384 2.945,1.153 1.153,0.768 0.769,3.458 0.769,3.458 2.69,-0.513 3.202,-1.665 3.842,-4.355 0,0 -1.409,1.153 -2.562,0.769 -1.153,-0.384 -3.842,-1.281 -4.738,-1.281 -0.897,0 -4.483,-0.768 -4.483,-0.768 z" stroke-width=".384" stroke="#000"/><g fill="#fff" stroke="#000" stroke-width=".384"><path d="m 507.044,240.48 2.433,-15.624 1.153,0.128 -2.561,16.01 z"/><path d="m 505.507,222.679 c 0.256,-2.05 2.05,-0.897 4.61,-0.385 2.947,0.64 4.996,-0.512 5.508,-3.458 0,0 2.433,1.793 1.665,5.123 -0.64,2.69 -1.153,3.842 -3.842,4.355 0,0 0.384,-2.69 -0.769,-3.458 -0.896,-0.769 -2.177,-1.025 -2.945,-1.153 -2.178,0 -4.483,0.897 -4.227,-1.024 z"/><path d="m 509.093,225.368 0.64,-3.842 1.666,0.128 -0.513,4.098 z"/></g><path d="m 460.297,230.875 0.64,-9.605 c 0,0 -1.793,1.409 -3.97,1.409 -2.049,0 -4.61,-1.281 -4.61,-1.281 l 0.512,8.58 c 0,0 0.768,6.02 3.842,6.02 3.202,0 3.586,-5.123 3.586,-5.123 z" fill="#007e3a" stroke-width=".384" stroke="#000"/><path d="m 452.357,221.398 c 0,0 1.793,-1.665 4.354,-1.665 2.946,0 4.226,1.537 4.226,1.537 0,0 -2.049,1.409 -3.97,1.409 -1.921,0 -4.61,-1.281 -4.61,-1.281 z m 0.128,2.562 c 0,0 2.049,1.792 4.226,1.664 2.177,-0.128 4.098,-1.665 4.098,-1.665 l -0.128,0.897 c 0,0 -1.28,2.433 -3.97,2.433 -2.561,0 -4.226,-2.305 -4.226,-2.305 z" fill="#fff" stroke-width=".384" stroke="#000"/><path d="m 455.943,223.575 0.512,-2.177 -0.769,-7.044 c 0,0 1.025,-1.665 2.562,0 l -0.768,7.044 0.512,2.177 z" fill="#007e3a" stroke-width=".384" stroke="#000"/><path d="m 456.455,221.398 c 0,0 0.512,0.256 1.025,0" fill="none" stroke-width=".512" stroke="#000"/><g stroke-width=".615"><path d="m 457.095,233.18 0.385,2.562 c 0,0 0.896,-0.256 1.152,-0.64 0.256,-0.513 -0.64,-2.562 -0.64,-2.562 z m -0.384,-5.25 c 0.769,0 1.153,0.64 1.153,1.536 0,0.769 -0.384,1.41 -0.897,1.41 -0.768,0 -1.28,-0.77 -1.152,-1.41 0.128,-0.768 0.128,-1.536 0.896,-1.536 z" fill="#fff" stroke="#007e3a" stroke-width=".384"/><g stroke="#000"><path d="m 597.208,281.849 c -1.921,0 -3.458,-1.537 -3.458,-3.586 0,-1.793 1.537,-3.458 3.458,-3.458 1.921,0 3.458,1.665 3.458,3.458 0,2.049 -1.537,3.586 -3.458,3.586 z m -8.068,0 c -2.05,0 -3.587,-1.537 -3.587,-3.586 0,-1.793 1.537,-3.458 3.586,-3.458 1.793,0 3.458,1.665 3.458,3.458 0,2.049 -1.665,3.586 -3.458,3.586 z m -8.197,0 c -1.921,0 -3.586,-1.537 -3.586,-3.586 0,-1.793 1.665,-3.458 3.586,-3.458 1.921,0 3.586,1.665 3.586,3.458 0,2.049 -1.665,3.586 -3.586,3.586 z m -8.197,0 c -1.921,0 -3.458,-1.537 -3.458,-3.586 0,-1.793 1.537,-3.458 3.458,-3.458 2.05,0 3.586,1.665 3.586,3.458 0,2.049 -1.537,3.586 -3.586,3.586 z m 20.492,-6.276 c -1.921,0 -3.458,-1.537 -3.458,-3.586 a 3.444,3.444 0 0 1 3.458,-3.458 c 1.92,0 3.586,1.537 3.586,3.458 0,2.05 -1.665,3.586 -3.586,3.586 z m -8.068,0 c -1.922,0 -3.587,-1.537 -3.587,-3.586 0,-1.921 1.665,-3.458 3.586,-3.458 1.921,0 3.458,1.537 3.458,3.458 0,2.05 -1.537,3.586 -3.458,3.586 z m -8.198,0 c -1.92,0 -3.458,-1.537 -3.458,-3.586 a 3.444,3.444 0 0 1 3.458,-3.458 c 2.05,0 3.586,1.537 3.586,3.458 0,2.05 -1.536,3.586 -3.586,3.586 z m 12.295,-6.276 a 3.444,3.444 0 0 1 -3.458,-3.458 c 0,-2.049 1.537,-3.586 3.458,-3.586 2.05,0 3.586,1.537 3.586,3.586 0,1.922 -1.536,3.458 -3.586,3.458 z m -8.068,0 a 3.444,3.444 0 0 1 -3.458,-3.458 c 0,-2.049 1.537,-3.586 3.458,-3.586 1.921,0 3.458,1.537 3.458,3.586 a 3.444,3.444 0 0 1 -3.458,3.458 z m -17.546,7.557 c -1.921,0 -3.586,-1.537 -3.586,-3.458 0,-1.921 1.665,-3.586 3.586,-3.586 1.921,0 3.458,1.665 3.458,3.586 a 3.444,3.444 0 0 1 -3.458,3.458 z m -12.295,-0.769 c -2.05,0 -3.586,-1.537 -3.586,-3.458 0,-2.049 1.536,-3.586 3.586,-3.586 1.793,0 3.458,1.537 3.458,3.586 0,1.921 -1.665,3.458 -3.458,3.458 z m -8.198,6.66 c -1.92,0 -3.585,-1.665 -3.585,-3.586 0,-1.921 1.665,-3.586 3.586,-3.586 1.921,0 3.586,1.665 3.586,3.586 0,1.921 -1.665,3.586 -3.586,3.586 z" stroke-width=".384" fill="#ffce00"/><g fill="#fff" stroke-width=".384"><path d="m 544.954,261.87 c 0,0 -2.177,0.896 -2.177,1.92 0,1.024 2.305,1.665 3.458,1.793 1.024,0.384 3.842,1.281 1.28,4.483 -2.562,3.202 -8.196,0.512 -9.22,-0.512 -1.282,-1.281 -1.41,-4.867 0.511,-6.788 2.562,-2.69 5.764,-2.178 5.764,-2.178 z"/><path d="m 543.801,259.82 0.256,3.202 1.41,-0.256 -0.513,-2.946 z"/></g></g></g><path d="m 625.384,231.26 c 0,0 2.562,-0.769 5.251,1.536 1.281,1.153 -0.768,5.764 0.513,7.173 1.28,1.28 9.477,0.128 8.709,3.842 0,0 -4.74,-1.793 -6.404,-1.025 -1.537,0.769 -4.098,0.256 -4.995,-0.768 -0.64,-1.025 -0.128,-4.483 -2.05,-4.995 -1.792,-0.512 -6.275,-0.512 -6.275,-0.512 z" fill="#d21034"/><g stroke="#000"><g stroke-width=".615"><path d="m 627.946,228.314 -16.394,16.65" fill="none" stroke-width=".384"/><g fill="#fff" stroke-width=".384"><path d="m 591.317,256.49 21.516,-11.014 -0.512,-1.41 -23.182,12.168 z"/><path d="m 599.898,264.815 12.423,-20.748 -1.153,-0.769 -13.192,22.541 z"/><path d="m 595.671,261.1 17.418,-16.649 -0.896,-1.153 -18.7,18.187 z"/></g><path d="m 610.656,246.244 -0.513,-0.768 M 499.488,134.308 c 0,0 2.433,-0.128 2.945,0" fill="none" stroke-width=".384"/><g fill="#ffce00" stroke-width=".384"><path d="m 498.463,242.53 h 2.305 c 1.41,0 2.562,-0.128 2.306,-1.153 -0.384,-1.408 -0.64,-2.305 -0.64,-2.305 h -7.942 c 0,0 -0.256,0.768 -0.64,2.305 -0.257,1.025 0.768,1.153 2.305,1.153 z"/><path d="m 498.335,239.328 h 2.305 c 1.41,0 2.562,-0.256 2.306,-1.153 -0.385,-1.536 -0.64,-2.433 -0.64,-2.433 h -7.942 c 0,0 -0.256,0.897 -0.64,2.433 -0.257,0.897 0.768,1.153 2.177,1.153 z"/><path d="m 498.335,236.639 h 2.305 c 1.537,0 2.562,-0.128 2.306,-1.153 -0.385,-1.409 -0.64,-2.305 -0.64,-2.305 h -8.07 c 0,0 -0.256,0.768 -0.64,2.305 -0.257,1.025 0.896,1.153 2.305,1.153 z"/><path d="m 498.463,234.077 h 2.305 c 1.537,0 2.69,-0.256 2.306,-1.28 -0.256,-1.41 -0.513,-2.178 -0.513,-2.178 h -8.196 c 0,0 -0.256,0.769 -0.64,2.177 -0.257,1.025 0.896,1.281 2.305,1.281 z"/><path d="m 498.463,231.003 h 2.434 c 1.536,0 2.561,-0.384 2.305,-1.28 -0.384,-1.537 -0.64,-2.306 -0.64,-2.306 h -8.197 c 0,0 -0.256,0.769 -0.64,2.306 -0.385,0.896 0.768,1.28 2.305,1.28 z"/><path d="m 498.335,228.058 h 2.433 c 1.41,0 2.562,-0.257 2.306,-1.281 -0.256,-1.409 -0.64,-2.305 -0.64,-2.305 h -8.325 c 0,0 -0.128,0.896 -0.64,2.305 -0.257,1.024 0.896,1.28 2.433,1.28 z"/><path d="m 498.335,225.624 h 2.433 c 1.537,0 2.69,-0.384 2.434,-1.28 -0.384,-1.537 -0.64,-2.306 -0.64,-2.306 h -8.453 c 0,0 -0.257,0.769 -0.64,2.306 -0.257,0.896 0.768,1.28 2.433,1.28 z"/><path d="m 498.335,222.935 h 2.433 c 1.665,0 2.69,-0.256 2.434,-1.153 -0.384,-1.537 -0.64,-2.433 -0.64,-2.433 h -8.453 c 0,0 -0.385,0.896 -0.769,2.433 -0.128,0.897 0.897,1.153 2.434,1.153 z"/><path d="m 498.463,219.733 h 2.434 c 1.664,0 2.817,-0.256 2.561,-1.153 -0.512,-1.409 -0.768,-2.433 -0.768,-2.433 h -8.581 c 0,0 -0.128,0.896 -0.64,2.433 -0.257,0.897 0.896,1.153 2.433,1.153 z"/><path d="m 498.335,216.531 h 2.562 c 1.536,0 2.69,-0.384 2.433,-1.28 -0.384,-1.41 -0.769,-2.306 -0.769,-2.306 h -8.58 c 0,0 -0.257,0.896 -0.64,2.305 -0.385,0.897 0.896,1.281 2.433,1.281 z"/><path d="m 498.335,213.457 h 2.562 c 1.536,0 2.817,-0.256 2.433,-1.152 -0.384,-1.537 -0.64,-2.434 -0.64,-2.434 h -8.709 c 0,0 -0.257,0.897 -0.769,2.434 -0.256,0.896 0.897,1.152 2.562,1.152 z"/><path d="m 498.335,210.768 h 2.562 c 1.664,0 2.817,-0.256 2.561,-1.281 -0.384,-1.409 -0.768,-2.305 -0.768,-2.305 h -8.709 c 0,0 -0.385,0.768 -0.769,2.305 -0.256,1.025 0.897,1.28 2.562,1.28 z"/><path d="m 498.207,207.438 h 2.561 c 1.665,0 2.946,-0.256 2.562,-1.153 -0.384,-1.537 -0.769,-2.433 -0.769,-2.433 h -8.837 c 0,0 -0.256,0.896 -0.768,2.433 -0.256,0.897 1.025,1.153 2.69,1.153 z"/><path d="m 498.335,203.98 h 2.562 c 1.664,0 2.817,-0.256 2.561,-1.153 -0.384,-1.537 -0.64,-2.305 -0.64,-2.305 h -8.966 c 0,0 -0.256,0.768 -0.64,2.305 -0.384,0.897 0.897,1.153 2.562,1.153 z"/><path d="m 498.207,200.778 h 2.561 c 1.665,0 2.946,-0.256 2.562,-1.28 -0.384,-1.41 -0.769,-2.306 -0.769,-2.306 h -8.837 c 0,0 -0.256,0.896 -0.768,2.305 -0.256,1.025 1.025,1.28 2.69,1.28 z"/><path d="m 498.335,198.088 h 2.562 c 1.664,0 2.817,-0.256 2.561,-1.152 -0.384,-1.537 -0.64,-2.306 -0.64,-2.306 h -8.966 c 0,0 -0.256,0.769 -0.64,2.306 -0.384,0.896 0.897,1.152 2.562,1.152 z"/><path d="m 498.463,195.015 h 2.562 c 1.665,0 2.817,-0.257 2.561,-1.281 l -0.768,-2.305 h -8.709 c 0,0 -0.385,0.768 -0.769,2.305 -0.256,1.024 0.897,1.28 2.562,1.28 z"/><path d="m 498.335,191.94 h 2.562 c 1.536,0 2.817,-0.255 2.433,-1.152 -0.384,-1.537 -0.64,-2.433 -0.64,-2.433 h -8.709 c 0,0 -0.257,0.896 -0.769,2.433 -0.256,0.897 0.897,1.153 2.562,1.153 z"/><path d="m 498.335,188.867 h 2.562 c 1.536,0 2.817,-0.256 2.433,-1.28 -0.384,-1.41 -0.64,-2.306 -0.64,-2.306 h -8.709 c 0,0 -0.257,0.897 -0.769,2.305 -0.256,1.025 0.897,1.281 2.562,1.281 z"/><path d="m 498.335,185.921 h 2.562 c 1.536,0 2.817,-0.256 2.433,-1.28 -0.384,-1.41 -0.64,-2.178 -0.64,-2.178 h -8.709 c 0,0 -0.257,0.769 -0.769,2.178 -0.256,1.024 0.897,1.28 2.562,1.28 z"/><path d="m 498.207,182.848 h 2.561 c 1.537,0 2.69,-0.385 2.434,-1.281 -0.384,-1.537 -0.64,-2.305 -0.64,-2.305 h -8.71 c 0,0 -0.256,0.768 -0.64,2.305 -0.384,0.896 0.897,1.28 2.433,1.28 z"/><path d="m 498.335,180.158 h 2.433 c 1.665,0 2.818,-0.256 2.562,-1.153 -0.384,-1.536 -0.769,-2.433 -0.769,-2.433 h -8.452 c 0,0 -0.385,0.897 -0.769,2.433 -0.256,0.897 0.897,1.153 2.434,1.153 z"/><path d="m 498.335,177.469 h 2.433 c 1.665,0 2.818,-0.129 2.562,-1.153 -0.384,-1.409 -0.769,-2.305 -0.769,-2.305 h -8.452 c 0,0 -0.385,0.768 -0.769,2.305 -0.256,1.024 0.897,1.153 2.434,1.153 z"/><path d="m 498.335,175.035 h 2.433 c 1.665,0 2.69,-0.256 2.434,-1.28 -0.384,-1.41 -0.64,-2.306 -0.64,-2.306 h -8.453 c 0,0 -0.385,0.897 -0.769,2.305 -0.128,1.025 0.897,1.281 2.434,1.281 z"/><path d="m 498.335,172.474 h 2.433 c 1.537,0 2.69,-0.385 2.434,-1.281 -0.384,-1.409 -0.64,-2.305 -0.64,-2.305 h -8.453 c 0,0 -0.257,0.896 -0.64,2.305 -0.257,0.896 0.768,1.28 2.433,1.28 z"/><path d="m 498.335,169.912 h 2.433 c 1.537,0 2.69,-0.256 2.306,-1.28 -0.256,-1.41 -0.64,-2.178 -0.64,-2.178 h -8.325 c 0,0 -0.128,0.769 -0.64,2.177 -0.257,1.025 0.896,1.281 2.433,1.281 z"/><path d="m 498.463,166.966 h 2.434 c 1.536,0 2.561,-0.128 2.305,-1.152 -0.384,-1.409 -0.64,-2.306 -0.64,-2.306 h -8.197 c 0,0 -0.256,0.769 -0.64,2.306 -0.385,1.024 0.768,1.152 2.305,1.152 z"/><path d="m 498.335,163.765 h 2.433 c 1.41,0 2.562,-0.257 2.306,-1.153 -0.384,-1.537 -0.64,-2.433 -0.64,-2.433 h -8.197 c 0,0 -0.256,0.896 -0.64,2.433 -0.257,0.896 0.896,1.153 2.305,1.153 z"/><path d="m 498.335,160.947 h 2.305 c 1.537,0 2.69,-0.384 2.306,-1.28 -0.385,-1.538 -0.64,-2.306 -0.64,-2.306 h -8.07 c 0,0 -0.256,0.768 -0.64,2.305 -0.257,0.897 0.896,1.281 2.305,1.281 z"/><path d="m 498.463,157.745 h 2.305 c 1.41,0 2.562,-0.384 2.306,-1.28 -0.384,-1.281 -0.64,-2.178 -0.64,-2.178 h -7.942 c 0,0 -0.256,0.769 -0.64,2.177 -0.257,0.897 0.768,1.281 2.305,1.281 z"/><path d="m 498.591,154.671 h 2.306 c 1.408,0 2.433,-0.256 2.177,-1.152 -0.256,-1.41 -0.64,-2.306 -0.64,-2.306 h -7.814 c 0,0 -0.128,0.897 -0.512,2.306 -0.385,0.896 0.768,1.152 2.177,1.152 z"/><path d="m 498.463,151.726 h 2.305 c 1.41,0 2.434,-0.385 2.178,-1.281 -0.385,-1.409 -0.513,-2.305 -0.513,-2.305 h -7.94 c 0,0 -0.256,0.896 -0.512,2.305 -0.257,0.896 0.768,1.28 2.177,1.28 z"/><path d="m 498.591,148.78 h 2.05 c 1.408,0 2.305,-0.768 2.177,-1.665 -0.385,-1.409 -0.64,-2.177 -0.64,-2.177 h -7.173 c 0,0 -0.256,0.768 -0.64,2.177 -0.256,0.897 0.768,1.665 2.177,1.665 z"/></g><path d="m 499.872,241.25 c 0,0 2.433,-0.129 2.946,0 M 500,242.018 c 0,0 2.433,-0.256 2.946,0 m -3.202,-1.409 c 0,0 2.433,-0.128 3.074,0 m -8.709,1.153 c 0,0 2.433,-0.129 2.69,-0.129 m -2.69,-0.383 h 2.69 m 3.073,-8.454 c 0,0 2.561,-0.256 3.074,0 M 500,233.437 c 0,0 2.433,-0.128 2.946,0 m -3.202,-1.281 c 0,0 2.561,-0.128 3.074,0 m -8.838,1.024 h 2.818 m -2.818,-0.384 c 0,0 2.562,-0.128 2.818,-0.128 m 3.074,-3.073 c 0,0 2.561,-0.129 3.074,0 m -2.946,0.64 c 0,0 2.561,-0.128 3.074,0 m -3.202,-1.281 c 0,0 2.433,-0.128 2.946,0 m -8.838,1.025 h 2.818 m -2.818,-0.384 h 2.818 m 2.946,-2.946 h 3.074 m -2.946,0.768 c 0,0 2.561,-0.128 3.074,0 m -3.33,-1.28 c 0,0 2.561,-0.129 3.202,0 m -9.094,1.024 h 2.946 m -2.946,-0.512 h 2.946 m 3.074,-4.995 c 0,0 2.69,-0.128 3.202,0 m -3.074,0.64 c 0,0 2.69,-0.128 3.202,0 m -3.458,-1.28 c 0,0 2.69,-0.257 3.202,0 m -9.222,1.024 h 2.946 m -2.946,-0.384 c 0,0 2.69,-0.128 2.946,-0.128 m 3.33,-3.074 c 0,0 2.69,-0.128 3.202,0 m -3.074,0.64 c 0,0 2.69,-0.128 3.33,0 m -3.458,-1.28 c 0,0 2.561,-0.128 3.202,0 m -9.35,1.152 c 0,0 2.562,-0.128 2.946,-0.128 m -2.946,-0.384 h 2.946 m 3.202,-6.275 c 0,0 2.69,-0.129 3.202,0 m -3.074,0.64 c 0,0 2.69,-0.128 3.202,0 m -3.458,-1.281 c 0,0 2.69,-0.128 3.202,0 m -9.35,1.153 c 0,0 2.562,-0.128 2.946,-0.128 m -2.946,-0.384 h 2.946 m 3.33,-2.818 c 0,0 2.69,-0.128 3.202,0 M 500,210.127 c 0,0 2.69,-0.256 3.33,0 m -3.586,-1.408 c 0,0 2.69,-0.129 3.33,0 m -9.606,1.152 c 0,0 2.69,-0.128 3.074,-0.128 m -3.074,-0.384 h 3.074 m 3.202,-3.202 c 0,0 2.69,-0.128 3.33,0 m -3.202,0.64 c 0,0 2.69,-0.128 3.33,0 m -3.586,-1.28 c 0,0 2.817,-0.256 3.33,0 m -9.734,1.153 c 0,0 2.818,-0.129 3.202,-0.129 m -3.202,-0.384 c 0,0 2.818,-0.128 3.202,-0.128 m 3.458,-3.33 c 0,0 2.69,-0.128 3.202,0 M 500,203.34 h 3.33 m -3.586,-1.281 c 0,0 2.817,-0.128 3.33,0 m -9.734,1.152 c 0,0 2.818,-0.128 3.202,-0.128 m -3.202,-0.384 h 3.202 m 3.202,-3.329 c 0,0 2.69,-0.129 3.33,0 m -3.202,0.768 c 0,0 2.69,-0.128 3.33,0 m -3.586,-1.281 c 0,0 2.817,-0.128 3.33,0 m -9.734,1.024 c 0,0 2.818,-0.128 3.202,-0.128 m -3.202,-0.383 h 3.202 m 3.458,-2.562 c 0,0 2.69,-0.128 3.202,0 m -3.074,0.64 c 0,0 2.818,-0.128 3.33,0 m -3.586,-1.281 c 0,0 2.817,-0.128 3.33,0 m -9.734,1.025 h 3.202 m -3.202,-0.384 h 3.202 M 500,193.734 c 0,0 2.69,-0.256 3.33,0 m -3.202,0.64 c 0,0 2.69,-0.128 3.202,0 m -3.458,-1.409 c 0,0 2.69,-0.128 3.33,0 m -9.606,1.153 h 3.074 m -3.074,-0.384 c 0,0 2.69,-0.128 3.074,-0.128 m 3.202,-2.946 c 0,0 2.69,-0.128 3.202,0 M 500,191.3 c 0,0 2.69,-0.128 3.202,0 m -3.458,-1.28 c 0,0 2.69,-0.128 3.202,0 m -9.478,1.152 c 0,0 2.69,-0.128 3.074,-0.128 m -3.074,-0.384 c 0,0 2.69,-0.128 3.074,-0.128 m 3.33,-3.074 c 0,0 2.69,-0.128 3.202,0 M 500,188.227 c 0,0 2.69,-0.256 3.202,0 m -3.458,-1.281 c 0,0 2.69,-0.256 3.202,0 m -9.478,1.024 c 0,0 2.69,-0.128 3.074,-0.128 m -3.074,-0.384 h 3.074 m 3.33,-2.818 c 0,0 2.69,-0.127 3.202,0 M 500,185.281 c 0,0 2.69,-0.128 3.202,0 M 499.744,184 c 0,0 2.69,-0.128 3.202,0 m -9.478,1.025 h 3.074 m -3.074,-0.385 c 0,0 2.69,-0.127 3.074,-0.127 m 3.074,-3.074 c 0,0 2.69,-0.128 3.33,0 m -3.074,0.641 c 0,0 2.561,-0.129 3.202,0 m -3.458,-1.282 c 0,0 2.561,-0.128 3.202,0 m -9.478,1.153 h 3.074 m -3.074,-0.512 c 0,0 2.818,-0.128 3.074,-0.128 m 3.458,-2.434 c 0,0 2.561,-0.128 3.074,0 m -3.074,0.641 c 0,0 2.69,-0.128 3.202,0 m -3.33,-1.281 c 0,0 2.69,-0.128 3.202,0 m -9.35,1.153 c 0,0 2.69,-0.128 2.946,-0.128 m -2.946,-0.385 c 0,0 2.69,-0.128 2.946,-0.128 m 3.33,-2.561 c 0,0 2.561,-0.128 3.074,0 m -3.074,0.768 c 0,0 2.69,-0.256 3.202,0 m -3.33,-1.409 c 0,0 2.69,-0.128 3.202,0 m -9.35,1.153 c 0,0 2.69,-0.128 2.946,-0.128 m -2.946,-0.384 h 2.946 m 3.202,-5.123 c 0,0 2.69,-0.128 3.202,0 m -3.074,0.768 c 0,0 2.561,-0.256 3.202,0 m -3.458,-1.28 c 0,0 2.69,-0.257 3.202,0 m -9.094,1.024 c 0,0 2.562,-0.128 2.946,-0.128 m -2.946,-0.384 h 2.946 m 3.074,-2.434 c 0,0 2.561,-0.128 3.074,0 m -2.946,0.641 c 0,0 2.561,-0.128 3.074,0 m -3.33,-1.281 c 0,0 2.561,-0.128 3.202,0 m -9.094,1.025 h 2.946 m -2.946,-0.385 c 0,0 2.562,-0.128 2.946,-0.128 m 2.946,-8.965 c 0,0 2.561,-0.128 3.074,0 m -2.818,0.641 c 0,0 2.433,-0.129 2.946,0 m -3.202,-1.281 c 0,0 2.561,-0.128 3.074,0 m -8.838,1.024 h 2.818 m -2.818,-0.384 h 2.818" stroke-width=".384" fill="none"/><path d="m 498.72,145.45 h 2.048 c 1.281,0 2.178,-0.384 2.05,-1.28 a 45.565,45.565 0 0 0 -0.64,-2.178 h -6.917 c 0,0 -0.256,0.769 -0.64,2.177 -0.128,0.897 0.768,1.281 2.05,1.281 z" fill="#ffce00" stroke-width=".384"/><path d="m 494.493,147.5 h 2.817 m -2.817,-0.385 h 2.817 m 2.178,-2.945 c 0,0 2.561,-0.257 3.073,0 m -2.945,0.512 h 3.074 m -3.202,-1.282 c 0,0 2.433,-0.127 2.945,0 m -7.556,1.41 c 0,0 2.305,-0.128 2.69,-0.128 m -2.69,-0.385 h 2.69 m 1.921,2.562 c 0,0 2.433,-0.128 2.945,0 m -2.817,0.641 c 0,0 2.433,-0.129 2.945,0 m -3.201,-1.281 c 0,0 2.433,-0.129 3.073,0 m -2.817,3.97 c 0,0 2.561,-0.128 3.074,0 m -2.946,0.641 c 0,0 2.433,-0.129 3.074,0 m -3.202,-1.282 c 0,0 2.433,-0.128 2.945,0 m -8.452,1.025 h 2.817 m -2.817,-0.384 c 0,0 2.433,-0.128 2.817,-0.128 m 2.946,3.202 c 0,0 2.433,-0.129 2.946,0 m -2.818,0.64 c 0,0 2.433,-0.128 2.946,0 m -3.202,-1.281 c 0,0 2.433,-0.128 3.074,0 m -8.581,1.153 c 0,0 2.433,-0.128 2.817,-0.128 m -2.817,-0.384 c 0,0 2.433,-0.129 2.817,-0.129 m 2.69,3.202 c 0,0 2.433,-0.128 3.074,0 m -2.946,0.641 c 0,0 2.561,-0.128 3.074,0 m -3.33,-1.281 c 0,0 2.561,-0.128 3.074,0 m -8.71,1.153 c 0,0 2.434,-0.128 2.69,-0.128 m -2.69,-0.385 h 2.69 m 3.074,6.148 c 0,0 2.433,-0.128 3.074,0 m -2.946,0.64 c 0,0 2.561,-0.128 3.074,0 m -3.33,-1.28 c 0,0 2.561,-0.257 3.074,0 m -8.838,1.152 c 0,0 2.434,-0.128 2.818,-0.128 m -2.818,-0.384 c 0,0 2.434,-0.128 2.818,-0.128 m 3.202,3.33 c 0,0 2.561,-0.128 3.074,0 M 500,166.454 c 0,0 2.561,-0.256 3.074,0 m -3.202,-1.409 c 0,0 2.433,-0.128 2.946,0 m -8.838,1.153 c 0,0 2.434,-0.128 2.818,-0.128 m -2.818,-0.384 h 2.818 m 2.946,8.068 c 0,0 2.69,-0.128 3.202,0 m -3.074,0.641 c 0,0 2.69,-0.128 3.202,0 m -3.33,-1.281 c 0,0 2.561,-0.128 3.074,0 m -9.222,1.025 h 2.946 m -2.946,-0.385 c 0,0 2.69,-0.128 2.946,-0.128 m 3.33,41.624 c 0,0 2.561,-0.128 3.202,0 M 500,215.89 c 0,0 2.561,-0.256 3.074,0 m -3.33,-1.408 c 0,0 2.69,-0.128 3.202,0 m -9.35,1.152 h 2.946 m -2.946,-0.512 h 2.946 m 3.202,9.093 c 0,0 2.561,-0.128 3.202,0 m -3.074,0.641 c 0,0 2.561,-0.128 3.202,0 m -3.458,-1.281 c 0,0 2.69,-0.128 3.202,0 m -9.094,1.153 h 2.946 m -2.946,-0.513 c 0,0 2.562,-0.128 2.946,-0.128 m 2.946,11.271 c 0,0 2.561,-0.128 3.074,0 m -2.818,0.768 c 0,0 2.433,-0.256 2.946,0 m -3.202,-1.409 c 0,0 2.433,-0.128 2.945,0 m -8.709,1.153 c 0,0 2.434,-0.128 2.818,-0.128 m -2.818,-0.384 h 2.818 m 2.946,2.689 c 0,0 2.561,-0.128 3.074,0 m -2.818,0.641 c 0,0 2.433,-0.128 2.946,0 m -3.202,-1.281 c 0,0 2.433,-0.256 2.945,0 m -8.581,1.153 c 0,0 2.306,-0.128 2.69,-0.128 m -2.69,-0.385 c 0,0 2.306,-0.128 2.69,-0.128" stroke-width=".384" fill="none"/><path d="m 498.72,142.248 h 2.048 c 1.281,0 2.178,-0.128 2.05,-1.152 -0.385,-1.41 -0.64,-2.178 -0.64,-2.178 h -6.917 c 0,0 -0.256,0.769 -0.64,2.178 -0.128,1.024 0.768,1.152 2.05,1.152 z" fill="#ffce00" stroke-width=".384"/><path d="m 499.488,140.84 c 0,0 2.561,-0.129 3.073,0 m -2.945,0.768 c 0,0 2.561,-0.256 3.074,0 m -3.202,-1.409 c 0,0 2.433,-0.128 2.945,0 m -7.556,1.409 h 2.69 m -2.69,-0.512 h 2.69" stroke-width=".384" fill="none"/><path d="m 498.72,139.43 h 2.048 c 1.281,0 2.178,-0.256 2.05,-1.152 -0.385,-1.537 -0.64,-2.305 -0.64,-2.305 h -6.917 c 0,0 -0.256,0.768 -0.64,2.305 -0.128,0.896 0.768,1.153 2.05,1.153 z" fill="#ffce00" stroke-width=".384"/><path d="m 499.488,137.894 c 0,0 2.433,-0.256 2.945,0 m -2.817,0.64 c 0,0 2.433,-0.128 2.945,0 m -3.201,-1.409 h 3.073 m -7.684,1.665 c 0,0 2.433,-0.128 2.818,-0.128 m -2.818,-0.384 h 2.818" stroke-width=".384" fill="none"/><path d="m 498.72,136.741 h 2.048 c 1.281,0 2.178,-0.128 1.922,-1.153 a 26.56,26.56 0 0 0 -0.513,-2.305 l -3.458,-0.128 -3.458,0.128 c 0,0 -0.256,0.897 -0.512,2.305 -0.256,1.025 0.64,1.153 1.921,1.153 z" fill="#ffce00" stroke-width=".384"/><path d="m 499.488,134.948 c 0,0 2.561,-0.128 3.073,0 m -2.945,0.768 c 0,0 2.561,-0.256 3.074,0 m -7.813,0.129 c 0,0 2.305,-0.129 2.69,-0.129 m -2.69,-0.384 h 2.69" stroke-width=".384" fill="none"/></g><path d="m 499.103,97.038 -2.049,2.818 -2.433,32.146 c 0,0 -0.256,1.537 1.153,1.537 1.28,0 4.098,-0.512 5.891,0.256 1.28,0.513 0.896,-3.073 0.896,-3.073 l -1.024,-31.89 z" fill="#007e3a" stroke-width=".512"/><path d="m 497.054,100.368 c 0,0 0,-0.256 0.769,-0.512 m 1.537,0 c 0.64,0 1.408,0 2.177,0.384 m -2.049,0.384 a 5.8,5.8 0 0 1 2.049,0.384 m -2.049,0 a 5.8,5.8 0 0 1 2.049,0.385 m -2.049,0.512 c 0.64,-0.128 1.409,0 2.049,0.256 m -2.049,0.129 c 0.64,0 1.409,0 2.049,0.255 m -2.049,0.513 c 0.64,0 1.409,0 2.049,0.384 m -1.921,0.384 c 0.64,0 1.28,0 2.049,0.256 m -2.049,0.513 c 0.64,0 1.28,0.128 2.049,0.256 m -2.049,0.64 c 0.64,-0.128 1.28,0 2.049,0.256 m -2.049,0.384 c 0.64,0 1.28,0 2.049,0.257 m -2.049,0.512 c 0.64,0 1.28,0 2.049,0.384 m -2.049,0.512 c 0.768,0 1.537,0 2.177,0.257 m -2.177,0.127 c 0.768,0 1.537,0 2.177,0.257 m -2.177,0.512 c 0.768,-0.128 1.537,0 2.177,0.256 m -2.049,0.512 c 0.64,0 1.409,0 2.049,0.257 m -2.049,0.384 a 5.8,5.8 0 0 1 2.049,0.384 m -2.049,0.512 c 0.64,0 1.409,0.128 2.049,0.257 m -2.049,0.128 c 0.64,0 1.409,0 2.049,0.256 m -2.049,0.512 c 0.64,0 1.409,0 2.049,0.384 m -2.049,0.384 a 5.8,5.8 0 0 1 2.049,0.385 m -1.665,8.068 c 0.64,0 1.409,0 2.05,0.256 m -2.05,0.513 c 0.64,0 1.409,0 2.05,0.384 m -2.05,0 c 0.64,0 1.409,0 2.05,0.384 M 500,119.58 c 0.768,0 1.409,0 2.177,0.255 M 500,120.348 c 0.768,0 1.409,0 2.177,0.384 M 500,121.116 c 0.768,0 1.409,0.128 2.177,0.384 M 500,117.914 c 0.768,0 1.409,0 2.177,0.384 M 500,118.683 c 0.768,0 1.409,0.128 2.177,0.384 M 500,116.762 c 0.64,0 1.409,0.128 2.05,0.256 M 500,117.53 c 0.64,0 1.409,0 2.05,0.256 m -2.178,-2.946 c 0.64,0 1.409,0.129 2.177,0.385 m -2.177,0.512 c 0.64,0 1.409,0 2.177,0.256 m -2.177,0.128 c 0.64,0 1.409,0 2.177,0.256 m -2.177,-2.305 c 0.64,0 1.409,0 2.177,0.256 m -1.921,9.35 c 0.769,0 1.537,0 2.177,0.256 m -2.177,0.512 c 0.769,0 1.537,0 2.177,0.256 m -2.177,0.64 c 0.769,-0.128 1.537,0 2.177,0.257 m -2.177,0.511 c 0.769,0 1.537,0 2.177,0.257 m -2.177,0.513 c 0.769,0 1.537,0.127 2.177,0.256 m -1.921,0.64 c 0.64,0 1.409,0 2.05,0.384 m -2.05,0.512 c 0.64,0 1.409,0 2.05,0.257 m -2.05,0.511 c 0.64,0 1.409,0 2.05,0.257 m -2.05,0.513 c 0.769,-0.129 1.409,0 2.177,0.255 m -2.177,0.513 c 0.769,0 1.409,0.128 2.177,0.256 m -2.177,0.384 a 5.8,5.8 0 0 1 2.05,0.384 m -2.05,0.385 a 5.8,5.8 0 0 1 2.05,0.384 m -2.05,-10e-4 a 5.8,5.8 0 0 1 2.05,0.385 m -5.508,-32.018 c 0,0 0,-0.257 0.897,-0.257 m -0.897,1.41 c 0,0 0,-0.385 0.769,-0.385 m -0.897,1.409 c 0,0 0,-0.256 0.769,-0.512 m -0.897,1.536 c 0,0 0.128,-0.256 0.897,-0.384 m -0.897,1.409 c 0,0 0,-0.256 0.769,-0.384 m -0.769,1.409 c 0,0 0,-0.257 0.769,-0.385 m -0.897,1.409 c 0,0 0,-0.128 0.768,-0.384 m -0.768,1.537 c 0,0 0,-0.256 0.768,-0.384 m -0.896,1.409 c 0,0 0,-0.257 0.768,-0.385 m -0.896,1.409 c 0,0 0,-0.256 0.896,-0.384 m -0.896,1.409 c 0,0 0,-0.257 0.768,-0.257 m -0.896,1.409 c 0,0 0.128,-0.384 0.896,-0.512 m -1.024,1.537 c 0,0 0,-0.256 0.768,-0.512 m -0.896,1.536 c 0,0 0,-0.256 0.896,-0.384 m -0.896,1.409 c 0,0 0,-0.256 0.768,-0.384 m -0.896,1.409 c 0,0 0,-0.257 0.896,-0.385 m -0.896,1.409 c 0,0 0,-0.128 0.768,-0.384 m -0.768,1.537 c 0,0 0,-0.384 0.768,-0.384 m -1.025,1.537 c 0,0 0,-0.257 0.769,-0.385 m -0.896,1.409 c 0,0 0,-0.256 0.896,-0.384 m -0.896,1.409 c 0,0 0,-0.256 0.768,-0.385 m -0.897,1.409 c 0,0 0,-0.128 0.897,-0.384 m -0.897,1.793 c 0,0 0,-0.256 0.769,-0.512 m -0.769,1.537 c 0,0 0,-0.256 0.64,-0.385 m -0.768,1.409 c 0,0 0,-0.256 0.769,-0.384 m -0.897,1.409 c 0,0 0,-0.256 0.769,-0.384 m -0.897,1.665 c 0,0 0,-0.257 0.897,-0.385 m -0.897,1.409 c 0,0 0,-0.256 0.768,-0.384 m -0.896,1.537 c 0,0 0.128,-0.384 0.896,-0.512 m -0.896,1.408 c 0,0 0,-0.128 0.768,-0.384" stroke-width=".384" fill="none"/><g fill="#007e3a" stroke-width=".512"><path d="m 505.763,104.466 c 0,0 11.015,1.153 13.704,4.995 2.562,3.97 7.813,8.966 7.3,18.443 0,0 -1.793,-6.02 -2.305,-6.788 0,0 -1.025,3.842 -2.177,4.098 0,0 -0.256,-6.275 -0.512,-7.3 0,0 -1.025,3.202 -1.793,4.227 0,0 0,-6.02 -0.897,-7.172 0,0 -1.28,4.866 -1.921,4.866 0,0 0.384,-5.507 -0.384,-7.684 0,0 0,3.586 -0.769,4.482 0,0 0,-6.275 -1.024,-7.172 0,0 0,2.946 -0.769,3.714 0,0 -0.768,-7.556 -8.453,-8.709 z m -3.586,-11.782 c 0,0 18.059,-9.222 29.073,-8.837 11.014,0.256 19.34,-1.665 28.56,9.477 0,0 -6.531,-3.97 -8.452,-4.867 0,0 3.97,3.97 3.458,6.404 0,0 -4.867,-5.891 -6.276,-6.404 0,0 3.714,5.892 2.69,6.66 0,0 -4.995,-7.172 -7.173,-7.684 0,0 3.202,4.995 2.69,6.403 0,0 -7.172,-7.428 -10.246,-7.684 0,0 5.507,5.25 5.507,7.3 0,0 -0.64,-0.512 -4.482,-3.33 -3.97,-2.945 -3.97,-2.945 -4.227,-3.202 -0.257,-0.257 5.763,4.483 5.763,5.508 0,0 -6.019,-2.818 -7.812,-3.97 0,0 2.818,1.92 3.33,3.713 0,0 -5.507,-3.201 -7.556,-3.842 0,0 3.458,2.05 3.714,4.099 0,0 -4.739,-4.483 -6.788,-4.74 0,0 3.586,3.203 4.354,4.74 0,0 -5.507,-3.97 -6.788,-4.099 -1.28,-0.384 2.434,3.586 2.434,3.586 l -5.507,-3.074 v 3.074 c 0,0 -3.202,-2.305 -3.97,-2.305 -0.897,0 0.255,2.818 0.255,2.818 0,0 -2.049,-3.587 -12.55,0.256 z"/><path d="m 499.872,97.294 c 0,0 0.64,4.483 -0.897,8.197 0,0 3.202,-2.05 3.202,-3.586 l -1.409,6.916 3.33,-3.074 -2.945,6.148 4.61,-4.739 c 0,0 -2.817,6.788 -3.586,7.172 -0.896,0.512 3.842,-2.049 3.842,-2.049 l -3.201,6.148 c 0,0 5.123,-3.202 5.25,-4.74 0,-1.536 -4.098,8.07 -4.738,8.197 0,0 3.842,-2.561 4.354,-4.354 0,0 -2.817,6.148 -3.97,7.172 0,0 4.995,-3.458 5.251,-5.507 0,0 -2.946,9.477 -4.482,10.758 0,0 3.458,-1.537 3.586,-2.305 0,0 -4.099,7.044 -5.892,8.068 0,0 4.483,-1.536 5.892,-4.482 0,0 -0.769,6.916 -3.586,9.477 0,0 4.482,-3.97 5.25,-8.58 0,0 1.922,6.787 1.537,10.117 0,0 1.41,-10.63 0,-14.088 0,0 3.715,5.763 3.458,7.556 0,0 -0.512,-11.27 -3.073,-13.832 0,0 3.586,4.227 4.098,7.045 0,0 -3.202,-11.015 -5.507,-13.192 l 5.763,6.916 c 0,0 -4.995,-11.527 -6.532,-12.295 l 4.099,4.867 c 0,0 -2.306,-6.532 -4.099,-7.3 -1.793,-0.769 -2.817,-1.794 -2.817,-1.794 l 4.995,2.05 c 0,0 -5.636,-8.069 -7.429,-8.325 l 6.532,5.891 c 0,0 0,-4.867 -1.537,-5.891 0,0 4.355,4.098 5.251,6.275 0,0 1.025,-3.201 -1.793,-6.66 0,0 5.892,6.276 6.276,7.941 0,0 -0.512,-5.763 -1.665,-6.788 0,0 5.507,6.788 6.147,8.837 0,0 -0.384,-6.275 -2.945,-8.58 0,0 6.02,7.043 6.788,11.014 0,0 -0.769,-9.222 -2.05,-10.246 0,0 5.508,10.502 6.276,12.807 0,0 0,-6.788 -1.024,-7.812 0,0 4.482,6.788 4.482,8.965 0,0 -0.384,-7.94 -1.665,-8.965 0,0 4.483,7.044 4.739,9.093 0,0 -0.512,-5.763 -1.28,-6.404 0,0 3.201,4.355 3.33,6.404 l -1.026,-5.763 c 0,0 3.202,4.866 3.202,5.763 l -1.024,-4.098 c 0,0 3.074,2.69 3.33,3.33 0,0 -5.764,-8.07 -8.069,-9.606 -2.433,-1.537 -14.728,-7.684 -18.058,-8.197 -1.537,-0.256 -14.729,-0.768 -15.497,-0.512 h 4.738 l -1.92,-1.793 1.92,1.793 h 2.306 l -2.05,-2.05 2.05,2.05 3.97,0.256 c 0,0 -1.28,-1.665 -3.714,-3.458 0,0 3.074,2.177 3.714,3.458 l 3.33,0.256 -3.714,-3.714 3.714,3.714 c 0,0 2.177,0 3.458,0.769 0,0 -2.305,-3.586 -3.97,-4.995 0,0 3.458,3.458 3.97,4.995 0,0 2.177,0.64 2.946,1.28 0,0 -2.05,-5.379 -3.202,-5.891 0,0 4.226,4.355 4.482,5.635 0,0 -0.512,-5.507 -1.408,-6.02 0,0 3.97,5.892 4.226,7.43 0,0 -0.256,-6.02 -1.025,-7.045 0,0 3.97,6.532 4.227,8.325 0,0 -0.512,-6.276 -1.025,-7.044 0,0 3.842,5.763 3.33,7.044 0,0 1.665,-6.532 -0.512,-7.813 0,0 2.946,4.099 2.69,7.813 l 0.256,-3.714 c 0,0 1.28,3.97 1.024,4.995 -0.256,1.024 0.512,-3.458 0.512,-3.458 0,0 2.306,2.433 1.793,4.354 0,0 -1.28,-7.428 -2.817,-9.477 0,0 4.995,7.3 5.507,9.477 0.512,1.921 0.256,-2.177 0.256,-2.177 0,0 1.28,2.305 1.28,4.739 0,0 1.282,-7.429 -2.56,-10.502 0,0 3.842,3.97 4.226,8.452 l 0.768,-2.433 c 0,0 1.281,2.946 1.537,6.276 0,0 1.537,-5.251 -2.177,-9.35 0,0 4.867,3.842 5.507,11.527 v -6.916 c 0,0 2.69,4.995 2.946,7.172 0,0 0.512,-9.99 -6.276,-13.704 -6.788,-3.586 -14.984,-4.739 -20.748,-4.739 -5.764,0 -18.058,-0.256 -24.334,0.513 -6.403,0.768 0,0 0,0 l 5.507,-2.562 -2.69,-0.512 c 0,0 2.306,0.512 2.69,0.512 1.281,-0.384 3.074,-1.28 3.074,-1.28 0,0 -2.69,-1.153 -3.97,-1.153 l 3.97,1.152 3.714,-1.408 c 0,0 -2.817,-0.769 -4.226,-1.025 -1.28,-0.256 3.97,1.28 4.226,1.025 0.256,-0.255 2.69,-0.897 3.714,-1.153 1.153,-0.256 -3.458,-2.177 -5.25,-2.177 0,0 6.147,-1.41 10.117,0.256 0,0 -4.482,-2.69 -7.556,-2.946 0,0 8.965,0.769 11.27,1.921 0,0 -1.793,-2.177 -4.738,-2.69 0,0 5.763,0.257 8.709,2.05 0,0 -4.995,-3.842 -6.788,-4.227 0,0 7.044,1.665 9.35,3.202 0,0 -3.715,-3.842 -4.996,-3.842 -1.281,0 4.995,2.05 4.995,2.05 0,0 -2.305,-2.05 -3.714,-2.69 0,0 7.94,2.177 9.477,3.714 0,0 -4.994,-6.532 -6.019,-6.532 0,0 4.739,2.305 5.251,3.074 0,0 -2.561,-2.818 -3.33,-3.074 0,0 5.763,2.177 7.556,3.586 0,0 -5.25,-7.044 -12.038,-5.891 -6.916,0.896 -17.418,5.891 -19.212,7.556 -1.793,1.537 -8.324,4.995 -10.758,11.783 0,0 -3.073,-6.276 -5.507,-8.71 -2.305,-2.304 -8.325,-10.63 -19.339,-11.782 0,0 6.02,2.69 7.556,3.714 0,0 -3.714,0.256 -6.02,1.921 0,0 7.301,0.513 8.966,1.281 0,0 -5.891,1.537 -6.788,2.305 0,0 8.581,0.257 10.118,0.769 0,0 -5.123,1.153 -6.788,1.793 0,0 9.221,0.768 10.246,1.409 1.025,0.512 -7.684,1.28 -7.684,1.28 0,0 8.709,1.537 9.733,2.562 l -5.763,0.896 c 0,0 7.684,1.537 8.197,3.587 0,0 -12.68,-5.251 -19.468,-6.532 -6.788,-1.281 -17.546,-3.202 -22.797,-0.513 -5.25,2.562 -10.502,8.581 -9.99,12.296 0,0 3.202,-5.764 8.453,-8.71 l -5.25,7.173 6.019,-5.251 c 0,0 -3.202,3.97 -3.33,6.02 -0.384,2.048 0,-0.77 0,-0.77 0,0 6.788,-8.964 8.068,-9.477 0,0 -3.714,5.507 -4.226,7.172 0,0 7.556,-7.684 8.965,-7.684 0,0 -4.995,5.763 -5.507,8.197 0,0 7.3,-7.172 11.014,-7.685 0,0 -5.25,4.227 -6.02,5.764 l 6.277,-4.995 c 0,0 -3.202,4.482 -3.458,5.507 0,0 4.226,-5.251 7.684,-5.507 0,0 -3.714,3.714 -4.226,4.995 0,0 6.019,-4.483 7.812,-4.74 0,0 -3.586,2.946 -4.483,4.227 0,0 5.251,-3.074 6.532,-3.458 l -2.305,3.714 4.226,-2.817 -3.202,2.817 3.202,0.257 2.434,-2.05 -2.306,1.921 h 3.33 l 0.897,-1.408 -1.025,1.537 3.586,0.512 0.897,-2.05 -0.897,2.05 c 0,0 3.202,0.128 6.916,0.384 0,0 -19.339,-1.921 -25.614,-0.896 -6.276,1.024 -21.26,6.916 -24.975,17.418 -2.05,5.763 0.512,7.3 0.512,7.3 0,0 0.513,-7.685 2.69,-8.71 0,0 -1.025,5.892 0,7.301 l 1.28,-4.995 1.281,2.946 c 0,0 0.257,-4.995 1.025,-6.532 0,0 0.256,6.276 1.025,6.788 0,0 -0.128,-9.093 1.665,-11.27 0,0 -1.665,5.25 0.256,7.172 0,0 0.512,-8.453 3.586,-10.502 0,0 -3.33,7.3 -1.28,9.349 0,0 1.92,-8.837 6.147,-11.27 0,0 -4.227,5.507 -2.434,8.196 0,0 4.483,-9.477 8.069,-10.502 0,0 -3.586,4.227 -3.074,6.788 0,0 4.227,-6.788 6.532,-7.044 l -2.305,5.507 c 0,0 4.226,-5.25 5.635,-5.507 0,0 -1.921,2.561 -1.793,3.586 0,0 3.714,-3.074 4.738,-3.842 l -1.408,2.177 2.69,-1.409 1.664,-1.92 -1.665,1.92 3.842,-0.128 1.153,-1.409 -1.153,1.41 3.074,0.127 0.512,-1.409 -0.512,1.41 2.05,0.255 0.512,-1.665 -0.513,1.665 2.69,0.257 c 0,0 -9.478,-1.281 -11.655,-0.513 -2.049,0.769 -10.63,5.251 -16.009,9.99 -5.123,4.61 -12.423,11.527 -10.63,23.822 0,0 0.768,-6.276 1.537,-6.788 0,0 0,3.842 0.768,4.354 0,0 -0.256,-6.531 0.512,-7.556 0,0 0.513,5.251 1.537,5.763 0,0 -0.256,-8.709 0.257,-9.733 0,0 0.384,4.61 1.152,5.507 0,0 1.537,-9.99 3.074,-11.27 0,0 -1.793,6.66 -1.025,11.142 0,0 1.281,-5.764 1.793,-6.66 0,0 0,3.458 1.665,4.483 0,0 -0.64,-6.788 0,-8.453 0,0 0.769,2.433 1.537,3.97 0,0 -0.768,-4.995 -0.512,-6.02 0,0 0.768,3.97 2.818,4.74 0,0 -1.025,-3.715 -0.769,-4.996 0,0 1.28,2.946 2.434,2.946 0,0 -1.281,-4.226 -1.153,-4.995 l 2.69,3.714 c 0,0 -1.281,-4.867 -1.025,-5.507 l 2.305,3.074 c 0,0 -1.793,-4.483 0.897,-5.763 l 0.64,3.714 c 0,0 0.384,-2.946 2.177,-4.483 0,0 -0.256,1.793 0.256,2.562 0,0 1.025,-4.483 2.05,-4.74 v 3.459 c 0,0 1.28,-2.69 2.177,-3.202 l 0.512,2.177 c 0,0 4.099,-2.69 5.251,-2.69 h 8.069 c 0,0 -2.306,1.41 -3.714,2.69 0,0 1.92,0.256 3.458,0.513 0,0 -6.02,-0.513 -7.557,2.305 0,0 5.764,-0.769 6.788,-0.256 0,0 -6.788,1.152 -8.196,3.202 0,0 5.89,-1.281 7.428,-1.025 0,0 -6.276,1.793 -7.044,3.074 0,0 4.995,-0.513 6.02,-0.256 0,0 -6.917,1.28 -7.685,3.201 0,0 6.66,-0.768 7.172,0 0,0 -6.404,2.05 -7.685,3.587 0,0 4.483,0.64 5.252,0.64 0,0 -5.508,1.28 -6.02,2.818 0,0 3.074,0.512 4.226,0 0,0 -3.458,3.201 -4.482,5.763 0,0 3.202,-2.562 4.482,-3.074 0,0 -3.714,4.355 -3.458,7.556 l 2.946,-2.945 c 0,0 -3.202,4.738 -3.202,6.403 l 3.202,-3.201 c 0,0 -1.28,8.709 0.512,9.99 l 0.769,-9.478 c 0,0 2.05,0 4.226,7.3 l -2.433,-9.35 c 0,0 3.458,2.306 3.458,4.996 0,2.561 1.025,-3.97 -3.202,-9.222 0,0 5.251,5.251 5.891,7.3 0,0 -3.97,-9.861 -4.994,-11.014 l 5.123,6.66 c 0,0 -0.129,-6.916 -4.099,-9.862 l 6.02,4.995 c 0,0 -1.921,-6.275 -3.202,-7.3 l 3.458,3.97 c 0,0 -2.69,-6.275 -4.227,-7.556 l 4.227,4.482 c 0,0 -1.28,-7.428 -2.306,-8.452 l 2.306,3.586 -1.025,-5.636 1.793,1.793 c 0,0 -0.128,-3.33 -0.64,-3.97 -0.512,-0.64 1.024,0.256 1.024,0.256 z"/></g></g><path d="m 491.675,96.27 c 0,0 -5.891,2.177 -14.472,4.61 l 2.561,1.281 c 0,0 -6.403,1.025 -8.068,1.28 -1.537,0.385 4.482,1.922 4.482,1.922 0,0 -7.684,0.384 -8.453,1.025 -0.768,0.512 6.276,1.28 6.276,1.28 0,0 -9.862,1.281 -10.63,2.178 -0.897,0.768 9.99,0 9.99,0 l -10.502,2.049 7.3,0.768 c 0,0 -7.94,0.512 -8.453,1.665 l 6.788,0.512 -8.325,3.33 5.507,-0.512 c 0,0 -7.3,4.483 -6.275,13.448 0,0 1.28,-5.892 4.994,-8.197 0,0 -0.896,7.3 0.769,9.478 0,0 1.793,-9.734 2.561,-11.655 0,0 1.922,6.916 1.665,8.709 0,0 0.769,-8.71 0.769,-9.606 0,0 2.817,1.793 2.817,3.33 0,1.537 -1.28,-7.556 -0.768,-8.709 0.512,-1.024 1.793,5.38 1.793,5.38 l 1.28,-7.429 1.922,6.788 c 0,0 0.768,-8.069 0.768,-8.837 0,-0.897 2.178,6.532 2.178,6.532 0,0 0.128,-7.557 0,-8.71 -0.385,-1.024 1.536,3.202 1.536,3.202 0,0 0.513,-3.714 0.257,-4.994 -0.257,-1.281 1.024,7.044 1.024,7.044 0,0 2.818,-8.069 2.177,-9.478 -0.768,-1.28 1.793,4.995 1.793,4.995 0,0 1.025,-6.276 0.513,-7.3 -0.513,-1.025 1.537,2.177 1.537,2.177 l 0.512,-4.354 1.28,1.152 c 0,0 3.203,-3.97 3.971,-4.738 z" fill="#007e3a"/><g stroke="#000"><g fill="none" stroke-width=".512"><path d="m 491.675,96.27 c 0,0 -5.891,2.177 -14.472,4.61 m 0,0 2.561,1.281 m 0,0 c 0,0 -6.403,1.025 -8.068,1.28 -1.537,0.385 4.482,1.922 4.482,1.922 0,0 -7.684,0.384 -8.453,1.025 -0.768,0.512 6.276,1.28 6.276,1.28 0,0 -9.862,1.281 -10.63,2.178 -0.897,0.768 9.99,0 9.99,0"/><path d="m 473.36,109.846 -10.501,2.049 7.3,0.768 m 0,0 c 0,0 -7.94,0.512 -8.453,1.665 m 0,0 6.788,0.512 -8.325,3.33 5.507,-0.512"/><path d="m 465.676,117.658 c 0,0 -7.3,4.483 -6.275,13.448 0,0 1.28,-5.892 4.994,-8.197 0,0 -0.896,7.3 0.769,9.478 0,0 1.793,-9.734 2.561,-11.655 0,0 1.922,6.916 1.665,8.709 0,0 0.769,-8.71 0.769,-9.606 0,0 2.817,1.793 2.817,3.33 0,1.537 -1.28,-7.556 -0.768,-8.709 0.512,-1.024 1.793,5.38 1.793,5.38 m 0,-0.001 1.28,-7.428 1.922,6.788 m 0,0 c 0,0 0.768,-8.069 0.768,-8.837 0,-0.897 2.178,6.532 2.178,6.532 0,0 0.128,-7.557 0,-8.71 -0.385,-1.024 1.536,3.202 1.536,3.202 0,0 0.513,-3.714 0.257,-4.994 -0.257,-1.281 1.024,7.044 1.024,7.044 0,0 2.818,-8.069 2.177,-9.478 -0.768,-1.28 1.793,4.995 1.793,4.995 0,0 1.025,-6.276 0.513,-7.3 -0.513,-1.025 1.537,2.177 1.537,2.177 m 0,0 0.512,-4.354 1.28,1.152 m 10e-4,0 c 0,0 3.202,-3.97 3.97,-4.738"/></g><g stroke-width=".615"><path d="m 497.95,274.42 c 12.04,0 13.32,-2.561 13.32,-2.561 v -4.61 c 0,0 -1.28,2.305 -13.447,2.305 -12.04,0 -13.32,-2.306 -13.32,-2.306 v 4.61 c 0,0 1.28,2.562 13.448,2.562 z" fill="#d21034" stroke-width=".384"/><path d="m 497.823,269.554 c 12.167,0 13.447,-2.306 13.447,-2.306 v -18.955 c 0,0 -1.28,2.434 -13.447,2.434 -12.04,0 -13.32,-2.434 -13.32,-2.434 v 18.955 c 0,0 1.537,2.306 13.32,2.306 z" fill="#ffce00" stroke-width=".384"/><path d="m 497.95,239.84 c 12.168,0 13.32,3.074 13.32,3.074 v 2.177 c 0,0 -1.28,-2.305 -13.447,-2.305 -12.04,0 -13.32,2.305 -13.32,2.305 l 0.128,-2.433 c 0,0 1.409,-2.818 13.32,-2.818 z" fill="#d21034" stroke-width=".384"/><path d="m 485.656,250.342 c 0.896,0.513 2.69,0.897 5.635,1.281 m 7.3,0.257 c 1.665,-0.129 3.202,-0.129 4.483,-0.257 m 3.586,-0.384 c 3.842,-0.768 4.354,-1.665 4.354,-1.665 m -25.358,2.049 c 0.896,0.384 2.69,0.897 5.635,1.153 m 7.3,0.256 c 1.665,0 3.202,-0.128 4.483,-0.128 m 3.586,-0.512 c 3.842,-0.64 4.354,-1.665 4.354,-1.665 m -25.358,1.921 c 0.896,0.512 2.69,1.024 5.635,1.28 m 7.3,0.257 c 1.665,0 3.202,0 4.483,-0.256 m 3.586,-0.257 c 3.842,-0.768 4.354,-1.793 4.354,-1.793 m -25.358,2.05 c 0.896,0.384 2.69,0.896 5.635,1.152 m 7.3,0.384 c 1.665,-0.128 3.202,-0.256 4.483,-0.256 m 3.586,-0.512 c 3.842,-0.64 4.354,-1.665 4.354,-1.665 m -25.358,2.049 c 0.896,0.384 2.69,0.897 5.635,1.281 m 7.3,0.256 c 1.665,0 3.202,-0.128 4.483,-0.256 m 3.586,-0.384 c 3.842,-0.769 4.354,-1.793 4.354,-1.793 m -25.358,2.049 c 0.896,0.512 2.69,0.896 5.635,1.28 m 7.3,0.256 c 1.665,0 3.202,-0.127 4.483,-0.255 m 3.586,-0.385 c 3.842,-0.768 4.354,-1.665 4.354,-1.665 m -25.358,2.05 c 0.896,0.384 2.69,0.896 5.635,1.152 m 7.3,0.256 c 1.665,0 3.202,-0.128 4.483,-0.128 m 3.586,-0.512 c 3.842,-0.64 4.354,-1.665 4.354,-1.665 m -25.358,2.049 c 0.896,0.385 2.69,0.897 5.635,1.153 m 7.3,0.256 c 1.665,0 3.202,0 4.483,-0.128 m 3.586,-0.384 c 3.842,-0.769 4.354,-1.793 4.354,-1.793 m -25.358,2.049 c 0.896,0.384 2.69,0.896 5.635,1.153 m 7.3,0.384 c 1.665,-0.128 3.202,-0.128 4.483,-0.256 m 3.586,-0.513 c 3.842,-0.64 4.354,-1.665 4.354,-1.665 m -25.358,2.05 c 0.896,0.384 2.69,0.896 5.635,1.28 m 7.3,0.257 c 1.665,0 3.202,-0.129 4.483,-0.257 m 3.586,-0.383 c 3.842,-0.641 4.354,-1.794 4.354,-1.794 m -25.358,2.049 c 0.896,0.513 2.69,1.025 5.635,1.281 m 7.3,0.256 c 1.665,0 3.202,-0.128 4.483,-0.256 m 3.586,-0.384 c 3.842,-0.769 4.354,-1.665 4.354,-1.665 m -25.358,2.049 c 0.896,0.384 2.69,0.897 5.635,1.153 m 7.3,0.256 c 1.665,0 3.202,-0.128 4.483,-0.128 m 3.586,-0.513 c 3.842,-0.64 4.354,-1.665 4.354,-1.665 m -25.358,2.05 c 0.896,0.384 2.69,0.896 5.635,1.28 m 7.3,0.128 c 1.665,0 3.202,0 4.483,-0.128 m 3.586,-0.384 c 3.842,-0.768 4.354,-1.793 4.354,-1.793 m -25.358,2.049 c 0.896,0.385 2.69,0.897 5.635,1.153 m 7.3,0.384 c 1.665,0 3.202,-0.128 4.483,-0.256 m 3.586,-0.384 c 3.842,-0.769 4.354,-1.793 4.354,-1.793 m -25.358,2.049 c 0.896,0.512 2.69,0.897 5.635,1.28 m 7.3,0.256 c 1.665,0 3.202,-0.127 4.483,-0.255 m 3.586,-0.385 c 3.842,-0.64 4.354,-1.793 4.354,-1.793" stroke-width=".384" fill="none"/><path d="m 497.823,270.45 c 12.167,0 13.447,-2.305 13.447,-2.305 v -0.897 c 0,0 -1.28,2.306 -13.447,2.306 -12.04,0 -13.32,-2.306 -13.32,-2.306 v 0.897 c 0,0 1.28,2.305 13.32,2.305 z" fill="#fff" stroke-width=".384"/><path d="m 484.887,248.678 5.123,19.21 4.867,-17.417 h 0.897 l 4.994,17.802 4.867,-18.187 0.769,-0.128 4.866,16.01 v 1.28 l -0.512,0.513 -4.739,-15.497 -4.482,17.161 -1.665,0.129 -4.61,-16.522 -4.483,16.137 -1.793,-0.256 -4.483,-18.186 v -2.434 z" fill="#d21034" stroke-width=".384"/><path d="M 501.28,273.908 H 500 v -2.946 h 1.28 z m 8.838,-29.457 c -1.409,-0.64 -4.355,-1.665 -12.167,-1.665 -7.685,0 -10.502,0.897 -11.911,1.537 l -0.256,0.128 c 1.28,0.64 4.482,1.793 12.167,1.793 7.94,0 10.886,-1.153 12.167,-1.793 z m -11.655,-2.049 h -1.153 v -2.177 h 1.153 z m -8.837,0.384 v -1.921 l 1.153,-0.128 v 1.921 z m 16.65,0.128 v -1.92 l -1.153,-0.257 v 1.921 z m -16.01,30.482 v -2.69 l -1.28,-0.256 v 2.562 z m 19.468,-1.025 v -2.561 l 1.28,-0.64 v 2.689 z" stroke-width=".384" fill="#fff"/><path d="m 497.823,250.727 c 12.167,0 13.447,-2.434 13.447,-2.434 v -4.866 c 0,0 -1.28,2.817 -13.447,2.817 -12.04,0 -13.32,-3.074 -13.32,-3.074 v 5.123 c 0,0 1.28,2.434 13.32,2.434 z" fill="#d21034" stroke-width=".384"/><path d="m 505.251,249.574 v -2.69 l 1.409,-0.128 v 2.562 z m -9.093,0.384 h -1.409 v -3.074 h 1.409 z m -10.886,-1.665 -0.769,-0.512 v -2.69 l 0.769,0.385 z" stroke-width=".384" fill="#fff"/><path d="m 385.502,275.701 -15.24,7.044 c -1.153,0.128 -1.666,1.537 -0.257,3.074 0,0 -1.665,0.768 -2.433,0.512 0,0 -1.537,-2.817 -3.074,-2.305 0,0 1.28,-2.946 1.28,-4.227 0,-1.281 -0.384,-8.452 0.385,-9.605 0,0 -2.562,1.153 -3.33,2.818 0,0 0.384,-6.148 10.63,-10.118 0,0 -2.946,7.172 -2.433,9.99 0,0 -2.306,-0.64 -2.69,-2.434 0,0 -0.512,6.148 0,8.325 0.64,2.049 1.153,1.665 2.818,0.896 2.177,-1.024 12.807,-5.635 12.807,-5.635 0,0 0.384,-1.409 1.921,-2.177 1.41,-0.897 2.562,-0.384 3.074,0.512 0.897,1.28 0,2.434 -0.64,2.818 -1.537,0.896 -2.69,1.152 -2.818,0.512 l -0.768,-0.64 c 0,0 1.024,0.384 2.049,-0.128 0.512,-0.256 2.049,-1.025 1.409,-1.921 -0.64,-1.153 -2.05,-0.129 -2.562,0.256 -0.384,0.256 -1.153,1.409 -0.896,1.793 z" fill="#ffce00" stroke-width=".384"/><path d="m 382.94,271.859 c 0,0 1.666,0.512 3.33,6.147 0,0 -0.512,0.257 -0.768,0.257 0,0 -1.665,-0.513 -3.458,-5.764 0,0 0.256,-0.64 0.897,-0.64 z" fill="#ffce00" stroke-width=".384"/><path d="m 382.3,273.14 1.28,-0.769 0.513,0.769 -1.537,0.768 z m 2.05,4.226 1.408,-0.896 0.128,0.768 -1.152,0.64 z m -7.941,0 c 0,0 2.305,-1.025 3.202,-1.537 0.896,-0.384 3.586,0.512 3.97,0.512 l -0.384,-1.152 c 0,0 -1.793,-0.897 -4.227,-0.256 -1.409,0.384 -2.177,0.768 -3.458,1.537 -1.793,1.28 -2.433,2.305 -2.433,2.305 z m -1.281,3.074 c 0,0.896 -0.896,2.049 -2.433,2.69 -1.537,0.512 -3.586,0.768 -3.586,0.768 0,0 -0.128,-0.64 1.152,-1.153 1.28,-0.513 4.867,-2.305 4.867,-2.305 z" stroke-width=".384" fill="#fff"/><path d="m 375.128,277.878 c 0.384,-0.256 -0.128,-0.896 0.256,-1.152 m 1.153,0.64 c -0.128,-0.384 0.128,-1.537 0.512,-1.793 m 0.897,0.897 c 0,-0.64 0.128,-0.897 0.512,-1.281 m 0.897,0.768 c 0.256,-0.384 0.384,-0.896 0.768,-1.152 m 0.897,1.025 c -0.257,-0.257 0.256,-0.513 0.256,-0.641 0,-0.256 0.384,-0.128 0.512,-0.384 m 0.512,1.408 c 0.128,-0.512 0.384,-0.896 1.025,-0.896 m -9.605,6.019 c 0.127,0.385 0.383,0.64 0.127,1.153 m -1.665,-0.769 c 0.385,0.513 0.385,1.281 -0.128,1.537 m -1.537,-0.768 c 0.385,0.384 0,0.768 -0.64,1.153 m -0.257,-18.571 2.178,-0.512 m -4.226,1.793 3.202,-0.769 m -4.739,1.793 3.97,-1.024 m -4.226,1.921 2.561,-0.512 m -3.714,1.793 2.69,-0.513 m -3.202,1.537 2.049,-0.384 m -0.128,2.049 1.024,-0.512 m -1.024,1.793 0.768,-0.512 m -0.768,1.793 1.024,-0.513 m -1.024,1.793 1.024,-0.512 m -1.024,2.69 1.024,-0.513 m -1.28,2.05 1.024,-0.513 m -0.768,1.537 1.024,-0.256 m -1.536,1.792 1.024,-0.511" stroke-width=".384" fill="none"/><path d="m 611.424,275.701 15.241,7.044 c 1.153,0.128 1.665,1.537 0.256,3.074 0,0 1.537,0.768 2.305,0.512 0,0 1.665,-2.817 3.202,-2.305 0,0 -1.28,-2.946 -1.28,-4.227 0,-1.281 0.384,-8.452 -0.385,-9.605 0,0 2.562,1.153 3.202,2.818 0,0 -0.256,-6.148 -10.63,-10.118 0,0 2.946,7.172 2.562,9.99 0,0 2.305,-0.64 2.561,-2.434 0,0 0.64,6.148 0,8.325 -0.512,2.049 -1.025,1.665 -2.69,0.896 -2.177,-1.024 -12.935,-5.635 -12.935,-5.635 0,0 -0.384,-1.409 -1.793,-2.177 -1.537,-0.897 -2.562,-0.384 -3.202,0.512 -0.768,1.28 0.128,2.434 0.769,2.818 1.536,0.896 2.561,1.152 2.817,0.512 l 0.64,-0.64 c 0,0 -1.024,0.384 -1.92,-0.128 -0.513,-0.256 -2.05,-1.025 -1.41,-1.921 0.641,-1.153 1.922,-0.129 2.434,0.256 0.384,0.256 1.153,1.409 0.897,1.793 z" fill="#ffce00" stroke-width=".384"/><path d="m 613.986,271.859 c 0,0 -1.665,0.512 -3.33,6.147 0,0 0.512,0.257 0.768,0.257 0,0 1.665,-0.513 3.458,-5.764 0,0 -0.384,-0.64 -0.896,-0.64 z" fill="#ffce00" stroke-width=".384"/><path d="m 614.626,273.14 -1.409,-0.769 -0.384,0.769 1.537,0.768 z m -2.177,4.226 -1.281,-0.896 -0.256,0.768 1.153,0.64 z m 8.068,0 c 0,0 -2.305,-1.025 -3.201,-1.537 -0.897,-0.384 -3.586,0.512 -3.97,0.512 l 0.384,-1.152 c 0,0 1.793,-0.897 4.098,-0.256 1.537,0.384 2.305,0.768 3.458,1.537 1.921,1.28 2.561,2.305 2.561,2.305 z m 1.153,3.074 c 0,0.896 0.897,2.049 2.562,2.69 1.536,0.512 3.586,0.768 3.586,0.768 0,0 0.128,-0.64 -1.153,-1.153 -1.281,-0.513 -4.995,-2.305 -4.995,-2.305 z" stroke-width=".384" fill="#fff"/><path d="m 621.798,277.878 c -0.512,-0.256 0.128,-0.896 -0.256,-1.152 m -1.152,0.64 c 0.127,-0.384 -0.129,-1.537 -0.513,-1.793 m -0.897,0.897 c 0,-0.64 -0.256,-0.897 -0.64,-1.281 m -0.896,0.768 c -0.128,-0.384 -0.385,-0.896 -0.64,-1.152 m -1.025,1.025 c 0.384,-0.257 -0.128,-0.513 -0.128,-0.641 0,-0.256 -0.513,-0.128 -0.64,-0.384 m -0.513,1.408 c 0,-0.512 -0.256,-0.896 -0.897,-0.896 m 9.606,6.019 c -0.128,0.385 -0.384,0.64 -0.256,1.153 h 0.128 m 1.537,-0.769 c -0.256,0.513 -0.384,1.281 0.256,1.537 m 1.408,-0.768 c -0.383,0.384 0.129,0.768 0.77,1.153 m 0.127,-18.571 -2.049,-0.512 m 4.098,1.793 -3.073,-0.769 m 4.738,1.793 -3.97,-1.024 m 4.227,1.921 -2.69,-0.512 m 3.714,1.793 -2.561,-0.513 m 3.073,1.537 -1.92,-0.384 m 0.127,2.049 -1.152,-0.512 m 1.152,1.793 -0.768,-0.512 m 0.768,1.793 -1.152,-0.513 m 1.152,1.793 -1.152,-0.512 m 1.152,2.69 -1.152,-0.513 m 1.409,2.05 -1.025,-0.513 m 0.768,1.537 -1.152,-0.256 m 1.665,1.792 -1.025,-0.511" stroke-width=".384" fill="none"/><path d="m 470.03,269.81 c 1.281,-0.128 4.355,0.384 4.868,1.665 0.384,0.896 0,2.817 -4.74,2.817 -5.763,0 -7.171,-2.433 -4.866,-3.714 2.177,-1.28 3.074,-0.64 4.739,-0.768 z" fill="#ffce00" stroke-width=".384"/></g></g><path d="m 466.7,271.475 c 3.203,-2.946 2.69,-25.359 2.69,-26 0,-0.384 -0.384,-0.768 -0.384,-0.768 -0.128,-0.512 -1.024,-0.64 -1.024,-0.64 h 3.714 c 0,0 -0.897,0.384 -0.897,0.896 0,1.153 0.128,2.306 0.128,2.306 -0.256,-0.769 0.64,-1.537 1.793,-1.537 4.099,0 3.714,4.354 3.714,4.354 v 10.887 c 0,2.945 -1.665,4.61 -3.714,4.61 -1.024,0 -1.28,-0.384 -1.28,-0.384 l -0.257,-3.458 c 0.128,0.512 0.513,1.28 1.537,1.28 1.153,0 1.665,-1.28 1.665,-2.433 v -10.246 c 0,-1.026 0,-2.561 -1.409,-2.561 -0.64,0 -1.92,0.256 -2.049,2.177 -0.128,2.05 -0.128,19.211 1.921,21.517 z" fill="#ffce00"/><g stroke="#000" stroke-width=".384"><g fill="none"><path d="m 466.7,271.475 c 3.203,-2.946 2.69,-25.359 2.69,-26 0,-0.384 -0.384,-0.768 -0.384,-0.768 -0.128,-0.512 -1.024,-0.64 -1.024,-0.64 m 0,0 h 3.714 m 0,0 c 0,0 -0.897,0.384 -0.897,0.896 0,1.153 0.128,2.306 0.128,2.306 -0.256,-0.769 0.64,-1.537 1.793,-1.537 4.099,0 3.714,4.354 3.714,4.354 v 10.887 c 0,2.945 -1.665,4.61 -3.714,4.61 -1.024,0 -1.28,-0.384 -1.28,-0.384 m 0,0 -0.257,-3.458"/><path d="m 471.183,261.741 c 0.128,0.512 0.513,1.28 1.537,1.28 1.153,0 1.665,-1.28 1.665,-2.433 v -10.246 c 0,-1.026 0,-2.561 -1.409,-2.561 -0.64,0 -1.92,0.256 -2.049,2.177 -0.128,2.05 -0.128,19.211 1.921,21.517"/></g><path d="m 525.87,269.81 c -1.28,-0.128 -4.354,0.384 -4.994,1.665 -0.384,0.896 0.128,2.817 4.867,2.817 5.763,0 7.044,-2.433 4.867,-3.714 -2.306,-1.28 -3.074,-0.64 -4.74,-0.768 z" fill="#ffce00"/></g><path d="m 529.073,271.475 c -3.074,-2.946 -2.562,-25.359 -2.562,-26 0,-0.384 0.256,-0.768 0.256,-0.768 0.257,-0.512 1.025,-0.64 1.025,-0.64 h -3.714 c 0,0 1.024,0.384 1.024,0.896 0,1.153 -0.128,2.306 -0.128,2.306 0.257,-0.769 -0.64,-1.537 -1.92,-1.537 -3.971,0 -3.587,4.354 -3.587,4.354 v 10.887 c 0,2.945 1.665,4.61 3.586,4.61 1.025,0 1.41,-0.384 1.41,-0.384 l 0.255,-3.458 c -0.256,0.512 -0.64,1.28 -1.665,1.28 -1.152,0 -1.537,-1.28 -1.665,-2.433 v -10.246 c 0,-1.026 0,-2.561 1.41,-2.561 0.768,0 2.048,0.256 2.176,2.177 0.128,2.05 0.128,19.211 -1.92,21.517 z" fill="#ffce00"/><g stroke="#000"><g stroke-width=".615"><g fill="none" stroke-width=".384"><path d="m 529.073,271.475 c -3.074,-2.946 -2.562,-25.359 -2.562,-26 0,-0.384 0.256,-0.768 0.256,-0.768 0.257,-0.512 1.025,-0.64 1.025,-0.64 m 0,0 h -3.714 m 0,0 c 0,0 1.024,0.384 1.024,0.896 0,1.153 -0.128,2.306 -0.128,2.306 0.257,-0.769 -0.64,-1.537 -1.92,-1.537 -3.971,0 -3.587,4.354 -3.587,4.354 v 10.887 c 0,2.945 1.665,4.61 3.586,4.61 1.025,0 1.41,-0.384 1.41,-0.384 m -10e-4,0 0.256,-3.458"/><path d="m 524.718,261.741 c -0.256,0.512 -0.64,1.28 -1.665,1.28 -1.152,0 -1.537,-1.28 -1.665,-2.433 v -10.246 c 0,-1.026 0,-2.561 1.41,-2.561 0.768,0 2.048,0.256 2.176,2.177 0.128,2.05 0.128,19.211 -1.92,21.517"/></g><path d="m 544.57,231.003 c 0,0 -0.256,-9.477 -4.611,-9.477 -4.098,0 -4.739,9.477 -4.739,9.477 0,0 2.818,0.513 4.739,0.513 1.793,0 4.61,-0.513 4.61,-0.513 z" fill="#ffce00" stroke-width=".384"/><path d="m 535.22,230.107 v 0.896 c 0,0 2.818,0.513 4.739,0.513 1.793,0 4.61,-0.513 4.61,-0.513 v -1.152 c 0,0 -1.792,0.768 -4.61,0.768 -2.946,0 -4.739,-0.512 -4.739,-0.512 z" fill="#d21034" stroke-width=".384"/><path d="m 535.989,230.363 v 0.768 m 1.024,-0.768 v 0.768 m 1.025,-0.511 v 0.64 m 1.152,-0.64 v 0.768 m 1.281,-0.768 v 0.768 m 0.897,-0.897 v 0.768 m 1.281,-0.896 v 0.768 m 1.024,-0.896 v 0.896" stroke-width=".384" fill="none"/><path d="m 535.22,231.003 c 0,0 -1.665,0.769 -1.152,1.41 0.768,0.64 4.226,0.896 7.172,-0.897 h -1.281 c -0.512,0 -4.098,-0.257 -4.739,-0.513 z" fill="#ffce00" stroke-width=".384"/><path d="m 540.343,221.654 c 0,0 0,-0.512 0.256,-0.64 0.385,-0.257 2.818,-1.537 2.434,-2.69 -0.128,-1.153 -1.537,-2.177 -4.099,-2.305 -3.97,-0.256 -7.684,0.768 -7.428,3.33 0.384,2.561 3.97,2.69 4.61,2.69 1.282,-0.257 2.562,-1.41 3.075,-1.41 0.768,0.128 0.384,0.897 0.384,0.897 z" fill="#d21034" stroke-width=".384"/><path d="m 539.319,222.679 h 0.64 m 0.768,0.128 c 0.513,-0.128 1.025,-0.128 1.41,-0.128 m -2.947,0.511 h 0.897 m 0.64,0 c 0.64,0 1.281,0 1.665,-0.127 m -3.33,0.512 h 1.025 m 0.769,0.128 c 0.768,0 1.536,-0.128 1.92,-0.128 m -3.586,0.385 c 0.257,0.127 0.64,0.127 0.897,0.127 m 0.897,0 c 0.768,0 1.536,0 2.049,-0.128 m -3.843,0.513 h 0.897 m 0.897,0.128 c 0.768,0 1.92,0 2.433,-0.128 m -4.227,0.384 c 0,0 0.385,0.128 0.897,0.128 m 0.769,0 c 0.896,0 2.049,0 2.561,-0.128 m -3.97,0.512 c 0,0 0.256,0 0.64,0.128 m 0.897,0.128 c 1.024,0 2.049,0 2.69,-0.256 m -4.484,0.64 h 0.897 m 1.025,0.129 c 1.024,0 2.049,0 2.69,-0.129 m -4.612,0.512 h 0.897 m 0.897,0.129 c 1.152,0 2.305,0 3.073,-0.128 m -4.867,0.512 h 1.153 m 0.769,0.128 c 1.024,0 2.305,0 3.073,-0.128 m -4.995,0.64 h 0.897 m 1.153,0 c 1.152,0.128 2.305,0.128 2.945,0 m -4.866,0.513 c 0.256,0 0.64,0 1.024,0.128 m 0.897,0 c 1.152,0 2.433,0 3.074,-0.128 m -5.38,0.512 c 0,0 0.128,0 0.257,0.128 m -10e-4,0 h 1.153 m 1.025,0.128 c 1.024,0 2.305,0 2.946,-0.256 m -5.124,0.64 c 0.257,0 0.64,0.128 1.153,0.128 m 1.025,0 c 1.152,0 2.433,0 3.074,-0.128 m -5.123,0.641 h 1.024 m 1.025,0.128 c 1.152,0 2.433,0 3.202,-0.128 m -12.423,-10.502 c -0.129,0.128 -0.129,0.768 -0.129,0.896 m 0.769,-0.896 c -0.384,0.256 -0.256,1.152 -0.128,1.665 m 0.896,-1.409 -0.384,0.512 c -0.128,0 0,0.512 0,0.512 0,0.64 0,0.513 0.384,0.769 m 0.641,-1.793 c -0.256,0.768 0,1.665 0.64,2.177 m 0,-1.921 c 0.128,0.768 0.384,1.665 0.897,1.921 m 0,-1.793 c 0.256,0.769 0.512,1.409 1.024,1.665 m -0.256,-1.665 c 0.128,0.256 0.64,1.28 0.768,1.28 m -0.128,-1.664 c 0,0.384 0.513,1.28 0.769,1.409 m 0.256,-1.282 c 0,0.385 0.128,0.897 0.384,1.026 m 0.128,-0.897 c 0.128,-0.128 0.384,0.512 0.384,0.512 m 0.385,-0.641 c 0,0.385 0.128,0.77 0.256,1.026 m -2.177,10.758 c -1.665,0 -2.562,-0.513 -2.562,-0.513 m 2.434,0.641 c -1.793,0.128 -2.818,-0.513 -2.818,-0.513 m 2.433,0.769 c -1.665,0.128 -2.69,-0.512 -2.69,-0.512 m 2.562,0.768 c -1.793,0.128 -2.817,-0.512 -2.817,-0.512 m 2.689,0.768 c -1.793,0 -2.69,-0.512 -2.69,-0.512 m 2.69,0.64 c -1.793,0.128 -2.69,-0.384 -2.69,-0.384 m 3.715,-0.768 c -1.665,0.128 -2.69,-0.513 -2.69,-0.513" stroke-width=".384" fill="none"/></g><g fill="#fff" stroke-width=".512"><path d="m 497.95,302.34 c 29.842,0 56.61,-3.97 61.86,-6.019 3.97,-1.665 3.715,-1.793 3.715,-1.793 l -2.69,-9.734 c 0,0 -1.025,1.025 -3.074,1.537 -2.177,0.513 -17.418,5.251 -59.81,5.507 -42.52,-0.256 -57.761,-4.994 -59.81,-5.507 -2.05,-0.512 -3.074,-1.537 -3.074,-1.537 l -2.69,9.734 c 0,0 -0.256,0.128 3.714,1.793 5.123,2.05 31.89,6.02 61.86,6.02 z"/><path d="m 435.067,284.794 c 0.512,-1.537 8.324,-0.512 9.605,-0.768 1.409,-0.256 1.537,-0.256 1.537,-0.256 0,0 -1.28,-2.69 -5.123,-2.434 -3.97,0.256 -11.655,1.921 -15.24,2.178 -3.715,0.256 -21.005,0 -27.537,1.536 -6.403,1.537 -23.309,9.478 -28.304,11.783 -4.995,2.434 -13.96,3.97 -16.906,1.537 0,0 5.892,6.916 19.211,1.665 0,0 -12.038,5.763 -16.521,5.507 0,0 8.837,2.69 18.058,-1.665 9.222,-4.226 22.541,-9.35 27.536,-10.118 4.995,-0.896 21.26,-0.896 24.718,-1.408 3.33,-0.513 7.044,-0.769 7.044,-0.769 -0.128,0 1.922,-6.788 1.922,-6.788 z"/><path d="m 435.067,284.794 c 0,0 1.024,1.025 3.073,1.537 0.769,0.256 3.074,0.897 7.94,1.793 v -0.256 c 0,0 0.897,-4.098 0.129,-4.098 0,0 -0.128,0 -1.537,0.256 -1.28,0.256 -9.093,-0.769 -9.605,0.768 z"/></g><path d="m 373.335,296.577 c 0,0 6.66,-2.561 10.758,-4.739 m -10.246,6.02 c 0,0 6.916,-2.562 11.143,-4.61 m -12.423,8.58 c 0,0 9.477,-3.586 13.832,-5.763 m -12.808,3.585 c 0,0 8.581,-3.329 12.04,-5.122 m -13.321,8.837 c 0,0 10.759,-4.098 14.985,-6.276 m 12.807,-10.758 c 1.793,-0.256 12.04,-1.537 16.778,-1.28 m -16.778,2.817 c 1.793,-0.128 11.015,-1.28 15.754,-1.024 m -16.778,2.689 c 1.793,-0.256 11.783,-1.28 16.521,-1.025 m -17.289,2.818 c 1.792,-0.256 10.886,-1.28 15.752,-1.024 m -18.186,3.714 c 3.458,-1.665 12.68,-2.434 17.418,-2.178 m 31.122,-8.581 c 0,0 -3.714,-0.512 -6.02,-0.384 -2.305,0.384 -11.526,2.177 -12.55,2.177 m 8.068,0.257 c 0,0 -7.3,1.28 -8.71,1.28 m 8.454,0.513 c 0,0 -7.044,1.408 -8.581,1.408 m 7.813,2.05 c 0,0 -8.197,0.768 -9.99,0.768 m 10.245,-2.306 c -1.024,0.257 -7.044,0.513 -8.58,1.025 m 10.117,-3.714 c 0,0 2.434,1.025 6.916,2.177 m -7.172,-0.64 c 0,0 2.434,1.665 5.507,2.177 m -5.763,-0.768 c 0,0 2.946,1.793 6.02,2.305 m -6.788,0.768 c 0,0 1.665,1.41 6.02,2.178 m -6.532,-1.281 c 0,0 0.255,1.153 5.507,2.562 m -4.739,-5.251 c 0,0 2.945,1.793 6.02,2.305" stroke-width=".384" fill="none"/><path d="m 560.835,284.794 c -0.512,-1.537 -8.325,-0.512 -9.605,-0.768 -1.28,-0.256 -1.665,-0.256 -1.665,-0.256 0,0 1.28,-2.69 5.25,-2.434 3.97,0.256 11.527,1.921 15.241,2.178 3.714,0.256 21.004,0 27.536,1.536 6.404,1.537 23.31,9.478 28.305,11.783 4.994,2.434 13.96,3.97 16.777,1.537 0,0 -5.763,6.916 -19.083,1.665 0,0 12.04,5.763 16.522,5.507 0,0 -8.965,2.69 -18.187,-1.665 -9.093,-4.226 -22.54,-9.35 -27.536,-10.118 -4.866,-0.896 -21.132,-0.896 -24.59,-1.408 -3.458,-0.513 -7.044,-0.769 -7.044,-0.769 z" fill="#fff" stroke-width=".512"/><path d="m 560.835,284.794 c 0,0 -1.025,1.025 -3.074,1.537 -0.768,0.256 -3.202,0.897 -7.94,1.793 l 0.128,-0.256 c 0,0 -1.153,-4.098 -0.384,-4.098 0,0 0.384,0 1.665,0.256 1.281,0.256 9.093,-0.769 9.605,0.768 z" fill="#fff" stroke-width=".512"/><path d="m 622.439,296.577 c 0,0 -10.503,-4.226 -14.6,-6.275 m 14.087,7.556 c 0,0 -7.3,-2.818 -13.32,-5.507 m 18.827,10.886 c 0,0 -8.324,-2.69 -18.058,-7.172 m 12.807,3.585 c 0,0 -8.58,-2.817 -13.575,-5.378 m 22.797,11.014 c 0,0 -4.099,0.384 -22.797,-8.197 m -8.581,-9.733 c -4.867,-1.537 -16.394,-2.562 -21.004,-2.306 m 19.338,3.715 c -3.201,-1.41 -13.703,-2.178 -18.314,-1.921 m 17.546,3.201 c -1.793,-0.256 -9.221,-1.537 -13.96,-1.28 m 14.985,3.33 c -1.793,-0.257 -7.557,-1.793 -12.551,-1.281 m 13.96,3.202 c -2.178,-1.025 -9.478,-2.05 -12.167,-1.921 m -36.501,-8.838 c 0,0 3.714,-0.512 6.147,-0.384 2.305,0.384 12.039,2.434 15.753,2.177 m -11.398,0.257 c 0,0 10.502,1.537 13.704,1.28 m -13.32,0.513 c 0,0 6.275,0.768 9.605,1.408 m -8.837,2.05 c 0,0 7.3,0.768 11.143,0.768 m -11.399,-2.306 c 1.025,0.257 6.788,0.513 9.99,1.025 m -12.423,-3.97 c 0,0 -1.281,1.665 -3.074,1.665 m 3.586,0 c 0,0 -1.025,1.025 -2.561,1.28 m 3.073,0.257 c 0,0 -0.512,1.025 -2.817,1.537 m 3.33,0 c 0,0 -0.769,1.28 -3.074,1.537 m 3.586,-10e-4 c 0,0 -1.537,1.666 -3.074,1.666 m 3.714,0 c 0,0 -0.768,0.64 -3.202,1.28" stroke-width=".384" fill="none"/></g><path d="m 557.12,295.809 -4.866,0.896 -1.28,-6.66 4.994,-0.896 0.128,0.768 -3.97,0.769 0.384,2.049 3.586,-0.64 0.128,0.768 -3.586,0.64 0.385,2.306 3.97,-0.769 z m -7.812,-3.459 c -0.384,-1.152 -1.408,-1.152 -2.049,-1.152 -1.152,0.256 -2.049,1.28 -1.793,2.946 0.256,1.665 1.025,2.817 2.69,2.561 0.512,-0.128 1.537,-0.512 1.537,-2.177 l 0.896,-0.128 c 0,2.69 -1.921,3.074 -2.561,3.074 -1.41,0.256 -3.074,-0.513 -3.458,-3.074 -0.256,-2.05 0.64,-3.714 2.561,-3.97 1.793,-0.257 2.818,0.64 3.074,1.793 z m -9.733,6.02 -0.897,0.256 -0.896,-6.788 3.074,-0.384 c 1.152,-0.128 2.305,0.128 2.433,1.537 0.128,1.025 -0.256,1.409 -0.64,1.665 0.384,0.256 0.768,0.256 0.896,1.28 l 0.256,1.153 c 0,0.385 0,0.513 0.384,0.64 v 0.129 l -1.152,0.128 c -0.128,-0.384 -0.256,-1.409 -0.384,-1.665 0,-0.512 -0.129,-1.153 -1.281,-1.025 l -2.177,0.257 z m -5.507,0.769 c -2.562,0.256 -3.458,-1.665 -3.715,-3.202 -0.128,-1.41 0.513,-3.586 2.946,-3.842 2.562,-0.257 3.586,1.793 3.714,3.201 0.128,1.41 -0.384,3.715 -2.945,3.843 z m -7.813,0.511 -0.896,0.129 -0.513,-6.788 4.611,-0.384 0.128,0.768 -3.842,0.384 0.256,2.05 3.33,-0.256 v 0.768 l -3.33,0.256 z m -10.63,-1.28 -0.64,1.921 -0.897,0.128 2.177,-6.916 1.025,-0.128 2.818,6.66 -1.025,0.128 -0.768,-1.92 z m -5.379,1.28 3.33,-0.127 0.128,0.896 -4.355,0.128 -0.256,-6.788 h 0.897 z m -11.655,-5.762 h 5.507 v 0.768 h -2.305 v 6.02 h -0.896 v -6.02 h -2.306 z m -0.896,6.787 h -0.897 v -6.787 h 0.897 z m -6.404,-2.049 -0.64,2.05 -0.897,-0.129 2.562,-6.788 h 1.024 l 2.434,6.916 h -1.025 l -0.64,-2.049 z m -6.019,1.794 h -0.897 l 0.256,-6.789 4.739,0.128 v 0.769 h -3.842 l -0.128,2.05 h 3.33 v 0.896 l -3.33,-0.128 z m -7.172,-7.173 0.768,0.128 -0.384,6.788 -1.025,-0.128 -3.074,-5.635 -0.384,5.507 -0.896,-0.128 0.384,-6.66 h 1.152 l 3.074,5.635 z m -9.478,6.403 c -2.433,-0.255 -3.074,-2.304 -3.074,-3.841 0.256,-1.41 1.153,-3.458 3.714,-3.33 2.434,0.256 3.074,2.433 2.946,3.842 -0.128,1.537 -1.025,3.586 -3.586,3.33 z m -4.482,-0.64 h -1.025 l 0.64,-6.787 0.897,0.128 z m -2.818,-7.044 0.896,0.129 -0.64,6.66 h -1.025 l -2.945,-5.892 -0.513,5.507 -0.896,-0.128 0.768,-6.788 1.025,0.128 2.817,5.892 z m -5.892,-0.64 -0.512,4.355 c -0.256,1.408 -1.153,2.433 -3.074,2.177 -1.793,-0.256 -2.433,-1.537 -2.305,-2.818 l 0.64,-4.482 0.897,0.128 -0.512,4.226 c -0.257,1.409 0.64,2.05 1.408,2.177 0.897,0 1.793,-0.128 2.05,-1.665 l 0.512,-4.226 z m -7.556,-1.024 1.025,0.128 -0.129,0.896 c -0.128,0.64 -0.384,1.153 -1.28,1.28 l 0.128,-0.511 c 0.512,0 0.64,-0.513 0.64,-0.769 l -0.512,-0.128 z m -4.994,5.122 3.329,0.64 -0.128,0.77 -4.227,-0.641 1.025,-6.788 0.897,0.128 z"/><path d="m 539.319,294.656 1.92,-0.128 c 0.513,-0.128 1.281,-0.384 1.153,-1.28 -0.128,-0.897 -0.896,-0.897 -1.28,-0.77 l -2.05,0.257 z m -5.764,-1.536 c -1.408,0.127 -2.049,1.28 -1.92,2.689 0.127,1.537 1.024,2.433 2.305,2.305 1.408,-0.128 2.049,-1.28 1.92,-2.69 -0.127,-1.408 -1.024,-2.433 -2.305,-2.305 z m -15.625,4.226 -1.024,-2.69 -0.897,2.69 z m -24.206,0.384 -0.896,-2.69 -1.025,2.562 z m -24.59,-4.099 c -1.409,-0.256 -2.305,0.769 -2.305,2.306 -0.128,1.409 0.64,2.561 1.921,2.69 1.28,0.127 2.177,-1.025 2.305,-2.434 0.128,-1.409 -0.64,-2.562 -1.92,-2.562 z" fill="#fff"/></g></g></svg>