<?xml version="1.0" encoding="UTF-8" standalone="no"?>
<!-- Created with Inkscape (http://www.inkscape.org/) -->

<svg
   xmlns:dc="http://purl.org/dc/elements/1.1/"
   xmlns:cc="http://creativecommons.org/ns#"
   xmlns:rdf="http://www.w3.org/1999/02/22-rdf-syntax-ns#"
   xmlns:svg="http://www.w3.org/2000/svg"
   xmlns="http://www.w3.org/2000/svg"
   xmlns:sodipodi="http://sodipodi.sourceforge.net/DTD/sodipodi-0.dtd"
   xmlns:inkscape="http://www.inkscape.org/namespaces/inkscape"
   id="svg2"
   sodipodi:version="0.32"
   inkscape:version="0.48.1 "
   width="1116.1417"
   height="637.79529"
   version="1.0"
   sodipodi:docname="ZZ1.svg">
  <metadata
     id="metadata7">
    <rdf:RDF>
      <cc:Work
         rdf:about="">
        <dc:format>image/svg+xml</dc:format>
        <dc:type
           rdf:resource="http://purl.org/dc/dcmitype/StillImage" />
      </cc:Work>
    </rdf:RDF>
  </metadata>
  <defs
     id="defs5" />
  <sodipodi:namedview
     inkscape:window-height="1004"
     inkscape:window-width="1280"
     inkscape:pageshadow="2"
     inkscape:pageopacity="1"
     borderopacity="1.0"
     bordercolor="#666666"
     pagecolor="#ffffff"
     id="base"
     showgrid="false"
     inkscape:grid-points="true"
     gridtolerance="0.5cm"
     inkscape:zoom="0.83591536"
     inkscape:cx="260.30774"
     inkscape:cy="299.46969"
     inkscape:window-x="-8"
     inkscape:window-y="-8"
     inkscape:current-layer="svg2"
     inkscape:document-units="cm"
     showguides="false"
     inkscape:guide-bbox="true"
     guidetolerance="0.5cm"
     units="cm"
     fit-margin-top="0"
     fit-margin-left="0"
     fit-margin-right="0"
     fit-margin-bottom="0"
     inkscape:window-maximized="1">
    <sodipodi:guide
       orientation="horizontal"
       position="0,566.33479"
       id="guide4849" />
    <sodipodi:guide
       orientation="horizontal"
       position="0,495.70155"
       id="guide4851" />
    <sodipodi:guide
       orientation="horizontal"
       position="0,424.64535"
       id="guide4853" />
    <sodipodi:guide
       orientation="vertical"
       position="-38.879535,-3.8146974e-005"
       id="guide4857" />
    <sodipodi:guide
       orientation="vertical"
       position="-24.524014,-3.8146974e-005"
       id="guide4877" />
    <sodipodi:guide
       orientation="vertical"
       position="-8.9722004,-3.8146974e-005"
       id="guide5170" />
    <sodipodi:guide
       orientation="vertical"
       position="302.06408,-3.8146974e-005"
       id="guide5172" />
    <inkscape:grid
       id="GridFromPre046Settings"
       type="xygrid"
       originx="0px"
       originy="0cm"
       spacingx="0.5cm"
       spacingy="0.5cm"
       color="#0000ff"
       empcolor="#0000ff"
       opacity="0.2"
       empopacity="0.4"
       empspacing="5"
       units="cm"
       visible="true"
       enabled="true"
       snapvisiblegridlinesonly="true" />
  </sodipodi:namedview>
  <rect
     style="fill:#0f47af;fill-opacity:1;stroke:none"
     id="rect1303"
     width="846.97571"
     height="70.866142"
     x="268.3201"
     y="0.361388" />
  <rect
     y="71.227531"
     x="-0.84590697"
     height="70.866142"
     width="1116.1417"
     id="rect2178"
     style="fill:#ffffff;fill-opacity:1;stroke:none" />
  <rect
     y="141.7323"
     x="257.20306"
     height="70.866142"
     width="858.93866"
     id="rect3059"
     style="fill:#0f47af;fill-opacity:1;stroke:none" />
  <rect
     style="fill:#ffffff;fill-opacity:1;stroke:none"
     id="rect3061"
     width="1116.1417"
     height="70.866142"
     x="2.8851317e-009"
     y="212.59845" />
  <g
     transform="translate(0,283.46459)"
     id="g3063">
    <rect
       y="1.2495386e-005"
       x="0"
       height="70.866142"
       width="1116.1417"
       id="rect3065"
       style="fill:#0f47af;fill-opacity:1;stroke:none" />
    <rect
       style="fill:#ffffff;fill-opacity:1;stroke:none"
       id="rect3067"
       width="1116.1417"
       height="70.866142"
       x="0"
       y="70.866158" />
  </g>
  <rect
     y="425.19681"
     x="8.6455584e-006"
     height="70.866142"
     width="1116.1417"
     id="rect3071"
     style="fill:#0f47af;fill-opacity:1;stroke:none" />
  <rect
     style="fill:#ffffff;fill-opacity:1;stroke:none"
     id="rect3073"
     width="1116.1417"
     height="70.866142"
     x="8.6455584e-006"
     y="496.06296" />
  <rect
     style="fill:#0f47af;fill-opacity:1;stroke:none"
     id="rect3077"
     width="1116.1417"
     height="70.866142"
     x="2.8851317e-009"
     y="566.92914" />
  <rect
     style="fill:#e60000;fill-opacity:1;stroke:none"
     id="rect3097"
     width="283.46457"
     height="283.46457"
     x="2.8851317e-009"
     y="0" />
  <g
     id="g5195"
     transform="translate(-289.503,111.25529)">
    <path
       transform="matrix(0.06782666,0.00135201,-0.00135201,0.06782666,316.679,16.84538)"
       d="M 637.79526,496.06298 427.21414,345.45713 221.30256,502.38691 299.46409,255.57259 86.584825,108.23301 345.47243,106.29923 419.81739,-141.69142 501.65719,103.92775 760.48417,98.000686 552.17634,251.73546 z"
       inkscape:randomized="0"
       inkscape:rounded="0"
       inkscape:flatsided="false"
       sodipodi:arg2="1.5556137"
       sodipodi:arg1="0.9272952"
       sodipodi:r2="132.87401"
       sodipodi:r1="354.33069"
       sodipodi:cy="212.59843"
       sodipodi:cx="425.19684"
       sodipodi:sides="5"
       id="path3972"
       style="fill:#ffffff;fill-opacity:1;stroke:none"
       sodipodi:type="star" />
    <path
       sodipodi:type="star"
       style="fill:#ffffff;fill-opacity:1;stroke:none"
       id="path4879"
       sodipodi:sides="5"
       sodipodi:cx="425.19684"
       sodipodi:cy="212.59843"
       sodipodi:r1="354.33069"
       sodipodi:r2="132.87401"
       sodipodi:arg1="0.9272952"
       sodipodi:arg2="1.5556137"
       inkscape:flatsided="false"
       inkscape:rounded="0"
       inkscape:randomized="0"
       d="M 637.79526,496.06298 427.21414,345.45713 221.30256,502.38691 299.46409,255.57259 86.584825,108.23301 345.47243,106.29923 419.81739,-141.69142 501.65719,103.92775 760.48417,98.000686 552.17634,251.73546 z"
       transform="matrix(0.06782666,0.00135201,-0.00135201,0.06782666,373.3548,17.3831)" />
    <path
       transform="matrix(0.06782666,0.00135201,-0.00135201,0.06782666,430.0305,16.96015)"
       d="M 637.79526,496.06298 427.21414,345.45713 221.30256,502.38691 299.46409,255.57259 86.584825,108.23301 345.47243,106.29923 419.81739,-141.69142 501.65719,103.92775 760.48417,98.000686 552.17634,251.73546 z"
       inkscape:randomized="0"
       inkscape:rounded="0"
       inkscape:flatsided="false"
       sodipodi:arg2="1.5556137"
       sodipodi:arg1="0.9272952"
       sodipodi:r2="132.87401"
       sodipodi:r1="354.33069"
       sodipodi:cy="212.59843"
       sodipodi:cx="425.19684"
       sodipodi:sides="5"
       id="path4881"
       style="fill:#ffffff;fill-opacity:1;stroke:none"
       sodipodi:type="star" />
    <path
       sodipodi:type="star"
       style="fill:#ffffff;fill-opacity:1;stroke:none"
       id="path4883"
       sodipodi:sides="5"
       sodipodi:cx="425.19684"
       sodipodi:cy="212.59843"
       sodipodi:r1="354.33069"
       sodipodi:r2="132.87401"
       sodipodi:arg1="0.9272952"
       sodipodi:arg2="1.5556137"
       inkscape:flatsided="false"
       inkscape:rounded="0"
       inkscape:randomized="0"
       d="M 637.79526,496.06298 427.21414,345.45713 221.30256,502.38691 299.46409,255.57259 86.584825,108.23301 345.47243,106.29923 419.81739,-141.69142 501.65719,103.92775 760.48417,98.000686 552.17634,251.73546 z"
       transform="matrix(0.06782666,0.00135201,-0.00135201,0.06782666,486.7063,16.5372)" />
  </g>
  <g
     id="g5176"
     transform="translate(-3.58888,70.581298)">
    <path
       sodipodi:type="star"
       style="fill:#ffffff;fill-opacity:1;stroke:none"
       id="path5012"
       sodipodi:sides="5"
       sodipodi:cx="425.19684"
       sodipodi:cy="212.59843"
       sodipodi:r1="354.33069"
       sodipodi:r2="132.87401"
       sodipodi:arg1="0.9272952"
       sodipodi:arg2="1.5556137"
       inkscape:flatsided="false"
       inkscape:rounded="0"
       inkscape:randomized="0"
       d="M 637.79526,496.06298 427.21414,345.45713 221.30256,502.38691 299.46409,255.57259 86.584825,108.23301 345.47243,106.29923 419.81739,-141.69142 501.65719,103.92775 760.48417,98.000686 552.17634,251.73546 z"
       transform="matrix(0.06782666,0.00135201,-0.00135201,0.06782666,12.10311,126.9044)" />
    <path
       transform="matrix(0.06782666,0.00135201,-0.00135201,0.06782666,63.39557,127.4421)"
       d="M 637.79526,496.06298 427.21414,345.45713 221.30256,502.38691 299.46409,255.57259 86.584825,108.23301 345.47243,106.29923 419.81739,-141.69142 501.65719,103.92775 760.48417,98.000686 552.17634,251.73546 z"
       inkscape:randomized="0"
       inkscape:rounded="0"
       inkscape:flatsided="false"
       sodipodi:arg2="1.5556137"
       sodipodi:arg1="0.9272952"
       sodipodi:r2="132.87401"
       sodipodi:r1="354.33069"
       sodipodi:cy="212.59843"
       sodipodi:cx="425.19684"
       sodipodi:sides="5"
       id="path5014"
       style="fill:#ffffff;fill-opacity:1;stroke:none"
       sodipodi:type="star" />
    <path
       sodipodi:type="star"
       style="fill:#ffffff;fill-opacity:1;stroke:none"
       id="path5016"
       sodipodi:sides="5"
       sodipodi:cx="425.19684"
       sodipodi:cy="212.59843"
       sodipodi:r1="354.33069"
       sodipodi:r2="132.87401"
       sodipodi:arg1="0.9272952"
       sodipodi:arg2="1.5556137"
       inkscape:flatsided="false"
       inkscape:rounded="0"
       inkscape:randomized="0"
       d="M 637.79526,496.06298 427.21414,345.45713 221.30256,502.38691 299.46409,255.57259 86.584825,108.23301 345.47243,106.29923 419.81739,-141.69142 501.65719,103.92775 760.48417,98.000686 552.17634,251.73546 z"
       transform="matrix(0.06782666,0.00135201,-0.00135201,0.06782666,166.7267,127.6172)" />
    <path
       transform="matrix(0.06782666,0.00135201,-0.00135201,0.06782666,217.421,128.3906)"
       d="M 637.79526,496.06298 427.21414,345.45713 221.30256,502.38691 299.46409,255.57259 86.584825,108.23301 345.47243,106.29923 419.81739,-141.69142 501.65719,103.92775 760.48417,98.000686 552.17634,251.73546 z"
       inkscape:randomized="0"
       inkscape:rounded="0"
       inkscape:flatsided="false"
       sodipodi:arg2="1.5556137"
       sodipodi:arg1="0.9272952"
       sodipodi:r2="132.87401"
       sodipodi:r1="354.33069"
       sodipodi:cy="212.59843"
       sodipodi:cx="425.19684"
       sodipodi:sides="5"
       id="path5018"
       style="fill:#ffffff;fill-opacity:1;stroke:none"
       sodipodi:type="star" />
    <path
       transform="matrix(0.06782666,0.00135201,-0.00135201,0.06782666,114.6879,127.0191)"
       d="M 637.79526,496.06298 427.21414,345.45713 221.30256,502.38691 299.46409,255.57259 86.584825,108.23301 345.47243,106.29923 419.81739,-141.69142 501.65719,103.92775 760.48417,98.000686 552.17634,251.73546 z"
       inkscape:randomized="0"
       inkscape:rounded="0"
       inkscape:flatsided="false"
       sodipodi:arg2="1.5556137"
       sodipodi:arg1="0.9272952"
       sodipodi:r2="132.87401"
       sodipodi:r1="354.33069"
       sodipodi:cy="212.59843"
       sodipodi:cx="425.19684"
       sodipodi:sides="5"
       id="path5174"
       style="fill:#ffffff;fill-opacity:1;stroke:none"
       sodipodi:type="star" />
  </g>
  <g
     id="g5183"
     transform="translate(0,-70.581322)">
    <path
       transform="matrix(0.06782666,0.00135201,-0.00135201,0.06782666,12.10311,126.9044)"
       d="M 637.79526,496.06298 427.21414,345.45713 221.30256,502.38691 299.46409,255.57259 86.584825,108.23301 345.47243,106.29923 419.81739,-141.69142 501.65719,103.92775 760.48417,98.000686 552.17634,251.73546 z"
       inkscape:randomized="0"
       inkscape:rounded="0"
       inkscape:flatsided="false"
       sodipodi:arg2="1.5556137"
       sodipodi:arg1="0.9272952"
       sodipodi:r2="132.87401"
       sodipodi:r1="354.33069"
       sodipodi:cy="212.59843"
       sodipodi:cx="425.19684"
       sodipodi:sides="5"
       id="path5185"
       style="fill:#ffffff;fill-opacity:1;stroke:none"
       sodipodi:type="star" />
    <path
       sodipodi:type="star"
       style="fill:#ffffff;fill-opacity:1;stroke:none"
       id="path5187"
       sodipodi:sides="5"
       sodipodi:cx="425.19684"
       sodipodi:cy="212.59843"
       sodipodi:r1="354.33069"
       sodipodi:r2="132.87401"
       sodipodi:arg1="0.9272952"
       sodipodi:arg2="1.5556137"
       inkscape:flatsided="false"
       inkscape:rounded="0"
       inkscape:randomized="0"
       d="M 637.79526,496.06298 427.21414,345.45713 221.30256,502.38691 299.46409,255.57259 86.584825,108.23301 345.47243,106.29923 419.81739,-141.69142 501.65719,103.92775 760.48417,98.000686 552.17634,251.73546 z"
       transform="matrix(0.06782666,0.00135201,-0.00135201,0.06782666,63.39557,127.4421)" />
    <path
       transform="matrix(0.06782666,0.00135201,-0.00135201,0.06782666,166.7267,127.6172)"
       d="M 637.79526,496.06298 427.21414,345.45713 221.30256,502.38691 299.46409,255.57259 86.584825,108.23301 345.47243,106.29923 419.81739,-141.69142 501.65719,103.92775 760.48417,98.000686 552.17634,251.73546 z"
       inkscape:randomized="0"
       inkscape:rounded="0"
       inkscape:flatsided="false"
       sodipodi:arg2="1.5556137"
       sodipodi:arg1="0.9272952"
       sodipodi:r2="132.87401"
       sodipodi:r1="354.33069"
       sodipodi:cy="212.59843"
       sodipodi:cx="425.19684"
       sodipodi:sides="5"
       id="path5189"
       style="fill:#ffffff;fill-opacity:1;stroke:none"
       sodipodi:type="star" />
    <path
       sodipodi:type="star"
       style="fill:#ffffff;fill-opacity:1;stroke:none"
       id="path5191"
       sodipodi:sides="5"
       sodipodi:cx="425.19684"
       sodipodi:cy="212.59843"
       sodipodi:r1="354.33069"
       sodipodi:r2="132.87401"
       sodipodi:arg1="0.9272952"
       sodipodi:arg2="1.5556137"
       inkscape:flatsided="false"
       inkscape:rounded="0"
       inkscape:randomized="0"
       d="M 637.79526,496.06298 427.21414,345.45713 221.30256,502.38691 299.46409,255.57259 86.584825,108.23301 345.47243,106.29923 419.81739,-141.69142 501.65719,103.92775 760.48417,98.000686 552.17634,251.73546 z"
       transform="matrix(0.06782666,0.00135201,-0.00135201,0.06782666,217.421,128.3906)" />
    <path
       sodipodi:type="star"
       style="fill:#ffffff;fill-opacity:1;stroke:none"
       id="path5193"
       sodipodi:sides="5"
       sodipodi:cx="425.19684"
       sodipodi:cy="212.59843"
       sodipodi:r1="354.33069"
       sodipodi:r2="132.87401"
       sodipodi:arg1="0.9272952"
       sodipodi:arg2="1.5556137"
       inkscape:flatsided="false"
       inkscape:rounded="0"
       inkscape:randomized="0"
       d="M 637.79526,496.06298 427.21414,345.45713 221.30256,502.38691 299.46409,255.57259 86.584825,108.23301 345.47243,106.29923 419.81739,-141.69142 501.65719,103.92775 760.48417,98.000686 552.17634,251.73546 z"
       transform="matrix(0.06782666,0.00135201,-0.00135201,0.06782666,114.6879,127.0191)" />
  </g>
</svg>
