<svg height="600" width="840" xmlns:xlink="http://www.w3.org/1999/xlink" xmlns="http://www.w3.org/2000/svg"><path d="M0 0h840v600H0Z" fill="#ce1126" fill-rule="evenodd"/><path d="M0 400h840v200H0Z" fill="#3d8e33" fill-rule="evenodd"/><path d="M316.6667 178.3333a133.3333 133.3333 0 1 1-266.6667 0 133.3333 133.3333 0 1 1 266.6667 0z" fill="#fff"/><path d="M350 204.9997a125 124.9647 0 1 1-250 0 125 124.9647 0 1 1 250 0z" fill="#ce1126"/><path id="a" d="m170.0013 201.6262-9.234-28.4155-29.8782-.001 24.1713-17.563-9.2318-28.4162 24.1727 17.5611 24.1726-17.561-9.2318 28.4162 24.1714 17.5629-29.8783.001z" transform="scale(.997) rotate(-2 169.876 145.683)" fill="#fff" fill-opacity="1" fill-rule="evenodd" stroke="none" stroke-width=".2508" stroke-linejoin="round" stroke-miterlimit="8" paint-order="markers stroke fill"/><use xlink:href="#a" transform="translate(102.0014 -9.9893)"/><use xlink:href="#a" transform="translate(30 96.0107)"/><use xlink:href="#a" transform="translate(128.0013 88.0106)"/></svg>