<svg height="600" width="1200" xmlns="http://www.w3.org/2000/svg"><g transform="matrix(1.6666667 0 0 1.25 2119.0484 152.405)"><path d="m-1271.429-121.924h720v480h-720z" fill="#fff"/><path d="m-1271.429-121.924h720v160h-720z" fill="#ce1126"/><path d="m-1271.429 198.076h720v160h-720z" fill="#0038a8"/></g><g transform="matrix(.28333333 0 0 .28333333 515.000078 214.999)"><g stroke-width="1.25"><circle cx="299.99973" cy="300" fill="#c00" r="300"/><circle cx="299.99973" cy="300" fill="#fff" r="282.35251"/><circle cx="299.99973" cy="300" fill="#00c" r="264.70624"/><circle cx="299.99973" cy="300" fill="#fff" r="247.05875"/></g><path d="m-863.55102 14.19-27.706 12.304-5.23-11.778c-1.314-2.961-2.02-5.2240002-2.118-6.7870002a6.97 6.97 0 0 1 1.224-4.401 8.746 8.746 0 0 1 3.831-3.14800001c2.082-.918 4.066-1.073 5.964-.452 1.9.62 3.565 2.06800001 4.994 4.34400001.17-1.517.502-2.865.996-4.02300001.494-1.165 1.52-2.89399999 3.084-5.18499999l3.904-5.7839998 2.972 6.6909998-4.236 6.72c-1.517 2.393-2.435 3.981-2.763 4.758a4.701 4.701 0 0 0 -.406 2.195c.053.6850002.367 1.6700002.939 2.9540002l.501 1.133 11.57-5.1350002zm-18.473 1.504-1.836-4.137c-1.193-2.6820002-2.047-4.3060002-2.573-4.8770002a3.293 3.293 0 0 0 -1.87-1.049c-.72-.134-1.497-.014-2.33.357-.931.413-1.574.995-1.927 1.747s-.402 1.616-.151 2.5900002c.14.484.71 1.857 1.718 4.13l1.942 4.362zm6.755-29.796-29.661 6.2829998-4.655-21.9919998 5.018-1.062 3.389 16.002 6.571-1.394-3.151-14.887 4.997-1.06 3.152 14.895 8.075-1.712-3.508-16.57 4.998-1.06zm-5.252-27.836-30.317.236-.078-9.822c-.028-3.72.106-6.148.399-7.281.44-1.74 1.419-3.205 2.933-4.387 1.517-1.183 3.48-1.786 5.894-1.804 1.856-.014 3.427.31 4.697.978 1.275.663 2.277 1.518 3.011 2.548.73 1.038 1.218 2.09 1.461 3.166.3 1.458.463 3.572.484 6.342l.035 3.992 11.435-.088zm-25.235-5.922 8.601-.07104-.025-3.35c-.02-2.41-.19-4.023-.515-4.835a4.038 4.038 0 0 0 -1.503-1.899 4.073 4.073 0 0 0 -2.362-.674c-1.104.0072-2.011.34-2.724.992a4.235 4.235 0 0 0 -1.324 2.47c-.134.735-.19 2.203-.173 4.409zm-4.179-28.412 1.218-6 16.094 3.268c2.552.519 4.221.776 5.012.784 1.27-.01104 2.364-.424 3.3-1.24.931-.818 1.567-2.064 1.906-3.74.345-1.702.257-3.053-.262-4.06a4.196 4.196 0 0 0 -2.248-2.082c-.978-.384-2.64-.811-4.99-1.288l-16.437-3.335 1.218-6 15.603 3.166c3.568.723 6.053 1.397 7.461 2.022 1.412.621 2.531 1.472 3.367 2.548.837 1.077 1.405 2.407 1.712 3.989.304 1.584.22 3.55-.257 5.9-.576 2.838-1.342 4.92-2.295 6.255-.952 1.334-2.04 2.319-3.257 2.957-1.221.64-2.432.978-3.635 1.013-1.783.05-4.335-.264-7.66-.942zm8.76-36.208 4.906-11.083c.967-2.188 1.782-3.787 2.442-4.786.66-.995 1.469-1.793 2.425-2.386a7.765 7.765 0 0 1 3.258-1.104c1.217-.138 2.424.056 3.62.586a7.059 7.059 0 0 1 3.11 2.629 7.094 7.094 0 0 1 1.18 3.928c1.241-1.472 2.653-2.4 4.241-2.784a7.302 7.302 0 0 1 4.78.494c1.263.554 2.357 1.387 3.289 2.506.931 1.108 1.531 2.332 1.793 3.66.264 1.33.148 2.777-.346 4.34-.31.975-1.246 3.251-2.8 6.83l-4.174 9.438zm7.094-3.555 6.406 2.835 1.624-3.668c.967-2.18 1.535-3.55 1.708-4.108.31-1.01.31-1.906.007-2.7-.307-.79-.907-1.383-1.8-1.779-.861-.38-1.659-.451-2.407-.211-.741.23-1.377.79-1.906 1.673-.31.529-1.045 2.107-2.213 4.743zm11.023 4.878 7.411 3.282 2.294-5.184c.893-2.012 1.402-3.318 1.529-3.914a3.784 3.784 0 0 0 -.205-2.52c-.353-.784-1.024-1.395-2.008-1.829a3.953 3.953 0 0 0 -2.386-.331 3.716 3.716 0 0 0 -2.04 1.189c-.6.646-1.468 2.241-2.594 4.786zm22.87-16.821-24.522-17.407 3.543-4.99 20.354 14.449 8.81-12.41 4.165 2.954zm15.466-20.301-22.158-20.693 4.176-4.472 22.164 20.69zm16.281-29.714 5.824-2.217c1.34 3.159 1.683 6.025 1.023 8.598-.663 2.576-2.266 4.87-4.814 6.893-3.155 2.506-6.6 3.48-10.341 2.936-3.741-.543-7.094-2.682-10.059-6.423-3.134-3.953-4.55-7.832-4.242-11.64.307-3.805 2.125-7.024 5.45-9.667 2.907-2.305 5.946-3.318 9.126-3.036 1.885.156 3.85.97 5.898 2.443l-3.847 4.898c-1.257-1.005-2.612-1.514-4.07-1.517-1.457-.01-2.823.494-4.094 1.503-1.764 1.398-2.693 3.163-2.788 5.294-.092 2.136.988 4.617 3.226 7.448 2.382 3.003 4.624 4.711 6.71 5.131 2.092.417 4.002-.06 5.731-1.43 1.274-1.012 2.047-2.286 2.323-3.825.282-1.539-.071-3.335-1.056-5.39zm40.733-9.727-5.986 2.918-5.396-5.03-10.895 5.316.776 7.285-5.841 2.848-2.679-32.425 5.824-2.837zm-15.388-5.838-8.682-8.28 1.245 11.905zm25.345-28.232 11.057-1.705c2.496-.384 4.426-.49 5.789-.31 1.842.247 3.487.935 4.944 2.065 1.458 1.129 2.661 2.597 3.61 4.411.954 1.814 1.642 4.123 2.076 6.929.381 2.47.402 4.64.064 6.518-.413 2.298-1.211 4.225-2.39 5.789-.893 1.185-2.188 2.202-3.882 3.049-1.27.628-3.025 1.115-5.259 1.461l-11.382 1.758zm6.833 4.137 3.063 19.845 4.518-.698c1.69-.262 2.894-.544 3.614-.847a5.647 5.647 0 0 0 2.248-1.624c.558-.688.939-1.736 1.14-3.141s.124-3.265-.236-5.577c-.353-2.322-.837-4.069-1.437-5.244-.6-1.176-1.32-2.054-2.163-2.637a5.813 5.813 0 0 0 -3.018-.977c-.875-.06-2.541.098-5.012.48zm28.207 21.91 1.658-30.272 22.448 1.236-.283 5.117-16.33-.896-.371 6.71 15.198.832-.283 5.104-15.194-.837-.452 8.241 16.91.929-.279 5.1zm28.383 2.294 7.338-29.16 5.933 1.493-6.088 24.212 14.76 3.71-1.246 4.951zm35.707 11.365 15.13-26.273 8.51 4.906c3.226 1.853 5.26 3.198 6.081 4.023 1.282 1.26 2.047 2.845 2.302 4.751.257 1.906-.22 3.9-1.423 5.993-.928 1.613-2 2.799-3.222 3.565a8.319 8.319 0 0 1 -3.72 1.306 8.947 8.947 0 0 1 -3.47-.343c-1.411-.48-3.317-1.408-5.717-2.788l-3.459-1.998-5.707 9.91zm17.873-18.773-4.292 7.454 2.905 1.673c2.09 1.204 3.565 1.87 4.43 2.001.864.13 1.662.021 2.4-.335.74-.353 1.33-.918 1.778-1.694.55-.96.724-1.906.52-2.852a4.235 4.235 0 0 0 -1.462-2.393c-.565-.487-1.8-1.277-3.716-2.379zm26.788 51.618-4.962-4.44 2.622-6.897-9.028-8.082-6.459 3.459-4.835-4.334 29.022-14.707 4.822 4.32zm-.395-16.454 4.394-11.167-10.553 5.65zm2.435 19.178 24.607-17.703 7.522 10.458c1.895 2.629 3.05 4.697 3.462 6.211.416 1.507.318 3.029-.3 4.557a8.742 8.742 0 0 1 -3.102 3.864c-1.846 1.328-3.763 1.882-5.746 1.663-1.984-.219-3.91-1.299-5.778-3.233.145 1.528.095 2.908-.152 4.147s-.9 3.141-1.958 5.703l-2.64 6.46-4.271-5.944 2.767-7.444c.995-2.654 1.574-4.394 1.733-5.22.159-.83.141-1.574-.053-2.234-.194-.656-.699-1.553-1.518-2.7l-.727-1.006-10.27 7.39zm17.775-5.248 2.647 3.678c1.711 2.382 2.883 3.797 3.511 4.246a3.304 3.304 0 0 0 2.047.646c.731-.018 1.465-.293 2.206-.826.826-.597 1.341-1.3 1.529-2.107.19-.809.063-1.66-.382-2.566-.233-.441-1.076-1.67-2.527-3.685l-2.788-3.879zm10.362 55.627-2.63-6.116 5.28-5.153-4.789-11.132-7.316.424-2.566-5.965 32.516-1.13 2.559 5.94zm6.565-15.092 8.685-8.283-11.954.685zm7.736 30.248 5.022-.925 2.386 12.977-11.88 2.182c-1.447-1.038-2.859-2.669-4.231-4.889a20.354 20.354 0 0 1 -2.729-7.016c-.571-3.12-.416-5.958.466-8.517.883-2.562 2.435-4.648 4.659-6.26a18.424 18.424 0 0 1 7.616-3.209c3.106-.565 5.983-.423 8.637.434a13.362 13.362 0 0 1 6.603 4.694c1.342 1.73 2.273 4.024 2.796 6.869.68 3.702.434 6.737-.734 9.105-1.172 2.365-3.07 4.095-5.7 5.196l-2.217-5.774a6.424 6.424 0 0 0 3.035-3.007c.636-1.313.788-2.838.47-4.575-.484-2.633-1.701-4.57-3.653-5.816-1.955-1.246-4.57-1.57-7.853-.967-3.54.65-6.05 1.927-7.532 3.826-1.479 1.895-1.983 4.119-1.517 6.67.233 1.26.713 2.478 1.44 3.657.727 1.175 1.528 2.153 2.4 2.933l3.783-.696zm21.921 21.967-.26 6.116-16.406-.702c-2.604-.113-4.295-.106-5.071.01-1.253.212-2.273.79-3.067 1.74-.791.953-1.225 2.284-1.3 3.992-.07 1.737.227 3.06.897 3.97.67.915 1.521 1.483 2.545 1.705 1.027.223 2.735.389 5.132.49l16.757.717-.26 6.117-15.911-.681c-3.636-.16-6.198-.434-7.684-.83a8.53 8.53 0 0 1 -3.724-1.99c-.995-.932-1.764-2.153-2.315-3.67-.55-1.515-.773-3.47-.67-5.867.123-2.894.55-5.072 1.284-6.536.73-1.465 1.649-2.612 2.753-3.43 1.105-.823 2.248-1.346 3.43-1.571 1.755-.325 4.324-.417 7.713-.272l16.157.695zm-39.314 55.7569998 1.715-6.434 7.335-.7869998 3.12-11.707-6.011-4.19 1.673-6.275 26.259 19.21-1.67 6.2549998zm14.492-7.7999998 11.947-1.143-9.819-6.85zm-19.687 17.8869998 11.379 5.7670002 20.682-1.962-3.244 6.399-13.927.939 7.54 11.657-3.191 6.293-10.656-17.9-11.343-5.754z" transform="matrix(1.25 0 0 1.25 1224.286 367.405)"/></g><g fill-rule="evenodd"><g transform="matrix(.33591277 0 0 .33591277 871.895132 324.369159)"><path d="m-766.98284-142.34506a71.621495 71.621495 0 0 1 2.14287 1.28755l-37.95361 60.738484zm-3.2005-4.83488a74.389573 74.389573 0 0 1 2.31355 1.17882l-34.92379 65.682094zm-5.78036.45462a71.621495 71.621495 0 0 1 2.30121.97679l-29.13109 65.429504zm-3.84225-4.3424a74.389573 74.389573 0 0 1 2.45511.84535l-25.44274 69.903344zm-5.66082 1.25466a71.621495 71.621495 0 0 1 2.41475.64703l-19.74156 68.847004zm-4.4092-3.7654a74.389573 74.389573 0 0 1 2.54884.49544l-15.46645 72.763994zm-5.43113 2.03028a71.621495 71.621495 0 0 1 2.4813.30467l-9.96778 70.924484zm-4.89032-3.11511a74.389573 74.389573 0 0 1 2.593.13589l-5.18916 74.208374zm-5.09572 2.76639a71.621495 71.621495 0 0 1 2.49956-.0436v71.621503zm-5.27628-2.40419a74.389573 74.389573 0 0 1 2.58668-.22631l5.18916 74.208374zm-4.6611 3.44866a71.621495 71.621495 0 0 1 2.46915-.39108l9.96779 70.924484zm-5.55953-1.64649a74.389573 74.389573 0 0 1 2.53001-.5841l15.46646 72.763994zm-4.1358 4.0638a71.621495 71.621495 0 0 1 2.39071-.73091l19.74156 68.847004zm-5.73456-.85672a74.389573 74.389573 0 0 1 2.42409-.93053l25.44274 69.903344zm-3.52997 4.59984a71.621495 71.621495 0 0 1 2.26571-1.05653l29.13109 65.429504zm-5.79799-.0503a74.389573 74.389573 0 0 1 2.271-1.25883l34.92379 65.682099zm-2.85546 5.04636a71.621495 71.621495 0 0 1 2.09663-1.36157l37.95362 60.738479zm-5.74856.75711a74.389573 74.389573 0 0 1 2.07371-1.56263l43.7251 60.182429zm87.39693-3.05196a74.389573 74.389573 0 0 1 2.12697 1.48932l-43.72509 60.182439zm2.49648 5.23325a71.621495 71.621495 0 0 1 1.94281 1.57326l-46.03741 54.865249zm5.68174 1.15628a74.389573 74.389573 0 0 1 1.899 1.77085l-51.67534 53.511379zm1.74385 5.52976a71.621495 71.621495 0 0 1 1.70495 1.82833l-53.22514 47.924139zm5.46553 1.93577a74.389573 74.389573 0 0 1 1.63406 2.0179l-58.61978 45.798799zm.95729 5.71864a71.621495 71.621495 0 0 1 1.43389 2.04783l-59.3769 40.050229zm-105.86715-11.12709a71.621495 71.621495 0 0 1 1.88673-1.64011l46.03741 54.865259zm-5.58725 1.5498a74.389573 74.389573 0 0 1 1.83605-1.83603l51.67534 53.511379zm-1.35386 5.63793a71.621495 71.621495 0 0 1 1.6401-1.88672l53.22515 47.924139zm-5.31718 2.31232a74.389573 74.389573 0 0 1 1.56264-2.0737l58.61979 45.798799zm123.26836 4.30463a74.389573 74.389573 0 0 1 1.33733 2.22568l-64.42326 37.194789zm.1521 5.7962a71.621495 71.621495 0 0 1 1.13493 2.22746l-64.37296 31.396809zm4.72022 3.3673a74.389573 74.389573 0 0 1 1.01456 2.39015l-68.97281 27.866819zm-.65606 5.76098a71.621495 71.621495 0 0 1 .81389 2.36373l-68.11608 22.132259zm-128.04066-13.45762a71.621495 71.621495 0 0 1 1.36156-2.09663l59.37691 40.050239zm-4.94363 3.02982a74.389573 74.389573 0 0 1 1.25883-2.271l64.42327 37.194789zm137.18995 14.41924a74.389573 74.389573 0 0 1 .67204 2.508077l-72.17989 17.996472zm-1.45146 5.613601a71.621495 71.621495 0 0 1 .47702 2.454008l-70.53341 12.43694zm3.60924 4.537917a74.389573 74.389573 0 0 1 .31643 2.577201l-73.98206 7.77583zm-2.2186 5.356962a71.621495 71.621495 0 0 1 .13083 2.496513l-71.57786 2.499556zm-136.87652-24.13502a71.621495 71.621495 0 0 1 1.0565-2.26572l64.37299 31.396809zm-4.47385 3.68835a74.389573 74.389573 0 0 1 .93053-2.42409l68.97281 27.866829zm1.05633 5.70118a71.621495 71.621495 0 0 1 .73091-2.3907l68.1161 22.132259zm-3.91698 4.275093a74.389573 74.389573 0 0 1 .5841-2.529997l72.17989 17.996463zm1.8395 5.498681a71.621495 71.621495 0 0 1 .39108-2.469164l70.53341 12.436949zm-3.28388 4.778628a74.389573 74.389573 0 0 1 .22629-2.586673l73.98208 7.77583zm2.58687 5.189151a71.621495 71.621495 0 0 1 .0436-2.49955l71.57785 2.499556zm-2.58687 5.189156a74.389573 74.389573 0 0 1 -.1359-2.593002l74.34427-2.596148zm3.28388 4.778635a71.621495 71.621495 0 0 1 -.30466-2.481305l71.22915-7.48648zm-1.8395 5.498679a74.389573 74.389573 0 0 1 -.49545-2.548852l73.25944-12.917612zm3.91698 4.275089a71.621495 71.621495 0 0 1 -.64702-2.41475l69.49403-17.326803zm-1.05633 5.701178a74.389573 74.389573 0 0 1 -.84536-2.455093l70.7487-22.987638zm4.47385 3.688359a71.621495 71.621495 0 0 1 -.97681-2.301204l66.4063-26.829886zm-.25261 5.792698a74.389573 74.389573 0 0 1 -1.17881-2.313542l66.86091-32.610246zm4.94363 3.029822a71.621495 71.621495 0 0 1 -1.28758-2.142866l62.02605-35.810744zm.55604 5.771487a74.389573 74.389573 0 0 1 -1.48933-2.12698l61.67176-41.598117zm5.31718 2.312305a71.621495 71.621495 0 0 1 -1.57327-1.942801l56.43852-44.094601zm1.35386 5.637934a74.389573 74.389573 0 0 1 -1.77084-1.898999l55.28223-49.776337zm5.58725 1.549802a71.621495 71.621495 0 0 1 -1.82834-1.704945l49.75248-51.520193zm2.12533 5.394649a74.389573 74.389573 0 0 1 -2.01789-1.634069l47.8167-56.985718zm5.74856.757119a71.621495 71.621495 0 0 1 -2.04782-1.4339l42.09807-57.943006zm2.85546 5.046357a74.389573 74.389573 0 0 1 -2.22569-1.337326l39.42048-63.085937zm5.79799-.05025a71.621495 71.621495 0 0 1 -2.22746-1.134953l33.62426-63.238021zm3.52997 4.599831a74.389573 74.389573 0 0 1 -2.39014-1.014547l30.25697-67.958258zm5.73456-.856716a71.621495 71.621495 0 0 1 -2.36373-.813901l24.496-67.302188zm4.1358 4.0637933a74.389573 74.389573 0 0 1 -2.50808-.6720378l20.50455-71.5078445zm5.55952-1.6464861a71.621495 71.621495 0 0 1 -2.454-.4770032l14.89095-70.056393zm4.66111 3.4486602a74.389573 74.389573 0 0 1 -2.5772-.3164377l10.35304-73.6656187zm5.27629-2.4041923a71.621495 71.621495 0 0 1 -2.49652-.1308407l4.99607-71.4470234zm5.09571 2.7663897a74.389573 74.389573 0 0 1 -2.59616.04535v-74.3895548zm4.89032-3.1151107a71.621495 71.621495 0 0 1 -2.49042.2178803l-4.99606-71.4470234zm5.43113 2.030281a74.389573 74.389573 0 0 1 -2.56459.4061946l-10.35302-73.6656167zm4.4092-3.7653981a71.621495 71.621495 0 0 1 -2.43587.562367l-14.89094-70.056421zm5.66082 1.2546616a74.389573 74.389573 0 0 1 -2.48309.7591569l-20.50454-71.5078445zm3.84225-4.3423966a71.621495 71.621495 0 0 1 -2.33389.895897l-24.49599-67.302216zm5.78036.45461a74.389573 74.389573 0 0 1 -2.35328 1.097351l-30.25696-67.95828zm3.20049-4.834873a71.621495 71.621495 0 0 1 -2.18648 1.211993l-33.62425-63.238021zm5.78739-.354277a74.389573 74.389573 0 0 1 -2.17765 1.414186l-39.42047-63.085937zm2.49648-5.233245a71.621495 71.621495 0 0 1 -1.99654 1.5045l-42.09806-57.943006zm5.68174-1.156282a74.389573 74.389573 0 0 1 -1.95965 1.703494l-47.81669-56.985718zm1.74385-5.529756a71.621495 71.621495 0 0 1 -1.76773 1.767724l-49.75246-51.520192zm5.46553-1.93577a74.389573 74.389573 0 0 1 -1.70349 1.959638l-55.28223-49.776336zm.95729-5.718644a71.621495 71.621495 0 0 1 -1.50451 1.996535l-56.4385-44.094589zm5.14292-2.677589a74.389573 74.389573 0 0 1 -1.41418 2.177653l-61.67175-41.598118zm.1521-5.796211a71.621495 71.621495 0 0 1 -1.212 2.18649l-62.02603-35.810744zm4.72022-3.367293a74.389573 74.389573 0 0 1 -1.09734 2.353278l-66.86091-32.610239zm-.65606-5.760972a71.621495 71.621495 0 0 1 -.8959 2.33389l-66.40629-26.829879zm4.20566-3.991443a74.389573 74.389573 0 0 1 -.75917 2.483093l-70.74868-22.987639zm-1.45146-5.613607a71.621495 71.621495 0 0 1 -.56236 2.435863l-69.49403-17.326802zm3.60924-4.537914a74.389573 74.389573 0 0 1 -.40619 2.564586l-73.25944-12.917611zm-2.2186-5.356969a71.621495 71.621495 0 0 1 -.21788 2.490424l-71.22915-7.48648zm2.94254-4.996056a74.389573 74.389573 0 0 1 -.0453 2.596154l-74.34427-2.596154z" fill="#c38533" stroke-width=".612006"/><path d="m-768.12351-34.126844-34.64739-23.945036-34.64747 23.945036 12.99291-38.311832-30.31661-23.9453h38.97832l12.99285-38.311924 12.99285 38.311924h38.97826l-30.31657 23.9453z" fill="#ffce00" stroke="#000" stroke-width=".842875"/></g><g stroke="#000"><g fill="#006700" transform="matrix(.32211469 0 0 .32211469 860.5871 321.908919)"><g transform="matrix(3.9999978 0 0 4.0000061 -2806.9149 -1150.8479)"><path d="m507.95573 242.50398s22.68237 9.77254 18.72164 29.96633c-3.96077 20.19371-16.5889 20.05866-21.54071 22.29022-4.95175 2.23158-8.36785 5.42559-10.32172 4.97889s-4.53647-1.95457-4.53647-1.95457-.20668 3.31661 3.77054 3.9201c3.97727.6035 9.20523-5.23428 11.7164-5.88331 2.51111-.64906 17.92861-2.32254 21.67978-22.86999 4.37802-21.93309-19.34946-29.80411-19.48946-30.44767z" stroke-width=".158378"/><g stroke-width=".073031"><path d="m519.41293 246.80367a3.1139041.73727321 75.103804 1 1 -1.49387.11458 3.1139041.73727321 75.103804 1 1 1.49387-.11458z"/><path d="m518.62414 247.01295a3.2086301.71550761 63.335389 1 1 -1.35265.49412 3.2086301.71550761 63.335389 1 1 1.35265-.49412z"/><path d="m516.36033 248.51264a3.0382535.755632 17.053131 1 1 -.14176 1.53516 3.0382535.755632 17.053131 1 1 .14176-1.53516z"/><path d="m516.69231 247.68733a3.1947033.71862669 34.224853 1 1 -.65236 1.29374 3.1947033.71862669 34.224853 1 1 .65236-1.29374z"/><path d="m517.6508 247.29098a3.248599.70671256 46.193824 1 1 -.98758 1.0122 3.248599.70671256 46.193824 1 1 .98758-1.0122z"/></g><g stroke-width=".106625"><path d="m526.25483 252.46531a4.6699238 1.047921 88.41461 1 1 -2.1068-.50445 4.6699238 1.047921 88.41461 1 1 2.1068.50445z"/><path d="m525.09322 252.41201a4.8646244 1.0059735 77.489633 1 1 -2.0369.10233 4.8646244 1.0059735 77.489633 1 1 2.0369-.10233z"/><path d="m521.46133 253.54666a4.5318434 1.0798476 34.909843 1 1 -.7047 2.13516 4.5318434 1.0798476 34.909843 1 1 .7047-2.13516z"/><path d="m522.1944 252.5133a4.8464625 1.0097457 50.90347 1 1 -1.33189 1.5609 4.8464625 1.0097457 50.90347 1 1 1.33189-1.5609z"/><path d="m523.65299 252.37461a4.950751.98847397 61.836508 1 1 -1.70288 1.00767 4.950751.98847397 61.836508 1 1 1.70288-1.00767z"/><path d="m529.95221 261.86404a1.0433771 4.6902739 8.7402603 1 1 -1.96823-.90291 1.0433771 4.6902739 8.7402603 1 1 1.96823.90291z"/><path d="m528.82653 261.58824a4.8959578.99953582 87.950286 1 1 -2.00937-.29021 4.8959578.99953582 87.950286 1 1 2.00937.29021z"/><path d="m525.07192 262.01134a4.5544062 1.0744981 46.025974 1 1 -1.07397 1.97342 4.5544062 1.0744981 46.025974 1 1 1.07397-1.97342z"/><path d="m525.97484 261.13145a4.8822888 1.0023343 61.790448 1 1 -1.58339 1.28579 4.8822888 1.0023343 61.790448 1 1 1.58339-1.28579z"/><path d="m527.42554 261.27474a4.9892915.98083758 72.542919 1 1 -1.8462.66812 4.9892915.98083758 72.542919 1 1 1.8462-.66812z"/><path d="m530.22596 272.35997a1.043028 4.6917994 31.311029 1 1 -1.43123-1.651 1.043028 4.6917994 31.311029 1 1 1.43123 1.651z"/><path d="m529.31397 271.63884a.99313096 4.9275462 20.618312 1 1 -1.70638-1.09985.99313096 4.9275462 20.618312 1 1 1.70638 1.09985z"/><path d="m525.75073 270.47885a4.6284529 1.0573034 69.934156 1 1 -1.73846 1.38595 4.6284529 1.0573034 69.934156 1 1 1.73846-1.38595z"/><path d="m526.90982 270.0363a4.9614864.98633683 85.136546 1 1 -1.93266.53769 4.9614864.98633683 85.136546 1 1 1.93266-.53769z"/><path d="m528.16747 270.76882a.96781357 5.0564342 5.5508165 1 1 -1.93076-.14373.96781357 5.0564342 5.5508165 1 1 1.93076.14373z"/></g><g stroke-width=".123147"><path d="m527.39782 283.00051a1.2214659 5.3441684 48.456594 1 1 -1.03285-2.34011 1.2214659 5.3441684 48.456594 1 1 1.03285 2.34011z"/><path d="m526.63087 281.87456a1.1602418 5.6261508 37.466246 1 1 -1.51685-1.83128 1.1602418 5.6261508 37.466246 1 1 1.51685 1.83128z"/><path d="m523.08988 279.30516a5.382801 1.212705 86.522104 1 1 -2.36914.90092 5.382801 1.212705 86.522104 1 1 2.36914-.90092z"/><path d="m524.51121 279.23603a1.1396055 5.7280454 11.633514 1 1 -2.30411-.10563 1.1396055 5.7280454 11.633514 1 1 2.30411.10563z"/><path d="m525.65479 280.4996a1.1239291 5.8079531 22.119158 1 1 -2.07807-.8571 1.1239291 5.8079531 22.119158 1 1 2.07807.8571z"/></g><g stroke-width=".136788"><path d="m520.10453 292.31089a1.3668966 5.8921903 79.752256 1 1 .28132-2.82289 1.3668966 5.8921903 79.752256 1 1 -.28132 2.82289z"/><path d="m519.97928 290.79645a1.3045341 6.1738672 68.504508 1 1 -.46375-2.6189 1.3045341 6.1738672 68.504508 1 1 .46375 2.6189z"/><path d="m517.96499 286.30505a1.3625646 5.9109276 26.237797 1 1 -2.77871-.51337 1.3625646 5.9109276 26.237797 1 1 2.77871.51337z"/><path d="m519.37455 287.0612a1.2855009 6.2652767 41.822907 1 1 -2.16615-1.43304 1.2855009 6.2652767 41.822907 1 1 2.16615 1.43304z"/><path d="m519.78824 288.92427a1.2680968 6.3512758 52.671334 1 1 -1.53754-2.01699 1.2680968 6.3512758 52.671334 1 1 1.53754 2.01699z"/></g><g stroke-width=".190507"><path d="m510.52858 297.52954a1.7126873 5.9622029 89.067905 0 1 .01-3.42593 1.7126873 5.9622029 89.067905 1 1 -.01 3.42593z"/><path d="m509.73972 292.17345a1.6552611 6.1690513 37.587478 0 1 -2.54151-2.12529 1.6552611 6.1690513 37.587478 1 1 2.54151 2.12529z"/><path d="m510.58127 294.90872a1.6918616 6.0355964 66.471877 1 1 -1.21056-3.16317 1.6918616 6.0355964 66.471877 0 1 1.21056 3.16317z"/></g><g stroke-width=".099548"><path d="m512.20478 243.01992a3.7033735.75289209 41.12609 0 1 -1.40583.76587 3.7033735.75289209 41.12609 0 1 1.40583-.76587z"/><path d="m510.37219 244.55325a3.7505786.74341622 8.1633543 0 1 .28544 1.53964 3.7505786.74341622 8.1633543 1 1 -.28544-1.53964z"/><path d="m511.10877 243.58692a3.9226413.71080894 26.81737 0 1 -.74389 1.21672 3.9226413.71080894 26.81737 1 1 .74389-1.21672z"/></g><path d="m484.23732 291.72341s4.99633 1.07157 9.33985 2.65023c4.34356 1.57866 10.94303 6.99693 12.7168 7.30393 1.98972.0905 4.74894-.5886 5.79619-3.46145-3.06416.81729-4.90176 2.05877-7.82685.45166-1.03352-.39146-4.41792-3.47296-8.12789-5.12227-3.71002-1.64932-11.19247-3.52947-11.19247-3.52947z" stroke-width=".08209"/><g stroke-width=".100465"><path d="m489.56419 246.55688c-.0179-.0428 5.75124-3.03441 5.75124-3.03441l-6.34205 1.62181-.73681 1.11579z"/><path d="m495.0201 247.95544c-2.22661-.40477-5.65108-1.15352-7.83132-1.32813 1.50704-1.66917 3.58354-4.49191 4.86325-6.2246-.84506 1.65261-2.17156 3.8318-2.69516 5.41369 1.53486.82848 3.94745 1.4772 5.66323 2.13904z"/><path d="m488.52499 246.9078c-.025-.0395 5.11072-3.95703 5.11072-3.95703l-5.93565 2.65534-.5283 1.22719z"/></g><path d="m493.98754 247.89639c-2.24207-.42627-5.69272-1.2123-7.88388-1.40058 1.48055-1.71935 3.51062-4.62864 4.76183-6.41442-.81657 1.70461-2.10626 3.95161-2.60161 5.58431 1.55597.8616 3.98931 1.54063 5.72366 2.23069z" stroke-width=".102299"/><path d="m487.67837 247.22636c-.014-.044 6.0183-2.52065 6.0183-2.52065l-6.48079 1.06656-.83669 1.0452z" stroke-width=".100465"/><path d="m493.31397 247.94502c-2.26774-.18907-5.77317-.61216-7.96258-.56484 1.26218-1.90903 2.92794-5.08753 3.95548-7.03913-.60719 1.82173-1.61853 4.24634-1.91645 5.95998 1.64031.70632 4.12697 1.13146 5.92355 1.64399z" stroke-width=".103227"/><path d="m487.06836 247.25192c-.033-.0335 4.0772-4.96818 4.0772-4.96818l-5.16628 3.86302-.23975 1.31766z" stroke-width=".100464"/><path d="m493.27476 248.27341c-2.42981-.0462-6.19892-.26042-8.52166-.0541 1.14969-2.17271 2.60069-5.75946 3.49667-7.96206-.46218 2.03117-1.29335 4.74888-1.43762 6.64024 1.81486.65506 4.50113.94347 6.46261 1.37597z" stroke-width=".111532"/><path d="m486.24146 248.43173c-.0315-.0435 4.95118-4.75056 4.95118-4.75056l-5.99099 3.31472-.41034 1.41978 1.45015.016z" stroke-width=".110739"/><path d="m492.19244 248.43354c-2.61123.01-6.63222-.13178-9.18027.15355 1.6903-2.42219 3.99861-6.40959 5.42144-8.85836-.91941 2.24907-2.37908 5.26366-2.92663 7.35075 1.82177.6762 4.65945.92669 6.68546 1.35406z" stroke-width=".121309"/><g stroke-width=".120445"><path d="m484.57361 248.78389c-.0249-.0471 6.32476-5.35699 6.32476-5.35699l-7.14878 3.8013-.73679 1.57428 1.56081-.0186z"/><path d="m491.24634 248.59284c-2.58584.37292-6.59022.79419-9.074 1.42682 1.32779-2.59637 3.04369-6.80454 4.10267-9.3896-.58878 2.32035-1.6032 5.46213-1.84674 7.57287 1.90192.40574 4.74942.25516 6.81807.38991z"/><path d="m483.73233 249.84101c-.0366-.0379 4.87319-6.75 4.87319-6.75l-6.08156 5.49884-.3259 1.68467z"/><path d="m489.81871 249.39149c-2.60373.24246-6.62705.46197-9.14346.96884 1.47217-2.52545 3.42255-6.64056 4.62558-9.16822-.71851 2.28699-1.90831 5.37268-2.27019 7.46773 1.87685.50058 4.72945.49324 6.78807.73165z"/><path d="m482.85192 250.55294c-.0253-.0477 6.20351-5.36834 6.20351-5.36834l-7.0384 3.79316-.71143 1.58444 1.54632-.009z"/><path d="m489.05522 249.66707c-2.59577.54747-6.62334 1.2413-9.10297 2.03766 1.21277-2.65145 2.73742-6.91855 3.67896-9.54014-.47938 2.32798-1.34806 5.49519-1.48885 7.59254 1.94319.26758 4.81463-.0789 6.91286-.0901z"/><path d="m481.81563 250.82994c-.0424-.0301 3.96287-7.35811 3.96287-7.35811l-5.36385 6.36263-.0887 1.68112 1.48961-.68564z"/></g><path d="m489.05656 250.07948c-2.785.72446-7.12518 1.67467-9.7522 2.67206 1.00879-3.0144 2.16303-7.84703 2.87749-10.8163-.24254 2.62119-.81035 6.19673-.70905 8.54558 2.16752.21435 5.27992-.29764 7.58376-.40134z" stroke-width=".133714"/><path d="m481.03633 252.53206c-.0422-.0428 4.99285-7.37403 4.99285-7.37403l-6.38405 5.96014-.26932 1.86026z" stroke-width=".132763"/><g stroke-width=".132762"><path d="m487.9514 250.92293c-2.73757.86579-7.01216 2.0384-9.57978 3.16537.86312-3.03293 1.78608-7.87036 2.3584-10.84284-.11896 2.60313-.51706 6.16681-.30658 8.48233 2.16694.0951 5.24021-.57837 7.52796-.80486z"/><path d="m480.03348 253.61585c-.0485-.0342 3.79476-8.14019 3.79476-8.14019l-5.39563 7.0106.0245 1.87172z"/><path d="m486.90864 252.02909c-2.80446.63918-7.16722 1.45849-9.82616 2.37193 1.13477-2.95277 2.49292-7.69941 3.33265-10.61569-.35478 2.58518-1.07468 6.10503-1.07531 8.43044 2.14903.27202 5.2703-.148 7.56882-.18668z"/></g><path d="m479.13671 254.39934c-.0336-.05 6.20061-6.37028 6.20061-6.37028l-7.30976 4.71682-.59529 1.7892z" stroke-width=".132763"/><path d="m485.65784 253.13564c-2.77807.37288-7.08902.77481-9.74185 1.44123 1.28976-2.89285 2.90801-7.5893 3.90741-10.47422-.50544 2.59594-1.42495 6.10702-1.56857 8.47365 2.08197.48961 5.15595.37114 7.40301.55934z" stroke-width=".132762"/><path d="m477.90865 253.76255c-.0456-.0383 4.2189-7.97085 4.2189-7.97085l-5.72265 6.70711-.0891 1.89926 1.59294-.63552z" stroke-width=".132762"/><path d="m486.00648 252.18955c-3.02126 1.23723-7.74038 2.96142-10.5713 4.48661.92829-3.58688 1.90692-9.26896 2.51401-12.76092-.10874 3.02534-.51786 7.18713-.26462 9.85111 2.39836-.0753 5.79273-1.11857 8.32191-1.5768z" stroke-width=".150337"/><g stroke-width=".149267"><path d="m477.32799 256.17026c-.0489-.0426 5.04976-9.14703 5.04976-9.14703l-6.66612 7.73974-.18415 2.16142z"/><path d="m484.84119 253.31463c-2.96051 1.39142-7.59405 3.35957-10.35177 5.0238.76685-3.58651 1.49065-9.23989 1.94112-12.71455.0262 2.98651-.19687 7.1097.17451 9.71955 2.39052-.21127 5.73209-1.4329 8.23614-2.0288z"/><path d="m476.28972 257.55426c-.0554-.0319 3.68498-9.84405 3.68498-9.84405l-5.51496 8.79195.13988 2.13115z"/><path d="m483.55002 254.13476c-2.95356 1.41483-7.57755 3.41976-10.32642 5.10553.74439-3.59028 1.43249-9.24562 1.861-12.72153.0453 2.98417-.15148 7.10629.23684 9.71123 2.39074-.23083 5.72669-1.47912 8.22858-2.09523z"/><path d="m475.46507 258.72642c-.045-.0477 5.70099-8.68074 5.70099-8.68074l-7.188 7.10504-.35031 2.15248z"/><path d="m483.27143 253.68676c-2.63331 2.10225-6.79925 5.19245-9.1739 7.50209-.004-3.62401-.48941-9.20971-.78237-12.64422.66077 2.84393 1.31661 6.83805 2.23885 9.23218 2.32022-.82671 5.36662-2.86651 7.71742-4.09005z"/><path d="m475.73979 259.14858c-.0632-.008.66043-10.40189.66043-10.40189l-2.74663 10.1129.76641 1.90502z"/><path d="m482.52461 254.6461c-2.641 2.08874-6.81816 5.15751-9.20149 7.45513.0113-3.6254-.4509-9.21584-.72946-12.65325.64868 2.84858 1.28764 6.84778 2.19956 9.24783 2.32275-.81443 5.37643-2.83847 7.73139-4.04971z"/><path d="m475.0791 260.90849c-.0587-.0247 2.65663-10.16348 2.65663-10.16348l-4.59702 9.34655.36273 2.08675z"/></g><g stroke-width=".154575"><path d="m482.23108 254.89286c-2.49571 2.45876-6.46918 6.1068-8.67552 8.74878-.39118-3.71857-1.48994-9.39508-2.15967-12.88608.98659 2.84283 2.09102 6.86658 3.29965 9.2179 2.30861-1.11396 5.23776-3.55592 7.53554-5.0806z"/><path d="m475.09343 262.20584c-.0653-.009.49728-10.80949.49728-10.80949l-2.65496 10.50272.82452 1.98238z"/><path d="m481.43961 256.68518c-2.6709 2.20831-6.90152 5.45711-9.30098 7.87858-.0835-3.76573-.70738-9.56552-1.08516-13.13173.74431 2.94919 1.5088 7.09361 2.513 9.57305 2.3759-.88006 5.47442-3.02722 7.87314-4.3199z"/></g></g><g transform="matrix(3.9999978 0 0 3.9999978 -2806.915 -1150.8452)"><path d="m474.29677 263.44366c-.057-.0351 3.7632-10.16721 3.7632-10.16721l-5.64326 9.00836.1476 2.23156z" stroke-width=".154575"/><path d="m481.39449 256.72665c-2.3639 2.50054-6.1277 6.21137-8.2172 8.89685-.37332-3.76951-1.41865-9.52228-2.05585-13.06021.93709 2.87974 1.98667 6.9566 3.13388 9.33729 2.18749-1.13634 4.96224-3.62113 7.13917-5.17393z" stroke-width=".151542"/><path d="m474.44452 263.96087c-.0662-.00092-.44514-10.74897-.44514-10.74897l-1.74066 10.70582.99793 1.86086z" stroke-width=".154574"/><path d="m480.23581 257.52622c-2.2872 2.52294-5.93683 6.26912-7.94455 8.9749-.48374-3.77044-1.69696-9.52071-2.43741-13.05714 1.02058 2.87504 2.18873 6.94754 3.40448 9.32124 2.15115-1.15581 4.84912-3.66639 6.97748-5.239z" stroke-width=".151541"/><path d="m473.83875 265.02759c-.0606-.0179 1.20036-10.91948 1.20036-10.91948l-3.20175 10.32845.63809 2.12109z" stroke-width=".151541"/><path d="m479.7443 257.95281c-2.09104 2.73216-5.4489 6.81371-7.24716 9.70051-.76898-3.70306-2.41625-9.30422-3.42367-12.74952 1.23676 2.76018 2.71171 6.69699 4.10518 8.9395 2.05905-1.35913 4.56099-4.11901 6.56565-5.89049z" stroke-width=".151542"/><path d="m473.79408 266.04946c-.0626-.003-.69285-10.93271-.69285-10.93271l-1.37651 10.84612.99131 1.91067z" stroke-width=".151542"/><g stroke-width=".152628"><path d="m479.528 258.58198c-1.96286 2.86082-5.13032 7.14683-6.79117 10.14801-.95986-3.68846-2.89816-9.24217-4.08454-12.65856 1.38218 2.71448 3.06318 6.6013 4.57666 8.78632 2.00013-1.47656 4.37441-4.38684 6.29905-6.27577z"/><path d="m474.47836 267.07274c-.0612-.02 1.11241-10.98191 1.11241-10.98191l-3.12982 10.3226.65992 2.16058z"/><path d="m479.12952 259.5983c-1.69191 3.11721-4.45192 7.81888-5.83124 11.03365-1.28552-3.5337-3.71082-8.78582-5.19684-12.01752 1.61728 2.50663 3.63691 6.13727 5.3369 8.09922 1.8536-1.74613 3.9497-4.96972 5.69118-7.11535z"/><path d="m474.09564 267.97651c-.0615.017-3.06907-10.41445-3.06907-10.41445l1.03723 10.97744 1.38282 1.54793z"/></g><path d="m479.06955 260.81478c-1.76285 3.10777-4.63559 7.7952-6.07801 11.00024-1.29327-3.52301-3.74425-8.75925-5.2459-11.98119 1.64219 2.49905 3.68902 6.11872 5.42046 8.07475 1.91826-1.74085 4.09726-4.95468 5.90345-7.0938z" stroke-width=".15448"/><path d="m474.23421 269.93892c-.0649.00003-1.12681-10.95054-1.12681-10.95054l-1.01427 10.95171 1.09592 1.87673z" stroke-width=".15448"/><path d="m479.2462 261.77126c-1.81267 3.06599-4.76048 7.6854-6.25438 10.85618-1.23586-3.55312-3.60137-8.84655-5.05042-12.10353 1.60126 2.53747 3.58889 6.20497 5.28818 8.20156 1.9459-1.69554 4.17631-4.85779 6.01662-6.95421z" stroke-width=".154481"/><g stroke-width=".15448"><path d="m474.12707 270.81601c-.0646.007-2.03201-10.75379-2.03201-10.75379l-.0993 11.01367 1.24698 1.73391z"/><path d="m478.46751 263.3211c-1.95524 2.93627-5.11744 7.34519-6.75952 10.40819-1.06417-3.63386-3.17286-9.08389-4.4639-12.43678 1.47724 2.6449 3.28627 6.44505 4.88711 8.55661 2.02293-1.55846 4.39969-4.56193 6.33631-6.52802z"/><path d="m473.18621 272.01037c-.0632-.0172.90932-10.99207.90932-10.99207l-2.99534 10.42285.72366 2.12435z"/></g><path d="m478.58643 263.59914c-1.67152 3.17998-4.4064 7.98538-5.75479 11.24897-1.39536-3.46545-3.99785-8.59374-5.59271-11.74953 1.71428 2.42753 3.86567 5.95764 5.65336 7.83879 1.86668-1.82072 3.95108-5.1243 5.69414-7.33823z" stroke-width=".154481"/><g stroke-width=".15448"><path d="m472.81229 272.92766c-.0628.0197-3.37329-10.24464-3.37329-10.24464l1.29841 10.89409 1.45313 1.48237z"/><path d="m478.1272 264.41664c-1.16717 3.48975-3.13661 8.80893-3.97314 12.3102-1.89459-3.09993-5.22743-7.56981-7.27185-10.32188 2.05246 2.01043 4.70097 5.00865 6.7435 6.46621 1.56367-2.19689 3.11865-5.89832 4.50149-8.45453z"/><path d="m475.81836 273.76522c-.0623.0221-3.65252-10.10316-3.65252-10.10316l1.59621 10.83472 1.49317 1.42349z"/></g><g stroke-width=".154481"><path d="m478.10072 265.47974c-1.14198 3.50171-3.07305 8.84112-3.8843 12.35089-1.91699-3.0798-5.28213-7.51437-7.34643-10.24477 2.06699 1.98874 4.73716 4.95893 6.79024 6.39495 1.54781-2.21311 3.07608-5.93055 4.44049-8.50107z"/><path d="m475.84763 275.48835c-.0595.0316-4.69956-9.44845-4.69956-9.44845l2.73674 10.49148 1.63322 1.17993z"/><path d="m477.7449 266.36565c-.73013 3.63524-2.03169 9.20548-2.43279 12.80129-2.25601-2.77846-6.10451-6.69244-8.46647-9.10341 2.27932 1.67531 5.26993 4.23715 7.47187 5.3665 1.28096-2.41593 2.3695-6.32043 3.42739-9.06438z"/><path d="m476.15376 276.96964c-.0641.0122-2.53412-10.59489-2.53412-10.59489l.41786 10.9997 1.32671 1.64556z"/></g><path d="m477.75937 267.4936c-.38623 3.71671-1.1594 9.4364-1.22288 13.06958-2.49654-2.46181-6.67855-5.8394-9.24602-7.92113 2.41706 1.36061 5.62223 3.50786 7.91175 4.33546 1.04611-2.57724 1.76285-6.61022 2.55715-9.48391z" stroke-width=".15448"/><path d="m476.27553 277.74926c-.05.0489-6.69864-7.64888-6.69864-7.64888l5.04763 9.26397 1.84446.63024z" stroke-width=".154481"/><path d="m477.89973 268.79455c-.40089 3.71422-1.19662 9.42903-1.2744 13.06154-2.487-2.47583-6.65595-5.87697-9.21538-7.97316 2.41184 1.37426 5.60874 3.5396 7.89514 4.38018 1.05631-2.57106 1.78898-6.59962 2.59464-9.46856z" stroke-width=".15448"/><path d="m477.02675 279.52011c-.0579.0342-5.14506-9.22018-5.14506-9.22018l3.23223 10.34957 1.68853 1.10439z" stroke-width=".154481"/><g stroke-width=".15448"><path d="m478.20189 270.32133c-.24447 3.73656-.79917 9.49661-.72461 13.13192-2.58571-2.32366-6.88878-5.47013-9.53087-7.40995 2.46456 1.22724 5.74575 3.19751 8.06276 3.89895.94647-2.63377 1.50889-6.70463 2.19272-9.62092z"/><path d="m477.67689 281.2069c-.0522.0456-6.35682-8.06013-6.35682-8.06013l4.63557 9.56618 1.81548.74672z"/><path d="m478.27054 272.04054c-.22198 3.73899-.74197 9.50433-.64558 13.13928-2.59934-2.30134-6.92075-5.4106-9.57415-7.32759 2.47161 1.20589 5.76421 3.14776 8.08513 3.82909.93051-2.64222 1.46838-6.71831 2.1346-9.64078z"/><path d="m478.25317 282.57759c-.0603.0279-4.45713-9.71751-4.45713-9.71751l2.46661 10.63839 1.60335 1.27756z"/><path d="m478.43867 273.15302c.12753 3.75156.14784 9.56021.58155 13.16533-2.79278-1.94064-7.3691-4.45358-10.17976-6.00438 2.56417.86747 6.01128 2.35697 8.37716 2.7226.6774-2.75527.83191-6.8849 1.22105-9.88355z"/><path d="m479.0318 282.20337c-.0375.0615-8.14136-5.57421-8.14136-5.57421l6.90196 7.60563 1.91823.099z"/><path d="m478.6962 273.56093c.3239 3.73435.64804 9.52306 1.27087 13.09991-2.89798-1.82874-7.61181-4.1605-10.50731-5.6 2.61295.76775 6.14253 2.1221 8.53068 2.39715.5342-2.77177.47294-6.89362.70576-9.89706z"/><path d="m479.90885 284.27608c-.0499.0475-6.78343-7.79759-6.78343-7.79759l5.1379 9.3626 1.85668.67684z"/><path d="m479.28405 274.98391c.48052 3.71873 1.04808 9.49395 1.8198 13.03699-2.96485-1.65598-7.76029-3.70608-10.70623-4.97259 2.63602.61107 6.21016 1.75412 8.60138 1.88553.41516-2.80687.17997-6.92932.28505-9.94993z"/><path d="m481.26626 285.58908c-.0383.0609-8.07909-5.70913-8.07909-5.70913l6.81465 7.71783 1.91811.13176z"/></g><path d="m479.53811 276.56325c.7241 3.67509 1.67117 9.39946 2.67284 12.87121-3.05468-1.37611-7.95371-2.9732-10.96374-3.96142 2.65871.3618 6.28451 1.16702 8.66824 1.0721.22603-2.84758-.28121-6.94982-.37734-9.98189z" stroke-width=".154481"/><path d="m482.15896 286.72321c-.0505.0464-6.68237-7.92142-6.68237-7.92142l5.01473 9.45339 1.84868.712z" stroke-width=".15448"/><path d="m479.97694 277.58087c1.06055 3.57403 2.5337 9.16516 3.84957 12.49894-3.14887-.96588-8.14173-1.90575-11.21008-2.49015 2.66228.006 6.32219.32494 8.66979-.0888-.0437-2.87456-.92986-6.90426-1.30928-9.92001z" stroke-width=".154481"/><path d="m482.51531 286.74234c-.0139.0731-9.33519-1.99973-9.33519-1.99973l8.87757 4.4134 1.79326-.67489z" stroke-width=".15448"/><path d="m480.59312 278.69162c1.04657 3.57921 2.49784 9.17743 3.80075 12.51789-3.14568-.98348-8.13584-1.95139-11.20251-2.55301 2.66281.0208 6.3222.36063 8.67192-.0397-.0322-2.87416-.90263-6.90797-1.27016-9.92518z" stroke-width=".154481"/><path d="m484.0429 287.72467c-.0279.0661-8.93171-4.31373-8.93171-4.31373l8.01087 6.49416 1.9194-.17986z" stroke-width=".15448"/><path d="m480.13007 279.32317c1.77394 3.26155 4.36764 8.40488 6.34102 11.3751-3.2723-.24973-8.33855-.067-11.4534.0386 2.59895-.58199 6.23619-1.07751 8.44135-2.00026-.63702-2.80187-2.3351-6.54757-3.32897-9.41341z" stroke-width=".154481"/><path d="m485.44645 288.70329c-.0173.0717-9.28098-2.56331-9.28098-2.56331l8.71028 4.93208 1.83163-.55935z" stroke-width=".15448"/><path d="m481.08971 280.70617c1.79303 3.24895 4.41697 8.37416 6.40747 11.3299-3.27134-.22235-8.33254.003-11.44432.13502 2.59329-.6043 6.22462-1.13079 8.42229-2.07277-.65411-2.79852-2.37436-6.53262-3.38544-9.39215z" stroke-width=".154481"/><g stroke-width=".15448"><path d="m486.62475 289.46696c-.0331.0624-8.64855-5.17366-8.64855-5.17366l7.55637 7.23143 1.9431.0193-.85092-2.07704z"/><path d="m481.80879 281.52059c2.07656 3.03234 5.15143 7.84247 7.39347 10.55431-3.23466.20282-8.18381 1.08909-11.22736 1.62725 2.48842-.94545 6.00395-1.94797 8.07101-3.18132-.91419-2.72796-2.96638-6.25747-4.23712-9.00024z"/><path d="m487.25649 290.22362c-.003.076-9.33538-.21998-9.33538-.21998l9.23587 2.72929 1.64229-1.02031z"/></g><path d="m492.66877 244.99482c.00093-.0292 6.71663-1.12053 6.71663-1.12053l-6.68248.15587-1.1658.59883z" stroke-width=".080966"/><path d="m496.35904 246.43074c-1.94879-.58887-4.89357-1.57532-6.89384-2.01003 2.1257-.84489 5.27169-2.34359 7.20763-3.26279-1.48948.93234-3.65528 2.13034-4.80979 3.06505 1.11525.75753 3.13958 1.53006 4.496 2.20777z" stroke-width=".082226"/><path d="m492.37945 245.226c-.007-.0281 6.49799-1.7851 6.49799-1.7851l-6.73197.85815-1.01527.69686z" stroke-width=".080966"/><path d="m496.66822 246.89939c-2.277-.21452-5.76912-.65126-8.01601-.6737 1.69278-1.49899 4.06601-4.0068 5.52805-5.54646-1.00513 1.44692-2.55054 3.36709-3.21686 4.73571 1.52672.61279 3.97753 1.02304 5.70482 1.48445z" stroke-width=".093859"/><path d="m489.96445 245.68324c.006-.0295 6.75364-.76262 6.75364-.76262l-6.58063-.21064-1.2307.54109z" stroke-width=".080967"/><path d="m494.96545 247.15649c-2.0705-.39591-5.21662-1.08568-7.31114-1.33131 1.98983-.97674 4.88991-2.65746 6.67508-3.68882-1.33282 1.00674-3.29929 2.32125-4.29408 3.30243 1.26085.62487 3.44064 1.18847 4.93014 1.7177z" stroke-width=".080966"/><path d="m489.37622 245.6165c-.0171-.0255 5.94468-2.55841 5.94468-2.55841l-6.51116 1.71872-.78023.79263 1.34671.0471z" stroke-width=".080966"/><path d="m494.76911 247.91432c-1.72301-.71161-4.36294-1.91708-6.06761-2.41878 1.31995-1.22801 3.18007-3.38007 4.32588-4.70026-.79687 1.31912-2.01489 3.0247-2.5528 4.33292 1.14423.97396 2.99452 1.92988 4.29453 2.78612z" stroke-width=".084422"/><path d="m489.71459 246.06293c-.0125-.0399 4.62511-2.00423 4.62511-2.00423l-5.03679.69006-.6193.89768z" stroke-width=".083821"/><g stroke-width=".15448"><path d="m485.84296 289.3677c.004.074-9.58533.0724-9.58533.0724l9.7058 2.37288 1.59239-1.04343-1.71286-1.40183z"/><path d="m487.56553 289.99269c-.0117.0702-9.73524-2.2643-9.73524-2.2643l9.34858 4.58286 1.83191-.58944z"/><path d="m489.16599 290.64083c-.00002.0735-9.66486-.48721-9.66486-.48721l9.66436 2.91323 1.65703-.93938z"/></g><path d="m483.03224 283.8077c2.51442 2.77113 6.2812 7.18673 8.91953 9.63015-3.24656.49044-8.13555 1.80282-11.14304 2.6032 2.39018-1.1476 5.81224-2.44378 7.73674-3.8342-1.29645-2.57924-3.85386-5.83769-5.51323-8.39915z" stroke-width=".154481"/><path d="m490.49605 291.12877c-.0176.0677-9.66087-3.1614-9.66087-3.1614l9.07808 5.39773 1.90186-.40097z" stroke-width=".15448"/><path d="m483.92586 284.44415c2.74037 2.49928 6.87339 6.5112 9.70001 8.66318-3.1108.89585-7.73507 2.82641-10.58045 4.00698 2.2076-1.4566 5.40469-3.19052 7.13317-4.83597-1.53383-2.45446-4.36727-5.44234-6.25273-7.83419z" stroke-width=".154481"/><g stroke-width=".15448"><path d="m491.29077 291.72787c.0149.0745-9.16721 1.80257-9.16721 1.80257l9.65983.6583 1.36379-1.34661z"/><path d="m489.37335 291.1519c.009.0736-9.56164.73363-9.56164.73363l9.8655 1.69528 1.511-1.14989z"/><path d="m491.13956 291.65589c-.006.0708-9.88674-1.58503-9.88674-1.58503l9.67492 3.92266 1.78417-.71393z"/><path d="m492.78561 292.19142c.006.0732-9.68305.18137-9.68305.18137l9.86472 2.23672 1.58334-1.05065z"/></g><path d="m486.15047 285.80406c2.71774 2.58849 6.80894 6.72964 9.62573 8.98296-3.20355.71289-7.98467 2.35835-10.92633 3.36364 2.29945-1.30877 5.61765-2.83685 7.43407-4.35551-1.48768-2.4813-4.2849-5.55258-6.13347-7.99109z" stroke-width=".154481"/><path d="m494.14977 292.58595c-.0125.0688-9.87987-2.4843-9.87987-2.4843l9.46612 4.7535 1.86813-.53091z" stroke-width=".15448"/><path d="m487.09016 286.37671c2.92284 2.30197 7.34926 6.01548 10.33211 7.96532-3.03761 1.1076-7.5081 3.35095-10.2594 4.72399 2.094-1.60416 5.1548-3.55302 6.75643-5.31235-1.71524-2.34056-4.76765-5.12307-6.82914-7.37696z" stroke-width=".154481"/><path d="m494.98797 293.12831c.0205.0733-9.01438 2.42928-9.01438 2.42928l9.69087-.0105 1.26007-1.4363-1.93656-.98249z" stroke-width=".15448"/></g></g><g fill="#c70303"><g fill-rule="evenodd"><g stroke-width=".129388"><ellipse cx="630.476038" cy="286.546528" rx=".894011" ry=".894011"/><ellipse cx="637.570682" cy="284.730577" rx=".894011" ry=".894011"/><ellipse cx="632.286186" cy="296.653991" rx=".894011" ry=".894011"/><ellipse cx="639.601215" cy="297.5081" rx=".894011" ry=".894011"/><ellipse cx="630.07486" cy="307.529971" rx=".894011" ry=".894011"/><ellipse cx="637.685871" cy="310.520543" rx=".894011" ry=".894011"/><ellipse cx="625.201099" cy="316.554432" rx=".894011" ry=".894011"/><ellipse cx="630.895496" cy="323.787844" rx=".894011" ry=".894011"/><ellipse cx="619.812881" cy="330.848471" rx=".894011" ry=".894011"/><ellipse cx="615.923151" cy="322.760942" rx=".894011" ry=".894011"/><ellipse cx="612.848205" cy="263.16644" rx=".894011" ry=".894011"/></g><ellipse cx="611.349448" cy="266.242425" rx=".894011" ry=".894011" stroke-width=".129575"/><ellipse cx="625.265586" cy="276.044194" rx=".894011" ry=".894011" stroke-width=".129388"/><g stroke-width=".129575"><ellipse cx="619.545967" cy="270.640521" rx=".894011" ry=".894011"/><ellipse cx="623.39855" cy="267.452885" rx=".894011" ry=".894011"/></g></g><circle cx="632.012393" cy="272.51143" r=".894011" stroke-width=".129389"/></g></g></g><g stroke="#000" stroke-width=".51664" transform="matrix(.23911718 0 0 .23911718 528.041052 234.844382)"><g transform="matrix(-1.7336691 0 0 1.7336691 1036.6556 -752.65756)"><g stroke-linejoin="round" transform="matrix(-1 0 0 1 885.55211 9.092202)"><path d="m455.25309 670.2532 1.71685-.0815-6.78628 20.16829-4.41601 1.99594 3.2944-7.66959z" fill="#de2929"/><path d="m456.96994 670.1717 1.8844-.0894-2.92534 17.66093-5.74534 2.59679z" fill="#fff"/><path d="m458.85434 670.0823 1.80618-.0857-1.01897 16.06864-3.71255 1.67802z" fill="#21317b"/><g transform="translate(-.000002)"><path d="m437.93171 661.53124 22.78371.94033 5.85449 6.89208-5.83089-10.10563-22.57448-3.37049z" fill="#de2929"/><path d="m437.93171 661.53124-.21686 5.25892 22.97027-.16505 5.88479 2.73854-5.85439-6.89209z" fill="#fff"/><path d="m437.71485 666.79016-.17748 4.30379 23.12315-1.09738 5.90939-.63292-5.88479-2.73853z" fill="#21317b"/></g><path d="m416.84408 668.50728.35489 2.58098 31.03438 15.50735.8287-1.92927z" fill="#21317b"/><path d="m417.19897 671.08826 31.03438 15.50735-1.59235 3.7071-31.47789-14.19444 2.5432-1.33029z" fill="#fff"/><path d="m415.16311 676.10827-2.55173 1.33475 33.15627 14.89291.87335-2.03322z" fill="#de2929"/></g><path d="m430.29902 679.3454 37.09982 14.92268-8.29145 7.72613z" fill="#8c3121"/></g><g transform="matrix(1.7336691 0 0 1.7336691 -417.61645 -752.65754)"><g stroke-linejoin="round" transform="matrix(-1 0 0 1 886.42832 9.092191)"><path d="m455.25309 670.2532 1.71685-.0815-6.78628 20.16829-4.41601 1.99594 3.2944-7.66959z" fill="#de2929"/><path d="m456.96994 670.1717 1.8844-.0894-2.92534 17.66093-5.74534 2.59679z" fill="#fff"/><path d="m458.85434 670.0823 1.80618-.0857-1.01897 16.06864-3.71255 1.67802z" fill="#21317b"/><g transform="translate(-.000002)"><path d="m437.93171 661.53124 22.78371.94033 5.85449 6.89208-5.83089-10.10563-22.57448-3.37049z" fill="#de2929"/><path d="m437.93171 661.53124-.21686 5.25892 22.97027-.16505 5.88479 2.73854-5.85439-6.89209z" fill="#fff"/><path d="m437.71485 666.79016-.17748 4.30379 23.12315-1.09738 5.90939-.63292-5.88479-2.73853z" fill="#21317b"/></g><path d="m416.84408 668.50728.35489 2.58098 31.03438 15.50735.8287-1.92927z" fill="#21317b"/><path d="m417.19897 671.08826 31.03438 15.50735-1.59235 3.7071-31.47789-14.19444 2.5432-1.33029z" fill="#fff"/><path d="m415.16311 676.10827-2.55173 1.33475 33.15627 14.89291.87335-2.03322z" fill="#de2929"/></g><path d="m431.17523 679.34539 37.09982 14.92268-8.29145 7.72613z" fill="#8c3121"/></g></g></svg>