<?xml version="1.0"?>
<svg version="1.1" width="1200" height="800" viewBox="0 0 1200 800" xmlns="http://www.w3.org/2000/svg" xmlns:xlink="http://www.w3.org/1999/xlink">
  <pattern id="pat" x="59" y="70" width="120.3" height="168.4" patternUnits="userSpaceOnUse">
    <path fill="#fff" d="m0,0h120.3v168.4H0z"/>
    <g id="fdl">
      <path fill="#ffdb43" stroke="#ba9509" d="m68.9 48c3.7 1.8 5 4.4 4.9 7.3-0.1 5.1-3.7 7.3-6.9 12.4-3.3 5-5.8 15.6-4.9 22.5 1.2 9.5 5 10.6 4.2 15.2-0.7 3.7-4 4.6-6.5 8.1-2.6-3.5-5.9-4.4-6.6-8.1-0.8-4.6 3-5.7 4.3-15.2 0.8-6.9-1.7-17.5-5-22.5-3.2-5.1-6.8-7.3-6.9-12.4-0.1-2.9 1.2-5.5 5-7.3 2.8-1.3 7.3-3.2 9.2-5.9 1.8 2.7 6.3 4.6 9.2 5.9zm-27.9 17.2c11 1 15.5 13 14.7 22.4-0.6 5.6-3 15.6-9.4 15.8-4.2 0.2-6.6-2.9-6.4-7.6 0.8 0.8 2.4 3.6 6.2 3 2.2-0.4 5.1-1.7 6-10 0.6-5.5-1.4-12.1-5.8-11.9-7.3 0.5-4.5 9.8-4.5 9.8 0 0-11.1-0.6-11.7-10.8-0.3-5.3 4.5-10.5 9.9-10.7q0.5 0 1 0zm48.2 10.7c-0.6 10.2-11.7 10.8-11.7 10.8 0 0 2.8-9.3-4.5-9.8-4.4-0.2-6.4 6.4-5.8 11.9 0.9 8.3 3.8 9.6 6.1 10 3.7 0.6 5.4-2.2 6.2-3 0.1 4.7-2.3 7.8-6.5 7.6-6.4-0.2-8.8-10.2-9.4-15.8-0.8-9.4 3.7-21.4 14.7-22.4q0.3 0 0.5 0c5.6-0.2 10.8 5.3 10.4 10.7z"/>
      <path fill="#ecc21e" d="m72.9 55.2c-0.1 2.4-0.9 4-2.1 5.7-1.3 1.8-3 3.6-4.7 6.2-3.4 5.5-5.7 15.9-4.8 23.1 0.6 4.9 1.7 7.8 2.7 9.8 1 2.1 1.6 3.2 1.3 5.2-0.3 1.7-1.1 2.6-2.3 3.7-1 0.9-1.6 1.3-2.7 2.7 1.3-3.3 2.8-4 2.8-7.3-0.1-3.6-2.3-6.8-2.7-11.2-0.2-1.6 0.2-3.1 0.1-4.7 0 0-0.1-5.5 0.3-8.2 0.7-4.5 1.6-8.8 3.5-12.9 1.6-3.4 5.4-6.4 6.7-9.9 0.9-2.7-0.3-6-2.5-8.5 3.4 1.6 4.4 3.8 4.4 6.3zm-24.3 5.7c8.8 4.8 10.6 15.1 10.8 27.1 0 0-0.6 4.4-1.3 7.7-0.8 4.2-2.8 6.5-2.9 9.3-0.1 1.7 1.1 3.9 1.1 3.9-1.1-1.1-2-2.2-2.3-3.9-0.4-2 0.2-3.1 1.2-5.2 1.1-2 2.1-4.6 2.7-9.5 0.9-7.2-1.5-17.9-4.9-23.3-1.5-2.3-5.2-6-4.8-6.2q0-0.1 0.4 0.1zm6.2 26.7c-0.3 2.7-1 6.5-2.4 9.6-1.4 3-3.4 5.2-6.1 5.3-1.9 0.1-3.2-0.5-4.1-1.6-0.5-0.7-0.9-1.5-1.1-2.5 0.1 0.1 0.1 0.1 0.2 0.2 0.9 1.3 2.8 2.9 4.9 2.6 1.3-0.2 2.9-0.8 4.2-2.4 1-1.3 2.5-4.8 3-8.2 0.1-0.7-0.4-1-0.3-1.7 0.3-2.9-0.1-6-1.1-8.6-0.6-1.2-1.3-2.3-2.2-3.1-1-0.8-2.2-1.3-3.5-1.2-2.1 0.1-3.6 0.9-4.5 2-0.9 1.2-1.3 2.6-1.4 3.9-0.1 1.4 0 2.7 0.2 3.7-3.2-0.1-6.1-6.4-1.4-11.3 1.4-1.5 3.2-2.2 5.1-2.1 4.8 0.1 10.2 5.3 10.5 15.4zm25.4-13.3c4.6 4.9 1.8 11.2-1.5 11.3 0.2-1 0.3-2.3 0.2-3.7-0.1-1.3-0.5-2.7-1.4-3.9-0.9-1.1-2.4-1.9-4.4-2-1.4-0.1-2.6 0.4-3.5 1.2-1 0.8-1.7 1.9-2.2 3.1-1.1 2.6-1.5 5.7-1.2 8.6 0.1 0.7-0.4 1-0.3 1.7 0.5 3.4 2 6.9 3.1 8.2 1.3 1.6 2.9 2.2 4.1 2.4 2.1 0.3 4-1.3 4.9-2.6 0.1-0.1 0.1-0.1 0.2-0.2-0.2 1-0.5 1.8-1 2.5-1 1.1-2.3 1.7-4.1 1.6-2.8-0.1-4.7-2.3-6.1-5.3-1.4-3.1-2.2-6.9-2.4-9.6 0.2-10.1 5.6-15.3 10.4-15.4 1.9-0.1 3.8 0.6 5.2 2.1z"/>
      <path stroke="#ba9509" d="m59.7 42.3v70.9"/>
      <path fill="#ffec93" d="m58.3 63.7c-2.7-4.7-7-4-7.4-10.3-0.2-4 6-5.1 7.7-8.6zm8-8.7c-0.3 6.3-3.9 3.9-5.4 8.5l-0.3-17.6c1.7 3.6 5.9 5.1 5.7 9.1zm-16.4 16.5c-5.6-2.9-10.8-2.6-13.8-0.4-2 1.5-3.3 3.5-3.3 8.7-2.4-5.6 0.1-9.1 1.9-10.9 1.4-1.3 3.6-2.2 6.1-2.2 3.1 0 6.6 1.3 9.1 4.8zm34.7-2.6c1.8 1.8 4.3 5.3 1.9 10.9 0-5.2-1.3-7.2-3.3-8.7-3-2.2-8.2-2.5-13.8 0.4 2.5-3.5 6-4.8 9.1-4.8 2.5 0 4.7 0.9 6.1 2.2zm-25.8 41.5c0 0-2-1.5-2.2-4-0.3-2.2 2.1-6.3 2.1-6.3z"/>
      <path fill="#ffdb43" stroke="#ba9509" d="m48.5 86.3h22.3l2.6 2.7-2.6 2.7h-22.3l-2.6-2.7z"/>
      <path fill="#ffec93" d="m70.5 86.8l1.2 1.3h-24.1l1.2-1.3z"/>
      <path fill="#ecc21e" d="m71.7 89.9l-1.3 1.3h-21.7l-1.2-1.3z"/>
    </g>
    <use xlink:href="#fdl" x="-60.15" y="-84.5"/>
    <use xlink:href="#fdl" x="60.15" y="-84.5"/>
    <use xlink:href="#fdl" x="-60.15" y="84"/>
    <use xlink:href="#fdl" x="60.15" y="84"/>
  </pattern>
  <path fill="url(#pat)" d="m0,0h1200v800H0z"/>
  <g id="cover" stroke="#fff">
    <path stroke-width="20" d="m0,10h1200 m0,780H0"/>
    <path stroke-width="90" d="m0,148h34 m0,168.5h-34 m0,168.5h34 m0,168.5h-34"/>
    <path stroke-width="90" d="m1200,148h-34 m0,168.5h34 m0,168.5h-34 m0,168.5h34"/>
  </g>
</svg>
