<?xml version="1.0" encoding="UTF-8" standalone="no"?>
<!-- Created with Inkscape (http://www.inkscape.org/) -->

<svg
   xmlns:svg="http://www.w3.org/2000/svg"
   xmlns="http://www.w3.org/2000/svg"
   version="1.1"
   width="750"
   height="500"
   id="svg12523">
  <defs
     id="defs12525" />
  <rect
     width="750"
     height="166.66701"
     x="-3.3007814e-06"
     y="333.33301"
     id="rect14599"
     style="fill:#da121a;fill-opacity:1;stroke:none" />
  <rect
     width="750"
     height="166.66501"
     x="-3.3007814e-06"
     y="166.66779"
     id="rect14601"
     style="fill:#0f47af;fill-opacity:1;stroke:none" />
  <rect
     width="750"
     height="166.66501"
     x="-3.3007814e-06"
     y="4.0039063e-07"
     id="rect14603"
     style="fill:#fcdd09;fill-opacity:1;stroke:none" />
  <g
     transform="matrix(1.1218793,0,0,1.1218793,1.9040794,-10.155363)"
     id="g12687">
    <path
       d="m 48.281028,39.586799 10.870926,33.40167 35.1262,0.01479 L 65.87055,93.663858 76.708794,127.07617 48.281028,106.44338 19.853213,127.07617 30.691457,93.663858 2.2838525,73.003257 37.410053,72.988469 48.281028,39.586799 z"
       id="path14607"
       style="color:#000000;fill:#0f47af;fill-opacity:1;fill-rule:nonzero;stroke:none;stroke-width:0.1;marker:none;visibility:visible;display:inline;overflow:visible;filter:url(#filter3714-7);enable-background:accumulate" />
    <path
       d="m 143.04181,39.586799 10.87092,33.40167 35.1262,0.01479 -28.4076,20.660601 10.83824,33.41231 -28.42776,-20.63279 -28.42782,20.63279 10.83825,-33.41231 -28.407608,-20.660601 35.126198,-0.01479 10.87098,-33.40167 z"
       id="path14609"
       style="color:#000000;fill:#0f47af;fill-opacity:1;fill-rule:nonzero;stroke:none;stroke-width:0.1;marker:none;visibility:visible;display:inline;overflow:visible;filter:url(#filter3714-7);enable-background:accumulate" />
    <path
       d="m 237.80259,39.586799 10.87092,33.40167 35.1262,0.01479 -28.4076,20.660601 10.83824,33.41231 -28.42776,-20.63279 -28.42782,20.63279 10.83825,-33.41231 -28.40761,-20.660601 35.1262,-0.01479 10.87098,-33.40167 z"
       id="path14611"
       style="color:#000000;fill:#0f47af;fill-opacity:1;fill-rule:nonzero;stroke:none;stroke-width:0.1;marker:none;visibility:visible;display:inline;overflow:visible;filter:url(#filter3714-7);enable-background:accumulate" />
    <path
       d="m 332.56337,39.586799 10.87092,33.40167 35.1262,0.01479 -28.4076,20.660601 10.83824,33.41231 -28.42776,-20.63279 -28.42782,20.63279 10.83825,-33.41231 -28.40761,-20.660601 35.1262,-0.01479 10.87098,-33.40167 z"
       id="path14613"
       style="color:#000000;fill:#0f47af;fill-opacity:1;fill-rule:nonzero;stroke:none;stroke-width:0.1;marker:none;visibility:visible;display:inline;overflow:visible;filter:url(#filter3714-7);enable-background:accumulate" />
    <path
       d="m 427.32415,39.586799 10.87092,33.40167 35.1262,0.01479 -28.4076,20.660601 10.83824,33.41231 -28.42776,-20.63279 -28.42782,20.63279 10.83825,-33.41231 -28.40761,-20.660601 35.1262,-0.01479 10.87098,-33.40167 z"
       id="path14615"
       style="color:#000000;fill:#0f47af;fill-opacity:1;fill-rule:nonzero;stroke:none;stroke-width:0.1;marker:none;visibility:visible;display:inline;overflow:visible;filter:url(#filter3714-7);enable-background:accumulate" />
    <path
       d="m 522.08491,39.586799 10.87092,33.40167 35.1262,0.01479 -28.4076,20.660601 10.83824,33.41231 -28.42776,-20.63279 -28.42782,20.63279 10.83825,-33.41231 -28.40761,-20.660601 35.1262,-0.01479 10.87098,-33.40167 z"
       id="path14617"
       style="color:#000000;fill:#0f47af;fill-opacity:1;fill-rule:nonzero;stroke:none;stroke-width:0.1;marker:none;visibility:visible;display:inline;overflow:visible;filter:url(#filter3714-7);enable-background:accumulate" />
    <path
       d="m 616.84569,39.586799 10.87092,33.40167 35.1262,0.01479 -28.4076,20.660601 10.83824,33.41231 -28.42776,-20.63279 -28.42782,20.63279 10.83825,-33.41231 -28.40761,-20.660601 35.1262,-0.01479 10.87098,-33.40167 z"
       id="path14619"
       style="color:#000000;fill:#0f47af;fill-opacity:1;fill-rule:nonzero;stroke:none;stroke-width:0.1;marker:none;visibility:visible;display:inline;overflow:visible;filter:url(#filter3714-7);enable-background:accumulate" />
  </g>
</svg>
