<?xml version="1.0" encoding="UTF-8"?>
<!-- Created with Inkscape (http://www.inkscape.org/) -->
<svg id="svg2" width="800" height="400" version="1.1" xmlns="http://www.w3.org/2000/svg" xmlns:cc="http://creativecommons.org/ns#" xmlns:dc="http://purl.org/dc/elements/1.1/" xmlns:rdf="http://www.w3.org/1999/02/22-rdf-syntax-ns#">
 <metadata id="metadata7">
  <rdf:RDF>
   <cc:Work rdf:about="">
    <dc:format>image/svg+xml</dc:format>
    <dc:type rdf:resource="http://purl.org/dc/dcmitype/StillImage"/>
   </cc:Work>
  </rdf:RDF>
 </metadata>
 <g id="layer1" transform="translate(-468.214 -423.719)">
  <rect id="rect3809" x="468.214" y="423.719" width="800" height="400" ry="0" style="fill:#cc0000"/>
  <g id="text756-7" transform="matrix(1.37917 0 0 1.37917 474.079 413.646)" style="fill:#fcd116;stroke-width:.725075" aria-label="ССРГ">
   <path id="path1412" d="m50.3211 114.57q-6.23111 0-10.6495-2.4358-4.41843-2.49245-6.79758-7.19411-2.32251-4.70165-2.32251-11.3293v-42.145q0-6.62764 2.32251-11.3293 2.37915-4.70166 6.79758-7.13746 4.41842-2.49244 10.6495-2.49244 6.23111 0 10.6495 2.49244 4.47507 2.4358 6.79758 7.1941 2.32251 4.70166 2.32251 11.3293v6.62764h-14.2183v-6.62764q0-2.09592-0.623111-3.62538-0.623111-1.52946-1.92598-2.3225-1.24622-0.849698-3.00226-0.849698-1.6994 0-2.94562 0.793051-1.24622 0.793051-1.92598 2.32251-0.623111 1.52946-0.623111 3.62538v42.145q0 2.09592 0.623111 3.62538 0.679758 1.47281 1.92598 2.26586 1.24622 0.793049 2.94562 0.793049 1.81269 0 3.05891-0.793049 1.24622-0.793051 1.86933-2.26586 0.623111-1.52946 0.623111-3.68202v-6.62764h14.2183v6.62764q0 6.62764-2.32251 11.3859-2.32251 4.70166-6.79758 7.19411-4.41843 2.4358-10.6495 2.4358z"/>
   <path id="path1414" d="m96.5446 114.57q-6.23111 0-10.6495-2.4358-4.41842-2.49245-6.79758-7.19411-2.32251-4.70165-2.32251-11.3293v-42.145q0-6.62764 2.32251-11.3293 2.37915-4.70166 6.79758-7.13746 4.41843-2.49244 10.6495-2.49244t10.6495 2.49244q4.47507 2.4358 6.79757 7.1941 2.32251 4.70166 2.32251 11.3293v6.62764h-14.2183v-6.62764q0-2.09592-0.62311-3.62538-0.62311-1.52946-1.92598-2.3225-1.24622-0.849698-3.00226-0.849698-1.69939 0-2.94562 0.793051-1.24622 0.793051-1.92598 2.32251-0.623112 1.52946-0.623112 3.62538v42.145q0 2.09592 0.623112 3.62538 0.679758 1.47281 1.92598 2.26586 1.24622 0.793049 2.94562 0.793049 1.81269 0 3.05891-0.793049 1.24622-0.793051 1.86933-2.26586 0.62311-1.52946 0.62311-3.68202v-6.62764h14.2183v6.62764q0 6.62764-2.32251 11.3859-2.3225 4.70166-6.79757 7.19411-4.41843 2.4358-10.6495 2.4358z"/>
   <path id="path1416" d="m130.702 68.2895h14.5582q1.69939 0 2.94562-0.793051 1.24622-0.793051 1.92598-2.32251t0.67976-3.62538v-9.68655q0-2.20921-0.67976-3.79531-0.62311-1.5861-1.86934-2.37915-1.24622-0.849698-3.00226-0.849698h-14.5582v-13.4819h14.9547q6.11782 0 10.4796 2.15257 4.36178 2.15257 6.62764 6.34441 2.26586 4.13519 2.26586 9.96978v13.8784q0 5.7213-2.3225 9.79984-2.26586 4.0219-6.62764 6.17447-4.36178 2.09592-10.423 2.09592h-14.9547zm-6.57099-36.9335h14.0483v82.364h-14.0483z"/>
   <path id="path1418" d="m175.397 31.356h14.0483v82.364h-14.0483zm8.44032 0h22.4887v13.4819h-22.4887z"/>
  </g>
 </g>
</svg>
