<svg xmlns="http://www.w3.org/2000/svg" width="900" height="600" version="1"><path d="M 0,300 V 0 H 900 V 600 H 0 Z"/><path d="M 300,300 V 0 H 900 V 600 H 300 Z" fill="#be0000"/><path d="M 600,300 V 0 H 900 V 600 H 600 Z" fill="#009800"/><g transform="scale(1.5)"><path d="m 275.066,231.782 v 5.972 h 4.566 v -5.972 z m 9.464,0 v 5.972 h 4.07 v -5.972 z m 8.95,0 v 5.972 h 4.068 v -5.972 h -4.069 z m 8.966,0 v 5.972 h 4.07 v -5.972 z m 8.968,0 v 5.972 h 4.069 v -5.972 h -4.07 z m 8.949,0 v 5.972 h 4.584 v -5.972 z m -40.455,6.208 v 3.84 h 4.088 v -3.84 z m 9.097,0 v 3.84 h 4.069 v -3.84 h -4.07 z m 8.967,0 v 3.84 h 4.07 v -3.84 z m 8.949,0 v 3.84 h 4.07 v -3.84 z m 9.096,0 v 3.84 h 4.07 v -3.84 z m -31.56,4.472 v 3.84 h 4.069 v -3.84 h -4.07 z m 9.022,0 v 3.84 h 4.07 v -3.84 z m 8.967,0 v 3.84 h 4.07 v -3.84 z m 9.023,0 v 3.84 h 4.07 v -3.84 z" fill="#fff"/><path d="m 342.417,155.999 c 1.663,0 3.001,1.911 3.001,4.287 0,1.832 -0.804,3.403 -1.933,4.025 l -1.51,6.47 c 6.535,4.923 11.582,13.35 11.582,23.964 0,5.344 -1.384,9.643 -2.67,12.89 -1.428,2.874 -3.335,5.276 -4.714,8.733 -1.416,3.55 -1.253,7.937 -3.94,10.416 -1.4,-0.911 -3.057,-3.298 -3.057,-7.023 0,-4.865 2.063,-10.093 2.063,-14.1 0,-3.477 -1.698,-10.066 -4.346,-13.204 l -8.047,34.327 -3.02,-4.077 13.774,-60.895 a 5.976,5.976 0 0 1 -0.203,-1.526 c 0,-2.376 1.357,-4.287 3.02,-4.287 z m -84.834,0 c -1.663,0 -3.001,1.911 -3.001,4.287 0,1.832 0.804,3.403 1.933,4.025 l 1.51,6.47 c -6.535,4.923 -11.582,13.35 -11.582,23.964 0,5.344 1.384,9.643 2.67,12.89 1.428,2.874 3.335,5.276 4.714,8.733 1.416,3.55 1.253,7.937 3.94,10.416 1.4,-0.911 3.057,-3.298 3.057,-7.023 0,-4.865 -2.062,-10.093 -2.062,-14.1 0,-3.477 1.697,-10.066 4.345,-13.204 l 8.047,34.327 3.02,-4.077 -13.774,-60.895 c 0.126,-0.474 0.203,-0.99 0.203,-1.526 0,-2.376 -1.357,-4.287 -3.02,-4.287 z" fill="#fff"/><path d="m 283.15,186.117 c -2.47,0 -4.457,2.838 -4.457,6.366 v 5.472 h -2.283 v 5.655 h 5.23 v -1.815 h 14.988 v 1.815 h 26.975 v -5.655 h -2.283 v -5.472 c 0,-3.528 -2.004,-6.366 -4.474,-6.366 h -33.697 z m 1.14,4.288 c 1.286,0 2.34,1.505 2.34,3.34 0,1.836 -1.054,3.315 -2.34,3.315 -1.284,0 -2.32,-1.479 -2.32,-3.314 0,-1.836 1.036,-3.34 2.32,-3.34 z m 5.433,0 c 1.285,0 2.32,1.505 2.32,3.34 0,1.836 -1.035,3.315 -2.32,3.315 -1.285,0 -2.339,-1.479 -2.339,-3.314 0,-1.836 1.054,-3.34 2.339,-3.34 z m 5.413,0 c 1.285,0 2.339,1.505 2.339,3.34 0,1.836 -1.054,3.315 -2.339,3.315 -1.285,0 -2.32,-1.479 -2.32,-3.314 0,-1.836 1.035,-3.34 2.32,-3.34 z m 9.667,0 c 1.285,0 2.339,1.505 2.339,3.34 0,1.836 -1.054,3.315 -2.339,3.315 -1.285,0 -2.32,-1.479 -2.32,-3.314 0,-1.836 1.035,-3.34 2.32,-3.34 z m 5.432,0 c 1.285,0 2.32,1.505 2.32,3.34 0,1.836 -1.035,3.315 -2.32,3.315 -1.285,0 -2.338,-1.479 -2.338,-3.314 0,-1.836 1.053,-3.34 2.338,-3.34 z m 5.414,0 c 1.285,0 2.338,1.505 2.338,3.34 0,1.836 -1.053,3.315 -2.338,3.315 -1.285,0 -2.32,-1.479 -2.32,-3.314 0,-1.836 1.035,-3.34 2.32,-3.34 z" fill="#fff"/><g transform="matrix(0.58923,0,0,0.84175,503.612,-282.738)" fill="#fff" stroke="#be0000" stroke-width=".762" stroke-linecap="square" stroke-linejoin="round" stroke-dashoffset="3.2"><rect ry="0" rx="0" y="520.45" x="-396.448" height="103.388" width="12.053"/><rect width="12.053" height="103.388" x="-306.721" y="520.45" rx="0" ry="0"/></g><path d="m 301.507,207.135 c -0.587,0 -1.05,0.687 -1.05,1.526 v 23.121 h 2.008 v -16.677 h 0.663 v 16.677 h 1.565 v -15.704 l 11.048,15.704 h 2.32 l -11.73,-16.677 h 1.326 l 11.711,16.677 h 2.836 v -4.235 h -2.265 v -3.314 h -2.283 v -3.288 h -2.265 v -3.288 h -2.283 v -3.315 h -2.284 v -3.288 h -2.338 v -2.393 c 0,-0.84 -0.48,-1.526 -1.068,-1.526 h -5.91 z m -15.357,47.927 c -0.816,0.091 -1.446,1.404 -0.883,2.473 4.375,8.308 13.777,14.478 19.83,12.31 0.29,1.106 0.646,2.302 1.198,3.42 0.917,1.858 2.486,3.393 4.732,3.393 3.227,0 5.427,-4.874 4.474,-9.759 -0.13,-0.677 -0.577,-1.129 -1.068,-1.078 -3.1,0.327 -5.588,0.322 -8.82,0 -6.858,-0.684 -12.955,-5.506 -18.579,-10.417 -0.305,-0.267 -0.611,-0.372 -0.883,-0.342 z m 27.418,13.757 c 0.174,2.788 -0.975,4.893 -2.541,4.893 -1.666,0 -2.418,-0.837 -3.057,-2.13 -0.379,-0.768 -0.655,-1.734 -0.92,-2.736 2.213,0.139 4.306,0.152 6.518,-0.027 z" fill="#fff"/><path d="m 314.626,255.062 c 0.817,0.091 1.447,1.404 0.884,2.473 -4.375,8.308 -13.777,14.478 -19.83,12.31 -0.29,1.106 -0.646,2.302 -1.198,3.42 -0.917,1.858 -2.486,3.393 -4.732,3.393 -3.228,0 -5.427,-4.874 -4.474,-9.759 0.13,-0.677 0.577,-1.129 1.068,-1.078 3.1,0.327 5.588,0.322 8.82,0 6.858,-0.684 12.955,-5.506 18.579,-10.417 0.305,-0.267 0.611,-0.372 0.883,-0.342 z M 287.21,268.82 c -0.174,2.788 0.975,4.893 2.541,4.893 1.666,0 2.418,-0.837 3.057,-2.13 0.379,-0.768 0.655,-1.734 0.92,-2.736 -2.213,0.139 -4.306,0.152 -6.518,-0.027 z" fill="#fff"/><path d="m -390.422,495.344 c -2.553,0 -7.906,9.107 -7.906,13.469 0,4.361 3.545,7.875 7.906,7.875 4.362,0 7.906,-3.514 7.906,-7.875 0,-4.362 -5.285,-13.47 -7.906,-13.47 z m -6.468,22.5 c -0.557,0 -1,0.443 -1,1 v 4.218 c 0,0.557 0.443,1 1,1 h 12.937 c 0.556,0 1,-0.443 1,-1 v -4.218 c 0,-0.557 -0.444,-1 -1,-1 h -12.938 z m 1.03,26.906 c -0.853,0 -1.562,0.71 -1.562,1.563 v 1.125 c 0,0.853 0.71,1.53 1.563,1.53 h 10.906 c 0.853,0 1.531,-0.677 1.531,-1.53 v -1.125 c 0,-0.854 -0.678,-1.563 -1.531,-1.563 h -10.906 z m 0.313,26.188 c -0.853,0 -1.531,0.678 -1.531,1.53 v 3.095 c 0,0.853 0.678,1.53 1.531,1.53 h 10.25 c 0.853,0 1.531,-0.677 1.531,-1.53 v -3.094 c 0,-0.853 -0.678,-1.532 -1.53,-1.532 h -10.25 z" transform="matrix(0.58923,0,0,0.84175,503.612,-282.738)" fill="#fff" stroke="#be0000" stroke-width=".762" stroke-linecap="square" stroke-linejoin="round" stroke-dashoffset="3.2"/><path d="m 267.809,242.717 -4.125,9.246 h 72.532 l -4.124,-9.246 -8.157,3.191 H 276.17 l -8.362,-3.19 z" fill="#fff"/><path d="m -396.813,616.688 c -2.668,3.906 -3.847,7.812 -4.75,11.718 h 22.282 c -0.984,-3.997 -2.919,-7.9 -5.688,-11.718 z m 96.119,-121.344 c -2.554,0 -7.907,9.107 -7.907,13.469 0,4.361 3.545,7.875 7.907,7.875 4.361,0 7.906,-3.514 7.906,-7.875 0,-4.362 -5.286,-13.47 -7.906,-13.47 z m -6.469,22.5 c -0.557,0 -1,0.443 -1,1 v 4.218 c 0,0.557 0.443,1 1,1 h 12.937 c 0.557,0 1,-0.443 1,-1 v -4.218 c 0,-0.557 -0.443,-1 -1,-1 z m 1.031,26.906 c -0.853,0 -1.562,0.71 -1.562,1.563 v 1.125 c 0,0.853 0.709,1.53 1.562,1.53 h 10.906 c 0.854,0 1.532,-0.677 1.532,-1.53 v -1.125 c 0,-0.854 -0.678,-1.563 -1.532,-1.563 z m 0.312,26.188 c -0.853,0 -1.53,0.678 -1.53,1.53 v 3.095 c 0,0.853 0.677,1.53 1.53,1.53 h 10.25 c 0.854,0 1.532,-0.677 1.532,-1.53 v -3.094 c 0,-0.853 -0.678,-1.532 -1.531,-1.532 h -10.25 z m -1.265,45.75 c -2.669,3.906 -3.847,7.812 -4.75,11.718 h 22.281 c -0.983,-3.997 -2.918,-7.9 -5.687,-11.718 z m -38.473,-96.625 c -0.75,1.753 -3.211,4.38 -6.469,6.75 -3.213,2.336 -7.208,4.413 -9.594,5.062 -11.065,3.01 -18.625,9.036 -18.625,15.969 0,4.096 2.653,7.881 7.094,10.906 h 55.188 c 4.441,-3.025 7.093,-6.81 7.093,-10.906 0,-6.933 -7.559,-12.958 -18.625,-15.969 -2.385,-0.649 -6.38,-2.726 -9.593,-5.063 -3.258,-2.37 -5.72,-4.996 -6.47,-6.75 z" transform="matrix(0.58923,0,0,0.84175,503.612,-282.738)" fill="#fff" stroke="#be0000" stroke-width=".762" stroke-linecap="square" stroke-linejoin="round" stroke-dashoffset="3.2"/><path d="m -378.235,572.01 h 65.354" transform="matrix(0.58923,0,0,0.84175,503.612,-282.738)" fill="#fd5" stroke="#be0000" stroke-width=".762" stroke-linecap="round" stroke-linejoin="round" stroke-dashoffset="3.2"/><path d="m 281.64,201.795 v 29.987 h 2.688 v -15.835 c 0,-3.84 2.139,-6.944 4.806,-6.944 2.666,0 4.805,3.103 4.805,6.944 v 15.835 h 2.689 v -29.987 h -14.989 z m 2.025,1.342 h 2.725 v 5.076 h -2.725 z m 4.106,0 h 2.725 v 5.076 h -2.725 z m 4.106,0 h 2.725 v 5.076 h -2.725 z" fill="#fff"/><path d="m -376.719,577.781 v -2.156 h 25.438 v 2.156" transform="matrix(0.58923,0,0,0.84175,503.612,-282.738)" fill="none" stroke="#be0000" stroke-width=".762" stroke-linecap="round" stroke-linejoin="round" stroke-dashoffset="3.2"/><path d="m 300,75 -3.204,4.577 1.51,38.247 c 0.567,-0.024 1.123,-0.053 1.694,-0.053 0.571,0 1.127,0.03 1.694,0.053 l 1.51,-38.247 z m -6.113,8.733 -5.23,7.47 3.278,27.41 a 41.225,41.225 0 0 1 3.314,-0.526 z m 12.226,0 -1.362,34.354 c 1.137,0.133 2.27,0.3 3.388,0.526 l 3.24,-27.357 z m -20.143,11.364 -4.309,6.102 3.867,19.15 c 1.085,-0.4 2.206,-0.688 3.315,-1 z m 28.062,0 -2.91,24.253 c 1.11,0.31 2.23,0.6 3.315,1 l 3.867,-19.15 z m -34.838,9.68 -3.646,5.208 3.867,13.258 c 1.05,-0.576 2.089,-1.142 3.167,-1.631 z m 41.614,0 -3.388,16.835 a 46.773,46.773 0 0 1 3.204,1.63 l 3.83,-13.257 z m -82.676,6.84 v 6.47 l 19.997,25.516 a 75.951,75.951 0 0 1 2.394,-3.42 l -17.861,-28.567 h -4.53 z m 8.618,0 16.056,25.673 a 66.786,66.786 0 0 1 2.652,-3 l -11.27,-22.674 h -7.438 z m 11.232,0 9.98,20.096 a 59.962,59.962 0 0 1 2.872,-2.578 l -6.776,-17.519 h -6.076 z m 9.575,0 5.966,15.414 a 52.77,52.77 0 0 1 3.056,-2.105 l -3.867,-13.31 h -5.155 z m 59.733,0 -3.867,13.31 a 52.771,52.771 0 0 1 3.056,2.104 l 5.966,-15.415 h -5.155 z m 8.69,0 -6.775,17.518 c 0.97,0.819 1.94,1.682 2.872,2.578 l 9.98,-20.097 h -6.076 z m 9.796,0 -11.232,22.621 c 0.91,0.978 1.784,2 2.652,3.052 l 16.056,-25.674 h -7.476 z m 11.564,0 -17.86,28.566 a 75.95,75.95 0 0 1 2.393,3.42 l 19.997,-25.516 v -6.47 z m 4.53,12.415 -17.935,22.885 a 84.563,84.563 0 0 1 2.1,3.788 l 15.835,-16.046 z m -123.738,0.053 v 10.574 l 15.836,16.046 a 84.699,84.699 0 0 1 2.062,-3.735 z m 0,15.94 v 8.68 l 12.264,9.628 c 0.569,-1.379 1.144,-2.777 1.767,-4.103 l -14.03,-14.205 z m 123.738,0 -14.031,14.205 a 94.388,94.388 0 0 1 1.804,4.156 l 12.227,-9.68 v -8.68 z m -123.74,13.679 v 7.312 l 9.317,5.524 a 101.41,101.41 0 0 1 1.437,-4.314 z m 123.738,0 -10.754,8.47 c 0.517,1.42 0.977,2.899 1.437,4.366 l 9.317,-5.524 z m -124.916,11.363 -3.646,5.209 11.821,4.892 a 105.59,105.59 0 0 1 1.142,-4.577 z m 126.094,0 -9.317,5.524 c 0.407,1.515 0.797,3.02 1.142,4.577 l 11.821,-4.892 z m -132.244,8.786 -4.272,6.103 17.014,4.156 c 0.217,-1.584 0.42,-3.185 0.7,-4.735 z m 138.394,0 -13.442,5.524 c 0.28,1.55 0.483,3.15 0.7,4.735 l 17.014,-4.156 z m -145.354,9.943 -5.267,7.523 24.085,1.894 c 0.092,-1.607 0.212,-3.207 0.368,-4.787 z m 152.314,0 -19.186,4.63 c 0.157,1.597 0.276,3.215 0.368,4.84 l 24.085,-1.947 z m 8.14,11.627 -26.774,2.157 c 0.017,0.81 0.037,1.604 0.037,2.42 0,0.816 -0.02,1.61 -0.037,2.42 l 26.773,2.157 L 387.5,200 Z m -168.63,0.053 -3.166,4.524 3.24,4.63 26.737,-2.157 c -0.017,-0.828 -0.037,-1.64 -0.037,-2.473 0,-0.798 0.021,-1.575 0.037,-2.367 l -26.81,-2.157 z m 26.994,11.31 -24.048,1.947 5.266,7.523 19.15,-4.63 a 116.914,116.914 0 0 1 -0.368,-4.84 z m 114.678,0.053 a 116.858,116.858 0 0 1 -0.368,4.788 l 19.15,4.63 5.266,-7.524 z m -113.794,9.102 -17.014,4.103 4.309,6.155 13.441,-5.523 a 113.28,113.28 0 0 1 -0.736,-4.735 z m 112.91,0 c -0.218,1.588 -0.455,3.18 -0.736,4.735 l 13.441,5.523 4.31,-6.155 z m -111.327,8.943 -11.784,4.893 3.646,5.208 9.28,-5.524 c -0.408,-1.515 -0.796,-3.02 -1.142,-4.577 z m 109.744,0 a 105.672,105.672 0 0 1 -1.142,4.577 l 9.317,5.472 3.61,-5.156 z m -107.424,8.628 -9.317,5.524 v 7.313 l 10.79,-8.47 c -0.52,-1.428 -1.01,-2.891 -1.473,-4.367 z m 105.104,0 a 100.647,100.647 0 0 1 -1.473,4.314 l 10.79,8.523 v -7.313 z m -102.194,8.155 -12.227,9.68 v 8.68 L 252.2,245.77 c -0.634,-1.35 -1.263,-2.698 -1.841,-4.103 z m 99.247,0.052 a 92.83,92.83 0 0 1 -1.804,4.104 l 14.068,14.204 v -8.68 z m -95.638,7.629 -15.836,16.046 v 10.627 l 17.935,-22.885 a 84.64,84.64 0 0 1 -2.1,-3.788 z m 92.066,0 a 84.035,84.035 0 0 1 -2.099,3.735 l 17.935,22.885 v -10.574 z m -87.905,7.102 -19.997,25.515 v 6.419 h 4.567 l 17.824,-28.514 a 76,76 0 0 1 -2.394,-3.42 z m 83.707,0 a 75.936,75.936 0 0 1 -2.357,3.367 l 17.824,28.567 h 4.567 v -6.419 z m -79.03,6.313 -16.02,25.62 h 7.44 l 11.232,-22.569 a 67.652,67.652 0 0 1 -2.652,-3.051 z m 74.39,0 a 67.04,67.04 0 0 1 -2.652,2.999 l 11.232,22.622 h 7.44 z m -69.271,5.577 -9.943,20.044 h 6.076 l 6.776,-17.52 c -0.978,-0.824 -1.97,-1.62 -2.909,-2.524 z m 64.115,0 c -0.931,0.894 -1.903,1.707 -2.872,2.525 l 6.776,17.519 h 6.076 z m -58.517,4.682 -5.966,15.362 h 5.155 l 3.867,-13.258 a 52.728,52.728 0 0 1 -3.056,-2.104 z m 52.956,0 a 52.73,52.73 0 0 1 -3.056,2.104 l 3.867,13.258 h 5.155 z m -47.1,3.788 -3.83,13.257 3.645,5.209 3.388,-16.835 a 46.735,46.735 0 0 1 -3.204,-1.631 z m 41.208,0 c -1.05,0.576 -2.089,1.141 -3.167,1.63 l 3.388,16.836 3.646,-5.209 z m -35.022,2.893 -3.867,19.15 4.272,6.103 2.91,-24.253 c -1.11,-0.311 -2.23,-0.6 -3.315,-1 z m 28.835,0 c -1.062,0.391 -2.155,0.695 -3.24,1 l 2.872,24.253 4.309,-6.155 -3.867,-19.098 c -0.023,0.009 -0.05,-0.008 -0.074,0 z m -22.538,1.736 -3.24,27.305 5.266,7.523 1.362,-34.302 a 41.16,41.16 0 0 1 -3.388,-0.526 z m 16.204,0 c -1.094,0.22 -2.201,0.396 -3.314,0.526 l 1.362,34.302 5.23,-7.47 z m -9.759,0.79 -1.51,38.194 3.205,4.577 3.204,-4.577 -1.51,-38.194 c -0.567,0.023 -1.123,0.052 -1.694,0.052 -0.57,0 -1.127,-0.029 -1.694,-0.052 z m 0.958,-161.128 a 5.167,5.167 0 0 0 -0.746,0.025 c -1.81,1.937 -2.06,8.174 -1.651,12.377 -1.28,-0.105 -2.597,-0.304 -3.853,-0.304 -1.591,0 -3.275,2.48 -3.338,4.718 -0.085,3.075 1.85,6.816 2.166,9.764 0.085,0.787 0.114,1.796 0.16,2.841 0.707,-1.275 1.554,-2.617 2.468,-3.652 0.484,-0.548 1.195,-0.761 1.97,-1.04 0.777,-0.28 1.594,-0.545 2.078,-0.837 0.214,-0.129 0.765,-0.686 1.403,-1.446 0.637,-0.76 1.395,-1.73 2.166,-2.764 a 194.954,194.954 0 0 0 4.047,-5.682 0.437,0.437 0 0 1 0.267,-0.203 c 0.195,-0.037 0.394,0.1 0.48,0.356 a 0.88,0.88 0 0 1 -0.107,0.76 194.915,194.915 0 0 1 -4.066,5.707 63.684,63.684 0 0 1 -2.202,2.815 c -0.66,0.787 -1.181,1.377 -1.633,1.649 -0.622,0.374 -1.457,0.639 -2.22,0.913 -0.761,0.274 -1.47,0.622 -1.615,0.786 -1.092,1.237 -2.156,3.043 -2.912,4.54 0.162,1.673 0.5,3.139 1.368,3.551 1.377,0.655 4.876,-3.145 7.03,-3.145 2.314,0 5.18,3.091 5.966,1.8 1.321,-2.172 -0.105,-9.178 0.266,-13.264 0.121,-1.341 0.867,-2.146 1.136,-4.21 0.482,-3.695 -3.12,-5.124 -4.296,-5.124 -0.694,0 -1.793,0.482 -2.93,0.913 -0.487,-3.663 0.244,-6.915 1.935,-9.029 -0.544,-1.846 -1.681,-2.776 -3.337,-2.815 z m -3.818,14.508 c 1.77,0 3.214,2.061 3.214,4.59 0,2.53 -1.443,4.591 -3.214,4.591 -1.77,0 -3.213,-2.062 -3.213,-4.59 0,-2.53 1.443,-4.591 3.213,-4.591 z" fill="#fff"/></g></svg>