<?xml version="1.0" encoding="UTF-8" standalone="no"?>
<svg
   width="1235"
   height="650"
   version="1.1"
   id="svg12"
   xml:space="preserve"
   sodipodi:docname="Flag_of_the_United_States_(1777–1795).svg"
   inkscape:version="1.4.2 (f4327f4, 2025-05-13)"
   xmlns:inkscape="http://www.inkscape.org/namespaces/inkscape"
   xmlns:sodipodi="http://sodipodi.sourceforge.net/DTD/sodipodi-0.dtd"
   xmlns:xlink="http://www.w3.org/1999/xlink"
   xmlns="http://www.w3.org/2000/svg"
   xmlns:svg="http://www.w3.org/2000/svg"><sodipodi:namedview
     id="namedview1"
     pagecolor="#ffffff"
     bordercolor="#000000"
     borderopacity="0.25"
     inkscape:showpageshadow="2"
     inkscape:pageopacity="0.0"
     inkscape:pagecheckerboard="0"
     inkscape:deskcolor="#d1d1d1"
     showgrid="false"
     inkscape:zoom="0.53522267"
     inkscape:cx="617.5"
     inkscape:cy="324.16415"
     inkscape:window-width="1920"
     inkscape:window-height="1094"
     inkscape:window-x="-11"
     inkscape:window-y="-11"
     inkscape:window-maximized="1"
     inkscape:current-layer="svg12" /><defs
     id="defs11"><g
       id="s7"><g
         id="s6"><use
           xlink:href="#s"
           x="49"
           y="43.75"
           id="use1" /><use
           xlink:href="#s"
           x="115"
           y="43.75"
           id="use2" /><use
           xlink:href="#s"
           x="181"
           y="43.75"
           id="use3" /><use
           xlink:href="#s"
           x="247"
           y="43.75"
           id="use4" /><use
           xlink:href="#s"
           x="313"
           y="43.75"
           id="use5" /><use
           xlink:href="#s"
           x="379"
           y="43.75"
           id="use6" /></g><use
         xlink:href="#s"
         x="445"
         y="43.75"
         id="use7" /></g><g
       id="u"><use
         xlink:href="#s7"
         id="use8" /><use
         xlink:href="#s6"
         x="33"
         y="87.5"
         id="use9" /><use
         xlink:href="#s7"
         y="175"
         id="use10" /><use
         xlink:href="#s7"
         y="262.5"
         id="use11" /></g><style
       id="style1">.cls-4{fill:#fff}</style><path
       id="s"
       transform="scale(20)"
       fill="#fff"
       d="M0-1 .588.809-.952-.309H.952L-.588.809z" /></defs><path
     fill="#bf0a30"
     id="rect11"
     d="M0 0h1235v650H0z" /><path
     stroke="#FFF"
     stroke-width="50"
     d="M0 75h1235M0 175h1235M0 275h1235M0 375h1235M0 475h1235M0 575h1235"
     id="path11" /><path
     fill="#002868"
     id="rect12"
     d="M0 0h494v350H0z"
     style="fill:#00205b;fill-opacity:1" /><path
     id="s-43"
     class="cls-4"
     d="m78.785 22.36 16.25 50-42.53-30.9h52.48l-42.44 30.9z" /><path
     id="s-2"
     class="cls-4"
     d="m78.785 147.36 16.25 50-42.53-30.9h52.48l-42.44 30.9z" /><path
     id="s-3"
     class="cls-4"
     d="m78.785 272.36 16.25 50-42.53-30.9h52.48l-42.44 30.9z" /><path
     id="s-4"
     class="cls-4"
     d="m162.905 84.86 16.23 50-42.52-30.9h52.52l-42.54 30.9z" /><path
     id="s-5"
     class="cls-4"
     d="m162.905 209.86 16.23 50-42.52-30.9h52.52l-42.54 30.9z" /><path
     id="s-7"
     class="cls-4"
     d="m246.985 147.36 16.25 50-42.51-30.9h52.52l-42.54 30.9z" /><path
     id="s-7-2"
     data-name="s-7"
     class="cls-4"
     d="m246.985 22.36 16.25 50-42.51-30.9h52.52l-42.54 30.9z" /><path
     id="s-8"
     class="cls-4"
     d="m246.985 272.36 16.25 50-42.51-30.9h52.52l-42.54 30.9z" /><path
     id="s-9"
     class="cls-4"
     d="m331.125 84.86 16.25 50-42.53-30.9h52.51l-42.52 30.9z" /><path
     id="s-10"
     class="cls-4"
     d="m331.125 209.86 16.25 50-42.53-30.9h52.51l-42.52 30.9z" /><path
     id="s-11"
     class="cls-4"
     d="m415.235 22.36 16.24 50-42.49-30.9h52.51l-42.51 30.9z" /><path
     id="s-12"
     class="cls-4"
     d="m415.235 147.36 16.24 50-42.49-30.9h52.51l-42.51 30.9z" /><path
     id="s-13"
     class="cls-4"
     d="m415.235 272.36 16.24 50-42.49-30.9h52.51l-42.51 30.9z" /></svg>
