<?xml version="1.0" encoding="UTF-8"?>
<!-- Creator: CorelDRAW -->
<svg id="svg2449" width="900" height="600" fill-rule="evenodd" version="1.0" viewBox="0 0 900 600" xml:space="preserve" xmlns="http://www.w3.org/2000/svg" xmlns:cc="http://creativecommons.org/ns#" xmlns:dc="http://purl.org/dc/elements/1.1/" xmlns:rdf="http://www.w3.org/1999/02/22-rdf-syntax-ns#"><metadata id="metadata1"><rdf:RDF><cc:Work rdf:about=""><dc:format>image/svg+xml</dc:format><dc:type rdf:resource="http://purl.org/dc/dcmitype/StillImage"/></cc:Work></rdf:RDF></metadata>
 <defs id="defs1">
  <style id="style1" type="text/css">
   
    .fil1 {fill:#89c5e3}
    .fil0 {fill:#FFFFFF}
   
  </style>
  
 </defs>
 
 
<path id="rect2" class="fil0" d="m900 0h-900v600h900z" fill="#ffffff"/><rect id="rect1" class="fil1" x="300" width="300" height="600"/><g id="estrella" class="fil0" stroke-width="7.5"><path id="path684" d="m450 150 14.0625 43.125h42.1875l-34.6875 24.375 14.0625 42.1875-35.625-26.25-35.625 26.25 14.0625-42.1875-34.6875-24.375h42.1875z"/><path id="path684-9" d="m375 300 14.0625 43.125h42.1875l-34.6875 24.375 14.0625 42.1875-35.625-26.25-35.625 26.25 14.0625-42.1875-34.6875-24.375h42.1875z" fill-rule="evenodd"/><path id="path684-9-6" d="m525 300 14.0625 43.125h42.1875l-34.6875 24.375 14.0625 42.1875-35.625-26.25-35.625 26.25 14.0625-42.1875-34.6875-24.375h42.1875z" fill-rule="evenodd"/></g></svg>
