<?xml version="1.0" standalone="no"?>
<svg xmlns="http://www.w3.org/2000/svg" width="600" height="400" viewBox="0 0 18 12">
<path d="M0,0h18v12H0z" fill="#d21034"/>
<circle cx="9.18" cy="6" r="2" fill="#fff"/>
<circle cx="8.43" cy="6" r="2" fill="#d21034"/>
<g transform="scale(0.03)">
<path d="M0,0h62v400H0z" fill="#fff"/>
<path d="M0,4V0h62v35zM0,35l62,31v35L0,70zM0,101l62,31v35L0,136zM0,167l62,31v35L0,202zM0,233l62,31v35L0,268zM0,299l62,31v35L0,334zM0,365l62,31v4H0z" fill="#000"/>
</g>
</svg>