<svg xmlns="http://www.w3.org/2000/svg" xmlns:xlink="http://www.w3.org/1999/xlink" width="1235" height="650" viewBox="0 0 36.1 19"><defs><g id="b"><use xlink:href="#a" x=".902" y=".85"/><use xlink:href="#a" x="2.708" y=".85"/><use xlink:href="#a" x="4.513" y=".85"/><use xlink:href="#a" x="6.317" y=".85"/><use xlink:href="#a" x="8.123" y=".85"/><use xlink:href="#a" x="9.928" y=".85"/><use xlink:href="#a" x="11.732" y=".85"/><use xlink:href="#a" x="13.537" y=".85"/></g><g id="c"><use xlink:href="#b"/><use xlink:href="#b" y="1.705"/><use xlink:href="#b" y="3.41"/><use xlink:href="#b" y="5.115"/><use xlink:href="#b" y="6.82"/><use xlink:href="#b" y="8.525"/></g><path id="a" transform="scale(.58515)" fill="#fff" d="M0-1 .588.809-.952-.309H.952L-.588.809z"/></defs><path fill="#bf0a30" d="M0 0h36.1v19H0z"/><path stroke="#FFF" stroke-width="1.462" d="M0 2.192h36.1M0 5.115h36.1M0 8.038h36.1M0 10.961h36.1M0 13.884h36.1M0 16.807h36.1"/><path fill="#00205B" d="M0 0h14.44v10.23H0z"/><use xlink:href="#c"/></svg>