<?xml version="1.0" encoding="utf-8"?>
<!-- Generator: Adobe Illustrator 22.1.0, SVG Export Plug-In . SVG Version: 6.00 Build 0)  -->
<svg version="1.1"
	 id="svg2" inkscape:output_extension="org.inkscape.output.svg.inkscape" inkscape:version="0.46" sodipodi:docname="Flag of Qatar (1936-1949).svg" sodipodi:version="0.32" xmlns:cc="http://creativecommons.org/ns#" xmlns:dc="http://purl.org/dc/elements/1.1/" xmlns:inkscape="http://www.inkscape.org/namespaces/inkscape" xmlns:rdf="http://www.w3.org/1999/02/22-rdf-syntax-ns#" xmlns:sodipodi="http://sodipodi.sourceforge.net/DTD/sodipodi-0.dtd" xmlns:svg="http://www.w3.org/2000/svg"
	 xmlns="http://www.w3.org/2000/svg" xmlns:xlink="http://www.w3.org/1999/xlink" x="0px" y="0px" width="750px" height="280.1px"
	 viewBox="0 0 750 280.1" style="enable-background:new 0 0 750 280.1;" xml:space="preserve">
<style type="text/css">
	.st0{fill:#70193D;}
	.st1{fill:#FFFFFF;}
</style>
<defs>
	
	
		<inkscape:perspective  id="perspective15" inkscape:persp3d-origin="378 : 99 : 1" inkscape:vp_x="0 : 148.5 : 1" inkscape:vp_y="0 : 1000 : 0" inkscape:vp_z="756 : 148.5 : 1" sodipodi:type="inkscape:persp3d">
		</inkscape:perspective>
	
		<inkscape:perspective  id="perspective2395" inkscape:persp3d-origin="372.04724 : 350.78739 : 1" inkscape:vp_x="0 : 526.18109 : 1" inkscape:vp_y="0 : 1000 : 0" inkscape:vp_z="744.09448 : 526.18109 : 1" sodipodi:type="inkscape:persp3d">
		</inkscape:perspective>
	
		<inkscape:perspective  id="perspective3189" inkscape:persp3d-origin="372.04724 : 350.78739 : 1" inkscape:vp_x="0 : 526.18109 : 1" inkscape:vp_y="0 : 1000 : 0" inkscape:vp_z="744.09448 : 526.18109 : 1" sodipodi:type="inkscape:persp3d">
		</inkscape:perspective>
	
		<inkscape:perspective  id="perspective3214" inkscape:persp3d-origin="372.04724 : 350.78739 : 1" inkscape:vp_x="0 : 526.18109 : 1" inkscape:vp_y="0 : 1000 : 0" inkscape:vp_z="744.09448 : 526.18109 : 1" sodipodi:type="inkscape:persp3d">
		</inkscape:perspective>
</defs>
<sodipodi:namedview  bordercolor="#666666" borderopacity="1.0" gridtolerance="10.0" guidetolerance="10.0" id="base" inkscape:current-layer="svg2" inkscape:cx="411.80645" inkscape:cy="102.52414" inkscape:pageopacity="0.0" inkscape:pageshadow="2" inkscape:window-height="750" inkscape:window-width="1280" inkscape:window-x="-8" inkscape:window-y="-8" inkscape:zoom="0.5" objecttolerance="10.0" pagecolor="#ffffff" showgrid="false">
	</sodipodi:namedview>
<desc  id="desc4">Flag of Qatar</desc>
<rect id="rect6" class="st0" width="750" height="280.1"/>
<path id="rect2401" sodipodi:nodetypes="cccccccccccccccccccccccc" class="st1" d="M750,280.1H560l-60-14l60-14l-60-14.1l60-14.1
	l-60-14l60-14.1L500,182l60-14.1l-60-14.1l60-14l-60-14.1l60-14.1l-60-14.1l60-14l-60-14.1L560,56l-60-14L560,28l-60-14L560,0h190
	V280.1z"/>
<path id="path3174" class="st0" d="M563,14.1l17,7l17-7l-17-7L563,14.1z M563,42.1l17,7l17-7l-17-7L563,42.1z M563,70.1l17,7l17-7
	l-17-7L563,70.1z M563,98.1l17,7l17-7l-17-7L563,98.1z M563,126.1l17,7l17-7l-17-7L563,126.1z M563,154.1l17,7l17-7l-17-7L563,154.1
	z M563,182.1l17,7l17-7l-17-7L563,182.1z M563,210.1l17,7l17-7l-17-7L563,210.1z M563,238.1l17,7l17-7l-17-7L563,238.1z M563,266.1
	l17,7l17-7l-17-7L563,266.1z"/>
<g id="g3249">
	<path id="path3195" sodipodi:nodetypes="csssscccscccccssscccssssssssssssscccssssscccsccssscccc" class="st1" d="M180.9,181.1
		c7.4-2.4,17.3-7.7,27.3-14.7l8.6-6l7.7,1.9c6.2,1.5,15,1.8,44.6,1.2c49-1,80.4-2,86.8-2.9c19.9-2.5,35.5-13.6,34.6-24.4
		c-0.3-4.2-1.3-5.5-6.8-9.3c-3.5-2.4-6.8-4.3-7.2-4.3c-0.5,0-3.8,2.7-7.3,6l-6.5,5.9l3.6,2.9c2.6,2,3.5,3.9,3.2,6.4
		c-0.5,4.7-8.5,7.6-27.7,10.2c-24.3,3.2-73.4,5.7-73.3,3.7c0-0.5,4.9-4.3,10.8-8.2c15.5-10.6,20.3-19.1,14-25
		c-2.3-2.1-6.6-5.3-16.1-4.6c-12.8,0.9-17.3,4.1-24.5,7.1c-6.2,2.6-11.8,5.4-12.5,5.7c-0.9,0.4-0.5-7.6,0.9-22.5
		c1.2-12.7,2.4-26,2.6-29.5c0.3-7,0.4-7.1,5.1-4.4c1.8,1,4.7,1.9,6.5,1.9c3.2,0,3.2,0-0.9-3.7c-2.3-2-5.6-5.9-7.3-8.6l-3.2-4.9
		l-5.7,3.9c-3.1,2.1-6.1,4.6-6.7,5.6c-0.5,1-0.1,5.1,0.9,9.1c1.3,5,1.9,15.1,1.9,32.3c0,28,0.2,27.4-10.7,36.3l-5.4,4.4l-5.7-6.4
		l-5.7-6.4l-7.3,2.3c-4,1.3-7.3,2.7-7.3,3.4c0,1.2,5.7,5.4,13.2,9.8l5.5,3.2l-4.3,2.2c-14.4,7.5-34,12.6-46,11.8
		c-10.4-0.7-30.7-6.4-41.4-11.7c-5.1-2.4-9.5-4.3-9.8-4s1.2,2.9,3.4,5.6c5.1,6.5,23,15.9,35.3,18.4
		C159.2,183.3,173.8,183.3,180.9,181.1z M227.7,157.1l-4.6-1.4l7.6-7c13.2-12.2,32.5-20.7,47.1-20.7c7,0,13,1.8,13,4.1
		c0,2.5-4.7,7.7-13.9,15.4c-11.2,9.4-13,10.3-21,11.4C248,160.1,233.9,159.2,227.7,157.1z"/>
	<polygon id="rect3245" class="st1" points="364.9,113.2 370.4,107.6 376,113.2 370.4,118.8 	"/>
	<polygon id="rect3247" class="st1" points="381.5,110 387,104.4 392.5,110 387,115.6 	"/>
</g>
</svg>
