<?xml version="1.0" encoding="UTF-8" standalone="no"?>
<!-- Creator: CorelDRAW -->

<svg
   xmlns:dc="http://purl.org/dc/elements/1.1/"
   xmlns:cc="http://creativecommons.org/ns#"
   xmlns:rdf="http://www.w3.org/1999/02/22-rdf-syntax-ns#"
   xmlns:svg="http://www.w3.org/2000/svg"
   xmlns="http://www.w3.org/2000/svg"
   xmlns:sodipodi="http://sodipodi.sourceforge.net/DTD/sodipodi-0.dtd"
   xmlns:inkscape="http://www.inkscape.org/namespaces/inkscape"
   xml:space="preserve"
   width="500px"
   height="250px"
   style="shape-rendering:geometricPrecision; text-rendering:geometricPrecision; image-rendering:optimizeQuality; fill-rule:evenodd; clip-rule:evenodd"
   viewBox="0 0 500 250.002"
   version="1.1"
   id="svg25"
   sodipodi:docname="Flag_of_the_Moldavian_ASSR_(1937-1938).svg"
   inkscape:version="0.92.4 (5da689c313, 2019-01-14)"><metadata
   id="metadata29"><rdf:RDF><cc:Work
       rdf:about=""><dc:format>image/svg+xml</dc:format><dc:type
         rdf:resource="http://purl.org/dc/dcmitype/StillImage" /></cc:Work></rdf:RDF></metadata><sodipodi:namedview
   pagecolor="#ffffff"
   bordercolor="#666666"
   borderopacity="1"
   objecttolerance="10"
   gridtolerance="10"
   guidetolerance="10"
   inkscape:pageopacity="0"
   inkscape:pageshadow="2"
   inkscape:window-width="1920"
   inkscape:window-height="1003"
   id="namedview27"
   showgrid="false"
   inkscape:zoom="1.468"
   inkscape:cx="230.43186"
   inkscape:cy="231.81645"
   inkscape:window-x="-9"
   inkscape:window-y="-9"
   inkscape:window-maximized="1"
   inkscape:current-layer="svg25" />
 <defs
   id="defs4">
  <style
   type="text/css"
   id="style2">
   <![CDATA[
    .fil0 {fill:#DE0000}
    .fil1 {fill:#FCD116}
    .fil2 {fill:#F8C300;fill-rule:nonzero}
   ]]>
  </style>
 </defs>
 <g
   id="Layer_x0020_1">
  <metadata
   id="CorelCorpID_0Corel-Layer" />
  <g
   id="_188099040">
   <polygon
   id="redBackground"
   class="fil0"
   points="0.000755909,250.002 499.999,250.002 499.999,0.000377955 0.000755909,0.000377955 "
   style="fill:#cc0000;fill-opacity:1" />
   <g
   id="g11">
    <path
   id="path6570"
   class="fil1"
   d="M119.56 4.99127c8.30782,2.3282 16.712,8.47034 15.7928,18.9654 -0.919186,10.4886 -12.4438,14.8839 -23.7817,5.08047l-0.405923 0.450144c0.192757,0.252096 0.475089,0.991753 0.00340159,1.50502 -0.445986,0.48416 -1.13991,-0.058205 -1.51711,0.33071 -0.446742,0.461105 -0.314458,0.279308 -0.89991,1.63541 -1.38369,3.20732 -3.81129,4.16393 -4.63713,3.38156 -0.84624,-0.801642 -0.224883,-3.09772 2.64039,-4.80154 1.44076,-0.856823 1.51257,-0.846618 1.73897,-1.22646 0.253608,-0.427089 -0.437294,-1.08738 0.0517798,-1.66376 0.506459,-0.596034 1.16221,-0.360947 1.42716,-0.170458l1.25481 -1.55415c11.0453,6.17994 17.6127,3.29425 19.1729,-2.14451 1.53298,-5.34239 1.10363,-11.9252 -10.8413,-19.7882l0.000755909 0.000377955z"
   style="fill:#ffd700;fill-opacity:1" />
    <path
   id="rect7857"
   class="fil1"
   d="M112.372 13.8343c-0.690523,0.690523 -0.859469,0.650082 -0.531026,0.978525l20.9255 21.6901c0.328443,0.328443 1.14898,0.0366616 1.83951,-0.653862 0.690523,-0.690523 0.982304,-1.51068 0.653862,-1.83913l-21.8836 -20.6862c-0.328443,-0.328821 -0.313702,-0.179906 -1.00423,0.510617z"
   style="fill:#ffd700;fill-opacity:1" />
    <polygon
   id="path7858"
   class="fil1"
   points="111.023,20.5842 120.007,11.6006 114.946,10.6855 108.035,17.5957 "
   style="fill:#ffd700;fill-opacity:1" />
   </g>
   <path
   id="_188227144"
   class="fil2"
   d="M93.7929 41.8267c-0.41575,0.0211655 -0.958871,0.148536 -1.63768,0.371529 -0.679185,0.233576 -1.25594,0.509861 -1.71402,0.849642 -0.60246,0.414238 -1.10325,0.96643 -1.51068,1.65658 -0.398742,0.700728 -0.814492,1.48687 -1.23062,2.37885 -1.46798,3.25986 -3.27536,7.47594 -5.41382,12.6475 -2.13847,5.18214 -3.75082,8.96244 -4.82837,11.3413 -1.39201,3.09016 -2.64757,5.5325 -3.75952,7.31645 -1.12026,1.78395 -2.19781,3.13287 -3.22471,4.046 -0.873831,0.806933 -1.73935,1.36971 -2.58823,1.70949 -0.840193,0.329199 -1.8327,0.499278 -2.97828,0.499278 -1.87541,0 -3.34376,-0.573357 -4.40431,-1.72045 -1.06054,-1.13613 -1.58703,-2.48467 -1.58703,-4.03504 0,-1.47629 0.390427,-2.73979 1.1796,-3.78068 0.789169,-1.05109 1.83308,-1.57154 3.14836,-1.57154 1.04391,0 2.06212,0.435404 3.05501,1.31679 0.992887,0.88139 2.08744,2.29381 3.28405,4.24783 0.772161,-0.563152 1.47667,-1.37009 2.11277,-2.42118 0.628161,-1.06205 1.1966,-2.19818 1.7144,-3.39819 -2.18949,-4.55587 -4.70138,-9.86537 -7.54398,-15.9077 -2.8426,-6.05294 -4.66736,-9.83325 -5.45653,-11.3413 -0.331088,-0.626649 -0.662177,-1.17884 -0.984194,-1.64599 -0.322773,-0.477735 -0.857201,-0.96643 -1.60404,-1.46533 -0.577137,-0.350364 -1.13689,-0.616066 -1.68039,-0.775185 -0.534428,-0.17008 -1.05223,-0.276285 -1.55264,-0.318616l0 -2.42118 19.5429 0 0 2.42118c-1.82439,0.127371 -3.08033,0.339781 -3.75914,0.626649 -0.678807,0.28649 -1.01821,0.605105 -1.01821,0.966052 0,0.222993 0.0846618,0.520444 0.237356,0.870808 0.161387,0.350364 0.280442,0.616066 0.365104,0.807311 0.772161,1.5927 1.63768,3.44052 2.57954,5.52192 0.950556,2.0814 2.85129,6.07411 5.71959,11.957 1.12857,-2.70767 2.0368,-4.96973 2.72392,-6.76425 0.6875,-1.79453 1.39201,-3.64235 2.12146,-5.55404 0.679185,-1.78395 1.14558,-3.12191 1.39201,-4.02446 0.254363,-0.902556 0.373041,-1.55037 0.373041,-1.94344 0,-0.647814 -0.432758,-1.16788 -1.29827,-1.57154 -0.874209,-0.403656 -2.06212,-0.700728 -3.57243,-0.891973l0 -2.42118 13.798 0 0 2.42118zm33.3413 8.62266c0,2.48505 -0.41575,4.62994 -1.23062,6.42485 -0.823185,1.79453 -1.95176,3.24928 -3.39441,4.36424 -1.4933,1.16826 -3.19901,2.00694 -5.10844,2.52738 -1.91774,0.520444 -4.06452,0.775185 -6.45773,0.775185l-2.87661 0 0 12.4139c0,0.743437 0.109985,1.39125 0.33071,1.94344 0.220726,0.552192 0.653484,0.987596 1.28127,1.32738 0.331088,0.159119 0.874209,0.339781 1.61235,0.520444 0.746838,0.190867 1.38331,0.318238 1.89242,0.371529l0 2.43176 -19.1188 0 0 -2.43176c0.483782,-0.0532916 1.12026,-0.148536 1.91774,-0.254741 0.789169,-0.116788 1.34968,-0.255119 1.66338,-0.424821 0.645169,-0.329199 1.06923,-0.732854 1.28164,-1.21059 0.20334,-0.478113 0.313702,-1.14709 0.313702,-1.99636l0 -31.1355c0,-0.732854 -0.10167,-1.3595 -0.305387,-1.89053 -0.195025,-0.520066 -0.627783,-0.966052 -1.28996,-1.31679 -0.466774,-0.254741 -1.07755,-0.477735 -1.84971,-0.66898 -0.772539,-0.20145 -1.3493,-0.329199 -1.73141,-0.392695l0 -2.42118 19.4669 0c4.557,0 7.96804,0.902556 10.2169,2.71863 2.25752,1.81569 3.3861,4.58724 3.3861,8.32521zm-9.69945 1.5825c0,-3.31353 -0.534806,-5.77704 -1.60404,-7.39128 -1.06923,-1.60328 -2.96997,-2.41022 -5.70258,-2.41022l-2.06174 0 0 19.3906 1.04391 0c2.71523,0 4.78566,-0.785768 6.20299,-2.35768 1.41695,-1.56095 2.12146,-3.97155 2.12146,-7.23141zm30.8294 32.6965c-2.58861,0 -5.00677,-0.520444 -7.26429,-1.57191 -2.24845,-1.04051 -4.21722,-2.55913 -5.88891,-4.55549 -1.63768,-1.94344 -2.93633,-4.35404 -3.87819,-7.23178 -0.941863,-2.86716 -1.41695,-6.0314 -1.41695,-9.4723 0,-3.41936 0.475089,-6.59455 1.42527,-9.50405 0.959249,-2.90987 2.29116,-5.43726 4.02257,-7.57157 1.6887,-2.10256 3.71681,-3.72739 6.08431,-4.8741 2.3762,-1.14709 4.91341,-1.73103 7.61201,-1.73103 1.95176,0 3.73381,0.29745 5.34617,0.891973 1.60366,0.594901 2.96127,1.26388 4.07322,2.00694l1.54432 -1.70949 2.16379 0 0.221103 16.1092 -2.18949 0c-1.23894,-4.91643 -2.73261,-8.51645 -4.47234,-10.8208 -1.73973,-2.30439 -3.86118,-3.4511 -6.36438,-3.4511 -3.11435,0 -5.49055,1.70949 -7.11122,5.13943 -1.62067,3.4409 -2.43554,8.25113 -2.43554,14.453 0,3.50402 0.280064,6.49893 0.8315,8.9836 0.560507,2.47447 1.28164,4.47083 2.17248,5.97886 0.967564,1.58212 2.10483,2.73942 3.41142,3.47227 1.30697,0.743437 2.75794,1.10438 4.35328,1.10438 2.31686,0 4.3873,-0.785768 6.19468,-2.3573 1.81607,-1.5825 3.47076,-3.97155 4.96443,-7.15733l2.13847 1.61387c-0.7132,1.82665 -1.52769,3.46206 -2.43554,4.89565 -0.91654,1.44416 -1.96877,2.6865 -3.15668,3.72739 -1.31528,1.13613 -2.75794,2.0281 -4.34459,2.67592 -1.57872,0.637232 -3.44581,0.955847 -5.60091,0.955847zm50.9918 -34.279c0,2.48505 -0.41575,4.62994 -1.23024,6.42485 -0.823563,1.79453 -1.95214,3.24928 -3.39441,4.36424 -1.49368,1.16826 -3.19939,2.00694 -5.10881,2.52738 -1.91774,0.520444 -4.06452,0.775185 -6.45773,0.775185l-2.87661 0 0 12.4139c0,0.743437 0.110363,1.39125 0.33071,1.94344 0.220726,0.552192 0.653484,0.987596 1.28164,1.32738 0.331088,0.159119 0.873831,0.339781 1.61198,0.520444 0.747216,0.190867 1.38331,0.318238 1.8928,0.371529l0 2.43176 -19.1192 0 0 -2.43176c0.483782,-0.0532916 1.12026,-0.148536 1.91812,-0.254741 0.789169,-0.116788 1.3493,-0.255119 1.663,-0.424821 0.645169,-0.329199 1.06923,-0.732854 1.28164,-1.21059 0.203718,-0.478113 0.313702,-1.14709 0.313702,-1.99636l0 -31.1355c0,-0.732854 -0.10167,-1.3595 -0.305387,-1.89053 -0.195025,-0.520066 -0.627783,-0.966052 -1.28996,-1.31679 -0.466396,-0.254741 -1.07755,-0.477735 -1.84971,-0.66898 -0.772539,-0.20145 -1.3493,-0.329199 -1.73141,-0.392695l0 -2.42118 19.4669 0c4.557,0 7.96804,0.902556 10.2172,2.71863 2.25715,1.81569 3.38572,4.58724 3.38572,8.32521zm-9.69945 1.5825c0,-3.31353 -0.534806,-5.77704 -1.60366,-7.39128 -1.06923,-1.60328 -2.97035,-2.41022 -5.70258,-2.41022l-2.06212 0 0 19.3906 1.04391 0c2.71523,0 4.78604,-0.785768 6.20299,-2.35768 1.41695,-1.56095 2.12146,-3.97155 2.12146,-7.23141z"
   style="fill:#ffd700;fill-opacity:1" />
   <path
   id="_188348888"
   class="fil2"
   d="M94.6289 136.365l-13.5266 0c-2.34181,-4.48141 -4.28525,-8.0493 -5.82957,-10.7041 -1.55302,-2.65475 -3.47945,-5.72375 -5.7793,-9.20698l-1.36593 0 0 13.4121c0,0.743437 0.110363,1.38029 0.33071,1.89015 0.220726,0.520444 0.653484,0.955847 1.28164,1.30621 0.31408,0.17008 0.806177,0.339781 1.47667,0.520444 0.670114,0.169702 1.24725,0.297072 1.73103,0.350364l0 2.43176 -18.8221 0 0 -2.43176c0.483782,-0.0532916 1.11194,-0.148536 1.90111,-0.254741 0.789169,-0.116788 1.34892,-0.255119 1.68001,-0.424821 0.628161,-0.329199 1.05223,-0.75402 1.26464,-1.26388 0.220726,-0.4989 0.33071,-1.1573 0.33071,-1.94306l0 -31.1355c0,-0.75402 -0.0933548,-1.37009 -0.280064,-1.86899 -0.178017,-0.499278 -0.619468,-0.934682 -1.31528,-1.30621 -0.526113,-0.276285 -1.1539,-0.499278 -1.87503,-0.690145 -0.721515,-0.180662 -1.28996,-0.318616 -1.70609,-0.403656l0 -2.42118 19.7897 0c4.42925,0 7.78965,0.860225 10.0808,2.59088 2.29985,1.73103 3.44543,4.35404 3.44543,7.85843 0,3.09016 -0.712822,5.57483 -2.13015,7.45478 -1.41695,1.87957 -3.57205,3.3449 -6.47436,4.39599 1.12819,1.82665 2.44385,3.9398 3.94547,6.35039 1.49368,2.41059 3.05501,4.86352 4.68475,7.36974 0.508727,0.817894 1.21323,1.80549 2.09576,2.97337 0.891217,1.16826 1.67169,1.89015 2.3505,2.16644 0.382112,0.137953 0.865516,0.265324 1.45966,0.371529 0.585452,0.106205 1.0012,0.17008 1.25594,0.180662l0 2.43176zm-16.9293 -32.8239c0,-2.94162 -0.661799,-5.09747 -1.97746,-6.4566 -1.3236,-1.35912 -3.19901,-2.03869 -5.63455,-2.03869l-1.96007 0 0 18.488 1.88373 0c2.43554,0 4.32796,-0.807311 5.66894,-2.40001 1.34061,-1.59308 2.01941,-4.13104 2.01941,-7.59273zm31.814 34.0027c-2.15548,0 -4.15826,-0.329199 -6.02535,-0.987596 -1.86672,-0.66898 -3.44506,-1.45475 -4.73502,-2.36826l-1.71402 2.17702 -2.11314 0 -0.322395 -15.9606 2.12977 0c0.483782,1.51862 1.09493,3.11132 1.8414,4.78906 0.747216,1.67812 1.61273,3.18578 2.58861,4.51316 1.00952,1.39125 2.13809,2.5168 3.39403,3.38761 1.24763,0.870808 2.7156,1.30621 4.3873,1.30621 2.25752,0 3.97986,-0.690145 5.18478,-2.06023 1.1966,-1.38029 1.79944,-3.12191 1.79944,-5.21388 0,-1.72045 -0.509483,-3.16461 -1.52769,-4.34308 -1.01821,-1.16826 -2.59655,-2.17702 -4.73539,-3.02666 -1.39125,-0.562774 -2.6729,-1.08322 -3.8438,-1.56095 -1.16297,-0.477735 -2.26584,-0.96643 -3.29274,-1.46533 -2.36751,-1.17884 -4.13256,-2.86716 -5.27814,-5.06535 -1.15427,-2.19818 -1.73103,-4.66207 -1.73103,-7.3807 0,-1.72007 0.297072,-3.36606 0.891217,-4.95914 0.60246,-1.58212 1.4676,-3.00512 2.61318,-4.2792 1.09493,-1.17884 2.49526,-2.14527 4.20059,-2.88871 1.70609,-0.743059 3.56449,-1.12555 5.56689,-1.12555 1.96045,0 3.79353,0.339781 5.49886,1.01934 1.70571,0.66898 3.04669,1.34892 4.02257,2.03907l1.51862 -1.86899 2.16417 0 0.195025 15.0581 -2.12977 0c-0.50079,-1.62483 -1.08624,-3.27082 -1.75673,-4.96973 -0.670492,-1.6887 -1.38331,-3.09054 -2.13015,-4.21608 -0.806177,-1.20001 -1.74766,-2.15548 -2.80858,-2.87775 -1.06092,-0.711311 -2.29985,-1.07264 -3.7255,-1.07264 -1.79037,0 -3.25003,0.637232 -4.3873,1.90111 -1.13689,1.2635 -1.70533,2.83504 -1.70533,4.69344 0,1.77336 0.492097,3.20695 1.48498,4.33287 0.984194,1.11497 2.5202,2.10256 4.60765,2.95183 1.23062,0.520444 2.47787,1.04089 3.75082,1.56133 1.28127,0.509483 2.41853,1.00876 3.41142,1.4865 2.40152,1.16826 4.22591,2.76096 5.48185,4.81061 1.24763,2.03869 1.87541,4.57665 1.87541,7.60331 0,1.91132 -0.356411,3.75914 -1.06923,5.54308 -0.712822,1.78432 -1.67169,3.26024 -2.88531,4.44966 -1.3236,1.30621 -2.8596,2.30439 -4.59933,3.0157 -1.73973,0.701106 -3.76783,1.05147 -6.09263,1.05147zm33.0442 0c-2.15548,0 -4.15826,-0.329199 -6.02535,-0.987596 -1.86672,-0.66898 -3.44506,-1.45475 -4.73502,-2.36826l-1.71402 2.17702 -2.11314 0 -0.322395 -15.9606 2.12977 0c0.48416,1.51862 1.09493,3.11132 1.84177,4.78906 0.746838,1.67812 1.61235,3.18578 2.58823,4.51316 1.00952,1.39125 2.13847,2.5168 3.39403,3.38761 1.24763,0.870808 2.7156,1.30621 4.3873,1.30621 2.25752,0 3.97986,-0.690145 5.18516,-2.06023 1.1966,-1.38029 1.79906,-3.12191 1.79906,-5.21388 0,-1.72045 -0.509105,-3.16461 -1.52769,-4.34308 -1.01821,-1.16826 -2.59655,-2.17702 -4.73539,-3.02666 -1.39125,-0.562774 -2.6729,-1.08322 -3.8438,-1.56095 -1.16259,-0.477735 -2.26584,-0.96643 -3.29274,-1.46533 -2.36751,-1.17884 -4.13256,-2.86716 -5.27814,-5.06535 -1.1539,-2.19818 -1.73103,-4.66207 -1.73103,-7.3807 0,-1.72007 0.297072,-3.36606 0.891217,-4.95914 0.60246,-1.58212 1.4676,-3.00512 2.61318,-4.2792 1.09493,-1.17884 2.49526,-2.14527 4.20059,-2.88871 1.70609,-0.743059 3.56449,-1.12555 5.56689,-1.12555 1.96045,0 3.79353,0.339781 5.49886,1.01934 1.70571,0.66898 3.04669,1.34892 4.02257,2.03907l1.519 -1.86899 2.16379 0 0.195025 15.0581 -2.12977 0c-0.50079,-1.62483 -1.08624,-3.27082 -1.75673,-4.96973 -0.670492,-1.6887 -1.38294,-3.09054 -2.13015,-4.21608 -0.806177,-1.20001 -1.74766,-2.15548 -2.80858,-2.87775 -1.06092,-0.711311 -2.29985,-1.07264 -3.7255,-1.07264 -1.79037,0 -3.25003,0.637232 -4.3873,1.90111 -1.13689,1.2635 -1.70533,2.83504 -1.70533,4.69344 0,1.77336 0.492097,3.20695 1.48498,4.33287 0.984194,1.11497 2.5202,2.10256 4.60765,2.95183 1.23062,0.520444 2.47787,1.04089 3.7512,1.56133 1.28089,0.509483 2.41815,1.00876 3.41104,1.4865 2.40152,1.16826 4.22629,2.76096 5.48185,4.81061 1.24763,2.03869 1.87541,4.57665 1.87541,7.60331 0,1.91132 -0.356411,3.75914 -1.06923,5.54308 -0.712822,1.78432 -1.67169,3.26024 -2.88531,4.44966 -1.3236,1.30621 -2.8596,2.30439 -4.59933,3.0157 -1.73935,0.701106 -3.76783,1.05147 -6.09263,1.05147zm58.8751 -42.9016c-0.475089,0.0634964 -1.1709,0.201828 -2.07044,0.424821 -0.907847,0.212411 -1.66338,0.594523 -2.27415,1.13613 -0.636476,0.520444 -1.07755,1.44416 -1.33229,2.79271 -0.254741,1.34892 -0.390427,3.37702 -0.390427,6.07449l0 16.4278c0,4.83177 -1.30659,8.71828 -3.92052,11.6599 -2.62225,2.9522 -6.08431,4.41753 -10.3953,4.41753 -5.0234,0 -8.91028,-1.423 -11.6595,-4.25842 -2.74962,-2.846 -4.12424,-6.80696 -4.12424,-11.8829l0 -22.5869c0,-0.732854 -0.118678,-1.34854 -0.339403,-1.86899 -0.220726,-0.520444 -0.653484,-0.987596 -1.28127,-1.40183 -0.432758,-0.265324 -0.958871,-0.488317 -1.58703,-0.647814 -0.636476,-0.169702 -1.14558,-0.28649 -1.54432,-0.350364l0 -2.3573 18.499 0 0 2.3573c-0.534428,0.0427089 -1.06923,0.127371 -1.62067,0.233576 -0.543121,0.116788 -1.10287,0.286868 -1.66338,0.520444 -0.627783,0.244159 -1.05223,0.658397 -1.26426,1.24234 -0.220726,0.584318 -0.33071,1.23213 -0.33071,1.95403l0 22.2793c0,4.37483 0.772161,7.56061 2.31648,9.55696 1.54432,1.98615 3.77615,2.98433 6.71247,2.98433 2.88493,0 5.14245,-1.10438 6.78882,-3.30257 1.63768,-2.19818 2.46086,-5.42667 2.46086,-9.70625l0 -14.9625c0,-2.65475 -0.144379,-4.64053 -0.432758,-5.95732 -0.297072,-1.31679 -0.738145,-2.26168 -1.33229,-2.846 -0.432758,-0.456569 -1.17997,-0.870808 -2.24883,-1.24234 -1.06923,-0.371529 -1.82477,-0.605105 -2.24883,-0.690145l0 -2.42118 15.283 0 0 2.42118z"
   style="fill:#ffd700;fill-opacity:1" />
   <g
   id="g17">
    <path
   id="_188098992"
   class="fil2"
   d="M47.6865 166.203l-8.59091 0 0 -0.96643c0.255497,-0.0211655 0.564286,-0.0634964 0.934304,-0.122457 0.366238,-0.0548034 0.617578,-0.1183 0.755153,-0.185954 0.274395,-0.122457 0.472821,-0.291025 0.590743,-0.506459 0.1183,-0.215056 0.179528,-0.485294 0.179528,-0.814492l0 -13.1105 -5.45275 15.4236 -1.40713 0c-0.0687877,-0.274395 -0.232442,-0.81487 -0.499656,-1.62105 -0.263056,-0.810335 -0.476601,-1.45626 -0.640633,-1.94155l-4.01123 -12.059 0 10.6746c0,1.02161 0.0608507,1.79831 0.18671,2.33009 0.122079,0.531782 0.320506,0.919942 0.594901,1.16901 0.18671,0.173103 0.522333,0.337891 1.00309,0.493987 0.476601,0.156095 0.816004,0.249072 1.01027,0.270238l0 0.96643 -6.81414 0 0 -0.96643c0.18293,-0.0211655 0.488317,-0.0805043 0.907469,-0.164788 0.423309,-0.0888193 0.766492,-0.236222 1.03371,-0.451656 0.297072,-0.232064 0.499278,-0.620602 0.605861,-1.16901 0.103182,-0.54879 0.156473,-1.32964 0.156473,-2.34294l0 -8.69485c0,-0.527625 -0.0608507,-0.966808 -0.179151,-1.31717 -0.122079,-0.350364 -0.29745,-0.628917 -0.537452,-0.8315 -0.29745,-0.257387 -0.602838,-0.422175 -0.915406,-0.498144 -0.312569,-0.0714334 -0.628917,-0.122079 -0.949422,-0.147402l0 -0.962651 7.29452 0 3.90843 11.5866 3.29841 -9.41258c0.110363,-0.346206 0.216946,-0.755531 0.320128,-1.23667 0.106961,-0.476979 0.160253,-0.789547 0.167812,-0.937328l7.02769 0 0 0.962651c-0.2366,0.01663 -0.488317,0.0506459 -0.747594,0.101292 -0.259277,0.0461105 -0.510995,0.113764 -0.747216,0.198048 -0.293671,0.105827 -0.48416,0.274395 -0.575625,0.506837 -0.0956225,0.227907 -0.141355,0.485294 -0.141355,0.763846l0 12.4306c0,0.295561 0.0457325,0.544633 0.141355,0.747216 0.091465,0.202584 0.281954,0.375687 0.575625,0.523467 0.148536,0.0759689 0.392695,0.14778 0.732098,0.210899 0.335624,0.0676539 0.59868,0.114142 0.78539,0.135308l0 0.96643zm12.9155 -10.8099c0.55257,0.569956 0.972099,1.24952 1.26199,2.04284 0.289891,0.789547 0.434648,1.64637 0.434648,2.57085 0,0.915784 -0.141355,1.78092 -0.427467,2.59164 -0.289513,0.810335 -0.705263,1.50691 -1.25821,2.08518 -0.586964,0.616066 -1.28883,1.08889 -2.10483,1.42224 -0.816004,0.329199 -1.75031,0.493987 -2.79875,0.493987 -0.907469,0 -1.74653,-0.143623 -2.50886,-0.435026 -0.762713,-0.286868 -1.43774,-0.721515 -2.02886,-1.29563 -0.563908,-0.552948 -1.01027,-1.23667 -1.33796,-2.047 -0.328065,-0.81487 -0.492097,-1.72234 -0.492097,-2.72694 0,-0.991753 0.144757,-1.86974 0.430868,-2.64228 0.285734,-0.768004 0.716602,-1.45626 1.28883,-2.05985 0.552948,-0.574113 1.23175,-1.02123 2.03982,-1.33796 0.808445,-0.320884 1.71251,-0.476979 2.70767,-0.476979 1.04467,0 1.95969,0.156095 2.75302,0.476979 0.793327,0.316726 1.47553,0.763846 2.0402,1.33796zm-2.85998 8.57277c0.164032,-0.464128 0.285734,-1.02161 0.362081,-1.68417 0.0801264,-0.658397 0.1183,-1.42678 0.1183,-2.30023 0,-0.574113 -0.0381734,-1.23705 -0.110741,-1.97557 -0.0759689,-0.742681 -0.18671,-1.32964 -0.335624,-1.75598 -0.179151,-0.518932 -0.427089,-0.928635 -0.743437,-1.22382 -0.316726,-0.299718 -0.716602,-0.447498 -1.20076,-0.447498 -0.53027,0 -0.9498,0.160253 -1.26615,0.481136 -0.316726,0.325041 -0.560885,0.738523 -0.732098,1.24952 -0.156473,0.472443 -0.266836,1.02123 -0.324285,1.65015 -0.0608507,0.633074 -0.091465,1.29185 -0.091465,1.97557 0,0.899154 0.0264568,1.64184 0.0801264,2.22842 0.0532916,0.591121 0.179151,1.18186 0.377199,1.77714 0.171969,0.510617 0.41953,0.915784 0.740035,1.21134 0.320128,0.295561 0.724539,0.443341 1.21664,0.443341 0.445609,0 0.830744,-0.135308 1.15125,-0.41386 0.320128,-0.274395 0.571845,-0.679562 0.758933,-1.2155zm19.6831 2.23711l-7.03903 0 0 -0.903312c0.18671,-0.017008 0.377577,-0.0377955 0.571845,-0.0676539 0.190867,-0.0294805 0.354899,-0.0672759 0.488317,-0.117922 0.240001,-0.0888193 0.404034,-0.232442 0.499656,-0.418018 0.091465,-0.189733 0.137198,-0.438805 0.137198,-0.742681l0 -8.83053 -2.5013 0c-0.0385514,2.05985 -0.202206,3.81999 -0.492097,5.2804 -0.289891,1.46042 -0.656129,2.63812 -1.09456,3.53728 -0.445986,0.907469 -0.930146,1.57456 -1.45248,2.00089 -0.518932,0.43049 -1.04504,0.645547 -1.57494,0.645547 -0.400632,0 -0.739657,-0.0718114 -1.01065,-0.215056 -0.270616,-0.14778 -0.487939,-0.329199 -0.651972,-0.552948 -0.171591,-0.223749 -0.293671,-0.468664 -0.358301,-0.743059 -0.0687877,-0.270238 -0.0994021,-0.514774 -0.0994021,-0.726051 0,-0.611909 0.156473,-1.10136 0.472821,-1.46873 0.316726,-0.367372 0.735878,-0.54879 1.25821,-0.54879 0.438805,0 0.820162,0.130772 1.14785,0.388537 0.328065,0.261545 0.640633,0.578271 0.941863,0.945265 0.453924,-0.755531 0.83528,-1.77714 1.14407,-3.0603 0.308789,-1.27862 0.461483,-2.61242 0.461483,-3.99687 0,-0.371529 -0.0532916,-0.662932 -0.167812,-0.869674 -0.110741,-0.202584 -0.259277,-0.367372 -0.446364,-0.493987 -0.205607,-0.130772 -0.445986,-0.227907 -0.712822,-0.291025 -0.270616,-0.0593389 -0.503058,-0.0971343 -0.705263,-0.114142l0 -0.903312 11.1837 0 0 0.903312c-0.224883,0.017008 -0.411971,0.0340159 -0.560507,0.0593389 -0.148536,0.025323 -0.312946,0.0672759 -0.491719,0.126615 -0.213922,0.0714334 -0.373797,0.206741 -0.472821,0.40101 -0.0994021,0.193891 -0.152694,0.44712 -0.152694,0.759689l0 7.76659c0,0.295183 0.0495121,0.544255 0.140977,0.746838 0.091465,0.202584 0.255497,0.342049 0.484538,0.41386 0.178773,0.0589609 0.339403,0.101292 0.476601,0.122457 0.137198,0.025323 0.327687,0.0461105 0.575625,0.0631184l0 0.903312zm2.09689 -1.17355c0.732098,-1.0972 1.36517,-2.51567 1.89922,-4.25048 0.537452,-1.73481 0.804288,-3.13589 0.804288,-4.20815 0,-0.396852 -0.0457325,-0.692413 -0.133418,-0.890461 -0.0876855,-0.198426 -0.240379,-0.354899 -0.445986,-0.472821 -0.141355,-0.0801264 -0.373797,-0.156095 -0.693925,-0.227907 -0.320506,-0.0676539 -0.579782,-0.1183 -0.781988,-0.139465l0 -0.903312 11.2491 0 0 0.903312c-0.221481,0.017008 -0.408191,0.0340159 -0.557105,0.0593389 -0.148536,0.025323 -0.312569,0.0672759 -0.491719,0.126615 -0.217324,0.0714334 -0.373797,0.206741 -0.476601,0.40101 -0.0990241,0.193891 -0.148536,0.44712 -0.148536,0.759689l0 7.67777c0,0.438805 0.0532916,0.751374 0.167434,0.932792 0.110741,0.185576 0.411971,0.278553 0.90369,0.278553l0.904068 0 0 5.09483 -0.713578 0c-0.102426,-0.278553 -0.232442,-0.603594 -0.380978,-0.975123 -0.148914,-0.371529 -0.381356,-0.80202 -0.701484,-1.30016 -0.286112,-0.442963 -0.599058,-0.822807 -0.946021,-1.14369 -0.346584,-0.316726 -0.750996,-0.498144 -1.2121,-0.54879 -0.267214,-0.025323 -0.583562,-0.0381734 -0.942241,-0.0423309 -0.362081,-0.0041575 -0.640633,-0.008315 -0.834902,-0.008315l-2.05532 0c-0.305009,0 -0.60246,0.0041575 -0.895753,0.008315 -0.29745,0.0041575 -0.587342,0.017008 -0.877233,0.0423309 -0.434648,0.0423309 -0.8315,0.227907 -1.19736,0.557105 -0.366238,0.329199 -0.690145,0.709043 -0.972099,1.13538 -0.282332,0.439183 -0.511373,0.869674 -0.686744,1.30016 -0.174993,0.43049 -0.305009,0.755531 -0.385136,0.975123l-0.716602 0 0 -5.14132 1.31906 0zm1.41846 0l4.19076 0c0.377199,0 0.633074,-0.0631184 0.758933,-0.185576 0.125859,-0.126615 0.190867,-0.354521 0.190867,-0.692413l0 -9.02858 -2.53608 0c-0.0154961,1.68001 -0.244159,3.42351 -0.686366,5.21729 -0.445986,1.79793 -1.08284,3.35964 -1.91812,4.68928zm24.6672 0.912005c-0.328065,0.160253 -0.71698,0.303876 -1.16334,0.434648 -0.445986,0.130772 -0.918808,0.198426 -1.41846,0.198426 -0.915028,0 -1.59006,-0.151938 -2.02092,-0.451656 -0.434648,-0.299718 -0.728319,-0.730208 -0.884414,-1.29185l-0.0650082 0c-0.255497,0.278931 -0.499656,0.51931 -0.732098,0.717736 -0.236222,0.198426 -0.487939,0.367372 -0.754775,0.506459 -0.35112,0.181418 -0.686366,0.316726 -1.01065,0.40101 -0.324285,0.0888193 -0.777831,0.130772 -1.35724,0.130772 -0.865894,0 -1.60177,-0.28271 -2.21179,-0.84813 -0.610397,-0.565798 -0.918808,-1.31301 -0.918808,-2.24581 0,-0.53594 0.0684098,-0.987596 0.201828,-1.36328 0.133796,-0.375687 0.324285,-0.709043 0.572223,-0.996288 0.221103,-0.265702 0.48038,-0.481136 0.774051,-0.65424 0.293671,-0.172725 0.617578,-0.337514 0.96832,-0.485294 0.667468,-0.270238 1.47176,-0.552948 2.41022,-0.843973 0.941485,-0.295561 1.62407,-0.557483 2.05872,-0.78539l0 -1.19018c0,-0.206741 -0.0151182,-0.476979 -0.0457325,-0.814492 -0.0306143,-0.337891 -0.0952446,-0.624759 -0.190489,-0.852666 -0.103182,-0.26608 -0.267214,-0.485672 -0.492097,-0.66709 -0.224883,-0.181418 -0.518554,-0.274395 -0.881012,-0.274395 -0.327687,0 -0.602082,0.0506459 -0.823563,0.156095 -0.216946,0.10167 -0.396096,0.207119 -0.529892,0.312569 0.0230552,0.168946 0.0876855,0.418018 0.190489,0.755531 0.103182,0.337514 0.156473,0.662555 0.156473,0.979281 0,0.139087 -0.0340159,0.312191 -0.0990241,0.523467 -0.0684098,0.210899 -0.163654,0.379844 -0.293671,0.502302 -0.171591,0.16441 -0.362081,0.291025 -0.571845,0.384002 -0.213544,0.0884414 -0.541609,0.13493 -0.980036,0.13493 -0.625515,0 -1.09834,-0.168568 -1.41846,-0.502302 -0.320506,-0.333356 -0.48038,-0.768004 -0.48038,-1.30432 0,-0.459971 0.167434,-0.873453 0.499278,-1.24083 0.328065,-0.366994 0.732098,-0.671247 1.2087,-0.911627 0.46942,-0.244915 1.01065,-0.439183 1.62067,-0.574113 0.610019,-0.13493 1.17808,-0.202584 1.7008,-0.202584 0.72076,0 1.38407,0.0464884 1.98653,0.139465 0.60246,0.0967564 1.14785,0.291025 1.63201,0.590743 0.461483,0.286868 0.827343,0.704885 1.09834,1.25368 0.274395,0.54879 0.407813,1.26199 0.407813,2.14414 0,0.932792 -0.0151182,2.03869 -0.0495121,3.31353 -0.0343939,1.279 -0.0495121,2.11881 -0.0495121,2.52398 0,0.371529 0.0495121,0.662932 0.148536,0.877989 0.103182,0.215434 0.255497,0.375687 0.46564,0.481136 0.125481,0.0676539 0.323907,0.105827 0.598302,0.1183 0.270993,0.0128505 0.518554,0.0211655 0.743815,0.0211655l0 0.899154zm-5.55215 -6.44148c-0.419152,0.156473 -0.831122,0.337891 -1.24271,0.540475 -0.408191,0.198426 -0.743815,0.413482 -1.00347,0.633074 -0.278175,0.232064 -0.491341,0.527625 -0.647814,0.886304 -0.156473,0.359057 -0.2366,0.780854 -0.2366,1.26653 0,0.645547 0.133418,1.11005 0.396852,1.39692 0.266836,0.291403 0.590743,0.435026 0.979658,0.435026 0.408191,0 0.743815,-0.0929768 1.01065,-0.278931 0.263056,-0.185576 0.495499,-0.413482 0.697704,-0.687877l0.0457325 -4.19152zm15.1575 3.1151c0,-0.658397 -0.179528,-1.20265 -0.537829,-1.62898 -0.354899,-0.430868 -0.922965,-0.645925 -1.69702,-0.645925 -0.305009,0 -0.545389,0.008315 -0.716602,0.025323 -0.16819,0.017008 -0.320506,0.025323 -0.446364,0.025323l0 3.9466c0,0.329199 0.0952446,0.582428 0.278175,0.759689 0.187088,0.177261 0.488317,0.26608 0.907847,0.26608 0.430868,0 0.796728,-0.0805043 1.09418,-0.2366 0.29745,-0.156095 0.53027,-0.371529 0.693925,-0.641389 0.156473,-0.26608 0.263056,-0.552948 0.328065,-0.861359 0.0646302,-0.308033 0.0956225,-0.645547 0.0956225,-1.00876zm3.97684 0.211277c0,0.620224 -0.129638,1.14785 -0.393073,1.59119 -0.258899,0.438805 -0.621357,0.797862 -1.08246,1.06772 -0.499656,0.287246 -1.04127,0.493987 -1.62445,0.612287 -0.583562,0.1183 -1.27749,0.181418 -2.07459,0.181418 -1.88335,0 -3.33999,-0.0124725 -4.36575,-0.0377955 -1.02993,-0.025323 -2.07459,-0.0381734 -3.13816,-0.0381734l0 -0.903312c0.18293,-0.017008 0.373419,-0.0377955 0.563908,-0.0676539 0.187088,-0.0294805 0.35112,-0.0672759 0.484538,-0.117922 0.240001,-0.0888193 0.404034,-0.232442 0.491719,-0.418018 0.0876855,-0.189733 0.133418,-0.438805 0.133418,-0.742681l0 -7.76659c0,-0.287246 -0.0457325,-0.536318 -0.140977,-0.734366 -0.091465,-0.202962 -0.251718,-0.346206 -0.48416,-0.426333 -0.194647,-0.0676539 -0.373797,-0.109985 -0.537829,-0.13115 -0.163654,-0.0207875 -0.331844,-0.0377955 -0.510617,-0.0548034l0 -0.903312c1.55566,0 2.90156,-0.0124725 4.04147,-0.033638 1.14067,-0.017008 2.25752,-0.0294805 3.35208,-0.0294805 0.625515,0 1.22382,0.0464884 1.79226,0.143245 0.571845,0.0929768 1.06734,0.249072 1.49065,0.464506 0.427089,0.210899 0.766492,0.506459 1.02199,0.877989 0.259277,0.371529 0.388915,0.827343 0.388915,1.3716 0,0.81487 -0.243781,1.46495 -0.727941,1.94609 -0.484538,0.485294 -1.15201,0.810335 -1.99825,0.983438l0 0.185576c0.422931,0.0593389 0.839059,0.151938 1.24271,0.278553 0.408191,0.126615 0.758933,0.303876 1.05638,0.527625 0.320506,0.2366 0.571845,0.536318 0.751374,0.890839 0.175371,0.350364 0.266836,0.780854 0.266836,1.28316zm-4.40053 -5.99814c0,-0.41764 -0.0608507,-0.759689 -0.175371,-1.01708 -0.11452,-0.261923 -0.259277,-0.455813 -0.430868,-0.591121 -0.190489,-0.14778 -0.408191,-0.244537 -0.640633,-0.295183 -0.236222,-0.0506459 -0.464884,-0.0718114 -0.685988,-0.0718114 -0.164032,0 -0.332222,0.0041575 -0.503436,0.01663 -0.171591,0.0128505 -0.35112,0.0211655 -0.537829,0.0298584l0 4.42774 0.907469 0c0.392695,0 0.732098,-0.0634964 1.01443,-0.185954 0.281954,-0.122457 0.499656,-0.303876 0.648192,-0.544255 0.140977,-0.207119 0.244159,-0.456191 0.308789,-0.751374 0.0608507,-0.299718 0.0952446,-0.63761 0.0952446,-1.01745zm12.2212 9.77164c-1.03673,0 -1.94836,-0.168946 -2.74131,-0.502302 -0.793327,-0.333356 -1.44908,-0.789547 -1.96385,-1.36782 -0.510995,-0.582428 -0.896131,-1.27446 -1.14785,-2.07648 -0.255497,-0.797862 -0.381356,-1.66716 -0.381356,-2.60864 0,-0.856823 0.156473,-1.67132 0.465262,-2.44801 0.308789,-0.776697 0.728319,-1.45626 1.25481,-2.03869 0.545011,-0.603594 1.21966,-1.08473 2.02848,-1.44379 0.808067,-0.358679 1.70042,-0.53594 2.67667,-0.53594 1.36895,0 2.45179,0.286868 3.2489,0.856823 0.796728,0.574113 1.19698,1.34665 1.19698,2.3214 0,0.591121 -0.144757,1.07226 -0.426711,1.43509 -0.282332,0.359057 -0.770272,0.540475 -1.46457,0.540475 -0.556349,0 -1.02577,-0.14778 -1.39919,-0.443341 -0.377577,-0.295183 -0.564286,-0.68372 -0.564286,-1.1607 0,-0.405167 0.0570712,-0.806177 0.179151,-1.20303 0.1183,-0.392317 0.190489,-0.696192 0.209765,-0.898776 -0.0805043,-0.151938 -0.18293,-0.261923 -0.312946,-0.342049 -0.125481,-0.0801264 -0.323907,-0.1183 -0.590743,-0.1183 -0.335624,0 -0.640633,0.0888193 -0.915406,0.261923 -0.274395,0.173103 -0.533672,0.476979 -0.770272,0.911627 -0.232442,0.413482 -0.415372,0.96643 -0.55257,1.65884 -0.137198,0.692035 -0.210143,1.52354 -0.210143,2.49866 0,1.46911 0.312946,2.65097 0.934304,3.54975 0.621735,0.899154 1.36555,1.34665 2.23107,1.34665 0.823563,0 1.48309,-0.202584 1.97103,-0.611909 0.488317,-0.409703 0.919186,-0.987973 1.30054,-1.73935l0.838681 0.645925c-0.23282,0.502302 -0.507215,0.962273 -0.827343,1.37613 -0.320506,0.41764 -0.705641,0.785012 -1.15163,1.11005 -0.469042,0.337514 -0.945643,0.590743 -1.4298,0.763846 -0.484538,0.173103 -1.04467,0.261923 -1.68568,0.261923zm14.3336 -4.22931c0,-0.692413 -0.18293,-1.29185 -0.552948,-1.79415 -0.36964,-0.502302 -0.888193,-0.755531 -1.55944,-0.755531 -0.259277,0 -0.476601,0.0128505 -0.65235,0.0381734 -0.174993,0.025323 -0.312191,0.041953 -0.407435,0.0506459l0 4.33892c0,0.346206 0.091465,0.620602 0.274395,0.823185 0.18293,0.202584 0.503436,0.303876 0.96454,0.303876 0.381356,0 0.698082,-0.0884414 0.956981,-0.265702 0.255497,-0.177639 0.453924,-0.41386 0.594901,-0.713578 0.152694,-0.312191 0.251718,-0.637232 0.305009,-0.970588 0.0495121,-0.333734 0.0763468,-0.684098 0.0763468,-1.05525zm3.94282 0.025323c0,0.692035 -0.1183,1.29147 -0.362081,1.79793 -0.240379,0.506459 -0.614176,0.916162 -1.10967,1.22835 -0.472821,0.291403 -1.0526,0.506459 -1.75031,0.650082 -0.698082,0.143623 -1.54054,0.219592 -2.53192,0.219592 -1.86067,0 -3.22622,-0.017008 -4.0993,-0.0464884 -0.869296,-0.0294805 -1.73859,-0.0423309 -2.60033,-0.0423309l0 -0.903312c0.183308,-0.017008 0.373797,-0.0377955 0.564286,-0.0676539 0.187088,-0.0294805 0.350742,-0.0672759 0.484538,-0.117922 0.240001,-0.0888193 0.403656,-0.232442 0.491341,-0.418018 0.0880634,-0.189733 0.133796,-0.438805 0.133796,-0.742681l0 -7.76659c0,-0.287246 -0.0457325,-0.536318 -0.140977,-0.734366 -0.091843,-0.202962 -0.251718,-0.346206 -0.48416,-0.426333 -0.194647,-0.0676539 -0.374175,-0.109985 -0.537829,-0.13115 -0.164032,-0.0207875 -0.331844,-0.0377955 -0.510995,-0.0548034l0 -0.903312 7.02391 0 0 0.903312c-0.221481,0.017008 -0.408191,0.0340159 -0.564664,0.0593389 -0.152316,0.025323 -0.316348,0.0672759 -0.495499,0.126615 -0.229041,0.0714334 -0.392695,0.219214 -0.48416,0.438805 -0.0952446,0.215434 -0.140977,0.455813 -0.140977,0.721893l0 2.62112c0.335246,-0.008315 0.613798,-0.0211655 0.830744,-0.0423309 0.221481,-0.0211655 0.557105,-0.033638 1.01065,-0.033638 0.770272,0 1.47176,0.0676539 2.10861,0.194269 0.636854,0.126615 1.1898,0.333356 1.65847,0.624381 0.476979,0.287246 0.846996,0.658775 1.10967,1.11043 0.267214,0.455813 0.396852,1.03408 0.396852,1.73481zm14.9704 3.80714l-5.18214 0c-0.133418,-0.709043 -0.255497,-1.31264 -0.362081,-1.80662 -0.110741,-0.493609 -0.251718,-1.03824 -0.430868,-1.62936 -0.225261,-0.742681 -0.511373,-1.29979 -0.865516,-1.66716 -0.354899,-0.362836 -0.915406,-0.557105 -1.6819,-0.574113l0 3.31353c0,0.291403 0.0381734,0.527625 0.110363,0.717736 0.0767248,0.189733 0.198426,0.337514 0.370396,0.44712 0.117922,0.0718114 0.266458,0.135308 0.441829,0.185954 0.175749,0.0464884 0.35112,0.0842839 0.529892,0.109607l0 0.903312 -6.79071 0 0 -0.903312c0.18293,-0.017008 0.373419,-0.0377955 0.564286,-0.0676539 0.187088,-0.0294805 0.350742,-0.0672759 0.48416,-0.117922 0.240379,-0.0888193 0.404034,-0.232442 0.491719,-0.418018 0.0876855,-0.189733 0.133796,-0.438805 0.133796,-0.742681l0 -7.76659c0,-0.287246 -0.0461105,-0.536318 -0.141355,-0.734366 -0.091465,-0.202962 -0.25134,-0.346206 -0.48416,-0.426333 -0.194269,-0.0676539 -0.373797,-0.109985 -0.537452,-0.13115 -0.164032,-0.0207875 -0.331844,-0.0377955 -0.510995,-0.0548034l0 -0.903312 6.79071 0 0 0.903312c-0.178773,0.0211655 -0.342805,0.0548034 -0.495121,0.0929768 -0.156473,0.033638 -0.312946,0.101292 -0.476601,0.202584 -0.179528,0.105449 -0.305387,0.257387 -0.374175,0.455813 -0.0721893,0.198426 -0.106583,0.434648 -0.106583,0.704885l0 3.24172 0.514774 0c0.36586,0 0.66331,-0.0464884 0.891973,-0.143623 0.233198,-0.0925989 0.416128,-0.25323 0.549546,-0.476979 0.213544,-0.366994 0.377199,-0.734366 0.491719,-1.0972 0.110741,-0.363214 0.209387,-0.717736 0.30123,-1.06394 0.0876855,-0.362836 0.201828,-0.721515 0.346962,-1.07604 0.140977,-0.354899 0.339403,-0.704885 0.60246,-1.05109 0.259277,-0.346206 0.564286,-0.603594 0.915406,-0.772539 0.350742,-0.168946 0.758555,-0.25323 1.2276,-0.25323 0.396474,0 0.728319,0.0634964 0.999312,0.190111 0.274395,0.126615 0.487939,0.286868 0.644035,0.476979 0.171969,0.198048 0.293671,0.413482 0.362459,0.649704 0.0721893,0.232442 0.106961,0.472821 0.106961,0.721893 0,0.658397 -0.16441,1.15654 -0.484538,1.49859 -0.324285,0.337514 -0.709421,0.506459 -1.15919,0.506459 -0.377199,0 -0.743437,-0.135308 -1.09834,-0.396852 -0.354521,-0.26608 -0.659531,-0.561263 -0.911249,-0.890461 -0.171591,0.113764 -0.308789,0.299718 -0.407813,0.548412 -0.0990241,0.253608 -0.198426,0.523467 -0.29745,0.810713 -0.103182,0.303876 -0.209765,0.599058 -0.316348,0.886304 -0.106961,0.28271 -0.267214,0.53594 -0.476979,0.759689 0.770272,0.156095 1.41846,0.502302 1.95251,1.03408 0.529892,0.527625 0.934304,1.15654 1.2087,1.88259 0.129638,0.329199 0.259277,0.671247 0.396474,1.02577 0.141355,0.354521 0.255497,0.658397 0.354521,0.903312 0.140977,0.346206 0.309167,0.582428 0.503436,0.7132 0.190867,0.126615 0.343183,0.198426 0.457325,0.215434 0.103182,0.025323 0.247938,0.0548034 0.434648,0.0925989 0.187466,0.0381734 0.324663,0.0593389 0.412349,0.0676539l0 0.903312zm13.51 -0.261545c-0.328065,0.160253 -0.71698,0.303876 -1.16334,0.434648 -0.445986,0.130772 -0.918808,0.198426 -1.41846,0.198426 -0.915028,0 -1.59006,-0.151938 -2.02092,-0.451656 -0.434648,-0.299718 -0.728319,-0.730208 -0.884414,-1.29185l-0.0650082 0c-0.255497,0.278931 -0.499656,0.51931 -0.732098,0.717736 -0.236222,0.198426 -0.487939,0.367372 -0.754775,0.506459 -0.35112,0.181418 -0.686366,0.316726 -1.01065,0.40101 -0.324285,0.0888193 -0.777831,0.130772 -1.35724,0.130772 -0.865894,0 -1.60177,-0.28271 -2.21179,-0.84813 -0.610397,-0.565798 -0.918808,-1.31301 -0.918808,-2.24581 0,-0.53594 0.0684098,-0.987596 0.201828,-1.36328 0.133796,-0.375687 0.324285,-0.709043 0.572223,-0.996288 0.221103,-0.265702 0.48038,-0.481136 0.774051,-0.65424 0.293293,-0.172725 0.617578,-0.337514 0.96832,-0.485294 0.667468,-0.270238 1.47176,-0.552948 2.41022,-0.843973 0.941485,-0.295561 1.62407,-0.557483 2.05872,-0.78539l0 -1.19018c0,-0.206741 -0.0151182,-0.476979 -0.0457325,-0.814492 -0.0306143,-0.337891 -0.0952446,-0.624759 -0.190489,-0.852666 -0.103182,-0.26608 -0.267214,-0.485672 -0.492097,-0.66709 -0.224883,-0.181418 -0.518554,-0.274395 -0.881012,-0.274395 -0.327687,0 -0.602082,0.0506459 -0.823563,0.156095 -0.216946,0.10167 -0.396474,0.207119 -0.529892,0.312569 0.0230552,0.168946 0.0876855,0.418018 0.190489,0.755531 0.103182,0.337514 0.156473,0.662555 0.156473,0.979281 0,0.139087 -0.0340159,0.312191 -0.0990241,0.523467 -0.0684098,0.210899 -0.163654,0.379844 -0.293671,0.502302 -0.171591,0.16441 -0.362081,0.291025 -0.571845,0.384002 -0.213544,0.0884414 -0.541609,0.13493 -0.980036,0.13493 -0.625515,0 -1.09834,-0.168568 -1.41846,-0.502302 -0.320506,-0.333356 -0.48038,-0.768004 -0.48038,-1.30432 0,-0.459971 0.167434,-0.873453 0.499278,-1.24083 0.328065,-0.366994 0.732098,-0.671247 1.2087,-0.911627 0.46942,-0.244915 1.01065,-0.439183 1.62067,-0.574113 0.610019,-0.13493 1.17808,-0.202584 1.7008,-0.202584 0.72076,0 1.38407,0.0464884 1.98653,0.139465 0.60246,0.0967564 1.14785,0.291025 1.63201,0.590743 0.461483,0.286868 0.827343,0.704885 1.09834,1.25368 0.274395,0.54879 0.407813,1.26199 0.407813,2.14414 0,0.932792 -0.0151182,2.03869 -0.0495121,3.31353 -0.0343939,1.279 -0.0495121,2.11881 -0.0495121,2.52398 0,0.371529 0.0495121,0.662932 0.148536,0.877989 0.103182,0.215434 0.255497,0.375687 0.46564,0.481136 0.125481,0.0676539 0.323907,0.105827 0.598302,0.1183 0.270993,0.0128505 0.518554,0.0211655 0.743815,0.0211655l0 0.899154zm-5.55215 -6.44148c-0.419152,0.156473 -0.831122,0.337891 -1.24271,0.540475 -0.408191,0.198426 -0.743815,0.413482 -1.00347,0.633074 -0.278175,0.232064 -0.491341,0.527625 -0.647814,0.886304 -0.156473,0.359057 -0.2366,0.780854 -0.2366,1.26653 0,0.645547 0.133418,1.11005 0.396852,1.39692 0.266836,0.291403 0.590743,0.435026 0.979658,0.435026 0.408191,0 0.743815,-0.0929768 1.01065,-0.278931 0.263056,-0.185576 0.495499,-0.413482 0.697704,-0.687877l0.0457325 -4.19152zm29.544 6.70303l-8.63664 0 0 -0.96643c0.404411,-0.0298584 0.877233,-0.109985 1.41846,-0.240757 0.545389,-0.126615 0.816004,-0.286868 0.816004,-0.472821 0,-0.0672759 -0.00377955,-0.143623 -0.0151182,-0.223749 -0.0113386,-0.0842839 -0.041953,-0.193891 -0.0952446,-0.333356l-1.35383 -3.63857 -5.47165 0c-0.125859,0.337891 -0.267214,0.734744 -0.419152,1.19056 -0.152694,0.451656 -0.28649,0.856823 -0.396852,1.21134 -0.140977,0.459971 -0.225261,0.793327 -0.251718,1.00045 -0.0264568,0.206741 -0.0381734,0.350364 -0.0381734,0.434648 0,0.261545 0.179151,0.485294 0.541609,0.671247 0.362081,0.185576 0.961139,0.320506 1.8036,0.40101l0 0.96643 -6.50158 0 0 -0.96643c0.244159,-0.0128505 0.522333,-0.0593389 0.8315,-0.126615 0.308789,-0.0718114 0.55257,-0.168946 0.732098,-0.291403 0.305009,-0.198426 0.564286,-0.443341 0.777831,-0.730208 0.209765,-0.286868 0.388915,-0.628917 0.529892,-1.02577 0.862115,-2.31724 1.72763,-4.63864 2.59693,-6.96457 0.869296,-2.3214 1.82665,-4.88771 2.8751,-7.69062l2.23447 0c1.46004,3.97646 2.60449,7.11651 3.43183,9.42543 0.827343,2.30477 1.52883,4.221 2.10861,5.73622 0.0990241,0.249072 0.221103,0.472821 0.36964,0.675405 0.148914,0.198426 0.362459,0.392695 0.636854,0.574113 0.209765,0.130772 0.450144,0.232064 0.728319,0.295561 0.274395,0.0672759 0.522333,0.109607 0.747216,0.122457l0 0.96643zm-8.3237 -7.0995l-2.2991 -6.35682 -2.26886 6.35682 4.56796 0zm32.8231 7.56816c-1.16259,0 -2.24959,-0.207119 -3.26402,-0.624759 -1.01027,-0.41386 -1.89506,-1.01745 -2.64606,-1.81078 -0.736256,-0.772539 -1.31944,-1.73065 -1.74275,-2.87472 -0.423309,-1.13953 -0.636854,-2.39737 -0.636854,-3.76481 0,-1.35912 0.213544,-2.62112 0.640633,-3.77766 0.430868,-1.15654 1.02955,-2.16114 1.80776,-3.00965 0.758555,-0.835658 1.6698,-1.48158 2.73375,-1.9374 1.06772,-0.455813 2.20763,-0.687877 3.42049,-0.687877 0.876855,0 1.67736,0.117922 2.4019,0.354521 0.72076,0.236222 1.33116,0.502302 1.83043,0.797484l0.693925 -0.679562 0.972477 0 0.0994021 6.40331 -0.984194 0c-0.556349,-1.9544 -1.2276,-3.38534 -2.00921,-4.30112 -0.781988,-0.916162 -1.73519,-1.37198 -2.85998,-1.37198 -1.39957,0 -2.46729,0.679562 -3.19561,2.04322 -0.728319,1.36744 -1.09418,3.27951 -1.09418,5.74453 0,1.39276 0.125859,2.58332 0.373797,3.57092 0.251718,0.983438 0.575625,1.77714 0.976257,2.3762 0.434648,0.628917 0.945265,1.08927 1.53261,1.38029 0.587342,0.295561 1.23931,0.439183 1.95629,0.439183 1.04089,0 1.97141,-0.312569 2.78364,-0.93695 0.816004,-0.628917 1.55944,-1.57872 2.23069,-2.84524l0.960761 0.641767c-0.320506,0.726051 -0.686366,1.37613 -1.09456,1.94571 -0.411593,0.574113 -0.884414,1.0681 -1.41846,1.48158 -0.591121,0.451656 -1.23894,0.806177 -1.95214,1.06394 -0.709421,0.25323 -1.54848,0.379844 -2.5168,0.379844zm22.9131 -13.6253c0,0.987596 -0.187088,1.84026 -0.552948,2.55346 -0.370018,0.713578 -0.877233,1.29185 -1.52543,1.73481 -0.67087,0.464506 -1.43774,0.797862 -2.2957,1.0046 -0.861359,0.207119 -1.82628,0.308411 -2.90156,0.308411l-1.2926 0 0 4.9342c0,0.295561 0.0495121,0.552948 0.148536,0.772161 0.0994021,0.219592 0.293671,0.392695 0.576003,0.527625 0.148536,0.0634964 0.392695,0.135308 0.724539,0.207119 0.335246,0.0759689 0.621357,0.126615 0.85002,0.14778l0 0.96643 -8.59053 0 0 -0.96643c0.216946,-0.0211655 0.503058,-0.0593389 0.861737,-0.101292 0.354144,-0.0464884 0.606239,-0.101292 0.747216,-0.168946 0.289513,-0.130772 0.48038,-0.291403 0.575625,-0.481136 0.091465,-0.190111 0.140977,-0.455813 0.140977,-0.793705l0 -12.3757c0,-0.291403 -0.0457325,-0.540097 -0.137198,-0.751374 -0.0876855,-0.206741 -0.281954,-0.384002 -0.579404,-0.523467 -0.209765,-0.101292 -0.484538,-0.189733 -0.8315,-0.265702 -0.346584,-0.0801264 -0.606239,-0.130772 -0.777453,-0.156095l0 -0.962651 8.747 0c2.04776,0 3.58074,0.359057 4.59102,1.08057 1.01443,0.721893 1.52165,1.82363 1.52165,3.30937zm-4.35857 0.628917c0,-1.31679 -0.240001,-2.29607 -0.72076,-2.93784 -0.48038,-0.637232 -1.33456,-0.958115 -2.56215,-0.958115l-0.926745 0 0 7.70725 0.468664 0c1.22042,0 2.15094,-0.312191 2.78779,-0.93695 0.636476,-0.620602 0.953202,-1.57872 0.953202,-2.87435z"
   style="fill:#ffd700;fill-opacity:1" />
    <path
   id="_188099088"
   class="fil2"
   d="M212.764 153.046c0,0.987596 -0.18671,1.84026 -0.55257,2.55346 -0.370396,0.713578 -0.877233,1.29185 -1.5258,1.73481 -0.67087,0.464506 -1.43736,0.797862 -2.29532,1.0046 -0.861359,0.207119 -1.82628,0.308411 -2.90156,0.308411l-1.2926 0 0 4.9342c0,0.295561 0.0495121,0.552948 0.148536,0.772161 0.0994021,0.219592 0.293671,0.392695 0.576003,0.527625 0.148536,0.0634964 0.392695,0.135308 0.724539,0.207119 0.335246,0.0759689 0.621357,0.126615 0.85002,0.14778l0 0.96643 -8.59091 0 0 -0.96643c0.217324,-0.0211655 0.503436,-0.0593389 0.861737,-0.101292 0.354521,-0.0464884 0.606617,-0.101292 0.747594,-0.168946 0.289513,-0.130772 0.48038,-0.291403 0.575625,-0.481136 0.091465,-0.190111 0.140977,-0.455813 0.140977,-0.793705l0 -12.3757c0,-0.291403 -0.0457325,-0.540097 -0.137198,-0.751374 -0.0876855,-0.206741 -0.281954,-0.384002 -0.579404,-0.523467 -0.210143,-0.101292 -0.484538,-0.189733 -0.8315,-0.265702 -0.346962,-0.0801264 -0.606239,-0.130772 -0.777831,-0.156095l0 -0.962651 8.74738 0c2.04776,0 3.58074,0.359057 4.59102,1.08057 1.01443,0.721893 1.52127,1.82363 1.52127,3.30937zm-4.3582 0.628917c0,-1.31679 -0.240001,-2.29607 -0.72076,-2.93784 -0.48038,-0.637232 -1.33456,-0.958115 -2.56215,-0.958115l-0.926745 0 0 7.70725 0.468664 0c1.22042,0 2.15094,-0.312191 2.78742,-0.93695 0.636854,-0.620602 0.95358,-1.57872 0.95358,-2.87435z"
   style="fill:#ffd700;fill-opacity:1" />
   </g>
   <g
   id="g21">
    <path
   id="_188099160"
   class="fil2"
   d="M44.1024 196.047l-6.07827 0c-1.05223,-1.7813 -1.9253,-3.19939 -2.6196,-4.25464 -0.697704,-1.05525 -1.5636,-2.27529 -2.59655,-3.65973l-0.613798 0 0 5.33105c0,0.295561 0.0495121,0.54879 0.148536,0.751374 0.0990241,0.206741 0.293293,0.379844 0.576003,0.51931 0.140977,0.0672759 0.362081,0.13493 0.66331,0.206741 0.30123,0.0676539 0.560507,0.1183 0.777831,0.139465l0 0.96643 -8.45749 0 0 -0.96643c0.217324,-0.0211655 0.499656,-0.0593389 0.8538,-0.101292 0.354899,-0.0464884 0.606617,-0.101292 0.755531,-0.168946 0.281954,-0.130772 0.472821,-0.299718 0.568066,-0.502302 0.0990241,-0.198426 0.148536,-0.459971 0.148536,-0.772539l0 -12.3757c0,-0.299718 -0.041953,-0.544633 -0.125859,-0.742681 -0.0801264,-0.198426 -0.278553,-0.371529 -0.590743,-0.51931 -0.2366,-0.109607 -0.518932,-0.198426 -0.842839,-0.274395 -0.324285,-0.0718114 -0.579782,-0.126615 -0.766492,-0.160253l0 -0.962651 8.89214 0c1.99031,0 3.50024,0.342049 4.53016,1.02993 1.03295,0.688255 1.5481,1.73065 1.5481,3.12342 0,1.22835 -0.320506,2.21633 -0.956981,2.96316 -0.636854,0.747216 -1.60555,1.32964 -2.90949,1.74766 0.506837,0.726051 1.09796,1.56587 1.77299,2.52398 0.67087,0.958115 1.37273,1.93324 2.10445,2.92953 0.229041,0.325041 0.545389,0.717358 0.942241,1.18186 0.400254,0.464128 0.750996,0.750996 1.05601,0.860981 0.171591,0.0548034 0.388915,0.105449 0.655751,0.14778 0.263434,0.041953 0.450144,0.0672759 0.564664,0.0718114l0 0.96643zm-7.60747 -13.047c0,-1.16901 -0.297072,-2.02584 -0.888193,-2.56631 -0.594901,-0.540097 -1.43736,-0.810335 -2.53192,-0.810335l-0.880634 0 0 7.34857 0.84624 0c1.09418,0 1.94495,-0.320884 2.54704,-0.953958 0.602838,-0.633074 0.907469,-1.64184 0.907469,-3.01797zm24.8539 13.047l-8.63664 0 0 -0.96643c0.404411,-0.0298584 0.877233,-0.109985 1.41846,-0.240757 0.545389,-0.126615 0.816004,-0.286868 0.816004,-0.472821 0,-0.0672759 -0.00377955,-0.143623 -0.0151182,-0.223749 -0.0113386,-0.0842839 -0.041953,-0.193891 -0.0952446,-0.333356l-1.35383 -3.63857 -5.47165 0c-0.125859,0.337891 -0.267214,0.734744 -0.41953,1.19056 -0.152316,0.451656 -0.286112,0.856823 -0.396474,1.21134 -0.140977,0.459971 -0.225261,0.793327 -0.251718,1.00045 -0.0268348,0.206741 -0.0381734,0.350364 -0.0381734,0.434648 0,0.261545 0.179151,0.485294 0.541231,0.671247 0.362459,0.185576 0.961139,0.320506 1.80398,0.40101l0 0.96643 -6.50158 0 0 -0.96643c0.244159,-0.0128505 0.522333,-0.0593389 0.8315,-0.126615 0.308789,-0.0718114 0.55257,-0.168946 0.73172,-0.291403 0.305387,-0.198426 0.564664,-0.443341 0.778209,-0.730208 0.209765,-0.286868 0.388915,-0.628917 0.529892,-1.02577 0.861737,-2.31724 1.72725,-4.63864 2.59655,-6.96457 0.869296,-2.3214 1.82703,-4.88771 2.87548,-7.69062l2.23447 0c1.46004,3.97646 2.60449,7.11651 3.43145,9.42543 0.827721,2.30477 1.5292,4.221 2.10899,5.73622 0.0990241,0.249072 0.221103,0.472821 0.36964,0.675405 0.148914,0.198426 0.362459,0.392695 0.636854,0.574113 0.209765,0.130772 0.449766,0.232064 0.728319,0.295561 0.274395,0.0672759 0.522333,0.109607 0.747216,0.122457l0 0.96643zm-8.3237 -7.0995l-2.29948 -6.35682 -2.26886 6.35682 4.56834 0zm15.1148 7.56816c-0.96832,0 -1.86823,-0.13115 -2.70691,-0.392695 -0.839059,-0.26608 -1.5481,-0.578271 -2.12751,-0.941107l-0.770272 0.865138 -0.9498 0 -0.144757 -6.34397 0.956981 0c0.217324,0.603594 0.491719,1.23667 0.827343,1.90338 0.335624,0.66709 0.724539,1.26653 1.16297,1.79415 0.453924,0.552948 0.961139,1.00045 1.52543,1.34627 0.560507,0.346206 1.22004,0.51931 1.97141,0.51931 1.01443,0 1.78848,-0.274395 2.32971,-0.819028 0.537452,-0.548412 0.808445,-1.24083 0.808445,-2.07233 0,-0.68372 -0.229041,-1.25783 -0.686366,-1.7265 -0.457703,-0.464128 -1.16675,-0.865138 -2.12788,-1.20265 -0.625137,-0.223749 -1.20076,-0.430868 -1.72725,-0.620602 -0.522333,-0.190111 -1.01783,-0.384002 -1.47969,-0.582428 -1.06356,-0.468664 -1.85651,-1.13991 -2.37129,-2.01336 -0.518932,-0.873831 -0.777831,-1.85311 -0.777831,-2.93368 0,-0.68372 0.133418,-1.33796 0.399876,-1.97103 0.270993,-0.628917 0.659909,-1.19471 1.17468,-1.70117 0.492097,-0.468664 1.12101,-0.852666 1.88751,-1.14823 0.766492,-0.295183 1.60177,-0.44712 2.5013,-0.44712 0.881012,0 1.70458,0.13493 2.47107,0.405167 0.766492,0.265702 1.36895,0.53594 1.807,0.810335l0.682964 -0.743059 0.972099 0 0.0876855 5.98529 -0.956981 0c-0.224883,-0.645547 -0.487939,-1.29979 -0.789169,-1.97519 -0.30123,-0.671247 -0.621735,-1.22835 -0.957359,-1.67585 -0.362081,-0.476979 -0.785012,-0.856823 -1.26199,-1.14369 -0.476601,-0.283088 -1.03333,-0.426333 -1.67396,-0.426333 -0.804288,0 -1.46042,0.25323 -1.97141,0.755531 -0.510617,0.502302 -0.766492,1.12706 -0.766492,1.86558 0,0.704885 0.221103,1.27484 0.667468,1.72196 0.442207,0.443341 1.13273,0.836036 2.07044,1.17355 0.552948,0.206741 1.11345,0.413482 1.6853,0.620602 0.575625,0.202584 1.087,0.40101 1.53298,0.590743 1.07906,0.464506 1.89884,1.09758 2.46313,1.91207 0.560885,0.810335 0.842839,1.81947 0.842839,3.02213 0,0.760067 -0.160253,1.49443 -0.48038,2.20348 -0.320128,0.709043 -0.751374,1.29601 -1.29638,1.76845 -0.594901,0.51931 -1.28542,0.916162 -2.06666,1.19887 -0.78161,0.278553 -1.69324,0.418018 -2.73828,0.418018zm14.8487 0c-0.96832,0 -1.86861,-0.13115 -2.70729,-0.392695 -0.839059,-0.26608 -1.5481,-0.578271 -2.12751,-0.941107l-0.770272 0.865138 -0.9498 0 -0.144757 -6.34397 0.957359 0c0.216946,0.603594 0.491341,1.23667 0.826965,1.90338 0.335624,0.66709 0.724539,1.26653 1.16297,1.79415 0.453924,0.552948 0.961139,1.00045 1.52543,1.34627 0.560507,0.346206 1.22004,0.51931 1.97141,0.51931 1.01443,0 1.78848,-0.274395 2.33009,-0.819028 0.537074,-0.548412 0.808067,-1.24083 0.808067,-2.07233 0,-0.68372 -0.228663,-1.25783 -0.686366,-1.7265 -0.457325,-0.464128 -1.16675,-0.865138 -2.12788,-1.20265 -0.625137,-0.223749 -1.20076,-0.430868 -1.72725,-0.620602 -0.522333,-0.190111 -1.01783,-0.384002 -1.47931,-0.582428 -1.06394,-0.468664 -1.85689,-1.13991 -2.37167,-2.01336 -0.518554,-0.873831 -0.777831,-1.85311 -0.777831,-2.93368 0,-0.68372 0.133418,-1.33796 0.400254,-1.97103 0.270616,-0.628917 0.659531,-1.19471 1.17431,-1.70117 0.492097,-0.468664 1.12101,-0.852666 1.88751,-1.14823 0.766492,-0.295183 1.60177,-0.44712 2.5013,-0.44712 0.881012,0 1.70458,0.13493 2.47107,0.405167 0.766492,0.265702 1.36895,0.53594 1.80738,0.810335l0.682586 -0.743059 0.972099 0 0.0876855 5.98529 -0.956981 0c-0.224883,-0.645547 -0.487939,-1.29979 -0.789169,-1.97519 -0.30123,-0.671247 -0.621357,-1.22835 -0.956981,-1.67585 -0.362459,-0.476979 -0.78539,-0.856823 -1.26199,-1.14369 -0.476601,-0.283088 -1.03371,-0.426333 -1.67434,-0.426333 -0.804288,0 -1.46004,0.25323 -1.97141,0.755531 -0.510617,0.502302 -0.766492,1.12706 -0.766492,1.86558 0,0.704885 0.221481,1.27484 0.667468,1.72196 0.442207,0.443341 1.13273,0.836036 2.07044,1.17355 0.552948,0.206741 1.11345,0.413482 1.6853,0.620602 0.576003,0.202584 1.087,0.40101 1.53336,0.590743 1.07868,0.464506 1.89847,1.09758 2.46313,1.91207 0.560507,0.810335 0.842461,1.81947 0.842461,3.02213 0,0.760067 -0.160253,1.49443 -0.48038,2.20348 -0.320128,0.709043 -0.750996,1.29601 -1.29638,1.76845 -0.594901,0.51931 -1.28505,0.916162 -2.06666,1.19887 -0.78161,0.278553 -1.69324,0.418018 -2.7379,0.418018zm35.7938 -0.468664l-8.59053 0 0 -0.96643c0.255119,-0.0211655 0.563908,-0.0634964 0.933926,-0.122457 0.366238,-0.0548034 0.617578,-0.1183 0.755153,-0.185954 0.274395,-0.122457 0.472821,-0.291025 0.590743,-0.506459 0.1183,-0.215056 0.179528,-0.485294 0.179528,-0.814492l0 -13.1105 -5.45275 15.4236 -1.40713 0c-0.0687877,-0.274395 -0.232442,-0.81487 -0.499656,-1.62105 -0.263056,-0.810335 -0.476601,-1.45626 -0.640633,-1.94155l-4.01123 -12.059 0 10.6746c0,1.02161 0.0608507,1.79831 0.18671,2.33009 0.122079,0.531782 0.320506,0.919942 0.594901,1.16901 0.18671,0.173103 0.522711,0.337891 1.00309,0.493987 0.476601,0.156095 0.816004,0.249072 1.01027,0.270238l0 0.96643 -6.81414 0 0 -0.96643c0.18293,-0.0211655 0.488317,-0.0805043 0.907469,-0.164788 0.423309,-0.0888193 0.766492,-0.236222 1.03371,-0.451656 0.297072,-0.232064 0.499278,-0.620602 0.605861,-1.16901 0.103182,-0.54879 0.156473,-1.32964 0.156473,-2.34294l0 -8.69485c0,-0.527625 -0.0608507,-0.966808 -0.179151,-1.31717 -0.122079,-0.350364 -0.29745,-0.628917 -0.537452,-0.8315 -0.29745,-0.257387 -0.602838,-0.422175 -0.915406,-0.498144 -0.312569,-0.0714334 -0.628917,-0.122079 -0.949422,-0.147402l0 -0.962651 7.29452 0 3.90843 11.5866 3.29841 -9.41258c0.110363,-0.346206 0.216946,-0.755531 0.320128,-1.23667 0.106961,-0.476979 0.160253,-0.789547 0.167812,-0.937328l7.02769 0 0 0.962651c-0.2366,0.01663 -0.488317,0.0506459 -0.747594,0.101292 -0.259277,0.0461105 -0.510995,0.113764 -0.747216,0.198048 -0.293671,0.105827 -0.48416,0.274395 -0.575625,0.506837 -0.0956225,0.227907 -0.141355,0.485294 -0.141355,0.763846l0 12.4306c0,0.295561 0.0457325,0.544633 0.141355,0.747216 0.091465,0.202584 0.281954,0.375687 0.575625,0.523467 0.148536,0.0759689 0.392695,0.14778 0.732098,0.210899 0.335624,0.0676539 0.59868,0.114142 0.78539,0.135308l0 0.96643zm12.9155 -10.8099c0.55257,0.569956 0.972099,1.24952 1.26199,2.04284 0.289891,0.789547 0.434648,1.64637 0.434648,2.57085 0,0.915784 -0.141355,1.78092 -0.427467,2.59164 -0.289513,0.810335 -0.705263,1.50691 -1.25821,2.08518 -0.586964,0.616066 -1.28883,1.08889 -2.10483,1.42224 -0.816004,0.329199 -1.75031,0.493987 -2.79875,0.493987 -0.907469,0 -1.74653,-0.143623 -2.50886,-0.435026 -0.762713,-0.286868 -1.43774,-0.721515 -2.02886,-1.29563 -0.563908,-0.552948 -1.01027,-1.23667 -1.33796,-2.047 -0.328065,-0.81487 -0.492097,-1.72234 -0.492097,-2.72694 0,-0.991753 0.144757,-1.86974 0.430868,-2.64228 0.285734,-0.768004 0.716602,-1.45626 1.28883,-2.05985 0.552948,-0.574113 1.23175,-1.02123 2.03982,-1.33796 0.808445,-0.320884 1.71251,-0.476979 2.70767,-0.476979 1.04467,0 1.95969,0.156095 2.75302,0.476979 0.793327,0.316726 1.47553,0.763846 2.0402,1.33796zm-2.85998 8.57277c0.164032,-0.464128 0.285734,-1.02161 0.362081,-1.68417 0.0801264,-0.658397 0.1183,-1.42678 0.1183,-2.30023 0,-0.574113 -0.0381734,-1.23705 -0.110741,-1.97557 -0.0759689,-0.742681 -0.18671,-1.32964 -0.335624,-1.75598 -0.179151,-0.518932 -0.427089,-0.928635 -0.743437,-1.22382 -0.316726,-0.299718 -0.716602,-0.447498 -1.20076,-0.447498 -0.53027,0 -0.9498,0.160253 -1.26615,0.481136 -0.316726,0.325041 -0.560885,0.738523 -0.732098,1.24952 -0.156473,0.472443 -0.266836,1.02123 -0.324285,1.65015 -0.0608507,0.633074 -0.091465,1.29185 -0.091465,1.97557 0,0.899154 0.0264568,1.64184 0.0801264,2.22842 0.0532916,0.591121 0.179151,1.18186 0.377199,1.77714 0.171969,0.510617 0.41953,0.915784 0.740035,1.21134 0.320128,0.295561 0.724539,0.443341 1.21664,0.443341 0.445609,0 0.830744,-0.135308 1.15125,-0.41386 0.320128,-0.274395 0.571845,-0.679562 0.758933,-1.2155zm12.8006 2.23711l-7.00463 0 0 -0.903312c0.194269,-0.017008 0.380978,-0.0377955 0.563908,-0.0631184 0.183308,-0.0211655 0.343561,-0.0634964 0.488317,-0.122457 0.236222,-0.0971343 0.400632,-0.240757 0.48416,-0.426333 0.0839059,-0.185954 0.129638,-0.43049 0.129638,-0.734366l0 -13.7012c0,-0.316726 -0.0570712,-0.603594 -0.175371,-0.873831 -0.11452,-0.26608 -0.266836,-0.472821 -0.461105,-0.611909 -0.148914,-0.105827 -0.373797,-0.211277 -0.678807,-0.308411 -0.30123,-0.101292 -0.564664,-0.156095 -0.797106,-0.172725l0 -0.903312 5.62056 -0.320884 0.167812 0.198426 0 16.5332c0,0.303876 0.0457325,0.552948 0.144757,0.738901 0.0952446,0.189733 0.251718,0.341671 0.469042,0.44712 0.148536,0.0759689 0.305009,0.139465 0.469042,0.198426 0.164032,0.0593389 0.358301,0.0971343 0.579782,0.122457l0 0.903312zm15.5154 -0.261545l-5.50604 0.358679 -0.167434 -0.173103 0 -1.13538 -0.0805043 -0.025323c-0.362081,0.438805 -0.857957,0.81865 -1.47931,1.14369 -0.621357,0.325041 -1.25065,0.489829 -1.88373,0.489829 -1.50237,0 -2.74168,-0.620602 -3.71794,-1.85727 -0.976257,-1.23667 -1.4642,-2.83655 -1.4642,-4.79511 0,-1.74313 0.545389,-3.23302 1.63579,-4.47838 1.09078,-1.24498 2.41362,-1.86558 3.96172,-1.86558 0.610397,0 1.18224,0.0759689 1.72007,0.227907 0.537829,0.151938 0.96454,0.329199 1.28505,0.53594l0 -4.04336c0,-0.303876 -0.0574491,-0.591121 -0.167812,-0.856823 -0.110741,-0.270238 -0.259277,-0.476979 -0.445986,-0.624759 -0.23282,-0.181796 -0.518554,-0.312569 -0.865894,-0.392695 -0.346962,-0.0759689 -0.693925,-0.130772 -1.04504,-0.16441l0 -0.903312 6.03253 -0.320884 0.167812 0.198426 0 16.2124c0,0.312569 0.0457325,0.574113 0.137198,0.789547 0.0956225,0.215056 0.244159,0.384002 0.453924,0.506459 0.156095,0.0929768 0.385136,0.156095 0.686366,0.198426 0.30123,0.0423309 0.549168,0.0676539 0.743437,0.0759689l0 0.899154zm-5.69653 -2.19932l0 -6.98574c-0.0536696,-0.189733 -0.125859,-0.40101 -0.217324,-0.633074 -0.0952446,-0.227907 -0.221481,-0.447498 -0.385136,-0.65424 -0.148914,-0.173103 -0.350742,-0.325041 -0.59868,-0.455813 -0.251718,-0.13493 -0.53027,-0.198426 -0.842839,-0.198426 -0.747216,0 -1.35724,0.464506 -1.83421,1.3973 -0.476601,0.932792 -0.7132,2.24543 -0.7132,3.94207 0,0.671247 0.041953,1.27068 0.126237,1.80247 0.0876855,0.531782 0.236222,1.01292 0.453546,1.4521 0.217702,0.434648 0.495877,0.776697 0.8315,1.02577 0.339403,0.249072 0.747216,0.371151 1.22382,0.371151 0.453546,0 0.831122,-0.0967564 1.12857,-0.291025 0.29745,-0.194269 0.571845,-0.451656 0.827721,-0.772539zm17.83 -8.34902c0.552948,0.569956 0.972099,1.24952 1.26199,2.04284 0.289891,0.789547 0.434648,1.64637 0.434648,2.57085 0,0.915784 -0.140977,1.78092 -0.427089,2.59164 -0.289513,0.810335 -0.705263,1.50691 -1.25821,2.08518 -0.587342,0.616066 -1.28883,1.08889 -2.10483,1.42224 -0.816004,0.329199 -1.75031,0.493987 -2.79875,0.493987 -0.907469,0 -1.74653,-0.143623 -2.50886,-0.435026 -0.762713,-0.286868 -1.43774,-0.721515 -2.02886,-1.29563 -0.563908,-0.552948 -1.01027,-1.23667 -1.33796,-2.047 -0.328443,-0.81487 -0.492097,-1.72234 -0.492097,-2.72694 0,-0.991753 0.144757,-1.86974 0.430868,-2.64228 0.285734,-0.768004 0.716602,-1.45626 1.28883,-2.05985 0.552948,-0.574113 1.23175,-1.02123 2.03982,-1.33796 0.808445,-0.320884 1.71213,-0.476979 2.70767,-0.476979 1.04467,0 1.95969,0.156095 2.75302,0.476979 0.792949,0.316726 1.47553,0.763846 2.03982,1.33796zm-2.8596 8.57277c0.163654,-0.464128 0.285734,-1.02161 0.362081,-1.68417 0.0801264,-0.658397 0.1183,-1.42678 0.1183,-2.30023 0,-0.574113 -0.0381734,-1.23705 -0.110741,-1.97557 -0.0759689,-0.742681 -0.18671,-1.32964 -0.335624,-1.75598 -0.179151,-0.518932 -0.427089,-0.928635 -0.743815,-1.22382 -0.316348,-0.299718 -0.716602,-0.447498 -1.20076,-0.447498 -0.53027,0 -0.949422,0.160253 -1.26577,0.481136 -0.316726,0.325041 -0.560885,0.738523 -0.732098,1.24952 -0.156473,0.472443 -0.267214,1.02123 -0.324285,1.65015 -0.0608507,0.633074 -0.091843,1.29185 -0.091843,1.97557 0,0.899154 0.0268348,1.64184 0.0805043,2.22842 0.0532916,0.591121 0.179151,1.18186 0.377199,1.77714 0.171591,0.510617 0.41953,0.915784 0.740035,1.21134 0.320128,0.295561 0.724539,0.443341 1.21626,0.443341 0.445986,0 0.831122,-0.135308 1.15125,-0.41386 0.320506,-0.274395 0.572223,-0.679562 0.759311,-1.2155zm18.7333 -9.12572c-0.335624,0.0548034 -0.66331,0.194269 -0.979658,0.418018 -0.316726,0.223749 -0.575625,0.569578 -0.785768,1.03824 -0.522333,1.20303 -1.03333,2.41853 -1.53639,3.64273 -0.503436,1.2242 -0.995533,2.41022 -1.47969,3.55391 -0.148536,0.346206 -0.320128,0.793705 -0.507215,1.33796 -0.190489,0.544633 -0.350742,1.03862 -0.476601,1.48158l-2.05494 0c-0.858335,-2.19894 -1.59043,-4.02673 -2.19667,-5.4743 -0.605861,-1.4521 -1.24687,-3.00965 -1.92568,-4.67681 -0.156095,-0.388537 -0.400254,-0.692413 -0.732098,-0.916162 -0.331466,-0.219214 -0.66709,-0.358679 -1.01027,-0.405167l0 -0.903312 6.88255 0 0 0.903312c-0.255497,0.00869296 -0.552948,0.0676539 -0.896131,0.185954 -0.343183,0.113764 -0.514396,0.261545 -0.514396,0.442963 0,0.0506459 0.0147402,0.122457 0.0457325,0.223749 0.0302364,0.0971343 0.0684098,0.210899 0.109985,0.333356 0.240379,0.624759 0.599058,1.52807 1.07944,2.70578 0.48038,1.18186 0.987596,2.42269 1.52505,3.72285 0.374175,-0.899154 0.728319,-1.77714 1.06772,-2.63812 0.339403,-0.860981 0.758933,-1.96272 1.25443,-3.29652 0.0687877,-0.198426 0.106961,-0.358679 0.118678,-0.481136 0.0113386,-0.126615 0.0185198,-0.206741 0.0185198,-0.249072 0,-0.14778 -0.0646302,-0.278553 -0.19767,-0.388159 -0.130016,-0.109985 -0.28271,-0.207119 -0.461861,-0.291403 -0.18671,-0.0801264 -0.36586,-0.143623 -0.537452,-0.185576 -0.171591,-0.0423309 -0.312569,-0.0676539 -0.423309,-0.0846618l0 -0.903312 4.61369 0 0 0.903312zm12.2404 8.40836c-0.259277,0.468286 -0.575625,0.911627 -0.941863,1.32927 -0.370018,0.41386 -0.789169,0.772539 -1.25859,1.0681 -0.499278,0.312191 -1.00271,0.552948 -1.51333,0.7132 -0.511373,0.160631 -1.09493,0.240757 -1.75825,0.240757 -1.10174,0 -2.05494,-0.173103 -2.8562,-0.51931 -0.800508,-0.346206 -1.46004,-0.814492 -1.98275,-1.39692 -0.518554,-0.586964 -0.911249,-1.279 -1.16637,-2.0727 -0.255497,-0.797862 -0.385136,-1.65884 -0.385136,-2.59164 0,-0.839815 0.140977,-1.64599 0.419152,-2.41853 0.278553,-0.768382 0.675027,-1.45626 1.1898,-2.0557 0.507215,-0.586586 1.14369,-1.05941 1.91434,-1.42224 0.770272,-0.363214 1.63579,-0.544633 2.58899,-0.544633 1.04089,0 1.89884,0.139465 2.56631,0.418018 0.67087,0.28271 1.2276,0.67087 1.66602,1.16486 0.423309,0.468664 0.732098,1.02161 0.926745,1.663 0.194647,0.637232 0.289891,1.30848 0.289891,2.00921l0 0.80202 -7.5504 0c0,1.69248 0.293671,2.97564 0.881012,3.85778 0.591121,0.882146 1.52543,1.32549 2.80669,1.32549 0.697704,0 1.32662,-0.210899 1.88751,-0.637232 0.556349,-0.426333 1.03295,-0.962651 1.4298,-1.61273l0.846618 0.67994zm-4.26711 -4.69798c0,-0.498144 -0.0226773,-1.0046 -0.0650082,-1.52391 -0.0457325,-0.51931 -0.125481,-0.941107 -0.236222,-1.27484 -0.125859,-0.384002 -0.300852,-0.679562 -0.518554,-0.877611 -0.221103,-0.194269 -0.499656,-0.295561 -0.831122,-0.295561 -0.576003,0 -1.03333,0.320884 -1.37651,0.96643 -0.343183,0.641767 -0.526113,1.65884 -0.557105,3.05198l3.58452 -0.0464884zm20.0879 7.65245l-6.72684 0 0 -0.903312c0.145135,-0.017008 0.312946,-0.0377955 0.514774,-0.0631184 0.202206,-0.0211655 0.354899,-0.0634964 0.457703,-0.122457 0.156473,-0.0888193 0.270616,-0.223749 0.335624,-0.396852 0.0687877,-0.173103 0.103182,-0.426333 0.103182,-0.763846l0 -5.78724c0,-0.843973 -0.141355,-1.47289 -0.41953,-1.89922 -0.282332,-0.426333 -0.690145,-0.637232 -1.23553,-0.637232 -0.29745,0 -0.576003,0.0506459 -0.8315,0.147402 -0.258899,0.101292 -0.510617,0.244915 -0.754775,0.435026 -0.217324,0.16441 -0.388915,0.333356 -0.518554,0.506459 -0.129638,0.173103 -0.240001,0.325041 -0.331844,0.455813l0 6.64369c0,0.287246 0.0381734,0.527625 0.11452,0.721893 0.0725673,0.194269 0.194269,0.341671 0.366238,0.438805 0.121701,0.0759689 0.270616,0.139465 0.445609,0.198426 0.179528,0.0593389 0.354899,0.0971343 0.526491,0.122457l0 0.903312 -6.79109 0 0 -0.903312c0.18671,-0.017008 0.373797,-0.0377955 0.564286,-0.0676539 0.190867,-0.0294805 0.350742,-0.0672759 0.484538,-0.117922 0.240001,-0.0888193 0.403656,-0.232442 0.491341,-0.418018 0.091843,-0.189733 0.133796,-0.438805 0.133796,-0.742681l0 -7.19701c0,-0.257387 -0.0570712,-0.506459 -0.175749,-0.755531 -0.121701,-0.249072 -0.278175,-0.44712 -0.472443,-0.607751 -0.133418,-0.0971343 -0.301608,-0.181418 -0.507215,-0.244915 -0.205985,-0.0672759 -0.430868,-0.113764 -0.674649,-0.13493l0 -0.903312 5.32652 -0.320884 0.167812 0.185954 0 1.78962 0.0461105 0c0.209387,-0.202584 0.461105,-0.451656 0.758555,-0.738523 0.29745,-0.291403 0.575625,-0.523467 0.827343,-0.704885 0.274395,-0.198426 0.636854,-0.367372 1.08284,-0.510995 0.446364,-0.139087 0.922965,-0.206741 1.43018,-0.206741 1.21626,0 2.12373,0.379844 2.73375,1.14369 0.606617,0.760067 0.907469,1.77299 0.907469,3.03498l0 6.0571c0,0.308033 0.041953,0.54879 0.126237,0.730208 0.0797484,0.181418 0.232442,0.325041 0.457325,0.434648 0.1183,0.0551814 0.263056,0.114142 0.438427,0.173103 0.175371,0.0593389 0.377577,0.0971343 0.599058,0.122457l0 0.903312zm13.0481 -2.95447c-0.259277,0.468286 -0.575625,0.911627 -0.941485,1.32927 -0.370396,0.41386 -0.789547,0.772539 -1.25859,1.0681 -0.499656,0.312191 -1.00271,0.552948 -1.51371,0.7132 -0.510995,0.160631 -1.09456,0.240757 -1.75787,0.240757 -1.10212,0 -2.05532,-0.173103 -2.8562,-0.51931 -0.800886,-0.346206 -1.46042,-0.814492 -1.98275,-1.39692 -0.518554,-0.586964 -0.911249,-1.279 -1.16675,-2.0727 -0.255497,-0.797862 -0.385136,-1.65884 -0.385136,-2.59164 0,-0.839815 0.140977,-1.64599 0.419152,-2.41853 0.278931,-0.768382 0.675027,-1.45626 1.19018,-2.0557 0.506837,-0.586586 1.14369,-1.05941 1.91396,-1.42224 0.770272,-0.363214 1.63579,-0.544633 2.58899,-0.544633 1.04127,0 1.89922,0.139465 2.56631,0.418018 0.67087,0.28271 1.22797,0.67087 1.6664,1.16486 0.423309,0.468664 0.73172,1.02161 0.926367,1.663 0.194647,0.637232 0.289891,1.30848 0.289891,2.00921l0 0.80202 -7.55002 0c0,1.69248 0.293671,2.97564 0.881012,3.85778 0.590743,0.882146 1.52505,1.32549 2.80631,1.32549 0.697704,0 1.327,-0.210899 1.88751,-0.637232 0.556727,-0.426333 1.03333,-0.962651 1.43018,-1.61273l0.84624 0.67994zm-4.26673 -4.69798c0,-0.498144 -0.0230552,-1.0046 -0.0650082,-1.52391 -0.0457325,-0.51931 -0.125481,-0.941107 -0.236222,-1.27484 -0.125859,-0.384002 -0.30123,-0.679562 -0.518554,-0.877611 -0.221481,-0.194269 -0.499656,-0.295561 -0.831122,-0.295561 -0.576003,0 -1.03371,0.320884 -1.37689,0.96643 -0.343183,0.641767 -0.526113,1.65884 -0.556727,3.05198l3.58452 -0.0464884zm18.1123 7.3909c-0.328065,0.160253 -0.71698,0.303876 -1.16334,0.434648 -0.445986,0.130772 -0.918808,0.198426 -1.41809,0.198426 -0.915028,0 -1.59006,-0.151938 -2.02092,-0.451656 -0.434648,-0.299718 -0.728319,-0.730208 -0.884792,-1.29185l-0.0650082 0c-0.255119,0.278931 -0.499278,0.51931 -0.732098,0.717736 -0.236222,0.198426 -0.487939,0.367372 -0.754775,0.506459 -0.35112,0.181418 -0.686366,0.316726 -1.01065,0.40101 -0.323907,0.0888193 -0.777831,0.130772 -1.35724,0.130772 -0.865894,0 -1.60177,-0.28271 -2.21179,-0.84813 -0.610019,-0.565798 -0.918808,-1.31301 -0.918808,-2.24581 0,-0.53594 0.0687877,-0.987596 0.202206,-1.36328 0.133418,-0.375687 0.323907,-0.709043 0.571845,-0.996288 0.221103,-0.265702 0.48038,-0.481136 0.774051,-0.65424 0.293671,-0.172725 0.617578,-0.337514 0.968698,-0.485294 0.66709,-0.270238 1.47138,-0.552948 2.40984,-0.843973 0.941485,-0.295561 1.62407,-0.557483 2.05872,-0.78539l0 -1.19018c0,-0.206741 -0.0151182,-0.476979 -0.0457325,-0.814492 -0.0302364,-0.337891 -0.0952446,-0.624759 -0.190489,-0.852666 -0.103182,-0.26608 -0.266836,-0.485672 -0.492097,-0.66709 -0.224883,-0.181418 -0.518554,-0.274395 -0.880634,-0.274395 -0.328065,0 -0.60246,0.0506459 -0.823563,0.156095 -0.217324,0.10167 -0.396474,0.207119 -0.529892,0.312569 0.0226773,0.168946 0.0876855,0.418018 0.190489,0.755531 0.103182,0.337514 0.156095,0.662555 0.156095,0.979281 0,0.139087 -0.0340159,0.312191 -0.0990241,0.523467 -0.0684098,0.210899 -0.163654,0.379844 -0.293293,0.502302 -0.171969,0.16441 -0.362459,0.291025 -0.572223,0.384002 -0.213544,0.0884414 -0.541231,0.13493 -0.979658,0.13493 -0.625515,0 -1.09834,-0.168568 -1.41884,-0.502302 -0.320128,-0.333356 -0.48038,-0.768004 -0.48038,-1.30432 0,-0.459971 0.167812,-0.873453 0.499656,-1.24083 0.327687,-0.366994 0.732098,-0.671247 1.2087,-0.911627 0.469042,-0.244915 1.01065,-0.439183 1.62029,-0.574113 0.610019,-0.13493 1.17846,-0.202584 1.7008,-0.202584 0.72076,0 1.38407,0.0464884 1.98691,0.139465 0.602082,0.0967564 1.14747,0.291025 1.63201,0.590743 0.461105,0.286868 0.827343,0.704885 1.09796,1.25368 0.274395,0.54879 0.408191,1.26199 0.408191,2.14414 0,0.932792 -0.0154961,2.03869 -0.0495121,3.31353 -0.0347718,1.279 -0.0495121,2.11881 -0.0495121,2.52398 0,0.371529 0.0495121,0.662932 0.148536,0.877989 0.102804,0.215434 0.255119,0.375687 0.465262,0.481136 0.125481,0.0676539 0.323907,0.105827 0.59868,0.1183 0.270616,0.0128505 0.518554,0.0211655 0.743437,0.0211655l0 0.899154zm-5.55215 -6.44148c-0.419152,0.156473 -0.831122,0.337891 -1.24271,0.540475 -0.408191,0.198426 -0.743815,0.413482 -1.00309,0.633074 -0.278175,0.232064 -0.491719,0.527625 -0.648192,0.886304 -0.156473,0.359057 -0.2366,0.780854 -0.2366,1.26653 0,0.645547 0.133418,1.11005 0.396852,1.39692 0.266836,0.291403 0.591121,0.435026 0.980036,0.435026 0.407813,0 0.743437,-0.0929768 1.01065,-0.278931 0.262678,-0.185576 0.495121,-0.413482 0.697326,-0.687877l0.0457325 -4.19152zm11.5805 7.1252c-0.72076,0 -1.42602,-0.1183 -2.11617,-0.354521 -0.686366,-0.2366 -1.2242,-0.485672 -1.60177,-0.747216l-0.335246 0.839815 -0.873453 0 -0.144757 -4.61331 0.816004 0c0.110741,0.371529 0.29745,0.789169 0.560507,1.25783 0.259277,0.464128 0.556727,0.882146 0.892351,1.25368 0.350742,0.371529 0.751374,0.68372 1.20114,0.941107 0.449766,0.25323 0.934304,0.384002 1.44492,0.384002 0.678807,0 1.18224,-0.147402 1.51409,-0.438805 0.331466,-0.295561 0.499656,-0.747216 0.499656,-1.35497 0,-0.329199 -0.0767248,-0.603594 -0.225261,-0.81865 -0.148914,-0.211277 -0.354521,-0.396852 -0.613798,-0.552948 -0.289891,-0.168946 -0.610019,-0.308411 -0.956981,-0.422175 -0.343183,-0.114142 -0.770272,-0.257387 -1.27749,-0.422175 -0.507215,-0.16441 -0.941863,-0.329199 -1.30054,-0.498144 -0.362081,-0.168568 -0.7355,-0.434648 -1.12442,-0.797484 -0.335624,-0.320884 -0.602838,-0.709421 -0.805043,-1.16523 -0.198048,-0.451656 -0.300852,-0.991753 -0.300852,-1.62067 0,-1.1607 0.442207,-2.10218 1.32284,-2.81538 0.884792,-0.717736 2.0402,-1.07641 3.47,-1.07641 0.678807,0 1.30016,0.0759689 1.87239,0.227907 0.568444,0.151938 1.04882,0.320884 1.43396,0.498144l0.236222 -0.726051 0.84624 0 0.179528 4.21684 -0.793327 0c-0.259277,-0.856823 -0.705263,-1.59988 -1.33834,-2.22048 -0.632696,-0.624381 -1.31566,-0.932792 -2.04398,-0.932792 -0.575625,0 -1.02577,0.13115 -1.35346,0.392695 -0.328065,0.265702 -0.492097,0.633074 -0.492097,1.10174 0,0.628917 0.240379,1.08057 0.72076,1.35912 0.48038,0.28271 1.15163,0.544255 2.01752,0.793327 1.33418,0.379844 2.30666,0.894997 2.92839,1.55339 0.617578,0.65424 0.926367,1.4899 0.926367,2.50319 0,1.35043 -0.48038,2.39737 -1.43774,3.14005 -0.956981,0.743059 -2.20385,1.11459 -3.74818,1.11459zm12.9378 -0.025323c-1.03711,0 -1.94836,-0.168946 -2.74131,-0.502302 -0.793327,-0.333356 -1.44908,-0.789547 -1.96385,-1.36782 -0.510995,-0.582428 -0.896131,-1.27446 -1.14785,-2.07648 -0.255497,-0.797862 -0.381356,-1.66716 -0.381356,-2.60864 0,-0.856823 0.156473,-1.67132 0.465262,-2.44801 0.308789,-0.776697 0.728319,-1.45626 1.25481,-2.03869 0.545011,-0.603594 1.21966,-1.08473 2.0281,-1.44379 0.808445,-0.358679 1.7008,-0.53594 2.67705,-0.53594 1.36895,0 2.45179,0.286868 3.2489,0.856823 0.796728,0.574113 1.19698,1.34665 1.19698,2.3214 0,0.591121 -0.144757,1.07226 -0.426711,1.43509 -0.282332,0.359057 -0.770272,0.540475 -1.46457,0.540475 -0.556349,0 -1.02577,-0.14778 -1.39919,-0.443341 -0.377577,-0.295183 -0.564286,-0.68372 -0.564286,-1.1607 0,-0.405167 0.0570712,-0.806177 0.179151,-1.20303 0.1183,-0.392317 0.190489,-0.696192 0.209765,-0.898776 -0.0805043,-0.151938 -0.183308,-0.261923 -0.312946,-0.342049 -0.125481,-0.0801264 -0.323907,-0.1183 -0.591121,-0.1183 -0.335624,0 -0.640255,0.0888193 -0.915028,0.261923 -0.274395,0.173103 -0.533672,0.476979 -0.770272,0.911627 -0.232442,0.413482 -0.415372,0.96643 -0.55257,1.65884 -0.137198,0.692035 -0.210143,1.52354 -0.210143,2.49866 0,1.46911 0.312946,2.65097 0.934304,3.54975 0.621735,0.899154 1.36517,1.34665 2.23107,1.34665 0.823185,0 1.48309,-0.202584 1.97103,-0.611909 0.488317,-0.409703 0.919186,-0.987973 1.30054,-1.73935l0.838681 0.645925c-0.23282,0.502302 -0.507215,0.962273 -0.827343,1.37613 -0.320506,0.41764 -0.705641,0.785012 -1.15201,1.11005 -0.468664,0.337514 -0.945265,0.590743 -1.42942,0.763846 -0.484538,0.173103 -1.04467,0.261923 -1.68568,0.261923z"
   style="fill:#ffd700;fill-opacity:1" />
    <path
   id="_188494464"
   class="fil2"
   d="M277.629 195.785c-0.328065,0.160253 -0.71698,0.303876 -1.16297,0.434648 -0.445986,0.130772 -0.918808,0.198426 -1.41846,0.198426 -0.915028,0 -1.59006,-0.151938 -2.02092,-0.451656 -0.434648,-0.299718 -0.728319,-0.730208 -0.884792,-1.29185l-0.0646302 0c-0.255497,0.278931 -0.499656,0.51931 -0.732098,0.717736 -0.236222,0.198426 -0.487939,0.367372 -0.755153,0.506459 -0.350742,0.181418 -0.685988,0.316726 -1.01065,0.40101 -0.323907,0.0888193 -0.777831,0.130772 -1.35724,0.130772 -0.865894,0 -1.60139,-0.28271 -2.21179,-0.84813 -0.610019,-0.565798 -0.918808,-1.31301 -0.918808,-2.24581 0,-0.53594 0.0687877,-0.987596 0.202206,-1.36328 0.133418,-0.375687 0.323907,-0.709043 0.571845,-0.996288 0.221481,-0.265702 0.48038,-0.481136 0.774051,-0.65424 0.293671,-0.172725 0.617956,-0.337514 0.968698,-0.485294 0.66709,-0.270238 1.47176,-0.552948 2.40984,-0.843973 0.941863,-0.295561 1.62445,-0.557483 2.0591,-0.78539l0 -1.19018c0,-0.206741 -0.0151182,-0.476979 -0.0457325,-0.814492 -0.0306143,-0.337891 -0.0952446,-0.624759 -0.190867,-0.852666 -0.102804,-0.26608 -0.266836,-0.485672 -0.491719,-0.66709 -0.225261,-0.181418 -0.518932,-0.274395 -0.881012,-0.274395 -0.327687,0 -0.60246,0.0506459 -0.823563,0.156095 -0.217324,0.10167 -0.396474,0.207119 -0.529892,0.312569 0.0230552,0.168946 0.0876855,0.418018 0.190489,0.755531 0.103182,0.337514 0.156473,0.662555 0.156473,0.979281 0,0.139087 -0.0343939,0.312191 -0.0990241,0.523467 -0.0687877,0.210899 -0.164032,0.379844 -0.293671,0.502302 -0.171591,0.16441 -0.362459,0.291025 -0.571845,0.384002 -0.213922,0.0884414 -0.541609,0.13493 -0.980036,0.13493 -0.625515,0 -1.09834,-0.168568 -1.41846,-0.502302 -0.320506,-0.333356 -0.480758,-0.768004 -0.480758,-1.30432 0,-0.459971 0.167812,-0.873453 0.499656,-1.24083 0.327687,-0.366994 0.732098,-0.671247 1.2087,-0.911627 0.469042,-0.244915 1.01065,-0.439183 1.62067,-0.574113 0.610019,-0.13493 1.17808,-0.202584 1.70042,-0.202584 0.72076,0 1.38445,0.0464884 1.98691,0.139465 0.60246,0.0967564 1.14747,0.291025 1.63201,0.590743 0.461483,0.286868 0.827343,0.704885 1.09796,1.25368 0.274773,0.54879 0.408191,1.26199 0.408191,2.14414 0,0.932792 -0.0154961,2.03869 -0.0495121,3.31353 -0.0343939,1.279 -0.0495121,2.11881 -0.0495121,2.52398 0,0.371529 0.0495121,0.662932 0.148536,0.877989 0.103182,0.215434 0.255497,0.375687 0.465262,0.481136 0.125859,0.0676539 0.324285,0.105827 0.59868,0.1183 0.270616,0.0128505 0.518554,0.0211655 0.743437,0.0211655l0 0.899154zm-5.55178 -6.44148c-0.41953,0.156473 -0.831122,0.337891 -1.24309,0.540475 -0.407813,0.198426 -0.743437,0.413482 -1.00309,0.633074 -0.278175,0.232064 -0.491719,0.527625 -0.647814,0.886304 -0.156473,0.359057 -0.2366,0.780854 -0.2366,1.26653 0,0.645547 0.133418,1.11005 0.396474,1.39692 0.267214,0.291403 0.591121,0.435026 0.980036,0.435026 0.407813,0 0.743815,-0.0929768 1.01065,-0.278931 0.263056,-0.185576 0.495499,-0.413482 0.697704,-0.687877l0.0457325 -4.19152zm2.33349 -12.2404c-0.18671,1.5995 -0.571845,2.81538 -1.15541,3.65104 -0.587342,0.839815 -1.4298,1.25783 -2.53154,1.25783 -1.06394,0 -1.90678,-0.426333 -2.52058,-1.27484 -0.613798,-0.84813 -1.00271,-2.05985 -1.16712,-3.63403l0.793327 -0.198426c0.106583,0.396852 0.228663,0.772539 0.370018,1.13538 0.140977,0.362836 0.312569,0.675405 0.514396,0.928635 0.221481,0.278553 0.484538,0.498144 0.781988,0.650082 0.29745,0.151938 0.705263,0.227907 1.22797,0.227907 0.438427,0 0.827343,-0.0676539 1.16637,-0.211277 0.339403,-0.139087 0.617956,-0.349986 0.8315,-0.628917 0.209765,-0.265702 0.385136,-0.573735 0.522333,-0.932792 0.137575,-0.358679 0.259277,-0.751374 0.373797,-1.16901l0.792949 0.198426z"
   style="fill:#ffd700;fill-opacity:1" />
   </g>
  </g>
 </g>
</svg>