<?xml version="1.0" encoding="UTF-8" standalone="no"?>
<svg
   version="1.1"
   width="1200"
   height="600"
   id="svg3"
   sodipodi:docname="Flag_of_the_Azerbaijan_Soviet_Socialist_Republic_(1940-1952).svg"
   inkscape:version="1.3 (0e150ed6c4, 2023-07-21)"
   xmlns:inkscape="http://www.inkscape.org/namespaces/inkscape"
   xmlns:sodipodi="http://sodipodi.sourceforge.net/DTD/sodipodi-0.dtd"
   xmlns="http://www.w3.org/2000/svg"
   xmlns:svg="http://www.w3.org/2000/svg">
  <defs
     id="defs3" />
  <sodipodi:namedview
     id="namedview3"
     pagecolor="#ffffff"
     bordercolor="#000000"
     borderopacity="0.25"
     inkscape:showpageshadow="2"
     inkscape:pageopacity="0.0"
     inkscape:pagecheckerboard="0"
     inkscape:deskcolor="#d1d1d1"
     inkscape:zoom="0.93"
     inkscape:cx="600"
     inkscape:cy="299.46237"
     inkscape:window-width="1920"
     inkscape:window-height="1007"
     inkscape:window-x="-9"
     inkscape:window-y="-9"
     inkscape:window-maximized="1"
     inkscape:current-layer="svg3" />
  <path
     d="M0 0h1200v600H0z"
     fill="#bc0000"
     id="path1" />
  <g
     fill="#fcd116"
     transform="matrix(1.05885053, 0, 0, 1.05885053, 24.04688512, -7.94795294)"
     id="g3">
    <path
       d="m 119.96333,96.59333 c 159.07167,-24.195 126.48831,181.3981 10.20998,107.29477 l 1.87804,-2.85621 -8.30562,-7.42646 -2.56325,2.22893 -5.19871,-4.61908 -6.2486,5.69292 4.15944,5.19392 c -5.18,4.36166 -18.57461,16.01455 -20.452943,18.73455 -8.008334,9.99666 7.080003,22.86 14.540003,14.66166 2.93,-2.31666 10.81833,-14.65333 16.06333,-22.29 13.37,14.06 31.58333,23.87667 56.08667,23.43167 5.48166,-0.1 37.57666,-1.41167 58.1,-35.85 C 253.245,175.59167 248.925,137.75167 222.025,111.62667 192.80833,83.24833 149.12,85.45333 119.96333,96.59333 Z"
       id="path2" />
    <path
       d="m 157.24167,137.8343 20.13333,-20.19 -6.65333,-6.20667 -26.37,-1.82 -37.72167,35.23334 21.21167,21.02666 18.15,-16.88 c 27.61166,28.71167 79.62333,83.23834 83.80666,87.96667 4.18334,4.73 17.02667,-6.45167 12.74667,-11.39 -4.28,-4.93667 -66.22,-71.11667 -85.30333,-87.74 z"
       id="path3" />
  </g>
  <path
     style="font-weight:bold;font-size:80px;font-family:'Century Schoolbook';text-anchor:middle;fill:#fcd116"
     d="m 93.414627,281.26041 21.679683,51.79687 q 0.9375,2.1875 2.03125,2.96875 1.09375,0.78125 2.89063,0.78125 h 2.10937 v 3.63281 H 95.01619 v -3.63281 h 2.539062 q 3.007808,0 4.140628,-0.66406 1.13281,-0.66406 1.13281,-1.75781 0,-0.85938 -0.46875,-1.99219 l -4.492188,-10.70313 h -21.5625 l -2.109375,4.88282 q -1.289062,3.04687 -1.289062,4.53125 0,2.53906 1.875,4.14062 1.875,1.5625 5.117187,1.5625 h 1.835938 v 3.63281 H 59.820877 v -3.63281 h 1.25 q 2.109375,0 3.710938,-1.32812 2.265625,-1.875 3.515625,-4.80469 l 20.742187,-49.41406 z m -6.289062,14.60937 -9.21875,21.99219 H 96.26619 Z m 41.914065,16.60156 -2.5,-1.28906 q 5.50781,-9.375 17.34375,-9.375 7.10937,0 11.40625,2.8125 4.33593,2.8125 4.33593,7.1875 0,3.71094 -3.32031,6.09375 -3.32031,2.38281 -8.28125,2.65625 5.54688,0 9.25781,2.53906 3.71094,2.5 3.71094,7.34375 0,5.74219 -5.42969,8.47657 -5.42968,2.69531 -12.89062,2.69531 -8.00781,0 -12.89063,-2.73438 -4.88281,-2.73437 -4.88281,-7.73437 0,-2.61719 1.5625,-4.53125 1.5625,-1.91406 4.0625,-1.91406 2.38281,0 3.78906,1.48437 1.40625,1.48438 1.40625,3.86719 0,1.44531 -0.97656,3.32031 -0.85937,1.5625 -0.85937,2.07031 0,1.05469 1.91406,1.83594 1.95312,0.74219 4.80469,0.74219 9.64843,0 9.64843,-7.38281 0,-7.85157 -8.4375,-7.85157 h -2.42187 v -3.16406 h 1.32812 q 8.28125,0 8.28125,-6.67969 0,-7.30468 -7.96875,-7.30468 -7.10937,0 -11.99218,6.83593 z m 84.57031,-25.46875 2.69531,-5.74218 h 2.89063 l 0.97656,23.16406 h -3.59375 q -1.67969,-10 -6.32813,-14.84375 -4.64843,-4.84375 -10.625,-4.84375 -6.5625,0 -10.85937,6.25 -4.29688,6.25 -4.29688,19.72656 0,14.25781 4.72657,21.17188 3.78906,5.42968 11.17187,5.42968 7.38281,0 12.42188,-5.42968 3.63281,-3.94532 5.07812,-11.64063 h 3.51563 q -1.25,9.88281 -7.53907,15.625 -6.28906,5.74219 -15.46875,5.74219 -11.875,0 -19.92187,-8.35938 -8.00781,-8.39843 -8.00781,-21.48437 0,-14.53125 9.25781,-23.20313 7.89062,-7.38281 18.47656,-7.38281 4.17969,0 7.73438,1.32813 3.59375,1.28906 7.69531,4.49218 z m 62.22656,0 2.69531,-5.74218 h 2.89063 l 0.97656,23.16406 h -3.59375 q -1.67969,-10 -6.32812,-14.84375 -4.64844,-4.84375 -10.625,-4.84375 -6.5625,0 -10.85938,6.25 -4.29687,6.25 -4.29687,19.72656 0,14.25781 4.72656,21.17188 3.78906,5.42968 11.17187,5.42968 7.38282,0 12.42188,-5.42968 3.63281,-3.94532 5.07812,-11.64063 h 3.51563 q -1.25,9.88281 -7.53906,15.625 -6.28907,5.74219 -15.46875,5.74219 -11.875,0 -19.92188,-8.35938 -8.00781,-8.39843 -8.00781,-21.48437 0,-14.53125 9.25781,-23.20313 7.89063,-7.38281 18.47656,-7.38281 4.17969,0 7.73438,1.32813 3.59375,1.28906 7.69531,4.49218 z m 17.73438,-4.33593 H 327.399 q 8.59375,0 13.82813,4.60937 5.23437,4.60938 5.23437,11.28906 0,5.07813 -3.04687,8.90625 -3.00782,3.78907 -8.125,5.50782 -5.07813,1.71875 -10.07813,1.71875 h -10.70312 v 18.82812 q 0,1.5625 0.89843,2.42188 0.89844,0.85937 2.30469,0.85937 h 6.64063 v 3.63281 h -30.78125 v -3.63281 h 5.15625 q 1.71875,0 2.57812,-0.85937 0.89844,-0.85938 0.89844,-2.42188 v -44.02344 q 0,-1.48437 -0.89844,-2.34375 -0.89844,-0.85937 -2.1875,-0.85937 h -5.54687 z m 20.9375,28.47656 h 7.14843 q 3.75,0 6.64063,-1.60156 2.92969,-1.60157 4.14062,-3.86719 1.25,-2.30469 1.25,-7.42188 0,-7.03125 -3.78906,-9.92187 -2.77344,-2.07031 -9.45312,-2.07031 -3.86719,0 -4.92188,0.66406 -1.01562,0.625 -1.01562,2.1875 z"
     id="text3"
     aria-label="AзССР" />
</svg>
