<?xml version="1.0" encoding="UTF-8" standalone="no"?>
<svg
   height="300"
   style="enable-background:new 0 0 576 287.889;shape-rendering:geometricPrecision;text-rendering:geometricPrecision;image-rendering:optimizeQuality;fill-rule:evenodd;clip-rule:evenodd"
   viewBox="0 0 600 300"
   width="600"
   version="1.1"
   id="svg18"
   sodipodi:docname="Flag_of_the_Moldavian_Soviet_Socialist_Republic_(1941-1952).svg"
   inkscape:version="1.1.1 (3bf5ae0d25, 2021-09-20)"
   xmlns:inkscape="http://www.inkscape.org/namespaces/inkscape"
   xmlns:sodipodi="http://sodipodi.sourceforge.net/DTD/sodipodi-0.dtd"
   xmlns="http://www.w3.org/2000/svg"
   xmlns:svg="http://www.w3.org/2000/svg">
  <defs
     id="defs22" />
  <sodipodi:namedview
     id="namedview20"
     pagecolor="#ffffff"
     bordercolor="#666666"
     borderopacity="1.0"
     inkscape:pageshadow="2"
     inkscape:pageopacity="0.0"
     inkscape:pagecheckerboard="0"
     showgrid="false"
     inkscape:zoom="1.9783333"
     inkscape:cx="286.35215"
     inkscape:cy="150.12637"
     inkscape:window-width="1920"
     inkscape:window-height="1007"
     inkscape:window-x="-9"
     inkscape:window-y="-9"
     inkscape:window-maximized="1"
     inkscape:current-layer="svg18" />
  <path
     d="m0 0h600v300h-600z"
     fill="#c00"
     id="path2"
     style="fill:#be000d;fill-opacity:1" />
  <g
     fill="#ffd700"
     id="g16"
     style="fill:#fcd20f;fill-opacity:1">
    <path
       d="m33.2465 45.2242c.1848-.1671.3069-.2699.364-.3062.3938-.2449 1.0571-.6251 1.9892-1.138.4818-.2838.811-.4788.983-.5881.2551-.1591.7771-.5189 1.567-1.0821l2.8339-2.0277c.7291-.5578 1.6059-1.1569 2.6358-1.8009 1.8161-1.1339 3.4349-1.7601 4.8541-1.8781 1.4219-.1179 2.7919.2302 4.1129 1.047 1.3209.8171 2.3471 1.81 3.0769 2.9779 1.2182 1.9521 1.6339 4.0331 1.2461 6.2449-.3881 2.211-1.6569 3.987-3.8079 5.3299-.6028.3768-1.1459.6251-1.6331.7468-.4849.1221-1.1051.1599-1.858.1119-.3209-.0231-.5601-.1089-.7128-.254-.0099-.1161.0158-.2181.0729-.3062.1622-.102.3542-.1678.573-.2018.486-.0979 1.0299-.333 1.632-.7079.9139-.5699 1.6271-1.3538 2.1411-2.3459.5129-.9929.6969-2.0682.556-3.224-.1429-1.155-.5239-2.2291-1.1449-3.2239-.6051-.9698-1.4139-1.7741-2.4241-2.414-1.0099-.6391-2.044-1.008-3.103-1.1082-.5991-.0578-1.383.0692-2.3539.381-.9699.313-1.6872.6131-2.1479.9011-1.4351.8961-2.2141 1.5378-2.3411 1.9279l.1459.2721 1.3848 2.0629.217.3851c.1859.3511.497.8738.9309 1.5689 1.5828 2.5361 2.6041 4.0929 3.061 4.67l.652 1.0439 5.5449 8.38c.0779.1251.2072.3639.3871.7181.181.353.3499.6538.5041.9021.372.598.7019 1.022.9892 1.2749.3318-.0862 1.2699-.387 2.8131-.9011.7249-.2279 1.1251-.3481 1.1969-.3579.1149-.0212.2472.0098.395.0911.0699.2162.085.3749.045.4781-.0401.1039-.1701.2241-.3901.3598-.1398.087-.4819.2582-1.0299.5129-1.0639.5099-1.8799.94-2.4469 1.2941l-2.9718 2.0372-1.8569 1.0821c-.1149.0718-.4418.294-.9812.6659l-.3201-.4739 1.9639-1.8739c.3-.3432.4558-.5949.4671-.7582.0079-.2461-.147-.624-.4671-1.1331-.0692-.1119-.2162-.3579-.437-.7381-.1511-.2692-.3711-.632-.658-1.092-.9161-1.4679-2.925-4.5581-6.0291-9.2711-1.4419-2.208-2.886-4.4689-4.3298-6.7809l-.1969-.316c-.5602-.8961-1.039-1.381-1.4412-1.4581-.6841-.144-1.9631.1878-3.8381.9959-.144-.102-.2419-.1939-.2959-.2808-.0643-.1013-.1032-.2415-.1191-.4214z"
       id="path4"
       style="fill:#fcd20f;fill-opacity:1" />
    <path
       d="m88.1257 24.0554c.409 1.0632.7438 2.174 1.0061 3.3309.0522.2291.1149.5371.189.926-.178.085-.3129.138-.4051.1591-.0802.0189-.1962.0291-.3489.0352-.9381-1.544-2.1419-2.623-3.6079-3.2361-1.468-.613-3.134-.7079-4.9962-.2868-.9842.2241-1.7889.534-2.4129.9301-1.0968.714-2.0099 1.5628-2.7371 2.5459-.7291.9831-1.2832 2.0852-1.6641 3.3071-.3821 1.2212-.5809 2.64-.5991 4.258-.0181 1.618.1538 3.227.5182 4.8268.692 3.0569 1.697 5.4819 3.0142 7.279 1.316 1.7961 2.8229 2.9481 4.5199 3.4579 1.697.5091 3.3101.59 4.8401.2419l.9339-.2328c1.0318-.384 1.7269-.6849 2.0829-.8999.9029-.5201 1.6248-1.0549 2.1649-1.6052s1.0281-1.2669 1.465-2.146c.438-.8799.757-1.861.9588-2.9431l.22-.1399c.0662-.0151.1769.005.3281.062.0638.3459.102.57.1111.6732-.0121 2.5409-.0431 4.281-.096 5.2248-.1999.1051-.4471.2521-.74.438-1.4272.9241-3.4451 1.6819-6.053 2.2719-2.104.4781-3.71.6799-4.8249.61-1.115-.0699-2.36-.291-3.738-.6622-1.378-.3711-2.654-.986-3.829-1.8459-1.1739-.8598-2.2322-2.0421-3.176-3.549-.9418-1.505-1.632-3.222-2.07-5.1488-.4139-1.8282-.5499-3.476-.4059-4.9421s.528-3.007 1.155-4.6209c.627-1.6131 1.4789-3.0289 2.5531-4.25 1.0718-1.2189 2.352-2.199 3.8339-2.9401 1.0462-.5069 2.5792-.9899 4.6031-1.4491 1.4771-.3341 2.9159-.4392 4.3151-.313 1.3954.1229 2.3615.3338 2.8917.6331z"
       id="path6"
       style="fill:#fcd20f;fill-opacity:1" />
    <path
       d="m126.215 24.9372c.0631 1.138.042 2.2979-.0631 3.479-.0212.2329-.0571.5469-.104.9389-.1931.0268-.339.0359-.4338.0268-.0821-.0079-.1962-.0321-.3432-.0741-.4199-1.7571-1.2329-3.1521-2.4409-4.1869-1.2079-1.033-2.7628-1.6351-4.665-1.804-1.005-.0888-1.8649-.0408-2.5799.1459-1.2632.3439-2.391.8719-3.385 1.5851s-1.8591 1.592-2.595 2.637c-.7359 1.0439-1.3599 2.3339-1.8732 3.8691-.514 1.5349-.8428 3.12-.986 4.7531-.2771 3.1219-.065 5.7389.6368 7.8531.7019 2.1139 1.7821 3.6722 3.2391 4.6761 1.4581 1.0038 2.9669 1.5749 4.529 1.7151l.9589.0631c1.099-.0499 1.8508-.1228 2.2571-.2188 1.019-.2181 1.869-.5068 2.5512-.8651.6818-.3572 1.3651-.8901 2.0511-1.5939.686-.7037 1.29-1.5401 1.8142-2.5069l.2521-.0662c.068.0061.1659.0601.2941.1592-.045.3488-.079.5741-.1032.6738-.7881 2.4152-1.3531 4.063-1.6899 4.944-.2229.039-.5019.1021-.8379.189-1.6418.4418-3.792.5462-6.4539.3111-2.146-.1901-3.738-.4898-4.7758-.898-1.0379-.4082-2.1551-1.0001-3.3529-1.7741-1.1969-.7752-2.2238-1.7522-3.0761-2.9322-.8542-1.1781-1.499-2.6279-1.934-4.351-.4369-1.7219-.5662-3.5671-.3919-5.537.1659-1.8671.5408-3.4772 1.1259-4.8291.585-1.3519 1.4241-2.7001 2.516-4.0441 1.0912-1.344 2.3339-2.4321 3.7289-3.264 1.3962-.8319 2.911-1.3739 4.5479-1.626 1.1501-.1621 2.7579-.1511 4.8219.0299 1.5069.1349 2.9069.4758 4.1999 1.0231 1.2956.553 2.1486 1.0511 2.5606 1.499z"
       id="path8"
       style="fill:#fcd20f;fill-opacity:1" />
    <path
       d="m130.329 51.6463c.5159-.0831 1.296.0669 2.341.4502.7862.35 1.2779.5098 1.4782.4789.1368-.028.26-.09.367-.183.429-.3919 1.2291-1.635 2.403-3.7341 1.5232-2.727 3.5819-6.3402 6.175-10.8401 1.9862-3.428 3.202-5.5801 3.6469-6.4551l.2589-.5091c-.7752-.641-2.055-1.5541-3.8389-2.7401-.0219-.2582-.0072-.4381.0461-.5431.0329-.0639.1361-.1611.3069-.288.2472.0268.426.068.5341.1239.0979.0492.297.1848.6002.4022.5491.3949 1.3458.856 2.392 1.3878.3402.1731.937.443 1.79.813.604.257.9419.4029 1.0152.4399.1939.1002.4021.2461.6251.4411.056.1909.0832.3628.0839.511l-.17 2.231-1.0731 14.8872-.4841 6.237c3.515-2.733 6.4509-5.2611 8.8078-7.5791.1671-.1791.336-.3299.508-.4569.223-.1671.4509-.3621.6879-.587.2369-.226 1.1629-1.0688 2.7779-2.5319.6501-.5888 1.194-1.1029 1.6309-1.5379 1.7548-1.7371 2.77-2.7262 3.044-2.9639.2759.025.5001.082.6709.1678.1939.099.4369.2389.7279.4192.6611.3859 1.7579.9671 3.289 1.7461.9479.4811 1.7329.8651 2.3539 1.146-.0492.1561-.0888.2679-.1229.3318-.0468.093-.1281.2071-.2441.3458-.5019.0231-1.033-.0899-1.5931-.3432-1.115-.483-1.8489-.7411-2.2001-.771-.3511-.0298-.613.0242-.785.1678-.1719.1429-.5469.7079-1.1251 1.6959l-.4392.909-.4959.9332c-.9959 1.9589-2.62 5.275-4.8729 9.9488l-1.9711 3.8302-1.2351 2.479c-.491.966-.7389 1.559-.7438 1.779-.005.2188.1538.5091.4758.87.5371.5681 1.4831 1.3539 2.8399 2.3551.053.1081.0522.215-.0011.3201-.0601.1172-.1319.2449-.2169.3821l-.8391-.426c-.717-.3639-1.4831-.7831-2.2991-1.254-.8148-.4728-1.254-.7249-1.3141-.754-2.4911-1.268-4.1571-2.081-4.9992-2.442-.5189-.215-.8451-.356-.9782-.4229-.085-.0431-.164-.116-.2339-.2169l.1289-.2559c.0608-.1172.1421-.2309.2441-.344.494.0212 1.104.1739 1.8301.4611.8791.1671 1.559.2162 2.036.1471.361-.4411.9309-1.4249 1.708-2.9541l1.957-3.9851c.2189-.4309.6478-1.2239 1.2888-2.377.6411-1.152 1.6339-3.0569 2.9821-5.7078 1.067-2.103 1.8289-3.721 2.2821-4.8541-.4381.3519-1.3512 1.138-2.7341 2.3562l-.652.6051-.0971.099-6.1849 5.486-2.3111 2.1539-2.8921 2.572c-1.2972 1.1981-2.4292 2.267-3.396 3.2051-.4369.4369-.785.7759-1.0461 1.0208l-.4101-.2321c.816-5.009 1.4249-10.2621 1.827-15.761.3999-5.4988.587-9.168.5579-11.0078-.3829.5121-1.321 2.0889-2.8162 4.73-1.8311 3.2111-3.7519 6.796-5.7649 10.7532-.6312 1.2408-1.2559 2.6831-1.875 4.3219-.178.469-.169.8881.0249 1.2578.1939.3696.9169.8901 2.168 1.559.486.2472.9279.5209 1.3258.821-.0158.2388-.0449.4051-.0911.497-.0328.065-.1201.161-.2611.2868l-5.562-3.098c-.4138-.2102-1.0741-.505-1.982-.8841-.506-.2079-1.2189-.5371-2.1369-.9868z"
       id="path10"
       style="fill:#fcd20f;fill-opacity:1" />
    <path
       d="m103.263 63.5292c16.8104 6.075 27.3647 20.2418 27.4454 30.6101.1793 22.9515-24.8759 34.0488-41.0275 15.5516l-1.1315.8324.2846 1.9789c-3.5458-.3362-7.1745 7.4211-9.9511 9.5996-3.1107 3.3898-7.7456-.2258-4.4057-4.3591 2.5795-3.709 8.6355-5.3856 9.6345-9.9628l1.8698.1415 1.6412-1.6874 1.4749.2766 1.972-2.0361c15.7077 16.6423 36.2762 3.2253 32.325-12.8134-1.1563-12.6961-9.5078-19.9434-20.1316-28.1319z"
       id="path12"
       style="fill:#fcd20f;fill-opacity:1" />
    <path
       d="m77.451 83.1784 6.9849 7.0308 5.6273-5.8592c12.6384 13.0599 25.2768 26.1194 37.9153 39.179 2.8056-.6377 4.3162-1.7268 5.213-4.9769l-38.9597-38.3033 7.8623-7.0311-11.4486-3.1249z"
       id="path14"
       style="fill:#fcd20f;fill-opacity:1" />
  </g>
</svg>
