<svg xmlns="http://www.w3.org/2000/svg" xmlns:xlink="http://www.w3.org/1999/xlink" height="300" width="600" xmlns:v="https://vecta.io/nano"><style><![CDATA[.B{fill-opacity:.941}.C{stroke-opacity:.941}.D{fill:#d4aa00}.E{stroke:#d4aa00}.F{fill:#e8d94c}.G{fill-rule:evenodd}.H{fill:none}.I{stroke-width:3.22}.J{stroke:#e8d94c}.K{stroke-linejoin:round}]]></style><g class="G"><path d="M0 0h600v300H0z" fill="#fff"/><path d="M0 0h600v100H0z" fill="#090"/><path d="M0 200h600v100H0z"/><use xlink:href="#B" class="F"/><g class="D B"><use xlink:href="#C"/><path d="M226.19 137.652c.622.74 1.671.244.715-.758-.782-.81-.525-1.065-1.001-2.051-.471-1.102-.447-1.71-1.015-2.498-.503-.747-1.26.015-.753.644.636.744.461 1.292.85 2.011.719 1.231.544 1.877 1.204 2.652zm16.741 20.199c2.002.984 3.521 3.443 3.621 5.446.17 2.305.502 4.251 1.537 5.889-1.648-.459-2.437-3.085-2.671-5.6-.237-2.604-1.64-3.733-2.487-5.734zm4.17 4.82c1.385 2.557 3.322 3.532 3.421 5.43.168 2.184.334 2.295.925 4.442-1.631-.435-2.041-.577-2.481-3.844-.272-2.296-2.11-3.916-1.865-6.028z"/></g><g class="F"><use xlink:href="#D"/><use xlink:href="#E"/><use xlink:href="#F"/></g><g class="D B"><use xlink:href="#G"/><path d="M292.634 186.831c3.147 1.29 5.865.971 6.203 2.95-2.952.319-4.032-.894-6.203-2.95z"/></g><g class="F"><use xlink:href="#H"/><use xlink:href="#I"/><use xlink:href="#J"/><use xlink:href="#K"/><use xlink:href="#L"/><use xlink:href="#M"/></g><g class="B D"><path d="M276.869 100.952h5.903v1.354h-5.903zm0 2.565h5.903v11.311h-5.903z"/><use xlink:href="#N"/><path d="M315.645 100.99h5.903v1.354h-5.903zm0 2.565h5.903v11.311h-5.903z"/><use xlink:href="#N" x="38.776" y="0.038"/><path d="M276.869 100.952h5.903v1.354h-5.903zm0 2.565h5.903v11.311h-5.903z"/><use xlink:href="#N"/><path d="M315.645 100.99h5.903v1.354h-5.903zm0 2.565h5.903v11.311h-5.903z"/><use xlink:href="#N" x="38.776" y="0.038"/></g></g><g transform="matrix(-.920001 0 0 .920001 156.80961 36.087219)" stroke-width=".93" class="H"><use xlink:href="#O" class="J"/><use xlink:href="#O" class="C E"/><path d="M-115.696 93.485l-.825-.53-15.834 26.667.824.53z" class="J"/><path d="M-115.696 93.485l-.825-.53-15.834 26.667.824.53zm-2.115 3.954s1.384 2.589 3.125 4.018 3.393 2.545 4.152 3.884.491 5.938.804 7.455l1.696 6.875m-11.986-18.526l4.33 4.196c1.741 1.429 1.964 3.08 2.723 4.42s.714 5.223 1.027 6.741l1.205 6.161" class="E C"/></g><g class="D G"><g stroke-width=".98" class="E C"><use xlink:href="#P"/><use xlink:href="#P"/></g><g class="B"><path d="M291.08 110.365l16.133-.017c2.184-1.155 2.865-4.843 2.855-6.906-.03-6.095-4.294-9.019-8.573-9.175-.641-.032-1.385-.531-1.555-1.116-.422-1.323-.313-4.769-.774-4.722-.411-.006-.29 3.373-.656 4.614-.201.618-.895 1.226-1.587 1.262-5.326.266-8.761 4.153-8.627 9.136.09 3.295.473 5.262 2.784 6.923z"/><path d="M291.08 110.365l16.133-.017c2.184-1.155 2.865-4.843 2.855-6.906-.03-6.095-4.294-9.019-8.573-9.175-.641-.032-1.385-.531-1.555-1.116-.422-1.323-.313-4.692-.774-4.722-.333.032-.29 3.373-.656 4.614-.201.618-.895 1.226-1.587 1.262-5.326.266-8.761 4.153-8.627 9.136.09 3.295.473 5.262 2.784 6.923z"/><path d="M290.069 104.994c.407 2.009 1.374 1.701 1.303.728-.238-3.103.013-6.158 2.757-8.195.87-.637-.102-1.225-.842-.919-2.333.981-3.751 5.48-3.217 8.385zm2.719 1.264c.407 2.009 2.068 1.921 1.763.614-.622-2.505-.523-6.158 1.684-7.735.871-.634-.102-1.225-.842-.919-2.333.981-3.138 5.135-2.605 8.04zm15.552-1.187c-.407 2.009-1.376 1.701-1.304.728.238-3.103-.013-6.158-2.759-8.195-.87-.637.102-1.225.843-.919 2.336.981 3.755 5.48 3.221 8.385zm-2.721 1.263c-.407 2.009-2.071 1.921-1.764.614.623-2.505.524-6.158-1.686-7.735-.872-.634.102-1.225.843-.919 2.336.981 3.141 5.135 2.607 8.04z"/><path d="M264.528 169.521h69.313l-6.204-5.055h-56.906z"/><path d="M264.528 169.521h69.313l-6.204-5.055h-56.906z"/></g></g><g stroke-width=".856" class="H"><use xlink:href="#Q" class="J"/><use xlink:href="#Q" class="C E"/><path d="M335.615 121.829l-.759-.487-14.567 24.534.758.487z" class="J"/><path d="M335.615 121.829l-.759-.487-14.567 24.534.758.487zm-1.946 3.639s1.273 2.382 2.875 3.696 3.121 2.341 3.82 3.573.452 5.463.739 6.859l1.561 6.325m-11.028-17.044l3.984 3.861c1.602 1.314 1.807 2.834 2.505 4.066s.657 4.805.945 6.202l1.109 5.668" class="E C"/></g><g class="G"><g transform="matrix(.980289 0 0 .980289 -5.448791 -17.953461)" class="B D"><path d="M287.671 144.835h6.719v9.297h-6.719zm.391 14.61h6.485v1.953h-6.485zm-.157 3.438h6.641v7.266h-6.641zm-.468 8.75h7.266v4.063h-7.266zm.891-13.931h5.855l1.161-1.933h-8.066zm7.899-7.127l.055-5.082h4.033c-1.584 1.307-3.057 2.891-4.088 5.082zm37.457-5.74h-6.606v9.297h6.606zm-.111 14.61h-6.375v1.953h6.375zm.117 3.438h-6.492v7.266h6.492zm.42 8.75h-7.143v4.063h7.143zm-1.071-13.931h-5.756l-1.141-1.933h7.93zm-7.767-7.127l-.054-5.082h-3.965c1.557 1.307 3.005 2.891 4.019 5.082z"/><path d="M287.671 144.835h6.719v9.297h-6.719zm.391 14.61h6.485v1.953h-6.485zm-.157 3.438h6.641v7.266h-6.641zm-.468 8.75h7.266v4.063h-7.266zm.891-13.931h5.855l1.161-1.933h-8.066zm7.899-7.127l.055-5.082h4.033c-1.584 1.307-3.057 2.891-4.088 5.082zm37.457-5.74h-6.606v9.297h6.606zm-.111 14.61h-6.375v1.953h6.375zm.117 3.438h-6.492v7.266h6.492zm.42 8.75h-7.143v4.063h7.143zm-1.071-13.931h-5.756l-1.141-1.933h7.93zm-7.767-7.127l-.054-5.082h-3.965c1.557 1.307 3.005 2.891 4.019 5.082z"/></g><path d="M277.575 131.7c.039 1.066 1.246.59 1.246.054l-.044-4.585c-.008-.858 2.044-.643 2.032-.115l.031 4.916c-.015.791 1.325.722 1.307 0v-5.787c.012-1.719-4.514-1.682-4.55-.038l-.023 5.554zm38.754.192c.039 1.066 1.246.59 1.246.054l-.044-4.585c-.008-.858 2.044-.643 2.032-.115l.031 4.916c-.015.791 1.286.722 1.268 0l.038-5.787c.012-1.719-4.514-1.682-4.55-.038l-.023 5.554z" fill="#fff"/><path fill="#fffffd" d="M277.588 142.562h4.672v5.821h-4.672z"/><g class="D B"><path d="M280.574 144.974h1.647v.957h-1.647zm-2.872 0h1.609v.957h-1.609z"/><path d="M279.311 142.639h1.264v2.375h-1.264zm0 3.255h1.264v2.527h-1.264z"/></g><path fill="#fffffd" d="M316.189 142.524h4.672v5.821h-4.672z"/><g class="D B"><path d="M319.176 144.936h1.647v.957h-1.647zm-2.873 0h1.609v.957h-1.609z"/><path d="M317.912 142.6h1.264v2.375h-1.264zm0 3.255h1.264v2.527h-1.264z"/></g><path d="M311.939 142.868h.804v5.783h-.804z" class="F"/><path d="M296.315 150.528l1.264 3.791h2.871l-2.297-3.792zm-1.608 3.791l.727 3.753 3.369.038-1.225-3.792-2.871.001zm5.705.038l2.336 3.714h4.787l-3.753-3.754-3.37.039zm-28.262 8.501c2.54-2.362 4.161-4.378 4.174-7.276h6.203c.013 1.621.6 2.591 1.494 2.527l6.281-.038-.038-3.714h-4.557l-.001-20.259c-.166-7.161 8.706-11.335 12.332-11.297l-21.561-.038v-.651h45.342l.038.651-21.866.038c6.485.013 12.739 6.153 12.791 11.336v5.744h-.843l-.038-5.667c0-5.668-7.138-10.966-12.867-10.8-4.953.142-12.637 4.864-12.56 10.762v1.762l11.757.077-.115 2.029 1.846 1.178 3.682 1.173-.054 3.044 2.637.777.022 3.041 3.163 1.358v3.148l2.007 1.236-.092 3.197 2.719 1.915h-6.434l4.021 4.481h-5.936l-2.95-4.481h-3.905l1.762 4.442-4.173-.038-.997-4.403h-5.093l.038 4.748-18.229.001zm18.19-12.293v3.753h4.366l-.882-3.753z" class="B D"/><path d="M290.571 143.939h2.719v6.242h-2.719zm-3.84 6.683h2.654l-.017-4.593c-.034-1.996 1.758-4.009 2.615-4.076.951-.036 2.353 1.884 2.4 3.919l.038 4.765 2.815-.006v-11.826l-10.506.056v11.761z" fill="#fff"/><g class="D B"><path d="M307.729 153.359h3.293v2.566h-3.293zm-1.953-4.403h3.293v2.566h-3.293zm-3.179-4.404h3.293v2.566h-3.293zm-2.719-3.715h3.293v2.566h-3.293zm12.061 2.031h.804v5.783h-.804z"/><path d="M253.311 84.296c.292 4.568-1.125 7.076-3.545 6.694-.667-2.534.85-4.234 3.545-6.694zM248 94.417c-2.151-1.094-.599-9.447.226-12.949.611 4.51 1.632 10.921-.226 12.949zm.769.392c3.615 1.258 6.478-2.636 7.445-7.145-2.984 4.118-7.84 4.123-7.445 7.145zm-2.744 4.217c-2.827-.747-1.124-9.609-.611-13.154.622 3.661 2.57 11.941.611 13.154zm.964-.273c.158-3.057 3.205-2.173 5.307-3.805-.343 1.527-1.636 4.234-5.307 3.805zm-3.462 4.092c-2.802-.756-1.118-10.293-1.276-14.22.821 3.393 3.422 13.301 1.276 14.22zm1.312-.411c2.295.746 5.335-.745 5.574-3.478-1.976 1.341-5.132.316-5.574 3.478zm-3.403 4.621c-2.679.214-1.48-7.909-1.478-15.474.984 7.071 3.665 13.544 1.478 15.474zm.929-.368c1.81.908 5.051-.543 5.977-3.6-3.269 1.421-5.455.032-5.977 3.6z"/><path d="M263.399 88.523c-.476 3.962-2.096 6.268-4.515 5.887-.667-2.534 1.295-4.153 4.515-5.887zm-6.4 10.173c4.019.571 5.467-2.514 8.173-6.458-3.792 2.744-8.326 3.314-8.173 6.458zm-1.144-.458c-2.191-2.629-.074-5.931 1.601-8.745-.36 4.187 1.067 6.516-1.601 8.745z"/><path d="M254.884 102.582c-.247-2.571 4.134-3.143 6.115-4.572-.667 1.486-1.676 5.487-6.115 4.572zm-.915.058c-3.029-.343-1.771-5.487.4-8.345-.915 3.945 1.6 6.688-.4 8.345zm-2.286 4.286c-3.448-1.524-1.238-5.848.058-8.401-.553 3.353 2.21 5.905-.058 8.401z"/><path d="M252.369 106.526c1.81 2.362 5.335-.705 6.058-4.287-3.067 2.554-5.334 2.134-6.058 4.287z"/><path d="M335.355 88.922c.458 2.059.572 6.117 4.23 5.316.533-3.772-2.534-3.944-4.23-5.316zm6.229 9.717c-.132-3.887-4.324-3.03-7.943-6.231.991 3.372 4.496 7.487 7.943 6.231zm.858-.458c2.458-1.696.572-5.392-1.715-8.63.858 3.525-1.028 6.763 1.715 8.63zm1.086 4.401c-3.962.305-4.667-1.676-6.23-4.229 2.706 1.753 6.325.648 6.23 4.229zm.973.115c-1.887-1.544.457-4.858-.343-8.173 1.486 2.095 3.772 7.106.343 8.173z"/><path d="M346.157 106.811c-3.962.933-5.239-1.162-6.23-4.686 3.219 2.953 5.01 1.562 6.23 4.686zm.572-.057c2.762-.038 1.524-5.505.114-8.001.381 3.01-2.038 6.477-.114 8.001z"/><path d="M345.043 84.327c.496 2.288-.462 6.806 3.196 6.771 1.529-2.585-1.73-5.016-3.196-6.771zm5.489 10.202c2.305-1.58.227-6.77-.489-12.612-.559 5.21-1.794 10.899.489 12.612zm-1.24.403c.289-2.853-4.208-3.489-7.291-7.264.799 3.027 3.078 7.449 7.291 7.264zm3.08 4.441c-2.423-2.195.456-8.496.575-13.381.375 4.507 2.356 12.582-.575 13.381zm-1.378-.633c-3.542.227-4.476-2.366-4.89-3.847 1.902 1.37 4.908.724 4.89 3.847zm3.552 3.912c2.723-.115 1.716-10.445 1.338-13.706-.27 3.47-3.109 12.451-1.338 13.706zm-1.19-.186c-2.354.359-4.741-1.009-5.387-3.346 2.032.884 5.393.183 5.387 3.346zm3.381 4.474c2.915 1.187 1.869-12.283 1.492-15.392-.27 3.968-3.722 13.714-1.492 15.392zm-.683.001c-2.929.435-5.086-1.353-5.924-3.805 2.99 1.115 5.317.719 5.924 3.805z"/><use xlink:href="#R"/><use xlink:href="#R"/><use xlink:href="#S"/><use xlink:href="#S"/><path d="M367.458 112.004c-1.333 4.287-2.134 7.8-.21 8.214 2.057-.357 1.163-4.499.21-8.214zm-.139 12.029c2.193 1.165 4.556-4.425 4.065-8.828-1.105 3.773-4.824 6.103-4.065 8.828zm-.808-.109c.34-3.048-.912-2.967-2.552-5.88.174 3.29.993 6.048 2.552 5.88zm.721 4.461c2.56.726 5.493-5.367 5.383-9.871-1.066 4.985-6.621 6.977-5.383 9.871zm-.84-.105c1.026-2.362-1.068-2.073-2.457-6.305-.46 4.38.208 6.379 2.457 6.305zm.744 4.593c3.321.572 5.034-6.761 6.684-10.272-3.266 4.603-7.18 7.167-6.684 10.272zm-.773-.253c.97-2.704-1.773-2.553-3.218-6.593.229 5.125.895 6.974 3.218 6.593zm.956 4.656c2.1.152 5.876-5.712 5.957-9.334-1.794 3.989-7.425 6.632-5.957 9.334zm-1.554-.679c.873-2.82-1.566-2.839-2.648-5.998-.076 4.763.667 6.379 2.648 5.998zm.076 5.088c3.704.648 4.651-4.234 6.837-9.2-2.156 3.953-7.026 6.171-6.837 9.2zm-.268-.678c1.201-2.551-1.581-2.553-3.065-6.364-.076 5.393.857 6.974 3.065 6.364z"/><use xlink:href="#T"/><use xlink:href="#T"/><path d="M358.618 124.757c-1.333 4.287-1.866 6.344-.057 7.716 2.362-1.315 1.01-4.001.057-7.716zm-.743 11.202c.991-3.162-1.448-3.924-2.743-7.487-.133 4.706.533 8.154 2.743 7.487zm.971.685c1.734.667 3.867-3.353 2.687-7.373-1.219 3.62-4.211 4.496-2.687 7.373zm-1.828 3.601c1.677-2.591-.991-2.724-2.342-6.343-.076 4.763.361 6.724 2.342 6.343zm-.001 4.458c1.277-2.933-1.505-2.553-3.142-6.172-.076 5.393.819 6.552 3.142 6.172zm1.258-4.286c1.449.037 4.267-2.496 3.43-5.658-1.219 2.649-4.668 2.381-3.43 5.658zm-.4 3.828c2.363.495 4.153-3.123 3.888-5.6-1.849 2.306-4.384 2.495-3.888 5.6z"/><use xlink:href="#U"/><use xlink:href="#U"/><path d="M365.553 153.103c.532-2.129-.146-2.814.435-6.148-3.196 4.286-1.994 6.317-.435 6.148zm.348.53c2.116.59 7.62-4.233 7.781-7.832-1.488 2.586-8.922 5.376-7.781 7.832zm-3.453 3.176c1.448-.791 1.039-4.141-.274-5.271-.269 3.269-2.243 5.192.274 5.271zm1.49.908c2.56.803 5.454-3.835 7.566-5.849-2.407 2.074-9.684 3.07-7.566 5.849zm-3.519 2.308c1.792-1.174.12-3.491-.006-8.067-1.8 3.307-2.166 7.833.006 8.067zm.341 1.177c.914 1.224 7.676-2.993 9.366-6.118-5.776 4.296-10.871 3.722-9.366 6.118zm-.677 3.814c1.66-1.21-1.428-4.391-2.069-8.661.038 5.201-.674 9.156 2.069 8.661zm1.806-1.433c.832 1.338 5.992-2.204 8.216-6.059-3.42 2.995-9.172 3.797-8.216 6.059zm-5.276 5.83c1.869-.331 1.613-5.059.186-8.909-1.609 4.649-2.32 9.366-.186 8.909zm4.693-2.575c.645.765 8.25-4.564 8.14-6.731-2.407 3.453-10.45 4.143-8.14 6.731zm-8.829 6.986c2.579-1.058 1.367-5.234 1.874-9.734-2.03 4.398-4.428 8.812-1.874 9.734zm4.824-3.612c.411 1.415 6.604-1.209 9.594-5.524-3.611 2.804-10.625 3.185-9.594 5.524zm-3.997 4.285c1.334 2.219 9.016-1.845 10.131-5.658-2.483 3.3-11.063 2.802-10.131 5.658zm3.522 1.723c1.411.152 4.689-2.534 5.612-3.935-2.636 1.308-6.199 3.108-5.612 3.935z"/><path d="M345.255 159.718c1.678.243 3.873-2.838 2.408-5.96-.728 3.116-5.613 5.384-2.408 5.96zm3.596-1.848c1.296.726 4.574-2.762 4.157-5.046-1.832 2.917-5.51 3.759-4.157 5.046zm-3.83 5.132c1.259 1.224 7.446-5.061 9.289-7.918-5.354 4.563-10.833 5.713-9.289 7.918zm-1.474 3.759c.985 1.491 5.11-3.008 7.718-6.748-3.306 3.262-8.904 4.754-7.718 6.748zm.414-3.584c1.009-2.664-.663-3.089-1.418-6.401-1.493 1.831-1.325 6.896 1.418 6.401zm-1.645 3.677c2.005-.559-1.237-3.969-1.916-6.401-.306 4.474-.253 6.705 1.916 6.401zm-1.953 3.216c1.851-.673-1.046-2.362-1.342-6.095-.92 1.372-1.402 6.59 1.342 6.095zm-2.767.792c1.179-.638.694-3.682-1.117-4.084-.422 2.388-.367 4.119 1.117 4.084z"/><use xlink:href="#V"/><use xlink:href="#V"/><use xlink:href="#W"/><use xlink:href="#W"/><path d="M331.269 178.927c2.424.63 3.054-2.164 3.291-4.194-2.186.471-4.476 1.737-3.291 4.194zm-.968 2.478c.427 1.933 5.17-.06 6.091-2.767-3.372 1.967-6.698-.176-6.091 2.767zm-1.697-.095c2.166.359.96-3.036.835-6.385-1.213 2.73-2.945 6.094-.835 6.385zm-2.736 3.211c2.359.295.862-4.254.221-7.311-.774 2.833-2.48 7.062-.221 7.311zm1.396.104c.287 2.574 5.164-.308 8.001-1.89-3.749.581-8.423-.635-8.001 1.89zm-2.681 3.6c.287 2.574 5.164-.308 8.001-1.89-3.749.581-8.423-.635-8.001 1.89zm-1.243-.104c2.244.065.594-4.829-.047-7.886-.774 2.833-2.251 7.79.047 7.886zm.826 2.537c.937 1.598 1.981.629 4.742-1.145-3.787.811-5.163-1.381-4.742 1.145z"/><path d="M346.48 186.934c1.334 2.218 6.258-1.616 8.944-3.591-3.861 1.193-9.875.734-8.944 3.591zm-5.025 2.305c.48 2.545 8.788.445 9.972-1.442-3.82 1.619-10.428-.756-9.972 1.442zm-3.913 1.943c.25 1.395 6.606.866 9.819-.217-3.475.432-10.466-2.02-9.819.217zm-3.319 1.663c.021 1.281 7.41 2.015 9.896-.063-4.968.737-10.389-3.016-9.896.063zm-5.84 1.197c-.286 1.779 7.754 1.402 10.278.511-4.316-.333-9.891-3.13-10.278-.511zm-.124-1.617c1.813 1.663 6.472-5.764 7.989-9.035-3.586 3.739-10.056 7.581-7.989 9.035zm5.288-1.255c2.157 1.433 4.137-3.81 5.232-7.657-2.054 3.318-7.298 5.475-5.232 7.657zm4.172-1.44c2.157 1.433 3.372-3.312 3.893-6.279-1.479 2.552-5.959 4.097-3.893 6.279zm4.038-2.524c2.157 1.433 4.865-2.546 4.237-6.469-.828 4.046-6.304 4.288-4.237 6.469zm-8.189 11.166c1.063 2.706 12.237-2.365 14.11-5.748-3.59 3.034-15.15 2.621-14.11 5.748z"/><use xlink:href="#X"/><use xlink:href="#X"/><use xlink:href="#Y"/><use xlink:href="#Y"/><use xlink:href="#Z"/><use xlink:href="#Z"/></g><g class="F"><use xlink:href="#a"/><use xlink:href="#b"/><use xlink:href="#c"/><use xlink:href="#d"/><path d="M269.442 180.915c2.324.529.99-4.457-.733-6.448.28 3.635-.866 6.156.733 6.448z"/><use xlink:href="#e"/><use xlink:href="#f"/><path d="M273.629 190.317c-.13 2.39-1.777 1.903-3.877-.932l3.877.932z"/></g><g class="D B"><g transform="matrix(.980289 0 0 .980289 -5.448791 -17.953461)"><use xlink:href="#g"/><use xlink:href="#h"/><use xlink:href="#g"/><use xlink:href="#h"/></g><use xlink:href="#a"/><use xlink:href="#b"/><use xlink:href="#c"/><use xlink:href="#d"/><path d="M269.442 180.915c2.324.529.99-4.457-.733-6.448.28 3.635-.866 6.156.733 6.448z"/><use xlink:href="#e"/><use xlink:href="#f"/><path d="M273.901 190.403c-.845 2.106-2.048 1.817-4.149-1.018 4.217.797 5.138.123 4.149 1.018z"/></g><g class="F"><use xlink:href="#i"/><use xlink:href="#j"/><use xlink:href="#k"/><use xlink:href="#l"/><use xlink:href="#m"/><use xlink:href="#n"/><use xlink:href="#o"/><use xlink:href="#p"/><use xlink:href="#q"/></g><g class="D B"><use xlink:href="#i"/><use xlink:href="#j"/><use xlink:href="#k"/><use xlink:href="#l"/><use xlink:href="#m"/><use xlink:href="#n"/><use xlink:href="#o"/><use xlink:href="#p"/><use xlink:href="#q"/><use xlink:href="#C"/><use xlink:href="#r"/><use xlink:href="#r"/><path d="M254.584 162.985c1.598 1.176 3.361-3.039 1.331-7.047-.064 3.858-3.13 5.153-1.331 7.047zm1.532 3.867c2.21.678 2.902-3.231 1.446-6.357.243 3.359-3.474 5.383-1.446 6.357zm1.684 3.101c2.134 1.062 2.942-2.887 1.408-5.819.167 3.741-3.053 4.844-1.408 5.819zm-.879.24c-.846 2.528-5.75-2.179-6.576-4.739 3.044 3.024 7.186 2.69 6.576 4.739zm-2.221-3.867c-.961 2.527-7.128-3.98-8.491-7.113 3.044 3.024 9.178 5.332 8.491 7.113zm-1.225-3.792c-.961 2.872-7.664-4.783-9.563-7.496 3.198 2.986 10.287 5.409 9.563 7.496zm-.213-2.836c2.36-.459-.134-2.425-3.027-5.62-.135 3.364.417 5.716 3.027 5.62zm-3.982-1.915c1.019-1.11-.977-1.583-3.449-4.357-.365 1.871 2.293 5.296 3.449 4.357zm11.43 12.476c1.292.756 2.176-1.891.566-4.288-.368 2.593-1.75 3.313-.566 4.288z"/><path d="M232.647 153.556c-2.743 1.644-7.099-4.917-8.261-7.616 2.407 3.098 8.779 5.928 8.261 7.616zm2.335 3.829c-1.518 1.683-6.295-2.887-7.955-5.203 2.561 2.217 8.626 2.481 7.955 5.203zm2.601 3.426c-.501 2.298-7.472-2.868-9.102-5.314 3.005 2.832 9.559 2.576 9.102 5.314zm-1.072 2.488c-1.075 2.069-6.746-3.058-8.107-5.733 3.464 3.023 8.984 3.687 8.107 5.733zm-2.913-10.081c1.789-1.886 1.027-2.771-.277-5.744-.713 3.053-1.788 4.272.277 5.744zm2.374 3.562c3.245.143.031-3.806-.736-7.122.282 3.78-.832 6.76.736 7.122zm2.069 3.141c2.249-.508 1.6-3.69-.124-7.544.358 4.163-1.904 6.569.124 7.544zm-.764 6.29c-.846 2.528-7.243-3.328-8.261-5.543 3.235 2.718 8.832 3.648 8.261 5.543zm3.829 3.943c-.96 2.529-7.663-2.599-9.715-5.389 4.039 3.177 10.21 2.882 9.715 5.389zm3.906 3.983c-1.075 3.523-8.085-2.101-10.175-4.854 4.461 3.406 10.746 2.346 10.175 4.854zm-6.589-9.047c1.904.985 2.673-4.418 1.599-8.233.014 4.163-3.819 7.258-1.599 8.233zm3.255 4.289c2.287.679 1.562-5.145-.392-8.922-.253 3.743-1.942 7.297.392 8.922zm4.059 4.021c2.555.143.797-4.992-1.311-7.888.359 3.78-.831 7.45 1.311 7.888zm-4.478 2.192c-.768 1.302-2.647-1.106-5.733-2.863 2.775.726 6.074 1.656 5.733 2.863z"/><path d="M239.793 132.31c2.385-1.765.566-5.065 0-8.204-.768 2.977-2.788 6.884 0 8.204zm-.081 4.405c-3.583-.43-3.044-5.064-3.152-8.001 1.077 3.987 4.014 4.66 3.152 8.001zm.566-.606c3.031-.175 2.87-3.624 3.032-7.113-1.536 3.207-3.356 3.705-3.032 7.113zm-.121 4.284c-2.358.188-3.583-2.128-4.122-5.739 2.236 3.327 4.27 2.29 4.122 5.739zm.848-.283c3.031.39 2.547-3.139 2.425-5.74-.929 2.479-3.395 3.26-2.425 5.74zm-4.728-1.496c.242 2.304 1.698 6.264 4.042 5.375.97-2.829-2.062-3.395-4.042-5.375zm4.769 5.618c-1.051-2.02 2.384-3.032 3.111-5.658.418 3.758.068 6.224-3.111 5.658z"/><path d="M231.269 120.288c1.887-2.032.221-5.256-.345-8.395-.768 2.977-2.098 6.922.345 8.395zm-.059 3.783c-3.314.336-4.116-6.404-4.453-9.303 1.077 3.987 4.895 5.809 4.453 9.303zm.682-.06c2.342-1.21 1.798-3.815 2.534-5.773-1.574 2.403-3.01 2.747-2.534 5.773zm-.651 4.408c-3.467.297-5.533-7.171-5.641-10.108 1.077 3.987 6.044 6.154 5.641 10.108zm.658-.109c3.26-.75 2.87-2.859 2.381-6.271-1.038 3.437-2.858 2.709-2.381 6.271zm-.704 4.422c-3.812.647-3.545-5.384-6.572-9.759 2.618 3.25 7.333 7.344 6.572 9.759zm.862-.206c2.878.083 3.159-4.25 3-6.007-.662 1.751-4.046 3.413-3 6.007z"/><path d="M225.239 128.084c1.429 4.64 3.459 9.289 5.956 8.936 1.199-2.638-2.368-2.974-5.956-8.936zm6.859 8.26c-1.051-2.02 2.384-3.032 3.111-5.658.418 3.758.068 6.224-3.111 5.658zm-5.875-2.959c2.041 4.18 2.961 8.983 5.764 8.285 1.046-3.251-3.095-3.931-5.764-8.285zm6.345 7.495c-1.204-2.212 2.231-2.994 3.073-6.042.456 3.989.029 6.837-3.073 6.042z"/><path d="M238.446 112.588c2.012.544 4.121-1.715 3.39-5.095-2.299.573-3.354 2.66-3.39 5.095zm-6.435-1.692c.175.951 1.332 1.037.996-.306-.28-1.09-.328-1.91 0-2.796.45-1.111.3-3.002-.038-3.791-.341-.833-1.471-.345-.996.307.523.756.551 2.328.191 3.062-.473 1.084-.345 2.523-.153 3.523zm6.952-3.615c-.191 1.485-1.448 1.62-1.082-.478.305-1.703.357-2.982 0-4.367-.489-1.735-.326-4.688.042-5.921.371-1.301 1.599-.539 1.082.479-.569 1.18-.599 3.636-.208 4.783.515 1.693.375 3.941.166 5.503zm9.368 14.841c-.777 1.143-2.016.48-1.314-1.356.593-1.271.656-2.845 1.316-3.775.923-1.409 2.487-2.582 3.375-3.434.917-.908 1.679-.033.838.745-1.021 1.022-2.129 2.294-2.745 3.257-1.148 1.872-.643 3.365-1.47 4.563z"/><use xlink:href="#s"/><use xlink:href="#s"/><use xlink:href="#t"/><use xlink:href="#t"/><path d="M321.274 187.195c-.441-.003-.992.135-1.719.438-5.926 2.699-13.452 4.668-20.813 4.813-6.849.059-16.246-3.126-20.156-4.781-1.015-.437-2.193-.019-3.25 1.094-3.551 3.479-7.731 6.863-11.094 9.5-1.255 1.09-2.54 3.077 2.813 5.031.194.073 4.09 1.502 6.563 1.594 1.01-.028 1.031 1.473.844 1.875-.426.803-.138 1.134-1 1.906-.898.758.107 1.729.813 1.063 3.013-2.616 7.916-.937 12.625.594 1.113.308 3.143.223 3.125-1.312.02-1.672 1.228-2.863 1.969-2.906 1.922.333 11.418.45 14.344.094 1.706-.222 1.806 2.335 2.719 3.344.629.669 3.058.827 4.719.094 3.283-1.525 8.274-1.52 10.313-.062.838.638 1.508.117 1.031-.531-.614-.886-.601-1.3-.906-2-.766-1.558-.147-1.919.656-2.031 9.071-1.169 11.961-4.289 9.188-6.813-3.581-3.141-7.565-6.289-11-10-.582-.615-1.046-.994-1.781-1zm-.125 1.125c.446-.044.844.03 1.063.344 2.466 3.488 6.204 5.772 9.656 8.594 1.053.892.287 1.501-.531 1.813-6.144 2.052-12.894 6.506-32.094 6.688-19.018.179-25.621-4.387-32.469-6.844-.734-.302-.784-1.149-.406-1.437 3.479-2.628 6.757-5.519 9.75-8.5.477-.464 1.476-.764 2.094-.5 6.449 2.651 13.626 4.55 20.5 4.563 7.039.013 13.796-1.801 21.125-4.375.371-.136.866-.299 1.313-.344zm-40.531 17.094l3.875.063c1.876.026 3.358 1.234 4.125 2.344.446.625.244 2.419-2.281 1.375-3.673-1.481-7.583-2.724-11.219-1.219.336-.798.453-1.618.406-2.531l5.094-.031zm42.094.063c.038.97.144 1.753.719 2.531-3.345-1.34-8.082-.629-11.313.875-1.441.688-3.159-.791-1.469-2.187 2.404-1.948 7.965-.836 12.063-1.219z"/></g><g class="F"><use xlink:href="#u"/><use xlink:href="#u" class="B D"/></g><g class="D B"><use xlink:href="#v"/><use xlink:href="#v"/><use xlink:href="#w"/><use xlink:href="#w"/><use xlink:href="#x"/><use xlink:href="#x"/><use xlink:href="#y"/><use xlink:href="#y"/><use xlink:href="#z"/><use xlink:href="#z"/><use xlink:href="#AA"/><use xlink:href="#AA"/><use xlink:href="#AB"/><use xlink:href="#AB"/></g><g class="F"><use xlink:href="#AC"/><use xlink:href="#AC" class="B D"/><use xlink:href="#AD"/></g><g class="D B"><use xlink:href="#AD"/><use xlink:href="#D"/><use xlink:href="#E"/><use xlink:href="#F"/><use xlink:href="#J"/><use xlink:href="#K"/><use xlink:href="#L"/><use xlink:href="#M"/><use xlink:href="#G"/><path d="M292.634 186.831c3.147 1.29 5.865.971 6.203 2.95-2.952.319-4.032-.894-6.203-2.95z"/><use xlink:href="#H"/><use xlink:href="#I"/><path d="M315.279 155.578l6.855.001c.026 2.591 1.544 5.374 3.676 6.969h-13.136c2.056-1.864 2.617-4.072 2.605-6.97zm-39.674 37.185c-.824-.531-1.196.16-.613.881.757.83 1.981 1.33 3.255 1.685.743.207 2.277-.054 3.064.038.613.077.959 1.313 2.068 1.264 1.12-.048 1.838-3.025 1.876-4.519.051-.99-1.318-.358-1.187.039.359.984-.298 3.18-.996 3.178-.514-.031-1.065-1.096-1.838-1.225-.605-.1-1.522.071-2.145.077-1.82.018-2.605-.89-3.485-1.417zm1.531-.804c.971.485 1.82-.383 2.375.23 1.418 1.609 3.241-.771 1.111-.689-.862.033-.996-.652-2.49-.499-.795.102-1.461.687-.996.958zm.231 7.046c-.768-.335-1.025.394-.574.843.633.578 3.263.809 3.906.345 1.064-.807.286-2.926-.191-3.524-.298-.364-1.196-.391-.843.575.146.448.799 1.563.268 2.067-.486.465-1.831-.001-2.565-.307zm5.898.652c.169-.432-.286-1.177-1.073-.307-.65.686-.123 3.579 1.954 4.098 2.029.498 3.55-.231 3.829-1.34.193-.738-.919-1.379-.344-2.03.479-.509 1.405.006 1.8-.804.231-.454.25-1.384-.996-1.992-.54-.272-1.475.348-1.456.805.029.628 1.003.219.651.766-.257.417-1.407.243-1.761 1.225-.212.624 1.302 1.777.498 2.068-.718.248-1.653.409-2.605-.115-.588-.312-.838-1.602-.497-2.374zm-7.316-3.983c-.482.071-1.148.422-1.186.996-.029.461.35 1.259.996.726.667-.518.155-.763.306-.574.332.332-.155.36-.766 1.188-.425.628-1.334.527-1.8.306-.804-.415-.503-.68-1.379-1.072-.875-.43-1.406.579-.574 1.034.919.526 2.423 1.578 3.906.805.881-.498 1.914-.952 1.876-2.068-.05-.725-.373-1.481-1.379-1.34zm47.641-.383c-.677-.484-.263-1.363.728-1.034.843.312 2.243 1.305 2.335 2.605.105 1.421-2.186 2.462-3.062 2.413-1.501-.122-1.233-1.312-.116-1.226.867.063 1.931-.246 1.992-1.149.051-.783-1.389-1.239-1.877-1.609zm-4.94-3.485c-.875-.883.957-1.838 1.493-.766l2.183 4.212c.506 1.236-.158 1.404-.574.727-.697-1.176-1.753-2.751-3.102-4.174zm-4.289 2.643c.942-.41.919.766.574.996-.622.346-1.456-.574-.574-.996zm2.796-1.034c.942-.41.919.766.574.996-.622.346-1.456-.574-.574-.996zm-29.221 1.646c-1.414-.903.287-2.25 1.264-1.225 1.399 1.428 2.736 4.558 3.792 5.745 1.004 1.166.195-3.16.498-4.443.207-.713.764-.613.766.077.005 1.763-.267 5.348.191 5.63.857.487.702 1.282 1.417 1.149.767-.182.652-.383 1.341-.422.683 0 .707.685 1.494.574.502-.066.653-.634 1.263-.652.556-.047.317 1.18-.037 1.379-.577.324-2.375-.353-2.911-.306-.637.017-1.784.608-2.49.344-.862-.308-.671-1.4-1.264-1.225-.672.155-.545 1.377-2.144 1.762-.749.171-1.001-.502-.613-.958.695-.743 2.095-1.336 1.876-2.029-.648-1.931-2.606-4.257-4.443-5.399zm12.293.268c.679 2.235.646 5.207 1.034 7.238.191.799.956.087.881-.536-.301-2.181-.433-4.858-.996-6.932-.233-.718-1.179-.578-.92.229zm1.876.575c-.179-.932.713-1.02.843-.461.46 1.799.401 5.915 1.302 6.051 1.555.177 3.735-.144 5.668-.536.951-.189 1.146-.877 1.111-1.15-.182-1.106.85-1.019 1.111.154.14.612-.137 1.709-1.302 1.953-2.275.439-5.407 1.117-7.2.727-1.57-.332-1.059-4.387-1.532-6.739zm2.529 1.608c.039-1.179.924-1.353.919-.345.024 2.412 2.849 1.786 3.448.881.442-.706.119-1.01-.307-1.8-.529-1.022.591-1.311 1.072-.422.36.636.61 2.664-.038 3.179-.897.711-3.321 1.06-4.366.268-.555-.382-.771-1.116-.727-1.762zm-1.226-3.141c.125.756 2.182.498 2.106-.077-.071-.494-2.22-.383-2.106.077zm2.681.613c.08.762 1.412.537 1.34-.038-.071-.609-1.417-.728-1.34.038zm4.021-.919c-.675-.933.639-.992 1.072-.306 1.121 1.676 1.861 4.379 2.949 6.203.463.841 1.042.089 1.111-.115.072-.217-.352-.549-.382-1.302-.054-.585 1.143-1.313 1.991-.766.793.534.144 1.008.536 1.302.373.28 1.317.104 1.456-.077.419-.658-.152-.273-.728-.652-.667-.477-.267-2.546 1.111-1.685.82.474 1.061 1.991.766 2.834-.261.781-1.632 1.047-2.374.881-.836-.255-1.512-1.261-1.34-.996.414.679-.102 1.35-.498 1.609-.977.614-1.661.935-2.374-.077-1.265-1.894-1.961-5.089-3.294-6.855zM274.419 64.266c-.056-1.131 1.698-1.218 1.497.338-.257 1.938 3.658 6.845 3.983 9.871.218 2.029-1.192 3.805-2.588 4.91-1.712 1.326-4.344 1.144-5.575.383-.745-.6-1.424-2.653-.867-3.466.197-.274 1.089 3.014 3.054 3.001 2.673-.017 4.839-2.025 4.918-3.816.137-3.119-4.373-8.05-4.422-11.221zm7.824 7.703c.442-.316 1.148 1.063.65 1.408-.415.276-1.224-1.025-.65-1.408zm1.185-2.797c-.224.108-.668-.046-.535-.235.625-.894 1.959-2.239 2.925-2.708.297-.144.817.38.637.637-.578.826-1.986 1.801-3.027 2.306zm10.335-8.2c.248-.518 1.737-1.103 2.116-1.453.351-.359.519.304.369.617-.248.517-1.533 1.391-2.097 1.415-.303.013-.538-.266-.388-.579zm3.536.166c.323-.909 1.363-2.286 2.078-2.74.368-.233 1.027-.05.904.299-.274.771-1.546 2.118-2.402 2.753-.26.231-.655-.101-.58-.312zm-3.033 2.274c-.216.108-.099.567.109.637.442.147 1.247.176 1.612-.025.529-.326.288-2.334-.421-1.261-.475.662-.822.449-1.3.65zm-5.983 4.607c-1.081-.842.291-2.022 1.421-1.198 2.202 1.661-3.285 8.024-6.27 10.998-.546.582-1.025-.885-.325-1.516 2.14-1.815 4.144-3.984 5.537-6.224.269-.431.525-1.361-.363-2.059zm12.533-5.473c.134-.806-1.304.017-1.33-1.051-.014-.565 1.571-.962 2.234-.312 1.119 1.136.282 3.051-1.579 3.172-1.552.069-4.141 2.203-3.747 2.652.448.554 4.472.92 6.812.554 1.449-.203 1.145 1.093-.339 1.268-1.434.165-2.603.012-3.943.433-1.577.451-2.265 2.568-3.142 3.358-.195.137-.721-.694-.522-1.007.631-.987 1.638-2.499 2.746-2.931.699-.283-1.927-.372-2.765-.612-.665-.2-.472-1.045-.217-1.516.338-.735 2.813-3.213 3.811-3.173.937.04 1.887-.233 1.98-.835z"/><use xlink:href="#AE"/><path d="M310.298 60.87c.693-.077.866 1.261.108 1.478-.46.153-.862-1.399-.108-1.478zm-1.752 4.135c-.011 1.152.558 1.046 1.643 1.007 1.053-.04 1.979.027 1.975-1.013-.005-1.078-.597-2.022-.771-1.288-.153.689-.274 1.818-.675 1.326-.378-.423-.228-.515-.879.178-.361.382-.402-.185-.619-.542-.151-.211-.673.17-.674.332zm-7.564 5.881c-.259 1.524-.022 3.659.759 3.683.965.031 2.96-3.333 3.906-5.078.567-.974 1.54-1.144 1.134-.128-.615 1.568-.56 4.922-.02 5.907.29.531 2.432-.487 2.778-1.243.629-1.374.118-3.907.338-5.454.107-1.016 1.036-1.228.987-.287l-.133 6.174c.071.806 2.375 1.996 2.746-.445.195-1.537.986-3.052-.038-4.754-.635-1.064.932-.931 1.777.523.591.99-.498 2.627-.46 3.893.098 1.947-1.417 3.054-2.515 3.077-.982.02-1.622-1.187-2.427-1.204-.893-.057-1.811 1.389-2.549 1.338-2.86-.195-1.346-4.377-2.217-4.428-.969-.057-2.113 4.098-3.307 3.95-1.177-.141-2.396-3.386-1.906-4.759.443-1.277 1.278-1.577 1.147-.765zm13.853-6.594c-1.396-.851.088-3.066.771-2.288 1.318 1.578 2.646 5.323 3.574 5.633.588.196.561-2.768.975-4.116.268-.996 1.471-.671 1.241.605-.078.426-1.572 5.269-1.458 5.461 1.035 2.07 2.06 4.17 2.708 6.391.268.957-.882.313-1.019.114-.734-1.098-2.019-5.294-2.019-5.103l-1.358 6.333c-.191.804-1.374.658-1.108-.758l1.854-7.053c-1.33-2.348-2.547-4.206-4.16-5.218zm2.516 13.622c-.389-.044-.993.866.945 1.223 2.59.469 5.425-.403 6.293-2.943l2.172-6.97c.649-1.259 1.479-1.158.867-2.996-.432-1.323-1.239-.924-1.409-.217-.453 1.928-2.171 8.167-2.708 9.315-1.012 2.096-3.051 2.926-6.161 2.587zm5.187-9.952c-.277-.595-.924-.134-.809.516a.98.98 0 0 0 1.025.892c.568-.02 1.768.019 1.771-.923.002-.662-.519-1.215-.905-.485-.37.662-.845.592-1.083 0zm.65-2.492c-.199.138-.021.874.217.866.846-.028 2.045-.298 2.687-.745.188-.131.11-.576-.158-.567-.816.027-2.114.006-2.746.445zm7.186 1.855c.613-.957 2.303-1.055 1.695.312-.43.942-4.638 9.071-5.212 10.105-.626 1.163-1.139.587-.694-.318.599-1.165 4.019-9.816 4.211-10.099zm-6.333 12.1c-.179-.647-1.183-1.604-1.07.127.2 3.142 4.516 2.149 5.823 1.032 1.186-1.051.157 3.547 1.733 4.039.869.278 2.504-.907 3.308-1.95 2.229-2.892 3.648-7.039 5.792-9.895.81-1.117-.443-1.914-.95-1.025-1.865 3.126-4.18 9.506-6.709 11.163-2.062 1.319-1.451-1.699-1.522-2.606-.09-.665-.901-1.644-1.982-.745-.756.591-1.93 1.071-2.994.975-.617-.034-1.137-.023-1.427-1.115zm7.704-5.831c.022-.177-.913-.258-.867.65.032.672.836.854.974.758 1.265-.92-.269-.461-.108-1.408zm-1.842 3.683c-.249.058-.477.853.109.898.536.038 2.637-.187 3.217-.153.375-.014.519-.732-.286-.694-.976.049-2.26-.196-3.04-.051z"/><use xlink:href="#AF"/><path d="M279.067 63.609c.333.016 1.247 1.2 1.187 1.57-.041.175-.977-.026-1.264-.268-.212-.179-.126-1.312.077-1.302zm-4.405 8.577c-.835.456.132 1.355.758.975 2.348-1.52 5.871-3.117 6.607-6.128.236-1.02 1.184-2.583 2.084-2.932.87-.337 2.132 1.573 2.957.07.483-.859 2.177.564 2.586-.356.498-1.11.261-1.722.281-2.786-.036-.697-.569-.905-.955.223-.201.511.035 1.027-.128 1.293-.124.203-.513.399-.738.23-.208-.156-.064-.591-.562-.783-.193-.097-.503-.177-.637.07-.591 1.054-.919 2.037-1.746.917-.737-.965-1.111-2.633-1.651-.35-.194.806-1.418 1.975-2.141 1.975-.902 0-.675-2.375-2.657-2.013-1.019.217-.948 2.166-.796 2.886.25 1.001 3.226.282 3.078.936-.509 2.274-3.665 4.436-6.341 5.773z"/><path d="M256.03 83.017c-.126.38.379 1.414.904 1.49.515.038.777-1.116.612-1.49-.123-.275-1.425-.27-1.516 0zm2.733 4.008c-.33-.356-1.304.599-.517 1.274.442.358 2.062.877 2.505.122.6-.972-.591-4.503-.064-4.97.412-.365 2.32 2.359 3.262 2.555 2.213.307 1.682-3.79 4.067-3.511 1.625.217 1.804-1.815 1.577-3.083-.181-1.217-2.152-2.974-3.058-3.759-1.192-.992-1.723.732-.975 1.3.963.771 2.656 2.328 2.925 3.358.127.486-1.176 1.453-1.657 1.191-1.109-.605-2.14-3.199-3.109-3.791-.33-.202-1.143.254-.752 1.064.44.867 2.384 2.21 2.498 3.135.103.844-.867 2.669-1.503 2.669-.7 0-2.484-2.206-3.041-3.244-.278-.497-1.243-.449-1.344.237-.16 1.03.149 3.21.395 4.561.195 1.279-.721 1.344-1.211.892zm-3.346-7.033c-.278.315.65.93.834.771.358-.31 1.747-1.893 1.479-2.447-.238-.494-2.149-1.574-2.46-1.039-.576.926 1.801 1.341 1.428 1.613-.183.105-.837.557-1.282 1.103zm3.428-6.94s.597 2.043 1.083 1.192c.393-.59-1.083-1.192-1.083-1.192zm.975 3.25c-.219.119-.834.607-.433.867.634.375 2.36.672 1.987-.555-.226-.723 2.602.02 1.913-1.937-.18-.542-1.033-1.323-1.453-1.433-.267-.07-1.172.427-.606.7.414.214 1.662.947 1.198 1.428-.526.502-.893-.225-1.548-.108-.329.063-.115 1-.3 1.255-.104.142-.579-.314-.758-.217zm4.492-7.768c-.357.178-.996 1.146-1.02 1.593-.013.239.249.567.453.465.374-.187.953-1.103.974-1.523.014-.266-.186-.646-.408-.535zm2.332-.248c-.689-.842.731-2.093 1.37-.407.386 1.058 4.503 6.476 5.346 8.314.596 1.244-.022 1.758-.759.867-2.085-2.66-3.796-5.976-5.957-8.774zm4.224.108c.734-.795 2.233-2.42 1.829-3.326-.31-.779-1.22-.702-1.376-.522-.891 1.064.633.797.414 1.16-.454.852-.906 1.321-1.14 2.14-.055.192.141.691.274.548z"/><path d="M334.697 71.058c-.527-.427.519-2.498 1.226-1.685 1.943 2.248 2.846 9.548 3.408 15.012 0 0-.873.728-.88.613 0-2.91-1.169-11.814-3.754-13.939z"/><use xlink:href="#AG"/><path d="M291.125 63.954c-.628-1.445.943-1.979 1.178-.95 1.092 4.745 3.706 8.338 5.696 11.565.599 1.009.119 1.61-1.338.682-1.009-.692-2.033-3.214-2.529-3.313-.898-.167-3.047 4.097-7.442 2.88-1.137-.318-1.062-3.699-1.083-5.193-.048-.7.725-.885.752.07.04 1.377-.002 4.238 1.76 4.334 1.436.08 4.617-1.95 5.288-3.537.597-1.632-1.602-4.875-2.281-6.537z"/><use xlink:href="#AE"/><use xlink:href="#AG"/><use xlink:href="#AF"/></g><g class="F"><use xlink:href="#AH"/><use xlink:href="#AI"/><use xlink:href="#AJ"/><use xlink:href="#AK"/></g><g class="D B"><use xlink:href="#AH"/><use xlink:href="#AI"/><use xlink:href="#AJ"/><use xlink:href="#AK"/><use xlink:href="#B"/></g></g><g class="E H I C"><path d="M339.631 219.295s-75.905 6.783-106.874-33.456c-10.14-13.176-14.951-31.156-14.869-47.397.169-33.483 15.333-52.972 15.333-52.972s-32.062 30.668-17.193 82.247c6.871 23.834 27.028 42.592 50.415 51.274 33.322 12.369 73.187 10.063 73.187 10.063l22.885-1.975-.232-8.016z" class="K"/><path d="M339.166 219.411s-.581.929.116 4.182 1.975 5.46 1.975 5.46m3.486-9.875h0s-.465 1.975 1.046 4.995 2.556 4.066 2.556 4.066h0m2.671-9.293s-.465 2.207 1.046 4.763 2.788 3.834 2.788 3.834"/></g><path d="M358.218 223.07a4.705 4.821 0 1 0 9.41 0 4.705 4.821 0 1 0-9.41 0z" class="C E G I"/><g class="H C E"><path d="M363.329 228.123s3.02 4.647 2.091 7.667-19.284 5.111-22.304 2.788-3.02-9.526-3.02-9.526" class="I"/><g stroke-width=".92"><path d="M332.745 220.121l.164 2.793-1.807 1.314s-7.721 0-12.814-.329-16.429-.329-26.614-2.464-25.464-6.571-28.586-8.05l-3.121-1.479"/><path d="M333.895 228.992l-.493-3.286-2.505-1.437 2.012-1.355.493 2.793"/></g></g><path d="M262.692 220.051l32.992-.929 19.075-4.013 25.301 2.387-48.093 11.384z" class="G"/><g class="E H I C"><path d="M260.368 219.819s75.905 6.783 106.874-33.456c10.14-13.176 14.95-31.156 14.869-47.397-.169-33.483-15.333-52.972-15.333-52.972s32.062 30.668 17.193 82.247c-6.871 23.834-27.028 42.592-50.415 51.274-33.322 12.369-73.187 10.063-73.187 10.063l-22.885-1.975.232-8.016z" class="K"/><path d="M260.834 219.935s.581.929-.116 4.182-1.975 5.46-1.975 5.46m-3.486-9.874h0s.465 1.975-1.046 4.995-2.556 4.066-2.556 4.066h0m-2.671-9.294s.465 2.207-1.046 4.763-2.788 3.834-2.788 3.834"/></g><path d="M241.782 223.595a4.705 4.821 0 1 1-9.41 0 4.705 4.821 0 1 1 9.41 0z" class="C E G I"/><g class="H C E"><path d="M236.671 228.648s-3.02 4.647-2.091 7.667 19.284 5.111 22.304 2.788 3.02-9.526 3.02-9.526" class="I"/><g stroke-width=".92"><path d="M267.255 220.645l-.164 2.793 1.807 1.314s7.721 0 12.814-.329 16.429-.329 26.614-2.464 25.464-6.571 28.586-8.05l3.121-1.479"/><path d="M266.105 229.516l.493-3.286 2.505-1.437-2.012-1.355-.493 2.793"/></g></g><g class="G"><use xlink:href="#AL" class="F"/><g class="D B"><path d="M304.046 83.688c-.15.64-.139 1.167-.139 1.606.034.355.72.126.717.081-.034-.562.101-1.339-.074-1.556-.095-.117-.469-.252-.504-.131zm-3.115 3.483c-.846.162-.702 1.191-.454 1.319.41.181 1.044.257 1.282-.927.111-.486.211 2.416 1.337 1.298.648-.677 2.254.123 2.927-.729.482-.568.63-.964.255-1.802-.109-.255-.769-.13-.731.489.033.522-.391 1.165-.942 1.055-.268-.046.151-1.276-.118-1.609-.148-.183-.373-.163-.521.026-.207.266.208 1.444-.472 1.599-.858.187-.408-.788-.771-.966-1.167-.557-1.28.144-1.792.247z"/><use xlink:href="#AL"/><path d="M297.075 83.82c-1.057.875-2.038 1.232-3.011 2.338-.398.453-.386 1.084-.624 1.662-.238.613-1.004.734-1.241.606-.397-.247-.339-1.384-.783-.772-.376.564-.619 1.34-1.174 1.33-.502-.01-1.451-.982-.97-1.029 1.644-.159 1.624-1.404 2.24-1.486.691-.088.736 1.028 1.163.805.335-.163.493-1.462.857-1.813 1.115-1.078 1.997-1.647 3.135-2.439.576-.434.987.349.408.799z"/><path d="M297.637 85.154c-.181.196-.733.164-.783.44-.217 1.022 0 1.541-.238 2.525-.228.942-.92.978-.872.21.063-.996.931-2.402.318-2.499-.408-.091-.723-.607-.301-.862.797-.523 1.226-.443 1.774-.286.191.055.24.321.103.472zm1.9-7.946l-1.038 3.866-1.444-2.591v2.656l-3.114-3.585 1.083 3.844-2.798-2.311 1.489 2.613-4.965-3.11 3.159 3.585-3.972-1.9 2.844 2.332-6.499-2.376 6.274 3.002c2.294-1.098 5.439-1.771 8.937-1.771 3.485 0 6.645.68 8.937 1.771.009.004.037-.004.045 0l6.229-3.002-6.409 2.397 2.798-2.354-3.927 1.879 3.114-3.563-4.965 3.11 1.489-2.613-2.798 2.311 1.083-3.844-3.114 3.606.045-2.678-1.444 2.591-1.038-3.866z"/></g></g><defs ><path id="B" d="M371.475 136.746c-.055.291.732.721.92.498.847-1.015 1.956-3.007 2.183-4.212.067-.351-1.062-.748-1.303-.46-.793.95-1.562 2.908-1.8 4.174z"/><path id="C" d="M265.53 198.528c-.844 2.98-13.287-2.809-14.676-5.809 7.12 3.773 14.846 2.984 14.676 5.809z"/><path id="D" d="M279.46 176.416c2.119 1.736 3.495 3.718 4.136 6.28.669 2.386 1.609 4.289 2.988 6.434-2.247-1.532-3.659-3.616-4.366-6.128-.621-2.468-1.353-4.313-2.758-6.586z"/><path id="E" d="M319.133 176.416c-2.166 1.746-3.572 3.74-4.228 6.317-.683 2.4-1.644 4.314-3.054 6.472 2.297-1.541 3.741-3.638 4.463-6.164.634-2.483 1.383-4.339 2.819-6.624z"/><path id="F" d="M316.471 176.416c-2.323 1.824-4.512 3.895-5.168 6.472-.683 2.4-1.096 4.237-2.662 6.625 2.453-1.541 3.427-3.869 4.149-6.396.634-2.482 2.088-4.338 3.68-6.701z"/><path id="G" d="M290.221 186.334c.778 1.467 1.672 3.702 3.293 3.293.026-1.123-1.749-1.902-3.293-3.293z"/><path id="H" d="M308.067 186.525c-.789 1.383-1.695 3.49-3.338 3.104-.026-1.059 1.773-1.793 3.338-3.104z"/><path id="I" d="M305.859 186.946c-3.193 1.224-5.95.922-6.294 2.799 2.995.302 4.091-.848 6.294-2.799z"/><path id="J" d="M308.778 182.466c.062-.448-.243-.839-.61-.957l-2.134-.689c-.805-.191-1.256.386-1.259.766v1.646c.044.596.157.64.534.728.603.102 1.376.206 1.982.613.48.296.942.062 1.182-.459.155-.398.24-1.176.305-1.648z"/><path id="K" d="M300.103 182.466c-.056-.448.18-.877.507-.995.638-.269 1.274-.334 1.944-.307.744-.012.932.157.934.536v1.722c-.039.596-.026.64-.363.728-.539.102-1.457.129-1.999.536-.429.296-.918.062-.941-.497a14.96 14.96 0 0 0-.083-1.724z"/><path id="L" d="M289.57 182.351c-.063-.448.244-.839.613-.957l2.144-.689c.809-.191 1.262.386 1.265.766v1.646c-.044.596-.158.64-.536.728-.606.102-1.382.206-1.991.613-.482.296-.946.062-1.187-.459-.156-.398-.241-1.176-.307-1.648z"/><path id="M" d="M298.286 182.351c.056-.448-.18-.877-.51-.995-.641-.269-1.28-.334-1.953-.307-.748-.012-.936.157-.939.536v1.722c.039.596.026.64.364.728.541.102 1.464.129 2.008.536.431.296.922.062.946-.497-.01-.422.024-1.253.083-1.724z"/><path id="N" d="M276.513 99.404l6.548.038c.256-2.22-1.961-4.619-3.255-4.595-1.279.062-3.345 2.425-3.294 4.556z"/><path id="O" d="M-117.226 95.309c1.101-1.768 2.419 2.452 6.946 5.593 2.108 1.434 3.576 5.256 3.59 7.771.069 1.727-.192 3.45.001 5.121.121 1.057 1.223 3.403.47 4.003-1.993 1.481-4.572 4.844-5.769 6.004-1.035.907-1.931-4.681-2.708-7.182-.832-2.68-.459-5.883-2.767-8.359-1.636-1.672-5.761-3.317-5.298-4.062l5.534-8.89z"/><path id="P" d="M271.885 116.706l3.754 4.136 46.719.076 3.83-4.136-11.948-.153-5.821-4.059-18.765-.076-5.438 4.212z"/><path id="Q" d="M334.207 123.507c1.013-1.626 2.225 2.256 6.391 5.146 1.939 1.319 3.29 4.836 3.303 7.149.064 1.589-.176 3.174.001 4.711.112.972 1.125 3.131.432 3.683-1.833 1.363-4.206 4.456-5.307 5.524-.952.834-1.776-4.306-2.491-6.607-.766-2.465-.423-5.412-2.546-7.69-1.505-1.538-5.3-3.052-4.874-3.737l5.092-8.179z"/><path id="R" d="M353.94 122.919c.361-3.518-2.334-9.916-.422-13.326.261-.469-.572-1.713-1.111-.958-.841 1.205-1.706 4.638-2.067 3.37-.383-1.378-.442-3.816-1.685-4.29-.793-.277-1.915-.459-1.609.767.304 1.178.984 2.806.23 2.91-.437.064-1.697-1.604-2.758-2.374-.855-.687-2.13.388-.88 1.417 4.062 3.312 7.998 4.803 10.301 12.484z"/><path id="S" d="M364.142 120.57c.992-1.041.705-1.439-.762-1.456-1.164-.074-3.47.717-4.345.076-.802-.585-.483-3.067-.839-4.212-.155-.638-.6-1.64-1.6-.076-2.958 4.763-6.653 10.481-8.232 16.084-.863 3.14-.432 8.194 2.897 10.875l2.363-6.893c1.123-3.277 7.168-11.141 10.519-14.398z"/><path id="T" d="M352.123 145.703c-3.253.016-3.888-4.595-3.888-5.82 1.601.306 4.499 3.216 3.888 5.82z"/><path id="U" d="M372.679 138.185c.29-.377 1.122.01.914.92-.193 1.231-2 7.552-5.105 9.726-2.215 1.604-13.855 4.187-19.132 5.284-2.904.587-5.337 2.043-7.242 4.366.788-3.038 1.421-5.289 2.439-8.041.989-2.419 3.611-5.066 6.326-5.208 5.043-.182 11.57-.614 16.312-2.681 2.448-1.027 3.913-2.415 5.488-4.365z"/><path id="V" d="M360.952 176.313c.466-.09 1.104-.249.523.479-4.638 5.741-5.98 7.323-12.743 6.515-6.831-.904-8.458-2.76-13.241-5.457-2.555-1.506-6.29-1.84-9.122-.907-1.318.434-2.116.46-1.171-.491s2.062-2.241 3.225-3.131c2.546-1.965 6.866-2.816 10.391-2.184 4.985.786 9.104 3.975 14.027 5.18 2.586.593 5.423.504 8.111-.004z"/><path id="W" d="M321.892 186.412c-.856.108-1.399 1.786-1.82.65-.715-1.84-.214-3.304.589-3.142.948.256 2.553 2.408 1.231 2.492z"/><path id="X" d="M244.49 123.149c-.354-3.518 2.292-9.916.414-13.326-.256-.469.562-1.713 1.091-.958.826 1.205 1.675 4.638 2.03 3.37.376-1.378.434-3.816 1.655-4.29.779-.277 1.88-.459 1.58.767-.298 1.178-.966 2.806-.226 2.91.429.064 1.666-1.604 2.708-2.374.839-.687 2.092.388.864 1.417-3.989 3.312-7.853 4.803-10.114 12.484z"/><path id="Y" d="M237.324 176.097c-.468-.09-1.109-.249-.526.479 4.66 5.741 6.008 7.323 12.804 6.515 6.864-.904 8.498-2.76 13.304-5.457 2.567-1.506 6.321-1.84 9.166-.907 1.325.434 2.126.46 1.176-.491s-2.072-2.241-3.24-3.131c-2.559-1.965-6.899-2.816-10.44-2.184-5.009.786-9.148 3.975-14.094 5.18-2.599.593-5.449.504-8.15-.004z"/><path id="Z" d="M276.542 186.357c.867.108 1.416 1.786 1.842.65.723-1.84.217-3.304-.596-3.142-.96.256-2.583 2.408-1.246 2.492z"/><path id="a" d="M274.611 187.922c2.324.529 2.292-5.07-.082-7.443 1.045 3.596-1.747 6.883.082 7.443z"/><path id="b" d="M273.71 187.872c.153 2.661-6.531-.348-8.248-2.417 3.949 1.678 8.054.289 8.248 2.417z"/><path id="c" d="M270.779 184.073c.239 2.578-5.796.311-7.58-1.702 3.963 1.28 7.317-.419 7.58 1.702z"/><path id="d" d="M271.892 184.437c2.324.529 1.948-5.262-.311-7.251 1.084 3.864-1.517 6.692.311 7.251z"/><path id="e" d="M268.213 180.895c.239 2.654-4.456.617-6.278-1.895 3.925 1.281 6.015-.227 6.278 1.895z"/><path id="f" d="M266.935 178.881c1.523-1.095-.093-3.991-2.991-3.811.284 1.749 1.285 4.825 2.991 3.811z"/><path id="g" d="M244.384 141.088c-1.017-1.062-.723-1.468.781-1.485 1.193-.075 3.557.731 4.454.078.822-.597.495-3.129.86-4.297.159-.651.615-1.673 1.64-.078 3.032 4.859 6.819 10.692 8.438 16.407.885 3.203.052 8.203-2.891 11.563.104-2.865-.964-4.792-2.266-7.188-1.608-3.149-7.581-11.678-11.016-15z"/><path id="h" d="M256.884 166.635c3.334.016 3.907-4.453 3.907-5.703-1.641.312-4.532 3.047-3.907 5.703z"/><path id="i" d="M251.828 186.125c.239 2.654-7.059-.265-8.881-2.776 3.925 1.281 8.618.655 8.881 2.776z"/><path id="j" d="M256.301 187.26c1.523-1.095-1.586-3.914-4.063-4.577.284 1.749 2.357 5.591 4.063 4.577z"/><path id="k" d="M256.767 189.095c.163 2.387-7.826 1.078-9.916-1.128 6.874 1.243 9.691-.917 9.916 1.128z"/><path id="l" d="M260.507 190.688c.887 2.217-6.781 1.676-9.473.387 4.35-.038 8.864-1.931 9.473-.387z"/><path id="m" d="M264.093 192.307c.849 1.987-6.245 1.944-9.702.845 4.58-.038 8.863-2.811 9.702-.845z"/><path id="n" d="M269.251 193.373c1.256 2.351-6.226 2.579-8.654 1.422 4.327-.595 7.584-3.272 8.654-1.422z"/><path id="o" d="M260.488 189.348c-2.381 1.501-2.253-2.925-4.147-5.99 2.975 2.709 5.76 4.559 4.147 5.99z"/><path id="p" d="M264.709 190.938c-1.997 1.769-3.593-4.305-5.411-7.713 2.938 3.244 7.253 6.243 5.411 7.713z"/><path id="q" d="M270.284 192.63c-1.691 1.96-6.581-5.759-8.359-9.781 2.707 3.131 9.704 8.12 8.359 9.781z"/><path id="r" d="M225.541 137.968c-.291-.377-1.127.01-.919.92.194 1.231 2.01 7.552 5.13 9.726 2.225 1.604 13.921 4.187 19.223 5.284 2.918.587 5.362 2.043 7.277 4.366-.792-3.038-1.428-5.289-2.451-8.041-.994-2.419-3.628-5.066-6.356-5.208-5.067-.182-11.625-.614-16.39-2.681-2.46-1.027-3.932-2.415-5.514-4.365z"/><path id="s" d="M250.779 123.959c-.777 1.143-2.364.444-1.155-1.126.991-1.271 2.403-2.309 2.507-3.622.082-1.665 1.059-4.19 1.947-5.042.917-.908 1.977.369.996.974-1.102.716-1.817 3.657-1.793 4.789-.037 1.642-1.675 2.828-2.502 4.027z"/><path id="t" d="M235.418 116.204c-.092 1.614 1.207 2.005 1.149-.336-.059-2.443-1.788-4.679-.727-8.399.558-1.82.568-5.154.229-6.927-.297-1.758-1.548-.609-1.072.76.523 1.587-.098 4.632-.498 6.163-1.201 4.459.99 6.63.92 8.738z"/><path id="u" d="M341.372 170.403c.411 1.415 6.068-1.17 8.943-6.826-3.765 4.105-9.86 4.065-8.943 6.826z"/><path id="v" d="M350.797 161.806c-1.722 2.394-4.022 4.127-4.126 6.025-.176 2.184-.35 2.295-.969 4.442 1.708-.435 2.138-.577 2.599-3.844.285-2.296 2.752-4.511 2.496-6.623z"/><path id="w" d="M353.595 158.502c-2.097.984-2.573 2.614-2.657 4.633-.041 2.337-.634 4.143-1.718 5.781 2.16.299 2.553-3.085 2.798-5.6.249-2.604.689-2.812 1.576-4.813z"/><path id="x" d="M359.453 107.173c.188 1.485 1.425 1.62 1.065-.478-.3-1.703-.351-2.982 0-4.367.481-1.735.321-4.688-.041-5.921-.365-1.301-1.574-.539-1.065.479.56 1.18.589 3.636.204 4.783-.506 1.693-.369 3.941-.164 5.503z"/><path id="y" d="M362.942 116.096c.091 1.614-1.188 2.005-1.131-.336.058-2.443 1.76-4.679.716-8.399-.549-1.82-.559-5.154-.226-6.927.292-1.758 1.524-.609 1.056.76-.515 1.587.096 4.632.49 6.163 1.182 4.459-.975 6.63-.905 8.738z"/><path id="z" d="M366.296 110.787c-.173.951-1.311 1.037-.98-.306.276-1.09.323-1.91 0-2.796-.443-1.111-.295-3.002.038-3.791.336-.833 1.448-.345.98.307-.515.756-.542 2.328-.188 3.062.466 1.084.34 2.523.151 3.523z"/><path id="AA" d="M359.324 112.646c-1.674.711-3.837-4.047-2.238-4.939 1.239-.312 4.077 4.034 2.238 4.939z"/><path id="AB" d="M349.936 122.061c.75 1.143 1.945.48 1.268-1.356-.572-1.271-.633-2.845-1.27-3.775-.891-1.409-2.4-2.582-3.256-3.434-.885-.908-1.62-.033-.808.745.985 1.022 2.054 2.294 2.649 3.257 1.108 1.872.62 3.365 1.418 4.563z"/><path id="AC" d="M347.868 123.286c.75 1.143 2.281.444 1.115-1.126-.956-1.271-2.319-2.309-2.419-3.622-.079-1.665-1.022-4.19-1.879-5.042-.885-.908-1.907.369-.961.974 1.063.716 1.754 3.657 1.73 4.789.036 1.642 1.616 2.828 2.414 4.027z"/><path id="AD" d="M282.064 176.416c2.272 1.814 4.414 3.872 5.055 6.434.669 2.386 1.072 4.212 2.605 6.587-2.4-1.532-3.353-3.847-4.059-6.358-.621-2.467-2.043-4.312-3.601-6.662z"/><path id="AE" d="M304.989 62.762c.466-.411.704-1.098 1.192-1.516.268-.268.695.053.623.7-.06.509-.744.949-1.204 1.332-.374.28-.81-.325-.612-.515z"/><path id="AF" d="M343.812 76.342c.862-3.229 2.949.498 1.111 2.336-2.838 2.78-3.693 8.086-8.195 8.885-1.214.261-3.35-.546-3.983-.996-.247-.175.16-1.328.919-.766 1.097.857 3.362 1.05 4.558.076 2.559-2.511 4.642-5.837 5.591-9.536z"/><path id="AG" d="M335.884 83.811c.351-.977 5.017-8.809 5.63-10.532.314-.831 1.653 1.425.345 2.642-1.149 1.034-4.539 6.593-5.171 8.541-.291.879-1.174.461-.804-.651z"/><path id="AH" d="M290.774 178.184c.411.913 1.011.872.92-.001l-.704-4.007c-.109-1.137-1.284-.918-.974.271.392 1.282.31 2.689.758 3.738z"/><path id="AI" d="M294.293 178.237c-.005.463.712.421.705.055-.075-1.164-.163-2.736.162-3.304.253-.443 1.273-.13 2.22-.217.377-.056.299-1.094-.487-1.028-.927.083-3.372-.218-3.52.649-.213 1.559.964-.093.92 3.845z"/><path id="AJ" d="M301.388 173.743c.593.427.511.983-.217.812-.867-.217-1.451-.147-1.439.328.013.468.378.559.911 1.077.51.534-.313.447-.943 1.541-.537.906.559 1.025 1.851.682.329-.094.762.472-.054.938-.574.307-2.175.682-2.573-.479-.756-2.01 1.266-2.288.414-2.823-.465-.28-.632-.703-.548-1.264.18-1.294 2.108-1.122 2.599-.813z"/><path id="AK" d="M304.062 178.174c.779-1.422 1.317-2.488 1.534-3.696.189-1.09.972-1.195 1.137-.271.212 1.227.915 2.444 1.767 3.558.5.691-.506 1.3-.901.762-.724-.92-.755-2.201-1.182-2.192-.493.01-1.053 1.428-1.579 2.475-.153.304-1.087-.001-.776-.637z"/><path id="AL" d="M307.539 85.192c.62-.165.427-.166 1.403-.922.38-.272.455.525.415.84-.071.536-.743.158-.952.629-.305.612-.181 2.037-.284 2.617-.07.298-.575.272-.623.037-.145-.707.102-1.4.079-2.284-.008-.3-.462-.772-.038-.917z"/></defs></svg>