<?xml version="1.0" encoding="UTF-8" standalone="no"?>
<svg
   xmlns:dc="http://purl.org/dc/elements/1.1/"
   xmlns:cc="http://web.resource.org/cc/"
   xmlns:rdf="http://www.w3.org/1999/02/22-rdf-syntax-ns#"
   xmlns:svg="http://www.w3.org/2000/svg"
   xmlns="http://www.w3.org/2000/svg"
   xmlns:sodipodi="http://sodipodi.sourceforge.net/DTD/sodipodi-0.dtd"
   xmlns:inkscape="http://www.inkscape.org/namespaces/inkscape"
   version="1.1"
   baseProfile="full"
   preserveAspectRatio="xMidYMid meet"
   zoomAndPan="magnify"
   id="Naval_Ensign_of_New_Zealand"
   viewBox="-15 -7.5 30 15"
   width="1200"
   height="600"
   sodipodi:version="0.32"
   inkscape:version="0.44"
   sodipodi:docname="roncd.svg"
   sodipodi:docbase="C:\Dokumente und Einstellungen\VAMVAS\Desktop">
  <metadata
     id="metadata30">
    <rdf:RDF>
      <cc:Work
         rdf:about="">
        <dc:format>image/svg+xml</dc:format>
        <dc:type
           rdf:resource="http://purl.org/dc/dcmitype/StillImage" />
      </cc:Work>
    </rdf:RDF>
  </metadata>
  <sodipodi:namedview
     inkscape:window-height="975"
     inkscape:window-width="1280"
     inkscape:pageshadow="2"
     inkscape:pageopacity="0.0"
     guidetolerance="10.0"
     gridtolerance="10.0"
     objecttolerance="10.0"
     borderopacity="1.0"
     bordercolor="#666666"
     pagecolor="#ffffff"
     id="base"
     inkscape:zoom="0.5"
     inkscape:cx="867.81581"
     inkscape:cy="128.84271"
     inkscape:window-x="-4"
     inkscape:window-y="-4"
     inkscape:current-layer="Naval_Ensign_of_New_Zealand"
     showguides="true"
     inkscape:guide-bbox="true" />
  <defs
     id="defs3">
    <clipPath
       id="border">
      <rect
         x="-15"
         y="-7.5"
         width="30"
         height="15"
         id="rect6" />
    </clipPath>
  </defs>
  <rect
     x="-15"
     y="-7.5"
     width="30"
     height="15"
     id="rect8"
     fill="white" />
  <comment
     id="comment10">The above line is the ensign field color: #CF142B red and #00247D blue</comment>
  <g
     id="canton"
     transform="matrix(0.5,0,0,0.5,-7.5,-3.75)">
    <g
       clip-path="url(#border)"
       id="g13">
      <circle
         r="20"
         id="circle15"
         fill="#00247D" />
      <path
         d="M -20,-10 L 20,10 M -20,10 L 20,-10"
         id="diags_white"
         stroke-width="3"
         stroke="white" />
      <path
         d="M -20,-10 L 20,10 M -20,10 L 20,-10"
         id="diags_red"
         stroke-width="2"
         stroke="#CF142B" />
      <path
         d="M 0,0 l 20,10 h -3 l -20,-10 M 0,0 l 20,-10 h 3 l -20,10 M 0,0 l -20,10 h -3 l 20,-10 M 0,0 l -20,-10 h 3 l 20,10"
         id="eraser_white"
         stroke="none"
         fill="white" />
      <comment
         id="comment20">I think the above two lines give the simplest way to make the diagonals</comment>
      <path
         d="M -20,0 H 20 M 0,-10 V 10"
         id="cross_white"
         stroke-width="5"
         stroke="white" />
      <path
         d="M -20,0 H 20 M 0,-10 V 10"
         id="cross_red"
         stroke-width="3"
         stroke="#CF142B" />
    </g>
  </g>
  <g
     id="COA"
     transform="matrix(1.2,0,0,1.2,-1.5,0.375001)">
    <path
       transform="matrix(0.87366,0,0,0.853103,0.808874,1.7578)"
       d="M 10.952381 -0.59523809 A 3.2936509 3.3730159 0 1 1  4.3650792,-0.59523809 A 3.2936509 3.3730159 0 1 1  10.952381 -0.59523809 z"
       sodipodi:ry="3.3730159"
       sodipodi:rx="3.2936509"
       sodipodi:cy="-0.59523809"
       sodipodi:cx="7.65873"
       id="path1932"
       style="opacity:1;fill:none;fill-opacity:1;fill-rule:evenodd;stroke:#cf142b;stroke-width:0.57329541;stroke-linecap:round;stroke-linejoin:round;stroke-miterlimit:4;stroke-dasharray:none;stroke-dashoffset:0;stroke-opacity:1"
       sodipodi:type="arc" />
    <g
       id="g9092">
      <path
         style="fill:black;fill-opacity:1;fill-rule:evenodd;stroke:none;stroke-width:1px;stroke-linecap:butt;stroke-linejoin:miter;stroke-opacity:1"
         d="M 7.0625,1.25 L 7.9375,1.25 L 7.9375,3.7237508 L 7.0625,3.7237508 L 7.0625,1.25 z "
         id="rect4600" />
      <path
         transform="matrix(-0.501245,-0.865305,0.865305,-0.501245,0,0)"
         style="fill:black;fill-opacity:1;fill-rule:evenodd;stroke:none;stroke-width:1px;stroke-linecap:butt;stroke-linejoin:miter;stroke-opacity:1"
         d="M -5.2625685,5.8326817 L -4.3875691,5.8326817 L -4.3875691,8.3326797 L -5.2625685,8.3326797 L -5.2625685,5.8326817 z "
         id="rect9033" />
      <path
         transform="matrix(0.501245,-0.865305,-0.865305,-0.501245,0,0)"
         style="fill:black;fill-opacity:1;fill-rule:evenodd;stroke:none;stroke-width:1px;stroke-linecap:butt;stroke-linejoin:miter;stroke-opacity:1"
         d="M 2.259438,-7.1526446 L 3.1344371,-7.1526446 L 3.1344371,-4.6526475 L 2.259438,-4.6526475 L 2.259438,-7.1526446 z "
         id="rect9035" />
    </g>
    <g
       id="g9097">
      <path
         transform="matrix(0,1,-1,0,0,0)"
         style="font-size:0.87312412px;fill:#fc0"
         d="M 1.7740962,-7.1875 L 1.7740962,-7.8125 L 2.0098568,-7.8125 C 2.0513526,-7.8124994 2.0830431,-7.8105098 2.1049284,-7.8065314 C 2.1356238,-7.8014148 2.1613457,-7.7916803 2.1820942,-7.7773277 C 2.2028418,-7.7629741 2.2195397,-7.7428655 2.232188,-7.717002 C 2.2448352,-7.6911375 2.2511591,-7.6627155 2.2511597,-7.631736 C 2.2511591,-7.5785865 2.2342481,-7.5336087 2.2004264,-7.4968025 C 2.1666037,-7.4599957 2.1054965,-7.4415925 2.0171044,-7.4415928 L 1.8568043,-7.4415928 L 1.8568043,-7.1875 L 1.7740962,-7.1875 z M 1.8568043,-7.5153479 L 2.0183834,-7.5153479 C 2.0718164,-7.5153475 2.1097598,-7.5252952 2.1322136,-7.545191 C 2.1546665,-7.565086 2.1658932,-7.5930817 2.1658936,-7.629178 C 2.1658932,-7.6553258 2.1592851,-7.6777081 2.1460693,-7.696325 C 2.1328526,-7.7149409 2.1154442,-7.7272334 2.0938439,-7.7332026 C 2.0799167,-7.7368969 2.0541948,-7.7387443 2.0166781,-7.7387449 L 1.8568043,-7.7387449 L 1.8568043,-7.5153479 z M 2.2886767,-7.1875 L 2.5287006,-7.8125 L 2.6178036,-7.8125 L 2.8736017,-7.1875 L 2.7793827,-7.1875 L 2.7064803,-7.3767906 L 2.4451399,-7.3767906 L 2.3765008,-7.1875 L 2.2886767,-7.1875 z M 2.4690144,-7.4441507 L 2.6809005,-7.4441507 L 2.615672,-7.6172408 C 2.5957762,-7.669821 2.5809968,-7.7130224 2.5713336,-7.7468451 C 2.5633752,-7.7067696 2.5521485,-7.6669788 2.5376535,-7.6274727 L 2.4690144,-7.4441507 z M 2.8770124,-7.1875 L 3.1187415,-7.5132162 L 2.9055765,-7.8125 L 3.0040587,-7.8125 L 3.1174626,-7.6521999 C 3.1410526,-7.6189457 3.1578215,-7.5933659 3.1677695,-7.5754604 C 3.181696,-7.5981976 3.1981807,-7.62193 3.2172238,-7.6466576 L 3.3429912,-7.8125 L 3.4329469,-7.8125 L 3.2133868,-7.5179059 L 3.4500001,-7.1875 L 3.3476808,-7.1875 L 3.190365,-7.4104707 C 3.1815539,-7.4232603 3.1724588,-7.4371871 3.1630799,-7.452251 C 3.1491528,-7.4295132 3.1392051,-7.4138811 3.1332368,-7.4053547 L 2.9763473,-7.1875 L 2.8770124,-7.1875 z "
         id="text9061" />
      <path
         transform="matrix(0.865236,0.501364,-0.501364,0.865236,0,0)"
         style="font-size:2.53297877px;font-style:normal;font-weight:normal;fill:#fc0;fill-opacity:1;stroke:none;stroke-width:1px;stroke-linecap:butt;stroke-linejoin:miter;stroke-opacity:1;font-family:Arial"
         d="M 4.9194995,-2.3923688 L 5.1516067,-2.9967546 L 5.2377709,-2.9967546 L 5.485132,-2.3923688 L 5.3940207,-2.3923688 L 5.3235227,-2.575416 L 5.0708021,-2.575416 L 5.0044268,-2.3923688 L 4.9194995,-2.3923688 z M 5.0938891,-2.6405545 L 5.2987866,-2.6405545 L 5.2357095,-2.8079355 C 5.21647,-2.8587815 5.2021781,-2.900558 5.1928336,-2.9332652 C 5.1851376,-2.8945114 5.1742812,-2.8560331 5.1602644,-2.81783 L 5.0938891,-2.6405545 z M 5.551095,-2.3923688 L 5.551095,-2.9967546 L 5.8190696,-2.9967546 C 5.872939,-2.9967539 5.9138909,-2.9913257 5.9419256,-2.9804699 C 5.9699594,-2.969613 5.9923593,-2.9504425 6.0091254,-2.9229585 C 6.0258905,-2.8954734 6.0342732,-2.865103 6.0342738,-2.8318471 C 6.0342732,-2.7889708 6.0203935,-2.7528286 5.9926347,-2.7234205 C 5.9648748,-2.6940117 5.9219989,-2.6753222 5.8640069,-2.6673519 C 5.8851696,-2.6571824 5.901248,-2.6471505 5.9122423,-2.6372563 C 5.9356037,-2.6158181 5.9577288,-2.5890207 5.9786175,-2.556864 L 6.083746,-2.3923688 L 5.9831525,-2.3923688 L 5.9031724,-2.5181107 C 5.8798101,-2.5543902 5.8605709,-2.5821496 5.8454548,-2.601389 C 5.8303379,-2.6206279 5.8168018,-2.6340954 5.8048463,-2.6417913 C 5.7928902,-2.6494867 5.7807283,-2.6548462 5.7683605,-2.6578698 C 5.7592904,-2.6597934 5.7444487,-2.6607554 5.7238355,-2.6607556 L 5.6310751,-2.6607556 L 5.6310751,-2.3923688 L 5.551095,-2.3923688 z M 5.6310751,-2.7300168 L 5.8029911,-2.7300168 C 5.8395452,-2.7300164 5.8681292,-2.7337956 5.888743,-2.7413542 C 5.909356,-2.7489121 5.9250222,-2.7610053 5.9357416,-2.7776338 C 5.9464601,-2.7942616 5.9518196,-2.8123326 5.9518201,-2.8318471 C 5.9518196,-2.8604306 5.9414442,-2.8839299 5.9206938,-2.902345 C 5.8999425,-2.9207592 5.8671672,-2.9299665 5.8223677,-2.929967 L 5.6310751,-2.929967 L 5.6310751,-2.7300168 z M 6.132806,-2.5865473 L 6.2082511,-2.5931436 C 6.211824,-2.5629104 6.2201381,-2.5381056 6.2331934,-2.5187291 C 6.2462484,-2.4993524 6.2665182,-2.4836862 6.294003,-2.4717305 C 6.3214873,-2.4597746 6.3524074,-2.4537968 6.3867634,-2.4537968 C 6.417271,-2.4537968 6.4442058,-2.4583317 6.4675681,-2.4674017 C 6.4909295,-2.4764715 6.5083135,-2.4889083 6.51972,-2.504712 C 6.5311257,-2.5205155 6.5368287,-2.537762 6.5368292,-2.5564517 C 6.5368287,-2.5754159 6.5313318,-2.5919753 6.5203384,-2.6061301 C 6.5093442,-2.6202844 6.4912044,-2.6321715 6.465919,-2.6417913 C 6.4497027,-2.6481125 6.4138354,-2.6579382 6.3583169,-2.6712685 C 6.3027978,-2.6845982 6.2639072,-2.6971724 6.2416449,-2.7089911 C 6.2127859,-2.7241073 6.1912793,-2.7428655 6.1771248,-2.7652657 C 6.1629702,-2.7876653 6.1558929,-2.8127449 6.155893,-2.8405048 C 6.1558929,-2.8710122 6.1645506,-2.8995274 6.1818659,-2.9260505 C 6.1991811,-2.9525725 6.2244669,-2.972705 6.2577233,-2.9864478 C 6.2909795,-3.0001895 6.3279462,-3.0070607 6.3686236,-3.0070613 C 6.4134231,-3.0070607 6.4529322,-2.999846 6.4871508,-2.9854172 C 6.5213687,-2.9709872 6.5476851,-2.9497554 6.5661002,-2.9217217 C 6.5845144,-2.8936869 6.5944089,-2.8619423 6.5957836,-2.8264876 L 6.5191016,-2.8207159 C 6.5149785,-2.858919 6.5010301,-2.8877777 6.4772564,-2.9072923 C 6.4534818,-2.9268058 6.4183703,-2.9365628 6.3719217,-2.9365633 C 6.3235487,-2.9365628 6.2882997,-2.927699 6.2661748,-2.909972 C 6.2440496,-2.892244 6.2329871,-2.8708747 6.2329872,-2.8458642 C 6.2329871,-2.824151 6.2408202,-2.806286 6.2564865,-2.7922693 C 6.2718777,-2.7782518 6.3120739,-2.7638911 6.3770751,-2.7491873 C 6.4420758,-2.7344827 6.4866694,-2.7216336 6.5108563,-2.7106401 C 6.5460361,-2.6944239 6.572009,-2.6738792 6.588775,-2.649006 C 6.6055401,-2.6241322 6.6139229,-2.5954796 6.6139234,-2.563048 C 6.6139229,-2.5308909 6.6047156,-2.5005892 6.5863014,-2.4721428 C 6.5678863,-2.4436962 6.5414324,-2.4215711 6.5069397,-2.4057675 C 6.4724462,-2.3899639 6.4336243,-2.3820621 6.3904738,-2.3820621 C 6.3357793,-2.3820621 6.2899488,-2.3900326 6.2529822,-2.4059737 C 6.2160154,-2.4219147 6.1870192,-2.4458949 6.1659936,-2.4779145 C 6.1449678,-2.5099339 6.1339053,-2.5461448 6.132806,-2.5865473 L 6.132806,-2.5865473 z "
         id="text9073" />
      <path
         transform="matrix(0.866535,-0.499117,0.499117,0.866535,0,0)"
         style="font-size:0.84432805px;fill:#fc0"
         d="M 6.4805278,4.9477061 L 6.552675,4.9378116 C 6.5545988,4.983986 6.5632565,5.0155933 6.578648,5.0326336 C 6.5940393,5.0496742 6.6153398,5.0581944 6.6425498,5.0581943 C 6.6626134,5.0581944 6.6799287,5.0535907 6.6944957,5.0443833 C 6.7090623,5.035176 6.7190942,5.0226706 6.7245914,5.0068668 C 6.7300881,4.9910633 6.7328365,4.9658461 6.7328368,4.9312153 L 6.7328368,4.5148231 L 6.8128171,4.5148231 L 6.8128171,4.9266804 C 6.8128167,4.9772522 6.8067014,5.0164178 6.7944711,5.0441772 C 6.7822401,5.0719367 6.7628635,5.0930999 6.7363411,5.1076667 C 6.7098182,5.1222336 6.6786919,5.129517 6.642962,5.129517 C 6.5899166,5.129517 6.5493081,5.114263 6.5211364,5.0837551 C 6.4929646,5.0532472 6.4794284,5.0078976 6.4805278,4.9477061 L 6.4805278,4.9477061 z M 7.3401099,4.5148231 L 7.4200902,4.5148231 L 7.4200902,4.8640154 C 7.4200896,4.9247566 7.4132185,4.9729921 7.3994767,5.008722 C 7.3857339,5.0444521 7.360929,5.0735171 7.325062,5.095917 C 7.2891942,5.118317 7.2421268,5.129517 7.1838597,5.129517 C 7.1272411,5.129517 7.0809295,5.1197599 7.0449249,5.1002458 C 7.0089199,5.0807318 6.9832217,5.0524914 6.9678305,5.0155245 C 6.952439,4.9785578 6.9447433,4.9280548 6.9447434,4.8640154 L 6.9447434,4.5148231 L 7.0247237,4.5148231 L 7.0247237,4.8636031 C 7.0247235,4.916099 7.029602,4.9547836 7.0393592,4.979657 C 7.0491161,5.0045307 7.0658817,5.0237012 7.0896561,5.0371686 C 7.1134301,5.0506361 7.1424951,5.0573699 7.1768511,5.0573698 C 7.2356679,5.0573699 7.2775819,5.0440398 7.3025933,5.0173797 C 7.3276039,4.9907197 7.3401094,4.9394609 7.3401099,4.8636031 L 7.3401099,4.5148231 z M 7.5264556,4.9250313 L 7.6019009,4.918435 C 7.6054738,4.9486682 7.6137879,4.9734731 7.6268433,4.9928496 C 7.6398983,5.0122264 7.6601682,5.0278926 7.687653,5.0398484 C 7.7151374,5.0518042 7.7460576,5.0577821 7.7804137,5.0577821 C 7.8109213,5.0577821 7.8378562,5.0532472 7.8612185,5.0441772 C 7.88458,5.0351073 7.9019641,5.0226706 7.9133706,5.0068668 C 7.9247763,4.9910633 7.9304793,4.9738167 7.9304798,4.955127 C 7.9304793,4.9361627 7.9249824,4.9196033 7.913989,4.9054485 C 7.9029947,4.8912941 7.8848549,4.879407 7.8595694,4.8697872 C 7.8433531,4.863466 7.8074857,4.8536402 7.7519671,4.8403099 C 7.6964479,4.8269801 7.6575572,4.8144059 7.6352948,4.8025872 C 7.6064358,4.787471 7.5849291,4.7687128 7.5707746,4.7463124 C 7.5566199,4.7239128 7.5495427,4.6988331 7.5495427,4.6710732 C 7.5495427,4.6405658 7.5582003,4.6120505 7.5755157,4.5855273 C 7.5928309,4.5590052 7.6181168,4.5388727 7.6513733,4.5251298 C 7.6846295,4.5113881 7.7215963,4.504517 7.7622738,4.5045163 C 7.8070734,4.504517 7.8465826,4.5117317 7.8808013,4.5261605 C 7.9150192,4.5405905 7.9413358,4.5618224 7.9597509,4.5898561 C 7.9781651,4.617891 7.9880596,4.6496357 7.9894343,4.6850904 L 7.9127522,4.6908622 C 7.9086291,4.652659 7.8946806,4.6238002 7.8709068,4.6042856 C 7.8471323,4.584772 7.8120207,4.575015 7.765572,4.5750144 C 7.7171988,4.575015 7.6819498,4.5838788 7.6598248,4.6016058 C 7.6376995,4.6193339 7.626637,4.6407032 7.6266371,4.6657137 C 7.626637,4.687427 7.6344701,4.705292 7.6501365,4.7193088 C 7.6655277,4.7333263 7.7057239,4.747687 7.7707253,4.7623909 C 7.8357261,4.7770956 7.8803199,4.7899446 7.9045068,4.8009381 C 7.9396867,4.8171544 7.9656596,4.8376991 7.9824257,4.8625724 C 7.9991909,4.8874463 8.0075737,4.916099 8.0075742,4.9485306 C 8.0075737,4.9806878 7.9983663,5.0109896 7.9799521,5.0394361 C 7.9615369,5.0678827 7.935083,5.0900078 7.9005902,5.1058115 C 7.8660966,5.1216151 7.8272746,5.129517 7.7841241,5.129517 C 7.7294294,5.129517 7.6835988,5.1215464 7.6466322,5.1056053 C 7.6096652,5.0896643 7.580669,5.065684 7.5596433,5.0336643 C 7.5386175,5.0016448 7.527555,4.9654339 7.5264556,4.9250313 L 7.5264556,4.9250313 z "
         id="text9079" />
    </g>
  </g>
</svg>
