<svg height="600" viewBox="0 0 264.58333 158.75" width="1000" xmlns="http://www.w3.org/2000/svg"><g stroke-width=".264583" transform="translate(-11.339288 -158.660695)"><path d="m275.92262 317.4107c-88.18562 0-176.397707 0-264.583331 0 0-52.91667 0-105.83334 0-158.75001h264.583331z" fill="#fff"/><path d="m11.339289 211.57736h264.583331v105.83334c-88.18562 0-176.397707 0-264.583331 0 0-35.26896 0-70.56438 0-105.83334z" fill="#00966e"/><path d="m11.339289 264.49403h264.583331v52.91667c-88.18562 0-176.397707 0-264.583331 0 0-17.64771 0-35.26896 0-52.91667z" fill="#d62612"/></g><g transform="matrix(.26458333 0 0 .26458333 -51.329169 -25.664585)"><path d="m421 219.1v2.3c-.1.1-.2.2-.2.3-.6 2.4-2.1 4.3-3.4 6.4-2.2 3.3-4.9 6.4-6.3 10.2-.5 1.4-1.2 2.8-1.8 4.2-.9 2.2-2.4 3.4-4.8 3.7-.7.1-1.4.5-1.9 1-1.3 1.4-2.3 2.9-3.6 4.3-1.3 1.5-2.7 2.9-4 4.2-.8.8-1 1.6-.5 2.6.4.7.6 1.4.9 2.1.5.9.3 1.4-.5 2-2.8 2.1-4.9 4.7-6 8-.4 1.2-1 2.4-1.5 3.5-.6 1.4-1.7 2.2-3.2 2.4-2.9.4-5.7.1-8.3-1.3-1-.5-1.9-.5-2.9-.1-4.2 1.5-7.9 3.8-11.8 5.9-4.8 2.7-3.5 2.6-8.6.9-2.3-.7-4.5-.6-6.6.5-1.5.8-2.8.7-4.3 0-5.5-2.6-10.7-5.7-16.5-7.6-.9-.3-1.7-.5-2.5 0-2.4 1.3-5 1.7-7.7 1.6-2.1-.1-3.6-1-4.4-3-.5-1.3-1.2-2.6-1.7-4-.9-2.4-2.4-4.4-4.3-6.1-.5-.5-1.1-.9-1.7-1.4-.5-.3-.6-.7-.3-1.2.4-.8.7-1.6 1.1-2.3.6-1.1.4-2-.5-3-2.5-2.8-5-5.7-7.5-8.5-.4-.5-1.2-.9-1.8-1-2.3-.2-4-1.4-4.8-3.6-2.1-5.8-5.6-10.8-9.1-15.8-.9-1.3-1.5-2.8-2.2-4.2-.2-.3-.3-.7-.5-1 0-.8 0-1.5 0-2.3.5-1.8 1.5-3.4 2.7-4.9.3-.4.6-1 .6-1.4-.2-1.2-.5-2.4-1-3.5-.7-1.5-.8-1.6.6-2.4-.5-1.6-1.1-3.2-1.6-4.9-.1-.4 0-.8.1-1.2s.3-.8.3-1.2c-.2-1.5-.6-3-.8-4.5-.2-1.3 0-1.8 1.1-2.3 0-.3-.1-.6-.1-.9-.2-2.3-.3-4.6-.5-7 0-1 .1-2 1.6-1.7 0-.8 0-1.6 0-2.3-.2-3-.5-6-.8-9-.1-.7.3-1.2.9-1.4.7-.2.8.4.9.9.2 1.1.5 2.1.7 3.2.1-.7.2-1.3.2-2 0-3.3 0-6.7.1-10 0-.3 0-.6 0-.9 0-.6.4-1.1.9-1 .3 0 .7.7.7 1 .2 3.8.3 7.6.4 11.4 0 .9.2 1.7 1.2 2.3.1-.8.3-1.5.3-2.2.3-4 .5-8 .8-12 .1-1.1.2-2.1.3-3.2.1-.8.4-1.5 1.5-1.3 0 .5.1 1 .1 1.5-.2 4.2-.5 8.5-.7 12.7v1.5c1.1-1 1.1-2.4 1.3-3.6.9-5.4 1.7-10.9 2.6-16.3.1-.3.4-.6.6-.9.4.3.9.5 1 .9.2.5 0 1.1-.1 1.7-.7 5.4-1.5 10.9-2.2 16.3-.1 1.1-.1 2.2-.2 3.4 1-.1 1.3-.6 1.4-1.4 0-1.1 0-2.1.1-3.2.4-2.6.8-5.2 1.7-7.7.8-2.3 1-4.8 1.5-7.2.3-1.7.7-3.3 1.2-4.9.1-.3.6-.6 1-.8.2.4.5.8.4 1.2-.1 1.3-.3 2.5-.5 3.7-.2 1.1-.3 2.2-.5 3.4.2-.1.3-.2.3-.3 1.2-4.3 2.4-8.7 3.7-13 .1-.4.3-.8.5-1.1.3-.5.7-.9 1.2-.5.3.2.4.8.3 1.2-.7 2.7-1.4 5.4-2.1 8.1-.1.2-.1.5-.1.8.3-.3.5-.6.6-.9 1.4-3.6 2.8-7.2 4.2-10.7.2-.5.6-1 1-1.3.3-.2.8-.1 1.2-.2 0 .4.1.8 0 1.1-.8 2.4-1.7 4.7-2.5 7.1-.1.3-.2.6-.3.9.3-.1.4-.3.5-.5 2.1-3.9 4.2-7.7 6.3-11.6.5-.9 1.1-1.1 2.2-1-.2.6-.2 1.1-.4 1.6-1 2.1-2.1 4.2-3.1 6.4-.2.3-.3.6-.4 1 .9-1 1.7-2.2 2.4-3.2 2.4-3.3 4.8-6.7 7.3-10 .2-.2.4-.5.7-.6s.9-.1 1.1.1c.2.3.2.8.1 1.2-.3.6-.8 1.2-1.2 1.8-2.5 3.6-4.9 7.2-7.3 10.9-.3.5-.5 1.2-.7 1.8.1.1.2.1.3.2.3-.2.7-.5.9-.8 2.8-3.1 5.5-6.3 8.3-9.4 2.4-2.7 4.9-5.2 7.3-7.8h.2c.4.3.8.5 1.2.8-4.9 5.7-9.7 11.3-14.6 17 1.3.2 2-.3 2.7-1 2.5-2.1 5-4.2 7.4-6.3 2.8-2.4 5.7-4.9 8.4-7.4.5-.4.8-.7 1.4-.2s.4 1 0 1.5c-.3.4-.7.8-1.1 1.1-5.1 4.6-10.1 9.1-15.2 13.7-.5.5-.9 1.1-1.3 1.7.1.1.2.2.3.3.7-.4 1.4-.8 2-1.3 4.8-3.4 9.6-6.9 14.4-10.4.5-.4 1.2-1.2 1.8-.4.7.9-.2 1.3-.8 1.8-5.5 4.2-10.9 8.3-16.4 12.4-.3.2-.6.5-1.1.9 1.4.1 2.4-.3 3.4-.9 4.6-3 9.2-5.9 13.8-8.9.4-.2.8-.5 1.2-.6.9-.2 1.2.1 1 1-.1.3-.2.6-.4 1.1 7.6-1.8 14.9-1.4 22.4.1-.1-.4-.3-.6-.3-.9s-.1-.8 0-1c.2-.2.7-.2.9-.1.4.1.8.4 1.2.6 4.6 3 9.3 6 13.9 9 .9.6 1.9 1 3.2.8-.4-.4-.7-.6-1-.9-3.3-2.5-6.6-5-9.9-7.6-2.1-1.6-4.2-3.2-6.3-4.8-.2-.1-.3-.3-.5-.4-.5-.4-.9-.8-.5-1.5.5-.7 1-.3 1.5.1 2 1.4 4 2.9 6 4.3 3 2.2 6 4.3 9 6.4.6.4 1.3.8 1.9 1.2.1-.1.2-.2.3-.3-.4-.6-.8-1.2-1.4-1.7-5.1-4.6-10.2-9.1-15.2-13.7-.5-.4-1-.9-1.2-1.4-.1-.3.1-.9.4-1.2.3-.4.7-.3 1.1.1.7.7 1.5 1.5 2.3 2.1 2.1 1.8 4.2 3.6 6.3 5.4 2.5 2.1 5 4.2 7.5 6.4.7.6 1.5 1.2 2.7.9-4.9-5.7-9.7-11.3-14.5-17 .9-1 1.3-1.1 2-.4 1.9 2 3.8 4 5.7 6.1 3.1 3.5 6.1 7 9.1 10.5.3.4.7.6 1.1.9.1-.1.2-.1.3-.2-.3-.7-.5-1.5-.9-2.1-2.2-3.3-4.4-6.6-6.7-9.9-.6-.8-1.2-1.6-1.7-2.5-.2-.3-.2-.9 0-1.1s.8-.2 1.2-.1c.3.1.5.4.7.6.4.6.8 1.2 1.2 1.7 2.7 3.8 5.5 7.6 8.2 11.4 0 .1.1.1.4.1-.2-.5-.4-.9-.5-1.2-1-2.1-2.1-4.2-3.1-6.3-.2-.4-.2-1-.4-1.5 1.1-.1 1.7.3 2.2 1.2 2 3.8 4.1 7.6 6.2 11.5.1.2.3.4.4.6 0-.5-.1-.8-.2-1.2-.8-2.4-1.7-4.7-2.5-7.1-.1-.3-.1-.7.1-.8.2-.2.7-.2.8 0 .5.4 1.1.9 1.3 1.5 1.5 3.6 2.9 7.3 4.3 10.9.1.3.3.6.4.8.1-.4.1-.7 0-1-.7-2.7-1.4-5.4-2.1-8-.1-.3 0-.9.3-1.1.5-.3.9 0 1.2.5.2.3.3.6.4.9 1.2 4.3 2.4 8.7 3.7 13 .1.2.1.4.2.5 0-1.6-.3-3.1-.5-4.6-.1-1-.3-1.9-.3-2.9 0-.3.3-.6.4-.9.3.2.6.3.8.5.3.4.5.9.6 1.5 1.1 4.5 1.6 9.2 3 13.6.8 2.7 1.2 5.5 1.1 8.4 0 .8.4 1.3 1.2 1.3 0-.9.1-1.8 0-2.7-.7-5.3-1.4-10.6-2.1-15.9-.1-.9-.2-1.7-.2-2.6 0-.6.5-1 1-1 .3 0 .6.5.7.8 1 6.2 2 12.4 3 18.5.1.5.4 1 .6 1.4.1 0 .2-.1.3-.1 0-.5 0-1 0-1.6-.2-4.2-.5-8.5-.7-12.7 0-.5.1-1 .2-1.4 1.1.1 1.4.4 1.5 1.4.2 1.2.3 2.5.4 3.8.3 4 .5 8 .8 12.1 0 .5.3 1 .4 1.4h.5c.2-.7.6-1.4.6-2.1.1-2.6.1-5.3.2-7.9 0-1.3.1-2.5.2-3.8 0-.3.5-.6.7-.9.3.3.7.6.9.9.1.3 0 .7 0 1 0 3.4 0 6.8.1 10.2 0 .6.1 1.2.1 1.9.3-1.1.5-2.1.8-3.1.1-.5.3-1.1.9-.9s1 .6.9 1.4c-.2 2.3-.5 4.6-.7 6.9-.1 1.5 0 2.9 0 4.4 1.3.2 1.4.2 1.5 1.6.1 1.1.1 2.2 0 3.3-.1 1.6-.4 3.2-.5 4.8 1.1.5 1.3 1 1.1 2.3-.3 1.5-.6 3-.9 4.5-.1.3 0 .7.2.9.5.4.4.9.2 1.4-.6 1.6-1.1 3.3-1.6 4.9 1.1.7 1.4 1.2 1 1.9-.5 1-.8 2-1.2 3-.3.9-.2 1.7.4 2.5 1.1 1.3 2.1 2.8 2.6 4.7zm-12.3-19.7c-.2.2-.4.5-.6.7-.6.7-1 1.6-1.8 2-3.1 1.8-3.5 4.1-3.1 7.7 3.9-1.3 5.4-4.1 5.3-8.1.3 1.2.5 2.4.7 3.5.1.9.5 1.7 1.4 2.1.9-1 .6-2.3.7-3.5s-.5-2.1-1.4-2.8c-.3-.2-.8-.2-1.2-.4 0-.2 0-.7 0-1.2.8.4 1.6.9 2.4 1.3 1-4.2-1.9-8.8-5.7-9.3 0 .3-.1.7 0 1 .1 2.4 1.1 4.5 2.8 6.2.1.3.3.6.5.8zm-119.1-.2c.2-.2.4-.5.6-.7 1.2-1.3 2.1-2.7 2.5-4.5.2-.9.2-1.9.3-2.9-4.4 1.2-7.1 5.9-5.7 9.4.8-.4 1.6-.9 2.3-1.3 0 .5-.1 1-.1 1.5-1.1-.4-1.5.5-2 1.1-.9 1.3-.8 4.2.2 5.4.3-.2.7-.4.8-.7.4-1.6.8-3.2 1.1-4.6.4 1.5.5 3.3 1.2 4.8.8 1.7 2.7 2.1 4.2 3.2 0-1.3.1-2.4 0-3.5-.1-1.4-.6-2.6-1.8-3.4-1.4-1-2.9-1.8-3.5-3.6.1-.1 0-.1-.1-.2zm22.3 26.3c2.2 1.1 4 2.6 4.4 5.3.2.9.6 1.8 1 2.6 1.6 2.8 3.2 5.5 4.9 8.3 1.2 2 2.7 3.8 3.3 6.1.2.6.5.8 1.1.8 1.2-.1 2.3-.4 3-1.5.5-.7 1.2-1 2-.7.7.2 1 0 1.5-.4.4-.5.5-1 .2-1.6-.4-.7-.2-1.4.4-1.9.7-.6 1.5-1.2 2.2-1.8.2.2.3.3.5.4 1.3 1 2.8.4 3-1.2.1-.9.4-1.4 1.3-1.7.6-.2 1.2-.4 1.8-.7.7-.3 1.2-.1 1.6.5.2.3.8.6 1.2.6 1 0 1.8-.4 2.2-1.4.2-.6.7-.9 1.3-.9h1.4c.9 0 1.5.3 1.7 1.2.1.4.7 1 1.1 1 .7 0 1.4-.3 2-.6.7-.5 1.2-.6 2-.3.5.2.9.4 1.4.6.7.3 1 .7.9 1.5 0 .4 0 .9.3 1.2 1 1.1 1.8 1.1 2.9.1.2-.1.3-.2.5-.4.9.7 1.8 1.4 2.5 2.2.3.3.4 1.1.3 1.2-.6.5-.5 1.1-.4 1.7.1.7.3 1.1 1.2.8s1.7 0 2.2.8c.6.9 1.5 1.2 2.5 1.4.9.1 1.3-.2 1.6-1 .5-1.2 1-2.3 1.6-3.4 1.9-3.3 4-6.5 5.9-9.9.8-1.4 1.2-3.1 1.8-4.6.1-.2.1-.4.2-.6 1.2-1.4 2.1-3 4.1-3.5-.1-.2-.2-.4-.3-.5-1.2-1.3-1.4-2.7-1.1-4.4.4-2.6.6-5.3.6-7.9 0-2.9-.3-5.7-.4-8.6 0-.5.1-.9.1-1.4 0-.8 0-1.6 0-2.4 0-.6-.2-1.1-.1-1.7 0-.3.4-.6.5-.9.3.2.6.4.8.7.4.6.8 1.3 1.2 1.9.1 0 .2-.1.2-.1-.1-.3-.2-.6-.3-.9-.9-2.3-1.9-4.7-2.9-7-.7-1.8-.7-2.1 1-3-.8-2-1.5-3.9-2.3-5.9-.3-.8-.6-1.5-.8-2.3-.3-1 .2-1.6 1-1.9 1.5 3.3 2.6 6.8 5.1 9.6.1-.4.1-.7 0-1-1.2-3.6-2.3-7.1-3.5-10.7-.1-.4-.3-.9-.2-1.3s.4-.8.6-1.3c.3.3.6.6.9 1 .2.3.2.6.3.9 1 2.6 2 5.3 3 7.9.2.4.4.9.7 1.3.1-.1.3-.1.4-.2-.1-.6-.2-1.3-.4-1.9-.9-2.5-1.8-5-2.6-7.6-1.2-4-3.2-7.5-5.9-10.7-7.6-9.2-17.1-14.7-28.9-16.3-4.3-.6-8.7-.4-13 .6-10 2.3-18.1 7.6-24.4 15.6-1.5 1.9-3.3 3.7-4.2 6.1-.5 1.3-1 2.7-1.4 4-1 2.7-1.9 5.5-2.9 8.2-.2.6-.2 1.3-.3 1.9.1 0 .3.1.4.1.3-.6.6-1.1.8-1.7 1-2.7 2-5.4 3-8 .1-.4.3-.7.5-1 .1-.2.4-.4.6-.3.2 0 .4.3.4.5 0 .6.1 1.3-.1 1.9-1.1 3.6-2.4 7.2-3.5 10.8-.1.3-.1.6-.1.9.1 0 .2.1.3.1 2.3-2.9 3.4-6.4 5-9.9.4.6.8 1 .9 1.5s-.1 1.1-.3 1.6c-.9 2.4-1.9 4.9-2.8 7.3 1.7.8 1.8 1.2 1.1 2.9-1 2.4-1.9 4.7-2.9 7.1-.1.3-.2.6-.3.8.1 0 .2.1.2.1.4-.7.8-1.5 1.3-2.2.1-.2.5-.5.6-.4.2.1.5.4.6.6.1.6 0 1.2 0 1.8s-.3 1.3-.2 1.8c.5 2.4.3 4.8.1 7.1-.3 3.2-.5 6.5.1 9.7.6 2.8 1 5.1-.8 6.9zm64.3 41.6c0-.1.1-.2.1-.3-.5-4.8-1-9.5-.7-14.3.1-.8-.4-1.4-1.2-1.7-1.1-.4-2.1-.8-3.2-1.2-2.4-.7-4.9-1.2-7.3-.4-2.9.9-5.7 1.7-8.7 1.9-2.4.2-4.9.5-7.2.3-3.7-.4-7.3-1-10.9-1.9-4.4-1.1-8.6-.9-12.7 1-1.3.6-1.5 1-1.6 2.4-.1 3.6-.2 7.3-.4 10.9 0 1.1-.2 2.2-.3 3.3.7-.1 1.2-.2 1.7-.3 3.7-.7 7.3-.8 10.9 0 7.7 1.8 15.5 2.7 23.4 1.8 2.3-.3 4.7-.6 6.8-1.4 1.9-.7 3.8-.8 5.7-.7 1.9 0 3.7.3 5.6.6zm-64.6-14.3c-.9.3-2.1.6-3.2 1.1-2.3 1-3.3 3.1-4.4 5.2-.8 1.7-.9 1.7.5 3 2.6 2.5 4.7 5.3 5.9 8.8.1.3.3.6.4 1 .3.5.6.6 1 .2 1.5-1.4 3.3-1.6 5-1 3 1 6 2.3 9 3.4 1.4.5 2.9.9 4.3 1.3.7.2 1.7.2 1.9-.7s-.7-1.2-1.4-1.4c-2.4-.7-4.8-1.3-7.2-1.9-2-.5-2.7-1.6-2.4-3.6.4-3.1.7-6.2 1.1-9.3.1-1.1-.3-1.9-1.1-2.6-2.6-2.5-5.9-2.8-9.4-3.5zm74.4.3c-.9.2-2.1.5-3.3.7-1.9.3-3.5 1.2-5.1 2.3-1.3.9-1.5 2-1.4 3.4.4 3.1.7 6.1 1.1 9.2.2 1.5-.6 2.6-2.1 3-.9.3-1.9.4-2.8.7-1.8.5-3.6 1.1-5.4 1.7-.2.1-.5.4-.5.6s.3.5.5.7c.7.6 1.6.6 2.3.3 1.7-.6 3.3-1.3 4.9-1.9 2.4-.9 4.8-1.8 7.3-2.6 1.6-.5 3.3-.5 4.7.7.9.8 1 .7 1.6-.4 1-2 2-4.2 3.2-6.1.9-1.4 2.3-2.5 3.4-3.8.4-.4.7-.8.4-1.4-.8-1.4-1.5-3-2.4-4.2-1.5-1.9-3.6-2.8-6.4-2.9zm-83.7-66.7c.1 0 .2.1.3.1.2-.2.4-.5.5-.7.7-1.6 1.6-3.2 2.1-4.9 2.3-6.7 5.3-12.8 10.1-18.2 3-3.4 6.1-6.5 9.9-9.1 6-4.2 12.8-6.2 20-7.1 3.3-.4 6.5-.1 9.8.4 4.3.6 8.5 1.7 12.5 3.5 8.4 3.8 14.4 10.2 19.6 17.5 2.6 3.7 4.3 8 5.8 12.2.7 2 1.6 3.9 2.4 5.8.1.3.3.5.5.8.1 0 .2-.1.3-.1-.1-.6-.2-1.2-.4-1.8-2-4.9-4-9.9-6.2-14.8-1.3-3-3.3-5.7-5.4-8.2-7-8.1-15.6-13.5-26.2-15.7-.6-.1-1.1-.3-1.7-.5 0-.2.1-.3.1-.5 2.8.4 5.5 1.3 8.6 1.8-1.5-1.3-3-2-4.7-2.4-2.4-.5-4.8-1-7.3-1.2-5.2-.3-10.3 0-15.4 1.1-1.5.3-2.9 1-4.2 2.2.3 0 .4-.1.5-.1 2.3-.5 4.7-1.1 7-1.6.4-.1.7 0 1.1 0v.3c-.6.1-1.1.3-1.7.4-11.8 2.6-21.2 8.9-28.3 18.6-4.5 6.2-6.9 13.4-9.5 20.5-.1.8-.1 1.3-.1 1.7zm65.9 61.7c-.2-.8-.7-.7-1.3-.7-1.8 0-2.9-1.7-2.1-3.3.1-.3 0-.8-.1-1-.2-.4-.7-.7-1-1-.5-.4-.9-.5-1.4 0-.6.6-1.2.6-1.9.2-.3-.2-.6-.3-.9-.4-.8-.3-1.3-.8-1-1.7.2-.8-.2-1.2-.9-1.4-.4-.1-.7-.2-1.1-.4-.5-.2-.9-.1-1.2.4-.3.8-1 .9-1.7.8-.5-.1-.9-.2-1.4-.3-.6-.1-1-.4-1.1-1-.1-.8-.6-1.1-1.3-1.1-.8 0-1.8-.2-2.1.9-.2.8-.8 1.2-1.6 1.2-.4 0-.8 0-1.2.1-.7.1-1.2 0-1.4-.8-.1-.2-.3-.4-.5-.5-1-.3-2.8 1-3 1.9-.2.6-.6 1.3-1.1 1.8-.7.6-1.6.7-2.6.3-1.2-.5-1.8.4-2.5 1.1-.2.2-.1.9.1 1.3.3.9.1 1.6-.7 2.1-.6.3-1.4.4-2 .6-.4.1-.8.2-1.1.4 1.7.3 3.4.4 5 .6.9.1 1.7-.2 2.5-.7 1.2-.9 2.4-1.7 3.7-2.5 3.4-2 7.2-2.6 11.1-2 3.6.6 6.8 2.3 9.4 4.8.6.6 1.2.7 1.9.5.8-.3 1.7-.6 2.6-.3.6.2 1.2.1 1.9.1zm-50-11.8c-.5-1.1-1-2.2-1.6-3.1-.4-.6-1-1.1-1.6-1.3-3.4-1.1-6.9-.9-10.3.3-2.9 1-5.8 2-8.8 2.2-2.3.2-4.6.2-6.9.2-.9 0-1.7-.3-2.8-.5.8 1.5 1.5 2.8 2.3 4.1.1.2.4.4.7.4 1.9.3 3.8.8 5.8.9 3.8.2 7.4-.7 10.9-1.8 2.5-.8 5-1.6 7.6-1.6 1.5 0 3 .1 4.7.2zm61.9.2c1.7-.1 3.2-.3 4.7-.2 2.8 0 5.5 1 8.2 1.8 5.1 1.6 10.3 2.3 15.5.9.5-.1 1.2-.3 1.4-.7.8-1.2 1.4-2.5 2.2-4-.3 0-.5 0-.6.1-2.2.6-4.5.7-6.8.4-3.3-.3-6.6-.7-9.7-2s-6.2-1.6-9.4-1.2c-1.5.1-3.1.4-3.9 1.9-.6.9-1.1 2-1.6 3zm29.3 3.4c-.6 0-1 0-1.3.1-5 .9-10 .3-14.8-1.1-3-.9-6.1-1.4-9.3-1.5-4.6 0-4.6-.1-6.7 4 0 .1-.1.1-.1.2-.3.7-.1 1 .7 1.1.3 0 .6 0 .8-.1 2.7-1 5.4-.7 8.2-.1 6.2 1.4 12.3 3.3 18.7 2.2 1-.2 1.8-.5 2.3-1.4.5-1.1.9-2.2 1.5-3.4zm-120.5-.2c.6 1.3 1 2.4 1.5 3.4.3.6.9 1.2 1.5 1.3 1.7.3 3.5.6 5.2.5 4.7-.3 9.3-1.2 13.8-2.4 2.9-.8 5.9-1.1 8.8 0 .3.1.6.1.8.1.6-.1 1-.4.6-1-.7-1.1-1.3-2.3-2-3.3-.4-.5-1.2-1-1.8-1-4.1 0-8.2.1-12.2 1.4-3.9 1.3-7.9 1.8-12 1.5-1.3-.2-2.6-.4-4.2-.5zm-6.8-11.7c.9 1.4 1.7 2.5 2.5 3.8.5.9 1.3 1.5 2.3 1.7 2.4.6 4.8.6 7.3.5 3.1-.2 5.8-1.4 8.8-2.1 2.1-.5 4.3-1.1 6.5-1 2 .1 3.9 0 5.9 0-.1-1.3-2-3.8-3.4-4.3-2.2-.7-4.4-.9-6.6-.2-2.5.7-4.9 1.5-7.4 2.1-5 1.4-10 1.7-15-.3-.3-.1-.5-.1-.9-.2zm134 .4c-.1-.1-.1-.1-.2-.2-.3.1-.6.1-.8.2-3.8 1.5-7.7 1.7-11.6.9-3.1-.6-6.1-1.5-9.1-2.4-2.5-.7-5-1.1-7.5-.3-2.2.7-3.2 2.4-3.9 4.4 0 .1 0 .2.1.3 2.9-.6 5.7-.5 8.5-.1 2.7.4 5.3 1.4 8 2.1 4 1.1 8.1 1.5 12.2.3.4-.1 1-.3 1.2-.7 1-1.5 2.1-3 3.1-4.5zm-29.4-58.5c.1-.1.2-.1.3-.2-.5-.8-1-1.7-1.6-2.5-1.8-2.3-3.7-4.5-5.5-6.7-.9-1-1.8-2-2.7-2.9-7.5-6.5-16.2-9.8-26-10.6-5.6-.5-10.9.6-16.1 2.4-6 2.1-11.3 5.3-15.6 10-2.3 2.5-4.4 5.2-6.5 7.8-.6.7-1 1.5-1.4 2.2.1.1.2.1.3.2 1-1.4 2-2.7 3-4.1 2.9-3.9 6.6-7 10.6-9.8 9.9-6.9 20.7-9.2 32.4-6.6 11.4 2.5 20.4 8.8 27.2 18.2.3.9 1 1.8 1.6 2.6zm14.3-20.3c-.1 0-.2 0-.3.1 0 .2-.1.3 0 .5.9 4.7 1.7 9.3 2.7 14 .3 1.5.3 3-.3 4.4-.5 1.1-1.1 2.1-1.7 3.2-.7 1.2-.9 2.5-.6 3.8.3 1.4.5 2.8.7 4.2 0 .3.1.6.3 1 .2-.3.3-.4.4-.5.8-1.6 1.6-3.3 2.4-4.9 1-2 1.1-4 .7-6.1-1.1-5.3-2.2-10.7-3.3-16.1-.5-1.3-.7-2.5-1-3.6zm-104.5 30.8h.3c.3-1.6.4-3.2.8-4.7.4-1.7 0-3.2-.9-4.7-.5-.9-1-1.8-1.4-2.8-.6-1.3-.6-2.6-.3-4 .9-4.7 1.8-9.4 2.7-14.2 0-.2 0-.4-.1-.6-.4.4-.6.9-.7 1.3-1.3 6.4-2.6 12.7-3.9 19.1-.3 1.6-.2 3.2.6 4.7.9 1.8 1.7 3.6 2.6 5.3.1.2.2.4.3.6zm12.8-22.9c.8 0 1.4-.2 2-.1 2.8.4 5.1-.6 7.4-2.1 5.3-3.5 10.7-7 16-10.5.9-.6 1.7-1.3 2.6-1.9.2-.1.3-.3.4-.5-.1-.1-.1-.2-.2-.2-.5.3-1 .5-1.5.8-4.4 2.8-8.7 5.6-13.1 8.5-2.2 1.4-4.6 2-7.2 1.3-.7-.2-1.5-.1-2.1.1-2.2.7-3.3 2.5-4.3 4.6zm79.6 0c-.7-1.7-1.7-3.3-3.5-4.1-.8-.4-1.8-.6-2.6-.4-3 .8-5.6-.1-8.1-1.7-4.1-2.8-8.3-5.4-12.5-8.1-.4-.3-.9-.5-1.4-.7-.1.1-.1.2-.2.3.9.7 1.8 1.5 2.8 2.1 5.1 3.4 10.4 6.7 15.4 10.2 3.1 2 6.3 3 10.1 2.4zm-11.7-27c-.1.1-.2.1-.3.2.2.5.3.9.6 1.3 2.4 3.4 4.7 6.9 7.2 10.2 1.3 1.8 1.8 3.7 1.4 5.9-.4 2.5-.3 4.8 1.7 6.7.6.6 1.1 1.4 1.8 2.3.2-1.8.3-3.4.6-4.9.4-2.1-.1-3.9-1.3-5.6-3.7-5.1-7.3-10.2-11-15.3-.2-.3-.5-.6-.7-.8zm-68.5 26.1c.1 0 .2.1.3.1 1-1.4 2.1-2.8 3.1-4.3.2-.3.3-.7.3-1.1 0-1.3 0-2.5-.2-3.8-.2-2 .1-3.7 1.4-5.4 2.5-3.4 4.9-6.9 7.3-10.4.3-.4.4-.8.6-1.3-.1-.1-.2-.1-.3-.2-.2.2-.4.4-.6.6-.6.9-1.3 1.8-1.9 2.7-3 4.2-6.1 8.4-9.1 12.7-.9 1.3-1.7 2.7-1.6 4.3.1 2.1.4 4.1.7 6.1zm27.3-25.1c-.1-.1-.2-.2-.2-.2-.4.3-.8.6-1.2.9-4.9 4.2-9.8 8.4-14.7 12.6-1.4 1.2-3 2.1-4.9 2.1-.3 0-.7 0-1 .2-.4.3-.8.7-.9 1-.1 1.2 0 2.5 0 3.7.1.1.2.1.2.1l2.1.3c1.5.2 2-.2 2.2-1.7.1-1.7.9-3 2.1-4.2 5.1-4.4 10.1-8.9 15.1-13.4.5-.4.8-.9 1.2-1.4zm49.3 20.6c0-1 0-2 0-2.9 0-1.5-.4-2-1.8-2.1-2-.1-3.7-1-5.2-2.3-4.9-4.2-9.8-8.3-14.7-12.5-.4-.3-.8-.5-1.1-.8-.1.1-.1.2-.2.2.4.5.8 1 1.2 1.4 5.1 4.5 10.1 9 15.2 13.5 1.2 1.1 1.9 2.4 2 4 0 .3.1.6.2.8.2.8.7 1.1 1.5 1 .9 0 1.8-.2 2.9-.3zm5.9-12.5c-.1 0-.2.1-.3.1.2.6.3 1.1.5 1.7 1.6 4.1 3.1 8.2 4.7 12.3.6 1.5.5 2.8-.5 4.1-.5.7-.9 1.6-1.1 2.5-.5 2.7.7 5 2.1 7.2.1.1.3.2.6.4.5-1.9.9-3.8 1.3-5.6.5-1.9.2-3.7-.4-5.5-2.1-5.4-4.2-10.8-6.3-16.3-.2-.2-.4-.5-.6-.9zm-90 28.4c.4-.5.7-.7.8-.9.6-1.6 1.3-3.2 1.8-4.8.4-1.6 0-3.1-1-4.4-1.1-1.4-1.1-2.9-.5-4.5 1.6-4 3.1-8 4.6-12.1.2-.5.3-1.1.5-1.7-.1 0-.2-.1-.3-.1-.2.4-.5.8-.6 1.2-2.1 5.3-4.1 10.6-6.2 15.9-.7 1.9-1 3.8-.5 5.7.4 1.8.9 3.6 1.4 5.7zm92.3-6.2c.4-1.5.7-3 1.1-4.4.5-1.7.4-3.3-.4-4.8-2.8-5.4-5.6-10.7-8.3-16.1-.2-.4-.6-.8-.9-1.2-.1.1-.2.1-.3.2.2.5.4 1 .6 1.4 1.9 3.6 3.8 7.3 5.7 10.8.8 1.6.9 3 .3 4.7-1.5 4.1-.6 6.5 2.2 9.4zm-88.7-.2c2.9-3 3.7-5.4 2.2-9.4-.6-1.7-.6-3.1.3-4.7 2-3.6 3.9-7.3 5.8-10.9.2-.4.3-.9.5-1.3-.1-.1-.2-.1-.3-.2-.3.5-.7.9-.9 1.4-.5.8-.9 1.7-1.3 2.5-2.2 4.3-4.5 8.7-6.7 13-.7 1.4-1.2 2.9-.8 4.4.3 1.7.7 3.4 1.2 5.2zm-21.3-.5c-.2 0-.3 0-.5-.1-.1.3-.2.6-.2.9v3.3c0 4.7-.1 9.4-.1 14.1 0 1 .2 2.2.7 3 .8 1.2 2 2.2 3.2 3.4.2-1 .3-1.7.5-2.5.7-2.9.1-5.3-2.2-7.3-1-.8-1.3-1.9-1.3-3.2 0-2.2-.1-4.4-.1-6.6-.1-1.7 0-3.3 0-5zm128.3 24.7c1.1-1.1 2.1-2.1 3-3.2.4-.5.6-1.3.7-2 .1-1.2 0-2.5 0-3.8 0-4.8 0-9.7 0-14.5 0-.4-.1-.7-.2-1.1-.1 0-.2 0-.3.1 0 .5-.1 1-.1 1.5-.1 3.3-.1 6.7-.1 10 0 1.4-.5 2.5-1.5 3.5-2.6 2.6-3.1 6-1.5 9.5zm6.4 29.3c-.7 1.1-1.4 2.2-2 3.3-.5.9-.7 1.9-.1 3 .2.3.2 1 0 1.3-.5 1.1-1.2 2.2-1.8 3.3-.4.7-.8 1.3-1.1 1.9 3.6-.1 5.6-2.1 6.6-5.4.9-2.8.3-5.1-1.6-7.4zm-138.2-.2c-2.1 2.6-2.5 5.2-1.3 8.2 1.3 3.2 3.1 4.5 6.3 4.6-.9-1.6-1.8-3.3-2.7-4.9-.2-.5-.4-1.2-.2-1.7.6-1.1.4-2.2-.2-3.2-.5-1-1.2-1.9-1.9-3zm18.4-41.4c.1 0 .2.1.3.1.5-1.4 1-2.7 1.4-4.1.5-2.1.3-4.2-1-5.9-1.2-1.6-1.3-3.2-.7-5 1.4-4.7 2.7-9.5 4-14.2.1-.4.1-.9.2-1.4-.1 0-.2 0-.3-.1-.2.4-.3.8-.4 1.2-1.9 6.9-3.7 13.8-5.6 20.6-.1.4-.2.8-.1 1.2.6 2.6 1.4 5.1 2.2 7.6zm101.4.3c.1-.2.2-.2.2-.3.7-2.4 1.4-4.8 2.1-7.1.1-.4.1-.8 0-1.2-1.9-7-3.8-14.1-5.7-21.1-.1-.3-.3-.6-.4-1-.1 0-.2 0-.3.1.1.5.1.9.2 1.4 1.4 4.9 2.7 9.8 4.1 14.7.4 1.4.3 2.8-.6 4-2 3-1.9 7.5.4 10.5zm12.4 25.2c1.1-1 1.8-1.9 2.8-2.4 1.2-.6 2-1.4 2.5-2.6 1.2-2.8 1.7-5.8 1.7-8.8 0-.3-.1-.6-.2-.9-.4 1-.7 2-.7 2.9-.1 1.5-.9 2.4-2.2 2.9-2.1.8-3.2 2.3-3.5 4.5-.1.5-.3.9-.3 1.4-.2 1-.1 1.9-.1 3zm-126.3-.1c.1-.4.3-.7.3-.9.2-2.1-.3-4.1-1.2-5.9-.3-.6-1-1.1-1.6-1.5-.4-.3-.8-.4-1.3-.6-1.1-.6-1.9-1.4-2-2.8-.1-1-.3-2-.5-3-.3.3-.4.5-.4.8 0 3.2.4 6.3 1.9 9.2.3.7.9 1.4 1.5 1.7 1.3.6 2.3 1.6 3.3 3zm132.6 9c-.1 0-.1-.1-.2-.1-.2.2-.4.4-.6.7-.8 1.2-1.9 2-3.2 2.5-2.4.8-3.9 2.6-4.7 5-.2.7-.3 1.4-.5 2.3 2.7-.4 4.8-1.5 6.5-3.3.3-.3.6-.7.7-1.1.7-2 1.4-4 2-6zm-138.4-.5c-.1.1-.2.2-.3.3.5 1.6 1 3.1 1.5 4.7.9 3 4.4 5.5 7.6 5.6 0-.2 0-.5 0-.7-.6-2.8-1.9-5.1-4.7-6.2-1.5-.6-2.8-1.4-3.7-2.8-.2-.4-.3-.7-.4-.9zm121.9 9.6c1.3-.6 2.5-1.2 3.8-1.9 2.6-1.5 3.7-4.2 3-7.1-4.2.2-8 6-6.8 9zm-112.5-9.2c0 1-.1 1.9 0 2.9.2 1.7.9 3 2.4 3.9 1.4.9 2.9 1.6 4.4 2.4 1.2-3-2.4-8.9-6.8-9.2zm76.7 63.7c1.6-.2 3.2-.4 4.8-.5 1.2-.1 2.4 0 3.6.1.8 0 1.4-.3 1.6-1.2.2-.8-.2-1.5-1.1-1.7-.9-.3-1.9-.6-2.8-.6-2.1 0-4.1.2-6.2.4-1.1.1-1.3.9-.7 1.8.3.6.5 1.2.8 1.7zm-64.4-102.7c5.6.2 8.6-1.5 10.1-5.5-5.3-.9-9 1.1-10.1 5.5zm84.6-5.3c1.4 3.9 5.7 6.3 10.1 5.5-1.1-4.4-4.9-6.5-10.1-5.5zm-58.6 103.6c-1.4.3-3 .5-4.6.9-.8.2-1.1.9-1 1.7s.6 1.2 1.4 1.2h1c2 .1 4 0 6 .3 2.3.4 2.2.5 2-1.9-.1-.9-.4-1.5-1.4-1.7-.9-.1-2-.3-3.4-.5zm-42.1-75.5c.1 0 .2 0 .3-.1-.1-1.4-.2-2.7-.3-4.1-.2-1.7-1-3-2.3-4-1.2-.9-1.8-2.2-1.9-3.7-.2-2.4-.3-4.8-.5-7.2 0-.4-.2-.8-.4-1.2-.1 0-.2.1-.3.1 0 .1-.1.2-.1.4.3 4.4.6 8.8.9 13.2.1 1.8.3 3.5 2 4.7.9.5 1.8 1.2 2.6 1.9zm126.7.4c.7-.5 1.2-1 1.8-1.4 2.2-1.3 2.9-3.3 3.1-5.7.3-4.3.6-8.6.9-12.9 0-.2-.1-.4-.1-.5-.1 0-.2 0-.3 0-.1.4-.3.8-.3 1.2-.2 2.3-.4 4.7-.5 7.1-.1 1.7-.9 3.1-2.2 4.2-.7.6-1.4 1.5-1.7 2.4-.8 1.6-.9 3.5-.7 5.6zm-.3 13.4c.4-.2.7-.4.9-.5 2.3-1.3 4-3.3 5.6-5.4.3-.3.3-.8.4-1.2.2-.7.3-1.5.4-2.2s.2-1.3.2-2.1c-.2.1-.3.1-.4.2-2 1.8-4 3.6-5.9 5.4-.8.7-1.2 1.7-1.2 2.8zm-126.2-.2c.1-.1.2-.1.3-.2 0-.8 0-1.5 0-2.3.1-1.5-.4-2.8-1.6-3.8-1.4-1.3-2.9-2.6-4.3-3.9-.5-.5-1-.9-1.6-1.5 0 .4-.1.6-.1.8.2 1.4.5 2.9.7 4.3 0 .3.2.5.4.7.8 1 1.6 2 2.5 2.8 1.2 1.2 2.5 2.2 3.7 3.1zm4.2 19.4c.1-.2.2-.2.2-.3s0-.1 0-.2c-.5-2.8-1.4-5.3-4.3-6.4-1.6-.7-3.2-1.5-4.4-2.9-.2-.2-.6-.3-1-.4.9 2 1.7 3.9 2.6 5.7.3.6.8 1.3 1.3 1.7zm127.6-9.7c-.1-.1-.1-.2-.2-.3-.3.1-.7.1-.9.4-1.2 1.5-2.8 2.3-4.4 3-2.8 1.2-3.8 3.7-4.2 6.5 0 .1.1.2.1.4 1.4-.7 2.8-1.4 4.2-2 1.5-.7 2.4-1.8 3-3.3.4-1.2 1.1-2.3 1.6-3.4.3-.5.5-.9.8-1.3zm-12-62.5c-.1 0-.2 0-.3 0 0 .5-.2 1-.1 1.4.4 3 1 6 1.4 9 .5 3.3.9 6.6 1.2 9.9.1.7-.2 1.4-.5 2-.4.9-.7 1.8-.2 2.6.6.8 1.3 1.6 2.1 2.2.2.2.9-.1 1.2-.3 1.1-1.4 1.2-3.2.1-4.6-1.4-1.9-2.1-4-2.5-6.2-.6-4.2-1.3-8.5-1.9-12.7-.1-1.1-.3-2.2-.5-3.3zm-112.8-.2c-.1 0-.2 0-.3 0-.1.2-.2.3-.2.5-.6 4.4-1.3 8.9-1.9 13.3-.4 3.1-1 6.1-3 8.7-1 1.3-.8 3.3.3 4.5.4.5.9.5 1.3.1.6-.5 1.1-1 1.6-1.6.7-.8.9-1.8.3-2.6-1-1.5-.9-3.1-.6-4.7.8-5.5 1.6-10.9 2.4-16.4.2-.6.1-1.2.1-1.8zm21.7 29.1c-.1 0-.2 0-.3-.1-.1.3-.3.5-.4.8-.8 1.7-1.6 3.4-2.3 5.1-.6 1.5-1.6 2.6-3 3.4-.7.4-1.3.8-1.9 1.3-.6.6-1.2 1.2-1.4 2-.4 1.5-.4 3.1-.6 4.6.1.1.2.1.3.2 1.4-1.1 3.2-1.7 3.9-3.5 1.7-4.2 3.5-8.4 5.3-12.6.2-.5.3-.8.4-1.2zm69.4.1c-.1 0-.2.1-.2.1.1.3.1.6.2.8 1.9 4.5 3.7 9 5.7 13.4.7 1.5 2.4 2.1 3.8 3.1 0-.8 0-1.4 0-1.9.1-2.7-.9-4.7-3.3-5.9-.2-.1-.3-.2-.5-.3-1.3-.7-2.2-1.8-2.8-3.2-.8-1.8-1.6-3.5-2.4-5.2-.2-.4-.4-.6-.5-.9zm-96.7 30.7.2-.2c-.2-1.2-.3-2.5-.6-3.7-.5-2.1-2-3.4-3.8-4.5-1.3-.8-2.7-1.7-4-2.5.2.7.5 1.4.8 2.2.7 1.7 1.5 3.4 2.3 5 .5 1 1.4 1.7 2.7 1.8-.8-.9-1.6-1.7-2.4-2.6 0 0 .1-.1.1-.1 1.6 1.6 3.1 3.1 4.7 4.6zm126-1.4c1.5-.3 2.4-1.1 3-2.2 1-2.2 1.9-4.4 2.9-6.6.1-.1 0-.3 0-.3-1.1.7-2.2 1.4-3.3 2.1-.3.2-.7.4-1 .6-3.2 1.7-3.6 4.8-4 8.3 1.7-1.7 3.3-3.2 4.9-4.8 0 0 .1.1.1.1-.9.9-1.7 1.7-2.6 2.8zm-112.9-24.6v3.5c0 .9-.1 1.8 0 2.7.1 2.8 1.9 4.6 3.5 6.9.3-1.9.7-3.6.8-5.3.1-.8 0-1.7-.4-2.4-1.2-1.8-2.5-3.5-3.9-5.4zm97.6.1c-.4.5-.6.8-.8 1.1-.6.9-1.2 1.8-1.9 2.6-1.5 1.6-2 3.4-1.5 5.6.3 1.2.4 2.5.6 4 1.3-1.9 3-3.3 3.3-5.4.3-2.5.2-5.1.3-7.9zm-82-27.8c-.2-.1-.3-.2-.5-.2-1.9 0-3.7-.1-5.6 0-2 .1-4.1 2.2-4.4 4.1 3.2 1.5 8.9-.6 10.5-3.9zm66.2 0c1.7 3.4 7.4 5.6 10.6 4.1-.4-2.1-2.6-4.1-4.7-4.2-1.5 0-3 0-4.4 0-.5.1-.9.1-1.5.1zm-80 47.7c-.1-.1-.3-.2-.4-.2-.1.3-.2.6-.4.8-.9 1.1-1.9 2.1-2.9 3.1-1.5 1.5-2 3.3-1.5 5.4.2.9.6 1.1 1.4.5.7-.5 1.4-1 2.1-1.6 1.2-.9 2.1-2.1 2.2-3.7 0-1 0-2.1-.1-3.1-.2-.5-.3-.9-.4-1.2zm94.2.1c-.1 0-.3.1-.4.1-.1 1.5-.1 3.1-.1 4.6 0 .4.3.9.5 1.3.8 1.9 2.9 2.4 4.1 3.7.3.4.8.1.9-.4.4-1.5.5-3.1-.4-4.4-1.5-1.6-3.1-3.3-4.6-4.9zm-103.7-21.6c-1.3.7-2.5 1.3-3.7 2.1-2 1.3-3 4.8-1.9 7.1 1-.8 2-1.5 3-2.3.6-.5 1.2-1 1.7-1.5 1.3-1.5 1.8-3.7.9-5.4zm118.5 9.5c1.3-4.3-.8-7.7-5.7-9.2-.7 1.4-.6 3.4.7 4.7 1.5 1.7 3.3 3 5 4.5zm-100.2-23.2c-.1 0-.3-.1-.4-.1-.6 1.4-1.2 2.8-1.7 4.2-1.6 4.4-2.9 8.9-5.7 12.8-.2.3-.2.8 0 1.1.4.8 1 1.5 1.5 2.2.4.6.9.5 1.4.1.9-.8 1.1-1.9.8-3-.6-2-.4-4 .3-6 1.1-3.2 2.3-6.5 3.4-9.7.2-.6.3-1.1.4-1.6zm76.6 0c-.1 0-.2.1-.4.1.1.5.2 1 .3 1.5 1 2.8 1.9 5.7 2.9 8.5.9 2.5 1.5 5 .7 7.7-.3.9.1 1.8.8 2.5.6.6 1.1.6 1.6-.1.5-.6.8-1.3 1.3-1.9.4-.6.3-1 0-1.6-1.1-1.9-2.2-3.7-3-5.7-1.2-2.9-2.2-5.9-3.3-8.9-.2-.7-.5-1.4-.9-2.1zm-90 52.3c-.1-1.1-.3-2.3-.3-3.5s-.5-2.1-1.5-2.7c-1.5-.8-2.9-1.6-4.4-2.4-.3-.2-.7-.2-1-.3-.1.1-.2.2-.3.2.9 2 1.8 4 2.8 5.9.2.4.7.8 1.2 1.1 1.1.6 2.3 1.2 3.5 1.7zm110.6-8.8c-.4.1-.5.1-.6.1-1.8 1-3.6 1.9-5.4 3-.5.3-.9.9-1 1.5-.3 1.5-.3 3-.4 4.4 1.2-.6 2.5-1.2 3.7-1.8.3-.2.6-.4.8-.7 1.3-1.9 2-4.1 2.9-6.5zm-121.1-27.2c1.5-1 3-1.9 4.5-2.9.4-.3.7-.8.8-1.2.5-2.3.9-4.6 1.4-7-.1 0-.2-.1-.3-.1-3.1 3.1-6.7 6-6.4 11.2zm117.7-11c-.1 0-.2.1-.3.1.4 2.2.8 4.5 1.3 6.7.1.5.4 1 .7 1.3 1.5 1.1 3.1 2.1 4.7 3.2.2-5.4-3.3-8.2-6.4-11.3zm11 45.7c-1.6 1.4-3.6 1.9-5.5 2.5-1.7.5-2.9 1.6-3.8 3.2-.8 1.4-.6 1.6.9 1.6h1c2.4.2 3.9-1 5-3 .6-1.2 1.3-2.4 2-3.5.2-.3.3-.6.4-.8zm-133.3-.2c.1.3.2.5.4.8.6 1 1.2 2 1.7 3 1.2 2.5 3 3.8 5.9 3.5h.9c.9-.1 1.1-.3.7-1.1-.8-1.8-2.1-3.1-4.1-3.7-1.9-.6-3.9-1.1-5.5-2.5zm13-16.6c1.9-1.4 2.3-2.7 1.5-4.8-.2-.7-.5-1.3-.8-2-.6-1.5-.8-3.1-.6-4.7.2-1.3.2-2.7.3-4 0-.5-.1-1-.1-1.4-.1 0-.2 0-.3 0-.1.5-.2.9-.2 1.4-.1 1.1 0 2.2-.2 3.3-.5 2.4-1.1 4.7-1.7 7-.1.7-.2 1.5.1 2.1.4 1 1.2 2 2 3.1zm107.3.2c.7-.9 1.3-1.9 1.9-2.7.6-.7.7-1.5.4-2.4-1.1-3.4-2-6.8-1.9-10.4 0-.5-.2-.9-.2-1.4-.1 0-.2 0-.3 0 0 .2-.1.5-.1.7 0 1 0 2.1.1 3.1.4 2.6.3 5.1-.9 7.4-.1.3-.2.6-.3.9-.9 2.1-.6 3.3 1.3 4.8zm-106.7 5.5c1.4-1.4 2.8-2.7 4.1-4.1.4-.5.8-1.2.8-1.9.2-1.5.2-3.1.3-4.6 0-.3 0-.6-.1-1-3.1 1.9-5.9 8.3-5.1 11.6zm100.7-11.5c.2 2.4.3 4.5.5 6.6 0 .3.4.7.6.9 1.2 1.3 2.5 2.5 3.7 3.8.1.1.3.2.5.4.8-3.4-2.1-10-5.3-11.7zm-98.3 23.5c.3-.5.7-1 1-1.5.1-.1.3-.4.4-.4 1.1.3 1.5-.5 2-1.2.4-.6.7-1.4.9-2.2.4-1.6.4-3.1-.4-4.8-1.4 1.5-2.7 2.7-3.9 4.2-1.1 1.5-1.1 4.5 0 5.9zm97.4-9.9c-.9 2-.7 3.9 0 5.8.4 1 .8 2.1 1.9 2.3 1 .2 1.3.9 1.8 1.5.1.1.1.3.2.6 1.2-1.8 1.1-4.7-.1-6.2-1.2-1.3-2.5-2.6-3.8-4zm-98.9-31.6c.1.1.3.3.4.4 1.7-.9 3.5-1.7 5.2-2.8.9-.6 1.6-1.6 2.3-2.5.4-.5.4-1.3.6-1.9-.1-.1-.2-.1-.3-.2-1.8.7-3.6 1.4-5.4 2.2-.5.2-1 .7-1.2 1.2-.7 1.1-1.1 2.4-1.6 3.6zm96.2-6.9c-.7 3.4 5 6.6 8.1 7.1-.3-1-.5-2-.9-2.8s-1-1.8-1.8-2.2c-1.7-.8-3.6-1.3-5.4-2.1zm-80.5 16.8c-.6 1.2-1.1 2.2-1.6 3.3-.5 1.2-1.4 2.1-2.6 2.6-.5.2-1 .5-1.5.8-2.1 1.4-3.4 4.9-2.8 7.1 2.8-1.2 8.7-10.6 8.5-13.8zm72.9.2c-.2 3.3 6.1 13.3 8.5 13.8.4-3.5-1-6.3-4.2-7.9-1.3-.6-2.1-1.5-2.7-2.7-.5-1-1-2-1.6-3.2zm-85.8-16.6c4.2.1 7.8-2.4 7.8-5.4-3.5-1-8.2 2.2-7.8 5.4zm90.8-5.2c0 2.9 4.1 5.7 7.8 5.3.5-3-4.2-6.2-7.8-5.3zm-87.1 49.9c-2.2 1.4-3.8 2.8-4.8 4.8-.2.3-.2.7-.3 1.1-.1 1.9.3 2.3 2.1 1.6 1.6-.6 2.9-1.4 3.1-3.2.3-1.3 0-2.7-.1-4.3zm91.5.3c-.1.6-.3 1.1-.3 1.6-.6 3.4.5 5.2 3.9 6.2.7.2 1.1 0 1.2-.7 0-.8.1-1.7-.2-2.5-1-2-2.7-3.4-4.6-4.6zm-45.5 25.4c-.5 0-.9 0-1.4 0-.9.1-1.3.6-1.2 1.5.2 1.1.5 2.2.7 3.2.1.2.3.5.5.6 1.2.5 2.9-.2 3.3-1.4.1-.3.2-.5.3-.8.9-2.8.7-3.1-2.2-3.1zm-50.4-51.6c-.1 0-.2.1-.4.1.1 2.1.3 4.3.5 6.6.8-.9 1.5-1.7 2.3-2.6.1.7.2 1.1.3 1.6.1 1.6.1 3.1.1 4.7 0 1.1.5 1.7 1.4 2 .1-.5.2-1.1.2-1.6.1-1.7.6-3.6-.3-5.2-1.2-1.9-2.7-3.7-4.1-5.6zm95.8 12.9c1.2-.6 1.6-1.3 1.6-2.2 0-1.6.1-3.2.1-4.8 0-.4.2-.9.3-1.4.8.9 1.4 1.6 2.2 2.5.2-2.4.3-4.5.4-6.6-.1 0-.2 0-.3 0-1.2 1.5-2.5 3.1-3.6 4.7-.5.7-.9 1.6-.9 2.4-.1 1.6.1 3.4.2 5.4zm-9-7.1c.2.5.2.9.4 1.3.5 1.1 1.2 2.2 1.7 3.4.4 1 .9 1.5 2.1 1.3 1.4-.2 1.7.3 1.5 1.8-.1.8.1 1.8.4 2.5.6 1.3 1.5 2.5 2.2 3.8.1.2.3.4.4.6.1 0 .2 0 .3-.1 0-.4.1-.9 0-1.3-.6-2-1.1-4.1-2-6-.5-1.1-1.4-2-2.4-2.7-1.7-1.2-3.3-2.5-4.2-4.4 0-.1-.2-.1-.4-.2zm-73.5-.1c-.1 0-.2 0-.2-.1-.1.1-.2.3-.3.4-.8 1.5-1.9 2.7-3.3 3.5-3.6 2.3-4.6 5.9-5.1 9.8 0 .3.1.5.1.8h.3c.2-.3.4-.7.5-1 .5-.9.8-1.9 1.4-2.6 1-1.1 1.3-2.2 1-3.5-.2-1 .1-1.5 1.2-1.6h.9c.6.1.9-.1 1.2-.6.7-1.4 1.4-2.8 2-4.1.1-.3.2-.6.3-1zm73.9 6.8c0 1.2-.1 2.6 0 4.1 0 .5.5 1.1.9 1.3.5.3 1.2.4 1.8.3.5-.1 1.1-.6 1.3-1 .3-1.1.3-2.2.5-3.3s.1-1.3-1.1-1.3c-1.1 0-2.2-.1-3.4-.1zm-74.3-.2c-1.1.1-2.1.2-3.1.2-1.4 0-1.5.1-1.2 1.6.2 1 .3 2 .3 2.9.1.6.7 1.2 1.4 1.1.5 0 1-.2 1.5-.3.8-.2 1.1-.7 1.1-1.4 0-1.5 0-2.9 0-4.1zm10.1 49.8c.1-.1.1-.1.2-.2-.4-.5-.8-1.1-1.2-1.6-1.7-1.9-3.5-3.7-5.2-5.7-1.2-1.4-2.2-2.9-3.3-4.4-.2-.3-.9-.5-1.2-.4-.6.3-.4.9 0 1.3.3.4.7.8 1 1.2 2.2 2.6 4.3 5.2 6.5 7.7.9 1 2 1.7 3.2 2.1zm53.9-.1c.1.1.1.2.2.2.3-.1.7-.2.9-.4 1-.8 2.2-1.5 3-2.5 2.3-2.5 4.4-5.2 6.5-7.8.2-.2.4-.4.4-.6 0-.3 0-.8-.2-1-.2-.1-.7 0-1 .1-.3.2-.5.5-.7.8-2.3 3.5-5.2 6.6-8.2 9.6-.3.6-.6 1.1-.9 1.6zm-79.6-69.4c1.5-.6 2.8-1.2 4.2-1.8-.4.3-.8.7-1.2 1s-.9.5-1.5.9c2.5 0 5.3-3.5 4.9-5.7-4.4.7-6.7 2.6-6.4 5.6zm99.1-5.5c-.6 2.1 2.6 6.1 4.7 5.8-.9-.6-1.7-1.2-2.5-1.8h.1c1.4.6 2.7 1.2 4.2 1.8.2-1.9-1-3.9-2.5-4.5-1.3-.6-2.7-.9-4-1.3zm-46.2 89.2c-.5 0-1.1 0-1.5.1-4.7 1.9-9.4 3.9-14 5.9-.4.2-.7.5-1.1.8 1.9.6 14.7-4.6 16.6-6.8zm19.5-141c-.1.1-.2.1-.2.2.2.3.4.7.6 1 4.3 5 8.7 10 13.1 15.1.5.5 1.1.9 1.6 1.4.1-.1.2-.2.2-.3-4.6-6.2-9.7-12-15.3-17.4zm-39.2-.1c-5.6 5.3-10.8 11.1-15.3 17.4 1.2-.6 14.8-16 15.3-17.4zm48.1 145.6c.9.2 1.6.5 2.3.6 1.5.2 3.1.7 4.6-.1.5-.2 1-.8 1.1-1.2.1-.6-.4-1.2-1.2-1.4-2.1-.6-4.1-.1-5.9 1.1-.3.2-.5.5-.9 1zm-57.3-.1c0-.1.1-.2.1-.3-.4-.3-.7-.7-1.1-1-1.6-1-3.4-1.4-5.2-1-1 .2-1.7.8-1.7 1.5.1.9.8 1.1 1.5 1.3 2.2.6 4.3-.1 6.4-.5zm-22.5-46.7c0-3.2-3.4-6.5-6.1-5.8-.1 2.2 3.8 5.9 6.1 5.8zm102.6.1c2.3.2 6.5-4 6-5.9-3.6.2-6.3 2.9-6 5.9zm-36.8 41.6c-.1-.1-.2-.2-.3-.3-8 4.2-16.2 7.8-24.7 10.9.5.1.9.1 1.3-.1 7.9-2.6 15.3-6 22.7-9.7.4-.2.6-.5 1-.8zm-27.2 9.6c.6.6 1.2.3 1.8 0 3.3-1.3 6.7-2.6 10-4 3.4-1.5 6.8-3 10.3-4.5.3-.1.5-.4.7-.5 0 0-.1-.1-.1-.1-7.6 2.9-15.1 6-22.7 9.1zm17.9-8.7c-.1-.1-.1-.2-.2-.3-.2 0-.4 0-.6.1-1.9.7-3.7 1.5-5.6 2.3-4 1.7-8 3.3-11.9 5-.5.2-.9.5-1.4.7 0 .1.1.2.1.3.4-.1.8-.1 1.1-.3 5.7-2.3 11.3-4.5 17-6.8.5-.3 1-.7 1.5-1zm-50-51.6c.1.1.2.2.4.2 1-.7 2-1.4 2.9-2.1.8-.6-.1-1.2.1-1.9.2-.8.2-1.7.2-2.5s-.4-1-1-.5-1.3 1.2-1.5 1.9c-.6 1.6-.8 3.3-1.1 4.9zm89.5.4c-.2-1.4-.3-2.5-.5-3.7-.2-1.3-.8-2.4-1.8-3.2-.2-.2-.6-.3-.8-.2s-.3.5-.3.8c0 .9.1 1.8.2 2.7 0 .3-.1.7-.2 1.1.5 1.3 1.8 1.8 3.4 2.5zm-80.5 23.8c-.1.1-.2.2-.3.3 2.4 4 5.3 7.4 8.9 10.4-.1-.8-.3-1.5-.7-2.1-2-2.5-4.1-5.1-6.3-7.5-.5-.4-1.1-.7-1.6-1.1zm71.8.5c-.1-.1-.2-.2-.2-.3-.5.3-1 .5-1.4.9-2.3 2.7-4.5 5.3-6.7 8-.6.7-.6 1.1-.3 1.9 3.2-3.1 6.3-6.5 8.6-10.5zm-38.1 7.1c-.2-1.1-.4-2-.6-2.9-.1-.4-.2-.8-.3-1.2-.1-.2-.2-.5-.4-.6-.5-.4-3.4.9-3.5 1.5-.1.7 1.2 2.7 1.9 2.8.9.2 1.8.3 2.9.4zm-9.1-1.9c.1.1.1.2.2.3.6-.4 1.2-.8 1.7-1.2 2.4-1.7 5-2.9 8-3.1 4.6-.4 8.7 1 12.2 4 .3.3.7.4 1 .6.1-.1.1-.2.2-.3-2.8-2.9-6.3-4.6-10.4-4.9-5-.5-9.4.8-12.9 4.6zm-28.6-30c1-.4 2.1-.5 2.2-1.5.2-1.6 0-3.2 0-5-1.1.2-2 .3-3 .5.3 2.1.6 4 .8 6zm77.4-6.3c-.1.3-.1.3-.1.4v3.6c0 1.5.6 2.2 2.3 2.3.2-1.9.5-3.8.7-5.9-1.1-.1-2-.2-2.9-.4zm-43.7 69.4c0 .1.1.2.1.3.4-.1.7-.1 1.1-.2 1.4-.5 2.7-1.1 4.1-1.7 5.1-2.1 10.3-3.9 15.1-6.6.7-.4 1.4-.9 2.1-1.4-.1-.1-.1-.2-.2-.4-.4.1-.9.2-1.3.4-4.9 2.4-9.6 5.3-14.8 7.1-1.8.6-3.5 1.3-5.3 2-.3.1-.5.3-.9.5zm43.3-62.9c0 .1-.1.1-.1.2-.2 1.1-.4 2.2-.6 3.2-.3 1.2.4 2.1 1.2 2.9.6.6 1.1.4 1.3-.5s.3-1.8.4-2.7c.3-1.9-.2-2.6-2.2-3.1zm-74.4-.2c-2.1.6-2.6 1.2-2.3 3.2.1.9.3 1.9.4 2.8.1.8.7 1 1.1.5.6-.7 1.4-1.5 1.4-2.3.1-1.4-.4-2.8-.6-4.2zm-6.5 6.9c1.7-.2 2.5-1.1 2.6-2.7 0-.3.1-.6.2-.9.5-1.2.3-2.4.1-3.7-2.3 1.9-3.6 5.1-2.9 7.3zm87.3.2c.8-2.1-.7-5.7-2.9-7.2-.6 1.6-.1 3.1.3 4.7.3 1.5 1.1 2.3 2.6 2.5zm-55.6-88.1c-.9-.1-18.5 12.4-18.9 13.4.8-.4 1.4-.6 2-1 5.4-3.9 10.8-7.9 16.2-11.8.1-.1.3-.3.7-.6zm42.6 13.5c.1-.1.1-.2.2-.4-.2-.2-.5-.4-.7-.6-2.2-1.6-4.4-3.1-6.5-4.7-3.5-2.5-7-5-10.5-7.5-.2-.2-.6-.3-.9-.4-.1.3 0 .4 0 .4 5.7 4.1 11.3 8.3 17 12.4.4.5 1 .6 1.4.8zm-27.9 99.3h1.6c2.1 0 2.3-.2 2.9-2.2.2-.7-.1-1.1-.7-1.4-.8-.4-1.6-.9-2.6-.4-.1 0-.1.2-.1.2-.4 1.2-.8 2.4-1.1 3.8zm-34.9 2.9c.1-.1.2-.2.3-.3-.2-.2-.3-.5-.5-.7-2.2-2.7-4.3-5.3-6.5-8-.3-.3-.5-.7-1.1-.3-.6.5-.2.8.1 1.2 1.9 2.4 3.9 4.7 5.9 7 .5.5 1.2.8 1.8 1.1zm64-.1c.1.1.2.2.2.3.6-.3 1.3-.6 1.7-1.1 2-2.4 4-4.8 6-7.2.3-.3.6-.7 0-1.1-.5-.4-.8 0-1.1.3-2.2 2.7-4.3 5.3-6.5 8 0 .3-.1.6-.3.8zm21-58.4c.5-4.5-.7-6.6-3.6-6.8.7 2.5.9 5.2 3.6 6.8zm-105.7-.3c1.9-.8 3.6-4.4 3.4-6.8-3 .7-4 2.7-3.4 6.8zm106.8-8c1-1.1 2-2.2 1.7-3.9-.2-1.3-.3-2.6-.5-3.9 0-.2-.1-.4-.1-.6-1.9 1.4-2.4 5.7-1.1 8.4zm-107.9-.2c1.1-2.3.9-7.7-1.2-8.3-.1 1.1 0 2.4-.3 3.4-.7 2.1 0 3.5 1.5 4.9zm69.4 84.7c-.1-.1-.1-.2-.2-.3-7.6 3.9-15.3 7.4-23.4 10.2.5.1.9.1 1.3-.1 7-2.6 13.9-5.1 20.5-8.5.6-.5 1.2-.9 1.8-1.3zm31.5-25.2c-.8-.6-1.4-.3-1.8.3-1.8 2.1-3.6 4.3-5.4 6.4-.1.2-.1.4-.2.7.3 0 .6.2.9.1.2-.1.5-.3.6-.5 1.8-2 3.6-4 5.3-6 .2-.4.4-.7.6-1zm-93.9-.2c.2.3.3.6.5.8 1.8 2.1 3.7 4.2 5.6 6.3.2.2.4.4.7.5.2.1.5-.1.7-.2.1-.1 0-.4-.1-.6-1.8-2.2-3.6-4.4-5.5-6.6-.6-.5-1.1-.8-1.9-.2zm9.2 7c.1-.1.2-.2.2-.3-.1-.3-.2-.7-.4-.9-1.6-2-3.2-3.9-4.8-5.8-.4-.5-1-.7-1.6-1-.1.1-.2.2-.3.2.1.3.1.6.3.8 1.8 2.2 3.6 4.3 5.5 6.5.3.2.7.3 1.1.5zm75.2-.1c.1.1.2.2.3.3.3-.2.8-.2 1-.5 1.9-2.2 3.7-4.3 5.6-6.5.1-.1.1-.2.1-.2 0-.2.1-.4 0-.5s-.4-.1-.5 0c-.5.3-1 .6-1.4 1-1.5 1.8-3 3.6-4.5 5.5-.3.2-.4.6-.6.9zm-10.8-1c.1.1.2.1.3.2.2-.1.4-.2.5-.3 1.9-2.3 3.9-4.6 5.8-7 .2-.3 0-.9 0-1.3-.4.2-.9.3-1.1.6-1.7 2.1-3.3 4.2-4.9 6.3-.3.4-.4 1-.6 1.5zm-53.7.1c.1-.1.2-.1.3-.2-.2-.5-.2-1.1-.5-1.5-1.7-2.2-3.4-4.4-5.1-6.6-.2-.3-.7-.3-1-.4 0 .4-.2.8-.1 1.1 0 .2.2.4.4.6 1.7 2.1 3.4 4.2 5.2 6.3.2.2.5.4.8.7zm20.3 18.2c-1.1-.7-2.1-.7-3.1-.3-1.6.7-3.2 1.3-4.8 2.1-.4.2-.7.5-.9.9-.1.1 0 .5.1.7.1.1.5.1.6.1 2.6-1.3 5.2-2.4 8.1-3.5zm-34.9-25.2c-.3 1.7 5.3 7.9 6.9 7.9-.1-.2-.1-.4-.2-.5-1.9-2.3-3.7-4.6-5.6-6.8-.3-.3-.7-.4-1.1-.6zm76.4 8c.1.1.2.2.3.3.6-.5 1.4-.8 1.9-1.4 1.5-1.7 3-3.4 4.5-5.2.3-.3.3-.8.5-1.2-.1-.1-.2-.2-.4-.3-.4.3-.8.5-1.1.8-1.8 2.1-3.5 4.3-5.3 6.4-.2.2-.3.4-.4.6zm-38.6 17.5c-1.4-.3-11.4 4.1-12.2 5.2.6-.1 1-.1 1.4-.3 3.2-1.3 6.3-2.6 9.5-4 .4-.2.7-.5 1.3-.9zm33.5-26.6c-2.4-.3-3 0-3.8 1.9-.2.5-.4.9-.6 1.4-.3.8-.5 1.6-.7 2.3.1.1.2.1.3.2 1.5-1.9 3.1-3.8 4.8-5.8zm-59.3-.2c1.7 2 3.2 3.9 4.8 5.8.1-.1.2-.1.4-.2-.5-1.2-.9-2.5-1.4-3.7-.8-1.9-1.4-2.2-3.8-1.9zm90.8-85.1c-.3 1.4.9 14.8 1.4 15.9.4-1.5-.6-14.2-1.4-15.9zm-123.8 15.7c.2 0 .3.1.5.1.4-5.3.8-10.6 1.3-15.9-.1 0-.2 0-.4 0-.9 5.2-1.4 10.4-1.4 15.8zm21.5 79.8c-2.3-3-4.8-5.6-7.3-8.1-.1 1.6 5.6 7.8 7.3 8.1zm82.3 0c.1.1.2.2.3.3.5-.3 1-.5 1.4-.8 1.8-2.1 3.6-4.2 5.4-6.3.2-.2.3-.6.4-.9-.1-.1-.2-.2-.4-.2-2.3 2.6-4.7 5.2-7.1 7.9zm-93.2-7c.8 1.9 7.1 8.9 7.9 9.1-.1-.2-.1-.5-.2-.6-2.2-2.6-4.5-5.3-6.7-7.9-.3-.3-.7-.4-1-.6zm104.4.3c-1.2.2-7.9 7.8-8 9.1 2.8-2.8 5.4-5.8 8-9.1zm-83.8-3.8c.1.4.2.7.4.9 1.3 1.8 2.7 3.6 4.1 5.3.3.4.8.6 1.4 1-.1-1.5-4.5-6.8-5.9-7.2zm57 7.2c.4-.1.8-.1.9-.3 1.6-2 3.2-4.1 4.7-6.1.1-.1 0-.3 0-.5-1.1.3-5.5 5.6-5.6 6.9zm15.7-62.7c-1.4-3.8-2.8-7.6-4.2-11.4-.4 1.2 3.1 10.7 4.2 11.4zm-78-11.5c-.1 0-.2 0-.3 0-1.4 3.8-2.8 7.6-4.2 11.5.1 0 .2.1.3.1.3-.5.7-1 .9-1.5 1.1-3 2.1-6 3.2-9.1.1-.3 0-.7.1-1zm-14.9 24.1c.6-1.6.6-3.2.1-4.9-.7.3-1.2.5-1.8.8.7 1.4 1.2 2.8 1.7 4.1zm103-4.7c-.4 1.7-.5 3.2.2 4.8.5-1.3 1-2.7 1.6-4-.3-.1-.5-.3-.7-.4-.3-.1-.6-.2-1.1-.4zm-7.6 58.4c2.8-2 5-4.5 6.6-7.5-.1-.1-.2-.1-.2-.2-2.2 2.5-4.3 5.1-6.4 7.7zm-93.8-7.9c.3 2.1 4.9 7.3 6.2 7.6-2-2.5-4.1-5.1-6.2-7.6zm58.8 1.1c-.4.7-.7 1.2-1 1.8s0 1 .7 1c.7-.1 1.4-.3 2.4-.5-.8-.8-1.4-1.5-2.1-2.3zm-5.2 32.6c0 .1-.1.2-.1.4 0 .1.1.2.1.2 1.4.6 2.7 1.2 4.1 1.8.2.1.5-.2.8-.3 0-.1 0-.3 0-.4-1.5-.6-3.2-1.1-4.9-1.7zm-14.8-11.2c-1.5-.3-4 .7-4.3 1.8.8.4 3.5-.7 4.3-1.8zm4.5-18.7c-.2-1-.4-1.8-1.4-1.9-.9-.1-1.4.6-1.8 1.5 1.1.1 2.1.3 3.2.4zm21.2 28.6c-1.3-1.4-3.4-2.1-4.2-1.4 1.2 1 2.5 1.6 4.2 1.4zm-3.7 2.1c-1.5-.6-3-1.2-4.6-1.9.5 1.3 2.8 2.3 4.6 1.9zm-2.4-2.9c.8 1.5 3 2.3 4.1 1.6-1.4-.5-2.7-1-4.1-1.6zm4.9-2c0 .1-.1.2-.1.3.9 1.4 2 1.8 3.2 1.2-1.1-.6-2.1-1.1-3.1-1.5zm4.8.5c-1.2-.5-2.2-.9-3.4-1.5.6 1.2 2.5 2.1 3.4 1.5zm-56.3-71.1c1.5-.8 1.7-1.5.9-2.4-.3.8-.6 1.5-.9 2.4zm76.5.1c-.3-.8-.6-1.5-.9-2.3-.8 1.1-.5 1.7.9 2.3zm-94.3-7.3c-.1-.1-.3-.2-.4-.3-.5.8-.9 1.7-1.4 2.5.1.1.3.1.4.2.5-.8 1-1.6 1.4-2.4zm113.4 2.6c.1-.1.3-.1.4-.2-.4-.8-.9-1.6-1.3-2.5-.1.1-.3.2-.4.2.4.9.9 1.7 1.3 2.5zm-73.1 68.3c.6-.2 1-.4 1.6-.7-1.3-.5-1.4-.4-1.6.7zm55.2-43.4c0 .1.1.1.1.2h1.1c-.1-.4-.1-.7-.2-1.1-.4.3-.7.6-1 .9zm-80-1.2c0 .6 0 .9-.1 1.3.4 0 .7-.1 1.4-.1-.5-.5-.8-.8-1.3-1.2z" fill="#664d1f"/><path d="m311.9 225.5c1.9-1.9 1.4-4.2 1-6.5-.6-3.2-.4-6.4-.1-9.7.2-2.4.4-4.8-.1-7.1-.1-.6.1-1.2.2-1.8 0-.6.1-1.2 0-1.8 0-.2-.3-.6-.6-.6-.2 0-.5.2-.6.4-.5.7-.9 1.4-1.3 2.2-.1 0-.2-.1-.2-.1.1-.3.2-.6.3-.8 1-2.4 1.9-4.7 2.9-7.1.7-1.7.6-2.1-1.1-2.9.9-2.4 1.9-4.8 2.8-7.3.2-.5.4-1.1.3-1.6s-.5-.9-.9-1.5c-1.6 3.6-2.7 7.1-5 9.9-.1 0-.2-.1-.3-.1 0-.3 0-.6.1-.9 1.2-3.6 2.4-7.2 3.5-10.8.2-.6.1-1.3.1-1.9 0-.2-.3-.5-.4-.5-.2 0-.5.2-.6.3-.2.3-.3.7-.5 1-1 2.7-2 5.4-3 8-.2.6-.5 1.1-.8 1.7-.1 0-.3-.1-.4-.1.1-.6.1-1.3.3-1.9.9-2.7 1.9-5.5 2.9-8.2.5-1.3 1-2.7 1.4-4 .9-2.4 2.7-4.2 4.2-6.1 6.4-8 14.5-13.3 24.4-15.6 4.3-1 8.6-1.2 13-.6 11.8 1.6 21.4 7.1 28.9 16.3 2.7 3.3 4.6 6.7 5.9 10.7.8 2.6 1.8 5 2.6 7.6.2.6.3 1.2.4 1.9-.1.1-.3.1-.4.2-.2-.4-.5-.8-.7-1.3-1-2.6-2-5.3-3-7.9-.1-.3-.2-.6-.3-.9-.2-.4-.6-.7-.9-1-.2.4-.5.8-.6 1.3-.1.4.1.9.2 1.3 1.2 3.6 2.3 7.1 3.5 10.7.1.3.1.6 0 1-2.5-2.8-3.6-6.3-5.1-9.6-.8.3-1.2 1-1 1.9.2.8.5 1.5.8 2.3.8 2 1.5 3.9 2.3 5.9-1.7.9-1.8 1.2-1 3 1 2.3 1.9 4.7 2.9 7 .1.3.2.6.3.9-.1 0-.2.1-.2.1-.4-.7-.7-1.3-1.2-1.9-.2-.3-.5-.5-.8-.7-.2.3-.5.6-.5.9-.1.5.1 1.1.1 1.7v2.4c0 .5-.1.9-.1 1.4.1 2.9.4 5.7.4 8.6 0 2.6-.2 5.3-.6 7.9-.3 1.7-.2 3.2 1.1 4.4.1.1.2.3.3.5-2 .4-3 2.1-4.1 3.5-.1.2-.2.4-.2.6-.6 1.6-1 3.2-1.8 4.6-1.9 3.4-4 6.6-5.9 9.9-.6 1.1-1.2 2.2-1.6 3.4-.3.8-.7 1.1-1.6 1-1-.2-1.9-.5-2.5-1.4-.5-.8-1.3-1.1-2.2-.8s-1.1-.2-1.2-.8-.2-1.2.4-1.7c.1-.1 0-.9-.3-1.2-.8-.8-1.6-1.5-2.5-2.2-.2.1-.4.3-.5.4-1.1 1-2 1-2.9-.1-.2-.3-.3-.8-.3-1.2.1-.8-.3-1.2-.9-1.5-.5-.2-.9-.3-1.4-.6-.7-.4-1.3-.2-2 .3-.6.4-1.3.6-2 .6-.4 0-.9-.5-1.1-1-.3-.9-.8-1.3-1.7-1.2-.5 0-.9 0-1.4 0-.6 0-1.1.2-1.3.9-.4 1-1.2 1.4-2.2 1.4-.4 0-.9-.3-1.2-.6-.4-.6-.9-.8-1.6-.5-.6.2-1.2.5-1.8.7-.8.3-1.2.8-1.3 1.7-.2 1.6-1.6 2.2-3 1.2-.1-.1-.3-.2-.5-.4-.8.6-1.5 1.2-2.2 1.8-.6.5-.8 1.1-.4 1.9.3.6.2 1.1-.2 1.6s-.8.7-1.5.4c-.8-.3-1.5 0-2 .7-.7 1.1-1.8 1.4-3 1.5-.6 0-1-.2-1.1-.8-.6-2.3-2.1-4.1-3.3-6.1-1.6-2.8-3.3-5.5-4.9-8.3-.5-.8-.9-1.7-1-2.6-.7-3-2.4-4.5-4.6-5.7z" fill="#0096cd"/><g fill="#d42a27"><path d="m376.2 267.1c-1.9-.3-3.7-.6-5.5-.7-1.9-.2-3.8-.1-5.7.7-2.1.8-4.5 1.2-6.8 1.4-7.9.9-15.7 0-23.4-1.8-3.7-.9-7.3-.7-10.9 0-.5.1-1.1.2-1.7.3.1-1.1.2-2.2.3-3.3.1-3.6.3-7.3.4-10.9 0-1.3.3-1.8 1.6-2.4 4.1-1.9 8.3-2.1 12.7-1 3.6.9 7.2 1.5 10.9 1.9 2.4.2 4.8-.1 7.2-.3 3-.2 5.9-1 8.7-1.9 2.4-.7 4.9-.3 7.3.4 1.1.3 2.1.8 3.2 1.2.8.3 1.3.9 1.2 1.7-.3 4.8.2 9.6.7 14.3-.2.1-.2.2-.2.4z"/><path d="m311.6 252.8c3.5.7 6.8 1 9.4 3.4.8.7 1.2 1.5 1.1 2.6-.4 3.1-.7 6.2-1.1 9.3-.3 2 .5 3.1 2.4 3.6 2.4.6 4.8 1.2 7.2 1.9.7.2 1.6.5 1.4 1.4s-1.2.8-1.9.7c-1.5-.3-2.9-.7-4.3-1.3-3-1.1-6-2.4-9-3.4-1.8-.6-3.6-.4-5 1-.4.4-.8.3-1-.2-.1-.3-.3-.6-.4-1-1.2-3.4-3.2-6.3-5.9-8.8-1.4-1.3-1.3-1.3-.5-3 1.1-2.1 2.1-4.2 4.4-5.2 1.1-.4 2.3-.7 3.2-1z"/><path d="m386 253.1c2.8.1 4.9 1.1 6.3 3 1 1.3 1.6 2.8 2.4 4.2.3.6 0 1-.4 1.4-1.2 1.2-2.5 2.4-3.4 3.8-1.2 1.9-2.2 4-3.2 6.1-.5 1.1-.7 1.2-1.6.4-1.4-1.2-3.1-1.2-4.7-.7-2.5.8-4.8 1.7-7.3 2.6-1.6.6-3.3 1.3-4.9 1.9-.8.3-1.6.3-2.3-.3-.2-.2-.5-.5-.5-.7s.3-.6.5-.6c1.8-.6 3.6-1.1 5.4-1.7.9-.3 1.9-.4 2.8-.7 1.5-.4 2.3-1.5 2.1-3-.3-3.1-.7-6.1-1.1-9.2-.2-1.4.1-2.5 1.4-3.4 1.6-1.1 3.2-2 5.1-2.3 1.3-.3 2.5-.6 3.4-.8z"/></g><path d="m302.3 186.4c.1-.5 0-.9.2-1.4 2.6-7.1 5-14.3 9.5-20.5 7.1-9.7 16.5-16 28.3-18.6.6-.1 1.1-.3 1.7-.4 0-.1 0-.2 0-.3-.4 0-.8-.1-1.1 0-2.3.5-4.7 1-7 1.6-.1 0-.2 0-.5.1 1.3-1.2 2.7-1.9 4.2-2.2 5.1-1.1 10.2-1.4 15.4-1.1 2.4.2 4.9.7 7.3 1.2 1.7.3 3.3 1 4.7 2.4-3-.5-5.7-1.4-8.6-1.8 0 .2-.1.3-.1.5.6.2 1.1.3 1.7.5 10.5 2.3 19.1 7.7 26.2 15.7 2.2 2.5 4.1 5.2 5.4 8.2 2.2 4.9 4.1 9.9 6.2 14.8.2.6.3 1.2.4 1.8-.1 0-.2.1-.3.1-.2-.3-.4-.5-.5-.8-.8-1.9-1.7-3.8-2.4-5.8-1.5-4.3-3.2-8.5-5.8-12.2-5.2-7.3-11.3-13.7-19.6-17.5-4-1.8-8.2-2.9-12.5-3.5-3.2-.5-6.5-.8-9.8-.4-7.2.9-14 2.8-20 7.1-3.7 2.6-6.8 5.7-9.9 9.1-4.8 5.3-7.8 11.5-10.1 18.2-.6 1.7-1.4 3.3-2.1 4.9-.1.3-.3.5-.5.7-.3-.3-.4-.3-.4-.4z" fill="#fc3"/><path d="m368.2 248.1c-.7 0-1.4.1-2-.1-1-.3-1.8 0-2.6.3s-1.3.1-1.9-.5c-2.6-2.6-5.8-4.3-9.4-4.8-3.9-.6-7.7-.1-11.1 2-1.3.8-2.5 1.6-3.7 2.5-.7.5-1.5.8-2.5.7-1.6-.2-3.3-.3-5-.6.4-.1.8-.2 1.1-.4.7-.2 1.4-.3 2-.6.9-.4 1.1-1.1.7-2.1-.2-.4-.3-1.1-.1-1.3.7-.6 1.3-1.6 2.5-1.1.9.4 1.8.4 2.6-.3.5-.4.9-1.1 1.1-1.8.3-1 2.1-2.2 3-1.9.2.1.5.3.5.5.2.7.8.8 1.4.8.4 0 .8-.1 1.2-.1.8 0 1.3-.4 1.6-1.2.3-1.1 1.2-.9 2.1-.9.7 0 1.2.3 1.3 1.1.1.6.5.9 1.1 1 .5.1.9.2 1.4.3.8.2 1.4 0 1.7-.8.2-.6.6-.6 1.2-.4.3.1.7.2 1.1.4.7.2 1.1.7.9 1.4-.3.9.2 1.4 1 1.7.3.1.6.2.9.4.7.4 1.3.4 1.9-.2.5-.5.9-.4 1.4 0 .4.3.8.6 1 1 .2.3.3.8.1 1-.7 1.6.3 3.3 2.1 3.3.7 0 1.2-.1 1.4.7z" fill="#005c83"/><path d="m318.2 236.3c-1.7-.1-3.2-.3-4.8-.2-2.6 0-5.1.9-7.6 1.6-3.6 1.1-7.2 2-10.9 1.8-1.9-.1-3.8-.6-5.8-.9-.3 0-.6-.2-.7-.4-.8-1.3-1.5-2.6-2.3-4.1 1.1.2 2 .5 2.8.5 2.3 0 4.6-.1 6.9-.2 3.1-.2 5.9-1.2 8.8-2.2 3.4-1.2 6.9-1.3 10.3-.3.6.2 1.3.7 1.6 1.3.7 1 1.2 2.1 1.7 3.1z" fill="#008e6f"/><path d="m380.1 236.5c.5-1 1-2.1 1.6-3.1.9-1.5 2.4-1.7 3.9-1.9 3.2-.3 6.4 0 9.4 1.2 3.1 1.3 6.4 1.6 9.7 2 2.3.2 4.6.1 6.8-.4.1 0 .3 0 .6-.1-.8 1.4-1.4 2.8-2.2 4-.2.4-.9.5-1.4.7-5.3 1.4-10.4.8-15.5-.9-2.7-.8-5.3-1.8-8.2-1.8-1.5.1-3 .2-4.7.3z" fill="#008e6f"/><path d="m409.4 239.9c-.6 1.3-1 2.4-1.5 3.4-.5.9-1.2 1.2-2.3 1.4-6.5 1.1-12.6-.8-18.7-2.2-2.8-.6-5.5-.9-8.2.1-.3.1-.6.1-.8.1-.8 0-1-.4-.7-1.1 0-.1.1-.1.1-.2 2.1-4.1 2.1-4.1 6.7-4 3.2 0 6.2.6 9.3 1.5 4.8 1.4 9.8 2 14.8 1.1.3-.1.7-.1 1.3-.1z" fill="#d52a27"/><path d="m288.9 239.7c1.5.2 2.9.3 4.2.4 4.1.3 8.1-.2 12-1.5 4-1.3 8.1-1.5 12.2-1.4.6 0 1.4.5 1.8 1 .8 1 1.4 2.2 2 3.3.4.6.1.9-.6 1-.3 0-.6 0-.8-.1-2.9-1.1-5.9-.8-8.8 0-4.5 1.3-9.1 2.1-13.8 2.4-1.7.1-3.5-.2-5.2-.5-.6-.1-1.2-.8-1.5-1.3-.5-1-.9-2.1-1.5-3.3z" fill="#d52a27"/><path d="m282.1 228c.4.1.6 0 .8.1 5 2 10 1.7 15 .3 2.5-.7 5-1.4 7.4-2.1 2.2-.7 4.4-.5 6.6.2 1.4.5 3.3 3 3.4 4.3-2 0-3.9.1-5.9 0-2.2-.1-4.3.5-6.5 1-2.9.7-5.7 1.9-8.8 2.1-2.5.2-4.9.1-7.3-.5-1-.2-1.7-.8-2.3-1.7-.7-1.1-1.5-2.3-2.4-3.7z" fill="#fff"/><path d="m416.1 228.4c-1.1 1.5-2.1 3-3.2 4.5-.3.3-.8.6-1.2.7-4.1 1.1-8.2.7-12.2-.3-2.7-.7-5.3-1.7-8-2.1-2.8-.4-5.6-.5-8.5.1 0-.1-.1-.3-.1-.3.7-2 1.8-3.7 3.9-4.4 2.5-.8 5-.4 7.5.3 3 .9 6 1.8 9.1 2.4 3.9.8 7.8.6 11.6-.9.3-.1.6-.2.8-.2.2.1.3.1.3.2z" fill="#fff"/><g fill="#fc3"><path d="m386.7 169.9c-.6-.8-1.3-1.7-1.9-2.5-6.9-9.4-15.9-15.7-27.2-18.2-11.7-2.6-22.5-.3-32.4 6.6-4 2.8-7.7 5.9-10.6 9.8-1 1.3-2 2.7-3 4.1-.1-.1-.2-.1-.3-.2.5-.8.9-1.6 1.4-2.2 2.1-2.6 4.2-5.4 6.5-7.8 4.3-4.7 9.6-7.8 15.6-10 5.2-1.9 10.6-2.9 16.1-2.4 9.8.8 18.6 4.1 26 10.6 1 .9 1.9 1.9 2.7 2.9 1.9 2.2 3.7 4.4 5.5 6.7.6.8 1.1 1.6 1.6 2.5.2 0 .1.1 0 .1z"/><path d="m401 149.6c.3 1.2.6 2.4.8 3.5 1.1 5.4 2.2 10.7 3.3 16.1.5 2.1.4 4.2-.7 6.1-.9 1.6-1.6 3.3-2.4 4.9-.1.1-.2.2-.4.5-.1-.4-.2-.7-.3-1-.2-1.4-.4-2.8-.7-4.2s-.1-2.6.6-3.8c.6-1 1.2-2.1 1.7-3.2.7-1.4.7-2.9.3-4.4-.9-4.6-1.8-9.3-2.7-14 0-.2 0-.3 0-.5z"/><path d="m296.5 180.4c-.1-.2-.3-.3-.3-.5-.9-1.8-1.7-3.6-2.6-5.3-.8-1.5-.9-3.1-.6-4.7 1.3-6.4 2.6-12.7 3.9-19.1.1-.4.3-.9.7-1.3 0 .2.1.4.1.6-.9 4.7-1.8 9.4-2.7 14.2-.3 1.4-.2 2.7.3 4 .4.9.9 1.9 1.4 2.8.9 1.5 1.3 3 .9 4.7-.4 1.6-.5 3.1-.8 4.7-.1-.2-.2-.2-.3-.1z"/><path d="m309.3 157.5c.9-2.1 2.1-3.9 4.3-4.6.7-.2 1.5-.2 2.1-.1 2.6.7 5 .1 7.2-1.3 4.3-2.8 8.7-5.7 13.1-8.5.5-.3 1-.5 1.5-.8.1.1.1.2.2.2-.1.2-.3.4-.4.5-.8.7-1.7 1.3-2.6 1.9-5.3 3.5-10.7 7-16 10.5-2.2 1.5-4.6 2.5-7.4 2.1-.6-.1-1.2.1-2 .1z"/><path d="m388.9 157.5c-3.8.6-7-.4-10.1-2.5-5.1-3.5-10.3-6.8-15.4-10.2-1-.6-1.9-1.4-2.8-2.1.1-.1.1-.2.2-.3.5.2 1 .4 1.4.7 4.2 2.7 8.4 5.4 12.5 8.1 2.5 1.7 5.1 2.5 8.1 1.7.8-.2 1.8.1 2.6.4 1.8.9 2.8 2.5 3.5 4.2z"/><path d="m377.2 130.5c.2.3.5.5.7.8 3.7 5.1 7.3 10.2 11 15.3 1.2 1.7 1.8 3.5 1.3 5.6-.3 1.5-.4 3-.6 4.9-.7-.9-1.2-1.7-1.8-2.3-1.9-1.9-2.1-4.3-1.7-6.7.3-2.2-.1-4-1.4-5.9-2.5-3.3-4.8-6.8-7.2-10.2-.3-.4-.4-.9-.6-1.3.1-.1.2-.2.3-.2z"/><path d="m308.7 156.6c-.2-2-.5-4-.7-6-.2-1.7.6-3 1.6-4.3 3-4.2 6.1-8.4 9.1-12.7.6-.9 1.3-1.8 1.9-2.7.2-.2.4-.4.6-.6.1.1.2.1.3.2-.2.4-.3.9-.6 1.3-2.4 3.5-4.8 7-7.3 10.4-1.2 1.7-1.6 3.4-1.4 5.4.1 1.2.1 2.5.2 3.8 0 .4-.1.8-.3 1.1-1 1.4-2 2.9-3.1 4.3-.2-.2-.3-.2-.3-.2z"/><path d="m336 131.5c-.4.5-.7 1-1.2 1.4-5 4.5-10.1 8.9-15.1 13.4-1.3 1.1-2 2.5-2.1 4.2-.1 1.5-.6 1.9-2.2 1.7-.7-.1-1.4-.2-2.1-.3 0 0 0 0-.2-.1 0-1.2-.1-2.4 0-3.7 0-.4.5-.8.9-1 .3-.2.7-.2 1-.2 1.9 0 3.5-.9 4.9-2.1 4.9-4.2 9.8-8.4 14.7-12.6.4-.3.8-.6 1.2-.9.1.1.1.2.2.2z"/><path d="m385.3 152.1c-1.1.1-2 .3-2.9.4-.7.1-1.3-.3-1.5-1-.1-.3-.1-.6-.2-.8-.1-1.6-.8-2.9-2-4-5.1-4.5-10.2-9-15.2-13.5-.5-.4-.8-.9-1.2-1.4.1-.1.1-.2.2-.2.4.3.8.5 1.1.8 4.9 4.2 9.8 8.3 14.7 12.5 1.5 1.3 3.1 2.2 5.2 2.3 1.4.1 1.8.6 1.8 2.1z"/><path d="m391.2 139.6c.2.3.4.7.5 1 2.1 5.4 4.2 10.8 6.3 16.3.7 1.8.9 3.6.4 5.5-.5 1.8-.9 3.7-1.3 5.6-.3-.2-.5-.2-.6-.4-1.4-2.2-2.6-4.5-2.1-7.2.2-.9.6-1.7 1.1-2.5.9-1.3 1-2.6.5-4.1-1.6-4.1-3.2-8.2-4.7-12.3-.2-.5-.3-1.1-.5-1.7.2-.1.3-.1.4-.2z"/><path d="m301.2 168c-.5-2.1-.9-3.9-1.4-5.7-.5-2-.2-3.9.5-5.7 2.1-5.3 4.1-10.6 6.2-15.9.2-.4.4-.8.6-1.2.1 0 .2.1.3.1-.2.6-.3 1.1-.5 1.7-1.5 4-3 8.1-4.6 12.1-.6 1.6-.6 3.1.5 4.5 1 1.3 1.4 2.8 1 4.4-.5 1.6-1.2 3.2-1.8 4.8-.1.2-.4.4-.8.9z"/><path d="m393.5 161.8c-2.9-2.8-3.7-5.3-2.3-9.4.6-1.7.6-3.1-.3-4.7-2-3.6-3.8-7.2-5.7-10.8-.2-.5-.4-.9-.6-1.4.1-.1.2-.1.3-.2.3.4.7.8.9 1.2 2.8 5.4 5.6 10.7 8.3 16.1.8 1.5 1 3.2.4 4.8-.3 1.4-.6 2.8-1 4.4z"/><path d="m304.8 161.6c-.5-1.8-.9-3.5-1.3-5.2-.4-1.6.1-3.1.8-4.4 2.2-4.3 4.5-8.7 6.7-13 .4-.8.9-1.7 1.3-2.5.3-.5.6-.9.9-1.4.1.1.2.1.3.2-.2.4-.3.9-.5 1.3-1.9 3.7-3.8 7.3-5.8 10.9-.8 1.6-.9 3-.3 4.7 1.6 4 .8 6.4-2.1 9.4z"/><path d="m283.5 161.1v5.1c0 2.2.1 4.4.1 6.6 0 1.3.4 2.4 1.3 3.2 2.3 2 2.9 4.4 2.2 7.3-.2.7-.3 1.5-.5 2.5-1.2-1.3-2.4-2.2-3.2-3.4-.5-.8-.7-2-.7-3 0-4.7 0-9.4.1-14.1 0-1.1 0-2.2 0-3.3 0-.3.1-.6.2-.9.1-.1.3-.1.5 0z"/><path d="m411.8 185.8c-1.6-3.5-1.1-6.9 1.5-9.5 1-1 1.5-2.1 1.5-3.5 0-3.3.1-6.7.1-10 0-.5.1-1 .1-1.5.1 0 .2 0 .3-.1.1.4.2.7.2 1.1v14.5c0 1.3.1 2.5 0 3.8 0 .7-.3 1.5-.7 2-.8 1.1-1.9 2.1-3 3.2z"/></g><path d="m418.2 215.1c1.8 2.3 2.5 4.7 1.6 7.4-1 3.3-3 5.3-6.6 5.4.4-.6.8-1.2 1.1-1.9.6-1.1 1.3-2.2 1.8-3.3.2-.4.2-1 0-1.3-.6-1-.4-2 .1-3 .6-1.2 1.3-2.2 2-3.3z" fill="#fff"/><path d="m280 214.9c.7 1.1 1.4 2 1.9 3.1.5 1 .7 2 .2 3.2-.2.4 0 1.2.2 1.7.8 1.7 1.8 3.3 2.7 4.9-3.1-.1-5-1.5-6.3-4.6-1.2-3.1-.7-5.8 1.3-8.3z" fill="#fff"/><g fill="#fc3"><path d="m298.4 173.5c-.8-2.5-1.6-5-2.3-7.6-.1-.4 0-.8.1-1.2 1.8-6.9 3.7-13.8 5.6-20.6.1-.4.3-.8.4-1.2.1 0 .2 0 .3.1-.1.5-.1.9-.2 1.4-1.3 4.8-2.6 9.5-4 14.2-.5 1.8-.4 3.4.7 5 1.3 1.8 1.5 3.8 1 5.9-.4 1.4-.9 2.7-1.4 4.1 0 0-.1 0-.2-.1z"/><path d="m399.8 173.8c-2.3-3.1-2.4-7.5-.3-10.5.9-1.3 1-2.6.6-4-1.4-4.9-2.8-9.8-4.1-14.7-.1-.5-.2-.9-.2-1.4.1 0 .2 0 .3-.1.1.3.3.6.4 1 1.9 7 3.8 14.1 5.7 21.1.1.4.1.8 0 1.2-.7 2.4-1.4 4.8-2.1 7.1-.1.1-.2.2-.3.3z"/><path d="m289.6 199.2c.1.1.2.1.2.2.6 1.7 2.1 2.5 3.5 3.6 1.1.8 1.6 2.1 1.8 3.4.1 1.1 0 2.2 0 3.5-1.5-1.1-3.5-1.6-4.2-3.2-.7-1.5-.9-3.4-1.2-4.8-.3 1.4-.7 3-1.1 4.6-.1.3-.5.5-.8.7-1-1.3-1.2-4.2-.2-5.4.5-.6.9-1.5 2-1.1-.1-.5 0-1 0-1.5z"/><path d="m408.6 199.4c0 .5.1 1 .1 1.3.4.1.9.1 1.2.4.9.7 1.5 1.6 1.4 2.8s.2 2.4-.7 3.5c-1-.4-1.3-1.2-1.4-2.1-.2-1.2-.4-2.3-.7-3.5.1 4-1.4 6.9-5.3 8.1-.4-3.5 0-5.9 3.1-7.7.7-.4 1.2-1.3 1.8-2 .2-.3.4-.5.5-.8z"/><path d="m412.2 199c0-1.1 0-2 0-2.9 0-.5.2-.9.3-1.4.3-2.2 1.4-3.7 3.5-4.5 1.3-.5 2.1-1.4 2.2-2.9.1-1 .3-2 .7-2.9.1.3.2.6.2.9 0 3.1-.5 6-1.7 8.8-.5 1.2-1.3 2-2.5 2.6-.9.4-1.7 1.3-2.7 2.3z"/><path d="m285.9 198.9c-1-1.4-2-2.3-3.3-3-.6-.3-1.2-1.1-1.5-1.7-1.4-2.9-1.9-6-1.9-9.2 0-.3.1-.5.4-.8.2 1 .4 2 .5 3 .1 1.3.8 2.2 2 2.8.4.2.9.4 1.3.6.6.4 1.3.9 1.6 1.5.9 1.9 1.4 3.8 1.2 5.9 0 .2-.2.4-.3.9z"/><path d="m418.5 207.9c-.6 2-1.3 4-1.9 6-.1.4-.4.8-.7 1.1-1.7 1.7-3.8 2.8-6.5 3.3.2-.8.3-1.6.5-2.3.8-2.4 2.2-4.1 4.7-5 1.3-.5 2.4-1.3 3.2-2.5.2-.3.4-.5.6-.7 0 0 0 0 .1.1z"/><path d="m280.1 207.4c.1.3.2.5.4.8.8 1.4 2.2 2.2 3.7 2.8 2.8 1.1 4.1 3.4 4.7 6.2.1.2 0 .5 0 .7-3.2 0-6.7-2.6-7.6-5.6-.5-1.6-1-3.1-1.5-4.7.1 0 .2-.1.3-.2z"/><path d="m402 217c-1.2-3 2.6-8.8 6.8-9 .7 3-.4 5.7-3 7.1-1.3.7-2.5 1.3-3.8 1.9z"/><path d="m289.5 207.8c4.4.3 8 6.2 6.8 9.1-1.5-.8-3-1.5-4.4-2.4s-2.2-2.2-2.4-3.9c-.1-.9 0-1.9 0-2.8z"/></g><path d="m366.2 271.5c-.3-.5-.5-1.2-.9-1.7-.6-.9-.4-1.7.7-1.8 2-.2 4.1-.4 6.2-.4.9 0 1.9.3 2.8.6.9.2 1.2.9 1.1 1.7-.2.8-.7 1.2-1.6 1.2-1.2 0-2.4-.2-3.6-.1-1.5.1-3.1.4-4.7.5z" fill="#d42a27"/><path d="m301.8 168.8c1.1-4.4 4.8-6.4 10.1-5.5-1.4 4-4.5 5.7-10.1 5.5z" fill="#fc3"/><path d="m386.4 163.5c5.2-.9 9 1.1 10.1 5.5-4.4.7-8.7-1.6-10.1-5.5z" fill="#fc3"/><path d="m327.8 267.1c1.4.2 2.5.4 3.5.5.9.2 1.3.8 1.4 1.7.2 2.4.2 2.2-2 1.9-2-.3-4-.2-6-.3-.3 0-.7 0-1 0-.8 0-1.3-.4-1.4-1.2s.1-1.5 1-1.7c1.5-.3 3.1-.6 4.5-.9z" fill="#d42a27"/><g fill="#fc3"><path d="m285.7 191.6c-.9-.7-1.8-1.4-2.7-2.1-1.6-1.2-1.8-2.9-2-4.7-.3-4.4-.6-8.8-.9-13.2 0-.1 0-.2.1-.4.1 0 .2-.1.3-.1.1.4.3.8.4 1.2.2 2.4.3 4.8.5 7.2.1 1.5.7 2.8 1.9 3.7 1.4 1 2.2 2.3 2.3 4 .2 1.4.2 2.7.3 4.1 0 .3-.1.3-.2.3z"/><path d="m412.4 192c-.1-2.1-.1-3.9.6-5.7.3-.9 1-1.8 1.7-2.4 1.3-1.1 2.1-2.5 2.2-4.2.2-2.4.3-4.7.5-7.1 0-.4.2-.8.3-1.2h.3c0 .2.1.4.1.5-.3 4.3-.6 8.6-.9 12.9-.1 2.4-.8 4.4-3.1 5.7-.5.4-1 .9-1.7 1.5z"/><path d="m412.1 205.4c0-1.2 0-2.1 0-3.1 0-1.1.5-2 1.2-2.8 2-1.8 4-3.6 5.9-5.4.1-.1.2-.1.4-.2-.1.8-.1 1.4-.2 2.1s-.2 1.5-.4 2.2c-.1.4-.2.9-.4 1.2-1.6 2.1-3.3 4.1-5.6 5.4-.3.2-.5.3-.9.6zm4.4-4.9c-1.1 1-2.2 2-3.4 3 1.6-.5 2.7-1.6 3.4-3z"/><path d="m285.9 205.2c-1.2-1-2.5-1.9-3.6-2.9-.9-.9-1.7-1.9-2.5-2.8-.2-.2-.3-.5-.4-.7-.3-1.4-.5-2.8-.7-4.3 0-.2 0-.4.1-.8.6.6 1.1 1 1.6 1.5 1.4 1.3 2.8 2.6 4.3 3.9 1.1 1 1.7 2.2 1.6 3.8-.1.7 0 1.5 0 2.3-.2-.1-.3 0-.4 0zm-4.1-4.9c.7 1.5 1.8 2.5 3.4 3-1.1-1-2.3-2-3.4-3z"/><path d="m290.1 224.6c-1.8-.9-3.6-1.8-5.4-2.8-.6-.3-1-1-1.3-1.7-.9-1.8-1.7-3.7-2.6-5.7.4.1.8.2 1 .4 1.1 1.4 2.7 2.2 4.4 2.9 2.9 1.2 3.8 3.6 4.3 6.4v.2c-.2.1-.3.2-.4.3z"/><path d="m417.7 214.9c-.2.4-.5.8-.7 1.2-.6 1.1-1.2 2.2-1.6 3.4-.6 1.5-1.5 2.7-3 3.3-1.4.6-2.8 1.3-4.2 2-.1-.2-.2-.3-.1-.4.4-2.8 1.4-5.3 4.2-6.5 1.7-.7 3.3-1.5 4.4-3 .2-.2.6-.2.9-.4 0 .2 0 .3.1.4z"/><path d="m405.7 152.4c.2 1.1.3 2.3.5 3.4.6 4.2 1.3 8.5 1.9 12.7.3 2.3 1.1 4.4 2.5 6.2 1.1 1.5 1 3.2-.1 4.6-.2.3-1 .5-1.2.3-.8-.7-1.6-1.4-2.1-2.2s-.2-1.7.2-2.6c.3-.6.6-1.4.5-2-.3-3.3-.7-6.6-1.2-9.9-.4-3-.9-6-1.4-9-.1-.5.1-1 .1-1.4.1-.1.2-.1.3-.1z"/><path d="m292.9 152.2c0 .6.1 1.2 0 1.8-.8 5.5-1.7 10.9-2.4 16.4-.2 1.6-.3 3.2.6 4.7.5.9.3 1.9-.3 2.6-.5.6-1.1 1.1-1.6 1.6-.5.4-.9.3-1.3-.1-1.1-1.2-1.3-3.2-.3-4.5 2-2.6 2.6-5.6 3-8.7.6-4.4 1.3-8.9 1.9-13.3 0-.2.1-.3.2-.5z"/><path d="m314.6 181.3c-.1.3-.2.7-.3 1-1.8 4.2-3.5 8.4-5.3 12.6-.8 1.9-2.6 2.4-3.9 3.5-.1-.1-.2-.1-.3-.2.2-1.5.2-3.1.6-4.6.2-.7.8-1.4 1.4-2 .5-.5 1.2-.9 1.9-1.3 1.4-.8 2.4-1.9 3-3.4.7-1.7 1.5-3.4 2.3-5.1.1-.3.3-.5.4-.8 0 .3.1.3.2.3z"/><path d="m384 181.4c.1.3.3.5.4.8.8 1.7 1.6 3.5 2.4 5.2.6 1.4 1.5 2.5 2.8 3.2.2.1.3.2.5.3 2.4 1.2 3.5 3.3 3.3 5.9v1.9c-1.4-1-3.1-1.6-3.8-3.1-2-4.4-3.8-8.9-5.7-13.4-.1-.3-.1-.6-.2-.8.1.1.2.1.3 0z"/><path d="m287.3 212.1c-1.6-1.5-3.1-3-4.7-4.6 0 0-.1.1-.1.1.8.9 1.6 1.7 2.4 2.6-1.3-.1-2.2-.8-2.7-1.8-.8-1.6-1.6-3.3-2.3-5-.3-.7-.6-1.5-.8-2.2 1.3.9 2.7 1.7 4 2.5 1.7 1.1 3.3 2.3 3.8 4.5.3 1.2.4 2.5.6 3.7-.1.1-.2.2-.2.2z"/><path d="m413.3 210.7c1-1 1.8-1.9 2.6-2.8 0 0-.1-.1-.1-.1-1.6 1.5-3.2 3.1-4.9 4.8.3-3.5.8-6.5 4-8.3.4-.2.7-.4 1-.6 1.1-.7 2.2-1.4 3.3-2.1 0 0 .1.2 0 .3-.9 2.2-1.9 4.5-2.9 6.6-.6 1.1-1.5 1.9-3 2.2z"/><path d="m300.4 186.1c1.4 1.9 2.7 3.6 3.9 5.5.4.6.5 1.6.4 2.4-.2 1.7-.5 3.3-.8 5.3-1.6-2.2-3.5-4.1-3.5-6.9 0-.9 0-1.8 0-2.7 0-1.2 0-2.3 0-3.6z"/><path d="m398 186.2c-.1 2.8 0 5.3-.3 7.8-.3 2.1-1.9 3.5-3.3 5.4-.2-1.5-.3-2.8-.6-4-.5-2.1 0-3.9 1.5-5.6.7-.8 1.3-1.7 1.9-2.6.2-.2.4-.5.8-1z"/><path d="m316 158.4c-1.6 3.3-7.3 5.4-10.5 4 .3-2 2.5-4 4.4-4.1 1.8-.1 3.7 0 5.6 0 .2-.1.3 0 .5.1z"/><path d="m382.2 158.4c.6 0 1-.1 1.4-.1h4.4c2.1.1 4.4 2.1 4.7 4.2-3.1 1.5-8.7-.6-10.5-4.1z"/><path d="m302.2 206.1c.1.4.2.8.3 1.1.1 1 .1 2.1.1 3.1 0 1.6-1 2.7-2.2 3.7-.7.5-1.4 1-2.1 1.6s-1.1.5-1.4-.5c-.5-2.1 0-3.8 1.5-5.4 1-1 2-2.1 2.9-3.1.2-.2.3-.6.4-.8.2.1.3.2.5.3z"/><path d="m396.4 206.2c1.5 1.7 3.1 3.3 4.4 5.1 1 1.3.8 2.9.4 4.4-.1.5-.6.8-.9.4-1.3-1.4-3.3-1.9-4.1-3.7-.2-.4-.4-.9-.5-1.3 0-1.5.1-3.1.1-4.6.3-.3.4-.3.6-.3z"/><path d="m292.7 184.6c.8 1.7.4 3.9-1 5.3-.5.5-1.1 1-1.7 1.5-1 .8-2 1.6-3 2.3-1.1-2.3-.2-5.8 1.9-7.1 1.3-.6 2.6-1.3 3.8-2z"/><path d="m411.2 194.1c-1.7-1.5-3.5-2.9-5-4.5-1.3-1.3-1.4-3.3-.7-4.7 4.9 1.5 7 4.9 5.7 9.2z"/><path d="m311 170.9c-.1.5-.2 1.1-.3 1.6-1.1 3.2-2.2 6.5-3.4 9.7-.7 2-.9 4-.3 6 .3 1.2.1 2.2-.8 3-.5.5-1 .5-1.4-.1-.5-.7-1.1-1.4-1.5-2.2-.2-.3-.2-.9 0-1.1 2.8-3.9 4.1-8.4 5.7-12.8.5-1.4 1.1-2.8 1.7-4.2 0 0 .2 0 .3.1z"/><path d="m387.6 170.9c.3.7.6 1.4.9 2.1 1.1 3 2.1 6 3.3 8.9.8 2 2 3.8 3 5.7.3.6.5 1.1 0 1.6-.5.6-.8 1.2-1.3 1.9s-1 .7-1.6.1c-.7-.7-1.1-1.5-.8-2.5.8-2.7.2-5.2-.7-7.7-1-2.8-2-5.6-2.9-8.5-.2-.5-.2-1-.3-1.5.2 0 .3 0 .4-.1z"/><path d="m297.6 223.2c-1.2-.6-2.4-1.1-3.6-1.7-.5-.2-.9-.6-1.2-1.1-1-2-1.9-4-2.8-5.9.1-.1.2-.2.3-.2.3.1.7.2 1 .3 1.5.8 2.9 1.6 4.4 2.4 1.1.6 1.5 1.5 1.5 2.7s.3 2.4.4 3.5z"/><path d="m408.2 214.4c-.9 2.3-1.6 4.6-2.9 6.5-.2.3-.5.5-.8.7-1.3.7-2.5 1.3-3.7 1.8.1-1.4.2-2.9.4-4.4.1-.6.5-1.2 1-1.5 1.7-1.1 3.6-2 5.4-3 .1 0 .2 0 .6-.1z"/><path d="m287.1 187.2c-.2-5.2 3.3-8.1 6.4-11.2.1 0 .2.1.3.1-.4 2.3-.9 4.6-1.4 7-.1.5-.4 1-.8 1.2-1.5 1-3 1.9-4.5 2.9zm4.4-5.7c-.9 1.1-1.8 2.1-2.7 3.2 1.3-.8 2.5-1.5 2.7-3.2z"/><path d="m404.8 176.2c3.1 3.1 6.6 6 6.4 11.3-1.6-1.1-3.2-2.1-4.7-3.2-.4-.3-.6-.8-.7-1.3-.5-2.2-.9-4.5-1.3-6.7.1-.1.2-.1.3-.1zm4.7 8.7c-.9-1.1-1.8-2.1-2.7-3.2.2 1.6 1.4 2.4 2.7 3.2z"/><path d="m415.8 221.9c-.1.3-.2.5-.4.8-.7 1.2-1.3 2.4-2 3.5-1.1 2-2.6 3.1-5 3-.3 0-.7 0-1 0-1.5 0-1.7-.3-.9-1.6.9-1.5 2.1-2.6 3.8-3.2 1.9-.7 3.9-1.1 5.5-2.5z"/><path d="m282.5 221.7c1.6 1.4 3.6 1.9 5.5 2.5s3.2 1.9 4.1 3.7c.4.8.2 1.1-.7 1.1-.3 0-.6 0-.9 0-2.8.3-4.7-1-5.9-3.5-.5-1-1.1-2-1.7-3-.2-.3-.3-.6-.4-.8z"/><path d="m295.5 205.1c-.7-1.1-1.6-2.1-2.1-3.2-.3-.6-.2-1.4-.1-2.1.5-2.4 1.2-4.7 1.7-7 .2-1.1.1-2.2.2-3.3 0-.5.2-.9.2-1.4h.3c0 .5.1 1 .1 1.4-.1 1.3-.1 2.7-.3 4-.2 1.6 0 3.2.6 4.7.3.7.5 1.3.8 2 .8 2.2.4 3.5-1.4 4.9z"/><path d="m402.8 205.3c-1.9-1.5-2.2-2.7-1.5-4.8.1-.3.2-.6.3-.9 1.2-2.4 1.3-4.9.9-7.4-.1-1-.1-2.1-.1-3.1 0-.2.1-.5.1-.7h.3c.1.5.2.9.2 1.4 0 3.6.9 7 1.9 10.4.3.9.2 1.6-.4 2.4-.5.8-1 1.8-1.7 2.7z"/><path d="m408.7 199.4c-.2-.2-.4-.5-.6-.7-1.7-1.7-2.6-3.8-2.8-6.2 0-.3 0-.7 0-1 3.8.5 6.7 5.1 5.7 9.3-.7-.5-1.5-1-2.3-1.4-.1 0 0 0 0 0z"/><path d="m289.6 199.2c-.8.4-1.6.9-2.4 1.3-1.4-3.5 1.4-8.1 5.7-9.4-.1 1-.1 2-.3 2.9-.4 1.7-1.3 3.2-2.5 4.5-.1.2-.3.5-.5.7z"/><path d="m296.1 210.8c-.8-3.2 2-9.6 5.2-11.6 0 .4.1.7.1 1-.1 1.5-.1 3.1-.3 4.6-.1.7-.4 1.4-.8 1.9-1.4 1.4-2.8 2.7-4.2 4.1z"/><path d="m396.8 199.3c3.2 1.8 6.1 8.3 5.4 11.7-.2-.1-.4-.2-.5-.4-1.2-1.2-2.5-2.5-3.7-3.8-.3-.3-.6-.6-.6-.9-.2-2.1-.4-4.3-.6-6.6z"/><path d="m298.5 222.8c-1.1-1.4-1.2-4.4 0-5.8s2.5-2.7 3.9-4.2c.8 1.7.7 3.2.4 4.8-.2.8-.5 1.5-.9 2.2s-.9 1.5-2 1.2c-.1 0-.3.2-.4.4-.3.4-.6.8-1 1.4z"/><path d="m395.9 212.9c1.3 1.4 2.6 2.6 3.7 4 1.2 1.5 1.3 4.4.1 6.2-.1-.2-.1-.4-.2-.6-.4-.7-.7-1.3-1.8-1.5-1-.2-1.5-1.3-1.9-2.3-.6-1.9-.8-3.7.1-5.8z"/><path d="m297 181.3c.5-1.2.9-2.5 1.5-3.7.2-.5.7-.9 1.2-1.2 1.8-.8 3.6-1.4 5.4-2.2.1.1.2.1.3.2-.2.7-.2 1.4-.6 1.9-.6.9-1.4 1.9-2.3 2.5-1.6 1.1-3.4 1.9-5.2 2.8-.1 0-.2-.2-.3-.3z"/><path d="m393.2 174.4c1.9.7 3.7 1.3 5.4 2.2.8.4 1.4 1.4 1.8 2.2s.6 1.8.9 2.8c-3.2-.5-8.8-3.8-8.1-7.2z"/><path d="m312.7 191.2c.1 3.2-5.7 12.6-8.4 13.9-.6-2.3.7-5.7 2.8-7.1.5-.3 1-.6 1.5-.8 1.2-.5 2-1.4 2.6-2.6.4-1.1.9-2.1 1.5-3.4z"/><path d="m385.6 191.4c.6 1.2 1.1 2.2 1.6 3.2.6 1.3 1.5 2.1 2.7 2.7 3.2 1.5 4.7 4.3 4.2 7.9-2.4-.5-8.7-10.5-8.5-13.8z"/><path d="m299.8 174.8c-.4-3.2 4.3-6.4 7.8-5.4 0 3-3.6 5.5-7.8 5.4z"/><path d="m390.6 169.6c3.6-1 8.3 2.2 7.8 5.3-3.7.5-7.8-2.4-7.8-5.3z"/><path d="m303.5 219.5c.1 1.6.3 3 .2 4.4-.2 1.7-1.6 2.6-3.1 3.2-1.7.6-2.2.2-2.1-1.6 0-.4.1-.8.3-1.1.9-2.1 2.5-3.6 4.7-4.9z"/><path d="m395 219.8c2 1.2 3.6 2.6 4.5 4.6.3.7.2 1.6.2 2.5 0 .7-.4.9-1.2.7-3.3-.9-4.5-2.8-3.9-6.2.1-.5.2-1 .4-1.6z"/></g><path d="m349.5 245.2c2.9 0 3.2.4 2.2 3.1-.1.3-.2.5-.3.8-.4 1.2-2.1 2-3.3 1.4-.2-.1-.4-.4-.5-.6-.3-1.1-.5-2.1-.7-3.2-.2-.9.2-1.4 1.2-1.5.4-.1.9 0 1.4 0z" fill="#0096cd"/><g fill="#fc3"><path d="m299.1 193.6c1.4 1.9 2.9 3.7 4.1 5.7 1 1.6.4 3.4.3 5.2 0 .5-.1 1.1-.2 1.6-1-.3-1.4-.9-1.4-2 0-1.6-.1-3.1-.1-4.7 0-.5-.1-.9-.3-1.6-.8.9-1.5 1.7-2.3 2.6-.2-2.4-.3-4.5-.5-6.6.2-.1.3-.1.4-.2z"/><path d="m394.9 206.5c-.1-2-.2-3.8-.1-5.5 0-.8.4-1.7.9-2.4 1.1-1.6 2.4-3.1 3.6-4.7h.3c-.1 2.1-.3 4.3-.4 6.6-.8-.9-1.4-1.6-2.2-2.5-.1.6-.3 1-.3 1.4-.1 1.6-.1 3.2-.1 4.8-.2 1-.6 1.7-1.7 2.3z"/><path d="m385.9 199.4c.3.1.4.2.4.2.9 1.9 2.5 3.2 4.2 4.4 1 .7 1.9 1.6 2.4 2.7.9 1.9 1.4 4 2 6 .1.4 0 .9 0 1.3-.1 0-.2 0-.3.1-.1-.2-.3-.4-.4-.6-.7-1.3-1.6-2.5-2.2-3.8-.3-.7-.5-1.7-.4-2.5.1-1.5-.1-2-1.5-1.8-1.2.1-1.7-.4-2.1-1.3-.5-1.2-1.1-2.2-1.7-3.4-.2-.4-.3-.8-.4-1.3z"/><path d="m312.4 199.3c-.1.3-.2.7-.3 1-.7 1.4-1.4 2.8-2 4.1-.3.5-.6.7-1.2.6-.3 0-.6 0-.9 0-1.1.1-1.4.5-1.2 1.6.3 1.4 0 2.5-1 3.5-.7.7-1 1.7-1.4 2.6-.2.3-.4.7-.5 1-.1 0-.2 0-.3 0 0-.3-.2-.6-.1-.8.6-3.9 1.5-7.6 5.1-9.8 1.4-.9 2.5-2 3.3-3.5.1-.2.2-.3.3-.4 0 .1.1.1.2.1z"/></g><path d="m386.3 206.1c1.2 0 2.3.1 3.3.1 1.2 0 1.3.1 1.1 1.3-.2 1.1-.2 2.2-.5 3.3-.1.4-.8.9-1.3 1-.6.1-1.3 0-1.8-.3-.4-.2-.8-.8-.9-1.3 0-1.5.1-2.9.1-4.1z" fill="#fff"/><path d="m312 205.9v4.1c0 .8-.4 1.2-1.1 1.4-.5.1-1 .2-1.5.3-.7.1-1.4-.5-1.4-1.1-.1-1-.1-2-.3-2.9-.3-1.4-.2-1.6 1.2-1.6 1-.1 2-.2 3.1-.2z" fill="#fff"/><g fill="#fc3"><path d="m322.1 255.7c-1.3-.4-2.3-1-3.2-2-2.2-2.5-4.4-5.1-6.5-7.7-.3-.4-.7-.8-1-1.2s-.5-1 0-1.3c.3-.1.9.1 1.2.4 1.1 1.4 2.1 3 3.3 4.4 1.7 2 3.5 3.8 5.2 5.7.5.5.8 1.1 1.2 1.6 0-.1-.1 0-.2.1z"/><path d="m376 255.6c.4-.5.7-1.1 1.1-1.5 3-3 5.8-6.1 8.2-9.6.2-.3.4-.6.7-.8s.8-.3 1-.1c.2.1.2.6.2 1 0 .2-.2.4-.4.6-2.2 2.6-4.3 5.3-6.5 7.8-.9 1-2 1.7-3 2.5-.3.2-.6.2-.9.4-.3-.1-.4-.2-.4-.3z"/><path d="m296.4 186.2c-.3-3 2-4.9 6.4-5.6.5 2.2-2.3 5.7-4.9 5.7.7-.4 1.1-.6 1.5-.9s.8-.6 1.2-1c-1.4.6-2.8 1.2-4.2 1.8z"/><path d="m395.5 180.7c1.3.4 2.6.7 3.9 1.2 1.6.6 2.7 2.6 2.5 4.5-1.4-.6-2.8-1.2-4.2-1.8h-.1c.8.6 1.7 1.2 2.5 1.8-2 .4-5.1-3.6-4.6-5.7z"/><path d="m349.3 269.9c-2 2.2-14.7 7.4-16.6 6.9.5-.3.7-.6 1.1-.8 4.7-2 9.4-4 14-5.9.5-.2 1-.1 1.5-.2z"/><path d="m368.8 128.9c5.5 5.4 10.7 11.2 15.3 17.4-.1.1-.2.2-.2.3-.6-.5-1.2-.9-1.6-1.4-4.4-5-8.7-10-13.1-15.1-.2-.3-.4-.6-.6-1 0-.1.1-.2.2-.2z"/><path d="m329.6 128.8c-.4 1.5-14 16.9-15.3 17.4 4.5-6.3 9.7-12.1 15.3-17.4z"/></g><path d="m377.7 274.4c.4-.5.6-.8.9-1 1.8-1.2 3.8-1.6 5.9-1.1.7.2 1.3.7 1.2 1.4 0 .4-.6 1-1.1 1.2-1.5.7-3.1.3-4.6.1-.7-.2-1.4-.4-2.3-.6z" fill="#901611"/><path d="m320.4 274.3c-2.1.5-4.2 1.2-6.4.6-.7-.2-1.4-.4-1.5-1.3-.1-.7.7-1.3 1.7-1.5 1.9-.4 3.6 0 5.2 1 .4.2.7.6 1.1 1 0 0-.1.1-.1.2z" fill="#901611"/><g fill="#fc3"><path d="m297.9 227.6c-2.3.1-6.1-3.6-6.1-5.8 2.7-.7 6.1 2.5 6.1 5.8z"/><path d="m400.5 227.7c-.3-3.1 2.5-5.8 6-5.9.5 2-3.8 6.1-6 5.9z"/><path d="m363.7 269.3c-.3.3-.6.6-1 .8-7.3 3.8-14.8 7.2-22.7 9.7-.4.1-.8.1-1.3.1 8.5-3.1 16.7-6.7 24.7-10.9z"/><path d="m336.5 278.9c7.5-3.1 15-6.2 22.5-9.2 0 0 .1.1.1.1-.2.2-.4.4-.7.5-3.4 1.5-6.8 3.1-10.3 4.5-3.3 1.4-6.6 2.7-10 4-.4.3-1 .6-1.6.1z"/><path d="m354.4 270.2c-.5.3-.9.7-1.4.9-5.7 2.3-11.3 4.6-17 6.8-.3.1-.7.2-1.1.3 0-.1-.1-.2-.1-.3.5-.2.9-.5 1.4-.7 4-1.7 7.9-3.3 11.9-5 1.9-.8 3.7-1.5 5.6-2.3.2-.1.4-.1.6-.1-.1.1 0 .2.1.4z"/><path d="m304.4 218.6c.3-1.6.6-3.3 1-4.9.2-.7.9-1.3 1.5-1.9.6-.5 1-.3 1 .5s0 1.7-.2 2.5c-.2.7.7 1.3-.1 1.9-1 .7-1.9 1.4-2.9 2.1-.1 0-.2-.1-.3-.2z"/><path d="m393.9 219c-1.5-.7-2.8-1.2-3.5-2.5.1-.5.2-.8.2-1.1 0-.9-.1-1.8-.2-2.7 0-.3.1-.7.3-.8s.6.1.8.2c1.1.8 1.6 1.9 1.8 3.2.3 1.1.4 2.3.6 3.7z"/><path d="m313.4 242.8c.5.4 1.2.7 1.6 1.2 2.1 2.5 4.2 5 6.3 7.5.4.5.6 1.3.7 2.1-3.5-3-6.5-6.5-8.9-10.4.1-.1.2-.3.3-.4z"/><path d="m385.2 243.3c-2.3 4-5.3 7.3-8.7 10.5-.3-.8-.2-1.2.3-1.9 2.2-2.7 4.4-5.4 6.7-8 .3-.4.9-.6 1.4-.9.1.1.2.2.3.3z"/></g><path d="m347.1 250.4c-1-.1-2-.2-2.9-.3-.7-.1-2-2.1-1.9-2.8s2.9-1.9 3.5-1.5c.2.1.3.4.4.6.1.4.2.8.3 1.2.2.8.4 1.7.6 2.8z" fill="#005c83"/><path d="m338 248.5c3.5-3.7 7.9-5 12.9-4.6 4.1.3 7.5 2 10.4 4.9-.1.1-.1.2-.2.3-.4-.2-.7-.4-1-.6-3.5-3-7.6-4.4-12.2-4-3 .2-5.6 1.4-8 3.1-.6.4-1.2.8-1.7 1.2-.1-.2-.2-.2-.2-.3z" fill="#005c83"/><path d="m309.4 218.5c-.2-2-.5-3.9-.7-6 1-.2 1.9-.3 3-.5 0 1.8.1 3.4 0 5-.2 1-1.3 1.2-2.3 1.5z" fill="#008e6f"/><path d="m386.8 212.2c1 .2 1.9.3 2.8.5-.2 2-.5 3.9-.7 5.9-1.7-.1-2.3-.8-2.3-2.3 0-1.2 0-2.4 0-3.6 0-.1.1-.2.2-.5z" fill="#008e6f"/><path d="m343.1 281.6c.3-.2.6-.4.9-.5 1.8-.7 3.5-1.4 5.3-2 5.2-1.7 9.9-4.6 14.8-7.1.4-.2.9-.3 1.3-.4.1.1.1.2.2.4-.7.5-1.4.9-2.1 1.4-4.8 2.7-10 4.6-15.1 6.6-1.4.6-2.7 1.1-4.1 1.7-.3.1-.7.2-1.1.2 0-.1 0-.2-.1-.3z" fill="#fc3"/><path d="m386.4 218.7c2 .5 2.4 1.2 2.2 3.1-.1.9-.3 1.8-.4 2.7-.2.9-.7 1.1-1.3.5-.8-.7-1.5-1.6-1.2-2.9.2-1.1.4-2.2.6-3.2 0 0 .1-.1.1-.2z" fill="#d52a27"/><path d="m312 218.5c.3 1.4.7 2.8.7 4.1 0 .8-.8 1.7-1.4 2.3-.4.5-1 .3-1.1-.5-.1-.9-.3-1.9-.4-2.8-.4-1.9.1-2.5 2.2-3.1z" fill="#d52a27"/><g fill="#fc3"><path d="m305.5 225.4c-.7-2.1.6-5.4 3-7.3.2 1.3.5 2.5-.1 3.7-.1.3-.2.6-.2.9-.2 1.5-1 2.5-2.7 2.7z"/><path d="m392.8 225.6c-1.5-.2-2.3-1-2.6-2.6s-.9-3.1-.3-4.7c2.2 1.6 3.7 5.2 2.9 7.3z"/><path d="m337.2 137.5c-.4.3-.6.5-.8.6-5.4 3.9-10.8 7.9-16.2 11.8-.5.4-1.2.6-2 1 .5-1 18.1-13.5 19-13.4z"/><path d="m379.8 151c-.5-.2-1-.3-1.4-.6-5.7-4.1-11.4-8.3-17-12.4 0 0-.1-.1 0-.4.3.1.6.2.9.4l10.5 7.5c2.2 1.6 4.4 3.1 6.5 4.7.2.2.5.4.7.6 0 0-.1.1-.2.2z"/></g><path d="m351.9 250.3c.4-1.4.7-2.6 1.1-3.8 0-.1.1-.2.1-.2 1-.5 1.8 0 2.6.4.6.3.9.7.7 1.4-.6 2-.8 2.2-2.9 2.2-.5 0-1 0-1.6 0z" fill="#005c83"/><g fill="#fc3"><path d="m317 253.2c-.6-.4-1.3-.6-1.8-1.1-2-2.3-3.9-4.7-5.9-7-.3-.4-.7-.7-.1-1.2.5-.4.8 0 1.1.3 2.2 2.7 4.3 5.3 6.5 8 .2.2.3.5.5.7-.1.1-.2.2-.3.3z"/><path d="m381 253.1c.2-.2.3-.5.5-.7 2.2-2.7 4.3-5.3 6.5-8 .3-.4.5-.7 1.1-.3.5.4.2.8 0 1.1-2 2.4-3.9 4.8-6 7.2-.4.5-1.2.7-1.7 1.1-.3-.2-.3-.3-.4-.4z"/><path d="m402 194.7c-2.7-1.6-2.9-4.3-3.6-6.8 2.9.2 4.1 2.4 3.6 6.8z"/><path d="m296.3 194.4c-.6-4.2.4-6.1 3.4-6.8.2 2.4-1.5 6-3.4 6.8z"/><path d="m403.1 186.4c-1.4-2.7-.8-7 1.1-8.4 0 .2.1.4.1.6.2 1.3.3 2.6.5 3.9.3 1.7-.6 2.8-1.7 3.9z"/><path d="m295.2 186.2c-1.5-1.4-2.2-2.8-1.5-4.8.3-1.1.2-2.3.3-3.4 2.1.5 2.3 5.8 1.2 8.2z"/><path d="m364.6 270.9c-.6.4-1.2.9-1.8 1.2-6.6 3.5-13.6 6-20.5 8.5-.4.1-.8.2-1.3.1 8.1-2.7 15.8-6.3 23.4-10.2 0 .2.1.3.2.4z"/><path d="m396.1 245.7c-.2.3-.4.6-.6.9-1.8 2-3.5 4-5.3 6-.2.2-.4.5-.6.5-.3.1-.6 0-.9-.1.1-.2 0-.5.2-.7 1.8-2.2 3.6-4.3 5.4-6.4.4-.5 1-.8 1.8-.2z"/><path d="m302.2 245.5c.8-.6 1.3-.3 1.8.2 1.9 2.2 3.7 4.4 5.5 6.6.1.1.2.5.1.6-.2.1-.5.2-.7.2-.3-.1-.5-.3-.7-.5-1.9-2.1-3.7-4.2-5.6-6.3-.1-.3-.2-.5-.4-.8z"/><path d="m311.4 252.5c-.4-.2-.8-.3-1.1-.5-1.9-2.1-3.7-4.3-5.5-6.5-.2-.2-.2-.5-.3-.8.1-.1.2-.2.3-.2.5.3 1.2.6 1.6 1 1.6 1.9 3.2 3.9 4.8 5.8.2.2.3.6.4.9 0 .1-.1.2-.2.3z"/><path d="m386.6 252.4c.2-.3.3-.7.5-1 1.5-1.8 3-3.7 4.5-5.5.4-.4.9-.7 1.4-1 .1-.1.4-.1.5 0s0 .3 0 .5c0 .1-.1.2-.1.2-1.8 2.2-3.7 4.4-5.6 6.5-.2.3-.7.3-1 .5 0 0-.1-.1-.2-.2z"/><path d="m375.8 251.4c.2-.5.3-1.1.6-1.6 1.6-2.1 3.2-4.3 4.9-6.3.2-.3.7-.4 1.1-.6 0 .5.2 1.1 0 1.3-1.9 2.4-3.8 4.7-5.8 7-.1.2-.4.2-.5.3-.1 0-.2 0-.3-.1z"/><path d="m322.1 251.5c-.3-.2-.6-.4-.8-.7-1.7-2.1-3.5-4.2-5.2-6.3-.2-.2-.4-.4-.4-.6 0-.4.1-.7.1-1.1.3.1.8.2 1 .4 1.7 2.2 3.4 4.3 5.1 6.6.3.4.4 1 .5 1.5-.1 0-.2.1-.3.2z"/><path d="m342.4 269.7c-2.8 1.2-5.4 2.3-8.1 3.4-.2.1-.5.1-.6-.1s-.2-.5-.1-.7c.2-.3.6-.7.9-.9 1.6-.7 3.2-1.4 4.8-2.1 1-.3 1.9-.3 3.1.4z"/><path d="m307.5 244.5c.4.2.9.3 1.1.6 1.9 2.3 3.8 4.5 5.6 6.8.1.1.1.3.2.5-1.6 0-7.2-6.2-6.9-7.9z"/><path d="m383.9 252.5c.1-.2.3-.4.4-.6 1.8-2.1 3.5-4.3 5.3-6.4.3-.3.7-.5 1.1-.8.1.1.2.2.4.3-.2.4-.2.9-.5 1.2-1.5 1.8-2.9 3.5-4.5 5.2-.5.6-1.3.9-1.9 1.4-.1-.1-.2-.2-.3-.3z"/><path d="m345.3 270c-.6.4-.9.7-1.3.9-3.2 1.3-6.3 2.7-9.5 4-.4.2-.8.2-1.4.3.8-1.2 10.8-5.5 12.2-5.2z"/></g><path d="m378.8 243.4c-1.7 2-3.2 3.9-4.8 5.8-.1-.1-.2-.1-.3-.2.2-.8.4-1.6.7-2.3.2-.5.4-.9.6-1.4.8-1.9 1.3-2.2 3.8-1.9z" fill="#901611"/><path d="m319.5 243.2c2.3-.3 3 0 3.8 1.9.5 1.2.9 2.5 1.4 3.7-.1.1-.2.1-.4.2-1.5-1.9-3.1-3.7-4.8-5.8z" fill="#901611"/><g fill="#fc3"><path d="m410.3 158.1c.8 1.7 1.8 14.3 1.4 15.9-.5-1.1-1.7-14.5-1.4-15.9z"/><path d="m286.5 173.8c.1-5.3.5-10.6 1.4-15.8h.4c-.4 5.3-.8 10.6-1.3 15.9-.2-.1-.4-.1-.5-.1z"/><path d="m308 253.6c-1.8-.3-7.4-6.5-7.3-8.1 2.5 2.6 5 5.1 7.3 8.1z"/><path d="m390.3 253.6c2.4-2.7 4.8-5.3 7.2-8 .1.1.2.2.4.2-.1.3-.2.7-.4.9-1.8 2.1-3.6 4.2-5.4 6.3-.3.4-.9.6-1.4.8-.2 0-.3-.1-.4-.2z"/><path d="m297.1 246.6c.3.2.7.3 1 .6 2.3 2.6 4.5 5.3 6.7 7.9.1.1.2.4.2.6-.8-.2-7.1-7.2-7.9-9.1z"/><path d="m401.5 246.9c-2.6 3.2-5.2 6.3-8 9.1.1-1.3 6.7-8.9 8-9.1z"/><path d="m317.7 243.1c1.3.4 5.8 5.7 5.8 7.2-.6-.4-1.1-.6-1.4-1-1.4-1.7-2.7-3.5-4.1-5.3-.1-.2-.1-.5-.3-.9z"/><path d="m374.7 250.3c0-1.3 4.5-6.6 5.7-7 0 .2.1.4 0 .5-1.6 2-3.1 4.1-4.7 6.1-.2.3-.6.3-1 .4z"/><path d="m390.4 187.6c-1.1-.7-4.6-10.3-4.2-11.4 1.4 3.8 2.8 7.6 4.2 11.4z"/><path d="m312.4 176.1c0 .3 0 .7-.1 1-1 3-2.1 6-3.2 9.1-.2.5-.6 1-.9 1.5-.1 0-.2-.1-.3-.1 1.4-3.8 2.8-7.6 4.2-11.5.1-.1.2 0 .3 0z"/><path d="m297.5 200.2c-.5-1.3-1-2.7-1.6-4.1.6-.3 1.1-.5 1.8-.8.5 1.7.4 3.3-.2 4.9z"/><path d="m400.5 195.5c.4.2.8.3 1.1.4.2.1.4.2.7.4-.5 1.4-1.1 2.7-1.6 4-.6-1.5-.5-3.1-.2-4.8z"/><path d="m392.9 253.9c2.1-2.6 4.2-5.1 6.3-7.7.1.1.2.1.2.2-1.6 3-3.8 5.5-6.5 7.5z"/><path d="m299.1 246c2.1 2.6 4.2 5.1 6.2 7.6-1.3-.3-5.9-5.6-6.2-7.6z"/></g><path d="m357.9 247.1c.7.8 1.3 1.4 2.1 2.3-.9.2-1.6.4-2.4.5-.6.1-.9-.4-.7-1s.6-1.1 1-1.8z" fill="#0096cd"/><path d="m352.7 279.7c1.7.5 3.3 1.1 5 1.6v.4c-.3.1-.6.4-.8.3-1.4-.6-2.8-1.2-4.1-1.8-.1 0-.1-.1-.1-.2 0 0 0-.2 0-.3z" fill="#fc3"/><path d="m337.9 268.5c-.8 1.1-3.5 2.2-4.3 1.8.3-1 2.7-2.1 4.3-1.8z" fill="#fc3"/><path d="m342.4 249.8c-1.1-.1-2.1-.3-3.2-.4.4-.9.8-1.6 1.8-1.5.9.1 1.2.9 1.4 1.9z" fill="#0096cd"/><g fill="#fc3"><path d="m363.6 278.4c-1.7.2-3-.4-4.2-1.4.8-.7 2.9 0 4.2 1.4z"/><path d="m359.9 280.5c-1.8.4-4.2-.6-4.6-1.9 1.6.7 3.1 1.3 4.6 1.9z"/><path d="m357.5 277.6c1.4.6 2.8 1.1 4.1 1.6-1.2.8-3.3-.1-4.1-1.6z"/><path d="m362.4 275.6c1 .5 2 .9 3 1.4-1.1.7-2.3.2-3.2-1.2.2 0 .2-.1.2-.2z"/><path d="m367.2 276.1c-.9.5-2.9-.3-3.4-1.5 1.3.6 2.3 1 3.4 1.5z"/></g><path d="m310.9 205c.3-.9.6-1.6.9-2.4.8.9.6 1.6-.9 2.4z" fill="#fff"/><path d="m387.4 205.1c-1.4-.6-1.6-1.2-.9-2.3.3.8.5 1.5.9 2.3z" fill="#fff"/><g fill="#fc3"><path d="m293.1 197.8c-.5.8-.9 1.6-1.4 2.4-.1-.1-.3-.1-.4-.2.5-.8.9-1.7 1.4-2.5.1.1.3.2.4.3z"/><path d="m406.5 200.4c-.5-.8-.9-1.6-1.4-2.4.1-.1.3-.2.4-.2.4.8.9 1.6 1.3 2.5 0 0-.1 0-.3.1z"/><path d="m333.4 268.7c.1-1.1.3-1.1 1.6-.7-.5.2-1 .4-1.6.7z"/></g><path d="m388.6 225.3c.3-.3.6-.6 1-.9.1.5.1.8.2 1.1-.4 0-.7 0-1.1 0 0-.1-.1-.1-.1-.2z" fill="#fff"/><path d="m308.6 224.1c.5.4.8.7 1.3 1.2-.6.1-.9.1-1.4.1.1-.4.1-.7.1-1.3z" fill="#fff"/><g fill="#664d1f"><path d="m416.5 200.5c-.7 1.5-1.8 2.5-3.4 3 1.1-1 2.3-2 3.4-3z"/><path d="m281.8 200.3c1.1 1 2.3 2 3.4 3-1.6-.5-2.7-1.5-3.4-3z"/><path d="m291.5 181.5c-.2 1.7-1.4 2.4-2.7 3.2.9-1.1 1.8-2.1 2.7-3.2z"/><path d="m409.5 184.9c-1.3-.7-2.5-1.5-2.7-3.2.9 1 1.8 2.1 2.7 3.2z"/></g><path clip-rule="evenodd" d="m348.1 113.3 3.8 7.6 8.5 1.2-6.1 5.9 1.4 8.4-7.6-4-7.6 4 1.5-8.4-6.1-5.9 8.4-1.2z" fill-rule="evenodd"/><path clip-rule="evenodd" d="m348.1 114.4 3.5 7 7.7 1.1-5.6 5.5 1.4 7.7-7-3.7-6.9 3.7 1.4-7.7-5.6-5.5 7.7-1.1z" fill="#d42027" fill-rule="evenodd"/><g fill="#fc3"><g stroke="#664d1f" stroke-miterlimit="10"><path d="m330.2 254c.2.1.5.1.7.2.8.3 1.2.8 1.1 1.5-.2 2.1-.4 4.1-.7 6.1-.1.9-.7 1.3-1.9 1.2-.1 0-.1 0-.2 0-.7-.1-1.3-.2-2-.3-.1 0-.2-.1-.3-.1-.9-.2-1.3-.6-1.3-1.2 0-.5.1-1 .1-1.5.7.1 1.3.2 2 .3 0 .1 0 .3-.1.4-.1.7 0 .9 1.1 1 .3 0 .5-.1.5-.3.1-.6.2-1.3.3-1.9-.9.1-1.7-.1-2.5-.3-.7-.2-1.1-.6-1.1-1.2 0-.3 0-.5 0-.8.1-.7.2-1.4.3-2 0-.1.1-.2.1-.3.2-.8.7-1.1 1.6-1.1h.5c.6.2 1.2.2 1.8.3zm-.3 2.8c0-.3.1-.7.1-1 0-.2-.1-.4-.4-.5-.2 0-.5-.1-.7-.1-.4 0-.5.1-.6.4-.1.7-.2 1.3-.3 2 0 .3.1.5.5.5.2 0 .4.1.6.1.4 0 .5 0 .6-.3.1-.4.1-.7.2-1.1z"/><path d="m353.8 255.1c.2 0 .5.1.7.1.8.1 1.3.6 1.3 1.3.1 2.1.2 4.1.3 6.2 0 .9-.5 1.4-1.7 1.5-.1 0-.1 0-.2.1-.7 0-1.4 0-2 .1-.2 0-.4-.1-.6-.1-.7-.1-1.1-.4-1.2-.9s-.1-1-.2-1.5h2v.7c0 .3.2.5.6.5h.1c.8 0 1-.1 1-.8 0-.5 0-1-.1-1.6-.8.2-1.6.2-2.3.1-.8 0-1.3-.3-1.4-.9-.2-1.1-.3-2.3-.1-3.4.1-.8.6-1.1 1.5-1.2.1 0 .2 0 .3-.1.8-.1 1.4-.1 2-.1zm.1 2.9c0-.3 0-.7 0-1s-.1-.4-.5-.4c-.2 0-.4 0-.7 0s-.5.2-.5.4v2c0 .3.2.4.6.4h.7c.4 0 .5-.1.5-.4 0-.4-.1-.7-.1-1z"/><path d="m337.3 263.9c.4-.7.8-1.4 1.1-2.1.4-.7.7-1.4 1.1-2.1.1-.1.1-.3 0-.4-.5-1.4-1-2.8-1.4-4.2 0-.1-.1-.2-.1-.3.7.1 1.4.1 2.1.1.3 1 .6 2 .9 3 .4-.9.8-1.8 1.2-2.7.1-.2.2-.2.4-.2.6 0 1.1 0 1.8.1-.2.5-.4 1-.6 1.4-.4.9-.9 1.9-1.3 2.8-.1.1-.1.3 0 .4.5 1.4 1.1 2.8 1.7 4.2 0 0 0 .1.1.2-.7 0-1.4 0-2-.1-.1 0-.2-.1-.2-.2-.3-.9-.7-1.9-1.1-2.8-.4 1-.9 1.9-1.3 2.9-.9.1-1.6.1-2.4 0z"/><path d="m336.7 263.9c-.7-.1-1.4-.1-2.2-.2.3-3 .6-6 .8-9 .7.1 1.3.1 2 .2-.1 2.9-.3 5.9-.6 9z"/><path d="m347.3 255.2h2v9.1c-.7 0-1.4 0-2.2 0 .2-3 .2-6 .2-9.1z"/><path d="m362.1 254.6c.2 2 .4 3.9.5 5.9.5 0 .9-.1 1.4-.1 0 .4.1.8.1 1.3-.5 0-.9.1-1.4.1.1.6.1 1.3.2 1.9-.7.1-1.4.1-2.2.2 0-.6-.1-1.2-.1-1.9-1.3.1-2.6.2-3.9.3-.2-.7 0-1.3.2-2 .8-1.8 1.4-3.6 2.1-5.3 1-.2 2-.3 3.1-.4zm-2 1.8c-.5 1.5-.9 2.9-1.4 4.4.6 0 1.1-.1 1.7-.1 0-1.5-.1-2.9-.3-4.3z"/><path d="m364.4 261.6c-.2-.7-.1-1.3.1-2 .7-1.8 1.2-3.6 1.8-5.4 1-.1 2-.3 3-.4.3 1.9.6 3.9.8 5.8.5-.1.9-.1 1.4-.2.1.4.1.8.2 1.3-.5.1-.9.1-1.4.2.1.6.2 1.2.3 1.9-.7.1-1.4.2-2.2.3-.1-.6-.2-1.2-.2-1.8-1.2 0-2.5.2-3.8.3zm3.2-6c-.4 1.5-.8 3-1.1 4.5.6-.1 1.1-.1 1.7-.2-.2-1.5-.4-2.9-.6-4.3z"/></g><path d="m314.6 180.7c.3 0 .9-.3 1.1-.2.2.2-.2.8.9 1.9.4.4.7 2 .9 2.7.3 1.1.5 1.6.8 2.9.3 1.2.5 1.6 1.6 1.9l.2.1-.2.1h-.4c.1.5.6.7 1.2.7 1.1 0 1.7-1 2.6-1.2 2.5-.5.2-1.5 2.6-1.6.8 0 2.3-.3 3.2-.4 1.1-.1 2.6-.2 3.8-.2h.9c1.8 3.6 5.5 8.2 9 10 .3.2 1.2.5 2 1.6-.8-.1-1.1.1-1.3.2.4.3.7.4 1.4 1.2.2.4 1.6 1.7 2.3 3.3l-3.6.2c-3.5 0-7 .6-9.2 1.9-.4.3-.9.5-1.4.9-1.6 1.4-2.9 3.7-2.9 6.2v1.3c0 1.5 1.1 2.8 1.1 4.3 0 1.2-1 2-1 3.3 0 .7.2.9.2 1.6 0 .4-.4 1.4-.5 1.7-.2.6-.1 1.3-.2 1.9-.4 0-.5.1-.9.1h-.4c-.4.1-1.5-1.9-3-1.9-1.1 0-2.4.7-3.1 1.6-.1.2.2.2.1.5-.8.8-.7 1.3 0 2 .1.1.3.2.4.3-.4.3-.3 1.7.3 2.6.3-.2.6-.7 1-.7.2 0 .4.3 1.4.3.8 0 1.1-.4 1.7-.2.9.2.4.7 3.4 1.3l.8.1c.7 0 1.1-.2 1.5-.5 1-.7.9-.4 1 .1.3.4 1.7-.7 1.7-1.9 0-.3-.2-.4-.2-.7 0-.5.4-.5.4-.9 0-.2-.2-.5-.2-.6.4-.5 1.2-2.8 1.6-3.5.2-.5 1-1.7 1.6-2.1.4-.3.5-.6.5-.7 0-.8-.4-1.3-.4-2-.1-3 1.3-4.5 3.5-5.6 1.1-.5 4.8-2 6.1-2.1 1.4 5.6 2.6 5.6 7 7.9 1.8.7 4 1.4 5.7 2.1s2.7 2.5 2.7 4.8v1.8c.3 3.2.4 1.7-3.1 1-2-.3-2.9 1.3-2.3 2.5-.2.3-.6.5-.7.9-.1.6.1 1.6 1.5 2 .1-.2.2-.5.3-.5.2.5.1 1.3 1.1 1.7.2-.4.3-.5.7-.8.7.3.9.5 1.6.4.4-.1 1.4-.4 1.6-.4.5 0 .6.2 1.2.2h1.2c.6 0 2.1-1 2.6-1.2.6-.3 2.2-1 2.2-1.7v-.2c0-.8-.2-1.2-.5-1.7h.2c0-.7-.3-1.2-1-1.2.1-.1.2-.3.2-.4s-.6-2.2-.6-2.5c-.2-.9-.1-1.9-.2-3-.2-3.3.5-3.3-1.9-4.6-1.8-.9-6.1-4.5-6.1-6.9v-.4c0-.7.4-1.2.6-1.7 3 1 5.4 1.4 8.6-.7 2.2-1.5 4.3-3.5 4.3-7 0-5-3.1-9.6-4.8-13.1-2.1-3.8-4.9-9-4.9-13.3 0-2.6 1-4.8 3.5-4.8 1 0 3.3.2 3.7 3.7l-.1 1.5c-.3 2.3-1.2 4.7.2 7 .5.8 1.4 1.6 2.1 2.2 1.1 1.1.8 1.4 3 1.4.4.3 1.6 1.6 1.8 1.6.4 0 .4-.3.6-.6v-.4c-1.1-1.2-2-3.4-2-5.8 0-4.1-.7-3.1-2-5.6-1.1-2.3-.2-3.4-2.1-5.7-1-1.2-3-2.4-5.1-2.4h-.5c-4.4.3-6.3 3.3-6.3 7.9-.2 4.3 2.3 9.7 4.1 13.3 1.4 2.9 5 8.9 5 12.6-.1 3.3-2.4 6-6.1 5.3-1.5-.2-2.9-1.1-3.6-2.3-.9-1.4-1.6-2-2.5-3.2-1-1.3-1.5-1.8-2.3-3.4-.6-1.3-1.3-2.5-1.7-4.1-.9-3.2-1.1-6.8.4-9.6.9.3 1.1.5 2.3.5h.6c-.1-1-.5-2.1-.3-2.9 1.1.6 2.1 1.1 2.8.7-.3-.4-1.2-.8-1.2-2.5v-.1l.3-3.1c.4.3.5 1 1.3 1h.4c-.7-1.5.1-4.7.2-5.9.1-1.7 0-2.7-.5-4 .2.1.3.2.7.2.7.2 1 0 1.6-.4-.8-1.2-.9-1-1.3-2.9-.2-1.2-.2-2.4-.3-3.7-.4-2.8-1.1-3.7-2.5-5.6-1.2-1.6-2.7-2.7-4.6-3.5-.4-.2-2.5-.8-2.6-1-.4-1.1-1-2-2.8-2.1-1.9.5-1.7 1.2-2.4 2.1-2.8 0-3.5.8-5.4 1.7-1.8.9-3 .2-4.8 1.4v.5l-.4 2.5c-.1.5.4 1.2 1 1.9.5.6 1.2 1.2 1.7 1.3.6-1.8 3.7-.8 3.7 1.2-.8-.5-1.5-1-3.5-1h-.5c-1.6 0-2.9.3-4.2-.2-1.8-.7-.7-3.2-1.4-3.2-.3 0-.7.9-.7 1.4 0 2.8 1.6 3.3 4.1 3.3 1.6 0 3.9-.6 6 .9-.4.4-.8.5-1.5.5-.9 0-1.9-.4-2-1.3l-.8.5h-.8c-.4.2-.6.4-.6 1v.3c0 2.9 1 3.5 3.9 3.5-.2.2-3.2 1.5-3.8 1.9s-1.3.9-1.8 1.4c-.5.4-1 1.1-1.4 1.3-.7-1.4-3.8-6.3-3.6-7.8.1-.9 1.6-1.9 1.6-3.4 0-2.8-2-2.8-4.5-2.8-.5 0-.8.3-1.1.6.1.2.7.7.7 1 0 .9-1.4.9-1.9 1.3-.7.5-.9.8-1.4 1.5-.4.5-.9.8-1.2 1.6s-.1 1.7-1.2 1.8c.8 1.6.3 2.2 2.3 2.9l.6.3c.2.1.7.3.8.4.7.5.9 1 1.4 2.1.6 1.3 1 2.4 1.5 3.8.2.7.5 1.3.6 2.1.1.4.1.8.2 1.1.1.4.3.6.6.9-1.4.6-3.8 1.8-5.9 1.8l-.5-.1c-2.5-.6-2.1-1-2.1-2.7.1-.9-.6-2.9-2.7-2.2-1-.7-2.6-.3-2.6 1.1-.6.6-1.3 1.6-1.3 2.7z"/></g><path d="m339.8 185.2c-.4 1.1-.3 1.8-1.5 2.3-.3.2-3.6.1-4.2.1-2.4-.1-5.6 0-7.9.6-1 0-1.7 0-1.7.7 0 .9-1.3.6-1.7 1-.8.6-2.4 1.5-3.2.5-.2-.3.2 0 .4-.3.1-.2-.5-.3-.8-.4-.8-.4-.9-2.4-1.2-3.2l-1.4-4c-.4 0-.8-1.1-.8-1.5s-.8-.1-1.2-.3c.2-1.6.9-1.9 1.9-2.4 0-.5.3-.9.7-1.1 1-.6 1.8.1 1.8 0 2.7-.4 2.6 2.1 2.6 3.4 0 1 1.6 1.6 2.6 1.6 2.5 0 5.5-1.6 7.7-2.4 1.5-.4 2.3-1.6 2.3-3.1 0-1 .1-2.7.7-3.5" fill="none" stroke="#ac863b" stroke-width=".1763"/><path d="m324.1 229c.3-.1 1.1 1.3 1 1.6-.1.7-1.4 1.1-1.7 1.7 0 .1-.6-1.3-.6-1.4-.1-.6.5-1.7 1.3-1.9z" fill="#fc3"/><path d="m322.7 227.4c.2-.2.9.3 1 .6.2.7-.9.9-.7 1.6 0 .1-.4-.2-.5-.3-.3-.6-.4-1.5.2-1.9z" fill="#fc3"/><g stroke="#ac863b"><path d="m350.5 154.5c.3-.2.8-.8.9-1 .3-.5.5-.7.5-1.4 0-1.2-1.6-1-1.6-.1 0 0 .1.1.1 0 .1-.4.4-.6.7-.6.4 0 .5.5.5.7 0 .5-.4 1-.7 1.4-.1.1-.6.6-.6.7-.2.3 0 .4.2.3z" fill="#664d1f" stroke-width=".0762"/><g fill="none" stroke-width=".1763"><path d="m343.7 162.9c-2.5-1.8-4.7-.7-7.4-1-1.5-.2-2.1-1.3-2.1-2.7 0-.3.1-.7-.2-.8-.8-.2-1.9 4.7 2.8 4.6 1.5 0 4.3-.7 6.5.8"/><path d="m334.8 173.2c-1.2-1.8-2.5-3.9-3.3-6-.5-1.3-.7-2.1.1-2.9 2.1-2.3 1.1-5.2-1.7-5.1-.6 0-1.4-.2-2.2.1-1.5.6.5.7-.1 1.7-.4.7-1 .5-1.7 1s-1.8 1.8-2.4 2.5c-.5.7-.3 2.3-1.4 2.3.3 1.1.9 2.8 2.3 3 .4.1.8.7 1.3.6.9-.1 3.6 6.6 3.9 9.1 0 .4.3.8.8.8"/><path d="m344.9 199.1c1.4.7 2.2 1.5 3 3.1" stroke-linecap="round"/><path d="m359.4 183.2c-2-1.2-.9-6.1-.9-7"/><path d="m360.9 178c-.1-2 0-2.3.4-4"/><path d="m362.2 169c-.3-.2-.8-1.1-.8-1.6"/></g></g><path d="m339.4 218c.8-1.5 1.4-2.2 3-3.1.5-.4 4.7-2 6.4-2.2 0-.4 0-.5-.1-.6-2.1.5-10.5 2.6-9.5 6.5z" fill="#664d1f"/><path d="m348.7 211.3c-2.8.4-9.3 2.8-9.3-.1.8.7 1.4.6 1.8.7 1.8.4 5.1-1.1 7.2-1.4.2 0 0-.4.1-.6z" fill="#664d1f"/><path d="m334.1 176.2c0 .7.6 1.9 1.2 2.4 1.1-1.3 1.6-2 1.6-3.7 0 1.1.1 2.1.6 3 1-.5 1.6-2.6 1.5-3.6.1 2.2-.9 3.8 2.7 5.4-.5-1.7.1-4.4.4-5.8-.2 1.4.4 7.3 4.5 7.9-.2-1.1-.5-4.7-.1-6.2-.3 1.4-.4 6.8 4.7 7.5-.9-2.2-1-3.8-1-6.2 0 2.6 1.8 7 6.3 8.3-1.7-3.2-1.8-5.7-2-9.2 0 3.6 1.1 6.6 4.5 8.1" fill="none" stroke="#ac863b" stroke-width=".1763"/><g fill="#664d1f"><path d="m344.7 184.3c0 2.8 1 4 2.3 6 1.2 1.7 2.5 3.8 3 5.9 0 .1-1.1-5.2-2.7-7.1-.7-.9-1.3-1.4-1.9-2.6-.3-.7-.3-1.3-.7-2.2z"/><path d="m360.7 217.7c-1.7-1.4-1.9-2.4-3-4.1.1.4.4 1.4.4 2-1.2-1-2.1-2.6-2.6-4.1.1 2.7 2.7 5.5 5.2 6.2z" stroke="#ac863b" stroke-width=".1763"/><path d="m351.3 206.1c-1 2.6-.1 8.6 2.8 10.4-.8-1.7-3.2-4.8-2.8-10.4z"/><path d="m367.2 219.9c2 .9 2.1 1.2 2.2 3.5 0 .5.1 1.1.1 1.6 0 1.4-.3-.1-.3-.8-.1-.6-.5-1.5-.9-1.8s-.3-.5.2-.2c.1.1.6.5.6 0 0-.7-.3-1.1-.8-1.5-.3-.1-1.5-.5-1.1-.8z" stroke="#ac863b" stroke-width=".0762"/><path d="m355.2 220.3c-1.1-.6-3.5-1.8-4.3-2.8-1.2-1.5-1.8-3.4-2.1-5-.2-1.3 0-2.4-.2-4.5-.1-1.8-.5-2.7-1.1-4.1-.3-.8-2.8-4-3.5-4.5 2.1.8 3.5 4.2 5.2 5.6.3-1.6.4-3.1-.7-4.4-.8-1-2.4-1.6-3.4-2.1-1.6-.1-4.3-2.3-5.4-3.3-2.3-2.1-4.1-4.7-5.6-7.4l4.1-.1c.8 0 1.4-1.6 1.7-2.3l1.2 2.6c-.6-.4-1.2-.4-1.5-.1-3.7 2.9 4 7.8 6.6 9 2.9 1.3 4.7 4 4.2 6.4-1.4 5.3-1.5 14.6 7.3 17.2 4.9 1.5 7.7 2.5 7.3 8 0 2.1.3 2.5 1 2.5.8.1 2.4-.2 2.4 1 0 .6-.2.7-.2.4 0-.5-.2-.6-.4-.8-.5-.3-3.4.2-3.4-.7l-.2-1.3v-2.1c.1-6.1-6.1-5.3-9-7.2z"/></g><path d="m343.7 197.9c.6.2 1.2.8 1.3 1.2-.6-.1-.8-.1-1.3.1 1.9 1.2 5.1 4.8 5 9.6" fill="none" stroke="#ac863b" stroke-width=".1763"/><g fill="#664d1f"><path d="m371.8 208.9c-.9.6-1.7.9-2 1.1-1.8.7-3.9.8-6.5-.1.1-.4.2-.6.2-.9s0-.4 0-.4c2 1.7 6.3 1.6 8.3.3z"/><path d="m361 211.7c.1 2.2.5 3.7 2.3 4.7-1.2-1.3-1.6-2.3-2.3-4.7z"/><path d="m337.4 218.9c-.7 1.8.1 4.2.1 4.2.5-.9.9-3.4-.1-4.2z"/></g><path d="m347.4 203.7c-4.3 0-10.5.1-14 2.8-.5.4-1.4 1.5-1.8 2.2-.9 1.8-1.6 3.9-1.2 6 .2 1.3 1 2.7 1 3.8 0 .8-.5 1.8-.7 2.6 0 .3-.2.5-.2.8 0 .6.3 1.2.3 1.7-.1.6-.4 1.3-.5 1.8-.1.7.2 1.7-.6 1.7-.6 0-.9.3-1.3-.2s-.9-.9-1.5-1.3c-.4-.3-.8-.3-1.3-.3-1 .1-2 .7-2.8 1.5.2.2.2.2.1.3-.3.3-.7.8-.7 1.4 0 .4.5.9.9 1.1 0 0-.5 1.2.1 2.4.3.5.4.1.7-.1 1-.8.7 0 1.7 0 .9 0 1.5-.4 2.4-.1 1 .8 3.9 1.6 5 1.1.7-.3 1.4-1.4 1.5-.1 0 .2 1.2-.6 1.3-.8.2-.3 0-.2.2-.5.3-.4.3-.9-.1-1.2-.1-.1.2-.6.3-.8s0-.3 0-.5c-.1-.4-.3-.1.1-.8 1-1.9 1.5-4.1 3.2-5.5.6-.5-.1-1.8-.1-2.1-.2-.5 0-2.1.2-2.6 1.2-3.6 6.4-4.6 9.5-5.6" fill="none" stroke="#ac863b" stroke-width=".1763"/><path d="m333.9 232.3c0-1.2-1.3-.8-1.3-2.3 0-.5.6-1.6 1.2-1.6.2 0 .3.1.3.3s-.1.3-.3.4c-.9.3-1 1.7-.1 2.1.1 0 .1-.2.2-.3.4-.5 1.4-.8 2-.4 0 .2.3.5.2.7-.4.6-.2.6-.3.8s-.4.3-.6.5-.5.3-.8.4c-.1-.1.1-.7-.5-.6z" fill="#664d1f"/><path d="m335.5 230.6c-.2-.2-1.2 0-1.4.2-.4.6.4 1.2.3 1.9 0 .1.5-.4.6-.4.6-.4 1-1.1.5-1.7z" fill="#fc3"/><path d="m330 227c-1.8.3-1.5.3-2.3-.6-1.5-1.6-3.2-1.1-4.8.2-1 .8.6.9.7 1.4 0 .8-.3.6.7 1.4.3.3.4.9.6 1.1.6.7 1.1.8 1.8.9 1.8.1 0-.6-.8-.8-.6-.2-.7-1.3-1.1-1.7-.2-.2-1.2-.9-.5-1.3 1.3-.9 2.6-.1 3.9-.1.6-.1 2.2-.3 1.8-.5z" fill="#664d1f"/><path d="m328.2 227.1c-.2 0-1.3-.2-1.8-.4-.9-.2-1.9 0-2.4.7-.1.1-1.4-.5-.9-.8 2.9-2.5 4.2-.5 5.1.5z" fill="#fc3"/><path d="m322.7 227.2c-.2.1-.4.4-.5.6-.2.5-.2.9.1 1.3.1.1 1.1.9.8.4-.2-.5.4-.6.4-1 0-.1 0-.1 0-.2-.1.1-.5.5-.5.7 0 .1-.1.3-.1.4 0 0-1-.5-.5-1.4.1-.1.3-.6.5-.6z" fill="#664d1f"/><g stroke="#ac863b"><path d="m324 229c-.3.1-.8.5-1 1" fill="none" stroke-width=".1763"/><path d="m325.1 230.6c-.1.2-.3.6-.5.8-.2.1-.4.2-.6.4" fill="none" stroke-width=".1763"/><path d="m331.4 210.5c-1.4 3.7-.2 5.2.6 7.2.2.6.4 1.3 0 2.2-.3.6-.7 1.9-.7 2.8.1.7-.2 3-.5 3.8-.2.5-.9.3-.9.5s-1.6.4-1.5.4c.2 0 2.4-.2 2.6-.5.5-.8.6-2.8.6-3.1 0-1.3 0-2.2.6-3.4.5-1.3.4-2.1.9-3.6-.2.4-.4.7-.6 1-.4-.9-1.8-3.4-1.1-7.3z" fill="#664d1f" stroke-width=".0762"/></g><path d="m333.6 208.4c-.8.7-1 2.3-.2 3.1-.3-1-.2-1.9.2-3.1z" fill="#ac863b"/><path d="m365.5 184.3c2.3 6.8 9.1 14.8 6.9 20.7 4.1-7.2-6.9-16.4-8.5-28.8 0-.3 0-1.7 0-1.6 0 .9-.2 1.7-.1 2.6 0 2.5.9 4.7 1.7 7.1z" fill="#664d1f" stroke="#ac863b" stroke-width=".0762"/><path d="m338.1 155.2c1.3.4.5 2.2.5 3.2 0 1.3 1 1.7 2.1 1.2 2.9-1.5 5.1 3.3 2.9 4.4.7-1-.1-3.4-2.5-3.2-.5 0-.6.4-1.1.9-.7-.2-1-.6-1.7-1.5-.2-.3-.5-.6-.6-.9-.3-.6.1-2 .2-2.7 0-.4 0-.4-.1-.9-.1-.1.2-.5.3-.5z" fill="#664d1f"/><path d="m340 160.6c-.1 0-.2.1-.3.1s-.2.1-.2.1c-.1.1 0 .2.1.2.1.1.2.3.3.4s.1-.2.2-.2c.1-.1.1-.3.1-.4 0-.2 0-.2-.2-.2z" fill="#fc3" stroke="#fc3" stroke-width=".0762"/><path d="m345.6 153.6h-1.3c-.1 0-.2 0-.3.1-.6.9-1 1.1-2 1.6.4 0 1.6 0 2.2.4.1.1.3 0 .3.2s0 0 .3 0 1.7.1 1.7 0c-.8-.6-1.1-1.1-1.5-1.5.1.3.2.8 0 1.1-.2 0-.5-1.2-.6-1.4-.1-.3.5-.3.8-.3.1 0 .2-.1.4-.2z" fill="#664d1f"/><path d="m346.3 154.2c.2.3.5.5.3.8-.1.2.1.3.2.2.3-.2-.1-.8-.5-1z" fill="#ac863b"/><g fill="#664d1f"><path d="m342.3 166.5s.1.1 0 0c2 .1 2.6-.1 3.5-1.8 0-.1 0-.1 0-.1-1 1.3-1.8 1.7-3.5 1.9z"/><path d="m348.8 161.4c0-.2-.3 0-.4.3-.3 3.8-3.3 6.6-8.2 6.1-2-.2-1.7-2.1-1.7-3.9 0-.1-.4.1-.6.6-.2 2.4-.1 4 2.6 4.1 3.7.2 8.8-2.1 8.3-7.2z"/><path d="m346.4 160.7c.1-1.8-1.2-2.9-2.6-3 1.3.8 1.9 1.5 2.6 3z"/><path d="m350.6 165.6c1.9 0 3.2-.1 3.8-3.7 0-.1-1 3.2-2.8 3.3.2-.5 1.4-3.4 0-3.8.4 1.5-.4 3.8-1 4.2z"/><path d="m354.9 162c.1.8-.9 3-1 3.2 1.5-.5 2-1.3 2.9-2.4.7-.9.9 1.2-.1 2.3 1.1-.2 2.3-.9 2.4-2.5-.3.8-.7 1.7-1.7 2 .1-.5.6-2-.2-2.3-.5-.2-1.6 1.9-2.5 2.2.3-.6 1-2.2.2-2.5z"/><path d="m360.9 162.3c-.2-.3-.4-.1-.3.2.8 1.6-1.2 1.6-1.2 2.9.6-.6 2.1-1.2 1.5-3.1z"/><path d="m348.1 152.2c.3-.2.8 0 .9.3-.1-.9.9-2 1.8-2.2 0 0-1-.3-2 .6 0 .2-.6.9-.7 1.3z"/><path d="m353.3 173.8c-.3-1-.4-3.2 0-4.5.2-.6-1.2 1.1-.8 3.4-.7-.7-1-1-2.1-2.7-.1-.3.5 2.6 2.9 3.8z"/><path d="m354.9 167.7c-.3 2.2.7 4.9 2.8 6.1-.5-2.2 0-4.9 0-5.1-.6 1.5-.7 2.7-.7 4-.9-1.6-1.6-3-2.1-5z"/><path d="m343.4 171.1c-.2 1.4.4 3.1 1.7 3.8-.3-1.4 0-3.1 0-3.2-.4.9-.4 1.7-.4 2.5-.6-1-1.1-1.8-1.3-3.1z"/><path d="m342.1 174c-.4 2.9 1 7.4 4.5 8-.4-2.8-.2-6-.2-6.2-.3 2.2-.5 3.3-.3 5.4-3-.7-3.9-4.1-4-7.2z"/><path d="m344.6 176.1c.1-.6-.3-.7-.3 0-.1.9.1 1.6.3 1.9 0-.3-.1-1 0-1.9z" stroke="#ac863b" stroke-width=".0762"/><path d="m346.3 175.8c-.5 4.7 1.9 7 4.9 7.5-1.2-2.7-1-6-1.1-6.3-.3 2.1-.2 3.8.2 5.5-2.3-.9-3.9-2.5-4-6.7z"/><path d="m349.2 177.2c.2-1-.4-1.1-.5-.1-.1 1.3.2 2.6.4 3 0-.5 0-1.6.1-2.9z"/><path d="m339 174.4c-.3 1.9-.7 4.3 2.7 5.4-.5-1.6-.1-4.3-.1-4.5-.2 1.4-.4 2.3-.4 3.6-2.2-.8-2-2.5-2.2-4.5z"/><path d="m332.1 178.7c-.5.8 0 1.6 1.5-.1.8-.9.8-4.2.7-4.6-1.1 1-2 3.6-2.2 4.7z"/><path d="m338.9 174.3c.2 1.4-.6 3.4-1.5 3.7-.9-2-.5-3-.5-3.1 0 1.2.1 1.6.6 2.7.7-.4 1.2-1.6 1.4-3.3z"/><path d="m334.4 174.8c-.3 1.7-.3 2.2.9 3.8 2-2 1.5-3.4 1.4-3.7-.3 1.5-.3 2-1.4 3.2-1-1.4-1-1.7-.9-3.3z"/><path d="m335.5 174.9c.4-1-.1-1.2-.4-.2-.4 1.4-.5 2.7-.2 3.3 0-.8.1-2 .6-3.1z"/><path d="m350.3 177c-.2 4.1 3.2 7.7 6.1 8.2-1.8-2.9-2-8.7-2-9-.3 3 .6 6.5 1.2 8.3-2.3-.9-5.2-3.6-5.3-7.5z"/><path d="m351.8 177.4c0-1-.5-1-.5 0 .1 1.3.5 2.4.8 2.8 0-.5-.2-1.6-.3-2.8z"/><path d="m354.8 179.3c.3 4.7 1.3 7.1 4.7 6.7-.7-2.2-.5-2.6-.6-3-.2.5-.1 1 .1 2.6-2.3 0-3.9-2.5-4.2-6.3z"/><path d="m354.5 176.2c-.3 4.8 2.7 7.3 4.4 7.9-.1-.8 0-.9 0-1.2-.1.2 0 .2-.2.4-2.3-.8-3.8-2.8-4.2-7.1z"/><path d="m356.3 177.5c0-1-.5-1-.5 0 .1 1.3.6 2.5.8 2.9 0-.5-.3-1.6-.3-2.9z"/><path d="m358.6 176.2c-.8 4.5-.8 7.8 3.3 7.5-2.2-1-1-5-1.1-5.2-.3 2.1-.6 3.7.6 5.1-2.8-.3-3.3-3-2.8-7.4z"/><path d="m360.2 177.4c.2-.7-.3-.9-.4-.1-.1 1 .1 2 .2 2.3.1-.4 0-1.2.2-2.2z"/><path d="m361.3 174c-.9 2.8-.7 5.2 1.5 5-1.2-.5-.4-2.8-.5-2.9-.2 1.2-.5 1.4-.1 2.7-1.3-.2-1.5-2-.9-4.8z"/><path d="m362.3 167.6c-.2-.5-.5-.4-.2.1.3.6.8 1.1 1 1.2-.2-.2-.6-.7-.8-1.3z"/><g stroke="#ac863b" stroke-width=".0762"><path d="m368.2 171.6c4.6-2.6 6.9 1 6.2 5.8-.6 4.5 0 5.4 2.3 8.8-4.5-4.5-2.7-5.3-2.7-10.9-.1-4.5-4-4.9-5.8-3.7z"/><path d="m375.8 180.6c-.1 1.9.6 4.8 2.7 5.8-2.4-2-2.2-4.2-2.7-5.8z"/><path d="m377.5 181c-.1 1.9.6 4.8 2.7 5.8-2.4-2.1-2.2-4.3-2.7-5.8z"/></g></g><path d="m362.7 206.1c1.2 1.4 4.2 2.2 5.6 1.7 6.1-2 3.6-9 1.5-13.1-2.5-4.5-5.4-11-5.7-12.5-1-2.7-1.5-8.8.6-11.4 3.8-4.6 11.4-1.9 11.8 3.7.1 1.4.7 2.5 1.6 3.7.9 1.1 1.1 1.6 1.1 3.1-.3 1.6.3 4.4 1.1 5.6.2.3.4.5.8 1.4-.3 1-.5.8-.8.7-.2-.1-1.3-1.5-1.6-1.5-.8 0-1.9 0-2.4-.6-.9-1.2-1.8-1.6-2.7-2.8-2.1-3 .3-6.2-.4-9.3-.3-1.2-.7-2-1.4-2.5-2.2-1.5-4.4-.3-5.2 1.5-1.8 4 1.2 9.9 3 13.4 3.1 6.1 10.7 16.8 2.5 22.5-2.9 2-5.6 2.1-9.2 1" fill="none" stroke="#ac863b" stroke-width=".1763"/><path d="m364 231.2c-1.1-.9-6.1-2.3-5.5 1.3 0 .1-.5 1-.5 1.1-.4.9.7 2 1.6 2.2.3-1.7.9-1.9 1.5-2.5-1.5.7-1.5 1.4-1.6 2.3-.8-.2-1.6-1.2-1.2-2.1.1-.2.4-.8.7-.7.2.1 1.2.4 1.1.2-.3-.7-1.3-.5-1.2-1.1.2-3 4.8-.6 5.1-.7z" fill="#664d1f"/><path d="m363.7 232.3c-.5.4-1.2-.7-2-.4-1.5.5.3 3 1.9 3 .4 0 3.4-1.5 3.9.2-2-.8-4.2.5-3 .8.5.1.9-.4 1.4-.3.8.2 3 .5 2 .6-1.3.2-1.4-.7-2.7 0-1.5.7-2.5-1.4-3.8.2-.2.2-.2.4-.5.6-1-.2-1.7-2-.8-2.8.5-.4.5-.6.4-.9-.4-2 2.3-2 3.2-1z" fill="#664d1f"/><path d="m352.7 155c1.2-1.2.8-4.4-1.7-4.7s-2.5 2.1-3 2c-3.6-.2-4.7 2.2-7.4 2.2-.6 0-3 .6-2.8 1.3.3 1-.7 2.5 0 3.8.3.5 1 1.2 1.4 1.7.1.1.4.3.8.4.3-.4.5-.9 1.2-.9.5 0 1.2.2 1.7.6.8.7.9 1 .9 1.6 0 2.2-2.2 1.6-3.2 1.1-.2-.1-.4-.6-.5-.8 0-.2-.6.5-.9.5-.4 0-.4-.1-.7.1-.1 0-.2.2-.2.3-.2.4-.3.2-.3 1.2.1 1.2.1 2.1.7 2.6.9.8 2.4.7 3.3.7-2.3 1-4 1.7-6 3.5-.9.7-3.6 4.1-4 7.7m1.9 7.7c1.7 3.6 6.5 9.7 11 10.7 2.9.9 5 2.8 4.2 6.2-.9 4-.9 11.2 2.8 13.9 2.9 2.1 6.3 2.9 9.6 4.2 1.5.6 2.1 2.3 2.2 2.6.5 1.1.4 2.8.3 4 0 .6.6 2.5-.6 1.8-1.5-.9-4.8-1.3-5.1.4-.1.4 0 .7.1 1.3-1 .8-.7 2.3.9 2.9 1.3-3 .8.6 1.4 1 1-1.3 1-.2 2.3-.2.6 0 1.7-.6 2.2-.4.7.3 1.2.2 1.9.2.5 0 1.6-.6 2.1-.9l1.4-.8c1.7-1 1.7-1.7.9-3.4h.3c0-.1 0-.3-.1-.4-.1-.3-.4-.7-.7-.7-.1 0-.5 0-.1-.2.3-.2-.2-.9-.2-1.1-.1-.5-.2-1.2-.4-1.6-.3-2.1-.3-3.2-.3-6.1 0-.6-1.5-1.2-2.1-1.6-1-.7-5.3-3.4-5.8-6.5-.2-1.2.5-2.1.6-2.5 1.5-3.9-2.1-6.7-3.8-9-2.3-3-4-7.5-3.9-11.2 0-1.5.3-3.9 1.2-4.9.9.4 1.4.6 2.8.6-.3-1-.6-1.9-.4-3 .4.4 2 1.2 2.8.8-2-1.2-.9-4.1-.9-5.8.4.8.6 1.2 1.7 1.1-1.3-.9 1.2-6.8-.4-10.1.2.4 1.6.9 2.4 0-1.5-1.2-1.4-4.4-1.6-6.3-.3-2.8-1.4-4.8-3.4-6.8-2.2-2.2-4-2.7-6.3-3.6" fill="none" stroke="#ac863b" stroke-width=".1763"/><path d="m362.3 234.9c.3.3-.5.7-.7.8-.4.3-.6.6-.8 1-.9-.3-1.2-1.6-.6-2.4.1-.1.6-.6.6-.6.6.2 1.2.8 1.5 1.2z" fill="#fc3"/><path d="m370.9 230.6c.4 0 1 .6.4.8-.2.1-1.6.1-1.8.9.2 0 .3-.2.6-.4.9-.6 1.9 0 1.9 1.1 0 .5-.6 1.1-1.1 1.3.1-.9-1-1.9-1-1.5 0 .2.7 1 .6 1.5-.1.7-1.6 1.2-2.5 1.7.1.1.8-.3 1.2-.5s1.6-.9 2.1-1.1c1.2-.5 1.5-1.4 1-2.5 0-.1-.2-.4-.3-.7h.3c.1-.5-.5-1.2-.8-1.3h-.2c-1.2.1-1.7.7-.4.7z" fill="#664d1f"/><path d="m329.6 187.7c-1 .1-2.4.3-3.4.5-.6.1-1.7-.3-1.6.9 0 .5-1.2.5-1.6.8-1.2.6-1.4.9-2.5 1-.4.1-.9-.3-.9-.5 0-.1.4 0 .4-.3-.7-.2-1.4-.7-1.6-1.5-.2-1.3-.6-2.4-1-3.6-.3-1-.7-1.8-.8-2.4.1-.2.3-.4 1.2-.2 1.8.3 1.1 2 1.8 2.9.4.5.2 1.2-.3.5-.5-.6-.4-1.8-.8-2.5-.2-.4-.9-.5-1.3-.5.1 1 1.6 4.5 1.6 5.6 0 1.2 1.4 1.6 1.8.6.5-1.2 1.2-1.7 2.4-.2.9 1.1 1.5-.4 1.1-.9-.3-.5-.7-1.1-.5-1.8s.5 1.3 1.2 1.6c.2.1.4 0 .7-.2.4-.2 3.7-.2 4.1.2z" fill="#664d1f"/><path d="m321.5 188.2c.4.1.8.5 1.1.7.9.6-1.5 1.6-2.2 1.6-.2 0-.5-.1-.6-.2 1-.2 1.1-1.7 1.7-2.1z" fill="#fc3" stroke="#be984b" stroke-width=".0762"/><path d="m316.6 182.4c.1.4.5-.1.4-.1-.9-.4-1.2-1.7-.9-1.8.9-.1 1.7-.4 1.7-1.4 0-.7.4-.8.7-.5.7.5 1.6 2.1 1.6 1.1 0-.2-.6-.7-1.1-1.4-.2-.4 0-1.1.5-1.1 1.7 0 1.8 1.3 1.8 2.7 0 1.8.2 1.2 1.2 2.4.5.7.7 2.9.8 1.1 0-.6 0-.8-.1-1-.5-1.1-1.9-.8-1.7-2.4.4-2.7-1.4-3.6-2.6-2.9-1.1-.8-2.6.2-2.5 1.1-1.1.3-1.7.8-1.9 2.4 1.1.1 1.1-.2 1.2.4.1.2.4 1.4.9 1.4z" fill="#664d1f"/><path d="m317.7 178.5c-1-.3-2.8.4-2.9 2 .2-.2.6-.3.9-.4.2 0 .2.2.4.1.9-.1 1.8-.6 1.6-1.7z" fill="#fc3"/><path d="m318.9 177.4c-.6-.8-2.1-.5-2.1.7.9-.4 1.9.2 2 .1-.2-.4 0-.7.1-.8z" fill="#fc3"/><path d="m337.4 185.2c-.3-.2-.3-.3-.8-.3-1.4 0-3.3.1-4.6.4-.1 0 .4.1.6.1h2.7 1.2c.3.1 1.9.3.9-.2z" fill="#664d1f" stroke="#ac863b" stroke-width=".0762"/><path d="m331.2 179.2c-.7-.9-2.6-6.7-3.5-8.4-.2-.3-.5-1.1-.6-1.1-.3.1-1.5.4-1.5-.4.1-.6 1.4-1.4.3-2.4-.7-.7-3.2.4-1.2-2.9.4-.6.6-.7 1.2-1.2.2-.1 1.8-1.8 1.7-.3-.1.5-.1.8-.4 1.1s-.5.9-.5 1.3c-.1.4-.1.8-.1 1.2 0 .1.8-1.7 1.3-2.4.6-.8-.2-2.1.5-2.6 1.2.6 2.3.4 2.6-.7.1.1.1.4.1.8 0 .6-.4 1-.4 1.2 0 .1.2.1.3 0 .3-.7.5-1.7.3-2.1-.3-.6.3-.7.6-.3 1.2 1.5.2 3.6.2 3.6.2-.2.6-1 .7-1.3.3-1-.3-2.7-1.8-3.1-.4-.1-2.5-.3-2.8-.1-.1.1-1.1.4-.9.6 1.3 1.1.3 1.5-1.1 2.1-.8.3-2.8 2.7-2.8 3.4 0 .5-.2 1.2-.7 1.5-.2.1-.3.1-.5.1.8 2.5 1.3 2.8 2.6 3 .3 0 .2.4 1.2.6.1 0 .6 0 .7.1 1 1.2 3.4 6.6 3.5 8.5-.1 1.2.7.8 1 .2z" fill="#664d1f"/><path d="m330.6 159.9c-.1-.5-2.5-.9-3.1-.2.8.6.7.5.9 1 .2.3 1 .4 1.2.4.5 0 .6-.2.8-.6.2-.3.2-.4.2-.6z" fill="#fc3"/><path d="m325.9 167.8c-.1.3-.3.7-.5.9-.4.5 0 .6-.8.7-.6.1-1.4-.8-1.6-1.3-.1-.3-.3-.8-.3-1.1.8.4 1.7 0 2.5 0 .2 0 .6.3.6.5.1.2.1.2.1.3z" fill="#fc3"/><g fill="#664d1f" stroke="#ac863b" stroke-width=".0762"><path d="m327.3 168c.1 0 1.1-.1.9.1-.9.3-1.3.7-1.7.7-.1 0 .7-.6.8-.8z"/><path d="m330.1 170.4c.6.5 2.2 4.5 2.1 4.6-.1.2-.3.8-.4.6-.4-1.9-1.7-5.2-1.7-5.2z"/></g></g></svg>