<svg xmlns="http://www.w3.org/2000/svg" height="600" width="1200"><title>Flag of the British Windward Islands (1903–1953)</title><style><![CDATA[.B{stroke:#000}.C{fill:none}.D{fill-rule:evenodd}.E{fill:#fff}.F{fill:#ececec}.G{fill:#ccc}.H{fill:gold}.I{stroke-width:1.757}.J{stroke-linejoin:round}.K{stroke-linecap:round}.L{stroke-width:2.5}.M{stroke-width:3.228}.N{stroke-width:1.768}.O{stroke-width:2.66}.P{stroke-width:1.5}.Q{stroke-width:2}.R{stroke-width:1.365}.S{stroke-width:1.361}.T{stroke-width:1.428}.U{stroke-width:1.176}.V{stroke-width:1.607}.W{stroke-width:1.17}.X{stroke-width:1.366}.Y{stroke-width:8.55}.Z{stroke-width:5.82}]]></style><clipPath id="A"><path d="M0 0v150h700v150H600zm0 300v50h300V0h300z"/></clipPath><path d="M0 0h1200v600H0z" fill="#012169"/><path d="M0 0l600 300m0-300L0 300" stroke="#fff" stroke-width="60"/><path clip-path="url(#A)" d="M0 0l600 300m0-300L0 300" stroke="#c8102e" stroke-width="40"/><path d="M0 150h700M300 0v350" stroke="#fff" stroke-width="100"/><path d="M0 150h700M300 0v350" stroke="#c8102e" stroke-width="60"/><path d="M0 300h600V0h600v600H0z" fill="#012169"/><g transform="matrix(1.012495 0 0 1.012495 764.595 -630.10636)"><path d="M267.068 918.628c0 73.638-59.696 133.334-133.334 133.334S.4 992.267.4 918.628s59.696-133.334 133.334-133.334 133.334 59.696 133.334 133.334z" class="E"/><g transform="matrix(.249985 0 0 .249985 66.925512 746.664633)" class="B"><g class="E J L"><use href="#C"/><path d="M32.014 1084.652c-4.96 8.77-21.685 3.375-20.171-6.955.708-4.828 8.646-9.673 13.334-14.729 3.838-4.14 17.441 2.933 12.74 11.243z"/><path d="M-100.949 988.088c4.344 16.213 23.41 27.28 38.727 27.28 20.906 0 30.805.737 32.966 6.326 2.722 7.04-6.458 8.62-14.59 8.945-20.513.816-8.014 18.187 2.957 22.136 13.39 4.82 24.667 1.257 38.362 3.347 16.398 2.5 39.377 17.357 34.541 28.529l19.055-33.726c23.667-41.89-79.932-82.634-135.313-77.927-8.27.703-20.016 2.737-16.706 15.089z"/></g><use href="#D" class="C J K L"/><use href="#E" class="C K L"/><g class="C K"><path d="M38.433 1063.043l-7.455 12.913m3.77-16.168l-6.943 12.025m3.167-15.123l-6.69 11.588m3.007-14.848l-6.849 11.863m3.304-15.36l-4.282 7.416"/><path d="M-31.9 1034.466l-16.213 13.604m17.913-8.74l-13.71 11.504m15.401-6.633l-10.782 9.047m-9.896-60.894l-24.848 20.85m20.055-23.12l-25.189 21.136m20.07-23.131l-24.656 20.689m19.456-22.616l-23.399 19.634m17.472-20.95l-21.34 17.908m15.123-18.98l-18.398 15.438m50.547-4.669l-24.208 20.313m28.88-17.943l-21.927 18.399m26.321-15.795l-19.062 15.995m23.526-13.45l-16.297 13.675m20.701-11.08l-13.704 11.499m17.797-8.643l-11.967 10.041m-48.759-34.575l-14.491 12.16m7.664-12.721l-10.112 8.485m69.72 35.859l-21.323 17.892m26.561-28.579l-5.136 4.309m-11.57 9.708l-12.181 10.221"/></g><g transform="matrix(-1 0 0 1 511.32866 -199.71404)"><g class="E J L"><use href="#C" x="-23.171" y="199.715"/><path d="M8.842 1284.366c-4.959 8.77-21.685 3.375-20.171-6.955.708-4.828 8.646-9.673 13.334-14.729 3.838-4.14 17.441 2.933 12.74 11.243z"/><path d="M-124.121 1187.802c4.344 16.213 23.41 27.28 38.727 27.28 20.906 0 30.805.737 32.966 6.326 2.722 7.04-6.458 8.62-14.59 8.945-20.513.816-8.014 18.187 2.957 22.136 13.39 4.82 24.667 1.257 38.362 3.347 16.398 2.5 39.377 17.357 34.541 28.529l19.056-33.726c23.667-41.89-79.932-82.634-135.313-77.927-8.27.703-20.016 2.737-16.706 15.089z"/></g><use href="#D" x="-23.172" y="199.715" class="C J K L"/><use href="#E" x="-23.172" y="199.714" class="C K L"/><path d="M15.261 1262.757l-7.455 12.913m3.77-16.168l-6.943 12.025m3.167-15.123l-6.69 11.588m3.007-14.848l-6.849 11.863m3.304-15.36l-4.282 7.416m-51.362-22.883l-16.213 13.604m17.913-8.74l-13.71 11.504m15.401-6.633l-10.782 9.047m-9.896-60.894l-24.848 20.85m20.055-23.12l-25.189 21.136m20.07-23.131l-24.656 20.689m19.456-22.616l-23.399 19.634m17.472-20.95l-21.34 17.908m15.123-18.98l-18.398 15.438m50.547-4.669l-24.208 20.313m28.88-17.943l-21.927 18.399m26.321-15.795l-19.062 15.995m23.526-13.45l-16.297 13.675m20.701-11.08l-13.704 11.499m17.797-8.643l-11.967 10.041m-48.759-34.575l-14.491 12.16m7.664-12.721l-10.112 8.485m69.72 35.859l-21.323 17.892m26.561-28.579l-5.136 4.31m-11.57 9.708l-12.181 10.221" class="C K"/></g><path d="M-35.313 925.531c-5.413.222-10.791 2.658-14.906 5.28-20.164 12.851-55.916 38.907-50.719 57.28-2.771-9.004 29.045-5.177 40.75-.437 49.209 19.926 60.513 41.711 91.406 69.125 66.14 58.689 143.403 93 236.031 93s169.893-34.31 236.031-93c30.894-27.414 42.197-49.199 91.406-69.125 11.705-4.74 43.52-8.566 40.75.438 5.197-18.374-30.555-44.43-50.719-57.28-5.986-3.815-14.647-7.216-22.187-4.031-30.839 13.025-58.79 32.54-83.781 58.531-55.974 58.212-124.826 95.969-211.5 95.969s-155.526-37.757-211.5-95.969c-24.991-25.991-52.942-45.506-83.781-58.531-2.356-.995-4.821-1.351-7.28-1.25z" class="E J L"/><g class="C J"><path d="M-100.125 977.344c19.809-13.667 63.91 8.858 82.562 21.844 18.31 12.748 29.768 26.671 48.125 43.688 66.228 61.391 144.059 97.156 236.688 97.156s170.459-35.765 236.688-97.156c18.357-17.016 29.814-30.939 48.125-43.687 18.652-12.986 62.754-35.511 82.563-21.844" class="P"/><g class="K"><use href="#F"/><use href="#G"/><use href="#H"/><use href="#I"/><use href="#J"/><use href="#K"/></g><g transform="matrix(-1 0 0 1 534.75 .250001)" class="K"><use href="#F" x="0.25" y="-0.25"/><use href="#G" x="0.25" y="-0.25"/><use href="#H" x="0.25" y="-0.25"/><use href="#I" x="0.25" y="-0.25"/><use href="#J" x="0.25" y="-0.25"/><use href="#K" x="0.25" y="-0.25"/></g></g></g><path d="M66.872 996.615l.35-.422c-.403-.363-.612-.657-.629-.88s.172-.558.565-1.004l3.633-4.379c.366-.469.661-.717.886-.745s.55.126.977.46l.35-.422-3.205-2.659-.35.422c.408.358.62.652.639.881s-.169.566-.562 1.013l-3.633 4.379c-.362.463-.656.706-.885.731s-.558-.13-.991-.456l-.35.422zm15.383 1.606l-.353.419c.371.331.562.608.572.829s-.187.56-.591 1.017l-3.664 4.353c-.361.455-.656.695-.886.72s-.561-.13-.991-.459l-.343.407 3.299 2.777.343-.407c-.466-.422-.714-.75-.743-.986s.156-.574.554-1.014l1.361-1.617.608.87.226.185a3.22 3.22 0 0 0 .273.194c.654.44 1.361.657 2.121.651s1.464-.372 2.112-1.098c.306-.369.506-.75.6-1.144s.089-.775-.013-1.145a2.97 2.97 0 0 0-.526-1.043c-.257-.337-.6-.686-1.031-1.045zm1.295 2.788c.097-.115.184-.198.262-.247s.153-.076.227-.08c.062-.009.143.013.244.067a2.05 2.05 0 0 1 .338.238 1.98 1.98 0 0 1 .729 1.257c.084.512-.125 1.08-.624 1.706-.615.679-1.185 1.01-1.711.996s-.929-.154-1.211-.417c-.147-.127-.273-.255-.376-.386a2.27 2.27 0 0 1-.231-.34zm7.322 12.765c-.563.388-1.043.629-1.439.724-.231.059-.474.039-.729-.058s-.556-.269-.903-.516l-.668-.506c-.185-.158-.31-.302-.376-.432-.071-.136-.077-.296-.019-.482s.185-.418.382-.696l1.495-2.145.938.653c.499.324.789.593.871.809s.004.559-.233 1.028l.456.318 1.696-2.434-.456-.318c-.339.358-.625.537-.857.537s-.587-.177-1.065-.531l-.938-.653 1.795-2.575c.127-.197.236-.3.326-.309s.234.06.431.208l.738.515c.361.252.618.471.77.658s.226.36.222.52c.005.178-.015.374-.059.587s-.12.455-.224.722l.52.267.671-1.13.456-.748-5.548-3.867-.313.449c.418.309.643.574.677.793s-.13.572-.487 1.056l-3.253 4.668c-.318.492-.594.756-.827.79s-.607-.109-1.121-.431l-.313.449 5.985 4.171c.206-.165.5-.429.89-.791l.919-.898zm5.335-4.905l-.259.483c.45.259.702.496.755.711s-.068.58-.365 1.097l-2.687 5.015c-.264.532-.507.831-.728.895s-.592-.03-1.11-.282l-.259.483 3.153 1.689c.8.431 1.569.73 2.306.897s1.439.189 2.107.064a4.28 4.28 0 0 0 1.928-.798c.586-.429 1.093-1.038 1.52-1.829.323-.619.509-1.215.557-1.79a3.98 3.98 0 0 0-.158-1.574c-.203-.623-.562-1.185-1.08-1.687s-1.183-.969-1.999-1.401zm1.767 2.767a2.8 2.8 0 0 1 .279-.446c.08-.097.16-.157.243-.18s.198-.005.357.037.363.13.611.26a4.21 4.21 0 0 1 1.06.782 2.94 2.94 0 0 1 .647 1.02c.229.495.309 1.045.24 1.651s-.273 1.226-.612 1.861c-.619 1.137-1.378 1.902-2.278 2.294s-1.842.334-2.828-.172c-.448-.232-.712-.486-.791-.763s.006-.639.255-1.088zm11.997 11.373c-.451.514-.857.865-1.219 1.054a1.19 1.19 0 0 1-.721.122c-.271-.032-.605-.125-1.002-.28l-.771-.328c-.218-.108-.375-.217-.471-.327-.102-.114-.147-.268-.136-.462s.08-.45.2-.769l.925-2.445 1.069.404c.563.192.91.382 1.042.572s.14.541.025 1.053l.52.197 1.05-2.774-.52-.197c-.242.43-.475.673-.7.73s-.612-.028-1.162-.255l-1.069-.404 1.111-2.935c.075-.222.155-.348.241-.38s.242 0 .469.096l.842.319c.412.156.714.306.907.45s.307.294.34.45c.048.171.077.366.087.584a4.39 4.39 0 0 1-.041.755l.569.132.375-1.258.259-.837-6.325-2.393-.194.512c.481.198.764.399.85.604s.014.586-.214 1.143l-2.014 5.322c-.188.555-.392.878-.609.968s-.615.042-1.193-.144l-.194.512 6.823 2.582.667-.984.672-1.095zm51.514-6.675l-.542-1.169-.372-.856-6.338 2.314.188.515c.501-.167.853-.198 1.058-.095s.404.445.597 1.023l1.924 5.272c.225.567.292.957.201 1.17s-.383.422-.878.627l.188.515 4.066-1.484-.188-.515c-.6.188-1.01.233-1.231.137s-.425-.434-.614-1.013l-.84-2.3 1.235-.451c.574-.227.972-.304 1.194-.233s.443.331.664.779l.529-.193-1.006-2.757-.529.193c.107.449.097.766-.032.95s-.485.377-1.069.575l-1.235.451-1.125-3.081c-.088-.217-.11-.365-.067-.444s.178-.155.405-.229l.846-.309c.41-.153.734-.236.971-.251s.434.037.594.155a2.09 2.09 0 0 1 .443.375c.142.156.298.359.466.61zm11.842 2.452l-.243-.491c-.427.175-.772.225-1.037.15s-.623-.34-1.074-.8l-2.972-2.854-2.948-2.872-.541.459.728 8.135c.069.637.05 1.08-.056 1.329s-.357.491-.752.729l.243.491 2.947-1.456-.243-.491c-.483.183-.803.235-.96.155s-.259-.321-.308-.724l-.227-1.66 2.61-1.29.74.716.632.613c.228.217.323.398.285.542s-.235.334-.592.569l.243.491zm-5.403-1.783l-2.175 1.075-.209-1.795-.215-1.819.042-.021z"/><path d="M177.242 1004.842l-3.08 1.997.298.46c.441-.253.785-.386 1.031-.399s.452.08.618.28l.526.653.793 1.15.75 1.156c.68 1.037 1.032 1.948 1.056 2.731s-.335 1.42-1.08 1.911c-.682.44-1.36.525-2.032.256s-1.324-.89-1.955-1.858l-1.806-2.784c-.351-.508-.507-.876-.47-1.101s.276-.49.716-.793l-.298-.46-3.487 2.261.298.46c.465-.284.809-.397 1.03-.339s.492.351.813.879l1.955 3.014c.467.722.941 1.266 1.419 1.63s.982.568 1.509.613c.433.042.857-.003 1.272-.137a4.92 4.92 0 0 0 1.201-.581 4.12 4.12 0 0 0 1.076-1.003c.294-.395.487-.832.577-1.309.105-.595.052-1.202-.158-1.821s-.543-1.273-.998-1.962l-.758-1.169-.734-1.194-.385-.72c-.12-.249-.134-.478-.04-.687s.308-.434.641-.673zm6.437-2.348l-.883-.841-.649-.622c-.206.07-.469.179-.787.327s-.643.349-.973.602c-.785.648-1.235 1.349-1.35 2.104a2.6 2.6 0 0 0 .555 2.067c.483.57 1.058.882 1.723.935a6.54 6.54 0 0 0 2.068-.178c.604-.126 1.133-.166 1.585-.12s.827.249 1.122.608c.304.391.437.787.399 1.186s-.246.753-.623 1.061c-.597.416-1.218.53-1.864.34s-1.169-.438-1.571-.752l-.351.489 1.024.961c.35.314.619.531.808.652l.349-.097a4.75 4.75 0 0 0 .497-.185l.607-.295a4.83 4.83 0 0 0 .652-.436c.808-.666 1.286-1.403 1.433-2.21s-.034-1.542-.543-2.206c-.493-.585-1.075-.906-1.746-.961s-1.382.009-2.133.194c-.661.15-1.208.203-1.638.159a1.51 1.51 0 0 1-1.064-.59c-.255-.327-.366-.682-.335-1.065s.231-.727.597-1.033c.479-.35.95-.456 1.415-.317a4.21 4.21 0 0 1 1.304.656zm7.686-6.812l-1.074-1.029-.92-.9-.292.272c.019.177.008.325-.033.442s-.132.24-.271.367l-4.17 3.894c-.138.136-.266.225-.384.269s-.272.042-.462-.004l-.28.262.849 1.024.948 1.164.423-.395-.408-.798c-.105-.226-.162-.419-.171-.578-.028-.157.012-.334.12-.532s.355-.478.74-.839l.515-.481 4.791 5.132c.412.41.612.733.602.972s-.234.578-.67 1.019l.374.4 3.318-3.098-.374-.4c-.487.421-.852.631-1.096.63s-.556-.221-.935-.661l-4.791-5.132.601-.561c.323-.305.578-.505.763-.599a.92.92 0 0 1 .551-.104 1.61 1.61 0 0 1 .572.189c.215.111.479.275.794.495zm2.799-6.402c-1.158 1.089-1.726 2.282-1.703 3.581s.475 2.453 1.357 3.462c.987 1.076 2.111 1.667 3.37 1.772s2.422-.295 3.487-1.199c1.021-.919 1.579-2.016 1.675-3.29s-.378-2.529-1.423-3.764c-1.022-1.101-2.156-1.683-3.402-1.747s-2.362.328-3.35 1.175zm.204.645c.662-.573 1.472-.743 2.428-.51s1.938.906 2.946 2.017c.886 1.033 1.365 1.97 1.438 2.808s-.169 1.503-.725 1.993c-.739.611-1.604.771-2.596.482s-1.932-.929-2.822-1.919c-.841-.983-1.306-1.911-1.394-2.784s.15-1.565.712-2.076z"/><g transform="matrix(.249985 0 0 .249985 66.925512 746.664633)"><g class="B L"><path d="M533.25 785.112c0 146.907-119.092 266-266 266s-266-119.093-266-266 119.092-266 266-266 266 119.092 266 266z" class="H"/><path d="M521.25 785.112c0 140.28-113.719 254-254 254s-254-113.72-254-254 113.719-254 254-254 254 113.719 254 254z" class="E"/><path d="M470.25 785.112c0 112.113-90.886 203-203 203s-203-90.887-203-203 90.886-203 203-203 203 90.886 203 203z" class="H"/><path d="M458.25 785.112c0 105.486-85.513 191-191 191s-191-85.514-191-191 85.513-191 191-191 191 85.513 191 191z" fill="#78a5c8"/></g><path d="M267.25 784.612h-131.5v79.8c0 41.366 23.063 70.2 71.345 70.2 24.517 0 47.312 4.026 60.155 24z" fill="#007800"/><path d="M267.25 958.612c12.843-19.974 35.638-24 60.155-24 48.282 0 71.345-28.834 71.345-70.2v-79.8h-131.5z" fill="#989f8e"/><path d="M398.75 784.612v-131h-131.5v131z" class="H"/><path d="M267.25 653.612h-131.5v131h131.5z" fill="#c8102e"/><g class="B"><g class="C"><g class="Q"><path d="M398.75 784.612h-263"/><path d="M267.25 653.612v306"/></g><path d="M135.75 653.612v210.8c0 41.366 23.063 70.2 71.345 70.2 24.517 0 47.312 4.026 60.155 24 12.843-19.974 35.638-24 60.155-24 48.282 0 71.345-28.834 71.345-70.2v-210.8z" class="J L"/></g><g transform="matrix(.999848 -.017452 .017452 .999848 -13.907001 5.03805)" class="C K P"><path d="M168.319 970.74c-15.793-8.444-30.383-18.842-43.449-30.871m37.24 35.625a218.44 218.44 0 0 1-43.393-31.591m37.219 36.314a225.68 225.68 0 0 1-43.454-32.375m37.333 37.081a232.96 232.96 0 0 1-43.646-33.24m37.543 37.915a240.18 240.18 0 0 1-42.958-33.216m36.881 37.868a247.41 247.41 0 0 1-42.08-32.96"/><path d="M397.3 950.771c-35.771 28.025-80.835 44.733-129.8 44.733-26.681 0-52.203-4.961-75.695-14.01m202.152-19.3c-35.651 25.469-79.304 40.454-126.457 40.454-26.441 0-51.781-4.712-75.227-13.34m198.515-16.283c-35.406 23.246-77.768 36.768-123.288 36.768-26.217 0-51.386-4.485-74.782-12.73m195.071-13.695c-35.08 21.302-76.251 33.568-120.289 33.568-25.999 0-50.999-4.275-74.336-12.161m191.69-11.412c-34.671 19.557-74.71 30.716-117.354 30.716-25.779 0-50.606-4.08-73.87-11.624m188.412-9.424c-34.219 18.003-73.191 28.191-114.542 28.191-25.574 0-50.237-3.897-73.429-11.13"/></g><path d="M202.355 1005.865a6.5 6.5 0 0 1-8.189 4.172 6.5 6.5 0 0 1-4.172-8.188 6.5 6.5 0 0 1 8.189-4.172 6.5 6.5 0 0 1 4.172 8.189zm-51.476-22.256a6.5 6.5 0 0 1-11.023-6.89 6.5 6.5 0 0 1 11.023 6.89z" class="E Q"/></g><path d="M53.435 672.204l-3.11 6.582 9.645 7.3 2.523 1.8 2.494 1.72-.068.145-2.906-.848-2.999-.792-11.799-2.744-3.162 6.691 21.597 15.337 2.41-5.099-10.261-6.84-7.006-4.461.068-.145 4.112 1.081 4.004 1.029 12.244 2.645 2.136-4.52-9.834-7.744-6.8-4.895.068-.145 7.911 2.544L76.5 684.43l2.58-5.461zM40.19 702.61l-1.953 5.589 24.62 8.603 1.953-5.589zm-4.882 14.229l-1.358 5.474 8.968 2.225 4.72.887 4.625.648-.039.155-6.13 1.117-14.255 3.47-1.454 5.862 25.313 6.279 1.348-5.435-8.929-2.215-4.803-.908-4.62-.646.039-.155 6.216-1.137 14.216-3.48 1.454-5.862zm-6.549 28.834l-.945 7.662c-.486 3.844.202 7.033 2.064 9.57s5.007 4.105 9.435 4.705c4.43.499 7.824-.278 10.182-2.331s3.773-5.09 4.247-9.108l.901-7.305zm3.999 6.458l16.435 2.027-.137 1.112c-.224 2.223-1.018 3.922-2.382 5.097s-3.572 1.591-6.623 1.249c-3.053-.41-5.133-1.355-6.24-2.835s-1.504-3.326-1.191-5.537zm-7.089 24.106l.06 7.28 11.86 2.383 3.054.525 2.994.465.001.16-2.986.5-3.045.59-11.818 2.657.061 7.4 26.117 4.425-.046-5.64-12.214-1.7-8.248-.972-.001-.16 4.173-.814 4.053-.813 12.176-2.94-.041-5-12.222-2.7-8.252-1.452-.001-.16 8.231-1.148 12.185-1.9-.05-6.04zm12.576 37.145l2.464.313 4.245.5 4.352.397.021.159-4.065 1.618-3.976 1.606-2.293.955zm-9.58 9.768l.834 6.184 24.75-11.612-.941-6.977-26.942-4.641.802 5.946 6.358.757 1.069 7.928zm24.24 12.317l.728 2.91c.391 1.496.431 2.7.121 3.614s-1.08 1.526-2.303 1.839c-1.245.305-2.282.144-3.111-.485s-1.432-1.692-1.809-3.191l-.728-2.91zm-17.169 19.551l8.701-8.238c.937 1.209 2.109 2.069 3.516 2.579s3.042.542 4.905.097c2.941-.813 4.766-2.29 5.473-4.431s.693-4.58-.042-7.318l-2.28-9.12-25.3 6.329 1.437 5.743 9.12-2.28.777 3.104-7.906 7.132zm2.166 6.562l2.734 7.22c1.361 3.627 3.456 6.13 6.285 7.506s6.343 1.299 10.54-.232c4.153-1.622 6.794-3.891 7.923-6.806s.967-6.261-.486-10.038l-2.606-6.883zm6.548 3.851l15.487-5.864.397 1.047c.838 2.071.927 3.944.267 5.619s-2.419 3.072-5.278 4.19c-2.892 1.059-5.173 1.192-6.842.399s-2.88-2.242-3.634-4.345zm446.18 11.676l2.188-5.501-24.232-9.641-2.188 5.501zm1.776-13.378c1.584-.944 2.923-2.13 4.016-3.557s1.891-2.965 2.393-4.614c.843-3.006.77-5.544-.217-7.616s-2.543-3.441-4.668-4.108c-1.751-.513-3.303-.498-4.654.045s-2.558 1.489-3.62 2.836l-2.266 2.782c-.75.99-1.437 1.775-2.059 2.359s-1.306.775-2.05.574c-.71-.229-1.175-.688-1.396-1.375s-.187-1.516.102-2.488c.303-.984.753-1.841 1.351-2.574s1.338-1.408 2.22-2.028l-2.7-3.913a11.7 11.7 0 0 0-3.587 3 12.12 12.12 0 0 0-2.145 4.036c-.748 2.646-.672 4.991.226 7.034s2.4 3.41 4.503 4.1c1.825.5 3.442.428 4.853-.22s2.575-1.57 3.494-2.764l2.354-2.797c.763-.974 1.445-1.72 2.043-2.238a2.07 2.07 0 0 1 2.034-.454c.754.228 1.255.695 1.503 1.402s.198 1.644-.149 2.813c-.331 1.045-.895 2.031-1.692 2.956a12.21 12.21 0 0 1-2.77 2.378zm10.461-24.898l3.107-15.899-4.868-.95-1.972 10.089-20.728-4.051-1.135 5.81zm-6.133-29.701l-2.332-.855-4.027-1.435-4.154-1.356.014-.159 4.323-.672 4.234-.68 2.448-.42zm11.516-7.388l.565-6.214-26.715 5.806-.637 7.01 25.231 10.526.543-5.975-6.03-2.154.724-7.967zm.669-11.928l-.127-5.638-9.238.209-4.788.383-4.633.59-.004-.16 5.62-2.687 12.843-7.092-.136-6.038-26.073.589.126 5.599 9.198-.208 4.872-.385 4.628-.59.004.16-5.7 2.729-12.803 7.091.136 6.038zm-1.237-29.542l-1.09-7.643c-.536-3.837-2.033-6.736-4.493-8.697s-5.905-2.653-10.337-2.076c-4.407.676-7.48 2.313-9.219 4.911s-2.312 5.899-1.719 9.902l1.039 7.286zm-5.548-5.188l-16.394 2.339-.158-1.109c-.365-2.204-.043-4.051.967-5.542s3.032-2.47 6.066-2.936c3.054-.402 5.308-.033 6.764 1.106s2.321 2.817 2.597 5.034zm-1.802-20.381c.861-1.631 1.386-3.34 1.576-5.13s.07-3.516-.36-5.185c-.846-3-2.23-5.134-4.152-6.389s-3.964-1.613-6.124-1.075c-1.762.474-3.08 1.295-3.949 2.462s-1.408 2.603-1.613 4.306l-.485 3.555c-.126 1.235-.302 2.264-.529 3.086s-.711 1.34-1.451 1.558c-.725.174-1.361.025-1.908-.447s-.949-1.197-1.209-2.177c-.254-.997-.316-1.964-.187-2.9s.408-1.899.839-2.887l-4.343-1.934a11.7 11.7 0 0 0-1.498 4.431 12.12 12.12 0 0 0 .271 4.562c.74 2.648 2.026 4.61 3.857 5.887s3.824 1.661 5.98 1.154c1.819-.52 3.162-1.427 4.028-2.715s1.381-2.681 1.542-4.179l.553-3.614c.144-1.229.337-2.221.578-2.975a2.07 2.07 0 0 1 1.5-1.447c.762-.198 1.433-.06 2.013.414s1.026 1.3 1.338 2.479c.262 1.065.294 2.2.096 3.404s-.573 2.362-1.126 3.473zm-26.648-39.825c.021 1.063.359 1.937 1.015 2.62s1.504 1.037 2.545 1.06c1.041-.023 1.89-.377 2.545-1.06s.994-1.557 1.015-2.62c-.021-1.082-.359-1.967-1.015-2.655s-1.504-1.042-2.545-1.065c-1.041.023-1.89.378-2.545 1.065s-.994 1.572-1.015 2.655zm-405.707-26.71c.017.877.296 1.598.837 2.161s1.241.855 2.1.874c.859-.019 1.559-.31 2.1-.874s.82-1.284.837-2.161c-.017-.893-.296-1.623-.837-2.19s-1.241-.86-2.1-.879c-.859.019-1.559.31-2.1.879s-.82 1.297-.837 2.19zm7.338-7.105c4.483 3.164 8.736 4.39 12.759 3.677s7.375-2.882 10.056-6.506c1.334-1.874 2.254-3.804 2.762-5.789s.69-3.776.546-5.371l-12.082-8.89-7.082 9.625 4.833 3.556 3.2-4.349 4.511 3.319c.018.525-.086 1.085-.312 1.679a7.17 7.17 0 0 1-.927 1.692c-1.84 2.462-3.953 3.766-6.338 3.911s-4.936-.783-7.652-2.782c-2.633-1.994-4.223-4.168-4.77-6.52s-.077-4.562 1.41-6.629c.82-1.1 1.675-1.89 2.567-2.371s1.879-.817 2.962-1.01l-1.265-5.959c-1.569.209-3.185.747-4.85 1.615s-3.194 2.215-4.588 4.042c-2.661 3.68-3.693 7.614-3.098 11.804s3.049 7.942 7.36 11.258zm42.826-25.806c3.135-3.182 4.599-6.768 4.391-10.758s-2.182-7.913-5.922-11.767c-3.81-3.736-7.682-5.691-11.616-5.865s-7.497 1.3-10.689 4.426c-3.13 3.157-4.623 6.704-4.483 10.639s2.074 7.826 5.802 11.674c3.836 3.758 7.752 5.748 11.748 5.971s7.585-1.217 10.768-4.32zm-4.478-4.5c-1.605 1.545-3.532 2.101-5.781 1.668s-4.551-1.813-6.905-4.142c-2.292-2.34-3.62-4.612-3.986-6.808s.232-4.089 1.792-5.679c1.614-1.567 3.514-2.158 5.701-1.775s4.445 1.729 6.773 4.035c2.318 2.365 3.691 4.669 4.12 6.914s-.144 4.173-1.712 5.785zm23.788-13.334l7.106-5.275-11.524-32.046-6.062 4.501 5.969 14.499 2.075 4.944 2.067 4.996-.161.12-4.185-3.424-4.132-3.416-12.232-9.849-6.263 4.65zm17.825-12.631l18.283-10.228-3.027-5.41-11.825 6.615-3.662-6.545 9.687-5.419-3.003-5.367-9.687 5.419-3.198-5.716 11.389-6.371-3.027-5.41-17.847 9.984zm20.977-40.506l3.491-1.369c1.791-.725 3.278-.967 4.461-.728s2.065 1.093 2.648 2.56c.578 1.494.544 2.806-.103 3.934s-1.869 2.046-3.667 2.753l-3.491 1.369zm26.986 18.153l-11.605-9.467a9.61 9.61 0 0 0 2.634-4.772c.407-1.826.185-3.858-.665-6.097-1.479-3.516-3.602-5.542-6.369-6.076s-5.789-.126-9.066 1.224l-10.939 4.288 11.897 30.351 6.89-2.701-4.288-10.939 3.724-1.46 10.107 8.659zm4.487-1.259l6.876-1.558-2.552-11.264-1.66-5.77-1.874-5.529.195-.044 4.69 6.217 11.881 13.97 7.363-1.668-7.204-31.794-6.827 1.547 2.541 11.216 1.683 5.873 1.873 5.523-.195.044-4.761-6.304-11.87-13.921-7.363 1.668zm45.546-7.01c4.454-.336 7.915-2.075 10.382-5.218s3.559-7.396 3.276-12.759c-.414-5.32-2.046-9.339-4.895-12.057s-6.504-3.949-10.964-3.694c-4.433.322-7.891 2.01-10.373 5.067s-3.584 7.26-3.305 12.611c.419 5.354 2.061 9.428 4.925 12.224s6.515 4.071 10.953 3.826zm-.413-6.336c-2.225.109-4.042-.739-5.452-2.544s-2.236-4.358-2.479-7.661c-.186-3.272.305-5.855 1.473-7.75s2.863-2.928 5.084-3.1c2.246-.12 4.067.685 5.462 2.412s2.212 4.225 2.449 7.494c.192 3.306-.29 5.945-1.444 7.917s-2.852 3.049-5.094 3.232zm30.709-20.956l3.736.318c1.927.143 3.368.584 4.322 1.322s1.368 1.894 1.241 3.468c-.143 1.596-.754 2.756-1.833 3.482s-2.581 1.007-4.507.845l-3.736-.318zm16.162 28.224l-6.215-13.627c1.81-.618 3.3-1.656 4.474-3.113s1.874-3.377 2.103-5.761c.23-3.808-.777-6.563-3.021-8.268s-5.135-2.676-8.671-2.915l-11.707-.998-2.768 32.482 7.373.628.998-11.707 3.986.34 5.23 12.238zm71.571 6.608c-2.665 4.797-3.456 9.141-2.374 13.032s3.493 6.932 7.235 9.124c1.76 1.021 3.6 1.623 5.523 1.806s3.868-.066 5.837-.745l-1.26-5.883c-1.13.369-2.256.525-3.382.468s-2.271-.417-3.435-1.082c-2.069-1.231-3.252-2.996-3.55-5.293s.388-4.912 2.057-7.842c1.708-2.828 3.676-4.654 5.903-5.48s4.354-.665 6.38.482c.974.577 1.725 1.27 2.254 2.08s.95 1.744 1.266 2.806l5.789-1.894c-.376-1.563-1.068-3.111-2.076-4.644s-2.383-2.828-4.124-3.884c-3.755-2.143-7.656-2.679-11.705-1.609s-7.495 3.924-10.337 8.561zm17.921 29.501l5.784 4.615 8.482-10.63 8.793 7.017-8.482 10.63 5.745 4.584 20.333-25.482-5.745-4.584-7.828 9.81-8.793-7.017 7.828-9.81-5.784-4.615zm25.456 21.514l5.227 5.238 23.074-23.029-5.227-5.238zm10.415 10.519l13.274 16.208 4.797-3.928-8.585-10.483 5.802-4.752 7.033 8.588 4.758-3.897-7.033-8.588 5.067-4.15 8.268 10.096 4.797-3.928-12.957-15.821zm16.787 21.277l3.94 6.264 10.707-6.736 5.99 9.52 5.248-3.3-5.99-9.52 6.391-4.02 7.029 11.173 5.248-3.3-10.969-17.437zm-123.785-89.407l5.449 1.391 6.13-24.006-5.449-1.391zm13.971 3.663l5.034 1.834 3.005-8.247 1.314-4.369 1.08-4.304.143.052.438 5.902 1.841 13.815 5.391 1.964 8.482-23.278-4.998-1.821-2.992 8.212-1.34 4.445-1.076 4.299-.143-.052-.447-5.987-1.854-13.779-5.391-1.964z"/><g transform="matrix(.803857 -.594823 .594823 .803857 -3762.1684 2520.27)"><use href="#L" class="E"/><g class="C"><g class="B"><path d="M4020.643 1032.536c7.42.487 16.165.962 22.045.962 12.063 0 36.187-2 36.187-2m-52.434-5.22c5.85.338 11.85.603 16.247.603 12.063 0 36.187-2 36.187-2m-36.187-4.617c12.063 0 36.187-2 36.187-2m-26.707-4.617c12.152-.539 26.707-1.745 26.707-1.745m-20.727-4.872l20.727-1.441m-19.617-5.176l19.617-1.378m-52.111-5.824c5.747.329 11.608.585 15.924.585 12.063 0 36.187-2 36.187-2m-60.694-5.744c7.867.539 17.963 1.127 24.507 1.127 12.063 0 36.187-2 36.187-2m-60.95-5.762c7.903.543 18.148 1.145 24.763 1.145 12.063 0 36.187-2 36.187-2m-61.631-5.809c7.987.555 18.636 1.192 25.444 1.192 12.063 0 36.187-2 36.187-2" class="K P"/><use href="#L" stroke-width="13"/></g><path d="M4022.031 961.581c-7.354 0-15.531 6.671-15.531 16.531s1.729 12.649 1.687 25.625c.041 12.976-1.687 15.765-1.687 25.625s8.177 16.5 15.531 16.5 12.477-1.594 20.656-1.594 13.303 1.594 20.656 1.594 15.531-6.64 15.532-16.5-1.729-12.649-1.688-25.625c-.041-12.976 1.688-15.765 1.688-25.625s-8.178-16.531-15.531-16.531-12.477 1.593-20.656 1.593-13.303-1.593-20.656-1.593z" stroke="gold" stroke-width="8"/></g><g class="B H J"><path d="M4053.596 985.547c0 4.368-4.884 7.908-10.908 7.908s-10.908-3.541-10.908-7.908 4.884-7.908 10.908-7.908 10.908 3.541 10.908 7.908z" stroke-width="2.019"/><path d="M4042.687 955.046c-5.072 9.488-7.258 21.387-6.975 24.917.264 3.278 1.474 7.084 6.975 7.084s6.712-3.806 6.976-7.084c.286-3.529-1.903-15.429-6.976-24.917z" class="Q"/></g></g><g class="B"><g class="E"><path d="M233.25 971.157c5.039 29.65 10.887 82.02 2.75 112.968h62.5c-8.137-30.949-2.289-83.318 2.75-112.968-11.033 1.982-22.397 3.031-34 3.031s-22.967-1.049-34-3.031z" class="J L"/><path d="M274.75 1004.112a7.5 7.5 0 0 1-15 0 7.5 7.5 0 1 1 15 0z" class="Q"/></g><path d="M229.994 973.874c7.149 32.137 8.633 77.937 4.257 105.86-1.454 9.277 7.159 8.434 8.143 2.79 4.797-27.509 3.464-74.14-3.369-107.056-1.421-6.845-10.182-6.767-9.032-1.594zm74.511 0c-7.149 32.137-8.633 77.937-4.257 105.86 1.454 9.277-7.159 8.434-8.143 2.79-4.797-27.509-3.464-74.14 3.369-107.056 1.421-6.845 10.182-6.767 9.032-1.594z" class="H L"/><g class="H J L"><path d="M267.251 1048.157c-19.883 12.186-7.528 26.283-9.875 30.406-1.591-8.384-7.979-12.748-12.562-15.312-3.203 4.919-4.261 10.37-3.531 18.375-5.566-15.717-26.378-18.948-35.031-.5 29.869-.309 31.982 20.848 31.969 46.688-.01 18.457 16.685 28.714 29.031 19.719 12.347 8.995 29.041-1.262 29.031-19.719-.014-25.839 2.1-46.996 31.969-46.687-8.654-18.448-29.466-15.217-35.031.5.73-8.005-.328-13.456-3.531-18.375-4.584 2.564-10.971 6.929-12.562 15.313-2.347-4.123 10.008-18.22-9.875-30.406z"/><path d="M311.657 1058.22c10.786.094 21.443 4.987 23.219 15 3.745 21.12-19.425 22.835-21.969 9.906-1.682-8.551 8.586-10.478 10.406-3.75-.662-11.452-22.733-13.679-30.167 2.336.814-7.14-.145-12.03-2.083-15.993 4.59-5.005 12.619-7.57 20.594-7.5zm-88.813 0c-10.786.094-21.443 4.987-23.219 15-3.745 21.12 19.425 22.835 21.969 9.906 1.682-8.551-8.586-10.478-10.406-3.75.662-11.452 22.733-13.679 30.167 2.336-.814-7.14.145-12.03 2.083-15.993-4.59-5.005-12.619-7.57-20.594-7.5z"/></g><path d="M267.251 1090.751c-2.857 17.064.781 38.41-2.387 49.563h4.775c-3.168-11.153.469-32.498-2.388-49.562zm-18.335 1.289c6.767 12.776 4.419 21.6 3.513 30.512-.483 4.75 2.593 5.65 2.964.361.768-10.933-1.221-23.489-6.202-31.018-1.466-2.216-1.166-1.534-.276.146z" class="J"/><path d="M280.251 1152.639c0 7.18-5.82 13-13 13s-13-5.82-13-13 5.82-13 13-13 13 5.82 13 13z" class="H L"/><path d="M285.585 1092.04c-6.767 12.776-4.419 21.6-3.513 30.512.483 4.75-2.593 5.65-2.964.361-.769-10.933 1.221-23.489 6.202-31.018 1.466-2.216 1.166-1.534.276.146z" class="J"/></g></g><g transform="matrix(.249985 0 0 .249985 66.925419 746.664638)"><g transform="matrix(.549906 0 0 .580252 -295.67339 73.768499)"><g class="D"><path d="M1219.614 702.297l17.559-48.601 14.083-15.779 10.583-14.694 17.8-38.344 8.385-10.028 1.294-35.329s-12.298-25.061-31.33-34.06c-27.225-12.874-64.179-11.103-64.179-11.103s-8.536-21.396-24.193-29.722-33.042-10.333-51.289-10.333-50.995 15.463-68.704 20.008c-9.207 2.363-29.998 10.333-29.998 10.333s-20.792-7.97-29.998-10.333c-17.709-4.545-50.457-20.008-68.704-20.008s-35.064 1.705-51.289 10.333c-15.089 8.024-35.803 29.722-35.803 29.722s-23.717-3.051-40.379 6.45c-20.783 11.851-35.428 36.778-35.428 36.778l1.435 38.601 3.273 14.755 13.43 14.63 17.507 29.548 12.543 29.142 13.425 38.035z" fill="#e9001a"/><path d="M1288.194 573.44l-7.576 10.332-19.285 40.637-11.846 13.143-29.48 64.688-400.173-1.378-28.239-70.254-18.597-30.306-10.332-10.332-2.755-9.643v-6.89l-1.378-22.041s14.201-17.858 22.729-22.041c7.871-3.86 28.928-4.133 28.928-4.133s-17.07 8.02-21.352 14.464c-5.83 8.776-6.89 46.836-6.89 46.836s14.838-32.035 23.418-37.882c8.054-5.489 30.306-11.709 30.306-11.709s-15.256 14.463-17.908 22.729c-2.717 8.47-2.969 21.857 1.378 29.617 10.25 18.3 29.262 1.739 29.262 1.739l50.437-8.015S881.087 571.377 877 538.313c-1.172-9.482 4.109-23.827 11.709-29.617 5.922-4.511 12.41-7.775 21.393-8.302 9.575-.562 21.702 1.798 29.576 2.792 8.758 1.105 27.551 10.332 27.551 10.332s-22.689-.74-32.372 0c-8.13.622-20.95-1.483-26.862 4.133-4.437 4.214-5.886 14.112-4.133 19.974 2.764 9.239 22.729 22.729 22.729 22.729s7.585-16.517 13.775-20.663c7.879-5.276 21.517-5.886 30.995-6.199 11.04-.365 36.505 4.821 36.505 4.821s-28.69 2.962-38.571 9.643c-6.13 4.144-14.464 19.974-14.464 19.974l97.352.885c19.842.269 35.426 10.672 37.647 1.181 2.45-10.47 5.012-27.167-1.378-35.816-10.407-14.086-55.101-19.285-55.101-19.285s20.284-9.194 29.617-9.643c17.126-.823 55.79 12.398 55.79 12.398l-13.775-26.862s24.693 9.344 32.372 17.219c6.13 6.285 11.881 18.61 9.52 27.065l-11.619 41.608 90.091 21.006s9.448-7.248 9.813-11.849c1.25-15.791-14.29-35.822-26.862-45.459-6.127-4.697-24.796-6.89-24.796-6.89s28.994-11.845 40.637-7.576c13.514 4.954 40.637 57.168 40.637 57.168s4.506-23.064 1.14-32.089c-2.507-6.721-16.292-17.503-16.292-17.503s17.838-.312 23.418 4.133c9.126 7.269 15.153 35.816 15.153 35.816z" fill="#c40000"/><path d="M822.286 700.435l-33.063-79.557s-18.944-23.447-22.73-36.162c-2.395-8.043-.751-19.992 2.066-27.897 2.54-7.13 14.465-20.664 14.465-20.664s-9.067 16.094-10.332 23.764c-1.215 7.365-1.074 18.025 2.066 24.797 4.242 9.146 19.631 24.797 19.631 24.797s-2.421-24.872 0-35.13c1.115-4.722 4.157-10.713 7.232-14.465 2.241-2.733 9.299-7.232 9.299-7.232s-5.13 7.632-6.199 11.365c-1.454 5.074-2.072 12.389-1.033 17.564 3.193 15.902 23.764 48.561 23.764 48.561l152.914 19.631s-75.492-63.456-90.922-101.254c-2.697-6.607-3.41-17.036-1.033-23.764 2.34-6.626 15.498-17.564 15.498-17.564s-9.862 11.471-11.365 17.564c-1.64 6.648-1.331 16.785 2.066 22.73 6.06 10.606 33.063 23.764 33.063 23.764s7.75-17.866 13.432-23.764c3.283-3.407 8.879-6.977 13.432-8.266 2.982-.844 10.332 0 10.332 0s-7.611 1.349-10.332 3.1c-2.771 1.783-5.737 5.33-7.232 8.266-3.174 6.231-5.166 22.73-5.166 22.73l84.723 89.89 33.063 7.232s46.86-76.614 48.561-113.652c.463-10.086-3.198-24.884-10.332-32.029-8.519-8.532-38.228-12.398-38.228-12.398s32.673 2.425 44.428 9.299c5.689 3.327 7.939 17.448 14.465 16.531 5.767-.81 8.335-11.74 8.266-17.564-.066-5.544-8.266-16.531-8.266-16.531s11.232 7.375 13.432 12.398c1.616 3.691.891 9.5 0 13.432-1.748 7.707-8.618 16.354-11.365 23.764-4.13 11.14-7.645 26.656-10.332 38.229-5.5 23.685-15.498 79.557-15.498 79.557l113.652-5.166 35.13-81.623s-11.732-33.441-21.697-44.428c-3.179-3.504-13.432-8.266-13.432-8.266s11.586 1.33 15.498 4.133c18.169 13.018 41.328 61.992 41.328 61.992s8.803-31.225 6.199-44.428c-.833-4.225-7.233-12.398-7.233-12.398s9.273 5.422 11.365 9.299c2.813 5.211 2.403 13.719 2.066 19.631-.487 8.559-6.199 27.896-6.199 27.896l-10.332 26.863-10.171 12.478-33.224 63.979z" fill="#920000"/><path d="M776.458 514.28s4.299 2.258 9.824.062c6.563-2.608 15.064-9.846 23.047-11.408 11.874-2.324 20.673.575 22.178 2.266 4.606 5.173 6.622 15.083 11.455 20.045 4.908 5.04 20.045 12.17 20.045 12.17s-9.692-15.948-11.455-23.625c-1.202-5.233-4.974-19.921 0-17.898 51.897 21.108 29.807-19.158 39.837-24.575 8.571-4.629 9.853-8.617 19.584-9.073 12.804-.6 19.048 4.657 31.426 7.99 18.717 5.036 40.815 35.596 60.136 37.141 12.052.963 38.391-21.003 50.188-23.651 13.979-3.138 32.212-10.348 46.534-10.739 15.036-.41 35.276 3.412 49.398 8.591 10.755 3.944 29.222 8.491 32.932 19.33 1.124 3.283-4.295 10.739-4.295 10.739s18.287-7.003 26.489-8.591c12.259-2.373 41.523-2.864 41.523-2.864l.716-.716-52.977-6.443-17.182-25.057-27.92-12.17-32.216-2.148-25.057 7.159-71.591 23.625-80.182-27.92-31.5-2.864-28.636 6.443-23.625 14.318-20.045 20.045-27.685.858-17.607 7.719-13.338 11.241z" fill="#c40000"/><path d="M784.243 609.066l19.682-2.169c7.212-.797 19.663 3.842 29.193 2.784 15.13-1.68 34.44-15.5 50.438-17.305s56.023 17.319 66.805 16.256c43.982-4.337 35.204-23.758 58.227-23.636 10.049.053 26.602-13.793 35.472-3.383 29.69 34.844 87.384 28.834 119.379 13.954 16.046-7.462 49.179 27.294 73.066 8.646 13.99-10.921 31.672 3.132 31.672 3.132-23.623 18.456-37.588 41.859-53.74 64.142l-404.812 2.675z" fill="#920000"/></g><path d="M1219.614 702.297l17.559-48.601 13.356-17.126 11.31-13.347 17.8-38.344 8.385-10.028 1.294-35.329s-12.298-25.061-31.33-34.06c-27.225-12.874-64.179-11.103-64.179-11.103s-8.536-21.396-24.193-29.722-33.042-10.333-51.289-10.333-50.995 15.463-68.704 20.008c-9.207 2.363-29.998 10.333-29.998 10.333s-20.792-7.97-29.998-10.333c-17.709-4.545-50.457-20.008-68.704-20.008s-35.064 1.705-51.289 10.333c-15.089 8.024-35.803 29.722-35.803 29.722s-23.717-3.051-40.379 6.45c-20.783 11.851-35.428 36.778-35.428 36.778l1.435 38.601 3.273 14.755 13.43 14.63 17.507 29.548 12.543 29.142 13.425 38.035z" stroke-width="2.417" class="B C"/></g><path d="M267.25 416.027s-8.75 19.287-16.937 24.938c-5.407 3.731-14.031 6.235-20.594 6.531-7.417.335-15.33.186-22.094-2.875-7.207-3.261-16.437-17.906-16.437-17.906.134.027-8.96 22.913-20.656 25.5-6.973 1.542-14.898 1.503-21.406-1.437-11.717-5.294-27.344-33.437-27.344-33.437 7.44 16.827 15.052 40.288 18.969 57.969h126.5 126.5c3.916-17.681 11.529-41.141 18.969-57.969 0 0-15.627 28.143-27.344 33.438-6.508 2.941-14.433 2.98-21.406 1.438-11.697-2.587-20.79-25.473-20.656-25.5 0 0-9.231 14.645-16.437 17.906-6.764 3.061-14.677 3.21-22.094 2.875-6.563-.297-15.187-2.8-20.594-6.531-8.188-5.65-16.937-24.937-16.937-24.937z" class="B H R"/><g transform="matrix(1.167322 0 0 1.167322 -631.1036 30.491479)"><g transform="matrix(-1 0 0 1 1539.1702 0)"><use href="#M" class="H"/><use href="#M" class="B C W"/><g transform="matrix(.6655 0 0 .6655 -1154.352677 -232.75859)"><g class="D"><use href="#N" class="F"/><use href="#O" class="G"/><use href="#P" class="E"/></g><use href="#N" class="B C I"/></g><g transform="matrix(.6655 0 0 .6655 -1142.326477 -245.83779)"><g class="D"><use href="#N" class="F"/><use href="#O" class="G"/><use href="#P" class="E"/></g><use href="#N" class="B C I"/></g><g transform="matrix(.6655 0 0 .6655 -1048.634177 -294.23009)"><g class="D"><use href="#N" class="F"/><use href="#O" class="G"/><use href="#P" class="E"/></g><use href="#N" class="B C I"/></g><g transform="matrix(.6655 0 0 .6655 -1128.108723 -258.085688)"><g class="D"><use href="#N" class="F"/><use href="#O" class="G"/><use href="#P" class="E"/></g><use href="#N" class="B C I"/></g><g transform="matrix(.6655 0 0 .6655 -1113.509477 -268.85689)"><g class="D"><use href="#N" class="F"/><use href="#O" class="G"/><use href="#P" class="E"/></g><use href="#N" class="B C I"/></g><g transform="matrix(.6655 0 0 .6655 -1097.939777 -277.94719)"><g class="D"><use href="#N" class="F"/><use href="#O" class="G"/><use href="#P" class="E"/></g><use href="#N" class="B C I"/></g><g transform="matrix(.6655 0 0 .6655 -1066.295477 -290.37419)"><g class="D"><use href="#N" class="F"/><use href="#O" class="G"/><use href="#P" class="E"/></g><use href="#N" class="B C I"/></g><g transform="matrix(.6655 0 0 .6655 -1082.315777 -284.76849)"><g class="D"><use href="#N" class="F"/><use href="#O" class="G"/><use href="#P" class="E"/></g><use href="#N" class="B C I"/></g></g><use href="#M" class="H"/><use href="#M" class="B C W"/><g transform="matrix(.6655 0 0 .6655 -1154.352677 -232.75859)"><g class="D"><use href="#N" class="F"/><use href="#O" class="G"/><use href="#P" class="E"/></g><use href="#N" class="B C I"/></g><g transform="matrix(.6655 0 0 .6655 -1142.326477 -245.83779)"><g class="D"><use href="#N" class="F"/><use href="#O" class="G"/><use href="#P" class="E"/></g><use href="#N" class="B C I"/></g><g transform="matrix(.6655 0 0 .6655 -1048.634177 -294.23009)"><g class="D"><use href="#N" class="F"/><use href="#O" class="G"/><use href="#P" class="E"/></g><use href="#N" class="B C I"/></g><g transform="matrix(.6655 0 0 .6655 -1128.108723 -258.085688)"><g class="D"><use href="#N" class="F"/><use href="#O" class="G"/><use href="#P" class="E"/></g><use href="#N" class="B C I"/></g><g transform="matrix(.6655 0 0 .6655 -1113.509477 -268.85689)"><g class="D"><use href="#N" class="F"/><use href="#O" class="G"/><use href="#P" class="E"/></g><use href="#N" class="B C I"/></g><g transform="matrix(.6655 0 0 .6655 -1097.939777 -277.94719)"><g class="D"><use href="#N" class="F"/><use href="#O" class="G"/><use href="#P" class="E"/></g><use href="#N" class="B C I"/></g><g transform="matrix(.6655 0 0 .6655 -1066.295477 -290.37419)"><g class="D"><use href="#N" class="F"/><use href="#O" class="G"/><use href="#P" class="E"/></g><use href="#N" class="B C I"/></g><g transform="matrix(.6655 0 0 .6655 -1082.315777 -284.76849)"><g class="D"><use href="#N" class="F"/><use href="#O" class="G"/><use href="#P" class="E"/></g><use href="#N" class="B C I"/></g></g><path d="M247.484 257.959c2.201-2.786 4.829-4.855 6.96-7.688 2.238-2.976 3.946-6.737 4.824-10.536-3.891.97-7.652 2.678-10.628 4.916-2.833 2.131-4.902 4.759-7.688 6.96V215.93c2.786 2.201 4.855 4.829 7.688 6.96 2.976 2.238 6.737 3.946 10.628 4.916-.878-3.799-2.586-7.56-4.824-10.536-2.131-2.833-4.759-4.902-6.96-7.688h39.531c-2.201 2.786-4.829 4.855-6.96 7.688-2.238 2.976-3.946 6.737-4.824 10.536 3.891-.97 7.652-2.678 10.628-4.916 2.833-2.131 4.902-4.759 7.688-6.96v35.682c-2.786-2.201-4.855-4.829-7.688-6.96-2.976-2.238-6.737-3.946-10.628-4.916.878 3.799 2.586 7.56 4.824 10.536 2.131 2.833 4.759 4.902 6.96 7.688z" class="B H R"/><g transform="matrix(.934502 0 0 .934502 -2246.28775 -497.909107)"><g class="D"><use href="#N" class="F"/><use href="#O" class="G"/><use href="#P" class="E"/></g><use href="#N" stroke-width="1.461" class="B C"/></g><g transform="matrix(1.094486 0 0 1.094486 48.14721 225.236941)"><use href="#Q" class="H"/><use href="#Q" stroke-width="1.248" class="B C"/><path d="M195.844 28.438V45.5h-17.062v8.688h42.813V45.5H204.5V28.438z" class="H"/><path d="M195.844 28.437V45.5h-17.062v8.688h42.813V45.5H204.5V28.437z" stroke-width="1.247" class="B C"/></g><g transform="matrix(1.160505 0 0 1.160505 40.967019 257.426479)"><path d="M188.712 34.934h12.55c3.538 0 6.386 2.848 6.386 6.386v58.948c0 3.538-2.848 6.386-6.386 6.386h-12.55c-3.538 0-6.386-2.848-6.386-6.386V41.32c0-3.538 2.848-6.386 6.386-6.386z" class="D H"/><rect height="71.72" ry="6.386" width="25.322" x="182.326" y="34.934" class="B C U"/></g><g transform="matrix(1.160505 0 0 1.160505 -311.099381 -69.161344)"><use href="#R" class="D H"/><use href="#R" stroke-width="1.193" class="B C"/><g transform="matrix(1.146997 0 0 .906733 232.09304 -537.1598)"><rect fill="#f6e078" height="79.256" ry="3.8" width="7.041" x="240.494" y="941.218" class="D"/><path d="M244.015 941.218c1.95 0 3.52 1.695 3.52 3.8v71.656c0 2.105-1.57 3.8-3.52 3.8s-3.52-1.695-3.52-3.8v-71.656c0-2.105 1.57-3.8 3.52-3.8z" stroke-width="1.154" class="B H"/></g></g><g transform="matrix(.772316 0 0 .772316 -1810.049044 -304.953864)"><g class="D"><use href="#N" class="F"/><use href="#O" class="G"/><use href="#P" class="E"/></g><use href="#N" class="B C N"/></g><g transform="matrix(.772316 0 0 .772316 -1810.049044 -288.582974)"><g class="D"><use href="#N" class="F"/><use href="#O" class="G"/><use href="#P" class="E"/></g><use href="#N" class="B C N"/></g><g transform="matrix(.772316 0 0 .772316 -1810.049044 -272.187829)"><g class="D"><use href="#N" class="F"/><use href="#O" class="G"/><use href="#P" class="E"/></g><use href="#N" class="B C N"/></g><g transform="matrix(.772316 0 0 .772316 -1810.049044 -255.7928)"><g class="D"><use href="#N" class="F"/><use href="#O" class="G"/><use href="#P" class="E"/></g><use href="#N" class="B C N"/></g><g transform="matrix(.772316 0 0 .772316 -1810.049044 -239.397655)"><g class="D"><use href="#N" class="F"/><use href="#O" class="G"/><use href="#P" class="E"/></g><use href="#N" class="B C N"/></g><g class="B H"><path d="M267.25 369.527c-9.823 0-19.525.448-29.219 2.063 5.265 6.073 9.527 12.583 13.875 18.656 3.136 4.38 3.535 7.057 4.75 11.438-4.253-1.38-6.434-2.747-10.687-6.28-5.051-4.197-8.73-9.178-13.781-14.75l.344 54.438c3.545-4.012 7.299-7.8 11.594-11.062 3.8-2.887 8.026-5.35 12.875-7.187 0 0 .848 5.44-.156 8.625-3.72 11.793-16.638 17.593-29.844 18.156-10.167.434-23.662-2.773-26.687-12.219-.575-1.796-1.769-3.338-1.687-5.28l.28-6.312c.063-1.504 1.125-3.968 2.625-4.094 1.429-.12 2.448 1.032 3.188 2.063 1.671 2.328 1.1 5.64 2.063 8.344 1.061 2.98 2.865 5.261 5.656 6.75 2.325 1.241 7.719 1.188 7.719 1.188l-2.156-6.5c-1.538-4.59 1.268-8.314 2.031-13.094.492-3.077.637-6.478-.656-9.312-1.399-3.067-3.999-5.977-7.156-7.156-1.152-.43-2.501-.391-3.719-.219-1.722.244-6.781 2.313-6.781 2.313s.165-6.021-.28-8.875c-.541-3.461-2.469-7.729-4.344-10.687-3.113-4.913-7.894-9.36-8.375-9.844-.501.496-4.893 5.101-7.656 10.219-1.664 3.082-4.607 9.541-4.906 13.031-.247 2.878.719 7.625.719 7.625s-3.421-1.096-5.156-1.219c-1.227-.087-2.568-.009-3.687.5-3.068 1.396-5.443 4.468-6.625 7.625-1.093 2.918-.704 6.309 0 9.344 1.094 4.715 5.62 8.346 4.406 13.031l-1.719 6.656s5.392-.351 7.625-1.75c2.681-1.68 4.305-4.08 5.156-7.125.772-2.764-.766-5.828 0-8.594.383-1.382.785-3.707 2.219-3.687 1.505.021 3.361 2.15 3.375 3.656l.063 7.031c.707 13.492-8.767 22.793-22.28 22.531-9.895-.192-19.34-5.851-24.781-24.812 20.386 3.864 17.206 5.389 24.969 6.75l-12.781-45.031c-3.789 11.126-7.373 22.322-18.375 30.563-1.954-12.08 3.58-26.681 8.906-41.687-13.095.62-24.901 2.54-35.031 6.125 6.631 11.45 12.155 22.599 17.188 33.469 1.765 3.813 4.436 6.852 6.031 10.625 6.811 25.535 14.602 31.057 30.531 33.063s30.832-7.323 34.28-24.062c3.615 11.483 20.087 17.681 33.125 17.656 17.454-.033 35.692-6.992 42.938-25 7.246 18.008 25.484 24.967 42.938 25 13.038.024 29.51-6.174 33.125-17.656 3.449 16.739 18.352 26.068 34.28 24.063s23.721-7.528 30.531-33.062c1.595-3.773 4.266-6.812 6.031-10.625 5.032-10.87 10.557-22.019 17.188-33.469-10.131-3.585-21.936-5.504-35.031-6.125 5.326 15.006 10.861 29.608 8.906 41.688-11.002-8.24-14.586-19.437-18.375-30.562l-12.781 45.031c7.762-1.361 4.583-2.886 24.969-6.75-5.441 18.961-14.887 24.62-24.781 24.813-13.514.262-22.99-9.039-22.28-22.531l.063-7.031c.014-1.505 1.87-3.635 3.375-3.656 1.434-.02 1.836 2.305 2.219 3.688.766 2.766-.772 5.83 0 8.594.851 3.047 2.475 5.445 5.156 7.125 2.233 1.399 7.625 1.75 7.625 1.75l-1.719-6.656c-1.215-4.685 3.312-8.316 4.406-13.031.704-3.035 1.093-6.426 0-9.344-1.182-3.157-3.557-6.229-6.625-7.625-1.12-.509-2.461-.587-3.687-.5-1.735.123-5.156 1.219-5.156 1.219s.965-4.747.719-7.625c-.299-3.49-3.242-9.949-4.906-13.031-2.764-5.12-7.155-9.723-7.656-10.219-.481.484-5.262 4.931-8.375 9.844-1.875 2.959-3.803 7.227-4.344 10.688-.446 2.854-.28 8.875-.28 8.875s-5.059-2.069-6.781-2.312c-1.218-.172-2.567-.212-3.719.219-3.158 1.18-5.758 4.089-7.156 7.156-1.293 2.835-1.148 6.236-.656 9.313.764 4.78 3.569 8.504 2.031 13.094l-2.156 6.5s5.394.053 7.719-1.187c2.791-1.489 4.595-3.769 5.656-6.75.963-2.704.392-6.016 2.063-8.344.739-1.03 1.758-2.182 3.188-2.062 1.5.126 2.562 2.59 2.625 4.094l.28 6.313c.082 1.943-1.112 3.485-1.687 5.28-3.025 9.446-16.52 12.653-26.687 12.219-13.206-.563-26.123-6.363-29.844-18.156-1.005-3.185-.156-8.625-.156-8.625 4.849 1.838 9.075 4.3 12.875 7.188 4.295 3.263 8.049 7.051 11.594 11.063l.344-54.437c-5.051 5.572-8.73 10.553-13.781 14.75-4.253 3.534-6.434 4.901-10.687 6.28 1.215-4.38 1.614-7.057 4.75-11.437 4.348-6.073 8.61-12.583 13.875-18.656-9.694-1.614-19.395-2.062-29.219-2.062z" class="X"/><path d="M267.25 454.652c-82.038 0-127.5 24.844-127.5 24.844l8.125 39.28s58.448-23.25 119.375-23.25 119.375 23.25 119.375 23.25l8.125-39.28s-45.462-24.844-127.5-24.844z" class="R"/></g><g transform="translate(0 -1.223)"><g class="C K"><use href="#S" class="B Y"/><use href="#S" stroke="gold" class="Z"/><use href="#T" class="B Y"/><use href="#T" stroke="gold" class="Z"/></g><g transform="matrix(1.160505 0 0 1.160505 -309.84582 59.457568)"><g transform="matrix(.505536 0 0 .386916 -961.10956 29.49087)"><g class="D H"><path d="M2840.095 823.565h89.493v59.169h-89.493z"/><path d="M2840.095 823.565h89.493l-89.493 59.169zm89.492 12.486v46.683h-71.619z"/></g><path d="M2843.101 823.565h83.48a3 3 0 0 1 3.006 3.006v53.156a3 3 0 0 1-3.006 3.006h-83.48a3 3 0 0 1-3.006-3.006v-53.156a3 3 0 0 1 3.006-3.006z" class="B C O"/></g><g transform="matrix(.505536 0 0 .386916 -961.10957 29.490878)" class="O"><g class="D"><g stroke="#a0892c"><use href="#U" fill="#2d6afa"/><path d="M2918.459 873.455a5.16 5.16 0 0 1-3.664 1.513h-59.908a5.16 5.16 0 0 1-5.177-5.177v-33.282a5.16 5.16 0 0 1 1.513-3.664c.936-.936 68.172 39.675 67.237 40.611z" fill="#2b96f6"/></g><path d="M2918.459 873.455a5.16 5.16 0 0 1-3.664 1.513h-59.908a5.16 5.16 0 0 1-5.177-5.177v-33.282a5.16 5.16 0 0 1 1.513-3.664c.475-.475 18.04 9.759 35.096 20.073 16.539 10.001 32.601 20.077 32.14 20.538z" fill="#5183fb" stroke="#d7e3f4"/><g stroke="#afc6e9"><path d="M2918.459 832.844a5.16 5.16 0 0 1 1.513 3.664v33.282a5.16 5.16 0 0 1-5.177 5.177h-59.908a5.16 5.16 0 0 1-3.664-1.513c-.936-.936 66.3-41.547 67.237-40.611z" fill="#1353b4"/><path d="M2918.459 873.455a5.16 5.16 0 0 1-3.664 1.513h-59.908a5.16 5.16 0 0 1-3.664-1.513c-.475-.475 16.6-11.163 33.661-21.457 0 0 34.512 20.52 33.576 21.457z" fill="#134fab"/></g></g><use href="#U" class="B C"/><path d="M2865.158 841.292h39.367v22.304h-39.367z" fill="#135ecb" stroke="#afc6e9" class="D"/></g></g><g transform="matrix(-.93485 .234484 .253939 1.012413 651.50739 51.869076)"><use href="#V" class="B H S"/><use href="#W" fill="#ff0a3e"/><use href="#X" fill="#bc0028"/><g class="C S"><use href="#Y" stroke="#f4d7d7"/><use href="#Z" class="B"/></g></g><g transform="matrix(1.003238 -.12221 .112991 .89792 -394.37293 280.80728)"><g class="D"><use href="#a" transform="matrix(.995825 -.091287 .138425 .990373 0 0)" class="B H T"/><use href="#b" fill="#306947"/><use href="#c" fill="#36a464"/></g><use href="#d" transform="matrix(.995825 -.091287 .138425 .990373 0 0)" class="B C T"/><use href="#e" fill="#abe8c4" transform="matrix(.770124 -.070597 .14442 .997648 -131.26059 -73.48074)" class="D"/></g><g transform="matrix(.423004 0 0 .423004 -968.585805 152.429977)"><g class="D"><use href="#N" class="F"/><use href="#O" class="G"/><use href="#P" class="E"/></g><use href="#N" class="B C M"/></g><g transform="matrix(.423004 0 0 .423004 -964.161805 165.895977)"><g class="D"><use href="#N" class="F"/><use href="#O" class="G"/><use href="#P" class="E"/></g><use href="#N" class="B C M"/></g><g transform="matrix(.423004 0 0 .423004 -909.690805 140.178977)"><g class="D"><use href="#N" class="F"/><use href="#O" class="G"/><use href="#P" class="E"/></g><use href="#N" class="B C M"/></g><g transform="matrix(.423004 0 0 .423004 -907.590805 154.196977)"><g class="D"><use href="#N" class="F"/><use href="#O" class="G"/><use href="#P" class="E"/></g><use href="#N" class="B C M"/></g><g transform="matrix(-1 0 0 1 534.5 0)"><g transform="matrix(1.003238 -.12221 .112991 .89792 -394.37293 280.80728)"><g class="D"><use href="#a" transform="matrix(.995825 -.091287 .138425 .990373 0 0)" class="B H T"/><use href="#b" fill="#306947"/><use href="#c" fill="#36a464"/></g><use href="#d" transform="matrix(.995825 -.091287 .138425 .990373 0 0)" class="B C T"/><use href="#e" fill="#abe8c4" transform="matrix(.770124 -.070597 .14442 .997648 -131.26059 -73.48074)" class="D"/></g><g transform="matrix(.423004 0 0 .423004 -968.585805 152.429977)"><g class="D"><use href="#N" class="F"/><use href="#O" class="G"/><use href="#P" class="E"/></g><use href="#N" class="B C M"/></g><g transform="matrix(.423004 0 0 .423004 -964.161805 165.895977)"><g class="D"><use href="#N" class="F"/><use href="#O" class="G"/><use href="#P" class="E"/></g><use href="#N" class="B C M"/></g><g transform="matrix(.423004 0 0 .423004 -909.690805 140.178977)"><g class="D"><use href="#N" class="F"/><use href="#O" class="G"/><use href="#P" class="E"/></g><use href="#N" class="B C M"/></g><g transform="matrix(.423004 0 0 .423004 -907.590805 154.196977)"><g class="D"><use href="#N" class="F"/><use href="#O" class="G"/><use href="#P" class="E"/></g><use href="#N" class="B C M"/></g></g><g transform="matrix(.93485 .234484 -.253939 1.012413 -117.00739 51.869076)"><use href="#V" class="B H S"/><use href="#W" fill="#ff0a3e"/><use href="#X" fill="#bc0028"/><g class="C S"><use href="#Y" stroke="#f4d7d7"/><use href="#Z" class="B"/></g></g><path d="M105.207 386.355c7.93-3.84 18.315-5.272 27.789-5.551-4.15 9.788-8.262 22.473-7.125 35.756m6.334 2.586c6.636-4.187 11.824-12.417 15.692-19.772 1.726 8.771 4.067 18.479 7.955 27.986-9.388-4.501-17.144-5.431-23.641-3.312m54.04.678c.424-6.89-4.092-12.135-9.347-10.31-3.693 1.28-4.005 4.882-3.059 10.113 1.203 6.651-2.914 9.08-5.921 10.141 1.036-3.788 2.243-5.974-.623-10.396-3.853-5.944-5.196-12.649-.765-17.08 3.955-3.955 9.36-2.08 13.946 0-3.847-15.083 2.931-22.199 8.771-29.944 8.923 9.929 10.109 17.451 9.544 29.285 4.447-2.81 10.035-6.306 14.662-3.06 3.913 2.745 4.652 8.941 3.092 14.293-1.856 6.369-2.891 9.374-.699 14.28-3.597-1.13-6.148-3.784-6.398-8.024-.34-5.816-3.734-12.015-9.297-10.525-3.832 1.027-5.284 7.543-5.172 11.684m66.759-11.861c-9.717 1.517-18.141 7.927-25.935 14.862l-.28-37.382c7.875 8.912 11.906 14.102 26.216 16.969m5.506-33.585c-8.374.105-14.02.452-21.853 1.549 6.28 9.146 14.85 19.308 16.002 30.628h5.85 5.85c1.152-11.319 9.723-21.482 16.002-30.628-7.833-1.096-13.479-1.444-21.853-1.549zm162.043 12.17c-7.93-3.84-18.315-5.272-27.789-5.551 4.15 9.788 8.262 22.473 7.125 35.756m-6.334 2.586c-6.636-4.187-11.824-12.417-15.692-19.772-1.726 8.771-4.067 18.479-7.955 27.986 9.388-4.501 17.144-5.431 23.641-3.312m-54.04.678c-.424-6.89 4.092-12.135 9.347-10.31 3.693 1.28 4.005 4.882 3.059 10.113-1.203 6.651 2.914 9.08 5.921 10.141-1.036-3.788-2.243-5.974.623-10.396 3.853-5.944 5.196-12.649.765-17.08-3.955-3.955-9.36-2.08-13.946 0 3.847-15.083-2.931-22.199-8.771-29.944-8.923 9.929-10.109 17.451-9.544 29.285-4.447-2.81-10.035-6.306-14.662-3.06-3.913 2.745-4.652 8.941-3.092 14.293 1.856 6.369 2.891 9.374.699 14.28 3.597-1.13 6.148-3.784 6.398-8.024.34-5.816 3.734-12.015 9.297-10.525 3.832 1.027 5.284 7.543 5.172 11.684m-66.759-11.861c9.717 1.517 18.141 7.927 25.935 14.862l.28-37.382c-7.875 8.912-11.906 14.102-26.216 16.969" class="B C X"/><g transform="matrix(.849547 0 0 .849547 -2158.761653 -242.572446)"><g class="D"><use href="#N" class="F"/><use href="#O" class="G"/><use href="#P" class="E"/></g><use href="#N" class="B C V"/></g><g transform="matrix(-.849547 0 0 .849547 2693.261653 -242.572446)"><g class="D"><use href="#N" class="F"/><use href="#O" class="G"/><use href="#P" class="E"/></g><use href="#N" class="B C V"/></g><g transform="matrix(.849547 0 0 .849547 -2017.778893 -255.029846)"><g class="D"><use href="#N" class="F"/><use href="#O" class="G"/><use href="#P" class="E"/></g><use href="#N" class="B C V"/></g></g><g transform="matrix(1.1588 -.062881 .062881 1.1588 514.32648 -863.40282)"><use href="#f" class="H"/><use href="#f" class="B C U"/></g><g transform="matrix(-1.1588 -.062881 -.062881 1.1588 20.17352 -863.40282)"><use href="#f" class="H"/><use href="#f" class="B C U"/></g><use href="#g" class="E"/><path d="M267.25 505.688c-69.06.732-114.437 23.834-127.312 31.28 1.256 5.516 7.23 9.844 14.906 6.188 5.881-2.8 12.346-5.488 19.219-8l3.625-1.28 1.844-.656 4.5-1.5c.083-.026.167-.036.25-.062l.656-.219c.388-.122.798-.223 1.188-.344l5.563-1.687 6.25-1.719 1.906-.5 5.313-1.28.781-.187c.074-.017.145-.045.219-.062l6.875-1.5 3.688-.719 7.5-1.344 1.5-.25 1.938-.28.781-.125 3.406-.469 3.875-.5 3.875-.437 2.438-.25 1.469-.125 2.688-.25c.331-.027.669-.037 1-.062l1.094-.094 2.656-.187 1.438-.094 2.938-.156 3.969-.156c2.65-.084 5.302-.125 7.969-.125l4 .031h.25l3.719.094 3.969.156 2.938.156 1.438.094 2.656.188 1.094.094 7.594.688 3.875.438 3.875.5 3.406.469.781.125 3.438.531 7.5 1.344 3.688.719 6.875 1.5c.073.017.146.046.219.063l.781.188 5.313 1.28 1.188.313c.01.003.022-.003.031 0l.688.188 6.25 1.719 5.563 1.688 2.094.625 4.5 1.5 1.844.656 3.625 1.28c6.873 2.512 13.338 5.199 19.219 8 7.676 3.656 13.65-.672 14.906-6.187-12.875-7.447-58.253-30.549-127.312-31.28z" stroke="#ececec" class="F"/><path d="M267.25 513.188c-64.052 0-110.776 22.404-123.781 29.375 2.735 2.105 6.752 2.796 11.375.594 5.881-2.8 12.346-5.488 19.219-8l3.625-1.28 1.844-.656 4.5-1.5c.083-.026.167-.036.25-.062l.656-.219c.388-.122.798-.223 1.188-.344l5.563-1.687 6.25-1.719 1.906-.5 5.313-1.28.781-.187c.074-.017.145-.045.219-.062l6.875-1.5 3.688-.719 7.5-1.344 1.5-.25 1.938-.28.781-.125 3.406-.469 3.875-.5 3.875-.437 2.438-.25 1.469-.125 2.688-.25c.331-.027.669-.037 1-.062l1.094-.094 2.656-.187 1.438-.094 2.938-.156 3.969-.156c2.65-.084 5.302-.125 7.969-.125l4 .031h.25l3.719.094 3.969.156 2.938.156 1.438.094.563.031 3.188.25 7.594.688 3.875.438 3.875.5 3.406.469.781.125 3.438.531 7.5 1.344 3.688.719 6.875 1.5c.073.017.146.046.219.063l.781.188 5.313 1.28 1.188.313c.01.003.022-.003.031 0l.688.188 6.25 1.719 5.563 1.688 2.094.625 4.5 1.5 1.844.656 3.625 1.28c6.873 2.512 13.338 5.199 19.219 8 4.623 2.202 8.64 1.511 11.375-.594-13.005-6.971-59.729-29.375-123.781-29.375z" fill="#c5c5c5"/><use href="#g" class="B C R"/><path d="M280.555 509.01c-4.906-.793-9.489-1.763-13.792-2.886-3.789-.99-7.362-2.094-10.747-3.3.954 1.651 2.47 3.315 6.107 4.542-2.945-.046-6.78 1.055-8.159 1.641 1.434.587 5.373 1.67 8.313 1.624-3.52 1.226-4.878 2.909-5.676 4.56a118.41 118.41 0 0 1 9.826-3.134c4.371-1.191 9.062-2.216 14.127-3.046zm-52.262 2.441c-4.967.158-9.651.08-14.09-.201-3.908-.247-7.626-.651-11.18-1.19 1.251 1.438 3.057 2.783 6.862 3.293-2.899.516-6.454 2.329-7.696 3.168 1.52.302 5.593.614 8.471.008-3.223 1.875-4.234 3.786-4.702 5.559 2.817-1.708 5.823-3.362 9.048-4.95 4.063-2.003 8.473-3.905 13.287-5.686zm-52.683 12.78a148.34 148.34 0 0 1-13.869 2.491 128.86 128.86 0 0 1-11.201.965c1.503 1.173 3.531 2.148 7.364 1.923-2.748 1.06-5.891 3.518-6.95 4.578 1.55.007 5.607-.465 8.316-1.608-2.806 2.456-3.433 4.525-3.554 6.354a118.41 118.41 0 0 1 7.937-6.587c3.606-2.74 7.572-5.45 11.958-8.117zm207.933 9.958c-4.252-2.573-8.138-5.19-11.707-7.842a128.86 128.86 0 0 1-8.728-7.087c.266 1.89 1.048 3.998 3.961 6.499-2.713-1.146-6.681-1.562-8.179-1.534 1.11 1.081 4.356 3.561 7.1 4.62-3.724-.182-5.613.87-6.971 2.101 3.293.102 6.715.352 10.284.775 4.499.533 9.232 1.34 14.24 2.468zm-51.234-17.658c-4.665-1.714-8.978-3.542-12.99-5.465-3.531-1.693-6.827-3.461-9.92-5.291.62 1.802 1.792 3.725 5.13 5.624-2.882-.608-6.857-.258-8.322.054 1.296.85 4.956 2.664 7.851 3.181-3.691.532-5.344 1.925-6.442 3.393a118.41 118.41 0 0 1 10.243-1.201c4.518-.335 9.318-.447 14.449-.295z"/></g></g><defs ><path id="C" d="M-49.947 1013.184c2.776 12.576-11.509 14.89-3.692 28.402 3.355 5.799 11.864 1.632 18.216 0 8.826-4.133 15.721-9.995 20.148-18.064-8.426-6.388-12.992-17.623-27.009-17.369-4.433.08-8.424 3.587-7.663 7.031z"/><path id="D" d="M12.347 1076.073c3.652-4.582 10.543-.454 11.782 4.541 1.622-2.933 3.254-4.961 5.068-6.542"/><path id="E" d="M-19.407 1010.26c-9.179 6.897-5.053 14.782-12.776 18.293"/><path id="F" d="M-33.583 931.143c-9.551 2.668-38.95 24.476-49.309 36.604"/><path id="G" d="M-27.629 934.876c-6.99 1.955-32.932 20.492-43.21 30.576"/><path id="H" d="M-21.368 938.302c-5.933 2.005-28.764 17.912-38.348 26.329"/><path id="I" d="M-14.897 941.45c-5.552 2.27-26.366 16.628-32.708 21.922"/><path id="J" d="M-8.694 945.17c-4.481 1.875-18.336 11.18-27.057 17.596"/><path id="K" d="M-2.722 949.167c-3.578 1.424-13.925 8.204-22.385 14.182"/><path id="L" d="M4022.031 961.581c-7.354 0-15.531 6.671-15.531 16.531s1.729 12.649 1.687 25.625c.041 12.976-1.687 15.765-1.687 25.625s8.178 16.5 15.531 16.5 12.477-1.594 20.656-1.594 13.303 1.594 20.656 1.594 15.531-6.64 15.531-16.5-1.729-12.649-1.688-25.625c-.041-12.976 1.688-15.765 1.688-25.625s-8.178-16.531-15.531-16.531-12.477 1.594-20.656 1.594-13.303-1.593-20.656-1.593z"/><path id="M" d="M771.158 228.303c-39.76-1.074-94.774 15.069-140.062 71.531l10.156 8.125c42.842-53.413 93.601-67.627 129.563-66.656z"/><path id="N" d="M2700.19 782.962c0 5.89-4.696 10.66-10.488 10.66s-10.488-4.773-10.488-10.66 4.696-10.66 10.488-10.66 10.488 4.773 10.488 10.66z"/><path id="O" d="M2680.844 788.616l1.995 2.512 3.842 2.143 3.325.148 3.547-.369 3.768-2.955 1.626-2.512 1.035-3.916v-4.064l-1.626-2.29-2.364-2.734-2.956-1.182s1.536 2.718 1.921 3.99c.37 1.221.394 2.812.148 4.064-.238 1.209-.857 2.732-1.626 3.694-.852 1.066-2.465 2.364-3.694 2.955-1.373.661-3.132.841-4.655.887-1.29.039-4.285-.369-4.285-.369z"/><path id="P" d="M2691.557 777.865c0 3.08-2.582 5.578-5.763 5.578s-5.763-2.499-5.763-5.578c0-1.582 1.272-1.532 2.366-2.548 1.036-.962 2.81-2.735 4.358-2.735 3.181 0 4.803 2.204 4.803 5.283z"/><path id="Q" d="M220.514 50.326a20.33 20.33 0 0 1-20.326 20.326 20.33 20.33 0 0 1-20.326-20.326 20.33 20.33 0 0 1 20.326-20.326 20.33 20.33 0 0 1 20.326 20.326z"/><path id="R" d="M484.743 316.28c2.237 0 4.038 1.537 4.038 3.445v64.973c0 1.909-1.8 3.445-4.038 3.445s-4.038-1.537-4.038-3.445v-64.973c0-1.909 1.8-3.445 4.038-3.445z"/><path id="S" d="M397.375 479.875s-52.98-23.719-130.125-23.719-130.125 23.719-130.125 23.719"/><path id="T" d="M386.313 521.875s-50.667-25.406-119.062-25.406-119.062 25.406-119.062 25.406"/><path id="U" d="M2854.887 831.331h59.908c2.868 0 5.177 2.309 5.177 5.177v33.282c0 2.868-2.309 5.177-5.177 5.177h-59.908c-2.868 0-5.177-2.309-5.177-5.177v-33.282c0-2.868 2.309-5.177 5.177-5.177z"/><path id="V" d="M626.165 310.883l-23.701-12.771 23.701-12.082 2.881 13.147z"/><path id="W" d="M626.165 307.466l-17.183-9.259 17.183-8.759 5.657 8.579z"/><path id="X" d="M626.165 307.466l-17.183-9.259 22.66-.18z"/><path id="Y" d="M608.937 298.141l22.953-.025"/><path id="Z" d="M626.165 307.466l-17.183-9.259 17.183-8.759 5.837 8.399z"/><path id="a" d="M505.4 340.211h14.287a10.75 10.75 0 0 1 10.771 10.771v1.133a10.75 10.75 0 0 1-10.771 10.771H505.4a10.75 10.75 0 0 1-10.771-10.771v-1.133a10.75 10.75 0 0 1 10.771-10.771z"/><path id="b" d="M551.244 293.795l13.356-1.224c4.563-.418 8.747 2.898 9.381 7.436a7.79 7.79 0 0 1-7.092 8.946l-13.356 1.224c-4.563.418-8.747-2.898-9.381-7.436a7.79 7.79 0 0 1 7.092-8.946z"/><path id="c" d="M565.019 299.344c.164 1.175-.615 3.213-1.92 4.286-2.236 1.837-6.014 2.46-9.238 2.756-5.106.468-8.775-2.158-9.221-5.346-.267-1.907.592-4.446 2.729-5.708 1.436-.848 3.67-1.351 5.722-1.539 3.434-.315 8.07.027 10.463 1.802 1.165.864 1.319 2.705 1.465 3.749z"/><path id="d" d="M505.837 343.276h13.412c4.582 0 8.271 3.689 8.271 8.271s-3.689 8.271-8.271 8.271h-13.412c-4.582 0-8.271-3.689-8.271-8.271s3.689-8.271 8.271-8.271z"/><path id="e" d="M816.436 431.481c0 1.633-2.537 2.956-5.666 2.956s-5.666-1.324-5.666-2.956 2.537-2.956 5.666-2.956 5.666 1.324 5.666 2.956z"/><path id="f" d="M-346.459 1090.707h16.902l2.199 3.806-2.199 3.806h-16.902l-2.707-3.806z"/><path id="g" d="M267.25 498.844c-44.584 0-89.899 11.306-121.25 26.75-12.706 6.259-4.461 23.9 8.844 17.563 28.483-13.567 69.781-24.625 112.406-24.625s83.924 11.058 112.406 24.625c13.305 6.338 21.549-11.303 8.844-17.562-31.351-15.444-76.666-26.75-121.25-26.75z"/></defs></svg>