<svg height="600" viewBox="0 0 317.49999 158.75" width="1200" xmlns="http://www.w3.org/2000/svg" xmlns:xlink="http://www.w3.org/1999/xlink"><g fill="#383739" transform="translate(0 39.687499)"><path d="m0-39.687502h317.49999v158.750002h-317.49999z" fill="#00843d" stroke-width=".305515"/><g fill="#fff" transform="matrix(.26458333 0 0 .26458333 0 -39.687502)"><path d="m446.821 66.5425c26.5998 11.4204 45.2364 37.851 45.2364 68.6278 0 41.2242-33.4308 74.6551-74.6545 74.6551-18.4554 0-35.3454-6.70442-48.3768-17.805 8.06162 3.4572 16.8702 5.5458 26.1504 5.9508 41.1846 1.7982 76.0418-30.1422 77.8398-71.3268 1.04399-23.9112-9.28683-45.6876-26.1954-60.1017z"/><path id="a" d="m375.616 121.42 8.4582-26.0328-22.1448 16.089h27.3726l-22.1448-16.089z"/><use height="600" width="100%" xlink:href="#a" y="-38.400051"/><use height="100%" width="100%" x="37.936928" xlink:href="#a" y="-18.722052"/><use height="100%" width="100%" x="-37.936073" xlink:href="#a" y="18.721949"/><use height="600" width="100%" xlink:href="#a" y="38.399948"/></g><g transform="matrix(.26528787 0 0 .26432968 -.075824 -39.535312)"><path d="m107.997-.57575638h161.56977v600.57575638h-161.56977z" fill="#d22630" stroke-width=".99915"/><g id="b" transform="matrix(.99726873 0 0 1 .293973 0)"><g id="c" transform="translate(0 -.537729)"><path d="m107.998-39.62v5.88l9.11 8.528-3.072 2.86 6.515 6.038-2.86 2.596v-3.76h-5.56v4.5l12.552 11.76h6.356l.69-4.132h-3.656l3.972-3.707 9.957 9.057-9.958 9.11-3.972-3.708h3.655l-.69-4.184h-6.355l-12.553 11.76v4.5h5.56v-3.76l2.86 2.596-6.514 6.038 3.072 2.913-9.11 8.474v5.88l15.413-14.355-3.07-2.913 6.46-6.038-5.56-5.19 3.707-3.39 7.097 6.567 15.573-14.3-15.573-14.3-7.097 6.62-3.708-3.443 5.56-5.19-6.46-6.04 3.07-2.86-15.409-14.405zm0 28.55v22.14l3.602-3.655v-4.29h3.813l3.072-3.125-3.072-3.072h-3.813v-4.343zm26.27 7.84-.53 3.018.53 3.072 3.285-3.072z"/><path d="m107.998-38.983v4.66l9.746 9.11-3.072 2.86 6.514 6.04-3.92 3.654v-4.395h-4.713v3.92l12.34 11.493h5.72l.584-3.284h-4.237l5.084-4.767 10.594 9.692-10.594 9.693-5.084-4.714h4.237l-.584-3.338h-5.72l-12.343 11.494v3.92h4.716v-4.395l3.92 3.653-6.516 6.038 3.072 2.915-9.745 9.057v4.66l14.777-13.717-3.072-2.914 6.462-6.037-5.562-5.19 4.344-4.026 7.097 6.62 14.884-13.719-14.884-13.718-7.097 6.62-4.344-4.025 5.562-5.19-6.462-6.04 3.072-2.86-14.777-13.77zm0 28.55v20.867l3.178-3.178v-4.608h4.078l2.65-2.648-2.65-2.648h-4.078v-4.608l-3.178-3.178zm26.59 8.05-.372 2.17.37 2.173 2.33-2.172z" fill="#ffc72c"/></g><use height="100%" transform="translate(0 10.900353)" width="100%" xlink:href="#c" y="109.207"/><use height="100%" transform="translate(0 18.209696)" width="100%" xlink:href="#c" y="222.005"/><use height="100%" transform="translate(0 25.520038)" width="100%" xlink:href="#c" y="334.802"/><use height="100%" transform="translate(0 32.831388)" width="100%" xlink:href="#c" y="447.59799"/><path d="m108 560.38v5.88l9.11 8.528-3.072 2.86 6.515 6.038-2.86 2.595v-3.76h-5.562v4.503l12.554 11.76h6.356l.69-4.133h-3.656l3.973-3.707 9.957 9.057-9.957 9.11-3.973-3.707h3.655l-.69-4.185h-6.356l-12.553 11.76v4.5h5.563v-3.76l2.86 2.596-6.515 6.038 3.072 2.913-9.11 8.475v5.88l15.413-14.355-3.072-2.913 6.463-6.038-5.562-5.19 3.71-3.39 7.097 6.567 15.57-14.302-15.573-14.3-7.098 6.62-3.71-3.443 5.563-5.19-6.462-6.04 3.073-2.86-15.413-14.405zm0 28.55v22.14l3.602-3.655v-4.29h3.813l3.072-3.125-3.072-3.072h-3.813v-4.343zm26.27 7.84-.528 3.018.53 3.072 3.283-3.072z"/><path d="m108 561.016v4.66l9.746 9.112-3.072 2.86 6.515 6.038-3.92 3.655v-4.395h-4.715v3.92l12.34 11.493h5.722l.582-3.284h-4.238l5.085-4.767 10.595 9.692-10.593 9.693-5.085-4.714h4.237l-.585-3.338h-5.72l-12.34 11.494v3.92h4.713v-4.397l3.92 3.654-6.516 6.038 3.072 2.913-9.745 9.058v4.66l14.776-13.718-3.072-2.913 6.462-6.038-5.562-5.19 4.344-4.027 7.097 6.62 14.887-13.715-14.885-13.72-7.097 6.622-4.344-4.025 5.562-5.19-6.462-6.04 3.072-2.86-14.776-13.769zm0 28.55v20.868l3.178-3.178v-4.608h4.078l2.65-2.648-2.65-2.648h-4.078v-4.608l-3.178-3.18zm26.59 8.05-.372 2.172.37 2.172 2.332-2.172z" fill="#ffc72c"/></g><use height="100%" transform="matrix(-1 0 0 1 377.56376 0)" width="100%" xlink:href="#b"/></g><g fill="#383739" transform="matrix(.26528786 0 0 .26432912 90.03795 -82.360711)"><path d="m-202.11573 544.33436v11.72804h-11.13575v10.6374h-11.28654v30.28763h11.28654v10.6374h11.13575v11.72805h40.48998l7.12044 4.29411-3.42169 2.06298h-14.43775l-1.24529-1.40955h13.08416l-3.68618-3.72537h-18.71636l8.48002 8.86029h17.55126l5.99544-3.61546 5.99543 3.61546h17.55246l8.47943-8.86029h-18.71576l-3.68678 3.72537h13.08475l-1.24588 1.40955h-14.43835l-3.42169-2.06298 7.12104-4.29411h40.489979v-11.72805h11.13575v-10.6374h11.28594v-30.28763h-11.28594v-10.6374h-11.13575v-11.72804h-40.489979l-7.12104-4.29352 3.42169-2.06358h14.43835l1.24588 1.40955h-13.08475l3.68678 3.72538h18.71576l-8.47943-8.8603h-17.55246l-5.99543 3.61547-5.99544-3.61547h-17.55126l-8.48002 8.8603h18.71636l3.68618-3.72538h-13.08416l1.24529-1.40955h14.43775l3.42169 2.06358-7.12044 4.29352z" fill="#d22630" stroke-width=".99915"/><path d="m-140.29834 618.90585h40.20005v-11.71674h11.093359v-10.65641h11.3046v-29.42451h-11.3046v-10.60337h-11.093359v-11.71673h-40.20005l-16.69285-10.12621h-17.274l-7.6597 8.00556h17.5381l2.85258-2.86292h-13.04786l2.00738-2.27972h14.79111l18.91154 11.45168h34.54781v11.71673h11.146119v10.65642h11.30469v20.99472h-11.30469v10.65642h-11.146119v11.71673h-34.54781l-18.91154 11.39863h-14.79111l-2.00738-2.22672h13.04786l-2.85258-2.86291h-17.5381l7.6597 8.00555h17.274zm-22.66205-4.18834h-34.54781v-11.71673h-11.09336v-10.65642h-11.3047v-20.99472h11.3047v-10.65642h11.09336v-11.71673h34.54781l18.9644-11.45168h14.73835l2.00737 2.27972h-12.9951l2.85257 2.86292h17.538l-7.65968-8.00556h-17.274l-16.69285 10.12621h-40.20006v11.71673h-11.14612v10.60337h-11.30469v29.42451h11.30469v10.65641h11.14612v11.71674h40.20006l16.69285 10.1262h17.274l7.65968-8.00555h-17.538l-2.85257 2.86291h12.9951l-2.00737 2.22672h-14.73835z" fill="#ffc72c" stroke-width=".99915"/><path d="m-150.91607 542.1923-11.93851 7.21031h-34.23085v11.71673h-11.09336v10.65641h-11.30469v20.14642h11.30469v10.65641h11.09336v11.71674h34.23085l11.93851 7.15728 11.93851-7.15728h34.23085v-11.71674h11.146119v-10.65641h11.3047v-20.14642h-11.3047v-10.65641h-11.146119v-11.71673h-34.23085zm0 2.96895 11.25184 6.78617h32.43483v11.71673h11.146119v10.60336h11.25184v15.10979h-11.25184v10.65641h-11.146119v11.71674h-32.43483l-11.25184 6.78616-11.19898-6.78616h-32.43483v-11.71674h-11.14612v-10.65641h-11.30459v-15.10979h11.30459v-10.60336h11.14612v-11.71673h32.43483z" fill="none" stroke-width=".99915"/><path d="m-107.67222 599.61135v11.72804h-32.11468l-11.1148 6.70242-11.11481-6.70242h-32.11408v-11.72804h-11.13635v-10.638h-11.28595v-14.25947h11.28595v-10.638h11.13635v-11.72744h32.05484.0592l11.1148-6.70243 11.11481 6.70243h32.11468v11.72744h11.135749v10.638h11.28595v14.25947h-11.28595v10.638z" fill="#00843d" stroke-width=".99915"/><g fill="#383739" transform="matrix(.99734424 0 0 1.0009596 -339.39717 190.26492)"><path d="m149.869 404.849v11.34h17.7l-17.7-11.7396z"/><path d="m149.869 377.558v-11.3406h17.7l-17.7 11.7396z"/><path d="m228.127 404.849v11.34h-17.7l17.7-11.7396z"/><path d="m228.127 377.558v-11.3406h-17.7l17.7 11.7396z"/><g fill="#d22630"><path d="m150.298 405.248 15.8496 10.5126h-15.8496z"/><path d="m150.298 377.159c.6162-.4092 14.7696-9.79679 15.8496-10.5126h-15.8496z"/><path d="m227.698 405.248c-.6168.4092-14.7702 9.7962-15.8496 10.5126h15.8496z"/><path d="m227.698 377.159c-.6168-.4086-14.7702-9.79619-15.8496-10.5126h15.8496z"/></g></g><g id="d" fill="#383739" transform="matrix(.99734424 0 0 1.0009596 -339.39717 190.26492)"><path d="m172.445 388.094v-5.7912h-1.9752l-9.4764-5.925-.1134.0714-9.3624 5.8536h-1.9752v5.7912h-4.455v6.2196h4.455v5.7906h1.9752l9.4758 5.925 9.4764-5.925h1.9752v-5.7906h6.7818v-6.2196z"/><path d="m160.994 376.884 8.6682 5.4192h-17.3352zm8.667 23.2206-8.667 5.4192-8.6664-5.4192z" fill="#d22630"/><path d="m167.562 388.523v5.3628h-10.809v-5.3628z" fill="#d22630"/><g fill="#ffc72c"><path d="m172.017 394.313v5.3628h-10.809v-5.3628z"/><path d="m160.78 394.313v5.3628h-10.809v-5.3628z"/><path d="m178.799 388.523v5.3628h-10.809v-5.3628z"/><path d="m156.325 388.523v5.3628h-10.809v-5.3628z"/><path d="m172.017 382.732v5.3622h-10.809v-5.3622z"/><path d="m160.78 382.732v5.3622h-10.809v-5.3622z"/></g><path d="m153.349 389.714v2.9796h-4.8552v-2.9796z"/><path d="m157.804 383.923v2.9796h-4.8552v-2.9796z"/><path d="m169.04 383.923v2.9796h-4.8552v-2.9796z"/><path d="m164.585 389.714v2.9796h-4.8552v-2.9796z"/><path d="m175.822 389.714v2.9796h-4.8552v-2.9796z"/><path d="m169.04 395.505v2.9796h-4.8552v-2.9796z"/><path d="m157.804 395.505v2.9796h-4.8552v-2.9796z"/><g fill="#fff"><path d="m152.891 390.171h-3.9408v2.0652h3.9408z"/><path d="m157.346 384.38h-3.9408v2.0652h3.9408z"/><path d="m168.583 384.38h-3.9408v2.0652h3.9408z"/><path d="m164.128 390.171h-3.9408v2.0652h3.9408z"/><path d="m175.365 390.171h-3.9408v2.0652h3.9408z"/><path d="m168.583 395.962h-3.9408v2.0652h3.9408z"/><path d="m157.346 395.962h-3.9408v2.0652h3.9408z"/></g></g><use fill="#383739" height="100%" transform="matrix(-1 0 0 1 -301.80315 -.000002)" width="100%" xlink:href="#d"/><g id="e" fill="#383739" transform="matrix(.99734424 0 0 1.0009596 -339.39717 190.26492)"><path d="m200.449 378.42v5.7906h-1.9752l-9.4764 5.925-.1134-.0708-9.3624-5.8542h-1.9752v-5.7906h-5.6184v-6.2196h5.6184v-5.79059h1.9752l9.4758-5.9256 9.4764 5.9256h1.9752v5.79059h5.6184v6.2196z"/><path d="m188.998 389.63 8.6676-5.4198h-17.3346zm8.667-23.2206-8.667-5.4198-8.6664 5.4198z" fill="#ffc72c"/><g fill="#d22630"><path d="m200.021 372.2v-5.36219h-10.809v5.36219z"/><path d="m188.784 372.2v-5.36219h-10.809v5.36219z"/><path d="m205.639 377.991v-5.3628h-10.809v5.3628z"/><path d="m194.402 377.991v-5.3628h-10.809v5.3628z"/><path d="m183.165 377.991v-5.3628h-10.8084v5.3628z"/><path d="m200.021 383.782v-5.3628h-10.809v5.3628z"/><path d="m188.784 383.782v-5.3628h-10.809v5.3628z"/></g><path d="m185.807 368.029v2.97959h-4.8552v-2.97959z"/><path d="m197.044 368.029v2.97959h-4.8552v-2.97959z"/><path d="m180.188 373.82v2.9796h-4.8552v-2.9796z"/><path d="m191.426 373.82v2.9796h-4.8552v-2.9796z"/><path d="m202.663 373.82v2.9796h-4.8552v-2.9796z"/><path d="m185.807 379.611v2.9796h-4.8552v-2.9796z"/><path d="m197.044 379.611v2.9796h-4.8552v-2.9796z"/><g fill="#fff"><path d="m185.35 368.486h-3.9408v2.06519h3.9408z"/><path d="m196.587 368.486h-3.9408v2.06519h3.9408z"/><path d="m179.731 374.277h-3.9408v2.0652h3.9408z"/><path d="m190.969 374.277h-3.9408v2.0652h3.9408z"/><path d="m202.205 374.277h-3.9408v2.0652h3.9408z"/><path d="m185.35 380.068h-3.9408v2.0652h3.9408z"/><path d="m196.587 380.068h-3.9408v2.0652h3.9408z"/></g></g><use fill="#383739" height="100%" transform="translate(-.000001 -.000002)" width="100%" xlink:href="#e" y="31.788122"/></g><g transform="matrix(1 0 0 .99999809 147.8922 -19.435819)"><path d="m-113.95515.2608661-3.43456-2.10613v-5.06285l3.43456-2.10614v-2.6789001l3.24564-1.95453h2.59303l4.93379-2.77511h10.59212l4.93395 2.77511h2.59302l3.24565 1.95453v2.6789001l3.434554 2.10614-.000159 5.06285-3.434395 2.10613v2.67891l-3.24565 1.95453h-2.59302l-4.93395 2.77511h-10.59212l-4.93379-2.77511h-2.59303l-3.24564-1.95453z" fill="#383739" stroke-width=".264583"/><path d="m-103.15962-16.303744-4.9329 2.77477h-2.57857l-3.16717 1.90589v2.6766501l-3.43341 2.1021v4.93289l3.43341 2.1021v2.69068l3.15315 1.90589h2.59259l4.93289 2.77477h10.53848l4.9329-2.77477h2.59258l3.16717-1.90589v-2.69068l3.433415-2.1021v-4.93289l-3.433415-2.1021v-2.6766501l-3.16717-1.90589h-2.59258l-4.9329-2.77477h-10.53848zm.29429 1.02302h9.96392l4.93289 2.77477h2.57857l2.39637 1.44343v2.6766601l3.44742 2.1021v3.8118l-3.44742 2.1021v2.67665l-2.39637 1.44344h-2.57857l-4.93289 2.77477h-9.96392l-4.93289-2.77477h-2.57857l-2.41039-1.44344v-2.67665l-3.43342-2.1021v-3.8118l3.43342-2.1021v-2.6766601l2.41039-1.44343h2.57857z" fill="#00843d" stroke-width=".264583"/><path d="m-97.94336-4.3201239v-10.8501701h-4.89633l-4.93411 2.77511h-2.57223l-2.32695 1.40129v2.6724001l-3.4344 2.10597v1.78213l18.2776-.00018v10.85043h4.89633l4.93395-2.77511h2.57239l2.32679-1.40128v-2.67224l3.43456-2.10614v-1.78212z" fill="#ffc72c" stroke-width=".264583"/><path d="m-116.10754-4.3200739-.00016 1.78213 3.43456 2.10613v2.67224l2.32679 1.40128h2.57239l4.93395 2.77511h4.89649v-10.85043l18.2776.00018v-1.78213l-3.43456-2.10597v-2.6724001l-2.32679-1.40128h-2.57239l-4.93395-2.77511h-4.89633v10.8501601z" fill="#fff" stroke-width=".264583"/><g id="f" fill="#383739" transform="matrix(.26458333 0 0 .26458333 -147.8922 -18.349714)"><g id="g"><path d="m148.448 26.2804-3.1956-2.9784-3.1662 1.9524 3.201 2.9844-4.11 2.5464h8.96877l7.72921 7.29062 2.47261-2.6112-7.515-7.08902v-4.812z"/><path d="m163.573 24.9719-3.1956-2.9784-3.1662 1.9524 3.201 2.9844-4.11 2.5464h8.96877l7.72922 7.29062 2.47259-2.6112-7.51499-7.08902v-4.812z"/><path d="m147.339 34.8358-3.1956-2.9784-3.1656 1.9524 3.2004 2.9844-4.1094 2.5464h8.96877l7.72861 7.29062 2.4726-2.6112-7.51499-7.08902v-4.812z"/><path d="m188.997 11.5889h-8.09309l-4.23481 4.0812h-8.25542l-6.1002 3.1662 1.4226 3.4662 5.44021-2.8572h2.38259l8.34119 9.6468 9.09717-5.5398z"/><path d="m145.199 23.8378 2.8716 2.6766-2.406 1.4904-2.8758-2.6808zm7.20541.495v4.227l7.3374 6.92158-1.884 1.9896-7.54141-7.11418h-7.63559l9.72361-6.02398z" fill="#d22630"/><path d="m160.324 22.5293 2.8716 2.6766-2.406 1.4904-2.8752-2.6808zm7.2054.495v4.227l7.33741 6.92158-1.88399 1.9896-7.54142-7.11358h-7.63559l9.72362-6.02458z" fill="#d22630"/><path d="m144.091 32.3932 2.871 2.6766-2.406 1.4904-2.8752-2.6808zm7.2048.495v4.227l7.33741 6.92158-1.88341 1.9896-7.54142-7.11358h-7.63618l9.72361-6.02458z" fill="#d22630"/><path d="m188.783 12.0166h-7.70603l-4.23481 4.0812h-8.32377l-5.6604 2.9376 1.095 2.6688 5.1168-2.6868h2.68501l8.232 9.52081 8.79623-5.3562z" fill="#d22630"/></g><use height="100%" transform="matrix(1 0 0 -1 0 105.62254)" width="100%" xlink:href="#g"/><path d="m143.054 39.7108-3.8586-1.4418-.0924.0642-4.98241 3.4572v.929397l-7.98 10.0914 7.98 10.0914v.929998l5.07481 3.5208 3.8586-1.4418-2.355-1.5594v-2.967l.93599-1.1196h4.18141v-14.9088h-4.18141l-.93599-1.1196v-2.967z"/><path d="m134.549 42.0137 4.7064-3.2652 2.862 1.0692-1.8468 1.2228v3.3522l1.164 1.392h3.9528v14.0532h-3.9528l-1.164 1.392v3.3522l1.8468 1.2228-2.862 1.0692-4.7064-3.2652.0006-.855-7.86302-9.94258 7.86302-9.94318z" fill="#d22630"/></g><use fill="#383739" height="100%" transform="matrix(-1 0 0 1 -195.77357 .000006)" width="100%" xlink:href="#f"/><g stroke-width=".264583"><path d="m-111.85516-2.1354639-.57483-.49736v-.23971l-1.23317-1.50416 1.23333-1.50431v-.23956l.57483-.49736 1.03252.83963-.59595-.005.88058.89376h2.01217l1.58242-1.23746v-3.26342h3.95779l4.59645-2.8206701v-.73977l-.70295-.46848h-.22272l-.76549.51229-.11859.38211-.59881-.81756 1.1638-.97774h.18606l1.31333-.96361h.49515l1.31318.96361h.18621l1.1638.97774-.59881.81756-.11859-.38211-.76549-.51229h-.22272l-.70295.46848v.73977l4.59645 2.8206701h3.9578v3.26342l1.58242 1.23746h2.01216l.88059-.89376-.59595.005 1.03251-.83963.57483.49736v.23956l1.23333 1.50431-1.23333 1.50416v.23971l-.57483.49736-1.03251-.83963.59595.005-.88059-.89392h-2.01216l-1.58242 1.23762v3.26342h-3.9578l-4.59645 2.82067v.73978l.70295.46847h.22272l.76549-.51229.11859-.38211.59881.8174-1.1638.9779h-.18621l-1.31318.96362h-.49515l-1.31333-.96362h-.18606l-1.16395-.9779.59896-.8174.11859.38211.76533.51229h.22273l.7031-.46847v-.73978l-4.59645-2.82067h-3.95779v-3.26342l-1.58259-1.23762h-2.012l-.88058.89392.59595-.005z" fill="#383739"/><path d="m-97.83012 4.7534161.50308.38465-.50308.38465zm-1.59909.69961h.0186l1.31334.96377h.15335v-.75184l-.68898-.52689.68914-.52689v-1.41224l-4.91839-3.01831h-3.63585v-3.03276l-1.87723-1.46812h-2.83146l-.71168.8047-.71167-.8047-.84027.00016 1.15348 1.40684v.22844l.45688.39687.73406-.5715-.43084.003v-.14287l.96012-.97869h2.10978l1.65689 1.29571v3.20532h3.87651l4.67757 2.87052v.8636l-.782.52118h-.29162l-.82725-.55372-.0637-.20543-.40338.55055 1.05124.88297h.16335zm-12.48855-10.51988.56039.63341h-1.12093zm13.97413-9.2094101-.50276.38465.50276.38449zm13.52741 9.9561701.56038.63341.56039-.63341zm-11.94705-9.8866401-1.31334-.96361h-.15335v.75152l.68929.52721-.68945.52721v1.41192l4.91839 3.0183201h3.63585v3.03276l1.87723 1.46812h2.83098l.71184-.80455.71183.80439h.84043l-1.15348-1.40684v-.22845l-.45688-.39687-.73407.5715.43085-.004v.14303l-.96012.97854h-2.10979l-1.65672-1.29572v-3.20516h-3.87667l-4.67757-2.8705201v-.86376l.782-.52102h.29163l.82724.55372.0637.20543.40339-.55055-1.05125-.88313h-.18192z" fill="#ffc72c"/><path d="m-97.94363 5.5226361-.50276-.38449.50276-.38449zm-13.41374-9.84266-.56039.63342-.56039-.63342zm15.01267 9.77313h-.0186l-1.31334.96377h-.15335v-.19685-.55467l.68929-.52721-.68945-.52721v-1.41192l4.91839-3.01832h3.63586v-3.03276l1.87722-1.46812h2.83115l.71168.80471.71167-.80471.84058.00016-1.15347 1.40685v.22844l-.45689.39687-.73406-.5715.43085.003v-.14287l-.96012-.9787h-2.10979l-1.65672 1.29572v3.20532h-3.87667l-4.67757 2.87052v.8636l.782.52118h.29162l.82725-.55372.0637-.20543.40338.55055-1.05124.88297zm12.48886-10.51989-.56038.63342h1.12093zm-15.55448-9.1398701 1.31334-.96361h.15351v.75152l-.68945.52721.68945.52721.00016 1.41192-4.91855 3.0183201h-3.63569v3.03276l-1.87738 1.46812h-2.83179l-.71167-.80455-.71184.80439h-.83979l1.15364-1.40685v-.22844l.45688-.39687.7339.5715-.43084-.004v.14303l.96028.97854h2.10962l1.65689-1.29572v-3.20516h3.87651l4.67773-2.8705201v-.86376l-.782-.52102h-.29179l-.82724.55372-.0637.20543-.40323-.55055 1.05125-.88313h.18177zm1.5802.69977.50308-.38465-.50308-.38465z" fill="#fff"/><path d="m-97.94336-4.3201239v-7.4995901l-4.88649 2.9987901h-3.55457v2.97466l-1.80658 1.41287 10.36114-.00017v7.49969l4.88617-2.99863h3.55457v-2.97466l1.80657-1.41287z" fill="#00843d"/><path d="m-108.19121-4.3200739 1.80674 1.41288v2.97465h3.55441l4.88665 2.99879v-7.49985l10.36081.00017-1.80657-1.41287v-2.97466h-3.55457l-4.88617-2.9986301v7.4994301z" fill="#d22630"/><g fill="#383739"><path d="m-103.1464-8.0141539-.84534-.78804-.83773.51641.84694.78963-1.08744.67373h2.37299l2.04502 1.92914.65421-.69104-1.98835-1.87564v-1.27301z"/><path d="m-92.62788-.7392239.8455.78803.83756-.51657-.84677-.78962 1.08744-.67358h-2.37315l-2.04486-1.92914-.65421.69088 1.98834 1.8758v1.27301z"/><path d="m-103.1464-.7392239-.8455.78803-.83757-.51657.84678-.78962-1.08728-.67358h2.37299l2.04486-1.92914.65421.69088-1.98835 1.8758v1.27301z"/><path d="m-92.62788-8.0141539.8455-.78804.83756.51641-.84677.78963 1.08744.67373h-2.37315l-2.04486 1.92914-.65421-.69104 1.98834-1.87564v-1.27301z"/></g><path d="m-91.76825-.0929839-.75962-.70818.63659-.39434.76073.7093zm-1.90627-.13097v-1.11823l-1.94136-1.83134.49848-.52657 1.99533 1.88229h2.02025l-2.57271 1.59385zm-10.33114-8.43663.75978.70818-.63674.39449-.76073-.70929zm1.90644.13112v1.11824l1.94135 1.83133-.49847.52658-1.99534-1.8823h-2.02025l2.57271-1.59384z" fill="#d22630"/><path d="m-91.76825-8.6605839-.75962.70818.63659.39449.76073-.70929zm-1.90627.13112v1.11824l-1.94136 1.83133.49848.52658 1.99533-1.8823h2.02025l-2.57271-1.59384zm-10.33114 8.43648.75962-.70818-.63658-.39434-.76073.7093zm1.90628-.13097v-1.11823l1.94135-1.83134-.49831-.52657-1.99534 1.88229h-2.02041z" fill="#00843d"/><path d="m-92.63238-4.3765639-5.25436 3.50179-5.25436-3.50179 5.25436-3.50202z" fill="#383739"/><path d="m-97.94336-7.7047839-4.9084 3.27136h9.93029l-4.90839-3.27136v6.65607l4.90855-3.27136h-9.9306l4.90855 3.27136z" fill="#fff"/><path d="m-96.48154-3.1724439v.96282h-2.81003v-.96282h-1.81864v-2.40855h1.81864v-.96282h2.81003v.96282h1.81848v2.40855z" fill="#383739"/><path d="m-99.17817-6.4306539v.96282h-1.81848v1.03441h3.05339v-1.99723zm1.34842 1.99724h3.0534v-1.03442h-1.81848v-.96281h-1.23492zm-3.16691.11335v1.03441h1.81849v.96282h1.23491v-1.99724h-3.0534zm3.16691 1.99724h1.23491v-.96282h1.81849v-1.03442h-3.0534z" fill="#d22630"/></g></g><g transform="matrix(1 0 0 .99999555 147.89347 -17.530056)"><path d="m-88.92266 35.522102v-1.542574h4.23021v-1.542573h4.23021v-13.938569h-4.23021v-1.54257h-4.23021v-1.54258h-4.23021v-1.54257h-9.46737v1.54257h-4.23022v1.54258h-4.23037v1.54257h-4.23021v13.938569h4.23021v1.542573h4.23037v1.542574h4.23022v1.542571h9.46737v-1.542571z" fill="#383739" stroke-width=".264583"/><path d="m-102.50081 13.980526v1.54148h-4.23236v1.54158h-4.23217v1.54149h-4.23224v13.719679h4.23224v1.541759h4.23217v1.541312h4.23236v1.541309h9.23486v-1.541309h4.23243v-1.541312h4.23243v-1.541759h4.23199v-13.719679h-4.23199v-1.54149h-4.23243v-1.54158h-4.23243v-1.54148zm1.12111 1.12111h6.99262v1.54149h4.23244v1.54158h4.23243v1.54149h4.23199v11.477438h-4.23199v1.541759h-4.23243v1.541309h-4.23244v1.541309h-6.99262v-1.541309h-4.23235v-1.541309h-4.23217v-1.541759h-4.23225v-11.477438h4.23225v-1.54149h4.23217v-1.54158h4.23235z" fill="#ffc72c" stroke-width=".264583"/><path d="m-105.50357 34.175108v-1.542732h-4.23021v-1.542415h-4.23037v-11.244895h4.23037v-1.54258h4.23021v-1.54257h4.23021v-1.54241h6.77355v1.54241h4.23037v1.54257h4.23005v1.54258h4.23037v11.244895h-4.23037v1.542415h-4.23005v1.542732h-4.23037v1.542415h-6.77355v-1.542415z" fill="#d22630" stroke-width=".264583"/><path d="m-104.52143 17.901906-1.0957-.82819v1.59035l-1.04918.66675-.003-.99552-1.00632.90392-1.00632-.90392-.003.99552-1.16268-.73882v1.47447l-.93964.68024-.003-.90408-1.11633.80852-1.11633-.80852-.003.90408-1.053-.76231v4.466587h-1.23348v2.033111h1.23348v4.46659l1.053-.762476.003.90424 1.11633-.808514 1.11617.808514.003-.90424.93964.680244v1.474628l1.16268-.738822.003.995521 1.00632-.903922 1.00632.903922.003-.995521 1.04917.666591v1.590516l1.0957-.828198.002 1.110773 1.07378-.960278 1.07395.960278.002-1.110773.98234.742473v1.696244l1.46876-1.338739v1.573213l2.03136-1.306036 2.03152 1.306036v-1.573213l1.46876 1.338739v-1.696244l.98219-.742473.002 1.110773 1.07394-.960278 1.07394.960278.002-1.110773 1.09538.828198v-1.590516l1.0495-.666591.003.995521 1.00647-.903922 1.00632.903922.003-.995521 1.16284.738822v-1.474628l.93964-.680244.003.90424 1.11617-.808514 1.11633.808514.003-.90424 1.05299.762318v-4.466432h1.23349v-2.033111h-1.23339v-4.466587l-1.05298.76231-.003-.90408-1.11633.80852-1.11633-.80852-.002.90408-.93965-.68024v-1.47447l-1.16284.73882-.003-.99552-1.00632.90392-1.00647-.90392-.003.99552-1.0495-.66691v-1.59019l-1.09537.82804-.002-1.11078-1.07395.96044-1.07394-.96044-.002 1.11093-.98219-.74279v-1.69592l-1.46883 1.33874v-1.57322l-2.03153 1.30604-2.03136-1.30604v1.57322l-1.46876-1.33874v1.69608l-.98234.74263-.002-1.11093-1.07395.96044-1.07378-.96044z" fill="#383739" stroke-width=".264583"/><g fill="#00843d" transform="matrix(.26458333 0 0 .26458333 -147.8922 -18.349714)"><path d="m132.21 148.604.01-3.4176 3.7926 2.7474.1278-.093 3.6648-2.6544.01 3.4176 3.978-2.8794v39.768l-3.978-2.8794-.01 3.4176-3.7926-2.7474-3.7926 2.7474-.01-3.4176-3.97801 2.8794v-16.4706h-4.662v-6.8268h4.662v-16.4706z"/><path d="m164.356 133.772 3.6324 3.2484 3.6324-3.2484.009 4.1022 4.1388-3.129v61.7274l-4.1388-3.129-.009 4.1022-3.6324-3.2484-3.6324 3.2484-.008-4.1022-4.1388 3.129v-61.7274l4.1388 3.129z"/><path d="m213.64 133.772-3.6324 3.2484-3.6324-3.2484-.009 4.1022-4.1382-3.129v61.7274l4.1382-3.129.009 4.1022 3.6324-3.2484 3.6324 3.2484.009-4.1022 4.13881 3.129v-61.7274l-4.13881 3.129z"/><path d="m245.786 148.604-.01-3.4176-3.7926 2.7474-.1284-.093-3.6648-2.6544-.01 3.4176-3.9774-2.8794v39.768l3.9774-2.8794.01 3.4176 3.7932-2.7474 3.7926 2.7474.01-3.4176 3.9774 2.8794v-16.4706h4.662v-6.8268h-4.662v-16.4706z"/></g><g fill="#ffc72c" transform="matrix(.26458333 0 0 .26458333 -147.8922 -18.349714)"><path d="m148.623 139.611 3.3774 3.0342 3.3774-3.0342.01 3.5832 4.3926-2.7918v50.4126l-4.3926-2.7912-.01 3.5826-3.3774-3.0336-3.3774 3.0336-.01-3.5826-4.3926 2.7912v-50.4126l4.3926 2.7918z"/><path d="m181.748 133.827-5.5512-5.0598v73.6824l5.5512-5.0598v6.1314l7.2486-4.6602h.0006.0006l7.2486 4.6602v-6.1314l5.5512 5.0598v-73.6824l-5.5512 5.0598v-6.1314l-7.2486 4.6602h-.0006-.0006l-7.2486-4.6602z"/><path d="m229.373 139.611-3.3774 3.0342-3.378-3.0342-.009 3.5832-4.3932-2.7918v50.4126l4.3932-2.7912.009 3.5826 3.378-3.0336 3.3774 3.0336.01-3.5826 4.3926 2.7912v-50.4126l-4.3926 2.7918z"/></g><g id="h" fill="#383739" transform="matrix(.26458333 0 0 .26458333 -147.8922 -18.349714)"><g id="i"><path d="m134.288 158.366c.4854.4896 1.0656.7374 1.7244.7374.6582 0 1.2384-.2478 1.7244-.7374 1.5186-1.53 1.5696-4.2972 1.5546-6.28859 0 0-1.7556 1.85521-2.0724 2.19-.2208-.38159-1.2066-2.08379-1.2066-2.08379s-.9858 1.7022-1.2072 2.08379c-.3168-.33479-2.0724-2.19-2.0724-2.19-.015 1.9914.0366 4.7586 1.5552 6.28859z"/><path d="m150.966 154.08-1.2792-1.278v-2.54639l-2.9376 2.7228 5.2512 5.2512 5.2512-5.2512-2.9376-2.7228v2.54639l-1.2786 1.278v-4.5114l2.265-1.94459-3.3-2.8338-3.3 2.8338 2.2656 1.94459z"/><path d="m166.953 149.02-1.2786-1.2786v-2.5464l-2.9376 2.7228 5.2512 5.2512 5.2512-5.2512-2.93761-2.7228v2.5464l-1.2792 1.2786v-4.512l2.26561-1.9446-3.3-2.8332-3.3 2.8332 2.265 1.9446z"/><path d="m136.013 153.039c.2622.4524 1.12319 1.9398 1.12319 1.9398s1.2132-1.2828 1.7088-1.8054c-.0594 2.2488-.5532 4.0254-1.41179 4.89-.4026.4056-.8802.6114-1.4202.6114-.5406 0-1.01821-.2058-1.4202-.6108-.85861-.8652-1.35241-2.6418-1.41181-4.8906.495.5232 1.70821 1.8054 1.70821 1.8054.37439-.6468.7494-1.2936 1.1238-1.9398z" fill="#fff"/><path d="m168.595 144.312v5.7432l2.136-2.1354v-1.7424l1.8912 1.7532-4.6332 4.63319-4.6338-4.63319 1.8912-1.7532v1.7424l2.136 2.1354v-5.7432l-2.0358-1.7478 2.6424-2.2686 2.6418 2.2686z" fill="#fff"/><path d="m152.607 149.372v5.7432l2.136-2.136v-1.7418l1.89119 1.7526-4.6338 4.6338-4.6332-4.6338 1.89121-1.7526v1.7418l2.13599 2.136v-5.7432l-2.0358-1.7478 2.6418-2.2686 2.6424 2.2686z" fill="#d22630"/></g><use height="100%" transform="matrix(-1 0 0 1 377.9958 0)" width="100%" xlink:href="#i"/><path d="m195.282 150.937-1.7202-2.3772 4.4112-4.0722-4.11301-3.37919v2.39399l-1.72019 1.4718v-4.34219l3.88559-2.86381-7.02902-5.181-7.02902 5.181 3.88621 2.86381v4.34219l-1.72021-1.4718v-2.39399l-4.1136 3.37919 4.4118 4.0722-1.7202 2.3772z"/><path d="m183.552 150.509 1.4508-2.0058-4.32901-3.996 3.03181-2.49119v1.68419l2.5776 2.2056v-5.49l-3.5922-2.6472 6.3066-4.64819 6.30661 4.64819-3.5916 2.6472v5.49l2.577-2.2056v-1.68419l3.0324 2.49119-4.329 3.996 1.4514 2.0058z" fill="#d22630"/><path d="m185.785 137.769 3.21181 2.367 3.21239-2.367-3.21239-2.3676-.1272.0942z"/><path d="m188.997 135.934c.2124.156 2.1144 1.55819 2.49 1.83479-.3756.2766-2.2776 1.6788-2.49 1.83481-.2118-.15601-2.1144-1.55821-2.4894-1.83481.375-.2766 2.2776-1.67879 2.4894-1.83479z" fill="#00843d"/></g><use fill="#383739" height="100%" transform="matrix(1 0 0 -1 -.000005 50.934932)" width="100%" xlink:href="#h"/><g stroke-width=".264583"><path d="m-82.83063 24.817061h-1.86198v-.742157h-5.69134l-3.96193-2.602388h-.0168-7.06469l-3.96177 2.602388h-5.6915v.742157h-1.86198v1.301115h1.86198v.742156h5.69151l3.96176 2.602547h7.08152l3.96193-2.602547h5.69134v-.742156h1.86198z" fill="#383739"/><g fill="#d22630"><path d="m-101.3938 21.589936-3.96594 2.592582h-5.60557v.742739h-1.86385v1.079074h1.86385v.742738h5.60557l3.96594 2.606596h7.02096l3.95192-2.606596h5.61957v-.742738h1.86385v-1.079074h-1.86385v-.742739h-5.61957l-3.95192-2.592582zm.0841.37838h6.83882l3.62961 2.382369v.364363h4.05003v1.513506h-4.05003v.364363l-3.62961 2.368357h-6.83882l-3.61558-2.368357v-.364363h-4.06405v-1.513506h4.06405v-.364363z"/><path d="m-94.49955 22.085506 3.53981 2.323938v.412432h4.05654v1.291273h-4.05654v.412591l-3.53981 2.323941h-6.77449l-3.53981-2.323941v-.412591h-4.05654v-1.291273h4.05654v-.412432l3.53981-2.323938z"/></g></g><g fill="#383739" transform="matrix(.26458333 0 0 .26458333 -147.8922 -18.349714)"><path d="m169.551 170.598 5.793 4.3488 3.8106-2.8614-2.2152-1.6632-1.5954 1.1982-1.362-1.0224 21.8154-16.3788h-4.4304zm12.645 6.40077h4.4304l21.816-16.3788-5.79241-4.3482-3.81119 2.86079 2.21519 1.66261 1.596-1.1982 1.362 1.023zm9.17098 0h4.4298l-21.8148-16.3788 1.362-1.023 1.5954 1.1982 2.2152-1.66261-3.8106-2.86079-5.793 4.3482zm12.645-6.40077-1.362 1.0224-1.596-1.1982-2.21519 1.6632 3.81119 2.8614 5.7924-4.3488-21.816-16.3788h-4.4304z"/><path d="m165.164 165.609 3.8934 2.586 3.89341-2.586-3.89341-2.586z"/><path d="m185.104 165.609 3.8934 2.586 3.8934-2.586-3.8934-2.586z"/><path d="m212.832 165.609-3.8934 2.586-3.8934-2.586 3.8934-2.586z"/><path d="m207.729 170.598-5.0784 3.81299-3.0978-2.32559 1.5018-1.1274 1.596 1.1982 2.0754-1.5582-21.2448-15.9498h3.003zm-13.2162 5.97179h-3.0024l-21.2448-15.9498 5.079-3.813 3.0966 2.32559-1.5012 1.12681-1.5954-1.1982-2.076 1.5588zm-8.0286 0h-3.003l21.2448-15.9498-2.0754-1.5588-1.596 1.1982-1.5018-1.12681 3.0978-2.32559 5.0784 3.813zm5.0262-21.9216h3.0024l-21.2442 15.9498 2.076 1.5582 1.5954-1.1982 1.5012 1.1274-3.0966 2.32559-5.07901-3.81299z" fill="#ffc72c"/><g fill="#00843d"><path d="m169.057 163.538 3.1188 2.0712-3.1188 2.0712-3.1188-2.0712z"/><path d="m188.998 163.538 3.1188 2.0712-3.1188 2.0712-3.1182-2.0712z"/><path d="m208.939 163.538-3.1188 2.0712 3.1188 2.0712 3.1182-2.0712z"/></g></g></g><g transform="translate(147.89225 -15.624479)"><g fill="#383739" transform="matrix(.26458333 0 0 .26458333 -147.8922 -18.349714)"><path d="m120.514 274.151-1.5276 2.1606 2.7384 2.094-2.739 2.0946 1.5276 2.1606 3.1818.3696 3.081-2.3808 7.68181 4.8798v-4.0524l-4.8348-3.0714 4.8348-3.0708v-4.0524l-7.68181 4.8798-3.081-2.3802z"/><path d="m120.514 260.073-1.5276 2.16119 2.7384 2.094-2.739 2.094 1.5276 2.1612 3.1818.369 3.081-2.3808 7.68181 4.8804v-4.053l-4.8348-3.0708 4.8348-3.07139v-4.0524l-7.68181 4.87979-3.081-2.38019z"/><path d="m120.514 296.739-1.5276-2.1606 2.7384-2.094-2.739-2.0946 1.5276-2.1606 3.1818-.369 3.081 2.3802 7.68181-4.8798v4.0524l-4.8348 3.0714 4.8348 3.0708v4.0524l-7.68181-4.8798-3.081 2.3808z"/><path d="m257.482 274.151 1.5276 2.1606-2.7384 2.094 2.7384 2.0946-1.5276 2.1606-3.1812.3696-3.081-2.3808-7.6824 4.8798v-4.0524l4.8354-3.0714-4.8354-3.0708v-4.0524l7.6824 4.8798 3.081-2.3802z"/><path d="m257.482 260.073 1.5276 2.16119-2.7384 2.094 2.7384 2.094-1.5276 2.1612-3.1812.369-3.081-2.3808-7.6824 4.8804v-4.053l4.8354-3.0708-4.8354-3.07139v-4.0524l7.6824 4.87979 3.081-2.38019z"/><path d="m257.482 296.739 1.5276-2.1606-2.7384-2.094 2.7384-2.0946-1.5276-2.1606-3.1812-.369-3.081 2.3802-7.6824-4.8798v4.0524l4.8354 3.0714-4.8354 3.0708v4.0524l7.6824-4.8798 3.081 2.3808z"/><path d="m226.727 235.73v5.856h4.25941v2.5878h4.1844v-4.7124h-3.73201v-3.7314z"/><path d="m239.283 244.965v5.8554h4.25521v2.5884h4.1886v-4.7124h-3.73141v-3.7314z"/><path d="m151.269 235.73v5.856h-4.2606v2.5878h-4.18321v-4.7124h3.73141v-3.7314z"/><path d="m226.727 321.083v-5.856h4.25941v-2.58779h4.1844v4.7118h-3.73201v3.73199z"/><path d="m151.269 321.083v-5.856h-4.2606v-2.58779h-4.18321v4.7118h3.73141v3.73199z"/><path d="m239.283 311.848v-5.85539h4.25521v-2.5884h4.1886v4.7118h-3.73141v3.73199z"/><path d="m138.714 244.965v5.8554h-4.2564v2.5884h-4.18741v-4.7124h3.73141v-3.7314z"/><path d="m138.714 311.848v-5.85539h-4.2564v-2.5884h-4.18741v4.7118h3.73141v3.73199z"/><path d="m204.753 235.594c-.27181-.264-3.2508-3.156-3.2508-3.156l-3.19321 2.95861s2.502 2.42819 2.7834 2.70179l-3.5928 3.4878h5.33401l1.9194-1.8636 1.9194 1.8636h5.3334l-3.5928-3.4878c.2814-.2736 2.7828-2.70179 2.7828-2.70179l-3.1926-2.95861c-1.08481 1.05061-2.1672 2.10361-3.2502 3.156z"/><path d="m188.998 235.594c-.2712-.264-3.2502-3.156-3.2502-3.156l-3.1932 2.95861s2.5014 2.42819 2.7834 2.70179l-3.5928 3.4878h5.3334l1.9194-1.8636 1.9194 1.8636h5.3334l-3.5922-3.4878c.2814-.2736 2.7828-2.70179 2.7828-2.70179l-3.1926-2.95861c-1.0848 1.05061-2.1672 2.10361-3.2508 3.156z"/><path d="m173.244 235.594c.2718-.264 3.25079-3.156 3.25079-3.156l3.19321 2.95861s-2.502 2.42819-2.7834 2.70179l3.5928 3.4878h-5.33401l-1.91939-1.8636-1.91941 1.8636h-5.33339l3.59279-3.4878c-.28139-.2736-2.7834-2.70179-2.7834-2.70179l3.1932-2.95861c1.08481 1.05061 2.1672 2.10361 3.25021 3.156z"/><path d="m204.753 321.219c-.27181.2634-3.2508 3.1554-3.2508 3.1554l-3.19321-2.9586s2.502-2.4276 2.7834-2.7012l-3.5928-3.4878h5.33401l1.9194 1.8636 1.9194-1.8636h5.3334l-3.5928 3.4878c.2814.2736 2.7828 2.7012 2.7828 2.7012l-3.1926 2.9586c-1.08481-1.0506-2.1672-2.1036-3.2502-3.1554z"/><path d="m188.998 321.219c-.2712.2634-3.2502 3.1554-3.2502 3.1554l-3.1932-2.9586s2.5014-2.4276 2.7834-2.7012l-3.5928-3.4878h5.3334l1.9194 1.8636 1.9194-1.8636h5.3334l-3.5922 3.4878c.2814.2736 2.7828 2.7012 2.7828 2.7012l-3.1926 2.9586c-1.0848-1.0506-2.1672-2.1036-3.2508-3.1554z"/><path d="m173.244 321.219c.2718.2634 3.25079 3.1554 3.25079 3.1554l3.19321-2.9586s-2.502-2.4276-2.7834-2.7012l3.5928-3.4878h-5.33401l-1.91939 1.8636-1.91941-1.8636h-5.33339l3.59279 3.4878c-.28139.2736-2.7834 2.7012-2.7834 2.7012l3.1932 2.9586c1.08481-1.0506 2.1672-2.1036 3.25021-3.1554z"/></g><g fill="#00843d" transform="matrix(.26458333 0 0 .26458333 -147.8922 -18.349714)"><path d="m134.029 281.713v3.0366l-7.27801-4.623-3.1806 2.4582-2.8182-.327-1.1784-1.6674 2.856-2.184-2.856-2.184 1.179-1.6674 2.8176-.327 3.1806 2.4576 7.27801-4.623v3.0366l-5.2062 3.3072z"/><path d="m134.029 267.635v3.0372l-7.27801-4.623-3.1806 2.4576-2.8182-.327-1.1784-1.6674 2.856-2.184-2.856-2.1834 1.179-1.66739 2.8176-.3276 3.1806 2.45759 7.27801-4.62239v3.0366l-5.2062 3.30659z"/><path d="m134.029 289.178v-3.0366l-7.27801 4.623-3.1806-2.4582-2.8182.327-1.1784 1.6674 2.856 2.184-2.856 2.184 1.179 1.6674 2.8176.327 3.1806-2.4576 7.27801 4.623v-3.0366l-5.2062-3.3072z"/><path d="m243.967 281.713v3.0366l7.278-4.623 3.18 2.4582 2.8182-.327 1.1784-1.6674-2.856-2.184 2.856-2.184-1.1784-1.6674-2.8182-.327-3.18 2.4576-7.278-4.623v3.0366l5.2056 3.3072z"/><path d="m243.967 267.635v3.0372l7.278-4.623 3.18 2.4576 2.8182-.327 1.1784-1.6674-2.856-2.184 2.856-2.1834-1.1784-1.66739-2.8182-.3276-3.18 2.45759-7.278-4.62239v3.0366l5.2056 3.30659z"/><path d="m243.967 289.178v-3.0366l7.278 4.623 3.18-2.4582 2.8182.327 1.1784 1.6674-2.856 2.184 2.856 2.184-1.1784 1.6674-2.8182.327-3.18-2.4576-7.278 4.623v-3.0366l5.2056-3.3072z"/><path d="m231.011 236.159v3.732h3.73141v3.855h-3.32641v-2.5878h-4.26v-4.9992z"/><path d="m243.566 245.393v3.7314h3.7314v3.8556h-3.327v-2.5878h-4.2594v-4.9992z"/><path d="m146.985 236.159v3.732h-3.7314v3.855h3.327v-2.5878h4.2594v-4.9992z"/><path d="m231.011 320.653v-3.7314h3.73141v-3.855h-3.32641v2.58781h-4.26v4.99859z"/><path d="m146.985 320.653v-3.7314h-3.732v-3.855h3.327v2.58781h4.26v4.99859z"/><path d="m243.566 311.419v-3.7314h3.7314v-3.855h-3.327v2.5878h-4.2594v4.9986z"/><path d="m134.43 245.393v3.7314h-3.7314v3.8556h3.327v-2.5878h4.2594v-4.9992z"/><path d="m134.431 311.419v-3.7314h-3.732v-3.855h3.327v2.5878h4.26v4.9986z"/><path d="m201.496 233.029c.26579.258 3.25739 3.162 3.25739 3.162s2.99101-2.904 3.25681-3.162c.25199.2328 2.28539 2.1168 2.5638 2.3748-.288.279-2.7762 2.6946-2.7762 2.6946l3.15119 3.0594h-4.1022l-2.0934-2.0328-2.094 2.0328h-4.1022l3.15121-3.0594s-2.48821-2.4156-2.77621-2.6946c.2784-.258 2.3118-2.142 2.56381-2.3748z"/><path d="m185.741 233.029c.2658.258 3.2568 3.162 3.2568 3.162s2.991-2.904 3.2574-3.162c.252.2328 2.28481 2.1168 2.5632 2.3748-.2874.279-2.7756 2.6946-2.7756 2.6946l3.1512 3.0594h-4.1028l-2.0934-2.0328-2.0934 2.0328h-4.1028l3.1512-3.0594s-2.4882-2.4156-2.7756-2.6946c.2784-.258 2.3118-2.142 2.5638-2.3748z"/><path d="m176.502 233.029c-.2664.258-3.2574 3.162-3.2574 3.162s-2.991-2.904-3.25681-3.162c-.25199.2328-2.28539 2.1168-2.56379 2.3748.28799.279 2.7762 2.6946 2.7762 2.6946l-3.1512 3.0594h4.1022l2.0934-2.0328 2.094 2.0328h4.1022l-3.1512-3.0594s2.4882-2.4156 2.7762-2.6946c-.2784-.258-2.3118-2.142-2.5638-2.3748z"/><path d="m201.496 323.784c.26579-.2586 3.25739-3.1626 3.25739-3.1626s2.99101 2.904 3.25681 3.1626c.25199-.2334 2.28539-2.1174 2.5638-2.3748-.288-.27959-2.7762-2.69459-2.7762-2.69459l3.15119-3.0594h-4.1022l-2.0934 2.03219-2.094-2.03219h-4.1022l3.15121 3.0594s-2.48821 2.415-2.77621 2.69459c.2784.2574 2.3118 2.1414 2.56381 2.3748z"/><path d="m185.741 323.784c.2658-.2586 3.2568-3.1626 3.2568-3.1626s2.991 2.904 3.2574 3.1626c.252-.2334 2.28481-2.1174 2.5632-2.3748-.2874-.27959-2.7756-2.69459-2.7756-2.69459l3.1512-3.0594h-4.1028l-2.0934 2.03219-2.0934-2.03219h-4.1028l3.1512 3.0594s-2.4882 2.415-2.7756 2.69459c.2784.2574 2.3118 2.1414 2.5638 2.3748z"/><path d="m176.502 323.784c-.2664-.2586-3.2574-3.1626-3.2574-3.1626s-2.991 2.904-3.25681 3.1626c-.25199-.2334-2.28539-2.1174-2.56379-2.3748.28799-.27959 2.7762-2.69459 2.7762-2.69459l-3.1512-3.0594h4.1022l2.0934 2.03219 2.094-2.03219h4.1022l-3.1512 3.0594s2.4882 2.415 2.7762 2.69459c-.2784.2574-2.3118 2.1414-2.5638 2.3748z"/></g><g stroke-width=".264583"><path d="m-109.10957 62.724179v2.443162h22.44613v-2.443162h3.32074v-14.824393h-3.32074v-2.443162h-22.44613v2.443162h-3.32074v14.824393z" fill="#383739"/><path d="m-108.98945 45.567802v2.438651h-3.32129v14.602301h3.32129v2.438652h22.21201v-2.438652h3.32157v-14.602433h-3.32163v-2.438651h-22.21201zm1.42942.939046h19.3534v2.354344l.79868.588809h3.0131v11.729561h-3.02702l-.78478.574461v2.368246h-19.35334v-2.354345l-.79882-.588362h-3.02702v-11.729561h3.01302l.81281-.588809v-2.354344z" fill="#ffc72c"/><path d="m-107.44799 46.618992v2.158372l2.91491-2.158372zm16.19991 0 2.91491 2.158372v-2.158372zm-20.01171 2.943145v2.018009l2.74675-2.018009h-2.74654zm23.9921 0 2.76063 2.03191v-2.03191zm2.76063 9.459066-2.76063 2.046261h2.76063zm-26.75281.01389v2.032358h2.74675zm3.8118 2.817125v2.144022h2.90086zm19.1148 0-2.90055 2.144022h2.90055z" fill="#d22630"/><path d="m-91.4362 46.621108c.0298.02191 6.88324 5.08381 6.9288 5.117465v7.146449c-.0456.03381-6.89896 5.095557-6.9288 5.117623h-12.90098c-.0297-.02207-6.88308-5.08381-6.92864-5.117623v-7.146449c.0456-.03366 6.89895-5.095557 6.92864-5.117465z" fill="#00843d"/><path d="m-109.61572 59.707929-.79661-.92456.74787-.867886-.74787-.867887.74787-.867727-.74787-.867886.74787-.867887-.74787-.867886.74771-.867886-.74771-.867886.79661-.924402h23.45833l.7966.924402-.74787.867886.74787.867886-.74787.867886.74787.867887-.74787.867886.74787.867727-.74787.867887.74787.867886-.7966.92456zm16.12519-11.968797-.92456-.796608-.86805.747871-.86772-.747871-.86789.747871-.86789-.747871-.86788.747871-.86789-.747871-.86773.747871-.86788-.747871-.92456.796608v15.145543l.92456.796766.86788-.747871.86773.747713.86789-.747872.86788.747872.86789-.747872.86789.747872.86772-.747713.86805.747871.92456-.796766z" fill="#383739"/></g><g fill="#ffc72c" transform="matrix(.26458333 0 0 .26458333 -147.8922 -18.349714)"><path d="m198.623 249.981-3.0654-2.6418-3.066 2.6418v56.85l3.066 2.6412 3.0654-2.6412z"/><path d="m185.503 249.981-3.066-2.6418-3.0654 2.6418v56.85l3.0654 2.6412 3.066-2.6412z"/><path d="m144.863 294.593-2.6412-3.066 2.6412-3.066h88.269l2.6412 3.066-2.6412 3.066z"/><path d="m233.132 275.34 2.6418 3.066-2.6418 3.0654h-88.2678l-2.6418-3.0654 2.6418-3.066z"/><path d="m233.132 268.352 2.6412-3.066-2.6412-3.0654h-88.269l-2.6412 3.0654 2.6412 3.066z"/></g><g fill="#d22630" transform="matrix(.26458333 0 0 .26458333 -147.8922 -18.349714)"><path d="m205.184 249.981-3.0654-2.6418-3.066 2.6418v56.85l3.066 2.6412 3.06462-2.64063z"/><path d="m178.943 249.981-3.066-2.6418-3.066 2.6418v56.85l3.066 2.6412 3.066-2.6412z"/><path d="m144.864 288.032-2.6418-3.066 2.6418-3.066h88.2678l2.6418 3.066-2.6418 3.066z"/><path d="m144.864 274.912-2.6418-3.066 2.6418-3.066h88.2678l2.6418 3.066-2.6418 3.066z"/><path d="m192.064 306.831-3.066 2.6412-3.066-2.6412v-56.85l3.066-2.6418 3.066 2.6418z"/></g><path d="m-90.04608 48.084519h-15.73752v1.249838h-2.01121v11.955145h2.01121v1.24968h15.79419v-1.24968h2.01121v-11.955145h-2.01121v-1.249838z" fill="#383739" stroke-width=".264583"/><path d="m-105.66814 48.202258v1.247577h-2.01801v11.729561h2.01801v1.247129h1.65369l-3.29329-2.760636v-8.702992l3.29329-2.760636h-1.65369zm13.91611 0 3.27903 2.760636v8.702993l-3.27903 2.760636h1.65342v-1.24713h2.0041v-11.729561h-2.0041v-1.247576h-1.65342z" fill="#d22630" stroke-width=".264583"/><g fill="#00843d" transform="matrix(.26458333 0 0 .26458333 -147.8922 -18.349714)"><path d="m166.525 251.535c-.1176.099-12.5613 10.5202-12.7119 10.6462v32.4681c.1506.12661 12.5943 10.5472 12.7119 10.6462h44.9681c.11813-.099 12.5083-10.5202 12.6589-10.6462v-32.4681c-.15068-.12594-12.5407-10.5472-12.6589-10.6462zm.63559 1.80085h43.6441l11.5466 9.69279v30.7732l-11.5466 9.63983h-43.6441l-11.4936-9.63983v-30.7732z"/><path d="m178.72 294.289 1.9536.8442.3594 2.2818-2.4594 2.16359 3.5724 3.4542h-3.4374l-2.4576-2.36579-2.4582 2.36579h-3.4374l3.573-3.4542-2.46-2.16359.36-2.2818 1.953-.8442 2.4696 1.9746.1338-.10681z"/><path d="m191.468 294.289 1.953.8442.36 2.2818-2.4594 2.16359 3.5724 3.4542h-3.4374l-2.4582-2.36579-2.4576 2.36579h-3.438l3.573-3.4542-2.4594-2.16359.36-2.2818 1.953-.8442 2.469 1.9746.1338-.10681z"/><path d="m199.277 294.289-1.953.8442-.36 2.2818 2.4594 2.16359-3.5724 3.4542h3.4374l2.45821-2.36579 2.45759 2.36579h3.43741l-3.57241-3.4542 2.4594-2.16359-.36-2.2818-1.95299-.8442-2.469 1.9746-.1344-.10681z"/><path d="m178.72 262.523 1.9536-.8442.3594-2.2812-2.4594-2.1636 3.5724-3.4542h-3.4374l-2.4576 2.3652-2.4582-2.3652h-3.4374l3.573 3.4542-2.46 2.163.36 2.2818 1.953.8442 2.4696-1.974.1338.1068z"/><path d="m191.468 262.523 1.953-.8442.36-2.2812-2.4594-2.1636 3.5724-3.4542h-3.4374l-2.4582 2.3652-2.4576-2.3652h-3.438l3.573 3.4542-2.4594 2.163.36 2.2818 1.953.8442 2.469-1.974.1338.1068z"/><path d="m199.277 262.523-1.953-.8442-.36-2.2812 2.4594-2.1636-3.5724-3.4542h3.4374l2.45821 2.3652 2.45759-2.3652h3.43741l-3.57241 3.4542 2.4594 2.163-.36 2.2818-1.95299.8442-2.469-1.974-.1344.1068z"/><path d="m221.901 266.167-1.95 1.6146 1.95 1.614v2.6766l-2.9988-2.4714s-2.0166 1.827-2.1522 1.95c-.1728-.0216-2.1156-.2658-2.3076-.2898-.0858-.1578-.6924-1.2762-.813-1.5.201-.2004 1.986-1.9794 1.986-1.9794s-1.785-1.7796-1.986-1.98c.1206-.2238.7272-1.3428.813-1.5.192-.024 2.1348-.2688 2.3076-.2904.1356.123 2.1522 1.9506 2.1522 1.9506l2.9988-2.4708z"/><path d="m221.901 276.792-1.95 1.6146 1.95 1.6134v2.67719l-2.9988-2.47139s-2.0166 1.827-2.1522 1.94999c-.1728-.0216-2.1156-.26639-2.3076-.28979-.0858-.15781-.6924-1.27681-.813-1.5.201-.20041 1.986-1.9794 1.986-1.9794s-1.785-1.7802-1.986-1.9806c.1206-.2232.7272-1.3422.813-1.50001.192-.0234 2.1348-.26819 2.3076-.28979.1356.12299 2.1522 1.95 2.1522 1.95l2.9988-2.47021z"/><path d="m221.901 290.646-1.95-1.61461 1.95-1.614v-2.6766l-2.9988 2.4714s-2.0166-1.8276-2.1522-1.9506c-.1728.0216-2.1156.2664-2.3076.2898-.0858.15781-.6924 1.27681-.813 1.5.201.20101 1.986 1.98 1.986 1.98s-1.785 1.7796-1.986 1.98c.1206.2232.7272 1.3422.813 1.5.192.024 2.1348.26821 2.3076.2898.1356-.12299 2.1522-1.94999 2.1522-1.94999l2.9988 2.47079z"/><path d="m156.097 266.167 1.9494 1.6146-1.9494 1.614v2.6766l2.9988-2.4714s2.0166 1.827 2.1522 1.95c.1722-.0216 2.1156-.2658 2.3076-.2898.0858-.1578.6918-1.2762.813-1.5-.20099-.2004-1.986-1.9794-1.986-1.9794s1.78501-1.7796 1.986-1.98c-.1212-.2238-.7272-1.3428-.813-1.5-.192-.024-2.1354-.2688-2.3076-.2904-.1356.123-2.1522 1.9506-2.1522 1.9506l-2.9988-2.4708z"/><path d="m156.097 276.792 1.9494 1.6146-1.9494 1.6134v2.67719l2.9988-2.47139s2.0166 1.827 2.1522 1.94999c.1722-.0216 2.1156-.26639 2.3076-.28979.0858-.15781.6918-1.27681.813-1.5-.20099-.20041-1.986-1.9794-1.986-1.9794s1.78501-1.7802 1.986-1.9806c-.1212-.2232-.7272-1.3422-.813-1.50001-.192-.0234-2.1354-.26819-2.3076-.28979-.1356.12299-2.1522 1.95-2.1522 1.95l-2.9988-2.47021z"/><path d="m156.097 290.646 1.9494-1.61461-1.9494-1.614v-2.6766l2.9988 2.4714s2.0166-1.8276 2.1522-1.9506c.1722.0216 2.1156.2664 2.3076.2898.0858.15781.6918 1.27681.813 1.5-.20099.20101-1.986 1.98-1.986 1.98s1.78501 1.7796 1.986 1.98c-.1212.2232-.7272 1.3422-.813 1.5-.192.024-2.1354.26821-2.3076.2898-.1356-.12299-2.1522-1.94999-2.1522-1.94999l-2.9988 2.47079z"/></g><path d="m-103.62212 48.791221c-.0306.02566-2.80513 2.34846-2.92891 2.452441.25008.207283.49199.424106.74274.630629.0635-.0574.54652-.490601.54652-.490601l.71472.0981.28027.518517s-.43592.43624-.5045.504502c.0686.0681.5045.504503.5045.504503l-.28027.518514-.71472.08409s-.48304-.419005-.54654-.476475l-.78478.658648v.224224c.26402.218527.51982.440359.78478.658654.0635-.05731.54654-.476472.54654-.476472l.71472.08408.28027.518518s-.43592.436239-.5045.504502c.0686.06811.5045.504502.5045.504502l-.28027.53253-.71472.08408s-.48304-.43302-.54654-.49049l-.78478.658657v.238236l.78478.658656c.0635-.05731.54654-.490487.54654-.490487l.71472.0981.28027.518517s-.43592.43624-.5045.504502c.0686.06826.5045.504502.5045.504502l-.28027.518515-.71472.0981s-.48304-.43302-.54654-.490487c-.24973.205663-.49356.411104-.74274.616614.12378.103976 2.89827 2.426647 2.92891 2.452441h.64464l.93894-.910907-.6026-.53253.11211-.728726.63063-.266263.64464.504502.63063-.504502.63062.266263.12613.728726-.61661.53253.9109.868865.91091-.868865-.61662-.53253.11212-.728726.64464-.266263.63063.504502.64464-.504502.63062.266263.11212.728726-.6026.53253.89689.88288.91091-.88288-.60261-.53253.11212-.728726.64464-.266263.63063.504502.63062-.504502.64464.266263.11212.728726-.6026.53253.93893.910907h.63063c.0306-.0258 2.80498-2.348465 2.92891-2.452441-.24964-.205587-.49271-.410499-.74274-.616614-.0635.05747-.53253.490487-.53253.490487l-.71471-.0981-.29429-.518515s.43608-.436239.5045-.504502c-.0684-.06826-.5045-.504502-.5045-.504502l.29429-.518517.71471-.0981s.46903.433181.53253.490487l.78478-.658656v-.238231l-.78478-.658657c-.0635.05747-.53253.49049-.53253.49049l-.71471-.08408-.29429-.53253s.43608-.436396.5045-.504502c-.0684-.06826-.5045-.504502-.5045-.504502l.29429-.518518.71471-.08408s.46903.419166.53253.476472c.26314-.216752.52223-.428646.78478-.644642v-.252251l-.78478-.644641c-.0635.05747-.53253.476475-.53253.476475l-.71471-.08409-.29429-.518514s.43608-.436399.5045-.504503c-.0684-.06826-.5045-.504502-.5045-.504502l.29429-.518517.71471-.0981s.46903.433181.53253.490487c.25116-.206899.50567-.409665.75675-.616614-.0965-.08093-2.91213-2.440686-2.94293-2.466453h-.63063l-.93893.910907.6026.53253-.11211.728726-.64464.280278-.63063-.504502-.63063.504502-.64464-.280278-.11211-.728726.6026-.53253-.89689-.868865-.91091.868865.6026.53253-.11211.728726-.63063.280278-.64464-.504502-.63063.504502-.64464-.280278-.11211-.728726.61661-.53253-.91091-.868865-.9109.868865.61661.53253-.12613.728726-.63062.280278-.63063-.504502-.64464.504502-.63063-.280278-.11211-.728726.6026-.53253-.95295-.910907zm-2.97095 6.236176v.574572l.33634-.294294z" fill="#d22630" stroke-width=".264583"/><g transform="matrix(.26458333 0 0 .26458333 -147.8922 -18.349714)"><g fill="#fff"><path d="m176.271 301.271-1.85424 1.74745h3.65424z"/><path d="m188.983 301.271-1.8 1.74745h3.65423z"/><path d="m201.747 301.271-1.85254 1.74745h3.70678z"/><path d="m174.364 253.761 1.90678 1.8 1.85424-1.8z"/><path d="m187.129 253.761 1.85424 1.8 1.90678-1.8z"/><path d="m199.895 253.761 1.85254 1.8 1.85424-1.8z"/><path d="m221.875 266.737-1.27119 1.05932 1.27119 1.00678z"/><path d="m221.875 277.33-1.27119 1.05932 1.27119 1.05932z"/><path d="m221.875 287.976-1.27119 1.05932 1.27119 1.05932z"/><path d="m156.091 266.685v2.17119l1.27119-1.05932z"/><path d="m156.091 277.33v2.17118l1.27119-1.11186z"/><path d="m156.091 287.924v2.17118l1.27119-1.05932z"/></g><g fill="#383739"><path d="m199.901 274.857v-3.7914h-3.837v-4.1562h-14.1318v4.1562h-3.837v3.7914h-5.2992v7.098h5.2992v3.7908h3.837v4.1568h14.1318v-4.1568h3.837v-3.7908h5.2986v-7.098z"/><path d="m188.783 267.338v4.2846l-6.0744 3.453v3.1164h-9.4842v-2.9064h5.2986v-3.7908h3.837v-4.1568z" fill="#ffc72c"/><path d="m189.212 289.475v-4.2846l6.0738-3.4536v-3.1158h9.4848v2.9058h-5.2986v3.7914h-3.837v4.1568z" fill="#ffc72c"/><path d="m195.286 278.192v-3.1164l-6.0738-3.453v-4.2846h6.423v4.1568h3.837v3.7908h5.2986v2.9064z" fill="#fff"/><path d="m173.225 278.621h9.4842v3.1158l6.0744 3.4536v4.2846h-6.423v-4.1568h-3.837v-3.7914h-5.2986z" fill="#fff"/><path d="m183.138 278.621v2.8884l5.6454 3.21v-6.0984z" fill="#d22630"/><path d="m188.783 272.094-5.6454 3.2094v2.8884h5.6454z" fill="#00843d"/><path d="m194.858 278.192v-2.8884l-5.6454-3.2094v6.0978z" fill="#d22630"/><path d="m189.212 284.719 5.6454-3.21v-2.8884h-5.6454z" fill="#00843d"/></g></g></g><g fill="#383739" transform="matrix(.26458333 0 0 .26458333 .01402 6.233134)"><path d="m200.449 378.42v5.7906h-1.9752l-9.4764 5.925-.1134-.0708-9.3624-5.8542h-1.9752v-5.7906h-5.6184v-6.2196h5.6184v-5.79059h1.9752l9.4758-5.9256 9.4764 5.9256h1.9752v5.79059h5.6184v6.2196z"/><path d="m188.998 389.63 8.6676-5.4198h-17.3346zm8.667-23.2206-8.667-5.4198-8.6664 5.4198z" fill="#ffc72c"/><g fill="#d22630"><path d="m200.021 372.2v-5.36219h-10.809v5.36219z"/><path d="m188.784 372.2v-5.36219h-10.809v5.36219z"/><path d="m205.639 377.991v-5.3628h-10.809v5.3628z"/><path d="m194.402 377.991v-5.3628h-10.809v5.3628z"/><path d="m183.165 377.991v-5.3628h-10.8084v5.3628z"/><path d="m200.021 383.782v-5.3628h-10.809v5.3628z"/><path d="m188.784 383.782v-5.3628h-10.809v5.3628z"/></g><path d="m185.807 368.029v2.97959h-4.8552v-2.97959z"/><path d="m197.044 368.029v2.97959h-4.8552v-2.97959z"/><path d="m180.188 373.82v2.9796h-4.8552v-2.9796z"/><path d="m191.426 373.82v2.9796h-4.8552v-2.9796z"/><path d="m202.663 373.82v2.9796h-4.8552v-2.9796z"/><path d="m185.807 379.611v2.9796h-4.8552v-2.9796z"/><path d="m197.044 379.611v2.9796h-4.8552v-2.9796z"/><g fill="#fff"><path d="m185.35 368.486h-3.9408v2.06519h3.9408z"/><path d="m196.587 368.486h-3.9408v2.06519h3.9408z"/><path d="m179.731 374.277h-3.9408v2.0652h3.9408z"/><path d="m190.969 374.277h-3.9408v2.0652h3.9408z"/><path d="m202.205 374.277h-3.9408v2.0652h3.9408z"/><path d="m185.35 380.068h-3.9408v2.0652h3.9408z"/><path d="m196.587 380.068h-3.9408v2.0652h3.9408z"/></g></g><g stroke-width=".264583" transform="translate(147.8922 -10.22497)"><path d="m-114.11126 108.47937 11.12615-5.98789h.0143 10.18255l11.12615 5.98789v9.86631l-11.12615 5.98773h-10.19684l-11.12615-5.98773z" fill="#383739"/><path d="m-102.94928 102.60482-11.04307 5.94191v9.72545l11.04307 5.94191h10.13174l11.04345-5.94191v-9.72545l-11.04345-5.94191zm.19597.79869h9.73979l10.45464 5.61948v8.78687l-10.45464 5.61949h-9.74567l-10.45426-5.61949v-8.78687z" fill="#00843d"/><path d="m-97.82986 113.35564v9.95897h4.78774l10.36717-5.57927v-4.26625h-15.26826v-9.95887h-4.78758l-10.36733 5.57911v4.26625z" fill="#ffc72c"/><path d="m-97.94336 113.35564v9.95897h-4.78759l-10.36732-5.57927v-4.26625h15.26825v-9.95887h4.78774l10.36717 5.57911v4.26625z" fill="#fff"/><path d="m-96.9562 122.75708v-2.87846l-.9306.5904-.93075-.5904v2.87846h-2.89496l1.95342-1.43256v-2.04327l-2.97911-1.89024h-2.08168v-7.95671h2.08168l2.97911-1.89023v-2.04327l-1.95342-1.43256h.17319 2.72177v2.87861l.93075-.59055.9306.59055v-2.87861h2.89512l-1.95358 1.43256v2.04327l2.97911 1.89023h2.08169v7.95671h-2.08169l-2.97911 1.89024v2.04327l1.95358 1.43256z" fill="#383739"/><path d="m-96.83926 104.18809v2.97095l-.9951-.63051v.84084l4.55443 2.90054h1.49961v3.08351h.71482v-3.81177h-2.00411l-3.05482-1.93415v-2.15837l1.72338-1.26103h-2.43821zm-7.86193 9.27746v3.8118h1.98998l3.06917 1.9476v2.15837l-1.72383 1.26103h2.43865v-2.97095l.98075.63096v-.86909l-4.55443-2.87274h-1.48561v-3.09697h-.71469z" fill="#ffc72c"/><path d="m-101.36601 104.18809 1.72383 1.26103v2.15837l-3.06917 1.93415h-1.98998v3.8118h.71469v-3.0835h1.48561l4.55443-2.88666v-.85474l-.98075.63051v-2.9709h-2.43865zm9.58553 9.27746v3.09697h-1.4996l-4.55443 2.87274v.86909l.9951-.63096v2.97095h2.4382l-1.72338-1.26103v-2.15837l3.05483-1.94761h2.0041v-3.8118h-.71482z" fill="#fff"/><path d="m-103.87823 116.44439h1.41224l4.5793 2.90528 4.57914-2.90528h1.4124v-6.0633h-1.39589-.0165l-4.57914-2.90529-4.5793 2.90529h-1.41224z" fill="#d22630"/><path d="m-94.71703 114.85345h.97774v-.4626h-.73549v-.8409h1.57194v2.14455h-1.50701l.00016 1.46304h-3.10214v-2.10216h1.36525v.84089h-.52879v.42037h1.42922v-.80375l-5.81057-3.54092h-.97774v.46244h.73565v.8409h-1.5721v-2.14439h1.50701v-1.46304h.0567 3.0453v2.10216h-1.36525v-.84089h.5288v-.42037h-1.42907v.80375zm-.52912-3.54092v-.80375h-1.42922v.42037h.52879v.84089h-1.36525v-2.10216h3.10214v1.46304h1.50685v2.14439h-1.57194v-.8409h.73565v-.46244h-.9779l-5.81041 3.54092v.8036h1.42906v-.42037h-.52879v-.8409h1.36525v2.10232h-3.10198v-1.4632h-1.50701v-2.14439h1.5721v.8409h-.73565v.4626h.97774z" fill="#383739"/><path d="m-95.1327 115.44929v.98075h-1.65608v-.64706h.52896v-.6142h-1.13856v1.87531h2.87528v-1.46304h1.50702v-1.91754h-1.34525v.61404h.73549v.6893h-1.12284l-5.89216-3.59061v-.98076h1.65608v.64707h-.5288v.6142h1.1384v-1.87547h-2.87528v1.46304h-1.50686v1.9177h1.34509v-.61421h-.73549v-.68929h1.12284zm.38402-3.59077h1.123v.68929h-.73565v.61421h1.34525v-1.9177h-1.50686v-1.46304h-2.87528v1.87547h1.1384v-.6142h-.5288v-.64707h1.65592v.98076l-5.89216 3.59061h-1.12284v-.6893h.73549v-.6142h-1.34509v1.9177h1.50686v1.46304h2.87528v-1.87547h-1.1384v.6142h.5288v.64707h-1.65608v-.98076z" fill="#fff"/></g><g fill="#383739" transform="matrix(.26458333 0 0 .26458333 .01402 -28.574682)"><path d="m238.042 499.884v11.7618h-5.0052v-4.1538h-5.0454v4.1538h-5.0052v-11.7618h5.0052v4.1538h5.0454v-4.1538z"/><path d="m220.132 515.499v11.7618h-5.0052v-4.1538h-5.0454v4.1538h-5.0052v-11.7618h5.0052v4.1544h5.0454v-4.1544z"/><path d="m238.042 496.113v-11.7618h-5.0052v4.15379h-5.0454v-4.15379h-5.0052v11.7618h5.0052v-4.1538h5.0454v4.1538z"/><path d="m139.953 499.884v11.7618h5.0052v-4.1538h5.04541v4.1538h5.00519v-11.7618h-5.00519v4.1538h-5.04541v-4.1538z"/><path d="m139.953 496.113v-11.7618h5.0052v4.15379h5.04541v-4.15379h5.00519v11.7618h-5.00519v-4.1538h-5.04541v4.1538z"/><path d="m220.132 480.499v-11.7618h-5.0052v4.1538h-5.0454v-4.1538h-5.0052v11.7618h5.0052v-4.1538h5.0454v4.1538z"/><path d="m157.864 515.499v11.7618h5.00521v-4.1538h5.04539v4.1538h5.0052v-11.7618h-5.0052v4.1544h-5.04539v-4.1544z"/><path d="m157.864 480.499v-11.7618h5.00521v4.1538h5.04539v-4.1538h5.0052v11.7618h-5.0052v-4.1538h-5.04539v4.1538z"/><path d="m223.118 472.256v8.93219h16.5972z"/><path d="m154.877 523.742v-8.9322h-16.5972z"/><path d="m154.877 472.256v8.93219h-16.5972z"/><path d="m223.118 523.742v-8.9322h16.5972z"/></g><g fill="#d22630" transform="matrix(.26458333 0 0 .26458333 .01402 -28.574682)"><path d="m233.465 507.064v4.1538h4.1484v-10.9044h-4.1484v4.1538h-5.9028v-4.1538h-4.1478v10.9044h4.1478v-4.1538z"/><path d="m215.555 522.678v4.1538h4.1478v-10.9044h-4.1478v4.1538h-5.90281v-4.1538h-4.1478v10.9044h4.1478v-4.1538z"/><path d="m233.465 488.934v-4.1538h4.1484v10.9044h-4.1484v-4.1544h-5.9028v4.1544h-4.1478v-10.9044h4.1478v4.1538z"/><path d="m144.53 507.064v4.1538h-4.1478v-10.9044h4.1478v4.1538h5.9028v-4.1538h4.1478v10.9044h-4.1478v-4.1538z"/><path d="m144.53 488.934v-4.1538h-4.1478v10.9044h4.1478v-4.1544h5.9028v4.1544h4.1478v-10.9044h-4.1478v4.1538z"/><path d="m215.555 473.32v-4.1544h4.1478v10.905h-4.1478v-4.15439h-5.90281v4.15439h-4.1478v-10.905h4.1478v4.1544z"/><path d="m162.44 522.678v4.1538h-4.1478v-10.9044h4.1478v4.1538h5.9028v-4.1538h4.1484v10.9044h-4.1484v-4.1538z"/><path d="m162.44 473.32v-4.1544h-4.1478v10.905h4.1478v-4.15439h5.9028v4.15439h4.1484v-10.905h-4.1484v4.1544z"/></g><g stroke-width=".264583" transform="translate(147.90622 -10.22509)"><path d="m-88.7393 106.7945v2.06016h3.82614zm-22.11388 11.18336 3.8258 2.06016v-2.06016h-3.82601z" fill="#ffc72c"/><path d="m-107.02757 106.7945-3.82579 2.06016h3.82579zm18.28808 11.18336v2.06016l3.82614-2.06016z" fill="#fff"/></g></g></svg>