<?xml version="1.0" encoding="UTF-8" standalone="no"?>
<!DOCTYPE svg PUBLIC "-//W3C//DTD SVG 1.1//EN" "http://www.w3.org/Graphics/SVG/1.1/DTD/svg11.dtd">
<svg xmlns="http://www.w3.org/2000/svg" version="1.1" width="660" height="480" id="norway_unionflag_svg">
<desc>Norge-Unionsflagg-1844</desc>
<g transform="scale(3)">
<rect width="220" height="160" fill="#BA0C2F"/>
<path d="M 0,60 h24 v-60 h12 v60 h24 v-60 h40 v60 h120 v40 h-120 v60 h-40 v-60 h-60 z" fill="#fff"/>
<g fill="#00205B">
<path d="M 0,70 h70 v-70 h20 v70 h130 v20 h-130 v70 h-20 v-70 h-70 z"/>
<rect x="27" width="6" height="60"/>
<path d="M 0,0 v60 l 24,-24 v-12 z M60,0 v60 l -24,-24 v-12 z"/>
</g>
<path d="M 0,24 h24 l 12,12 h24 v-12 h-24 l -12,12 h-24 z" fill="#facc07"/>
</g>
</svg>