<svg xmlns="http://www.w3.org/2000/svg" width="960" height="640" viewBox="-350 -250 960 640" version="1"><path d="M-350-250h960v640h-960z" fill="#c10"/><g fill="#fcd116"><path d="M-217.023-207.779c45.963 12.881 92.458 46.861 87.37 104.922-5.086 58.023-68.842 82.339-131.565 28.106l-2.246 2.49c1.066 1.397 2.63 5.487.017 8.327-2.465 2.68-6.306-.32-8.392 1.83-2.473 2.55-1.741 1.544-4.98 9.05-7.655 17.743-21.083 23.036-25.65 18.707-4.681-4.436-1.245-17.138 14.605-26.563 7.972-4.74 8.371-4.684 9.621-6.785 1.405-2.362-2.418-6.016.289-9.205 2.8-3.299 6.429-1.996 7.896-.944l6.941-8.6c61.107 34.191 97.438 18.226 106.071-11.863 8.48-29.555 6.106-65.972-59.977-109.472z"/><path d="M-256.794-158.857c-3.82 3.82-4.756 3.596-2.939 5.413l115.766 119.996c1.817 1.818 6.356.205 10.177-3.616 3.82-3.82 5.434-8.36 3.616-10.177l-121.063-114.442c-1.818-1.817-1.736-.995-5.557 2.826z"/><path d="M-264.248-121.515l49.698-49.698-28-5.063-38.23 38.23z"/></g><path d="M-11.82-101.184c-.3-.02-.605 0-.929.035-7.32.763-12.845 7.742-10.568 17.924C-20.51-70.668-7.701-63.997 5.068-59.517c8.497 2.981 26 5.289 28.1 7.213 1.416 1.298 1 3.724-3.356 4.891-4.971 1.2-10.435 1.491-15.603.857-7.32-.897-18.738-5.49-21.138-6.748-3.284-1.72-4.805-5.663-5.606-6.463-1.028-.914-1.606-1.078-3.32-.964-2.567.172-3.347.456-5.034 3.5-1.54 2.774-3.476 6.123-1.393 13.032 1.98 4.244 4.737 8.744 13.282 11.89 9.62 3.541 24.475 1.19 32.742-.25 0 0 7.673-1.265 8.64-1.178 2.781.248 2.995 3.412.786 4.641-.849.472-3.953 1.179-4.856 1.464-7.179 2.271-15.311 3.627-23.28 3.5-7.683-.124-14.597-1.036-17.71-3.214-1.713-1.2-2.834-2.464-3.463-2.75-.628-.285-3.571-.358-4.034-.107-3.62 1.961-4.81 7.65-3.892 11.783C-20.201-4.805-6.083-6.56 9.638-9.994c3.006-.787 6.806-.854 9.605-1.606 2.221-.598 11.418-3.634 14.21-2.535 2.43.955 1.494 3.802-.106 4.784C26.597-5.576 16.537-1.04 6.46-.032-5.191 1.133-13.207-.72-14.75-1.567c-1.54-.848-2.374-1.286-3.213-1.286-2.642 0-3.385.735-5.07 4.428-2.568 5.629 1.522 10.044 3 12.604.832 1.442 5.899 6.19 17.46 4.748 16.609-2.09 27.682-13.71 39.24-13.71 3.062 0-.027 4.192-.965 4.927-2.318 1.814-9.336 6.09-18.53 10.854-11.406 5.91-28.217 8.714-36.384 4.892-1.76-.88-3.322 1.896-3.535 2.856-.233 2.554-.38 5.184-.464 5.856-2.198 9.977 8.064 16.738 19.316 14.603 10.48-1.988 14.664-4.505 26.565-12.96 8.158-5.797 12.522-12.164 16.46-11.712.833.165 1.433 1.23.535 2.785-1.383 2.396-9.026 10.333-14.567 14.354 0 0-15.13 9.659-19.21 11.925-4.08 2.267-13.901 8.631-21.994 5.32-2.493-1.02-3.834-1.877-5.534-.857-1.7 1.02-1.6 3.226-1.714 5.606-.113 2.38.107 7.248.107 7.248 1.105 6.992 9.776 11.4 15.317 11.354 13.453-.111 29.028-16.933 38.276-27.1 1.888-2.075 8.805-9.68 9.712-10.247.714-.447 2.199.184 2.142 1.714-.057 1.53-3.511 5.556-7.176 11.247C28.883 68.519 18.142 80.46 4.068 90.016c-3.231 2.195-9.797 2.971-18.352.679-2.828-.758-3.502-.969-4.749 1.07-1.223 1.972-2.233 4.207-2.606 5.964-2.22 10.434 6.757 14.111 14.496 16.388 13.135.25 24.063-8.042 29.92-15.781 8.92-9.979 15.265-23.477 21.53-33.742 1.793-2.986 4.118-5.491 5-6.212 2.976-2.436 5.605-.346 6.284 3.177.688 3.573-.66 7.392-2.357 11.39-2.412 5.686-7.842 11.485-10.569 14.175-6.024 6.025-10.44 5.972-10.89 7.356-1.542 4.735.738 8.148 4.035 9.711 3.297 1.564 7.733.67 10.926-.75 4.715-2.716 8.85-6.686 12.14-11.46 3.29-4.776 5.75-10.375 7.105-16.39.827-3.67 2.738-6.65 5.141-6.89 2.404-.241 3.277 1.289 3.678 2.892.4 1.602.251 3.26.071 4.534-.606 4.308-2.606 8.682-5.07 11.319-3.095 3.313-6.855 4.623-7.07 5.105-.215.487-.609 1.63-.285 3.143 1.138 5.074 7.407 3.323 10.926 1.392 7.01-3.847 10.22-11.381 12.64-18.638 2.331-7.879 11.668-2.78 7.14 4.463-4.803 8.613-13.201 15.2-22.6 20.638-8.876 5.134-17.383 8.515-25.709 14.139 2.72 3.052 6.112 5.702 8.998 8.176-11.233 5.115-22.043 10.168-32.991 15.282-7.686-3.02-13.252-6.103-22.102-8.07-1.986-3.874-11.354-3.859-11.354 1.536-4.98-.108-5.07 4.822-5.07 8.998 1.548-.991 3.095-2.964 5.284-2.964 2.982 3.493 7.595 3.695 10.426.286 3.584-.411 7.689.488 10.283 1.785-3.454 1.605-6.55 2.753-10.39 3.606-5.315-2.2-8.746-.847-9.855 4.142-2.622.89-2.627 5.814-1.999 8.64 1.266-1.111 2.53-2.335 3.713-2.927 2.441.154 5.812 1.084 7.855-.143 4.94-2.966 9.172-6.482 14.782-7.105-1.87 3.516-5.51 6.179-7.712 8.748-4.375.56-8.522 3.14-6.998 7.712-1.677 4.527-.407 8.07 2.892 9.926-.211-1.905-.158-3.361.714-5.106 5.962.11 9.565-2.642 8.855-9.033 3.733-3.708 9.652-9.607 14.14-10.605 2.321.321 4.928 1.322 7.283 2.107-.103 5.37 5.394 6.439 9.069 4.142 1.405 1.415 1.9 3.443 1.285 5.284 2.61-1.385 3.206-4.75 2.143-6.427.843-5.399-1.058-7.578-7.57-7.177-3.184-1.168-6.541-2.25-8.105-2.82 12.331-4.35 25.558-7.948 36.634-11.64 4.19 3.702 8.463 7.188 12.532 10.676 9.46-6.513 15.396-16.413 20.459-25.565 1.88-3.4 9.033-15.001 10.711-16.603 1.681-1.604 5.2-1.434 5.928.892 1.28 4.093.952 15.196-2.678 22.923-5.524 11.757-16.406 21.16-32.992 24.887-8.863 1.298-14.434.948-17.567.642-1.566-.152-5.259-.926-5.927 2.143-1.112 5.109 4.054 10.476 6.284 12.032 4.913 3.429 12.642 4.709 18.96 2.393 9.093-3.333 12.555-8.773 17.567-13.068 1.045-.895 2.532-.075 3.142.535 1.868 1.87-1.726 10.81-7.641 14.746-6.017 4.005-19.195 2.942-20.566 3.32-1.376.381-2.52 1.743-2.214 4.036 1.363 8.61 11.9 13.991 20.245 9.818 4.312-2.13 7.113-4.292 9.854-7.033 2.24-2.239 4.659-5.097 5.499-5.785.84-.687 2.316-.615 2.928.607.611 1.223-.273 5.03-.5 5.642-2.088 5.632-7.525 10.634-11.104 11.675-8.428 2.452-13.469-1.73-14.211 2.678-.812 4.82 6.178 12.057 14.282 10.926 10.569-1.475 14.957-10.31 19.46-17.317 2.084-3.244 6.004-2.311 5.426 2.5-1.16 9.67-7.609 18.348-12.603 24.85 6.233 8.161 13.76 17.317 19.673 24.601 5.914-7.284 13.44-16.44 19.673-24.6-4.994-6.503-11.443-15.18-12.603-24.852-.577-4.81 3.342-5.743 5.427-2.499 4.502 7.006 8.89 15.842 19.459 17.317 8.104 1.13 15.13-6.106 14.318-10.926-.743-4.408-5.783-.226-14.21-2.678-3.581-1.041-9.053-6.043-11.14-11.675-.228-.612-1.112-4.42-.5-5.642.61-1.222 2.087-1.294 2.927-.607.84.688 3.26 3.546 5.499 5.785 2.741 2.741 5.542 4.903 9.854 7.034 8.346 4.172 18.882-1.209 20.245-9.82.306-2.292-.838-3.654-2.214-4.034-1.37-.379-14.549.684-20.566-3.32-5.915-3.938-9.474-12.878-7.605-14.747.61-.61 2.061-1.43 3.106-.535 5.012 4.295 8.475 9.735 17.567 13.068 6.318 2.316 14.047 1.036 18.96-2.393 2.23-1.556 7.396-6.923 6.284-12.032-.668-3.069-4.361-2.295-5.927-2.143-3.133.306-8.705.656-17.567-.642-16.587-3.728-27.468-13.13-32.992-24.887-3.63-7.727-3.959-18.83-2.678-22.922.728-2.327 4.247-2.497 5.927-.893 1.68 1.602 8.831 13.202 10.712 16.603 5.063 9.152 10.998 19.052 20.459 25.565 4.07-3.488 8.342-6.974 12.532-10.676 11.076 3.692 24.303 7.29 36.634 11.64-1.564.57-4.92 1.652-8.105 2.82-6.512-.4-8.413 1.778-7.57 7.177-1.063 1.677-.468 5.042 2.143 6.427-.614-1.841-.119-3.87 1.285-5.284 3.675 2.297 9.171 1.227 9.07-4.142 2.354-.785 4.961-1.786 7.283-2.107 4.487.998 10.406 6.897 14.14 10.605-.711 6.391 2.892 9.143 8.854 9.033.872 1.745.925 3.2.714 5.106 3.299-1.856 4.568-5.399 2.892-9.926 1.524-4.571-2.623-7.152-6.998-7.712-2.202-2.57-5.842-5.232-7.712-8.748 5.61.623 9.841 4.14 14.782 7.105 2.043 1.227 5.414.297 7.855.143 1.183.592 2.482 1.816 3.749 2.928.628-2.827.622-7.751-2-8.64-1.109-4.99-4.576-6.342-9.89-4.143-3.84-.853-6.936-2.001-10.39-3.606 2.594-1.297 6.699-2.196 10.283-1.785 2.83 3.409 7.444 3.207 10.426-.286 2.189 0 3.736 1.973 5.284 2.964 0-4.176-.09-9.106-5.07-8.998 0-5.395-9.369-5.41-11.354-1.535-8.85 1.966-14.416 5.048-22.102 8.07-10.948-5.115-21.758-10.168-32.991-15.283 2.886-2.474 6.278-5.124 8.997-8.176-8.325-5.624-16.832-9.005-25.707-14.14-9.4-5.437-17.763-12.024-22.566-20.637-4.527-7.243 4.773-12.342 7.106-4.463 2.418 7.257 5.628 14.791 12.64 18.638 3.518 1.93 9.787 3.682 10.925-1.393.324-1.512-.07-2.655-.286-3.142-.214-.482-3.974-1.792-7.07-5.105-2.463-2.637-4.463-7.01-5.07-11.319-.179-1.274-.328-2.932.072-4.535.4-1.602 1.274-3.132 3.678-2.892 2.404.24 4.314 3.221 5.141 6.891 1.356 6.015 3.815 11.614 7.105 16.39 3.29 4.774 7.425 8.744 12.14 11.46 3.193 1.42 7.629 2.314 10.926.75 3.297-1.563 5.577-4.976 4.035-9.711-.45-1.384-4.866-1.331-10.89-7.356-2.728-2.69-8.157-8.489-10.57-14.175-1.695-3.998-3.044-7.817-2.356-11.39.679-3.523 3.308-5.613 6.284-3.177.882.72 3.207 3.226 5 6.212 6.265 10.265 12.61 23.763 21.53 33.742 5.857 7.739 16.785 16.031 29.92 15.781 7.738-2.277 16.752-5.954 14.532-16.388-.374-1.757-1.383-3.992-2.607-5.963-1.246-2.04-1.956-1.829-4.784-1.071-8.555 2.292-15.12 1.516-18.352-.679-14.074-9.556-24.78-21.497-30.92-32.134-3.666-5.69-7.156-9.718-7.213-11.247-.057-1.53 1.428-2.16 2.142-1.714.906.566 7.824 8.172 9.712 10.247 9.248 10.167 24.859 26.99 38.311 27.1 5.542.046 14.177-4.362 15.282-11.354 0 0 .221-4.868.107-7.248-.113-2.38.022-4.586-1.678-5.606-1.7-1.02-3.077-.163-5.57.857-8.093 3.31-17.915-3.053-21.994-5.32-4.08-2.266-19.21-11.925-19.21-11.925-5.54-4.021-13.148-11.958-14.532-14.354-.897-1.555-.333-2.62.5-2.785 3.938-.452 8.302 5.915 16.46 11.711 11.901 8.456 16.085 10.973 26.565 12.961 11.252 2.135 21.514-4.626 19.316-14.603-.083-.672-.231-3.302-.464-5.856-.213-.96-1.74-3.736-3.5-2.856-8.166 3.822-24.978 1.018-36.382-4.892-9.196-4.765-16.214-9.04-18.531-10.854-.94-.735-4.063-4.927-1-4.927 11.557 0 22.63 11.62 39.24 13.71 11.56 1.441 16.627-3.306 17.46-4.748 1.477-2.56 5.567-6.975 2.999-12.604-1.685-3.693-2.428-4.428-5.07-4.428-.839 0-1.673.438-3.214 1.286-1.54.847-9.557 2.7-21.209 1.535-10.076-1.008-20.137-5.544-26.886-9.32-1.6-.98-2.535-3.828-.107-4.784 2.793-1.098 11.99 1.938 14.211 2.535 2.799.753 6.599.82 9.605 1.607 15.72 3.433 29.839 5.19 33.705-8.426.918-4.132-.272-9.822-3.892-11.783-.463-.25-3.406-.178-4.034.107-.629.286-1.75 1.55-3.464 2.75-3.112 2.178-10.026 3.09-17.71 3.213-7.968.128-16.1-1.228-23.28-3.499-.902-.286-4.006-.992-4.855-1.464-2.21-1.229-1.995-4.393.786-4.642.967-.086 8.64 1.179 8.64 1.179 8.267 1.44 23.121 3.791 32.742.25 8.545-3.146 11.301-7.646 13.282-11.89 2.083-6.91.146-10.258-1.393-13.033-1.687-3.043-2.467-3.327-5.034-3.499-1.714-.114-2.292.05-3.32.964-.8.8-2.322 4.743-5.606 6.463-2.4 1.257-13.818 5.851-21.138 6.748-5.168.634-10.632.343-15.603-.857-4.355-1.167-4.772-3.593-3.356-4.891 2.1-1.924 19.603-4.232 28.1-7.213 12.77-4.48 25.578-11.151 28.385-23.708 2.277-10.182-3.248-17.161-10.568-17.924-2.59-.27-4.43 1.23-4.892 3.678-2.557 9.544-8.28 15.144-15.389 19.423-7.108 4.28-15.622 7.248-23.815 10.212l.071-2.75c-15.57 5.168-41.723 11.738-46.202 15.818-7.325 6.673-1.675 16.287-1.714 24.28-4.318 5.242-9.18 8.71-18.852 2.678-.09-5.763-1.48-9.217-.571-14.64.65-3.887 2.173-7.338 4.248-10.604 6.186-9.733 10.03-10.791 15.104-13.354 8.97-4.53 34.83-1.331 34.955-12.497 5.373 0 11.146-.044 13.425-4.891.57-1.079.59-2.35.321-3.25-.27-.898-.852-1.31-1.57-1.07-.72.24-3.302 2.647-5.999 3.606-2.697.959-4.427 1.32-4.427 1.32s.397-5.33-.608-7.069c-1.149-1.99-3.862-4.236-6.32-4.356-2.456-.12-11.032.464-11.032.464.107-2.86-2.058-4.78-4.57-5.962-1.272-.598-6.054-.094-12.104.07-8.658.237-16.278 3.469-21.21 5.5-2.78 1.144-7.37.867-9.318.428-1.949-.44-4.535-1.607-4.535-1.607 1.643 4.497 5.34 8.514 9.248 11.997-2.007.727-8.716 5.48-9.248 7.462.607.112 1.364.264 1.928.536-3.157 3.06-7.521 7.771-10.283 10.533.862.538 1.606 1.213 2.285 1.892-3.642 2.951-8.381 8.501-11.675 14.39-3.294-5.889-8.034-11.439-11.676-14.39.68-.68 1.424-1.354 2.286-1.892-2.762-2.762-7.126-7.473-10.283-10.533.564-.272 1.321-.424 1.927-.536-.531-1.982-7.24-6.735-9.247-7.462 3.908-3.483 7.605-7.5 9.247-11.997 0 0-2.586 1.167-4.534 1.607-1.948.44-6.502.716-9.283-.429-4.931-2.03-12.587-5.262-21.245-5.498-6.05-.165-10.832-.67-12.104-.071-2.513 1.181-4.678 3.101-4.57 5.962 0 0-8.576-.584-11.033-.464-2.457.12-5.171 2.366-6.32 4.356-1.004 1.74-.607 7.07-.607 7.07s-1.73-.362-4.427-1.321c-2.697-.96-5.28-3.367-5.999-3.606-.719-.24-1.301.172-1.57 1.07-.27.9-.248 2.171.32 3.25 2.28 4.847 8.053 4.891 13.426 4.891.123 11.166 25.985 7.967 34.955 12.497 5.074 2.563 8.918 3.621 15.103 13.354 2.076 3.266 3.598 6.717 4.25 10.604.907 5.423-.483 8.877-.572 14.64-9.672 6.031-14.535 2.564-18.852-2.678-.039-7.993 5.61-17.607-1.714-24.28-4.48-4.08-30.633-10.65-46.203-15.817l.072 2.75C23.153-70.8 14.64-73.769 7.53-78.049.423-82.327-5.3-87.927-7.857-97.47c-.404-2.142-1.87-3.574-3.964-3.714zM75.62-90.723c3.169-.17 6.196.848 8.712 3.25-5.135 3.767-12.324 1.717-14.496-1.679 1.934-.927 3.883-1.468 5.784-1.57zm107.83 0c2.194-.049 4.456.49 6.712 1.571-2.172 3.396-9.361 5.446-14.496 1.678 2.264-2.16 4.962-3.185 7.783-3.249zM51.484-85.117c3.585.022 7.434 1.308 8.247 3.75-5.237-.324-10.228-.431-14.567-1.43.91-1.578 3.531-2.337 6.32-2.32zm157.03 0c2.789-.017 5.41.742 6.32 2.32-4.339.999-9.33 1.106-14.568 1.43.814-2.442 4.663-3.728 8.248-3.75zM60.268-80.368c-.803 4.226-14.137 5.44-14.353 1.142 4.953.475 10.116-.2 14.353-1.142zm139.5 0c4.237.941 9.364 1.617 14.317 1.142-.216 4.299-13.514 3.084-14.317-1.142z"/></svg>