<?xml version="1.0" encoding="UTF-8" standalone="no"?>
<svg
   width="900"
   height="600"
   viewBox="0 0 9 6"
   version="1.1"
   id="svg42652"
   xmlns="http://www.w3.org/2000/svg"
   xmlns:svg="http://www.w3.org/2000/svg">
  <defs
     id="defs42656" />
  <g
     id="g47282">
    <rect
       fill="#003994"
       width="9"
       height="6"
       id="rect42646" />
    <rect
       fill="#FFF"
       width="9"
       height="4"
       id="rect42648" />
    <rect
       fill="#DE0000"
       width="9"
       height="2"
       id="rect42650" />
    <g
       id="g970"
       transform="matrix(0.003,0,0,0.003,3.6085731,2.2171986)">
      <g
         id="g4120"
         transform="translate(581.42879,214.32582)">
        <path
           id="path4238"
           fill="#ffffff"
           stroke="#e61717"
           stroke-width="7.276"
           d="m -539.617,-217.754 h 510.533 c 0,-0.606 0,299.528 0,299.528 0,37.593 9.701,134.606 -61.846,174.624 -46.081,25.466 -137.032,19.402 -192.814,54.57 -56.995,-35.168 -146.733,-29.104 -192.813,-54.57 -71.547,-40.019 -63.06,-137.031 -63.06,-174.624 z" />
        <path
           id="path4240"
           fill="#e61717"
           d="m -435.102,188.492 v 80.031 c 30.121,8.242 66.393,11.895 100.656,21.344 V 188.492 Z m 201.312,0 v 101.375 c 34.266,-9.449 70.504,-13.102 100.625,-21.344 v -80.031 z" />
        <g
           id="g4244"
           transform="matrix(1.21267,0,0,1.21267,-2102.52,-1134.53)">
          <rect
             id="rect4246"
             x="1375"
             y="757.73401"
             fill="#e61717"
             width="83"
             height="84.266998" />
          <rect
             id="rect4248"
             x="1541"
             y="757.10101"
             fill="#e61717"
             width="83.000999"
             height="84.900002" />
          <rect
             id="rect4250"
             x="1375"
             y="925"
             fill="#e61717"
             width="83"
             height="83" />
          <rect
             id="rect4252"
             x="1541"
             y="925"
             fill="#e61717"
             width="83.000999"
             height="83" />
          <rect
             id="rect4254"
             x="1458"
             y="1008"
             fill="#e61717"
             width="83"
             height="83" />
          <rect
             id="rect4256"
             x="1289.468"
             y="842"
             fill="#e61717"
             width="85.531998"
             height="83" />
          <rect
             id="rect4258"
             x="1458"
             y="842"
             fill="#e61717"
             width="83"
             height="83" />
          <rect
             id="rect4260"
             x="1624"
             y="842"
             fill="#e61717"
             width="84.265999"
             height="83" />
        </g>
        <path
           id="path4262"
           fill="#e61717"
           d="m -133.153,87.839 v 100.65 h 95.357 c 3.438,-9.049 5.873,-18.327 7.598,-27.551 v -73.1 h -102.955 z" />
        <path
           id="path4264"
           fill="#e61717"
           d="m -435.106,87.839 v 100.65 h -95.234 c -3.436,-9.049 -5.866,-18.327 -7.588,-27.551 v -73.1 h 102.822 z" />
      </g>
      <path
         id="path4238-3"
         d="m 41.81179,-3.42818 h 510.5331 v 18.01913 281.50986 c 0,37.59271 9.7015,134.60623 -61.8459,174.62433 -46.0813,25.4659 -137.03159,19.40238 -192.81429,54.56978 -56.9954,-35.1674 -146.73281,-29.1041 -192.81421,-54.5701 -71.5473,-40.018 -63.0587,-137.0313 -63.0587,-174.62401 z"
         style="fill:#dd0000;fill-opacity:1;stroke:none;stroke-width:7.27601;stroke-opacity:1" />
      <path
         id="path4264-2"
         style="fill:#ffffff;fill-opacity:1;stroke:none;stroke-width:6;stroke-opacity:1"
         d="M 146.31256,302.16144 V 402.81275 H 51.077764 c -3.4345,-9.0489 -5.8659,-18.3277 -7.5878,-27.5503 v -73.10101 z m 301.9543,0 v 100.65131 h 95.3568 c 3.4389,-9.0489 5.8734,-18.3277 7.5975,-27.5503 v -73.10101 z m 0.009,-201.30085 H 550.4627 V 201.5122 H 448.27581 Z m -201.30324,0 H 347.62418 V 201.5122 H 246.97257 Z m -204.373919,0 H 146.32083 V 201.5122 H 42.598651 Z M 246.97257,302.16381 H 347.62418 V 402.81542 H 246.97257 Z m 100.6516,-100.6516 H 448.27578 V 302.16382 H 347.62417 Z m -201.30321,0 H 246.97257 V 302.16382 H 146.32096 Z M 347.62417,-2.09393 H 448.27578 V 100.86061 H 347.62417 Z m -201.30321,0.76764 h 100.65161 v 102.1869 H 146.32096 Z m -0.004,404.14056 v 80.0312 c 30.12059,8.2423 66.39169,11.8936 100.6563,21.3438 v -101.375 z m 201.3125,0 v 101.375 c 34.2647,-9.4502 70.5044,-13.1015 100.62499,-21.3438 v -80.0312 z" />
      <path
         id="path4238-3-6"
         d="m 41.81179,-3.42818 h 510.5331 v 18.01913 281.50986 c 0,37.59271 9.7015,134.60623 -61.8459,174.62433 -46.0813,25.4659 -137.03159,19.40238 -192.81429,54.56978 -56.9954,-35.1674 -146.73281,-29.1041 -192.81421,-54.5701 -71.5473,-40.018 -63.0587,-137.0313 -63.0587,-174.62401 z"
         style="fill:none;fill-opacity:1;stroke:#dd0000;stroke-width:7.27601;stroke-opacity:1" />
    </g>
  </g>
</svg>
