<svg width="900" height="600" version="1.0" xmlns="http://www.w3.org/2000/svg"><defs><path transform="matrix(-0.979,0.2038,-0.2038,-0.979,1528.8284,813.2933)" id="b" d="M714.987 474.756H730.103V495.94899999999996H714.987z"/><path d="m 716.903,493.007 c 0.995,1.462 2.414,2.522 4.196,2.729 1.622,0.141 3.192,-0.561 4.519,-1.855 1.821,-1.772 3.179,-4.663 3.563,-8.041 0.347,-3.05 -0.092,-6.428 -1.849,-9.011 -1.043,-1.529 -2.448,-2.525 -4.058,-2.715 -1.764,-0.203 -3.424,0.634 -4.659,1.841 -2.24,2.181 -3.335,5.403 -3.606,8.459 -0.298,3.384 0.458,6.492 1.894,8.593" id="c"/><path d="m 883.604,507.553 c -0.441,1.761 -0.362,3.454 0.518,4.715 0.829,1.103 2.212,1.518 3.863,1.319 2.272,-0.274 5.054,-1.715 7.606,-4.128 2.306,-2.175 4.398,-5.096 5.181,-8.197 0.463,-1.84 0.348,-3.481 -0.444,-4.614 -0.865,-1.246 -2.392,-1.605 -3.933,-1.417 -2.793,0.338 -5.65,2.193 -7.917,4.423 -2.513,2.473 -4.235,5.371 -4.874,7.899" id="d"/><path d="m 657.779,465.181 c 1.785,0.572 3.713,0.506 5.457,-0.539 1.555,-0.987 2.56,-2.669 2.991,-4.688 0.586,-2.771 0.081,-6.189 -1.604,-9.354 -1.514,-2.854 -3.943,-5.459 -7.098,-6.47 -1.864,-0.6 -3.741,-0.494 -5.319,0.451 -1.727,1.036 -2.728,2.891 -3.126,4.776 -0.724,3.409 0.219,6.93 1.813,9.738 1.768,3.11 4.319,5.26 6.886,6.086" id="e"/><path transform="matrix(-0.979,0.2038,-0.2038,-0.979,1528.8284,813.2933)" id="i" d="M714.987 474.756H730.103V495.94899999999996H714.987z"/><path d="m 716.903,493.007 c 0.995,1.462 2.414,2.522 4.196,2.729 1.622,0.141 3.192,-0.561 4.519,-1.855 1.821,-1.772 3.179,-4.663 3.563,-8.041 0.347,-3.05 -0.092,-6.428 -1.849,-9.011 -1.043,-1.529 -2.448,-2.525 -4.058,-2.715 -1.764,-0.203 -3.424,0.634 -4.659,1.841 -2.24,2.181 -3.335,5.403 -3.606,8.459 -0.298,3.384 0.458,6.492 1.894,8.593" id="j"/><path d="m 883.604,507.553 c -0.441,1.761 -0.362,3.454 0.518,4.715 0.829,1.103 2.212,1.518 3.863,1.319 2.272,-0.274 5.054,-1.715 7.606,-4.128 2.306,-2.175 4.398,-5.096 5.181,-8.197 0.463,-1.84 0.348,-3.481 -0.444,-4.614 -0.865,-1.246 -2.392,-1.605 -3.933,-1.417 -2.793,0.338 -5.65,2.193 -7.917,4.423 -2.513,2.473 -4.235,5.371 -4.874,7.899" id="k"/><path d="m 657.779,465.181 c 1.785,0.572 3.713,0.506 5.457,-0.539 1.555,-0.987 2.56,-2.669 2.991,-4.688 0.586,-2.771 0.081,-6.189 -1.604,-9.354 -1.514,-2.854 -3.943,-5.459 -7.098,-6.47 -1.864,-0.6 -3.741,-0.494 -5.319,0.451 -1.727,1.036 -2.728,2.891 -3.126,4.776 -0.724,3.409 0.219,6.93 1.813,9.738 1.768,3.11 4.319,5.26 6.886,6.086" id="l"/><radialGradient gradientUnits="userSpaceOnUse" gradientTransform="matrix(0.1022,0.0757,0.0706,-0.1078,256.3792,340.3323)" r="1" cy="800" cx="-400.001" id="h"><stop offset="0" stop-color="#fff"/><stop offset="1" stop-color="#f15770"/></radialGradient><radialGradient gradientUnits="userSpaceOnUse" gradientTransform="matrix(0.1317,9e-4,-9.5e-5,-0.131,322.3331,328.7632)" r="1" cy="800" cx="-400.001" id="g"><stop offset="0" stop-color="#fff"/><stop offset="1" stop-color="#f15770"/></radialGradient><radialGradient gradientUnits="userSpaceOnUse" gradientTransform="matrix(0.1105,-0.0935,-0.093,-0.1086,387.2486,272.5413)" r="1" cy="800" cx="-400" id="f"><stop offset="0" stop-color="#fff"/><stop offset="1" stop-color="#f15770"/></radialGradient><radialGradient gradientUnits="userSpaceOnUse" gradientTransform="matrix(0.1022,0.0757,0.0706,-0.1078,256.3792,340.3323)" r="1" cy="800" cx="-400.001" id="o"><stop offset="0" stop-color="#fff"/><stop offset="1" stop-color="#f15770"/></radialGradient><radialGradient gradientUnits="userSpaceOnUse" gradientTransform="matrix(0.1317,9e-4,-9.5e-5,-0.131,322.3331,328.7632)" r="1" cy="800" cx="-400.001" id="n"><stop offset="0" stop-color="#fff"/><stop offset="1" stop-color="#f15770"/></radialGradient><radialGradient gradientUnits="userSpaceOnUse" gradientTransform="matrix(0.1105,-0.0935,-0.093,-0.1086,387.2486,272.5413)" r="1" cy="800" cx="-400" id="m"><stop offset="0" stop-color="#fff"/><stop offset="1" stop-color="#f15770"/></radialGradient><linearGradient id="a"><stop offset="0" stop-color="#fff"/><stop offset="1" stop-color="#f15770"/></linearGradient></defs><g transform="translate(771.84449,549.23968) matrix(0.7142859,0,0,0.7142859,-35.918354,32.103466)"><g transform="matrix(1.5,0,0,1.5,515.14813,-13.059812)"><path d="M -1030.2963,26.119625 -190.29651,-533.88025 V 26.119625 h -839.99979" fill="#ce1126"/><path d="M -190.29651,-533.88025 -1030.2963,26.119625 V -533.88025 h 839.99979" fill="#fff"/></g><path d="m -1030.2963,26.119615 h 451.49989 L 229.70333,-551.38026 V -813.88018 H -221.7965 l -808.4998,577.49985 V 26.119615" fill="#006847"/><g transform="matrix(1.3085106,0,0,1.3085106,-14.875255,-482.72383)"><path d="m 219.78109,172.95669 -18.8775,-11.91989 -4.91978,21.77705 -4.91978,-21.77705 -18.8775,11.91989 11.91989,-18.8775 -21.77705,-4.91978 21.77705,-4.91978 -11.91989,-18.87751 18.8775,11.9199 4.91978,-21.77705 4.91978,21.77705 18.8775,-11.9199 -11.91989,18.87751 21.77705,4.91978 -21.77705,4.91977 z" transform="matrix(1.9551649,0,0,1.9551649,-677.73021,-223.73454)" fill="#d4aa00"/><path d="m 219.78109,172.95669 -18.8775,-11.91989 -4.91978,21.77705 -4.91978,-21.77705 -18.8775,11.91989 11.91989,-18.8775 -21.77705,-4.91978 21.77705,-4.91978 -11.91989,-18.87751 18.8775,11.9199 4.91978,-21.77705 4.91978,21.77705 18.8775,-11.9199 -11.91989,18.87751 21.77705,4.91978 -21.77705,4.91977 z" transform="matrix(1.6847697,0,0,1.6847697,-624.73713,-183.40255)" fill="#ffe680"/></g><g transform="matrix(1.5,0,0,1.5,31.056904,656.6672) matrix(0.87234042,0,0,0.87234042,303.97847,-550.99409)"><path d="m 219.78109,172.95669 -18.8775,-11.91989 -4.91978,21.77705 -4.91978,-21.77705 -18.8775,11.91989 11.91989,-18.8775 -21.77705,-4.91978 21.77705,-4.91978 -11.91989,-18.87751 18.8775,11.9199 4.91978,-21.77705 4.91978,21.77705 18.8775,-11.9199 -11.91989,18.87751 21.77705,4.91978 -21.77705,4.91977 z" transform="matrix(1.9551649,0,0,1.9551649,-677.73021,-223.73454)" fill="#d4aa00"/><path d="m 219.78109,172.95669 -18.8775,-11.91989 -4.91978,21.77705 -4.91978,-21.77705 -18.8775,11.91989 11.91989,-18.8775 -21.77705,-4.91978 21.77705,-4.91978 -11.91989,-18.87751 18.8775,11.9199 4.91978,-21.77705 4.91978,21.77705 18.8775,-11.9199 -11.91989,18.87751 21.77705,4.91978 -21.77705,4.91977 z" transform="matrix(1.6847697,0,0,1.6847697,-624.73713,-183.40255)" fill="#ffe680"/></g><g transform="matrix(1.5,0,0,1.5,-118.18967,315.48734) translate(-562.70211,-175.74666) translate(-6.9999947,-13.999996) matrix(0.87234042,0,0,0.87234042,303.97847,-550.99409)"><path d="m 219.78109,172.95669 -18.8775,-11.91989 -4.91978,21.77705 -4.91978,-21.77705 -18.8775,11.91989 11.91989,-18.8775 -21.77705,-4.91978 21.77705,-4.91978 -11.91989,-18.87751 18.8775,11.9199 4.91978,-21.77705 4.91978,21.77705 18.8775,-11.9199 -11.91989,18.87751 21.77705,4.91978 -21.77705,4.91977 z" transform="matrix(1.9551649,0,0,1.9551649,-677.73021,-223.73454)" fill="#d4aa00"/><path d="m 219.78109,172.95669 -18.8775,-11.91989 -4.91978,21.77705 -4.91978,-21.77705 -18.8775,11.91989 11.91989,-18.8775 -21.77705,-4.91978 21.77705,-4.91978 -11.91989,-18.87751 18.8775,11.9199 4.91978,-21.77705 4.91978,21.77705 18.8775,-11.9199 -11.91989,18.87751 21.77705,4.91978 -21.77705,4.91977 z" transform="matrix(1.6847697,0,0,1.6847697,-624.73713,-183.40255)" fill="#ffe680"/></g></g></svg>