<?xml version="1.0" encoding="UTF-8" standalone="no"?>
<svg
   version="1.0"
   width="1200"
   height="600"
   id="svg2"
   sodipodi:version="0.32"
   inkscape:version="1.2.1 (9c6d41e410, 2022-07-14)"
   sodipodi:docname="Dehai.svg"
   inkscape:output_extension="org.inkscape.output.svg.inkscape"
   xmlns:inkscape="http://www.inkscape.org/namespaces/inkscape"
   xmlns:sodipodi="http://sodipodi.sourceforge.net/DTD/sodipodi-0.dtd"
   xmlns="http://www.w3.org/2000/svg"
   xmlns:svg="http://www.w3.org/2000/svg"
   xmlns:rdf="http://www.w3.org/1999/02/22-rdf-syntax-ns#"
   xmlns:cc="http://creativecommons.org/ns#"
   xmlns:dc="http://purl.org/dc/elements/1.1/">
  <metadata
     id="metadata11">
    <rdf:RDF>
      <cc:Work
         rdf:about="">
        <dc:format>image/svg+xml</dc:format>
        <dc:type
           rdf:resource="http://purl.org/dc/dcmitype/StillImage" />
      </cc:Work>
    </rdf:RDF>
  </metadata>
  <defs
     id="defs9" />
  <sodipodi:namedview
     inkscape:window-height="1387"
     inkscape:window-width="2560"
     inkscape:pageshadow="2"
     inkscape:pageopacity="0.0"
     guidetolerance="10.0"
     gridtolerance="10.0"
     objecttolerance="10.0"
     borderopacity="1.0"
     bordercolor="#666666"
     pagecolor="#ffffff"
     id="base"
     showgrid="false"
     inkscape:zoom="1.088"
     inkscape:cx="649.81618"
     inkscape:cy="301.47059"
     inkscape:window-x="-8"
     inkscape:window-y="-8"
     inkscape:current-layer="svg2"
     inkscape:showpageshadow="true"
     inkscape:window-maximized="1"
     inkscape:pagecheckerboard="0"
     inkscape:deskcolor="#d1d1d1" />
  <desc
     id="desc4">The red flag - international symbol of the working class. (3:5 ratio)</desc>
  <rect
     width="1200"
     height="600"
     id="rect6"
     x="0"
     y="0"
     style="fill:#bc0000;fill-opacity:1" />
  <text
     xml:space="preserve"
     style="font-style:normal;font-weight:normal;line-height:0%;font-family:'Futura Std Book';text-align:center;text-anchor:middle;opacity:1;fill:#9d9d9d;fill-opacity:1;fill-rule:nonzero;stroke:#cccccc;stroke-width:0.5;stroke-linecap:round;stroke-linejoin:round;stroke-miterlimit:4;stroke-dasharray:none;stroke-opacity:1"
     x="56.985294"
     y="127.57353"
     id="text2332"><tspan
       sodipodi:role="line"
       id="tspan2334"
       x="59.369328"
       y="127.57353"
       style="font-size:15px;line-height:1.25"> </tspan></text>
  <path
     transform="scale(0.9849494,1.0152805)"
     style="font-size:130.39279175px;font-style:normal;font-weight:normal;text-align:center;text-anchor:middle;fill:#fcd116;fill-opacity:1;fill-rule:nonzero;stroke:none;stroke-width:0.49999994;stroke-linecap:round;stroke-linejoin:round;stroke-miterlimit:4;stroke-opacity:1;font-family:Century"
     d="M 50.764028,70.920181 L 97.17826,70.920181 C 107.66225,70.920275 115.66324,73.297224 121.18123,78.051036 C 126.69907,82.805022 129.45803,89.023292 129.45812,96.705864 C 129.45803,104.38857 126.9113,110.24606 121.81791,114.27833 C 114.81432,119.83875 106.17666,122.61893 95.904892,122.61889 L 79.096447,122.61889 L 79.096447,154.7714 C 79.096413,156.63902 79.542091,157.97605 80.433482,158.78251 C 81.621922,159.80121 83.213629,160.31056 85.208609,160.31055 L 95.904892,160.31055 L 95.904892,165.08568 L 50.764028,165.08568 L 50.764028,160.31055 L 60.186945,160.31055 C 62.054534,160.31056 63.423402,159.93916 64.293554,159.19636 C 65.163669,158.45356 65.598735,157.44548 65.598755,156.17211 L 65.598755,81.107117 C 65.598735,79.197153 65.046943,77.817673 63.943378,76.968674 C 62.839776,76.119852 60.759945,75.695397 57.703879,75.695307 L 50.764028,75.695307 L 50.764028,70.920181 z M 79.096447,117.9711 L 91.893786,117.9711 C 100.00084,117.97114 105.84771,116.28393 109.43442,112.90946 C 113.021,109.53509 114.81432,103.96412 114.81439,96.196518 C 114.81432,90.763559 114.00786,86.593286 112.395,83.685686 C 110.782,80.778249 108.41566,78.624138 105.29597,77.223348 C 102.17617,75.822733 97.050871,75.122382 89.920067,75.122292 C 85.208569,75.122382 82.226771,75.56806 80.974663,76.459327 C 79.722485,77.350772 79.096413,78.900034 79.096447,81.107117 L 79.096447,117.9711 z M 208.21587,78.242041 L 212.60899,69.137467 L 216.6201,69.137467 L 218.27547,107.02014 L 214.00969,107.02014 C 211.20821,96.366369 207.68523,88.513946 203.44075,83.462847 C 198.17743,77.138545 191.89549,73.976353 184.59491,73.976262 C 176.69999,73.976353 170.2695,77.499332 165.3034,84.545209 C 160.33724,91.591247 157.85418,103.51844 157.8542,120.32682 C 157.85418,134.46123 160.69803,145.24239 166.38576,152.67035 C 171.22452,158.9523 178.01581,162.09327 186.75964,162.09327 C 194.39978,162.09327 200.80905,159.64204 205.98748,154.73957 C 211.16576,149.83712 214.54018,142.44099 216.11075,132.55115 L 220.6312,132.55115 C 219.3153,143.7568 215.47398,152.37324 209.10723,158.4005 C 202.74032,164.42777 194.71812,167.4414 185.04059,167.44141 C 177.18812,167.4414 169.98299,165.46769 163.42519,161.52025 C 156.86732,157.57282 151.6253,151.89573 147.6991,144.48897 C 143.77288,137.08224 141.80977,128.96453 141.80978,120.13582 C 141.80977,110.7554 143.83654,101.94796 147.89011,93.713452 C 151.94364,85.479091 157.13261,79.292655 163.45702,75.154126 C 169.78137,71.015777 176.59388,68.946558 183.89456,68.946462 C 187.96928,68.946558 191.91672,69.646909 195.73688,71.047517 C 199.55691,72.448314 203.71657,74.846486 208.21587,78.242041 L 208.21587,78.242041 z M 261.95198,75.695307 L 261.95198,70.920181 L 305.37379,70.920181 L 305.37379,75.695307 L 297.9246,75.695307 C 294.69866,75.695397 292.64006,76.151686 291.74877,77.064177 C 290.85734,77.976844 290.41167,79.727722 290.41173,82.316816 L 296.14188,82.316816 C 307.77189,82.316899 317.15235,85.680707 324.2833,92.40825 C 331.41405,99.135939 334.97947,107.50832 334.97958,117.52542 C 334.97947,127.20304 331.59444,135.50115 324.82448,142.41974 C 318.05432,149.33839 307.55966,152.7977 293.34047,152.79769 L 290.41173,152.79769 L 290.41173,154.19839 C 290.41167,156.78758 290.9104,158.45356 291.90794,159.19636 C 292.90534,159.93916 294.61377,160.31056 297.03324,160.31055 L 305.37379,160.31055 L 305.37379,165.08568 L 261.95198,165.08568 L 261.95198,160.31055 L 270.16519,160.31055 C 272.66944,160.31056 274.42031,159.91794 275.41783,159.13269 C 276.41525,158.34745 276.91399,156.70269 276.91404,154.19839 L 276.91404,152.79769 L 274.30364,152.79769 C 265.26269,152.7977 257.86656,151.48189 252.11521,148.85025 C 246.36382,146.21864 241.63114,142.19693 237.91717,136.78509 C 234.20318,131.37332 232.34618,125.08077 232.34619,117.90743 C 232.34618,107.38098 235.95405,98.817598 243.16981,92.217245 C 250.38553,85.617039 260.4239,82.316899 273.28494,82.316816 L 276.91404,82.316816 L 276.91404,80.534102 C 276.91399,78.836366 276.39403,77.605445 275.35416,76.841338 C 274.3142,76.077406 272.28743,75.695397 269.27384,75.695307 L 261.95198,75.695307 z M 276.91404,148.02256 L 276.91404,87.091943 L 271.5659,87.091943 C 255.18188,87.092021 246.98989,97.321393 246.98991,117.78009 C 246.98989,127.88217 249.17584,135.44809 253.54775,140.47786 C 257.91962,145.50768 263.92566,148.02258 271.5659,148.02256 L 276.91404,148.02256 z M 290.41173,148.02256 L 296.9059,148.02256 C 312.52579,148.02258 320.33576,137.62342 320.33586,116.82506 C 320.33576,97.003052 312.20745,87.092021 295.95088,87.091943 L 290.41173,87.091943 L 290.41173,148.02256 z M 416.0294,78.242041 L 420.42251,69.137467 L 424.43362,69.137467 L 426.089,107.02014 L 421.82322,107.02014 C 419.02173,96.366369 415.49875,88.513946 411.25427,83.462847 C 405.99095,77.138545 399.70901,73.976353 392.40844,73.976262 C 384.51352,73.976353 378.08302,77.499332 373.11692,84.545209 C 368.15077,91.591247 365.6677,103.51844 365.66773,120.32682 C 365.6677,134.46123 368.51155,145.24239 374.19929,152.67035 C 379.03804,158.9523 385.82933,162.09327 394.57316,162.09327 C 402.2133,162.09327 408.62258,159.64204 413.801,154.73957 C 418.97928,149.83712 422.3537,142.44099 423.92427,132.55115 L 428.44473,132.55115 C 427.12883,143.7568 423.28751,152.37324 416.92075,158.4005 C 410.55385,164.42777 402.53164,167.4414 392.85411,167.44141 C 385.00164,167.4414 377.79651,165.46769 371.23871,161.52025 C 364.68084,157.57282 359.43882,151.89573 355.51262,144.48897 C 351.5864,137.08224 349.62329,128.96453 349.6233,120.13582 C 349.62329,110.7554 351.65007,101.94796 355.70363,93.713452 C 359.75716,85.479091 364.94613,79.292655 371.27054,75.154126 C 377.59489,71.015777 384.4074,68.946558 391.70808,68.946462 C 395.7828,68.946558 399.73024,69.646909 403.5504,71.047517 C 407.37043,72.448314 411.53009,74.846486 416.0294,78.242041 L 416.0294,78.242041 z M 439.65035,70.920181 L 486.06458,70.920181 C 496.54858,70.920275 504.54956,73.297224 510.06755,78.051036 C 515.58539,82.805022 518.34435,89.023292 518.34444,96.705864 C 518.34435,104.38857 515.79762,110.24606 510.70424,114.27833 C 503.70065,119.83875 495.06298,122.61893 484.79121,122.61889 L 467.98277,122.61889 L 467.98277,154.7714 C 467.98274,156.63902 468.42841,157.97605 469.3198,158.78251 C 470.50824,159.80121 472.09995,160.31056 474.09493,160.31055 L 484.79121,160.31055 L 484.79121,165.08568 L 439.65035,165.08568 L 439.65035,160.31055 L 449.07327,160.31055 C 450.94086,160.31056 452.30972,159.93916 453.17988,159.19636 C 454.04999,158.45356 454.48506,157.44548 454.48508,156.17211 L 454.48508,81.107117 C 454.48506,79.197153 453.93327,77.817673 452.8297,76.968674 C 451.7261,76.119852 449.64627,75.695397 446.5902,75.695307 L 439.65035,75.695307 L 439.65035,70.920181 z M 467.98277,117.9711 L 480.78011,117.9711 C 488.88716,117.97114 494.73403,116.28393 498.32074,112.90946 C 501.90732,109.53509 503.70065,103.96412 503.70072,96.196518 C 503.70065,90.763559 502.89418,86.593286 501.28132,83.685686 C 499.66832,80.778249 497.30198,78.624138 494.1823,77.223348 C 491.06249,75.822733 485.93719,75.122382 478.80639,75.122292 C 474.09489,75.122382 471.11309,75.56806 469.86099,76.459327 C 468.60881,77.350772 467.98274,78.900034 467.98277,81.107117 L 467.98277,117.9711 z"
     id="text2336" />
</svg>
