<svg height="600" preserveAspectRatio="xMidYMid meet" viewBox="-15 -7.5 30 15" width="1200" xmlns="http://www.w3.org/2000/svg" xmlns:xlink="http://www.w3.org/1999/xlink" zoomAndPan="magnify"><clipPath id="a"><path d="m-15-7.5h30v15h-30z"/></clipPath><path d="m-15-7.5h30v15h-30z" fill="#00247d"/><g clip-path="url(#a)" transform="matrix(.5 0 0 .5 -7.5 -3.75)"><circle fill="#00247d" r="20"/><path d="m-20-10 40 20m-40 0 40-20" stroke="#fff" stroke-width="3"/><path d="m-20-10 40 20m-40 0 40-20" stroke="#cf142b" stroke-width="2"/><path d="m0 0 20 10h-3l-20-10m3 0 20-10h3l-20 10m-3 0-20 10h-3l20-10m3 0-20-10h3l20 10" fill="#fff"/><path d="m-20 0h40m-20-10v20" stroke="#fff" stroke-width="5"/><path d="m-20 0h40m-20-10v20" stroke="#cf142b" stroke-width="3"/></g><g transform="matrix(.025 0 0 .025 4.994 -3.418)"><g stroke="#000" transform="matrix(2.05181 0 0 2.05181 60.237265 -.0003)"><path d="m17.896 12.666c-.582.018-1.263.116-1.978.26-1.064.02-2.257.216-3.648.988-.007.003-.014.004-.02.008-.763.244-1.415.472-1.85.63h-.003c-1.698-.543-6.552-1.577-6.992 4.155a.431.431 0 0 0 .04.167v.004c-.161.9.18 2.482.18 2.482.201.145.347.462.385.565v.008c.003.114-.41.57-.337.76l.004.004.004.012.004.004c.002.001.003.007.005.008l.004.004.004.004.004.004.008.004c.146.11.273.58.374.991v.013c-.032.157-.02.295.069.39.013.014.024.028.036.044.114.508 1.26 5.36 1.195 5.619-.065.26.388.585.8.715.048.015.163.03.341.044.006.003.01.003.016.005 2.43.858 4.52.29 9.027.093 1.177-.01 2.437-.026 3.766-.049h.134c1.33.023 2.59.039 3.766.049 4.508.197 6.597.765 9.027-.093.006 0 .011-.004.016-.005.178-.013.293-.029.342-.044.411-.13.864-.456.8-.715-.065-.259.085-1.274.085-1.641 0-.368.26-.799.41-.971.045-.051.098-.16.147-.297.212.078.485.225.573.232h.02l.004-.004v-.004l.004-.005v-.004l-.004-.008v-.008l-.004-.004c-.022-.045-.097-.132-.248-.28l-.004-.004c-.183-.214.097-2.113.211-2.62.013-.017.023-.03.037-.045.09-.095.1-.233.069-.39v-.004-.008c.1-.412.228-.881.374-.992l.008-.004.004-.004.004-.004.004-.004.004-.008.004-.004a.135.135 0 0 0 .008-.016c.073-.19-.34-.646-.337-.76 0-.003.003-.006.004-.008.039-.103.18-.42.382-.565 0 0 .34-1.581.179-2.482v-.004a.431.431 0 0 0 .04-.167c-.44-5.732-5.293-4.698-6.991-4.156h-.004a55.005 55.005 0 0 0 -1.849-.63l-.016-.007c-1.392-.772-2.584-.967-3.648-.988-1.288-.26-2.466-.368-3.153-.13a3.419 3.419 0 0 1 -.337.098 3.413 3.413 0 0 1 -.333-.098c-.305-.106-.704-.144-1.17-.13z" fill="#c00" stroke-width=".21177"/><g fill="#f7d917"><path d="m10.7 17.286c-.346.123-.694 3.095-.395 4.054.206.664.456 1.113.6 1.389-.299-.46-.973-1.339-1.735-1.27-.958.086-.704 3.169-.656 3.364v.004l.003.003h.002c.034-.078.265-1.383 1.213-1.468.624-.056 1.2.623 1.416.914l.037.285c-.104.303-.11.998-.437 1.903-.396 1.093-1.988 1.344-2.257 1.379l3.474-.312h.011l.005-.001 3.485-.313c-.27.014-.766-.66-2.328-1.068-.86-.729-.93-1.387-1.106-1.664-.012-.095-.021-.189-.033-.286.14-.323.538-1.088 1.162-1.144.948-.085 1.492 1.15 1.544 1.22l.002-.001.002-.003v-.004c-.001-.2-.503-3.26-1.462-3.175-.762.069-1.207 1.049-1.387 1.551a9.02 9.02 0 0 0 .226-1.463c.06-1.006-1.011-3.927-1.369-3.896-.005 0-.012 0-.017.002zm.216 5.461.08.126.075.303c.001.006.313 1.028.314 1.035-.024-.039-.438-1.404-.47-1.464zm.938-.084c-.017.064-.105 1.474-.118 1.516-.001-.006.072-1.369.07-1.375l.007.305c.013-.04.022-.393.04-.446zm16.366-5.203c-.365.05-1.323 2.884-1.23 3.884.064.693.215 1.183.298 1.483-.196-.51-.672-1.512-1.432-1.603-.956-.115-1.348 2.954-1.342 3.155v.003l.002.004h.002c.05-.069.547-1.297 1.492-1.183.622.075 1.044.858 1.195 1.188-.009.097-.015.191-.023.287-.166.274-.814 1.345-1.785 1.734-1.079.433-1.263.938-1.533.916l3.463.417.011.001.005.001.01.001 3.464.418c-.268-.043-1.052-.438-1.858-1.318-.713-.778-.819-1.76-.934-2.069.01-.095.02-.189.028-.286.204-.287.752-.953 1.374-.878.945.114 1.22 1.435 1.257 1.514h.003l.002-.003v-.003c.041-.196.186-3.294-.769-3.41-.76-.09-1.4.775-1.68 1.229a9.02 9.02 0 0 0 .525-1.384c.268-.972-.172-4.052-.528-4.095-.005-.001-.012-.003-.017-.002zm-.925 5.388.052.14.011.311c0 .007.093 1.071.092 1.078-.015-.043-.136-1.465-.155-1.53zm.935.112c-.029.06-.408 1.42-.43 1.459 0-.007.355-1.325.355-1.331l-.057.3c.02-.036.103-.38.132-.428z" stroke-width=".10582"/><path d="m4.33 22.388 1.368-1.668s.127.165 0 0c-2.804-3.625-2.946-5.704-2.63-6.757.315-1.054.946-2.195 2.63-3.599 1.682-1.404 2.845-.624 4.422-.624 1.578 0 1.999.352 3.367.527 1.367.176 5.05.351 5.05.351v-.965s.145.027 0 0c-1.626-.303-3.683 0-5.05-.351-1.368-.351-2.525-.44-3.998-.44s-2.53-.429-3.477.186c-.947.614-2.104 1.667-2.946 2.545-.841.878-1.262 2.633-1.157 3.774.105 1.14.526 2.106 1.157 2.984.632.877.527 1.58.737 2.194s.526 1.93.526 1.843zm30.34 0-1.368-1.668s-.127.165 0 0c2.804-3.625 2.946-5.704 2.63-6.757-.315-1.054-.946-2.195-2.63-3.599-1.683-1.404-2.845-.624-4.423-.624s-1.999.352-3.367.527c-1.367.176-5.05.351-5.05.351v-.965s-.145.027 0 0c1.626-.303 3.683 0 5.05-.351 1.368-.351 2.525-.44 3.998-.44s2.53-.429 3.477.186c.947.614 2.104 1.667 2.946 2.545.841.878 1.262 2.633 1.157 3.774-.105 1.14-.526 2.106-1.157 2.984-.632.877-.527 1.58-.737 2.194s-.526 1.93-.526 1.843z" stroke-width=".100922"/><path d="m17.21 8.857h4.878v10.007h-4.879z" stroke-width=".11786"/><path d="m17.792.035s.526.428.929.977c.403.55.683 1.222.683 1.222s-.671-.281-1.22-.684c-.55-.403-.978-.929-.978-.929v3.713s.428-.525.977-.928c.55-.403 1.221-.684 1.221-.684s-.216.554-.356 1.221c-.125.6-1.155 1.986-1.155 1.986l3.007.201s-.5-1.587-.701-2.187c-.217-.646-.306-1.22-.306-1.22s.672.28 1.221.683c.55.403.977.928.977.928v-3.713s-.427.526-.977.929-1.221.684-1.221.684.28-.672.684-1.222c.403-.55.928-.977.928-.977z" stroke-width=".070575"/><path d="m22.068 6.652a2.42 2.42 0 1 1 -4.839 0 2.42 2.42 0 1 1 4.84 0z" stroke-width=".105863"/><path d="m17.283 6.999h4.813s.07-.931-.278-1.28h-1.496l-.025-1.395h-1.417l-.025 1.395s-1.006.05-1.47.05c-.21.571-.178.62-.178.62z" stroke-width=".070575"/><path d="m16.55 18.529s.876.714 1.549 1.631c.673.918 1.142 2.04 1.142 2.04s-1.122-.47-2.04-1.143c-.917-.672-1.63-1.55-1.63-1.55v6.2s.713-.877 1.63-1.55c.918-.673 2.04-1.142 2.04-1.142s-.47 1.121-1.142 2.039c-.673.918-1.55 1.631-1.55 1.631h6.2s-.878-.713-1.55-1.631c-.673-.918-1.142-2.04-1.142-2.04s1.121.47 2.039 1.143c.917.673 1.63 1.55 1.63 1.55v-6.2s-.713.878-1.63 1.55c-.918.673-2.04 1.142-2.04 1.142s.47-1.121 1.142-2.039c.673-.917 1.55-1.631 1.55-1.631zm-11.806 10.524 3.052-.538s-.987-.55-1.81-1.338c-.821-.786-1.478-1.81-1.478-1.81s1.186.268 2.207.771a10.087 10.087 0 0 1 1.875 1.243l-1.076-6.105s-.55.988-1.338 1.81c-.786.822-1.81 1.478-1.81 1.478s.268-1.186.771-2.206a10.087 10.087 0 0 1 1.243-1.876l-3.052.539zm28.174-8.571s.74.855 1.242 1.876c.504 1.02.77 2.206.77 2.206s-1.022-.656-1.809-1.478-1.337-1.81-1.337-1.81l-1.077 6.105s.855-.74 1.876-1.243c1.02-.503 2.206-.77 2.206-.77s-.656 1.023-1.478 1.81c-.822.786-1.81 1.337-1.81 1.337l3.053.538 1.416-8.032z" stroke-width=".105863"/><path d="m4.775 28.736.022 4.447s7.431-2.53 14.862-2.53c7.432 0 14.863 2.53 14.863 2.53v-4.447s-7.437-2.53-14.873-2.53c-7.437 0-14.874 2.53-14.874 2.53z" stroke-width=".10582"/></g><g fill="#fff" stroke-width=".139995"><path d="m4.086 20.02a1.131 1.131 0 1 1 -2.262 0 1.131 1.131 0 1 1 2.262 0zm-1.451-2.58a1.131 1.131 0 1 1 -2.263 0 1.131 1.131 0 1 1 2.263 0zm-.302-3.025a1.131 1.131 0 1 1 -2.263 0 1.131 1.131 0 1 1 2.263 0zm.907-2.823a1.131 1.131 0 1 1 -2.263 0 1.131 1.131 0 1 1 2.263 0zm1.916-2.319a1.131 1.131 0 1 1 -2.263 0 1.131 1.131 0 1 1 2.263 0zm2.621-1.613a1.131 1.131 0 1 1 -2.263 0 1.131 1.131 0 1 1 2.263 0zm2.924.202a1.131 1.131 0 1 1 -2.263 0 1.131 1.131 0 1 1 2.263 0zm2.924.484a1.131 1.131 0 1 1 -2.263 0 1.131 1.131 0 1 1 2.263 0zm2.924.302a1.131 1.131 0 1 1 -2.263 0 1.131 1.131 0 1 1 2.263 0zm18.365 11.372a1.131 1.131 0 1 1 2.262 0 1.131 1.131 0 1 1 -2.262 0zm1.451-2.58a1.131 1.131 0 1 1 2.263 0 1.131 1.131 0 1 1 -2.263 0zm.302-3.025a1.131 1.131 0 1 1 2.263 0 1.131 1.131 0 1 1 -2.263 0zm-.907-2.823a1.131 1.131 0 1 1 2.263 0 1.131 1.131 0 1 1 -2.263 0zm-1.916-2.319a1.131 1.131 0 1 1 2.263 0 1.131 1.131 0 1 1 -2.263 0zm-2.621-1.613a1.131 1.131 0 1 1 2.263 0 1.131 1.131 0 1 1 -2.263 0zm-2.924.202a1.131 1.131 0 1 1 2.263 0 1.131 1.131 0 1 1 -2.263 0zm-2.924.484a1.131 1.131 0 1 1 2.263 0 1.131 1.131 0 1 1 -2.263 0zm-2.924.302a1.131 1.131 0 1 1 2.263 0 1.131 1.131 0 1 1 -2.263 0zm-1.671 8.832a1.131 1.131 0 1 1 -2.263 0 1.131 1.131 0 1 1 2.263 0z"/><path d="m20.78 15.464a1.131 1.131 0 1 1 -2.263 0 1.131 1.131 0 1 1 2.263 0z"/><path d="m20.78 13.85a1.131 1.131 0 1 1 -2.263 0 1.131 1.131 0 1 1 2.263 0z"/><path d="m20.78 12.379a1.131 1.131 0 1 1 -2.263 0 1.131 1.131 0 1 1 2.263 0zm0-4.719a1.131 1.131 0 1 1 -2.263 0 1.131 1.131 0 1 1 2.263 0z"/><path d="m20.78 7.862a1.131 1.131 0 1 1 -2.263 0 1.131 1.131 0 1 1 2.263 0z"/><path d="m20.78 8.91a1.131 1.131 0 1 1 -2.263 0 1.131 1.131 0 1 1 2.263 0z"/><path d="m20.78 10.342a1.131 1.131 0 1 1 -2.263 0 1.131 1.131 0 1 1 2.263 0z"/></g><path d="m17.523 27.312h4.519v1.97h-4.52z" fill="#002b7f" stroke-width=".10933"/><path d="m16.043 233.11a22.995 8.556 0 1 1 -45.99 0 22.995 8.556 0 1 1 45.99 0z" fill="#3e8225" stroke-width="1.5" transform="matrix(-.08816 -.00895 .0031 .1245 25.412 -.108)"/><path d="m4.802 29.807-1.132 1.132 1.313.758 3.054-.818-.544-1.73zm29.961 0 1.132 1.132-1.313.758-3.054-.818.544-1.73 2.69.658z" fill="#c00" stroke-width=".14118"/><path d="m16.043 233.11a22.995 8.556 0 1 1 -45.99 0 22.995 8.556 0 1 1 45.99 0z" fill="#3e8225" stroke-width="1.5" transform="matrix(.08816 -.00895 -.0031 .1245 14.153 -.108)"/><path d="m16.545 27.46a.556.556 0 1 1 -1.112 0 .556.556 0 1 1 1.112 0zm.175 1.772a.556.556 0 1 1 -1.113 0 .556.556 0 1 1 1.112 0zm-7.126-.522a.556.556 0 1 1 -1.113 0 .556.556 0 1 1 1.113 0zm.695 1.67a.556.556 0 1 1 -1.113 0 .556.556 0 1 1 1.113 0zm12.704-2.92a.556.556 0 1 1 1.113 0 .556.556 0 1 1 -1.113 0zm-.173 1.772a.556.556 0 1 1 1.112 0 .556.556 0 1 1 -1.112 0zm7.125-.522a.556.556 0 1 1 1.112 0 .556.556 0 1 1 -1.112 0zm-.695 1.67a.556.556 0 1 1 1.112 0 .556.556 0 1 1 -1.112 0z" fill="#fff" stroke-width=".091"/><g fill="#f7d917"><path d="m34.136 26.215.353.17c-.132.175-.935 2.133-3.82 1.526-2.912-.612-3.12-3.416-3.12-3.416l.54.197s.316 2.164 2.606 2.777c2.266.607 3.44-1.254 3.44-1.254z" stroke-width=".13"/><path d="m27.598 24.52-.541.073s-.558 2.038-3.478 1.622c-2.872-.408-2.99-2.556-3.085-2.924-.562.27-.442.368-.442.368s.332 2.606 3.416 2.974c3.06.368 4.105-1.302 4.13-2.113z" stroke-width=".13"/><path d="m28.19 24.254s-.256-.216-.537-.24c-.28-.026-.585.14-.585.14l-.062.508s.304-.166.584-.14c.281.025.538.24.538.24l.063-.508z" stroke-width=".10582"/></g><path d="m33.38 25.002a1.462 1.462 0 1 1 2.924 0 1.462 1.462 0 1 1 -2.924 0z" fill="#fff" stroke-width=".14115"/><g fill="#f7d917"><path d="m5.063 26.215-.353.17c.132.175.934 2.133 3.819 1.526 2.913-.612 3.121-3.416 3.121-3.416l-.54.197s-.317 2.164-2.606 2.777c-2.266.607-3.44-1.254-3.44-1.254z" stroke-width=".13"/><path d="m11.601 24.52.54.073s.558 2.038 3.479 1.622c2.872-.408 2.99-2.556 3.084-2.924.563.27.443.368.443.368s-.332 2.606-3.417 2.974c-3.06.368-4.104-1.302-4.129-2.113z" stroke-width=".13"/><path d="m11.008 24.254s.257-.216.538-.24c.28-.026.584.14.584.14l.063.508s-.304-.166-.585-.14c-.28.025-.537.24-.537.24z" stroke-width=".10582"/></g><path d="m5.819 25.002a1.462 1.462 0 1 1 -2.924 0 1.462 1.462 0 1 1 2.924 0z" fill="#fff" stroke-width=".14115"/><path d="m21.1 22.35a1.462 1.462 0 1 1 -2.924 0 1.462 1.462 0 1 1 2.924 0z" fill="#fff" stroke-width=".14115"/><path d="m6.826 33.498 12.81-2.299 13.343 2.299-6.192 2.574-11.422.184-8.54-2.758z" fill="#9d9d9d" stroke-width=".13104"/><path d="m31.01 36.478c.425-.073 2.987-.682 3.526-1.008-.348-.628-.972-1.12-.486-.913.262.111.469-.754-.291-1.415-2.207.724-7.499 2.046-14.148 2.046-6.805 0-12.163-1.392-14.37-2.115-.76.66-.523 1.412-.569 1.693 0 .002 0 .354.14.634.747.813 3.17 1.213 3.595 1.287 1.996.347 3.992.87 11.2.87 6.667 0 9.407-.732 11.403-1.079z" fill="#fff" stroke-width=".22282"/><path d="m8.186 31.9c-.425.075-3.127 1.031-3.666 1.357v.009c.046.28-.469 1.588.291 2.249 2.207-.724 8.402-2.88 15.052-2.88 6.804 0 12.44 2.156 14.647 2.88.76-.661.245-1.969.291-2.25v-.008c-.539-.326-3.24-1.282-3.665-1.356-1.996-.347-4.061-1.636-11.269-1.636-6.667 0-9.686 1.29-11.681 1.636z" fill="#fff" stroke-width=".222735"/><g stroke-width="1.6"><path d="m115.508 301.56a1.872 1.872 0 1 1 -3.743 0 1.872 1.872 0 1 1 3.743 0z" transform="matrix(.09763 -.0101 .01103 .0894 -8.358 7.729)"/><path d="m115.508 301.56a1.872 1.872 0 1 1 -3.743 0 1.872 1.872 0 1 1 3.743 0z" transform="matrix(.09763 -.0101 .01103 .0894 -8.567 8.186)"/><path d="m115.508 301.56a1.872 1.872 0 1 1 -3.743 0 1.872 1.872 0 1 1 3.743 0z" transform="matrix(.09763 -.0101 .01103 .0894 -8.165 8.436)"/></g><path d="m113.518 303.669 8.526-3.166-4.185 2.392 2.686-.083-2.492 1.168 4.001.275z" transform="matrix(.1954 -.02022 .02208 .17895 -22.802 -18.125)"/><g stroke-width="1.6"><path d="m115.508 301.56a1.872 1.872 0 1 1 -3.743 0 1.872 1.872 0 1 1 3.743 0z" transform="matrix(.09763 -.0101 .01103 .0894 -2.487 6.049)"/><path d="m115.508 301.56a1.872 1.872 0 1 1 -3.743 0 1.872 1.872 0 1 1 3.743 0z" transform="matrix(.09763 -.0101 .01103 .0894 -2.695 6.506)"/><path d="m115.508 301.56a1.872 1.872 0 1 1 -3.743 0 1.872 1.872 0 1 1 3.743 0z" transform="matrix(.09763 -.0101 .01103 .0894 -2.294 6.755)"/></g><path d="m113.518 303.669 8.526-3.166-4.185 2.392 2.686-.083-2.492 1.168 4.001.275z" transform="matrix(.1954 -.02022 .02208 .17895 -16.93 -19.805)"/><g stroke-width="1.6"><path d="m115.508 301.56a1.872 1.872 0 1 1 -3.743 0 1.872 1.872 0 1 1 3.743 0z" transform="matrix(.0972 .01356 -.0107 .08944 11.399 2.515)"/><path d="m115.508 301.56a1.872 1.872 0 1 1 -3.743 0 1.872 1.872 0 1 1 3.743 0z" transform="matrix(.0972 .01356 -.0107 .08944 11.087 2.91)"/><path d="m115.508 301.56a1.872 1.872 0 1 1 -3.743 0 1.872 1.872 0 1 1 3.743 0z" transform="matrix(.0972 .01356 -.0107 .08944 11.417 3.248)"/></g><path d="m113.518 303.669 8.526-3.166-4.185 2.392 2.686-.083-2.492 1.168 4.001.275z" transform="matrix(.19457 .02715 -.0214 .17903 3.565 -26.044)"/><g stroke-width="1.6"><path d="m115.508 301.56a1.872 1.872 0 1 1 -3.743 0 1.872 1.872 0 1 1 3.743 0z" transform="matrix(.09763 .0101 .01103 -.0894 11.552 58.245)"/><path d="m115.508 301.56a1.872 1.872 0 1 1 -3.743 0 1.872 1.872 0 1 1 3.743 0z" transform="matrix(.09763 .0101 .01103 -.0894 11.344 57.788)"/><path d="m115.508 301.56a1.872 1.872 0 1 1 -3.743 0 1.872 1.872 0 1 1 3.743 0z" transform="matrix(.09763 .0101 .01103 -.0894 11.745 57.538)"/></g><path d="m113.518 303.669 8.526-3.166-4.185 2.392 2.686-.083-2.492 1.168 4.001.275z" transform="matrix(.1954 .02022 .02208 -.17895 -2.891 84.099)"/><g stroke-width="1.6"><path d="m115.508 301.56a1.872 1.872 0 1 1 -3.743 0 1.872 1.872 0 1 1 3.743 0z" transform="matrix(.09763 .0101 .01103 -.0894 17.478 59.793)"/><path d="m115.508 301.56a1.872 1.872 0 1 1 -3.743 0 1.872 1.872 0 1 1 3.743 0z" transform="matrix(.09763 .0101 .01103 -.0894 17.27 59.335)"/><path d="m115.508 301.56a1.872 1.872 0 1 1 -3.743 0 1.872 1.872 0 1 1 3.743 0z" transform="matrix(.09763 .0101 .01103 -.0894 17.67 59.086)"/></g><path d="m113.518 303.669 8.526-3.166-4.185 2.392 2.686-.083-2.492 1.168 4.001.275z" transform="matrix(.1954 .02022 .02208 -.17895 3.034 85.646)"/></g><path d="m188.631 139.033a88.381 72.026 0 1 1 -176.762 0 88.381 72.026 0 1 1 176.762 0z" fill="#f7c600" stroke="#000" stroke-width=".5"/><path d="m185.828 139.033a85.578 68.403 0 1 1 -171.156 0 85.578 68.403 0 1 1 171.156 0z" fill="#fff" stroke="#000" stroke-width=".5"/><path d="m170.753 139.033a70.503 54.403 0 1 1 -141.006 0 70.503 54.403 0 1 1 141.006 0z" fill="#f7c600" stroke="#000" stroke-width=".5"/><path d="m166.8 139.033a66.55 50.731 0 1 1 -133.1 0 66.55 50.731 0 1 1 133.1 0z" fill="#fff79c" stroke="#000" stroke-width=".5"/><path d="m166.8 139.033a66.55 50.731 0 1 1 -133.1 0h66.55z" fill="#9ccee7"/><path d="m76.804 186.654c-1.02 0 13.219-1.605 11.174-1.807l-1.91-.143v-2.182h15.879l4.303-2.96c11.63-.836 23.37-.799 34.91-2.553-5.706 2.7-11.525 5.47-17.819 5.513l-.82 2.459c-7.475 1.521-14.865 1.82-22.4 1.905.51.824 1.02 1.999 1.53 2.823-5.934-.047-13.833-.098-24.847-3.055zm-16.372-8.034c6.12-1.853 11.733-1.538 18-1.553v2.47l-8.727-1.171c-2.718 3.218-4.964 1.217-9.273.254zm31.091-3.734h8.856l-1.348 2.181h-7.508zm17.448.538-1.451-1.75 6.456.334 6.456.332v2.182l-5.005.325-5.004.326zm-58.079-4.902c2.434-.191 4.594.473 6.8 1.32-2.199 3.42-5.006.841-6.8-1.32zm8.874-.183.848-2.544 11.273-.312v1.948h-5.327c-1.987 3.096-3.88 1.663-6.795.908zm29.575.183v-1.09h14.31l-.673 1.09-.675 1.09h-12.962zm27.428-3.342 7.481 1.403v1.939l-14.727-.178zm-37.614-3.749 9.64-1.39 10.364 1.149v1.877h-17.276l-3.749 1.44zm-35.632-8.43 10.364 1.519 2.072 2.002-4.854-.086c-3.619-.802-7.582.45-7.582-3.434zm99.411 18.496 10.792-5.56-2.277-1.408 1.462-3.81c12.103-2.242 8.98-3.362-.478-4.014l-8.962-.362 2.632 3.172-6.58 1.316v2.522l7.636-1.24v1.735l-9.272 2.23 6 .262v2.293l-3.819 1.596c-4.688 1.959-4.738 2.45-.4 3.962l5.655-.305" fill="#75b4a1"/><path d="m166.8 139.033a66.55 50.731 0 1 1 -133.1 0 66.55 50.731 0 1 1 133.1 0z" fill="none" stroke="#000" stroke-width=".5"/><g stroke="#000"><g stroke-width=".5"><path d="m931.948-245.722 33.437.39-.026.543 11.662-.479-.836 16.555-11.09-1.033.02 1.045-26.709.029z" fill="#f7c600" transform="matrix(.8082 .5889 -.5962 .80284 -799.75 -163.296)"/><path d="m116.634 221.196 10.047-12.93m-1.853 2.389 9.614 6.526m-11.446-4.22 9.593 6.69m-10.932-5.084 8.894 7.287m-10.458-5.188 8.729 7.165m-10.376-5.27 8.585 7.555" fill="none"/><path d="m932.277-241.963 29.195.203.628 9.838-23.053.113z" fill="#fff" transform="matrix(.8082 .5889 -.5962 .80284 -799.75 -163.296)"/><g fill="#f7c600"><path d="m910.293 269.634h19.733v21.461h-19.733z" transform="matrix(.996 .0894 -.09843 .99514 -799.75 -163.296)"/><g transform="matrix(.99570048 .09263126 -.09179711 .99577808 -799.693969 -163.281721)"><path d="m911.213 269.536h12.842v15.793h-12.842z"/><path d="m915.938 276.326h3.037v3.735h-3.037z"/></g></g></g><g fill="none" stroke-linejoin="round"><path d="m904.855 365.387a1.07 1.976 0 1 1 -2.14 0 1.07 1.976 0 1 1 2.14 0z" opacity=".452" stroke-width=".475" transform="matrix(1.10879 0 0 1 -898.127 -163.296)"/><path d="m904.855 365.387a1.07 1.976 0 1 1 -2.14 0 1.07 1.976 0 1 1 2.14 0z" opacity=".452" stroke-width=".475" transform="matrix(1.10879 0 0 1 -887.122 -154.503)"/><path d="m904.855 365.387a1.07 1.976 0 1 1 -2.14 0 1.07 1.976 0 1 1 2.14 0z" opacity=".452" stroke-width=".402" transform="matrix(1.54393 0 0 1 -1285.23 -158.929)"/></g><g fill="#f7c600" stroke-width=".5"><path d="m21.25 196.704v19c24 6 38.987 45 79 45s55-39 79-45v-19c-39 0-44 40-79 40s-40-40-79-40zm-2.347 15.582-18.575-6.87m18.575 4.609-18.575-6.871m18.575 4.61-18.575-6.871m18.575 4.61-18.575-6.873m18.575 4.61-18.575-6.87m18.575 4.609-18.575-6.87m18.575 4.61-18.575-6.871m18.922 4.856-19-8v19l19 7z"/><path d="m18.25 195.704h3v20h-3z"/><path d="m181.597 212.286 18.575-6.87m-18.575 4.609 18.575-6.871m-18.575 4.61 18.575-6.871m-18.575 4.61 18.575-6.872m-18.575 4.61 18.575-6.87m-18.575 4.609 18.575-6.871m-18.575 4.61 18.575-6.871m-18.922 4.856 19-8v19l-19 7z"/><path d="m182.25 195.704h-3v20h3z"/></g></g><path d="m63.234 197.419 1.009-2.808.233.084c-.088.795.037 1.474.374 2.036.338.562.81.952 1.415 1.169a2.552 2.552 0 0 0 1.549.064c.526-.14.972-.41 1.335-.809.467-.511.833-1.135 1.098-1.872.26-.725.405-1.418.436-2.08.03-.66-.095-1.214-.376-1.658-.28-.445-.732-.78-1.353-1.002a3.149 3.149 0 0 0 -1.521-.169c-.504.071-1.09.295-1.755.672l.25-.7c.625-.31 1.221-.484 1.79-.52.568-.037 1.18.063 1.838.299.864.31 1.57.76 2.116 1.347a3.904 3.904 0 0 1 1.017 2.05 4.43 4.43 0 0 1 -.197 2.27 4.565 4.565 0 0 1 -1.396 1.981 4.54 4.54 0 0 1 -2.216 1.025 4.712 4.712 0 0 1 -2.396-.212c-.57-.205-1.126-.544-1.67-1.019-.316-.274-.523-.43-.623-.466a.482.482 0 0 0 -.382.022c-.127.06-.24.186-.342.38zm-7.659-3.751c-1.236-.595-2.034-1.47-2.394-2.622-.36-1.153-.242-2.294.355-3.424.51-.965 1.242-1.665 2.195-2.1 1.262-.577 2.576-.504 3.942.218 1.369.724 2.182 1.747 2.44 3.07.204 1.046.04 2.072-.493 3.079-.597 1.13-1.48 1.868-2.647 2.216-1.167.347-2.3.202-3.398-.437zm.122-.394c.696.368 1.413.292 2.152-.227.604-.427 1.195-1.187 1.772-2.28.686-1.298.966-2.378.837-3.24-.088-.603-.419-1.055-.991-1.358-.385-.203-.757-.28-1.114-.23-.455.066-.914.313-1.375.742s-.915 1.066-1.362 1.911c-.532 1.007-.837 1.81-.914 2.407-.077.599-.025 1.077.157 1.437.18.359.46.638.838.838zm-8.683-12.006-5.34 3.023-2.758-2.163.145-.185.22.173c.2.156.387.247.562.271a.618.618 0 0 0 .384-.078c.1-.051.28-.245.544-.581l3.503-4.465c.272-.346.423-.577.455-.692a.633.633 0 0 0 -.047-.404c-.062-.154-.188-.305-.378-.454l-.22-.172.145-.185 3.536 2.774-.145.185-.22-.173c-.2-.156-.387-.247-.561-.27a.618.618 0 0 0 -.388.082c-.1.051-.282.247-.549.586l-3.937 5.02 7.443-4.141.12.094-2.174 8.202 3.741-4.77c.262-.333.414-.544.457-.634.088-.2.1-.41.037-.628-.062-.219-.248-.45-.558-.692l.145-.185 2.317 1.818-.145.185-.07-.055a1.348 1.348 0 0 0 -.476-.257.858.858 0 0 0 -.457-.024 1.211 1.211 0 0 0 -.44.243 7.84 7.84 0 0 0 -.41.502l-3.362 4.285c-.27.343-.419.571-.449.685a.638.638 0 0 0 .049.4c.062.155.188.306.378.455l.215.168-.145.185-2.767-2.17zm-10.452-10.244-5.884 1.745-2.2-2.728.183-.147.175.217c.16.198.322.328.487.39a.62.62 0 0 0 .391.011c.109-.027.33-.175.662-.444l4.417-3.562c.343-.276.542-.467.599-.573a.633.633 0 0 0 .045-.403c-.026-.164-.115-.34-.266-.528l-.176-.217.183-.147 2.822 3.498-.183.147-.176-.217c-.159-.198-.321-.328-.486-.39a.616.616 0 0 0 -.396-.007c-.109.028-.33.177-.667.448l-4.965 4.005 8.184-2.36.095.118-3.963 7.503 4.718-3.806c.33-.266.526-.437.588-.515a.905.905 0 0 0 .178-.604c-.012-.227-.141-.493-.389-.8l.183-.147 1.85 2.292-.184.148-.055-.07a1.348 1.348 0 0 0 -.407-.357.858.858 0 0 0 -.44-.126c-.139.003-.3.05-.484.138a7.808 7.808 0 0 0 -.512.397l-4.24 3.419c-.339.273-.536.462-.59.566a.638.638 0 0 0 -.043.402c.026.163.114.34.266.527l.171.212-.183.148-2.207-2.737zm-11.194-7.846 3.159-1.516-.075-.155c-.236-.492-.561-.774-.977-.847-.415-.073-.939.005-1.57.233l-.105-.218 4.063-1.95.105.218c-.421.258-.737.528-.95.81-.21.283-.319.545-.323.786s.083.547.26.917l2.187-1.05c.427-.204.68-.348.758-.43a.522.522 0 0 0 .137-.316c.013-.128-.033-.303-.14-.524l-.222-.464c-.348-.725-.794-1.225-1.34-1.5-.545-.276-1.207-.345-1.985-.206l-.102-.212 2.634-.834 3.22 6.707-.213.101-.123-.257c-.108-.225-.235-.387-.381-.486a.578.578 0 0 0 -.385-.097c-.111.002-.362.096-.751.283l-5.105 2.45c-.35.168-.562.281-.633.339a.608.608 0 0 0 -.207.36c-.037.196.005.42.125.672l.124.257-.212.102-3.117-6.495 2.295-1.102.104.218c-.508.38-.835.728-.983 1.046-.149.317-.192.686-.13 1.108.033.246.191.663.473 1.25zm-.129-12.328 2.355-.522c.454-.1.734-.192.84-.273a.627.627 0 0 0 .216-.357c.04-.156.016-.427-.07-.81l.23-.052.954 4.301-.23.051c-.086-.388-.18-.644-.283-.766a.648.648 0 0 0 -.347-.229c-.128-.03-.42.005-.874.106l-5.453 1.21c-.455.1-.734.191-.84.273a.627.627 0 0 0 -.217.357c-.039.156-.016.426.07.81l-.23.051-.865-3.904c-.226-1.016-.32-1.775-.284-2.278.036-.502.21-.943.522-1.325a2.137 2.137 0 0 1 1.23-.74c.62-.138 1.182-.028 1.685.328.32.228.6.584.842 1.068l2.397-2.65c.309-.347.496-.585.562-.717.09-.198.118-.41.08-.636l.23-.05.587 2.646-3.23 3.557zm-4.122.914 3.682-.816-.079-.353c-.127-.574-.275-.992-.444-1.254a1.315 1.315 0 0 0 -.719-.546c-.31-.102-.687-.104-1.13-.006-.64.142-1.08.397-1.319.764-.24.367-.285.884-.138 1.549zm-2.049-18.322 2.982.09-.007.247c-.784.163-1.39.492-1.82.987a2.656 2.656 0 0 0 -.674 1.707 2.552 2.552 0 0 0 .418 1.492c.296.458.69.798 1.183 1.02.63.286 1.337.44 2.12.464a7.134 7.134 0 0 0 2.112-.229c.638-.176 1.125-.466 1.461-.87.336-.405.514-.938.534-1.598a3.148 3.148 0 0 0 -.31-1.498c-.224-.458-.618-.945-1.183-1.461l.743.022c.489.497.838 1.01 1.049 1.54.21.529.305 1.143.284 1.84-.027.918-.236 1.728-.625 2.43a3.904 3.904 0 0 1 -1.636 1.602 4.43 4.43 0 0 1 -2.219.514 4.564 4.564 0 0 1 -2.315-.714 4.54 4.54 0 0 1 -1.661-1.79 4.712 4.712 0 0 1 -.54-2.343c.019-.605.169-1.24.451-1.905.164-.384.248-.63.251-.735a.482.482 0 0 0 -.138-.357c-.097-.102-.252-.171-.467-.207zm10.097-6.793.23.053-1.016 4.385-.229-.053.065-.279c.056-.243.058-.449.006-.617a.578.578 0 0 0 -.24-.316c-.088-.069-.343-.151-.763-.249l-5.517-1.277c-.428-.1-.702-.139-.82-.118a.635.635 0 0 0 -.344.21c-.113.12-.196.297-.25.532l-.065.278-.229-.053 1.015-4.384.23.053-.065.278c-.057.243-.059.449-.006.617.033.121.112.228.238.323.088.068.343.15.763.248l5.516 1.277c.43.1.703.138.82.115a.654.654 0 0 0 .347-.213c.112-.12.195-.297.25-.532z"/><path d="m29.755 118.835-1.23 2.78.62.67c.207.222.394.37.56.443.22.098.422.08.606-.051.108-.077.268-.314.48-.71l.215.095-1.158 2.617-.215-.095a1.28 1.28 0 0 0 -.043-.852c-.11-.266-.407-.666-.889-1.198l-5.034-5.596.049-.11 7.71.019c.732 0 1.215-.052 1.451-.156.178-.079.33-.234.456-.465l.215.095-1.686 3.808-.215-.095.07-.157c.135-.306.188-.54.157-.7a.339.339 0 0 0 -.21-.247.778.778 0 0 0 -.23-.06 5.772 5.772 0 0 0 -.513-.019zm-.517.007-3.23-.027 2.177 2.407zm8.335-20.629 2.436 2.518.124-.12c.392-.379.557-.777.495-1.194s-.301-.89-.717-1.417l.173-.168 3.134 3.239-.173.168c-.378-.318-.735-.532-1.07-.644-.334-.112-.617-.131-.847-.059-.23.073-.493.252-.788.537l1.687 1.743c.33.34.545.535.648.583a.522.522 0 0 0 .343.03c.126-.028.277-.127.453-.298l.37-.357c.578-.56.911-1.141 1-1.746.09-.604-.055-1.254-.432-1.949l.169-.163 1.624 2.235-5.346 5.174-.163-.169.205-.199c.18-.173.293-.345.34-.515a.578.578 0 0 0 -.029-.395c-.037-.106-.206-.313-.506-.623l-3.938-4.07c-.27-.28-.444-.444-.521-.493a.608.608 0 0 0 -.407-.083c-.198.027-.398.137-.598.332l-.206.198-.163-.168 5.177-5.01 1.77 1.828-.173.168c-.52-.361-.955-.562-1.303-.602s-.712.035-1.092.226c-.224.11-.57.392-1.038.845z"/><path d="m49.768 92.165 3.961 1.535c.657.255 1.09.385 1.298.392a1.19 1.19 0 0 0 .616-.154l.134.193-3.444 2.397-.134-.193c.26-.211.408-.376.445-.495a.344.344 0 0 0 -.04-.312.449.449 0 0 0 -.153-.141c-.12-.07-.378-.18-.77-.33l-2.095-.808-.16 2.068c-.045.625-.018 1.008.08 1.15.07.101.178.166.322.195.144.028.31.005.5-.07.088-.03.244-.124.47-.28l.134.192-2.714 1.89-.134-.193c.277-.26.463-.513.555-.758.121-.322.214-.881.278-1.679l.212-2.684-3.636-1.39a21.114 21.114 0 0 0 -1.01-.372 1.175 1.175 0 0 0 -.446-.053 1.441 1.441 0 0 0 -.452.152l-.134-.193 3.506-2.44.134.192-.177.123c-.201.14-.32.27-.355.39a.364.364 0 0 0 .05.326.599.599 0 0 0 .174.173l.736.291 1.804.725.11-1.43c.056-.736.018-1.197-.112-1.384a.557.557 0 0 0 -.262-.205.652.652 0 0 0 -.363-.026c-.132.025-.304.111-.516.259l-.134-.193 2.6-1.81.134.193c-.203.146-.35.286-.442.42a1.591 1.591 0 0 0 -.218.543c-.033.146-.078.562-.137 1.247zm8.818-3.89 1.08 2.128c.21.415.368.664.474.745.105.082.24.122.402.12.163-.002.418-.09.765-.267l.107.21-3.9 1.978-.107-.21c.355-.18.578-.334.671-.465a.648.648 0 0 0 .136-.392c-.003-.132-.11-.405-.32-.82l-2.527-4.982c-.21-.415-.369-.663-.474-.745a.627.627 0 0 0 -.4-.121c-.16 0-.416.09-.767.268l-.107-.21 3.346-1.696c1.102-.56 1.992-.764 2.67-.615.679.15 1.168.519 1.466 1.107.253.499.314 1.004.185 1.515-.13.512-.434.97-.912 1.374-.32.276-.916.635-1.788 1.078zm-1.907-3.76 1.683 3.318c.129-.056.225-.1.289-.132.46-.234.746-.55.856-.95s.02-.887-.271-1.46c-.289-.57-.625-.925-1.008-1.062-.383-.138-.822-.082-1.316.169zm6.404-3.613 4.185-1.493.079.221-.21.075c-.314.112-.519.222-.613.33a.597.597 0 0 0 -.154.361c-.009.134.07.432.235.894l1.416 3.97c.259.725.485 1.186.678 1.382.194.196.444.327.75.393.307.066.652.03 1.034-.106.439-.157.777-.389 1.016-.696.238-.308.372-.662.402-1.064.03-.401-.109-1.032-.416-1.893l-1.18-3.306c-.129-.363-.26-.609-.39-.737a.722.722 0 0 0 -.403-.22c-.212-.028-.481.016-.808.133l-.079-.221 2.804-1 .079.22-.167.06c-.228.081-.4.195-.52.34a.827.827 0 0 0 -.18.53c-.007.146.049.385.167.715l1.098 3.08c.34.952.522 1.662.548 2.13.025.466-.142.964-.502 1.492-.36.529-.96.943-1.801 1.243-.702.25-1.277.35-1.727.299-.613-.069-1.098-.264-1.455-.586-.358-.322-.657-.82-.897-1.493l-1.416-3.97c-.167-.466-.296-.747-.388-.842a.618.618 0 0 0 -.366-.176c-.152-.022-.399.03-.74.156zm20.265-.076.343 3.02-7.46 1.666-.05-.23.279-.062c.243-.054.43-.141.559-.261a.578.578 0 0 0 .181-.353c.024-.11-.012-.374-.106-.796l-1.234-5.526c-.096-.43-.18-.692-.249-.79a.635.635 0 0 0 -.338-.22c-.157-.05-.352-.048-.588.004l-.279.062-.05-.229 4.478-1 .051.229-.365.081c-.244.055-.43.142-.56.262a.607.607 0 0 0 -.187.354c-.023.11.012.375.106.796l1.196 5.352c.096.43.182.698.258.804a.506.506 0 0 0 .35.199c.111.014.365-.023.762-.112l.7-.156c.446-.1.8-.262 1.062-.485s.464-.529.605-.916.235-.932.282-1.637zm7.629-6.805.4 2.842-.26.03c-.204-.7-.57-1.24-1.097-1.62-.528-.38-1.069-.538-1.624-.474-.428.05-.755.203-.978.461-.224.258-.318.537-.284.835.022.19.086.352.19.49.146.183.364.355.655.518.214.116.698.309 1.454.58 1.057.375 1.786.762 2.185 1.159.395.397.626.877.69 1.44.083.715-.124 1.362-.621 1.942-.498.579-1.175.918-2.033 1.017a3.432 3.432 0 0 1 -.772.006 5.802 5.802 0 0 1 -.938-.204c-.211-.06-.382-.084-.513-.069a.621.621 0 0 0 -.332.167.888.888 0 0 0 -.252.418l-.233.027-.373-3.228.233-.027c.29.887.726 1.538 1.31 1.954.582.416 1.178.589 1.788.518.47-.054.83-.226 1.08-.514.25-.29.356-.604.316-.944a1.183 1.183 0 0 0 -.228-.568 1.877 1.877 0 0 0 -.551-.483c-.239-.145-.651-.322-1.238-.53-.821-.293-1.418-.554-1.79-.784-.371-.23-.668-.5-.89-.811a2.252 2.252 0 0 1 -.4-1.065 2.337 2.337 0 0 1 .549-1.828c.444-.537 1.047-.85 1.808-.937.278-.032.55-.03.819.008.203.027.455.093.754.197.3.104.507.149.62.136a.34.34 0 0 0 .247-.13c.055-.075.095-.244.12-.507zm8.293 8.161.007.235-4.498.152-.008-.234.286-.01c.25-.008.449-.06.598-.154a.578.578 0 0 0 .243-.313c.043-.103.058-.37.043-.802l-.192-5.659c-.015-.44-.047-.714-.098-.822a.635.635 0 0 0 -.292-.28c-.144-.077-.337-.112-.578-.103l-.286.01-.008-.235 4.498-.153.008.235-.285.01c-.25.008-.45.06-.598.154a.607.607 0 0 0 -.25.313c-.043.103-.058.37-.043.802l.192 5.659c.015.44.049.714.101.822s.15.201.295.279.338.112.579.104zm8.21-8.325-.062 2.87-.26-.012c-.09-.725-.364-1.317-.824-1.776-.46-.46-.968-.702-1.526-.728-.431-.02-.778.08-1.04.298-.262.22-.4.479-.414.779a.965.965 0 0 0 .11.513c.113.204.3.41.562.617.192.149.64.417 1.342.805.983.541 1.64 1.04 1.97 1.495.327.456.477.967.451 1.533-.033.72-.341 1.324-.925 1.816s-1.307.719-2.17.679a3.448 3.448 0 0 1 -.763-.118 5.805 5.805 0 0 1 -.893-.352c-.199-.094-.364-.144-.495-.15a.622.622 0 0 0 -.354.11.888.888 0 0 0 -.316.374l-.235-.011.15-3.247.234.011c.144.922.47 1.635.979 2.139.508.504 1.069.77 1.682.799.473.021.857-.09 1.15-.335s.447-.539.463-.881a1.186 1.186 0 0 0 -.135-.597 1.876 1.876 0 0 0 -.466-.565c-.212-.181-.59-.422-1.136-.723-.764-.42-1.312-.774-1.642-1.06-.33-.287-.579-.6-.747-.943a2.252 2.252 0 0 1 -.225-1.116c.031-.685.31-1.257.835-1.716.525-.458 1.17-.67 1.935-.635.28.013.548.06.807.139.197.06.434.165.714.315.279.151.475.229.59.234a.34.34 0 0 0 .264-.09c.066-.064.133-.224.2-.48zm12.884 6.791-.513 2.331c-.1.455-.135.747-.105.877s.108.246.236.348c.127.101.38.194.76.278l-.05.229-4.271-.94.05-.229c.389.086.66.107.814.066a.648.648 0 0 0 .354-.218c.081-.104.172-.383.272-.838l1.2-5.455c.1-.455.134-.747.104-.877a.627.627 0 0 0 -.232-.347c-.125-.101-.38-.194-.764-.279l.05-.229 3.664.806c1.207.265 2.026.67 2.456 1.216.43.545.575 1.14.433 1.785-.12.545-.392.975-.817 1.289-.424.314-.95.476-1.575.485-.423.011-1.112-.088-2.066-.298zm.905-4.116-.799 3.633c.135.038.237.065.307.08.505.111.926.047 1.265-.193.338-.24.577-.674.715-1.302.137-.624.101-1.11-.108-1.46-.21-.35-.584-.583-1.126-.702zm8.567 10.527-.072.223-4.288-1.364.07-.223.273.086c.238.076.443.094.615.056a.578.578 0 0 0 .334-.214c.075-.082.179-.33.31-.74l1.715-5.396c.134-.42.195-.689.184-.808a.635.635 0 0 0 -.182-.36c-.11-.122-.28-.22-.51-.293l-.272-.086.071-.224 4.29 1.364-.072.224-.272-.087c-.238-.076-.443-.094-.615-.056a.607.607 0 0 0 -.34.212c-.076.082-.179.33-.31.74l-1.716 5.397c-.133.419-.193.688-.18.808s.074.24.184.362c.11.121.28.219.51.292zm6.361-1.488-.97 2.209c-.187.426-.278.706-.275.84a.628.628 0 0 0 .16.385c.103.124.335.265.695.423l-.094.215-4.034-1.77.094-.216c.365.16.627.235.786.224.16-.01.29-.06.39-.145s.243-.341.43-.767l2.245-5.115c.187-.427.278-.707.274-.84a.628.628 0 0 0 -.16-.386c-.102-.123-.334-.264-.694-.422l.094-.215 3.662 1.607c.953.418 1.622.79 2.006 1.116.384.325.637.727.76 1.204.124.477.081.953-.128 1.43-.255.581-.675.97-1.26 1.166-.373.123-.826.139-1.36.048l.725 3.5c.096.454.178.746.245.877.107.19.262.337.466.44l-.095.215-2.481-1.089-.964-4.707zm1.696-3.865-1.515 3.452.331.146c.539.236.963.364 1.274.382.31.019.6-.067.865-.258.267-.19.49-.493.673-.908.263-.6.317-1.106.162-1.516s-.544-.752-1.168-1.025zm9.443 11.336-2.581-1.607-.75.52c-.249.174-.42.339-.517.493-.127.205-.139.407-.034.607.061.118.273.31.636.576l-.124.2-2.43-1.514.124-.199c.287.124.57.15.85.076.28-.072.716-.31 1.31-.712l6.244-4.204.102.063-1.095 7.633c-.102.724-.118 1.21-.048 1.458.053.188.185.36.397.516l-.124.2-3.535-2.2.124-.2.145.09c.284.177.508.262.672.254a.338.338 0 0 0 .273-.174.779.779 0 0 0 .092-.22 5.95 5.95 0 0 0 .09-.504zm.065-.513.478-3.194-2.688 1.818zm15.132 4.475-1.52 1.765-.174-.15c.248-.495.386-.885.415-1.171a1.735 1.735 0 0 0 -.148-.869c-.073-.163-.26-.375-.565-.637l-.486-.419-4.333 5.031c-.287.334-.449.558-.483.673a.655.655 0 0 0 .028.405c.053.155.173.313.359.473l.216.186-.153.178-3.415-2.94.153-.179.217.187c.19.163.37.26.544.292a.604.604 0 0 0 .396-.06c.101-.047.293-.234.575-.561l4.333-5.031-.472-.406c-.439-.378-.838-.56-1.197-.545-.503.019-.998.237-1.486.655l-.183-.158 1.52-1.765zm-.904 11.406-.176.156-2.981-3.371.175-.156.19.214c.165.187.332.308.499.363.117.044.25.04.396-.011.107-.033.323-.192.646-.478l4.241-3.75c.33-.292.52-.492.572-.6a.635.635 0 0 0 .03-.402c-.032-.161-.128-.332-.288-.513l-.19-.214.177-.155 2.98 3.371-.175.156-.19-.214c-.165-.187-.331-.308-.499-.364a.606.606 0 0 0 -.4.007c-.107.033-.322.192-.646.478l-4.241 3.75c-.33.292-.52.493-.57.602a.655.655 0 0 0 -.027.405c.032.161.128.332.288.513z"/><path d="m173.367 110.171-2.351 1.646-.144-.217c.531-.5.846-1.072.946-1.714.099-.643-.006-1.196-.315-1.662-.24-.36-.524-.58-.856-.662-.331-.082-.622-.04-.872.126a.968.968 0 0 0 -.35.392c-.097.212-.152.485-.165.818-.006.243.042.763.144 1.558.144 1.113.13 1.938-.042 2.474a2.373 2.373 0 0 1 -.97 1.27c-.6.397-1.27.506-2.012.326s-1.352-.63-1.83-1.35a3.447 3.447 0 0 1 -.356-.685 5.802 5.802 0 0 1 -.243-.928c-.042-.216-.099-.379-.171-.488a.622.622 0 0 0 -.3-.22.888.888 0 0 0 -.487-.035l-.13-.195 2.707-1.798.13.195c-.658.661-1.04 1.345-1.147 2.054-.106.708.01 1.317.35 1.829.262.394.579.638.95.73.37.09.698.042.984-.148.17-.112.303-.266.402-.461.099-.196.159-.432.18-.71.021-.279-.008-.726-.088-1.344-.113-.865-.15-1.515-.115-1.95a3.02 3.02 0 0 1 .32-1.161c.176-.338.431-.619.766-.841a2.337 2.337 0 0 1 1.878-.34c.68.152 1.232.548 1.656 1.186.155.232.276.477.365.733.068.193.123.447.167.761.043.314.097.52.16.614a.34.34 0 0 0 .228.16c.092.016.26-.025.506-.122zm2.078 17.809-2.363.484c-.456.094-.737.18-.844.261a.627.627 0 0 0 -.222.353c-.042.156-.023.426.056.812l-.23.047-.885-4.315.23-.048c.08.39.17.647.271.77a.648.648 0 0 0 .343.235c.128.032.42.001.876-.092l5.472-1.122c.456-.094.737-.18.844-.26a.627.627 0 0 0 .222-.354c.042-.156.023-.426-.056-.812l.23-.047.803 3.918c.21 1.02.292 1.78.248 2.282-.044.501-.225.94-.543 1.316a2.137 2.137 0 0 1 -1.242.722c-.622.127-1.182.009-1.68-.356-.316-.233-.59-.594-.824-1.081l-2.439 2.612c-.314.341-.506.577-.574.708a1.076 1.076 0 0 0 -.09.634l-.23.047-.545-2.655 3.286-3.506zm4.135-.848-3.693.757.072.355c.118.576.26.996.424 1.26.164.265.401.45.71.558.31.107.686.115 1.13.024.642-.131 1.086-.379 1.331-.742.245-.364.3-.88.163-1.547z"/><path d="m180.877 140.238-3.502-.132-.006.17c-.02.546.136.948.47 1.206.332.259.832.434 1.497.527l-.009.241-4.503-.17.009-.241c.492-.032.898-.124 1.217-.275.32-.15.537-.332.653-.544.116-.211.181-.522.197-.932l-2.423-.092c-.474-.018-.764-.009-.871.027a.522.522 0 0 0 -.269.216c-.072.107-.112.283-.122.529l-.019.514c-.03.803.131 1.454.485 1.952s.908.868 1.66 1.108l-.008.234-2.72-.49.281-7.434.235.01-.01.285c-.01.249.027.452.11.607.055.112.153.2.295.265.1.05.365.084.796.1l5.658.214c.39.015.629.013.718-.005a.608.608 0 0 0 .352-.222c.124-.156.192-.373.202-.653l.011-.285.235.009-.272 7.2-2.544-.097.01-.24c.625-.1 1.078-.255 1.357-.467s.49-.518.632-.92c.085-.233.14-.676.164-1.327zm-1.628 14.646-2.796-.648.065-.252c.727.06 1.363-.087 1.906-.443.544-.356.886-.804 1.025-1.345.108-.418.081-.778-.08-1.08-.16-.3-.386-.489-.676-.564a.972.972 0 0 0 -.525.002c-.224.07-.463.211-.72.425-.184.158-.538.54-1.062 1.149-.73.851-1.353 1.393-1.867 1.623a2.373 2.373 0 0 1 -1.592.127c-.697-.18-1.227-.605-1.589-1.277s-.435-1.427-.22-2.263c.067-.262.158-.503.271-.723a5.8 5.8 0 0 1 .528-.801c.132-.176.215-.327.248-.454a.622.622 0 0 0 -.036-.37.888.888 0 0 0 -.3-.385l.058-.228 3.147.81-.058.228c-.932-.048-1.697.126-2.294.52-.598.395-.973.89-1.126 1.484-.118.459-.087.856.092 1.193.18.337.436.548.768.634.197.05.4.047.612-.01.211-.057.427-.17.648-.341.221-.17.534-.492.94-.964.568-.662 1.026-1.126 1.374-1.39a3.019 3.019 0 0 1 1.076-.54c.37-.094.75-.091 1.138.009.664.17 1.167.56 1.509 1.168.341.608.417 1.283.226 2.025-.07.27-.17.524-.301.761-.1.18-.25.391-.455.634-.204.242-.32.419-.35.53a.34.34 0 0 0 .034.277c.05.078.193.176.43.294zm-5.225 11.672-2.093-1.025.101-.205c.542.115.955.15 1.239.105.283-.045.55-.166.803-.363.139-.11.297-.347.474-.708l.282-.575-5.963-2.921c-.395-.194-.653-.293-.773-.298a.653.653 0 0 0 -.385.13c-.136.09-.259.247-.367.467l-.125.257-.211-.104 1.982-4.047.211.103-.125.257c-.11.224-.159.424-.146.6a.608.608 0 0 0 .16.368c.07.086.3.224.687.414l5.962 2.921.274-.559c.255-.52.33-.952.225-1.296-.146-.481-.482-.905-1.01-1.272l.107-.217 2.092 1.025zm-11.479 1.956-.191-.136 2.613-3.664.19.136-.165.233c-.145.203-.226.392-.242.568a.578.578 0 0 0 .101.384c.056.096.26.27.61.52l4.61 3.288c.36.256.597.396.713.422.117.026.25.005.4-.062.149-.067.294-.2.434-.396l.165-.232.192.136-2.613 3.664-.191-.136.165-.233c.145-.203.226-.392.242-.568a.607.607 0 0 0 -.097-.389c-.056-.097-.26-.27-.61-.521l-4.61-3.287c-.36-.256-.597-.396-.715-.42a.652.652 0 0 0 -.401.065c-.15.067-.294.2-.434.396zm-.75 13.258-1.68-1.614.16-.165c.48.275.863.435 1.147.478.283.044.575.01.875-.1.167-.063.39-.24.668-.53l.444-.461-4.786-4.603c-.317-.305-.532-.478-.645-.519a.653.653 0 0 0 -.406.006c-.158.045-.322.156-.492.333l-.198.206-.17-.163 3.125-3.248.17.162-.199.206c-.173.18-.28.356-.322.527a.607.607 0 0 0 .04.4c.04.103.216.305.527.604l4.786 4.602.431-.448c.402-.418.606-.807.61-1.166.009-.503-.182-1.01-.572-1.52l.167-.173 1.679 1.614zm-2.853 2.54-3.565 2.653-.14-.189.178-.132c.268-.2.432-.365.49-.495a.596.596 0 0 0 .041-.391c-.03-.13-.192-.392-.485-.786l-2.517-3.381c-.46-.618-.81-.993-1.053-1.123a1.454 1.454 0 0 0 -.832-.156c-.313.026-.632.16-.958.403-.373.278-.629.6-.767.963a1.928 1.928 0 0 0 -.073 1.135c.089.392.406.955.952 1.689l2.096 2.816c.23.309.426.505.589.59a.722.722 0 0 0 .449.093c.21-.036.455-.157.734-.364l.14.188-2.388 1.777-.14-.188.142-.106c.194-.144.326-.303.397-.477a.827.827 0 0 0 .018-.56c-.036-.142-.16-.353-.37-.635l-1.95-2.622c-.605-.812-.987-1.437-1.148-1.877-.16-.44-.147-.964.043-1.574s.642-1.182 1.358-1.716c.598-.444 1.119-.708 1.563-.791.607-.114 1.128-.069 1.564.134s.867.592 1.294 1.165l2.517 3.382c.295.397.501.627.617.691s.25.084.402.061c.151-.023.372-.145.661-.365zm-16.93 10.79-1.103-2.052.201-.108c.374.409.69.678.946.807s.544.186.864.173c.178-.009.443-.108.798-.299l.564-.303-3.142-5.849c-.209-.388-.36-.618-.455-.692a.654.654 0 0 0 -.388-.12c-.164-.006-.354.05-.57.166l-.252.135-.111-.206 3.97-2.134.11.207-.25.136c-.22.118-.377.252-.469.402a.607.607 0 0 0 -.085.392c.007.111.113.357.317.738l3.143 5.848.548-.294c.51-.274.823-.582.938-.922.162-.476.136-1.017-.079-1.622l.213-.115 1.102 2.053zm-10.092-2.511 2.846-1.071.043-.912c.013-.303-.013-.54-.077-.71-.085-.226-.239-.358-.461-.396-.13-.023-.412.028-.844.154l-.083-.22 2.68-1.007.083.22a1.28 1.28 0 0 0 -.578.627c-.113.266-.19.758-.232 1.474l-.463 7.513-.113.042-5.39-5.513c-.513-.522-.89-.83-1.129-.925-.18-.073-.398-.072-.65 0l-.083-.22 3.897-1.466.083.22-.16.06c-.314.118-.517.244-.611.379a.34.34 0 0 0 -.028.322c.027.072.066.14.118.207.022.033.137.159.346.378zm.367.363 2.244 2.323.192-3.24z"/><path d="m21.25 211.704c31.768 5 33.906 44 79 44s47.232-39 79-44l-.031-10c-37.583.017-39.405 38-78.969 38s-41.386-37.983-78.969-38z" fill="#fff" stroke="#000" stroke-width=".5"/><g stroke="#000"><g stroke-width=".5"><path d="m110.382 94.779v-3.145c-11.655-1.654-22.346-1.29-30.28 1.398 10.625-.658 20.583.24 30.28 1.747z" fill="#4892a2"/><g fill="#f7dec6"><path d="m60.43 125.217c4.234 1.354 6.044 3.595 5.93 7.432 2.405-2.443 6.251.897 7.448 2.1 2.733-18.5 8.37-23.393 13.674-30.407z"/><path d="m100.329 104.671c-2.316 4.118-.994 8.318-.494 12.435l-15.317.082c-1.561-5.17.353-8.95 1.976-12.846zm-17.129 12.517c-4.727 5.604-3.67 11.94-2.964 17.788l18.775-.988c-2.647-4.882-2.834-11.39-.164-16.306zm36.563-19.598c-2.35 5.007-2.63 10.09 1.153 15.316l-17.458.165c-1.86-6.557-.61-10.974.988-15.152z"/><path d="m100.74 113.07c-2.77 6.524-6.19 12.456-2.058 25.282l23.058-.082c-4.15-8.572-4.095-17.664-.43-25.117z"/><path d="m118.363 121.882c-2.017 3.893-4.048 7.784-.494 12.106h12.188c-2.424-4.284-2.737-8.234-.988-11.859z"/></g><path d="m79.742 148.316 2.8 6.259c16.987.18 35.748-.526 50.397.824l4.118-7.083z" fill="#5a6b6b"/></g><g fill="none"><path d="m67.06 140.082 12.764 8.152c-8.887-7.558-14.583-17.031-21.493-25.775" stroke-width=".5"/><path d="m95.388 148.316v-54.35m28.492 54.186v-49.245"/><path d="m110.21 148.152v-57.81" stroke-width="1.5"/><path d="m99.3 113.07h22.654m-39.907 4.118h16.923m18.652 4.942h11.983m-43.605-17.459h16.115"/><path d="m60.472 125.094 34.916-27.34 6.258 6.917m9.059-12.023 4.217 5.045m-38.639 47.329 19.105-22.728m-24.54 16.47 18.775-21.74m-9.311 17.866 10.629-17.537m-24.684 15.337 14.424-23.406m16.192 7.855 12.927-12.927m-24.224 44.022 9.666-22.827m.233 10.365-7.22 12.229m12.577.465-5.706-11.18m1.63 10.948 4.892-11.414m8.502 11.18-15.257-19.914m2.446 3.144 12.927-14.324 7.336 18.517m6.522-17.818-3.26 4.6m8.501-.466-5.532-4.775m-2.97-3.844 2.62-5.53m3.553 6.87h-6.464m3.145-7.162 2.97 7.046m-2.854 11.122-12.81 22.71m20.263.232-11.529-14.499m4.018-4.891 7.045 18.982m-13.16.234 6.115-16.188m-8.443 16.304-5.008-15.897m-7.919 15.839 13.625-17.586" stroke-width=".5"/></g></g><g id="b" stroke="#000" stroke-width=".5"><path d="m54.048 149.263s.891 2.775 5.024 2.677c3.557-.085 5.064-2.718 5.064-2.718-2.815.834-5.85.848-10.088.041z" fill="#5a6b6b"/><path d="m54.42 149.346c1.351-2.036 1.948-4.98 2.799-7.617-.134 2.607-.967 5.004-.124 7.905zm4.57.494c-.348-4.901.95-6.506 1.646-8.935-.198 3.206-.098 8.199-1.647 8.935zm3.664-.391c1.548-1.007 1.454-3.773 1.276-6.526-.953 1.595-1.865 3.843-1.276 6.526z" fill="#f7dec6"/></g><use height="600" transform="translate(-16.635 -2.8)" width="1200" xlink:href="#b"/><path d="m33.048 212.621-1.015.255-1.288-.793-.407.662 7.259 4.47c.311.192.696.412 1.155.66.454.23.93.413 1.429.548.311.077.592.117.842.12.274.028.53.01.77-.052.494-.117.948-.495 1.361-1.132.189-.307.284-.615.286-.925a2.347 2.347 0 0 0 -.253-1.114c-.367-.653-.898-1.305-1.595-1.955-.164-.167-.266-.291-.307-.373-.01-.017-.02-.016-.031 0-.004.006.186.068.572.186.487.176.976.3 1.468.371.423.04.829-.015 1.219-.167.37-.131.66-.367.87-.706.286-.514.406-.976.358-1.386-.069-.437-.27-.855-.605-1.255a4.357 4.357 0 0 0 -.862-.86c-.424-.28-.753-.493-.988-.637l-7.51-4.625-.408.662 1.185.73.327 1.094zm4.521-1.298 1.934 1.19c.42.258.725.53.919.815.172.273.265.542.278.808.03.277.002.53-.08.76-.098.26-.21.495-.338.702-.217.353-.555.653-1.013.9-.222.094-.51.13-.865.109-.24-.02-.534-.136-.884-.352l-1.513-.932-.26-1.04zm2.017-3.276.965-.28 1.36.836c.47.29.823.668 1.06 1.135.174.367.08.856-.281 1.468-.236.383-.486.633-.75.748-.302.136-.587.192-.853.17a2.545 2.545 0 0 1 -.794-.181 4.888 4.888 0 0 1 -.628-.316l-1.655-1.02zm16.088 24.997-1.143-1.178-.558.542 5.046 5.199.558-.542a4.66 4.66 0 0 1 -.748-.942 1.638 1.638 0 0 1 -.153-.55 1.174 1.174 0 0 1 .057-.64l3.778-8.999-.944-.973-9.56 2.453c-.399.105-.763.121-1.094.048a3.383 3.383 0 0 1 -1.183-.463l-.518.503 3.286 3.386.558-.542-.61-.629.528-1.508.968-.233 3.106 3.2-.774 1.83zm-.835-5.442 4.144-.951c.01-.001-.003-.017-.033-.049a.07.07 0 0 1 -.007-.062l-1.462 3.784zm13.797 16.485-1.005.295-1.427-.804-.382.677 6.386 3.597.382-.678-.892-.502-.301-1.029 1.737-3.085 3.838 2.162-1.738 3.086-.94.327-1.005-.565-.382.677 6.404 3.607.382-.678-1.43-.805-.269-1.007 3.59-6.372 1.11-.245 1.325.747.382-.678-6.404-3.606-.381.677.904.51.304 1.037-1.399 2.482-3.837-2.161 1.403-2.492.953-.317.973.547.381-.677-6.386-3.596-.381.677 1.322.745.369 1.08zm28.346 9.869-1.637-.115-.054.776 7.227.508.054-.775a4.659 4.659 0 0 1 -1.186-.204 1.64 1.64 0 0 1 -.48-.307c-.17-.127-.298-.3-.385-.516l-3.186-9.224-1.352-.096-5.488 8.204c-.227.344-.488.599-.783.765-.33.21-.727.357-1.19.444l-.05.72 4.706.332.054-.776-.874-.061-.612-1.477.566-.82 4.448.314.645 1.88zm-4.251-3.498 2.453-3.473c.006-.006-.013-.01-.057-.014a.068.068 0 0 1 -.046-.041l1.434 3.794zm19.479 4.041 5.74-2.086-.265-.73-1.278.464-1.718-.936-2.32-6.389c-.014-.037-.026-.054-.035-.05.012-.004.03.008.054.036l7.011 7.079.514-.187.293-9.49a.93.93 0 0 1 .079-.347c.008-.035.01-.051.006-.05-.01.004.024.113.103.328l2.488 6.848-.487.982-1.65.6.265.73 7.562-2.747-.266-.731-1.503.546-.94-.452-2.497-6.874.539-1.002 1.39-.505-.265-.731-5.606 2.037-.28 6.69.164-.059-4.778-4.853-5.862 2.13.265.73 1.965-.713c.217-.068.352-.076.403-.024.076.11.141.241.197.395l2.32 6.387-.643 1.796-1.23.447zm29.655-18.394-1.187 1.132.536.563 5.242-5.001-.536-.563a4.66 4.66 0 0 1 -.949.74 1.639 1.639 0 0 1 -.55.148c-.209.04-.423.019-.641-.062l-8.966-3.855-.98.936 2.37 9.58c.102.4.115.764.039 1.094a3.383 3.383 0 0 1 -.473 1.18l.498.522 3.414-3.257-.537-.563-.634.605-1.504-.541-.225-.97 3.227-3.079 1.824.79zm-5.449.787-.915-4.152c-.001-.009-.018.002-.05.033a.068.068 0 0 1 -.061.006l3.77 1.495zm17.564-12.116.473-.4.253-1.553c.07.028.222.02.453-.023.227-.051.5-.13.821-.239.603-.18 1.363-.648 2.282-1.406 1.04-.88 1.797-1.866 2.27-2.96.468-1.042.265-2.106-.61-3.19a3.282 3.282 0 0 0 -1.559-1.047 2.836 2.836 0 0 0 -1.495-.006 5.981 5.981 0 0 0 -1.651.678c-.454.277-.901.584-1.343.92-1.086.764-1.985 1.3-2.695 1.61-.642.283-1.125.234-1.448-.149-.188-.222-.278-.46-.269-.715.004-.26.077-.517.219-.769.071-.143.152-.283.242-.419.08-.119.172-.231.277-.337.233-.233.464-.447.693-.64 1.197-.977 2.262-1.492 3.195-1.547.473-.052.923-.04 1.35.036a7.61 7.61 0 0 1 1.173.373l.53-.447-2.325-2.75-.485.41-.179 1.435c-.263.014-.75.164-1.459.45-.716.294-1.558.84-2.525 1.635a6.707 6.707 0 0 0 -1.32 1.478 5.038 5.038 0 0 0 -.623 1.632c-.067.449-.028.894.117 1.336.1.391.285.746.555 1.065.836.966 1.793 1.322 2.872 1.07 1.108-.238 2.259-.785 3.451-1.642.339-.25.698-.508 1.078-.777a8.872 8.872 0 0 1 1.215-.686c.377-.2.732-.308 1.066-.326a.797.797 0 0 1 .688.288c.327.405.35.915.07 1.53-.25.567-.728 1.15-1.432 1.745-.638.539-1.233.9-1.785 1.082-.564.218-1.095.326-1.595.324a5.084 5.084 0 0 1 -1.348-.219 9.06 9.06 0 0 1 -1.345-.439l-.517.437z"/></g></svg>