<?xml version="1.0" encoding="UTF-8" standalone="no"?>
<svg height="600" viewBox="0 0 900 600" width="900" xmlns="http://www.w3.org/2000/svg">
  <path d="M 0,600 V 0 H 900 v 600 z" fill="#fff"/>
  <path d="M 900,600 V 0 L 0,600 Z" fill="#38a100"/>
  <path d="m 236.67675,324.68769 c 10.30586,5.29893 19.78725,8.28561 26.79523,3.56469 10.30586,-6.93678 -4.01929,-32.08265 -16.59243,-49.1356 -12.57315,-17.05295 -29.16559,-55.01263 -13.1915,-65.70685 15.97408,-10.69422 37.92556,6.35873 44.62437,33.62418 2.88564,11.75402 10.30586,27.26545 25.14631,24.08609 14.84043,-3.17936 13.80984,-24.18243 5.6682,-46.53432 -6.80184,-18.69081 -30.91757,-59.44447 -77.08782,-79.09872 l 12.36703,-21.67748 c 12.98539,3.27571 27.10441,-2.11958 33.70016,-13.6809 7.62634,-13.488205 2.16423,-30.155779 -12.26397,-37.285264 -14.42821,-7.129476 -32.25734,-2.02323 -39.88368,11.464983 -6.59575,11.561322 -3.29788,25.627601 6.90492,33.816861 l -12.98538,22.83362 c -6.90493,-2.21592 -14.32514,-3.85378 -22.15759,-5.00991 0.20613,-3.75743 0.30916,-7.22583 -1.13365,-7.22583 -3.29788,0 0,-14.45165 -2.47341,-14.45165 -2.4734,0 0.82447,-14.740686 -2.26729,-14.740686 -3.09175,0 1.44282,-14.451651 -1.54588,-14.451651 -2.98869,0 -0.30916,-15.511443 -2.78258,-15.511443 -2.4734,0 -0.82447,-13.873587 -3.81317,-13.873587 C 180.71593,55.694223 183.39545,45 176.07829,45 c -7.42022,0 -4.63764,10.694223 -7.62634,10.694223 -2.9887,0 -1.33976,13.873587 -3.81317,13.873587 -2.4734,0 0.30917,15.511443 -2.78258,15.511443 -2.9887,0 1.54588,14.451651 -1.54587,14.451651 -3.09177,0 0.20613,14.740686 -2.2673,14.740686 -2.47341,0 0.82447,14.45165 -2.47341,14.45165 -1.44281,0 -1.44281,3.08302 -1.2367,6.64777 -8.24468,0.77075 -15.87102,2.02323 -22.98207,3.75743 l -19.78725,-34.78032 33.18487,2.50496 -68.224791,-51.158857 7.111044,81.410977 16.386317,-27.07276 18.65361,32.85343 c -41.120387,14.54799 -60.186227,46.53432 -71.625734,87.57701 -3.091755,11.27229 -4.225401,28.80696 8.038572,31.88998 11.336445,2.79399 19.684194,-6.55141 24.837126,-18.49811 12.367032,-28.90331 30.608406,-43.54765 45.758016,-35.26204 15.76797,8.57465 9.17222,40.1756 -9.68751,61.46771 -20.817834,23.50804 -43.387668,67.44105 3.19482,48.36486 l -37.101099,65.22516 c -4.122345,7.32216 7.52328,12.81372 11.542563,5.68428 l 45.139676,-79.48407 c 9.06915,-3.66108 19.58113,-6.93681 31.63898,-7.41852 v 84.20496 c 0,7.99659 10.92422,8.28561 10.92422,0 v -83.91594 c 10.2028,0.96345 21.43619,3.9501 33.80322,10.21251 l 43.59379,76.78647 c 4.01928,7.03311 15.6649,1.63779 11.54256,-5.68434 z" fill="#9c4a08"/>
  <path d="M 0,600 900,0 V 192 L 0,792 Z" fill="#087bce"/>
</svg>
