<?xml version="1.0" encoding="utf-8"?>
<!-- Generator: Adobe Illustrator 16.0.0, SVG Export Plug-In . SVG Version: 6.00 Build 0)  -->
<!DOCTYPE svg PUBLIC "-//W3C//DTD SVG 1.1//EN" "http://www.w3.org/Graphics/SVG/1.1/DTD/svg11.dtd">
<svg version="1.1" id="Layer_1" xmlns="http://www.w3.org/2000/svg" xmlns:xlink="http://www.w3.org/1999/xlink" x="0px" y="0px"
	 width="773px" height="533px" viewBox="0 0 773 533" enable-background="new 0 0 773 533" xml:space="preserve">
<g>
	<rect x="1" y="1" fill="#FFFFFF" width="773" height="533"/>
	<g>
		<circle fill="#2559A8" cx="386.5" cy="270.5" r="161.5"/>
		<path fill="#D00114" d="M537,238c-0.496-27.774-16.527-57.611-16.786-58.091C491.166,137.117,442.118,109,386.5,109
			C297.306,109,225,181.306,225,270.5c0,33.073,9.949,63.818,27.006,89.422C192.604,249.927,294.511,171.998,358.5,160
			c64-12,92,27,98,58s-15,68.5-49.5,69.5s-8.5-22.5-35-32S288,272,312,337s116.5,53.5,169,18S537.5,266,537,238z"/>
	</g>
	
		<rect x="533.672" y="117.755" transform="matrix(0.8387 -0.5446 0.5446 0.8387 12.5743 318.9587)" fill="#2559A8" width="21.999" height="41"/>
	
		<rect x="573.43" y="178.978" transform="matrix(0.8387 -0.5446 0.5446 0.8387 -14.3628 350.4646)" fill="#2559A8" width="22" height="41"/>
	
		<rect x="622.57" y="60.023" transform="matrix(0.8387 -0.5446 0.5446 0.8387 58.3585 358.0598)" fill="#2559A8" width="22.001" height="41"/>
	
		<rect x="662.328" y="121.246" transform="matrix(0.8387 -0.5447 0.5447 0.8387 31.4341 389.6063)" fill="#2559A8" width="22" height="41"/>
	
		<rect x="574.43" y="320.021" transform="matrix(0.8387 0.5446 -0.5446 0.8387 279.8879 -263.9014)" fill="#2559A8" width="22" height="41"/>
	
		<rect x="534.672" y="381.244" transform="matrix(0.8387 0.5446 -0.5446 0.8387 306.8326 -232.3784)" fill="#2559A8" width="21.999" height="41.001"/>
	
		<rect x="618.879" y="348.887" transform="matrix(0.8387 0.5446 -0.5446 0.8387 302.7787 -283.4525)" fill="#2559A8" width="22" height="41.001"/>
	
		<rect x="579.121" y="410.111" transform="matrix(0.8387 0.5446 -0.5446 0.8387 329.7337 -251.9337)" fill="#2559A8" width="22.001" height="41"/>
	
		<rect x="663.329" y="377.753" transform="matrix(0.8387 0.5447 -0.5447 0.8387 325.7128 -303.0253)" fill="#2559A8" width="22" height="41"/>
	
		<rect x="623.57" y="438.977" transform="matrix(0.8387 0.5446 -0.5446 0.8387 352.6263 -271.4857)" fill="#2559A8" width="22.001" height="40.999"/>
	
		<rect x="106.55" y="371.866" transform="matrix(0.8387 -0.5446 0.5446 0.8387 -214.6027 133.1999)" fill="#2559A8" width="22" height="113.999"/>
	
		<rect x="598" y="83" transform="matrix(0.8387 -0.5446 0.5446 0.8387 22.002 354.2766)" fill="#2559A8" width="21.999" height="114"/>
	
		<rect x="195.449" y="314.133" transform="matrix(0.8387 -0.5447 0.5447 0.8387 -168.8331 172.3255)" fill="#2559A8" width="22" height="114.001"/>
	
		<rect x="106.551" y="54.134" transform="matrix(0.8387 0.5446 -0.5446 0.8387 79.4888 -46.0926)" fill="#2559A8" width="22" height="114"/>
	
		<rect x="151" y="82.999" transform="matrix(0.8387 0.5446 -0.5446 0.8387 102.3802 -65.6443)" fill="#2559A8" width="22" height="114.001"/>
	
		<rect x="195.449" y="111.866" transform="matrix(0.8387 0.5447 -0.5447 0.8387 125.2812 -85.1987)" fill="#2559A8" width="22" height="114"/>
	
		<rect x="131.121" y="348.888" transform="matrix(0.8387 -0.5446 0.5446 0.8387 -178.2557 136.999)" fill="#2559A8" width="22.001" height="41"/>
	
		<rect x="170.879" y="410.112" transform="matrix(0.8387 -0.5446 0.5446 0.8387 -205.1862 168.53)" fill="#2559A8" width="22.001" height="40.999"/>
</g>
</svg>
