<svg height="500" width="1000" xmlns="http://www.w3.org/2000/svg"><g fill-rule="evenodd"><path d="m0 0h1000v500h-1000z"/><path d="m333.333 0h666.667v500h-666.667z" fill="#bf0000"/><path d="m666.667 0h333.333v500h-333.333z" fill="#090"/><g fill="#fff"><g stroke="#000" stroke-width=".995002"><path d="m611.492 253.664c-.085.45 1.13 1.114 1.42.769 1.308-1.567 3.02-4.643 3.371-6.505.103-.542-1.64-1.155-2.012-.71-1.224 1.467-2.411 4.49-2.779 6.446zm-163.6 95.405c-1.302 4.602-20.518-4.338-22.663-8.97 10.995 5.826 22.926 4.608 22.663 8.97zm-60.75-94.006c.96 1.143 2.58.377 1.105-1.17-1.208-1.25-.81-1.644-1.546-3.168-.728-1.701-.69-2.64-1.569-3.856-.776-1.154-1.945.023-1.162.994.983 1.148.711 1.995 1.312 3.105 1.11 1.901.84 2.899 1.86 4.095zm25.852 31.192c3.091 1.52 5.437 5.317 5.592 8.41.262 3.558.775 6.563 2.373 9.093-2.544-.709-3.763-4.764-4.125-8.649-.366-4.02-2.532-5.764-3.84-8.854zm6.439 7.443c2.14 3.949 5.13 5.455 5.283 8.385.26 3.372.516 3.544 1.43 6.86-2.519-.672-3.152-.891-3.832-5.937-.42-3.545-3.258-6.046-2.88-9.308z"/><path d="m469.402 314.923c3.273 2.681 5.396 5.742 6.386 9.697 1.033 3.685 2.484 6.623 4.614 9.935-3.47-2.366-5.65-5.584-6.742-9.462-.958-3.812-2.089-6.661-4.258-10.17zm61.263 0c-3.345 2.697-5.516 5.776-6.528 9.754-1.056 3.707-2.54 6.662-4.717 9.994 3.547-2.38 5.777-5.617 6.892-9.519.98-3.834 2.136-6.7 4.353-10.229zm-4.11 0c-3.587 2.816-6.968 6.014-7.98 9.993-1.055 3.706-1.693 6.543-4.111 10.23 3.788-2.38 5.292-5.974 6.407-9.875.98-3.833 3.225-6.699 5.684-10.348zm-40.535 15.315c1.202 2.266 2.582 5.716 5.085 5.085.039-1.735-2.7-2.937-5.085-5.085zm3.725.767c4.86 1.993 9.057 1.5 9.58 4.555-4.56.492-6.227-1.38-9.58-4.555zm23.832-.471c-1.218 2.136-2.618 5.388-5.154 4.793-.04-1.635 2.737-2.768 5.154-4.793zm-3.409.649c-4.931 1.89-9.189 1.423-9.72 4.322 4.626.467 6.318-1.31 9.72-4.322z" stroke-linejoin="round"/><path d="m514.675 324.265c.097-.692-.375-1.296-.942-1.478a42.019 42.019 0 0 0 -3.295-1.064c-1.243-.295-1.939.597-1.943 1.183-.007.974-.052 1.802 0 2.541.067.92.242.989.824 1.125.93.157 2.124.318 3.06.946.741.457 1.454.095 1.825-.708.24-.615.37-1.817.471-2.545zm-13.396 0c-.086-.691.277-1.354.783-1.536.986-.415 1.967-.516 3.002-.474 1.15-.018 1.439.242 1.443.828.005.975.046 1.921 0 2.66-.06.92-.04.988-.56 1.125-.832.157-2.25.2-3.086.828-.663.457-1.418.095-1.454-.768.016-.65-.038-1.935-.128-2.663zm-16.264-.178c-.097-.691.377-1.295.946-1.477a42.357 42.357 0 0 1 3.31-1.064c1.25-.295 1.949.596 1.953 1.182.007.975.052 1.803 0 2.542-.068.92-.243.988-.828 1.124-.935.158-2.134.318-3.074.947-.745.457-1.461.095-1.833-.709-.241-.614-.373-1.816-.474-2.545zm13.459.001c.086-.692-.279-1.355-.787-1.537-.99-.414-1.976-.516-3.016-.473-1.155-.019-1.446.242-1.45.828-.005.975-.046 1.92 0 2.66.061.92.04.988.563 1.124.836.158 2.261.2 3.1.828.666.457 1.425.095 1.462-.767-.017-.651.037-1.935.128-2.663z"/></g><path d="m274.792 144.773c-1.033-1.659-2.27 2.301-6.519 5.249-1.978 1.346-3.356 4.933-3.369 7.293-.065 1.621.18 3.238-.001 4.806-.114.992-1.148 3.194-.441 3.757 1.87 1.39 4.291 4.546 5.414 5.635.971.851 1.812-4.393 2.541-6.74.781-2.515.431-5.521 2.597-7.845 1.535-1.569 5.407-3.113 4.972-3.812z" stroke="#000" stroke-width=".658" transform="matrix(1.51377 0 0 1.51377 29.946 13.773)"/><path d="m445.92 232.927c-1.564-2.512-3.437 3.483-9.869 7.945-2.994 2.038-5.08 7.468-5.1 11.04-.098 2.454.273 4.902-.001 7.276-.173 1.501-1.738 4.835-.668 5.687 2.83 2.104 6.496 6.881 8.196 8.53 1.47 1.288 2.743-6.65 3.846-10.203 1.182-3.807.653-8.357 3.931-11.875 2.324-2.376 8.185-4.713 7.527-5.77z"/><g stroke="#000"><path d="m268.511 149.684c-.405 2.809 1.159 3.744 2.635 4.288 1.528.543 2.781 2.182 3.426 3.665" stroke-width=".329" transform="matrix(1.51377 0 0 1.51377 29.946 13.773)"/><path d="m267.273 151.143c.645 2.422 2.342 2.119 3.818 2.663 1.528.543 3.135 2.475 3.78 3.958" stroke-width=".329" transform="matrix(1.51377 0 0 1.51377 26.1 25.565)"/><path d="m273.356 143.061.774-.497 14.86 25.027-.773.497z" stroke-width=".658" transform="matrix(1.51377 0 0 1.51377 29.946 13.773)"/></g><path d="m443.746 230.335 1.171-.752 22.495 37.885-1.17.752z"/><path d="m274.958 142.067a1.713 1.713 0 0 1 -1.712 1.712 1.713 1.713 0 0 1 -1.713-1.712 1.713 1.713 0 0 1 1.713-1.713 1.713 1.713 0 0 1 1.712 1.713z" stroke="#000" stroke-width=".658" transform="matrix(1.51377 0 0 1.51377 29.946 13.773)"/><path d="m446.17 228.83a2.593 2.592 0 0 1 -2.592 2.593 2.593 2.592 0 0 1 -2.592-2.593 2.593 2.592 0 0 1 2.592-2.592 2.593 2.592 0 0 1 2.593 2.592z"/><path d="m274.792 144.773c-1.033-1.659-2.27 2.301-6.519 5.249-1.978 1.346-3.356 4.933-3.369 7.293-.065 1.621.18 3.238-.001 4.806-.114.992-1.148 3.194-.441 3.757 1.87 1.39 4.291 4.546 5.414 5.635.971.851 1.812-4.393 2.541-6.74.781-2.515.431-5.521 2.597-7.845 1.535-1.569 5.407-3.113 4.972-3.812z" stroke="#000" stroke-width=".647" transform="matrix(-1.513 0 0 1.56676 970.144 6.868)"/><path d="m554.386 233.691c1.563-2.599 3.435 3.606 9.864 8.224 2.992 2.11 5.077 7.73 5.097 11.427.098 2.54-.272 5.073.001 7.53.173 1.554 1.737 5.004.668 5.886-2.83 2.178-6.493 7.122-8.192 8.828-1.469 1.334-2.741-6.882-3.844-10.56-1.182-3.94-.652-8.65-3.93-12.29-2.322-2.459-8.18-4.878-7.522-5.973z"/><g stroke="#000" transform="matrix(-1.513 0 0 1.56676 970.144 6.868)"><path d="m273.356 143.061.774-.497 14.86 25.027-.773.497z" stroke-width=".647"/><path d="m268.433 149.763c-.405 2.809 1.237 3.665 2.713 4.209 1.528.543 2.859 2.064 3.504 3.547" stroke-width=".329"/></g><path d="m267.351 151.257c.645 2.422 2.264 2.005 3.74 2.549 1.528.543 3.135 2.32 3.78 3.803" stroke="#000" stroke-width=".329" transform="matrix(-1.513 0 0 1.56676 973.99 19.072)"/><path d="m556.56 231.01-1.172-.78-22.483 39.212 1.17.778z"/><path d="m274.958 142.067a1.713 1.713 0 0 1 -1.712 1.712 1.713 1.713 0 0 1 -1.713-1.712 1.713 1.713 0 0 1 1.713-1.713 1.713 1.713 0 0 1 1.712 1.713z" stroke="#000" stroke-width=".647" transform="matrix(-1.513 0 0 1.56676 970.144 6.868)"/><path d="m554.135 229.451a2.591 2.683 0 0 0 2.591 2.684 2.591 2.683 0 0 0 2.591-2.684 2.591 2.683 0 0 0 -2.59-2.683 2.591 2.683 0 0 0 -2.592 2.683z"/><g stroke="#000" stroke-width=".658"><path d="m287.994 121.296h6.022v1.38h-6.022zm0 2.617h6.022v11.538h-6.022zm-.363-4.196 6.68.039c.261-2.265-2-4.712-3.32-4.687-1.305.063-3.412 2.474-3.36 4.648zm39.919 1.618h6.022v1.38h-6.022zm0 2.617h6.022v11.538h-6.022z" transform="matrix(1.51377 0 0 1.51377 29.445 14.777)"/><path d="m287.631 119.717 6.68.039c.261-2.265-2-4.712-3.32-4.687-1.305.063-3.412 2.474-3.36 4.648z" transform="matrix(1.51377 0 0 1.51377 89.323 14.836)"/></g><path d="m465.403 198.391h9.115v2.09h-9.115zm0 3.962h9.115v17.466h-9.115zm-.55-6.352 10.112.06c.395-3.43-3.028-7.134-5.026-7.096-1.975.096-5.165 3.745-5.086 7.036zm60.428 2.449h9.116v2.09h-9.116zm0 3.962h9.116v17.466h-9.116zm-.55-6.352 10.112.06c.395-3.43-3.027-7.133-5.025-7.096-1.976.096-5.165 3.745-5.087 7.036z"/><path d="m525.281 202.412h9.116v17.466h-9.116zm0-3.962h9.116v2.09h-9.116zm-.55-2.39 10.112.06c.395-3.43-3.027-7.134-5.025-7.096-1.976.096-5.165 3.745-5.087 7.036zm-59.328 6.293h9.115v17.466h-9.115zm0-3.962h9.115v2.09h-9.115zm-.55-2.39 10.112.06c.395-3.43-3.028-7.134-5.026-7.096-1.975.096-5.165 3.745-5.086 7.036z" stroke-width="1.333"/><path d="m282.983 137.413 3.829 4.219 47.658.078 3.907-4.219-12.188-.156-5.938-4.141-19.142-.078-5.547 4.297z" stroke="#000" stroke-width=".658" transform="matrix(1.51377 0 0 1.51377 29.445 14.777)"/><path d="m457.817 222.789 5.796 6.387 72.143.118 5.915-6.387-18.45-.236-8.989-6.269-28.977-.118-8.396 6.505z"/><path d="m302.491 130.899 16.457-.017c2.228-1.178 2.923-4.94 2.912-7.045-.031-6.218-4.38-9.2-8.745-9.359-.654-.033-1.413-.542-1.586-1.138-.43-1.35-.319-4.865-.79-4.817-.419-.006-.296 3.441-.669 4.707-.205.63-.913 1.251-1.619 1.287-5.433.271-8.937 4.237-8.8 9.32.092 3.361.483 5.368 2.84 7.062z" stroke="#000" stroke-width=".658" transform="matrix(1.51377 0 0 1.51377 29.445 14.777)"/><path d="m487.348 212.928 24.912-.026c3.372-1.783 4.424-7.478 4.408-10.664-.047-9.413-6.63-13.927-13.238-14.167-.99-.05-2.14-.82-2.401-1.723-.65-2.044-.483-7.245-1.196-7.292-.515.05-.448 5.209-1.013 7.125-.31.954-1.382 1.894-2.45 1.949-8.225.41-13.529 6.413-13.322 14.108.14 5.088.732 8.126 4.3 10.69z"/><g stroke="#000" stroke-width=".329"><path d="m301.46 125.42c.415 2.049 1.402 1.735 1.329.743-.243-3.165.013-6.282 2.812-8.36.887-.65-.104-1.25-.859-.937-2.38 1.001-3.826 5.59-3.282 8.554z" transform="matrix(1.51377 0 0 1.51377 29.445 14.777)"/><path d="m302.085 125.068c.415 2.049 2.11 1.96 1.798.626-.635-2.555-.534-6.282 1.718-7.891.889-.647-.104-1.25-.859-.937-2.38 1.001-3.201 5.238-2.657 8.202z" transform="matrix(1.51377 0 0 1.51377 32.697 17.26)"/><path d="m301.46 125.42c.415 2.049 1.402 1.735 1.329.743-.243-3.165.013-6.282 2.812-8.36.887-.65-.104-1.25-.859-.937-2.38 1.001-3.826 5.59-3.282 8.554z" transform="matrix(-1.51538 0 0 1.51377 970.828 14.895)"/><path d="m302.085 125.068c.415 2.049 2.11 1.96 1.798.626-.635-2.555-.534-6.282 1.718-7.891.889-.647-.104-1.25-.859-.937-2.38 1.001-3.201 5.238-2.657 8.202z" transform="matrix(-1.51538 0 0 1.51377 967.572 17.379)"/></g><path d="m275.405 191.244h70.707l-6.329-5.157h-58.05z" stroke="#000" stroke-width=".658" transform="matrix(1.51377 0 0 1.51377 29.445 14.777)"/><path d="m446.345 304.277h107.035l-9.58-7.807h-87.875z"/><g stroke="#000" stroke-width=".658"><path d="m287.671 144.835h6.72v9.297h-6.72zm.391 14.61h6.484v1.953h-6.484zm-.157 3.438h6.641v7.266h-6.64zm-.468 8.75h7.266v4.063h-7.266z" transform="matrix(1.51377 0 0 1.51377 29.445 14.777)"/><path d="m288.438 157.702h5.855l1.161-1.933h-8.066z" transform="matrix(1.51377 0 0 1.51377 29.277 14.777)"/><path d="m296.227 150.575.055-5.082h4.033c-1.584 1.307-3.057 2.891-4.088 5.082z" transform="matrix(1.51377 0 0 1.51377 29.445 14.777)"/><path d="m-333.684 144.835h6.606v9.297h-6.606zm.111 14.61h6.375v1.953h-6.375zm-.117 3.438h6.492v7.266h-6.492zm-.42 8.75h7.144v4.063h-7.143z" transform="matrix(-1.51377 0 0 1.51377 29.445 14.777)"/><path d="m288.438 157.702h5.855l1.161-1.933h-8.066z" transform="matrix(-1.48822 0 0 1.51377 962.849 14.777)"/><path d="m296.227 150.575.055-5.082h4.033c-1.584 1.307-3.057 2.891-4.088 5.082z" transform="matrix(-1.48822 0 0 1.51377 962.684 14.777)"/></g><path d="m464.913 234.024h10.172v14.074h-10.172zm.592 22.116h9.816v2.957h-9.816zm-.237 5.205h10.053v10.999h-10.053zm-.709 13.245h10.999v6.15h-11z" stroke-width="1.333"/><path d="m465.907 253.502h8.863l1.758-2.926h-12.21zm11.958-10.789.083-7.693h6.106c-2.398 1.979-4.628 4.376-6.189 7.693z"/><path d="m534.566 234.024h-10v14.074h10zm-.167 22.116h-9.65v2.957h9.65zm.177 5.205h-9.828v10.999h9.828zm.634 13.245h-10.813v6.15h10.814z" stroke-width="1.333"/><path d="m533.59 253.502h-8.714l-1.728-2.926h12.004zm-11.757-10.789-.082-7.693h-6.002c2.357 1.979 4.55 4.376 6.084 7.693z"/><g stroke="#000" stroke-width=".329"><path d="m288.713 152.662c.04 1.087 1.271.602 1.271.055 0-1.677.022-3.49-.045-4.677-.008-.875 2.085-.656 2.073-.117.008 1.416.024 3.358.032 5.015-.015.807 1.352.737 1.333 0a680.61 680.61 0 0 1 0-5.903c.012-1.754-4.605-1.716-4.641-.039.002 1.377-.025 3.842-.023 5.666z" transform="matrix(1.51377 0 0 1.51377 29.445 14.777)"/><path d="m288.713 152.662c.04 1.087 1.271.602 1.271.055 0-1.677.022-3.49-.045-4.677-.008-.875 2.085-.656 2.073-.117.008 1.416.024 3.358.032 5.015-.015.807 1.312.737 1.294 0-.008-1.89.03-4.541.039-5.903.012-1.754-4.605-1.716-4.641-.039.002 1.377-.025 3.842-.023 5.666z" transform="matrix(1.51377 0 0 1.51377 89.29 15.073)"/><path d="m288.726 163.742h4.766v5.938h-4.766z" transform="matrix(1.51377 0 0 1.51377 29.445 14.777)"/></g><g fill="#000" stroke-width="1.333"><path d="m471.123 266.37h2.543v1.48h-2.543zm-4.435 0h2.484v1.48h-2.484z"/><path d="m469.172 262.764h1.951v3.666h-1.951zm0 5.026h1.951v3.903h-1.951z"/></g><path d="m328.103 163.703h4.766v5.938h-4.766z" stroke="#000" stroke-width=".329" transform="matrix(1.51377 0 0 1.51377 29.445 14.777)"/><g fill="#000" stroke-width="1.333"><path d="m530.731 266.312h2.543v1.478h-2.543zm-4.435 0h2.484v1.478h-2.484z"/><path d="m528.78 262.704h1.951v3.667h-1.951zm0 5.026h1.951v3.904h-1.951z"/></g><path d="m323.768 164.054h.82v5.899h-.82z" stroke="#000" stroke-width=".658" transform="matrix(1.51377 0 0 1.51377 29.445 14.777)"/><path d="m307.83 171.868 1.289 3.867h2.929l-2.343-3.868zm-1.64 3.867.742 3.828 3.437.039-1.25-3.868zm5.82.039 2.383 3.789h4.883l-3.828-3.829zm-28.83 8.672c2.591-2.409 4.245-4.466 4.258-7.422h6.328c.013 1.654.612 2.643 1.524 2.578l6.407-.039-.039-3.789h-4.649l-.001-20.666c-.169-7.305 8.881-11.563 12.58-11.524l-21.994-.039v-.664h46.253l.039.664-22.306.039c6.615.013 12.995 6.277 13.048 11.564v5.859h-.86l-.039-5.781c0-5.782-7.282-11.186-13.126-11.017-5.053.145-12.891 4.962-12.813 10.978v1.797l11.993.078-.117 2.07 1.883 1.202 3.756 1.197-.055 3.105 2.69.793.023 3.102 3.227 1.385v3.211l2.047 1.261-.094 3.261 2.774 1.953h-6.563l4.102 4.571h-6.055l-3.009-4.571h-3.984l1.797 4.531-4.257-.039-1.017-4.492h-5.195l.039 4.843zm18.556-12.54v3.828h4.454l-.9-3.828z" stroke="#000" stroke-width=".658" transform="matrix(1.51377 0 0 1.51377 29.445 14.777)"/><path d="m495.43 274.946 1.95 5.854h4.435l-3.547-5.856zm-2.483 5.854 1.123 5.794 5.203.06-1.892-5.856zm8.81.059 3.607 5.735h7.392l-5.795-5.796zm-43.642 13.127c3.922-3.647 6.426-6.76 6.446-11.235h9.579c.02 2.504.926 4 2.307 3.902l9.699-.059-.06-5.735h-7.037l-.002-31.284c-.255-11.058 13.444-17.504 19.044-17.445l-33.294-.059v-1.005h70.016l.06 1.005-33.767.06c10.014.02 19.672 9.501 19.752 17.505v8.869h-1.302l-.059-8.751c0-8.753-11.023-16.933-19.87-16.677-7.649.219-19.514 7.51-19.396 16.618v2.72l18.155.118-.177 3.134 2.85 1.82 5.686 1.811-.083 4.7 4.072 1.2.035 4.696 4.885 2.097v4.86l3.098 1.91-.142 4.936 4.2 2.956h-9.936l6.21 6.92h-9.166l-4.555-6.92h-6.03l2.72 6.86-6.445-.06-1.54-6.8h-7.863l.059 7.332zm28.09-18.983v5.795h6.742l-1.362-5.795z"/><g stroke="#000"><path d="m301.971 165.148h2.774v6.367h-2.774z" stroke-width=".326" transform="matrix(1.51377 0 0 1.51377 29.445 14.777)"/><path d="m298.053 171.73h2.707l-.017-4.594c-.035-1.997 1.793-4.01 2.668-4.077.97-.036 2.4 1.885 2.448 3.92l.039 4.766 2.872-.006v-11.829l-10.717.056z" stroke-width=".329" transform="matrix(1.51377 0 0 1.54377 29.445 9.98)"/><g transform="matrix(1.51377 0 0 1.51377 29.445 14.777)"><path d="m319.473 174.757h3.36v2.617h-3.36zm-1.992-4.493h3.36v2.618h-3.36zm-3.242-4.492h3.36v2.617h-3.36zm-2.774-3.789h3.36v2.617h-3.36z" stroke-width=".325"/><path d="m309.239 171.983 3.437.117 6.133 5.43v-3.203l-2.07-1.484v-2.54l-3.008-1.718v-2.735l-2.93-.976v-3.712l-1.485-1.211z" stroke-width=".329"/></g></g><path d="m519.556 263.118h1.242v8.929h-1.242z"/><g stroke="#000" stroke-linejoin="round" stroke-width=".658"><path d="m273.058 107.628c.298 4.66-1.148 7.218-3.616 6.829-.68-2.585.867-4.319 3.616-6.829z" transform="matrix(1.51377 0 0 1.51377 15.677 9.746)"/><path d="m267.465 119.353c-2.194-1.116-.611-9.637.231-13.209.623 4.601 1.665 11.141-.231 13.209z" transform="matrix(1.51377 0 0 1.51377 15.941 7.628)"/><path d="m267.725 118.995c3.688 1.283 6.608-2.689 7.595-7.289-3.044 4.201-7.998 4.206-7.595 7.289z" transform="matrix(1.51377 0 0 1.51377 16.736 8.776)"/><path d="m264.634 123.471c-2.884-.762-1.147-9.802-.623-13.418.634 3.735 2.622 12.181.623 13.418z" transform="matrix(1.51377 0 0 1.51377 17.177 8.51)"/><path d="m265.443 122.959c.161-3.118 3.269-2.217 5.414-3.881-.35 1.558-1.669 4.319-5.414 3.881z" transform="matrix(1.51377 0 0 1.51377 17.442 8.864)"/><path d="m262.261 128.008c-2.858-.771-1.14-10.5-1.302-14.506.838 3.461 3.491 13.568 1.302 14.506z" transform="matrix(1.51377 0 0 1.51377 16.912 7.54)"/><path d="m263.249 127.064c2.341.761 5.442-.76 5.686-3.548-2.016 1.368-5.235.322-5.686 3.548z" transform="matrix(1.51377 0 0 1.51377 17.442 8.334)"/><path d="m262.343 128.338c-2.733.218-1.51-8.068-1.508-15.785 1.004 7.213 3.739 13.816 1.508 15.785z" transform="matrix(1.51377 0 0 1.51377 13.558 13.541)"/><path d="m263.291 127.147c1.846.926 5.153-.554 6.097-3.672-3.335 1.45-5.565.033-6.097 3.672z" transform="matrix(1.51377 0 0 1.51377 13.558 14.777)"/></g><path d="m429.025 172.67c.45 7.055-1.738 10.927-5.474 10.338-1.03-3.913 1.312-6.538 5.474-10.337zm-8.202 15.631c-3.321-1.689-.925-14.588.35-19.995.943 6.965 2.52 16.865-.35 19.995z"/><path d="m422.01 188.907c5.583 1.942 10.004-4.07 11.498-11.034-4.608 6.36-12.107 6.367-11.497 11.034zm-4.237 6.511c-4.366-1.154-1.736-14.838-.943-20.312.96 5.654 3.969 18.44.943 20.312zm1.489-.422c.244-4.72 4.949-3.356 8.196-5.875-.53 2.358-2.527 6.538-8.196 5.875zm-5.346 6.319c-4.326-1.167-1.726-15.895-1.971-21.959 1.269 5.24 5.285 20.539 1.97 21.959zm2.025-.635c3.544 1.152 8.238-1.15 8.607-5.37-3.051 2.07-7.924.487-8.607 5.37z"/><path d="m410.686 207.816c-4.137.33-2.286-12.213-2.282-23.895 1.52 10.919 5.66 20.914 2.282 23.895z"/><path d="m412.121 207.249c2.795 1.401 7.8-.84 9.23-5.559-5.049 2.195-8.424.05-9.23 5.559z"/><g stroke="#000" stroke-linejoin="round" stroke-width=".658" transform="matrix(1.51377 0 0 1.51377 29.445 14.777)"><path d="m274.254 108.617c-.486 4.042-2.138 6.394-4.606 6.005-.68-2.585 1.321-4.237 4.606-6.005zm-6.529 10.378c4.1.582 5.577-2.565 8.337-6.588-3.868 2.799-8.493 3.381-8.337 6.588z"/><path d="m266.558 118.528c-2.235-2.682-.075-6.05 1.633-8.921-.367 4.271 1.088 6.647-1.633 8.921zm-.991 4.431c-.252-2.623 4.217-3.206 6.238-4.664-.68 1.516-1.71 5.597-6.238 4.664z"/><path d="m264.634 123.018c-3.09-.35-1.807-5.597.408-8.513-.933 4.024 1.632 6.822-.408 8.513z"/><path d="m262.302 127.39c-3.517-1.555-1.263-5.966.059-8.57-.564 3.42 2.254 6.024-.059 8.57z"/><path d="m263.002 126.982c1.846 2.41 5.442-.719 6.18-4.373-3.129 2.605-5.441 2.177-6.18 4.373z"/></g><path d="m444.603 179.198c-.736 6.119-3.236 9.68-6.972 9.09-1.03-3.913 2-6.413 6.972-9.09zm-9.883 15.71c6.206.881 8.442-3.883 12.62-9.972-5.855 4.237-12.856 5.118-12.62 9.972z"/><path d="m432.953 194.201c-3.383-4.06-.113-9.158 2.472-13.504-.555 6.465 1.647 10.062-2.472 13.504zm-1.5 6.708c-.382-3.97 6.384-4.853 9.443-7.06-1.03 2.295-2.589 8.472-9.443 7.06z"/><path d="m430.04 200.998c-4.677-.53-2.735-8.472.618-12.887-1.412 6.092 2.47 10.327-.617 12.887z"/><path d="m426.51 207.616c-5.323-2.354-1.911-9.03.09-12.973-.854 5.177 3.412 9.12-.09 12.973z"/><path d="m427.57 206.999c2.795 3.648 8.238-1.089 9.355-6.62-4.736 3.943-8.236 3.296-9.355 6.62z"/><g stroke="#000" stroke-linejoin="round" stroke-width=".658" transform="matrix(1.51377 0 0 1.51377 29.445 14.777)"><path d="m347.656 109.024c.467 2.1.584 6.24 4.315 5.423.544-3.848-2.585-4.023-4.315-5.423z"/><path d="m354.011 118.937c-.135-3.965-4.411-3.091-8.103-6.356 1.011 3.44 4.586 7.638 8.103 6.356z"/><path d="m354.886 118.47c2.507-1.73.583-5.5-1.749-8.804.875 3.596-1.049 6.899 1.749 8.804zm1.108 4.489c-4.042.311-4.761-1.71-6.355-4.314 2.76 1.788 6.452.661 6.355 4.314zm.992.117c-1.925-1.575.466-4.956-.35-8.337 1.516 2.137 3.848 7.249.35 8.337z"/><path d="m358.676 127.273c-4.042.952-5.344-1.185-6.355-4.78 3.284 3.012 5.111 1.593 6.355 4.78z"/><path d="m359.259 127.215c2.818-.039 1.555-5.616.116-8.162.389 3.071-2.079 6.607-.116 8.162z"/></g><path d="m555.717 179.814c.707 3.18.884 9.446 6.532 8.21.824-5.825-3.913-6.09-6.532-8.21z"/><path d="m565.337 194.82c-.204-6.002-6.677-4.679-12.266-9.621 1.53 5.207 6.942 11.562 12.266 9.621z"/><path d="m566.662 194.114c3.795-2.62.882-8.326-2.648-13.328 1.325 5.444-1.588 10.444 2.648 13.328zm1.677 6.795c-6.119.47-7.207-2.589-9.62-6.53 4.178 2.706 9.767 1 9.62 6.53zm1.501.177c-2.913-2.384.706-7.502-.53-12.62 2.296 3.235 5.826 10.973.53 12.62z"/><path d="m572.399 207.44c-6.119 1.44-8.09-1.795-9.62-7.237 4.971 4.56 7.737 2.412 9.62 7.236z"/><path d="m573.281 207.351c4.266-.059 2.354-8.5.176-12.355.589 4.649-3.147 10.002-.176 12.355z"/><g stroke="#000" stroke-linejoin="round" stroke-width=".658"><path d="m348.203 108.204c.506 2.334-.471 6.943 3.26 6.907 1.56-2.637-1.765-5.117-3.26-6.907z" transform="matrix(1.51377 0 0 1.51377 43.577 8.923)"/><path d="m354.3 119.329c2.351-1.612.232-6.906-.499-12.866-.57 5.315-1.83 11.118.499 12.866z" transform="matrix(1.51377 0 0 1.51377 42.825 7.836)"/><path d="m353.698 119.132c.295-2.91-4.293-3.559-7.438-7.41.815 3.088 3.14 7.599 7.438 7.41z" transform="matrix(1.51377 0 0 1.51377 41.821 8.756)"/><path d="m356.674 124.326c-2.472-2.239.465-8.667.587-13.65.383 4.598 2.403 12.835-.587 13.65z" transform="matrix(1.51377 0 0 1.51377 42.072 7.752)"/><path d="m355.213 122.686c-3.613.232-4.566-2.414-4.988-3.924 1.94 1.398 5.007.739 4.988 3.924z" transform="matrix(1.51377 0 0 1.51377 42.156 9.258)"/><path d="m358.947 128.113c2.778-.117 1.75-10.655 1.365-13.982-.275 3.54-3.172 12.701-1.365 13.982z" transform="matrix(1.51377 0 0 1.51377 41.988 7.083)"/><path d="m358.285 127.039c-2.401.366-4.836-1.029-5.495-3.413 2.073.902 5.501.187 5.495 3.413z" transform="matrix(1.51377 0 0 1.51377 41.152 8.422)"/><path d="m358.751 127.957c2.974 1.211 1.907-12.53 1.522-15.701-.275 4.048-3.797 13.99-1.522 15.701z" transform="matrix(1.51377 0 0 1.51377 45.668 13.94)"/><path d="m358.442 127.351c-2.988.444-5.188-1.38-6.043-3.881 3.05 1.137 5.424.733 6.043 3.881z" transform="matrix(1.51377 0 0 1.51377 45.083 14.86)"/></g><path d="m366.615 143.705c.368-3.589-2.381-10.115-.43-13.594.266-.478-.584-1.747-1.133-.977-.858 1.229-1.74 4.731-2.109 3.438-.391-1.406-.451-3.893-1.719-4.376-.809-.283-1.953-.468-1.641.782.31 1.202 1.004 2.862.235 2.969-.446.065-1.731-1.636-2.813-2.422-.872-.701-2.173.396-.898 1.445 4.144 3.379 8.159 4.9 10.508 12.735z" stroke="#000" stroke-width=".658" transform="matrix(1.51377 0 0 1.51377 29.445 14.777)"/><path d="m584.417 232.314c.557-5.433-3.605-15.312-.651-20.579.402-.723-.884-2.644-1.715-1.479-1.3 1.86-2.634 7.162-3.193 5.205-.592-2.129-.683-5.893-2.602-6.625-1.225-.428-2.956-.708-2.484 1.184.47 1.82 1.52 4.333.356 4.495-.676.098-2.62-2.477-4.259-3.667-1.32-1.06-3.29.6-1.359 2.188 6.273 5.115 12.35 7.417 15.907 19.278zm-13.739-59.594c.766 3.533-.713 10.51 4.935 10.455 2.361-3.992-2.672-7.746-4.935-10.456z"/><path d="m579.155 188.473c3.558-2.44.35-10.454-.756-19.476-.863 8.046-2.77 16.83.756 19.476z"/><path d="m577.24 189.095c.446-4.405-6.499-5.388-11.26-11.217 1.234 4.674 4.754 11.503 11.26 11.217zm4.756 6.859c-3.742-3.39.704-13.12.888-20.663.58 6.96 3.638 19.429-.888 20.663zm-2.128-.978c-5.47.352-6.912-3.654-7.551-5.94 2.937 2.117 7.58 1.119 7.55 5.94zm5.485 6.041c4.205-.177 2.649-16.129 2.066-21.165-.416 5.359-4.802 19.226-2.066 21.165zm-1.839-.287c-3.634.554-7.32-1.558-8.318-5.167 3.138 1.365 8.328.283 8.318 5.167z"/><path d="m588.736 207.638c4.502 1.834 2.886-18.967 2.304-23.767-.417 6.127-5.748 21.177-2.304 23.767z"/><path d="m587.683 207.641c-4.524.672-7.854-2.089-9.148-5.875 4.617 1.721 8.21 1.11 9.148 5.875z"/><path d="m244.384 141.088c-1.017-1.062-.723-1.468.781-1.485 1.193-.075 3.557.731 4.454.078.822-.597.495-3.129.86-4.297.159-.651.615-1.673 1.64-.078 3.032 4.859 6.819 10.692 8.438 16.407.885 3.203.443 8.359-2.969 11.094l-2.422-7.032c-1.151-3.343-7.347-11.365-10.782-14.687z" stroke="#000" stroke-width=".659" transform="matrix(-1.50655 0 0 1.51377 968.348 15.112)"/><path d="m600.171 228.687c1.532-1.608 1.09-2.223-1.176-2.248-1.798-.114-5.36 1.106-6.71.118-1.239-.904-.746-4.737-1.296-6.505-.24-.985-.927-2.533-2.47-.118-4.569 7.355-10.274 16.185-12.713 24.836-1.333 4.849-.668 12.654 4.473 16.794l3.649-10.645c1.734-5.06 11.068-17.204 16.243-22.232z"/><g stroke="#000" stroke-linejoin="round" stroke-width=".658"><path d="m371.621 145.111c-1.36 4.373-2.177 7.957-.214 8.379 2.098-.364 1.186-4.589.214-8.379z" transform="matrix(1.51377 0 0 1.51377 42.741 -4.206)"/><path d="m368.779 157.357c2.237 1.188 4.648-4.514 4.147-9.005-1.127 3.849-4.921 6.226-4.147 9.005z" transform="matrix(1.51377 0 0 1.51377 46.829 -4.169)"/><path d="m370.434 156.773c.347-3.109-.93-3.027-2.603-5.998.177 3.356 1.013 6.17 2.603 5.998z" transform="matrix(1.51377 0 0 1.51377 43.076 -3.453)"/><path d="m369.11 156.755c2.611.741 5.603-5.475 5.491-10.069-1.087 5.085-6.754 7.117-5.491 10.069z" transform="matrix(1.51377 0 0 1.51377 46.193 3.463)"/><path d="m372.087 156.034c1.047-2.409-1.089-2.115-2.506-6.432-.469 4.468.212 6.507 2.506 6.432z" transform="matrix(1.51377 0 0 1.51377 40.39 4.392)"/><path d="m369.288 155.782c3.388.583 5.135-6.897 6.818-10.479-3.332 4.696-7.324 7.311-6.818 10.479z" transform="matrix(1.51377 0 0 1.51377 45.775 11.866)"/><path d="m372.358 155.49c.99-2.758-1.809-2.604-3.283-6.726.234 5.228.913 7.114 3.283 6.726z" transform="matrix(1.51377 0 0 1.51377 39.936 11.917)"/><path d="m369.696 156.599c2.142.155 5.994-5.827 6.077-9.522-1.83 4.069-7.574 6.765-6.077 9.522z" transform="matrix(1.51377 0 0 1.51377 45.44 17.429)"/><path d="m372.165 155.955c.891-2.877-1.597-2.896-2.701-6.119-.078 4.859.68 6.507 2.701 6.119z" transform="matrix(1.51377 0 0 1.51377 39.304 17.354)"/><path d="m368.741 155.821c3.778.661 4.745-4.319 6.974-9.385-2.199 4.032-7.167 6.295-6.974 9.385z" transform="matrix(1.51377 0 0 1.51377 44.604 25.414)"/><path d="m372.436 155.373c1.225-2.602-1.613-2.604-3.127-6.492-.078 5.501.874 7.114 3.127 6.492z" transform="matrix(1.51377 0 0 1.51377 38.598 25.046)"/></g><path d="m605.291 215.459c-2.059 6.62-3.295 12.045-.324 12.684 3.176-.551 1.796-6.947.324-12.684zm-.214 18.575c3.386 1.798 7.036-6.833 6.277-13.632-1.706 5.827-7.449 9.425-6.277 13.632zm-1.248-.169c.525-4.706-1.408-4.582-3.94-9.08.267 5.08 1.533 9.34 3.94 9.08z"/><path d="m604.942 240.754c3.952 1.122 8.481-8.287 8.312-15.242-1.646 7.698-10.224 10.774-8.312 15.242z"/><path d="m603.646 240.592c1.585-3.647-1.648-3.201-3.793-9.736-.71 6.763.32 9.85 3.793 9.736zm1.147 7.093c5.129.882 7.773-10.44 10.32-15.863-5.043 7.109-11.086 11.067-10.32 15.863z"/><path d="m603.601 247.294c1.499-4.175-2.738-3.942-4.97-10.182.355 7.914 1.383 10.769 4.97 10.182zm1.475 7.19c3.243.234 9.074-8.821 9.2-14.414-2.771 6.16-11.466 10.24-9.2 14.414z"/><path d="m602.677 253.434c1.349-4.355-2.417-4.383-4.089-9.262-.118 7.355 1.03 9.85 4.09 9.262zm.117 7.857c5.72 1 7.183-6.538 10.557-14.207-3.329 6.104-10.85 9.53-10.557 14.207z"/><path d="m602.381 260.246c1.855-3.94-2.441-3.942-4.733-9.828-.118 8.328 1.323 10.77 4.733 9.828z"/><path d="m256.806 166.869c3.334.016 3.985-4.687 3.985-5.937-1.641.312-4.611 3.281-3.985 5.937z" stroke="#000" stroke-width=".659" transform="matrix(-1.5066 0 0 1.51377 968.515 14.895)"/><path d="m581.61 267.497c-5.023.024-6.004-7.095-6.004-8.987 2.473.472 6.947 4.966 6.004 8.987z"/><g stroke="#000" stroke-linejoin="round" stroke-width=".658"><path d="m371.387 145.58c-1.36 4.373-1.904 6.472-.058 7.871 2.41-1.341 1.03-4.081.058-7.871zm-.758 11.427c1.011-3.226-1.477-4.003-2.798-7.638-.136 4.801.544 8.318 2.798 7.638z" transform="matrix(1.51377 0 0 1.51377 29.445 14.777)"/><path d="m369.638 157.24c1.769.68 3.945-3.42 2.741-7.521-1.244 3.693-4.296 4.586-2.741 7.521z" transform="matrix(1.51377 0 0 1.51377 32.445 15.483)"/><path d="m371.97 156.307c1.711-2.643-1.011-2.779-2.389-6.471-.078 4.859.368 6.859 2.389 6.471z" transform="matrix(1.51377 0 0 1.51377 26.09 22.455)"/><path d="m372.436 155.607c1.303-2.992-1.535-2.604-3.205-6.296-.078 5.501.835 6.684 3.205 6.296z" transform="matrix(1.51377 0 0 1.51377 25.385 30.398)"/><path d="m369.696 156.599c1.478.038 4.353-2.546 3.499-5.772-1.244 2.702-4.762 2.429-3.499 5.772z" transform="matrix(1.51377 0 0 1.51377 31.475 22.279)"/><path d="m369.288 155.782c2.411.505 4.237-3.186 3.966-5.713-1.886 2.352-4.472 2.545-3.966 5.713z" transform="matrix(1.51377 0 0 1.51377 31.475 29.428)"/></g><path d="m591.64 235.152c-2.058 6.62-2.882 9.797-.087 11.915 3.648-2.03 1.559-6.178.087-11.915zm-1.147 17.298c1.53-4.884-2.236-6.06-4.236-11.562-.205 7.267.824 12.591 4.236 11.562z"/><path d="m591.994 253.509c2.677 1.029 5.971-5.178 4.149-11.386-1.883 5.59-6.503 6.943-4.15 11.386zm-2.824 5.559c2.59-4-1.531-4.206-3.617-9.795-.118 7.355.557 10.383 3.616 9.795z"/><path d="m589.169 265.952c1.972-4.53-2.324-3.942-4.852-9.53-.118 8.326 1.264 10.117 4.852 9.53zm1.941-6.618c2.238.057 6.59-3.854 5.297-8.738-1.883 4.09-7.208 3.677-5.296 8.738z"/><path d="m590.493 265.246c3.65.764 6.414-4.823 6.004-8.648-2.855 3.56-6.77 3.852-6.004 8.648z"/><path d="m235.634 159.057c-.297-.385-1.15.01-.937.938.198 1.256 2.05 7.704 5.233 9.922 2.27 1.636 14.201 4.271 19.61 5.39 2.977.599 5.47 2.084 7.423 4.454-.808-3.099-1.457-5.395-2.5-8.203-1.014-2.468-3.701-5.168-6.484-5.313-5.169-.186-11.859-.626-16.72-2.735-2.509-1.048-4.011-2.464-5.625-4.453z" stroke="#000" stroke-width=".659" transform="matrix(-1.50655 0 0 1.51377 968.348 15.112)"/><path d="m613.354 255.888c.447-.583 1.732.015 1.411 1.42-.298 1.9-3.088 11.662-7.884 15.02-3.42 2.476-21.394 6.464-29.543 8.158-4.485.907-8.24 3.155-11.183 6.743 1.217-4.692 2.195-8.167 3.766-12.418 1.528-3.736 5.576-7.823 9.769-8.043 7.787-.281 17.866-.947 25.19-4.14 3.78-1.586 6.042-3.73 8.474-6.74z"/><g stroke="#000" stroke-linejoin="round" stroke-width=".658"><path d="m370.551 157.242c.543-2.172-.149-2.871.444-6.272-3.26 4.372-2.034 6.444-.444 6.272z" transform="matrix(1.51377 0 0 1.51377 41.42 40.896)"/><path d="m368.427 157.474c2.159.602 7.773-4.318 7.937-7.989-1.518 2.638-9.101 5.484-7.937 7.989z" transform="matrix(1.51377 0 0 1.51377 45.173 41.363)"/><path d="m370.954 156.62c1.477-.807 1.06-4.224-.279-5.377-.274 3.335-2.288 5.296.279 5.377z" transform="matrix(1.51377 0 0 1.51377 36.015 47.559)"/><path d="m369.11 156.755c2.611.819 5.564-3.912 7.718-5.967-2.455 2.116-9.879 3.132-7.718 5.967z" transform="matrix(1.51377 0 0 1.51377 41.107 48.758)"/><path d="m371.462 157.089c1.828-1.198.122-3.561-.006-8.229-1.836 3.374-2.21 7.991.006 8.229z" transform="matrix(1.51377 0 0 1.51377 32.112 51.816)"/><path d="m368.68 156.56c.932 1.249 7.83-3.053 9.554-6.241-5.892 4.382-11.09 3.797-9.554 6.241z" transform="matrix(1.51377 0 0 1.51377 36.85 54.435)"/><path d="m371.889 155.646c1.693-1.234-1.457-4.479-2.111-8.835.039 5.306-.688 9.34 2.111 8.835z" transform="matrix(1.51377 0 0 1.51377 30.948 61.706)"/><path d="m369.171 155.469c.849 1.365 6.112-2.248 8.381-6.181-3.489 3.055-9.356 3.873-8.381 6.181z" transform="matrix(1.51377 0 0 1.51377 37.85 59.763)"/><path d="m371.657 157.322c1.907-.338 1.645-5.161.19-9.088-1.641 4.742-2.367 9.554-.19 9.088z" transform="matrix(1.51377 0 0 1.51377 25.94 65.96)"/><path d="m369.344 155.974c.658.78 8.416-4.656 8.304-6.866-2.455 3.522-10.66 4.226-8.304 6.866z" transform="matrix(1.51377 0 0 1.51377 36.689 64.024)"/><path d="m370.952 156.428c2.631-1.079 1.394-5.339 1.912-9.93-2.071 4.486-4.517 8.989-1.912 9.93z" transform="matrix(1.51377 0 0 1.51377 20.622 74.126)"/><path d="m368.389 155.469c.419 1.443 6.737-1.233 9.787-5.635-3.684 2.86-10.839 3.249-9.787 5.635z" transform="matrix(1.51377 0 0 1.51377 31.95 69.999)"/><path d="m369.071 156.365c1.361 2.264 9.197-1.882 10.335-5.772-2.533 3.366-11.285 2.858-10.335 5.772z" transform="matrix(1.51377 0 0 1.51377 24.744 75.26)"/><path d="m361.571 154.607c1.439.155 4.783-2.585 5.725-4.014-2.689 1.334-6.324 3.171-5.725 4.014z" transform="matrix(1.51377 0 0 1.51377 41.537 80.581)"/></g><g stroke="#000" stroke-linejoin="round" stroke-width=".658"><path d="m369.977 156.854c1.712.248 3.951-2.895 2.456-6.08-.743 3.179-5.726 5.492-2.456 6.08z" transform="matrix(1.51377 0 0 1.51377 10.943 51.698)"/><path d="m369.11 156.755c1.322.741 4.666-2.818 4.241-5.147-1.869 2.976-5.621 3.835-4.241 5.147z" transform="matrix(1.51377 0 0 1.51377 17.81 48.995)"/><path d="m368.719 156.912c1.284 1.249 7.596-5.163 9.476-8.077-5.462 4.655-11.051 5.828-9.476 8.077z" transform="matrix(1.51377 0 0 1.51377 12.488 56.682)"/><path d="m369.054 155.586c1.005 1.521 5.213-3.068 7.873-6.884-3.372 3.328-9.083 4.85-7.873 6.884z" transform="matrix(1.51377 0 0 1.51377 9.704 64.494)"/><path d="m371.928 155.646c1.029-2.718-.676-3.151-1.447-6.53-1.523 1.868-1.352 7.035 1.447 6.53z" transform="matrix(1.51377 0 0 1.51377 5.994 58.868)"/><path d="m371.889 155.646c2.045-.57-1.262-4.049-1.955-6.53-.312 4.564-.258 6.84 1.955 6.53z" transform="matrix(1.51377 0 0 1.51377 3.51 64.545)"/><path d="m371.694 155.568c1.888-.687-1.067-2.409-1.369-6.218-.938 1.4-1.43 6.723 1.369 6.218z" transform="matrix(1.51377 0 0 1.51377 .79 69.63)"/><path d="m371.384 156.972c1.203-.651.708-3.756-1.139-4.166-.43 2.436-.374 4.202 1.139 4.166z" transform="matrix(1.51377 0 0 1.51377 -3.012 68.728)"/></g><path d="m571.004 289.139c2.592.375 5.981-4.382 3.718-9.204-1.124 4.812-8.668 8.314-3.718 9.204zm5.554-2.853c2.001 1.122 7.063-4.266 6.42-7.791-2.83 4.505-8.509 5.805-6.42 7.791z"/><path d="m570.645 294.21c1.943 1.892 11.498-7.815 14.344-12.226-8.268 7.047-16.729 8.822-14.344 12.227zm-2.277 5.805c1.521 2.303 7.891-4.644 11.918-10.42-5.104 5.037-13.75 7.341-11.918 10.42z"/><path d="m569.009 294.48c1.557-4.114-1.024-4.77-2.19-9.884-2.306 2.827-2.048 10.649 2.19 9.884zm-2.543 5.677c3.096-.863-1.91-6.13-2.96-9.885-.472 6.91-.39 10.354 2.96 9.885zm-3.016 4.967c2.859-1.04-1.615-3.646-2.072-9.412-1.42 2.12-2.164 10.177 2.073 9.412z"/><path d="m559.18 306.348c1.82-.986 1.07-5.686-1.725-6.307-.651 3.688-.566 6.361 1.724 6.307zm43.17-27.424c.822-3.288-.225-4.346.672-9.494-4.935 6.618-3.079 9.754-.672 9.494z"/><path d="m602.888 279.742c3.269.912 11.767-6.536 12.015-12.093-2.298 3.993-13.777 8.301-12.015 12.093zm-5.333 4.903c2.236-1.221 1.605-6.394-.422-8.14-.415 5.05-3.463 8.018.422 8.14z"/><path d="m599.856 286.05c3.953 1.24 8.423-5.922 11.684-9.033-3.717 3.203-14.955 4.74-11.684 9.032zm-5.434 3.563c2.767-1.814.184-5.39-.01-12.457-2.779 5.108-3.345 12.097.01 12.457z"/><path d="m594.948 291.43c1.41 1.892 11.853-4.62 14.462-9.447-8.919 6.634-16.787 5.748-14.462 9.448zm-1.045 5.889c2.563-1.868-2.205-6.78-3.195-13.374.059 8.032-1.042 14.138 3.195 13.374z"/><path d="m596.692 295.108c1.285 2.066 9.252-3.403 12.687-9.357-5.281 4.625-14.163 5.863-12.687 9.357zm-8.148 9.002c2.887-.511 2.49-7.812.288-13.757-2.484 7.178-3.583 14.463-.288 13.757z"/><path d="m595.792 300.133c.996 1.181 12.74-7.048 12.57-10.393-3.716 5.331-16.137 6.397-12.57 10.393zm-13.633 10.789c3.983-1.633 2.11-8.082 2.894-15.032-3.135 6.791-6.838 13.608-2.894 15.032z"/><path d="m589.607 305.344c.634 2.184 10.198-1.867 14.815-8.53-5.576 4.329-16.408 4.918-14.815 8.53z"/><path d="m583.434 311.96c2.06 3.428 13.922-2.848 15.645-8.737-3.835 5.095-17.083 4.326-15.645 8.737z"/><path d="m588.874 314.621c2.178.235 7.24-3.913 8.666-6.076-4.07 2.02-9.573 4.8-8.666 6.076z"/><path d="m235.83 159.517c-.377-.307-.876-.76-.704.176 1.409 7.41 1.855 9.483 8.349 12.044 6.602 2.508 8.968 1.631 14.589 1.533 3.034-.111 6.567 1.404 8.671 3.618.98 1.03 1.687 1.441 1.294.128-.394-1.312-.777-3.015-1.396-4.379-1.348-3.002-4.834-5.866-8.321-7.011-4.879-1.717-10.139-.854-15.164-2.164-2.621-.724-5.138-2.183-7.318-3.945z" stroke="#000" stroke-width=".659" transform="matrix(-1.32647 -.71768 -.71426 1.33283 1022.003 271.406)"/><path d="m595.245 314.765c.72-.139 1.705-.384.808.74-7.162 8.865-9.234 11.308-19.677 10.06-10.55-1.395-13.061-4.262-20.447-8.426-3.946-2.326-9.714-2.842-14.086-1.401-2.036.67-3.267.71-1.808-.758 1.46-1.466 3.184-3.461 4.98-4.835 3.932-3.034 10.601-4.35 16.045-3.373 7.698 1.213 14.059 6.139 21.66 7.999 3.994.916 8.375.778 12.525-.006z"/><path d="m287.661 208.419c.884.11 1.444 1.822 1.879.663.738-1.877.221-3.37-.608-3.205-.979.261-2.635 2.456-1.271 2.542z" stroke="#000" stroke-width=".662" transform="matrix(-1.49606 0 0 1.51377 965.285 14.86)"/><path d="m534.928 330.36c-1.323.166-2.16 2.757-2.811 1.003-1.104-2.841-.33-5.101.91-4.852 1.464.395 3.941 3.718 1.9 3.848z"/><g stroke="#000" stroke-linejoin="round" stroke-width=".658"><path d="m369.071 156.678c1.688 1.918 3.817-.083 5.178-1.663-2.116-.851-4.775-1.09-5.178 1.663z" transform="matrix(1.25390749 -.84806582 .84806582 1.25390749 -46.246575 435.338457)"/><path d="m369.883 155.766c.653 1.911 5.234-.649 5.86-3.498-3.194 2.378-6.81.584-5.86 3.498z" transform="matrix(1.50432 .16895 -.16895 1.50431 17.809 25.817)"/><path d="m369.352 155.59c.743 2.113 3.186-.632 6.119-2.388-3.037.256-6.895.359-6.119 2.388z" transform="matrix(.72865 -1.32687 1.32687 .72864 69.717 699.192)"/><path d="m369.723 156.654c1.037 2.192 4.134-1.586 6.415-3.811-2.863.884-7.437 1.73-6.415 3.811z" transform="matrix(.81215 -1.27747 1.27747 .81215 40.676 672.523)"/><path d="m369.989 156.725c1.361 2.264 4.656-2.483 6.614-5.157-3.228 2.134-8.079 2.995-6.614 5.157z" transform="matrix(1.37576881 .63147431 -.63147431 1.37576881 133.170135 -121.655585)"/><path d="m369.989 156.725c1.361 2.264 4.656-2.483 6.614-5.157-3.228 2.134-8.079 2.995-6.614 5.157z" transform="matrix(1.37576881 .63147431 -.63147431 1.37576881 129.031023 -116.097309)"/><path d="m370.241 156.741c1.172 1.967 4.482-2.131 6.763-4.356-2.863.884-7.938 2.326-6.763 4.356z" transform="matrix(.81214441 -1.27746666 1.27746666 .81214441 36.24321 678.672157)"/><path d="m370.481 156.112c1.361 2.264 4.413-1.984 6.218-4.803-3.166 2.363-7.683 2.641-6.218 4.803z" transform="matrix(1.37576881 .63147431 -.63147431 1.37576881 123.058691 -110.894009)"/></g><path d="m549.409 318.801c3.743.974 4.716-3.341 5.082-6.476-3.375.727-6.911 2.682-5.082 6.476zm-1.496 3.828c.66 2.985 7.984-.092 9.407-4.272-5.207 3.037-10.343-.272-9.407 4.272z"/><path d="m545.292 322.48c3.345.554 1.483-4.687 1.29-9.859-1.874 4.217-4.548 9.41-1.29 9.86zm-4.225 4.96c3.642.456 1.331-6.57.341-11.29-1.196 4.375-3.83 10.905-.341 11.29z"/><path d="m543.223 327.6c.443 3.975 7.974-.475 12.356-2.917-5.788.897-13.006-.982-12.356 2.918zm-4.139 5.56c.443 3.974 7.973-.477 12.356-2.919-5.789.898-13.006-.981-12.356 2.918z"/><path d="m537.164 332.999c3.464.1.917-7.457-.072-12.177-1.196 4.375-3.476 12.03.072 12.177zm-2.988 4.831c.442 3.975 7.324.058 11.587-2.681-5.848 1.252-12.238-1.218-11.587 2.681z"/><g stroke="#000" stroke-linejoin="round" stroke-width=".658"><path d="m369.071 156.678c1.361 2.263 6.384-1.648 9.124-3.663-3.939 1.217-10.074.749-9.124 3.663z" transform="matrix(1.51377 0 0 1.51377 14.207 93.992)"/><path d="m369.282 156.37c1.361 2.264 8.564-2.689 9.028-4.913-3.08 2.902-10.243 2.972-9.028 4.913z" transform="matrix(1.41948213 .52589931 -.52589931 1.41948213 123.181794 -81.443902)"/><path d="m369.021 156.342c.734 1.246 6.626-1.513 9.316-3.687-3.171 1.645-10.727 1.777-9.316 3.687z" transform="matrix(1.41948213 .52589931 -.52589931 1.41948213 117.495107 -78.266501)"/><path d="m369.071 156.365c.474 1.218 7.802-.699 9.444-3.567-4.491 2.466-11.007.797-9.444 3.567z" transform="matrix(1.41948213 .52589931 -.52589931 1.41948213 112.310468 -75.757928)"/><path d="m369.614 155.581c.357 1.803 7.914-1.407 10.013-3.154-4.247 1.211-10.571.511-10.013 3.154z" transform="matrix(1.41948213 .52589931 -.52589931 1.41948213 102.108591 -73.082279)"/><path d="m369.837 156.21c.943 2.325 8.486-2.48 11.315-4.831-4.94 1.877-12.584 2.587-11.315 4.831z" transform="matrix(1.3675 -.64919 .6492 1.3675 -62.403 366.123)"/><path d="m370.052 156.485c1.361 2.264 5.479-1.701 8.171-4.767-3.344 2.159-9.121 1.853-8.171 4.767z" transform="matrix(1.3675 -.64919 .6492 1.3675 -54.71 363.948)"/><path d="m369.771 156.438c1.361 2.264 4.556-1.577 6.334-4.083-2.48 1.705-7.284 1.169-6.334 4.083z" transform="matrix(1.3675 -.64919 .6492 1.3675 -47.852 361.607)"/><path d="m369.352 155.59c1.361 2.264 5.597-.218 6.735-4.108-2.533 3.366-7.685 1.194-6.735 4.108z" transform="matrix(1.3675 -.64919 .6492 1.3675 -40.493 358.596)"/><path d="m369.182 156.236c1.084 2.76 12.483-2.413 14.394-5.864-3.662 3.095-15.455 2.674-14.394 5.864z" transform="matrix(1.51377 0 0 1.51377 -5.898 112.323)"/></g><path d="m572.897 331.166c2.06 3.426 9.664-2.494 13.812-5.545-5.963 1.843-15.25 1.134-13.812 5.545z"/><path d="m565.137 334.727c.741 3.93 13.57.687 15.399-2.226-5.898 2.5-16.103-1.168-15.399 2.226z"/><path d="m559.095 337.728c.386 2.155 10.201 1.337 15.163-.334-5.367.667-16.162-3.119-15.163.334z"/><path d="m553.969 340.296c.032 1.978 11.442 3.11 15.281-.097-7.671 1.139-16.043-4.657-15.281.097z"/><path d="m544.95 342.145c-.442 2.747 11.973 2.164 15.872.789-6.666-.515-15.274-4.835-15.872-.79z"/><path d="m544.76 339.645c2.798 2.567 9.994-8.9 12.337-13.952-5.537 5.774-15.53 11.707-12.338 13.952z"/><path d="m552.926 337.707c3.33 2.213 6.388-5.883 8.079-11.823-3.172 5.123-11.27 8.455-8.08 11.823z"/><path d="m559.368 335.484c3.331 2.213 5.207-5.114 6.011-9.695-2.284 3.941-9.202 6.327-6.01 9.695z"/><path d="m565.604 331.586c3.33 2.212 7.512-3.932 6.543-9.99-1.279 6.247-9.734 6.622-6.543 9.99zm-12.644 17.243c1.64 4.178 18.896-3.653 21.789-8.877-5.544 4.685-23.396 4.048-21.79 8.877z"/><path d="m366.615 143.705c.368-3.589-2.381-10.115-.43-13.594.266-.478-.584-1.747-1.133-.977-.858 1.229-1.74 4.731-2.109 3.438-.391-1.406-.451-3.893-1.719-4.376-.809-.283-1.953-.468-1.641.782.31 1.202 1.004 2.862.235 2.969-.446.065-1.731-1.636-2.813-2.422-.872-.701-2.173.396-.898 1.445 4.144 3.379 8.159 4.9 10.508 12.735z" stroke="#000" stroke-width=".658" transform="matrix(-1.48635 0 0 1.51377 960.32 15.132)"/><path d="m415.402 232.668c-.547-5.433 3.54-15.311.64-20.578-.396-.723.867-2.644 1.683-1.479 1.276 1.86 2.587 7.162 3.135 5.205.581-2.129.67-5.894 2.555-6.625 1.203-.428 2.903-.708 2.44 1.184-.462 1.82-1.493 4.332-.35 4.494.663.099 2.573-2.476 4.181-3.666 1.296-1.061 3.23.6 1.335 2.187-6.16 5.115-12.127 7.418-15.619 19.278z"/><path d="m235.83 159.517c-.377-.307-.876-.76-.704.176 1.409 7.41 1.855 9.483 8.349 12.044 6.602 2.508 8.968 1.631 14.589 1.533 3.034-.111 6.567 1.404 8.671 3.618.98 1.03 1.687 1.441 1.294.128-.394-1.312-.777-3.015-1.396-4.379-1.348-3.002-4.834-5.866-8.321-7.011-4.879-1.717-10.139-.854-15.164-2.164-2.621-.724-5.138-2.183-7.318-3.945z" stroke="#000" stroke-width=".658" transform="matrix(1.33283 -.71768 .71768 1.33283 -24.468 271.072)"/><path d="m404.337 314.43c-.723-.138-1.713-.384-.812.74 7.196 8.865 9.278 11.308 19.771 10.061 10.6-1.395 13.124-4.262 20.545-8.427 3.964-2.325 9.76-2.842 14.154-1.4 2.045.669 3.283.709 1.816-.759-1.466-1.466-3.199-3.46-5.003-4.834-3.951-3.034-10.653-4.35-16.122-3.373-7.735 1.213-14.127 6.138-21.764 7.998-4.013.917-8.415.778-12.585-.006z"/><path d="m287.661 208.419c.884.11 1.444 1.822 1.879.663.738-1.877.221-3.37-.608-3.205-.979.261-2.635 2.456-1.271 2.542z" stroke="#000" stroke-width=".658" transform="matrix(1.51377 0 0 1.51377 29.445 14.777)"/><path d="m464.898 330.276c1.338.166 2.186 2.758 2.845 1.003 1.117-2.84.334-5.101-.92-4.851-1.483.395-3.99 3.718-1.925 3.848z"/><g stroke="#000" stroke-width=".658"><path d="m249.9 157.091c1.728 1.711 4.718-3.155 3.941-6.49-1.033 3.678-5.223 5.02-3.941 6.49z" transform="matrix(1.2852 -.79986 .79986 1.2852 15.094 330.683)"/><path d="m250.192 157.499c-2.085 1.745-3.69-5.558-3.041-8.224 1.03 4.254 4.665 6.769 3.041 8.224z" transform="matrix(.90315 -1.21483 1.21483 .90315 43.227 494.31)"/><path d="m250.179 157.072c-2.021 1.7-3.633-4.676-2.984-7.342 1.233 4.066 4.608 5.887 2.984 7.342z" transform="matrix(.86332 -1.24346 1.24346 .86332 44.703 502.232)"/><path d="m250.119 156.813c1.728 1.711 4.523-3.507 3.639-6.448-1.144 3.931-4.921 4.978-3.639 6.448z" transform="matrix(1.2852 -.79986 .79986 1.2852 10.836 325.835)"/><path d="m250.517 157.061c1.728 1.711 3.26-3.326 2.841-5.979-1.717 3.299-4.068 4.865-2.841 5.979z" transform="matrix(1.2852 -.79986 .79986 1.2852 6.342 320.394)"/><path d="m250.372 157.556c-2.085 1.745-3.109-3.375-2.065-6.363 1.21 4.034 3.689 4.908 2.065 6.363z" transform="matrix(.86332 -1.24346 1.24346 .86332 39.972 497.147)"/><path d="m250.33 156.622c1.52 1.162 3.868-1.273 2.834-4.049-1.623.795-4.329 2.684-2.834 4.049z" transform="matrix(.43972 -1.4485 1.4485 .43972 113.12 612.465)"/><path d="m250.984 156.862c-2.085 1.745-5.07-4.533-4.027-7.978 1.914 3.937 5.651 6.523 4.027 7.978z" transform="matrix(.90315 -1.21483 1.21483 .90315 50.502 500.499)"/></g><g stroke="#000" stroke-width=".658" transform="matrix(1.51377 0 0 1.51377 29.445 14.777)"><path d="m244.384 141.088c-1.017-1.062-.723-1.468.781-1.485 1.193-.075 3.557.731 4.454.078.822-.597.495-3.129.86-4.297.159-.651.615-1.673 1.64-.078 3.032 4.859 6.819 10.692 8.438 16.407.885 3.203.052 8.203-2.891 11.563.104-2.865-.964-4.792-2.266-7.188-1.608-3.149-7.581-11.678-11.016-15z"/><path d="m256.884 166.635c3.334.016 3.907-4.453 3.907-5.703-1.641.312-4.532 3.047-3.907 5.703z"/></g><path d="m399.387 228.352c-1.54-1.608-1.095-2.222 1.182-2.248 1.806-.113 5.384 1.107 6.742.118 1.245-.904.75-4.736 1.302-6.505.24-.985.931-2.532 2.483-.118 4.59 7.356 10.322 16.186 12.773 24.837 1.34 4.848.079 12.417-4.376 17.504.157-4.337-1.46-7.254-3.43-10.881-2.435-4.767-11.477-17.678-16.676-22.707z"/><path d="m418.309 267.024c5.047.025 5.914-6.74 5.914-8.633-2.484.473-6.86 4.613-5.914 8.633zm43.607 65.668c3.589.816 3.54-7.829-.127-11.494 1.615 5.554-2.697 10.63.127 11.494zm-1.392-.078c.236 4.11-10.085-.537-12.738-3.733 6.098 2.59 12.437.446 12.738 3.733zm-4.524-5.866c.369 3.981-8.951.481-11.706-2.628 6.12 1.978 11.298-.647 11.706 2.628zm1.717.562c3.59.817 3.008-8.125-.48-11.197 1.673 5.967-2.343 10.333.48 11.197zm-3.784-5.44c3.59.817 1.53-6.882-1.131-9.956.432 5.613-1.337 9.506 1.13 9.956zm-1.896-.03c.37 4.1-6.88.953-9.695-2.925 6.061 1.978 9.288-.35 9.695 2.926zm-1.975-3.109c2.352-1.69-.143-6.162-4.619-5.885.438 2.7 1.985 7.45 4.62 5.885zm17.678 18.534c.237 4.11-10.085 2.065-13.328-2.313 6.511 1.23 13.028-.974 13.329 2.313z"/><g stroke="#000" stroke-linejoin="round" stroke-width=".658"><path d="m250.859 158.121c-2.085 1.745-3.885-6.069-2.841-9.057 1.21 4.034 4.465 7.602 2.841 9.057z" transform="matrix(.86332 -1.24346 1.24346 .86332 13.546 505.342)"/><path d="m250.383 156.932c1.52 1.162 3.351-2.708 3.264-5.322-1.623.795-4.759 3.957-3.264 5.322z" transform="matrix(.43972 -1.4485 1.4485 .43972 96.228 625.343)"/><path d="m250.884 157.676c-1.905 1.525-5.456-5.931-4.824-8.965 2.958 6.483 6.406 7.587 4.824 8.965z" transform="matrix(.86332 -1.24346 1.24346 .86332 21.705 510.344)"/><path d="m250.192 157.499c-1.851 1.583-3.841-6.002-3.478-9.025 1.462 4.19 4.77 7.93 3.478 9.025z" transform="matrix(.48625 -1.43355 1.43355 .48625 92.697 619.041)"/><path d="m250.378 157.683c-1.641 1.471-3.924-5.396-3.996-9.096 1.537 4.412 5.62 7.641 3.996 9.096z" transform="matrix(.48626017 -1.43354479 1.43354479 .48626017 97.878274 621.71348)"/><path d="m250.192 157.499c-2.085 1.745-3.875-5.679-3.226-8.345 1.497 4.196 4.85 6.89 3.226 8.345z" transform="matrix(.30966 -1.48176 1.48176 .30966 142.79 663.063)"/><path d="m249.965 156.681c-2.641 1.126-1.795-3.311-3.205-6.705 2.557 3.211 5.062 5.525 3.205 6.705z" transform="matrix(1.49453 -.2406 .2406 1.49453 28.831 160.875)"/><path d="m250.179 157.072c-2.298 1.458-2.921-4.918-4.199-8.645 2.433 3.744 6.293 7.464 4.199 8.645z" transform="matrix(1.49453 -.2406 .2406 1.49453 34.936 162.798)"/><path d="m250.412 157.347c-2.021 1.7-5.694-6.867-6.833-11.206 2.219 3.592 8.457 9.751 6.833 11.206z" transform="matrix(1.49453 -.2406 .2406 1.49453 43.131 165.056)"/></g><path d="m426.734 329.919c.37 4.099-10.9-.41-13.714-4.287 6.06 1.978 13.307 1.011 13.714 4.287zm6.908 1.751c2.352-1.692-2.449-6.045-6.274-7.069.438 2.7 3.64 8.634 6.274 7.068zm.72 2.835c.252 3.685-12.085 1.664-15.312-1.741 10.615 1.918 14.964-1.416 15.312 1.741z"/><path d="m440.136 336.963c1.37 3.423-10.472 2.588-14.629.597 6.718-.058 13.688-2.982 14.63-.597z"/><path d="m445.675 339.462c1.31 3.067-9.643 3.001-14.983 1.305 7.073-.058 13.687-4.34 14.983-1.305zm7.965 1.647c1.94 3.63-9.615 3.983-13.364 2.196 6.68-.919 11.711-5.053 13.364-2.196zm-13.531-6.211c-3.676 2.318-3.48-4.517-6.403-9.25 4.594 4.184 8.894 7.04 6.403 9.25z"/><path d="m446.628 337.354c-3.084 2.732-5.55-6.647-8.356-11.91 4.537 5.01 11.2 9.641 8.356 11.91zm8.609 2.613c-2.611 3.027-10.162-8.893-12.908-15.104 4.18 4.834 14.985 12.538 12.908 15.104zm-7.345 9.102c-1.302 4.602-20.518-4.338-22.663-8.97 10.995 5.826 22.926 4.608 22.663 8.97z"/><path d="m235.634 159.057c-.297-.385-1.15.01-.937.938.198 1.256 2.05 7.704 5.233 9.922 2.27 1.636 14.201 4.271 19.61 5.39 2.977.599 5.47 2.084 7.423 4.454-.808-3.099-1.457-5.395-2.5-8.203-1.014-2.468-3.701-5.168-6.484-5.313-5.169-.186-11.859-.626-16.72-2.735-2.509-1.048-4.011-2.464-5.625-4.453z" stroke="#000" stroke-width=".658" transform="matrix(1.51377 0 0 1.51377 29.445 14.777)"/><path d="m386.141 255.553c-.45-.583-1.74.015-1.418 1.42.3 1.901 3.103 11.662 7.921 15.02 3.437 2.476 21.497 6.465 29.685 8.159 4.507.907 8.28 3.154 11.237 6.742-1.223-4.691-2.205-8.167-3.784-12.417-1.535-3.736-5.603-7.824-9.816-8.043-7.824-.282-17.951-.948-25.31-4.14-3.798-1.587-6.072-3.73-8.515-6.741z"/><g stroke="#000" stroke-linejoin="round" stroke-width=".658"><path d="m250.528 156.524c1.172 1.65 4.227-1.871 3.541-6.402-1.294 3.717-4.678 3.992-3.541 6.402z" transform="matrix(1.43763432 -.47403288 .47403288 1.43763432 -3.374886 187.917955)"/><path d="m250.317 156.166c1.924 1.363 3.843-2.203 3.432-5.697-.838 3.332-5.085 4.105-3.432 5.697z" transform="matrix(1.43764 -.47402 .47402 1.43764 -.537 194.3)"/><path d="m250.33 156.622c1.728 1.711 3.772-1.857 3.223-5.188-1.033 3.678-4.505 3.718-3.223 5.188z" transform="matrix(1.43764 -.47402 .47402 1.43764 1.828 198.438)"/><path d="m250.325 157.351c-2.085 1.745-3.833-4.965-3.184-7.631 1.03 4.254 4.808 6.176 3.184 7.631z" transform="matrix(1.28965 -.79266 .79266 1.28965 -12.958 300.81)"/><path d="m250.202 157.551c-2.185 1.683-4.069-7.266-3.58-10.717 1.03 4.254 5.128 9.536 3.58 10.717z" transform="matrix(1.28965082 -.79265401 .79265401 1.28965082 -16.388356 294.480431)"/><path d="m250.325 157.351c-2.369 1.983-4.106-8.251-4.307-11.623 1.184 4.303 6.051 10.196 4.307 11.623z" transform="matrix(1.28965 -.79266 .79266 1.28965 -18.28 288.984)"/><path d="m250.815 156.401c1.377 2.03 2.221-1.098 4.058-5.093-3.21 1.222-5.195 2.683-4.058 5.093z" transform="matrix(.59497 -1.39194 1.39195 .59497 62.018 545.173)"/><path d="m251.343 156.643c1.45.511 1.093-1.551 2.704-4.982-1.901.408-4.048 4.274-2.704 4.982z" transform="matrix(.59497 -1.39194 1.39195 .59497 55.218 542.808)"/><path d="m251.931 155.258c1.01 1.145 2.712-1.137 1.918-3.973-1.185 2.394-2.754 2.65-1.918 3.973z" transform="matrix(1.43764 -.47402 .47402 1.43764 4.666 201.632)"/></g><path d="m430.99 294.183c2.467 1.816 5.19-4.694 2.055-10.883-.098 5.957-4.833 7.957-2.056 10.883z"/><path d="m433.355 300.154c3.412 1.048 4.48-4.989 2.233-9.817.375 5.187-5.364 8.312-2.233 9.817z"/><path d="m435.955 304.943c3.295 1.64 4.542-4.458 2.174-8.987.259 5.778-4.714 7.481-2.174 8.987z"/><path d="m434.6 305.315c-1.306 3.903-8.879-3.365-10.155-7.317 4.7 4.67 11.096 4.154 10.155 7.317z"/><path d="m431.17 299.343c-1.484 3.903-11.007-6.145-13.112-10.983 4.7 4.67 14.172 8.233 13.112 10.983z"/><path d="m429.278 293.489c-1.483 4.435-11.835-7.387-14.768-11.576 4.938 4.61 15.886 8.353 14.768 11.576zm-.329-4.382c3.645-.709-.207-3.745-4.675-8.679-.209 5.196.644 8.828 4.675 8.68z"/><path d="m422.8 286.15c1.574-1.713-1.51-2.443-5.326-6.727-.563 2.889 3.54 8.177 5.326 6.728zm17.648 19.266c1.995 1.167 3.36-2.92.875-6.62-.57 4.003-2.704 5.114-.875 6.62z"/><g stroke="#000" stroke-linejoin="round" stroke-width=".658"><path d="m250.844 158.295c-3.215.553-4.94-7.294-5.05-10.29 1.147 3.834 6.165 8.875 5.05 10.29z" transform="matrix(1.41146 -.54706 .54707 1.41146 -43.54 193.423)"/><path d="m250.697 157.484c-2.064 1.041-4.923-5.067-5.648-7.882 1.618 3.053 7.29 5.54 5.648 7.882z" transform="matrix(1.41145752 -.54707156 .54707156 1.41145752 -39.282507 200.403509)"/><path d="m250.655 157.783c-1.663 1.73-4.962-6.484-5.072-9.48 1.099 4.067 6.931 7.345 5.072 9.48z" transform="matrix(1.28965082 -.79265401 .79265401 1.28965082 -43.588391 286.024813)"/><path d="m250.354 157.826c-2.04 1.224-4.229-6.261-3.983-9.313 1.396 4.478 5.839 8.003 3.983 9.313z" transform="matrix(1.28965082 -.79265401 .79265401 1.28965082 -44.889613 289.572851)"/><path d="m251.308 157.15c2.336-1.256 1.88-2.356 1.566-5.653-1.666 2.73-3.097 3.567-1.566 5.653z" transform="matrix(1.43764 -.47402 .47402 1.43764 -37.2 172.302)"/><path d="m251.097 157.04c3.098 1.175 1.246-3.677 1.562-7.135-.934 3.752-2.965 6.283-1.562 7.135z" transform="matrix(1.43764 -.47402 .47402 1.43764 -33.179 177.86)"/><path d="m250.973 156.67c2.341.226 2.729-3.064 2.29-7.348-.983 4.148-3.943 5.756-2.29 7.348z" transform="matrix(1.43764 -.47402 .47402 1.43764 -29.63 183.182)"/><path d="m250.609 157.709c-2.085 1.745-4.517-6.761-4.218-9.23 1.36 4.09 5.727 7.888 4.218 9.23z" transform="matrix(1.28965082 -.79265401 .79265401 1.28965082 -43.943209 294.421707)"/><path d="m250.87 157.731c-2.185 1.685-5.272-6.352-5.564-9.873 1.813 4.919 7.334 7.959 5.564 9.873z" transform="matrix(1.28965082 -.79265401 .79265401 1.28965082 -38.385609 300.689778)"/><path d="m251.182 157.373c-2.816 2.488-5.904-6.145-6.25-9.653 2.057 5.343 8.086 7.779 6.25 9.653z" transform="matrix(1.28965082 -.79265401 .79265401 1.28965082 -32.471745 307.548782)"/><path d="m250.663 156.362c1.53 1.563 4.001-3.426 4.179-7.465-1.316 4.038-6.018 5.812-4.179 7.465z" transform="matrix(1.43764 -.47402 .47402 1.43764 -28.448 191.46)"/><path d="m250.877 157.584c1.999 1.389 3.157-4.485 2.47-8.769-1.441 3.545-4.212 6.449-2.47 8.769z" transform="matrix(1.43763432 -.47403288 .47403288 1.43763432 -24.308647 196.433092)"/><path d="m251.406 156.977c2.43.955 2.367-4.582 1.25-8.061-.86 3.777-3.185 6.952-1.25 8.061z" transform="matrix(1.43763432 -.47403288 .47403288 1.43763432 -18.513457 203.765348)"/><path d="m247.981 153.48c-1.363.721-1.71-2.375-3.453-5.55 2.024 2.113 4.394 4.684 3.453 5.55z" transform="matrix(1.28965082 -.79265401 .79265401 1.28965082 -31.052848 312.279452)"/></g><path d="m397.115 279.623c-4.235 2.54-10.963-7.593-12.757-11.761 3.716 4.784 13.557 9.154 12.757 11.76z"/><path d="m400.721 285.536c-2.343 2.599-9.72-4.459-12.284-8.035 3.954 3.424 13.32 3.831 12.284 8.035z"/><path d="m404.737 290.828c-.773 3.549-11.539-4.43-14.055-8.206 4.64 4.374 14.76 3.979 14.055 8.206z"/><path d="m403.082 294.67c-1.66 3.195-10.416-4.723-12.518-8.854 5.35 4.669 13.874 5.693 12.518 8.854zm-4.498-15.568c2.763-2.913 1.586-4.279-.429-8.87-1.1 4.715-2.761 6.597.429 8.87zm3.666 5.5c5.01.22.048-5.877-1.137-10.998.435 5.837-1.285 10.438 1.136 10.998z"/><path d="m405.444 289.45c3.472-.784 2.47-5.698-.191-11.648.553 6.429-2.94 10.144.19 11.649zm-1.179 9.716c-1.306 3.903-11.185-5.14-12.756-8.56 4.995 4.196 13.638 5.633 12.756 8.56z"/><path d="m410.177 305.255c-1.482 3.905-11.834-4.013-15.002-8.322 6.238 4.906 15.768 4.45 15.002 8.322z"/><path d="m416.209 311.405c-1.66 5.441-12.485-3.245-15.712-7.494 6.888 5.26 16.594 3.622 15.712 7.494zm-10.174-13.972c2.94 1.522 4.128-6.821 2.469-12.712.022 6.429-5.897 11.208-2.47 12.712z"/><path d="m411.06 304.056c3.533 1.05 2.413-7.944-.605-13.778-.391 5.78-2.998 11.268.606 13.778zm6.269 6.209c3.946.221 1.23-7.71-2.025-12.181.554 5.837-1.283 11.504 2.025 12.181zm-6.915 3.388c-1.186 2.01-4.088-1.708-8.852-4.42 4.285 1.12 9.38 2.557 8.852 4.42z"/><g stroke="#000" stroke-linejoin="round" stroke-width=".658" transform="matrix(1.51377 0 0 1.51377 29.277 14.777)"><path d="m250.283 153.285c2.433-1.8.577-5.167 0-8.369-.783 3.037-2.844 7.022 0 8.369zm-.082 4.493c-3.655-.439-3.105-5.166-3.215-8.162 1.099 4.067 4.095 4.754 3.215 8.162zm.577-.618c3.092-.179 2.928-3.697 3.093-7.256-1.567 3.271-3.423 3.779-3.093 7.256z"/><path d="m250.655 161.53c-2.405.192-3.655-2.171-4.205-5.854 2.281 3.394 4.356 2.336 4.205 5.854zm.865-.288c3.092.398 2.598-3.202 2.474-5.855-.948 2.529-3.463 3.326-2.474 5.855z"/><path d="m246.697 159.716c.247 2.35 1.732 6.39 4.123 5.483.989-2.886-2.103-3.463-4.123-5.483z"/><path d="m251.562 165.447c-1.072-2.061 2.432-3.093 3.174-5.772.426 3.834.069 6.349-3.174 5.772z"/></g><path d="m408.15 246.815c3.682-2.724.873-7.821 0-12.668-1.186 4.597-4.306 10.63 0 12.668zm-.125 6.802c-5.533-.665-4.7-7.82-4.867-12.356 1.664 6.157 6.2 7.197 4.867 12.356zm.873-.936c4.681-.27 4.433-5.596 4.683-10.984-2.372 4.952-5.182 5.721-4.683 10.984z"/><path d="m408.712 259.297c-3.64.29-5.533-3.287-6.365-8.862 3.453 5.138 6.594 3.536 6.365 8.862zm1.31-.437c4.68.603 3.932-4.847 3.745-8.863-1.435 3.829-5.242 5.035-3.745 8.864z"/><path d="m402.72 256.55c.375 3.558 2.623 9.674 6.242 8.3 1.497-4.368-3.183-5.242-6.241-8.3z"/><path d="m410.085 265.226c-1.622-3.12 3.682-4.682 4.805-8.738.645 5.804.104 9.611-4.805 8.738z"/><g stroke="#000" stroke-linejoin="round" stroke-width=".658"><path d="m250.283 153.285c1.925-2.073.225-5.362-.352-8.564-.783 3.037-2.14 7.061.352 8.564z" transform="matrix(1.51377 0 0 1.51377 16.117 -3.787)"/><path d="m250.904 158.012c-3.381.343-4.199-6.533-4.543-9.49 1.099 4.067 4.993 5.926 4.543 9.49z" transform="matrix(1.51377 0 0 1.51377 15.084 -5.1)"/><path d="m250.856 157.082c2.389-1.234 1.834-3.892 2.585-5.889-1.606 2.451-3.071 2.802-2.585 5.889z" transform="matrix(1.51377 0 0 1.51377 16.21 -3.787)"/><path d="m251.06 158.169c-3.537.303-5.644-7.315-5.754-10.311 1.099 4.067 6.166 6.278 5.754 10.311z" transform="matrix(1.51377 0 0 1.51377 14.896 1.375)"/><path d="m250.739 157.004c3.326-.765 2.928-2.916 2.429-6.397-1.059 3.506-2.915 2.763-2.429 6.397z" transform="matrix(1.51377 0 0 1.51377 16.398 2.971)"/><path d="m250.889 161.452c-3.889.66-3.616-5.492-6.704-9.955 2.671 3.315 7.48 7.492 6.704 9.955z" transform="matrix(1.51377 0 0 1.51377 15.084 3.065)"/><path d="m251.52 161.242c2.936.085 3.223-4.335 3.06-6.128-.675 1.786-4.127 3.482-3.06 6.128z" transform="matrix(1.51377 0 0 1.51377 15.46 3.065)"/><path d="m244.627 155.966c1.458 4.733 3.529 9.476 6.076 9.116 1.223-2.691-2.416-3.034-6.076-9.116z" transform="matrix(1.51377 0 0 1.51377 15.366 4.191)"/><path d="m251.562 165.447c-1.072-2.061 2.432-3.093 3.174-5.772.426 3.834.069 6.349-3.174 5.772z" transform="matrix(1.51377 0 0 1.51377 15.46 2.596)"/><path d="m245.135 156.786c2.082 4.264 3.021 9.164 5.88 8.452 1.067-3.316-3.157-4.01-5.88-8.452z" transform="matrix(1.51377 0 0 1.51377 16.117 11.137)"/><path d="m251.484 165.486c-1.228-2.256 2.276-3.054 3.135-6.163.465 4.069.03 6.974-3.135 6.163z" transform="matrix(1.51377 0 0 1.51377 16.304 9.541)"/></g><path d="m394.988 228.252c2.914-3.138.34-8.117-.533-12.964-1.185 4.597-3.239 10.688.533 12.964zm-.092 5.841c-5.118.52-6.356-9.89-6.877-14.365 1.663 6.156 7.558 8.97 6.877 14.365zm1.054-.093c3.616-1.869 2.776-5.892 3.913-8.915-2.431 3.71-4.65 4.241-3.913 8.914z"/><path d="m394.944 240.807c-5.354.459-8.543-11.073-8.71-15.608 1.664 6.156 9.334 9.503 8.71 15.608zm1.016-.167c5.035-1.159 4.433-4.415 3.677-9.684-1.603 5.307-4.413 4.182-3.677 9.683z"/><path d="m394.873 247.466c-5.887 1-5.474-8.313-10.148-15.07 4.043 5.019 11.323 11.342 10.148 15.07zm1.331-.317c4.444.128 4.879-6.563 4.632-9.277-1.022 2.704-6.247 5.271-4.632 9.277z"/><path d="m385.676 240.288c2.207 7.165 5.342 14.345 9.197 13.8 1.852-4.074-3.657-4.593-9.197-13.8z"/><path d="m396.267 253.045c-1.622-3.12 3.682-4.682 4.805-8.738.645 5.804.105 9.611-4.805 8.738zm-9.072-4.57c3.152 6.455 4.574 13.872 8.901 12.795 1.616-5.02-4.779-6.07-8.9-12.795z"/><path d="m396.994 260.05c-1.859-3.416 3.445-4.624 4.746-9.33.704 6.16.045 10.557-4.746 9.33z"/><path d="m406.068 216.36c3.107.84 6.364-2.648 5.235-7.868-3.55.884-5.179 4.107-5.235 7.867zm-9.938-2.613c.272 1.469 2.058 1.602 1.539-.472-.433-1.683-.508-2.949 0-4.317.694-1.716.463-4.636-.06-5.854-.526-1.287-2.272-.533-1.537.474.808 1.167.85 3.595.295 4.729-.731 1.674-.533 3.896-.236 5.44z" stroke="#000" stroke-width=".995002"/><path d="m406.068 216.36c3.107.84 6.364-2.648 5.235-7.868-3.55.884-5.179 4.107-5.235 7.867zm-9.938-2.613c.272 1.469 2.058 1.602 1.539-.472-.433-1.683-.508-2.949 0-4.317.694-1.716.463-4.636-.06-5.854-.526-1.287-2.272-.533-1.537.474.808 1.167.85 3.595.295 4.729-.731 1.674-.533 3.896-.236 5.44z"/><path d="m406.867 208.165c-.294 2.293-2.235 2.501-1.671-.738.47-2.63.55-4.606 0-6.743-.755-2.679-.504-7.24.064-9.142.572-2.01 2.47-.833 1.671.74-.878 1.822-.924 5.615-.32 7.385.794 2.615.579 6.086.256 8.498zm14.465 22.916c-1.2 1.766-3.113.741-2.029-2.093.915-1.962 1.013-4.394 2.033-5.829 1.425-2.175 3.84-3.988 5.21-5.303 1.417-1.402 2.593-.051 1.294 1.15-1.577 1.577-3.288 3.542-4.238 5.03-1.774 2.89-.993 5.195-2.27 7.045z" stroke="#000" stroke-width=".995002"/><path d="m242.536 131.618c.179.97 1.484.926 1.141-.444-.286-1.112-.933-2.181-.598-3.085.459-1.133.571-3.079.226-3.884-.348-.85-1.47-.28-.985.385.534.771.114 2.925-.253 3.674-.483 1.106.273 2.334.469 3.354z" stroke="#000" stroke-width=".474" transform="matrix(-1.9079 -.76122 -.88509 1.96042 1004.342 160.517)"/><path d="m425.114 233.92c-1.2 1.765-3.651.685-1.784-1.74 1.53-1.962 3.71-3.565 3.871-5.592.127-2.57 1.636-6.47 3.007-7.786 1.416-1.402 3.052.57 1.538 1.504-1.7 1.105-2.806 5.648-2.769 7.395-.057 2.536-2.586 4.368-3.863 6.218z"/><path d="m421.332 231.081c-1.2 1.766-3.113.741-2.029-2.093.915-1.962 1.013-4.394 2.033-5.829 1.425-2.175 3.84-3.988 5.21-5.303 1.417-1.402 2.593-.051 1.294 1.15-1.577 1.577-3.288 3.542-4.238 5.03-1.774 2.89-.993 5.195-2.27 7.045z"/><path d="m242.233 131.775c-.094.784 1.231.974 1.172-.163-.06-1.187-1.824-2.273-.742-4.08.569-.884.579-2.504.234-3.365-.303-.854-1.579-.296-1.094.369.534.771-.1 2.25-.508 2.994-1.225 2.166 1.01 3.221.938 4.245z" stroke="#000" stroke-width=".454" transform="matrix(1.51377 0 0 3.17871 34.708 -196.93)"/><path d="m401.393 221.945c-.142 2.492 1.864 3.096 1.775-.518-.091-3.773-2.762-7.225-1.124-12.969.862-2.81.877-7.96.355-10.696-.46-2.715-2.39-.941-1.656 1.173.808 2.45-.152 7.152-.77 9.517-1.854 6.885 1.53 10.238 1.42 13.493z"/><path d="m406.867 208.165c-.294 2.293-2.235 2.501-1.671-.738.47-2.63.55-4.606 0-6.743-.755-2.679-.504-7.24.064-9.142.572-2.01 2.47-.833 1.671.74-.878 1.822-.924 5.615-.32 7.385.794 2.615.579 6.086.256 8.498zm-19.725 46.898c.96 1.143 2.58.377 1.105-1.17-1.208-1.25-.81-1.644-1.546-3.168-.728-1.701-.69-2.64-1.569-3.856-.776-1.154-1.945.023-1.162.994.983 1.148.711 1.995 1.312 3.105 1.11 1.901.84 2.899 1.86 4.095zm25.852 31.192c3.091 1.52 5.437 5.317 5.592 8.41.262 3.558.775 6.563 2.373 9.093-2.544-.709-3.763-4.764-4.125-8.649-.366-4.02-2.532-5.764-3.84-8.854zm6.439 7.443c2.14 3.949 5.13 5.455 5.283 8.385.26 3.372.516 3.544 1.43 6.86-2.519-.672-3.152-.891-3.832-5.937-.42-3.545-3.258-6.046-2.88-9.308z" stroke-width="1.333"/><path d="m536.168 359.805c.06 1.497.238 2.7 1.125 3.902-5.165-2.069-12.457-.96-17.445 1.361-2.225 1.063-4.917-1.214-2.307-3.37 3.712-3.009 12.3-1.303 18.627-1.893zm-72.867-.079c.073 1.411-.09 2.704-.61 3.936 5.615-2.325 11.643-.394 17.315 1.894 3.9 1.612 4.214-1.18 3.525-2.145-1.183-1.714-3.474-3.595-6.371-3.636-1.929-.027-9.354-.094-13.859-.049zm4.74-27.423c-1.567-.675-3.386-.026-5.018 1.692-5.483 5.373-11.917 10.607-17.109 14.68-1.938 1.683-3.918 4.703 4.348 7.721.3.113 6.324 2.346 10.142 2.489 1.559-.044 1.555 2.284 1.265 2.905-.658 1.24-.181 1.713-1.512 2.906-1.386 1.17.148 2.685 1.238 1.656 4.654-4.04 12.2-1.455 19.472.91 1.718.475 4.862.342 4.835-2.029.03-2.582 1.901-4.408 3.046-4.474 2.968.514 17.637.678 22.155.128 2.634-.342 2.793 3.61 4.203 5.167.971 1.032 4.712 1.306 7.276.174 5.07-2.356 12.795-2.356 15.943-.105 1.295.986 2.316.187 1.58-.814-.947-1.368-.926-2.003-1.396-3.084-1.183-2.405-.24-2.994 1-3.168 14.007-1.806 18.477-6.585 14.195-10.481-5.53-4.85-11.687-9.726-16.99-15.457-1.439-1.52-2.39-2.13-5.382-.886-9.151 4.168-20.766 7.206-32.133 7.428-10.577.091-25.12-4.802-31.158-7.358z" stroke="#000" stroke-width=".995002"/><path d="m536.168 359.805c.06 1.497.238 2.7 1.125 3.902-5.165-2.069-12.457-.96-17.445 1.361-2.225 1.063-4.917-1.214-2.307-3.37 3.712-3.009 12.3-1.303 18.627-1.893zm-72.867-.079c.073 1.411-.09 2.704-.61 3.936 5.615-2.325 11.643-.394 17.315 1.894 3.9 1.612 4.214-1.18 3.525-2.145-1.183-1.714-3.474-3.595-6.371-3.636-1.929-.027-9.354-.094-13.859-.049zm4.74-27.423c-1.567-.675-3.386-.026-5.018 1.692-5.483 5.373-11.917 10.607-17.109 14.68-1.938 1.683-3.918 4.703 4.348 7.721.3.113 6.324 2.346 10.142 2.489 1.559-.044 1.555 2.284 1.265 2.905-.658 1.24-.181 1.713-1.512 2.906-1.386 1.17.148 2.685 1.238 1.656 4.654-4.04 12.2-1.455 19.472.91 1.718.475 4.862.342 4.835-2.029.03-2.582 1.901-4.408 3.046-4.474 2.968.514 17.637.678 22.155.128 2.634-.342 2.793 3.61 4.203 5.167.971 1.032 4.712 1.306 7.276.174 5.07-2.356 12.795-2.356 15.943-.105 1.295.986 2.316.187 1.58-.814-.947-1.368-.926-2.003-1.396-3.084-1.183-2.405-.24-2.994 1-3.168 14.007-1.806 18.477-6.585 14.195-10.481-5.53-4.85-11.687-9.726-16.99-15.457-1.439-1.52-2.39-2.13-5.382-.886-9.151 4.168-20.766 7.206-32.133 7.428-10.577.091-25.12-4.802-31.158-7.358z"/><path d="m368.233 155.508c.419 1.443 6.19-1.194 9.123-6.963-3.841 4.188-10.058 4.147-9.123 6.963z" stroke="#000" stroke-width=".658" transform="matrix(1.51377 0 0 1.51377 7.587 70.236)"/><path d="m565.008 305.64c.635 2.184 9.37-1.808 13.81-10.541-5.814 6.34-15.225 6.277-13.81 10.54z"/><path d="m253.454 178.873c1.695 2.578 3.958 4.444 4.06 6.487.173 2.351.344 2.471.954 4.783-1.681-.468-2.104-.621-2.558-4.139-.28-2.472-2.708-4.857-2.456-7.131z" stroke="#000" stroke-width=".664" transform="matrix(-1.56914 0 0 1.4342 977.27 35.822)"/><path d="m579.564 292.363c-2.66 3.698-6.21 6.374-6.37 9.304-.272 3.372-.54 3.544-1.497 6.86 2.637-.671 3.301-.89 4.013-5.936.44-3.546 4.25-6.966 3.854-10.228z"/><path d="m254.375 180.278c2.042 1.004 2.506 2.667 2.587 4.726.04 2.384.617 4.226 1.673 5.897-2.103.305-2.486-3.147-2.725-5.713-.242-2.656-.671-2.869-1.535-4.91z" stroke="#000" stroke-width=".643" transform="matrix(-1.58579 0 0 1.51377 987.269 14.361)"/><path d="m583.884 287.261c-3.238 1.52-3.974 4.037-4.102 7.154-.064 3.609-.979 6.397-2.653 8.927 3.335.462 3.942-4.764 4.321-8.648.384-4.02 1.064-4.343 2.434-7.433z"/><path d="m242.233 131.44c.179.97 1.359 1.058 1.016-.312-.286-1.112-.335-1.948 0-2.852.459-1.133.306-3.062-.039-3.867-.348-.85-1.501-.352-1.016.313.534.771.562 2.375.195 3.124-.483 1.106-.352 2.574-.156 3.594z" stroke="#000" stroke-width=".509" transform="matrix(1.61914 0 0 2.36426 200.72 -102.761)"/><path d="m592.93 207.997c.29 2.294 2.2 2.502 1.645-.737-.463-2.63-.543-4.606 0-6.743.743-2.679.495-7.24-.063-9.143-.564-2.01-2.43-.832-1.645.74.864 1.823.91 5.615.315 7.386-.782 2.615-.57 6.086-.252 8.497z"/><path d="m242.233 131.775c-.094.784 1.231.974 1.172-.163-.06-1.187-1.824-2.273-.742-4.08.569-.884.579-2.504.234-3.365-.303-.854-1.579-.296-1.094.369.534.771-.1 2.25-.508 2.994-1.225 2.166 1.01 3.221.938 4.245z" stroke="#000" stroke-width=".457" transform="matrix(-1.48999 0 0 3.17871 959.242 -197.097)"/><path d="m598.318 221.778c.14 2.492-1.835 3.096-1.747-.518.09-3.773 2.718-7.225 1.106-12.97-.848-2.81-.863-7.959-.349-10.696.452-2.714 2.353-.94 1.63 1.173-.795 2.451.15 7.152.757 9.517 1.825 6.886-1.505 10.24-1.397 13.494z"/><path d="m242.233 131.44c.179.97 1.359 1.058 1.016-.312-.286-1.112-.335-1.948 0-2.852.459-1.133.306-3.062-.039-3.867-.348-.85-1.501-.352-1.016.313.534.771.562 2.375.195 3.124-.483 1.106-.352 2.574-.156 3.594z" stroke="#000" stroke-width=".663" transform="matrix(-1.48999 0 0 1.51377 964.423 14.61)"/><path d="m603.498 213.58c-.267 1.468-2.025 1.601-1.514-.472.426-1.684.5-2.95 0-4.318-.684-1.715-.456-4.635.058-5.853.519-1.287 2.237-.533 1.514.473-.796 1.168-.837 3.596-.29 4.73.72 1.674.524 3.896.232 5.44z"/><path d="m357.766 126.771c-1.008 1.557-5.555-1.226-4.714-2.894.869-.972 5.751 1.078 4.714 2.894z" stroke="#000" stroke-width=".658" transform="matrix(1.25382 .8482 -.8482 1.25382 251.684 -245.956)"/><path d="m592.73 216.45c-2.585 1.097-5.925-6.25-3.456-7.627 1.914-.482 6.296 6.23 3.456 7.627z"/><path d="m242.223 131.738c.179.97 1.234.857 1.321-.555-.013-1.006.431-2.074.266-2.87-.197-1.186-.906-2.386-1.251-3.191-.348-.85-1.141-.469-.805.274.384.954.75 2.098.874 2.905.208 1.555-.601 2.417-.405 3.437z" stroke="#000" stroke-width=".482" transform="matrix(1.84096 -.76122 .85404 1.96042 19.801 157.114)"/><path d="m578.234 230.99c1.158 1.765 3.003.74 1.958-2.094-.883-1.962-.978-4.394-1.962-5.829-1.375-2.175-3.705-3.988-5.028-5.303-1.367-1.402-2.501-.051-1.248 1.15 1.522 1.577 3.173 3.542 4.09 5.03 1.711 2.89.958 5.195 2.19 7.045z"/><path d="m242.536 131.618c.179.97 1.484.926 1.141-.444-.286-1.112-.933-2.181-.598-3.085.459-1.133.571-3.079.226-3.884-.348-.85-1.47-.28-.985.385.534.771.114 2.925-.253 3.674-.483 1.106.273 2.334.469 3.354z" stroke="#000" stroke-width=".482" transform="matrix(1.84096 -.76122 .85404 1.96042 16.135 159.48)"/><path d="m575.041 232.881c1.158 1.766 3.523.686 1.722-1.739-1.477-1.962-3.58-3.565-3.736-5.592-.123-2.57-1.578-6.471-2.901-7.787-1.367-1.401-2.945.57-1.485 1.505 1.642 1.105 2.708 5.647 2.672 7.395.056 2.536 2.496 4.368 3.728 6.218z"/><path d="m473.423 314.923c3.509 2.8 6.816 5.979 7.806 9.934 1.033 3.685 1.656 6.505 4.022 10.171-3.705-2.366-5.177-5.94-6.268-9.818-.958-3.81-3.155-6.659-5.56-10.287z" stroke="#000" stroke-linejoin="round" stroke-width=".995002"/><path d="m473.423 314.923c3.509 2.8 6.816 5.979 7.806 9.934 1.033 3.685 1.656 6.505 4.022 10.171-3.705-2.366-5.177-5.94-6.268-9.818-.958-3.81-3.155-6.659-5.56-10.287zm-4.021 0c3.273 2.681 5.396 5.742 6.386 9.697 1.033 3.685 2.484 6.623 4.614 9.935-3.47-2.366-5.65-5.584-6.742-9.462-.958-3.812-2.089-6.661-4.258-10.17zm61.263 0c-3.345 2.697-5.516 5.776-6.528 9.754-1.056 3.707-2.54 6.662-4.717 9.994 3.547-2.38 5.777-5.617 6.892-9.519.98-3.834 2.136-6.7 4.353-10.229zm-4.11 0c-3.587 2.816-6.968 6.014-7.98 9.993-1.055 3.706-1.693 6.543-4.111 10.23 3.788-2.38 5.292-5.974 6.407-9.875.98-3.833 3.225-6.699 5.684-10.348zm-11.88 9.342c.097-.692-.375-1.296-.942-1.478a42.019 42.019 0 0 0 -3.295-1.064c-1.243-.295-1.939.597-1.943 1.183-.007.974-.052 1.802 0 2.541.067.92.242.989.824 1.125.93.157 2.124.318 3.06.946.741.457 1.454.095 1.825-.708.24-.615.37-1.817.471-2.545zm-13.396 0c-.086-.691.277-1.354.783-1.536.986-.415 1.967-.516 3.002-.474 1.15-.018 1.439.242 1.443.828.005.975.046 1.921 0 2.66-.06.92-.04.988-.56 1.125-.832.157-2.25.2-3.086.828-.663.457-1.418.095-1.454-.768.016-.65-.038-1.935-.128-2.663zm-16.264-.178c-.097-.691.377-1.295.946-1.477a42.357 42.357 0 0 1 3.31-1.064c1.25-.295 1.949.596 1.953 1.182.007.975.052 1.803 0 2.542-.068.92-.243.988-.828 1.124-.935.158-2.134.318-3.074.947-.745.457-1.461.095-1.833-.709-.241-.614-.373-1.816-.474-2.545zm13.459.001c.086-.692-.279-1.355-.787-1.537-.99-.414-1.976-.516-3.016-.473-1.155-.019-1.446.242-1.45.828-.005.975-.046 1.92 0 2.66.061.92.04.988.563 1.124.836.158 2.261.2 3.1.828.666.457 1.425.095 1.462-.767-.017-.651.037-1.935.128-2.663zm-12.454 6.15c1.202 2.266 2.582 5.716 5.085 5.085.039-1.735-2.7-2.937-5.085-5.085zm3.725.767c4.86 1.993 9.057 1.5 9.58 4.555-4.56.492-6.227-1.38-9.58-4.555zm23.832-.471c-1.218 2.136-2.618 5.388-5.154 4.793-.04-1.635 2.737-2.768 5.154-4.793zm-3.409.649c-4.931 1.89-9.189 1.423-9.72 4.322 4.626.467 6.318-1.31 9.72-4.322z" stroke-width="1.333"/><path d="m524.713 282.745 10.586.001c.04 4.001 2.385 8.299 5.677 10.762h-20.285c3.175-2.878 4.042-6.288 4.022-10.763z" stroke="#000" stroke-width=".995002"/><path d="m524.713 282.745 10.586.001c.04 4.001 2.385 8.299 5.677 10.762h-20.285c3.175-2.878 4.042-6.288 4.022-10.763z"/><path d="m449.197 347.44c-.582.445-.543 1.78.59 2.247 10.574 3.793 20.782 10.804 50.15 10.527 29.648-.28 40.067-7.121 49.555-10.29 1.264-.48 2.454-1.46.828-2.838-5.331-4.358-11.094-7.86-14.903-13.247-.675-.969-2.52-.42-3.666 0-11.317 3.975-21.773 6.76-32.643 6.741-10.615-.02-21.679-2.943-31.638-7.036-.954-.407-2.516.052-3.253.768-4.621 4.603-9.647 9.07-15.02 13.128z" stroke="#000" stroke-width=".498334"/><g stroke-width="1.333"><path d="m463.45 340.165c-1.274-.82-1.847.247-.947 1.361 1.17 1.282 3.06 2.054 5.026 2.602 1.148.32 3.517-.083 4.732.06.946.117 1.48 2.026 3.194 1.95 1.729-.074 2.839-4.67 2.898-6.978.078-1.529-2.035-.552-1.834.06.555 1.52-.46 4.911-1.537 4.908-.794-.048-1.644-1.692-2.839-1.892-.934-.154-2.35.109-3.312.118-2.811.028-4.022-1.374-5.381-2.189z"/><path d="m465.814 338.924c1.5.75 2.811-.592 3.668.356 2.189 2.484 5.004-1.19 1.715-1.064-1.33.051-1.538-1.007-3.845-.771-1.228.158-2.255 1.061-1.538 1.479zm.356 10.881c-1.185-.518-1.584.608-.887 1.302.978.893 5.04 1.249 6.032.533 1.643-1.246.442-4.519-.295-5.442-.46-.562-1.847-.604-1.302.888.226.692 1.234 2.413.413 3.193-.75.717-2.827-.002-3.961-.474zm9.108 1.007c.26-.668-.442-1.818-1.657-.474-1.004 1.06-.19 5.527 3.017 6.327 3.133.77 5.48-.357 5.912-2.069.299-1.14-1.418-2.13-.531-3.135.74-.786 2.17.008 2.78-1.241.357-.701.385-2.138-1.539-3.076-.834-.42-2.278.537-2.248 1.243.046.97 1.549.337 1.006 1.182-.397.643-2.173.375-2.72 1.892-.326.964 2.011 2.744.77 3.194-1.108.383-2.552.631-4.022-.177-.909-.481-1.295-2.474-.768-3.666zm-11.298-6.151c-.744.11-1.772.651-1.83 1.538-.046.712.54 1.944 1.537 1.122 1.03-.8.24-1.178.473-.887.513.513-.24.555-1.183 1.834-.657.97-2.06.815-2.779.473-1.241-.64-.777-1.05-2.13-1.656-1.352-.665-2.17.894-.887 1.597 1.418.813 3.742 2.437 6.032 1.243 1.361-.77 2.957-1.47 2.898-3.195-.077-1.12-.575-2.287-2.13-2.069zm73.567-.591c-1.046-.749-.405-2.105 1.125-1.598 1.302.482 3.464 2.015 3.606 4.022.162 2.195-3.376 3.801-4.73 3.727-2.317-.187-1.904-2.025-.178-1.893 1.338.096 2.982-.38 3.076-1.775.079-1.21-2.145-1.913-2.899-2.484zm-7.627-5.382c-1.352-1.364 1.477-2.839 2.305-1.182 1.091 2.105 2.39 4.178 3.371 6.504.781 1.91-.244 2.168-.887 1.123-1.076-1.816-2.707-4.247-4.79-6.445zm-6.623 4.081c1.454-.633 1.418 1.182.887 1.538-.962.534-2.248-.887-.887-1.538zm4.317-1.597c1.454-.633 1.418 1.182.887 1.538-.962.535-2.248-.887-.887-1.538z"/><path d="m482.491 343.715c-2.183-1.394.444-3.474 1.952-1.892 2.16 2.205 4.225 7.039 5.855 8.87 1.55 1.8.301-4.88.769-6.86.32-1.1 1.18-.946 1.182.118.008 2.722-.412 8.26.295 8.694 1.323.752 1.084 1.98 2.188 1.774 1.183-.282 1.006-.592 2.07-.651 1.056 0 1.092 1.058 2.308.887.775-.101 1.008-.98 1.95-1.007.858-.072.488 1.823-.058 2.13-.892.501-3.668-.545-4.495-.472-.984.026-2.755.938-3.845.531-1.33-.475-1.035-2.161-1.95-1.892-1.038.24-.843 2.127-3.311 2.72-1.157.264-1.546-.775-.947-1.479 1.074-1.147 3.235-2.063 2.898-3.133-1-2.982-4.024-6.574-6.86-8.338zm18.983.413c1.05 3.452.998 8.041 1.597 11.178.295 1.234 1.476.135 1.361-.828-.465-3.368-.67-7.502-1.538-10.704-.36-1.108-1.821-.893-1.42.354zm2.897.889c-.277-1.44 1.1-1.574 1.302-.712.71 2.778.62 9.135 2.01 9.345 2.401.274 5.768-.223 8.753-.828 1.469-.292 1.77-1.355 1.715-1.776-.281-1.707 1.313-1.573 1.715.238.217.945-.212 2.638-2.01 3.015-3.513.679-8.35 1.725-11.119 1.124-2.425-.514-1.634-6.775-2.366-10.406z"/><path d="m508.275 347.5c.06-1.822 1.428-2.09 1.419-.533.038 3.725 4.399 2.758 5.324 1.36.682-1.09.183-1.559-.474-2.779-.817-1.579.913-2.024 1.656-.65.556.982.942 4.114-.059 4.908-1.385 1.098-5.129 1.637-6.742.414-.857-.59-1.19-1.723-1.124-2.72zm-1.892-4.85c.194 1.166 3.37.768 3.252-.119-.11-.763-3.429-.592-3.252.118zm4.139.946c.125 1.176 2.18.83 2.07-.06-.11-.94-2.188-1.124-2.07.06zm6.209-1.419c-1.043-1.441.987-1.532 1.656-.472 1.732 2.588 2.874 6.762 4.554 9.579.714 1.299 1.609.138 1.715-.177.112-.335-.543-.848-.59-2.01-.084-.904 1.765-2.027 3.074-1.183 1.225.825.223 1.556.828 2.01.577.433 2.033.161 2.248-.117.646-1.016-.235-.421-1.125-1.007-1.029-.737-.411-3.931 1.715-2.602 1.266.732 1.638 3.074 1.183 4.376-.403 1.206-2.52 1.617-3.667 1.36-1.29-.393-2.334-1.946-2.069-1.537.639 1.049-.157 2.084-.769 2.484-1.51.948-2.564 1.444-3.666-.118-1.953-2.925-3.028-7.858-5.087-10.586z"/></g><g stroke="#000" stroke-width=".995002"><path d="m461.618 141.74c-.086-1.747 2.622-1.88 2.311.522-.396 2.993 5.65 10.57 6.15 15.243.337 3.133-1.84 5.876-3.995 7.583-2.644 2.047-6.708 1.766-8.61.591-1.15-.926-2.199-4.097-1.337-5.352.304-.423 1.681 4.654 4.715 4.634 4.128-.027 7.472-3.128 7.595-5.893.211-4.817-6.753-12.43-6.83-17.328zm12.082 11.896c.682-.488 1.772 1.642 1.003 2.174-.64.427-1.89-1.583-1.004-2.174zm1.83-4.32c-.346.167-1.031-.07-.827-.363.966-1.38 3.024-3.457 4.517-4.182.459-.223 1.261.587.984.983-.893 1.276-3.067 2.782-4.675 3.562zm15.96-12.662c.382-.799 2.682-1.703 3.267-2.243.542-.555.801.47.57.953-.383.799-2.368 2.148-3.238 2.184-.468.02-.831-.41-.6-.894zm5.46.256c.497-1.404 2.104-3.53 3.209-4.231.567-.36 1.586-.077 1.395.461-.422 1.19-2.387 3.271-3.708 4.251-.402.357-1.012-.156-.897-.481zm-4.684 3.512c-.333.167-.153.876.168.983.683.228 1.925.272 2.488-.038.818-.504.445-3.604-.649-1.948-.734 1.021-1.27.693-2.007 1.003zm-9.239 7.113c-1.67-1.3.45-3.122 2.195-1.85 3.4 2.565-5.072 12.39-9.682 16.983-.843.9-1.583-1.366-.502-2.341 3.304-2.803 6.398-6.153 8.55-9.612.414-.666.81-2.102-.56-3.18zm19.353-8.451c.208-1.244-2.013.026-2.053-1.624-.022-.873 2.426-1.485 3.45-.481 1.728 1.754.435 4.712-2.44 4.898-2.395.106-6.393 3.402-5.785 4.095.692.856 6.906 1.421 10.52.855 2.237-.314 1.767 1.687-.524 1.958-2.215.256-4.02.019-6.089.67-2.435.695-3.498 3.965-4.851 5.185-.302.212-1.115-1.072-.806-1.555.975-1.524 2.53-3.858 4.24-4.526 1.08-.437-2.976-.575-4.27-.945-1.026-.309-.728-1.613-.335-2.341.523-1.135 4.345-4.962 5.886-4.9 1.447.061 2.914-.36 3.058-1.289zm6.445.335c.719-.635 1.087-1.696 1.84-2.342.414-.414 1.074.082.963 1.081-.092.787-1.149 1.465-1.858 2.056-.579.433-1.25-.502-.945-.795zm8.197-2.923c1.07-.118 1.337 1.948.167 2.282-.71.237-1.331-2.16-.167-2.282zm-2.705 6.386c-.017 1.779.861 1.615 2.537 1.554 1.626-.06 3.056.042 3.05-1.564-.008-1.665-.922-3.122-1.19-1.989-.236 1.065-.423 2.808-1.043 2.048-.584-.652-.352-.796-1.357.275-.558.59-.621-.286-.956-.836-.233-.326-1.04.263-1.041.512zm-11.68 9.081c-.4 2.354-.034 5.65 1.171 5.687 1.49.049 4.572-5.146 6.031-7.84.875-1.505 2.378-1.767 1.752-.198-.95 2.42-.865 7.6-.03 9.121.447.82 3.755-.751 4.29-1.919.971-2.122.18-6.034.522-8.422.165-1.569 1.6-1.896 1.524-.443-.142 2.6-.39 7.369-.206 9.534.109 1.245 3.668 3.082 4.24-.688.301-2.372 1.523-4.712-.059-7.34-.98-1.644 1.44-1.438 2.745.807.912 1.528-.77 4.057-.71 6.011.151 3.007-2.188 4.716-3.885 4.751-1.517.031-2.505-1.832-3.748-1.858-1.379-.088-2.796 2.145-3.936 2.066-4.417-.302-2.078-6.758-3.424-6.837-1.497-.089-3.262 6.328-5.106 6.099-1.818-.218-3.7-5.23-2.943-7.35.685-1.972 1.974-2.435 1.772-1.18z"/><path d="m524.028 141.78c-2.156-1.314.136-4.734 1.19-3.532 2.034 2.436 4.085 8.22 5.519 8.697.908.303.866-4.274 1.506-6.356.413-1.537 2.272-1.035 1.916.935-.12.657-2.428 8.137-2.25 8.432 1.598 3.196 3.18 6.439 4.18 9.869.414 1.478-1.362.483-1.574.176-1.134-1.695-3.118-8.176-3.118-7.88-.913 4.559-1.128 5.904-2.097 9.779-.295 1.241-2.122 1.015-1.71-1.171.396-1.797 3.009-10.635 2.862-10.891-2.054-3.626-3.933-6.494-6.424-8.058z"/><path d="m527.914 162.815c-.601-.068-1.534 1.337 1.459 1.89 4 .723 8.377-.624 9.718-4.546 1.537-4.671 2.553-9.093 3.355-10.762 1.002-1.945 2.284-1.788 1.338-4.626-.668-2.043-1.913-1.427-2.175-.335-.7 2.978-3.353 12.611-4.181 14.385-1.563 3.237-4.711 4.518-9.514 3.994z"/><path d="m535.923 147.447c-.428-.919-1.428-.207-1.249.798.106.908.843 1.402 1.584 1.377.876-.03 2.73.029 2.735-1.426.003-1.023-.8-1.877-1.397-.749-.571 1.022-1.305.915-1.673 0zm1.004-3.847c-.308.213-.032 1.35.334 1.338 1.307-.043 3.158-.46 4.15-1.15.29-.202.169-.89-.244-.876-1.26.042-3.264.009-4.24.688zm11.097 2.864c.946-1.478 3.556-1.629 2.617.481-.664 1.455-7.161 14.008-8.048 15.605-.968 1.795-1.76.906-1.072-.492.925-1.799 6.206-15.157 6.503-15.594z"/><path d="m538.245 165.149c-.277-1-1.827-2.477-1.653.196.309 4.85 6.974 3.317 8.992 1.593 1.832-1.623.242 5.477 2.676 6.237 1.341.43 3.866-1.4 5.108-3.01 3.442-4.467 5.632-10.87 8.943-15.28 1.25-1.725-.684-2.956-1.467-1.584-2.879 4.828-6.454 14.68-10.36 17.239-3.183 2.037-2.24-2.624-2.35-4.024-.14-1.027-1.392-2.539-3.062-1.151-1.167.912-2.98 1.654-4.623 1.505-.952-.053-1.756-.036-2.204-1.721z"/><path d="m550.14 156.145c.035-.274-1.409-.398-1.338 1.004.05 1.037 1.291 1.319 1.505 1.17 1.953-1.42-.415-.711-.167-2.174zm-2.844 5.687c-.385.09-.737 1.317.168 1.387.828.06 4.072-.289 4.968-.236.58-.022.801-1.13-.442-1.072-1.508.076-3.49-.302-4.694-.079zm21.479-1.443c1.33-4.986 4.553.769 1.715 3.607-4.382 4.293-5.702 12.487-12.655 13.72-1.874.403-5.173-.843-6.15-1.538-.382-.27.246-2.05 1.418-1.182 1.694 1.323 5.192 1.621 7.039.118 3.95-3.878 7.168-9.014 8.633-14.725zm-72.237 11.074c-.314.36-1.272.301-1.358.807-.377 1.875 0 2.826-.413 4.632-.396 1.729-1.596 1.794-1.514.384.109-1.827 1.615-4.406.55-4.583-.708-.167-1.254-1.114-.521-1.582 1.383-.96 2.126-.813 3.077-.524.332.102.416.589.179.866z"/><path d="m495.563 169.015c-1.835 1.605-3.536 2.26-5.224 4.289-.69.83-.67 1.989-1.083 3.048-.413 1.125-1.742 1.346-2.154 1.112-.688-.453-.589-2.539-1.358-1.416-.652 1.034-1.073 2.459-2.037 2.44-.872-.018-2.518-1.801-1.683-1.887 2.853-.292 2.818-2.577 3.887-2.727 1.199-.16 1.278 1.887 2.018 1.476.581-.298.855-2.682 1.486-3.325 1.935-1.977 3.465-3.022 5.44-4.475.998-.796 1.711.64.708 1.465zm6.691 6.148c-1.469.296-1.219 2.184-.788 2.419.712.331 1.812.47 2.224-1.7.192-.892.367 4.432 2.32 2.38 1.126-1.242 3.912.226 5.08-1.337.835-1.042 1.092-1.768.442-3.306-.19-.468-1.334-.238-1.269.897.058.957-.678 2.138-1.635 1.936-.465-.084.262-2.34-.204-2.951-.258-.337-.648-.3-.904.048-.359.487.36 2.65-.819 2.934-1.488.343-.708-1.446-1.338-1.773-2.025-1.022-2.22.265-3.11.453zm11.465-3.63c1.076-.303.74-.305 2.434-1.691.66-.5.79.962.72 1.54-.122.983-1.29.29-1.65 1.154-.53 1.123-.316 3.736-.493 4.8-.121.547-.997.5-1.08.069-.252-1.298.176-2.568.135-4.19-.013-.552-.802-1.416-.066-1.682zm-5.059-5.855c-.26 1.174-.24 2.141-.24 2.947.058.65 1.248.231 1.244.148-.06-1.03.175-2.457-.13-2.854-.164-.215-.814-.463-.874-.241z"/></g><path d="m461.618 141.74c-.086-1.747 2.622-1.88 2.311.522-.396 2.993 5.65 10.57 6.15 15.243.337 3.133-1.84 5.876-3.995 7.583-2.644 2.047-6.708 1.766-8.61.591-1.15-.926-2.199-4.097-1.337-5.352.304-.423 1.681 4.654 4.715 4.634 4.128-.027 7.472-3.128 7.595-5.893.211-4.817-6.753-12.43-6.83-17.328z"/><path d="m468.795 140.726c.514.025 1.925 1.853 1.833 2.425-.064.27-1.51-.04-1.951-.414-.327-.277-.196-2.025.118-2.01zm-6.803 13.245c-1.29.703.204 2.092 1.17 1.505 3.625-2.348 9.066-4.813 10.203-9.463.365-1.575 1.828-3.99 3.218-4.528 1.343-.52 3.293 2.43 4.566.108.746-1.327 3.362.87 3.993-.55.769-1.714.403-2.658.434-4.3-.056-1.077-.878-1.398-1.474.344-.31.789.054 1.585-.198 1.997-.193.313-.792.616-1.14.355-.321-.24-.099-.913-.868-1.21-.298-.15-.776-.274-.984.108-.912 1.628-1.418 3.146-2.696 1.416-1.138-1.49-1.715-4.066-2.549-.54-.3 1.243-2.19 3.049-3.306 3.049-1.393 0-1.043-3.667-4.102-3.109-1.573.335-1.464 3.345-1.23 4.457.387 1.546 4.982.436 4.754 1.446-.786 3.512-5.66 6.85-9.791 8.914z" stroke="#000" stroke-width=".995002"/><path d="m266.736 103.001c-.129.388.387 1.442.922 1.52.525.039.793-1.138.624-1.52-.125-.281-1.454-.275-1.546 0zm2.788 4.088c-.337-.363-1.33.611-.527 1.3.451.365 2.103.895 2.555.124.612-.992-.603-4.594-.065-5.07.42-.372 2.367 2.406 3.328 2.606 2.258.313 1.716-3.866 4.149-3.582 1.658.221 1.84-1.851 1.609-3.145-.185-1.241-2.195-3.033-3.119-3.835-1.216-1.012-1.758.747-.995 1.326.982.787 2.709 2.375 2.984 3.426.13.496-1.2 1.482-1.69 1.215-1.131-.617-2.183-3.263-3.172-3.867-.337-.206-1.166.259-.767 1.085.449.884 2.432 2.254 2.548 3.198.105.861-.884 2.723-1.533 2.723-.714 0-2.534-2.25-3.102-3.309-.284-.507-1.268-.458-1.371.242-.163 1.051.152 3.275.403 4.653.199 1.305-.735 1.371-1.235.91zm-3.413-7.174c-.284.321.663.949.851.786.365-.316 1.782-1.931 1.509-2.496-.243-.503-2.192-1.606-2.509-1.06-.588.945 1.837 1.368 1.457 1.645-.187.107-.854.568-1.308 1.125zm3.497-7.08s.609 2.084 1.105 1.216c.401-.602-1.105-1.216-1.105-1.216zm.995 3.315c-.223.122-.851.62-.442.884.647.383 2.407.686 2.027-.566-.231-.737 2.654.02 1.951-1.975-.184-.552-1.054-1.35-1.482-1.462-.272-.072-1.196.435-.618.714.422.219 1.695.967 1.222 1.457-.537.512-.911-.23-1.579-.11-.336.063-.117 1.02-.306 1.28-.106.144-.591-.32-.773-.222zm4.582-7.923c-.364.182-1.016 1.169-1.04 1.625-.013.244.254.578.462.474.382-.19.972-1.124.994-1.553.014-.271-.19-.659-.416-.546zm2.379-.253c-.703-.86.746-2.136 1.398-.416.394 1.08 4.594 6.607 5.453 8.482.608 1.269-.022 1.793-.774.884-2.127-2.714-3.872-6.097-6.077-8.95zm4.309.11c.749-.811 2.278-2.469 1.866-3.393-.316-.795-1.245-.716-1.404-.532-.909 1.085.646.812.422 1.183-.463.87-.924 1.348-1.163 2.183-.056.196.144.705.279.56z" stroke="#000" stroke-linejoin="round" stroke-width=".658" transform="matrix(1.51377 0 0 1.51377 29.445 14.777)"/><path d="m433.223 170.697c-.196.587.585 2.183 1.395 2.3.795.06 1.2-1.722.945-2.3-.19-.425-2.201-.416-2.34 0zm4.22 6.188c-.51-.55-2.013.925-.798 1.968.683.553 3.184 1.355 3.868.188.926-1.502-.913-6.954-.099-7.675.636-.563 3.584 3.642 5.038 3.945 3.418.474 2.598-5.852 6.281-5.422 2.51.334 2.785-2.802 2.436-4.76-.28-1.88-3.323-4.593-4.722-5.806-1.84-1.532-2.661 1.13-1.506 2.007 1.486 1.19 4.1 3.595 4.517 5.186.197.75-1.816 2.243-2.558 1.84-1.712-.935-3.305-4.94-4.802-5.855-.51-.312-1.765.393-1.161 1.642.68 1.34 3.682 3.413 3.857 4.842.16 1.303-1.338 4.122-2.32 4.122-1.081 0-3.836-3.406-4.696-5.01-.43-.767-1.92-.692-2.076.367-.246 1.591.23 4.958.61 7.044.302 1.975-1.112 2.075-1.87 1.377zm-5.167-10.86c-.43.486 1.004 1.437 1.289 1.19.552-.478 2.697-2.923 2.284-3.778-.368-.762-3.318-2.431-3.798-1.605-.89 1.43 2.78 2.071 2.205 2.49-.283.163-1.292.86-1.98 1.703zm5.294-10.716s.922 3.154 1.673 1.84c.607-.911-1.673-1.84-1.673-1.84zm1.506 5.018c-.337.184-1.288.937-.669 1.338.98.58 3.644 1.038 3.069-.857-.35-1.116 4.017.031 2.953-2.99-.279-.837-1.596-2.043-2.243-2.214-.412-.108-1.81.659-.936 1.082.639.33 2.566 1.463 1.85 2.204-.813.776-1.38-.348-2.39-.167-.509.097-.177 1.544-.464 1.938-.16.22-.894-.484-1.17-.334zm6.936-11.994c-.55.275-1.538 1.769-1.574 2.46-.02.368.385.875.7.718.578-.29 1.47-1.703 1.504-2.352.021-.41-.287-.997-.63-.826zm3.602-.383c-1.064-1.302 1.129-3.233 2.116-.63.596 1.634 6.954 10.001 8.255 12.84.92 1.92-.034 2.714-1.172 1.338-3.22-4.109-5.861-9.23-9.2-13.549zm6.523.166c1.133-1.228 3.448-3.737 2.824-5.136-.478-1.203-1.884-1.084-2.125-.806-1.376 1.643.978 1.23.639 1.791-.701 1.316-1.399 2.04-1.76 3.305-.086.296.217 1.068.422.846z"/><path d="m538.245 165.149c-.277-1-1.827-2.477-1.653.196.309 4.85 6.974 3.317 8.992 1.593 1.832-1.623.242 5.477 2.676 6.237 1.341.43 3.866-1.4 5.108-3.01 3.442-4.467 5.632-10.87 8.943-15.28 1.25-1.725-.684-2.956-1.467-1.584-2.879 4.828-6.454 14.68-10.36 17.239-3.183 2.037-2.24-2.624-2.35-4.024-.14-1.027-1.392-2.539-3.062-1.151-1.167.912-2.98 1.654-4.623 1.505-.952-.053-1.756-.036-2.204-1.721zm-64.545-11.513c.682-.488 1.772 1.642 1.003 2.174-.64.427-1.89-1.583-1.004-2.174z"/><path d="m554.7 152.228c-.815-.66.8-3.857 1.894-2.602 3 3.472 4.394 14.745 5.261 23.181 0 0-1.348 1.125-1.359.946 0-4.494-1.806-18.243-5.796-21.525z" stroke="#000" stroke-width=".995002"/><path d="m475.53 149.316c-.346.167-1.031-.07-.827-.363.966-1.38 3.024-3.457 4.517-4.182.459-.223 1.261.587.984.983-.893 1.276-3.067 2.782-4.675 3.562zm79.17 2.912c-.815-.66.8-3.857 1.894-2.602 3 3.472 4.394 14.745 5.261 23.181 0 0-1.348 1.125-1.359.946 0-4.494-1.806-18.243-5.796-21.525z"/><path d="m556.533 171.922c.542-1.51 7.748-13.603 8.694-16.264.484-1.283 2.552 2.2.532 4.08-1.774 1.597-7.008 10.18-7.985 13.189-.45 1.358-1.813.711-1.241-1.005z" stroke="#000" stroke-width=".995002"/><path d="m502.38 139.084c.208-1.244-2.013.026-2.053-1.624-.022-.873 2.426-1.485 3.45-.481 1.728 1.754.435 4.712-2.44 4.898-2.395.106-6.393 3.402-5.785 4.095.692.856 6.906 1.421 10.52.855 2.237-.314 1.767 1.687-.524 1.958-2.215.256-4.02.019-6.089.67-2.435.695-3.498 3.965-4.851 5.185-.302.212-1.115-1.072-.806-1.555.975-1.524 2.53-3.858 4.24-4.526 1.08-.437-2.976-.575-4.27-.945-1.026-.309-.728-1.613-.335-2.341.523-1.135 4.345-4.962 5.886-4.9 1.447.061 2.914-.36 3.058-1.289zm-19.353 8.451c-1.67-1.3.45-3.122 2.195-1.85 3.4 2.565-5.072 12.39-9.682 16.983-.843.9-1.583-1.366-.502-2.341 3.304-2.803 6.398-6.153 8.55-9.612.414-.666.81-2.102-.56-3.18z"/><path d="m487.416 141.258c-.97-2.23 1.456-3.056 1.82-1.466 1.686 7.328 5.723 12.876 8.796 17.858.925 1.558.183 2.486-2.067 1.053-1.557-1.068-3.14-4.963-3.905-5.116-1.387-.258-4.705 6.326-11.493 4.447-1.756-.49-1.64-5.712-1.672-8.019-.075-1.08 1.12-1.367 1.16.109.063 2.126-.003 6.543 2.718 6.692 2.218.124 7.13-3.012 8.165-5.462.922-2.52-2.473-7.53-3.522-10.096z" stroke="#000" stroke-width=".995002"/><path d="m468.795 140.726c.514.025 1.925 1.853 1.833 2.425-.064.27-1.51-.04-1.951-.414-.327-.277-.196-2.025.118-2.01zm-6.803 13.245c-1.29.703.204 2.092 1.17 1.505 3.625-2.348 9.066-4.813 10.203-9.463.365-1.575 1.828-3.99 3.218-4.528 1.343-.52 3.293 2.43 4.566.108.746-1.327 3.362.87 3.993-.55.769-1.714.403-2.658.434-4.3-.056-1.077-.878-1.398-1.474.344-.31.789.054 1.585-.198 1.997-.193.313-.792.616-1.14.355-.321-.24-.099-.913-.868-1.21-.298-.15-.776-.274-.984.108-.912 1.628-1.418 3.146-2.696 1.416-1.138-1.49-1.715-4.066-2.549-.54-.3 1.243-2.19 3.049-3.306 3.049-1.393 0-1.043-3.667-4.102-3.109-1.573.335-1.464 3.345-1.23 4.457.387 1.546 4.982.436 4.754 1.446-.786 3.512-5.66 6.85-9.791 8.914zm25.424-12.713c-.97-2.23 1.456-3.056 1.82-1.466 1.686 7.328 5.723 12.876 8.796 17.858.925 1.558.183 2.486-2.067 1.053-1.557-1.068-3.14-4.963-3.905-5.116-1.387-.258-4.705 6.326-11.493 4.447-1.756-.49-1.64-5.712-1.672-8.019-.075-1.08 1.12-1.367 1.16.109.063 2.126-.003 6.543 2.718 6.692 2.218.124 7.13-3.012 8.165-5.462.922-2.52-2.473-7.53-3.522-10.096zm4.074-4.604c.382-.799 2.682-1.703 3.267-2.243.542-.555.801.47.57.953-.383.799-2.368 2.148-3.238 2.184-.468.02-.831-.41-.6-.894zm5.46.256c.497-1.404 2.104-3.53 3.209-4.231.567-.36 1.586-.077 1.395.461-.422 1.19-2.387 3.271-3.708 4.251-.402.357-1.012-.156-.897-.481zm-4.684 3.512c-.333.167-.153.876.168.983.683.228 1.925.272 2.488-.038.818-.504.445-3.604-.649-1.948-.734 1.021-1.27.693-2.007 1.003zm16.559-1.003c.719-.635 1.087-1.696 1.84-2.342.414-.414 1.074.082.963 1.081-.092.787-1.149 1.465-1.858 2.056-.579.433-1.25-.502-.945-.795zm8.197-2.923c1.07-.118 1.337 1.948.167 2.282-.71.237-1.331-2.16-.167-2.282zm-2.705 6.386c-.017 1.779.861 1.615 2.537 1.554 1.626-.06 3.056.042 3.05-1.564-.008-1.665-.922-3.122-1.19-1.989-.236 1.065-.423 2.808-1.043 2.048-.584-.652-.352-.796-1.357.275-.558.59-.621-.286-.956-.836-.233-.326-1.04.263-1.041.512zm-11.68 9.081c-.4 2.354-.034 5.65 1.171 5.687 1.49.049 4.572-5.146 6.031-7.84.875-1.505 2.378-1.767 1.752-.198-.95 2.42-.865 7.6-.03 9.121.447.82 3.755-.751 4.29-1.919.971-2.122.18-6.034.522-8.422.165-1.569 1.6-1.896 1.524-.443-.142 2.6-.39 7.369-.206 9.534.109 1.245 3.668 3.082 4.24-.688.301-2.372 1.523-4.712-.059-7.34-.98-1.644 1.44-1.438 2.745.807.912 1.528-.77 4.057-.71 6.011.151 3.007-2.188 4.716-3.885 4.751-1.517.031-2.505-1.832-3.748-1.858-1.379-.088-2.796 2.145-3.936 2.066-4.417-.302-2.078-6.758-3.424-6.837-1.497-.089-3.262 6.328-5.106 6.099-1.818-.218-3.7-5.23-2.943-7.35.685-1.972 1.974-2.435 1.772-1.18z"/><path d="m524.028 141.78c-2.156-1.314.136-4.734 1.19-3.532 2.034 2.436 4.085 8.22 5.519 8.697.908.303.866-4.274 1.506-6.356.413-1.537 2.272-1.035 1.916.935-.12.657-2.428 8.137-2.25 8.432 1.598 3.196 3.18 6.439 4.18 9.869.414 1.478-1.362.483-1.574.176-1.134-1.695-3.118-8.176-3.118-7.88-.913 4.559-1.128 5.904-2.097 9.779-.295 1.241-2.122 1.015-1.71-1.171.396-1.797 3.009-10.635 2.862-10.891-2.054-3.626-3.933-6.494-6.424-8.058z"/><path d="m527.914 162.815c-.601-.068-1.534 1.337 1.459 1.89 4 .723 8.377-.624 9.718-4.546 1.537-4.671 2.553-9.093 3.355-10.762 1.002-1.945 2.284-1.788 1.338-4.626-.668-2.043-1.913-1.427-2.175-.335-.7 2.978-3.353 12.611-4.181 14.385-1.563 3.237-4.711 4.518-9.514 3.994z"/><path d="m535.923 147.447c-.428-.919-1.428-.207-1.249.798.106.908.843 1.402 1.584 1.377.876-.03 2.73.029 2.735-1.426.003-1.023-.8-1.877-1.397-.749-.571 1.022-1.305.915-1.673 0zm1.004-3.847c-.308.213-.032 1.35.334 1.338 1.307-.043 3.158-.46 4.15-1.15.29-.202.169-.89-.244-.876-1.26.042-3.264.009-4.24.688zm11.097 2.864c.946-1.478 3.556-1.629 2.617.481-.664 1.455-7.161 14.008-8.048 15.605-.968 1.795-1.76.906-1.072-.492.925-1.799 6.206-15.157 6.503-15.594zm2.116 9.681c.035-.274-1.409-.398-1.338 1.004.05 1.037 1.291 1.319 1.505 1.17 1.953-1.42-.415-.711-.167-2.174z"/><path d="m556.533 171.922c.542-1.51 7.748-13.603 8.694-16.264.484-1.283 2.552 2.2.532 4.08-1.774 1.597-7.008 10.18-7.985 13.189-.45 1.358-1.813.711-1.241-1.005z" stroke="#000" stroke-width=".995002"/><path d="m547.296 161.832c-.385.09-.737 1.317.168 1.387.828.06 4.072-.289 4.968-.236.58-.022.801-1.13-.442-1.072-1.508.076-3.49-.302-4.694-.079zm9.237 10.09c.542-1.51 7.748-13.603 8.694-16.264.484-1.283 2.552 2.2.532 4.08-1.774 1.597-7.008 10.18-7.985 13.189-.45 1.358-1.813.711-1.241-1.005z"/><path d="m568.775 160.389c1.33-4.986 4.553.769 1.715 3.607-4.382 4.293-5.702 12.487-12.655 13.72-1.874.403-5.173-.843-6.15-1.538-.382-.27.246-2.05 1.418-1.182 1.694 1.323 5.192 1.621 7.039.118 3.95-3.878 7.168-9.014 8.633-14.725z" stroke="#000" stroke-width=".995002"/><path d="m568.775 160.389c1.33-4.986 4.553.769 1.715 3.607-4.382 4.293-5.702 12.487-12.655 13.72-1.874.403-5.173-.843-6.15-1.538-.382-.27.246-2.05 1.418-1.182 1.694 1.323 5.192 1.621 7.039.118 3.95-3.878 7.168-9.014 8.633-14.725zm-66.521 14.774c-1.469.296-1.219 2.184-.788 2.419.712.331 1.812.47 2.224-1.7.192-.892.367 4.432 2.32 2.38 1.126-1.242 3.912.226 5.08-1.337.835-1.042 1.092-1.768.442-3.306-.19-.468-1.334-.238-1.269.897.058.957-.678 2.138-1.635 1.936-.465-.084.262-2.34-.204-2.951-.258-.337-.648-.3-.904.048-.359.487.36 2.65-.819 2.934-1.488.343-.708-1.446-1.338-1.773-2.025-1.022-2.22.265-3.11.453zm11.465-3.63c1.076-.303.74-.305 2.434-1.691.66-.5.79.962.72 1.54-.122.983-1.29.29-1.65 1.154-.53 1.123-.316 3.736-.493 4.8-.121.547-.997.5-1.08.069-.252-1.298.176-2.568.135-4.19-.013-.552-.802-1.416-.066-1.682zm-5.059-5.855c-.26 1.174-.24 2.141-.24 2.947.058.65 1.248.231 1.244.148-.06-1.03.175-2.457-.13-2.854-.164-.215-.814-.463-.874-.241zm-13.097 3.337c-1.835 1.605-3.536 2.26-5.224 4.289-.69.83-.67 1.989-1.083 3.048-.413 1.125-1.742 1.346-2.154 1.112-.688-.453-.589-2.539-1.358-1.416-.652 1.034-1.073 2.459-2.037 2.44-.872-.018-2.518-1.801-1.683-1.887 2.853-.292 2.818-2.577 3.887-2.727 1.199-.16 1.278 1.887 2.018 1.476.581-.298.855-2.682 1.486-3.325 1.935-1.977 3.465-3.022 5.44-4.475.998-.796 1.711.64.708 1.465z"/><path d="m496.538 171.463c-.314.36-1.272.301-1.358.807-.377 1.875 0 2.826-.413 4.632-.396 1.729-1.596 1.794-1.514.384.109-1.827 1.615-4.406.55-4.583-.708-.167-1.254-1.114-.521-1.582 1.383-.96 2.126-.813 3.077-.524.332.102.416.589.179.866z"/><path d="m302.179 200.081c.419.931 1.031.89.939-.001-.178-1.141-.523-2.718-.718-4.088-.111-1.16-1.31-.936-.994.276.4 1.308.316 2.743.773 3.813zm3.59.054c-.005.472.726.429.719.056-.076-1.187-.166-2.791.165-3.37.258-.452 1.299-.133 2.265-.221.385-.057.305-1.116-.497-1.049-.946.085-3.44-.222-3.591.662-.217 1.59.983-.095.939 3.922zm7.237-4.584c.605.436.521 1.003-.221.828-.884-.221-1.48-.15-1.468.335.013.477.386.57.929 1.099.52.545-.319.456-.962 1.572-.548.924.57 1.046 1.888.696.336-.096.777.482-.055.957-.586.313-2.219.696-2.625-.489-.771-2.05 1.291-2.334.422-2.88-.474-.286-.645-.717-.559-1.289.184-1.32 2.15-1.145 2.651-.829zm2.728 4.52c.795-1.451 1.343-2.538 1.565-3.77.193-1.112.992-1.219 1.16-.276.216 1.252.933 2.493 1.803 3.63.51.705-.516 1.326-.919.777-.739-.938-.77-2.245-1.206-2.236-.503.01-1.074 1.457-1.611 2.525-.156.31-1.109-.001-.792-.65z" stroke="#000" stroke-width=".658" transform="matrix(1.51377 0 0 1.51377 29.445 14.777)"/><path d="m486.875 317.654c.634 1.41 1.56 1.347 1.422-.002-.27-1.727-.792-4.114-1.087-6.188-.168-1.756-1.983-1.417-1.505.418.606 1.98.478 4.152 1.17 5.772zm5.435.082c-.008.714 1.099.65 1.088.084-.115-1.796-.251-4.224.25-5.1.39-.685 1.966-.202 3.429-.335.582-.087.461-1.69-.753-1.588-1.432.128-5.207-.336-5.436 1.002-.328 2.407 1.488-.144 1.422 5.937zm10.955-6.939c.916.66.789 1.518-.335 1.253-1.338-.335-2.24-.227-2.222.507.02.722.584.863 1.406 1.664.788.825-.483.69-1.456 2.38-.83 1.398.863 1.583 2.858 1.053.509-.145 1.176.73-.083 1.449-.887.473-3.36 1.053-3.974-.74-1.167-3.104 1.954-3.534.639-4.36-.718-.433-.976-1.086-.846-1.952.278-1.998 3.254-1.733 4.013-1.254zm4.129 6.842c1.204-2.197 2.033-3.842 2.37-5.707.292-1.683 1.501-1.845 1.755-.418.327 1.895 1.413 3.774 2.73 5.495.772 1.067-.781 2.007-1.391 1.176-1.12-1.42-1.166-3.398-1.826-3.385-.761.016-1.626 2.206-2.439 3.823-.236.469-1.678-.002-1.199-.984z"/><path d="m611.492 253.664c-.085.45 1.13 1.114 1.42.769 1.308-1.567 3.02-4.643 3.371-6.505.103-.542-1.64-1.155-2.012-.71-1.224 1.467-2.411 4.49-2.779 6.446z"/></g><g stroke-width="1.333"><path d="m460.965 340.536c-1.385-.836-2.01.25-1.03 1.385 1.273 1.306 3.33 2.092 5.47 2.65 1.248.325 3.826-.085 5.15.06 1.029.12 1.61 2.063 3.475 1.986 1.881-.075 3.088-4.756 3.153-7.105.085-1.556-2.214-.562-1.995.062.603 1.547-.5 5-1.674 4.997-.863-.05-1.789-1.724-3.088-1.927-1.017-.157-2.559.111-3.605.12-3.059.028-4.376-1.4-5.856-2.228z"/><path d="m463.538 339.272c1.633.763 3.06-.603 3.992.362 2.382 2.53 5.446-1.211 1.866-1.083-1.448.052-1.674-1.025-4.184-.785-1.336.16-2.454 1.08-1.674 1.506zm.388 11.078c-1.29-.527-1.723.62-.966 1.325 1.064.91 5.484 1.272 6.565.543 1.787-1.268.48-4.6-.322-5.54-.5-.572-2.01-.616-1.416.904.245.704 1.342 2.457.45 3.25-.818.731-3.078-.001-4.311-.482zm9.911 1.025c.283-.68-.48-1.851-1.804-.482-1.092 1.078-.206 5.627 3.283 6.442 3.41.783 5.965-.364 6.435-2.107.324-1.16-1.544-2.169-.579-3.192.806-.8 2.36.01 3.025-1.264.388-.713.42-2.176-1.674-3.131-.908-.427-2.479.547-2.446 1.265.05.988 1.685.344 1.094 1.204-.432.655-2.364.382-2.959 1.926-.356.982 2.188 2.794.837 3.252-1.206.39-2.777.643-4.377-.18-.988-.49-1.408-2.519-.835-3.733zm-12.293-6.262c-.81.111-1.93.663-1.994 1.566-.049.724.589 1.979 1.674 1.142 1.12-.814.26-1.2.514-.903.558.522-.26.565-1.287 1.868-.714.988-2.241.829-3.024.48-1.35-.651-.845-1.069-2.318-1.686-1.47-.676-2.362.911-.965 1.626 1.544.828 4.072 2.482 6.564 1.266 1.481-.783 3.218-1.497 3.153-3.252-.084-1.14-.626-2.329-2.317-2.107zm80.053-.603c-1.138-.76-.441-2.142 1.224-1.626 1.417.49 3.769 2.052 3.924 4.095.176 2.235-3.674 3.87-5.146 3.795-2.522-.191-2.072-2.062-.195-1.928 1.457.098 3.246-.387 3.348-1.806.085-1.232-2.335-1.949-3.155-2.53zm-8.3-5.479c-1.471-1.388 1.607-2.89 2.508-1.203 1.188 2.144 2.601 4.253 3.669 6.622.85 1.944-.265 2.207-.965 1.144-1.172-1.85-2.946-4.325-5.212-6.563zm-7.207 4.156c1.583-.645 1.543 1.203.965 1.565-1.046.544-2.446-.903-.965-1.565zm4.697-1.627c1.584-.643 1.544 1.205.966 1.567-1.046.544-2.446-.903-.966-1.566z"/><path d="m481.686 344.15c-2.375-1.42.483-3.537 2.124-1.927 2.35 2.246 4.597 7.167 6.371 9.032 1.687 1.832.328-4.97.837-6.985.348-1.12 1.283-.963 1.287.12.008 2.771-.448 8.409.32 8.851 1.44.766 1.18 2.016 2.381 1.807 1.288-.287 1.095-.603 2.254-.663 1.148 0 1.187 1.077 2.51.903.843-.103 1.097-.997 2.122-1.025.934-.074.532 1.856-.063 2.169-.97.51-3.991-.555-4.89-.481-1.071.026-2.999.955-4.185.54-1.448-.483-1.126-2.2-2.123-1.926-1.128.244-.916 2.166-3.603 2.77-1.258.268-1.681-.79-1.03-1.506 1.169-1.168 3.521-2.1 3.154-3.19-1.09-3.036-4.379-6.694-7.466-8.49zm20.657.42c1.142 3.514 1.086 8.187 1.738 11.38.321 1.257 1.606.138 1.48-.842-.505-3.43-.727-7.638-1.673-10.898-.392-1.128-1.982-.91-1.545.36zm3.153.905c-.302-1.465 1.197-1.603 1.416-.724.773 2.828.674 9.3 2.188 9.514 2.613.279 6.276-.227 9.524-.843 1.598-.298 1.926-1.38 1.867-1.808-.307-1.739 1.428-1.601 1.866.242.236.962-.23 2.686-2.187 3.07-3.824.69-9.087 1.755-12.1 1.143-2.638-.522-1.779-6.896-2.574-10.594z"/><path d="m509.744 348.003c.066-1.854 1.553-2.127 1.544-.543.04 3.793 4.787 2.808 5.793 1.386.743-1.11.2-1.588-.516-2.83-.89-1.607.994-2.06 1.803-.663.604 1 1.024 4.19-.065 4.999-1.507 1.117-5.58 1.666-7.337.42-.932-.6-1.294-1.754-1.222-2.77zm-2.059-4.938c.21 1.188 3.667.783 3.538-.12-.118-.777-3.73-.603-3.538.12zm4.505.963c.134 1.198 2.371.845 2.251-.06-.119-.957-2.38-1.145-2.252.06zm6.756-1.444c-1.135-1.467 1.074-1.56 1.802-.481 1.884 2.636 3.126 6.885 4.955 9.753.777 1.322 1.75.14 1.866-.18.122-.341-.591-.864-.642-2.047-.09-.92 1.92-2.064 3.345-1.204 1.333.84.242 1.584.901 2.047.628.44 2.213.163 2.446-.12.704-1.035-.255-.429-1.223-1.025-1.12-.75-.448-4.003 1.866-2.65 1.377.746 1.782 3.13 1.286 4.456-.438 1.228-2.742 1.646-3.99 1.386-1.404-.401-2.54-1.982-2.251-1.566.695 1.068-.171 2.122-.837 2.529-1.642.965-2.79 1.47-3.99-.12-2.124-2.978-3.294-8-5.534-10.778z"/></g></g></svg>