<?xml version="1.0" encoding="UTF-8"?>
<svg width="900" height="500" version="1.1" xmlns="http://www.w3.org/2000/svg">
 <path d="m0 0h900v500h-900z" fill="#da2d1c" fill-rule="evenodd"/>
 <path d="m0 0h400v250h-400z" fill="#2042a1" fill-rule="evenodd"/>
 <g fill="#fff" fill-rule="evenodd">
  <path d="m184.16 65.082c1.6943 10.313 6.4089 9.2818 6.4089 9.2818-0.73666-0.0737-2.0627-2.7256-2.0627-2.7256l2.9465 1.8418-1.7679-2.9467 3.3148 1.989c-0.442-4.0516-8.8398-7.4402-8.8398-7.4402zm9.5361 3.0528c-1.6649 7.4793 3.2628 10.183 3.2628 10.183l-1.1592-3.5505 1.6086 1.7548-0.51182-3.3635 1.9742 3.1441c-0.3656-5.1915-5.1747-8.1684-5.1747-8.1684zm-4.443 6.9402c2.4326 9.0762 6.7217 9.0847 6.7217 9.0847l-2.2148-2.8793 2.6577 1.5504-1.9932-2.7315 3.765 1.8456c-1.4027-5.1678-8.9363-6.8699-8.9363-6.8699zm12.799 0.27497c-3.9983 6.7768-1.2198 10.639-1.2198 10.639l0.62413-4.1374 1.4089 4.6117 0.33885-4.3371 1.2876 4.6082c2.3719-6.5734-2.4396-11.385-2.4396-11.385zm11.196 5.9263s-2.383 5.6233 2.4715 10.041l-0.54536-2.7818 1.3364 1.3909 0.13638-2.0456 1.1182 1.691c-0.9818-7.5818-4.517-8.2959-4.517-8.2959zm-5.0289 3.629s-5.1503 2.7107-3.9305 11.249l1.8297-4.2016 0.13553 3.6594 1.6942-4.4727 0.54213 3.7272c1.4909-6.0313-0.27107-9.9618-0.27107-9.9618zm-12.771 0.75695c-0.30383 3e-3 -0.48403 0.0381-0.48403 0.0381-1.1922 4.3867 3.5641 8.3535 3.5641 8.3535l-0.67767-3.1173 2.4396 3.2528-0.74544-3.3206 2.2363 2.033c-1.3765-6.6624-5.0163-7.2525-6.3329-7.2396zm24.169 3.5192c-3.8487 8.624 0.99771 12.401 0.99771 12.401l-0.42762-4.3476 1.7818 3.2073-0.0712-3.5635 1.3542 3.0646c1.3542-7.6262-3.6349-10.762-3.6349-10.762zm-7.1791 1.4087c-1.4876 7.2882 2.6431 9.5813 2.6431 9.5813l-0.69326-3.5434 1.6176 2.542-0.38525-3.5434 1.5407 1.5407c0.46217-4.1596-4.7229-6.5772-4.7229-6.5772zm11.903 11.388s2.8291 5.9129-1.6592 10.513l0.12156-3.3131-1.2709 1.6506 0.12112-3.0042-1.4468 2.1428c0.0654-4.8989 4.1342-7.9894 4.1342-7.9894zm-32.616 76.452c0.0412 0.61188 0.15633 1.7255 0.25567 2.4747 0.0994 0.74868 0.14704 1.4176 0.10588 1.486-0.0412 0.0679 0.0401 0.33547 0.17986 0.59447 0.14032 0.25849 0.28223 0.8612 0.3157 1.3385 0.0335 0.47787 0.13463 1.0394 0.22581 1.2486 0.19678 0.45347 0.55453 2.6328 0.53862 3.2818-0.0162 0.6362 0.27585 2.809 0.27585 2.809h2.1661l0.0723-1.3164c0.1818-2.7133-0.62073-11.19-1.295-13.677-0.0796-0.29357-0.30515-1.2199-0.50158-2.0584-0.3885-1.6602-0.95502-3.5203-1.972-6.4746-0.72895-2.1182-0.98846-2.9746-1.9294-6.3804-1.8072-6.5362-1.4946-6.0804-5.4558-7.9587m-12.644-65.631c-4.1321 1.7278-6.5258 3.608-9.1557 7.1914-1.0878 1.4826-2.7486 3.5643-3.6903 4.6265-2.0009 2.6596-3.6587 5.7903-2.0373 4.4042 0.31402-0.26839 1.2127-1.2738 2.246-1.9029 1.0338-0.62907 2.8228-1.7912 3.9766-2.5827 1.1538-0.79153 2.8547-1.959 3.7792-2.5941 0.92508-0.63508 2.2136-1.5016 2.8645-1.9255 1.3124-0.85562 1.3635-0.97776 0.76241-1.826l-0.41863-0.59088 0.34514-0.28518c0.46818-0.3875 0.53533-0.37168 1.126 0.26098 0.28302 0.30275 0.9956 1.0325 1.5835 1.6214 0.58846 0.58884 1.4671 1.5466 1.953 2.1283 0.48593 0.58171 1.2173 1.3974 1.625 1.812 0.68584 0.69753 2.9789 3.831 3.3205 4.5373 0.22847 0.47288 0.53541 0.9609 0.78895 1.2534 0.30226 0.34936 1.4004 2.1004 1.4024 2.2366 1e-3 0.0586 0.13507 0.28712 0.29797 0.50804 0.45242 0.61282 2.3335 4.0743 3.1062 5.7155 0.77852 1.6529 1.3259 3.0649 1.7701 4.5642 0.14915 0.50315 0.3757 1.2224 0.50287 1.5994 0.21444 0.63323 1.0742 4.4217 1.0742 4.4217s3.0493-5.5429 2.581-7.1546c-0.15173-0.50259-0.40713-1.4284-0.56745-2.0574-1.0648-4.175-4.2844-12.758-5.3086-14.151-0.15346-0.20882-0.63732-1.0971-1.0757-1.9743-3.286-6.5793-3.2379-6.4943-4.2344-7.4146-2.0702-1.9103-6.7176-3.2168-8.6176-2.4217m65.384 8.62c-0.56509 0.20791-2.0724 1.7891-2.7146 2.8473-1.2768 2.1255-2.1996 3.2697-3.4262 5.8577l-0.87015 1.8496-0.0331 3.9029-0.0336 3.9029 0.37055-0.44467c0.20424-0.2443 0.67389-1.0434 1.0447-1.7752 1.3253-2.6193 1.5681-3.0713 2.0094-3.7409 0.24603-0.37293 0.4928-0.80095 0.54816-0.9507 0.0554-0.14974 0.3686-0.67617 0.69618-1.1702 0.3276-0.49349 0.73755-1.157 0.91083-1.4743 0.1738-0.31676 0.42314-0.74482 0.55487-0.95029 0.23531-0.36767-0.10241-0.67979-0.72506-0.67041-0.29125 4e-3 -0.31831-0.3216-0.0635-0.76402 0.31747-0.55097 0.74493-0.60178 1.475-0.17571 0.28041 0.16355 0.59072 0.29658 0.6885 0.29562 7.1512 0.36557 12.503 13.238 12.503 13.238-1.3604-6.1201-3.5448-15.522-10.855-19.823-1.2484-0.18469-1.4675-0.18036-2.0797 0.0451m-70.226 25.586c-1.8102 0.64178-2.4964 1.1825-4.746 3.7438-3.6764 4.1862-4.6812 5.7435-6.9706 10.809-0.53288 1.179-0.8122 2.1077-0.94916 3.1588-0.0498 0.37966-0.0933 1.1167-0.13776 1.3071-0.1862 0.79021 0.64943-0.31721 0.96999-1.1054 2.9141-4.9529 6.4677-9.7213 11.866-12.677 0.2952-0.15184 0.74266-0.41152 0.99543-0.5775 1.5604-1.0271 4.8258-2.311 4.9543-1.9483 0.0382 0.10907 0.21602 0.32977 0.39498 0.48976 0.17844 0.16 0.29557 0.3148 0.25945 0.3439-0.0356 0.0286-0.60389 0.3977-1.2625 0.82019-0.6591 0.42198-1.23 0.82072-1.2697 0.88609-0.0673 0.11168 1.1956 2.8175 1.5448 3.31 0.18618 0.26239 1.1679 2.2457 1.9926 4.0254 0.15484 0.33425 0.44848 0.86225 0.65237 1.1733 0.20389 0.31057 0.37142 0.63341 0.37269 0.71703 1e-3 0.0836 0.52554 0.92076 1.1656 1.8602 0.63956 0.93944 1.2783 1.9238 1.4192 2.1868 0.14142 0.26357 0.35143 0.57048 0.46686 0.68196s0.34739 0.40633 0.51534 0.65522c0.27273 0.40387 2.0058 2.791 3.1792 4.3793 0.24066 0.32583 0.5809 0.83782 0.75528 1.1371 0.31758 0.54549 0.59603 0.88503 1.3487 1.6443 0.22162 0.22412 0.48483 0.54349 0.58515 0.71026 0.12989 0.21683 0.18323 0.23796 0.18743 0.0737 3e-3 -0.12602 0.14198-1.1955 0.30939-2.3766 0.23485-1.6574 0.29511-2.8445 0.26451-5.2068l-0.0396-3.0603-1.2619-2.7777c-0.706-1.554-1.8512-3.7276-2.5992-4.9342-0.73543-1.1864-1.6303-2.6345-1.9876-3.2181-1.7874-2.9172-3.9297-5.2742-5.5162-6.0684-1.408-0.7045-5.668-0.79795-7.4594-0.16307m70.314 2.2414c-3.4621 1.8503-10.34 8.3113-14.889 13.987-0.64862 0.80942-1.8635 2.223-2.6999 3.1413-1.9978 2.1939-1.9958 2.1908-2.2826 3.4375-0.53078 2.3044-0.70009 2.8165-1.4269 4.3064-0.41333 0.84819-0.81455 1.6462-0.89086 1.7734l-2.0991 4.7856c-0.12884 0.29373-0.21499 1.6086-0.21499 1.6086-0.27191 1.248-0.1635 1.4406 0.25757 0.45715 0.172-0.4019 0.66545-1.16 1.096-1.6852 0.43107-0.52565 0.98498-1.2337 1.232-1.574 0.24653-0.3403 0.54294-0.71806 0.65847-0.83914 0.22951-0.24059 4.6072-6.0081 5.4142-7.1335 1.7778-2.4788 11.996-13.096 14.854-15.433 0.81803-0.66917 1.4866-1.2468 1.4861-1.283-1e-3 -0.0367-0.18061-0.47258-0.40069-0.96905-0.49935-1.1282-0.49871-1.1542 0.0347-1.3474 0.5339-0.19367 0.63468-0.13144 1.036 0.64228 0.17337 0.33398 0.3983 0.70951 0.49953 0.83446 0.10174 0.12443 0.58612 1.0127 1.0768 1.9732 0.49012 0.96055 0.99407 1.9168 1.1192 2.1256 0.86276 1.4374 1.4997 2.8155 1.7911 3.8754 0.0463 0.16759 0.22053 0.59437 0.38699 0.94886 0.16698 0.35395 0.30457 0.73947 0.30634 0.85673 2e-3 0.11676 0.11994 0.47707 0.26277 0.80079 0.14232 0.32374 0.28687 0.79483 0.32055 1.0468 0.15019 1.1161 0.6539 2.6686 0.8654 2.6654 0.20632-3e-3 0.63024-3.0102 0.70277-4.9844 0.1522-4.1597-0.53428-10.035-1.4764-12.635l-0.34697-0.9571-1.6278-0.3952c-2.6372-0.64061-3.888-0.64779-5.0444-0.0296m-28.318 40.774c-1.1537 0.73032-2.9481 1.4647-3.6032 1.4746-0.82178 0.0124-1.0275 1.5862-1.249 9.5713-0.0327 1.1719-0.0895 2.181-0.12663 2.2428-0.0537 0.089-0.18089 4.4064-0.16856 5.7312 4e-3 0.42169-0.23876 1.8747-0.42759 2.5589-0.12537 0.45576-0.10172 0.69306 0.12092 1.2221 0.21033 0.49815 0.25626 0.88096 0.19029 1.5888-0.13804 1.4897-0.0111 1.9015 0.84922 1.8855 1.1608-0.021 1.4051-0.62711 1.3737-2.7023-0.0105-0.69392 0.0386-1.9757 0.10873-2.8484 0.0707-0.87261 0.19252-2.3794 0.2705-3.3485 0.14869-1.8407 0.35154-3.1284 0.85638-5.4457 0.43848-2.0098 1.1166-4.7454 1.5809-6.3746 0.45207-1.5878 0.84394-3.1052 0.95249-3.6872 0.0547-0.2956 0.15089-0.60661 0.21291-0.69167 0.10539-0.14389 0.33473-1.9261 0.24594-1.91-0.0215 4e-3 -0.55597 0.33374-1.1871 0.73338m-7.2279 12.885c-0.20278 0.27283-0.45151 0.63816-0.55183 0.81154-0.22471 0.3879-0.20483 3.9804 0.0278 5.106 0.12436 0.59889 0.11236 0.89484-0.0516 1.2844-0.20519 0.48808-0.21387 0.45762-0.24068-0.871-0.0604-2.9692-0.1629-3.3838-0.94673-3.8234-0.37999-0.21305-0.71166-0.3636-0.73748-0.33465-0.13615 0.15197-0.296 3.3979-0.18898 3.8369 0.0691 0.28301 0.0669 0.67879-5e-3 0.87928-0.078 0.21945-0.0564 0.82906 0.0544 1.523 0.10124 0.63645 0.21119 2.0179 0.24409 3.0695l0.0593 1.908h1.458s0.13493-1.767 0.12836-2.3372c-0.0192-1.2731 0.18271-1.803 0.39158-1.0279 0.0622 0.23162 0.12536 0.83602 0.14075 1.3432 0.0149 0.5072 0.0805 1.0014 0.14581 1.0978-2e-3 0.0969 0.0784 0.78921 0.0285 0.92409h1.3694l-0.17926-5.596c-0.29233-8.6372-0.32965-8.8932-1.1468-7.7936m-5.2312 2.1508c0.0618 11.597 8e-3 11.255 1.1028 11.239 1.0209-0.0154 0.96323 0.12358 0.90197-5.4557-0.069-6.2937-0.1017-6.5201-1.0546-7.3794-0.993-0.89536-0.96389-0.94425-0.95015 1.5963m-0.80931-86.705s-2.1564 6.8046 3.0189 12.986l-0.93179-5.1417 2.3693 4.327-0.43132-4.3127 2.0606 3.7377c0.47919-7.6191-6.0857-11.596-6.0857-11.596zm14.615 2.6834s-7.7629 4.744-6.517 10.686l2.3959-3.9293-0.6709 4.0732 2.1564-3.5939-0.76663 4.5523c4.4565-6.469 3.4023-11.788 3.4023-11.788zm2.923 4.3607s-1.725 5.942 3.1627 9.5359l-0.62294-3.0668 1.4375 1.3416-0.57502-2.7791 1.6771 1.773c-0.81463-4.5523-5.0794-6.8045-5.0794-6.8045zm-18.077 5.0151c-2.4396 11.046 2.6429 14.163 2.6429 14.163l-0.88098-5.1503 2.5074 4.066-0.4066-4.5404 2.7785 4.4726c0.47454-8.1321-6.641-13.011-6.641-13.011zm15.79 1.6264s-5.6247 2.033-6.8445 9.4874l3.2528-3.5917-0.2033 3.7272 2.4396-2.7107v2.9818c3.7272-6.2346 1.3554-9.8941 1.3554-9.8941zm3.3206 2.7107s-2.9818 4.947 0.67767 10.233l-0.13552-3.795 1.6942 3.3884 0.74544-3.0495 1.6942 2.1686c0.94874-4.947-4.676-8.9453-4.676-8.9453zm11.671 4.4871c-7.5956 2.043-6.4401 10.61-6.4401 10.61l2.1989-3.7113 0.21872 3.6366 1.9717-2.8932 0.20331 3.5705c3.3011-3.7586 1.8477-11.213 1.8477-11.213zm-33.017 1.8831c-2.7785 4.2016 1.2198 10.775 1.2198 10.775l0.54214-3.6595 1.3553 2.8462 0.0678-2.7107 1.6942 1.8297c1.0843-4.2694-4.8793-9.0808-4.8793-9.0808zm18.561 1.3147s-1.28 6.8852 0.75308 11.358l0.67766-2.8462 1.4231 2.1686 0.20329-2.6429 1.6942 2.3041c0.33882-3.8627-4.7514-10.341-4.7514-10.341zm-3.8835 0.6178c-5.5554 2.1614-7.0741 8.3419-7.0741 8.3419l3.7748-2.6614-0.91272 3.3334 2.1524-2.155-0.16196 3.5803c3.4392-3.8361 2.2218-10.439 2.2218-10.439zm-17.049 6.6062s-3.1851 6.5057 0.33883 11.588l0.0678-3.9305 1.8297 3.5917 0.0678-3.9305 2.033 4.676s1.152-9.5552-4.3371-11.995zm54.09 23.671c2e-3 0.0721 5e-3 0.17078 5e-3 0.17078-1e-3 -0.0566-3e-3 -0.11366-5e-3 -0.17078zm-35.76-22.568c-2.3392 2.7297 0.30614 10.959 0.30614 10.959l0.60991-3.9983 1.152 2.8462 0.0678-2.914 1.292 3.0178c1.2919-4.911-3.4278-9.9112-3.4278-9.9112zm-7.2838 2.4206c-5.6925 3.4561-4.2694 9.6908-4.2694 9.6908l1.8975-4.2694 0.67767 3.4561 1.1521-2.8462 0.27106 3.795c2.3719-4.1338 0.27107-9.8263 0.27107-9.8263zm21.211 0.27107c-8.9453 1.8975-9.0131 8.8098-9.0131 8.8098l3.3206-2.9818-1.0843 3.9305 2.6429-3.5917-0.88098 4.8793c2.6429-1.4231 5.0148-11.046 5.0148-11.046zm-16.535 3.3884c-5.7602 6.4379-2.4396 11.792-2.4396 11.792l0.67768-4.6082 0.88099 2.7785 1.0843-2.914 1.152 4.2694c2.3719-3.5239-1.3554-11.317-1.3554-11.317zm-19.555 3.5705s-1.7235 5.4426 3.2235 9.9152l-0.81321-3.9983 2.1686 3.0495-0.40661-2.9818 2.5752 2.914s0.32961-6.9545-6.7474-8.8987zm12.847 3.6806s-5.1503 3.6594-3.0495 9.1486l1.8297-3.5917 0.6099 2.9818 1.152-3.4561 1.4909 3.795c0.94875-5.0826-2.033-8.8775-2.033-8.8775zm16.332 2.1918c-6.5057 0.67767-6.98 8.6065-6.98 8.6065l2.914-2.4396-1.152 2.914 2.5074-2.9818-0.0678 3.3206c2.033-2.7785 2.7785-9.4197 2.7785-9.4197zm-10.233 2.8908s-4.1338 2.8462-1.6264 9.5552l0.40661-3.3206 1.152 3.8627 0.47437-3.795 1.2876 2.9818c1.0843-4.2016-1.6942-9.2842-1.6942-9.2842zm-18.229 0.81321s-1.9653 4.2694 2.033 9.7585l0.33885-3.5239 1.8297 2.1686-0.81321-2.8462 3.4562 2.6429s-2.7107-6.5734-6.8445-8.1999zm12.639 4.2694s-4.5404 4.676-1.2876 11.588c0.37273-1.2876 0.71156-5.1842 0.71156-5.1842 0.2033 0.0339 0.84709 2.9818 0.84709 2.9818 0.20331-0.0339 0.57603-2.8801 0.57603-2.8801 0.4066 0.33884 1.4909 4.7776 1.4909 4.7776 1.5248-8.2676-2.338-11.283-2.338-11.283zm10.815 4.3375c-5.4484 1.0949-6.0504 8.5179-6.0504 8.5179l2.7249-2.3749-0.80526 3.0478 2.5077-3.1617-0.75036 4.072c4.5645-2.8593 2.3734-10.101 2.3734-10.101zm-19.117 0.57569c-1.8297 10.063 2.9479 12.334 2.9479 12.334l-0.50961-3.5288 1.7972 1.6991-0.67766-3.219c0.57602 0.30495 2.4735 2.3719 2.4735 2.3719 0-8.8098-6.0313-9.6569-6.0313-9.6569zm8.4696 7.6698c-5.8714 8.0763-2.0574 12.254-2.0574 12.254 0.30496-0.30495 1.0165-3.6256 1.0165-3.6256l0.54213 2.6091 0.80898-3.3482c0.43634 0.81945 0.74967 3.9242 0.74967 3.9242 3.1004-7.1325-1.0599-11.813-1.0599-11.813zm5.7592-103.87-12.5 6.7e-4 -0.48991 7.6628c6.8903 3.5522 15.05 17.031 15.05 17.031 0.867 1.632 1.3133 7.4308 1.4824 10.232 0.45564 0.12895 0.90111 0.28902 1.3506 0.43718-0.1198-1.4116 6e-3 -2.8242 0.6364-3.9343 0 0-0.64755-9.565 0.62858-9.7826 0 0 5.3876 3.0784 6.542 7.8887 0 0 7.1191 4.137 5.5798 11.833 0 0 0.46057 2.0033 0.72136 3.5537 0.28642 0.33256 0.5747 0.66349 0.84831 1.0078 1.0998 1.3842 2.0786 2.8528 2.9411 4.3845 5.4644-13.705 9.9838-12.661 9.9838-12.661 11.667 2.7211 11.463 21.157 11.463 21.157-8.7075-13.912-12.925-12.755-12.925-12.755l-6.0616 9.7159c0.39115 1.1307 0.72517 2.2832 0.99349 3.4548 0.63359 2.7666 0.90875 5.5938 0.82651 8.4131 4.3135-3.8049 9.1999-2.7959 9.1999-2.7959 7.6964 1.3469 3.5596 20.78 2.6937 20.973-0.48103-0.48103-6.4457-13.372-6.4457-13.372-0.9883 0-6.678 6.2061-8.5251 8.2357-0.0697 0.15033-0.13739 0.30152-0.20931 0.45085-1.0768 2.2363-2.4 4.3453-3.945 6.2878-2.159 2.7142-4.7297 5.0565-7.5993 6.9704 0 0-4.296 4.6066-6.3702 9.2256-2.269 5.053-2.7149 16.394-2.7149 16.394 2.548-0.44918 5.0622-1.0767 7.5218-1.8858l6.3728 11.322 11.262-5.4238-4.8812-12.039c2.8223-1.8485 5.4658-3.9566 7.8959-6.2969l10.653 7.4352 7.7937-9.7735-9.6211-8.7292c0.8701-1.4442 1.6723-2.9282 2.404-4.4473 0.73142-1.5188 1.3915-3.071 1.9782-4.6514l12.824 2.0768 2.7813-12.187-12.456-3.6904c0.31482-3.359 0.31508-6.74 1e-3 -10.099l12.455-3.693-2.7816-12.187-12.823 2.0791c-1.1742-3.1628-2.6413-6.2091-4.3822-9.099l9.6189-8.7318-7.7933-9.7725-10.651 7.4372c-2.4299-2.3402-5.0729-4.4484-7.8949-6.2969l4.878-12.041-11.262-5.4229-6.3692 11.322c-3.2065-1.0548-6.5046-1.8075-9.8513-2.2484zm-29.544 3.8906-11.262 5.4239 4.8786 12.041c-2.8222 1.8483-5.4655 3.9562-7.8956 6.2963l-10.651-7.4369-7.7933 9.7732 9.6198 8.7315c-0.86949 1.4435-1.6712 2.9268-2.4024 4.445-0.73173 1.5198-1.3921 3.0729-1.9788 4.6543l-12.824-2.0791-2.7813 12.187 12.455 3.693c-0.3145 3.359-0.3145 6.74 0 10.099l-12.456 3.6904 2.7816 12.187 12.825-2.0765c1.1742 3.1627 2.6413 6.2089 4.3822 9.0987l-9.6211 8.7292 7.7936 9.7725 10.654-7.4352c2.43 2.34 5.0734 4.448 7.8956 6.2962l-4.8809 12.039 11.262 5.4235 6.3724-11.321c2.4576 0.80821 4.9696 1.4355 7.5153 1.8844-2.2852-9.7927-5.7669-20.535-7.0336-24.342-9.6546-5.4643-15.603-15.163-16.685-25.596-1.7035 1.1234-7.515 5.4203-12.385 14.592 0 0-4.137-8.0209 12.405-21.627 0.40148-3.6626 1.3836-7.3208 3.0732-10.829 1.8308-3.795 4.3368-7.1458 7.3386-9.934-1.3578-1.8187-4.2623-5.5189-5.3936-5.4675 0 0-14.595 9.2717-15.479 10.7 0 0-3.7001-5.1636 14.867-19 2.0617-1.5364 12.107 1.4497 13.253 8.6579 3.2705-1.7103 6.8365-2.9006 10.588-3.4522 0.0337-1.5112-7.5659-18.585-10.03-19.063-0.68277 0.17542-1.362 0.36415-2.0374 0.56608z" stroke-width=".58723"/>
  <g stroke-width="3.7795">
   <path transform="matrix(.18904 0 0 .18906 177.65 62.013)" d="m565.19 147.41 18.915 57.769 60.787 0.1379-49.097 35.841 18.653 57.855-49.259-35.618-49.259 35.618 18.653-57.855-49.097-35.841 60.787-0.1379z"/>
   <path transform="matrix(.18904 0 0 .18906 177.66 100.58)" d="m565.19 147.41 18.915 57.769 60.787 0.1379-49.097 35.841 18.653 57.855-49.259-35.618-49.259 35.618 18.653-57.855-49.097-35.841 60.787-0.1379z"/>
   <path transform="matrix(.18904 0 0 .18906 160.94 135.33)" d="m565.19 147.41 18.915 57.769 60.787 0.1379-49.097 35.841 18.653 57.855-49.259-35.618-49.259 35.618 18.653-57.855-49.097-35.841 60.787-0.1379z"/>
   <path transform="matrix(.18904 0 0 .18906 25.379 27.263)" d="m565.19 147.41 18.915 57.769 60.787 0.1379-49.097 35.841 18.653 57.855-49.259-35.618-49.259 35.618 18.653-57.855-49.097-35.841 60.787-0.1379z"/>
   <path transform="matrix(.18904 0 0 .18906 93.158 -5.3699)" d="m565.19 147.41 18.915 57.769 60.787 0.1379-49.097 35.841 18.653 57.855-49.259-35.618-49.259 35.618 18.653-57.855-49.097-35.841 60.787-0.1379z"/>
   <path transform="matrix(.18904 0 0 .18906 93.158 167.96)" d="m565.19 147.41 18.915 57.769 60.787 0.1379-49.097 35.841 18.653 57.855-49.259-35.618-49.259 35.618 18.653-57.855-49.097-35.841 60.787-0.1379z"/>
   <path transform="matrix(.18904 0 0 .18906 130.76 159.38)" d="m565.19 147.41 18.915 57.769 60.787 0.1379-49.097 35.841 18.653 57.855-49.259-35.618-49.259 35.618 18.653-57.855-49.097-35.841 60.787-0.1379z"/>
   <path transform="matrix(.18904 0 0 .18906 55.52 3.2135)" d="m565.19 147.41 18.915 57.769 60.787 0.1379-49.097 35.841 18.653 57.855-49.259-35.618-49.259 35.618 18.653-57.855-49.097-35.841 60.787-0.1379z"/>
   <path transform="matrix(.18904 0 0 .18906 130.76 3.2135)" d="m565.19 147.41 18.915 57.769 60.787 0.1379-49.097 35.841 18.653 57.855-49.259-35.618-49.259 35.618 18.653-57.855-49.097-35.841 60.787-0.1379z"/>
   <path transform="matrix(.18904 0 0 .18906 55.561 159.38)" d="m565.19 147.41 18.915 57.769 60.787 0.1379-49.097 35.841 18.653 57.855-49.259-35.618-49.259 35.618 18.653-57.855-49.097-35.841 60.787-0.1379z"/>
   <path transform="matrix(.18904 0 0 .18906 160.92 27.263)" d="m565.19 147.41 18.915 57.769 60.787 0.1379-49.097 35.841 18.653 57.855-49.259-35.618-49.259 35.618 18.653-57.855-49.097-35.841 60.787-0.1379z"/>
   <path transform="matrix(.18904 0 0 .18906 25.407 135.33)" d="m565.19 147.41 18.915 57.769 60.787 0.1379-49.097 35.841 18.653 57.855-49.259-35.618-49.259 35.618 18.653-57.855-49.097-35.841 60.787-0.1379z"/>
   <path transform="matrix(.18904 0 0 .18906 8.6685 100.58)" d="m565.19 147.41 18.915 57.769 60.787 0.1379-49.097 35.841 18.653 57.855-49.259-35.618-49.259 35.618 18.653-57.855-49.097-35.841 60.787-0.1379z"/>
   <path transform="matrix(.18904 0 0 .18906 8.6584 62.013)" d="m565.19 147.41 18.915 57.769 60.787 0.1379-49.097 35.841 18.653 57.855-49.259-35.618-49.259 35.618 18.653-57.855-49.097-35.841 60.787-0.1379z"/>
  </g>
 </g>
</svg>
