<?xml version="1.0" encoding="UTF-8" standalone="no"?>
<svg
   xmlns:dc="http://purl.org/dc/elements/1.1/"
   xmlns:cc="http://creativecommons.org/ns#"
   xmlns:rdf="http://www.w3.org/1999/02/22-rdf-syntax-ns#"
   xmlns:svg="http://www.w3.org/2000/svg"
   xmlns="http://www.w3.org/2000/svg"
   xmlns:sodipodi="http://sodipodi.sourceforge.net/DTD/sodipodi-0.dtd"
   xmlns:inkscape="http://www.inkscape.org/namespaces/inkscape"
   height="600"
   width="1200"
   version="1.1"
   id="svg4206"
   sodipodi:docname="CORR4_Flag_of_Ceylon_(1951–1972).svg"
   inkscape:version="0.92.3 (2405546, 2018-03-11)">
  <metadata
     id="metadata4212">
    <rdf:RDF>
      <cc:Work
         rdf:about="">
        <dc:format>image/svg+xml</dc:format>
        <dc:type
           rdf:resource="http://purl.org/dc/dcmitype/StillImage" />
        <dc:title></dc:title>
      </cc:Work>
    </rdf:RDF>
  </metadata>
  <defs
     id="defs4210" />
  <sodipodi:namedview
     pagecolor="#ffffff"
     bordercolor="#666666"
     borderopacity="1"
     objecttolerance="10"
     gridtolerance="10"
     guidetolerance="10"
     inkscape:pageopacity="0"
     inkscape:pageshadow="2"
     inkscape:window-width="1152"
     inkscape:window-height="808"
     id="namedview4208"
     showgrid="false"
     inkscape:zoom="0.36551358"
     inkscape:cx="600"
     inkscape:cy="300"
     inkscape:window-x="-4"
     inkscape:window-y="-4"
     inkscape:window-maximized="1"
     inkscape:current-layer="g7274"
     fit-margin-top="0"
     fit-margin-left="0"
     fit-margin-right="0"
     fit-margin-bottom="0" />
  <g
     transform="translate(0,100)"
     id="g4204"
     style="fill:#ffb700">
    <g
       transform="matrix(0.98981608,0,0,0.97131881,26.603616,20.658692)"
       id="g4196" />
    <g
       id="g6637">
      <g
         style="stroke:#000000;stroke-width:2.00148129;stroke-miterlimit:4;stroke-dasharray:none"
         id="g4194"
         transform="matrix(1.1877803,0,0,1.1655849,-0.43012893,-91.396356)" />
      <g
         id="g7290">
        <g
           id="g7274">
          <g
             id="g10379">
            <path
               transform="translate(0,-100)"
               id="path4176"
               d="M 0,0 H 1200 V 600 H 0 Z"
               style="fill:#ffb700"
               inkscape:connector-curvature="0" />
            <g
               id="g4182"
               transform="matrix(0.94545455,0,0,0.976,8.7272706,-92.8)"
               style="fill:#ffb700">
              <path
                 id="path4178"
                 d="M 50.000002,50.000002 H 380 V 550 H 50.000002 Z"
                 inkscape:connector-curvature="0"
                 style="fill:#ff5b00" />
              <path
                 id="path4180"
                 d="M 50.000002,50.000002 H 215 V 550 H 50.000002 Z"
                 inkscape:connector-curvature="0"
                 style="fill:#005641" />
            </g>
            <path
               transform="matrix(0.98981608,0,0,0.97131881,26.603616,20.65869)"
               d="M 402.68596,-65.366629 H 1127.692 V 434.64088 H 402.68596 Z"
               id="path4184"
               inkscape:connector-curvature="0"
               style="fill:#8d2029;stroke:#000000;stroke-width:2.40177751;stroke-miterlimit:4;stroke-dasharray:none" />
            <g
               id="g7258"
               style="fill:#ffb700;stroke:#000000;stroke-width:2.00148129;stroke-miterlimit:4;stroke-dasharray:none"
               transform="matrix(1.1877803,0,0,1.1655849,-0.43012893,-91.396356)">
              <path
                 style="stroke-width:2.00147835;stroke-miterlimit:4;stroke-dasharray:none"
                 inkscape:connector-curvature="0"
                 id="path4186"
                 d="m 426.76792,400.91365 c 1.16067,1.53738 -1.33523,5.40017 -5.57184,8.62406 -0.93653,0.71269 -1.87946,1.32557 -2.79336,1.84548 -0.23889,2.95357 -2.43403,6.51649 -6.00931,9.23718 -2.30224,1.752 -4.78992,2.85448 -7.03975,3.26901 -0.43225,4.02971 -3.23059,8.63222 -7.77868,12.09319 -2.56184,1.94948 -5.32104,3.26194 -7.95347,3.91912 -0.83228,6.41593 -4.98408,13.53378 -11.33019,18.43445 h -19.95988 v -26.15449 c 6.38133,-4.87832 14.62541,-6.87618 21.02181,-5.91631 1.34157,-2.36015 3.34019,-4.66602 5.89491,-6.61009 4.548,-3.46091 9.71375,-4.92784 13.69504,-4.25677 1.00576,-2.06169 2.74045,-4.16444 5.04167,-5.91558 3.57527,-2.72067 7.58522,-3.8797 10.4823,-3.3125 0.74549,-0.74287 1.58807,-1.48872 2.52467,-2.20142 4.23653,-3.22392 8.6154,-4.59268 9.77608,-3.05533 z" />
              <path
                 style="stroke-width:2.00148749;stroke-miterlimit:4;stroke-dasharray:none"
                 inkscape:connector-curvature="0"
                 id="path4188"
                 d="m 894.06641,400.91385 c -1.16067,1.53738 1.33523,5.40017 5.57184,8.62406 0.93654,0.71269 1.87945,1.32557 2.79337,1.84548 0.23888,2.95357 2.43401,6.51649 6.0093,9.23718 2.30224,1.752 4.78992,2.85448 7.03976,3.26901 0.43223,4.02971 3.23059,8.63222 7.77867,12.09319 2.56184,1.94948 5.32105,3.26194 7.95347,3.91912 0.83228,6.41593 4.98409,13.53378 11.33018,18.43445 h 19.95989 v -26.15449 c -6.38133,-4.87832 -14.62541,-6.87618 -21.0218,-5.91631 -1.34157,-2.36015 -3.3402,-4.66602 -5.89492,-6.61009 -4.54801,-3.46091 -9.71375,-4.92784 -13.69503,-4.25677 -1.00578,-2.06169 -2.74045,-4.16444 -5.04167,-5.91558 -3.57529,-2.72067 -7.58524,-3.8797 -10.48232,-3.3125 -0.74548,-0.74287 -1.58806,-1.48872 -2.52466,-2.20142 -4.23653,-3.22392 -8.6154,-4.59268 -9.77608,-3.05533 z" />
              <path
                 style="stroke-width:2.00148749;stroke-miterlimit:4;stroke-dasharray:none"
                 inkscape:connector-curvature="0"
                 id="path4190"
                 d="m 894.06641,99.08638 c -1.16067,-1.53738 1.33523,-5.400169 5.57184,-8.624059 0.93654,-0.71269 1.87945,-1.32557 2.79337,-1.84548 0.23888,-2.95357 2.43401,-6.516489 6.0093,-9.237179 2.30224,-1.752 4.78992,-2.85448 7.03976,-3.26901 0.43223,-4.029709 3.23059,-8.632219 7.77867,-12.093188 2.56184,-1.94948 5.32105,-3.26194 7.95347,-3.91912 0.83228,-6.415929 4.98409,-13.533778 11.33018,-18.434448 h 19.95989 v 26.154487 c -6.38133,4.87832 -14.62541,6.87618 -21.0218,5.91631 -1.34157,2.360149 -3.3402,4.666019 -5.89492,6.610089 -4.54801,3.46091 -9.71375,4.927839 -13.69503,4.25677 -1.00578,2.061689 -2.74045,4.164439 -5.04167,5.915579 -3.57529,2.72067 -7.58524,3.8797 -10.48232,3.3125 -0.74548,0.742869 -1.58806,1.488719 -2.52466,2.201419 -4.23653,3.22392 -8.6154,4.59269 -9.77608,3.05533 z" />
              <path
                 style="stroke-width:2.00148749;stroke-miterlimit:4;stroke-dasharray:none"
                 inkscape:connector-curvature="0"
                 id="path4192"
                 d="m 426.76773,99.08638 c 1.16067,-1.53738 -1.33523,-5.400169 -5.57184,-8.624059 -0.93653,-0.71269 -1.87945,-1.32557 -2.79337,-1.84548 -0.23888,-2.95357 -2.43401,-6.516489 -6.0093,-9.237179 -2.30224,-1.752 -4.78992,-2.85448 -7.03976,-3.26901 -0.43223,-4.029709 -3.23059,-8.632219 -7.77866,-12.093189 -2.56185,-1.94948 -5.32106,-3.26194 -7.95348,-3.91912 -0.83228,-6.415929 -4.98408,-13.533778 -11.33018,-18.434447 h -19.95989 v 26.154487 c 6.38133,4.87832 14.62541,6.87618 21.0218,5.91631 1.34157,2.360149 3.3402,4.666019 5.89492,6.610089 4.54801,3.46091 9.71375,4.927839 13.69503,4.25677 1.00578,2.061689 2.74045,4.164439 5.04168,5.915579 3.57528,2.72067 7.58523,3.8797 10.48231,3.3125 0.74549,0.742869 1.58806,1.488719 2.52467,2.201419 4.23652,3.22392 8.61539,4.59269 9.77607,3.05533 z" />
            </g>
            <g
               transform="matrix(1.1707858,0,0,1.0826466,-143.8476,-16.52948)"
               id="g4202">
              <g
                 id="g10359">
                <path
                   id="path4198"
                   d="m 693.64003,475.98736 3.88421,-2.36802 1.66169,2.37229 c 2.21376,3.16067 8.33941,3.12491 12.40407,-0.0727 l 3.10806,-2.44475 2.60248,2.44475 c 3.42167,3.21456 9.81178,3.21882 13.892,0.012 2.85654,-2.24687 3.25482,-2.29199 5.14358,-0.58278 1.12597,1.01901 4.42843,2.17915 7.33885,2.57801 5.24165,0.71847 5.32101,0.679 8.38777,-4.17911 2.56843,-4.06859 2.97018,-5.71528 2.35729,-9.66132 -0.40623,-2.6161 -0.84387,-6.82671 -0.97251,-9.35683 -0.23273,-4.58121 -0.20769,-4.60971 6.11215,-6.93332 3.4902,-1.28323 7.53027,-3.00433 8.97793,-3.82467 2.52402,-1.43023 9.4826,-10.06606 9.4826,-11.76811 0,-0.45101 -2.71854,-1.1419 -6.0411,-1.53546 -13.21599,-1.56522 -15.45423,-9.05892 -6.86269,-22.97781 14.01142,-22.69987 22.46645,-44.80634 22.52298,-58.88885 0.0254,-6.29457 0.36484,-8.40807 1.13083,-7.03922 3.13056,5.59399 -2.47774,29.04913 -10.97328,45.89263 l -3.42074,6.78228 3.26418,-0.79345 c 1.79527,-0.43637 12.35032,-5.13862 23.45548,-10.44935 30.39673,-14.53674 40.83721,-17.38542 60.50908,-16.51052 16.48086,0.73299 23.49945,4.13274 35.13568,17.01979 6.16445,6.82705 12.10273,11.71182 22.96571,18.89168 23.14361,15.29675 24.10874,16.62176 25.20945,34.61084 1.11513,18.22641 0.56016,19.21521 -12.49592,22.26097 -11.15857,2.60316 -18.15466,8.09609 -20.03094,15.72722 -1.00194,4.07538 1.10659,4.19273 6.73255,0.37486 l 4.12317,-2.79804 1.83336,2.79804 c 2.41024,3.6786 7.53349,3.69326 11.78773,0.0335 l 3.21362,-2.76424 3.28505,2.76424 c 5.10424,4.29483 11.89205,3.25332 13.80767,-2.1187 0.36829,-1.03251 1.35108,-0.70172 3.34124,1.12459 3.72904,3.42213 13.28812,4.88997 14.32065,2.19923 0.394,-1.02663 -0.35446,-3.56208 -1.66319,-5.63426 -5.56158,-8.80567 -7.30137,-13.00511 -7.37382,-17.79838 -0.10044,-6.66691 1.78327,-9.88364 8.96478,-15.3056 8.72373,-6.5865 11.41956,-15.08411 4.7853,-15.08411 -4.09615,0 -8.22555,-3.82295 -10.85893,-10.05325 -5.3531,-12.66462 -4.30396,-26.86248 3.73028,-50.48157 8.16059,-23.99073 9.06586,-28.41433 9.09851,-44.45941 0.0266,-12.97322 -0.2829,-15.21671 -3.0783,-22.32903 -1.7091,-4.34871 -5.17691,-10.8239 -7.70622,-14.38929 l -4.59887,-6.48254 5.90448,-5.1651 c 18.02879,-15.77106 14.34071,-41.58235 -7.3624,-51.52739 -6.63944,-3.04243 -8.29834,-3.3111 -19.93378,-3.2285 -6.98039,0.0496 -17.62403,1.01949 -23.65254,2.15547 -6.14667,1.15821 -16.5509,2.08906 -23.68786,2.11932 -11.33777,0.0481 -13.26239,-0.24696 -17.63177,-2.70269 -4.55594,-2.5606 -5.33705,-3.77632 -6.22904,-9.69466 -0.18334,-1.21659 -0.9889,-2.43022 -1.78998,-2.69698 -1.54965,-0.51595 -8.70609,6.04222 -9.76342,8.94716 -0.52163,1.43337 -0.94737,1.33427 -2.47775,-0.5769 -1.01636,-1.26915 -2.4354,-4.18543 -3.15351,-6.4806 -1.8058,-5.77222 0.41167,-10.0992 6.83742,-13.34196 l 4.98539,-2.51583 -2.93973,-1.92624 c -6.06625,-3.97473 -16.38105,-1.25569 -20.11147,5.30154 -1.05524,1.85484 -2.20626,3.37573 -2.55769,3.37974 -0.35146,0.002 -2.35719,-1.76545 -4.45731,-3.93216 -7.83234,-8.08098 -5.13813,-20.03651 5.33787,-23.68661 5.58627,-1.94642 10.52988,-0.46164 11.55847,3.47159 1.57031,6.00488 6.45173,-1.88832 5.57624,-9.01679 -0.58209,-4.73929 -0.49462,-4.90356 2.61111,-4.90356 4.31897,0 13.51172,5.98535 16.35499,10.64863 3.30248,5.41656 3.06215,13.94614 -0.57205,20.30301 l -2.85364,4.99153 3.73283,-0.7893 c 5.47378,-1.15741 10.79167,-4.74673 13.48196,-9.09966 2.84406,-4.60186 3.14993,-13.56235 0.62788,-18.39807 -2.44393,-4.68615 -2.16367,-5.43008 1.44938,-3.84651 6.14517,2.6934 9.43058,5.66385 11.89492,10.75448 2.21932,4.58449 2.34323,5.72374 1.14179,10.49527 -0.7413,2.94389 -2.39064,6.81711 -3.66533,8.60711 -1.98463,2.78724 -2.05236,3.25456 -0.47108,3.25456 2.9449,0 9.09399,-2.943 11.27797,-5.39775 1.10337,-1.24017 2.71197,-4.29387 3.57477,-6.78602 l 1.5688,-4.53115 1.80256,3.4539 c 2.54905,4.884 7.50454,9.27894 13.54645,12.01388 6.49811,2.94148 9.2043,3.10721 5.80617,0.35556 -2.29153,-1.85559 -6.51403,-14.93817 -5.23437,-16.21784 0.75297,-0.75295 9.57582,6.41501 19.64916,15.96351 9.52908,9.03273 15.51699,11.99138 24.26901,11.99144 11.18015,7e-5 17.68979,-10.2763 12.66495,-19.99328 -2.92956,-5.66521 -9.45606,-6.4522 -13.27242,-1.60045 -1.75489,2.23101 -2.23672,4.00573 -1.72271,6.34581 0.62963,2.86662 0.38399,3.2486 -2.0895,3.2486 -3.24974,0 -9.65578,-4.39026 -21.03288,-14.41456 -17.34898,-15.28598 -38.4295,-28.24285 -53.6509,-32.97579 -9.7685,-3.03738 -30.63547,-4.22269 -40.56549,-2.30424 -10.74738,2.07639 -23.4594,8.57071 -30.38465,15.52283 -12.27116,12.31896 -12.4658,28.71217 -0.51804,43.63994 l 3.42247,4.27616 -2.31704,3.80032 c -3.37077,5.52868 -3.08209,12.9687 0.71582,18.44903 1.67275,2.41379 3.36016,4.38768 3.7498,4.38641 0.38963,-10e-4 0.81686,-1.55309 0.94932,-3.44853 0.33541,-4.79493 2.28438,-8.00757 5.62965,-9.27945 3.01299,-1.14554 4.9608,-0.60449 18.75658,5.2099 14.51321,6.11672 38.38163,6.53717 63.76151,1.12316 12.44215,-2.65416 27.11342,-2.49806 33.56802,0.35714 11.83206,5.2339 14.57378,18.85052 5.87669,29.18647 -3.76503,4.47444 -7.3961,6.29659 -19.58732,9.82948 -9.27699,2.68836 -11.47437,2.86683 -32.5602,2.64456 -18.01447,-0.1899 -24.48859,0.17538 -31.84209,1.79661 -7.98325,1.76003 -12.89341,1.9375 -36.34416,1.31351 l -27.11388,-0.72146 3.00674,2.62889 c 1.65372,1.44588 3.99013,3.22484 5.19202,3.95325 2.04509,1.23943 1.97689,1.40596 -1.06275,2.59601 -1.7864,0.69941 -5.75126,1.27163 -8.81085,1.27163 h -5.56273 l -0.74859,4.9917 c -0.41178,2.74545 -0.38051,5.9508 0.0692,7.12301 0.66343,1.72891 0.41617,1.97719 -1.30943,1.315 -1.16994,-0.44895 -4.42832,-1.33197 -7.2408,-1.96226 -2.81245,-0.6303 -6.59824,-1.91376 -8.41291,-2.85214 -3.05153,-1.57802 -3.39062,-1.53561 -4.51463,0.56465 -1.00368,1.87552 -10.42651,9.28056 -11.80944,9.28056 -0.22314,0 -0.51123,-1.42781 -0.64011,-3.17289 -0.12888,-1.7451 -1.48827,-6.28812 -3.02085,-10.0956 -1.53267,-3.80748 -3.13297,-7.96112 -3.5563,-9.23027 -0.63861,-1.91452 -0.92775,-2.01277 -1.6979,-0.5769 -0.51055,0.95187 -1.25601,3.54788 -1.65649,5.76893 -0.40049,2.22103 -1.82033,5.82913 -3.15524,8.018 l -2.4271,3.97976 -1.54803,-3.40287 c -1.6618,-3.65298 -4.42071,-7.44111 -5.41955,-7.44111 -0.33713,0 -0.91137,1.1682 -1.27596,2.59601 -0.76139,2.98165 -7.30357,11.24938 -8.90145,11.24938 -0.58842,0 -1.06978,-2.3364 -1.06978,-5.19202 0,-2.85561 -0.5192,-5.19203 -1.15378,-5.19203 -0.63457,0 -1.15378,0.73896 -1.15378,1.64216 0,2.19541 -5.5872,8.74189 -7.46094,8.74189 -0.81768,0 -2.13312,0.7788 -2.9231,1.73067 -2.05985,2.48187 -3.74483,2.13362 -2.8788,-0.59499 0.40601,-1.27914 0.14202,-4.26455 -0.5867,-6.63426 -0.72874,-2.36971 -1.50362,-4.89185 -1.72191,-5.60472 -0.27506,-0.89782 -2.27723,-0.65967 -6.51471,0.77486 -6.8476,2.31811 -9.14282,1.908 -5.62113,-1.00436 1.2874,-1.06464 3.24547,-4.75245 4.35149,-8.19514 1.10591,-3.44269 2.7377,-6.49734 3.62623,-6.78812 1.24411,-0.40721 1.1779,0.096 -0.28844,2.18946 -1.04718,1.49499 -1.90709,3.51125 -1.91101,4.48057 0,0.96932 -0.79196,3.26744 -1.75134,5.10695 -0.95925,1.83953 -1.56233,3.52644 -1.34,3.74871 0.22222,0.22228 2.82759,-0.82275 5.78957,-2.32231 l 5.3854,-2.72642 0.0218,2.43907 c 0.0127,1.3415 0.66123,4.88051 1.44223,7.86449 l 1.41996,5.42535 3.6659,-1.77907 c 3.74657,-1.81821 7.29504,-8.30003 7.29504,-13.32555 0,-2.48433 1.34772,-2.10298 1.89958,0.53746 0.162,0.77487 1.00795,3.68306 1.87997,6.46264 l 1.58553,5.0538 2.50994,-3.1909 c 1.3805,-1.75498 3.11116,-5.19741 3.8459,-7.6498 1.2755,-4.25733 3.27824,-6.08765 3.27824,-2.99607 0,2.22789 5.75784,10.21799 6.86859,9.53149 0.53685,-0.33175 1.60583,-3.33058 2.37552,-6.6641 1.60088,-6.93247 4.1835,-11.6473 5.82453,-10.63309 0.61704,0.38136 0.85737,1.12148 0.53397,1.64472 -0.32341,0.52321 1.00275,5.03035 2.94699,10.01586 1.94424,4.98552 3.89656,10.00507 4.33858,11.1546 0.71014,1.84699 1.352,1.57869 5.51957,-2.30758 2.5937,-2.41868 4.94789,-5.12623 5.23137,-6.01676 0.42852,-1.34627 1.00713,-1.29702 3.4325,0.29217 3.39177,2.22239 14.79518,5.80323 15.67587,4.92249 0.32987,-0.32983 0.66804,-3.49212 0.75157,-7.02731 l 0.15184,-6.42758 3.27928,0.71805 c 1.80358,0.39495 5.59596,0.37066 8.42746,-0.0541 l 5.14817,-0.77201 -4.58801,-3.3236 c -2.52355,-1.82797 -5.07504,-4.19356 -5.67004,-5.25682 -0.63388,-1.13272 -2.87972,-2.09455 -5.42381,-2.32284 -6.87389,-0.61677 -19.05669,-7.83174 -19.05669,-11.28586 0,-0.64845 1.68742,0.45414 3.7498,2.4502 4.5752,4.42811 10.9314,7.2075 16.48283,7.2075 h 4.15395 l -2.5697,-3.60874 c -1.47616,-2.073 -2.8,-6.00542 -3.11082,-9.24048 -0.49544,-5.15664 -1.01095,-5.97657 -6.11032,-9.71984 -3.06294,-2.24847 -6.85693,-5.61861 -8.43092,-7.48921 l -2.86186,-3.40109 -1.4601,4.03808 c -0.80314,2.22094 -1.78467,4.03808 -2.1811,4.03808 -0.39645,0 -1.94032,-1.29802 -3.43067,-2.88446 -1.49045,-1.58645 -3.00871,-2.8785 -3.37399,-2.87123 -0.36542,0.007 -1.68568,2.14419 -2.93397,4.74867 l -2.26971,4.73543 -1.75388,-2.72954 c -0.96468,-1.50126 -3.24328,-4.15735 -5.06348,-5.90245 -1.82021,-1.74509 -2.77762,-3.1729 -2.12747,-3.1729 0.65004,0 2.89669,1.81792 4.99254,4.03982 l 3.81037,4.03982 1.5508,-2.95977 c 0.92026,-1.7564 1.26512,-4.45439 0.84826,-6.63583 -0.6077,-3.17968 -0.52232,-3.36448 0.63228,-1.3685 0.73426,1.26916 2.96337,3.70238 4.95376,5.40712 l 3.61896,3.09958 2.49736,-4.83024 c 2.48546,-4.80704 2.5029,-4.81639 3.63372,-1.94579 1.51226,3.83899 12.45647,13.31169 21.77396,18.84619 1.4361,0.85305 0.8306,-2.08033 -1.8216,-8.8257 -0.70242,-1.7864 -1.27712,-5.00695 -1.27712,-7.15677 0,-3.18939 -0.87134,-4.60889 -4.73444,-7.71292 -5.57703,-4.48129 -7.38063,-7.66806 -8.4316,-14.89776 -0.42575,-2.92857 -1.40174,-6.18575 -2.169,-7.23817 -1.13809,-1.56133 -1.32616,-0.68756 -1.02167,4.7478 0.20525,3.66368 -0.24599,8.21887 -1.00287,10.12262 l -1.37601,3.46134 -1.06367,-2.88446 c -0.58497,-1.58645 -3.17244,-4.34537 -5.7501,-6.13092 -2.57756,-1.78556 -4.38668,-3.54632 -4.02012,-3.91279 0.36642,-0.36648 3.01817,1.26084 5.8926,3.61625 4.37906,3.58828 5.34362,3.97678 5.95016,2.39634 0.71258,-1.85706 -10e-4,-9.93672 -1.37762,-15.58319 -0.68707,-2.81943 -0.62695,-2.80426 2.66698,0.67323 2.4294,2.5648 3.77275,5.62384 4.81346,10.96094 1.32212,6.78028 1.98912,7.90903 7.9266,13.4138 3.56565,3.30578 6.66864,5.82491 6.89558,5.59802 0.22684,-0.22689 0.67682,-8.77845 0.99987,-19.00348 0.61957,-19.60798 -0.0808,-24.27329 -4.55282,-30.33122 l -2.29777,-3.11264 3.61215,-4.11406 c 4.71217,-5.36686 6.87574,-9.66882 7.81423,-15.53784 l 0.76344,-4.77444 -4.07642,4.07644 c -3.3379,3.33788 -4.93195,4.07642 -8.79805,4.07642 -3.82825,0 -5.32366,-0.6774 -7.90341,-3.58003 -3.09525,-3.48261 -8.58,-6.83358 -13.85427,-8.46439 -1.94841,-0.60242 -2.59602,-0.34001 -2.59602,1.0517 0,1.01992 -1.07625,3.96395 -2.39166,6.54228 l -2.39157,4.6879 -5.01088,-5.22972 c -3.07368,-3.20778 -6.72136,-5.70464 -9.43472,-6.45809 -6.93272,-1.92506 -7.30818,-1.73391 -7.30818,3.72001 0,8.27278 -3.34514,9.81408 -9.36547,4.31534 -4.5894,-4.19174 -8.39642,-5.10304 -17.09894,-4.093 l -6.72136,0.78008 1.2094,3.20391 c 1.01013,2.67619 0.78248,3.80325 -1.38177,6.84272 -3.51039,4.92981 -8.07465,7.06534 -15.10072,7.06534 -3.23602,0 -7.28556,0.70707 -8.99916,1.57128 -1.71359,0.8642 -5.97117,1.85985 -9.46136,2.21253 -3.4902,0.35271 -7.21022,0.9822 -8.26662,1.39892 -1.65314,0.65204 -1.83463,0.11472 -1.30216,-3.8555 0.81502,-6.07586 -3.20452,-10.55749 -9.46863,-10.55749 -8.12748,0 -11.87623,7.67629 -8.69341,17.80171 0.61255,1.9488 1.41408,5.02216 1.7811,6.82971 0.38086,1.87525 4.0418,6.85154 8.52588,11.58903 4.32218,4.56645 8.40703,9.31799 9.0776,10.55897 0.67059,1.24099 2.88746,3.23251 4.92642,4.42561 l 3.70734,2.16929 -0.48897,-4.18841 c -0.53745,-4.60317 0.41247,-5.32534 2.73204,-2.07705 0.82911,1.16121 2.93546,3.03815 4.68055,4.17093 2.749,1.78448 3.1729,1.82073 3.1729,0.27135 0,-0.98355 0.5604,-3.24988 1.24528,-5.03628 l 1.2454,-3.24801 2.16079,4.41922 c 1.18841,2.43059 5.05323,7.95462 8.58841,12.27566 6.85949,8.38437 11.03894,17.75378 8.88183,19.91094 -0.87491,0.87485 -3.23993,0.80714 -8.14167,-0.23308 -3.79976,-0.80636 -8.49969,-1.2326 -10.44438,-0.94718 -3.97134,0.58287 -4.28412,0.0415 -1.84167,-3.18756 2.57777,-3.40819 2.16773,-3.97032 -2.89647,-3.97032 -5.85901,0 -20.40498,-2.96564 -25.98848,-5.29854 -5.42923,-2.26851 -6.6819,-1.70366 -8.28,3.73371 -0.71927,2.44711 -2.0362,6.88128 -2.92646,9.8537 l -1.61864,5.40439 5.87412,-0.59731 c 3.23084,-0.32853 7.38618,-1.07544 9.2342,-1.65983 1.84801,-0.58435 3.52758,-0.89491 3.73237,-0.69013 0.2048,0.20479 -0.61889,2.31657 -1.83036,4.69281 l -2.20269,4.32044 3.66234,-0.78832 c 2.01438,-0.43357 5.04491,-1.49448 6.73463,-2.35758 2.94018,-1.50182 3.17625,-1.39278 5.49535,2.5377 2.8518,4.83357 5.13318,4.63497 5.63934,-0.49093 0.52336,-5.29917 2.17419,-4.51535 5.2797,2.50685 2.98623,6.75242 6.09314,9.13649 6.69011,5.13355 0.1981,-1.32905 1.80682,-3.49249 3.57475,-4.80765 3.57616,-2.6602 6.27106,-1.8621 7.8162,2.31468 1.59936,4.32352 -1.96766,8.77996 -12.34352,15.42106 -20.78412,13.30308 -32.86584,31.49718 -36.31496,54.68747 -3.11094,20.91681 6.60541,42.53131 26.09764,58.0557 9.32799,7.4292 24.14637,15.27007 23.20476,12.27831 -3.999,-12.70602 -3.86736,-36.94941 0.22302,-41.03969 0.61383,-0.61383 0.40269,1.91586 -0.46923,5.62158 -3.24767,13.80373 -1.83682,24.80251 6.4883,50.58125 7.52958,23.31506 6.48737,33.27993 -4.16943,39.86618 -3.42269,2.11535 -5.62631,2.46391 -14.82899,2.34599 -9.98542,-0.12807 -11.07343,0.0842 -14.27933,2.78143 -3.10795,2.61527 -7.13765,11.2015 -7.13765,15.20858 0,2.17062 2.28276,1.88333 6.76867,-0.85148 z m 80.91882,-202.20389 c 0,-1.69272 -4.70779,-6.28018 -9.47822,-9.23598 -3.74633,-2.32135 -4.36522,-2.39189 -4.37363,-0.4986 -0.0127,2.87442 -2.43344,10.0956 -3.38405,10.0956 -0.53605,0 -1.3287,-1.41115 -1.76159,-3.13588 -0.43291,-1.72475 -2.24895,-5.12384 -4.03581,-7.55358 l -3.24882,-4.41768 -2.52967,4.09308 c -2.35823,3.81565 -6.44331,7.55272 -8.25624,7.55272 -0.43301,0 -0.51771,-2.0095 -0.18831,-4.46555 0.35791,-2.66849 0.082,-4.7853 -0.68672,-5.26013 -0.70704,-0.437 -1.28555,-0.28454 -1.28555,0.3388 0,1.4378 -5.67304,8.23309 -6.87343,8.23309 -0.49463,0 -1.18701,-1.94701 -1.5388,-4.3267 -0.35167,-2.37967 -0.94945,-6.14389 -1.32835,-8.36491 -0.37891,-2.22103 0.42898,-0.71486 1.7954,3.34703 l 2.48445,7.38526 2.72442,-4.50081 c 1.49843,-2.47544 2.72707,-5.18046 2.73031,-6.01113 0,-0.83068 0.51008,-1.19873 1.12632,-0.81791 0.61613,0.38082 1.47372,3.35642 1.90559,6.61243 l 0.78539,5.92003 2.99786,-3.47061 c 1.64887,-1.90884 3.581,-4.46439 4.29358,-5.67902 1.27147,-2.16729 1.34347,-2.16547 3.87254,0.0994 1.41731,1.26916 3.59634,4.3049 4.8422,6.74608 1.24598,2.44115 2.43207,4.25836 2.63594,4.03823 0.20376,-0.22014 0.66031,-2.73667 1.01463,-5.59228 0.35422,-2.85561 0.67047,-5.29793 0.70265,-5.42736 0.1763,-0.70758 9.03043,5.36944 12.30636,8.44643 2.10554,1.97776 4.10528,3.31903 4.4437,2.9806 0.33852,-0.33849 0.61543,-3.25636 0.61543,-6.48422 0,-5.00203 -0.50214,-6.34269 -3.39965,-9.07747 -3.33154,-3.14439 -3.42475,-3.16166 -4.65572,-0.86159 -1.59766,2.98518 -3.48246,3.0283 -3.48246,0.0796 0,-2.15214 -6.29574,-10.42422 -7.93366,-10.42422 -0.42458,0 -1.75051,1.81722 -2.94664,4.03826 -1.19613,2.22102 -2.48236,4.03615 -2.85837,4.03363 -1.61496,-0.0108 -10.49043,-10.45943 -10.4865,-12.34504 0,-1.50013 0.59811,-1.11653 2.15411,1.38871 1.18227,1.90374 3.54418,4.74575 5.24844,6.31558 3.45096,3.17869 4.70547,2.40578 6.03716,-3.71957 0.37937,-1.7451 1.03876,-3.17291 1.46519,-3.17291 1.47534,0 9.20165,8.66469 10.28827,11.53782 l 1.09091,2.88447 0.82633,-3.1729 c 1.01038,-3.87993 2.12527,-4.02425 3.73849,-0.48383 0.67383,1.479 4.00225,4.55392 7.39633,6.83314 l 6.17114,4.14404 1.23847,-4.16808 c 0.68118,-2.29243 1.58355,-3.60978 2.00526,-2.92742 0.62892,1.01752 -0.97518,7.92422 -2.1855,9.41028 -0.18137,0.22273 -2.1811,-1.00711 -4.4439,-2.73295 l -4.11393,-3.13792 -0.0162,5.61739 c -0.012,3.08958 -0.32883,6.78564 -0.71152,8.21344 -0.74824,2.79174 -2.73413,3.57709 -2.73413,1.08119 z m -30.77058,-44.78739 c -7.33424,-6.46573 -8.44765,-7.94526 -8.28519,-11.00974 l 0.17283,-3.26166 0.47848,3.15028 c 0.27944,1.83953 2.23268,4.59618 4.6944,6.6254 l 4.21603,3.47512 2.5907,-3.16405 c 1.42503,-1.74023 2.60951,-3.81306 2.63235,-4.60628 0.06,-2.06841 0.41144,-1.89467 5.37698,2.6546 4.41184,4.04201 4.4806,4.06133 5.13676,1.44225 0.36575,-1.46003 0.23594,-4.2088 -0.28845,-6.10836 -1.44153,-5.22144 -1.15909,-6.00945 1.02525,-2.86035 1.08825,1.569 2.83818,3.78703 3.88871,4.92895 1.82863,1.98784 1.9402,1.96325 2.62058,-0.5769 0.39091,-1.4592 0.71777,-4.13004 0.72642,-5.93515 l 0.0162,-3.28208 3.97789,4.76121 c 3.71566,4.4474 4.05798,4.6117 5.19203,2.49258 0.66781,-1.24774 1.22208,-4.24977 1.23179,-6.67117 0.0127,-3.12799 0.32466,-3.91723 1.07808,-2.72619 1.2582,1.98891 0.38467,7.40426 -1.9387,12.01924 l -1.66722,3.31155 -2.1893,-3.59998 c -2.7993,-4.60319 -3.73122,-4.5293 -5.52742,0.43824 -1.69757,4.69447 -2.80139,5.0518 -4.45544,1.44223 -1.07038,-2.33598 -1.27413,-2.04973 -2.03389,2.85766 l -0.84447,5.45365 -5.05956,-4.14596 -5.05968,-4.14597 -2.27456,2.73054 c -1.25106,1.5018 -2.29188,3.37955 -2.313,4.17278 -0.0461,1.71921 -1.26305,1.77291 -3.11809,0.13756 z m 65.24249,-24.08076 c -2.66963,-2.53952 -4.50864,-4.96246 -4.08682,-5.38431 0.42183,-0.42184 0.89685,-0.54268 1.05549,-0.26854 0.15864,0.27415 2.34079,2.69711 4.84923,5.38432 5.77571,6.18726 4.58836,6.36265 -1.8179,0.26853 z m -86.90359,-9.48478 c -2.42849,-3.46708 -2.26074,-5.76411 0.69525,-9.52209 2.13612,-2.7156 3.11188,-3.08409 6.84183,-2.5838 2.3927,0.32093 7.54135,2.55314 11.44159,4.96047 4.50449,2.78032 9.16369,4.64285 12.77249,5.10582 3.12468,0.40086 5.68134,0.55199 5.68134,0.33587 0,-0.21613 -1.29799,-2.44914 -2.88444,-4.96224 -3.76746,-5.9679 -3.63846,-6.60841 0.6108,-3.03293 4.36188,3.67028 9.57927,4.74369 21.2385,4.36952 l 5.69622,-0.18281 -3.30455,-3.44932 c -4.6216,-4.82388 -3.19921,-5.25636 1.90454,-0.57911 4.78671,4.3867 4.48695,4.69559 -5.588,5.7574 -4.28112,0.45119 -8.88505,0.12391 -12.71168,-0.90365 -5.72531,-1.53744 -5.94753,-1.51403 -4.86298,0.51249 0.62513,1.16796 1.63746,2.12354 2.24966,2.12354 0.61232,0 1.11328,0.59185 1.11328,1.3152 0,2.22445 -12.36601,0.26837 -18.27522,-2.89084 -13.49971,-7.21723 -15.19855,-7.84219 -18.41172,-6.77305 -1.78801,0.59493 -3.57764,2.33633 -4.19435,4.08135 -2.05742,5.82108 5.76107,10.34571 8.9859,5.20022 0.93467,-1.49147 0.71638,-2.51159 -0.92637,-4.32668 -2.24964,-2.48595 -2.03861,-2.84015 0.99836,-1.67477 2.1562,0.8274 2.44625,6.29336 0.44051,8.29916 -2.29499,2.29494 -7.53223,1.64529 -9.51096,-1.17975 z m 53.1798,-14.37887 c -1.6881,-1.68815 -0.36471,-2.10165 7.20353,-2.25065 9.36295,-0.18433 15.04912,-1.83181 21.75825,-6.30402 5.3757,-3.58339 6.83316,-2.87825 1.73068,0.83728 -4.65483,3.38948 -11.91487,5.99517 -18.92376,6.79183 -3.39408,0.38579 -7.26215,0.92021 -8.59581,1.18759 -1.33353,0.26738 -2.76135,0.14947 -3.17289,-0.26203 z m 80.42199,294.46979 4.18869,-2.84247 2.84258,2.84247 c 3.72406,3.72405 8.08674,3.64077 11.66728,-0.22269 1.56245,-1.6859 2.96556,-2.8541 3.11786,-2.59601 0.15231,0.25811 0.84907,1.50766 1.54827,2.77682 0.88507,1.60653 2.70481,2.41429 5.98951,2.65899 3.95759,0.29481 5.02034,-0.10956 6.59283,-2.50957 l 1.87455,-2.86104 4.12328,2.79804 c 11.28862,7.66064 17.30304,-0.37649 12.25824,-16.38072 -2.5652,-8.13762 -1.1547,-12.71238 7.11297,-23.06977 3.48637,-4.36752 6.34188,-9.02927 6.34533,-10.35923 0,-2.12054 -0.64496,-2.40461 -5.28489,-2.30758 -4.44022,0.0935 -5.73927,-0.41005 -8.07648,-3.12662 -3.80148,-4.41852 -3.57557,-9.47879 0.67381,-15.09402 l 3.39477,-4.48591 -6.02287,-4.31584 c -3.31262,-2.37379 -9.28633,-7.98984 -13.27496,-12.48024 -8.95785,-10.08474 -17.76618,-14.86705 -29.38073,-15.95162 l -7.7878,-0.72724 0.012,6.22421 c 0.015,8.0128 3.57627,15.72097 13.2978,28.77752 11.05324,14.84516 11.82501,17.14337 12.27256,36.54688 l 0.37843,16.41013 -3.19839,3.20418 c -2.89011,2.89518 -4.19331,3.26463 -13.51887,3.83251 -8.87847,0.54066 -10.74368,1.02434 -13.34892,3.46134 -3.46031,3.23684 -4.49502,4.99739 -5.56341,9.46715 -0.62271,2.6049 -0.37037,3.17291 1.41003,3.17291 1.19267,0 4.05347,-1.2792 6.35723,-2.84258 z M 619.95197,428.04872 c 0,-2.07472 0.87804,-2.62831 5.19583,-3.27582 l 5.19583,-0.77914 -3.46515,-2.91585 c -4.11681,-3.46399 -4.49768,-6.17019 -0.86915,-6.17619 3.61388,0 9.73423,-3.96255 10.66476,-6.89421 0.43244,-1.36261 0.1605,-3.18317 -0.61519,-4.11785 -2.02594,-2.44105 -5.83491,-2.073 -6.5424,0.63227 -0.76047,2.90812 -2.03368,2.91574 -4.9201,0.0288 -4.34202,-4.34214 -4.43952,-13.32998 -0.20131,-18.564 1.99741,-2.46667 1.97964,-2.62843 -0.56687,-5.17495 -2.73942,-2.73942 -4.69578,-8.16139 -3.40897,-9.4482 0.40949,-0.40949 2.57376,-0.0832 4.80954,0.7255 3.17695,1.14882 4.43112,1.16624 5.73996,0.0796 3.96462,-3.29036 -0.33067,-7.52128 -6.68859,-6.5881 -2.55874,0.37556 -3.61585,0 -3.98331,-1.4015 -0.27796,-1.06298 -2.51605,-2.45087 -5.03765,-3.12386 -4.50575,-1.20271 -4.53752,-1.18806 -4.53752,2.08984 0,3.59196 -1.94186,4.26958 -5.63174,1.96524 -2.99824,-1.87248 -5.9061,-0.41882 -5.9061,2.95253 0,3.14556 2.99583,4.69681 8.36494,4.33153 4.11815,-0.28026 4.27138,2.95333 0.36022,7.60146 l -2.81268,3.34262 2.22818,3.38012 c 3.30004,5.00604 3.02225,13.32031 -0.58301,17.44958 l -2.82638,3.23729 -1.85416,-2.59601 c -2.57673,-3.60764 -6.10127,-3.36582 -7.06776,0.48493 -0.63287,2.52159 -0.10968,3.67389 2.88067,6.34581 2.00967,1.79563 4.94378,3.26485 6.52023,3.26485 3.90119,0 3.74864,3.23948 -0.30666,6.51209 l -3.17291,2.56046 4.90358,0.80314 c 2.69697,0.44179 4.90358,1.27286 4.90358,1.84663 0,2.20061 1.12822,8.88531 4.49079,9.04577 2.98906,0.14263 4.67334,-4.53017 4.7395,-7.62434 z m 62.05286,-24.15824 c 4.4551,-1.85424 14.0968,-10.47542 14.0968,-12.60473 0,-0.66989 -2.66131,-3.76041 -5.91395,-6.86802 -6.84504,-6.53952 -14.29074,-17.55283 -16.21999,-23.99208 -1.00587,-3.35753 -5.86663,-9.10509 -19.55812,-23.12643 l -18.21961,-18.65852 -5.25109,1.4044 c -2.88815,0.77245 -6.41191,1.42318 -7.8306,1.44602 -2.44499,0.0392 -2.40069,0.18749 0.84986,2.84374 l 3.4294,2.80231 4.80781,-2.81754 c 4.66025,-2.73113 4.82615,-2.74797 5.40085,-0.55002 0.33657,1.2867 -0.3894,3.51663 -1.67783,5.15476 -1.24909,1.58784 -1.96062,3.38912 -1.58138,4.00283 0.37925,0.61357 -0.82068,1.89669 -2.6665,2.85122 -3.42118,1.76921 -5.79579,7.59305 -3.09595,7.59305 2.42896,0 7.78504,-6.97798 7.16788,-9.33815 -0.31614,-1.20858 -0.16326,-2.45167 0.33967,-2.76251 2.08604,-1.28922 1.95566,4.18927 -0.16372,6.88381 -1.24909,1.58784 -1.96062,3.38913 -1.58138,4.00283 0.37925,0.61357 -0.82068,1.89671 -2.6665,2.85123 -3.39903,1.75767 -5.79753,7.59303 -3.12109,7.59303 2.62312,0 7.8913,-6.66804 7.23894,-9.16241 -0.34129,-1.30527 -0.20918,-2.6274 0.29375,-2.93822 1.40496,-0.86834 2.16289,3.45661 0.97691,5.57564 -0.63527,1.13522 -0.6295,2.68475 0.015,3.91365 1.16682,2.22621 -0.0162,6.50168 -2.16658,7.83073 -0.92174,0.56962 -0.29755,1.68739 1.93824,3.47023 3.23521,2.57997 3.29799,2.85088 3.29799,14.23479 0,9.51339 0.36378,11.96876 2.0191,13.62477 1.8576,1.85853 2.01914,1.86522 2.01914,0.0832 0,-1.94653 3.236,-4.32599 5.88313,-4.32599 0.78087,0 5.65953,4.36559 10.84129,9.70125 5.21324,5.36809 10.66846,9.93602 12.21301,10.2269 1.53535,0.28914 3.19761,0.59639 3.69396,0.6828 0.49624,0.0865 2.83265,-0.64623 5.19202,-1.62822 z m -55.70705,-46.03211 c 0,-3.06689 -5.99125,-6.34051 -13.15716,-7.18923 -5.78559,-0.68524 -5.88028,-0.64647 -5.88028,2.40518 0,2.52608 0.90979,3.51984 4.90357,5.35585 6.41736,2.95012 14.13387,2.63802 14.13387,-0.5718 z m 6.57102,-0.2805 c 2.92242,-2.79989 4.30707,-6.12993 2.54883,-6.12993 -2.02212,0 -7.38918,5.0853 -7.38918,7.00128 0,2.99048 0.99687,2.81096 4.84035,-0.87135 z m -6.23343,-9.06573 c 0.24761,-1.73033 -0.76599,-2.88515 -3.80436,-4.33396 -6.55407,-3.12547 -14.38996,-4.57301 -16.27697,-3.00688 -3.47587,2.8847 -1.15987,6.75783 4.45756,7.4546 2.26159,0.28047 5.32824,1.00875 6.81464,1.61841 4.31746,1.7706 8.4233,0.9633 8.80913,-1.73217 z m 0,-9.26776 c 0.35283,-2.4684 -1.1419,-3.35174 -13.34592,-7.88725 -9.11076,-3.3859 -13.1437,-1.7893 -10.23204,4.05092 1.01429,2.03447 2.71673,2.96385 6.5346,3.56749 2.83965,0.44906 6.7206,1.32696 8.62434,1.95105 5.08598,1.66711 8.02419,1.08007 8.41902,-1.68221 z m 6.11724,-8.68661 c 1.84134,-1.97076 3.34771,-4.29667 3.34771,-5.16847 0,-2.82815 -7.27183,2.17523 -8.19878,5.64108 -1.11179,4.15718 0.69054,3.9817 4.85143,-0.47261 z m -6.11205,-0.58368 c 0.40142,-2.81178 -4.02716,-5.35101 -12.73602,-7.30277 -6.38953,-1.43194 -9.20775,-0.61981 -8.72925,2.51537 0.26119,1.71141 2.38914,2.96177 8.42592,4.95112 9.66085,3.18339 12.56677,3.14694 13.03935,-0.16372 z m 8.51619,-13.08864 c 11.15951,-5.24555 12.12487,-18.473 1.60169,-21.94593 -4.36926,-1.44201 -7.15841,-0.66503 -8.83095,2.45995 -1.28058,2.39283 -0.42411,6.74336 1.32754,6.74336 0.59178,0 1.07603,0.80531 1.07603,1.78956 0,4.59295 -17.0386,6.67404 -24.02615,2.93439 -2.45479,-1.3138 -3.52357,-4.72395 -1.4805,-4.72395 1.52666,0 2.58222,-3.47486 1.80213,-5.93268 -1.06278,-3.34851 -4.25895,-4.50863 -8.89497,-3.22855 -10.46034,2.88823 -10.1667,15.86681 0.4836,21.37427 8.73307,4.51602 27.87702,4.79051 36.94158,0.52958 z m -6.94324,-10.16352 c 0.64624,-0.64627 0.36541,-1.63938 -0.71798,-2.53851 -2.37252,-1.96898 -2.24597,-4.89749 0.3564,-8.24991 1.95427,-2.51754 2.19841,-6.28499 2.87106,-44.28779 1.15898,-65.4911 5.77134,-114.75267 11.85074,-126.57034 2.42028,-4.70489 2.08084,-4.72362 -4.17335,-0.23049 -8.05629,5.78808 -14.19049,13.32517 -19.62537,24.11418 -10.26126,20.36956 -13.82686,47.7742 -13.82686,106.27071 0,33.21582 0.2143,37.56159 2.00608,40.68362 1.70208,2.96572 1.79255,4.06105 0.59694,7.22855 -0.775,2.05323 -1.12668,4.01561 -0.78149,4.3608 2.29085,2.29088 18.98017,1.68317 21.44407,-0.78082 z m 93.76573,-62.4504 c 0.3496,-0.56561 -0.42285,-3.42121 -1.71648,-6.3458 -2.01681,-4.56 -2.82919,-5.31742 -5.70246,-5.31742 -9.00078,0 -23.47035,-4.24717 -38.38737,-11.26759 -8.61403,-4.05407 -11.58918,-4.98574 -12.62239,-3.95262 -2.63559,2.63562 1.74475,8.89145 8.52829,12.17988 6.0179,2.9172 22.84121,6.50168 30.51513,6.50168 4.45199,0 4.55721,0.21214 2.02373,4.07883 l -1.86347,2.84388 5.03638,0.1365 c 2.76989,0.0751 6.59387,0.53286 8.49761,1.01727 4.94442,1.25817 4.99069,1.25918 5.69138,0.12539 z"
                   transform="translate(0,-100)"
                   inkscape:connector-curvature="0"
                   style="stroke:#000000;stroke-width:5.09000015" />
                <path
                   id="path4200"
                   d="m 693.63096,375.98539 3.88421,-2.36802 1.66169,2.37229 c 2.21376,3.16067 8.33941,3.12491 12.40407,-0.0727 l 3.10806,-2.44475 2.60248,2.44475 c 3.42167,3.21456 9.81177,3.21882 13.892,0.012 2.85654,-2.24687 3.25482,-2.29199 5.14357,-0.58278 1.12598,1.01902 4.42844,2.17915 7.33886,2.57801 5.24164,0.71847 5.32101,0.67901 8.38777,-4.17911 2.56843,-4.06859 2.97018,-5.71528 2.35729,-9.66132 -0.40624,-2.6161 -0.84388,-6.8267 -0.97252,-9.35683 -0.23272,-4.58121 -0.20768,-4.60971 6.11216,-6.93331 3.4902,-1.28324 7.53027,-3.00434 8.97793,-3.82468 2.52402,-1.43023 9.4826,-10.06606 9.4826,-11.76811 0,-0.45101 -2.71854,-1.1419 -6.0411,-1.53546 -13.21599,-1.56522 -15.45423,-9.05892 -6.86269,-22.97781 14.01142,-22.69987 22.46645,-44.80634 22.52298,-58.88884 0.0254,-6.29458 0.36484,-8.40808 1.13083,-7.03923 3.13056,5.59399 -2.47775,29.04913 -10.97328,45.89263 l -3.42074,6.78228 3.26418,-0.79345 c 1.79527,-0.43637 12.35031,-5.13861 23.45547,-10.44935 30.39674,-14.53674 40.83722,-17.38542 60.50909,-16.51052 16.48086,0.733 23.49945,4.13274 35.13568,17.01979 6.16445,6.82705 12.10273,11.71182 22.96571,18.89169 23.1436,15.29674 24.10874,16.62175 25.20945,34.61083 1.11513,18.22641 0.56016,19.21521 -12.49592,22.26097 -11.15857,2.60316 -18.15466,8.09609 -20.03094,15.72722 -1.00194,4.07538 1.10659,4.19273 6.73255,0.37486 l 4.12316,-2.79804 1.83336,2.79804 c 2.41025,3.6786 7.5335,3.69326 11.78774,0.0335 l 3.21362,-2.76424 3.28505,2.76424 c 5.10423,4.29484 11.89205,3.25332 13.80767,-2.1187 0.36829,-1.03251 1.35108,-0.70172 3.34124,1.1246 3.72904,3.42212 13.28812,4.88996 14.32064,2.19922 0.39401,-1.02663 -0.35445,-3.56208 -1.66318,-5.63426 -5.56158,-8.80567 -7.30137,-13.00511 -7.37382,-17.79838 -0.10044,-6.66691 1.78327,-9.88364 8.96478,-15.3056 8.72373,-6.5865 11.41956,-15.08411 4.7853,-15.08411 -4.09616,0 -8.22555,-3.82295 -10.85894,-10.05325 -5.35309,-12.66462 -4.30395,-26.86248 3.73029,-50.48156 8.16059,-23.99074 9.06585,-28.41434 9.09851,-44.45942 0.0266,-12.97322 -0.2829,-15.2167 -3.0783,-22.32903 -1.7091,-4.34871 -5.17691,-10.82389 -7.70622,-14.38929 l -4.59887,-6.48254 5.90448,-5.1651 c 18.02879,-15.77106 14.34071,-41.58235 -7.3624,-51.52739 -6.63944,-3.04243 -8.29835,-3.3111 -19.93379,-3.2285 -6.98038,0.0496 -17.62402,1.01949 -23.65254,2.15547 -6.14666,1.15821 -16.55089,2.08906 -23.68785,2.11932 -11.33777,0.0481 -13.26239,-0.24696 -17.63177,-2.70268 -4.55594,-2.56061 -5.33705,-3.77633 -6.22904,-9.69467 -0.18334,-1.21659 -0.9889,-2.43022 -1.78998,-2.69698 -1.54965,-0.51595 -8.70609,6.04222 -9.76342,8.94717 -0.52163,1.43336 -0.94738,1.33426 -2.47775,-0.5769 -1.01636,-1.26916 -2.4354,-4.18544 -3.15351,-6.4806 -1.8058,-5.77223 0.41167,-10.099205 6.83742,-13.341965 l 4.98538,-2.515836 -2.93972,-1.92624 c -6.06625,-3.974724 -16.38106,-1.255692 -20.11147,5.30154 -1.05525,1.85484 -2.20626,3.375732 -2.55769,3.37974 -0.35146,0.0024 -2.35719,-1.765452 -4.45731,-3.93216 -7.83234,-8.08098 -5.13813,-20.036508 5.33787,-23.686608 5.58627,-1.946424 10.52988,-0.46164 11.55847,3.471588 1.57031,6.004884 6.45173,-1.88832 5.57624,-9.016788 -0.58209,-4.739292 -0.49463,-4.90356 2.61111,-4.90356 4.31896,0 13.51172,5.985348 16.35499,10.648632 3.30248,5.41656 3.06215,13.946136 -0.57205,20.303004 l -2.85364,4.991532 3.73283,-0.7893 c 5.47377,-1.157412 10.79167,-4.746732 13.48196,-9.09966 2.84406,-4.601856 3.14993,-13.562352 0.62788,-18.398064 -2.44393,-4.686156 -2.16367,-5.430084 1.44938,-3.846516 6.14517,2.6934 9.43057,5.663856 11.89492,10.754484 2.21931,4.584492 2.34323,5.723736 1.14179,10.495272 -0.7413,2.943888 -2.39064,6.817104 -3.66533,8.607108 -1.98463,2.78724 -2.05236,3.254556 -0.47109,3.254556 2.94491,0 9.094,-2.943 11.27798,-5.397744 1.10337,-1.240176 2.71197,-4.293876 3.57477,-6.786024 l 1.5688,-4.531152 1.80255,3.4539 c 2.54906,4.884 7.50455,9.27894 13.54646,12.013884 6.4981,2.941476 9.2043,3.107208 5.80617,0.35556 -2.29153,-1.855596 -6.51403,-14.938176 -5.23437,-16.217844 0.75297,-0.752952 9.57582,6.415008 19.64916,15.963516 9.52908,9.032725 15.51699,11.991375 24.26901,11.991435 11.18015,7e-5 17.68979,-10.276299 12.66495,-19.993275 -2.92956,-5.665212 -9.45606,-6.452208 -13.27242,-1.600452 -1.7549,2.231004 -2.23672,4.005732 -1.72271,6.345804 0.62963,2.86662 0.38399,3.248604 -2.0895,3.248604 -3.24975,0 -9.65578,-4.39026 -21.03288,-14.414556 -17.34898,-15.285984 -38.4295,-28.242852 -53.6509,-32.975796 -9.7685,-3.03738 -30.63547,-4.222692 -40.56549,-2.30424 -10.74738,2.076396 -23.4594,8.570712 -30.38465,15.522828 -12.27117,12.31896 -12.46581,28.712172 -0.51804,43.639943 l 3.42247,4.27617 -2.31704,3.80031 c -3.37077,5.52868 -3.0821,12.9687 0.71582,18.44903 1.67275,2.41379 3.36016,4.38768 3.7498,4.38641 0.38962,-10e-4 0.81686,-1.55309 0.94932,-3.44853 0.33541,-4.79493 2.28438,-8.00757 5.62965,-9.27945 3.01299,-1.14553 4.9608,-0.60449 18.75658,5.20991 14.51321,6.11671 38.38163,6.53716 63.76151,1.12315 12.44215,-2.65416 27.11342,-2.49805 33.56802,0.35714 11.83206,5.2339 14.57378,18.85053 5.87668,29.18647 -3.76502,4.47444 -7.39609,6.2966 -19.58731,9.82948 -9.27699,2.68836 -11.47437,2.86684 -32.5602,2.64456 -18.01447,-0.1899 -24.48859,0.17538 -31.84209,1.79662 -7.98326,1.76002 -12.89342,1.93749 -36.34416,1.3135 l -27.11388,-0.72146 3.00674,2.62889 c 1.65372,1.44588 3.99013,3.22484 5.19202,3.95325 2.04508,1.23944 1.97689,1.40596 -1.06275,2.59601 -1.7864,0.69941 -5.75126,1.27163 -8.81085,1.27163 h -5.56274 l -0.74858,4.9917 c -0.41178,2.74546 -0.38051,5.9508 0.0692,7.12301 0.66343,1.72891 0.41617,1.97719 -1.30943,1.31501 -1.16994,-0.44896 -4.42832,-1.33198 -7.2408,-1.96227 -2.81245,-0.6303 -6.59825,-1.91376 -8.41291,-2.85213 -3.05153,-1.57803 -3.39062,-1.53562 -4.51463,0.56464 -1.00368,1.87552 -10.42651,9.28056 -11.80944,9.28056 -0.22314,0 -0.51123,-1.4278 -0.64011,-3.17289 -0.12888,-1.7451 -1.48827,-6.28812 -3.02085,-10.0956 -1.53267,-3.80748 -3.13297,-7.96111 -3.55631,-9.23027 -0.6386,-1.91452 -0.92774,-2.01277 -1.69789,-0.5769 -0.51055,0.95188 -1.25601,3.54788 -1.65649,5.76893 -0.40049,2.22103 -1.82033,5.82913 -3.15524,8.018 l -2.4271,3.97977 -1.54804,-3.40288 c -1.66179,-3.65298 -4.4207,-7.4411 -5.41954,-7.4411 -0.33713,0 -0.91137,1.1682 -1.27596,2.596 -0.76139,2.98166 -7.30358,11.24938 -8.90145,11.24938 -0.58842,0 -1.06979,-2.3364 -1.06979,-5.19202 0,-2.85561 -0.51919,-5.19202 -1.15377,-5.19202 -0.63457,0 -1.15378,0.73896 -1.15378,1.64215 0,2.19541 -5.5872,8.74189 -7.46094,8.74189 -0.81768,0 -2.13312,0.7788 -2.9231,1.73068 -2.05985,2.48186 -3.74483,2.13361 -2.8788,-0.595 0.40601,-1.27914 0.14202,-4.26455 -0.58671,-6.63426 -0.72873,-2.36971 -1.50361,-4.89185 -1.7219,-5.60472 -0.27506,-0.89782 -2.27723,-0.65966 -6.51472,0.77486 -6.84759,2.31812 -9.14281,1.908 -5.62112,-1.00436 1.2874,-1.06464 3.24547,-4.75244 4.35149,-8.19514 1.10591,-3.44269 2.7377,-6.49734 3.62623,-6.78812 1.24411,-0.40721 1.1779,0.096 -0.28844,2.18946 -1.04718,1.495 -1.90709,3.51125 -1.91102,4.48057 0,0.96933 -0.79195,3.26745 -1.75134,5.10695 -0.95924,1.83953 -1.56232,3.52644 -1.33999,3.74872 0.22222,0.22227 2.82759,-0.82276 5.78957,-2.32232 l 5.3854,-2.72642 0.0218,2.43907 c 0.0127,1.34151 0.66123,4.88051 1.44223,7.86449 l 1.41996,5.42536 3.6659,-1.77908 c 3.74657,-1.81821 7.29504,-8.30002 7.29504,-13.32555 0,-2.48433 1.34772,-2.10298 1.89958,0.53747 0.162,0.77486 1.00795,3.68305 1.87997,6.46263 l 1.58553,5.0538 2.50993,-3.19089 c 1.38051,-1.75499 3.11117,-5.19742 3.84591,-7.64981 1.2755,-4.25733 3.27824,-6.08765 3.27824,-2.99607 0,2.22789 5.75784,10.21799 6.86859,9.5315 0.53685,-0.33176 1.60582,-3.33059 2.37552,-6.66411 1.60088,-6.93247 4.1835,-11.64729 5.82453,-10.63309 0.61704,0.38136 0.85737,1.12148 0.53397,1.64472 -0.32342,0.52321 1.00275,5.03035 2.94699,10.01586 1.94424,4.98552 3.89656,10.00507 4.33858,11.1546 0.71013,1.84699 1.352,1.5787 5.51957,-2.30758 2.5937,-2.41868 4.94788,-5.12623 5.23137,-6.01676 0.42852,-1.34627 1.00713,-1.29702 3.43249,0.29218 3.39178,2.22238 14.79519,5.80322 15.67588,4.92248 0.32987,-0.32983 0.66804,-3.49212 0.75157,-7.02731 l 0.15184,-6.42758 3.27927,0.71805 c 1.80359,0.39495 5.59596,0.37066 8.42747,-0.0541 l 5.14817,-0.772 -4.58801,-3.32361 c -2.52355,-1.82797 -5.07504,-4.19355 -5.67005,-5.25681 -0.63387,-1.13273 -2.87971,-2.09456 -5.4238,-2.32284 -6.87389,-0.61678 -19.05669,-7.83174 -19.05669,-11.28587 0,-0.64845 1.68742,0.45414 3.7498,2.45021 4.5752,4.4281 10.9314,7.2075 16.48283,7.2075 h 4.15395 l -2.5697,-3.60875 c -1.47616,-2.073 -2.8,-6.00541 -3.11082,-9.24048 -0.49545,-5.15664 -1.01095,-5.97657 -6.11032,-9.71983 -3.06294,-2.24848 -6.85693,-5.61862 -8.43092,-7.48922 l -2.86186,-3.40108 -1.4601,4.03807 c -0.80315,2.22095 -1.78467,4.03808 -2.18111,4.03808 -0.39644,0 -1.94031,-1.29801 -3.43066,-2.88446 -1.49045,-1.58645 -3.00872,-2.8785 -3.374,-2.87123 -0.36541,0.007 -1.68567,2.1442 -2.93396,4.74868 l -2.26972,4.73542 -1.75387,-2.72954 c -0.96468,-1.50126 -3.24329,-4.15735 -5.06348,-5.90245 -1.82021,-1.74509 -2.77762,-3.1729 -2.12747,-3.1729 0.65004,0 2.89669,1.81792 4.99254,4.03983 l 3.81037,4.03981 1.5508,-2.95977 c 0.92025,-1.7564 1.26512,-4.45438 0.84825,-6.63583 -0.60769,-3.17967 -0.52231,-3.36447 0.63228,-1.3685 0.73427,1.26917 2.96338,3.70238 4.95377,5.40713 l 3.61896,3.09957 2.49736,-4.83024 c 2.48546,-4.80704 2.5029,-4.81639 3.63372,-1.94579 1.51226,3.839 12.45647,13.31169 21.77396,18.8462 1.4361,0.85304 0.83059,-2.08034 -1.8216,-8.8257 -0.70242,-1.78641 -1.27712,-5.00696 -1.27712,-7.15678 0,-3.18938 -0.87135,-4.60889 -4.73445,-7.71292 -5.57702,-4.48129 -7.38062,-7.66806 -8.43159,-14.89776 -0.42575,-2.92857 -1.40175,-6.18574 -2.169,-7.23817 -1.13809,-1.56133 -1.32616,-0.68756 -1.02167,4.7478 0.20525,3.66369 -0.24599,8.21887 -1.00288,10.12263 l -1.376,3.46134 -1.06367,-2.88447 c -0.58497,-1.58645 -3.17244,-4.34537 -5.7501,-6.13092 -2.57756,-1.78556 -4.38668,-3.54632 -4.02012,-3.91279 0.36642,-0.36648 3.01817,1.26084 5.8926,3.61625 4.37905,3.58829 5.34361,3.97679 5.95015,2.39634 0.71259,-1.85706 -9.9e-4,-9.93672 -1.37761,-15.58319 -0.68707,-2.819425 -0.62695,-2.804257 2.66698,0.67324 2.4294,2.56479 3.77275,5.62383 4.81346,10.96093 1.32211,6.78029 1.98912,7.90903 7.9266,13.4138 3.56565,3.30579 6.66864,5.82491 6.89557,5.59803 0.22685,-0.2269 0.67683,-8.77846 0.99988,-19.00349 0.61957,-19.607979 -0.0808,-24.273291 -4.55282,-30.331215 l -2.29778,-3.112644 3.61216,-4.114056 c 4.71217,-5.366868 6.87574,-9.66882 7.81423,-15.53784 l 0.76344,-4.77444 -4.07642,4.076436 c -3.3379,3.337884 -4.93195,4.076424 -8.79805,4.076424 -3.82826,0 -5.32366,-0.6774 -7.90341,-3.580032 -3.09525,-3.482616 -8.58,-6.83358 -13.85427,-8.464392 -1.94841,-0.602424 -2.59602,-0.340008 -2.59602,1.051704 0,1.019916 -1.07625,3.963948 -2.39166,6.54228 l -2.39157,4.687896 -5.01089,-5.22972 c -3.07368,-3.20778 -6.72135,-5.704644 -9.43471,-6.458088 -6.93272,-1.925064 -7.30818,-1.733916 -7.30818,3.720012 0,8.272776 -3.34514,9.81408 -9.36547,4.315332 -4.5894,-4.191732 -8.39642,-5.103036 -17.09894,-4.092996 l -6.72136,0.780084 1.2094,3.203904 c 1.01013,2.676192 0.78248,3.803256 -1.38177,6.842724 -3.51039,4.929804 -8.07465,7.065336 -15.10073,7.065336 -3.23601,0 -7.28556,0.707076 -8.99916,1.57128 -1.71358,0.864204 -5.97116,1.859856 -9.46135,2.212536 -3.4902,0.352704 -7.21022,0.9822 -8.26662,1.398912 -1.65314,0.652044 -1.83463,0.11472 -1.30217,-3.855492 0.81503,-6.075864 -3.20451,-10.557492 -9.46862,-10.557492 -8.12748,0 -11.87623,7.676292 -8.69341,17.801712 0.61255,1.9488 1.41408,5.022156 1.7811,6.829704 0.38085,1.875252 4.0418,6.851544 8.52588,11.589041 4.32218,4.56644 8.40703,9.31798 9.0776,10.55896 0.67059,1.241 2.88745,3.23252 4.92642,4.42562 l 3.70734,2.16928 -0.48897,-4.1884 c -0.53745,-4.60318 0.41247,-5.32535 2.73204,-2.07706 0.82911,1.16122 2.93546,3.03815 4.68055,4.17094 2.74899,1.78447 3.17289,1.82072 3.17289,0.27134 0,-0.98354 0.5604,-3.24988 1.24529,-5.03628 l 1.2454,-3.248 2.16079,4.41921 c 1.18841,2.43059 5.05322,7.95462 8.58841,12.27567 6.85949,8.38436 11.03893,17.75377 8.88183,19.91094 -0.87491,0.87484 -3.23993,0.80713 -8.14167,-0.23309 -3.79976,-0.80635 -8.49969,-1.23259 -10.44438,-0.94717 -3.97134,0.58286 -4.28412,0.0415 -1.84167,-3.18756 2.57776,-3.4082 2.16772,-3.97032 -2.89647,-3.97032 -5.85901,0 -20.40498,-2.96565 -25.98848,-5.29854 -5.42923,-2.26852 -6.6819,-1.70367 -8.28,3.7337 -0.71927,2.44711 -2.0362,6.88128 -2.92647,9.8537 l -1.61863,5.4044 5.87412,-0.59732 c 3.23083,-0.32853 7.38618,-1.07544 9.23419,-1.65982 1.84802,-0.58436 3.52758,-0.89492 3.73238,-0.69014 0.2048,0.2048 -0.61889,2.31657 -1.83036,4.69281 l -2.20269,4.32044 3.66234,-0.78831 c 2.01438,-0.43358 5.04491,-1.49448 6.73463,-2.35758 2.94018,-1.50183 3.17624,-1.39278 5.49535,2.5377 2.8518,4.83356 5.13318,4.63496 5.63934,-0.49094 0.52336,-5.29917 2.17419,-4.51534 5.2797,2.50685 2.98623,6.75243 6.09313,9.13649 6.69011,5.13355 0.1981,-1.32904 1.80682,-3.49249 3.57475,-4.80765 3.57616,-2.6602 6.27106,-1.8621 7.8162,2.31468 1.59936,4.32353 -1.96766,8.77997 -12.34352,15.42107 -20.78412,13.30308 -32.86584,31.49718 -36.31497,54.68746 -3.11094,20.91681 6.60542,42.53132 26.09765,58.0557 9.32799,7.4292 24.14637,15.27008 23.20476,12.27831 -3.999,-12.70602 -3.86736,-36.94941 0.22302,-41.03969 0.61383,-0.61382 0.40269,1.91586 -0.46923,5.62158 -3.24767,13.80373 -1.83682,24.80251 6.4883,50.58125 7.52958,23.31506 6.48737,33.27993 -4.16944,39.86618 -3.42268,2.11535 -5.6263,2.46391 -14.82898,2.34599 -9.98542,-0.12806 -11.07344,0.0842 -14.27933,2.78143 -3.10795,2.61527 -7.13765,11.2015 -7.13765,15.20859 0,2.17062 2.28276,1.88332 6.76867,-0.85149 z M 774.54978,173.7815 c 0,-1.69272 -4.70779,-6.28018 -9.47822,-9.23598 -3.74633,-2.32135 -4.36522,-2.39189 -4.37363,-0.4986 -0.0127,2.87442 -2.43345,10.0956 -3.38405,10.0956 -0.53605,0 -1.3287,-1.41115 -1.76159,-3.13588 -0.43291,-1.72474 -2.24895,-5.12384 -4.03581,-7.55358 l -3.24882,-4.41768 -2.52968,4.09308 c -2.35822,3.81566 -6.4433,7.55272 -8.25624,7.55272 -0.433,0 -0.5177,-2.0095 -0.1883,-4.46555 0.35791,-2.66849 0.082,-4.7853 -0.68672,-5.26013 -0.70704,-0.437 -1.28555,-0.28454 -1.28555,0.3388 0,1.4378 -5.67304,8.23309 -6.87343,8.23309 -0.49463,0 -1.18701,-1.94701 -1.5388,-4.32669 -0.35167,-2.37968 -0.94945,-6.1439 -1.32835,-8.36492 -0.37891,-2.22103 0.42897,-0.71486 1.7954,3.34703 l 2.48445,7.38526 2.72442,-4.50081 c 1.49842,-2.47544 2.72707,-5.18046 2.73031,-6.01113 0,-0.83068 0.51008,-1.19873 1.12632,-0.81791 0.61613,0.38082 1.47372,3.35642 1.90559,6.61243 l 0.78538,5.92003 2.99787,-3.47061 c 1.64887,-1.90884 3.581,-4.46439 4.29357,-5.67901 1.27148,-2.1673 1.34348,-2.16548 3.87255,0.0994 1.41731,1.26915 3.59634,4.30489 4.8422,6.74607 1.24597,2.44115 2.43207,4.25836 2.63593,4.03823 0.20376,-0.22014 0.66032,-2.73667 1.01464,-5.59228 0.35422,-2.85561 0.67046,-5.29792 0.70265,-5.42736 0.1763,-0.70758 9.03043,5.36944 12.30636,8.44643 2.10554,1.97776 4.10528,3.31903 4.44369,2.9806 0.33852,-0.33849 0.61544,-3.25636 0.61544,-6.48421 0,-5.00204 -0.50214,-6.3427 -3.39965,-9.07748 -3.33154,-3.14439 -3.42475,-3.16166 -4.65573,-0.86158 -1.59765,2.98518 -3.48246,3.02829 -3.48246,0.0796 0,-2.15214 -6.29574,-10.42422 -7.93365,-10.42422 -0.42459,0 -1.75051,1.81722 -2.94664,4.03825 -1.19613,2.22102 -2.48237,4.03615 -2.85837,4.03363 -1.61496,-0.0108 -10.49043,-10.45943 -10.4865,-12.34504 0,-1.50013 0.59811,-1.11652 2.1541,1.38872 1.18228,1.90374 3.54419,4.74574 5.24844,6.31557 3.45096,3.17869 4.70548,2.40579 6.03717,-3.71957 0.37937,-1.7451 1.03875,-3.1729 1.46519,-3.1729 1.47534,0 9.20164,8.66468 10.28827,11.53782 l 1.09091,2.88446 0.82633,-3.1729 c 1.01037,-3.87993 2.12527,-4.02424 3.73849,-0.48382 0.67382,1.479 4.00225,4.55391 7.39633,6.83313 l 6.17113,4.14405 1.23848,-4.16808 c 0.68118,-2.29244 1.58355,-3.60978 2.00526,-2.92743 0.62892,1.01752 -0.97518,7.92423 -2.1855,9.41028 -0.18137,0.22273 -2.1811,-1.00711 -4.4439,-2.73295 l -4.11393,-3.13792 -0.0162,5.6174 c -0.012,3.08958 -0.32883,6.78564 -0.71153,8.21343 -0.74823,2.79174 -2.73412,3.57709 -2.73412,1.08119 z M 743.7792,128.99412 c -7.33424,-6.46574 -8.44765,-7.94526 -8.2852,-11.00975 l 0.17284,-3.26166 0.47848,3.15029 c 0.27944,1.83952 2.23268,4.59618 4.6944,6.62539 l 4.21603,3.47513 2.5907,-3.16406 c 1.42503,-1.74022 2.60951,-3.81306 2.63235,-4.60628 0.06,-2.0684 0.41144,-1.89467 5.37698,2.6546 4.41184,4.04201 4.4806,4.06133 5.13676,1.44225 0.36574,-1.46003 0.23594,-4.2088 -0.28845,-6.10836 -1.44153,-5.22144 -1.15909,-6.00945 1.02525,-2.86035 1.08825,1.569 2.83818,3.78704 3.8887,4.92896 1.82864,1.98783 1.94021,1.96324 2.62059,-0.5769 0.39091,-1.4592 0.71777,-4.13004 0.72642,-5.93516 l 0.0162,-3.28208 3.97789,4.76122 c 3.71566,4.44739 4.05798,4.61169 5.19203,2.49258 0.66781,-1.24775 1.22208,-4.24978 1.23179,-6.67118 0.0127,-3.12799 0.32466,-3.91723 1.07808,-2.72619 1.2582,1.98891 0.38467,7.40426 -1.9387,12.01925 l -1.66722,3.31154 -2.1893,-3.59998 c -2.7993,-4.60318 -3.73122,-4.5293 -5.52742,0.43824 -1.69757,4.69448 -2.80139,5.0518 -4.45544,1.44224 -1.07038,-2.33598 -1.27413,-2.04974 -2.0339,2.85765 l -0.84446,5.45365 -5.05956,-4.14596 -5.05968,-4.14596 -2.27456,2.73054 c -1.25106,1.5018 -2.29188,3.37954 -2.313,4.17277 -0.0461,1.71921 -1.26305,1.77291 -3.1181,0.13757 z m 65.24249,-24.08076 c -2.66963,-2.53953 -4.50864,-4.962473 -4.08682,-5.384321 0.42183,-0.421836 0.89685,-0.542676 1.05549,-0.268536 0.15864,0.274152 2.34079,2.697107 4.84923,5.384317 5.77571,6.18726 4.58836,6.36265 -1.8179,0.26854 z M 722.1181,95.428567 c -2.42849,-3.467076 -2.26074,-5.764104 0.69525,-9.522084 2.13612,-2.7156 3.11188,-3.084096 6.84183,-2.583804 2.3927,0.320928 7.54135,2.553144 11.44159,4.960476 4.50449,2.780316 9.16369,4.642848 12.77249,5.10582 3.12468,0.40086 5.68134,0.551988 5.68134,0.335868 0,-0.216132 -1.298,-2.44914 -2.88444,-4.96224 -3.76746,-5.9679 -3.63846,-6.608412 0.6108,-3.032928 4.36188,3.670272 9.57927,4.743684 21.2385,4.369512 l 5.69622,-0.182808 -3.30455,-3.449316 c -4.6216,-4.82388 -3.19921,-5.25636 1.90454,-0.579108 4.78671,4.386696 4.48695,4.695588 -5.588,5.757396 -4.28112,0.451188 -8.88505,0.123912 -12.71169,-0.903648 -5.7253,-1.53744 -5.94752,-1.514028 -4.86297,0.512484 0.62513,1.16796 1.63746,2.123544 2.24966,2.123544 0.61231,0 1.11328,0.591852 1.11328,1.3152 0,2.224452 -12.36601,0.268368 -18.27522,-2.890836 -13.49971,-7.217232 -15.19855,-7.842192 -18.41172,-6.773052 -1.78801,0.594924 -3.57765,2.336328 -4.19435,4.081344 -2.05742,5.82108 5.76107,10.345716 8.9859,5.200224 0.93467,-1.491468 0.71638,-2.511588 -0.92638,-4.326684 -2.24964,-2.485944 -2.0386,-2.840148 0.99837,-1.674768 2.15619,0.8274 2.44625,6.293364 0.44051,8.299164 -2.29499,2.29494 -7.53224,1.645284 -9.51096,-1.179756 z m 53.1798,-14.378868 c -1.6881,-1.688148 -0.36471,-2.101644 7.20352,-2.250648 9.36296,-0.184332 15.04913,-1.831812 21.75826,-6.30402 5.3757,-3.583392 6.83316,-2.878248 1.73068,0.837276 -4.65483,3.389484 -11.91488,5.995176 -18.92376,6.791832 -3.39408,0.385788 -7.26215,0.920208 -8.59581,1.187592 -1.33353,0.267384 -2.76135,0.149472 -3.17289,-0.262032 z m 80.42199,294.469791 4.18869,-2.84247 2.84258,2.84247 c 3.72406,3.72405 8.08674,3.64077 11.66728,-0.22269 1.56244,-1.6859 2.96556,-2.8541 3.11786,-2.596 0.1523,0.2581 0.84907,1.50765 1.54826,2.77681 0.88508,1.60653 2.70482,2.41429 5.98952,2.65899 3.95758,0.29481 5.02034,-0.10956 6.59283,-2.50957 l 1.87455,-2.86104 4.12328,2.79804 c 11.28862,7.66065 17.30304,-0.37649 12.25824,-16.38072 -2.5652,-8.13762 -1.1547,-12.71238 7.11296,-23.06977 3.48638,-4.36752 6.34188,-9.02927 6.34534,-10.35923 0,-2.12054 -0.64496,-2.40461 -5.2849,-2.30757 -4.44021,0.0935 -5.73926,-0.41006 -8.07648,-3.12663 -3.80148,-4.41852 -3.57556,-9.47879 0.67382,-15.09402 l 3.39477,-4.48591 -6.02287,-4.31584 c -3.31262,-2.37379 -9.28633,-7.98984 -13.27496,-12.48024 -8.95785,-10.08474 -17.76618,-14.86705 -29.38073,-15.95162 l -7.7878,-0.72724 0.012,6.22421 c 0.015,8.0128 3.57627,15.72097 13.2978,28.77753 11.05324,14.84515 11.82501,17.14336 12.27256,36.54687 l 0.37843,16.41013 -3.1984,3.20418 c -2.8901,2.89518 -4.1933,3.26463 -13.51886,3.83252 -8.87848,0.54066 -10.74368,1.02433 -13.34892,3.46134 -3.46031,3.23683 -4.49502,4.99738 -5.56342,9.46714 -0.6227,2.6049 -0.37036,3.17291 1.41004,3.17291 1.19267,0 4.05347,-1.2792 6.35723,-2.84258 z M 618.14681,333.10782 c 0.98775,-1.41038 1.79609,-3.68783 1.79609,-5.06106 0,-2.07473 0.87804,-2.62832 5.19583,-3.27582 l 5.19583,-0.77915 -3.46516,-2.91585 c -4.1168,-3.46399 -4.49767,-6.17019 -0.86914,-6.17619 3.61388,0 9.73423,-3.96255 10.66476,-6.89421 0.43244,-1.36261 0.1605,-3.18316 -0.6152,-4.11784 -2.02593,-2.44106 -5.8349,-2.073 -6.5424,0.63226 -0.76046,2.90812 -2.03367,2.91574 -4.92009,0.0288 -4.34202,-4.34214 -4.43952,-13.32998 -0.20131,-18.564 1.99741,-2.46667 1.97964,-2.62843 -0.56687,-5.17495 -2.73942,-2.73942 -4.69578,-8.16139 -3.40897,-9.4482 0.40948,-0.40949 2.57376,-0.0832 4.80954,0.7255 3.17695,1.14882 4.43112,1.16624 5.73996,0.0796 3.96462,-3.29035 -0.33068,-7.52128 -6.68859,-6.5881 -2.55875,0.37557 -3.61585,0 -3.98331,-1.4015 -0.27796,-1.06297 -2.51606,-2.45087 -5.03765,-3.12385 -4.50575,-1.20272 -4.53753,-1.18806 -4.53753,2.08983 0,3.59196 -1.94185,4.26958 -5.63173,1.96524 -2.99825,-1.87248 -5.9061,-0.41882 -5.9061,2.95253 0,3.14556 2.99583,4.69681 8.36494,4.33153 4.11815,-0.28026 4.27137,2.95333 0.36021,7.60146 l -2.81268,3.34263 2.22819,3.38011 c 3.30003,5.00604 3.02225,13.32031 -0.58301,17.44958 l -2.82638,3.23729 -1.85416,-2.59601 c -2.57674,-3.60764 -6.10127,-3.36582 -7.06776,0.48493 -0.63287,2.52159 -0.10968,3.67389 2.88067,6.34581 2.00967,1.79563 4.94377,3.26485 6.52023,3.26485 3.90118,0 3.74864,3.23948 -0.30666,6.51209 l -3.17291,2.56046 4.90358,0.80314 c 2.69697,0.44179 4.90357,1.27286 4.90357,1.84663 0,2.20061 3.3984,9.04577 4.4908,9.04577 0.631,0 1.95554,-1.1539 2.94341,-2.56427 z m 63.84895,-29.21931 c 4.4551,-1.85424 14.0968,-10.47542 14.0968,-12.60473 0,-0.66988 -2.66132,-3.76041 -5.91395,-6.86802 -6.84504,-6.53952 -14.29074,-17.55283 -16.21999,-23.99208 -1.00587,-3.35752 -5.86664,-9.10509 -19.55812,-23.12643 l -18.21961,-18.65851 -5.25109,1.40439 c -2.88815,0.77245 -6.41192,1.42318 -7.8306,1.44603 -2.44499,0.0392 -2.40069,0.18748 0.84986,2.84373 l 3.4294,2.80231 4.80781,-2.81754 c 4.66025,-2.73112 4.82615,-2.74797 5.40085,-0.55002 0.33656,1.2867 -0.3894,3.51663 -1.67783,5.15476 -1.24909,1.58784 -1.96062,3.38912 -1.58138,4.00283 0.37925,0.61357 -0.82068,1.89669 -2.6665,2.85122 -3.42119,1.76921 -5.79579,7.59305 -3.09595,7.59305 2.42896,0 7.78504,-6.97798 7.16788,-9.33815 -0.31614,-1.20858 -0.16326,-2.45167 0.33967,-2.76251 2.08604,-1.28922 1.95566,4.18928 -0.16372,6.88382 -1.24909,1.58784 -1.96062,3.38912 -1.58138,4.00282 0.37925,0.61358 -0.82068,1.89671 -2.6665,2.85123 -3.39903,1.75767 -5.79753,7.59303 -3.12109,7.59303 2.62312,0 7.8913,-6.66804 7.23894,-9.1624 -0.34129,-1.30528 -0.20918,-2.6274 0.29375,-2.93823 1.40496,-0.86834 2.16289,3.45661 0.97691,5.57565 -0.63527,1.13521 -0.6295,2.68474 0.015,3.91364 1.16682,2.22622 -0.0162,6.50168 -2.16658,7.83073 -0.92174,0.56962 -0.29755,1.68739 1.93824,3.47023 3.23521,2.57997 3.29798,2.85088 3.29798,14.23479 0,9.51339 0.36378,11.96876 2.01911,13.62477 1.8576,1.85853 2.01913,1.86522 2.01913,0.0832 0,-1.94653 3.23601,-4.32598 5.88314,-4.32598 0.78087,0 5.65953,4.36558 10.84129,9.70124 5.21324,5.36809 10.66845,9.93602 12.21301,10.2269 1.53535,0.28914 3.1976,0.59639 3.69396,0.6828 0.49624,0.0865 2.83265,-0.64623 5.19202,-1.62822 z M 626.28871,257.8564 c 0,-3.06688 -5.99125,-6.34051 -13.15716,-7.18923 -5.78559,-0.68524 -5.88029,-0.64647 -5.88029,2.40518 0,2.52609 0.9098,3.51984 4.90358,5.35585 6.41736,2.95012 14.13387,2.63802 14.13387,-0.5718 z m 6.57102,-0.2805 c 2.92242,-2.79988 4.30707,-6.12993 2.54883,-6.12993 -2.02212,0 -7.38918,5.0853 -7.38918,7.00128 0,2.99048 0.99687,2.81096 4.84035,-0.87135 z m -6.23343,-9.06573 c 0.2476,-1.73033 -0.76599,-2.88515 -3.80436,-4.33396 -6.55407,-3.12547 -14.38996,-4.57301 -16.27697,-3.00687 -3.47587,2.88469 -1.15987,6.75782 4.45755,7.45459 2.2616,0.28047 5.32824,1.00875 6.81465,1.61841 4.31745,1.7706 8.4233,0.9633 8.80913,-1.73217 z m 0,-9.26776 c 0.35283,-2.4684 -1.1419,-3.35174 -13.34592,-7.88725 -9.11076,-3.3859 -13.1437,-1.7893 -10.23204,4.05092 1.01428,2.03447 2.71672,2.96385 6.5346,3.5675 2.83965,0.44905 6.7206,1.32696 8.62434,1.95104 5.08598,1.66711 8.02419,1.08007 8.41902,-1.68221 z m 6.11724,-8.68661 c 1.84134,-1.97076 3.34771,-4.29667 3.34771,-5.16847 0,-2.82815 -7.27183,2.17523 -8.19879,5.64108 -1.11178,4.15719 0.69054,3.9817 4.85144,-0.47261 z m -6.11205,-0.58368 c 0.40141,-2.81178 -4.02716,-5.35101 -12.73602,-7.30276 -6.38953,-1.43195 -9.20775,-0.61982 -8.72925,2.51536 0.26119,1.71141 2.38914,2.96177 8.42592,4.95112 9.66085,3.1834 12.56677,3.14694 13.03935,-0.16372 z m 8.51619,-13.08864 c 11.1595,-5.24554 12.12487,-18.473 1.60168,-21.94593 -4.36926,-1.44201 -7.1584,-0.66503 -8.83094,2.45995 -1.28058,2.39284 -0.42412,6.74336 1.32754,6.74336 0.59178,0 1.07602,0.80531 1.07602,1.78956 0,4.59296 -17.03859,6.67404 -24.02614,2.93439 -2.4548,-1.3138 -3.52358,-4.72395 -1.4805,-4.72395 1.52666,0 2.58222,-3.47486 1.80213,-5.93268 -1.06278,-3.34851 -4.25895,-4.50862 -8.89497,-3.22855 -10.46034,2.88823 -10.1667,15.86681 0.4836,21.37427 8.73307,4.51602 27.87702,4.79051 36.94158,0.52958 z m -6.94324,-10.16352 c 0.64624,-0.64627 0.36541,-1.63938 -0.71798,-2.53851 -2.37252,-1.96897 -2.24597,-4.89749 0.3564,-8.24991 1.95427,-2.51754 2.19841,-6.28498 2.87106,-44.28778 1.15898,-65.491109 5.77134,-114.752681 11.85074,-126.570353 2.42028,-4.704888 2.08084,-4.72362 -4.17335,-0.230484 -8.05629,5.78808 -14.19049,13.325172 -19.62537,24.11418 -10.26126,20.369556 -13.82686,47.774196 -13.82686,106.270707 0,33.21582 0.2143,37.56159 2.00608,40.68362 1.70208,2.96572 1.79254,4.06105 0.59694,7.22855 -0.775,2.05324 -1.12668,4.01561 -0.78149,4.3608 2.29085,2.29088 18.98017,1.68317 21.44407,-0.78082 z m 93.76573,-62.4504 c 0.3496,-0.5656 -0.42285,-3.42121 -1.71648,-6.3458 -2.01681,-4.56 -2.82919,-5.31742 -5.70246,-5.31742 -9.00078,0 -23.47035,-4.24717 -38.38737,-11.26759 -8.61404,-4.05407 -11.58918,-4.98573 -12.6224,-3.95262 -2.63558,2.63562 1.74476,8.89145 8.5283,12.17988 6.0179,2.9172 22.8412,6.50169 30.51513,6.50169 4.45199,0 4.55721,0.21213 2.02373,4.07882 l -1.86347,2.84388 5.03638,0.1365 c 2.76989,0.0751 6.59387,0.53286 8.49761,1.01728 4.94442,1.25816 4.99069,1.25917 5.69138,0.12538 z"
                   inkscape:connector-curvature="0" />
              </g>
            </g>
          </g>
        </g>
      </g>
    </g>
  </g>
</svg>
