<svg xmlns="http://www.w3.org/2000/svg" height="600" version="1" width="900"><path font-size="12" fill="#db161b" fill-rule="evenodd" d="M0 0h900v600H0z"/><path font-size="12" fill="green" fill-rule="evenodd" d="M300 360h600v240H300z"/><path font-size="12" fill="#fff" fill-rule="evenodd" d="M300 0h600v240H300z"/><g font-size="12" stroke="#ef2d28"><g transform="matrix(.27983 0 0 .2495 190.785 -13.17)" fill="#fff" fill-rule="evenodd"><rect height="85.039" rx="11.491" ry="12.086" width="138.189" x="17.717" y="467.717" stroke-width="1.43"/><rect height="77.953" rx="10.901" ry="11.078" width="131.102" x="21.26" y="471.26" stroke-width="1pt"/><path d="M64.966 396.067l9.724.443.441 5.745 7.955 5.303 6.188-6.629 7.513 5.303-7.071 5.746 1.768 7.955 8.838-.442v10.607l-7.07-.442-3.536 6.629 7.955 7.513-6.188 6.187-6.629-6.629-9.723 2.652.442 9.723-10.606.884-1.326-9.281-8.84-4.862-4.86 6.629-7.514-4.861 4.42-7.513-5.304-4.862H34.03l-.442-13.7 7.513.884 5.304-7.955-6.188-6.187 7.956-7.071 5.745 5.745 9.723-1.768 1.325-5.746z" transform="matrix(.68108 0 0 .5852 37.972 260.74)" stroke-width="1pt"/><ellipse cx="68.944" cy="426.783" rx="11.049" ry="9.944" transform="matrix(.6582 0 0 .70224 38.845 209.625)" stroke-width="1pt"/><g stroke-width="1pt"><path d="M38.976 474.803l-10.63 10.63M46.063 474.803l-10.63 10.63M53.15 474.803l-10.63 10.63M60.236 474.803l-10.63 10.63M67.323 474.803l-10.63 10.63M74.41 474.803l-10.63 10.63M81.496 474.803l-10.63 10.63M88.583 474.803l-10.63 10.63M95.67 474.803l-10.63 10.63M102.756 474.803l-10.63 10.63M109.842 474.803l-10.63 10.63M116.93 474.803l-10.63 10.63M88.583 474.803l-10.63 10.63M124.016 474.803l-10.63 10.63M131.102 474.803l-10.63 10.63M138.189 474.803l-10.63 10.63M145.276 474.803l-10.63 10.63M134.646 474.803l10.63 10.63M127.56 474.803l10.629 10.63M120.473 474.803l10.63 10.63M113.386 474.803l10.63 10.63M106.3 474.803l10.63 10.63M99.213 474.803l10.63 10.63M92.126 474.803l10.63 10.63M85.04 474.803l10.63 10.63M77.953 474.803l10.63 10.63M70.866 474.803l10.63 10.63M63.78 474.803l10.63 10.63M56.693 474.803l10.63 10.63M85.04 474.803l10.63 10.63M49.606 474.803l10.63 10.63M42.52 474.803l10.63 10.63M35.433 474.803l10.63 10.63M28.346 474.803l10.63 10.63"/></g><g stroke-width="1pt"><path d="M38.976 535.039l-10.63 10.63M46.063 535.039l-10.63 10.63M53.15 535.039l-10.63 10.63M60.236 535.039l-10.63 10.63M67.323 535.039l-10.63 10.63M74.41 535.04l-10.63 10.63M81.496 535.039l-10.63 10.63M88.583 535.039l-10.63 10.63M95.67 535.039l-10.63 10.63M102.756 535.04l-10.63 10.63M109.842 535.04l-10.63 10.63M116.93 535.04l-10.63 10.63M88.583 535.039l-10.63 10.63M124.016 535.039l-10.63 10.63M131.102 535.039l-10.63 10.63M138.189 535.04l-10.63 10.63M145.276 535.039l-10.63 10.63M134.646 535.039l10.63 10.63M127.56 535.039l10.629 10.63M120.472 535.039l10.63 10.63M113.386 535.039l10.63 10.63M106.3 535.039l10.63 10.63M99.213 535.04l10.63 10.63M92.126 535.039l10.63 10.63M85.04 535.039l10.63 10.63M77.953 535.039l10.63 10.63M70.866 535.04l10.63 10.63M63.78 535.04l10.63 10.63M56.693 535.04l10.63 10.63M85.04 535.039l10.63 10.63M49.606 535.039l10.63 10.63M42.52 535.039l10.63 10.63M35.433 535.04l10.63 10.63M28.346 535.039l10.63 10.63"/></g></g><g fill="#fff" fill-rule="evenodd" transform="matrix(.27983 0 0 .2495 60.897 -14.054)"><rect height="85.039" rx="11.491" ry="12.086" width="138.189" x="17.717" y="467.717" stroke-width="1.43"/><rect height="77.953" rx="10.901" ry="11.078" width="131.102" x="21.26" y="471.26" stroke-width="1pt"/><path d="M64.966 396.067l9.724.443.441 5.745 7.955 5.303 6.188-6.629 7.513 5.303-7.071 5.746 1.768 7.955 8.838-.442v10.607l-7.07-.442-3.536 6.629 7.955 7.513-6.188 6.187-6.629-6.629-9.723 2.652.442 9.723-10.606.884-1.326-9.281-8.84-4.862-4.86 6.629-7.514-4.861 4.42-7.513-5.304-4.862H34.03l-.442-13.7 7.513.884 5.304-7.955-6.188-6.187 7.956-7.071 5.745 5.745 9.723-1.768 1.325-5.746z" transform="matrix(.68108 0 0 .5852 37.972 260.74)" stroke-width="1pt"/><ellipse cx="68.944" cy="426.783" rx="11.049" ry="9.944" transform="matrix(.6582 0 0 .70224 38.845 209.625)" stroke-width="1pt"/><g stroke-width="1pt"><path d="M38.976 474.803l-10.63 10.63M46.063 474.803l-10.63 10.63M53.15 474.803l-10.63 10.63M60.236 474.803l-10.63 10.63M67.323 474.803l-10.63 10.63M74.41 474.803l-10.63 10.63M81.496 474.803l-10.63 10.63M88.583 474.803l-10.63 10.63M95.67 474.803l-10.63 10.63M102.756 474.803l-10.63 10.63M109.842 474.803l-10.63 10.63M116.93 474.803l-10.63 10.63M88.583 474.803l-10.63 10.63M124.016 474.803l-10.63 10.63M131.102 474.803l-10.63 10.63M138.189 474.803l-10.63 10.63M145.276 474.803l-10.63 10.63M134.646 474.803l10.63 10.63M127.56 474.803l10.629 10.63M120.473 474.803l10.63 10.63M113.386 474.803l10.63 10.63M106.3 474.803l10.63 10.63M99.213 474.803l10.63 10.63M92.126 474.803l10.63 10.63M85.04 474.803l10.63 10.63M77.953 474.803l10.63 10.63M70.866 474.803l10.63 10.63M63.78 474.803l10.63 10.63M56.693 474.803l10.63 10.63M85.04 474.803l10.63 10.63M49.606 474.803l10.63 10.63M42.52 474.803l10.63 10.63M35.433 474.803l10.63 10.63M28.346 474.803l10.63 10.63"/></g><g stroke-width="1pt"><path d="M38.976 535.039l-10.63 10.63M46.063 535.039l-10.63 10.63M53.15 535.039l-10.63 10.63M60.236 535.039l-10.63 10.63M67.323 535.039l-10.63 10.63M74.41 535.04l-10.63 10.63M81.496 535.039l-10.63 10.63M88.583 535.039l-10.63 10.63M95.67 535.039l-10.63 10.63M102.756 535.04l-10.63 10.63M109.842 535.04l-10.63 10.63M116.93 535.04l-10.63 10.63M88.583 535.039l-10.63 10.63M124.016 535.039l-10.63 10.63M131.102 535.039l-10.63 10.63M138.189 535.04l-10.63 10.63M145.276 535.039l-10.63 10.63M134.646 535.039l10.63 10.63M127.56 535.039l10.629 10.63M120.472 535.039l10.63 10.63M113.386 535.039l10.63 10.63M106.3 535.039l10.63 10.63M99.213 535.04l10.63 10.63M92.126 535.039l10.63 10.63M85.04 535.039l10.63 10.63M77.953 535.039l10.63 10.63M70.866 535.04l10.63 10.63M63.78 535.04l10.63 10.63M56.693 535.04l10.63 10.63M85.04 535.039l10.63 10.63M49.606 535.039l10.63 10.63M42.52 535.039l10.63 10.63M35.433 535.04l10.63 10.63M28.346 535.039l10.63 10.63"/></g></g><path d="M538.583 531.496c1.717 166.555 24.803 201.969 3.543 201.969s-31.89-92.07-31.89-205.512c0-113.443 14.173-205.512 35.433-205.512 21.26 0-8.913 31.909-7.086 209.055z" transform="matrix(-.45307 -.17835 -.2842 .28433 521.575 92.053)" fill="#fff" fill-rule="evenodd" stroke-width="1pt"/><path d="M545.669 779.528l-60.236 17.716c56.693 60.236 120.474 85.039 138.189 74.409 17.717-10.629-31.89-35.433-77.953-92.125z" fill="#fff" fill-rule="evenodd" stroke-width="1.25" transform="matrix(-.27983 0 0 .2495 238.702 -13.172)"/><path d="M547.272 786.898l-50.926 14.74c56.693 60.236 112.766 77.385 127.276 70.015 14.591-7.37-30.287-28.063-76.35-84.755z" transform="matrix(-.27257 0 0 .2399 235.18 -5.692)" fill="#fff" fill-rule="evenodd" stroke-width="1.292"/><path d="M353.131 634.23c.187 1.273.748 7.068 1.25 9.375 0 3.186.288 5.632.625 8.125.796 2.177.661 4.198 3.125 5.001 1.694 2.631 2.76 3.313 5 4.375 1.527 1.323 3.84 2.642 6.25 3.75 2.499 1.071 4.771 1.218 7.5.625 2.19-1.526 3.804-3.1 5.625-4.375.429-1.973.822-4.903 1.25-6.875-.674 2.024-1.147 5.265-1.25 8.125.24 3.12 1.265 4.481 2.5 6.875" transform="matrix(-.19706 0 0 .17454 207.376 34.364)" fill="none" stroke-width="1.781"/><path d="M389.382 681.731l.625-.625c-1.484 1.484-.878.776 2.5-1.25 2.426-1.246 5.015-1.908 8.125-2.5h8.75c3.405 0 5.696.511 8.125 1.25 1.762 1.762 4.393 2.763 6.25 4.375 1.905 1.295 2.722 2.829 3.75 5 1.701 1.701 2.803 4.326 4.375 5.625.704 2.871 2.141 2.773 3.125 5-2.948.227-5.311.631-6.875 2.5-2.597 1.344 2.179-1.317 3.125-2.5 2.046-.618 2.576-1.25 5.625-1.25 2.85-.904 4.579.737 7.5 1.25 1.705.987 2.178 1.25 4.376 1.25" transform="matrix(-.19706 0 0 .17454 209.962 33.382)" fill="none" stroke-width="1.781"/><path d="M438.132 724.857c1.273.075 7.083 1.146 9.376 0 2.552-.696 4.068-2.04 5.625-4.375.767-1.689 0 2.998 0 5 .283 3.68 1.366 3.714 3.125 6.25 1.814 1.163 3.725 2.8 5.625 3.75 1.576 1.366 3.513 2.28 5.625 3.125 1.896.898 4.111 1.813 5.625 3.125 2.09 1.493 1.888 3.278 3.125 5.625-.235 3.057-.733 4.79-2.5 6.25-.738 2.113-2.395 4.205-3.75 5.625-1.545 2.87-3.256 4.224.625 5 2.132.914 3.327.197 5.625 0" transform="matrix(-.19706 0 0 .17454 212.918 31.31)" fill="none" stroke-width="1.781"/><path d="M480.633 771.732c1.536-.391 6.983-2.213 9.375-3.125h8.75c3.391.261 4.037 1.256 6.876 2.5 1.832 1.871 3.089 3.162 5.625 4.376 1.341 1.733 3.953 4.677 5 6.875.745 2.133 1.25 5.018 1.25 8.125-.044 3.648-1.002 4.271-1.25 7.5-.701 2.684-1.839 5.143-3.75 7.5-.265.793-.457.986-1.25 1.25" transform="matrix(-.19706 0 0 .17454 213.534 30.764)" fill="none" stroke-width="1.781"/><path d="M538.134 817.983c.374 0 1.201 2.018 2.5 3.75 2.828 2.906 3.192 3.125 7.5 3.125 3.884-.143 3.522-1.532 6.25-2.5 1.289-2.008 2.896-3.6 4.375-6.25 1.006-1.634 1.89-4.129 3.125-5.625 1.141-1.854 2.563-3.254 3.75-5 1.172-.502 1.618-.984 3.126-1.25-3.6.578-3.915 1.867-6.251 3.75-1.094 1.779-2.181 3.633-3.125 5.625-.361 2.673-1.21 4.779-1.25 8.125 0 3.457.017 5.872 1.25 8.75 1.473 1.545 2.563 3.143 4.375 4.376 1.439 1.405 3.244 3.336 4.376 5 1.96 1.206 3.385 2.189 5.625 3.75 1.884 1.102 3.915 2.234 6.875 2.5 3.67-.262 4.755-1.297 7.5-2.5 2.329-1.713 4.163-2.838 6.25-4.375 1.629-1.141 3.288-3.403 4.375-5 3.382-.846 5.529-.508 7.5 1.25a16.536 16.536 0 0 1 4.375 4.375c1.02.51 2.73 1.99 3.75 2.5" transform="matrix(-.13991 0 0 .13778 188.244 60.298)" fill="none" stroke-width="2.379"/><path d="M503.758 836.109c-.802.334-3.717 2.367-5 3.125-.8 2.631-2.077 4.069-2.5 6.875-.677 2.709-.625 5.692-.625 8.75.685 3.194 2.015 5.557 3.125 8.125 1.974 1.342 2.967 2.33 5.625 3.75 2.494.337 4.94.625 8.126.625 1.904.635 5.615.942 7.5 0 2.783-.376 4.854-1.507 6.875-2.5 2.306-1.307 3.728-2.542 6.25-3.75 1.225-1.801 3.13-3.46 5-5.625 1.556-2.105 2.7-3.286 3.75-5.625-.924 2.669-2.327 4.999-3.125 7.5-1.422 2.661-2.248 3.604-2.5 6.875-.871 2.613-.625 5.76-.625 8.75.274 2.031.418 5.837 1.25 7.5v1.875" transform="matrix(-.17395 0 0 .17195 190.947 32.797)" fill="none" stroke-width="1.91"/><path d="M541.259 799.233v.625c0-1.687.041-.83-.625 2.5-1.179 1.462-3.944 1.868-6.25 1.25-2.022-1.67-1.96-2.935-5.625-3.75-3.542.253-4.892 1.279-6.875 2.5-2.354 1.177-3.438 1.771-5 4.375-.776 2.12-1.209 3.555 1.25 4.375 1.954 1.386 4.277 2.149 6.875 2.5 2.887 0 4.968-.339 6.25 1.25 1.983 2.055 1.875 3.277 1.875 6.875.667 1.112.799 4.394 1.25 5.625 1.736.823 2.755 1.25 5.625 1.25.674-1.931 1.423-5.419 1.875-7.5.489-2.248.64-5.379 1.875-6.875a16.58 16.58 0 0 1 4.375-4.375c.766-1.073 2.223-1.965 3.75-2.5-2.452 1.251-2.801 2.603-3.125 5.625 2.155 1.078 2.731 1.833 6.25 1.875 3.459-.291 4.295-1.169 5.625-3.125.242 3.136 1.243 4.186 1.875 6.875 1.286 1.891 1.832 3.828 3.125 6.25-.551 3.012-1.737 3.163-1.875 6.875-.811 2.435-.723 4.783-2.5 6.251-.792.968-1.384 1.158-3.125 1.25 3.618 0 5.727-.391 8.125-1.875 1.854-1.141 3.255-2.563 5.001-3.75 2.212-1.603 4.947-3.085 7.5-3.751 2.887 0 4.968-.339 6.25 1.25 1.77 1.265 2.959 3.447 3.75 6.251.579 3.244.8 5.404-.625 7.5-1.057 2.408-1.297 3.346 0 6.25 1.452 2.033 3.617 2.272 6.875 3.125 2.379-.128 4.668-.671 6.25-1.25" fill="none" stroke-width="1.25" transform="matrix(-.27983 0 0 .2495 238.702 -13.172)"/><g transform="matrix(-.27983 0 0 .2495 238.702 -13.172)" fill-rule="evenodd" stroke-width="1pt"><path d="M531.496 359.645c0-165.274 7.937-299.409 17.717-299.409 9.779 0 17.716 134.135 17.716 299.409h-35.433z" transform="matrix(1.42159 -.73423 .4616 .89375 -716.837 541.071)" fill="#fff"/><path d="M531.496 359.645c0-165.274 7.937-299.409 17.717-299.409 9.779 0 17.716 134.135 17.716 299.409" transform="matrix(1.13728 -.58739 .44532 .8622 -554.833 471.77)" fill="#fff"/><path d="M563.386 301.181c.189 18.908 0 40.188 0 60.236h-28.347c0-20.048-.189-41.328 0-60.236h28.347z" transform="matrix(1.42159 -.73423 .4589 .8885 -716.674 541.388)" fill="#fff"/><path d="M559.843 304.724c.189 18.908 0 33.102 0 53.15h-21.26c0-20.048-.189-34.242 0-53.15h21.26z" transform="matrix(1.42159 -.73423 .4589 .8885 -716.674 541.388)" fill="#fff"/><path transform="matrix(1.42159 -.73423 .4589 .8885 -716.674 541.388)" fill="#fff" d="M542.126 311.811h14.173v38.976h-14.173zM542.126 311.811l14.173 38.976M542.126 350.787l14.173-38.976M542.126 113.386h14.173"/><ellipse cx="545.669" cy="92.126" rx="3.543" ry="3.543" transform="matrix(1.60456 .45375 -.36215 1.5787 -734.9 -170.854)" fill="#ef0000"/></g><g><path d="M538.583 531.496c1.717 166.555 24.803 201.969 3.543 201.969s-31.89-92.07-31.89-205.512c0-113.443 14.173-205.512 35.433-205.512 21.26 0-8.913 31.909-7.086 209.055z" transform="matrix(.45307 -.17835 .2842 .28433 -221.977 91.171)" fill="#fff" fill-rule="evenodd" stroke-width="1pt"/><path d="M545.669 779.528l-60.236 17.716c56.693 60.236 120.474 85.039 138.189 74.409 17.717-10.629-31.89-35.433-77.953-92.125z" fill="#fff" fill-rule="evenodd" stroke-width="1.25" transform="matrix(.27983 0 0 .2495 60.897 -14.054)"/><path d="M547.272 786.898l-50.926 14.74c56.693 60.236 112.766 77.385 127.276 70.015 14.591-7.37-30.287-28.063-76.35-84.755z" transform="matrix(.27257 0 0 .2399 64.418 -6.574)" fill="#fff" fill-rule="evenodd" stroke-width="1.292"/><path d="M353.131 634.23c.187 1.273.748 7.068 1.25 9.375 0 3.186.288 5.632.625 8.125.796 2.177.661 4.198 3.125 5.001 1.694 2.631 2.76 3.313 5 4.375 1.527 1.323 3.84 2.642 6.25 3.75 2.499 1.071 4.771 1.218 7.5.625 2.19-1.526 3.804-3.1 5.625-4.375.429-1.973.822-4.903 1.25-6.875-.674 2.024-1.147 5.265-1.25 8.125.24 3.12 1.265 4.481 2.5 6.875" transform="matrix(.19706 0 0 .17454 92.223 33.482)" fill="none" stroke-width="1.781"/><path d="M389.382 681.731l.625-.625c-1.484 1.484-.878.776 2.5-1.25 2.426-1.246 5.015-1.908 8.125-2.5h8.75c3.405 0 5.696.511 8.125 1.25 1.762 1.762 4.393 2.763 6.25 4.375 1.905 1.295 2.722 2.829 3.75 5 1.701 1.701 2.803 4.326 4.375 5.625.704 2.871 2.141 2.773 3.125 5-2.948.227-5.311.631-6.875 2.5-2.597 1.344 2.179-1.317 3.125-2.5 2.046-.618 2.576-1.25 5.625-1.25 2.85-.904 4.579.737 7.5 1.25 1.705.987 2.178 1.25 4.376 1.25" transform="matrix(.19706 0 0 .17454 89.636 32.5)" fill="none" stroke-width="1.781"/><path d="M438.132 724.857c1.273.075 7.083 1.146 9.376 0 2.552-.696 4.068-2.04 5.625-4.375.767-1.689 0 2.998 0 5 .283 3.68 1.366 3.714 3.125 6.25 1.814 1.163 3.725 2.8 5.625 3.75 1.576 1.366 3.513 2.28 5.625 3.125 1.896.898 4.111 1.813 5.625 3.125 2.09 1.493 1.888 3.278 3.125 5.625-.235 3.057-.733 4.79-2.5 6.25-.738 2.113-2.395 4.205-3.75 5.625-1.545 2.87-3.256 4.224.625 5 2.132.914 3.327.197 5.625 0" transform="matrix(.19706 0 0 .17454 86.68 30.428)" fill="none" stroke-width="1.781"/><path d="M480.633 771.732c1.536-.391 6.983-2.213 9.375-3.125h8.75c3.391.261 4.037 1.256 6.876 2.5 1.832 1.871 3.089 3.162 5.625 4.376 1.341 1.733 3.953 4.677 5 6.875.745 2.133 1.25 5.018 1.25 8.125-.044 3.648-1.002 4.271-1.25 7.5-.701 2.684-1.839 5.143-3.75 7.5-.265.793-.457.986-1.25 1.25" transform="matrix(.19706 0 0 .17454 86.064 29.882)" fill="none" stroke-width="1.781"/><path d="M538.134 817.983c.374 0 1.201 2.018 2.5 3.75 2.828 2.906 3.192 3.125 7.5 3.125 3.884-.143 3.522-1.532 6.25-2.5 1.289-2.008 2.896-3.6 4.375-6.25 1.006-1.634 1.89-4.129 3.125-5.625 1.141-1.854 2.563-3.254 3.75-5 1.172-.502 1.618-.984 3.126-1.25-3.6.578-3.915 1.867-6.251 3.75-1.094 1.779-2.181 3.633-3.125 5.625-.361 2.673-1.21 4.779-1.25 8.125 0 3.457.017 5.872 1.25 8.75 1.473 1.545 2.563 3.143 4.375 4.376 1.439 1.405 3.244 3.336 4.376 5 1.96 1.206 3.385 2.189 5.625 3.75 1.884 1.102 3.915 2.234 6.875 2.5 3.67-.262 4.755-1.297 7.5-2.5 2.329-1.713 4.163-2.838 6.25-4.375 1.629-1.141 3.288-3.403 4.375-5 3.382-.846 5.529-.508 7.5 1.25a16.536 16.536 0 0 1 4.375 4.375c1.02.51 2.73 1.99 3.75 2.5" transform="matrix(.13991 0 0 .13778 111.354 59.416)" fill="none" stroke-width="2.379"/><path d="M503.758 836.109c-.802.334-3.717 2.367-5 3.125-.8 2.631-2.077 4.069-2.5 6.875-.677 2.709-.625 5.692-.625 8.75.685 3.194 2.015 5.557 3.125 8.125 1.974 1.342 2.967 2.33 5.625 3.75 2.494.337 4.94.625 8.126.625 1.904.635 5.615.942 7.5 0 2.783-.376 4.854-1.507 6.875-2.5 2.306-1.307 3.728-2.542 6.25-3.75 1.225-1.801 3.13-3.46 5-5.625 1.556-2.105 2.7-3.286 3.75-5.625-.924 2.669-2.327 4.999-3.125 7.5-1.422 2.661-2.248 3.604-2.5 6.875-.871 2.613-.625 5.76-.625 8.75.274 2.031.418 5.837 1.25 7.5v1.875" transform="matrix(.17395 0 0 .17195 108.651 31.915)" fill="none" stroke-width="1.91"/><path d="M541.259 799.233v.625c0-1.687.041-.83-.625 2.5-1.179 1.462-3.944 1.868-6.25 1.25-2.022-1.67-1.96-2.935-5.625-3.75-3.542.253-4.892 1.279-6.875 2.5-2.354 1.177-3.438 1.771-5 4.375-.776 2.12-1.209 3.555 1.25 4.375 1.954 1.386 4.277 2.149 6.875 2.5 2.887 0 4.968-.339 6.25 1.25 1.983 2.055 1.875 3.277 1.875 6.875.667 1.112.799 4.394 1.25 5.625 1.736.823 2.755 1.25 5.625 1.25.674-1.931 1.423-5.419 1.875-7.5.489-2.248.64-5.379 1.875-6.875a16.58 16.58 0 0 1 4.375-4.375c.766-1.073 2.223-1.965 3.75-2.5-2.452 1.251-2.801 2.603-3.125 5.625 2.155 1.078 2.731 1.833 6.25 1.875 3.459-.291 4.295-1.169 5.625-3.125.242 3.136 1.243 4.186 1.875 6.875 1.286 1.891 1.832 3.828 3.125 6.25-.551 3.012-1.737 3.163-1.875 6.875-.811 2.435-.723 4.783-2.5 6.251-.792.968-1.384 1.158-3.125 1.25 3.618 0 5.727-.391 8.125-1.875 1.854-1.141 3.255-2.563 5.001-3.75 2.212-1.603 4.947-3.085 7.5-3.751 2.887 0 4.968-.339 6.25 1.25 1.77 1.265 2.959 3.447 3.75 6.251.579 3.244.8 5.404-.625 7.5-1.057 2.408-1.297 3.346 0 6.25 1.452 2.033 3.617 2.272 6.875 3.125 2.379-.128 4.668-.671 6.25-1.25" fill="none" stroke-width="1.25" transform="matrix(.27983 0 0 .2495 60.897 -14.054)"/></g><g fill-rule="evenodd" stroke-width="1pt" transform="matrix(.27983 0 0 .2495 60.897 -14.054)"><path d="M531.496 359.645c0-165.274 7.937-299.409 17.717-299.409 9.779 0 17.716 134.135 17.716 299.409h-35.433z" transform="matrix(1.42159 -.73423 .4616 .89375 -716.837 541.071)" fill="#fff"/><path d="M531.496 359.645c0-165.274 7.937-299.409 17.717-299.409 9.779 0 17.716 134.135 17.716 299.409" transform="matrix(1.13728 -.58739 .44532 .8622 -554.833 471.77)" fill="#fff"/><path d="M563.386 301.181c.189 18.908 0 40.188 0 60.236h-28.347c0-20.048-.189-41.328 0-60.236h28.347z" transform="matrix(1.42159 -.73423 .4589 .8885 -716.674 541.388)" fill="#fff"/><path d="M559.843 304.724c.189 18.908 0 33.102 0 53.15h-21.26c0-20.048-.189-34.242 0-53.15h21.26z" transform="matrix(1.42159 -.73423 .4589 .8885 -716.674 541.388)" fill="#fff"/><path transform="matrix(1.42159 -.73423 .4589 .8885 -716.674 541.388)" fill="#fff" d="M542.126 311.811h14.173v38.976h-14.173zM542.126 311.811l14.173 38.976M542.126 350.787l14.173-38.976M542.126 113.386h14.173"/><ellipse cx="545.669" cy="92.126" rx="3.543" ry="3.543" transform="matrix(1.60456 .45375 -.36215 1.5787 -734.9 -170.854)" fill="#ef0000"/></g><g fill="#fff" fill-rule="evenodd" transform="matrix(.27983 0 0 .2495 60.897 -14.054)"><path d="M305.611 396.85c0 124.016.491 170.76-5.62 177.166-5.79 6.857-167.115 0-167.115 35.433s132.873 70.867 172.735 70.866c53.149 0 79.723-35.433 79.723-106.299V396.85h-79.723z" transform="matrix(1.33334 0 0 1 -141.736 0)" stroke-width="1pt"/><path d="M265.748 396.85v17.717c35.433 5.906 70.866 5.906 106.299 0V396.85c-35.433 5.906-70.866 5.906-106.299 0z" transform="matrix(1 0 0 .99999 0 35.437)" stroke-width="1pt"/><path d="M265.748 396.85v17.717c35.433 5.906 70.866 5.906 106.299 0V396.85c-35.433 5.906-70.866 5.906-106.299 0z" transform="matrix(1 0 0 .99999 0 .004)" stroke-width="1pt"/><path d="M265.748 396.85v17.717c35.433 5.906 70.866 5.906 106.299 0V396.85c-35.433 5.906-70.866 5.906-106.299 0z" transform="matrix(1 0 0 .99999 0 17.72)" stroke-width="1pt"/><path d="M265.748 396.85v17.717c35.433 5.906 70.866 5.906 106.299 0V396.85c-35.433 5.906-70.866 5.906-106.299 0z" transform="matrix(1 0 0 .99999 0 53.154)" stroke-width="1pt"/><ellipse cx="256.89" cy="210.827" rx="8.858" ry="26.575" transform="matrix(.54545 0 0 .14383 130.458 394.317)" stroke-width="4.463"/><ellipse cx="292.323" cy="246.26" rx="8.858" ry="26.575" transform="matrix(.54545 0 0 .14383 130.458 391.131)" stroke-width="4.463"/><ellipse cx="327.756" cy="263.976" rx="8.858" ry="26.575" transform="matrix(.54545 0 0 .14383 130.458 390.495)" stroke-width="4.463"/><ellipse cx="363.189" cy="263.976" rx="8.858" ry="26.575" transform="matrix(.54545 0 0 .14383 130.458 390.495)" stroke-width="4.463"/><ellipse cx="398.622" cy="246.26" rx="8.858" ry="26.575" transform="matrix(.54545 0 0 .14383 130.458 391.131)" stroke-width="4.463"/><ellipse cx="434.055" cy="210.827" rx="8.858" ry="26.575" transform="matrix(.54545 0 0 .14383 130.458 394.317)" stroke-width="4.463"/><path d="M265.748 485.433l106.299 95.669M276.378 485.433l95.669 85.039M290.551 488.976l81.496 70.866M301.181 488.976l70.866 60.237M311.811 488.976l60.236 49.607M322.441 488.976l49.606 38.977M333.071 488.976l38.976 28.347M343.701 488.976l28.346 21.26M354.331 488.976l17.716 14.174M364.961 488.976l7.086 7.087M265.748 496.063l106.3 95.669M372.047 485.433L255.118 591.732M361.417 485.433l-102.756 92.126M347.244 488.976l-81.496 70.866M336.614 488.976l-70.866 60.237M325.984 488.976l-60.236 49.607M315.354 488.976l-49.606 38.977M304.724 488.976l-38.976 28.347M294.094 488.976l-28.346 21.26M283.464 488.976l-17.716 14.174M272.834 488.976l-7.086 7.087M372.047 496.063L255.118 602.362M372.047 506.693L255.118 612.992M372.047 517.323l-116.929 106.3M372.047 527.953L255.118 634.252M372.047 538.583L255.118 644.882M372.047 549.213L255.118 655.512M372.047 559.843L255.118 666.142M372.047 570.473L255.118 676.772M372.047 581.103l-109.842 99.212M372.047 591.732l-99.212 88.583M368.504 605.905l-77.953 70.866M364.96 620.079l-63.778 56.693M357.874 637.796l-31.89 28.346M265.748 506.693l102.756 92.126M265.748 517.323l102.756 92.126M265.748 527.953l99.213 88.583M265.748 538.583l99.213 88.583M265.748 549.213l95.67 85.039M262.205 556.299l95.669 85.04M262.205 566.93l88.583 77.952M258.661 574.016l88.583 77.953M255.118 581.103l85.04 74.409M255.118 591.733l81.496 70.865M255.118 602.362l70.866 63.78" stroke-width="1pt"/><path d="M265.748 396.85v17.717c35.433 5.906 70.866 5.906 106.299 0V396.85c-35.433 5.906-70.866 5.906-106.299 0z" transform="matrix(1 0 0 .99999 0 70.87)" stroke-width="1pt"/><path d="M255.118 612.993l63.78 56.692M255.118 623.622l56.693 49.606M255.118 634.252l49.606 42.52M255.118 644.882l35.434 31.89M255.118 655.511l28.347 24.804M255.118 666.142l17.716 14.173" stroke-width="1pt"/><ellipse cx="256.89" cy="210.827" rx="8.858" ry="26.575" transform="matrix(.54545 0 0 .14383 130.458 447.466)" stroke-width="4.463"/><ellipse cx="292.323" cy="246.26" rx="8.858" ry="26.575" transform="matrix(.54545 0 0 .14383 130.458 444.281)" stroke-width="4.463"/><ellipse cx="327.756" cy="263.976" rx="8.858" ry="26.575" transform="matrix(.54545 0 0 .14383 130.458 443.644)" stroke-width="4.463"/><ellipse cx="363.189" cy="263.976" rx="8.858" ry="26.575" transform="matrix(.54545 0 0 .14383 130.458 443.644)" stroke-width="4.463"/><ellipse cx="398.622" cy="246.26" rx="8.858" ry="26.575" transform="matrix(.54545 0 0 .14383 130.458 444.281)" stroke-width="4.463"/><ellipse cx="434.055" cy="210.827" rx="8.858" ry="26.575" transform="matrix(.54545 0 0 .14383 130.458 447.466)" stroke-width="4.463"/><path d="M113.386 651.968l127.559-74.409M106.3 648.425l120.471-70.866M102.756 641.339l109.842-63.78M99.213 634.252l95.669-56.693M92.126 627.165l88.583-49.606M95.67 616.535l60.236-35.433M92.126 609.449l46.063-28.346M92.126 598.819l31.89-17.717M124.016 655.512l120.472-70.866M134.646 659.055l113.386-67.322M145.276 662.599l106.299-63.78M155.906 666.142l88.583-53.15M170.08 666.141l77.951-46.063M180.709 669.685l67.323-38.976M191.338 673.229l53.15-31.89M205.512 673.228l42.52-24.803M219.685 676.772l28.347-17.717M233.858 676.771l17.717-10.63" stroke-width="1pt"/><path d="M265.748 396.85v17.717c35.433 5.906 70.866 5.906 106.299 0V396.85c-35.433 5.906-70.866 5.906-106.299 0z" transform="matrix(0 1 -.99999 0 655.507 308.268)" stroke-width="1pt"/><path d="M49.606 623.622l42.52-35.433M49.606 598.819l42.52 42.52" stroke-width="1pt"/><path d="M260.153 387.992l5.595 26.575c35.433 5.906 65.271 5.906 100.704 0l11.19-26.575c-35.433 5.906-82.056 5.906-117.489 0z" transform="matrix(0 .63333 -.8 0 423.778 416.339)" stroke-width="1pt"/><path d="M258.661 350.787v-17.865c-10.63.149-17.716-10.481-17.717-21.26l-35.432.149c0 10.63-7.087 21.26-17.717 21.26v17.716h70.866z" transform="matrix(1.49834 0 0 1 -15.633 53.15)" stroke-width="1pt"/><path stroke-width="1.379" d="M296.085 343.701h45.506v21.26h-45.506zM299.878 322.441H337.8v21.26h-37.922zM299.878 301.181H337.8v21.26h-37.922zM303.67 272.834h30.337v28.346H303.67z"/><path stroke-width="1.438" d="M302.362 248.031h32.953v24.803h-32.953z"/><ellipse cx="237.402" cy="161.22" rx="42.52" ry="33.661" transform="matrix(1.03333 0 0 1 75.354 63.78)" stroke-width="1pt"/><path d="M258.661 159.449c0 9.291 10.63 24.803 10.63 24.803-7.696 6.093-20.154 10.63-31.889 10.63s-26.349-2.528-31.89-10.63c0 0 10.63-15.512 10.63-24.803s-10.63-21.26-10.63-21.26c7.696-6.093 20.154-10.63 31.89-10.63 11.735 0 24.193 4.537 31.889 10.63 0 0-10.63 11.969-10.63 21.26z" transform="matrix(1.03333 0 0 1 75.354 63.78)" stroke-width="1pt"/><path d="M251.575 159.449c0 9.291 10.63 28.346 10.63 28.346-7.696 6.093-13.068 7.087-24.803 7.087-11.735 0-19.262 1.015-24.803-7.087 0 0 10.63-19.055 10.63-28.346s-10.63-24.803-10.63-24.803c7.696-6.093 13.067-7.087 24.803-7.087 11.735 0 17.107.994 24.803 7.087 0 0-10.63 15.512-10.63 24.803z" transform="matrix(1.03333 0 0 1 75.354 63.78)" stroke-width="1pt"/><ellipse cx="194.882" cy="166.535" rx="10.63" ry="10.63" transform="matrix(1.03333 0 0 1 75.354 60.236)" stroke-width="1pt"/><ellipse cx="194.882" cy="166.535" rx="10.63" ry="10.63" transform="matrix(1.03333 0 0 1 163.228 60.236)" stroke-width="1pt"/><ellipse cx="194.882" cy="166.535" rx="10.63" ry="10.63" transform="matrix(1.03333 0 0 1 119.291 60.236)" stroke-width="1pt"/><ellipse cx="194.882" cy="166.535" rx="10.63" ry="10.63" transform="matrix(1.03333 0 0 1 119.291 24.803)" stroke-width="1pt"/><ellipse cx="194.882" cy="166.535" rx="10.63" ry="10.63" transform="matrix(1.07024 0 0 1 79.931 226.772)" stroke-width="1pt"/><ellipse cx="194.882" cy="166.535" rx="10.63" ry="10.63" transform="matrix(1.07024 0 0 1 140.606 226.772)" stroke-width="1pt"/><path d="M212.598 311.811h49.607l-24.803 31.89-24.804-31.89z" transform="matrix(1.07024 0 0 1 64.762 53.15)" stroke-width="1pt"/><ellipse cx="194.882" cy="166.535" rx="10.63" ry="10.63" transform="matrix(1.42698 0 0 1.33333 40.745 167.716)" stroke-width="1pt"/></g><g transform="matrix(.27983 0 0 .2495 60.402 -21.114)" fill="#fff" fill-rule="evenodd"><rect height="21.26" rx="4.423" ry="3.76" width="81.496" x="262.205" y="524.409" stroke-width="1.25"/><path d="M368.504 506.693c-9.815 0-17.716 8.259-17.716 18.519v16.11c0 10.26 7.901 18.52 17.716 18.52 9.815 0 17.716-8.26 17.716-18.52v-16.11c0-10.26-7.901-18.52-17.716-18.52zm0 7.087c-5.888 0-10.63 6.608-10.63 14.816v9.345c0 8.208 4.742 14.816 10.63 14.816 5.889 0 10.63-6.608 10.63-14.816v-9.345c0-8.208-4.741-14.816-10.63-14.816zM276.377 510.237c-5.887 0-10.63 6.608-10.63 14.816v16.432c0 8.208 4.743 14.816 10.63 14.816 5.89 0 10.63-6.608 10.63-14.816v-16.432c0-8.208-4.74-14.816-10.63-14.816zm0-7.087c-9.814 0-17.716 8.259-17.716 18.519v23.198c0 10.26 7.902 18.52 17.716 18.52 9.815 0 17.717-8.26 17.717-18.52v-23.198c0-10.26-7.901-18.52-17.716-18.52z" stroke-width="1.25"/><path d="M248.031 517.323c-5.888 0-10.63 6.608-10.63 14.816l-.001 3.864c0 8.208 4.742 14.816 10.63 14.816 5.889 0 10.63-6.608 10.63-14.816l.001-3.864c0-8.208-4.741-14.816-10.63-14.816zm0-7.087c-9.814 0-17.716 8.26-17.716 18.52l-.001 10.63c0 10.26 7.902 18.52 17.716 18.52 9.815 0 17.717-8.26 17.717-18.52l.001-10.63c0-10.26-7.902-18.52-17.717-18.52z" stroke-width="1.25"/><path d="M478.346 237.401c-5.888 0-10.63 6.608-10.63 14.816v16.432c0 8.208 4.742 14.816 10.63 14.816 5.889 0 10.63-6.608 10.63-14.816v-16.432c0-8.208-4.741-14.816-10.63-14.816zm0-7.087c-9.814 0-17.716 8.259-17.716 18.519v23.198c0 10.26 7.902 18.52 17.716 18.52 9.815 0 17.717-8.26 17.717-18.52v-23.198c0-10.26-7.902-18.519-17.717-18.519z" transform="matrix(1.8 0 0 1.11763 -655.513 242.2)" stroke-width=".881"/><path d="M478.346 237.401c-5.888 0-10.63 6.608-10.63 14.816v16.432c0 8.208 4.742 14.816 10.63 14.816 5.889 0 10.63-6.608 10.63-14.816v-16.432c0-8.208-4.741-14.816-10.63-14.816zm0-7.087c-9.814 0-17.716 8.259-17.716 18.519v23.198c0 10.26 7.902 18.52 17.716 18.52 9.815 0 17.717-8.26 17.717-18.52v-23.198c0-10.26-7.902-18.519-17.717-18.519z" transform="matrix(1.8 0 0 1.11763 -425.198 245.743)" stroke-width=".881"/><rect height="21.26" rx="2.308" ry="3.76" width="42.52" x="375.591" y="524.409" stroke-width="1.25"/><rect height="28.346" rx="1.346" ry="5.013" width="24.803" x="336.614" y="520.866" stroke-width="1.25"/><rect height="28.346" rx="1.346" ry="5.013" width="24.803" x="219.685" y="520.866" stroke-width="1.25"/><rect height="35.433" rx="2.692" ry="6.267" width="49.606" x="141.732" y="517.323" stroke-width="1.25"/><rect height="35.433" rx="2.5" ry="6.267" width="46.063" x="450" y="520.866" stroke-width="1.25"/></g></g></svg>