<svg xmlns="http://www.w3.org/2000/svg" width="1000" height="500"><rect width="1000" height="500" ry="0" rx="0" fill="#bc0000"/><g fill="#fcd116"><path d="m 119.96333,96.59333 c 159.07167,-24.195 126.48831,181.3981 10.20998,107.29477 l 1.87804,-2.85621 -8.30562,-7.42646 -2.56325,2.22893 -5.19871,-4.61908 -6.2486,5.69292 4.15944,5.19392 c -5.18,4.36166 -18.57461,16.01455 -20.452943,18.73455 -8.008334,9.99666 7.080003,22.86 14.540003,14.66166 2.93,-2.31666 10.81833,-14.65333 16.06333,-22.29 13.37,14.06 31.58333,23.87667 56.08667,23.43167 5.48166,-0.1 37.57666,-1.41167 58.1,-35.85 C 253.245,175.59167 248.925,137.75167 222.025,111.62667 192.80833,83.24833 149.12,85.45333 119.96333,96.59333 Z"/><path d="m 157.24167,137.8343 20.13333,-20.19 -6.65333,-6.20667 -26.37,-1.82 -37.72167,35.23334 21.21167,21.02666 18.15,-16.88 c 27.61166,28.71167 79.62333,83.23834 83.80666,87.96667 4.18334,4.73 17.02667,-6.45167 12.74667,-11.39 -4.28,-4.93667 -66.22,-71.11667 -85.30333,-87.74 z"/></g><path d="m 168.9784,24.98845 5.14326,15.829361 h 16.64424 l -13.4655,9.783412 5.14325,15.829356 -13.46525,-9.78313 -13.46524,9.78313 5.14325,-15.829356 -13.46551,-9.783412 h 16.64424 z" fill="none" stroke="#fcd116" stroke-width="8.2"/><path d="m 168.9784,24.98845 5.14326,15.829361 h 16.64424 l -13.4655,9.783412 5.14325,15.829356 -13.46525,-9.78313 -13.46524,9.78313 5.14325,-15.829356 -13.46551,-9.783412 h 16.64424 z" fill="#bc0000"/></svg>