<svg xmlns="http://www.w3.org/2000/svg" version="1.0" width="900" height="600"><path fill="#ea0437" d="M0 0H900V600H0z"/><path d="M 0,600 H 900 V 300" fill="#4189dd"/><path d="M 0,0 H 900 V 300" fill="#12ad2b"/><path d="m 211.49921,445.79544 c -12.97223,3.58184 -20.40935,13.64611 -20.2189,23.1415 l 63.85281,-0.25635 c 0.57376,-10.20346 -7.82048,-19.64026 -20.59982,-23.35638 62.51723,-1.2916 116.82826,-24.70901 126.6972,-39.73464 -9.7664,-4.23862 -21.0588,2.58321 -29.10877,1.01325 19.11286,-8.8337 76.37578,-45.89724 67.06595,-85.63188 -7.23692,22.06965 -29.16007,40.33038 -38.49674,45.23313 21.39086,-32.48064 50.59977,-66.29683 25.25836,-92.48303 1.27941,15.17699 -9.64434,31.88002 -14.46892,33.13498 12.4082,-34.31915 24.24753,-77.40856 -2.63693,-105.81418 3.53054,10.26694 2.10464,39.22924 -2.75659,40.53061 -1.49669,-23.33683 -5.47895,-72.42283 -30.05612,-71.72453 7.8058,6.94881 11.22159,25.91517 11.39495,45.07199 -5.60102,-13.12362 -11.96629,-23.00478 -25.58066,-32.6955 -11.01408,-21.1223 -30.61038,-38.62371 -50.20913,-51.16135 2.19988,15.37477 4.02132,27.50466 25.48788,43.45076 -11.19229,-0.69585 -22.38217,-21.91338 -34.34358,-22.50181 -9.51492,-0.45902 -16.98134,8.62131 -32.52946,3.39628 1.72132,5.13224 8.97533,7.40538 10.5062,11.20207 -3.33034,2.29999 -11.23624,-0.35892 -17.80904,-3.78204 9.04125,12.31544 23.05116,19.55723 34.94422,17.11319 14.1442,-2.71995 29.309,-1.28184 43.77306,6.9488 -3.69416,1.89713 -18.07276,1.88491 -27.29956,0.73005 8.3869,8.49188 14.01236,14.11978 28.59604,14.027 13.02595,-0.0854 19.85512,-6.9488 23.2001,-2.69797 8.16963,9.68095 13.6681,19.35702 20.50215,30.75443 -15.09642,1.66761 -10.54528,-17.07412 -27.35815,-26.65985 -9.44656,19.55235 10.86512,42.73047 24.69193,52.36503 0.18557,14.69601 2.33418,26.99194 8.56757,38.1818 4.202,7.88882 9.63458,15.9632 7.58607,33.76736 -8.27703,-6.02832 -16.36605,-26.35954 -13.38975,-42.49853 -10.35972,2.82495 -14.41035,21.04173 -9.52714,30.2124 3.64776,6.98055 6.08203,20.341 1.87516,26.31316 -4.09946,5.56441 -4.52918,4.94179 -4.47546,16.88367 0.14649,7.14657 -3.84552,15.59697 -10.34752,21.48855 1.35754,-5.03459 2.90551,-13.6974 1.40148,-19.11288 -5.13956,8.71897 -18.03367,17.74069 -22.09405,27.11401 -3.98715,9.39529 -4.99798,25.66858 -24.29395,29.42131 -24.82378,4.92717 -33.39137,9.22927 -49.36433,15.76543 -1.77261,-12.13232 3.53299,-37.43221 13.67786,-35.98923 9.90557,1.76285 39.93729,-10.34751 29.19424,-35.64739 -2.12176,7.97428 -9.19996,15.75566 -16.85194,16.09993 8.26727,-10.72596 23.02187,-21.83281 15.83623,-39.80545 -3.99446,7.63977 -10.2767,16.808 -19.80384,21.9671 10.21322,-19.57189 1.18662,-25.42685 -10.94083,-9.30739 -4.58045,6.21876 -7.34678,18.68069 -10.25718,34.50717 -4.76355,-12.87213 -4.44859,-29.81685 -10.09357,-43.57528 -5.89648,-14.87914 7.82533,-18.80766 14.28338,-17.61374 15.81182,4.22154 42.23728,4.2191 40.27422,-21.90361 -6.82915,8.83615 -18.80522,11.56588 -31.73838,8.38445 14.52509,-10.60631 25.99331,-30.55664 9.80792,-40.97252 -0.5396,11.04582 -9.08765,23.42962 -20.49971,29.13321 -2.67111,-9.31961 -2.67111,-19.21055 -0.38088,-30.0537 -6.37258,6.70708 -11.02627,20.66328 -14.72775,36.52882 -0.27835,-15.68242 2.68821,-26.98216 4.88808,-35.41789 3.33524,-12.32277 11.62448,-4.30455 24.31349,-3.39627 12.22023,0.69341 29.04532,-6.06006 25.82971,-22.63122 -4.17268,6.55571 -12.73783,9.10719 -21.48854,8.41378 10.53552,-6.38236 28.89149,-17.72361 18.82476,-35.16886 -4.22886,6.60697 -5.5986,12.25927 -17.83836,14.28582 3.20582,-7.37365 3.73811,-17.79929 13.23839,-21.93047 -16.94717,-3.3743 -26.65011,7.7472 -31.58214,25.16559 -1.99968,-12.07617 -4.38023,-16.52232 -4.85392,-25.35604 9.1609,-10.17417 10.12045,-30.07811 -9.71268,-34.52916 -1.17686,10.26695 -0.82771,12.71344 1.42833,21.07348 -9.30983,-5.53023 -22.431,-8.58223 -31.16705,-0.76177 5.91843,6.38724 15.07933,12.01024 29.19912,5.04435 -3.33523,10.91151 -12.01025,9.04369 -23.93015,4.88319 7.28575,13.68518 16.48082,16.11704 26.62812,14.53976 5.31293,14.00747 5.54732,24.65041 -9.97884,45.05002 0.71783,-12.6768 -0.18311,-22.12094 -10.25472,-32.37078 -8.63107,-8.45283 -15.64579,0.36136 -2.15838,19.15437 -8.18182,-6.02587 -17.4428,-18.25585 -20.23112,-30.48341 -2.69796,15.10619 -0.26858,32.91038 8.09391,42.89165 -3.95539,4.2264 -8.45283,-0.44927 -15.1062,-10.78946 2.5173,33.09104 16.63464,39.47583 35.60835,32.09977 0.53959,18.16307 0.53959,34.98084 1.61877,56.92109 -11.06289,-15.91439 -25.08747,-27.78546 -32.91279,-30.75201 -2.42697,8.9021 6.74614,20.4997 11.87107,26.97483 -7.82291,-1.61878 -24.81891,-14.5666 -24.81891,-14.5666 -1.70912,14.74729 17.35737,28.41539 29.67526,34.52915 -14.47628,-0.62994 -20.86351,-6.11376 -30.21485,-15.1062 0.18069,40.91395 44.32974,33.80887 52.60433,27.51443 1.0792,20.14321 2.6174,43.42878 3.6966,63.57203 -12.48148,-2.17792 -11.49996,-5.93068 -22.17954,-6.91952 -29.64106,-1.15488 -53.15368,-35.58147 -60.93995,-60.90578 -2.23407,4.1678 -0.46147,8.52851 -2.50508,13.64856 -4.81241,-12.4302 -10.96036,-28.48374 -19.20565,-35.95504 2.09977,7.24667 2.32196,14.61054 1.59192,28.15412 -2.82982,-8.77511 -5.46186,-11.46576 -5.65232,-21.76689 0.18069,-7.90835 7.63001,-13.74379 7.21739,-24.86773 -0.30521,-8.12077 -7.71302,-25.7223 -8.80199,-39.34888 -3.58671,14.02458 -5.83786,28.80849 -11.331464,37.49082 2.729714,-14.97679 1.854634,-25.31209 6.472684,-35.39103 5.3349,-10.61121 9.8714,-20.08462 6.31887,-30.7935 -3.40604,4.13609 -2.23407,7.89369 -10.79165,17.94335 -1.858784,-10.92863 11.06511,-28.42028 23.60762,-35.45208 8.84594,-4.66103 19.99672,-21.3323 12.73296,-32.75898 -8.31854,5.97459 -12.0542,14.04652 -23.80563,27.83916 8.38203,-32.76633 30.16111,-41.33879 56.235,-41.4511 5.76951,-0.0269 17.40131,-2.10955 20.66573,-9.74444 -7.34922,2.83714 -16.03889,3.1985 -23.77145,1.65052 5.62789,-8.26238 17.47944,-7.18808 28.5228,-7.23691 8.6628,-0.0415 22.18685,-1.21592 27.65361,-13.55334 -10.56726,4.578 -27.04809,5.53024 -37.4249,2.28778 16.50279,-8.55049 42.35204,-9.47098 55.60995,-20.69259 -15.11107,-11.27775 -52.92419,2.62718 -76.80793,19.00788 6.67533,-6.104 17.22548,-16.93251 23.04627,-25.67344 -13.06256,-6.26272 -46.09745,30.33447 -57.47777,52.07938 -10.80897,6.104 -15.13305,15.67265 -19.33017,22.35045 5.75975,-19.46203 6.37014,-33.58426 11.17521,-49.61094 -37.052288,12.75493 -21.651152,81.21504 -29.71064,97.59331 0.948564,-18.08252 0.180432,-41.31193 -7.26426,-53.29043 -11.41254,8.70676 -12.333504,59.95113 -1.618776,102.61325 -3.869208,-11.41693 -11.172048,-22.07454 -13.515,-35.9697 -16.890526,30.8057 9.901428,67.14896 32.304836,95.85732 -16.866104,-8.78488 -33.542252,-27.68045 -44.49626,-43.52155 3.023448,55.13627 60.60108,66.59227 69.53978,80.14315 -12.13232,-5.6474 -35.326568,-16.82263 -45.168668,-5.11271 16.02228,3.69904 28.802618,7.97428 39.101288,14.72531 14.94261,18.65629 43.23834,26.81612 92.51721,28.87684 z" fill="#ffc726"/></svg>