<svg xmlns="http://www.w3.org/2000/svg" width="2277" height="1387" version="1"><path d="M1708.37 691.207a593.97 593.97 0 1 1-1187.94 0 593.97 593.97 0 1 1 1187.94 0z" fill="#fff" fill-rule="evenodd" stroke="#fff" stroke-width="1.495" stroke-linecap="round" stroke-linejoin="bevel"/><path d="M0 693.5V0h2277v1387H0V693.5zm1222.753 457.856c4.322-2.697 10.708-15.076 10.076-19.533-.403-2.843-2.848-2.93-14.037-.498-10.54 2.29-17.866 2.104-28.914-.736-12.659-3.255-15.306-4.509-23.235-11.008-7.99-6.55-10.643-7.136-10.643-2.35 0 2.67 1.12 4.304 6.452 9.405 6.676 6.387 21.254 16.66 29.742 20.962 5.522 2.799 22.042 6.427 25.806 5.668 1.375-.277 3.514-1.137 4.753-1.91zm-133.253-.88c15.254-4.099 32.63-15.909 37.02-25.16 1.659-3.495 1.655-3.715-.083-4.986-2.94-2.15-4.957-1.628-16.236 4.197-6.526 3.37-13.042 5.951-16.701 6.616-6.636 1.207-23.593.494-30-1.26-8.131-2.228-9.667-1.837-13.144 3.342-1.744 2.598-3.968 6.81-4.942 9.36l-1.77 4.637 2.428 1.842c1.335 1.013 4.003 2.298 5.928 2.856 5.075 1.47 30.263.5 37.5-1.444zm-70.796-36.05c10.045-2.075 28.01-8.535 35.71-12.84 7.808-4.367 15.586-11.536 15.586-14.366 0-2.62-3.414-3.667-17-5.212-13.106-1.49-35.112-7.008-56.437-14.152-13.876-4.648-18.705-5.864-21.33-5.372-1.866.35-11.12 3.703-20.563 7.452-9.443 3.748-18.97 7.45-21.17 8.225-3.101 1.093-4.068 1.991-4.304 3.996-.265 2.25.776 3.303 8 8.092 13.31 8.825 24.422 14.362 37.804 18.838 20.5 6.857 30.463 8.074 43.704 5.34zm203.516.53c4.024-1.118 6.962-4.318 6.079-6.62-1.94-5.054-41.37-17.79-49.083-15.854-6.42 1.611-6.745 4.5-1.213 10.784 4.787 5.438 10.952 9.226 18.181 11.172 6.288 1.692 20.771 1.98 26.036.518zm118.048-1.01c5.545-1.13 13.205-3.146 17.021-4.48 17.545-6.13 49.747-26.06 53.532-33.131 1.788-3.34-1.456-5.402-10.015-6.366-4.018-.452-14.056-2.688-22.306-4.969-22.133-6.118-34.532-8.997-38.747-8.999-2.061 0-9.825 2.249-17.253 4.999-7.428 2.75-13.916 5-14.417 5-.501 0-7.128 2.274-14.726 5.052-7.598 2.779-22.314 7.537-32.702 10.575-10.388 3.037-19.96 6.01-21.271 6.608-7.799 3.553 3.186 9.534 34.116 18.574 17.809 5.206 21.865 6.137 33.5 7.691 14.017 1.872 22.013 1.739 33.268-.555zm-248.615-.266c9.616-2.494 21.332-13.62 19.987-18.98-1.17-4.657-9.934-6.14-17.87-3.022-10.497 4.123-26.77 15.945-26.77 19.447 0 1.077 1.001 2.342 2.25 2.844 3.41 1.37 16.664 1.2 22.403-.289zm55.74-11.897c1.489-7.442.046-15.973-3.105-18.363-2.512-1.906-5.263-1.732-9.038.569-3.174 1.935-3.25 2.147-3.25 9.062 0 10.662 1.824 12.796 10.36 12.117 4.022-.32 4.482-.63 5.033-3.385zm24.88-24.398c15.792-4.669 18.343-6.041 25.091-13.498 11.455-12.658 12.851-27.672 3.45-37.074-4.461-4.46-12.988-7.362-18.648-6.346-5.087.914-17.158 13.453-23.166 24.065-4.358 7.697-4.5 8.216-4.5 16.458 0 8.66 2.582 20.01 4.551 20.01.547 0 6.497-1.627 13.222-3.615zm-6.692-11.033c-1.02-2.66 2.161-11.328 6.23-16.968 8.19-11.356 9.774-13.27 11.746-14.198 3.094-1.455 7.837.936 9.415 4.746 2.974 7.18-3.454 16.383-16.438 23.535-8.135 4.482-10.137 5.009-10.953 2.885zm60.919 5.09c6.05-2.484 19.325-6.802 29.5-9.594s24.8-7.256 32.5-9.921c7.7-2.665 16.648-5.589 19.885-6.497 9.357-2.624 12.177-5.923 15.617-18.267 1.585-5.686 5.014-15.706 7.622-22.268 3.44-8.66 4.44-12.231 3.643-13.028-1.58-1.58-31.528 6.09-43.933 11.252-23.206 9.656-40.993 22.986-63.407 47.521-13.346 14.609-19.382 25.399-14.177 25.34.963-.01 6.7-2.052 12.75-4.537zm-100.733 1.388c6.843-2.087 8.302-13.12 2.9-21.935-15.476-25.257-17.938-28.561-24.534-32.93-6.727-4.456-16.17-3.531-20.084 1.966-5.418 7.61-6.748 29.127-2.322 37.569 4.124 7.864 13.962 14.451 24.45 16.37 5.022.92 14.882.396 19.59-1.04zm-12.467-2.17c-.44-.738-4.233-3.866-8.43-6.95-12.301-9.046-16.874-15.615-16.85-24.21.018-6.901 2.553-9.497 9.277-9.502 6.897-.005 25.703 24.859 25.703 33.983 0 5.63-7.32 10.669-9.7 6.678zm-47.544-4.66c.36-1.973-15.55-31.426-22.115-40.938-7.715-11.18-13.266-16.161-25.536-22.916-8.006-4.407-13.81-6.784-21.304-8.724-16.594-4.296-26.888-6.35-33.301-6.646-5.376-.247-6.03-.065-6.29 1.754-.384 2.677 10.348 24.385 17.192 34.779 6.267 9.515 18.91 22.79 24.347 25.562 4.293 2.19 23.11 8.458 44.251 14.744 14.983 4.454 22.24 5.215 22.756 2.385zm-135.449-9.444c9.25-2.71 18.035-6.683 19.298-8.726 1.143-1.85-7.17-8.596-18.278-14.833-5.383-3.024-18.571-11.389-29.307-18.59-20.353-13.652-44.188-28.19-51.979-31.706-4.05-1.828-7.063-2.096-27.884-2.482-15.815-.293-23.689-.087-24.414.638-3.344 3.344 24.392 36.818 46.868 56.564 12.21 10.726 25.554 16.447 47.889 20.53 14.126 2.583 25.689 2.157 37.808-1.395zm527.396-7.81c23.319-6.845 30.49-11.68 47.745-32.192 16.438-19.542 24.694-31.898 23.069-34.527-.35-.565-1.846-1.023-3.326-1.018-8.367.027-71.206 15.098-87.025 20.871-5.122 1.87-12.65 5.903-19.527 10.464-6.155 4.082-19.505 11.579-29.665 16.66-18.688 9.345-23.974 12.43-23.974 13.992 0 1.163 9.132 4.49 16.491 6.01 11.7 2.414 38.979 4.896 50.009 4.55 9.48-.298 13.101-.963 26.203-4.81zm-106.08-20.885c2.682-1.176 6.452-3.37 8.377-4.875 1.925-1.505 9.35-6.219 16.5-10.475 19.974-11.89 44.144-29.231 48.5-34.794 2.94-3.756 8.585-15.811 11.34-24.217 3.186-9.726 10.778-47.029 9.99-49.084-.978-2.548-5.47-.52-24.378 11.013-6.849 4.177-16.727 11.07-21.952 15.318-23.293 18.937-30.272 29.235-47.278 69.753-12.383 29.504-12.498 32.36-1.1 27.361zm-402.158-7.111c-.368-1.237-5.541-12.375-11.496-24.75s-12.215-26.014-13.911-30.31c-5.885-14.901-10.892-23.344-19.016-32.065-5.047-5.418-20.616-18.937-26.042-22.613-1.925-1.304-5.567-4.267-8.093-6.585-4.612-4.23-8.341-6.535-12.814-7.917l-2.406-.744.652 8.486c.747 9.72 3.796 25.47 6.629 34.248 1.065 3.3 2.666 8.893 3.558 12.429 2.478 9.824 5.839 15.456 14.785 24.776 12.865 13.402 61.333 47.094 68.006 47.273.45.012.517-.99.149-2.228zm542.808-53.77c26.315-8.745 40.974-15.327 55.727-25.02 12.139-7.977 19.067-13.91 23.749-20.34 2.05-2.816 5.806-7.718 8.347-10.893 11.02-13.773 27.702-55.458 28.21-70.491l.194-5.736-3.41-.325c-4.223-.403-11.047 2.053-30.137 10.846-18.243 8.404-20.997 10.242-27.424 18.307-5.281 6.627-6.437 8.305-21.129 30.672-15.418 23.473-28.228 39.357-52.135 64.648-8.396 8.882-15.265 16.48-15.265 16.886 0 1.713 10.518-.991 33.273-8.554zM839.8 964.83c.202-1.067-8.991-11.18-25.492-28.042-18.75-19.16-30.762-32.514-43.922-48.83C750.84 863.722 742.49 855 738.84 855c-1.254 0-8.084-1.404-15.177-3.12-14.132-3.417-14.989-3.26-14.032 2.573 4.442 27.067 13.392 50.794 25.634 67.957 10.056 14.096 11.525 15.624 21.307 22.152 14.853 9.91 24.645 13.117 57.525 18.837 21.496 3.739 25.226 3.947 25.703 1.431zm220.331-2.327c27.12-5.692 42.69-10.553 59.369-18.535 8.25-3.949 27.815-13.008 43.477-20.132 15.663-7.124 28.794-13.465 29.18-14.09 2.066-3.342-4.842-7.403-10.716-6.3-1.977.37-8.067 3.344-13.534 6.61-11.385 6.798-21.627 12.079-29.175 15.04-2.878 1.13-10.407 4.34-16.732 7.135-18.42 8.14-52.224 20.21-69.523 24.824-18.278 4.876-24.933 7.398-23.904 9.062 1.046 1.693 12.542.377 31.558-3.614zm201.287-6.11c2.698-1.035 1.747-3.426-1.982-4.984-1.96-.819-9.272-1.904-16.25-2.412-14.338-1.043-28.99-3.446-52.523-8.618-10.335-2.27-17.695-3.384-20.412-3.088-7.121.776-9.013 4.13-3.697 6.552 4.495 2.048 38.834 10.405 47.946 11.669 9.332 1.294 44.139 1.948 46.918.881zm205.831-22.643c14.527-16.756 50.262-65.63 55.255-75.57 7.452-14.838 8.78-24.099 6.05-42.18-1.826-12.085-3.556-17.377-5.824-17.814-3.532-.68-33.136 32.69-38.566 43.473-1.706 3.388-4.236 7.832-5.623 9.876-8.992 13.25-24.403 88.465-18.126 88.465.779 0 3.854-2.813 6.834-6.25zM842 933.659c0-1.838-.682-5.55-1.516-8.25-.835-2.7-4.654-20.303-8.489-39.118-3.835-18.815-7.803-36.397-8.82-39.071-3.828-10.075-18.18-30.068-31.564-43.97-11.649-12.1-13.288-12.216-17.613-1.248-2.803 7.11-4.09 23.82-2.982 38.7.731 9.824 1.33 12.363 4.855 20.615 5.295 12.393 8.53 17.737 17.491 28.898C803.692 903.079 838.333 937 841.141 937c.472 0 .859-1.504.859-3.341zm137.013-.166c4.239-2.192 5.595-7.89 3.551-14.92-1.72-5.916-2.902-7.282-6.564-7.587-5.335-.443-7.257.117-10.077 2.937-3.623 3.623-3.826 7.865-.673 14.112 3.309 6.556 8.023 8.426 13.763 5.458zm337.704-4.39c2.805-4.176 2.905-8.57.294-12.853-1.644-2.696-2.594-3.25-5.573-3.25-6.216 0-11.594 7.258-10.021 13.525 1.114 4.437 4.194 6.621 8.855 6.28 3.456-.253 4.55-.882 6.445-3.703zm-40.785-1.069c5.163-2.633 10.569-9.145 13.245-15.955 2.897-7.37 3.311-25.016.65-27.679-2.548-2.55-4.1-1.226-6.727 5.738-1.32 3.499-5.032 12.719-8.25 20.488-6.207 14.99-6.539 16.285-4.65 18.174 1.511 1.511 1.184 1.555 5.732-.766zM1015 926.564c0-1.931-9.248-23.57-13.275-31.064-1.774-3.3-3.675-6-4.225-6-1.855 0-1.636 9.43.385 16.57 1.097 3.876 3.13 8.985 4.517 11.352 4.267 7.282 12.598 13.327 12.598 9.142zm33.706-11.235c10.343-5.3 13.294-7.777 13.294-11.16 0-3.112-12.241-30.486-15.606-34.897-1.373-1.8-3.381-3.272-4.463-3.272-2.119 0-20.624 8.968-25.237 12.231-2.392 1.692-2.71 2.448-2.157 5.127.896 4.343 15.106 33.633 17.611 36.3 2.455 2.612 3.591 2.315 16.558-4.33zm71.692 5.536c2.69-1.226 3.824-3.123 3.058-5.119-.634-1.651-15.07-9.352-19.133-10.205-3.377-.71-7.878 1.013-10.314 3.948-1.711 2.062.056 3.938 8.432 8.954 6.386 3.823 12.94 4.707 17.957 2.422zm130.928-3.115c2.081-1.523 16.674-34.999 16.674-38.25 0-3.146-4.329-6.58-12.635-10.023-3.776-1.565-11.352-4.788-16.837-7.161-5.484-2.374-10.748-4.316-11.697-4.316-1.197 0-3.14 2.966-6.346 9.692-9.594 20.122-11.746 27.084-9.606 31.082.6 1.122 5.936 4.53 11.856 7.573 5.92 3.044 13.24 7.124 16.265 9.068 5.782 3.715 9.482 4.416 12.326 2.335zM1091.5 893.284c9.356-3.859 31.194-15.288 32.978-17.26 1.492-1.648 1.395-1.953-1.36-4.271-3.276-2.757-28.116-16.537-35.562-19.73-6.784-2.907-12.19-2.641-17.73.873-6.49 4.116-7.861 6.375-6.629 10.931 1.67 6.176 12.462 27.923 15.23 30.69 2.89 2.89 3.132 2.867 13.073-1.233zm98.695-9.034c1.544-1.795 12.974-25.891 14.272-30.085.962-3.113-2.309-6.568-8.368-8.839-2.53-.948-5.724-2.522-7.099-3.498-1.375-.976-9.02-4.507-16.99-7.847-7.97-3.34-16.295-7.129-18.5-8.419-2.206-1.29-9.41-4.61-16.01-7.379-6.6-2.768-16.95-7.363-23-10.211-6.05-2.848-15.144-6.681-20.21-8.518l-9.21-3.339-2.576 3.063c-3.211 3.816-4.752 6.779-7.967 15.32-3.133 8.324-3.198 11.544-.287 14.226 1.237 1.14 14.4 8.179 29.25 15.641 14.85 7.463 28.125 14.23 29.5 15.038 1.375.808 6.325 3.352 11 5.653 4.675 2.3 11.625 6 15.444 8.22 21.813 12.686 27.526 14.724 30.751 10.974zm155.776-5.58c9.158-4.337 5.244-22.303-8.124-37.288-2.887-3.235-8.897-9.707-13.357-14.382-9.315-9.764-10.845-11.841-15.984-21.693-2.552-4.893-3.562-7.93-3.158-9.5.326-1.269 3.081-5.148 6.122-8.62 3.042-3.473 5.53-6.877 5.53-7.564 0-1.768-4.978-6.298-8.298-7.553-3.849-1.454-9.062.831-11.676 5.12-4.069 6.672-2.165 17.871 5.576 32.81 4.323 8.343 6.432 11.064 25.229 32.553 10.45 11.946 10.475 12.045 5.205 20.447-3.925 6.26-4.394 8.407-2.593 11.89 3.13 6.052 8.15 7.274 15.528 3.78zm-395.228-12.255c3.684-4.122 3.905-7.162.91-12.49-2.815-5.008-3.36-9.655-1.552-13.24.606-1.202 8.437-9.385 17.402-18.185 14.546-14.279 16.526-16.623 18.399-21.788 2.458-6.78 2.787-17.126.704-22.113-1.393-3.333-4.982-6.6-7.252-6.6-2.118 0-7.13 4.921-8.233 8.083-1.136 3.26-.808 3.766 6.151 9.504 2.352 1.94 2.469 2.435 1.65 7-.483 2.703-2.595 8.264-4.693 12.359-3.52 6.871-4.541 7.965-13.271 14.203-19.718 14.09-26.078 21.911-26.17 32.188-.108 12.022 9.284 18.544 15.955 11.079zm71.77-8.832c5.5-3.603 4.036-7.888-4.456-13.052-3.056-1.858-8.932-5.8-13.057-8.76-16.252-11.66-19.524-12.567-25.923-7.182-3.573 3.007-3.926 6.062-1.111 9.64 1.615 2.054 21.35 16.85 26.928 20.191 4.474 2.68 12.861 2.28 17.619-.837zm260.516-2.704c12.912-8.345 18.971-13.544 18.971-16.278 0-2.384-4.063-8.497-6.586-9.909-2.616-1.464-29.964 14.854-35.894 21.418-4.218 4.668-3.797 5.944 2.98 9.026 6.96 3.166 10.027 2.53 20.529-4.257zM748.8 842.799c1.66-1.658 1.502-10.196-.32-17.339-.836-3.278-4.84-12.485-8.898-20.46-13.088-25.722-29.772-63.829-32.175-73.487-.51-2.052-7.683-9.956-22.913-25.25C672.302 694.018 661.81 684 661.182 684c-2.08 0-2.682 5.31-2.551 22.5.108 14.19.565 19.066 2.763 29.5 5.003 23.749 11.25 45.355 17.426 60.273 6.622 15.994 9.881 21.418 17.647 29.37 4.778 4.893 5.72 5.368 18.534 9.36 7.425 2.313 16.425 5.23 20 6.48 7.44 2.605 12.07 3.046 13.8 1.317zm464.864-15.251c7.05-3.22 7.883-5.074 5.276-11.744-2.417-6.185-9.504-19.52-11.72-22.054-.841-.963-2.636-1.75-3.989-1.75-4.519 0-44.231 18.03-44.231 20.082 0 2.002 28.922 15.686 37.807 17.888 4.975 1.233 10.635.42 16.857-2.422zm357.98-1.65c3.771-1.156 12.256-4.7 18.856-7.877 10.812-5.202 12.747-6.556 19.547-13.674 9.722-10.177 19.528-24.972 25.747-38.847 8.851-19.747 10.34-25.6 12.158-47.805 1.466-17.912 1.406-19.695-.663-19.695-3.136 0-25.964 15.923-28.898 20.157-1.514 2.184-6.158 6.826-10.322 10.315-12.323 10.327-13.542 11.968-18.61 25.028-2.562 6.6-6.394 16.05-8.516 21-2.123 4.95-5.4 13.05-7.284 18-1.884 4.95-5.534 14.06-8.112 20.243-4.593 11.021-5.172 15.257-2.085 15.257.73 0 4.412-.946 8.183-2.102zm-176.826-.928c4.987-3.041 7.382-9.356 7.382-19.47 0-9.074-.592-10.713-6.398-17.7-6.013-7.238-9.21-8.8-18.01-8.8-8.171 0-20.332 2.704-26.646 5.926-4.187 2.136-20.751 17.307-24.23 22.191-1.87 2.626-1.899 3.016-.439 5.839 2.213 4.28 5.645 6.333 8.638 5.17 1.312-.51 7.785-5.035 14.385-10.055s14.751-10.496 18.114-12.17c5.852-2.912 6.266-2.978 9.67-1.556 5.996 2.505 7.297 7.636 3.716 14.655-3.557 6.973-2.165 12.099 4.367 16.082 3.955 2.412 5.338 2.395 9.451-.112zm-483.407-3.047c3.446-4.095 3.31-8.015-.467-13.504-1.68-2.443-3.728-6.05-4.55-8.017-1.567-3.752-1.143-5.076 2.606-8.12 4.508-3.661 14.842 1.358 28.26 13.724 11.313 10.426 13.285 11.03 17.204 5.262 3.286-4.836 3.197-7.056-.488-12.142-5.332-7.36-11.21-12.223-20.455-16.916-8.512-4.322-9.557-4.601-18.521-4.953-8.2-.321-9.939-.097-12.706 1.644-3.941 2.478-9.026 11.132-9.878 16.809-1.09 7.272 2.438 18.279 8.347 26.04 3.295 4.327 7.1 4.39 10.648.173zm145.611-9.112c1.67-2.305 3.31-5.342 3.648-6.75.337-1.409 1.9-5.835 3.472-9.837s2.858-8.134 2.858-9.182c0-2.026-15.6-14.042-18.231-14.042-.781 0-2.366 1.012-3.523 2.25-2.841 3.041-11.84 21.206-13.407 27.061-1.205 4.505-1.15 4.833 1.206 7.188 2.495 2.495 14.566 7.29 18.699 7.427 1.532.05 3.206-1.255 5.278-4.115zM1251 810.187c8.596-3.08 9.045-3.928 6.977-13.187-2.348-10.514-10.16-24.85-14.657-26.9-3.167-1.443-5.827-.256-13.226 5.901-7.597 6.322-8.849 8.993-6.261 13.355 1.025 1.73 2.878 5.716 4.117 8.859 1.24 3.143 3.548 7.756 5.13 10.25 2.601 4.102 3.236 4.529 6.648 4.472 2.075-.034 7.147-1.272 11.272-2.75zm300.231-11.937c3.076-3.493 15.876-32.662 20.076-45.75 5.736-17.872 6.969-23.794 6.974-33.5.004-8.025-.424-10.587-2.757-16.5-3.964-10.046-12.422-26.055-15.088-28.56l-2.278-2.14-3.1 4.278c-3.766 5.2-13.279 24.344-15.942 32.084-3.492 10.15-4.394 19.443-3.835 39.496.565 20.24 1.51 25.805 6.857 40.342 2.923 7.948 5.24 12 6.862 12 .38 0 1.383-.788 2.231-1.75zm-792.408-8c7.449-19.443 9.208-29.486 9.243-52.75.043-29.43-4.8-51.297-16.666-75.24-3.608-7.283-6.922-13.465-7.363-13.737-1.803-1.114-6.046 3.926-9.859 11.71-9.783 19.976-13.667 42.51-10.215 59.267 4.285 20.8 13.366 48.155 21.246 64 5.456 10.97 7.72 14.5 9.3 14.5.756 0 2.645-3.393 4.314-7.75zm608.927-37.882c7.287-.315 13.25-.995 13.25-1.51 0-1.714-4.188-9.28-8.528-15.405-5.093-7.19-15.121-16.782-23.476-22.456l-6.028-4.093-202.921-1.073-202.922-1.073-6.312 3.547c-10.739 6.034-17.076 13.076-26.72 29.69-3.351 5.772-6.093 11.03-6.093 11.684 0 .653 1.237 1.378 2.75 1.61 4.092.628 451.574-.255 467-.921zm13.88-48.618c2.784-2.888 13.565-15.15 23.957-27.25 10.392-12.1 25.576-28.975 33.743-37.5 8.166-8.525 17.388-18.65 20.494-22.5 9.652-11.968 23.1-27.295 25.834-29.445 1.436-1.13 3.621-2.055 4.855-2.055 3.202 0 8.707 2.48 10.912 4.917 3.48 3.846 7.314 2.147 16.589-7.353 6.296-6.45 9.66-11.223 8.634-12.25-.28-.28-4.377 3.135-9.105 7.589-9.435 8.886-11.522 9.627-17.266 6.124-3.163-1.928-4.485-4.692-4.014-8.389.13-1.024-.596-2.374-1.615-3-1.631-1.002-4.171 1.245-21.32 18.862-10.706 11-26.424 27.748-34.928 37.218-8.504 9.47-16.023 17.57-16.708 18-.685.43-2.809 2.807-4.719 5.282-1.91 2.475-10.448 12.151-18.973 21.503-28.316 31.061-28.373 31.137-26.025 33.967 2.156 2.597 4.397 1.734 9.655-3.72zm72.277-8c1.566-7.833 6.025-56.292 5.4-58.681-.993-3.802-2.558-2.633-11.662 8.71-6.134 7.645-6.645 8.652-6.645 13.113 0 6.471 5.243 32.355 8.047 39.732 1.565 4.117 3.718 2.844 4.86-2.874zm159.024.07c6.589-4.846 17.388-18.15 22.938-28.258 4.873-8.875 12.132-28.899 16.075-44.342 2.27-8.894 4.036-22.842 4.048-31.987.024-18.131-10.534-61.87-18.807-77.915-3.122-6.056-4.046-6.232-8.187-1.566-3.851 4.34-15.998 26.868-15.998 29.671 0 .911-.873 3.369-1.941 5.462-3.276 6.42-7.19 22.123-7.752 31.095-.355 5.67.38 17.55 2.196 35.52 2.479 24.516 2.69 29.691 2.289 56.25-.243 16.087-.16 29.25.186 29.25.345 0 2.574-1.431 4.953-3.18zm-909.03.8c1.454-1.752 1.51-27.895.151-71.12-.553-17.6-1.016-40.691-1.029-51.314L703 554.873l-7.169-10.187c-3.943-5.602-8.792-11.986-10.775-14.186-1.984-2.2-4.582-5.575-5.774-7.5-1.193-1.925-3.085-4.06-4.205-4.746-2.578-1.577-3.565-.171-8.588 12.246-4.278 10.576-7.857 26.758-9.55 43.188-1.707 16.553-.747 44.202 1.924 55.414 2.63 11.04 7.236 23.636 11.254 30.776C676.192 670.676 698.793 698 701.65 698c.608 0 1.62-.621 2.25-1.38zm136.62-18.784c.799-6.053 2.409-16.137 3.577-22.408 1.169-6.272 1.84-12.54 1.49-13.93-.348-1.39-2.76-4.918-5.36-7.841-2.6-2.923-5.957-7.422-7.46-9.996-1.669-2.86-4.578-5.853-7.48-7.693-2.61-1.656-5.753-4.239-6.981-5.74l-2.235-2.728-.032 2.5c-.072 5.61 3.073 20.342 7.26 34 2.444 7.975 5.668 21.25 7.165 29.5 1.497 8.25 3.406 16.575 4.243 18.5l1.523 3.5 1.42-3.329c.78-1.83 2.072-8.281 2.87-14.335zm79.988 15.781c1.243-.909 1.891-2.605 1.891-4.95 0-3.14-.828-4.317-6.943-9.866-15.433-14.005-56.204-53.943-75.957-74.405C816.031 580.085 804.862 570 801.406 570c-2.61 0-3.466 1.058-4.348 5.373-.533 2.604-1.273 3.212-5.09 4.178-2.966.751-4.36 1.605-4.147 2.54.641 2.81 2.074 3.133 6.778 1.53 2.616-.892 6.539-1.621 8.716-1.621 3.706 0 4.509.59 12.567 9.25 4.735 5.087 17.218 18.025 27.74 28.75 10.523 10.725 29.982 30.975 43.241 45 21.595 22.841 29.015 30 31.094 30 .363 0 1.512-.622 2.552-1.383zm413.833-4.94c3.777-4.358-1.302-17.296-9.163-23.344-5.466-4.205-11.46-4.802-40.164-4-25.188.702-24.868.612-30.511 8.592-2.6 3.676-3.044 5.285-3.356 12.156-.198 4.355-.2 7.978-.004 8.05 1.465.544 57.12 1.449 67.856 1.104 12.224-.392 13.674-.634 15.342-2.558zm-303.015.832c4.562-1.953 3.92-11.575-1.326-19.847-5.338-8.417-4.134-8.178-40.624-8.04-17.705.066-33.782.419-35.727.784-3.094.58-3.882 1.38-6.28 6.379-2.9 6.04-4.459 17.526-2.628 19.357.542.541 3.184 1.38 5.871 1.864 5.887 1.059 78.118.614 80.714-.497zm204.874-.314c1.04-1.045 1.246-12.092 1.035-55.43-.145-29.77-.393-54.256-.551-54.413-.158-.158-11.401-.598-24.986-.977-23.825-.666-24.707-.623-24.934 1.217-.13 1.05-.242 24.535-.25 52.19-.017 56.264.497 52.654-7.383 51.87-2.994-.297-5.195-1.261-7-3.067l-2.632-2.633v-33.893c0-18.64-.338-34.23-.75-34.642-1.33-1.33-1.835.204-2.439 7.411-.434 5.176-1.023 7.237-2.202 7.705-2.6 1.034-24.352 1.808-29.426 1.047-6.953-1.043-7.683-2.239-7.683-12.592 0-9.235-.754-11.092-3.42-8.426-1.383 1.384-1.58 6.163-1.58 38.318 0 30.136-.255 37.087-1.418 38.679-1.333 1.823-3.439 1.992-34.75 2.78-28.774.724-33.503 1.059-34.586 2.446-.69.884-.904 1.957-.478 2.383 1.177 1.177 23.455 1.466 107.433 1.396 61.69-.051 76.954-.32 78-1.37zm-103.953-5.901c-1.239-.239-2.643-1.19-3.12-2.114-.477-.924-1.102-9.472-1.389-18.996l-.52-17.317 2.64-1.016c1.453-.56 9.391-1.263 17.641-1.565 20.624-.753 19.56-1.899 18.269 19.683-.542 9.057-1.35 17.43-1.797 18.606-.56 1.473-2.004 2.334-4.643 2.77-4.16.688-23.434.651-27.081-.051zm90.15-1.28c-3.076-1.23-3.396-5.535-3.413-45.904-.009-19.585-.39-36.202-.85-36.925-.537-.848-2.383-1.203-5.194-1-3.675.265-4.47.709-5.052 2.815-.38 1.375-.734 19.937-.79 41.25L1207 681h-3.965c-3.025 0-4.236-.506-5.108-2.136-2.76-5.158-3.533-80.645-.87-84.957.684-1.108 4.049-1.407 15.822-1.407 8.223 0 15.328.374 15.787.832 1.743 1.739 2.064 86.386.334 87.964-1.22 1.111-4.677 1.488-6.602.718zm367.307-.764c1.342-6.331.856-56.972-.613-63.75-3.864-17.833-16.827-50.494-22.82-57.494l-3.651-4.267-2.219 2.58c-2.807 3.264-5.028 12.977-6.454 28.237-1.552 16.596.523 33.012 6.663 52.717 5.044 16.19 22.505 45.727 27.03 45.727.698 0 1.626-1.688 2.064-3.75zm-269.317-33.544c1.243-.91 1.672-2.323 1.44-4.75l-.328-3.456-21.5.274c-11.825.15-24.313.523-27.751.83-5.562.494-6.318.822-6.858 2.973-1.375 5.478-1.649 5.423 26.886 5.423 19.973 0 26.769-.313 28.11-1.294zm-303.689-1.975c1.37-1.371 1.522-2.157.676-3.5-.98-1.553-3.632-1.759-25.766-1.999-15.876-.172-25.376.108-26.642.786-2.229 1.192-2.58 3.473-.717 4.662 1.866 1.19 18.278 2.092 35.466 1.948 13.112-.11 15.46-.373 16.983-1.897zm-283.77-17.277c12.743-25.83 18.847-45.663 21.712-70.544 1.782-15.467 1.218-22.986-2.061-27.47-1.264-1.728-1.48-1.736-3.908-.145-1.414.927-4.993 4.727-7.954 8.445-12.127 15.227-15.603 22.73-17.72 38.249-1.364 9.989-1.888 62.908-.643 64.836 1.49 2.306 5.082-2.237 10.574-13.37zm280.274-4.255c1.02-1.024 1.284-9.56 1.236-40-.033-21.285-.367-39.887-.741-41.338-.439-1.703-1.589-2.868-3.238-3.282-4.272-1.072-31.469.573-32.885 1.989-1.263 1.263-2.123 9.9-5.107 51.304-1.76 24.425-1.822 29.791-.355 30.698 3.814 2.357 38.832 2.893 41.09.629zm300.614-.586c.806-.498 1.182-4.613 1.18-12.922-.001-13.364-2.732-66.194-3.558-68.849-.79-2.54-3.016-3.07-15.125-3.6-14.246-.623-23.941.344-24.756 2.468-1.084 2.824-2.406 30.28-2.735 56.79l-.323 26 12 .609c14.697.745 31.719.492 33.317-.496zm124.54-14.51c3.538-2.332 14.326-14.466 20.414-22.96l4.556-6.355-1.26-9.17c-1.085-7.906-1.02-11.167.475-23.645 1.92-16.031 1.589-31.737-1.002-47.53-2.227-13.576-5.053-21.548-10.555-29.773-5.472-8.183-17.087-19.703-19.772-19.612-1.782.06-23.173 25.3-29.077 34.309-1.85 2.823-5.506 7.62-8.124 10.66-7.19 8.347-15.012 20.833-15.012 23.964 0 5.53 9.188 14.16 24 22.542 17.575 9.944 17.743 10.084 21.445 17.833 1.875 3.924 4.09 10.509 4.921 14.634 1.212 6.01 3.634 29.807 3.634 35.7 0 1.83 2.017 1.605 5.357-.597zm-576.342-9.353c.534-1.238 3.27-9.675 6.079-18.75 5.265-17.012 13.163-35.15 19.006-43.65 1.834-2.667 6.094-8.017 9.468-11.887 12.028-13.8 12.283-12.59-7.818-37.109C871.324 467.1 854.352 449 851.845 449c-.848 0-2.394 1.891-3.437 4.203-1.042 2.312-4.98 7.53-8.75 11.597-10.803 11.65-10.843 11.805-11.365 43.642-.37 22.507-.758 28.151-2.313 33.558-4.659 16.203-5.09 20.93-2.29 25.027 5.452 7.97 33.113 34.973 35.826 34.973.84 0 1.964-1.013 2.499-2.25zm475.02-56.89c5.206-6.126 14.703-18.039 21.105-26.472 6.401-8.433 16.784-21.308 23.073-28.61 6.29-7.303 16.343-19.353 22.341-26.778 5.999-7.425 13.728-16.831 17.176-20.903 3.449-4.071 6.27-7.993 6.27-8.714 0-.722-.893-1.79-1.985-2.375-2.605-1.394-5.91 1.714-18.22 17.135-19.06 23.877-42.412 52.642-49.808 61.357-10.324 12.164-29.88 38.086-31.044 41.151-1.303 3.425-1.18 5.349.343 5.349.707 0 5.545-5.013 10.75-11.14zM1583 549.052c0-1.557-.863-7.043-1.917-12.191-1.055-5.148-2.454-13.185-3.109-17.86-.744-5.314-2.083-10.059-3.57-12.658-1.31-2.287-3.54-7.37-4.955-11.295-1.416-3.925-6.966-16.236-12.334-27.357l-9.759-20.222-12.234-5.787c-13.705-6.484-24.377-9.643-26.987-7.99-1.063.673-1.513 2.046-1.286 3.922.505 4.176 6.806 24.62 9.793 31.774 4.166 9.976 15.95 27.72 26.098 39.293a9808.12 9808.12 0 0 1 24.01 27.544c7.99 9.198 14.914 16.484 15.388 16.19.474-.292.862-1.806.862-3.363zm-622-4.96c0-.984-1.237-3.628-2.75-5.875-3.542-5.26-22.087-26.84-34.119-39.701-5.152-5.508-14.133-15.64-19.956-22.515-22.812-26.932-42.438-48.799-44.739-49.847-5.573-2.54-7.11 1.476-2.686 7.015 3.817 4.778 24.332 27.743 38.735 43.36 15.006 16.27 36.754 41.034 41.924 47.739 5.973 7.745 21.408 22.964 22.565 22.25.564-.35 1.026-1.44 1.026-2.426zM710.88 530.75c.456-1.238 1.607-7.65 2.557-14.25 1.938-13.471 7.507-36.062 14.051-57 6.871-21.984 7.798-26.265 7.142-33-1.237-12.72-9.568-41.155-12.373-42.232-4.934-1.893-27.566 30.511-32.742 46.88-5.969 18.877-7.859 46.081-4.09 58.852 4.645 15.731 19.635 43 23.639 43 .542 0 1.36-1.013 1.816-2.25zm37.928-20.07c9.87-10.549 20.252-21.88 23.07-25.18 6.462-7.569 12.668-19.365 14.53-27.624 1.798-7.97 3.887-27.59 3.078-28.9-1.047-1.693-5.792-1.047-11.367 1.549-3.975 1.85-8.811 5.966-18.5 15.744-7.216 7.282-14.365 15.074-15.888 17.316-5.123 7.543-20.336 65.01-18.147 68.55 1.012 1.638 5.472-2.483 23.224-21.454zm858.384 5.22c7.56-15.151 11.521-35.003 10.463-52.432-1.164-19.161-6.865-35.661-21.294-61.62-8.158-14.677-12.506-20.495-14.428-19.307-1.652 1.021-6.45 12.174-11.14 25.895-4.03 11.792-4.126 12.38-4.208 26.064l-.085 14 8.235 19.062c4.53 10.485 8.987 22.41 9.905 26.5.918 4.091 2.489 9.363 3.49 11.715 1.002 2.352 3.008 8.652 4.458 14 1.45 5.348 2.888 10.143 3.197 10.657.96 1.6 7.54-6.784 11.407-14.533zm-593.692 5.6v-3l-8-.666c-11.482-.955-28.543.115-29.202 1.832-.746 1.943 1.403 4.145 4.525 4.637 1.472.232 9.427.371 17.677.31l15-.113v-3zm295.75 1.87c1.014-.292 1.75-1.473 1.75-2.807 0-1.883-.682-2.414-3.75-2.921-4.844-.8-32.6-.829-34.668-.035-2.372.91-1.944 4.903.668 6.236 2.194 1.12 31.829.73 36-.473zm-297.11-20.28c2.209-1.787 2.383-2.7 2.713-14.25.62-21.69-.916-64.544-2.385-66.553-1.118-1.53-2.899-1.787-12.352-1.787-8.828 0-11.368.324-12.658 1.613-1.296 1.297-2.084 7.679-4.013 32.5-1.32 16.988-2.41 34.305-2.423 38.482-.032 10.974.702 11.414 19.617 11.745 7.658.134 9.522-.15 11.5-1.75zm294.29-1.451l2.839-1.861-.68-14.64c-.374-8.05-1.084-23.863-1.579-35.138-.917-20.925-1.858-26.295-4.83-27.549-.924-.39-6.431-.93-12.238-1.2-13.291-.62-13.421-.515-14.273 11.421-1.728 24.204-2.833 64.958-1.83 67.501 1.33 3.378 2.906 3.688 17.706 3.49 9.877-.134 12.557-.498 14.885-2.024zM1039 487.857c3.237-5.295 24.742-25.98 36.407-35.02 15.52-12.028 39.363-21.906 59.602-24.693 8.643-1.19 26.976.41 38.661 3.374 24.125 6.12 49.248 23.332 67.812 46.46C1246.79 484.59 1251.73 490 1252.46 490c2.293 0 2.855-3.08 3.31-18.15l.444-14.652-10.356-10.49c-10.87-11.01-17.223-15.646-27.909-20.362l-6.448-2.846-65.849-.284-65.849-.285-10.41 5.51c-13.451 7.12-24.442 14.552-31.642 21.397l-5.75 5.466v15.783c0 21.172 1.748 25.36 7 16.77zm3.095-54.963c6.824-4.374 10.905-7.75 10.905-9.021 0-1.352-7.257-2.862-13.781-2.867-7.156-.007-7.696.554-7.696 7.994 0 5.371.917 8 2.79 8 .758 0 4.26-1.848 7.782-4.106zm214.89-.644c-.017-5.321-.527-6.446-3.67-8.1-4.095-2.156-14.315-1.127-14.315 1.44 0 1.731 13.706 11.41 16.157 11.41 1.534 0 1.84-.796 1.828-4.75zM1534 422.128c0-7.402-39.231-53.47-53.692-63.047-5.5-3.643-15.723-6.083-28.558-6.815-9.251-.528-9.75-.455-9.75 1.432 0 3.708 10.313 16.748 24.433 30.894 14.498 14.524 17.693 16.799 38.567 27.454 7.846 4.005 26.009 11.782 27.75 11.882.688.04 1.25-.77 1.25-1.8zm-761.13-4.537c3.096-1.875 13.327-7.207 22.735-11.849 31.695-15.64 47.254-28.304 55.367-45.067 4.768-9.85 7.083-19.02 5.262-20.842-1.741-1.74-10.701 1.01-30.348 9.314-18.569 7.85-30.914 16.019-37.19 24.61-5.143 7.038-21.239 34.968-23.562 40.884-2.988 7.61-1.131 8.318 7.735 2.95zm674.467.516c1.648-1.648 2.118-3.366 2.138-7.813.025-5.613-.036-5.736-3.975-7.98-4.427-2.525-8.134-2.894-11.885-1.184-5.574 2.539-5.84 11.799-.494 17.145 2.653 2.653 3.467 2.919 7.539 2.46 2.777-.313 5.391-1.342 6.677-2.628zm-600.282.863c2.414-1.292 4.945-6.085 4.945-9.365 0-1.371-1.086-3.756-2.413-5.3-1.988-2.31-3.217-2.805-6.973-2.805-5.68 0-8.543 2.553-9.315 8.305-.483 3.605-.182 4.466 2.499 7.147 3.222 3.221 7.557 3.999 11.257 2.018zm705.644-5.72c1.227-2.88 1.703-8.503 2.054-24.25.506-22.73-.104-27.121-5.87-42.237-2.921-7.66-3.89-8.999-13.267-18.335-5.564-5.54-14.616-13.37-20.116-17.401-5.5-4.03-11.494-8.723-13.32-10.428-3.224-3.01-3.361-3.043-4.75-1.158-1.7 2.307-1.76 5.787-.414 23.61 1.472 19.495 2.81 26.713 6.107 32.967 2.517 4.775 14.203 20.408 39.42 52.732 3.54 4.537 6.914 8.25 7.498 8.25.583 0 1.78-1.688 2.658-3.75zm-784.023-37.635c20.047-39.944 22.98-48.445 19.945-57.798-.771-2.374-1.683-5.546-2.026-7.049-.364-1.596-1.797-3.338-3.444-4.19-2.55-1.319-3.12-1.275-5.961.453-1.728 1.05-8.35 6.956-14.717 13.123-12.712 12.315-16.88 18.983-19.915 31.861-3.306 14.026-.732 34.93 6.696 54.373l1.103 2.889 1.874-2.314c1.03-1.273 8.43-15.38 16.445-31.348zm548.824 29.933c6.465-1.792 24.5-23.963 24.5-30.118 0-2.047-.556-2.136-17.25-2.761-60.46-2.264-363.27-3.082-376-1.016-2.254.366-3.75 1.166-3.75 2.006 0 3.588 12.562 24.842 17.209 29.116 1.36 1.251 4.457 2.669 6.882 3.15 5.598 1.112 344.362.745 348.409-.377zm-303.013-46.537c3.035-2.52-.252-3.502-12.916-3.86-12.41-.352-18.08.74-15.782 3.038 2.727 2.727 25.613 3.382 28.698.822zm292.054.922c.363-.586.454-1.272.203-1.523-.252-.251-6.934-.702-14.85-1.002-14.052-.532-17.961.056-16.463 2.48.925 1.498 30.186 1.54 31.11.045zm-87.862-8.19c1.312-1.179 3.438-5.995 5.343-12.1 1.74-5.579 5.792-18.243 9.003-28.143 22.126-68.209 27.125-84.448 26.372-85.666-.864-1.4-7.71-2.713-17.397-3.338-14.08-.909-199.828 1.262-204.372 2.389-2.13.528-4.298 1.385-4.818 1.905-.989.989 5.593 26.567 15.878 61.71 3.058 10.45 7.713 27.274 10.344 37.387 2.63 10.113 5.657 19.563 6.725 21 2.502 3.367 6.387 3.705 19.18 1.671 33.852-5.382 87.537-3.662 119.563 3.83 10.53 2.463 10.733 2.454 14.18-.645zm101.697-10.07c5.993-3.927 9.941-18.363 5.65-20.659-3.129-1.675-19.706-2.635-43.526-2.523-25.182.12-28.102.748-27.085 5.833.87 4.354 5.554 14.338 7.59 16.18 3.315 3 7.45 3.428 31.04 3.212 20.889-.192 23.859-.422 26.331-2.042zm-294.64-2.542c3.207-.817 6.807-7.146 7.841-13.784.585-3.753.387-4.325-2.056-5.926-2.428-1.59-5.744-1.779-32.455-1.846-31.481-.08-33.066.14-33.066 4.58 0 2.516 4.214 10.757 7.493 14.654 2.23 2.651 3.42 3.155 8.305 3.517 7.718.573 40.496-.319 43.938-1.195zm448.264.468c0-2.27-8.468-12.872-15.633-19.575-11.674-10.92-25.9-20.585-40.443-27.474-5.95-2.82-9.478-3.74-17.773-4.637-11.39-1.231-20.364-.567-22.198 1.644-.97 1.167.262 2.925 6.68 9.532 15.716 16.183 23.835 20.603 63.367 34.493 20.975 7.37 26 8.533 26 6.017zm-626.89-13.897c9.014-3.59 18.017-6.963 20.005-7.496 5.731-1.538 27.172-14.674 31.167-19.096 3.967-4.391 7.718-11.057 7.718-13.715 0-1.47-.863-1.613-6.75-1.117-6.35.534-25.124 6.143-31.75 9.486-6.815 3.438-27.392 19.151-35.648 27.22-14.778 14.445-11.622 15.42 15.258 4.718zm-24.914-13.851c19.553-17.556 26.928-25.124 29.063-29.825 2.08-4.58 4.65-21.376 4.708-30.776.036-5.803-.858-6.4-5.767-3.844-4.071 2.12-17.396 16.272-21.928 23.289-6.543 10.133-14.098 26.2-16.77 35.667-2.573 9.114-3.222 15.638-1.556 15.638.52 0 6.032-4.567 12.25-10.15zm655.91 3.399c.411-6.789-4.276-29.526-7.37-35.75-5.756-11.584-16.344-21.213-34.326-31.217-11.476-6.385-18.213-8.956-20.83-7.952-1.676.643-2.048-.644 5.938 20.56 4.1 10.89 9.104 16.669 36.282 41.903 11.036 10.248 15.982 14.206 17.75 14.206 1.626 0 2.486-.588 2.556-1.75zM1010.968 306c1.469 0 1.58-.768.911-6.25-.796-6.516-4.47-18.451-8.49-27.577-1.737-3.943-2.808-5.24-4.118-4.988-1.42.273-1.921 1.821-2.532 7.827-.418 4.119-1.473 12.197-2.345 17.952l-1.584 10.463 2.345 1.902c1.95 1.58 3.34 1.797 8.242 1.286 3.243-.338 6.65-.615 7.57-.615zm288.578-.017c2.535-.964 2.64-1.267 1.987-5.75-.59-4.05-7.802-27.75-10.694-35.145-1.958-5.004-3.71.03-6.81 19.568-1.672 10.534-2.764 19.87-2.427 20.748.483 1.26 2.153 1.596 7.94 1.596 4.03 0 8.532-.458 10.004-1.017zM886.5 268.57a5946.33 5946.33 0 0 1 18.149-6.95c9.685-3.683 16.917-8.948 22.594-16.45 4.951-6.543 6.407-10.036 5.34-12.815-.54-1.41-1.752-1.562-8.358-1.05-11.29.876-29.694 5.664-37.188 9.674-4.047 2.166-10.156 8.332-12.174 12.29-1.644 3.22-4.863 16.354-4.863 19.837 0 1.36 4.13.225 16.5-4.536zm518.25 2.799c1.622-.435 2.25-1.35 2.25-3.278 0-3.257-8.386-17.136-13.583-22.48-7.094-7.295-22.36-12.669-36.794-12.952-7.607-.15-8.143-.023-8.43 1.988-.382 2.687 4.693 13.45 9.034 19.155 8.768 11.525 34.531 21.048 47.523 17.567z"/></svg>