<svg xmlns="http://www.w3.org/2000/svg" width="1200px" height="600px" viewBox="0 0 1200 600">
 <defs>
  <clipPath id="border">
<rect width="60" height="30"/>
  </clipPath>
 </defs>
 <rect fill="#012169" width="1200" height="600"/>
 <g id="Jack" transform="scale(10)" clip-path="url(#border)">
<path stroke-width="6" stroke="white" d="M 0,0 L 60,30 M 0,30 L 60,0"/>
<path stroke-width="4" stroke="#C8102E" d="M 0,0 L 60,30 M 0,30 L 60,0"/>
<path fill="white" d="M0,0 5,0 35,15 65,0 60,0 30,15 M-5,30 25,15 55,30 60,30 30,15 0,30"/>
<path stroke-width="10" stroke="white" d="M 0,15 H 60 M 30,0 V 30"/>
<path stroke-width="6" stroke="#C8102E" d="M 0,15 H 60 M 30,0 V 30"/>
 </g>
  <circle fill="#fff" cx="900" cy="300" r="150"/>
  <polygon fill="#C8102E" points="904.341,418.248 794.102,382.085 801.959,307.297 796.959,218.222 899.58,182.057 1005.06,215.363 998.151,285.391 1001.25,382.085"/>
  <polygon fill="#fff" points="900,419.202 794.578,383.039 802.436,308.249 797.435,219.174 900,183.011"/>
  <path fill="#ffce00" stroke="#cca400" stroke-width="2" d="M883.004 423.073c-11.4012,-5.88661 -49.2638,-18.8504 -81.5516,-27.9224 -15.2256,-4.27795 -22.3228,-14.2122 -13.8803,-19.4291 13.4858,-8.33504 13.4858,-141.544 0,-149.88 -8.44843,-5.22047 -1.34646,-15.15 13.8803,-19.4067 30.4087,-8.49921 68.9457,-21.6579 83.5866,-28.539l14.961 -7.03346 14.961 7.03346c14.6409,6.8811 53.178,20.0398 83.5866,28.539 15.2268,4.25669 22.3287,14.1862 13.8791,19.4067 -2.09764,1.29685 -5.29843,11.4224 -7.1126,22.5024 -6.72992,41.0965 -2.23346,121.6 7.1126,127.377 8.44961,5.22165 1.34764,15.1512 -13.8791,19.4067 -30.3154,8.47323 -69.7335,21.9272 -82.9417,28.3087 -15.8657,7.66535 -17.0776,7.65236 -32.602,-0.36378zm26.2665 -20.315c9.66614,-7.60394 17.9232,-8.87717 17.9232,-2.76378 0,2.21929 4.79055,-0.457087 10.6441,-5.94803 7.50709,-7.04055 11.1224,-8.65748 12.2646,-5.48622 1.18701,3.29882 3.83268,2.41654 9.92835,-3.31063 6.12638,-5.75551 8.99409,-6.70394 10.9063,-3.60709 1.67717,2.71299 6.4063,3.43701 13.363,2.04567 5.92205,-1.18346 9.93071,-3.50669 8.90787,-5.1626 -1.02283,-1.65472 0.27874,-3.82913 2.89252,-4.83307 3.68031,-1.4126 4.15866,-5.43307 2.11772,-17.8217 -1.44921,-8.79921 -2.63504,-33.5894 -2.63504,-55.089 0,-21.4996 1.18583,-46.2898 2.63504,-55.089 2.04094,-12.3886 1.5626,-16.4091 -2.11772,-17.8217 -2.61378,-1.00276 -3.91535,-3.17835 -2.89252,-4.83307 1.02283,-1.65591 -2.98583,-3.97795 -8.90787,-5.1626 -6.95669,-1.39134 -11.6858,-0.667323 -13.363,2.04567 -1.9122,3.09685 -4.77992,2.14843 -10.9063,-3.60709 -6.09567,-5.72717 -8.74134,-6.60945 -9.92835,-3.31063 -1.14213,3.17126 -4.75748,1.55433 -12.2646,-5.48622 -5.85354,-5.49094 -10.6441,-8.16732 -10.6441,-5.94803 0,6.18071 -8.2937,4.81181 -18.2374,-3.01063l-8.9563 -7.04528 -8.9563 7.04528c-9.94488,7.82244 -18.2374,9.19134 -18.2374,3.01063 0,-2.21929 -4.79055,0.457087 -10.6453,5.94803 -7.50709,7.04055 -11.1213,8.65748 -12.2634,5.48622 -1.18701,-3.29882 -3.83386,-2.41654 -9.92953,3.31063 -6.12638,5.75551 -8.99291,6.70394 -10.9063,3.60709 -1.67717,-2.71299 -6.4063,-3.43701 -13.3618,-2.04567 -5.92205,1.18465 -9.93071,3.50669 -8.90787,5.1626 1.02283,1.65472 -0.27874,3.83031 -2.89252,4.83307 -3.6815,1.4126 -4.15866,5.43307 -2.11772,17.8217 3.40157,20.6528 3.40157,89.5252 0,110.178 -2.04094,12.3886 -1.56378,16.4091 2.11772,17.8217 2.61378,1.00394 3.91535,3.17835 2.89252,4.83307 -1.02283,1.65591 2.98583,3.97913 8.90787,5.1626 6.95551,1.39134 11.6846,0.667323 13.3618,-2.04567 1.91339,-3.09685 4.77992,-2.14843 10.9063,3.60709 6.09567,5.72717 8.74252,6.60945 9.92953,3.31063 1.14213,-3.17126 4.7563,-1.55433 12.2634,5.48622 5.85472,5.49094 10.6453,8.16732 10.6453,5.94803 0,-6.12047 8.48504,-4.83307 17.4685,2.65039 9.91417,8.25945 8.64921,8.25118 18.9957,0.113386z"/>
  <polygon fill="#fff" stroke="#000" stroke-width="2" points="815.466,336.228 896.981,303.019 863.771,384.533 900,360.38 936.228,384.533 903.019,303.019 984.533,336.228 960.38,300 984.533,263.772 903.019,296.981 936.228,215.467 900,239.62 863.771,215.467 896.981,296.981 815.466,263.772 839.619,300"/>
</svg>