<svg xmlns="http://www.w3.org/2000/svg" width="900" height="600"><path d="M0 0v600h886.898L900 586.91v-6.673l-13.102-13.09H600.572v-250.72h286.326L900 303.337v-6.674l-13.102-13.09H600.572V32.853h286.326L900 19.763V13.09L886.898 0H600.572z" fill="#dc171c"/><g fill="#ffd42a" transform="translate(175.214 83.695) scale(1.26388)"><path d="M98.274 155.531c-13.275 0-24.053 10.779-24.053 24.053 0 9.952 6.053 18.493 14.677 22.148a13.434 13.434 0 0 1-4.09-9.67c0-7.414 6-13.435 13.407-13.467h.059c6.362-.032 11.517-5.206 11.517-11.576 0-5.73-4.174-10.491-9.642-11.414a24.196 24.196 0 0 0-1.875-.074zm9.405 1.905a13.431 13.431 0 0 1 4.002 9.583c0 7.413-6.001 13.434-13.407 13.466h-.06c-6.362.032-11.516 5.206-11.516 11.576 0 6.096 4.723 11.099 10.705 11.547.289.01.58.015.87.015 13.275 0 24.054-10.764 24.054-24.039 0-9.94-6.04-18.486-14.648-22.148zm-9.405 7.583a2 2 0 1 1 0 4 2 2 0 0 1 0-4zm0 25.042a2 2 0 0 1 2 2 2 2 0 0 1-2 2 2 2 0 0 1-2-2 2 2 0 0 1 2-2zM127.137 121.85h17v115.455h-17zM74.22 121.85h48.107L98.274 136.28M74.22 222.872h48.107l-24.053 14.432M52.41 121.85h17v115.455h-17z"/><circle r="15" cx="98.274" cy="87.607"/><path d="M66.108 88.93a32.5 32.5 0 0 0 32.165 28.115 32.5 32.5 0 0 0 32.158-28.067 36.5 36.5 0 0 1-32.158 19.262 36.5 36.5 0 0 1-32.165-19.31zM74.221 139.903h48.106v12H74.221zM74.221 207.251h48.106v12H74.221zM97.818 37.627c.022 1.002.303 2.221.067 3.006-1.123 2.145-3.392 4.255-3.475 6.08-.095 2.89 1.28 4.578 1.67 6.215.869 4.324-3.027 4.23-2.772.668.187-1.106-.318-3.107-1.404-4.009-.618.69-.418 1.233-.6 1.77-1.024 2.804-3.132 4.439-2.568 7.71 2.863 13.307 18.557 8.914 19.135.473.313-3.258-1.512-4.41-2.268-6.615-.331-.98-.579-1.547-.567-2.551-.027-1.154.287-2.286.094-3.26-.094-.476-.806-.827-.95-1.604-.637.664-.373 1.462-.467 2.218-.244.984-.973 1.378-1.075 2.457-.067 1.043.339 1.449.319 2.315-.106 1.398-2.209 1.024-2.551.047-.284-.957-.32-2.067 0-3.402.425-2.016 1.568-4.082 1.275-6.047-.307-1.588-1.619-4.061-3.863-5.471z"/></g><path d="M299.42 392.314c-2.296 4.495-18.281 8.765-19.175 13.975-14.77-13.752-26.396-4.613-32.38-8.32-.835 1.925-.65 2.251-.452 3.811-5.954-5.42-17.084 1.855-23.984 1.098-.346 3.417-.678 6.911.703 9.05-11.233-2.285-12.796 5.698-23.366 4.633-.828 14.266 9.815 23.883 27.24 25.18-3.31 5.613-4.618 12.647-3.648 21.518 7.744-6.077 17.101-1.166 23.055-6.587-.915 4.068.197 8.853 1.689 11.823 3.701-8.05 24.345-7.178 29.979-17.228 4.722 8.638 16.818 11.302 20.34 17.481 3.52-6.179 15.617-8.843 20.34-17.481 5.633 10.05 26.277 9.177 29.979 17.228 1.491-2.97 2.603-7.755 1.689-11.823 5.953 5.42 15.31.51 23.054 6.587.97-8.871-.338-15.905-3.648-21.518 17.425-1.297 28.069-10.914 27.24-25.18-10.57 1.065-12.133-6.918-23.366-4.634 1.38-2.138 1.05-5.632.703-9.049-6.9.757-18.03-6.518-23.983-1.098.198-1.56.382-1.886-.453-3.81-5.984 3.706-17.61-5.433-32.38 8.32-.894-5.211-16.879-9.48-19.175-13.976z" fill="#006628"/><path d="M319.787 409.314c13.233-12.58 19.372-5.525 28.847-8.013-3.472 17.288-21.7 28.057-32.25 27.3 7.305-3.005 14.968-6.548 17.795-16.361-5.892 11.286-14.65 11.883-20.542 14.869 4.26-4.678 7.265-10.848 6.15-17.795zM315.727 431.528c5.395 7.21 5.654 12.27 4.54 16.615 9.103 11.326 19.222 7.663 28.505 15.227 1.39-9.76-1.458-23.522-16.429-31.61l-7.6.084c7.93 4.18 14.844 11.345 16.862 18.152-3.769-6.614-18.586-18.244-25.878-18.468z" fill="#009b3b"/><path d="M332.765 427.2c5.996 1.111 22.464-7.658 28.882-14.78-1.633 5.265-10.317 12.598-21.112 15.793l12.414-.845c8.304-5.954 21.928-12.414 20.099-21.534-7.6-.197-14.399-6.222-22.802-.592-2.24 11.106-12.387 18.03-17.48 21.957zM357.762 427.621c5.677-1.973 15.286-12.751 15.286-12.751 6.81-3.772 12.156 2.698 22.638 4.24.358 12.848-14.213 21.038-26.216 19.852-2.542-2.531-5.233-5.481-9.596-7.625 7.185.14 18.223-2.02 23.677-6.599-5.83 1.13-15.869 3.992-25.789 2.883zM337.682 431.321c6.953 5.194 12.832 12.726 13.662 21.804 6.623 5.827 14.978 3.115 20.944 5.658.461-9.716-6.303-25.881-23.935-27.954 8.047 4.203 15.557 11.69 15.96 18.939-6.21-10.01-17.137-18.409-26.63-18.447zM299.42 395.938c-8.122 7.484-29.68 9.893-10.394 31.768-4.009-8.622-2.19-16.4 10.395-22.572 12.585 6.173 14.403 13.95 10.394 22.572 19.287-21.875-2.272-24.284-10.394-31.768z" fill="#009b3b"/><path d="M299.42 408.494c-10.331 4.314-10.736 10.193-7.573 19.285 1.719-.42 6.258-.368 7.574-.377 1.316.01 5.854-.042 7.573.377 3.163-9.092 2.758-14.971-7.573-19.285zM291.701 431.891c-6.855 13.299 4.736 17.245 7.72 18.873 2.983-1.628 14.575-5.574 7.72-18.873-5.43-.621-10.54-.542-15.44 0z" fill="#009b3b"/><path d="M287.441 431.76c-16.843 19.183 4.348 25.391 11.98 32.79 7.631-7.399 28.822-13.607 11.979-32.79 3.77 10.85-2.672 17.401-11.98 22.16-9.307-4.759-15.748-11.31-11.979-22.16zM279.054 409.314c-13.233-12.58-19.372-5.525-28.847-8.013 3.473 17.288 21.701 28.057 32.25 27.3-7.304-3.005-14.968-6.548-17.794-16.361 5.891 11.286 14.65 11.883 20.541 14.869-4.26-4.678-7.265-10.848-6.15-17.795z" fill="#009b3b"/><path d="M283.114 431.528c-5.394 7.21-5.654 12.27-4.54 16.615-9.103 11.326-19.222 7.663-28.504 15.227-1.391-9.76 1.457-23.522 16.428-31.61l7.6.084c-7.93 4.18-14.844 11.345-16.862 18.152 3.77-6.614 18.586-18.244 25.878-18.468zM266.076 427.2c-5.996 1.111-22.464-7.658-28.882-14.78 1.633 5.265 10.317 12.598 21.113 15.793l-12.414-.845c-8.305-5.954-21.93-12.414-20.1-21.534 7.601-.197 14.4-6.222 22.802-.592 2.241 11.106 12.388 18.03 17.48 21.957zM241.079 427.621c-5.677-1.973-15.285-12.751-15.285-12.751-6.81-3.772-12.157 2.698-22.639 4.24-.358 12.848 14.213 21.038 26.216 19.852 2.542-2.531 5.233-5.481 9.597-7.625-7.186.14-18.224-2.02-23.678-6.599 5.83 1.13 15.869 3.992 25.789 2.883z" fill="#009b3b"/><path d="M261.16 431.321c-6.954 5.194-12.833 12.726-13.663 21.804-6.623 5.827-14.977 3.115-20.943 5.658-.462-9.716 6.302-25.881 23.935-27.954-8.048 4.203-15.558 11.69-15.961 18.939 6.21-10.01 17.137-18.409 26.631-18.447z" fill="#009b3b"/><g aria-label="ᠮᠣᠩᠭᠣᠯ ᠠᠷᠠᠳ ᠤᠯᠤᠰ" style="line-height:1.25;-inkscape-font-specification:'MongolianScript, Normal';font-variant-ligatures:normal;font-variant-caps:normal;font-variant-numeric:normal;font-feature-settings:normal;text-align:start" font-weight="400" font-size="24" font-family="MongolianScript" letter-spacing="0" word-spacing="0" writing-mode="tb-rl" fill="#fff" stroke-width="1.857"><path d="M475.137 146.766v9.148h-7.079v-6.45l-12.413-3.57 14.3-3.062q2.859-.588 4.664-1.014 1.805-.406 2.596-.69 1.947-.75 1.947-1.907-.04-1.582-1.52-4.076-1.177-1.947-2.495-3.408 3.224.163 6.672 2.333 3.793 2.271 3.996 4.969l8.843 2.292v11.682l3.53 1.745-5.315.04-4.766-1.785v-10.972l-2.657-1.298q-1.663 3.204-11.257 3.792-2.048.122-1.176.63 1.257 1.034 2.13 1.601z" style="-inkscape-font-specification:'MongolianScript, Normal';font-variant-ligatures:normal;font-variant-caps:normal;font-variant-numeric:normal;font-feature-settings:normal;text-align:start"/><path d="M475.137 172.626h-7.079v-5.212q-5.557 0-8.295-.629-5.943-1.359-5.943-5.557 0-3.651 5.233-6.065 4.36-1.947 8.478-1.947h7.606zm-7.079-6.997v-10.628h-.568q-2.292 0-4.401 1.623-2.333 1.825-2.333 4.198 0 4.645 5.984 4.766z" style="-inkscape-font-specification:'MongolianScript, Normal';font-variant-ligatures:normal;font-variant-caps:normal;font-variant-numeric:normal;font-feature-settings:normal;text-align:start"/><path d="M468.058 178.042l-12.413-3.57 12.413-3.529h7.079v10.628q10.546 2.21 10.08 8.518-.446 3.124-4.32 4.605-2.19.75-5.76 1.216v1.4h-7.079v-2.069q10.263-1.744 11.013-5.476.913-2.84-1.541-4.706-2.434-1.866-5.76-1.866-5.862.75-9.432 5.7l-4.989-2.779q5.862-4.117 10.709-4.543z" style="-inkscape-font-specification:'MongolianScript, Normal';font-variant-ligatures:normal;font-variant-caps:normal;font-variant-numeric:normal;font-feature-settings:normal;text-align:start"/><path d="M475.137 218.363h-7.079v-5.395l-12.413-3.57 12.413-3.529v-3.529l-12.413-3.57 12.413-3.529h7.079zm-26.59-4.807q-.285-1.197-2.17-2.535-1.745-1.156-3.145-1.44.791-.223 1.582-.568.771-.345 1.603-.893 1.886-1.257 2.13-2.535.283 1.38 2.15 2.576 1.622 1.116 3.163 1.42-1.622.324-3.164 1.359-1.784 1.257-2.15 2.616zm0-9.918q-.285-1.257-2.17-2.535-1.745-1.177-3.145-1.46.791-.203 1.582-.568.771-.345 1.603-.893 1.886-1.237 2.13-2.535.283 1.298 2.15 2.576 1.622 1.135 3.163 1.42-1.622.324-3.164 1.379-1.784 1.237-2.15 2.616z" style="-inkscape-font-specification:'MongolianScript, Normal';font-variant-ligatures:normal;font-variant-caps:normal;font-variant-numeric:normal;font-feature-settings:normal;text-align:start"/><path d="M475.137 235.502h-7.079v-5.213q-5.557 0-8.295-.629-5.943-1.359-5.943-5.557 0-3.65 5.233-6.065 4.36-1.947 8.478-1.947h7.606zm-7.079-6.998v-10.628h-.568q-2.292 0-4.401 1.623-2.333 1.825-2.333 4.198 0 4.645 5.984 4.767z" style="-inkscape-font-specification:'MongolianScript, Normal';font-variant-ligatures:normal;font-variant-caps:normal;font-variant-numeric:normal;font-feature-settings:normal;text-align:start"/><path d="M486.048 245.622q-11.419.447-30.403-4.28l12.413-5.313v-2.19h7.079v4.259l-11.217 2.008q-.385.365.264.649 13.549 2.434 19.775 1.906 6.47-1.156 6.308-7.017l.203-9.837 6.754 12.757q.67 2.008.548 2.779-1.055 1.622-3.489 2.779-2.414 1.176-8.235 1.5zM475.137 300.222h-7.079v-5.537l-12.413-3.57 12.413-3.529v-3.549l-12.413-3.57 14.3-3.062q2.859-.588 4.664-1.014 1.805-.406 2.596-.69 1.947-.75 1.947-1.906-.04-1.583-1.52-4.077-1.177-1.947-2.495-3.408 3.306.203 6.794 2.373 3.874 2.414 3.874 5.152t-4.523 4.138q-1.339.426-2.86.69-1.5.283-3.285.364z" style="-inkscape-font-specification:'MongolianScript, Normal';font-variant-ligatures:normal;font-variant-caps:normal;font-variant-numeric:normal;font-feature-settings:normal;text-align:start"/><path d="M468.058 304.035q.06-.912-.953-.547l-9.675 8.356-5.314-3.57 6.024-3.914-5.314-4.117 11.703.385 3.529-2.414h7.079v17.646h-7.079z" style="-inkscape-font-specification:'MongolianScript, Normal';font-variant-ligatures:normal;font-variant-caps:normal;font-variant-numeric:normal;font-feature-settings:normal;text-align:start"/><path d="M475.137 326.468h-7.079v-5.274l-12.413-3.57 12.413-3.326v-.203h7.079z" style="-inkscape-font-specification:'MongolianScript, Normal';font-variant-ligatures:normal;font-variant-caps:normal;font-variant-numeric:normal;font-feature-settings:normal;text-align:start"/><path d="M492.863 363.726q-5.151-3.529-11.804-6.267-2.616-1.075-5.74-2.17-3.103-1.075-6.835-2.15l-12.839-3.57 12.413-3.61v-7.038q-5.557 0-8.295-.608-5.943-1.38-5.943-5.578 0-3.65 5.233-6.065 4.36-1.947 8.478-1.947h7.606V346q-3.793.954-6.49 1.562-2.698.629-4.362.974 7.262.527 13.468 1.48 14.664 2.455 20.769 6.612l4.97-1.075q-2.11 1.522-4.747 3.55-2.637 2.048-5.882 4.624zm-24.805-26.59v-10.628h-.568q-2.292 0-4.401 1.623-2.333 1.825-2.333 4.198 0 4.645 5.984 4.767zM468.058 417.089v-5.497h-1.237q-13.001.04-13.001-6.186 0-3.65 5.517-6.064 4.543-1.947 8.721-1.947v-3.55l-12.413-3.57 14.3-3.062q2.859-.588 4.664-1.014 1.805-.406 2.596-.69 1.947-.75 1.947-1.906-.04-1.582-1.52-4.077-1.177-1.947-2.495-3.407 3.306.203 6.794 2.373 3.874 2.413 3.874 5.151 0 2.739-4.523 4.138-1.339.426-2.86.69-1.5.284-3.285.365v28.253zm0-17.91h-.568q-2.332 0-4.442 1.623-2.292 1.785-2.292 4.178 0 2.88 2.373 3.996.832.406 2.049.588 1.237.203 2.88.244z" style="-inkscape-font-specification:'MongolianScript, Normal';font-variant-ligatures:normal;font-variant-caps:normal;font-variant-numeric:normal;font-feature-settings:normal;text-align:start"/><path d="M475.137 418.164q5.679 3.448 9.41 2.758 3.307-1.054 3.49-2.15l.161-9.33 2.941 3.773q2.252 3.773 3.61 7.12.264 1.825-2.758 2.818-3.022 1.014-6.166.71-5.395-.385-10.648-3.488l-.04 7.524h-7.079v-5.679l-12.413-3.57 12.413-3.528h7.079z" style="-inkscape-font-specification:'MongolianScript, Normal';font-variant-ligatures:normal;font-variant-caps:normal;font-variant-numeric:normal;font-feature-settings:normal;text-align:start"/><path d="M475.137 445.484h-7.079v-5.557q-5.557 0-8.295-.629-5.943-1.359-5.943-5.557 0-3.651 5.233-6.065 4.36-1.947 8.478-1.947h7.606zm-7.079-7.342v-10.628h-.568q-2.292 0-4.401 1.623-2.333 1.825-2.333 4.198 0 4.645 5.984 4.766z" style="-inkscape-font-specification:'MongolianScript, Normal';font-variant-ligatures:normal;font-variant-caps:normal;font-variant-numeric:normal;font-feature-settings:normal;text-align:start"/><path d="M475.137 456.254q1.277.325 2.575.872 1.603.67 3.246 1.48 1.642.832 3.346 1.847 6.146 3.65 8.56 7.808-13.002-8.234-25.922-5.415l-13.082-3.347 21.277-6.206-21.277-6.227 14.198-3.61h7.079v2.028l17.179 4.908q.79.71-.163 1.116z" style="-inkscape-font-specification:'MongolianScript, Normal';font-variant-ligatures:normal;font-variant-caps:normal;font-variant-numeric:normal;font-feature-settings:normal;text-align:start"/></g><g aria-label="ᠪᠦᢉᠦᠳᠡ ᠨᠠᠶᠢᠷᠠᠮᠳᠠᠬᠤ" style="line-height:1.25;-inkscape-font-specification:'MongolianScript, Normal';font-variant-ligatures:normal;font-variant-caps:normal;font-variant-numeric:normal;font-feature-settings:normal;text-align:start" font-weight="400" font-size="24" font-family="MongolianScript" letter-spacing="0" word-spacing="0" writing-mode="tb-rl" fill="#fff" stroke-width="1.44"><path d="M128.945 181.206h-7.038v-11.642l-3.976 1.947q-4.908 2.373-7.139 5.983l-6.571-5.05q.162-.102 4.725-2.15 4.544-2.049 12.96-4.057v-1.906h-.364q-13.873 0-13.873-5.862 0-3.772 10.506-7.301-10.506-1.014-10.506-5.111 0-3.672 5.192-6.247 4.36-2.15 8.518-2.15h7.606q5.436 0 9.756 3.995 4.442 4.057 4.442 9.472 0 4.767-4.645 8.64-4.28 3.53-9.593 4.32zm.04-19.654q3.225-1.338 5.152-4.117 1.988-2.82 1.988-6.186 0-3.712-1.745-7.24-2.13-4.2-5.395-4.362zm-7.078-8.985h-.65q-2.332 0-4.36 1.785-2.292 1.927-2.292 4.36 0 2.455 2.657 3.246.71.203 1.846.345 1.156.162 2.799.203zm0-13h-.365q-2.536-.082-4.645 1.825-2.292 1.926-2.292 4.36 0 2.455 2.657 3.246 1.38.466 4.645.507z" style="-inkscape-font-specification:'MongolianScript, Normal';font-variant-ligatures:normal;font-variant-caps:normal;font-variant-numeric:normal;font-feature-settings:normal;text-align:start"/><path d="M121.907 203.374v-10.303l-2.495.304q-2.414.73-3.772 2.272-1.34 1.541-1.035 3.488.345 3.793 7.302 4.24zm14.218-9.735q.04-5.314-3.57-7.667-2.292-2.089-7.525-2.089-6.51.426-9.573 4.888l-5.922-4.178q5.577-3.083 12.433-3.752h6.774q6.166.892 9.675 3.752 4.847 3.671 4.766 9.512 0 4.32-3.773 7.708-3.366 2.454-10.425 3.164v6.165h-7.078v-6.165q-4.665.121-9.37-1.156-4.726-1.278-4.726-5.984.385-2.677 3.123-4.34 2.738-1.663 6.693-1.927 3.955-.243 11.358.02v11.784q2.92-.324 5.03-2.738 2.11-2.413 2.11-6.997z" style="-inkscape-font-specification:'MongolianScript, Normal';font-variant-ligatures:normal;font-variant-caps:normal;font-variant-numeric:normal;font-feature-settings:normal;text-align:start"/><path d="M107.871 218.12q-3.103 1.5-2.9 4.604.588 3.367 3.935 3.285 1.886.082 3.103-1.237 1.217-1.298 1.095-3.204-.08-1.46-1.582-2.678-1.52-1.196-3.65-.77zm4.787-3.043q4.523 1.582 4.848 5.943.08 3.002-2.353 5.131-2.414 2.15-6.328 2.11-3.104-.183-4.929-1.785-1.825-1.582-2.13-4.158-.284-4.28 4.361-7.525 2.617-1.866 7.505-4.218 4.888-2.353 8.275-2.759h7.078v23.75h-7.078v-20.22q-.954-.082-4.523 1.379-3.57 1.48-4.726 2.352z" style="-inkscape-font-specification:'MongolianScript, Normal';font-variant-ligatures:normal;font-variant-caps:normal;font-variant-numeric:normal;font-feature-settings:normal;text-align:start"/><path d="M146.712 251.545q-5.152-3.53-11.804-6.267-2.617-1.075-5.74-2.15-3.103-1.075-6.835-2.17l-12.839-3.57 12.413-5.436v-.568h7.078v2.434q-3.306.487-5.517.913-2.19.426-5.455 1.217-.366.284.121.405 7.261.548 13.468 1.501 14.664 2.434 20.769 6.592l4.969-1.075q-2.11 1.542-4.746 3.57-2.637 2.048-5.882 4.604zM128.985 316.326h-7.078v-6.023l-12.413-3.57 14.299-3.063q2.86-.588 4.665-1.014 1.805-.405 2.596-.69 1.947-.75 1.947-1.906-.04-1.582-1.521-4.077-1.176-1.947-2.495-3.407 3.306.203 6.795 2.373 3.874 2.414 3.874 5.152t-4.523 4.137q-1.339.426-2.86.69-1.5.284-3.286.365zm-26.59-5.597q-.324-1.238-2.17-2.495-1.663-1.156-3.144-1.501 1.48-.365 3.144-1.44 1.927-1.258 2.17-2.535.325 1.359 2.15 2.616 1.623 1.075 3.164 1.359-1.46.304-3.164 1.42-1.866 1.278-2.15 2.576z" style="-inkscape-font-specification:'MongolianScript, Normal';font-variant-ligatures:normal;font-variant-caps:normal;font-variant-numeric:normal;font-feature-settings:normal;text-align:start"/><path d="M128.985 326.021h-7.078v-5.273l-12.413-3.57 12.413-3.326v-.203h7.078z" style="-inkscape-font-specification:'MongolianScript, Normal';font-variant-ligatures:normal;font-variant-caps:normal;font-variant-numeric:normal;font-feature-settings:normal;text-align:start"/><path d="M128.985 324.277v14.705h-7.078v-11.176l-3.976 1.745q-4.908 2.373-7.139 5.983l-6.571-5.05q.162-.102 4.725-2.15 4.544-2.049 12.96-4.057z" style="-inkscape-font-specification:'MongolianScript, Normal';font-variant-ligatures:normal;font-variant-caps:normal;font-variant-numeric:normal;font-feature-settings:normal;text-align:start"/><path d="M121.907 338.049h7.078v14.563h-7.078v-11.034l-3.976 1.623q-4.908 2.373-7.139 5.983l-6.571-5.05q.162-.102 5.11-2.333 4.93-2.21 12.576-3.752z" style="-inkscape-font-specification:'MongolianScript, Normal';font-variant-ligatures:normal;font-variant-caps:normal;font-variant-numeric:normal;font-feature-settings:normal;text-align:start"/><path d="M121.907 357.601q.06-.913-.954-.548l-9.674 8.357-5.314-3.57 6.024-3.915-5.314-4.117 11.703.386 3.529-2.414h7.078v17.646h-7.078z" style="-inkscape-font-specification:'MongolianScript, Normal';font-variant-ligatures:normal;font-variant-caps:normal;font-variant-numeric:normal;font-feature-settings:normal;text-align:start"/><path d="M128.985 380.033h-7.078v-5.273l-12.413-3.57 12.413-3.326v-.203h7.078z" style="-inkscape-font-specification:'MongolianScript, Normal';font-variant-ligatures:normal;font-variant-caps:normal;font-variant-numeric:normal;font-feature-settings:normal;text-align:start"/><path d="M130.02 381.149q-2.353-.65-5.193-.04 3.266 1.622 4.158 2.21v8.093h-7.078v-6.024l-12.413-3.57 12.413-3.529h7.078v.872l11.095 2.556.04 17.767-6.652-3.286v-13.771z" style="-inkscape-font-specification:'MongolianScript, Normal';font-variant-ligatures:normal;font-variant-caps:normal;font-variant-numeric:normal;font-feature-settings:normal;text-align:start"/><path d="M107.871 399.22q-3.103 1.501-2.9 4.604.588 3.367 3.935 3.286 1.886.081 3.103-1.237 1.217-1.298 1.095-3.205-.08-1.46-1.582-2.677-1.52-1.197-3.65-.77zm4.787-3.042q4.523 1.582 4.848 5.943.08 3.001-2.353 5.131-2.414 2.15-6.328 2.11-3.104-.183-4.929-1.785-1.825-1.582-2.13-4.158-.284-4.28 4.361-7.525 2.617-1.866 7.505-4.219t8.275-2.758h7.078v23.75h-7.078v-20.221q-.954-.081-4.523 1.38-3.57 1.48-4.726 2.352z" style="-inkscape-font-specification:'MongolianScript, Normal';font-variant-ligatures:normal;font-variant-caps:normal;font-variant-numeric:normal;font-feature-settings:normal;text-align:start"/><path d="M128.985 423.539h-7.078v-5.274l-12.413-3.57 12.413-3.326v-.202h7.078z" style="-inkscape-font-specification:'MongolianScript, Normal';font-variant-ligatures:normal;font-variant-caps:normal;font-variant-numeric:normal;font-feature-settings:normal;text-align:start"/><path d="M128.985 444.774h-7.078v-5.253l-12.413-3.57 12.413-3.529v-3.529l-12.413-3.57q1.663-.446 3.286-.953 1.622-.507 3.285-.994 5.436-1.582 5.842-1.582h7.078z" style="-inkscape-font-specification:'MongolianScript, Normal';font-variant-ligatures:normal;font-variant-caps:normal;font-variant-numeric:normal;font-feature-settings:normal;text-align:start"/><path d="M128.722 462.339q-4.483-.081-4.929-.365-.081-.507.04-.913 7.505-.548 10.263-2.738 2.029-1.663 2.029-5.07 0-3.327-1.826-5.619-1.947-2.353-5.314-2.576v10.06q-4.502 1.623-10.688 1.623-10.628 0-10.628-5.274 0-3.711 5.232-6.246 4.32-2.15 8.478-2.15h7.606q5.68 0 9.594 2.454 4.604 2.778 4.604 8.174 0 4.624-5.274 6.895-3.995 1.745-9.187 1.745zm-6.815-7.545v-9.939h-.365q-2.414-.08-4.604 1.785-2.333 1.988-2.333 4.361 0 3.61 5.983 3.732z" style="-inkscape-font-specification:'MongolianScript, Normal';font-variant-ligatures:normal;font-variant-caps:normal;font-variant-numeric:normal;font-feature-settings:normal;text-align:start"/></g></svg>