<svg xmlns="http://www.w3.org/2000/svg" width="1000" height="500"><title>Flag of British Guiana (1919–1955)</title><style><![CDATA[.B{stroke:#000}.C{fill-rule:evenodd}.D{stroke-width:.7}.E{fill:#fad62e}.F{fill:#bb1426}]]></style><path fill="#012169" d="M0 0h1000v500H0V0z"/><path fill="#fff" d="M0 27.949l110.765 55.383H0v83.334h110.765L0 222.049V250h55.902l152.431-76.217V250h83.334v-76.217L444.098 250h55.901v-27.951l-110.765-55.383h110.765V83.332H389.234l110.765-55.383V0h-55.901L291.667 76.215V0h-83.334v76.215L55.902 0H0z"/><path d="M499.999 0h-37.268L296.065 83.332h37.268zM166.667 83.332L0 0v18.633l129.399 64.699zM0 250h37.268l166.666-83.334h-37.267zm333.333-83.334L499.999 250v-18.635l-129.398-64.699zM225 0h50v100h225v50H275v100h-50V150H0v-50h225V0z" fill="#c8102e"/><path fill="#012169" d="M875 250c0 69.036-55.964 125-125 125s-125-55.964-125-125 55.964-125 125-125 125 55.964 125 125h0z" class="C"/><g transform="matrix(.587436 0 0 .587436 662.6642 140.72379)"><path fill="#d5e5ff" d="M148.672 8.943c35.952 0 71.428 18.841 96.988 51.648 25.616 32.879 40.449 78.806 40.449 125.43s-14.831 92.552-40.447 125.432c-25.56 32.808-61.039 51.649-96.99 51.648s-71.429-18.841-96.988-51.648c-25.615-32.88-40.447-78.808-40.447-125.432s14.832-92.551 40.447-125.43c25.56-32.807 61.037-51.648 96.988-51.648h0z" class="B D"/><g class="C"><path fill="#e5eeff" d="M272.507 259.91l-2.185-7.303c1.926-6.223 1.963-12.703.693-17.338-1.677-6.122-3.751-10.208-4.883-13.029.136-4.621.478-10.478-1.736-17.793-1.536-5.073-5.042-10.107-9.762-14.379.941-5.02.899-9.877-.168-13.92-1.288-4.882-2.94-8.113-4.387-10.762.67-3.662.922-8.13-.928-13.359-1.827-5.165-5.693-9.259-10.482-12.48-.392-3.438-1.312-6.882-3.012-10.133-1.053-2.014-2.41-3.813-3.898-5.502 1.099-2.816 2.039-5.892 2.494-9.604 1.061-8.653-2.862-19.465-11.428-27.35.573-6.151-.46-12.51-4.127-18.76-3.08-5.249-8.58-10.03-15.305-12.086-4.114-1.258-8.467-1.475-12.928-1.008-6.258-4.681-13.904-6.752-20.326-6.035-2.609.291-5.016.865-7.303 1.627-4.813-3.208-10.503-5.061-16.506-5-7.588.077-15.045 3.515-21.002 9.26-3.518-.845-7.334-1.337-11.693-.574-5.631.986-11.96 4.393-16.035 9.957-1.182 1.614-2.122 3.367-2.941 5.189-4.028.866-7.79 2.667-11.215 5.297-7.358 5.651-12.214 15.857-12.078 27.557-1.922 2.264-3.807 4.94-5.215 8.529-1.906 4.859-2.029 11.382-.137 17.799-.913.951-1.832 1.865-2.723 3.084-3.551 4.857-5.018 11.546-4.637 18.625-2.755 3.028-5.135 6.624-6.469 11.137-1.249 4.226-1.215 8.733-.309 13.145-2.922 3.06-5.618 6.576-7.693 10.857-2.912 6.008-4.087 13.327-3.217 20.85-2.442 3.942-4.251 8.606-3.93 14.287.156 2.757.968 5.281 2.041 7.686-4.607 5.161-7.765 10.681-9.117 15.959-2.314 9.031-1.494 15.464-2.062 18.842-1.413 8.404 5.006 16.086 13.527 16.189l221.238 2.654 9.841-22.115z"/><path fill="#eff5ff" d="M41.593 265.487c1.986-11.799-2.731-23.599 16.814-35.398-10.121-6.785-9.002-13.569-2.655-20.354-4.297-14.538 2.65-23.454 12.389-30.973-6.19-10.323-2.61-17.389 5.31-23.009-4.525-15.735 3.792-18.627 10.619-23.009-13.195-12.423-.7-24.015 1.77-24.779-4.932-22.19 14.611-29.14 19.469-23.009.844-23.024 19.602-17.741 24.436-12.846 8.566-17.484 25.602-14.889 31.316-3.084 3.193-5.709 16.843-11.059 24.838 1.057 22.354-6.781 26.112 12.884 21.18 22.837 23.215 10.886 10.432 30.139 6.195 34.513 10.034 4.282 13.069 11.364 11.312 20.362 14.187 4.975 12.805 12.174 10.811 19.461 3.787 8.515 10.371 15.203 2.655 28.319 15.947 6.527 14.138 18.127 14.159 29.204 2.926 9.44 10.614 18.879 2.655 28.319l7.965 15.044-221.239-2.655z"/><path fill="#fbfcff" d="M146.576 77.554c-1.94.02-4.67.657-7.693 6.828a10.176 10.176 0 0 1-16.377 2.672c.46.466-.584-.412-1.74-.801s-2.427-.47-2.979-.373-.376-.068-.773.475-1.375 2.406-1.535 6.77a10.176 10.176 0 0 1-15.996 7.951c-.389.112-.767.158-1.381.629-1.768 1.358-4.13 3.753-2.33 11.85a10.176 10.176 0 0 1-5.299 11.258c-.096.082-.207.167-.414.387-.562.594-1.212 1.544-1.506 2.295-.589 1.501-1.788 1.608 2.492 5.639a10.176 10.176 0 0 1-1.479 15.971c-4.138 2.656-6.462 4.16-6.85 4.689s-1.248.826.512 6.943a10.176 10.176 0 0 1-3.891 11.111c-2.908 2.064-3.876 3.649-4.076 4.326s-.518 1.611 1.605 5.152a10.176 10.176 0 0 1-2.51 13.285c-4.256 3.286-7.15 6.415-8.52 9.24s-1.894 5.497-.328 10.795a10.176 10.176 0 0 1-2.328 9.836c-1.764 1.885-1.961 2.598-2.02 2.58.246.314.933 1.046 2.91 2.371a10.176 10.176 0 0 1-.408 17.162c-8.178 4.937-9.469 7.908-10.393 11.514-.345 1.345-.406 3.24-.508 5.133l193.066 2.316a10.176 10.176 0 0 1 1.258-11.223c1.862-2.208 1.533-1.947.721-4.912s-3.389-7.625-5.314-13.836a10.176 10.176 0 0 1-.455-2.992c-.012-6.099.109-10.8-.672-13.379s-1.275-4.016-7.168-6.428a10.176 10.176 0 0 1-4.916-14.574c2.833-4.816 2.485-5.982 1.918-8.131s-2.719-5.543-5.1-10.896a10.176 10.176 0 0 1-.518-6.82c.93-3.398.781-4.81.885-4.518s.301-.708-5.25-2.654a10.176 10.176 0 0 1-6.619-11.551c.571-2.925.246-4.308-.266-5.287s-1.56-2.278-5.055-3.77a10.176 10.176 0 0 1-3.314-16.437c.486-.502 4.012-5.737 4.408-8.973s1.256-5.089-7.613-9.248a10.176 10.176 0 0 1-4.797-13.73c.826-1.667.872-6.514-.016-8.027-.444-.756-.591-.949-1.588-1.254s-3.3-.576-7.506.699a10.176 10.176 0 0 1-11.445-4.133c-2.152-3.261-2.965-2.887-4.6-2.705s-3.623 2.367-2.865 1.012a10.176 10.176 0 0 1-18.039-.533c-1.257-2.596-3.39-3.723-5.328-3.703z"/><use href="#B" class="F"/><path fill="#252d5b" d="M78.788 183.551c.574-.429 1.183-.806 1.867-1.07 1.774-.687 3.932.578 5.707-.108 1.424-.55 3.446-3.015 3.446-3.015l-3.813 12.688-8.177.929.97-9.424z"/><path fill="#fff" d="M78.45 187.117l3.561-.3-3.328-2.996.766-.766 3.861 3.295.599-3.961 1.464.1-.666 3.828 4.527-5.292-.599 2.03-3.029 3.428 2.563-.333-.699 1.697-2.297.233 1.265 2.896-.266 1.065-.965.067-1.065-3.528-.632 3.694-1.464.166.899-3.961-3.894 4.393-1.198.067.1-.965 4.094-3.828-3.828.433.233-1.465z"/><path d="M88.854 181.705l-3.875 4.555h.408l3.332-4.01.135-.545zm-4.602.652l-.699 4.66-5.137.465-.133.766 5.236-.531-1 4.66.656-.068.932-4.625 3.496-.268.299-.732-3.56.379.699-4.66-.789-.045zm-5.051 1.047l-.273.34 3.4 2.924.611-.068-3.738-3.195zm5.303 4.691l1.494 3.467.137-.68-1.223-2.65-.408-.137zm-1.496.205l-.611.135-4.08 4.08h.611l4.08-4.215z" class="F"/></g><g class="B D"><use href="#B" fill="none"/><path d="M146.205 103.024l-.223-6.236s1.779-.73 2.672-.557c1.314.254 2.052 1.523 3.341 1.885.894.251 1.887-.012 2.784.231 1.531.414 2.424 1.811 4.009 1.877 1.51.063 2.498-.396 4.009-.404 1.544-.009 2.922 1.003 2.922 1.003s-1.335.034-2.588.333c-2.03.485-2.558 2.27-4.643 2.357-1.605.067-2.66-.994-4.265-1.047-1.413-.046-1.923.688-3.332.576-.763-.061-1.796-.902-2.552-1.02-.906-.141-2.133 1.002-2.133 1.002z" class="C F"/><path d="M83.875 249.724l21.585-45.227-13.157 46.255 27.136.411-13.979-46.666 19.735 46.666 20.558-55.3-12.54 56.328 31.248-2.467-18.296-53.655 26.93 52.627 8.017-51.6 17.268 47.694 6.167-.822-22.202-46.666m-86.889-61.787l9.994-4.135 9.649 4.135" fill="none"/></g><g class="C"><path d="M253.787 224.789l-45.602 17.617 1.631.354 16.24 3.52.098 5.439 1-.018-.094-5.205.145.031 27.066-20.877-.484-.861h0zm-2.85 2.172l-23.896 18.428-.164-9.131 24.061-9.297zm-25.051 9.68l.152 8.611-14.379-3.115 14.227-5.496z"/><path fill="#fcfaf2" d="M95.963 239.651l-35.277.74c7.527-3.346 21.361-26.588 22.696-34.783l11.348-.247 1.233 34.29z" class="B D"/><path d="M104.832 120.26v133.174h2l-.4-118.397-.067-14.777h-1.534zm41.735-23.813l-1.559.01.744 155.121 2-.01-1.111-138.884-.074-16.238h0zm35.044 8.928l-1.449.01.744 143.963 2-.01-1.243-132.241-.052-11.722z"/></g><g fill="#fcfaf2" class="B C"><g class="D"><path d="M91.891 152.97c3.264-3.457 5.45-8.121 3.598-17.308h19.726c4.596 6.569 2.95 17.581 2.268 17.308-8.392-5.547-17-2.436-25.592 0z"/><path d="M87.06 176.947c.961-3.604 8.954-9.853 4.832-23.977h25.592c4.126 7.406 4.392 22.45 3.242 23.977-12.192-7.275-22.881-3.275-33.666 0z"/><path d="M81.517 204.689c2.217-1.913 9.927-6.704 5.543-27.742h33.666c4.983 12.258 4.525 26.577 3.783 27.742-14.33-7.227-28.661-5.025-42.992 0z"/><path d="M124.508 204.689c6.776 13.101 7.364 33.121 5.192 38.934-22.558-9.234-37.532-1.207-57.01 4.292 3.489-1.172 15.933-29.221 8.827-43.226h42.992z"/></g><g stroke-width=".699"><path d="M130.926 134.222c3.91-4.168 6.528-9.793 4.31-20.87h23.63c5.505 7.921 3.534 21.198 2.716 20.87-10.053-6.688-20.364-2.937-30.656 0z"/><path d="M125.138 163.133c1.151-4.345 10.725-11.88 5.788-28.911h30.656c4.943 8.93 5.261 27.069 3.884 28.911-14.604-8.772-27.408-3.948-40.328 0z"/><path d="M118.498 196.583c2.656-2.307 11.891-8.084 6.64-33.45h40.328c5.969 14.781 5.421 32.046 4.531 33.45-17.166-8.714-34.332-6.059-51.498 0z"/><path d="M169.997 196.583c8.116 15.797 8.821 39.936 6.219 46.946-27.022-11.134-44.959-1.455-68.291 5.175 4.18-1.413 19.086-35.234 10.574-52.12h51.498z"/></g><g class="D"><path d="M165.614 137.37c3.746-3.966 6.254-9.32 4.129-19.862h22.636c5.274 7.538 3.385 20.174 2.602 19.862-9.63-6.365-19.508-2.795-29.367 0z"/><path d="M160.07 164.884c1.103-4.135 10.274-11.306 5.544-27.514h29.367c4.735 8.499 5.039 25.761 3.721 27.514-13.991-8.348-26.256-3.758-38.632 0z"/><path d="M153.709 196.718c2.544-2.195 11.391-7.693 6.361-31.834h38.632c5.718 14.067 5.193 30.498 4.341 31.834-16.445-8.293-32.889-5.767-49.334 0z"/><path d="M203.043 196.718c7.775 15.034 8.45 38.007 5.957 44.678-25.886-10.596-43.069-1.385-65.42 4.925 4.004-1.345 18.283-33.532 10.129-49.603h49.334z"/></g><g stroke-linejoin="round" class="D"><path d="M198.586 236.403c1.252-19.981-1.48-46.847-12.293-62.413 12.827 12.25 36.541 37.116 56.018 59.144-12.399-1.095-31.326-2.056-43.724 3.269z"/><path d="M216.554 226.946c-5.683-28.807-17.557-59.456-28.369-75.022 18.765 18.188 46.091 51.105 65.565 73.13-12.399-1.095-24.797-3.434-37.196 1.891z"/></g></g><use href="#C" fill="#483e37" class="C"/><path d="M135.602 113.288l10.166-4.135 12.75 4.135m11.2 4.136l11.544-4.308 10.855 4.308" fill="none" class="B D"/><g class="C"><path fill="#6c5353" d="M214.824 242.088l-6.766 1.656c-11.053 2.414-26.11 4.585-42.877 6.143-30.783 2.859-67.333 3.632-95.6.15.09.472.282 1.146.607 2.088 28.395 3.398 64.587 2.595 95.176-.246 16.827-1.563 31.942-3.74 43.121-6.182 1.995-.436 3.815-.883 5.547-1.334.198-.394.368-.794.486-1.207l.305-1.068z"/><path fill="#312a25" d="M211.338 248.008l-3.482.807c-10.994 2.401-26.024 4.572-42.762 6.127-29.097 2.703-63.395 3.535-90.854.676 2.042 1.534 3.497 2.961 4.508 4.352 26.95 2.339 59.1 1.419 86.705-1.145 16.182-1.503 30.745-3.575 41.83-5.91 1.318-1.908 2.766-3.455 4.055-4.906z"/></g><g class="D"><use href="#C" fill="none" class="B"/><path fill="#37abc8" stroke="#fff" d="M39.973 261.061c-4.233 3.328-8.05 3.332-11.691 1.934 6.552 17.222 15.248 33.065 25.791 46.598 25.07 32.179 59.706 50.482 94.6 50.482s69.532-18.303 94.602-50.482c10.531-13.517 19.22-29.337 25.77-46.535-4.203 1.588-8.111.81-11.766-1.996-4.465 2.126-9.201 3.44-15.521 0-4.095 2.158-8.643 3.414-15.523 0-5.174 3.522-10.348 3.043-15.521 0-4.842 1.162-8.944 4.911-15.521 0-5.174 3.601-10.348 2.958-15.521 0-4.309 1.514-7.663 4.698-15.521 0-6.224 3.676-11.169 2.876-15.521 0-4.277 1.57-7.683 4.662-15.521 0-5.174 3.748-10.35 2.794-15.523 0-4.699 2.852-9.884 2.781-15.521 0-4.354 2.871-9.296 3.68-15.521 0-5.174 4.401-10.348 3.058-15.521 0-5.174 4.443-10.348 4.002-15.521 0-6.293 4.476-11.09 2.969-15.521 0z"/></g><g class="C"><path fill="#00d4aa" d="M55.18 269.384c5.997-1.369 12.13-.58 18.311-.723 10.155-.235 20.438-.574 30.461.723 4.339.561 12.835-1.033 12.694 3.341-.15 4.649-12.915-1.913-13.696 2.672-.629 3.69 6.083 4.671 9.688 5.679 7.079 1.979 14.967-1.638 22.048.334 2.98.83 8.279 1.594 8.017 4.677-.161 1.896-3.485 1.601-5.345 2.004-3.673.797-7.963 2.189-11.986 2.901-2.907.514-6.015-.175-7.034 2.342-1.124 2.777 2.905 1.593 5.658 2.774 5.773 2.478 12.277-2.701 18.791-3.044 6.306-.332 12.621 4.247 18.289 2.042 5.223-2.032 14.701-5.791 12.694-11.024-2.313-6.031-13.09 1.823-19.375.334-2.569-.609-7.555-1.091-7.015-3.675 1.622-7.758 20.341 5.5 23.718-1.67.816-1.733-1.646-3.784-3.341-4.677-10.347-5.45-24.315 3.91-35.076-.668-1.739-.74-4.732-2.263-4.009-4.009 2.919-7.048 9.886-1.084 18.02-1.222 13.358-.228 30.469-2.452 42.444 1.222 3.986 1.223 11.513 3.01 10.356 7.015-1.887 6.529-17.534-5.505-20.377.668-.895 1.943 2.071 4.106 4.009 5.011 4.541 2.121 10.419-2.293 15.033-.334 1.813.77 4.751 2.518 4.009 4.343-2.395 5.887-13.049-1.117-19.041 1.002-5.187 1.834-8.153 7.919-13.362 9.688-8.348 2.834-17.533 1.564-26.607 1.793-7.779.196-15.478 2.341-22.5-.456-5.267-2.098-14.142-6.767-12.026-12.026 2.037-5.063 15.169 4.99 16.369-.334.383-1.7-2.977-1.952-4.677-2.338-13.248-3.013-32.815 8.42-45.017 2.444-1.5-.735-3.733-2.505-3.007-4.009 3.636-7.522 26.327 5.358 29.316-2.444 1.043-2.721-3.635-4.946-6.347-6.013-6.466-2.545-15.313 1.962-23.142 1.476-6.85-.425-12.923-6.419-15.942-1.142-3.766 6.581 4.755 15.981 11.358 19.709 9.795 5.532 23.279-4.804 33.74-.668 5.785 2.287 7.6 10.684 13.362 13.028 10.521 4.28 29.042-10.182 34.074 0 1.056 2.136-2.219 4.598-4.343 5.679-1.998 1.017-4.467-1.398-7.113-1.762-8.53-1.175-18.902-4.392-21.282 2.43-1.146 3.285 4.731 5.541 8.017 6.681 10.37 3.599 18.578 1.355 29.904-.441 5.914-.938 18.619-6.404 20.204-.895.787 2.735-4.618 3.544-7.349 4.343-12.192 3.564-25.4.638-38.082 1.336-4.46.245-12.109-3.285-13.362 1.002-.625 2.138 3.225 3.325 5.345 4.009 7.409 2.391 14.528 1.666 22.38.753 3.83-.446 11.082-4.996 12.362-1.421.908 2.538-3.814 4.09-6.347 5.011-9.802 3.562-17.154 1.656-27.918 1.898-9.126.206-21.703 3.155-29.873-.228-2.547-1.055-6.77-3.481-5.679-6.013 3.438-7.976 22.733 8.024 26.056 0 1.326-3.201-8.675-4.148-7.349-7.349 1.534-3.704 10.214 3.576 12.026 0 .936-1.848-1.82-4.089-3.675-5.011-6.283-3.122-14.81 3.551-21.046.334-1.921-.991-6.457-2.366-5.45-4.279 3.007-5.716 18.314 4.736 21.151-1.065 1.116-2.281-2.33-5.043-4.677-6.013-10.393-4.296-23.749 10.13-35.744.334-1.364-1.114-4.763-4.462-3.007-4.343 9.975.678 30.081 4.714 34.408.668 1.042-.974-1.248-3.398-2.672-3.341-41.294 1.668-46.245-11.254-43.427-1.002 2.461 8.956 10.682 15.274 17.037 22.048 7.612 8.113 15.157 16.968 25.054 22.048 11.895 6.106 25.78 7.688 39.085 9.02 12.192 1.22 24.79 1.68 36.746-1.002 10.8-2.423 21.375-6.952 30.399-13.362 3.597-2.555 10.955-5.723 9.02-9.688-6.719-13.761-41.086 18.59-45.766 4.009-.869-2.709 4.883-2.924 7.349-4.343 4.646-2.672 9.625-1.437 14.48-2.777 5.996-1.654 11.802-5.556 16.556-5.481 6.49.103 11.018 1.662 11.39 4.249.496 3.45 6.637-6.471 4.677-9.354-5.095-7.49-19.246.952-29.096 3.622-4.007 1.086-7.302 2.995-8.987-.282-.939-1.826 2.191-3.722 4.009-4.677 3.767-1.978 8.854.496 12.694-1.336 1.99-.949 5.551-2.653 4.677-4.677-1.148-2.658-4.802-.744-7.944-.716-4.956.045-10.221-.373-14.438 1.384-2.835 1.181-3.839 5.183-6.681 6.347-5.771 2.364-14.926 5.294-18.707.334-1.196-1.569.062-4.536 1.67-5.679 3.725-2.648 9.396 2.217 13.696.668 3.263-1.175 4.465-5.723 7.683-7.015 8.682-3.487 20.086 4.225 28.061-.668 1.401-.86 3.161-2.919 2.338-4.343-3.903-6.751-20.058 6.385-23.384-.668-.541-1.148 1.213-2.42 2.338-3.007 7.712-4.02 18.364 2.722 26.056-1.336 2.6-1.372 6.468-4.298 5.345-7.015-1.89-4.57-12.717 2.526-14.698-2.004-.545-1.245 1.152-2.678 2.338-3.341 4.966-2.774 12.288 2.129 17.037-1.002 1.039-.685 2.314-2.275 1.67-3.341-2.763-4.577-13.638 4.445-16.035-.334-.859-1.712 1.663-3.752 3.341-4.677 7-3.858 17.464-.775 26.425-1.297 6.419-.374 12.24-6.229 14.664-1.042 1.034 2.212-2.815 4.275-5.011 5.345-5.628 2.742-13.533-1.855-18.707 1.67-2.263 1.542-5.295 5.141-3.675 7.349 1.668 2.273 6.714-3.631 8.351-1.336 1.1 1.541-1.03 4.07-2.672 5.011-2.417 1.385-5.876-1.612-8.351-.334-2.717 1.402-2.385 6.116-5.011 7.683-2.303 1.374-6.202-1.305-8.017.668-.905.983-.945 3.064 0 4.009 5.59 5.59 21.902-7.695 23.718 0 .629 2.666-4.684 3.045-7.349 3.675-4.985 1.177-10.823-2.365-15.367 0-2.411 1.255-5.852 4.23-4.677 6.681 1.324 2.761 4.486-.428 8.173-1.193 6.522-1.354 14.686-1.928 17.216 2.864 3.985 7.549-7.506 15.538-13.028 22.048-3.477 4.099-7.759 7.577-12.36 10.356-10.302 6.221-21.682 10.978-33.406 13.696-11.415 2.647-23.397 3.29-35.076 2.338-10.257-.836-20.359-3.595-30.065-7.015-9.207-3.244-18.476-6.98-26.39-12.694-7.534-5.44-13.648-12.726-19.375-20.043-6.075-7.761-19.321-15.887-15.701-25.054 1.439-3.643 9.989.663 11.358-3.007 2.213-5.932-12.331-9.586-10.69-15.701.865-3.223 5.766-3.6 9.02-4.343z"/><path fill="#d5f6ff" d="M155.904 265.088c-7.453 5.089-8.001 4.424-11.014 5.813 3.672.435 7.345.811 11.018-1.271 4.384 3.5 8.769 1.917 13.152 2.494-4.612-2.345-11.44-4.69-13.156-7.035zm51.396.305c-7.453 5.089-8.001 4.424-11.014 5.813 3.672.435 7.345.811 11.018-1.271 4.384 3.5 8.767 1.919 13.15 2.496-.386-.196-.806-.393-1.219-.59 2.141-.019 4.283-.386 6.424-1.6 4.384 3.5 8.767 1.917 13.15 2.494-4.612-2.345-11.438-4.69-13.154-7.035-5.448 3.72-7.205 4.362-8.934 4.982-3.954-1.763-8.132-3.526-9.422-5.289zm-110.133 1.836c-7.453 5.089-8.001 4.424-11.014 5.813 3.672.435 7.343.811 11.016-1.271 4.384 3.5 8.769 1.919 13.152 2.496-4.612-2.345-11.438-4.692-13.154-7.037zm33.65.918c-7.453 5.089-8.001 4.424-11.014 5.813 3.672.435 7.345.811 11.018-1.271 2.744 2.191 5.489 2.39 8.232 2.375-4.561 2.862-5.408 2.629-7.93 3.791.752.089 1.504.163 2.256.227-6.633 4.451-7.32 3.946-10.211 5.279 3.672.435 7.345.811 11.018-1.271 4.384 3.5 8.769 1.919 13.152 2.496-4.204-2.138-10.239-4.276-12.574-6.414 2.459.089 4.918-.194 7.377-1.588 4.384 3.5 8.767 1.919 13.15 2.496-4.612-2.345-11.438-4.692-13.154-7.037l-1.123.746c-4.17-1.88-8.822-3.76-10.197-5.641zm54.455 2.141c-7.453 5.089-8.001 4.424-11.014 5.813 3.672.435 7.345.811 11.018-1.271 4.384 3.5 8.767 1.919 13.15 2.496-4.612-2.345-11.438-4.692-13.154-7.037zm-110.439.307c-7.453 5.089-7.999 4.424-11.012 5.813 3.672.435 7.343.811 11.016-1.271 4.384 3.5 8.769 1.919 13.152 2.496-4.612-2.345-11.44-4.692-13.156-7.037zm30.898 7.953c-5.817 3.972-7.432 4.443-9.291 5.117-.064-.074-.137-.147-.191-.221l-1.113.738c-.141.061-.264.108-.416.178l.129.014c-6.069 4.015-6.812 3.592-9.613 4.883 3.672.435 7.345.811 11.018-1.271 2.811 2.245 5.622 2.399 8.434 2.373-5.838 3.836-6.594 3.438-9.355 4.711 3.672.435 7.343.811 11.016-1.271 4.384 3.5 8.769 1.917 13.152 2.494-3.895-1.981-9.361-3.962-12.002-5.943.635.015 1.271.047 1.906.131-3.825-1.946-9.167-3.89-11.859-5.836 2.731.184 5.461-.006 8.191-1.555 4.384 3.5 8.769 1.919 13.152 2.496-4.612-2.345-11.44-4.692-13.156-7.037h0zm106.715 2.873c-7.453 5.089-7.999 4.424-11.012 5.813 3.672.435 7.343.811 11.016-1.271 4.384 3.5 8.769 1.917 13.152 2.494-4.612-2.345-11.44-4.69-13.156-7.035zm-30.002 6.713c-7.453 5.089-8.001 4.424-11.014 5.813 3.672.435 7.345.811 11.018-1.271 4.384 3.5 8.767 1.919 13.15 2.496-4.612-2.345-11.438-4.692-13.154-7.037zm-29.293.205c-7.453 5.089-8.001 4.424-11.014 5.813 3.672.435 7.343.811 11.016-1.271 4.384 3.5 8.769 1.917 13.152 2.494-4.612-2.345-11.438-4.69-13.154-7.035zm-68.527 7.342c-7.453 5.089-8.001 4.424-11.014 5.813 3.672.435 7.343.811 11.016-1.271 4.384 3.5 8.769 1.917 13.152 2.494-4.612-2.345-11.438-4.69-13.154-7.035zm55.066 0c-4.739 3.236-6.684 4.144-8.248 4.734-1.386-.762-2.515-1.525-3.072-2.287-7.453 5.089-8.001 4.424-11.014 5.813 3.672.435 7.345.811 11.018-1.271 4.384 3.5 8.767 1.919 13.15 2.496-2.205-1.121-4.903-2.244-7.32-3.365 1.83-.114 3.659-.541 5.488-1.578 4.384 3.5 8.769 1.917 13.152 2.494-4.612-2.345-11.438-4.69-13.154-7.035zm59.959.846c-5.415 3.698-7.184 4.355-8.902 4.973-.692-.469-1.245-.938-1.588-1.406-7.453 5.089-8.001 4.424-11.014 5.813 3.672.435 7.343.811 11.016-1.271 4.384 3.5 8.769 1.919 13.152 2.496-2.918-1.484-6.717-2.969-9.553-4.453 2.297.034 4.594-.307 6.891-1.609 4.384 3.5 8.769 1.919 13.152 2.496-4.612-2.345-11.438-4.692-13.154-7.037zm-92.082 7.414c-7.453 5.089-8.001 4.424-11.014 5.813 3.672.435 7.345.811 11.018-1.271 2.249 1.796 4.499 2.249 6.748 2.348-4.603 2.894-5.444 2.652-7.975 3.818 3.672.435 7.343.811 11.016-1.271 4.384 3.5 8.769 1.919 13.152 2.496-3.241-1.649-7.547-3.297-10.434-4.945.214.019.428.023.643.051a61.99 61.99 0 0 0-2.24-1.072c-.472-.357-.864-.713-1.125-1.07l-.502.334c-3.913-1.743-8.012-3.486-9.287-5.229h0zm52.008 2.447c-7.453 5.089-8.001 4.424-11.014 5.813 3.672.435 7.345.811 11.018-1.271 4.384 3.5 8.767 1.919 13.15 2.496-4.612-2.345-11.438-4.692-13.154-7.037zm2.754 10.707c-7.453 5.089-8.001 4.424-11.014 5.813 3.672.435 7.343.811 11.016-1.271 4.384 3.5 8.769 1.919 13.152 2.496-4.612-2.345-11.438-4.692-13.154-7.037zm-50.172 1.225c-7.453 5.089-8.001 4.424-11.014 5.813 3.672.435 7.343.811 11.016-1.271 4.384 3.5 8.769 1.917 13.152 2.494-4.612-2.345-11.438-4.69-13.154-7.035zm27.533 1.529c-7.453 5.089-8.001 4.424-11.014 5.813 3.672.435 7.343.811 11.016-1.271 4.384 3.5 8.769 1.919 13.152 2.496-4.612-2.345-11.438-4.692-13.154-7.037z"/></g><g class="B E"><path d="M148.672 6.443c-36.824.001-72.997 19.285-98.961 52.611-26.02 33.399-40.974 79.815-40.975 126.967s14.954 93.57 40.975 126.969c25.964 33.327 62.137 52.611 98.961 52.611s72.998-19.284 98.963-52.611c26.021-33.399 40.975-79.816 40.975-126.969s-14.956-93.568-40.977-126.967c-25.964-33.326-62.137-52.611-98.961-52.611zm0 25c28.065 0 57.3 14.816 79.238 42.975 21.882 28.086 35.699 69.844 35.699 111.604s-13.816 83.519-35.697 111.605c-21.938 28.158-51.174 42.975-79.24 42.975s-57.301-14.816-79.238-42.975c-21.881-28.086-35.697-69.846-35.697-111.605s13.816-83.518 35.697-111.604c21.937-28.158 51.173-42.974 79.238-42.975z"/><path d="M148.672 3.943c-37.697.001-74.565 19.728-100.934 53.574C21.313 91.436 6.236 138.341 6.236 186.021s15.077 94.587 41.502 128.506c26.369 33.846 63.237 53.574 100.934 53.574s74.567-19.728 100.936-53.574c26.425-33.919 41.502-80.824 41.502-128.506s-15.079-94.586-41.504-128.504C223.237 23.672 186.369 3.943 148.672 3.943zm0 5c35.952 0 71.428 18.841 96.988 51.648 25.616 32.879 40.449 78.806 40.449 125.43s-14.831 92.552-40.447 125.432c-25.56 32.808-61.039 51.649-96.99 51.648s-71.429-18.841-96.988-51.648c-25.615-32.88-40.447-78.808-40.447-125.432s14.832-92.551 40.447-125.43c25.56-32.807 61.037-51.648 96.988-51.648zm0 20c-28.945 0-58.873 15.265-81.211 43.938-22.306 28.631-36.224 70.83-36.225 113.141s13.919 84.511 36.225 113.143c22.338 28.672 52.265 43.937 81.211 43.938s58.875-15.265 81.213-43.937c22.306-28.632 36.225-70.831 36.225-113.143s-13.92-84.509-36.227-113.141c-22.338-28.672-52.266-43.938-81.211-43.937zm0 5c27.186 0 55.728 14.367 77.266 42.012 21.457 27.541 35.172 68.859 35.172 110.066s-13.713 82.527-35.17 110.068c-21.537 27.644-50.082 42.012-77.268 42.012s-55.729-14.367-77.266-42.012c-21.456-27.541-35.17-68.86-35.17-110.068s13.714-82.526 35.17-110.066c21.537-27.644 50.08-42.011 77.266-42.012z"/></g><path d="M24.088 246.733c.21.699.444 1.148.7 1.347.204.166.642.141 1.313-.074l8.414-2.701.836-.398c.676-.455.801-1.388.376-2.799-.461-1.529-1.339-2.577-2.634-3.144s-2.815-.571-4.559-.011c-1.827.587-3.154 1.603-3.979 3.05s-.981 3.024-.467 4.731h0zm-.975-.59c-.674-2.237-.658-4.208.046-5.914s1.978-2.855 3.821-3.447c2.375-.762 4.539-.463 6.494.899a7.34 7.34 0 0 1 2.902 4.006l.425 1.697.402 1.477.816 2.31.272.585c.046.152-.026.258-.216.319-.131.042-.237-.014-.32-.167-.199-.382-.446-.606-.74-.673s-.745-.004-1.353.192l-8.363 2.685c-.614.197-1.035.524-1.263.98s-.245 1.003-.053 1.642c.062.204.009.333-.158.387-.116.037-.204.018-.265-.056s-.136-.257-.223-.547l-.434-1.51-.296-.914-.653-1.668-.838-2.282h0zm-2.389-25.002c.014.082.274.188.779.319l.448.117 2.844.706.267.067a.61.61 0 0 0 .269.024c.224-.041.294-.307.209-.796l-.522-3.018c-.045-.258-.136-.375-.275-.349a.52.52 0 0 0-.159.082l-.1.071-2.792 1.894c-.669.453-.992.748-.969.883h0zm-3.588-.192c-.019-.109.225-.348.733-.716l.482-.342 9.526-6.552c.481-.327.822-.671 1.025-1.032s.304-.797.304-1.31c-.001-.126.083-.205.252-.236.182-.034.284.029.304.187a3.85 3.85 0 0 1 .009.399c-.019.545.073 1.401.274 2.566.203 1.172.394 1.96.574 2.363a1.02 1.02 0 0 1 .089.258c.033.191-.043.303-.228.337-.093.017-.175-.045-.247-.186-.149-.31-.361-.55-.637-.721s-.545-.232-.81-.183c-.37.068-1.133.514-2.287 1.338-.352.254-.537.497-.555.728s.089 1.02.322 2.365l.24 1.387.317.888c.156.231.64.436 1.454.615l.817.175a1.66 1.66 0 0 0 .688.02c.831-.153 1.209-.841 1.133-2.063-.012-.265.063-.408.223-.431.175-.018.282.089.322.321.021.123.03.301.026.534-.015.467.009.879.07 1.233.055.321.179.833.371 1.537l.253.978c.033.191-.031.301-.193.331-.135.025-.253-.052-.353-.231a1.68 1.68 0 0 0-.77-.772c-.338-.167-1.025-.379-2.061-.638l-6.7-1.641-1.098-.282-2.05-.602-1.013-.319.03-.005-.408-.094c-.272-.063-.414-.131-.427-.207h0zm-3.258-35.081c-.011-.242.077-.368.265-.377.155-.008.243.081.265.266.078.645.31 1.087.697 1.327s1.026.337 1.917.292l.683-.045 6.236-.559.411-.031c.924-.047 1.601-.248 2.031-.605s.666-.919.711-1.688c.018-.194.113-.296.284-.304.185-.009.288.22.311.689a6.08 6.08 0 0 1-.026.665l-.064 1.796c.034.724.097 1.325.188 1.804l.147.925c.008.172-.073.263-.245.271-.13.007-.227-.088-.291-.284-.126-.385-.309-.653-.551-.802s-.593-.212-1.055-.189l-.471.034-6.646.633c-.18.016-.268.066-.265.149.005.104.196.237.572.399l8.192 3.509.308.129c.424.178.643.332.655.462.014.151-.342.423-1.068.817l-1.019.579-7.008 3.673-.147.08c-.046.03-.067.073-.064.128.005.11.145.158.42.144l.322-.006 5.077-.127.402-.01.939-.141c.975-.243 1.552-.815 1.731-1.717.061-.314.17-.476.327-.484.178-.009.273.108.284.351.009.187.003.41-.017.668l-.062.744c-.017.189-.017.46 0 .813.03.631.081 1.122.155 1.473.05.227.078.399.084.517.01.215-.074.327-.252.336-.123.006-.216-.072-.279-.235-.199-.523-.526-.896-.983-1.119s-1.079-.314-1.868-.274l-6.601.057-.673.003c-.802.04-1.423.274-1.862.701s-.641.992-.608 1.697c.012.262-.076.398-.264.408-.195.01-.3-.134-.314-.431l-.001-.239.013-.603-.01-.425a7.15 7.15 0 0 0-.107-.95l-.125-.908a1 1 0 0 1 .586-1.006l8.795-4.703c.386-.206.573-.372.56-.496s-.156-.244-.429-.361l-8.239-3.496c-.78-.328-1.27-.566-1.472-.715a.76.76 0 0 1-.32-.607c-.005-.097-.001-.249.009-.458a5.88 5.88 0 0 0 .001-.623c-.013-.283-.054-.631-.121-1.043l-.053-.475h0zm.135-12.003c.006-.076.027-.216.063-.421l.278-2.013.075-2.249.019-.715c.029-.358.141-.528.336-.512.108.009.179.043.215.102s.066.193.089.403c.046.427.175.722.387.886s.641.291 1.285.381l2.511.383 1.774.132c1.616.139 2.774.15 3.472.034a3.44 3.44 0 0 0 1.846-.938c.809-.769 1.265-1.803 1.37-3.104.107-1.328-.186-2.434-.881-3.319-.47-.595-1.189-1.05-2.158-1.365s-2.378-.553-4.226-.712l-.811-.07-2.056-.125c-.624-.012-1.122.147-1.495.476s-.584.802-.633 1.417c-.022.269-.132.396-.331.378-.158-.014-.235-.086-.231-.218a.73.73 0 0 1 .05-.236c.03-.116.073-.387.128-.815l.14-1.096.044-1.02-.012-.921.008-.344c.015-.187.111-.273.289-.257.137.012.212.104.225.278l.038.397c.044.542.578.857 1.604.946l.87.065 1.227.126c1.925.166 3.469.397 4.633.695s2.047.691 2.652 1.18c1.468 1.173 2.102 3.003 1.901 5.489-.142 1.756-.572 3.092-1.29 4.008-.979 1.24-2.725 1.752-5.238 1.536l-3.86-.447-1.822-.125c-.453-.039-.777-.02-.971.057s-.37.256-.526.535c-.181.326-.318.697-.412 1.114-.063.266-.176.392-.34.378-.178-.015-.257-.14-.238-.374h0zm3.532-30.496c.121-.638.356-1.239.706-1.802l.403-.627c.175-.282.275-.487.299-.616.018-.095.014-.198-.013-.31l-.115-.425a.38.38 0 0 1-.009-.171c.027-.143.149-.192.367-.148l.797.182c.125.025.245.042.36.051l.994.066.919.082a1.23 1.23 0 0 1 .202.02c.284.057.409.171.377.341-.023.123-.165.186-.424.19-.955.012-1.841.347-2.66 1.007s-1.312 1.434-1.481 2.323c-.116.611-.017 1.184.295 1.72s.739.858 1.281.967c.503.101.975-.012 1.416-.339.285-.211.822-.939 1.609-2.184.943-1.482 1.77-2.424 2.481-2.824.854-.47 1.801-.6 2.84-.39 1.145.231 2.06.86 2.746 1.888s.921 2.116.703 3.264c-.089.469-.384 1.182-.887 2.139l-.494.99c-.118.301-.21.471-.276.511s-.243.048-.531.025c-.315-.028-.781-.016-1.398.036-.942.078-1.538.092-1.787.042-.315-.064-.453-.201-.413-.412.018-.095.11-.148.274-.157 1.188-.107 2.243-.495 3.165-1.165s1.466-1.448 1.634-2.334c.13-.688-.007-1.354-.411-1.998s-.933-1.032-1.587-1.164c-.516-.104-.968-.049-1.355.166s-.793.641-1.219 1.276l-.964 1.417c-.909 1.337-1.694 2.21-2.356 2.621s-1.46.522-2.394.333c-1.086-.219-1.924-.767-2.516-1.644s-.785-1.859-.58-2.945h0zM47.16 71.893c1.065-1.615 2.169-2.561 3.312-2.838a3.29 3.29 0 0 1 2.795.531c.905.645 1.442 1.538 1.609 2.678s-.082 2.215-.747 3.224c-.361.547-.733.988-1.116 1.322s-.65.448-.799.341-.176-.23-.082-.373c.022-.034.061-.074.115-.119a3.87 3.87 0 0 0 .73-.813c.451-.684.608-1.4.47-2.147s-.54-1.358-1.207-1.833c-.831-.592-1.678-.819-2.54-.68s-1.56.611-2.092 1.418c-.411.624-.599 1.106-.563 1.448s.312.695.827 1.062l6.234 4.44c1.04.741 1.774 1.159 2.202 1.255.512.114 1-.12 1.464-.701l.275-.344c.113-.146.245-.164.396-.056s.156.27.013.487a3.31 3.31 0 0 1-.18.236l-.397.546-.924 1.288-.212.339c-.267.404-.59.986-.969 1.746l-.311.57c-.12.182-.248.229-.385.14-.13-.085-.163-.213-.098-.385.192-.511.185-.947-.02-1.308s-.714-.831-1.526-1.409l-6.337-4.514c-.631-.449-1.174-.653-1.629-.612s-.906.334-1.354.88c-.168.191-.324.235-.47.131-.163-.116-.163-.297-.001-.542a6.69 6.69 0 0 1 .291-.384l1.499-2.141.618-.994.568-.992.542-.897h0zm9.714-13.054c.031-.036.103-.108.216-.216l.337-.368.708-.746 2.582-2.873 2.649-3.148a1.16 1.16 0 0 1 .087-.114c.13-.148.276-.145.438.009.113.107.327.283.644.526l.974.811c.372.354.477.634.313.84-.079.101-.229.046-.45-.164-.485-.461-.999-.61-1.544-.446s-1.182.66-1.912 1.489l-.825.936-.401.578c-.151.336-.019.702.398 1.099l.295.295 1.597 1.519c.456.434.776.675.96.722s.393-.062.627-.328l.196-.237.29-.345.575-.653c.447-.507.526-1.152.237-1.934l-.203-.518c-.048-.129-.028-.248.06-.358s.207-.107.344.023a9.52 9.52 0 0 1 .307.326l.312.32c.157.149.543.477 1.16.983l1.023.893.381.349c.069.065.108.117.119.156.011.048-.007.105-.057.171-.103.137-.266.128-.489-.028-.475-.33-.927-.478-1.354-.442a1.23 1.23 0 0 0-.657.27c-.204.159-.537.502-1.001 1.028l-.459.521c-.216.245-.328.447-.336.604s.083.353.271.589c.218.264.591.647 1.121 1.151l.661.629c.691.657 1.237 1.074 1.64 1.25.297.123.537.163.719.12s.381-.187.597-.432c1.828-2.075 2.418-4.009 1.768-5.801-.028-.092-.033-.152-.015-.183.035-.06.093-.092.173-.095s.152.025.216.086c.483.459.832 1.04 1.047 1.742.186.59.214 1.132.082 1.626s-.443 1.019-.933 1.575a14.29 14.29 0 0 1-1.016 1.032l-.862.813c-.317.299-.72.727-1.21 1.283l-1.43 1.764-.375.473c-.108.122-.22.137-.338.044-.093-.079-.11-.198-.051-.358.149-.394.209-.7.182-.919s-.169-.506-.424-.861c-.21-.303-.538-.667-.984-1.092l-5.832-5.548c-.549-.522-1.004-.784-1.364-.784s-.838.255-1.433.767c-.141.119-.275.118-.401-.001-.116-.11-.099-.249.049-.417h0zm24.213-23.68c.285-.237.531-.238.737-.004l.486.547c.075.087.269.282.582.587l.583.639c.136.177.134.325-.007.442-.12.1-.283.067-.488-.099-.495-.412-.982-.601-1.461-.566s-1.012.296-1.598.782c-.789.654-1.232 1.126-1.329 1.414s.047.684.433 1.186l4.686 6.098c.701.912 1.325 1.453 1.873 1.622s1.16.008 1.838-.484c.2-.139.368-.119.504.057.098.127.066.258-.095.391l-.201.153-.603.46-1.024.742-.318.251-.792.696-1.644 1.53-.35.341c-.161.134-.293.127-.397-.018-.087-.124-.121-.223-.101-.297s.103-.181.251-.322c.385-.363.581-.776.588-1.237s-.174-.932-.543-1.413l-.3-.374-5.527-7.191c-.328-.426-.712-.457-1.154-.09-1.038.861-1.686 1.528-1.945 1.999-.183.348-.263.633-.24.858s.184.696.482 1.416l.112.279c.113.27.109.455-.011.555-.173.144-.319.127-.437-.049-.111-.155-.247-.388-.408-.696l-.464-.77-.461-.799-.325-.539c-.141-.228-.113-.424.084-.587a4.65 4.65 0 0 1 .278-.203c.215-.151.51-.382.883-.692l1.601-1.302 1.912-1.546 3.801-3.319.51-.448h0zm13.506-8.643c.19-.114.325-.098.406.047.06.108.085.189.077.243s-.066.124-.172.211c-.377.321-.577.6-.603.839s.105.616.39 1.132l4.239 7.659.568.858c.325.421.69.674 1.095.759s.824-.001 1.258-.261c.283-.169.475-.163.575.018.097.175-.042.374-.418.599-.161.096-.401.218-.719.366l-1.901.956c-.577.345-1.015.649-1.314.914-.256.231-.448.384-.575.46s-.243.06-.349-.049l-.058-.063.134-.362c.331-.404.502-.76.514-1.065s-.126-.719-.415-1.24l-.433-.804-3.96-7.155c-.305-.551-.614-.887-.928-1.01s-.738-.077-1.272.139c-.322.127-.537.192-.646.196s-.194-.049-.256-.16c-.095-.172-.072-.296.07-.373.107-.056.277-.124.508-.206.235-.075.597-.259 1.088-.552l1.169-.78.602-.43 1.328-.887h0zm26.32-11.286c.221-.078.361-.025.421.159.049.151-.009.263-.174.337-.576.255-.921.607-1.037 1.058s-.031 1.111.255 1.983l.229.665 2.225 6.035.141.4c.296.904.668 1.521 1.115 1.848s1.033.408 1.756.24c.185-.035.304.031.359.198.059.181-.125.347-.552.498a5.6 5.6 0 0 1-.622.158l-1.679.432c-.66.233-1.199.461-1.617.684l-.816.401c-.157.056-.263 0-.318-.168-.042-.127.019-.25.183-.368.322-.231.519-.487.591-.768s.034-.647-.114-1.099l-.16-.458-2.405-6.421c-.064-.175-.134-.248-.21-.221-.095.034-.166.259-.213.678l-1.004 9.097-.035.341c-.049.47-.131.729-.248.778-.135.055-.485-.223-1.048-.834l-.814-.851-5.317-5.942-.114-.124c-.04-.037-.085-.047-.136-.029-.1.036-.107.188-.019.456l.094.318 1.508 5.003.12.396.387.893c.492.901 1.179 1.316 2.062 1.245.307-.026.486.037.537.191.057.174-.025.301-.247.379a4.95 4.95 0 0 1-.623.167l-.705.143c-.179.035-.43.11-.753.224-.576.204-1.016.39-1.32.559-.196.112-.348.187-.455.225-.196.069-.323.017-.38-.157-.04-.121.008-.234.141-.341.429-.342.685-.769.766-1.284s-.005-1.157-.257-1.929l-1.859-6.535-.187-.667c-.257-.785-.643-1.336-1.158-1.654s-1.094-.363-1.736-.136c-.239.085-.389.035-.449-.15-.063-.191.042-.334.313-.43l.221-.067.561-.154.391-.127a6.6 6.6 0 0 0 .85-.368l.806-.375c.416-.147.78-.046 1.091.305l6.759 7.432c.297.326.501.466.612.419s.183-.222.216-.526l.978-9.139c.09-.864.176-1.416.259-1.657s.241-.403.474-.485c.088-.031.23-.07.426-.117a5.54 5.54 0 0 0 .577-.17c.259-.091.569-.227.932-.408l.425-.184zm12.578-2.723a4.96 4.96 0 0 1 .41.001l1.956-.021c.65-.046 1.366-.134 2.15-.263l.684-.088c.345-.025.524.064.537.265.008.111-.014.19-.065.235s-.174.096-.37.152c-.399.112-.661.288-.785.529s-.18.698-.169 1.369l.014 2.62.142 1.831c.111 1.67.274 2.853.49 3.548a3.6 3.6 0 0 0 1.17 1.742c.853.709 1.906 1.018 3.159.929 1.28-.092 2.288-.559 3.025-1.401.495-.569.82-1.372.974-2.408s.168-2.51.042-4.42l-.055-.838-.191-2.117c-.083-.638-.309-1.123-.678-1.453s-.851-.474-1.443-.432c-.26.019-.396-.075-.41-.281-.011-.163.047-.253.173-.269a.67.67 0 0 1 .232.015c.115.013.38.015.794.007l1.064-.023.977-.11.874-.152.328-.043c.18-.013.276.072.288.256.009.141-.067.232-.231.272l-.372.099c-.509.126-.729.72-.659 1.78l.07.898.065 1.271c.132 1.99.144 3.6.035 4.833s-.35 2.194-.724 2.884c-.895 1.676-2.541 2.599-4.936 2.771-1.692.121-3.027-.116-4.006-.71-1.327-.812-2.077-2.516-2.249-5.113l-.156-4.007-.155-1.879c-.031-.468-.098-.796-.201-.982s-.299-.339-.588-.456c-.337-.135-.711-.219-1.122-.252-.263-.024-.4-.12-.411-.29-.012-.184.094-.284.32-.3h0zm30.829.201c.619.095 1.207.31 1.765.646l.622.386c.279.168.481.261.606.28a.66.66 0 0 0 .297-.028l.403-.138a.34.34 0 0 1 .164-.017c.138.021.191.145.159.372l-.139.831a3.23 3.23 0 0 0-.033.374l-.018 1.028-.036.952a1.54 1.54 0 0 1-.01.209c-.042.295-.146.43-.311.405-.119-.018-.186-.161-.202-.428-.055-.984-.418-1.883-1.09-2.697s-1.439-1.287-2.301-1.42c-.593-.091-1.139.036-1.64.383s-.791.802-.871 1.366c-.075.523.056 1.005.391 1.445.216.284.94.804 2.173 1.559 1.468.904 2.411 1.714 2.828 2.428.491.859.659 1.829.505 2.911-.17 1.191-.733 2.164-1.689 2.919s-1.992 1.047-3.106.876c-.455-.07-1.154-.342-2.097-.816l-.975-.464c-.294-.108-.462-.195-.504-.261s-.057-.248-.048-.547c.013-.326-.02-.806-.098-1.44-.118-.968-.159-1.582-.122-1.841.047-.328.172-.476.377-.445.093.014.147.106.163.276.157 1.221.579 2.29 1.265 3.21s1.459 1.445 2.319 1.577c.668.103 1.302-.069 1.902-.516s.949-1.01 1.046-1.69c.077-.537.003-1.001-.222-1.39s-.652-.789-1.282-1.198l-1.406-.928c-1.327-.876-2.202-1.645-2.628-2.309s-.568-1.481-.43-2.454c.161-1.129.649-2.02 1.466-2.671s1.751-.896 2.805-.733h0zm21.842 5.664c-1.154-.441-2.221-.356-3.201.256s-1.733 1.66-2.259 3.145c-.707 1.996-.839 3.812-.395 5.447s1.362 2.719 2.754 3.251c1.172.448 2.281.33 3.327-.354s1.848-1.815 2.407-3.392c.637-1.799.7-3.51.187-5.133s-1.453-2.696-2.821-3.22zm1.154-.376c1.802.689 3.053 1.816 3.751 3.381s.717 3.278.058 5.139c-.474 1.337-1.191 2.441-2.151 3.312-.566.518-1.158.897-1.774 1.137s-1.371.389-2.264.446c-.248.017-.387.058-.417.124-.039.092.094.313.399.665l.798.934c.384.453.828.775 1.33.967.337.129.769.104 1.296-.075.077-.027.14-.035.189-.023s.088.065.114.159.027.171-.001.23c-.057.125-.353.294-.886.509-1.04.412-1.921.479-2.644.203-.438-.168-.865-.443-1.28-.827s-.954-1-1.614-1.85l-1.638-1.98c-.285-.295-.585-.503-.899-.623-.48-.183-.956-.134-1.43.149s-.814.718-1.022 1.306c-.07.198-.183.267-.338.208-.191-.073-.241-.239-.149-.498l.226-.723.339-.564c.274-.343.732-.672 1.373-.987.08-.039.126-.074.137-.105.015-.043-.076-.221-.273-.535-.476-.756-.747-1.67-.814-2.742a7.85 7.85 0 0 1 .445-3.144c.714-2.016 1.915-3.411 3.602-4.183s3.533-.776 5.537-.009h0zm17.535 8.777a5.18 5.18 0 0 1 .327.257l1.575 1.206 1.87 1.134.597.356c.29.196.381.378.276.548-.058.093-.121.143-.188.148s-.194-.032-.384-.11c-.383-.16-.695-.183-.933-.067s-.548.445-.928.988l-1.506 2.102-.947 1.551c-.879 1.403-1.433 2.45-1.663 3.141s-.255 1.398-.074 2.122c.271 1.099.933 2.005 1.986 2.716 1.075.727 2.151.984 3.227.771.725-.145 1.449-.584 2.173-1.315s1.587-1.9 2.592-3.505l.441-.704 1.073-1.81c.304-.562.404-1.09.3-1.585s-.405-.911-.903-1.247c-.218-.147-.273-.307-.165-.48.086-.137.184-.173.294-.107.043.021.102.073.177.157a8.27 8.27 0 0 0 .63.502l.863.647.844.523.786.425.287.171c.151.102.179.231.082.385-.074.119-.188.143-.342.073l-.354-.153c-.48-.217-.999.119-1.556 1.01l-.464.761-.685 1.056c-1.046 1.672-1.97 2.966-2.769 3.883s-1.549 1.534-2.248 1.852c-1.685.779-3.534.488-5.547-.872-1.422-.961-2.351-1.984-2.789-3.071-.59-1.478-.202-3.308 1.164-5.49l2.195-3.298.964-1.597c.246-.394.383-.697.409-.91s-.043-.457-.206-.732c-.191-.319-.441-.619-.75-.903-.196-.183-.25-.346-.161-.488.097-.154.24-.167.429-.039h0zm21.451 16.52c.034.033.102.109.204.228l.348.357.704.75 2.715 2.738 2.977 2.813c.043.033.079.064.108.092.14.138.134.29-.017.455a9.93 9.93 0 0 0-.519.659l-.799.996c-.348.38-.619.483-.814.309-.095-.084-.04-.239.166-.464.453-.494.606-1.026.459-1.595s-.612-1.241-1.395-2.016l-.885-.875-.548-.428c-.32-.164-.675-.033-1.065.392l-.289.301-1.493 1.629c-.426.465-.664.793-.714.983s.052.409.303.658l.225.208.326.308.617.61c.479.474 1.098.569 1.856.284l.503-.201c.125-.047.239-.024.344.069s.099.217-.029.357a9.99 9.99 0 0 1-.32.312l-.314.318a29.43 29.43 0 0 0-.968 1.186l-.879 1.046-.343.389c-.064.07-.115.11-.152.121-.047.011-.101-.01-.164-.062-.13-.109-.118-.279.036-.507.327-.487.477-.953.452-1.398-.016-.244-.098-.473-.247-.687s-.472-.567-.97-1.059l-.493-.487c-.232-.229-.423-.35-.574-.361s-.342.079-.572.27c-.258.221-.634.602-1.129 1.142l-.618.675c-.646.705-1.057 1.265-1.235 1.68-.124.306-.167.554-.129.744s.173.399.404.629c1.961 1.94 3.81 2.59 5.547 1.95.089-.027.147-.031.176-.012.057.038.087.098.088.181a.31.31 0 0 1-.087.223 3.75 3.75 0 0 1-1.696 1.053c-.572.182-1.094.2-1.567.054s-.972-.48-1.498-1c-.309-.305-.633-.664-.973-1.075l-.765-.912c-.282-.335-.685-.762-1.211-1.282l-1.67-1.52-.448-.399c-.116-.114-.128-.232-.036-.352.078-.095.193-.111.346-.046.376.162.67.231.881.207s.49-.166.837-.424c.296-.213.653-.546 1.07-1.002l5.452-5.951c.513-.56.774-1.027.781-1.402s-.229-.875-.71-1.504c-.111-.149-.108-.288.009-.416.108-.118.242-.098.401.059h0zm46.277 73.143c.043.116-.016.205-.176.269-.147.058-.276-.003-.387-.182a1.52 1.52 0 0 0-.899-.7c-.391-.117-1.146-.206-2.265-.267l-3.77-.165-4.149-.259-2.18-.138-1.419-.117c-.327-.013-.525-.111-.592-.293-.046-.124-.007-.252.116-.383l.395-.412.482-.468 4.186-4.287 2.803-2.718c.983-.899 1.611-1.552 1.883-1.958a1.84 1.84 0 0 0 .298-1.341c-.044-.278.014-.448.174-.511.173-.068.293-.012.359.168.019.051.049.15.089.297a11.49 11.49 0 0 0 .372 1.17l.556 1.639.418.997.345.826c.067.18.014.304-.159.373-.147.058-.297-.039-.449-.292-.259-.449-.617-.583-1.072-.403-.562.222-1.541 1.016-2.939 2.382l-4.318 4.192c-.189.186-.271.32-.249.401.02.074.137.117.349.13l5.503.336c1.805.112 3.049.034 3.731-.235.388-.153.653-.419.797-.797s.156-.843.037-1.395c-.058-.236-.013-.383.134-.441s.251-.007.31.154l.181.549.318 1.037.323.991c.217.586.444 1.08.681 1.481.088.157.148.281.182.371h0zm3.761 14.883c.057.22.008.352-.148.395-.117.032-.199.037-.247.015s-.099-.098-.153-.227c-.203-.46-.413-.734-.63-.821s-.604-.053-1.161.102l-8.265 2.294-.95.35c-.478.218-.809.52-.993.905s-.211.828-.081 1.33c.085.328.03.519-.165.573-.189.052-.34-.139-.453-.573a8.96 8.96 0 0 1-.157-.816l-.404-2.155c-.174-.668-.346-1.186-.516-1.554-.15-.316-.244-.548-.283-.695s.007-.26.136-.338l.074-.042.304.228c.293.436.582.699.865.789s.706.057 1.268-.099l.865-.229 7.721-2.143c.594-.165.989-.389 1.186-.673s.262-.722.198-1.313c-.036-.356-.041-.589-.017-.7s.096-.183.215-.216c.185-.052.296.004.331.166.025.122.045.31.061.563.01.255.088.666.236 1.234l.429 1.374.247.715.488 1.562h0zm3.816 17.887c.207 1.273.123 2.429-.251 3.466l-.267.739c-.057.15-.077.279-.059.388.022.136.091.229.206.279l.338.162c.058.025.094.082.108.171.034.212-.163.355-.591.429l-.72.136-.9.156-.738.214-.43.171c-.211.08-.402.134-.574.164-.251.043-.391-.03-.423-.222-.018-.109.05-.195.202-.256.242-.098.596-.354 1.061-.768s.826-.794 1.081-1.14c1.047-1.402 1.453-2.829 1.217-4.282a3.81 3.81 0 0 0-2.049-2.874c-1.156-.627-2.553-.799-4.188-.515-2.137.37-3.735 1.324-4.794 2.861-.789 1.154-1.088 2.314-.899 3.481.112.689.39 1.391.835 2.107s.939 1.254 1.485 1.615l.809.544c.12.075.191.156.212.241.027.126-.035.202-.187.228-.271.047-.747-.147-1.429-.582-1.775-1.141-2.83-2.747-3.167-4.816-.326-2.001.031-3.734 1.069-5.199s2.552-2.369 4.54-2.714c1.09-.189 2.195-.139 3.314.15s2.071.768 2.852 1.437c1.279 1.101 2.058 2.51 2.337 4.225h0zm2.115 21.098c.016.227-.057.347-.218.359-.121.009-.202-.002-.245-.034s-.079-.116-.109-.252c-.115-.492-.272-.801-.469-.929s-.584-.17-1.159-.126l-8.536.644-.997.159c-.509.122-.889.353-1.141.695s-.359.772-.322 1.29c.024.339-.065.516-.267.531-.195.015-.308-.202-.34-.651-.014-.193-.015-.47-.005-.832l-.004-2.195c-.049-.69-.123-1.232-.223-1.627-.09-.34-.14-.586-.151-.738s.054-.254.195-.306l.081-.027.257.283c.209.485.444.799.705.943s.683.194 1.263.15l.891-.057 7.974-.601c.614-.046 1.043-.19 1.287-.43s.389-.658.435-1.251c.03-.356.067-.586.111-.69s.128-.161.251-.17c.191-.014.29.061.295.227a4.47 4.47 0 0 1-.043.565c-.037.252-.035.671.007 1.258l.17 1.432.112.751.194 1.628h0zm.569 14.692a5.29 5.29 0 0 1-.375 1.905l-.285.693c-.122.31-.184.531-.185.662a.73.73 0 0 0 .068.302l.188.396a.38.38 0 0 1 .039.167c-.001.145-.113.217-.335.215l-.816-.029a2.91 2.91 0 0 0-.363.018l-.989.123-.918.094c-.081.013-.148.019-.202.018-.289-.003-.433-.091-.431-.264.001-.125.129-.214.383-.267.937-.192 1.749-.689 2.437-1.492s1.036-1.657 1.044-2.564c.006-.623-.193-1.168-.594-1.635s-.879-.704-1.431-.709c-.512-.005-.956.195-1.332.601-.243.261-.642 1.078-1.196 2.451-.665 1.635-1.311 2.717-1.939 3.244-.756.623-1.664.93-2.723.92-1.166-.011-2.178-.457-3.034-1.337s-1.28-1.906-1.27-3.076c.005-.478.169-1.235.493-2.27l.311-1.067c.063-.318.123-.503.181-.554s.23-.093.518-.125c.315-.032.771-.131 1.368-.299.912-.255 1.496-.381 1.75-.378.321.004.481.112.479.327-.001.097-.082.166-.242.206-1.149.329-2.118.91-2.905 1.743s-1.185 1.7-1.193 2.603c-.006.701.246 1.33.758 1.887s1.1.838 1.766.845c.526.005.96-.135 1.303-.419s.667-.78.973-1.485l.696-1.575c.657-1.486 1.274-2.493 1.852-3.022s1.343-.789 2.295-.78c1.106.011 2.028.391 2.765 1.142s1.101 1.679 1.092 2.786h0zm-.958 19.184c-.062.647-.242 1.268-.539 1.863l-.344.664c-.149.297-.229.512-.242.642a.75.75 0 0 0 .041.307l.153.412c.022.058.029.114.024.17-.014.145-.131.206-.352.183l-.81-.104a3.01 3.01 0 0 0-.363-.016l-.996.031-.923.008c-.082.005-.149.005-.202 0-.288-.03-.423-.131-.407-.303.012-.124.147-.201.405-.231.949-.104 1.802-.524 2.557-1.26s1.176-1.555 1.263-2.456a2.4 2.4 0 0 0-.45-1.683c-.36-.502-.814-.782-1.363-.839-.51-.052-.969.106-1.379.475-.265.237-.733 1.014-1.404 2.33-.804 1.567-1.542 2.584-2.213 3.051-.808.551-1.738.772-2.792.664-1.161-.119-2.129-.657-2.906-1.613s-1.109-2.017-.997-3.182c.046-.475.275-1.214.689-2.215l.402-1.034c.091-.311.166-.489.228-.535s.237-.071.527-.076c.316-.003.779-.059 1.388-.171.931-.169 1.523-.24 1.776-.214.32.033.469.156.449.37-.009.097-.096.157-.259.183-1.173.221-2.188.71-3.045 1.467s-1.328 1.584-1.415 2.482c-.067.698.13 1.348.591 1.95s1.023.937 1.686 1.005c.524.054.968-.045 1.334-.297s.732-.715 1.098-1.388l.83-1.504c.783-1.419 1.486-2.365 2.107-2.838s1.406-.661 2.353-.564c1.101.113 1.986.577 2.655 1.393s.951 1.775.845 2.876h0zm-3.002 20.043c-.04.224-.139.321-.299.291-.119-.023-.195-.055-.229-.096s-.048-.132-.044-.273c.009-.506-.067-.846-.227-1.021s-.523-.316-1.09-.424l-8.417-1.598-1.004-.106c-.522-.015-.947.111-1.274.376s-.536.654-.627 1.165c-.059.334-.189.482-.388.444-.192-.036-.249-.276-.17-.718.034-.19.1-.459.199-.806l.533-2.125c.121-.68.182-1.224.181-1.632-.004-.352.008-.604.035-.753a.27.27 0 0 1 .263-.245l.084-.005.18.341c.084.524.234.889.452 1.096s.613.365 1.186.474l.876.177 7.863 1.493c.605.115 1.055.088 1.351-.081s.537-.535.726-1.098c.116-.337.208-.55.276-.639s.163-.122.284-.099c.189.036.265.135.229.297-.029.121-.088.3-.179.535-.098.235-.198.641-.301 1.219l-.185 1.43-.075.756-.21 1.626h0zm-7.035 27.56c-.068.232-.192.32-.372.264-.148-.046-.203-.16-.163-.343.136-.635.061-1.132-.226-1.491s-.858-.672-1.712-.938l-.658-.194-6.058-1.629-.398-.113c-.886-.276-1.589-.32-2.11-.132s-.926.636-1.217 1.345c-.08.177-.202.24-.367.189-.177-.055-.2-.307-.069-.757a5.97 5.97 0 0 1 .24-.617l.643-1.67a13.19 13.19 0 0 0 .408-1.765l.162-.922a.22.22 0 0 1 .319-.171c.125.039.185.162.182.369-.007.407.079.722.259.946s.49.405.932.543l.455.131 6.468 1.702c.175.047.274.031.298-.049.029-.1-.107-.291-.41-.574l-6.58-6.139-.248-.228c-.342-.315-.498-.535-.468-.662.036-.147.46-.28 1.271-.401l1.148-.193 7.795-1.038.165-.024c.053-.013.087-.045.102-.098.031-.106-.085-.199-.349-.281l-.305-.105-4.825-1.636-.382-.129-.931-.192c-.998-.108-1.727.231-2.188 1.019-.159.275-.314.389-.465.343-.171-.053-.222-.196-.154-.429a5.34 5.34 0 0 1 .233-.623l.3-.679c.077-.172.165-.427.264-.766.177-.605.287-1.086.332-1.442.026-.231.056-.403.089-.516.06-.206.176-.283.346-.229.118.037.18.143.187.318.018.562.205 1.026.563 1.394s.914.669 1.671.904l6.238 2.229.635.23c.769.239 1.43.234 1.982-.017s.926-.713 1.124-1.388c.073-.251.2-.349.381-.293.187.058.239.23.156.515l-.076.225-.208.564-.129.404a7.29 7.29 0 0 0-.208.932l-.176.899c-.128.437-.421.685-.879.745l-9.813 1.39c-.431.061-.66.152-.689.273s.067.284.287.489l6.628 6.143c.628.578 1.013.973 1.154 1.183a.78.78 0 0 1 .105.683c-.027.093-.079.235-.157.428a6.03 6.03 0 0 0-.204.587 9.33 9.33 0 0 0-.224 1.025l-.104.466h0z"/><g class="B C E"><path d="M165.228 375.879l-.172 16.54c-.254.508 5.918 4.848 8.959-.861l-3.446-15.851-.861-3.79-4.48.172v3.79z"/><path d="M155.235 366.748l1.206 3.274c1.862 2.068 4.63 4.135 8.787 6.203 1.149-1.263 2.986-1.378 5.513-.345 4.384-2.916 6.528-6.863 8.442-11.716l.345-3.446-24.293 6.03z"/></g><circle r="3.365" cy="351.886" cx="137.87" class="B"/><g transform="matrix(.512881 -.85846 .85846 .512881 -239.30257 295.63789)" class="B E"><path d="M150.578 300.356a3.6 3.6 0 0 0-2.997-1.588l-23.983-.001a3.6 3.6 0 0 0-3.61 3.611v16.397c0 2.001 1.612 3.609 3.612 3.609l23.982-.001a3.6 3.6 0 0 0 3.611-3.609V302.38c0-.75-.226-1.447-.615-2.024zm-5.533 4.796a1.46 1.46 0 0 1 .242.816v9.216c0 .814-.632 1.446-1.445 1.446l-16.5.002a1.43 1.43 0 0 1-1.448-1.449l.001-9.217c0-.814.632-1.444 1.446-1.444h16.501a1.43 1.43 0 0 1 1.203.631z"/><path d="M138.855 307.533c-.116-.174-.631-14.184-3.265-14.184s-3.149 14.01-3.265 14.184c0 1.858 1.506 3.365 3.265 3.365s3.265-1.506 3.265-3.365z"/></g><g class="C E B"><path d="M195.42 323.61c-8.983 5.586-18.377 9.531-27.84 11.787-7.342 10.313-12.265 23.324-13 33.2 8.242-.449 16.418-1.832 24.43-4.092 3.478-16.874 10.297-32.697 16.41-40.895z"/><path d="M193.305 322.563c-6.446 8.645-13.195 24.112-16.744 41.328-.643 3.38 4.467 3.645 4.898 1.008 3.408-16.533 10.073-31.594 15.854-39.347 1.447-1.862-.866-5.875-4.008-2.988zm-27.873 11.832c-7.569 10.633-12.56 23.373-13.344 33.906.066 3.323 4.629 2.767 5.025-.131.813-9.136 5.407-21.063 12.393-30.877 2.966-4.925-2.304-5.843-4.074-2.898z"/></g><circle cx="171.627" cy="349.711" r="3.365" class="B"/><circle r="3.365" cy="331.906" cx="210.284" class="B"/><circle cx="234.369" cy="309.795" r="3.365" class="B"/><path fill="none" d="M159.962 372.934c3.314-1.297 9.416-2.667 15.224-1.269" class="B"/></g><defs ><path id="B" d="M89.807 179.358l-6.569 21.86s-2.734 2.193-4.2 2.477c-2.69.521-4.648-1.022-7.322-.431-2.717.601-8.184 4.2-8.184 4.2s1.161-7.328.108-10.768c-.307-1.002-1.292-3.338-1.292-3.338s1.981-2.82 4.307-3.984c2.153-1.077 5.197-1.471 7.43-2.369 2.525-1.016 4.031-3.54 6.569-4.523 1.774-.687 3.932.578 5.707-.108 1.424-.55 3.446-3.015 3.446-3.015z"/><path id="C" d="M80.912 266.658c-.086-4.6-1.941-8.348-10.373-13.544-1.617-4.341-.883-3.979-.83-4.979 44.49 3.922 95.505 2.009 145.641-7.884l-.83 2.905c-1.641 5.744-11.639 9.189-10.917 23.503H80.912z"/></defs></svg>