<?xml version="1.0" encoding="UTF-8" standalone="no"?>
<!-- Created with Inkscape (http://www.inkscape.org/) -->
<svg
   xmlns:dc="http://purl.org/dc/elements/1.1/"
   xmlns:cc="http://web.resource.org/cc/"
   xmlns:rdf="http://www.w3.org/1999/02/22-rdf-syntax-ns#"
   xmlns:svg="http://www.w3.org/2000/svg"
   xmlns="http://www.w3.org/2000/svg"
   xmlns:sodipodi="http://sodipodi.sourceforge.net/DTD/sodipodi-0.dtd"
   xmlns:inkscape="http://www.inkscape.org/namespaces/inkscape"
   id="svg1923"
   sodipodi:version="0.32"
   inkscape:version="0.44"
   width="172"
   height="160"
   version="1.0"
   sodipodi:docbase="D:\tmp"
   sodipodi:docname="Sasa Rindo.svg">
  <metadata
     id="metadata1928">
    <rdf:RDF>
      <cc:Work
         rdf:about="">
        <dc:format>image/svg+xml</dc:format>
        <dc:type
           rdf:resource="http://purl.org/dc/dcmitype/StillImage" />
      </cc:Work>
    </rdf:RDF>
  </metadata>
  <defs
     id="defs1926" />
  <sodipodi:namedview
     inkscape:window-height="712"
     inkscape:window-width="1024"
     inkscape:pageshadow="2"
     inkscape:pageopacity="0.0"
     guidetolerance="10.0"
     gridtolerance="10.0"
     objecttolerance="10.0"
     borderopacity="1.0"
     bordercolor="#666666"
     pagecolor="#ffffff"
     id="base"
     width="172px"
     height="160px"
     inkscape:zoom="2.58"
     inkscape:cx="100"
     inkscape:cy="68.992248"
     inkscape:window-x="-4"
     inkscape:window-y="-4"
     inkscape:current-layer="g1997" />
  <g
     id="g1997"
     transform="translate(-43.52731,-3.902448)">
    <path
       style="fill:#021f70"
       d="M 124.01376,151.15245 C 115.36573,127.68255 112.85389,114.6397 113.37414,95.905908 C 113.70536,83.978888 114.03886,81.818898 116.23085,77.403898 C 118.59697,72.638158 123.89497,67.902448 126.86044,67.902448 C 127.97721,67.902448 128.21256,75.996128 128.21256,114.40245 C 128.21256,139.97745 128.07617,160.90245 127.90946,160.90245 C 127.74276,160.90245 125.98969,156.51495 124.01376,151.15245 z M 130.21256,114.40245 C 130.21256,83.104418 130.54998,67.902448 131.24468,67.902448 C 133.91575,67.902448 139.12681,70.973278 141.05796,73.685328 C 147.32772,82.490398 147.92965,106.56514 142.41562,127.98645 C 139.82399,138.0546 131.605,160.90245 130.57484,160.90245 C 130.37559,160.90245 130.21256,139.97745 130.21256,114.40245 z M 175.68216,131.06965 C 164.45245,125.10757 155.77321,119.21171 151.21256,114.4473 L 147.71256,110.79092 L 147.64454,99.096688 C 147.60712,92.664858 147.24943,85.827448 146.84967,83.902448 L 146.12282,80.402448 L 148.72146,83.402448 C 158.74841,94.978098 187.11834,136.03155 184.98824,135.88326 C 184.83662,135.8727 180.64888,133.70658 175.68216,131.06965 z M 76.792492,130.7417 C 87.033457,114.39038 111.80979,80.104578 112.68494,81.073278 C 112.84849,81.254328 112.54994,84.327448 112.02149,87.902448 C 111.49304,91.477448 111.29306,98.045748 111.57708,102.49868 L 112.0935,110.5949 L 107.40303,115.15222 C 100.68084,121.68357 84.040813,131.9919 76.393671,134.36219 L 74.074785,135.08095 L 76.792492,130.7417 z M 73.879909,129.90245 C 76.917074,111.43813 82.693663,95.304288 90.383921,83.807228 C 101.18512,67.659268 109.34102,62.867038 120.6694,66.012138 L 124.62625,67.110678 L 122.1694,68.405798 C 116.92499,71.170378 95.004168,100.21743 74.508379,131.56094 C 73.484823,133.12623 73.390555,132.87746 73.879909,129.90245 z M 174.51376,116.15245 C 168.38704,106.93995 159.40038,94.497998 154.54341,88.503678 C 149.68644,82.509358 144.6826,76.079628 143.42377,74.215398 C 142.16493,72.351158 139.73968,69.977338 138.03433,68.940248 L 134.93367,67.054638 L 139.28699,65.882408 C 141.68132,65.237678 145.15321,64.955688 147.00231,65.255758 C 162.42626,67.758718 178.50063,93.648098 184.64173,125.87783 C 185.37789,129.74137 185.90664,132.90245 185.81673,132.90245 C 185.72682,132.90245 180.64048,125.36495 174.51376,116.15245 z M 187.71256,94.296378 C 186.06256,94.071148 182.80314,93.638268 180.46941,93.334418 C 176.69421,92.842888 175.92336,92.264748 173.47976,88.092198 C 171.96918,85.512838 168.58652,80.600288 165.96272,77.175408 L 161.19218,70.948378 L 164.45237,71.569488 C 175.3559,73.646768 197.58407,82.730818 208.57575,89.601528 L 213.43893,92.641418 L 209.07575,93.240888 C 202.15793,94.191348 190.9866,94.743288 187.71256,94.296378 z M 48.712558,93.057978 C 45.777005,92.362898 45.885308,92.250008 53.754071,87.802938 C 67.934833,79.788618 80.518662,74.878328 95.712558,71.430498 L 98.712558,70.749738 L 96.071578,73.576088 C 93.810798,75.995558 87.292676,85.392568 83.605867,91.547588 C 82.614602,93.202468 80.893669,93.414628 67.105867,93.581738 C 58.639547,93.684358 50.362558,93.448658 48.712558,93.057978 z M 210.71256,89.287228 C 203.28838,83.527518 174.80407,71.910278 164.21256,70.322338 C 161.73756,69.951278 158.19053,68.731508 156.33028,67.611748 C 154.47002,66.491988 151.33676,65.021908 149.36748,64.344898 L 145.78696,63.113968 L 149.74976,62.013788 C 155.54015,60.406208 170.48443,60.660238 177.56822,62.486638 C 180.9476,63.357948 186.41256,65.490848 189.71256,67.226428 C 195.9713,70.518088 208.31972,82.133068 211.5191,87.737758 C 213.56567,91.322958 213.49977,91.449568 210.71256,89.287228 z M 49.400422,85.272898 C 54.222216,78.533228 64.242365,69.702028 70.599454,66.589268 C 78.563709,62.689558 87.548479,60.632828 96.712558,60.611658 C 104.67857,60.593248 115.79049,62.837318 111.71256,63.640938 C 110.61256,63.857708 107.01256,65.311628 103.71256,66.871888 C 100.41256,68.432138 94.320618,70.443148 90.174911,71.340798 C 81.07338,73.311518 64.401183,80.008148 54.373025,85.721148 C 50.336282,88.020858 46.820821,89.902448 46.56089,89.902448 C 46.300958,89.902448 47.578748,87.819148 49.400422,85.272898 z M 125.03837,66.227718 C 124.11756,65.984228 121.54103,63.370268 119.31275,60.418928 L 115.26133,55.052859 L 117.96214,54.152587 C 120.37359,53.348772 121.02438,53.68491 124.03627,57.289908 L 127.40958,61.327488 L 126.70834,55.714963 C 126.07946,50.681624 126.20955,50.038178 127.96895,49.479767 C 130.73957,48.600406 133.35516,49.833263 132.82968,51.770874 C 132.58631,52.66824 132.10617,55.202449 131.76269,57.402448 L 131.13819,61.402448 L 134.70618,57.215208 C 138.02147,53.324519 138.48213,53.100462 141.21054,54.05159 L 144.14691,55.075214 L 140.13975,60.382658 C 135.48615,66.546308 131.73443,67.998428 125.03837,66.227718 z M 80.212558,59.054268 C 80.212558,56.658957 83.328471,54.625963 85.640116,55.513024 C 87.501469,56.227292 87.770159,59.896358 85.962558,59.916108 C 85.275058,59.923618 83.700058,60.201098 82.462558,60.532738 C 80.65675,61.016668 80.212558,60.724798 80.212558,59.054268 z M 173.96256,60.213128 C 171.80232,59.648598 171.65336,56.331011 173.75209,55.525652 C 175.83136,54.727763 179.21256,56.967675 179.21256,59.142998 C 179.21256,60.874808 177.6856,61.186058 173.96256,60.213128 z M 188.32049,59.257578 C 185.35485,58.494808 181.27276,56.94019 179.24918,55.802872 C 175.94614,53.946464 174.9705,53.845834 169.70759,54.818735 C 166.4833,55.414778 162.09756,55.902449 159.96151,55.902449 C 156.40749,55.902449 156.13312,55.711436 156.72956,53.652449 C 157.08803,52.414949 158.24518,50.180698 159.301,48.687448 L 161.22068,45.972446 L 158.26934,41.687448 C 154.03826,35.544431 153.94005,33.477476 157.86114,33.096654 C 159.59286,32.928467 162.63036,33.468005 164.61114,34.295628 C 167.82325,35.637734 168.21256,35.636715 168.21256,34.286205 C 168.21256,33.4534 170.74818,30.236393 173.84727,27.1373 L 179.48199,21.502586 L 181.84939,24.452517 C 183.15146,26.07498 184.95197,29.314949 185.85053,31.652449 C 186.94178,34.491201 188.08694,35.902449 189.2992,35.902449 C 192.09647,35.902449 200.53582,37.857451 202.201,38.891193 C 203.4326,39.655764 203.09991,40.423455 200.27309,43.339995 C 198.3941,45.278624 195.32695,47.369652 193.4572,47.986724 L 190.05767,49.108672 L 192.20228,51.391505 C 193.73714,53.025293 194.25671,54.665192 194.02972,57.159388 L 193.71256,60.644438 L 188.32049,59.257578 z M 186.13409,52.152449 C 185.40624,51.189949 184.11364,49.800854 183.26164,49.065572 C 181.88364,47.876343 181.97745,47.545015 184.11098,46.065572 C 185.43011,45.150854 187.90511,43.874184 189.61098,43.228527 C 192.6556,42.076163 192.66462,42.053208 190.10211,41.978527 C 188.66636,41.936684 185.83387,43.027449 183.8077,44.402449 C 178.0504,48.309459 177.03806,47.851562 177.72789,41.652449 C 178.04921,38.764949 178.5351,34.939949 178.80765,33.152449 C 179.08019,31.364949 178.87963,29.902449 178.36195,29.902449 C 177.84428,29.902449 177.10597,33.458194 176.72127,37.804104 C 176.05639,45.315106 175.89172,45.730626 173.39059,46.208748 C 171.45444,46.578866 169.88548,45.944443 167.45117,43.807093 C 165.63166,42.209539 163.6061,40.902449 162.94992,40.902449 C 162.29374,40.902449 163.4437,42.292873 165.50537,43.99228 L 169.25387,47.082111 L 166.73322,49.06486 C 165.34686,50.155372 164.21256,51.50495 164.21256,52.063923 C 164.21256,52.622895 165.59709,51.915234 167.28929,50.491343 C 172.11319,46.432292 182.72511,47.583838 184.55999,52.365464 C 184.88438,53.210806 185.66901,53.902449 186.30362,53.902449 C 187.11081,53.902449 187.05988,53.376703 186.13409,52.152449 z M 64.731264,56.652449 C 65.103953,54.864949 66.039708,52.405781 66.810719,51.187632 C 68.659598,48.26652 68.64995,48.240821 65.462558,47.596832 C 62.795355,47.057944 56.212558,41.525334 56.212558,39.822532 C 56.212558,38.739372 65.722822,35.902449 69.353918,35.902449 C 71.724808,35.902449 72.306483,35.320994 73.320132,31.937735 C 73.973453,29.757143 75.726802,26.51308 77.216463,24.728707 L 79.924936,21.484393 L 85.568747,27.128203 C 88.672843,30.232299 91.212558,33.449676 91.212558,34.277928 C 91.212558,35.601844 91.544912,35.61047 93.962558,34.349307 C 95.475058,33.560312 98.400058,32.911998 100.46256,32.90861 C 105.20877,32.900812 105.36512,34.693481 101.19213,41.273609 L 98.171698,46.03633 L 100.19213,48.87376 C 102.81298,52.554404 102.85718,55.902449 100.28492,55.902449 C 99.224718,55.902449 95.020068,55.438286 90.941257,54.870975 C 83.74279,53.869761 83.337303,53.928409 77.118897,56.870187 C 73.595411,58.537068 69.214303,59.901228 67.383103,59.901658 C 64.154361,59.902428 64.074145,59.804138 64.731264,56.652449 z M 76.058712,50.902449 C 78.611158,48.350003 79.822892,47.902449 84.181089,47.902449 C 88.343956,47.902449 89.783113,48.382095 91.864073,50.463055 C 93.272406,51.871388 94.714448,52.733106 95.068618,52.377984 C 95.422788,52.022861 94.489458,50.67956 92.994561,49.392871 L 90.276563,47.053436 L 93.779358,43.977942 C 95.705888,42.286421 96.725418,40.902449 96.044958,40.902449 C 95.364508,40.902449 93.436349,42.218565 91.760165,43.82715 C 89.469729,46.025216 88.059928,46.623222 86.085731,46.234119 C 83.836279,45.790765 83.369377,45.063221 82.835731,41.169847 C 82.492986,38.669249 82.212558,35.111114 82.212558,33.262878 C 82.212558,31.414642 81.758627,29.902449 81.203822,29.902449 C 80.264015,29.902449 80.605712,37.79127 81.800341,43.674408 C 82.460731,46.926601 79.873061,47.508957 76.244028,44.924858 C 72.849176,42.50751 67.212558,40.597107 67.212558,41.863847 C 67.212558,42.315829 68.384429,42.979754 69.816716,43.339235 C 71.249003,43.698716 73.517462,44.711349 74.857735,45.589529 C 77.260714,47.164022 77.268286,47.215533 75.402343,49.294335 C 70.979527,54.22169 71.489653,55.471508 76.058712,50.902449 z M 109.23452,51.046152 C 109.2466,49.042115 110.15264,45.427316 111.24794,43.013265 L 113.2394,38.624081 L 108.18403,33.278769 C 105.40358,30.338847 102.26728,26.01398 101.21448,23.667953 L 99.300298,19.402449 L 105.39021,19.101259 C 108.73966,18.935605 112.73359,19.237033 114.26561,19.771099 C 116.86566,20.677479 117.30615,20.403363 120.88184,15.653912 C 122.98873,12.855393 125.95207,9.652101 127.46703,8.535486 L 130.22149,6.505277 L 134.11542,10.307593 C 136.25708,12.398867 138.83636,15.645587 139.84716,17.522526 C 141.1337,19.911481 142.13906,20.732299 143.19877,20.258914 C 146.09813,18.963733 159.21256,18.6086 159.21256,19.825268 C 159.21256,22.728775 155.86626,28.388332 151.28613,33.231146 L 146.26649,38.538678 L 148.23952,43.73129 C 149.32469,46.587227 150.21256,50.257825 150.21256,51.888176 C 150.21256,54.680144 150.02365,54.820052 146.96256,54.295109 C 145.17506,53.988572 140.5524,52.225821 136.68999,50.377884 L 129.66741,47.017999 L 123.68999,49.93638 C 120.4024,51.541489 115.80006,53.267657 113.46256,53.772308 L 109.21256,54.689854 L 109.23452,51.046152 z M 118.59151,43.357296 C 119.38193,41.297508 125.30867,38.902449 129.61534,38.902449 C 134.01847,38.902449 137.55731,40.247195 140.25596,42.945849 C 141.42376,44.113646 142.60423,44.844116 142.87923,44.569116 C 143.47772,43.970622 140.1717,40.538591 137.62241,39.111939 C 135.91527,38.156574 135.96701,37.864282 138.48686,34.228127 C 139.96101,32.100931 142.62157,29.501342 144.39921,28.451262 C 146.17686,27.401182 147.1004,26.365061 146.45152,26.14877 C 144.63268,25.542491 138.74766,30.493646 136.64392,34.40004 C 135.33934,36.82251 134.05702,37.902449 132.48516,37.902449 C 130.2821,37.902449 130.20663,37.588797 130.01889,27.652449 L 129.82523,17.402449 L 129.26889,27.402449 C 128.7663,36.436537 128.51938,37.426718 126.71256,37.653707 C 125.31959,37.828705 123.98283,36.712988 122.3083,33.977713 C 119.68866,29.698668 114.76698,25.550974 113.00572,26.138063 C 112.39671,26.341065 113.31634,27.404909 115.04933,28.502161 C 117.94819,30.337589 123.21256,36.421498 123.21256,37.936214 C 123.21256,38.291077 122.11533,39.081352 120.77426,39.692381 C 118.28317,40.8274 115.38618,44.902449 117.07039,44.902449 C 117.58089,44.902449 118.2654,44.20713 118.59151,43.357296 z "
       id="path1999" />
  </g>
</svg>
