<?xml version="1.0" encoding="UTF-8" standalone="no"?>
<!-- Created with Sodipodi ("http://www.sodipodi.com/") -->
<!--



-->
<svg
   xmlns:dc="http://purl.org/dc/elements/1.1/"
   xmlns:cc="http://creativecommons.org/ns#"
   xmlns:rdf="http://www.w3.org/1999/02/22-rdf-syntax-ns#"
   xmlns:svg="http://www.w3.org/2000/svg"
   xmlns="http://www.w3.org/2000/svg"
   xmlns:sodipodi="http://sodipodi.sourceforge.net/DTD/sodipodi-0.dtd"
   xmlns:inkscape="http://www.inkscape.org/namespaces/inkscape"
   height="500"
   id="svg678"
   sodipodi:docbase="D:\Kuvat\Wikipedia"
   sodipodi:docname="Flag of Eritrea 1952.svg"
   sodipodi:version="0.32"
   width="750"
   inkscape:version="0.46"
   version="1.0"
   inkscape:output_extension="org.inkscape.output.svg.inkscape">
  <metadata
     id="metadata1778">
    <rdf:RDF>
      <cc:Work
         rdf:about="">
        <dc:title> eritrea</dc:title>
        <dc:description />
        <dc:subject>
          <rdf:Bag>
            <rdf:li />
            <rdf:li>united_nations_member</rdf:li>
            <rdf:li>flag</rdf:li>
            <rdf:li>africa</rdf:li>
            <rdf:li>sign</rdf:li>
          </rdf:Bag>
        </dc:subject>
        <dc:publisher>
          <cc:Agent
             rdf:about="http://www.openclipart.org">
            <dc:title> Andrew Duhan</dc:title>
          </cc:Agent>
        </dc:publisher>
        <dc:creator>
          <cc:Agent>
            <dc:title>Andrew Duhan</dc:title>
          </cc:Agent>
        </dc:creator>
        <dc:rights>
          <cc:Agent>
            <dc:title> Andrew Duhan</dc:title>
          </cc:Agent>
        </dc:rights>
        <dc:date />
        <dc:format>image/svg+xml</dc:format>
        <dc:type
           rdf:resource="http://purl.org/dc/dcmitype/StillImage" />
        <cc:license
           rdf:resource="http://web.resource.org/cc/PublicDomain" />
        <dc:language>en</dc:language>
      </cc:Work>
      <cc:License
         rdf:about="http://web.resource.org/cc/PublicDomain">
        <cc:permits
           rdf:resource="http://web.resource.org/cc/Reproduction" />
        <cc:permits
           rdf:resource="http://web.resource.org/cc/Distribution" />
        <cc:permits
           rdf:resource="http://web.resource.org/cc/DerivativeWorks" />
      </cc:License>
    </rdf:RDF>
  </metadata>
  <defs
     id="defs680">
    <inkscape:perspective
       sodipodi:type="inkscape:persp3d"
       inkscape:vp_x="0 : 250 : 1"
       inkscape:vp_y="0 : 1000 : 0"
       inkscape:vp_z="1000 : 250 : 1"
       inkscape:persp3d-origin="500 : 166.66667 : 1"
       id="perspective2441" />
    <inkscape:perspective
       id="perspective3242"
       inkscape:persp3d-origin="372.04724 : 350.78739 : 1"
       inkscape:vp_z="744.09448 : 526.18109 : 1"
       inkscape:vp_y="0 : 1000 : 0"
       inkscape:vp_x="0 : 526.18109 : 1"
       sodipodi:type="inkscape:persp3d" />
    <inkscape:perspective
       id="perspective3255"
       inkscape:persp3d-origin="372.04724 : 350.78739 : 1"
       inkscape:vp_z="744.09448 : 526.18109 : 1"
       inkscape:vp_y="0 : 1000 : 0"
       inkscape:vp_x="0 : 526.18109 : 1"
       sodipodi:type="inkscape:persp3d" />
    <inkscape:perspective
       id="perspective3268"
       inkscape:persp3d-origin="372.04724 : 350.78739 : 1"
       inkscape:vp_z="744.09448 : 526.18109 : 1"
       inkscape:vp_y="0 : 1000 : 0"
       inkscape:vp_x="0 : 526.18109 : 1"
       sodipodi:type="inkscape:persp3d" />
  </defs>
  <sodipodi:namedview
     id="base"
     inkscape:zoom="0.69013622"
     inkscape:cx="472.04375"
     inkscape:cy="241.16671"
     inkscape:window-width="1024"
     inkscape:window-height="712"
     inkscape:window-x="-4"
     inkscape:window-y="-4"
     inkscape:current-layer="svg678"
     showgrid="false" />
  <rect
     style="fill:#b4d7f4;fill-opacity:1;stroke:none;stroke-width:3;stroke-miterlimit:4;stroke-dasharray:none;stroke-opacity:1"
     id="rect2463"
     width="750"
     height="500"
     x="0"
     y="0" />
  <path
     d="M 359.74735,385.95018 C 347.65111,389.29015 340.7162,398.67479 340.89379,407.52898 L 400.43475,407.28995 C 400.96977,397.77551 393.14238,388.97595 381.226,385.51076 C 439.52157,384.30639 490.16508,362.4703 499.3676,348.45933 C 490.2607,344.50693 479.73086,350.8681 472.22448,349.40417 C 490.04669,341.16698 543.44276,306.60627 534.7616,269.55482 C 528.01338,290.13416 507.57065,307.16177 498.86447,311.73344 C 518.81085,281.44616 546.04734,249.91351 522.41719,225.49561 C 523.6102,239.64773 513.42411,255.22283 508.92532,256.39306 C 520.49562,224.39141 531.53547,184.21173 506.46646,157.72428 C 509.75859,167.29791 508.42898,194.30446 503.89601,195.51795 C 502.50039,173.757 498.78705,127.98568 475.86953,128.63683 C 483.14821,135.11639 486.33334,152.80201 486.495,170.6652 C 481.2722,158.4278 475.33676,149.21388 462.64174,140.17757 C 452.37142,120.48161 434.09842,104.16202 415.82313,92.471022 C 417.87446,106.80758 419.5729,118.11836 439.58987,132.98765 C 429.15337,132.33879 418.71912,112.55403 407.56544,112.00535 C 398.69304,111.57732 391.73081,120.04447 377.23263,115.17228 C 378.83771,119.95794 385.60188,122.07759 387.02936,125.61789 C 383.92392,127.76257 376.55189,125.28322 370.42294,122.09125 C 378.85365,133.57506 391.9175,140.32781 403.00744,138.04882 C 416.19651,135.51254 430.33727,136.85353 443.8246,144.52839 C 440.37989,146.29741 426.97226,146.28601 418.36853,145.20912 C 426.18907,153.12757 431.43465,158.37543 445.03353,158.28892 C 457.17987,158.20922 463.54787,151.80936 466.66698,155.77314 C 474.28492,164.80035 479.4121,173.82301 485.78466,184.45079 C 471.70767,186.00579 475.95148,168.52965 460.27394,159.59122 C 451.46529,177.82325 470.40537,199.4362 483.29848,208.42014 C 483.47152,222.12376 485.47504,233.58937 491.2875,244.02361 C 495.20575,251.37971 500.27148,258.90885 498.3613,275.51073 C 490.6432,269.88948 483.10041,250.9312 485.87573,235.88204 C 476.21558,238.51621 472.43848,255.50285 476.99194,264.05425 C 480.39337,270.56341 482.66326,283.02166 478.74047,288.59054 C 474.91785,293.77919 474.51714,293.19863 474.56723,304.3341 C 474.70383,310.99807 470.98139,318.87782 464.91846,324.37156 C 466.18432,319.67695 467.62777,311.59911 466.2253,306.54933 C 461.4328,314.67953 449.40941,323.09203 445.62321,331.83239 C 441.90531,340.59323 440.96274,355.76763 422.96978,359.26695 C 399.82231,363.86139 391.83327,367.87299 376.93893,373.96776 C 375.28602,362.65471 380.23334,339.06327 389.69315,340.40881 C 398.92982,342.05261 426.93355,330.76006 416.91596,307.16862 C 414.93748,314.60442 408.33726,321.86033 401.202,322.18136 C 408.911,312.17969 422.66925,301.82287 415.96885,285.06387 C 412.24412,292.18776 406.38611,300.73688 397.50232,305.54759 C 407.02585,287.29734 398.60881,281.83777 387.3003,296.8687 C 383.02916,302.66752 380.44963,314.28792 377.73577,329.04568 C 373.29388,317.04277 373.58758,301.24231 368.32379,288.41294 C 362.82549,274.53856 375.62069,270.87532 381.64265,271.98863 C 396.38672,275.92511 421.02773,275.92281 419.19723,251.56413 C 412.82924,259.80359 401.66189,262.34898 389.60208,259.38239 C 403.14632,249.49231 413.84011,230.88918 398.74768,221.17666 C 398.24453,231.47657 390.27371,243.02413 379.63228,248.34257 C 377.14155,239.65229 377.14155,230.42927 379.27712,220.31834 C 373.33487,226.57249 368.99543,239.58626 365.54391,254.38043 C 365.28435,239.75701 368.05058,229.22032 370.10191,221.35424 C 373.21192,209.8636 380.9414,217.34037 392.77356,218.18731 C 404.16857,218.83389 419.8575,212.53647 416.85904,197.08434 C 412.96813,203.19736 404.98137,205.57653 396.82157,204.92994 C 406.64565,198.97858 423.76208,188.40318 414.37514,172.13597 C 410.43184,178.29678 409.1546,183.56739 397.74136,185.45711 C 400.73071,178.58137 401.22705,168.85977 410.08579,165.00755 C 394.28303,161.8611 385.23531,172.2316 380.63633,188.47376 C 378.77168,177.21308 376.55189,173.06715 376.11019,164.82997 C 384.65247,155.34283 385.54723,136.78297 367.05338,132.63248 C 365.95599,142.20612 366.28157,144.48741 368.38526,152.28291 C 359.7041,147.12613 347.46898,144.28021 339.32286,151.57257 C 344.84163,157.5285 353.38391,162.77181 366.55022,156.27631 C 363.44021,166.45097 355.351,164.70929 344.23602,160.82974 C 351.02978,173.59078 359.60393,175.85843 369.066,174.38765 C 374.02016,187.44922 374.23873,197.37348 359.76101,216.39554 C 360.43037,204.57477 359.59027,195.76839 350.19877,186.2107 C 342.15054,178.32866 335.60951,186.54765 348.18614,204.0716 C 340.55683,198.45265 331.92122,187.04853 329.32119,175.64668 C 326.80541,189.73279 329.07075,206.33468 336.86854,215.64195 C 333.18024,219.58294 328.9865,215.22301 322.78243,205.58108 C 325.12974,236.43754 338.29376,242.39118 355.98621,235.51322 C 356.48937,252.44976 356.48937,268.13188 357.49568,288.59054 C 347.17983,273.75081 334.10231,262.68137 326.80541,259.91515 C 324.54234,268.21611 333.09601,279.03055 337.87486,285.06843 C 330.58021,283.55895 314.73192,271.48547 314.73192,271.48547 C 313.13821,285.23692 330.91718,297.98204 342.40327,303.68294 C 328.90454,303.09554 322.94863,297.98204 314.22877,289.59683 C 314.39725,327.74795 355.56501,321.12266 363.28083,315.25327 C 364.28715,334.03626 365.72149,355.74939 366.72781,374.53242 C 355.08918,372.50157 356.00442,369.00223 346.04601,368.08016 C 318.40655,367.00327 296.48169,334.90143 289.22121,311.28721 C 287.138,315.17358 288.7909,319.23981 286.88529,324.01411 C 282.39785,312.4233 276.66506,297.45382 268.97656,290.48705 C 270.93453,297.24437 271.14172,304.11097 270.46098,316.73997 C 267.82225,308.55743 265.36794,306.04847 265.19035,296.44296 C 265.35884,289.06866 272.30512,283.62726 271.92037,273.25449 C 271.63577,265.68211 264.72819,249.26918 263.71276,236.56278 C 260.36825,249.64031 258.26911,263.42587 253.14648,271.52192 C 255.69186,257.55647 254.87588,247.91909 259.18207,238.52077 C 264.15672,228.62612 268.38688,219.79241 265.07425,209.80668 C 261.89821,213.66346 262.99104,217.16733 255.01134,226.53836 C 253.27807,216.34772 265.32924,200.03725 277.02478,193.48027 C 285.27337,189.134 295.67117,173.58851 288.89791,162.93344 C 281.14111,168.5046 277.65771,176.03144 266.69983,188.89269 C 274.51583,158.33901 294.82422,150.34543 319.13739,150.24069 C 324.5173,150.21564 335.36363,148.27359 338.40761,141.15427 C 331.55467,143.79983 323.45179,144.13678 316.2414,142.69334 C 321.48925,134.98891 332.54049,135.99066 342.83811,135.94512 C 350.91593,135.90642 363.52673,134.81131 368.62432,123.30701 C 358.77065,127.57587 343.40274,128.4638 333.72666,125.44031 C 349.11504,117.4672 373.21874,116.60888 385.58138,106.14505 C 371.49072,95.628845 336.23105,108.5948 313.96013,123.86937 C 320.18469,118.17756 330.02241,108.08026 335.45013,99.929581 C 323.26966,94.089775 292.46555,128.21564 281.85372,148.49217 C 271.77465,154.18397 267.74257,163.10647 263.82887,169.33332 C 269.19968,151.18552 269.76885,138.01696 274.24945,123.07252 C 239.69922,134.96613 254.06035,198.80328 246.5451,214.07555 C 247.42961,197.2141 246.71335,175.55333 239.77139,164.38372 C 229.12951,172.50253 228.27074,220.28647 238.26192,260.06771 C 234.65399,249.42173 227.8443,239.48382 225.65956,226.52696 C 209.90963,255.25241 234.89237,289.14149 255.78292,315.91123 C 240.05575,307.71959 224.50571,290.09998 214.2914,275.3286 C 217.11068,326.74164 270.80021,337.42403 279.13531,350.05986 C 267.82225,344.7938 246.19426,334.37322 237.01678,345.29239 C 251.95711,348.74165 263.87442,352.72819 273.47764,359.02333 C 287.4112,376.41981 313.79619,384.02861 359.74735,385.95018 z"
     id="path687"
     sodipodi:nodetypes="cccccccccccccccccscccsccsccccsccscsccsscsccccscsscccccccsccccccccccccccccccccccccccccscccccsccsccsccsccscccccccccccccccccc"
     style="fill:#239e46;fill-opacity:1;fill-rule:evenodd;stroke:none;stroke-width:1pt;stroke-linecap:butt;stroke-linejoin:miter;stroke-opacity:1" />
</svg>
