<?xml version="1.0" encoding="UTF-8" standalone="no"?>
<svg
   width="3020"
   height="2020"
   id="svg4328"
   sodipodi:version="0.32"
   inkscape:version="1.1 (c68e22c387, 2021-05-23)"
   version="1.0"
   sodipodi:docname="Zastava Nezavisne Države Hrvatske.svg"
   inkscape:output_extension="org.inkscape.output.svg.inkscape"
   xmlns:inkscape="http://www.inkscape.org/namespaces/inkscape"
   xmlns:sodipodi="http://sodipodi.sourceforge.net/DTD/sodipodi-0.dtd"
   xmlns="http://www.w3.org/2000/svg"
   xmlns:svg="http://www.w3.org/2000/svg"
   xmlns:rdf="http://www.w3.org/1999/02/22-rdf-syntax-ns#"
   xmlns:cc="http://creativecommons.org/ns#"
   xmlns:dc="http://purl.org/dc/elements/1.1/">
  <defs
     id="defs4330">
    <rect
       x="-301.75"
       y="232.076"
       width="85"
       height="46.25"
       id="rect175" />
    <inkscape:perspective
       sodipodi:type="inkscape:persp3d"
       inkscape:vp_x="0 : 546.18109 : 1"
       inkscape:vp_y="0 : 1000 : 0"
       inkscape:vp_z="744.09448 : 546.18109 : 1"
       inkscape:persp3d-origin="372.04724 : 370.78739 : 1"
       id="perspective9066" />
    <inkscape:perspective
       sodipodi:type="inkscape:persp3d"
       inkscape:vp_x="0 : 546.18109 : 1"
       inkscape:vp_y="0 : 1000 : 0"
       inkscape:vp_z="744.09448 : 546.18109 : 1"
       inkscape:persp3d-origin="372.04724 : 370.78739 : 1"
       id="perspective2486" />
    <rect
       x="-301.75"
       y="232.076"
       width="85"
       height="46.25"
       id="rect175-6" />
    <inkscape:perspective
       sodipodi:type="inkscape:persp3d"
       inkscape:vp_x="0 : 546.18109 : 1"
       inkscape:vp_y="0 : 1000 : 0"
       inkscape:vp_z="744.09448 : 546.18109 : 1"
       inkscape:persp3d-origin="372.04724 : 370.78739 : 1"
       id="perspective9066-5" />
    <inkscape:perspective
       sodipodi:type="inkscape:persp3d"
       inkscape:vp_x="0 : 542.1737 : 1"
       inkscape:vp_y="0 : 1000 : 0"
       inkscape:vp_z="744.09448 : 542.1737 : 1"
       inkscape:persp3d-origin="372.04724 : 366.78 : 1"
       id="perspective2486-4" />
    <rect
       x="-301.75"
       y="232.076"
       width="85"
       height="46.25"
       id="rect175-4" />
    <inkscape:perspective
       sodipodi:type="inkscape:persp3d"
       inkscape:vp_x="0 : 542.1737 : 1"
       inkscape:vp_y="0 : 1000 : 0"
       inkscape:vp_z="744.09448 : 542.1737 : 1"
       inkscape:persp3d-origin="372.04724 : 366.78 : 1"
       id="perspective9066-0" />
    <inkscape:perspective
       sodipodi:type="inkscape:persp3d"
       inkscape:vp_x="0 : 558.1737 : 1"
       inkscape:vp_y="0 : 1000 : 0"
       inkscape:vp_z="744.09448 : 558.1737 : 1"
       inkscape:persp3d-origin="372.04724 : 382.78 : 1"
       id="perspective2486-2" />
    <rect
       x="-301.75"
       y="232.076"
       width="85"
       height="46.25"
       id="rect175-9" />
    <inkscape:perspective
       sodipodi:type="inkscape:persp3d"
       inkscape:vp_x="0 : 558.1737 : 1"
       inkscape:vp_y="0 : 1000 : 0"
       inkscape:vp_z="744.09448 : 558.1737 : 1"
       inkscape:persp3d-origin="372.04724 : 382.78 : 1"
       id="perspective9066-7" />
  </defs>
  <sodipodi:namedview
     id="base"
     pagecolor="#ffffff"
     bordercolor="#666666"
     borderopacity="1.0"
     gridtolerance="10000"
     guidetolerance="10"
     objecttolerance="10"
     inkscape:pageopacity="0.0"
     inkscape:pageshadow="2"
     inkscape:zoom="0.25"
     inkscape:cx="1678"
     inkscape:cy="1102"
     inkscape:document-units="px"
     inkscape:current-layer="layer1"
     showgrid="false"
     inkscape:window-width="1920"
     inkscape:window-height="1017"
     inkscape:window-x="-8"
     inkscape:window-y="-8"
     inkscape:window-maximized="1"
     inkscape:document-rotation="0"
     inkscape:pagecheckerboard="0" />
  <metadata
     id="metadata4333">
    <rdf:RDF>
      <cc:Work
         rdf:about="">
        <dc:format>image/svg+xml</dc:format>
        <dc:type
           rdf:resource="http://purl.org/dc/dcmitype/StillImage" />
        <dc:title />
      </cc:Work>
    </rdf:RDF>
  </metadata>
  <g
     inkscape:label="Layer 1"
     inkscape:groupmode="layer"
     id="layer1"
     transform="translate(1774.29,953.352)">
    <g
       id="g142">
      <rect
         style="fill:#ffffff"
         id="rect4081"
         y="-942.03839"
         x="-1763.7"
         height="2000"
         width="3000" />
      <rect
         style="fill:#dd0000;fill-opacity:1"
         id="rect4083"
         y="-942.03839"
         x="-1763.7"
         height="666.66602"
         width="3000" />
      <rect
         style="fill:#011171;fill-opacity:1"
         id="rect4085"
         y="391.29462"
         x="-1763.7"
         height="666.66602"
         width="3000" />
      <path
         inkscape:connector-curvature="0"
         style="fill:#ffffff;fill-opacity:1;fill-rule:nonzero;stroke:none;stroke-width:24.6766;stroke-linecap:round;stroke-linejoin:round;stroke-miterlimit:4;stroke-dasharray:none;stroke-opacity:1"
         d="m -1415.341,-888.466 c 1.8705,19.61167 -2.8181,29.45334 0,0 10.3971,17.88851 37.6973,70.18229 55.5891,93.84484 6.9634,9.2094 14.5496,17.29767 22.5867,23.88502 15.5112,-43.9997 54.8709,-66.67873 90.1382,-64.05791 15.083,1.12085 29.6229,6.95976 40.5309,17.79542 36.4422,36.20004 16.6611,107.53441 -46.6313,129.71219 6.6419,8.00569 14.7988,15.58249 24.1042,22.52532 23.8258,17.77651 72.6353,45.71223 90.6342,56.03472 -0.1467,0.0791 -19.6804,3.71912 -11.8935,0.36693 5.8592,-2.52233 -15.8505,-5.95249 10.8447,-0.35215 1.0413,0.21845 -1.5214,1.77377 -12.5112,-2.72206 -0.2826,-0.1156 11.4578,1.9534 13.56,2.70728 -17.9989,10.32258 -66.8086,38.34193 -90.6342,56.11834 -9.3054,6.94283 -17.4623,14.51963 -24.1042,22.52532 63.2924,22.17778 83.0737,93.51225 46.6313,129.71219 -36.4424,36.20022 -108.2277,16.52549 -130.55,-46.35112 -8.0799,6.60248 -15.7096,14.72083 -22.7058,23.97365 -17.8918,23.66253 -46.0249,75.91452 -56.4219,93.80303 0.9039,-62.13267 0.093,-1.3772 0,-1.79761 -6.6387,-29.84558 1.8135,-19.22172 0,1.79761 -10.3916,-17.87905 -38.5862,-70.13549 -56.4814,-93.80303 -7.0038,-9.26275 -14.6322,-17.39728 -22.7057,-24.00326 -22.3127,62.89421 -94.1035,82.58502 -130.5503,46.38073 -36.4464,-36.20439 -16.624,-107.51823 46.6909,-129.68268 -6.6501,-8.01978 -14.839,-15.59753 -24.1638,-22.55483 -23.8256,-17.77651 -76.4442,-45.75395 -94.4429,-56.07653 -0.019,-0.009 10.3969,-0.89227 10.3754,-0.88676 -3.42,0.87603 -6.6743,1.47614 -6.5667,1.45113 20.9888,-4.87654 4.1036,-0.68354 5.1383,-0.53486 0.023,0.004 -8.967,-0.0199 -8.947,-0.0295 17.9987,-10.32239 70.6171,-38.30002 94.4429,-56.07653 9.3248,-6.9573 17.5137,-14.53505 24.1638,-22.55483 -63.3149,-22.16444 -83.1373,-93.47838 -46.6909,-129.68268 36.4466,-36.20429 108.2374,-16.51329 130.5503,46.38073 8.0733,-6.60598 15.7017,-14.74051 22.7057,-24.00326 17.8954,-23.66745 46.9223,-75.96568 57.3142,-93.84484 -0.599,19.7088 -5.8515,80.30587 0,0 z"
         id="path4119-3"
         sodipodi:nodetypes="ccscsscscssscscscscscscccscssscscscsccc" />
      <path
         sodipodi:nodetypes="scsssccsscccssccscccssccccccssscsssccccscccsscccccccssscscscccssssscsccsccccsccssccsscccccccscccssscccccscccccsscccscscccsssscscccsscccccccccscsccscccsscscsccccccccccscsccssscccccscsscssssccccccscsccscccsssscsccscscssssscsccccsscccsscccscsscsccsccscsccsscccccssccscscscsccssscssccsccscscsscscsccccsccscscscccssccccccc"
         inkscape:connector-curvature="0"
         style="fill:#dd0000;fill-opacity:1;fill-rule:nonzero;stroke:none;stroke-width:10.4401;stroke-linecap:round;stroke-linejoin:round;stroke-miterlimit:4;stroke-dasharray:none;stroke-opacity:1"
         d="m -1416.4188,-864.77537 c 0.099,11.08109 1.6676,20.34226 0,-0.004 -9.7008,16.69064 -27.2663,52.40719 -46.2742,77.54586 -19.0079,25.13867 -43.0572,45.40518 -74.1283,45.40518 -18.5351,0 -32.3832,-7.17563 -40.2037,-15.13506 -3.9104,-3.97976 -6.2514,-8.16064 -7.0229,-11.35129 -0.7718,-3.19066 -0.2339,-4.91095 1.0118,-6.14862 1.246,-1.23767 2.9778,-1.77166 6.1898,-1.00507 3.212,0.7666 7.421,3.092 11.4272,6.97632 2.7252,2.6422 5.3287,6.01202 7.6182,9.9915 0,0.004 0.027,-0.004 0.031,0 3.7595,1.73609 8.2485,3.12984 13.3912,3.84289 -3.3737,-8.79054 -8.2899,-15.99132 -13.7483,-21.28368 -5.0848,-4.92977 -10.6319,-8.28918 -16.2779,-9.63677 -1.4117,-0.33685 -2.8734,-0.52383 -4.315,-0.56164 -4.1488,-0.10803 -8.2057,1.10489 -11.3082,3.96112 -0.1371,0.11125 -0.2887,0.22769 -0.4167,0.35473 -0.1276,0.12695 -0.2451,0.24801 -0.3571,0.38428 -3.8792,4.15484 -4.7377,10.10878 -3.4223,15.54891 1.3568,5.60867 4.7383,11.14839 9.7014,16.19924 9.9255,10.10171 26.4537,18.26849 47.7028,18.26849 35.6476,0 62.547,-23.1678 82.4903,-49.54367 17.3271,-22.91599 29.217,-47.18992 38.1799,-63.82148 8.963,16.63175 20.8258,40.90927 38.1504,63.82148 9.9198,13.11945 21.5625,25.45112 35.1447,34.52686 0.5129,-3.88281 1.1928,-7.64699 2.0236,-11.29218 -10.7239,-7.92538 -20.2523,-18.2281 -28.7765,-29.50154 -19.0077,-25.13867 -37.1088,-60.85079 -46.8099,-77.54145 -0.8752,5.92666 0.025,2.84848 0,-0.004 z m 0,37.33808 c 0.2699,5.71948 1.1618,15.59607 2e-4,10e-4 -9.1203,15.72863 -25.7299,47.17974 -44.2508,68.19609 -18.5207,21.01609 -42.6665,37.74898 -76.1519,37.74898 -27.365,0 -47.3752,-12.22061 -57.8503,-26.66372 -5.2377,-7.2216 -8.0355,-14.95921 -8.3027,-21.87489 -0.2674,-6.91568 1.8265,-12.91692 6.6065,-17.67727 0.065,-0.0639 0.1123,-0.14398 0.179,-0.20694 0.057,-0.0634 0.1257,-0.11181 0.179,-0.17727 4.7296,-4.47969 10.6647,-6.4366 17.4384,-6.17817 6.9618,0.26562 14.7512,3.04474 22.0212,8.24742 9.469,6.77663 17.9741,17.58599 22.7651,31.80727 3.6008,-0.189 7.0977,-0.70955 10.5049,-1.53715 -5.3278,-17.03707 -15.4058,-30.2974 -27.1397,-38.6949 -8.7024,-6.22798 -18.3521,-9.83945 -27.7647,-10.19844 -0.5883,-0.0225 -1.169,-0.0339 -1.7556,-0.0295 -8.6278,0.0653 -17.0028,3.06651 -23.4497,9.25248 0,0.009 -0.019,0.0199 -0.03,0.0295 -0.1257,0.10405 -0.269,0.20737 -0.387,0.32518 -0.1448,0.1434 -0.2758,0.29804 -0.4166,0.4434 -0.025,0.0269 -0.036,0.0613 -0.059,0.0885 -6.5602,6.82279 -9.5185,15.76859 -9.1656,24.89007 0.3615,9.3499 3.9971,18.93553 10.2666,27.58011 12.5393,17.28905 35.8491,30.97958 66.3614,30.97958 37.0423,0 64.3273,-18.93033 84.0378,-41.29626 16.6668,-18.91247 28.1136,-40.06036 36.6027,-55.36711 8.4899,15.3076 19.991,36.44914 36.6624,55.36711 9.8771,11.208 21.6426,21.55507 35.5911,29.08769 -0.063,-1.72509 -0.09,-3.47005 -0.09,-5.23222 2e-4,-2.25371 0.046,-4.4632 0.1485,-6.65116 -10.537,-6.50732 -19.676,-14.8842 -27.7645,-24.06238 -18.5207,-21.01615 -35.6662,-52.46862 -44.7866,-68.19725 -1.0686,5.32266 0.097,2.06983 2e-4,10e-4 z m -162.6594,4.73057 c -1.7941,-0.0195 -3.565,0.0464 -5.3268,0.17727 -12.5302,0.93119 -24.1024,5.67342 -32.7046,14.21867 -0.1276,0.12695 -0.2451,0.24801 -0.3571,0.3843 -33.8364,34.39773 -6.7615,115.28658 80.6454,115.28658 36.6062,-2e-5 63.7777,-14.15663 83.6211,-32.13245 16.8392,-15.25396 28.4052,-32.98709 37.0494,-47.50397 8.6439,14.51594 20.2121,32.2519 37.0492,47.50397 10.4713,9.48571 22.9687,17.89746 37.823,23.73722 -0.7939,-3.90155 -1.4185,-7.90178 -1.8749,-12.0312 -11.0581,-5.11773 -20.5817,-11.86058 -28.8954,-19.39179 -18.3876,-16.6567 -35.2256,-43.65199 -44.1318,-59.01133 -1.9299,4.51235 0.074,0.84011 0,1.01246 -1.8061,4.13471 0.9471,1.23199 0,-1.01246 -8.906,15.35934 -25.6848,42.35463 -44.0722,59.01133 -18.3876,16.6568 -42.6468,29.41287 -76.5684,29.41287 -81.3545,-2e-5 -99.1887,-71.76913 -72.8783,-97.90492 22.6781,-22.52751 79.4673,-12.45293 94.7209,42.50824 3.2097,-1.29452 6.3284,-2.85779 9.374,-4.67059 -12.1262,-39.36127 -44.5146,-59.28034 -73.4735,-59.59429 z m 325.8546,0 c -36.4788,0.39558 -78.4131,31.88579 -78.4133,94.18027 0,36.36302 14.2515,63.32411 32.3473,83.03591 15.3463,16.71658 33.1829,28.21775 47.7921,36.80302 -14.6092,8.58527 -32.4458,20.08653 -47.7921,36.80303 -9.5435,10.39578 -18.0176,22.79775 -23.8959,37.54202 3.9218,-0.78378 7.9611,-1.38334 12.1115,-1.83276 5.1522,-10.98453 11.9401,-20.44494 19.5215,-28.70339 16.7682,-18.26537 43.9319,-34.96199 59.3939,-43.8089 -9.8835,-0.16138 -10.1971,3.36456 -0.4017,0 -38.0293,-3.03494 -8.5272,0.83252 0.4017,0 -15.462,-8.84682 -42.6257,-25.54354 -59.3939,-43.8089 -16.7681,-18.26537 -29.6094,-42.3339 -29.6094,-76.03003 0,-80.81355 72.249,-98.5595 98.5598,-72.42362 22.6782,22.5274 12.5361,78.93913 -42.7927,94.0916 1.306,3.19302 2.8428,6.31149 4.6721,9.34117 59.3008,-18.00308 74.7286,-81.09477 45.8875,-110.40909 -0.1123,-0.13621 -0.2293,-0.25726 -0.3571,-0.38428 -0.1218,-0.12675 -0.2533,-0.24197 -0.3868,-0.35472 -8.562,-8.31292 -19.9691,-12.94625 -32.3177,-13.86396 -1.7621,-0.13092 -3.5327,-0.19685 -5.3268,-0.17727 z m 0.8631,18.03201 c -0.5864,-0.006 -1.1675,0.006 -1.7558,0.0295 -9.4126,0.3591 -19.0621,3.97045 -27.7645,10.19844 -17.4048,12.45594 -31.1869,35.61079 -31.1869,65.92026 0,36.79616 19.0567,63.87038 41.5725,83.44976 19.0292,16.54763 40.3001,27.95742 55.7078,36.38916 -15.4077,8.43174 -36.6786,19.84136 -55.7078,36.38919 -11.283,9.81149 -21.6994,21.49869 -29.2823,35.35455 1.7408,-0.062 3.4893,-0.0887 5.2672,-0.0887 2.2645,-2e-5 4.4955,0.0462 6.6956,0.14776 6.5511,-10.46713 14.9838,-19.54536 24.2235,-27.58009 21.1567,-18.39763 52.8481,-34.93299 68.682,-43.99283 -4.9716,0.1311 -9.8245,0.19874 -1.2627,0.0208 -5.0754,-0.51898 -27.9291,1.1538 1.2627,-0.0208 -15.8339,-9.05964 -47.5253,-26.05506 -68.682,-44.45268 -21.1568,-18.39762 -38.0015,-42.35328 -38.0015,-75.61617 0,-27.18313 12.3022,-47.08977 26.842,-57.4955 7.2698,-5.20277 15.0594,-7.98179 22.0212,-8.24741 6.9619,-0.26562 13.0035,1.81403 17.7957,6.56246 4.7802,4.76036 6.8439,10.7616 6.5765,17.67728 -0.2674,6.91568 -3.0352,14.65329 -8.2729,21.87489 -6.8219,9.40597 -17.7036,17.85458 -32.0201,22.6139 0.1886,3.58088 0.7148,7.04826 1.5475,10.43492 17.1511,-5.29226 30.5004,-15.30344 38.9539,-26.95932 6.2695,-8.64458 9.9051,-18.23043 10.2666,-27.58011 0.355,-9.18201 -2.6325,-18.19866 -9.2846,-25.03787 -0.1124,-0.13622 -0.2293,-0.25728 -0.3571,-0.3843 -0.1276,-0.12695 -0.2501,-0.2432 -0.3868,-0.35473 -6.4463,-6.18271 -14.824,-9.18709 -23.4497,-9.25248 z m -1.2499,18.53452 c -1.4416,0.0376 -2.8736,0.22472 -4.2852,0.56166 -5.6462,1.34759 -11.2231,4.70701 -16.3077,9.63678 -10.1692,9.85964 -18.3904,26.30748 -18.3906,47.4153 0,35.41084 23.3228,62.13141 49.8752,81.94216 23.0691,17.21206 47.5056,28.99319 64.2482,37.89677 -16.7426,8.90358 -41.1789,20.68471 -64.2482,37.89677 -13.2073,9.85387 -25.6214,21.419 -34.7579,34.91113 3.9047,0.50894 7.697,1.18744 11.3676,2.01013 7.9785,-10.65261 18.3503,-20.11775 29.699,-28.58516 25.3068,-18.88155 61.2117,-36.59647 78.0138,-46.23287 -8.213,-0.0696 -7.9566,1.86634 -0.4613,0 -9.4206,-4.00949 -7.5885,0.58489 0.4613,0 -16.8023,-9.6363 -52.707,-27.35132 -78.0138,-46.23288 -25.3067,-18.88155 -45.7089,-42.7415 -45.7089,-73.60605 0,-18.4118 7.2237,-32.19728 15.2363,-39.96601 4.0064,-3.88432 8.2152,-6.20973 11.4272,-6.97632 3.2121,-0.76659 4.944,-0.23261 6.1898,1.00506 1.246,1.23767 1.7537,2.95796 0.982,6.14862 -0.7717,3.19066 -3.0831,7.37153 -6.9933,11.3513 -2.6549,2.70198 -6.0324,5.29623 -10.0285,7.56752 -1.7608,3.74915 -3.2046,8.19948 -3.9281,13.33187 8.861,-3.3438 16.1228,-8.19995 21.4557,-13.62747 4.9629,-5.05085 8.3448,-10.59057 9.7014,-16.19924 1.3166,-5.44327 0.4626,-11.39392 -3.4223,-15.54891 -0.1124,-0.13622 -0.2293,-0.25726 -0.3571,-0.38428 -0.1276,-0.12695 -0.2501,-0.24322 -0.3868,-0.35473 -3.1056,-2.85992 -7.2165,-4.0691 -11.3678,-3.96115 z m -312.6122,102.63462 c -7.977,10.64676 -18.3253,20.12146 -29.6691,28.58517 -25.3067,18.88156 -61.2534,36.59648 -78.056,46.23288 4.7863,1.0177 8.8077,-0.78615 0.5655,0.008 -0.5916,0.0569 4.0206,-0.25185 -0.5655,-0.008 16.8024,9.6364 52.7494,27.35132 78.056,46.23287 25.3068,18.88154 45.7089,42.74151 45.7089,73.60605 0,18.4119 -7.2235,32.19738 -15.2363,39.96602 -4.0064,3.88432 -8.215,6.20973 -11.4272,6.97632 -3.212,0.76657 -4.9436,0.2326 -6.1898,-1.00507 -1.2459,-1.23768 -1.7837,-2.95795 -1.0118,-6.14861 0.7717,-3.19068 3.1124,-7.37153 7.0229,-11.3513 2.6654,-2.71279 6.0458,-5.31956 10.0585,-7.5971 1.7546,-3.74241 3.1469,-8.18135 3.8685,-13.3023 -8.8483,3.34372 -16.0953,8.20203 -21.4261,13.62748 -4.9628,5.05085 -8.3443,10.59057 -9.7011,16.19924 -1.3159,5.44013 -0.4571,11.39424 3.4221,15.54891 0.1199,0.12865 0.2312,0.25909 0.3571,0.38428 0.1276,0.12694 0.2795,0.24358 0.4167,0.35473 4.1821,3.84695 10.15,4.70569 15.6231,3.39948 5.6462,-1.3476 11.1932,-4.707 16.2779,-9.63677 10.1693,-9.85964 18.4205,-26.30738 18.4205,-47.41531 0,-35.41083 -23.3228,-62.1314 -49.8751,-81.94215 -23.0764,-17.21736 -47.536,-28.99263 -64.2782,-37.89677 16.742,-8.90415 41.202,-20.67941 64.2782,-37.89677 13.2072,-9.85387 25.6214,-21.419 34.7578,-34.91113 -3.9208,-0.51091 -7.7135,-1.18243 -11.3975,-2.01015 z m 57.1065,0.44342 c -3.9384,0.78842 -8.0029,1.44058 -12.1714,1.89188 -5.1565,10.9694 -11.9182,20.42429 -19.4916,28.67385 -16.7681,18.26536 -43.9649,34.96196 -59.4273,43.8089 7.3608,1.0505 32.1229,-2.63585 0.5729,-0.0151 -0.4164,0.0346 11.6262,-0.50984 -0.5729,0.0151 15.4622,8.84691 42.6592,25.54353 59.4273,43.8089 16.7681,18.26537 29.6394,42.3339 29.6394,76.03002 -2e-4,80.81373 -72.2491,98.55951 -98.5599,72.42363 -22.6867,-22.53594 -12.5547,-78.99394 42.8222,-94.12115 -1.3027,-3.18822 -2.8774,-6.28686 -4.7017,-9.31162 -59.3039,17.99846 -74.7305,81.09287 -45.8876,110.40908 0.1238,0.12506 0.2325,0.26046 0.3571,0.38428 34.4089,34.18017 116.4449,7.36005 116.4449,-79.78422 -2e-4,-36.36304 -14.2517,-63.32427 -32.3475,-83.03589 -15.3464,-16.71658 -33.183,-28.21776 -47.7921,-36.80303 14.6091,-8.58529 32.4457,-20.08653 47.7921,-36.80302 9.5492,-10.40176 18.0173,-22.81606 23.8961,-37.57161 z m -34.3711,2.57177 c -6.551,10.46714 -14.9837,19.54538 -24.2234,27.58011 -21.1568,18.39759 -52.8479,35.16288 -68.6821,44.22275 11.2273,1.12001 0.3158,-0.008 0.4167,0.0221 2.1497,0.64319 3.3216,-0.71613 -0.4167,-0.0221 15.8342,9.05966 47.5253,25.82514 68.6821,44.22275 21.1567,18.39759 38.0016,42.35319 38.0016,75.61617 0,27.22881 -12.0069,47.53588 -26.3363,58.0867 -7.1645,5.27521 -14.8535,8.07266 -21.8426,8.27698 -6.923,0.20228 -13.1524,-1.94913 -18.3609,-7.03544 -0.044,-0.0437 -0.074,-0.10386 -0.1181,-0.14775 -5.2262,-5.20383 -7.437,-11.41464 -7.2313,-18.35718 0.2057,-6.94276 2.9922,-14.58044 8.3026,-21.69753 6.9457,-9.30816 18.097,-17.61431 32.645,-22.25917 -0.1962,-3.57263 -0.7399,-7.02446 -1.5772,-10.40535 -17.2684,5.14299 -30.8404,14.90533 -39.4597,26.45678 -6.3873,8.55975 -10.1053,18.14497 -10.3857,27.60966 -0.2739,9.24805 2.9039,18.38446 9.7905,25.51086 0.1619,0.16724 0.3104,0.33759 0.4761,0.50252 0,0.004 0.025,-0.004 0.031,0 0.1238,0.12165 0.2554,0.24778 0.3868,0.35473 7.1925,6.92588 16.436,10.14689 25.8006,9.87326 9.5282,-0.27848 19.1774,-3.97195 27.7945,-10.31666 17.2341,-12.68944 30.5621,-36.18849 30.5617,-66.45237 0,-36.79618 -19.0867,-63.87036 -41.6022,-83.44974 -19.0293,-16.54763 -40.2703,-27.95744 -55.678,-36.38918 15.4077,-8.43175 36.6485,-19.84137 55.678,-36.38917 11.2892,-9.81698 21.7205,-21.51804 29.312,-35.38412 -1.7498,0.063 -3.5095,0.11824 -5.2969,0.11824 -2.2586,-2e-5 -4.4718,-0.0465 -6.6658,-0.14776 z m 247.9769,155.75514 c -36.6062,-2e-5 -63.7479,14.15662 -83.5913,32.13243 -16.8371,15.25219 -28.4053,32.98805 -37.0492,47.50399 -8.6444,-14.5169 -20.2102,-32.25001 -37.0494,-47.50399 -10.4506,-9.46696 -22.94,-17.86921 -37.7634,-23.70765 0.786,3.89718 1.3953,7.90746 1.8451,12.0312 11.0494,5.11572 20.5609,11.83915 28.8656,19.36222 18.3876,16.65672 35.1662,43.67292 44.0722,59.03226 -0.021,-2.29391 0,-0.38943 0,-0.56904 0.5485,-20.72406 -1.52,-3.73051 0,0.56904 8.906,-15.35925 25.7442,-42.37556 44.1318,-59.03226 18.3875,-16.65677 42.6169,-29.41285 76.5386,-29.41285 81.3543,8e-5 99.2191,71.76903 72.9082,97.90492 -22.6792,22.52842 -79.5,12.45918 -94.7508,-42.50824 -3.203,1.29186 -6.3051,2.86242 -9.3442,4.67059 18.1381,58.87735 81.6133,74.19683 111.118,45.55297 0.1372,-0.11124 0.2589,-0.22767 0.3868,-0.35473 0.1277,-0.12694 0.2452,-0.24799 0.3571,-0.38428 33.8414,-34.39584 6.7343,-115.28649 -80.6751,-115.28658 z m 0,18.44585 c -37.0423,-2e-5 -64.2976,18.93031 -84.0081,41.29624 -16.6713,18.91788 -28.1725,40.05953 -36.6623,55.36713 -8.4891,-15.30677 -19.936,-36.45446 -36.6028,-55.36713 -9.8689,-11.19871 -21.6502,-21.52711 -35.5911,-29.05812 0.061,1.72102 0.09,3.44549 0.09,5.20267 0,2.25882 -0.046,4.48575 -0.1485,6.68071 10.5292,6.50437 19.6849,14.86458 27.7646,24.03281 18.5206,21.01619 35.3686,52.44652 44.4888,68.17516 1.2273,-5.16471 -0.023,-0.16781 0,-0.27344 1.298,-5.80187 -2.0462,-11.27726 0,0.27344 9.1203,-15.72866 26.0279,-47.1588 44.5484,-68.17516 18.5206,-21.01605 42.6363,-37.74895 76.1221,-37.74895 27.365,-2e-5 47.4049,12.22061 57.8801,26.66371 5.2375,7.2216 8.0053,14.95921 8.2727,21.87489 0.2674,6.91567 -1.7962,12.91693 -6.5765,17.67728 -4.7922,4.74844 -10.8338,6.82809 -17.7955,6.56247 -6.962,-0.26564 -14.7516,-3.04476 -22.0212,-8.24744 -9.469,-6.77664 -17.9741,-17.58599 -22.7654,-31.80727 -3.5988,0.18597 -7.0991,0.71362 -10.5046,1.53715 5.3277,17.03705 15.406,30.29742 27.1397,38.69492 8.7024,6.22796 18.3521,9.83944 27.7645,10.19842 9.2416,0.35265 18.3209,-2.61789 25.2054,-9.22293 0.1372,-0.11124 0.2591,-0.22767 0.3869,-0.35472 0.1276,-0.12695 0.2453,-0.24799 0.3571,-0.38428 6.6493,-6.83878 9.6396,-15.85778 9.2846,-25.03789 -0.3615,-9.34988 -3.9967,-18.93551 -10.2666,-27.58009 -12.5391,-17.28908 -35.849,-30.97958 -66.3612,-30.97958 z m 0,20.33774 c -35.6476,-2e-5 -62.5469,23.1678 -82.4903,49.54367 -17.3245,22.91219 -29.1873,47.18964 -38.1502,63.82146 -8.9634,-16.63146 -20.853,-40.90547 -38.1801,-63.82146 -9.9114,-13.10829 -21.5474,-25.42372 -35.115,-34.4973 -0.5096,3.8794 -1.1688,7.64521 -1.9938,11.29217 10.7141,7.92141 20.2332,18.21255 28.7467,29.47199 19.0079,25.13865 36.8115,60.87612 46.5123,77.56678 3.631,-20.00064 -0.101,0.0151 0,-0.47289 0.5073,-2.42973 0.414,-7.14716 0,0.47289 9.7009,-16.69068 27.5644,-52.42807 46.572,-77.56674 19.0079,-25.13867 43.0272,-45.40518 74.0984,-45.40518 18.535,-2e-5 32.4126,7.17563 40.2334,15.13506 3.9104,3.97976 6.2216,8.16063 6.9933,11.35129 0.7717,3.19066 0.2641,4.91095 -0.982,6.14862 -1.2459,1.23765 -2.9776,1.77165 -6.1898,1.00506 -3.212,-0.76659 -7.4206,-3.09199 -11.4272,-6.97631 -2.72,-2.63731 -5.3317,-5.99231 -7.6181,-9.96196 -3.7758,-1.74828 -8.2513,-3.18488 -13.4211,-3.902 3.366,8.80226 8.2546,16.01578 13.7185,21.31324 5.0848,4.92976 10.6613,8.28919 16.3077,9.63678 5.4765,1.30708 11.4702,0.45413 15.653,-3.39949 0.1371,-0.11124 0.2588,-0.22766 0.3868,-0.35472 0.1276,-0.12695 0.2451,-0.24799 0.3571,-0.38428 3.8849,-4.15516 4.7391,-10.10566 3.4223,-15.54891 -1.3566,-5.60869 -4.7387,-11.14839 -9.7014,-16.19924 -9.9255,-10.10171 -26.4835,-18.2684 -47.7325,-18.26849 z"
         id="path4121-5" />
      <path
         sodipodi:nodetypes="cccccccccccccccccccccccccccccccccccccccccc"
         id="path3411-2"
         d="m -1490.0014,-679.16391 4e-4,10.1537 c 9.9996,0.12619 7.361,0.16251 10.2129,0.29922 2.9282,0.0986 5.5037,0.73897 7.1138,1.77267 1.2761,0.93946 1.8093,2.16437 1.8172,7.37246 0.068,18.96213 -0.2335,52.47144 0.3035,71.42902 0.3208,7.11405 0.9504,14.32889 3.3657,21.07885 4.6888,12.51998 15.6045,22.59271 28.6058,26.09791 9.1542,2.55149 18.7635,3.02924 28.2236,2.58826 7.8248,-0.38893 15.6999,-1.85487 22.7867,-5.26319 5.8829,-2.83554 11.1644,-6.92478 15.349,-11.91508 3.4078,-4.05778 5.9936,-8.79712 7.4698,-13.88324 1.9047,-6.30244 2.6067,-12.89174 3.0196,-19.44096 0.6167,-11.14868 0.1124,-22.31623 0.3053,-33.47294 0.044,-12.21434 -0.226,-24.43616 0.3013,-36.64361 0.12,-6.00179 1.3267,-7.26208 2.6076,-8.19476 0.6206,-0.40587 1.6118,-1.44113 9.0557,-1.46319 2.1332,-0.0774 3.9841,0.17179 5.549,-0.65381 1.19,-0.70359 1.4726,-1.64488 1.4736,-4.01573 0,-1.9136 0.03,-3.89113 0,-5.84554 h -53.7078 v 10.12409 c 10.3032,0.13413 9.0513,0.1434 12.48,0.44242 3.7514,0.30472 4.6286,1.19039 5.2653,1.65254 0.7794,0.63147 1.1837,1.79761 1.162,7.47999 0.048,4.5163 -4e-4,16.47343 0.021,20.9903 -0.019,12.6213 0.059,25.24297 -0.019,37.86406 -0.074,6.47058 -0.16,12.969 -0.986,19.39223 -0.5799,4.1558 -1.5032,8.33667 -3.4956,12.06009 -2.6877,4.7067 -7.0492,8.29132 -11.8171,10.77366 -9.2859,4.83497 -20.3208,6.07285 -30.5465,3.85689 -6.5406,-1.59535 -12.6932,-5.53368 -16.0183,-11.43424 -2.2795,-4.10209 -3.1501,-8.7961 -3.8455,-13.39519 -0.6532,-4.7482 -1.0172,-9.54261 -1.1808,-14.33492 -0.247,-9.32526 0.1029,-18.65326 -0.048,-27.97958 -0.019,-12.39936 -0.179,-24.80462 0.2693,-37.19851 0.2577,-5.52805 1.0376,-7.09146 2.3548,-8.12549 2.0119,-1.64539 5.3237,-1.51288 7.1601,-1.61152 5.0952,-0.12449 6.0688,0.0855 7.4986,-0.30302 0.9979,-0.2387 1.9117,-1.32695 1.8481,-4.27528 0,-1.99283 0,-3.98572 0,-5.97856 z"
         style="font-style:normal;font-variant:normal;font-weight:normal;font-stretch:normal;font-size:3600px;line-height:125%;font-family:'Times New Roman';text-align:start;text-anchor:start;fill:#011171;fill-opacity:1;stroke:none;stroke-width:4.24587px;stroke-linecap:butt;stroke-linejoin:miter;stroke-opacity:1"
         inkscape:connector-curvature="0" />
      <path
         style="fill:#ffffff;fill-opacity:1;stroke:#dd0000;stroke-width:7.28143;stroke-opacity:1"
         d="M -529.34563,-206.43899 H -18.051533 V 93.090218 c -1.259174,37.592722 9.7091514,134.606312 -61.937987,174.624442 -46.14999,25.46592 -137.23596,19.40239 -193.10181,54.56982 -57.08036,-35.16743 -146.95152,-29.10412 -193.10161,-54.57014 -71.65365,-40.01812 -62.2179,-137.28595 -63.15269,-174.624122 z"
         id="path4238"
         sodipodi:nodetypes="cccccccc"
         inkscape:connector-curvature="0" />
      <path
         style="fill:#dd0000;fill-opacity:1;stroke-width:1.00075"
         d="M -222.83954,-205.10017 V -102.1626 H -122.0333 V -205.10017 Z M -122.0333,-102.1626 V -1.5062786 H -19.693376 V -102.1626 Z m 0,100.6563214 H -222.83954 V 99.150042 h 100.775 V 199.80641 h 95.517162 c 3.444026,-9.049 5.87845,-18.33991 7.60512,-27.56262 V 99.150042 H -122.06454 Z m -0.031,201.3126886 h -100.77499 v 101.37507 c 34.31577,-9.4502 70.60949,-13.10151 100.77499,-21.34381 z m -100.77499,0 V 99.150042 H -323.64557 V 199.80641 Z m -100.80624,0 h -100.80634 v 80.03126 c 30.1655,8.2423 66.49066,11.89361 100.80634,21.34381 z m -100.80634,0 V 99.150042 h -102.96575 v 73.093748 c 1.72456,9.22271 4.13405,18.51362 7.57377,27.56262 z m 0,-100.656368 h 100.80634 V -1.5062786 h -100.80634 z m 0,-100.6563206 V -102.1626 h -103.8733 V -1.5062786 Z m 0,-100.6563214 h 100.80634 v -102.15632 h -100.80634 z m 100.80634,0 V -1.5062786 h 100.80624 V -102.1626 Z"
         id="path4240"
         inkscape:connector-curvature="0"
         sodipodi:nodetypes="ccccccccccccccccccccccccccccccccccccccccccccccccccccccccccccc" />
    </g>
  </g>
</svg>
