<svg xmlns="http://www.w3.org/2000/svg" xml:space="preserve" width="600" height="300" style="shape-rendering:geometricPrecision;text-rendering:geometricPrecision;image-rendering:optimizeQuality;fill-rule:evenodd" id="svg2" version="1.1">
  <defs id="defs4">
    <style type="text/css" id="style6">
      .fil2{fill:#ff0}
    </style>
  </defs>
  <path style="fill:#009a30;fill-opacity:1" id="rect9" d="M0 0h600v150H0z"/>
  <path style="fill:#cd0000;fill-opacity:1" id="rect11" d="M0 150h600v150H0z"/>
  <path style="fill:gold;fill-opacity:1" id="path13" d="m314.55696 112 8.86076 26.71053H350l-21.26583 16.57894L336.70886 182l-22.1519-16.57895L293.29114 182l7.97468-26.71053L280 138.71053h26.58228L314.55696 112zM311.01266 125.81579" class="fil2"/>
  <path style="fill:gold;fill-opacity:1" id="path21" d="M315 210.48611C307.57732 213.19445 299.22681 215 290.87629 215 254.69072 215 225 186.11111 225 150s29.69072-65 65.87629-65c8.35052 0 16.70103 1.805555 24.12371 4.513889-2.7835-.902778-4.63918-.902778-6.49484-.902778-25.97938 0-47.31959 27.986109-47.31959 61.388889s21.34021 61.38889 47.31959 61.38889c1.85566 0 4.63917 0 6.49484-.90278z" class="fil2"/>
  <path style="fill:gold;fill-opacity:1" id="path23" d="M69.591241 50.333334H52.218978v7.5h4.087591c10.218978 0 12.262774 2.5 14.30657 6.666666 1.021897.833334 2.043795 3.333334 2.043795 5.833334 0 1.666666 0 3.333332-1.021898 5C70.613139 77 69.591241 78.666666 67.547445 79.5c0 0-2.043795.833334-3.065693.833334-3.065694.833332-4.087591.833332-5.109489.833332H42V42.833334h27.591241zm-17.372263 22.5h5.109489c2.043796 0 3.065694 0 4.087591-.833334 0-.833334 1.021898-1.666666 1.021898-3.333334 0-.833332-1.021898-1.666666-1.021898-2.5-1.021897-.833332-2.043795-.833332-4.087591-.833332h-5.109489zm25.547445-30h10.218978v13.333332h12.262779V42.833334h10.21897v38.333332h-10.21897V65.333334H87.985401v15.833332H77.766423Zm61.313867 22.5 9.19708 3.333332c0 2.5-1.0219 5-2.04379 7.5-2.0438 1.666668-3.0657 3.333334-5.10949 4.166668C139.08029 81.166666 136.0146 82 132.94891 82c-3.0657 0-6.13139-.833334-8.17519-1.666666-3.06569-1.666668-5.10949-3.333334-6.13138-6.666668C116.59854 70.333334 115.57664 67 115.57664 62c0-6.666666 2.0438-11.666666 5.10949-15 3.06569-3.333334 7.15329-5 12.26278-5 4.08759 0 7.15328.833334 10.21897 3.333334 2.0438 1.666666 4.08759 5 5.10949 9.166666l-9.19708 1.666666c0-.833332-1.0219-1.666666-1.0219-2.5 0-.833332-1.02189-1.666666-2.04379-1.666666-1.0219-.833334-2.0438-.833334-3.06569-.833334-2.0438 0-4.0876.833334-5.10949 3.333334-1.0219 1.666666-1.0219 4.166666-1.0219 7.5 0 4.166666 0 6.666666 1.0219 8.333334 1.02189 1.666666 3.06569 2.5 5.10949 2.5 2.04379 0 3.06569-.833334 4.08759-1.666668 1.02189-1.666666 2.04379-3.333332 2.04379-5.833332zm14.30657-22.5h17.37226c4.0876 0 7.15329.833332 8.17519 3.333332C180.9781 47.833334 182 51.166666 182 54.5c0 4.166666-1.0219 6.666666-3.06569 9.166666-2.0438 2.5-5.10949 3.333334-9.19708 3.333334h-5.10949v14.166666h-11.24088ZM164.62774 59.5h2.04379c2.0438 0 3.0657-.833334 4.08759-1.666666 1.0219-.833334 1.0219-1.666668 1.0219-2.5 0-1.666668 0-2.5-1.0219-3.333334 0-.833334-2.04379-1.666666-4.08759-1.666666h-2.04379z" class="fil2"/>
  <g id="g2986" style="fill:#cd0000;fill-opacity:1" transform="matrix(.13158 0 0 .13889 288.68421 123.52222)">
    <path style="fill:#cd0000;fill-opacity:1" id="path5658" d="M140.1619 119.13345c194.19787-28.67928 152.6628 214.41025 10.70743 126.56779 1.75126-2.32891.6141-1.1109 2.46467-3.50414l-7.93414-7.48204c-.87378.37144-2.26643 1.20259-3.48551 2.01899-1.64668-1.66435-4.35735-3.66838-5.89419-5.6296l-9.37012 7.51883c1.14727 1.50143 4.35605 4.65606 5.58266 6.03603-6.32199 5.16912-22.15759 18.5258-24.44971 21.7526-9.777687 11.84759 8.64207 27.0956 17.75016 17.37912 3.57637-2.74703 13.20826-17.37023 19.61042-26.42244 16.32198 16.66493 38.56009 28.30158 68.4724 27.77447 6.69197-.11794 45.87498-1.6721 70.92871-42.49612 18.33094-29.86953 13.05722-74.72379-19.78296-105.69287-35.6711-33.63871-89.00638-31.02516-124.59982-17.82062z"/>
    <path style="fill:#cd0000;fill-opacity:1" id="path5658-1" d="m185.67109 171.13837 24.57977-23.93272-8.12287-7.35791-32.19401-2.15715-46.051 41.76611 25.89568 24.92446 22.15935-20.00862c33.70762 34.03366 97.20495 98.66927 102.31187 104.27469 5.10693 5.60542 20.78715-7.64885 15.56188-13.50192-5.22527-5.85306-80.84296-84.30074-104.14067-104.00694z"/>
  </g>
</svg>
