<svg height="600" width="900" xmlns="http://www.w3.org/2000/svg"><g fill-rule="evenodd" transform="matrix(.66666666 0 0 .66666666 0 200.00004)"><path d="m0-300h1350v899.99995h-1350z" fill="#cd2a3e" stroke-width="1.732051"/><path d="m0-.000054h1350v600.000004h-1350z" fill="#fff"/><path d="m0 300h1350v300h-1350z" fill="#436f4d"/></g><g transform="matrix(.75786553 0 0 .75786553 215.5499 -185.17203)"><path d="m457.34845 640.66288c0 81.73396-66.25849 147.99243-147.99247 147.99243-81.73399 0-147.99249-66.25847-147.99249-147.99243 0-81.73395 66.2585-147.99241 147.99249-147.99241 81.73398 0 147.99247 66.25846 147.99247 147.99241z" fill="#87ceeb"/><g fill="#ffd700" stroke="#b47800" stroke-width="3.717236" transform="matrix(.325 0 0 .325 663.14659 450.32973)"><path d="m-1451.1794 397.60872 5.0435 12.99521 464.01339-180.0862-5.04352-12.99521z"/><path d="m-1481.0624 536.89501 8.1723 11.29272 403.224-291.80441-8.1723-11.29274z"/><path d="m-1460.1556 664.66541 10.2603 9.43605 336.9291-366.35791-10.2603-9.43607z"/><path d="m-1402.506 795.32223 12.0453 7.01586 250.512-430.09654-12.0453-7.01587z"/><path d="m-1324.4893 988.24862 13.3117 4.13676 226.1034-727.57381-13.3117-4.13678z"/><path d="m-1175.0547 1019.6789 13.8678 1.4129 77.2262-757.97262-13.8678-1.41292z"/><path d="m-1345.5403 274.89826v13.9396h497.73428v-13.9396z"/><path d="m-725.9936 397.6092-5.04353 12.99522-464.01337-180.08621 5.0435-12.99521z"/><path d="m-696.11062 536.8955-8.17233 11.29272-403.22395-291.80443 8.1723-11.29273z"/><path d="m-717.01738 664.66589-10.26026 9.43605-336.92916-366.35791 10.2603-9.43607z"/><path d="m-774.66698 795.32272-12.04533 7.01585-250.51199-430.09654 12.0453-7.01585z"/><path d="m-852.68369 988.2491-13.31166 4.13676-226.10345-727.57381 13.3117-4.13677 226.10339 727.57382z"/><path d="m-1002.1183 1019.6794-13.8678 1.4129-77.2262-757.97264 13.8678-1.41292z"/></g><g transform="matrix(.70710678 -.70710678 .70710678 .70710678 -840.00202 464.16065)"><g stroke="#b47800"><path d="m643.06499 913.04012.00003 137.52708h21.53l-.00003-137.52708z" fill="#ffd700" stroke-width="1.812"/><path d="m616.79501 891.3792.00001 22.78795 90.18799.00003-27.78992-22.78806z" fill="#ffd700" stroke-width="1.812152"/><path d="m616.35 890.47416.00001 24.13803 26.27-.00001v136.40002h22.88" fill="none" stroke-width="2.7"/></g><path d="m709.515 915.07218v.89h-44.92v-2.7h42.71z" fill="#b47800"/></g><g stroke="#b47800"><g transform="matrix(.70710678 .70710678 -.70710678 .70710678 356.69425 -625.93427)"><path d="m895 877.76818c-4.49762 0-15.34846 11.88889-15.375 14.60682l-1 102.40625c-.1778 18.20905 14.25 23.50145 14.25 25.03095v31.644h2.125 2.09375v-31.644c0-1.5295 14.4278-6.8219 14.25-25.03095l-1-102.40625c-.02654-2.71793-10.84613-14.60682-15.34375-14.60682z" fill="#ffd700" stroke-width="1.811964"/><g fill="none" stroke-linecap="round" stroke-width="1.812152"><path d="m891.1571 879.46218-.00002 62.9"/><path d="m883.4691 886.46218-.00002 55.9"/><path d="m887.31308 882.56218v59.8"/><path d="m895.00001 877.76818-.00002 64.594"/><path d="m898.81165 879.46218.00002 62.9"/><path d="m906.49965 886.46218.00002 55.9"/><path d="m902.65567 882.56218v59.8"/></g><g fill="#ffd700" stroke-width="1.812244"><path d="m879.5462 937.54352c-2.23282 12.06783 5.51501 25.2588 13.1735 20.28544 7.65854-4.97358-1.24073-17.4167-13.1735-20.28544z"/><path d="m879.33446 951.91673c-2.02187 12.10496 5.955 25.1587 13.52552 20.05244 7.57058-5.10648-1.5445-17.39239-13.52552-20.05244z"/><path d="m879.14014 965.86473c-1.8103 12.1384 6.39317 25.05093 13.87342 19.81333 7.48031-5.23783-1.8478-17.36279-13.87342-19.81333z"/><path d="m878.9532 979.38746c-1.59818 12.16815 6.8294 24.93554 14.2171 19.56819 7.38776-5.36758-2.15054-17.3279-14.2171-19.56819z"/><path d="m878.7936 992.48491c-1.38557 12.19419 7.26355 24.81259 14.55645 19.31709 7.29296-5.4957-2.45263-17.28773-14.55645-19.31709z"/><path d="m910.4226 937.54352c2.23282 12.06783-5.51501 25.2588-13.1735 20.28544-7.65854-4.97358 1.24073-17.4167 13.1735-20.28544z"/><path d="m910.63434 951.91673c2.02187 12.10496-5.955 25.1587-13.52552 20.05244-7.57058-5.10648 1.5445-17.39239 13.52552-20.05244z"/><path d="m910.82866 965.86473c1.8103 12.1384-6.39317 25.05093-13.87342 19.81333-7.48031-5.23783 1.8478-17.36279 13.87342-19.81333z"/><path d="m911.0156 979.38746c1.59818 12.16815-6.8294 24.93554-14.2171 19.56819-7.38776-5.36758 2.15054-17.3279 14.2171-19.56819z"/><path d="m911.1752 992.48491c1.38557 12.19419-7.26355 24.81259-14.55645 19.31709-7.29296-5.4957 2.45263-17.28773 14.55645-19.31709z"/><path d="m895 920.27894c-8.44524 8.90504-9.13172 24.18772-.00002 24.18772 9.13178 0 8.44526-15.28257.00002-24.18772z"/><path d="m894.985 938.01198c-8.44524 8.90505-9.13172 24.18774-.00002 24.18774 9.13178 0 8.44526-15.28258.00002-24.18774z"/><path d="m894.985 955.74504c-8.44524 8.90509-9.13172 24.18775-.00002 24.18775 9.13178 0 8.44526-15.28256.00002-24.18775z"/><path d="m894.985 973.47812c-8.44524 8.90506-9.13172 24.1877-.00002 24.1877 9.13178 0 8.44526-15.28254.00002-24.1877z"/><path d="m894.985 991.21111c-8.44524 8.90489-9.13172 24.18759-.00002 24.18759 9.13178 0 8.44526-15.2826.00002-24.18759z"/></g></g><path d="m222.96649 787.74922c-54.56188-41.01385-75.63203-90.29348-75.19785-137.02001.80865-87.02755 62.14497-163.79721 160.67106-163.79721v8.52631c-56.77369 17.45735-92.38232 85.45254-92.97011 143.30928-.56979 56.08358 24.14191 115.28312 64.57971 148.98163z" fill="#ffd700" stroke-width="1.812152"/><g fill="none" stroke-width="5.575853" transform="matrix(.325 0 0 .325 663.14659 450.32973)"><path d="m-1443.099 462.77714c50.5109-164.54121 183.2606-327.0429 350.7639-338.61637"/><path d="m-1420.4102 466.03593c52.6915-187.17913 194.1622-325.45545 328.0751-337.75648"/><path d="m-1418.4893 672.41767c-31.4882-292.31465 181.4054-531.80554 321.5543-535.52277"/><path d="m-1092.3351 137.24964c-179.4596 35.3481-330.7104 275.97022-302.8428 540.03756"/><path d="m-1440.3675 399.75961c44.5397-104.65664 170.5086-278.74397 348.0324-279.22268"/><path d="m-1481.9005 449.05401c35.0611-100.51143 97.9226-189.04709 178.1796-255.59574 59.7044-49.50646 132.3226-77.35607 196.0776-77.35607"/><path d="m-1496.8798 430.64428c52.6927-127.00959 177.781-288.96009 335.7021-313.65671"/><path d="m-1536.0402 688.76471c-23.5365-113.01731-14.0817-336.64843 205.7541-501.85718 20.5275-15.4266 62.8288-44.20886 107.0931-58.17796"/><path d="m-1562.1589 677.76923c-29.1626-167.91632 46.0338-381.36855 226.4404-496.73889 15.1517-9.68951 35.7494-23.71766 66.5579-37.98553"/></g></g><g fill="#ffd700" transform="matrix(.325 0 0 .325 663.14659 450.32973)"><g stroke="#b47800"><g stroke-width="5.57601"><path d="m-1398.834 639.55136c17.9123 36.23579 4.4968 108.53935-22.967 101.65533-27.4641-6.88404-9.919-78.15254 22.967-101.65533z"/><path d="m-1390.704 703.94089c24.2779 32.3182 23.8689 102.60828-4.3929 100.89872-28.262-1.70953-23.6035-71.74263 4.3929-100.89872z"/><path d="m-1375.5861 767.77282c29.8243 27.28357 39.5188 95.21964 11.4268 98.75421-28.0922 3.53463-33.5626-64.93293-11.4268-98.75421z"/><path d="m-1348.084 837.5826c32.2754 24.33473 45.8881 75.43996 18.2575 81.62057-27.6309 6.18068-37.0889-45.85393-18.2575-81.62057z"/><path d="m-1314.7317 894.23876c32.8918 23.49493 47.8169 74.23242 20.3547 81.12296-27.4624 6.89066-38.2581-44.88293-20.3547-81.12296z"/></g><g stroke-width="5.575853"><path d="m-1419.0775 449.20366c-38.8072 11.30879-76.5567 64.45176-52.9131 80.02842 23.6439 15.57679 57.8385-39.9082 52.9131-80.02842z"/><path d="m-1435.8024 512.61714c-35.7683 18.82859-63.0066 79.56555-36.7292 90.10844 26.2777 10.54299 49.5649-51.77914 36.7292-90.10844z"/><path d="m-1442.4277 582.9193c-33.6362 22.4164-52.4981 85.78596-25.2736 93.56312 27.2247 7.77723 41.9932-56.76166 25.2736-93.56312z"/><path d="m-1439.9312 651.15578c-29.1741 27.9779-36.6528 95.44748-8.4854 98.31999 28.1677 2.87255 31.4113-65.02893 8.4854-98.31999z"/><path d="m-1426.1314 721.97468c-25.5731 31.30343-25.674 104.38601 2.634 103.828 28.3082-.55801 24.1529-73.55666-2.634-103.828z"/><path d="m-1403.8122 787.90452c-22.8571 33.33825-17.1594 112.72435 11.002 109.79378 28.1617-2.9306 18.2298-81.87608-11.002-109.79378z"/><path d="m-1376.5438 849.96733c-17.5756 36.40033-1.384 102.69524 26.0149 95.55695 27.3991-7.13836 7.0879-72.35999-26.0149-95.55695z"/><path d="m-1342.7969 904.05131c-11.8986 38.63041 7.0115 88.02143 33.0244 76.84184 26.0131-11.17968 3.1919-58.88975-33.0244-76.84184z"/><path d="m-1562.0959 674.80898c38.7783 11.40743 80.0254 68.34636 56.3422 83.86284-23.6833 15.51663-61.3695-43.75528-56.3422-83.86284z"/><path d="m-1552.6174 721.34182c39.362 9.19375 81.0321 59.29146 58.2653 76.12384-22.7669 16.83253-61.0139-35.796-58.2653-76.12384z"/><path d="m-1537.9116 773.77485c39.9386 6.22888 88.8659 55.70916 67.4197 74.19458-21.4465 18.48558-67.1493-33.77407-67.4197-74.19458z"/><path d="m-1507.8724 837.31509c40.3566 2.28647 89.2811 45.4147 69.7489 65.91211-19.5324 20.49761-65.5202-25.71252-69.7489-65.91211z"/><path d="m-1469.4665 900.41197c40.3787-1.85739 87.6678 31.51444 70.3368 53.90392-17.3312 22.38965-62.0144-14.34851-70.3368-53.90392z"/><path d="m-1420.1358 959.90295c39.698-7.61273 86.731 16.5734 72.78 41.21125-13.9512 24.638-58.8865-3.25254-72.78-41.21125z"/><path d="m-1491.9914 424.98052c24.3255 32.28246 23.9942 106.51692-4.2701 104.84894-28.2646-1.66798-23.6836-75.65164 4.2701-104.84894z"/><path d="m-1512.0845 503.43813c30.2807 26.77627 43.8115 97.84364 15.7832 101.85192-28.0286 4.00833-37.3452-67.66172-15.7832-101.85192z"/><path d="m-1519.2496 581.65483c32.8802 23.51123 54.3514 93.64131 26.8857 100.51828-27.4658 6.87704-44.8074-64.28701-26.8857-100.51828z"/><path d="m-1515.7801 663.40952c36.4999 17.36798 70.7421 81.83637 44.9122 93.43238-25.8302 11.59614-56.1888-54.61577-44.9122-93.43238z"/><path d="m-1499.9394 743.3191c38.3337 12.82232 77.3315 70.7565 53.0951 85.39373-24.2367 14.63737-59.5904-45.4976-53.0951-85.39373z"/><path d="m-1476.4319 818.38765c39.6105 8.05572 90.176 61.28873 67.9037 78.77014-22.2724 17.4816-69.4892-38.37983-67.9037-78.77014z"/><path d="m-1443.3472 887.92128c40.2662 3.5378 94.6097 49.973 74.4508 69.85437-20.1592 19.88156-71.4717-29.54289-74.4508-69.85437z"/><path d="m-1403.1291 951.62465c40.3402-2.56108 83.9589 27.3466 67.0209 50.03485-16.9382 22.6884-58.0103-10.63053-67.0209-50.03485z"/><path d="m-1433.0147 381.53545c12.1401 38.55521-10.046 98.07409-36.1284 87.05749-26.0825-11.01668.025-68.87913 36.1284-87.05749z"/><path d="m-1454.8571 435.05426c15.1413 37.47839 1.1579 110.96948-25.7117 102.04301-26.8697-8.92655-8.8463-81.07552 25.7117-102.04301z"/><path d="m-1473.6866 505.89563c22.3187 33.7011 20.09 114.67751-8.0207 111.29496-28.111-3.38259-21.6557-83.85043 8.0207-111.29496z"/><path d="m-1480.803 580.13994c25.6747 31.22015 33.5044 105.12028 5.1947 104.65431-28.3099-.46598-31.8831-74.29606-5.1947-104.65431z"/><path d="m-1478.1978 655.16266c30.761 26.22305 48.5185 99.40803 20.5674 103.92365-27.9513 4.51566-41.5062-69.34827-20.5674-103.92365z"/><path d="m-1462.9746 731.24102c33.7089 22.30692 61.6848 96.46827 34.4858 104.3339-27.1992 7.86571-51.0856-67.47828-34.4858-104.3339z"/></g></g><path d="m-1430.8078 800.49842c2.2221 35.48408 70.509 131.99169 84.2599 148.24953l-2.1296 13.03001-9.2087 2.3342c-49.1064-62.76404-70.5355-108.63966-95.6341-156.99903z"/></g><g fill="none" stroke="#b47800" stroke-linecap="round" stroke-width="5.575853" transform="matrix(.325 0 0 .325 663.14659 450.32973)"><path d="m-1420.0552 828.34181c11.9756 45.60572 37.8625 73.53152 72.6383 122.50293"/><path d="m-1444.1682 831.18187c25.8354 52.64735 48.3 83.26889 85.5841 131.41479"/></g><g transform="matrix(-1 0 0 1 618.71203 0)"><path d="m222.96649 787.74922c-54.56188-41.01385-75.63203-90.29348-75.19785-137.02001.80865-87.02755 62.14497-163.79721 160.67106-163.79721v8.52631c-56.77369 17.45735-92.38232 85.45254-92.97011 143.30928-.56979 56.08358 24.14191 115.28312 64.57971 148.98163z" fill="#ffd700" stroke="#b47800" stroke-width="1.812152"/><g transform="matrix(.325 0 0 .325 663.14659 450.32973)"><g fill="none" stroke="#b47800" stroke-width="5.575853"><path d="m-1443.099 462.77714c50.5109-164.54121 183.2606-327.0429 350.7639-338.61637"/><path d="m-1420.4102 466.03593c52.6915-187.17913 194.1622-325.45545 328.0751-337.75648"/><path d="m-1418.4893 672.41767c-31.4882-292.31465 181.4054-531.80554 321.5543-535.52277"/><path d="m-1092.3351 137.24964c-179.4596 35.3481-330.7104 275.97022-302.8428 540.03756"/><path d="m-1440.3675 399.75961c44.5397-104.65664 170.5086-278.74397 348.0324-279.22268"/><path d="m-1481.9005 449.05401c35.0611-100.51143 97.9226-189.04709 178.1796-255.59574 59.7044-49.50646 132.3226-77.35607 196.0776-77.35607"/><path d="m-1496.8798 430.64428c52.6927-127.00959 177.781-288.96009 335.7021-313.65671"/><path d="m-1536.0402 688.76471c-23.5365-113.01731-14.0817-336.64843 205.7541-501.85718 20.5275-15.4266 62.8288-44.20886 107.0931-58.17796"/><path d="m-1562.1589 677.76923c-29.1626-167.91632 46.0338-381.36855 226.4404-496.73889 15.1517-9.68951 35.7494-23.71766 66.5579-37.98553"/></g><g fill="#ffd700"><g stroke="#b47800"><g stroke-width="5.57601"><path d="m-1398.834 639.55136c17.9123 36.23579 4.4968 108.53935-22.967 101.65533-27.4641-6.88404-9.919-78.15254 22.967-101.65533z"/><path d="m-1390.704 703.94089c24.2779 32.3182 23.8689 102.60828-4.3929 100.89872-28.262-1.70953-23.6035-71.74263 4.3929-100.89872z"/><path d="m-1375.5861 767.77282c29.8243 27.28357 39.5188 95.21964 11.4268 98.75421-28.0922 3.53463-33.5626-64.93293-11.4268-98.75421z"/><path d="m-1348.084 837.5826c32.2754 24.33473 45.8881 75.43996 18.2575 81.62057-27.6309 6.18068-37.0889-45.85393-18.2575-81.62057z"/><path d="m-1314.7317 894.23876c32.8918 23.49493 47.8169 74.23242 20.3547 81.12296-27.4624 6.89066-38.2581-44.88293-20.3547-81.12296z"/></g><g stroke-width="5.575853"><path d="m-1419.0775 449.20366c-38.8072 11.30879-76.5567 64.45176-52.9131 80.02842 23.6439 15.57679 57.8385-39.9082 52.9131-80.02842z"/><path d="m-1435.8024 512.61714c-35.7683 18.82859-63.0066 79.56555-36.7292 90.10844 26.2777 10.54299 49.5649-51.77914 36.7292-90.10844z"/><path d="m-1442.4277 582.9193c-33.6362 22.4164-52.4981 85.78596-25.2736 93.56312 27.2247 7.77723 41.9932-56.76166 25.2736-93.56312z"/><path d="m-1439.9312 651.15578c-29.1741 27.9779-36.6528 95.44748-8.4854 98.31999 28.1677 2.87255 31.4113-65.02893 8.4854-98.31999z"/><path d="m-1426.1314 721.97468c-25.5731 31.30343-25.674 104.38601 2.634 103.828 28.3082-.55801 24.1529-73.55666-2.634-103.828z"/><path d="m-1403.8122 787.90452c-22.8571 33.33825-17.1594 112.72435 11.002 109.79378 28.1617-2.9306 18.2298-81.87608-11.002-109.79378z"/><path d="m-1376.5438 849.96733c-17.5756 36.40033-1.384 102.69524 26.0149 95.55695 27.3991-7.13836 7.0879-72.35999-26.0149-95.55695z"/><path d="m-1342.7969 904.05131c-11.8986 38.63041 7.0115 88.02143 33.0244 76.84184 26.0131-11.17968 3.1919-58.88975-33.0244-76.84184z"/><path d="m-1562.0959 674.80898c38.7783 11.40743 80.0254 68.34636 56.3422 83.86284-23.6833 15.51663-61.3695-43.75528-56.3422-83.86284z"/><path d="m-1552.6174 721.34182c39.362 9.19375 81.0321 59.29146 58.2653 76.12384-22.7669 16.83253-61.0139-35.796-58.2653-76.12384z"/><path d="m-1537.9116 773.77485c39.9386 6.22888 88.8659 55.70916 67.4197 74.19458-21.4465 18.48558-67.1493-33.77407-67.4197-74.19458z"/><path d="m-1507.8724 837.31509c40.3566 2.28647 89.2811 45.4147 69.7489 65.91211-19.5324 20.49761-65.5202-25.71252-69.7489-65.91211z"/><path d="m-1469.4665 900.41197c40.3787-1.85739 87.6678 31.51444 70.3368 53.90392-17.3312 22.38965-62.0144-14.34851-70.3368-53.90392z"/><path d="m-1420.1358 959.90295c39.698-7.61273 86.731 16.5734 72.78 41.21125-13.9512 24.638-58.8865-3.25254-72.78-41.21125z"/><path d="m-1491.9914 424.98052c24.3255 32.28246 23.9942 106.51692-4.2701 104.84894-28.2646-1.66798-23.6836-75.65164 4.2701-104.84894z"/><path d="m-1512.0845 503.43813c30.2807 26.77627 43.8115 97.84364 15.7832 101.85192-28.0286 4.00833-37.3452-67.66172-15.7832-101.85192z"/><path d="m-1519.2496 581.65483c32.8802 23.51123 54.3514 93.64131 26.8857 100.51828-27.4658 6.87704-44.8074-64.28701-26.8857-100.51828z"/><path d="m-1515.7801 663.40952c36.4999 17.36798 70.7421 81.83637 44.9122 93.43238-25.8302 11.59614-56.1888-54.61577-44.9122-93.43238z"/><path d="m-1499.9394 743.3191c38.3337 12.82232 77.3315 70.7565 53.0951 85.39373-24.2367 14.63737-59.5904-45.4976-53.0951-85.39373z"/><path d="m-1476.4319 818.38765c39.6105 8.05572 90.176 61.28873 67.9037 78.77014-22.2724 17.4816-69.4892-38.37983-67.9037-78.77014z"/><path d="m-1443.3472 887.92128c40.2662 3.5378 94.6097 49.973 74.4508 69.85437-20.1592 19.88156-71.4717-29.54289-74.4508-69.85437z"/><path d="m-1403.1291 951.62465c40.3402-2.56108 83.9589 27.3466 67.0209 50.03485-16.9382 22.6884-58.0103-10.63053-67.0209-50.03485z"/><path d="m-1433.0147 381.53545c12.1401 38.55521-10.046 98.07409-36.1284 87.05749-26.0825-11.01668.025-68.87913 36.1284-87.05749z"/><path d="m-1454.8571 435.05426c15.1413 37.47839 1.1579 110.96948-25.7117 102.04301-26.8697-8.92655-8.8463-81.07552 25.7117-102.04301z"/><path d="m-1473.6866 505.89563c22.3187 33.7011 20.09 114.67751-8.0207 111.29496-28.111-3.38259-21.6557-83.85043 8.0207-111.29496z"/><path d="m-1480.803 580.13994c25.6747 31.22015 33.5044 105.12028 5.1947 104.65431-28.3099-.46598-31.8831-74.29606-5.1947-104.65431z"/><path d="m-1478.1978 655.16266c30.761 26.22305 48.5185 99.40803 20.5674 103.92365-27.9513 4.51566-41.5062-69.34827-20.5674-103.92365z"/><path d="m-1462.9746 731.24102c33.7089 22.30692 61.6848 96.46827 34.4858 104.3339-27.1992 7.86571-51.0856-67.47828-34.4858-104.3339z"/></g></g><path d="m-1430.8078 800.49842c2.2221 35.48408 70.509 131.99169 84.2599 148.24953l-2.1296 13.03001-9.2087 2.3342c-49.1064-62.76404-70.5355-108.63966-95.6341-156.99903z"/></g><g fill="none" stroke="#b47800" stroke-linecap="round" stroke-width="5.575853"><path d="m-1420.0552 828.34181c11.9756 45.60572 37.8625 73.53152 72.6383 122.50293"/><path d="m-1444.1682 831.18187c25.8354 52.64735 48.3 83.26889 85.5841 131.41479"/></g></g></g><g transform="matrix(.60405091 0 0 .60405065 619.63035 542.65568)"><path d="m-672.50002 383.79998c-14.05027 1.27314-24.12923 3.22026-36.74998 7.75 9.1391 28.65496 6.26023 57.94245 2.99998 87.25001 29.30327-4.55239 58.77666-8.65112 92-2.75l.00002-19v-77.257z" fill="#ffd700" stroke="#b47800" stroke-width="2"/><path d="m-696.89391 450.07317-1.76225 20.84543c8.51878-1.94831 33.97193-3.27589 44.05896-4.57951l31.90424.89975c-6.35859-3.97783-13.51348-7.39824-22.22336-9.73017l-25.98138-4.54552 10.1133-9.15959c-11.48203-.40143-26.96294 3.51864-36.10951 6.26961z" fill="#436f4d"/><path d="m-700.56252 396.11248 3.27589 19.25444c6.66262-3.09736 16.91297-4.07138 27-5.375l-.0884-19.44194c-11.30525.9244-21.04092 2.81153-30.1875 5.5625z" fill="#cd2a3e"/><path d="m-623.2689 388.63083-48.14485 2.16916c-11.16832 1.012-19.82742 2.44984-29.24842 5.27212l-.9941.26694" fill="none" stroke="#b47800" stroke-width="2"/><path d="m-696.29883 422.4883-.0829 20.40349c6.66262-3.09736 20.97883-5.39721 31.06586-6.70083l-.0884-19.44194c-11.30525.9244-21.74803 2.98831-30.8946 5.73928z" fill="#fff"/><g stroke="#b47800" stroke-width="2"><g fill="none"><path d="m-621.52629 407.96681-45.79898 2.06358c-11.49246 1.04137-20.32793 2.53366-30.07069 5.52138"/><path d="m-620.51487 414.97031-45.72413 2.06009c-11.61446 1.05242-20.51523 2.5654-30.38129 5.61704"/><path d="m-699.81476 470.64538.93256.12919c24.5862-3.70964 50.80842-6.32687 78.1194-2.77042-17.21623-11.25184-37.98146-14.90853-59.25795-13.6819"/><path d="m-621.21281 434.3757-41.14166 1.85373c-13.21222 1.1972-22.91275 2.99038-34.51737 6.96661"/><path d="m-620.23512 441.3807-41.03308 1.84874c-13.65688 1.23749-23.56174 3.11175-35.69574 7.37555"/><path d="m-700.69731 396.0456c1.63042 6.28402 2.72676 12.59614 3.41059 18.92998.0615.56989.15543.91709.33391 1.48733m.1614 5.20089c.0896.40592.0995.32753.12363.72969.41054 6.84808.39645 13.71852.11019 20.60328-.016.38605-.0648.71204.0943 1.12027m-.61811 5.48119c.17102.57765.14936.34287.11478.85815-.44546 6.63619-1.09203 13.28296-1.80368 19.93316"/></g><path d="m-583.569 364.06441c-14.76704 0-31.94752.24468-56.24352.34375-11.55153.18338-24.50985 1.26647-39.28125 3.6255v86.21825c45.28849-7.23268 72.89848.46883 95.52477 5.91947z" fill="#ffd700"/></g><path d="m-586.77724 403.91231c-17.17451-3.74061-35.08302-7.02412-48.90095-6.00051-12.24399-.0942-24.42241.86078-36.54858 2.65165v19.48963c12.80158-1.96383 25.60316-2.52905 38.40474-2.74003 12.33303-.49657 29.56214 2.55749 46.34042 6.04379" fill="#fff"/><path d="m-586.04632 377.46426c-17.372-3.75736-35.58726-7.11088-49.6323-6.07044-12.24399-.0942-24.42241.86078-36.54859 2.65165v19.48963c12.80158-1.96383 25.60316-2.52905 38.40474-2.74003 12.58232-.50661 30.26063 2.6824 47.35723 6.25569" fill="#cd2a3e"/><path d="m-587.33234 377.07077c-14.26201-3.24784-30.90599-6.00438-52.48018-5.66189-9.70202.15402-20.39642.94236-32.32391 2.58851" fill="none" stroke="#b47800" stroke-width="2"/><path d="m-649.32898 435.34253c-18.70885-8.73939 23.99057-12.48328-5.70626-10.28338-12.24399-.0942-5.06536.15367-17.19153 1.94454v19.48963c12.80158-1.96383 25.60316-1.96655 38.40474-2.17753 19.90055 2.49376 24.81243 2.29905 41.8653 7.78077-5.08654-8.91319-32.79321-14.79071-57.37225-16.75403z" fill="#436f4d"/><g fill="none" stroke="#b47800" stroke-width="2"><path d="m-672.09377 373.00566v20.30847m0 7.07107v19.42921m0 7.0625v18.9841"/><path d="m-673.09377 426.80615h.99456c37.10136-5.1073 62.30817-1.86301 82.60154 2.59875"/><path d="m-673.09377 419.80411h1.00289c11.90917-1.64188 22.58869-2.42841 32.27836-2.58223 20.33601-.32283 36.29148 2.10785 50.00059 5.10804"/><path d="m-673.09377 400.40621h.95785c37.6686-5.18989 63.07897-1.77207 83.53271 2.79182"/><path d="m-673.09377 393.38691h1.09147c11.87355-1.63358 22.52414-2.41659 32.18978-2.57003 21.07914-.33463 37.45174 2.28918 51.4946 5.43912"/><path d="m-673.09377 446.21136h.98651c11.91576-1.64341 22.16313-2.05559 32.35724-1.70948 19.49965.82834 36.21399 2.64653 49.0708 7.95706-15.88393-15.21136-41.09915-16.29309-65.45024-16.75049"/></g><g transform="matrix(-1 0 0 1 -1027.3125 0)"><path d="m-672.50002 383.79998c-14.05027 1.27314-24.12923 3.22026-36.74998 7.75 9.1391 28.65496 6.26023 57.94245 2.99998 87.25001 29.30327-4.55239 58.77666-8.65112 92-2.75l.00002-19v-77.257z" fill="#ffd700" stroke="#b47800" stroke-width="2"/><path d="m-696.89391 450.07317-1.76225 20.84543c8.51878-1.94831 33.97193-3.27589 44.05896-4.57951l31.90424.89975c-6.35859-3.97783-13.51348-7.39824-22.22336-9.73017l-25.98138-4.54552 10.1133-9.15959c-11.48203-.40143-26.96294 3.51864-36.10951 6.26961z" fill="#436f4d"/><path d="m-700.56252 396.11248 3.27589 19.25444c6.66262-3.09736 16.91297-4.07138 27-5.375l-.0884-19.44194c-11.30525.9244-21.04092 2.81153-30.1875 5.5625z" fill="#cd2a3e"/><path d="m-623.2689 388.63083-48.14485 2.16916c-11.16832 1.012-19.82742 2.44984-29.24842 5.27212l-.9941.26694" fill="none" stroke="#b47800" stroke-width="2"/><path d="m-696.29883 422.4883-.0829 20.40349c6.66262-3.09736 20.97883-5.39721 31.06586-6.70083l-.0884-19.44194c-11.30525.9244-21.74803 2.98831-30.8946 5.73928z" fill="#fff"/><g fill="none" stroke="#b47800" stroke-width="2"><path d="m-621.52629 407.96681-45.79898 2.06358c-11.49246 1.04137-20.32793 2.53366-30.07069 5.52138"/><path d="m-620.51487 414.97031-45.72413 2.06009c-11.61446 1.05242-20.51523 2.5654-30.38129 5.61704"/><path d="m-699.81476 470.64538.93256.12919c24.5862-3.70964 50.80842-6.32687 78.1194-2.77042-17.21623-11.25184-37.98146-14.90853-59.25795-13.6819"/><path d="m-621.21281 434.3757-41.14166 1.85373c-13.21222 1.1972-22.91275 2.99038-34.51737 6.96661"/><path d="m-620.23512 441.3807-41.03308 1.84874c-13.65688 1.23749-23.56174 3.11175-35.69574 7.37555"/><path d="m-700.69731 396.0456c1.63042 6.28402 2.72676 12.59614 3.41059 18.92998.0615.56989.15543.91709.33391 1.48733m.1614 5.20089c.0896.40592.0995.32753.12363.72969.41054 6.84808.39645 13.71852.11019 20.60328-.016.38605-.0648.71204.0943 1.12027m-.61811 5.48119c.17102.57765.14936.34287.11478.85815-.44546 6.63619-1.09203 13.28296-1.80368 19.93316"/></g></g><g transform="matrix(-1 0 0 1 -1027.3125 0)"><path d="m-583.569 364.06441c-14.76704 0-31.94752.24468-56.24352.34375-11.55153.18338-24.50985 1.26647-39.28125 3.6255v86.21825c45.28849-7.23268 72.89848.46883 95.52477 5.91947z" fill="#ffd700" stroke="#b47800" stroke-width="2"/><path d="m-586.77724 403.91231c-17.17451-3.74061-35.08302-7.02412-48.90095-6.00051-12.24399-.0942-24.42241.86078-36.54858 2.65165v19.48963c12.80158-1.96383 25.60316-2.52905 38.40474-2.74003 12.33303-.49657 29.56214 2.55749 46.34042 6.04379" fill="#fff"/><path d="m-586.04632 377.46426c-17.372-3.75736-35.58726-7.11088-49.6323-6.07044-12.24399-.0942-24.42241.86078-36.54859 2.65165v19.48963c12.80158-1.96383 25.60316-2.52905 38.40474-2.74003 12.58232-.50661 30.26063 2.6824 47.35723 6.25569" fill="#cd2a3e"/><path d="m-587.33234 377.07077c-14.26201-3.24784-30.90599-6.00438-52.48018-5.66189-9.70202.15402-20.39642.94236-32.32391 2.58851" fill="none" stroke="#b47800" stroke-width="2"/><path d="m-649.32898 435.34253c-18.70885-8.73939 23.99057-12.48328-5.70626-10.28338-12.24399-.0942-5.06536.15367-17.19153 1.94454v19.48963c12.80158-1.96383 25.60316-1.96655 38.40474-2.17753 19.90055 2.49376 24.81243 2.29905 41.8653 7.78077-5.08654-8.91319-32.79321-14.79071-57.37225-16.75403z" fill="#436f4d"/><g fill="none" stroke="#b47800" stroke-width="2"><path d="m-672.09377 373.00566v20.30847m0 7.07107v19.42921m0 7.0625v18.9841"/><path d="m-673.09377 426.80615h.99456c37.10136-5.1073 62.30817-1.86301 82.60154 2.59875"/><path d="m-673.09377 419.80411h1.00289c11.90917-1.64188 22.58869-2.42841 32.27836-2.58223 20.33601-.32283 36.29148 2.10785 50.00059 5.10804"/><path d="m-673.09377 400.40621h.95785c37.6686-5.18989 63.07897-1.77207 83.53271 2.79182"/><path d="m-673.09377 393.38691h1.09147c11.87355-1.63358 22.52414-2.41659 32.18978-2.57003 21.07914-.33463 37.45174 2.28918 51.4946 5.43912"/><path d="m-673.09377 446.21136h.98651c11.91576-1.64341 22.16313-2.05559 32.35724-1.70948 19.49965.82834 36.21399 2.64653 49.0708 7.95706-15.88393-15.21136-41.09915-16.29309-65.45024-16.75049"/></g></g><g transform="translate(-656.25 -114)"><path d="m40.28125 459.73749c-11.551532.18338-24.509849 1.26647-39.28125 3.6255v86.21825c78.780806-12.58148 106.20609 11.46875 141.65625 11.46875 35.38957-.0565 62.84328-24.03541 141.53125-11.46875v-86.21875c-78.68793-12.56665-106.14171 11.4122-141.53125 11.46875-.0418 0-.0832-.00018-.125-.00025-28.74617-.0459-52.265985-15.88701-102.25-15.0935z" fill="#ffd700" stroke="#b47800" stroke-width="2"/><path d="m7.867 522.33302v19.48963c12.801579-1.96383 25.603159-2.52905 38.404738-2.74003 26.971621-1.08597 77.359762 14.80969 95.238452 15.07021 18.68726.87913 68.94077-15.90035 92.58679-14.84924 14.84285-.37441 29.27728.27225 43.17771 2.2539v-19.26866c-13.38711-1.74396-27.06591-2.46703-40.9238-2.56326-34.52643.47858-72.82545 14.46321-91.30517 15.07021-19.59273.62978-70.933313-17.31431-100.630137-15.11441-12.243991-.0942-24.422409.86078-36.548583 2.65165z" fill="#436f4d"/><path d="m7.867 495.89278v19.48963c12.801579-1.96383 25.603159-2.52905 38.404738-2.74003 26.971621-1.08597 77.359762 14.80969 95.238452 15.07021 18.68726.87913 68.94077-15.90035 92.58679-14.84924 14.84285-.37441 29.27728.27225 43.17771 2.2539v-19.26866c-13.38711-1.74396-27.06591-2.46703-40.9238-2.56326-34.52643.47858-72.82545 14.46321-91.30517 15.07021-19.59273.62978-70.933313-17.31431-100.630137-15.11441-12.243991-.0942-24.422409.86078-36.548583 2.65165z" fill="#fff"/><path d="m7.8665631 469.3748v19.48963c12.8015789-1.96383 25.6031589-2.52905 38.4047379-2.74003 26.971621-1.08597 77.359759 14.80969 95.238449 15.07021 18.68726.87913 68.94077-15.90035 92.58679-14.84924 14.84285-.37441 29.27728.27225 43.17771 2.2539v-19.26866c-13.38711-1.74396-27.06591-2.46703-40.9238-2.56326-34.52643.47858-72.82545 14.46321-91.30517 15.07021-19.59273.62978-70.93331-17.31431-100.630134-15.11441-12.243991-.0942-24.422409.86078-36.5485829 2.65165z" fill="#cd2a3e"/><g fill="none" stroke="#b47800" stroke-width="2"><path d="m277.27459 469.3337c-73.42152-10.12655-100.28546 12.4434-134.61834 12.49826-.0418 0-.0832.00007-.125 0-28.74617-.0459-52.26598-15.88724-102.25-15.09375-9.702024.15402-20.39642.94236-32.3239054 2.58851"/><path d="m7 541.54069h.9865144c11.9157526-1.64341 22.6006216-2.43059 32.2947356-2.58448 49.98402-.79349 73.50383 15.04785 102.25 15.09375.0418.00007.0832 0 .125 0 34.30897-.0548 61.1594-22.59338 134.46498-12.51937h1.06677"/><path d="m8 468.33499v20.30847m0 7.07107v19.42921m0 7.0625v18.9841"/><path d="m277.1875 468.33499v20.37125m0 7.09375v19.3125m0 7.0625v19.01535"/><path d="m7 522.13548h.9945617c73.4490523-10.11086 100.2814883 12.50951 134.6616883 12.50951 34.31887-.0548 61.17481-22.60636 134.52825-12.51067h1.0035"/><path d="m7 515.13344h1.0028885c11.9091665-1.64188 22.5886885-2.42841 32.2783615-2.58223 49.98402-.79349 73.50383 15.04785 102.25 15.09375.0418.00007.0832 0 .125 0 34.32577-.0548 61.18569-22.61546 134.57269-12.50455h.95906"/><path d="m7 495.73554h.9578455c73.4768275-10.12346 100.3124745 12.50445 134.6984045 12.50445 34.32646-.0548 61.18669-22.61633 134.57694-12.50397h.95481"/><path d="m7 488.71624h1.0914661c11.8735509-1.63358 22.5241399-2.41659 32.1897839-2.57003 49.98402-.79349 73.50383 15.04785 102.25 15.09375.0418.00007.0832 0 .125 0 34.31141-.0548 61.16321-22.59658 134.4806-12.51723h1.05115"/></g></g></g><g stroke="#b47800" stroke-width="3.717236" transform="matrix(.325 0 0 .325 663.14659 450.32973)"><path d="m-1088.5928-5.6609047-60.3244 185.6761747h-195.2293l157.9449 114.75145-60.3232 185.67604 157.932-114.75148 157.94467 114.75148-60.32328-185.67604 157.94493-114.75145h-195.23022l-60.3361-185.6761747z" fill="#ffd700"/><path d="m-1088.5917 43.133025-49.356 151.916865h-159.7333l129.2277 93.88755-49.3555 151.91677 129.2171-93.88757 129.22753 93.88757-49.35543-151.91677 129.22767-93.88755h-159.73377z" fill="#bc0000"/></g></g></svg>