<?xml version="1.0" encoding="UTF-8" standalone="no"?>
<svg xmlns:svg="http://www.w3.org/2000/svg"   xmlns="http://www.w3.org/2000/svg" version="1.0" width="540" height="354">
<rect width="540" height="354" fill="#fff" />
<path style="fill:#0099b5" d="M 124.19837,25.953101 C 83.889227,20.35312 46.301188,48.127288 39.901251,88.534904 33.425422,129.42168 61.321526,167.83401 102.16989,174.30375 130.57226,178.80225 157.78785,166.68106 173.91677,145.12518 160.8463,155.6333 143.24706,160.81889 124.99462,157.928 91.49908,152.62283 68.441122,122.18587 73.540016,89.992714 78.638907,57.799561 109.97387,35.97758 143.46939,41.28275 154.79773,43.07698 164.93105,47.731146 173.18444,54.369823 161.91383,39.776642 145.25677,29.288422 125.6304,26.179911 125.15171,26.104096 124.67634,26.019504 124.19837,25.953101 z" id="path614"/>
</svg>
