<?xml version="1.0" encoding="UTF-8"?>
<!DOCTYPE svg PUBLIC "-//W3C//DTD SVG 1.1//EN" "http://www.w3.org/Graphics/SVG/1.1/DTD/svg11.dtd">
<svg xmlns="http://www.w3.org/2000/svg" version="1.1" width="1920px" height="960px" style="shape-rendering:geometricPrecision; text-rendering:geometricPrecision; image-rendering:optimizeQuality; fill-rule:evenodd; clip-rule:evenodd" xmlns:xlink="http://www.w3.org/1999/xlink">
<g><path style="opacity:1" fill="#c90000" d="M -0.5,-0.5 C 280.167,-0.5 560.833,-0.5 841.5,-0.5C 841.5,151.5 841.5,303.5 841.5,455.5C 560.833,455.5 280.167,455.5 -0.5,455.5C -0.5,303.5 -0.5,151.5 -0.5,-0.5 Z"/></g>
<g><path style="opacity:1" fill="#d64500" d="M 841.5,-0.5 C 841.833,-0.5 842.167,-0.5 842.5,-0.5C 842.5,151.833 842.5,304.167 842.5,456.5C 561.5,456.5 280.5,456.5 -0.5,456.5C -0.5,456.167 -0.5,455.833 -0.5,455.5C 280.167,455.5 560.833,455.5 841.5,455.5C 841.5,303.5 841.5,151.5 841.5,-0.5 Z"/></g>
<g><path style="opacity:1" fill="#fece00" d="M 842.5,-0.5 C 851.833,-0.5 861.167,-0.5 870.5,-0.5C 870.5,160.833 870.5,322.167 870.5,483.5C 580.167,483.5 289.833,483.5 -0.5,483.5C -0.5,474.5 -0.5,465.5 -0.5,456.5C 280.5,456.5 561.5,456.5 842.5,456.5C 842.5,304.167 842.5,151.833 842.5,-0.5 Z"/></g>
<g><path style="opacity:1" fill="#c90000" d="M 870.5,-0.5 C 1220.17,-0.5 1569.83,-0.5 1919.5,-0.5C 1919.5,319.5 1919.5,639.5 1919.5,959.5C 1279.5,959.5 639.5,959.5 -0.5,959.5C -0.5,800.833 -0.5,642.167 -0.5,483.5C 289.833,483.5 580.167,483.5 870.5,483.5C 870.5,322.167 870.5,160.833 870.5,-0.5 Z"/></g>
<g><path style="opacity:1" fill="#fecc00" d="M 67.5,58.5 C 84.5,58.5 101.5,58.5 118.5,58.5C 118.5,123.5 118.5,188.5 118.5,253.5C 134.167,253.5 149.833,253.5 165.5,253.5C 165.5,188.5 165.5,123.5 165.5,58.5C 182.5,58.5 199.5,58.5 216.5,58.5C 216.667,158.167 216.5,257.834 216,357.5C 211.321,380.513 197.487,394.68 174.5,400C 138.835,400.5 103.168,400.667 67.5,400.5C 67.5,384.167 67.5,367.833 67.5,351.5C 100.167,351.5 132.833,351.5 165.5,351.5C 165.5,335.167 165.5,318.833 165.5,302.5C 146.164,302.667 126.83,302.5 107.5,302C 85.6609,295.83 72.4943,281.663 68,259.5C 67.5,192.501 67.3333,125.501 67.5,58.5 Z"/></g>
<g><path style="opacity:1" fill="#fecc00" d="M 298.5,58.5 C 321.836,58.3334 345.169,58.5 368.5,59C 390.131,63.9641 403.964,77.1308 410,98.5C 410.5,128.832 410.667,159.165 410.5,189.5C 393.5,189.5 376.5,189.5 359.5,189.5C 359.5,162.167 359.5,134.833 359.5,107.5C 342.167,107.5 324.833,107.5 307.5,107.5C 307.5,188.833 307.5,270.167 307.5,351.5C 324.833,351.5 342.167,351.5 359.5,351.5C 359.5,324.167 359.5,296.833 359.5,269.5C 376.5,269.5 393.5,269.5 410.5,269.5C 410.667,298.835 410.5,328.169 410,357.5C 405.294,380.54 391.46,394.707 368.5,400C 345.167,400.667 321.833,400.667 298.5,400C 275.553,394.719 261.719,380.553 257,357.5C 256.333,271.167 256.333,184.833 257,98.5C 263.235,77.0954 277.068,63.7621 298.5,58.5 Z"/></g>
<g><path style="opacity:1" fill="#fecc00" d="M 492.5,58.5 C 515.836,58.3334 539.169,58.5 562.5,59C 584.131,63.9641 597.964,77.1308 604,98.5C 604.5,128.832 604.667,159.165 604.5,189.5C 587.5,189.5 570.5,189.5 553.5,189.5C 553.5,162.167 553.5,134.833 553.5,107.5C 536.167,107.5 518.833,107.5 501.5,107.5C 501.5,188.833 501.5,270.167 501.5,351.5C 518.833,351.5 536.167,351.5 553.5,351.5C 553.5,324.167 553.5,296.833 553.5,269.5C 570.5,269.5 587.5,269.5 604.5,269.5C 604.667,298.835 604.5,328.169 604,357.5C 599.294,380.54 585.46,394.707 562.5,400C 539.167,400.667 515.833,400.667 492.5,400C 469.553,394.719 455.719,380.553 451,357.5C 450.333,271.167 450.333,184.833 451,98.5C 457.235,77.0954 471.068,63.7621 492.5,58.5 Z"/></g>
<g><path style="opacity:1" fill="#fecc00" d="M 644.5,58.5 C 679.835,58.3333 715.168,58.5 750.5,59C 772.684,63.5165 786.851,76.6832 793,98.5C 793.667,143.833 793.667,189.167 793,234.5C 790.836,244.658 785.336,252.491 776.5,258C 770.543,261.476 764.209,264.143 757.5,266C 736.873,267.428 716.207,267.928 695.5,267.5C 695.5,311.833 695.5,356.167 695.5,400.5C 678.5,400.5 661.5,400.5 644.5,400.5C 644.5,286.5 644.5,172.5 644.5,58.5 Z"/></g>
<g><path style="opacity:1" fill="#c80000" d="M 695.5,107.5 C 711.167,107.5 726.833,107.5 742.5,107.5C 742.5,148.167 742.5,188.833 742.5,229.5C 726.833,229.5 711.167,229.5 695.5,229.5C 695.5,188.833 695.5,148.167 695.5,107.5 Z"/></g>
</svg>
