<svg xmlns="http://www.w3.org/2000/svg" width="1300" height="900">
  <path fill="#fff" d="M0 0h1300v900H0z"/>
  <path fill="#ce1126" d="m337.037 0-48.14813 16.071525L337.037 32.142881l-48.14813 16.071367L337.037 64.285773 288.88887 80.35714 337.037 96.428496l-48.14813 16.071544 48.14813 16.07135-48.14813 16.07138 48.14813 16.07152-48.14813 16.07138 48.14813 16.07136-48.14813 16.07153 48.14813 16.07136-48.14813 16.07152 48.14813 16.07137-48.14813 16.07137L337.037 289.2857l-48.14813 16.07138 48.14813 16.07135-48.14813 16.07154 48.14813 16.07135-48.14813 16.07136L337.037 385.7142l-48.14813 16.07137 48.14813 16.07152-48.14813 16.07137L337.037 449.9998l-48.14813 16.07155 48.14813 16.07137-48.14813 16.07136 48.14813 16.07153-48.14813 16.07137 48.14813 16.07138-48.14813 16.07151 48.14813 16.07135-48.14813 16.07154 48.14813 16.07136-48.14813 16.07136 48.14813 16.07153-48.14813 16.07138 48.14813 16.07137-48.14813 16.07152 48.14813 16.07134-48.14813 16.07136 48.14813 16.07154-48.14813 16.07135 48.14813 16.07154-48.14813 16.07136 48.14813 16.07138-48.14813 16.07153 48.14813 16.07137-48.14813 16.07134 48.14813 16.07155-48.14813 16.07134 48.14813 16.07139h962.9629V0Z"/>
</svg>