<?xml version="1.0" encoding="UTF-8" standalone="no"?>
<!-- Created with Inkscape (http://www.inkscape.org/) -->

<svg
   version="1.1"
   id="svg824"
   width="300"
   height="150"
   viewBox="0 0 300 150"
   sodipodi:docname="Turkestan_Autonomous_SSR_Flag.svg"
   inkscape:version="1.1.1 (3bf5ae0d25, 2021-09-20)"
   xmlns:inkscape="http://www.inkscape.org/namespaces/inkscape"
   xmlns:sodipodi="http://sodipodi.sourceforge.net/DTD/sodipodi-0.dtd"
   xmlns="http://www.w3.org/2000/svg"
   xmlns:svg="http://www.w3.org/2000/svg">
  <defs
     id="defs828" />
  <sodipodi:namedview
     id="namedview826"
     pagecolor="#ffffff"
     bordercolor="#666666"
     borderopacity="1.0"
     inkscape:pageshadow="2"
     inkscape:pageopacity="0.0"
     inkscape:pagecheckerboard="0"
     showgrid="false"
     showguides="true"
     inkscape:guide-bbox="true"
     inkscape:zoom="6.6464403"
     inkscape:cx="66.953133"
     inkscape:cy="47.393791"
     inkscape:window-width="1822"
     inkscape:window-height="1046"
     inkscape:window-x="87"
     inkscape:window-y="-11"
     inkscape:window-maximized="1"
     inkscape:current-layer="g830" />
  <g
     inkscape:groupmode="layer"
     inkscape:label="Image"
     id="g830">
    <rect
       style="fill:#cc0000;fill-opacity:1;fill-rule:evenodd;stroke:#ffffff;stroke-width:0;stop-color:#000000"
       id="rect970"
       width="300"
       height="150"
       x="5e-07"
       y="0" />
    <path
       style="fill:none;stroke:#ffd700;stroke-width:1.13385827;stroke-linecap:butt;stroke-linejoin:miter;stroke-opacity:1;stroke-miterlimit:4;stroke-dasharray:none"
       d="M 0,75.422431 H 120.51081 V 0"
       id="path4267"
       sodipodi:nodetypes="ccc" />
    <path
       style="fill:none;stroke:#ffd700;stroke-width:1.13385827;stroke-linecap:butt;stroke-linejoin:miter;stroke-opacity:1;stroke-miterlimit:4;stroke-dasharray:none"
       d="M 123.50294,0 V 78.390009 H 0"
       id="path4359"
       sodipodi:nodetypes="ccc" />
    <g
       aria-label="T. C. C. P."
       transform="matrix(0.65889721,0,0,1.5176874,-1.4960649,-1.483787)"
       id="text4763"
       style="font-size:39.2775px;line-height:1.25;font-family:Ubuntu;-inkscape-font-specification:Ubuntu;word-spacing:0px;fill:#ffd700;stroke-width:1.22741">
      <path
         d="m 38.552605,12.422237 v 3.29931 H 29.99011 V 39.641544 H 26.180193 V 15.721547 h -8.562495 v -3.29931 z"
         id="path17484" />
      <path
         d="m 43.697874,37.520559 q 0,1.060493 -0.706995,1.846043 -0.706995,0.78555 -1.924597,0.78555 -1.217603,0 -1.924598,-0.78555 -0.706995,-0.78555 -0.706995,-1.846043 0,-1.060492 0.706995,-1.846042 0.706995,-0.78555 1.924598,-0.78555 1.217602,0 1.924597,0.78555 0.706995,0.78555 0.706995,1.846042 z"
         id="path17486" />
      <path
         d="m 70.052973,40.230707 q -2.867257,0 -5.223907,-0.94266 -2.35665,-0.94266 -4.045583,-2.749425 -1.688932,-1.806765 -2.631592,-4.438358 -0.903383,-2.67087 -0.903383,-6.088012 0,-3.417143 1.021215,-6.048735 1.060493,-2.67087 2.82798,-4.477635 1.767488,-1.806765 4.124138,-2.749425 2.35665,-0.94266 5.02752,-0.94266 1.688932,0 3.024367,0.235665 1.374713,0.235665 2.35665,0.549885 1.021215,0.31422 1.649655,0.62844 0.62844,0.31422 0.864105,0.47133 l -1.09977,3.1422 q -0.353497,-0.235665 -1.021215,-0.510608 -0.667717,-0.274942 -1.531822,-0.549885 -0.824828,-0.274942 -1.846043,-0.432052 -0.981937,-0.196388 -2.003152,-0.196388 -2.160263,0 -3.888473,0.746273 -1.72821,0.746272 -2.945812,2.160262 -1.217603,1.41399 -1.88532,3.45642 -0.62844,2.003153 -0.62844,4.516913 0,2.435205 0.549885,4.438357 0.589162,2.003153 1.72821,3.45642 1.139047,1.41399 2.82798,2.19954 1.72821,0.78555 4.006305,0.78555 2.631592,0 4.359802,-0.549885 1.72821,-0.549885 2.592315,-0.981937 l 0.981938,3.1422 q -0.274943,0.196387 -0.981938,0.510607 -0.706995,0.274943 -1.767487,0.549885 -1.060493,0.274943 -2.474483,0.47133 -1.41399,0.196388 -3.063645,0.196388 z"
         id="path17488" />
      <path
         d="m 87.649226,37.520559 q 0,1.060493 -0.706995,1.846043 -0.706995,0.78555 -1.924598,0.78555 -1.217602,0 -1.924597,-0.78555 -0.706995,-0.78555 -0.706995,-1.846043 0,-1.060492 0.706995,-1.846042 0.706995,-0.78555 1.924597,-0.78555 1.217603,0 1.924598,0.78555 0.706995,0.78555 0.706995,1.846042 z"
         id="path17490" />
      <path
         d="m 114.00433,40.230707 q -2.86726,0 -5.22391,-0.94266 -2.35665,-0.94266 -4.04558,-2.749425 -1.68893,-1.806765 -2.63159,-4.438358 -0.90339,-2.67087 -0.90339,-6.088012 0,-3.417143 1.02122,-6.048735 1.06049,-2.67087 2.82798,-4.477635 1.76749,-1.806765 4.12414,-2.749425 2.35665,-0.94266 5.02752,-0.94266 1.68893,0 3.02436,0.235665 1.37472,0.235665 2.35665,0.549885 1.02122,0.31422 1.64966,0.62844 0.62844,0.31422 0.8641,0.47133 l -1.09977,3.1422 q -0.35349,-0.235665 -1.02121,-0.510608 -0.66772,-0.274942 -1.53182,-0.549885 -0.82483,-0.274942 -1.84605,-0.432052 -0.98193,-0.196388 -2.00315,-0.196388 -2.16026,0 -3.88847,0.746273 -1.72821,0.746272 -2.94581,2.160262 -1.21761,1.41399 -1.88532,3.45642 -0.62844,2.003153 -0.62844,4.516913 0,2.435205 0.54988,4.438357 0.58916,2.003153 1.72821,3.45642 1.13905,1.41399 2.82798,2.19954 1.72821,0.78555 4.00631,0.78555 2.63159,0 4.3598,-0.549885 1.72821,-0.549885 2.59231,-0.981937 l 0.98194,3.1422 q -0.27494,0.196387 -0.98194,0.510607 -0.70699,0.274943 -1.76748,0.549885 -1.0605,0.274943 -2.47449,0.47133 -1.41399,0.196388 -3.06364,0.196388 z"
         id="path17492" />
      <path
         d="m 131.60058,37.520559 q 0,1.060493 -0.70699,1.846043 -0.707,0.78555 -1.9246,0.78555 -1.2176,0 -1.9246,-0.78555 -0.70699,-0.78555 -0.70699,-1.846043 0,-1.060492 0.70699,-1.846042 0.707,-0.78555 1.9246,-0.78555 1.2176,0 1.9246,0.78555 0.70699,0.78555 0.70699,1.846042 z"
         id="path17494" />
      <path
         d="m 153.47804,12.147294 q 5.73452,0 8.79816,2.19954 3.10292,2.160263 3.10292,6.480788 0,2.35665 -0.8641,4.045582 -0.82483,1.649655 -2.43521,2.710148 -1.5711,1.021215 -3.84919,1.492545 -2.2781,0.47133 -5.14535,0.47133 h -3.02437 v 10.094317 h -3.80992 V 12.815012 q 1.61038,-0.392775 3.57425,-0.510608 2.00316,-0.15711 3.65281,-0.15711 z m 0.31422,3.338588 q -2.4352,0 -3.73136,0.117832 v 10.68348 h 2.86726 q 1.96387,0 3.53497,-0.235665 1.5711,-0.274942 2.63159,-0.864105 1.09977,-0.62844 1.68894,-1.688932 0.58916,-1.060493 0.58916,-2.710148 0,-1.5711 -0.62844,-2.592315 -0.58916,-1.021215 -1.64966,-1.610377 -1.02121,-0.62844 -2.39592,-0.864105 -1.37472,-0.235665 -2.90654,-0.235665 z"
         id="path17496" />
      <path
         d="m 170.68158,37.520559 q 0,1.060493 -0.70699,1.846043 -0.707,0.78555 -1.9246,0.78555 -1.2176,0 -1.9246,-0.78555 -0.70699,-0.78555 -0.70699,-1.846043 0,-1.060492 0.70699,-1.846042 0.707,-0.78555 1.9246,-0.78555 1.2176,0 1.9246,0.78555 0.70699,0.78555 0.70699,1.846042 z"
         id="path17498" />
    </g>
  </g>
</svg>
