<svg height="600" width="1200" xmlns="http://www.w3.org/2000/svg" xmlns:xlink="http://www.w3.org/1999/xlink"><clipPath id="c1"><path d="m0 0h650v350h0-650z"/></clipPath><clipPath id="c2"><path d="m0 0v150h700v150h-100zm0 300v50h300v-350h300z"/></clipPath><path d="m0 0h1200v600h-1200z" fill="#012169"/><path clip-path="url(#c1)" d="m0 0 600 300m0-300-600 300" stroke="#fff" stroke-width="60"/><path clip-path="url(#c2)" d="m0 0 600 300m0-300-600 300" stroke="#c8102e" stroke-width="40"/><path d="m0 150h700m-400-150v350" stroke="#fff" stroke-width="100"/><path d="m0 150h700m-400-150v350" stroke="#c8102e" stroke-width="60"/><path d="m0 300h600v-300h600v600h-1200z" fill="#009cde"/><g fill="#fedd00"><path d="m626.445 324.23-57.341 41.582 21.937 67.349-57.267-41.685-57.273 41.675 21.948-67.345-57.334-41.592 70.831.064 21.839-67.381 21.828 67.384z" transform="matrix(.60804148 0 0 .57222908 795.45241 -118.84676)"/><path d="m626.445 324.23-57.341 41.582 21.937 67.349-57.267-41.685-57.273 41.675 21.948-67.345-57.334-41.592 70.831.064 21.839-67.381 21.828 67.384z" transform="matrix(.60804148 0 0 .57222908 688.21433 186.11167)"/><path d="m626.445 324.23-57.341 41.582 21.937 67.349-57.267-41.685-57.273 41.675 21.948-67.345-57.334-41.592 70.831.064 21.839-67.381 21.828 67.384z" transform="matrix(.60804148 0 0 .57222908 795.45248 117.07711)"/><path d="m626.445 324.23-57.341 41.582 21.937 67.349-57.267-41.685-57.273 41.675 21.948-67.345-57.334-41.592 70.831.064 21.839-67.381 21.828 67.384z" transform="matrix(.60804148 0 0 .57222908 334.32836 338.25586)"/><path d="m626.445 324.23-57.341 41.582 21.937 67.349-57.267-41.685-57.273 41.675 21.948-67.345-57.334-41.592 70.831.064 21.839-67.381 21.828 67.384z" transform="matrix(-.60804148 0 0 -.57222908 1101.6667 587.93058)"/><path d="m626.445 324.23-57.341 41.582 21.937 67.349-57.267-41.685-57.273 41.675 21.948-67.345-57.334-41.592 70.831.064 21.839-67.381 21.828 67.384z" transform="matrix(-.60804148 0 0 -.57222908 1227.6715 413.66861)"/><path d="m626.445 324.23-57.341 41.582 21.937 67.349-57.267-41.685-57.273 41.675 21.948-67.345-57.334-41.592 70.831.064 21.839-67.381 21.828 67.384z" transform="matrix(-.60804148 0 0 -.57222908 1333.5693 377.47571)"/><path d="m626.445 324.23-57.341 41.582 21.937 67.349-57.267-41.685-57.273 41.675 21.948-67.345-57.334-41.592 70.831.064 21.839-67.381 21.828 67.384z" transform="matrix(-.60804148 0 0 -.57222908 1227.6715 679.08295)"/><path d="m626.445 324.23-57.341 41.582 21.937 67.349-57.267-41.685-57.273 41.675 21.948-67.345-57.334-41.592 70.831.064 21.839-67.381 21.828 67.384z" transform="matrix(-.60804148 0 0 -.57222908 1101.6667 709.91383)"/></g></svg>