<?xml version="1.0" encoding="utf-8"?>
<!-- Generator: Adobe Illustrator 27.8.1, SVG Export Plug-In . SVG Version: 6.00 Build 0)  -->
<svg version="1.1" id="Layer_1" xmlns="http://www.w3.org/2000/svg" xmlns:xlink="http://www.w3.org/1999/xlink" x="0px" y="0px"
	 viewBox="0 0 900 600" style="enable-background:new 0 0 900 600;" xml:space="preserve">
<style type="text/css">
	.st0{fill-rule:evenodd;clip-rule:evenodd;fill:#6ABD51;}
	.st1{fill-rule:evenodd;clip-rule:evenodd;fill:#FCDD09;}
	.st2{fill:#DA121A;}
	.st3{fill:#7D4B23;stroke:#FCDD09;stroke-width:0.2449;stroke-miterlimit:4.7926;}
	.st4{fill:#FCDD09;}
	.st5{fill:#7D4B23;stroke:#FCDD09;stroke-width:0.3674;stroke-linejoin:round;stroke-miterlimit:4.7926;}
	.st6{fill:none;stroke:#FCDD09;stroke-width:0.9801;stroke-linecap:round;stroke-linejoin:round;stroke-miterlimit:4.7926;}
	.st7{fill:none;stroke:#FCDD09;stroke-width:0.9798;stroke-linecap:round;stroke-linejoin:round;stroke-miterlimit:4.7926;}
</style>
<g transform="translate(164.04167 385.3988)">
	<path class="st0" d="M-164-385.4h900v600h-900L-164-385.4z"/>
	<g transform="matrix(1.1981566 0 0 1.1979346 -159.75594 -382.48645)">
		<ellipse class="st1" cx="372" cy="248" rx="130.2" ry="130.2"/>
		<path class="st2" d="M303.1,229.6c-4.5,0.6-5.7-7.4-5.4-13.5c0.1-1.4,3.6-9.3,3.6-1.9c0,1.8,1.4,3.1,2,4.8
			c1.8,4.6,4.7,7.4,3.4,1.9c-1-4.3-9-18.8,12.7-31.6c9.4-5.5,19.2-7.5,27.9-17.1c1-1.1,3.5-5,3.8,0.2c0.1,1.4-1.2,2.6-2.5,4.3
			c-1.2,1.7-3.1,4.5,1.9,2.5c4-1.6,6.9-4.2,10.1-7.9c4.7-5.3,10.1-7.1,20.2-14.2c3.2-2.2,7.8-2,2.6,2.2c-1.6,1.3-1.8,5.6-3.5,8
			c-1.3,1.8-6.3,5.5,0.4,3.4c6.6-2.1,10.4-1.9,22.5-13.5c2.5-2.5,4-6.4,14.2-4.9c5.8,0.9,10.9,1.1,16.2-2.5c1.5-1,5.5-3.9,1.5,2
			c-8.9,13.4-20.9,7.1-28.5,15.6c-4.1,4.5-0.9,3.1,2.1,0.6c2.9-2.4,6.1-4.2,11.7-2.1c2,0.7,3.8,0.2,5.8-1.3c3.7-2.8,2.8-0.1,1.8,2
			c-1.5,3.3-4.8,4.1-8.1,5.3c-2.7,1-1.6,1.7,0.7,2c5.5,0.8,14.5,2.6,16.1,1.5c2.1-1.4,3.4-1.3,0.8,2c-3.5,4.5-9.7,4.9-16.5,5.2
			c-3.9,0.2-9.2,3.3-14.1,7.5c-3.8,3.2-3.5,3-0.9,2.5c1.3-0.3,5.5-0.7,1.5,2.6c-1.5,1.2-4.3,5.7-6.5,7.8c-1.5,1.5-3.7,2.6-6.3,3.5
			c-2.1,0.7-7,0.7-1.1,2.2c6.4,1.6,11.7,0.8,17.8-1c5.5-1.6,10.8,0.9,17,4.7c3.6,2.2,7.2,4.9,13.2,3.1c3.3-1,5.8-1,1.5,2.7
			c-5.1,4.3-12.1,5.8-20.9,4.2c-3.8-0.7-7.5-1.4-11.3-2.1c-3.5-0.6-7,0.5-0.2,1.5c8.2,1.2,13.7,7.9,23.3,10.3c1.1,0.3,2.2,0,3.2-0.1
			c1.9-0.2,5.8,0.3,1.4,2.5c-4,2-6.4,2.1-13.5,1c-2.2-0.3-4.5-0.7-6.7-1c-2.6-0.4-4-0.5-0.4,1.2c5.2,2.4,8,6.5,16.5,7.2
			c4.1,0.4,3.4,1.2,0.6,2.5c-4.3,2-9.3,2-14.3,1.5c-3.3-0.3-4.7-1.7-10.2-0.8c-4.7,0.7-5,2.7-14.2-1.7c-4.5-2.2-5.6-3.3-7.8-4.4
			c-2.3-1.1-5.2-2.7-2.1,1.7c2.6,3.7,3.1,7.7,12.1,11.9c3.6,1.7,4.6,1.9-0.1,2.3c-12.2,1.1-12.4-1.7-17.1-3.9
			c-3.5-1.6-6.6-2.4-10.9-1.5c-2.4,0.5-10.4,2.5-14.5,5.7c-4.2,3.3-15.9-0.2-15.9-0.2C348.4,239.2,316.9,229.4,303.1,229.6
			L303.1,229.6z"/>
		<g transform="translate(.000015 .011959)">
			<g>
				<path class="st3" d="M319.3,292.6c0.4-5.2,3.1-8.8,5-14.1c0.1,0,10-14.6,16.5-22.7c2.5-3.7,4.8-3.5,9-4.3c7-1.5,0.9-2.1,0.1-2.2
					c-2.2-0.5-3-1.3-5.9-2.2c-3.8-1.2,0.5-0.7,1.3-0.9l5.6-1.1c11.3-2.1,0.6-2.1-7.7-5.5c-13.7-5.5-21.2-11.4-37.5-12.5
					c-3.9-0.3-3.8,3.4-1.7,5.5c1.9,1.9,1.7,3.9,1.9,6.2c0.8,10.2,0.9,20.2,1.5,30.4c-2.2,6.8-5.1,13.9-6.6,20.4L319.3,292.6z"/>
				<path class="st4" d="M303.1,229.1c-0.7,0-0.2,1.1-0.2,1.7c0.6,1.5,2,2.4,2.6,3.9c0.8,0.2,1.6,0.2,2.3,1.2l0.1,8.8
					c-0.7-0.5-1.2-0.7-1.8-0.9c0.1,0.7-0.3,1.5-0.6,1.8c-0.2,0.2,0,0.5,0,0.8l2.2,1.3l-0.1,8.2l-1.8,0.4c0,5,0,10,1.1,14.2l0.9-0.6
					c0.9-0.1,1,0.6,0.7,2c-0.8,4.4-2.1,8.8-3.8,13.4c-0.9,2.6-2,2.2-3.2,2.3l5.3-17.1l-5.5,17.5l-0.4,1.2c1,0.1,1.3,0.6,3,0.2
					c1.7-0.8,3.6-1.4,5.4-2.1c-1.2-0.3-1.3-1.3-1.3-2.3c0-3.6,1.7-7.7,2.6-11.6c0.5-1.2,0.3-2.9,3.4-2.3c2.1,0.6,4,1,6.8,2.3
					c1.8,1,3.5,2.2,4.1,4l2.4-3.2c-1.5-1.4-7.9-3.4-12.3-5c-0.5-0.3-1.1-0.4-0.8-1.8l1.1-4.3c0.2-2,1.3-1.9,2.6-1.4
					c3.3,0.3,10.8,3.8,12.9,7.6l2.5-3.5c-5.1-2.9-10-4.9-14.8-6.6c-1.4-0.6-1.3-1.7-1.3-2.8l0.1-5.1c0.5-2.6,1.2-1.9,1.8-1.9
					c5.6,1.3,13.9,4.3,19.3,9.4c1-0.9,1-2.5,3.6-2.1l-0.4-2.4c-0.5-0.6-6.5-1.2-8.5-2.4c-4.2-1.9-8.3-3.7-12.7-4.8
					c-1.4-0.3-1.4-1.4-1.2-2.5l0.5-5.2c0.3-1.8,1.7-2.5,1.5,0.2c-0.8,7.9,0.7,6.5,2.1,0.1c0.3-1.5,2.3-1.5,1.6,0.8
					c-0.3,1.3-1,3.6,0.9,0.5c0.4-0.7,0.9-1.6,2-1.3c5.8,1.8,5.8,3.1,8.3,4c2.7,1,5.3-0.3,1.8-1.9c-8.3-3.7-16.6-7.2-25.9-9.7
					c-2.4-0.5-4.6,0.9-7.2-2.1C304,229.3,303.4,229.1,303.1,229.1L303.1,229.1z M312.7,235.3c0.8,0,1.6,1.2,1.4,2.2l-0.4,5.2
					c-0.1,3.3-2.5,2.6-2.3,0.3l0.2-5.7C311.7,235.8,312.2,235.3,312.7,235.3z M317.3,236.1c0.7,0,1.4,1,1.1,2.4l-0.6,5.7
					c-0.4,2-2.7,1.9-2.5-0.2l0.8-6.6C316.5,236.5,316.9,236.1,317.3,236.1L317.3,236.1z M311.9,247.9c0.6,0,1.1,0.6,1,1.8l-0.5,5
					c-0.1,2.5-2.1,2.5-1.9,0.1l0.2-5.2C310.7,248.4,311.3,247.9,311.9,247.9z M315.4,249.8c0.4,0,0.9,0.5,0.9,1.4l-0.5,4.1
					c0,2-1.8,1.9-1.6,0.1l0.3-4.1C314.6,250.3,315,249.9,315.4,249.8L315.4,249.8z M310.2,260.3c0.4,0,0.7,0.5,0.6,1.6l-0.5,4.5
					c0,1.1-1.4,1.2-1.2,0.1l0.4-4.5C309.5,260.8,309.9,260.3,310.2,260.3z M313,260.6c0.5,0,0.9,0.6,0.7,1.4l-0.4,3.2
					c0,0.9-1.4,1.6-1.4,0l0.4-3.3C312.3,261,312.7,260.6,313,260.6L313,260.6z"/>
			</g>
			<g>
				<path class="st5" d="M288.7,317.7c1.2,3.2,1.6,6.5,1.8,9.9l-5.1,17.5c3.3,2.9,6.9,6,10.8,8.6l5.6-15c0.7-1.7,1.9-0.7,3,0.2
					c2.1,1.8,3,3.5,7.1,3.1c3.5-0.3,3.2-0.3,6,1.6c16.5,11.9,27.2,21.6,43.4,33.9c15.4,1.2,34.2,0.9,58-8.5
					c-22.3-21.3-44-21.9-56.6-29.1c-10.7-6.1-21.4-9.9-27.1-19.1c-2.5-4.1-0.4-6.9-2.9-10.4c-3.6-5-3.1-8.5-4.9-12.3
					c-1.3-2.7-3.1-5.1-5.6-6.8c-1.9-1.3-5.2-4-12.4-4.1l-5.7,1.4l-6.1,0.7l-1.3,4.2l-3.2,1.9l-4,8.1L288.7,317.7z"/>
				<g>
					<path class="st4" d="M287.4,346.6l5.6-19.1c1.2-4.2,4.1-3.2,2.7,1.2l-6.2,19.7L287.4,346.6z"/>
					<path class="st4" d="M299,329.1c2.1-5,3.8-3.8,2.1,1.1l-7.2,21.7c-0.6-0.5-1.1-0.9-1.9-1.5L299,329.1z"/>
					<path class="st4" d="M384.5,377.4c-11.7-7.7-19.4-13.7-25.5-19.7c-19.9-19.4-2.3-4,6.6,2.9c7.2,5.5,14,10.2,24.4,16.2
						L384.5,377.4z"/>
					<path class="st4" d="M299.1,288.5c-1.8,0-3.2,1.7-2.6,3.9c-0.1,1.1-0.5,1.2-0.8,1.6c-1.6,0.6-0.7-1.4-4.4,2.4
						c-0.6,1-0.8,1.1-0.8,1.8c0.1,1.4-0.4,3-1.1,3.9c-0.7,0.7-0.9,1.3-1,2.2c-0.1,0.8,0,1.6,0,2.4c0.1,0.9,0,1.7-0.1,2.6
						c-0.2,0.9-0.3,1.7-0.2,2.7c0.2,1.1,0.3,1.9,0.1,3c-0.6,2.5-0.3,3.5,0,4.5c0.5,0.8,0.5,1.6,0.5,2.5c0.1,0.9,0.2,2,0.5,2.9
						c0.6,0.6,1.2,2.6,0.9,3.7c1.6-4.9,4.5-8.1,10.6-6c2.3,1.4,3.4-2.7,5.1-0.6c2.1,0.3,6.2-1.7,6.2,0.8c0.3,2.5,0.4,5.5,4.4,6.8
						c2.2,0.8,6.1-0.7,5.6,3.9c0.2,2.6-3,4.7,0.7,7.6c2.7,2.1,9.6,1.6,4.9-1c-2.1-1.5-2.9-1.7-3.5-3c-1.3-2.9,0.6-4.7,1.3-3.9
						l8.9,9.2c6.9,7.8,14.9,15.2,22.6,22.6l4.7,4.6c2,2.7,4.3,5.1,5.9,8.4c1,0,1.7,0.1,2.4,0.1c-2.5-3.1-5.2-5.6-7.8-8.2
						c-9.5-10.2-19.6-19.9-28.5-30.6c-1.3-1.5-1-1.6-1.2-2c-0.3-3.8-2-6.1-3-9.1c-1.1-3.4,1.8-6.1,2.2-9.4c0.4-4.3-2.3-3.3-2.1,0.2
						c0.1,2.6-2.1,4.1-2.6,5.9c-0.4,1.4-0.7,2.7,0.4,4.5c1.6,2,2.1,3.4,2.8,4.8c1,2.4,0.2,1.5-0.5,0.8c-2.2-1.9-3.8-3.9-5.5-6.2
						c-2-2.7-2.8-1.2-5-1.4c-2.6-0.1-3.3-1.4-4.5-3.8c-1.6-8.4,0.1-9.5,1.5-21.7c0.3-1.6,6.2-2.7,1.9-3c-4.2-0.1-4.1,0-5.3-2
						c-0.5-0.8-0.6-1.2-0.6-2c-0.1-1-1.1-1-2.5-0.2c-4.1,1.9-6.6,2.2-10.4,0.5c-0.1-0.2-0.1-0.5,0.3-1c2.2,0.3,2.6-0.5,3.1-1.2
						c0.6-0.9,0.3-2.3-0.2-3c-0.4-0.6-1.7-1-3.1-1.2C299.2,288.5,299.2,288.5,299.1,288.5L299.1,288.5z M298.9,290.1l2.4,0.2
						c0,0.8-0.5,1.2-0.4,2.5c-1.3,0-2,0-2.7-0.1C298.3,291.3,298.4,290.9,298.9,290.1L298.9,290.1z M295.7,295.8
						c0.5,0,0.9,0.1,1.4,0.3l4.2,1.9c1.8,0.4,3.6,0.4,5.6-0.2c1.6-0.3,3-0.2,4,0.8c0.6,0.6,1.2,0.9,1.2,1.8
						c-0.1,1.8-1.6,3.6-3.5,1.4c-0.8-0.9-2.2-0.6-3.3-0.9c-1.7,0.2-3.4,0.2-5,0c-2.3,0-4.4-0.2-5.7-0.9
						C291.4,298.4,293.3,295.8,295.7,295.8L295.7,295.8z M300.1,302.1c2.8,0,5.3,0.4,6.7,2c1.5,1.4,4.3,1.7,4.3,3.8
						c0,1.5-1.4,4.9-3.8,2.5c-1.9-1.9-2.9-2.6-5.2-3l-8.8-0.2c-1.7,0.6-4.5-4.4,0.5-4.7C295.6,302.3,297.9,302.1,300.1,302.1
						L300.1,302.1z M297.3,309c1.4,0,2.7,0.1,4.1,0.2c2.6,0.4,3.7,1.7,5.3,2.7l1.5,1.5c0.3,1.4-1.2,4.3-3,3.6c0,0-2.9-1.9-4.5-2.3
						c-2.5-0.8-7.9-0.8-7.9-0.8c-3.1,0-3.5-3.6-0.7-4.3C293.8,309.2,295.6,309,297.3,309z M313,310.5c1.1,0-1.2,3.3-1.6,1.9
						c0.3-0.7,0.5-1.2,1-1.7C312.6,310.5,312.8,310.5,313,310.5L313,310.5z M298.7,315.8c2.8,0.5,3.3,4.2,0.1,4.7l-4.6-0.1l-2,0.6
						c-2.3,0.6-3.2-1.6-1.3-3.8C292.1,315.6,295.9,316.2,298.7,315.8z M310,316.9c0.6,0,1,0.5,0,2.1c-0.5,0.7-1.4,0.5-1.7-0.5
						c-0.2-0.8,0.5-1.2,1.3-1.5C309.7,317,309.9,316.9,310,316.9L310,316.9z"/>
					<path class="st4" d="M302.2,334.5c0.7-4.4,2-6.4,3.7-10.3c0.4-1.1,0.1-2.1-0.1-3.1l5.5,0.3c0,0.3-0.7,0-1.1,0.5
						c-1.8,2.7-4.8,8.4-6.3,13c1,1.3,1.1,2.6,1.1,4c-0.8-0.7-1.3-0.9-1.7-1c-1-0.5-1.6,1-2.1,2.8c0.2-1.2,0.5-1.5,0.5-2.2
						c-0.5-0.5-0.5-2.1,0-2.4C302.2,335.6,302.1,335.1,302.2,334.5L302.2,334.5z"/>
					<path class="st4" d="M315.2,341.9c1.2,0.3,2,1,2.8,1.7c0.1,0.1-0.1-1,0.6-1.9c0.4-0.4-1.3-1.2-1.8-0.9
						C316.3,341.3,315.5,341.8,315.2,341.9L315.2,341.9z"/>
					<path class="st4" d="M384.2,359.3c4.9,5.5,5.6,4.2,3.5,1.4c-11.2-14.9-16.6-14.4-12.3-10.5
						C379.2,353.8,378.9,353.3,384.2,359.3L384.2,359.3z"/>
				</g>
				<g>
					<path class="st6" d="M419.3,368.8c-22.3-21.3-43.9-21.7-56.6-28.9c-10.7-6.1-21.4-9.8-27-19c-2.5-4.1-0.4-6.9-2.9-10.4
						c-3.6-5-3.1-8.5-4.9-12.3c-1.3-2.7-3.1-5.1-5.6-6.8c-1.9-1.3-5.2-4-12.4-4.1l-5.7,1.4"/>
					<path class="st7" d="M291,326l-5.4,18.8"/>
				</g>
			</g>
		</g>
	</g>
</g>
</svg>
