<svg xmlns="http://www.w3.org/2000/svg" width="900" height="600" version="1"><path style="fill:#c8102e;stroke-width:1.73033774;fill-opacity:1" d="M0 0h900v600H0z"/><path style="fill:#003087;stroke-width:1.41281486;fill-opacity:1" d="M300 0h600v600H300z"/><path style="fill:#ffcd00;stroke-width:.99901092;fill-opacity:1" d="M600 0h300v600H600z"/><path style="fill:#fff;fill-opacity:1;fill-rule:evenodd;stroke:#000;stroke-width:.20823079;stroke-opacity:1" d="m451.071 273.603 7.292 20.939 22.203.452-17.697 13.393 6.431 21.218-18.229-12.662-18.228 12.662 6.43-21.218-17.696-13.393 22.203-.452zm77.415-1.542 7.3 20.936 22.204.442-17.691 13.4 6.44 21.216-18.234-12.654-18.224 12.67 6.422-21.221L499 293.465l22.203-.462zM509.35 333.76l7.484 20.872 22.206.248-17.573 13.555 6.625 21.159-18.344-12.495-18.112 12.829 6.236-21.277-17.819-13.23 22.198-.655zm-56.884 27.103 7.291 20.939 22.204.451-17.697 13.393 6.43 21.219-18.228-12.662-18.229 12.662 6.43-21.219-17.696-13.393 22.203-.451zm-80.828-88.027-7.422 20.893-22.206.313 17.613 13.503-6.563 21.178 18.308-12.548 18.149 12.776-6.298-21.259 17.78-13.282-22.2-.59zm21.47 60.909-7.834 20.743-22.208-.126 17.343 13.848-6.981 21.044 18.552-12.183 17.893 13.132-5.877-21.379 18.04-12.927-22.184-1.03zm134.362-65.964-6.07-21.325 17.91-13.132-22.179-.788-6.933-21.06-7.64 20.84-22.194.115 17.458 13.667-6.783 21.132 18.428-12.393zm-91.39-28.507 18.166-12.713 18.269 12.628-6.513-21.217 17.632-13.442-22.192-.4-7.372-20.935-7.202 20.969-22.188.504 17.74 13.36zm-62.083 28.152 6.242-21.275-17.802-13.277 22.185-.607 7.105-21.003 7.469 20.9 22.193.297-17.57 13.525 6.612 21.186-18.327-12.542z"/></svg>