<?xml version="1.0" encoding="UTF-8"?>
<!DOCTYPE svg PUBLIC "-//W3C//DTD SVG 1.1//EN" "http://www.w3.org/Graphics/SVG/1.1/DTD/svg11.dtd">
<svg xmlns="http://www.w3.org/2000/svg" version="1.1" width="1024px" height="683px" style="shape-rendering:geometricPrecision; text-rendering:geometricPrecision; image-rendering:optimizeQuality; fill-rule:evenodd; clip-rule:evenodd" xmlns:xlink="http://www.w3.org/1999/xlink">
<g><path style="opacity:1" fill="#007833" d="M -0.5,-0.5 C 71.1667,-0.5 142.833,-0.5 214.5,-0.5C 214.5,227.167 214.5,454.833 214.5,682.5C 142.833,682.5 71.1667,682.5 -0.5,682.5C -0.5,454.833 -0.5,227.167 -0.5,-0.5 Z"/></g>
<g><path style="opacity:1" fill="#d42b1e" d="M 214.5,-0.5 C 412.5,-0.5 610.5,-0.5 808.5,-0.5C 808.5,227.167 808.5,454.833 808.5,682.5C 610.5,682.5 412.5,682.5 214.5,682.5C 214.5,454.833 214.5,227.167 214.5,-0.5 Z"/></g>
<g><path style="opacity:1" fill="#007833" d="M 808.5,-0.5 C 880.167,-0.5 951.833,-0.5 1023.5,-0.5C 1023.5,227.167 1023.5,454.833 1023.5,682.5C 951.833,682.5 880.167,682.5 808.5,682.5C 808.5,454.833 808.5,227.167 808.5,-0.5 Z"/></g>
<g><path style="opacity:1" fill="#167633" d="M 581.5,190.5 C 594.623,194.949 602.289,203.949 604.5,217.5C 604.817,220.572 604.484,223.572 603.5,226.5C 599.023,219.351 593.023,214.018 585.5,210.5C 583.156,208.5 580.823,206.5 578.5,204.5C 578.725,199.408 579.725,194.741 581.5,190.5 Z"/></g>
<g><path style="opacity:1" fill="#177633" d="M 450.5,199.5 C 444.364,206.476 438.364,213.643 432.5,221C 428.412,221.696 424.412,222.363 420.5,223C 421.153,219.209 422.487,215.709 424.5,212.5C 430.675,204.653 438.175,198.32 447,193.5C 449.73,192.139 452.563,191.639 455.5,192C 453.699,194.443 452.032,196.943 450.5,199.5 Z"/></g>
<g><path style="opacity:1" fill="#267332" d="M 466.5,205.5 C 459.619,207.278 452.619,208.111 445.5,208C 447.027,205.31 449.027,203.143 451.5,201.5C 454.983,200.248 458.649,199.414 462.5,199C 466.871,198.172 471.205,198.339 475.5,199.5C 472.935,202.232 469.935,204.232 466.5,205.5 Z"/></g>
<g><path style="opacity:1" fill="#1d7532" d="M 423.5,207.5 C 422.2,213.515 420.2,219.348 417.5,225C 410.82,227.09 404.987,230.59 400,235.5C 399.935,231.773 401.101,228.44 403.5,225.5C 408.909,215.214 415.909,206.048 424.5,198C 425.483,197.409 426.15,197.743 426.5,199C 425.266,201.783 424.266,204.616 423.5,207.5 Z"/></g>
<g><path style="opacity:1" fill="#974624" d="M 559.5,205.5 C 561.134,204.839 562.967,204.506 565,204.5C 568.451,204.421 571.618,205.087 574.5,206.5C 569.507,206.084 564.507,205.751 559.5,205.5 Z"/></g>
<g><path style="opacity:1" fill="#137633" d="M 559.5,205.5 C 564.507,205.751 569.507,206.084 574.5,206.5C 577.752,208.588 581.418,209.921 585.5,210.5C 590.438,214.936 595.271,219.603 600,224.5C 601.559,226.217 602.392,228.217 602.5,230.5C 596.158,230.334 589.825,230.5 583.5,231C 587.956,230.898 591.956,231.732 595.5,233.5C 585.519,238.779 575.519,238.779 565.5,233.5C 561.315,229.481 556.982,225.647 552.5,222C 554.321,219.863 556.654,219.03 559.5,219.5C 563.326,219.797 566.326,221.63 568.5,225C 570.217,226.559 572.217,227.392 574.5,227.5C 569.684,224.404 565.684,220.404 562.5,215.5C 561.262,212.619 559.929,209.786 558.5,207C 558.57,206.235 558.903,205.735 559.5,205.5 Z"/></g>
<g><path style="opacity:1" fill="#934624" d="M 581.5,190.5 C 579.725,194.741 578.725,199.408 578.5,204.5C 580.823,206.5 583.156,208.5 585.5,210.5C 581.418,209.921 577.752,208.588 574.5,206.5C 575.5,206.5 576.5,206.5 577.5,206.5C 578.22,200.862 578.553,195.196 578.5,189.5C 579.791,189.263 580.791,189.596 581.5,190.5 Z"/></g>
<g><path style="opacity:1" fill="#157633" d="M 474.5,212.5 C 478.192,214.641 477.526,215.975 472.5,216.5C 468.818,216.335 465.152,216.501 461.5,217C 460.263,217.232 459.263,217.732 458.5,218.5C 457.5,218.5 456.5,218.5 455.5,218.5C 451.534,219.162 447.534,219.495 443.5,219.5C 441.167,219.5 438.833,219.5 436.5,219.5C 438.912,214.247 442.912,211.08 448.5,210C 457.384,209.002 466.051,209.836 474.5,212.5 Z"/></g>
<g><path style="opacity:1" fill="#8f4725" d="M 450.5,199.5 C 450.328,200.492 450.662,201.158 451.5,201.5C 449.027,203.143 447.027,205.31 445.5,208C 452.619,208.111 459.619,207.278 466.5,205.5C 466.119,206.931 465.119,207.764 463.5,208C 463.833,208.333 464.167,208.667 464.5,209C 468.29,209.195 471.624,210.362 474.5,212.5C 466.051,209.836 457.384,209.002 448.5,210C 442.912,211.08 438.912,214.247 436.5,219.5C 435.596,220.209 435.263,221.209 435.5,222.5C 433.143,222.337 430.81,222.503 428.5,223C 427.944,223.383 427.611,223.883 427.5,224.5C 415.779,225.706 405.946,230.706 398,239.5C 397.917,232.524 399.084,225.857 401.5,219.5C 401.025,222.082 401.692,224.082 403.5,225.5C 401.101,228.44 399.935,231.773 400,235.5C 404.987,230.59 410.82,227.09 417.5,225C 420.2,219.348 422.2,213.515 423.5,207.5C 423.216,209.415 423.549,211.081 424.5,212.5C 422.487,215.709 421.153,219.209 420.5,223C 424.412,222.363 428.412,221.696 432.5,221C 438.364,213.643 444.364,206.476 450.5,199.5 Z"/></g>
<g><path style="opacity:1" fill="#884825" d="M 472.5,216.5 C 468.005,217.422 463.338,218.089 458.5,218.5C 459.263,217.732 460.263,217.232 461.5,217C 465.152,216.501 468.818,216.335 472.5,216.5 Z"/></g>
<g><path style="opacity:1" fill="#8e4725" d="M 562.5,215.5 C 565.684,220.404 569.684,224.404 574.5,227.5C 572.217,227.392 570.217,226.559 568.5,225C 566.326,221.63 563.326,219.797 559.5,219.5C 560.5,218.167 561.5,216.833 562.5,215.5 Z"/></g>
<g><path style="opacity:1" fill="#1a7532" d="M 461.5,221.5 C 460.71,222.794 459.71,223.961 458.5,225C 446.874,230.146 435.541,235.813 424.5,242C 422.26,242.977 419.927,243.477 417.5,243.5C 415.158,243.225 415.158,242.392 417.5,241C 427.056,235.762 435.722,229.429 443.5,222C 449.491,221.501 455.491,221.334 461.5,221.5 Z"/></g>
<g><path style="opacity:1" fill="#167633" d="M 642.5,264.5 C 639.001,253.861 633.167,244.528 625,236.5C 624.517,235.552 624.351,234.552 624.5,233.5C 627.613,229.478 628.947,224.811 628.5,219.5C 631.634,220.279 634.301,221.945 636.5,224.5C 639.598,229.033 642.431,233.7 645,238.5C 645.999,247.361 645.165,256.027 642.5,264.5 Z"/></g>
<g><path style="opacity:1" fill="#43632d" d="M 436.5,219.5 C 438.833,219.5 441.167,219.5 443.5,219.5C 442.048,220.302 440.382,220.802 438.5,221C 441.125,222.376 441.125,223.542 438.5,224.5C 434.967,223.285 431.301,223.285 427.5,224.5C 427.611,223.883 427.944,223.383 428.5,223C 430.81,222.503 433.143,222.337 435.5,222.5C 435.263,221.209 435.596,220.209 436.5,219.5 Z"/></g>
<g><path style="opacity:1" fill="#8e4725" d="M 455.5,218.5 C 454.737,219.268 453.737,219.768 452.5,220C 455.695,220.181 458.695,220.681 461.5,221.5C 455.491,221.334 449.491,221.501 443.5,222C 435.722,229.429 427.056,235.762 417.5,241C 415.158,242.392 415.158,243.225 417.5,243.5C 417.167,244.167 416.833,244.833 416.5,245.5C 402.673,249.691 391.006,257.358 381.5,268.5C 380.833,268.833 380.167,269.167 379.5,269.5C 379.828,258.654 379.494,247.987 378.5,237.5C 378.56,236.957 378.893,236.624 379.5,236.5C 380.176,237.602 380.842,238.602 381.5,239.5C 381.334,248.173 381.5,256.84 382,265.5C 385.189,260.978 389.022,257.145 393.5,254C 394.026,249.276 395.192,244.776 397,240.5C 397.762,244.332 397.262,247.998 395.5,251.5C 395.833,251.833 396.167,252.167 396.5,252.5C 411.22,244.148 425.22,234.814 438.5,224.5C 441.125,223.542 441.125,222.376 438.5,221C 440.382,220.802 442.048,220.302 443.5,219.5C 447.534,219.495 451.534,219.162 455.5,218.5 Z"/></g>
<g><path style="opacity:1" fill="#127733" d="M 401.5,219.5 C 399.084,225.857 397.917,232.524 398,239.5C 405.946,230.706 415.779,225.706 427.5,224.5C 431.301,223.285 434.967,223.285 438.5,224.5C 425.22,234.814 411.22,244.148 396.5,252.5C 396.167,252.167 395.833,251.833 395.5,251.5C 397.262,247.998 397.762,244.332 397,240.5C 395.192,244.776 394.026,249.276 393.5,254C 389.022,257.145 385.189,260.978 382,265.5C 381.5,256.84 381.334,248.173 381.5,239.5C 386.07,228.224 392.404,217.891 400.5,208.5C 401.5,207.167 402.5,207.167 403.5,208.5C 402.752,212.157 402.085,215.823 401.5,219.5 Z"/></g>
<g><path style="opacity:1" fill="#854a26" d="M 574.5,227.5 C 577.059,227.39 579.392,228.056 581.5,229.5C 578.821,230.341 576.488,229.675 574.5,227.5 Z"/></g>
<g><path style="opacity:1" fill="#954524" d="M 585.5,210.5 C 593.023,214.018 599.023,219.351 603.5,226.5C 604.484,223.572 604.817,220.572 604.5,217.5C 605.483,221.298 605.817,225.298 605.5,229.5C 607.415,229.216 609.081,229.549 610.5,230.5C 608.712,230.215 607.045,230.548 605.5,231.5C 606.872,252.873 618.206,264.873 639.5,267.5C 637.285,268.268 634.952,268.935 632.5,269.5C 625.767,266.494 619.434,262.494 613.5,257.5C 610.334,253.834 607.667,249.834 605.5,245.5C 602.579,244.593 599.579,244.26 596.5,244.5C 599.287,243.523 602.287,243.19 605.5,243.5C 605.622,238.768 605.122,234.102 604,229.5C 603.517,230.448 603.351,231.448 603.5,232.5C 600.721,232.279 598.054,232.612 595.5,233.5C 591.956,231.732 587.956,230.898 583.5,231C 589.825,230.5 596.158,230.334 602.5,230.5C 602.392,228.217 601.559,226.217 600,224.5C 595.271,219.603 590.438,214.936 585.5,210.5 Z"/></g>
<g><path style="opacity:1" fill="#0c7733" d="M 610.5,230.5 C 613.964,232.334 617.631,234.001 621.5,235.5C 629.484,242.803 635.484,251.47 639.5,261.5C 639.5,263.5 639.5,265.5 639.5,267.5C 618.206,264.873 606.872,252.873 605.5,231.5C 607.045,230.548 608.712,230.215 610.5,230.5 Z"/></g>
<g><path style="opacity:1" fill="#157633" d="M 378.5,237.5 C 379.494,247.987 379.828,258.654 379.5,269.5C 378.735,272.096 378.401,274.763 378.5,277.5C 379.011,283.418 378.344,289.085 376.5,294.5C 374.883,296.121 373.716,298.121 373,300.5C 370.133,292.066 366.966,283.732 363.5,275.5C 365.042,263.374 368.875,252.041 375,241.5C 375.949,239.907 377.115,238.574 378.5,237.5 Z"/></g>
<g><path style="opacity:1" fill="#1a7532" d="M 596.5,244.5 C 599.579,244.26 602.579,244.593 605.5,245.5C 607.667,249.834 610.334,253.834 613.5,257.5C 619.434,262.494 625.767,266.494 632.5,269.5C 617.948,273.605 607.448,268.938 601,255.5C 599.219,251.907 597.719,248.24 596.5,244.5 Z"/></g>
<g><path style="opacity:1" fill="#854a26" d="M 624.5,233.5 C 624.351,234.552 624.517,235.552 625,236.5C 633.167,244.528 639.001,253.861 642.5,264.5C 642.44,265.043 642.107,265.376 641.5,265.5C 640.828,264.051 640.161,262.718 639.5,261.5C 635.484,251.47 629.484,242.803 621.5,235.5C 622.778,235.218 623.778,234.551 624.5,233.5 Z"/></g>
<g><path style="opacity:1" fill="#167633" d="M 416.5,245.5 C 417.978,245.238 419.311,245.571 420.5,246.5C 415.452,252.215 410.119,257.548 404.5,262.5C 396.881,270.785 388.881,278.785 380.5,286.5C 379.614,285.675 379.281,284.675 379.5,283.5C 380.266,278.637 380.932,273.637 381.5,268.5C 391.006,257.358 402.673,249.691 416.5,245.5 Z"/></g>
<g><path style="opacity:1" fill="#f8e100" d="M 517.5,268.5 C 517.145,272.077 518.145,275.077 520.5,277.5C 523.578,289.399 527.245,301.065 531.5,312.5C 550.167,313.167 568.833,313.833 587.5,314.5C 573.196,324.657 558.863,334.824 544.5,345C 543.426,345.739 542.759,346.739 542.5,348C 548.912,365.888 554.579,383.721 559.5,401.5C 544.142,390.466 528.808,379.466 513.5,368.5C 498.442,378.786 483.609,389.453 469,400.5C 469.009,396.446 469.676,392.446 471,388.5C 475.328,376.17 479.661,363.836 484,351.5C 484.667,349.833 484.667,348.167 484,346.5C 469.95,335.609 455.784,324.942 441.5,314.5C 459.833,313.833 478.167,313.167 496.5,312.5C 502.562,295.702 508.062,278.702 513,261.5C 513.414,261.043 513.914,260.709 514.5,260.5C 515.507,263.19 516.507,265.856 517.5,268.5 Z"/></g>
<g><path style="opacity:1" fill="#0c7733" d="M 652.5,284.5 C 654.453,289.645 655.786,294.978 656.5,300.5C 656.5,306.167 656.5,311.833 656.5,317.5C 656.326,319.861 655.993,322.194 655.5,324.5C 654.5,324.5 653.5,324.5 652.5,324.5C 652.167,323.5 651.5,322.833 650.5,322.5C 639.191,311.579 634.191,298.246 635.5,282.5C 636.757,278.969 637.591,275.302 638,271.5C 638.561,270.978 639.228,270.645 640,270.5C 645.446,274.108 649.613,278.774 652.5,284.5 Z"/></g>
<g><path style="opacity:1" fill="#167633" d="M 396.5,289.5 C 389.892,298.297 383.392,307.297 377,316.5C 375.782,312.735 374.616,308.901 373.5,305C 374.688,301.27 376.354,297.77 378.5,294.5C 379.663,290.992 381.663,287.992 384.5,285.5C 390.58,279.082 397.247,273.415 404.5,268.5C 405.858,267.374 407.192,267.374 408.5,268.5C 404.505,275.497 400.505,282.497 396.5,289.5 Z"/></g>
<g><path style="opacity:1" fill="#117733" d="M 670.5,279.5 C 670.76,285.172 671.093,290.839 671.5,296.5C 669.75,305.434 666.083,313.434 660.5,320.5C 659.672,314.347 659.172,308.013 659,301.5C 658.768,300.263 658.268,299.263 657.5,298.5C 657.272,293.27 656.272,288.27 654.5,283.5C 658.46,279.53 662.127,275.196 665.5,270.5C 668.438,272.777 670.105,275.777 670.5,279.5 Z"/></g>
<g><path style="opacity:1" fill="#1a7633" d="M 361.5,275.5 C 367.901,289.556 372.235,304.39 374.5,320C 372.42,325.611 370.92,331.445 370,337.5C 367.913,333.678 365.747,330.011 363.5,326.5C 361.537,320.925 359.204,315.591 356.5,310.5C 354.953,296.759 355.286,283.092 357.5,269.5C 358.5,269.5 359.5,269.5 360.5,269.5C 360.833,271.5 361.167,273.5 361.5,275.5 Z"/></g>
<g><path style="opacity:1" fill="#695329" d="M 381.5,268.5 C 380.932,273.637 380.266,278.637 379.5,283.5C 379.795,281.265 379.461,279.265 378.5,277.5C 378.401,274.763 378.735,272.096 379.5,269.5C 380.167,269.167 380.833,268.833 381.5,268.5 Z"/></g>
<g><path style="opacity:1" fill="#ea960d" d="M 517.5,268.5 C 518.921,271.294 519.921,274.294 520.5,277.5C 518.145,275.077 517.145,272.077 517.5,268.5 Z"/></g>
<g><path style="opacity:1" fill="#1b7533" d="M 626.5,281.5 C 629.028,282.184 631.195,283.518 633,285.5C 633.499,289.486 633.666,293.486 633.5,297.5C 635.16,301.367 636.66,305.367 638,309.5C 641.356,314.345 644.856,319.012 648.5,323.5C 635.334,321.336 627.334,313.669 624.5,300.5C 623.877,293.745 624.544,287.412 626.5,281.5 Z"/></g>
<g><path style="opacity:1" fill="#aa3d22" d="M 404.5,262.5 C 404.297,264.638 403.297,266.305 401.5,267.5C 402.325,268.386 403.325,268.719 404.5,268.5C 397.247,273.415 390.58,279.082 384.5,285.5C 381.663,287.992 379.663,290.992 378.5,294.5C 377.833,294.5 377.167,294.5 376.5,294.5C 378.344,289.085 379.011,283.418 378.5,277.5C 379.461,279.265 379.795,281.265 379.5,283.5C 379.281,284.675 379.614,285.675 380.5,286.5C 388.881,278.785 396.881,270.785 404.5,262.5 Z"/></g>
<g><path style="opacity:1" fill="#7f4c27" d="M 670.5,279.5 C 672.238,285.122 672.571,290.788 671.5,296.5C 671.093,290.839 670.76,285.172 670.5,279.5 Z"/></g>
<g><path style="opacity:1" fill="#764f27" d="M 654.5,283.5 C 656.272,288.27 657.272,293.27 657.5,298.5C 657.672,299.492 657.338,300.158 656.5,300.5C 655.786,294.978 654.453,289.645 652.5,284.5C 653.167,284.167 653.833,283.833 654.5,283.5 Z"/></g>
<g><path style="opacity:1" fill="#147633" d="M 395.5,339.5 C 394.629,342.003 393.963,344.67 393.5,347.5C 393.5,349.167 393.5,350.833 393.5,352.5C 391.976,355.916 390.976,359.583 390.5,363.5C 389.271,367.144 387.938,370.811 386.5,374.5C 384.563,370.688 383.229,366.688 382.5,362.5C 384.165,356.183 385.998,349.849 388,343.5C 388.667,341.833 388.667,340.167 388,338.5C 385.811,345.912 383.311,353.245 380.5,360.5C 377.378,353.752 374.378,346.919 371.5,340C 375.212,321.774 383.878,306.274 397.5,293.5C 398.458,293.047 399.292,292.381 400,291.5C 400.667,293.5 400.667,295.5 400,297.5C 395.931,309.945 392.098,322.445 388.5,335C 388.667,335.833 388.833,336.667 389,337.5C 395.4,323.558 397.567,324.225 395.5,339.5 Z"/></g>
<g><path style="opacity:1" fill="#984224" d="M 626.5,281.5 C 624.544,287.412 623.877,293.745 624.5,300.5C 623.509,294.021 623.176,287.354 623.5,280.5C 624.791,280.263 625.791,280.596 626.5,281.5 Z"/></g>
<g><path style="opacity:1" fill="#794e27" d="M 635.5,282.5 C 634.191,298.246 639.191,311.579 650.5,322.5C 649.833,322.833 649.167,323.167 648.5,323.5C 644.856,319.012 641.356,314.345 638,309.5C 636.66,305.367 635.16,301.367 633.5,297.5C 634.167,292.5 634.833,287.5 635.5,282.5 Z"/></g>
<g><path style="opacity:1" fill="#43612d" d="M 657.5,298.5 C 658.268,299.263 658.768,300.263 659,301.5C 659.172,308.013 659.672,314.347 660.5,320.5C 660.167,321.167 659.833,321.833 659.5,322.5C 658.35,323.85 657.683,323.684 657.5,322C 658.609,315.538 658.775,309.038 658,302.5C 657.826,307.684 657.326,312.684 656.5,317.5C 656.5,311.833 656.5,306.167 656.5,300.5C 657.338,300.158 657.672,299.492 657.5,298.5 Z"/></g>
<g><path style="opacity:1" fill="#0f7733" d="M 355.5,313.5 C 357.448,318.411 360.114,322.744 363.5,326.5C 371.871,343.774 379.371,361.441 386,379.5C 384.977,387.732 385.477,395.898 387.5,404C 387.15,405.257 386.483,405.591 385.5,405C 376.499,392.798 368.166,380.298 360.5,367.5C 358.214,360.303 355.548,353.303 352.5,346.5C 350.849,333.897 350.182,321.23 350.5,308.5C 353.255,308.963 354.922,310.63 355.5,313.5 Z"/></g>
<g><path style="opacity:1" fill="#e78a0e" d="M 496.5,312.5 C 478.167,313.167 459.833,313.833 441.5,314.5C 440.624,314.631 439.957,314.298 439.5,313.5C 458.488,312.5 477.488,312.167 496.5,312.5 Z"/></g>
<g><path style="opacity:1" fill="#e47311" d="M 531.5,312.5 C 550.512,312.167 569.512,312.5 588.5,313.5C 588.376,314.107 588.043,314.44 587.5,314.5C 568.833,313.833 550.167,313.167 531.5,312.5 Z"/></g>
<g><path style="opacity:1" fill="#884925" d="M 356.5,310.5 C 359.204,315.591 361.537,320.925 363.5,326.5C 360.114,322.744 357.448,318.411 355.5,313.5C 356.404,312.791 356.737,311.791 356.5,310.5 Z"/></g>
<g><path style="opacity:1" fill="#9a4323" d="M 659.5,322.5 C 659.423,323.75 658.756,324.583 657.5,325C 655.613,325.78 653.946,325.613 652.5,324.5C 653.5,324.5 654.5,324.5 655.5,324.5C 655.993,322.194 656.326,319.861 656.5,317.5C 657.326,312.684 657.826,307.684 658,302.5C 658.775,309.038 658.609,315.538 657.5,322C 657.683,323.684 658.35,323.85 659.5,322.5 Z"/></g>
<g><path style="opacity:1" fill="#157633" d="M 659.5,342.5 C 659.666,346.846 659.499,351.179 659,355.5C 657.675,360.948 656.175,366.281 654.5,371.5C 652.521,374.099 650.521,376.765 648.5,379.5C 647.192,380.626 645.858,380.626 644.5,379.5C 643.766,378.292 643.433,376.959 643.5,375.5C 640.807,367.407 639.14,359.074 638.5,350.5C 637.07,358.003 637.737,365.337 640.5,372.5C 640.457,373.416 640.124,374.083 639.5,374.5C 631.165,367.865 627.665,359.199 629,348.5C 630.38,343.302 632.213,338.302 634.5,333.5C 635.906,333.027 636.573,332.027 636.5,330.5C 636.897,329.475 637.563,329.308 638.5,330C 640.085,332.069 641.419,334.236 642.5,336.5C 642.736,339.226 641.903,341.559 640,343.5C 639.333,345.5 639.333,347.5 640,349.5C 641.019,345.603 642.519,341.936 644.5,338.5C 647.657,334.873 650.824,331.206 654,327.5C 654.772,327.645 655.439,327.978 656,328.5C 657.74,333.035 658.906,337.702 659.5,342.5 Z"/></g>
<g><path style="opacity:1" fill="#735028" d="M 636.5,330.5 C 636.573,332.027 635.906,333.027 634.5,333.5C 634.427,331.973 635.094,330.973 636.5,330.5 Z"/></g>
<g><path style="opacity:1" fill="#874a26" d="M 361.5,275.5 C 362.167,275.5 362.833,275.5 363.5,275.5C 366.966,283.732 370.133,292.066 373,300.5C 373.716,298.121 374.883,296.121 376.5,294.5C 377.167,294.5 377.833,294.5 378.5,294.5C 376.354,297.77 374.688,301.27 373.5,305C 374.616,308.901 375.782,312.735 377,316.5C 383.392,307.297 389.892,298.297 396.5,289.5C 396.461,290.583 396.127,291.583 395.5,292.5C 395.957,293.298 396.624,293.631 397.5,293.5C 383.878,306.274 375.212,321.774 371.5,340C 374.378,346.919 377.378,353.752 380.5,360.5C 383.311,353.245 385.811,345.912 388,338.5C 388.667,340.167 388.667,341.833 388,343.5C 385.998,349.849 384.165,356.183 382.5,362.5C 383.229,366.688 384.563,370.688 386.5,374.5C 387.938,370.811 389.271,367.144 390.5,363.5C 390.328,364.492 390.662,365.158 391.5,365.5C 389.149,373.286 387.815,381.286 387.5,389.5C 387.815,397.714 389.149,405.714 391.5,413.5C 384.052,408.936 376.719,404.103 369.5,399C 364.817,396.383 359.817,394.883 354.5,394.5C 355.952,393.698 357.618,393.198 359.5,393C 358.748,392.329 358.414,391.496 358.5,390.5C 359.837,391.315 360.837,392.482 361.5,394C 369.507,396.751 376.84,400.418 383.5,405C 378.333,397.833 373.167,390.667 368,383.5C 364.816,378.428 362.316,373.095 360.5,367.5C 368.166,380.298 376.499,392.798 385.5,405C 386.483,405.591 387.15,405.257 387.5,404C 385.477,395.898 384.977,387.732 386,379.5C 379.371,361.441 371.871,343.774 363.5,326.5C 365.747,330.011 367.913,333.678 370,337.5C 370.92,331.445 372.42,325.611 374.5,320C 372.235,304.39 367.901,289.556 361.5,275.5 Z"/></g>
<g><path style="opacity:1" fill="#864926" d="M 395.5,339.5 C 395.663,341.857 395.497,344.19 395,346.5C 394.617,347.056 394.117,347.389 393.5,347.5C 393.963,344.67 394.629,342.003 395.5,339.5 Z"/></g>
<g><path style="opacity:1" fill="#1c7532" d="M 651.5,380.5 C 650.957,380.44 650.624,380.107 650.5,379.5C 652.393,377.048 653.726,374.381 654.5,371.5C 659.687,364.163 662.02,355.83 661.5,346.5C 664.137,345.836 666.803,345.169 669.5,344.5C 671.993,352.445 672.159,360.445 670,368.5C 664.668,373.908 658.501,377.908 651.5,380.5 Z"/></g>
<g><path style="opacity:1" fill="#834a26" d="M 642.5,336.5 C 643.167,337.167 643.833,337.833 644.5,338.5C 642.519,341.936 641.019,345.603 640,349.5C 639.333,347.5 639.333,345.5 640,343.5C 641.903,341.559 642.736,339.226 642.5,336.5 Z"/></g>
<g><path style="opacity:1" fill="#6a5229" d="M 351.5,348.5 C 350.517,352.298 350.183,356.298 350.5,360.5C 349.189,356.317 349.189,351.984 350.5,347.5C 351.107,347.624 351.44,347.957 351.5,348.5 Z"/></g>
<g><path style="opacity:1" fill="#167633" d="M 351.5,348.5 C 353.571,355.436 356.571,361.77 360.5,367.5C 362.316,373.095 364.816,378.428 368,383.5C 373.167,390.667 378.333,397.833 383.5,405C 376.84,400.418 369.507,396.751 361.5,394C 360.837,392.482 359.837,391.315 358.5,390.5C 355.21,380.672 352.543,370.672 350.5,360.5C 350.183,356.298 350.517,352.298 351.5,348.5 Z"/></g>
<g><path style="opacity:1" fill="#755027" d="M 659.5,342.5 C 660.167,343.833 660.833,345.167 661.5,346.5C 662.02,355.83 659.687,364.163 654.5,371.5C 656.175,366.281 657.675,360.948 659,355.5C 659.499,351.179 659.666,346.846 659.5,342.5 Z"/></g>
<g><path style="opacity:1" fill="#157633" d="M 400.5,368.5 C 400.802,371.059 400.468,373.393 399.5,375.5C 396.553,388.819 397.053,402.152 401,415.5C 401.2,417.32 402.034,418.653 403.5,419.5C 403.719,420.675 403.386,421.675 402.5,422.5C 399.085,419.075 395.419,416.075 391.5,413.5C 389.149,405.714 387.815,397.714 387.5,389.5C 387.815,381.286 389.149,373.286 391.5,365.5C 392.492,362.177 393.492,358.844 394.5,355.5C 395.808,351.597 397.308,351.597 399,355.5C 399.465,359.848 399.965,364.181 400.5,368.5 Z"/></g>
<g><path style="opacity:1" fill="#834b26" d="M 352.5,346.5 C 355.548,353.303 358.214,360.303 360.5,367.5C 356.571,361.77 353.571,355.436 351.5,348.5C 352.338,348.158 352.672,347.492 352.5,346.5 Z"/></g>
<g><path style="opacity:1" fill="#9d4123" d="M 393.5,352.5 C 393.263,353.791 393.596,354.791 394.5,355.5C 393.492,358.844 392.492,362.177 391.5,365.5C 390.662,365.158 390.328,364.492 390.5,363.5C 390.976,359.583 391.976,355.916 393.5,352.5 Z"/></g>
<g><path style="opacity:1" fill="#784e27" d="M 643.5,375.5 C 641.737,376.954 640.403,376.62 639.5,374.5C 640.124,374.083 640.457,373.416 640.5,372.5C 637.737,365.337 637.07,358.003 638.5,350.5C 639.14,359.074 640.807,367.407 643.5,375.5 Z"/></g>
<g><path style="opacity:1" fill="#9c4123" d="M 400.5,368.5 C 401.158,370.639 402.158,372.639 403.5,374.5C 401.031,375.607 400.031,377.607 400.5,380.5C 399.549,379.081 399.216,377.415 399.5,375.5C 400.468,373.393 400.802,371.059 400.5,368.5 Z"/></g>
<g><path style="opacity:1" fill="#137633" d="M 403.5,374.5 C 407.468,380.564 410.968,386.897 414,393.5C 415.29,397.73 415.79,402.064 415.5,406.5C 418.307,421.782 424.641,435.449 434.5,447.5C 433.142,447.822 431.475,447.822 429.5,447.5C 423.196,441.366 416.696,435.366 410,429.5C 408.058,425.931 405.892,422.598 403.5,419.5C 399.929,406.693 398.929,393.693 400.5,380.5C 400.031,377.607 401.031,375.607 403.5,374.5 Z"/></g>
<g><path style="opacity:1" fill="#1f7532" d="M 633.5,380.5 C 633.799,382.604 633.466,384.604 632.5,386.5C 629.906,387.592 627.739,389.259 626,391.5C 621.076,398.015 618.409,405.348 618,413.5C 617.617,412.944 617.117,412.611 616.5,412.5C 611.105,395.495 616.771,383.495 633.5,376.5C 633.5,377.833 633.5,379.167 633.5,380.5 Z"/></g>
<g><path style="opacity:1" fill="#954624" d="M 654.5,371.5 C 653.726,374.381 652.393,377.048 650.5,379.5C 650.624,380.107 650.957,380.44 651.5,380.5C 649.32,383.134 647.987,386.134 647.5,389.5C 647.808,387.076 647.474,384.743 646.5,382.5C 644.929,383.309 643.262,383.643 641.5,383.5C 642.209,382.596 643.209,382.263 644.5,382.5C 644.5,381.5 644.5,380.5 644.5,379.5C 645.858,380.626 647.192,380.626 648.5,379.5C 650.521,376.765 652.521,374.099 654.5,371.5 Z"/></g>
<g><path style="opacity:1" fill="#127733" d="M 647.5,389.5 C 647.587,392.739 646.92,395.739 645.5,398.5C 640.192,407.142 633.192,414.142 624.5,419.5C 622.833,419.5 621.167,419.5 619.5,419.5C 618.879,405.754 623.879,394.754 634.5,386.5C 636.824,385.344 639.157,384.344 641.5,383.5C 643.262,383.643 644.929,383.309 646.5,382.5C 647.474,384.743 647.808,387.076 647.5,389.5 Z"/></g>
<g><path style="opacity:1" fill="#854a26" d="M 633.5,380.5 C 634.461,382.265 634.795,384.265 634.5,386.5C 623.879,394.754 618.879,405.754 619.5,419.5C 619.167,419.5 618.833,419.5 618.5,419.5C 618.6,416.892 617.933,414.558 616.5,412.5C 617.117,412.611 617.617,412.944 618,413.5C 618.409,405.348 621.076,398.015 626,391.5C 627.739,389.259 629.906,387.592 632.5,386.5C 633.466,384.604 633.799,382.604 633.5,380.5 Z"/></g>
<g><path style="opacity:1" fill="#735027" d="M 399.5,375.5 C 399.216,377.415 399.549,379.081 400.5,380.5C 398.929,393.693 399.929,406.693 403.5,419.5C 402.034,418.653 401.2,417.32 401,415.5C 397.053,402.152 396.553,388.819 399.5,375.5 Z"/></g>
<g><path style="opacity:1" fill="#0e7733" d="M 354.5,394.5 C 359.817,394.883 364.817,396.383 369.5,399C 376.719,404.103 384.052,408.936 391.5,413.5C 391.414,414.496 391.748,415.329 392.5,416C 403.977,425.643 414.977,435.81 425.5,446.5C 424.667,446.833 423.833,447.167 423,447.5C 415.848,446.655 408.681,445.988 401.5,445.5C 395.512,443.035 389.845,439.869 384.5,436C 373.781,425.76 364.281,414.594 356,402.5C 354.921,399.937 354.421,397.271 354.5,394.5 Z"/></g>
<g><path style="opacity:1" fill="#177633" d="M 647.5,400.5 C 651.99,402.111 656.657,402.778 661.5,402.5C 657.984,412.683 650.984,419.016 640.5,421.5C 634.551,422.579 628.551,422.746 622.5,422C 623.756,421.583 624.423,420.75 624.5,419.5C 627.516,419.159 630.182,417.993 632.5,416C 637.779,410.891 642.779,405.724 647.5,400.5 Z"/></g>
<g><path style="opacity:1" fill="#8b4725" d="M 645.5,398.5 C 646.167,399.167 646.833,399.833 647.5,400.5C 642.779,405.724 637.779,410.891 632.5,416C 630.182,417.993 627.516,419.159 624.5,419.5C 633.192,414.142 640.192,407.142 645.5,398.5 Z"/></g>
<g><path style="opacity:1" fill="#187633" d="M 599.5,408.5 C 601.308,409.918 601.975,411.918 601.5,414.5C 601.5,414.833 601.5,415.167 601.5,415.5C 592.111,420.707 584.278,428.04 578,437.5C 577.319,439.895 576.485,442.228 575.5,444.5C 574.824,443.398 574.158,442.398 573.5,441.5C 571.746,430.003 575.746,421.003 585.5,414.5C 590.189,412.487 594.856,410.487 599.5,408.5 Z"/></g>
<g><path style="opacity:1" fill="#157633" d="M 473.5,455.5 C 475.033,457.245 477.033,458.245 479.5,458.5C 485.784,460.761 492.117,462.928 498.5,465C 502.168,466.376 505.501,468.209 508.5,470.5C 503.703,472.391 498.703,473.391 493.5,473.5C 484.288,470.43 474.955,467.763 465.5,465.5C 463.343,464.593 461.01,463.927 458.5,463.5C 438.87,461.431 420.204,456.431 402.5,448.5C 402.369,447.624 402.702,446.957 403.5,446.5C 412.043,448.421 420.71,449.421 429.5,449.5C 432.965,451.239 436.632,451.573 440.5,450.5C 440.376,449.893 440.043,449.56 439.5,449.5C 426.617,436.864 419.283,421.531 417.5,403.5C 424.057,412.094 430.557,421.427 437,431.5C 447.011,442.913 459.178,450.913 473.5,455.5 Z"/></g>
<g><path style="opacity:1" fill="#8a4725" d="M 599.5,408.5 C 600.209,407.596 601.209,407.263 602.5,407.5C 602.802,410.059 602.468,412.393 601.5,414.5C 601.975,411.918 601.308,409.918 599.5,408.5 Z"/></g>
<g><path style="opacity:1" fill="#0d7733" d="M 612.5,418.5 C 613.5,418.5 614.5,418.5 615.5,418.5C 615.382,425.397 613.048,431.397 608.5,436.5C 601.831,444.138 593.498,449.305 583.5,452C 580.854,452.497 578.187,452.664 575.5,452.5C 575.674,450.139 576.007,447.806 576.5,445.5C 578.602,442.069 580.435,438.402 582,434.5C 589.271,423.449 599.438,418.116 612.5,418.5 Z"/></g>
<g><path style="opacity:1" fill="#a83d22" d="M 618.5,419.5 C 618.833,419.5 619.167,419.5 619.5,419.5C 621.167,419.5 622.833,419.5 624.5,419.5C 624.423,420.75 623.756,421.583 622.5,422C 628.551,422.746 634.551,422.579 640.5,421.5C 640.389,422.117 640.056,422.617 639.5,423C 632.508,423.5 625.508,423.666 618.5,423.5C 618.5,422.167 618.5,420.833 618.5,419.5 Z"/></g>
<g><path style="opacity:1" fill="#8b4825" d="M 601.5,415.5 C 601.5,416.5 601.5,417.5 601.5,418.5C 605.167,418.5 608.833,418.5 612.5,418.5C 599.438,418.116 589.271,423.449 582,434.5C 580.435,438.402 578.602,442.069 576.5,445.5C 575.5,445.5 574.5,445.5 573.5,445.5C 573.5,444.167 573.5,442.833 573.5,441.5C 574.158,442.398 574.824,443.398 575.5,444.5C 576.485,442.228 577.319,439.895 578,437.5C 584.278,428.04 592.111,420.707 601.5,415.5 Z"/></g>
<g><path style="opacity:1" fill="#8c4825" d="M 391.5,413.5 C 395.419,416.075 399.085,419.075 402.5,422.5C 403.386,421.675 403.719,420.675 403.5,419.5C 405.892,422.598 408.058,425.931 410,429.5C 416.696,435.366 423.196,441.366 429.5,447.5C 430.263,448.268 431.263,448.768 432.5,449C 431.552,449.483 430.552,449.649 429.5,449.5C 420.71,449.421 412.043,448.421 403.5,446.5C 402.702,446.957 402.369,447.624 402.5,448.5C 401.596,447.791 401.263,446.791 401.5,445.5C 408.681,445.988 415.848,446.655 423,447.5C 423.833,447.167 424.667,446.833 425.5,446.5C 414.977,435.81 403.977,425.643 392.5,416C 391.748,415.329 391.414,414.496 391.5,413.5 Z"/></g>
<g><path style="opacity:1" fill="#844a26" d="M 417.5,403.5 C 419.283,421.531 426.617,436.864 439.5,449.5C 439.265,450.097 438.765,450.43 438,450.5C 436.826,449.456 435.659,448.456 434.5,447.5C 424.641,435.449 418.307,421.782 415.5,406.5C 416.167,405.5 416.833,404.5 417.5,403.5 Z"/></g>
<g><path style="opacity:1" fill="#1a7633" d="M 610.5,438.5 C 615.166,442.166 620.499,443.832 626.5,443.5C 625.564,446.959 623.564,449.793 620.5,452C 606.8,461.908 592.467,463.075 577.5,455.5C 584.327,453.72 590.994,451.22 597.5,448C 601.892,444.815 606.226,441.648 610.5,438.5 Z"/></g>
<g><path style="opacity:1" fill="#605729" d="M 429.5,447.5 C 431.475,447.822 433.142,447.822 434.5,447.5C 435.659,448.456 436.826,449.456 438,450.5C 438.765,450.43 439.265,450.097 439.5,449.5C 440.043,449.56 440.376,449.893 440.5,450.5C 436.632,451.573 432.965,451.239 429.5,449.5C 430.552,449.649 431.552,449.483 432.5,449C 431.263,448.768 430.263,448.268 429.5,447.5 Z"/></g>
<g><path style="opacity:1" fill="#854926" d="M 608.5,436.5 C 609.167,437.167 609.833,437.833 610.5,438.5C 606.226,441.648 601.892,444.815 597.5,448C 590.994,451.22 584.327,453.72 577.5,455.5C 576.599,454.71 575.932,453.71 575.5,452.5C 578.187,452.664 580.854,452.497 583.5,452C 593.498,449.305 601.831,444.138 608.5,436.5 Z"/></g>
<g><path style="opacity:1" fill="#147633" d="M 526.5,475.5 C 520.687,477.76 515.353,480.76 510.5,484.5C 492.697,493.466 477.03,505.299 463.5,520C 461.246,521.15 458.913,521.484 456.5,521C 452.286,516.454 448.453,511.621 445,506.5C 444.251,505.365 444.417,504.365 445.5,503.5C 461.23,492.039 478.23,483.039 496.5,476.5C 500.736,474.664 504.736,472.664 508.5,470.5C 515.75,468.187 523.084,466.187 530.5,464.5C 532.801,463.94 535.134,463.44 537.5,463C 538.056,462.617 538.389,462.117 538.5,461.5C 549.882,458.131 561.216,454.798 572.5,451.5C 572.67,452.822 572.337,453.989 571.5,455C 557.14,463.285 542.14,470.118 526.5,475.5 Z"/></g>
<g><path style="opacity:1" fill="#914624" d="M 473.5,455.5 C 475.967,455.755 477.967,456.755 479.5,458.5C 477.033,458.245 475.033,457.245 473.5,455.5 Z"/></g>
<g><path style="opacity:1" fill="#65582a" d="M 538.5,461.5 C 538.389,462.117 538.056,462.617 537.5,463C 535.134,463.44 532.801,463.94 530.5,464.5C 530.611,463.883 530.944,463.383 531.5,463C 533.866,462.56 536.199,462.06 538.5,461.5 Z"/></g>
<g><path style="opacity:1" fill="#8b4725" d="M 458.5,463.5 C 461.01,463.927 463.343,464.593 465.5,465.5C 463.473,465.662 461.473,465.495 459.5,465C 458.944,464.617 458.611,464.117 458.5,463.5 Z"/></g>
<g><path style="opacity:1" fill="#7c4d27" d="M 508.5,470.5 C 504.736,472.664 500.736,474.664 496.5,476.5C 495.9,475.1 494.9,474.1 493.5,473.5C 498.703,473.391 503.703,472.391 508.5,470.5 Z"/></g>
<g><path style="opacity:1" fill="#127733" d="M 527.5,477.5 C 544.567,484.74 561.067,493.073 577,502.5C 577.459,505.93 576.459,508.93 574,511.5C 570.368,514.13 567.035,517.13 564,520.5C 549.578,505.878 533.411,493.878 515.5,484.5C 518.487,480.699 522.487,478.366 527.5,477.5 Z"/></g>
<g><path style="opacity:1" fill="#884925" d="M 526.5,475.5 C 526.833,476.167 527.167,476.833 527.5,477.5C 522.487,478.366 518.487,480.699 515.5,484.5C 513.901,483.438 512.234,483.438 510.5,484.5C 515.353,480.76 520.687,477.76 526.5,475.5 Z"/></g>
</svg>
