<?xml version="1.0" encoding="UTF-8" standalone="no"?>
<svg
   height="600"
   viewBox="0 0 900 600"
   width="900"
   version="1.1"
   id="svg8"
   sodipodi:docname="Flag_of_Cambodia_under_UNTAC.svg"
   inkscape:version="1.1.1 (3bf5ae0d25, 2021-09-20)"
   xmlns:inkscape="http://www.inkscape.org/namespaces/inkscape"
   xmlns:sodipodi="http://sodipodi.sourceforge.net/DTD/sodipodi-0.dtd"
   xmlns="http://www.w3.org/2000/svg"
   xmlns:svg="http://www.w3.org/2000/svg">
  <defs
     id="defs12" />
  <sodipodi:namedview
     id="namedview10"
     pagecolor="#ffffff"
     bordercolor="#666666"
     borderopacity="1.0"
     inkscape:pageshadow="2"
     inkscape:pageopacity="0.0"
     inkscape:pagecheckerboard="0"
     showgrid="false"
     inkscape:zoom="1.3188889"
     inkscape:cx="440.90143"
     inkscape:cy="300.25274"
     inkscape:window-width="1920"
     inkscape:window-height="1007"
     inkscape:window-x="-9"
     inkscape:window-y="-9"
     inkscape:window-maximized="1"
     inkscape:current-layer="svg8" />
  <path
     d="m0 0h900v600h-900z"
     fill="#418fde"
     id="path2"
     style="fill:#009edb;fill-opacity:1" />
  <path
     d="m404.66291 456.64015c-2.74069-.69476-6.22262-2.95837-7.73762-5.03025-1.58165-2.16301-7.51712-4.0157-13.93937-4.351-6.15166-.32119-13.1717-1.4534-15.60008-2.51601-2.70951-1.18566-4.41523-.85307-4.41523.86086 0 1.53614-2.90538 2.79294-6.45639 2.79294-3.66179 0-5.78144 1.09206-4.89709 2.52299 2.86537 4.63626-4.64727 2.59203-10.42627-2.83706-4.84208-4.54891-5.18031-5.8852-2.23507-8.83047 1.90875-1.90872 5.20309-3.47043 7.32082-3.47043 5.18536 0 8.28006-16.38352 4.05608-21.4731-2.16439-2.60792-2.25183-3.75685-.28597-3.75685 1.55754 0 2.8319-1.32457 2.8319-2.94349s-.76088-2.1826-1.69082-1.25265c-.92998.92997-4.36809-.06335-7.64027-2.20734-7.5591-4.95294-9.9969-3.34637-13.70566 9.0324-2.98878 9.97569-5.55651 12.2268-8.50488 7.45624-1.03164-1.66925-3.32008-1.58973-6.72727.23374-7.07088 3.78421-8.9133.90101-10.22145-15.99563-.85211-11.00593-.30676-14.50723 2.25951-14.50723 2.76332 0 2.80134-.98428.20758-5.3756-2.53654-4.29452-2.54086-5.60534-.02137-6.51776 1.73456-.62815 3.15374-2.24983 3.15374-3.60375 0-1.35391-1.14337-1.75498-2.54081-.89134-1.39746.86368-3.21944-.19812-4.04887-2.35957-.82942-2.16148-2.55584-3.28235-3.8365-2.49088-1.33365.82426-1.7433-1.88213-.95888-6.33471 1.35871-7.71231-2.48447-9.93035-6.86802-3.9638-1.03355 1.4068-1.87069.46279-1.89225-2.13372-.02124-2.56119-1.59691-7.67025-3.50149-11.35348-7.32065-14.15735-9.51236-25.17348-6.8946-34.65423 2.1645-7.83912 1.7508-10.23379-2.84074-16.4442-2.95578-3.99791-7.55077-7.95976-10.21109-8.80414-3.51534-1.11571-4.51732-3.20717-3.66715-7.65456.64339-3.36567.28722-6.66487-.79149-7.33154-1.07871-.66668-1.62573-4.26886-1.21562-8.00486.43874-3.99687-1.75257-10.56776-5.32406-15.96461-4.63437-7.00305-5.90761-11.95405-5.38424-20.93692.6606-11.33861.97045-11.76543 8.54947-11.77744 6.90026-.01095 9.37391-2.20455 20.18396-17.899 6.77597-9.8376 14.27318-21.66843 16.66051-26.2907 3.61653-7.0023 6.77292-9.06778 18.92246-12.38249 8.02001-2.18809 18.06851-5.11678 22.32998-6.50823 9.58047-3.1282 17.99889-3.25256 19.82805-.29291.76039 1.23035 5.65262 2.99389 10.87164 3.91899 5.21898.92513 11.47593 2.26571 13.90432 2.97904 2.93336.8617 4.41524-.08731 4.41524-2.82752 0-2.94992 1.4099-3.67704 4.9507-2.55325 2.72287.8642 7.19534.36998 9.93885-1.09831 3.5113-1.87917 5.47811-1.87683 6.64297.00795 1.64234 2.65735 15.78594.97592 19.33799-2.29893.97027-.89455 7.49851-1.23304 14.50721-.7522 11.71842.80395 12.74313 1.38722 12.74313 7.25361 0 5.67478.79779 6.2198 7.22355 4.93464 5.79837-1.15966 8.66063.05836 14.50721 6.17351 5.61205 5.86982 8.81547 7.31366 13.95816 6.29114 9.67639-1.9239 24.86293 1.07447 24.86293 4.90886 0 3.33051 2.78988 4.56849 16.39945 7.27708 5.64912 1.1243 8.27933.36427 10.36953-2.99636 3.08147-4.95438.34942-15.79427-3.98074-15.79427-5.58349 0-2.52615-10.01546 3.52063-11.53311 3.36872-.84548 6.77053-3.21961 7.55957-5.27584.81786-2.13134 3.87916-3.42274 7.1208-3.00389 6.49179.83879 12.70293-2.22829 10.78779-5.32706-.7085-1.14637.40833-2.7353 2.48182-3.53098 2.34893-.90136 3.77001.03262 3.77001 2.47779 0 2.15844 3.40886 5.21117 7.57527 6.7838 4.16641 1.57265 8.16513 4.71784 8.88608 6.98933 1.57674 4.9679 12.71761 3.72358 19.49132-2.17697 2.42838-2.11535 4.41523-2.9677 4.41523-1.89411 0 1.07358 3.89798-1.02114 8.66215-4.65496 4.76417-3.63381 10.9275-6.60694 13.69625-6.60694 2.76877 0 7.01589-1.98179 9.43809-4.40398 4.18996-4.18997 4.32237-3.99589 2.72446 3.99362-.92375 4.61867-3.90219 10.29035-6.6188 12.60371-6.6991 5.7047-7.89999 25.83019-1.89935 31.83083 2.35021 2.35023 4.27313 6.39574 4.27313 8.99001 0 2.5943 1.15256 5.42918 2.56123 6.29979 1.40866.87061 4.34197 5.76285 6.51845 10.87163 4.68689 11.00137 3.39061 28.74417-3.09924 42.42047-4.04335 8.52075-4.06676 10.22168-.33267 24.15828 7.19491 26.85292 1.69798 40.72003-15.06317 38.00007-7.10473-1.15295-9.51212-.04071-16.92527 7.81951-5.80098 6.15083-10.88777 9.16361-15.47193 9.16361-3.75623 0-8.151 1.80728-9.7662 4.01619-1.92663 2.63483-7.29688 4.15343-15.61367 4.41524l-12.67701.39906 1.14102 11.89778 1.14102 11.89778-8.51241-2.71128c-16.57425-5.27907-22.94354-5.58948-25.37935-1.2369-1.26846 2.26658-4.45353 4.12106-7.07798 4.12106-6.04393 0-9.02704 4.62067-5.35429 8.2934 1.54427 1.54428 2.82514 6.83825 2.84639 11.7644.0468 10.85021.87538 12.06947 14.46859 21.29107 10.31189 6.99559 13.56193 11.634 8.15167 11.634-1.48264 0-1.90089 2.67022-.98798 6.30749 1.8355 7.31328-3.81092 8.84287-9.10323 2.46602-1.84047-2.21763-5.17052-3.21225-7.87789-2.35297-2.57938.81866-4.6898.49363-4.6898-.7223s-1.436-4.17467-3.19112-6.57496c-2.94779-4.03133-4.02648-4.0694-14.14512-.49935-6.02469 2.12566-12.04397 3.19115-13.37618 2.36778-1.33222-.82334-3.8761.49129-5.65307 2.92143-2.59735 3.5521-4.66686 3.95301-10.55485 2.04459-4.02821-1.30562-9.83551-1.97154-12.90509-1.47984-4.6876.75087-5.34806 2.05909-4.12552 8.17182 2.07337 10.36676-9.07881 19.95949-23.33204 20.06949-7.054.05442-11.78042 1.68054-14.89826 5.12571-4.63483 5.12144-6.18674 5.45061-15.07506 3.19748z"
     fill="#fff"
     id="path4" />
  <path
     d="m443.40552 331.2275c-.11631-.23575-.96411-.89518-1.88392-1.46537-3.47206-2.15206-4.2635-4.01144-2.6025-6.11389.49244-.62332 2.27775-2.06714 2.55605-2.06714.06109 0 .11108.29815.11108.66269 0 .57573.0901.69683.68665.92307.85657.32481 1.61643.04466 1.91977-.70788.12021-.29816.21971-1.32618.22112-2.28446.00369-2.47909-.68122-4.33281-.99012-2.67953-.34086 1.82477-2.35929 2.62508-4.09929 1.62548-1.38046-.79306-1.634-2.79746-.55123-4.3584.81064-1.16862 1.85975-1.57703 4.05133-1.57703 1.75386 0 1.89897.03583 2.60676.64363.51216.43973.90434 1.0425 1.2382 1.90306l.48861 1.25953-.00251 5.14952c-.00238 4.88772-.02308 5.20654-.40745 6.26906-.52018 1.438-1.16583 2.29602-2.12525 2.82437-.94472.52032-.95734.52023-1.2173-.00671zm-16.06061-20.34827c-3.17243-1.38857-4.21079-3.51459-4.23185-8.66499-.01017-2.49409.02287-2.76807.4617-3.82044.58448-1.40181 1.40333-2.35056 3.69713-4.28373l1.78632-1.50541 1.36135.3563c1.53861.40271 3.4876 1.33061 4.52199 2.15287.44455.3534.77395.48209.91208.35639 2.86267-2.60415 3.55399-2.93979 5.35738-2.6011.74146.13925 2.60572.76239 4.14273 1.38476 1.53707.62236 3.04453 1.1316 3.34987 1.1316h.55527l-.38708.45651c-.37688.44441-.38714.59481-.38714 5.67805 0 6.79017-.0403 7.13801-.96306 8.30593-.47388.59993-1.01862 1.02545-1.55689 1.21619-.78642.27874-.85314.26638-1.33444-.24617-.27864-.29674-1.17699-.86905-1.99639-1.27172-2.17854-1.07064-3.13309-2.37148-3.40839-4.64472l-.11101-.91698.75978.02136c.60143.01695 1.28291-.30249 3.27004-1.53289 1.38068-.85483 2.51026-1.617 2.51026-1.69369 0-.20796-2.00533-1.05089-3.71451-1.56131-2.64504-.78998-4.85029-.53312-6.94361.80858l-.84124.5392-2.08921-.89993c-2.98771-1.28708-4.94862-1.21946-5.95184.20494-.46992.6672-.59418 3.16622-.21463 4.31613.51949 1.57366 1.8867 2.01048 2.14926.6867.09441-.47645.03535-.70127-.2654-1.00948-.21275-.2181-.53728-.39657-.72103-.39657-.54711 0-.37926-.39958.24065-.57302.31623-.08844 1.21819-.15755 2.00441-.15348 1.59943.0082 2.44061.40963 3.32312 1.58565 1.22789 1.63635.24803 4.18065-2.21892 5.76156-.6494.41616-1.23116.85995-1.29282.98617-.16108.32994-.75727.27168-1.77388-.17326zm18.48656-6.54374v-1.34912l-.48645.32454c-.26756.17848-.64564.47717-.8402.66375-.31448.30151-.32431.37654-.08842.67593.21917.2783 1.21417 1.02775 1.3708 1.03261.02432.00078.04427-.60576.04427-1.34771zm-64.38519-14.38098c0-.6725-.77193-1.53063-2.47476-2.75103-1.8591-1.33238-3.46326-3.08785-3.98193-4.35741-.72137-1.76566-.21811-4.19497 1.22058-5.89246.71049-.83827 2.64106-2.6142 2.84188-2.6142.05586 0 .0516.25188-.00947.55974-.27279 1.37591.34942 2.12699 1.7621 2.12699 1.02609 0 1.43884-.5954 1.70723-2.46283.35871-2.49578-.07259-6.95549-.71482-7.39054-.26999-.18287-.32759-.07882-.42863.77456-.25306 2.13568-1.38369 3.25756-3.28295 3.25756-1.42125 0-2.19653-.47199-2.88546-1.75685-.61859-1.15353-.73121-3.25028-.24302-4.52283.44355-1.15619 1.43492-2.35675 2.45049-2.96775l.88782-.53411-.83783-.70247c-.46085-.38636-1.1249-.7605-1.47578-.83143-1.59817-.32309-1.43382.20631-1.43382-4.61799v-4.28243l.43374.59243c.32327.44149.60491.59187 1.10551.59025.85414-.00278 1.70324-.50932 5.61712-3.35089l3.17534-2.30538.89236.28365c1.62383.51617 4.82245 2.25528 6.82626 3.71145l1.97464 1.43499.4861-.50151c.26735-.27586 1.03501-1.06665 1.70596-1.75733 1.32127-1.3602 3.52527-3.11015 3.91716-3.11015.13374 0 1.34155.84117 2.68402 1.86926 3.33279 2.55238 4.86193 3.34222 6.514 3.36462.70533.00957 1.28243.05789 1.28243.10738 0 .0495-.36652 1.03735-.81446 2.19526-.9729 2.51471-2.16119 4.62349-2.94712 5.23005-1.19407.92156-3.14404.50273-6.45982-1.38741-3.56954-2.03484-5.06695-2.0402-7.88464-.02824-.5971.4264-1.33611 1.01619-1.64218 1.31065l-.55637.53538-1.68526-1.08603c-2.52113-1.62476-3.94427-2.13656-5.95769-2.14259-1.38081-.00414-1.87758.09409-2.78584.55082-.60798.30572-1.10342.60798-1.1009.67167.00251.06371.31266.29548.68928.51503.79724.46485 1.48165 1.27532 2.07346 2.45545.23158.46178.52633.8396.65513.8396.41984 0 1.86293 1.5943 2.30223 2.54343.23597.50982.52118 1.3604.63379 1.89018l.2048.96325 1.00776-1.16805c2.71183-3.14312 5.52179-4.45269 9.55427-4.45269 3.03422 0 5.44893.65467 10.24978 2.77893 1.15406.51064 2.1397.80337 2.70495.80337h.88928l-.49384 1.0635-.49391 1.0635-.11686 7.94822c-.1189 8.09101-.20452 9.13682-.9213 11.2517-.62736 1.85134-2.01277 3.45675-3.33969 3.87012-.40278.12549-.48637.07793-.48637-.2766 0-.62119-.98022-1.70593-2.28802-2.532-2.96371-1.8721-4.07907-4.00091-4.41391-8.42483-.12078-1.59564-.12051-1.59676.25863-1.28231.47047.39022.40269.42387 3.949-1.96208l2.90229-1.95263-.69041-.3717c-2.44902-1.31835-5.02971-1.90247-8.38482-1.89778-4.65483.00652-6.46435.93023-5.84724 2.98481l.18646.62064-.8399-.15503c-.85651-.15809-1.86956-.70652-2.74141-1.48404l-.48644-.43379-.00308 4.773c-.00333 5.20676-.19057 6.97036-.93767 8.83242-.24057.59957-.63219 1.35526-.87017 1.67932-.95671 1.3023-2.78806 2.42175-2.78806 1.70421zm24.23289-11.91624v-1.4507l-.79598.71016c-.43778.3906-.79598.77593-.79598.85628 0 .32818.93139 1.12296 1.54774 1.32077.02434.0078.04422-.63862.04422-1.43651zm21.39149 11.75767c-3.45065-.79385-5.71461-2.11552-7.65161-4.46701-1.84152-2.2356-2.96412-5.44772-3.18357-9.10938l-.09532-1.59022.51649.65379.5165.65378 1.90317-.1446c2.37046-.18011 3.71542-.45055 5.12169-1.02986 2.02471-.83406 2.57852-1.91447 1.33619-2.60653-.54104-.30139-1.47014-.38599-5.04115-.45901l-4.37785-.08952v-10.30128c0-9.87329.01296-10.28103.31177-9.814.43748.68385.75762.486 3.68138-2.27488 1.35467-1.27923 2.56611-2.40539 2.69198-2.50257.14782-.11415.58419.19357 1.23249.86908 2.22742 2.32113 5.40095 4.13342 7.24862 4.13938l.92721.003-.28394.95154c-.69543 2.33083-2.02632 5.48312-2.61981 6.205-.58679.71379-.71529.77145-1.61342.72388-.61391-.03252-1.58047-.34771-2.60579-.84975-1.07246-.52511-2.05407-.839-2.87028-.91782l-1.24037-.11977-.93377 1.06267c-.51357.58446-1.0519 1.35182-1.19623 1.70523-.24148.59094-.2373.64273.05152.64448.17279.00106 1.18968.10086 2.25978.22177 4.25631.48093 6.9821 2.26165 8.17722 5.34198.43319 1.11658.48931 1.50985.48366 3.39009-.00551 1.84847-.06938 2.29163-.48791 3.38414-.26491.69142-.95503 1.91105-1.53359 2.71027l-1.05196 1.45315.47863.56753c.70811.83962 1.79146 1.45942 3.52881 2.01883 1.38952.44741 1.98524.49865 5.7939.49833 3.56674-.00029 4.42694-.06535 5.38233-.40712 2.14673-.76794 3.89225-2.22087 4.53768-3.77705.32537-.78455.32153-2.4143-.00711-3.0082-.64655-1.16844-2.71324-1.7548-7.03853-1.99698l-2.60906-.14608.00537-10.33182c.00413-7.81936.05419-10.22293.20606-9.88404.50597 1.12952.75002.9656 3.28323-2.20521 1.49579-1.87225 2.05002-2.43715 2.22769-2.27055.13012.12197.90345.86161 1.71853 1.64363 2.00818 1.92682 4.01993 3.18593 5.3306 3.33637.56397.06472 1.02539.16045 1.02539.21273s-.33234 1.1209-.73853 2.37475c-.88028 2.71708-1.78873 4.74335-2.32261 5.1801-.50729.41505-1.45883.18622-3.60955-.86812-2.05072-1.00535-2.9817-1.0524-3.62226-.18312-.5123.69535-.75163 1.24556-.912 2.09678l-.11025.58546 2.07569.15618c3.16677.23827 4.76305.80257 6.33521 2.23963 2.26507 2.07044 3.31467 6.48876 2.82265 11.88193-.53094 5.81927-3.72316 10.71819-8.48823 13.02647-2.62936 1.27369-4.73628 1.67916-9.2068 1.77177-3.26588.06767-4.19176.01152-5.75994-.34923zm42.59699.11102c-2.49672-.45199-4.44062-1.13199-6.11744-2.13998-3.46388-2.0823-5.59312-6.30545-5.92332-11.74836-.10144-1.67218-.09112-1.75045.15489-1.1783.34865.81096.8353.93402 3.02355.76455 3.11592-.24133 5.51258-1.13404 6.25592-2.33018.74787-1.20348.27606-2.10515-1.4486-2.76823-1.07568-.41357-1.52774-.46358-3.21991-.35631-1.18012.0748-2.48124.31102-3.24869.58976-.70408.25573-1.36075.46498-1.45927.46498-.11805 0-.17914-3.19982-.17914-9.38633v-9.38633l.51706.65447c.28435.35995.70225.65347.92868.65227.67346-.00359 1.9994-.89709 5.92714-3.99415 2.0471-1.61413 3.83946-2.99182 3.98304-3.06157.14392-.06991 2.8921 1.52665 6.12498 3.55832 6.31427 3.9682 8.04606 4.84295 9.5876 4.84295 1.20914 0 1.76331-.42968 1.76331-1.36718 0-.91577-.36177-1.71201-1.26821-2.7912-1.4304-1.70305-2.69058-2.31559-5.20425-2.52963l-1.65304-.14076.87351-2.23894c.96131-2.46417 2.13357-4.33303 3.07111-4.89614.75652-.45439 2.39115-.47045 3.52581-.03468 2.62072 1.00651 5.31372 3.80259 6.06695 6.2993.22845.75716.37223.96894.58519.86189 2.60041-1.3076 4.1175-1.74647 5.41184-1.56558 2.94851.41208 5.87526 1.58465 9.81694 3.93305 2.58871 1.54227 2.81339 1.6345 4.02511 1.65231 1.06563.01569 1.26561.07584 1.17866.35473-.51908 1.66602-.78831 2.7749-.94773 3.90328-.11727.83-.18868 5.99688-.19035 13.7695-.00273 13.18135-.05064 14.07307-.86425 16.0918-.42292 1.04936-1.85226 2.75908-2.83966 3.39668-.41239.26629-.76196.45195-.77688.41257-.64626-1.70857-.81244-1.92366-2.76875-3.58379-2.20559-1.87172-3.32505-3.2483-3.98778-4.90371-.65142-1.62702-1.1332-4.12221-1.25746-6.51207l-.11262-2.16602.72521.12311c.54642.09278.8812.00663 1.35809-.34954.82833-.61863 5.73071-5.82733 6.32251-6.71758 1.5387-2.31462.8167-3.82481-2.95952-6.19049-3.97189-2.48829-9.27089-4.58701-11.58164-4.58701-1.1157 0-1.30998.06527-1.71316.57563-.38868.49196-.43847.70424-.343 1.46044.11059.87535.10654.88323-.37732.73676-.26909-.08143-.63246-.24109-.80748-.3548-.25501-.16561-.53582.04806-1.41114 1.07391-2.33676 2.73836-4.06695 3.67285-6.79957 3.67236-3.07458-.00055-5.09023-.61935-9.19858-2.82395-3.30302-1.77248-5.10933-2.40542-6.31728-2.21357-1.17868.18719-2.43572.98104-3.79477 2.39645l-1.13041 1.17726 1.87303.26276c3.5556.49875 5.60875 1.66511 7.1418 4.05711 1.02198 1.59453 1.37434 3.17246 1.23536 5.53237-.16938 2.87638-.88181 4.68064-2.35475 5.96343l-.79813.69504.41189.55905c.59802.81176 1.88329 1.57431 3.55036 2.10646 2.1512.68666 8.05123.87035 9.89442.30803 2.70188-.82426 4.99561-2.66841 6.82305-5.48574.7842-1.20893 1.70604-3.31929 3.03044-6.93705.34315-.93741.08606 4.02152-.34829 6.71682-1.271 7.88802-4.6478 12.7066-10.29518 14.69087-1.48359.52128-1.99549.58028-5.69828.65681-2.85996.05909-4.58016-.0086-5.7916-.22791zm38.60322-16.06924v-3.18842l-1.17064 1.48175c-1.16074 1.46925-1.1689 1.48823-.96948 2.25301.23472.90029 1.54741 2.55083 2.09591 2.63527.02434.00375.04421-1.42799.04421-3.18161zm-75.06305 4.18418c-1.32397-.33302-2.94669-.95438-3.1731-1.21502-.07845-.0903.0495-.45573.28436-.81206.79633-1.20843 1.2053-2.74995 1.31233-4.94669l.10035-2.05987 1.26325 1.32261c.69481.72744 1.72453 1.58992 2.2883 1.91662 1.23082.71325 3.74323 1.20587 6.18132 1.212l1.73553.00435-.56224.99104c-1.84306 3.24856-5.39866 4.60104-9.4301 3.58702z"
     fill="#418fde"
     id="path6"
     style="fill:#009edb;fill-opacity:1" />
</svg>
