<?xml version="1.0" encoding="UTF-8" standalone="no"?>
<!-- Created with Inkscape (http://www.inkscape.org/) -->

<svg
   xmlns:dc="http://purl.org/dc/elements/1.1/"
   xmlns:cc="http://creativecommons.org/ns#"
   xmlns:rdf="http://www.w3.org/1999/02/22-rdf-syntax-ns#"
   xmlns:svg="http://www.w3.org/2000/svg"
   xmlns="http://www.w3.org/2000/svg"
   xmlns:sodipodi="http://sodipodi.sourceforge.net/DTD/sodipodi-0.dtd"
   xmlns:inkscape="http://www.inkscape.org/namespaces/inkscape"
   width="749.99994"
   height="500"
   id="svg2187"
   sodipodi:version="0.32"
   inkscape:version="0.48.5 r10040"
   version="1.0"
   sodipodi:docname="Flag_of_Albania_(1934-1939).svg"
   inkscape:output_extension="org.inkscape.output.svg.inkscape">
  <defs
     id="defs2189" />
  <sodipodi:namedview
     id="base"
     pagecolor="#ffffff"
     bordercolor="#666666"
     borderopacity="1.0"
     inkscape:pageopacity="0.0"
     inkscape:pageshadow="2"
     inkscape:zoom="0.70710678"
     inkscape:cx="304.59528"
     inkscape:cy="324.63909"
     inkscape:document-units="px"
     inkscape:current-layer="layer1"
     inkscape:window-width="1366"
     inkscape:window-height="705"
     inkscape:window-x="-8"
     inkscape:window-y="-8"
     showgrid="false"
     inkscape:window-maximized="1"
     showguides="true"
     inkscape:guide-bbox="true" />
  <metadata
     id="metadata2192">
    <rdf:RDF>
      <cc:Work
         rdf:about="">
        <dc:format>image/svg+xml</dc:format>
        <dc:type
           rdf:resource="http://purl.org/dc/dcmitype/StillImage" />
      </cc:Work>
    </rdf:RDF>
  </metadata>
  <g
     inkscape:label="Ebene 1"
     inkscape:groupmode="layer"
     id="layer1"
     transform="translate(0.4999997,-191.43361)">
    <rect
       style="fill:#cc1100;fill-opacity:1;fill-rule:nonzero;stroke:none"
       id="rect2219"
       width="750"
       height="500"
       x="-0.5"
       y="191.43361" />
    <g
       id="g5"
       transform="translate(738.03481,29.681547)" />
    <g
       transform="matrix(0.23503432,0,0,0.23503432,287.51907,171.5809)"
       id="g4214">
      <path
         sodipodi:nodetypes="cccccccccccccccccccccccccccccccccccccccccc"
         inkscape:connector-curvature="0"
         id="path3884"
         d="m 472.625,462.67618 c 2.68758,8.95861 -0.63295,19.21255 7.95507,25.01073 0.52851,6.99548 0.1894,15.75322 0.1894,22.20617 -5.033,2.27038 -14.46187,6.8564 -26.34236,8.06233 -11.88049,1.20597 -24.58761,1.90677 -31.30211,1.90677 -23.26901,0 -46.40384,-3.35241 -67.80384,-3.75654 -22.95397,-0.43347 -64.42053,6.37603 -69.63739,-2.65984 -2.90565,-6.29557 -0.88633,-15.23248 -0.37881,-22.8547 -1.99997,-2.30935 -1.57891,-7.4127 -1.40159,-10.98541 0.9078,-18.29018 4.73912,-38.28396 12.11365,-53.03301 -0.16255,-10.34939 3.92324,-17.58555 10.16022,-21.74353 -0.38481,-6.66415 2.46232,-11.00346 7.32276,-11.46697 5.76565,-9.81597 15.16937,-8.33282 22.5,-11 2.9138,-1.05313 10.02119,-10.53937 14.625,-14.5 2.73629,-2.35401 -0.0993,-16.19026 2.96875,-21.5 0.65517,-1.13386 0.78957,-3.28852 0.31564,-4.125 -2.07136,-3.65596 -6.72053,-2.74083 -10.77066,-4.24035 -8.10402,-3.00043 -20.20667,-6.16254 -26.17812,-10.77265 -4.08227,-3.15162 -6.91983,-7.22175 -9.11763,-12.28574 -2.19779,-5.06398 -3.68393,-13.39842 -6.5271,-15.4682 11.22921,1.36784 18.09023,2.57209 23.93412,8.70444 3.02476,3.17407 10.13977,7.23568 15.375,9.8125 -11.43548,-20.86143 -25.34463,-30.77345 -41.68882,-43.31695 -21.12697,-16.21409 -44.35189,-25.05888 -44.8232,-27.61873 -0.58072,-3.15405 4.59018,-3.16967 6.85577,-2.87682 11.95661,1.54553 43.08636,13.03709 64.57184,27.36682 20.19363,13.46813 38.08086,31.20235 52.23121,47.37417 -0.0698,-7.52902 -11.06067,-22.36542 -17.85445,-28.15038 -6.54413,-5.57238 -10.47422,-15.17904 -9.89949,-24.70585 16.68859,7.87923 27.99969,27.66875 46.13871,45.78517 5.69425,3.43414 9.66026,7.24962 10.25305,12.58147 3.26464,3.26464 8.66401,8.96146 11.21538,10.3111 -0.83688,3.12329 2.34116,6.21084 0.27511,10.34144 -0.56742,1.13442 -1.45477,1.71939 -1.32583,3.13779 6.18618,3.57159 9.55544,17.82688 13.92572,25.02077 2.96314,4.87761 10.16659,9.66916 10.55786,12.76525 0.7694,6.08816 -4.54956,9.45599 -5.05786,15.04725 1.66024,3.06395 4.27555,4.209 6.2953,5.0169 5.14239,3.84407 9.3297,8.11503 9.3297,14.3996 l 1.75,0.021 c 10.44477,7.28542 12.9375,18.43976 12.9375,34 4.71155,0 8.01314,4.77958 6.3125,8.189 z"
         style="fill:#000000;stroke:none" />
      <path
         inkscape:connector-curvature="0"
         id="path3215"
         d="m 258.875,244.0625 c -2.38289,0.0287 -5.18554,0.63446 -4.75,3 0.47131,2.55985 23.68553,11.37966 44.8125,27.59375 16.34419,12.5435 30.25202,22.48232 41.6875,43.34375 -5.23523,-2.57682 -12.35024,-6.63843 -15.375,-9.8125 -5.84389,-6.13235 -12.70829,-7.35091 -23.9375,-8.71875 2.84317,2.06978 4.33346,10.40477 6.53125,15.46875 2.1978,5.06399 5.04273,9.12963 9.125,12.28125 5.97145,4.61011 18.05223,7.78082 26.15625,10.78125 4.05013,1.49952 8.70989,0.59404 10.78125,4.25 0.47393,0.83648 0.34267,2.99114 -0.3125,4.125 -3.06805,5.30974 -0.23246,19.14599 -2.96875,21.5 -4.60381,3.96063 -11.7112,13.44687 -14.625,14.5 -7.33063,2.66718 -16.73435,1.18403 -22.5,11 -4.81374,0.45906 -7.6324,4.72549 -7.3125,11.28125 6.53559,-1.35402 10.14045,-10.16972 15.96875,-12.15625 -1.20931,2.98572 -6.89297,8.11869 -3.5,9.84375 2.76748,1.40705 11.41363,-7.91469 12.71875,-9.40625 0.79036,2.21945 -4.21072,8.44498 -2.4375,9.46875 3.83539,2.21436 10.85094,-7.59611 12.375,-9.9375 3.77146,13.34963 13.25172,10.15371 12.375,-3.1875 1.52145,4.56567 5.42921,15.94955 11.1875,12.625 5.92572,-3.42122 -1.63447,-9.9614 -2.65625,-13.34375 5.19748,5.1757 7.10012,12.01467 13.125,16.03125 0.99375,0.6625 3.23958,0.68477 4.5,0.1875 2.19757,-0.86701 0.80703,-3.72196 -0.0937,-4.84375 -1.03533,-1.2893 -2.9375,-3.71875 -2.9375,-3.71875 2.22411,1.09417 3.60905,3.25328 8.5625,7.71875 4.95346,4.46545 7.11088,4.78831 9,3.84375 1.6605,-0.83025 -2.0501,-5.45635 -3.46875,-6.875 1.65486,0.86578 4.71065,3.91256 7.90625,6.21875 3.19559,2.30618 7.3003,3.10754 8.15625,1.625 0.67635,-1.17147 -1.44138,-2.64979 -3.59375,-4.3125 -2.15237,-1.6627 -3.62563,-2.90688 -4.21875,-3.5 0,0 1.8816,0.40061 5.5,2.59375 3.61839,2.19314 8.97465,6.17012 10.875,6.65625 3.8007,0.97227 5.6326,0.44172 5.5625,-0.75 -0.0681,-1.15729 -1.62094,-2.14342 -3.15625,-3.3125 -1.5353,-1.16908 -3.03125,-2.53125 -3.03125,-2.53125 0,0 11.08058,5.73483 15.5,6 3.3313,0.19988 5.01072,-0.0309 5.1875,-1.3125 0.14861,-1.07738 -2.71875,-3.6875 -2.71875,-3.6875 3.95425,2.28298 8.19041,3.82515 10.75,2.53125 -0.44474,-0.35375 -0.88143,-0.7169 -1.34375,-1.0625 -1.84965,-0.73986 -4.18807,-1.76346 -5.84375,-4.28125 -5.91388,0.90674 -23.88996,1.41353 -38.625,-7.09375 -23.45603,-13.54235 -30.09581,-15.34375 -33.4375,-15.34375 -13.8332,-0.0338 -21.10612,11.52407 -35.375,9.15625 14.88942,0 24.34423,-14.45522 39.375,-10.375 17.25387,4.6837 35.24566,22.35857 58.375,21.84375 0.41479,-4.56266 -5.63951,-5.45271 -5.3125,-10.34375 0.25837,-3.86439 3.07089,-5.77608 4.59375,-3.53125 1.12853,1.66355 -2.53922,4.89828 -0.96875,6.46875 1.06814,1.06814 3.65625,0.15625 3.65625,0.15625 0,0 -0.29142,3.58194 0.53125,4.6875 0.82268,1.10557 2.93664,1.67959 5.5,1.875 0,-5.26732 2.92477,-3.03847 1.15625,-10.96875 -0.49665,-2.22706 0.57972,-1.84105 1.65625,-1.90625 0.99931,-0.0605 2.03458,-1.13015 0.8125,-4.4375 -2.0274,-2.14151 -4.75927,-4.58691 -6.71875,-7.09375 -5.03676,-0.70494 -7.89144,-5.38259 -6.5,-13.28125 -2.08125,-4.93384 -4.31324,-9.75496 -7.15625,-12.3125 -0.19798,0.01 -0.70972,0.22135 -0.90625,0.28125 -1.39996,0.42648 -3.05517,-1.71361 -1.78125,-2.90625 0.44842,-0.41981 0.68225,-3.15536 0.65625,-4.15625 -0.17138,-6.59735 -3.44237,-11.43832 -6.71875,-15.1875 -1.02815,-1.03685 -2.01102,-2.04227 -2.84375,-2.875 -0.59279,-5.33185 -4.55575,-9.15961 -10.25,-12.59375 -18.13902,-18.11642 -29.43641,-37.90202 -46.125,-45.78125 -0.57473,9.52681 3.33087,19.11512 9.875,24.6875 4.418,3.76196 10.59602,11.36252 14.40625,18.28125 0.003,0.004 0.0288,0.0276 0.0312,0.0312 0.0653,0.0785 5.48507,8.1678 3.96875,13.21875 -6.60974,-7.71385 -10.52854,-13.31101 -15.15625,-19.09375 -0.008,-0.0115 -0.0543,-0.0503 -0.0625,-0.0625 -11.1522,-11.27562 -23.82528,-22.43172 -37.5625,-31.59375 -21.48548,-14.32973 -52.60589,-25.79822 -64.5625,-27.34375 -0.5664,-0.0732 -1.29945,-0.13456 -2.09375,-0.125 z m 47.03125,58.09375 c 1.54628,1.03086 4.85515,8.81196 9.1875,14.5625 6.04582,8.02491 18.69288,13.53259 24.9375,15.09375 3.35931,0.83982 8.77792,1.77121 10.90625,3 -4.74269,1.2708 -22.04508,-3.9266 -30.78125,-8.75 -7.21621,-4.8108 -13.51403,-15.26261 -14.25,-23.90625 z m 74.1875,41.9375 c 3.00154,0 2.36512,1.2848 4.625,1.875 2.25988,0.59038 4.65327,-0.14506 7.0625,0.59375 0.81189,0.24897 1.93749,1.29068 2.40625,2.1875 0.50901,0.97383 1.39558,1.2687 1.8125,2 0.8445,1.48076 0.71875,3.05335 0.71875,4.40625 l -2,0 0,-2.28125 c 0,-0.37023 -0.0771,-0.8125 -1.0625,-0.8125 -1.01059,0 -0.9636,0.85632 -0.9375,1.3125 0.0261,0.45618 0.055,0.80965 -0.15625,1.21875 -0.10565,0.20455 -0.28393,0.37075 -0.53125,0.46875 -0.23915,0.0947 -0.9249,0.0947 -0.9375,0.0937 -1.65498,-0.003 -3.19656,0.0945 -4.09375,-0.4375 -0.90352,-0.53571 -1.12035,-1.60938 -1.15625,-2.78125 -0.01,-0.31882 -0.1079,-0.50974 -0.25,-0.6875 -0.1421,-0.17776 -0.35159,-0.34043 -0.625,-0.5 -0.54682,-0.31914 -1.80458,-0.52333 -2.53125,-1.25 -0.62706,-0.62706 -0.70975,-1.32165 -0.71875,-1.75 -0.004,-0.21418 0.0131,-1.08063 -0.125,-1.21875 -0.4933,-0.4933 -1.08378,-0.18226 -2.03125,-0.375 -0.47374,-0.0964 -0.91791,-0.21149 -1.28125,-0.46875 -0.36334,-0.25726 -0.59375,-0.68889 -0.59375,-1.25 l 0,-0.3125 c 0.0625,-0.0107 1.68013,-0.0312 2.40625,-0.0312 z M 354.625,396.5625 c 0,0 -1.31928,6.3513 -5.125,6.375 -5.25623,0 -6.56459,-2.66988 -8.59375,-5.84375 0,0 -4.99874,7.4897 -9.03125,7.5 -4.59736,0.0117 -5.90625,-2.125 -5.90625,-2.125 0,0 -2.7343,1.96606 -5.8125,1.8125 -3.14197,-0.15674 -5.09375,-2.15625 -5.09375,-2.15625 0,0 -6.93751,5.36498 -9.0625,2.875 -6.12377,4.17825 -10.12955,11.32445 -9.96875,21.5625 -7.37453,14.74905 -11.2172,34.74107 -12.125,53.03125 -0.17732,3.57271 -0.59372,8.69065 1.40625,11 -0.50752,7.62222 -2.53065,16.54818 0.375,22.84375 5.21686,9.03587 46.67103,2.22278 69.625,2.65625 21.4,0.40413 44.54349,3.78125 67.8125,3.78125 6.7145,0 19.43201,-0.70028 31.3125,-1.90625 11.88049,-1.20593 21.31075,-5.79212 26.34375,-8.0625 0,-6.45295 0.34101,-15.22327 -0.1875,-22.21875 -8.58802,-5.79818 -5.28117,-16.04139 -7.96875,-25 1.70064,-3.40942 -1.60095,-8.1875 -6.3125,-8.1875 0,-15.56024 -2.49273,-26.71458 -12.9375,-34 l -1.75,-0.0312 c 0,-5.63099 -3.38063,-9.64716 -7.78125,-13.1875 0.0629,1.60295 -3.90161,2.01264 -6.0625,1.15625 0,5.46735 -11.57306,2.67468 -14.125,0.28125 1.86548,6.21827 -10.18085,4.1629 -14.46875,-0.125 0.45625,5.01876 -9.20637,3.31016 -12.28125,-0.9375 0.59572,3.27644 -2.55259,3.61746 -6.0625,2.21875 -3.5099,-1.3987 -7.38794,-4.53064 -8.21875,-5.96875 -0.14871,1.63578 -0.70095,3.31982 -2.25,3.71875 -6.22721,1.66858 -11.71875,-7.21875 -11.71875,-7.21875 0,0 -1.07816,3.32612 -5.375,3.59375 -6.8791,0.42847 -8.65625,-7.4375 -8.65625,-7.4375 z"
         style="fill:#d9a005;fill-opacity:1;stroke:none" />
      <path
         inkscape:connector-curvature="0"
         id="path3078"
         d="m 301.3125,299.46875 c 0.14563,0.1162 0.4375,0.375 0.4375,0.375 2.5837,2.52848 4.00312,10.27669 6.09375,15.09375 2.1978,5.06399 5.04273,9.12963 9.125,12.28125 5.97145,4.61011 18.05223,7.78082 26.15625,10.78125 4.05013,1.49952 8.70989,0.59404 10.78125,4.25 0.47393,0.83648 0.34267,2.99114 -0.3125,4.125 -3.06805,5.30974 -0.23246,19.14599 -2.96875,21.5 -4.60381,3.96063 -11.7112,13.44687 -14.625,14.5 -7.33063,2.66718 -16.73435,1.18403 -22.5,11 -4.81374,0.45906 -7.6324,4.72549 -7.3125,11.28125 6.53559,-1.35402 10.14045,-10.16972 15.96875,-12.15625 -1.20931,2.98572 -6.89297,8.11869 -3.5,9.84375 2.76748,1.40705 11.41363,-7.91469 12.71875,-9.40625 0.79036,2.21945 -4.21072,8.44498 -2.4375,9.46875 3.83539,2.21436 10.85094,-7.59611 12.375,-9.9375 3.77146,13.34963 13.25172,10.15371 12.375,-3.1875 1.52145,4.56567 5.42921,15.94955 11.1875,12.625 5.92572,-3.42122 -1.63447,-9.9614 -2.65625,-13.34375 5.19748,5.1757 7.10012,12.01467 13.125,16.03125 0.99375,0.6625 3.23958,0.68477 4.5,0.1875 2.19757,-0.86701 0.80698,-3.72196 -0.0937,-4.84375 -1.03533,-1.2893 -2.9375,-3.71875 -2.9375,-3.71875 2.22411,1.09417 3.60905,3.25328 8.5625,7.71875 4.95346,4.46545 7.11088,4.78831 9,3.84375 1.6605,-0.83025 -2.0501,-5.45635 -3.46875,-6.875 1.65486,0.86578 4.71065,3.91256 7.90625,6.21875 3.19559,2.30618 7.3003,3.10754 8.15625,1.625 0.67635,-1.17147 -1.44138,-2.64979 -3.59375,-4.3125 -2.15237,-1.6627 -3.62563,-2.90688 -4.21875,-3.5 0,0 1.8816,0.40061 5.5,2.59375 3.61839,2.19314 8.97465,6.17012 10.875,6.65625 3.8007,0.97227 5.6326,0.44172 5.5625,-0.75 -0.0681,-1.15729 -1.62094,-2.14342 -3.15625,-3.3125 -1.5353,-1.16908 -3.03125,-2.53125 -3.03125,-2.53125 0,0 11.08058,5.73483 15.5,6 3.3313,0.19988 5.01072,-0.0309 5.1875,-1.3125 -8.45633,0.21447 -15.82527,-4.34495 -24.0625,-6.125 -8.23723,-1.78006 -15.78025,-3.46825 -19.90625,-5.53125 -8.61996,-4.30998 -21.27327,-10.75 -32.9375,-10.75 -2.4793,-0.66813 -1.73465,-3.77302 -0.75,-5.25 -5.80529,1.61779 -9.14895,2.80609 -14.03125,6.28125 -4.40425,3.13489 -10.80293,3.03125 -21.71875,3.03125 3.25134,-3.34601 6.88716,-0.54642 13.78125,-3.53125 6.61047,-2.86203 15.90641,-14.31085 17.375,-18.0625 1.45234,-3.71016 1.70861,-8.07258 0.90625,-11.15625 -0.5596,-2.15066 -0.54654,-5.56164 0.4375,-6.78125 2.8238,1.81382 4.90927,1.29768 6.71875,0.375 1.80947,-0.92268 3.03126,-2.65476 5.125,-2.09375 -0.5784,6.70171 4.875,5.10297 4.875,12.125 1.63532,4.83188 6.66817,6.1399 22,18.6875 15.33184,12.54755 23.22661,13.2664 25.46875,12.59375 0.44866,-3.7329 2.47673,-6.20015 2.90625,-8.5625 -4.80968,-1.32989 -9.69519,-4.66316 -13.0625,-7.46875 -4.19211,-3.4928 -9.01709,-5.34862 -9.8125,-8 -0.34616,-1.25076 0.2286,-4.58386 -0.40625,-5.21875 -0.13447,-0.13446 -1.25111,-0.37362 -1.4375,0.125 -1.21252,3.24374 -9.49282,-0.14952 -12.625,-2.5 -3.13217,-2.35049 -2.73589,-7.39214 -4.875,-9.53125 -1.7631,-1.7631 -4.26736,-2.3455 -4.75,-5 0.83016,-0.81151 1.83441,-1.08313 2.9375,-1.03125 -0.0382,-0.14281 -0.0625,-0.30185 -0.0625,-0.46875 l 0,-0.3125 c 0.0625,-0.0107 1.68013,-0.0312 2.40625,-0.0312 3.00154,0 2.36512,1.2848 4.625,1.875 2.25988,0.59038 4.65327,-0.14506 7.0625,0.59375 0.81189,0.24897 1.93749,1.29068 2.40625,2.1875 0.50901,0.97383 1.39558,1.2687 1.8125,2 0.83829,1.46987 0.72055,3.02895 0.71875,4.375 3.42921,-0.21396 3.66056,-4.7036 3.875,-7.0625 0.0486,-1.64387 -0.50581,-4.17054 -1.84375,-5.0625 -8.35058,-5.56705 -28.76138,-4.89829 -40.8125,-6.3125 -1.27515,-1.47657 -3.71235,-1.68735 -7.03125,-1.875 -1.87089,0.48722 -5.6563,-0.0182 -10.09375,-1.09375 -0.10052,-0.0202 -0.21125,-0.0415 -0.3125,-0.0625 -1.11511,-0.23176 -2.26675,-0.55375 -3.46875,-0.90625 -0.15496,-0.0449 -0.31317,-0.0791 -0.46875,-0.125 -0.25339,-0.0774 -0.52418,-0.16636 -0.78125,-0.25 -5.65143,-1.71713 -11.55978,-4.06802 -15.625,-6.3125 -7.19948,-4.79965 -13.49012,-15.21181 -14.25,-23.84375 -0.008,-0.0165 0.008,-0.0461 0,-0.0625 -0.43093,-0.86484 -0.97807,-1.65525 -1.71875,-2.3125 l -2.875,-0.375 z m 88.96875,49.25 c -0.88478,0 -1.59375,0.70897 -1.59375,1.59375 0,0.88478 0.70897,1.625 1.59375,1.625 0.88478,0 1.625,-0.74022 1.625,-1.625 0,-0.88478 -0.74022,-1.59375 -1.625,-1.59375 z m 3.375,3.34375 c -0.73949,0 -0.90548,0.45451 -0.9375,0.875 -8e-4,0.0105 6.2e-4,0.0208 0,0.0312 0.0273,1.0388 0.74477,1.70397 2,2 0.002,-0.61695 0,-1.4612 0,-2.09375 0,-0.37023 -0.0771,-0.8125 -1.0625,-0.8125 z"
         style="fill:#ffe100;fill-opacity:1;stroke:none" />
      <path
         inkscape:connector-curvature="0"
         id="path3179"
         d="m 468.25,461.3125 c -0.10475,0.0209 -0.20752,0.039 -0.3125,0.0625 1.09199,8.07516 -11.0429,10.77635 -17.4375,12.375 4.79559,1.39142 20.72541,5.90226 11.8125,11.25 -2.97437,5.93154 -1.88203,12.75744 -1.875,19.1875 1.85429,0.42665 3.72011,0.8795 5.625,1.375 C 471.15148,505.41296 473,500.42506 473,494 c 2.09117,4.0503 2.14956,9.06292 1.75,14 1.97846,0.59607 3.9893,1.23975 6.03125,1.90625 0,-6.45295 0.34101,-15.22327 -0.1875,-22.21875 -8.58802,-5.79818 -5.28117,-16.04139 -7.96875,-25 -2.00579,-0.0343 -3.30838,-0.60952 -4.375,-1.375 z"
         style="fill:#a37508;fill-opacity:1;stroke:none" />
      <path
         style="fill:#714f07;fill-opacity:1;stroke:none"
         d="m 382.95124,506.65687 c 32.83946,-9.29295 59.50327,-9.27003 97.81823,3.23621 -5.033,2.27038 -14.46187,6.8564 -26.34236,8.06233 -11.88049,1.20597 -24.58761,1.90677 -31.30211,1.90677 -23.26901,0 -46.40384,-3.35241 -67.80384,-3.75654 -22.95397,-0.43347 -64.42053,6.37603 -69.63739,-2.65984 12.6664,-8.83045 73.50967,-0.0659 97.26747,-6.78893 z"
         id="path3878"
         inkscape:connector-curvature="0"
         sodipodi:nodetypes="ccccccc" />
      <path
         id="path3878-5"
         d="m 444.21875,507.28143 c -22.16337,0.30101 -52.49861,6.65142 -58.65625,10.34375 -0.0245,0.0853 -0.0404,0.1657 -0.0625,0.25 12.33407,0.97087 24.95281,2 37.625,2 6.7145,0 19.43201,-0.70028 31.3125,-1.90625 5.13202,-0.52093 9.75214,-1.70799 13.8125,-3.03125 -0.62329,-5.89456 -10.87844,-7.83488 -24.03125,-7.65625 z"
         style="fill:#a37508;fill-opacity:1;stroke:none"
         inkscape:connector-curvature="0" />
      <g
         id="g4102">
        <path
           sodipodi:nodetypes="cccsc"
           inkscape:connector-curvature="0"
           id="path4040"
           d="m 461.5,502.36218 c -4.87884,-0.22114 -7.33914,-3.38071 -7.5,-8.625 -0.18155,-5.91908 2.98817,-9.80584 9.125,-8.875 3.05358,0.46318 5.6875,5.63247 5.6875,9.6875 0,4.28438 -3.27974,7.99529 -7.3125,7.8125 z"
           style="fill:#d9a005;fill-opacity:1;stroke:none" />
        <path
           inkscape:connector-curvature="0"
           style="fill:#ffe100;fill-opacity:1;stroke:none"
           d="m 459,485.0625 c -3.30989,0.98212 -5.02749,4.10491 -5,8.3125 3.75634,2.8134 7.07936,2.38932 8.09375,0.15625 1.16097,-2.55575 0.16936,-6.28909 -3.09375,-8.46875 z"
           id="path4042" />
        <path
           style="fill:none;stroke:#000000;stroke-width:1px;stroke-linecap:butt;stroke-linejoin:miter;stroke-opacity:1"
           d="m 461.5,502.36218 c -4.87884,-0.22114 -7.33914,-3.38071 -7.5,-8.625 -0.18155,-5.91908 2.98817,-9.80584 9.125,-8.875 3.05358,0.46318 5.6875,5.63247 5.6875,9.6875 0,4.28438 -3.27974,7.99529 -7.3125,7.8125 z"
           id="path3842"
           inkscape:connector-curvature="0"
           sodipodi:nodetypes="ccccc" />
      </g>
      <path
         sodipodi:nodetypes="csccc"
         inkscape:connector-curvature="0"
         id="path3915"
         d="m 342.90272,319.26123 c 1.92316,-1.11033 8.6425,-2.89124 13.9073,-2.99197 5.26481,-0.10073 10.4669,0.46851 12.5587,2.53042 4.37242,4.30993 2.6251,11.51961 -6.49372,11.51961 -8.08222,0 -18.85189,-8.28495 -19.97228,-11.05806 z"
         style="fill:#ffe100;fill-opacity:1;stroke:none" />
      <path
         sodipodi:nodetypes="cccccsssccsccccsssssscscsssscsccccscsscccccc"
         inkscape:connector-curvature="0"
         d="m 348.625,324.73718 c -2.8366,-2.74548 -5.2733,-4.55399 -8,-6.75 m 132,144.689 c 2.68758,8.95861 -0.63295,19.21255 7.95507,25.01073 0.52851,6.99548 0.1894,15.75322 0.1894,22.20617 -5.033,2.27038 -14.46187,6.8564 -26.34236,8.06233 -11.88049,1.20597 -24.58761,1.90677 -31.30211,1.90677 -23.26901,0 -46.40384,-3.35241 -67.80384,-3.75654 -22.95397,-0.43347 -64.42053,6.37603 -69.63739,-2.65984 -2.90565,-6.29557 -0.88633,-15.23248 -0.37881,-22.8547 -1.99997,-2.30935 -1.57891,-7.4127 -1.40159,-10.98541 0.9078,-18.29018 4.73912,-38.28396 12.11365,-53.03301 -0.16255,-10.34939 3.92324,-17.58555 10.16022,-21.74353 -0.38481,-6.66415 2.46232,-11.00346 7.32276,-11.46697 5.76565,-9.81597 15.16937,-8.33282 22.5,-11 2.9138,-1.05313 10.02119,-10.53937 14.625,-14.5 2.73629,-2.35401 -0.0993,-16.19026 2.96875,-21.5 0.65517,-1.13386 0.78957,-3.28852 0.31564,-4.125 -2.07136,-3.65596 -6.72053,-2.74083 -10.77066,-4.24035 -8.10402,-3.00043 -20.20667,-6.16254 -26.17812,-10.77265 -4.08227,-3.15162 -6.91983,-7.22175 -9.11763,-12.28574 -2.19779,-5.06398 -3.68393,-13.39842 -6.5271,-15.4682 11.22921,1.36784 18.09023,2.57209 23.93412,8.70444 3.02476,3.17407 10.13977,7.23568 15.375,9.8125 -11.43548,-20.86143 -25.34463,-30.77345 -41.68882,-43.31695 -21.12697,-16.21409 -44.35189,-25.05888 -44.8232,-27.61873 -0.58072,-3.15405 4.59018,-3.16967 6.85577,-2.87682 11.95661,1.54553 43.08636,13.03709 64.57184,27.36682 20.19363,13.46813 38.08086,31.20235 52.23121,47.37417 -0.0698,-7.52902 -11.06067,-22.36542 -17.85445,-28.15038 -6.54413,-5.57238 -10.47422,-15.17904 -9.89949,-24.70585 16.68859,7.87923 27.99969,27.66875 46.13871,45.78517 5.69425,3.43414 9.66026,7.24962 10.25305,12.58147 3.26464,3.26464 8.66401,8.96146 11.21538,10.3111 -0.83688,3.12329 2.34116,6.21084 0.27511,10.34144 -0.56742,1.13442 -1.45477,1.71939 -1.32583,3.13779 5.39068,4.36709 9.55544,17.82688 13.92572,25.02077 2.96314,4.87761 10.16659,9.66916 10.55786,12.76525 0.7694,6.08816 -4.54956,9.45599 -5.05786,15.04725 1.66024,3.06395 4.27555,4.209 6.2953,5.0169 5.14239,3.84407 9.3297,8.11503 9.3297,14.3996 l 1.75,0.021 c 10.44477,7.28542 12.9375,18.43976 12.9375,34 4.71155,0 8.01314,4.77958 6.3125,8.189 z"
         style="fill:none;stroke:#000000;stroke-width:1px;stroke-linecap:butt;stroke-linejoin:miter;stroke-opacity:1"
         id="path3200" />
      <path
         sodipodi:nodetypes="csssscscccsssc"
         inkscape:connector-curvature="0"
         id="path3147"
         d="m 361.15625,375.15625 c -1.97619,-6.7e-4 -2.9978,0.14356 -4.46875,0.625 -1.76635,0.57813 -3.07615,1.33456 -6,3.4375 -4.59184,3.30262 -6.73913,4.6511 -9.65625,6.125 -0.90409,0.4568 -1.5979,0.84375 -1.5625,0.84375 0.0176,0 0.13866,-0.0283 0.1875,-0.0312 9.49247,-3.90899 17.58265,-11.05423 28.71875,-8.03125 17.25387,4.6837 35.24566,22.35857 58.375,21.84375 0.0239,-0.26323 0.0167,-0.50974 0,-0.75 l -0.78125,-0.0625 c -5.7902,-0.29346 -14.30018,-3.12206 -24.26256,-7.40625 -5.36151,-2.30564 -8.39159,-3.81191 -15.53125,-7.71875 -7.98759,-4.37083 -11.13422,-5.91965 -14.3125,-7.09375 -3.47675,-1.28436 -7.29559,-1.78025 -10.70619,-1.78125 z"
         style="fill:#a37508;fill-opacity:1;stroke:none" />
      <path
         sodipodi:nodetypes="ccccc"
         inkscape:connector-curvature="0"
         id="path3142"
         d="m 352.1875,332.42468 c -3.66019,-3.08297 -7.69514,-7.13264 -14.3732,-12.27946 -6.67807,-5.14681 -14.07144,-12.22054 -19.6268,-11.97054 0.57814,2.79254 0.46834,4.69332 3.375,6.1875 5.29104,2.71987 23.8158,20.10356 30.625,18.0625 z"
         style="fill:#ffe100;fill-opacity:1;stroke:none" />
      <g
         id="g3942">
        <path
           sodipodi:nodetypes="cccccccccccccccccc"
           inkscape:connector-curvature="0"
           id="path4158"
           d="m 403.78125,460.0625 c -4.72596,0.0744 -9.6424,0.48727 -14.78125,1.34375 -18.44615,3.07436 -28.21225,5.58371 -49.625,3.84283 -15.58476,-1.26705 -22.874,0.98573 -32.84375,5.65625 -2.21439,1.03738 -7.76701,1.31351 -12.40625,1.53217 -4.63924,0.21866 -7.93842,0.0625 -7.93842,0.0625 -1.96354,-0.0819 -3.82459,1.6302 -3.90641,3.59374 -0.0818,1.96355 1.63036,3.82453 3.59391,3.90626 0,0 3.5915,0.17332 8.59467,-0.0625 5.00317,-0.23582 10.7792,-1.30554 15.25,-3.39997 9.65245,-4.52188 14.23675,-5.52159 29.03125,-4.31878 22.07433,1.79466 33.1071,-0.8763 51.46875,-3.93658 19.00435,-3.16739 34.81887,0.84419 49.6875,4.03033 12.78006,2.73859 32.21875,2.8125 32.21875,2.8125 1.97759,0.0391 3.80786,-1.74048 3.82434,-3.71839 0.0165,-1.97791 -1.78387,-3.78773 -3.76184,-3.78161 0,0 -19.46656,-0.25176 -30.6875,-2.65625 -11.12239,-2.38338 -23.54088,-5.12939 -37.71875,-4.90625 z"
           style="font-size:medium;font-style:normal;font-variant:normal;font-weight:normal;font-stretch:normal;text-indent:0;text-align:start;text-decoration:none;line-height:normal;letter-spacing:normal;word-spacing:normal;text-transform:none;direction:ltr;block-progression:tb;writing-mode:lr-tb;text-anchor:start;baseline-shift:baseline;color:#000000;fill:#d9a005;fill-opacity:1;stroke:none;stroke-width:1;marker:none;visibility:visible;display:inline;overflow:visible;enable-background:accumulate;font-family:Sans;-inkscape-font-specification:Sans" />
        <path
           style="font-size:medium;font-style:normal;font-variant:normal;font-weight:normal;font-stretch:normal;text-indent:0;text-align:start;text-decoration:none;line-height:normal;letter-spacing:normal;word-spacing:normal;text-transform:none;direction:ltr;block-progression:tb;writing-mode:lr-tb;text-anchor:start;baseline-shift:baseline;color:#000000;fill:#a37508;fill-opacity:1;stroke:none;stroke-width:0;marker:none;visibility:visible;display:inline;overflow:visible;enable-background:accumulate;font-family:Sans;-inkscape-font-specification:Sans"
           d="m 469.5,467.5625 c -0.0217,0.0383 -0.0432,0.0858 -0.0625,0.125 3.32388,2.47668 2.53226,5.24837 1.3125,7.40625 0.4041,0.005 1.375,0.0312 1.375,0.0312 1.97759,0.0391 3.79602,-1.74084 3.8125,-3.71875 0.0165,-1.97791 -1.77203,-3.78737 -3.75,-3.78125 0,0 -1.24297,-0.0233 -2.6875,-0.0625 z"
           id="path4155"
           inkscape:connector-curvature="0" />
      </g>
      <path
         sodipodi:nodetypes="ccccccccccccccccccccccccccccccccccccccccccccccccccccccccccccccccccccccccc"
         inkscape:connector-curvature="0"
         id="path3933"
         d="m 357.625,405.90625 c -5.45351,-0.0421 -10.9901,0.30066 -16.4375,0.15625 -3.88182,4.25055 0.45079,6.46712 5.28125,6.90625 1.06722,0.39384 1.5334,0.97589 1.4375,2.03125 -5.06517,3.56234 -6.9733,3.81276 -14.03125,4.53125 -7.05795,0.71849 -17.40607,4.56529 -23.8125,5.625 5.22317,6.19605 10.45237,5.86502 12.90625,8.0625 2.40245,2.15142 -2.95852,3.69999 -3.21875,6.5625 -0.0498,5.90477 -4.58941,7.90452 -8.8125,9.59375 2.83647,2.84734 9.65565,4.08844 13.46875,3.78125 -2.64765,0.83599 -4.21092,2.56182 -4.71875,4.34375 -3.58373,-3.17861 -8.18086,-1.00605 -10.6875,3 -1.10634,0.55317 -2.69136,-0.93364 -3.875,0.25 -0.44914,0.44914 2.28627,7.08706 2.09375,9.84375 -0.23403,0.10824 -0.4506,0.20152 -0.6875,0.3125 -2.21439,1.03738 -7.76701,1.31259 -12.40625,1.53125 -4.63924,0.21866 -7.9375,0.0625 -7.9375,0.0625 -1.96354,-0.0819 -3.82443,1.63021 -3.90625,3.59375 -0.0818,1.96355 1.6302,3.82452 3.59375,3.90625 0,0 3.59058,0.17332 8.59375,-0.0625 5.00317,-0.23582 10.7792,-1.31182 15.25,-3.40625 9.65245,-4.52188 14.23675,-5.51531 29.03125,-4.3125 11.09569,0.90209 19.40077,0.68076 27.25,-0.15625 -0.007,0.0222 -0.0253,0.0403 -0.0312,0.0625 -1.36587,2.22751 -5.68318,3.60538 -8.4375,4.15625 -3.10027,0.62005 -9.0625,0.2883 -9.0625,3.3125 0,3.0242 6.63421,2.33295 7.03125,3.6875 0.16718,0.57036 -0.90744,1.15331 -2.1875,1.28125 -1.70911,0.17083 -1.48804,2.47537 -1.34375,4.0625 0.0228,0.15192 0.0937,0.4375 0.0937,0.4375 -18.06962,0.32301 -39.33425,-0.73352 -57.875,0.65625 5.4647,5.66372 4.10921,13.66905 2.8125,20.4375 22.43734,-2.84464 66.54195,1.98859 85.9375,-3.5 6.6493,-1.88163 13.05285,-3.37728 19.34375,-4.46875 -1.43037,-5.75784 -1.62676,-12.99485 -1.53125,-19.78125 -0.52122,0.0837 -1.04181,0.19427 -1.5625,0.28125 0.87172,-1.15194 0.97557,-2.26899 0.0625,-3.3125 -3.90293,-1.7639 -10.68818,0.94001 -10.875,-3.5625 -0.13774,-3.31973 -0.11576,-4.96945 -2.875,-6.5625 -0.0804,-0.0464 -0.16838,-0.0806 -0.25,-0.125 1.67442,-0.28834 3.17107,-0.54414 4.96875,-0.84375 18.93859,-3.15643 34.70752,0.81929 49.53125,4 2.55788,-1.50101 3.73963,-4.63919 3.1875,-7.03125 -0.48633,-0.0915 -0.97703,-0.18258 -1.4375,-0.28125 -4.16157,-0.89177 -8.51376,-1.83747 -13.0625,-2.65625 -0.33176,-4.71859 -2.10342,-10.91022 1.875,-13.5625 -1.70349,-1.74574 -4.33313,-1.11468 -5.59375,0 -0.61458,-0.99912 -1.09283,-1.63014 -1.90625,-2.25 0.0963,-8.04285 -0.27866,-10.31447 -5.125,-14.8125 1.98975,0.57193 4.38414,1.53167 5.9375,-0.4375 3.16083,-3.61238 -11.99553,-10.6893 12.125,-11.875 -14.31998,-2.60363 -32.85711,-2.26326 -49.28125,-0.53125 -3.41156,0.35977 -8.08272,-0.96177 -11.28125,-2.03125 -1.38505,-0.46311 -5.73839,-2.21553 -7.25,-2.84375 -1.51162,-0.62823 -1.97151,-1.79705 -0.875,-1.53125 4.28212,1.03803 4.59361,-1.52293 6.5,-4.34375 -5.12439,-1.72021 -10.48399,-2.14542 -15.9375,-2.1875 z m 4.65625,15.46875 c 4.64986,-0.0431 9.4828,2.25 14.46875,2.25 5.66908,3.08161 3.18979,7.08842 9.375,9.5625 5.15101,5.04503 4.94647,22.54045 1.25,28.5 -15.3059,2.59355 -24.90639,4.70898 -41.1875,4 4.31512,-0.75694 7.90668,-1.73797 10.1875,-3.21875 -1.4029,-0.66246 -2.27897,-1.66514 -3.25,-2.3125 2.23642,0.20157 6.69166,0.51571 9.84375,0 3.15209,-0.51554 4.07137,-2.3885 2.75,-4.59375 -0.66829,-1.11531 -5.37453,-1.10762 -6.6875,-1.15625 -2.06501,-0.0765 -3.59421,-1.46951 -4.25,-2.5625 8.80054,-3.79441 10.18185,-6.6491 5.09375,-14.28125 -1.07126,-1.54105 1.47599,-1.52275 2.03125,-3.625 0.41031,-1.55346 -0.88145,-4.51254 -5.40625,-4.375 -0.64077,-2.79222 0.96344,-4.72282 1.1875,-7.1875 1.50513,-0.70157 3.0438,-0.98564 4.59375,-1 z"
         style="fill:#ffe100;fill-opacity:1;stroke:none" />
      <path
         sodipodi:nodetypes="cccccccccccccccccc"
         inkscape:connector-curvature="0"
         id="path3782"
         d="m 403.78125,460.0625 c -4.72596,0.0744 -9.6424,0.48727 -14.78125,1.34375 -18.44615,3.07436 -28.21225,5.58371 -49.625,3.84283 -15.58476,-1.26705 -22.874,0.98573 -32.84375,5.65625 -2.21439,1.03738 -7.76701,1.31351 -12.40625,1.53217 -4.63924,0.21866 -7.93842,0.0625 -7.93842,0.0625 -1.96354,-0.0819 -3.82459,1.6302 -3.90641,3.59374 -0.0818,1.96355 1.63036,3.82453 3.59391,3.90626 0,0 3.5915,0.17332 8.59467,-0.0625 5.00317,-0.23582 10.7792,-1.30554 15.25,-3.39997 9.65245,-4.52188 14.23675,-5.52159 29.03125,-4.31878 22.07433,1.79466 33.1071,-0.8763 51.46875,-3.93658 19.00435,-3.16739 34.81887,0.84419 49.6875,4.03033 12.78006,2.73859 32.21875,2.8125 32.21875,2.8125 1.97759,0.0391 3.80786,-1.74048 3.82434,-3.71839 0.0165,-1.97791 -1.78387,-3.78773 -3.76184,-3.78161 0,0 -19.46656,-0.25176 -30.6875,-2.65625 -11.12239,-2.38338 -23.54088,-5.12939 -37.71875,-4.90625 z"
         style="font-size:medium;font-style:normal;font-variant:normal;font-weight:normal;font-stretch:normal;text-indent:0;text-align:start;text-decoration:none;line-height:normal;letter-spacing:normal;word-spacing:normal;text-transform:none;direction:ltr;block-progression:tb;writing-mode:lr-tb;text-anchor:start;baseline-shift:baseline;color:#000000;fill:none;stroke:#000000;stroke-width:1;stroke-miterlimit:4;stroke-dasharray:none;marker:none;visibility:visible;display:inline;overflow:visible;enable-background:accumulate;font-family:Sans;-inkscape-font-specification:Sans" />
      <path
         sodipodi:nodetypes="cccccccccccccccc"
         inkscape:connector-curvature="0"
         d="m 381.66089,432.40631 c 3.97604,1.11947 6.38802,0.18487 8.04333,-2.2981 3.20982,3.08446 9.95229,2.5838 11.93243,-0.53033 5.10381,4.72296 11.42912,2.17604 13.16987,-0.61871 2.96924,4.68169 8.43303,4.16682 11.57887,1.41421 1.87489,2.82198 7.31614,4.81583 10.42982,2.74004 M 453.375,420.48718 c -11.20861,0 -20.14499,-1.88794 -30.99853,-2.69128 -10.85354,-0.80335 -22.72515,-0.30799 -38.12647,1.31628 -14.86505,1.5677 -29.59621,0.21477 -43.91724,1.5572 -15.02224,1.40816 -32.25299,3.66579 -45.08276,7.1928 m 9.2523,11.08487 c 2.33319,1.64912 7.70926,0.0125 9.36472,-3.00521 2.47919,2.4404 8.40468,2.79092 9.81111,-1.41421 3.00127,3.26601 7.89393,2.68532 9.72272,-0.97227 3.71871,3.21749 7.71322,2.01003 10.07627,-0.26517"
         style="fill:none;stroke:#000000;stroke-width:1px;stroke-linecap:butt;stroke-linejoin:miter;stroke-opacity:1"
         id="path3862" />
      <g
         id="g4090">
        <path
           id="path4007"
           d="m 308.85415,465.05319 c 0,1.97006 -1.59705,3.5671 -3.5671,3.5671 -1.97006,0 -3.5671,-1.59704 -3.5671,-3.5671 0,-1.97005 1.59704,-3.5671 3.5671,-3.5671 1.97005,0 3.5671,1.59705 3.5671,3.5671 z"
           style="fill:#ffe100;fill-opacity:1;stroke:none"
           inkscape:connector-curvature="0" />
        <path
           style="fill:#d9a005;fill-opacity:1;stroke:none"
           d="m 306.125,461.59375 c 0.71402,2.49404 0.59779,4.96442 -2.875,6.28125 -0.01,0.0339 0.008,0.0607 0,0.0937 0.57632,0.39975 1.27674,0.65625 2.03125,0.65625 1.97005,0 3.5625,-1.59244 3.5625,-3.5625 0,-1.6799 -1.15518,-3.09025 -2.71875,-3.46875 z"
           id="path4009"
           inkscape:connector-curvature="0" />
        <path
           style="fill:none;stroke:#000000;stroke-width:1;stroke-miterlimit:4"
           d="m 308.85415,465.05319 c 0,1.97006 -1.59705,3.5671 -3.5671,3.5671 -1.97006,0 -3.5671,-1.59704 -3.5671,-3.5671 0,-1.97005 1.59704,-3.5671 3.5671,-3.5671 1.97005,0 3.5671,1.59705 3.5671,3.5671 z"
           id="path3002"
           inkscape:connector-curvature="0" />
      </g>
      <path
         id="path3017"
         d="m 342.50486,429.25591 c 0,1.97006 -1.59705,3.5671 -3.5671,3.5671 -1.97006,0 -3.5671,-1.59704 -3.5671,-3.5671 0,-1.97005 1.59704,-3.5671 3.5671,-3.5671 1.97005,0 3.5671,1.59705 3.5671,3.5671 z"
         style="fill:none;stroke:#000000;stroke-width:1;stroke-miterlimit:4"
         inkscape:connector-curvature="0" />
      <g
         id="g4110">
        <path
           id="path4054"
           d="m 308.85415,465.05319 c 0,1.97006 -1.59705,3.5671 -3.5671,3.5671 -1.97006,0 -3.5671,-1.59704 -3.5671,-3.5671 0,-1.97005 1.59704,-3.5671 3.5671,-3.5671 1.97005,0 3.5671,1.59705 3.5671,3.5671 z"
           style="fill:#ffe100;fill-opacity:1;stroke:none"
           transform="translate(80.464964,-9.8805554)"
           inkscape:connector-curvature="0" />
        <path
           style="fill:#d9a005;fill-opacity:1;stroke:none"
           d="m 388.6875,453.125 c -0.7882,2.78613 -2.81246,3.6135 -6.125,3.65625 0.58846,1.16079 1.79703,1.96875 3.1875,1.96875 1.97005,0 3.5625,-1.59244 3.5625,-3.5625 0,-0.76314 -0.21686,-1.48245 -0.625,-2.0625 z"
           id="path4056"
           inkscape:connector-curvature="0" />
        <path
           style="fill:none;stroke:#000000;stroke-width:1;stroke-miterlimit:4"
           d="m 308.85415,465.05319 c 0,1.97006 -1.59705,3.5671 -3.5671,3.5671 -1.97006,0 -3.5671,-1.59704 -3.5671,-3.5671 0,-1.97005 1.59704,-3.5671 3.5671,-3.5671 1.97005,0 3.5671,1.59705 3.5671,3.5671 z"
           id="path3029"
           transform="translate(80.464964,-9.8805554)"
           inkscape:connector-curvature="0" />
      </g>
      <g
         id="g4105">
        <path
           style="fill:#ffe100;fill-opacity:1;stroke:none"
           d="m 339.1592,456.53008 c 0,1.97006 -1.59705,3.5671 -3.5671,3.5671 -1.97006,0 -3.5671,-1.59704 -3.5671,-3.5671 0,-1.97005 1.59704,-3.5671 3.5671,-3.5671 1.97005,0 3.5671,1.59705 3.5671,3.5671 z"
           id="path4024"
           inkscape:connector-curvature="0" />
        <path
           id="path4026"
           d="m 336.43005,453.07064 c 0.71402,2.49404 0.59779,4.96442 -2.875,6.28125 -0.01,0.0339 0.008,0.0607 0,0.0937 0.57632,0.39975 1.27674,0.65625 2.03125,0.65625 1.97005,0 3.5625,-1.59244 3.5625,-3.5625 0,-1.6799 -1.15518,-3.09025 -2.71875,-3.46875 z"
           style="fill:#d9a005;fill-opacity:1;stroke:none"
           inkscape:connector-curvature="0" />
        <path
           id="path4028"
           d="m 339.1592,456.53008 c 0,1.97006 -1.59705,3.5671 -3.5671,3.5671 -1.97006,0 -3.5671,-1.59704 -3.5671,-3.5671 0,-1.97005 1.59704,-3.5671 3.5671,-3.5671 1.97005,0 3.5671,1.59705 3.5671,3.5671 z"
           style="fill:none;stroke:#000000;stroke-width:1;stroke-miterlimit:4"
           inkscape:connector-curvature="0" />
      </g>
      <path
         sodipodi:nodetypes="ccccccccccccc"
         inkscape:connector-curvature="0"
         d="m 472.625,462.67618 c -5.13404,-0.0879 -5.73497,-3.6828 -9.25927,-5.09251 m -83.20745,-6.83678 c 3.61084,-3.38642 7.37171,-2.04842 8.88303,-0.13258 2.52181,-4.28633 9.82167,-6.25445 13.12567,-1.06066 2.26536,-4.1179 8.54883,-5.64992 11.31371,-1.5026 4.41779,-4.03886 9.06002,-3.30559 11.22531,0.70713 2.72003,-2.27799 5.07425,-2.19168 7.6898,-0.88391 m -131.69864,12.99309 c 2.39475,-3.13961 6.58752,-2.93503 8.3085,-0.35355 2.50664,-4.00605 7.11126,-6.18382 10.69499,-3.00521 1.01566,-3.56386 6.16684,-6.28151 9.76692,-2.82842 1.19164,-3.45638 4.59205,-4.92006 7.73398,-3.97748"
         style="fill:none;stroke:#000000;stroke-width:1px;stroke-linecap:butt;stroke-linejoin:miter;stroke-opacity:1"
         id="path3871" />
      <g
         id="g4095">
        <path
           style="fill:#ffe100;fill-opacity:1;stroke:none"
           d="m 319.2082,461.96008 c 0,1.97006 -1.59705,3.5671 -3.5671,3.5671 -1.97006,0 -3.5671,-1.59704 -3.5671,-3.5671 0,-1.97005 1.59704,-3.5671 3.5671,-3.5671 1.97005,0 3.5671,1.59705 3.5671,3.5671 z"
           id="path4012"
           inkscape:connector-curvature="0" />
        <path
           id="path4014"
           d="m 316.47905,458.50064 c 0.71402,2.49404 0.59779,4.96442 -2.875,6.28125 -0.01,0.0339 0.008,0.0607 0,0.0937 0.57632,0.39975 1.27674,0.65625 2.03125,0.65625 1.97005,0 3.5625,-1.59244 3.5625,-3.5625 0,-1.6799 -1.15518,-3.09025 -2.71875,-3.46875 z"
           style="fill:#d9a005;fill-opacity:1;stroke:none"
           inkscape:connector-curvature="0" />
        <path
           id="path4016"
           d="m 319.2082,461.96008 c 0,1.97006 -1.59705,3.5671 -3.5671,3.5671 -1.97006,0 -3.5671,-1.59704 -3.5671,-3.5671 0,-1.97005 1.59704,-3.5671 3.5671,-3.5671 1.97005,0 3.5671,1.59705 3.5671,3.5671 z"
           style="fill:none;stroke:#000000;stroke-width:1;stroke-miterlimit:4"
           inkscape:connector-curvature="0" />
      </g>
      <g
         id="g4100">
        <path
           inkscape:connector-curvature="0"
           id="path4018"
           d="m 329.2462,459.08708 c 0,1.97006 -1.59705,3.5671 -3.5671,3.5671 -1.97006,0 -3.5671,-1.59704 -3.5671,-3.5671 0,-1.97005 1.59704,-3.5671 3.5671,-3.5671 1.97005,0 3.5671,1.59705 3.5671,3.5671 z"
           style="fill:#ffe100;fill-opacity:1;stroke:none" />
        <path
           inkscape:connector-curvature="0"
           style="fill:#d9a005;fill-opacity:1;stroke:none"
           d="m 326.51705,455.62764 c 0.71402,2.49404 0.59779,4.96442 -2.875,6.28125 -0.01,0.0339 0.008,0.0607 0,0.0937 0.57632,0.39975 1.27674,0.65625 2.03125,0.65625 1.97005,0 3.5625,-1.59244 3.5625,-3.5625 0,-1.6799 -1.15518,-3.09025 -2.71875,-3.46875 z"
           id="path4020" />
        <path
           inkscape:connector-curvature="0"
           style="fill:none;stroke:#000000;stroke-width:1;stroke-miterlimit:4"
           d="m 329.2462,459.08708 c 0,1.97006 -1.59705,3.5671 -3.5671,3.5671 -1.97006,0 -3.5671,-1.59704 -3.5671,-3.5671 0,-1.97005 1.59704,-3.5671 3.5671,-3.5671 1.97005,0 3.5671,1.59705 3.5671,3.5671 z"
           id="path4022" />
      </g>
      <g
         id="g4115">
        <path
           style="fill:#ffe100;fill-opacity:1;stroke:none"
           d="m 399.8622,453.15208 c 0,1.97006 -1.59705,3.5671 -3.5671,3.5671 -1.97006,0 -3.5671,-1.59704 -3.5671,-3.5671 0,-1.97005 1.59704,-3.5671 3.5671,-3.5671 1.97005,0 3.5671,1.59705 3.5671,3.5671 z"
           id="path4066"
           inkscape:connector-curvature="0" />
        <path
           id="path4068"
           d="m 399.23059,451.10445 c -0.7882,2.78613 -2.81246,3.6135 -6.125,3.65625 0.58846,1.16079 1.79703,1.96875 3.1875,1.96875 1.97005,0 3.5625,-1.59244 3.5625,-3.5625 0,-0.76314 -0.21686,-1.48245 -0.625,-2.0625 z"
           style="fill:#d9a005;fill-opacity:1;stroke:none"
           inkscape:connector-curvature="0" />
        <path
           id="path4070"
           d="m 399.8622,453.15208 c 0,1.97006 -1.59705,3.5671 -3.5671,3.5671 -1.97006,0 -3.5671,-1.59704 -3.5671,-3.5671 0,-1.97005 1.59704,-3.5671 3.5671,-3.5671 1.97005,0 3.5671,1.59705 3.5671,3.5671 z"
           style="fill:none;stroke:#000000;stroke-width:1;stroke-miterlimit:4"
           inkscape:connector-curvature="0" />
      </g>
      <g
         id="g4120">
        <path
           inkscape:connector-curvature="0"
           id="path4072"
           d="m 411.9842,452.14208 c 0,1.97006 -1.59705,3.5671 -3.5671,3.5671 -1.97006,0 -3.5671,-1.59704 -3.5671,-3.5671 0,-1.97005 1.59704,-3.5671 3.5671,-3.5671 1.97005,0 3.5671,1.59705 3.5671,3.5671 z"
           style="fill:#ffe100;fill-opacity:1;stroke:none" />
        <path
           inkscape:connector-curvature="0"
           style="fill:#d9a005;fill-opacity:1;stroke:none"
           d="m 411.35259,450.09445 c -0.7882,2.78613 -2.81246,3.6135 -6.125,3.65625 0.58846,1.16079 1.79703,1.96875 3.1875,1.96875 1.97005,0 3.5625,-1.59244 3.5625,-3.5625 0,-0.76314 -0.21686,-1.48245 -0.625,-2.0625 z"
           id="path4074" />
        <path
           inkscape:connector-curvature="0"
           style="fill:none;stroke:#000000;stroke-width:1;stroke-miterlimit:4"
           d="m 411.9842,452.14208 c 0,1.97006 -1.59705,3.5671 -3.5671,3.5671 -1.97006,0 -3.5671,-1.59704 -3.5671,-3.5671 0,-1.97005 1.59704,-3.5671 3.5671,-3.5671 1.97005,0 3.5671,1.59705 3.5671,3.5671 z"
           id="path4076" />
      </g>
      <g
         id="g4125">
        <path
           style="fill:#ffe100;fill-opacity:1;stroke:none"
           d="m 423.1592,452.64708 c 0,1.97006 -1.59705,3.5671 -3.5671,3.5671 -1.97006,0 -3.5671,-1.59704 -3.5671,-3.5671 0,-1.97005 1.59704,-3.5671 3.5671,-3.5671 1.97005,0 3.5671,1.59705 3.5671,3.5671 z"
           id="path4078"
           inkscape:connector-curvature="0" />
        <path
           id="path4080"
           d="m 422.52759,450.59945 c -0.7882,2.78613 -2.81246,3.6135 -6.125,3.65625 0.58846,1.16079 1.79703,1.96875 3.1875,1.96875 1.97005,0 3.5625,-1.59244 3.5625,-3.5625 0,-0.76314 -0.21686,-1.48245 -0.625,-2.0625 z"
           style="fill:#d9a005;fill-opacity:1;stroke:none"
           inkscape:connector-curvature="0" />
        <path
           id="path4082"
           d="m 423.1592,452.64708 c 0,1.97006 -1.59705,3.5671 -3.5671,3.5671 -1.97006,0 -3.5671,-1.59704 -3.5671,-3.5671 0,-1.97005 1.59704,-3.5671 3.5671,-3.5671 1.97005,0 3.5671,1.59705 3.5671,3.5671 z"
           style="fill:none;stroke:#000000;stroke-width:1;stroke-miterlimit:4"
           inkscape:connector-curvature="0" />
      </g>
      <g
         id="g4130">
        <path
           inkscape:connector-curvature="0"
           id="path4084"
           d="m 434.2082,454.16208 c 0,1.97006 -1.59705,3.5671 -3.5671,3.5671 -1.97006,0 -3.5671,-1.59704 -3.5671,-3.5671 0,-1.97005 1.59704,-3.5671 3.5671,-3.5671 1.97005,0 3.5671,1.59705 3.5671,3.5671 z"
           style="fill:#ffe100;fill-opacity:1;stroke:none" />
        <path
           inkscape:connector-curvature="0"
           style="fill:#d9a005;fill-opacity:1;stroke:none"
           d="m 433.57659,452.11445 c -0.7882,2.78613 -2.81246,3.6135 -6.125,3.65625 0.58846,1.16079 1.79703,1.96875 3.1875,1.96875 1.97005,0 3.5625,-1.59244 3.5625,-3.5625 0,-0.76314 -0.21686,-1.48245 -0.625,-2.0625 z"
           id="path4086" />
        <path
           inkscape:connector-curvature="0"
           style="fill:none;stroke:#000000;stroke-width:1;stroke-miterlimit:4"
           d="m 434.2082,454.16208 c 0,1.97006 -1.59705,3.5671 -3.5671,3.5671 -1.97006,0 -3.5671,-1.59704 -3.5671,-3.5671 0,-1.97005 1.59704,-3.5671 3.5671,-3.5671 1.97005,0 3.5671,1.59705 3.5671,3.5671 z"
           id="path4088" />
      </g>
      <g
         id="g3109">
        <path
           id="path3107"
           d="m 308.85415,465.05319 c 0,1.97006 -1.59705,3.5671 -3.5671,3.5671 -1.97006,0 -3.5671,-1.59704 -3.5671,-3.5671 0,-1.97005 1.59704,-3.5671 3.5671,-3.5671 1.97005,0 3.5671,1.59705 3.5671,3.5671 z"
           style="fill:#ffe100;fill-opacity:1;stroke:none"
           transform="translate(2.3359778,-32.135478)"
           inkscape:connector-curvature="0" />
        <path
           style="fill:#d9a005;fill-opacity:1;stroke:none"
           d="m 309.71875,430.0625 c 0.26967,3.21944 -1.87213,5.25511 -4.4375,5.53125 0.62698,0.5474 1.44605,0.90625 2.34375,0.90625 1.97005,0 3.5625,-1.62369 3.5625,-3.59375 0,-1.18406 -0.58068,-2.19493 -1.46875,-2.84375 z"
           id="path3104"
           inkscape:connector-curvature="0" />
        <path
           style="fill:none;stroke:#000000;stroke-width:1;stroke-miterlimit:4"
           d="m 308.85415,465.05319 c 0,1.97006 -1.59705,3.5671 -3.5671,3.5671 -1.97006,0 -3.5671,-1.59704 -3.5671,-3.5671 0,-1.97005 1.59704,-3.5671 3.5671,-3.5671 1.97005,0 3.5671,1.59705 3.5671,3.5671 z"
           id="path3011"
           transform="translate(2.3359778,-32.135478)"
           inkscape:connector-curvature="0" />
      </g>
      <g
         transform="translate(10.354072,-1.2626294)"
         id="g3114">
        <path
           inkscape:connector-curvature="0"
           transform="translate(2.3359778,-32.135478)"
           style="fill:#ffe100;fill-opacity:1;stroke:none"
           d="m 308.85415,465.05319 c 0,1.97006 -1.59705,3.5671 -3.5671,3.5671 -1.97006,0 -3.5671,-1.59704 -3.5671,-3.5671 0,-1.97005 1.59704,-3.5671 3.5671,-3.5671 1.97005,0 3.5671,1.59705 3.5671,3.5671 z"
           id="path3116" />
        <path
           inkscape:connector-curvature="0"
           id="path3118"
           d="m 309.71875,430.0625 c 0.26967,3.21944 -1.87213,5.25511 -4.4375,5.53125 0.62698,0.5474 1.44605,0.90625 2.34375,0.90625 1.97005,0 3.5625,-1.62369 3.5625,-3.59375 0,-1.18406 -0.58068,-2.19493 -1.46875,-2.84375 z"
           style="fill:#d9a005;fill-opacity:1;stroke:none" />
        <path
           inkscape:connector-curvature="0"
           transform="translate(2.3359778,-32.135478)"
           id="path3120"
           d="m 308.85415,465.05319 c 0,1.97006 -1.59705,3.5671 -3.5671,3.5671 -1.97006,0 -3.5671,-1.59704 -3.5671,-3.5671 0,-1.97005 1.59704,-3.5671 3.5671,-3.5671 1.97005,0 3.5671,1.59705 3.5671,3.5671 z"
           style="fill:none;stroke:#000000;stroke-width:1;stroke-miterlimit:4" />
      </g>
      <g
         id="g3122"
         transform="translate(20.834072,-2.5256294)">
        <path
           id="path3124"
           d="m 308.85415,465.05319 c 0,1.97006 -1.59705,3.5671 -3.5671,3.5671 -1.97006,0 -3.5671,-1.59704 -3.5671,-3.5671 0,-1.97005 1.59704,-3.5671 3.5671,-3.5671 1.97005,0 3.5671,1.59705 3.5671,3.5671 z"
           style="fill:#ffe100;fill-opacity:1;stroke:none"
           transform="translate(2.3359778,-32.135478)"
           inkscape:connector-curvature="0" />
        <path
           style="fill:#d9a005;fill-opacity:1;stroke:none"
           d="m 309.71875,430.0625 c 0.26967,3.21944 -1.87213,5.25511 -4.4375,5.53125 0.62698,0.5474 1.44605,0.90625 2.34375,0.90625 1.97005,0 3.5625,-1.62369 3.5625,-3.59375 0,-1.18406 -0.58068,-2.19493 -1.46875,-2.84375 z"
           id="path3126"
           inkscape:connector-curvature="0" />
        <path
           style="fill:none;stroke:#000000;stroke-width:1;stroke-miterlimit:4"
           d="m 308.85415,465.05319 c 0,1.97006 -1.59705,3.5671 -3.5671,3.5671 -1.97006,0 -3.5671,-1.59704 -3.5671,-3.5671 0,-1.97005 1.59704,-3.5671 3.5671,-3.5671 1.97005,0 3.5671,1.59705 3.5671,3.5671 z"
           id="path3128"
           transform="translate(2.3359778,-32.135478)"
           inkscape:connector-curvature="0" />
      </g>
      <g
         id="g3137">
        <path
           id="path3135"
           d="m 308.85415,465.05319 c 0,1.97006 -1.59705,3.5671 -3.5671,3.5671 -1.97006,0 -3.5671,-1.59704 -3.5671,-3.5671 0,-1.97005 1.59704,-3.5671 3.5671,-3.5671 1.97005,0 3.5671,1.59705 3.5671,3.5671 z"
           style="fill:#ffe100;fill-opacity:1;stroke:none"
           transform="translate(79.233841,-38.322663)"
           inkscape:connector-curvature="0" />
        <path
           style="fill:#d9a005;fill-opacity:1;stroke:none"
           d="m 385.84375,423.40625 c -0.007,0.0223 -0.0253,0.0396 -0.0312,0.0625 0.19251,3.62571 -1.18072,5.32603 -3.875,5.6875 0.65067,0.69241 1.56861,1.15625 2.59375,1.15625 1.97005,0 3.5625,-1.62369 3.5625,-3.59375 0,-1.50232 -0.93536,-2.78682 -2.25,-3.3125 z"
           id="path3132"
           inkscape:connector-curvature="0" />
        <path
           style="fill:none;stroke:#000000;stroke-width:1;stroke-miterlimit:4"
           d="m 308.85415,465.05319 c 0,1.97006 -1.59705,3.5671 -3.5671,3.5671 -1.97006,0 -3.5671,-1.59704 -3.5671,-3.5671 0,-1.97005 1.59704,-3.5671 3.5671,-3.5671 1.97005,0 3.5671,1.59705 3.5671,3.5671 z"
           id="path3019"
           transform="translate(79.233841,-38.322663)"
           inkscape:connector-curvature="0" />
      </g>
      <g
         transform="translate(11.680209,-0.56844438)"
         id="g3142">
        <path
           inkscape:connector-curvature="0"
           transform="translate(79.233841,-38.322663)"
           style="fill:#ffe100;fill-opacity:1;stroke:none"
           d="m 308.85415,465.05319 c 0,1.97006 -1.59705,3.5671 -3.5671,3.5671 -1.97006,0 -3.5671,-1.59704 -3.5671,-3.5671 0,-1.97005 1.59704,-3.5671 3.5671,-3.5671 1.97005,0 3.5671,1.59705 3.5671,3.5671 z"
           id="path3144" />
        <path
           inkscape:connector-curvature="0"
           id="path3146"
           d="m 385.84375,423.40625 c -0.007,0.0223 -0.0253,0.0396 -0.0312,0.0625 0.19251,3.62571 -1.18072,5.32603 -3.875,5.6875 0.65067,0.69241 1.56861,1.15625 2.59375,1.15625 1.97005,0 3.5625,-1.62369 3.5625,-3.59375 0,-1.50232 -0.93536,-2.78682 -2.25,-3.3125 z"
           style="fill:#d9a005;fill-opacity:1;stroke:none" />
        <path
           inkscape:connector-curvature="0"
           transform="translate(79.233841,-38.322663)"
           id="path3148"
           d="m 308.85415,465.05319 c 0,1.97006 -1.59705,3.5671 -3.5671,3.5671 -1.97006,0 -3.5671,-1.59704 -3.5671,-3.5671 0,-1.97005 1.59704,-3.5671 3.5671,-3.5671 1.97005,0 3.5671,1.59705 3.5671,3.5671 z"
           style="fill:none;stroke:#000000;stroke-width:1;stroke-miterlimit:4" />
      </g>
      <g
         id="g3150"
         transform="translate(24.749209,-0.56844438)">
        <path
           id="path3152"
           d="m 308.85415,465.05319 c 0,1.97006 -1.59705,3.5671 -3.5671,3.5671 -1.97006,0 -3.5671,-1.59704 -3.5671,-3.5671 0,-1.97005 1.59704,-3.5671 3.5671,-3.5671 1.97005,0 3.5671,1.59705 3.5671,3.5671 z"
           style="fill:#ffe100;fill-opacity:1;stroke:none"
           transform="translate(79.233841,-38.322663)"
           inkscape:connector-curvature="0" />
        <path
           style="fill:#d9a005;fill-opacity:1;stroke:none"
           d="m 385.84375,423.40625 c -0.007,0.0223 -0.0253,0.0396 -0.0312,0.0625 0.19251,3.62571 -1.18072,5.32603 -3.875,5.6875 0.65067,0.69241 1.56861,1.15625 2.59375,1.15625 1.97005,0 3.5625,-1.62369 3.5625,-3.59375 0,-1.50232 -0.93536,-2.78682 -2.25,-3.3125 z"
           id="path3154"
           inkscape:connector-curvature="0" />
        <path
           style="fill:none;stroke:#000000;stroke-width:1;stroke-miterlimit:4"
           d="m 308.85415,465.05319 c 0,1.97006 -1.59705,3.5671 -3.5671,3.5671 -1.97006,0 -3.5671,-1.59704 -3.5671,-3.5671 0,-1.97005 1.59704,-3.5671 3.5671,-3.5671 1.97005,0 3.5671,1.59705 3.5671,3.5671 z"
           id="path3156"
           transform="translate(79.233841,-38.322663)"
           inkscape:connector-curvature="0" />
      </g>
      <g
         transform="translate(37.060209,-0.50544438)"
         id="g3158">
        <path
           inkscape:connector-curvature="0"
           transform="translate(79.233841,-38.322663)"
           style="fill:#ffe100;fill-opacity:1;stroke:none"
           d="m 308.85415,465.05319 c 0,1.97006 -1.59705,3.5671 -3.5671,3.5671 -1.97006,0 -3.5671,-1.59704 -3.5671,-3.5671 0,-1.97005 1.59704,-3.5671 3.5671,-3.5671 1.97005,0 3.5671,1.59705 3.5671,3.5671 z"
           id="path3160" />
        <path
           inkscape:connector-curvature="0"
           id="path3162"
           d="m 385.84375,423.40625 c -0.007,0.0223 -0.0253,0.0396 -0.0312,0.0625 0.19251,3.62571 -1.18072,5.32603 -3.875,5.6875 0.65067,0.69241 1.56861,1.15625 2.59375,1.15625 1.97005,0 3.5625,-1.62369 3.5625,-3.59375 0,-1.50232 -0.93536,-2.78682 -2.25,-3.3125 z"
           style="fill:#d9a005;fill-opacity:1;stroke:none" />
        <path
           inkscape:connector-curvature="0"
           transform="translate(79.233841,-38.322663)"
           id="path3164"
           d="m 308.85415,465.05319 c 0,1.97006 -1.59705,3.5671 -3.5671,3.5671 -1.97006,0 -3.5671,-1.59704 -3.5671,-3.5671 0,-1.97005 1.59704,-3.5671 3.5671,-3.5671 1.97005,0 3.5671,1.59705 3.5671,3.5671 z"
           style="fill:none;stroke:#000000;stroke-width:1;stroke-miterlimit:4" />
      </g>
      <g
         id="g3166"
         transform="translate(48.740209,0.50555562)">
        <path
           id="path3168"
           d="m 308.85415,465.05319 c 0,1.97006 -1.59705,3.5671 -3.5671,3.5671 -1.97006,0 -3.5671,-1.59704 -3.5671,-3.5671 0,-1.97005 1.59704,-3.5671 3.5671,-3.5671 1.97005,0 3.5671,1.59705 3.5671,3.5671 z"
           style="fill:#ffe100;fill-opacity:1;stroke:none"
           transform="translate(79.233841,-38.322663)"
           inkscape:connector-curvature="0" />
        <path
           style="fill:#d9a005;fill-opacity:1;stroke:none"
           d="m 385.84375,423.40625 c -0.007,0.0223 -0.0253,0.0396 -0.0312,0.0625 0.19251,3.62571 -1.18072,5.32603 -3.875,5.6875 0.65067,0.69241 1.56861,1.15625 2.59375,1.15625 1.97005,0 3.5625,-1.62369 3.5625,-3.59375 0,-1.50232 -0.93536,-2.78682 -2.25,-3.3125 z"
           id="path3170"
           inkscape:connector-curvature="0" />
        <path
           style="fill:none;stroke:#000000;stroke-width:1;stroke-miterlimit:4"
           d="m 308.85415,465.05319 c 0,1.97006 -1.59705,3.5671 -3.5671,3.5671 -1.97006,0 -3.5671,-1.59704 -3.5671,-3.5671 0,-1.97005 1.59704,-3.5671 3.5671,-3.5671 1.97005,0 3.5671,1.59705 3.5671,3.5671 z"
           id="path3172"
           transform="translate(79.233841,-38.322663)"
           inkscape:connector-curvature="0" />
      </g>
      <g
         id="g3974">
        <path
           sodipodi:nodetypes="scccs"
           inkscape:connector-curvature="0"
           id="path4172"
           d="m 296.02774,426.94768 c -4.92522,-1.31971 -9.23966,11.41982 -11.92095,22.06411 -2.68129,10.64429 -2.66999,22.9925 2.89018,22.9925 9.02932,10e-6 15.60705,-12.72827 17.02101,-20.49803 2.74214,-15.06814 -2.88646,-23.19103 -7.99024,-24.55858 z"
           style="fill:#ffe100;fill-opacity:1;stroke:none" />
        <path
           style="fill:none;stroke:#000000;stroke-width:1px;stroke-linecap:butt;stroke-linejoin:miter;stroke-opacity:1"
           d="m 284.04227,462.6225 c 0,1.57744 1.43549,2.34888 3.82659,1.8939 2.09617,-0.39886 4.38469,-4.93824 1.95022,-6.15548"
           id="path3000"
           inkscape:connector-curvature="0"
           sodipodi:nodetypes="ccc" />
        <path
           style="fill:none;stroke:#000000;stroke-width:1px;stroke-linecap:butt;stroke-linejoin:miter;stroke-opacity:1"
           d="m 292.1875,457.23718 c 1.39658,1.77158 3.17476,1.18047 4.21222,-0.35705 0.88116,-1.30589 1.74157,-3.71416 1.7609,-5.48469 0.0193,-1.77054 -1.33369,-2.90333 -3.81687,-1.65828"
           id="path3848"
           inkscape:connector-curvature="0"
           sodipodi:nodetypes="cccc" />
        <path
           style="fill:none;stroke:#000000;stroke-width:1px;stroke-linecap:butt;stroke-linejoin:miter;stroke-opacity:1"
           d="m 291.25,439.98718 c -0.82867,-6.725 6.05603,-6.08968 8.375,-1.75 1.91461,3.58297 -1.1317,10.18878 -3.375,7.625"
           id="path3010"
           inkscape:connector-curvature="0"
           sodipodi:nodetypes="ccc" />
        <path
           inkscape:connector-curvature="0"
           style="fill:#d9a005;fill-opacity:1;stroke:none"
           d="m 297.375,427.46875 c 5.84017,7.74042 7.55608,20.90481 0.90625,29.90625 -6.84778,9.2694 -12.08407,10.03112 -14.90625,11.53125 0.74379,1.91787 1.91959,3.09375 3.625,3.09375 9.02932,10e-6 15.61729,-12.73024 17.03125,-20.5 2.50315,-13.75489 -1.97546,-21.70669 -6.65625,-24.03125 z"
           id="path4169" />
        <path
           style="fill:none;stroke:#000000;stroke-width:1px;stroke-linecap:butt;stroke-linejoin:miter;stroke-opacity:1"
           d="m 296.02774,426.94768 c -4.92522,-1.31971 -9.23966,11.41982 -11.92095,22.06411 -2.68129,10.64429 -2.66999,22.9925 2.89018,22.9925 9.02932,10e-6 15.60705,-12.72827 17.02101,-20.49803 2.74214,-15.06814 -2.88646,-23.19103 -7.99024,-24.55858 z"
           id="path3820"
           inkscape:connector-curvature="0"
           sodipodi:nodetypes="scccs" />
        <path
           sodipodi:nodetypes="ccccc"
           inkscape:connector-curvature="0"
           id="path4165"
           d="m 284.625,457.86218 c -2.85438,0 -4.06685,-5.34805 -3.59272,-8.66288 0.47412,-3.31483 3.50018,-6.27462 6.59272,-6.27462 3.79584,0 4.68975,4.35029 4.375,7.8125 -0.27648,3.6744 -2.83028,7.125 -7.375,7.125 z"
           style="fill:#ffe100;fill-opacity:1;stroke:none" />
        <path
           inkscape:connector-curvature="0"
           style="fill:#d9a005;fill-opacity:1;stroke:none"
           d="m 289.75,443.53125 c 0.0255,6.64713 -0.76175,10.61865 -7.5,12.6875 0.59402,0.98653 1.38032,1.65625 2.375,1.65625 4.54472,0 7.09852,-3.4506 7.375,-7.125 0.24446,-2.68905 -0.24289,-5.91257 -2.25,-7.21875 z"
           id="path4162" />
        <path
           style="fill:none;stroke:#000000;stroke-width:1px;stroke-linecap:butt;stroke-linejoin:miter;stroke-opacity:1"
           d="m 284.625,457.86218 c -2.85438,0 -4.06685,-5.34805 -3.59272,-8.66288 0.47412,-3.31483 3.50018,-6.27462 6.59272,-6.27462 3.79584,0 4.68975,4.35029 4.375,7.8125 -0.27648,3.6744 -2.83028,7.125 -7.375,7.125 z"
           id="path3816"
           inkscape:connector-curvature="0"
           sodipodi:nodetypes="ccccc" />
      </g>
      <g
         id="g3963">
        <path
           sodipodi:nodetypes="sssss"
           inkscape:connector-curvature="0"
           id="path3943"
           d="m 379.7701,444.08494 c 0,12.59441 -8.28215,21.50873 -22.55087,21.91783 -12.25086,0.35125 -22.20735,-8.09128 -22.20735,-21.92919 0,-12.59441 8.72162,-22.8042 22.25381,-22.8042 12.29044,0 22.50441,10.22115 22.50441,22.81556 z"
           style="fill:#d9a005;fill-opacity:1;stroke:none"
           transform="matrix(1,-0.04544992,-0.05309932,1.0024134,25.347773,15.873094)" />
        <path
           inkscape:connector-curvature="0"
           style="fill:#ffe100;fill-opacity:1;stroke:none"
           d="m 358.5,422.0625 c -12.57509,1.41149 -21.07925,11.64628 -21.71875,23.71875 -0.51981,9.81305 4.07242,16.69862 11.15625,19.5625 3.51996,-0.7091 6.47887,-1.6034 8.4375,-2.875 -1.4029,-0.66246 -2.27897,-1.66514 -3.25,-2.3125 2.23642,0.20157 6.69166,0.51571 9.84375,0 3.15209,-0.51554 4.07137,-2.3885 2.75,-4.59375 -0.66829,-1.11531 -5.37453,-1.10762 -6.6875,-1.15625 -2.06501,-0.0765 -3.59421,-1.46951 -4.25,-2.5625 8.80054,-3.79441 10.18185,-6.6491 5.09375,-14.28125 -1.07126,-1.54105 1.47599,-1.52275 2.03125,-3.625 0.41031,-1.55346 -0.88145,-4.51254 -5.40625,-4.375 -0.64077,-2.79222 0.96344,-4.72282 1.1875,-7.1875 0.27137,-0.12649 0.53908,-0.21229 0.8125,-0.3125 z"
           id="path3947" />
        <path
           inkscape:connector-curvature="0"
           style="fill:none;stroke:#000000;stroke-width:1;stroke-linecap:round;stroke-linejoin:round;stroke-miterlimit:4"
           d="m 366.10455,445.48779 c 0,4.3934 -3.56155,7.95495 -7.95495,7.95495 -4.3934,0 -7.95495,-3.56155 -7.95495,-7.95495 0,-4.3934 3.56155,-7.95495 7.95495,-7.95495 4.3934,0 7.95495,3.56155 7.95495,7.95495 z"
           id="path3796"
           transform="translate(0,-0.44194174)" />
        <path
           style="fill:none;stroke:#000000;stroke-width:1px;stroke-linecap:butt;stroke-linejoin:miter;stroke-opacity:1"
           d="m 352.58112,456.62472 c -4.39798,3.7642 3.38889,4.06586 6.71751,4.06586 5.02736,0 11.03613,-0.29 8.30851,-5.74524"
           id="path3804"
           inkscape:connector-curvature="0"
           sodipodi:nodetypes="ccc" />
        <path
           style="fill:none;stroke:#000000;stroke-width:1px;stroke-linecap:butt;stroke-linejoin:miter;stroke-opacity:1"
           d="m 353.5092,435.01377 c -4.08624,-3.33325 2.10327,-6.27558 6.23138,-6.27558 5.7101,0 9.45501,2.50472 4.64038,6.71752"
           id="path3808"
           inkscape:connector-curvature="0"
           sodipodi:nodetypes="ccc" />
        <path
           style="fill:#ffe100;fill-opacity:1;stroke:none"
           d="m 368.1875,437.14343 c -0.4934,1.49127 0.875,3.17568 0.875,4.46875 0,3.43011 2.21633,6.94717 3.4375,2.0625 0.30243,-1.20971 0.0899,-4.36276 -0.63105,-6.34779 -0.72094,-1.98503 -1.95028,-3.6458 -3.68145,-0.18346 z"
           id="path3941"
           inkscape:connector-curvature="0"
           sodipodi:nodetypes="ccccc" />
        <path
           style="fill:none;stroke:#000000;stroke-width:1px;stroke-linecap:butt;stroke-linejoin:miter;stroke-opacity:1"
           d="m 368.375,449.78896 c 4.07386,3.08732 6.125,-1.12525 6.125,-8.86428 0,-5.47885 -5.42103,-10.28608 -6.4375,-3"
           id="path3810"
           inkscape:connector-curvature="0"
           sodipodi:nodetypes="ccc" />
        <path
           style="fill:none;stroke:#000000;stroke-width:1px;stroke-linecap:butt;stroke-linejoin:miter;stroke-opacity:1"
           d="m 351.07852,437.53284 c -5.64407,-4.50459 -7.06521,2.41525 -8.38173,8.04334 -2.05308,8.77688 3.3912,13.65132 6.79074,8.20494"
           id="path3812"
           inkscape:connector-curvature="0"
           sodipodi:nodetypes="ccc" />
        <path
           style="fill:none;stroke:#000000;stroke-width:1;stroke-linecap:round;stroke-linejoin:round;stroke-miterlimit:4"
           d="m 379.7701,444.08494 c 0,12.59441 -8.28215,21.50873 -22.55087,21.91783 -12.25086,0.35125 -22.20735,-8.09128 -22.20735,-21.92919 0,-12.59441 8.72162,-22.8042 22.25381,-22.8042 12.29044,0 22.50441,10.22115 22.50441,22.81556 z"
           id="path3833"
           inkscape:connector-curvature="0"
           sodipodi:nodetypes="sssss"
           transform="matrix(1,-0.04544992,-0.05309932,1.0024134,25.347773,15.873094)" />
      </g>
      <g
         id="g3985">
        <path
           sodipodi:nodetypes="sssss"
           inkscape:connector-curvature="0"
           id="path4151"
           d="m 469.58583,442.24579 c -0.75,10.37235 -7.45705,20.01344 -16.94911,19.32867 -10.81785,-0.78041 -17.01242,-8.44045 -17.32412,-19.35705 -0.32987,-11.55283 7.75627,-19.35705 17.32412,-19.35705 9.56784,0 17.6617,9.5304 16.94911,19.38543 z"
           style="fill:#d9a005;fill-opacity:1;stroke:none"
           transform="matrix(1,0.07567096,0,1,-1.0606602,-32.483689)" />
        <path
           style="fill:#ffe100;fill-opacity:1;stroke:none"
           d="m 444.375,427.15625 c -1.1167,-0.0168 -2.1916,0.0825 -3.0625,0.34375 -0.0976,8.4e-4 -0.18529,-0.003 -0.28125,0 -4.2392,3.05282 -6.97584,8.35777 -6.78125,15.1875 0.17753,6.23101 2.26975,11.52997 6.03125,15.25 0.022,-0.0243 0.0407,-0.0368 0.0625,-0.0625 -0.47306,-3.5937 2.25832,-4.76248 3.625,-6.8125 0.96338,2.96552 7.09104,6.63867 8.9375,3 1.12786,-2.22259 -4.3746,-3.67811 -6.1875,-5.75 8.98328,0.50888 11.29285,-9.14305 3.75,-12.0625 1.51287,-2.68343 5.79064,-1.04372 3.71875,-5.1875 -0.49,-0.97999 -1.03964,-1.95431 -1.8125,-2.375 -0.80356,-0.43741 -4.6499,-1.48092 -8,-1.53125 z"
           id="path4139"
           inkscape:connector-curvature="0"
           sodipodi:nodetypes="sccsccccccsss" />
        <path
           inkscape:connector-curvature="0"
           style="fill:none;stroke:#000000;stroke-width:1;stroke-linecap:round;stroke-linejoin:round;stroke-miterlimit:4"
           d="m 364.86711,445.48779 c 0,3.70998 -3.00753,6.71752 -6.71751,6.71752 -3.70998,0 -6.71752,-3.00754 -6.71752,-6.71752 0,-3.70998 3.00754,-6.71751 6.71752,-6.71751 3.70998,0 6.71751,3.00753 6.71751,6.71751 z"
           id="path3798"
           transform="translate(93.514872,-2.5632621)" />
        <path
           style="fill:none;stroke:#000000;stroke-width:1px;stroke-linecap:butt;stroke-linejoin:miter;stroke-opacity:1"
           d="m 444.23984,449.55365 c 0,3.69273 0.49028,4.84755 4.31386,6.43431 2.65559,1.10206 6.46951,0.91406 6.46951,-1.83811"
           id="path3822"
           inkscape:connector-curvature="0"
           sodipodi:nodetypes="ccc" />
        <path
           style="fill:none;stroke:#000000;stroke-width:1px;stroke-linecap:butt;stroke-linejoin:miter;stroke-opacity:1"
           d="m 447.25,434.86218 c -3.42226,-4.08928 -6.78841,-0.62972 -7.73483,3.75 -0.91536,4.23597 0.0868,8.29328 3.92233,8.125"
           id="path3824"
           inkscape:connector-curvature="0"
           sodipodi:nodetypes="ccc" />
        <path
           style="fill:none;stroke:#000000;stroke-width:1px;stroke-linecap:butt;stroke-linejoin:miter;stroke-opacity:1"
           d="m 448.83603,432.58309 c -5.54651,-5.58145 1.31356,-4.94186 5.65685,-3.44715 3.29094,1.13255 6.17443,4.49779 2.91682,6.45235"
           id="path3826"
           inkscape:connector-curvature="0"
           sodipodi:nodetypes="ccc" />
        <path
           style="fill:none;stroke:#000000;stroke-width:1px;stroke-linecap:butt;stroke-linejoin:miter;stroke-opacity:1"
           d="m 459.35424,438.68188 c 3.41065,-0.76847 2.98871,4.29107 3.0936,6.8943 0.14038,3.48407 -1.1818,7.85673 -4.68459,6.8059"
           id="path3828"
           inkscape:connector-curvature="0"
           sodipodi:nodetypes="ccc" />
        <path
           style="fill:#a37508;fill-opacity:1;stroke:none"
           d="m 462,429.53125 c 1.93236,2.951 3.51393,6.3077 4.16031,8.96875 3.23284,13.30912 -5.58674,23.54233 -14.16031,23.40625 -1.5613,-0.0248 -5.54166,-0.33858 -8.59375,-1.53125 2.32174,1.46003 5.03395,2.50724 8.15625,2.96875 9.49206,1.40304 16.21875,-7.7469 16.96875,-18.0625 0.42338,-5.82323 -2.2751,-11.73261 -6.53125,-15.75 z"
           id="path4148"
           inkscape:connector-curvature="0"
           sodipodi:nodetypes="csscssc" />
        <path
           style="fill:none;stroke:#000000;stroke-width:1;stroke-linecap:round;stroke-linejoin:round;stroke-miterlimit:4"
           d="m 469.58583,442.24579 c -0.75,10.37235 -7.45705,20.01344 -16.94911,19.32867 -10.81785,-0.78041 -17.01242,-8.44045 -17.32412,-19.35705 -0.32987,-11.55283 7.75627,-19.35705 17.32412,-19.35705 9.56784,0 17.6617,9.5304 16.94911,19.38543 z"
           id="path3830"
           inkscape:connector-curvature="0"
           sodipodi:nodetypes="sssss"
           transform="matrix(1,0.07567096,0,1,-1.0606602,-32.483689)" />
        <path
           style="fill:#ffe100;fill-opacity:1;stroke:none"
           d="m 460.28125,446.83093 c -0.74775,-0.42862 -0.99725,0.61949 -1.25,1.125 -0.22388,0.44776 -0.65173,0.49548 -0.9375,0.78125 -0.12271,0.12272 -0.17423,0.66789 -0.15625,0.84375 0.12463,1.21931 1.15633,0.94566 1.93398,0.16026 0.77766,-0.7854 1.30128,-2.08256 0.40977,-2.91026 z"
           id="path4144"
           inkscape:connector-curvature="0"
           sodipodi:nodetypes="ccccsc" />
      </g>
      <g
         id="g4070">
        <path
           sodipodi:nodetypes="ccccccc"
           inkscape:connector-curvature="0"
           id="path3968"
           d="m 300.45725,495.63678 c -0.56821,4.60883 -0.18941,7.01301 0.82075,8.78078 1.01015,1.76777 3.147,3.59866 6.50285,3.59866 3.35585,0 6.87458,-1.9305 7.79488,-5.36511 0.78091,-2.9144 0.60202,-6.10238 -1.03948,-8.56463 -1.6415,-2.46225 -3.6113,-4.62673 -3.6113,-4.62673 -6.54194,0 -9.89949,1.56821 -10.4677,6.17703 z"
           style="fill:#d9a005;fill-opacity:1;stroke:none" />
        <path
           inkscape:connector-curvature="0"
           style="fill:#ffe100;fill-opacity:1;stroke:none"
           d="m 306.875,489.75 c -3.88649,0.62386 -5.97098,2.34447 -6.40625,5.875 -0.38557,3.12742 -0.32542,5.22538 0.0625,6.8125 3.86894,3.9178 9.2785,3.62046 10.875,0.3125 1.69381,-3.50959 2.22541,-10.76753 -4.53125,-13 z"
           id="path3970" />
        <path
           style="fill:none;stroke:#000000;stroke-width:1px;stroke-linecap:butt;stroke-linejoin:miter;stroke-opacity:1"
           d="m 300.45725,495.63678 c -0.56821,4.60883 -0.18941,7.01301 0.82075,8.78078 1.01015,1.76777 3.147,3.59866 6.50285,3.59866 3.35585,0 6.87458,-1.9305 7.79488,-5.36511 0.78091,-2.9144 0.60202,-6.10238 -1.03948,-8.56463 -1.6415,-2.46225 -3.6113,-4.62673 -3.6113,-4.62673 -6.54194,0 -9.89949,1.56821 -10.4677,6.17703 z"
           id="path2990"
           inkscape:connector-curvature="0"
           sodipodi:nodetypes="ccccccc" />
      </g>
      <g
         id="g4075">
        <path
           sodipodi:nodetypes="ccccc"
           inkscape:connector-curvature="0"
           id="path3977"
           d="m 337.1875,507.94254 c -4.97741,0 -8.49283,-2.87016 -8.75,-8.16964 -0.31341,-6.45834 2.01596,-10.22322 10.29231,-10.22322 4.57641,2.36261 5.86315,6.17434 5.51126,10.89286 -0.29904,4.00976 -3.02786,7.5 -7.05357,7.5 z"
           style="fill:#d9a005;fill-opacity:1;stroke:none" />
        <path
           inkscape:connector-curvature="0"
           style="fill:#ffe100;fill-opacity:1;stroke:none"
           d="m 334.65625,489.9375 c -4.98252,1.12378 -6.47288,4.60701 -6.21875,9.84375 0.0222,0.45705 0.0867,0.89187 0.15625,1.3125 1.15188,2.46422 3.49873,4.15625 6.1875,4.15625 3.83202,0 6.9375,-3.43371 6.9375,-7.65625 0,-4.22254 -3.10548,-7.65625 -6.9375,-7.65625 -0.0392,0.008 -0.0862,-0.009 -0.125,0 z"
           id="path3979" />
        <path
           style="fill:none;stroke:#000000;stroke-width:1px;stroke-linecap:butt;stroke-linejoin:miter;stroke-opacity:1"
           d="m 337.1875,507.94254 c -4.97741,0 -8.49283,-2.87016 -8.75,-8.16964 -0.31341,-6.45834 2.01596,-10.22322 10.29231,-10.22322 4.57641,2.36261 5.86315,6.17434 5.51126,10.89286 -0.29904,4.00976 -3.02786,7.5 -7.05357,7.5 z"
           id="path2996"
           inkscape:connector-curvature="0"
           sodipodi:nodetypes="ccccc" />
      </g>
      <g
         id="g4080">
        <path
           sodipodi:nodetypes="ccccc"
           inkscape:connector-curvature="0"
           id="path3984"
           d="m 375.56209,487.91419 c -7.62143,-0.47703 -11.74413,1.81627 -11.49048,9.45756 0.15199,4.57884 2.8946,8.57367 8.3085,8.57367 4.9987,0 7.66895,-3.6303 7.4764,-9.67538 -0.10428,-3.27376 -2.46593,-6.52736 -4.29442,-8.35585 z"
           style="fill:#d9a005;fill-opacity:1;stroke:none" />
        <path
           inkscape:connector-curvature="0"
           style="fill:#ffe100;fill-opacity:1;stroke:none"
           d="m 370.75,488.09375 c -4.50246,0.75193 -6.88082,3.45737 -6.6875,9.28125 0.0589,1.77477 0.53298,3.44308 1.375,4.84375 4.82844,1.4786 8.36765,-0.84807 9.1875,-4.3125 1.11105,-4.69492 -0.39235,-6.75856 -3.875,-9.8125 z"
           id="path3986" />
        <path
           style="fill:none;stroke:#000000;stroke-width:1px;stroke-linecap:butt;stroke-linejoin:miter;stroke-opacity:1"
           d="m 375.56209,487.91419 c -7.62143,-0.47703 -11.74413,1.81627 -11.49048,9.45756 0.15199,4.57884 2.8946,8.57367 8.3085,8.57367 4.9987,0 7.66895,-3.6303 7.4764,-9.67538 -0.10428,-3.27376 -2.46593,-6.52736 -4.29442,-8.35585 z"
           id="path3836"
           inkscape:connector-curvature="0"
           sodipodi:nodetypes="ccccc" />
      </g>
      <path
         id="path3917"
         d="m 407.96875,481.375 c -1.09373,0.13475 -2.16767,0.28454 -3.25,0.4375 L 405.5,501.65625 c 1.05293,-0.15999 2.10714,-0.30099 3.15625,-0.4375 4.2492,-3.51643 4.59905,-6.7706 4.53125,-9.8125 -0.0785,-3.5238 -1.83859,-7.01291 -5.21875,-10.03125 z"
         style="fill:#a37508;fill-opacity:1;stroke:none"
         inkscape:connector-curvature="0" />
      <g
         id="g4121">
        <path
           sodipodi:nodetypes="ccccc"
           inkscape:connector-curvature="0"
           id="path3991"
           d="m 406.25,481.86218 c -8.21791,0.63748 -11.94162,2.60536 -10.6875,11.5625 0.59325,4.23708 3.62874,7.79859 8.4375,7.375 5.90893,-0.5205 7.4555,-6.01916 6.6875,-11.1875 -0.43694,-2.94045 -2.38584,-5.86263 -4.4375,-7.75 z"
           style="fill:#d9a005;fill-opacity:1;stroke:none" />
        <path
           inkscape:connector-curvature="0"
           style="fill:#ffe100;fill-opacity:1;stroke:none"
           d="m 401.53125,482.53125 c -4.87937,1.16181 -6.94977,3.8996 -5.96875,10.90625 0.11784,0.84161 0.35095,1.64389 0.65625,2.40625 8.19816,2.3055 11.20503,-8.99326 5.3125,-13.3125 z"
           id="path3993" />
        <path
           style="fill:none;stroke:#000000;stroke-width:1px;stroke-linecap:butt;stroke-linejoin:miter;stroke-opacity:1"
           d="m 406.25,481.86218 c -8.21791,0.63748 -11.94162,2.60536 -10.6875,11.5625 0.59325,4.23708 3.62874,7.79859 8.4375,7.375 5.90893,-0.5205 7.4555,-6.01916 6.6875,-11.1875 -0.43694,-2.94045 -2.38584,-5.86263 -4.4375,-7.75 z"
           id="path3838"
           inkscape:connector-curvature="0"
           sodipodi:nodetypes="ccccc" />
      </g>
      <path
         id="path3919"
         d="m 436.3125,480.5 0,19.9375 c 2.10201,0.15547 4.20133,0.37011 6.34375,0.625 3.78929,-3.35716 4.09638,-6.48427 4.03125,-9.40625 -0.0849,-3.81291 -2.11183,-7.60736 -6.0625,-10.78125 l -0.34375,-0.125 c -1.34558,-0.11095 -2.67185,-0.17264 -3.96875,-0.25 z"
         style="fill:#a37508;fill-opacity:1;stroke:none"
         inkscape:connector-curvature="0" />
      <g
         id="g4111">
        <path
           sodipodi:nodetypes="ccccc"
           inkscape:connector-curvature="0"
           id="path3998"
           d="m 438.05265,481.72701 c -8.18242,-0.11999 -10.05899,2.34435 -9.89949,9.36916 0.1209,5.32467 2.42979,8.79442 7.68978,8.83884 5.00712,0.0423 8.13737,-4.89835 7.95495,-9.72272 -0.13046,-3.45014 -2.7434,-8.44126 -5.74524,-8.48528 z"
           style="fill:#d9a005;fill-opacity:1;stroke:none" />
        <path
           inkscape:connector-curvature="0"
           style="fill:#ffe100;fill-opacity:1;stroke:none"
           d="m 435.28125,481.8125 c -5.83859,0.48735 -7.26456,3.13454 -7.125,9.28125 0.0238,1.04797 0.14463,2.01396 0.34375,2.90625 6.68183,3.44733 10.60625,-6.28994 6.84375,-12.1875 -0.0199,0.002 -0.0427,-0.002 -0.0625,0 z"
           id="path4000" />
        <path
           style="fill:none;stroke:#000000;stroke-width:1px;stroke-linecap:butt;stroke-linejoin:miter;stroke-opacity:1"
           d="m 438.05265,481.72701 c -8.18242,-0.11999 -10.05899,2.34435 -9.89949,9.36916 0.1209,5.32467 2.42979,8.79442 7.68978,8.83884 5.00712,0.0423 8.13737,-4.89835 7.95495,-9.72272 -0.13046,-3.45014 -2.7434,-8.44126 -5.74524,-8.48528 z"
           id="path3840"
           inkscape:connector-curvature="0"
           sodipodi:nodetypes="ccccc" />
      </g>
      <path
         sodipodi:nodetypes="ccccccc"
         inkscape:connector-curvature="0"
         id="path3008"
         d="m 480.76947,509.89308 c 0,-6.45295 0.33911,-15.21069 -0.1894,-22.20617 -53.23448,-12.86952 -73.49233,-6.55231 -105.18213,-0.50508 -22.34115,4.26327 -61.28026,-0.39002 -90.09298,3.40927 -0.50752,7.62222 -2.52684,16.55913 0.37881,22.8547 12.6664,-8.83045 73.50967,-0.0659 97.26747,-6.78893 32.83946,-9.29295 59.50327,-9.27003 97.81823,3.23621 z"
         style="fill:none;stroke:#000000;stroke-width:1px;stroke-linecap:butt;stroke-linejoin:round;stroke-opacity:1" />
      <g
         id="g4097">
        <path
           sodipodi:nodetypes="ccc"
           inkscape:connector-curvature="0"
           id="path4047"
           d="m 481.08515,489.58095 c -7.47801,3.73699 -5.84866,12.14662 -0.44194,16.35184 7.73099,-5.93543 6.63081,-11.91842 0.44194,-16.35184 z"
           style="fill:#a37508;fill-opacity:1;stroke:none" />
        <path
           inkscape:connector-curvature="0"
           style="fill:#d9a005;fill-opacity:1;stroke:none"
           d="m 480.1875,490.125 c -4.20963,2.59361 -4.91813,6.84831 -3.4375,10.625 5.78361,1.40235 8.76037,-5.61949 3.5,-10.625 -0.0203,-0.006 -0.0422,0.006 -0.0625,0 z"
           id="path4049" />
        <path
           style="fill:none;stroke:#000000;stroke-width:1px;stroke-linecap:butt;stroke-linejoin:miter;stroke-opacity:1"
           d="m 481.08515,489.58095 c -7.47801,3.73699 -5.84866,12.14662 -0.44194,16.35184 7.73099,-5.93543 6.63081,-11.91842 0.44194,-16.35184 z"
           id="path2998"
           inkscape:connector-curvature="0"
           sodipodi:nodetypes="ccc" />
      </g>
      <g
         id="g4126">
        <path
           sodipodi:nodetypes="ccccccc"
           inkscape:connector-curvature="0"
           id="path3958"
           d="m 288.19196,490.79522 c -2.64833,0 -3.0933,-0.26721 -5.0504,1.36187 -2.54907,2.1219 -4.31759,5.68845 -4.31759,8.95509 0,3.26664 2.11188,5.51265 4.1642,7.50412 1.58102,1.53413 2.87325,1.42445 4.60112,1.42445 2.37465,0 4.82805,-3.99553 5.30483,-8.70535 0.47679,-4.70982 -1.31322,-10.54018 -4.70216,-10.54018 z"
           style="fill:#d9a005;fill-opacity:1;stroke:none" />
        <path
           style="fill:#ffe100;fill-opacity:1;stroke:none"
           d="m 285.9375,490.78125 c -0.94894,0.0649 -1.55806,0.35683 -2.78125,1.375 -2.54907,2.1219 -4.34375,5.70211 -4.34375,8.96875 0,1.09029 0.26647,2.04612 0.65625,2.9375 1.72315,1.67195 4.05161,2.55571 6.65625,1.6875 2.93069,-0.97689 4.56975,-5.82015 3.5,-9.8125 -0.52717,-1.96742 -1.75858,-3.9041 -3.40625,-5.15625 -0.0912,0.003 -0.19585,-0.006 -0.28125,0 z"
           id="path3960"
           inkscape:connector-curvature="0"
           sodipodi:nodetypes="scscsscs" />
        <path
           style="fill:none;stroke:#000000;stroke-width:1px;stroke-linecap:butt;stroke-linejoin:miter;stroke-opacity:1"
           d="m 288.19196,490.79522 c -2.64833,0 -3.0933,-0.26721 -5.0504,1.36187 -2.54907,2.1219 -4.31759,5.68845 -4.31759,8.95509 0,3.26664 2.11188,5.51265 4.1642,7.50412 1.58102,1.53413 2.87325,1.42445 4.60112,1.42445 2.37465,0 4.82805,-3.99553 5.30483,-8.70535 0.47679,-4.70982 -1.31322,-10.54018 -4.70216,-10.54018 z"
           id="path2984"
           inkscape:connector-curvature="0"
           sodipodi:nodetypes="ccccccc" />
      </g>
    </g>
    <g
       transform="matrix(-1,0,0,1,580.37252,0.27512626)"
       id="g3218" />
    <g
       id="g3190"
       transform="matrix(-1,0,0,1,749,0)">
      <g
         id="g3192"
         transform="translate(168.62742,0.27512626)">
        <path
           id="path3198"
           style="fill:#000000;fill-opacity:1;fill-rule:evenodd;stroke:none"
           d="m 153.27395,310.813 c -0.30031,1.22404 -0.60864,3.7211 0.0505,4.75522 4.47872,-0.0303 4.6321,0.89854 6.89556,0.89854 -1.02748,-2.69111 -5.28342,-3.09341 -6.94606,-5.65376 z m 105.19726,0 c 0.30031,1.22404 0.60864,3.7211 -0.0505,4.75522 -4.47872,-0.0303 -4.6321,0.89854 -6.89556,0.89854 1.02748,-2.69111 5.28342,-3.09341 6.94606,-5.65376 z m -45.82815,27.33793 c -1.02542,0 -3.86909,-1.19925 -4.04745,-2.01776 4.37336,-0.0693 8.91599,-6.77597 12.57537,-9.47916 -1.02047,0 -3.57879,-1.46448 -3.78125,-2.22005 2.20546,0.26163 7.27499,-5.42797 16.50195,-8.6743 -0.23381,-0.87259 -1.86553,-0.7419 -4.32309,-2.78359 -1.28511,-1.06764 -2.73483,-2.69999 -3.01633,-5.25444 5.97751,2.12547 12.20289,0.31007 18.18301,-1.2923 8.2381,-2.20739 14.39819,-3.928 16.07066,3.01056 2.21136,-1.27673 6.51396,-1.71213 8.49372,-1.58652 3.05736,0.19398 9.22815,2.38455 9.22815,7.95048 0,1.78842 0.064,3.54153 -0.92808,4.72878 -1.90077,-5.772 -8.14137,-1.44171 -10.89386,-10e-6 -1.90245,0.99647 -3.02636,1.60615 -4.11006,2.23183 1.94358,0 3.31529,-0.30954 4.99394,-0.7292 3.11793,-0.7795 7.25325,0.33134 10.42499,0.33134 4.93786,0 7.06538,-4.48477 6.49444,-11.00046 1.85635,0 3.26802,0.83025 3.97304,2.09505 2.46532,4.42277 -1.5345,10.97818 -6.72823,12.59572 -4.77968,1.48859 -9.95411,-0.12993 -11.93243,-0.51961 -4.53619,-0.89352 -10.59999,-0.86431 -14.08807,1.6724 1.29572,0 3.41087,0.0884 4.84375,0.375 2.46426,0.49285 4.73443,0.68768 6.34375,-0.46182 -2.84249,7.85056 -11.3406,6.1698 -18.75,6.99307 -2.79394,0.74863 -13.38302,3.94016 -18.50368,15.63128 -4.74433,10.83194 -0.24679,27.39776 14.25428,24.93326 -0.47048,1.81881 -0.95262,3.64055 -1.61184,5.46812 4.34607,1.19608 13.93861,-3.90904 10.70641,-8.57691 -10.29519,-14.86787 12.81476,-27.0014 19.68657,-30.96891 0.75394,1.13672 1.53847,2.23467 2.53275,3.05084 12.43487,-8.5807 38.63077,-22.47428 39.02776,-32.0626 0.18044,-4.34307 2.12843,-6.27057 4.54754,-6.44706 4.03203,-0.29413 9.31301,4.24612 9.44035,10.30379 0.26795,12.7432 -10.32853,21.12919 -21.58624,27.51513 -11.2577,6.38591 -23.19342,10.14899 -25.55794,14.67856 13.87531,-4.08438 34.15429,-10.83718 37.93408,-17.38403 4.2797,-7.80313 11.32727,0.23256 9.03731,7.82858 -2.33978,7.76056 -11.24316,12.96974 -24.92465,16.63569 -11.12878,2.98194 -21.56956,4.2471 -21.93161,8.23153 7.13817,0.14311 26.72427,-0.76339 31.31429,-5.35336 2.23761,-2.23771 5.36064,-5.43972 8.74949,-5.69874 8.42026,-0.64361 6.67034,9.94667 3.16594,14.39075 -6.33155,8.02997 -27.52027,8.0556 -44.66889,7.54076 7.79653,6.44512 33.36243,4.34484 41.38783,-1.20883 10.13386,-0.9024 8.25277,11.64396 -0.74821,14.44833 -9.12991,2.84457 -27.51421,2.9074 -35.86183,-1.26638 -5.53141,-2.76564 -4.89281,1.72687 -4.89281,1.72687 6.14665,4.01929 20.48342,6.83478 31.77479,6.50463 7.08613,-0.20718 10.99305,-6.27359 14.50595,-2.82058 5.0056,4.92023 -0.21421,15.08151 -13.12445,15.08151 -11.95865,-0.21923 -29.36057,-5.73602 -36.72537,-11.62773 0.95402,9.20648 37.63203,27.43859 46.79891,15.08151 10.72711,3.75392 3.64141,18.095 -5.23819,19.28361 -19.26643,2.57896 -33.21523,-12.89494 -46.68368,-21.87394 12.45824,12.74285 30.54188,37.74473 50.13743,27.63025 9.8795,4.18272 -0.0184,17.84453 -7.94383,17.84453 -25.04891,0 -41.13867,-24.45306 -51.11599,-34.76806 4.25527,15.88056 16.55876,29.52806 31.14171,30.85378 2.7133,7.59632 -7.34728,11.10372 -12.89409,9.03739 -13.07634,-4.87117 -25.50389,-20.33981 -27.68797,-32.35041 -3.34913,6.5631 4.18284,18.53908 10.07364,20.89537 -3.26204,10.27226 -16.90987,1.06657 -17.15382,-9.67059 -2.31705,8.64759 0.27507,17.85934 4.83535,22.56471 6.32635,6.52768 12.31093,7.19492 23.83107,6.15924 0.1695,3.71346 -0.67365,8.41108 -2.3025,11.39748 0,0 12.17382,-0.28188 16.46297,0.97858 3.85615,1.1332 4.03628,3.23257 8.2891,2.87815 2.00343,-1.72918 3.15744,-3.1008 5.92893,-3.85673 2.25439,-2.19417 4.36222,-7.31506 7.48333,-7.36806 1.44034,-0.0245 2.34265,0.37371 3.68411,1.5542 3.01629,-1.79135 8.2618,0.47631 9.15243,3.7416 -6.48852,0.0385 -5.02578,6.2168 -9.6706,6.2168 -1.24322,0 -2.18748,1.47679 -2.18748,2.8206 7.94394,-0.64479 16.34848,-2.91871 14.62107,5.81386 4.3739,1.51233 7.19234,5.82662 4.66267,9.44033 -1.42738,-1.39995 -2.57279,-2.97115 -4.37475,-3.62647 -5.35309,3.25761 -8.20286,-1.33692 -11.57026,-3.28109 -2.13013,-1.22979 -5.87095,-0.82235 -4.72023,1.09369 1.57033,2.61483 16.04644,6.57813 11.91564,12.72143 1.73728,5.92225 0.62225,10.02024 -3.45375,13.00925 0.10132,-2.80604 -0.47621,-6.24668 -1.72708,-8.28907 -8.74588,0 -6.61098,-3.44088 -9.38268,-7.59832 -1.36323,-2.04498 -5.20441,-7.0227 -8.63448,-7.0227 -9.02456,0 -3.30431,15.82771 -16.57809,14.62102 -0.68873,3.11342 1.61887,5.53513 2.82046,7.08024 -4.8789,-0.58069 -9.15243,-2.8922 -9.15243,-8.11638 -5.39601,-17.09419 15.25426,-12.81069 15.25426,-21.41344 -25.7832,0 -37.64638,-3.53399 -37.64638,14.90882 -20.8341,-10.86756 -17.80846,-38.17502 -23.02519,-40.06387 -3.0318,-1.09789 -6.85153,1.0866 -7.13785,4.72017 -1.08275,13.74395 4.81485,25.08744 11.85818,33.38656 6.72578,7.92495 16.95491,9.25779 28.5513,8.63445 -0.45848,5.23671 -2.77999,9.72451 -5.12327,13.23949 -13.76301,-0.97227 -25.96632,-9.33685 -33.84704,-20.83781 3.93801,14.69684 18.59286,22.86157 31.09131,25.18223 -1.64117,4.05077 -5.66353,8.66686 -10.77869,11.61836 -11.16568,-6.76907 -20.47037,-15.69466 -25.20554,-27.53294 1.69931,14.41925 9.98741,25.18135 20.41743,31.9039 -2.3372,3.48773 -7.85077,7.9051 -12.84597,10.46758 -9.19266,-12.52107 -12.68754,-28.13041 -17.01181,-42.54418 -0.12691,12.95731 2.59488,36.86753 10.30389,46.85631 -3.78329,4.03793 -9.94038,9.09496 -14.44777,9.09496 -4.50739,0 -10.66448,-5.05703 -14.44777,-9.09496 7.70901,-9.98878 10.4308,-33.899 10.30389,-46.85631 -4.32427,14.41377 -7.81915,30.02311 -17.01181,42.54418 -4.9952,-2.56248 -10.50877,-6.97985 -12.84597,-10.46758 10.43002,-6.72255 18.71812,-17.48465 20.41743,-31.9039 -4.73517,11.83828 -14.03986,20.76387 -25.20554,27.53294 -5.11516,-2.9515 -9.13752,-7.56759 -10.77869,-11.61836 12.49845,-2.32066 27.1533,-10.48539 31.09131,-25.18223 -7.88072,11.50096 -20.08403,19.86554 -33.84704,20.83781 -2.34328,-3.51498 -4.66479,-8.00278 -5.12327,-13.23949 11.59639,0.62334 21.82552,-0.7095 28.5513,-8.63445 7.04333,-8.29912 12.94093,-19.64261 11.85818,-33.38656 -0.28632,-3.63357 -4.10605,-5.81806 -7.13785,-4.72017 -5.21673,1.88885 -2.19109,29.19631 -23.02519,40.06387 0,-18.44281 -11.86318,-14.90882 -37.64638,-14.90882 0,8.60275 20.65027,4.31925 15.25426,21.41344 0,5.22418 -4.27353,7.53569 -9.15243,8.11638 1.20159,-1.54511 3.50919,-3.96682 2.82046,-7.08024 -13.27378,1.20669 -7.55353,-14.62102 -16.57809,-14.62102 -3.43007,0 -7.27125,4.97772 -8.63448,7.0227 -2.7717,4.15744 -0.6368,7.59832 -9.38268,7.59832 -1.25087,2.04239 -1.8284,5.48303 -1.72708,8.28907 -4.076,-2.98901 -5.19103,-7.087 -3.45375,-13.00925 -4.1308,-6.1433 10.34531,-10.1066 11.91564,-12.72143 1.15072,-1.91604 -2.5901,-2.32348 -4.72023,-1.09369 -3.3674,1.94417 -6.21717,6.5387 -11.57026,3.28109 -1.80196,0.65532 -2.94737,2.22652 -4.37475,3.62647 -2.52967,-3.61371 0.28877,-7.928 4.66267,-9.44033 -1.72741,-8.73257 6.67713,-6.45865 14.62107,-5.81386 0,-1.34381 -0.94426,-2.8206 -2.18748,-2.8206 -4.64482,0 -3.18208,-6.1783 -9.6706,-6.2168 0.89063,-3.26529 6.13614,-5.53295 9.15243,-3.7416 1.34146,-1.18049 2.24377,-1.5787 3.68411,-1.5542 3.12111,0.053 5.22894,5.17389 7.48333,7.36806 2.77149,0.75593 3.9255,2.12755 5.92893,3.85673 4.25282,0.35442 4.43295,-1.74495 8.2891,-2.87815 4.28915,-1.26046 16.46297,-0.97858 16.46297,-0.97858 -1.62885,-2.9864 -2.472,-7.68402 -2.3025,-11.39748 11.52014,1.03568 17.50472,0.36844 23.83107,-6.15924 4.56028,-4.70537 7.1524,-13.91712 4.83535,-22.56471 -0.24395,10.73716 -13.89178,19.94285 -17.15382,9.67059 5.8908,-2.35629 13.42277,-14.33227 10.07364,-20.89537 -2.18408,12.0106 -14.61163,27.47924 -27.68797,32.35041 -5.54681,2.06633 -15.60739,-1.44107 -12.89409,-9.03739 14.58295,-1.32572 26.88644,-14.97322 31.14171,-30.85378 -9.97732,10.315 -26.06708,34.76806 -51.11599,34.76806 -7.92543,0 -17.82333,-13.66181 -7.94383,-17.84453 19.59555,10.11448 37.67919,-14.8874 50.13743,-27.63025 -13.46845,8.979 -27.41725,24.4529 -46.68368,21.87394 -8.8796,-1.18861 -15.9653,-15.52969 -5.23819,-19.28361 9.16688,12.35708 45.84489,-5.87503 46.79891,-15.08151 -7.3648,5.89171 -24.76672,11.4085 -36.72537,11.62773 -12.91024,0 -18.13005,-10.16128 -13.12445,-15.08151 3.5129,-3.45301 7.41982,2.6134 14.50595,2.82058 11.29137,0.33015 25.62814,-2.48534 31.77479,-6.50463 0,0 0.6386,-4.49251 -4.89281,-1.72687 -8.34762,4.17378 -26.73192,4.11095 -35.86183,1.26638 -9.00098,-2.80437 -10.88207,-15.35073 -0.74821,-14.44833 8.0254,5.55367 33.5913,7.65395 41.38783,1.20883 -17.14862,0.51484 -38.33734,0.48921 -44.66889,-7.54076 -3.5044,-4.44408 -5.25432,-15.03436 3.16594,-14.39075 3.38885,0.25902 6.51188,3.46103 8.74949,5.69874 4.59002,4.58997 24.17612,5.49647 31.31429,5.35336 -0.36205,-3.98443 -10.80283,-5.24959 -21.93161,-8.23153 -13.68149,-3.66595 -22.58487,-8.87513 -24.92465,-16.63569 -2.28996,-7.59602 4.75761,-15.63171 9.03731,-7.82858 3.77979,6.54685 24.05877,13.29965 37.93408,17.38403 -2.36452,-4.52957 -14.30024,-8.29265 -25.55794,-14.67856 -11.25771,-6.38594 -21.85419,-14.77193 -21.58624,-27.51513 0.12734,-6.05767 5.40832,-10.59792 9.44035,-10.30379 2.41911,0.17649 4.3671,2.10399 4.54754,6.44706 0.39699,9.58832 26.59289,23.4819 39.02776,32.0626 0.99428,-0.81617 1.77881,-1.91412 2.53275,-3.05084 6.87181,3.96751 29.98176,16.10104 19.68657,30.96891 -3.2322,4.66787 6.36034,9.77299 10.70641,8.57691 -0.65922,-1.82757 -1.14136,-3.64931 -1.61184,-5.46812 14.50107,2.4645 18.99861,-14.10132 14.25428,-24.93326 -5.12066,-11.69112 -15.70974,-14.88265 -18.50368,-15.63128 -7.4094,-0.82327 -15.90751,0.85749 -18.75,-6.99307 1.60932,1.1495 3.87949,0.95467 6.34375,0.46182 1.43288,-0.2866 3.54803,-0.375 4.84375,-0.375 -3.48808,-2.53671 -9.55188,-2.56592 -14.08807,-1.6724 -1.97832,0.38968 -7.15275,2.0082 -11.93243,0.51961 -5.19373,-1.61754 -9.19355,-8.17295 -6.72823,-12.59572 0.70502,-1.2648 2.11669,-2.09505 3.97304,-2.09505 -0.57094,6.51569 1.55658,11.00046 6.49444,11.00046 3.17174,0 7.30706,-1.11084 10.42499,-0.33134 1.67865,0.41966 3.05036,0.7292 4.99394,0.7292 -1.0837,-0.62568 -2.20761,-1.23536 -4.11006,-2.23183 -2.75249,-1.4417 -8.99309,-5.77199 -10.89386,10e-6 -0.99208,-1.18725 -0.92808,-2.94036 -0.92808,-4.72878 0,-5.56593 6.17079,-7.7565 9.22815,-7.95048 1.97976,-0.12561 6.28236,0.30979 8.49372,1.58652 1.67247,-6.93856 7.83256,-5.21795 16.07066,-3.01056 5.98012,1.60237 12.2055,3.41777 18.18301,1.2923 -0.2815,2.55445 -1.73122,4.1868 -3.01633,5.25444 -2.45756,2.04169 -4.08928,1.911 -4.32309,2.78359 9.22696,3.24633 14.29649,8.93593 16.50195,8.6743 -0.20246,0.75557 -2.76078,2.22005 -3.78125,2.22005 3.65938,2.70319 8.20201,9.40986 12.57537,9.47916 -0.17836,0.81851 -3.02203,2.01776 -4.04745,2.01776 3.51856,2.72307 6.77048,8.1469 6.77048,8.1469 0,0 3.25192,-5.42383 6.77048,-8.1469 z" />
      </g>
    </g>
  </g>
</svg>
