<?xml version="1.0" encoding="UTF-8" standalone="no"?>
<svg width="900" height="600" version="1.1" id="svg5621" xmlns:xlink="http://www.w3.org/1999/xlink" xmlns="http://www.w3.org/2000/svg" xmlns:svg="http://www.w3.org/2000/svg">
<defs id="defs5576">
<radialGradient cx="257.412" cy="61.089" r="29.308" id="a" gradientUnits="userSpaceOnUse">
<stop offset="0" stop-color="#f9ebca" id="stop5562" />
<stop offset=".489" stop-color="#f7e3b2" id="stop5564" />
<stop offset="1" stop-color="#dac69a" id="stop5566" />
</radialGradient>
<filter id="e" color-interpolation-filters="sRGB" x="-0.021600075" y="-0.033792672" width="1.0432002" height="1.0675853">
<feGaussianBlur stdDeviation="1.595" id="feGaussianBlur5569" />
</filter>
<filter id="f" color-interpolation-filters="sRGB" x="-0.011520509" y="-0.012528474" width="1.023041" height="1.0250569">
<feGaussianBlur stdDeviation="1.595" id="feGaussianBlur5572" />
</filter>
<radialGradient xlink:href="#a" id="d" gradientUnits="userSpaceOnUse" cx="257.412" cy="61.089" r="29.308" />
</defs>
<path d="M0 0h900v600H0z" fill="#ffcc1e" id="path5578" />
<use transform="matrix(-1,0,0,1,900,4.3644969e-8)" width="600" height="400" xlink:href="#b" id="use5580" x="0" y="0" />
<g id="b" transform="translate(0,-6.5005741)">
<path d="m 194.632,329.047 c -2.668,0 -4.968,-1.171 -7.456,-3.798 -4.229,-4.464 -2.691,-10.828 -2.675,-10.893 -0.014,-0.013 -1.586,-2.146 0.002,-4.251 1.587,-2.104 6.105,-3.704 6.151,-3.721 0.001,-0.034 0.811,-4.257 2.135,-5.573 1.32,-1.308 4.509,-8.418 4.541,-8.489 l -2.395,0.279 c -1.259,0.138 -1.772,1.421 -2.269,2.661 -0.436,1.088 -0.847,2.116 -1.741,2.116 -1.018,0 -1.812,-0.716 -2.513,-1.347 -0.594,-0.536 -1.155,-1.042 -1.763,-1.042 -0.221,0 -0.376,0.052 -0.477,0.156 -0.188,0.198 -0.169,0.568 -0.145,1.037 0.034,0.661 0.077,1.484 -0.44,2.254 -0.575,0.855 -1.629,1.035 -2.413,1.035 -1.008,0 -2.164,-0.301 -2.945,-0.767 -0.487,-0.291 -1.098,-0.438 -1.817,-0.438 -0.705,0 -1.281,0.146 -1.37,0.171 l 0.008,-0.001 c 0.099,0 0.522,0.132 0.522,1.322 0,1.398 -1.597,4.008 -4.649,4.008 a 5.48,5.48 0 0 1 -0.439,-0.018 c -3.442,-0.263 -4.013,-4.215 -4.019,-4.255 -0.01,0.012 -2.118,0.301 -2.118,2.653 0,2.359 2.646,8.427 2.672,8.488 -0.103,-0.043 -8.841,-5.639 -9.105,-12.205 -0.266,-6.569 7.675,-10.063 7.755,-10.097 -0.011,-0.019 -0.512,-2.925 2.14,-3.452 0.234,-0.047 0.477,-0.07 0.721,-0.07 2.348,0 4.346,2.177 4.366,2.198 0.002,0 0.368,0.169 2.029,0.169 1.583,0 3.774,-0.147 6.514,-0.439 7.39,-0.785 8.799,-2.105 8.813,-2.118 h -0.002 c -0.114,0 -4.017,-0.552 -4.543,-2.115 -0.527,-1.568 -1.851,-2.113 -1.864,-2.118 0.002,0.016 -1.083,2.135 -3.199,3.187 a 2.03,2.03 0 0 1 -0.898,0.234 c -1.461,0 -2.049,-2.077 -2.055,-2.098 -0.006,-0.021 -0.679,-2.189 -2.181,-2.189 -0.156,0 -0.317,0.023 -0.479,0.069 -0.223,0.063 -0.399,0.216 -0.523,0.452 -0.823,1.563 0.781,6.389 0.797,6.438 -0.008,0.015 -0.115,0.084 -0.329,0.084 -0.404,0 -1.095,-0.243 -2.093,-1.4 -1.796,-2.081 -3.944,-5.501 -1.872,-11.16 1.809,-4.942 6.88,-5.326 8.391,-5.326 0.277,0 0.438,0.013 0.438,0.013 0.002,-0.008 1.09,-1.076 3.467,-2.39 a 1.78,1.78 0 0 1 0.856,-0.241 c 1.909,0 3.018,3.845 3.436,5.292 0.529,1.845 1.048,2.382 3.463,2.382 2.011,0 2.543,0.569 3.425,1.513 0.177,0.189 0.369,0.395 0.59,0.615 0.444,0.44 1.082,0.663 1.898,0.663 1.076,0 2.09,-0.397 2.1,-0.402 l 1.335,-0.529 c 0.149,-0.059 0.308,-0.102 0.491,-0.151 1.45,-0.392 4.468,-1.207 16.342,-14.182 13.207,-14.433 23.414,-41.928 23.515,-42.204 0.403,0 6.861,9.133 9.931,15.716 1.621,3.478 2.062,5.695 1.31,6.592 -2.176,2.594 -4.734,4.505 -7.443,6.527 -0.627,0.468 -1.265,0.943 -1.912,1.438 -3.285,2.511 -9.553,8.396 -12.29,12.473 -1.419,2.115 -2.898,3.541 -4.202,4.8 -1.138,1.097 -2.12,2.044 -2.746,3.164 -1.287,2.305 -3.177,4.784 -4.284,4.784 -1.039,0 -2.871,3.075 -2.931,3.177 l 0.005,-0.001 c 0.03,0 0.158,0.03 0.388,0.03 0.42,0 1.155,-0.099 2.266,-0.57 0.463,-0.197 1.032,-0.298 1.691,-0.298 1.551,0 3.11,0.558 3.126,0.563 -0.011,-0.021 0.264,-2.929 1.057,-4.243 0.705,-1.166 2.065,-2.342 3.517,-2.342 0.356,0 0.706,0.072 1.04,0.215 1.853,0.789 2.669,2.641 2.678,2.659 0.059,0.055 6.152,5.919 6.681,13.009 0.146,1.95 -0.312,3.511 -1.358,4.639 -1.692,1.823 -4.421,2.02 -5.517,2.02 a 5.56,5.56 0 0 1 -0.351,-0.009 c 0.011,-0.047 1.858,-3.229 1.594,-5.851 -0.263,-2.616 -2.375,-3.957 -2.401,-3.973 0.011,0.009 -0.251,1.073 -0.251,2.38 0,1.366 -1.92,3.459 -4.287,3.459 -1.312,0 -1.908,-0.938 -2.484,-1.845 -0.485,-0.763 -0.943,-1.483 -1.793,-1.604 a 1.673,1.673 0 0 0 -0.241,-0.019 c -0.213,0 -0.361,0.053 -0.453,0.16 -0.18,0.212 -0.116,0.614 -0.053,1.003 0.065,0.406 0.133,0.827 -0.065,1.06 -0.106,0.124 -0.277,0.185 -0.522,0.185 -1.602,0 -4.281,0 -5.62,-1.329 -0.446,-0.443 -0.91,-0.669 -1.378,-0.669 -0.77,0 -1.528,0.63 -2.08,1.728 -0.821,1.631 -1.635,2.128 -3.484,2.128 -1.633,0 -1.633,0 -2.5,0.888 l -0.433,0.438 c -0.792,0.787 -0.736,1.833 -0.671,3.044 0.044,0.819 0.089,1.666 -0.127,2.526 -0.135,0.537 -0.184,1.065 -0.231,1.577 -0.138,1.496 -0.247,2.678 -2.451,2.678 -0.826,0 -1.22,0.086 -1.361,0.295 -0.164,0.244 0.007,0.659 0.29,1.348 0.345,0.84 0.867,2.108 1.081,3.919 0.149,1.258 -0.128,2.293 -0.825,3.077 -1.374,1.546 -4,1.713 -5.065,1.713 -0.39,0 -0.612,0.068 -0.681,0.208 -0.121,0.247 0.229,0.697 0.672,1.267 l 0.284,0.369 c 0.656,0.869 1.728,3.595 1.443,5.262 -0.089,0.521 -0.306,0.9 -0.644,1.124 -0.367,0.242 -0.862,0.365 -1.473,0.365 -1.637,0 -3.594,-0.889 -3.614,-0.898 l 0.549,2.911 c 0.526,2.879 6.875,3.438 6.939,3.443 0.003,0.036 -0.562,2.411 -3.474,2.939 -0.892,0.158 -1.907,0.341 -2.972,0.341 z" fill="#780000" transform="scale(1.5)" id="path5589" />
<path d="m 195.279,327.25 c -1.944,0 -4.704,-0.483 -6.813,-2.786 -3.739,-4.086 -2.471,-9.529 -2.458,-9.583 l 0.006,-10e-4 c 0.271,0 1.067,0.484 1.536,1.057 0.3,0.365 0.427,0.717 0.367,1.015 -0.076,0.378 0.003,0.791 0.198,1.028 0.11,0.135 0.25,0.206 0.406,0.206 0.227,0 0.598,-0.15 1.079,-0.867 0.417,-0.62 0.779,-0.935 1.079,-0.935 0.321,0 0.449,0.371 0.45,0.375 -0.001,0.028 -0.177,2.476 0.757,5.441 0.932,2.967 6.176,4.672 6.229,4.688 -0.013,0.023 -1.206,0.362 -2.836,0.362 z m 1.429,-8.245 c -0.197,0 -0.425,-0.058 -0.679,-0.17 -0.78,-0.344 -1.612,-1.174 -2.493,-2.053 -1.042,-1.04 -2.223,-2.219 -3.554,-2.828 -1.731,-0.793 -3.078,-0.839 -3.801,-0.864 -0.305,-0.011 -0.489,-0.017 -0.547,-0.075 0,-0.038 0.395,-3.026 2.081,-3.771 l 1.701,-0.75 c 0.072,0.048 6.26,4.722 7.382,6.947 0.691,1.373 0.903,2.64 0.542,3.227 -0.139,0.223 -0.351,0.337 -0.632,0.337 z m -5.407,-11.248 c 0.008,-0.028 0.95,-1.72 1.51,-3.574 0.258,-0.855 1.278,-2.418 2.459,-4.227 1.392,-2.131 2.969,-4.547 3.587,-6.287 0.469,-1.319 1.054,-2.642 1.621,-3.921 0.794,-1.794 1.481,-3.344 1.591,-4.333 0.057,-0.512 0.01,-1.207 -0.041,-1.942 -0.115,-1.681 -0.258,-3.771 0.799,-4.821 0.299,-0.298 1.041,-0.885 2.066,-1.696 4.047,-3.204 13.524,-10.707 20.041,-19.891 7.988,-11.253 18.107,-32.766 18.334,-33.57 l 0.011,-0.01 c 0.235,0.179 3.627,3.063 4.538,5.051 0.625,1.366 -3.108,6.296 -6.718,11.063 -1.846,2.438 -3.589,4.739 -4.621,6.405 -1.863,3.007 -7.083,9.217 -11.688,14.695 -2.886,3.435 -5.613,6.678 -7.208,8.767 -2.085,2.731 -2.694,4.938 -3.097,6.397 -0.343,1.243 -0.532,1.928 -1.35,1.928 -0.141,0 -0.297,-0.021 -0.477,-0.062 a 1.759,1.759 0 0 0 -0.391,-0.047 c -1.123,0 -1.665,1.26 -2.143,2.371 -0.399,0.928 -0.777,1.805 -1.431,1.805 -1.017,0 -2.553,1.106 -3.393,2.132 -0.422,0.515 -0.624,0.954 -0.567,1.235 0.029,0.144 0.08,0.335 0.14,0.559 0.324,1.215 0.926,3.478 -0.524,3.957 -1.716,0.569 -2.825,2.066 -2.638,3.558 l 0.018,0.142 c 0.185,1.455 0.319,2.506 -0.969,2.871 -0.922,0.261 -2.188,1.207 -2.533,2.147 -0.143,0.389 -0.116,0.735 0.082,1.028 -0.45,2.774 -1.472,3.77 -2.375,4.647 -0.687,0.669 -1.28,1.246 -1.404,2.492 l -2.087,2.454 z m -25.32,-0.937 c -0.045,-0.04 -4.538,-3.998 -4.538,-8.641 0,-4.646 6.366,-8.047 6.43,-8.081 2.817,2.231 1.726,7.28 1.715,7.331 -0.027,0.008 -1.73,0.027 -3.783,1.695 -2.049,1.664 0.169,7.624 0.192,7.684 z" fill="#a8121c" transform="scale(1.5)" id="path5591" />
<path d="m 173.643,301.77 c -1.301,0 -2.976,-1.132 -3.129,-1.898 l -0.19,-0.939 c 0.013,-0.024 1.129,-1.731 0.756,-4.882 -0.374,-3.152 -1.686,-5.604 -1.699,-5.629 0,-0.026 0.192,-2.089 1.868,-2.089 0.071,0 0.144,0.004 0.22,0.012 1.796,0.176 3.58,3.212 3.978,6.767 0.384,3.433 0.366,7.707 -0.95,8.455 -0.24,0.134 -0.527,0.203 -0.854,0.203 z m 8.8,-3.91 c -0.201,0 -0.399,-0.08 -0.589,-0.237 -0.433,-0.359 -1.189,-0.541 -2.248,-0.541 -0.99,0 -1.892,0.166 -1.901,0.168 -0.012,-0.009 -0.201,-1.322 -0.579,-3.576 -0.358,-2.131 -1.065,-4.464 -1.128,-4.67 l -0.003,-0.012 0.019,-0.001 c 0.036,0 0.115,0.007 0.325,0.007 2.039,0 13.614,-0.765 16.666,-2.278 3.36,-1.669 7.14,-6.89 7.177,-6.942 l -0.36,0.947 c -0.234,0.581 -0.032,1.521 0.202,2.608 0.145,0.674 0.294,1.371 0.366,2.082 0.187,1.859 -1.498,3.741 -1.515,3.76 h -0.002 c -0.044,0 -0.629,-0.046 -1.42,-0.046 -1.549,0 -3.543,0.171 -4.246,0.985 -0.815,0.944 -1.536,2.868 -2.013,4.142 -0.187,0.498 -0.337,0.899 -0.443,1.11 -0.043,0.087 -0.124,0.131 -0.237,0.131 -0.931,0 -3.914,-2.92 -4.502,-3.506 -0.248,-0.246 -0.481,-0.371 -0.694,-0.371 -0.859,0 -1.179,1.95 -1.179,3.179 -0.001,1.387 -0.757,3.061 -1.696,3.061 z m 54.774,-8.307 v -0.01 c -0.002,-0.056 -0.241,-5.652 -4.719,-8.062 -0.016,-0.037 -1.129,-3.217 -0.191,-4.707 l 0.943,-1.502 c 0.08,0.065 6.439,6.802 6.065,10.52 -0.375,3.718 -2.071,3.761 -2.088,3.761 z m -61.662,-4.914 c -0.04,-0.017 -3.994,-1.68 -2.01,-8.642 1.552,-5.448 5.458,-6.037 7.065,-6.037 0.506,0 0.826,0.057 0.829,0.058 -2.897,2.899 -1.607,9.104 -1.594,9.166 -0.026,0 -0.982,-0.928 -2.85,-0.928 -0.118,0 -0.24,0.004 -0.366,0.012 a 0.99,0.99 0 0 0 -0.732,0.4 c -1.096,1.385 -0.335,5.914 -0.328,5.959 l 0.003,0.018 z" fill="#a8121c" transform="scale(1.5)" id="path5593" />
<path d="m 194.266,283.311 c -0.036,0 -3.63,-0.022 -5.085,-1.996 -0.919,-1.244 -1.824,-1.855 -2.364,-2.222 -0.32,-0.217 -0.497,-0.336 -0.442,-0.443 0.012,-0.022 1.209,-2.273 1.871,-3.847 l 0.668,-1.594 c 0.031,0.02 1.375,2.117 3.483,2.117 1.857,0 2.517,0.608 3.431,1.452 0.142,0.131 0.291,0.268 0.451,0.409 1.185,1.048 3.973,1.061 4.001,1.061 0,0.021 -0.541,0.43 -1.595,1.74 -1.058,1.313 -4.379,3.301 -4.412,3.321 l -0.002,10e-4 h -0.005 z m -11.692,-1.781 c -0.901,0 -1.842,-0.805 -1.946,-1.014 -0.004,-0.048 -0.263,-4.41 0.267,-6.642 0.52,-2.2 2.095,-4.491 3.746,-5.448 a 0.941,0.941 0 0 1 0.479,-0.131 c 1.509,0 3.259,3.551 3.276,3.586 -0.036,0.085 -3.619,7.591 -4.676,9.036 -0.3,0.407 -0.684,0.613 -1.146,0.613 z" fill="#a8121c" transform="scale(1.5)" id="path5595" />
<path d="m 199.792,309.91 c -1.517,0 -2.795,-0.894 -3.39,-1.779 -0.75,-1.115 -0.008,-2.436 0,-2.448 0.08,0.062 0.15,0.093 0.229,0.093 0.332,0 0.8,-0.562 1.448,-1.339 l 0.214,-0.258 c 0.346,-0.412 0.564,-1.178 0.817,-2.063 0.428,-1.501 0.961,-3.369 2.398,-4.321 1.153,-0.764 1.277,-2.068 1.396,-3.331 0.117,-1.236 0.228,-2.403 1.25,-3.05 1.319,-0.834 1.727,-2.749 2.085,-4.439 0.207,-0.97 0.401,-1.887 0.745,-2.502 0.483,-0.866 1.474,-0.999 2.348,-1.116 0.835,-0.111 1.625,-0.218 1.808,-0.947 0.374,-1.487 1.497,-3.375 2.841,-3.946 1.168,-0.499 2.04,-2.613 2.883,-4.658 l 0.324,-0.78 c 0.958,-2.288 6.071,-8.285 10.395,-12.767 4.476,-4.642 10.65,-12.879 12.47,-15.955 1.868,-3.156 9.188,-11.925 9.261,-12.014 0.039,0.104 2.036,10.004 -3.199,13.905 -5.466,4.069 -17.652,15.703 -19.461,18.579 -1.882,2.991 -7.345,8.987 -10.206,11.452 -0.755,0.65 -1.058,1.255 -0.875,1.748 0.284,0.767 1.66,1.115 2.819,1.115 0.605,0 1.187,-0.09 1.636,-0.252 a 4.058,4.058 0 0 1 1.395,-0.259 c 0.563,0 1.068,0.122 1.653,0.264 0.714,0.174 1.523,0.37 2.624,0.37 2.122,0 2.293,-1.719 2.474,-3.537 0.044,-0.444 0.089,-0.897 0.163,-1.336 0.186,-1.107 1.029,-1.604 1.782,-1.604 0.442,0 0.82,0.165 1.011,0.441 0.152,0.22 0.173,0.493 0.061,0.791 -0.545,1.442 -0.737,5.078 -0.922,8.594 l -0.022,0.415 c -0.078,1.479 -0.605,2.197 -1.612,2.197 -0.842,0 -1.836,-0.504 -2.634,-0.909 l -0.305,-0.153 a 25.529,25.529 0 0 1 -0.886,-0.473 c -1.05,-0.578 -2.24,-1.234 -3.292,-1.234 a 2.04,2.04 0 0 0 -0.915,0.203 c -0.607,0.302 -0.937,0.844 -1.255,1.368 -0.408,0.671 -0.793,1.304 -1.712,1.304 -0.134,0 -0.28,-0.013 -0.439,-0.042 -0.628,-0.113 -1.119,-0.166 -1.546,-0.166 -1.19,0 -1.998,0.428 -2.79,1.475 -0.75,0.994 -1.764,1.337 -3.047,1.771 -0.663,0.224 -1.414,0.479 -2.248,0.86 -2.2,1.01 -3.373,3.34 -3.585,7.125 -0.191,3.438 -2.354,3.972 -3.786,4.325 -0.317,0.079 -0.506,0.195 -0.578,0.355 -0.119,0.266 0.079,0.637 0.328,1.106 0.25,0.471 0.561,1.056 0.635,1.721 0.048,0.424 0.181,0.997 0.321,1.604 0.332,1.435 0.745,3.219 0.245,4.013 a 0.877,0.877 0 0 1 -0.574,0.399 3.584,3.584 0 0 1 -0.78,0.085 z" fill="#850e17" transform="scale(1.5)" id="path5597" />
</g>
<path d="m 391.547,66.765426 c -6.73,0 -15.538,1.596 -18.328,2.906 -2.712,1.273 -8.672,5.847 -8.672,7.875 l 15.797,18.984 c 40.796,8.539004 13.498,9.586004 14.25,13.969004 4.392,0.146 10.388,2.69 14.297,5.766 1.845,1.64 2.738,8.04 1.078,14.578 -0.467,1.839 -1.605,2.765 -3.328,2.765 -3.49,0 -8.366,-3.813 -8.438,-3.843 -0.003,0.018 -0.172,1.797 2.625,5.296 1.12,1.398 3.016,2.11 5.672,2.11 2.281,0 4.303,-0.537 4.313,-0.563 -0.02,0.086 -1.74,7.744 -4.313,11.016 -0.567,0.72 -1.31,1.078 -2.156,1.078 -2.44,0 -5.2,-3.017 -5.25,-3.047 -0.005,0.01 -0.647,0.903 0,3.75 0.35,1.54 1.947,1.875 3.234,1.875 1.245,0 2.374,-0.302 2.39,-0.328 -0.006,0.033 -0.248,1.134 -2.156,2.86 -1.333,1.203 -4.186,1.359 -7.078,1.359 -0.76,0 -1.516,0.012 -2.296,0 -0.78,-0.012 -1.582,-0.047 -2.344,-0.047 -4.5,0 -4.754,-7.599 -4.781,-7.687 -0.035,0.03 -3.477,3.106 -0.891,7.265 2.424,3.902 5.854,4.219 6.281,4.219 0.029,0 0.046,0.001 0.047,0 l -0.656,0.844 c -0.282,0.382 -1.337,0.61 -2.813,0.61 -1.548,0 -4.933,-0.235 -10.219,-1.923 -7.891,-2.52 -7.303,-10.615 -6.937,-13.031 0.174,-1.146 1.263,-1.688 3.234,-1.688 1.57,0 3.122,0.375 3.235,0.375 -0.086,-0.027 -2.18,-0.727 -3.657,-2.015 -1.486,-1.295 -2.797,-2.781 -2.859,-2.813 l 2.625,0.657 c 0.299,0.075 0.605,0.093 0.938,0.093 0.55,0 1.11,-0.088 1.64,-0.187 0.543,-0.102 1.116,-0.188 1.688,-0.188 1.383,0 2.514,0.592 3.75,2.016 0.816,0.94 1.103,1.853 0.843,2.625 -0.594,1.766 -3.806,2.451 -3.843,2.484 0.012,0.01 1.306,0.891 3.89,0.891 0.672,0 1.177,-0.218 1.547,-0.656 0.893,-1.058 0.983,-3.401 0.235,-7.781 -0.522,-3.047 -3.74,-3.422 -6.47,-3.422 -0.917,0 -1.834,0.048 -2.718,0.093 -0.793,0.04 -1.578,0.094 -2.25,0.094 -0.447,0 -0.86,-0.049 -1.219,-0.094 -3.08,-0.39 -5.317,-3.938 -5.765,-4.64 0.162,0.363 0.593,1.538 1.64,5.344 1.368,4.96 0.811,12.792 0.703,14.296 -0.378,-0.115 -1.344,-0.187 -2.859,-0.187 -1.735,0 -3.921,-0.782 -6.422,-1.688 -3.36,-1.216 -7.512,-2.718 -12.047,-2.718 -2.95,0 -5.352,0.925 -7.125,2.765 -2.127,2.208 -3.289,5.71 -3.14,9.61 0.205,5.503 5.888,5.953 6.328,5.953 -0.065,-0.029 -6.483,-2.947 -4.125,-9.047 1.308,-3.38 5.477,-4.078 8.719,-4.078 2.836,0 5.278,0.515 5.39,0.515 -0.064,0.038 -4.136,2.493 -4.781,5.766 -0.647,3.287 3.037,5.531 3.094,5.531 -0.017,-0.022 -1.749,-2.348 -1.032,-4.547 0.464,-1.422 1.818,-2.505 4.032,-3.187 1.302,-0.4 2.543,-0.563 3.656,-0.563 3.568,0 5.485,2.048 6.89,3.563 0.344,0.37 0.679,0.708 0.985,0.984 1.887,1.706 7.882,2.203 8.25,2.203 -0.299,0.02 -4.589,0.342 -9.797,3.094 -1.329,0.7 -2.009,1.612 -2.11,2.719 -0.262,2.863 3.735,6.245 4.97,7.219 0.347,0.274 0.706,0.422 1.078,0.422 1.467,0 2.613,-2.134 2.625,-2.157 l -0.141,-0.047 c -0.725,0 -3.192,-0.09 -4.078,-1.453 -0.447,-0.687 -0.398,-1.609 0.094,-2.719 1.614,-3.64 8.894,-3.676 15.328,-3.703 1.326,-0.006 2.628,-0.007 3.797,-0.047 4.827,-0.157 6.315,-1.318 6.75,-2.015 -0.273,0.658 -0.783,2.004 -0.938,3.562 -0.214,2.192 2.155,3.979 2.203,3.985 0,-0.026 0.017,-2.715 1.735,-5.766 1.716,-3.054 9.921,-5.914 9.984,-5.953 0.005,0.018 0.458,1.807 -0.187,4.64 -0.386,1.702 -2.503,2.153 -4.735,2.626 -1.471,0.31 -3.015,0.594 -3.984,1.312 -2.373,1.752 -0.889,5.731 -0.844,5.766 0,-0.018 0.047,-0.463 1.969,-3.281 0.63,-0.926 1.473,-1.407 2.484,-1.407 1.42,0 2.711,0.936 2.719,0.938 0.005,0.015 0.344,1.653 -3.516,8.625 -1.092,1.97 -2.266,2.953 -3.562,2.953 -2.448,0 -4.405,-3.578 -4.453,-3.61 l -0.422,3.282 c -0.074,0.556 0.052,1.039 0.375,1.406 0.73,0.834 2.325,1.031 3.562,1.031 1.223,0 2.298,-0.203 2.344,-0.234 -0.055,0.07 -1.468,1.843 -8.016,3.562 a 7.996,7.996 0 0 1 -2.015,0.282 c -1.065,0 -1.871,-0.332 -2.344,-0.985 -1.068,-1.474 -0.218,-4.13 -0.234,-4.172 -0.029,0.027 -2.82,2.699 -1.313,5.766 0.54,1.098 1.714,1.64 3.422,1.64 1.913,0 3.88,-0.729 3.984,-0.796 l -1.968,1.781 c -2.078,1.88 -4.742,3.758 -12.375,4.406 -1.086,0.092 -2.08,0.14 -3,0.14 -5.655,0 -8.346,-1.731 -11.344,-4.968 -3.051,-3.294 -6.444,-3.562 -11.297,-3.562 h -1.734 c -3.05,0 -6.39,2.261 -9.61,4.453 -2.832,1.927 -5.515,3.765 -8.015,4.172 a 6.08,6.08 0 0 1 -0.985,0.093 c -4.55,0 -7.592,-5.325 -8.531,-8.906 -0.634,-2.415 0.718,-3.433 2.578,-4.828 0.678,-0.509 1.444,-1.069 2.203,-1.781 1.971,-1.847 3.064,-5.894 2.344,-8.625 -0.412,-1.57 -1.402,-2.565 -2.812,-2.907 -3.546,-0.858 -6.142,-3.814 -7.782,-8.812 -0.639,-1.95 -2.207,-3.234 -3.984,-3.234 -1.188,0 -2.345,0.62 -3.234,1.687 -0.803,0.965 -1.866,1.453 -3.188,1.453 -1.98,0 -4.224,-1.108 -6.14,-2.156 -0.893,-0.489 -1.498,-1.452 -1.735,-2.86 -0.447,-2.657 0.476,-6.073 2.156,-7.921 0.828,-0.914 1.665,-2 2.532,-3.14 1.87,-2.462 3.817,-5.02 6.187,-6.376 0.666,-0.38 1.3,-0.562 1.922,-0.562 2.445,0 4.245,3.02 5.672,5.437 0.778,1.317 2.58,2.063 5.11,2.063 3.116,0 6.47,-1.128 8.155,-2.72 3.125,-2.947 4.317,-16.663 2.813,-24.093 -0.912,-4.501 -8.701,-10.006 -14.953,-14.437 -4.248,-3.010004 -7.922,-5.626004 -8.531,-7.220004 -1.499,-3.914 2.815,-6.139 2.859,-6.187 -0.014,-0.007 -1.384,-0.75 -2.906,-0.75 -1.13,0 -2.046,0.414 -2.766,1.22 -2.157,2.408 -0.036,6.587 0,6.608 -0.027,-0.003 -2.61,-0.247 -4.969,-3.515 -1.68,-2.328 -3.52,-2.84 -6.047,-3.516 a 41.25,41.25 0 0 1 -3.75,-1.172 c -4.716,-1.74 -4.574,-6.546 -4.593,-6.609 -0.027,0.013 -2.626,1.367 -1.547,4.219 1.024,2.709 3.647,3.255 3.89,3.281 h -2.343 c -2.348,0 -4.746,0.003 -8.438,-2.203 -3.822,-2.285 -5.88,-4.31 -6.515,-9.047 -0.146,-1.088 0.096,-2.012 0.796,-2.813 1.275,-1.458 3.752,-2.109 5.625,-2.109 1.052,0 1.911,0.17 2.25,0.516 0.684,0.696 -0.225,1.91 -0.937,2.86 -0.437,0.578 -0.766,0.999 -0.656,1.218 0.043,0.085 0.148,0.14 0.328,0.14 0.054,0 0.12,0.007 0.187,0 0.803,-0.09 1.268,-0.659 1.735,-1.218 0.498,-0.6 1.008,-1.219 1.922,-1.219 0.33,0 0.67,0.075 1.078,0.234 0.406,0.16 0.876,0.235 1.359,0.235 1.352,0 2.84,-0.603 4.594,-1.313 1.645,-0.664 3.502,-1.414 5.578,-1.781 0.77,-0.137 1.517,-0.234 2.156,-0.234 1.643,0 2.826,0.432 3.516,1.312 0.762,0.972 0.897,2.47 0.422,4.406 -0.3,1.224 -1.03,1.828 -2.11,1.828 -2.058,0 -4.824,-2.278 -4.875,-2.296 -0.005,0.009 -0.355,0.942 0.188,1.875 0.592,1.017 1.982,1.665 4.172,1.921 0.304,0.036 0.611,0.047 0.89,0.047 2.033,0 3.533,-0.929 4.125,-2.53 0.725,-1.961 -0.132,-4.409 -2.156,-6.141 -1.809,-1.549 -3.61,-2.297 -5.484,-2.297 -2.094,0 -4.017,0.908 -5.625,1.828 -1.15,0.658 -2.11,0.984 -3.047,0.984 -1.718,0 -3.189,-1.037 -5.39,-2.578 l -0.235,-0.14 c -0.888,-0.62 -2.021,-0.985 -3.281,-0.985 -3.645,0 -7.684,2.597 -9.797,6.281 -3.014,5.249 8.588,14.28 8.718,14.344 l -6.093,-1.547 c -2.181,-0.555 -4.6,-0.594 -6.938,-0.61 -4.096,-0.025 -7.936,-0.029 -9.328,-3.14 -2.15,-4.804 -7.56,-12.72 -7.64,-12.797 -0.041,0.09 -4.162,9.068 -6.094,11.906 -0.824,1.21 -0.927,3.167 -0.282,5.204 0.981,3.103 3.362,5.615 6.375,6.75 5.8,2.182 17.504,6.130004 17.625,6.140004 -0.117,0.008 -11.8,0.704 -16.312,1.36 -2.117,0.307 -5.921,0.468 -9.656,0.468 -5.604,0 -9.773,-0.43 -11.438,-1.172 -1.165,-0.517 -2.245,-1.113 -3.328,-1.687 -2.147,-1.140004 -4.21,-2.192004 -6.234,-2.484004 -3.002,-0.436 -7.103,-8.32 -7.172,-8.391 0,0.016 0.056,1.849 3.281,6.656 3.192,4.758004 8.728,7.207004 16.078,9.469004 1.386,0.427 3.457,0.656 6.14,0.656 9.298,0 23.262,-2.618 23.391,-2.672 0,0 -2.164,1.355 -5.859,3.563 -3.543,2.12 -17.535,7.647 -29.766,10.36 -1.08,0.238 -2.119,0.374 -3.14,0.374 -9.48,0 -13.298,-10.387 -13.36,-10.5 -0.037,0.032 -3.951,3.146 -5.672,9.047 -1.978,6.787 4.821,12.421 10.875,15.938 2.121,1.231 4.236,1.828 6.329,1.828 1.51,0 2.998,-0.325 4.359,-0.985 l -2.438,1.547 c 0.017,0.003 1.787,0.188 4.5,0.188 2.505,0 6.345,-0.159 10.5,-0.844 7.937,-1.305 27.545,-10.442 27.797,-10.594 -0.307,0.19 -24.11,14.867 -39.984,21.844 -5.327,2.341 -9.689,3.515 -12.984,3.515 -2.402,0 -3.719,-0.607 -4.5,-0.984 -0.351,-0.17 -0.587,-0.281 -0.797,-0.281 -0.152,0 -0.26,0.048 -0.375,0.187 -0.182,0.224 -0.25,0.445 -0.188,0.703 0.27,1.09 2.665,2.143 2.766,2.157 l -6.281,0.234 c -0.19,0.007 -0.372,0 -0.563,0 -6.02,0 -11.781,-3.268 -11.86,-3.281 0.023,0.037 2.28,3.765 9.376,5.297 1.524,0.328 3.098,0.469 4.781,0.469 6.771,0 15.275,-2.6 27.61,-8.438 15.284,-7.237 32.811,-18.075 33.843,-18.75 -0.535,0.363 -5.553,3.747 -11.062,7.688 -2.976,2.128 -8.116,6.207 -13.594,10.546 -5.186,4.109 -10.543,8.372 -13.969,10.875 -8.568,6.257 -20.489,14.578 -24.797,14.578 -3.138,0 -4.09,0.405 -6.234,1.313 -0.975,0.414 -2.216,0.923 -3.985,1.547 -0.559,0.196 -1.08,0.328 -1.593,0.328 -4.265,0 -5.54,-6.862 -5.578,-6.938 -0.006,0.01 -0.675,0.94 -0.891,4.22 -0.214,3.28 4.109,5.715 4.172,5.718 h -2.39 c -2.143,0 -5.847,-3.714 -5.907,-3.75 -0.01,0.015 -1.064,1.633 0.656,7.969 1.685,6.204 10.573,11.719 16.406,11.719 h 0.375 c 5.592,-0.216 13.818,-8.995 13.875,-9.094 0,0 -0.02,0.26 -0.234,2.437 -0.216,2.174 -8.172,6.12 -8.25,6.188 0.014,0.005 1.544,0.375 4.36,0.375 1.045,0 2.142,-0.04 3.28,-0.14 5.105,-0.454 7.71,-1.386 16.5,-7.266 8.81,-5.898 30.65,-25.433 30.845,-25.641 -0.002,0.01 0.006,0.235 -0.422,2.625 -0.267,1.503 -4.203,5.64 -8.391,10.031 -2.49,2.609 -5.11,5.31 -6.844,7.406 -4.552,5.51 -22.153,20.774 -27.14,23.86 -2.77,1.713 -6.414,2.348 -9.329,2.86 -2.347,0.41 -4.375,0.756 -5.25,1.546 -0.418,0.378 -0.564,0.734 -0.468,0.984 0.213,0.554 1.617,0.61 2.437,0.61 0.207,0 0.368,0.015 0.422,0 -0.336,0.255 -4.759,3.563 -8.906,4.406 -4.296,0.875 -10.803,1.095 -10.875,1.125 0.03,0.018 2.958,1.828 7.36,1.828 2.884,0 5.752,-0.782 8.53,-2.297 8.865,-4.833 29.766,-17.184 34.125,-22.5 4.295,-5.24 27.401,-28.716 27.61,-28.968 -0.007,0.024 -0.942,2.445 -3.516,5.062 -2.583,2.622 -21.645,29.644 -24.562,35.578 -2.95,5.99 -23.97,28.088 -34.313,34.219 -2.34,1.389 -4.538,2.11 -6.515,2.11 -5.436,0 -7.546,-5.334 -7.594,-5.391 -0.053,0.084 -5.195,8.492 -1.969,17.015 2.136,5.646 9.477,9.14 19.172,9.14 3.252,0 6.628,-0.392 9.75,-1.17 3.482,-0.87 5.968,-2.573 7.453,-5.063 2.4,-4.023 1.27,-8.771 1.219,-8.86 0.037,0.051 1.312,1.814 1.312,4.406 0,2.618 -0.672,4.604 -0.656,4.641 l 6.75,-4.406 c 4.503,-2.954 11.104,-12.862 18.094,-23.344 3.435,-5.154 6.97,-10.475 10.36,-15.094 3.84,-5.232 6.053,-8.11 6.562,-8.11 0.207,0.314 -0.855,2.803 -2.625,6.892 -0.872,2.016 -1.952,4.438 -3.094,7.171 -6.016,14.412 -29.713,48.873 -29.953,49.22 l -7.64,11.296 c -6.355,9.408 -12.584,11.259 -16.313,12.375 -0.743,0.222 -1.387,0.439 -1.922,0.656 -2.102,0.855 -2.314,2.86 -2.485,4.5 -0.094,0.912 -0.177,1.717 -0.562,2.11 -1.073,1.089 -11.419,6.77 -11.531,6.843 0.005,0.014 0.09,0.329 0.844,0.329 1.321,0 5.163,-0.978 15.937,-7.782 13.404,-8.469 28.632,-28.058 48,-61.64 14.608,-25.325 17.81,-29.574 17.813,-29.625 l -0.235,2.671 c -0.216,2.648 -10.901,27.704 -20.39,48.563 -9.005,19.796 -38.46,67.618 -46.735,74.438 -2.158,1.777 -4.176,2.671 -5.953,2.671 -3.602,0 -5.117,-3.708 -5.156,-3.75 -0.026,0.023 -2.543,2.5 0.469,9.282 2.96,6.663 11.012,9.093 15.703,9.093 0.208,0 0.411,-0.036 0.609,-0.046 5.038,-0.234 13.055,-2.821 20.438,-9.47 7.156,-6.44 4.672,-13.01 4.359,-13.687 0.214,0.417 1.526,3.036 1.922,5.25 0.429,2.4 -0.671,6.37 -0.656,6.422 0.045,-0.057 4.59,-5.735 6.093,-7.265 0.923,-0.94 2.134,-3.22 3.422,-5.625 0.82,-1.529 1.665,-3.137 2.438,-4.36 1.629,-2.574 3.122,-4.522 5.578,-7.781 l 1.594,-2.156 c 3.44,-4.587 3.262,-26.694 3.234,-26.907 0.009,0.01 0.896,0.89 1.969,4.594 1.074,3.711 0.866,10.979 0.89,11.063 0.083,-0.089 8.31,-8.87 11.531,-14.11 1.554,-2.529 3.335,-8.448 5.204,-14.718 2.004,-6.717 4.04,-13.677 5.859,-16.22 3.414,-4.77 6.24,-7.65 6.281,-7.734 -0.163,0.45 -13.525,37.27 -18.89,49.922 -4.139,9.756 -12.534,26.143 -17.532,35.953 a 647.686,647.686 0 0 0 -3.562,7.079 c -2.08,4.228 -11.892,14.094 -17.766,19.968 -2.757,2.756 -4.759,4.731 -4.828,5.016 -0.043,0.18 -0.036,0.453 -0.047,0.797 -0.042,1.359 -0.155,3.893 -2.578,6.703 -3.004,3.495 -13.334,10.543 -13.406,10.64 h 1.5 c 1.572,0 14.133,-9.72 18.703,-14.812 2.843,-3.165 17.63,-20.12 29.766,-42.656 11.172,-20.744 30.861,-72.556 31.031,-73.078 0.003,0.015 0.469,1.359 0.469,6.375 0,5.019 -23.682,66.114 -23.907,66.75 l 3.235,-0.047 c 0,0 -1.095,2.654 -3.703,9.281 -2.324,5.906 -17.809,38.382 -29.11,53.25 -4.138,5.445 -8.016,8.203 -11.53,8.203 -2.017,0 -3.468,-0.97 -4.36,-1.734 3.031,3.367 10.601,11.394 15.468,12.984 1.088,0.354 2.325,0.516 3.704,0.516 6.04,-0.001 12.894,-3.293 15.843,-5.625 3.81,-3.01 9.077,-11.021 10.688,-15.469 0.736,-2.03 1.29,-2.437 1.64,-2.437 0.452,0 0.702,0.7 0.704,0.703 l 0.89,7.734 c 0.092,-0.078 9.19,-7.841 15.422,-14.39 5.138,-5.402 11.688,-25.966 15.188,-37.032 0.781,-2.472 1.377,-4.43 1.78,-5.578 2.263,-6.433 5.264,-17.359 6.329,-24.515 1.074,-7.208 -5.592,-17.36 -5.672,-17.438 0.029,0 2.848,0.038 6.281,5.484 1.712,2.717 2.738,4.172 3.047,4.172 0.04,-0.052 0.003,-0.178 0,-0.187 l 1.125,-9.938 c 1.077,-9.825 7.51,-40.572 7.547,-40.875 0.02,0.029 1.949,2.968 1.734,8.203 -0.228,5.508 -3.5,30.346 -6.703,49.22 -3.222,18.994 -12.728,45.936 -12.797,46.218 0.054,-0.077 5.453,-7.948 9.75,-23.016 4.295,-15.07 14.687,-82.995 14.766,-83.672 0.018,0.017 1.713,1.638 1.5,9.704 -0.216,8.079 -3.228,26.75 -3.234,26.953 l 2.156,-1.782 c -0.024,0.06 -2.39,6.062 -2.39,16.547 0,10.394 -1.834,17.577 -3.235,22.078 -1.286,4.146 -5.18,7.49 -5.203,7.547 l 3.89,-2.015 c 0,0.034 -0.217,3.368 -1.078,6.422 -0.855,3.048 -6.882,5.245 -6.937,5.296 0.036,0 3.733,0.031 9.75,-0.843 6.078,-0.88 14.681,-12.636 19.828,-19.688 2.902,-3.975 3.438,-8.291 3.984,-12.469 0.392,-2.99 0.786,-6.08 2.063,-8.953 3.009,-6.77 4.98,-40.073 4.969,-40.406 0.022,0.072 2.177,7.327 2.39,14.531 0.146,4.84 -1.148,18.153 -2.015,26.953 -0.441,4.485 -0.797,8.042 -0.797,8.86 0,2.401 -6.011,21.216 -6.047,21.422 l 1.734,-1.782 c 1.154,-1.173 2.195,-5.36 3.75,-11.718 0.504,-2.06 1.05,-4.36 1.688,-6.844 2.581,-10.05 5.201,-45.777 5.203,-46.125 0.08,0.057 8.032,5.752 9.75,7.5 l 0.375,0.375 c 1.966,1.97 6.61,6.577 6.61,11.531 0,5.18 -4.683,19.103 -7.829,21.844 -3.151,2.745 -7.413,8.234 -8.484,11.719 -0.963,3.126 -7.926,17.63 -13.688,20.109 -0.982,0.42 -1.964,0.656 -2.906,0.656 -3.795,0 -5.95,-3.484 -6,-3.515 -0.009,0.058 -0.846,5.747 1.312,6.843 0.642,0.327 1.68,0.516 3.141,0.516 2.444,0 5.192,-0.47 5.297,-0.516 -0.18,0.114 -7,4.465 -9.984,6.844 -3.015,2.41 -2.193,6.61 -2.157,6.656 0.01,-0.02 1.14,-2.037 4.36,-5.53 3.22,-3.488 11.654,-6.612 11.718,-6.657 0,0.005 0.007,0.508 -0.421,4.219 -0.43,3.7 -5.166,5.903 -5.204,5.953 0.006,-10e-4 0.52,-0.094 1.36,-0.094 1.117,0 2.821,0.206 4.687,1.219 2.277,1.236 1.366,5.536 0.47,9.703 -0.377,1.749 -0.763,3.546 -0.892,5.062 -0.429,5.012 -9.046,6.849 -9.14,6.891 0.022,0.02 2.242,2.016 4.594,2.016 0.216,0 0.437,-0.01 0.656,-0.047 2.584,-0.435 6.455,-5.896 6.469,-5.953 0.009,0.018 0.897,1.847 0.468,9.047 -0.42,7.059 -5.863,12.75 -10.453,13.453 -0.2,0.028 -0.341,0.046 -0.515,0.046 -0.732,0 -1.339,-0.241 -1.735,-0.75 -1.278,-1.644 -0.311,-5.433 -0.328,-5.484 -0.018,0.021 -1.781,2.018 -1.781,5.297 0,1.24 0.493,2.194 1.406,2.766 0.786,0.492 1.946,0.703 3.422,0.703 0.652,0 1.36,-0.045 2.156,-0.14 3.66,-0.436 11.248,-9.596 11.297,-9.657 v 2.578 c 0,1.401 0.706,3.207 1.781,4.547 0.954,1.186 2.619,2.578 5.203,2.578 0.209,0 0.44,-0.027 0.657,-0.047 4.951,-0.435 5.83,-4.586 5.812,-4.64 -0.024,0.03 -2.446,3.14 -6,3.14 -0.595,0 -1.19,-0.11 -1.781,-0.281 -4.497,-1.305 -0.482,-15.515 -0.469,-15.656 0.021,0.04 2.189,4.236 4.125,6.422 0.52,0.586 1.155,0.89 1.875,0.89 1.505,0 2.941,-1.323 2.953,-1.36 -0.057,-0.038 -5.626,-4.068 -4.125,-10.827 1.502,-6.768 12.246,-18.853 12.328,-18.985 0,0.02 0.023,2.024 -1.265,5.297 -1.376,3.494 -0.535,7.875 1.922,9.75 a 6.794,6.794 0 0 0 4.172,1.407 c 0.664,0 1.069,-0.113 1.078,-0.141 -0.054,-0.039 -5.418,-3.75 -5.203,-6.797 0.211,-3.004 6.736,-13.965 12.796,-23.203 5.585,-8.514 13.4,-15.156 13.454,-15.234 0,0.005 0.028,0.444 -0.188,2.625 -0.216,2.188 0.852,4.39 0.89,4.406 0,-0.083 0.065,-8.378 6.282,-9.469 0.793,-0.14 1.456,-0.187 2.016,-0.187 2.275,0 2.486,1.123 2.765,2.671 0.17,0.948 0.354,2.015 1.078,3.047 2.108,2.997 3.46,9.82 3.235,13.688 -0.213,3.705 -5.794,5.028 -5.86,5.062 0.006,0.014 0.705,1.344 3.938,1.782 0.181,0.024 0.335,0.046 0.515,0.046 3.02,0 5.763,-3.342 5.766,-3.375 0.012,0.014 1.078,1.392 1.078,4.875 0,3.602 -4.667,9.93 -9.984,10.36 -0.09,0.007 -0.148,0 -0.235,0 -2.431,0 -3.262,-2.88 -4.125,-5.953 -0.958,-3.416 -1.966,-6.974 -5.203,-7.313 a 13.728,13.728 0 0 0 -1.406,-0.047 c -6.432,0 -16.588,3.997 -19.031,12.891 -0.846,3.08 -0.358,5.83 1.453,8.203 2.794,3.668 7.936,5.344 11.531,5.344 0.402,0 0.806,-0.006 1.172,-0.047 1.628,-0.183 2.846,-0.834 3.61,-1.922 1.47,-2.09 0.739,-5.171 0.703,-5.203 l -0.844,2.672 c -0.365,1.117 -1.508,1.734 -3.188,1.734 -2.11,0 -4.796,-0.984 -7.218,-2.625 -1.16,-0.786 -1.803,-1.758 -1.875,-2.86 -0.162,-2.453 2.476,-4.803 2.484,-4.827 0,0 2.173,1.764 4.781,3.75 0.645,0.492 1.384,0.75 2.203,0.75 1.928,0 3.69,-1.413 3.657,-1.453 h -2.579 c -1.282,0 -1.968,-1.123 -1.968,-2.157 0,-1.23 0.933,-2.437 3.047,-2.437 2.03,0 2.766,1.062 3.796,2.578 1.041,1.533 2.335,3.464 5.532,4.922 1.08,0.492 2.218,0.75 3.375,0.75 4.768,-0.001 8.564,-4.266 8.578,-4.313 0.007,0.018 0.218,0.54 -0.422,4.875 -0.615,4.176 -3.736,9.333 -7.594,12.563 -1.584,1.326 -3.482,2.11 -5.203,2.11 -2.03,0 -3.358,-1.077 -3.469,-2.766 -0.033,-0.498 0.09,-0.913 0.422,-1.266 0.959,-1.021 3.23,-1.219 4.969,-1.219 1.08,0 1.966,0.047 2.156,0.047 -0.126,-0.096 -3.738,-2.812 -6.937,-2.812 -1.023,0 -1.864,0.299 -2.578,0.843 -1.517,1.157 -2.339,2.985 -2.25,5.016 0.117,2.697 1.712,5.226 4.406,6.937 1.14,0.726 2.492,1.079 4.031,1.079 4.422,0 8.978,-3.048 9,-3.094 -0.006,0.033 -0.7,3.333 -3.703,5.297 -2.205,1.44 -5.792,2.25 -10.125,2.25 -1.415,0 -2.893,-0.118 -4.406,-0.282 a 28.405,28.405 0 0 0 -3.14,-0.187 c -3.289,0 -4.115,1.078 -6,3.516 -1.337,1.73 -2.863,2.109 -3.892,2.109 -1.378,0 -2.47,-0.634 -3.046,-1.219 -1.28,-1.303 1.899,-5.884 1.921,-5.953 h -0.14 c -0.545,0 -1.995,0.13 -3.75,1.734 -2.156,1.97 -1.332,5.322 -1.453,5.344 -0.482,0 -1.767,-0.18 -3.516,-1.781 -0.6,-0.55 -1.58,-0.844 -2.812,-0.844 -2.843,0 -6.525,1.581 -7.453,3.938 -1.293,3.286 2.565,5.531 2.625,5.531 -0.014,-0.02 -1.27,-2.013 0.656,-5.063 0.654,-1.032 1.11,-1.5 1.453,-1.5 0.322,0 0.544,0.404 0.89,0.938 0.322,0.495 0.748,1.089 1.36,1.64 1.936,1.75 8.194,4.864 8.25,4.876 -0.007,0.02 -0.722,1.77 -3.938,2.859 -3.373,1.144 -8.465,7.223 -9.093,11.906 -0.261,1.944 0.564,4.247 2.343,6.281 2.655,3.036 6.749,4.83 10.875,4.829 0.375,0 0.741,-0.016 1.125,-0.047 2.967,-0.231 5.025,-1.123 6.094,-2.672 1.268,-1.832 0.641,-3.957 0.61,-3.984 a 27.098,27.098 0 0 0 -1.922,2.906 c -0.753,1.34 -2.042,1.828 -4.875,1.828 -0.557,0 -1.185,-0.06 -1.875,-0.094 -4.283,-0.217 -4.35,-3.033 -4.36,-3.047 a 17.892,17.892 0 0 1 3.703,-0.422 c 1.947,0 2.414,-2.867 2.391,-2.906 -0.007,0.01 -0.668,0.89 -3.234,0.89 -0.626,0 -1.086,-0.222 -1.313,-0.609 -0.6,-1.024 0.186,-3.443 2.39,-7.359 1.02,-1.815 3.819,-2.719 8.345,-2.719 3.961,0 7.85,0.75 7.921,0.75 l -0.421,4.64 c -0.171,1.813 -0.848,2.72 -2.016,2.72 -1.02,0 -2.06,-0.75 -2.11,-0.75 0.01,0.009 0.236,0.268 3.891,2.671 0.797,0.522 1.564,0.797 2.203,0.797 1.827,0 2.379,-2.177 2.39,-2.343 l 0.188,3.515 c 0.215,3.474 -4.491,3.953 -4.546,3.985 l 1.546,1.125 c 0.84,0.61 2.23,0.984 3.563,0.984 1.273,0 2.316,-0.335 2.953,-0.984 1.446,-1.473 2.16,-3.942 2.39,-8.204 0.218,-3.95 1.536,-6.389 4.36,-8.156 2.795,-1.75 13.135,-11.155 13.219,-11.25 0.009,0.01 0.232,0.279 0.656,3.516 a 7.902,7.902 0 0 1 0,2.203 c 1.42,-0.82 4.113,-1.103 4.125,-1.125 l -0.844,2.672 a 26.413,26.413 0 0 0 -0.468,1.547 c -0.551,2.094 -1.038,3.934 -3.47,4.64 a 2.352,2.352 0 0 1 -0.655,0.094 c -2.651,0 -4.507,-4.682 -4.547,-4.734 -0.02,0.013 -1.97,1.36 -1.97,5.297 0,1.404 0.651,2.409 1.97,3 1.08,0.483 2.35,0.562 3,0.562 0.235,0 0.416,0.018 0.468,0 l -1.312,1.078 c -0.291,0.246 -0.967,0.582 -1.828,1.032 -3.026,1.585 -8.625,4.522 -10.313,9.328 -1.123,3.198 -0.926,6.405 0.61,8.718 1.038,1.563 2.576,2.484 4.172,2.579 0.103,0.006 0.223,0 0.328,0 3.607,0 8.124,-3.501 8.156,-3.563 -0.026,0.009 -2.642,0.844 -4.734,0.844 -1.754,0 -2.672,-0.542 -2.672,-1.688 0,-3.264 4.08,-3.298 4.125,-3.328 -0.029,-0.009 -2.864,-0.951 -3.422,-2.484 -0.174,-0.482 -0.122,-1.008 0.187,-1.5 0.88,-1.404 3.446,-1.688 5.438,-1.688 1.43,0 2.58,0.173 2.578,0.188 v 1.734 c 0,1.75 2.34,5.037 2.39,5.063 0,-0.006 0.055,-0.67 1.126,-3.282 0.373,-0.907 0.776,-1.406 1.265,-1.406 0.594,0 1.077,0.723 1.078,0.75 v 1.735 c 0,1.734 -1.612,3.865 -5.625,8.625 -3.528,4.179 -12.377,9.562 -16.922,9.562 a 3.57,3.57 0 0 1 -1.546,-0.328 c -1.028,-0.494 -1.781,-0.703 -2.438,-0.703 -0.447,0 -0.833,0.126 -1.219,0.234 -0.457,0.13 -0.977,0.281 -1.734,0.281 -0.536,0 -1.097,-0.087 -1.781,-0.234 -0.831,-0.178 -1.409,-0.618 -1.688,-1.266 -0.903,-2.101 1.446,-5.985 1.453,-6.046 -0.033,0.009 -3.281,0.932 -3.281,4.218 0,2.237 -1.28,3.797 -3.094,3.797 -0.999,0 -2.094,-0.456 -3.187,-1.36 -1.284,-1.058 -1.854,-2.702 -1.64,-4.64 0.323,-2.944 2.362,-5.867 5.109,-7.265 0.661,-0.336 1.346,-0.516 2.015,-0.516 3.665,0 6.227,5.113 6.281,5.156 -0.01,-0.102 -1.177,-10.204 -8.062,-11.953 a 10.106,10.106 0 0 0 -2.484,-0.328 c -6.23,0 -10.366,6.097 -11.86,8.719 -2.367,4.158 2.943,15.788 3,15.89 -3.537,4.379 -5.081,9.246 -5.39,16.782 0,0 -0.851,0.046 -2.063,0.046 -2.664,0 -7.342,-0.216 -9,-1.593 -0.633,-0.527 -1.915,-0.797 -3.656,-0.797 -4.176,0 -10.076,1.664 -11.156,3.703 -0.807,1.524 -2.483,1.828 -3.75,1.828 -1.205,0 -2.254,-0.281 -2.344,-0.281 0.006,0.009 0.662,0.922 1.734,2.015 0.264,0.269 0.651,0.375 1.125,0.375 1.172,0 2.583,-0.831 2.578,-0.843 0.01,0.01 0.21,0.308 0.422,3.328 0.038,0.53 -0.118,0.978 -0.515,1.406 -0.764,0.817 -2.328,1.36 -3.938,1.36 -1.501,0 -3.253,-0.513 -3.75,-1.923 -0.328,-0.934 -0.318,-1.736 0.047,-2.39 0.585,-1.047 1.864,-1.328 1.875,-1.36 h -0.516 c -0.808,0 -2.337,0.104 -3.422,0.891 -0.532,0.386 -0.76,1.146 -0.656,2.11 0.18,1.652 1.496,4.088 4.594,5.437 0.927,0.403 2.067,0.61 3.375,0.61 4.215,0 9.007,-2.133 9,-2.157 0.012,0.021 0.115,0.331 1.078,4.828 0.321,1.5 0.013,2.914 -0.89,4.031 -1.235,1.527 -3.297,2.204 -4.782,2.204 -0.768,0 -1.433,-0.2 -1.922,-0.516 -0.426,-0.276 -0.643,-0.6 -0.656,-1.031 -0.051,-1.674 3.023,-3.982 3.047,-4.032 0,0 -0.422,-0.046 -1.125,-0.046 -1.536,0 -4.385,0.21 -6.047,1.593 -1.103,0.915 -1.537,3.101 -1.031,5.297 0.702,3.042 2.881,5.282 5.812,6 0.578,0.141 1.18,0.235 1.781,0.235 6.057,0 11.373,-7.035 12.375,-8.438 0.375,-0.523 0.872,-0.75 1.5,-0.75 0.924,0 1.986,0.554 3.141,1.125 1.212,0.6 2.49,1.219 3.61,1.219 2.807,0 3.486,-4.859 3.468,-4.922 -0.025,0.02 -2.546,2.11 -4.734,2.11 -0.506,0 -0.967,-0.111 -1.36,-0.329 -0.672,-0.372 -0.991,-0.74 -0.984,-1.125 0.015,-0.77 1.35,-1.467 2.531,-2.062 l 0.188,-0.094 c 1.711,-0.867 2.63,-8.414 2.625,-8.625 0.007,0.037 0.102,0.24 1.734,0.656 0.324,0.083 0.911,0.14 1.735,0.14 3.024,0 8.445,-0.58 8.484,-0.609 -0.01,0.023 -1.093,2.25 0.844,5.532 1.042,1.765 2.855,2.156 4.172,2.156 1.308,0 2.377,-0.344 2.39,-0.375 -0.042,-0.026 -4.31,-2.49 -2.812,-5.531 0.906,-1.844 10.648,-6.163 19.265,-9.985 5.807,-2.575 11.301,-4.993 13.313,-6.328 4.942,-3.276 15.53,-21.928 15.61,-22.125 -0.017,0.134 -1.533,13.54 -2.391,17.25 -0.875,3.777 -4.367,9.724 -8.438,10.594 -0.417,0.09 -0.845,0.094 -1.219,0.094 -3.016,0 -3.53,-2.917 -3.562,-2.953 -0.023,0.03 -2.184,3.107 -0.89,5.953 0.698,1.54 2.137,1.875 3.234,1.875 1.048,0 1.94,-0.297 1.968,-0.328 -0.027,0.082 -0.897,2.661 -3.656,4.171 -0.772,0.423 -1.48,0.944 -2.156,1.454 -1.526,1.15 -2.974,2.25 -5.203,2.25 -0.495,0 -1.009,-0.078 -1.547,-0.188 a 11.22,11.22 0 0 0 -2.25,-0.234 c -1.934,0 -3,0.779 -4.36,1.734 -0.438,0.308 -0.91,0.599 -1.453,0.938 -0.424,0.267 -0.868,0.421 -1.312,0.421 -2.178,0 -3.893,-3.25 -3.938,-3.28 -0.003,0.023 -0.422,2.452 0.657,3.984 0.85,1.212 2.125,1.359 2.625,1.359 -0.15,0.025 -0.356,0.047 -0.938,0.047 -0.546,0 -1.373,-0.02 -2.531,-0.094 -3.43,-0.219 -5.809,-3.725 -5.86,-3.75 0.003,0.036 0.23,3.834 1.735,8.203 1.408,4.086 6.374,4.406 7.078,4.406 -0.346,0.075 -6.2,1.308 -11.438,1.735 -5.289,0.427 -10.342,5.565 -12.609,10.406 -0.672,1.431 -0.676,3.03 0,4.781 1.266,3.282 4.557,6.157 6.984,7.172 0.551,0.23 1.11,0.328 1.735,0.328 1.746,0 3.725,-0.898 5.11,-2.39 0.988,-1.067 1.48,-2.242 1.405,-3.235 -0.15,-1.99 -2.46,-2.297 -3.843,-2.297 -0.66,0 -1.163,0.069 -1.172,0.094 l 2.156,2.203 c 0.418,0.426 0.54,0.9 0.328,1.406 -0.43,1.028 -2.015,1.828 -3.61,1.828 -0.919,0 -2.587,-0.267 -3.609,-2.156 -0.757,-1.4 -0.694,-2.927 0.188,-4.406 1.411,-2.367 4.76,-4.219 7.64,-4.219 0.209,0 0.407,0.028 0.61,0.047 0.712,0.069 1.539,0.094 2.437,0.094 4.106,0 8.829,-0.728 9.094,-0.797 -0.174,0.061 -2.283,0.843 -3.234,3 -0.804,1.82 -0.588,4.09 0.61,6.75 2.003,4.455 5.235,5.39 7.593,5.39 1.747,0 3.083,-0.529 3.094,-0.562 -0.021,-0.005 -2.069,-0.492 -2.954,-2.11 -0.516,-0.943 -0.539,-2.08 -0.093,-3.374 0.631,-1.832 1.823,-2.86 3.328,-2.86 1.327,0 2.766,0.851 3.375,1.969 0.37,0.678 0.951,1.031 1.734,1.031 0.995,0 1.96,-0.578 1.969,-0.61 -0.015,-0.008 -1.5,-0.903 -1.5,-3.515 0,-1.537 2.05,-2.496 4.406,-3.61 1.7,-0.803 3.617,-1.71 5.156,-3 3.656,-3.058 7.58,-17.996 7.594,-18.14 0.015,0.017 1.506,1.555 2.578,2.86 0.705,0.86 -0.032,3.41 -0.843,6.093 -0.425,1.401 -0.854,2.853 -1.079,4.078 -0.217,1.18 -0.234,2.188 -0.234,3.282 0,2.137 0.003,4.35 -1.734,7.734 -1.59,3.098 -4.556,3.75 -6.75,3.75 -1.206,0 -2.077,-0.187 -2.157,-0.187 0.002,0.016 0.227,1.809 1.735,3.562 0.576,0.668 1.455,0.984 2.625,0.984 1.13,0 2.141,-0.348 2.156,-0.375 -0.007,0.053 -0.312,2.232 -5.203,3.094 a 5.402,5.402 0 0 1 -0.89,0.094 c -4.243,0 -5.63,-5.987 -5.673,-6.047 l -0.421,2.438 c -0.422,2.36 3.864,8.586 7.406,9.937 0.315,0.119 0.702,0.188 1.125,0.188 1.776,0 4.983,-1.292 7.969,-2.766 -0.205,0.722 -0.329,1.61 -0.329,2.672 0,4.501 -6.28,4.828 -8.203,4.828 h -0.28 c -0.12,0 -0.23,0.029 -0.235,0.047 l 3.047,1.734 c 0.738,0.43 1.694,0.656 2.765,0.656 2.607,0 5.288,-1.296 5.297,-1.312 l 2.578,3.094 c 2.573,3.05 1.975,8.105 1.969,8.156 l 1.781,-2.016 c 1.722,-1.97 3.476,-10.748 3.469,-10.828 0.021,0.02 2.16,2.031 4.312,2.25 0.068,0.007 0.166,0 0.235,0 2.161,0 5.422,-3.318 5.437,-3.375 -0.012,0.007 -1.093,0.676 -2.812,1.547 -0.267,0.137 -0.568,0.234 -0.844,0.234 -1.417,0 -2.86,-1.88 -2.86,-5.484 0,-0.438 -0.062,-0.885 -0.187,-1.312 2.362,1.054 4.653,1.875 6.047,1.875 0.423,0 0.81,-0.07 1.125,-0.188 3.542,-1.351 7.828,-7.576 7.406,-9.937 l -0.422,-2.438 c -0.042,0.06 -1.43,6.047 -5.671,6.047 -0.278,0 -0.588,-0.041 -0.891,-0.094 -4.892,-0.862 -5.196,-3.041 -5.203,-3.094 0.015,0.027 1.025,0.375 2.156,0.375 1.17,0 2.05,-0.316 2.625,-0.984 1.508,-1.753 1.733,-3.546 1.734,-3.562 -0.079,0 -0.95,0.187 -2.156,0.187 -2.194,0 -5.16,-0.652 -6.75,-3.75 -1.737,-3.384 -1.734,-5.597 -1.734,-7.734 0,-1.094 -0.017,-2.103 -0.235,-3.282 -0.225,-1.225 -0.653,-2.677 -1.078,-4.078 -0.811,-2.683 -1.548,-5.232 -0.843,-6.093 1.072,-1.305 2.563,-2.843 2.578,-2.86 0.013,0.144 3.938,15.082 7.593,18.14 1.54,1.29 3.457,2.197 5.157,3 2.356,1.114 4.406,2.073 4.406,3.61 0,2.612 -1.485,3.507 -1.5,3.516 0.009,0.031 0.974,0.61 1.969,0.61 0.783,0 1.364,-0.354 1.734,-1.032 0.61,-1.118 2.048,-1.969 3.375,-1.969 1.505,0 2.697,1.028 3.328,2.86 0.446,1.294 0.422,2.431 -0.094,3.375 -0.885,1.617 -2.932,2.104 -2.953,2.109 0.01,0.033 1.347,0.562 3.094,0.562 2.358,0 5.59,-0.935 7.594,-5.39 1.197,-2.66 1.413,-4.93 0.61,-6.75 -0.952,-2.157 -3.061,-2.939 -3.235,-3 0.265,0.069 4.988,0.797 9.094,0.797 0.898,0 1.725,-0.025 2.437,-0.094 0.203,-0.02 0.4,-0.047 0.61,-0.047 2.88,0 6.229,1.852 7.64,4.219 0.882,1.479 0.945,3.005 0.188,4.406 -1.022,1.889 -2.69,2.156 -3.61,2.156 -1.594,0 -3.179,-0.8 -3.61,-1.828 -0.21,-0.507 -0.09,-0.98 0.329,-1.406 l 2.156,-2.203 c -0.009,-0.026 -0.512,-0.094 -1.172,-0.094 -1.383,0 -3.693,0.306 -3.843,2.297 -0.075,0.993 0.417,2.168 1.406,3.234 1.384,1.493 3.363,2.39 5.11,2.39 a 4.38,4.38 0 0 0 1.734,-0.327 c 2.427,-1.016 5.718,-3.89 6.984,-7.172 0.676,-1.752 0.672,-3.35 0,-4.781 -2.267,-4.84 -7.32,-9.98 -12.61,-10.407 -5.238,-0.427 -11.091,-1.66 -11.437,-1.734 0.704,0 5.67,-0.32 7.078,-4.406 1.505,-4.37 1.732,-8.167 1.735,-8.203 -0.051,0.025 -2.43,3.53 -5.86,3.75 a 40.728,40.728 0 0 1 -2.531,0.093 c -0.582,0 -0.788,-0.021 -0.938,-0.046 0.5,0 1.775,-0.148 2.625,-1.36 1.079,-1.531 0.66,-3.96 0.657,-3.984 -0.045,0.03 -1.76,3.281 -3.938,3.281 -0.444,0 -0.888,-0.155 -1.312,-0.422 -0.543,-0.339 -1.015,-0.63 -1.453,-0.937 -1.36,-0.956 -2.426,-1.735 -4.36,-1.735 -0.657,0 -1.4,0.062 -2.25,0.235 -0.538,0.11 -1.052,0.187 -1.547,0.187 -2.229,0 -3.677,-1.1 -5.203,-2.25 -0.676,-0.51 -1.384,-1.03 -2.156,-1.453 -2.759,-1.51 -3.63,-4.09 -3.656,-4.172 0.028,0.032 0.92,0.328 1.968,0.328 1.097,0 2.536,-0.334 3.235,-1.875 1.293,-2.845 -0.868,-5.923 -0.89,-5.953 -0.032,0.036 -0.547,2.953 -3.563,2.953 -0.374,0 -0.802,-0.003 -1.22,-0.093 -4.07,-0.87 -7.562,-6.817 -8.437,-10.594 -0.858,-3.71 -2.374,-17.117 -2.39,-17.25 0.08,0.196 10.667,18.849 15.61,22.125 2.01,1.335 7.505,3.752 13.312,6.328 8.617,3.822 18.36,8.14 19.265,9.984 1.499,3.042 -2.77,5.506 -2.812,5.532 0.013,0.031 1.082,0.375 2.39,0.375 1.317,0 3.13,-0.391 4.172,-2.157 1.937,-3.282 0.855,-5.508 0.844,-5.53 0.039,0.028 5.46,0.608 8.484,0.608 0.824,0 1.41,-0.058 1.735,-0.14 1.632,-0.416 1.727,-0.619 1.734,-0.656 -0.005,0.211 0.914,7.758 2.625,8.625 l 0.188,0.093 c 1.18,0.596 2.516,1.292 2.53,2.063 0.009,0.385 -0.311,0.753 -0.983,1.125 a 2.783,2.783 0 0 1 -1.36,0.328 c -2.188,0 -4.709,-2.09 -4.734,-2.11 -0.018,0.064 0.66,4.923 3.469,4.923 1.119,0 2.397,-0.62 3.609,-1.22 1.155,-0.57 2.217,-1.124 3.14,-1.124 0.629,0 1.126,0.226 1.5,0.75 1.003,1.402 6.319,8.437 12.376,8.437 0.601,0 1.203,-0.093 1.78,-0.234 2.932,-0.719 5.111,-2.958 5.813,-6 0.506,-2.196 0.071,-4.382 -1.031,-5.297 -1.662,-1.383 -4.51,-1.594 -6.047,-1.594 -0.703,0 -1.125,0.047 -1.125,0.047 0.024,0.05 3.098,2.357 3.047,4.031 -0.013,0.432 -0.23,0.756 -0.656,1.032 -0.49,0.316 -1.154,0.515 -1.922,0.515 -1.485,0 -3.547,-0.676 -4.781,-2.203 -0.905,-1.117 -1.212,-2.531 -0.891,-4.031 0.963,-4.497 1.066,-4.807 1.078,-4.828 -0.008,0.024 4.785,2.156 9,2.156 1.308,0 2.448,-0.206 3.375,-0.61 3.098,-1.348 4.414,-3.784 4.594,-5.437 0.105,-0.963 -0.124,-1.724 -0.656,-2.11 -1.085,-0.787 -2.614,-0.89 -3.422,-0.89 h -0.516 c 0.01,0.032 1.29,0.312 1.875,1.36 0.365,0.653 0.376,1.456 0.047,2.39 -0.497,1.41 -2.249,1.922 -3.75,1.922 -1.61,0 -3.174,-0.542 -3.938,-1.36 -0.397,-0.427 -0.553,-0.876 -0.515,-1.406 0.213,-3.02 0.413,-3.317 0.422,-3.328 -0.005,0.012 1.406,0.844 2.578,0.844 0.474,0 0.86,-0.107 1.125,-0.375 a 19.078,19.078 0 0 0 1.734,-2.016 c -0.09,0 -1.14,0.282 -2.344,0.282 -1.267,0 -2.943,-0.305 -3.75,-1.829 -1.08,-2.038 -6.98,-3.703 -11.156,-3.703 -1.741,0 -3.023,0.27 -3.656,0.797 -1.658,1.377 -6.336,1.594 -9,1.594 -1.212,0 -2.063,-0.047 -2.063,-0.047 -0.309,-7.536 -1.853,-12.403 -5.39,-16.781 0.057,-0.102 5.367,-11.733 3,-15.89 -1.494,-2.623 -5.63,-8.72 -11.86,-8.72 -0.819,0 -1.651,0.117 -2.484,0.329 -6.885,1.749 -8.052,11.85 -8.062,11.953 0.054,-0.044 2.616,-5.156 6.28,-5.156 0.67,0 1.355,0.18 2.016,0.515 2.747,1.398 4.786,4.321 5.11,7.266 0.213,1.938 -0.357,3.581 -1.64,4.64 -1.094,0.903 -2.19,1.36 -3.188,1.36 -1.814,0 -3.094,-1.56 -3.094,-3.797 0,-3.287 -3.248,-4.21 -3.281,-4.219 0.007,0.062 2.356,3.946 1.453,6.047 -0.28,0.648 -0.857,1.087 -1.688,1.266 -0.684,0.147 -1.245,0.234 -1.78,0.234 -0.758,0 -1.278,-0.152 -1.735,-0.281 -0.386,-0.108 -0.772,-0.235 -1.22,-0.235 -0.656,0 -1.41,0.21 -2.437,0.704 a 3.57,3.57 0 0 1 -1.546,0.328 c -4.545,0 -13.394,-5.384 -16.922,-9.563 -4.013,-4.76 -5.625,-6.89 -5.625,-8.625 v -1.734 c 0,-0.027 0.484,-0.75 1.078,-0.75 0.489,0 0.892,0.499 1.265,1.406 1.071,2.612 1.125,3.275 1.125,3.281 0.051,-0.025 2.391,-3.312 2.391,-5.062 v -1.735 c -0.002,-0.015 1.147,-0.187 2.578,-0.187 1.992,0 4.557,0.283 5.438,1.687 0.309,0.492 0.361,1.019 0.187,1.5 -0.558,1.533 -3.393,2.476 -3.422,2.485 0.045,0.03 4.125,0.064 4.125,3.328 0,1.146 -0.918,1.687 -2.672,1.687 -2.092,0 -4.708,-0.834 -4.734,-0.843 0.032,0.061 4.549,3.562 8.156,3.562 0.105,0 0.225,0.006 0.328,0 1.596,-0.094 3.134,-1.015 4.172,-2.578 1.536,-2.313 1.733,-5.52 0.61,-8.719 -1.688,-4.806 -7.287,-7.742 -10.313,-9.328 -0.86,-0.45 -1.537,-0.785 -1.828,-1.031 l -1.312,-1.078 c 0.052,0.018 0.233,0 0.468,0 0.65,0 1.92,-0.08 3,-0.563 1.319,-0.59 1.97,-1.596 1.97,-3 0,-3.937 -1.95,-5.283 -1.97,-5.297 -0.04,0.053 -1.896,4.735 -4.547,4.735 -0.219,0 -0.438,-0.03 -0.656,-0.094 -2.431,-0.706 -2.918,-2.547 -3.469,-4.64 a 26.413,26.413 0 0 0 -0.468,-1.547 l -0.844,-2.672 c 0.012,0.022 2.704,0.304 4.125,1.125 a 7.903,7.903 0 0 1 0,-2.203 c 0.424,-3.237 0.647,-3.506 0.656,-3.516 0.084,0.094 10.424,9.5 13.219,11.25 2.824,1.767 4.142,4.205 4.36,8.156 0.23,4.262 0.944,6.73 2.39,8.203 0.637,0.65 1.68,0.985 2.953,0.985 1.332,0 2.723,-0.374 3.563,-0.985 l 1.546,-1.125 c -0.055,-0.031 -4.76,-0.51 -4.546,-3.984 l 0.187,-3.516 c 0.012,0.167 0.564,2.344 2.39,2.344 0.64,0 1.407,-0.275 2.204,-0.797 3.655,-2.403 3.881,-2.663 3.89,-2.672 -0.049,0 -1.089,0.75 -2.109,0.75 -1.168,0 -1.845,-0.906 -2.016,-2.718 l -0.421,-4.641 c 0.07,0 3.96,-0.75 7.921,-0.75 4.526,0 7.326,0.904 8.344,2.719 2.205,3.916 2.99,6.335 2.39,7.359 -0.226,0.387 -0.686,0.61 -1.312,0.61 -2.566,0 -3.227,-0.882 -3.234,-0.891 -0.023,0.039 0.444,2.906 2.39,2.906 1.933,0 3.686,0.417 3.704,0.422 -0.01,0.013 -0.077,2.83 -4.36,3.047 -0.69,0.034 -1.318,0.094 -1.875,0.094 -2.833,0 -4.122,-0.488 -4.875,-1.829 a 27.097,27.097 0 0 0 -1.922,-2.906 c -0.031,0.027 -0.658,2.153 0.61,3.985 1.07,1.55 3.127,2.44 6.094,2.671 0.384,0.032 0.75,0.047 1.125,0.047 4.126,10e-4 8.22,-1.792 10.875,-4.828 1.779,-2.034 2.604,-4.337 2.343,-6.281 -0.628,-4.683 -5.72,-10.762 -9.093,-11.906 -3.216,-1.09 -3.93,-2.84 -3.938,-2.86 0.056,-0.012 6.314,-3.126 8.25,-4.875 0.612,-0.552 1.038,-1.145 1.36,-1.64 0.346,-0.534 0.568,-0.938 0.89,-0.938 0.344,0 0.8,0.468 1.453,1.5 1.926,3.05 0.67,5.043 0.656,5.063 0.06,0 3.918,-2.245 2.625,-5.532 -0.928,-2.356 -4.61,-3.937 -7.453,-3.937 -1.231,0 -2.212,0.293 -2.812,0.844 -1.75,1.6 -3.034,1.78 -3.516,1.78 -0.121,-0.022 0.703,-3.373 -1.453,-5.343 -1.755,-1.603 -3.205,-1.734 -3.75,-1.734 h -0.14 c 0.022,0.069 3.2,4.65 1.921,5.953 -0.576,0.585 -1.668,1.219 -3.046,1.219 -1.03,0 -2.555,-0.379 -3.891,-2.11 -1.886,-2.437 -2.712,-3.515 -6,-3.515 -0.836,0 -1.845,0.045 -3.14,0.187 -1.514,0.164 -2.992,0.281 -4.407,0.281 -4.333,0 -7.92,-0.81 -10.125,-2.25 -3.003,-1.963 -3.697,-5.264 -3.703,-5.297 0.022,0.047 4.578,3.094 9,3.094 1.539,0 2.891,-0.352 4.031,-1.078 2.694,-1.711 4.29,-4.24 4.406,-6.937 0.089,-2.031 -0.733,-3.86 -2.25,-5.016 -0.714,-0.545 -1.555,-0.844 -2.578,-0.844 -3.199,0 -6.811,2.717 -6.937,2.813 0.19,0 1.076,-0.047 2.156,-0.047 1.739,0 4.01,0.197 4.969,1.219 0.331,0.352 0.455,0.767 0.422,1.265 -0.111,1.69 -1.44,2.766 -3.47,2.766 -1.72,0 -3.618,-0.783 -5.202,-2.11 -3.858,-3.229 -6.979,-8.386 -7.594,-12.562 -0.64,-4.335 -0.43,-4.857 -0.422,-4.875 0.014,0.047 3.81,4.311 8.578,4.313 a 8.112,8.112 0 0 0 3.375,-0.75 c 3.197,-1.458 4.49,-3.39 5.532,-4.922 1.03,-1.517 1.767,-2.578 3.796,-2.578 2.114,0 3.047,1.207 3.047,2.437 0,1.034 -0.686,2.156 -1.968,2.156 h -2.579 c -0.033,0.04 1.73,1.453 3.657,1.453 0.819,0 1.558,-0.258 2.203,-0.75 2.608,-1.986 4.781,-3.75 4.781,-3.75 0.007,0.024 2.646,2.375 2.484,4.829 -0.072,1.1 -0.715,2.073 -1.875,2.859 -2.422,1.64 -5.108,2.625 -7.218,2.625 -1.68,0 -2.823,-0.617 -3.188,-1.734 l -0.844,-2.672 c -0.036,0.031 -0.766,3.113 0.704,5.203 0.763,1.087 1.981,1.739 3.609,1.922 0.366,0.04 0.77,0.046 1.172,0.046 3.595,0 8.737,-1.676 11.531,-5.343 1.81,-2.373 2.3,-5.124 1.453,-8.203 -2.443,-8.894 -12.599,-12.891 -19.031,-12.891 -0.495,0 -0.96,0 -1.406,0.047 -3.237,0.339 -4.245,3.897 -5.203,7.312 -0.863,3.074 -1.694,5.953 -4.125,5.953 -0.087,0 -0.145,0.007 -0.235,0 -5.317,-0.43 -9.984,-6.757 -9.984,-10.359 0,-3.483 1.066,-4.861 1.078,-4.875 0.003,0.033 2.746,3.374 5.766,3.375 0.18,0 0.334,-0.023 0.515,-0.047 3.233,-0.438 3.932,-1.768 3.938,-1.781 -0.066,-0.035 -5.647,-1.357 -5.86,-5.063 -0.225,-3.867 1.127,-10.69 3.235,-13.687 0.724,-1.032 0.908,-2.099 1.078,-3.047 0.279,-1.548 0.49,-2.672 2.765,-2.672 0.56,0 1.223,0.048 2.016,0.188 6.218,1.09 6.281,9.386 6.281,9.469 0.04,-0.017 1.107,-2.218 0.891,-4.407 -0.216,-2.18 -0.188,-2.62 -0.188,-2.625 0.054,0.078 7.87,6.72 13.454,15.235 6.06,9.238 12.585,20.198 12.796,23.203 0.215,3.046 -5.149,6.758 -5.203,6.797 0.01,0.028 0.414,0.14 1.078,0.14 1.031,0 2.62,-0.221 4.172,-1.406 2.457,-1.875 3.298,-6.257 1.922,-9.75 -1.288,-3.273 -1.265,-5.277 -1.265,-5.297 0.082,0.132 10.826,12.216 12.328,18.984 1.501,6.76 -4.068,10.79 -4.125,10.829 0.012,0.036 1.448,1.359 2.953,1.359 0.72,0 1.356,-0.304 1.875,-0.89 1.936,-2.186 4.104,-6.382 4.125,-6.423 0.013,0.141 4.028,14.352 -0.469,15.657 -0.59,0.17 -1.186,0.28 -1.781,0.28 -3.554,0 -5.976,-3.11 -6,-3.14 -0.018,0.054 0.86,4.206 5.812,4.64 0.218,0.02 0.448,0.048 0.657,0.048 2.584,0 4.249,-1.392 5.203,-2.578 1.075,-1.34 1.781,-3.146 1.781,-4.547 v -2.578 c 0.05,0.061 7.637,9.22 11.297,9.656 0.796,0.096 1.504,0.14 2.156,0.14 1.476,0 2.636,-0.21 3.422,-0.703 0.913,-0.571 1.406,-1.525 1.406,-2.765 0,-3.28 -1.763,-5.276 -1.781,-5.297 -0.017,0.05 0.95,3.84 -0.328,5.484 -0.396,0.509 -1.003,0.75 -1.735,0.75 -0.174,0 -0.316,-0.018 -0.515,-0.047 -4.59,-0.702 -10.033,-6.394 -10.453,-13.453 -0.43,-7.2 0.46,-9.029 0.468,-9.047 0.014,0.057 3.885,5.518 6.47,5.953 0.218,0.036 0.44,0.047 0.655,0.047 2.352,0 4.572,-1.996 4.594,-2.015 -0.094,-0.042 -8.711,-1.88 -9.14,-6.891 -0.13,-1.516 -0.514,-3.313 -0.891,-5.062 -0.897,-4.167 -1.808,-8.468 0.469,-9.704 1.866,-1.012 3.57,-1.218 4.687,-1.218 0.84,0 1.354,0.092 1.36,0.093 -0.038,-0.049 -4.774,-2.252 -5.203,-5.953 -0.43,-3.71 -0.422,-4.214 -0.422,-4.218 0.064,0.045 8.498,3.168 11.718,6.656 3.22,3.493 4.35,5.51 4.36,5.531 0.036,-0.046 0.858,-4.246 -2.157,-6.656 -2.985,-2.38 -9.804,-6.73 -9.984,-6.844 0.105,0.045 2.854,0.516 5.297,0.516 1.461,0 2.499,-0.189 3.14,-0.516 2.16,-1.096 1.322,-6.785 1.313,-6.844 -0.05,0.032 -2.205,3.516 -6,3.516 -0.942,0 -1.924,-0.236 -2.906,-0.656 -5.762,-2.48 -12.725,-16.984 -13.688,-20.11 -1.07,-3.484 -5.333,-8.973 -8.484,-11.718 -3.146,-2.74 -7.828,-16.665 -7.828,-21.844 0,-4.955 4.643,-9.562 6.61,-11.531 l 0.374,-0.375 c 1.718,-1.748 9.67,-7.443 9.75,-7.5 0.001,0.348 2.622,36.075 5.203,46.125 0.638,2.484 1.184,4.784 1.688,6.843 1.555,6.359 2.596,10.546 3.75,11.72 l 1.734,1.78 c -0.036,-0.205 -6.047,-19.02 -6.047,-21.422 0,-0.817 -0.356,-4.374 -0.797,-8.859 -0.867,-8.8 -2.16,-22.114 -2.015,-26.953 0.213,-7.205 2.368,-14.46 2.39,-14.531 -0.01,0.333 1.96,33.635 4.97,40.406 1.276,2.872 1.67,5.964 2.062,8.953 0.546,4.178 1.082,8.494 3.984,12.469 5.147,7.051 13.75,18.807 19.828,19.687 6.017,0.875 9.714,0.844 9.75,0.844 -0.055,-0.05 -6.082,-2.249 -6.937,-5.297 -0.861,-3.054 -1.077,-6.387 -1.078,-6.422 l 3.89,2.016 c -0.022,-0.057 -3.917,-3.4 -5.203,-7.547 -1.4,-4.501 -3.234,-11.685 -3.234,-22.078 0,-10.485 -2.367,-16.487 -2.39,-16.547 l 2.155,1.781 c -0.006,-0.202 -3.018,-18.874 -3.234,-26.953 -0.213,-8.065 1.482,-9.686 1.5,-9.703 0.08,0.677 10.471,68.601 14.766,83.672 4.297,15.067 9.696,22.94 9.75,23.016 -0.07,-0.282 -9.575,-27.225 -12.797,-46.22 -3.203,-18.872 -6.475,-43.71 -6.703,-49.218 -0.215,-5.235 1.715,-8.175 1.734,-8.203 0.037,0.303 6.47,31.05 7.547,40.875 l 1.125,9.937 c -0.003,0.01 -0.04,0.135 0,0.188 0.309,0 1.335,-1.455 3.047,-4.172 3.433,-5.446 6.252,-5.484 6.281,-5.484 -0.08,0.078 -6.746,10.23 -5.672,17.437 1.065,7.157 4.066,18.082 6.328,24.516 0.404,1.147 1,3.106 1.782,5.578 3.499,11.065 10.05,31.63 15.187,37.031 6.232,6.55 15.33,14.313 15.422,14.39 l 0.89,-7.734 c 10e-4,-0.003 0.252,-0.703 0.704,-0.703 0.35,0 0.904,0.407 1.64,2.438 1.611,4.447 6.878,12.46 10.688,15.469 2.949,2.332 9.803,5.623 15.843,5.625 1.379,0 2.616,-0.162 3.704,-0.516 4.867,-1.59 12.437,-9.617 15.468,-12.984 -0.892,0.765 -2.343,1.734 -4.359,1.734 -3.514,0 -7.393,-2.758 -11.531,-8.203 -11.301,-14.868 -26.786,-47.345 -29.11,-53.25 -2.608,-6.627 -3.703,-9.281 -3.703,-9.281 l 3.235,0.046 c -0.225,-0.636 -23.907,-61.73 -23.907,-66.75 0,-5.016 0.466,-6.36 0.47,-6.375 0.169,0.522 19.858,52.335 31.03,73.079 12.137,22.536 26.923,39.49 29.766,42.656 4.57,5.09 17.131,14.812 18.703,14.812 h 1.5 c -0.072,-0.097 -10.402,-7.145 -13.406,-10.64 -2.423,-2.81 -2.536,-5.344 -2.578,-6.703 -0.01,-0.344 -0.003,-0.617 -0.047,-0.797 -0.069,-0.285 -2.071,-2.26 -4.828,-5.016 -5.874,-5.874 -15.687,-15.74 -17.766,-19.969 a 647.686,647.686 0 0 0 -3.562,-7.078 c -4.998,-9.81 -13.393,-26.197 -17.532,-35.953 -5.365,-12.652 -18.727,-49.472 -18.89,-49.922 0.042,0.084 2.867,2.963 6.281,7.735 1.82,2.542 3.855,9.501 5.86,16.218 1.868,6.27 3.649,12.19 5.203,14.719 3.222,5.24 11.448,14.02 11.53,14.11 0.025,-0.085 -0.183,-7.352 0.891,-11.063 1.073,-3.704 1.96,-4.585 1.97,-4.594 -0.03,0.213 -0.207,22.32 3.234,26.906 l 1.593,2.157 c 2.456,3.26 3.95,5.207 5.578,7.78 0.773,1.223 1.619,2.832 2.438,4.36 1.288,2.405 2.5,4.686 3.422,5.625 1.503,1.53 6.049,7.209 6.094,7.266 0.015,-0.053 -1.086,-4.022 -0.657,-6.422 0.396,-2.214 1.708,-4.833 1.922,-5.25 -0.313,0.677 -2.797,7.247 4.36,13.688 7.383,6.648 15.399,9.234 20.437,9.468 0.198,0.01 0.401,0.047 0.61,0.047 4.69,0 12.742,-2.43 15.703,-9.094 3.012,-6.781 0.494,-9.258 0.468,-9.28 -0.039,0.041 -1.554,3.75 -5.156,3.75 -1.777,0 -3.795,-0.895 -5.953,-2.673 -8.276,-6.819 -37.73,-54.642 -46.734,-74.437 -9.49,-20.86 -20.175,-45.915 -20.391,-48.563 l -0.234,-2.672 c 0.003,0.051 3.204,4.3 17.812,29.625 19.368,33.582 34.596,53.172 48,61.64 10.775,6.805 14.616,7.782 15.938,7.782 0.753,0 0.839,-0.314 0.843,-0.328 -0.112,-0.073 -10.458,-5.755 -11.53,-6.844 -0.386,-0.393 -0.469,-1.197 -0.563,-2.11 -0.171,-1.64 -0.383,-3.644 -2.485,-4.5 a 21.842,21.842 0 0 0 -1.922,-0.655 c -3.729,-1.116 -9.958,-2.967 -16.312,-12.375 l -7.64,-11.297 c -0.24,-0.347 -23.937,-34.807 -29.954,-49.219 -1.141,-2.733 -2.222,-5.156 -3.094,-7.172 -1.77,-4.089 -2.832,-6.577 -2.625,-6.89 0.509,0 2.723,2.877 6.563,8.109 3.39,4.618 6.924,9.94 10.36,15.094 6.99,10.482 13.59,20.39 18.093,23.343 l 6.75,4.407 c 0.016,-0.038 -0.656,-2.023 -0.656,-4.641 0,-2.592 1.275,-4.355 1.312,-4.406 -0.05,0.088 -1.181,4.836 1.219,8.86 1.485,2.49 3.972,4.192 7.453,5.062 3.122,0.778 6.498,1.172 9.75,1.172 9.695,0 17.036,-3.495 19.172,-9.141 3.226,-8.523 -1.916,-16.932 -1.969,-17.016 -0.048,0.057 -2.158,5.39 -7.594,5.39 -1.977,0 -4.175,-0.72 -6.515,-2.108 -10.343,-6.131 -31.364,-28.23 -34.313,-34.22 -2.917,-5.933 -21.98,-32.955 -24.562,-35.577 -2.574,-2.618 -3.508,-5.039 -3.516,-5.063 0.209,0.252 23.315,23.73 27.61,28.969 4.359,5.316 25.26,17.667 34.125,22.5 2.778,1.515 5.646,2.297 8.53,2.297 4.402,0 7.33,-1.81 7.36,-1.828 -0.072,-0.03 -6.579,-0.25 -10.875,-1.125 -4.147,-0.843 -8.57,-4.152 -8.906,-4.407 0.054,0.015 0.215,0 0.422,0 0.82,0 2.224,-0.056 2.437,-0.609 0.096,-0.25 -0.05,-0.606 -0.468,-0.984 -0.875,-0.79 -2.903,-1.136 -5.25,-1.547 -2.915,-0.512 -6.558,-1.147 -9.329,-2.86 -4.987,-3.085 -22.588,-18.35 -27.14,-23.859 -1.734,-2.097 -4.354,-4.798 -6.844,-7.406 -4.188,-4.39 -8.124,-8.528 -8.39,-10.031 -0.428,-2.39 -0.42,-2.615 -0.422,-2.625 0.195,0.208 22.034,19.742 30.843,25.64 8.79,5.88 11.396,6.813 16.5,7.266 1.139,0.1 2.236,0.14 3.282,0.14 2.815,0 4.345,-0.37 4.359,-0.375 -0.078,-0.067 -8.034,-4.014 -8.25,-6.187 a 297.886,297.886 0 0 1 -0.234,-2.438 c 0.057,0.1 8.283,8.878 13.875,9.094 h 0.375 c 5.833,0 14.721,-5.515 16.406,-11.719 1.72,-6.336 0.667,-7.953 0.656,-7.968 -0.06,0.036 -3.764,3.75 -5.906,3.75 h -2.39 c 0.062,-0.003 4.386,-2.439 4.171,-5.72 -0.216,-3.278 -0.885,-4.209 -0.89,-4.218 -0.04,0.075 -1.314,6.938 -5.579,6.938 -0.513,0 -1.034,-0.132 -1.593,-0.329 a 65.26,65.26 0 0 1 -3.985,-1.546 c -2.143,-0.908 -3.096,-1.313 -6.234,-1.313 -4.308,0 -16.23,-8.322 -24.797,-14.578 -3.426,-2.504 -8.783,-6.767 -13.969,-10.875 -5.478,-4.34 -10.618,-8.418 -13.594,-10.547 -5.509,-3.94 -10.527,-7.324 -11.062,-7.687 1.032,0.675 18.559,11.512 33.844,18.75 12.334,5.838 20.838,8.437 27.61,8.437 1.682,0 3.256,-0.14 4.78,-0.469 7.095,-1.531 9.353,-5.26 9.375,-5.297 -0.078,0.014 -5.84,3.282 -11.859,3.282 -0.19,0 -0.372,0.007 -0.563,0 l -6.28,-0.235 c 0.1,-0.013 2.495,-1.067 2.765,-2.156 0.063,-0.258 -0.006,-0.48 -0.188,-0.703 -0.115,-0.14 -0.223,-0.188 -0.375,-0.188 -0.21,0 -0.446,0.112 -0.797,0.282 -0.781,0.376 -2.098,0.984 -4.5,0.984 -3.295,0 -7.657,-1.174 -12.984,-3.516 -15.874,-6.976 -39.677,-21.653 -39.984,-21.843 0.252,0.151 19.86,9.288 27.797,10.593 4.155,0.686 7.995,0.844 10.5,0.844 2.713,0 4.483,-0.184 4.5,-0.187 l -2.438,-1.547 c 1.36,0.66 2.849,0.985 4.36,0.985 2.092,0 4.206,-0.597 6.327,-1.828 6.054,-3.516 12.854,-9.15 10.875,-15.938 -1.72,-5.901 -5.634,-9.015 -5.671,-9.047 -0.062,0.113 -3.88,10.5 -13.36,10.5 -1.021,0 -2.06,-0.136 -3.14,-0.375 -12.231,-2.712 -26.223,-8.24 -29.766,-10.36 a 373.294,373.294 0 0 1 -5.86,-3.562 c 0.13,0.054 14.094,2.672 23.391,2.672 2.684,0 4.755,-0.229 6.14,-0.656 7.35,-2.262 12.887,-4.71 16.079,-9.469004 3.225,-4.807 3.281,-6.64 3.281,-6.656 -0.069,0.072 -4.17,7.956 -7.172,8.39 -2.023,0.293 -4.088,1.345 -6.234,2.485004 -1.083,0.574 -2.163,1.17 -3.328,1.687 -1.665,0.743 -5.834,1.172 -11.438,1.172 -3.735,0 -7.54,-0.161 -9.656,-0.468 -4.512,-0.656 -16.195,-1.352 -16.312,-1.36 0.121,-0.01 11.824,-3.958004 17.625,-6.140004 3.013,-1.134 5.394,-3.647 6.375,-6.75 0.645,-2.037 0.542,-3.993 -0.282,-5.204 -1.932,-2.838 -6.053,-11.816 -6.093,-11.906 -0.081,0.077 -5.491,7.993 -7.641,12.797 -1.392,3.111 -5.232,3.115 -9.328,3.14 -2.337,0.016 -4.757,0.055 -6.938,0.61 l -6.093,1.547 c 0.13,-0.065 11.732,-9.095 8.718,-14.344 -2.113,-3.684 -6.152,-6.281 -9.797,-6.281 -1.26,0 -2.393,0.365 -3.28,0.984 l -0.235,0.14 c -2.202,1.541 -3.673,2.579 -5.39,2.579 -0.938,0 -1.897,-0.326 -3.048,-0.984 -1.608,-0.92 -3.53,-1.828 -5.625,-1.828 -1.873,0 -3.675,0.748 -5.484,2.296 -2.023,1.733 -2.88,4.18 -2.156,6.141 0.592,1.602 2.092,2.53 4.125,2.531 0.279,0 0.586,-0.01 0.89,-0.047 2.19,-0.256 3.58,-0.905 4.172,-1.922 0.543,-0.933 0.192,-1.866 0.188,-1.875 -0.051,0.018 -2.817,2.297 -4.875,2.297 -1.08,0 -1.81,-0.604 -2.11,-1.828 -0.475,-1.936 -0.34,-3.434 0.422,-4.406 0.69,-0.88 1.873,-1.313 3.516,-1.313 0.639,0 1.387,0.098 2.156,0.235 2.076,0.367 3.933,1.117 5.578,1.781 1.754,0.71 3.243,1.313 4.594,1.313 0.483,0 0.953,-0.076 1.36,-0.235 0.407,-0.159 0.747,-0.234 1.077,-0.234 0.914,0 1.424,0.619 1.922,1.219 0.467,0.56 0.932,1.128 1.735,1.218 0.067,0.007 0.133,0 0.187,0 0.18,0 0.285,-0.055 0.328,-0.14 0.11,-0.22 -0.22,-0.64 -0.656,-1.219 -0.712,-0.95 -1.621,-2.163 -0.937,-2.86 0.339,-0.344 1.198,-0.515 2.25,-0.515 1.873,0 4.35,0.651 5.625,2.11 0.7,0.8 0.942,1.724 0.797,2.812 -0.636,4.737 -2.694,6.762 -6.516,9.047 -3.692,2.206 -6.09,2.203 -8.438,2.203 h -2.343 c 0.243,-0.026 2.866,-0.572 3.89,-3.281 1.079,-2.852 -1.52,-4.206 -1.547,-4.22 -0.02,0.064 0.123,4.87 -4.593,6.61 a 41.25,41.25 0 0 1 -3.75,1.172 c -2.526,0.677 -4.367,1.188 -6.047,3.516 -2.36,3.268 -4.942,3.512 -4.969,3.515 0.036,-0.02 2.157,-4.2 0,-6.609 -0.72,-0.806 -1.636,-1.219 -2.766,-1.219 -1.522,0 -2.892,0.743 -2.906,0.75 0.044,0.048 4.358,2.273 2.86,6.188 -0.61,1.593 -4.284,4.208 -8.532,7.218004 -6.252,4.431 -14.04,9.936 -14.953,14.438 -1.504,7.43 -0.312,21.146 2.813,24.094 1.684,1.591 5.039,2.718 8.156,2.718 2.529,0 4.33,-0.745 5.11,-2.062 1.426,-2.418 3.226,-5.438 5.671,-5.438 0.621,0 1.256,0.182 1.922,0.563 2.37,1.356 4.317,3.913 6.188,6.375 0.867,1.141 1.703,2.227 2.53,3.14 1.68,1.849 2.604,5.264 2.157,7.922 -0.237,1.407 -0.842,2.37 -1.734,2.86 -1.917,1.048 -4.161,2.156 -6.141,2.156 -1.321,0 -2.385,-0.489 -3.188,-1.453 -0.889,-1.068 -2.046,-1.688 -3.234,-1.688 -1.777,0 -3.345,1.285 -3.984,3.235 -1.64,4.998 -4.236,7.954 -7.782,8.812 -1.41,0.342 -2.4,1.338 -2.812,2.907 -0.72,2.731 0.373,6.778 2.344,8.625 0.759,0.712 1.525,1.272 2.203,1.78 1.86,1.396 3.212,2.414 2.578,4.829 -0.939,3.58 -3.98,8.906 -8.531,8.906 -0.327,0 -0.641,-0.038 -0.985,-0.094 -2.5,-0.406 -5.183,-2.244 -8.015,-4.171 -3.22,-2.192 -6.56,-4.454 -9.61,-4.454 h -1.734 c -4.853,0 -8.246,0.269 -11.297,3.563 -2.998,3.237 -5.689,4.969 -11.344,4.969 -0.92,0 -1.914,-0.05 -3,-0.14 -7.633,-0.649 -10.297,-2.528 -12.375,-4.407 l -1.968,-1.781 c 0.103,0.067 2.071,0.795 3.984,0.797 1.708,0 2.882,-0.543 3.422,-1.641 1.507,-3.068 -1.284,-5.739 -1.313,-5.766 -0.016,0.042 0.834,2.698 -0.234,4.172 -0.472,0.653 -1.279,0.985 -2.344,0.985 -0.585,0 -1.26,-0.084 -2.015,-0.282 -6.548,-1.719 -7.96,-3.492 -8.016,-3.562 0.046,0.031 1.121,0.234 2.344,0.234 1.237,0 2.832,-0.197 3.562,-1.031 0.323,-0.368 0.449,-0.85 0.375,-1.406 l -0.422,-3.282 c -0.048,0.032 -2.005,3.61 -4.453,3.61 -1.296,0 -2.47,-0.984 -3.562,-2.953 -3.86,-6.972 -3.52,-8.61 -3.516,-8.625 0.007,-0.001 1.298,-0.938 2.719,-0.938 1.01,0 1.854,0.48 2.484,1.406 1.922,2.819 1.969,3.264 1.969,3.282 0.045,-0.035 1.53,-4.014 -0.844,-5.766 -0.969,-0.719 -2.513,-1.002 -3.984,-1.312 -2.232,-0.473 -4.349,-0.925 -4.735,-2.625 -0.645,-2.834 -0.192,-4.623 -0.187,-4.641 0.063,0.039 8.268,2.899 9.984,5.953 1.718,3.051 1.735,5.74 1.735,5.766 0.048,-0.006 2.417,-1.793 2.203,-3.985 -0.155,-1.558 -0.665,-2.904 -0.938,-3.562 0.435,0.697 1.923,1.858 6.75,2.015 1.169,0.04 2.471,0.041 3.797,0.047 6.434,0.027 13.714,0.063 15.328,3.703 0.492,1.11 0.541,2.032 0.094,2.719 -0.886,1.364 -3.353,1.453 -4.078,1.453 l -0.14,0.047 c 0.012,0.022 1.158,2.156 2.625,2.156 0.372,0 0.73,-0.147 1.078,-0.422 1.234,-0.973 5.23,-4.355 4.968,-7.218 -0.1,-1.107 -0.78,-2.019 -2.109,-2.72 -5.208,-2.752 -9.498,-3.073 -9.797,-3.093 0.368,0 6.363,-0.498 8.25,-2.203 0.306,-0.276 0.641,-0.614 0.985,-0.984 1.405,-1.515 3.322,-3.563 6.89,-3.563 1.113,0 2.354,0.162 3.656,0.563 2.214,0.682 3.568,1.765 4.032,3.187 0.717,2.2 -1.015,4.524 -1.032,4.547 0.057,0 3.74,-2.245 3.094,-5.531 -0.645,-3.273 -4.717,-5.728 -4.781,-5.766 0.112,0 2.554,-0.516 5.39,-0.516 3.242,0 7.411,0.7 8.72,4.079 2.357,6.1 -4.061,9.018 -4.126,9.046 0.44,0 6.123,-0.45 6.328,-5.953 0.149,-3.9 -1.013,-7.401 -3.14,-9.609 -1.773,-1.84 -4.175,-2.766 -7.125,-2.766 -4.535,0 -8.687,1.503 -12.047,2.72 -2.5,0.905 -4.687,1.687 -6.422,1.687 -1.515,0 -2.481,0.072 -2.86,0.187 -0.107,-1.504 -0.664,-9.336 0.704,-14.297 1.047,-3.805 1.478,-4.98 1.64,-5.344 -0.448,0.702 -2.684,4.251 -5.765,4.641 a 9.625,9.625 0 0 1 -1.219,0.094 c -0.672,0 -1.456,-0.053 -2.25,-0.094 -0.883,-0.045 -1.8,-0.094 -2.719,-0.094 -2.728,0 -5.946,0.376 -6.468,3.422 -0.749,4.38 -0.659,6.724 0.234,7.781 0.37,0.438 0.875,0.657 1.547,0.657 2.584,0 3.878,-0.882 3.89,-0.89 -0.037,-0.034 -3.25,-0.72 -3.843,-2.485 -0.26,-0.773 0.027,-1.685 0.843,-2.625 1.236,-1.424 2.367,-2.016 3.75,-2.016 0.572,0 1.145,0.086 1.688,0.188 0.53,0.099 1.09,0.187 1.64,0.187 0.333,0 0.64,-0.019 0.938,-0.094 l 2.625,-0.656 c -0.061,0.032 -1.373,1.518 -2.86,2.813 -1.476,1.287 -3.57,1.988 -3.656,2.015 0.113,0 1.666,-0.375 3.235,-0.375 1.97,0 3.06,0.542 3.234,1.688 0.366,2.416 0.954,10.51 -6.937,13.03 -5.286,1.688 -8.671,1.923 -10.22,1.923 -1.475,0 -2.53,-0.227 -2.812,-0.61 l -0.656,-0.843 h 0.047 c 0.427,0 3.857,-0.317 6.281,-4.219 2.586,-4.16 -0.856,-7.236 -0.89,-7.266 -0.028,0.089 -0.282,7.688 -4.782,7.688 -0.762,0 -1.564,0.035 -2.344,0.047 -0.78,0.012 -1.536,0 -2.296,0 -2.892,0 -5.745,-0.157 -7.079,-1.36 -1.908,-1.725 -2.148,-2.826 -2.156,-2.859 0.017,0.026 1.146,0.328 2.39,0.328 1.288,0 2.886,-0.334 3.235,-1.875 0.647,-2.847 0.004,-3.74 0,-3.75 -0.05,0.03 -2.81,3.047 -5.25,3.047 -0.846,0 -1.59,-0.358 -2.156,-1.078 -2.573,-3.272 -4.293,-10.93 -4.313,-11.016 0.01,0.026 2.031,0.563 4.313,0.563 2.656,0 4.553,-0.712 5.672,-2.11 2.797,-3.5 2.628,-5.278 2.625,-5.296 -0.072,0.03 -4.947,3.843 -8.438,3.843 -1.723,0 -2.861,-0.926 -3.328,-2.765 -1.66,-6.539 -0.767,-12.937 1.078,-14.578 3.91,-3.076 9.905,-5.62 14.297,-5.766 0.752,-4.383 -26.546,-5.43 14.25,-13.969004 l 15.797,-18.984 c 0,-2.028 -5.96,-6.602 -8.672,-7.875 -2.79,-1.31 -11.597,-2.906 -18.328,-2.906 -0.426,0 -0.853,-0.014 -1.266,0 -3.93,0.121 -8.564,3.298 -13.078,6.375 -3.823,2.607 -7.448,5.066 -10.593,5.765 -2.885,0.642 -5.607,0.985 -7.875,0.985 -3.37,0 -5.617,-0.702 -6.47,-2.063 -1.502,-2.397 -1.315,-6.334 -1.312,-6.375 -0.046,0.042 -1.723,4.86 -1.078,7.266 0.675,2.517 4.42,4.9 6.516,5.11 2.173,0.221 6.75,0.655 6.75,0.655 -0.07,0.023 -6.355,4.848 -8.719,7.688 -0.676,0.813 -1.36,1.783 -2.062,2.812 -1.769,2.586 -3.59,5.263004 -5.766,5.578004 -0.696,0.1 -1.41,0.141 -2.156,0.141 -1.99,0 -3.454,-0.325 -3.47,-0.328 0.013,0.052 2.608,2.657 4.548,3.094 0.364,0.082 0.784,0.14 1.219,0.14 1.597,0 3.125,-0.556 3.14,-0.562 -0.069,0.093 -5.038,11.306 -6.328,17.203 -1.437,6.565 -2.75,10.082 -4.36,11.719 -1.717,1.744 -3.452,2.847 -3.468,2.86 0.02,0.034 1.902,0.937 3.422,0.937 0.48,0 0.858,-0.1 1.172,-0.282 1.504,-0.876 1.725,-1.069 1.734,-1.078 -0.05,0.125 -2.39,13.706 -2.39,16.547 0,2.834 -4.55,7.036 -4.594,7.078 h 0.28 c 1.057,0 4.5,0.194 4.5,2.438 -1.106,6.82 -3.563,12.703 -6.75,18.515 -3.185,-5.812 -5.642,-11.696 -6.75,-18.515 0,-2.244 3.445,-2.438 4.5,-2.438 h 0.282 c -0.045,-0.042 -4.594,-4.244 -4.594,-7.078 0,-2.84 -2.34,-16.422 -2.39,-16.547 0.009,0.01 0.23,0.202 1.734,1.078 0.314,0.182 0.692,0.282 1.172,0.282 1.52,0 3.402,-0.903 3.422,-0.938 -0.017,-0.012 -1.751,-1.115 -3.469,-2.86 -1.61,-1.636 -2.922,-5.153 -4.36,-11.718 -1.29,-5.897 -6.258,-17.11 -6.327,-17.203 0.015,0.006 1.543,0.562 3.14,0.562 a 5.58,5.58 0 0 0 1.219,-0.14 c 1.94,-0.437 4.535,-3.042 4.547,-3.094 -0.015,0.003 -1.48,0.328 -3.469,0.328 -0.745,0 -1.46,-0.04 -2.156,-0.14 -2.177,-0.316 -3.997,-2.993004 -5.766,-5.579004 -0.702,-1.029 -1.386,-2 -2.062,-2.812 -2.364,-2.84 -8.648,-7.665 -8.719,-7.688 0,0 4.577,-0.434 6.75,-0.656 2.096,-0.21 5.84,-2.592 6.516,-5.11 0.645,-2.405 -1.032,-7.223 -1.078,-7.265 0.003,0.04 0.19,3.978 -1.313,6.375 -0.852,1.36 -3.1,2.063 -6.469,2.063 -2.268,0 -4.99,-0.343 -7.875,-0.985 -3.145,-0.699 -6.77,-3.158 -10.593,-5.765 -4.514,-3.077 -9.149,-6.254 -13.079,-6.375 -0.412,-0.014 -0.84,0 -1.265,0 z m 142.734,64.500004 0.094,-0.188 c -0.02,0 -0.08,0.053 -0.14,0.188 z m 143.579,262.078 a 7.83,7.83 0 0 0 1.078,-1.172 c -0.037,0 -0.428,0.45 -1.078,1.172 z m -455.718,0 c -0.65,-0.722 -1.041,-1.172 -1.079,-1.172 0.003,0.006 0.39,0.55 1.079,1.172 z m 143.578,-262.078 h 0.047 c -0.06,-0.135 -0.122,-0.188 -0.141,-0.188 z" fill="#070707" stroke="#000000" stroke-width="1.5" id="path5600" />
<path d="m 430.812,408.52343 c 0.093,-0.327 0.375,-0.63 0.843,-0.901 -0.295,1.718 -1.243,2.454 -1.252,2.462 l -0.035,0.028 z" id="path5602" />
<path d="m 519.212,87.276426 c -2.768,1.796 -8.07,-1.482 -7.84,-2.81 0.23,-1.327 0.768,-5.075 5.916,-5.623 5.148,-0.546 6.072,1.64 6.072,1.64 0.152,2.108 -1.384,4.997 -4.149,6.793 z m -139.553,-0.635 c 2.732,1.739 7.971,-1.436 7.742,-2.719 -0.227,-1.287 -0.758,-4.914 -5.845,-5.444 -5.085,-0.527 -5.995,1.589 -5.995,1.589 -0.153,2.042 1.367,4.836 4.098,6.574 z" fill="#ffffff" stroke="#2a2a2a" stroke-width="0.75" id="path5604" />
<path d="m 521.976,82.513426 c 0,1.172 -2.537,3.515 -4.074,3.749 -1.534,0.234 -1.919,-1.405 -0.845,-3.282 1.077,-1.875 2.921,-1.64 2.921,-1.64 0.231,-0.076 1.998,0.003 1.998,1.174 z m -145.048,-0.481 c 0,1.134 2.503,3.404 4.023,3.627 1.518,0.227 1.896,-1.357 0.835,-3.172 -1.063,-1.816 -2.884,-1.589 -2.884,-1.589 -0.231,-0.075 -1.974,0 -1.974,1.134 z" id="path5606" />
<path d="m 295.478,264.213 -0.04,-0.027 c 0.033,-0.081 3.235,-7.841 2,-15.748 -1.269,-8.122 -6.23,-22.226 -9.998,-26.495 -3.708,-4.201 -5.237,-8.954 -5.252,-9.002 0.08,0.058 6.298,6.761 9.015,8.739 2.793,2.028 10.253,13.406 10.504,27.008 0.15,8.105 -2.088,12.118 -3.992,14.058 -1.086,1.106 -2.025,1.468 -2.227,1.468 h -0.01 z m -112.149,-6.01 v -0.01 c -0.004,-0.084 -0.334,-8.599 1.414,-18.387 1.747,-9.788 12.968,-41.402 13.081,-41.721 0.041,0.239 2.081,23.822 -3.163,35.01 -2.391,5.101 -4.808,10.766 -6.75,15.318 -2.425,5.684 -4.177,9.789 -4.572,9.789 h -0.01 z m 57.427,-5.821 c -0.026,-0.047 -2.575,-4.821 0.579,-13.855 2.944,-8.431 13.07,-16.727 18.844,-20.921 4.011,-2.911 12.667,-13.443 12.753,-13.549 -0.131,0.302 -14.832,29.216 -20.279,32.419 -5.146,3.029 -10.968,8.798 -11.879,15.902 l -0.004,0.03 z m 119.717,-3.826 c -0.049,-0.015 -5.252,-1.869 -8.119,-10.611 -1.084,-3.305 -1.481,-6.177 -1.866,-8.955 -0.657,-4.743 -1.278,-9.225 -5.089,-15.494 -6.017,-9.901 -18.426,-21.974 -18.551,-22.095 0.252,0.107 24.125,12.528 28.424,27.095 4.272,14.473 5.425,29.801 5.231,30.06 l -0.016,0.008 z M 310.188,237.44 c -5.689,-11.12 -7.677,-18.118 -2.75,-25.511 3.817,-5.724 10.816,-6.342 13.647,-6.342 2.426,0 4.806,0.408 6.366,1.091 2.232,0.975 4.977,8.181 5.005,8.253 -0.033,-0.013 -1.582,-2.258 -7.263,-3.986 -1.322,-0.402 -2.626,-0.606 -3.874,-0.606 -4.437,0 -7.85,2.588 -9.363,7.1 -2.111,6.293 -1.754,19.86 -1.75,19.997 z m -69.108,-13.538 -0.036,-0.104 c 0,-1.645 2.717,-12.762 7.54,-16.799 1.134,-0.948 2.207,-1.819 3.232,-2.652 3.397,-2.759 6.331,-5.141 9.231,-8.541 3.724,-4.368 7.209,-19.581 7.244,-19.734 0.077,0.101 5.787,10.403 2.919,18.271 -2.597,7.123 -12.035,13.683 -18.925,18.473 -0.79,0.549 -1.542,1.071 -2.239,1.564 -4.719,3.338 -7.256,7.112 -8.339,8.725 -0.356,0.53 -0.536,0.797 -0.616,0.797 z m 62.86,-21.459 c -0.055,-0.048 -5.505,-4.79 -5.753,-8.005 -0.247,-3.219 3.713,-7.219 3.753,-7.259 l 0.563,0.729 c 1.271,1.645 4.247,5.496 4.453,7.778 0.248,2.723 -2.97,6.715 -3.002,6.755 l -0.007,0.009 z m -11.492,-2.746 a 61.57,61.57 0 0 1 -5.001,-0.251 c -2.683,-0.243 -3.215,-1.175 -4.18,-2.868 l -0.078,-0.137 c -0.991,-1.733 -0.011,-5.469 -0.001,-5.506 0.103,0.166 0.864,0.405 1.828,0.707 1.873,0.587 4.704,1.475 5.689,2.79 1.485,1.979 1.75,5.223 1.752,5.255 l 0.001,0.011 h -0.01 z m 1.993,-10.754 c -0.04,-0.042 -4.006,-4.29 -4.253,-7.505 -0.248,-3.22 3.467,-5.488 3.504,-5.511 h 10e-4 c 0.73,0 4.514,2.777 4.514,6.509 0,3.713 -3.715,6.48 -3.753,6.508 l -0.007,0.005 z m 12.747,-1.506 c 0,-0.065 0.014,-6.534 1.251,-9.255 1.237,-2.722 3.729,-4.239 3.755,-4.254 l 1.255,0.248 c 0.021,0.093 1.251,8.527 0.509,9.766 -0.744,1.238 -6.696,3.482 -6.756,3.504 l -0.014,0.005 z m -22.494,-0.241 c -0.083,-0.025 -8.261,-2.522 -8.757,-4.257 -0.495,-1.733 0.986,-6.705 1,-6.755 0.288,0.13 0.856,0.303 1.577,0.521 1.904,0.578 4.781,1.452 5.691,2.725 1.238,1.733 0.509,7.697 0.501,7.757 l -0.001,0.012 z m 37.995,-13.505 c -0.02,-0.03 -1.999,-3.051 -1.751,-7.256 0.246,-4.206 5.204,-7.476 5.254,-7.508 a 0.427,0.427 0 0 1 0.192,-0.042 c 0.45,0 1.196,0.544 1.947,1.419 1.171,1.365 2.43,3.658 2.126,5.632 -0.496,3.218 -7.682,7.712 -7.755,7.757 l -0.008,0.005 z m -18.853,-1.298 c -1.557,0 -3.282,-0.972 -4.504,-2.536 -1.599,-2.049 -2.129,-4.774 -1.453,-7.478 1.749,-6.997 4.224,-7.779 4.249,-7.787 5.267,5.5 6.25,9.605 6.15,12.082 -0.08,1.972 -0.858,3.668 -2.251,4.907 -0.597,0.531 -1.354,0.812 -2.191,0.812 10e-4,0 10e-4,0 0,0 z m -26.209,-0.687 c -0.211,0 -0.896,-0.172 -2.687,-1.763 -2.168,-1.927 -4.517,-5.18 -4.002,-8.009 0.495,-2.723 5.703,-4.984 5.755,-5.006 3.722,5.444 1.041,14.668 1.013,14.761 z m 9.914,-2.792 c -2.483,0 -5.316,-2.122 -5.924,-6.177 -1.051,-6.999 3.495,-9.533 3.541,-9.558 h 0.009 c 0.19,0 0.62,0.39 1.164,1.011 1.911,2.183 5.385,7.371 4.852,11.375 -0.277,2.066 -1.672,3.349 -3.642,3.349 z m -23.095,-2.468 c -2.648,-0.481 -6.008,-3.643 -6.008,-6.509 0,-2.723 2.972,-6.223 3.002,-6.257 0.162,0.146 0.625,0.439 1.266,0.845 1.474,0.933 3.94,2.494 4.999,3.906 1.487,1.982 -0.478,8.445 -0.498,8.51 l -0.003,0.008 z m 52.996,-0.002 c -0.068,-0.055 -6.753,-5.545 -6.504,-9.258 0.246,-3.708 0.992,-6.227 0.999,-6.251 0.856,0.273 7.023,3.763 7.771,6.249 0.742,2.475 -2.221,9.189 -2.251,9.257 l -0.005,0.012 z" transform="matrix(1.5,0,0,1.5,0,-6.5005741)" fill="#332d2c" fill-rule="evenodd" filter="url(#e)" id="path5608" />
<path d="m 300.177,363.441 c 0.026,-0.139 1.542,-13.896 1.256,-23.8 -0.145,-5.077 1.068,-13.643 1.213,-21.867 0.145,-8.133 0.281,-15.814 0.139,-20.028 -0.286,-8.444 -1.438,-23.709 -1.449,-23.862 0.061,0.18 4.068,18.493 3.209,38.298 -0.46,10.601 -1.458,19.782 -1.308,27.16 0.134,6.504 1.427,11.641 1.018,14.97 -0.362,2.947 -1.338,6.905 -3.931,9.027 -0.061,0.05 -0.154,0.135 -0.154,0.135 z m 27.544,-18.844 c -0.139,-0.07 -13.944,-7.14 -16.238,-12.968 -2.292,-5.825 -6.337,-14.348 -6.377,-14.434 0.124,0.122 10.807,13.264 16.534,15.008 3.453,1.054 6.392,1.275 8.249,1.275 1.187,0 1.886,-0.093 1.893,-0.094 l -2.02,2.666 8.98,2.342 -0.025,10e-4 c -0.588,0 -11.162,-0.368 -15.924,-2.93 -4.874,-2.622 -7.801,-4.985 -7.829,-5.009 0.058,0.061 4.414,7.366 8.996,8.82 4.583,1.458 10.088,1.765 10.144,1.768 l -5.797,1.787 -0.575,1.772 z m -51.02,-0.017 c 0.032,-0.026 3.231,-2.685 6.957,-5.598 1.49,-1.164 3.324,-3.227 5.455,-6.133 l -0.223,0.255 c -2.685,3.033 -11.491,7.378 -16.819,7.665 -5.442,0.29 -11.817,2.918 -11.881,2.944 0.014,-0.053 2.672,-3.864 8.98,-5.321 6.3,-1.455 8.381,-3.512 8.401,-3.532 l -5.795,-2.639 h 10e-4 c 0.076,0 2.692,0.683 5.952,0.683 3.221,0 7.669,-0.683 10.566,-3.937 5.443,-6.115 12.106,-24.557 12.173,-24.742 0.028,0.039 0.882,3.904 0.309,10.313 -0.573,6.409 -3.162,15.235 -3.188,15.324 l 1.14,-14.734 c -0.036,0.198 -5.545,19.504 -10.419,24.164 -4.874,4.662 -11.534,5.3 -11.601,5.306 z m 15.644,-16.476 c -0.101,0.194 -1.302,2.113 -2.91,4.338 2.041,-2.435 2.829,-4.157 2.91,-4.338 z m -29.56,-2.372 c 0,-0.228 -0.044,-0.478 -0.091,-0.747 -0.191,-1.099 -0.453,-2.603 2.124,-4.27 2.489,-1.607 6.225,-1.781 7.715,-1.781 0.438,0 0.696,0.015 0.696,0.015 -0.09,0.052 -9.281,3.298 -10.425,6.786 z m -22.606,-0.596 c 4.578,-2.615 4.06,-4.683 4.054,-4.703 0.063,0 3.306,0.791 3.563,1.871 0.063,0.267 -0.057,0.53 -0.359,0.786 -1.722,1.458 -7.198,2.059 -7.253,2.064 z m 103.88,-5.357 c -5.868,-10e-4 -11.755,-0.868 -17.497,-2.578 -16.371,-4.879 -19.858,-23.617 -19.999,-24.412 0.254,0.992 3.482,9.671 9.863,16.44 7.288,7.729 27.043,7.952 29.271,7.952 5.444,0 10.387,1.164 10.436,1.176 -0.046,0.033 -4.749,1.422 -12.072,1.422 z m -71.994,-2.008 c 0.104,-0.048 10.464,-4.736 13.042,-6.776 2.528,-1.997 8.4,-11.033 8.684,-11.47 -0.148,0.198 -1.903,2.203 -5.193,4.712 -3.439,2.621 -13.525,5.276 -13.627,5.303 0.106,-0.08 11.35,-6.257 15.934,-10.917 4.583,-4.658 9.227,-15.501 9.273,-15.61 l -1.429,22.983 -0.31,-11.489 c -0.011,0.044 -2.923,3.93 -6.647,12.082 -3.728,8.16 -19.56,11.172 -19.719,11.201 z m -6.355,-1.234 c -2.085,0 -3.46,-0.864 -3.678,-2.312 -0.211,-1.41 0.849,-3.305 3.23,-4.036 2.44,0.563 4.92,0.848 7.375,0.848 8.649,0 14.442,-3.543 14.5,-3.579 -0.099,0.103 -11.103,8.565 -19.415,8.858 -0.72,0.147 -1.397,0.221 -2.012,0.221 0.001,0 0.001,0 0,0 z m 65.531,-4.281 c -1.247,0 -2.236,-0.121 -2.94,-0.359 l -0.236,-0.08 c -4.375,-1.479 -13.479,-4.556 -18.32,-16.422 0.081,0.082 6.461,9.139 12.477,10.887 a 12.18,12.18 0 0 0 3.444,0.484 c 1.697,0 3.125,-0.321 4.271,-0.58 0.705,-0.159 1.262,-0.284 1.673,-0.284 0.296,0 0.491,0.064 0.616,0.203 0.139,0.155 0.187,0.409 0.146,0.775 -0.071,0.655 -0.504,1.169 -1.285,1.527 2.474,-0.339 5.728,-0.928 7.357,-1.832 0.477,-0.264 0.871,-0.397 1.174,-0.397 0.252,0 0.444,0.093 0.572,0.276 0.552,0.792 -0.274,3.056 -0.282,3.079 l 6.078,0.283 c -0.089,0.044 -9.193,2.44 -14.745,2.44 z m -5.194,-3.309 c 0.168,0.003 0.668,0.04 1.318,0.04 1.05,0 2.514,-0.096 3.585,-0.542 a 81.037,81.037 0 0 1 -4.903,0.502 z m -33.116,-17.384 c -0.008,-0.029 -0.857,-2.991 0.29,-6.488 1.147,-3.499 3.745,-6.746 3.771,-6.778 l -4.05,13.299 z m 22.034,0.006 c -0.069,-0.042 -6.968,-4.174 -7.54,-7.962 -0.574,-3.787 -0.581,-13.165 -0.581,-13.26 0.594,6.697 8.06,21.063 8.135,21.208 l 0.017,0.031 z m 24.139,-15.947 c -3.788,0 -9.191,-0.505 -13.413,-2.908 -7.164,-4.079 -12.703,-9.669 -12.758,-9.725 0.171,0.1 15.913,11.479 21.818,11.477 0.074,0 0.148,-0.001 0.22,-0.005 2.155,-0.109 3.398,-0.552 3.696,-1.316 0.301,-0.771 -0.507,-1.604 -0.515,-1.612 l 3.931,-0.281 c 0.553,-1.18 1.567,-2.081 1.577,-2.091 l -1.144,2.077 -0.437,0.034 c -0.532,1.188 -0.689,2.838 1.592,4.075 -0.022,0.021 -1.898,0.275 -4.567,0.275 z m -77.724,-3.161 -0.044,-0.051 c 0.011,-0.013 0.659,-0.48 1.818,-1.054 1.291,-0.864 2.703,-1.778 4.287,-2.602 0.793,-0.651 1.761,-1.077 2.876,-1.266 1.157,-0.404 2.234,-0.636 3.202,-0.687 4.224,-0.227 8.316,-1.508 9.879,-2.048 -3.095,2.459 -5.949,2.647 -9.643,2.647 l -2.028,-0.006 c -0.49,0 -0.963,0.038 -1.406,0.112 l -0.005,-0.019 a 25.88,25.88 0 0 0 -2.865,1.282 l -0.011,-0.017 a 6.485,6.485 0 0 0 -1.184,1.371 22.036,22.036 0 0 1 5.523,-0.969 c 6.066,-0.279 11.941,-4.343 12.428,-4.687 a 9.93,9.93 0 0 1 -0.803,0.302 21.415,21.415 0 0 0 2.103,-1.989 c 4.541,-4.89 4.943,-9.143 4.947,-9.186 0.02,0.107 -0.053,10.672 -6.347,15.917 -2.146,1.788 -3.267,2.154 -4.291,2.154 -0.594,0 -1.179,-0.138 -1.856,-0.297 -0.979,-0.231 -2.199,-0.519 -3.999,-0.519 -2.355,0 -5.167,0.487 -8.595,1.491 l -0.015,0.004 0.002,-0.015 c 10e-4,-0.011 0.158,-1.061 0.861,-2.179 a 21.322,21.322 0 0 0 -3.051,1.218 l -0.01,-0.017 -0.275,0.208 c -0.803,0.54 -1.333,0.896 -1.488,0.896 h -0.01 z m 181.694,-6.613 c -1.877,0.894 -11.147,-11.354 -23.47,-32.614 -12.322,-21.264 -19.353,-71.968 -19.422,-72.478 0.166,-0.051 0.33,-0.281 0.505,-0.523 0.25,-0.349 0.533,-0.743 0.898,-0.743 1.086,0 3.115,3.215 8.181,31.02 7.165,39.315 32.544,75.224 32.822,75.575 z m -273.315,-8.567 c 0.019,-0.017 1.904,-1.786 6.965,-12.075 3.113,-6.327 5.646,-15.248 8.854,-26.542 2.023,-7.122 4.315,-15.195 7.129,-23.855 7.09,-21.826 10.217,-24.76 10.248,-24.787 0.243,0.155 0.059,0.666 -0.825,3.12 -1.552,4.309 -5.186,14.4 -12.478,38.751 -11.345,37.883 -19.795,45.332 -19.879,45.403 z m 153.455,-11.513 c -0.607,0 -0.996,-0.155 -1,-0.157 1.295,-1.072 1.784,-2.738 2.257,-4.351 0.601,-2.051 1.169,-3.987 3.251,-4.803 a 5.735,5.735 0 0 1 2.098,-0.384 c 3.005,0 5.711,2.134 5.737,2.155 -0.058,0.021 -5.247,0.357 -7.822,4.433 -1.626,2.568 -3.355,3.107 -4.521,3.107 z m 128.569,-18.13 c -0.202,-0.133 -20.438,-13.673 -32.76,-49.497 -8.974,-26.09 -9.424,-32.635 -8.891,-34.213 l -0.096,-0.255 c 0.166,0.09 0.166,0.109 0.117,0.253 l -0.01,0.026 -0.003,-0.006 c 2.206,5.863 21.242,56.522 30.061,66.884 9.169,10.777 11.573,16.735 11.597,16.794 l 0.011,0.029 z m 11.89,-2.945 c 0.647,-0.3 -1.503,-0.014 -6.09,-1.178 -4.062,-1.033 -14.21,-19.385 -23.164,-35.575 -1.294,-2.34 -2.567,-4.643 -3.8,-6.853 -9.743,-17.474 -14.734,-42.177 -14.783,-42.425 22.081,53.58 47.631,85.755 47.886,86.073 l -1.125,0.457 z m -75.954,-3.54 c -0.081,-0.159 -8.134,-16.075 -9.567,-30.347 -1.433,-14.272 0.273,-26.104 0.291,-26.222 0.043,0.407 2.418,40.836 9.294,56.561 z m -242.615,-1.028 c -0.079,-0.001 -0.128,-0.039 -0.142,-0.111 0.178,-0.268 17.702,-26.208 24.589,-40.824 7.766,-16.482 12.424,-25.202 15.575,-29.158 2.935,-3.684 7.493,-3.97 8.82,-3.97 0.262,0 0.409,0.011 0.409,0.011 -0.058,0.069 -6.547,5.587 -23.965,36.876 -17.014,30.561 -24.375,37.176 -25.286,37.176 z m 73.753,-4.962 c -0.042,-0.051 -0.006,-0.223 0.034,-0.422 0.043,-0.214 0.093,-0.457 0.044,-0.557 0.695,-1.186 4.716,-11.177 4.917,-16.874 0.092,-2.62 -0.149,-6.366 -0.382,-9.989 -0.294,-4.559 -0.571,-8.865 -0.231,-11.045 0.607,-3.912 2.643,-8.496 2.663,-8.542 0.007,0.125 -1.208,12.124 -1.006,15.624 0.262,4.511 0.471,22.503 -3.279,28.12 -2.172,3.252 -2.593,3.7 -2.724,3.7 z m 154.667,-43.498 c -0.081,0 -8.163,-0.071 -11.604,-6.191 -2.641,-4.697 -1.246,-11.671 -0.486,-14.562 -1.167,2.426 -3.52,6.692 -6.48,8.783 -2.197,1.551 -4.598,1.877 -6.224,1.877 -1.763,0 -3.022,-0.372 -3.035,-0.375 0.004,-0.039 1.015,-2.532 2.746,-4.018 0.949,-0.813 4.929,-2.992 8.439,-4.915 2.255,-1.235 4.202,-2.301 4.973,-2.801 l 0.066,-0.201 0.02,0.149 c 0.118,-0.084 0.194,-0.142 0.229,-0.18 v 0.002 c -0.02,0.097 -0.099,0.287 -0.218,0.559 l -0.019,-0.003 c 0.076,1.577 0.433,6.972 2.614,10.667 2.578,4.367 8.058,6.75 8.112,6.773 -0.003,-0.002 0.587,-0.356 2.015,-4.708 1.432,-4.364 -1.993,-14.33 -2.028,-14.43 h 0.008 c 0.227,0 0.965,0.544 1.799,1.416 1.277,1.336 4.226,4.963 4.01,9.777 -0.288,6.412 -4.883,12.32 -4.93,12.379 l -0.003,0.003 h -0.004 z m -11.669,-22.2 c -0.062,0.246 -0.192,0.672 -0.347,1.246 0.173,-0.365 0.314,-0.679 0.423,-0.925 l -0.01,-0.35 z m -167.099,15.354 c 0.033,-0.087 3.352,-8.828 9.633,-15.83 5.697,-6.35 8.772,-6.672 9.331,-6.672 0.069,0 0.104,0.005 0.104,0.005 -4.374,2.489 -6.181,6.258 -8.273,10.623 -0.55,1.148 -1.12,2.336 -1.761,3.552 -3.04,5.769 -8.961,8.31 -9.021,8.334 l -0.021,0.009 z m 54.279,-0.283 c -0.071,-0.015 -7.126,-1.545 -7.867,-7.387 -0.74,-5.838 0.734,-12.24 0.749,-12.304 4.828,8.267 7.107,19.566 7.13,19.679 l 0.003,0.015 z m 122.161,-0.241 c -0.111,-0.151 -0.271,-0.345 -0.463,-0.581 -1.355,-1.658 -4.177,-5.109 -4.177,-9.736 0,-5.242 1.148,-12.304 1.16,-12.375 0.071,0.112 5.217,11.617 3.497,22.687 l -0.004,0.024 z m 99.601,-0.476 c -1.534,0 -5.667,-0.856 -16.115,-6.59 -14.329,-7.866 -27.41,-35.959 -27.54,-36.242 h 0.012 c 0.548,0 2.795,2.76 14.787,18.551 12.606,16.599 29.395,24.081 29.563,24.155 -0.007,0.021 -0.177,0.126 -0.707,0.126 z m -331.57,-0.249 c 1.721,-3.28 5.18,-6.949 8.843,-10.834 3.321,-3.523 6.756,-7.166 9.189,-10.825 5.064,-7.619 17.7,-24.407 17.828,-24.576 -0.057,0.167 -7.429,15.723 -13.303,23.753 -5.876,8.029 -22.375,22.35 -22.542,22.494 z m 252.841,-3.691 c -0.052,-0.047 -5.238,-4.738 -6.957,-6.777 -1.723,-2.041 -1.742,-8.485 -1.742,-8.55 0.02,0.31 0.238,0.36 0.673,0.459 0.779,0.178 2.229,0.509 4.272,2.775 3.155,3.499 3.765,12 3.771,12.085 l 0.002,0.024 z M 225.083,158.79 c -0.033,-0.046 -3.242,-4.643 0.205,-9.382 3.444,-4.736 8.758,-12.419 8.811,-12.496 0.016,0.066 -0.217,6.1 -2.851,10.631 -1.236,2.125 -2.583,4.743 -3.665,6.846 -1.315,2.558 -2.266,4.405 -2.492,4.405 z m 49.462,-2.421 c 0.003,-0.071 0.329,-7.084 -1.764,-8.83 -0.167,-0.139 -0.326,-0.21 -0.471,-0.21 -0.728,0 -1.104,1.768 -1.468,3.478 -0.375,1.765 -0.764,3.59 -1.549,3.59 a 0.723,0.723 0 0 1 -0.4,-0.141 c -1.518,-1.011 -1.771,-3.631 -1.921,-5.197 -0.06,-0.62 -0.103,-1.068 -0.201,-1.166 0.019,-0.078 2.131,-6.75 3.18,-8.5 0.151,-0.251 0.368,-0.379 0.645,-0.379 1.176,0 3.296,2.302 4.999,4.151 a 56.814,56.814 0 0 0 1.443,1.53 c 2.102,2.102 -2.426,11.582 -2.473,11.678 z m 112.884,-14.464 c 0.099,0 7.846,1.233 7.846,6.772 0,5.538 -2.301,7.063 -2.323,7.078 l -0.011,0.007 z m -58.08,13.764 c -0.07,-0.081 -7.051,-8.192 -4.951,-13.091 0.007,-0.023 0.808,-2.344 3.235,-2.344 0.43,0 0.892,0.073 1.371,0.217 1.655,0.497 2.629,1.899 3.153,2.988 1.079,2.238 1.235,5.164 0.39,7.28 -1.399,3.496 -3.167,4.938 -3.185,4.952 l -0.007,0.006 z m -74.245,-5.654 c -0.016,-0.013 -1.581,-1.312 -1.613,-3.747 -0.038,-2.843 1.932,-5.99 5.854,-9.352 l -4.23,13.108 z m 45.144,-0.644 a 0.431,0.431 0 0 1 -0.243,-0.062 c 0.018,-0.055 2.12,-4.298 2.471,-8.142 0.351,-3.843 -0.348,-7.386 -0.354,-7.421 0.065,0.025 4.974,3.568 5.323,7.068 0.185,1.848 -1.521,4.04 -2.556,5.181 -1.657,1.83 -3.782,3.376 -4.641,3.376 0.001,0 0.001,0 0,0 z m -8.73,-1.479 c -0.06,-0.089 -6.009,-8.889 -5.658,-12.735 0.349,-3.852 3.51,-4.947 3.542,-4.958 0.145,0.205 0.33,0.418 0.549,0.671 0.933,1.078 2.494,2.881 3.353,7.466 1.05,5.598 -1.74,9.517 -1.769,9.556 l -0.009,0.012 z m -28.994,-13.799 a 0.844,0.844 0 0 1 0.2,-0.011 c 0.562,0 2.463,0.1 3.355,1.387 0.635,0.917 0.635,2.24 0,3.934 -2.099,5.599 -7.727,8.114 -7.784,8.139 l -0.02,0.009 z m 52.325,13.003 c -2.277,0 -4.022,-2.001 -4.242,-4.866 -0.35,-4.55 4.199,-9.505 4.246,-9.555 -1.03,4.2 1.057,10.197 1.078,10.257 l 2.809,-7.426 c 0.054,0.055 3.518,5.707 0.018,9.558 -1.209,1.33 -2.561,2.032 -3.909,2.032 z m -16.97,-1.328 c -0.011,-0.042 -1.062,-4.281 -1.062,-7.429 0,-3.151 2.807,-4.241 2.835,-4.251 1.411,4.203 -1.723,11.608 -1.755,11.682 l -0.012,0.027 z m -91.325,-0.619 c -0.055,-0.047 -5.509,-4.795 -5.222,-11.499 0.288,-6.707 8.621,-7.076 8.705,-7.079 0.031,0 0.074,0.02 0.107,0.112 0.169,0.462 -0.042,2.164 -1.549,3.44 -1.088,0.921 -1.851,3.165 -2.188,4.173 0.79,-0.919 2.679,-2.208 4.133,-2.208 0.738,0 1.254,0.326 1.536,0.969 1.146,2.619 2.88,4.105 2.897,4.12 -0.003,0.026 -0.615,1.507 -3.771,2.964 -3.148,1.454 -4.618,4.968 -4.633,5.003 l -0.005,0.013 z m -0.198,-10.761 c -0.24,0.297 -0.366,0.551 -0.366,0.738 0,0.175 0.021,0.177 0.021,0.177 0.04,0 0.158,-0.355 0.295,-0.766 z m 196.149,-1.024 c 0.022,-0.034 2.344,-1.779 5,-1.779 1.271,0 2.421,0.396 3.417,1.176 3.732,2.915 2.339,8.205 2.324,8.257 l -0.004,0.014 z m -124.771,7.461 c -0.024,-0.008 -2.426,-0.779 -3.011,-2.665 -0.368,-1.187 0.048,-2.557 1.238,-4.07 3.839,-4.887 2.138,-8.789 2.12,-8.828 4.564,6.986 -0.287,15.473 -0.336,15.558 l -0.004,0.007 z m 61.164,-0.355 c -0.12,-0.039 -12.028,-3.923 -12.028,-6.726 0,-2.799 2.102,-5.635 2.123,-5.663 10.505,3.495 9.925,12.292 9.918,12.381 l -10e-4,0.012 z m 61.285,-9.468 c -0.859,-4.66 -7.183,-17.544 -7.246,-17.674 h 0.211 c 3.189,0 4.865,0.323 5.131,0.972 0.201,0.491 -0.413,1.094 -0.955,1.626 -0.235,0.232 -0.458,0.45 -0.602,0.646 -0.107,0.145 -0.132,0.277 -0.074,0.391 0.182,0.361 1.185,0.568 2.75,0.568 1.301,0 2.789,-0.145 3.98,-0.387 0.086,-0.018 0.17,-0.026 0.252,-0.026 1.446,0 2.418,2.744 2.418,5.307 0,1.6 -0.407,3.309 -1.551,3.309 -0.08,0 -0.162,-0.008 -0.248,-0.026 a 1.123,1.123 0 0 0 -0.228,-0.023 c -2.645,0 -2.948,9.929 -2.951,10.03 l -0.02,0.001 z m -93.465,3.805 c -0.01,-0.028 -1.072,-2.881 -2.121,-7.425 -1.049,-4.552 3.495,-6.709 3.541,-6.73 a 0.42,0.42 0 0 1 0.186,-0.039 c 0.922,0 3.42,2.182 4.072,6.412 0.7,4.551 -5.6,7.756 -5.663,7.788 l -0.011,0.005 z m 14.623,-2.02 -0.004,-0.018 c -0.046,-0.093 -4.619,-9.763 -2.896,-13.262 0.561,-1.14 1.493,-1.768 2.627,-1.768 1.951,0 3.983,1.791 4.348,3.833 0.556,3.104 -3.624,10.707 -4.028,11.187 l -0.036,0.028 z m -51.703,-1.056 c -0.094,0 -0.19,-0.003 -0.288,-0.009 l -1.46,-0.087 c -2.417,-0.139 -3.876,-0.222 -3.876,-0.758 0.049,-0.059 4.73,-5.256 6.147,-9.165 1.415,-3.906 0.827,-5.188 0.821,-5.2 0.056,0.04 3.907,5.031 3.502,8.537 -0.289,2.496 -1.303,6.682 -4.846,6.682 z m 30.034,-0.636 c -0.082,-0.048 -8.205,-4.818 -8.611,-7.088 -0.406,-2.267 2.026,-6.42 2.051,-6.462 0.159,0.143 0.808,0.957 1.63,1.987 1.604,2.011 3.802,4.766 4.737,5.716 1.422,1.446 0.22,5.797 0.208,5.841 l -0.003,0.012 z m -14.756,-0.837 c -0.043,-0.073 -4.306,-7.331 -4.509,-10.833 -0.202,-3.503 2.84,-7.67 2.871,-7.711 0.626,0.413 5.552,9.364 5.346,11.876 -0.204,2.475 -3.656,6.629 -3.691,6.67 l -0.009,0.011 z m -8.813,-5.21 c 0.002,-0.031 0.186,-3.157 -1.433,-6.036 a 34.813,34.813 0 0 0 -0.951,-1.58 c -1.005,-1.6 -1.509,-2.403 -1.509,-5.506 0,-1.996 0.618,-4.176 1.114,-5.928 0.357,-1.26 0.639,-2.255 0.555,-2.729 a 8.286,8.286 0 0 0 -0.233,-0.291 c 0.141,0.011 0.221,0.109 0.252,0.285 l -0.017,0.007 c 0.832,1.037 3.47,4.687 3.47,8.033 0,3.911 -1.217,13.648 -1.229,13.747 z m -101.018,-1.254 c 0,0 2.048,-3.958 3.278,-6.249 0.441,-0.822 0.825,-1.979 1.231,-3.204 0.527,-1.588 1.072,-3.23 1.79,-4.266 -1.667,1.177 -2.677,1.941 -3.005,2.274 -0.812,0.826 -1.636,1.043 -1.644,1.045 -0.024,-0.044 -1.225,-3.785 0.399,-5.847 1.622,-2.061 6.511,-4.971 6.56,-5 -10e-4,-10e-4 0.248,-0.517 0.013,-0.895 -0.167,-0.268 -0.533,-0.403 -1.088,-0.403 -0.215,0 -0.468,0.021 -0.763,0.066 -2.63,0.412 -9.15,6.393 -9.215,6.454 -0.021,-0.046 -0.404,-3.998 1.624,-6.676 2.026,-2.679 7.121,-7.863 7.172,-7.915 0.087,-0.031 0.215,-0.092 0.208,-0.137 -0.007,-0.042 -0.131,-0.113 -0.886,-0.113 -0.367,0 -0.874,0.017 -1.567,0.058 -1.483,0.089 -3.926,2.554 -7.306,5.966 -4.405,4.445 -10.438,10.534 -17.484,14.233 -12.154,6.384 -15.135,7.283 -15.164,7.291 0.207,-0.146 21.578,-12.798 27.856,-19.384 4.296,-4.506 8.479,-8.417 11.248,-11.005 1.359,-1.271 2.433,-2.275 3.096,-2.949 2.026,-2.06 6.717,-4.971 6.764,-5 -0.095,0.045 -10.313,2.754 -16.794,5.223 -5.603,2.137 -10.774,2.828 -12.401,2.828 -0.303,0 -0.675,-0.022 -0.725,-0.125 0.117,-0.047 11.168,-3.384 19.676,-6.678 7.444,-2.882 12.134,-4.444 15.599,-4.444 0.417,0 0.824,0.023 1.208,0.069 l 3.483,0.418 c 0.003,0.019 -5.53,2.309 -9.013,3.768 -3.44,1.438 -7.131,6.608 -7.167,6.661 0.012,0.002 1.271,1.457 4.913,2.691 3.644,1.235 6.729,1.25 6.759,1.25 -0.033,0.049 -3.913,3.145 -5.941,3.352 -2.026,0.206 -2.659,0.208 -2.665,0.208 0.012,0.003 0.224,1.462 1.033,2.9 0.809,1.439 2.64,2.072 2.659,2.079 -0.006,0.041 -1.23,2.74 -1.838,4.387 -0.607,1.647 -3.657,7.646 -3.688,7.706 0.028,0 2.409,0.953 5.134,0.953 0.948,0 1.836,-0.115 2.64,-0.342 3.645,-1.029 7.133,-4.543 7.168,-4.578 0.005,0.08 -1.245,7.125 -4.084,10.01 -1.278,1.299 -2.924,1.905 -5.181,1.905 -1.1,0 -2.195,-0.145 -3.162,-0.272 -0.538,-0.071 -1.043,-0.138 -1.5,-0.174 a 5.594,5.594 0 0 0 -0.401,-0.014 c -2.832,0 -8.756,1.871 -8.815,1.89 z m 7.185,-14.565 c -0.28,0.158 -0.543,0.409 -0.804,0.766 a 207.33,207.33 0 0 1 2.638,-1.825 z m 232.99,12.058 c -0.04,-0.021 -4.092,-2.082 -6.956,-3.831 -0.452,-0.275 -0.818,-0.415 -1.087,-0.415 a 0.49,0.49 0 0 0 -0.432,0.211 c -0.468,0.687 0.365,2.824 0.373,2.845 -2.085,-3.248 -2.834,-5.595 -2.184,-6.777 0.299,-0.543 0.898,-0.831 1.734,-0.831 1.278,0 3.003,0.656 4.503,1.711 3.729,2.624 4.06,7.033 4.063,7.077 l 10e-4,0.018 z m 52.76,-0.588 c -0.153,-0.032 -15.485,-3.36 -25.804,-13.554 C 431.902,96.953 422.603,93.919 422.51,93.89 c 10.582,0.52 14.795,5.59 20.251,11.228 0.52,0.536 1.542,0.879 2.077,1.423 6.017,6.116 23.017,14.06 23.188,14.139 z M 278.972,116.3 c 0.008,-0.102 0.805,-10.241 -0.41,-13.532 -0.297,-0.803 -0.762,-1.376 -1.254,-1.982 -1.52,-1.871 -3.092,-3.805 0.641,-12.813 0.041,0.002 2.921,0.86 6.367,3.538 3.447,2.678 2.878,8.489 2.872,8.547 -0.035,0.046 -3.272,4.167 -4.69,6.577 0.688,-2.337 1.435,-5.475 0.982,-7.199 -0.81,-3.088 -3.658,-8.483 -3.687,-8.538 0.015,0.036 -0.384,3.983 0.223,6.657 0.218,0.958 0.753,1.826 1.27,2.665 0.94,1.524 1.912,3.101 0.983,5.256 -1.417,3.294 -3.259,10.753 -3.277,10.829 z m 44.978,-0.023 c -0.073,-0.077 -7.228,-7.707 -4.931,-11.208 0.531,-0.81 1.076,-1.22 1.621,-1.22 1.457,0 2.445,2.96 2.455,2.991 0.006,-0.093 0.61,-2.28 1.203,-2.28 0.372,0 0.65,0.867 0.827,2.576 0.512,4.941 -0.546,8.558 -1.034,9.098 -0.037,0.041 -0.07,0.062 -0.099,0.062 z m -11.045,0.016 c -0.473,0 -3.758,-4.476 -4.901,-7.089 -0.358,-0.818 -0.381,-1.637 -0.068,-2.432 0.718,-1.829 2.9,-2.896 3.552,-3.18 a 0.936,0.936 0 0 1 0.373,-0.081 c 1.854,0 3.394,5.92 3.409,5.98 l -2.32,6.781 z m -22.865,-0.194 c 0.012,-0.06 1.421,-5.031 0.612,-7.292 -0.811,-2.268 -0.211,-8.482 -0.205,-8.544 0.037,0 1.872,0.708 2.478,7.498 0.408,4.545 -0.893,6.712 -1.705,7.599 -0.505,0.553 -0.952,0.759 -1.115,0.759 z m -1.436,-0.419 c -0.336,-0.614 -0.893,-1.094 -1.483,-1.602 -1.195,-1.03 -2.55,-2.197 -2.412,-4.858 0.202,-3.916 4.263,-8.912 4.304,-8.962 0.007,0.048 -1,4.013 -0.391,8.128 0.613,4.158 0.61,7.091 -0.006,7.299 l -0.008,0.003 z m 117.087,-4.423 c 1.716,-3.489 -4,-11.107 -4.058,-11.184 0.007,-10e-4 0.059,-0.002 0.148,-0.002 1.067,0 7.529,0.144 8.854,1.758 0.25,0.304 0.33,0.541 0.246,0.724 -0.208,0.452 -1.425,0.479 -2.714,0.509 -1.001,0.023 -2.036,0.046 -2.755,0.256 -0.2,0.058 -0.304,0.13 -0.306,0.213 -0.01,0.334 1.522,0.879 3.298,1.51 2.11,0.75 4.738,1.684 5.996,2.678 0.32,0.253 0.447,0.511 0.376,0.768 -0.454,1.644 -8.724,2.739 -9.076,2.785 l -0.019,0.002 z m -124.464,-1 c 0.002,-0.006 0.209,-0.643 0.615,-2.29 0.071,-0.291 0.287,-0.743 0.64,-1.343 a 45.54,45.54 0 0 1 -1.236,3.639 z m 139.252,-1.343 c -0.022,-0.009 -2.351,-0.93 -4.932,-4.718 -0.98,-1.438 -2.138,-3.175 -2.083,-3.279 0.112,0.062 4.393,3.574 6.751,3.574 0.092,0 0.181,-0.005 0.267,-0.016 2.292,-0.291 2.895,-0.294 2.9,-0.294 -0.01,-0.007 -0.048,-1.769 -3.193,-3.221 -3.149,-1.455 -6.055,-1.765 -6.084,-1.768 -0.075,-0.068 -1.706,-1.618 -1.415,-2.349 0.096,-0.242 0.396,-0.365 0.89,-0.365 0.476,0 1.141,0.114 1.979,0.337 l 1.459,0.388 c 4.551,1.204 7.058,1.866 8.113,3.742 1.146,2.04 1.159,5.859 1.159,5.897 l -5.807,2.072 z m -103.776,-2.062 c -6.309,-4.082 -4.658,-15.218 -4.641,-15.33 l 2.332,0.877 c 0.123,1.373 0.479,4.915 0.72,4.915 0.028,0 0.083,-0.063 0.136,-0.489 0.287,-2.332 4.311,-7.028 4.351,-7.075 0.029,0.1 1.157,9.453 -0.565,10.915 -1.716,1.453 -2.311,6.133 -2.316,6.18 l -0.002,0.016 z m 87.11,-7.636 c -0.56,0 -1.088,-0.008 -1.547,-0.015 -0.352,-0.005 -0.662,-0.01 -0.914,-0.01 -2.012,0 -6.056,-9.046 -6.096,-9.138 l 6.671,-3.842 c -0.004,0.041 -1.713,2.691 -0.856,5.308 0.458,1.394 2.995,2.702 5.233,3.855 2.007,1.035 3.74,1.928 3.463,2.633 -0.426,1.084 -3.603,1.209 -5.954,1.209 z m 27.966,-4.152 c -0.029,-0.035 -2.956,-3.557 -8.111,-5.593 -5.164,-2.042 -5.511,-7.03 -5.514,-7.08 l 10.447,2.345 -0.012,-3.23 7.261,4.116 a 0.539,0.539 0 0 1 -0.149,0.008 c -0.188,0 -0.544,-0.008 -1.007,-0.008 -1.886,0 -6.365,0.145 -7.245,1.487 -0.739,1.124 1.725,3.596 3.223,5.496 0.817,1.037 1.209,2.185 1.16,2.405 z M 313.511,80.33 c 0.035,0.004 1.993,1.387 3.317,1.387 0.305,0 0.556,-0.073 0.746,-0.218 1.144,-0.873 3.164,-4.963 3.185,-5.004 a 0.033,0.033 0 0 1 0.012,-0.002 c 0.021,0 0.06,0.012 0.102,0.063 0.143,0.173 0.32,0.779 -0.095,2.89 -0.573,2.915 -5.46,11.409 -5.509,11.494 l -0.014,0.024 z m -23.319,8.228 c -0.068,0 -0.328,-0.328 -0.357,-0.365 h -0.005 c -0.084,0 -1.307,-0.076 -7.162,-1.663 -1.552,-0.421 -2.664,-1.266 -3.305,-2.514 -1.455,-2.831 0.005,-6.832 0.021,-6.872 l 0.171,0.003 c 0.054,-0.01 0.118,-0.021 0.192,-0.021 0.84,0 1.733,1.641 2.729,5.017 1.004,3.402 2.068,4.116 2.783,4.116 0.453,0 0.806,-0.282 0.978,-0.453 a 0.618,0.618 0 0 1 -0.37,0.126 c -0.317,0 -0.811,-0.259 -1.362,-1.491 -1.013,-2.266 -2.038,-6.622 -2.048,-6.666 0.036,0 1.704,0.899 5.345,6.656 1.659,2.622 2.47,4.006 2.41,4.114 z m 156.904,-0.841 c -0.175,0 -0.35,-0.004 -0.525,-0.013 -2.33,-0.119 -5.978,-1.953 -10.596,-4.276 -6.811,-3.425 -15.285,-7.687 -23.608,-8.393 a 49.386,49.386 0 0 0 -4.145,-0.179 c -8.811,0 -13.817,2.528 -15.561,3.615 0.089,-0.145 0.202,-0.303 0.333,-0.485 1.093,-1.522 3.366,-4.69 9.804,-6.799 1.747,-0.574 3.734,-0.864 5.907,-0.864 7.344,0 16.388,3.872 28.675,10.401 5.197,2.76 10.548,3.462 14.918,3.462 3.432,0 5.266,-0.912 5.283,-0.921 -0.037,0.061 -4.962,4.452 -10.485,4.452 z m -298.16,-1.216 c -2.035,0 -2.897,-0.489 -3.263,-0.899 -0.338,-0.38 -0.301,-0.744 -0.3,-0.748 0.131,0.226 1.313,0.471 2.893,0.471 0.919,0 2.302,-0.083 3.67,-0.479 2.796,-0.813 16.773,-6.441 20.695,-8.539 3.635,-1.944 11.112,-3.728 12.004,-3.937 a 7.105,7.105 0 0 1 -0.774,0.034 c -1.315,0 -3.566,-0.222 -3.859,-1.708 a 0.936,0.936 0 0 1 0.203,-0.792 c 1.043,-1.311 5.486,-1.501 5.739,-1.511 h -10e-4 c -0.371,0 -8.951,-0.467 -14.131,-2.896 -5.275,-2.476 -3.507,-7.05 -3.489,-7.096 0.019,0.021 0.041,1.693 1.862,3.956 1.59,1.976 2.408,2.241 4.592,2.952 0.344,0.112 0.721,0.235 1.14,0.377 0.918,0.311 2.535,0.461 4.945,0.461 2.262,0 4.852,-0.129 7.357,-0.253 2.157,-0.107 4.194,-0.208 5.728,-0.208 4.864,0 12.022,3.917 12.094,3.957 0.005,0.026 -0.014,0.436 -1.644,0.436 -0.706,0 -1.467,-0.262 -2.52,-0.625 -1.348,-0.464 -3.194,-1.101 -5.883,-1.458 a 11.7,11.7 0 0 0 -1.528,-0.093 c -4.535,0 -10.294,2.154 -10.352,2.176 l 2.457,0.606 c 0.726,0.184 1.461,0.27 2.314,0.27 0.952,0 1.953,-0.111 3.013,-0.229 a 54.62,54.62 0 0 1 2.662,-0.249 c 0.13,-0.008 0.266,-0.012 0.405,-0.012 3.36,0 9.254,2.333 10.259,3.764 0.211,0.3 0.274,0.479 0.211,0.6 -0.067,0.13 -0.285,0.188 -0.706,0.188 -0.709,0 -1.974,-0.165 -4.068,-0.437 a 353.544,353.544 0 0 0 -7.946,-0.96 19.909,19.909 0 0 0 -2.13,-0.114 c -6.472,0 -12.902,2.984 -19.709,6.144 -4.42,2.051 -8.991,4.172 -13.606,5.423 -3.5,0.947 -6.304,1.428 -8.334,1.428 z m 243.711,-1.749 c -0.933,-1.263 -1.242,-2.228 -0.975,-3.036 0.461,-1.393 2.546,-2.258 6.486,-3.46 1.23,-0.375 2.677,-0.565 4.299,-0.565 4.88,0 9.862,1.726 9.912,1.743 -0.048,0.04 -4.93,2.107 -9.322,2.107 -0.278,0 -0.555,-0.008 -0.828,-0.025 a 6.477,6.477 0 0 0 -0.434,-0.014 c -2.285,0 -3.272,1.242 -3.992,2.148 -0.45,0.565 -0.805,1.012 -1.316,1.012 -0.196,0 -0.405,-0.066 -0.639,-0.202 -0.521,-0.303 -1.03,-0.456 -1.516,-0.456 a 2.23,2.23 0 0 0 -1.66,0.748 l -0.008,0.01 z m -75.993,-5.57 c -0.14,0 -0.675,-0.193 -1.693,-2.68 -1.436,-3.5 2.855,-9.087 2.899,-9.143 0.018,0.021 0.015,1.508 -0.271,3.838 -0.042,0.344 0.014,0.605 0.166,0.777 0.151,0.172 0.403,0.259 0.747,0.259 1.186,0 3.109,-1.036 3.129,-1.046 l -4.914,7.673 a 0.221,0.221 0 0 1 0.06,0.24 0.124,0.124 0 0 1 -0.123,0.082 z m 75.418,-0.317 c -0.003,-0.017 0.188,-0.168 0.578,-0.411 -0.214,0.305 -0.363,0.424 -0.501,0.424 z M 281.065,75.243 c -0.971,0 -2.513,-0.391 -4.345,-2.253 -2.621,-2.663 -6.782,-7.071 -6.771,-7.098 0.071,0.005 5.379,0.456 8.016,3.753 2.634,3.294 4.084,5.395 4.098,5.416 -0.007,0.016 -0.373,0.182 -0.998,0.182 z m 120.858,-4.935 c 2.779,-6.784 12.181,-6.784 16.698,-6.784 l 1.282,0.002 c 5.155,0 15.257,-5.54 15.358,-5.596 l -0.857,2.074 c -0.819,1.947 -7.599,5.292 -15.949,5.898 -8.022,0.581 -16.436,4.38 -16.52,4.418 l -0.022,0.01 z" transform="matrix(1.5,0,0,1.5,0,-6.5005741)" fill="#343434" fill-rule="evenodd" filter="url(#f)" id="path5610" />
<g id="g" transform="translate(0,-6.5005741)">
<path d="m 228.728,66.319 c 0,0 -5.839,0.209 -6.096,3.748 -0.255,3.542 2.254,7.811 5.226,9.111 2.971,1.303 7.531,1.667 12.909,0.21 5.377,-1.459 13.523,-5.312 17.314,-5.155 3.791,0.157 9.169,0.313 10.04,0.261 l 0.871,-0.052 c 0,0 -0.666,-1.25 -6.608,-1.511 -5.943,-0.261 -10.092,-1.042 -13.473,0.574 -3.381,1.612 -7.53,3.747 -12.96,3.487 -5.43,-0.261 -7.837,0.207 -9.886,-2.396 -2.05,-2.601 -1.23,-6.557 2.663,-8.277 z" fill="#a8121c" stroke="#780000" transform="scale(1.5)" id="path5612" />
<path d="m 243.532,56.011 c 0,0 -0.769,3.384 -2.048,4.165 -1.281,0.781 -2.847,2.457 -2.847,5.789 0,3.331 1.515,8.528 1.515,8.528 0,0 2.715,-5.155 7.02,-5.05 4.302,0.104 8.195,1.666 11.014,1.77 2.817,0.104 9.989,1.718 10.962,2.551 0.973,0.833 1.024,1.25 1.024,1.25 0,0 -4.866,0.157 -6.403,0.104 -1.537,-0.052 -3.687,0.104 -5.378,1.354 -1.691,1.251 -5.276,3.386 -6.762,3.541 -1.485,0.157 -3.278,0.052 -3.278,0.052 0,0 1.587,2.24 5.021,2.134 3.431,-0.104 5.174,-1.456 6.301,-2.603 1.127,-1.146 1.946,-2.03 3.534,-1.927 1.589,0.105 6.813,-1.822 8.094,-1.666 1.281,0.157 0.154,-2.862 -1.691,-3.801 -1.844,-0.937 -2.304,-1.716 -5.02,-2.81 -2.715,-1.095 -4.099,-1.72 -7.633,-2.345 -3.536,-0.623 -4.252,-0.155 -5.584,-1.77 -1.332,-1.613 -0.666,-2.447 -1.537,-3.8 -0.87,-1.354 -2.356,-2.656 -3.022,-3.541 -0.669,-0.885 -3.23,-1.977 -3.282,-1.925 z" fill="#a8121c" stroke="#780000" transform="scale(1.5)" id="path5614" />
<path d="m 248.698,62.937 c 1.5,1.874 1.124,3.374 -1.25,3.374 -2.376,0 -4.626,3.375 -5.375,3.375 -0.749,0 -1,-4 0.875,-6.125 1.875,-2.125 3.75,-2.374 3.75,-2.374 0.375,0 0.499,-0.126 2,1.75 z" fill="#550000" transform="scale(1.5)" id="path5616" />
</g>
<use transform="matrix(-1,0,0,1,900,-4.3644969e-8)" width="600" height="400" xlink:href="#g" id="use5619" x="0" y="0" />
</svg>