<svg fill-rule="evenodd" height="768" image-rendering="optimizeQuality" shape-rendering="geometricPrecision" text-rendering="geometricPrecision" viewBox="0 0 1024 768" width="1024" xmlns="http://www.w3.org/2000/svg"><path d="m0 0h1024v768h-1024z" fill="#3d8e33"/><g fill="#fff"><path d="m653 685c-136-32-238-155-238-301s102-269 238-301c-23-6-47-9-72-9-171 0-310 139-310 310s139 310 310 310c25 0 49-3 72-9z"/><path d="m677 119 14 45h46l-37 27 14 44-37-27-38 27 15-44-38-27h46zm-7 23"/><path d="m677 254 14 44h46l-37 27 14 44-37-27-38 27 15-44-38-27h46zm-7 22"/><path d="m677 390 14 44h46l-37 27 14 44-37-27-38 27 15-44-38-27h46zm-7 22"/><path d="m677 526 14 44h46l-37 27 14 44-37-27-38 27 15-44-38-27h46zm-7 22"/><path d="m938 85c8-6 28-19 31-22 1 4 0 5 0 5-3 5-28 20-32 22 1-2 1-3 1-5z"/><path d="m961 80c0 1 7-6 7-6 1 8 3 20 6 24s13 7 4 23c3-14-6-18-6-19 6 63 2 73-4 83 3-39 0-64-7-105z"/><path d="m842 123c3 1-6 22 6 26 12 3 24-42 35-38 15 5-20 66 14 67 23 0 15-16 15-69 0 0 5-6 6-6 4 55 0 76 19 76 31 0 5-49 6-61 0 0 7-17 7-14 1 19 10 9 12 39-6-6 0-8-10-19 5 25 15 64-8 69-12 4-18 0-26-15-6 17-18 16-26 15-36-8-2-66-13-68s-15 41-32 36-8-38-5-38z"/><path d="m907 74c0 8-2 13 3 13 5 1 3-8 3-13l3-3c1 13 1 17 4 17 5 0 3-5 2-13l3-4c1 4 4 7 4 7h-3c0 5 3 16-6 15-3 0-4 0-6-2-2 2-4 3-6 3-7-1-5-19-1-20z"/><path d="m878 74c-5 5-1 7 2 7 4-4 5-7 4-8s-3-1-6 1zm-3-1c-6 6-2 11 1 12-3 2-8 5-19 11 1 0 3 1 5 0 7-3 15-8 19-11 1 0 3 1 5 2 0-3 2-4-2-5 4-4 6-13 1-13-4 0-8 1-10 4z"/><path d="m912 48c0-1 3-6 4-7 6 15 1 24-2 27 2-13-1-18-2-20z"/><path d="m84 586c0 4-1 9-1 13 11 16 25 47 23 52-7 16-29 36-45 39-17 2-15-15-9-37-14 31-11 47 4 51 11 3 44-16 55-45 5 18 14 31 28 37 27 9 41 5 49 2-5 1-17 2-22-2-1-2-1-5-2-7-11-2-19-6-23-10 1-6 30-20 68-35 8-4 6-7 8-14-32 6-56 9-85 10 9.32-7.988 19.543-14.64 29.75-19.969 5.256 3.756 11.044 6.168 14.25 6.969-7-4-9-6-9-6v-3.594a166.378 166.378 0 0 1 10-4.406c6-5 5-9 5-13-5-9-27-15-30-5-2.928 6.587-1.572 12.372 1.719 17.156-10.489 6.636-20.609 14.455-30.719 23.844-3 0-4 3-5 6 0 4-1 8-1 12 14-1 31-2 46-3-15 9-29 19-27 30-26-10-18-63-52-95zm73.844 15.188c2.719-.141 5.156 1.562 8.156 3.812a192.565 192.565 0 0 0 -6.844 3.844c-4.075-4.516-5.5-6.844-4.156-6.844 1-.5 1.938-.766 2.844-.813z"/><path d="m123 595c-2-5 0-7 2-1 4 10 10 8 5 0-4-5-2-8 3-1 2 4 4 8 0 12-3 2-6 1-8-2-1 5-9 5-10 1-2-11 0-17 2-5 2 5 9 5 6-4z"/></g></svg>