<?xml version="1.0" encoding="UTF-8" standalone="no"?>
<!-- Created with Inkscape (http://www.inkscape.org/) -->

<svg
   xmlns:dc="http://purl.org/dc/elements/1.1/"
   xmlns:cc="http://creativecommons.org/ns#"
   xmlns:rdf="http://www.w3.org/1999/02/22-rdf-syntax-ns#"
   xmlns:svg="http://www.w3.org/2000/svg"
   xmlns="http://www.w3.org/2000/svg"
   xmlns:sodipodi="http://sodipodi.sourceforge.net/DTD/sodipodi-0.dtd"
   xmlns:inkscape="http://www.inkscape.org/namespaces/inkscape"
   id="svg2"
   sodipodi:version="0.32"
   inkscape:version="0.48.1 "
   width="1116.1417"
   height="637.79529"
   version="1.0"
   sodipodi:docname="Flag_of_Malta.svg">
  <metadata
     id="metadata7">
    <rdf:RDF>
      <cc:Work
         rdf:about="">
        <dc:format>image/svg+xml</dc:format>
        <dc:type
           rdf:resource="http://purl.org/dc/dcmitype/StillImage" />
      </cc:Work>
    </rdf:RDF>
  </metadata>
  <defs
     id="defs5" />
  <sodipodi:namedview
     inkscape:window-height="1004"
     inkscape:window-width="1280"
     inkscape:pageshadow="2"
     inkscape:pageopacity="1"
     borderopacity="1.0"
     bordercolor="#666666"
     pagecolor="#ffffff"
     id="base"
     showgrid="false"
     inkscape:grid-points="true"
     gridtolerance="0.5cm"
     inkscape:zoom="0.83591535"
     inkscape:cx="371.44909"
     inkscape:cy="318.89762"
     inkscape:window-x="-8"
     inkscape:window-y="-8"
     inkscape:current-layer="svg2"
     inkscape:document-units="cm"
     showguides="false"
     inkscape:guide-bbox="true"
     guidetolerance="0.5cm"
     units="cm"
     fit-margin-top="0"
     fit-margin-left="0"
     fit-margin-right="0"
     fit-margin-bottom="0"
     inkscape:window-maximized="1">
    <sodipodi:guide
       orientation="vertical"
       position="70.633248,-2.2888184e-005"
       id="guide4847" />
    <sodipodi:guide
       orientation="horizontal"
       position="0,566.33481"
       id="guide4849" />
    <sodipodi:guide
       orientation="horizontal"
       position="0,495.70157"
       id="guide4851" />
    <sodipodi:guide
       orientation="horizontal"
       position="0,424.64537"
       id="guide4853" />
    <sodipodi:guide
       orientation="vertical"
       position="141.68945,-2.2888184e-005"
       id="guide4855" />
    <sodipodi:guide
       orientation="vertical"
       position="212.3227,-2.2888184e-005"
       id="guide4857" />
    <inkscape:grid
       id="GridFromPre046Settings"
       type="xygrid"
       originx="0px"
       originy="0cm"
       spacingx="0.5cm"
       spacingy="0.5cm"
       color="#0000ff"
       empcolor="#0000ff"
       opacity="0.2"
       empopacity="0.4"
       empspacing="5"
       units="cm"
       visible="true"
       enabled="true"
       snapvisiblegridlinesonly="true" />
  </sodipodi:namedview>
  <rect
     style="fill:#0f47af;fill-opacity:1;stroke:none"
     id="rect1303"
     width="863.72382"
     height="70.866142"
     x="252.41791"
     y="0" />
  <rect
     y="70.866142"
     x="0"
     height="70.866142"
     width="1116.1417"
     id="rect2178"
     style="fill:#ffffff;fill-opacity:1;stroke:none" />
  <rect
     y="141.7323"
     x="252.41791"
     height="70.866142"
     width="863.72382"
     id="rect3059"
     style="fill:#0f47af;fill-opacity:1;stroke:none" />
  <rect
     style="fill:#ffffff;fill-opacity:1;stroke:none"
     id="rect3061"
     width="1116.1417"
     height="70.866142"
     x="0"
     y="212.59845" />
  <g
     transform="translate(0,283.46459)"
     id="g3063">
    <rect
       y="1.2495386e-005"
       x="0"
       height="70.866142"
       width="1116.1417"
       id="rect3065"
       style="fill:#0f47af;fill-opacity:1;stroke:none" />
    <rect
       style="fill:#ffffff;fill-opacity:1;stroke:none"
       id="rect3067"
       width="1116.1417"
       height="70.866142"
       x="0"
       y="70.866158" />
  </g>
  <rect
     y="425.19681"
     x="8.6506516e-006"
     height="70.866142"
     width="1116.1417"
     id="rect3071"
     style="fill:#0f47af;fill-opacity:1;stroke:none" />
  <rect
     style="fill:#ffffff;fill-opacity:1;stroke:none"
     id="rect3073"
     width="1116.1417"
     height="70.866142"
     x="8.6506516e-006"
     y="496.06296" />
  <rect
     style="fill:#0f47af;fill-opacity:1;stroke:none"
     id="rect3077"
     width="1116.1417"
     height="70.866142"
     x="0"
     y="566.92914" />
  <rect
     style="fill:#e60000;fill-opacity:1;stroke:none"
     id="rect3097"
     width="283.46457"
     height="283.46457"
     x="0"
     y="0" />
  <path
     sodipodi:type="star"
     style="fill:#ffffff;fill-opacity:1;stroke:none"
     id="path3972"
     sodipodi:sides="5"
     sodipodi:cx="425.19684"
     sodipodi:cy="212.59843"
     sodipodi:r1="354.33069"
     sodipodi:r2="132.87401"
     sodipodi:arg1="0.9272952"
     sodipodi:arg2="1.5556137"
     inkscape:flatsided="false"
     inkscape:rounded="0"
     inkscape:randomized="0"
     d="M 637.79526,496.06298 427.21414,345.45713 221.30256,502.38691 299.46409,255.57259 86.584825,108.23301 345.47243,106.29923 419.81739,-141.69142 501.65719,103.92775 760.48417,98.000686 552.17634,251.73546 z"
     transform="matrix(0.08539474,0.00170221,-0.00170221,0.08539474,35.77108,54.079518)" />
  <path
     transform="matrix(0.08539474,0.00170221,-0.00170221,0.08539474,105.1561,54.079518)"
     d="M 637.79526,496.06298 427.21414,345.45713 221.30256,502.38691 299.46409,255.57259 86.584825,108.23301 345.47243,106.29923 419.81739,-141.69142 501.65719,103.92775 760.48417,98.000686 552.17634,251.73546 z"
     inkscape:randomized="0"
     inkscape:rounded="0"
     inkscape:flatsided="false"
     sodipodi:arg2="1.5556137"
     sodipodi:arg1="0.9272952"
     sodipodi:r2="132.87401"
     sodipodi:r1="354.33069"
     sodipodi:cy="212.59843"
     sodipodi:cx="425.19684"
     sodipodi:sides="5"
     id="path4859"
     style="fill:#ffffff;fill-opacity:1;stroke:none"
     sodipodi:type="star" />
  <path
     sodipodi:type="star"
     style="fill:#ffffff;fill-opacity:1;stroke:none"
     id="path4861"
     sodipodi:sides="5"
     sodipodi:cx="425.19684"
     sodipodi:cy="212.59843"
     sodipodi:r1="354.33069"
     sodipodi:r2="132.87401"
     sodipodi:arg1="0.9272952"
     sodipodi:arg2="1.5556137"
     inkscape:flatsided="false"
     inkscape:rounded="0"
     inkscape:randomized="0"
     d="M 637.79526,496.06298 427.21414,345.45713 221.30256,502.38691 299.46409,255.57259 86.584825,108.23301 345.47243,106.29923 419.81739,-141.69142 501.65719,103.92775 760.48417,98.000686 552.17634,251.73546 z"
     transform="matrix(0.08539474,0.00170221,-0.00170221,0.08539474,175.7374,52.883228)" />
  <path
     transform="matrix(0.08539474,0.00170221,-0.00170221,0.08539474,34.57479,123.46449)"
     d="M 637.79526,496.06298 427.21414,345.45713 221.30256,502.38691 299.46409,255.57259 86.584825,108.23301 345.47243,106.29923 419.81739,-141.69142 501.65719,103.92775 760.48417,98.000686 552.17634,251.73546 z"
     inkscape:randomized="0"
     inkscape:rounded="0"
     inkscape:flatsided="false"
     sodipodi:arg2="1.5556137"
     sodipodi:arg1="0.9272952"
     sodipodi:r2="132.87401"
     sodipodi:r1="354.33069"
     sodipodi:cy="212.59843"
     sodipodi:cx="425.19684"
     sodipodi:sides="5"
     id="path4865"
     style="fill:#ffffff;fill-opacity:1;stroke:none"
     sodipodi:type="star" />
  <path
     sodipodi:type="star"
     style="fill:#ffffff;fill-opacity:1;stroke:none"
     id="path4867"
     sodipodi:sides="5"
     sodipodi:cx="425.19684"
     sodipodi:cy="212.59843"
     sodipodi:r1="354.33069"
     sodipodi:r2="132.87401"
     sodipodi:arg1="0.9272952"
     sodipodi:arg2="1.5556137"
     inkscape:flatsided="false"
     inkscape:rounded="0"
     inkscape:randomized="0"
     d="M 637.79526,496.06298 427.21414,345.45713 221.30256,502.38691 299.46409,255.57259 86.584825,108.23301 345.47243,106.29923 419.81739,-141.69142 501.65719,103.92775 760.48417,98.000686 552.17634,251.73546 z"
     transform="matrix(0.08539474,0.00170221,-0.00170221,0.08539474,105.1561,124.66079)" />
  <path
     transform="matrix(0.08539474,0.00170221,-0.00170221,0.08539474,175.7374,124.66079)"
     d="M 637.79526,496.06298 427.21414,345.45713 221.30256,502.38691 299.46409,255.57259 86.584825,108.23301 345.47243,106.29923 419.81739,-141.69142 501.65719,103.92775 760.48417,98.000686 552.17634,251.73546 z"
     inkscape:randomized="0"
     inkscape:rounded="0"
     inkscape:flatsided="false"
     sodipodi:arg2="1.5556137"
     sodipodi:arg1="0.9272952"
     sodipodi:r2="132.87401"
     sodipodi:r1="354.33069"
     sodipodi:cy="212.59843"
     sodipodi:cx="425.19684"
     sodipodi:sides="5"
     id="path4869"
     style="fill:#ffffff;fill-opacity:1;stroke:none"
     sodipodi:type="star" />
  <path
     sodipodi:type="star"
     style="fill:#ffffff;fill-opacity:1;stroke:none"
     id="path4871"
     sodipodi:sides="5"
     sodipodi:cx="425.19684"
     sodipodi:cy="212.59843"
     sodipodi:r1="354.33069"
     sodipodi:r2="132.87401"
     sodipodi:arg1="0.9272952"
     sodipodi:arg2="1.5556137"
     inkscape:flatsided="false"
     inkscape:rounded="0"
     inkscape:randomized="0"
     d="M 637.79526,496.06298 427.21414,345.45713 221.30256,502.38691 299.46409,255.57259 86.584825,108.23301 345.47243,106.29923 419.81739,-141.69142 501.65719,103.92775 760.48417,98.000686 552.17634,251.73546 z"
     transform="matrix(0.08539474,0.00170221,-0.00170221,0.08539474,34.57479,195.24209)" />
  <path
     transform="matrix(0.08539474,0.00170221,-0.00170221,0.08539474,105.1561,196.43839)"
     d="M 637.79526,496.06298 427.21414,345.45713 221.30256,502.38691 299.46409,255.57259 86.584825,108.23301 345.47243,106.29923 419.81739,-141.69142 501.65719,103.92775 760.48417,98.000686 552.17634,251.73546 z"
     inkscape:randomized="0"
     inkscape:rounded="0"
     inkscape:flatsided="false"
     sodipodi:arg2="1.5556137"
     sodipodi:arg1="0.9272952"
     sodipodi:r2="132.87401"
     sodipodi:r1="354.33069"
     sodipodi:cy="212.59843"
     sodipodi:cx="425.19684"
     sodipodi:sides="5"
     id="path4873"
     style="fill:#ffffff;fill-opacity:1;stroke:none"
     sodipodi:type="star" />
  <path
     sodipodi:type="star"
     style="fill:#ffffff;fill-opacity:1;stroke:none"
     id="path4875"
     sodipodi:sides="5"
     sodipodi:cx="425.19684"
     sodipodi:cy="212.59843"
     sodipodi:r1="354.33069"
     sodipodi:r2="132.87401"
     sodipodi:arg1="0.9272952"
     sodipodi:arg2="1.5556137"
     inkscape:flatsided="false"
     inkscape:rounded="0"
     inkscape:randomized="0"
     d="M 637.79526,496.06298 427.21414,345.45713 221.30256,502.38691 299.46409,255.57259 86.584825,108.23301 345.47243,106.29923 419.81739,-141.69142 501.65719,103.92775 760.48417,98.000686 552.17634,251.73546 z"
     transform="matrix(0.08539474,0.00170221,-0.00170221,0.08539474,176.9337,196.43839)" />
</svg>
