<?xml version="1.0" encoding="UTF-8" standalone="no"?>
<svg xmlns="http://www.w3.org/2000/svg" xmlns:xlink="http://www.w3.org/1999/xlink"
   width="1200" height="600" viewBox="-15 -7.5 30 15"
   id="Flag_of_New_Zealand_1867">
  <defs>
    <clipPath id="border">
      <rect width="30" height="15" x="-15" y="-7.5" id="rect6"/>
    </clipPath>
  </defs>
  <use xlink:href="#rect6" style="fill:#012169;fill-opacity:1"/>
  <g id="canton"
     transform="matrix(0.5,0,0,0.5,-7.5,-3.75)">
    <g clip-path="url(#border)" style="fill:none">
      <path id="diags_white"
         d="M -20,-10 L 20,10 M -20,10 L 20,-10"
         style="stroke:#ffffff;stroke-width:3"/>
      <path id="diags_red"
         d="M -20,-10 L 20,10 M -20,10 L 20,-10"
         style="stroke:#c8102e;stroke-width:2"/>
      <path id="eraser_white"
         d="M 0,0 L 20,10 H17 L -3,0 M 0,0 L 20,-10 H23 L 3,0 Z M 0,0 L -20,10 H-23 L -3,0 M 0,0 L -20,-10 H-17 L 3,0 Z"
         style="fill:#ffffff;stroke:none"/>
      <path id="cross_white"
         d="M -20,0 H20 M 0,-10 V10"
         style="stroke:#ffffff;stroke-width:5"/>
      <path id="cross_red"
         d="M -20,0 H20 M 0,-10 V10"
         style="stroke:#c8102e;stroke-width:3"/>
    </g>
  </g>
  <path
     d="M 9.1377546,3.6362693 V6.2548736 H8.5575254 L 7.3632113,4.5692612 V6.2548736 H6.714929 V3.6362693 H7.3632113 L 8.5575254,5.3091362 V3.6362693 z "
     style="fill:#c8102e;stroke:#ffffff;stroke-width:0.14682451"/>
  <path
     d="M 11.904296,6.265464 H9.6229993 V5.759416 L 11.124184,4.1833275 H9.6229993 V3.6343898 H11.904296 V4.1833275 L 10.414216,5.759416 H11.904296 z "
     style="fill:#c8102e;stroke:#ffffff;stroke-width:0.14682451"/>
</svg>