<svg height="600" width="1200" xmlns="http://www.w3.org/2000/svg">
    <rect x="0" y="0" width="1200" height="600" fill="#c00" />
    <path
        d="m240.00001 37.5-8.41933 25.91188h-27.24517l22.04177 16.01424-8.41933 25.91188 22.04206-16.01454 22.04207 16.01454-8.41933-25.91188 22.04176-16.01424h-27.24516zm0 13.49998 5.38828 16.58348h17.43718l-14.107 10.24949 5.38827 16.58348-14.10673-10.24921-14.10672 10.24921 5.38827-16.58348-14.10701-10.24949h17.43718z"
        fill="#ffd700" />
    <g fill="#ffd700" transform="matrix(.98931879 0 0 .98673811 43.829273 3.765941)">
        <path
            d="m137.43744 171.69421 18.86296 18.9937 17.78834-17.66589c27.05847 29.021 55.43807 56.99501 82.28704 86.12782 4.03444 4.06233 10.59815 4.085 14.66056.0506 4.06232-4.03445 4.08499-10.59815.0506-14.66056-28.81871-27.1901-57.72545-54.60143-86.55328-81.89095l23.96499-23.80003-33.34026-4.61605z" />
        <path
            d="m198.2887 110.1955c15.51743 8.7394 27.29872 21.28122 34.2484 34.3924 7.04394 13.28902 10.13959 27.16218 10.20325 38.25433.13054 22.74374-18.43771 41.18184-41.18183 41.18184-12.13597 0-23.04607-5.24868-30.58302-13.60085l-4.16863 3.51033c-.70999-.27231-1.46387-.41221-2.22429-.41276-1.82948.00019-3.56621.80531-4.74859 2.20136-2.97368.38896-5.46251 2.44529-6.40534 5.29224-3.13486 6.28843-8.63524 11.21997-15.29104 13.4776-.0637.0216-.11992.05-.1758.0783-3.07749 1.12758-6.16259 3.1643-8.78919 5.80245-5.19155 5.23656-7.72858 11.93658-6.30024 16.63822-.14098.40857-.21361.83759-.21498 1.26979.00015 2.17082 1.75991 3.93058 3.93073 3.93073.54341-.002 1.08053-.11639 1.57745-.33632 4.69369 1.05881 11.06885-1.54582 16.05444-6.55917 2.82624-2.85072 4.94356-6.22349 5.98303-9.53062 2.31696-6.62278 7.29699-12.01856 13.62281-15.05312.15105-.0725.27303-.14714.38218-.22358 2.12082-1.01408 3.67251-2.92895 4.225-5.2139 9.70222 11.44481 24.25255 18.75299 40.51876 19.13577 29.83352.70205 52.13299-21.25802 53.16414-52.83642.51894-15.89259-5.62993-36.3847-19.6412-53.19089-10.70835-12.84441-26.40987-23.50795-44.18699-28.20777z" />
    </g>
    <g fill-rule="evenodd">
        <rect x="0" y="480" width="1200" height="120" fill="#039" />
        <path
            d="m1200 500c-40 0-80 30-120 30s-80-30-120-30-80 30-120 30-80-30-120-30-80 30-120 30-80-30-120-30-80 30-120 30-80-30-120-30-80 30-120 30-80-30-120-30l0-100c40 0 80 30 120 30s80-30 120-30c40 0 80 30 120 30s80-30 120-30c40 0 80 30 120 30s80-30 120-30c40 0 80 30 120 30s80-30 120-30c40 0 80 30 120 30s80-30 120-30z"
            fill="#fff" />
        <path
            d="m1200 420c-40 0-80 30-120 30s-80-30-120-30c-40 0-80 30-120 30s-80-30-120-30c-40 0-80 30-120 30s-80-30-120-30c-40 0-80 30-120 30s-80-30-120-30c-40 0-80 30-120 30s-80-30-120-30l-0 40c40 0 80 30 120 30s80-30 120-30 80 30 120 30 80-30 120-30 80 30 120 30 80-30 120-30 80 30 120 30 80-30 120-30 80 30 120 30 80-30 120-30z"
            fill="#039" />
    </g>
</svg>