<?xml version="1.0" encoding="utf-8"?>
<!DOCTYPE svg PUBLIC "-//W3C//DTD SVG 1.1//EN" "http://www.w3.org/Graphics/SVG/1.1/DTD/svg11.dtd">
<svg xmlns="http://www.w3.org/2000/svg" xml:space="preserve" width="750" height="500">
  <path fill="#DA121A" d="M0 0h750v500H0V0z"/>
  <path fill="#FFF" d="m23.639 0 78.955 47.523-8.022-28.548 46.617 27.917 7.697 28.495 40.517 24.387-6.206-27.608 42.73 25.542 7.439 28.529 41.052 24.71-6.893-28.09 44.334 26.67 7.162 28.266L488.463 279.78l26.696-7.994 43.909 26.572-27.753 7.215 41.223 24.813 27.507-7.354 43.449 26.34-28.108 6.804 41.286 24.85 28.329-6.856 43.533 26.386-26.691 7.66L750 437.198V500h-34.384l-59.154-35.887 8.069 28.532-46.663-27.82-7.743-28.479-40.557-24.304 6.25 27.596-42.771-25.453-7.486-28.514-41.093-24.625 6.938 28.075-44.377-26.578-7.209-28.252-169.608-101.638-26.683 8.049-43.952-26.48 27.74-7.273-41.263-24.727-27.494 7.41-43.493-26.251 28.098-6.861-41.326-24.765-28.319 6.915-43.576-26.295 26.678-7.715L0 67.633V0h23.639z"/>
  <path fill="#FFF" d="m726.361 0-78.955 47.523 8.022-28.548-46.617 27.917-7.697 28.495-40.517 24.387 6.205-27.608-42.729 25.542-7.439 28.529-41.053 24.71 6.893-28.09-44.334 26.67-7.162 28.266-169.443 101.986-26.696-7.994-43.909 26.572 27.752 7.215-41.223 24.813-27.507-7.354-43.45 26.34 28.109 6.804-41.286 24.85-28.33-6.856-43.533 26.386 26.69 7.66L0 437.198V500h34.384l59.154-35.887-8.069 28.532 46.662-27.82 7.744-28.479 40.557-24.304-6.251 27.596 42.772-25.453 7.486-28.514 41.093-24.625-6.938 28.075 44.377-26.578 7.209-28.252 169.608-101.638 26.683 8.049 43.952-26.48-27.74-7.273 41.263-24.727 27.495 7.41 43.492-26.251-28.098-6.861 41.326-24.765 28.318 6.915 43.576-26.295-26.679-7.715L750 67.633V0h-23.639z"/>
</svg>