<?xml version="1.0" encoding="UTF-8" standalone="no"?>
<svg xmlns="http://www.w3.org/2000/svg" width="294" height="435" version="1.0" viewBox="-18 -5 72 88">
  <path fill="#003893" fill-rule="evenodd" d="M-18-14.265306V92.265306h71.471951L-1.6530585 44.4949H53.747461L-18-14.265306z" overflow="visible" style="marker:none"/>
  <path fill="#ce1126" fill-rule="evenodd" d="m-18-11.081633 64.897959 53.142857H-8.2040816L46.897959 89.816326H-18V-11.081633z" overflow="visible" style="marker:none"/>
  <path fill="#fff" fill-rule="evenodd" d="m-22.156055 45.051069-.920502-1.270247-1.336536.821294-.364331-1.525816-1.549093.247307.247306-1.549093-1.525816-.364331.821294-1.336536-1.270246-.920502 1.270246-.920502-.821294-1.336536 1.525816-.364331-.247307-1.549093 1.549094.247307.364331-1.525816 1.336535.821293.920502-1.270246.920503 1.270246 1.336535-.821293.364331 1.525815 1.549093-.247306-.247306 1.549093 1.525816.364331-.821294 1.336535 1.270246.920503-1.270246.920502.821294 1.336535-1.525816.364331.247307 1.549094-1.549094-.247307-.364331 1.525816-1.336535-.821294z" overflow="visible" style="marker:none" transform="matrix(2.21848 0 0 -2.21848 51.414291 157.73947)"/>
  <path fill="none" stroke="#ce1126" stroke-width=".41946921" d="M7.3469386 70.714287a5.1428571 5.1428571 0 1 1-10.2857141 0 5.1428571 5.1428571 0 1 1 10.2857141 0z" overflow="visible" style="marker:none" transform="translate(-.00959577 -1.9848551) scale(1.0304)"/>
  <g fill="#ce1126" fill-rule="evenodd">
    <path d="m1.0714787 74.088521.3505079-.115584h1.8615668l.249107.102247c0 .10059-.4140345.09893-.6589325.199525H1.6492381c-.2823917-.0958-.5777594-.0856-.5777594-.186188z" overflow="visible" style="marker:none"/>
    <path d="M1.5574014 71.574712c-.077447.07271-.2076906.04519-.3125.0625.00602-.01447-.017572.01746-.03125.03125-.027356.02758-.087484.05895-.15625.125-.0687655.06605-.14410725.161532-.1875.28125-.0433928.119718-.0565715.284025 0 .4375.1349399.187066.3364606.308814.5625.40625.2254961.06498.4681706.07484.71875.0625.2505794-.01234.4858403-.06143.6875-.125s.3792369-.133472.46875-.3125l-.3125-.125c.00788-.01576-.083842.07262-.25.125-.1661581.05238-.3710937.08279-.59375.09375-.2226563.01096-.4526081-.01282-.625-.0625s-.2714791-.132542-.3125-.21875c-.017815-.06544-.045498-.116941-.03125-.15625.017005-.04692.075127-.108349.125-.15625.049873-.0479.098705-.09822.15625-.15625.028772-.02901.070956-.03899.09375-.09375.022793-.05476.031192-.156365 0-.21875z"/>
    <path d="M-61.314284 46.714287a.2857145.2857145 0 1 1-.571429 0 .2857145.2857145 0 1 1 .571429 0z" overflow="visible" style="marker:none" transform="matrix(2.42552 0 0 1.82142 149.55127 -14.99821839)"/>
    <path d="M-61.314284 46.714287a.2857145.2857145 0 1 1-.571429 0 .2857145.2857145 0 1 1 .571429 0z" overflow="visible" style="marker:none" transform="matrix(2.42552 0 0 1.82142 153.79611 -14.99821839)"/>
    <path d="m1.136483 66.730962-.21874997.21875c.24125107.241253.49300597.242084.71874997.25.00322.000113-.0032.03115 0 .03125-.0002819.0095.044048.05061.0625.15625.021709.124281.018261.294792.03125.46875.025977.347916.035986.748389.09375 1l.03125.125h.40625c.048534.000002.21875 0 .21875 0h.15625l.03125-.15625c.053868-.254252.066062-.621495.09375-.96875.013844-.173628.040823-.345673.0625-.46875.018161-.103119.032864-.14774.03125-.15625-.0003123-.0016.00378-.03503 0-.03125.226561-.0075.5072976-.0073.75-.25l-.25-.21875c-.2044926.204491-.3801061.187503-.625.1875h-.0625l-.0625.0625c-.1087108.108712-.099577.1994-.125.34375s-.048341.322424-.0625.5c-.02458.308268-.062203.602739-.09375.8125-.029972 0-.048646.000001-.0625 0h-.09375c-.031622-.201369-.070682-.503549-.09375-.8125-.013288-.17797-.00568-.322361-.03125-.46875s-.04753-.266277-.15625-.375l-.0625-.0625h-.0625c-.2448986 0-.4205099.01699-.625-.1875zm-3.02891112 2.4301901c1.07689883-.210652 1.99471966-.361032 3.1617115-.02153l-.029314-.737858c-1.20709206-.346833-2.20386042-.06945-3.0091689.335137-.2197491.1104-.1472969.221486-.1232281.424247zm8.3078223 0c-1.0768989-.210652-1.9947197-.361032-3.1617115-.021526l.029314-.737858c1.207092-.346833 2.2038604-.06945 3.0091689.335137.2197491.1104.1472969.221486.1232281.424247zM-.625 69.53125c-.36398002.05155-.7044897.162941-1.03125.21875l.03125.3125c.71675866-.122418 1.31720776-.397359 2.03125-.09375l.125-.3125c-.42344936-.18005-.79226998-.176546-1.15625-.125zm5.78125 0c-.36398-.051546-.7328006-.05505-1.15625.125l.125.3125c.7140424-.303609 1.2832413-.02867 2 .09375l.0625-.3125c-.3267603-.055809-.66727-.167204-1.03125-.21875z"/>
  </g>
  <g fill-rule="evenodd">
    <g fill="#fff">
      <path d="m-6.3826511 16.086732.5127552 3.214286-3.1607148.75 1.7066329 2.770409-2.6326535 1.905612 2.6326535 1.905613-1.7066329 2.770409 3.1607148.757653-.5127552 3.206633 3.2142862-.512755.7500002 3.160715 2.77040858-1.69898L2.2576564 36.94898l1.9132657-2.632653 2.7627555 1.69898.7576532-3.160715 3.2066332.512755-.512755-3.206633 3.160715-.757653-1.69898-2.770409 2.632653-1.905613-2.632653-1.905612 1.69898-2.770409-3.160715-.75.512755-3.214286-2.5561229.405612c.6978589 1.107642 1.102041 2.413916 1.102041 3.818878 0 3.966956-3.2192694 7.186226-7.1862257 7.186226-3.9669565.000003-7.1862256-3.21927-7.1862256-7.186226 0-1.404482.4046217-2.711476 1.102041-3.818878l-2.5561229-.405612z" overflow="visible" style="marker:none"/>
      <path d="M7.4991367 23.524641a5.0651937 5.0651937 0 1 1-10.1303873 0 5.0651937 5.0651937 0 1 1 10.1303873 0z" overflow="visible" style="marker:none" transform="translate(-.1731681 -.6568157)"/>
    </g>
    <g fill="#ce1126">
      <path d="m1.68265 24.375033-.3125.125c.1633373.326675.5231632.46875.875.46875.3518368 0 .7429139-.142075.90625-.46875l-.3125-.125c-.08156.163122-.333342.25-.59375.25s-.4809387-.08688-.5625-.25z"/>
      <path d="M-61.314284 46.714287a.2857145.2857145 0 1 1-.571429 0 .2857145.2857145 0 1 1 .571429 0z" overflow="visible" style="marker:none" transform="matrix(2.14286 0 0 1.82142 132.607709 -62.7298081)"/>
      <path d="M-61.314284 46.714287a.2857145.2857145 0 1 1-.571429 0 .2857145.2857145 0 1 1 .571429 0z" overflow="visible" style="marker:none" transform="matrix(2.14286 0 0 1.82142 135.913829 -62.7298081)"/>
      <path d="m1.167025 18.937533-.25000004.21875c.24270114.2427.52343914.24247.75000004.25.00301.0001-.003.03116 0 .03125.0008057.01127.013062.05212.03125.15625.021709.124281.049511.294792.0625.46875.025977.347916.035986.748389.09375 1l.03125.125h.375c.048521.000001.25 0 .25 0h.15625l.03125-.15625c.053868-.254253.066062-.621495.09375-.96875.013844-.173628.00957-.345673.03125-.46875.018425-.104616.065339-.149638.0625-.15625-.000501-.0012.00349-.03474 0-.03125.2257422-.0079.477497-.0087.71875-.25l-.21875-.21875c-.2044921.20449-.3801034.1875-.625.1875h-.0625l-.0625.0625c-.1087107.108711-.099577.1994-.125.34375s-.048341.322424-.0625.5c-.02458.308268-.062203.602739-.09375.8125h-.15625c-.031622-.201369-.070682-.503549-.09375-.8125-.013288-.17797-.03693-.322361-.0625-.46875-.02557-.146389-.016278-.266277-.125-.375l-.0625-.0625h-.0625c-.2448986 0-.4205101.01699-.625-.1875zm-1.9763519 3.3401499c.65859518-.511671 1.33830944-.97704 2.2395137-.956846l-.29861357-.54318c-.93110353-.01742-1.63951708.454801-1.95899653 1.133956-.082163.174661-.048679.208993.018096.36607zm6.1402035 0c-.6585942-.511672-1.3383085-.97704-2.2395127-.956846l.2986136-.54318c.9311034-.01742 1.639517.4548 1.9589956 1.133955.082164.174662.048679.208993-.018096.366071zM1.3860179 26.346869c.1943914 0 .3082628.143885.5831699.143885h.5831743c.2749071 0 .3887786-.143885.58317-.143885 0-.143883-.1943914-.287765-.3887807-.287765h-.9719528c-.1943893 0-.3887807.143882-.3887807.287765z"/>
      <path d="M.15625 21.90625c-.27139276.06304-.49547002.157925-.71875.21875l.09375.3125c.26592814-.07244.49839797-.198819.71875-.25.22035203-.05118.41235987-.0404.65625.125l.15625-.25c-.31338681-.212538-.63485724-.219287-.90625-.15625zm4.1875 0c-.2713928-.06304-.5616131-.05629-.875.15625l.15625.25c.2438902-.165405.435898-.176181.65625-.125.220352.05118.4528218.177556.71875.25l.09375-.3125c-.22328-.06083-.4786072-.155713-.75-.21875z"/>
    </g>
  </g>
</svg>