<?xml version="1.0" encoding="UTF-8" standalone="no"?>
<!-- Created with Inkscape (http://www.inkscape.org/) -->

<svg
   xmlns:svg="http://www.w3.org/2000/svg"
   xmlns="http://www.w3.org/2000/svg"
   version="1.0"
   width="750"
   height="500"
   viewBox="0 0 853.33333 426.66667"
   id="svg2449"
   xml:space="preserve"
   style="fill-rule:evenodd"><defs
     id="defs2451" /><path
     d="m 853.33333,-71.111115 -853.33333,0 0,568.888895 853.33333,0 0,-568.888895 z"
     id="path2455"
     style="fill:#89c5e3;fill-opacity:1" /><rect
     width="853.33331"
     height="113.77779"
     x="-853.33331"
     y="42.666668"
     transform="scale(-1,1)"
     id="rect2460"
     style="fill:#ffffff" /><rect
     width="853.33331"
     height="113.77779"
     x="-853.33331"
     y="270.22223"
     transform="scale(-1,1)"
     id="rect2462"
     style="fill:#ffffff" /><g
     transform="matrix(0.83333333,0,0,0.83333333,-2.9166667e-5,0.13888833)"
     id="Estrellas"><path
       d="m 512.00004,194.66666 -14.66668,46.66667 -49.33333,0 40,29.33333 L 473.33336,316 l 38.66668,-28 40,28 -16,-45.33334 40,-29.33333 -49.33334,0 -14.66666,-46.66667 z"
       id="path2505"
       style="fill:#ffffff;fill-rule:evenodd" /><g
       transform="matrix(-1,0,0,1,1023.8008,0.33333)"
       id="g2539"><path
         d="m 237.33327,194.66667 14.66667,46.66667 49.33333,0 -40,29.33333 14.66667,45.33334 -38.66667,-28 -40,28 16,-45.33334 -40,-29.33333 49.33333,0 14.66667,-46.66667 z"
         id="path2468"
         style="fill:#ffffff" /><path
         d="M 786.26826,195.33333 800.93493,242 l 49.33333,0 -40,29.33333 14.66667,45.33334 -38.66667,-28 -40,28 16,-45.33334 -40,-29.33333 49.33333,0 14.66667,-46.66667 z"
         id="path2523"
         style="fill:#ffffff;fill-rule:evenodd" /></g></g></svg>