<?xml version="1.0" encoding="UTF-8" standalone="no"?>
<svg xmlns="http://www.w3.org/2000/svg" xmlns:xlink="http://www.w3.org/1999/xlink" width="1200" height="800">
  <defs>
    <path id="a" fill-rule="evenodd" d="m2680.8443 788.61581 1.995 2.51216 3.8421 2.14272 3.3249.14778 3.5466-.36944 3.7682-2.95548 1.6255-2.51216 1.0345-3.91602v-4.06378l-1.6256-2.2905-2.3643-2.73382-2.9556-1.1822s1.536 2.71845 1.9211 3.9899c.3698 1.22108.3941 2.81195.1478 4.0638-.2379 1.20858-.8568 2.73191-1.6255 3.69435-.8515 1.0661-2.4648 2.36388-3.6943 2.95548-1.3729.66057-3.1321.84093-4.6549.88664-1.2898.0387-4.2855-.36943-4.2855-.36943z"/>
    <path id="b" fill-rule="evenodd" stroke-width="4.7250514" d="M2690.3018 778.013c0 1.89653-1.5558 3.43575-3.4727 3.43575s-3.4727-1.53922-3.4727-3.43575c0-.97409.7666-.9438 1.4256-1.56923.624-.59226 1.6935-1.68449 2.6259-1.68449 1.9169 0 2.8939 1.35719 2.8939 3.25372z" overflow="visible" style="marker:none"/>
    <path id="c" fill-rule="evenodd" d="M3083.88532 98.92752c-16.7534 7.19677-42.9394 6.51305-58.7394 15.61427-5.467 3.14913-10.4095 10.40951-14.8707 14.87072-2.8998 2.8998-5.9647 7.90019-9.666 9.66598-3.8463 1.83496-10.6015 3.88085-14.1272 1.48707-4.7911-3.25288-5.2048-18.58841-5.2048-18.58841s-5.6575 8.47598-6.6918 12.64012c-1.4518 5.84505 1.838 14.34014 0 20.07548-1.1712 3.6546-2.4194 9.25651-5.2047 11.89658-2.1108 2.00076-6.0674 4.27241-8.9224 3.71769-1.8836-.36599-5.2048-9.75065-5.2048-9.75065s-3.4851 10.67931-2.2506 17.93278c1.2252 7.19909 7.1663 15.51259 8.1989 17.09811 2.1572 3.31209 3.6005 8.68921 3.7176 12.64012.088 2.9747-1.1582 6.8899-2.2306 9.66597-2.3031 5.96199-8.1789 17.10133-8.1789 17.10133l-14.1271-30.48499-7.4354-40.15097 13.3836-40.15096 30.485-26.02377 39.4075-10.40951 40.8945-5.20476 44.9982 16.57242s-11.974-2.90239-18.2309-.21462z"/>
    <path id="d" d="M2945.2851 215.65321s7.7267-9.54264 8.3559-14.53206c1.019-8.08044-7.3394-18.0136-7.266-26.15771.076-8.41383-.3726-25.97782 7.9926-26.88431 4.7044-.50979 2.8973 13.80015 7.6293 13.80546 4.4885.005 6.1402-8.73385 7.2661-13.07885 1.4763-5.69731-1.934-14.05962 0-19.61828 2.1926-6.30196 9.8449-16.75049 16.3485-15.25866 5.8764 1.34797-.2233 15.70082 4.3596 19.61828 2.6563 2.27061 5.8219-.19647 9.0826-1.45321 8.0018-3.08405 14.6039-17.29878 22.7812-26.8219 9.0939-10.590592 19.3618-16.410976 19.3618-16.410976l-39.5999.363301-48.3191 31.970535-20.7082 43.95947z"/>
    <path id="e" d="m2941.4624 179.10645-1.9063.65625s1.2368 3.51341 2.9063 7.6875 3.7516 8.98513 5.5625 11.78125c1.9124 2.95285 4.9484 6.51558 7.875 8.625.62.44692 1.4528.76717 2.1875 1.0625.7347.29533 1.3437.53125 1.3437.53125s-2.093-3.03803-2.3437-3.21875c-2.5808-1.86016-5.5969-5.34826-7.375-8.09375-1.6121-2.48926-3.7223-7.30545-5.375-11.4375-1.6527-4.13205-2.875-7.59375-2.875-7.59375zM2968.7188 109.5s-1.6207 3.50597-3.4376 7.8125c-1.8168 4.30653-3.8333 9.4066-4.625 12.75-.8675 3.66424-1.1617 8.54419-1.125 12.21875.021 2.08544.3899 5.33498.75 8.125l1.625 5.9375s-.3563-12.23159-.375-14.09375c-.035-3.54812.2659-8.38556 1.0626-11.75.7192-3.03773 2.7295-8.13562 4.5312-12.40625 1.8017-4.27063 3.4062-7.75 3.4062-7.75zm46.3437-18.4375s-8.8081 8.97897-12.0937 13.5625c-2.2391 3.12343-5.3266 7.33496-6.2813 11.09375 0 0-1.3406 4.37304-1.6022 6.3079-.2967 2.19436-.1478 7.3796-.1478 7.3796s2.1372-9.39526 3.5937-12.90625c1.3941-3.36049 3.9224-7.73322 6.0626-10.71875 3.0107-4.19998 11.875-13.3125 11.875-13.3125z"/>
    <path id="f" fill-rule="evenodd" d="M3034.9992 79.884518c-5.4497.06314-10.7142.43059-18.5937 1.21875-3.5897.35907-10.2215 1.73573-19.4688 4.84375-9.2473 3.10802-20.6139 7.91849-31.75 15.187502-16.1314 10.52957-27.2261 24.50766-32.8125 38.65625-9.04 22.89597-4.2805 49.10081 2.0937 69.625 6.3743 20.52419 17.4181 34.45622 17.4181 34.45622l12.3125-6.84375s-10.3475-12.75697-16.2618-31.79997c-5.9143-19.043-9.424-42.55517-2.4375-60.25 4.3916-11.12265 13.5937-23.01528 27.4063-32.03125 9.839-6.42239 20.1645-10.81295 28.5312-13.625002 8.3667-2.81205 15.271-4.07707 16.375-4.1875 15.49-1.54939 18.8762-1.51244 36.0938-.46875 13.8448.83927 30.9427 6.154122 47.6874 12.093752 16.7448 5.93963 33.0861 12.45835 47.0626 15.25 17.6385 3.52311 35.6653 5.47604 49.2187 6.5625 6.7767.54323 12.4432.87239 16.3437 1.0625 1.9503.0951 10.3814.0949 12.4689 0 4.1749-.18981 10.1997-.51975 17.3438-1.0625 14.288-1.0855 33.0422-3.03181 50.7187-6.5625 13.9765-2.79166 30.3178-9.31038 47.0625-15.25s33.8113-11.254472 47.6562-12.093752c17.2176-1.04372 20.6037-1.08063 36.0938.46875 1.104.11043 8.0396 1.37545 16.4062 4.1875 8.3667 2.812052 18.6922 7.202602 28.5313 13.625002 13.8126 9.01598 23.0145 20.90851 27.4063 32.03125 6.9865 17.69484 3.4767 41.20701-2.4376 60.25-5.9142 19.04299-17.4798 32.64764-17.4798 32.64764l11.9576 5.97372s12.5855-13.90967 18.9598-34.43386c6.3742-20.52419 11.1338-46.72902 2.0937-69.625-5.5865-14.14853-16.6811-28.12667-32.8125-38.65625-11.1361-7.269012-22.5027-12.079482-31.75-15.187502s-15.879-4.48469-19.4688-4.84375c-15.7592-1.57631-20.9967-1.55156-38.3437-.5-16.6182 1.0074-34.4975 6.83286-51.5313 12.875-17.0337 6.04214-33.2806 12.359222-45.0937 14.718752-16.7635 3.34833-35.1195 5.25321-49.0625 6.3125-6.9715.52964-12.847.8467-16.9062 1.03125-2.0298.0923-9.235.0921-11.1251 0-3.7804-.18425-9.305-.50208-15.9063-1.03125-13.2026-1.05833-30.7924-2.95661-47.5937-6.3125-11.8131-2.35952-28.0913-8.676612-45.125-14.718752-17.0338-6.04214-34.8818-11.86761-51.5-12.875-8.6736-.52577-14.3316-.78189-19.7813-.71875z"/>
    <path id="g" fill-rule="evenodd" d="M3411.4623 530.78116c-11.2302 2.16277-24.4849 7.80516-32.8438 17.06249-8.1541 9.03066-13.1767 21.25822-14.7812 32.9375-1.9618 14.27908 2.8808 31.67646 7.4374 43.5625 3.6394 9.49352 12.6115 20.79237 20.875 30.8125 8.2636 10.02013 15.7813 18.125 15.7813 18.125l9.5313-8.8125s-7.2907-7.90458-15.2813-17.59375-16.7256-21.79389-18.7813-27.15625c-4.0197-10.4857-7.9867-27.69898-6.6874-37.15625 1.251-9.10568 5.6563-19.45901 11.5624-26 5.1518-5.70544 17.0906-11.35038 25.6563-12.99999 10.3678-1.99665 27.4802.8727 39.8437 3.49999 11.5746 2.45965 25.9187 6.21808 38.2813 8.3125 5.3336.90358 41.5049 6.05605 75.1563 6.0625 34.3491.007 33.0022-12.9937 0-13-32.2797-.006-69.55-5.29051-73-5.87499-11.45-1.93979-25.6687-5.65804-37.7188-8.21875-9.4674-2.01185-41.3523-4.271-45.0312-3.5625z"/>
    <path id="h" fill-rule="evenodd" d="M3565.0796 555.11489h-8.343s-24.5499-1.53763-35.4579-2.60719c-12.2863-1.2047-28.5316-4.01914-40.6722-6.25727-12.4315-2.29176-29.6852-6.31918-42.2366-7.82159-5.9043-.70675-13.8789-.87713-19.8147-.52144-5.3662.32156-12.7622.54995-17.7289 2.6072-7.0239 2.90941-15.6757 9.11506-20.3362 15.12173-4.5588 5.87553-8.0447 15.62859-9.3859 22.94333-1.1006 6.00277-.3419 14.29466.5215 20.33612 1.2131 8.48901 4.4024 19.56543 7.3001 27.63628 2.9092 8.10301 11.9931 26.07196 11.9931 26.07196l-17.7289-23.9862-7.8216-21.37901-2.0857-18.25037 1.0428-14.6003 7.8216-18.77181 9.3859-11.47166 19.8147-10.95022 15.6432-2.6072 39.6294 3.12864 29.2006 7.30015 34.4149 4.69295 30.765 2.08576h14.0788m-.6221 7.30014h8.343l5.7358-7.30014h-14.0788"/>
    <path id="i" d="M3218.65 103.52653s-9.5673 2.14664-21.758 9.20953c-3.4229 1.98307-8.791 9.13448-12.0926 10.90596-6.0284 3.23452-8.547 4.65867-15.2176 6.77767-6.6706 2.119-12.292 2.51731-16.5133 1.88724-4.2213-.63007-9.687-1.97048-10.8517-4.7181-1.1647-2.74762 2.8309-7.54896 2.8309-7.54896s-13.4724 5.78709-19.3442 8.02077c-6.8615 2.61014-15.8508 6.98652-23.1187 8.02077-5.4723.77872-13.1423.7601-18.4006-.94362-2.8441-.92151-6.6153-2.12807-9.7348-3.81996-3.394-1.84071-6.0166-4.2559-5.8349-7.50348.1768-3.16005 1.6597-4.37167 1.6597-4.37167s-6.3491 1.11994-11.5677.59719c-7.8567-.787-25.4777-6.60534-25.4777-6.60534l5.6617-16.985149 15.0979-13.210675 23.5905-6.133528 32.5549 5.189908 33.0267 8.492577 50.9554 2.830859z"/>
    <path id="j" d="M3048.5888 105.85887c3.0197 2.50243 7.3793 5.64686 11.0858 6.92861 6.4213 2.22058 14.6558-1.71478 19.0537 3.4643 1.2128 1.42816.607 2.89069-.3464 4.5036-.9978 1.68808-2.3697 2.21796-2.0786 4.15717.7185 4.78662 13.5322 5.55376 18.3608 5.88931 5.1182.35567 9.2096-2.63516 14.2037-3.81073 13.6305-3.20854 31.2274-16.50856 43.6502-10.04649 1.7225.89598-5.0818 4.81337-4.5036 7.62148.4789 2.32573 4.9006 3.11289 7.2751 3.11787 16.2532.0341 49.886-21.13226 49.886-21.13226l-118.8257-27.714448-30.1395 3.810737-11.7786 18.707251s2.7414 3.33039 4.1571 4.5036z"/>
    <path id="k" d="m3140.4375 99.5-.2813.125s-25.7143 13.3583-37.0312 18.0625c-4.2339 1.75992-20.5918 7.06187-20.5918 7.06187s4.4872.0767 10.3244-1.29629c3.8676-.90972 9.2333-3.18022 11.0174-3.92183 11.4437-4.75692 36.4319-17.70646 36.9375-17.96875l38.6875 3.625c-.076.0626-.082.0611-.1562.125-1.1999 1.02807-2.8582 2.43788-4.6876 3.96875-3.6586 3.06174-8.0206 6.61689-10.7187 8.5-2.357 1.64501-9.5934 6.70781-9.5934 6.70781s8.1218-3.2488 10.7497-5.08281c2.8335-1.97762 7.1693-5.51883 10.8437-8.59375 1.8372-1.53746 3.5144-2.93687 4.7187-3.96875 1.2044-1.03188 1.9375-1.6875 1.9376-1.6875l-.5626-1.75h-.094l-41.2187-3.875-.2813-.03125z"/>
    <path id="l" d="M3201.1931 97.393001s-9.418 7.281889-14.1543 8.964389c-15.8489 5.63008-38.8837 5.61281-55.6736 6.60534-4.6628.27563-9.9638.17614-14.1543-1.88724-2.0827-1.02552-6.244-1.92745-6.1335-4.24629.1382-2.90092 6.6053-7.07715 6.6053-7.07715s-6.6471-.03286-9.4362.47181c-6.4311 1.16366-14.3833 5.17152-20.7596 6.60534-5.156 1.1594-12.2624 3.33074-17.457 2.35905-4.6081-.86199-9.8907-4.7921-13.6825-7.54896-2.5108-1.825501-7.5875-3.973121-7.5489-7.077148.087-7.016914 17.457-15.569724 17.457-15.569724l32.5526 2.845079 43.8805 8.950166 54.2582 2.359049z"/>
    <path id="m" d="M3054.2152 90.646381s10.0079 9.950219 15.6235 11.431869c4.7851 1.26252 11.5269-.96579 16.3857-1.90531 7.6784-1.484712 12.3874-4.525258 20.1963-4.95381 6.587-.361496 19.7692-2.297131 20.9585 4.191686.8308 4.532834-8.049.365368-7.6213 4.953814.2919 3.13174 6.7808 3.08845 9.9076 3.42956 16.7042 1.82233 55.6351-6.47806 55.6351-6.47806l-69.7344-18.67206-38.1062-4.572749-24.388 6.478061z"/>
    <path id="n" d="M3073.3326 78.048798s-15.7977 13.449665-18.7417 20.257565c-1.0424 2.410497-2.4755 5.377417-2.1731 9.370967.2151 2.84066 1.49 16.99353-.6135 24.8548-2.4572 9.18347-8.4412 12.0834-9.6111 13.39404-2.3337 2.6144-8.4926 8.02077-8.4926 8.02077l-2.3591-45.2305 15.0979-19.816016z"/>
    <path id="o" d="M3033.0221 140.12722s7.537-3.1768 9.655-6.37083c2.9498-4.44844 4.2753-14.92395 4.6789-20.24627.415-5.47278-.381-18.29099-.381-18.29099l14.0993-11.431873 1.1432.762125h-11.813l-22.1016 27.436498z"/>
    <path id="p" d="M3031.8835 115.32177s2.1249 18.2572 7.2773 26.01485c1.2311 1.85362 5.0437 6.72431 7.3265 8.51817 3.4709 2.72736 6.3313 4.24737 8.6455 6.71527 2.3971 2.55634 6.7179 7.25245 8.4334 10.30829.6318 1.12552 4.0655 11.82874 3.9473 18.02892-.1773 9.30413-4.1686 14.97715-4.1686 14.97715l-25.398-30.77632-7.549-19.81602-2.359-24.53411z"/>
    <path id="q" d="M3057.2637 190.48473s2.5893-7.94755 2.2863-11.43187c-.3826-4.39911-2.8702-10.05436-5.3348-13.71825-4.8296-7.17957-20.9585-19.81524-20.9585-19.81524l-6.478 3.42956z"/>
    <path id="r" d="m3040.6562 99.65625-.9687.90625s-1.1246.045-1.25 1.8125c-.1254 1.76747-.2746 4.1946-.375 6.8125-.2009 5.2358-.4415 11.83573.7723 15.12056 1.1205 4.32855 1.207 3.77219 2.1035 5.50176.9743 1.87978 3.9992 5.81518 3.9992 5.81518s-3.2756-8.40052-4.3125-12.40625c-.7205-2.78382-.7611-8.79155-.5625-13.96875.099-2.5886.2507-4.99847.375-6.75.1243-1.75153.2187-2.84375.2187-2.84375zm-6.4374 54.90625s.034 2.51263 1.2812 3.84375c1.2476 1.33112 2.9805 3.12836 4.9062 5.09375 3.8516 3.93078 8.4638 8.42053 11.7188 10.78125 1.5451 1.1206 4.1301 2.48325 6.375 3.59375 2.2449 1.1105 4.125 1.96875 4.125 1.96875s-2.6609-2.8355-4.8706-3.92858c-2.2097-1.09308-3.1532-2.29303-4.4419-3.22767-2.9987-2.17479-7.6446-6.65978-11.4687-10.5625-1.9121-1.95136-3.6351-3.77078-4.875-5.09375-1.24-1.32297-2.0001-2.15625-2-2.15625zm76-71.21875s-4.5219.419248-10 1.09375c-5.4782.674502-11.8561 1.587918-15.7188 2.75-2.596.781017-6.325 1.884768-8.5625 4.0625-1.1764 1.144988-2.0724 3.060707-2.8125 4.78125-.1836.426697-1.7334 4.0651-1.2755 4.25711.4654.1951 2.9417-3.062872 3.1193-3.47586.7049-1.638779 1.6913-3.489973 2.3437-4.125 1.6306-1.587063 5.1772-2.788465 7.75-3.5625 3.5565-1.069967 9.9362-2.049094 15.375-2.71875 5.3713-.661353 9.7337-1.052924 9.8437-1.0625l52.625 7.71875c-2.3897.349906-3.0025.393663-6.5937 1.03125-7.1466 1.268816-15.4427 2.999543-20.3125 5.09375-1.653.710869-3.7931 2.23961-5.625 3.59375-1.8319 1.35414-2.4279 2.01103-3.2812 2.67858-.905.70799-2.7947 2.91522-2.7947 2.91522s5.4745-2.67773 7.2634-4.00005 3.9949-2.80398 5.25-3.34375c4.472-1.923105 12.7498-3.709291 19.8437-4.96875 7.094-1.259459 13.0313-2.03125 13.0313-2.03125l.031-1.96875-59.25-8.6875-.125-.03125h-.125z"/>
    <path id="s" fill-rule="evenodd" d="M3411.4623 530.78116c-11.2302 2.16277-24.4849 7.80516-32.8438 17.06249-8.1541 9.03066-13.1767 21.25822-14.7812 32.9375-1.9618 14.27908 2.8808 31.67646 7.4374 43.5625 3.6394 9.49352 12.6115 20.79237 20.875 30.8125 8.2636 10.02013 15.7813 18.125 15.7813 18.125l9.5313-8.8125s-7.2907-7.90458-15.2813-17.59375-16.7256-21.79389-18.7813-27.15625c-4.0197-10.4857-7.9867-27.69898-6.6874-37.15625 1.251-9.10568 5.6563-19.45901 11.5624-26 5.1518-5.70544 17.0906-11.35038 25.6563-12.99999 10.3678-1.99665 27.4802.8727 39.8437 3.49999 11.5746 2.45965 25.9187 6.21808 38.2813 8.3125 5.3336.90358 41.5049 6.05605 75.1563 6.0625 34.3491.007 64.8539-5.33363 69.1563-6.0625 12.3628-2.09441 26.6755-5.85285 38.25-8.3125 12.3635-2.62729 29.4759-5.49665 39.8438-3.49999 8.5657 1.64961 20.5044 7.29448 25.6562 12.99999 5.9061 6.54096 10.3114 16.89423 11.5625 26 1.2994 9.4572-2.6677 26.67053-6.6875 37.15625-2.0557 5.36237-10.7594 17.46709-18.75 27.15625-3.9953 4.84458-7.8567 9.28129-10.6875 12.46875-2.8308 3.18746-4.625 5.125-4.625 5.125l3.6563-2s7.7789 8.77503 10.6874 5.5c2.9086-3.27503 6.8683-7.80244 11-12.8125 8.2636-10.02012 17.2044-21.31898 20.8438-30.8125 4.5566-11.88603 9.3993-29.28336 7.4375-43.5625-1.6047-11.67917-6.627-23.9068-14.7813-32.9375-8.3589-9.25727-21.6134-14.89973-32.8437-17.06249-14.7159-2.83399-32.3769.88004-45 3.5625-12.05 2.5607-26.3 6.27896-37.75 8.21875-4.5936.7782-33.9666 5.88129-66.9688 5.87499-32.2797-.006-69.55-5.29051-73-5.87499-11.45-1.93979-25.6687-5.65804-37.7188-8.21875-9.4674-2.01185-41.3523-4.271-45.0312-3.5625z"/>
    <path id="t" stroke-width="3.83942008" d="m83.49052 343.85638 3.375134-11.67871 17.505726 2.79823-10.792025 15.49721zm0 0 20.88086-8.88048"/>
    <path id="u" d="M274.98611 191.02463c-4.81438 5.06562-8.82723 11.27582-9.2942 19.06868-2.77685-2.59702-5.89646-2.81246-9.66827-2.31875 0 0 2.6828 6.8311 3.11407 10.84337.41647 3.87463 1.54129 8.75314 4.0038 11.25477l5.61645 5.93594 6.22815-.94035 6.25594.94035 5.58865-5.93594c2.46252-2.50163 3.58734-7.38014 4.0038-11.25477.43128-4.01227 3.14189-10.84337 3.14189-10.84337-3.77181-.49371-6.89157-.27827-9.66843 2.31875-.46697-7.79286-4.50747-14.00306-9.32185-19.06868z"/>
    <path id="v" d="m275.00003 232.91204-.01392-34.68704"/>
    <path id="w" d="M271.02681 234.4169c-6.30408-10.17006-4.44566-14.35295-9.69988-21.86937"/>
    <path id="x" d="M278.97322 234.4169c6.30408-10.17006 4.44566-14.35295 9.69988-21.86937"/>
    <path id="y" d="M102.33526 251.9719c5.70902 4.29472 12.31741 7.68235 19.66544 7.39344-1.84252 3.01034-1.39806 6.13118-.15887 9.83162 0 0 5.80191-3.32598 9.44629-4.14221 3.51937-.78823 7.82642-2.37734 9.64518-5.0661l4.36244-6.15473-2.16262-6.09819-.41831-6.30753-6.67896-4.98004c-2.83694-2.20535-7.60908-2.85174-11.30065-2.89123-3.8227-.0409-10.73963-2.07447-10.73963-2.07447.32036 3.79583 1.16581 6.87519 4.1565 9.3837-7.15496 1.21698-12.09841 5.83214-15.81681 11.10574z"/>
    <path id="z" d="M141.35388 248.12232c-15.05824-.18031-19.3149 1.75091-32.57567 3.20528"/>
    <path id="A" d="M140.88684 243.25947c-9.56052-5.94551-16.28421-3.44987-22.3812-7.69647"/>
    <path id="B" d="M142.66018 253.26237c-6.51989 6.3489-11.5103 4.1196-17.16734 9.49164"/>
    <path id="C" d="M137.5167 196.80185c-1.95539 6.67223-4.9479 12.70389-2.04596 20.33038-3.12192-2.31093-7.01528-3.14077-10.42489-2.28579 0 0 3.90924 6.52532 5.13981 10.46862 1.18836 3.80804 3.24363 8.54465 6.05318 10.79122l6.45556 5.35265 5.60421-1.53604 6.01869.32919 3.9766-6.43585c1.77574-2.72268 1.81492-7.67676 1.40204-11.56531-.42752-4.02669.68459-11.07339.68459-11.07339-3.61363-.12574-6.47366.38983-8.52235 3.23764-2.04499-7.69475-7.76457-14.12744-14.34148-17.61332z"/>
    <path id="D" d="M152.06227 237.93002c3.05038-7.20937.33842-14.16688 4.23772-22.24243"/>
    <path id="E" d="M144.07769 239.41745c-7.74263-7.82089-7.29709-14.94432-13.01842-20.70524"/>
    <path id="F" d="M147.90735 237.97859c-4.91004-13.06627-3.72794-23.03954-8.243-34.51902"/>
    <path id="G" d="M197.25149 242.11642c-3.7184 5.2736-8.66757 9.86129-15.82252 11.07827 2.99068 2.5085 3.8361 5.5877 4.15646 9.38354 0 0-6.91118-2.00594-10.73388-2.04683-3.69157-.0395-8.46371-.68589-11.30065-2.89123l-6.6847-5.00767-.41257-6.27991-2.16836-6.12581 4.36819-6.1271c1.81875-2.68877 6.12581-4.27788 9.64517-5.0661 3.64438-.81624 9.44054-4.16985 9.44054-4.16985 1.23919 3.70043 1.68369 6.82142-.15884 9.83177 7.34803-.28891 13.96214 3.1262 19.67116 7.42092z"/>
    <path id="H" d="M155.60035 241.94596c6.48466-7.1375 12.12608-5.15818 18.63882-11.08222"/>
    <path id="I" d="M157.19416 250.40523c9.31052 3.69552 12.38303 1.45036 22.34578 7.31945"/>
    <path id="J" d="M158.31508 246.36118c14.08557-3.8507 19.89426-1.20649 32.74923-3.53763"/>
    <path id="K" d="M159.57138 246.86562c.0824 5.58354-4.37474 10.17669-9.95536 10.25908-5.58062.0824-10.17143-4.37719-10.25386-9.96072-.0824-5.58355 4.37473-10.17669 9.95535-10.25908 5.58062-.0824 10.17143 4.37717 10.25387 9.96072z" color="#000" overflow="visible" style="marker:none"/>
    <path id="L" d="M48.782279 265.79382s-5.080866-11.21026-13.995005-17.86432c-8.060732-6.01704-23.396431-6.78375-23.396431-6.78375 5.798817-7.70106 11.934757-10.32989 18.572349-10.02384 5.296366.24422 9.214737 1.88798 13.374562 5.94416.922609-2.70352 1.491545-3.58394 4.070246-6.08124 2.29924 7.04939 11.976887 11.53873 8.85665 24.42665-.887287 3.66488-2.586766 9.55314-4.372372 12.97447z"/>
    <path id="M" d="M49.082358 264.58271c-.613298-5.16185 1.164248-9.81862.847311-13.9625-.579945-7.58263-3.064597-10.08015-2.736191-14.05148"/>
    <path id="N" d="M84.542628 255.89057c-1.565504 5.76889-4.076231 11.0782-8.657092 13.47734 2.444672 1.93696 3.552012 4.79381 4.433377 8.43794 0 0-10.51999-.84585-15.100433.20007-5.23039 1.19433-9.272523-1.12285-10.131366-1.96595l-4.898301-9.67049c3.796787-6.77161 4.544201-10.49088 7.389058-14.17692 2.840435-3.68033 7.485603-6.91307 10.859167-9.80308 1.480319 3.39535 2.326337 6.3609 1.620369 9.60649 4.873247-1.52762 9.905239.67822 14.485221 3.8946z"/>
    <path id="O" d="M52.780658 270.81217c8.185721-6.61922 15.679729-7.82709 25.533781-13.41825"/>
    <path id="P" d="M51.364778 267.14614c3.5803-6.0207 10.948109-9.37675 14.924609-18.74323"/>
    <path id="Q" d="M53.925499 274.21776c7.041472.96357 11.311667-3.11786 19.735694-.0629"/>
    <path id="R" d="M55.091846 275.84743c-1.423378.76409-3.057259 1.18273-4.787313 1.14627-5.360475-.11298-9.61437-4.55238-9.501331-9.91566.06943-3.29415 1.770121-6.17067 4.314083-7.87369 6.277593 4.13269 8.618418 10.2943 9.974561 16.64308z" color="#000" overflow="visible" style="marker:none"/>
  </defs>
  <path fill="#0d5eaf" d="M0 0h1200v800H0z"/>
  <path fill="#fff" d="M0 320h1200v160H0z"/>
  <path fill="#fff" d="M520 0h160v800H520z"/>
  <g fill="#fc0" stroke="#d4aa00" stroke-width="3.93418503" transform="matrix(.40364 0 0 .36015 188.59289927 201.2977507)">
    <path fill-rule="evenodd" d="M790.662405 624.6408371s88.87187-20.30559 128.39846-24.96637c36.77687-4.33655 78.88385-9.03832 115.91533-8.91657 37.3201.1227 86.1766 7.60684 123.0485 13.37485 30.9019 4.8341 98.0822 22.2914 98.0822 22.2914l-41.9079 50.82439-404.81182 2.67497z"/>
    <g transform="translate(42.804935 -66.847451)">
      <g stroke-width="7.75625181" transform="translate(487.51212 221.97479) scale(.50723)">
        <g transform="translate(-.8900842 -7.7353667)">
          <g fill-rule="evenodd" stroke-width="6.26741314" transform="translate(-2126.9948 363.14363) scale(1.23755)">
            <path d="M2499.8738-24.873774 2500-65h-15v5l-5 5-5-5v-5l-4.8044.195592L2465-70l5.1262-5.126226L2475-75v-5l5-5 5 5v5h15l-.1262-14.873774h-5l-5-5 5-5h5v-4.999996l5-5 5 5v4.999996h5l5 5-5 5h-5L2510-75h15v-5l5-5 5 5v5h5l5 5-5 5h-5v5l-5 5-5-5v-5h-15v40l.05.109055-10.1759.01717z"/>
            <path d="M2504.875-112.125c-2.1355 0-3.5935 1.28653-4.6875 2.53125-1.094 1.24472-1.8994 2.62013-2.4063 3.84375-.5368 1.29604-.4795 2.36846-.4062 3.375-1.0065-.0733-2.079-.0993-3.375.4375-1.2236.50685-2.599 1.28096-3.8438 2.375-1.2447 1.094044-2.5312 2.551981-2.5312 4.6875 0 2.135541 1.2865 3.593458 2.5312 4.6875 1.2448 1.094042 2.6202 1.899404 3.8438 2.40625 1.4166.586797 2.5703.458057 3.6562.375l.063 10.15625h-10.25c.082-1.077111.2062-2.221741-.375-3.625-.5069-1.223641-1.3123-2.599028-2.4063-3.84375-1.094-1.244722-2.552-2.53125-4.6875-2.53125s-3.5935 1.286528-4.6875 2.53125c-1.094 1.244722-1.8994 2.620109-2.4063 3.84375-.5257 1.269335-.4762 2.323553-.4062 3.3125-.9516-.09367-1.9612-.158205-3.2188.34375-1.2792.51059-2.6978 1.346202-3.9687 2.46875-1.2709 1.122548-2.5625 2.591363-2.5625 4.75 0 2.171314 1.3084 3.674087 2.5938 4.8125 1.2853 1.138413 2.7206 1.956853 4.0312 2.46875 1.233.481562 2.2048.415502 3.125.3125-.068.980136-.114 2.025262.4062 3.28125.5069 1.223641 1.3123 2.599028 2.4063 3.84375 1.094 1.244722 2.552 2.53125 4.6875 2.53125s3.5935-1.286528 4.6875-2.53125c1.094-1.244722 1.8994-2.620109 2.4063-3.84375.5812-1.403259.4574-2.547883.375-3.625h10.2812l-.125 37.875v2.25h2.25l10.1875-.03125h3.5l-1.3125-2.8125V-62.75h10.2812c-.082 1.077111-.2062 2.221741.375 3.625.5069 1.223641 1.3123 2.599028 2.4063 3.84375 1.094 1.244722 2.552 2.53125 4.6875 2.53125s3.5935-1.286528 4.6875-2.53125c1.094-1.244722 1.8994-2.620109 2.4063-3.84375.5368-1.296029.4795-2.368465.4062-3.375 1.0065.07332 2.0789.130601 3.375-.40625 1.2236-.506846 2.599-1.312205 3.8438-2.40625 1.2447-1.094045 2.5312-2.551967 2.5312-4.6875s-1.2865-3.593455-2.5312-4.6875c-1.2448-1.094045-2.6202-1.899404-3.8438-2.40625-1.2961-.536851-2.3685-.479569-3.375-.40625.073-1.006526.1306-2.078971-.4062-3.375-.5069-1.223641-1.3123-2.599028-2.4063-3.84375-1.094-1.244722-2.552-2.53125-4.6875-2.53125s-3.5935 1.286528-4.6875 2.53125c-1.094 1.244722-1.8994 2.620109-2.4063 3.84375-.5812 1.403259-.4574 2.547883-.375 3.625h-10.3124l-.063-10.15625c1.0684.08171 2.2039.200749 3.5938-.375 1.2236-.506845 2.599-1.312205 3.8438-2.40625 1.2447-1.094045 2.5312-2.551952 2.5312-4.6875 0-2.135526-1.2865-3.593453-2.5312-4.6875-1.2448-1.09405-2.6202-1.86815-3.8438-2.375-1.2961-.53685-2.3685-.51082-3.375-.4375.073-1.00653.099-2.07896-.4375-3.375-.5068-1.22363-1.281-2.59903-2.375-3.84375s-2.552-2.53125-4.6875-2.53125zm0 4.5c-.014 0 .6398.23468 1.3125 1s1.2888 1.88879 1.5937 2.625c-.079-.19097.1266 1.0385.063 2-.064.9615-.1875 1.78125-.1876 1.78125l-.5 3.0625 3.0626-.5s.8197-.123428 1.7812-.1875c.9615-.06407 2.191.141615 2 .0625.7362.304945 1.8597.921075 2.625 1.59375.7653.672675 1 1.326706 1 1.3125 0-.01423-.2347.639823-1 1.3125s-1.8888 1.320051-2.625 1.625c.191-.07913-1.0385.09532-2 .03125s-1.7812-.1875-1.7812-.1875l-2.625-.40625.031 2.65625.125 14.875.031 2.21875h19.8438l-.4062-2.59375s-.1235-.81974-.1876-1.78125c-.064-.96151.1416-2.190953.063-2 .3049-.736203.921-1.859683 1.5937-2.625.6727-.765317 1.3267-1 1.3125-1-.014 0 .6398.234683 1.3125 1s1.2888 1.888797 1.5937 2.625c-.079-.190953.1266 1.03849.063 2-.064.96151-.1876 1.78125-.1876 1.78125l-.5 3.0625 3.0626-.5s.8197-.123428 1.7812-.1875c.9615-.06407 2.191.141617 2 .0625.7362.304948 1.8597.921073 2.625 1.59375.7653.672677 1 1.326713 1 1.3125 0-.01421-.2347.639823-1 1.3125s-1.8888 1.288802-2.625 1.59375c.191-.07912-1.0385.126572-2 .0625-.9615-.06407-1.7812-.1875-1.7812-.1875l-3.0626-.5.5 3.0625s.1235.81974.1876 1.78125c.064.96151-.1416 2.190953-.063 2-.3049.736203-.921 1.859683-1.5937 2.625-.6727.765317-1.3267 1-1.3125 1 .014 0-.6398-.234683-1.3125-1s-1.2888-1.888797-1.5937-2.625c.079.190953-.1266-1.03849-.063-2 .064-.96151.1876-1.78125.1876-1.78125l.4062-2.59375h-19.875v40.09375l-5.625.03125.125-37.875v-2.25h-19.875l.4062 2.59375s.1235.81974.1876 1.78125c.064.96151-.1416 2.190953-.063 2-.3049.736203-.921 1.859683-1.5937 2.625-.6727.765317-1.3267 1-1.3125 1 .014 0-.6398-.234683-1.3125-1s-1.2888-1.888797-1.5937-2.625c.079.190953-.1266-1.03849-.063-2 .064-.96151.1876-1.78125.1876-1.78125l.5-3.21875-3.1876.6875s-.7744.148807-1.6874.25c-.9131.101193-2.1066-.07141-1.8438.03125-.7426-.290053-1.8883-.948431-2.6875-1.65625-.7992-.707819-1.0625-1.404509-1.0625-1.4375 0-.01623.2441-.679704 1.0312-1.375.7872-.695296 1.9469-1.360634 2.6876-1.65625-.2372.09464.9759-.08812 1.9062 0 .9303.08812 1.7188.25 1.7188.25l3.125.59375-.5-3.15625s-.1235-.81974-.1876-1.78125c-.064-.96151.1416-2.190953.063-2 .3049-.736203.921-1.859683 1.5937-2.625.6727-.765317 1.3267-1 1.3125-1-.014 0 .6398.234683 1.3125 1s1.2888 1.888797 1.5937 2.625c-.079-.190953.1266 1.03849.063 2-.064.96151-.1876 1.78125-.1876 1.78125l-.4062 2.59375h19.9062l-.031-2.28125-.125-14.875-.031-2.59375-2.5626.40625s-.8197.123428-1.7812.1875c-.9615.06407-2.191-.110367-2-.03125-.7362-.304951-1.8597-.952321-2.625-1.625-.7653-.672679-1-1.326721-1-1.3125 0 .0142.2347-.639823 1-1.3125s1.8888-1.288803 2.625-1.59375c-.191.0791 1.0385-.126572 2-.0625.9615.06407 1.7812.1875 1.7812.1875l3.0626.5-.5-3.0625s-.1235-.81972-.1876-1.78125c-.064-.96151.1104-2.19096.031-2 .305-.73622.9523-1.85968 1.625-2.625s1.3267-1 1.3125-1z"/>
          </g>
          <g transform="translate(-1716.6275 -506.42572)">
            <ellipse cx="2689.7012" cy="785.0257" fill-rule="evenodd" overflow="visible" rx="10.48851" ry="10.660453" style="marker:none" transform="translate(0 -2.0633135)"/>
            <use xlink:href="#a" fill-rule="evenodd"/>
            <use xlink:href="#b" fill-rule="evenodd" stroke-width="4.7250514" overflow="visible" style="marker:none" transform="matrix(1.65957 0 0 1.62366 -1773.1983 -485.36019)"/>
            <ellipse cx="2689.7012" cy="785.0257" overflow="visible" rx="10.48851" ry="10.660453" style="marker:none" transform="translate(0 -2.0633135)"/>
          </g>
        </g>
        <g transform="translate(-1531.3057 347.13855)">
          <g transform="translate(1347.2138 -729.35826)">
            <circle cx="2506.2473" cy="19.768774" r="50.681301" fill-rule="evenodd" overflow="visible" style="marker:none" transform="translate(-1349.184 729.01885)"/>
            <path fill-rule="evenodd" d="M2556.9286 19.768774c0 27.976078-22.7052 50.681301-50.6813 50.681301-17.119 0-32.2644-8.501747-41.4414-21.51058-.5995-.849732 20.3501 4.431048 39.8787.400234 9.6522-1.992264 18.5784-8.911567 25.1289-14.755529 17.4727-15.587974 8.8103-53.828209 9.9413-52.830395 10.5292 9.2890953 17.1738 22.8807813 17.1738 38.014969z" overflow="visible" style="marker:none" transform="translate(-1349.184 729.01885)"/>
            <ellipse cx="1136.8868" cy="729.40271" fill-rule="evenodd" stroke-width="7.47379208" overflow="visible" rx="21.810177" ry="23.81571" style="marker:none" transform="matrix(1.07873 0 0 .99841 -86.746004 .1547294)"/>
            <circle cx="2506.2473" cy="19.768774" r="50.681301" overflow="visible" style="marker:none" transform="translate(-1349.184 729.01885)"/>
          </g>
          <g fill-rule="evenodd" transform="rotate(-90 2501.9415 16.30175)">
            <path d="M2487.7727 8.7830238h67.0557V27.129784h-67.0557z" overflow="visible" style="marker:none"/>
            <path d="M2489.636 1.7566059h63.0453c2.2707 0 4.0987 1.8280397 4.0987 4.0987439 0 2.2707041-1.828 4.0987439-4.0987 4.0987439h-63.0452z" overflow="visible" style="marker:none"/>
            <path d="M2489.9466 25.958714h62.7347c2.2707 0 4.0987 1.828039 4.0987 4.098743 0 2.270705-1.828 4.098744-4.0987 4.098744h-62.7347z" overflow="visible" style="marker:none"/>
          </g>
          <g stroke-width="8.77764893">
            <g transform="matrix(.89339 0 0 .874 100.55088 -713.6509)">
              <ellipse cx="2689.7012" cy="785.0257" fill-rule="evenodd" overflow="visible" rx="10.48851" ry="10.660453" style="marker:none" transform="translate(0 -2.0633135)"/>
              <use xlink:href="#a" fill-rule="evenodd"/>
              <use xlink:href="#b" fill-rule="evenodd" stroke-width="5.34727859" overflow="visible" style="marker:none" transform="matrix(1.65957 0 0 1.62366 -1773.1983 -485.36019)"/>
              <ellipse cx="2689.7012" cy="785.0257" overflow="visible" rx="10.48851" ry="10.660453" style="marker:none" transform="translate(0 -2.0633135)"/>
            </g>
            <g transform="matrix(.89339 0 0 .874 100.55088 -700.24793)">
              <ellipse cx="2689.7012" cy="785.0257" fill-rule="evenodd" overflow="visible" rx="10.48851" ry="10.660453" style="marker:none" transform="translate(0 -2.0633135)"/>
              <use xlink:href="#a" fill-rule="evenodd"/>
              <use xlink:href="#b" fill-rule="evenodd" stroke-width="5.34727859" overflow="visible" style="marker:none" transform="matrix(1.65957 0 0 1.62366 -1773.1983 -485.36019)"/>
              <ellipse cx="2689.7012" cy="785.0257" overflow="visible" rx="10.48851" ry="10.660453" style="marker:none" transform="translate(0 -2.0633135)"/>
            </g>
            <g transform="matrix(.89339 0 0 .874 100.55088 -687.36616)">
              <ellipse cx="2689.7012" cy="785.0257" fill-rule="evenodd" overflow="visible" rx="10.48851" ry="10.660453" style="marker:none" transform="translate(0 -2.0633135)"/>
              <use xlink:href="#a" fill-rule="evenodd"/>
              <use xlink:href="#b" fill-rule="evenodd" stroke-width="5.34727859" overflow="visible" style="marker:none" transform="matrix(1.65957 0 0 1.62366 -1773.1983 -485.36019)"/>
              <ellipse cx="2689.7012" cy="785.0257" overflow="visible" rx="10.48851" ry="10.660453" style="marker:none" transform="translate(0 -2.0633135)"/>
            </g>
          </g>
          <g fill-rule="evenodd">
            <path d="M2453.7261 8.7830238h101.10229v18.34676H2453.7261z" overflow="visible" style="marker:none"/>
            <rect width="105.00586" height="8.1974878" x="2451.7742" y="1.7566059" overflow="visible" ry="4.0987439" style="marker:none"/>
            <rect width="105.00586" height="8.1974878" x="2451.7742" y="25.958714" overflow="visible" ry="4.0987439" style="marker:none"/>
          </g>
          <g stroke-width="8.77764893" transform="translate(0 -.3527163)">
            <g transform="matrix(.89339 0 0 .874 55.604957 -665.99413)">
              <ellipse cx="2689.7012" cy="785.0257" fill-rule="evenodd" overflow="visible" rx="10.48851" ry="10.660453" style="marker:none" transform="translate(0 -2.0633135)"/>
              <use xlink:href="#a" fill-rule="evenodd"/>
              <use xlink:href="#b" fill-rule="evenodd" stroke-width="5.34727859" overflow="visible" style="marker:none" transform="matrix(1.65957 0 0 1.62366 -1773.1983 -485.36019)"/>
              <ellipse cx="2689.7012" cy="785.0257" overflow="visible" rx="10.48851" ry="10.660453" style="marker:none" transform="translate(0 -2.0633135)"/>
            </g>
            <g transform="matrix(.89339 0 0 .874 66.73012 -665.99413)">
              <ellipse cx="2689.7012" cy="785.0257" fill-rule="evenodd" overflow="visible" rx="10.48851" ry="10.660453" style="marker:none" transform="translate(0 -2.0633135)"/>
              <use xlink:href="#a" fill-rule="evenodd"/>
              <use xlink:href="#b" fill-rule="evenodd" stroke-width="5.34727859" overflow="visible" style="marker:none" transform="matrix(1.65957 0 0 1.62366 -1773.1983 -485.36019)"/>
              <ellipse cx="2689.7012" cy="785.0257" overflow="visible" rx="10.48851" ry="10.660453" style="marker:none" transform="translate(0 -2.0633135)"/>
            </g>
            <g transform="matrix(.89339 0 0 .874 77.855283 -665.99413)">
              <ellipse cx="2689.7012" cy="785.0257" fill-rule="evenodd" overflow="visible" rx="10.48851" ry="10.660453" style="marker:none" transform="translate(0 -2.0633135)"/>
              <use xlink:href="#a" fill-rule="evenodd"/>
              <use xlink:href="#b" fill-rule="evenodd" stroke-width="5.34727859" overflow="visible" style="marker:none" transform="matrix(1.65957 0 0 1.62366 -1773.1983 -485.36019)"/>
              <ellipse cx="2689.7012" cy="785.0257" overflow="visible" rx="10.48851" ry="10.660453" style="marker:none" transform="translate(0 -2.0633135)"/>
            </g>
            <g transform="matrix(.89339 0 0 .874 88.980447 -665.99413)">
              <ellipse cx="2689.7012" cy="785.0257" fill-rule="evenodd" overflow="visible" rx="10.48851" ry="10.660453" style="marker:none" transform="translate(0 -2.0633135)"/>
              <use xlink:href="#a" fill-rule="evenodd"/>
              <use xlink:href="#b" fill-rule="evenodd" stroke-width="5.34727859" overflow="visible" style="marker:none" transform="matrix(1.65957 0 0 1.62366 -1773.1983 -485.36019)"/>
              <ellipse cx="2689.7012" cy="785.0257" overflow="visible" rx="10.48851" ry="10.660453" style="marker:none" transform="translate(0 -2.0633135)"/>
            </g>
          </g>
          <g stroke-width="8.77764893" transform="translate(0 .5255937)">
            <g transform="matrix(.89339 0 0 .874 145.4845 -666.87244)">
              <ellipse cx="2689.7012" cy="785.0257" fill-rule="evenodd" overflow="visible" rx="10.48851" ry="10.660453" style="marker:none" transform="translate(0 -2.0633135)"/>
              <use xlink:href="#a" fill-rule="evenodd"/>
              <use xlink:href="#b" fill-rule="evenodd" stroke-width="5.34727859" overflow="visible" style="marker:none" transform="matrix(1.65957 0 0 1.62366 -1773.1983 -485.36019)"/>
              <ellipse cx="2689.7012" cy="785.0257" overflow="visible" rx="10.48851" ry="10.660453" style="marker:none" transform="translate(0 -2.0633135)"/>
            </g>
            <g transform="matrix(.89339 0 0 .874 134.3594 -666.87244)">
              <ellipse cx="2689.7012" cy="785.0257" fill-rule="evenodd" overflow="visible" rx="10.48851" ry="10.660453" style="marker:none" transform="translate(0 -2.0633135)"/>
              <use xlink:href="#a" fill-rule="evenodd"/>
              <use xlink:href="#b" fill-rule="evenodd" stroke-width="5.34727859" overflow="visible" style="marker:none" transform="matrix(1.65957 0 0 1.62366 -1773.1983 -485.36019)"/>
              <ellipse cx="2689.7012" cy="785.0257" overflow="visible" rx="10.48851" ry="10.660453" style="marker:none" transform="translate(0 -2.0633135)"/>
            </g>
            <g transform="matrix(.89339 0 0 .874 123.2342 -666.87244)">
              <ellipse cx="2689.7012" cy="785.0257" fill-rule="evenodd" overflow="visible" rx="10.48851" ry="10.660453" style="marker:none" transform="translate(0 -2.0633135)"/>
              <use xlink:href="#a" fill-rule="evenodd"/>
              <use xlink:href="#b" fill-rule="evenodd" stroke-width="5.34727859" overflow="visible" style="marker:none" transform="matrix(1.65957 0 0 1.62366 -1773.1983 -485.36019)"/>
              <ellipse cx="2689.7012" cy="785.0257" overflow="visible" rx="10.48851" ry="10.660453" style="marker:none" transform="translate(0 -2.0633135)"/>
            </g>
            <g transform="matrix(.89339 0 0 .874 112.1091 -666.87244)">
              <ellipse cx="2689.7012" cy="785.0257" fill-rule="evenodd" overflow="visible" rx="10.48851" ry="10.660453" style="marker:none" transform="translate(0 -2.0633135)"/>
              <use xlink:href="#a" fill-rule="evenodd"/>
              <use xlink:href="#b" fill-rule="evenodd" stroke-width="5.34727859" overflow="visible" style="marker:none" transform="matrix(1.65957 0 0 1.62366 -1773.1983 -485.36019)"/>
              <ellipse cx="2689.7012" cy="785.0257" overflow="visible" rx="10.48851" ry="10.660453" style="marker:none" transform="translate(0 -2.0633135)"/>
            </g>
          </g>
          <g stroke-width="8.77764893" transform="matrix(.89339 0 0 .874 101.3325 -666.34685)">
            <ellipse cx="2689.7012" cy="785.0257" fill-rule="evenodd" overflow="visible" rx="10.48851" ry="10.660453" style="marker:none" transform="translate(0 -2.0633135)"/>
            <use xlink:href="#a" fill-rule="evenodd"/>
            <use xlink:href="#b" fill-rule="evenodd" stroke-width="5.34727859" overflow="visible" style="marker:none" transform="matrix(1.65957 0 0 1.62366 -1773.1983 -485.36019)"/>
            <ellipse cx="2689.7012" cy="785.0257" overflow="visible" rx="10.48851" ry="10.660453" style="marker:none" transform="translate(0 -2.0633135)"/>
          </g>
        </g>
      </g>
      <g transform="translate(-2241.1685 375.80453)">
        <g transform="translate(0 11.106539)">
          <g transform="translate(.1121284)">
            <g fill-rule="evenodd" transform="translate(-.1369784)">
              <g transform="matrix(-1 0 0 1 6443.6475 0)">
                <use xlink:href="#c"/>
                <use xlink:href="#d"/>
                <use xlink:href="#e"/>
              </g>
              <use xlink:href="#c"/>
              <use xlink:href="#d"/>
              <use xlink:href="#e"/>
            </g>
            <use xlink:href="#f" fill-rule="evenodd"/>
            <path fill-rule="evenodd" d="M3221.8355 123.71772s-31.1618-2.28725-43.477-3.81376c-10.3419-1.2819-21.9318-2.78783-32.0356-5.33927-11.2975-2.85287-25.5539-9.29423-36.6121-12.96681-13.1881-4.379922-33.5753-10.731332-47.2907-12.966802-10.1656-1.65689-20.9938-2.17741-31.2729-1.52551-9.2369.58581-21.5715 2.17544-30.5101 4.57652-9.0283 2.42518-19.4333 6.64777-27.4591 11.441302-8.2253 4.91268-18.5924 12.9807-24.4081 20.59433-4.288 5.61368-9.4705 14.57357-11.4413 21.35709-2.4469 8.42208-4.2692 20.22611-3.8138 28.98462.562 10.80817 7.66 24.28855 8.3903 35.08665.3103 4.58886-1.5255 15.25506-1.5255 15.25506s-5.9237-13.14776-7.6275-19.06883c-2.1224-7.37577-4.5766-25.17085-4.5766-25.17085v-20.59434l3.8138-17.54332 5.1616-13.01944 12.927-15.96867 19.0103-15.208262 26.9947-11.7864 17.1092-4.94268 25.8541-1.14062 28.8957 2.28124 27.755 7.60413 38.7811 13.687432 20.1509 5.32289 36.1197 5.32289 31.5571 1.90103m-.3757 7.65612s31.1618-2.28725 43.477-3.81376c10.3419-1.2819 21.9318-2.78783 32.0356-5.33927 11.2975-2.85287 25.5539-9.29423 36.6121-12.96681 13.1881-4.379922 33.5753-10.731332 47.2907-12.966802 10.1656-1.65689 20.9938-2.17741 31.2729-1.52551 9.2369.58581 21.5715 2.17544 30.5101 4.57652 9.0283 2.42518 19.4333 6.64777 27.4591 11.441302 8.2253 4.91268 18.5924 12.9807 24.4081 20.59433 4.288 5.61368 9.4705 14.57357 11.4413 21.35709 2.4469 8.42208 4.2692 20.22611 3.8138 28.98462-.562 10.80817-7.66 24.28855-8.3903 35.08665-.3103 4.58886 1.5255 15.25506 1.5255 15.25506s5.9237-13.14776 7.6275-19.06883c2.1224-7.37577 4.5766-25.17085 4.5766-25.17085v-20.59434l-3.8138-17.54332-5.1616-13.01944-12.927-15.96867-19.0103-15.208262-26.9947-11.7864-17.1092-4.94268-25.8541-1.14062-28.8957 2.28124-27.755 7.60413-38.7811 13.687432-20.1509 5.32289-36.1197 5.32289-31.5571 1.90103"/>
            <use xlink:href="#f"/>
          </g>
          <g transform="translate(234.0541 -568.72809)">
            <ellipse cx="2689.7012" cy="785.0257" fill-rule="evenodd" overflow="visible" rx="10.48851" ry="10.660453" style="marker:none" transform="translate(0 -2.0633135)"/>
            <use xlink:href="#a" fill-rule="evenodd"/>
            <use xlink:href="#b" fill-rule="evenodd" stroke-width="2.39667654" overflow="visible" style="marker:none" transform="matrix(1.65957 0 0 1.62366 -1773.1983 -485.36019)"/>
            <ellipse cx="2689.7012" cy="785.0257" overflow="visible" rx="10.48851" ry="10.660453" style="marker:none" transform="translate(0 -2.0633135)"/>
          </g>
          <g transform="translate(228.46035 -591.77444)">
            <ellipse cx="2689.7012" cy="785.0257" fill-rule="evenodd" overflow="visible" rx="10.48851" ry="10.660453" style="marker:none" transform="translate(0 -2.0633135)"/>
            <use xlink:href="#a" fill-rule="evenodd"/>
            <use xlink:href="#b" fill-rule="evenodd" stroke-width="2.39667654" overflow="visible" style="marker:none" transform="matrix(1.65957 0 0 1.62366 -1773.1983 -485.36019)"/>
            <ellipse cx="2689.7012" cy="785.0257" overflow="visible" rx="10.48851" ry="10.660453" style="marker:none" transform="translate(0 -2.0633135)"/>
          </g>
          <g transform="translate(226.61298 -615.32848)">
            <ellipse cx="2689.7012" cy="785.0257" fill-rule="evenodd" overflow="visible" rx="10.48851" ry="10.660453" style="marker:none" transform="translate(0 -2.0633135)"/>
            <use xlink:href="#a" fill-rule="evenodd"/>
            <use xlink:href="#b" fill-rule="evenodd" stroke-width="2.39667654" overflow="visible" style="marker:none" transform="matrix(1.65957 0 0 1.62366 -1773.1983 -485.36019)"/>
            <ellipse cx="2689.7012" cy="785.0257" overflow="visible" rx="10.48851" ry="10.660453" style="marker:none" transform="translate(0 -2.0633135)"/>
          </g>
          <g transform="translate(228.46035 -638.88253)">
            <ellipse cx="2689.7012" cy="785.0257" fill-rule="evenodd" overflow="visible" rx="10.48851" ry="10.660453" style="marker:none" transform="translate(0 -2.0633135)"/>
            <use xlink:href="#a" fill-rule="evenodd"/>
            <use xlink:href="#b" fill-rule="evenodd" stroke-width="2.39667654" overflow="visible" style="marker:none" transform="matrix(1.65957 0 0 1.62366 -1773.1983 -485.36019)"/>
            <ellipse cx="2689.7012" cy="785.0257" overflow="visible" rx="10.48851" ry="10.660453" style="marker:none" transform="translate(0 -2.0633135)"/>
          </g>
          <g transform="translate(238.62092 -660.5892)">
            <ellipse cx="2689.7012" cy="785.0257" fill-rule="evenodd" overflow="visible" rx="10.48851" ry="10.660453" style="marker:none" transform="translate(0 -2.0633135)"/>
            <use xlink:href="#a" fill-rule="evenodd"/>
            <use xlink:href="#b" fill-rule="evenodd" stroke-width="2.39667654" overflow="visible" style="marker:none" transform="matrix(1.65957 0 0 1.62366 -1773.1983 -485.36019)"/>
            <ellipse cx="2689.7012" cy="785.0257" overflow="visible" rx="10.48851" ry="10.660453" style="marker:none" transform="translate(0 -2.0633135)"/>
          </g>
          <g transform="translate(253.39993 -679.5248)">
            <ellipse cx="2689.7012" cy="785.0257" fill-rule="evenodd" overflow="visible" rx="10.48851" ry="10.660453" style="marker:none" transform="translate(0 -2.0633135)"/>
            <use xlink:href="#a" fill-rule="evenodd"/>
            <use xlink:href="#b" fill-rule="evenodd" stroke-width="2.39667654" overflow="visible" style="marker:none" transform="matrix(1.65957 0 0 1.62366 -1773.1983 -485.36019)"/>
            <ellipse cx="2689.7012" cy="785.0257" overflow="visible" rx="10.48851" ry="10.660453" style="marker:none" transform="translate(0 -2.0633135)"/>
          </g>
          <g transform="translate(272.79738 -694.30381)">
            <ellipse cx="2689.7012" cy="785.0257" fill-rule="evenodd" overflow="visible" rx="10.48851" ry="10.660453" style="marker:none" transform="translate(0 -2.0633135)"/>
            <use xlink:href="#a" fill-rule="evenodd"/>
            <use xlink:href="#b" fill-rule="evenodd" stroke-width="2.39667654" overflow="visible" style="marker:none" transform="matrix(1.65957 0 0 1.62366 -1773.1983 -485.36019)"/>
            <ellipse cx="2689.7012" cy="785.0257" overflow="visible" rx="10.48851" ry="10.660453" style="marker:none" transform="translate(0 -2.0633135)"/>
          </g>
          <g transform="translate(294.04221 -704.46438)">
            <ellipse cx="2689.7012" cy="785.0257" fill-rule="evenodd" overflow="visible" rx="10.48851" ry="10.660453" style="marker:none" transform="translate(0 -2.0633135)"/>
            <use xlink:href="#a" fill-rule="evenodd"/>
            <use xlink:href="#b" fill-rule="evenodd" stroke-width="2.39667654" overflow="visible" style="marker:none" transform="matrix(1.65957 0 0 1.62366 -1773.1983 -485.36019)"/>
            <ellipse cx="2689.7012" cy="785.0257" overflow="visible" rx="10.48851" ry="10.660453" style="marker:none" transform="translate(0 -2.0633135)"/>
          </g>
          <g transform="translate(316.21072 -711.85389)">
            <ellipse cx="2689.7012" cy="785.0257" fill-rule="evenodd" overflow="visible" rx="10.48851" ry="10.660453" style="marker:none" transform="translate(0 -2.0633135)"/>
            <use xlink:href="#a" fill-rule="evenodd"/>
            <use xlink:href="#b" fill-rule="evenodd" stroke-width="2.39667654" overflow="visible" style="marker:none" transform="matrix(1.65957 0 0 1.62366 -1773.1983 -485.36019)"/>
            <ellipse cx="2689.7012" cy="785.0257" overflow="visible" rx="10.48851" ry="10.660453" style="marker:none" transform="translate(0 -2.0633135)"/>
          </g>
          <g transform="translate(339.76477 -713.70126)">
            <ellipse cx="2689.7012" cy="785.0257" fill-rule="evenodd" overflow="visible" rx="10.48851" ry="10.660453" style="marker:none" transform="translate(0 -2.0633135)"/>
            <use xlink:href="#a" fill-rule="evenodd"/>
            <use xlink:href="#b" fill-rule="evenodd" stroke-width="2.39667654" overflow="visible" style="marker:none" transform="matrix(1.65957 0 0 1.62366 -1773.1983 -485.36019)"/>
            <ellipse cx="2689.7012" cy="785.0257" overflow="visible" rx="10.48851" ry="10.660453" style="marker:none" transform="translate(0 -2.0633135)"/>
          </g>
          <g transform="matrix(-1 0 0 1 6443.5978 0)">
            <g transform="translate(234.0541 -568.72809)">
              <ellipse cx="2689.7012" cy="785.0257" fill-rule="evenodd" overflow="visible" rx="10.48851" ry="10.660453" style="marker:none" transform="translate(0 -2.0633135)"/>
              <use xlink:href="#a" fill-rule="evenodd"/>
              <use xlink:href="#b" fill-rule="evenodd" stroke-width="2.39667654" overflow="visible" style="marker:none" transform="matrix(1.65957 0 0 1.62366 -1773.1983 -485.36019)"/>
              <ellipse cx="2689.7012" cy="785.0257" overflow="visible" rx="10.48851" ry="10.660453" style="marker:none" transform="translate(0 -2.0633135)"/>
            </g>
            <g transform="translate(228.46035 -591.77444)">
              <ellipse cx="2689.7012" cy="785.0257" fill-rule="evenodd" overflow="visible" rx="10.48851" ry="10.660453" style="marker:none" transform="translate(0 -2.0633135)"/>
              <use xlink:href="#a" fill-rule="evenodd"/>
              <use xlink:href="#b" fill-rule="evenodd" stroke-width="2.39667654" overflow="visible" style="marker:none" transform="matrix(1.65957 0 0 1.62366 -1773.1983 -485.36019)"/>
              <ellipse cx="2689.7012" cy="785.0257" overflow="visible" rx="10.48851" ry="10.660453" style="marker:none" transform="translate(0 -2.0633135)"/>
            </g>
            <g transform="translate(226.61298 -615.32848)">
              <ellipse cx="2689.7012" cy="785.0257" fill-rule="evenodd" overflow="visible" rx="10.48851" ry="10.660453" style="marker:none" transform="translate(0 -2.0633135)"/>
              <use xlink:href="#a" fill-rule="evenodd"/>
              <use xlink:href="#b" fill-rule="evenodd" stroke-width="2.39667654" overflow="visible" style="marker:none" transform="matrix(1.65957 0 0 1.62366 -1773.1983 -485.36019)"/>
              <ellipse cx="2689.7012" cy="785.0257" overflow="visible" rx="10.48851" ry="10.660453" style="marker:none" transform="translate(0 -2.0633135)"/>
            </g>
            <g transform="translate(228.46035 -638.88253)">
              <ellipse cx="2689.7012" cy="785.0257" fill-rule="evenodd" overflow="visible" rx="10.48851" ry="10.660453" style="marker:none" transform="translate(0 -2.0633135)"/>
              <use xlink:href="#a" fill-rule="evenodd"/>
              <use xlink:href="#b" fill-rule="evenodd" stroke-width="2.39667654" overflow="visible" style="marker:none" transform="matrix(1.65957 0 0 1.62366 -1773.1983 -485.36019)"/>
              <ellipse cx="2689.7012" cy="785.0257" overflow="visible" rx="10.48851" ry="10.660453" style="marker:none" transform="translate(0 -2.0633135)"/>
            </g>
            <g transform="translate(238.62092 -660.5892)">
              <ellipse cx="2689.7012" cy="785.0257" fill-rule="evenodd" overflow="visible" rx="10.48851" ry="10.660453" style="marker:none" transform="translate(0 -2.0633135)"/>
              <use xlink:href="#a" fill-rule="evenodd"/>
              <use xlink:href="#b" fill-rule="evenodd" stroke-width="2.39667654" overflow="visible" style="marker:none" transform="matrix(1.65957 0 0 1.62366 -1773.1983 -485.36019)"/>
              <ellipse cx="2689.7012" cy="785.0257" overflow="visible" rx="10.48851" ry="10.660453" style="marker:none" transform="translate(0 -2.0633135)"/>
            </g>
            <g transform="translate(253.39993 -679.5248)">
              <ellipse cx="2689.7012" cy="785.0257" fill-rule="evenodd" overflow="visible" rx="10.48851" ry="10.660453" style="marker:none" transform="translate(0 -2.0633135)"/>
              <use xlink:href="#a" fill-rule="evenodd"/>
              <use xlink:href="#b" fill-rule="evenodd" stroke-width="2.39667654" overflow="visible" style="marker:none" transform="matrix(1.65957 0 0 1.62366 -1773.1983 -485.36019)"/>
              <ellipse cx="2689.7012" cy="785.0257" overflow="visible" rx="10.48851" ry="10.660453" style="marker:none" transform="translate(0 -2.0633135)"/>
            </g>
            <g transform="translate(272.79738 -694.30381)">
              <ellipse cx="2689.7012" cy="785.0257" fill-rule="evenodd" overflow="visible" rx="10.48851" ry="10.660453" style="marker:none" transform="translate(0 -2.0633135)"/>
              <use xlink:href="#a" fill-rule="evenodd"/>
              <use xlink:href="#b" fill-rule="evenodd" stroke-width="2.39667654" overflow="visible" style="marker:none" transform="matrix(1.65957 0 0 1.62366 -1773.1983 -485.36019)"/>
              <ellipse cx="2689.7012" cy="785.0257" overflow="visible" rx="10.48851" ry="10.660453" style="marker:none" transform="translate(0 -2.0633135)"/>
            </g>
            <g transform="translate(294.04221 -704.46438)">
              <ellipse cx="2689.7012" cy="785.0257" fill-rule="evenodd" overflow="visible" rx="10.48851" ry="10.660453" style="marker:none" transform="translate(0 -2.0633135)"/>
              <use xlink:href="#a" fill-rule="evenodd"/>
              <use xlink:href="#b" fill-rule="evenodd" stroke-width="2.39667654" overflow="visible" style="marker:none" transform="matrix(1.65957 0 0 1.62366 -1773.1983 -485.36019)"/>
              <ellipse cx="2689.7012" cy="785.0257" overflow="visible" rx="10.48851" ry="10.660453" style="marker:none" transform="translate(0 -2.0633135)"/>
            </g>
            <g transform="translate(316.21072 -711.85389)">
              <ellipse cx="2689.7012" cy="785.0257" fill-rule="evenodd" overflow="visible" rx="10.48851" ry="10.660453" style="marker:none" transform="translate(0 -2.0633135)"/>
              <use xlink:href="#a" fill-rule="evenodd"/>
              <use xlink:href="#b" fill-rule="evenodd" stroke-width="2.39667654" overflow="visible" style="marker:none" transform="matrix(1.65957 0 0 1.62366 -1773.1983 -485.36019)"/>
              <ellipse cx="2689.7012" cy="785.0257" overflow="visible" rx="10.48851" ry="10.660453" style="marker:none" transform="translate(0 -2.0633135)"/>
            </g>
            <g transform="translate(339.76477 -713.70126)">
              <ellipse cx="2689.7012" cy="785.0257" fill-rule="evenodd" overflow="visible" rx="10.48851" ry="10.660453" style="marker:none" transform="translate(0 -2.0633135)"/>
              <use xlink:href="#a" fill-rule="evenodd"/>
              <use xlink:href="#b" fill-rule="evenodd" stroke-width="2.39667654" overflow="visible" style="marker:none" transform="matrix(1.65957 0 0 1.62366 -1773.1983 -485.36019)"/>
              <ellipse cx="2689.7012" cy="785.0257" overflow="visible" rx="10.48851" ry="10.660453" style="marker:none" transform="translate(0 -2.0633135)"/>
            </g>
          </g>
        </g>
        <g transform="translate(0 -5.5532697)">
          <g transform="translate(-.367175)">
            <path fill-rule="evenodd" d="m3038.6959 203.11376 16.0187-9.43961-21.7397-30.32116-6.007-28.31883 4.5768-34.89795-13.1583 10.58381-12.3001 26.60253 3.4326 20.88156 14.0164 26.88858z"/>
            <path fill-rule="evenodd" d="m3403.4331 202.05266-16.0187-9.43961 21.7397-30.32116 6.007-28.31883-4.5768-34.897952 13.1583 10.583812 12.3001 26.60253-3.4326 20.88156-14.0164 26.88858z"/>
            <g transform="translate(-361.32075 -448.76462)">
              <use xlink:href="#g" fill-rule="evenodd"/>
              <use xlink:href="#h" fill-rule="evenodd"/>
              <use xlink:href="#g"/>
            </g>
            <g transform="matrix(-1 0 0 1 6805.3406 -448.76462)">
              <use xlink:href="#g" fill-rule="evenodd"/>
              <use xlink:href="#h" fill-rule="evenodd"/>
              <use xlink:href="#g"/>
            </g>
            <g fill-rule="evenodd" transform="translate(.2618216)">
              <use xlink:href="#i"/>
              <use xlink:href="#j"/>
              <use xlink:href="#k"/>
              <use xlink:href="#l"/>
              <use xlink:href="#m"/>
              <use xlink:href="#n"/>
              <use xlink:href="#o"/>
              <use xlink:href="#p"/>
              <use xlink:href="#q"/>
              <use xlink:href="#r"/>
              <g transform="matrix(-1 0 0 1 6442.8499 0)">
                <use xlink:href="#i"/>
                <use xlink:href="#j"/>
                <use xlink:href="#k"/>
                <use xlink:href="#l"/>
                <use xlink:href="#m"/>
                <use xlink:href="#n"/>
                <use xlink:href="#o"/>
                <use xlink:href="#p"/>
                <use xlink:href="#q"/>
                <use xlink:href="#r"/>
              </g>
            </g>
            <g transform="translate(-342.50994 -458.22289)">
              <use xlink:href="#s" fill-rule="evenodd"/>
              <path fill-rule="evenodd" d="M3565.0796 555.11489h-8.343s-24.5499-1.53763-35.4579-2.60719c-12.2863-1.2047-28.5316-4.01914-40.6722-6.25727-12.4315-2.29176-29.6852-6.31918-42.2366-7.82159-5.9043-.70675-13.8789-.87713-19.8147-.52144-5.3662.32156-12.7622.54995-17.7289 2.6072-7.0239 2.90941-15.6757 9.11506-20.3362 15.12173-4.5588 5.87553-8.0447 15.62859-9.3859 22.94333-1.1006 6.00277-.3419 14.29466.5215 20.33612 1.2131 8.48901 4.4024 19.56543 7.3001 27.63628 2.9092 8.10301 11.9931 26.07196 11.9931 26.07196l-17.7289-23.9862-7.8216-21.37901-2.0857-18.25037 1.0428-14.6003 7.8216-18.77181 9.3859-11.47166 19.8147-10.95022 15.6432-2.6072 39.6294 3.12864 29.2006 7.30015 34.4149 4.69295 30.765 2.08576h14.0788m-.6221 7.30014h8.343s24.5499-1.53763 35.4579-2.60719c12.2863-1.2047 28.5316-4.01914 40.6722-6.25727 12.4315-2.29176 29.6852-6.31918 42.2366-7.82159 5.9043-.70675 13.8789-.87713 19.8147-.52144 5.3662.32156 12.7622.54995 17.7289 2.6072 7.0239 2.90941 15.6757 9.11506 20.3362 15.12173 4.5588 5.87553 8.0447 15.62859 9.3859 22.94333 1.1006 6.00277.3419 14.29466-.5215 20.33612-1.2131 8.48901-4.4024 19.56543-7.3001 27.63628-2.9092 8.10301-11.9931 26.07196-11.9931 26.07196l17.7289-23.9862 7.8216-21.37901 2.0857-18.25037-1.0428-14.6003-7.8216-18.77181-9.3859-11.47166-19.8147-10.95022-15.6432-2.6072-39.6294 3.12864-29.2006 7.30015-34.4149 4.69295-30.765 2.08576h-14.0788"/>
              <use xlink:href="#s"/>
            </g>
          </g>
          <g transform="translate(335.5367 -600.20543)">
            <ellipse cx="2689.7012" cy="785.0257" fill-rule="evenodd" overflow="visible" rx="10.48851" ry="10.660453" style="marker:none" transform="translate(0 -2.0633135)"/>
            <use xlink:href="#a" fill-rule="evenodd"/>
            <use xlink:href="#b" fill-rule="evenodd" stroke-width="2.39667654" overflow="visible" style="marker:none" transform="matrix(1.65957 0 0 1.62366 -1773.1983 -485.36019)"/>
            <ellipse cx="2689.7012" cy="785.0257" overflow="visible" rx="10.48851" ry="10.660453" style="marker:none" transform="translate(0 -2.0633135)"/>
          </g>
          <g transform="translate(325.10212 -620.66273)">
            <ellipse cx="2689.7012" cy="785.0257" fill-rule="evenodd" overflow="visible" rx="10.48851" ry="10.660453" style="marker:none" transform="translate(0 -2.0633135)"/>
            <use xlink:href="#a" fill-rule="evenodd"/>
            <use xlink:href="#b" fill-rule="evenodd" stroke-width="2.39667654" overflow="visible" style="marker:none" transform="matrix(1.65957 0 0 1.62366 -1773.1983 -485.36019)"/>
            <ellipse cx="2689.7012" cy="785.0257" overflow="visible" rx="10.48851" ry="10.660453" style="marker:none" transform="translate(0 -2.0633135)"/>
          </g>
          <g transform="translate(320.53558 -643.49542)">
            <ellipse cx="2689.7012" cy="785.0257" fill-rule="evenodd" overflow="visible" rx="10.48851" ry="10.660453" style="marker:none" transform="translate(0 -2.0633135)"/>
            <use xlink:href="#a" fill-rule="evenodd"/>
            <use xlink:href="#b" fill-rule="evenodd" stroke-width="2.39667654" overflow="visible" style="marker:none" transform="matrix(1.65957 0 0 1.62366 -1773.1983 -485.36019)"/>
            <ellipse cx="2689.7012" cy="785.0257" overflow="visible" rx="10.48851" ry="10.660453" style="marker:none" transform="translate(0 -2.0633135)"/>
          </g>
          <g transform="translate(321.67721 -666.3281)">
            <ellipse cx="2689.7012" cy="785.0257" fill-rule="evenodd" overflow="visible" rx="10.48851" ry="10.660453" style="marker:none" transform="translate(0 -2.0633135)"/>
            <use xlink:href="#a" fill-rule="evenodd"/>
            <use xlink:href="#b" fill-rule="evenodd" stroke-width="2.39667654" overflow="visible" style="marker:none" transform="matrix(1.65957 0 0 1.62366 -1773.1983 -485.36019)"/>
            <ellipse cx="2689.7012" cy="785.0257" overflow="visible" rx="10.48851" ry="10.660453" style="marker:none" transform="translate(0 -2.0633135)"/>
          </g>
          <g transform="translate(328.98975 -688.58997)">
            <ellipse cx="2689.7012" cy="785.0257" fill-rule="evenodd" overflow="visible" rx="10.48851" ry="10.660453" style="marker:none" transform="translate(0 -2.0633135)"/>
            <use xlink:href="#a" fill-rule="evenodd"/>
            <use xlink:href="#b" fill-rule="evenodd" stroke-width="2.39667654" overflow="visible" style="marker:none" transform="matrix(1.65957 0 0 1.62366 -1773.1983 -485.36019)"/>
            <ellipse cx="2689.7012" cy="785.0257" overflow="visible" rx="10.48851" ry="10.660453" style="marker:none" transform="translate(0 -2.0633135)"/>
          </g>
          <g transform="translate(343.26018 -706.28531)">
            <ellipse cx="2689.7012" cy="785.0257" fill-rule="evenodd" overflow="visible" rx="10.48851" ry="10.660453" style="marker:none" transform="translate(0 -2.0633135)"/>
            <use xlink:href="#a" fill-rule="evenodd"/>
            <use xlink:href="#b" fill-rule="evenodd" stroke-width="2.39667654" overflow="visible" style="marker:none" transform="matrix(1.65957 0 0 1.62366 -1773.1983 -485.36019)"/>
            <ellipse cx="2689.7012" cy="785.0257" overflow="visible" rx="10.48851" ry="10.660453" style="marker:none" transform="translate(0 -2.0633135)"/>
          </g>
          <g transform="translate(363.23878 -718.27247)">
            <ellipse cx="2689.7012" cy="785.0257" fill-rule="evenodd" overflow="visible" rx="10.48851" ry="10.660453" style="marker:none" transform="translate(0 -2.0633135)"/>
            <use xlink:href="#a" fill-rule="evenodd"/>
            <use xlink:href="#b" fill-rule="evenodd" stroke-width="2.39667654" overflow="visible" style="marker:none" transform="matrix(1.65957 0 0 1.62366 -1773.1983 -485.36019)"/>
            <ellipse cx="2689.7012" cy="785.0257" overflow="visible" rx="10.48851" ry="10.660453" style="marker:none" transform="translate(0 -2.0633135)"/>
          </g>
          <g transform="translate(386.07147 -722.17138)">
            <ellipse cx="2689.7012" cy="785.0257" fill-rule="evenodd" overflow="visible" rx="10.48851" ry="10.660453" style="marker:none" transform="translate(0 -2.0633135)"/>
            <use xlink:href="#a" fill-rule="evenodd"/>
            <use xlink:href="#b" fill-rule="evenodd" stroke-width="2.39667654" overflow="visible" style="marker:none" transform="matrix(1.65957 0 0 1.62366 -1773.1983 -485.36019)"/>
            <ellipse cx="2689.7012" cy="785.0257" overflow="visible" rx="10.48851" ry="10.660453" style="marker:none" transform="translate(0 -2.0633135)"/>
          </g>
          <g transform="translate(409.20052 -720.72838)">
            <ellipse cx="2689.7012" cy="785.0257" fill-rule="evenodd" overflow="visible" rx="10.48851" ry="10.660453" style="marker:none" transform="translate(0 -2.0633135)"/>
            <use xlink:href="#a" fill-rule="evenodd"/>
            <use xlink:href="#b" fill-rule="evenodd" stroke-width="2.39667654" overflow="visible" style="marker:none" transform="matrix(1.65957 0 0 1.62366 -1773.1983 -485.36019)"/>
            <ellipse cx="2689.7012" cy="785.0257" overflow="visible" rx="10.48851" ry="10.660453" style="marker:none" transform="translate(0 -2.0633135)"/>
          </g>
          <g transform="translate(432.42674 -716.62731)">
            <ellipse cx="2689.7012" cy="785.0257" fill-rule="evenodd" overflow="visible" rx="10.48851" ry="10.660453" style="marker:none" transform="translate(0 -2.0633135)"/>
            <use xlink:href="#a" fill-rule="evenodd"/>
            <use xlink:href="#b" fill-rule="evenodd" stroke-width="2.39667654" overflow="visible" style="marker:none" transform="matrix(1.65957 0 0 1.62366 -1773.1983 -485.36019)"/>
            <ellipse cx="2689.7012" cy="785.0257" overflow="visible" rx="10.48851" ry="10.660453" style="marker:none" transform="translate(0 -2.0633135)"/>
          </g>
          <g transform="translate(455.65295 -712.36127)">
            <ellipse cx="2689.7012" cy="785.0257" fill-rule="evenodd" overflow="visible" rx="10.48851" ry="10.660453" style="marker:none" transform="translate(0 -2.0633135)"/>
            <use xlink:href="#a" fill-rule="evenodd"/>
            <use xlink:href="#b" fill-rule="evenodd" stroke-width="2.39667654" overflow="visible" style="marker:none" transform="matrix(1.65957 0 0 1.62366 -1773.1983 -485.36019)"/>
            <ellipse cx="2689.7012" cy="785.0257" overflow="visible" rx="10.48851" ry="10.660453" style="marker:none" transform="translate(0 -2.0633135)"/>
          </g>
          <g transform="translate(478.87917 -708.09523)">
            <ellipse cx="2689.7012" cy="785.0257" fill-rule="evenodd" overflow="visible" rx="10.48851" ry="10.660453" style="marker:none" transform="translate(0 -2.0633135)"/>
            <use xlink:href="#a" fill-rule="evenodd"/>
            <use xlink:href="#b" fill-rule="evenodd" stroke-width="2.39667654" overflow="visible" style="marker:none" transform="matrix(1.65957 0 0 1.62366 -1773.1983 -485.36019)"/>
            <ellipse cx="2689.7012" cy="785.0257" overflow="visible" rx="10.48851" ry="10.660453" style="marker:none" transform="translate(0 -2.0633135)"/>
          </g>
          <g transform="translate(501.63139 -704.77719)">
            <ellipse cx="2689.7012" cy="785.0257" fill-rule="evenodd" overflow="visible" rx="10.48851" ry="10.660453" style="marker:none" transform="translate(0 -2.0633135)"/>
            <use xlink:href="#a" fill-rule="evenodd"/>
            <use xlink:href="#b" fill-rule="evenodd" stroke-width="2.39667654" overflow="visible" style="marker:none" transform="matrix(1.65957 0 0 1.62366 -1773.1983 -485.36019)"/>
            <ellipse cx="2689.7012" cy="785.0257" overflow="visible" rx="10.48851" ry="10.660453" style="marker:none" transform="translate(0 -2.0633135)"/>
          </g>
          <g transform="matrix(-1 0 0 1 6443.2855 0)">
            <g transform="translate(335.5367 -600.20543)">
              <ellipse cx="2689.7012" cy="785.0257" fill-rule="evenodd" overflow="visible" rx="10.48851" ry="10.660453" style="marker:none" transform="translate(0 -2.0633135)"/>
              <use xlink:href="#a" fill-rule="evenodd"/>
              <use xlink:href="#b" fill-rule="evenodd" stroke-width="2.39667654" overflow="visible" style="marker:none" transform="matrix(1.65957 0 0 1.62366 -1773.1983 -485.36019)"/>
              <ellipse cx="2689.7012" cy="785.0257" overflow="visible" rx="10.48851" ry="10.660453" style="marker:none" transform="translate(0 -2.0633135)"/>
            </g>
            <g transform="translate(325.10212 -620.66273)">
              <ellipse cx="2689.7012" cy="785.0257" fill-rule="evenodd" overflow="visible" rx="10.48851" ry="10.660453" style="marker:none" transform="translate(0 -2.0633135)"/>
              <use xlink:href="#a" fill-rule="evenodd"/>
              <use xlink:href="#b" fill-rule="evenodd" stroke-width="2.39667654" overflow="visible" style="marker:none" transform="matrix(1.65957 0 0 1.62366 -1773.1983 -485.36019)"/>
              <ellipse cx="2689.7012" cy="785.0257" overflow="visible" rx="10.48851" ry="10.660453" style="marker:none" transform="translate(0 -2.0633135)"/>
            </g>
            <g transform="translate(320.53558 -643.49542)">
              <ellipse cx="2689.7012" cy="785.0257" fill-rule="evenodd" overflow="visible" rx="10.48851" ry="10.660453" style="marker:none" transform="translate(0 -2.0633135)"/>
              <use xlink:href="#a" fill-rule="evenodd"/>
              <use xlink:href="#b" fill-rule="evenodd" stroke-width="2.39667654" overflow="visible" style="marker:none" transform="matrix(1.65957 0 0 1.62366 -1773.1983 -485.36019)"/>
              <ellipse cx="2689.7012" cy="785.0257" overflow="visible" rx="10.48851" ry="10.660453" style="marker:none" transform="translate(0 -2.0633135)"/>
            </g>
            <g transform="translate(321.67721 -666.3281)">
              <ellipse cx="2689.7012" cy="785.0257" fill-rule="evenodd" overflow="visible" rx="10.48851" ry="10.660453" style="marker:none" transform="translate(0 -2.0633135)"/>
              <use xlink:href="#a" fill-rule="evenodd"/>
              <use xlink:href="#b" fill-rule="evenodd" stroke-width="2.39667654" overflow="visible" style="marker:none" transform="matrix(1.65957 0 0 1.62366 -1773.1983 -485.36019)"/>
              <ellipse cx="2689.7012" cy="785.0257" overflow="visible" rx="10.48851" ry="10.660453" style="marker:none" transform="translate(0 -2.0633135)"/>
            </g>
            <g transform="translate(328.98975 -688.58997)">
              <ellipse cx="2689.7012" cy="785.0257" fill-rule="evenodd" overflow="visible" rx="10.48851" ry="10.660453" style="marker:none" transform="translate(0 -2.0633135)"/>
              <use xlink:href="#a" fill-rule="evenodd"/>
              <use xlink:href="#b" fill-rule="evenodd" stroke-width="2.39667654" overflow="visible" style="marker:none" transform="matrix(1.65957 0 0 1.62366 -1773.1983 -485.36019)"/>
              <ellipse cx="2689.7012" cy="785.0257" overflow="visible" rx="10.48851" ry="10.660453" style="marker:none" transform="translate(0 -2.0633135)"/>
            </g>
            <g transform="translate(343.26018 -706.28531)">
              <ellipse cx="2689.7012" cy="785.0257" fill-rule="evenodd" overflow="visible" rx="10.48851" ry="10.660453" style="marker:none" transform="translate(0 -2.0633135)"/>
              <use xlink:href="#a" fill-rule="evenodd"/>
              <use xlink:href="#b" fill-rule="evenodd" stroke-width="2.39667654" overflow="visible" style="marker:none" transform="matrix(1.65957 0 0 1.62366 -1773.1983 -485.36019)"/>
              <ellipse cx="2689.7012" cy="785.0257" overflow="visible" rx="10.48851" ry="10.660453" style="marker:none" transform="translate(0 -2.0633135)"/>
            </g>
            <g transform="translate(363.23878 -718.27247)">
              <ellipse cx="2689.7012" cy="785.0257" fill-rule="evenodd" overflow="visible" rx="10.48851" ry="10.660453" style="marker:none" transform="translate(0 -2.0633135)"/>
              <use xlink:href="#a" fill-rule="evenodd"/>
              <use xlink:href="#b" fill-rule="evenodd" stroke-width="2.39667654" overflow="visible" style="marker:none" transform="matrix(1.65957 0 0 1.62366 -1773.1983 -485.36019)"/>
              <ellipse cx="2689.7012" cy="785.0257" overflow="visible" rx="10.48851" ry="10.660453" style="marker:none" transform="translate(0 -2.0633135)"/>
            </g>
            <g transform="translate(386.07147 -722.17138)">
              <ellipse cx="2689.7012" cy="785.0257" fill-rule="evenodd" overflow="visible" rx="10.48851" ry="10.660453" style="marker:none" transform="translate(0 -2.0633135)"/>
              <use xlink:href="#a" fill-rule="evenodd"/>
              <use xlink:href="#b" fill-rule="evenodd" stroke-width="2.39667654" overflow="visible" style="marker:none" transform="matrix(1.65957 0 0 1.62366 -1773.1983 -485.36019)"/>
              <ellipse cx="2689.7012" cy="785.0257" overflow="visible" rx="10.48851" ry="10.660453" style="marker:none" transform="translate(0 -2.0633135)"/>
            </g>
            <g transform="translate(409.20052 -720.72838)">
              <ellipse cx="2689.7012" cy="785.0257" fill-rule="evenodd" overflow="visible" rx="10.48851" ry="10.660453" style="marker:none" transform="translate(0 -2.0633135)"/>
              <use xlink:href="#a" fill-rule="evenodd"/>
              <use xlink:href="#b" fill-rule="evenodd" stroke-width="2.39667654" overflow="visible" style="marker:none" transform="matrix(1.65957 0 0 1.62366 -1773.1983 -485.36019)"/>
              <ellipse cx="2689.7012" cy="785.0257" overflow="visible" rx="10.48851" ry="10.660453" style="marker:none" transform="translate(0 -2.0633135)"/>
            </g>
            <g transform="translate(432.42674 -716.62731)">
              <ellipse cx="2689.7012" cy="785.0257" fill-rule="evenodd" overflow="visible" rx="10.48851" ry="10.660453" style="marker:none" transform="translate(0 -2.0633135)"/>
              <use xlink:href="#a" fill-rule="evenodd"/>
              <use xlink:href="#b" fill-rule="evenodd" stroke-width="2.39667654" overflow="visible" style="marker:none" transform="matrix(1.65957 0 0 1.62366 -1773.1983 -485.36019)"/>
              <ellipse cx="2689.7012" cy="785.0257" overflow="visible" rx="10.48851" ry="10.660453" style="marker:none" transform="translate(0 -2.0633135)"/>
            </g>
            <g transform="translate(455.65295 -712.36127)">
              <ellipse cx="2689.7012" cy="785.0257" fill-rule="evenodd" overflow="visible" rx="10.48851" ry="10.660453" style="marker:none" transform="translate(0 -2.0633135)"/>
              <use xlink:href="#a" fill-rule="evenodd"/>
              <use xlink:href="#b" fill-rule="evenodd" stroke-width="2.39667654" overflow="visible" style="marker:none" transform="matrix(1.65957 0 0 1.62366 -1773.1983 -485.36019)"/>
              <ellipse cx="2689.7012" cy="785.0257" overflow="visible" rx="10.48851" ry="10.660453" style="marker:none" transform="translate(0 -2.0633135)"/>
            </g>
            <g transform="translate(478.87917 -708.09523)">
              <ellipse cx="2689.7012" cy="785.0257" fill-rule="evenodd" overflow="visible" rx="10.48851" ry="10.660453" style="marker:none" transform="translate(0 -2.0633135)"/>
              <use xlink:href="#a" fill-rule="evenodd"/>
              <use xlink:href="#b" fill-rule="evenodd" stroke-width="2.39667654" overflow="visible" style="marker:none" transform="matrix(1.65957 0 0 1.62366 -1773.1983 -485.36019)"/>
              <ellipse cx="2689.7012" cy="785.0257" overflow="visible" rx="10.48851" ry="10.660453" style="marker:none" transform="translate(0 -2.0633135)"/>
            </g>
            <g transform="translate(501.63139 -704.77719)">
              <ellipse cx="2689.7012" cy="785.0257" fill-rule="evenodd" overflow="visible" rx="10.48851" ry="10.660453" style="marker:none" transform="translate(0 -2.0633135)"/>
              <use xlink:href="#a" fill-rule="evenodd"/>
              <use xlink:href="#b" fill-rule="evenodd" stroke-width="2.39667654" overflow="visible" style="marker:none" transform="matrix(1.65957 0 0 1.62366 -1773.1983 -485.36019)"/>
              <ellipse cx="2689.7012" cy="785.0257" overflow="visible" rx="10.48851" ry="10.660453" style="marker:none" transform="translate(0 -2.0633135)"/>
            </g>
          </g>
        </g>
        <g fill-rule="evenodd" transform="translate(-357.17603 -185.14056)">
          <path d="M3553.9075 248.57822s-3.3227 11.67076-10.734 23.17021c-4.9765 7.72149-14.4298 14.70736-16.0966 20.49636-.7658 2.6596-2.311 7.27656 0 9.13951 3.348 2.69889 15.1652-1.0155 15.1652-1.0155s-12.6078 21.97529-12.8321 32.49605c-.076 3.56523-1.3042 9.53058 2.3331 11.17052 3.5432 1.59749 12.832-3.04651 12.832-3.04651s-4.7013 13.60966-3.4996 19.29453c.9003 4.25839 3.0246 7.55195 6.9994 10.15501 4.2596 2.78966 16.3316 6.09302 16.3316 6.09302v-127.9532z"/>
          <path d="M3603.8181 248.57822s2.7962 11.33913 10.4334 23.37594c4.6303 7.29756 14.8312 14.85157 16.3972 20.29063.7658 2.6596 2.311 7.27656 0 9.13951-3.348 2.69889-15.1652-1.0155-15.1652-1.0155s12.6078 21.97529 12.8321 32.49605c.076 3.56523 1.3042 9.53058-2.3331 11.17052-3.5432 1.59749-12.832-3.04651-12.832-3.04651s4.7013 13.60966 3.4996 19.29453c-.9003 4.25839-3.0246 7.55195-6.9994 10.15501-4.2596 2.78966-16.3316 6.09302-16.3316 6.09302v-127.9532z"/>
        </g>
        <path fill-rule="evenodd" d="M3215.1474 64.302706s-25.3039 24.381273-33.2306 37.028474c-1.1985 1.91227-4.3997 5.32347-2.8484 6.96262 5.3868 5.69198 24.6857-8.545035 24.6857-8.545035s-17.26 23.528035-21.5209 35.129575c-1.4907 4.05881-5.5575 11.49839-2.2153 14.24172 7.2669 5.9648 29.4328-10.76041 29.4328-10.76041s-20.6972 18.82892-18.9889 29.11641c1.9944 12.00995 31.9647 25.00213 31.9647 25.00213s27.633-13.28478 31.0153-24.68565c2.9888-10.07447-11.0769-33.23068-11.0769-33.23068s13.7217 20.85831 20.8879 17.09006c4.0477-2.12841.018-10.80196-1.2659-15.19117-3.1957-10.92448-17.7231-33.54716-17.7231-33.54716s16.5549 13.19109 21.8373 8.54503c2.6455-2.32683-1.1052-8.33156-2.8483-11.39337-7.0748-12.427422-33.8636-33.547165-33.8636-33.547165z"/>
        <rect width="32.856361" height="146.84782" x="3205.2585" y="57.064594" fill-rule="evenodd" overflow="visible" ry="13.075443" style="marker:none"/>
        <rect width="14.081205" height="146.84782" x="3195.4866" y="57.064594" fill-rule="evenodd" overflow="visible" ry="7.0406027" style="marker:none"/>
        <rect width="14.081205" height="146.84782" x="3233.8059" y="57.064594" fill-rule="evenodd" overflow="visible" ry="7.0406027" style="marker:none"/>
        <path fill-rule="evenodd" d="M3196.3253 141.8316s2.6467-5.02052 5.5127-18.3591c1.5726-7.31916 7.6127-17.76981 7.6127-17.76981V62.40381l-4.1142-4.430757-6.3297-.316483-3.1648 3.48131z"/>
        <path fill-rule="evenodd" d="M3233.9314 135.17143s1.6801-14.6865 4.5461-28.02508c1.5726-7.319159 9.0626-16.319897 9.0626-16.319897V62.026528l-4.1142-4.430757-6.3297-.316483-3.1648 3.48131z"/>
        <rect width="14.081205" height="146.84782" x="3195.4866" y="57.064594" overflow="visible" ry="7.0406027" style="marker:none"/>
        <rect width="14.081205" height="146.84782" x="3233.8059" y="57.064594" overflow="visible" ry="7.0406027" style="marker:none"/>
        <g transform="translate(532.02812 -636.6002)">
          <ellipse cx="2689.7012" cy="785.0257" fill-rule="evenodd" overflow="visible" rx="10.48851" ry="10.660453" style="marker:none" transform="translate(0 -2.0633135)"/>
          <use xlink:href="#a" fill-rule="evenodd"/>
          <use xlink:href="#b" fill-rule="evenodd" stroke-width="2.39667654" overflow="visible" style="marker:none" transform="matrix(1.65957 0 0 1.62366 -1773.1983 -485.36019)"/>
          <ellipse cx="2689.7012" cy="785.0257" overflow="visible" rx="10.48851" ry="10.660453" style="marker:none" transform="translate(0 -2.0633135)"/>
        </g>
        <g transform="translate(532.02812 -659.43714)">
          <ellipse cx="2689.7012" cy="785.0257" fill-rule="evenodd" overflow="visible" rx="10.48851" ry="10.660453" style="marker:none" transform="translate(0 -2.0633135)"/>
          <use xlink:href="#a" fill-rule="evenodd"/>
          <use xlink:href="#b" fill-rule="evenodd" stroke-width="2.39667654" overflow="visible" style="marker:none" transform="matrix(1.65957 0 0 1.62366 -1773.1983 -485.36019)"/>
          <ellipse cx="2689.7012" cy="785.0257" overflow="visible" rx="10.48851" ry="10.660453" style="marker:none" transform="translate(0 -2.0633135)"/>
        </g>
        <g transform="translate(532.02812 -682.27409)">
          <ellipse cx="2689.7012" cy="785.0257" fill-rule="evenodd" overflow="visible" rx="10.48851" ry="10.660453" style="marker:none" transform="translate(0 -2.0633135)"/>
          <use xlink:href="#a" fill-rule="evenodd"/>
          <use xlink:href="#b" fill-rule="evenodd" stroke-width="2.39667654" overflow="visible" style="marker:none" transform="matrix(1.65957 0 0 1.62366 -1773.1983 -485.36019)"/>
          <ellipse cx="2689.7012" cy="785.0257" overflow="visible" rx="10.48851" ry="10.660453" style="marker:none" transform="translate(0 -2.0633135)"/>
        </g>
        <g transform="translate(532.02812 -705.03781)">
          <ellipse cx="2689.7012" cy="785.0257" fill-rule="evenodd" overflow="visible" rx="10.48851" ry="10.660453" style="marker:none" transform="translate(0 -2.0633135)"/>
          <use xlink:href="#a" fill-rule="evenodd"/>
          <use xlink:href="#b" fill-rule="evenodd" stroke-width="2.39667654" overflow="visible" style="marker:none" transform="matrix(1.65957 0 0 1.62366 -1773.1983 -485.36019)"/>
          <ellipse cx="2689.7012" cy="785.0257" overflow="visible" rx="10.48851" ry="10.660453" style="marker:none" transform="translate(0 -2.0633135)"/>
        </g>
        <g transform="translate(532.02812 -727.7026)">
          <ellipse cx="2689.7012" cy="785.0257" fill-rule="evenodd" overflow="visible" rx="10.48851" ry="10.660453" style="marker:none" transform="translate(0 -2.0633135)"/>
          <use xlink:href="#a" fill-rule="evenodd"/>
          <use xlink:href="#b" fill-rule="evenodd" stroke-width="2.39667654" overflow="visible" style="marker:none" transform="matrix(1.65957 0 0 1.62366 -1773.1983 -485.36019)"/>
          <ellipse cx="2689.7012" cy="785.0257" overflow="visible" rx="10.48851" ry="10.660453" style="marker:none" transform="translate(0 -2.0633135)"/>
        </g>
      </g>
    </g>
  </g>
  <g fill="#fc0" stroke="#d4aa00" stroke-linecap="round" stroke-linejoin="round" stroke-width="2.93773937" transform="matrix(.47728 0 0 .54624 470.40071171 267.77377584)">
    <path stroke-width="3.02099204" d="M878.16145-242.46518c47.42162 0 90.37518 3.35119 121.23002 8.74071 15.42753 2.69473 27.85913 5.92646 36.06483 9.31519 4.1027 1.69435 7.1486 3.49422 8.7759 4.88329.3888.33181.5763.40562.5765.61554.0002.20919-.1933.24739-.5765.5745-1.6273 1.38907-4.6732 3.18894-8.7759 4.8833-8.2057 3.38873-20.6373 6.62045-36.06483 9.3152-30.85484 5.38949-73.8084 8.78172-121.23002 8.78172-47.42163 0-90.37518-3.39223-121.23003-8.78172-15.42742-2.69475-27.85903-5.92647-36.06473-9.3152-4.10285-1.69436-7.14867-3.49423-8.77596-4.8833-.38323-.32711-.57671-.36531-.57653-.5745.00019-.20992.1878-.28373.57653-.61554 1.62729-1.38907 4.67311-3.18894 8.77596-4.88329 8.2057-3.38873 20.63731-6.62046 36.06473-9.31519 30.85485-5.38952 73.8084-8.74071 121.23003-8.74071z" color="#000" font-family="Bitstream Vera Sans" overflow="visible" style="line-height:normal;-inkscape-font-specification:'Bitstream Vera Sans';text-indent:0;text-align:start;text-decoration-line:none;text-transform:none;marker:none" transform="matrix(1.01636 0 0 .93042 -617.52676 564.07091)"/>
    <g transform="translate(.00002634)">
      <path d="M495.39335 273.71872c-8.9757 15.17191-24.3692 32.71227-39.4046 43.59649l-12.431-5.93486c23.3897-9.08994 38.1798-23.21806 51.8356-37.66163z"/>
      <path d="M54.606601 273.71872c8.9757 15.17191 24.3692 32.71227 39.4046 43.59649l12.430999-5.93486c-23.389699-9.08994-38.179799-23.21806-51.835599-37.66163Z"/>
      <path d="M149.40623 242.25c-2.85292.0987-5.25093 3.06467-4.75 5.875 0 0 2.41381 12.45889 3.625 18.6875 1.05129 5.40634.62571 11.74334-1.40625 16.5-2.03196 4.75666-5.09506 7.87283-10.59375 8.78125-4.39556.72618-13.97091-2.57067-21.03125-7.71875-3.53017-2.57404-6.04271-5.53017-8.34375-7.8125-3.30723-3.28033-4.57543-6.84872-9.687504-5.75-2.865951 2.19247-1.910369 5.08049-1 7.78125 1.986068 5.892 4.486424 12.31991 3.812504 18.65625-.183606 1.72626-.391711 1.90087-1.343754 2.28125.13722-.0548-2.051154-.008-5.34375-1.78125-3.292596-1.77362-7.423389-4.79969-11.5-8.375-8.153222-7.15062-16.367921-16.59626-19.875-21.9375-1.439897-2.19257-4.74493-2.87739-6.9375-1.4375-2.19257 1.4399-2.877397 4.74493-1.4375 6.9375 4.402422 6.70483 12.785225 16.15734 21.65625 23.9375 4.435512 3.89008 8.962828 7.32764 13.34375 9.6875 4.380922 2.35986 8.918563 4.20532 13.812504 2.25 4.40418-1.75964 6.87717-6.07498 7.5-9.96875.39728-2.48369.21772-4.94235-.125-7.34375 8.41282 6.79272 17.36955 11.41997 28.125 10.46875 8.99956-.79593 15.16086-7.63361 18.1875-14.71875.54865-1.28436.89999-2.63168 1.28125-3.96875 1.5712 1.69563 3.25357 3.3178 5.0625 4.8125 7.02412 5.80395 15.71212 10.03713 24.65625 9.46875 8.51506-.54111 16.29149-4.69117 21.8125-10.65625 1.76096-1.9026 3.22587-4.07231 4.46875-6.34375 7.01882 8.8364 18.31826 14.87481 30.625 14.84375 9.57668-.0242 18.34648-4.83916 24.875-11.28125 2.33829-2.30731 4.40483-4.84793 6.125-7.53125 1.72017 2.68332 3.78671 5.22394 6.125 7.53125 6.52852 6.44209 15.29832 11.25705 24.875 11.28125 12.30674.0311 23.60618-6.00735 30.625-14.84375 1.24288 2.27144 2.70779 4.44115 4.46875 6.34375 5.52101 5.96508 13.29744 10.11514 21.8125 10.65625 8.94413.56838 17.63213-3.6648 24.65625-9.46875 1.80893-1.4947 3.4913-3.11687 5.0625-4.8125.38126 1.33707.7326 2.68439 1.28125 3.96875 3.02664 7.08514 9.18794 13.92282 18.1875 14.71875 10.75545.95122 19.71218-3.67603 28.125-10.46875-.34272 2.4014-.52228 4.86006-.125 7.34375.62283 3.89377 3.09582 8.20911 7.5 9.96875 4.89394 1.95532 9.43158.10986 13.8125-2.25s8.90824-5.79742 13.34375-9.6875c8.87103-7.78016 17.25383-17.23267 21.65625-23.9375 1.4399-2.19257.75507-5.4976-1.4375-6.9375-2.19257-1.43989-5.4976-.75507-6.9375 1.4375-3.50708 5.34124-11.72178 14.78688-19.875 21.9375-4.07661 3.57531-8.2074 6.60138-11.5 8.375-3.29259 1.77325-5.48097 1.72645-5.34375 1.78125-.95204-.38038-1.16015-.55499-1.34375-2.28125-.67392-6.33634 1.82643-12.76425 3.8125-18.65625.91037-2.70076 1.8972-5.58878-.96875-7.78125-5.11208-1.09872-6.41152 2.46967-9.71875 5.75-2.30104 2.28233-4.81358 5.23846-8.34375 7.8125-7.06034 5.14808-16.63569 8.44493-21.03125 7.71875-5.49869-.90842-8.56179-4.02459-10.59375-8.78125-2.03196-4.75666-2.45754-11.09366-1.40625-16.5 1.21119-6.22861 3.625-18.6875 3.625-18.6875.50093-2.81033-1.89708-5.7763-4.75-5.875-2.32784-.0787-4.58326 1.68942-5.0625 3.96875 0 0-2.41491 12.43784-3.625 18.65625-.87386 4.49057-5.08427 10.8443-10.71875 15.5-5.63448 4.6557-12.521 7.54508-17.65625 7.21875-5.56432-.3536-11.37552-3.18934-15.09375-7.5-3.4375-3.9852-5.78047-8.43819-5-13.90625.36428-2.55215-1.52422-5.23625-4.0625-5.6875-2.80909-.0132-5.18275 1.09724-5.78125 4-2.07921 10.08429-14.48277 20.93925-27.5625 20.90625-6.08775-.0154-12.81196-3.41024-17.875-8.40625-5.06304-4.99601-8.13877-11.47637-8.15625-15.90625-.0149-3.78144-.0458-7.56252 0-11.34375.032-2.64163-2.35817-2.96875-5-2.96875s-5.03736.32719-5 2.96875c.0436 3.08303 0 8.26042 0 11.34375 0 4.42995-3.09321 10.91024-8.15625 15.90625s-11.78725 8.39089-17.875 8.40625c-13.07973.033-25.48329-10.82196-27.5625-20.90625-.5985-2.90276-2.97216-4.01317-5.78125-4-2.53828.45125-4.42678 3.13535-4.0625 5.6875.78047 5.46806-1.5625 9.92105-5 13.90625-3.71823 4.31066-9.52943 7.1464-15.09375 7.5-5.13525.32633-12.02177-2.56305-17.65625-7.21875-5.63448-4.6557-9.84489-11.00943-10.71875-15.5-1.21009-6.21841-3.625-18.65625-3.625-18.65625-.47924-2.27933-2.73466-4.04747-5.0625-3.96875z" color="#000" font-family="Bitstream Vera Sans" overflow="visible" style="line-height:normal;-inkscape-font-specification:'Bitstream Vera Sans';text-indent:0;text-align:start;text-decoration-line:none;text-transform:none;marker:none"/>
    </g>
    <g stroke-width="3.14842772" color="#000" font-family="Bitstream Vera Sans" transform="matrix(.96187 0 0 .90516 -1149.0123 8.9021222)">
      <path d="M1480.469 314.15014c-53.5478 0-102.0113 2.8298-137.3319 7.47616-17.6604 2.32318-32.0199 5.06422-42.3322 8.2715-5.1562 1.60364-9.2839 3.27825-12.5478 5.37647-3.2639 2.09823-6.2738 5.08011-6.2738 9.35316 0 4.27307 3.0099 7.28676 6.2738 9.38497 3.2639 2.09823 7.3916 3.77284 12.5478 5.37648 10.3123 3.20728 24.6718 5.94832 42.3322 8.27151h274.6638s31.9868-5.06423 42.2991-8.27151c5.1562-1.60364 9.3169-3.27825 12.5808-5.37648 3.2639-2.09821 6.2739-5.1119 6.2739-9.38497 0-4.27305-3.01-7.25493-6.2739-9.35316-3.2639-2.09822-7.4246-3.77283-12.5808-5.37647-10.3123-3.20728-24.6389-5.94832-42.2991-8.2715-35.3207-4.64636-83.7841-7.47616-137.3319-7.47616zm0 10.1803c53.1579 0 101.3051 2.82828 135.9119 7.38073 17.3035 2.27622 31.2418 5.01555 40.4831 7.88974 4.6207 1.43709 8.0557 2.95674 9.9392 4.16756.6926.44525.8986.64351 1.1226.85896-.2222.21487-.4201.43911-1.1226.89078-1.8835 1.21083-5.3185 2.73047-9.9392 4.16757-9.2413 2.87418-23.1796 5.61351-40.4831 7.88974-34.6068 4.55245-82.754 7.38072-135.9119 7.38072-53.158 0-101.3052-2.82827-135.9121-7.38072-17.3034-2.27623-31.2416-5.01556-40.483-7.88974-4.6207-1.4371-8.0886-2.95674-9.9722-4.16757-.6995-.44969-.8668-.67571-1.0896-.89078.2246-.2156.4004-.41587 1.0896-.85896 1.8836-1.21082 5.3515-2.73047 9.9722-4.16756 9.2414-2.87419 23.1796-5.61352 40.483-7.88974 34.6069-4.55245 82.7541-7.38073 135.9121-7.38073z" overflow="visible" style="line-height:normal;-inkscape-font-specification:'Bitstream Vera Sans';text-indent:0;text-align:start;text-decoration-line:none;text-transform:none;marker:none"/>
      <path d="M1480.469 324.33044c-53.158 0-101.3052 2.82828-135.9121 7.38073-17.3034 2.27622-31.2416 5.01555-40.483 7.88974-4.6207 1.43709-8.1422 2.88678-9.9722 4.16756-1.3497.94464-3.1369 2.19246-3.1369 3.62674 6.6504 12.27649 10.7707 23.90446 13.4063 37.41263l50.158-14.15698 125.9399-5.69462 125.9398 5.69462 50.158 14.15698c2.6355-13.50817 6.7559-25.13614 13.4063-37.41263 0-1.43428-1.7872-2.6821-3.137-3.62674-1.8299-1.28078-5.3514-2.73047-9.9721-4.16756-9.2413-2.87419-23.1796-5.61352-40.4831-7.88974-34.6068-4.55245-82.754-7.38073-135.9119-7.38073z" overflow="visible" style="line-height:normal;-inkscape-font-specification:'Bitstream Vera Sans';text-indent:0;text-align:start;text-decoration-line:none;text-transform:none;marker:none"/>
      <path d="M1480.469 360.27966c-49.2787 0-93.8795 2.59984-126.4022 6.87171-16.2613 2.13593-29.4676 4.67587-38.9971 7.63524-4.7647 1.47966-8.5983 3.03187-11.6562 4.99471-3.0579 1.96284-5.9767 4.80554-5.9767 8.93958s2.9188 6.97676 5.9767 8.93959c3.0579 1.96283 6.8915 3.51503 11.6562 4.99471 9.5295 2.95936 22.7358 5.46749 38.9971 7.60341 32.5227 4.27187 77.1235 6.90353 126.4022 6.90353 49.2786 0 93.8795-2.63166 126.4021-6.90353 16.2613-2.13592 29.4676-4.64405 38.9971-7.60341 4.7648-1.47968 8.5983-3.03188 11.6562-4.99471 3.0579-1.96283 5.9767-4.80555 5.9767-8.93959 0-4.13404-2.9188-6.97674-5.9767-8.93958-3.0579-1.96284-6.8914-3.51505-11.6562-4.99471-9.5295-2.95937-22.7358-5.49931-38.9971-7.63524-32.5226-4.27187-77.1235-6.87171-126.4021-6.87171zm0 10.18032c48.8893 0 93.1724 2.59803 124.9822 6.77626 15.905 2.08911 28.7213 4.59453 37.181 7.22166 4.2298 1.31357 7.37 2.70892 9.0476 3.7858.4008.25725.5942.31446.5944.4772.0002.16219-.1993.19178-.5944.44539-1.6776 1.07689-4.8178 2.47223-9.0476 3.78581-8.4597 2.62713-21.276 5.13253-37.181 7.22164-31.8098 4.17824-76.0929 6.8081-124.9822 6.8081-48.8894 0-93.1725-2.62986-124.9823-6.8081-15.9049-2.08911-28.7213-4.59451-37.181-7.22164-4.2298-1.31358-7.3699-2.70892-9.0476-3.78581-.3951-.25361-.5945-.2832-.5944-.44539.0002-.16274.1937-.21995.5944-.4772 1.6777-1.07688 4.8178-2.47223 9.0476-3.7858 8.4597-2.62713 21.2761-5.13255 37.181-7.22166 31.8098-4.17823 76.0929-6.77626 124.9823-6.77626z" overflow="visible" style="line-height:normal;-inkscape-font-specification:'Bitstream Vera Sans';text-indent:0;text-align:start;text-decoration-line:none;text-transform:none;marker:none"/>
    </g>
    <g transform="translate(.0000265)">
      <path fill-rule="evenodd" d="m155.05943 318.19342 35.09396-3.35155c3.521-.33626 6.62683 2.23316 6.96375 5.76104.33692 3.52787-2.22643 6.63871-5.74743 6.97497l-35.09396 3.35155c-3.521.33626-6.62684-2.23316-6.96376-5.76104-.33692-3.52787 2.22644-6.63871 5.74744-6.97497z"/>
      <path d="M136.4779 328.0853c0 4.29857-3.48471 7.78328-7.78332 7.78328-4.2986 0-7.78324-3.48471-7.78324-7.78328 0-4.2986 3.48464-7.7833 7.78324-7.7833 4.29861 0 7.78332 3.4847 7.78332 7.7833z"/>
      <path fill-rule="evenodd" d="m394.93992 318.19342-35.09396-3.35155c-3.521-.33626-6.62683 2.23316-6.96375 5.76104-.33692 3.52787 2.22643 6.63871 5.74743 6.97497l35.09396 3.35155c3.521.33626 6.62684-2.23316 6.96376-5.76104.33692-3.52787-2.22644-6.63871-5.74744-6.97497z"/>
      <path d="M429.08801 328.0853c0 4.29857-3.48471 7.78328-7.78332 7.78328-4.2986 0-7.78324-3.48471-7.78324-7.78328 0-4.2986 3.48464-7.7833 7.78324-7.7833 4.29861 0 7.78332 3.4847 7.78332 7.7833z"/>
      <path d="M335.45722 319.62672c0 4.29857-3.48471 7.78328-7.78332 7.78328-4.2986 0-7.78324-3.48471-7.78324-7.78328 0-4.2986 3.48464-7.7833 7.78324-7.7833 4.29861 0 7.78332 3.4847 7.78332 7.7833z"/>
      <path d="M230.10869 319.62672c0 4.29857-3.48471 7.78328-7.78332 7.78328-4.2986 0-7.78324-3.48471-7.78324-7.78328 0-4.2986 3.48464-7.7833 7.78324-7.7833 4.29861 0 7.78332 3.4847 7.78332 7.7833z"/>
      <path d="m255.90016 311.76098 38.1.00002 9.99982 6.6695-9.99982 6.6695-38.1-.00003-9.90018-6.66949z"/>
      <path d="M245.99998 318.43048 265.051 317.73h19.898l19.05098.7005m-9.90018-6.6695-9.1508 5.969 9.1508 7.36999m-38.19964-13.33901L265.051 317.73l-9.15084 7.36997"/>
      <use xlink:href="#t" stroke-width="3.83942008" transform="matrix(.80173 -.00708 .0069 .73018 24.750297 88.926379)"/>
      <use xlink:href="#t" stroke-width="3.83942008" transform="matrix(-.80173 -.00708 -.0069 .73018 525.24966 88.926379)"/>
    </g>
    <g transform="translate(.00003)">
      <g transform="matrix(0 -1 -1 0 516.99906 517.02576)">
        <use xlink:href="#u"/>
        <use xlink:href="#v"/>
        <use xlink:href="#w"/>
        <use xlink:href="#x"/>
      </g>
      <g transform="rotate(-90 275.01333 242.01243)">
        <use xlink:href="#u"/>
        <use xlink:href="#v"/>
        <use xlink:href="#w"/>
        <use xlink:href="#x"/>
      </g>
      <g transform="translate(-.0000075)">
        <use xlink:href="#u"/>
        <use xlink:href="#v"/>
        <use xlink:href="#w"/>
        <use xlink:href="#x"/>
      </g>
      <path fill-rule="evenodd" d="M285.10568 242.02577c0 5.58416-4.52448 10.11101-10.10571 10.11101-5.58122 0-10.10571-4.52685-10.10571-10.11101 0-5.58415 4.52449-10.111 10.10571-10.111 5.58123 0 10.10571 4.52685 10.10571 10.111z" color="#000" overflow="visible" style="marker:none"/>
      <use xlink:href="#y"/>
      <use xlink:href="#z"/>
      <use xlink:href="#A"/>
      <use xlink:href="#B"/>
      <use xlink:href="#C"/>
      <use xlink:href="#D"/>
      <use xlink:href="#E"/>
      <use xlink:href="#F"/>
      <use xlink:href="#G"/>
      <use xlink:href="#H"/>
      <use xlink:href="#I"/>
      <use xlink:href="#J"/>
      <use xlink:href="#K" color="#000" overflow="visible" style="marker:none"/>
      <path d="M218.14756 257.99373c0 4.29857-3.48471 7.78328-7.78332 7.78328-4.2986 0-7.78324-3.48471-7.78324-7.78328 0-4.2986 3.48464-7.7833 7.78324-7.7833 4.29861 0 7.78332 3.4847 7.78332 7.7833z"/>
      <path d="M103.71056 268.90772c0 4.29857-3.48471 7.78328-7.783322 7.78328-4.2986 0-7.78324-3.48471-7.78324-7.78328 0-4.2986 3.48464-7.7833 7.78324-7.7833 4.298612 0 7.783322 3.4847 7.783322 7.7833z"/>
      <g transform="matrix(-1 0 0 1 549.99995 0)">
        <use xlink:href="#y"/>
        <use xlink:href="#z"/>
        <use xlink:href="#A"/>
        <use xlink:href="#B"/>
        <use xlink:href="#C"/>
        <use xlink:href="#D"/>
        <use xlink:href="#E"/>
        <use xlink:href="#F"/>
        <use xlink:href="#G"/>
        <use xlink:href="#H"/>
        <use xlink:href="#I"/>
        <use xlink:href="#J"/>
        <use xlink:href="#K" color="#000" overflow="visible" style="marker:none"/>
      </g>
      <g transform="matrix(-1 0 0 1 549.99995 0)">
        <use xlink:href="#L"/>
        <use xlink:href="#M"/>
        <use xlink:href="#N"/>
        <use xlink:href="#O"/>
        <use xlink:href="#P"/>
        <use xlink:href="#Q"/>
        <use xlink:href="#R" color="#000" overflow="visible" style="marker:none"/>
      </g>
      <path d="M331.8524 257.99373c0 4.29857 3.48471 7.78328 7.78332 7.78328 4.2986 0 7.78324-3.48471 7.78324-7.78328 0-4.2986-3.48464-7.7833-7.78324-7.7833-4.29861 0-7.78332 3.4847-7.78332 7.7833z"/>
      <path d="M446.2894 268.90772c0 4.29857 3.48471 7.78328 7.78332 7.78328 4.2986 0 7.78324-3.48471 7.78324-7.78328 0-4.2986-3.48464-7.7833-7.78324-7.7833-4.29861 0-7.78332 3.4847-7.78332 7.7833z"/>
      <use xlink:href="#L"/>
      <use xlink:href="#M"/>
      <use xlink:href="#N"/>
      <use xlink:href="#O"/>
      <use xlink:href="#P"/>
      <use xlink:href="#Q"/>
      <use xlink:href="#R" color="#000" overflow="visible" style="marker:none"/>
    </g>
  </g>
</svg>