<?xml version="1.0" encoding="UTF-8" standalone="no"?>
<svg
   height="600"
   width="900"
   version="1.1"
   id="svg17"
   sodipodi:docname="Flag_of_Mozambique_(1983).svg"
   inkscape:version="1.3 (0e150ed6c4, 2023-07-21)"
   xmlns:inkscape="http://www.inkscape.org/namespaces/inkscape"
   xmlns:sodipodi="http://sodipodi.sourceforge.net/DTD/sodipodi-0.dtd"
   xmlns="http://www.w3.org/2000/svg"
   xmlns:svg="http://www.w3.org/2000/svg">
  <defs
     id="defs17" />
  <sodipodi:namedview
     id="namedview17"
     pagecolor="#ffffff"
     bordercolor="#666666"
     borderopacity="1.0"
     inkscape:showpageshadow="2"
     inkscape:pageopacity="0.0"
     inkscape:pagecheckerboard="0"
     inkscape:deskcolor="#d1d1d1"
     inkscape:zoom="1.2511111"
     inkscape:cx="450"
     inkscape:cy="300.13321"
     inkscape:window-width="1920"
     inkscape:window-height="1007"
     inkscape:window-x="-9"
     inkscape:window-y="-9"
     inkscape:window-maximized="1"
     inkscape:current-layer="g6" />
  <g
     fill-rule="evenodd"
     id="g17">
    <g
       stroke-width="1pt"
       id="g6">
      <path
         d="m0 206.25h900v187.5h-900z"
         transform="matrix(1 0 0 3.2 0 -660)"
         id="path1" />
      <path
         d="m0 187.45711h900v18.771421h-900z"
         fill="#fff"
         transform="matrix(1 0 0 10.98745 0 -2059.676)"
         id="path2" />
      <path
         d="m0 0h900v187.5h-900z"
         fill="#2e7b43"
         fill-opacity=".996078"
         id="path3"
         style="fill:#007169;fill-opacity:0.99607843" />
      <path
         d="m0 393.72849h900v18.771421h-900z"
         fill="#fff"
         transform="matrix(1 0 0 11.00077 0 -3937.817)"
         id="path4" />
      <path
         d="m0 412.49997h900v187.5h-900z"
         fill="#ffba05"
         id="path5"
         style="fill:#fce203;fill-opacity:1" />
      <path
         d="m0 0v600l393.75-300z"
         fill="#ba3303"
         fill-opacity=".996078"
         id="path6"
         style="fill:#d30831;fill-opacity:0.99607843" />
    </g>
    <path
       d="m204.36959 412.48475-73.15403-53.55972-73.054968 53.57499 28.332478-86.12448-73.528063-52.92383 90.664473.33187 27.61212-86.28371 27.70124 86.32959 90.59329-.40245-73.54415 53.02277z"
       fill="#ffba05"
       stroke-width="1.222058pt"
       id="path7"
       style="fill:#fce203;fill-opacity:1" />
    <g
       image-rendering="optimizeQuality"
       shape-rendering="geometricPrecision"
       text-rendering="geometricPrecision"
       transform="matrix(.07551449 0 0 .07551449 -34.935954 181.38472)"
       id="g16">
      <path
         d="m2099.1071 746.73863c-.9483.94829-9.3643 2.50405-18.7063 3.46716-39.2499 4.01537-40.9525-4.56426-33.8477 29.06265 4.5561 21.56597-132.2075 102.53732-136.371 91.49133s-60.3765-38.0832-62.4286-45.02492c-5.3341-18.12105-7.6381-18.09882-51.3775.4371-21.4475 9.09016-9.9567 109.66734-10.3345 112.31215-.5113 3.54864-119.3208 37.64555-130.9224 20.10228-42.3244-64.01633-54.9113-22.03604-79.3295-4.24097-38.9611 28.39661-38.3313 26.62594-17.4988 49.37729 8.7716 9.5791 23.3959 26.0925 32.4935 36.6866 9.0975 10.6015-68.7407 129.8589-78.1568 121.2429-9.4235-8.6234-42.899-18.3874-53.5672-27.485-10.6607-9.0976-41.1743 15.2722-48.1234 8.449-17.6246-17.2913-15.654-18.4322-51.1034 29.6485-9.9421 13.4908 16.193 41.724 63.2143 72.6172 9.0976 5.9786-29.0271-12.7977-21.2335-7.5006 7.8011 5.297 20.073 182.5264-53.6854 145.7806-34.3677-17.1284-98.1107-16.5071-99.9184-15.8181-3.0894 1.1854-11.1719 16.7728-15.4985 29.9005-1.0742 3.2523-4.0524 11.4535-6.6157 18.2248-5.4082 14.2613-5.5193 14.0982 14.9429 21.7512 7.801 2.9189 16.0244 6.2823 18.284 7.4751 2.2522 1.2002 6.0304 2.1781 8.3863 2.1781s5.2971.889 6.5342 1.978c1.2299 1.0891-1.2213 21.0612 18.2703 27.1955 40.5316 12.7572 56.1634 25.5804 56.1634 29.0623 0 1.3631 10.8227-10.4885 6.8666 1.4984-6.7492 20.4473-14.2983 46.5696-18.9211 65.5129-1.1114 4.5488-2.483-8.014-3.9129-2.1688-2.4891 10.1718-39.7542 64.0908-49.5259 62.6313-4.5488-.6741 25.7534-.802-13.0018-3.2597-2.825-.1792-8.979-2.6226-14.1798-3.3412-5.1933-.7186-14.765-2.4892-21.2622-3.9265-6.5046-1.4446-13.3723-2.8003-15.2614-3.0152-7.4603-.8445-59.251 34.4174-60.6735 70.052l-.4742 11.8165 24.8109 1.7409c77.7145 5.46 86.4612 32.0359 101.5003 33.6879l46.6647 11.2035-24.6811-4.0931c-.7408 38.8795-.7408 80.9372 0 121.6985l5.9341 14.4929-32.5304 19.1488c-14.9428.9632-43.1245 2.7041-62.6235 3.8821-19.4917 1.1705-38.635 2.8448-42.5319 3.719-3.9042.8668-9.5866 2.0966-12.6387 2.7189-5.1416 1.0594-5.4379 1.9633-4.0969 12.2683 6.1934 47.3549 7.7936 54.8596 11.6905 54.7929 4.0969-.075 204.0923 16.8031 212.1453 55.5418 7.638 36.7385-38.5211 30.7592-27.6825 63.1489 9.0309 26.989 9.8309 31.4637 6.023 33.8121-3.7412 2.3115 4.1326 11.4573-38.9475 25.6149-21.3807 7.0306-40.2426 14.1501-41.9169 15.8244-2.7485 2.7486 13.0758 47.6067 21.2548 60.2454 3.5338 5.4601 42.8231 39.5438 106.3727 8.1912 73.7363-36.3754 38.5674 49.8872 58.4887 80.121l11.4831 17.4321-6.9344 5.7341c-3.8153 3.156-11.1941 8.4604-16.3948 11.7943-15.7134 10.0754-29.9575 36.2579-41.2998 44.3775-5.8452 4.1858-14.0908 9.7866-18.3137 12.4389-10.5199 6.6083-9.9347 8.8901 7.979 31.0561 8.6085 10.6608 16.1504 20.6696 16.7578 22.2476 3.7709 9.7644 22.3291 2.2595 40.0871-16.2171 5.4378-5.6526 29.9502-7.3055 40.5886-16.403 10.6312-9.0976 15.5363-6.5657 23.6189-14.0334 20.0843-18.573 85.9519 66.307 92.1009 68.2628 2.4448.7705 8.905 6.7047 14.365 13.1796l9.9273 11.7721-5.2896 7.6677c-2.9042 4.2154-25.5781 61.413-32.705 69.2214l-60.308 36.9194 57.9447-13.3827c16.469 14.5057 24.0034 20.7732 34.1974 28.441l9.4235 7.0825 5.5193-6.6824c3.0375-3.6746 43.5939-11.9833 50.0245-21.7327 42.2577-63.9942 77.8271-17.7661 111.5726-.9712 16.543 8.2383 30.5747 16.269 31.1821 17.8544.6149 1.5928-13.1871 31.3303-30.6635 66.0833-38.0424 75.655-37.1682 71.0988-15.2318 79.8556 5.8452 2.3336 15.4836 6.3416 21.4104 8.9123s14.3649 4.8452 18.7582 5.0674l7.9789.3927 9.8087-28.3521c5.3859-15.6022 107.6373-89.5089 112.1861-88.5531 4.5488.9556 14.6539 3.5189 22.455 5.697 7.7936 2.1707 19.4916 5.0008 25.9888 6.2898 6.4972 1.2817 16.0689 3.2893 21.2696 4.4525 5.2008 1.1705 14.7132 3.2596 21.1363 4.6377 3.2668-2.0264 4.8275-12.081 4.6666-3.9233-7.2062 15.006 12.389 102.6103 20.5459 104.4471-7.853 38.9758-5.7786 40.7686 48.7106 42.1244l16.5356.4149 1.6669-31.9008c-4.5422-37.9044 108.3137-130.6212 136.4683-100.6261 15.3524-1.3218-1.7257 1.2629 27.5604 43.938 3.082 113.6826 2.2003 109.7635 24.3441 107.8003 56.8227-5.0526 55.6152-3.8969 46.9251-45.1767 5.8771 25.0965 47.0903-40.6181 34.2715-126.188 6.4972-1.289 18.1951-4.1191 25.9888-6.2971 7.801-2.1781 16.8393-4.4822 20.0916-5.1119 3.245-.6371 20.7659-5.823 38.924-11.5349 18.1582-5.7045 33.6862-10.3793 34.5011-10.3793 2.0521 0 39.8677 55.3681 46.676 74.8671l12.3722 35.442 7.9492-.3927c4.371-.2222 12.7944-2.4966 18.7211-5.0673 5.9268-2.5707 15.5652-6.5787 21.4104-8.9123-9.1423-12.0797 46.7287-40.0615 1.6194-141.5377-15.6057-35.106 35.1611-77.4485 93.9319-63.9403 2.4893-2.2521 6.1194-3.3486 8.3048-2.5115-6.6996 9.2289 68.1239 110.3381 134.3972 43.5101 3.2301-2.9337 10.6459-9.4903 16.469-14.5502l10.5866-9.2161-11.772-13.1055c-6.4676-7.2085-19.7434-22.2254-29.493-33.375-9.7421-11.1423-24.1811-27.4039-32.086-36.1384-7.8973-8.7346 52.718-65.0909 61.8007-78.3371 16.8912-24.6406 95.7922 6.6116 100.6299 11.6715 27.2928 28.5152 31.3748 28.4411 54.8669-1.052 23.0699-28.9595 23.0551-27.463.6076-42.6429-10.5405-46.1182-37.8361-135.4149-23.9008-163.3669 7.3566-14.7651 14.8392-27.4039 16.632-28.0855 1.7929-.689 15.1528-15.693 49.9354 1.3835 66.1574 32.4711 82.5219 18.4192 85.1445 9.6253 1.7559-5.8748 10.7645-27.9521 17.9951-44.0802 6.2528-13.9427 5.6008-14.439-37.1163-28.4336-21.0359-19.7931-71.4803-56.2593-73.6935-61.964 10.068-36.9089 13.2611-49.4069 15.1132-59.1046 7.8307-41.065 10.2458-48.5401 15.3947-47.6955 13.1278 2.1484 112.9009-42.0447 119.7092-41.8299 2.9042.089 4.6822-6.712 8.0234-30.6413 1.1779-8.4456 2.8152-19.8324 3.6375-25.2998 1.3631-9.0828 1.015-10.0311-4.0672-11.0757-3.0523-.6296-8.742-1.8521-12.6462-2.7263-6.5047-1.4446-22.746-28.3064-102.5571-33.1737 0 0-6.2025-22.7138-6.9433-61.5933l-.5779-30.7228s38.9029-40.1969 56.4461-41.4786c17.5506-1.2742 37.2715-13.0536 49.6214-14.0241l22.4476-1.7633-.3556-11.8164c-.6149-20.2325-4.4154-44.584-8.1123-51.9851-3.8005-7.5936-93.0143-32.0613-99.1855-30.6908-32.9004-.8448-63.0157-36.4162-69.4536-55.3002-3.8227-11.2015-6.9418-21.5883-6.9418-23.0774 0-3.6893-20.3359-22.7212 19.7956-35.4118 18.847-5.9638 26.9216-22.6981 29.5219-23.8835 2.6004-1.1853 3.2968-23.4793 13.6909-26.9761 10.4014-3.4968 21.2178-7.7863 24.0403-9.5421l5.1341-3.1857-6.9343-18.3729c-10.5274-27.9076-16.6689-40.4575-20.5288-41.9391-1.9262-.7334-38.2684-6.8948-65.7241 6.5738-65.1721 31.9674-71.139 7.7839-95.2238-28.9027-19.9139-30.3376-19.9732-28.9004 1.6965-43.6135 8.4531-5.7415 21.7439-14.765 29.5449-20.0547 24.6241-13.1914 50.6896-137.4915 10.1306-119.2835-7.2233 6.8232-10.9882-23.7012-21.6786-14.6036-10.683 9.0975-72.9489 22.5675-82.2391 31.0872-31.1895 28.6337-21.6204 27.7608-48.5574-2.2656-22.3884-24.9442-31.9773-25.8172-44.7049-35.3297-11.7128-8.7493-5.5576-21.6103 10.4373-38.8868 7.4751-8.0752-.2719-2.0396 8.8257-12.6262 9.0976-10.5793 24.2553-27.7669 33.6788-38.198 18.9137-20.92883 20.3732-25.78137 10.2977-34.25663-11.2608-9.47539-42.932-31.75999-45.1322-31.75999-2.1929 0-36.2413-37.80013-68.0384 10.0881-44.6875 21.68912-44.9262 63.95722-101.5637 34.73833-23.5217-12.12768-78.9289-10.17714-42.835-83.64667 35.316-71.88411 34.7159-67.35755 10.2088-77.52194-41.0427-17.02459-69.393-42.464-75.2234-22.95758-1.8003 6.01566-38.0561 50.85175-41.575 61.59399-7.8159 23.86259-9.6466 38.65154-34.0945 29.63547-32.1822-11.86833-101.7992-27.67922-99.3693-39.61423 1.0594-5.19332-10.1222-8.07699-8.6406-13.92966 5.5934-22.09939-1.7044-69.42194-1.5191-79.60114.2148-12.06094 14.7284-5.71448-21.8174-10.09287-9.7496-1.16312-19.9288-2.80039-22.6181-3.63755-11.3422-3.52642-68.0015-5.72772-70.5351 93.41206-.6001 23.49217-104.6577 22.31994-104.6577 22.31994-4.2672-6.50461-33.3104 13.90093-37.5258-80.29742-.7556-16.89124-2.4818-32.04892-3.8302-33.67137-2.6966-3.2523-9.5568-3.94128-12.2609-1.23721"
         fill="#fff"
         fill-rule="evenodd"
         id="path8" />
      <g
         fill="#c00"
         fill-rule="nonzero"
         transform="matrix(6.7059583 0 0 6.7059583 -7303.6681 -924.01966)"
         id="g13">
        <path
           d="m1508.8081 316.07215-45.9797 33.40621 17.9789-23.60006z"
           id="path9" />
        <path
           d="m1480.3911 295.42598-17.5627 54.05238 18.6873-23.36663z"
           id="path10" />
        <path
           d="m1497.9538 349.47835-17.5627-54.05237-1.2691 29.98477z"
           id="path11" />
        <path
           d="m1508.8081 316.07215h-56.834l28.4904 12.37035z"
           id="path12" />
        <path
           d="m1497.9538 349.47836-45.9797-33.40621 29.7089 7.71556z"
           id="path13" />
      </g>
      <g
         fill-rule="evenodd"
         transform="matrix(.25414273 0 0 -.25189895 866.666 3016.7937)"
         id="g15">
        <path
           d="m5585 9321c-50-12-74-30-80-59-12-57-131-430-144-451-12-19-225-26-238-8-5 6-18 39-28 72-120.8994 338.3329-2.5574-1.7278-121 339-32.6169 68.4146-34 70-160 56-59-7-349-72-366-102-7-12-16-63-19-113-7-97-43-360-54-386-7-18-119-59-160-59-18 0-36 15-67 56-108 140-189 252-208 287-35 64-57 67-153 19-45-23-111-52-147-65-36-14-102-44-147-67-73-37-83-45-89-75-6-36 8-165 31-265 8-36 18-99 21-141l7-77-161.6547-107.1531c-108.3453 93.1531-12.3453 9.1531-108.3453 93.1531-126 111-261 212-284 212-10 0-46-24-79-52-32-29-96-82-140-118-45-36-94-75-109-87s-40-40-56-63l-28-41 28-87c16-48 59-150 96-227 68-139 68-140 51-169-24-41-78-68-123-62-67 10-234 64-313 100-118 54-123 53-203-56-143-194-171-234-193-278-12-25-33-59-46-77-13-17-24-39-24-48 0-8 42-59 94-113 103-106 216-246 216-269 0-16-77-160-91-168-4-3-95 0-201 6-228 15-259 14-296-5-41-21-202-459-202-496 0-33 43-71 135-117 28-14 77-41 110-61 210-125 239-148 216-176-6-7-16-37-21-67-6-29-17-60-25-68-9-10-58-19-142-27-321-31-432-51-434-77 0-7-2-79-3-162-2-82-7-195-11-251-7-96-6-102 15-122 12-11 34-23 48-27 15-4 61-19 102-35s124-45 183-66c60-20 115-44 123-51 10-10 14-41 14-108 0-111 4-106-130-155-47-17-125-48-175-69-49-22-104-44-122-51-49-18-53-46-27-195 29-169 63-324 74-346 15-27 59-36 270-54 107-9 206-19 220-23 20-6 28-19 43-72 34-120 38-107-54-185-45-39-119-102-163-141-45-39-96-80-113-93-56-39-48-72 82-333 47-95 93-177 102-182 17-9 120 6 324 50 162 34 172 33 209-18 41-57 47-84 24-113-11-12-41-51-69-86-27-35-86-108-131-163-44-56-83-109-87-118-3-10 3-29 16-47 12-16 42-58 66-93 51-73 95-129 164-211 62-73 77-73 232-7 64 27 121 50 127 50 5 0 43 16 83 36 88 43 109 41 150-15 17-21 42-47 57-57 49-33 54-57 25-107-15-24-36-71-48-103-12-33-46-116-76-186-65-151-67-143 49-230 314-235 310-232 351-205 30 19 71 55 194 167 58 52 120 106 139 119 39 28 24 32 156-42 83-46 82-44 65-123-34-150-67-341-67-385 0-26 6-51 13-56 31-24 354-143 388-143 40 0 70 30 124 122 27 46 63 99 80 118s58 73 90 119c80 112 87 116 176 103 48-7 79-18 94-32 23-22 22-17 55-335 8-78 18-142 36-232 2-13 14-29 27-37 57-37 425-80 460-53 22 16 153 348 174 438 8 38 22 76 30 84 10 11 37 15 88 15 95 0 111-13 130-103 8-37 34-109 59-160 24-50 56-121 69-157 33-88 51-97 166-80 121 18 357 67 381 80 10 6 21 25 24 43 9 56 26 322 26 406 0 74 2 83 28 111 30 34 125 67 164 56 14-3 35-26 53-57 17-27 42-66 58-86 15-20 37-52 49-72 19-31 60-82 153-193 13-16 33-28 47-28 12 0 72 23 132 50 61 28 113 50 117 50 19 0 199 114 199 127 0 35-31 214-46 263-17 58-45 222-48 279-1 32 4 39 53 73 61 43 92 47 121 18 11-11 58-47 103-80s103-77 129-98c82-64 149-103 178-104 32-1 47 9 223 151 65 52 125 107 132 122 21 40 5 91-131 414-19 44-34 91-34 105 0 32 67 100 98 100 18 0 223-100 267-130 6-3 58-26 118-49 102-41 109-42 132-27 14 9 325 444 325 473 0 10-24 49-53 87-59 78-162 220-207 285-16 25-30 53-30 63 0 29 48 116 69 128 40 21 163 9 361-36 79-17 121-18 142-1 8 6 23 37 33 67s38 107 63 170c70 178 84 221 78 246-4 14-31 40-64 63-32 21-64 47-72 56-8 10-51 45-95 79-133 101-155 124-155 161 0 18 6 51 14 73s18 61 21 85c10 67 34 83 145 102 52 9 136 27 185 41 50 13 105 24 123 24 60 0 74 28 87 175 3 39 10 86 14 105 5 19 12 85 16 147l6 112-29 15c-17 9-49 18-73 21-52 7-142 31-184 50-16 7-56 20-87 29-32 9-69 27-84 39-25 22-26 28-25 106 1 46 4 88 8 94 3 5 38 24 77 42 68 31 190 88 287 134 26 12 56 32 68 45 20 21 21 27 11 92-6 38-17 119-25 179-19 142-30 204-38 212-4 3-51 12-105 19-53 7-141 22-195 33-55 12-107 21-117 21-33 0-76 47-109 120-38 81-35 105 16 137 15 9 60 45 99 78s110 88 158 123c88 63 98 80 73 117-7 11-21 45-31 75s-29 79-42 108-24 55-24 59c0 20-85 175-100 183-27 14-71 12-216-9-202-31-271-36-290-20-9 7-32 45-51 83-29 58-34 75-26 96 5 14 61 92 124 174 151 196 159 208 159 228 0 18-49 89-112 165-21 24-43 54-49 66-13 23-97 127-114 139-30 22-106-10-327-135-64-37-128-67-140-67-15 0-43 20-78 55l-54 55 13 52c8 29 30 98 51 153 20 55 50 142 65 194 26 85 28 95 14 120-33 58-375 311-422 311-10 0-42-22-70-49-149-141-294-260-315-261-25 0-163 72-183 96-9 11-10 54-5 177 6 148 19 311 28 346 1 8-8 20-22 27-76 39-251 114-289 124l-60.4587 20.4587c-81.2479 21.7669-80.5413 19.5413-127.5413-45.4587-24-33-55-81-71-107-15-26-40-69-55-95-93-161-91-158-123-156-29 1-95 17-145 35-31 11-49.8991 18.6925-57.0923 91.9072-1.7598 17.9122-.5384.7316-36.9077 336.0928-13 121-34 136-230 169-120 21-224 25-280 12zm254-355c15-13 33.4633-16.7296 37.1846-50.0213 32.6887-292.4407-.092-2.4489 33.8154-299.9787 6-27 12-71 15-99s12-58 20-68c10-10 52-23 113-34 53-9 143-30 200-46 71-19 110-25 125-19 19 7 88 99 187 250 64 98 109 154 127 161 22 8 106-18 148-45 23-15 26-22 21-49-4-18-11-122-16-232s-12-210-16-223c-10-36 14-68 65-88 25-10 67-30 92-46 25-15 49-28 53-28s35-18 70-40c100-63 94-66 308 127 130 118 175 153 193 153 22 0 137-84 148-107 11-24-6-87-104-389-21-67-39-130-39-140 0-11 58-76 132-151 109-109 138-133 161-133 16 0 114 42 221 95 105 52 202 97 215 101 19 5 32-4 77-51 70-74 69.5486-73.6876 37-134-17-14-188-259-218-300s-55-84-55-95c0-12 24-59 53-104 28-45 74-121 102-168 27-48 60-91 72-97 17-8 42-5 100 11 136 36 367 80 394 74 8-1 35-41 59-87 52-102 60-87-115-218-147-109-255-204-255-223 0-8 20-87 45-176 25-90 50-180 56-201 14-52 41-61 219-77 319-27 331-31 341-116 3-27 9-65 13-84 9-46-1-54-124-110-102-46-263-120-320-148l-35-17 4-215c2-118 7-223 12-232 6-10 93-44 244-94 199-65 236-80 241-98 8-31-13-147-29-164-12-12-101-36-298-82-25-6-75-15-110-20-84-12-112-34-123-96-5-27-22-101-38-164-46-179-50-200-44-226 4-16 34-42 89-79 144-96 312-230 315-253 2-11-4-42-13-67-36-107-61-131-129-122-66 9-214 34-314 52-68 13-100 15-116 7-18-8-126-177-126-197 0-3-20-41-45-85s-45-88-45-99 17-40 38-64c20-24 62-78 92-121 30-42 85-112 123-156 40-48 67-89 67-103-1-12-27-56-58-97-76-100-84-101-280-21-81 32-172 71-202 85-85 40-106 36-165-31-27-31-85-93-127-136-48-49-78-88-78-101 0-12 11-37 24-56 13-20 47-85 76-145 28-61 70-145 92-188 45-89 44-104-10-144-20-15-54-42-75-60-23-20-48-33-65-33-29 0-93 50-220 174-41 39-93 90-117 114-25 23-54 42-66 42s-45-17-73-39c-76-57-214-151-222-151-22 0-54-46-54-78 0-15.7903 25.4118-240.5039 41-332 30-185 31-184-68-234-64-32-107-34-131-5-9 12-29 36-44 54s-42 53-60 79c-93 131-185 246-204 251-12 4-65-11-135-39-63-25-138-50-167-56-29-7-58-18-66-25-7-7-18-55-25-107-7-51-16-115-22-143-5-27-16-101-23-164-8-64-20-120-28-127-18-19-174-47-215-39-22 4-37 14-43 28-49 117-161 404-165 418-18 58-22 59-230 59-137 0-196-4-208-12-17-13-23-32-77-233-47-177-69-246-81-261-22-26-213-11-238 19-5 7-15 57-21 112-20 176-30 268-36 337-8 80-20 95-95 108-47 8-135 31-312 81-34 9-53 10-64 3-9-6-46-53-82-105-145-210-214-301-235-311-18-8-35-5-75 12-61 27-77 50-62 88 18 47 36 165 46 307 3 33 10 84 16 112 6 29 8 61 4 70-3 10-58 43-124 75-65 32-145 76-179 99-44 30-66 39-82 34-19-6-138-105-311-257-82-72-106-75-177-18-28 21-53 44-57 50-3 5 3 29 14 53 11 23 40 92 65 152 24 61 60 145 81 188 27 57 35 84 30 106-4 19-62 85-175 200-132 133-175 171-195 171-23 0-363-155-410-187-41-28-71-17-114 44-23 31-41 60-41 64 0 8 12 23 197 251 73 90 133 170 133 179s-14 35-30 58c-28 38-90 141-154 253-14 26-35 50-47 53-11 4-60-2-107-13-48-11-155-30-239-43-126-19-154-20-167-9-19 15-56 95-56 121 0 20 169 175 305 279 44 34 84 70 89 80 6 14-4 61-37 162-25 79-48 159-52 178-3 19-16 55-28 80-25 50-40 57-140 59-31 0-100 8-153 16-53 9-125 17-161 19-40 2-71 9-80 18-16 17-46 146-38 166 6 16 186 102 337 162 59 23 114 50 122 59 14 15 14 41 5 212-6 107-8 208-4 225 4 22 0 38-12 53-18 22-161 79-348 141-129 42-135 48-135 122 0 33 4 68 10 78 14 26 46 34 275 70 110 17 212 36 226 41 31 12 49 47 49 93 0 19 16 96 36 172 20 77 39 149 41 161 4 16-4 31-24 50-34 33-185 146-251 188-103 66-142 98-142 119 0 38 47 150 68 164 17 11 45 11 178-2 167-17 331-21 351-8 6 4 21 29 33 56 25 60 120 227 160 281 16 22 29 46 30 53 0 7-21 37-48 65-54 60-94 111-142 182-18 28-47 66-65 85-52 57-71 95-58 122 22 47 74 108 97 114 16 4 56-10 132-46 60-29 136-62 170-75 33-12 80-33 104-45 41-21 45-21 76-7 18 9 56 44 85 79 28 34 90 98 136 142s86 90 89 102c4 17-13 63-59 156-87 177-147 317-147 342 0 23 84 92 123 101 25 7 118-61 275-198 46-39 95-78 108-85 33-18 63-7 173 62 47 30 118 71 156 91 108 56 111 61 96 142-32 176-53 276-76 357-10 37-13 66-8 78 10 22 135 78 174 78 27 0 77-60 242-289 26-36 55-72 64-78 23-17 62-16 114 3 39 14 182 57 281 84 45 13 38-11 92 308 48 282 44 274 146 270 66-4 58 9 161-258 40-102 80-193 89-203 16-17 32-18 234-11 206 7 217 8 229 28 6 12 32 71 58 131 89 210 129 298 145 323 15 22 21 24 79 20 44-3 70-10 84-22z"
           id="path14" />
        <path
           d="m6681 8626c-24-25-40-47-157-216-36-52-94-133-130-180-35-47-95-130-134-185-38-55-111-159-162-231s-101-146-110-163-25-31-34-31c-10 0-41 16-71 37l-53 36-39-27c-39-27-41-27-72-12-53 26-75 21-107-26-16-24-39-52-51-62-29-26-27-61 5-83 14-10 35-26 45-36 20-18 19-19-19-65-37-45-67-92-123-191-35-61-63-66-85-14-9 21-30 66-45 100-34 73-35 82-12 121 15 27 16 36 5 79-7 26-21 64-32 85-10 20-22 53-26 73-3 20-22 55-41 77-19 23-43 58-53 77-45 88-99 167-122 178-21 11-34 9-84-8-32-11-71-30-86-41-15-10-71-40-124-64-53-25-119-61-147-80-59-41-64-41-242-4-73 15-148 22-225 23-105 1-119-1-165-24-343-176-539-285-590-329-11-9-60-42-110-74-95-60-139-91-279-196-47-36-118-87-157-115-39-27-75-58-80-67-6-11-4-88 6-210 8-106 20-254 26-328 20-269 23-292 40-303 26-16 67 1 93 40 33 48 246 266 289 295s197 131 263 174c147 95 482 248 667 304 56 18 116 38 133 45 52 22 149 110 203 184 65 90 62 89 239 30 64-21 134-39 154-39s44-3 53-6c9-4 41-55 70-113s77-151 106-207c58-113 59-124 10-191-25-35-37-43-76-48-54-9-74-29-135-142-24-43-58-100-77-127-18-26-33-52-33-57 0-11-76-123-93-137-8-6-259-12-702-16-379-4-708-9-731-12-30-3-86-34-208-112-92-59-197-125-233-147-37-22-82-54-100-72l-34-32 5-633c3-348 9-891 12-1206 6-515 5-575-10-597-20-30-20-58-1-95 24-46 47-53 152-46 115 9 124-1 65-71-22-26-48-64-57-83-10-19-35-58-57-86-54-72-52-101 15-199 28-43 61-92 71-109s36-56 56-86c21-30 63-98 95-150 31-52 73-114 92-138 31-38 39-43 72-40 40 3 54 21 136 168 22 40 76 130 120 201 123 198 207 346 241 429 55 132 63 146 79 160 14 11 121 15 565 18l548 5 18-29c73-115 148-175 262-210 101-31 154-28 271 17 106 40 170 85 207 144 61 98 47 92 255 95 101 1 369 5 594 9 226 3 422 3 437-2 21-7 37-28 69-90 23-45 295-573 302-587 7-13 24-31 38-39 24-13 31-13 70 2 52 20 138 75 152 98 8 12-226 518-241 546-42 84-48 83 299 95 232 8 297 13 309 24 13 13 15 171 18 1282 2 1024 0 1270-10 1284-16 21-219 146-368 226-36 19-76 43-90 52-14 10-45 28-70 40l-45 23-355-7c-900-16-1108-19-1132-13-20 5-178 353-228 451-49 99-90 187-90 196 0 8 23 48 50 88 28 40 64 99 82 130 45 82 56 92 98 92 21 0 47 8 58 18 25 21 79 97 123 172 17 30 50 82 73 115s66 103 95 155c30 52 83 147 119 210s93 165 126 225c32 61 158 282 197 346-1.1201-5.5398 90.7257 164.7589 112.7257 197.7589 44 66 44.2743 76.2411 20.2743 85.2411-21 8-17 9-43-18zm-1311-2261c8-22 119-244 116-250-7-20-133-105-155-105-12 0-11.2033-1.5724-131 75-43 13-36 50 31 184 35 69 68 129 74 134 23 17 50 1 65-38zm2013-454c14-14 25-582 29-1524 3-537 2-570-15-582-27-20-337-16-362 5-18 15-957 1941-970 1960-71 105-63 120 59 120 52 0 1248 32 1259 21zm-2854-45c10-11 6-21-17-48-29-34-110-151-148-214-30-49-44-61-84-71-38-10-22 13-273-374-100-153-121-192-136-254-11-42-34-98-56-132-20-32-55-87-78-123-23-37-58-86-78-110-48-60-50-69-28-116 55-116-9-337-141-489-33-38-77-94-96-123-40-59-59-71-80-51-11 12-14 147-15 834 0 451-4 915-9 1030-6 155-5 213 3 222 9 8 167 14 572 21 308 5 581 9 606 10 30 1 51-3 58-12zm552-18c49-16 129-69 164-108 17-18 38-41 48-51 29-32 59-24 97 29 39 52 162 141 197 142 37 0 55-31 310-530 33-63 746-1464 759-1486 36-61 25-66-159-68-83-2-318-6-522-11l-370-8-74-31c-40-17-95-50-123-73-27-24-56-43-65-43-8 0-27 14-41 31-42 48-105 88-168 104-47 12-128 15-405 15-303 0-350 2-363 16-9 8-16 21-16 27 0 7-14 45-31 86-30 71-30 76-19 135 7 33 14 73 17 88 4 22-4 37-46 81-28 30-51 63-51 75 0 28 101 176 123 180 10 2 55-12 100-32 80-34 262-83 402-108 39-6 148-12 243-12 212-1 202-8 201 143 0 115-11 236-22 247-3 4-73 8-154 9-155 3-249 17-393 60-148 45-166 61-129 117 13 19 36 55 51 79s55 87 89 139 85 145 114 205c58 122 130 351 146 459 8 62 29 106 49 106 4 0 22-5 41-12z"
           id="path15" />
      </g>
    </g>
  </g>
</svg>
