<svg xmlns="http://www.w3.org/2000/svg" height="600" width="900"><g fill-rule="evenodd"><path d="M0 0h900v600H0z" fill="#005daa"/><g fill="#f7d618"><path d="M523.456 412.363l-73.279-53.89-73.054 54.195 28.609-86.346-74.118-52.73 90.96.525 27.247-86.785 27.608 86.67 90.957-.904-73.897 53.04zM111.426 102.73L87 84.766l-24.352 18.065 9.536-28.782-24.706-17.577 30.32.176 9.083-28.929 9.202 28.89 30.32-.301-24.633 17.68zM111.426 196.62L87 178.657l-24.352 18.065 9.536-28.782-24.706-17.577 30.32.175 9.083-28.928 9.202 28.89 30.32-.302-24.633 17.68zM111.426 290.51L87 272.548l-24.352 18.065 9.536-28.782-24.706-17.577 30.32.176 9.083-28.929 9.202 28.89 30.32-.301-24.633 17.68zM111.426 384.401L87 366.438l-24.352 18.065 9.536-28.782-24.706-17.577 30.32.175 9.083-28.928 9.202 28.89 30.32-.302-24.633 17.68zM111.426 478.291L87 460.328l-24.352 18.065 9.536-28.782-24.706-17.577 30.32.175 9.083-28.928 9.202 28.89 30.32-.302-24.633 17.68zM111.426 572.182L87 554.218l-24.352 18.065 9.536-28.782-24.706-17.577 30.32.175 9.083-28.928 9.202 28.89 30.32-.301-24.633 17.68z"/></g></g></svg>