<svg xmlns="http://www.w3.org/2000/svg" width="900" height="500"><path fill="#da2d1c" d="M0 0h900v500H0z"/><path fill="#2042a1" d="M0 0h400v250H0z"/><path fill="#fff" d="m200 50 16.935 51.728 54.423.12348-43.957 32.093 16.7 51.805-44.102-31.894-44.102 31.894 16.7-51.805-43.957-32.093 54.423-.12348z m0 115.04 8.4676 25.864 27.212.0617-21.978 16.047 8.3501 25.902-22.051-15.947-22.051 15.947 8.3501-25.902-21.978-16.047 27.212-.0617zm-73.74-53.58 8.4676 25.864 27.212.0617-21.978 16.047 8.3501 25.902-22.051-15.947-22.051 15.947 8.3501-25.902-21.978-16.047 27.212-.0617zm28.16-86.692 8.4676 25.864 27.212.06174-21.978 16.047 8.3501 25.902-22.051-15.947-22.051 15.947 8.3501-25.902-21.978-16.047 27.212-.06174zm91.16 0 8.4676 25.864 27.212.06174-21.978 16.047 8.3501 25.902-22.051-15.947-22.051 15.947 8.3501-25.902-21.978-16.047 27.212-.06174zm28.17 86.692 8.4676 25.864 27.212.0617-21.978 16.047 8.3501 25.902-22.051-15.947-22.051 15.947 8.3501-25.902-21.978-16.047 27.212-.0617z"/></svg>