<svg enable-background="new 0 0 900 600" height="600" viewBox="0 0 900 600" width="900" xmlns="http://www.w3.org/2000/svg"><path d="m-900 0h900v600h-900z" fill="#fff" transform="scale(-1 1)"/><g stroke="#000" stroke-width="25"><path d="m148.38156 189.06024 83.20475-124.80893m-52.00287 145.61019 83.20503-124.807546m-52.00314 145.608796 83.20503-124.80754"/><path d="m293.99069 494.14523-38.68529-58.02792m-6.6656-9.99839-37.85415-56.78123m52.00204 145.60714-83.20503-124.80754m52.00426 145.61046-38.59785-57.89676m-6.67731-10.01598-37.92988-56.8948" fill="none"/><path d="m751.61769 189.06082-83.20477-124.808931m52.00233 145.609361-38.37195-57.55791m-6.68743-10.03118-38.14567-57.218451m52.004 145.608241-83.20532-124.80615" fill="#f00"/><path d="m668.41289 535.74941 38.22633-57.33948m6.80704-10.21058 38.17166-57.25749m-114.40691 104.00629 38.26298-57.39447m6.76018-10.14026 38.18187-57.27281m-114.40692 104.00628 38.29856-57.44784m6.71338-10.07007 38.19309-57.28963" fill="none"/></g><g transform="matrix(0,-12.5,12.5,0,450,300)"><circle cx="0" cy="0" fill="#da251d" r="12"/><path d="M 0,-12 A 6,6 0 0 0 0,0 A 6,6 0 0 1 0,12 A 12,12 0 0,1 0,-12" fill="#29166f"/></g></svg>