<svg width="900" height="600" version="1.1" viewBox="0 0 900 600" xmlns="http://www.w3.org/2000/svg">
 <g transform="translate(0,-522.51965)">
  <g transform="translate(4.9999994e-7,522.51965)" stroke-width="0">
   <path d="m0 100h900v400h-900z" fill="#fff"/>
   <path d="m0 0h900v200h-900z" fill="#cd2a3e"/>
   <path d="m0 400h900v200h-900z" fill="#436f4d"/>
  </g>
  <g transform="matrix(.28606455 0 0 .28606455 243.91572 691.73727)">
   <path d="m452.45272-32.689259-85.7051 140.087799c134.8613 120.0814 84.7121 301.4757-37.1038 356.8083 11.9371 226.9953 183.2103 408.6872 390.768 459.0654 207.5578-50.3782 378.83098-232.0701 390.76798-459.0654-121.81588-55.3326-171.96508-236.7269-37.1038-356.8083l-85.70498-140.087799c-59.1956 17.6113-174.179 37.595-267.9595 37.595-93.7804 0-208.7633-19.9837-267.9588-37.595z" fill="none" stroke="#1f1a17" stroke-width="18.5"/>
   <path d="m452.45272-32.689259-85.7051 140.087799c134.8613 120.0814 84.7121 301.4757-37.1038 356.8083 11.9371 226.9953 183.2103 408.6872 390.768 459.0654 207.5578-50.3782 378.83098-232.0701 390.76798-459.0654-121.81588-55.3326-171.96508-236.7269-37.1038-356.8083l-85.70498-140.087799c-59.1956 17.6113-174.179 37.595-267.9595 37.595-93.7804 0-208.7633-19.9837-267.9588-37.595z" fill="none" stroke="#fff" stroke-width="13.50000095"/>
   <path d="m452.45272-32.689259-85.7051 140.087799c134.8613 120.0814 84.7121 301.4757-37.1038 356.8083 11.9371 226.9953 183.2103 408.6872 390.768 459.0654 207.5578-50.3782 378.83098-232.0701 390.76798-459.0654-121.81588-55.3326-171.96508-236.7269-37.1038-356.8083l-85.70498-140.087799c-59.1956 17.6113-174.179 37.595-267.9595 37.595-93.7804 0-208.7633-19.9837-267.9588-37.595z" fill="#cd2a3e"/>
   <g transform="matrix(.99806559 0 0 .99806559 -2884.5426 4400.1527)" stroke="#1f1a17">
    <g fill="none" stroke-width="7.01356697">
     <path d="m3812.3178-3760.4865v-558.4958c0-3.6017 7.1523-4.1745 7.1523-7.7597v-6.9725"/>
     <path d="m3858.1061-4247.6055v122.9162h-5.7226c-3.5852 0-4.1581-7.1504-7.7598-7.1504h-52.2457"/>
     <path d="m3877.362-4068.8345v122.9167h-5.7227c-3.5852 0-4.158-7.1505-7.7597-7.1505h-78.2456"/>
     <path d="m3640.6616-3945.9178h6.9732c3.5852 0 4.158-7.1505 7.7597-7.1505h82.2465"/>
     <path d="m3659.9176-4124.6893h6.973c3.5852 0 4.1581-7.1504 7.7598-7.1504h52.2456"/>
    </g>
    <path transform="translate(0,522.51965)" d="m3699.8047-4854.9844v5.7227c0 3.5852 7.1504 4.158 7.1504 7.7597v79.7774h-32.3047c-3.6017 0-4.1746-7.1504-7.7598-7.1504h-5.7226v121.666h5.7226c3.5852 0 4.1581-7.1504 7.7598-7.1504h32.3047v71.4063h-51.5606c-3.6017 0-4.1745-7.1504-7.7597-7.1504h-5.7227v121.666h5.7227c3.5852 0 4.158-7.1504 7.7597-7.1504h51.5606v191.332h105.3633v-191.332h51.5605c3.6017 0 4.1746 7.1504 7.7598 7.1504h5.7226v-121.666h-5.7226c-3.5852 0-4.1581 7.1504-7.7598 7.1504h-51.5605v-71.4063h32.3046c3.6017 0 4.1746 7.1504 7.7598 7.1504h5.7227v-121.666h-5.7227c-3.5852 0-4.1581 7.1504-7.7598 7.1504h-32.3046v-79.7774c0-3.6017 7.1523-4.1745 7.1523-7.7597v-5.7227z" fill="#fff" stroke-width="2.50484538"/>
   </g>
   <g fill="#fff">
    <path d="m498.30902 806.75014c63.2146 55.9022 139.7896 96.5386 222.0833 116.5164 0.01-0.167 0.019-0.3295 0.019-0.4991v-116.0173z" style="paint-order:fill markers stroke"/>
    <path d="m348.37902 573.70174c12.1935 41.3922 29.8046 80.4548 51.8877 116.5242h320.1451v-116.5242z" style="paint-order:fill markers stroke"/>
    <path d="m437.12682 340.65364c-15.7297 49.2677-49.0531 91.6369-93.5803 116.524h376.8653v-116.524z" style="paint-order:fill markers stroke"/>
    <path d="m366.97572 107.60524c39.4081 35.1647 62.971 75.5714 73.5372 116.5242h279.8986v-116.5242z" style="paint-order:fill markers stroke"/>
   </g>
   <g fill="none" stroke="#1f1a17" stroke-width="2.5">
    <path d="m720.41132 806.75014h-222.1023" style="paint-order:fill markers stroke"/>
    <path d="m720.41182 573.70174h-372.0328" style="paint-order:fill markers stroke"/>
    <path d="m720.41182 340.65364h-283.285" style="paint-order:fill markers stroke"/>
    <path d="m440.51292 224.12944h279.8986" style="paint-order:fill markers stroke"/>
    <path d="m400.26672 690.22594h320.1451" style="paint-order:fill markers stroke"/>
    <path d="m343.54652 457.17764h376.8653" style="paint-order:fill markers stroke"/>
    <path d="m720.41152 107.60524h-353.4358" style="paint-order:fill markers stroke"/>
   </g>
   <path d="m867.82142 564.60684c-52.545 0-72.9444 75.853-72.9444 75.853-32.03-5.5619-54.957 5.3806-74.465 29.1935v253.6196c129.0185-31.3152 244.0117-113.3725 315.43538-225.5061v-0.5439c-6.8788-19.3711-43.65558-65.3774-95.08128-56.7611 0 0-20.3997-75.853-72.9447-75.853z" fill="#436f4d"/>
   <path d="m1035.8474 697.76684v-0.5439c-6.8788-19.3711-43.65558-65.3774-95.08128-56.7611 0 0-20.3997-75.853-72.9447-75.853s-72.9444 75.853-72.9444 75.853c-32.03-5.5619-54.957 5.3806-74.465 29.1935" fill="none" stroke="#1f1a17" stroke-width="2.5"/>
   <g transform="matrix(.99806559 0 0 .99806559 -2885.2991 4400.1527)" stroke="#1f1a17">
    <path d="m3760.3945-3833.6051c-22.2879 0-66.8476 6.9412-66.8476 6.9412 1.6565 13.245 1.7308 24.8547 0 37.8342 0 0 32.1191-8.9026 66.8476-8.9026s66.8477 8.9026 66.8477 8.9026c-1.7308-12.9795-1.6565-24.5892 0-37.8342 0 0-44.5598-6.9412-66.8477-6.9412z" fill="#f8c300" stroke-width="2.50484538"/>
    <g stroke-linejoin="round" stroke-width="2.50484538">
     <g fill="#f8c300">
      <path transform="scale(-1,1)" d="m-3817.0491-3876.9951a3 3 0 0 1-3 3 3 3 0 0 1-3-3 3 3 0 0 1 3-3 3 3 0 0 1 3 3z" stroke-linecap="round" style="paint-order:fill markers stroke"/>
      <path d="m3760.3945-3929.9353c-5.3284 0-7.6777 5.4007-6.1152 9.9199-11.4862 2.6942-10.2969 17.9783-6.6328 26.5411-9.4828-6.1404-23.6328-2.9334-20.7578 10.0507-6.2618-0.4842-8.7442 2.3412-8.7442 6.7891s2.4824 7.2733 8.7442 6.7891c-2.875 12.9841 11.2786 16.1967 20.7578 10.0507 2.8171-1.8265 4.6747-3.3092 6.8066-5.539-6.9106 24.3416-38.4963 26.3316-45.8691 2.3847l-5.5215 1.7812c9.6503 23.4373-19.7344 28.5844-18.8125 11.5625 4.6417-2.175 8.0232-7.5409 2.0625-12.0625 3.4741-2.3516 5.2464-5.7189 2.9629-9.7012-2.307-3.9686-6.1092-4.1179-9.8828-2.2851-0.9354-7.4229-7.274-7.1784-11.4785-4.2461-3.3586-6.3788-7.2537-11.1407-15.5391-11.6074-1.4612 15.8785 6.9152 21.3143 15.25 29.4023 7.2633 25.7855 17.8784 31.1159 26.9629 33.4414l65.8066-6.9414 65.8067 6.9414c9.0845-2.3255 19.6996-7.6559 26.9629-33.4414 8.3348-8.088 16.7112-13.5238 15.25-29.4023-8.2854 0.4667-12.1805 5.2286-15.5391 11.6074-4.2045-2.9323-10.5431-3.1767-11.4785 4.2461-3.7736-1.8328-7.5758-1.6835-9.8828 2.2851-2.2835 3.9824-0.5112 7.3496 2.9629 9.7012-5.9607 4.5216-2.5792 9.8874 2.0625 12.0625 0.9219 17.0219-28.4628 11.8747-18.8125-11.5625l-5.5215-1.7812c-7.3728 23.947-38.9586 21.9569-45.8692-2.3847 2.1319 2.2299 3.9896 3.7125 6.8067 5.539 9.4792 6.1461 23.6328 2.9334 20.7578-10.0507 6.2618 0.4842 8.7441-2.3411 8.7441-6.7891 0-4.4479-2.4823-7.2732-8.7441-6.7891 2.875-12.984-11.275-16.1912-20.7578-10.0507 3.6641-8.5629 4.8534-23.8469-6.6328-26.5411 1.5625-4.5192-0.7869-9.9199-6.1153-9.9199z"/>
      <path d="m3703.7405-3876.9951a3 3 0 0 1-3 3 3 3 0 0 1-3-3 3 3 0 0 1 3-3 3 3 0 0 1 3 3z" stroke-linecap="round" style="paint-order:fill markers stroke"/>
     </g>
     <g fill="#fff" stroke-linecap="round">
      <path d="m3711.2884-3867.6571a7.1999998 7.1999998 0 0 1-7.2 7.2 7.1999998 7.1999998 0 0 1-7.2-7.2 7.1999998 7.1999998 0 0 1 7.2-7.2 7.1999998 7.1999998 0 0 1 7.2 7.2z" style="paint-order:fill markers stroke"/>
      <path d="m3809.5006-3867.6571a7.1999998 7.1999998 0 0 0 7.2 7.2 7.1999998 7.1999998 0 0 0 7.2-7.2 7.1999998 7.1999998 0 0 0-7.2-7.2 7.1999998 7.1999998 0 0 0-7.2 7.2z" style="paint-order:fill markers stroke"/>
      <path d="m3766.3945-3885.4803a6 11 0 0 1-6 11 6 11 0 0 1-6-11 6 11 0 0 1 6-11 6 11 0 0 1 6 11z" style="paint-order:fill markers stroke"/>
      <path d="m3858.1644-3857.2353a4 7.3000002 34.552122 0 1-7.4346 3.7438 4 7.3000002 34.552122 0 1 0.8458-8.281 4 7.3000002 34.552122 0 1 7.4346-3.7438 4 7.3000002 34.552122 0 1-0.8458 8.281z" style="paint-order:fill markers stroke"/>
      <path d="m3662.6246-3857.2353a7.3000002 4 55.447878 0 0 7.4346 3.7438 7.3000002 4 55.447878 0 0-0.8458-8.281 7.3000002 4 55.447878 0 0-7.4346-3.7438 7.3000002 4 55.447878 0 0 0.8458 8.281z" style="paint-order:fill markers stroke"/>
     </g>
    </g>
    <g transform="translate(-2700.8274,5.60345)" fill="#f8c300" stroke-linecap="round" stroke-width="2.50484538">
     <path d="m6400.9586-3830.4807a6 6 0 0 1-6 6 6 6 0 0 1-6-6 6 6 0 0 1 6-6 6 6 0 0 1 6 6z" style="paint-order:fill markers stroke"/>
     <path d="m6408.9586-3832.0807a6 6 0 0 1-6 6 6 6 0 0 1-6-6 6 6 0 0 1 6-6 6 6 0 0 1 6 6z" style="paint-order:fill markers stroke"/>
     <path d="m6416.9586-3833.4808a6 6 0 0 1-6 6 6 6 0 0 1-6-6 6 6 0 0 1 6-6 6 6 0 0 1 6 6z" style="paint-order:fill markers stroke"/>
     <path d="m6426.4586-3834.8808a6 6 0 0 1-6 6 6 6 0 0 1-6-6 6 6 0 0 1 6-6 6 6 0 0 1 6 6z" style="paint-order:fill markers stroke"/>
     <path d="m6435.9581-3835.9588a6 6 0 0 1-6 6 6 6 0 0 1-6-6 6 6 0 0 1 6-6 6 6 0 0 1 6 6z" style="paint-order:fill markers stroke"/>
     <path d="m6445.9581-3836.7073a6 6 0 0 1-6 6 6 6 0 0 1-6-6 6 6 0 0 1 6-6 6 6 0 0 1 6 6z" style="paint-order:fill markers stroke"/>
     <path d="m6455.9581-3837.1277a6 6 0 0 1-6 6 6 6 0 0 1-6-6 6 6 0 0 1 6-6 6 6 0 0 1 6 6z" style="paint-order:fill markers stroke"/>
     <path d="m6521.4854-3830.4807a6 6 0 0 0 6 6 6 6 0 0 0 6-6 6 6 0 0 0-6-6 6 6 0 0 0-6 6z" style="paint-order:fill markers stroke"/>
     <path d="m6513.4854-3832.0807a6 6 0 0 0 6 6 6 6 0 0 0 6-6 6 6 0 0 0-6-6 6 6 0 0 0-6 6z" style="paint-order:fill markers stroke"/>
     <path d="m6505.4854-3833.4808a6 6 0 0 0 6 6 6 6 0 0 0 6-6 6 6 0 0 0-6-6 6 6 0 0 0-6 6z" style="paint-order:fill markers stroke"/>
     <path d="m6495.9854-3834.8808a6 6 0 0 0 6 6 6 6 0 0 0 6-6 6 6 0 0 0-6-6 6 6 0 0 0-6 6z" style="paint-order:fill markers stroke"/>
     <path d="m6486.4859-3835.9588a6 6 0 0 0 6 6 6 6 0 0 0 6-6 6 6 0 0 0-6-6 6 6 0 0 0-6 6z" style="paint-order:fill markers stroke"/>
     <path d="m6476.4859-3836.7073a6 6 0 0 0 6 6 6 6 0 0 0 6-6 6 6 0 0 0-6-6 6 6 0 0 0-6 6z" style="paint-order:fill markers stroke"/>
     <path d="m6466.4859-3837.1277a6 6 0 0 0 6 6 6 6 0 0 0 6-6 6 6 0 0 0-6-6 6 6 0 0 0-6 6z" style="paint-order:fill markers stroke"/>
     <path d="m6467.222-3837.3143a6 6 0 0 1-6 6 6 6 0 0 1-6-6 6 6 0 0 1 6-6 6 6 0 0 1 6 6z" style="paint-order:fill markers stroke"/>
    </g>
    <g transform="translate(-2700.8274,40.6378)" fill="#f8c300" stroke-linecap="round" stroke-width="2.50484538">
     <path d="m6400.9586-3830.4807a6 6 0 0 1-6 6 6 6 0 0 1-6-6 6 6 0 0 1 6-6 6 6 0 0 1 6 6z" style="paint-order:fill markers stroke"/>
     <path d="m6408.9586-3832.0807a6 6 0 0 1-6 6 6 6 0 0 1-6-6 6 6 0 0 1 6-6 6 6 0 0 1 6 6z" style="paint-order:fill markers stroke"/>
     <path d="m6416.9586-3833.4808a6 6 0 0 1-6 6 6 6 0 0 1-6-6 6 6 0 0 1 6-6 6 6 0 0 1 6 6z" style="paint-order:fill markers stroke"/>
     <path d="m6426.4586-3834.8808a6 6 0 0 1-6 6 6 6 0 0 1-6-6 6 6 0 0 1 6-6 6 6 0 0 1 6 6z" style="paint-order:fill markers stroke"/>
     <path d="m6435.9581-3835.9588a6 6 0 0 1-6 6 6 6 0 0 1-6-6 6 6 0 0 1 6-6 6 6 0 0 1 6 6z" style="paint-order:fill markers stroke"/>
     <path d="m6445.9581-3836.7073a6 6 0 0 1-6 6 6 6 0 0 1-6-6 6 6 0 0 1 6-6 6 6 0 0 1 6 6z" style="paint-order:fill markers stroke"/>
     <path d="m6455.9581-3837.1277a6 6 0 0 1-6 6 6 6 0 0 1-6-6 6 6 0 0 1 6-6 6 6 0 0 1 6 6z" style="paint-order:fill markers stroke"/>
     <path d="m6521.4854-3830.4807a6 6 0 0 0 6 6 6 6 0 0 0 6-6 6 6 0 0 0-6-6 6 6 0 0 0-6 6z" style="paint-order:fill markers stroke"/>
     <path d="m6513.4854-3832.0807a6 6 0 0 0 6 6 6 6 0 0 0 6-6 6 6 0 0 0-6-6 6 6 0 0 0-6 6z" style="paint-order:fill markers stroke"/>
     <path d="m6505.4854-3833.4808a6 6 0 0 0 6 6 6 6 0 0 0 6-6 6 6 0 0 0-6-6 6 6 0 0 0-6 6z" style="paint-order:fill markers stroke"/>
     <path d="m6495.9854-3834.8808a6 6 0 0 0 6 6 6 6 0 0 0 6-6 6 6 0 0 0-6-6 6 6 0 0 0-6 6z" style="paint-order:fill markers stroke"/>
     <path d="m6486.4859-3835.9588a6 6 0 0 0 6 6 6 6 0 0 0 6-6 6 6 0 0 0-6-6 6 6 0 0 0-6 6z" style="paint-order:fill markers stroke"/>
     <path d="m6476.4859-3836.7073a6 6 0 0 0 6 6 6 6 0 0 0 6-6 6 6 0 0 0-6-6 6 6 0 0 0-6 6z" style="paint-order:fill markers stroke"/>
     <path d="m6466.4859-3837.1277a6 6 0 0 0 6 6 6 6 0 0 0 6-6 6 6 0 0 0-6-6 6 6 0 0 0-6 6z" style="paint-order:fill markers stroke"/>
     <path d="m6467.222-3837.3143a6 6 0 0 1-6 6 6 6 0 0 1-6-6 6 6 0 0 1 6-6 6 6 0 0 1 6 6z" style="paint-order:fill markers stroke"/>
    </g>
    <g transform="translate(0,1.625)" fill="none" stroke-linecap="round" stroke-width="1.70329487">
     <path d="m3732.1456-3819.9872c-10.1218 0.8646-20.1617 2.2864-31.8504 4.4557"/>
     <path d="m3731.1727-3814.8032c-8.8369 0.7863-17.6537 2.0025-27.6033 3.7751"/>
     <path d="m3730.4313-3808.7869c-4.1203 0.3779-8.2432 0.8501-12.4856 1.4293"/>
    </g>
    <g transform="translate(0,1.25)" fill="none" stroke-linecap="round" stroke-width="1.70329487">
     <path d="m3785.24-3820.2219c11.6283 0.869 22.9305 2.445 36.5059 5.0135"/>
     <path d="m3785.3188-3814.6916c11.6039 0.8705 22.8887 2.4458 36.4385 5.0097"/>
     <path d="m3785.2782-3809.1705c11.6086 0.8692 22.895 2.4432 36.4457 5.0064"/>
    </g>
   </g>
   <path d="m720.41162 922.76744-3e-4 -918.366099" fill="none" stroke="#1f1a17" stroke-width="3.5"/>
   <path d="m452.45272-32.689259-85.7051 140.087799c134.8613 120.0814 84.7121 301.4757-37.1038 356.8083 11.9371 226.9953 183.2103 408.6872 390.768 459.0654 207.5578-50.3782 378.83098-232.0701 390.76798-459.0654-121.81588-55.3326-171.96508-236.7269-37.1038-356.8083l-85.70498-140.087799c-59.1956 17.6113-174.179 37.595-267.9595 37.595-93.7804 0-208.7633-19.9837-267.9588-37.595z" fill="none" stroke="#1f1a17" stroke-width="3.5"/>
  </g>
 </g>
</svg>
