<?xml version="1.0" encoding="UTF-8"?>
<svg xmlns="http://www.w3.org/2000/svg" viewBox="0 0 735 472.5">
  <defs>
    <style>
      .cls-1 {
        fill: #fff;
      }

      .cls-2 {
        fill: #9e772e;
      }

      .cls-3 {
        fill: #ba8c37;
      }

      .cls-4 {
        fill: #3b3481;
      }

      .cls-5, .cls-6 {
        fill: #843511;
      }

      .cls-7 {
        stroke-width: .4px;
      }

      .cls-7, .cls-8 {
        stroke: #843511;
        stroke-miterlimit: 11.34;
      }

      .cls-7, .cls-8, .cls-9 {
        fill: #da251d;
      }

      .cls-8 {
        stroke-width: .61px;
      }

      .cls-8, .cls-10, .cls-6, .cls-11, .cls-9 {
        fill-rule: evenodd;
      }

      .cls-10 {
        fill: #843811;
      }

      .cls-11 {
        fill: #de251d;
      }
    </style>
  </defs>
  <g id="svg3945" image-rendering="optimizeQuality" shape-rendering="geometricPrecision" text-rendering="geometricPrecision">
    <rect id="blue" class="cls-4" x=".95" width="735" height="472.5"/>
    <rect id="white" class="cls-1" x="0" y="157.5" width="735" height="157.5"/>
    <g id="_16rays" data-name=" 16rays">
      <g id="_8rays" data-name=" 8rays">
        <g id="_4rays" data-name=" 4rays">
          <g id="_2rays" data-name=" 2rays">
            <path id="path11" class="cls-8" d="m364.27,236.25l2.42,61.79s0,1.21.81,1.21.81-1.21.81-1.21l2.42-61.79m-6.46,0h0Z"/>
            <path id="path13" class="cls-6" d="m365.88,236.25l1.62,42.4,1.62-42.4m-3.23,0h0Z"/>
            <g id="g15">
              <path id="path17" class="cls-8" d="m361.57,256.27c-3.63,7.71-.4,14.14-4.03,20.82s-1.31,12.51-1.52,15.56c-.21,3.05-2.86,3.95-2.19,4.71.67.75,3.45-.74,4.49-4.86,1.04-4.12-1.56-6.5,2.78-14.68,4.34-8.18.83-12.19,5.21-19.55m-4.75-2h0Z"/>
              <path id="path19" class="cls-6" d="m362.6,258.33c-2.8,7.67.27,12.83-3.55,19.47,4.29-4.9,1.38-10.85,5.05-18.75m-1.5-.72h0Z"/>
            </g>
          </g>
          <g id="g3960">
            <g id="g3962">
              <path id="_65624120" data-name=" 65624120" class="cls-8" d="m370.73,236.25l-2.42-61.79s0-1.21-.81-1.21-.81,1.21-.81,1.21l-2.42,61.79m6.46,0h0Z"/>
              <path id="_65624048" data-name=" 65624048" class="cls-6" d="m369.12,236.25l-1.62-42.4-1.62,42.4m3.23,0h0Z"/>
              <g id="g3966">
                <path id="_65623976" data-name=" 65623976" class="cls-8" d="m373.43,216.23c3.63-7.71.4-14.14,4.03-20.82s1.31-12.51,1.52-15.56c.21-3.05,2.86-3.95,2.19-4.71s-3.45.74-4.49,4.86c-1.04,4.12,1.56,6.5-2.78,14.68-4.34,8.18-.83,12.19-5.21,19.55m4.75,2h0Z"/>
                <path id="_65623904" data-name=" 65623904" class="cls-6" d="m372.4,214.17c2.8-7.67-.27-12.83,3.55-19.47-4.29,4.9-1.38,10.85-5.05,18.75m1.5.72h0Z"/>
              </g>
            </g>
          </g>
        </g>
        <g id="g3970">
          <g id="g3972">
            <g id="g3974">
              <path id="_65623688" data-name=" 65623688" class="cls-8" d="m367.5,233.02l-61.79,2.42s-1.21,0-1.21.81,1.21.81,1.21.81l61.79,2.42m0-6.46h0Z"/>
              <path id="_65623616" data-name=" 65623616" class="cls-6" d="m367.5,234.63l-42.4,1.62,42.4,1.62m0-3.23h0Z"/>
              <g id="g3978">
                <path id="_65623544" data-name=" 65623544" class="cls-8" d="m347.48,230.32c-7.71-3.63-14.14-.4-20.82-4.03-6.68-3.63-12.51-1.31-15.56-1.52-3.05-.21-3.95-2.86-4.71-2.19-.75.67.74,3.45,4.86,4.49,4.12,1.04,6.5-1.56,14.68,2.78,8.18,4.34,12.19.83,19.55,5.21m2-4.75h0Z"/>
                <path id="_65623472" data-name=" 65623472" class="cls-6" d="m345.42,231.35c-7.67-2.8-12.83.27-19.47-3.55,4.9,4.29,10.85,1.38,18.75,5.05m.72-1.5h0Z"/>
              </g>
            </g>
            <g id="g3982">
              <g id="g3984">
                <path id="_65623352" data-name=" 65623352" class="cls-8" d="m367.5,239.48l61.79-2.42s1.21,0,1.21-.81-1.21-.81-1.21-.81l-61.79-2.42m0,6.46h0Z"/>
                <path id="_65623280" data-name=" 65623280" class="cls-6" d="m367.5,237.87l42.4-1.62-42.4-1.62m0,3.23h0Z"/>
                <g id="g3988">
                  <path id="_65623208" data-name=" 65623208" class="cls-8" d="m387.52,242.18c7.71,3.63,14.14.4,20.82,4.03s12.51,1.31,15.56,1.52c3.05.21,3.95,2.86,4.71,2.19.75-.67-.74-3.45-4.86-4.49-4.12-1.04-6.5,1.56-14.68-2.78-8.18-4.34-12.19-.83-19.55-5.21m-2,4.75h0Z"/>
                  <path id="_65623136" data-name=" 65623136" class="cls-6" d="m389.58,241.15c7.67,2.8,12.83-.27,19.47,3.55-4.9-4.29-10.85-1.38-18.75-5.05m-.72,1.5h0Z"/>
                </g>
              </g>
            </g>
          </g>
        </g>
      </g>
      <g id="g3992">
        <g id="g3994">
          <g id="g3996">
            <g id="g3998">
              <path id="_65622872" data-name=" 65622872" class="cls-8" d="m365.22,233.97l-41.98,45.4s-.86.86-.29,1.43c.57.57,1.43-.29,1.43-.29l45.4-41.98m-4.57-4.57h0Z"/>
              <path id="_65622800" data-name=" 65622800" class="cls-6" d="m366.36,235.11l-28.84,31.13,31.13-28.84m-2.28-2.28h0Z"/>
              <g id="g4002">
                <path id="_65622728" data-name=" 65622728" class="cls-8" d="m349.15,246.21c-8.02,2.89-10.28,9.71-17.57,11.87-7.29,2.16-9.77,7.92-12.07,9.93-2.3,2.01-4.82.77-4.88,1.78-.06,1.01,2.96,1.91,6.61-.26,3.65-2.17,3.49-5.7,12.35-8.42,8.86-2.71,9.21-8.03,17.51-10.13m-1.94-4.77h0Z"/>
                <path id="_65622656" data-name=" 65622656" class="cls-6" d="m348.42,248.4c-7.4,3.45-8.88,9.27-16.28,11.26,6.5-.43,8.65-6.69,16.83-9.69m-.55-1.57h0Z"/>
              </g>
            </g>
            <g id="g4006">
              <g id="g4008">
                <path id="_65622536" data-name=" 65622536" class="cls-8" d="m369.78,238.53l41.98-45.4s.86-.86.29-1.43c-.57-.57-1.43.29-1.43.29l-45.4,41.98m4.57,4.57h0Z"/>
                <path id="_65622464" data-name=" 65622464" class="cls-6" d="m368.64,237.39l28.84-31.13-31.13,28.84m2.28,2.28h0Z"/>
                <g id="g4012">
                  <path id="_65622392" data-name=" 65622392" class="cls-8" d="m385.85,226.29c8.02-2.89,10.28-9.71,17.57-11.87,7.29-2.16,9.77-7.92,12.07-9.93,2.3-2.01,4.82-.77,4.88-1.78.06-1.01-2.96-1.91-6.61.26-3.65,2.17-3.49,5.7-12.35,8.42-8.86,2.71-9.21,8.03-17.51,10.13m1.94,4.77h0Z"/>
                  <path id="_65622320" data-name=" 65622320" class="cls-6" d="m386.58,224.1c7.4-3.45,8.88-9.27,16.28-11.26-6.5.43-8.65,6.69-16.83,9.69m.55,1.57h0Z"/>
                </g>
              </g>
            </g>
          </g>
          <g id="g4016">
            <g id="g4018">
              <g id="g4020">
                <path id="_65622152" data-name=" 65622152" class="cls-8" d="m369.78,233.97l-45.4-41.98s-.86-.86-1.43-.29c-.57.57.29,1.43.29,1.43l41.98,45.4m4.57-4.57h0Z"/>
                <path id="_65622080" data-name=" 65622080" class="cls-6" d="m368.64,235.11l-31.13-28.84,28.84,31.13m2.28-2.28h0Z"/>
                <g id="g4024">
                  <path id="_65622008" data-name=" 65622008" class="cls-8" d="m357.54,217.9c-2.89-8.02-9.71-10.28-11.87-17.57-2.16-7.29-7.92-9.77-9.93-12.07-2.01-2.3-.77-4.82-1.78-4.88-1.01-.06-1.91,2.96.26,6.61,2.17,3.65,5.7,3.49,8.42,12.35,2.71,8.86,8.03,9.21,10.13,17.51m4.77-1.94h0Z"/>
                  <path id="_65621936" data-name=" 65621936" class="cls-6" d="m355.35,217.17c-3.45-7.4-9.27-8.88-11.26-16.28.43,6.5,6.69,8.65,9.69,16.83m1.57-.55h0Z"/>
                </g>
              </g>
              <g id="g4028">
                <g id="g4030">
                  <path id="_65621816" data-name=" 65621816" class="cls-8" d="m365.22,238.53l45.4,41.98s.86.86,1.43.29c.57-.57-.29-1.43-.29-1.43l-41.98-45.4m-4.57,4.57h0Z"/>
                  <path id="_65621744" data-name=" 65621744" class="cls-6" d="m366.36,237.39l31.13,28.84-28.84-31.13m-2.28,2.28h0Z"/>
                  <g id="g4034">
                    <path id="_65621672" data-name=" 65621672" class="cls-8" d="m377.46,254.6c2.89,8.02,9.71,10.28,11.87,17.57,2.16,7.29,7.92,9.77,9.93,12.07,2.01,2.3.77,4.82,1.78,4.88,1.01.06,1.91-2.96-.26-6.61-2.17-3.65-5.7-3.49-8.42-12.35-2.71-8.86-8.03-9.21-10.13-17.51m-4.77,1.94h0Z"/>
                    <path id="_65621600" data-name=" 65621600" class="cls-6" d="m379.65,255.33c3.45,7.4,9.27,8.88,11.26,16.28-.43-6.5-6.69-8.65-9.69-16.83m-1.57.55h0Z"/>
                  </g>
                </g>
              </g>
            </g>
          </g>
        </g>
      </g>
    </g>
    <path id="path4038" class="cls-8" d="m364.52,235.01l-21.41,58.01s-.46,1.12.28,1.43c.75.31,1.21-.81,1.21-.81l25.88-56.16m-5.97-2.47h0Z"/>
    <path id="path4040" class="cls-6" d="m366.01,235.63l-14.73,39.79,17.72-38.56m-2.98-1.24h0Z"/>
    <path id="path4042" class="cls-8" d="m354.36,252.48c-6.3,5.73-5.78,12.91-11.69,17.69-5.91,4.78-6,11.06-7.36,13.79-1.36,2.74-4.16,2.55-3.83,3.51.33.95,3.47.63,6.01-2.77,2.54-3.4,1.04-6.6,8.19-12.5,7.14-5.9,5.44-10.95,12.3-16.06m-3.62-3.66h0Z"/>
    <path id="path4044" class="cls-6" d="m354.52,254.77c-5.52,6.02-4.66,11.96-10.73,16.63,5.84-2.88,5.43-9.49,11.84-15.39m-1.11-1.24h0Z"/>
    <path id="path4046" class="cls-8" d="m370.48,237.49l21.41-58.01s.46-1.12-.28-1.43c-.75-.31-1.21.81-1.21.81l-25.88,56.16m5.97,2.47h0Z"/>
    <path id="path4048" class="cls-6" d="m368.99,236.87l14.73-39.79-17.72,38.56m2.98,1.24h0Z"/>
    <path id="path4050" class="cls-8" d="m380.64,220.02c6.3-5.73,5.78-12.91,11.69-17.69s6-11.06,7.36-13.79c1.36-2.74,4.16-2.55,3.83-3.51-.33-.95-3.47-.63-6.01,2.77-2.54,3.4-1.04,6.6-8.19,12.5s-5.44,10.95-12.3,16.06m3.62,3.66h0Z"/>
    <path id="path4052" class="cls-6" d="m380.48,217.73c5.52-6.02,4.66-11.96,10.73-16.63-5.84,2.88-5.43,9.49-11.84,15.39m1.11,1.24h0Z"/>
    <path id="path4054" class="cls-8" d="m368.74,233.26l-58.01-21.41s-1.12-.46-1.43.28c-.31.75.81,1.21.81,1.21l56.16,25.88m2.47-5.97h0Z"/>
    <path id="path4056" class="cls-6" d="m368.12,234.76l-39.79-14.73,38.56,17.72m1.24-2.98h0Z"/>
    <path id="path4058" class="cls-8" d="m351.27,223.11c-5.73-6.3-12.91-5.78-17.69-11.69-4.78-5.91-11.06-6-13.79-7.36-2.74-1.36-2.55-4.16-3.51-3.83-.95.33-.63,3.47,2.77,6.01,3.4,2.54,6.6,1.04,12.5,8.19,5.9,7.14,10.95,5.44,16.06,12.3m3.66-3.62h0Z"/>
    <path id="path4060" class="cls-6" d="m348.98,223.27c-6.02-5.52-11.96-4.66-16.63-10.73,2.88,5.84,9.49,5.43,15.39,11.84m1.24-1.11h0Z"/>
    <path id="path4062" class="cls-8" d="m366.26,239.23l58.01,21.41s1.12.46,1.43-.28c.31-.75-.81-1.21-.81-1.21l-56.16-25.88m-2.47,5.97h0Z"/>
    <path id="path4064" class="cls-6" d="m366.88,237.74l39.79,14.73-38.56-17.72m-1.24,2.98h0Z"/>
    <path id="path4066" class="cls-8" d="m383.73,249.39c5.73,6.3,12.91,5.78,17.69,11.69,4.78,5.91,11.06,6,13.79,7.36,2.74,1.36,2.55,4.16,3.51,3.83s.63-3.47-2.77-6.01c-3.4-2.54-6.6-1.04-12.5-8.19s-10.95-5.44-16.06-12.3m-3.66,3.62h0Z"/>
    <path id="path4068" class="cls-6" d="m386.02,249.23c6.02,5.52,11.96,4.66,16.63,10.73-2.88-5.84-9.49-5.43-15.39-11.84m-1.24,1.11h0Z"/>
    <path id="path4070" class="cls-8" d="m366.26,233.26l-56.16,25.88s-1.12.46-.81,1.21c.31.75,1.43.28,1.43.28l58.01-21.41m-2.47-5.97h0Z"/>
    <path id="path4072" class="cls-6" d="m366.88,234.76l-38.56,17.72,39.79-14.73m-1.24-2.98h0Z"/>
    <path id="path4074" class="cls-8" d="m346.74,238.43c-8.51-.4-13.21,5.04-20.77,4.24-7.56-.79-12.06,3.58-14.95,4.55-2.9.97-4.75-1.13-5.19-.23-.44.91,2,2.9,6.21,2.29,4.2-.61,5.41-3.93,14.63-3.05,9.22.88,11.58-3.9,20.05-2.66m.03-5.15h0Z"/>
    <path id="path4076" class="cls-6" d="m345.22,240.17c-8.16.35-11.75,5.16-19.35,4.17,6.17,2.09,10.55-2.87,19.26-2.51m.09-1.66h0Z"/>
    <path id="path4078" class="cls-8" d="m368.74,239.23l56.16-25.88s1.12-.46.81-1.21c-.31-.75-1.43-.28-1.43-.28l-58.01,21.41m2.47,5.97h0Z"/>
    <path id="path4080" class="cls-6" d="m368.12,237.74l38.56-17.72-39.79,14.73m1.24,2.98h0Z"/>
    <path id="path4082" class="cls-8" d="m388.26,234.07c8.51.4,13.21-5.04,20.77-4.24,7.56.79,12.06-3.58,14.95-4.55,2.9-.97,4.75,1.13,5.19.23s-2-2.9-6.21-2.29c-4.2.61-5.41,3.93-14.63,3.05-9.22-.88-11.58,3.9-20.05,2.66m-.03,5.15h0Z"/>
    <path id="path4084" class="cls-6" d="m389.78,232.33c8.16-.35,11.75-5.16,19.35-4.17-6.17-2.09-10.55,2.87-19.26,2.51m-.09,1.66h0Z"/>
    <path id="path4086" class="cls-8" d="m370.48,235.01l-25.88-56.16s-.46-1.12-1.21-.81c-.75.31-.28,1.43-.28,1.43l21.41,58.01m5.97-2.47h0Z"/>
    <path id="path4088" class="cls-6" d="m368.99,235.63l-17.72-38.56,14.73,39.79m2.98-1.24h0Z"/>
    <path id="path4090" class="cls-8" d="m365.31,215.49c.4-8.51-5.04-13.21-4.24-20.77.79-7.56-3.58-12.06-4.55-14.95-.97-2.9,1.13-4.75.23-5.19s-2.9,2-2.29,6.21c.61,4.2,3.93,5.41,3.05,14.63-.88,9.22,3.9,11.58,2.66,20.05m5.15.03h0Z"/>
    <path id="path4092" class="cls-6" d="m363.58,213.97c-.35-8.16-5.16-11.75-4.17-19.35-2.09,6.17,2.87,10.55,2.51,19.26m1.66.09h0Z"/>
    <path id="path4094" class="cls-8" d="m364.52,237.49l25.88,56.16s.46,1.12,1.21.81c.75-.31.28-1.43.28-1.43l-21.41-58.01m-5.97,2.47h0Z"/>
    <path id="path4096" class="cls-6" d="m366.01,236.87l17.72,38.56-14.73-39.79m-2.98,1.24h0Z"/>
    <path id="path4098" class="cls-8" d="m369.69,257.01c-.4,8.51,5.04,13.21,4.24,20.77-.79,7.56,3.58,12.06,4.55,14.95.97,2.9-1.13,4.75-.23,5.19.91.44,2.9-2,2.29-6.21-.61-4.2-3.93-5.41-3.05-14.63s-3.9-11.58-2.66-20.05m-5.15-.03h0Z"/>
    <path id="path4100" class="cls-6" d="m371.42,258.53c.35,8.16,5.16,11.75,4.17,19.35,2.09-6.17-2.87-10.55-2.51-19.26m-1.66-.09h0Z"/>
    <circle id="circle29" class="cls-7" cx="367.5" cy="236.25" r="24.23" transform="translate(75.43 561.16) rotate(-80.78)"/>
    <g id="face_right" data-name="face right">
      <path id="path32" class="cls-6" d="m384.06,230.6c-4.64-4.04-10.5-4.64-13.73-1.62-2.34,3.14-2.14,6.83.61,10.7-.2,0-.61.2-.81.4-2.04-3.88-2.39-7.87-1.01-11.51,4.44-3.63,10.5-4.04,14.94,2.02Z"/>
      <path id="path34" class="cls-6" d="m376.79,229.38c-2.63,0-3.23.61-4.44,1.62s-1.82.81-2.02,1.01c-.2.2,0,.81.4.61.4-.2,1.21-.61,2.42-1.62,1.21-1.01,2.42-1.01,3.63-1.01,3.63,0,5.65,3.03,6.06,2.83.4-.2-2.02-3.43-6.06-3.43Z"/>
      <path id="path36" class="cls-6" d="m381.43,232.82c-2.62-2.83-7.47-3.03-9.49.2h.81c2.02-3.23,6.87-1.82,7.27-.4v.4m1.41-.2h0Z"/>
      <circle id="circle38" class="cls-5" cx="376.38" cy="232.62" r="1.82"/>
      <path id="path40" class="cls-6" d="m371.94,233.02c2.02,1.82,6.46,2.02,9.49-.2l-1.41-.2c-2.02,2.22-5.25,2.02-7.27.4v-.4m-.81.4h0Z"/>
      <path id="path42" class="cls-6" d="m381.63,233.83c-3.43,2.62-6.87,2.42-8.88,1.21-2.02-1.21-2.02-1.62-1.62-1.62s.81.4,2.42,1.21c1.62.81,4.04.81,8.08-.81Z"/>
      <path id="path44" class="cls-6" d="m371.74,239.88c.57.2.91.8.78,1.39-.13.59-.67,1-1.28.96s-1.08-.53-1.12-1.14c-.2.4-1.01,1.62-2.62,1.62h-.4l.4.61c.4,0,1.62,0,2.42-.61.47.67,1.33.95,2.11.67.77-.28,1.26-1.04,1.2-1.86-.07-.82-.68-1.49-1.48-1.64h0Z"/>
      <path id="path46" class="cls-6" d="m374.16,248.37c-1.82-1.21-2.62-3.03-4.64-3.03-.4,0-1.21.2-2.02.61h-.4l.4.61c.81,0,2.02-1.01,3.43-.2,1.41.81,2.22,1.62,3.23,2.02h0Z"/>
      <path id="path48" class="cls-6" d="m373.56,248.37c-4.04-1.21-4.85-.4-6.06-.4h-.4l.4.81c1.62,0,2.42-1.21,6.06-.4h0Z"/>
      <path id="path50" class="cls-6" d="m374.16,248.37c-4.44-.4-3.03,2.22-6.66,2.22h-.4l.4.61c4.44,0,2.42-2.42,6.66-2.83Z"/>
      <path id="path52" class="cls-6" d="m371.13,254.83c0-2.01-1.63-3.63-3.63-3.63s-3.63,1.63-3.63,3.63c.4-1.68,1.9-2.87,3.63-2.87s3.23,1.19,3.63,2.87Z"/>
    </g>
    <g id="_65567520" data-name=" 65567520">
      <g id="g4116">
        <path id="_65617472" data-name=" 65617472" class="cls-6" d="m350.94,230.6c4.64-4.04,10.5-4.64,13.73-1.62,2.34,3.14,2.14,6.83-.61,10.7.2,0,.61.2.81.4,2.04-3.88,2.39-7.87,1.01-11.51-4.44-3.63-10.5-4.04-14.94,2.02h0Z"/>
        <path id="_65617400" data-name=" 65617400" class="cls-6" d="m358.21,229.38c2.63,0,3.23.61,4.44,1.62s1.82.81,2.02,1.01c.2.2,0,.81-.4.61-.4-.2-1.21-.61-2.42-1.62-1.21-1.01-2.42-1.01-3.63-1.01-3.63,0-5.65,3.03-6.06,2.83-.4-.2,2.02-3.43,6.06-3.43Z"/>
        <path id="_65617328" data-name=" 65617328" class="cls-6" d="m353.57,232.82c2.62-2.83,7.47-3.03,9.49.2h-.81c-2.02-3.23-6.87-1.82-7.27-.4v.4m-1.41-.2h0Z"/>
        <circle id="_65617256" data-name=" 65617256" class="cls-5" cx="358.62" cy="232.62" r="1.82"/>
        <path id="_65617184" data-name=" 65617184" class="cls-6" d="m363.06,233.02c-2.02,1.82-6.46,2.02-9.49-.2l1.41-.2c2.02,2.22,5.25,2.02,7.27.4v-.4m.81.4h0Z"/>
        <path id="_65617112" data-name=" 65617112" class="cls-6" d="m353.37,233.83c3.43,2.62,6.87,2.42,8.88,1.21,2.02-1.21,2.02-1.62,1.62-1.62s-.81.4-2.42,1.21c-1.62.81-4.04.81-8.08-.81h0Z"/>
        <path id="_65617040" data-name=" 65617040" class="cls-6" d="m363.26,239.88c-.57.2-.91.8-.78,1.39s.67,1,1.28.96,1.08-.53,1.12-1.14c.2.4,1.01,1.62,2.62,1.62h.4l-.4.61c-.4,0-1.62,0-2.42-.61-.47.67-1.33.95-2.11.67-.77-.28-1.26-1.04-1.2-1.86.07-.82.68-1.49,1.48-1.64h0Z"/>
        <path id="_65567784" data-name=" 65567784" class="cls-6" d="m360.84,248.37c1.82-1.21,2.62-3.03,4.64-3.03.4,0,1.21.2,2.02.61h.4l-.4.61c-.81,0-2.02-1.01-3.43-.2-1.41.81-2.22,1.62-3.23,2.02h0Z"/>
        <path id="_65567712" data-name=" 65567712" class="cls-6" d="m361.44,248.37c4.04-1.21,4.85-.4,6.06-.4h.4l-.4.81c-1.62,0-2.42-1.21-6.06-.4h0Z"/>
        <path id="_65567640" data-name=" 65567640" class="cls-6" d="m360.84,248.37c4.44-.4,3.03,2.22,6.66,2.22h.4l-.4.61c-4.44,0-2.42-2.42-6.66-2.83h0Z"/>
        <path id="_65567568" data-name=" 65567568" class="cls-6" d="m363.87,254.83c0-2.01,1.63-3.63,3.63-3.63s3.63,1.63,3.63,3.63c-.4-1.68-1.9-2.87-3.63-2.87s-3.23,1.19-3.63,2.87Z"/>
      </g>
    </g>
    <g>
      <path id="path18218_12" data-name="path18218 12" class="cls-6" d="m90.35,406.17c-14.43-3.13-27.33-2.22-39.71-.21-67.89,21.27,97.26,24.83,39.71.21Z"/>
      <g>
        <path class="cls-3" d="m67.7,404.09h-.44c-1.27,0-2.54.04-3.8.04l-.04.04v20.98l.03,23.3c0,1.18.9,2.14,2,2.14h2.31c0-10.73-.03-26.7-.05-46.51h0Z"/>
        <path class="cls-2" d="m67.7,404.09c.03,19.8.04,35.77.05,46.51h2.33c1.1,0,1.99-.95,1.99-2.12v-23.46l-.03-20.64c-1.45-.16-2.9-.26-4.35-.29h0Z"/>
      </g>
      <path id="path14425_13" data-name="path14425 13" class="cls-9" d="m96.51,359.56c-1.54-10.94-8.23-14.37-14.38-18.58-28.51-16.22-39.11,19.45-45.69,46.85,19.07-.71,38.19,2.74,57.2-2.14,2.66,1.23,2.07-3.64-1.64-9.7-2.81-5.67-5.53-11.15-6.7-13.03,2.77,1.02,3.84,2.12,8.69,1.17,2.84-1.2,1.85-3.02,2.53-4.57h0Z"/>
      <path id="path7227_14" data-name="path7227 14" class="cls-10" d="m85.07,359.24c-7.02-10.35-12.57-7.66-17.45-6.86,5.4.79,11.82,3.67,17.89,11.04,2.93,1.95,6.47,1.83,8.88.5-3.12-2.61-6.23-4.2-9.32-4.68Z"/>
      <path id="path7229_15" data-name="path7229 15" class="cls-6" d="m57.26,374.09c17.05-2.37,36.44,7.02,27.62,1.48-18.52-10.6-23.22-6.38-27.62-1.48Z"/>
      <path id="path7231_16" data-name="path7231 16" class="cls-9" d="m107.03,372.1c-4.56,3.83-11.43-.12-12.07-8.61l.33-4.4c5.28.57,15.79,5.54,11.74,13.01Z"/>
      <path id="path13382_17" data-name="path13382 17" class="cls-11" d="m102.63,416.21c-10.99-10.33-48.34-14.66-67.88-.16-.13.36.1,1.13.04,1.41-4.83-4.47-2.09-18.3-3.32-24.55,1.22-4.12,4.66-5.94,8.74-7.1,18.82-3.19,36.85-3.78,53.72-.47,4.16.88,7.74,2.7,9.53,7.48l-.83,23.38h0Z"/>
    </g>
    <g>
      <path id="path18218_12-2" data-name="path18218 12" class="cls-6" d="m90.35,91.17c-14.43-3.13-27.33-2.22-39.71-.21-67.89,21.27,97.26,24.83,39.71.21Z"/>
      <g>
        <path class="cls-3" d="m67.7,89.09h-.44c-1.27,0-2.54.04-3.8.04l-.04.04v20.98l.03,23.3c0,1.18.9,2.14,2,2.14h2.31c0-10.73-.03-26.7-.05-46.51h0Z"/>
        <path class="cls-2" d="m67.7,89.09c.03,19.8.04,35.77.05,46.51h2.33c1.1,0,1.99-.95,1.99-2.12v-23.46l-.03-20.64c-1.45-.16-2.9-.26-4.35-.29h0Z"/>
      </g>
      <path id="path14425_13-2" data-name="path14425 13" class="cls-9" d="m96.51,44.56c-1.54-10.94-8.23-14.37-14.38-18.58-28.51-16.22-39.11,19.45-45.69,46.85,19.07-.71,38.19,2.74,57.2-2.14,2.66,1.23,2.07-3.64-1.64-9.7-2.81-5.67-5.53-11.15-6.7-13.03,2.77,1.02,3.84,2.12,8.69,1.17,2.84-1.2,1.85-3.02,2.53-4.57h0Z"/>
      <path id="path7227_14-2" data-name="path7227 14" class="cls-10" d="m85.07,44.24c-7.02-10.35-12.57-7.66-17.45-6.86,5.4.79,11.82,3.67,17.89,11.04,2.93,1.95,6.47,1.83,8.88.5-3.12-2.61-6.23-4.2-9.32-4.68Z"/>
      <path id="path7229_15-2" data-name="path7229 15" class="cls-6" d="m57.26,59.09c17.05-2.37,36.44,7.02,27.62,1.48-18.52-10.6-23.22-6.38-27.62-1.48Z"/>
      <path id="path7231_16-2" data-name="path7231 16" class="cls-9" d="m107.03,57.1c-4.56,3.83-11.43-.12-12.07-8.61l.33-4.4c5.28.57,15.79,5.54,11.74,13.01Z"/>
      <path id="path13382_17-2" data-name="path13382 17" class="cls-11" d="m102.63,101.21c-10.99-10.33-48.34-14.66-67.88-.16-.13.36.1,1.13.04,1.41-4.83-4.47-2.09-18.3-3.32-24.55,1.22-4.12,4.66-5.94,8.74-7.1,18.82-3.19,36.85-3.78,53.72-.47,4.16.88,7.74,2.7,9.53,7.48l-.83,23.38h0Z"/>
    </g>
    <g>
      <path id="path18218_12-3" data-name="path18218 12" class="cls-6" d="m684.36,405.95c-12.38-2-25.27-2.91-39.71.21-57.55,24.61,107.6,21.06,39.71-.21Z"/>
      <g>
        <path class="cls-3" d="m667.29,404.09c-.03,19.8-.05,35.78-.05,46.51h2.31c1.1,0,2-.96,2-2.14l.03-23.3v-20.98s-.04-.04-.04-.04c-1.26,0-2.52-.04-3.8-.04h-.44s0,0,0,0Z"/>
        <path class="cls-2" d="m667.29,404.09c-1.45.03-2.9.13-4.35.29l-.03,20.64v23.46c0,1.18.89,2.12,1.99,2.12h2.33c.01-10.74.03-26.7.05-46.51h0Z"/>
      </g>
      <path id="path14425_13-3" data-name="path14425 13" class="cls-9" d="m638.49,359.56c.68,1.55-.31,3.37,2.53,4.57,4.85.95,5.92-.15,8.69-1.17-1.17,1.88-3.9,7.36-6.7,13.03-3.71,6.06-4.3,10.93-1.64,9.7,19.02,4.88,38.13,1.42,57.2,2.14-6.58-27.4-17.18-63.06-45.69-46.85-6.15,4.21-12.84,7.64-14.38,18.58h0Z"/>
      <path id="path7227_14-3" data-name="path7227 14" class="cls-10" d="m640.61,363.91c2.42,1.34,5.95,1.45,8.88-.5,6.07-7.37,12.49-10.25,17.89-11.04-4.88-.8-10.44-3.49-17.45,6.86-3.09.48-6.2,2.06-9.32,4.68Z"/>
      <path id="path7229_15-3" data-name="path7229 15" class="cls-6" d="m650.12,375.57c-8.82,5.54,10.57-3.85,27.62-1.48-4.39-4.9-9.1-9.12-27.62,1.48Z"/>
      <path id="path7231_16-3" data-name="path7231 16" class="cls-9" d="m639.71,359.09l.33,4.4c-.64,8.49-7.51,12.44-12.07,8.61-4.04-7.47,6.46-12.44,11.74-13.01Z"/>
      <path id="path13382_17-3" data-name="path13382 17" class="cls-11" d="m632.37,416.21l-.83-23.38c1.78-4.78,5.37-6.6,9.53-7.48,16.87-3.31,34.91-2.72,53.72.47,4.08,1.16,7.52,2.98,8.74,7.1-1.24,6.25,1.51,20.08-3.32,24.55-.06-.29.17-1.06.04-1.41-19.54-14.5-56.88-10.18-67.88.16h0Z"/>
    </g>
    <g>
      <path id="path18218_12-4" data-name="path18218 12" class="cls-6" d="m684.36,90.95c-12.38-2-25.27-2.91-39.71.21-57.55,24.61,107.6,21.06,39.71-.21Z"/>
      <g>
        <path class="cls-3" d="m667.29,89.09c-.03,19.8-.05,35.78-.05,46.51h2.31c1.1,0,2-.96,2-2.14l.03-23.3v-20.98s-.04-.04-.04-.04c-1.26,0-2.52-.04-3.8-.04h-.44s0,0,0,0Z"/>
        <path class="cls-2" d="m667.29,89.09c-1.45.03-2.9.13-4.35.29l-.03,20.64v23.46c0,1.18.89,2.12,1.99,2.12h2.33c.01-10.74.03-26.7.05-46.51h0Z"/>
      </g>
      <path id="path14425_13-4" data-name="path14425 13" class="cls-9" d="m638.49,44.56c.68,1.55-.31,3.37,2.53,4.57,4.85.95,5.92-.15,8.69-1.17-1.17,1.88-3.9,7.36-6.7,13.03-3.71,6.06-4.3,10.93-1.64,9.7,19.02,4.88,38.13,1.42,57.2,2.14-6.58-27.4-17.18-63.06-45.69-46.85-6.15,4.21-12.84,7.64-14.38,18.58h0Z"/>
      <path id="path7227_14-4" data-name="path7227 14" class="cls-10" d="m640.61,48.91c2.42,1.34,5.95,1.45,8.88-.5,6.07-7.37,12.49-10.25,17.89-11.04-4.88-.8-10.44-3.49-17.45,6.86-3.09.48-6.2,2.06-9.32,4.68Z"/>
      <path id="path7229_15-4" data-name="path7229 15" class="cls-6" d="m650.12,60.57c-8.82,5.54,10.57-3.85,27.62-1.48-4.39-4.9-9.1-9.12-27.62,1.48Z"/>
      <path id="path7231_16-4" data-name="path7231 16" class="cls-9" d="m639.71,44.09l.33,4.4c-.64,8.49-7.51,12.44-12.07,8.61-4.04-7.47,6.46-12.44,11.74-13.01Z"/>
      <path id="path13382_17-4" data-name="path13382 17" class="cls-11" d="m632.37,101.21l-.83-23.38c1.78-4.78,5.37-6.6,9.53-7.48,16.87-3.31,34.91-2.72,53.72.47,4.08,1.16,7.52,2.98,8.74,7.1-1.24,6.25,1.51,20.08-3.32,24.55-.06-.29.17-1.06.04-1.41-19.54-14.5-56.88-10.18-67.88.16h0Z"/>
    </g>
  </g>
</svg>