<?xml version="1.0" encoding="UTF-8" standalone="no"?>
<svg
   version="1.1"
   id="Flag_of_the_Tajik_SSR"
   width="1200"
   height="600"
   viewBox="0 0 1200 600"
   style="overflow:visible"
   xml:space="preserve"
   inkscape:version="1.2.1 (9c6d41e410, 2022-07-14)"
   sodipodi:docname="Flag_TSFSR_unshited_2upload.svg"
   xmlns:inkscape="http://www.inkscape.org/namespaces/inkscape"
   xmlns:sodipodi="http://sodipodi.sourceforge.net/DTD/sodipodi-0.dtd"
   xmlns="http://www.w3.org/2000/svg"
   xmlns:svg="http://www.w3.org/2000/svg"
   xmlns:rdf="http://www.w3.org/1999/02/22-rdf-syntax-ns#"
   xmlns:cc="http://creativecommons.org/ns#"
   xmlns:dc="http://purl.org/dc/elements/1.1/"><metadata
   id="metadata31"><rdf:RDF><cc:Work
       rdf:about=""><dc:format>image/svg+xml</dc:format><dc:type
         rdf:resource="http://purl.org/dc/dcmitype/StillImage" /></cc:Work></rdf:RDF></metadata><defs
   id="defs29" /><sodipodi:namedview
   pagecolor="#ffffff"
   bordercolor="#666666"
   borderopacity="1"
   objecttolerance="10"
   gridtolerance="10"
   guidetolerance="10"
   inkscape:pageopacity="0"
   inkscape:pageshadow="2"
   inkscape:window-width="2560"
   inkscape:window-height="1387"
   id="namedview27"
   showgrid="false"
   inkscape:zoom="0.30833333"
   inkscape:cx="470.27028"
   inkscape:cy="710.27028"
   inkscape:window-x="-8"
   inkscape:window-y="-8"
   inkscape:window-maximized="1"
   inkscape:current-layer="layer1"
   inkscape:showpageshadow="0"
   inkscape:pagecheckerboard="0"
   inkscape:deskcolor="#d1d1d1" />












<g
   inkscape:groupmode="layer"
   id="layer1"
   inkscape:label="Taso"
   style="display:inline"
   transform="translate(-5278.1534)"><g
     id="g2493"><path
       style="overflow:visible;fill:#bc0000;fill-opacity:1"
       d="M 1200,0 V 600 H 0 V 0 Z"
       id="path2227"
       transform="translate(5278.1534)" /><g
       id="g2479"><path
         sodipodi:nodetypes="ccccccccccccccccccscccc"
         inkscape:connector-curvature="0"
         id="path2229"
         d="m 5414.3383,381.81685 11.0403,6.76663 c 1.7083,-4.67604 5.9254,-7.60188 11.3965,-4.27366 l 26.7103,16.7385 c 7.45,4.56272 2.3992,7.29748 1.4246,10.68416 -3.7575,7.60892 -9.2214,2.43797 -13.8894,0 l -14.6017,-8.54733 c -3.452,-2.01728 -9.324,6.51208 -5.5201,8.72539 l 19.7657,12.82099 c 4.3937,3.59071 6.9007,3.33494 3.9175,9.08152 -4.8239,10.89522 -9.654,4.80177 -16.3824,1.06842 l -27.2446,-15.13588 c -1.9174,-0.68154 -3.1549,-3.05802 0.5342,-6.94469 -3.5613,-2.31491 -3.5772,-1.90583 -10.6841,-6.23244 -11.1928,14.2768 -5.3775,17.77666 1.4245,21.90252 l 43.0928,24.2174 c 7.0422,3.41016 10.1742,6.27744 20.2999,-9.08153 6.8118,-12.55124 5.9957,-14.58131 -3.0272,-19.23147 1.5529,-2.79111 1.2003,-3.84404 2.6682,-2.81432 9.8588,6.91596 12.1661,-2.48423 15.3168,-7.15754 7.8831,-13.1773 0.3565,-17.51025 -8.5474,-22.6148 l -31.6963,-18.16305 c -13.1571,-6.81269 -20.6925,-3.67901 -25.9981,8.19118 z"
         style="fill:#fcd116;fill-opacity:1;stroke:none;stroke-width:1.24235" /><path
         sodipodi:nodetypes="ccccccccccccccccccccc"
         inkscape:connector-curvature="0"
         id="path2231"
         d="m 5533.3678,397.96126 h 48.6028 c 6.7001,-0.26135 9.9102,2.48036 8.8769,11.70998 v 11.45817 h -13.4098 v -7.05118 c 0.2649,-4.66808 -2.2307,-5.60954 -5.2884,-5.79203 h -27.1974 c -7.7231,-0.45653 -6.784,3.51023 -6.9253,6.92526 v 29.33795 c -0.2159,6.06484 3.5954,5.83441 5.855,5.85498 h 29.0232 c 4.3161,0.4475 3.9829,-1.72555 3.8089,-3.80889 v -8.59362 h 14.1338 v 14.35419 c -0.4442,5.6729 3.0578,12.52178 -9.2547,10.95451 h -44.4476 c -11.0974,0.43251 -14.3171,-3.0527 -14.0394,-14.03941 v -40.73315 c -0.9586,-8.39142 3.7102,-10.53024 10.262,-10.57676 z"
         style="fill:#fcd116;fill-opacity:1;stroke:none;stroke-width:1.24235" /><path
         inkscape:connector-curvature="0"
         id="path2233"
         d="m 5655.6772,337.79988 10.0548,9.53934 -20.5216,21.63058 c -6.8505,6.97194 -9.0145,11.6703 -2.5682,17.2037 l 14.1951,13.46731 c 7.7788,8.65202 11.3581,6.6135 18.3665,-1.25209 l 21.0025,-22.13754 10.083,9.56607 10.154,-10.70262 -10.083,-9.56608 22.0447,-23.23601 c 8.9784,-9.49608 6.5319,-10.67647 -2.0263,-18.56577 l -11.8574,-11.24948 c -7.1717,-7.13278 -9.7276,-6.57567 -17.5793,1.94542 l -21.0561,22.19388 -10.0548,-9.53935 z m 3.4669,34.70288 c 0.5327,-0.58812 1.1329,-1.20667 1.7635,-1.8588 l 13.9216,-14.67391 12.3081,11.67702 -14.2956,15.06813 c -5.286,5.76492 -7.6546,7.54336 -10.5822,3.82101 l -5.7175,-5.42432 c -2.3649,-1.86542 -1.1273,-4.4911 2.6021,-8.60913 z m 25.8391,-27.23534 14.3224,-15.09633 c 5.8728,-6.28927 7.4024,-7.08215 10.2441,-4.14159 l 4.8161,4.56926 c 3.4971,3.14597 4.6696,3.41329 -2.004,10.46072 l -15.0706,15.88496 z"
         style="fill:#fcd116;fill-opacity:1;stroke:none;stroke-width:1.24235" /><path
         inkscape:connector-curvature="0"
         id="path2235"
         d="m 5678.9953,105.16046 c 0.5215,2.12317 1.3589,4.62852 2.5156,7.62369 l 16.1714,45.409 62.7796,-20.82563 -4.0495,-12.60712 -24.3983,8.3454 -13.6718,-38.698676 c -4.3173,-12.374595 -9.6178,-10.579908 -14.9095,-8.929631 l -18.019,6.64188 c -5.3599,1.975524 -8.6779,3.840379 -6.4185,13.041087 z m 13.0306,2.99058 c -1.0782,-4.7025 0.5375,-5.73301 6.9521,-7.9017 10.1441,-3.896458 10.2143,-3.034453 12.457,2.92632 l 11.324,33.30911 -19.0748,6.73129 -10.4961,-31.15087 c -0.5123,-1.53587 -0.9134,-2.82902 -1.1622,-3.91415 z"
         style="fill:#fcd116;fill-opacity:1;stroke:none;stroke-width:1.24235" /><path
         style="fill:#fcd116;fill-opacity:1;stroke:none;stroke-width:1.24235"
         d="m 5709.5738,262.9923 v -48.60277 c -0.2611,-6.7001 2.4807,-9.91017 11.7103,-8.87651 l 11.4582,4.2e-4 -5e-4,13.40984 -7.0512,-2.6e-4 c -4.6681,-0.26509 -5.6096,2.23044 -5.7922,5.28817 v 27.19741 c -0.4568,7.72308 3.51,6.78408 6.925,6.92553 l 29.3379,10e-4 c 6.0649,0.21611 5.8346,-3.5952 5.8552,-5.85478 v -29.02316 c 0.4477,-4.31615 -1.7254,-3.983 -3.8087,-3.80905 l -8.5937,-3.1e-4 6e-4,-14.13384 14.3541,5.3e-4 c 5.6729,0.44438 12.5219,-3.05734 10.9542,9.25509 v 44.44761 c 0.4321,11.09744 -3.0532,14.31705 -14.0399,14.03888 l -40.7332,-10e-4 c -8.3914,0.95828 -10.5301,-3.71055 -10.5764,-10.26237 z"
         id="path2237"
         inkscape:connector-curvature="0"
         sodipodi:nodetypes="ccccccccccccccccccccc" /><path
         style="fill:none;stroke:#fcd116;stroke-width:12;stroke-linecap:butt;stroke-linejoin:miter;stroke-miterlimit:4;stroke-dasharray:none;stroke-opacity:1"
         d="m 5530.3155,358.37838 30.8108,-96.89189 107.0271,-4.05406 -92.0271,-64.05405 28.3784,-94.054056 -81.8919,59.999996 -87.5676,-55.13513 36.0811,94.05405 -81.0811,66.08108 103.3784,-1.21621 z"
         id="path2239"
         inkscape:connector-curvature="0"
         sodipodi:nodetypes="ccccccccccc" /><g
         fill="#fcd116"
         id="g2253"
         transform="matrix(0.5874049,0,0,0.5874049,5417.5638,114.91939)"
         style="fill:#fcd116;fill-opacity:1"><path
           d="m 119.96333,96.59333 c 159.07167,-24.195 126.48831,181.3981 10.20998,107.29477 l 1.87804,-2.85621 -8.30562,-7.42646 -2.56325,2.22893 -5.19871,-4.61908 -6.2486,5.69292 4.15944,5.19392 c -5.18,4.36166 -18.57461,16.01455 -20.452943,18.73455 -8.008334,9.99666 7.080003,22.86 14.540003,14.66166 2.93,-2.31666 10.81833,-14.65333 16.06333,-22.29 13.37,14.06 31.58333,23.87667 56.08667,23.43167 5.48166,-0.1 37.57666,-1.41167 58.1,-35.85 C 253.245,175.59167 248.925,137.75167 222.025,111.62667 192.80833,83.24833 149.12,85.45333 119.96333,96.59333 Z"
           id="path2249"
           style="fill:#fcd116;fill-opacity:1" /><path
           d="m 157.24167,137.8343 20.13333,-20.19 -33.02333,-8.02667 -37.72167,35.23334 21.21167,21.02666 18.15,-16.88 c 27.61166,28.71167 79.62333,83.23834 83.80666,87.96667 4.18334,4.73 17.02667,-6.45167 12.74667,-11.39 -4.28,-4.93667 -66.22,-71.11667 -85.30333,-87.74 z"
           id="path2251"
           style="fill:#fcd116;fill-opacity:1"
           sodipodi:nodetypes="ccccccssc" /></g></g></g></g><g
   inkscape:groupmode="layer"
   id="layer2"
   inkscape:label="Taso#1"
   style="display:inline"
   transform="translate(-5278.1534)" /></svg>
