<svg xmlns="http://www.w3.org/2000/svg" width="900" height="600"><path fill="#049C04" d="M0 0h900v600H0z"/><path fill="#BC0404" d="M0 0h600v600H0z"/><path d="M0 0h300v600H0z"/><path fill="#FFF" d="M578.31 88.07c.04 2.02 2.74 10.56 4.37 13.81 3.22 6.4 14.4 19.36 15.91 18.43.24-.15 1.4.77 2.74 2.17 2.11 2.22 6.45 5.44 6.83 5.06 1.23-1.23-5.27-14.32-10.3-20.72-3.77-4.79-19.57-19.94-19.55-18.75m-260.26 2.77a327.94 327.94 0 0 1-7.84 7.54c-6.69 6.21-11.57 12.54-15.04 19.5-1.45 2.9-3.6 9.26-3.26 9.6.4.4 4.68-2.7 6.87-4.99 1.47-1.54 2.48-2.3 2.84-2.17.76.3 10.09-9.3 12.38-12.75a47.38 47.38 0 0 0 6.83-15.44c1.48-5.73 1.57-5.7-2.78-1.3m131.52-.9c-.58.92-1.88 2.37-2.88 3.2-3.36 2.82-4.46 7.28-2.4 9.73l.97 1.15h10.73l1.16-1.33c2.27-2.58 1.5-5.43-2.67-9.83a49.94 49.94 0 0 1-3.3-3.76l-.55-.85-1.06 1.68m.3 2.56a41 41 0 0 1-1.39 3.35c-1.34 2.96-1.24 3.8.7 5.94l1.35 1.49h-2.27c-4.4 0-5.29-3.85-1.77-7.69.76-.82 1.8-2.05 2.33-2.72 1.13-1.43 1.39-1.52 1.05-.37m-117.56 10.6a36.4 36.4 0 0 0-5.25 1.08c-.93.32-1.91.6-2.2.6-2 .02-9.77 4.6-11.32 6.65a77.48 77.48 0 0 1-10.22 10.5c-2.3 1.89-4.38 4.77-4.38 6.07 0 .2 1.05-.13 2.35-.73a19.58 19.58 0 0 1 7.97-1.87c1.81 0 5.02-2.97 6.6-6.12 2.04-4.03 9.8-10.38 17.76-14.52 4.68-2.42 4.64-2.47-1.3-1.65m233.8 1.45c8.56 4.43 14.35 9.14 17.97 14.6 3.36 5.07 4.32 5.8 8.3 6.3 2.33.29 4.2.8 6.08 1.66 1.5.68 2.72 1.07 2.72.87 0-1.27-2.09-4.2-4.2-5.88-2.95-2.35-9.12-8.67-10.8-11.06-1.22-1.72-9.12-6.26-10.93-6.28-.28 0-1.27-.27-2.2-.6-1.55-.55-8.03-1.6-10.03-1.63-.47 0 .86.87 3.08 2.02m-121.53 2.68c-1.41 2.16.08 2.96 5.71 3.08 6.2.14 7.94-.72 6.36-3.12-.96-1.47-11.1-1.43-12.07.04m3.58 1.52c1.39.82 1.47 1.27.24 1.27-2.4 0-3.56-1.2-2.56-2.64.6-.85.6-.85.89-.08.16.43.8 1.08 1.43 1.45m-68.72 2.65c-.32.62-1.2 1.66-1.93 2.31l-1.35 1.19h7.7l-1.44-1.2a7.74 7.74 0 0 1-1.92-2.31l-.47-1.13-.6 1.14m141.12.45c-.49.86-1.4 1.9-2.03 2.3l-1.14.73h7.87l-1.23-.96a8.41 8.41 0 0 1-1.9-2.3l-.7-1.34-.87 1.57m-72.85 4.64c-5.9 18.63-6.26 33.29-1.1 44.64l1.33 2.92 2.1-.1 2.1-.12 1.5-3c4.95-9.94 4.74-24.7-.62-44.06-1.23-4.45-1.26-4.5-2.7-4.5h-1.27l-1.34 4.22m162.84-2.9c-2.2 5.24-1.33 12.25 2.17 17.34 1.9 2.75 1.86 2.96.67-3.66-.28-1.55-.6-3.4-.71-4.13l-.2-1.3.73 1.39c.83 1.55 2.6 8.47 2.63 10.23l.01 1.12.58-1.07c.32-.58.5-1.43.38-1.87a6.35 6.35 0 0 1 .13-2.29c.4-1.77-.4-4.34-3.19-10.14-.99-2.06-2-4.43-2.26-5.25l-.46-1.5-.48 1.12m-322.26 1.22c-.4.98-1.43 3.3-2.3 5.16-3.1 6.64-3.5 8.7-2.57 13.22.24 1.18.9 1.05.9-.2 0-1.07 1.48-7.13 2.32-9.55.5-1.43 1.1-1.96.86-.75-.77 3.82-1.7 9.56-1.57 9.7.9.9 4.33-6.5 4.63-10.01.48-5.75-1-10.7-2.27-7.57m169.66-.86c0 .1 1.3 1.16 2.9 2.34 24.78 18.22 31.32 33.8 19.51 46.44l-2.52 2.7 1.4.24c3.7.6 5.19-.28 9.08-5.44 3.84-5.1 4.62-7.18 4.63-12.33v-4.3l-1.63-3.2c-3.16-6.15-11.81-14.48-19.87-19.12-1.4-.8-2.23-1.32-3.75-2.3-1.64-1.04-9.75-5.24-9.75-5.03m-13.5 1.99c-10.68 15.06-14.2 24.94-13.12 36.7.35 3.85 2 8.74 3.51 10.44l1.18 1.32 4.78-.24c4.77-.25 4.8-.25 4.24-1.03-5.8-8.23-7.44-14.72-6.4-25.26.27-2.7.6-5.1.73-5.31.13-.22.47-1.45.75-2.74.7-3.2 2.55-8.42 4.67-13.15 1.35-3 1.32-3.06-.33-.73m-8.26 1.33a103.96 103.96 0 0 0-8.25 5.08c-12.7 8.24-19.87 17.31-19.87 25.12 0 7.24 7.8 18.74 12.36 18.2 2.94-.35 2.94-.34-.24-3.62-10.99-11.35-6.2-26.1 13.57-41.8 6.63-5.28 6.7-5.36 2.43-2.98m19.1-.87c.18.52.75 1.87 1.26 3a76.2 76.2 0 0 1 5 16.78c1.6 10.4.05 18.42-4.96 25.79l-1.28 1.87 4.95.33 4.95.33 1.4-1.5c5.16-5.54 4.2-18.8-2.33-32.34-3.17-6.56-10.37-17.97-9-14.26m-178.05 1.14c-.27.92-1.08 2.86-1.8 4.3-1.94 3.93-2.46 5.24-1.88 4.76a.85.85 0 0 1 1.03-.06c.4.25.73.1 1.2-.49.63-.82.64-.81.28.48-.2.72-.54 2.75-.75 4.5-.2 1.75-.48 3.7-.6 4.31l-.2 1.13.68-.94c.43-.58.69-1.58.69-2.62 0-1.61.05-1.69 1.02-1.62 2.3.15 3.31-7.68 1.67-12.8l-.84-2.62-.5 1.67m159.64 2.77c-15.36 13-21.83 27.64-16.64 37.68 3.16 6.1 4.35 7.01 8.93 6.86 4.3-.14 4.2.05 1.65-3.5-7.53-10.5-4.34-25.03 9.34-42.5 2.69-3.44 2.31-3.27-3.28 1.46m21.45-3.68c0 .13.9 1.44 2 2.91 1.1 1.47 2.73 3.77 3.61 5.11.89 1.35 1.94 2.92 2.34 3.5 7.73 11.17 9.54 24.96 4.26 32.45-1.72 2.44-2.57 3.83-2.41 3.96.07.06 1.83.21 3.9.34l3.78.21 1.5-1.94c7.99-10.31 5.99-20.8-6.79-35.64-1.82-2.12-12.2-11.39-12.2-10.9m162.95 2.3c-1.5 5.2-.41 12.24 1.9 12.27 1.06.02 1.1.07 1 1.7-.06 1.18.12 1.96.6 2.58.68.87.68.85.37-1.69a76.5 76.5 0 0 0-1.3-7.9c-.15-.5-.03-.45.5.18.53.66.8.75 1.14.4.34-.33.57-.32 1.02.05.7.57.32-.42-1.78-4.68-.7-1.44-1.5-3.26-1.75-4.03-.62-1.94-.85-1.79-1.7 1.12M374.2 117c-.73.73.25.88 5.77.88 4.66 0 6-.1 5.88-.46-.17-.52-11.16-.9-11.65-.42m141.12.32c-.41.5.29.56 5.95.56 5.82 0 7.5-.25 5.83-.9-1.38-.52-11.3-.24-11.78.34m-144.02 3.7c-3.02 2.22-4.04 4.7-3.15 7.68 1.04 3.5.88 3.46 11.97 3.35l9.68-.1 1.11-1.38c2.39-2.95 1.52-6.63-2.22-9.49l-1.73-1.32h-6.98l-6.97.02-1.7 1.25m141.05.23c-3.44 2.72-4.26 6.54-2 9.33l1.1 1.36 9.9.09 9.9.09 1.01-1.45c2.26-3.2 1.55-6.61-1.95-9.38l-1.95-1.54h-14.11l-1.9 1.5m-246.97 5.85c-.38 1.01-1.43 3.41-2.34 5.34-3.19 6.81-4 10.16-2.66 11.1 1.01.7 1.01.7 1.41-1.53.4-2.17 2.06-6.84 2.65-7.41.31-.3.35-.13.16.64l-.26 1.06 1.78-1.24 1.77-1.25-.2-2.62c-.1-1.45-.51-3.37-.9-4.28l-.71-1.65-.7 1.84m367.86-.41c-.35.82-.73 2.78-.84 4.35l-.18 2.86 1.74 1.2 1.75 1.2-.23-1.05c-.2-.95-.17-.99.24-.33.9 1.44 2.33 5.68 2.55 7.58l.23 1.94 1.07-.86 1.07-.86-.61-2.47c-.67-2.65-1.42-4.56-3.43-8.69-.7-1.44-1.6-3.47-2-4.5l-.7-1.87-.66 1.5m-328.9 1.45c-3.98 1.3-5.85 2.72-6.56 5.03l-.58 1.89 2.53-1.27c1.39-.7 2.63-1.45 2.76-1.66.13-.2.44-.37.68-.36.74.02-3 3.17-5.55 4.66-3.84 2.24-4.27 2.96-1.64 2.75 2.61-.21 5.35-2.15 12.66-8.99l3.15-2.94-2.4.02c-1.43 0-3.46.36-5.05.87m287.67 2.58a86.8 86.8 0 0 0 4.94 4.4c.7.52 1.97 1.5 2.83 2.2 2.01 1.61 2.9 1.94 4.57 1.67 1.63-.26 1.34-.78-1.26-2.26-2.08-1.18-6.83-4.69-6.62-4.89.08-.08 1.3.5 2.7 1.3 3.12 1.77 4.17 2.21 3.6 1.52a5.48 5.48 0 0 1-.66-1.9c-.5-2.63-6.41-5.51-11.35-5.51h-2.41l3.66 3.47m-298.08-1.32c-4.7 2.49-7.96 10.74-3.83 9.7 2.62-.66 5.7-4.92 6.22-8.58.4-2.83.65-2.72-2.39-1.12m309.71.76c.6 4.97 6.81 11.63 7.83 8.4 1.05-3.29-1.97-7.77-6.66-9.9l-1.43-.65.26 2.15m-330.53 2.4c-.4 1.03-.58 2.96-.44 4.63.05.62.3-.3.58-2.06.5-3.3.46-4.16-.14-2.57m353.25-.25c0 .41.22 1.93.5 3.38l.49 2.62.02-2.25c.02-1.24-.2-2.76-.49-3.37-.4-.86-.51-.95-.52-.38m-250.46 2.17c2.22.17 5.85.17 8.06 0 3.62-.27 3.21-.3-4.03-.3-7.24-.01-7.65.02-4.03.3m137.53-.14c0 .12 3.55.22 7.88.22s7.87-.1 7.87-.22-3.54-.22-7.87-.22-7.88.1-7.88.22m115.88 2.06c0 4.65 5 11.88 6.89 9.99 1.93-1.94-.78-7.98-4.83-10.74-2.13-1.45-2.06-1.47-2.06.75m-360.98-.37c-3.22 2.17-5.02 5.2-5.02 8.47 0 5.69 6.8-1.06 7.38-7.33.26-2.81.18-2.85-2.36-1.14m13.14-.38c-1 4.02 2.06 10.9 4 8.96 1.53-1.53.64-5.26-1.9-7.98l-1.85-1.97-.25.99m334.82 1.11c-2.48 2.72-3.24 6.25-1.69 7.8 1.37 1.38 4.21-2.96 4.2-6.42 0-3.63-.3-3.8-2.5-1.38m-247 .64c-1.26 1-1.39 3.33-.24 4.47.83.84 19.87 1.19 21.35.4 1.67-.9 1.73-3.9.1-5.13-1.23-.94-19.99-.7-21.21.26m141.06.36c-1.19 1.19-1.28 2.74-.25 3.98.57.7 21.68.75 22.37.06.88-.88.55-3.54-.54-4.4-.94-.74-1.44-.78-10.71-.78h-9.73l-1.14 1.14m-217.24 3.34c-3.68.9-6.47 4.16-4.07 4.76 2.76.69 9.13-2.73 9.13-4.91 0-.29-3.72-.18-5.06.15m308.81-.03c0 2.25 7.13 5.76 9.32 4.59 1.58-.85-.48-3.47-3.4-4.34-2.08-.62-5.92-.78-5.92-.25m38.89 4.2-2.55 2.5.11 2.39c.23 4.76 4.8 1.3 5.42-4.1.4-3.47-.1-3.6-2.98-.79m-384.4-2.01c-1.54 1.54 1.45 8.53 4 9.34 1.9.6 1.9-4.22-.01-6.18-1.7-1.74-3.76-3.38-3.98-3.16m21.59.72c-1.86 1.45-1.73 5.25.13 4.03 1.77-1.17 2.92.64 1.19 1.87l-.84.6 1.08.97c2.16 1.95 3.58-1.9 1.93-5.26-1.48-3.03-2.02-3.37-3.5-2.2m341.72.21c-2.74 3.26-2.55 9.03.25 7.59 1.52-.79 1.63-1.23.55-2.23-1.56-1.45-.53-2.72 1.3-1.6 1.88 1.17 2-2.65.12-4.09l-1.18-.9-1.04 1.23m-245.8 21.65v20.65h2.63l-.1-20.53-.09-20.53-1.22-.12-1.22-.12v20.65m5.63.21v20.86l1.22-.12 1.21-.11v-41.25l-1.21-.12-1.22-.12v20.86m5.57-20.72c-.03.05-.09 9.33-.13 20.63l-.07 20.53h2.5v-41.25h-1.12c-.62 0-1.15.04-1.18.1m130.55 20.5v20.65h2.63l-.1-20.53-.09-20.53-1.22-.12-1.22-.12v20.65m5.63.19v20.83h2.63l-.1-20.72-.1-20.71-1.22-.12-1.21-.12v20.84m5.5-20.54c-.14.14-.25 9.42-.25 20.62v20.38h2.62v-41.25h-1.06c-.58 0-1.18.11-1.31.25m-242 1.54c-.24.15-.35.72-.24 1.29l.2 1 1.17-.82 1.36-.94c.28-.18-.87-.81-1.5-.81-.3 0-.75.13-.99.28m327.88.03c-.57.22-.43.43.9 1.3 1.7 1.11 2.2.94 2.21-.78.01-.89-1.53-1.15-3.1-.52m-341.14.47c-4.27.63-7.8 2.93-7.41 4.82.41 2 6.52-.3 8.5-3.2 1.12-1.64.93-1.93-1.1-1.62m354.76-.16c0 1.81 4.57 5.28 7.4 5.62 2.77.32 2.94-.78.53-3.36-1.2-1.27-7.93-3.2-7.93-2.26m-337.05 1.8c-2.94.92-5.82 3.91-4.54 4.73 2.5 1.58 11.21-2.28 11.21-4.97 0-.5-4.89-.32-6.67.24m314.92-.26c0 2.81 9.47 6.9 11.2 4.84.61-.75-1.15-3.09-3.06-4.08-1.74-.9-8.14-1.5-8.14-.76m-351.55 2.25c-.64 3.8 2.28 9.08 5.03 9.08 2.91 0 .92-5.82-3.12-9.13l-1.67-1.37-.24 1.42m391.54 1.16c-2.7 2.69-3.36 4.38-2.71 6.96.93 3.71 5.85-2.08 5.85-6.9 0-3.22.04-3.22-3.14-.06m-368.37.51c-.66 1.05-2 4.15-1.85 4.3.1.1.85-.29 1.69-.85.84-.55 1.78-.9 2.1-.78.8.3.7-.13-.38-1.74-1.06-1.55-1.13-1.6-1.56-.93m346.85.84c-.98 1.52-1.07 2.13-.27 1.83.31-.12 1.24.22 2.05.76 1.96 1.3 1.96 1.29 1.04-.99-1.35-3.34-1.6-3.48-2.82-1.6m-351.28 1.71c-.41.17-1.52.32-2.46.33-3.2.05-6.66 2.44-7.32 5.05-.3 1.24 2.8 1.4 5.28.28 2.98-1.36 7.3-6.78 4.5-5.66m356.44.07c0 1.33 2.92 4.34 5.5 5.67 1.35.7 5.37.86 5.37.23 0-2.39-4.18-5.61-7.27-5.61-.92 0-2.11-.17-2.64-.37-.7-.26-.96-.24-.96.08m-6.18 2.6c.28 3.45.86 4.03 2.72 2.73 1.14-.8 1.08-.97-.84-2.4-.92-.7-1.76-1.53-1.86-1.85-.1-.33-.12.35-.02 1.52m-333.02-1.18c-4.28.3-5.43.77-7.45 3-3.35 3.7 2.36 4.62 7.45 1.18 1.8-1.2 4.91-4.65 4.07-4.5-.17.03-2 .17-4.07.32m319.73 1.35c2.34 3.4 7.69 5.69 10.79 4.6 1.58-.55 1.49-1.16-.54-3.33-1.95-2.08-3.37-2.54-8.46-2.72l-2.86-.1 1.07 1.55m-331.83.22-1.96 1.53 1.17.86c1.57 1.16 2.1.84 2.6-1.6.54-2.61.53-2.61-1.8-.8m-27.3 1.22c-.65 4.38 2.66 10.34 5.74 10.34.66 0 .85-.3 1.05-1.69.52-3.46-.08-4.67-4.09-8.19L249.5 158l-.25 1.68m400.11-.75a42.7 42.7 0 0 1-2.47 2.15c-2.53 2.05-3.72 5.72-2.71 8.35.52 1.36 3.28 0 4.87-2.4 2.29-3.45 2.55-10.33.31-8.1m-22.62 4.26c-.74 1.4-.47 2.19 1.12 3.25 1.91 1.26 1.9 1.27.48-1.63-1.08-2.18-1.22-2.33-1.6-1.62m-354.41.3c0 .32-.46 1.36-1.02 2.3l-1 1.73 1.66-.99c1.81-1.07 2.13-1.68 1.5-2.87-.5-.9-1.14-1.01-1.14-.18m-2.68-.04c-.09.1-1.43.36-2.96.59-4.92.73-8.61 3.34-8.61 6.09 0 3.31 9.08-.79 11.3-5.1.65-1.26.8-2.1.27-1.58m360.8 1.24c2.1 3.75 5.67 6.09 9.28 6.09 2.76 0 2.92-.33 1.34-2.83-1.54-2.43-3.17-3.26-7.66-3.92-1.36-.2-2.78-.48-3.15-.62-.6-.23-.58-.08.19 1.28m-190.12 1.23c-7.55.29-18.6 1.22-20.35 1.72-1.39.4-.74 1.38.75 1.14 13.74-2.12 38.65-2.3 55.95-.41 4.66.5 6.36.38 5.55-.43-.5-.5-12.1-1.6-19.22-1.82-4.12-.13-9.01-.3-10.87-.37-1.86-.08-7.17 0-11.81.17m-156 .33c-5.12.29-9 2.58-9 5.33 0 1.74 5.25 1.6 8.45-.25 2.29-1.3 6.17-5.68 4.76-5.36-.15.03-2.05.16-4.21.28m327 .42c2.07 3.85 7.86 6.63 12.15 5.83 2.28-.43.62-3.74-2.73-5.44-1.9-.97-9.9-1.3-9.41-.39m42.3.64a18.9 18.9 0 0 1-2.33 2.13c-3.51 2.82-5.16 7.46-3.48 9.76 1.1 1.5 4.34-.7 5.98-4.05 1.57-3.2 1.42-9.98-.18-7.84m-408.3 2.83c0 7.16 6.86 13.54 7.41 6.9.26-3.15-.81-4.95-5.04-8.42-2.49-2.04-2.37-2.11-2.37 1.52m27.42-1.2c-.83.67-.9 1.84-.1 1.84.36 0 1.38-2.17 1.13-2.42-.08-.08-.54.18-1.03.58m353.58-.13c0 .98.92 2.14 1.44 1.82.68-.42.49-1.1-.52-1.84-.89-.65-.92-.65-.92.02m-190.88.44c-6.15.33-15.38 1.46-15.92 1.95-.96.9.65.98 5.6.32 12.63-1.69 35.62-1.76 51.54-.17 4.9.5 6.36.35 5.45-.54-.35-.35-13.2-1.6-15.6-1.52-.7.02-6.74-.04-13.44-.14-6.7-.1-14.64-.05-17.63.1m-143.07 2.95-3.24 2.53a4.15 4.15 0 0 0-1.25 2.07l-.27 1.3 1.35-1.3c1.02-.97 1.36-1.13 1.36-.66 0 .35-.15.64-.32.64-.34 0-3.8 4.88-3.8 5.36 0 1.9 6.38-4.72 7.72-8.02 1.48-3.63 1.15-4.03-1.55-1.92m312.95-.78c0 2.8 3.27 7.59 6.68 9.77 2.64 1.69 2.63 1.6-.22-2.34-2.29-3.16-2.31-3.42-.15-1.53l.87.77-.27-1.12c-.53-2.2-6.91-7.33-6.91-5.55m-320.82 1.95c-4.29 2.31-5.72 4.2-6.08 7.95-.55 5.8 6.75-.24 7.74-6.4.47-2.91.62-2.78-1.66-1.55m152-.7c-2.83.19-6.2.5-7.5.7l-2.37.37 2.81-.14 11.3-.6c7.36-.41 10.24-.38 21.85.2 14.03.7 18.13.64 7.5-.12-8.4-.6-27.26-.83-33.6-.41m177.26 1.57c.79 5.93 8.09 12.9 8.06 7.7-.02-3.4-2.35-6.65-6.12-8.57l-2.2-1.12.26 1.99m-346.8-.98c-.12.13-1.58.37-3.24.54-5.17.52-10.75 4.83-9 6.94 1.58 1.9 10.82-1.94 10.86-4.5 0-.22.43-.8.94-1.28.51-.49.93-1.12.93-1.4 0-.58-.13-.65-.48-.3m365.9.84c.33.65.75 1.18.94 1.18.19 0 .45.33.58.74.71 2.25 5.7 5.22 8.83 5.24 6.02.06.08-6.78-6.53-7.5a30.45 30.45 0 0 1-3.56-.57c-.87-.27-.88-.26-.27.91m-212.03-.05c-.52.1-1.1.32-1.3.52-.23.22.05.27.75.14l3.17-.52 2.06-.32h-1.87c-1.03 0-2.3.09-2.81.18m56.43-.08c.9.3 4.7.4 4.7.12 0-.17-1.15-.3-2.54-.28-1.4.02-2.36.09-2.16.16m-38.8 1.33c-4.24.15-10.31.62-13.5 1.04-6.44.85-4.8.24-19.88 7.38-3.61 1.71-7.2 3.37-7.97 3.7-.77.31-1.4.66-1.4.78 0 .11 24.84.2 55.21.18 51.57-.02 55.13-.06 53.9-.64l-7.45-3.54a218.8 218.8 0 0 0-6.27-2.92c-.08 0-2.22-.99-4.76-2.2l-4.63-2.2-6.16-.64c-5.2-.54-24.64-1.4-28.29-1.26l-8.8.32m-196.75 1.69c-.92 3.43-.03 6.1 3.23 9.63 2.54 2.76 3.21 3.04 3.77 1.57 1.22-3.22-.1-6.46-3.98-9.72a30.9 30.9 0 0 1-2.47-2.23c-.14-.2-.39.14-.55.75m413.34 1.77c-3.8 3.45-5.21 7.43-3.47 9.81 1.55 2.13 7.03-5.22 6.97-9.35-.05-3.43-.2-3.45-3.5-.46m-383.85 1.21c-.94 2.48-.12 6.01 1.9 8.13 1.65 1.74 2.03 1.77 2.57.25.92-2.65.38-4.3-2.42-7.46l-1.68-1.9-.37.98m355.69.84c-3.05 3.53-4.05 8.34-1.73 8.34 2.59 0 5.04-5.83 3.74-8.88l-.51-1.2-1.5 1.74m-395.63-.84c.16.41.4 3.29.52 6.39.24 5.8.66 7.35 2.15 7.92.87.34.94.02.6-2.83-.17-1.47-.18-2.67-.01-2.67.17 0 .3.28.3.63 0 1.05 1.63 5.74 2 5.74.18 0 .22-.3.08-.65-.88-2.27-1.36-5.72-1.03-7.52.28-1.55.23-2.08-.25-2.81-1.53-2.28-4.88-5.51-4.37-4.2m435.74 1.03c-3.03 3.21-2.9 2.89-2.95 7.5-.04 3.29-.2 4.5-.72 5.48-.48.88-.54 1.2-.19 1.1.27-.1.97-1.6 1.54-3.33l1.06-3.16-.24 2.9c-.24 3.11 0 3.5 1.31 2.19 1.11-1.11 1.52-3.2 1.52-7.72 0-2.27.16-4.67.36-5.34.46-1.61.1-1.53-1.7.38m-342.62-.63a3.87 3.87 0 0 0-1.4 5.6c1.43 2.32 4.22 2.6 6.1.64 3.17-3.34-.66-8.44-4.7-6.24m245.87 2.56c-2.8 2.8-.29 7.75 3.45 6.81 4.41-1.1 4.02-7.36-.5-7.97-1.45-.2-1.7-.1-2.95 1.16m-311.39.12c-4.15.8-7.89 3.94-7.89 6.6 0 2 6.7.42 9.6-2.27 2.26-2.1 1.16-4.89-1.7-4.33m380.13-.03c-1.98 3.32 2.24 7.26 7.77 7.26 2.95 0 3.12-.42 1.23-3.24-1.7-2.54-8.17-5.42-9-4.02m-400.4.9c0 .5.16 1.93.36 3.17.2 1.24.45 3.1.57 4.13.22 2 .92 5.76 2.1 11.25.4 1.85.72 3.58.72 3.84 0 .36-1.9.47-8.16.48H226l1.32.82c.72.46 1.4.92 1.5 1.04.1.12 2.42 1.78 5.16 3.68 4.62 3.22 8.5 6.1 11.71 8.69 5.02 4.04 8.82 7.3 11.19 9.56a34.97 34.97 0 0 0 3.08 2.76c3.53 1.28 18.36 22.14 18.36 25.81 0 4.3 3.82-2.93 4.7-8.9.66-4.48.96-5.77 2.3-9.86 2.53-7.76-1.37-14.84-13.94-25.31-7.28-6.07-17.35-15.76-27.5-26.48-4.38-4.62-5.31-5.45-5.31-4.69m409.87 12.36c-7.72 7.78-15.28 15-18.75 17.9-14.01 11.79-17.65 18.3-14.9 26.64 1.11 3.36 1.56 5.3 2.32 10.14.94 6.02 4.66 12.23 4.7 7.84.01-1.17 3.33-7.56 5.74-11.05 6.33-9.14 18.66-20.87 33.27-31.62 4.9-3.61 4.64-3.43 9.6-6.81l3.7-2.53h-8.15c-9.43 0-8.58.54-7.44-4.75 1.26-5.8 3.27-18.43 2.97-18.68-.07-.05-5.94 5.76-13.06 12.92m-381.72-9.66c-1.32 3.79 1.69 10.76 4.28 9.92 2.16-.7 1.07-5.6-1.99-8.98l-1.89-2.1-.4 1.16m16.28-.96-1.6.34c-1.19.25-3.54 2.64-3.38 3.44.42 2.13 6.96.13 9.2-2.8l.94-1.23-2.2.05c-1.21.02-2.54.11-2.96.2m329.37.36c1.65 3.05 8.87 5.82 9.68 3.72.3-.76-1.17-2.71-2.58-3.44-1.9-.98-7.6-1.21-7.1-.28m18.35 1.92c-2.96 3.4-3.77 7.9-1.54 8.62 2.43.79 5.6-6.88 4.15-10.09l-.45-1-2.16 2.47m-302.98 1.5-1.38.56.67 1.93c.38 1.06 1.4 4.54 2.28 7.73.88 3.2 2.24 7.84 3 10.32.78 2.47 1.77 5.76 2.2 7.31.91 3.2 2.2 7.64 4.05 13.87a1026.04 1026.04 0 0 0 4.97 16.87c1.2 4.03 2.66 9 3.21 11.07.56 2.06 1.24 4.43 1.52 5.25.68 2.05 2.5 8.24 4.3 14.63.47 1.65 1.24 4.26 1.7 5.81.48 1.55 1.49 5 2.26 7.69.76 2.68 2.03 6.98 2.81 9.56.78 2.58 1.79 5.95 2.23 7.5 1.94 6.68 2.42 7.5 3.68 6.24.52-.53-1-7.32-2.2-9.8-.34-.73-.8-2.31-2.06-7.13-.33-1.24-1.5-5.2-2.6-8.81-1.1-3.61-2.35-7.83-2.77-9.38-.42-1.54-1.42-5.09-2.23-7.87a719.83 719.83 0 0 1-3.88-13.88c-.42-1.54-1.36-4.83-2.09-7.3-.73-2.48-1.46-5.01-1.61-5.63a794.02 794.02 0 0 0-5-18c-.54-1.86-1.33-4.64-1.74-6.19-1.1-4.05-2.03-7.35-3.74-13.31l-2.28-8.06a404.9 404.9 0 0 0-1.5-5.28c-.4-1.36-.72-2.67-.72-2.9 0-.6-1.26-3.46-1.5-3.41-.1.02-.81.29-1.58.6m17.36 4.13c1.26 1.81 2.49 3.59 2.72 3.95.55.84 11.35 1.02 11 .18-.1-.25-1.01-1.98-2.03-3.84l-1.85-3.37-6.07-.1-6.07-.11 2.3 3.3m11.62-2.81c.02.26.91 1.98 1.98 3.84l1.94 3.38 93.75.07 93.74.08 2.72-3.69c1.5-2.03 2.72-3.8 2.72-3.92 0-.13-44.3-.23-98.44-.23-78.52 0-98.43.1-98.4.47m211.92 2.22c-.4 1.3-1.08 3.64-1.5 5.19a634.55 634.55 0 0 1-4 14.06c-.68 2.27-1.61 5.56-2.08 7.31-.46 1.75-1.13 4.2-1.5 5.44-.75 2.53-3.4 11.76-4.52 15.75l-2.84 9.93a776.63 776.63 0 0 0-2.4 8.44c-.7 2.77-2.03 7.47-3.21 11.44-.71 2.37-1.63 5.54-2.04 7.03-.4 1.5-1.08 3.94-1.49 5.44-.4 1.5-1.25 4.42-1.87 6.5a20.87 20.87 0 0 0-1.1 7.88c.03 4.32.02 4.33 1.46-.79.47-1.65 1.4-4.77 2.07-6.94 1.26-4.06 2.6-8.6 3.99-13.5.44-1.54 1.42-4.83 2.18-7.3a484.9 484.9 0 0 0 3.77-12.76c.47-1.65 1.27-4.35 1.77-6a794.5 794.5 0 0 0 4.2-14.25c.47-1.65 1.51-5.2 2.33-7.87l2-6.57c.28-.92.97-3.29 1.53-5.24.56-1.96 1.65-5.68 2.43-8.26a1147.83 1147.83 0 0 0 3.72-12.5c.98-3.28.97-3.86-.08-4.1-.46-.1-1.12-.3-1.46-.43-.5-.22-.76.18-1.36 2.1m-314.8-.54c-1.26.13-1.4.26-1.4 1.2 0 1.84 1.01 2.25 2.11.84.51-.65 1.17-1.2 1.46-1.2.31 0 .44-.22.3-.55-.11-.31-.4-.54-.64-.5-.23.03-1.06.13-1.83.2m389.72.25c0 .33.24.6.53.6.3 0 .9.52 1.36 1.15.78 1.1.84 1.12 1.52.51.92-.83.95-2.4.06-2.4-.37 0-1.3-.11-2.07-.24-1.14-.19-1.4-.12-1.4.38m-365.82 1.38c-3.2 1.58-4.5 4.27-2.25 4.7 3.17.59 8.45-1.94 9.97-4.77.56-1.06-5.54-1-7.72.07m336.9-.08c1.72 3.2 8.55 6.01 10.74 4.41 1-.73-.74-3.25-2.98-4.34-2.24-1.08-8.32-1.14-7.75-.07m20.15 1.9c-3.15 3.57-3.78 5.43-2.82 8.32.61 1.84.85 1.97 2.18 1.29 2.71-1.4 4.62-6.4 3.78-9.9-.61-2.56-.62-2.56-3.14.29m-372.59-.8c-.9 3.37.42 7.8 2.96 9.88 1.81 1.5 2.16 1.38 2.83-.96.95-3.24.16-5.16-3.65-8.95-1.71-1.7-1.68-1.7-2.14.02m-6.2 1.18c-.62 1.22-.62 1.29.08 2 .73.72.74.72.97-.42.41-2.09-.26-3.1-1.05-1.58m387.05-.84c-.37.37-.31 2.67.07 2.91.18.11.6-.1.92-.46.62-.68-.35-3.09-1-2.45m23.76.52c-.31.16-1.37.57-2.34.92-2.68.94-3.2 1.55-3.58 4.22-.39 2.68-.31 2.73 2.02 1.36 2.67-1.56 6.43-7.85 3.9-6.5m-434.04.83a10.6 10.6 0 0 0 4.74 6.02c1.9 1.18 2.13.75 1.4-2.67-.42-1.99-.58-2.11-4.29-3.5-2.3-.86-2.17-.87-1.85.15m119.63 4.12c1 3.2 2.3 3.8 8.6 3.97l5.24.15-1.06-1.06a8.47 8.47 0 0 1-1.55-2.24c-.6-1.43-1.58-1.65-7.44-1.66-4.04 0-4.06 0-3.8.84m12.17-.46c0 .58 1.62 2.67 2.72 3.51l1.28.99H541.86l1.17-1.33a5.94 5.94 0 0 0 1.16-1.66c0-.18.1-.6.23-.92.2-.54-7.99-.6-89.81-.69-49.53-.05-90.04 0-90.04.1m253.12 1c0 .64 3.41 4.05 4.73 4.73 2.96 1.53 8.02 1.63 8.02.16 0-.8-2.75-3.69-4.06-4.26-1.76-.77-8.69-1.27-8.69-.63m-342.19.1c-4.34 1.05-7.24 5.06-4.2 5.8 3.24.8 11.14-3.36 11.14-5.87 0-.36-5.42-.3-6.94.07m51.2 3.49c-.5.87-2.17 3.17-3.73 5.1l-3.58 4.42c-.81 1-.73 1.4 1.7 7.91l1.45 3.94c1.33 3.62 3.83 10.2 4.52 11.9.38.94 1.06 2.7 1.52 3.95a91.29 91.29 0 0 0 1.3 3.37c.52 1.2 1.92 4.82 3.43 8.81.5 1.35 1.07 2.78 1.26 3.2.5 1.1 2.14 5.5 2.43 6.46.32 1.12.58 1.07 1.94-.37 3.14-3.33 4.91-7.24 4.26-9.4a890.13 890.13 0 0 1-2.64-8.89l-1.48-5.06c-.41-1.44-1.45-4.9-2.3-7.69a593.5 593.5 0 0 1-3.72-12.56c-.47-1.65-1.14-3.93-1.5-5.06-1.08-3.43-2.1-6.8-2.82-9.28-.8-2.78-.9-2.82-2.05-.75m-94.5-.84c0 .22.26.5.58.61.88.34.98-.02.15-.54-.46-.29-.73-.32-.73-.07m434.63.18-.94.54 1.03.01c.67.01 1.03-.18 1.03-.55 0-.67.05-.67-1.12 0m-95.73.1a450.67 450.67 0 0 0-7.03 23.34c-.42 1.55-1.1 3.9-1.48 5.25-.4 1.34-1.07 3.79-1.5 5.44-1.1 4.21-2.62 9.74-4.23 15.38-.68 2.4 1.7 6.32 5.8 9.55l1.03.8.37-.86c.2-.48.8-2.05 1.35-3.5a318 318 0 0 1 2.12-5.44c1.56-3.87 2.93-7.48 3.32-8.75.17-.59.46-1.26.64-1.5s.8-1.7 1.37-3.25c2.4-6.43 3.36-8.83 3.65-9.16.17-.2.32-.71.32-1.15 0-.43.14-.95.31-1.14.29-.33 1.28-2.8 3.68-9.17.5-1.34 1.06-2.79 1.23-3.22.25-.6.14-.89-.48-1.28-2.78-1.73-7.76-7.28-9.42-10.48-.61-1.19-.8-1.34-1.05-.87m-282.65 3.35c-5.34 4.05-9.07 10.92-7.27 13.38.98 1.34.93 1.4 2.79-2.46 1.97-4.08 2.37-3.62.72.85-.63 1.74-1.23 3.42-1.32 3.73-.21.7 1.25 2.5 1.66 2.03.9-1.03 2.98-8.02 3.8-12.81.22-1.3.65-3.04.95-3.9.8-2.26.68-2.34-1.33-.82m69.45.2.11 1.24 5.93.1 5.94.1-.12-1.23-.12-1.22-5.93-.1-5.93-.11.12 1.23m252.03-.55a211.6 211.6 0 0 1 2.16 9.09c.66 3.02 2.82 9.37 3.19 9.37.06 0 .45-.55.87-1.23l.76-1.23-1.29-3.26c-1.89-4.75-1.62-5.62.46-1.47l1.74 3.5.94-.94.93-.93-.66-2.38a18.15 18.15 0 0 0-6.75-9.7c-2.17-1.64-2.64-1.8-2.35-.82m-238.23.84v1.12l83.85.1c78.29.08 83.87.05 84.19-.54 1.04-1.94 7.28-1.8-83.85-1.8h-84.19v1.12m-97.02 2.27c-5.14.28-5.2.56-.78 3.76l1 .74 1.36-1.2c1.18-1.03 2.72-3.27 2.38-3.46-.07-.03-1.85.04-3.96.16m347.06.8c.35.59 1.26 1.68 2.02 2.42l1.38 1.35 2.28-1.79c3.22-2.52 3.1-2.62-3.23-2.91l-3.08-.14.63 1.07m-263.65.17c-.15.14-.26 8.83-.26 19.31v19.06l.84.17c.46.1 2.78.27 5.16.39 2.37.11 4.7.31 5.16.44l.84.23-.1-19.83-.1-19.82-5.64-.1c-3.1-.06-5.76 0-5.9.15m25.7.04-12.09.1V251.01H377.3l.1-17.72.1-17.72h14.25l.1 17.72.1 17.72h4.12v-19.88c0-10.93-.05-19.83-.1-19.78-.05.05-5.53.13-12.18.19m14.53 16.97c0 9.28.12 16.87.28 16.87.15 0 .94-1.23 1.74-2.72 8.92-16.6 26.68-27.22 48.14-28.78 27.77-2.02 50.8 9.95 62.22 32.35a15.5 15.5 0 0 0 1.46 2.53c.08 0 .16-8.35.16-18.56v-18.57h-114v16.88m116.43-16.4c-.09.25-.12 9.15-.08 19.77l.08 19.32 1.97.1 1.97.12v-36.04h14.24l.1 17.91.1 17.9h4.5l.07-19.78.08-19.78h-11.43c-8.8 0-11.47.11-11.6.47m-281.61 2.97c1.05 3.48 5.34 7.06 8.45 7.06 1.78 0 1.29-.61-3.24-4.04-5.24-3.98-5.56-4.17-5.21-3.02m428.7 2.84c-5.03 3.78-5.47 4.53-2.4 4.07 2.76-.42 6.59-3.85 7.38-6.61.44-1.53.4-1.51-4.98 2.54m-237.09-2.15a.85.85 0 0 1-.64.37c-3.38 0-16 9.43-20.82 15.57l-1.18 1.5-.02-8.9-.02-8.92h11.46c7.54 0 11.38.13 11.22.38m82.9.1c.1.26.14 4.26.08 8.89l-.1 8.4-2.47-2.97c-4.5-5.45-11.57-10.74-17.62-13.19-1.43-.57-2.6-1.17-2.6-1.33 0-.53 22.5-.33 22.7.2m-49.51 1.02c-.63.28-.56.33.44.35a8 8 0 0 1 2.25.43c.58.22 1.9.64 2.93.92 15.22 4.2 29.22 15.57 36.16 29.35 1.4 2.78.95 2.58 6.47 2.86l4.38.22-.94-1.6c-4.22-7.14-7.23-11.11-12.13-16.03-9.95-9.99-20-15-32.8-16.35-5.55-.58-5.74-.59-6.76-.15m-143.5 2.54c-12.16 12.44-11.86 23.34 1.29 46.4 3.3 5.8 5.67 9.68 10.05 16.43 1.89 2.91 1.56 3.2 2.8-2.5 1.16-5.4 2.93-8.93 5.95-11.85 1.88-1.83 1.98-2.14 1.2-3.9-.3-.65-1-2.36-1.55-3.8-.55-1.45-1.22-3.14-1.49-3.75-.27-.62-.86-2.14-1.32-3.38a206.4 206.4 0 0 0-2.8-7.14c-.64-1.51-2.32-5.85-3.26-8.42-.42-1.14-1.15-3-1.63-4.13-.84-1.99-2.78-6.96-4.38-11.25-.76-2.04-2.18-5.25-2.31-5.25-.04 0-1.18 1.14-2.55 2.54m267.74.18c-.54 1.3-1.45 3.52-2 4.95-.56 1.44-1.24 3.13-1.51 3.76-.28.62-.95 2.32-1.49 3.76-.54 1.45-1.2 3.13-1.46 3.75-.27.62-.86 2.14-1.32 3.38a99.73 99.73 0 0 1-1.32 3.39c-.53 1.23-1.66 4.1-3.6 9.17a27.81 27.81 0 0 1-1.54 3.54c-.17.2-.31.71-.31 1.15 0 .43-.15.95-.32 1.14-.26.3-2.11 4.9-2.8 6.96-.13.4.4 1.2 1.49 2.25 3.82 3.73 5.58 7.2 6.75 13.26.77 4 .81 4.06 1.79 2.36.38-.68 1.74-2.83 3.01-4.79 3.85-5.92 5.08-7.85 5.08-8.01 0-.09.68-1.28 1.5-2.64 10.2-16.78 13.38-28.53 9.7-35.76-.39-.75-.7-1.5-.7-1.66 0-1.22-8.76-12.3-9.72-12.3-.13 0-.69 1.05-1.23 2.34m-359.17.2c-.02 4.9 3.4 12.83 5.54 12.83.33 0 1.07.46 1.65 1.01 1.45 1.4 1.32.86-.82-3.24-2.17-4.16-2.17-4.61.01-1.73.87 1.15 1.63 2.09 1.69 2.09.45 0-.59-1.78-2.29-3.92-1.12-1.4-2.04-2.91-2.04-3.35 0-.44-.84-1.72-1.87-2.86l-1.87-2.06v1.24m451.5 1.05c-.93 1.17-1.64 2.37-1.57 2.68.07.3-.56 1.36-1.4 2.35-1.73 2.05-3.26 4.5-2.79 4.48.18-.01.91-.85 1.63-1.87 2.08-2.94 1.98-2.2-.3 2.17-2.09 4-2.09 4.02-.84 2.97.69-.57 1.47-.96 1.74-.86 1.86.72 5.64-7.97 5.34-12.25l-.12-1.79-1.7 2.12m-441.58 2.96c.84 4.59 5.56 9.15 9.5 9.18 1.14 0 1.21-.07 1.21-1.32 0-3.19-2.52-5.9-6.98-7.49a23.6 23.6 0 0 1-3.48-1.46c-.44-.34-.49-.16-.25 1.1m431.2-.18c-5.64 2.12-7.99 4.4-7.99 7.8 0 4.84 9.27-1.41 10.56-7.13.43-1.92.62-1.87-2.56-.67m-283.25 13.77V251H386.7v-26.94l-2.8-.13-2.82-.12v13.6m141.38.28v13.68h5.62V224.01H522.45v13.69m-275.09-10.9c-.75 1.15-1.18 5.25-.6 5.61.73.45 3.42-.52 4.67-1.67l1.2-1.1-1.68-1.51c-2.58-2.3-2.87-2.41-3.59-1.33m402.3.82c-2.3 2-2.36 2.3-.7 3.43 3.39 2.3 4.92 1.92 4.6-1.17-.44-4.22-1.16-4.64-3.9-2.26m-396.84 5.8c-3.81 2.13-5.6 4.57-5.61 7.7-.03 4.43 7.14.03 8.77-5.38 1.1-3.65.3-4.23-3.16-2.31m391.22-.92c-3 1.21 3.74 10.48 7.4 10.17 3.64-.3.86-6.62-4.07-9.24-2.25-1.2-2.5-1.27-3.33-.93m-410.34.65c0 4.27 7.1 10.86 10.54 9.78 2.96-.94-3.2-8.8-6.89-8.8-.27 0-1.15-.34-1.96-.76-1.75-.89-1.7-.88-1.7-.22m431.26.04c-.52.3-1.2.54-1.5.55-4.96.15-11.3 9.01-6.45 9.01 3.8 0 8.05-4.2 9.3-9.22.26-1.03-.02-1.1-1.35-.34m-444.99 2.25c.25 3.3 1.17 6.05 2.5 7.5.57.62 1.37 1.8 1.8 2.64.75 1.5 4.07 4.91 4.44 4.55.1-.1-.8-2.1-2-4.43-1.2-2.33-2.26-4.41-2.34-4.62-.37-.99 1.6 1.26 3.07 3.5 2.32 3.5 2.67 4.13 3.42 6.14.43 1.16.88 1.78 1.3 1.78.35 0 1 .26 1.47.59l.84.58-.76-1.92a41.2 41.2 0 0 0-8.64-13.12 193.6 193.6 0 0 1-3.98-4.32l-1.32-1.5.2 2.63m459.03-1.42c-.37.56-2.03 2.46-3.7 4.22-4.6 4.86-8.11 10.32-9.4 14.63-.28.91-.27.92.45.29.4-.36 1-.66 1.35-.66.4 0 1.16-1.09 2.14-3.05 1.59-3.18 5.13-8.57 5.63-8.57.16 0-.72 1.94-1.95 4.31-1.23 2.38-2.19 4.5-2.12 4.7.22.65 2.83-1.82 4.07-3.86a24.6 24.6 0 0 1 2.22-3.1c1.14-1.24 2.1-4.12 2.48-7.35.28-2.44-.19-3.06-1.17-1.56m-422.23 7.84c-.41.32-1.45.9-2.31 1.28-3.5 1.53-6.25 5.2-6.06 8.05.37 5.42 8.52-1.42 9.18-7.69.26-2.48.26-2.48-.8-1.64m385.52.98c.78 5.41 3.74 9.31 7.55 9.93 4.68.76 1.32-6.9-4.26-9.7a15.05 15.05 0 0 1-2.62-1.52c-.51-.83-.87-.14-.67 1.3m-407.47.22c0 2.67 4.4 8.76 5.23 7.23.77-1.45 2.11-.94 1.98.76-.11 1.5 1.59 2.54 3.29 2 3.24-1.03-1.53-7.31-6.93-9.13-1.24-.41-2.55-.87-2.91-1-.37-.15-.66-.09-.66.14m426.94.78c-4.91 1.9-6.2 2.99-7.24 6.05-.95 2.85-.36 3.66 2.2 2.97 1.38-.37 1.45-.47 1.37-1.77-.1-1.7 1-2.17 1.98-.86l.62.83 1.2-1.36c2.03-2.33 4.05-7 2.97-6.92-.26.02-1.65.5-3.1 1.06m-68.05 8.46a142.47 142.47 0 0 1-7.43 14.25l-1.96 3.38c-.97 1.67-3.19 5.22-6.63 10.58-8.46 13.22-6.15 22.57 8.3 33.46 4.63 3.5 4.8 3.46 4.05-.92-1.24-7.2.74-14.66 5.8-21.94 4-5.74 7.3-11.82 8.25-15.17 1.1-3.89 1.22-4.58 1.23-7.33.01-5.8-2.48-11.05-8.58-18l-1.48-1.68-1.55 3.37m-289.18-1.03c-10.85 11.52-10.69 25.18.48 39.85 5.78 7.6 8.66 18.16 6.94 25.5a12.62 12.62 0 0 0-.45 2.55c.43.42 6.07-3.92 9.2-7.1 10.21-10.32 10.93-18.79 2.64-31.06-.77-1.15-1.82-2.76-2.33-3.58-.52-.83-1.39-2.23-1.95-3.1a180.53 180.53 0 0 1-4.85-8.34c-3.23-5.66-6.8-12.89-7.55-15.28-.35-1.14-.59-1.08-2.13.56m323.08.38c-3.16 4.87-3.65 8.17-1.66 10.97l.85 1.2 1.1-1.11c2.34-2.34 2.9-7.02 1.35-11.43l-.5-1.4-1.14 1.77m-356.92.2c-1.44 3.77-.86 8.39 1.38 10.83l1.1 1.21.7-.86c2.27-2.8 1.5-7.91-1.8-12l-.73-.89-.65 1.7m-45.13 1.38c.53 6.37 7.3 13.18 7.15 7.2-.1-3.72-2.26-6.96-6.15-9.2l-1.23-.72.23 2.72m446.53-1.1c-2.52 1.82-3.47 3.02-4.27 5.4-2.1 6.25 1.73 6.56 5.4.43.8-1.34 1.72-7.36 1.1-7.32-.1 0-1.1.68-2.23 1.49m-413.64-.37c-.52.41-1.64 1.07-2.48 1.45-3.98 1.8-6.67 5.87-5.92 8.89.94 3.7 8.64-2.9 8.98-7.7.07-.94.24-2.1.38-2.56.3-1.02.23-1.03-.96-.08m382.32.8c.12.9.3 2.2.41 2.9.72 4.7 8.77 10.13 8.77 5.91 0-3.38-1.85-6.17-5.2-7.84-1-.5-2.35-1.29-3-1.75l-1.2-.84.22 1.62m-286.7-.58c0 .18 1.45 2.14 3.22 4.35 3.6 4.52 3.64 4.54 8.47 4.35l2.87-.12-1.27-2.06a91.03 91.03 0 0 1-2.18-3.78l-.92-1.7-3.69-.48c-2.03-.25-4.32-.56-5.09-.68-.77-.11-1.4-.06-1.4.12m-117.59 1.32c.51 1.82 1.45 3.67 1.76 3.48.65-.4.37-3.43-.33-3.67a18.7 18.7 0 0 1-1.17-.47c-.38-.17-.44 0-.26.66m425.83-.26c-.84.46-.93.71-.8 2.24.2 2.6.88 2.03 1.9-1.56.39-1.35.27-1.42-1.1-.68m-295.87.34c0 .08.91 1.8 2.03 3.85l2.04 3.7 13.32-.1 13.31-.1 2.65-3.54a45.78 45.78 0 0 0 2.65-3.74c0-.11-8.1-.2-18-.2s-18 .06-18 .13m53.53.15c4.38.06 11.55.06 15.94 0 4.38-.06.8-.1-7.97-.1s-12.35.04-7.97.1m75.58.21c.1.27 1.05 1.81 2.1 3.42a24.87 24.87 0 0 1 1.91 3.23c0 .16 1.48.4 3.28.53 1.8.12 4.03.32 4.93.43 2 .25 2.02.35-.99-4.55l-2.15-3.51-4.64-.02c-3.67-.02-4.6.08-4.44.47m11.14-.24c0 .28 1.7 3.05 3.68 6.03l1.32 1.97h26.74l2.36-3.64c1.3-2 2.44-3.86 2.54-4.13.15-.39-3.33-.48-18.23-.48-10.12 0-18.41.11-18.41.25M240.85 255c0 .38.3 1.8.66 3.17l.65 2.48 1-2.4 1-2.39-.82-.51c-1.53-.97-2.52-1.1-2.5-.34m416.43-.05c-.61.32-1.17.63-1.23.7a9.7 9.7 0 0 0 .67 2.23c.78 2.07 1.48 2.76 1.5 1.45 0-.36.24-1.33.54-2.15 1.02-2.82.67-3.35-1.48-2.23m-244.9.28c-.12.29-.16 1.6-.1 2.92l.12 2.4 3.84.1 3.84.12v-.96c0-1.38 4-1.48 4.2-.1.11.8.3.85 3.96.95l3.84.1v-.95c0-1.38 4-1.48 4.2-.1.11.8.3.85 3.77.95l3.66.1v-6.06l-1.6.11c-1.5.11-1.6.2-1.7 1.34l-.12 1.21h-4.46v-1.3c0-1.31 0-1.32-1.68-1.32s-1.69 0-1.69 1.31v1.31H423.82v-1.3c0-1.31 0-1.32-1.68-1.32s-1.7 0-1.7 1.31v1.31H416l-.12-1.21c-.13-1.37-3.05-2.13-3.52-.92m-167.22 4.61c-.75 2.75-.58 3.13 1.4 3.14 1.3.01 1.4-1.32.3-3.9-.94-2.17-.9-2.19-1.7.76m408.7-2.05c-1.8 2.28-1.9 5.2-.17 5.2 1.55 0 1.88-.8 1.28-3.12-.7-2.7-.67-2.64-1.12-2.08m-416.48 3.1c-2.72 2.57-3.73 5.46-2.56 7.3 1.31 2.08 5.34-3.16 5.26-6.84-.06-2.6-.38-2.65-2.7-.46m422.96-1.76c-1.7 1.7 1.72 9.48 4.16 9.48 1.4 0 1.55-3.83.23-5.85-.73-1.12-4.11-3.91-4.4-3.63m-399.62 1.82c-.4.48-.37.69.14 1.2.59.58.63.54.63-.58 0-1.37-.09-1.44-.77-.62m378.02.54c0 .7.1.8.45.45.35-.35.35-.55 0-.9s-.45-.25-.45.45m-374.63.34c0 3.27 5.6 9.22 7.18 7.64.73-.74-.62-4.38-2.02-5.44-2.46-1.88-5.16-3.03-5.16-2.2m369.38.46c-2.77 1.47-4 2.79-4.56 4.92-1.24 4.69 4.88 1.48 6.63-3.48 1.03-2.94.92-3.02-2.07-1.44m-274.15 1.05c-1.23 1.22-1.4 2.49-.54 4.14.65 1.27.96 1.38 4.69 1.7 1.55.13 3.12.33 3.5.43.59.17.63.1.28-.56-.73-1.37-.49-3.82.51-5.13l.92-1.2-3.08-.24c-4.84-.37-5.09-.34-6.28.86m139.2.12c-1.83 2.98-.65 4.36 4.47 5.2 5.65.94 6.17.92 5.44-.13-.74-1.04-.75-3-.04-4.38l.55-1.06-1.95-.22a256.1 256.1 0 0 0-4.8-.47l-2.85-.25-.81 1.3m-242.19.15c-3.4 1.99-6.63 8.47-3.85 7.74.56-.14.83.01.97.57.24.89 1.52.6 3.06-.67.81-.67.83-.78.3-1.8-.86-1.66.31-2.6 1.69-1.35.6.55.7.5 1.25-.55.78-1.52.75-1.83-.4-3.5-1.15-1.65-.99-1.62-3.02-.44m24.63-.6c-.31.2-1.23.55-2.04.77-2.9.8-5.09 3.2-5.09 5.58 0 2.56 5.18.05 6.92-3.36.42-.83 1.07-3.39.86-3.37-.05 0-.34.17-.65.38m131.25.18c0 .45.58.56 3 .56s3-.1 3-.56c0-.46-.58-.57-3-.57s-3 .11-3 .57m8.25 0c0 .46.62.56 3.37.56 2.76 0 3.38-.1 3.38-.56 0-.46-.62-.57-3.38-.57-2.75 0-3.37.11-3.37.57m9 0c0 .46.62.56 3.37.56 2.76 0 3.38-.1 3.38-.56 0-.46-.62-.57-3.38-.57-2.75 0-3.37.11-3.37.57m9 0c0 .44.54.56 2.62.56 2.09 0 2.63-.12 2.63-.56 0-.45-.54-.57-2.63-.57-2.08 0-2.62.12-2.62.57m180.22.7a6.7 6.7 0 0 0 2.25 4.18c2.4 2.4 5.4 3.22 5.4 1.48 0-2.66-2.07-4.85-5.77-6.1l-2.14-.72.26 1.17m22 .04c-1.36 2.09-.5 5.5 1.04 4.11 1.35-1.22 2.43.06 1.42 1.68-.84 1.33 2.2 3.2 3.42 2.1.37-.33.94-.5 1.28-.36 1.47.56.06-4.42-1.71-6.08-1.19-1.1-3.81-2.77-4.35-2.76-.14 0-.64.59-1.1 1.3m-417.55.67c2.44 4.21 10.68 6.71 8.55 2.6-1.15-2.23-3.13-3.2-7.24-3.55l-1.96-.16.65 1.1m147.06-.66c-1.95 1.05-2.22 3.23-.62 4.98l.77.84h26.8l.97-1.15c1.18-1.4 1.25-2.9.2-4.24l-.78-.98h-13.2c-10.53.02-13.38.13-14.14.55m304.33-.19c-3.52.41-6.94 2.86-6.94 4.99 0 .54 2.02.56 3.8.04 2.49-.74 7.79-5.73 5.67-5.34-.15.02-1.3.17-2.53.31m-164.23.84a3.57 3.57 0 0 0 .02 3.87l.61.92h13.96c13.48 0 13.99-.02 14.64-.74.83-.93.83-2.63-.02-3.92l-.63-.96h-28l-.58.83m143.62 1.14c-.15.36-.15.95 0 1.31.28.63.3.63.45 0 .26-1.1-.09-2.14-.45-1.31m-412.44 1.58c-2.98 2.66-3.63 3.78-3.63 6.23 0 5.6 5.43 1.36 5.88-4.6.26-3.48.02-3.65-2.25-1.63m4.27-.46c.02 1.02.07 1.1.34.47.45-1.03.45-1.68 0-1.68-.2 0-.36.54-.34 1.21m410.6 1.3c0 3.7 1.98 7.25 4.4 7.86 3.2.8 1.92-5.29-1.78-8.5-2.71-2.35-2.62-2.37-2.62.63m-244.04 22.34.1 24.1h1.87l.1-23.35.1-23.34h26.98l.1 23.34.1 23.34 1.03.12 1.03.12v-48.43H412.2l.1 24.1m-164.05-21.4c-.3.75.21 3.34.65 3.33.6 0 .63-1.26.07-2.61-.33-.78-.6-1.05-.72-.73m388.65.06c-.28.33-.87.72-1.32.85-3.48 1.1-6.24 4.22-6.24 7.04 0 3.93 6.25-.44 7.72-5.39.69-2.32.62-3.45-.16-2.5m14.28.38c-.57 1.26-.61 2.88-.08 2.88.57 0 .8-.87.67-2.49l-.12-1.44-.47 1.05m-388.6.26c0 3.6 5.37 9.75 7.72 8.84 1.28-.49.3-4.17-1.57-5.92-1.88-1.74-6.14-3.77-6.14-2.92m187.59-.51c-1.67.67-1.2 3.5.57 3.5 1.99 0 2.72-2.05 1.13-3.17-.88-.62-.96-.63-1.7-.33m14.3.14c-1.83.68-1.04 3.36.99 3.36 1.96 0 2.44-2.45.64-3.27-.46-.2-1.2-.25-1.63-.09m-48.14 22.86v22.5h3v-35.94l1.22-2.36c3.18-6.14 8.16-7.32 12.62-2.98 3.42 3.32 3.2 1.88 3.33 22.81l.1 18.47h2.98v-45h-23.25v22.5m-134.46-21.58c-.4.3-1.07.56-1.48.57-3.83.08-8.42 7.08-4.87 7.43 2.47.25 6.66-3.95 7.19-7.2.24-1.51.18-1.57-.84-.8m335.46.5c0 4.04 8.17 10.22 8.52 6.45.25-2.7-1.78-4.67-7.12-6.9l-1.4-.58v1.04m-257.52 7.27c.1 5.85.3 8.49.73 9.86 1.32 4.22 2.67 8.75 3.17 10.69.3 1.13.78 2.6 1.08 3.24.3.65.54 1.39.54 1.64 0 .5 1.66 6.12 2.52 8.5 1.71 4.77 2.08.07 1.9-24.44l-.11-16.5-3.65-.24c-2-.13-4.25-.35-4.99-.49l-1.34-.25.15 7.99m140.14 12.57v20.58l1.78.48c2.48.67 8.45 1.94 8.57 1.82.2-.2.26-41.91.07-42.1-.11-.12-2.2-.37-4.65-.57-2.45-.2-4.75-.46-5.1-.57-.63-.2-.67.9-.67 20.36m-275.2-18.26c1.63 2.9 4.88 4.93 8 5 4.91.13.5-5.27-4.86-5.94a56.67 56.67 0 0 1-2.95-.44l-1.08-.21.89 1.59m288.2-1.26c-.13.14-.25 9.84-.25 21.56v21.31H537.83l-.1-21.46-.1-21.47-12.2-.1c-6.72-.06-12.33.01-12.47.16m160.43.02c-3.88.36-7.07 2.2-8.1 4.69-1.23 2.96 5.19 1.86 8.5-1.46 1.79-1.78 2.68-3.52 1.77-3.44l-2.17.2M371.42 293.3l.1 21.28 12.46.1 12.47.1V272H371.32l.1 21.28m-114.53-19.5c-2.31 1.9-3.24 3.7-3.29 6.38l-.02 1.59h1.47c1.86 0 2.16-.46 1.18-1.84-1.75-2.46-.21-3.72 1.8-1.48 1.55 1.75 2.06 1.2 1.83-1.98-.27-3.77-.92-4.36-2.97-2.67m383.75-.07c-.56 1.22-.57 5.29-.02 5.63.24.15.97-.34 1.67-1.1 2.01-2.2 3.23-1.09 1.63 1.5-.94 1.52-.7 2 1 2 2.65 0 2.1-4.3-.93-7.2-2.11-2.04-2.74-2.19-3.35-.83m-190.94.23c0 .17.5.31 1.13.31.61 0 1.12-.07 1.12-.14 0-.09-.5-.22-1.12-.31-.62-.1-1.13-.03-1.13.14m-205.78 2.52c-2.96 2.81-3.47 3.74-3.47 6.28 0 6.45 6.23 1.81 6.67-4.97.27-4.2-.03-4.32-3.2-1.3m409.28-2.31c-2.04 3.3 2 12.28 5.23 11.65 1.6-.3 1.6-4.72 0-7-1.17-1.66-4.99-5.06-5.23-4.65m-133.45.54c1.29 1.29.34 5.55-1.24 5.55-1.26 0-1.68-.76-1.68-3s.42-3 1.68-3a2 2 0 0 1 1.24.45m7.13 0c.24.25.45 1.4.45 2.55 0 3.02-1.83 4.19-3.23 2.05-1.62-2.47.83-6.54 2.78-4.6m6.61.38c1.74 2.5-.7 6.73-2.71 4.72-.74-.74-.58-4.69.2-5.15 1.05-.6 1.88-.46 2.51.43m-154.3.27c1.41 2.64-.44 6.06-2.64 4.89-.85-.46-1.06-4.38-.27-5.16.7-.72 2.47-.55 2.9.27m6.7-.27c1.72 1.72 0 6.14-2.04 5.22-1.8-.82-1.11-5.67.8-5.67a2 2 0 0 1 1.24.45m6.8.27c1.5 2.8-.79 6.66-2.76 4.68-1.46-1.45-.52-5.4 1.28-5.4.7 0 1.24.26 1.49.72m56.9-.12c-.6.6-.18.9 1.27.9 1.05 0 1.48-.15 1.37-.47-.16-.52-2.21-.85-2.64-.43m14.18.13c-.13.22 0 .5.31.6.82.32 2.68.04 2.68-.4 0-.51-2.68-.7-2.99-.2m-214.8 2.93c-.11 1.18-.33 2.57-.48 3.09-.28.93-.28.93.53.22.65-.58.8-1.14.8-2.89 0-2.86-.6-3.16-.85-.42m401.4.1c-.03 1.4.15 2.33.54 2.82.56.69.58.67.32-.4-.15-.62-.4-1.88-.54-2.8l-.26-1.7-.05 2.09m-199.55 1.62c0 2.33.14 3.26.56 3.6.5.41.56.03.56-3.14 0-2.95-.1-3.6-.56-3.6-.46 0-.56.6-.56 3.14m13.5 4.92c0 5.12.13 8.06.37 8.06s.38-2.94.38-8.06c0-5.13-.14-8.06-.38-8.06s-.37 2.93-.37 8.06m-202.3-5.79c.43 3.46 3.73 7.8 6.56 8.65 2.18.65 2.73.28 2.41-1.65-.51-3.1-2.2-5.03-5.93-6.8a9.72 9.72 0 0 1-2.3-1.35c-.54-.87-.92-.27-.74 1.15m373.47-.27c-4.7 2.5-5.94 3.92-6.38 7.28-.8 6.02 7.85-.81 9.03-7.13.31-1.69.23-1.7-2.65-.15m-353.63.8c-.4.3-1.03.55-1.4.56-2.18.04-6.02 3.1-6.65 5.28-.71 2.49-.51 3.35.77 3.35 3.41 0 7.43-3.94 8.2-8.05.34-1.83.2-2-.92-1.15m335.3.81c1.07 5.9 9.53 11.73 9.25 6.37-.17-3.17-2.02-5.04-6.66-6.7-.82-.3-1.8-.68-2.18-.84-.61-.26-.66-.14-.42 1.17m55.29-.77c-.72.27-2.16.5-3.2.52-3.99.04-9.54 4.73-7.46 6.29 1.69 1.27 6.63-.33 9.2-2.97 1.06-1.1 3.38-4.64 2.86-4.38l-1.4.54m-445.28 1.44c1.74 3.1 6.03 5.85 9.14 5.85 5.64 0 .26-6.14-5.93-6.77-1.58-.16-3.16-.41-3.52-.55-.54-.21-.48.04.31 1.47m225.16 1.08v2.35l2.8 2.55c2.6 2.34 2.82 2.66 2.82 4.02v1.48h5.63v-12.76h-11.25v2.36m-202.5 1.28c-.52.51-1.8 1.72-2.85 2.69-4.85 4.46-3.7 12.14 1.18 7.85 2.2-1.92 3.16-4.38 3.16-8.06 0-3.49-.18-3.8-1.5-2.48m398.85.96c-.47 3.79.9 7.68 3.5 9.94 4.28 3.71 5.61-3.66 1.42-7.84a59.03 59.03 0 0 0-4.6-4.07c-.05 0-.19.88-.32 1.97m-269.84-.84c.7.7.75 1.24.75 10 0 9.85-.14 10.62-1.91 10.62-1.74 0-1.84-.59-1.84-10.62 0-9.46.07-10.08 1.12-10.48.92-.35 1.1-.31 1.88.48m6.77-.37c.69.37.73.89.73 10.24 0 10.35-.07 10.75-1.7 10.75-1.61 0-1.68-.42-1.68-10.55 0-10.96.2-11.75 2.65-10.44m6.64.2c1.1.77 1.33 19.12.25 20.2-.76.76-1.62.75-2.48-.03-1.9-1.73-.81-20.76 1.19-20.76.11 0 .59.27 1.04.59m127.97.38c.2.53.37 4.82.37 9.53 0 9.48-.18 10.5-1.8 10.5-1.92 0-1.95-.16-1.95-10.5 0-10.33.03-10.5 1.95-10.5.8 0 1.16.25 1.43.97m6.67-.52c.32.33.45 3.09.45 10.05 0 10.09-.07 10.5-1.7 10.5-1.61 0-1.68-.41-1.68-10.5 0-10.08.07-10.5 1.69-10.5a2 2 0 0 1 1.24.45m6.8.28c.24.44.4 4.25.4 9.77 0 9.76-.13 10.5-1.82 10.5-1.9 0-1.93-.18-1.93-10.5 0-6.96.12-9.72.45-10.05.71-.7 2.47-.54 2.9.28m143.3 1.15c-.2 2.65-4.1 7.6-7.21 9.2-3.9 2-14.8 3.77-27.88 4.52-25.1 1.43-28.52 2.63-33.05 11.55-2.54 5-4.8 9.2-7.73 14.41-3.31 5.88-4.41 8.57-4.4 10.84 0 2.71.6 3.23.92.81 1.45-11.04 10.64-14.84 36.57-15.12 12.4-.14 15.53-.36 22.42-1.54 12.91-2.22 19.2-8.1 19.2-17.96 0-.63.43-2.84.95-4.9 1.25-4.94 1.46-7.74.8-10.31-.3-1.14-.56-1.81-.58-1.5m-454.5 1.32c-.66 2.4-.49 4.96.69 10.14a97.7 97.7 0 0 1 1.33 6.81c1.7 14.09 12.1 18.2 45.7 18.07 14.58-.06 24.17 2.36 28.55 7.2 1.48 1.64 3.56 5.66 3.57 6.9.01 1.44.45 2.54.8 2 1.09-1.73-.2-5.6-4.18-12.62-1.68-2.96-4.46-8.1-6.19-11.44-3.65-7.05-4.28-7.92-7.1-9.79-4.08-2.7-11.45-4.34-19.5-4.34-11.87.01-31.07-2.6-35.74-4.87-2.55-1.23-5.45-4.4-6.55-7.17l-.96-2.39-.41 1.5m244.08 2.88v3.55l2.94 2.13c3.67 2.64 3.43 2.7 3.42-.97l-.02-3.1-1.58-1.2c-.87-.67-2.3-1.84-3.17-2.59l-1.6-1.37v3.55m-205.5-.54c0 2.3 1.92 6.38 3.71 7.87.34.28 1.67.47 3.33.47h2.78l-.26-1.22c-.48-2.25-3.45-5.17-6.39-6.29-.56-.21-1.5-.73-2.09-1.15l-1.07-.77v1.09M451.5 300c-.09 9.75 0 12.82.36 13.25.38.44.47-.85.47-6.66 0-3.96.14-7.2.33-7.2.18 0 2.03 1.35 4.12 3l3.8 3v7.84l2.34 1.93c1.29 1.06 2.8 2.34 3.37 2.83l1.04.9v10.32l3.56 3.55 3.56 3.55v-3.86l-3.23-3-3.23-2.99.14-4.6.14-4.61-3.26-2.65-3.25-2.65-.12-4.13-.13-4.12-3.07-2.25-3.08-2.25-.02-4.34c-.02-4.76.17-4.31-2.9-6.87l-.83-.69-.11 12.7m186-11.68c-.76.52-1.62.94-1.9.94-.9 0-4.55 2.98-5.43 4.42-1.58 2.6-1.28 3.08 1.93 3.08 3.68 0 5.44-1.78 6.58-6.65.62-2.63.45-2.9-1.18-1.8m-354.13.53c-.2.17-1.61.8-3.15 1.37-3.73 1.4-8.14 5.86-6.67 6.75.05.02 1.25.25 2.68.5l2.58.47 1.5-1.43a13.82 13.82 0 0 0 3.47-6.63c.26-1.41.2-1.59-.41-1.03m332.83.36c0 4.8 3.8 8.86 7.67 8.2l2.53-.43-.21-1.3c-.34-2.1-2.8-4.28-6.19-5.5a23.3 23.3 0 0 1-3.33-1.39c-.34-.26-.47-.15-.47.42m-387 .38c0 1.7 3.46 3.4 8.82 4.32 3.99.68 3.88.74 2.24-1.17-1.52-1.77-3.4-2.53-7.69-3.08-3.5-.46-3.37-.45-3.37-.07m438.38-.05c-3.22.26-6.1 1.48-7.9 3.35-1.48 1.53-1.56 1.7-.73 1.5.52-.1 2.08-.39 3.48-.61 4.71-.75 7.13-1.78 7.96-3.4.65-1.25.98-1.15-2.81-.84m-379.2 3.3c-2.03 1.48-5.31 6.17-4.72 6.76.75.76 2.03.46 2.48-.56.7-1.63 1.31-1.42.63.2-.6 1.44-.49 2.03.38 2.03.5 0 1.67-3.15 1.67-4.5 0-.35.34-1.62.76-2.82.92-2.68.94-2.66-1.2-1.1m321.53-.74c.11.4.49 1.82.83 3.16 1.61 6.21 1.7 6.4 2.46 6 .66-.35.68-.5.19-1.88-.61-1.73-.13-2.05.56-.37.5 1.22.8 1.33 1.89.74.86-.46.53-1.45-1.37-4.12-1.44-2.02-4.9-4.7-4.56-3.53m-151.96 4.02v2.35l3.02 2.15 3.01 2.14 3.45-.04c1.9-.02 4.98-.15 6.83-.28l3.38-.24-1.88-1.3a113.1 113.1 0 0 1-3.18-2.27c-.73-.55-2.54-1.86-4.04-2.93l-2.73-1.94h-7.86v2.36m-4.12 12.54v6.68l3 2.98 3 2.98v-14.67l-3-2.32-3-2.33v6.68m10.5-1.4v3.38H478.94v-6.75H464.32v3.37m55.5-.38c1.49 1.49.66 5.63-1.12 5.63-1.24 0-1.87-1.05-1.87-3.1 0-2.9 1.41-4.1 3-2.53m6.81-.13c1.06.96.98 4.83-.11 5.41-1.7.9-2.58-.06-2.58-2.81 0-3.02 1.08-4.06 2.7-2.6m6.68.13c1.49 1.5.71 5.63-1.06 5.63-1.98 0-2.85-4.57-1.11-5.8 1.07-.74 1.26-.73 2.17.17m-154.44.25c.99.9.95 4-.07 5-1.5 1.52-3 .36-3-2.33 0-2.86 1.46-4.13 3.07-2.67m6.71-.23c1.22.65 1.06 5.1-.21 5.68-1.5.68-2.44-.43-2.44-2.91 0-2.69.95-3.68 2.65-2.77m6.89.2c.96.97.8 4.47-.25 5.2-1.62 1.14-2.91-.05-2.91-2.67 0-2.66 1.68-4.01 3.16-2.53m72.42 5c.2.18 1.38 1.17 2.63 2.2l2.28 1.88 7.64-.24 7.65-.24-2.51-1.97-2.5-1.97h-7.78c-4.54 0-7.62.14-7.41.33m-106.97 2a2.26 2.26 0 0 0 .92 2.87c.67.36 8.68 3.42 8.94 3.42.07 0 .03-.48-.08-1.08-.12-.59-.02-1.45.22-1.9.61-1.14.1-1.5-.67-.48-.9 1.2-2.63 1.6-4.35 1.02-1.76-.61-1.67-.5-2.2-2.67-.54-2.16-2.04-2.8-2.78-1.19m140.73-.1c-1.68 1.86-.5 3.29 3.72 4.5 1.65.48 3.74 1.1 4.66 1.39 2.26.7 2.27.7 2.27-.82 0-.74.16-1.63.35-1.99.3-.56-.06-.75-2.9-1.5-1.8-.48-4.22-1.17-5.39-1.55-2.02-.65-2.16-.65-2.71-.03m-47.4 1.08c.3 1.09 23 24.11 23.13 23.48.08-.43-3.73-4.48-11.58-12.3-6.43-6.42-11.64-11.45-11.56-11.18m10.08 4.28.01 3.48 2.43 2.54 2.42 2.53v-8.12l-2.44-1.95-2.43-1.96v3.48m-61.36-2.11c.13.32.23 1.17.23 1.87v1.28h10.31c5.68 0 10.32-.11 10.32-.26 0-.15-.72-1-1.58-1.88l-1.58-1.6h-8.96c-8.02 0-8.94.06-8.74.59m22.92 1.28 1.84 1.87h27.38l-1.85-1.87-1.84-1.88h-27.38l1.85 1.88m65.06-.75c0 2.7 7.69 4.14 9 1.69.28-.52.67-.94.88-.94.2 0-.02-.42-.5-.94-.84-.9-1.09-.94-5.13-.94h-4.25v1.13m24-.64c-.76.39-.94.75-.94 1.96v1.5l13.66.09c12.3.09 13.72.04 14.34-.53.88-.8.88-2.09 0-2.89-.9-.81-25.47-.94-27.06-.13m-142.46.73c-.32.87-.19 1.63.44 2.44.52.66 26.91.68 27.57.02.25-.25.45-.89.45-1.43 0-1.87.04-1.87-14.52-1.87H369.8l-.32.84m101.21 3.67v4.13l7.4-.1 7.42-.1.1-4.03.11-4.03H470.7v4.13m-245.74-.53c6.3 7.17 8.8 9.33 12.91 11.17 3.7 1.65 3.97 1.58 1.7-.48-1.17-1.06-2.28-1.92-2.48-1.92-.64 0-5.04-3.29-6.75-5.04-2.21-2.27-1.76-2.16 2.13.53 3.67 2.53 4.04 2.58 2.55.3a15.7 15.7 0 0 0-8.9-6.5c-3.48-.93-3.56-.78-1.16 1.94m448.62-1.91c-3.52.99-7 3.71-8.97 7.02-1.22 2.05-.72 1.82 4.75-2.12 1.08-.78 1.97-1.25 1.97-1.06 0 .64-3.55 3.7-6.78 5.85-3.41 2.26-6.65 5-5.4 4.55.4-.14 1.17-.4 1.69-.55 3.55-1.07 8.33-4.87 12.66-10.07 3.78-4.54 3.78-4.66.08-3.62m-315.33.28c-1.2 1.21.02 3.38 2.53 4.47 1.78.77 6.58 2.56 6.86 2.56.1 0 .1-.6.01-1.32-.08-.73.05-1.56.3-1.86.47-.57-.28-1-3.9-2.23-.84-.3-2.4-.87-3.45-1.29-1.43-.56-2.03-.65-2.34-.33m139.83.62c-.8 1.5.39 3.22 2.8 4.08.62.22 2.56.91 4.31 1.55 3.85 1.39 3.9 1.4 3.6.22-.13-.52.01-1.53.32-2.25.5-1.2.5-1.32-.09-1.32-.35 0-2.58-.68-4.95-1.5-4.92-1.7-5.45-1.78-5.99-.78m-10.13 3.86c0 1.62.11 1.78 3.4 4.96l3.39 3.29-.12 4.46c-.13 5.28.34 5.75 2.81 2.8 1.32-1.58 1.39-1.8 1.36-4.22l-.03-2.56-5.4-5.2-5.41-5.21v1.68m-87.87-.17c.15.56.25 1.5.21 2.06l-.06 1.03h5.62c6.26 0 6.04.15 3.69-2.57l-1.35-1.56H399.82l.27 1.04m11.81-.36c.27.37 1 1.3 1.62 2.06l1.12 1.39H429c7.89 0 14.34-.13 14.34-.3 0-.16-.8-1.09-1.8-2.06l-1.79-1.77h-14.16c-13.57 0-14.14.03-13.68.68m33.02 1.3 1.7 1.96 6.13.1 6.14.1-2.05-2.06-2.04-2.08h-11.57l1.7 1.97m49.03.1c2.54 2.57 4.87 3.01 4.87.92 0-1.93-1.56-2.96-4.49-2.97l-2.42-.02 2.04 2.07m-124.46-.85c-.33.88-.2 1.63.44 2.44.74.96 27.52.65 28.04-.33.35-.65.3-.98-.3-1.78l-.74-.98-13.57-.1-13.56-.1-.31.85m141.57-.27c-.84.83-1.08 1.93-.62 2.79.4.75.7.76 14.4.76h13.98l.81-.86c1.06-1.13 1.03-1.54-.17-2.48-1.32-1.04-27.38-1.24-28.4-.21m-273.24.18c0 2.95 6.9 9.27 9.16 8.4 1.7-.65-.79-5.39-3.72-7.1-1.5-.87-5.44-1.81-5.44-1.3m24.77-.1c.2 4.45 3.04 8.8 7.28 11.17 1.25.7 2.85 1.83 3.56 2.5 1.48 1.44 1.37 1.22-1.58-3.07-4.5-6.53-4.94-7.4-2.68-5.23 2.32 2.22 5.9 8.02 5.9 9.57 0 .27.4.97.87 1.54l.87 1.06-.24-1.31c-.97-5.32-4.4-10.7-9.24-14.48-2.35-1.84-4.8-2.73-4.74-1.74m370.08 1.71c-4.38 3.62-6.76 6.91-8.36 11.57-1.29 3.73-1.29 4.47 0 2.95.53-.64.88-1.26.77-1.37-.72-.73 4.8-9.36 6.58-10.32.8-.43-.03 1.34-1.43 3.05-2.26 2.78-4.67 6.85-3.5 5.91a45.5 45.5 0 0 1 3.71-2.49c3.95-2.4 5.65-4.7 6.51-8.8l.53-2.5h-1.2c-.89 0-1.8.51-3.6 2m27.52-1.6c-3.44.68-5.78 2.55-7.28 5.84-1.56 3.43 2 3.26 5.84-.28 2-1.85 4.35-6.05 3.3-5.91-.17.02-1 .18-1.86.35m-379.05 1.76c.85 5.85 7.68 11.67 7.67 6.52-.01-2.96-2.56-6.55-5.52-7.8-2.16-.9-2.44-.73-2.15 1.28m335.8-1.5c-3.12 1.17-5.63 4.76-5.63 8.02 0 2.12.31 2.4 1.95 1.7 4.45-1.86 8.05-11.39 3.67-9.73m-257.62 8.18c0 6.64.06 7.34.65 7.55.37.13 2.54 1.05 4.84 2.05 2.3 1 4.37 1.82 4.6 1.82.62 0 .57-14.41-.06-14.87-.26-.2-1.4-.7-2.53-1.13l-4.6-1.77c-1.4-.53-2.62-.98-2.72-.98-.1 0-.18 3.3-.18 7.33m141.18-.49c-.31 6.87-.51 6.38 3.5 8.58 1.59.86 3.77 2.07 4.85 2.68l1.97 1.1V329.1l-5.03-1.65-5.02-1.65-.27 5.92m-248.3-2.82c-1.2 2.53-1.33 4.95-.37 6.77 1.87 3.58 4.17-2.3 2.64-6.78-.84-2.45-1.1-2.45-2.27.01m219.62-1.82c0 .17 1 1.19 2.23 2.26l2.23 1.93 7.77-.1 7.77-.1-2.67-2.15-2.67-2.16h-7.33c-4.03 0-7.33.14-7.33.32m174.43.17c-1.62 1.96-1.56 7.57.11 9.2 2.08 2.04 3.25-3.94 1.5-7.65-1.08-2.27-1.04-2.23-1.6-1.55m-262.67 1.67-12.29.1.1 7.4.1 7.4 12.29.1 12.28.1v-7.7c0-4.22-.04-7.65-.1-7.6-.05.05-5.62.14-12.38.2m20.45 1.59c.43.72 1.1 1.78 1.5 2.34l.7 1.03H434.12l-2.22-2.24-2.22-2.24-13.21-.1-13.21-.1.79 1.31m42.79-1.13-13.56.2 1.93 2.16 1.93 2.16 13.98-.1 13.98-.1-2.35-2.25-2.36-2.25-13.55.18m-48.51 2.08c0 2.4.16 2.52 2.96 2.35l1.93-.11-1.35-2.16c-1.97-3.15-3.54-3.18-3.54-.08m114.17-1.6c-.1.27-.14 3.6-.09 7.41l.1 6.93H537.65V329.58l-12.48-.1c-9.94-.09-12.51 0-12.66.38m-219.32 2.54c-2.56 2.76-3.28 5.7-1.77 7.21 1.62 1.62 5.2-4.4 4.7-7.88-.31-2.05-.43-2.03-2.93.67m310.88-1.42c-.7 2.63.62 6.63 2.69 8.1 3.5 2.5 3.67-2.95.2-6.7-2.3-2.5-2.56-2.62-2.89-1.4M257.9 333.4c-1.44 2.93-1.63 5.16-.62 7.14 2.14 4.19 4.87-1.39 3.19-6.5-1-3.04-1.35-3.12-2.57-.64m381.95-.06c-2.1 5.63.96 11.9 3.22 6.57.73-1.72.49-3.54-.86-6.39-1.3-2.77-1.39-2.77-2.36-.18m33.16-.8c-4.46.9-10.04 4.99-8.39 6.14.7.49.92.43 2.33-.57.86-.6 1.82-1.23 2.13-1.39.74-.38-3.57 3.83-5.25 5.12l-1.31 1 1.52.03c1.43.01 1.71-.17 4.32-2.93 2.85-3.02 7.25-7.96 7.03-7.9-.07.03-1.14.25-2.38.5m-444.6 3.9c4.35 5.26 5.91 6.53 7.8 6.37l1.39-.11-1.65-1.09c-1.92-1.26-5.25-4.3-5.25-4.79 0-.18.87.25 1.93.97 1.8 1.2 3.32 1.3 3.32.19 0-1.3-6.27-5.02-9.14-5.43l-1.84-.27 3.44 4.15m248.67-1.42v2.25h15v-4.5h-15v2.25m-234.38.82c-2.3.5-2.5.82-1.13 1.8 3.4 2.42 10.6 2.03 8.39-.45-1.5-1.67-3.8-2.1-7.26-1.35m375.19-.07c-3.3.21-4.13.55-5.59 2.27-1.2 1.44-1.23 2.08-.08 2.37 2.33.59 6.75-1.4 8.27-3.71.8-1.22 1-1.16-2.6-.93m34.31-.07c-3.78 1.72-3.2 3.44 1.17 3.44 2.09 0 4.2-.76 5.5-1.97l.87-.82-1.99-.46c-2.16-.5-4.66-.59-5.55-.19m-373.12.4c0 1.87 6.65 5.1 8.98 4.36 1.45-.46.16-2.72-2.25-3.95-1.51-.77-6.73-1.09-6.73-.4m119.5-.1c-.14.15-.25 1.33-.25 2.63v2.38h12.62c11.98 0 12.6-.03 12.06-.66l-2.18-2.62-1.62-1.97h-10.19c-5.6 0-10.3.11-10.44.25m24.12.06c0 .17.94 1.35 2.1 2.63l2.1 2.31h30l-2.32-2.63-2.33-2.62h-14.77c-8.13 0-14.78.14-14.78.31m33-.02c0 .16 1.06 1.34 2.36 2.63l2.35 2.33h12.33l-2.6-2.63-2.6-2.62h-5.92c-3.26 0-5.92.13-5.92.3m144.25.86c-.85 3.18.19 6.83 2.52 8.87 2.3 2.03 2.86 1.6 2.86-2.23v-2.26l-2.57-2.64c-2.43-2.5-2.58-2.58-2.8-1.74m-302.76 1.93c-2.52 2.62-3.05 4.13-2.37 6.65.92 3.41 5.62-1.45 5.61-5.8 0-3.77-.35-3.86-3.24-.85m337.28.31c-2.05 4.3-1.2 10.85 1.42 10.85 2.46 0 3.02-5.66.98-9.91l-1.43-2.97-.97 2.03m-371.36 1.2c-1.74 3.67-1.74 6.43-.01 8.7l1.05 1.38.9-.84c2.12-2 2.2-8.48.15-11.21l-.7-.93-1.39 2.9m213.96-.66V341h15v-2.63h-15v1.32m19.39 3.28c-1.37 1.7-3.02 3.74-3.68 4.53l-1.2 1.43 4.98 5 4.98 5 3.9-6.2c4.46-7.1 4.3-6.61 2.47-7.6-.77-.42-3-1.77-4.97-3-4.35-2.72-3.55-2.83-6.48.84m-139.19 1.2a137 137 0 0 0-2.64 4.23c-.32.57-1.26 2.11-2.1 3.42a14.18 14.18 0 0 0-1.4 2.48c1.58 1.28 8.68 5.8 8.9 5.66.33-.2 8.98-13.66 9.14-14.2.08-.28-8.88-4.72-9.57-4.75-.15 0-1.2 1.42-2.33 3.17m-111.12-1.8-1.61.57.86.75c3.95 3.45 13.37 3.12 9.57-.34-1.91-1.74-5.54-2.15-8.82-.98m399.66.31c-1.88 1.39-2.06 1.92-.92 2.66 2.37 1.55 7.2.66 9.84-1.82l.85-.8-1.78-.47c-3.17-.84-6.51-.66-8 .43m-364.3 1.68c1.52 2.94 9.33 6.02 10.5 4.14 1.28-2.07-3.85-5.22-8.53-5.23h-2.53l.56 1.09m116.82-.14c0 .53.38 1.46.84 2.05l1.72 2.21.87 1.13h5.78c6.67 0 6.45.2 3.9-3.58l-1.89-2.79H398.33v.98m14.48-.52c.15.26 1.1 1.7 2.1 3.2l1.82 2.71h31.94l-2.81-3.09-2.82-3.1-15.25-.1c-12.2-.07-15.2 0-14.98.38m33.75 0c.15.27 1.46 1.7 2.9 3.2l2.64 2.71h28.52l-3.17-3.18-3.17-3.19h-14c-11.1 0-13.94.1-13.72.47m34.27 2.72 3.17 3.18h2.73c1.83 0 2.72-.14 2.72-.43 0-.25.8-1.39 1.79-2.54a132.5 132.5 0 0 0 2.3-2.74c.48-.62.06-.66-7.69-.66h-8.2l3.18 3.19m131.06-2.5c-1.76.8-4.03 3.23-3.86 4.13.49 2.57 8.97-.66 10.83-4.13.53-1-4.77-1-6.97 0m-341.06.55c0 .27-.6 1.66-1.31 3.1-1.9 3.75-1.59 7.6.76 9.55 1.55 1.28 3.72-2.8 3.48-6.51-.2-3.01-2.93-8.74-2.93-6.14m30.24 2.16c-3.33 3.48-4.26 6.6-2.65 8.9l.59.84 1.4-.8c2.9-1.61 4.56-5.85 3.78-9.6-.5-2.41-.1-2.5-3.12.66m294.86-1.08c-1.36 5.07 4.31 13.98 6.03 9.47 1.11-2.93.35-5.1-2.98-8.44l-2.62-2.63-.43 1.6m32.01-.35c-1.36 2.52-1.61 3.43-1.6 5.85 0 3.58 1.66 6.88 3.15 6.3 2.44-.93 2.97-6.1 1.02-10-.65-1.3-1.18-2.6-1.18-2.87 0-.9-.72-.53-1.39.72m-393.86-.42c-.52.2-1.76.9-2.75 1.53l-1.82 1.17 2.88 1.04c4.54 1.66 11.02 5.62 16.02 9.79 1.35 1.12 2.15 1.5 3.38 1.58.88.06 2.09.24 2.69.4.94.26.75-.03-1.46-2.17-1.61-1.57-2.98-2.56-3.71-2.71-3-.6-4.73-1.37-4.73-2.1 0-1.07.89-1.24 3.3-.65l2.16.52-2.58-2.44c-2.77-2.63-2.74-2.6-5.98-3.55-1.83-.53-2.15-.76-2.15-1.5 0-1.29-3-1.81-5.25-.91m427.43-.17c-.35.09-.69.54-.75.99-.1.64-.61.97-2.37 1.53-3.1.97-3.52 1.22-6.3 3.84l-2.45 2.3 1.94-.52c2.53-.67 3.49-.65 3.77.08.35.91 0 1.2-2.32 1.87-3.7 1.08-4.03 1.27-6.3 3.6-1.22 1.26-1.88 2.16-1.47 2 .42-.15 1.57-.33 2.56-.39 1.58-.1 2.25-.44 5.25-2.73 6.32-4.79 11.3-7.7 15.33-8.93l2.13-.66-1.2-.9c-2.58-1.97-5.4-2.72-7.82-2.08m-277.87 1.53-12.61.1-2.32 3.65-4.55 7.17c-1.23 1.93-2.18 3.58-2.1 3.66.08.08 10.14.1 22.36.04l22.2-.1-2.4-3.37-5.17-7.31-2.79-3.94-12.62.1m123.16 7.52-4.6 7 11.81.1c6.5.06 17.13.06 23.63 0l11.82-.1-1.4-1.74c-.79-.97-3.28-4.13-5.55-7.03l-4.12-5.28-13.5.02-13.5.02-4.6 7m-254.29-4.97c-.7.3-1.66.55-2.15.55-1.25 0-1.12.49.44 1.68 2.9 2.21 7.1 3 9.54 1.79 4.25-2.12-3.29-5.99-7.83-4.02m388.45.13c-2.33 1.28-3.34 2.62-2.45 3.27 2.68 1.96 8.2 1.25 10.94-1.4l1.27-1.23-1.79-.51c-3.1-.9-6.47-.95-7.97-.13m-413.05 1.69c-3.57 3.56 1.45 15.1 12.71 29.24 3.27 4.12 3.61 4.38 2.28 1.74a259 259 0 0 1-5.06-10.74c0-.1-.32-.89-.71-1.75-3.47-7.7-5.07-15.11-3.8-17.5.85-1.58-3.96-2.46-5.42-.99m439.6-.28c-1.37.57-1.38.6-.8 1.5 1.85 2.8-1.35 13.17-8.47 27.5-1.06 2.12-1.86 3.92-1.79 4 .34.33 6.74-8.16 10.5-13.93 8.3-12.74 8.58-22.4.56-19.07m-383.37 1.62c1.81 3.5 7.8 6.36 11.35 5.4 3.29-.88-2.36-5.57-7.18-5.97-1.26-.11-2.83-.26-3.5-.34l-1.22-.15.55 1.06m328.32-.73c-4.71.39-8.62 2.79-8.62 5.29 0 2.2 6.67.9 9.88-1.92 1.63-1.44 3.09-3.87 2.21-3.7-.15.04-1.71.18-3.47.33m9.84.98c-.2.39-.28.93-.18 1.21.1.28-.26.92-.8 1.42-1.88 1.74-1.18 8.38 1.06 10.25 1.79 1.48 4.11-4 3.09-7.25-1.13-3.58-2.75-6.45-3.17-5.63m-345.46.23c0 .3-.52 1.57-1.14 2.82-1.99 3.98-1.3 9.68 1.2 10.14 2.32.43 4.02-8.74 1.93-10.35a2.9 2.9 0 0 1-.94-1.73c-.12-1.1-1.05-1.88-1.05-.88m129.45 4.05c1.7 2.48 3.24 4.5 3.4 4.5.14-.01 7.11-.02 15.47-.02h15.2l-2.12-2.53-3.78-4.5-1.67-1.97h-29.62l3.12 4.52m29.92-4.3c0 .17 2.45 3.13 6.38 7.7l.93 1.1 16.04-.1 16.04-.1-4.16-4.41-4.17-4.4h-15.53c-8.54 0-15.53.09-15.53.2m36.01 1.58c.92.98 2.85 3 4.3 4.5l2.61 2.71h21.38l-4.48-4.5-4.5-4.5h-20.98l1.67 1.79m-166.77 1.43c-3.04 3.12-3.71 4.69-3.3 7.7.87 6.33 7.26-.34 6.87-7.18-.2-3.68-.46-3.72-3.57-.52m285.63-.94c-1.23 5.14 4.35 14.26 6.4 10.45 1.6-3 .4-6.48-3.52-10.2-2.72-2.57-2.33-2.54-2.88-.25m-242.22 2.85c1.33.96 3.06 2.25 3.86 2.86a8.7 8.7 0 0 0 5.05 1.75c1.18.02.78-.47-1.73-2.13a95.36 95.36 0 0 1-4.01-2.82c-1.58-1.18-2.18-1.4-3.73-1.4l-1.85-.01 2.41 1.75m-89.65-.8c-.93.3-2.06.54-2.53.54-1.06.01-1.06.16.1 1.68 1.77 2.31 7.05 3.62 10.04 2.49 5.1-1.95-2.14-6.43-7.6-4.7m83.1 2.9a57.6 57.6 0 0 0-2.19 3.94c-.06.21 1.18 1.37 2.75 2.57 1.57 1.2 3.73 2.9 4.81 3.79 2.53 2.05 2.2 2.23 4.43-2.54l1.92-4.13-2.13-1.55a250.73 250.73 0 0 1-6.88-5.1c-.55-.46-.84-.14-2.7 3.03m292.44-2.79c-4.72 2.18-4.02 4.92 1.27 4.92 3.27 0 9.2-2.97 8.11-4.06-1.25-1.25-7.32-1.8-9.38-.86m-313.83 5.4a89.67 89.67 0 0 1-1.22 6.27c-1.14 4.37-.88 15.5.4 16.78.64.64 3.23-1.36 3.04-2.34-.43-2.23-.65-10.9-.3-12.19.33-1.25.36-1.19.6 1.31.24 2.3 1.09 7.78 1.6 10.22.28 1.4.71.97 1.85-1.87 2.36-5.88 1.47-12.21-2.66-18.9-2.55-4.1-2.53-4.11-3.31.73m256.77-3.42c-5.23 5.7-7.14 14.94-4.47 21.6.6 1.48 1.22 2.7 1.38 2.7.36 0 .8-2.42 2.07-11.43l.26-1.88.35 1.5c.33 1.41.15 7.91-.32 11.26-.2 1.4 1.4 2.8 2.85 2.51.4-.08 1.13-3.84 1.35-7.02.24-3.27.1-4.41-1.41-12.37-.2-1.03-.56-3.2-.81-4.8l-.45-2.93-.8.86m-290.35 2.6c2.37 4.42 10.8 8.04 13.18 5.66.49-.5-1.04-2.94-2.73-4.36-1.9-1.6-11.23-2.76-10.45-1.3m320.23-.5c-4.77.4-10.31 5.31-7.3 6.46 3.71 1.41 12.55-3.17 12.55-6.49 0-.2-2.64-.19-5.25.03m-297.82 3.74c-3.6 3.67-4.61 6.66-3.2 9.46 1.77 3.5 6.4-2.25 6.42-7.96.01-4.42-.24-4.54-3.22-1.5m277.36-.44c-.53 4.24.87 8.21 3.56 10.08 1.8 1.25 2.2 1.2 2.85-.35 1.3-3.08.28-5.97-3.35-9.5-2.88-2.82-2.74-2.8-3.06-.23m-332.75-.69c.17.48 6.84 6.45 7.02 6.28.5-.49-4.58-6.19-5.52-6.19-.2 0-.65-.1-1-.24-.39-.15-.59-.09-.5.15m389.72.1c-1.46.58-5.76 5.54-5.76 6.63 0 .16.97-.65 2.15-1.8 1.19-1.13 2.96-2.77 3.93-3.64 1.73-1.53 1.6-1.98-.32-1.2m-378.04.27c-1.03.2-1.17 2.14-.3 3.83.89 1.72 2.07 1.86 2.08.25.02-2.2 1.58-2.03 2.07.22.29 1.3 1.93 1.35 3.78.13 2.78-1.82-3.2-5.28-7.63-4.43m87.68 3.5a37.4 37.4 0 0 0-1.9 4.13c0 .22 39.53.36 103.88.36H559.6l-.6-1.04c-.63-1.1-2.55-3.98-4-5.99l-.86-1.2-99.26-.01-99.25-.01-1.9 3.77m275.04-2.96c-3.31 1.71-3.89 2.9-1.97 4.06 1.77 1.08 3.28 1 3.28-.16 0-.9.86-2.09 1.52-2.09.19 0 .45.66.58 1.45.4 2.57 2.1 1.32 2.59-1.9.23-1.56.18-1.71-.63-1.93a8.15 8.15 0 0 0-5.37.57m-367.32.7c-.48.32-.43.48.32 1.12 1.21 1.01 1.63.93 1.49-.29-.13-1.1-.9-1.46-1.8-.84m375.62-.13c-.36.36-.31 2 .06 2 .36 0 1.94-1.62 1.94-2 0-.32-1.67-.33-2 0m21.85 1.25c-3.94.67-12.07 7.15-10.7 8.53.21.2 3.08-1.62 5.01-3.2.89-.72 1.7-1.23 1.8-1.12.5.5-5.23 5.37-8.09 6.86-.72.37-1.1.75-.84.83.26.1 1.02-.17 1.69-.57.67-.4 1.83-.85 2.57-.98.91-.16 1.95-.82 3.19-2.02 2.22-2.16 7.82-8.72 7.39-8.66l-2.02.33m-419.6.35c0 .2.3.58.66.85.37.27 1.42 1.41 2.33 2.55 3.89 4.82 6.13 6.75 7.85 6.75.42 0 1.32.34 2 .75 1.45.89 2.06.97 1.4.19-.25-.31-.62-.57-.8-.57-.93 0-7.82-5.7-7.82-6.47 0-.17.78.24 1.73.93 5.06 3.6 5.72 3.89 4.56 1.91-2.44-4.13-11.91-9.6-11.91-6.89m407.44 2.3-2.18.51c-2.5.57-6.07 5.43-4.87 6.63 1.1 1.1 7.6-3.67 7.6-5.58 0-.37.2-.88.45-1.13.62-.62.3-.76-1-.44m-394.08 1.39c1.3 3.17 6.88 7.24 7.83 5.71 1.01-1.63-2.86-6.07-5.86-6.71-2.61-.57-2.61-.57-1.97 1m39.1.98c2.42 3.52 7.91 6.35 7.91 4.07 0-1.12.87-2.03 1.65-1.73.55.21.65.54.5 1.7-.18 1.3-.12 1.45.63 1.45 2.61 0 2.42-1.98-.45-4.57-1.67-1.51-3.48-2.02-8.24-2.33l-3.1-.2 1.1 1.6m311.24-1.2c-4.61.67-9.2 4.98-6.73 6.31 1.4.75 1.85.48 1.97-1.2.16-2.19 1.44-2.31 1.97-.2.4 1.67.38 1.66 2.92.54 1.83-.8 5.92-4.62 5.92-5.51 0-.37-3.38-.34-6.05.06m-289.43 3.88c-2.54 2.74-4.31 5.82-3.5 6.1.16.05 1.27.58 2.47 1.18l2.17 1.09 1.01-1.56c.88-1.36 1.02-2 1.14-5.18.19-5.13.02-5.2-3.29-1.63m269.7-2.67c-1.14 1.85.64 10.74 2.16 10.74 1.04 0 4.5-2.1 4.5-2.72 0-1.78-6.02-9.04-6.65-8.02m-318.6 2.4c-1.18 2.62-1.23 3.35-.37 5.14 1.35 2.84 3.58-.49 2.77-4.13-.77-3.42-1.23-3.61-2.4-1m368.8-.67c-1.8 3.85.3 9.33 2.17 5.66 1-1.96.98-2.42-.31-5.1l-1.08-2.25-.79 1.69m-363.97 4.76c-1.99 4.06-.44 9.4 1.85 6.33 1.08-1.45 1.08-5.54-.02-7.26l-.77-1.23-1.06 2.16m359.2-1.12c-1.03 1.5-1.02 6.44 0 7.57 2.66 2.94 3.8-3.5 1.34-7.57l-.64-1.04-.7 1.04m-335.4.46c0 .65 3.32 4.79 4.74 5.92 3.48 2.76 7.76 4.34 11.27 4.16l2.18-.12-1.69-1a133.6 133.6 0 0 0-4.8-2.61c-1.72-.9-2.96-1.67-2.77-1.74.76-.25 7.06 2.38 10.2 4.27l3.35 2.02 1.14-.7 1.14-.68-2.16-1.51c-4.18-2.92-8.4-4.61-15.29-6.13a51.5 51.5 0 0 1-5.53-1.5c-.98-.38-1.78-.55-1.78-.38m311.25.38a46.6 46.6 0 0 1-5.44 1.5c-6.31 1.38-11.69 3.57-15.32 6.25l-1.82 1.34 1.16.7 1.17.72 2.53-1.64c3.47-2.23 10.3-5.13 10.84-4.6.11.1-.5.53-1.34.94-.85.41-3 1.56-4.78 2.56l-3.23 1.81 2.28.11c5.27.26 11.53-3.2 15.04-8.32 1.66-2.4 1.62-2.45-1.09-1.37m-318.53 1.05c.57 3.22 3.29 6.68 6.42 8.17 4.18 1.98 2.07-5.44-2.14-7.54a63.98 63.98 0 0 0-3.11-1.44l-1.42-.6.25 1.4m325.41-.39c-3.12 1.08-6.13 4.77-6.13 7.53 0 3.98 6.9-1.11 8.39-6.2.66-2.25.57-2.3-2.26-1.33M256.11 379c-2.24.49-2.23.77.08 1.94 3.02 1.53 7.86 1.03 6.45-.67-1.3-1.57-3.34-1.96-6.53-1.27m382.44.36c-3.62 2.06 1.16 3.66 5.03 1.68 2.24-1.14 2.23-1.57-.02-2.09-2.64-.61-3.32-.55-5.01.4m-363.92 3.98c-1.32 2.86-1.45 4.24-.58 6.4 2 5 5.06-1.35 3.13-6.51-1.05-2.82-1.2-2.81-2.55.11m348.98-1.8c-1.67 2.66-1.82 6.81-.32 8.92 2.72 3.82 4.43-2.84 1.97-7.7l-1.07-2.13-.58.92m-199.52.63c-.89 1.55-.63 3.24 1 6.59a19.72 19.72 0 0 1 2.12 6.62c.8 5.6 1.61 5.84 1.8.54.22-6.4-3.38-16.47-4.92-13.75m19.04.56c-.61 2.35-3.19 2.63-5.07.57l-1.08-1.18-.58 1.37c-.73 1.75-.72 2.68.02 3.3 1.4 1.16 3.53 6.86 3.54 9.49.01 3.2 1.21 4.54 1.7 1.9.28-1.43 0-7.2-.41-8.89-.2-.78-.12-1.03.3-1.03.31 0 .78-.26 1.04-.58.34-.4.6-.46.87-.19 1.32 1.31 4.37-.4 4.96-2.78.57-2.25-.54-3.54-1.46-1.7-.68 1.36-1.6 1.37-2.3.02-.7-1.36-1.23-1.46-1.53-.3m14.5.06c-3.97 2.93-4.82 6.05-2.1 7.73 1.34.83 1.34.83.62 1.63a11.7 11.7 0 0 0-2.1 3.87c-.3.97 1.99 2.48 4.4 2.9.79.14 1.66.35 1.95.46.34.13.72-.3 1.1-1.2.76-1.82.73-2.42-.13-2.42-.94 0-4.54-1.17-4.54-1.48 0-.13.84-1.24 1.87-2.46a14.66 14.66 0 0 0 1.88-2.52c0-.16-.84-.82-1.88-1.45-2.2-1.35-2.17-1.3-.82-1.99 1.43-.74 2.45-3.98 1.25-3.98-.15 0-.83.41-1.5.91m13.43 3.13c-1.02 4.27-2.22 7.1-3.54 8.34-1.15 1.07-1.43 4.87-.36 4.87 1.35 0 3.86-4.52 4.64-8.35.29-1.4.89-1.43 1.3-.06 1.35 4.46 4.32 8.94 5.46 8.24 1.04-.64.44-4.32-.9-5.56-1.76-1.63-3.62-5.8-4.5-10.11-.43-2.07-1.2-1.1-2.1 2.63m-140.43-2.18c-4.48.7-8.33 2.51-18.36 8.63-23.77 14.5-41.6 19.28-48.51 13l-.88-.8.57 1.39c1.56 3.77 15.37 18.08 19.38 20.08 6.2 3.1 14.61.85 31.31-8.4 1.65-.91 3.26-1.82 3.57-2.01.3-.2 2.58-1.56 5.06-3.03 2.47-1.47 7.02-4.37 10.11-6.44 16.68-11.17 25.96-11.68 33.47-1.83 1.41 1.85 1.57 1.38.57-1.78-1.16-3.71-3.85-5.95-12.09-10.07-3.82-1.9-8.2-4.22-9.75-5.15-6-3.6-9.27-4.41-14.45-3.6m232.14-.1c-1.63.24-3.07.86-5.73 2.47-3.37 2.04-5.86 3.38-12.65 6.77-8.06 4.03-9.81 5.53-11.2 9.54-1.24 3.56-1.14 3.58 2.1.33 8.23-8.2 15.9-7.41 31.73 3.26a235.6 235.6 0 0 0 26.5 15.55c16.03 8 21.72 7.85 30.04-.75 2.04-2.1 5.33-5.44 7.32-7.4 5.32-5.27 7.68-9.32 4.15-7.15-4.62 2.84-11.56 2.5-21.45-1.07-6.2-2.23-18.07-8.15-25.69-12.8-12.8-7.83-18.4-9.77-25.12-8.76m-303.18 1.25-2.04.66 2.04 1.17c3.74 2.13 9.7 1.72 7.83-.55-1.59-1.9-4.43-2.37-7.83-1.28m374.74.04c-2.63 1.3-2.43 2.6.48 3.15 1.61.3 4.87-.6 6.32-1.73l1.04-.82-1.64-.67a7.34 7.34 0 0 0-6.2.07m-336.13 1.31c-.56 1.47-.44 4.02.23 4.99l.61.86 1.13-1.06c.94-.88 2.16-2.95 2.16-3.66 0-.22-3.14-2.1-3.51-2.1-.14 0-.42.44-.62.97m301.03-.1c-1.59.93-1.63 1.63-.23 3.9 1.54 2.49 3.33 1.82 3.33-1.24 0-3.4-.74-4.04-3.1-2.66m-317.9.4c0 .3-.43 1.38-.97 2.4-1.68 3.25-1.58 6.32.26 8.3 2.35 2.52 4.35-4.7 2.43-8.82-.92-1.98-1.72-2.86-1.72-1.89m335.8 1.54c-1.4 2.87-1.26 6.53.34 8.62l1.07 1.4.85-.81c2.21-2.08 1.59-8.48-1.1-11.16-.07-.07-.59.8-1.15 1.95m-313.4 1.74c-2.86 3.92-2.43 6.2.84 4.41l2.25-1.24v-2.35c0-1.3-.16-2.35-.35-2.35-.18 0-.56-.08-.84-.18-.3-.11-1.08.6-1.9 1.71m290.08-1.61c-.54.34-1.01 3.85-.6 4.43.88 1.25 4.54 2.82 4.79 2.06.38-1.22-.45-3.53-1.9-5.21-1.4-1.65-1.56-1.74-2.29-1.28m13.8 1.2c-5.55 1.33-4.22 4.65 1.42 3.52.96-.2 3.75-3 3.32-3.35-.37-.3-3.71-.41-4.74-.17m-319.92.19c0 2.24 4.58 4.47 7.32 3.56 1.63-.53 1.63-.67-.02-2.26-1.27-1.23-7.3-2.3-7.3-1.3m-22.68 1.12a9 9 0 0 1-2.18.56c-1.02.01-.43.64 1.74 1.89 2.73 1.57 9.32 1.51 8.79-.08-.74-2.2-5.33-3.5-8.35-2.37m363.45.56c-2.92 1.85-2.1 3 2.12 3 2.76 0 3.99-.36 5.84-1.77l1.28-.99-1.84-.65c-2.96-1.04-5.32-.9-7.4.41m-17.16 3.67c-1.42 2.94-1.48 6.35-.12 6.84.6.21 1.47.6 1.96.84 2.2 1.12 2.53-2.97.59-7.1-1.32-2.82-1.36-2.83-2.43-.58m-325 .93c-1.6 3.3-1.88 7.03-.54 7.04 3.88.03 5.07-3.01 3.02-7.77-.9-2.12-1.15-2.04-2.49.73m226.46-.21c-.9.86-3.25 2.71-5.24 4.11-8.71 6.11-15.21 15.1-16.34 22.56l-.24 1.62 2.3-2.47a36.95 36.95 0 0 0 4.18-5.73c2.72-4.74 8.44-11.35 9.82-11.35.12 0-.93 1.57-2.33 3.47-2.82 3.84-5.4 7.85-5.18 8.06.33.33 6.18-2.94 7.78-4.36 3.31-2.93 5.63-7.63 6.55-13.3.7-4.36.64-4.48-1.3-2.61m-258.43-.62c.51.4 1.1.87 1.32 1.02l2.17 1.73c2.05 1.65 2.03 1.65 2.32-.34.26-1.77-2.01-3.18-5.1-3.16l-1.65.01.94.74m131.25 0c0 8.4 4.8 16.37 11.93 19.79l3.02 1.45-.7-1.36a73.93 73.93 0 0 0-3.7-5.58c-3.81-5.31-3.68-5.1-2.76-4.6 1.65.88 6.74 6.84 8.53 10 1.03 1.8 2.8 4.3 3.96 5.56a42.25 42.25 0 0 1 2.73 3.23l.63.94-.22-1.31c-1.44-8.57-6.42-15.81-15.55-22.6a109.7 109.7 0 0 1-6.47-5.1c-1.37-1.3-1.4-1.31-1.4-.41m256.53-.24a3 3 0 0 1-1.36.75c-.95.24-1.2 1.45-.61 2.92.22.54 4.22-1.99 6.4-4.05.1-.08-.77-.15-1.91-.15-1.33 0-2.24.19-2.52.53m-350.52 1.81c.13.47.23 1.2.23 1.63.01 1.5 1.46 1.67 3.94.47 2.97-1.43 3.08-1.6 1.57-2.32-2.14-1.02-6.03-.86-5.74.22m311.02-.25c-1.36.74-1.37.73 1.21 2.03 3.39 1.71 4.2 1.5 4.62-1.21l.22-1.41-2.5.02c-1.5 0-2.94.24-3.55.57m-340.68.95c.48 2.9.74 3.16 2.9 3.01l1.95-.13-1.34-1.37c-.74-.76-1.88-1.7-2.54-2.08l-1.19-.7.22 1.27m373.46.93-2.12 2.09 1.3-.17c.73-.1 1.6-.03 1.94.15.52.27.74 0 1.22-1.42 1.17-3.44.64-3.58-2.34-.65m-365.78-1.06c-2.55.65-2.57.72-.68 2.06 4.18 2.96 12.98 2.32 9.59-.69-2.35-2.09-4.72-2.45-8.9-1.37m353.7.07c-3.16 1.67-3.21 2.97-.14 3.74 2.62.66 7.2-.64 8.91-2.54 1.33-1.47-6.28-2.52-8.76-1.2m-279.51 5c-2.06 1.5 4.77 8.14 8.37 8.14 3.13 0-.47-6.32-4.57-8.04-1.7-.7-2.93-.74-3.8-.1m207.67.62c-3.79 2.17-6.48 7.52-3.78 7.52 3.68 0 10.72-6.61 8.65-8.13-1.08-.78-2.82-.57-4.87.6m-284.97.37c2.3 1.14 3.4 1.43 3.01.82-.11-.2-1.1-.64-2.17-1-3.12-1.02-3.24-1-.84.18m366.48-.4c-1.94.69-3.51 1.88-1.8 1.37 1.5-.46 4.13-1.64 4.13-1.85 0-.3-.35-.22-2.33.48m-261.67.34c0 .21.4 1.46.91 2.77 3.35 8.79 9.71 15 19.2 18.76 8.05 3.19 9.08 3.98 15.34 11.8 6.66 8.33 18.34 20.4 13.01 13.46a269.49 269.49 0 0 1-9.2-12.62c-5.22-7.56-10.54-12.28-17.14-15.17-3.82-1.68-7.93-4.1-9.86-5.79-2.1-1.84-2.33-2.65-.39-1.33 1.31.9 3.93 2 9.7 4.13 6.54 2.4 11.61 6.17 16.2 12.03l1.18 1.5-.38-1.5c-2.1-8.16-8.64-13.6-20.95-17.39-7.35-2.26-10-3.7-14.15-7.7-1.9-1.83-3.47-3.16-3.47-2.95m154.12 2.72c-3.27 3.35-6.72 5.41-11.56 6.94-9.34 2.95-12.49 4.33-16.1 7.05-3.37 2.55-6.8 7.73-7.75 11.7-.3 1.3-.39 1.37 2.72-2.5 2.4-2.98 5.82-5.93 8.7-7.5 1.54-.84 3.07-1.46 10.68-4.35a31.33 31.33 0 0 0 3.94-1.78l1.85-1.12c.3-.18.18.19-.28.84-1.13 1.58-5.5 4.4-9.9 6.38-8.02 3.6-12.56 7.38-17.45 14.53-.85 1.24-2.4 3.43-3.44 4.88-1.05 1.44-2.61 3.63-3.48 4.87a82.8 82.8 0 0 1-3.37 4.43c-3.1 3.73-1.98 2.9 3.17-2.37 4.28-4.36 6.75-7.26 13.67-16 1.7-2.15 6.17-5.06 9.93-6.46 11.2-4.18 19.12-11.92 21.6-21.13.5-1.85.37-1.77-2.93 1.6m-249.56-2.06c-.82.3-1.82.54-2.21.55-.7 0-.7.03-.04.76.8.88 1.78.93 4.64.22 1.16-.29 2.62-.64 3.24-.78 1.07-.25 1.09-.28.4-.79-.94-.68-4.08-.66-6.03.04m342.47-.31c-1.77.46-.86.9 3.73 1.82 3.37.68 3.47.68 4.23 0 1.35-1.23-4.84-2.64-7.96-1.82m-260.59 2.7c-1.63 4.08-1.42 6.97.63 8.67 1.75 1.45 3.24-5.22 1.88-8.46-1.22-2.93-1.42-2.95-2.5-.22m182.35-.53c-1.58 3.16-.86 9.2 1.09 9.2 2 0 2.71-4.92 1.2-8.45-1.22-2.87-1.23-2.87-2.3-.75m-175.99 5.74c-1.68 4.23-1.45 7.36.69 9.13 2.4 2 3.74-5.25 1.79-9.7-1.1-2.52-1.26-2.48-2.48.57m169.84-1.76c-1.82 2.84-2.15 6.78-.78 9.45 2.22 4.33 5.03-1.9 3.14-6.95-1.17-3.14-1.63-3.62-2.36-2.5m-95.33.87c-2 .49-3.36 1.24-5.35 2.93-1.07.9-1.56 1.05-3.57 1.05-19.26 0-23.32 13.98-9.38 32.37 4.4 5.81 5.98 7.63 6.31 7.3.15-.14-.48-1.15-1.4-2.25-9.13-10.92-10.09-18.7-2.74-22.18 2.5-1.18 8.37-1.44 10.28-.45 1 .52 1.11.5 2.14-.6 2.75-2.88 9.72-4.23 13.56-2.61 1.03.43 1.4.43 2.43 0 3.8-1.6 10.68-.39 14.12 2.5 1.1.92 1.28.96 2.35.52 3.95-1.63 10.92-.03 13.65 3.14l1.35 1.57-.13 3.19c-.15 3.93-1.61 7.15-5.77 12.7-4.48 5.99-2.95 5.12 1.87-1.06 15.36-19.7 12.03-34.14-7.88-34.14-2.18 0-2.78-.14-3.33-.75-3.23-3.56-9.32-4.6-15.25-2.6-2.15.72-2.43.73-3.67.21a15.22 15.22 0 0 0-9.59-.84m-112.7 3.05c-1.3 1.59-.24 6.26 1.74 7.55 1.33.87 1.72.2 1.55-2.68-.18-3.31-2.15-6.23-3.28-4.87m246.67.09c-1.61 1.84-2.55 7.08-1.39 7.8 1.14.7 3.35-2.79 3.35-5.28 0-2.76-.82-3.82-1.96-2.52m-224.67.54-1.07.39 1.62 1.64a5.6 5.6 0 0 0 6.72 1.07c3.5-1.8-3.1-4.62-7.27-3.1m197.29.48c-1.7 1.17-1.78 1.86-.3 2.62 2.27 1.17 5.84.6 8.77-1.42l1.07-.74-1.44-.56c-2.7-1.07-6.48-1.01-8.1.1m-213 1.9c-.2 4.86.62 7.45 2.63 8.22 2.77 1.06 1.83-5.91-1.18-8.78l-1.36-1.3-.08 1.86m234.03-.67c-2.3 2.53-3.31 5.55-2.58 7.75.56 1.72 1.1 1.69 2.77-.16l1.36-1.5v-3.56c0-3.87-.13-4.09-1.55-2.53m-194.95-.05c0 .34-.33 1.15-.74 1.8-2.16 3.5-2.05 8.09.25 10.57 2.88 3.11 4.81-5.7 2.33-10.67-1.13-2.26-1.84-2.92-1.84-1.7m155.61 1.66c-2.27 4.5-.91 12.7 1.83 10.99 2.32-1.45 2.91-5.62 1.33-9.32a28.2 28.2 0 0 1-1.16-3.1c-.31-1.33-.77-1-2 1.43m-208.05.03c-2.21 1.3-2.12 1.63.56 2.04 2.96.45 3.88-.45 2.28-2.25l-.84-.96-2 1.17m259.1.04c-1.26 2 .42 2.7 3.9 1.65l1.5-.45-2.1-1.2c-2.57-1.48-2.34-1.48-3.3 0m-19.23 2.8c-2.72 2.79-3.84 7.53-2.24 9.5l.68.85 1.55-1.4c2.07-1.87 2.63-4.17 1.9-7.83l-.5-2.55-1.4 1.43m-219.25.65c-.9 3.6-.33 6.16 1.85 8.28l1.53 1.5.72-.9c1.5-1.83.52-6.27-2.06-9.33-1.34-1.58-1.54-1.54-2.04.45m15.05-.44-1.22.46 2.41 2.16c2.66 2.38 3.04 2.47 5.4 1.4 3.93-1.78-2.36-5.62-6.59-4.02m184.92.6c-2.98 1.75-2.8 2.8.66 3.82 3.94 1.17 9.77-2.58 6.42-4.12a7.82 7.82 0 0 0-7.08.3m-161.26 1.26a65.8 65.8 0 0 1-1.4 3.48c-1.55 3.61-.93 7.95 1.42 9.9 2.8 2.33 4.68-6.42 2.41-11.22-1.58-3.33-1.91-3.63-2.43-2.16m142.03.42c-2.97 4.8-2.05 14.5 1.25 13.24 2.8-1.07 3.42-6.41 1.32-11.4-1.47-3.51-1.52-3.55-2.57-1.84m-198.38-.43c-1.88.52-4.76 2.58-4.11 2.93 2.7 1.43 8.96.09 8.96-1.92 0-.82-3.18-1.48-4.85-1.01m253.1.08c-3.17 1.15-.54 3.35 4 3.35 3.3 0 4.18-.53 2.74-1.64-2.32-1.8-4.8-2.42-6.75-1.71m-23.49 1.42c-3.74 3.88-4.84 12.72-1.35 10.85 2.8-1.5 3.73-4.1 3.24-9.1l-.33-3.37-1.56 1.62m-204.8 1.75c-.26 1.63-.4 3.19-.3 3.47.08.28.26 1 .39 1.57.26 1.19 3.03 4.38 3.8 4.38 2.65 0 1.37-7.77-1.84-11.15-1.54-1.63-1.52-1.65-2.05 1.73m-18.67 1.3c-1.3.5-4.66 2.58-4.66 2.9-.01 1.88 8.4 1.12 10.1-.92 1.27-1.54-2.76-3.01-5.44-1.98m239.86.02c-4.62 1.67 2.53 5.04 7.53 3.55 1.86-.56 1.84-.68-.52-2.1-3.44-2.07-4.62-2.31-7-1.45m-207.03.55c0 .18 1.28 1.39 2.84 2.67l2.83 2.35 1.46-.65c2.34-1.06 2.18-1.7-1-3.88-1.22-.83-6.13-1.22-6.13-.49m171.93.67c-1.55 1.02-2.43 1.92-2.43 2.48 0 .62 3.5 1.87 5.25 1.87 2.6 0 3.07-.28 4.38-2.56l1.2-2.06-.94-.36c-2-.76-5.85-.44-7.46.63m10.55.73c-3.07 2.98-4.5 8.8-2.62 10.68l.79.8 1.38-1.22c2.4-2.1 3.06-5.25 2.17-10.23l-.26-1.45-1.46 1.42m-188.44 1.53-.1 2.72c-.26 2.45.13 3.53 1.94 5.4l1.88 1.94.75-.88c1.64-1.96.65-7.02-1.94-9.97-2.07-2.35-2.43-2.24-2.53.8m-95.66-.1c7.99 5.94 17.43 8.86 26.62 8.25 4.62-.3 15.9-.27 16.96.06.58.18.56.02-.14-1.6-.94-2.17-2.08-3.5-3-3.5-.37 0-1.59-.34-2.71-.76-6.84-2.56-12.94-3.36-24.8-3.26-5.7.05-9.45-.09-11.06-.4l-3.56-.68c-.94-.17-.65.15 1.69 1.88m380.43-1.38c-2.2.42-5.37.56-12 .53-10.13-.04-15.4.49-20.44 2.04-1.75.54-4.11 1.23-5.25 1.54-2.54.7-3.08 1.17-4.04 3.48l-.76 1.82 8.87.07c14.38.12 15.11.1 18.25-.51 5.46-1.06 10.4-3.2 15.8-6.83 4.54-3.05 4.53-3.08-.43-2.14m-126.15 1.51c-2.85 4.36-2.95 10.66-.21 13.23 2.63 2.48 5.08-5.73 2.93-9.86-.34-.67-.9-2-1.24-2.95l-.61-1.74-.87 1.32m-128.3.32c-.26.8-.8 2.1-1.21 2.88-2.27 4.37.14 12.62 2.93 10 2.7-2.53 2.4-9.64-.54-13.44l-.7-.9-.47 1.46m210.6.36c-4.3 4.3-5.46 17.79-1.8 20.7 1.63 1.28 2.52-.2 1.5-2.45-.68-1.49-.81-2.5-.83-6.27l-.02-4.5 1.6-3.2c1.72-3.49 1.9-4.29.99-4.64-.8-.3-.77-.3-1.45.36m-293.34.4c-.13.34 0 .97.27 1.4 3.42 5.32 4.2 12.26 1.92 17.03-.53 1.11-.53 1.28.01 1.82 3.1 3.1 5.36-9.52 2.78-15.56-2.04-4.78-4.18-6.79-4.98-4.69m31.57.35a25.2 25.2 0 0 0-3.15 1.85l-1.27.93 1.46.64c3.08 1.35 8.55.32 10.1-1.88 1.48-2.13-3.67-3.24-7.14-1.54m27.19-.21c.22.41.58.75.82.75.23 0 .11-.34-.26-.75a3.5 3.5 0 0 0-.82-.75c-.08 0 .03.34.26.75m198.88-.2c-4.8 2.08 3.82 5.8 8.77 3.77l1.59-.65-1.22-.9c-3.36-2.48-6.7-3.3-9.14-2.23m-250.87.77c-.13.34.21 1.43.8 2.5 2.13 3.93 2.65 8.87 1.32 12.69-.6 1.74-.64 2.14-.2 2.58 2.33 2.37 4.18-7.23 2.39-12.4-1.54-4.44-3.66-7.08-4.31-5.37m280.29.1c-4.05 4.7-4.69 17.9-.86 17.9.9 0 .9-.7 0-4.5-.83-3.5-.34-6.82 1.56-10.62 1.14-2.27 1.29-2.81.85-3.09-.75-.47-.9-.44-1.55.3m-273.3 2.33c-.66.44-.69 4.73-.03 5.39.54.54 2-.87 2.86-2.78.9-2-1.04-3.77-2.83-2.6m265.48.32c-1.08.87-.82 2.14.83 4.01 1.33 1.52 1.52 1.44 2.18-1.03.8-2.95-.93-4.66-3-2.98m-212.04.02c1.13 1.04 5.88 4.17 6.34 4.17 1.67 0 .87-1.74-1.54-3.33-1.64-1.1-5.87-1.83-4.8-.84m157.3-.06c-1.04.38-3.75 2.78-3.75 3.3 0 2.04 6.5 2.9 10.12 1.36 3.45-1.48 5.6-3.43 3.77-3.43-.4 0-1.6-.34-2.64-.75-1.84-.72-6.1-1-7.5-.48m-161.82.7c-.61.28-1.5.5-1.96.51-3.72.08 4.3 4.52 8.16 4.52 1.95 0 1.87-.3-.48-1.87a38.47 38.47 0 0 1-3.27-2.48c-1.23-1.09-1.4-1.13-2.45-.67m-23.62.83c-.83.4-2.13 1.23-2.9 1.85l-1.41 1.13 2.67.6c4.88 1.1 8.01.44 9.31-1.98.94-1.77-4.81-2.97-7.67-1.6m211.08-.28c-2.47.72-2.48 1.6-.05 3.37 1.8 1.3 3.63 1.42 7.72.5l2.66-.6-1.04-.87c-2.96-2.5-6.14-3.31-9.3-2.4m-232.17 2.74-.4.89 4 .4c7.76.79 10.95.88 9.44.27a16.2 16.2 0 0 0-4.39-.55c-2.15-.02-3.17-.18-3.37-.53-.28-.47-3.15-1.38-4.35-1.38-.29 0-.7.4-.93.9m255.8-.39c-.85.24-1.8.65-2.1.9-.34.3-1.5.46-2.96.43-2.26-.04-5.58.57-5.58 1.03 0 .21 1.25.13 10-.66l4.94-.45-.57-.88c-.63-.96-1.36-1.03-3.73-.37m-274.9 3.81c-3.45 3.02-4.57 6.08-2.55 7 1.42.65 2.66-.07 2.97-1.71.13-.73.66-1.83 1.17-2.43.69-.82.92-1.54.92-2.82 0-2.13-.11-2.14-2.5-.04m48.53-1.25c-1.58.57-1.29.81 2.25 1.82l3.29.93-3.94.23c-2.17.13-4.7.26-5.6.28-2.06.06-1.69.52 1.07 1.33 3.43 1 7.23.24 9.46-1.9 2.16-2.07-2.72-4.08-6.53-2.7m194.54.14c-1.81.97-1.91 1.21-.92 2.28 2.19 2.37 6.68 3.15 10.48 1.83l2.06-.71-1.69-.27c-.93-.15-3.36-.28-5.4-.3-4.29-.03-4.33-.17-.4-1.3 2.55-.74 2.8-.89 2.23-1.36-.96-.8-5-.9-6.36-.17m52.17-.3c-.58.57-.19 2.85.7 4a11.5 11.5 0 0 1 1.44 2.7c1.12 3.24 4.64 2.29 3.66-.99-.7-2.32-4.98-6.54-5.8-5.72m-279.33 1.07c-.7.4-1.03.87-1.03 1.53v.95l2.53-.27c1.63-.18 2.68-.48 2.96-.87.38-.5.63-.53 1.72-.13 2.12.76 5.16.61 5.16-.26 0-.63-.38-.74-3.28-.94l-5.16-.4a5.1 5.1 0 0 0-2.9.4m131.42-.14c-.32.32-.45 2.44-.45 7.15v6.69l1.97-.11 1.97-.12.1-6.33c.09-5.5.02-6.43-.53-7.03-.71-.8-2.39-.93-3.06-.25m130.05-.22c-.52.06-2.42.22-4.22.35-2.32.17-3.28.38-3.28.73 0 1.01 3.26 1.3 5.52.48 1-.36 1.33-.36 1.56.01.26.42 3.73 1.2 5.39 1.2.96 0 .8-1.03-.34-2.08-.97-.9-1.84-1.03-4.63-.7m23.25.57c0 .13.26.46.58.73.92.76 1.72 2.55 2 4.43l.23 1.71 3 .9c6.2 1.87 12.68 1.22 19.31-1.94l3.19-1.52-3-.24c-2.63-.21-8.55-1.28-9.16-1.65-1.34-.83-16.15-3.05-16.15-2.42m-311.81.73a282.5 282.5 0 0 0-6.57 1.47c-5.83 1.4-8.65 1.88-10.94 1.88-2.87 0-2.57.51 1.27 2.14 6.72 2.83 12.24 3.34 18.32 1.67l3.22-.88.44-2.12c.24-1.16.86-2.75 1.39-3.52l.95-1.4-2.35.02c-1.3.02-3.88.35-5.73.74m41.43-.46c0 .6 1.3.87 2.3.47l.89-.36-1-.02a5.92 5.92 0 0 1-1.6-.25c-.32-.13-.59-.05-.59.16m40.6.77c-3.85 1.09-4.12 1.34-2.06 1.9.78.2 2.4.97 3.6 1.7 2.54 1.53 6.03 1.84 8.17.73l1.15-.6-.89-.62a62.56 62.56 0 0 0-2.76-1.77c-1.03-.63-2.3-1.4-2.8-1.73-.88-.55-1.19-.53-4.41.39m69.15-.4c-.56.63-.57 1.12-.06 6.1.3 2.97.55 5.7.56 6.06 0 .53.33.66 1.67.66h1.67l-.18-3.28c-.5-8.85-.57-9.47-1.3-9.85-1-.54-1.66-.45-2.36.31m14.8-.17c-.5.6-.71 2.35-.97 8.4l-.2 4.6h1.48c.8 0 1.55-.14 1.65-.3.54-.87 1.11-12.05.64-12.62-.6-.72-2.03-.77-2.6-.08m65-.28c-1.12.26-4.49 2.9-4.49 3.52 0 .83 2.41 2.25 3.81 2.25 1.22 0 8-3.77 8-4.45 0-.79-5.38-1.76-7.32-1.32m45.67.04c-.47.09-.76.32-.64.5.33.54 1.53.42 2.05-.2.5-.61.36-.65-1.41-.3m-103.5.79c-.28.18-.61 1.9-.84 4.4-.2 2.26-.46 4.82-.56 5.7l-.18 1.59h1.47c1.87 0 1.74.33 2.28-5.79.5-5.84-.01-7.27-2.17-5.9m-28.83.63c-.23.6.05 6.12.49 9.65l.22 1.78h3l-.26-3.84c-.52-7.61-.6-7.95-2-8.08-.86-.09-1.29.06-1.45.49m-5.34.84c-1.13.95-.53 7.67.8 8.95 1.58 1.53 2.66 1.57 2.41.1-.12-.7-.33-2.92-.47-4.94-.31-4.54-1-5.57-2.74-4.1m39.8-.2c-.21.26-.5 1.82-.63 3.47-.14 1.65-.35 3.72-.46 4.6-.27 1.95 1.5 2.41 2.62.69 2.14-3.26.68-11.53-1.54-8.76m-112.59 2.12c0 2.07 3.43 6.07 5.96 6.96 4.61 1.63 5.76-.15 2.36-3.67-2.28-2.38-8.32-4.76-8.32-3.29m10.39 1.1c1.73 4.15 3.9 6.1 7.36 6.6 3.04.45 3.44-.8 1.2-3.74-1.13-1.48-4.93-3.51-7.28-3.88l-1.83-.29.55 1.3m165.09-1.05c-6.15 1.04-11.97 8.48-5.98 7.64 2.28-.32 4.26-1.38 5.38-2.86 1.03-1.37 2.94-5.18 2.56-5.11l-1.96.33m8.23.14c-4.59 1.64-8.56 6.94-5.48 7.3 3.48.4 9.27-4.36 9.27-7.62 0-.37-2.43-.16-3.8.32m-201.54 1.2c1.3 3.11 3.15 4.65 6.29 5.23 1.7.32 2.12-.33 1.28-1.94-1.06-2.05-3.9-3.92-6.76-4.46l-1.4-.26.59 1.43m220.04-.52c-2.16.85-4.97 3.55-4.97 4.77 0 2.68 5.74.07 7.54-3.42 1.26-2.44.81-2.68-2.57-1.35m-227.7 1.32c.95 2.72 5.04 5.57 6.94 4.84 2.14-.82-2.2-4.99-5.92-5.68l-1.4-.26.38 1.1m143.14-.73c-.66.15-.94 1.21-.33 1.21.38 0 1.36-1.08 1.13-1.25-.08-.06-.44-.04-.8.04m92.59.26c-2.93 1.05-5.73 4.43-4.36 5.28.8.5 4.52-1.04 5.4-2.23 2.6-3.45 2.32-4.25-1.04-3.05m-218.14 1.28c2.18 4.29 9.82 6.7 8.1 2.57-1.08-2.58-3.34-4.02-6.28-4.02h-2.57l.75 1.45m77.13-.89c.12.31.45.56.74.56s.53-.25.53-.56c0-.3-.34-.56-.74-.56-.5 0-.67.18-.53.56m120.42.4c-1.39.93-2.9 3.3-2.9 4.51 0 .85 3.09.57 5.1-.47 1.3-.66 3.9-3.77 3.9-4.67 0-.82-4.69-.34-6.1.62m-157.32 2c-3.02 1.05-4.65 2.68-7.08 7.12-3.17 5.8-9.33 12.12-16.61 17.06l-3.17 2.15 2.42-.24c5.69-.58 17.74 2.12 30.17 6.77 5.99 2.25 11.06 4.06 14.06 5.04 28.44 9.31 62.93 8.3 89.06-2.61 16.16-6.75 25.27-9.33 34.31-9.71l5.06-.22-2.43-1.65c-6.63-4.5-12.66-10.73-15.46-15.96-4.53-8.46-10.22-10.32-20.92-6.84-15.61 5.07-41.77 8.5-56.62 7.44-16.94-1.22-26.14-2.86-37.5-6.69-7.57-2.55-11.47-2.97-15.3-1.65M322 453.26c-.62.24-1.88.85-2.81 1.35l-1.69.91 2.06.66c3.24 1.03 8.6.51 10.71-1.05 2.08-1.54-5.02-3.15-8.27-1.87m249.1.08c-3.3 1.05-1.34 2.59 4.3 3.38 1.9.27 7.36-.81 6.79-1.34-2.3-2.15-7.65-3.13-11.1-2.04m-237.03 2.88c-2.4.64-6.24 5.17-4.37 5.17 2.86 0 7.5-3.02 7.5-4.88 0-.85-.76-.92-3.13-.3m228.5.1c0 1.73 3.9 4.42 7.2 4.94l1.49.24-1.22-1.97c-1.7-2.77-7.47-5.25-7.47-3.21m-219.5.36c-3 .8-7.72 5.84-5.47 5.84 2.89 0 7.32-2.39 8.43-4.54.95-1.83.22-2.15-2.95-1.3m201.01-.3c-1.14 1.14 1.59 4.39 4.88 5.8 2.14.92 4.98 1.36 4.98.78 0-.55-1.99-3.45-3.06-4.45-1.5-1.4-6.1-2.84-6.8-2.13m9.64.28c-.58 1.5 2.86 4.4 6.32 5.33 3.65.97 3.67.9.8-3.17-1.24-1.75-6.65-3.4-7.12-2.16m-202.47.6c-2.06 1-5.43 4.63-5.43 5.87 0 1.4 7.18-1.45 9.15-3.62 2.53-2.8.28-4.17-3.72-2.25m10.28-.16c-2.38.74-7.85 6.92-6.12 6.92 4.54 0 11.03-3.96 11.03-6.73 0-.95-2.17-1.03-4.91-.19m172.06-.36c-1.93 1.94 6.07 7.1 11.24 7.27.62.02-.82-2.27-2.85-4.53-2.03-2.26-7.19-3.94-8.39-2.74m-161.53.5c-2.37.48-4.78 2.59-6.75 5.93l-.78 1.33 1.6-.22c4.4-.62 7.95-2.53 9.42-5.05 1.26-2.16.26-2.74-3.49-1.99m152.01.8c.49 2.4 3.55 4.72 7.61 5.77 3.88.99 4.07.9 2.69-1.2-2.65-4.02-4.43-5.26-8.02-5.6l-2.53-.23.25 1.26m-31.87.74c.61.57-.1 3.05-.81 2.85-2.32-.64-2.33-.64-2.33-1.89 0-1.72 1.76-2.26 3.14-.96m11.66 4.45c3.9 5.52 5.45 8.6 5.45 10.82 0 1.8-.41 2.06-1.05.66-.59-1.3-3.63-5.88-5.79-8.74-2.64-3.5-3.02-4.39-2.72-6.36.14-.92.37-1.53.53-1.35.15.17 1.76 2.42 3.58 4.97m-100.66-3.5c.45.73.76 1.38.69 1.43-2.18 1.67-2.66 1.68-3.42.07l-.62-1.28 1.2-.77c.66-.43 1.23-.78 1.26-.78.04 0 .44.6.9 1.33m-7.24 4.61c-3.67 3.99-2.63 7 2.93 8.51 4.38 1.19 5.76 0 5.1-4.43l-.4-2.71 1.37-1.41c1.83-1.87 1.97-1.8 1.97 1 0 7.07-3.38 11.47-8.81 11.47-7.77 0-9.86-5.86-4.14-11.64 2.1-2.13 3.85-2.82 1.98-.79m19.36-.41-.76 2.9c-.29 1.03-.75 2.89-1.03 4.13-.29 1.24-.74 3.05-1.01 4.03-.63 2.27-.23 2.73 3 3.49 2.43.56 2.89.48 3.7-.64.7-.96 1.7-.5 1.15.53-.57 1.08.25 1.61 3.58 2.3 11.52 2.37 15.95 2.69 16.92 1.21.84-1.28 1.53-1.26 1.51.05-.02 1.7 4.9 1.8 5.53.1.52-1.37 1.4-1.5 1.4-.2 0 1.55 3.51 1.4 4.42-.18.8-1.4 1.48-1.46 1.48-.13 0 1.6 1.03 2.09 3.93 1.9 3.27-.22 3.94-.72 2.9-2.16-1.03-1.46-.61-5.62.58-5.62 1.54 0 2.5 8.26 1.2 10.26-1.48 2.25-7.41 2.6-9.05.53-.87-1.12-.96-1.15-.96-.4-.01 1.02-1.02 1.61-2.76 1.61-1.68 0-2.5-.32-2.5-.97 0-.3-.17-.52-.37-.52-.2 0-.38.17-.38.39 0 1.55-5.61 1.85-6.82.36-.6-.75-.71-.77-1.26-.23-.8.8-2.1.76-7.67-.19-10.78-1.83-12.37-2.24-13.2-3.37-.62-.83-.93-.98-1.45-.7-1.59.85-5.34.09-6.96-1.4-1.32-1.23-.71-6.28 1.87-15.49.65-2.34 3.56-3.88 3-1.6m81.67 1.25c3.4 3.7 5.13 8.45 3.92 10.78-2.03 3.94-8.8 6.36-11.8 4.23l-1.1-.8-1.45 2.16-1.43 2.15-3.57.98c-9.8 2.7-11.72 2.28-12.7-2.74-.18-.88-.94-3.66-1.68-6.18-1.6-5.36-1.61-5.58-.46-6.99l.87-1.07.61 1.8c.34.98.61 2.15.61 2.6 0 .45.32 1.73.7 2.84.38 1.11.81 2.82.96 3.8.56 3.79 1.36 3.91 10.14 1.57 4.84-1.3 6.14-3.35 2.04-3.24-2.43.07-1.45-3.97 1.25-5.15 4.6-2.01 8.9.91 6.46 4.4-.76 1.08.78.87 4.14-.56 4.29-1.83 5.54-3.18 4.34-4.66l-.71-.88-.26 1.03c-1 4-4.47 3.18-5.56-1.3-1.66-6.77.66-9.14 4.68-4.77m-11.96 2.27c-.17 1.5-.4 1.83-1.32 1.83-1.68 0-2.3-.82-1.8-2.35l.44-1.35 1.39.5c1.13.39 1.37.65 1.29 1.37m8.35.7c-.34.55.13 1.13.92 1.13.7 0 1.28-.86.86-1.28-.35-.36-1.53-.25-1.78.16m-73.9 1.77.9 1.04.9-.85.9-.84.81 1.1c1.04 1.41 1.03 1.57-.14 2.68l-.97.9-.93-1.07-.93-1.08-.94.89c-.8.75-1 .8-1.27.33-.17-.31-.57-.9-.88-1.31-.5-.67.67-2.82 1.54-2.82.07 0 .53.47 1.02 1.03m43.32 2.07c0 1.96-1.2 2.63-2.63 1.47-.77-.62-.8-.8-.4-2.04l.46-1.37 1.29.62c.79.38 1.28.88 1.28 1.32m-166 1.15c2.51 6.71 12.06 13.2 24.41 16.6l2.22.62-1.47.9c-6.87 4.24-10.78 5.19-21.46 5.2-8.64 0-8.72 0-7.87.71 6.42 5.31 26.54 8.24 40.48 5.88 10.84-1.83 18.78-2.23 26.57-1.34l1.69.19-1.7-.66c-10.96-4.3-12.87-17.98-3.48-25.08 1.46-1.1 1.51-1.2.75-1.4-1.45-.4-8.17-.24-13.2.3-4.79.51-6.94.93-13.31 2.57-4.64 1.2-15.14 1.16-20.06-.07-4.9-1.23-12.17-3.79-13.3-4.68-.43-.34-.48-.3-.27.26m302.47 1.26c-9.84 3.99-21.67 5.28-29.4 3.22-8.38-2.23-14.54-3.08-22.35-3.1-5.53 0-5.7.08-3.57 1.72 9.28 7.08 7.26 20.9-3.65 24.94-1.63.6-1.73.69-.62.54 7.01-.97 17.49-.49 26.44 1.22 11.67 2.23 29.19.33 38.35-4.16 4.9-2.4 4.81-2.49-2.42-2.25-10.22.34-15.79-.75-22.16-4.3-3.56-1.99-3.56-2 .61-3.04 8.9-2.22 17.42-7.77 21.56-14.04 1.8-2.71 1.95-2.66-2.79-.75m-72.15 6.7c-6.75.96-17.77 4.46-27 8.58-.62.27-2.23.92-3.57 1.43-6.1 2.33-6.04 2.12-.56 2.14 6.07.03 18.86 2.1 23.25 3.77 8.42 3.2 21.71 1.48 25.05-3.24 5.63-7.96-3.43-14.66-17.17-12.69m-166.79 1.05c-4.63 1.77-6.62 4.59-5.92 8.37 1.4 7.58 12.5 10.31 26.46 6.52 8.35-2.27 15.12-3.43 21.72-3.72l5.23-.23-2.41-.81c-1.33-.45-3.6-1.27-5.04-1.81-22.39-8.45-33.61-10.79-40.04-8.32m122.5 13.35c-1.78.55-1.9.66-1.6 1.48l.33.88 1.27-1.13c.7-.61 1.5-1.2 1.78-1.3 1.42-.5-.14-.44-1.78.07m-66.11.88c1.07.83 1.74 1.13 1.92.87.6-.9.15-1.24-2.49-1.87-1-.25-.95-.17.57 1m74.96 1.1c-11.45 1.4-10.94 13.9.6 14.83 5.12.42 25.5-4.05 37.09-8.12.62-.21 2.09-.7 3.27-1.06l2.15-.66-5.15-.07c-4.35-.06-5.85-.25-9.65-1.21-6.58-1.67-7.12-1.8-11.44-2.62-3.27-.62-12.83-1.66-13.78-1.5-.15.03-1.54.21-3.1.4m-95.24.3c-3.46.4-8.72 1.5-15.38 3.26-4.61 1.22-5.54 1.34-10.59 1.39-3.04.02-5.53.07-5.53.1s1.39.43 3.1.88c1.7.46 3.26.97 3.46 1.13 1.08.87 21.09 5.85 29.25 7.29 10.03 1.76 15.56-.87 15.56-7.4 0-6.01-6.4-8.15-19.87-6.64"/></svg>