<?xml version="1.0" encoding="UTF-8" standalone="no"?>
<svg xmlns="http://www.w3.org/2000/svg"
   xmlns:dc="http://purl.org/dc/elements/1.1/"
   xmlns:cc="http://web.resource.org/cc/"
   xmlns:rdf="http://www.w3.org/1999/02/22-rdf-syntax-ns#"
   xmlns:xlink="http://www.w3.org/1999/xlink"
   width="800" height="400" viewBox="0 0 600 300">
<metadata><rdf:RDF><cc:Work rdf:about="">
  <dc:format>image/svg+xml</dc:format>
  <dc:type rdf:resource="http://purl.org/dc/dcmitype/StillImage"/>
</cc:Work></rdf:RDF></metadata>
<defs><clipPath id="t"><path d="M150,75h150v75z v75h-150z h-150v-75zv-75h150z"/></clipPath>
<clipPath id="Canton"><rect height="150" width="300"/></clipPath></defs>
<rect height="300" width="600" style="fill:#c8102e"/>
<g clip-path="url(#Canton)"><path d="M0,0 v150 h300 v-150 z" fill="#012169"/>
<path d="M0,0 L300,150 M300,0 L0,150" stroke="#ffffff" stroke-width="30"/>
<path d="M0,0 L300,150 M300,0 L0,150" clip-path="url(#t)" stroke="#c8102e" stroke-width="20"/>
<path d="M150,0 v150 M0,75 h300" stroke="#ffffff" stroke-width="50"/>
<path d="M150,0 v150 M0,75 h300" stroke="#c8102e" stroke-width="30"/></g>
<circle cx="450" cy="150" r="75" style="fill:#ffffff"/>
<g style="font-size:24.282717;font-style:normal;font-variant:normal;font-weight:bold;font-stretch:normal;fill:#000000;fill-opacity:1;stroke:none;font-family:Arial;text-anchor:start;writing-mode:lr-tb">
  <text transform="translate(413.993,179.166)rotate(240)">P</text>
  <text transform="translate(404.181,156.953)rotate(270)">A</text>
  <text transform="translate(407.708,131.277)rotate(300)">L</text>
  <text transform="translate(421.325,113.726)rotate(330)">E</text>
  <text><tspan x="444.386" y="104.107">S</tspan></text>
  <text transform="translate(467.603,107.335)rotate(30)">T</text>
  <text transform="translate(488.406,124.553)rotate(60)">I</text>
  <text transform="translate(495.63,139.536)rotate(90)">N</text>
  <text transform="translate(493.792,165.826)rotate(120)">E</text></g></svg>