<?xml version="1.0" encoding="UTF-8" standalone="no"?>
<!-- Created with Inkscape (http://www.inkscape.org/) -->

<svg
   xmlns:dc="http://purl.org/dc/elements/1.1/"
   xmlns:cc="http://creativecommons.org/ns#"
   xmlns:rdf="http://www.w3.org/1999/02/22-rdf-syntax-ns#"
   xmlns:svg="http://www.w3.org/2000/svg"
   xmlns="http://www.w3.org/2000/svg"
   xmlns:sodipodi="http://sodipodi.sourceforge.net/DTD/sodipodi-0.dtd"
   xmlns:inkscape="http://www.inkscape.org/namespaces/inkscape"
   height="750"
   width="1500"
   version="1.0"
   id="svg186"
   sodipodi:docname="Flag_of_Nyasaland_(1919–1964).svg"
   inkscape:version="0.92.2 (5c3e80d, 2017-08-06)">
  <sodipodi:namedview
     pagecolor="#ffffff"
     bordercolor="#666666"
     borderopacity="1"
     objecttolerance="10"
     gridtolerance="10"
     guidetolerance="10"
     inkscape:pageopacity="0"
     inkscape:pageshadow="2"
     inkscape:window-width="1920"
     inkscape:window-height="1057"
     id="namedview188"
     showgrid="false"
     inkscape:zoom="0.75733333"
     inkscape:cx="1097.603"
     inkscape:cy="298.85135"
     inkscape:window-x="-8"
     inkscape:window-y="-8"
     inkscape:window-maximized="1"
     inkscape:current-layer="svg186" />
  <metadata
     id="metadata2">
    <rdf:RDF>
      <cc:Work
         rdf:about="">
        <dc:format>image/svg+xml</dc:format>
        <dc:type
           rdf:resource="http://purl.org/dc/dcmitype/StillImage" />
        <dc:title />
      </cc:Work>
    </rdf:RDF>
  </metadata>
  <defs
     id="defs4" />
  <path
     fill-rule="nonzero"
     fill="#00247d"
     d="m0,0,1500,0,0,750h-1500v-750z"
     id="path6" />
  <path
     fill="#FFF"
     d="M0,0,83.853,0,312.5,114.32,312.5,0,337.5,0,375,162.5,0,150,0,125,166.15,125,0,41.926,0,0z"
     id="path8" />
  <path
     fill="#FFF"
     d="M750,0,666.15,0,437.5,114.32,437.5,0,412.5,0,375,162.5,750,150,750,125,583.85,125,750,41.926,750,0z"
     id="path10" />
  <path
     fill="#cf142b"
     d="M0,0,250,125,194.1,125,0,27.951,0,0zm750,0-250,125-55.902,0,250-125h55.9z"
     id="path12" />
  <path
     fill="#FFF"
     d="M750,375,666.15,375,437.5,260.68,437.5,375,412.5,375,375,212.5,750,225,750,250,583.85,250,750,333.07,750,375z"
     id="path14" />
  <path
     fill="#FFF"
     d="M0,375,83.853,375,312.5,260.68,312.5,375h25l37.5-162.5-375,12.5v25h166.15l-166.15,83.07v41.93z"
     id="path16" />
  <path
     fill="#cf142b"
     d="M750,375,500,250,555.9,250,750,347.05,750,375zm-750,0,250-125,55.902,0-250,125h-55.9z"
     id="path18" />
  <path
     fill="#cf142b"
     d="m337.5,0,75,0,0,150,337.5,0,0,75-337.5,0,0,150-75,0,0-150-337.5,0,0-75,337.5,0,0-150z"
     id="path20" />
  <g
     transform="translate(973.99996,-467.86444)"
     id="g184">
    <g
       transform="matrix(1.6211005,0,0,1.6249999,665.69945,233.98562)"
       stroke-dasharray="none"
       stroke-miterlimit="4"
       stroke-width="0.92418653"
       id="g182">
      <path
         fill="#528ef7"
         d="m-225,378,0-115-185,0.00001,0,115z"
         id="path22"
         style="stroke:none;fill:#000000" />
      <g
         transform="matrix(0.97453631,0,0,1,-5.6919957,0)"
         stroke-dasharray="none"
         stroke-miterlimit="4"
         stroke-width="0.93618268"
         id="g148">
        <g
           transform="translate(-2.0000001,0)"
           id="g30">
          <path
             d="m-330.38,301.91s-4.3102-29.234-4.3102-30.171l13.493,28.953"
             fill="#FD5"
             transform="translate(-2.1390952e-5,0)"
             id="path24" />
          <path
             d="m-330.6,301.47c0.74314-0.0929,3.5299-1.3005,3.5299-1.3005l-7.3384-28.053z"
             fill="#ffe88d"
             transform="translate(-2.1390952e-5,0)"
             id="path26" />
          <path
             d="m-330.38,301.91s-4.3102-29.234-4.3102-30.171l13.493,28.953"
             stroke="#000"
             stroke-dasharray="none"
             stroke-miterlimit="4"
             stroke-width="0.93618268"
             fill="none"
             id="path28" />
        </g>
        <path
           d="m-322.23,301.54c-0.8201-2.5349-1.5862-4.3506-0.8433-7.4023,0.74294-3.0516,0.0361-5.8111-0.56704-8.7132-0.60309-2.9021-0.27016-5.5411,1.504-7.8716,1.7742-2.3304,1.8938-3.986,1.0953-6.9968,2.8017,1.8541,4.275,3.3222,3.6252,6.1212-0.64981,2.799-0.0369,5.5308,1.1284,7.5897,1.1653,2.0588,1.957,4.8192,1.214,7.8708-0.74294,3.0516-0.25548,6.3537,1.122,8.8885"
           fill="#FD5"
           transform="translate(-2.1390952e-5,0)"
           id="path32" />
        <path
           d="m-320.48,299.7s0.0929-0.55735-0.0929-1.8578c-0.18578-1.3005-0.18578-2.4152-0.18578-2.4152s0.37157-1.2076,0.46446-1.8578c0.0929-0.65024,0.55735-2.6939,0.55735-2.6939v-0.27867c0-0.55735-0.0929-2.0436-0.46446-2.7868-0.37157-0.74313-0.65024-2.1365-0.65024-2.6939,0-0.55735-0.0929-1.5792,0.0929-2.2294,0.18578-0.65024-0.0929-0.65024,0.46446-1.8578,0.55735-1.2076,0.46446-1.2076,0.74313-1.9507,0.27868-0.74314,0.65024-1.5792,0.65024-2.2294,0-0.65025,0.18579-0.65025,0-2.4152-0.18578-1.7649-0.18578-2.2294-0.55735-2.6939-0.37156-0.46446-1.3934-1.2076-1.3934-1.2076l0.27867,3.5299s-0.74313,2.5081-1.2076,2.9725c-0.46446,0.46446-2.2294,2.9725-2.2294,3.5299,0,0.55735,0.27867,3.0654,0.27867,3.0654l0.74314,5.3877v3.5299c0,0.55735-0.74314,2.9725-0.74314,3.8086,0,0.83602,0.27868,3.6228,0.27868,3.6228z"
           fill="#ffe88d"
           transform="translate(-2.1390952e-5,0)"
           id="path34" />
        <path
           d="m-322.23,301.54c-0.8201-2.5349-1.5862-4.3506-0.8433-7.4023,0.74294-3.0516,0.0361-5.8111-0.56704-8.7133-0.60309-2.9021-0.27016-5.5411,1.504-7.8716,1.7742-2.3304,1.8938-3.986,1.0953-6.9968,2.8017,1.8541,4.275,3.3222,3.6252,6.1212-0.64981,2.799-0.0369,5.5308,1.1284,7.5897,1.1653,2.0588,1.957,4.8192,1.214,7.8708-0.74294,3.0516-0.25548,6.3537,1.122,8.8885"
           stroke="#000"
           stroke-dasharray="none"
           stroke-miterlimit="4"
           stroke-width="0.93618268"
           fill="none"
           id="path36" />
        <g
           transform="matrix(0.93181752,-0.36292714,0.36292714,0.93181752,-149.09625,-91.558971)"
           id="g44">
          <path
             d="m-330.38,301.91s-4.3102-29.234-4.3102-30.171l13.493,28.953"
             fill="#FD5"
             transform="translate(-2.1390952e-5,0)"
             id="path38" />
          <path
             d="m-330.6,301.47c0.74314-0.0929,3.5299-1.3005,3.5299-1.3005l-7.3384-28.053z"
             fill="#ffe88d"
             transform="translate(-2.1390952e-5,0)"
             id="path40" />
          <path
             d="m-330.38,301.91s-4.3102-29.234-4.3102-30.171l13.493,28.953"
             stroke="#000"
             stroke-dasharray="none"
             stroke-miterlimit="4"
             stroke-width="0.93618268"
             fill="none"
             id="path42" />
        </g>
        <g
           transform="matrix(0.90134125,-0.43310964,0.43310964,0.90134125,-179.53331,-106.25385)"
           id="g52">
          <path
             d="m-322.23,301.54c-0.8201-2.5349-1.5862-4.3506-0.8433-7.4023,0.74294-3.0516,0.0361-5.8111-0.56704-8.7132-0.60309-2.9021-0.27016-5.5411,1.504-7.8716,1.7742-2.3304,1.8938-3.986,1.0953-6.9968,2.8017,1.8541,4.275,3.3222,3.6252,6.1212-0.64981,2.799-0.0369,5.5308,1.1284,7.5897,1.1653,2.0588,1.957,4.8192,1.214,7.8708-0.74294,3.0516-0.25548,6.3537,1.122,8.8885"
             fill="#FD5"
             transform="translate(-2.1390952e-5,0)"
             id="path46" />
          <path
             d="m-320.48,299.7s0.0929-0.55735-0.0929-1.8578c-0.18578-1.3005-0.18578-2.4152-0.18578-2.4152s0.37157-1.2076,0.46446-1.8578c0.0929-0.65024,0.55735-2.6939,0.55735-2.6939v-0.27867c0-0.55735-0.0929-2.0436-0.46446-2.7868-0.37157-0.74313-0.65024-2.1365-0.65024-2.6939,0-0.55735-0.0929-1.5792,0.0929-2.2294,0.18578-0.65024-0.0929-0.65024,0.46446-1.8578,0.55735-1.2076,0.46446-1.2076,0.74313-1.9507,0.27868-0.74314,0.65024-1.5792,0.65024-2.2294,0-0.65025,0.18579-0.65025,0-2.4152-0.18578-1.7649-0.18578-2.2294-0.55735-2.6939-0.37156-0.46446-1.3934-1.2076-1.3934-1.2076l0.27867,3.5299s-0.74313,2.5081-1.2076,2.9725c-0.46446,0.46446-2.2294,2.9725-2.2294,3.5299,0,0.55735,0.27867,3.0654,0.27867,3.0654l0.74314,5.3877v3.5299c0,0.55735-0.74314,2.9725-0.74314,3.8086,0,0.83602,0.27868,3.6228,0.27868,3.6228z"
             fill="#ffe88d"
             transform="translate(-2.1390952e-5,0)"
             id="path48" />
          <path
             d="m-322.23,301.54c-0.8201-2.5349-1.5862-4.3506-0.8433-7.4023,0.74294-3.0516,0.0361-5.8111-0.56704-8.7132-0.60309-2.9021-0.27016-5.5411,1.504-7.8716,1.7742-2.3304,1.8938-3.986,1.0953-6.9968,2.8017,1.8541,4.275,3.3222,3.6252,6.1212-0.64981,2.799-0.0369,5.5308,1.1284,7.5897,1.1653,2.0588,1.957,4.8192,1.214,7.8708-0.74294,3.0516-0.25548,6.3537,1.122,8.8885"
             stroke="#000"
             stroke-dasharray="none"
             stroke-miterlimit="4"
             stroke-width="0.93618268"
             fill="none"
             id="path50" />
        </g>
        <g
           transform="matrix(-0.21924857,0.97566904,0.97566904,0.21924857,-720.03097,572.84267)"
           id="g60">
          <path
             d="m-330.38,301.91s-4.3102-29.234-4.3102-30.171l13.493,28.953"
             fill="#FD5"
             transform="translate(-2.1390952e-5,0)"
             id="path54" />
          <path
             d="m-330.6,301.47c0.74314-0.0929,3.5299-1.3005,3.5299-1.3005l-7.3384-28.053z"
             fill="#ffe88d"
             transform="translate(-2.1390952e-5,0)"
             id="path56" />
          <path
             d="m-330.38,301.91s-4.3102-29.234-4.3102-30.171l13.493,28.953"
             stroke="#000"
             stroke-dasharray="none"
             stroke-miterlimit="4"
             stroke-width="0.93618268"
             fill="none"
             id="path58" />
        </g>
        <g
           transform="matrix(-0.64312235,0.76576344,0.76576344,0.64312235,-785.6184,364.80469)"
           id="g68">
          <path
             d="m-322.23,301.54c-0.8201-2.5349-1.5862-4.3506-0.8433-7.4023,0.74294-3.0516,0.0361-5.8111-0.56704-8.7132-0.60309-2.9021-0.27016-5.5411,1.504-7.8716,1.7742-2.3304,1.8938-3.986,1.0953-6.9968,2.8017,1.8541,4.275,3.3222,3.6252,6.1212-0.64981,2.799-0.0369,5.5308,1.1284,7.5897,1.1653,2.0588,1.957,4.8192,1.214,7.8708-0.74294,3.0516-0.25548,6.3537,1.122,8.8885"
             fill="#FD5"
             transform="translate(-2.1390952e-5,0)"
             id="path62" />
          <path
             d="m-320.48,299.7s0.0929-0.55735-0.0929-1.8578c-0.18578-1.3005-0.18578-2.4152-0.18578-2.4152s0.37157-1.2076,0.46446-1.8578c0.0929-0.65024,0.55735-2.6939,0.55735-2.6939v-0.27867c0-0.55735-0.0929-2.0436-0.46446-2.7868-0.37157-0.74313-0.65024-2.1365-0.65024-2.6939,0-0.55735-0.0929-1.5792,0.0929-2.2294,0.18578-0.65024-0.0929-0.65024,0.46446-1.8578,0.55735-1.2076,0.46446-1.2076,0.74313-1.9507,0.27868-0.74314,0.65024-1.5792,0.65024-2.2294,0-0.65025,0.18579-0.65025,0-2.4152-0.18578-1.7649-0.18578-2.2294-0.55735-2.6939-0.37156-0.46446-1.3934-1.2076-1.3934-1.2076l0.27867,3.5299s-0.74313,2.5081-1.2076,2.9725c-0.46446,0.46446-2.2294,2.9725-2.2294,3.5299,0,0.55735,0.27867,3.0654,0.27867,3.0654l0.74314,5.3877v3.5299c0,0.55735-0.74314,2.9725-0.74314,3.8086,0,0.83602,0.27868,3.6228,0.27868,3.6228z"
             fill="#ffe88d"
             transform="translate(-2.1390952e-5,0)"
             id="path64" />
          <path
             d="m-322.23,301.54c-0.8201-2.5349-1.5862-4.3506-0.8433-7.4023,0.74294-3.0516,0.0361-5.8111-0.56704-8.7132-0.60309-2.9021-0.27016-5.5411,1.504-7.8716,1.7742-2.3304,1.8938-3.986,1.0953-6.9968,2.8017,1.8541,4.275,3.3222,3.6252,6.1212-0.64981,2.799-0.0369,5.5308,1.1284,7.5897,1.1653,2.0588,1.957,4.8192,1.214,7.8708-0.74294,3.0516-0.25548,6.3537,1.122,8.8885"
             stroke="#000"
             stroke-dasharray="none"
             stroke-miterlimit="4"
             stroke-width="0.93618268"
             fill="none"
             id="path66" />
        </g>
        <g
           transform="matrix(-0.32787378,0.94472154,0.94472154,0.32787378,-747.03849,530.88947)"
           id="g76">
          <path
             d="m-322.23,301.54c-0.8201-2.5349-1.5862-4.3506-0.8433-7.4023,0.74294-3.0516,0.0361-5.8111-0.56704-8.7132-0.60309-2.9021-0.27016-5.5411,1.504-7.8716,1.7742-2.3304,1.8938-3.986,1.0953-6.9968,2.8017,1.8541,4.275,3.3222,3.6252,6.1212-0.64981,2.799-0.0369,5.5308,1.1284,7.5897,1.1653,2.0588,1.957,4.8192,1.214,7.8708-0.74294,3.0516-0.25548,6.3537,1.122,8.8885"
             fill="#FD5"
             transform="translate(-2.1390952e-5,0)"
             id="path70" />
          <path
             d="m-320.48,299.7s0.0929-0.55735-0.0929-1.8578c-0.18578-1.3005-0.18578-2.4152-0.18578-2.4152s0.37157-1.2076,0.46446-1.8578c0.0929-0.65024,0.55735-2.6939,0.55735-2.6939v-0.27867c0-0.55735-0.0929-2.0436-0.46446-2.7868-0.37157-0.74313-0.65024-2.1365-0.65024-2.6939,0-0.55735-0.0929-1.5792,0.0929-2.2294,0.18578-0.65024-0.0929-0.65024,0.46446-1.8578,0.55735-1.2076,0.46446-1.2076,0.74313-1.9507,0.27868-0.74314,0.65024-1.5792,0.65024-2.2294,0-0.65025,0.18579-0.65025,0-2.4152-0.18578-1.7649-0.18578-2.2294-0.55735-2.6939-0.37156-0.46446-1.3934-1.2076-1.3934-1.2076l0.27867,3.5299s-0.74313,2.5081-1.2076,2.9725c-0.46446,0.46446-2.2294,2.9725-2.2294,3.5299,0,0.55735,0.27867,3.0654,0.27867,3.0654l0.74314,5.3877v3.5299c0,0.55735-0.74314,2.9725-0.74314,3.8086,0,0.83602,0.27868,3.6228,0.27868,3.6228z"
             fill="#ffe88d"
             transform="translate(-2.1390952e-5,0)"
             id="path72" />
          <path
             d="m-322.23,301.54c-0.8201-2.5349-1.5862-4.3506-0.8433-7.4023,0.74294-3.0516,0.0361-5.8111-0.56704-8.7132-0.60309-2.9021-0.27016-5.5411,1.504-7.8716,1.7742-2.3304,1.8938-3.986,1.0953-6.9968,2.8017,1.8541,4.275,3.3222,3.6252,6.1212-0.64981,2.799-0.0369,5.5308,1.1284,7.5897,1.1653,2.0588,1.957,4.8192,1.214,7.8708-0.74294,3.0516-0.25548,6.3537,1.122,8.8885"
             stroke="#000"
             stroke-dasharray="none"
             stroke-miterlimit="4"
             stroke-width="0.93618268"
             fill="none"
             id="path74" />
        </g>
        <g
           transform="matrix(0.20482847,0.97879789,0.97879789,-0.20482847,-586.99628,715.17848)"
           id="g84">
          <path
             d="m-330.38,301.91s-4.3102-29.234-4.3102-30.171l13.493,28.953"
             fill="#FD5"
             transform="translate(-2.1390952e-5,0)"
             id="path78" />
          <path
             d="m-330.6,301.47c0.74314-0.0929,3.5299-1.3005,3.5299-1.3005l-7.3384-28.053z"
             fill="#ffe88d"
             transform="translate(-2.1390952e-5,0)"
             id="path80" />
          <path
             d="m-330.38,301.91s-4.3102-29.234-4.3102-30.171l13.493,28.953"
             stroke="#000"
             stroke-dasharray="none"
             stroke-miterlimit="4"
             stroke-width="0.93618268"
             fill="none"
             id="path82" />
        </g>
        <g
           transform="matrix(-1,0,0,1,-636.77228,4.7488194e-6)"
           id="g92">
          <path
             d="m-330.38,301.91s-4.3102-29.234-4.3102-30.171l13.493,28.953"
             fill="#FD5"
             transform="translate(-2.1390952e-5,0)"
             id="path86" />
          <path
             d="m-330.6,301.47c0.74314-0.0929,3.5299-1.3005,3.5299-1.3005l-7.3384-28.053z"
             fill="#ffe88d"
             transform="translate(-2.1390952e-5,0)"
             id="path88" />
          <path
             d="m-330.38,301.91s-4.3102-29.234-4.3102-30.171l13.493,28.953"
             stroke="#000"
             stroke-dasharray="none"
             stroke-miterlimit="4"
             stroke-width="0.93618268"
             fill="none"
             id="path90" />
        </g>
        <g
           transform="matrix(-0.93181752,-0.36292714,-0.36292714,0.93181752,-489.67603,-91.558965)"
           id="g100">
          <path
             d="m-330.38,301.91s-4.3102-29.234-4.3102-30.171l13.493,28.953"
             fill="#FD5"
             transform="translate(-2.1390952e-5,0)"
             id="path94" />
          <path
             d="m-330.23,302.94c0.74314-0.0929,3.5299-1.3005,3.5299-1.3005l-7.713-29.527z"
             fill="#ffe88d"
             transform="translate(-2.1390952e-5,0)"
             id="path96" />
          <path
             d="m-330.38,301.91s-4.3102-29.234-4.3102-30.171l13.493,28.953"
             stroke="#000"
             stroke-dasharray="none"
             stroke-miterlimit="4"
             stroke-width="0.93618268"
             fill="none"
             id="path98" />
        </g>
        <g
           transform="matrix(-0.90134125,-0.43310964,-0.43310964,0.90134125,-459.23896,-106.25385)"
           id="g108">
          <path
             d="m-322.23,301.54c-0.8201-2.5349-1.5862-4.3506-0.8433-7.4023,0.74294-3.0516,0.0361-5.8111-0.56704-8.7132-0.60309-2.9021-0.27016-5.5411,1.504-7.8716,1.7742-2.3304,1.8938-3.986,1.0953-6.9968,2.8017,1.8541,4.275,3.3222,3.6252,6.1212-0.64981,2.799-0.0369,5.5308,1.1284,7.5897,1.1653,2.0588,1.957,4.8192,1.214,7.8708-0.74294,3.0516-0.25548,6.3537,1.122,8.8885"
             fill="#FD5"
             transform="translate(-2.1390952e-5,0)"
             id="path102" />
          <path
             d="m-320.53,301.05s0.15084-1.9024-0.035-3.2029c-0.18578-1.3005-0.18578-2.4152-0.18578-2.4152s0.37157-1.2076,0.46446-1.8578c0.0929-0.65024,0.55735-2.6939,0.55735-2.6939v-0.27867c0-0.55735-0.0929-2.0436-0.46446-2.7868-0.37157-0.74313-0.65024-2.1365-0.65024-2.6939,0-0.55735-0.0929-1.5792,0.0929-2.2294,0.18578-0.65024-0.0929-0.65024,0.46446-1.8578,0.55735-1.2076,0.46446-1.2076,0.74313-1.9507,0.27868-0.74314,0.65024-1.5792,0.65024-2.2294,0-0.65025,0.18579-0.65025,0-2.4152-0.18578-1.7649-0.18578-2.2294-0.55735-2.6939-0.37156-0.46446-1.3934-1.2076-1.3934-1.2076l0.27867,3.5299s-0.74313,2.5081-1.2076,2.9725c-0.46446,0.46446-2.2294,2.9725-2.2294,3.5299,0,0.55735,0.27867,3.0654,0.27867,3.0654l0.74314,5.3877v3.5299c0,0.55735-0.74314,2.9725-0.74314,3.8086,0,0.83602,0.22074,4.9678,0.22074,4.9678z"
             fill="#ffe88d"
             transform="translate(-2.1390952e-5,0)"
             id="path104" />
          <path
             d="m-322.23,301.54c-0.8201-2.5349-1.5862-4.3506-0.8433-7.4023,0.74294-3.0516,0.0361-5.8111-0.56704-8.7132-0.60309-2.9021-0.27016-5.5411,1.504-7.8716,1.7742-2.3304,1.8938-3.986,1.0953-6.9968,2.8017,1.8541,4.275,3.3222,3.6252,6.1212-0.64981,2.799-0.0369,5.5308,1.1284,7.5897,1.1653,2.0588,1.957,4.8192,1.214,7.8708-0.74294,3.0516-0.25548,6.3537,1.122,8.8885"
             stroke="#000"
             stroke-dasharray="none"
             stroke-miterlimit="4"
             stroke-width="0.93618268"
             fill="none"
             id="path106" />
        </g>
        <g
           transform="matrix(0.21924857,0.97566904,-0.97566904,0.21924857,81.258696,572.84267)"
           id="g116">
          <path
             d="m-330.38,301.91s-4.3102-29.234-4.3102-30.171l13.493,28.953"
             fill="#FD5"
             transform="translate(-2.1390952e-5,0)"
             id="path110" />
          <path
             d="m-330.6,301.47c0.74314-0.0929,3.5299-1.3005,3.5299-1.3005l-7.3384-28.053z"
             fill="#ffe88d"
             transform="translate(-2.1390952e-5,0)"
             id="path112" />
          <path
             d="m-330.38,301.91s-4.3102-29.234-4.3102-30.171l13.493,28.953"
             stroke="#000"
             stroke-dasharray="none"
             stroke-miterlimit="4"
             stroke-width="0.93618268"
             fill="none"
             id="path114" />
        </g>
        <g
           transform="matrix(0.64312235,0.76576344,-0.76576344,0.64312235,146.84612,364.8047)"
           id="g124">
          <path
             d="m-322.23,301.54c-0.8201-2.5349-1.5862-4.3506-0.8433-7.4023,0.74294-3.0516,0.0361-5.8111-0.56704-8.7132-0.60309-2.9021-0.27016-5.5411,1.504-7.8716,1.7742-2.3304,1.8938-3.986,1.0953-6.9968,2.8017,1.8541,4.275,3.3222,3.6252,6.1212-0.64981,2.799-0.0369,5.5308,1.1284,7.5897,1.1653,2.0588,1.957,4.8192,1.214,7.8708-0.74294,3.0516-0.25548,6.3537,1.122,8.8885"
             fill="#FD5"
             transform="translate(-2.1390952e-5,0)"
             id="path118" />
          <path
             d="m-320.53,300.58s0.14155-1.4399-0.0442-2.7404c-0.18578-1.3005-0.18578-2.4152-0.18578-2.4152s0.37157-1.2076,0.46446-1.8578c0.0929-0.65024,0.55735-2.6939,0.55735-2.6939v-0.27867c0-0.55735-0.0929-2.0436-0.46446-2.7868-0.37157-0.74313-0.65024-2.1365-0.65024-2.6939,0-0.55735-0.0929-1.5792,0.0929-2.2294,0.18578-0.65024-0.0929-0.65024,0.46446-1.8578,0.55735-1.2076,0.46446-1.2076,0.74313-1.9507,0.27868-0.74314,0.65024-1.5792,0.65024-2.2294,0-0.65025,0.18579-0.65025,0-2.4152-0.18578-1.7649-0.18578-2.2294-0.55735-2.6939-0.37156-0.46446-1.3934-1.2076-1.3934-1.2076l0.27867,3.5299s-0.74313,2.5081-1.2076,2.9725c-0.46446,0.46446-2.2294,2.9725-2.2294,3.5299,0,0.55735,0.27867,3.0654,0.27867,3.0654l0.74314,5.3877v3.5299c0,0.55735-0.74314,2.9725-0.74314,3.8086,0,0.83602,0.23003,4.5053,0.23003,4.5053z"
             fill="#ffe88d"
             transform="translate(-2.1390952e-5,0)"
             id="path120" />
          <path
             d="m-323.04,301.61c-0.8201-2.5349-0.78361-4.4205-0.0407-7.4721,0.74294-3.0516,0.0361-5.8111-0.56704-8.7132-0.60309-2.9021-0.27016-5.5411,1.504-7.8716,1.7742-2.3304,1.8938-3.986,1.0953-6.9968,2.8017,1.8541,4.275,3.3222,3.6252,6.1212-0.64981,2.799-0.0369,5.5308,1.1284,7.5897,1.1653,2.0588,1.957,4.8192,1.214,7.8708-0.74294,3.0516-0.25548,6.3537,1.122,8.8885"
             stroke="#000"
             stroke-dasharray="none"
             stroke-miterlimit="4"
             stroke-width="0.93618268"
             fill="none"
             id="path122" />
        </g>
        <g
           transform="matrix(0.32787378,0.94472154,-0.94472154,0.32787378,106.26622,530.88947)"
           id="g132">
          <path
             d="m-322.23,301.54c-0.8201-2.5349-1.5862-4.3506-0.8433-7.4023,0.74294-3.0516,0.0361-5.8111-0.56704-8.7132-0.60309-2.9021-0.27016-5.5411,1.504-7.8716,1.7742-2.3304,1.8938-3.986,1.0953-6.9968,2.8017,1.8541,4.275,3.3222,3.6252,6.1212-0.64981,2.799-0.0369,5.5308,1.1284,7.5897,1.1653,2.0588,1.957,4.8192,1.214,7.8708-0.74294,3.0516-0.25548,6.3537,1.122,8.8885"
             fill="#FD5"
             transform="translate(-2.1390952e-5,0)"
             id="path126" />
          <path
             d="m-320.48,299.7s0.0929-0.55735-0.0929-1.8578c-0.18578-1.3005-0.18578-2.4152-0.18578-2.4152s0.37157-1.2076,0.46446-1.8578c0.0929-0.65024,0.55735-2.6939,0.55735-2.6939v-0.27867c0-0.55735-0.0929-2.0436-0.46446-2.7868-0.37157-0.74313-0.65024-2.1365-0.65024-2.6939,0-0.55735-0.0929-1.5792,0.0929-2.2294,0.18578-0.65024-0.0929-0.65024,0.46446-1.8578,0.55735-1.2076,0.46446-1.2076,0.74313-1.9507,0.27868-0.74314,0.65024-1.5792,0.65024-2.2294,0-0.65025,0.18579-0.65025,0-2.4152-0.18578-1.7649-0.18578-2.2294-0.55735-2.6939-0.37156-0.46446-1.3934-1.2076-1.3934-1.2076l0.27867,3.5299s-0.74313,2.5081-1.2076,2.9725c-0.46446,0.46446-2.2294,2.9725-2.2294,3.5299,0,0.55735,0.27867,3.0654,0.27867,3.0654l0.74314,5.3877v3.5299c0,0.55735-0.74314,2.9725-0.74314,3.8086,0,0.83602,0.27868,3.6228,0.27868,3.6228z"
             fill="#ffe88d"
             transform="translate(-2.1390952e-5,0)"
             id="path128" />
          <path
             d="m-322.23,301.54c-0.8201-2.5349-1.5862-4.3506-0.8433-7.4023,0.74294-3.0516,0.0361-5.8111-0.56704-8.7132-0.60309-2.9021-0.27016-5.5411,1.504-7.8716,1.7742-2.3304,1.8938-3.986,1.0953-6.9968,2.8017,1.8541,4.275,3.3222,3.6252,6.1211-0.64981,2.799-0.0369,5.5308,1.1284,7.5897,1.1653,2.0588,1.957,4.8192,1.214,7.8708-0.74294,3.0516-0.25548,6.3537,1.122,8.8885"
             stroke="#000"
             stroke-dasharray="none"
             stroke-miterlimit="4"
             stroke-width="0.93618268"
             fill="none"
             id="path130" />
        </g>
        <g
           transform="matrix(-0.20482847,0.97879789,-0.97879789,-0.20482847,-53.77599,715.17848)"
           id="g140">
          <path
             d="m-330.38,301.91s-4.3102-29.234-4.3102-30.171l13.493,28.953"
             fill="#FD5"
             transform="translate(-2.1390952e-5,0)"
             id="path134" />
          <path
             d="m-330.6,301.47c0.74314-0.0929,3.5299-1.3005,3.5299-1.3005l-7.3384-28.053z"
             fill="#ffe88d"
             transform="translate(-2.1390952e-5,0)"
             id="path136" />
          <path
             d="m-330.38,301.91s-4.3102-29.234-4.3102-30.171l13.493,28.953"
             stroke="#000"
             stroke-dasharray="none"
             stroke-miterlimit="4"
             stroke-width="0.93618268"
             fill="none"
             id="path138" />
        </g>
        <path
           style="color:#000000;enable-background:accumulate;"
           fill="#FD5"
           d="m-280.98,335.13c0,19.721-17.689,35.709-39.51,35.709s-39.51-15.987-39.51-35.709c0-19.721,17.689-35.709,39.51-35.709s39.51,15.987,39.51,35.709z"
           id="path142" />
        <path
           style="enable-background:accumulate;color:#000000;"
           d="m-280.98,335.13c0,19.721-17.689,35.709-39.51,35.709s-39.51-15.987-39.51-35.709c0-19.721,17.689-35.709,39.51-35.709s39.51,15.987,39.51,35.709z"
           stroke="#000"
           stroke-miterlimit="4"
           stroke-dasharray="none"
           stroke-width="0.93618268"
           fill="none"
           id="path144" />
        <path
           d="m-320.5,302.13s-30.875-2-36.75,30.25c7.625-21.75,36.75-30.25,36.75-30.25z"
           fill="#ffe88d"
           transform="translate(-2.1390952e-5,0)"
           id="path146" />
      </g>
      <path
         fill="#FFF"
         d="m-225.06,334.88c-12.333,0-18.5,10-30.833,10s-18.5-10-30.833-10-18.5,10-30.833,10-18.5-10-30.833-10-18.5,10-30.833,10-18.5-10-30.833-10l0.0595,112.63s-0.00001,20.493,92.5,55.493c92.5-35,92.5-55.493,92.5-55.493z"
         id="path150" />
      <path
         stroke-linejoin="miter"
         d="m-225.06,334.88c-12.333,0-18.5,10-30.833,10s-18.5-10-30.833-10-18.5,10-30.833,10-18.5-10-30.833-10-18.5,10-30.833,10-18.5-10-30.833-10"
         stroke="#000"
         stroke-linecap="butt"
         stroke-miterlimit="4"
         stroke-dasharray="none"
         stroke-width="0.92418653"
         fill="none"
         id="path152" />
      <path
         style="color:#000000;enable-background:accumulate;"
         d="m371.52,506.96c-3.2006-1.879,6.9294-14.155,7.8266-14.709,0.25397-0.15696,0.82862-1.3899,1.277-2.7398,0.65001-1.957,1.3665-2.8707,3.5355-4.5083,1.4962-1.1296,4.1669-3.8024,5.935-5.9396,3.1718-3.8339,6.2869-6.0811,9.8434-7.1011,2.3101-0.66253,21.31,0.39487,28.343,1.5773,5.3536,0.90017,6.5777,0.9558,9.5,0.43178,1.845-0.33084,6.842-0.77046,11.105-0.97693,7.2958-0.3534,7.9844-0.47576,11.75-2.0877l4-1.7122,4.7007,0.67326c3.4685,0.49679,5.6259,1.1392,8.2304,2.4508,5.4592,2.7492,7.0419,3.1739,14.75,3.9574,6.5706,0.66796,7.3676,0.85859,9.3808,2.2437,1.3991,0.96258,2.6594,2.4202,3.4618,4.0036,0.69397,1.3695,2.0493,3.3617,3.0119,4.4272l14.704,13.168c-22.697,15.57-38.142,24.198-80.618,39.834-23.845-8.9822-47.3-19.46-70.736-32.993z"
         fill-rule="nonzero"
         transform="translate(-760.05951,-37.486981)"
         fill="#808080"
         id="path154" />
      <path
         d="m464.75,469.31-2.9062,1.25c-4.3448,1.8452-5.7119,2.1158-12.75,2.5625-3.4057,0.21618-8.0351,0.59522-10.281,0.875-4.3851,0.54621-4.3083,0.55185-11.156-0.40625-6.0576-0.84752-13.218-1.3628-21-1.5312l-6.7188-0.15625,0.375,0.625c0.21806,0.32989,1.2345,1.259,2.25,2.0938,1.0155,0.83471,2.1136,2.0114,2.4375,2.5938,0.90543,1.6278,2.2068,2.3371,4.5,2.5,1.8084,0.12847,1.9004,0.18927,1.9688,0.78125,0.068,0.58848-0.42544,1.4566-2.0625,3.6875-0.34121,0.46497-0.79268,1.6742-1.0312,2.75-0.23418,1.056-0.67694,2.704-1,3.6562-0.69665,2.0533-0.69591,1.9062-0.21875,1.9062,1.406,0,3.7305-2.014,6.9375-6,3.5626-4.428,4.129-4.6263,8.1875-3.0938,1.3062,0.49327,2.9938,0.95655,3.75,1.0312,1.8384,0.1817,2.2152,0.39844,5.125,3.0625,1.375,1.2589,3.2031,2.8042,4.0625,3.4375,0.85937,0.63328,1.5625,1.2578,1.5625,1.375,0,0.11723-0.2875,0.475-0.625,0.8125-0.55369,0.55373-0.80078,0.625-2.6875,0.625-3.1266,0-4.4716-0.50552-6.4375-2.375-1.5053-1.4315-4.1815-3.2872-4.4062-3.0625-0.0522,0.0522,0.18765,0.47178,0.53125,0.9375,0.91882,1.2454,1.1308,2.2476,0.84375,4.1875-0.1959,1.324-0.15958,2.1729,0.15625,3.9375,0.22148,1.2375,0.52515,4.1344,0.6875,6.4375,0.16236,2.3031,0.36672,4.1875,0.46875,4.1875,0.22748,0,0.59189-1.23,1.125-3.9062,0.55333-2.7777,1.1423-3.7647,3.0938-5.0625,2.1057-1.4004,2.9025-1.3439,4.9375,0.34375,0.78517,0.65116,2.225,1.552,3.1875,2,0.9625,0.44797,2.1499,1.1106,2.625,1.4688,0.80183,0.60434,0.88266,0.62675,1.125,0.21875,0.154-0.25926,0.25-2.1809,0.25-4.6875,0-4.0497,0.039-4.2847,0.59375-5.0625,0.70965-0.99495,1.7344-1.5625,2.8438-1.5625,1.1265,0,1.826,0.54662,2.5625,2,0.70808,1.3973,1.6495,2.3385,2.75,2.7812,0.4198,0.16891,1.0875,0.5411,1.5,0.84375s1.4859,0.93035,2.375,1.375c1.5059,0.75311,1.7347,0.80579,3.3438,0.65625,1.1493-0.10682,1.8338-0.0648,2.0625,0.125,0.51079,0.42392,0.43769,1.5277-0.3125,4.125l-0.66,2.36,0.53125,1.125c0.80719,1.6614,3.8524,4.6987,6.2812,6.2812,2.5307,1.6489,3.2051,2.229,3.6875,3.1562,0.27763,0.53377,0.28195,0.8087,0.0625,1.2188-0.2542,0.47499-0.4352,0.51704-1.8125,0.40625-1.2082-0.0972-2.4589-0.55195-5.875-2.0625-2.3894-1.0566-4.9769-2.2108-5.75-2.5938-1.2601-0.62424-1.8283-0.73356-5.625-1-5.2098-0.36562-5.1554-0.3827-4.6562,2.1562,0.18316,0.93166,0.3738,1.8281,0.4375,2,0.0835,0.22523-0.25339,0.3095-1.2188,0.3125-1.8702,0.005-2.1101,0.19709-1.7188,1.4062,0.65278,2.017,1.2552,2.8069,3.1875,4.2812,1.6948,1.2931,2.1369,1.8374,3.5312,4.1562l1.5938,2.625,3.1562,1.75c1.7353,0.95083,3.2124,0.46278,4.2066,2.5793,19.105-7.5307,44.471-17.268,58.608-29.496,1.191-1.1217-10.328,0.46465-9.2752-0.78897,1.3358-1.5907-3.3747-8.6014-2.1021-10.263,1.1058-1.4438,2.3134-3.116,2.6875-3.6875l0.6875-1.0312-1.2812-1.5938c-0.70817-0.87221-1.939-2.6044-2.7188-3.875-0.77974-1.2706-1.4808-2.3115-1.5625-2.3125s-0.78545,0.57392-1.5938,1.2812c-1.5967,1.3973-2.7023,1.9688-3.8125,1.9688-1.1452,0-3.2426,0.71141-4.0312,1.375-1.1149,0.93814-9.7812,4.6753-9.7812,4.2188,0-0.44186,0.85407-1.6362,1.8438-2.5625,0.71185-0.66625,1.1562-1.2742,1.1562-1.625,0-0.81656,0.7269-2.8839,1.4062-3.9688,0.46397-0.74091,0.59675-1.2803,0.59375-2.625-0.005-2.7204,0.0241-2.7048-2.3125-3.0625-2.766-0.42343-5.3976-1.287-8.8438-2.9062-3.7592-1.7663-5.4134-2.2666-9.9062-2.9688zm1.7812,7.7188c0.45191,0.0362,0.90642,0.16825,1.6875,0.4375,3.3874,1.1677,4.5591,2.3106,4.2188,4.125-0.1498,0.7985-0.19162,0.80934-2.5312,1.25-1.2979,0.24445-3.0713,0.77771-3.9375,1.1875-0.86619,0.40979-2.1867,0.89807-2.9375,1.0938-2.0131,0.52471-3.0451,0.39992-6.3125-0.75l-2.9688-1.0312,2.5312-2.1875c2.2654-1.9686,2.7135-2.2474,4.6875-2.9062,1.2036-0.40173,2.9438-0.86109,3.875-1.0312,0.78629-0.14368,1.2356-0.2237,1.6875-0.1875zm-80.25,13.875-1.4375,0.65625c-2.2344,1.0229-8.0375,5.8467-8.0375,6.1461,0,0.52882,3.2765,7.6404,2.6113,9.4212-0.99271,2.6574,7.4044,7.6911,11.614,11.077,1.3185,1.0603,10.771,4.9149,10.907,4.875,0.13544-0.0399,0.3519-0.46702,0.46875-0.9375,0.52249-2.1037,3.728-8.9951,4.4362-10.3l3.69-2.66-1.31-1.44c-1.4174-1.5508-2.4347-3.2959-2.75-4.7812l-0.1875-0.9375-2.5625,0.0625-2.5625,0.0937-2.6562-1.2812c-2.3764-1.1607-2.8449-1.5424-4.9062-3.6875-1.919-1.997-2.3711-2.61-2.8125-3.9062-0.28888-0.8484-0.76789-2.0166-1.0625-2.5938l-0.53125-1.0625zm95.188,3.4688c2.063-0.049,3.278,0.42639,5.3125,1.8438,1.6505,1.1499,1.6792,1.2522,1.7188,5.8125l0.0312,3.4062-1.6875,0.15625c-0.92813,0.0936-2.4536,0.28683-3.375,0.4375-1.5954,0.26088-1.6651,0.32167-1.8125,1.0625-0.26935,1.354-1.1587,3.9898-1.75,5.1562-1.069,2.1088-1.0511,2.0832-2.5938,1.125-2.0564-1.2773-3.0719-3.5688-3.6875-8.5-0.20597-1.65-0.4241-3.26-0.5-3.5625-0.11453-0.4564,0.0359-0.62633,0.9375-1.0625,1.3249-0.64093,2.903-2.5259,3.625-4.3125l0.53125-1.3125,2.3125-0.1875c0.33373-0.0261,0.64279-0.0555,0.9375-0.0625zm-61.625,16.844-0.8125,1c-0.44478,0.56159-1.4406,1.3905-2.2188,1.8438-1.598,0.93086-8.117,12.185-7.672,12.63,0.25637,0.25637,5.6376,2.2203,8.2188,3,0.85341,0.25781,8.6503-1.3883,9.7604-1.3774l1.9688,0.0312-4.3696-7.9087c-2.4961-3.2314-2.7094-3.6091-3.8125-6.5l-1.0625-2.7188z"
         style="color:#000000;enable-background:accumulate;"
         fill="#656565"
         transform="translate(-760.05951,-37.486981)"
         id="path156" />
      <path
         style="enable-background:accumulate;color:#000000;"
         d="m-236.87,462.63-15.013-13.168c-1.0798-0.94709-2.3179-3.0577-3.0119-4.4272-0.80238-1.5834-2.0628-3.0411-3.4618-4.0036-2.0131-1.3851-2.8102-1.5757-9.3808-2.2437-7.7077-0.78355-9.2904-1.2082-14.75-3.9574-2.6045-1.3116-4.7619-1.954-8.2304-2.4508l-4.7007-0.67326-4,1.7122c-3.7656,1.6119-4.4542,1.7343-11.75,2.0877-4.2625,0.20647-9.2595,0.64609-11.105,0.97693-2.9223,0.52402-4.1464,0.46839-9.5-0.43178-7.0326-1.1825-26.033-2.2399-28.343-1.5773-3.5565,1.02-6.6715,3.2672-9.8434,7.1011-1.7681,2.1371-4.4389,4.8099-5.935,5.9396-2.169,1.6376-2.8855,2.5513-3.5355,4.5083-0.44838,1.3499-1.9483,4.1213-2.2023,4.2783-3.4859,2.6338-8.7799,12.183-7.8392,12.585"
         stroke="#000"
         stroke-miterlimit="4"
         stroke-dasharray="none"
         stroke-width="0.92418653"
         fill="none"
         id="path158" />
      <g
         transform="matrix(0.65693606,0,0,0.77831144,54.982862,90.117133)"
         stroke-dasharray="none"
         stroke-miterlimit="4"
         stroke-width="1.2924726"
         id="g178">
        <path
           fill="#FD5"
           d="m-656.47,344.3s-1.2092,1.3436-2.6871,1.6123c-1.4779,0.26871-1.881,0.80614-2.8215,0.67178-0.94049-0.13436-1.3436-0.94049-2.4184-0.40307-1.0748,0.53743-1.2092,0.26871-1.6123,0.94049-0.40307,0.67178-0.13436,1.6123-0.13436,1.6123s-0.13435,1.3436-0.40307,1.881c-0.26871,0.53743-0.53742,1.0748-0.53742,1.6123v1.7466l0.40307,1.4779,0.94049,0.94049,1.881,0.94049,0.67178,1.3436,1.2092,1.0748,0.26871-2.4184,1.3436-0.94049,1.2092,0.13436c0.67178,0.13435,3.3589,0.53742,3.3589,0.53742s0.80613,0.53743,1.0748,1.3436c0.26871,0.80614,0.80613,0.9405,0.26871,1.7466-0.53743,0.80614-0.67178,1.4779-1.4779,1.4779-0.80613,0-1.6123,0.40307-2.5528,0.13435-0.9405-0.26871-2.6871-0.26871-2.6871-0.26871l-1.7466-0.94049-0.53743-0.67178s0.26872,1.0748-0.13435,1.6123c-0.40307,0.53743-0.9405,1.0748-0.9405,1.0748l-0.40306,1.7466,0.26871,0.94049,1.0748,0.80614,0.40307,1.3436,1.4779-0.67178s0,0.80613,0.67178,0.80613,2.284-0.53742,2.284-0.53742h3.4933s5.2399,0.40307,6.1804,0.40307c0.94049,0,1.881-0.13436,1.881-0.13436s1.0748-0.13435,1.4779,0.67178c0.40307,0.80614,1.0748,1.6123,1.7466,2.0153,0.67178,0.40307,2.1497,1.2092,2.8215,1.6123,0.67178,0.40306,2.0153,1.3436,2.0153,1.3436l1.3436,2.4184,1.3436-0.53743s0.80614,0.94049,1.2092,1.4779c0.40307,0.53742,1.6123,0.94049,2.2841,1.2092,0.67178,0.26871,1.6123,0,2.284,1.2092,0.67178,1.2092,2.1497,1.6123,2.284,2.284,0.13436,0.67178-0.67178,2.6871-0.67178,3.3589,0,0.67178,1.0748,0.53743,0.53743,2.1497-0.53743,1.6123-0.9405,2.8215-0.80614,3.4933,0.13436,0.67178-0.26871,1.3436-0.26871,2.9558,0,1.6123,0.40307,1.881,0.40307,1.881l0.13435,4.0307s0.40307,3.2245,0.80614,3.8963c0.40307,0.67178,1.881,1.2092,2.1497,2.1497,0.26871,0.94049,0.80613,2.0153,0.94049,2.4184,0.13435,0.40306,0.67178,1.7466,0.26871,2.6871-0.40307,0.94049-1.7466,2.9558-2.5528,4.7025-0.80614,1.7466-3.762,9.2706-4.9712,10.748-1.2092,1.4779-4.9712,6.8522-4.9712,6.8522s-1.3436,4.8368-2.1497,5.9117c-0.80614,1.0748-1.2092,1.881-2.1497,2.4184-0.94049,0.53742-2.1497,1.0748-2.6871,1.0748-0.53742,0-0.80613-0.67178-2.284-0.26872-1.4779,0.40307-2.8215,2.2841-2.8215,2.2841s-1.0748,1.0748-1.2092,1.881c-0.13436,0.80614-0.94049,1.7466,0,2.4184,0.94049,0.67178,2.9558,0.80614,2.9558,0.80614s-0.67178,1.7466-0.13435,2.284c0.53742,0.53742,3.2245,0.53742,3.2245,0.53742s-0.26871,1.881,0.80614,1.881,2.6871-0.40307,2.6871-0.40307,0,2.0153,1.2092,1.7466c1.2092-0.26871,1.7466-1.881,2.1497-0.80614,0.40307,1.0748,1.6123,3.0902,2.9558,2.4184,1.3436-0.67178,3.8963-1.0748,4.9712-1.881,1.0748-0.80614,2.9558-0.53743,3.4932-2.1497,0.53743-1.6123,0.40307-2.6871,1.0748-3.8963,0.67178-1.2092,1.6123-1.7466,2.5528-3.6276,0.94049-1.881,3.762-6.9865,4.5681-8.4644,0.80614-1.4779,4.165-5.9117,5.1055-7.927s4.0307-6.046,5.3742-8.3301c1.3436-2.284,2.9558-4.2994,3.6276-5.5086,0.67178-1.2092,1.2092-2.5528,2.8215-3.6276s4.2994,0.94049,4.2994,0.94049,7.6583,0.67178,9.4049,0.67178,6.7178,0.13436,7.5239-0.40307c0.80614-0.53742,6.8522-3.2245,7.3896-3.2245,0.53742,0,6.5834-2.9558,8.5988-3.3589,2.0153-0.40306,7.3896-4.5681,9.4049-4.2994,2.0153,0.26871,7.6583-1.0748,9.808-0.67178,2.1497,0.40307,3.6276,0.67178,3.762,1.2092,0.13435,0.53743,1.3436,3.2246,2.8215,4.4338s0.13435,1.881,5.3742,4.9712c5.2399,3.0902,8.5988,2.9558,9.4049,3.8963,0.80614,0.9405,0.13436,3.3589,2.4184,4.2994,2.284,0.94049,2.8215-0.13436,3.2246,1.0748,0.40306,1.2092,0.80613,1.4779,1.6123,3.3589,0.80613,1.881,2.0153,2.1497,2.1497,3.8963,0.13436,1.7466-0.13435,4.9712-0.13435,4.9712s-2.284,1.7466-2.5528,2.8215c-0.26871,1.0748,0.53743,4.0307-0.94049,5.5086s-4.7025,4.0307-4.7025,4.0307-1.6123,0.9405-2.1497,0.9405c-0.53742,0-3.8963,0-4.9712,0.67178-1.0748,0.67178-1.4779,0.67178-1.7466,1.6123-0.26871,0.94049-0.80614,1.0748-0.26871,1.7466,0.53742,0.67178,2.4184,0.26871,2.0153,0.94049-0.40307,0.67178-0.67178,1.0748-0.53743,1.881,0.13436,0.80613,0.67178,1.4779,1.3436,1.4779,0.67179,0,2.5528-0.40307,2.5528-0.40307s-0.26871,1.3436,0.53742,1.4779c0.80614,0.13436,2.0153-0.26871,3.0902-0.53742,1.0748-0.26872,4.2994-0.67178,5.1055-0.9405,0.80614-0.26871,2.2841,0.9405,2.8215-0.80613,0.53742-1.7466,0.67178-3.6276,0.94049-4.165,0.26871-0.53742,1.0748-3.3589,2.1497-4.5681,1.0748-1.2092,2.9558-5.1055,3.4933-5.7773,0.53742-0.67178,2.5528-3.4932,2.8215-4.4338,0.26872-0.94049,0.80614-3.8963,1.0748-5.2399,0.26871-1.3436,0.40307-3.4933,0.13436-4.8368-0.26871-1.3436-2.284-4.9712-0.94049-4.9712,1.3436,0,2.8215,0.80613,4.165,0.53742,1.3436-0.26871,0.80614-0.53742,3.4933,1.3436,2.6871,1.881,4.7025,0.94049,6.1804,3.2246,1.4779,2.284,3.4933,5.643,3.4933,6.8522s1.6123,4.2994,2.0153,6.7178c0.40307,2.4184-0.67178,5.2399-1.0748,6.3147-0.40307,1.0748,0.80614,1.0748-2.0153,2.1497-2.8215,1.0748-5.2399,0.67178-6.3147,1.4779-1.0748,0.80613-1.881,0.40306-2.4184,1.7466-0.53743,1.3436-0.67178,2.6871-0.67178,3.3589,0,0.67178,2.8215,1.6123,2.8215,1.6123s0.26871,1.7466,0.80614,2.284c0.53742,0.53742,1.0748,1.3436,3.0902,0.80614,2.0153-0.53743,2.284-2.4184,2.9558-1.3436,0.67178,1.0748,3.4933,1.4779,3.4933,1.4779s3.762-0.67178,4.2994-1.6123c0.53743-0.94049,0.67178-3.6276,0.94049-4.4338,0.26872-0.80614,0.40307-1.7466,1.7466-3.0902,1.3436-1.3436,2.1497-0.40307,2.2841-2.9558,0.13435-2.5528-0.53743-2.9558-0.80614-4.7025-0.26871-1.7466-2.1497-9.4049-2.4184-10.614-0.26871-1.2092,0-4.8368,0.26871-5.5086,0.26872-0.67178,1.0748-4.165-0.40307-4.9712-1.4779-0.80614-4.0307-1.3436-5.3742-1.881-1.3436-0.53742-3.2245-1.6123-4.165-3.0902-0.94049-1.4779-1.881-3.3589-2.4184-3.8963-0.53743-0.53743-3.4933-4.0307-5.1055-5.7773-1.6123-1.7466-3.4933-2.2841-3.4933-2.2841s-1.4779-4.8368-2.6871-7.3896-2.2841-4.4338-2.8215-5.7773c-0.53742-1.3436-2.6871-5.643-3.6276-6.7178s-3.6276-3.762-3.6276-3.762l6.5834-1.4779s5.5086-0.40307,6.8522,0.13436c1.3436,0.53742,5.7773,1.0748,7.1209,1.3436,1.3436,0.26871,4.4338,1.6123,6.3147,1.6123,1.881,0,7.6583,0.53743,9.4049-0.13435s4.8368-0.67179,6.1804-1.2092c1.3436-0.53742,3.8963-2.284,4.5681-2.6871,0.67178-0.40307,2.5528-1.7466,3.3589-3.3589,0.80614-1.6123,2.5528-5.5086,2.1497-7.1209-0.40307-1.6123-1.881-4.5681-2.284-5.1055-0.40307-0.53743-2.5528-3.6276-3.4933-4.5681-0.94049-0.94049-0.67178-1.4779-3.0902-2.5528-2.4184-1.0748-3.762-1.6123-5.643-1.7466-1.881-0.13436-3.3589,0.13435-5.2399,0.26871-1.881,0.13435-3.3589,1.0748-3.3589,1.0748s-0.80614,0.94049,0.26871,1.0748c1.0748,0.13435,4.2994,0.80613,5.3742,0.53742s2.6871-1.0748,3.762-0.26871c1.0748,0.80613,4.0307,2.4184,5.1055,3.2245,1.0748,0.80614,3.8963,3.3589,4.165,4.5681,0.26871,1.2092,0.80614,3.0902,0.40307,4.7025s0.26871,3.762-2.1497,4.7025-4.2994,2.5528-7.2552,3.0902c-2.9558,0.53743-4.9712,2.1497-7.1209,1.3436-2.1497-0.80613-4.8368-0.53743-6.8522-1.0748-2.0153-0.53742-9.6736-2.1497-10.345-2.1497-0.67178,0-9.0018-1.7466-10.077-1.881-1.0748-0.13435-11.152,0-11.152,0s-8.0614-1.3436-8.7331-1.3436c-0.67178,0-5.5086-0.53743-8.3301-0.53743s-8.8675,0.80614-8.8675,0.80614c-1.881-0.26871-8.4644,1.881-11.689,1.7466-3.2246-0.13435-12.764-0.67178-14.376-0.80613-1.6123-0.13436-6.5834-0.9405-9.9424-2.1497-3.3589-1.2092-8.3301-4.8368-10.614-5.1055-2.284-0.26871-12.495-4.0307-14.376-4.4338-1.881-0.40307-4.8368-0.53742-7.2552-1.4779-2.4184-0.94049-7.2552-4.7025-9.6736-6.1804s-9.6736-6.046-9.6736-6.046,0.80613,0.13436,0.67178-0.67178c-0.13436-0.80613-1.0748-2.284-2.0153-2.6871-0.9405-0.40307-2.6871-1.2092-3.762-0.80614-1.0748,0.40307-3.4933,1.3436-3.4933,1.3436s-2.6871-1.3436-4.4338-1.6123c-1.7466-0.26871-4.5681-0.13435-5.2399,0-0.67178,0.13436-3.0902,0.94049-3.762,1.2092-0.67178,0.26871-2.1497,1.3436-2.1497,1.3436z"
           id="path160" />
        <path
           d="m94.515,384.06c0.06318,0.37907,0.37907,0.8845,0.56861,1.1372,0.18954,0.25271,0.12636,0.31589,0.8845,0.56861,0.75814,0.25271,1.074,0.44225,1.9585,0.44225s1.6426-0.63179,1.3899-0.0632c-0.25271,0.5686-0.8845,1.074-0.8845,1.074s-0.50543,0.37907-0.82132,0.44225c-0.31589,0.0632-0.44225,0.18954-0.94768,0.12636-0.50543-0.0632-3.0957-0.63179-3.0957-0.63179zm-1.1118,4.8236c0,0.59116,0.45979,1.9048,0.45979,1.9048,0.39411,0.3941,1.5107,1.1823,1.5107,1.1823,0.65684,0.32843,2.3646,0.59116,2.3646,0.59116,1.248-0.13136,3.4156-0.72252,3.4156-0.72252,0.78821-0.13137,3.3499,0,3.3499,0,0.78821,0,1.7735,0.19705,1.7735,0.19705,0.45979,0.45979,1.248,1.1823,1.248,1.1823,0.0657,0.45979,0.13137,2.5617,0.13137,2.5617-0.13137,0.26274-0.78821,1.5764-0.78821,1.5764-0.45979,0.4598-1.4451,1.1166-1.4451,1.1166,0-0.45979,0.13137-2.1676,0.13137-2.1676-0.39411-0.72252-1.5107-1.6421-1.5107-1.6421-0.91958-0.26273-3.4156-0.72252-3.4156-0.72252-0.32842,0-1.9048,0.3941-1.9048,0.3941-1.3137,0.26274-2.5617,0.13137-2.5617,0.13137-0.65684-0.0657-1.3794-0.26274-1.3794-0.26274-0.65684-0.45979-1.1823-1.248-1.1823-1.248-0.26274-0.59116-0.45979-1.7078-0.45979-1.7078,0-0.78822,0.26274-1.9705,0.26274-2.3646zm1.7735,11.955c0.19705,0.59116,1.1823,1.3137,1.1823,1.3137,0.78821-0.4598,1.248-0.52548,1.248-0.52548,0.26274,0.19705,2.5617-1.4451,2.5617-1.4451,0.32842,1.1166,0.8539,1.3794,0.8539,1.3794,0.72253,1.1166,2.0362,0.59116,2.0362,0.59116,1.051,0.72252,1.9048-0.39411,1.9048-0.39411,0.72253,0.32842,2.6931-0.45979,2.6931-0.45979,1.4451,1.1823,2.6274,0.26274,2.6274,0.26274,1.051,1.051,1.445,1.1166,1.445,1.1166,1.5764-0.59116,3.6783-0.26274,3.6783-0.26274,0.59116-0.91958,1.3137-0.85389,1.3137-0.85389,1.1166-0.72253,2.3646-1.3137,2.3646-1.3137,1.445-0.19706,3.6126-0.98527,3.6126-0.98527,0.72253-0.91958,1.1823-1.248,1.1823-1.248,1.1823-0.65685,2.6274-1.6421,2.6274-1.6421,0.26274-0.32842,0.72253-1.7078,0.72253-1.7078l0.39411-0.13136c0.3941,2.8244,0.26274,3.0215,0.26274,3.0215-1.1166,1.5107-1.7735,2.0362-1.7735,2.0362-0.65685,1.3137-0.8539,2.5617-0.8539,2.5617-0.26274,1.3137-0.59116,1.9048-0.59116,1.9048-0.32842-0.59116-0.59116-0.3941-0.59116-0.3941-1.5764,1.248-2.496,0.78821-2.496,0.78821-1.9048,1.5764-2.496,1.3137-2.496,1.3137-0.39411,0.98526-1.1823,2.2333-1.1823,2.2333l-0.59116,0.13137c-1.1166-0.72253-2.2333-1.7735-2.2333-1.7735-0.59116-0.72253-1.4451-1.5107-1.4451-1.5107-1.5107,0-3.3499,0.13136-3.3499,0.13136-0.78822,0.0657-6.1086-0.32842-6.1086-0.32842-1.248-0.0657-3.6126-0.13137-3.6126-0.13137-0.26274,0.13137-1.4451,0.45979-1.4451,0.45979l-1.5764-1.051c-0.32842,0.52548-0.8539,1.051-0.8539,1.051-0.06568-0.26273-0.26274-1.445-0.26274-1.445-0.45979-0.26274-1.3137-1.248-1.3137-1.248l0.39411-1.1823zm11.626-17.538c0,0.4598,0.39411,0.91959,0.39411,0.91959,1.1166,0.13136,2.0362-0.26274,2.0362-0.26274,0.3941-0.0657,2.1676-0.19705,2.1676-0.19705,0.59116,0.19705,1.4451,0.52547,1.4451,0.52547,0.72253,0.39411,0.65684,0.98527,0.65684,0.98527v1.1823c-0.3941,0.3941-1.051,1.248-1.051,1.248-0.32842,0.39411-1.051,1.051-1.051,1.051-0.45979,0.0657-1.3137,0.0657-1.3137,0.0657-1.051-0.26273-2.1019-0.52547-2.1019-0.52547-0.91958-0.32842-1.5107-0.52548-1.5107-0.52548,0.19706,0.59116,0.65685,1.248,0.65685,1.248,0.0657,0.26273-1.051,0.19705-1.051,0.19705-0.78822-0.72253-1.248-1.5764-1.248-1.5764,0-0.91958,0.39411-1.9048,0.39411-1.9048,0.45979-0.59116,1.5764-2.4303,1.5764-2.4303zm20.625-2.3646c0.0657,0.72252,0.0657,1.248,0.0657,1.248-0.26274,0.26274-0.98527,1.051-0.98527,1.051-0.3941,0.39411-0.85389,0.78821-0.85389,0.78821-0.52548,0.26274-1.5764,0.65685-1.5764,0.65685-0.8539,0.0657-1.7078-0.13137-1.7078-0.13137-1.051-0.19706-2.0362,0.32842-2.0362,0.32842h-0.98527c-0.26273,0-2.2333-0.59116-2.2333-0.59116l0.26274,1.5107c0.39411,0.52548,1.4451,1.1823,1.4451,1.1823,0.52547,0.26274,2.3646,0.8539,2.3646,0.8539,1.051,0.13137,2.6931-0.0657,2.6931-0.0657,0.85389-0.26273,2.7587-1.445,2.7587-1.445,0.72253-0.52548,1.7735-1.3137,1.7735-1.3137,0.13137-0.26274,0.13137-1.1166,0.13137-1.1166-0.13137-0.32842-0.32842-1.051-0.32842-1.051-0.13137-0.3941-0.78822-1.9048-0.78823-1.9048zm-7.5537,1.051c-0.45979,0.26273-1.3794,0.91958-1.3794,0.91958-0.39411,0.32842,1.1823,0.32842,1.1823,0.32842,0.72252-0.19705,2.2333-0.13137,2.2333-0.13137,0.91958-0.26274,2.5617-0.32842,2.5617-0.32842,0.78821,0.19705,1.051,0.32842,1.051,0.32842l0.32842,0.32842c0.0657-0.52547-0.26274-1.5107-0.26274-1.5107-0.59116-0.52547-1.4451-0.78821-1.4451-0.78821-1.9048,0-2.8244,0.19705-2.8244,0.19705-0.59116,0.26274-1.4451,0.65685-1.4451,0.65685zm-0.40714,27.128c0.4685,0,5.1535-1.2884,5.1535-1.2884,0.58562,1.1712,1.1712,1.4055,1.1712,1.4055,1.0541,1.4055,3.0452,1.5226,3.0452,1.5226,0.81987,1.1712,2.4596,1.2884,2.4596,1.2884,0.81987,2.3425,3.2795,2.811,3.2795,2.811-1.2884,2.9281,0,3.8651,0,3.8651-1.1712,2.5767-2.2254,4.685-2.2254,4.685-0.11713,0.46849-0.70275,1.0541-0.70275,1.0541-0.23425-0.58563-0.937-2.4596-0.937-2.4596,0.35138-1.2884,1.1712-2.9281,1.1712-2.9281-1.4055-1.4055-2.1082-2.4596-2.1082-2.4596-0.70275-0.58562-1.874-1.2884-1.874-1.2884-1.4055-0.93699-3.0452-1.9911-3.0452-1.9911-0.46849-0.35138-1.2884-1.1712-1.2884-1.1712-1.0541,0.58563-1.5226,0.937-1.5226,0.937-0.23425-0.4685-0.81987-2.1082-0.81987-2.1082-0.4685-0.35137-1.7569-1.874-1.7569-1.874zm11.595,17.803c0.93699,0.70274,2.6939,3.748,2.6939,3.748,0.58562,1.2884,2.1082,3.3966,2.1082,3.3966,0.70274,1.6397,2.9281,2.6939,2.9281,2.6939,0.46849,2.3425,2.4596,3.1624,2.4596,3.1624-0.35137,2.3425,1.7569,3.8651,1.7569,3.8651-0.35138,1.1712-0.11713,2.1082-0.11713,2.1082-0.23425,1.2884-0.93699,4.2165-0.93699,4.2165-1.0541,1.4055-2.4596,3.8651-2.4596,3.8651l-1.7569,3.0452c-0.23425,0.70274-5.9734,13.352-5.9734,13.352l0.81987-4.4507c0.35138-1.7569,1.0541-4.4507,1.0541-4.4507v-3.8651c0-1.2884,0.11713-2.811,0.11713-2.811,0-1.0541-0.81987-3.3966-0.81987-3.3966l2.811-4.3336-0.81987-4.3336-2.2254-2.1082c-0.35137-0.93699-1.6397-1.6397-1.6397-1.6397-0.23425-1.1712-0.23425-4.5678-0.23425-4.5678,0-1.0541-0.23425-4.3336-0.23425-4.3336,0.11712-0.4685,0.4685-3.1624,0.4685-3.1624zm35.02,22.722c0.4685-1.6397,3.0452-5.622,3.0452-5.622,2.5767-2.1082,3.6308-2.5767,3.6308-2.5767,1.6397-1.4055,3.8651-3.3966,3.8651-3.3966-0.81987-1.0541-3.8651,0.35138-3.8651,0.35138-1.0541-0.23425-3.1624-5.5048-3.1624-5.5048-1.0541,1.1712-2.9281,4.3336-2.9281,4.3336-1.1712,1.4055-2.2254,1.9911-2.2254,1.9911-0.81987-1.4055-1.5226-1.9911-1.5226-1.9911-2.3425,3.1624-3.1624,3.1624-3.1624,3.1624-2.811,3.6309-3.8651,3.5137-3.8651,3.5137-1.5226,3.1624-2.6939,3.0452-2.6939,3.0452-1.4055,0.11712-2.6939,4.0994-2.6939,4.0994-0.23425,0.4685-1.0541,4.2165-1.0541,4.2165-0.70275,2.2254-1.7569,5.1535-1.7569,5.1535-0.70275,1.4055-1.874,3.5137-1.874,3.5137-0.58562,1.1712-1.4055,2.6939-1.4055,2.6939-0.35138,1.4055-0.4685,3.8651-0.4685,3.8651l7.6131-11.83c0.11712-0.4685,6.9103-9.9556,6.9103-9.9556,0.46849,0,3.3966-0.11712,3.3966-0.11712,1.0541,0.23425,4.2165,1.0541,4.2165,1.0541zm-36.894,25.767-1.5226,2.3425c-0.81987,1.1712-1.874,2.5767-1.874,2.5767-0.81987,0.58562-1.874,1.0541-1.874,1.0541-0.4685,0.23425-1.874,0.70275-1.874,0.70275l-2.3425-0.35138-1.4055,1.0541c-0.4685,0.35138-1.1712,1.874-1.1712,1.874-0.81987,0.937-1.7569,1.4055-1.7569,1.4055l0.35137-2.5767,0.11713-1.0541c-1.7569,0.81987-2.9281,1.6397-2.9281,1.6397-0.81987,0.11713-1.6398-0.4685-1.6398-0.4685-0.35137-0.81987-1.1712-1.874-1.1712-1.874l-1.2884,2.4596,1.4055,1.2884h1.5226c0.11713,1.1712,0.58562,2.4596,0.58562,2.4596,0.11713,0.46849,1.4055,0.93699,1.4055,0.93699,0.46849,0.11713,1.2884,0.35138,1.2884,0.35138l0.81987,1.2884c1.1712,0.35138,2.4596,0.35138,2.4596,0.35138,0.4685-0.23425,0.81987-0.4685,0.81987-0.4685,0,1.1712,0.70275,1.7569,0.70275,1.7569,0.70274-0.23424,2.5767-1.2884,2.5767-1.2884l0.4685,2.3425,2.2254,0.4685c1.2884-0.11712,3.2795-0.81987,3.2795-0.81987,1.0541-0.4685,3.1624-1.4055,3.1624-1.4055,0.70275-0.35137,1.7569-0.937,1.7569-0.937,0-0.46849,0.937-2.811,0.937-2.811,0.93699-0.937,2.4596-3.5137,2.4596-3.5137l1.4055-2.5767c0.35137-1.5226,1.0541-4.0994,1.0541-4.0994,0.70275-1.1712,3.3966-5.2706,3.3966-5.2706l-3.2795,2.5767c-0.58562,0.81988-2.1082,3.0452-2.1082,3.0452-1.1712,1.7569-2.5767,4.9192-2.5767,4.9192-0.81987,1.6397-2.3425,3.8651-2.3425,3.8651-0.4685,0.81987-1.874,2.4596-1.874,2.4596-1.5226,0.937-3.3966,1.2884-3.3966,1.2884-0.81987-0.11713-2.2254-0.70275-2.2254-0.70275l-0.11712-1.5226-1.2884,0.46849c-1.2884,0.937-3.0452,0.937-3.0452,0.937-0.11712-0.58562,0.23425-2.2254,0.23425-2.2254-0.4685,0.11713-2.1082,0.58563-2.1082,0.58563-0.35137-0.81987,0-1.7569,0-1.7569,0.58562-0.4685,2.9281-1.874,2.9281-1.874l1.5226-0.23425c1.4055-0.35137,3.2795-1.2884,3.2795-1.2884,0.23425-0.46849,3.0452-7.3788,3.0452-7.3788zm42.699-25.82c2.3409-0.50162,7.5242-2.1737,7.5242-2.1737,1.1704-1.3376,8.5275-5.0162,8.5275-5.0162,3.0097-2.6753,7.357-5.685,7.357-5.685,3.0097-1.8393,7.5242-3.5113,7.5242-3.5113,2.8425-1.3376,7.8586-3.0097,7.8586-3.0097,3.0097-0.66882,6.521-0.83603,6.521-0.83603,3.1769,0,6.6882,0.50162,6.6882,0.50162,1.672,1.0032,4.849,2.3409,4.849,2.3409,1.3376,1.5048,3.5113,4.6817,3.5113,4.6817,0.83603,1.3376,2.0065,3.1769,2.0065,3.1769,0.66882,1.3376,2.3409,4.1801,2.3409,4.1801,1.672,2.6753,3.3441,4.0129,3.3441,4.0129,1.5048,1.5048,3.6785,2.6753,3.6785,2.6753,1.3376,0.33441,6.521,1.3376,6.521,1.3376,0.66882,0.1672,6.6882,2.0065,6.6882,2.0065,2.0065,0.16721,5.8522,0.50162,5.8522,0.50162l3.8457,2.3409c2.5081,2.0065,4.6818,5.1834,4.6818,5.1834,0,1.3376,0.33441,3.0097,0.33441,3.0097l-3.6785-4.6817c-1.5048-0.83603-4.3473-2.0065-4.3473-2.0065-1.3376-0.66882-3.6785-1.3376-3.6785-1.3376-1.0032-0.33441-4.3473-0.33441-4.3473-0.33441l-2.8425-0.1672c-2.5081,0-5.0162,0.1672-5.0162,0.1672-1.5048,0.16721-3.5113,0.66882-3.5113,0.66882l-3.5113-0.50161-2.5081-1.1704c-0.50161-0.66882-1.0032-3.0097-1.0032-3.0097-1.1704-0.50162-8.0258-3.1769-8.0258-3.1769l-6.6882-5.1834c-0.50162-0.83603-4.1801-5.1834-4.1801-5.1834-0.33441-0.83603-4.6818-2.0065-4.6818-2.0065l-10.2,2.0065-12.875,5.8522c-2.1737,0.66882-6.8554,2.3409-6.8554,2.3409l-4.0129,2.6753-6.3538,0.33441zm102.83,8.3602c-0.66882-0.1672-1.672,0.83603-1.672,0.83603,1.0032,1.672,1.5048,2.0065,1.5048,2.0065,0.66882,2.1737,1.672,5.685,1.672,5.685,0.50162,1.672,0.83603,1.8392,0.83603,1.8392l1.1704-4.0129c0-1.8393-0.33441-3.5113-0.33441-3.5113-1.1704-1.0032-3.1769-2.8425-3.1769-2.8425zm-19.061,5.685c0,0.66882-3.3441,5.685-3.3441,5.685-1.1704,1.1704-2.6753,3.1769-2.6753,3.1769-1.3376,1.3376-2.8425,5.0162-2.8425,5.0162-0.66882,2.6753-0.83603,5.0162-0.83603,5.0162-0.83602,2.3409-2.5081,4.849-2.5081,4.849-2.5081,1.8393-4.1801,1.8393-4.1801,1.8393l-0.66882-1.8393c-0.83603,0.50162-2.5081,1.1704-2.5081,1.1704-1.0032,0.50162-2.1737-0.33441-2.1737-0.33441-0.1672-0.83603-0.33441-1.672-0.33441-1.672-0.83602-1.1704-2.1737-1.8393-2.1737-1.8393l-2.8425,1.1704,0.26505,1.818,1.7414,0.65951c-0.21755-0.0824-0.67963,1.3293-0.49115,2.1642,0.12106,0.53623,0.89854,0.6229,0.89854,0.6229,0.83139,0.82774,2.7778,0.80651,2.7778,0.80651l0.99494,1.1187c2.3409-0.16721,5.5178-1.1704,5.5178-1.1704,1.3376-0.1672,4.4203-0.50627,4.4203-0.50627,0.66882-1.1704,1.0716-2.6235,1.0716-2.6235,0.33441-1.672,2.3233-6.1561,2.3233-6.1561,0.50162-1.8392,5.7284-8.9395,5.7284-8.9395l1.8392-6.521v-3.5113zm28.052,15.682c-0.72652,1.2714-1.8163,2.5428-1.8163,2.5428-1.6347,1.6347-2.1796,2.5428-2.1796,2.5428-0.36326,1.453-1.0898,3.8143-1.0898,3.8143-2.3612,2.5428-3.9959,2.7245-3.9959,2.7245-1.0898,0-2.1796-0.72653-2.1796-0.72653-1.8163,0.72653-4.1775,1.0898-4.1775,1.0898-1.6347-0.72653-2.1796-1.6347-2.1796-1.6347-1.2714-1.0898-3.0877-3.0877-3.0877-3.0877l-0.90816,4.1775c0.90816,0.36326,3.2694,1.0898,3.2694,1.0898,0,1.0898,1.0898,2.9061,1.0898,2.9061l2.7245,0.18163,1.998-1.8163,1.8163,1.6347c0.72652,0,3.8143,0.18163,3.8143,0.18163,0.72653-0.36326,2.1796-1.0898,2.1796-1.0898l1.0898-2.9061c0.36326-0.90816,0.5449-2.1796,0.5449-2.1796,1.0898-1.0898,1.9174-3.0372,1.9174-3.0372l2.0785-1.6852c-0.18163-0.90816-0.90816-4.7224-0.90816-4.7224zm16.967-75.55-3.4184,6.2865-3.6914,2.8874c-1.6054,0.9174-8.4859,2.9815-8.4859,2.9815-2.7522,0-9.1739,0.22935-9.1739,0.22935-2.5228-0.22935-11.467-1.8348-11.467-1.8348-3.8989-0.68804-8.2566-1.6054-8.2566-1.6054-4.8163-0.68804-8.0272-0.91739-8.0272-0.91739-2.0641-0.22935-10.091,1.6054-10.091,1.6054l4.8163,3.6696c2.2935,1.1467,6.1924,3.4402,6.1924,3.4402,0.68805,0.9174,5.0457,6.8805,5.0457,6.8805l-1.6054-5.275-3.2109-4.3576-1.1467-0.68804c2.5228-0.68805,6.6385-1.8726,6.6385-1.8726l7.7256,0.7477,9.9468,2.0423c1.6054,0.4587,6.4218,0.68805,6.4218,0.68805,0.9174,0,8.9446-0.9174,8.9446-0.9174,0.91739-0.45869,6.2898-3.016,6.2898-3.016,0.9174-0.9174,3.5721-2.9471,3.5721-2.9471,0.9174-0.4587,2.9815-8.0272,2.9815-8.0272z"
           fill="#e9c43f"
           transform="translate(-760.05951,-37.486981)"
           id="path162" />
        <path
           stroke-linejoin="miter"
           d="m103.59,381.79s-1.2092,1.3436-2.6871,1.6123c-1.4779,0.26871-1.881,0.80614-2.8215,0.67178-0.94049-0.13436-1.3436-0.94049-2.4184-0.40307-1.0748,0.53743-1.2092,0.26871-1.6123,0.94049-0.40307,0.67178-0.13436,1.6123-0.13436,1.6123s-0.13436,1.3436-0.40307,1.881c-0.26871,0.53743-0.53742,1.0748-0.53742,1.6123v1.7466l0.40307,1.4779,0.94049,0.94049,1.881,0.94049,0.67178,1.3436,1.2092,1.0748,0.26871-2.4184,1.3436-0.94049,1.2092,0.13436c0.67178,0.13435,3.3589,0.53742,3.3589,0.53742s0.80613,0.53743,1.0748,1.3436c0.26871,0.80614,0.80613,0.9405,0.26871,1.7466-0.53743,0.80614-0.67178,1.4779-1.4779,1.4779-0.80613,0-1.6123,0.40307-2.5528,0.13435-0.9405-0.26871-2.6871-0.26871-2.6871-0.26871l-1.7466-0.94049-0.53742-0.67178s0.26871,1.0748-0.13436,1.6123c-0.40307,0.53743-0.94049,1.0748-0.94049,1.0748l-0.40307,1.7466,0.26871,0.94049,1.0748,0.80614,0.40307,1.3436,1.4779-0.67178s0,0.80613,0.67178,0.80613,2.284-0.53742,2.284-0.53742h3.4933s5.2399,0.40307,6.1804,0.40307c0.94049,0,1.881-0.13436,1.881-0.13436s1.0748-0.13435,1.4779,0.67178c0.40307,0.80614,1.0748,1.6123,1.7466,2.0153,0.67178,0.40307,2.1497,1.2092,2.8215,1.6123,0.67178,0.40306,2.0153,1.3436,2.0153,1.3436l1.3436,2.4184,1.3436-0.53743s0.80614,0.94049,1.2092,1.4779c0.40307,0.53742,1.6123,0.94049,2.2841,1.2092,0.67178,0.26871,1.6123,0,2.284,1.2092,0.67178,1.2092,2.1497,1.6123,2.284,2.284,0.13436,0.67178-0.67178,2.6871-0.67178,3.3589,0,0.67178,1.0748,0.53743,0.53743,2.1497-0.53743,1.6123-0.9405,2.8215-0.80614,3.4933,0.13436,0.67178-0.26871,1.3436-0.26871,2.9558,0,1.6123,0.40307,1.881,0.40307,1.881l0.13435,4.0307s0.40307,3.2245,0.80614,3.8963c0.40307,0.67178,1.881,1.2092,2.1497,2.1497,0.26871,0.94049,0.80613,2.0153,0.94049,2.4184,0.13435,0.40306,0.67178,1.7466,0.26871,2.6871-0.40307,0.94049-1.7466,2.9558-2.5528,4.7025-0.80614,1.7466-3.762,9.2706-4.9712,10.748-1.2092,1.4779-4.9712,6.8522-4.9712,6.8522s-1.3436,4.8368-2.1497,5.9117c-0.80614,1.0748-1.2092,1.881-2.1497,2.4184-0.94049,0.53742-2.1497,1.0748-2.6871,1.0748-0.53742,0-0.80613-0.67178-2.284-0.26872-1.4779,0.40307-2.8215,2.2841-2.8215,2.2841s-1.0748,1.0748-1.2092,1.881c-0.13436,0.80614-0.94049,1.7466,0,2.4184,0.94049,0.67178,2.9558,0.80614,2.9558,0.80614s-0.67178,1.7466-0.13435,2.284c0.53742,0.53742,3.2245,0.53742,3.2245,0.53742s-0.26871,1.881,0.80614,1.881,2.6871-0.40307,2.6871-0.40307,0,2.0153,1.2092,1.7466c1.2092-0.26871,1.7466-1.881,2.1497-0.80614,0.40307,1.0748,1.6123,3.0902,2.9558,2.4184,1.3436-0.67178,3.8963-1.0748,4.9712-1.881,1.0748-0.80614,2.9558-0.53743,3.4932-2.1497,0.53743-1.6123,0.40307-2.6871,1.0748-3.8963,0.67178-1.2092,1.6123-1.7466,2.5528-3.6276,0.94049-1.881,3.762-6.9865,4.5681-8.4644,0.80614-1.4779,4.165-5.9117,5.1055-7.927s4.0307-6.046,5.3742-8.3301c1.3436-2.284,2.9558-4.2994,3.6276-5.5086,0.67178-1.2092,1.2092-2.5528,2.8215-3.6276s4.2994,0.94049,4.2994,0.94049,7.6583,0.67178,9.4049,0.67178,6.7178,0.13436,7.5239-0.40307c0.80614-0.53742,6.8522-3.2245,7.3896-3.2245,0.53742,0,6.5834-2.9558,8.5988-3.3589,2.0153-0.40306,7.3896-4.5681,9.4049-4.2994,2.0153,0.26871,7.6583-1.0748,9.808-0.67178,2.1497,0.40307,3.6276,0.67178,3.762,1.2092,0.13435,0.53743,1.3436,3.2246,2.8215,4.4338s0.13435,1.881,5.3742,4.9712c5.2399,3.0902,8.5988,2.9558,9.4049,3.8963,0.80614,0.9405,0.13436,3.3589,2.4184,4.2994,2.284,0.94049,2.8215-0.13436,3.2246,1.0748,0.40306,1.2092,0.80613,1.4779,1.6123,3.3589,0.80613,1.881,2.0153,2.1497,2.1497,3.8963,0.13436,1.7466-0.13435,4.9712-0.13435,4.9712s-2.284,1.7466-2.5528,2.8215c-0.26871,1.0748,0.53743,4.0307-0.94049,5.5086s-4.7025,4.0307-4.7025,4.0307-1.6123,0.9405-2.1497,0.9405c-0.53742,0-3.8963,0-4.9712,0.67178-1.0748,0.67178-1.4779,0.67178-1.7466,1.6123-0.26871,0.94049-0.80614,1.0748-0.26871,1.7466,0.53742,0.67178,2.4184,0.26871,2.0153,0.94049-0.40307,0.67178-0.67178,1.0748-0.53743,1.881,0.13436,0.80613,0.67178,1.4779,1.3436,1.4779,0.67179,0,2.5528-0.40307,2.5528-0.40307s-0.26871,1.3436,0.53742,1.4779c0.80614,0.13436,2.0153-0.26871,3.0902-0.53742,1.0748-0.26872,4.2994-0.67178,5.1055-0.9405,0.80614-0.26871,2.2841,0.9405,2.8215-0.80613,0.53742-1.7466,0.67178-3.6276,0.94049-4.165,0.26871-0.53742,1.0748-3.3589,2.1497-4.5681,1.0748-1.2092,2.9558-5.1055,3.4933-5.7773,0.53742-0.67178,2.5528-3.4932,2.8215-4.4338,0.26872-0.94049,0.80614-3.8963,1.0748-5.2399,0.26871-1.3436,0.40307-3.4933,0.13436-4.8368-0.26871-1.3436-2.284-4.9712-0.94049-4.9712,1.3436,0,2.8215,0.80613,4.165,0.53742,1.3436-0.26871,0.80614-0.53742,3.4933,1.3436,2.6871,1.881,4.7025,0.94049,6.1804,3.2246,1.4779,2.284,3.4933,5.643,3.4933,6.8522s1.6123,4.2994,2.0153,6.7178c0.40307,2.4184-0.67178,5.2399-1.0748,6.3147-0.40307,1.0748,0.80614,1.0748-2.0153,2.1497-2.8215,1.0748-5.2399,0.67178-6.3147,1.4779-1.0748,0.80613-1.881,0.40306-2.4184,1.7466-0.53743,1.3436-0.67178,2.6871-0.67178,3.3589,0,0.67178,2.8215,1.6123,2.8215,1.6123s0.26871,1.7466,0.80614,2.284c0.53742,0.53742,1.0748,1.3436,3.0902,0.80614,2.0153-0.53743,2.284-2.4184,2.9558-1.3436,0.67178,1.0748,3.4933,1.4779,3.4933,1.4779s3.762-0.67178,4.2994-1.6123c0.53743-0.94049,0.67178-3.6276,0.94049-4.4338,0.26872-0.80614,0.40307-1.7466,1.7466-3.0902,1.3436-1.3436,2.1497-0.40307,2.2841-2.9558,0.13435-2.5528-0.53743-2.9558-0.80614-4.7025-0.26871-1.7466-2.1497-9.4049-2.4184-10.614-0.26871-1.2092,0-4.8368,0.26871-5.5086,0.26872-0.67178,1.0748-4.165-0.40307-4.9712-1.4779-0.80614-4.0307-1.3436-5.3742-1.881-1.3436-0.53742-3.2245-1.6123-4.165-3.0902-0.94049-1.4779-1.881-3.3589-2.4184-3.8963-0.53743-0.53743-3.4933-4.0307-5.1055-5.7773-1.6123-1.7466-3.4933-2.2841-3.4933-2.2841s-1.4779-4.8368-2.6871-7.3896-2.2841-4.4338-2.8215-5.7773c-0.53742-1.3436-2.6871-5.643-3.6276-6.7178s-3.6276-3.762-3.6276-3.762l6.5834-1.4779s5.5086-0.40307,6.8522,0.13436c1.3436,0.53742,5.7773,1.0748,7.1209,1.3436,1.3436,0.26871,4.4338,1.6123,6.3147,1.6123,1.881,0,7.6583,0.53743,9.4049-0.13435s4.8368-0.67179,6.1804-1.2092c1.3436-0.53742,3.8963-2.284,4.5681-2.6871,0.67178-0.40307,2.5528-1.7466,3.3589-3.3589,0.80614-1.6123,2.5528-5.5086,2.1497-7.1209-0.40307-1.6123-1.881-4.5681-2.284-5.1055-0.40307-0.53743-2.5528-3.6276-3.4933-4.5681-0.94049-0.94049-0.67178-1.4779-3.0902-2.5528-2.4184-1.0748-3.762-1.6123-5.643-1.7466-1.881-0.13436-3.3589,0.13435-5.2399,0.26871-1.881,0.13435-3.3589,1.0748-3.3589,1.0748s-0.80614,0.94049,0.26871,1.0748c1.0748,0.13435,4.2994,0.80613,5.3742,0.53742s2.6871-1.0748,3.762-0.26871c1.0748,0.80613,4.0307,2.4184,5.1055,3.2245,1.0748,0.80614,3.8963,3.3589,4.165,4.5681,0.26871,1.2092,0.80614,3.0902,0.40307,4.7025s0.26871,3.762-2.1497,4.7025-4.2994,2.5528-7.2552,3.0902c-2.9558,0.53743-4.9712,2.1497-7.1209,1.3436-2.1497-0.80613-4.8368-0.53743-6.8522-1.0748-2.0153-0.53742-9.6736-2.1497-10.345-2.1497-0.67178,0-9.0018-1.7466-10.077-1.881-1.0748-0.13435-11.152,0-11.152,0s-8.0614-1.3436-8.7331-1.3436c-0.67178,0-5.5086-0.53743-8.3301-0.53743s-8.8675,0.80614-8.8675,0.80614c-1.881-0.26871-8.4644,1.881-11.689,1.7466-3.2246-0.13435-12.764-0.67178-14.376-0.80613-1.6123-0.13436-6.5834-0.9405-9.9424-2.1497-3.3589-1.2092-8.3301-4.8368-10.614-5.1055-2.284-0.26871-12.495-4.0307-14.376-4.4338-1.881-0.40307-4.8368-0.53742-7.2552-1.4779-2.4184-0.94049-7.2552-4.7025-9.6736-6.1804s-9.6736-6.046-9.6736-6.046,0.80613,0.13436,0.67178-0.67178c-0.13436-0.80613-1.0748-2.284-2.0153-2.6871-0.9405-0.40307-2.6871-1.2092-3.762-0.80614-1.0748,0.40307-3.4933,1.3436-3.4933,1.3436s-2.6871-1.3436-4.4338-1.6123c-1.7466-0.26871-4.5681-0.13435-5.2399,0-0.67178,0.13436-3.0902,0.94049-3.762,1.2092-0.67178,0.26871-2.1497,1.3436-2.1497,1.3436z"
           transform="translate(-760.05951,-37.486981)"
           stroke="#000"
           stroke-linecap="butt"
           stroke-miterlimit="4"
           stroke-dasharray="none"
           stroke-width="1.2924726"
           fill="none"
           id="path164" />
        <path
           stroke-linejoin="miter"
           d="m133.77,441.82c0.44739,0.59652,3.5791,2.8335,4.1756,3.1317,0.59652,0.29826,1.7896,0.89478,1.7896,0.89478s-0.89479,2.8335-1.0439,3.7283c-0.14913,0.89479,0,4.0265-0.29826,5.3687s-1.4913,3.5791-2.237,5.3687c-0.74566,1.7896-2.237,5.3687-3.8774,8.3513s-3.1317,7.3074-3.7283,8.5004c-0.59652,1.193-1.7896,4.1756-2.3861,5.0704-0.59652,0.89478-3.5791,1.7896-3.5791,1.7896s-2.237-0.4474-3.1317-0.14914c-0.89478,0.29827-0.59652-0.14913-1.7896,1.0439-1.193,1.193-1.7896,1.3422-1.9387,2.0878-0.14913,0.74566,0,1.9387,0,1.9387m6.7109,1.7896,0.44739-1.7896c0.89478-0.74565,1.9387-1.193,1.9387-1.193h2.3861m-8.2022,2.8335c0-0.59652-0.14913-2.0878-0.14913-2.0878,0.59652-0.59652,1.6404-1.3422,1.6404-1.3422l2.3861-0.89478m-10.29,0c0-0.74565,0.44739-2.237,0.44739-2.237,0.74565-0.59653,1.9387-1.3422,1.9387-1.3422,0.74565,0,2.6843,0.59652,2.6843,0.59652m41.458-34.598c0.14913-0.59652,2.0878-2.9826,2.0878-2.9826,1.3422-1.193,2.6844-1.7896,2.6844-1.7896,0.59652-0.44739,3.1317-1.4913,3.1317-1.4913m87.987,13.869-3.1317-1.193c-2.3861-0.89478-5.2196-1.7896-5.2196-1.7896-2.9826-0.29827-5.2196-0.74566-5.2196-0.74566-1.6404-0.89478-4.7722-2.9826-4.7722-2.9826-2.0878-1.3422-3.7283-2.9826-3.7283-2.9826-1.9387-1.4913-4.0265-3.2809-4.0265-3.2809-2.0878-2.6844-3.5791-3.2809-3.5791-3.2809-1.193-1.3422-7.3074-1.7896-7.3074-1.7896m-104.54-33.853,1.193,0.89479c0.74566-0.89479,1.193-1.6404,1.193-1.6404,1.3422,0.74565,2.3861,1.0439,2.3861,1.0439,0.89479-1.193,2.237-1.193,2.237-1.193l1.7896-0.59652c1.6404-1.193,2.6843-1.9387,2.6843-1.9387l2.3861-2.6843m1.0439-15.211c-0.44739,0.59652-1.6404,2.0878-1.6404,2.0878-1.4913,0.89478-3.2809,1.3422-3.2809,1.3422-1.3422,0.14913-2.0878,0.14913-2.0878,0.14913-1.3422-0.14913-2.5352-0.44739-2.5352-0.44739m-24.942-0.0746,0.70837,0.55924c0.18641,0.14913,0.89478,0.55924,0.89478,0.55924,0.52196,0.11185,1.1558,0.0746,1.1558,0.0746,0.37283-0.11185,1.5659-0.11185,1.5659-0.11185m8.8089-3.7467c-0.18641,0.0746-0.8575,0.78293-0.8575,0.78293-0.14913,0.37283-0.41011,1.193-0.41011,1.193,0,0.29826,0.67109,0.55924,0.67109,0.55924,0.59652-0.14913,1.8805-0.54409,1.8805-0.54409,0.18641-0.14913,0.8575-0.22369,0.8575-0.22369,0.41011,0,2.0846-0.20281,2.0846-0.20281,0.44739,0,2.7216,0.18641,2.7216,0.18641m-13.743,6.5441c1.0066,0.0373,2.5725-0.11185,2.5725-0.11185,0.70837-0.0373,1.715-0.0373,1.715-0.0373,0.63381,0.11185,1.5286,0.41011,1.5286,0.41011,0.52196,0.22369,1.3049,0.6338,1.3049,0.6338,0.14913,0.33554,0.67109,2.0878,0.67109,2.0878m-11.93-0.22368c0.26098,0.0746,1.5659,0.0746,1.5659,0.0746,0.52196-0.11185,1.6404-0.44739,1.6404-0.44739m-0.33554,4.8094-0.70837,0.59652c-0.44739,0.14913-1.193,0.52196-1.193,0.52196-0.48467,0.0373-1.3049,0-1.3049,0m137.92,91.785c0-0.62348,1.143-2.8057,1.143-2.8057,0.7274-0.62348,1.8705-0.93522,1.8705-0.93522,1.0391,0.10391,3.637-1.4548,3.637-1.4548m-9.7679,1.9744c0.41566-0.93523,2.5978-2.2861,2.5978-2.2861,0.62348,0.20783,1.8704,0.62348,1.8704,0.62348,0.93523,0.10392,2.7018-1.0391,2.7018-1.0391m33.668,7.6896c-0.10392-1.5587,0.20782-3.1174,0.20782-3.1174,0.7274-0.7274,1.247-1.1431,1.247-1.1431,1.247-1.3509,2.1822-2.39,2.1822-2.39,0.31175-1.0391,0.31175-1.143,0.31175-1.143m-10.391,6.4427c0.10391-0.7274,1.5587-2.8057,1.5587-2.8057,0.93523-0.7274,1.6626-1.0391,1.6626-1.0391,1.5587-0.62348,3.9487-2.5978,3.9487-2.5978m5.6114-20.991c-0.10392-0.93522-0.20783-3.3252-0.20783-3.3252-0.10392-1.247-0.51957-2.1822-0.51957-2.1822-1.3509-0.7274-3.2213-1.3509-3.2213-1.3509m-153.91-72.822,1.9387-0.14913c0.59652-0.14913,2.0878-0.14913,2.0878-0.14913,0.74565-0.29826,1.3422-0.59653,1.3422-0.59653,1.0439-0.59652,0.80087-1.6248,0.80087-1.6248s-0.42423-1.0156-0.91858-1.2628c-0.49435-0.24717-1.483-0.41196-2.0598-0.41196-0.57674,0-2.307,0.82391-2.307,0.82391l-1.5654,0.57674m128.44,34.491-4.5962-2.1213-4.2426-1.591"
           transform="translate(-760.05951,-37.486981)"
           stroke="#000"
           stroke-linecap="butt"
           stroke-miterlimit="4"
           stroke-dasharray="none"
           stroke-width="1.2924726"
           fill="none"
           id="path166" />
        <path
           stroke-linejoin="miter"
           d="m106.99,385.8,0.472,1.0489s0.62933,0.52444,0.89155,0.62933c0.26223,0.10489,1.2062,0.52444,1.6258,0.472,0.41956-0.0524,1.2587-0.31467,1.4684-0.52444,0.20978-0.20978,0.73422-0.89156,0.78667-1.2587,0.0524-0.36711,0.94399-1.0489,0.0524-1.1013-0.89155-0.0524-1.6258,0.31466-2.2027,0.31466-0.57688,0-1.3636,0-1.6258,0.10489-0.26222,0.10489-1.0489,0.26222-1.0489,0.26222"
           transform="translate(-760.05951,-37.486981)"
           stroke="#000"
           stroke-linecap="butt"
           stroke-miterlimit="4"
           stroke-dasharray="none"
           stroke-width="1.2924726"
           fill="#FFF"
           id="path168" />
        <path
           d="m108.56,385.53,0.10489,1.1538s0.73422,0.62933,0.944,0.78666c0.20977,0.15733,1.2587,0.73422,1.0489,0.31467-0.20978-0.41956-0.52444-1.4684-0.472-1.888,0.0524-0.41955,0.472-0.73421-0.0524-0.57688-0.52444,0.15733-1.416,0.472-1.416,0.472z"
           fill="#000"
           transform="translate(-760.05951,-37.486981)"
           id="path170" />
        <path
           d="m108.35,390.43c0.76737,0.61389,1.5347,0.76737,1.6882,1.6882,0.15347,0.92084,0.76736,1.2278,0.46042,2.7625-0.30695,1.5347-0.46042,3.3764-0.46042,3.3764s0-1.8417,1.6882-0.92084c1.6882,0.92084,2.1486,3.0695,2.7625,1.8417s-2.4556-5.3716,1.3813-3.3764c3.8368,1.9952,4.7577,3.3764,4.7577,1.6882s-0.92084-2.7625,1.5347-2.1486c2.4556,0.61389,3.3764-0.30695,0.76737-1.5347s-4.6042-1.8417-5.525-2.3021c-0.92084-0.46042-0.92084-0.76736-2.916-0.92084-1.9952-0.15347-6.1389-0.15347-6.1389-0.15347zm24.584,7.8568c-1.9446,4.0659-2.8284,6.364-2.8284,6.364l3.182,0.53033c0.53033,3.5355,3.5355,1.2374,3.5355,1.2374,0.53033,3.182,4.0659,3.182,4.0659,3.182-0.17678,2.6516-0.70711,5.3033-0.70711,5.3033-1.4142,3.182-2.2981,3.8891-2.2981,3.8891-2.2981,5.3033-1.9445,5.3033-1.9445,5.3033,0.17678,0.7071,0.88388,3.3588,0.88388,3.3588,0.53033,1.9446,1.591,3.8891,1.591,3.8891,0.88389,0.70711,2.4749,2.6516,2.4749,2.6516,0.53033,1.2374,1.0607,3.8891,1.0607,3.8891l2.1213,0.88388c0.7071,0.53033,1.591,2.1213,1.591,2.1213v4.9498c-0.53033,2.1213-2.2981,6.1872-2.2981,6.1872-0.53033,2.2981-0.70711,5.3033-0.70711,5.3033,1.9446-1.9446,5.3033-7.2478,5.3033-7.2478,1.4142-3.3588,4.9498-6.7175,4.9498-6.7175,3.5355-4.0659,5.3033-6.0104,5.3033-6.0104,1.9446-1.2374,4.9498-2.4749,4.9498-2.4749,1.9445,0,3.7123-1.4142,3.7123-1.4142,1.0607-0.53033,3.5355-0.88388,3.5355-0.88388,0.70711-0.17678,2.6516,2.2981,2.6516,2.2981l0.17678-5.4801c-0.53033-1.4142,0.35356-3.7123,0.35356-3.7123,2.6516-1.0607,6.0104-1.591,6.0104-1.591,1.4142,0.17677,3.0052,2.2981,3.0052,2.2981l9.3692-1.4142c3.0052-0.70711,8.4853-1.7678,8.4853-1.7678,4.5962-1.4142,6.7175-1.591,6.7175-1.591,4.4194,0.35356,10.607-3.7123,10.607-3.7123,0.17678-1.0607-2.2981-3.8891-2.2981-3.8891-4.5962-1.9446-12.021-1.9446-12.021-1.9446-4.9498,0-13.081-1.0607-13.081-1.0607-7.0711-0.88388-14.319-1.7678-14.319-1.7678-2.8284-1.4142-9.3692-4.0659-9.3692-4.0659-5.3033-1.2374-10.43-2.6516-10.43-2.6516-5.1265-0.88388-8.8388-1.0607-8.8388-1.0607-5.1265-0.70711-7.0711-1.4142-7.0711-1.4142-0.88389-0.53033-6.364-4.5962-6.364-4.5962-1.591-0.7071-6.1872-2.8284-6.1872-2.8284l4.0659,4.4194zm103.77,22.27c-4.4194-0.53033-7.6014,0.88389-7.6014,0.88389-0.70711,3.3588,1.2374,6.1872,1.2374,6.1872,3.182,3.5355,4.4194,4.9498,4.4194,4.9498,2.6516,5.3033,5.8336,9.0156,5.8336,9.0156,3.5355,3.5355,8.3085,5.8336,8.3085,5.8336,3.182,0.88388,7.4246,1.591,7.4246,1.591,2.8284,0.70711,6.0104,1.7678,6.0104,1.7678,2.1213,0.88388,1.7678-1.2374,1.7678-1.2374-1.591-2.1213-5.6568-4.5962-5.6568-4.5962-2.6516-1.7678-4.5962-5.6569-4.5962-5.6569-2.2981-5.1265-4.2426-8.3085-4.2426-8.3085-2.4749-4.2426-4.2426-6.364-4.2426-6.364-2.2981-1.7678-5.6568-3.182-5.6568-3.182-1.0607-0.53033-3.0052-0.88389-3.0052-0.88389z"
           fill="#ffe47a"
           transform="translate(-760.05951,-37.486981)"
           id="path172" />
        <path
           d="m93.938,386.42s-0.1875,1-0.1875,1.25-0.5,1.1875-0.5,1.1875,0.5625-0.375,0.9375-0.4375,0.625,0,1.1875-0.25,1-0.5,1.375-0.5625,0.875-0.375,0.875-0.375-1.8125-0.125-2.125-0.1875-1.5625-0.625-1.5625-0.625z"
           fill="#000"
           transform="translate(-760.05951,-37.486981)"
           id="path174" />
        <path
           d="m112.75,380c-1,0.625-2.125,0.75-2.25,1.375s0.75,1.125,1.625,1.125,1.5-0.25,1.5-0.875c0-0.62-0.87-1.62-0.87-1.62zm3.125,6.625c-1,0.75-1.25,2.375-1.25,2.375,1.25,0.625,1.75,0.75,1.75,0.75l0.125-2c-0.125-0.5-0.625-1.125-0.625-1.125zm-15.38,0.63c-0.75,0.5-0.75,1.625-0.75,1.625,0.5,0,1.375-0.75,1.375-0.75,0-0.5-0.625-0.875-0.625-0.875zm28.5,0.125c-1.875,0.625-1.75,2.25-1.75,2.25,1.25,0.75,2.125-0.25,2.125-0.25,0.125-1.375-0.375-2-0.375-2zm-24.5,0.875-1,0.125,0.25,1,0.75-1.125zm-2.5,0.74c-0.625,0.5-0.375,1-0.375,1l0.38-1zm32.875,0.25c-1,0.75-1.625,2.25-1.625,2.25,1.5,1.875,3.125,1.625,3.125,1.625,0.75-1.625-0.875-3.75-0.875-3.75l-0.625-0.125zm-35.88,0.13c-0.625,0.5-0.5,1.125-0.5,1.125,0.875,0.25,1.25-0.625,1.25-0.625l-0.75-0.5zm23,0c-0.75,0.375-1.875,1.625-1.875,1.625,0.75,1.375,3,1.5,3,1.5,0.625-0.375,0.625-2,0.625-2-0.875-0.375-1.75-1.125-1.75-1.125zm-25.625,0.25c-0.125,0.625-0.25,1.125-0.25,1.125l0.625-0.25-0.375-0.875zm195.12,2.12c-0.70711,0.88388-0.1875,2.8125-0.1875,2.8125,1.7678,0.88388,2.125,0,2.125,0,0.35-1.23-1.94-2.81-1.94-2.81zm-194.25,0.125,0.625,0.875,0.5-0.875-1.125,0zm18.125,0.375c-1.625,0.375-2,1.375-2,1.375,0.875,0.75,3,1.5,3,1.5,0.75-1.25,0.125-2.375,0.125-2.375-0.5-0.375-1.125-0.5-1.125-0.5zm11.375,0.125c-0.625,1.125-0.25,2.5-0.25,2.5,0.5,0,0.75-0.875,0.75-0.875-0.125-0.5-0.5-1.625-0.5-1.625zm5.375,0.125c-1.75,1-2,3-2,3,1.5,1,3.75,1.375,3.75,1.375,0.75-1.25,0.625-3.125,0.625-3.125-0.625-0.25-2.375-1.25-2.375-1.25zm9.375,0.5c-1,0.125-3.75,2.75-3.75,2.75,0,1.5,1.125,3,1.125,3,0,0.75,1.5,1.5,1.5,1.5,2,0,3.25-0.625,3.25-0.625,0.0508-0.55859,0.0691-1.0446,0.0625-1.4375-0.24223,0.47961-1.0296,0.8125-1.5625,0.8125-0.875,0-1-0.375-2-0.875s-1.25-1.25-1.25-1.875,0.875-1.125,1.875-1.75,1.125,1.625,2.5,2.625c0.20366,0.14812,0.32204,0.26606,0.40625,0.40625-0.008-0.0859-0.0312-0.28125-0.0312-0.28125-0.5-1.625-2.125-4.25-2.125-4.25zm2.1562,4.5312c0.0138,0.15182,0.0251,0.28956,0.0312,0.65625,0.0966-0.19131,0.10686-0.42633-0.0312-0.65625zm-11.8-4.28,0.5,0.125-0.0625,0.40625,0.0625,0.0937,0.375,0.125,0.75,1.75s-0.875-0.375-1.375-0.875l0.1875-1.0938-0.4375-0.5312zm15.62,2.75c-0.875,0.875-0.75,1.875-0.75,1.875,1,0.5,1.75,0,1.75,0l0.375-1.25-1.38-0.63zm-25.75,0.25c-1.25,1.125-1.25,2.875-1.25,2.875,1.125,0.625,2.375-1.125,2.375-1.125,0.125-1-1.125-1.75-1.125-1.75zm-9.25,0.625-0.625,0.25c-0.625,0.875-0.625,2.25-0.625,2.25,0.75,0.75,2.375,0.25,2.375,0.25,0.125-1.5-1.125-2.75-1.125-2.75zm41.75,0.625c-1,1.5-0.625,3.5-0.625,3.5,2,0.75,2.125,1.5,2.125,1.5,1,1.25,3,0.5,3,0.5,0.75-1.25,1.375-2.125,1.375-2.125,0.5-1-0.625-1.625-0.625-1.625-0.49033-0.0981-1.1168-0.30013-1.7188-0.5l1.0938,1s-1.25,1.75-2,2-0.625-0.75-0.75-1.25c0,0-0.5-0.875-0.5-1.75l0.21875-0.6875c-0.91-0.26-1.59-0.57-1.59-0.57zm1.5938,0.5625c0.0564,0.0153,0.0981,0.048,0.15625,0.0625,0,0,0.84872,0.31535,1.7812,0.625l-0.28-0.24c-0.5-0.125-0.625-0.375-0.625-0.375l-0.875-0.5-0.15625,0.4375zm-19.96,0.44-0.5,0.75,0.5,1.625c0.75,0.5,1.75-1,1.75-1-0.125-0.875-1.75-1.375-1.75-1.375zm-9.375,1.375c-0.5,0.125-0.875,0.25-0.875,0.25-0.5,1.875,0.75,2.875,0.75,2.875,0.625-0.5,1.375-2.25,1.375-2.25-0.25-0.875-1.25-0.875-1.25-0.875zm23.5,0c-3.75,2-5,4.375-5,4.375,1.25,1.5,2.875,1.5,2.875,1.5,1-1,2.75-0.625,2.75-0.625,1.625-0.25,2.125-2.125,2.125-2.125-0.875-1.75-2.75-3.125-2.75-3.125zm-17.75,1c-2.5,1.125-3.375,2.625-3.375,2.625,0.125,1.375,1,3.875,1,3.875,1,0.375,2.125,0.5,2.125,0.5,2.375-0.375,3.875-2.75,3.875-2.75-0.125-1.75-2-3.625-2-3.625-0.5-0.375-1.625-0.625-1.625-0.625zm17.75,0.5s0.25,0.25,0.25,0.75,0.5,0.375,0.25,1.25c0,0-1.75,0.625-3.125,0.125v-0.875s0.5-0.75,2.625-1.25zm19.125,0.125c0.125,1,1.25,2.75,1.25,2.75,1,1.875,2,5.125,2,5.125,1.125,1,4.25,0.125,4.25,0.125,1.125-1.625,1.625-3.25,1.625-3.25-2.125-0.75-5.25-2.5-5.25-2.5-1.25-0.625-3.875-2.25-3.875-2.25zm128.75,0.84375c-1.9445,2.4749-0.1875,3.9062-0.1875,3.9062,0.88388-0.35355,0.875-2.3125,0.875-2.3125,0.35355-1.4142-0.6875-1.5938-0.6875-1.5938zm-165.38,0.0312,1.25,0.5s1.25,1.875,1,2.625-2.75,0.875-4.625,0.875c0,0-0.375-1.125-0.125-2.5,0,0,1.5-1.5,2.5-1.5zm38.75,0.625,5.5,2.875s-0.5,1.5-0.875,2.25-1,0.375-2.125,0.125c0,0-0.875-0.625-1.375-1.75,0,0-1-2.625-1.125-3.5zm-30.5,1.5c-2.25,1.5-2.75,3.125-2.75,3.125,0.875,1.5,1.5,2.375,1.5,2.375,0.25,3,3.5,2.25,3.5,2.25,0.75-1.875,1-3.5,1-3.5-0.125-1.75-1.125-3.5-1.125-3.5-0.875-0.375-2.125-0.75-2.125-0.75zm23.125,0c-1.86,1.25-2.86,2.75-2.86,2.75-0.25,1,1.125,2.75,1.125,2.75,1,0.625,2.625,0.375,2.625,0.375,1.875-0.125,2.25-0.75,2.25-0.75,1.5-1,1.375-3.75,1.375-3.75-2-0.5-3.25-1.25-3.25-1.25-0.875-0.125-1.25-0.125-1.25-0.125zm-6.5312,0.84375c-1.66,0.06-2.33,0.66-2.33,0.66,1.5,1,2.125,1.125,2.125,1.125,0.5,0.5,1.25,0.5,1.25,0.5,0.375-1,0.25-1.5-0.25-2.25-0.28125-0.0156-0.54199-0.0398-0.78125-0.0312zm7.4062,0.2813s1.25,0.625,2.25,1.25-0.25,1.125-0.75,1.375c0,0-1.625,0.75-3.375,0.75,0,0-0.125-0.5-0.125-2.125,0,0,0.5-0.75,2-1.25zm-24,0.25s0.75,1,1.25,1.625,0.625,1.5,0.375,3.375c0,0-1.25,0.25-1.5-1,0,0-0.625-0.75-1.125-1.875,0,0,0.375-2,1-2.125zm5.75,0.25c-0.75,1.25-0.875,2.5-0.875,2.5,0.625,0.125,1.25-0.625,1.25-0.625-0.125-1.5-0.375-1.875-0.375-1.875zm-20.375,0.5c-1.12,1.38-1.12,2.88-1.12,2.88,1.125,0.25,2.125-0.75,2.125-0.75,0-1.25-0.375-1.75-1-2.125zm25.5,1c-2.625,2.5-3.125,3.125-3.125,3.125,0.75,1.5,1.875,2.625,1.875,2.625,0.875,0.875,2.625,1.25,2.625,1.25,2.25-0.25,3.5-1.625,3.5-1.625,0.875-2,0-3.375,0-3.375-0.25-1-2.125-1.75-2.125-1.75-1-0.25-2.75-0.25-2.75-0.25zm30.29,0.38c-1.7678,1.2374-3.375,4.5938-3.375,4.5938,1.2374,1.4142,4.9688,0.375,4.9688,0.375,1.0607-1.0607,1.2188-3.375,1.2188-3.375-1.07-0.69-2.82-1.58-2.82-1.58zm31.281,0.375c-0.28279,0.21995-0.56071,0.35678-0.84375,0.46875,0.58536-0.0561,1.2343-0.0875,1.5312,0.0312,0,0,1.75,0.25,1.875,0.875,0,0-0.875,0.875-1.625,1.25l-2.14,0.49s-0.4746-1.4103-0.84375-2.4062c-0.76431,0.0209-1.3125-0.1875-1.3125-0.1875,0.88388,2.6516,3,3.875,3,3.875,2.4749-1.4142,4.25-3.5312,4.25-3.5312,0-0.7071-3.9062-0.875-3.9062-0.875zm-2.0312,0.71875c0.36071-0.01,0.76769-0.0839,1.1875-0.25-0.6467,0.062-1.2188,0.15625-1.2188,0.15625,0.014,0.0373,0.017,0.0552,0.0312,0.0937zm14.062-0.71875c-3.7123,1.7678-3.9062,2.8125-3.9062,2.8125,3.3588,0.7071,5.125-0.875,5.125-0.875,0-0.7071-1.2188-1.9375-1.2188-1.9375zm11.5,0.15625c-0.70711,0.7071,0.5,3.5312,0.5,3.5312,2.1213,0,1.9688-1.75,1.9688-1.75-1.0607-0.7071-2.4688-1.7812-2.4688-1.7812zm-82.72,0.34c0.375,0.625,0.375,2.375-0.375,3.625l-2.625-0.375s-0.5-0.875,0.25-2.25,1.25-1,2.75-1zm28.625,0,0.125,2.5s-1.125,0.375-1.625,0,0.25-0.5,1.5-2.5zm65.625,0.34375c-1.5226,0.0169-5.7188,0.5625-5.7188,0.5625,0,1.9446,3.9062,3.5312,3.9062,3.5312,1.7678-1.0607,2.2812-4.0625,2.2812-4.0625-0.0884-0.0221-0.25123-0.0337-0.46875-0.0312zm-54.344,0.34375c-1.6072,0.13534-2.8125,1.625-2.8125,1.625-0.53033,2.2981-0.34375,4.7812-0.34375,4.7812,1.7678,1.591,4.9375,2.2812,4.9375,2.2812,1.0607-0.17678,3-1.2188,3-1.2188,0.35355-2.1213,0.375-3.7188,0.375-3.7188-1.0607-1.591-4.4375-3.7188-4.4375-3.7188-0.24307-0.0442-0.48915-0.0506-0.71875-0.0312zm37.656,0.5625c-0.70711,0.17677-1.2188,0.71875-1.2188,0.71875-2.6516,0.35356-3.9062,2.8125-3.9062,2.8125,3.182,2.6516,5.6562,3.1875,5.6562,3.1875,0.88388,2.1213,5.8438,1.25,5.8438,1.25-0.53033-2.6516-1.0625-5.5-1.0625-5.5-2.4749-1.7678-5.3125-2.4688-5.3125-2.4688zm11.688,0.125s1,0.125,1.625,0.125l2.5,0.25-1.625,1-2.5-1.375zm-74.594,0.0625c-2.4749,1.4142-2.8438,2.125-2.8438,2.125,1.0607,0.53033,2.125,0.15625,2.125,0.15625,0.35355-0.70711,0.71875-2.2812,0.71875-2.2812zm126.56,0c-2.1213,2.1213-0.53125,3.1875-0.53125,3.1875l1.25-1.25-0.71875-1.9375zm-159.84,0.08c-2.625,1.25-2.5,1.625-2.5,1.625,1,1.25,2.875,0.75,2.875,0.75,0.375-1.625-0.375-2.375-0.375-2.375zm84,0.28125c-5.1265,4.0659-4.5938,5.125-4.5938,5.125,2.4749,0.53033,5.3125-1.75,5.3125-1.75,0.17677-2.2981-0.71875-3.375-0.71875-3.375zm-25.5,0.0937,0.375,0.625s0.875,0.875,1.75,1.375,0.625,1.5,0.375,2.5c0,0-0.875,0.625-3.25,0.125,0,0-0.75-0.75-1.125-1.75,0,0,0.5-1.75,1.875-2.875zm63.156,0.0937c-1.0607,2.8284,1.4062,3.875,1.4062,3.875,0.88388-1.4142-0.53125-3.1875-0.53125-3.1875l-0.875-0.6875zm-25.54,0.54s1.375,0.375,2.25,0.625,2,1.625,3.25,3.5c0,0,0.125,1.375-0.875,2.5,0,0-1.75-0.875-4.5-2.5,0,0-1.625-1.125-2.875-1.875,0,0,1-0.875,2.75-2.25zm-23.781,0.6875c-0.70711,0-0.875,0.71875-0.875,0.71875-1.591,1.7678-2.125,3.9062-2.125,3.9062,1.0607,2.1213,6.5312,3,6.5312,3,1.4142-1.0607,2.125-4.25,2.125-4.25-1.0607-1.591-5.6562-3.375-5.6562-3.375zm-60.6,0.31c-0.75,0.375,0.25,1.75,0.25,1.75,0.5,0.25,0.375-1.25-0.25-1.75zm26.625,0.0937c-0.77759,0.0359-0.875,0.53125-0.875,0.53125-3.25,1-5.75,3.25-5.75,3.25,1.875,0.5,2.875,2,2.875,2,1.125,1.75,3.5,1.5,3.5,1.5,1.875-0.125,3.75-2.5,3.75-2.5-0.25-2.875-3.125-4.75-3.125-4.75-0.14062-0.0156-0.26392-0.0364-0.375-0.0312zm92.312,0.65625c-1.4142,2.1213,0.34375,3.1875,0.34375,3.1875,2.4749-0.17677,2.8125-1.75,2.8125-1.75-1.2374-1.2374-3.1562-1.4375-3.1562-1.4375zm-14.344,0.1875-4.75,3s4.0438-0.69822,5.2812-0.875,0.35264-1.7714-0.53125-2.125zm-90.59,0.06c-1.375,0.75-3.625,4.125-3.625,4.125,0.5,0.625,0.25,2.875,0.25,2.875,0.25,1.25,1.875,1.75,1.875,1.75,2.125-0.25,4.25-0.375,4.25-0.375,0.875-1.5,0.875-4.375,0.875-4.375-0.75-1.5-3.625-4-3.625-4zm112.16,0.28125c-0.35355,1.9446,2.3125,3.1875,2.3125,3.1875,1.7678-1.4142,1.4062-1.9375,1.4062-1.9375l-3.7188-1.25zm-134.28,0.09c-1,1.125-1.375,2.75-1.375,2.75,1.75,1.5,3.375,1.25,3.375,1.25,0.375-1.75,0.125-3,0.125-3-0.5-0.125-2.125-1-2.125-1zm149.5,0.0937c-2.1213,2.1213-1.9375,3-1.9375,3,1.591-0.17677,1.9375-0.6875,1.9375-0.6875,0.35355-0.70711,0-2.3125,0-2.3125zm-114.88,0.16s1.25,1.375,2,1.875,1,1.125,0.375,2.375c0,0-4,0.125-5-0.625,0,0-0.75-0.75-1.75-1,0,0-0.25-1,0.875-1.375,0,0,2-0.875,3.5-1.25zm12,0.0312c-3.7123,2.6516-5.8438,6-5.8438,6,1.0607,1.0607,4.0625,3.5312,4.0625,3.5312,1.7678,0.53033,3.1875-0.15625,3.1875-0.15625,2.2981-0.70711,3.3438-3.5625,3.3438-3.5625-0.17678-1.9446-1.4062-2.625-1.4062-2.625-1.0607-0.88389-3.3438-3.1875-3.3438-3.1875zm37.125,0c-1.0607,0.88388,0.34375,1.75,0.34375,1.75l-0.34375-1.75zm-13.219,0.1875c0.26953,0.006,0.59375,0.0625,0.96875,0.15625,0,0,1,0.875,1.25,2.5,0,0-1.5,0.875-3.5,0.5,0,0-0.375-0.5,0.125-2.875,0,0,0.34766-0.29883,1.1562-0.28125zm-70.281,0.4063,1.125,1.125-0.25,1.125-1.5-1s0.25-0.625,0.625-1.25zm21.75,0.25c0.25,0.75,0.5,1.5,1.125,2.75l0.375,2.125s-1.25,0.5-2.875,0.125,0-0.25-0.25-2.5c0,0,0.5-1.5,1.625-2.5zm-14.25,0.625c-1.875,0.25-3.75,2-3.75,2-0.75,1,0,2.125,0,2.125-0.375,0.875-0.375,2.125-0.375,2.125,1,0.875,2.5,1,2.5,1,1.75,1.375,3.875,1.5,3.875,1.5,2.375-2.625,3.625-4.25,3.625-4.25,0-1.375-3-1.625-3-1.625l-0.75-1.75c-0.625-0.5-1.5-1-1.5-1l-0.62-0.11zm-0.25,1.125s0.625,1.75,1,2.25,1.75,0.875,3.25,1.375c0,0-1.125,1.875-3.375,2.25,0,0-1.125-0.375-2.875-0.75,0,0,0.125-1,0.75-2.125,0,0-0.25-0.375-0.25-1.625,0,0,0.625-1.375,1.5-1.375zm39.625,0,0.75,0.5-0.75,0.125s1.25,0.75,2.25,2.125-0.5,1.625-2.5,2.5c0,0-1.875,0.5-3.375,0.125,0,0-1.375-1.75-0.25-3.125,0,0,0.875-0.875,3.875-2.25zm94.781,0.0625s-2.6455,0.69914-2.4688,1.4062c0.88388,0.70711,3.1581,0.35263,4.2188-0.53125,0,0-0.86612-0.875-1.75-0.875zm-55.344,1.4062c-5.1265,1.0607-7.5938,4.7812-7.5938,4.7812,0.7071,3.0052,2.4688,3.1562,2.4688,3.1562,2.4749,0.17678,4.5938-0.875,4.5938-0.875,2.6516,0.88388,4.7812-2.125,4.7812-2.125-1.9445-2.1213-3.8964-3.8768-4.25-4.9375zm-57.094,1.5938c-2.8284,1.591-3.1875,2.6562-3.1875,2.6562,1.9445,0.88388,3.375-1.0625,3.375-1.0625l-0.1875-1.5938zm77.062,0.15625c-2.2981,1.0607-2.625,2.8438-2.625,2.8438,1.2374,1.9446,2.4688,1.9375,2.4688,1.9375,1.7678-2.1213,1.9375-3,1.9375-3,0-0.7071-1.7812-1.7812-1.7812-1.7812zm-48.969,0.1875c-1.2374-0.17677-3,1.5938-3,1.5938,3.182,1.2374,3.9062,0.34375,3.9062,0.34375,0-1.0607-0.90625-1.9375-0.90625-1.9375zm27.94,0.35,2.25,2.25s-0.375,1.375-1.25,1.625-5.125-0.625-4.875-1.75c0,0,2-1.75,3.875-2.125zm-12.719,0.375c-0.88388,2.1213,1.75,3.875,1.75,3.875,0.7071-0.88389-1.75-3.875-1.75-3.875zm24.22,0.52c-2.6054,0.21993-3.5312,1.5938-3.5312,1.5938,3.182,1.9445,3.7188,3.6875,3.7188,3.6875,2.4749,1.9445,4.4062,2.125,4.4062,2.125,0.17678-3.182,0.1875-4.9375,0.1875-4.9375-1.7678-1.591-3.5625-2.4688-3.5625-2.4688-0.44194-0.0221-0.84655-0.0314-1.2188,0zm1.2812,0.9375c0.26367-0.011,0.65625,0.10937,1.2188,0.53125,0,0,0.375,2.5,0,4,0,0-0.375-0.125-1.625-1.125,0,0-1.375-1.375-2.125-2.5,0,0,1.5,0.125,2-0.5,0,0,0.0918-0.38794,0.53125-0.40625zm-32.938,0.125c-3.3588,2.2981-4.5938,3.875-4.5938,3.875,3.0052,1.591,5.8438,1.9375,5.8438,1.9375,1.0607-0.17678,1.75-4.75,1.75-4.75-0.7071-1.0607-3-1.0625-3-1.0625zm-67.72,0.66c-1.5,1.375-1.25,3.5-1.25,3.5,1.125,0.25,1.75-2.125,1.75-2.125,0-0.625-0.5-1.375-0.5-1.375zm68.5,0.25c0.38,0.87-0.12,2.75-2.12,3.75,0,0-1.125-0.875-0.25-2.25,0,0,1.75-1.5,2.375-1.5zm-32,0.25c-1.75,0-3.25,0.25-3.25,0.25-2.75,0.875-4.375,2.375-4.375,2.375,0.75,3,3.875,4.625,3.875,4.625,3.875-0.875,5.25-1.625,5.25-1.625,0.625-1,0.125-4,0.125-4-1.375-1.5-1.625-1.625-1.625-1.625zm-41.75,0.125-0.0937,1.6562c0.0433,0.0302,0.3899,0.2726,1.0938,1.0938,0,0,0.875,1.25,1.25,2,0,0-1.4715,0.43869-2.9062,0.375-0.11227,0.8267-0.34375,1.625-0.34375,1.625s2.25-0.625,4-2.25-0.625-1.25-1-2.25c0,0-1.125-1.625-2-2.25zm-0.65625,5.125c0.0412-0.30351,0.0647-0.59405,0.0625-0.875-0.007-0.90068,0.34803-1.6429,0.46875-1.7188-0.005-0.004,0.007-0.0337,0-0.0312l0.0312-0.84375c-0.003-0.002-0.0312-0.0312-0.0312-0.0312-0.625,1.875-0.625,2.875-0.625,2.875l-0.125,0.625c0.0729,0.006,0.1455-0.003,0.21875,0zm12.29-4.62c-2.125,1.375-3,3-3,3,1.75,2.375,3.625,2.25,3.625,2.25,1.5-0.5,2.25-2,2.25-2-0.25-2-1.375-2.875-1.375-2.875-0.5,0-1.5-0.375-1.5-0.375zm36.062,0.3125-0.875,0.53125c-0.52,0.72-0.18,2.85-0.18,2.85,2.4749,0.88388,4.0938-1.25,4.0938-1.25-1.9446-1.9445-3.0312-2.125-3.0312-2.125zm14.344,0c-4.9497,2.6516-5.5,6.0312-5.5,6.0312,1.0607,0.53033,4.5938,0.6875,4.5938,0.6875,0.88388-2.6516,0.90625-5.8125,0.90625-5.8125v-0.90625zm-36.78,0.32c-1.25,0.25-1.75,0.75-1.75,0.75-2.375,0.75-3.625,2.75-3.625,2.75-0.125,2.375,0.375,5.125,0.375,5.125,0.75,0,2.375,0.5,2.375,0.5,1,0.375,1.875-0.375,1.875-0.375,2.125,0.625,4,0.5,4,0.5,0.875-1.25,1.375-3,1.375-3-0.5-1.625-0.5-3.625-0.5-3.625-0.125-1.125-0.875-1.5-0.875-1.5-1.125,0.625-1.75,0.875-1.75,0.875-0.625-0.5-1.5-2-1.5-2zm15.125,0.125s0.5,0.75,1.125,2.375-0.5,0.75-1.625,1.5c0,0-2.125-0.125-3.125-0.625,0,0,0-0.875,0.25-2.125,0,0,0.25-0.125,3.375-1.125zm-28.25,0.75,0.5,1.5s-0.625,1.125-1.375,1.125-0.875-0.375-1.125-1.375c0,0,0.375-0.875,2-1.25zm48.625,0.25,0.25,0.75s-0.375,2.875-1.125,3.75-0.75-0.125-1.125-1c0,0,0.125-0.625,0.5-1.375l1.5-2.125zm-35.74,0.12c-0.21115,0.1098-0.38956,0.20214-0.5625,0.3125,0.0754,0.22666,0.57962,1.7474,0.8125,2.5625,0,0,0.375-0.125,2.375-0.5,0,0,0.25,0.625,0,1.5l-1.875,2.125-2-0.25s-2,0.625-1.625,0,0.75-1.75,1-2.375c0,0-1.074-1.5395,1.3125-3.0625-0.006-0.0167-0.0625-0.1875-0.0625-0.1875l0.63-0.13zm91.812,0.40625c-3.7123,1.9446-5.8125,6.3438-5.8125,6.3438,1.9445,2.6517,3.875,3.1875,3.875,3.1875l2.6562,0.875c0.88388,0,1.75-3.1562,1.75-3.1562,0.17678-0.88389,0.71875-4.25,0.71875-4.25-1.4142-1.9446-3.1875-3-3.1875-3zm-18.57,0.34c-3.7123,1.591-3,2.6562-3,2.6562,2.6516,0.17677,3-2.6562,3-2.6562zm19.25,2.125s0.125,0.875,0.125,2.125,0.125,1.875,0.25,3.625c0,0-3-0.25-3.625-0.75,0,0-0.875-1.625-0.25-3,0,0,1.375-1.25,3.5-2zm-30.031,0.6875c-1.4142,1.4142-1.0625,3.0312-1.0625,3.0312,1.0607,0,1.7812-1.0625,1.7812-1.0625l-0.71875-1.9688zm-82.22,0.55c-2.125,1.875-1.75,3.625-1.75,3.625,2.875,1.375,5.5,1.25,5.5,1.25,0.5-1.625-0.25-3.375-0.25-3.375-1.875-1.125-3.5-1.5-3.5-1.5zm61.719,0.6875c-1.0607,1.2374,1.4062,2.6562,1.4062,2.6562l0.1875-1.9375-1.5938-0.71875zm-51.22,0.19c-1.625,1.5-1.625,3.125-1.625,3.125,2.375,1,3.875,0,3.875,0-0.25-2.25-1.5-2.625-1.5-2.625l-0.75-0.5zm85.344,0.34375c-2.1213,0-2.4688,2.8438-2.4688,2.8438,1.4142,2.6516,5.8125,4.9375,5.8125,4.9375,2.2981,0.17677,3.5312-2.8438,3.5312-2.8438-0.70711-1.7678-2.625-3.1562-2.625-3.1562-1.591-1.2374-4.25-1.7812-4.25-1.7812zm-94.58,0.41s1.5,1,1.5,2-0.75,0.5-1.75,0.125c0,0-1.875-0.5-1.75-1.125l2-1zm50.219,0.125c-1.7678,1.4142-1.5938,2.4688-1.5938,2.4688,1.2374,1.2374,2.4688,0.53125,2.4688,0.53125,0-1.4142-0.875-3-0.875-3zm-7.0625,0.1875c-2.6516,0.7071-2.8438,2.125-2.8438,2.125-3.8891,0.70711-4.4062,3.1562-4.4062,3.1562,2.8284,1.0607,3.3438,1.25,3.3438,1.25,3.0052-0.35356,5.5-2.8438,5.5-2.8438-0.17678-2.1213-1.5938-3.6875-1.5938-3.6875zm52.46,0.81s0.75,0.125,2.625,1.25,1.375,0.75,1,3.375c0,0-1.125-0.125-3.75-1.375,0,0-0.75-1.625,0.125-3.25zm-65.375,0.25c-3.5355,1.0607-4.0625,3.1562-4.0625,3.1562,2.1213,0.17678,4.2188-0.875,4.2188-0.875,0-0.70711-0.15625-2.2812-0.15625-2.2812zm12.625,1.25s-0.625,2.125-2.375,3.375-2.375-0.25-2.375-1.125l1.625-0.5s1.5-1,2.375-1.5l0.75-0.25zm74,1.0312c-2.8284,1.7678-2.6562,4.0625-2.6562,4.0625,2.4749,2.1213,3,1.0625,3,1.0625,0.53033-2.1213-0.34375-5.125-0.34375-5.125zm-116.49,2.09c-2.25,0.25-2.5,2.25-2.5,2.25,2.25,1.5,4.125,2.25,4.125,2.25,0.5-1.25,0.125-3,0.125-3-1-1-1.75-1.5-1.75-1.5zm33.031,0.0312c-1.7678,1.0607-1.9375,1.7812-1.9375,1.7812,1.4142,0.35356,2.125-0.375,2.125-0.375l-0.1875-1.4062zm-16.9,0.47c-3.625,2.25-2.25,3.75-2.25,3.75,2.375,0.5,3.25-0.5,3.25-0.5,0.5-1.5,0-2.5,0-2.5l-1-0.75zm9.5,1.125c-3.7123,0.88388-5.125,2.6562-5.125,2.6562-0.35355,2.2981,0,3.5312,0,3.5312,1.9446-0.53033,4.5938-2.125,4.5938-2.125,1.4142-1.591,0.53125-4.0625,0.53125-4.0625zm17.156,0.53125c-2.4749,0.7071-6.1875,2.4688-6.1875,2.4688,0,0.88388,3.3438,0.875,3.3438,0.875,1.591-2.1213,2.8438-3.3438,2.8438-3.3438zm64.812,0.28125c-1.7402,0-3.125,0.59375-3.125,0.59375,1.4142,1.2374,1.9375,1.9375,1.9375,1.9375,0,2.2981,1.25,2.8438,1.25,2.8438,3.3588,1.0607,5.4688,1.7812,5.4688,1.7812,1.4142-0.35356,2.125-2.3125,2.125-2.3125,0-1.9445-1.9375-3.1875-1.9375-3.1875-1.2374-0.53033-2.6562-0.875-2.6562-0.875l-1.25-0.53125c-0.61872-0.17678-1.2324-0.25-1.8125-0.25zm-14.281,0.25c-0.17678,0.88388,0,2.2812,0,2.2812,1.7678,0.70711,2.5-0.34375,2.5-0.34375-0.53033-1.2374-1.0858-1.7607-2.5-1.9375zm-69.07,0.07,0.375,1.5s0.125,1.125-1.625,1.75-1.25-0.5-0.875-1.375c0,0,0.875-1.125,2.125-1.875zm-15.5,0.25c-3.875,1.125-3.75,5.75-3.75,5.75,2.25,0.875,2.75,1.125,2.75,1.125,1.625-1.875,2.25-2.875,2.25-2.875-0.5-1.625-1.25-4-1.25-4zm99.75,0.5s2.125,1,4.875,2.25,0.125,0.625-0.125,1.875c0,0-1.5,0.375-3-0.25,0,0-1.625-1.25-2.375-1.875,0,0,0-2,0.625-2zm-101.25,1,0.625,0c-0.10609,0.10609-0.18581,0.18086-0.28125,0.28125l0.28,0.22s0.5,1.375,0.5,2.875-0.25,0.75-1.625,0.5c0,0-0.5-0.875-0.625-1.75,0,0,0.4397-0.76139,1.4688-1.8438l-0.35-0.29zm78.156,0.28125c-0.14087,0-0.21875,0.0312-0.21875,0.0312l1.5938,3.3438c0.70711,0,1.25-2.4688,1.25-2.4688-1.1932-0.79549-2.2024-0.90625-2.625-0.90625zm-52.875,0.1875c-2.8284,1.591-2.8438,3.1875-2.8438,3.1875,1.9445,0.35356,3.875-1.2188,3.875-1.2188-0.17678-1.2374-1.0312-1.9688-1.0312-1.9688zm89.97,0.72c-2.2981,1.9445-0.875,3.375-0.875,3.375,1.4142,0,0.875-3.375,0.875-3.375zm-30.219,1.5938c-0.70711,1.7678-0.71875,2.125-0.71875,2.125,1.591,1.591,3.5312,1.9375,3.5312,1.9375,1.0607-0.53033,1.25-1.5938,1.25-1.5938-1.591-1.9445-4.0625-2.4688-4.0625-2.4688zm10.938,0.53125-0.34375,2.2812c1.4142,1.591,3,1.5938,3,1.5938,0.17677-1.591-1.75-3.3438-1.75-3.3438l-0.90625-0.53125zm16.094,3.3438c-2.1213,2.1213-0.1875,3.9062-0.1875,3.9062l0.53125-2.125-0.34375-0.875v-0.90625zm8.125,1.0625-0.875,0.375c-1.2374,2.4749,0.1875,3.6875,0.1875,3.6875,2.8284,1.2374,3.875-1.0312,3.875-1.0312-1.591-1.9445-3.1875-3.0312-3.1875-3.0312zm-126.66,0.625-0.40625,0.75s0.41256,0.5619,0.125,3.4375,0.14348,0.00015,1.4375-0.71875c0,0,0.99369-1.0185,1.2812-2.3125,0,0-1.5748-0.86869-2.4375-1.1562zm10.656,0.3125c-2.1567,2.1567-2.5938,4.3125-2.5938,4.3125,1.8691,0.14378,3.7188-1.1562,3.7188-1.1562,0.28756-1.4378-0.40625-3.0312-0.40625-3.0312l-0.71875-0.125zm-13.56,2.1c-1.7678,1.2374-1.7812,2.4688-1.7812,2.4688,1.591,0,2.4688-0.53125,2.4688-0.53125,0.53033-1.4142-0.6875-1.9375-0.6875-1.9375zm110.31,0.53125c-0.17677,1.591,0.53125,3,0.53125,3,0.88389-0.35356,2.2812-1.5938,2.2812-1.5938l-2.8125-1.4062zm-3.5312,1.5625c-0.70711,1.2374,0.6875,2.3125,0.6875,2.3125,0.88388-0.70711-0.6875-2.3125-0.6875-2.3125zm-100.72,2.125c-1.0065,0.7189-1.5625,2.875-1.5625,2.875,0.43135,0.86269,2.2812,0.5625,2.2812,0.5625,0.57512-1.294,0.3125-2.875,0.3125-2.875l-1.0312-0.5625zm-11.031,0.53125-1.4062,1.4375-1.0625,1.4062c0.88389,0,1.9375-0.875,1.9375-0.875,0.35355-1.4142,0.53125-1.9688,0.53125-1.9688zm117.56,0.90625c-1.0607,3.0052-0.15625,4.0625-0.15625,4.0625,1.0607,0,2.4688-1.9688,2.4688-1.9688-0.70711-1.591-2.3125-2.0938-2.3125-2.0938zm-100.28,2.625c-1.2181,0.0169-4.1875,0.53125-4.1875,0.53125-1.591,1.591-0.875,3.375-0.875,3.375,0.88388,0.17678,2.6562-0.53125,2.6562-0.53125,1.591-1.0607,2.8125-3.375,2.8125-3.375-0.0884-0.0221-0.23224-0.002-0.40625,0zm-16.031,1.25c-1.0607,0.88389-1.7812,1.7812-1.7812,1.7812,0.7071,1.0607,1.9688,0.6875,1.9688,0.6875,0.35356-0.88389-0.1875-2.4688-0.1875-2.4688zm6.1875,0.1875c-0.70711,1.591-0.875,2.8125-0.875,2.8125,1.591-1.2374,2.2812-2.8125,2.2812-2.8125h-1.4062zm1.07,6.54c-1.591,1.0607-1.4062,3.3438-1.4062,3.3438,1.591-0.17677,1.9375-1.2188,1.9375-1.2188,0-1.591-0.53125-2.125-0.53125-2.125zm-6.7812,3c-0.84522,0.0249-1.3438,0.53125-1.3438,0.53125-0.88388,1.7678,0,2.3125,0,2.3125,1.0607,0,2.2812-2.6562,2.2812-2.6562-0.35356-0.13258-0.65576-0.19579-0.9375-0.1875zm-6.5174-5.8499c-1.4755,2.4908-0.49183,5.3967-0.49183,5.3967l1.4755-2.9059c-0.49183-1.8681-0.98366-2.4908-0.98366-2.4908zm63.2-28.437c-0.49183,0.83027,0.49183,4.1513,0.49183,4.1513l1.7214-1.2454c-0.24591-1.6605-2.2132-2.9059-2.2132-2.9059zm22.378-8.0951-2.2132,2.0757c0.49183,0.83027,1.2296,1.0378,1.2296,1.0378,1.2296-0.83026,0.98366-3.1135,0.98366-3.1135zm41.068-6.0194-1.9673,1.2454c0.49183,1.453,2.2132,2.2832,2.2132,2.2832,0.98366-0.20756-0.24592-3.5286-0.24592-3.5286zm-10.574-9.3405c-0.24592,1.0378,0.49183,3.321,0.49183,3.321,1.7214,0,1.9673-0.20756,1.9673-0.20756zm10.083,48.778c-0.73775,0.83026-0.49183,1.8681-0.49183,1.8681l1.2296,0.6227zm-3.1969,4.1513-0.49184,1.6605,1.2296,0.41513c0.24592-0.83026-0.73774-2.0757-0.73774-2.0757zm-132.3-69.95,0,2.0757zm-0.0135-0.1965c-1.2038,0-1.4445,0.54188-1.4445,0.54188,0.72225,0.74509,1.605,0.81283,1.605,0.81283-0.1605-0.88056-0.4815-1.4224-0.4815-1.4224zm1.6852-2.9126,1.1235,0.9483-0.64201-0.88057zm-1.926-11.921c-0.72225,0.20321-1.284,1.016-1.284,1.016,0.40125,0.67735,1.1235,0.74509,1.1235,0.74509zm-9.5498-0.67735-0.642,0.54188c0.40125,0.40641,1.3642,0.20321,1.3642,0.20321,0.0802-0.20321-0.72225-0.74509-0.72225-0.74509z"
           transform="translate(-760.05951,-37.486981)"
           fill="#000"
           id="path176" />
      </g>
      <path
         stroke-linejoin="miter"
         d="m-410,263,0,185.23s-0.00001,19.77,92.5,54.77c92.5-35,92.5-54.77,92.5-54.77v-185.23z"
         stroke="#000"
         stroke-linecap="butt"
         stroke-miterlimit="4"
         stroke-dasharray="none"
         stroke-width="1.23224866"
         fill="none"
         id="path180" />
    </g>
  </g>
</svg>
