<?xml version="1.0" encoding="utf-8"?>
<!-- Generator: Adobe Illustrator 22.0.0, SVG Export Plug-In . SVG Version: 6.00 Build 0)  -->
<svg version="1.1"
	 id="svg1589" inkscape:output_extension="org.inkscape.output.svg.inkscape" inkscape:version="0.92.3 (2405546, 2018-03-11)" sodipodi:docname="WHITE_Flag_of_Nejd_(1926).svg" sodipodi:version="0.32" xmlns:cc="http://creativecommons.org/ns#" xmlns:dc="http://purl.org/dc/elements/1.1/" xmlns:inkscape="http://www.inkscape.org/namespaces/inkscape" xmlns:rdf="http://www.w3.org/1999/02/22-rdf-syntax-ns#" xmlns:sodipodi="http://sodipodi.sourceforge.net/DTD/sodipodi-0.dtd" xmlns:svg="http://www.w3.org/2000/svg"
	 xmlns="http://www.w3.org/2000/svg" xmlns:xlink="http://www.w3.org/1999/xlink" x="0px" y="0px" width="1200px" height="720px"
	 viewBox="0 0 1200 720" style="enable-background:new 0 0 1200 720;" xml:space="preserve">
<style type="text/css">
	.st0{fill:#FFFFFF;}
	.st1{fill:#006C35;}
</style>
<sodipodi:namedview  bordercolor="#666666" borderopacity="1.0" fit-margin-bottom="0" fit-margin-left="0" fit-margin-right="0" fit-margin-top="0" id="base" inkscape:current-layer="svg1589" inkscape:cx="428.91528" inkscape:cy="727.35993" inkscape:pageopacity="0.0" inkscape:pageshadow="2" inkscape:window-height="808" inkscape:window-maximized="1" inkscape:window-width="1152" inkscape:window-x="-4" inkscape:window-y="-4" inkscape:zoom="0.17411011" pagecolor="#ffffff" showgrid="false">
	</sodipodi:namedview>
<defs>
	
	
		<inkscape:perspective  id="perspective36" inkscape:persp3d-origin="106.52463 : 38.323353 : 1" inkscape:vp_x="0 : 57.48503 : 1" inkscape:vp_y="0 : 239.52096 : 0" inkscape:vp_z="213.04927 : 57.48503 : 1" sodipodi:type="inkscape:persp3d">
		</inkscape:perspective>
</defs>
<path id="path3236" inkscape:connector-curvature="0" class="st0" d="M1200,720V0H0v720H1200z"/>
<path id="_x32_1461584" inkscape:connector-curvature="0" class="st1" d="M1080,600V120H120v480H1080z"/>
<path class="st0" d="M881.8,495.8c20-8.1,40-16.2,60-24.3c-1.2,3-2.5,6.5-6,7.9c-18.5,7.5-36.9,15-55.4,22.3c-1.2,0.4-2.5,1-3.8,1.4
	c1.2-2,2.3-4,3.5-6.1C880.7,496.2,881.3,496,881.8,495.8L881.8,495.8z M819.5,467.7c4.2,2.8,8.3,5.9,11,9.3c5,6.5,6.3,15,3.3,22.3
	c-0.2,0.6-0.8,1-1.3,1.6c1-4,1.3-8.3-0.2-12.3c-2.1-5.9-6.9-10.7-13.3-13.6C818.9,472.3,819.3,469.7,819.5,467.7L819.5,467.7z
	 M654,464c2.7-1.8,6.3-2,9.8-2c3.5,0.2,6.9,0.4,10,1.8c1.3,1.4,0,3-1.3,3.8c-5.8,3.4-12.3,6.5-17.1,11.1c-1.3,1.2-0.6,3,1,3.6
	c2.5,1,5.4,1,8.1,1c6.3-0.2,12.7-2.2,17.9-5.3c1.5-0.8,2.9-1.8,4.4-2.4c-3.3,3.4-7.1,6.5-11.2,9.1c-3.5,2.2-7.3,4-11.7,4.7
	c-3.5,0.2-7.1,0.2-10-1.4c-3.3-1.6-4.8-5.3-3.7-8.3c0.8-1.6,2.1-3,3.5-4.5c3.7-3.2,8.3-5.7,12.7-8.1c-3.1-0.2-6.2-0.2-9.2,0
	c-1.9,0.2-3.3,1.4-4.6,2.4C652.1,467.9,652.1,465.5,654,464L654,464z M533.4,459.2c2.7-1,6.3-1,8.5,1c1.7,1.8,1.9,4,1.7,6.3
	c-1.3,1.6-3.1,3-4.2,4.7c-2.5,0.4-5,0-7.5,0.6c-1.2,0.6-2.9,1-3.5,2.2c-0.8,1.6-0.4,3.2,0,4.9c1.3,5.5,3.7,10.9,3.5,16.6
	c-0.2,2-0.4,4-1.3,5.9c-0.2-3.2-1.5-6.3-2.5-9.3c-1.9-5.5-3.3-11.3-3.5-17c-0.2-2.2,1.3-4,2.9-5.9c2.3-2.6,6.3-3.4,10-4
	c-1-0.8-1.9-1.6-3.5-1.4c-1.9,0.2-3.3,1.6-4.4,2.8C529.4,463.8,530.3,460.6,533.4,459.2L533.4,459.2z M708.5,458.2
	c0.2-0.2,0.4-0.2,0.8-0.2c-1,1-1.5,2.2-2.3,3.4c-2.3,3.6-4.8,7.3-4.2,11.5c0,2,1.3,4.5,4.2,4.5c1.3-0.6,1.7-2,2.3-3
	c0,3-0.6,6.9-4,8.5c-2.9-0.4-5-2.4-5.2-4.9C699.1,470.7,702.7,463.6,708.5,458.2z M190.5,417.1c1.7-2.4,3.3-5.1,6.2-6.7
	c-3.5,5.9-7.1,11.9-8.7,18.4c-0.6,2.4-0.8,5.5,1.2,7.5c1.5,1.4,3.8,1.6,6,1.2c3.1-0.6,4.6-3.2,5.8-5.5c1,1.6,0,3.4-0.4,4.9
	c-1.3,3.4-2.9,7.1-6.3,9.3c-2.7,1.8-6.7,1-9.2-0.4c-3.5-2.2-3.5-6.3-2.9-9.7C183.2,429.2,186.7,423.2,190.5,417.1L190.5,417.1z
	 M445.1,390.8c1-1.6,3.1-3.4,5.4-2.6c2.9,0.8,6.5,2.6,6,5.7c-0.8,1-1.7,1.8-2.7,2.8c-1-1.4-1.9-3.4-4.2-3.6
	c-2.9,0.8-4.6,3.2-5.6,5.5c-1.9,5.1-2.3,10.3-2.9,15.6c-0.8,0.4-1.3,0.6-2.1,0.8c0-4.9-1.2-9.9-5.2-13.8c-1-1.2-2.9-0.6-4.2-1.2
	c-2.5-0.8-3.5-3-4-4.9c-0.4-1.2-0.8-2.8,0.2-4c2.1-0.6,3.8,1,5.4,2c4,3.2,6.7,7.3,9,11.5C441.4,399.9,442.4,395,445.1,390.8
	L445.1,390.8z M864,378c3.1-0.8,6.2,0.2,8.7,1.8c4.2,2.6,7.3,6.1,10,9.7c1.3,2.2,2.9,4.5,2.3,7.1c-0.4,1.6-0.4,3.4-1.7,5.1
	c-1.3,1.4-3.8,1.2-5.6,0.4c-1.9-1-3.8-2-5.8-2.8c-2.7,6.3-8.5,11.1-14.8,15c-4.2,2.6-8.9,4.9-13.7,7.1c-2.9,1.2-6.2,2-9.2,2.8
	s-6.3,1.6-9.6,1.4c2.1-0.2,3.7-1.2,5.4-2c9-4.5,18.1-9.1,26.2-14.8c4.2-3,8.7-6.3,11.5-10.5c-1.9-0.4-3.8-0.6-5.6-0.8
	c-1.5-3.6-1.5-8.3,1.7-11.3c-1.7-1-1.7-3-2.1-4.5C861.6,380.2,862.2,378.4,864,378 M872,387.1c0.6,2.8,0.8,5.5,0.8,8.3
	c2.5,0.4,5.2,1.2,7.7,0.8c1.3-0.2,1.3-1.6,0.6-2.2C878.8,391.2,875.3,389.1,872,387.1 M863.4,391.6c1.3,2,4.2,2.6,6.7,3.2
	c0.6-1.2,1.2-2.6,1-4c-1-1.4-2.1-3.2-4.2-3.2C864.7,388.3,864.1,390,863.4,391.6L863.4,391.6z M694.8,374.2c1.5-1.6,4-2.4,6.5-2.4
	c1.7,0,2.5,1.4,2.9,2.6c0.8,2.6,0.8,5.7-0.8,8.1c0.8,0.4,1.7,1,2.5,1.4c-0.2,1.8-0.4,3.4-0.4,5.3c-1.7-0.8-2.9-2-4.4-2.8
	c-4.4,6.5-11,11.9-19,15c-4.2,1.8-9.2,2.6-13.9,2c9-2.6,17.7-6.5,24.4-12.6c2.3-2,4.2-4.3,5.8-6.7c-1.3-1.2-2.7-2-3.8-3.4
	C693.9,378.6,693.3,376.2,694.8,374.2 M697.3,376.2c0.6,1.6,1.9,2.8,3.3,4c0.6-1.4,1.3-2.8,0.4-4.3C699.8,376,698.5,376,697.3,376.2
	z M191.1,393c18.1-9.5,36.4-18.8,54.4-28.3c-0.6,3.2-1.9,7.1-5.8,8.7c-16.7,8.7-33.7,17.2-50.4,25.9c-0.4,0.2-1,0.4-1.3,0.4
	C189.2,397.7,190,395.2,191.1,393L191.1,393z M570.3,343c1.3-1.6,2.9-3.2,4.8-4.7c-1.3,2.4-0.6,5.1,0,7.7c0.8,2.8,1.5,5.5,2.7,8.1
	c0.8,2,3.5,2.6,5.8,3c1.3,0.4,2.9-0.4,2.5-1.8c-1.2-3.2-2.7-6.5-4.6-9.5c0.6-2,1.3-4,1.9-6.1c0.8,0,1.7,0,2.5,0
	c0.8,3.8,2.9,7.3,5,10.7c0,3.6-0.2,7.5-1.9,11.1c-1.2,2.4-4.6,3.2-7.5,3c-3.8-0.6-6.3-3.2-8.5-5.7c-1.2,3-4.2,5.5-7.9,6.5
	c-3.1,1-6.7-0.4-8.5-2.6c-1.9-2.6-2.1-5.7-2.1-8.5c0.2-4.3,1.2-9.1,5.6-11.5c0.4,0,1,0,1.3,0c-0.2,0-0.6,0.2-0.8,0.2
	c-2.7,4.3-2.9,9.3-0.4,13.6c0.8,1.4,2.5,2.4,4.2,2c2.3-0.4,4-1.8,5.6-3.2C570,351.3,570,347,570.3,343L570.3,343z M212.9,334.3
	c4-0.8,7.7,1.4,10.6,3.4c3.8,3.2,7.1,6.9,9,11.1c0.6,1.2,1,2.6,0.6,4c-0.4,1.8-0.4,3.8-1.9,5.3c-1.5,1.2-4.2,1-6,0
	c-1.7-1-3.5-1.8-5.4-2.4c-2.7,6.1-8.5,10.9-14.6,14.8c-4.8,3-10.2,5.7-15.8,7.9c-3.8,1.2-7.9,2.2-12.1,3.2c-1.5,0.4-3.3,0.4-5,0.2
	c1-0.2,1.9-0.2,2.9-0.6c8.9-4.3,17.7-8.7,25.8-14c5.6-3.6,11-7.5,14.8-12.6c-1.9-0.4-3.8-0.6-5.8-0.8c-1.5-3.6-1.5-8.3,1.7-11.3
	c-1.5-1.2-1.7-3-2.1-4.7C210,336.3,210.9,334.5,212.9,334.3 M220.6,343.4c0.8,2.8,0.8,5.7,1,8.3c2.7,0.2,5.4,1.4,8.1,0.8
	c1.3-0.6,0.4-2-0.2-2.6C226.9,347.4,223.6,345.4,220.6,343.4 M213.8,344.6c-1,1-1.9,2.4-1.7,3.6c1.5,1.6,4.2,2.4,6.5,2.6
	c0.2-0.8,0.6-1.6,0.8-2.4c0.6-1.6-0.8-3-2.1-4.3C216.5,343.6,214.6,343.6,213.8,344.6L213.8,344.6z M515.5,331.1
	c2.7,1.8,4.2,4.5,6,6.9c4.6,6.7,8.5,13.8,12.3,20.9c8.3,15.2,13.9,31.4,16.7,47.8c0.8,5.1,1.7,10.1,1.5,15.4
	c0.6,10.3,1.9,20.6,7.1,30.2c3.8,6.5,10.2,12.1,15.2,16.2c2.3,1.4,3.5,1,4,0.4c0.4-0.4,0.2-4.9,1-6.9c1.2-3.4,3.7-6.5,6.5-9.1
	c3.1-2.8,6.5-5.5,10.8-7.1c8.3-3.4,16.9-6.5,25.6-9.3c6.5-2,13.3-3.8,20-5.1c-29.2,0.2-58.5,0.4-87.5,0.6c1.5-5.9,2.9-11.7,4.4-17.6
	c3.1-3.4,6.9-6.1,10.8-8.9c16.7-11.5,36-20,55.6-27.7c-2.3-3-5.4-5.9-6-9.5c-1.2-5.1,1.3-10.3,4.6-14.6c1.9-2.4,3.7-5.1,6.7-6.7
	c2.9-1.6,6.9-1.8,10.2-0.6c10.8,4,22.1,11.1,30.4,17.6c0.8,0.6,1.9,1.2,2.3,2.2c-1.9,5.3-4,10.5-6,15.8c-8.7,1.6-17.3,3-25.8,5.5
	c0.8,4.5,2.3,9.3,0,13.6c-0.8,0-1.9-0.2-1.9-1c-0.4-3.6-2.5-7.1-4.6-10.3c-10.8,3.4-21.4,7.1-31.6,11.7c-8.1,3.8-16.4,7.9-22.5,14
	c44.8,0,89.9,0,134.7,0c-2.9,5.3-6,10.5-8.9,15.8c-29.4,5.9-58.7,12.3-87.2,20.9c-11.9,3.6-23.9,7.7-34.6,13.6c-1.2,0.6-1.7,2-1,3
	c1.7,2,4.6,3,7.1,4.3c5.4,2.4,11.5,3.8,17.5,5.5c4.2,1,8.5,2,12.9,3.2c-0.4,6.3-0.4,12.6-1,19c-3.5,0-7.1-0.4-10.6-0.8
	c-6.9-0.6-13.9-1.2-20.6-2.8c-9-2.4-17.3-6.9-23.7-12.8c-6.9-6.3-12.1-14-15.8-21.9c-5-11.1-7.7-24.7-8.7-36.4c-0.4,0-0.6,2.2-1,2.2
	c-1.2,5.3-2.7,9.7-4.8,14.8c-0.4,1.2-1.3,2-2.3,3c-6.7,6.5-13.9,12.6-21.4,18.4c-7.7,5.9-15.6,11.5-24.2,16.6
	c-9,5.1-18.9,9.7-29.6,11.7c-5.8,1-12.5,1.2-17.5-1.8c-5.8-3.2-8.5-8.9-10-14.2c-5.2,3.2-10.4,6.5-15.8,9.5
	c-4.8,2.6-9.6,5.5-15.2,7.1c-13.9,4.3-28.1,7.1-42.3,9.9c-10.2,2-20.4,3.8-30.8,5.5c9.6-4.5,19.2-8.9,28.7-13.4
	c25.8-12.3,51.2-25.1,75.4-39.5c3.3-13.2,8.7-26.5,19-37c0.2,0,0.4,0,0.6-0.2c-0.8,1.4-1.2,3-2.1,4.5c-6.2,9.1-10.6,19.2-12.3,29.6
	c11-6.7,21.7-13.8,31.9-21.3c6.3-4.7,12.1-9.7,17.5-15c1.5-1.4,3.5-2.8,4-4.9c0.2-1.2,0.2-2-0.8-4.9c-6.3-14.4-15.2-32.4-21.2-45.1
	c1.9-6.5,3.8-12.8,6-19.2c2.7,1.4,4.4,3.8,6.3,5.9c4,4.9,7.7,9.7,11,15c1.9,2.8,2.3,6.1,2.9,9.3c-2.7-2-4.6-4.7-7.5-6.5
	c0.2,0.4,0.4,0.8,0.6,1.4c4.6,7.7,7.9,16,10,24.5c1.3,5.1,1.9,10.1,1.5,15.4c-0.2,5.7-1.2,11.3-4.2,16.4c-2.7,4.5-6.3,8.5-10.2,12.3
	c-13.1,12.8-28.3,23.7-43.9,34.2c0,0.6,0.8,0.8,1.3,1.2c5.6,2.8,12.5,2.6,18.7,1.6c4.6-0.8,9.4-1.6,13.9-3.4
	c11.2-4.9,21-11.7,30.4-18.6c12.3-9.3,24.1-19.4,35.2-29.8c-3.7-10.9-7.5-21.9-11.5-32.8c-2.1-5.7-4-11.5-6.7-17
	c-4.2-7.3-8.3-14.8-11.9-22.5C512,342.6,513.8,336.9,515.5,331.1 M628.5,360.8c-1.3,0.4-2.5,1.6-1.9,3c0.2,1,1.5,1.2,2.1,2
	c2.7,2.6,5.4,5.5,7.7,8.3c6-1.8,11.9-3.4,17.9-5.1c-4.4-3.4-9.4-6.9-15.2-8.5C635.6,359.6,631.7,359.6,628.5,360.8L628.5,360.8z
	 M759.1,353.3c18.3-9.3,36.4-18.8,54.4-28.1c-0.6,2.8-1.5,6.1-4.4,8.1c-17.7,9.1-35.4,18.2-53.1,27.3
	C757,358,758.1,355.5,759.1,353.3L759.1,353.3z M667.3,317.9c1.7-0.8,4.2-0.8,5.2,0.8c1.5,2,1.9,4.5,1.2,6.9
	c-1.5,4.5-5.2,8.3-9,11.5c-4.6,3.8-10.4,7.3-16.9,8.3c1.2-1.2,2.7-1.8,4.2-2.6c4-2.2,8.1-4.9,11.5-7.9c1.7-1.8,3.8-3.6,4-6.1
	c0.2-2-2.1-3.6-4.2-4c-3.3,0.4-5.2,2.8-7.7,4.5c-0.6-1.4,1-2.4,1.9-3.4C660.4,322.8,663.3,319.7,667.3,317.9L667.3,317.9z
	 M430.3,308.2c5.6-2.8,11-5.9,16.7-8.7c-0.6,3-1.7,6.3-5.2,7.9c-12.3,6.3-24.4,12.8-36.7,19c1.3-2.4,2.7-4.7,4.2-7.1
	C416.2,315.5,423.4,311.8,430.3,308.2L430.3,308.2z M966.3,289.8c8.1,4.5,14.8,10.9,18.5,18.6c3.5,7.3,3.5,15.8,0.6,23.3
	c-0.4,0.8-1.2,1.4-1.9,2.2c1.3-5.1,1.7-10.5,0-15.6c-2.5-8.1-9.4-14.8-18.1-18.6C965.9,296.4,965.9,293,966.3,289.8L966.3,289.8z
	 M770.8,293c1.3-1.4,2.7-2.8,4.2-4.3c-1.5,2.8-0.4,5.9,0.4,8.7c0.8,2.6,1.5,5.3,2.7,7.7c1.5,1.6,4,2.4,6.5,2.4c1.2,0,1.7-1,1.3-1.8
	c-1.2-3.2-2.7-6.3-4.4-9.1c0.4-2.2,1.3-4.3,1.9-6.5c0.8,0,1.7,0.2,2.5,0.2c0.6,3.8,3.1,7.3,4.8,10.7c0,2.8-0.4,5.7-1,8.3
	c-0.4,1.8-1.3,4-3.7,5.1c-1.9,0.6-4.2,1-6.3,0.2c-2.9-1-5-3.2-6.9-5.3c-1.2,3-4,5.5-7.7,6.5c-2.9,1.2-6.5,0-8.3-2
	c-2.1-2.4-2.5-5.5-2.5-8.5c0.2-2.8,0.4-5.7,1.9-8.3c1-1.8,2.3-3.4,4.6-4c-2.9,4-3.3,9.3-1.2,13.8c0.6,1.2,1.9,2.4,3.7,2.4
	c2.7-0.2,4.6-1.6,6.3-3.2c0-3.6,0.2-7.1,0.2-10.7C770.4,294.6,770.1,293.8,770.8,293L770.8,293z M330,264
	c6.5,3.6,11.9,9.1,14.4,15.4c2.1,5.1,1.9,10.7,0,15.8c-0.2,0.8-1,1.4-1.7,2c1.3-4.9,1.2-9.9-1.2-14.6c-2.5-4.7-6.9-8.5-12.3-11.1
	C329.7,269.1,329.8,266.5,330,264L330,264z M544.4,258.8c1.5-1.6,2.9-3.4,4.8-4.5c-1.3,1.6-0.8,3.6-0.4,5.5
	c0.8,3.4,1.9,6.9,3.1,10.1c0.4,1.4,2.1,2,3.5,2.4c1.3,0.4,2.9,0.8,4,0.2c0.8-0.6,0.4-1.6,0.2-2.4c-1.3-2.8-2.5-5.9-4.2-8.5l1.9-6.3
	c1,0,1.7,0.2,2.7,0.2c0.4,3.8,2.9,7.3,4.8,10.7c0,3-0.4,6.1-1.2,8.9c-0.4,1.8-1.3,3.4-3.3,4.5c-2.3,0.8-5,1-7.1,0
	c-2.5-1.2-4.6-3-6.2-5.1c-1.3,3-4.4,5.5-8.1,6.5c-2.5,0.8-5.6,0-7.3-1.8c-2.3-2-2.9-4.7-3.1-7.3c-0.2-3.2,0.2-6.7,1.7-9.7
	c1-1.8,2.5-3.4,4.6-4.3c-2.1,3.4-3.1,7.3-1.9,11.1c0.6,2,1.3,4.5,4,5.1c2.9,0.4,5.2-1.4,6.9-3C544.4,267.3,544,263,544.4,258.8
	L544.4,258.8z M765.2,253.3c9.6-3.4,19.2-6.9,29.1-9.9c-0.4,1.8-1.2,4-3.3,4.9c-13.9,4.9-27.9,9.9-41.6,15.4
	c-2.7,1.2-5.6,2.4-7.7,4.5c1.5,1.4,3.8,1.8,5.8,2.4c0,1.4,0,2.6,0,4c-2.9-0.6-5.8-1.4-8.1-3c0.2-1.8,0-3.8,0.4-5.7s2.5-2.4,4-3.4
	C750.6,258.8,757.9,256.2,765.2,253.3L765.2,253.3z M332.9,236.7l0.4,0.4c-0.8,1-0.4,2.2-0.2,3.2c0.4,2.2,1.2,4.5,2.1,6.7
	c0.4,1,1.5,1.4,2.5,1.8c1,0.2,2.3,0.6,2.7-0.4c-0.6-2.4-2.1-4.5-3.1-6.7c0.4-1.2,0.6-2.6,1.3-3.8c0.6,0,1,0,1.5,0
	c0.6,2.4,2.1,4.9,3.3,7.1c0,2.4-0.2,4.9-1.2,7.1c-0.8,1.6-2.9,2-4.6,1.8c-2.5-0.2-4.2-2-5.8-3.6c-1,2.2-3.5,4-6.3,4.5
	c-2.5,0.2-4.4-1.4-5.2-3.4c-0.8-2.4-0.8-5.1,0-7.5c0.6-1.8,1.5-3.6,3.7-4.3c-1.7,2.4-2.1,5.3-1.2,7.9c0.4,1,1.2,2.4,2.7,2.6
	c1.7,0,3.1-1,4.2-2c0.4-2.6,0-5.5,0.4-8.1C331,238.5,332.2,237.7,332.9,236.7L332.9,236.7z M412.6,232.1c1.2,0.2,1.7,1,2.7,1.4
	c5.2,3.6,9.6,8.3,11.7,13.8c1.9,5.1,1.9,10.3,0.2,15.4c-0.2,0.8-1,1.6-1.5,2.2c0,0-0.2-0.2-0.2-0.4c1.3-4.7,1.2-9.5-1.2-14
	c-2.3-4.9-6.9-8.7-12.3-11.3C412.2,236.9,412.4,234.5,412.6,232.1L412.6,232.1z M460.7,227.8c1.3-2.6,4.8-5.1,8.5-4.5
	c1.9,0.4,3.1,1.6,3.8,3c1.3,2.8,1.5,6.1,1,9.1c2.3,2.2,4.6,4.5,5.6,7.5c1.7,3.8,0.2,7.9-1.3,11.5c-1.9,4.9-5.6,9.3-6.2,14.6
	c-0.2,1.2,0.4,2.6,1.9,3c2.5-0.6,2.9-3,3.5-5.1c0.8-0.2,2.1-0.2,2.3,0.6c0.4,2.2-0.8,4.5-1.7,6.7c-1,1.6-2.1,3.4-4.4,3.8
	c-1.7,0.2-3.3-1-4-2.2c-2.1-3.4-1.3-7.7,0.4-11.1c2.7-5.7,6.3-11.1,6-17.4c0-2.6-1.3-5.1-3.5-7.1c-3.3,7.1-8.3,13.6-14.2,19.2
	c-3.1,3.2-7.5,5.1-11.5,7.1c-3.8,1.6-7.5,3.2-11.5,4.5c7.7-4.7,15-9.7,21.5-15.6c5.2-4.9,10.2-10.5,12.1-17l-0.2-0.4
	c-2.9-1.6-6.3-2.8-7.7-5.7C460.1,231.1,460.1,229.2,460.7,227.8 M463.6,228.4c-0.8,0.4-0.2,1.2,0.4,1.4c1.7,0.8,3.7,1.6,5.6,2.4
	c0-1.6,0.4-3.4-1.3-4.7C466.6,226.8,464.5,227.6,463.6,228.4L463.6,228.4z M767.6,225c1-1.4,2.5-3,4.6-2.8c2.3,0.4,4.6,1.4,6,3
	c0.8,1,1.3,2.6,0,3.4c-0.8,0.6-1.2,1.4-1.9,1.8c-1.2-1.2-2.1-3.6-4.4-3.4c-2.9,0.8-4.6,3.4-5.6,5.9c-1.9,4.9-2.3,10.1-2.9,15.2
	c-0.6,0.4-1.3,0.8-2.1,1.2c0-5.1-1.3-10.7-6-14.6c-2.1-0.2-4.6-0.4-6-2.2c-1.5-2.2-2.5-4.9-1.5-7.5c2.3-0.4,4,1,5.6,2.2
	c4,3,6.7,7.3,9,11.3C763.9,233.9,764.9,229.2,767.6,225L767.6,225z M189.2,226.8c1.2-1.8,2.7-3.6,4.8-4.9c-3.5,6.1-7.5,12.3-8.7,19
	c-0.4,2.2-0.4,4.9,1.3,6.7c1.5,1.6,4.4,1.6,6.7,1.2c2.5-0.8,3.7-3,4.8-5.1c0.6,0,0.6,0.6,1,0.8c-1.3,4.5-2.7,9.1-6.5,12.3
	c-3.7,3.2-11,1.6-12.7-2.4c-1.3-2.8-1-6.1-0.2-9.1C181.5,238.7,185.2,232.7,189.2,226.8L189.2,226.8z M533.6,219.7
	c6.5,3.6,11.9,9.1,14.4,15.6c1.3,3.4,1.7,6.9,1.2,10.3c-0.4,2.4-0.8,5.1-2.5,7.3c-0.2-0.6,0-1.4,0-2c1.2-5.1,0.2-10.3-2.9-14.8
	c-2.5-3.6-6.3-6.7-11-8.9C533.2,224.8,533.4,222.3,533.6,219.7L533.6,219.7z M625.6,216.5c2.7,1.2,4.2,3.2,6,5.1
	c4,5.1,7.5,10.5,10.6,16c0.4,0.8,0.4,1.6,0.6,4c-1.9-1.6-4-3.4-6.9-3.8c-0.6,0.8-0.4,1.8,0,2.8c3.7,9.3,7.7,18.4,11.2,27.7
	c2.3,6.1,4.2,12.3,4.2,18.6c0.2,5.9-1.2,11.7-3.1,17.4c-2.1,5.3-5.4,10.5-10.8,14.2c-4.4,3-10.4,4.3-16,3.8
	c-6.9-0.4-13.5-3.2-18.3-7.3c-2.5-2-4.6-4.5-6.5-6.9l0.8-0.2c-0.2,0-0.6,0-0.8,0c-4.2-6.1-7.5-12.8-9.4-19.6c0.2-0.8-1.9-0.8-1.7,0
	c-2.7,10.1-6.9,19.8-13.9,28.5c-4,4.9-9.2,9.3-15.8,11.9c-7.1,2.8-15.4,3-22.9,1.2c-7.5-1.8-13.5-6.7-16.7-12.6
	c-4.6-8.3-5.4-17.8-4.8-26.9c1-7.3,3.3-14.6,5.4-21.7c0.8-2.2,1.3-4.5,0.4-6.7c-0.4-0.2-1-0.4-1.2-0.4c-1,0.6-2.1,1-2.9,1.8
	c-5.6,5.1-8.7,11.5-11.2,18c-1.9,5.1-3.3,10.5-4.4,15.8c-1.3,8.5-3.3,17-8.1,24.7c-2.5,4-6.3,8.3-12.1,9.3c-5.4,0.6-11-0.8-14.8-3.8
	c-4.8-3.6-6.9-9.1-8.1-14.2c-1.9-9.3-1.3-18.8-0.2-28.1c0.8-5.7,2.1-11.5,3.5-17c0.4,0,1,0,1.5,0c-1.9,9.5-3.3,19.2-3.1,28.9
	c0.4,5.5,1.2,11.1,3.8,16.2c1.7,3.4,5,6.7,9.2,8.3c4,1.4,9,1.6,12.9-0.4c3.8-2.2,5.8-6.1,7.3-9.5c2.9-7.9,4.2-16,6.3-24.1
	c2.3-8.1,5.8-16,10-23.7c2.3-4.5,5-8.7,8.5-12.8c3.1-3.4,5.8-7.5,10-9.9c0.4,0,1,0,1.3,0c0.8,2.6-0.2,5.5-0.2,8.1
	c-0.2,4.5-2.3,8.7-3.3,13c-1.3,4.9-2.5,9.9-3.8,15c-1.9,7.1-3.1,14.6-0.8,21.9c1.7,5.7,6.3,10.5,12.7,13.2c4,1.8,8.7,2.6,13.3,2.8
	c6.5,0.6,13.3-0.2,19-2.6c6.9-3,11.9-8.5,15.2-14.4c3.1-5.9,5-12.1,5.4-18.6c0-12.8-1-25.7-6.2-37.7c-0.6-1.6-1.5-3.4-1.2-5.3
	c0.8-4.9,2.7-9.5,5-14.2c0.2-0.6,1-0.6,1.3-0.8c2.5,6.1,4.8,12.3,6.3,18.6c1.9,8.3,2.9,16.6,4,24.9c1,5.9,1.2,11.9,2.9,17.8
	c1.5,4.9,3.8,9.5,7.5,13.6c4.4,5.1,11,8.9,18.5,10.3c6.3,1.2,13.1-0.4,18.5-3.2c2.9-1.6,5.8-4.3,4.8-7.3
	c-8.9-19.4-16.2-39.3-23.5-59.1c-0.4-1.6-1.3-3.2-1.5-4.9C620.8,226.2,623.1,221.3,625.6,216.5L625.6,216.5z M378.1,232.7
	c3.1-5.7,6-11.3,9-17c6,11.5,10.8,23.3,14.4,35.4c0.4,2.4-0.4,4.9-0.4,7.3c-2.1-3-4.4-6.1-6.7-9.1c0.6,5.5,1.5,11.1,2.3,16.6
	c4.2,32.8,7.9,65.6,11,98.6c3.7-2.2,6.3-5.3,7.9-8.7c1.9-3.8,4.2-7.7,7.1-11.3c1.2-1.2,2.5-2.8,4.6-2.4c1.2,0,1.7,1.2,1.9,2
	c0.6,3-2.3,5.7-1.7,8.9c0.2,2.4,2.5,4.7,5.4,5.5c4.8,1.4,10.2,0.8,15.2,0.2c2.3-0.4,5-0.8,6.2-2.6c-1.2-3-2.5-6.3-3.8-9.3
	c2.1-4.5,4.4-8.9,6.7-13.4c0.6-1,1-2.2,1.9-3c1.5,5.1,1.9,10.3,2.7,15.6c0.6,8.5-1,17.2-6,24.5c-2.7,3.8-6.7,7.3-12.1,8.3
	c-4.6,1-9.6,0.4-13.9-1.4c-4.8-2.2-8.1-6.3-9.8-10.7c-2.7,5.1-6,9.7-10.4,13.8c0.6,6.5,1.2,13,1.5,19.4c0.4,7.3-1.9,14.4-4.4,21.3
	c-1.3,3-2.5,5.9-4,8.7c-13.9,18.6-31.9,35.2-53.9,47.8c-14.2,8.1-30,14.6-46.8,18.6c-8.7,2-17.5,3.8-26.6,4.5
	c-9.2,0.2-18.9-0.8-27.5-3.6c-8.1-2.6-15.4-7.5-19.8-13.8c-16.2,1.4-32.3,2.2-48.5,2.2c14.4-4.3,28.7-8.9,42.7-14.2
	c-7.9-33.8,11-70.9,24.8-90.5c-9.6,16.6-16,33.6-17.3,50.8c-0.8,11.5,0.2,23.9,6.7,34.4c17.3-6.7,34.2-14.4,50.4-22.9
	c13.7-7.3,26.9-15.4,39.1-24.5c5.8-4.5,11.2-8.9,16-14.2c1.3-1.4,0.8-3.2,0.2-4.9c-1-2.6-2.3-5.1-3.5-7.7
	c-8.3,2.8-16.9,4.7-25.8,4.7c-4.8,0.2-9.8-0.6-14-2.8c-3.7-1.8-6.2-4.9-7.3-8.3c-1.5-4.5-0.8-9.1,0-13.6c1.3-6.5,4.2-13,9.8-17.8
	c3.8-3.4,8.9-6.1,14.4-6.7c6.3,0,12.3,2.6,16.9,6.3c5.8,4.5,9.6,10.5,12.7,16.6c5.6-2.8,11.2-6.1,15.2-10.1c4-3.6,8.5-7.3,13.7-9.5
	c1.3-0.6,3.7-1.4,4.4,0.2c1,2.2,0,4.7-0.6,6.7c-1.7,3.2,0.4,6.7,2.9,9.1c3.5,3.2,9.4,3.6,14.2,2.8c-5.2-44.1-10.4-88.3-15.6-132.4
	C379.5,235.3,378.7,234.1,378.1,232.7 M307.9,368.1c-2.5,0.8-5.8,2.2-6.2,4.9c0.6,2,3.3,2.4,5.4,2.8c6.5,1,13.5,1,20,0
	c-0.2-0.2-0.4-0.6-0.6-0.8c-3.5-3.2-7.7-6.1-12.9-6.9C311.8,367.9,309.8,367.5,307.9,368.1 M350.8,386.1c0.8,8.9-0.8,18-4.2,26.5
	c-1.3,3-2.3,6.1-4.8,8.5c-12.1,13.6-27.9,24.7-44.4,34.4c-14.8,8.5-30.2,16.2-46.6,22.5c2.7,1.2,5.8,2,8.7,2.6
	c8.1,1.4,16.5,0.6,24.6-0.2c25.4-3.2,49.4-12.3,70-25.1c13.7-8.3,26.2-18.2,37.1-28.9c3.7-3.8,8.1-7.7,9-12.6
	c-0.8-8.5-1.9-17.2-2.9-25.7c-5.6,1.8-12.7,2.4-17.9-0.8c-6.2-3.8-8.7-10.5-9.6-16.8C364.7,376.4,358.3,381.9,350.8,386.1
	L350.8,386.1z M662.7,220.5c1.3-2,2.7-4,5.2-5.3c-3.5,5.9-7.1,11.7-8.7,18.2c-0.6,2.8-0.8,6.3,1.9,8.3c1.5,0.6,3.5,1,5.2,0.6
	c3.3-0.6,4.6-3.4,6-5.7c0.4,0.8,0.6,1.8,0.2,2.8c-1.2,3.8-2.7,7.9-6,10.9c-3.8,3.4-11.5,1.4-13.1-2.8c-1.3-4-0.2-8.1,1.3-11.9
	C656.7,230,659.6,225.2,662.7,220.5L662.7,220.5z M258.1,231.5c3.5-5.5,6.7-11.1,10-16.6c5.4,11.7,9.6,23.9,12.7,36
	c0.2,2.2-0.6,4.5-0.8,6.7c-2.5-2.8-3.8-6.1-6.3-8.7c1.3,9.3,1.9,18.6,2.7,27.9c1,11.9,1.9,24.1,2.9,36c7.3-1,14-4.7,18.5-9.7
	c6.7-7.5,9.6-16.8,10.6-25.9c0-11.7-0.8-23.7-5.2-35c-0.8-2.2-2.3-4.5-2.1-6.9c0.6-4.5,2.3-8.9,4.2-13.2c0.4-1,0.8-2.2,2.3-2.6
	c2.1,5.7,4.4,11.3,6,17c2.3,9.1,3.3,18.4,4.6,27.5c0.8,5.7,1.2,11.3,2.7,16.8c2.1,7.3,6.7,14.6,14,19.2c5.6,3.4,12.5,5.9,19.6,4.9
	c5-0.8,10-2.4,13.5-5.5c1.5-1.4,2.7-3.4,1.9-5.3c-7.1-15.2-12.9-30.8-18.7-46.4c-1.9-5.5-4-10.9-6-16.2c-0.6-1.4,0.2-2.8,0.4-4.3
	c1.2-4,2.9-8.3,5-12.1c2.3,1,4,2.8,5.6,4.7c4.8,5.7,8.5,11.7,11.9,18c-0.2,0.8-0.4,1.6-0.4,2.4c-1.7-1.8-4-3.4-6.9-3.8
	c-0.4,0.8-0.4,1.8,0,2.8c3.1,7.9,6.5,15.8,9.6,23.7c2.7,7.1,6,17.2,5.8,21.7c-0.6,6.1-1.5,14.4-3.8,20c-2.5,5.1-6.7,11.1-12.5,14
	c-5,2.4-11.2,2.8-16.7,2c-7.5-1.2-13.9-5.3-18.3-10.1c-6.3-6.9-10.4-15.2-12.7-23.7c-0.4,0-1,0-1.3,0c-2.1,8.5-5.6,16.8-10.6,24.5
	c-4.6,6.9-11,13.2-19.6,16.6c1.5,21.1,3.1,42.1,4.2,63.4c0.2,10.3-0.4,20.9-1,31.2c0,1.4-0.8,2.6-1.3,4c-1.7,4.5-3.5,8.9-5.4,13.4
	c-0.4,0.8-0.8,1.4-1.3,2c-0.2-19.8-2.3-39.7-3.8-59.5c-1.5-17.4-2.9-34.8-4.4-52.4c-6.9-0.2-14.2-1.8-19.4-5.9
	c-6-4.7-9-11.3-10.6-17.8c-1.3-5.9-1.5-11.7-1-17.6c1.2-7.7,3.5-15.2,5.8-22.7c0.4-1.4,0.6-2.8,0.2-4c-0.2-0.4-0.2-1-1-1.2
	c-1-0.2-1.7,0.6-2.5,1c-3.8,3.2-6.5,7.3-8.7,11.3c-4.2,8.5-6.7,17.4-8.1,26.5c-1.2,6.1-2.7,11.9-5.4,17.6c-2.1,4.3-4.8,8.5-9.4,11.1
	c-4,2.2-9.2,2-13.5,0.6c-5.6-1.6-9.4-5.9-11.5-10.3c-3.7-7.7-3.8-16-3.7-24.1c0.6-9.5,2.1-19,4.6-28.1c0.4,0,1-0.2,1.3-0.2
	c-1.9,10.5-3.7,21.5-2.7,32.2c0.4,4.7,1.5,9.3,3.8,13.6c2.1,3.6,5.6,6.9,10.4,8.1c4,1,8.9,1,12.1-1.2c3.7-2.4,5.6-6.3,6.9-10.1
	c3.3-9.3,4.4-19,7.7-28.3c3.3-9.1,7.5-18,13.1-26.3c3.1-4.3,6.5-8.5,10.4-12.6c1.2-1,2.3-2.4,4.2-2.4c1,0.6,0.6,1.8,0.8,2.6
	c-0.6,4.3-0.6,8.5-2.1,12.6c-2.7,8.3-4.6,16.8-6.5,25.3c-1.3,6.7-1.7,13.6,1.3,20c2.3,4.9,6.9,8.7,12.5,10.9c3.1,1.2,6.3,2,9.6,2.4
	c-1.9-23.5-3.8-47.2-5.8-70.6C259.4,238.7,259.8,234.9,258.1,231.5L258.1,231.5z M1000,231.5c3.1-5.9,5.8-11.9,8.9-17.8
	c4.6,12.8,9.2,25.5,13.1,38.5c0.6,2.2,1.3,4.5,1.5,6.7c-0.4,1.8-1.2,3.6-1.2,5.5c-1.7-2.6-3.3-5.3-5-7.9c2.1,33.2,4.6,66.4,7.5,99.4
	c1,10.7,2.1,21.3,2.7,32c0.8,19.8,0,40.1-7.1,58.9c-2.7,6.9-6.2,13.6-10.6,19.8c-6,8.1-14.6,14.4-24.2,19.4
	c-17.1,8.5-36.7,13-56.4,15.8c-1.2,0.4-1.5-0.8-2.1-1.2c17.5-7.1,34.2-15.2,50-24.7c7.9-4.9,15.6-10.1,22.1-16
	c7.5-7.1,13.3-15.6,15.8-24.9c2.9-9.3,1.9-19,1.2-28.5c-1.7-21.9-3.7-43.7-5.4-65.6c-2.7-33.6-5.4-67.4-8.1-101
	c-0.6-2.4-2.3-4.5-3.1-6.7C999.2,232.5,999.8,232.1,1000,231.5L1000,231.5z M955.7,237.3c10.2-8.9,20.2-18,30-27.3
	c0.4,8.3-4.6,16-10.4,22.5c-3.1,3.8-7.3,6.7-11.4,9.7c-1.9,1.4-3.7,2.8-5.4,4.3c0.6,2.2,1.3,4.5,1.5,6.7c-0.2,2-0.6,4.3-0.8,6.3
	c-2.1-2.8-3.8-6.1-6.3-8.7c1.2,9.5,1.7,18.8,2.3,28.3c1.9,27.7,3.8,55.5,5.4,83.2c-0.2,0.8,0.6,1.2,1.2,1.6
	c7.3,6.7,14.4,13.6,21.4,20.6c5.4,5.9,10.4,11.9,14.6,18.6c5.6,8.5,10,17.6,11.4,27.5c0.8,6.1,0.4,12.3-2.1,18.2
	c-4.2-16-11.9-30.6-21-40.7c-7.5-8.5-16-17-24.2-25.1c0.6,9.9,1.2,19.8,1.5,29.8c0.4,12.8-0.2,25.5-0.8,38.3c0,2.4-1.3,4.7-1.9,6.9
	c-1.9,5.3-3.5,10.5-6,15.6c-0.4-11.7-1-23.5-1.7-35.4c-1.5-21.1-3.1-42.1-4.6-63.2c-0.2-1.6-0.2-3.4-0.4-5.1
	c-5.6-5.5-11.5-10.3-17.3-15.6c-10.2-8.9-20.4-17.6-31-25.9c1.9,22.1,4,43.9,6,66c0.8,9.9,1.9,20,1.9,30c0.2,8.7,0,17.4-0.2,26.1
	c0,5.5,0.2,11.1-2.3,16.4c-3.5,6.5-9.6,11.9-17.1,15.2c-5.8,2.6-12.5,4-19,4c-4.4,0-8.9-0.8-12.9-2.6c-6.9-3.2-11.9-8.7-15-14.8
	c-2.1-4-3.7-8.5-4.6-13c-0.4-2-1-4.3-3.1-5.5c-1.7-1-3.7-0.2-5.2,0.4c-3.8,1.8-7.7,3.8-10.4,6.7c-9.2,9.3-13.5,20.9-16.4,32.6
	c-1.3,5.1-3.5,9.9-7.1,14.2c-2.7,2.8-6.5,5.7-11.2,5.9c-3.7,0-7.1-1.2-10.2-2.4c-7.1-3-11.9-8.7-14.8-14.8c-0.8-1.6-1.7-3-3.3-8.7
	c-1.7-6.3-2.3-15.6-1.5-25.1c0.4-1-0.8-1.2-1.5-1.8c-2.5-1.8-3.5-4.7-3.5-7.3c0-9.9,1.7-19.8,6.5-28.9c4-7.5,10-14,16-20.4
	c0.6-0.6,1.5-1.2,1.7-2c-3.7-3.4-7.5-6.9-11.5-10.1c-2.3-2.2-5-3.8-7.1-6.1c-8.3-7.5-16.4-15-24.4-22.7c0.8,11.1,1.3,22.1,2.1,33.2
	c0.6,10.3,1.3,20.4,1.2,30.8c0,9.1-0.4,18.2-1,27.5c0,2.2-1.2,4.5-1.7,6.5c-1.9,5.3-3.7,10.7-6.2,16c-0.4-4.3-0.2-8.7-0.6-13
	c-1-21.7-2.9-43.3-4.4-64.8c-1.2-16.6-2.3-33-3.7-49.6c-5.4-5.7-11.2-10.9-16.5-16.6c-6.3-6.5-12.5-13.2-17.7-20.4
	c-7.5-11.3-16-22.3-26.4-31.8c-0.6-0.4-0.4-1.2-0.4-1.8c0.4-6.3,0.6-12.3,1-18.6c7.5,4,14.4,8.5,21.4,13.2
	c5.2,3.8,10.4,7.9,14.6,12.6c2.1,2.2,4.2,4.9,3.5,7.9c-2.5-0.8-5-1.4-7.5-2.6c-1-0.4-1.9-0.8-3.1-0.8c-0.2,1.8,1.3,3,2.3,4.5
	c7.7,9.5,15.8,18.6,24.1,27.7c1.2,1.2,2.3,2.2,3.1,3.6c-0.6-10.7-1.5-21.3-2.1-32c-1.2-16.4-2.3-33-3.5-49.4c-0.2-2.4,0-5.1-1.3-7.3
	c-0.6-1,0.2-1.8,0.8-2.6c2.9-4.7,5.6-9.1,8.3-13.8c0.2-0.4,0.8-1.2,1-0.4c5.2,11.1,9,22.5,11.9,34c1,2.8-0.2,5.7-0.6,8.3
	c-1.9-3-4-6.1-6.2-9.3c2.7,28.9,4.2,57.9,6.3,86.8c1.3,1.8,3.5,3.4,5.2,5.3c16.2,15.6,33.1,30.6,49.8,45.7
	c12.5-11.5,25.2-23.1,37.7-34.4c0.6-0.4,1-1,0.8-1.6c-3.8-36-7.7-72.1-11.4-108.1c-0.4-3.6-0.4-7.5-1.9-10.9
	c3.1-5.7,6.5-11.1,9.6-16.6c1.7,3,2.9,6.1,4.2,9.1c3.1,7.7,6,15.4,8.1,23.3c0.4,1.8,1.2,3.6,1,5.5c-0.2,1.6-0.6,3.2-0.8,5.1
	c-2.1-2.8-4-5.9-6.2-8.9c3.1,28.9,6,65.6,8.7,92.5c13.1-11.5,26.2-23.3,39.4-34.8c1.3-1.4,3.1-2.6,4.4-4
	c-6.3-7.1-12.5-14.6-18.5-22.1c-2.1-2.4-3.7-5.1-5.8-7.7c-4.2-5.5-8.5-10.9-14.2-15.2c-0.6-7.1-0.8-14-1.2-21.1
	c13.5,9.7,27.1,19.4,40.2,29.6c1.3,1,2.3,2,2.9,3.4c-1.2-10.9-2.3-21.9-3.3-32.8c-0.2-1-0.2-2-0.6-3s-1.3-2-0.6-3
	c3.1-5.3,6-10.7,9-16c5.4,10.5,9.6,21.5,12.9,32.6c0.4,1.6,1.2,3,1,4.7c-0.2,1.8-0.4,3.6-0.6,5.3c-1.9-2.6-3.8-5.3-5.6-7.9
	c-0.4-0.4-0.6-0.8-1-1.2c1.7,12.6,2.9,25.1,4.2,37.7c9.8-8.7,20-17.2,30.2-25.7c4.6-3.6,9.2-7.1,13.7-10.7
	c-0.4-4.9-0.6-9.7-1.2-14.6c0-1.6-1.7-3-0.6-4.7c3.3-5.1,6.3-10.3,9.2-15.4C950.7,223.2,953.2,230.2,955.7,237.3 M897,298.5
	c0.2,2,0.4,3.8,0.6,5.9c3.3,3.2,6.5,6.5,9.8,9.7c12.9,12.1,26.4,23.9,39.4,35.8c-2.1-29.6-4.2-59.3-6.3-88.9
	C925.7,273.2,911.1,285.7,897,298.5 M869.1,271.5c4.2,5.5,8.5,10.7,13.1,15.8c-0.4-4.7-1-9.5-1.3-14.2c-0.2,0.4-0.6,0.8-0.8,1.2
	C876.8,272.3,873,270.9,869.1,271.5 M842.6,348.3c-2.7,2.6-5.6,5.1-8.1,7.7c0.6,8.5,1.9,16.8,2.7,25.1c0.4,14-2.3,28.7-12.7,40.1
	c0.4-1.8,0.2-3.6,0.2-5.5c0-6.3,0.4-12.6,0.2-18.6c0-6.1,0.2-5.5-0.2-18c-0.2-5.1-1-9.3-1.3-13c-3.7,3.2-6.9,6.5-10.6,9.5
	c-7.1,6.5-14.4,12.8-21.7,19c7.3,6.5,11.9,15.2,13.1,24.1c1.2,9.5-1.5,19.4-9,26.9c-6.5,6.5-16,10.5-25.8,12.3
	c-4.6,0.8-9.4,1.4-14,0.2c0.6,4,1.3,7.9,2.3,11.7c1.7,6.7,3.8,13.4,8.1,19c2.3,3,5.4,5.9,9.6,6.7c4.6,1,9.2-1,12.5-3.6
	c2.9-2.2,4.2-5.3,5.4-8.1c3.7-8.7,4.8-18,9.6-26.3c3.3-6.7,7.7-13,13.9-18.2c3.3-2.8,6.9-5.1,10.8-7.3c2.7-1.4,5.8-2.4,9-1.6
	c2.9,0.8,5,2.8,6.3,5.1c3.1,4.9,3.8,10.5,6.5,15.8c1.9,4.3,4.2,8.5,8.7,11.5c4.4,2.8,10.2,3.8,15.8,3.6c9.6-0.4,25.4-6.9,26.2-8.7
	c0.8-1.8-1.3-16.4-2.3-24.5c-4.2-39.9-8.1-80-12.3-119.8c-0.2-1-1.3-1.8-1.9-2.8C869.3,323.2,855.9,335.7,842.6,348.3 M780.1,405.5
	c-2.9,2.8-5.6,5.7-8.3,8.5c-5.2,5.7-10.2,11.5-14,18c-1,1.6-1.9,3.6-0.8,5.5c1.3,1.8,4,2,6.3,2c10-0.4,19.6-4,27.7-8.7
	c2.7-1.2,5.4-3.6,4.2-6.3c-1.3-3.6-3.8-6.9-6.3-9.9c-2.7-3-5.4-6.1-8.3-8.9C780.4,405.3,780.1,405.5,780.1,405.5L780.1,405.5z"/>
</svg>
