<?xml version="1.0" encoding="UTF-8" standalone="no"?>
<!-- Created with Inkscape (http://www.inkscape.org/) -->

<svg
   version="1.0"
   width="800"
   height="400"
   id="svg2"
   sodipodi:docname="Flag_of_the_Byelorussian_Soviet_Socialist_Republic_(1937-1951).svg"
   inkscape:version="1.3 (0e150ed6c4, 2023-07-21)"
   xmlns:inkscape="http://www.inkscape.org/namespaces/inkscape"
   xmlns:sodipodi="http://sodipodi.sourceforge.net/DTD/sodipodi-0.dtd"
   xmlns="http://www.w3.org/2000/svg"
   xmlns:svg="http://www.w3.org/2000/svg">
  <sodipodi:namedview
     id="namedview1"
     pagecolor="#ffffff"
     bordercolor="#000000"
     borderopacity="0.25"
     inkscape:showpageshadow="2"
     inkscape:pageopacity="0.0"
     inkscape:pagecheckerboard="0"
     inkscape:deskcolor="#d1d1d1"
     inkscape:zoom="1.395"
     inkscape:cx="400"
     inkscape:cy="199.64158"
     inkscape:window-width="1920"
     inkscape:window-height="1007"
     inkscape:window-x="-9"
     inkscape:window-y="-9"
     inkscape:window-maximized="1"
     inkscape:current-layer="svg2" />
  <defs
     id="defs5" />
  <rect
     width="800"
     height="400"
     x="0"
     y="0"
     style="fill:#be000d;fill-opacity:1;stroke:none;stroke-width:4.24900007;stroke-miterlimit:4;stroke-dasharray:none;stroke-opacity:1"
     id="rect5323" />
  <path
     d="M 76.2101,156.62373 L 76.795169,168.99377 L 75.290704,168.99377 C 74.39913,164.98191 73.027007,162.43269 71.174326,161.34608 C 69.32157,160.25958 66.027078,159.7163 61.290837,159.71624 L 51.762564,159.71624 L 51.762564,182.15783 L 54.019261,182.15783 C 60.956481,182.15786 66.054937,182.59666 69.314643,183.47423 C 72.574274,184.35186 75.227978,186.03047 77.275761,188.51 C 79.323458,190.98962 80.347328,193.97067 80.347376,197.45321 C 80.347328,201.66015 78.787146,205.35165 75.666822,208.52775 C 72.546413,211.70384 67.169355,213.29188 59.535626,213.29188 L 35.54779,213.29188 L 35.54779,211.74562 C 39.058199,211.63417 41.300962,211.07697 42.276086,210.07399 C 43.251192,209.07102 43.738749,206.70289 43.738759,202.96958 L 43.738759,166.94603 C 43.738749,164.07645 43.53676,162.14015 43.132794,161.13713 C 42.728809,160.1342 42.067125,159.42376 41.147736,159.0058 C 40.228336,158.58795 38.528851,158.30935 36.049277,158.16999 L 36.049277,156.62373 L 76.2101,156.62373 z M 51.762564,209.90682 C 54.214264,210.29688 56.122701,210.49189 57.487885,210.49189 C 60.914692,210.49189 64.014163,209.34962 66.786307,207.06506 C 69.558385,204.78052 70.944441,201.61836 70.944476,197.57858 C 70.944441,193.39954 69.495698,190.30006 66.598248,188.28017 C 63.700733,186.2603 60.023157,185.25038 55.565514,185.25034 C 54.311774,185.25038 53.044127,185.3618 51.762564,185.58467 L 51.762564,209.90682 z M 134.71701,155.32822 L 136.01254,174.59372 L 134.71701,174.59372 C 132.98963,168.82665 130.52398,164.67545 127.32009,162.1401 C 124.11608,159.60486 120.27135,158.33721 115.78585,158.33715 C 112.02467,158.33721 108.6257,159.29143 105.58893,161.19981 C 102.55212,163.1083 100.1631,166.15205 98.421836,170.33107 C 96.680543,174.51017 95.809904,179.70614 95.809919,185.91899 C 95.809904,191.04534 96.631788,195.48908 98.275567,199.25021 C 99.919316,203.01138 102.39193,205.89493 105.69341,207.90088 C 108.99485,209.90684 112.76297,210.9098 116.99778,210.9098 C 120.67532,210.9098 123.92106,210.12275 126.735,208.54863 C 129.54888,206.97452 132.64138,203.84719 136.01254,199.16663 L 137.30805,200.00245 C 134.46622,205.04519 131.15083,208.73669 127.36186,211.07697 C 123.57281,213.41725 119.07335,214.58738 113.86348,214.58738 C 104.47449,214.58738 97.202927,211.10484 92.04876,204.13971 C 88.204013,198.95769 86.281645,192.85626 86.281649,185.83541 C 86.281645,180.17977 87.549295,174.9838 90.084599,170.24749 C 92.619889,165.51126 96.109406,161.84065 100.55316,159.23565 C 104.99687,156.63076 109.85155,155.32828 115.1172,155.32822 C 119.21265,155.32828 123.25241,156.33126 127.2365,158.33715 C 128.40659,158.95014 129.2424,159.2566 129.74394,159.25655 C 130.49611,159.2566 131.15083,158.99193 131.7081,158.46252 C 132.43241,157.71035 132.94783,156.66558 133.25435,155.32822 L 134.71701,155.32822 z M 191.88665,155.32822 L 193.18215,174.59372 L 191.88665,174.59372 C 190.15923,168.82665 187.69362,164.67545 184.4897,162.1401 C 181.28571,159.60486 177.44097,158.33721 172.95548,158.33715 C 169.19428,158.33721 165.79532,159.29143 162.75857,161.19981 C 159.72174,163.1083 157.33271,166.15205 155.59146,170.33107 C 153.85017,174.51017 152.97953,179.70614 152.97953,185.91899 C 152.97953,191.04534 153.80141,195.48908 155.44518,199.25021 C 157.08893,203.01138 159.56155,205.89493 162.86303,207.90088 C 166.16446,209.90684 169.93259,210.9098 174.1674,210.9098 C 177.84494,210.9098 181.09069,210.12275 183.90464,208.54863 C 186.71849,206.97452 189.81099,203.84719 193.18215,199.16663 L 194.47765,200.00245 C 191.63586,205.04519 188.32047,208.73669 184.53149,211.07697 C 180.74243,213.41725 176.24296,214.58738 171.0331,214.58738 C 161.64412,214.58738 154.37256,211.10484 149.21837,204.13971 C 145.37363,198.95769 143.45127,192.85626 143.45127,185.83541 C 143.45127,180.17977 144.71891,174.9838 147.25422,170.24749 C 149.7895,165.51126 153.27902,161.84065 157.72278,159.23565 C 162.16649,156.63076 167.02117,155.32828 172.28683,155.32822 C 176.38227,155.32828 180.42204,156.33126 184.40611,158.33715 C 185.57621,158.95014 186.412,159.2566 186.91356,159.25655 C 187.66575,159.2566 188.32047,158.99193 188.87771,158.46252 C 189.60204,157.71035 190.11747,156.66558 190.42397,155.32822 L 191.88665,155.32822 z M 215.08047,186.7548 L 215.08047,203.26212 C 215.08043,206.82826 215.47049,209.04315 216.25062,209.90682 C 217.30928,211.13269 218.91125,211.74562 221.05652,211.74562 L 223.22964,211.74562 L 223.22964,213.29188 L 198.94926,213.29188 L 198.94926,211.74562 L 201.0806,211.74562 C 203.4766,211.74562 205.19001,210.96552 206.22086,209.40534 C 206.77804,208.54167 207.05664,206.49393 207.05665,203.26212 L 207.05665,166.65349 C 207.05664,163.08741 206.68052,160.8725 205.9283,160.00878 C 204.84173,158.78297 203.22584,158.17004 201.0806,158.16999 L 198.94926,158.16999 L 198.94926,156.62373 L 219.71923,156.62373 C 224.7898,156.62379 228.78777,157.14617 231.71314,158.19088 C 234.63843,159.23571 237.1041,160.99788 239.11008,163.4774 C 241.11599,165.95703 242.11899,168.8963 242.11901,172.29523 C 242.11899,176.9201 240.5936,180.68125 237.54293,183.57871 C 234.49217,186.47623 230.18078,187.92497 224.60873,187.92495 C 223.24354,187.92497 221.76695,187.82745 220.17891,187.63241 C 218.59086,187.43741 216.89138,187.14488 215.08047,186.7548 L 215.08047,186.7548 z M 215.08047,184.37273 C 216.55704,184.65137 217.86647,184.86032 219.00878,184.99959 C 220.15104,185.13893 221.12615,185.20858 221.93414,185.20856 C 224.83158,185.20858 227.33206,184.08719 229.43554,181.8444 C 231.53897,179.60166 232.59071,176.69722 232.59075,173.13104 C 232.59071,170.67937 232.08923,168.40178 231.08628,166.29827 C 230.08327,164.19486 228.66239,162.62074 226.82364,161.57593 C 224.98482,160.53121 222.8953,160.00883 220.55502,160.00878 C 219.13414,160.00883 217.30928,160.27351 215.08047,160.8028 L 215.08047,184.37273 z "
     style="font-size:36px;font-style:normal;font-variant:normal;font-weight:normal;font-stretch:normal;text-align:start;line-height:100%;writing-mode:lr-tb;text-anchor:start;fill:#fcd20f;fill-opacity:1;font-family:Times New Roman"
     id="flowRoot4185" />
  <path
     d="M 138.78173,19.25757 L 137.47965,23.27542 L 134.13144,33.58045 L 123.30558,33.58045 L 119.06451,33.58045 L 122.48713,36.07301 L 131.26687,42.4346 L 127.91866,52.70243 L 126.61658,56.72028 L 130.03919,54.22773 L 138.78173,47.90333 L 147.52427,54.22773 L 150.94688,56.72028 L 149.6448,52.70243 L 146.2966,42.3974 L 155.03914,36.07301 L 158.46174,33.58045 L 154.25788,33.58045 L 143.43201,33.58045 L 140.08381,23.27542 L 138.78173,19.25757 z M 138.78173,28.14892 L 141.12547,35.36616 L 141.42309,36.33342 L 142.42756,36.33342 L 149.97962,36.33342 L 143.87845,40.7605 L 143.05999,41.35573 L 143.39481,42.32299 L 145.73856,49.54024 L 139.60018,45.07596 L 138.78173,44.48073 L 137.96328,45.07596 L 131.8249,49.54024 L 134.16864,42.32299 L 134.46626,41.35573 L 133.68502,40.7605 L 127.58384,36.33342 L 135.13591,36.33342 L 136.14037,36.33342 L 136.43799,35.36616 L 138.78173,28.14892 z "
     style="fill:#fcd20f;fill-opacity:1;fill-rule:evenodd;stroke:none;stroke-width:2.31038356;stroke-linecap:butt;stroke-linejoin:miter;stroke-miterlimit:4;stroke-dasharray:none;stroke-opacity:1"
     id="path9658" />
  <polygon
     points="48.9274,74.0974 51.2962,76.4662 53.2044,74.4922 65.6041,86.8927 67.3719,85.216 54.6179,73.1104 57.284,70.7416 53.4018,69.6888 48.9274,74.0974 "
     transform="matrix(4.0957288,0,0,4.1224746,-95.437043,-214.07173)"
     style="fill:#fcd20f;fill-opacity:1;fill-rule:evenodd;stroke:none;stroke-width:0.35280001;stroke-linecap:round;stroke-linejoin:bevel"
     id="polygon1374" />
  <path
     d="M 144.99049,60.80792 C 165.7483,74.77941 176.13772,88.950202 177.0526,103.32208 C 176.49929,135.1959 141.94955,149.99737 119.11123,123.85647 L 119.20644,128.78056 L 114.84883,128.59611 C 111.87181,134.37493 108.7397,139.89056 106.16448,143.23925 C 99.231638,145.29733 95.845658,143.13579 97.643227,134.80858 C 101.21379,131.00327 106.56985,128.39638 111.03293,125.19029 L 111.24609,121.17941 L 116.75858,120.89644 L 117.22294,119.34581 L 120.58166,119.41643 C 143.09326,141.6778 168.50009,117.514 166.89425,99.880266 C 165.28841,82.24652 159.14485,76.20005 144.99049,60.80792 L 144.99049,60.80792 z "
     style="fill:#fcd20f;fill-opacity:1;fill-rule:evenodd;stroke:none;stroke-width:0.36186126;stroke-linecap:round;stroke-linejoin:bevel"
     id="path1376" />
</svg>
