<?xml version="1.0" encoding="UTF-8" standalone="no"?>
<svg
   xmlns:dc="http://purl.org/dc/elements/1.1/"
   xmlns:cc="http://creativecommons.org/ns#"
   xmlns:rdf="http://www.w3.org/1999/02/22-rdf-syntax-ns#"
   xmlns:svg="http://www.w3.org/2000/svg"
   xmlns="http://www.w3.org/2000/svg"
   xmlns:sodipodi="http://sodipodi.sourceforge.net/DTD/sodipodi-0.dtd"
   xmlns:inkscape="http://www.inkscape.org/namespaces/inkscape"
   width="900"
   height="600"
   viewBox="0 0 9 6"
   version="1.1"
   id="svg2"
   sodipodi:version="0.32"
   inkscape:version="0.92.3 (2405546, 2018-03-11)"
   sodipodi:docname="Flag_of_the_Dutch_East_India_Company.svg"
   inkscape:output_extension="org.inkscape.output.svg.inkscape">
  <sodipodi:namedview
     inkscape:window-height="1017"
     inkscape:window-width="1920"
     inkscape:pageshadow="2"
     inkscape:pageopacity="0.0"
     guidetolerance="10.0"
     gridtolerance="10.0"
     objecttolerance="10.0"
     borderopacity="1.0"
     bordercolor="#666666"
     pagecolor="#ffffff"
     id="base"
     showgrid="false"
     inkscape:zoom="0.5"
     inkscape:cx="467.09983"
     inkscape:cy="385.20838"
     inkscape:window-x="-4"
     inkscape:window-y="-4"
     inkscape:current-layer="svg2"
     inkscape:window-maximized="1" />
  <metadata
     id="metadata12">
    <rdf:RDF>
      <cc:Work
         rdf:about="">
        <dc:format>image/svg+xml</dc:format>
        <dc:type
           rdf:resource="http://purl.org/dc/dcmitype/StillImage" />
        <dc:title />
      </cc:Work>
    </rdf:RDF>
  </metadata>
  <defs
     id="defs10">
    <inkscape:perspective
       id="perspective14"
       inkscape:persp3d-origin="450 : 200 : 1"
       inkscape:vp_z="900 : 300 : 1"
       inkscape:vp_y="0 : 1000 : 0"
       inkscape:vp_x="0 : 300 : 1"
       sodipodi:type="inkscape:persp3d" />
  </defs>
  <desc
     id="desc4">Flag of the Netherlands</desc>
  <rect
     id="blue"
     height="6"
     width="9"
     fill="#21468B" />
  <rect
     id="white"
     height="4"
     width="9"
     fill="#FFF" />
  <rect
     id="red"
     height="2"
     width="9"
     fill="#AE1C28" />
  <g
     id="g834"
     transform="matrix(0.00576894,0,0,0.00576894,3.5423106,2.1979241)"
     style="opacity:1">
    <path
       id="path817"
       style="fill:#000000;fill-rule:evenodd;paint-order:normal"
       d="M 179,240 74,40 C 67,26 95,27 98,24 V 14 l -84,-1 -4,5 c 0,0 4,8 10,10 9,2 15,4 20,7 l 126,233 h 10 l 9,-14 101,-210 9,-15 6,-3 11,-2 10,-5 v -6 l -8,-3 h -62 c 0,0 -2.82714,2.18929 -5,4 -6,5 3,8 3,8 l 20,4 4,4 v 6 z"
       inkscape:connector-curvature="0" />
    <path
       id="path819"
       d="M 109.05469,70.54102 C 96.23986,70.38776 83.41967,72.71552 77,76 34,98 39,148 55,168 c 19.61582,24.51978 44,35 82,22 32.33611,-11.06235 44.60148,-74.18047 3,-112 -5.5,-5 -18.13048,-7.30573 -30.94531,-7.45898 z M 91.21484,79.34961 C 108.02344,78.83545 126.8125,91.9375 139,109 c 15,21 22,61 -4,75 -26,14 -56,-6 -66,-31 -10,-25 -8,-62 11,-71 3.5625,-1.6875 7.33594,-2.53174 11.21484,-2.65039 z"
       inkscape:connector-curvature="0"
       style="" />
    <path
       id="path821"
       d="m 282,132 h 7 l 15,-43 h -14 l -1,2 c 0,0 -10.03001,-6.62209 -15,-10 -25,-16.99151 -60,-13 -79,13 -10.50495,14.37519 -21,44 -6,74 4.47214,8.94427 24.29118,21.78735 35,25 50,15 55,-24 55,-24 l -6,-4 c 0,0 -15,22 -34,22 -23,0 -40.14286,-22 -39,-38 l 1,-14 8,-25 c 5.44,-17 33.56701,-36.11052 52,-28 25,11 21,50 21,50 z"
       inkscape:connector-curvature="0"
       style="" />
  </g>
</svg>
