<?xml version="1.0" encoding="UTF-8"?>
<!-- Creator: CorelDRAW -->
<svg id="svg2" width="600px" height="300px" style="clip-rule:evenodd;fill-rule:evenodd;image-rendering:optimizeQuality;shape-rendering:geometricPrecision;text-rendering:geometricPrecision" version="1.0" viewBox="0 0 600 300" xml:space="preserve" xmlns="http://www.w3.org/2000/svg" xmlns:cc="http://creativecommons.org/ns#" xmlns:dc="http://purl.org/dc/elements/1.1/" xmlns:rdf="http://www.w3.org/1999/02/22-rdf-syntax-ns#"><metadata id="metadata21"><rdf:RDF><cc:Work rdf:about=""><dc:format>image/svg+xml</dc:format><dc:type rdf:resource="http://purl.org/dc/dcmitype/StillImage"/></cc:Work></rdf:RDF></metadata><defs id="defs4"><style id="style6" type="text/css"><![CDATA[
    .str0 {stroke:black;stroke-width:0.0762}
    .fil2 {fill:none}
    .fil0 {fill:#CC0000}
    .fil1 {fill:gold}
    .fil3 {fill:gold;fill-rule:nonzero}
   ]]></style></defs><rect id="rect1948" class="fil0" width="600" height="300" style="clip-rule:evenodd;fill-rule:evenodd;fill:#be000d;image-rendering:optimizeQuality;shape-rendering:geometricPrecision"/><g id="g4184" transform="matrix(.72974 0 0 .72974 -134.63 -7.26391)" style="clip-rule:evenodd;fill-rule:evenodd;fill:#fcd20f;image-rendering:optimizeQuality;shape-rendering:geometricPrecision"><g id="g848"><path id="path4160" d="m260.446 74.8344c3.74527-1.41149 7.49054-3.15067 11.2358-5.6179 0.38849 8.39639 8.83883 20.8237 13.2582 31.2355 8.41624-3.0463 13.827-7.22463 15.5054-12.8088l1.79773 8.57777c-11.1764 3.89872-16.573 7.49802-24.771 12.8361 0.38524-5.29778-6.44344-26.9359-17.0262-34.2227z" style="fill-rule:evenodd;fill:#fcd20f"/><path id="path4162" d="m326.748 53.1914c-3.52175 0.05358-7.72522 0.7668-12.6856 2.34375-3.61536 1.16559-6.06178 1.39604-8.66016 1.74805 4.93469 6.96973 9.18884 29.5637 7.38868 35.9102 4.38925-1.9608 8.4826-2.83237 12.2363-2.46289-1.60795-2.69422-3.76459-5.88085-3.97265-9.375 5.53022-0.306335 10.6163-1.14195 14.6836-3.72266 9.14729-5.80396 10.0272-24.7307-8.99023-24.4414zm-2.72266 2.37891c13.0632 0.02608 13.9327 14.7867 8.82813 19.5176-3.47839 3.22373-8.21085 3.54233-12.5137 4.20312l-5.64257-21.8496 8.02539-1.82617c0.44698-0.03066 0.88134-0.04576 1.30273-0.04492z" style="fill-rule:evenodd;fill:#fcd20f"/><path id="path4166" d="m387.076 60.7786 0.23835-4.2108c-7.93036-6.83495-18.4378-7.86249-27.2511-0.238347-7.10111 12.2582 9.28645 15.6749 13.0297 16.2076 10.7387 1.42434 11.6329 7.02268 9.48291 10.73-1.14787 1.97926-3.80092 2.82635-6.69328 3.24166-8.15073 0.611107-15.4913-3.75538-19.7918-10.1581l0.15895 6.03814c16.7992 13.4248 32.2937 4.92592 32.9714-3.57521s-8.54898-10.2666-14.0625-12.0763-7.97224-2.68826-9.74226-4.06855c-4.49831-3.50786 0.0911-7.80441 6.39236-8.58717 6.83701-0.700514 12.6843 3.07614 15.2672 6.69703z" style="fill-rule:evenodd;fill:#fcd20f"/><path id="path4168" d="m409.152 57.6992c0.56704 1.85765 0.59865 3.1094-0.0566 6.01172l-7.41601 22.9219c-1.69581 4.26893-2.06967 4.86062-3.93164 6.74024l9.88672 3.20312c-1.11619-2.98946-0.58551-6.76779 1.29321-10.0567 3.81277 1.17584 7.52873 2.19743 10.3103 2.713l0.41992 11.1074 7.02149 2.64063-4.51758-13.2949c11.0154 1.32555 13.3034-3.15972 15.5293-9.06445 2.90442-7.70468-3.20508-17.4129-28.5391-22.9219zm8.08985 4.60742c18.9069 4.78219 15.1737 13.1858 13.707 18.3711s-10.3659 9.90254-21.291 3.53906z" style="fill-rule:evenodd;fill:#fcd20f"/></g><g id="g852"><path id="path4177" d="m364.715 140.676-32.8086 0.22461-30.5723 35.084 17.3145 15.2539 17.1836-18.8613 85.0606 79.7578c11.0473 11.4295 22.9769-4.49983 13.1465-12.4707l-90.5273-75.7148 21.2031-23.2734z" style="fill-rule:evenodd;fill:#fcd20f"/><path id="path4182" d="m348.941 116.155 10.3284-4.13135c18.3659 1.71781 32.9784 7.81222 44.2288 16.2802 28.5451 21.4853 36.4869 59.0956 19.8061 86.9191-9.34334 15.5847-31.5261 29.9698-52.4444 31.5385-18.4408 1.38295-39.2779-6.29575-58.6244-22.3967-9.86319 18.6542-21.1845 33.2259-35.2754 40.0424l-6.19704-5.24364c9.40076-17.48 22.0246-29.6858 36.0699-39.5657l-6.35593-6.51483 10.4873-0.1589c15.2358 13.6066 30.0991 19.1254 43.3408 20.1586 30.6108 2.38828 53.1113-18.5053 58.9909-43.4373 7.18947-30.4864-12.5078-70.2903-64.3549-73.4904z" style="fill-rule:evenodd;fill:#fcd20f"/></g></g></svg>
