<?xml version="1.0" encoding="UTF-8" standalone="no"?>
<!-- Created with Inkscape (http://www.inkscape.org/) -->

<svg
   version="1.0"
   width="600"
   height="300"
   id="svg17125"
   sodipodi:version="0.32"
   inkscape:version="1.1.1 (3bf5ae0d25, 2021-09-20)"
   sodipodi:docname="Flag_of_the_Kazakh_Soviet_Socialist_Republic_(1937-1940).svg"
   xmlns:inkscape="http://www.inkscape.org/namespaces/inkscape"
   xmlns:sodipodi="http://sodipodi.sourceforge.net/DTD/sodipodi-0.dtd"
   xmlns="http://www.w3.org/2000/svg"
   xmlns:svg="http://www.w3.org/2000/svg"
   xmlns:rdf="http://www.w3.org/1999/02/22-rdf-syntax-ns#"
   xmlns:cc="http://creativecommons.org/ns#"
   xmlns:dc="http://purl.org/dc/elements/1.1/">
  <metadata
     id="metadata10">
    <rdf:RDF>
      <cc:Work
         rdf:about="">
        <dc:format>image/svg+xml</dc:format>
        <dc:type
           rdf:resource="http://purl.org/dc/dcmitype/StillImage" />
        <dc:title />
      </cc:Work>
    </rdf:RDF>
  </metadata>
  <sodipodi:namedview
     inkscape:window-height="1007"
     inkscape:window-width="1920"
     inkscape:pageshadow="2"
     inkscape:pageopacity="0.0"
     borderopacity="1.0"
     bordercolor="#666666"
     pagecolor="#ffffff"
     id="base"
     inkscape:zoom="1.965"
     inkscape:cx="300"
     inkscape:cy="150.12723"
     inkscape:window-x="-9"
     inkscape:window-y="-9"
     inkscape:current-layer="svg17125"
     showgrid="false"
     inkscape:window-maximized="1"
     inkscape:pagecheckerboard="0" />
  <defs
     id="defs17134" />
  <rect
     width="601.5"
     height="301.4375"
     x="-0.35178873"
     y="-0.28928873"
     style="fill:#bc0000;fill-opacity:1"
     id="red background"
     ry="0" />
  <path
     style="font-style:normal;font-variant:normal;font-weight:normal;font-stretch:normal;font-size:20px;line-height:100%;font-family:Georgia;text-align:start;writing-mode:lr-tb;text-anchor:start;fill:#fcd20f;fill-opacity:1;stroke-width:1.83463514"
     d="m 46.71167,125.24299 c 1.234487,1.06459 2.199771,2.35184 2.895853,3.86178 0.69603,1.49911 1.044056,3.16114 1.044086,4.98611 -3e-5,1.45564 -0.229859,2.80265 -0.689489,4.04103 -0.459687,1.23838 -1.109778,2.3464 -1.950271,3.32406 -0.801146,0.93422 -1.753297,1.74894 -2.856456,2.44418 -1.103205,0.69523 -2.337716,1.24381 -3.703541,1.64574 0.02624,1.19492 0.545004,2.26493 1.556276,3.21 1.011227,0.95595 2.101276,1.43392 3.270149,1.43392 1.07689,0 1.89771,-0.0326 2.462461,-0.0978 0.564696,-0.0543 1.030922,-0.10864 1.398677,-0.16295 v 1.28725 c -0.591017,0.14123 -1.333038,0.28788 -2.226064,0.43997 -0.879945,0.16293 -2.107891,0.24441 -3.683843,0.24441 -0.879941,0 -1.740161,-0.10864 -2.580659,-0.32589 -0.840539,-0.2064 -1.602261,-0.54316 -2.285166,-1.01026 -0.682937,-0.46711 -1.254228,-1.05914 -1.713872,-1.77609 -0.446542,-0.71696 -0.735471,-1.59687 -0.866785,-2.63972 -1.878051,-0.0543 -3.61819,-0.38563 -5.22042,-0.99395 -1.60225,-0.61919 -2.974661,-1.46107 -4.117237,-2.52564 -1.155717,-1.07543 -2.055338,-2.33554 -2.698856,-3.78033 -0.643527,-1.45562 -0.965288,-3.04162 -0.965285,-4.75797 -3e-6,-1.87928 0.354591,-3.55219 1.063783,-5.01869 0.709186,-1.47736 1.687602,-2.75375 2.935254,-3.8292 1.234508,-1.06455 2.666016,-1.87927 4.294532,-2.44418 1.641632,-0.56484 3.355502,-0.84727 5.14162,-0.84731 1.851755,4e-5 3.598458,0.28789 5.24012,0.86361 1.641618,0.57575 3.059994,1.38505 4.255133,2.42788 m -2.935256,16.39223 c 0.735434,-0.98853 1.267324,-2.10741 1.595676,-3.35666 0.341438,-1.24925 0.51217,-2.64512 0.512191,-4.18768 -2.1e-5,-1.58598 -0.190452,-3.04163 -0.57129,-4.36692 -0.367751,-1.32527 -0.912774,-2.45501 -1.635075,-3.38925 -0.722342,-0.92333 -1.628527,-1.64029 -2.718557,-2.15087 -1.090067,-0.5214 -2.337712,-0.78211 -3.742942,-0.78213 -1.575988,2e-5 -2.915566,0.29875 -4.018736,0.89619 -1.103193,0.5975 -2.002811,1.39592 -2.698859,2.3953 -0.656663,0.95596 -1.149156,2.07484 -1.477477,3.35666 -0.315201,1.28183 -0.472798,2.62885 -0.472792,4.04102 -6e-6,1.56428 0.170723,2.97646 0.512193,4.23655 0.341454,1.26013 0.879912,2.37901 1.615375,3.35666 0.709179,0.95595 1.602232,1.7055 2.679157,2.24865 1.076905,0.53228 2.36395,0.79843 3.861139,0.79842 1.40523,1e-5 2.672574,-0.27158 3.802041,-0.81473 1.12943,-0.54314 2.048749,-1.30354 2.757956,-2.28121 m 36.444436,3.99213 H 68.578331 v -1.15691 c 1.024361,-0.0543 1.871456,-0.16293 2.541259,-0.32588 0.682899,-0.16294 1.02436,-0.36391 1.024385,-0.6029 -2.5e-5,-0.0978 -0.01314,-0.21725 -0.03944,-0.35847 -0.02629,-0.14121 -0.06573,-0.26614 -0.118185,-0.37478 l -2.324568,-5.18164 h -9.790746 c -0.367735,0.76043 -0.669797,1.42306 -0.906186,1.98793 -0.22327,0.56488 -0.426833,1.0863 -0.61069,1.56427 -0.170736,0.46711 -0.288935,0.84731 -0.354594,1.14061 -0.06567,0.29331 -0.09851,0.53228 -0.09851,0.71696 -6e-6,0.43452 0.413688,0.77127 1.24108,1.01026 0.827379,0.23898 1.75983,0.38019 2.797357,0.42364 v 1.15691 H 51.419864 v -1.15691 c 0.341462,-0.0217 0.768288,-0.0815 1.280481,-0.17923 0.51219,-0.10863 0.932449,-0.24985 1.260781,-0.42365 0.525321,-0.2933 0.932449,-0.59746 1.221379,-0.9125 0.288926,-0.32588 0.571289,-0.77127 0.847087,-1.33614 1.40524,-2.90041 2.954948,-6.1593 4.649128,-9.77667 1.694163,-3.61736 3.204473,-6.83823 4.530927,-9.66262 h 1.575966 l 9.317963,19.94441 c 0.196973,0.42366 0.420236,0.76585 0.669791,1.02656 0.249505,0.26071 0.597527,0.51598 1.044079,0.76583 0.302038,0.15209 0.696032,0.28246 1.181984,0.39108 0.485901,0.0978 0.893017,0.15207 1.221383,0.16293 v 1.15691 m -11.268231,-9.45078 -4.235434,-8.96195 -4.156626,8.96195 h 8.39206 m 34.297168,2.23234 -0.92588,7.21844 H 79.866255 v -0.57029 l 17.591824,-21.26428 h -6.441804 c -0.74859,2e-5 -1.378981,0.0109 -1.891161,0.0326 -0.499072,0.0217 -0.958733,0.0652 -1.378981,0.13035 -0.8668,0.14124 -1.845214,0.73328 -2.935265,1.77611 -1.076919,1.04286 -1.891174,2.14544 -2.442754,3.30777 h -1.378981 l 0.847082,-6.53409 H 102.777 v 0.57031 l -17.591831,21.26428 h 6.638801 c 1.116305,0 2.304849,-0.0652 3.565644,-0.19554 1.260758,-0.13035 2.081586,-0.35305 2.46246,-0.66807 0.853629,-0.6735 1.648191,-1.49908 2.383656,-2.47675 0.73544,-0.97768 1.28047,-1.84129 1.63509,-2.59083 h 1.37897 m 28.34786,7.21844 h -11.64252 v -1.15691 c 1.02437,-0.0543 1.87145,-0.16293 2.54126,-0.32588 0.6829,-0.16294 1.02436,-0.36391 1.02438,-0.6029 -2e-5,-0.0978 -0.0131,-0.21725 -0.0394,-0.35847 -0.0263,-0.14121 -0.0657,-0.26614 -0.11819,-0.37478 l -2.32456,-5.18164 h -9.79073 c -0.36775,0.76043 -0.66981,1.42306 -0.90619,1.98793 -0.22327,0.56488 -0.42685,1.0863 -0.61071,1.56427 -0.17073,0.46711 -0.28893,0.84731 -0.35458,1.14061 -0.0656,0.29331 -0.0985,0.53228 -0.0985,0.71696 0,0.43452 0.4137,0.77127 1.24109,1.01026 0.82738,0.23898 1.75983,0.38019 2.79736,0.42364 v 1.15691 h -10.51965 v -1.15691 c 0.34146,-0.0217 0.76829,-0.0815 1.28049,-0.17923 0.51218,-0.10863 0.93245,-0.24985 1.26078,-0.42365 0.52531,-0.2933 0.93245,-0.59746 1.22138,-0.9125 0.28892,-0.32588 0.57129,-0.77127 0.84708,-1.33614 1.40524,-2.90041 2.95495,-6.1593 4.64914,-9.77667 1.69415,-3.61736 3.20446,-6.83823 4.53092,-9.66262 h 1.57598 l 9.31795,19.94441 c 0.19696,0.42366 0.42024,0.76585 0.66978,1.02656 0.24952,0.26071 0.59754,0.51598 1.04409,0.76583 0.30205,0.15209 0.69604,0.28246 1.18199,0.39108 0.4859,0.0978 0.89301,0.15207 1.22138,0.16293 v 1.15691 m -11.26823,-9.45078 -4.23544,-8.96195 -4.15663,8.96195 h 8.39207 m 34.88816,-10.93358 c 1.23449,1.06459 2.19977,2.35184 2.89586,3.86178 0.69603,1.49911 1.04404,3.16114 1.04408,4.98611 -4e-5,1.45564 -0.22986,2.80265 -0.68949,4.04103 -0.45969,1.23838 -1.10979,2.3464 -1.95027,3.32406 -0.80116,0.93422 -1.7533,1.74894 -2.85646,2.44418 -1.1032,0.69523 -2.33772,1.24381 -3.70354,1.64574 0.0263,1.19492 0.545,2.26493 1.55627,3.21 1.01123,0.95595 2.10129,1.43392 3.27017,1.43392 1.07688,0 1.89769,-0.0326 2.46244,-0.0978 0.56469,-0.0543 1.03092,-0.10864 1.39869,-0.16295 v 1.28725 c -0.59102,0.14123 -1.33305,0.28788 -2.22608,0.43997 -0.87994,0.16293 -2.10789,0.24441 -3.68384,0.24441 -0.87994,0 -1.74016,-0.10864 -2.58067,-0.32589 -0.84052,-0.2064 -1.60226,-0.54316 -2.28515,-1.01026 -0.68294,-0.46711 -1.25423,-1.05914 -1.71387,-1.77609 -0.44654,-0.71696 -0.73547,-1.59687 -0.86678,-2.63972 -1.87805,-0.0543 -3.6182,-0.38563 -5.22043,-0.99395 -1.60225,-0.61919 -2.97466,-1.46107 -4.11723,-2.52564 -1.15573,-1.07543 -2.05533,-2.33554 -2.69885,-3.78033 -0.64353,-1.45562 -0.9653,-3.04162 -0.9653,-4.75797 0,-1.87928 0.35459,-3.55219 1.0638,-5.01869 0.70918,-1.47736 1.68758,-2.75375 2.93523,-3.8292 1.23452,-1.06455 2.66602,-1.87927 4.29454,-2.44418 1.64164,-0.56484 3.35551,-0.84727 5.14162,-0.84731 1.85176,4e-5 3.59846,0.28789 5.24013,0.86361 1.64162,0.57575 3.05999,1.38505 4.25513,2.42788 m -2.93526,16.39223 c 0.73542,-0.98853 1.26733,-2.10741 1.59569,-3.35666 0.34143,-1.24925 0.51215,-2.64512 0.51217,-4.18768 -2e-5,-1.58598 -0.19044,-3.04163 -0.57128,-4.36692 -0.36775,-1.32527 -0.91277,-2.45501 -1.63508,-3.38925 -0.72234,-0.92333 -1.62852,-1.64029 -2.71855,-2.15087 -1.09008,-0.5214 -2.3377,-0.78211 -3.74295,-0.78213 -1.57599,2e-5 -2.91556,0.29875 -4.01873,0.89619 -1.1032,0.5975 -2.00281,1.39592 -2.69886,2.3953 -0.65665,0.95596 -1.14915,2.07484 -1.47747,3.35666 -0.31519,1.28183 -0.47281,2.62885 -0.47281,4.04102 0,1.56428 0.17075,2.97646 0.5122,4.23655 0.34146,1.26013 0.87991,2.37901 1.61538,3.35666 0.70917,0.95595 1.60224,1.7055 2.67916,2.24865 1.07689,0.53228 2.36394,0.79843 3.86113,0.79842 1.40525,1e-5 2.67258,-0.27158 3.80204,-0.81473 1.12943,-0.54314 2.04875,-1.30354 2.75796,-2.28121 m 37.54761,-6.61556 c 0.59098,0.54316 1.02438,1.14062 1.30018,1.79239 0.2889,0.64093 0.43338,1.39047 0.4334,2.24864 -2e-5,2.04225 -0.91278,3.726 -2.73825,5.05128 -1.82553,1.32528 -4.091,1.98793 -6.79639,1.98793 -1.24767,0 -2.49532,-0.15751 -3.74295,-0.47255 -1.24767,-0.32588 -2.32458,-0.71694 -3.23076,-1.17319 l -0.84709,1.18949 h -1.57597 l -0.2758,-7.9191 h 1.59568 c 0.32833,0.97767 0.70919,1.86301 1.14259,2.65599 0.44653,0.78215 1.03094,1.51539 1.75328,2.19975 0.6829,0.64092 1.47745,1.15149 2.38366,1.53168 0.9193,0.38021 1.98307,0.57031 3.19134,0.57031 0.90618,0 1.69417,-0.0978 2.36396,-0.2933 0.68292,-0.19553 1.23449,-0.47255 1.65479,-0.83102 0.42023,-0.35847 0.72887,-0.77669 0.92588,-1.25467 0.21012,-0.48883 0.31517,-1.04828 0.31519,-1.67833 -2e-5,-0.92334 -0.31522,-1.78153 -0.94558,-2.57452 -0.63042,-0.80386 -1.56942,-1.41218 -2.81706,-1.82498 -0.85368,-0.28244 -1.83208,-0.59202 -2.93525,-0.92879 -1.1032,-0.34761 -2.05536,-0.67349 -2.85647,-0.97767 -1.57597,-0.5866 -2.8039,-1.35243 -3.68384,-2.29751 -0.86679,-0.95593 -1.30017,-2.19974 -1.30017,-3.73144 0,-0.87988 0.21669,-1.70004 0.65007,-2.46046 0.43341,-0.7604 1.05067,-1.43933 1.85178,-2.03681 0.76171,-0.56485 1.66135,-1.0048 2.69885,-1.31986 1.03752,-0.32586 2.121,-0.4888 3.25047,-0.48883 1.28703,3e-5 2.43618,0.16297 3.44745,0.48883 1.02435,0.32592 1.95681,0.70612 2.79735,1.14061 l 0.8077,-1.10802 h 1.57596 l 0.1576,7.67469 h -1.59567 c -0.28894,-0.87987 -0.61727,-1.72176 -0.985,-2.52563 -0.35461,-0.80385 -0.82084,-1.53167 -1.39867,-2.18346 -0.56474,-0.63004 -1.25424,-1.12972 -2.06848,-1.49909 -0.81426,-0.38018 -1.81238,-0.57029 -2.99433,-0.57031 -1.24768,2e-5 -2.31145,0.33134 -3.19136,0.99396 -0.87992,0.66266 -1.31989,1.47196 -1.31989,2.42787 0,0.99942 0.28236,1.83044 0.8471,2.49306 0.56472,0.6518 1.38554,1.18951 2.46247,1.61315 0.95869,0.38022 1.89772,0.71154 2.81704,0.99396 0.93244,0.27159 1.83207,0.56489 2.69886,0.87991 0.78797,0.28245 1.54314,0.6029 2.26547,0.96137 0.73543,0.35849 1.3724,0.77671 1.91086,1.25467 m 22.61526,0 c 0.59096,0.54316 1.02434,1.14062 1.30017,1.79239 0.28891,0.64093 0.43339,1.39047 0.4334,2.24864 -1e-5,2.04225 -0.91278,3.726 -2.73827,5.05128 -1.8255,1.32528 -4.09098,1.98793 -6.7964,1.98793 -1.24764,0 -2.49529,-0.15751 -3.74293,-0.47255 -1.24765,-0.32588 -2.32456,-0.71694 -3.23076,-1.17319 l -0.84708,1.18949 h -1.57596 l -0.27581,-7.9191 h 1.59568 c 0.32833,0.97767 0.70919,1.86301 1.14257,2.65599 0.44652,0.78215 1.03096,1.51539 1.75327,2.19975 0.68293,0.64092 1.47748,1.15149 2.38366,1.53168 0.91932,0.38021 1.98311,0.57031 3.19137,0.57031 0.90618,0 1.69415,-0.0978 2.36396,-0.2933 0.68289,-0.19553 1.2345,-0.47255 1.65477,-0.83102 0.42025,-0.35847 0.72887,-0.77669 0.9259,-1.25467 0.21011,-0.48883 0.31517,-1.04828 0.31519,-1.67833 -2e-5,-0.92334 -0.31522,-1.78153 -0.94558,-2.57452 -0.63041,-0.80386 -1.56942,-1.41218 -2.81707,-1.82498 -0.85366,-0.28244 -1.83208,-0.59202 -2.93524,-0.92879 -1.10319,-0.34761 -2.05536,-0.67349 -2.85647,-0.97767 -1.57596,-0.5866 -2.80393,-1.35243 -3.68383,-2.29751 -0.8668,-0.95593 -1.30021,-2.19974 -1.30018,-3.73144 -3e-5,-0.87988 0.21669,-1.70004 0.65008,-2.46046 0.43339,-0.7604 1.05064,-1.43933 1.85178,-2.03681 0.76171,-0.56485 1.66132,-1.0048 2.69885,-1.31986 1.03751,-0.32586 2.12099,-0.4888 3.25045,-0.48883 1.28703,3e-5 2.43617,0.16297 3.44744,0.48883 1.02438,0.32592 1.95684,0.70612 2.79736,1.14061 l 0.80768,-1.10802 h 1.57598 l 0.15761,7.67469 h -1.59569 c -0.28895,-0.87987 -0.61728,-1.72176 -0.98498,-2.52563 -0.35461,-0.80385 -0.82084,-1.53167 -1.39868,-2.18346 -0.56472,-0.63004 -1.25422,-1.12972 -2.06846,-1.49909 -0.81427,-0.38018 -1.81238,-0.57029 -2.99435,-0.57031 -1.24767,2e-5 -2.31144,0.33134 -3.19134,0.99396 -0.87995,0.66266 -1.31991,1.47196 -1.31989,2.42787 -2e-5,0.99942 0.28236,1.83044 0.84708,2.49306 0.56472,0.6518 1.38553,1.18951 2.46246,1.61315 0.95871,0.38022 1.89772,0.71154 2.81707,0.99396 0.93243,0.27159 1.83204,0.56489 2.69886,0.87991 0.78797,0.28245 1.54311,0.6029 2.26546,0.96137 0.73543,0.35849 1.37238,0.77671 1.91087,1.25467 m 32.4454,10.60769 h -7.5253 c -1.66793,-2.16173 -3.17823,-4.03015 -4.53093,-5.60529 -1.3396,-1.57513 -2.79736,-3.19913 -4.37334,-4.87204 h -2.85644 v 7.33251 c -2e-5,0.3802 0.0722,0.71696 0.21669,1.01026 0.14446,0.28243 0.45307,0.4997 0.92588,0.65177 0.2364,0.076 0.65008,0.14665 1.24109,0.21184 0.59098,0.0652 1.09004,0.10318 1.49719,0.11404 v 1.15691 h -11.81984 v -1.15691 c 0.3152,-0.0217 0.7683,-0.0597 1.35929,-0.11404 0.60413,-0.0543 1.02437,-0.12493 1.26078,-0.21184 0.39399,-0.14121 0.67634,-0.34761 0.84709,-0.61918 0.18385,-0.27158 0.27579,-0.61919 0.27579,-1.04285 v -16.71812 c 0,-0.38019 -0.0656,-0.71694 -0.19701,-1.01026 -0.13132,-0.29328 -0.43995,-0.51596 -0.92587,-0.66807 -0.32832,-0.0977 -0.75516,-0.18466 -1.28048,-0.26071 -0.52532,-0.0869 -0.97186,-0.14119 -1.33959,-0.16295 v -1.15691 h 12.90332 c 1.18197,4e-5 2.29169,0.10322 3.32925,0.3096 1.03749,0.19556 1.97649,0.51602 2.81704,0.96137 0.81424,0.43454 1.46433,1.00485 1.95028,1.71092 0.4859,0.69525 0.72886,1.53714 0.72889,2.52564 -3e-5,0.89079 -0.16421,1.67835 -0.4925,2.3627 -0.32836,0.68438 -0.81428,1.27641 -1.45778,1.77609 -0.59101,0.46713 -1.30019,0.87449 -2.12757,1.22209 -0.8274,0.33676 -1.74016,0.62463 -2.73825,0.86361 1.37895,1.50997 2.52154,2.78092 3.42775,3.81291 0.9193,1.03198 2.04217,2.28665 3.36865,3.76402 0.57783,0.65177 1.09658,1.13518 1.55626,1.4502 0.47278,0.30416 0.93901,0.55401 1.39868,0.74955 0.34144,0.14121 0.76826,0.24985 1.28049,0.32589 0.51216,0.076 0.93899,0.11948 1.28049,0.13034 v 1.15691 m -10.36204,-17.23954 c -3e-5,-1.4013 -0.48595,-2.50932 -1.4578,-3.32406 -0.97186,-0.82556 -2.34427,-1.23836 -4.11723,-1.23838 h -3.34894 v 9.92332 h 2.58067 c 1.81235,2e-5 3.32265,-0.47796 4.53092,-1.43391 1.20823,-0.96679 1.81235,-2.27577 1.81238,-3.92697"
     id="flowRoot3069"
     inkscape:connector-curvature="0" />
  <path
     style="font-style:normal;font-variant:normal;font-weight:normal;font-stretch:normal;font-size:20px;line-height:100%;font-family:Arial;text-align:start;writing-mode:lr-tb;text-anchor:start;fill:#fcd20f;fill-opacity:1;stroke-width:1.55078328"
     d="m 26.57224,163.62668 h 2.516473 V 174.978 c 1.150136,2e-5 1.958693,-0.30057 2.425675,-0.90174 0.466967,-0.61293 1.063655,-2.07457 1.790069,-4.38493 0.527498,-1.69737 0.959882,-2.89381 1.297152,-3.5893 0.345896,-0.70722 0.834488,-1.29659 1.46578,-1.76811 0.631269,-0.48325 1.327407,-0.72489 2.088416,-0.72493 0.968524,4e-5 1.478737,0.0118 1.530639,0.0354 v 2.97045 c -0.08649,2e-5 -0.255122,-0.006 -0.50589,-0.0177 -0.27674,-0.0118 -0.44537,-0.0176 -0.505889,-0.0177 -0.804247,2e-5 -1.400937,0.26523 -1.790068,0.79565 -0.397808,0.53046 -0.851809,1.66205 -1.36201,3.39479 -0.639939,2.19249 -1.180418,3.57751 -1.621441,4.15508 -0.44104,0.56581 -0.968547,1.01963 -1.582524,1.36144 1.22796,0.45974 2.438634,2.00389 3.632025,4.63248 l 3.917398,8.62842 H 36.74191 l -3.178022,-7.03712 c -0.873425,-1.94491 -1.604152,-3.2769 -2.192187,-3.99595 -0.588049,-0.73081 -1.349043,-1.09621 -2.282988,-1.09623 v 12.1293 H 26.57224 v -25.92062 m 13.334719,25.92062 7.302965,-25.92062 h 2.711048 l 7.78291,25.92062 h -2.866705 l -2.21813,-7.85044 h -7.95154 l -2.088415,7.85044 h -2.672133 m 5.486953,-10.64407 h 6.446843 l -1.984641,-7.17857 c -0.605348,-2.18065 -1.055026,-3.97236 -1.349038,-5.37509 -0.242144,1.66206 -0.583727,3.3123 -1.024751,4.95075 l -2.088413,7.60291 m 13.308777,3.32405 2.39973,-0.8487 c 0.181598,1.26127 0.665867,2.52254 1.45281,3.78379 0.79558,1.26125 1.846272,1.89188 3.152079,1.89188 1.331725,0 2.382427,-0.4656 3.15208,-1.3968 0.769629,-0.93121 1.154444,-2.05692 1.154456,-3.37712 -1.2e-5,-1.42626 -0.406441,-2.55786 -1.219311,-3.39479 -0.812895,-0.84868 -1.919791,-1.27303 -3.320712,-1.27303 H 64.26747 v -2.98812 c 1.158781,0 2.045163,-0.0884 2.659173,-0.26523 0.613962,-0.18859 1.154444,-0.65419 1.621434,-1.39681 0.475603,-0.75438 0.713422,-1.60898 0.713434,-2.56378 -1.2e-5,-1.13158 -0.324301,-2.11583 -0.972868,-2.95276 -0.639942,-0.83689 -1.509031,-1.25533 -2.607272,-1.25537 -0.959906,4e-5 -1.781435,0.33009 -2.464595,0.99016 -0.674524,0.64832 -1.141498,1.51471 -1.400923,2.59912 -0.259435,1.07268 -0.389149,1.87423 -0.389146,2.40465 l -2.412702,-0.74261 c 0.596688,-5.50472 2.827787,-8.25709 6.693303,-8.25711 1.859241,2e-5 3.333668,0.70728 4.423281,2.12174 1.0896,1.40272 1.6344,3.04709 1.634412,4.93305 -1.2e-5,2.41646 -0.838839,4.29065 -2.516468,5.62262 0.968526,0.36543 1.777078,1.11393 2.425668,2.24551 0.657203,1.11982 0.985822,2.4636 0.985834,4.03132 -1.2e-5,2.22783 -0.635624,4.09614 -1.906812,5.60493 -1.262577,1.497 -2.940206,2.24551 -5.032949,2.24551 -3.597434,0 -5.936628,-2.58734 -7.017585,-7.76205 m 14.982103,7.32002 7.302962,-25.92062 h 2.711047 l 7.782906,25.92062 h -2.866702 l -2.218124,-7.85044 h -7.95154 l -2.088425,7.85044 h -2.672124 m 5.486962,-10.64407 h 6.446838 l -1.984646,-7.17857 c -0.60535,-2.18065 -1.055032,-3.97236 -1.349035,-5.37509 -0.242137,1.66206 -0.583723,3.3123 -1.024757,4.95075 l -2.0884,7.60291 m 12.413732,10.64407 7.354851,-13.50842 -6.48575,-12.4122 h 2.996401 l 3.450438,6.64812 c 0.717752,1.37915 1.227944,2.44003 1.530634,3.18261 0.42373,-0.94297 0.92528,-1.92723 1.5047,-2.95276 l 3.82659,-6.87797 h 2.737 l -6.68033,12.21769 7.19919,13.70293 h -3.11317 l -4.78649,-9.24726 c -0.26809,-0.53042 -0.54481,-1.10801 -0.83018,-1.73276 -0.423737,0.94301 -0.726411,1.59132 -0.907999,1.94494 l -4.773515,9.03508 h -3.02237 m 33.142224,-9.08813 2.51647,0.86638 c -0.52752,2.81721 -1.47875,4.96842 -2.85373,6.45363 -1.36635,1.47343 -3.03967,2.21015 -5.01997,2.21015 -2.04952,0 -3.71851,-0.5658 -5.00701,-1.6974 -1.27986,-1.14338 -2.25706,-2.79361 -2.93157,-4.95072 -0.66587,-2.1571 -0.9988,-4.47334 -0.9988,-6.94871 0,-2.69932 0.37617,-5.05092 1.12853,-7.05481 0.76098,-2.01563 1.83762,-3.54209 3.2299,-4.57941 1.40091,-1.04907 2.9402,-1.57361 4.61786,-1.57363 1.90248,2e-5 3.5023,0.66011 4.79947,1.9803 1.29713,1.32022 2.2008,3.17674 2.71103,5.56957 l -2.47754,0.79565 c -0.44106,-1.88597 -1.08099,-3.25922 -1.9198,-4.11972 -0.83883,-0.86047 -1.89385,-1.29071 -3.16505,-1.29073 -1.46146,2e-5 -2.6851,0.47741 -3.67094,1.43219 -0.97718,0.95479 -1.66467,2.23964 -2.06245,3.85449 -0.39782,1.60312 -0.59672,3.25925 -0.59671,4.96841 -1e-5,2.20428 0.23348,4.13152 0.70047,5.78175 0.47562,1.63846 1.21067,2.86437 2.20516,3.67769 0.99447,0.81334 2.0711,1.22 3.2299,1.22 1.40956,0 2.60294,-0.55401 3.58014,-1.66203 0.97718,-1.10802 1.63872,-2.75237 1.98464,-4.93305 m 5.66855,-16.83249 h 2.51648 V 174.978 c 1.15013,2e-5 1.95869,-0.30057 2.42567,-0.90174 0.46697,-0.61293 1.06367,-2.07457 1.79008,-4.38493 0.52749,-1.69737 0.95988,-2.89381 1.29715,-3.5893 0.34589,-0.70722 0.83449,-1.29659 1.46579,-1.76811 0.63126,-0.48325 1.32738,-0.72489 2.0884,-0.72493 0.96853,4e-5 1.47873,0.0118 1.53065,0.0354 v 2.97045 c -0.0865,2e-5 -0.25513,-0.006 -0.50589,-0.0177 -0.27675,-0.0118 -0.44538,-0.0176 -0.50589,-0.0177 -0.80425,2e-5 -1.40094,0.26523 -1.79008,0.79565 -0.39781,0.53046 -0.8518,1.66205 -1.362,3.39479 -0.63995,2.19249 -1.18043,3.57751 -1.62144,4.15508 -0.44104,0.56581 -0.96856,1.01963 -1.58253,1.36144 1.22796,0.45974 2.43863,2.00389 3.63203,4.63248 l 3.91738,8.62842 h -3.12612 l -3.17803,-7.03712 c -0.87343,-1.94491 -1.60415,-3.2769 -2.19219,-3.99595 -0.58804,-0.73081 -1.34903,-1.09621 -2.28298,-1.09623 v 12.1293 h -2.51648 v -25.92062 m 13.33473,25.92062 7.30296,-25.92062 h 2.71105 l 7.78291,25.92062 h -2.8667 l -2.21815,-7.85044 h -7.95152 l -2.08842,7.85044 h -2.67213 m 5.48695,-10.64407 h 6.44685 l -1.98464,-7.17857 c -0.60536,-2.18065 -1.05503,-3.97236 -1.34904,-5.37509 -0.24215,1.66206 -0.58374,3.3123 -1.02475,4.95075 l -2.08842,7.60291 m 29.39347,10.64407 v -25.92062 h -8.4315 c -1.69495,2e-5 -2.98346,0.23577 -3.86551,0.70724 -0.88206,0.45974 -1.58686,1.27898 -2.11435,2.45768 -0.52752,1.17878 -0.79128,2.48129 -0.79128,3.90756 0,1.83885 0.43672,3.3889 1.31014,4.65015 0.8734,1.26127 2.22244,2.06282 4.04711,2.40464 -0.66589,0.43614 -1.17178,0.86638 -1.51767,1.29072 -0.73506,0.91944 -1.4312,2.0687 -2.08842,3.44784 l -3.30773,7.05479 h 3.16505 l 2.51647,-5.39276 c 0.73505,-1.55593 1.34038,-2.74648 1.81601,-3.5716 0.47563,-0.82511 0.89935,-1.40269 1.27121,-1.73276 0.38049,-0.33004 0.76532,-0.55989 1.15446,-0.68957 0.28538,-0.0825 0.75234,-0.12375 1.40094,-0.12377 h 2.91859 v 11.51046 h 2.51648 m -2.51648,-14.48089 h -5.40913 c -1.15015,0 -2.0495,-0.15913 -2.69807,-0.4774 -0.64859,-0.33003 -1.1415,-0.84868 -1.47876,-1.55594 -0.33726,-0.71902 -0.50589,-1.49698 -0.50589,-2.33391 0,-1.22589 0.32429,-2.23372 0.97286,-3.0235 0.65723,-0.78973 1.69062,-1.18461 3.1002,-1.18463 h 6.01879 v 8.57538 m 27.60339,5.39276 2.51648,0.86638 c -0.52753,2.81721 -1.47878,4.96842 -2.85375,6.45363 -1.36634,1.47343 -3.03967,2.21015 -5.01997,2.21015 -2.0495,0 -3.71851,-0.5658 -5.007,-1.6974 -1.27987,-1.14338 -2.25705,-2.79361 -2.93157,-4.95072 -0.66587,-2.1571 -0.9988,-4.47334 -0.9988,-6.94871 0,-2.69932 0.37616,-5.05092 1.12852,-7.05481 0.76098,-2.01563 1.83763,-3.54209 3.2299,-4.57941 1.40092,-1.04907 2.94019,-1.57361 4.61786,-1.57363 1.90247,2e-5 3.5023,0.66011 4.79946,1.9803 1.29713,1.32022 2.20083,3.17674 2.71106,5.56957 l -2.47757,0.79565 c -0.44105,-1.88597 -1.08098,-3.25922 -1.91978,-4.11972 -0.83884,-0.86047 -1.89386,-1.29071 -3.16505,-1.29073 -1.46147,2e-5 -2.68511,0.47741 -3.67094,1.43219 -0.9772,0.95479 -1.66468,2.23964 -2.06247,3.85449 -0.3978,1.60312 -0.59669,3.25925 -0.59669,4.96841 0,2.20428 0.23347,4.13152 0.70047,5.78175 0.4756,1.63846 1.21066,2.86437 2.20514,3.67769 0.99447,0.81334 2.07112,1.22 3.22992,1.22 1.40955,0 2.60293,-0.55401 3.58012,-1.66203 0.97719,-1.10802 1.63873,-2.75237 1.98466,-4.93305 m 19.19784,0 2.51648,0.86638 c -0.52753,2.81721 -1.47877,4.96842 -2.85374,6.45363 -1.36634,1.47343 -3.03968,2.21015 -5.01997,2.21015 -2.04951,0 -3.71852,-0.5658 -5.007,-1.6974 -1.27988,-1.14338 -2.25706,-2.79361 -2.93159,-4.95072 -0.66586,-2.1571 -0.9988,-4.47334 -0.9988,-6.94871 0,-2.69932 0.37617,-5.05092 1.12853,-7.05481 0.76099,-2.01563 1.83762,-3.54209 3.2299,-4.57941 1.40092,-1.04907 2.94022,-1.57361 4.61786,-1.57363 1.90249,2e-5 3.5023,0.66011 4.79947,1.9803 1.29715,1.32022 2.20082,3.17674 2.71105,5.56957 l -2.47756,0.79565 c -0.44106,-1.88597 -1.08099,-3.25922 -1.91979,-4.11972 -0.83884,-0.86047 -1.89386,-1.29071 -3.16505,-1.29073 -1.46147,2e-5 -2.68511,0.47741 -3.67093,1.43219 -0.9772,0.95479 -1.66469,2.23964 -2.06247,3.85449 -0.39781,1.60312 -0.5967,3.25925 -0.59669,4.96841 -1e-5,2.20428 0.23346,4.13152 0.70045,5.78175 0.47562,1.63846 1.21067,2.86437 2.20516,3.67769 0.99448,0.81334 2.07111,1.22 3.22992,1.22 1.40956,0 2.60292,-0.55401 3.58013,-1.66203 0.97718,-1.10802 1.63872,-2.75237 1.98464,-4.93305 m 5.62963,9.08813 v -25.92062 h 7.17326 c 1.26254,2e-5 2.22677,0.0825 2.89265,0.24754 0.93393,0.2122 1.71654,0.61887 2.34784,1.21999 0.63126,0.58941 1.13715,1.42041 1.51767,2.49306 0.38913,1.07268 0.5837,2.25142 0.58372,3.53623 -2e-5,2.20427 -0.51456,4.07259 -1.54361,5.60493 -1.02909,1.52059 -2.88834,2.2809 -5.57775,2.28088 h -4.8773 v 10.53799 h -2.51648 m 2.51648,-13.59683 h 4.9162 c 1.62575,0 2.78022,-0.41255 3.46341,-1.23769 0.68315,-0.82511 1.02472,-1.98616 1.02475,-3.48318 -3e-5,-1.08443 -0.20324,-2.00975 -0.60966,-2.77596 -0.39781,-0.77794 -0.92533,-1.29071 -1.58253,-1.53827 -0.42375,-0.15321 -1.20636,-0.22983 -2.34785,-0.22985 h -4.86432 v 9.26495"
     id="flowRoot3952"
     inkscape:connector-curvature="0" />
  <g
     id="g4185"
     transform="matrix(0.37275087,0,0,0.37577321,-25.603916,-24.162237)"
     style="fill:#fcd20f;fill-opacity:1">
    <path
       id="path4158"
       d="m 365.00586,193.25977 -34.7207,36.07617 24.72851,24.72851 17.61914,-17.04687 90.78125,88.86328 c 1.47723,1.22051 3.54732,3.12697 5.55664,2.90625 6.06577,-0.66629 12.64557,-8.32735 12.45703,-13.5 -0.0376,-1.03093 -0.76802,-2.34515 -2.42968,-3.97266 l -91.85547,-88.33593 20.03906,-19.38868 -8.46875,-9.14453 z"
       style="fill:#fcd20f;fill-opacity:1;fill-rule:evenodd;stroke:none;stroke-width:1px;stroke-linecap:butt;stroke-linejoin:miter;stroke-opacity:1"
       inkscape:connector-curvature="0" />
    <path
       id="path4165"
       d="m 415.98828,168.36133 c 24.04935,17.35911 47.91398,42.45276 45.39453,80.2832 -2.67501,40.42997 -33.20266,43.9581 -45.63086,41.95313 -7.71875,-1.24522 -15.22658,-7.84908 -17.75781,-10.83204 2.13179,-4.53256 2.28651,-4.92818 -0.0996,-9.45703 -4.63453,-0.95287 -6.46283,1.97264 -9.04297,3.98243 -1.29074,2.04124 -2.54483,3.89395 -3.76953,5.61132 -3.94953,-0.74025 -8.24792,0.99857 -11.03711,4.46485 -2.39445,2.98344 -3.32637,6.81948 -2.48633,10.23437 -7.34177,5.81809 -13.15632,7.36658 -17.93359,12.38477 -8.03082,8.43581 -5.76558,13.676 -6.25391,19.28125 3.42153,-0.87263 10.1697,2.45733 18.72657,-5.63477 4.96039,-4.69096 8.96648,-11.90256 14.23632,-18.95703 3.52753,0.0993 7.09077,-1.63798 9.49805,-4.63086 1.8709,-2.32946 2.87047,-5.20838 2.78711,-8.02734 0.65853,-0.48439 1.33106,-0.95983 2.0293,-1.41602 11.73724,17.5103 36.64629,26.69546 56.59179,13.93946 11.10903,-7.1047 23.62634,-18.74561 27.10399,-44.62052 5.01148,-21.12711 -7.05131,-44.06395 -19.25242,-59.93808 -12.27879,-15.97519 -31.74473,-25.81616 -43.10353,-28.62109 z"
       style="fill:#fcd20f;fill-opacity:1;fill-rule:evenodd;stroke:none;stroke-width:1px;stroke-linecap:butt;stroke-linejoin:miter;stroke-opacity:1"
       inkscape:connector-curvature="0"
       sodipodi:nodetypes="ccsccccccscsccccscsc" />
  </g>
</svg>
