<?xml version="1.0" encoding="UTF-8" standalone="no"?>
<!-- Created with Inkscape (http://www.inkscape.org/) -->

<svg
   version="1.0"
   width="600"
   height="300"
   id="svg17125"
   sodipodi:version="0.32"
   inkscape:version="1.1.1 (3bf5ae0d25, 2021-09-20)"
   sodipodi:docname="Flag_of_the_Kazakh_Soviet_Socialist_Republic_(1940-1953).svg"
   xmlns:inkscape="http://www.inkscape.org/namespaces/inkscape"
   xmlns:sodipodi="http://sodipodi.sourceforge.net/DTD/sodipodi-0.dtd"
   xmlns="http://www.w3.org/2000/svg"
   xmlns:svg="http://www.w3.org/2000/svg"
   xmlns:rdf="http://www.w3.org/1999/02/22-rdf-syntax-ns#"
   xmlns:cc="http://creativecommons.org/ns#"
   xmlns:dc="http://purl.org/dc/elements/1.1/">
  <metadata
     id="metadata10">
    <rdf:RDF>
      <cc:Work
         rdf:about="">
        <dc:format>image/svg+xml</dc:format>
        <dc:type
           rdf:resource="http://purl.org/dc/dcmitype/StillImage" />
      </cc:Work>
    </rdf:RDF>
  </metadata>
  <sodipodi:namedview
     inkscape:window-height="1007"
     inkscape:window-width="1920"
     inkscape:pageshadow="2"
     inkscape:pageopacity="0.0"
     borderopacity="1.0"
     bordercolor="#666666"
     pagecolor="#ffffff"
     id="base"
     inkscape:zoom="1.4142136"
     inkscape:cx="288.14601"
     inkscape:cy="272.94322"
     inkscape:window-x="-9"
     inkscape:window-y="-9"
     inkscape:current-layer="svg17125"
     showgrid="false"
     inkscape:object-nodes="true"
     inkscape:window-maximized="1"
     inkscape:pagecheckerboard="0" />
  <defs
     id="defs17134" />
  <rect
     width="600"
     height="300.78125"
     x="0"
     y="-0.074143231"
     style="fill:#bc0000;fill-opacity:1;stroke-width:1.0013"
     id="red background" />
  <path
     style="color:#000000;font-style:normal;font-variant:normal;font-weight:500;font-stretch:normal;font-size:43.2466774px;line-height:100%;font-family:'Diamond Girl';-inkscape-font-specification:'Diamond Girl Medium';text-align:start;letter-spacing:0px;word-spacing:0px;text-anchor:start;display:inline;overflow:visible;visibility:visible;fill:#fcd20f;fill-opacity:1;fill-rule:nonzero;stroke:none;stroke-width:13.32531834;marker:none;enable-background:accumulate"
     d="m 373.07398,38.09375 c -1.86665,3.1e-5 -3.62766,0.260407 -5.26265,0.78125 -1.63501,0.520905 -3.13041,1.227152 -4.50651,2.15625 -1.36251,0.929155 -2.59991,2.045534 -3.68989,3.3125 -1.07638,1.267016 -1.9727,2.649959 -2.72206,4.15625 -0.74938,1.506333 -1.32886,3.074772 -1.72397,4.75 -0.39514,1.67526 -0.60491,3.393457 -0.60491,5.125 0,1.844187 0.30486,3.487505 0.8771,4.9375 0.57225,1.43593 1.37348,2.656737 2.44986,3.65625 1.09,0.98544 2.42547,1.729126 3.99234,2.25 1.5805,0.506797 3.38075,0.78125 5.38364,0.78125 1.58047,0 2.96117,-0.179308 4.17382,-0.53125 1.21258,-0.36602 2.23722,-0.860314 3.05475,-1.4375 0.8311,-0.591261 1.45279,-1.219535 1.87519,-1.9375 0.42234,-0.732036 0.63512,-1.469533 0.63514,-2.1875 -2e-5,-0.323781 -0.0785,-0.607518 -0.24196,-0.875 -0.14989,-0.267469 -0.29019,-0.467044 -0.45367,-0.59375 -0.35427,0.492726 -0.77682,0.972942 -1.24005,1.4375 -0.46329,0.464569 -0.98988,0.869907 -1.60298,1.25 -0.61317,0.366024 -1.31031,0.649761 -2.08692,0.875 -0.77664,0.225246 -1.66396,0.343753 -2.63132,0.34375 -2.39801,3e-6 -4.20126,-0.662615 -5.41387,-2 -1.21263,-1.351452 -1.81471,-3.255145 -1.8147,-5.71875 -10e-6,-1.281058 0.0981,-2.6032 0.30246,-3.96875 0.21798,-1.379598 0.54245,-2.722007 0.93759,-4.03125 0.40873,-1.323283 0.89612,-2.567452 1.48201,-3.75 0.59949,-1.182502 1.29364,-2.23808 2.05666,-3.125 0.7766,-0.900946 1.61407,-1.604098 2.54059,-2.125 0.9401,-0.520846 1.95111,-0.781221 3.05475,-0.78125 0.7766,2.9e-5 1.41192,0.202698 1.87519,0.625 0.46323,0.422358 0.81331,0.960281 1.05857,1.59375 0.25886,0.633522 0.4324,1.330485 0.51418,2.0625 0.0818,0.732064 0.12096,1.394682 0.12098,2 0.84472,2.2e-5 1.63696,-0.08105 2.35911,-0.25 0.72209,-0.168909 1.32717,-0.42619 1.84495,-0.75 0.53134,-0.337841 0.94027,-0.740084 1.24005,-1.21875 0.29972,-0.478616 0.45365,-1.053978 0.45367,-1.6875 -2e-5,-0.774246 -0.17356,-1.460226 -0.51417,-2.09375 -0.34064,-0.647545 -0.84765,-1.188562 -1.5425,-1.625 -0.68127,-0.450456 -1.55197,-0.791898 -2.60108,-1.03125 -1.03551,-0.253367 -2.23968,-0.374969 -3.62939,-0.375 z m 27.94643,0 c -1.86663,3.1e-5 -3.59741,0.260407 -5.23239,0.78125 -1.63501,0.520905 -3.16065,1.227152 -4.53676,2.15625 -1.36251,0.929155 -2.56967,2.045534 -3.65965,3.3125 -1.07637,1.267016 -2.00293,2.649959 -2.75231,4.15625 -0.74938,1.506333 -1.32884,3.074772 -1.72396,4.75 -0.39513,1.67526 -0.57466,3.393457 -0.57466,5.125 0,1.844187 0.27461,3.487505 0.84686,4.9375 0.57225,1.43593 1.40372,2.656737 2.48009,3.65625 1.09,0.98544 2.42548,1.729126 3.99236,2.25 1.58049,0.506797 3.35048,0.78125 5.35337,0.78125 1.58049,0 2.99143,-0.179308 4.20407,-0.53125 1.21259,-0.36602 2.23723,-0.860314 3.05476,-1.4375 0.8311,-0.591261 1.4528,-1.219535 1.87519,-1.9375 0.42234,-0.732036 0.63511,-1.469533 0.63514,-2.1875 -3e-5,-0.323781 -0.0786,-0.607518 -0.24197,-0.875 -0.14989,-0.267469 -0.32043,-0.467044 -0.48392,-0.59375 -0.35425,0.492726 -0.77681,0.972942 -1.24004,1.4375 -0.46328,0.464569 -0.98989,0.869907 -1.60299,1.25 -0.61314,0.366024 -1.3103,0.649761 -2.0869,0.875 -0.77665,0.225246 -1.63372,0.343753 -2.60108,0.34375 -2.39801,3e-6 -4.20127,-0.662615 -5.41387,-2 -1.21263,-1.351452 -1.84497,-3.255145 -1.84495,-5.71875 -2e-5,-1.281058 0.12831,-2.6032 0.33269,-3.96875 0.218,-1.379598 0.51223,-2.722007 0.90736,-4.03125 0.40874,-1.323283 0.89611,-2.567452 1.48201,-3.75 0.59949,-1.182502 1.29366,-2.23808 2.05666,-3.125 0.77661,-0.900946 1.61408,-1.604098 2.54059,-2.125 0.9401,-0.520846 1.98135,-0.781221 3.08499,-0.78125 0.77661,2.9e-5 1.38169,0.202698 1.84495,0.625 0.46323,0.422358 0.81331,0.960281 1.05858,1.59375 0.25885,0.633522 0.4324,1.330485 0.51416,2.0625 0.0818,0.732064 0.12096,1.394682 0.12099,2 0.84472,2.2e-5 1.63697,-0.08105 2.3591,-0.25 0.7221,-0.168909 1.35742,-0.42619 1.8752,-0.75 0.53136,-0.337841 0.94027,-0.740084 1.24005,-1.21875 0.29972,-0.478616 0.45365,-1.053978 0.45367,-1.6875 -2e-5,-0.774246 -0.17356,-1.460226 -0.51416,-2.09375 -0.34065,-0.647545 -0.87789,-1.188562 -1.57274,-1.625 -0.68127,-0.450456 -1.52174,-0.791898 -2.57084,-1.03125 -1.03552,-0.253367 -2.26992,-0.374969 -3.65965,-0.375 z m -163.74678,0.3125 c -0.87203,3.1e-5 -1.68689,0.138805 -2.44985,0.40625 -0.7494,0.267507 -1.49943,0.686922 -2.2079,1.25 -0.6949,0.563137 -1.39205,1.300633 -2.08691,2.1875 -0.68127,0.872844 -1.38142,1.900266 -2.11714,3.125 -0.98104,1.66119 -1.8155,2.99741 -2.51035,3.96875 -0.69489,0.97138 -1.25773,1.65736 -1.69372,2.09375 -0.46328,0.450504 -1.04274,0.791947 -1.72397,1.03125 -0.66763,0.22526 -1.5021,0.343767 -2.51034,0.34375 l 1.87519,-9.1875 c 0.10904,-0.563081 0.28553,-1.023031 0.54441,-1.375 0.25886,-0.351915 0.58333,-0.629462 0.93761,-0.8125 0.35422,-0.182982 0.72691,-0.318661 1.1493,-0.375 0.43599,-0.07036 0.89777,-0.09372 1.36103,-0.09375 h 0.51417 l 0.48392,-2.28125 h -14.45714 l -0.45367,2.28125 h 0.5444 c 0.436,2.9e-5 0.84193,0.02029 1.2098,0.0625 0.3815,0.02818 0.70897,0.106157 0.96786,0.21875 0.27248,0.09857 0.48525,0.24044 0.63513,0.4375 0.14987,0.197115 0.2117,0.440318 0.21172,0.75 -2e-5,0.112649 -0.0196,0.271689 -0.0605,0.46875 -0.0273,0.197114 -0.0666,0.376422 -0.12098,0.53125 l -4.35528,21.25 c -0.10903,0.563112 -0.28555,1.005889 -0.54442,1.34375 -0.24525,0.337868 -0.53648,0.598243 -0.8771,0.78125 -0.34063,0.183013 -0.72694,0.318692 -1.14932,0.375 -0.40875,0.05631 -0.83429,0.0625 -1.2703,0.0625 h -0.54441 l -0.45367,2.3125 h 14.39665 l 0.45367,-2.3125 h -0.5444 c -0.43601,2e-6 -0.85856,-0.0031 -1.24005,-0.03125 -0.36788,-0.04223 -0.6651,-0.120204 -0.9376,-0.21875 -0.2725,-0.112619 -0.48528,-0.254487 -0.63514,-0.4375 -0.1499,-0.197085 -0.24198,-0.440287 -0.24197,-0.75 -10e-6,-0.112618 0.0196,-0.271658 0.0605,-0.46875 0.0408,-0.197083 0.0937,-0.376391 0.12099,-0.53125 l 1.90543,-9.53125 c 0.5995,1.4e-5 1.1035,0.05772 1.51225,0.15625 0.40875,0.08448 0.77245,0.229443 1.05858,0.46875 0.28612,0.225257 0.52149,0.543338 0.72589,0.9375 0.20435,0.394188 0.40051,0.911843 0.60489,1.53125 l 2.23814,6.90625 c 0.28611,0.87282 0.66943,1.575973 1.11906,2.125 0.44961,0.549032 1.00947,0.988714 1.66349,1.3125 0.65398,0.323787 1.39635,0.560801 2.26838,0.6875 0.83908,0.108374 1.80632,0.153048 2.87329,0.15625 l -0.0907,0.25 -0.0907,0.28125 C 232.04747,74.0355 230.205,75.999994 227.80701,76 c -0.84477,-6e-6 -1.87239,-0.165236 -3.08499,-0.53125 l -0.87711,2.3125 c 3.34211,1.757529 8.19181,2.658823 10.22283,-0.71875 0.77449,-1.337723 1.51377,-3.884983 2.23813,-7.5 l 0.12099,-0.625 0.36293,-1.6875 h -0.12097 c -0.94017,2e-6 -1.81086,-0.205761 -2.60108,-0.65625 -0.77666,-0.450483 -1.35911,-1.228513 -1.75422,-2.3125 l -2.17764,-6.0625 c -0.61314,-1.661155 -1.29069,-2.888152 -2.02642,-3.71875 -0.72215,-0.844646 -1.57322,-1.324862 -2.54059,-1.4375 0.65399,-0.394159 1.35114,-1.094216 2.08692,-2.09375 0.74935,-1.013574 1.67591,-2.373156 2.7523,-4.0625 1.06272,-1.689299 1.99826,-2.910107 2.84303,-3.65625 0.84473,-0.760168 1.65359,-1.124973 2.38935,-1.125 0.34061,2.7e-5 0.61522,0.04675 0.84687,0.1875 0.2316,0.126726 0.40813,0.320112 0.54442,0.53125 0.13622,0.211192 0.24792,0.4513 0.30244,0.71875 0.0681,0.267502 0.0907,0.513799 0.0907,0.78125 0.44959,-0.01405 0.85851,-0.09512 1.24005,-0.25 0.38147,-0.168907 0.72554,-0.391843 0.99808,-0.6875 0.2861,-0.295605 0.48525,-0.65422 0.63515,-1.0625 0.16348,-0.422303 0.24194,-0.882253 0.24197,-1.375 -3e-5,-0.774244 -0.25504,-1.379156 -0.78638,-1.84375 -0.5314,-0.464533 -1.34924,-0.718719 -2.48009,-0.71875 z m 175.9053,0.28125 -0.45367,2.28125 h 0.51416 c 0.436,2.9e-5 0.84193,0.02029 1.2098,0.0625 0.3815,0.02818 0.70897,0.106157 0.96785,0.21875 0.27249,0.09857 0.48526,0.24044 0.63514,0.4375 0.14987,0.197115 0.21171,0.440318 0.21172,0.75 -1e-5,0.239348 -0.0648,0.753909 -0.24196,1.5 l -4.2948,20.75 c -0.10903,0.563112 -0.28554,1.005889 -0.54441,1.34375 -0.24525,0.337868 -0.53648,0.598243 -0.87711,0.78125 -0.34062,0.183013 -0.72694,0.318692 -1.14931,0.375 -0.40875,0.05631 -0.83429,0.0625 -1.2703,0.0625 h -0.54441 l -0.45368,2.3125 h 15.24352 l 0.45367,-2.3125 h -1.39126 c -0.43602,2e-6 -0.82832,-0.0031 -1.20982,-0.03125 -0.36787,-0.04223 -0.69534,-0.120204 -0.96783,-0.21875 -0.27251,-0.112619 -0.48528,-0.254487 -0.63514,-0.4375 -0.1499,-0.197085 -0.21173,-0.440287 -0.21172,-0.75 -1e-5,-0.112618 0.004,-0.271658 0.0302,-0.46875 0.0408,-0.197083 0.0801,-0.376391 0.12098,-0.53125 l 1.51229,-7.0625 h 3.17572 c 1.79849,1.2e-5 3.33609,-0.144951 4.65775,-0.46875 1.33522,-0.323774 2.47754,-0.746285 3.41769,-1.28125 0.95373,-0.549016 1.74597,-1.202351 2.35912,-1.90625 0.6131,-0.717946 1.08086,-1.461632 1.42151,-2.25 0.35422,-0.788332 0.61984,-1.589724 0.75613,-2.40625 0.13622,-0.816485 0.18144,-1.580438 0.18146,-2.3125 -2e-5,-1.37959 -0.25202,-2.614476 -0.75611,-3.65625 -0.49053,-1.0558 -1.19068,-1.921087 -2.11716,-2.625 -0.9129,-0.717933 -2.0356,-1.241778 -3.3572,-1.59375 -1.32165,-0.365989 -2.7808,-0.562469 -4.41579,-0.5625 z m 10.07161,2.5625 h 0.9376 c 0.69485,2.8e-5 1.31954,0.118535 1.90543,0.34375 0.59949,0.211193 1.12011,0.552636 1.54249,1.03125 0.42237,0.478668 0.73621,1.08358 0.96785,1.84375 0.24524,0.76022 0.39317,1.697291 0.3932,2.78125 -3e-5,1.16847 -0.14796,2.233331 -0.3932,3.21875 -0.24526,0.971379 -0.63457,1.813305 -1.17955,2.53125 -0.54503,0.703901 -1.26179,1.26209 -2.1474,1.65625 -0.87202,0.39419 -1.93887,0.593764 -3.20598,0.59375 h -1.7542 z m -144.29921,4.625 c -1.66226,2.4e-5 -3.06257,0.159064 -4.23431,0.46875 -1.17176,0.295655 -2.15415,0.677631 -2.90353,1.15625 -0.73575,0.478663 -1.26237,1.01968 -1.60299,1.625 -0.34063,0.591283 -0.51417,1.172834 -0.51417,1.75 0,0.788369 0.38332,1.393281 1.11907,1.84375 0.73575,0.436425 1.84483,0.656266 3.35721,0.65625 0.12262,-0.717946 0.29616,-1.380564 0.51417,-2 0.23161,-0.6194 0.50622,-1.126072 0.84686,-1.5625 0.3406,-0.450466 0.72992,-0.809081 1.17956,-1.0625 0.46324,-0.253377 1.00047,-0.374979 1.57274,-0.375 0.51774,2.1e-5 0.96289,0.06701 1.33078,0.25 0.36786,0.183031 0.64547,0.440311 0.8771,0.75 0.24524,0.295651 0.43541,0.637094 0.54441,1.03125 0.10904,0.394194 0.15121,0.81361 0.15123,1.25 -2e-5,0.675747 -0.11776,1.294737 -0.36293,1.84375 -0.23166,0.549046 -0.5621,1.01209 -0.99809,1.40625 -0.43602,0.380112 -0.95964,0.663849 -1.57274,0.875 -0.61315,0.211179 -1.2907,0.343763 -2.02642,0.34375 h -4.14358 l -0.45367,2.65625 h 3.90161 c 0.65399,1.1e-5 1.23646,0.132595 1.75421,0.34375 0.51773,0.197098 0.94628,0.460568 1.30054,0.8125 0.35424,0.337874 0.60924,0.722945 0.78637,1.1875 0.19073,0.450494 0.30244,0.944788 0.30246,1.4375 -2e-5,1.689329 -0.42557,2.930403 -1.27031,3.71875 -0.84475,0.788353 -2.00369,1.156252 -3.44793,1.15625 -0.53138,2e-6 -1.058,-0.08725 -1.60299,-0.3125 -0.53137,-0.22524 -1.03239,-0.566683 -1.48201,-1.03125 -0.43599,-0.478638 -0.78608,-1.111705 -1.05858,-1.84375 -0.27249,-0.746112 -0.39318,-1.628571 -0.39318,-2.65625 -0.84475,8e-6 -1.55853,0.09825 -2.11715,0.28125 -0.55862,0.183018 -1.00379,0.42622 -1.33079,0.75 -0.327,0.309716 -0.55938,0.702675 -0.69563,1.125 -0.12264,0.408259 -0.18147,0.830769 -0.18147,1.28125 0,0.591267 0.15693,1.15874 0.48393,1.75 0.32697,0.591265 0.83098,1.14636 1.51224,1.625 0.69487,0.464565 1.58519,0.829369 2.66157,1.125 1.07636,0.295631 2.38924,0.46875 3.90162,0.46875 1.7576,0 3.30884,-0.193386 4.65773,-0.53125 1.36247,-0.351942 2.49119,-0.852425 3.41769,-1.5 0.92649,-0.661649 1.64026,-1.463041 2.11716,-2.40625 0.47685,-0.943201 0.69562,-2.008062 0.69562,-3.21875 0,-0.633488 -0.0845,-1.197867 -0.30244,-1.71875 -0.21802,-0.534943 -0.52587,-1.029237 -0.90735,-1.4375 -0.3679,-0.42232 -0.79644,-0.780935 -1.30054,-1.0625 -0.50413,-0.29562 -1.04738,-0.501383 -1.63322,-0.65625 l 0.0302,-0.25 c 0.73574,-0.225231 1.45251,-0.4887 2.1474,-0.8125 0.69485,-0.323773 1.31355,-0.708845 1.84496,-1.1875 0.54498,-0.478627 0.97351,-1.071161 1.30053,-1.71875 0.34059,-0.661635 0.51414,-1.425588 0.51416,-2.3125 -2e-5,-0.746099 -0.19018,-1.446156 -0.54441,-2.09375 -0.35426,-0.647553 -0.87789,-1.208837 -1.57275,-1.6875 -0.69488,-0.478619 -1.56558,-0.857501 -2.60108,-1.125 -1.02187,-0.28153 -2.20642,-0.406226 -3.5689,-0.40625 z m -25.92003,0.09375 c -1.417,2.4e-5 -2.70263,0.226054 -3.90161,0.71875 -1.199,0.478664 -2.31572,1.121015 -3.29672,1.9375 -0.96737,0.816526 -1.82145,1.791037 -2.57083,2.875 -0.73574,1.083999 -1.34082,2.209662 -1.84493,3.40625 -0.50415,1.196617 -0.89045,2.417425 -1.14932,3.65625 -0.24526,1.224769 -0.36294,2.405043 -0.36294,3.53125 0,1.126222 0.11764,2.153644 0.36294,3.125 0.25887,0.957287 0.62856,1.796118 1.11906,2.5 0.50413,0.703886 1.12582,1.279247 1.87519,1.6875 0.74938,0.394175 1.6367,0.59375 2.63133,0.59375 1.02187,0 1.89857,-0.155946 2.66156,-0.4375 0.77663,-0.267476 1.4904,-0.666625 2.11716,-1.1875 0.62675,-0.534951 1.18958,-1.194474 1.69373,-1.96875 0.51773,-0.788347 1.02472,-1.656729 1.54249,-2.65625 h 0.30246 c -0.10903,0.563113 -0.20109,1.032346 -0.24197,1.46875 -0.0408,0.422335 -0.0605,0.862017 -0.0605,1.3125 -1e-5,1.126217 0.39992,2.002488 1.1493,2.59375 0.74937,0.577185 1.72413,0.875 2.96402,0.875 0.74936,0 1.44652,-0.112318 2.08692,-0.28125 0.65397,-0.154855 1.26967,-0.340351 1.8147,-0.59375 0.5586,-0.253398 1.0626,-0.548117 1.51226,-0.84375 0.4496,-0.309708 0.82528,-0.593444 1.17955,-0.875 L 263.7078,65.6875 c -0.43602,0.253402 -0.84195,0.473243 -1.2098,0.65625 -0.35427,0.168935 -0.72397,0.250003 -1.11907,0.25 -0.43602,3e-6 -0.78611,-0.179304 -1.05858,-0.53125 -0.27253,-0.351939 -0.42345,-0.907033 -0.42343,-1.625 -2e-5,-0.281548 0.0362,-0.622991 0.0907,-1.03125 0.0544,-0.422324 0.11328,-0.844834 0.18146,-1.28125 0.0818,-0.450478 0.16019,-0.855816 0.24197,-1.25 0.0818,-0.394166 0.1572,-0.72942 0.21171,-0.96875 l 2.7523,-13.5 h -2.20789 l -2.20788,1.0625 c -0.3134,-0.182988 -0.71634,-0.362295 -1.17957,-0.53125 -0.44964,-0.182987 -0.93402,-0.3592 -1.45176,-0.5 -0.51777,-0.140754 -1.06099,-0.25926 -1.63323,-0.34375 -0.55865,-0.09852 -1.11849,-0.124976 -1.66349,-0.125 z m 49.63216,0 c -1.417,2.4e-5 -2.73287,0.226054 -3.93187,0.71875 -1.199,0.478664 -2.28547,1.121015 -3.26646,1.9375 -0.96738,0.816526 -1.82145,1.791037 -2.57082,2.875 -0.73576,1.083999 -1.37108,2.209662 -1.87519,3.40625 -0.50414,1.196617 -0.8602,2.417425 -1.11907,3.65625 -0.24525,1.224769 -0.39319,2.405043 -0.39319,3.53125 0,1.126222 0.14794,2.153644 0.39319,3.125 0.25887,0.957287 0.62856,1.796118 1.11907,2.5 0.50411,0.703886 1.1258,1.279247 1.87519,1.6875 0.74937,0.394175 1.60645,0.59375 2.60108,0.59375 1.02185,0 1.92879,-0.155946 2.6918,-0.4375 0.77662,-0.267476 1.49039,-0.666625 2.11715,-1.1875 0.62674,-0.534951 1.1896,-1.194474 1.69373,-1.96875 0.51773,-0.788347 1.02473,-1.656729 1.5425,-2.65625 h 0.2722 c -0.10903,0.563113 -0.17085,1.032346 -0.21171,1.46875 -0.0408,0.422335 -0.0605,0.862017 -0.0605,1.3125 -2e-5,1.126217 0.36969,2.002488 1.11907,2.59375 0.74936,0.577185 1.75437,0.875 2.99426,0.875 0.74935,0 1.44652,-0.112318 2.08691,-0.28125 0.65398,-0.154855 1.23944,-0.340351 1.78445,-0.59375 0.5586,-0.253398 1.06261,-0.548117 1.51226,-0.84375 0.4496,-0.309708 0.85553,-0.593444 1.2098,-0.875 l -0.90734,-1.71875 c -0.43603,0.253402 -0.84197,0.473243 -1.20982,0.65625 -0.35426,0.168935 -0.72396,0.250003 -1.11906,0.25 -0.43602,3e-6 -0.7861,-0.179304 -1.05858,-0.53125 -0.27252,-0.351939 -0.42344,-0.907033 -0.42343,-1.625 -1e-5,-0.281548 0.0362,-0.622991 0.0907,-1.03125 0.0544,-0.422324 0.11328,-0.844834 0.18147,-1.28125 0.0818,-0.450478 0.16018,-0.855816 0.24196,-1.25 0.0818,-0.394166 0.1572,-0.72942 0.21171,-0.96875 l 2.7523,-13.5 h -2.23813 l -2.20789,1.0625 c -0.31339,-0.182988 -0.68608,-0.362295 -1.14931,-0.53125 -0.44964,-0.182987 -0.93404,-0.3592 -1.45177,-0.5 -0.51776,-0.140754 -1.061,-0.25926 -1.63323,-0.34375 -0.55864,-0.09852 -1.11849,-0.124976 -1.66348,-0.125 z M 338.23166,46 c -0.83114,2.4e-5 -1.55391,0.138797 -2.2079,0.40625 -0.65401,0.267499 -1.25608,0.666648 -1.81469,1.1875 -0.55865,0.506818 -1.73421,1.814883 -3.47818,3.96875 l -2.02642,2.53125 c -1.26714,1.54856 -2.31438,2.312513 -3.14549,2.3125 L 327.76686,46.375 h -9.89013 l -0.42343,2.3125 h 0.75613 c 0.80387,2.1e-5 1.36671,0.09826 1.69371,0.28125 0.34063,0.18303 0.51418,0.547835 0.51418,1.125 0,0.591282 -0.14795,1.490914 -0.39319,2.6875 l -3.4177,16.78125 h 6.26073 l 2.14741,-10.4375 c 0.81749,1e-5 1.43918,0.19649 1.87519,0.5625 0.44961,0.351952 0.85554,0.977131 1.2098,1.90625 l 1.45176,3.78125 c 0.65399,1.731559 1.49145,2.860316 2.54059,3.4375 1.06274,0.577186 2.5189,0.915534 4.38553,1 l -0.0605,0.28125 c -1.29437,3.94175 -3.16711,5.906244 -5.56508,5.90625 -0.84476,-6e-6 -1.8724,-0.165236 -3.08501,-0.53125 l -0.8771,2.3125 c 1.89386,1.098051 3.96573,1.65624 6.20024,1.65625 1.77122,-1e-5 3.1097,-0.798307 4.02259,-2.375 0.91286,-1.576708 1.78655,-4.75582 2.63132,-9.5 h -0.24196 c -0.69489,2e-6 -1.33321,-0.168322 -1.90544,-0.5625 -0.57226,-0.40825 -1.2498,-1.48719 -2.02642,-3.21875 L 334.39053,61.125 c -1.22627,-2.829605 -3.16082,-4.218737 -5.7768,-4.21875 0.88561,-0.323774 2.12901,-1.518126 3.75038,-3.53125 1.85299,-2.393189 3.33939,-3.56248 4.41579,-3.5625 1.11722,2e-5 1.66345,0.821679 1.66348,2.46875 2.04372,1.7e-5 3.08496,-1.156895 3.08499,-3.4375 -3e-5,-0.84464 -0.30488,-1.510353 -0.8771,-2.03125 -0.55865,-0.534929 -1.37051,-0.812476 -2.41961,-0.8125 z m -84.59545,2.71875 c 0.54498,2.1e-5 1.06561,0.115433 1.54249,0.3125 0.49049,0.197108 0.84656,0.498017 1.11908,0.90625 l -1.45176,7.15625 c -0.23165,1.154382 -0.59535,2.311295 -1.05858,3.4375 -0.44965,1.126223 -0.94002,2.130284 -1.51226,3.03125 -0.57227,0.8869 -1.19096,1.607224 -1.84496,2.15625 -0.654,0.549033 -1.29232,0.812503 -1.90543,0.8125 -0.32701,3e-6 -0.62123,-0.04672 -0.90734,-0.1875 -0.27251,-0.154851 -0.52153,-0.412132 -0.72589,-0.75 -0.19076,-0.351938 -0.36132,-0.811887 -0.48393,-1.375 -0.10903,-0.563102 -0.15123,-1.263159 -0.15122,-2.09375 -10e-6,-0.80242 0.0754,-1.68488 0.21172,-2.65625 0.13624,-0.97135 0.33239,-1.969222 0.6049,-2.96875 0.28611,-0.999502 0.61957,-1.945857 1.02833,-2.875 0.42237,-0.929111 0.90676,-1.767942 1.45176,-2.5 0.54499,-0.732021 1.17732,-1.313572 1.84495,-1.75 0.68123,-0.436388 1.42062,-0.656229 2.23814,-0.65625 z m 49.63216,0 c 0.54498,2.1e-5 1.03535,0.115433 1.51225,0.3125 0.49049,0.197108 0.87679,0.498017 1.1493,0.90625 l -1.482,7.15625 c -0.23164,1.154382 -0.5651,2.311295 -1.02833,3.4375 -0.44964,1.126223 -0.97027,2.130284 -1.54251,3.03125 -0.57226,0.8869 -1.19094,1.607224 -1.84494,2.15625 -0.65401,0.549033 -1.26208,0.812503 -1.87519,0.8125 -0.327,3e-6 -0.65149,-0.04672 -0.9376,-0.1875 -0.2725,-0.154851 -0.49127,-0.412132 -0.69563,-0.75 -0.19077,-0.351938 -0.36131,-0.811887 -0.48393,-1.375 -0.10903,-0.563102 -0.15124,-1.263159 -0.15123,-2.09375 -10e-6,-0.80242 0.0452,-1.68488 0.18148,-2.65625 0.13625,-0.97135 0.36264,-1.969222 0.63514,-2.96875 0.28611,-0.999502 0.61958,-1.945857 1.02833,-2.875 0.42236,-0.929111 0.90675,-1.767942 1.45177,-2.5 0.54498,-0.732021 1.14707,-1.313572 1.8147,-1.75 0.68124,-0.436388 1.45087,-0.656229 2.26839,-0.65625 z M 452.67899,81.3125 c -1.86663,3.1e-5 -3.59741,0.260407 -5.23241,0.78125 -1.635,0.520905 -3.16064,1.258402 -4.53675,2.1875 -1.36252,0.929155 -2.56966,2.014284 -3.65965,3.28125 -1.07638,1.267016 -2.00292,2.681209 -2.7523,4.1875 -0.74938,1.506333 -1.2986,3.074772 -1.69373,4.75 -0.39513,1.67526 -0.60489,3.393457 -0.60489,5.125 0,1.84419 0.27459,3.48751 0.84686,4.9375 0.57225,1.43593 1.40372,2.65674 2.48009,3.65625 1.08998,0.98544 2.42547,1.72913 3.99235,2.25 1.58048,0.5068 3.38074,0.75 5.38362,0.75 1.58049,0 2.96118,-0.14806 4.17381,-0.5 1.21261,-0.36602 2.23725,-0.86031 3.05476,-1.4375 0.83111,-0.59126 1.4528,-1.25078 1.8752,-1.96875 0.42235,-0.73204 0.63511,-1.43828 0.63513,-2.15625 -2e-5,-0.32378 -0.0785,-0.63877 -0.24195,-0.90625 -0.1499,-0.26747 -0.32044,-0.43579 -0.48392,-0.5625 -0.35427,0.49273 -0.74658,0.94169 -1.2098,1.40625 -0.46328,0.46457 -1.02014,0.90116 -1.63325,1.28125 -0.61313,0.36602 -1.3103,0.64976 -2.08689,0.875 -0.77666,0.22525 -1.63373,0.34375 -2.60107,0.34375 -2.39803,0 -4.20127,-0.66262 -5.41388,-2 -1.21264,-1.35145 -1.81471,-3.25514 -1.81471,-5.71875 0,-1.28106 0.0981,-2.6032 0.30246,-3.96875 0.21798,-1.379598 0.51222,-2.722007 0.90735,-4.03125 0.40873,-1.323283 0.92638,-2.567452 1.51224,-3.75 0.5995,-1.182502 1.26342,-2.23808 2.02643,-3.125 0.77661,-0.900946 1.64431,-1.604098 2.57082,-2.125 0.94012,-0.520846 1.95113,-0.781221 3.05476,-0.78125 0.77661,2.9e-5 1.38168,0.202698 1.84495,0.625 0.46323,0.422358 0.84356,0.960281 1.08883,1.59375 0.25884,0.633522 0.43239,1.299235 0.51417,2.03125 0.0817,0.732064 0.12095,1.425932 0.12096,2.03125 0.84473,2.2e-5 1.60674,-0.08105 2.32889,-0.25 0.7221,-0.168909 1.35741,-0.42619 1.87519,-0.75 0.53134,-0.337841 0.94027,-0.740084 1.24004,-1.21875 0.29972,-0.478616 0.45365,-1.053978 0.45368,-1.6875 -3e-5,-0.774246 -0.17357,-1.460226 -0.51416,-2.09375 -0.34066,-0.647545 -0.84766,-1.188562 -1.5425,-1.625 -0.68127,-0.450456 -1.55197,-0.791898 -2.60108,-1.03125 -1.03552,-0.253367 -2.26992,-0.406219 -3.65965,-0.40625 z m 27.97668,0 c -1.86662,3.1e-5 -3.62765,0.260407 -5.26263,0.78125 -1.63502,0.520905 -3.13042,1.258402 -4.50653,2.1875 -1.36251,0.929155 -2.5999,2.014284 -3.68988,3.28125 -1.07639,1.267016 -1.97269,2.681209 -2.72206,4.1875 -0.74938,1.506333 -1.32885,3.074772 -1.72398,4.75 -0.39513,1.67526 -0.6049,3.393457 -0.6049,5.125 0,1.84419 0.30485,3.48751 0.87712,4.9375 0.57224,1.43593 1.40371,2.65674 2.48009,3.65625 1.09,0.98544 2.39522,1.72913 3.96209,2.25 1.5805,0.5068 3.38075,0.75 5.38364,0.75 1.58047,0 2.99142,-0.14806 4.20405,-0.5 1.2126,-0.36602 2.20699,-0.86031 3.02451,-1.4375 0.8311,-0.59126 1.45279,-1.25078 1.8752,-1.96875 0.42234,-0.73204 0.63512,-1.43828 0.63514,-2.15625 -2e-5,-0.32378 -0.0785,-0.63877 -0.24196,-0.90625 -0.14989,-0.26747 -0.29019,-0.43579 -0.45367,-0.5625 -0.35428,0.49273 -0.77683,0.94169 -1.24006,1.40625 -0.46327,0.46457 -0.98987,0.90116 -1.60297,1.28125 -0.61316,0.36602 -1.31032,0.64976 -2.08692,0.875 -0.77665,0.22525 -1.66397,0.34375 -2.63132,0.34375 -2.39802,0 -4.20125,-0.66262 -5.41388,-2 -1.21263,-1.35145 -1.8147,-3.25514 -1.81469,-5.71875 -10e-6,-1.28106 0.0981,-2.6032 0.30245,-3.96875 0.21798,-1.379598 0.54246,-2.722007 0.9376,-4.03125 0.40874,-1.323283 0.89612,-2.567452 1.48201,-3.75 0.59948,-1.182502 1.29365,-2.23808 2.05666,-3.125 0.77661,-0.900946 1.61406,-1.604098 2.54059,-2.125 0.94009,-0.520846 1.9511,-0.781221 3.05475,-0.78125 0.77659,2.9e-5 1.41191,0.202698 1.87519,0.625 0.46323,0.422358 0.8133,0.960281 1.05858,1.59375 0.25885,0.633522 0.43239,1.299235 0.51417,2.03125 0.0818,0.732064 0.12096,1.425932 0.12098,2.03125 0.84473,2.2e-5 1.63696,-0.08105 2.35911,-0.25 0.7221,-0.168909 1.32717,-0.42619 1.84494,-0.75 0.53136,-0.337841 0.94028,-0.740084 1.24006,-1.21875 0.29972,-0.478616 0.45364,-1.053978 0.45367,-1.6875 -3e-5,-0.774246 -0.17357,-1.460226 -0.51417,-2.09375 -0.34064,-0.647545 -0.84765,-1.188562 -1.5425,-1.625 -0.68127,-0.450456 -1.55196,-0.791898 -2.60107,-1.03125 -1.03552,-0.253367 -2.23968,-0.406219 -3.62941,-0.40625 z m -265.12824,0.34375 c -0.87203,3.1e-5 -1.68688,0.138805 -2.44985,0.40625 -0.74941,0.267507 -1.49943,0.686922 -2.2079,1.25 -0.6949,0.563137 -1.39205,1.300633 -2.0869,2.1875 -0.68127,0.872844 -1.38143,1.900266 -2.11716,3.125 -0.98103,1.66119 -1.81548,2.99741 -2.51034,3.96875 -0.69488,0.97138 -1.25774,1.65736 -1.69373,2.09375 -0.46326,0.450504 -1.04272,0.791947 -1.72396,1.03125 -0.66764,0.22526 -1.50211,0.343767 -2.51034,0.34375 l 1.87519,-9.21875 c 0.10903,-0.563081 0.28552,-0.991781 0.54441,-1.34375 0.25886,-0.351915 0.58333,-0.629462 0.9376,-0.8125 0.35422,-0.182982 0.72693,-0.318661 1.14932,-0.375 0.43598,-0.07036 0.89775,-0.09372 1.36102,-0.09375 h 0.51417 l 0.48391,-2.28125 h -14.45713 l -0.45368,2.28125 h 0.54441 c 0.43599,2.9e-5 0.84192,0.0203 1.20981,0.0625 0.38149,0.02818 0.70895,0.106157 0.96783,0.21875 0.2725,0.09857 0.48527,0.24044 0.63516,0.4375 0.14987,0.197115 0.2117,0.440318 0.21171,0.75 -1e-5,0.112649 -0.0196,0.271689 -0.0605,0.46875 -0.0273,0.197114 -0.0666,0.376422 -0.12099,0.53125 l -4.35528,21.25 c -0.10903,0.56311 -0.28555,1.00589 -0.54441,1.34375 -0.24525,0.33787 -0.5365,0.59824 -0.87712,0.78125 -0.34063,0.18301 -0.72693,0.31869 -1.1493,0.375 -0.40875,0.0563 -0.83429,0.0625 -1.2703,0.0625 h -0.54442 l -0.45367,2.3125 h 14.39665 l 0.45368,-2.3125 h -0.54442 c -0.43601,0 -0.85856,-0.003 -1.24004,-0.0312 -0.36788,-0.0422 -0.66512,-0.1202 -0.9376,-0.21875 -0.27251,-0.11262 -0.48528,-0.25449 -0.63515,-0.4375 -0.14988,-0.19708 -0.24197,-0.44029 -0.24196,-0.75 -1e-5,-0.11262 0.0196,-0.27166 0.0605,-0.46875 0.0408,-0.19708 0.0937,-0.37639 0.12097,-0.53125 l 1.90544,-9.53125 c 0.59949,1.4e-5 1.10349,0.05772 1.51225,0.15625 0.40874,0.08448 0.77244,0.229443 1.05859,0.46875 0.28611,0.225257 0.52148,0.543338 0.72587,0.9375 0.20435,0.39419 0.4005,0.91184 0.6049,1.53125 l 2.23814,6.90625 c 0.2861,0.87282 0.66942,1.57597 1.11907,2.125 0.4496,0.54903 1.00946,0.98871 1.66347,1.3125 0.65398,0.32379 1.39636,0.5608 2.26839,0.6875 0.87197,0.11262 1.87697,0.15625 2.99425,0.15625 h 2.66158 L 215.04349,110.5 h -0.12098 c -0.94015,0 -1.81085,-0.20576 -2.60108,-0.65625 -0.77665,-0.45048 -1.35911,-1.22851 -1.7542,-2.3125 l -2.17765,-6.0625 c -0.61315,-1.661155 -1.29069,-2.919402 -2.02642,-3.75 -0.72214,-0.844646 -1.57323,-1.324862 -2.54059,-1.4375 0.65399,-0.394159 1.35114,-1.062966 2.08692,-2.0625 0.74934,-1.013574 1.6759,-2.373156 2.75229,-4.0625 1.06272,-1.689299 1.99828,-2.910107 2.84305,-3.65625 0.84472,-0.760168 1.65358,-1.156223 2.38935,-1.15625 0.34059,2.7e-5 0.61521,0.078 0.84686,0.21875 0.23161,0.126726 0.40813,0.288862 0.54441,0.5 0.13623,0.211192 0.24793,0.4513 0.30246,0.71875 0.0681,0.267502 0.0907,0.545049 0.0907,0.8125 0.44959,-0.01405 0.8585,-0.09512 1.24003,-0.25 0.38147,-0.168907 0.72556,-0.391843 0.99809,-0.6875 0.28609,-0.295605 0.48525,-0.65422 0.63516,-1.0625 0.16346,-0.422303 0.24192,-0.882253 0.24194,-1.375 -2e-5,-0.774244 -0.25502,-1.379156 -0.78636,-1.84375 -0.5314,-0.464533 -1.34924,-0.718719 -2.48009,-0.71875 z m 277.2565,0.28125 -0.45367,2.28125 h 0.54442 c 0.43599,2.9e-5 0.84192,0.0203 1.20981,0.0625 0.38149,0.02818 0.70895,0.106157 0.96783,0.21875 0.2725,0.09857 0.48528,0.24044 0.63516,0.4375 0.14987,0.197115 0.2117,0.440318 0.2117,0.75 0,0.239348 -0.0951,0.753909 -0.2722,1.5 l -4.26455,20.75 c -0.10903,0.56311 -0.28555,1.00589 -0.54442,1.34375 -0.24525,0.33787 -0.53648,0.59824 -0.8771,0.78125 -0.34063,0.18301 -0.72693,0.31869 -1.14931,0.375 -0.40874,0.0563 -0.83428,0.0625 -1.27029,0.0625 h -0.54442 l -0.45367,2.3125 h 15.21327 l 0.48392,-2.3125 h -1.39128 c -0.43601,0 -0.85856,-0.003 -1.24004,-0.0312 -0.36789,-0.0422 -0.66512,-0.1202 -0.9376,-0.21875 -0.27252,-0.11262 -0.48529,-0.25449 -0.63515,-0.4375 -0.14988,-0.19708 -0.24197,-0.44029 -0.24196,-0.75 -1e-5,-0.11262 0.0332,-0.27166 0.0605,-0.46875 0.0408,-0.19708 0.0801,-0.37639 0.12096,-0.53125 L 499.4681,101 h 3.14549 c 1.79848,1e-5 3.36634,-0.14495 4.68798,-0.46875 1.33524,-0.32377 2.47756,-0.777535 3.41769,-1.3125 0.95372,-0.549016 1.74597,-1.171101 2.35913,-1.875 0.61309,-0.717946 1.08086,-1.461632 1.42151,-2.25 0.35422,-0.788332 0.58961,-1.589724 0.72589,-2.40625 0.13623,-0.816485 0.21167,-1.580438 0.21171,-2.3125 -4e-5,-1.37959 -0.25202,-2.614476 -0.75613,-3.65625 -0.49052,-1.0558 -1.19069,-1.921087 -2.11715,-2.625 -0.91289,-0.717933 -2.03561,-1.241778 -3.3572,-1.59375 -1.32166,-0.365989 -2.81106,-0.562469 -4.44603,-0.5625 z M 502.88581,84.5 h 0.90734 c 0.69485,2.8e-5 1.3498,0.118535 1.93568,0.34375 0.59948,0.211193 1.12011,0.552636 1.5425,1.03125 0.42236,0.478668 0.73621,1.08358 0.96784,1.84375 0.24523,0.76022 0.36293,1.697291 0.36293,2.78125 0,1.16847 -0.11764,2.233331 -0.36293,3.21875 -0.24526,0.971379 -0.63457,1.813305 -1.17956,2.53125 -0.54501,0.703901 -1.26179,1.26209 -2.14739,1.65625 -0.87203,0.39419 -1.93887,0.593764 -3.20597,0.59375 h -1.75423 z m -245.68069,4.625 c -1.66226,2.4e-5 -3.06256,0.159064 -4.23431,0.46875 -1.17176,0.295655 -2.15415,0.677631 -2.90352,1.15625 -0.73575,0.478663 -1.26237,1.01968 -1.60299,1.625 -0.34064,0.591283 -0.51417,1.172834 -0.51417,1.75 0,0.788369 0.38331,1.393281 1.11908,1.84375 0.73575,0.436425 1.84481,0.656266 3.35719,0.65625 0.12261,-0.717946 0.29617,-1.380564 0.51417,-2 0.23161,-0.6194 0.50623,-1.157322 0.84687,-1.59375 0.34061,-0.450466 0.72992,-0.777831 1.17955,-1.03125 0.46324,-0.253377 1.00048,-0.406229 1.57274,-0.40625 0.51774,2.1e-5 0.9629,0.09826 1.33079,0.28125 0.36785,0.183031 0.6757,0.440311 0.90735,0.75 0.24523,0.295651 0.40515,0.637094 0.51417,1.03125 0.10903,0.394194 0.1512,0.81361 0.15123,1.25 -3e-5,0.675747 -0.11777,1.294737 -0.36296,1.84375 -0.23163,0.549046 -0.5621,1.01209 -0.99807,1.40625 -0.43601,0.380112 -0.95965,0.663849 -1.57275,0.875 -0.61314,0.211179 -1.29069,0.312513 -2.02643,0.3125 h -4.14357 l -0.45367,2.6875 h 3.90162 c 0.65398,1e-5 1.23646,0.10135 1.75421,0.3125 0.51773,0.1971 0.94627,0.49182 1.30054,0.84375 0.35423,0.33787 0.60923,0.72294 0.78636,1.1875 0.19074,0.45049 0.30245,0.94479 0.30246,1.4375 -1e-5,1.68933 -0.42556,2.89915 -1.27029,3.6875 -0.84476,0.78835 -2.00372,1.1875 -3.44794,1.1875 -0.5314,0 -1.05799,-0.0872 -1.60299,-0.3125 -0.53139,-0.22524 -1.03238,-0.59793 -1.48201,-1.0625 -0.43601,-0.47864 -0.78608,-1.08046 -1.05857,-1.8125 -0.27251,-0.74611 -0.39319,-1.62857 -0.39319,-2.65625 -0.84476,1e-5 -1.55854,0.0982 -2.11716,0.28125 -0.55863,0.18302 -1.00379,0.42622 -1.33078,0.75 -0.32701,0.30972 -0.55938,0.67143 -0.69564,1.09375 -0.12262,0.40826 -0.18147,0.86202 -0.18147,1.3125 0,0.59127 0.15693,1.15874 0.48392,1.75 0.327,0.59127 0.83101,1.14636 1.51225,1.625 0.69488,0.46456 1.5852,0.82937 2.66157,1.125 1.07638,0.29563 2.38923,0.4375 3.90162,0.4375 1.75761,0 3.30886,-0.16214 4.65773,-0.5 1.36249,-0.35194 2.49118,-0.85243 3.41771,-1.5 0.92647,-0.66165 1.64025,-1.46304 2.11713,-2.40625 0.47686,-0.9432 0.69562,-2.00806 0.69565,-3.21875 -3e-5,-0.63349 -0.0845,-1.22912 -0.30245,-1.75 -0.21801,-0.53494 -0.52587,-0.99799 -0.90736,-1.40625 -0.36788,-0.42232 -0.79642,-0.78093 -1.30053,-1.0625 -0.50414,-0.29562 -1.04739,-0.50138 -1.63324,-0.65625 l 0.0302,-0.25 c 0.73572,-0.22523 1.45251,-0.4887 2.1474,-0.8125 0.69485,-0.323773 1.31355,-0.740095 1.84493,-1.21875 0.545,-0.478627 0.97352,-1.039911 1.30055,-1.6875 0.3406,-0.661635 0.51415,-1.425588 0.51417,-2.3125 -2e-5,-0.746099 -0.19018,-1.446156 -0.54441,-2.09375 -0.35427,-0.647553 -0.8779,-1.208837 -1.57275,-1.6875 -0.69489,-0.478619 -1.56558,-0.857501 -2.60108,-1.125 -1.02187,-0.28153 -2.20642,-0.406226 -3.56892,-0.40625 z m -25.92002,0.0625 c -1.41701,2.4e-5 -2.70262,0.257304 -3.9016,0.75 -1.19902,0.478664 -2.31572,1.121015 -3.29672,1.9375 -0.96738,0.816526 -1.82146,1.759787 -2.57084,2.84375 -0.73573,1.083999 -1.34082,2.240912 -1.84494,3.4375 -0.50413,1.196617 -0.89044,2.41743 -1.14932,3.65625 -0.24525,1.22477 -0.36293,2.40504 -0.36293,3.53125 0,1.12622 0.11765,2.15364 0.36293,3.125 0.25888,0.95729 0.62857,1.79612 1.11907,2.5 0.50413,0.70389 1.12583,1.27925 1.87519,1.6875 0.74938,0.39418 1.63671,0.5625 2.63134,0.5625 1.02185,0 1.89855,-0.1247 2.66156,-0.40625 0.77661,-0.26748 1.49038,-0.66662 2.11716,-1.1875 0.62672,-0.53495 1.18957,-1.19447 1.69372,-1.96875 0.51773,-0.78835 1.02473,-1.68798 1.54249,-2.6875 h 0.30245 c -0.10903,0.56311 -0.2011,1.0636 -0.24196,1.5 -0.0408,0.42233 -0.0605,0.86202 -0.0605,1.3125 -2e-5,1.12622 0.39994,2.00249 1.14932,2.59375 0.74936,0.57719 1.72412,0.84375 2.96402,0.84375 0.74935,0 1.44652,-0.0811 2.0869,-0.25 0.65399,-0.15485 1.26969,-0.34035 1.8147,-0.59375 0.55861,-0.2534 1.06261,-0.54812 1.51226,-0.84375 0.4496,-0.30971 0.82528,-0.59344 1.17956,-0.875 l -0.90736,-1.71875 c -0.43601,0.2534 -0.84195,0.47324 -1.2098,0.65625 -0.35426,0.16894 -0.72396,0.25 -1.11906,0.25 -0.43603,0 -0.7861,-0.1793 -1.05857,-0.53125 -0.27254,-0.35194 -0.42346,-0.90703 -0.42344,-1.625 -2e-5,-0.28155 0.0362,-0.62299 0.0907,-1.03125 0.0544,-0.42232 0.11328,-0.84483 0.18147,-1.28125 0.0818,-0.45048 0.16018,-0.85582 0.24196,-1.25 0.0818,-0.39417 0.15718,-0.72942 0.21171,-0.96875 l 2.75231,-13.5 H 239.421 l -2.20791,1.03125 c -0.31338,-0.182988 -0.71631,-0.331045 -1.17954,-0.5 -0.44965,-0.182987 -0.93405,-0.3592 -1.45177,-0.5 -0.51776,-0.140754 -1.06099,-0.25926 -1.63322,-0.34375 -0.55865,-0.09852 -1.11851,-0.156226 -1.66349,-0.15625 z m 49.63215,0 c -1.41701,2.4e-5 -2.73287,0.257304 -3.93185,0.75 -1.19901,0.478664 -2.28548,1.121015 -3.26647,1.9375 -0.96738,0.816526 -1.82146,1.759787 -2.57083,2.84375 -0.73575,1.083999 -1.34083,2.240912 -1.84494,3.4375 -0.50413,1.196617 -0.89045,2.41743 -1.14931,3.65625 -0.24526,1.22477 -0.3932,2.40504 -0.3932,3.53125 0,1.12622 0.14794,2.15364 0.3932,3.125 0.25886,0.95729 0.62856,1.79612 1.11905,2.5 0.50413,0.70389 1.12582,1.27925 1.8752,1.6875 0.74937,0.39418 1.60645,0.5625 2.60108,0.5625 1.02186,0 1.92881,-0.1247 2.6918,-0.40625 0.77663,-0.26748 1.4904,-0.66662 2.11716,-1.1875 0.62673,-0.53495 1.18958,-1.19447 1.69373,-1.96875 0.51774,-0.78835 1.02472,-1.68798 1.54249,-2.6875 h 0.30246 c -0.10903,0.56311 -0.20109,1.0636 -0.24196,1.5 -0.0408,0.42233 -0.0605,0.86202 -0.0605,1.3125 -3e-5,1.12622 0.36968,2.00249 1.11907,2.59375 0.74936,0.57719 1.75437,0.84375 2.99426,0.84375 0.74936,0 1.44651,-0.0811 2.08691,-0.25 0.65397,-0.15485 1.23944,-0.34035 1.78446,-0.59375 0.5586,-0.2534 1.06261,-0.54812 1.51224,-0.84375 0.44961,-0.30971 0.85552,-0.59344 1.20982,-0.875 l -0.90736,-1.71875 c -0.43602,0.2534 -0.84195,0.47324 -1.2098,0.65625 -0.35427,0.16894 -0.72396,0.25 -1.11907,0.25 -0.43601,0 -0.78611,-0.1793 -1.05858,-0.53125 -0.27252,-0.35194 -0.42345,-0.90703 -0.42343,-1.625 -2e-5,-0.28155 0.0362,-0.62299 0.0907,-1.03125 0.0544,-0.42232 0.11328,-0.84483 0.18146,-1.28125 0.0818,-0.45048 0.16019,-0.85582 0.24197,-1.25 0.0818,-0.39417 0.1572,-0.72942 0.21172,-0.96875 l 2.75229,-13.5 h -2.23812 l -2.2079,1.03125 c -0.3134,-0.182988 -0.68609,-0.331045 -1.14932,-0.5 -0.44962,-0.182987 -0.93402,-0.3592 -1.45176,-0.5 -0.51776,-0.140754 -1.06099,-0.25926 -1.63323,-0.34375 -0.55863,-0.09852 -1.11851,-0.156226 -1.66349,-0.15625 z m 52.95912,0 c -1.51239,2.4e-5 -2.90672,0.237037 -4.17381,0.6875 -1.26714,0.450509 -2.42608,1.052326 -3.44795,1.8125 -1.02187,0.760216 -1.9152,1.642675 -2.6918,2.65625 -0.76302,0.999534 -1.3877,2.061301 -1.90545,3.1875 -0.51776,1.112152 -0.92068,2.269064 -1.17956,3.4375 -0.25888,1.15438 -0.39317,2.27385 -0.39317,3.34375 0,1.50632 0.2656,2.79412 0.75612,3.90625 0.49048,1.11214 1.13481,2.03513 1.96593,2.78125 0.84474,0.74612 1.84675,1.32148 2.964,1.6875 1.13088,0.36602 2.30179,0.53125 3.56892,0.53125 1.43063,0 2.68464,-0.14187 3.72015,-0.4375 1.03548,-0.30971 1.87295,-0.69169 2.54059,-1.15625 0.68124,-0.47864 1.19885,-1.01656 1.51225,-1.59375 0.32699,-0.59126 0.48389,-1.15564 0.48391,-1.71875 -2e-5,-0.4364 -0.0589,-0.83246 -0.18145,-1.15625 -0.12265,-0.33786 -0.27657,-0.58106 -0.45369,-0.75 -0.28614,0.43641 -0.63024,0.85892 -0.99809,1.28125 -0.36788,0.42234 -0.76318,0.81839 -1.24004,1.15625 -0.4769,0.33787 -1.03375,0.60134 -1.63323,0.8125 -0.5859,0.19709 -1.2302,0.3125 -1.96594,0.3125 -1.526,0 -2.70156,-0.49739 -3.47817,-1.46875 -0.77664,-0.98543 -1.14933,-2.36528 -1.14932,-4.125 -1e-5,-0.74611 0.0589,-1.56777 0.18147,-2.46875 0.12263,-0.91504 0.31278,-1.82086 0.54442,-2.75 0.24525,-0.943191 0.51986,-1.845917 0.84686,-2.71875 0.34061,-0.886877 0.71329,-1.668003 1.14931,-2.34375 0.43599,-0.689788 0.934,-1.247977 1.45176,-1.65625 0.53137,-0.42231 1.09421,-0.624979 1.69372,-0.625 0.50411,2.1e-5 0.93266,0.141889 1.30054,0.4375 0.38148,0.295652 0.70896,0.697895 0.96785,1.21875 0.25885,0.506816 0.45201,1.091461 0.57466,1.78125 0.13623,0.675746 0.18144,1.396071 0.18147,2.15625 0.92646,1.5e-5 1.71872,-0.101319 2.3591,-0.3125 0.65399,-0.211149 1.19423,-0.474619 1.603,-0.8125 0.40873,-0.351925 0.69995,-0.733902 0.87711,-1.15625 0.19071,-0.43639 0.27219,-0.893245 0.2722,-1.34375 -1e-5,-0.619399 -0.10408,-1.20095 -0.36295,-1.75 -0.25889,-0.563086 -0.66481,-1.060475 -1.20979,-1.46875 -0.5314,-0.422308 -1.24219,-0.729406 -2.08691,-0.96875 -0.83116,-0.253375 -1.80591,-0.406226 -2.96402,-0.40625 z m 46.78912,0 c -1.41701,2.4e-5 -2.73288,0.257304 -3.93186,0.75 -1.19902,0.478664 -2.28548,1.121015 -3.26646,1.9375 -0.96739,0.816526 -1.82147,1.759787 -2.57084,2.84375 -0.73576,1.083999 -1.37108,2.240912 -1.8752,3.4375 -0.50412,1.196617 -0.89044,2.41743 -1.1493,3.65625 -0.24525,1.22477 -0.36296,2.40504 -0.36296,3.53125 0,1.12622 0.11777,2.15364 0.36296,3.125 0.25886,0.95729 0.62856,1.79612 1.11907,2.5 0.50411,0.70389 1.15604,1.27925 1.90543,1.6875 0.74937,0.39418 1.60644,0.5625 2.60108,0.5625 1.02186,0 1.9288,-0.1247 2.6918,-0.40625 0.77662,-0.26748 1.46015,-0.66662 2.08691,-1.1875 0.62674,-0.53495 1.18959,-1.19447 1.69373,-1.96875 0.51773,-0.78835 1.05497,-1.68798 1.57274,-2.6875 h 0.27221 c -0.10904,0.56311 -0.17086,1.0636 -0.21172,1.5 -0.0408,0.42233 -0.0605,0.86202 -0.0605,1.3125 -3e-5,1.12622 0.36967,2.00249 1.11907,2.59375 0.74934,0.57719 1.72411,0.84375 2.96401,0.84375 0.74935,0 1.44652,-0.0811 2.08691,-0.25 0.65398,-0.15485 1.26968,-0.34035 1.81471,-0.59375 0.55859,-0.2534 1.06259,-0.54812 1.51224,-0.84375 0.44961,-0.30971 0.85554,-0.59344 1.20981,-0.875 l -0.93759,-1.71875 c -0.43604,0.2534 -0.84197,0.47324 -1.20982,0.65625 -0.35426,0.16894 -0.72396,0.25 -1.11906,0.25 -0.43602,0 -0.7861,-0.1793 -1.05858,-0.53125 -0.27252,-0.35194 -0.3932,-0.90703 -0.39318,-1.625 -2e-5,-0.28155 0.006,-0.62299 0.0605,-1.03125 0.0544,-0.42232 0.11327,-0.84483 0.18147,-1.28125 0.0818,-0.45048 0.16019,-0.85582 0.24195,-1.25 0.0818,-0.39417 0.1572,-0.72942 0.21172,-0.96875 l 2.7523,-13.5 h -2.20789 l -2.20789,1.03125 c -0.31339,-0.182988 -0.71634,-0.331045 -1.17955,-0.5 -0.44964,-0.182987 -0.93404,-0.3592 -1.45176,-0.5 -0.51777,-0.140754 -1.06101,-0.25926 -1.63325,-0.34375 -0.55863,-0.09852 -1.08824,-0.156226 -1.63322,-0.15625 z M 363.00236,89.25 c -0.79026,2.4e-5 -1.48743,0.11853 -2.0869,0.34375 -0.59952,0.225266 -1.16535,0.566709 -1.72396,1.03125 -0.54503,0.464586 -1.10788,1.046136 -1.69373,1.75 -0.57227,0.689827 -1.24681,1.494313 -1.99618,2.4375 l -2.02642,2.53125 c -0.69488,0.844676 -1.29696,1.429322 -1.8147,1.78125 -0.50414,0.351956 -0.94931,0.531263 -1.33079,0.53125 L 352.53757,89.625 h -9.89013 l -0.42343,2.3125 h 0.75613 c 0.79023,2.1e-5 1.35309,0.06701 1.69372,0.25 0.34062,0.18303 0.48391,0.579085 0.48391,1.15625 0,0.23934 -0.0225,0.583877 -0.0907,1.0625 -0.0545,0.47866 -0.14959,1.033754 -0.27221,1.625 l -3.41768,16.78125 h 6.26071 l 2.14741,-10.4375 c 0.42236,1e-5 0.80567,0.0577 1.11907,0.15625 0.31337,0.0986 0.58498,0.24042 0.81662,0.4375 0.24523,0.1971 0.458,0.4403 0.63514,0.75 0.19075,0.30972 0.35066,0.6886 0.51417,1.125 l 1.45176,3.75 c 0.35424,0.92913 0.72992,1.68999 1.17956,2.28125 0.46324,0.57719 1.05932,1.03714 1.75422,1.375 0.69485,0.32379 1.54593,0.54363 2.54059,0.65625 1.00822,0.1267 2.21538,0.1875 3.65963,0.1875 h 0.57466 l 0.48393,-2.28125 h -0.24196 c -0.47691,0 -0.90244,-0.0639 -1.2703,-0.21875 -0.36789,-0.15485 -0.69836,-0.37779 -0.99809,-0.6875 -0.29976,-0.32378 -0.58801,-0.72293 -0.84686,-1.1875 -0.2589,-0.47864 -0.5305,-1.03992 -0.8166,-1.6875 l -1.17957,-2.65625 c -0.58589,-1.35145 -1.37514,-2.39295 -2.32887,-3.125 -0.94014,-0.74611 -2.08545,-1.12499 -3.44794,-1.125 0.28611,-0.126686 0.57435,-0.254477 0.84687,-0.4375 0.27249,-0.182997 0.56071,-0.42001 0.84686,-0.6875 0.29973,-0.28154 0.61058,-0.619888 0.9376,-1 0.34061,-0.380083 0.69666,-0.840032 1.11906,-1.375 0.38149,-0.478625 0.78142,-0.938574 1.14932,-1.375 0.36786,-0.436391 0.7043,-0.801195 1.05857,-1.125 0.36786,-0.337846 0.73456,-0.598221 1.08882,-0.78125 0.36786,-0.197068 0.75118,-0.31248 1.11907,-0.3125 0.58586,2e-5 1.0114,0.1965 1.2703,0.5625 0.27247,0.366039 0.39316,0.991218 0.39319,1.90625 1.02184,1.7e-5 1.79446,-0.286814 2.29862,-0.90625 0.51772,-0.6194 0.78633,-1.458231 0.78637,-2.5 -4e-5,-0.365999 -0.0754,-0.724614 -0.21171,-1.0625 -0.12265,-0.35192 -0.33243,-0.652829 -0.60492,-0.90625 -0.25889,-0.267453 -0.58935,-0.470122 -0.99809,-0.625 -0.40877,-0.168909 -0.90977,-0.249976 -1.482,-0.25 z m 46.033,0 c -2.16639,2.4e-5 -3.97262,0.159064 -5.44411,0.46875 -1.45788,0.295654 -2.65307,0.735337 -3.53867,1.3125 -0.88564,0.563129 -1.49371,1.231937 -1.8752,2.0625 -0.3815,0.830603 -0.57466,1.787941 -0.57466,2.84375 0,0.957299 0.17654,1.79613 0.54441,2.5 0.36787,0.703898 0.85526,1.288544 1.48201,1.78125 0.64036,0.49273 1.39339,0.89188 2.23813,1.1875 0.84475,0.29564 1.72144,0.49831 2.66158,0.625 -0.28614,0.14079 -0.55776,0.33417 -0.81663,0.53125 -0.25888,0.18302 -0.51388,0.40905 -0.78636,0.71875 -0.25889,0.30972 -0.51389,0.69169 -0.78638,1.15625 -0.2725,0.46457 -0.56374,1.04303 -0.87711,1.71875 -0.27251,0.59127 -0.54412,1.08866 -0.81661,1.46875 -0.25888,0.36602 -0.54412,0.64976 -0.81662,0.875 -0.25887,0.21117 -0.53049,0.35304 -0.81662,0.4375 -0.2725,0.0704 -0.5305,0.125 -0.81661,0.125 -0.28614,0 -0.55475,-0.0608 -0.78637,-0.1875 -0.21801,-0.1267 -0.39455,-0.30291 -0.54442,-0.5 -0.13625,-0.19708 -0.25095,-0.41692 -0.33269,-0.65625 -0.0681,-0.23932 -0.12098,-0.46225 -0.12098,-0.6875 -0.34063,1e-5 -0.63785,0.078 -0.9376,0.21875 -0.29974,0.1267 -0.585,0.29503 -0.81661,0.5625 -0.23163,0.2534 -0.40817,0.57148 -0.54441,0.9375 -0.13625,0.36602 -0.21172,0.78544 -0.21172,1.25 0,0.91505 0.28823,1.67282 0.84685,2.25 0.55862,0.57719 1.3931,0.84375 2.51035,0.84375 0.77661,0 1.47379,-0.0842 2.0869,-0.28125 0.61313,-0.18301 1.17597,-0.48701 1.69373,-0.9375 0.51774,-0.45048 1.03537,-1.08355 1.51226,-1.84375 0.47686,-0.77427 0.94763,-1.72062 1.45176,-2.875 0.39511,-0.90097 0.75881,-1.65873 1.05858,-2.25 0.31337,-0.59125 0.62721,-1.0543 0.96784,-1.40625 0.35423,-0.35193 0.75717,-0.59204 1.17956,-0.71875 0.43598,-0.14077 0.96259,-0.21874 1.60299,-0.21875 h 0.99808 l -0.6049,2.9375 c -0.14989,0.67574 -0.26459,1.29782 -0.33268,1.875 -0.0681,0.56311 -0.0908,1.0636 -0.0908,1.5 -2e-5,0.57719 0.0648,1.13538 0.24196,1.65625 0.17711,0.52088 0.48197,0.998 0.87712,1.40625 0.40872,0.39418 0.91572,0.69818 1.54249,0.9375 0.64036,0.23932 1.43261,0.34375 2.35911,0.34375 0.76298,0 1.46014,-0.0811 2.08691,-0.25 0.64036,-0.16893 1.22282,-0.3747 1.75422,-0.65625 0.53135,-0.28155 0.99912,-0.61681 1.42151,-0.96875 0.42236,-0.36602 0.79205,-0.72773 1.11906,-1.09375 l -0.99808,-1.4375 c -0.47689,0.32379 -0.90244,0.54982 -1.27029,0.71875 -0.3679,0.16894 -0.77383,0.25 -1.2098,0.25 -0.46327,0 -0.79972,-0.16213 -1.05858,-0.5 -0.25889,-0.33786 -0.39321,-0.83525 -0.39319,-1.46875 -2e-5,-0.60534 0.0754,-1.25388 0.21172,-2 0.13623,-0.76019 0.24029,-1.47742 0.36294,-2.125 l 2.69182,-13.125 c -1.06277,-0.337842 -2.41487,-0.638751 -4.02259,-0.90625 -1.59415,-0.28153 -3.34155,-0.406226 -5.26265,-0.40625 z m -111.39257,0.375 -0.3932,2.3125 h 0.48392 c 0.39512,2.1e-5 0.75884,0.02338 1.05858,0.09375 0.29973,0.07041 0.57137,0.209183 0.81662,0.40625 0.24525,0.197108 0.46101,0.474655 0.66539,0.8125 0.21799,0.337884 0.44738,0.763489 0.6654,1.3125 l 2.87327,7.1875 -5.29288,6 c -0.51777,0.59127 -0.94929,1.07148 -1.33079,1.4375 -0.3815,0.36602 -0.73158,0.64667 -1.05857,0.84375 -0.31338,0.19709 -0.64086,0.33586 -0.96786,0.40625 -0.31336,0.0563 -0.66345,0.0625 -1.05856,0.0625 h -0.54441 l -0.42344,2.3125 h 5.11142 l 6.53294,-8.75 3.14548,8.75 h 8.10568 l 0.42343,-2.3125 h -0.5444 c -0.40878,0 -0.75886,-0.0405 -1.05859,-0.125 -0.29978,-0.0985 -0.57138,-0.2435 -0.81661,-0.46875 -0.24528,-0.23932 -0.49428,-0.57457 -0.72588,-0.96875 -0.21803,-0.39417 -0.46703,-0.89465 -0.7259,-1.5 l -3.0245,-7.25 4.2948,-5.15625 c 0.49049,-0.633478 0.91603,-1.137056 1.27029,-1.53125 0.36787,-0.408233 0.71495,-0.743487 1.02833,-0.96875 0.32698,-0.2393 0.65445,-0.384263 0.96785,-0.46875 0.32699,-0.08445 0.68005,-0.124979 1.08883,-0.125 h 0.75613 l 0.42343,-2.3125 h -5.11143 l -5.80705,8.21875 -2.93378,-8.21875 z m 110.99938,2.0625 c 1.23986,2.1e-5 2.28111,0.121623 3.085,0.375 l -1.63323,8 h -1.51226 c -0.57227,1e-5 -1.11549,-0.07796 -1.63323,-0.21875 -0.50414,-0.154842 -0.96592,-0.39495 -1.36103,-0.71875 -0.39513,-0.323773 -0.70598,-0.726016 -0.93759,-1.21875 -0.23164,-0.492704 -0.36296,-1.108599 -0.36295,-1.8125 -10e-6,-1.407751 0.39993,-2.475708 1.14931,-3.25 0.763,-0.774252 1.81622,-1.156229 3.20598,-1.15625 z M 231.89,91.96875 c 0.545,2.1e-5 1.06561,0.08418 1.54251,0.28125 0.49049,0.197108 0.84655,0.498017 1.11906,0.90625 l -1.45176,7.1875 c -0.23164,1.15438 -0.59535,2.31129 -1.05859,3.4375 -0.44962,1.12622 -0.94001,2.13028 -1.51225,3.03125 -0.57226,0.8869 -1.19095,1.60722 -1.84494,2.15625 -0.654,0.54903 -1.29233,0.8125 -1.90544,0.8125 -0.32701,0 -0.62123,-0.0467 -0.90734,-0.1875 -0.27252,-0.15485 -0.52152,-0.41213 -0.7259,-0.75 -0.19076,-0.35194 -0.3613,-0.81189 -0.48392,-1.375 -0.10903,-0.5631 -0.15124,-1.26316 -0.15122,-2.09375 -2e-5,-0.80242 0.0754,-1.68488 0.21172,-2.65625 0.13625,-0.97135 0.3324,-1.96922 0.6049,-2.96875 0.28612,-0.999502 0.61957,-1.945857 1.02833,-2.875 0.42236,-0.929111 0.90675,-1.767942 1.45177,-2.5 0.54499,-0.732021 1.17731,-1.313572 1.84494,-1.75 0.68124,-0.436388 1.42061,-0.656229 2.23813,-0.65625 z m 49.63216,0 c 0.54498,2.1e-5 1.03535,0.08418 1.51225,0.28125 0.49049,0.197108 0.87679,0.498017 1.14931,0.90625 l -1.482,7.1875 c -0.23166,1.15438 -0.5651,2.31129 -1.02833,3.4375 -0.44965,1.12622 -0.97026,2.13028 -1.5425,3.03125 -0.57226,0.8869 -1.19097,1.60722 -1.84495,2.15625 -0.65401,0.54903 -1.26209,0.8125 -1.8752,0.8125 -0.327,0 -0.65149,-0.0467 -0.9376,-0.1875 -0.27251,-0.15485 -0.49127,-0.41213 -0.69562,-0.75 -0.19077,-0.35194 -0.36131,-0.81189 -0.48394,-1.375 -0.10903,-0.5631 -0.15123,-1.26316 -0.15122,-2.09375 -10e-6,-0.80242 0.0452,-1.68488 0.18146,-2.65625 0.13626,-0.97135 0.36265,-1.96922 0.63516,-2.96875 0.28611,-0.999502 0.61958,-1.945857 1.02833,-2.875 0.42237,-0.929111 0.90676,-1.767942 1.45176,-2.5 0.54499,-0.732021 1.14707,-1.313572 1.81472,-1.75 0.68123,-0.436388 1.45085,-0.656229 2.26837,-0.65625 z m 99.71798,0 c 0.54498,2.1e-5 1.0656,0.08418 1.5425,0.28125 0.49048,0.197108 0.87681,0.498017 1.14932,0.90625 l -1.48202,7.1875 c -0.23163,1.15438 -0.56509,2.31129 -1.02833,3.4375 -0.44964,1.12622 -0.97026,2.13028 -1.5425,3.03125 -0.57225,0.8869 -1.19095,1.60722 -1.84494,2.15625 -0.65402,0.54903 -1.29234,0.8125 -1.90544,0.8125 -0.327,0 -0.62125,-0.0467 -0.90736,-0.1875 -0.2725,-0.15485 -0.5215,-0.41213 -0.72587,-0.75 -0.19077,-0.35194 -0.33106,-0.81189 -0.45368,-1.375 -0.10903,-0.5631 -0.18148,-1.26316 -0.18147,-2.09375 -10e-6,-0.80242 0.0754,-1.68488 0.21172,-2.65625 0.13624,-0.97135 0.33239,-1.96922 0.60489,-2.96875 0.28611,-0.999502 0.64983,-1.945857 1.05858,-2.875 0.42237,-0.929111 0.90676,-1.767942 1.45176,-2.5 0.54499,-0.732021 1.14706,-1.313572 1.8147,-1.75 0.68124,-0.436388 1.42063,-0.656229 2.23814,-0.65625 z"
     id="text3009"
     inkscape:connector-curvature="0" />
  <g
     id="g59"
     transform="matrix(1.3609673,0,0,1.3609673,-36.328478,17.149566)"
     style="fill-opacity:1;fill:#fcd20f">
    <path
       id="path35"
       d="m 71.978,57.956 c 95.443,-14.517 75.03,108.526 5.263,64.064 0.86,-1.179 0.302,-0.562 1.211,-1.774 l -3.9,-3.787 c -0.429,0.188 -1.113,0.609 -1.712,1.022 -0.81,-0.842 -2.142,-1.857 -2.897,-2.85 l -4.605,3.806 c 0.564,0.76 2.14,2.357 2.744,3.055 -3.108,2.617 -10.89,9.378 -12.017,11.01 -4.805,5.998 4.248,13.716 8.724,8.797 1.758,-1.39 6.491,-8.792 9.638,-13.374 8.022,8.436 18.95,14.326 33.652,14.059 3.289,-0.06 22.546,-0.847 34.86,-21.51 9.008,-15.119 6.416,-37.823 -9.724,-53.498 -17.53,-17.027 -43.743,-15.704 -61.237,-9.02 z"
       inkscape:connector-curvature="0"
       style="fill:#fcd20f;fill-opacity:1" />
    <path
       id="path37"
       d="m 94.345,84.279 12.08,-12.114 -3.992,-3.724 -15.822,-1.092 -22.633,21.14 12.727,12.616 10.89,-10.128 c 16.567,17.227 47.774,49.943 50.284,52.78 2.51,2.838 10.216,-3.871 7.648,-6.834 -2.568,-2.962 -39.732,-42.67 -51.182,-52.644 z"
       inkscape:connector-curvature="0"
       style="fill:#fcd20f;fill-opacity:1" />
  </g>
</svg>
