<?xml version="1.0" encoding="utf-8"?>
<!-- Generator: Adobe Illustrator 22.0.1, SVG Export Plug-In . SVG Version: 6.00 Build 0)  -->
<svg version="1.1" id="레이어_1" xmlns="http://www.w3.org/2000/svg" xmlns:xlink="http://www.w3.org/1999/xlink" x="0px"
	 y="0px" viewBox="0 0 800 400" style="enable-background:new 0 0 800 400;" xml:space="preserve">
<style type="text/css">
	.st0{fill:#42BCAC;}
	.st1{fill:#FFD731;}
</style>
<g>
	<rect class="st0" width="800" height="400"/>
	<rect x="18" y="18" width="764" height="364"/>
	<g>
		<path class="st1" d="M364.5,205.5c0-36.6,25.2-67.3,59.2-75.7c-6-1.5-12.3-2.3-18.8-2.3c-43.1,0-78.1,34.9-78.1,78.1
			c0,43.1,34.9,78.1,78.1,78.1c6.5,0,12.8-0.8,18.8-2.3C389.7,272.8,364.5,242.1,364.5,205.5z"/>
		<polygon class="st1" points="466.8,175.9 468.3,198 489.7,203.4 469.2,211.6 470.6,233.7 456.4,216.7 435.9,224.9 447.7,206.2 
			433.5,189.1 455,194.6 		"/>
	</g>
</g>
</svg>
