<svg xmlns="http://www.w3.org/2000/svg" width="1200" height="600"><title>Flag of Mauritius (1906–1923)</title><style><![CDATA[.e{fill-rule:evenodd}.f{stroke-miterlimit:4.4251}.g{stroke-width:.766}.h{stroke-linejoin:round}.i{fill:#fff}.j{fill:none}.k{stroke:#000}.l{stroke-width:.51}.m{stroke-width:1.021}.n{fill:#c8102e}.o{clip-path:url(#P)}.p{fill:#ffd600}.q{stroke-linecap:round}.r{stroke-width:.255}.s{stroke:#84a510}.t{fill:#006b29}.u{stroke-linejoin:bevel}.v{stroke-linecap:square}.w{stroke-miterlimit:80}]]></style><path d="M0 0h1200v600H0z" fill="#012169"/><g class="i"><circle cx="900" cy="300" r="150"/><path d="M953.04 285.22c-4.17.26-8.34 3.02-12.33 8.63v5.78c4.29-4.03 6.99-9.07 11.24-9.55 3.78-.43 6.92 3.99 8.11 5.94.49-1.99 1.62-3.96 4.19-5.69-3.56-3.43-7.22-5.23-10.88-5.12-.12.01-.22 0-.33.01z" class="e f g k"/></g><use href="#C" class="e p"/><g class="f k t e"><use href="#D" class="g"/><path d="M909.25 289.55c-3.31 2.53-5.5 4.83-4.23 7.58 2.03-1.63 4.02-4.16 4.23-7.58zm-7.58 2.97c2.24-2.06 4.22-2.09 7.57-2.98-3.44-2.22-8.27-1.04-7.57 2.98zm7.58-2.97c2.43-4.68-1.39-9.68-2.9-7.09 1.7 1.36.91 5.41 2.9 7.09zm8.77 1.25c.19-2.17-4.18-4.33-8.78-1.25 4.38-.31 6.14 1.13 8.78 1.25zm-2.15 5.31c-2.3-3.51-1.06-6.83-6.63-6.56.71 1.65 3.52 4.24 6.63 6.56z" class="l"/><use href="#D" x="20.61" class="g"/><path d="M929.85 289.55c-3.31 2.53-5.5 4.83-4.23 7.58 2.04-1.63 4.02-4.16 4.23-7.58zm-7.57 2.97c2.24-2.06 4.22-2.09 7.57-2.98-3.44-2.22-8.27-1.04-7.57 2.98zm7.57-2.97c2.43-4.68-1.39-9.68-2.9-7.09 1.71 1.36.92 5.41 2.9 7.09zm8.78 1.25c.19-2.17-4.18-4.33-8.78-1.25 4.38-.31 6.14 1.13 8.78 1.25zm-2.15 5.31c-2.3-3.51-1.06-6.83-6.63-6.56.71 1.65 3.52 4.24 6.63 6.56z" class="l"/><use href="#D" x="9.79" y="18.71" class="g"/><path d="M919.03 308.26c-3.31 2.53-5.5 4.83-4.23 7.58 2.04-1.63 4.02-4.16 4.23-7.58zm-7.57 2.97c2.24-2.06 4.22-2.09 7.57-2.98-3.44-2.22-8.27-1.04-7.57 2.98zm7.57-2.97c2.43-4.68-1.39-9.68-2.9-7.09 1.71 1.36.92 5.41 2.9 7.09zm8.78 1.25c.19-2.17-4.18-4.33-8.78-1.25 4.38-.31 6.14 1.13 8.78 1.25zm-2.15 5.31c-2.3-3.51-1.06-6.83-6.63-6.56.71 1.66 3.52 4.24 6.63 6.56z" class="l"/></g><use href="#C" x="-41.74" fill="#2163c6" class="e"/><g class="f k p e"><g class="l"><path d="M880.02 285.71c-.37 0-.4-4.24 0-4.24h3.24c.94 0 1.57.44 1.98 1.24.37.73.54.96.54 2.12 0 1.18.35 1.37.54 2.12.03.11 2.23.35 2.52.35.83 0 1.43-.61 1.98-.88.74-.36 1.15-.64 2.16-.88a5 5 0 0 1 2.52 0c.56.14 1.31 1.52 1.44 1.77.3.59-.09 2.11-.18 2.48-.18.72-.48-1.5-1.08-1.94-1.09-.8-2.11.42-2.34.88-.65 1.27-2.85-1.18-2.88-1.24-.35-.7-.18-1.82-.18-2.65 0-1.05-.82-1.04-1.62-1.24-.88-.22-2.82.47-3.78.71-1.06.26-2.53 1.15-3.6 1.41-.34.07-.89-.01-1.26-.01z"/><path d="M879.14 281.11V288h1.03v-6.89h-1.03z"/></g><path d="M879.37 287.37h.79c1.03 0 1.87.82 1.87 1.84v7.92c0 1.02-.84 1.84-1.87 1.84h-.79c-1.04 0-1.87-.82-1.87-1.84v-7.92c0-1.01.84-1.84 1.87-1.84z" class="g h"/><path d="M875.76 300.86l-6.67 13.97.93.44 6.67-13.97-.93-.44z" class="r"/><path d="M878.54 298.58h2.62v20.2h-2.62z" class="g h"/><path d="M872.54,319.46l-4.46,4.47" class="m"/><path d="M876.27 300.86l-1.64 16.78 1.03.09 1.61-16.78-1-.09zm5.86-2.34l-1 .16 3.22 18.74 1.03-.16-3.25-18.74zm1.26-.22l-1 .25 4.86 17.35 1-.28-4.86-17.32z" class="r"/><path d="M861.85 311.52c5.85 15.1 7.76 15.84 17.32 15.84s11.5-.74 17.36-15.84h-7.57c-.81 3.32-3.06 6.07-9.79 6.07s-8.98-2.75-9.79-6.07h-7.53z" class="l"/><path d="M872.54,319.46l-4.64,4.66" class="m"/><use href="#E" class="h l"/><use href="#F" class="m"/><use href="#E" x="4.63" class="h l"/><use href="#F" x="4.64" class="m"/><use href="#E" x="9.27" class="h l"/><use href="#F" x="9.28" class="m"/><use href="#E" x="13.91" class="h l"/><g class="g"><use href="#G"/><use href="#G" x="24.73"/></g><g class="l"><path d="M861.27 307.57h9.56v4.02h-9.56zm26.28 0h9.56v4.02h-9.56zm-27.31-25.77c2.04 2.38 3.33 5.74 6.63 6.48l.42.22c.03 0 .07.03.1.03 3.54.53 7.68 2.8 12.04 5.75 6.14 2.51 8.65 4.43 12.2 6.51a2.88 2.88 0 0 1-.45.19l.26.16 7.34 1.52c-4.9-3.5-9.47-7.02-17.97-10.08 0 0-5.83-2.36-10.66-5.5-2.99-1.94-6.33-3.77-9.91-5.28h0z"/><path d="M866.86 288.47c3.65.37 7.98 2.72 12.56 5.82 6.14 2.51 8.66 4.42 12.21 6.51-2.76 1.44-5.08-1.53-5.76-.51-1.28 1.92-4.6-1.13-5.41-.34-4.41 4.31-7.07 2.06-9.59-2.57-4.75-2.98-4.22-5.94-4.01-8.91z"/></g></g><path d="M857.24 328.96v11.88c4.55 21.48 20.76 34.43 41.73 42.48v-54.37h-41.73z" class="e p"/><path d="M880.98 330.83c-.88.21-1.55 1.03-1.55 1.96 0 .36.09.69.26.98-2.67.64-4.79 2.72-5.44 5.34-.29-.17-.63-.25-1-.25-1.11 0-2 .87-2 1.96s.89 1.99 2 1.99c.36 0 .7-.09 1-.25.57 2.3 2.27 4.16 4.48 5.03a3.46 3.46 0 0 0-.84 2.28 3.49 3.49 0 0 0 1.38 2.78v16.53h4.35v-4.61h.13 1.58v2.15.89h.9 4.15.9v-.89-2.15h2.22v2.15.89h1.8v-.89-3.03-.89h-.9-4.03-.9v.89 2.15h-2.35v-2.15-.89h-.9-2.48-.13v-2.28h.13 2.48.9v-.89-2.15h2.35v2.15.89h.9 4.03.9v-.89-3.03-.89h-1.8v.89 2.15h-2.22v-2.15-.89h-.9-4.15-.9v.89 2.15h-1.58-.13v-6.13c.83-.64 1.38-1.64 1.38-2.75a3.48 3.48 0 0 0-.84-2.28c2.21-.86 3.9-2.73 4.48-5.03a1.97 1.97 0 0 0 .97.25c1.11 0 2.03-.9 2.03-1.99s-.92-1.96-2.03-1.96a2 2 0 0 0-.97.25c-.65-2.63-2.77-4.7-5.44-5.34.16-.28.26-.63.26-.98 0-1.09-.92-1.96-2.03-1.96h-.13-.06-.06-.03-.06-.03-.03-.05 0zm-1.07 4.99H883v3.51h3.54v3H883v3.51h-3.09v-3.51h-3.54v-3h3.54v-3.51z" class="e f h k l n"/><path d="M898.98 328.96v54.37c20.97-8.05 37.18-21 41.73-42.48v-11.88h-41.73z" fill="#2163c6" class="e"/><path d="M918.27 331.59l2.22 6.71h7.19l-5.82 4.15 2.22 6.71-5.82-4.15-5.82 4.15 2.22-6.71-5.82-4.15h7.19l2.24-6.71zm-.04 16.81L901 382.54c12.22-4.95 22.71-11.67 30.01-20.89l-12.78-13.25z" class="i e"/><g class="f k"><path d="M857.24 278.64v50.32 11.88c4.55 21.48 20.76 34.43 41.73 42.48 20.97-8.05 37.18-21 41.73-42.48v-11.88-50.32h-41.73-41.73 0z" class="h j m"/><g class="g"><path d="M838.014 331.709c13.24.5 19.03-7.35 17.68-23.21v-.48c0-.29.58-.85.78-1.05.29-.29.58-.67.88-.96.21-.21 1.24-.83.59-.19-.28.28-.44 1.29-.49 1.53-.12.59 0 1.32 0 1.92 0 .68-.04 1.36.1 2.01.08.41.77.85.98 1.25.35.68.39.99.39 1.73 0 .53-.29.63-.29 1.25 0 .65-.67 1.26-.78 1.82-.14.69-.38 1.11-.2 1.82.12.46.11.92.2 1.25.12.48.2.76.2 1.34 0 .7-.1.96-.39 1.53-.24.48-.45.78-.68 1.25-.28.54-.08 1.49.1 1.92.17.42.05.82.49 1.25.27.27.49.88.59 1.25.13.5-.09 1.11-.2 1.53-.18.71-.1 1.17-.1 1.82 0 .67.2 1.46.2 2.21 0 .81.1 1.5.1 2.4 0 .69.2 1.31.2 2.11 0 .49-.29 1.05-.29 1.63a6.33 6.33 0 0 1-.2 1.44c-.1.4-1.18.17-1.47.1-.38-.09-.5-.8-.59-1.15-.14-.55-.15-.98-.29-1.53-.13-.5 0-1.2 0-1.73v-1.53-1.73-1.53-1.25c-3.81 3.24-9.35 4.87-17.59 4.03l.08-4.05h0z" class="e i"/><path d="M839.184 331.809v3.74m2.15-3.64v3.55m8.11-6.33v5.56m3.42-8.44v7m3.32-20.81h2.05m-2.25 3.07h2.15m-2.63 4.12h2.05m-2.84 3.07h3.13m-1.66 10.17h1.66m-1.86 3.06h2.15m-1.46-10.64l-3.91.77" class="h j q"/><g class="e"><path d="M830.904 272.069l-1.77 3.67 3.96 1.93-3.12 6.51-3.96-1.93-3.12 6.48 3.99 1.93-3.09 6.38-3.96-1.93-3.09 6.45 3.96 1.93-2.93 6.1-3.96-1.93-3.12 6.48 3.99 1.93-3.12 6.51-3.96-1.93-3.09 6.45 3.96 1.9-3.09 6.45-3.96-1.93-3.09 6.45 3.96 1.93-2.8 5.88-3.99-1.93-1.16 2.4c.11.03.21.04.32.06.44.11 1.01 1.23 1.19 1.55.17.3.23.9.39 1.2.18.35.54.79.81 1.17.22.33.32.66.61.95.52.51.55.15 1-.28.38-.37.58-1.12.58-1.64v-1.49c0-.28.32.84.42 1.07.02.06 1.05.47 1.19.51.38.09.69.71.87.89.43.42.09.82.61 1.07.03.02.1-1.6.1-1.77 0-.55.07-1.56.1-1.68.13-.51.57.92.8 1.39.23.45.83.65 1.09 1.17.16.32.51.57.9.66.75.18.87-.11.87-.76 0-.95.21-.54.32.09.11.67.12.69.48 1.17.3.39.22.81.29 1.07.12.48 0 1.08-.19 1.45-.21.42-.25.66-.68 1.07-.25.24-.23.38-.23.7l.32.06a8.06 8.06 0 0 0 1.32.13h1.16c.56 0 .73-.09 1.16-.35.27-.16.36-.64.52-.79.24-.24.16-.6.35-.79l.58-.63c.37-.36.74-.63 1.32-.63.51 0 .98.03 1.45.13.38.07.84 0 1.22 0 .21 0 .61.25.8.35.48.23-.18-.22-.35-.57-.23-.45-.25-.62-.35-1.14-.08-.4-.1-.77-.29-1.14-.24-.47.22-.94.42-1.14.31-.31.51-.49.74-.79.24-.32.29-.63.58-.92.17-.17.31-.82.35-1.01.13-.65.28-1 .64-1.42.23-.26.32-.66.45-.92.18-.35.05-1.02 0-1.36-.07-.49-.3-.64.13-.95a1.98 1.98 0 0 0 .74-.85c.16-.31.16-.6.16-.98 0-.45-.11-.84.19-1.14.33-.32.47-.23.58-.66.12-.48-.03-.97-.13-1.36-.07-.28.53-.7.64-.85.38-.5.66-.51 1.32-.51.73 0 .82.08 1.32.44.29.22.5.3.93.41.39.1.81.46 1.16.66.4.23.77.68 1.22.79.37.09.72.06 1.09.06.39 0 .85-.44 1.26-.44.37 0 .97-.61 1.16-.85.27-.35.45-.76.64-1.14.15-.3.63-.59 1.03-.79 1.21-.59-.06.03.52-.13.11.42.93.05 1.29.32.29.21.44.31.68.54.17.16.25.52.35.73.2.39.17.72.26 1.17.06.32.15.54.1.76-.02.07.39.54.48.63.22.22.56.26.71.41.19.18.61.32.87.38.32.08.47.19.97.19.54 0 1.14.18.52-.19a1.11 1.11 0 0 1-.52-.7c-.11-.42-.2-.57-.13-1.01.05-.32.1-.48.35-.6.38-.19.49-.46.35-.73-.17-.33-.49-.13-.35-.66.08-.3-.29-.32-.48-.51-.08-.08 1.05-.25.19-.76-.59-.35-.17-.31.23-.7.43-.42-.12-.15-.48-.51-.24-.24-.39-.32-.58-.57-.16-.21.81-.6.93-.63.09-.02-1.21-.43-.29-1.11.66-.48-.08-.75-.35-1.11-.07-.09-.1-.19-.16-.28-.38-.62.09-.62.58-.98.07-.05-.19-.79-.23-.92-.11-.44.28-.66.58-.89 0 0-.35-.51 0-.85.32-.32.54-.44.64-.85.07-.27 0-.67 0-.95 0-.33-.03-.72-.06-.85-.01-.03-.86 0-.93 0-.44 0-.86.03-1.22-.06-.25-.06-.63.15-.71.54 0-4.6 1.27-6.35-7.5-6.35 0 0 6.66-5.93 6.54-10.46-.1-3.64-1.22-3.06-1.22-6.92 0-4.8 4.53-6.66 4.54-14.73 0-9.37-3.9-13.72-7.58-15.37h0z" class="i"/><g class="n"><path d="M782.664 328.219c-.34-.49-.58-.88-1.33-1.03-.41-.08-1.12-.71-1.42-.93-.59-.43-1.83.03-2.47-.09-1.16-.23-2.36-.27-3.13.19l-.47.28c-.12.07-.25.12-.38.19-.73.36-1.1.89-1.61 1.4-.61.6-1.02 1.63-1.42 2.42-.45.89-.66 1.41-.66 2.42 0 .68 1.11-.87 1.42-1.12.47-.37 2.43-.09 2.94-.09.62 0 .16 1.18 0 1.49-.33.64-.75.91-1.04 1.49l-.19.37c-.31.6-.41 1.54-.66 2.05-.37.74-1.08.96-1.61 1.49-.59.58-.75 1.47-1.14 2.24-.34.67-.42 1.69-.57 2.42-.14.69-.03 1.11.09 1.59.16.64 1.31-1.04 1.52-1.31.32-.42.32-.97.66-1.31.77-.76.95.29.95 1.03v2.52 1.86c0 1.67.9-.09 1.33-.65.57-.75.95 1.04.95 1.31 0 .41.56 1.48.85 1.77.6.59 1.14.18 1.33-.56.06-.24 1.62-.19 1.9-.19.77 0 1.51-.49 2.18-.65.27-.07 1.45-1.44.57-.28-.17.22-1.78.64-1.99.75-.72.35-.77 1-1.04 1.68-.26.63 1.56 1.27 1.9 1.49.61.4 1.88.19 2.56.09.88-.12 1.96-.62 2.75-.93.58-.23.95-.8 1.52-1.21.83-.61 1.14-1.5 1.33-2.42.15-.74-1.44.56-2.18.75-1.28.32-1.69-.18-1.9-1.21-.22-1.09-.17-1.53-1.14-2.24-.91-.67-1.41-1.37-1.23-2.05.03-.14 1.53.37 2.66 0 1.03-.34 2.13-1.32 2.75-2.14.38-.5.24-1.48 0-1.96-.38-.74-.47-1.87-.47-2.7 0-1.37.37-2.38.1-3.73-.26-1.3-1.91-3.36-2.56-4.48-.45-.72-1.22-.35-1.65-.01h0z"/><path d="M815.544 240.619c-6.82.24-14.74 4.47-16 12.49l-.77 1.26c-.22.36-.52.67-.77 1.01-.75.98-1.05 2.56-1.55 3.54-.54 1.06-1.51 2.6.26 3.03 1.38.34 1.23 1.52 1.55 2.78.34 1.34 1.81 3.65 2.06 2.53.06-.28 1.76-.49 2.58.51.41.5.26 2 2.32.51.35-.26.57 1.68 2.06 1.01.6-.27.39.77.52 1.01 3.37 4.33 6.12 7.76 6.18 10.11.1 3.97-4.52 4.3-8.24 5.31-28.55 7.77-24.97 37.97-23.96 41.98 1.96 7.76 4.89 6.2 6.38 11.85 1.15 4.36-.82 5.01 6.12 8.66.02.01.04.03.06.03l1.16-2.4 3.99 1.93 2.8-5.88-3.96-1.93 3.09-6.45 3.96 1.93 3.09-6.45-3.96-1.9 3.09-6.45 3.96 1.93 3.12-6.51-3.99-1.93 3.12-6.48 3.96 1.93 2.93-6.1-3.96-1.93 3.09-6.45 3.96 1.93 3.09-6.38-3.99-1.93 3.12-6.48 3.96 1.93 3.12-6.51-3.96-1.93 1.77-3.67c-1.25-.56-2.47-.82-3.51-.85-8.85-.26-10.81-6.83-11.04-10.4 3.8 1.19 7.24 3.77 10.59 4.08 2.79.26 5.77 4.79 9.18 6.16 1.33-1.11 10.18-14.73-11.08-18.96 3.06-7.97-2.68-11.71-9.5-11.47z"/></g></g><g class="j"><path d="M811.404 254.619c2.86 6.59 14.61 1.97 18.09 7.99 4.48.97 6.43 3.53 5.61 7.81"/><path d="M829.954 262.789v3.55"/><path d="M828.684 257.899c.25.06 1.09-.41 1.09.27 0 .11.27.77.27 1.15 0 .35.1.37.18.53m2.71-3.01v4.35" class="h q"/></g><path d="M815.574 251.779c1.6 2.37 4.13 2.78 7.42 1.6-2.34-3.52-4.85-3.27-7.42-1.6z" class="e i"/></g></g><path d="M820.364 252.219c0 1.23-.57 2.22-1.27 2.22s-1.27-.99-1.27-2.22.57-2.22 1.27-2.22 1.27.99 1.27 2.22z" class="e"/><g class="k f"><path d="M826.194 296.179c-.2.38-.37 1.39-.37 2.16 0 .57 1.78-.12 2.08-.12.86 0 .49.61.98 1.08.55.54 1.63.4 2.2.12.2-.1.88-.22.98-.24m-24.68 5.16c.03.4 0 1.55-.12 2.28-.15.9 1.24 1.15 1.83 1.32m-9.65 9.34c0 .01-3.49 2.28-3.79 2.64-.45.55-.49 1.47-.49 2.16 0 .19 1.14.92 1.47 1.08 1.15.57 2.26.84 3.79.84.5 0 1.15-.13 1.59-.24m1.34-23.38c-.44.18-.9.67-1.1 1.44-.14.56-.24 1.03-.24 1.68 0 .67.12 1.16.12 1.92 0 .63.01 1.35.12 1.8.17.67 1.17.74 1.47 1.32.34.67-1.14 1.16-1.47 1.32-.86.42-.78.94-1.1 1.56-.27.53.22 1.4.37 1.68.24.47.31.66.73 1.08.39.39 1.8.24 2.44.24l2.81.12m-8.43 11.85c-.9.04-1.68.19-2.2 1.2l-.73 1.44m-5.49 4.55c-.64 1.26.25 1.29-1.34 1.92-.05.02-.08.08-.12.12-.17.17-.49 0-.73 0m19.9-40.52c-.76.74.51 1.94.85 2.28.51.5 1.57 1.32 2.32 1.32.54 0 1.75.94 2.32 1.08.9.22 1.92.74 2.81.96 1 .25 1.97.12 2.93.36l.49.12c.75.18 1.23.69 1.71 1.32.67.88.74.74.98 1.92.16.78.61 1.44.61 2.28 0 .9.24 1.5.24 2.4 0 .78.47 1.01.61 1.68.12.6.37.98.37 1.56v2.04 2.28l.12 2.52c0 .8-.24 1.26-.24 2.16 0 1.21-.69 2.12-.98 3.24-.22.86-1.02 1.4-1.34 2.04-.44.87-.97 1.47-1.83.84-.48-.35-.41-.92-.61-1.32-.07-.13-.53 1.4-.61 1.8-.24 1.18-.85 1.48-.85 2.76 0 1.59-.83 1.73-2.08 2.04l-.98-2.4c-.12-.48-.41 1.25-.85 1.8-.98 1.2-.69 1.98-2.81 2.4-1.63.32-1.89-.14-1.59-1.32.33-1.3.7-1.16-1.1.6-.64.63-2.19 1.57-2.69.6-.32-.62-1.13.6-2.2.6l-3.91.12c-1.26 0-2.11-.52-3.66.24-.41.2-1.04.4-1.34.48m25.27 2.88c.09-.73-.13-.93-.9-1.12-1.17-.29-2.56.7-3.34 1.36-.49.41-.78 1.34-1.22 1.92l-.41.56c-.51.7-.71 1.32-1.06 2-.13.26-.09.83-.16 1.12m5.14.07c-.33.65-1.49-.02-2.2.16-.65.16-1.02.44-1.63.8-.49.29-.75 1.07-.98 1.52-.27.53-.41 1.09-.41 1.68m-37.81-18.02c-.09-.87-.27-1.06.09-1.77.11-.22 1.47-.19 1.71-.19h.47m.3 2.98c.38 0 .13-.86.47-1.03.65-.32.37-.9 1.14-1.03a6.12 6.12 0 0 1 2.18.09c.33.08.18.23.28.37m-4.26 6.64c.87.21.41-1.8 1.04-2.42.53-.52.77-1.19 1.61-1.4.86-.21 1.51-.02 2.28.28.13.05.25.12.38.19.36.18.89 1.21.95 1.49.22 1.09.6 1.63 1.42 2.24m-7.02 2.23c.21.15 2.4-.46 2.94-.28.41.14.35.37.85.37m-7.97-.28c.53.17.03 1.25.47 1.59.54.4 1.06.64 1.42 1.12.26.34.23.18.47.37m-3.02.65c.15.19 1.23.34 1.61.84.42.55.24 1.22.47 1.68.43.85 2.74.38 3.42.65.62.24-.71.9-.85.93" class="g h j q"/><g class="e"><g class="m"><path d="M948.014 390.559c-8.46 6.98-21.23 9.65-26.81 12.76.34-3.22 6.76-11.29 13.11-14.71 28.45-15.34 23.99-36.16 16.74-41.83 10.82 0 16.44 27.71-3.04 43.78z" class="n"/><path d="M1003.894 394.459l7.21-9.36c-3.75 1.12-22.7 1.47-34.52-1.76-11.86-3.23-30.4-11.5-30.4-23.43 0-1.46-1.5-9.61 4.86-13.13-12.88 0-12.09 33.01 14.74 43.53 9.1 3.56 22.96 4.15 38.11 4.15h0z" fill="#ffd631" class="u"/></g><g class="g"><path d="M980.654 260.419c.02-3.34-1.31-5.45-4.02-7.22-5.8-3.78-2.7-5.09-1.49-6.54.11 7.95 5.93 5.43 4.02-1.92-.98-3.76-.45-6.6.69-9.36 1.1 3.36-.66 8.65 3.45 5.53 1.33-1.01 2.42-2.45 1.62-4.43-1.43-3.55.43-4.54 2.17-5.94-1.22 3.85-.52 5.34.69 6.2 3.09-2.86 4.99-6.03 5.05-10.38 3.83 9.61 10.53 5.5 8.39-4.96 2.9 6.74 2.38 7.6 4.37 5.41 2.43-2.68 1.63-6.19.34-9.47 1.36 1.58 3.09 4.23 2.64 5.75-.69 2.32-.32 3.14-3.91 6.65-2.88 2.82-.96 2.58-7.7 4.29-5.61 1.42-13.85 10.58-15.39 12.63-1.62 2.16-.92 13.76-.92 13.76z" class="n"/><path d="M1009.684 362.909l-1.29-2.69-3.16 1.52c.05 1.19-.01 2.91-.29 5.12-.55 4.42-2.19 10.65-2.19 10.65s.02 2.97 1.38 2.94c4.27-.11 4.66-1.44 3.99-4.43 1.5-.52 1-3.77 1.03-6.61.04-2.4-.25-5.09.53-6.5z" class="i"/><g class="n"><path d="M983.234 259.819l-2.73.35c-.28-14.64 7.4-26.77 23.23-36.76-24.1 20.83-19.61 35.35-20.5 36.41h0z"/><path d="M979.184 261.719c6.24-4.87 8.4-5.74 8.48-11.95.03-2.59 1.18-2.02 1.99-2.69-.6 9.76 1.38 7.24 3.83 2.97 1.41-2.46.89-5.66 4.32-6.71-5.76 14.89 5.09 1.64 4.02-1.97.71 2.13 2.24-1.56 3.13-1.21 1.49.58 2.51 3.44 4.6-2.01-.25 1.81.77 1.37 1.91.73-4.2 5.3-2.28 4.6-2.01 5.51 3.45-2.36 10.27-3.42 7.3-17.97 3.03 7.18 5 8.7 4.66-2.08 2.3 3.75 3.58 5.98-1.06 10.49-3.09 3.01-2.14 6.3-5.61 9.04-3.1 2.45-6.57 3.57-10.9 4.16l-8.89 4.99-6.14 3.43c-3.31 7.2-6.57 4.68-9.63 5.27h0z"/></g></g></g></g><g transform="matrix(-1 0 0 1 358.2067 -16.981)" class="f g s"><path d="M-594.84 387.13v-89.99h2.99l1.15 90.44-4.14-.45z" class="e p"/><g class="j"><path d="M-594.83 307.34h3.05m-3.05 8.09h3.05m-3.05 8.6h3.05m-3.05 9.61h3.05m-3.05 11.12h3.05"/><path d="M-594.37 352.85h2.72m-2.66 8.09h3.05m-3.05 7.08h3.05m-3.05 8.1h3.05m-3.05 8.09h3.05" class="v"/></g></g><g class="k"><g class="f"><path d="M966.594 296.529c.1-1.79.8-3.75 4.15-6.48m-4.15 6.48l-.03 1.11c.51 5.85-4.57 6.83-6.89 9.7-3.53.62-4.67 1.51-5.64 2.75-1.57 2.01-3.32 3.47-4.51 5.4l-6.34 10.05v2.4c-2.8 2.3-3.34 4.23-4.28 6.23 0 0-.53.64.35 1.3.89.66 1.26 2.62 3.19 1.36 3.54-2.33 4.13-4.07 5.02-5.66v-2.4h1.93v-5.5s2.92-5.95 7.47-7.9c1.89-.81 2.96-.68 4.64-1.2 1.97-.61 4.38-1.8 4.38-1.8s1.29-1.73 4.06-2.37m6.22-3.67s-1.94 3.2-4.93 3.38c-.51.03-.86.19-1.29.28m-4.06 2.38c2.43 2.7 4.73 5.19 9.92 7.24 2.58 1.02 10.72 2.64 10.72 17.95 0 5.85 2.75 10.5 15.81 20.26l-.74-1.55 3.96-1.93-3.09-6.45-3.96 1.93-3.09-6.45 3.96-1.9-3.09-6.45-3.96 1.93-3.12-6.51 3.99-1.9-3.12-6.51-3.96 1.93-2.93-6.1 3.96-1.9-3.09-6.48-3.99 1.93-3.06-6.38 3.99-1.93-3.12-6.48-3.96 1.93-3.12-6.51 3.96-1.9-2.13-4.43c-2.98 1.55-3.67 2.32-5.12 2.91-7.96 3.24-7.82 8.27-7.82 12.11v6.61" class="e g i"/><g class="j"><path d="M941.474 333.699c.55-.27-.24 1.19-.24 1.8 0 .09-.57.88-.61.96" class="m q"/><path d="M941.844 329.509c.38.82.82.77 1.59.96.62.15.63.44 1.47.24.46-.11.93-.79 1.22-1.08.33-.33.75-.67 1.1-.84m60.79 47.28c-.33.13-1.38.62-1.98.92-.74.36-1.38.41-2.18.41h-1.04" class="g"/></g><g class="e n g"><path d="M989.394 255.729c-2.28-.27.48 4.22-10.4 6.35-5.67 1.11-7.01 3.31-10.45 3.57-1.83.13-3.52 1.69-6.58 2.69-1.19.19-2.71 7.68 2.54 7.68 3.59 0 4.31-.99 5.67-.63 4.97 1.31 8.39 2.54 8.24 4.43-.11 1.4-1.39 3.64-5.7 5.85-.06.03-.04.03-.1.06l2.13 4.43-3.96 1.9 3.12 6.51 3.96-1.93 3.12 6.48-3.99 1.93 3.06 6.38 3.99-1.93 3.09 6.48-3.96 1.9 2.93 6.1 3.96-1.93 3.12 6.51-3.99 1.9 3.12 6.51 3.96-1.93 3.09 6.45-3.96 1.9 3.09 6.45 3.96-1.93 3.09 6.45-3.96 1.93.74 1.55c.96.72 1.53 1.25 2.61 2.02.07.05.24.71.29 1.9l3.16-1.52 1.29 2.69c.19-.35.39-.66.74-.82 1.54-.7 1.61-5.57-1.35-8.19-3.61-3.18-6.96-7.18-3.96-12.11 2.77-4.55.93-7.95 2.16-11.38 3.67-.36 5.57-2.27 5.38-7.33-.08-3.28-1.98-4.55-3.41-7.14-1.36-2.46.35-3.7.35-3.7-2.72 1.18-5.02 3.78-2 8.47 3.09 4.8 2.68 6.44-.42 7.3-1.67-8.2-4.22-9.76-7.95-12.96-8.44-7.25-10.34-11.17-10.34-18.59 0-6.18 4.25-13.54 4.31-20.1.08-8.05-1.82-10.53-3.22-14.41l-.57-6.24z"/><path d="M984.884 265.009c1.11.08 1.62-.38 2.17-.91.43-.42 1.44-.77 2.01-.91.66-.16 1.41-.15 2.17-.15 1.13 0 1.68.15 2.78.15.87 0 1.6.35 2.32 0 .77-.38 1.38-.75 1.7-1.06.55-.54.04 1.59-.31 2.28-.42.82-.73 1.48-1.39 2.13-.86.85-2.34 1.83-4.95 2.13-.82.09-2.01.46-2.94.46-.46 0-.49.08-.93.15"/></g><path d="M986.744 266.069h2.78c1.02 0 .74-1.52 2.32-1.52.9 0 1.82-.01 2.63.15.74.14-1.44.43-2.17.61-.86.21-1.71 1.07-2.32 1.37-.9.44-2.56-.21-3.24-.61z" class="g j"/><g class="e"><path d="M984.434 264.799l-2.18-2.27c5.63-3.72 21.94-8.1 30.83-45.65-1.01 22.05-9.8 37.34-28.65 47.92z" class="g n"/><path d="M981.374 276.559c-.11.02-.21.08-.29.16-.1.1-.13.1-.06.06s.1 0-.03 0c-.43 0-1.21-.17-1.9 0l-1.22.28-.64.13c-.04.01-.05.03-.13.06-.04.02-.09.03-.19.16-.02.03-.06.13-.06.13l-.06.22.06.19.13.16a.33.33 0 0 0 .06.06l.1.03c.04.02.04.03.06.03.04.01.07 0 .1 0h.03c.04 0 .5-.11.74-.16.52-.09.89-.22 1.29-.32.3-.07 1.04.03 1.64.03.18 0 .33 0 .52-.09.18-.09.26-.19.32-.25.19-.15.25-.41.14-.62s-.37-.32-.61-.26h0 0zm-16.64-3.34c-.34 0-.61.13-.89.28-.27.15-.53.33-.72.54-.28.31-.03.57-.6.57a.44.44 0 0 0-.4.25.57.57 0 0 0 0 .51.45.45 0 0 0 .4.25c.8 0 .85-.43 1.26-.88.05-.05.25-.2.46-.32a2.25 2.25 0 0 1 .49-.19c1.09 0 2.15-.35 3.18-.21.26.04.6.17.97.25.17.07.35.02.48-.12a.56.56 0 0 0 .11-.53c-.06-.18-.21-.31-.38-.33-.26-.06-.64-.2-1.06-.25-1.12-.15-2.22.18-3.3.18h0z" stroke-width=".383" class="h i"/></g></g><path d="M964.264 270.439c0 .45-.81.81-1.8.81s-1.8-.36-1.8-.81.81-.81 1.8-.81 1.8.36 1.8.81z" stroke-width="1.153" class="e h i"/><path d="M973.834 267.169c2.28-1.43 4.63-1.6 7.07 0-3.5 1.84-5.32.98-7.07 0z" stroke-width=".574" class="e f i u"/></g><path d="M977.744 267.119c0 .83-.47 1.5-1.05 1.5s-1.05-.67-1.05-1.5.47-1.5 1.05-1.5 1.05.67 1.05 1.5z" class="e"/><g class="k f"><g class="g"><path d="M984.304 326.339c-14.07 6.31-8.33 10.5-6.41 17.01 1.62 5.5 2.51 7.84 1.71 9.26-.7 1.19-2.63 1.79-6.38 3.13-10.38 3.72-9.56 7.95-12.59 12.23l6.18.13v-4.05h3.38s2.35-5.26 7.25-6.29c4.69-.99 9.04-3.69 8.92-5.34-.34-4.7-2.7-4.76.55-11.51v-.03a14.22 14.22 0 0 1-.39-3.32c0-5.1-.91-8.67-2.22-11.22h0z" class="e i"/><path d="M966.524 364.059a7.96 7.96 0 0 1-1.95-.11c-.31-.08-.9-.87-1.03-1.13" class="j"/><path d="M799.084 375.169c1.46-4 1.07-8.2 11.15-11.23l-.87-10.47c-1.16-3.1 4.24-3.6 4.27-.57-.65 9.24 1.89 9.89 8.92 9.23 9.46-.88 7.82 2.71 8.82 5.04h-1.65c-.49 0-1.01.07-1.45.29-.15.07-.81 1.02-.87.95-.13-.13-.75-.7-1.26-.95-.33-.16-.86-.48-1.36-.48h-2.33c-.53 0-1.07-.02-1.55.1-.19.05-1.04.25-1.36.1-.32-.16-.61-.93-1.07-1.05-.4-.1-.95 0-1.45 0-.44 0-.98.1-1.36.1-.67 0-1.16-.08-1.65.29-.41.3-.85.87-.97 1.33-.25.99-.51.1-1.07.1-.39 0-1.37-.07-1.55.29-.08.15-.17 1.25-.58 1.05-.33-.16-.9-.32-1.36-.1-.32.16-.83.15-1.16.48-.21.21-.69 1.13-.97 1.24-.49.19-.86.53-1.16.76-.25.18-.85.35-1.16.67-.38.37-.57.85-1.07 1.33-.34.33-.84.79-1.36 1.05-1.01.47-1.58.22-2.52.45h0z" class="e i"/><path d="M801.894 368.889l1.94 2.95m1.94-6l1.65 3.14m1.55-4.19l1.84 3.14m-.78-8.94l3.3.1m2.71 3.14l1.55 3.43m3.21-3.43l.68 4.28m3.97-4.38l.29 4.85" class="h j q"/></g><g class="e m"><path d="M849.494 390.559c8.46 6.98 21.23 9.65 26.81 12.76-.34-3.22-6.76-11.29-13.11-14.71-28.45-15.34-23.99-36.16-16.74-41.83-10.81 0-16.44 27.71 3.04 43.78z" class="n"/><path d="M793.614 394.459l-7.21-9.36c3.75 1.12 22.7 1.47 34.52-1.76 11.86-3.23 30.4-11.5 30.4-23.43 0-1.46 1.5-9.61-4.86-13.13 12.88 0 12.09 33.01-14.74 43.53-9.09 3.56-22.96 4.15-38.11 4.15z" fill="#ffd631" class="u"/></g></g><g transform="matrix(-1 0 0 1 358.2069 -16.48058)" class="e f k r t"><use href="#H"/><use href="#I"/><use href="#J"/><use href="#K"/><use href="#L"/><use href="#M"/><use href="#N"/></g><g class="e f"><g class="k r t"><use href="#H" x="1439.304" y="-16.481"/><use href="#I" x="1439.304" y="-16.481"/><use href="#J" x="1439.304" y="-16.481"/><use href="#K" x="1439.304" y="-16.481"/><use href="#L" x="1439.304" y="-16.481"/><use href="#M" x="1439.304" y="-16.481"/><use href="#N" x="1439.304" y="-16.481"/></g><path d="M844.464 370.149v-89.99h2.99l1.15 90.44-4.14-.45z" class="g p s"/></g><g class="j f g s"><path d="M844.474 290.359h3.05m-3.05 8.09h3.05m-3.05 8.6h3.05m-3.05 9.61h3.05m-3.05 11.12h3.05"/><path d="M844.934 335.869h2.72m-2.66 8.09h3.05m-3.05 7.08h3.05m-3.05 8.1h3.05m-3.05 8.09h3.05" class="v"/></g><linearGradient id="A" gradientUnits="userSpaceOnUse" x1="785.891" y1="382.209" x2="1012.147" y2="382.209"><stop offset="0" stop-color="#c8102e"/><stop offset=".5" stop-color="#fff"/><stop offset="1" stop-color="#c8102e"/></linearGradient><path d="M899.05 397.49c-15.01 0-25.09-7.12-37.77-10.85-17.28-5.09-40.92-15.98-67.66 7.82l-7.21-9.36c16.59-14.95 30.68-21.22 57.97-16.74 19.08 3.13 41.25 15.98 54.64 15.98 13.4 0 35.56-12.84 54.64-15.98 27.29-4.48 41.38 1.79 57.97 16.74l-7.21 9.36c-26.74-23.8-50.38-12.9-67.66-7.82-12.69 3.73-22.78 10.85-37.71 10.85z" fill="url(#A)" class="e f k m"/><path d="M794.62 381.05c.12.09.28.23.49.43l.68.73a1.07 1.07 0 0 1 .13.21l-.04.05-.38.25-.07.04c-.49-.32-.86-.5-1.13-.54a1.52 1.52 0 0 0-1.2.29c-.32.25-.52.53-.57.84-.06.31.01.59.21.83.16.21.42.34.76.38.34.05.88-.07 1.62-.35.25-.1.57-.19.95-.27.39-.09.72-.12.99-.08.36.05.65.14.87.27s.44.33.67.61c.24.31.42.65.54 1.03.06.2.08.43.05.67a3.11 3.11 0 0 1-.19.7c-.11.29-.25.55-.43.78s-.44.48-.79.74a4.85 4.85 0 0 1-.91.54l-.73.28c-.2.08-.34.12-.41.12-.03 0-.07-.02-.12-.06l-.04-.05c-.03-.04-.21-.25-.55-.65l-.37-.44-.15-.19.45-.36.83.42c.23.09.45.14.66.15s.42-.03.64-.1.43-.19.63-.34a2.12 2.12 0 0 0 .5-.56c.15-.24.23-.49.23-.76s-.08-.51-.24-.7c-.19-.24-.48-.38-.87-.41-.24-.02-.75.1-1.52.35-.78.25-1.35.39-1.71.4a2.3 2.3 0 0 1-1.08-.24c-.36-.18-.64-.39-.84-.65a2.22 2.22 0 0 1-.48-1.75c.09-.65.51-1.25 1.24-1.81.16-.12.42-.27.77-.46l.91-.34m2.06-2.17l.33-.2.11.05c.2.11.35.18.44.2.06-.01.31-.15.75-.41l.74-.44.1-.08.65-.39 1.23-.7 1.67-.98.29-.23c.03-.06.03-.17 0-.34-.01-.04-.01-.1-.02-.17l.23-.14.17-.09.68 1.1.29.47.16.27a.93.93 0 0 1 .12.25c-.12.13-.23.24-.34.31-.18-.08-.4-.22-.67-.42s-.42-.3-.47-.31c-.07-.02-.14-.02-.21 0-.1.03-.48.25-1.16.64l-.37.24a3.15 3.15 0 0 0 .17.36l.44.71.95 1.56 1.04 1.67.41.69c.15.24.28.42.4.51.07-.01.19-.05.36-.12l.45-.15a1.65 1.65 0 0 1 .34-.08l.17.22c.02.03.04.08.07.15l-.19.12-.97.52c-.28.12-.76.38-1.44.78-.11.06-.41.27-.91.62l-.39.26c-.04-.05-.06-.09-.08-.12l-.08-.12-.03-.04c.02-.15.12-.31.31-.49.32-.31.53-.54.63-.69-.01-.09-.04-.19-.1-.3l-1.19-2.05-1.24-1.99-.64-.98c-.03-.03-.05-.04-.08-.05s-.06 0-.1.01c-.12.05-.49.26-1.1.62-.34.2-.55.36-.62.49-.1.18-.19.56-.26 1.13-.02.17-.05.26-.1.29-.22.01-.37.01-.44-.02-.03-.3-.15-.85-.37-1.65l-.13-.49m8.71-4.55l.6-.17c.33-.07.69-.19 1.1-.34l1.07-.44 2.35-.94 1.06-.41c.24-.09.6-.19 1.09-.31.1.05.18.14.23.27l.46 1.19.1.23a.53.53 0 0 1 .03.11l-.24.1-.2.06c-.07-.06-.16-.16-.27-.29l-.39-.32a2.93 2.93 0 0 0-.58-.39 1.4 1.4 0 0 0-.39.1l-.37.11-1.19.4-1.27.5c.03.1.17.48.43 1.14l.39.96.28.73.26-.08 1.48-.6c.29-.14.46-.24.51-.32s.08-.18.09-.32c0-.1-.04-.41-.13-.92l.07-.03.34-.12.33.77.29.78.1.27.21.49.22.5.05.13-.42.16-.24-.35c-.22-.33-.38-.52-.47-.59-.07-.05-.17-.07-.3-.07-.09 0-.38.1-.89.29l-1.32.55.07.2.47 1.13.47 1.25c.06.15.15.23.28.24.19.02.7-.12 1.52-.43.54-.2.99-.42 1.34-.64a1.44 1.44 0 0 0 .54-.65c.17-.36.25-.8.24-1.33l.29-.13c.04-.02.11-.04.2-.07l.07.25.03.19.21 1.17.15.7-.6.24-1.78.6-2.44.87-1.71.71-.25.09-.7.29-.16-.4c.07-.05.21-.12.42-.23.39-.2.65-.37.77-.5a1.19 1.19 0 0 0-.1-.45l-.14-.33-.06-.18-.87-2.17-.25-.65-.39-.91-.25-.65-.33-.7-.06-.11c-.06-.03-.12-.03-.21-.01l-.19.03c-.24.04-.47.09-.68.16l-.27.07-.1-.48m11.43 3.82c.12-.06.29-.13.52-.2l.4-.13c.16-.03.26-.08.31-.14a.98.98 0 0 0-.01-.25l-.16-.78-.11-.8-.09-.5-.1-.6-.13-.63-.23-1.36-.11-.61-.02-.08c-.11-.42-.18-.65-.22-.68-.03-.04-.16-.07-.38-.1-.02 0-.11-.02-.25-.05l-.29-.04c-.15-.01-.26-.03-.33-.07l-.06-.24c-.01-.03-.01-.08-.02-.15.03-.03.07-.04.11-.05a19.5 19.5 0 0 1 1.09-.14l.88-.17.66-.11c.28-.05.65-.14 1.08-.25l.23-.06c.06-.01.11 0 .14.03.04.04.07.12.09.23.02.09.01.17-.03.22-.02.03-.11.07-.26.12l-.73.31a.63.63 0 0 0-.1.07c-.01.03-.02.06-.02.08l.03.17.05.39.02.11.02.07c0 .02.02.13.04.34.01.05.01.11.02.16l.07.33.14.63.12.73c.01.1.04.23.07.4l.51 2.88c.02.12.06.2.11.23l.59-.08.36-.07.39-.06c.66-.12 1.17-.29 1.52-.51.26-.16.43-.31.49-.44a1.68 1.68 0 0 0 .27-.46c.06-.16.12-.41.17-.76l.2-.04a2.9 2.9 0 0 1 .34-.04l.03.17c.05.29.11.81.17 1.55.03.3.03.48.01.55l-.17.06-.23.04-.32.06c-.04.01-.29.03-.75.08l-1.19.17-2.08.34-1.26.26-1.35.31-.09.02c-.02 0-.06.01-.12.02a.26.26 0 0 1-.03-.11c-.02-.17-.02-.29-.01-.37m8.16-1.4c.13-.04.31-.07.55-.11l.42-.06c.16-.01.27-.03.33-.08.02-.1.04-.18.04-.25l-.02-.79.03-.8-.01-.51v-.61l-.02-.64.01-1.38v-.62-.09c-.03-.43-.07-.67-.1-.71-.03-.05-.15-.1-.36-.16a4.04 4.04 0 0 0-.24-.09c-.11-.04-.2-.07-.28-.08-.15-.04-.25-.08-.31-.13l-.02-.25c0-.03 0-.08.01-.15.04-.02.08-.03.12-.03l1.09.04.9-.01.67.01c.29 0 .66-.02 1.11-.07l.23-.02c.06 0 .11.02.13.05.03.05.05.13.05.25 0 .09-.02.17-.07.22-.02.03-.12.05-.28.08l-.78.19-.11.05c-.02.03-.03.05-.04.07v.17l-.02.39v.11l.01.07c0 .02-.01.13-.02.34 0 .05-.01.11-.01.16 0 .07.01.18.02.33l.03.65-.01.73v.4 2.93c0 .12.02.2.07.24l.6.02.37-.01.4.01c.67-.01 1.2-.09 1.59-.24.29-.12.48-.24.56-.35.14-.12.26-.26.34-.4.09-.14.19-.38.3-.72h.2c.1 0 .21.01.34.02v.17c0 .3-.03.82-.1 1.56l-.08.54-.18.03h-.23l-.33.01a20.4 20.4 0 0 1-.75-.04 100.89 100.89 0 0 1-1.2-.03l-2.11-.02-1.28.05-1.39.08h-.09c-.03 0-.07 0-.12-.01-.01-.05-.01-.08-.01-.12a2.07 2.07 0 0 1 .05-.39m7.75.44l.07-.41c.08-.01.23-.03.43-.03.33-.02.53-.05.6-.09.08-.04.18-.15.31-.32l1.72-3.06 2.02-3.6.39.06.28.04.04.12.72 2.67.44 1.65.33 1.3c.06.2.13.51.22.91l.23.83c.06.18.11.29.14.33.07.07.18.13.34.17.17.04.34.12.53.22l-.01.3a.45.45 0 0 1-.03.13l-1.01-.18-.99-.18-.71-.09-1.07-.09-.31-.03a4.96 4.96 0 0 1 .08-.41l.71-.05c.22-.02.34-.05.38-.07.05-.04.07-.08.08-.13s.01-.11-.01-.17l-.16-.63-.32-1.27-2.38-.33c-.12.18-.36.64-.75 1.36-.11.21-.17.35-.18.42-.02.11 0 .19.05.24.08.09.26.17.52.24l.43.13-.04.31-.03.14-1.83-.36-.26.01a5.14 5.14 0 0 1-.89-.05l-.08-.03m3.42-3.04l1.72.25.16.02-.31-1.33-.33-1.17-1.24 2.23m17.89-.51c.02.13.03.5.03 1.1 0 .27-.04.55-.12.84l-.55-.15c-.23-.65-.52-1.14-.86-1.49s-.77-.6-1.28-.74c-.63-.17-1.2-.08-1.72.3-.71.5-1.23 1.34-1.57 2.5-.2.67-.29 1.16-.28 1.47.01.5.08.93.22 1.29.11.27.28.51.51.71.3.28.66.47 1.06.58.44.12.91.11 1.4-.05s1.01-.45 1.54-.88c.16.01.36.05.6.12-.06.15-.13.29-.21.45l-.36.72-.11.16-.17.26c-.3.12-.69.16-1.16.13s-1.03-.14-1.68-.32c-.5-.14-.95-.32-1.37-.53-.41-.21-.75-.46-1.01-.75-.38-.41-.65-.82-.81-1.23-.17-.41-.26-.82-.27-1.25s.05-.88.19-1.37c.34-1.18 1.02-2.04 2.03-2.59 1.02-.55 2.14-.65 3.37-.3.5.14.96.3 1.39.47.44.16.83.35 1.19.55m-.81 7.51c.14 0 .32.02.55.06l.42.07c.16.04.27.05.34.02l.11-.22.23-.76.28-.75.16-.49.19-.57.19-.62.45-1.3.2-.59.03-.08c.11-.42.15-.65.13-.7-.01-.05-.11-.14-.29-.27-.02-.01-.08-.07-.2-.16l-.24-.17c-.13-.08-.21-.15-.25-.22l.06-.24.05-.14c.04-.01.08-.01.12.01.1.03.44.15 1.03.37l.86.26.63.21a13.47 13.47 0 0 0 1.08.28l.23.05c.06.02.1.05.11.09.02.05.01.14-.03.25-.03.09-.07.15-.13.19-.03.02-.13.02-.29-.01l-.8-.06c-.02 0-.06.01-.12.02l-.06.06-.06.16-.14.37-.03.11-.01.07c-.01.02-.05.13-.12.32l-.06.15-.09.32-.18.62-.24.69c-.04.1-.08.22-.13.38l-.93 2.78c-.04.12-.04.2-.01.25l.56.2.36.1.37.13c.64.2 1.17.29 1.59.25.31-.02.53-.08.65-.16.17-.08.33-.17.45-.28.13-.11.3-.31.51-.59l.19.06a3.32 3.32 0 0 1 .32.12l-.05.16c-.09.28-.29.77-.59 1.45-.12.27-.2.44-.25.49-.1-.01-.16-.02-.18-.03l-.22-.07-.31-.09c-.04-.01-.27-.1-.7-.27l-1.13-.4-2-.66-1.23-.35-1.35-.35-.09-.03c-.02-.01-.06-.02-.11-.04l.02-.12a1.3 1.3 0 0 1 .15-.33m7.23 2.67l.15-.39c.08 0 .23.02.43.05.33.05.53.06.61.03.08-.02.21-.11.36-.25l2.3-2.67 2.7-3.14.37.13.27.09.02.12.18 2.76.1 1.7.06 1.34.03.93c0 .22.02.51.06.86.02.19.05.31.08.35.05.08.15.16.3.23.16.08.31.18.47.31l-.07.3-.05.13-.95-.37-.94-.37-.68-.22-1.03-.29-.3-.09a3.34 3.34 0 0 1 .16-.38l.71.09c.22.02.34.02.39 0 .05-.03.09-.06.11-.11s.03-.11.03-.17l-.03-.65-.06-1.3-2.27-.78c-.15.16-.48.56-1 1.19-.15.18-.24.31-.26.38-.04.1-.03.18.01.24.06.11.22.22.47.34.03.02.17.09.4.21l-.1.29-.06.13c-.25-.08-.82-.32-1.72-.7l-.26-.04a5.14 5.14 0 0 1-.86-.22l-.13-.06m3.96-2.32l1.63.58.15.05-.03-1.37-.09-1.21-1.66 1.95m6.93-1.81l.21-.49.36.16c.45.25 1.07.53 1.84.84.12.05.36.13.72.25l.6.18.42.17-.18.47-.72-.18c-.19-.02-.34-.01-.45.03-.06.02-.1.07-.13.12-.02.04-.03.09-.04.13l-.02.57c-.03.44-.02 1.06.01 1.85l.05 1.74.01.95.68-.67 1.48-1.6.33-.33.18-.21.57-.67c.14-.15.24-.28.28-.39.03-.07.02-.15-.03-.23-.08-.13-.24-.26-.49-.38-.05-.04-.11-.08-.2-.12-.08-.05-.16-.09-.22-.14a.61.61 0 0 1 .04-.19c.02-.05.07-.13.13-.25.07.03.26.12.58.29l.95.44c.32.13.6.23.84.29l.58.17-.08.18-.09.2c-.58-.02-.92-.02-1.03.01a.89.89 0 0 0-.24.12c-.25.2-.7.62-1.32 1.27l-1.54 1.59-.48.49-.54.56c-.04.05-.23.24-.56.57l-.1.08-.85.96-.3-.11-.3-.14.02-.4a41.91 41.91 0 0 0 .03-1.44l-.08-2.86v-1.82l-.08-1.36c-.03-.12-.07-.22-.13-.29s-.22-.18-.47-.3l-.24-.11m5.61 10.43l.16-.41.43.05a3.95 3.95 0 0 0 .64.03c.12-.09.22-.24.3-.46l.26-.68.53-1.31.12-.31.5-1.16.29-.77.14-.3.23-.67.09-.25c.01-.04.02-.11.03-.2-.13-.13-.37-.28-.73-.43l-.2-.1.18-.51 1.65.7.38.16c.23.09.61.21 1.13.37l.55.17c-.02.07-.05.14-.07.19l-.11.25-.6-.05c-.22-.03-.4-.04-.55-.04a2.08 2.08 0 0 0-.2.42l-.14.41-.61 1.49-.59 1.52-.32.77-.44 1.16-.09.22c-.01.03-.02.08-.03.14l.61.35c.03.02.15.08.34.18l-.09.3c-.02.04-.04.11-.08.19-.05-.02-.09-.03-.12-.04l-.22-.07c-.03-.01-.08-.04-.15-.08-.05-.03-.3-.15-.75-.38l-1.03-.4c-.21-.08-.52-.17-.93-.28l-.51-.17m11.69-4.27c0 .15-.03.36-.08.64l-.22.97c-.02.07-.05.15-.1.22h-.07l-.42-.16-.07-.03c-.01-.57-.08-.98-.2-1.22-.21-.41-.52-.67-.93-.8-.39-.12-.74-.11-1.03.02a1.04 1.04 0 0 0-.58.65c-.08.25-.04.53.12.83.15.3.56.67 1.22 1.1.22.14.48.35.78.61s.51.51.63.75c.16.32.25.6.27.86.02.25-.02.55-.13.89-.12.37-.3.71-.55 1.03-.14.17-.31.31-.53.43-.16.08-.39.17-.69.25s-.6.12-.89.1c-.29-.01-.65-.08-1.07-.21a4.98 4.98 0 0 1-.97-.42l-.66-.42c-.18-.12-.29-.2-.33-.26-.02-.02-.02-.06-.02-.13l.02-.06.22-.82.16-.55.07-.22.56.16.13.9c.06.24.15.44.26.61s.26.32.45.46c.19.13.4.24.65.31.22.07.47.09.76.08s.54-.1.76-.25c.23-.16.38-.36.45-.59.09-.29.04-.6-.16-.93-.12-.2-.51-.55-1.17-1.02-.66-.48-1.1-.86-1.32-1.15s-.36-.62-.42-1.01-.04-.74.06-1.05c.2-.63.59-1.09 1.18-1.39s1.34-.31 2.23-.05c.19.06.47.18.82.36.19.1.47.27.81.51m5.48 8.85c.18.15.31.27.39.36.53.56 1.01.98 1.45 1.28.18.12.46.25.84.37l-.04.39c-.01.08-.03.16-.05.25-.11 0-.22-.01-.34-.02-.59-.08-1.08-.19-1.48-.34-.28-.1-.66-.3-1.12-.58s-1.07-.73-1.81-1.35l-.95-.69c-.6-.36-1.09-.75-1.46-1.16a3.97 3.97 0 0 1-.82-1.44c-.18-.54-.22-1.12-.13-1.72.11-.76.4-1.44.86-2.06.47-.62 1.14-1.08 2.02-1.38.6-.2 1.32-.25 2.18-.13.68.09 1.23.25 1.66.48.43.22.8.49 1.1.81s.54.65.72 1.02c.18.36.31.74.38 1.15.08.41.08.83.02 1.27-.07.5-.23.96-.46 1.38s-.51.77-.83 1.06a4.46 4.46 0 0 1-1.07.72c-.25.13-.6.23-1.06.33m-1.52-.53c.3.04.66 0 1.07-.14.42-.14.8-.45 1.14-.93.35-.48.58-1.18.72-2.1.1-.69.11-1.27.02-1.73-.08-.46-.2-.82-.35-1.08s-.35-.49-.61-.68a2.47 2.47 0 0 0-1.1-.46c-.36-.05-.66-.04-.9.04-.39.13-.7.32-.93.55-.33.33-.57.74-.73 1.21-.15.47-.26.92-.32 1.35a8.14 8.14 0 0 0-.07 1.49c.03.51.12.93.26 1.25.15.32.38.6.68.81.32.22.69.36 1.12.42m4.65-6.38l-.06-.48a1.64 1.64 0 0 1 .23-.02c.21-.02.43-.03.66-.03l.98-.03.98-.09.85-.09.51-.05v.07l.04.36v.05a5.43 5.43 0 0 1-.72.1c-.23.02-.39.07-.45.17-.05.06-.05.31-.02.74l.03.32.02.22.03.58.08.49.06 1.07.2 1.54c.06.45.18.81.39 1.09.15.21.35.36.6.47.36.15.72.21 1.05.18a3.91 3.91 0 0 0 1.11-.24c.2-.07.39-.18.56-.32s.29-.27.36-.39c.13-.24.22-.46.27-.66.06-.28.07-.7.02-1.27l-.42-3.34-.05-.32c-.03-.24-.09-.4-.18-.48-.14-.12-.3-.17-.47-.16l-.59.06-.08-.01-.02-.47.5-.04 1.2-.04 1.14-.14h.11c.04.13.06.23.06.28s0 .1-.01.17c-.15.06-.31.1-.48.12-.28.06-.43.1-.46.13-.05.05-.08.13-.07.23l.04.32c.02.1.04.28.06.53l.03.34.03.25.1.9.16 1.25.04 1.69c-.04.29-.1.52-.19.69-.14.26-.34.5-.61.73s-.61.42-1.03.57-.91.25-1.48.29c-.65.05-1.21.01-1.69-.13s-.85-.34-1.1-.59c-.26-.26-.44-.61-.57-1.05-.09-.3-.15-.73-.19-1.3l-.22-2.94c-.05-.69-.12-1.08-.19-1.17-.1-.12-.39-.17-.88-.15-.1.01-.19.01-.27 0m8.21-1.11l.62-.11c.33-.04.71-.12 1.13-.23l1.11-.33 2.43-.7 1.1-.3c.25-.07.62-.13 1.12-.2.09.06.16.16.2.29l.34 1.23.08.24c.01.02.01.06.02.11l-.25.08c-.03.01-.1.02-.21.04l-.24-.31-.36-.36c-.14-.15-.32-.3-.54-.44-.11 0-.24.02-.4.06-.04.01-.17.03-.38.07l-1.23.28-1.32.38c.02.1.12.5.31 1.18l.29 1 .21.75c.1-.01.19-.03.27-.05l1.54-.45c.3-.11.48-.2.54-.27a.63.63 0 0 0 .12-.31c.01-.1 0-.41-.03-.93l.08-.03.35-.09.25.8.21.81.07.28.16.51.16.52.04.13-.43.11-.2-.37c-.18-.35-.32-.56-.41-.63-.07-.06-.16-.09-.29-.1-.09-.01-.39.06-.91.2l-1.36.41.05.2.35 1.17.34 1.29c.04.15.12.24.25.27.19.04.71-.05 1.56-.28.56-.15 1.03-.32 1.4-.51.25-.13.46-.33.61-.59.2-.34.33-.77.38-1.3.12-.05.22-.08.3-.1l.2-.05.04.26.01.19.09 1.19.08.71-.62.18-1.83.42-2.51.62-1.77.54-.25.07-.73.22-.11-.41c.07-.04.22-.1.44-.19.41-.16.68-.3.82-.42a1.51 1.51 0 0 0-.05-.45l-.1-.34-.04-.19-.64-2.24-.18-.67-.29-.95-.18-.67-.26-.72c-.01-.02-.02-.06-.04-.12-.05-.03-.12-.04-.21-.04-.05 0-.11.01-.19.01-.24.01-.47.05-.69.09-.08.02-.17.03-.27.05l-.15-.51m13.9 4.08l-.14-.4c.46-.26.73-.48.8-.66.05-.13.01-.39-.1-.79l-.77-2.07-.77-2.1-.08-.23c-.22-.54-.39-.83-.49-.89s-.38-.04-.85.05l-.28.05c-.05-.09-.08-.17-.11-.24l-.07-.18.5-.22 1.73-.63.17-.05.27-.1c.1.05.21.12.32.22l1.08.99.13.13 1.71 1.57c.04.04.1.09.18.16l.34.32.36.33.36.32c.02-.11.03-.24.03-.37l.05-1.15.05-2.8.02-.91.04-.66c.02-.04.09-.09.19-.13l.18-.08.72-.32.96-.43.4-.2c.04-.02.09-.03.14-.04.03.05.05.09.06.12l.06.18.06.16c-.34.2-.61.4-.79.6-.13.14-.17.27-.12.38l.04.09.83 1.71 1.08 2.35.58 1.19c.03.06.06.1.07.14.04.09.09.14.13.15.05.01.45-.02 1.19-.09l.06.13.09.24c-.1.04-.38.13-.82.25a10.88 10.88 0 0 0-1.22.41l-1.61.73c-.07.04-.13.07-.2.1l-.15-.4a3.55 3.55 0 0 1 .57-.41c.17-.11.27-.2.29-.3.02-.09-.04-.3-.18-.64l-.14-.33-.73-1.66-.94-1.98-.29-.58-.09 3.85c0 .09-.01.22-.02.39l-.02.46.05 1.87a5.23 5.23 0 0 1 .01.43l-.45.17-.68-.75-.91-.85-.58-.53-.14-.12-.13-.11c-.01-.02-.03-.04-.04-.05l-1.63-1.49-.99-.9 1.08 2.72.69 1.77c.12.29.26.48.42.56s.45.09.85.03l.31-.04.17.42c-.23.09-.48.17-.75.25a8.77 8.77 0 0 0-1.04.36c-.06.05-.44.22-1.1.53m10.5-4.33l-.13-.4c.07-.05.19-.12.37-.22.28-.16.45-.28.5-.34.05-.07.09-.21.13-.42l.12-3.49.14-4.11.38-.12.27-.09.09.09 1.88 2.06 1.15 1.28.89 1.01.61.71c.14.17.34.39.59.64.14.14.23.21.28.23.09.03.22.03.39 0a2.07 2.07 0 0 1 .57-.04l.13.28.04.13-.98.29-.97.28-.67.24-.99.39-.29.11a3.57 3.57 0 0 1-.12-.4l.61-.36c.18-.12.28-.2.3-.23a.16.16 0 0 0 .01-.15c-.02-.05-.05-.1-.08-.15l-.44-.49-.87-.99-2.27.76c-.02.21-.03.73-.04 1.55 0 .23.01.38.03.46.04.1.09.16.16.19.12.04.31.04.58-.02.04 0 .19-.03.44-.08l.11.29.04.14-1.8.49-.23.12c-.28.15-.55.26-.81.35l-.12.01m1.65-4.22l1.65-.54.15-.06-.89-1.05-.83-.9-.08 2.55m6.9 1.06c.09-.09.23-.17.42-.26s.36-.19.51-.3l-.02-.18c-.01-.06-.07-.25-.17-.57l-.43-1.31-.2-.71-.19-.54-.09-.32-.37-1.21-.54-1.56-.38.04-.67.14-.13-.35v-.07a3.84 3.84 0 0 1 .54-.22l.56-.18.48-.11.31-.12.74-.27a15.44 15.44 0 0 1 1.46-.53c.82-.26 1.54-.25 2.15.01.62.26 1.01.65 1.18 1.18.13.4.11.8-.05 1.21-.16.4-.48.77-.97 1.1.07.07.17.14.28.23l.6.47 1.45 1.23.7.57c.1.04.28.07.53.08.2.01.36.03.48.07.05.06.08.11.09.17l.04.14-.16.05-.12.04-.33.06-.25.08a3.04 3.04 0 0 0-.48.12l-.6.18a5.54 5.54 0 0 0-.41.17l-.25.11-.33-.32-.57-.55-1.49-1.54c-.32-.32-.53-.5-.63-.52-.15-.05-.37-.02-.66.07-.08.02-.21.07-.4.14a3.21 3.21 0 0 0 .11.41l.45 1.3.33 1.12c.13.03.3.04.49.02.33-.03.62-.04.88-.03l.12.44-.15.04-.24.09-1.56.36-.22.07-.81.31c-.24.11-.47.19-.68.26l-.26.08-.07-.18c.01-.07 0-.13-.02-.21m1.47-4.65l.42-.12c.68-.21 1.12-.48 1.33-.81s.24-.69.12-1.09c-.08-.25-.19-.47-.33-.66-.14-.2-.28-.33-.42-.41-.2-.11-.43-.16-.69-.17-.19 0-.49.05-.87.17-.18.06-.34.12-.46.18l.03.11.26.79.14.49.21.64.21.71.05.17m7.21 2.34l-.13-.43c.07-.05.2-.12.37-.21.24-.14.42-.26.53-.36.04-.14.02-.32-.04-.54l-.21-.7-.39-1.36-.1-.32-.31-1.22-.24-.79-.08-.33-.23-.67-.08-.25-.1-.18c-.19-.03-.47 0-.85.09-.09.02-.16.04-.22.04l-.17-.52 1.75-.42.4-.1 1.13-.37.55-.19a1.01 1.01 0 0 1 .06.19c.02.07.04.16.06.26a5.14 5.14 0 0 1-.51.32l-.46.29c.01.11.04.26.09.46l.14.41.44 1.55.47 1.56.22.8.36 1.18.06.23c.01.03.03.07.06.13l.7-.08c.04-.01.16-.03.38-.06a1.83 1.83 0 0 1 .11.29l.05.2c-.05.01-.09.03-.12.04l-.22.08a.91.91 0 0 1-.16.03l-.83.15-1.07.29a12.02 12.02 0 0 0-.91.32l-.5.19m7.8-10.08c.07.13.16.33.26.59.15.4.25.72.3.95.02.07.03.15.03.24l-.06.03-.45.07-.08.01c-.3-.49-.57-.81-.79-.95-.39-.25-.79-.33-1.21-.23-.4.09-.69.27-.88.53-.18.26-.24.54-.17.84.06.26.23.48.52.66.28.18.82.3 1.62.35a6.37 6.37 0 0 1 .98.15c.39.08.7.19.93.34.3.19.53.4.67.61.15.21.26.48.34.83a3.22 3.22 0 0 1 .05 1.16c-.03.21-.11.42-.25.63-.09.15-.25.33-.47.56-.22.22-.46.4-.72.53s-.6.25-1.03.35c-.29.06-.64.1-1.05.11l-.78-.04c-.22-.01-.36-.03-.42-.06-.02-.01-.05-.05-.08-.1l-.02-.07-.22-.82-.14-.55-.05-.23.56-.14.57.72c.17.18.35.31.53.41.18.09.39.15.62.18.23.02.47.01.72-.05.22-.05.45-.15.7-.3.24-.15.42-.35.53-.6s.14-.49.09-.74c-.07-.3-.28-.54-.62-.73-.21-.12-.72-.22-1.53-.31s-1.39-.21-1.73-.34a2.25 2.25 0 0 1-.88-.66c-.25-.31-.41-.62-.48-.94a2.2 2.2 0 0 1 .32-1.78c.36-.55 1-.93 1.9-1.13.2-.04.49-.08.89-.09.24-.04.56-.03.98.01m6.71 6.79l-.04-.44.4-.14c.26-.09.46-.18.59-.26.06-.13.08-.31.06-.54l-.08-.72-.12-1.4-.04-.33-.08-1.26-.09-.82-.01-.33-.1-.7-.03-.26a3.16 3.16 0 0 0-.06-.19c-.18-.06-.46-.08-.85-.07-.09.01-.17.01-.22 0l-.07-.54 1.8-.09.41-.03c.25-.02.64-.08 1.18-.16l.57-.09.03.2c.01.07.01.16.01.27l-.56.22c-.21.07-.38.14-.51.2-.01.11-.01.26.01.46l.06.43.14 1.6.16 1.62.06.83.13 1.23.02.23c0 .03.02.08.04.14l.71.05.39.01c.03.12.05.22.05.3l.01.21c-.05.01-.1.01-.12.02l-.23.03h-.16c-.06 0-.34-.01-.84-.01l-1.11.09c-.22.02-.54.07-.96.15l-.55.09m5.1-8.17v-.43l.53.03h.18l.52.01c.05 0 .2.02.44.04a.71.71 0 0 0 .14.01l.4.01.38.01c.05 0 .11.01.19.02l1.49 1.58 4.18 4.61.01-.15.02-.72.01-1c-.01-.25 0-.54.01-.88l.01-.93-.02-.93c.01-.27-.01-.43-.06-.49-.08-.1-.28-.17-.59-.24-.23-.05-.4-.11-.51-.17l.03-.36.16-.01 1.24.03 1.38.04.26.01-.02.4c-.1.04-.2.08-.3.09l-.47.1-.36.2c-.04.05-.06.12-.07.22v.26l-.02.52-.03 1.41v.38l-.06 2.17-.01.32-.05.76v.32l-.04.33.01.3-.02.33-.72-.02-.7-.8-1.44-1.57-1-1.11-.74-.83-1.32-1.38-.97-.96-.08 2.3-.02.43-.03.44-.01.81v1.1a1.13 1.13 0 0 0 .02.23 3.16 3.16 0 0 0 .06.19c.16.07.51.13 1.06.19.04.01.09.03.16.05l-.01.5-.25-.01c-.13-.01-.55-.06-1.26-.17l-1.33-.04h-.37c-.05 0-.12-.02-.21-.04v-.25c0-.05.01-.12.02-.22.12-.01.22-.02.29-.01a2.36 2.36 0 0 1 .24.03c.35.02.56.01.63-.04s.12-.19.14-.41l.12-1.19.02-.34.13-2 .06-1.25c.02-.48.01-.81-.03-1-.02-.1-.06-.18-.13-.25-.14-.16-.29-.28-.47-.36-.09-.05-.37-.12-.82-.22m10.83 7.76c.07 0 .2.01.4.04.39.04.66.03.81-.05.09-.05.18-.16.25-.35.02-.05.21-.65.58-1.8l.19-.65.24-.79.57-2.03.08-.24c.03-.1.03-.19-.01-.26-.02-.04-.09-.07-.22-.11-.1-.03-.23-.05-.37-.07l-.49-.09c-.03 0-.07-.01-.12-.01l.15-.52c.26-.01.62.02 1.09.07.77.09 1.69.29 2.76.59.89.25 1.53.49 1.92.71.58.33 1.03.71 1.33 1.12.41.56.66 1.14.77 1.75a3.94 3.94 0 0 1-.12 1.86c-.24.8-.61 1.43-1.14 1.91-.52.47-1.17.78-1.93.94-.54.11-1.21.05-2.01-.17l-1.22-.41-.36-.12-.49-.13-.14-.05-.51-.13-.67-.2c-.02-.01-.23-.05-.63-.13l-.51-.13-.29-.08c-.02-.08.02-.24.09-.47m4.88-5.78l-.1.26-.28 1.01-.27.87-.2.75-.17.56-.27.95-.18.58c-.16.54-.17.94-.02 1.19.22.36.59.62 1.11.77.4.11.7.16.92.14.44-.04.81-.15 1.11-.33.31-.18.59-.48.84-.9a5.43 5.43 0 0 0 .6-1.37c.24-.8.3-1.49.18-2.07-.11-.58-.35-1.06-.73-1.44-.38-.39-.85-.66-1.44-.83-.4-.12-.77-.16-1.1-.14m4.75 9.34l.19-.4c.09.01.23.04.42.08.28.05.49.08.64.07.12-.08.23-.23.33-.43l.31-.66.62-1.27.14-.3.58-1.12.34-.75.16-.29.28-.65.11-.24.05-.2c-.12-.14-.35-.3-.69-.48-.08-.04-.15-.08-.19-.11l.22-.5 1.6.82.37.18 1.1.45.54.21-.08.18-.13.24-.6-.09-.55-.08c-.07.09-.15.22-.23.4a3.61 3.61 0 0 0-.17.4l-.71 1.45-.7 1.48-.38.74-.52 1.12-.11.21c-.01.03-.03.08-.04.14.21.16.4.29.58.39l.33.2-.11.29-.1.19-.12-.05-.22-.09c-.03-.01-.07-.04-.14-.08l-.72-.43-1-.48a11.71 11.71 0 0 0-.9-.35l-.5-.19m15.03-.76c-.02.13-.12.49-.29 1.07-.08.26-.2.52-.36.77l-.48-.3c-.04-.68-.17-1.24-.4-1.67s-.56-.79-1.01-1.07c-.55-.34-1.13-.41-1.74-.19-.82.29-1.57.94-2.22 1.96-.38.59-.61 1.04-.7 1.34-.13.49-.19.92-.16 1.3.02.29.12.56.29.83.21.35.49.64.85.85.39.24.84.36 1.36.34.52-.01 1.1-.15 1.74-.42a3.54 3.54 0 0 1 .54.28l-.33.37-.55.59-.15.13-.23.2c-.32.03-.71-.04-1.15-.2s-.95-.42-1.52-.77a7.1 7.1 0 0 1-1.16-.89c-.33-.32-.58-.65-.75-1-.24-.5-.39-.97-.43-1.4a3.59 3.59 0 0 1 .1-1.27c.11-.41.31-.83.58-1.26.67-1.04 1.57-1.68 2.7-1.92s2.24-.03 3.32.64a11.49 11.49 0 0 1 1.2.84c.35.26.67.55.95.85m-3.09 7.58l.28-.35c.08.03.21.09.39.17.26.11.46.19.61.21.14-.05.28-.17.43-.35l.46-.57.9-1.09.21-.26.83-.96.51-.65.23-.25.42-.57.16-.21c.02-.03.05-.1.09-.18-.09-.17-.27-.38-.56-.63l-.16-.15.33-.44 1.36 1.16.32.26.96.69.48.32c-.05.06-.09.12-.12.16-.04.05-.1.12-.18.2l-.56-.22-.51-.2c-.09.07-.2.18-.32.34l-.26.35-1.03 1.25-1.03 1.28-.54.64-.77.97-.15.18c-.02.03-.04.07-.07.13a6.14 6.14 0 0 0 .48.51l.27.27-.18.26c-.03.04-.07.09-.14.16l-.1-.07-.19-.13-.12-.11-.6-.58-.86-.69c-.17-.14-.44-.32-.8-.54l-.47-.31"/><defs><path id="B" d="M0 0h600v300H0z"/><path id="C" d="M898.98 278.64h41.73v50.32h-41.73v-50.32z"/><path id="D" d="M908.73 289.83l-.26 17.98 1.82-.05-.37-17.91-1.19-.02h0z"/><path id="E" d="M867.52 323.75c-1.03.66-2.72 2.35-3.38 3.38s-.29 1.39.74.73 2.72-2.35 3.38-3.38.29-1.4-.74-.73z"/><path id="F" d="M877.17 319.46l-4.64 4.66"/><path id="G" d="M865.98 307.83v-7.69l7.26 3.44c.24.67-1.74.91-7.26.49v3.76h0z"/><path id="H" d="M-594.94 296.64c.53-6.14 3.72-14.7 10.65-21.13 18.87-17.5 28.16-25.19 39.3-1.02 1.16 2.51 7.9 13.73 12.66 13.81-10.88-1.36-14.48-5.55-16.39-12.5-5.91-21.53-12.51-15.43-21.76-8.2-6.27 4.89-6.59 4.94-10.67 9-3.66 3.64-5.47 6.96-7.17 10.92-1.39 3.23-3.07 7.19-3.28 9.13h-3.34z"/><path id="I" d="M-594.94 296.64c-.18-10.92 8.48-28.77 18.97-40.81 8.37-9.6 28.72-21.4 37.66-6.83 4.17 6.8 6.61 5.85 10.69 7.5-7.47 1.65-9.05-2.51-13.35-4.48-2.86-1.31-2.92-5.28-4.61-7.01-2.31-2.37-6.47-2.06-14.26 1-6.67 2.62-16.08 13.21-21.63 23.07-5.13 9.11-6.51 17.19-10.12 27.55h-3.35z"/><path id="J" d="M-594.94 296.64c7.51-34.64 21.8-56.53 38.36-63.6 12.87-5.5 27.18-.54 27.66 4.66-2.54-4.22-19.84-10.89-34.68 2.39-12.94 11.58-23.44 41.88-27.99 56.56h-3.35z"/><path id="K" d="M-594.94 296.64c-.32-6.64 6.78-18.39 7.16-26.83.29-6.31-.38-9.09.75-13.39 2.35-8.91 6.73-18.69 11.76-25.04 4.05-5.11 12.16-9.59 20.39-6.88 5.38 1.77 8.37 8.23 14.54 13.83-3.41-2.47-7.95-3.65-9.89-5.82-7.53-8.42-11.64-7.82-18.59-2.64-13.11 9.77-15.69 39.27-19.09 52.23-4.03 15.37-2.08 9.37-3.69 14.55h-3.34z"/><path id="L" d="M-594.94 296.64c1.14-11.28 8.72-15.91 9.08-31.69.2-8.6-3.19-22.47-3.19-28.66 0-3.35 1.91-14.81 10.52-20.53 10.34-6.87 21.04-6.2 32.15.54 1.79 1.09 4.19 1.38 6.05 2.58-.77.24-8.02 2.1-13.87-2.42-4.83-3.73-13.63-1.24-18.28.98-17.19 8.19-14.86 28.22-11.33 38.65 3.72 10.97 1.48 19.35-3.11 27.02-4.9 8.18-4.24 12.14-4.67 13.53h-3.35z"/><path id="M" d="M-594.94 296.64c-.3-1.73.94-6.33 3.87-14.18.68-1.82 2.91-5.08 2.91-12.26 0-5.01-2.53-7.81-4.24-14.09-1.52-5.56-8.63-17.63-8.63-26.04 0-2.55 2.52-7.78 7.43-11.18 7.08-4.9-.56-11.06.95-9.73 2.24-.42 10.21 13.02.31 14.43-4.57.65-6.74 5.38-6.51 9.36.52 9.04 10.7 15.32 11.92 25.36 1.41 11.52 3.15 19.59-.4 26.47-1.85 3.58-4.2 11.64-4.28 11.86h-3.33z"/><path id="N" d="M-594.94 296.64c-.11-.6.23-7.47 3.11-14.5 1.86-4.54 3.5-9.77 3.5-12.86 0-13.42-20.43-24.56-22.24-24.56-9.97 0-4.54 6.53.35 7.82 7.35 1.93 8.69 4.97 10.07 6.82 1.73 2.32 2.38 7.17 2.34 11.52-1.54-4.09-.35-5.62-4.87-9.19-5.68-4.48-15.42-8.47-15.42-13.55 0-3.17 1.87-5.7 4.63-5.7 3.85 0 12.72 3.96 19.33 9.45 6.13 5.08 10.16 11.5 10.16 16.54 0 7.23-4.7 19.48-7.61 28.23h-3.35z"/><path id="O" d="M-100-50l800 400m-800 0L700-50"/></defs><clipPath id="P"><use href="#B"/></clipPath><circle cx="300" cy="150" r="400" fill="#012169" class="o"/><g class="j w"><use href="#O" stroke="#fff" stroke-width="60" class="o"/><use href="#O" stroke="#c8102e" stroke-width="40" class="o"/></g><path d="M300 150l400 200h-60L240 150m60 0L700-50h60L360 150m-60 0l-400 200h-60l400-200m60 0L-100-50h60l400 200" class="i o"/><g class="w"><path d="M-100 150h800M300-50v400" stroke="#fff" stroke-width="100" class="o"/><path d="M-100 150h800M300-50v400" stroke="#c8102e" stroke-width="60" class="j o"/></g></svg>