<?xml version="1.0" encoding="UTF-8" standalone="no"?>
<!-- Created with Inkscape (http://www.inkscape.org/) -->
<svg xmlns:svg="http://www.w3.org/2000/svg" xmlns="http://www.w3.org/2000/svg" version="1.0" width="450" height="300" id="svg2">
  <defs id="defs22"/>
  <rect width="450" height="300" x="0" y="0" id="yellow" style="fill:#f7d117"/>
  <rect width="450" height="200" x="0" y="100" id="blue" style="fill:#0033ab"/>
  <g transform="matrix(-1,0,0,1,450,0)" id="use2456">
    <path d="M 188.39546,137.63441 L 194.74292,130.63522 L 190.12176,122.39362 L 198.73987,126.26756 L 205.15006,119.32578 L 204.12887,128.71919 L 212.71177,132.67053 L 203.46254,134.60205 L 202.35686,143.9859 L 197.6617,135.78622 L 188.39546,137.63441 z" id="path2460" style="fill:#ffffff"/>
    <path d="M 189.71184,170.54821 L 188.19733,161.22163 L 178.87255,159.69595 L 187.27467,155.37349 L 185.84415,146.03365 L 192.55145,152.68881 L 200.99212,148.44213 L 196.73536,156.87772 L 203.3825,163.59297 L 194.04436,162.15129 L 189.71184,170.54821 z" id="path2462" style="fill:#ffffff"/>
    <path d="M 206.08423,166.13255 L 204.76816,175.48922 L 195.47788,177.21261 L 203.96992,181.35564 L 202.7381,190.72377 L 209.30254,183.92763 L 217.83153,187.99408 L 213.39654,179.65081 L 219.89954,172.79587 L 210.59413,174.43557 L 206.08423,166.13255 z" id="path2464" style="fill:#ffffff"/>
  </g>
  <rect width="450" height="100" x="0" y="200" id="red" style="fill:#cf142b"/>
  <path d="M 217.33256,132.174 L 220.21088,123.1743 L 212.59108,117.58698 L 222.03976,117.54337 L 224.99895,108.56995 L 227.96023,117.54269 L 237.40892,117.5841 L 229.79042,123.17318 L 232.67083,132.17221 L 225.00105,126.65371 L 217.33256,132.174 z" id="path1961" style="fill:#ffffff"/>
  <path d="M 188.39546,137.63441 L 194.74292,130.63522 L 190.12176,122.39362 L 198.73987,126.26756 L 205.15006,119.32578 L 204.12887,128.71919 L 212.71177,132.67053 L 203.46254,134.60205 L 202.35686,143.9859 L 197.6617,135.78622 L 188.39546,137.63441 z" id="use1906" style="fill:#ffffff"/>
  <path d="M 189.71184,170.54821 L 188.19733,161.22163 L 178.87255,159.69595 L 187.27467,155.37349 L 185.84415,146.03365 L 192.55145,152.68881 L 200.99212,148.44213 L 196.73536,156.87772 L 203.3825,163.59297 L 194.04436,162.15129 L 189.71184,170.54821 z" id="use1904" style="fill:#ffffff"/>
  <path d="M 206.08423,166.13255 L 204.76816,175.48922 L 195.47788,177.21261 L 203.96992,181.35564 L 202.7381,190.72377 L 209.30254,183.92763 L 217.83153,187.99408 L 213.39654,179.65081 L 219.89954,172.79587 L 210.59413,174.43557 L 206.08423,166.13255 z" id="path13" style="fill:#ffffff"/>
</svg>