<?xml version="1.0" encoding="UTF-8" standalone="no"?>
<svg
   version="1.1"
   width="1200"
   height="600"
   id="svg37002"
   sodipodi:docname="Flag_of_the_Azerbaijan_Soviet_Socialist_Republic_(1937-1940).svg"
   inkscape:version="1.3 (0e150ed6c4, 2023-07-21)"
   xmlns:inkscape="http://www.inkscape.org/namespaces/inkscape"
   xmlns:sodipodi="http://sodipodi.sourceforge.net/DTD/sodipodi-0.dtd"
   xmlns="http://www.w3.org/2000/svg"
   xmlns:svg="http://www.w3.org/2000/svg">
  <defs
     id="defs37006" />
  <sodipodi:namedview
     id="namedview37004"
     pagecolor="#ffffff"
     bordercolor="#666666"
     borderopacity="1.0"
     inkscape:showpageshadow="2"
     inkscape:pageopacity="0.0"
     inkscape:pagecheckerboard="0"
     inkscape:deskcolor="#d1d1d1"
     showgrid="false"
     inkscape:zoom="1.0641667"
     inkscape:cx="532.81126"
     inkscape:cy="300.23492"
     inkscape:window-width="1920"
     inkscape:window-height="1007"
     inkscape:window-x="-9"
     inkscape:window-y="-9"
     inkscape:window-maximized="1"
     inkscape:current-layer="svg37002" />
  <path
     d="M0 0h1200v600H0z"
     fill="#bc0000"
     id="path36990"
     style="fill:#be000d;fill-opacity:1" />
  <g
     fill="#fcd116"
     transform="matrix(1.05885053, 0, 0, 1.05885053, 24.04688512, -7.94795294)"
     id="g36996"
     style="fill:#fcd20f;fill-opacity:1">
    <path
       d="m 119.96333,96.59333 c 159.07167,-24.195 126.48831,181.3981 10.20998,107.29477 l 1.87804,-2.85621 -8.30562,-7.42646 -2.56325,2.22893 -5.19871,-4.61908 -6.2486,5.69292 4.15944,5.19392 c -5.18,4.36166 -18.57461,16.01455 -20.452943,18.73455 -8.008334,9.99666 7.080003,22.86 14.540003,14.66166 2.93,-2.31666 10.81833,-14.65333 16.06333,-22.29 13.37,14.06 31.58333,23.87667 56.08667,23.43167 5.48166,-0.1 37.57666,-1.41167 58.1,-35.85 C 253.245,175.59167 248.925,137.75167 222.025,111.62667 192.80833,83.24833 149.12,85.45333 119.96333,96.59333 Z"
       id="path36992"
       style="fill:#fcd20f;fill-opacity:1" />
    <path
       d="m 157.24167,137.8343 20.13333,-20.19 -6.65333,-6.20667 -26.37,-1.82 -37.72167,35.23334 21.21167,21.02666 18.15,-16.88 c 27.61166,28.71167 79.62333,83.23834 83.80666,87.96667 4.18334,4.73 17.02667,-6.45167 12.74667,-11.39 -4.28,-4.93667 -66.22,-71.11667 -85.30333,-87.74 z"
       id="path36994"
       style="fill:#fcd20f;fill-opacity:1" />
  </g>
  <path
     style="font-weight:bold;font-size:80px;font-family:'Century Schoolbook';text-anchor:middle;fill:#fcd20f"
     d="m 99.840408,281.26041 21.679692,51.79687 q 0.9375,2.1875 2.03125,2.96875 1.09375,0.78125 2.89062,0.78125 h 2.10938 v 3.63281 h -27.10938 v -3.63281 h 2.53906 q 3.00782,0 4.14063,-0.66406 1.13281,-0.66406 1.13281,-1.75781 0,-0.85938 -0.46875,-1.99219 l -4.49219,-10.70313 H 82.731033 l -2.109375,4.88282 q -1.289062,3.04687 -1.289062,4.53125 0,2.53906 1.875,4.14062 1.875,1.5625 5.117187,1.5625 h 1.835938 v 3.63281 H 66.246658 v -3.63281 h 1.25 q 2.109375,0 3.710938,-1.32812 2.265625,-1.875 3.515625,-4.80469 l 20.742187,-49.41406 z m -6.289062,14.60937 -9.21875,21.99219 h 18.359374 z m 41.367184,8.00781 h 31.60157 v 3.51563 l -21.83594,29.41406 h 10.3125 q 3.35937,0 5.54687,-2.42187 2.22657,-2.42188 3.28125,-8.55469 h 3.4375 l -0.74218,14.60937 h -34.14063 v -3.63281 l 21.79688,-29.41406 h -8.63282 q -3.00781,0 -5,2.22656 -1.99218,2.22656 -2.89062,7.69531 h -3.47656 z m 75.625,-16.79687 3.63282,-5.15625 h 2.77343 l 0.35157,19.96094 h -3.51563 q -2.73437,-8.59375 -7.77344,-12.85157 -5.03906,-4.29687 -11.13281,-4.29687 -5.19531,0 -8.47656,2.85156 -3.24219,2.8125 -3.24219,6.75781 0,2.34375 1.28906,4.29688 1.28907,1.95312 4.14063,3.35937 2.89062,1.36719 10.07812,2.85157 8.39844,1.75781 11.60157,3.16406 5.07812,2.26562 7.61718,6.01562 2.53907,3.71094 2.53907,9.0625 0,8.00782 -5.50782,12.77344 -6.64062,5.74219 -16.44531,5.74219 -9.02344,0 -16.48437,-6.28906 l -4.57032,5.70312 h -2.85156 v -21.40625 h 3.39844 q 5.11719,18.32031 20.78125,18.32031 6.40625,0 9.96094,-2.92968 3.55468,-2.96875 3.55468,-7.38282 0,-3.08593 -1.5625,-5.15625 -1.5625,-2.10937 -4.84375,-3.39843 -1.79687,-0.70313 -8.90625,-2.22657 -9.57031,-2.10937 -13.67187,-4.33593 -4.0625,-2.26563 -5.97656,-5.50782 -1.91407,-3.28125 -1.91407,-7.96875 0,-7.89062 5.27344,-12.85156 5.3125,-5 14.21875,-5 8.55469,0 15.66406,5.89844 z m 53.35938,0 3.63281,-5.15625 h 2.77344 l 0.35156,19.96094 h -3.51562 q -2.73438,-8.59375 -7.77344,-12.85157 -5.03906,-4.29687 -11.13281,-4.29687 -5.19532,0 -8.47657,2.85156 -3.24218,2.8125 -3.24218,6.75781 0,2.34375 1.28906,4.29688 1.28906,1.95312 4.14062,3.35937 2.89063,1.36719 10.07813,2.85157 8.39844,1.75781 11.60156,3.16406 5.07813,2.26562 7.61719,6.01562 2.53906,3.71094 2.53906,9.0625 0,8.00782 -5.50781,12.77344 -6.64063,5.74219 -16.44531,5.74219 -9.02344,0 -16.48438,-6.28906 l -4.57031,5.70312 h -2.85156 v -21.40625 h 3.39843 q 5.11719,18.32031 20.78125,18.32031 6.40625,0 9.96094,-2.92968 3.55469,-2.96875 3.55469,-7.38282 0,-3.08593 -1.5625,-5.15625 -1.5625,-2.10937 -4.84375,-3.39843 -1.79688,-0.70313 -8.90625,-2.22657 -9.57031,-2.10937 -13.67188,-4.33593 -4.0625,-2.26563 -5.97656,-5.50782 -1.91406,-3.28125 -1.91406,-7.96875 0,-7.89062 5.27344,-12.85156 5.3125,-5 14.21875,-5 8.55468,0 15.66406,5.89844 z m 18.51562,-4.41406 h 30.15625 q 7.34375,0 11.95313,1.91406 4.64844,1.875 6.91406,5.15625 2.26563,3.24219 2.26563,7.22656 0,6.36719 -5.70313,10.3125 -4.33594,3.00781 -13.35937,3.90625 4.53125,0.74219 6.95312,2.38281 2.46094,1.60157 4.33594,4.80469 2.46094,4.21875 4.02344,10.11719 0.97656,3.78906 1.71875,4.76562 0.74218,0.97657 1.67968,0.97657 2.57813,0 3.08594,-6.83594 h 3.4375 q -0.39062,7.26562 -3.24219,10.42969 -2.85156,3.125 -8.04687,3.125 -3.71094,0 -5.97656,-1.52344 -2.22657,-1.52344 -3.39844,-4.45313 -0.70313,-1.67968 -1.95313,-7.89062 -1.44531,-7.26563 -2.61718,-9.76563 -1.13282,-2.5 -2.96875,-3.71093 -1.83594,-1.21094 -4.53125,-1.21094 h -4.25782 v 21.28906 q 0,1.40625 0.82032,2.14844 1.17187,0.97656 2.73437,0.97656 h 5.23438 v 3.63281 h -29.25782 v -3.63281 h 4.53125 q 1.75782,0 2.65625,-0.89844 0.89844,-0.9375 0.89844,-2.57812 v -43.55469 q 0,-1.79687 -0.82031,-2.61719 -0.82031,-0.85937 -2.34375,-0.85937 h -4.92188 z m 20.46875,26.21093 h 4.88282 q 6.48437,0 10.23437,-3.32031 2.8125,-2.53906 2.8125,-8.55469 0,-5.54687 -2.77344,-8.08593 -2.77343,-2.57813 -9.60937,-2.57813 -3.67188,0 -4.60938,0.82031 -0.9375,0.78125 -0.9375,3.55469 z"
     id="text37000"
     aria-label="AzSSR" />
</svg>
