<?xml version="1.0" encoding="UTF-8"?>
<!DOCTYPE svg PUBLIC "-//W3C//DTD SVG 1.1//EN" "http://www.w3.org/Graphics/SVG/1.1/DTD/svg11.dtd">
<!-- Creator: CorelDRAW -->
<svg xmlns="http://www.w3.org/2000/svg" xml:space="preserve" width="600px" height="300px" style="shape-rendering:geometricPrecision; text-rendering:geometricPrecision; image-rendering:optimizeQuality; fill-rule:evenodd; clip-rule:evenodd"
viewBox="0 0 600 300"
 xmlns:xlink="http://www.w3.org/1999/xlink"
 version="1.1"
 xmlns:a="http://ns.adobe.com/AdobeSVGViewerExtensions/3.0/"
 enable-background="new 0 0 591 295">
 <defs>
  <style type="text/css">
   <![CDATA[
    .str0 {stroke:black;stroke-width:0.0762}
    .fil2 {fill:none}
    .fil0 {fill:#CC0000}
    .fil1 {fill:gold}
    .fil3 {fill:gold;fill-rule:nonzero}
   ]]>
  </style>
 </defs>
 <g id="Слой_x0020_1">
  <metadata id="CorelCorpID_0Corel-Layer"/>
  <rect class="fil0" x="-0.0593" y="0.037" width="600" height="300"/>
  <g id="_61806528">
   <path id="path1376" class="fil1" d="M112.018 23.7528c19.6884,7.115 32.0495,23.7072 32.1441,35.8505 0.21,26.881 -29.1348,39.8781 -48.0515,18.2141l-1.3252 0.9749 0.3333 2.3178c-4.1529,-0.3938 -8.4028,8.6916 -11.6547,11.2431 -3.6433,3.9701 -9.0717,-0.2645 -5.16,-5.1054 3.0211,-4.3441 10.1139,-6.3077 11.2839,-11.6684l2.1899 0.1657 1.9222 -1.9764 1.7275 0.324 2.3096 -2.3846c18.3969,19.4914 42.4867,3.7774 37.859,-15.0072 -1.3542,-14.8697 -11.1355,-23.3577 -23.5781,-32.9481l0 0z"/>
   <path id="_120391944" class="fil2 str0" d="M81.7864 82.5326l0 0 0 0 0 0m0 0m0 0m0 0"/>
   <path id="polygon1374" class="fil1" d="M81.7864 46.7659l8.1807 8.2345 6.5906 -6.8622c14.8022,15.2957 29.6043,30.5911 44.4065,45.8865 3.2859,-0.7469 5.0552,-2.0224 6.1055,-5.8289l-45.6296 -44.861 9.2083 -8.2348 -13.4086 -3.6599 -15.4534 15.3258z"/>
  </g>
  <path class="fil3" d="M50.2168 109.315l-11.4699 13.2048c0.3212,0 2.6988,0.8354 7.1325,2.5061 4.4338,1.6707 6.7471,2.506 6.9397,2.506 0,0.1285 -2.4095,3.1486 -7.2288,9.0603 -6.49,7.9035 -10.988,13.4297 -13.494,16.5782 -4.8836,6.0402 -7.3253,9.1888 -7.3253,9.4459 0.257,0 3.9036,0.9638 10.9397,2.8915 7.0362,1.9277 13.9599,3.7912 20.7712,5.5904 3.5983,1.0281 7.2288,2.0562 10.8916,3.0843l0 -9.3495c-0.7712,-0.0642 -3.47,-0.8513 -8.0965,-2.3613 -4.6265,-1.5101 -9.3012,-3.0523 -14.0241,-4.6265 -4.7229,-1.5744 -7.3735,-2.3936 -7.9518,-2.4579 0.0642,0 1.7349,-1.992 5.012,-5.9759 5.0121,-6.1044 8.6426,-10.6024 10.8916,-13.494 4.3053,-5.5903 7.6466,-10.2811 10.0242,-14.0722 -0.4499,-0.0643 -2.6668,-0.8032 -6.6506,-2.2169 -3.984,-1.4136 -6.1045,-2.1205 -6.3615,-2.1205 0,-0.1927 1.0602,-1.6064 3.1807,-4.2409 0.7068,-0.8354 1.7671,-2.1527 3.1808,-3.9519l-6.3615 0zm42.6988 60.8193l16.8674 0 0 -39.5181 -7.3252 0 0 33.8314c0,1.1565 -0.466,2.0723 -1.3976,2.7469 -0.9318,0.6746 -1.8796,1.0121 -2.8434,1.0121 -1.1567,0 -2.2008,-0.3374 -3.1326,-1.0121 -0.9317,-0.6746 -1.3975,-1.5903 -1.3975,-2.7469l0 -26.4097c0,-2.9558 -1.0924,-5.0121 -3.2771,-6.1686 -1.6064,-0.8354 -3.8876,-1.2531 -6.8434,-1.2531l-4.5301 0 0 -21.3012 -7.3021 0 -0.0233 61.0803 7.3719 0 -0.0465 -38.0441 4.5301 0c0.514,0 1.1727,0.4337 1.9759,1.3012 0.8032,0.8675 1.2048,1.6867 1.2048,2.4578l0 26.0241c0,1.9919 0.6747,3.8233 2.0241,5.4939 1.3494,1.6708 2.7309,2.5061 4.1446,2.5061zm34.6988 -7.518l0 -53.3013 -9.4458 0 0 49.7349c0,2.8272 0.9639,5.3817 2.8916,7.6627 1.9276,2.2811 4.1125,3.4217 6.5542,3.4217l14.5542 0c2.4418,0 4.6908,-1.2048 6.747,-3.6144 2.0562,-2.4097 3.0844,-5.0603 3.0844,-7.9519l0 -49.253 -9.8314 0 0 53.3013c0,1.7348 -0.7389,3.1004 -2.2168,4.0963 -1.4778,0.9959 -3.1486,1.494 -5.012,1.494 -1.992,0 -3.711,-0.482 -5.1567,-1.4458 -1.4458,-0.9639 -2.1687,-2.3454 -2.1687,-4.1445zm54.4579 -53.3013l-11.4699 13.2048c0.3213,0 2.6988,0.8354 7.1326,2.5061 4.4337,1.6707 6.747,2.506 6.9397,2.506 0,0.1285 -2.4096,3.1486 -7.2289,9.0603 -6.4899,7.9035 -10.988,13.4297 -13.494,16.5782 -4.8835,6.0402 -7.3253,9.1888 -7.3253,9.4459 0.257,0 3.9036,0.9638 10.9397,2.8915 7.0362,1.9277 13.9599,3.7912 20.7712,5.5904 3.5983,1.0281 7.2289,2.0562 10.8916,3.0843l0 -9.3495c-0.7711,-0.0642 -3.4699,-0.8513 -8.0965,-2.3613 -4.6264,-1.5101 -9.3011,-3.0523 -14.024,-4.6265 -4.723,-1.5744 -7.3736,-2.3936 -7.9518,-2.4579 0.0642,0 1.7349,-1.992 5.012,-5.9759 5.012,-6.1044 8.6426,-10.6024 10.8915,-13.494 4.3053,-5.5903 7.6467,-10.2811 10.0242,-14.0722 -0.4498,-0.0643 -2.6667,-0.8032 -6.6506,-2.2169 -3.984,-1.4136 -6.1045,-2.1205 -6.3615,-2.1205 0,-0.1927 1.0602,-1.6064 3.1807,-4.2409 0.7069,-0.8354 1.7671,-2.1527 3.1808,-3.9519l-6.3615 0z"/>
 </g>
</svg>
