<svg xmlns="http://www.w3.org/2000/svg" width="655.23798" height="393.14301" version="1.0" viewBox="0 0 614.28562 368.57157">
  <path style="fill:#d62612;fill-opacity:1;stroke:none;stroke-width:.96895027;stroke-linecap:round;stroke-opacity:.98265884" d="M20.625-1.4285811h614.28571V367.14286H20.625Z" transform="translate(-20.625 1.4287079)"/>
  <path style="fill:#fed018;fill-opacity:1;stroke-width:.9375" d="m2768.8435-349.64147-12.8907-.30235V-397.82221l3.0469.29378 3.0469.29377v41.7198l7.6361-.00052 7.6361-.00053.6863-20.625.6864-20.625h5.3505l.2523 20.85938.2523 20.85937 7.7344.27229 7.7343.27229V-396.76591h6.5947l-.2504 23.67188-.2505 23.67187-12.1875.0415c-6.7031.0229-17.9883-.0945-25.0781-.26083zm65.1375-7.85742c-13.1617-6.51489-18.1466-26.36967-9.5872-38.18557 5.5683-7.68673 18.6618-10.92121 27.6608-6.83303 9.7576 4.43279 15.9827 18.11184 13.5578 29.79229-.9344 4.50109-1.8698 6.09971-5.9313 10.13647-7.2883 7.24382-17.3306 9.23268-25.7001 5.08984zm19.7443-6.71003c6.8664-5.2372 7.9209-14.76765 2.768-25.0151-3.9259-7.80746-9.4586-10.77132-17.4387-9.34195-10.1808 1.82356-14.8272 11.18484-11.4012 22.97014 3.118 10.72532 7.9224 14.74449 17.015 14.23418 4.4815-.25153 6.4757-.87844 9.0569-2.84727zM2702.281-357.466c-.9024-.52557-1.6407-2.0385-1.6407-3.36209 0-2.06434.3-2.31355 2.1094-1.75273 5.8366 1.809 6.3063 1.72533 9.5356-1.69877l3.1726-3.36392-6.0684-18.87031c-3.3377-10.37867-5.9121-19.02663-5.7211-19.2177.1911-.19107 1.582-.0172 3.091.38634 2.5844.6912 2.9644 1.46387 6.5546 13.32837 2.0961 6.92706 4.2211 14.03666 4.7224 15.79911l.9113 3.20446 9.2863-12.81384c8.0764-11.14443 9.6248-12.81383 11.8847-12.81383 1.4292 0 2.8048.33387 3.057.74193.5273.85311-23.1724 32.64985-28.2711 37.92994-2.8404 2.94152-4.0144 3.51097-7.1889 3.48712-2.0868-.0157-4.5324-.45851-5.4347-.98408zm176.5959-28.14496c-3.7458-11.91838-7.0022-22.16921-7.2364-22.77959-.2678-.69775 2.2812-1.92935 6.8651-3.31709 18.2401-5.52201 20.8164-5.60738 25.5763-.84751 3.7409 3.74094 4.4575 8.18457 2.0911 12.96741-1.8259 3.69056-1.8269 3.75933-.056 3.75933 5.5782 0 10.1484 5.48849 10.1484 12.1875 0 9.03742-4.0377 11.7082-29.1172 19.25986-1.1705.35245-2.8145-3.86723-8.2713-21.22991zm19.3263 11.83658c8.9655-2.83219 11.4996-4.94955 11.4996-9.60825 0-4.59465-2.9881-7.75828-7.3279-7.75828-2.7568 0-15.8984 3.30877-16.9091 4.2573-.1819.17074.5894 3.18503 1.714 6.69844 1.1246 3.5134 2.2094 6.91535 2.4107 7.55988.469 1.50179.04 1.55903 8.6127-1.14909zm-1.44-22.86691c3.4067-1.31795 5.7756-5.06625 4.9377-7.8131-1.0892-3.57131-3.3454-5.43652-6.5759-5.43652-4.337 0-15.4222 3.60245-15.4222 5.01188 0 .65261.8653 3.74878 1.9229 6.88039l1.9228 5.69383 5.3428-1.67902c2.9385-.92347 6.4809-2.11932 7.8719-2.65746zm-246.0447 27.35413c-.9024-.2358-1.6412-.92514-1.6419-1.53186 0-1.78655 12.3761-43.21361 13.1781-44.10481.8926-.99185 21.7375 5.42201 25.9005 7.9694 1.8804 1.15069 3.5542 3.31995 4.527 5.86703 2.0009 5.2393.633 10.89667-3.6769 15.20655-4.2543 4.25432-8.077 4.73279-17.5685 2.19904-11.9303-3.18473-11.0539-3.57986-14.1267 6.36902-1.5288 4.94975-3.1661 8.6252-3.8147 8.56313-.625-.0598-1.8746-.30169-2.7769-.5375zm33.5271-20.59298c3.5337-3.53368 3.7982-8.24525.6633-11.81481-1.3177-1.50039-14.6053-6.32096-17.4234-6.32096-1.2217 0-5.949 14.64611-5.0254 15.56977.2801.28013 2.9736 1.28275 5.9854 2.22802 7.1359 2.23962 13.7569 2.38126 15.8001.33798zm-55.503 12.36481c-2.3896-1.03922-3.1148-2.02227-3.604-4.88518-2.0526-12.01207-4.4136-19.87762-6.5768-21.90983-1.259-1.18276-2.4456-1.97302-2.6369-1.75614-.1913.21688-1.9109 4.61307-3.8214 9.76932-1.9104 5.15625-3.8008 9.7116-4.2007 10.123-.985 1.01312-5.8655-1.29215-5.4106-2.55561.199-.55269 3.9067-10.42069 8.2394-21.92889l7.8775-20.924 2.7441.54314c1.5093.29873 2.8898.6888 3.0678.86682.1781.17802-1.1623 4.21763-2.9785 8.97691-4.1239 10.80649-4.1308 11.30488-.1565 11.30488 2.5364 0 4.3305-1.0857 9.2634-5.60576 7.4229-6.80179 9.9018-7.89489 14.8698-6.55714 3.5431.95405 4.2395 2.05821 3.1271 4.95734-.3931 1.02432-1.4954 1.25602-4.2304.88917-3.4448-.46204-4.0516-.16244-8.8362 4.36265-2.8256 2.67231-6.3743 5.28993-7.886 5.81692l-2.7487.95817 1.8449 3.12678c1.389 2.3542 6.4504 22.2349 6.4504 25.33657 0 .73501-1.1766.49177-4.3977-.90912zm306.7215-12.56685c-5.1413-2.33552-12.1193-10.34968-14.4609-16.60799-3.6556-9.77061-1.8314-18.54648 5.1249-24.65418 7.2988-6.40839 16.2364-7.64889 23.6799-3.28667l4.1762 2.4474-2.3121 2.31211-2.3121 2.31211-3.188-1.9435c-9.7373-5.93629-22.7476 3.31809-20.9009 14.86707.8133 5.08586 5.9617 13.97624 9.9745 17.22403 9.6559 7.81522 24.003.47681 22.938-11.73264-.3704-4.24634-.2814-4.43247 2.4031-5.02208 3.2477-.71331 4.3953.52166 4.4091 4.74436.018 5.55192-1.992 10.25534-6.055 14.16882-6.7286 6.48105-16.0658 8.53772-23.4767 5.17116zm-367.9745-16.68536c-1.2749-.86027-2.4059-1.6161-2.5132-1.67961-.1074-.0635.4049-2.62918 1.1384-5.70149 2.2438-9.39748 2.3052-9.25713-6.5919-15.05653l-7.9923-5.2097-5.7774 4.29323c-6.4519 4.79445-7.1814 4.98725-10.0366 2.6526-1.984-1.62232-1.7903-1.79745 17.3722-15.70312 10.6583-7.73438 19.9544-14.40128 20.6582-14.81533 2.0704-1.21817 7.0756 2.23234 6.5228 4.49677-.6178 2.53109-9.0045 46.95984-9.0045 47.70179 0 1.00226-1.3642.64869-3.7757-.97861zm2.3274-24.92025c.2543-1.16015 1.3171-5.83409 2.3616-10.38652 1.0446-4.55243 1.8992-8.68109 1.8992-9.1748 0-.49371-2.4397 1.12163-5.4215 3.58964-2.9818 2.46802-6.9865 5.542-8.8993 6.83106-1.9128 1.28906-3.3709 2.67381-3.2402 3.07721.2582.79733 11.0337 7.97863 12.1526 8.09904.3768.0406.8933-.87547 1.1476-2.03563zm408.3898 20.625c-.4535-1.16015-4.8713-10.33593-9.8174-20.39062-4.946-10.05469-8.9942-18.58682-8.9959-18.9603 0-.37348 1.2068-1.30477 2.6857-2.06953l2.6889-1.39048 4.322 9.37906c3.966 8.60674 4.4762 9.29648 6.1958 8.37617 3.0443-1.62921 3.7919-4.12622 3.7919-12.6636 0-9.37825 1.2678-12.61737 5.8107-14.84623 2.8653-1.40572 3.1828-1.40286 4.2675.0385 1.3241 1.75963 1.5563 4.01138.4135 4.01138-.4171 0-1.5772.59782-2.5781 1.32847-1.4984 1.0938-1.9126 2.87404-2.345 10.07813-.2888 4.81231-.8613 9.48793-1.2721 10.39027-.5847 1.28401-.3112 1.64063 1.2583 1.64063 3.068 0 7.2475 2.02376 16.4221 7.95173l8.3832 5.41659-3.3879 1.73809-3.3879 1.73809-9.0715-5.70153c-4.9893-3.13585-10.1903-6.00199-11.5577-6.36921-2.9199-.78411-5.7676-.32063-5.7676.93872 0 .48812 1.8985 4.6675 4.2188 9.28752 4.5974 9.15396 4.9753 10.75906 2.7358 11.61845-2.713 1.04106-4.1802.59024-5.0131-1.54033zm30.585-45.3831c-7.5316-25.17437-7.549-25.32126-3.2753-27.60848 1.4248-.76252 5.6976 1.34746 23.0458 11.38046 11.7132 6.7741 21.6161 12.62127 22.0064 12.99371.3902.37244-.5546 1.61173-2.0995 2.75399l-2.8091 2.07681-5.9706-3.77075c-3.2838-2.07392-6.401-3.77076-6.9272-3.77076-.5262 0-4.2774 2.5483-8.3362 5.6629-8.1315 6.23996-8.0047 5.86404-4.9618 14.70831l1.8147 5.27462-2.0452 2.17709c-1.1249 1.19739-2.3153 2.17708-2.6453 2.17708-.33 0-3.8385-10.82474-7.7967-24.05498zm13.2054-4.90725 5.888-4.57048-9.6293-5.96802c-11.878-7.36171-11.4966-7.20806-9.8385-3.96274.7536 1.47523 2.4898 6.37363 3.858 10.88534 1.3682 4.51172 2.7905 8.19936 3.1607 8.19475.3701-.005 3.3226-2.06509 6.5611-4.57885zm-501.1843 22.11464-2.0293-2.1601 6.4913-7.67275c3.5702-4.22001 6.729-8.05744 7.0196-8.5276.5035-.81459-16.6536-16.04196-18.0749-16.04196-.3745 0-3.6181 3.56092-7.2082 7.91318-3.59 4.35224-6.9893 7.93817-7.5539 7.96875-.5646.0306-1.7715-.76755-2.6819-1.7736-1.9496-2.15419-3.4728.058 15.4272-22.40585 6.961-8.27353 13.1182-15.06465 13.6829-15.09138.5646-.0267 1.775.77848 2.6899 1.78937 1.6136 1.78303 1.478 2.06017-4.5379 9.27282l-6.2012 7.43485 9.0041 7.60218c4.9523 4.18121 9.3429 7.60218 9.7568 7.60218.414 0 3.3937-3.14011 6.6214-6.97802 5.0209-5.9699 6.124-6.84141 7.6356-6.03243.9718.52008 1.9943 1.53835 2.2723 2.26281.3053.79552-5.4873 8.38277-14.626 19.15742-8.3222 9.81213-15.25 17.84022-15.3949 17.84022-.145 0-1.1768-.97204-2.2929-2.16009zm196.0022-31.65165c-6.0132-.78188-7.7373-1.37474-7.7373-2.66072 0-.40525 10.3434-7.84651 22.9852-16.53614 12.6418-8.68963 22.8723-16.11198 22.7343-16.49411-.1379-.38212-3.83-3.48766-8.2046-6.90119-8.614-6.72149-7.9565-6.70791-10.2985-.2127-1.3301 3.6889-3.6704 4.29846-5.9071 1.53856-1.0098-1.24614-3.735-6.06259-6.0559-10.70321-2.3209-4.64063-4.3692-8.60036-4.5517-8.79942-.1825-.19906-2.8563 1.97536-5.9419 4.83205-8.0252 7.4299-12.0013 8.56577-27.6224 7.89089-14.6322-.63215-21.1999-1.95592-21.1999-4.273 0-2.02723 6.9249-8.7641 11.25-10.94461 5.4733-2.75934 12.133-4.13125 23.2032-4.77992 5.8007-.3399 10.5418-.87011 10.5357-1.17824-.01-.30814-3.6805-2.45869-8.1654-4.779s-13.4313-7.69922-19.8811-11.95313c-6.4497-4.2539-11.9575-7.73437-12.2395-7.73437-.282 0-1.2461 2.06483-2.1425 4.5885-1.6903 4.75914-3.8065 6.47549-5.8713 4.76186-.6591-.54697-2.7692-5.30034-4.6891-10.56305-1.92-5.26271-3.6231-9.71982-3.7846-9.90469-.1617-.18488-2.3223 1.34986-4.8015 3.41052-7.0441 5.85489-10.1269 7.06377-19.1748 7.51901-6.0616.30499-10.5518-.11604-17.8125-1.67023-14.318-3.06485-15.3595-4.01177-9.9422-9.03918 7.2532-6.7311 13.537-8.74636 29.4808-9.45471l12.3714-.54964-5.3401-3.20241c-13.0805-7.84416-30.0888-22.7604-39.1284-34.31551l-2.7973-3.57577-3.0161 4.2789c-3.1097 4.41184-6.1125 5.55997-7.1909 2.74954-.3228-.84116-1.028-5.79819-1.5671-11.01563-.5391-5.21745-1.161-10.39161-1.3818-11.49816l-.4017-2.01191-7.2722 2.32938c-9.2739 2.97056-14.9268 2.46833-24.292-2.15821-7.5811-3.74517-22.3552-15.1381-22.3552-17.23906 0-2.24681 5.1336-4.05806 12.6562-4.46536 8.2019-.44408 13.3738.98284 27.25 7.51824l8.9687 4.22409-3.1955-8.50752c-3.6997-9.84963-6.3934-22.75811-7.3254-35.10384-.3598-4.76722-.6992-8.66744-.7542-8.66719-.055.00026-2.3814.86765-5.17 1.92755-4.5974 1.74736-5.2069 1.79043-6.5354.46198-1.3284-1.32845-.9648-2.42611 3.8984-11.76969 2.9499-5.66752 5.3634-10.45506 5.3634-10.63898 0-.18391-2.9858-.5847-6.6351-.89066-7.9493-.66644-13.1129-2.98953-18.6176-8.37594-6.9256-6.77679-17.6368-24.72046-16.5098-27.65747.8732-2.27547 10.0043-.90619 17.0336 2.55433 4.6376 2.28307 8.1158 5.24417 16.3036 13.8797 9.0757 9.572 10.0233 10.34715 7.4009 6.05438-2.4604-4.0278-3.0875-6.17239-3.4482-11.79316-.5403-8.41897 1.0191-14.43548 7.0269-27.11189 5.3113-11.20669 6.4543-11.55067 10.574-3.18224 4.3661 8.86862 4.6054 16.25537 1.0675 32.94787-1.53 7.21875-2.6754 13.23311-2.5454 13.36525.13.13213 3.1424-3.87568 6.6941-8.90625 10.7679-15.25128 19.3514-22.06473 29.5143-23.42785 5.1915-.69634 5.3872.86303 1.3384 10.66752-4.2809 10.36673-8.6497 17.61549-13.275 22.02616-4.5937 4.38052-7.8486 5.97831-15.0748 7.39996-3.216.63273-5.8474 1.31438-5.8474 1.51478 0 .2004 2.1094 4.48687 4.6875 9.52549 5.3351 10.42666 5.9792 14.24119 2.4048 14.24119-1.2555 0-3.4234-.43368-4.8175-.96373-1.3941-.53005-2.7055-.79301-2.9142-.58435-.2086.20865 2.0526 10.39551 5.025 22.63747l5.4043 22.2581 1.9812-12.06437c1.0896-6.6354 2.9027-14.14014 4.0292-16.67719 2.4941-5.61732 7.3818-11.69432 11.174-13.89287 4.5609-2.64425 5.2127-.90154 5.6689 15.15729.5421 19.08482-.5192 22.67437-9.2429 31.25997l-6.4512 6.34906 4.7218 2.55719c11.6135 6.28946 14.4302 8.24375 14.7106 10.2066.2297 1.6071-.4329 2.24409-3.2812 3.15476-1.963.62759-3.8999 1.44207-4.3043 1.80997-.6061.55136 37.3402 33.63936 41.3377 36.0452.6751.40629-.4619-2.62124-2.5267-6.72783-6.2715-12.47351-7.8612-18.28079-7.409-27.06595.2672-5.19252.925-8.44646 2.0564-10.17316l1.6634-2.53873 2.8381 2.67316c5.1385 4.83975 12.6687 14.86196 15.744 20.9542 4.0349 7.99311 4.5929 14.36118 2.0122 22.96337-1.0771 3.59039-1.6541 6.81177-1.2821 7.15862.372.34685 4.8123 1.74638 9.8675 3.11006 11.5209 3.10791 13.7775 4.13656 13.7775 6.28034 0 .95781-1.651 2.80381-3.75 4.19285-2.0625 1.3649-3.75 2.59118-3.75 2.72506s6.4336 4.44178 14.2969 9.57311c14.0403 9.16224 26.9531 16.77943 26.9531 15.89943 0-.24543-.8761-4.60595-1.9469-9.69005-2.3895-11.3446-2.5891-23.5849-.4785-29.3357 1.6373-4.46125 5.7128-10.37688 7.1489-10.37688 1.2678 0 7.0554 11.8683 9.8562 20.21159 1.7227 5.13198 2.3995 9.12434 2.3995 14.155 0 6.26623-.3522 7.64775-3.332 13.06885-2.2759 4.14033-2.961 6.16982-2.1615 6.40234.6438.18724 5.5897 1.02202 10.9908 1.85506 11.2206 1.73062 13.5875 3.10724 10.7443 6.24896-.9955 1.10009-2.9712 2.60061-4.3904 3.33451-1.4192.73388-2.5804 1.71163-2.5804 2.17277 0 .46112 3.7821 3.61436 8.4046 7.00717 10.5065 7.71157 12.9168 7.99169 20.3668 2.36694l5.0354-3.8018-4.4815-2.99507c-7.6053-5.08275-5.4873-7.30855 8.6435-9.08325 4.6406-.58283 8.9445-1.22334 9.5643-1.42339.7542-.24348.057-2.41623-2.1094-6.57232-2.8505-5.46862-3.2362-7.04675-3.2362-13.24081 0-5.01713.6727-9.03602 2.3475-14.02512 3.1531-9.39295 8.613-20.05643 10.2694-20.05643.7388 0 2.885 3.11961 4.7694 6.93247 3.1315 6.33618 3.4234 7.60622 3.3935 14.76562-.018 4.30824-.9039 11.99289-1.9687 17.07699-1.0648 5.0841-1.9361 9.65556-1.9361 10.1588 0 .50325 2.8407-.67356 6.3125-2.61515 9.1991-5.14444 34.2928-21.41436 34.6374-22.45774.162-.49073-1.2862-1.73599-3.2182-2.76724-2.1085-1.12537-3.6281-2.68336-3.801-3.89691-.2388-1.67537.5646-2.33791 4.6875-3.86568 2.7366-1.01408 8.2451-2.60714 12.2412-3.54014 3.9961-.93299 7.2624-1.93562 7.2585-2.22806 0-.29244-.8445-3.2739-1.8679-6.62546-4.1876-13.71455-1.001-23.14304 13.7162-40.58318 3.1082-3.68339 5.9791-6.24726 6.8149-6.08629 2.0236.38971 3.6868 6.61631 3.7719 14.12092.083 7.35638-1.9354 14.1244-7.5349 25.26132-2.0648 4.10659-3.2018 7.13408-2.5267 6.72773 2.272-1.36756 42.0086-35.40101 42.0086-35.97937 0-.31473-1.8984-1.08001-4.2187-1.70059-3.1585-.84477-4.2188-1.58443-4.2188-2.94311 0-2.13117 2.4387-3.93884 12.7625-9.4602l7.6062-4.06794-4.4811-3.54207c-10.5323-8.32538-12.5683-14.07878-11.9374-33.73444.5485-17.08641 1.2753-18.58991 6.9125-14.29865 7.8888 6.00532 11.9488 15.484 14.6051 34.09837l1.1372 7.96875 5.4787-22.39065c3.0133-12.31485 5.3587-22.51079 5.2118-22.65763-.1468-.14684-2.3024.19878-4.7901.76805-7.6271 1.74534-7.5251-1.28768.5335-15.85334l4.2234-7.63355-3.8655-.59601c-15.0142-2.31498-22.924-9.97568-31.0103-30.0337-1.8592-4.6118-3.1484-8.98958-2.8649-9.72839.7436-1.9378 7.7151-.79612 13.7202 2.24687 6.2258 3.15484 11.9504 8.98429 19.9717 20.33735 3.5543 5.03057 6.6081 9.00073 6.7862 8.82255.1782-.17817-.8087-5.13784-2.193-11.0215-1.7501-7.43803-2.5374-13.41727-2.5837-19.62352-.062-8.27877.1585-9.38336 3.0389-15.23437 4.3088-8.75238 5.3929-8.4665 10.7403 2.83221 8.9003 18.8057 9.5979 28.8332 2.7882 40.07813-1.4907 2.46171 1.3152-.0213 8.1674-7.22746 12.3017-12.9371 18.7183-16.85204 27.9257-17.03833 5.126-.10372 5.3858.00094 5.1602 2.08083-.4265 3.93087-9.0132 18.18905-14.5272 24.12242-6.2915 6.76997-11.938 9.58771-20.8876 10.42343-3.3365.31157-6.0664.71715-6.0664.90129 0 .18413 2.3831 4.91338 5.2958 10.50942 2.9127 5.59605 4.9972 10.65783 4.6322 11.24839-.9205 1.48949-4.6607 1.34118-8.6958-.3448-1.8673-.78021-3.4827-1.30755-3.5898-1.17187-.1072.13567-.7082 5.49047-1.3356 11.89955-1.2837 13.11311-4.4388 26.71354-8.0033 34.49952-1.3161 2.87478-2.2202 5.39963-2.0091 5.61077.2112.21114 4.6532-1.75853 9.8712-4.37705 10.5581-5.29829 17.91-7.54236 24.71-7.54236 5.7999 0 12.4779 1.67381 14.0013 3.50938.9974 1.20183.5227 1.99957-3.0186 5.07321-6.823 5.92204-17.6587 13.10372-22.8267 15.12918-6.3518 2.48939-15.2808 2.45222-22.3484-.093-6.265-2.25618-5.9148-2.68044-6.8146 8.25626-1.3769 16.73413-3.6087 19.56087-9.1848 11.63308l-3.0275-4.30442-4.172 5.00754c-10.9385 13.12924-27.0368 27.00089-38.6606 33.31305l-4.8468 2.632 12.1546.5611c7.7853.35941 13.996 1.16703 17.2772 2.24668 8.1441 2.67978 16.6966 9.24281 15.6384 12.00057-.9002 2.34567-17.9536 5.82125-28.3283 5.77347-10.8402-.0499-13.4654-.94643-21.1389-7.21873l-5.2015-4.25162-2.187 6.22551c-4.0749 11.59994-5.8411 15.13174-7.567 15.13174-2.1752 0-3.3098-1.51524-4.7384-6.32813-.6505-2.1914-1.3018-3.98437-1.4472-3.98437-.1455 0-5.465 3.48047-11.8212 7.73437-6.3562 4.25391-15.4279 9.81694-20.1594 12.36228-4.7315 2.54535-8.431 4.90579-8.2211 5.24542.2099.33964 4.9322.8906 10.4941 1.22437 11.5788.69485 18.282 2.26646 23.9538 5.61613 5.297 3.12826 10.4539 8.57684 9.78 10.33303-.89 2.31935-10.6143 3.88968-24.09 3.89018-11.9437.00044-12.9266-.14217-17.4594-2.53328-2.6417-1.39356-6.5491-4.51736-8.6832-6.94177-2.134-2.42441-4.0377-4.23735-4.2303-4.02875-.1926.2086-2.6951 5.07115-5.561 10.80566-6.6129 13.23174-8.4706 14.27522-11.4633 6.43892-.8841-2.31498-1.8666-4.20792-2.1833-4.20653-.979.005-9.0418 7.2828-8.5445 7.71334.2578.22316 9.0118 6.24951 19.4532 13.39188 10.4414 7.14237 18.9843 13.34107 18.9843 13.77489 0 1.44976-4.3923 2.48257-13.3563 3.14056l-8.8863.65229-12.0818-10.13085c-6.645-5.57196-12.8092-10.74349-13.6981-11.49228-1.4658-1.23468-3.1926-.0407-18.5463 12.82435-18.9877 15.90998-17.0139 15.08718-31.6314 13.18655zm49.626-43.70368c-.6767-.27081-1.4853-.23751-1.7969.074-.3115.31152.2422.5331 1.2305.4924 1.0921-.045 1.3143-.26713.5664-.5664zm283.686 27.62336-14.6298-15.26419-5.7528 5.625-5.7529 5.625-1.7245-2.27246-1.7246-2.27246 13.128-12.72754c7.2204-7.00015 13.4415-12.84859 13.8247-12.99654.3831-.14794 1.3797.77353 2.2146 2.04772 1.498 2.28622 1.4434 2.38419-4.1479 7.44402l-5.6659 5.1273 14.7548 15.13978 14.7548 15.13978-2.3244 2.32439-2.3244 2.32439zm18.6348-28.31167c-14.4662-21.82967-14.1656-21.13713-11.1312-25.64589.6285-.93386 6.1894.0501 25.5714 4.52438 13.6225 3.14477 24.8527 5.80225 24.956 5.90549.1032.10326-.6367 1.48979-1.6443 3.08119l-1.832 2.89345-6.2973-1.74619c-3.4635-.96042-6.9683-1.7462-7.7884-1.7462s-3.9613 3.5995-6.9804 7.99889l-5.4895 7.99889 3.7454 5.36049c2.06 2.94826 4.0068 5.80692 4.3263 6.35256.3195.54564-.3433 2.12173-1.4727 3.50243l-2.0536 2.51034zm12.357-10.11493 2.993-4.4124-4.0014-1.03635c-2.2008-.57-6.9814-1.85394-10.6237-2.85322-3.6423-.99928-6.9473-1.81687-7.3444-1.81687-.3972 0 .5102 1.58203 2.0163 3.51562 1.5062 1.9336 4.5239 6.17216 6.7061 9.41902l3.9677 5.9034 1.6467-2.1534c.9058-1.18436 2.9936-4.13897 4.6397-6.5658zm-632.7065 11.77191c-5.3918-7.03822-10.1267-13.34128-10.5219-14.00681-.5007-.84323 4.7326-5.37467 17.2632-14.94792 9.8899-7.55583 18.466-13.92374 19.058-14.1509.592-.22717 5.6118 5.55091 11.1551 12.84018 9.6694 12.7149 10.0133 13.32551 8.4683 15.03271-.8857.97872-1.8917 1.77949-2.2354 1.77949-.3438 0-4.1455-4.6591-8.4482-10.35355-4.3027-5.69446-8.1666-10.56586-8.5864-10.82534-.9317-.57583-11.1123 6.97869-11.1123 8.24588 0 .49732 3.375 5.26249 7.5 10.58926s7.5 9.88317 7.5 10.12533c0 .24214-.9854 1.08595-2.1898 1.8751-2.1546 1.41174-2.315 1.27024-9.9733-8.79843-4.2809-5.62829-8.0153-10.23325-8.2987-10.23325-.2834 0-3.0727 1.97544-6.1986 4.38988-3.1258 2.41444-5.8484 4.51313-6.0502 4.66376-.2018.15064 3.3841 5.23922 7.9687 11.30798 4.5846 6.06875 8.4852 11.37961 8.668 11.8019.3091.71413-2.5135 3.36488-3.654 3.43167-.2801.0164-4.9207-5.72873-10.3125-12.76694zm-22.7995-34.48194c-1.7868-2.72708-4.1449-.84204 18.3252-14.64903 7.056-4.3356 12.7399-7.97207 12.631-8.08104-.109-.10897-8.7588 1.71053-19.2218 4.04332-10.4631 2.3328-19.5998 4.02036-20.304 3.75015-.7042-.27021-1.7279-1.32766-2.275-2.34989-.8633-1.61307.5839-3.75728 10.9543-16.23058 6.5719-7.90457 12.5818-15.20585 13.3552-16.22505 1.3745-1.81117 1.3509-1.81774-1.0447-.29036-14.5723 9.29135-30.895 18.63183-31.6952 18.13729-.55-.33993-1.4229-1.40833-1.9399-2.37424-.8363-1.56274 1.1963-3.06514 18.4517-13.63831 10.6654-6.53515 19.8898-12.07325 20.4986-12.3069 1.0616-.40738 5.1045 5.35753 5.1045 7.27872 0 .51052-5.9067 7.93909-13.1259 16.50794-7.2193 8.56884-13.0078 15.69795-12.8633 15.84248.1446.14452 8.477-1.57021 18.5166-3.81053 24.4705-5.46053 22.2907-5.34719 24.6584-1.28211 1.105 1.89718 1.8036 3.63839 1.5523 3.86934-.8388.77107-37.7573 23.31217-38.8988 23.75017-.6184.23733-1.8241-.63629-2.6792-1.94137zm668.3087-27.61246c-2.5781-.93418-7.3303-3.03749-10.5604-4.67402l-5.873-2.97551 1.414-2.73429 1.4139-2.7343 7.7403 3.55238c9.6922 4.44823 12.183 5.05426 15.1733 3.69177 3.0558-1.39231 4.69-3.93436 6.545-10.18084 2.41-8.11531 2.5673-7.8734-8.8378-13.59327l-10.3284-5.17988 1.4158-2.73776 1.4157-2.73775 20.8658 10.09682c11.4762 5.55324 20.9835 10.70285 21.1273 11.44357.1438.74071-.3052 2.12164-.9977 3.06874-1.2007 1.64197-1.5614 1.57058-7.7615-1.53583-9.204-4.61146-10.7211-4.99749-10.7211-2.72811 0 1.01169-.8314 4.53138-1.8477 7.82155-1.974 6.39125-5.8599 11.10754-10.6352 12.90788-3.4244 1.29106-3.9812 1.2461-9.5483-.77115zm-695.1795-30.63863c-1.294-3.40364-1.441-3.10237 4.3825-8.98725l5.2968-5.35265-3.6561-8.97086-3.6562-8.97085-7.7545-.00056c-7.3649-.00052-7.8082-.11849-8.8242-2.34827-.5883-1.29123-.757-2.66032-.3749-3.04242.9653-.96536 48.578-1.83124 49.9085-.90762.5939.41232 1.359 1.86167 1.7001 3.22078.5629 2.24285-1.0082 4.10121-17.0082 20.1178-9.6956 9.70567-17.9593 17.64668-18.3639 17.64668-.4046 0-1.147-1.08215-1.6499-2.40478zm23.0945-26.56111c7.8499-7.41403 8.1509-7.83685 5.1709-7.26563-1.7402.33359-6.9082.60652-11.4844.60652-6.0274 0-8.3222.32294-8.3274 1.17187-.011 1.78305 5.0826 13.85411 5.7346 13.59041.3142-.12707 4.322-3.7735 8.9063-8.10317zm693.941 15.49723c-11.698-4.1938-21.4793-7.84388-21.7362-8.11131-.88-.91579 10.4129-31.38471 11.7202-31.62198.7068-.12826 1.9178.17882 2.6912.68242 1.2096.78759.83 2.58999-2.7151 12.88945-2.2668 6.5856-4.2975 12.45339-4.5127 13.03952-.2226.60618 1.9588 1.87635 5.0589 2.94572 2.9976 1.03402 6.0916 2.14443 6.8754 2.4676 1.1271.46462 2.304-1.9655 5.625-11.61456 4.2083-12.22676 5.0754-13.40543 8.3418-11.33797 1.102.69751.5945 2.92468-2.9657 13.01468l-4.2952 12.17316 6.7157 2.44423c3.6936 1.34432 7.1852 2.4422 7.759 2.43972.5739-.003 3.1532-6.01624 5.7318-13.3639 3.9733-11.32169 4.9581-13.31167 6.4567-13.04665 4.121.72884 4.3279-.29391-5.4836 27.10915-1.5231 4.25391-3.0458 7.6852-3.3837 7.6251-.338-.0601-10.1856-3.54059-21.8835-7.73438zm-349.1136-28.09465c-.3342-.87104-2.5927-10.26386-5.0187-20.87293l-4.411-19.28923-3.6876-1.75567c-2.4482-1.16561-2.8858-1.59294-1.302-1.27147 1.8543.3764 3.4144-.41489 7.0057-3.55346 4.2273-3.69426 4.4408-3.78311 2.5109-1.04467l-2.1094 2.99301 3.9485 17.44068c2.1716 9.59238 4.2373 16.89396 4.5903 16.22574.7384-1.39763 8.4167-35.21663 8.6258-37.99204.1369-1.81853.1825-1.81741 3.4036.0831 1.7956 1.05944 4.9802 2.16976 7.0769 2.46737 3.6643.52012 3.7288.58736 1.665 1.73392-1.8444 1.02467-2.6043.91022-5.3907-.81184-2.4906-1.53929-3.3395-1.71486-3.6568-.75629-.2273.68661-2.5869 11.16244-5.2436 23.27963-4.6373 21.15064-6.5948 26.80404-8.0069 23.12419zm-383.8885-14.35555c-1.3285-3.49438-1.2054-3.69097 3.0992-4.94631 15.2782-4.45558 16.6403-4.98729 16.6299-6.49177-.01-1.26136-4.5312-17.30806-6.0243-21.37534-.271-.73804-3.701-.0724-10.9201 2.11933-5.7887 1.75743-10.6657 3.05463-10.8377 2.88266-.1719-.17198-.5636-1.56759-.8704-3.10137l-.5577-2.78869 22.3448-6.6221c12.2897-3.64216 22.6068-6.3643 22.927-6.0492.3201.3151.8386 1.66578 1.1522 3.00151.5549 2.36383.3268 2.49933-8.5509 5.07911-5.0165 1.45778-9.2112 2.70521-9.3216 2.77207-.1902.11522 5.6731 20.02994 6.6359 22.53912.3436.89546 2.6769.52301 9.5792-1.5291 5.0188-1.49209 9.265-2.57287 9.4362-2.40174.1711.17113.5614 1.56274.8674 3.09245l.5562 2.7813-8.7496 2.55319c-4.8123 1.40426-14.9958 4.41168-22.6301 6.68315l-13.8804 4.12993zm723.8023-7.72763c0-1.28099 7.5494-36.09038 7.9042-36.44514.1716-.17167 1.4488-.0268 2.8381.32186 1.9756.49584 2.4258 1.06754 2.0662 2.62375-1.8745 8.1118-2.74 12.83945-2.4109 13.1686.2123.21232 8.915 2.18039 19.3393 4.3735 10.4242 2.1931 19.4457 4.29182 20.0475 4.66382 1.6495 1.01942.2018 5.57387-1.7553 5.52255-.8926-.0234-10.0603-1.8541-20.3728-4.06819l-18.75-4.02564-1.7459 7.34944c-1.6806 7.07445-1.8473 7.34944-4.4532 7.34944-1.4889 0-2.7072-.3753-2.7072-.83399zm-365.1562-25.85091c-1.5469-.7083-2.1714-1.32208-1.3877-1.36396 2.0301-.10849 18.7314-17.12597 18.7314-19.08607 0-1.32489.3111-1.43672 1.6574-.59592 1.4663.91571.6483 2.02447-7.0952 9.61732-6.9177 6.78316-8.6681 9.02447-8.3499 10.69165.4642 2.43126.2439 2.47692-3.556.73698zm30.7524-5.48274c-3.3959-2.32365-3.8471-3.5025-3.1173-8.14486.4024-2.5594.6669-2.90539 1.2026-1.57271.3778.9397.2698 2.48769-.2398 3.43999-.5097.95231-.6137 1.87501-.231 2.05046.855.39211 6.3637 6.41765 5.7929 6.33649-.2254-.0321-1.7587-.98127-3.4074-2.10937zm25.0288-.43638c0-1.10291-.7814-2.20514-1.7903-2.52536-.9847-.31253-2.3008-1.18333-2.9248-1.93511-.7895-.95131.2537-.76079 3.431.62662 2.511 1.09644 4.6734 2.08202 4.8055 2.19019.1321.10817-.6062.9626-1.6406 1.89873-1.8256 1.65214-1.8808 1.64466-1.8808-.25507zm-69.7209-2.82225c-.2511-.40632 4.1619-5.40875 9.8067-11.1165 8.6499-8.74626 10.6289-10.30784 12.5888-9.93319 1.279.2445 2.3254.77774 2.3254 1.18498 0 .40725-.849.51842-1.8866.24706-1.4402-.37661-3.9917 1.57093-10.7813 8.22923-4.892 4.79743-8.8946 9.48863-8.8946 10.4249 0 1.68766-2.2808 2.38347-3.1584.96352zm-81.6494-23.87061c-.3546-13.01953-.5076-28.73437-.3403-34.92187l.3044-11.25 24.6094-.24994 24.6093-.24994v6.57807c0 5.37613.2713 6.57806 1.4845 6.57806 3.133 0 16.8568-3.97799 24.1752-7.00745 4.2091-1.74235 9.6498-3.67072 12.0904-4.28527 2.4406-.61455 4.4374-1.24781 4.4374-1.40724 0-1.16334-8.4814-37.0147-9.1937-38.86254-.497-1.28906-1.8602-3.1875-3.0295-4.21875-3.6299-3.20157-9.1286-12.47899-11.285-19.04021-1.1338-3.44976-4.5328-10.70998-7.5534-16.13384-11.7004-21.00991-15.3313-32.88096-14.6678-47.95615.5722-12.99988 2.2032-16.84646 15.9435-37.60134 15.572-23.52174 20.0155-33.49044 23.4613-52.63484.6426-3.57026 1.6846-6.6603 2.3155-6.86676 1.3865-.45369 7.6598 9.0302 11.9367 18.04564 4.4763 9.436 6.9687 18.23947 8.1803 28.89386l1.0601 9.32336 3.9691-11.19926c2.183-6.1596 4.8897-16.0112 6.015-21.89246 1.1252-5.88126 3.2737-13.87015 4.7745-17.7531 3.1117-8.05092 8.9119-17.19674 10.5586-16.64894.6097.2028 1.3982 2.6542 1.7522 5.4476.354 2.79344 2.9561 11.00567 5.7825 18.24944 5.966 15.29083 8.0839 24.4552 8.1589 35.3056l.054 7.7739 5.9625-15.9375c3.5251-9.42236 6.513-16.05061 7.3091-16.21419 1.4474-.29743 12.732 11.24801 19.1232 19.56526 29.7283 38.68684 30.1538 71.63163 1.3509 104.57525-3.1943 3.65354-6.0178 7.94454-6.6729 10.14104-2.3109 7.74837-6.4324 15.37089-11.0948 20.51918-2.6361 2.91093-5.0179 6.24792-5.2928 7.41553-2.5336 10.75992-7.9376 35.73007-7.75 35.81023.1312.0561 3.9399 1.04953 8.4638 2.20774 4.5239 1.1582 11.9929 3.73009 16.5976 5.71532l8.3723 3.60947.2774-5.26617.2775-5.26616 24.1406-.2502 24.1406-.2502v70.34415h-48.75v-8.87683c0-7.30362-.2371-8.78584-1.3378-8.36345-.9336.35826-1.2073-.005-.9056-1.20129.3189-1.26468-1.4828-3.20916-6.8653-7.40927-27.2765-21.28496-45.6304-26.36981-69.3772-19.22068-5.2689 1.58621-10.8779 2.88402-12.4645 2.88402-4.0783 0-7.4871-3.6368-7.4871-7.98777 0-4.64255 1.2171-6.75693 6.8636-11.92376 4.7889-4.38215 4.8186-4.44293 2.178-4.45313-4.1448-.016-12.6173 2.42994-24.469 7.06401-5.9534 2.32783-13.4607 4.76516-16.6829 5.41629l-5.8584 1.18388-.6019 20.11587c-.3311 11.06372-.4114 20.43269-.1785 20.81992.2329.38724 5.3474.42284 11.3656.0791l10.9422-.62496 7.9611-6.96011c9.1634-8.01117 12.8791-10.26802 14.4004-8.74664.7314.73137.4465 1.01728-1.0138 1.01728-2.3062 0-20.9025 14.54857-21.4918 16.81387-.3241 1.24581-2.0027 1.42342-11.1169 1.17625l-10.7352-.29114v10.42601H2646.4773zm186.0578-16.18369v-17.35557l-5.3906-2.43825c-17.4689-7.90141-31.6771-11.07162-49.4531-11.03419-13.6645.0288-21.1594 1.26797-29.6278 4.89864-9.1732 3.93292-14.474 11.49899-11.8273 16.88185 2.2185 4.51211 3.4959 4.61412 16.3854 1.30848 19.772-5.07076 30.8981-4.13681 47.692 4.00337 7.8898 3.82424 25.3353 15.83511 28.3518 19.51966.7077.86437 1.8679 1.57158 2.5782 1.57158 1.0504 0 1.2914-3.23902 1.2914-17.35557zm-71.3122-32.39776c2.8018-.47942 10.6065-.87215 17.3438-.87273l12.2497-.00094 3.2372-11.48331c1.7805-6.31583 4.4172-14.389 5.8594-17.94039 1.4422-3.5515 2.6221-6.61009 2.6221-6.79699 0-.18689-15.6545-.33981-34.7878-.33981-32.7475 0-34.7506.0962-34.1544 1.64062 1.8175 4.70846 7.0954 23.25469 8.5533 30.05624l1.6699 7.79059 6.1564-.59081c3.386-.32494 8.4487-.98305 11.2504-1.46247zm34.3786-3.43027c-.3115-.31152-.5331.2422-.4923 1.23047.045 1.09214.2671 1.31428.5664.56641.2708-.67676.2375-1.48536-.074-1.79688zm.9375-3.75c-.3115-.31152-.5331.2422-.4923 1.23047.045 1.09214.2671 1.31428.5664.56641.2708-.67676.2375-1.48536-.074-1.79688zm343.2618 68.36509-23.2032-9.08052V-729.19433l22.7344-9.21432c12.5039-5.06787 23.2617-9.41818 23.9063-9.66734.814-.31468 1.1718.65801 1.1718 3.18521v3.63822l-7.0312 2.61479-7.0313 2.61479v10.19036c0 9.74976.091 10.21853 2.1094 10.84181 1.1602.35831 4.3242 1.47173 7.0313 2.47429 4.6258 1.7132 4.9218 2.01611 4.9218 5.03672 0 1.76764-.3164 3.18846-.7031 3.1574-.3867-.031-11.1445-4.14274-23.9062-9.13702zm4.9218-12.36899c0-4.125-.3857-7.5-.857-7.5-.4714 0-4.7957 1.48746-9.6094 3.30547-4.8138 1.818-9.3603 3.5232-10.1033 3.7893-.743.26611 2.7913 1.92625 7.854 3.68919 5.0628 1.76294 9.4325 3.43275 9.7104 3.71069.2779.27794 1.0678.50535 1.7553.50535.9375 0 1.25-1.875 1.25-7.5zm-359.5717 16.15102c-2.0838-1.76208-4.6509-4.90102-4.0082-4.90102.2198 0 1.8308 1.47656 3.5799 3.28125 3.3837 3.49104 3.5975 4.29969.4283 1.61977zm27.0894-1.40957c.4396-1.75803-.3177-2.57229-4.8263-5.18964-2.9412-1.70744-6.8242-4.37968-8.6289-5.93831-3.9114-3.37813-1.8982-2.53496 2.9558 1.23794 1.8835 1.464 6.2077 3.96422 9.6094 5.55605 3.4017 1.59183 6.1848 3.03452 6.1848 3.20596 0 .17145-1.3086.96455-2.908 1.76245-2.8429 1.41819-2.8964 1.40396-2.3868-.63445zm-430.2204-9.44865c-11.5703-5.23791-13.1349-23.84651-2.6066-31.00067 3.8305-2.60294 4.5366-2.50367 5.3539.75282.4475 1.78289-.237 3.05186-3.2959 6.1108-3.7258 3.72582-3.8443 4.03031-3.3939 8.71864.3794 3.94772 1.0192 5.35152 3.4146 7.49181 3.1916 2.85168 5.288 3.22243 8.9044 1.57469 3.0379-1.38416 4.6027-5.33804 4.1861-10.57684-.2983-3.74987-.098-4.27391 1.8206-4.75535 2.9032-.72865 3.6269-.12695 4.3253 3.59599 1.3274 7.07523 9.1137 9.10721 13.4175 3.50155.6282-.81812 1.1555-3.31292 1.1719-5.54398.046-6.21529-5.2021-10.63551-11.4545-9.64828-.3868.061-.7032-1.42289-.7032-3.29766v-3.40868l4.4532.60158c5.6275.7602 8.5832 2.89094 11.25 8.10993 2.7002 5.28452 2.8171 12.40225.2723 16.57596-3.4371 5.63697-10.9068 7.54982-16.4164 4.20389l-2.7847-1.69112-1.4341 2.80129c-2.975 5.8115-10.6149 8.53898-16.4805 5.88363zm754.7531-34.67077c-.9804-3.25416-4.9656-37.74407-4.418-38.23488.9908-.88805 9.5554-1.82141 9.5532-1.04109-.0009.37686 1.1143 9.041 2.4784 19.25364 1.4444 10.8125 2.1304 18.88851 1.6426 19.33468-1.4601 1.33537-8.8947 1.88769-9.2562.68765zm-741.816-20.0671c-4.7831-.42045-4.6444.85899-2.1097-19.46118 2.8778-23.06951 2.183-20.98646 6.8223-20.45524 2.1776.24936 4.4091.58656 4.9588.74936 1.2758.37784-3.4077 39.17844-4.7533 39.37848-.5136.0763-2.7267-.0187-4.9181-.21142zm715.7281-18.73268c-.2362-.40067-.704-2.01062-1.0395-3.57767-.5685-2.655-.1987-3.15996 5.4267-7.40914l6.0368-4.55996-1.3385-4.30962c-.7362-2.37029-2.0313-6.73539-2.8782-9.70024l-1.5397-5.39062-5.7056-.0127c-7.8319-.0176-9.6507-.66551-10.7542-3.83112-.9341-2.67957-.898-2.71874 2.5191-2.72977 1.9068-.007 13.3158.70514 25.3533 1.58064 21.5285 1.56578 21.9002 1.62828 22.7343 3.82221.4664 1.22672.848 2.80556.848 3.50854 0 .70298-5.5898 5.82577-12.4218 11.38398-6.8321 5.5582-15.6595 12.77168-19.6165 16.02995-3.9571 3.25827-7.3879 5.5963-7.6242 5.19562zm28.1426-29.11627c2.6875-1.91798 4.8997-3.69817 4.916-3.95598.016-.25781-5.0301-.61245-11.2144-.78808-6.1843-.17563-11.2442-.0337-11.2442.3153 0 .34904.907 3.7559 2.0154 7.57079l2.0154 6.93616 4.3128-3.29547c2.372-1.81252 6.5115-4.86474 9.199-6.78272zm-727.479-4.91718c-14.0725-3.55005-21.1252-15.11358-17.1953-28.1933 2.153-7.16577 5.9383-11.0775 12.5559-12.97541 2.4705-.70852 2.9125-.55117 3.3835 1.20433.9462 3.52702.6333 4.19961-2.2482 4.8325-6.2908 1.38169-10.2853 8.53918-9.0419 16.20161.78 4.8061 3.2261 7.78871 8.6249 10.51647 3.8208 1.93045 5.99 2.34375 12.3011 2.34375 9.0201 0 11.6904-1.41601 15.1306-8.02363 3.6083-6.93062 1.6274-13.98314-5.0312-17.91179-3.1368-1.85075-3.1687-1.93342-1.7819-4.61516.7766-1.50187 1.695-2.73067 2.0407-2.73067.3458 0 2.159 1.06048 4.0293 2.35663 4.9922 3.4596 7.9002 9.16713 7.8747 15.45587-.038 9.42973-3.7303 16.12891-10.9069 19.79014-4.2951 2.19119-14.4236 3.08863-19.7353 1.74866zm675.2793-24.29449c-1.5169-2.83434-1.2403-3.30085 3.2509-5.48282 2.3203-1.12729 4.2187-2.4826 4.2187-3.0118 0-1.20046-12.9755-27.18719-13.5749-27.18719-.2406 0-2.3838.94562-4.7627 2.10137-4.2551 2.06732-4.3467 2.072-5.65.28956-.7287-.99648-1.3249-2.15649-1.3249-2.57779s3.1963-2.34457 7.1028-4.27394c6.837-3.37665 7.1513-3.44183 8.3986-1.74138 1.1044 1.50571 2.0199 1.67051 6.1996 1.11605 6.1374-.81415 14.7671-3.80723 25.9272-8.99243 4.7572-2.21031 8.8063-3.8492 8.998-3.64197.1916.20723 3.1401 5.96381 6.5522 12.7924l6.2038 12.41561-18.7777 9.3978c-17.2475 8.63195-18.6976 9.54752-17.7945 11.23495.8848 1.65329.2335 2.21408-6.508 5.60363-7.1516 3.59576-7.535 3.68451-8.4591 1.95795zm43.0946-31.96043c0-1.25481-6.4416-14.03388-7.0742-14.03388-.2684 0-2.478 1.00687-4.9101 2.23748-6.2281 3.1514-19.7092 7.79234-24.8938 8.56981-2.4045.36058-4.3719.82631-4.3719 1.03494 0 .20864 2.1134 4.59076 4.6965 9.73805l4.6964 9.35871 15.9286-7.9747c8.7607-4.3861 15.9285-8.40477 15.9285-8.93041zm-697.3765-3.24302c-10.5025-6.40076-19.2868-11.82923-19.5208-12.06324-.4027-.4027 4.0842-8.10262 4.7216-8.10262.3581 0 26.8105 5.91585 35.116 7.85339 3.6634.85462 5.5916.98956 5.2051.36428-.3376-.54625-6.4523-7.95984-13.5882-16.47465-7.9257-9.45711-12.6829-15.87892-12.2252-16.50286.4121-.56178 1.4674-2.17451 2.345-3.58385l1.5957-2.56243 19.4418 11.76784c10.693 6.47231 19.7975 12.11546 20.2322 12.54033.4347.42488.087 1.84549-.7719 3.15692l-1.5624 2.38442-14.228-8.69428c-7.8255-4.78186-15.2828-9.25382-16.5719-9.93769-2.8572-1.51583-3.7194-2.67908 11.9525 16.12618 6.3168 7.57975 11.485 14.13041 11.485 14.55703 0 .42661-.6119 1.64934-1.3598 2.71715l-1.3599 1.94148-18.562-4.05497c-10.2091-2.23024-19.3003-4.23616-20.2026-4.45762-.9024-.22144-1.6407-.28825-1.6407-.14846 0 .1398 7.1885 4.59705 15.9743 9.905 8.7858 5.30796 16.1882 9.99692 16.4496 10.41993.6927 1.12073-1.3565 4.564-2.6912 4.52217-.6264-.0196-9.7318-5.27268-20.2342-11.67345zm632.913-27.0423c-7.147-2.59198-13.1349-10.2285-14.6793-18.7207-1.5865-8.72363 4.6389-19.03702 14.4506-23.94001 7.5326-3.76406 11.9015-4.39047 18.0847-2.59296 12.7779 3.71465 20.0539 19.76466 14.0698 31.03636-6.1306 11.54756-21.013 18.17506-31.9258 14.21731zm17.0965-8.07499c13.4303-7.45809 15.0291-21.84102 3.3141-29.8142-6.4043-4.35868-17.6909-1.4764-24.7303 6.31543-6.2707 6.94091-6.2622 15.8423.021 22.12568 5.6526 5.65259 12.856 6.11489 21.3949 1.37309zm-604.1955-16.55286c-5.9297-4.89666-13.0452-10.65839-15.8123-12.80386l-5.031-3.90084-2.469 2.77991c-1.3579 1.52895-3.4344 4.01599-4.6143 5.52676l-2.1455 2.74687-1.9701-1.97011-1.9701-1.97011 6.3566-8.02111 6.3566-8.02111 7.3356 6.06895c4.0347 3.33792 7.733 6.06894 8.2186 6.06894.4855 0 2.6718-2.21484 4.8583-4.92188 8.4917-10.51337 13.4031-13.22758 19.9974-11.05125 3.9779 1.31281 8.6005 6.33006 9.467 10.27525.3477 1.58339.1336 4.39001-.476 6.23693-1.0946 3.31667-15.277 22.00836-16.6245 21.91031-.3828-.0279-5.5476-4.057-11.4773-8.95365zm15.6835-3.88634c5.7399-6.96351 6.8165-8.87126 6.8165-12.07838 0-2.18712-.774-3.64063-2.8844-5.41641-4.5893-3.8616-7.0617-3.25224-13.2681 3.27008-8.2536 8.67364-8.2224 8.36812-1.4157 13.87562 3.2172 2.60314 6.1266 4.74857 6.4653 4.76761.3387.019 2.2676-1.9693 4.2864-4.41852zm534.629-12.96563c-3.4277-2.35638-8.9017-7.6356-14.1095-13.60762l-4.5739-5.24515 16.885-16.14668c9.2867-8.88069 17.1819-16.01258 17.5448-15.84858.363.1639 5.2752 5.0578 10.916 10.87522l10.2562 10.5772-2.1259 2.07905-2.1259 2.07907-8.2758-8.88329-8.2757-8.88328-5.0108 4.6005c-2.7559 2.53028-5.1714 4.71971-5.3678 4.8654-.1964.14569 2.6499 3.72208 6.3252 7.94753 3.6753 4.22546 7.0715 9.0921 7.5472 10.81477 1.2082 4.37598-.2146 8.70221-4.1011 12.46908-2.6857 2.60308-4.1331 3.22683-8.2123 3.539-3.6259.27749-5.5795-.0525-7.2957-1.23222zm10.6545-6.83275c3.0579-2.67571 3.6456-5.65809 1.7929-9.0977-1.7584-3.2644-10.1594-12.58829-11.3424-12.58829-.3822 0-3.1117 2.44229-6.0656 5.42731l-5.3707 5.42731 4.6452 5.2118c7.1153 7.98317 11.7987 9.59382 16.3406 5.61957zm-533.7795-20.83037c-9.0234-7.73272-16.9945-14.64511-17.7136-15.36087-1.117-1.11204-.3907-2.40044 4.9917-8.85354 9.5251-11.42 13.0614-14.1412 18.377-14.1412 7.8587 0 14.3065 6.4695 14.1992 14.2468-.055 3.9897-2.811 8.72257-10.0537 17.26565l-3.2692 3.85622 6.3437 5.45761c3.489 3.00169 6.7228 5.77988 7.1862 6.17377.8709.74038-1.741 5.53426-2.9735 5.45749-.3748-.0233-8.0643-6.36922-17.0878-14.10193zm7.9012-13.6374c6.0793-7.37011 7.1517-10.74731 4.5356-14.28371-2.798-3.7822-6.3727-5.2188-9.6294-3.8699-2.3477.9725-13.1199 12.5644-13.1199 14.1183 0 .8313 11.2655 10.25459 12.2593 10.25459.4535 0 3.133-2.79867 5.9544-6.21928zm471.377 2.3613c-8.2244-4.07101-14.2674-14.95401-12.796-23.04491 2.2691-12.4774 13.8721-22.7434 25.7053-22.7434 6.7871 0 11.7931 2.3767 16.6658 7.9124 6.2649 7.1173 7.5061 15.1529 3.6226 23.4526-2.6566 5.6777-8.6613 11.85267-14.0735 14.47268-5.426 2.62666-13.7615 2.60514-19.1242-.0494zm18.9049-7.32451c8.3881-5.7711 12.4174-15.1968 9.4907-22.2013-3.9611-9.4804-13.3245-13.2545-21.9573-8.8504-4.9801 2.5407-12.077 10.6728-12.8335 14.7057-2.9396 15.6692 12.1314 25.40632 25.3001 16.346zm-452.6471-16.9188-12.1203-16.8247-5.8602 4.1817c-3.2231 2.3-6.2971 4.1818-6.8311 4.1818-.9582 0-3.3552-3.6479-2.7534-4.1903 2.154-1.9413 29.3086-21.1222 29.9029-21.1222.7343 0 2.7511 2.9872 2.7511 4.0748 0 .2465-2.7358 2.4004-6.0796 4.7864l-6.0796 4.3383 9.9789 13.7909c5.4884 7.585 11.0484 15.2038 12.3556 16.9307l2.3766 3.1398-2.2916 1.7612c-1.2603.9687-2.5025 1.7646-2.7603 1.7687-.2578 0-5.9228-7.5635-12.589-16.8171zm393.214-3.6227c-11.7361-5.6234-18.7702-9.9987-18.2648-11.3609.5051-1.3611 21.0067-39.4898 21.6299-40.2271.49-.5796 18.5243 9.3012 20.8964 11.449 4.5491 4.1188 5.7882 11.5089 2.6252 15.656-1.8421 2.4152-5.6162 4.6445-7.8627 4.6445h-2.1214l1.8577 3.0469c3.3101 5.429 1.9372 11.2339-3.7985 16.0602-3.4816 2.9295-9.7361 3.2353-14.9618.7314zm9.671-4.9916c1.1263-.5999 2.5617-1.76 3.1898-2.5782 1.6762-2.1831 1.4451-7.0858-.4389-9.3126-1.5606-1.8445-15.1697-9.9847-15.6336-9.3511-1.2059 1.6468-7.1008 13.0038-7.1008 13.6802 0 1.0535 14.5268 8.6523 16.5408 8.6523.7673 0 2.3165-.4908 3.4427-1.0906zm11.1676-21.7436c2.2451-2.7854 2.0577-6.4694-.4479-8.806-1.1602-1.0819-4.7402-3.4495-7.9556-5.2613l-5.8461-3.2942-3.2945 5.891c-1.8119 3.2401-3.2945 6.1822-3.2945 6.5379 0 .3557 3.4607 2.3203 7.6905 4.3658 8.2023 3.9665 10.3336 4.0584 13.1481.5668zm-372.4519 15.0998c-12.8293-22.9025-15.1848-26.9531-15.6733-26.9531-.2895 0-3.19 1.4641-6.4455 3.2535-5.6358 3.0979-5.9648 3.1681-6.8747 1.4679-.5256-.9821-.9557-2.1995-.9557-2.7054s3.8717-3.0743 8.6037-5.7075c6.4873-3.61 8.7959-4.4943 9.3852-3.595.4298.656 2.6816 4.6441 5.0039 8.8625l4.2224 7.6697 7.6978-4.3289c12.9162-7.2636 21.0602-6.2696 25.1937 3.0747 3.8446 8.6914.065 14.3197-15.2531 22.7116-4.9412 2.7071-9.223 4.9219-9.5153 4.9219-.2922 0-2.7173-3.9023-5.3891-8.6719zm15.0559-2.5811c10.118-5.9092 11.9178-9.4532 7.932-15.6187-2.4293-3.7577-6.0623-3.6205-14.34.5415-4.1348 2.0789-7.7277 4.1195-7.9843 4.5347-.4274.6916 6.8233 14.2955 7.6193 14.2955.1909 0 3.2387-1.6888 6.773-3.753zm288.7389-8.3729c-7.3663-2.2408-14.461-8.9236-15.5315-14.6299-1.9893-10.604 2.9511-23.4414 11.3406-29.4675 3.8845-2.7903 5.4444-3.3133 10.7003-3.5874 5.2866-.2758 6.8722.051 11.2621 2.323 7.3711 3.8144 10.6082 8.2863 11.12 15.3616l.4092 5.6576-2.6942-.6454c-3.9978-.9576-4.1005-1.0946-4.1005-5.4713 0-6.9137-5.8807-11.7935-14.2041-11.7863-7.524.01-14.4033 6.6366-17.3292 16.7012-2.6091 8.975.1717 15.719 7.8892 19.1328 4.9439 2.1869 8.3923 1.7612 13.5885-1.6774 3.5351-2.3395 3.5901-2.345 5.8311-.5821l2.2625 1.7796-2.5346 2.4277c-4.7902 4.5882-11.8489 6.3377-18.0094 4.4638zm-219.4811-13.3616c-.062-.1616-1.2295-10.714-2.5951-23.4498l-2.483-23.1561 2.1695-.5445c1.1932-.2994 2.5079-.3353 2.9215-.08.4136.2557 1.5336 8.4951 2.4888 18.31.9552 9.8148 1.9685 17.8364 2.2517 17.8258.2832-.011 4.5207-7.6628 9.4165-17.0046 11.9955-22.889 11.6365-22.3511 14.9165-22.3511 3.3725 0 3.1123-1.1527 5.7895 25.6492 2.1624 21.6488 2.1196 22.1093-2.0589 22.1489-1.2775.012-1.7642-2.5829-3.1181-16.6262-.8824-9.1524-1.8886-17.3655-2.2362-18.2513-.4492-1.1454-3.6115 4.0014-10.9443 17.8125-9.9533 18.7466-10.4186 19.4334-13.3594 19.7169-1.6758.1616-3.0973.1616-3.159 0zm146.1278-5.2779c-1.418-.1632-2.5782-.6539-2.5782-1.0906s.8604-8.077 1.9119-16.9784c1.0515-8.9014 1.7898-16.7512 1.6406-17.4441-.1492-.6929-6.7469 6.3669-14.6616 15.6883-14.0693 16.5698-14.4564 16.934-17.3438 16.3159-1.6243-.3477-2.9994-.6884-3.0557-.7571-.056-.069 1.0855-10.2499 2.5374-22.6249 1.452-12.375 2.6582-22.8164 2.6806-23.2031.065-1.1294 5.6656-.8083 5.6656.3248 0 .5653-.8739 8.3849-1.9421 17.3768-1.0681 8.9919-1.798 16.7812-1.6218 17.3096.1761.5284 6.7724-6.6424 14.6585-15.9351 13.9719-16.464 14.4146-16.8812 17.325-16.3278 1.6427.3123 3.038.6128 3.1007.6676.197.1722-5.1714 45.7528-5.4624 46.3793-.1521.3275-1.4368.462-2.8547.2988zm-89.5936-6.5002c.233-2.0251.8498-2.6418 2.8752-2.8748 4.4237-.509 4.7442-2.4125 4.0008-23.7613l-.6803-19.5358h29.8983l.6143 17.5781c.3379 9.668.6155 20.4525.617 23.9657v6.3875l-3.0469-.2938-3.0469-.2938-.5784-18.2812c-.3182-10.0547-.6346-19.4414-.7032-20.8594l-.1246-2.5781h-16.9652l.2712 18.0469c.2127 14.153-.013 18.5525-1.0455 20.3906-2.0014 3.5622-3.904 4.625-8.3384 4.6577-3.8674.028-4.0335-.084-3.75-2.5483z" transform="matrix(.4207 0 0 .42077 -857.09971 492.2617479)"/>
</svg>
