<?xml version="1.0" encoding="UTF-8"?>
<!DOCTYPE svg PUBLIC "-//W3C//DTD SVG 1.1//EN" "http://www.w3.org/Graphics/SVG/1.1/DTD/svg11.dtd">
<svg xmlns="http://www.w3.org/2000/svg" version="1.1" width="900" height="600">
<rect width="900" height="600" x="0" y="0" style="fill:#ce1126" />
<rect width="900" height="400" x="0" y="200" style="fill:#fcd116" />
<rect width="900" height="200" x="0" y="400" style="fill:#006b3f" />
<path d="m 210,200 -25,76 -80,0 65,48 -25,76 65,-47 65,47 -25,-76 65,-48 -80,0 z m 240,0 -25,76 -80,0 65,48 -25,76 65,-47 65,47 -25,-76 65,-48 -80,0 z m 240,0 -25,76 -80,0 65,48 -25,76 65,-47 65,47 -25,-76 65,-48 -80,0 z" style="fill:#000000" />
</svg>
