<svg xmlns="http://www.w3.org/2000/svg" width="1200" height="600"><title>Flag of Nigeria (1914–1952)</title><style><![CDATA[.B{stroke:#000}.C{fill:#fed100}.D{fill:none}.E{fill-rule:evenodd}.F{fill:#fff}.G{stroke-width:1.176}.H{fill:#012169}.I{stroke-width:2.66}.J{stroke-width:1.428}.K{stroke-width:1.361}.L{stroke-width:3.228}.M{fill:#f6e078}.N{stroke-width:1.17}.O{stroke-width:1.757}.P{stroke-width:1.154}]]></style><clipPath id="A"><path d="M0 0v150h700v150H600zm0 300v50h300V0h300z"/></clipPath><path d="M0 0h1200v600H0z" class="H"/><path d="M0,0 600,300M600,0 0,300" stroke="#fff" stroke-width="60"/><path d="M0,0 600,300M600,0 0,300" stroke="#c8102e" stroke-width="40" clip-path="url(#A)"/><path d="M0,150H700M300,0V350" stroke="#fff" stroke-width="100"/><path d="M0,150H700M300,0V350" stroke="#c8102e" stroke-width="60"/><path d="M0 300h600V0h600v600H0z" class="H"/><circle cx="900" cy="300" r="140" fill="#c80000" paint-order="normal"/><path d="M836.953 300L900 409.2l23.441-40.6h16.166L900 437.2 828.87 314m118.819 40.6l71.13-123.2h-79.213l8.083 14h46.881l-63.047 109.2m31.523-54.6l8.083-14L900 162.8l-39.606 68.6h16.166L900 190.8zm-31.523-54.6l-8.083-14H781.181l39.606 68.6 8.083-14-23.44-40.6zm-63.047 0h-16.166l-71.129 123.2h79.213l-8.083-14H805.43zm0 109.2l8.083 14h142.259L979.212 300l-8.083 14 23.441 40.6z" fill="#007800" stroke-width="1.68" stroke-linecap="round" class="B E"/><path d="M872.157 348.554v-9.748h1.915l3.989 6.51v-6.51h1.829v9.748h-1.975l-3.93-6.357v6.357zm9.761 0v-9.748h1.968v9.748zm8.371-3.584v-1.642h4.242v3.883c-.412.399-1.01.75-1.792 1.054a6.52 6.52 0 0 1-2.377.455c-1.02 0-1.908-.214-2.666-.642a4.08 4.08 0 0 1-1.709-1.835c-.381-.796-.572-1.661-.572-2.596 0-1.015.213-1.917.638-2.706a4.3 4.3 0 0 1 1.869-1.815c.625-.323 1.403-.485 2.334-.485 1.21 0 2.155.254 2.836.761s1.118 1.209 1.313 2.104l-1.955.366c-.138-.479-.396-.857-.775-1.134s-.852-.416-1.42-.416c-.86 0-1.544.273-2.051.818s-.761 1.354-.761 2.427c0 1.157.257 2.025.771 2.603s1.188.868 2.021.868a3.39 3.39 0 0 0 1.24-.243 4.25 4.25 0 0 0 1.067-.588v-1.237zm6.051 3.584v-9.748h7.228v1.649h-5.259v2.161h4.894v1.642h-4.894v2.653h5.446v1.642zm9.103 0v-9.748h4.142c1.042 0 1.799.088 2.271.263a2.24 2.24 0 0 1 1.134.934c.284.448.426.96.426 1.536 0 .731-.215 1.335-.645 1.812s-1.073.777-1.928.901c.426.248.777.521 1.054.818s.65.824 1.12 1.582l1.19 1.902h-2.354l-1.423-2.121-1.037-1.433c-.186-.197-.384-.332-.592-.405s-.539-.11-.991-.11h-.399v4.069zm1.968-5.625h1.456c.944 0 1.534-.04 1.769-.12a1.06 1.06 0 0 0 .552-.412 1.27 1.27 0 0 0 .199-.731c0-.328-.088-.593-.263-.795s-.422-.329-.741-.382c-.16-.022-.638-.033-1.436-.033h-1.536zm7.806 5.625v-9.748h1.968v9.748zm12.627 0h-2.141l-.851-2.214h-3.896l-.805 2.214h-2.088l3.797-9.748h2.081zm-3.624-3.856l-1.343-3.617-1.317 3.617z" class="F"/><g transform="matrix(.553999 0 0 .553949 276.7574 194.21086)"><g transform="matrix(.915126 0 0 .98574 129.82591 -568.08606)"><use href="#C" class="F"/><path d="M1093.48 813.817l-6.238-1.311-4.855-1.489c.461.744 1.134 1.489 2.764 2.056-1.311-.035-3.048.461-3.686.744.638.248 2.446.744 3.757.709-1.595.567-2.197 1.311-2.552 2.056l4.43-1.382 6.379-1.382zm-23.533.107a59.52 59.52 0 0 1-6.238-1.134l-4.891-1.347c.425.744 1.134 1.453 2.8 1.985-1.347 0-3.048.567-3.65.851.638.248 2.445.673 3.757.602-1.559.602-2.162 1.382-2.516 2.126l4.395-1.524c1.985-.602 4.076-1.099 6.344-1.559zm-23.356 1.134l-6.344-.709-4.962-.992c.496.709 1.241 1.382 2.942 1.772-1.311.106-2.977.78-3.58 1.099.673.177 2.481.496 3.792.354-1.524.709-2.056 1.524-2.339 2.304l4.288-1.843a53.18 53.18 0 0 1 6.202-1.985zm70.422-.78l-6.273 1.134a44.33 44.33 0 0 0-4.891 1.382c.461-.744 1.134-1.489 2.8-1.985-1.311-.035-3.048-.567-3.65-.851.638-.248 2.445-.673 3.757-.638-1.56-.602-2.162-1.347-2.481-2.126l4.395 1.559 6.344 1.524zm23.285 1.949l-6.309.673-4.997 1.028c.532-.709 1.276-1.382 2.977-1.772-1.347-.106-3.013-.78-3.615-1.099.673-.213 2.481-.532 3.828-.354-1.524-.709-2.091-1.524-2.375-2.304l4.288 1.843 6.202 1.985z"/><path d="M1087.491 818.921c-36.079 0-57.947 2.091-56.139 3.686 12.653 5.281 37.568 6.982 56.139 7.017 18.536-.035 43.451-1.737 56.104-7.017 1.807-1.595-20.06-3.686-56.104-3.686z" fill="#ccc"/><g stroke-width=".616" class="B D"><path d="M1143.523 822.713c.319-.851-1.099-1.099-2.587-1.276-5.777-.744-12.192-1.24-17.898-1.666-8.931-.567-17.933-.744-26.935-.851h-8.612-8.648c-9.002.106-18.004.284-26.935.851-5.706.425-12.121.921-17.898 1.666-1.488.177-2.906.425-2.587 1.276"/><use href="#C"/></g></g><use href="#D" fill="#c80000" class="E"/><use href="#D" stroke-width=".588" class="B D"/><g transform="matrix(.604038 0 0 .650741 943.77673 -304.0949)"><g transform="matrix(.798256 0 0 .798256 -314.32464 498.95953)"><g transform="matrix(-1 0 0 1 1539.1702 0)"><use href="#E" class="C"/><g class="B"><use href="#E" class="D N"/><g class="F O"><ellipse rx="10.489" transform="matrix(.6655 0 0 .6655 -1154.352677 -234.131725)" ry="10.66" cy="785.026" cx="2689.701"/><ellipse rx="10.489" transform="matrix(.6655 0 0 .6655 -1142.326477 -247.210925)" ry="10.66" cy="785.026" cx="2689.701"/><ellipse rx="10.489" transform="matrix(.6655 0 0 .6655 -1048.634177 -295.603225)" ry="10.66" cy="785.026" cx="2689.701"/><ellipse rx="10.489" transform="matrix(.6655 0 0 .6655 -1128.108722 -259.458823)" ry="10.66" cy="785.026" cx="2689.701"/><ellipse rx="10.489" transform="matrix(.6655 0 0 .6655 -1113.509477 -270.230025)" ry="10.66" cy="785.026" cx="2689.701"/><ellipse rx="10.489" transform="matrix(.6655 0 0 .6655 -1097.939777 -279.320325)" ry="10.66" cy="785.026" cx="2689.701"/><ellipse rx="10.489" transform="matrix(.6655 0 0 .6655 -1066.295477 -291.747325)" ry="10.66" cy="785.026" cx="2689.701"/><ellipse rx="10.489" transform="matrix(.6655 0 0 .6655 -1082.315777 -286.141625)" ry="10.66" cy="785.026" cx="2689.701"/></g></g></g><use href="#E" class="M"/><g class="B"><use href="#E" class="C N"/><g class="F O"><ellipse rx="10.489" transform="matrix(.6655 0 0 .6655 -1154.352677 -234.131725)" ry="10.66" cy="785.026" cx="2689.701"/><ellipse rx="10.489" transform="matrix(.6655 0 0 .6655 -1142.326477 -247.210925)" ry="10.66" cy="785.026" cx="2689.701"/><ellipse rx="10.489" transform="matrix(.6655 0 0 .6655 -1048.634177 -295.603225)" ry="10.66" cy="785.026" cx="2689.701"/><ellipse rx="10.489" transform="matrix(.6655 0 0 .6655 -1128.108722 -259.458823)" ry="10.66" cy="785.026" cx="2689.701"/><ellipse rx="10.489" transform="matrix(.6655 0 0 .6655 -1113.509477 -270.230025)" ry="10.66" cy="785.026" cx="2689.701"/><ellipse rx="10.489" transform="matrix(.6655 0 0 .6655 -1097.939777 -279.320325)" ry="10.66" cy="785.026" cx="2689.701"/><ellipse rx="10.489" transform="matrix(.6655 0 0 .6655 -1066.295477 -291.747325)" ry="10.66" cy="785.026" cx="2689.701"/><ellipse rx="10.489" transform="matrix(.6655 0 0 .6655 -1082.315777 -286.141625)" ry="10.66" cy="785.026" cx="2689.701"/></g></g></g><g transform="matrix(.793594 0 0 .793594 -61.613202 495.35847)"><g transform="matrix(1.21 0 0 1.21 213.62355 155.71916)" class="B"><path d="M185.96 37.047c1.567-1.984 3.439-3.458 4.956-5.475 1.594-2.119 2.81-4.798 3.435-7.503-2.771.691-5.449 1.907-7.569 3.501-2.017 1.517-3.491 3.389-5.475 4.956V7.116c1.984 1.567 3.458 3.439 5.475 4.956 2.119 1.594 4.798 2.81 7.569 3.501-.625-2.705-1.841-5.384-3.435-7.503-1.517-2.017-3.389-3.491-4.956-5.475h28.152c-1.567 1.984-3.439 3.458-4.956 5.475-1.594 2.119-2.81 4.798-3.435 7.503 2.771-.691 5.449-1.907 7.569-3.501 2.017-1.517 3.491-3.389 5.475-4.956v25.411c-1.984-1.567-3.458-3.439-5.475-4.956-2.119-1.594-4.798-2.81-7.569-3.501.625 2.705 1.841 5.384 3.435 7.503 1.517 2.017 3.389 3.491 4.956 5.475z" stroke-width=".972" class="C"/><ellipse rx="10.489" transform="matrix(.6655 0 0 .6655 -1589.960467 -502.613725)" ry="10.66" cy="785.026" cx="2689.701" stroke-width="1.461" class="F"/></g><g transform="matrix(.943113 0 0 .943113 266.86737 172.34875)"><g transform="matrix(1.937935 0 0 1.90669 -5012.278747 -1446.475841)"><ellipse rx="10.489" ry="10.66" cy="785.026" cx="2689.701" class="C"/><ellipse rx="10.489" ry="10.66" cy="785.026" cx="2689.701" stroke-width=".649" class="B D"/></g><path d="M195.844 28.438V45.5h-17.062v8.688h42.813V45.5H204.5V28.438z" class="C"/><path d="M195.844 28.437V45.5h-17.062v8.688h42.813V45.5H204.5V28.437z" stroke-width="1.247" class="B D"/></g><rect ry="6.386" height="71.72" width="25.322" y="235.021" x="443.006" class="C E"/><rect ry="6.386" height="71.72" width="25.322" y="235.021" x="443.006" class="B D G"/><g transform="matrix(1.146997 0 0 .906733 184.14112 -618.48401)"><rect ry="3.8" height="79.256" width="7.041" y="941.218" x="221.335" class="C E"/><path d="M224.855 941.218c1.95 0 3.52 1.695 3.52 3.8v71.656c0 2.105-1.57 3.8-3.52 3.8s-3.52-1.695-3.52-3.8v-71.656c0-2.105 1.57-3.8 3.52-3.8z" class="B D P"/></g><g transform="matrix(1.146997 0 0 .906733 189.39904 -618.48398)"><rect ry="3.8" height="79.256" width="7.041" y="941.218" x="240.494" class="C E"/><rect ry="3.8" height="79.256" width="7.041" y="941.218" x="240.494" class="B D P"/></g><g stroke-width="1.768" class="B F"><ellipse rx="10.489" transform="matrix(.6655 0 0 .6655 -1334.329457 -285.886725)" ry="10.66" cy="785.026" cx="2689.701"/><ellipse rx="10.489" transform="matrix(.6655 0 0 .6655 -1334.329457 -271.780025)" ry="10.66" cy="785.026" cx="2689.701"/><ellipse rx="10.489" transform="matrix(.6655 0 0 .6655 -1334.329457 -257.652425)" ry="10.66" cy="785.026" cx="2689.701"/><ellipse rx="10.489" transform="matrix(.6655 0 0 .6655 -1334.329457 -243.524925)" ry="10.66" cy="785.026" cx="2689.701"/><ellipse rx="10.489" transform="matrix(.6655 0 0 .6655 -1334.329457 -229.397325)" ry="10.66" cy="785.026" cx="2689.701"/></g></g><g transform="matrix(.793594 0 0 .793594 145.2848 626.79374)"><path d="M320.31 172.26c-6.72 15.023-12.101 29.69-17.375 44.782H194.622 86.31c-5.098-14.589-10.297-30.282-16.708-44.782 0 0 13.482 18.865 23.578 23.427 5.608 2.534 12.623 3.289 18.421 1.228 7.642-2.717 17.807-16.579 17.807-16.579s9.141 10.698 15.351 13.509c5.829 2.638 12.644 2.745 19.035 2.456 5.655-.256 11.92-.469 16.579-3.684 7.055-4.869 14.123-21.491 14.123-21.491s6.838 13.078 12.281 17.807c4.491 3.902 10.131 6.816 15.965 7.982s12.21.79 17.807-1.228c7.588-2.736 19.649-14.123 19.649-14.123s8.302 10.296 14.123 12.895c5.635 2.515 12.414 3.256 18.421 1.842 6.357-1.496 11.698-6.1 16.579-10.439 4.357-3.872 10.988-13.602 10.988-13.602z" class="C"/><path d="M320.31 172.26c-6.72 15.023-12.101 29.69-17.375 44.782h-28.286-80.026-82.603-25.71c-5.098-14.589-10.297-30.282-16.708-44.782 0 0 13.482 18.865 23.578 23.427 5.608 2.534 12.623 3.289 18.421 1.228 7.642-2.717 17.807-16.579 17.807-16.579s9.141 10.698 15.351 13.509c5.829 2.638 12.644 2.745 19.035 2.456 5.655-.256 11.92-.469 16.579-3.684 7.055-4.869 14.123-21.491 14.123-21.491s6.838 13.078 12.281 17.807c4.491 3.902 10.131 6.816 15.965 7.982s12.21.79 17.807-1.228c7.588-2.736 19.649-14.123 19.649-14.123s8.302 10.296 14.123 12.895c5.635 2.515 12.414 3.256 18.421 1.842 6.357-1.496 11.698-6.1 16.579-10.439 4.357-3.872 10.988-13.602 10.988-13.602z" class="B D G"/><g class="C"><use href="#F"/><path d="M101.61 200.815c-10.867-.586-21.005-7.374-29.137-21.138-5.273-12.47-11.337-25.099-18.912-38.342 8.729-3.09 18.903-4.736 30.187-5.271-4.589 12.931-9.35 25.528-7.666 35.937 9.481-7.101 12.547-16.767 15.812-26.353l11.021 38.812c-6.689-1.173-3.132-2.555-20.698-5.885 3.52 6.637 11.578 14.832 20.462 15.639zm185.624-6.601c8.884-.807 16.942-9.002 20.462-15.639-17.566 3.33-14.009 4.712-20.698 5.885l11.021-38.812c3.265 9.587 6.331 19.253 15.812 26.353 1.684-10.409-3.077-23.005-7.666-35.937 11.284.535 21.457 2.181 30.187 5.271-7.574 13.242-13.639 25.871-18.912 38.342-8.132 13.764-18.27 20.552-29.137 21.138l-.208.383z"/><path d="M155.953 200.815c-5.477-.3-11.112-1.888-16.048-4.28-4.291-2.079-11.127-8.131-11.127-8.131-3.323 4.312-7.555 7.341-11.583 9.579-5.151 2.862-10.24 3.12-15.586 2.832l-.188 1.873 1.256-8.474c5.974.543 10.31-1.303 14.107-4.596 2.728-2.366 5.215-5.495 5.182-9.02l-.056-6.056c-.012-1.297-1.613-3.132-2.909-3.151-1.236-.017-1.578 1.988-1.908 3.179-.66 2.383.665 5.037 0 7.419-.734 2.626-2.141 4.699-4.451 6.147-1.924 1.206-6.571 1.484-6.571 1.484l1.484-5.723c1.047-4.037-2.872-7.171-3.815-11.234-.607-2.615-.941-5.54 0-8.054 1.018-2.72 3.079-5.368 5.723-6.571.965-.439 2.122-.499 3.179-.424 1.495.106 4.451 1.06 4.451 1.06s-.848-4.091-.636-6.571c.258-3.007 2.805-8.578 4.239-11.234 2.381-4.41 6.168-8.383 6.6-8.81.415.417 4.52 4.238 7.202 8.471 1.615 2.55 3.272 6.234 3.739 9.216.384 2.459.247 7.659.247 7.659s4.366-1.793 5.85-2.003c1.049-.149 2.208-.169 3.201.202 2.721 1.016 4.961 3.514 6.166 6.157 1.114 2.443.984 5.384.56 8.035-.658 4.119-3.078 7.305-1.753 11.26l1.878 5.606s-4.654.046-6.658-1.023c-2.405-1.283-3.954-3.254-4.868-5.822-.829-2.33-.348-5.183-1.788-7.189-.637-.888-1.528-1.87-2.76-1.767-1.292.108-2.2 2.22-2.254 3.516l-.229 5.451c-.07 1.675.693 3.416 1.59 4.771 2.197 3.32 5.468 5.334 9.158 6.83 3.997 1.62 7.601 2.242 11.913 2.293z"/><path d="M194.937 164.632l6.793 8.052 3.27 13.197 9.618 6.733 14.042 3.078 14.042-1.731 10.772-6.925 1.539-7.502 10.965.385 2.116 8.079 11.157 7.502 10.003.577 12.311-6.54 6.733-8.849 7.31 2.308-7.31 8.464-8.079 6.348-6.156 2.116-4.617.769h-5.963l-4.809-.577-4.617-1.154-5.578-3.463-7.31-6.733-6.733 4.809-6.54 3.847-8.464 2.885-8.464.577-10.003-.962-8.656-2.501-8.272-5.386-6.54-7.502-2.561-3.847-2.561 3.847-6.54 7.502-8.272 5.386-8.656 2.501-10.003.962-8.464-.577-8.464-2.885-6.54-3.847-6.733-4.809-7.31 6.733-5.579 3.463-4.617 1.154-4.809.577h-5.963l-4.617-.769-6.156-2.116-8.079-6.348-7.31-8.464 7.31-2.308 6.733 8.849 12.311 6.54 10.003-.577 11.157-7.502 2.116-8.079 10.965-.385 1.539 7.502 10.772 6.925 14.042 1.731 14.042-3.078 9.618-6.733 3.27-14.015z"/></g><path d="M263.754 180.456l-.126-.211c-.151-2.569.719-6.969.719-6.969.484-2.19 2.362-4.533 4.688-5.375 1.254-.454 2.776-.629 4.125.031.823.402 1.486.714 2.031 1.281s.884 1.312 1.25 2.375c.535 1.554.302 3.174.031 4.563-.447 2.291-.397 4.293.25 5.844.457 1.094 1.377 1.916 2.563 2.625-.22-.783-.379-1.163-.5-2.031-.179-1.287.038-2.617.531-3.781.858-2.028 2.043-3.627 2.844-5.406.764-1.697 1.163-3.62 1.031-5.438-.109-1.499-.552-3.048-1.406-4.125-.926-1.168-2.34-2.137-3.75-2.406-1.255-.24-3.315.187-4.969.719s-2.906 1.125-2.906 1.125l-1.469.687.25-1.594c.859-5.36 1.618-8.081 0-13.094-.665-2.061-1.777-4.334-3.656-6.969-.913-1.28-1.932-2.807-3.094-4.219-3.028 3.447-5.139 6.94-6.344 10.469-1.319 3.863-1.371 9-1.062 13.125l.125 1.656-1.406-.844s-1.599-.98-3.531-1.906-4.287-1.743-5.281-1.656c-1.874.164-3.125 1.06-4.344 2.625-1.035 1.329-1.258 2.48-1.469 4.313-.133 1.158.158 3.334.344 4.75.217 1.659 1.194 3.403 1.469 5.5.091.693.306 1.237.469 1.906s.245 1.455.063 2.375c-.126.636-.314 1.096-.562 1.875.479-.233.809-.349 1.063-.531.927-.666 1.304-1.848 1.906-3.281.324-.771.396-1.464.438-2.281s.082-1.778.5-2.844c.714-1.821 1.554-3.984 3.406-5.312 1.516-1.087 3.538-1.39 5.313-.844 1.051.324 1.803.972 2.344 1.719s.903 1.562 1.281 2.375c.484 1.04.773 2.597 1 3.969a44.76 44.76 0 0 1 .344 2.531l.031.125-.031.156-1.291 4.292-1.646-.371 1.25-4.104a60.17 60.17 0 0 0-.344-2.344c-.219-1.321-.549-2.898-.844-3.531-.387-.832-.735-1.555-1.125-2.094s-.787-.884-1.469-1.094c-1.223-.377-2.811-.147-3.844.594-1.311.94-2.106 2.76-2.812 4.562-.307.783-.333 1.488-.375 2.313s-.086 1.784-.531 2.844c-.552 1.312-1.009 2.928-2.5 4-1.099.79-3.094 1.563-3.094 1.563l-1.75.719.625-1.781s.881-2.613 1.063-3.531c.126-.636.074-1.095-.062-1.656s-.385-1.214-.5-2.094c-.217-1.659-1.194-3.403-1.469-5.5-.179-1.367-.531-3.526-.344-5.156.219-1.901.538-3.551 1.813-5.187 1.396-1.792 3.165-3.043 5.531-3.25 1.87-.164 4.17.846 6.188 1.813 1.298.622 1.692.908 2.344 1.281-.212-3.96-.147-8.526 1.156-12.344 1.382-4.047 3.75-8.036 7.344-11.906l.625-.656.625.656c1.671 1.798 2.812 3.772 3.844 5.219 1.967 2.757 3.185 5.202 3.906 7.438 1.546 4.788.979 8.057.25 12.469.569-.24.768-.372 1.75-.687 1.767-.568 3.922-1.105 5.781-.75 1.901.363 3.613 1.527 4.781 3 1.159 1.462 1.655 3.329 1.781 5.062.156 2.15-.319 4.351-1.187 6.281-.899 1.997-2.088 3.589-2.844 5.375-.381.899-.567 1.943-.437 2.875.194 1.396.938 3.656.938 3.656l.531 1.594-1.625-.531c-2.594-.88-4.292-2.474-5.125-4.469s-.829-4.324-.344-6.812c.255-1.307.39-2.613.031-3.656-.332-.966-.575-1.438-.875-1.75s-.762-.546-1.562-.938c-.739-.362-1.881-.306-2.812.031-1.545.56-3.395 2.628-3.562 4.094-.296 2.589-1.031 5.222-2.28 6.863zm48.749-3.052l.438-.875-.937-.313c-6.979-2.21-13.424-.538-19.5 2.031a134.46 134.46 0 0 0 5.656-20.125c6.625 11.903 12.246 15.797 17.531 18.219l.969.438.219-1.063c1.577-8.127 1.699-18.955-4.969-35.062 7.472.388 14.902 1.284 22.281 4.562l.688-1.562c-8.101-3.6-16.194-4.494-24.187-4.844l-1.375-.062.563 1.25c6.848 15.896 6.849 26.242 5.469 34.219-5.079-2.472-10.219-6.204-16.781-18.719l-1.156-2.187-.437 2.438c-1.425 7.889-3.65 15.789-6.656 23.688l-.75 1.938 1.875-.875c6.137-2.785 12.342-4.598 19.031-2.844l.165.103zm-233.063.25c6.68-1.743 12.871.062 19 2.844l1.875.875-.719-1.937c-3.007-7.898-5.231-15.799-6.656-23.687l-.437-2.437-1.156 2.188c-6.565 12.52-11.732 16.247-16.812 18.719-1.38-7.976-1.348-18.322 5.5-34.219l.531-1.25-1.344.062c-7.994.35-16.086 1.244-24.187 4.844l.688 1.562c7.388-3.283 14.8-4.175 22.281-4.562-6.668 16.108-6.546 26.935-4.969 35.062l.188 1.063 1-.438c5.282-2.42 10.913-6.304 17.531-18.187 1.33 6.704 3.205 13.397 5.656 20.094-6.076-2.569-12.521-4.241-19.5-2.031l-.937.313.438.875-.181.091 2.212.159zm54.883 3.778l-.977-3.652c.017-.154.111-1.031.313-2.25.219-1.321.58-2.898.875-3.531.387-.832.735-1.555 1.125-2.094s.787-.884 1.469-1.094c1.223-.377 2.78-.147 3.813.594 1.311.94 2.137 2.76 2.844 4.562.307.783.333 1.488.375 2.313s.086 1.784.531 2.844c.552 1.312 1.009 2.928 2.5 4 1.099.79 3.094 1.563 3.094 1.563l1.719.719-.594-1.781s-.881-2.613-1.062-3.531c-.126-.636-.074-1.095.063-1.656s.353-1.214.469-2.094c.217-1.659 1.194-3.403 1.469-5.5.179-1.367.563-3.526.375-5.156-.219-1.901-.538-3.551-1.812-5.187-1.396-1.792-3.165-3.043-5.531-3.25-1.87-.164-4.17.846-6.187 1.813-1.298.622-1.692.908-2.344 1.281.212-3.96.147-8.526-1.156-12.344-1.382-4.047-3.75-8.036-7.344-11.906l-.625-.656-.625.656c-1.671 1.798-2.843 3.772-3.875 5.219-1.967 2.757-3.153 5.202-3.875 7.438-1.546 4.788-.979 8.057-.25 12.469-.569-.24-.759-.369-1.75-.687-1.767-.568-3.922-1.105-5.781-.75-1.901.363-3.613 1.527-4.781 3-1.159 1.462-1.655 3.329-1.781 5.062-.156 2.15.319 4.351 1.188 6.281.899 1.997 2.088 3.589 2.844 5.375.381.899.536 1.943.406 2.875-.194 1.396-.906 3.656-.906 3.656l-.531 1.594 1.625-.531c2.594-.88 4.292-2.474 5.125-4.469s.829-4.324.344-6.812c-.255-1.307-.39-2.613-.031-3.656.332-.966.575-1.438.875-1.75s.731-.546 1.531-.938c.739-.361 1.912-.306 2.844.031 1.545.56 3.231 2.65 3.563 4.094v.031c.008.042.806 4.509.688 6.531l2.006.355c-.167-2.83-1.037-7.229-1.037-7.229-.484-2.19-2.33-4.533-4.656-5.375-1.254-.454-2.807-.628-4.156.031-.823.402-1.455.714-2 1.281s-.915 1.312-1.281 2.375c-.535 1.554-.302 3.174-.031 4.563.447 2.291.397 4.293-.25 5.844-.457 1.094-1.346 1.916-2.531 2.625.22-.783.379-1.163.5-2.031.179-1.287-.038-2.617-.531-3.781-.858-2.028-2.043-3.627-2.844-5.406-.764-1.697-1.195-3.62-1.062-5.438.109-1.499.552-3.048 1.406-4.125.926-1.168 2.371-2.137 3.781-2.406 1.255-.24 3.284.187 4.938.719s2.938 1.125 2.938 1.125l1.469.687-.281-1.594c-.859-5.36-1.587-8.081.031-13.094.665-2.061 1.745-4.334 3.625-6.969.913-1.28 1.962-2.807 3.125-4.219 3.027 3.446 5.139 6.94 6.344 10.469 1.319 3.863 1.34 9 1.031 13.125l-.094 1.656 1.406-.844s1.568-.98 3.5-1.906 4.319-1.743 5.313-1.656c1.874.164 3.125 1.06 4.344 2.625 1.035 1.329 1.258 2.48 1.469 4.313.133 1.158-.19 3.334-.375 4.75-.217 1.659-1.163 3.403-1.437 5.5-.091.693-.306 1.237-.469 1.906s-.276 1.455-.094 2.375c.126.636.314 1.096.563 1.875-.479-.233-.809-.349-1.062-.531-.927-.666-1.304-1.848-1.906-3.281-.324-.771-.365-1.464-.406-2.281s-.082-1.778-.5-2.844c-.714-1.821-1.554-3.984-3.406-5.312-1.516-1.087-3.538-1.39-5.312-.844-1.051.324-1.834.972-2.375 1.719s-.872 1.562-1.25 2.375c-.484 1.04-.773 2.597-1 3.969s-.375 2.531-.375 2.531v.125l.031.156 1.008 3.746.497.054 1.159-.428zm64.679-13.84l.031-1.062 1.031.25c4.755 1.192 8.39 2.803 11.406 4.594 3.827 2.272 6.653 4.822 9.625 7.281l.5-28.219c-2.533 2.796-4.91 5.792-8.406 8.188-2.855 1.957-8.21 4.528-13.219 5.094l-1.187.125.25-1.156c.705-3.18.685-5.389 2.281-9.156 1.515-3.574 4.708-8.757 11.063-17.438-5.495-.607-10.283-1.281-17.437-1.281s-11.913.674-17.406 1.281c6.354 8.681 9.548 13.864 11.063 17.438 1.597 3.767 1.576 5.976 2.281 9.156l.25 1.156-1.187-.125c-5.009-.565-10.363-3.137-13.219-5.094-3.483-2.387-5.885-5.369-8.406-8.156l.5 28.156c2.96-2.451 5.813-4.987 9.625-7.25 3.016-1.79 6.62-3.401 11.375-4.594l1.063-.25v1.062l-1.713 1.197c-4.015 1.131-7.225 2.495-9.85 4.053-4.203 2.495-7.24 5.408-10.812 8.25l-1.344 1.063-.031-1.719-.531-32.187-.062-2.125 1.5 1.5c3.298 3.326 5.771 6.952 9.625 9.594 2.377 1.629 7.037 3.807 11.313 4.563-.476-2.563-.686-4.568-1.969-7.594-1.502-3.544-4.595-8.74-11.656-18.281l-.875-1.188 1.469-.156c6.085-.631 11.105-1.469 19-1.469v.001c7.895 0 12.915.838 19 1.469l1.5.156-.875 1.188c-7.061 9.541-10.185 14.737-11.687 18.281-1.287 3.037-1.457 5.048-1.937 7.625 4.278-.755 8.903-2.964 11.281-4.594 3.855-2.641 6.358-6.268 9.656-9.594l1.469-1.5-.031 2.125-.562 32.188v1.719l-1.375-1.063c-3.572-2.842-6.578-5.755-10.781-8.25-2.624-1.558-5.834-2.921-9.844-4.031z"/><g class="B"><use href="#F" class="D G"/><g stroke-width="1.607" class="F"><ellipse rx="10.489" transform="matrix(.73205 0 0 .73205 -1774.039175 -409.678778)" ry="10.66" cy="785.026" cx="2689.701"/><ellipse rx="10.489" transform="matrix(.73205 0 0 .73205 -1895.523195 -398.944278)" ry="10.66" cy="785.026" cx="2689.701"/><ellipse rx="10.489" transform="matrix(-.73205 0 0 .73205 2285.436247 -398.944278)" ry="10.66" cy="785.026" cx="2689.701"/></g></g><g transform="matrix(.998531 -.054183 .054183 .998531 407.863016 -931.346125)"><use href="#G" class="C"/><use href="#G" class="B D G"/></g><g transform="matrix(-.998531 -.054185 -.054185 .998531 -17.94803 -931.346439)"><use href="#G" class="C"/><use href="#G" class="B D G"/></g></g><g transform="matrix(.793594 0 0 .793594 145.11832 654.14576)"><path d="M88.588 207.6l33.297-2.083c21.242-1.199 44-1.829 55.609-1.829h35.387c11.245 0 34.538.63 55.609 1.829l33.055 2.205 7.388-33.005s-75.7-6.831-113.745-6.831-113.745 6.831-113.745 6.831z" class="C E"/><path d="M194.701 168.246c38.012-.019 76.02 2.041 113.863 6.234l-6.928 33.312c-37.64-3.379-68.451-4.283-106.509-4.581m.505-34.966c-38.012-.019-76.02 2.041-113.863 6.234l6.928 33.312c37.64-3.379 68.451-4.283 106.509-4.581" class="B D G"/><use href="#H" class="M"/><use href="#H" stroke-width="1.197" class="B C"/><path d="M126.699 203.435l-.029.024h-.029c-12.569.973-27.115 2.033-39.808 3.893-1.795 2.307-1.944 4.411 1.322 6.094 12.186-1.786 26.554-2.872 39.132-3.845 17.058-1.063 34.257-1.728 51.412-1.91h32.904c10.262 0 31.934.673 51.412 1.935 19.39 1.255 39.191 3.821 39.191 3.821 3.379-1.856 3.012-3.932 1.175-6.094 0 0-19.985-2.636-39.779-3.918-19.705-1.276-41.35-1.935-52-1.935h-32.904c-17.359.056-34.691.936-52 1.935z" class="M"/><path d="M126.699 203.435l-.029.024h-.029c-12.569.973-27.115 2.033-39.808 3.893-1.795 2.307-1.944 4.411 1.322 6.094 12.186-1.786 26.554-2.872 39.132-3.845 17.058-1.063 34.257-1.376 51.412-1.558h32.904c10.262 0 31.934.321 51.412 1.582 19.39 1.255 39.191 3.821 39.191 3.821 3.379-1.856 3.012-3.932 1.175-6.094 0 0-19.985-2.636-39.779-3.918-19.705-1.276-41.35-1.582-52-1.582h-32.904a956.25 956.25 0 0 0-52 1.583z" stroke-width="1.187" class="B C"/><g transform="translate(.21 .69)"><g transform="matrix(.505536 0 0 .386916 -1263.43256 -143.59513)"><path d="M2840.094 823.565h89.493v59.169h-89.493z" class="C E"/><rect ry="3.006" height="59.169" width="89.493" y="823.565" x="2840.095" class="B D I"/></g><g transform="matrix(.505536 0 0 .386916 -1263.43257 -143.595122)" class="I"><g class="E"><g stroke="#a0892c"><rect ry="5.177" height="43.637" width="70.263" y="831.331" x="2849.71" class="H"/><path d="M2918.459 873.455a5.16 5.16 0 0 1-3.664 1.513h-59.908a5.16 5.16 0 0 1-5.177-5.177v-33.282a5.16 5.16 0 0 1 1.513-3.664c.936-.936 68.172 39.675 67.237 40.611z" fill="#2b96f6"/></g><g class="B H"><path d="M2918.459 873.455a5.16 5.16 0 0 1-3.664 1.513h-59.908a5.16 5.16 0 0 1-5.177-5.177v-33.282a5.16 5.16 0 0 1 1.513-3.664c.475-.475 18.04 9.759 35.096 20.073 16.539 10.001 32.601 20.077 32.14 20.538z"/><path d="M2918.459 832.844a5.16 5.16 0 0 1 1.513 3.664v33.282a5.16 5.16 0 0 1-5.177 5.177h-59.908a5.16 5.16 0 0 1-3.664-1.513c-.936-.936 66.301-41.547 67.237-40.611z"/><path d="M2918.459 873.455a5.16 5.16 0 0 1-3.664 1.513h-59.908a5.16 5.16 0 0 1-3.664-1.513c-.475-.475 16.6-11.163 33.661-21.457 0 0 34.512 20.521 33.576 21.457z"/></g></g><g class="B"><rect ry="5.177" height="43.637" width="70.263" y="831.331" x="2849.71" class="D"/><path d="M2865.157 841.292h39.367v22.304h-39.367z" class="E H"/></g></g><g transform="translate(-302.24 -173.086)"><g transform="matrix(.865705 -.085066 .135965 .770241 -53.130928 133.63024)"><g class="E"><rect ry="10.771" width="35.829" height="22.674" y="340.211" x="494.629" class="B C J"/><rect ry="8.271" height="16.542" width="29.954" y="343.276" x="497.566" fill="#306947"/></g><rect ry="8.271" height="16.542" width="29.954" y="343.276" x="497.566" class="B D J"/></g><g transform="matrix(-.818136 .142819 .154669 .886016 852.10246 11.280044)"><use href="#I" class="B C K"/><g fill="#c8102e"><use href="#J"/><use href="#K"/></g><g class="B D K"><use href="#L" transform="translate(156.532 47.58)"/><use href="#M"/></g></g><g transform="matrix(.9 0 0 .9 293.29332 -621.10022)" class="B F L"><ellipse rx="10.489" transform="matrix(.405 0 0 .405 -900.033558 765.136722)" ry="10.66" cy="785.026" cx="2689.701"/><ellipse rx="10.489" transform="matrix(.405 0 0 .405 -899.164893 778.679682)" ry="10.66" cy="785.026" cx="2689.701"/></g><g transform="matrix(.9 0 0 .9 241.85751 -618.28744)" class="B F L"><ellipse rx="10.489" transform="matrix(.405 0 0 .405 -900.033558 765.136722)" ry="10.66" cy="785.026" cx="2689.701"/><ellipse rx="10.489" transform="matrix(.405 0 0 .405 -899.164893 778.679682)" ry="10.66" cy="785.026" cx="2689.701"/></g><g transform="matrix(-1 0 0 1 994.39268 0)"><g transform="matrix(.865705 -.085066 .135965 .770241 -53.130928 133.63024)"><g class="E"><rect ry="10.771" width="35.829" height="22.674" y="340.211" x="494.629" class="B C J"/><rect ry="8.271" height="16.542" width="29.954" y="343.276" x="497.566" fill="#306947"/></g><rect ry="8.271" height="16.542" width="29.954" y="343.276" x="497.566" class="B D J"/></g><g transform="matrix(-.818136 .142819 .154669 .886016 852.10246 11.280044)"><use href="#I" class="B C K"/><g fill="#c8102e"><use href="#J"/><use href="#K"/></g><g class="B D K"><use href="#L" transform="translate(156.532 47.58)"/><use href="#M"/></g></g><g transform="matrix(.9 0 0 .9 293.29332 -621.10022)" class="B F L"><ellipse rx="10.489" transform="matrix(.405 0 0 .405 -900.033558 765.136722)" ry="10.66" cy="785.026" cx="2689.701"/><ellipse rx="10.489" transform="matrix(.405 0 0 .405 -899.164893 778.679682)" ry="10.66" cy="785.026" cx="2689.701"/></g><g transform="matrix(.9 0 0 .9 241.85751 -618.28744)" class="B F L"><ellipse rx="10.489" transform="matrix(.405 0 0 .405 -900.033558 765.136722)" ry="10.66" cy="785.026" cx="2689.701"/><ellipse rx="10.489" transform="matrix(.405 0 0 .405 -899.164893 778.679682)" ry="10.66" cy="785.026" cx="2689.701"/></g></g></g></g></g></g></g><defs ><path id="C" d="M1078.843 808.643c-9.002.106-18.004.284-26.935.851-6.592.496-14.106 1.063-20.521 1.985l-1.63.284c-4.04.78-4.607 5.6-2.481 8.222 4.324 5.423 29.948 9.64 60.215 9.64 30.231 0 55.855-4.218 60.179-9.64 2.127-2.623 1.559-7.443-2.481-8.222l-1.63-.284c-6.379-.921-13.928-1.489-20.521-1.985-8.931-.567-17.933-.744-26.935-.851h-8.612z"/><path id="D" d="M1169.514 221.198l3.989-12.549 1.611-5.195 3.993-2.673 4.044-9.901 1.905-2.589.294-9.122s-2.794-6.471-7.118-8.795c-6.185-3.324-14.58-2.867-14.58-2.867s-1.939-5.525-5.496-7.675-7.506-2.668-11.652-2.668-11.585 3.993-15.608 5.166c-2.092.61-6.815 2.668-6.815 2.668s-4.723-2.058-6.815-2.668c-4.023-1.174-11.463-5.166-15.608-5.166s-7.966.44-11.652 2.668c-3.428 2.072-8.134 7.675-8.134 7.675s-5.388-.788-9.173 1.666c-4.721 3.06-8.048 9.497-8.048 9.497l.326 9.967.743 3.81 3.051 3.778 3.977 7.63 2.85 7.525 3.05 9.821z"/><path id="E" d="M771.158 228.303c-39.76-1.074-94.774 15.069-140.062 71.531l10.156 8.125c42.842-53.413 93.601-67.627 129.563-66.656z"/><path id="F" d="M194.956 180.771s-4.939 7.603-7.977 10.201c-4.218 3.608-6.992 5.781-12.411 7.489-5.409 1.705-12.953 2.664-18.616 2.354-5.477-.3-11.112-1.888-16.048-4.28-4.291-2.079-11.127-8.131-11.127-8.131-3.323 4.312-7.555 7.341-11.583 9.579-5.151 2.862-10.24 3.12-15.586 2.832-10.867-.586-21.005-7.374-29.137-21.138-5.273-12.47-11.337-25.099-18.912-38.342 8.729-3.09 18.903-4.736 30.187-5.271-4.589 12.931-9.35 25.528-7.666 35.937 9.481-7.101 12.547-16.767 15.812-26.353l11.021 38.812c-6.689-1.173-3.132-2.555-20.698-5.885 3.52 6.637 11.578 14.832 20.462 15.639 5.974.543 10.31-1.303 14.107-4.596 2.728-2.366 5.215-5.495 5.182-9.02l-.056-6.056c-.012-1.297-1.613-3.132-2.909-3.151-1.236-.017-1.578 1.988-1.908 3.179-.66 2.383.665 5.037 0 7.419-.734 2.626-2.141 4.699-4.451 6.147-1.924 1.206-6.571 1.484-6.571 1.484l1.484-5.723c1.047-4.037-2.872-7.171-3.815-11.234-.607-2.615-.941-5.54 0-8.054 1.018-2.72 3.079-5.368 5.723-6.571.965-.439 2.122-.499 3.179-.424 1.495.106 4.451 1.06 4.451 1.06s-.848-4.091-.636-6.571c.258-3.007 2.805-8.578 4.239-11.234 2.381-4.41 6.168-8.383 6.6-8.81.415.417 4.52 4.238 7.202 8.471 1.615 2.55 3.272 6.234 3.739 9.216.384 2.459.247 7.659.247 7.659s4.366-1.793 5.85-2.003c1.049-.149 2.208-.169 3.201.202 2.721 1.016 4.961 3.514 6.166 6.157 1.114 2.443.984 5.384.56 8.035-.658 4.119-3.078 7.305-1.753 11.26l1.878 5.606s-4.654.046-6.658-1.023c-2.405-1.283-3.954-3.254-4.868-5.822-.829-2.33-.348-5.183-1.788-7.189-.637-.888-1.528-1.87-2.76-1.767-1.292.108-2.2 2.22-2.254 3.516l-.229 5.451c-.07 1.675.693 3.416 1.59 4.771 2.197 3.32 5.468 5.334 9.158 6.83 3.997 1.62 7.601 2.242 11.913 2.293 3.597.042 9.85-.547 13.258-1.699 4.199-1.419 6.669-3.221 9.917-6.236 1.831-1.7 3.055-4.168 3.86-6.533.928-2.724.594-7.424.594-7.424-4.178 1.584-7.811 3.713-11.086 6.201-3.701 2.812-6.943 6.081-9.998 9.538l-.297-46.919c4.353 4.802 7.517 9.102 11.87 12.718 3.665 3.045 5.549 4.207 9.214 5.396-1.047-3.774-1.401-6.064-4.103-9.838-3.747-5.233-7.396-10.852-11.932-16.086 8.353-1.391 16.702-1.766 25.167-1.766s16.813.375 25.167 1.766c-4.537 5.233-8.186 10.852-11.932 16.086-2.702 3.774-3.056 6.064-4.103 9.838 3.665-1.189 5.549-2.351 9.214-5.396 4.353-3.616 7.517-7.917 11.87-12.718l-.297 46.919c-3.055-3.457-6.298-6.726-9.998-9.538-3.274-2.488-6.907-4.617-11.086-6.201 0 0-.334 4.7.594 7.424.806 2.365 2.029 4.833 3.86 6.533 3.248 3.015 5.718 4.817 9.917 6.236 3.408 1.152 9.661 1.741 13.258 1.699 4.312-.05 7.917-.673 11.913-2.293 3.69-1.495 6.96-3.509 9.158-6.83.897-1.355 1.66-3.096 1.59-4.771l-.229-5.451c-.054-1.296-.962-3.408-2.254-3.516-1.232-.103-2.123.88-2.76 1.767-1.44 2.006-.958 4.859-1.788 7.189-.914 2.568-2.463 4.539-4.868 5.822-2.004 1.069-6.658 1.023-6.658 1.023l1.878-5.606c1.325-3.955-1.095-7.141-1.753-11.26-.424-2.651-.554-5.592.56-8.035 1.205-2.643 3.445-5.14 6.166-6.157.993-.371 2.152-.35 3.201-.202 1.484.21 5.85 2.003 5.85 2.003s-.138-5.2.247-7.659c.466-2.982 2.123-6.666 3.739-9.216 2.682-4.234 6.787-8.054 7.202-8.471.432.427 4.219 4.4 6.6 8.81 1.434 2.656 3.982 8.226 4.239 11.234.212 2.48-.636 6.571-.636 6.571s2.956-.954 4.451-1.06c1.057-.075 2.215-.015 3.179.424 2.644 1.203 4.704 3.851 5.723 6.571.941 2.514.607 5.439 0 8.054-.943 4.063-4.862 7.196-3.815 11.234l1.484 5.723s-4.646-.278-6.571-1.484c-2.31-1.447-3.718-3.521-4.451-6.147-.665-2.382.66-5.035 0-7.419-.33-1.191-.672-3.197-1.908-3.179-1.297.018-2.897 1.854-2.909 3.151l-.056 6.056c-.033 3.525 2.455 6.654 5.182 9.02 3.797 3.293 8.133 5.139 14.107 4.596 8.884-.807 16.942-9.002 20.462-15.639-17.566 3.33-14.009 4.712-20.698 5.885l11.021-38.812c3.265 9.587 6.331 19.253 15.812 26.353 1.684-10.409-3.077-23.005-7.666-35.937 11.284.535 21.457 2.181 30.187 5.271-7.574 13.242-13.639 25.871-18.912 38.342-8.132 13.764-18.27 20.552-29.137 21.138-5.346.288-10.435.03-15.586-2.832-4.028-2.238-8.259-5.267-11.583-9.579 0 0-6.836 6.052-11.127 8.131-4.936 2.391-10.571 3.979-16.048 4.28-5.663.31-13.207-.649-18.616-2.354-5.418-1.708-8.192-3.881-12.411-7.489-3.037-2.598-7.977-10.201-7.977-10.201z"/><path id="G" d="M-346.459 1090.707h16.902l2.199 3.806-2.199 3.806h-16.902l-2.707-3.806z"/><path id="H" d="M121.532 169.047l-.032.024h-.032c-13.517.973-29.161 2.033-42.813 3.893-1.93 2.307-2.09 4.411 1.422 6.094 13.106-1.786 28.559-2.872 42.086-3.845 18.346-1.063 36.843-1.728 55.293-1.91h35.387c11.036 0 34.344.673 55.293 1.935 20.853 1.255 42.149 3.821 42.149 3.821 3.634-1.856 3.239-3.932 1.264-6.094 0 0-21.493-2.636-42.781-3.918-21.192-1.276-44.471-1.935-55.925-1.935h-35.387c-18.669.056-37.309.936-55.925 1.935z"/><path id="I" d="M626.165 310.883l-23.701-12.771 23.701-12.082 2.881 13.147z"/><path id="J" d="M626.165 307.466l-17.183-9.259 17.183-8.759 5.657 8.579z"/><path id="K" d="M626.165 307.466l-17.183-9.259 22.66-.18z"/><path id="L" d="M452.404 250.561l22.953-.025"/><path id="M" d="M626.165 307.466l-17.183-9.259 17.183-8.759 5.837 8.399z"/></defs></svg>