<svg width="900" height="600" version="1.0" xmlns="http://www.w3.org/2000/svg">
  <path fill="#A51931" d="M-.00004453 0h900v600h-900z"/>
  <path d="M417.43 230.6c-2.4144.068-4.8248.5865-7.1443 1.5142-7.8063 3.1221-15.809 12.67-19.314 20.312-1.6662 3.6337-.33184 8.6585-.33184 8.6585s-1.9477.9027-2.6659 1.6648c-2.8617 3.0364-4.8499 6.9767-5.9926 10.99-.54807 1.9245-.67484 6.9295-.67482 6.9295 0 0 6.7326-1.1837 8.5664-.276.8477.4195 1.4452 1.7231 1.1851 2.5794-.6403 2.1082-2.4582 3.5538-4.4143 4.5676-1.9808 1.0267-6.6619.6665-6.6619.6665s-1.3313 8.0127-.66367 11.508c.39123 2.0485 2.3355 3.6012 2.6631 5.6608.42175 2.6514.0291 5.5116-.99829 7.992-.96864 2.3385-3.9161 3.5739-4.6625 5.9926-1.0494 3.4007-.75572 7.3927.66647 10.655 1.2236 2.8069 3.5135 5.4539 6.3272 6.6618 2.55 1.0947 5.7473 1.0306 8.3238 0 2.9888-1.1955 5.3377-3.9015 6.9937-6.6618 1.0668-1.7782 1.3847-3.938 1.6648-5.9926.1799-1.3198-.59568-2.8047 0-3.9961.49642-.9928 2.6631-1.9993 2.6631-1.9993s-2.444-.9051-3.6614-.6637c-1.8121.3593-3.7349 1.3972-4.6625 2.9949-1.0604 1.8264.34784 4.3286-.33464 6.3272-.56715 1.6609-1.4403 3.5161-2.9949 4.3306-1.2782.6698-2.9975.5523-4.3306 0-1.3053-.5406-2.457-1.6924-2.9977-2.9977-.93452-2.2561-.67322-4.9781 0-7.3255.86605-3.0198 4.0452-4.9982 4.9971-7.992 1.1791-3.7084 1.232-7.8061.66647-11.656-.18881-1.2854-1.2398-2.3655-1.3329-3.6614-.19492-2.7142 1.6648-7.992 1.6648-7.992s5.5466-4.8339 8.9903-5.6607c2.3843-.5725 5.0199 1.4984 7.3255.6637 1.7712-.6413 3.6943-2.1367 3.996-3.9961.23855-1.4699-3.0411-2.9345-1.9966-3.996 2.1589-2.194 3.9594 3.1834 6.9937 2.6659 1.3927-.2375 3.4022-.5975 4.3278-1.6648 2.1818-2.5156 3.0142-6.5028 5.9926-7.992.49641-.2482 1.1653-.2361 1.6676 0 4.566 2.1465 3.836 15.652 8.8342 14.963 1.083-.1491 2.7854-1.9183 2.9754-2.9949.56077-3.1775-2.2292-9.829-1.4891-12.97.50215-2.1309 2.8983-3.5149 3.3323-5.6607.33304-1.6464-.96051-3.3406-.66647-4.9944.4172-2.3464 3.8441-4.0001 3.3295-6.3272-.63271-2.8614-4.0701-5.1289-6.9937-5.3289-2.9257-.2002-5.958 1.9406-7.6574 4.3306-.71911 1.0114-.0233 2.6-.66645 3.6614-.65589 1.0824-2.4417 1.1943-2.9977 2.3312-1.0241 2.094 3.4186 7.4939 1.0987 7.267 0 0-4.7204-5.7953-6.7595-7.6379-1.3507-1.2206-4.866-.2211-4.3278-1.9603.59154-1.9117 4.1149.3599 5.9926-.3318 6.0204-2.2179 8.9024-10.758 15.318-10.655 4.5761.073 8.5276 3.6067 10.658 7.6574 1.2958 2.4639-2.0645 3.9008-2.744 6.6005-.99949 3.9711-2.0943 8.1212-3.2514 12.049-1.0978 3.7267 1.1482 7.942 0 11.653-.75523 2.4413-2.5951 5.2228-5.1505 5.2285-5.6653.011-8.8342-13.711-8.8342-13.711-3.3436-2.5058-4.371 6.3307-7.9167 8.5414-2.4217 1.5098-8.4019 3.9374-8.4019 3.9374s6.5438 4.2665 7.992 7.6602c2.1783 5.1046-.92456 11.178 0 16.65.45029 2.6652 2.6631 7.6573 2.6631 7.6573l1.0011 6.6591c-.27332 2.7917-1.1802 3.0532-.66645 8.9931l.99829 5.9926-1.6648 5.329v5.3289l9.9914-.3346c.39705-2.9672.44674-4.8932 1.6648-10.323l-.56607-7.6769-1.9994-7.3283s-.15872-4.0526.33184-5.9926c.51124-2.0219 1.3912-5.228 1.5672-7.306.1749-2.0663-2.6532-4.1725-1.6648-5.9954 1.1088-2.0451-1.7587-6.6761 0-7.6574 1.2774-.7128 1.2404 2.2522 2.0245 4.1577.58571 1.4234 2.3034 2.1695 2.3034 2.1695s8.9894-4.9986 6.818-7.6016c-.99545-1.1933-2.3449-4.0739-.82262-4.3864 2.4843-.5099 3.3523 4.4802 2.9949 6.9909-.56679 3.982-8.2067 7.4036-8.2067 7.4036l-1.7819 12.911.66647 11.653 2.6631 7.3283c-1.3218 4.2154-2.7962 8.4681-.66647 11.821h11.322c2.1318 0 1.5617-2.6077 1.5226-6.1739-.0327-2.9771.80911-6.623-.85609-9.9774-1.6447-3.3132-2.2366-6.1102-2.5069-8.7087-.3207-3.0833-.18798-5.8867-.82263-8.9401-.98411-4.7347 1.4273-6.4327 6.3272-6.6591 13.29 4.5817 23.147 3.1566 32.966 1.6648.30685 3.2954 4.8172 9.5919 11.322 17.314-.61995 1.8912-1.1241 4.0721 0 10.323l-1.9966 6.9937v4.1633h10.323l.99831-7.4929-.99831-7.992c-.85047-10.21.12622-12.193.99831-14.651l-2.3312-10.99c1.6237 1.3062 2.487 2.7172 4.9943 9.325l-.66367 7.992c-.20534 1.5489-1.3931 4.6326 0 8.9903l.66367 6.3272-1.3301 8.4912h13.318l-.33184-9.4923-1.3329-2.663v-6.3273l-1.9966-4.9943.33184-9.3249 5.9954-15.984s1.3398 1.8726 1.5309 2.9698c.96209 5.5239-2.9349 11.12-2.1974 16.678.1898 1.4305 1.6648 3.9961 1.6648 3.9961s-1.5108 1.8653-1.6648 2.9977c-.4461 3.2812.24886 7.082 2.3312 9.6567 1.9356 2.3934 8.3238 3.996 8.3238 3.996s-4.0668-4.5192-4.9943-7.3255c-.8715-2.6369.59609-5.71-.33462-8.3267-.18599-.5229-.99831-1.3329-.99831-1.3329s-1.0601-1.9735-1.3022-3.5944c-.91975-6.1576 3.3714-12.823 3.3714-19.049 0-2.8299-2.4009-8.3238-2.4009-8.3238s.47593-11.012-1.9994-15.652c-8.7381-16.381-22.272-27.177-38.627-35.964-4.0564-2.1795-12.057-2.673-16.65-2.9977-9.5998-.6787-28.638 2.3312-28.638 2.3312s-5.2166-3.8316-11.988-5.6608c-1.4417-.3894-1.9294-2.4754-3.3295-2.9949-2.3421-.869-4.7606-1.2509-7.175-1.1823zm-15.309 25.083s-1.6417 1.628-2.1054 2.4763c-.31908.5838-.58677.7343-.37087 1.3636.32195.9383 1.125 1.9514 2.1054 2.1026 1.1491.1771 2.4769-.6245 3.0953-1.609.72451-1.1536.12264-4.0853.12264-4.0853s1.5588 2.101 1.7345 3.3435c.11779.8333-.0301 1.7756-.49637 2.4763-1.0205 1.534-2.9198 2.291-4.5788 3.0925-.74025.3576-2.3535.7445-2.3535.7445s1.0892-1.0404 1.2381-1.7345c.0882-.4114-.24818-1.2381-.24818-1.2381s-1.8532.1169-2.4762-.7417c-.60774-.8376-.76638-2.1391-.37088-3.0954.41393-1.0008 1.182-1.9101 2.1054-2.4762.75933-.4656 2.5989-.619 2.5989-.6191zm-30.287 15.22c.82031 3.3575 4.7825 5.3104 8.3015 6.344l.25654-3.4495c-2.5828-.5757-6.4697-1.4947-8.5581-2.8945zm-4.8409 8.0032c1.4049 5.7502 7.3455 7.7978 15.488 7.7466 6.9043.839 8.849-5.8873 3.3881-5.209-6.7382.1579-14.138.6382-18.876-2.5376zm33.145 72.263c-1.7363.046-3.4489.2626-5.1058.7445-1.3208.3841-2.2441-.4647-3.5387 0-2.2451.8059-7.0774 0-7.0774 0s-.89805 2.6973 1.2325 3.6781c.82174.3783 3.2979.063 4.8019.2872 1.5402.2297 2.1065.9929 2.8109.9872 1.5333-.011 2.7284-1.5558 4.247-1.768 1.9996-.2794 6.0149.7083 6.0149.7083s.49597 1.6192-.55213 2.0273c-.73045.2844-2.7059.038-3.0228.5298-.63856.9917-1.1166 1.8816-.31791 2.7496.9617 1.0451 4.247.3541 4.247.3541s-1.0008 3.2462 0 4.247c.75062.7506 3.1845 0 3.1845 0s.85124 3.1384 2.1221 3.8928c.70997.4215 2.479 0 2.479 0s-1.1668 3.2927-.35415 4.5983c.56012.8999 2.6587.4358 3.7562.7279.8755.233.7112 1.2909 1.5504 1.3942 2.5993.32 7.7856-1.0596 7.7856-1.0596s-.59227 3.3862.35415 4.5983c.91817 1.176 4.2442 1.4166 4.2442 1.4166s-.1933 1.6583.35414 2.1221c.88456.7493 2.711-.2129 3.9542-.3374 1.16-.1162 1.7304.6398 2.769.3374 1.4765-.43 3.8928-2.4762 3.8928-2.4762s2.0041 4.0372 3.8928 4.9552c1.273.6187 4.247 0 4.247 0s2.7237 1.5698 4.2442 1.768c2.5969.3385 5.3717-.047 7.7856-1.0625 1.2396-.5216 2.1208-1.6534 3.1845-2.4762 1.5302-1.1836 4.6011-3.5387 4.6011-3.5387s5.3873 1.5626 8.137 1.4166c1.2943-.069 2.379-.9222 3.9207-1.4389 1.5224-.5102 3.0294.4052 3.5108-.686.43559-.9874-1.6843-2.7634-1.6843-2.7634l-2.5961-.6358-1.3804-1.9074s4.473-.8279 6.7232-.7083c1.6864.09 3.2701.9156 4.9525 1.0624 2.0212.1764 3.4981-.033 5.5632-.1115 1.1786-.045 3.1869.5912 3.9904-.2426.34157-.3544 1.688-1.2642 1.5253-2.2448-.15628-.9419-1.8138-1.9497-1.8377-2.5877-.0822-2.1989.31232-2.9531.31232-2.9531h6.7232s.0524-1.922.70829-2.4763c.81582-.6893 2.4722.4417 3.1845-.3541 1.0226-1.1426 0-4.5983 0-4.5983s3.2534.7313 4.6011 0c.99552-.5403.66888-1.7948 1.4361-3.0981.35704-.6066 1.7504-.5896 2.1918-1.1517.96565-1.2304.97041-3.1818.97041-3.1818s-5.1256-.1414-7.7829 0c-4.0322.2147-12.033 0-12.033 0h-83.86s-4.1556.3302-6.369 0c-2.8445-.4242-5.8008-.821-8.6947-.7445z" fill="#F4F5F8" fill-rule="evenodd"/>
  <g fill="#F4F5F8" color="#000">
    <path d="M329.77 651.81c-55.184 0-99.952 44.772-99.952 99.956s44.768 99.956 99.952 99.956 99.956-44.772 99.956-99.956-44.772-99.956-99.956-99.956zm0 3.3864c53.353 0 96.57 43.217 96.57 96.57s-43.217 96.566-96.57 96.566-96.566-43.213-96.566-96.566 43.213-96.57 96.566-96.57zm0 1.7759c-52.335 0-94.79 42.459-94.79 94.794s42.455 94.79 94.79 94.79 94.794-42.455 94.794-94.79-42.459-94.794-94.794-94.794zm0 2.8238c50.809 0 91.97 41.161 91.97 91.97s-41.161 91.966-91.97 91.966-91.966-41.157-91.966-91.966 41.157-91.97 91.966-91.97zm0 14.994c-42.494 0-76.972 34.481-76.972 76.976 0 42.494 34.478 76.972 76.972 76.972s76.976-34.478 76.976-76.972-34.481-76.976-76.976-76.976zm0 2.8238c40.968 0 74.152 33.183 74.152 74.152 0 40.968-33.184 74.148-74.152 74.148s-74.148-33.18-74.148-74.148 33.18-74.152 74.148-74.152zm0 2.0922c-39.776 0-72.056 32.283-72.056 72.06 0 39.776 32.28 72.056 72.056 72.056s72.06-32.28 72.06-72.056-32.283-72.06-72.06-72.06zm0 3.3901c37.945 0 68.669 30.725 68.669 68.669 0 37.945-30.725 68.669-68.669 68.669-37.945 0-68.666-30.725-68.666-68.669 0-37.945 30.721-68.669 68.666-68.669z" style="block-progression:tb;isolation:auto;mix-blend-mode:normal;text-decoration-color:#000;text-decoration-line:none;text-decoration-style:solid;text-indent:0;text-transform:none;white-space:normal" transform="translate(-18.613 -771.8) scale(1.4277)"/>
    <path d="M329.77 661.62c-1.3442 0-2.5137.758-3.2798 1.8127-.58485.80523-.97044 1.8012-1.1214 2.89-.88004-.0113-1.684-.0198-2.526-.0294-3.9273 0-5.4634.81389-5.9566 1.0957.49318.28182 2.0293 1.0957 5.9566 1.0957.84322-.009 1.6498-.0188 2.5297-.0294.15682 1.0638.54387 2.03 1.1178 2.8202.76606 1.0547 1.9356 1.8164 3.2798 1.8164s2.5137-.76169 3.2798-1.8164c.56776-.78168.94936-1.7367 1.1104-2.7871.87923.0113 1.6938.0196 2.5407.0294 3.9273 0 5.4634-.81389 5.9565-1.0957-.49317-.28182-2.0293-1.0957-5.9565-1.0957-.842.009-1.646.0188-2.526.0294-.14872-1.1016-.53444-2.1099-1.1251-2.9231-.76605-1.0547-1.9355-1.8127-3.2798-1.8127zm0 2.2576c.50375 0 1.0074.26981 1.4524.88245.44498.61266.76479 1.5454.76479 2.5959s-.31981 1.9796-.76479 2.5922c-.44498.61265-.94861.88615-1.4524.88615-.50376 0-1.0038-.2735-1.4487-.88615-.445-.61264-.76479-1.5417-.76481-2.5922 0-1.0505.31983-1.9832.76481-2.5959.44494-.61264.94493-.88245 1.4487-.88245zM329.77 830.45c-1.3442 0-2.5137.75799-3.2798 1.8127-.58485.80523-.97044 1.8011-1.1214 2.89-.88004-.0113-1.684-.0198-2.526-.0294-3.9273 0-5.4634.81389-5.9566 1.0957.49318.28182 2.0293 1.0957 5.9566 1.0957.84322-.009 1.6498-.0188 2.5297-.0294.15682 1.0638.54387 2.03 1.1178 2.8202.76606 1.0547 1.9356 1.8164 3.2798 1.8164s2.5137-.76168 3.2798-1.8164c.56776-.78168.94936-1.7367 1.1104-2.7871.87923.0113 1.6938.0196 2.5407.0294 3.9273 0 5.4634-.81389 5.9565-1.0957-.49317-.28182-2.0293-1.0957-5.9565-1.0957-.842.009-1.646.0188-2.526.0294-.14872-1.1016-.53444-2.1099-1.1251-2.9231-.76605-1.0547-1.9355-1.8127-3.2798-1.8127zm0 2.2576c.50375 0 1.0074.26981 1.4524.88246.44498.61266.76479 1.5454.76479 2.5959s-.31981 1.9796-.76479 2.5922-.94861.88614-1.4524.88614c-.50376 0-1.0038-.2735-1.4487-.88614-.445-.61264-.76479-1.5417-.76481-2.5922 0-1.0505.31983-1.9832.76481-2.5959.44494-.61265.94493-.88246 1.4487-.88246z" style="block-progression:tb;isolation:auto;mix-blend-mode:normal;text-decoration-color:#000;text-decoration-line:none;text-decoration-style:solid;text-indent:0;text-transform:none;white-space:normal" transform="translate(-18.613 -771.8) scale(1.4277)"/>
    <g fill-rule="evenodd">
      <path d="M-270.5 529.87c-1.1831 0-1.8898-.0771-2.2549-.75.36511-.6729 1.0718-.75 2.2549-.75s1.8898.0771 2.2549.75c-.36511.6729-1.0718.75-2.2549.75zM-270.5 533.87c-1.1831 0-1.8898-.0771-2.2549-.75.36511-.6729 1.0718-.75 2.2549-.75s1.8898.0771 2.2549.75c-.36511.6729-1.0718.75-2.2549.75z" style="block-progression:tb;isolation:auto;mix-blend-mode:normal;text-decoration-color:#000;text-decoration-line:none;text-decoration-style:solid;text-indent:0;text-transform:none;white-space:normal" transform="rotate(-14.9999 -4871.4307156 -3553.78189144) scale(2.68771)"/>
    </g>
    <g fill-rule="evenodd">
      <path d="M-270.5 529.87c-1.1831 0-1.8898-.0771-2.2549-.75.36511-.6729 1.0718-.75 2.2549-.75s1.8898.0771 2.2549.75c-.36511.6729-1.0718.75-2.2549.75zM-270.5 533.87c-1.1831 0-1.8898-.0771-2.2549-.75.36511-.6729 1.0718-.75 2.2549-.75s1.8898.0771 2.2549.75c-.36511.6729-1.0718.75-2.2549.75z" style="block-progression:tb;isolation:auto;mix-blend-mode:normal;text-decoration-color:#000;text-decoration-line:none;text-decoration-style:solid;text-indent:0;text-transform:none;white-space:normal" transform="rotate(-14.9999 -3956.2592507 -3674.30166309) scale(2.68771)"/>
    </g>
    <path d="M-270.5 528.45c-.71404 0-1.3353.40264-1.7422.96289-.31067.42773-.51549.95675-.5957 1.5352-.46747-.006-.89454-.0105-1.3418-.0156-2.0861 0-2.9021.43233-3.1641.58203.26197.1497 1.0779.58203 3.1641.58203.44791-.005.87638-.01 1.3438-.0156.0833.56509.2889 1.0783.59375 1.498.40692.56025 1.0282.96485 1.7422.96485s1.3353-.4046 1.7422-.96485c.30159-.41522.50429-.92252.58985-1.4805.46704.006.89974.0104 1.3496.0156 2.0861 0 2.9021-.43233 3.1641-.58203-.26197-.1497-1.0779-.58203-3.1641-.58203-.44726.005-.87433.01-1.3418.0156-.079-.58518-.28389-1.1207-.59766-1.5527-.40692-.56025-1.0281-.96289-1.7422-.96288zm0 1.1992c.26759 0 .53511.14332.77148.46875.23637.32544.40625.82091.40625 1.3789s-.16988 1.0515-.40625 1.377-.50389.47071-.77148.47071-.53318-.14528-.76953-.47071c-.23638-.32543-.40625-.81895-.40626-1.377 0-.558.16989-1.0535.40626-1.3789.23635-.32543.50194-.46875.76953-.46875zM-270.5 618.13c-.71404 0-1.3353.40264-1.7422.96289-.31067.42773-.51549.95675-.5957 1.5352-.46747-.006-.89454-.0105-1.3418-.0156-2.0861 0-2.9021.43233-3.1641.58203.26197.1497 1.0779.58203 3.1641.58203.44791-.005.87638-.01 1.3438-.0156.0833.56509.2889 1.0783.59375 1.498.40692.56025 1.0282.96485 1.7422.96485s1.3353-.4046 1.7422-.96485c.30159-.41522.50429-.92252.58985-1.4805.46704.006.89974.0104 1.3496.0156 2.0861 0 2.9021-.43233 3.1641-.58203-.26197-.1497-1.0779-.58203-3.1641-.58203-.44726.005-.87433.01-1.3418.0156-.079-.58518-.28389-1.1207-.59766-1.5527-.40692-.56025-1.0281-.96289-1.7422-.96288zm0 1.1992c.26759 0 .53511.14332.77148.46875.23637.32544.40625.82091.40625 1.3789s-.16988 1.0515-.40625 1.377-.50389.47071-.77148.47071-.53318-.14528-.76953-.47071c-.23638-.32543-.40625-.81895-.40626-1.377 0-.558.16989-1.0535.40626-1.3789.23635-.32543.50194-.46875.76953-.46875z" style="block-progression:tb;isolation:auto;mix-blend-mode:normal;text-decoration-color:#000;text-decoration-line:none;text-decoration-style:solid;text-indent:0;text-transform:none;white-space:normal" transform="matrix(2.32758 -1.34387 1.34387 2.32758 307.302356 -1403.514419)"/>
    <path d="M-270.5 528.45c-.71404 0-1.3353.40264-1.7422.96289-.31067.42773-.51549.95675-.5957 1.5352-.46747-.006-.89454-.0105-1.3418-.0156-2.0861 0-2.9021.43233-3.1641.58203.26197.1497 1.0779.58203 3.1641.58203.44791-.005.87638-.01 1.3438-.0156.0833.56509.2889 1.0783.59375 1.498.40692.56025 1.0282.96485 1.7422.96485s1.3353-.4046 1.7422-.96485c.30159-.41522.50429-.92252.58985-1.4805.46704.006.89974.0104 1.3496.0156 2.0861 0 2.9021-.43233 3.1641-.58203-.26197-.1497-1.0779-.58203-3.1641-.58203-.44726.005-.87433.01-1.3418.0156-.079-.58518-.28389-1.1207-.59766-1.5527-.40692-.56025-1.0281-.96289-1.7422-.96288zm0 1.1992c.26759 0 .53511.14332.77148.46875.23637.32544.40625.82091.40625 1.3789s-.16988 1.0515-.40625 1.377-.50389.47071-.77148.47071-.53318-.14528-.76953-.47071c-.23638-.32543-.40625-.81895-.40626-1.377 0-.558.16989-1.0535.40626-1.3789.23635-.32543.50194-.46875.76953-.46875zM-270.5 618.13c-.71404 0-1.3353.40264-1.7422.96289-.31067.42773-.51549.95675-.5957 1.5352-.46747-.006-.89454-.0105-1.3418-.0156-2.0861 0-2.9021.43233-3.1641.58203.26197.1497 1.0779.58203 3.1641.58203.44791-.005.87638-.01 1.3438-.0156.0833.56509.2889 1.0783.59375 1.498.40692.56025 1.0282.96485 1.7422.96485s1.3353-.4046 1.7422-.96485c.30159-.41522.50429-.92252.58985-1.4805.46704.006.89974.0104 1.3496.0156 2.0861 0 2.9021-.43233 3.1641-.58203-.26197-.1497-1.0779-.58203-3.1641-.58203-.44726.005-.87433.01-1.3418.0156-.079-.58518-.28389-1.1207-.59766-1.5527-.40692-.56025-1.0281-.96289-1.7422-.96288zm0 1.1992c.26759 0 .53511.14332.77148.46875.23637.32544.40625.82091.40625 1.3789s-.16988 1.0515-.40625 1.377-.50389.47071-.77148.47071-.53318-.14528-.76953-.47071c-.23638-.32543-.40625-.81895-.40626-1.377 0-.558.16989-1.0535.40626-1.3789.23635-.32543.50194-.46875.76953-.46875z" style="block-progression:tb;isolation:auto;mix-blend-mode:normal;text-decoration-color:#000;text-decoration-line:none;text-decoration-style:solid;text-indent:0;text-transform:none;white-space:normal" transform="matrix(1.34387 -2.32758 2.32758 1.34387 -525.817702 -1102.612367)"/>
    <path d="M-270.5 528.45c-.71404 0-1.3353.40264-1.7422.96289-.31067.42773-.51549.95675-.5957 1.5352-.46747-.006-.89454-.0105-1.3418-.0156-2.0861 0-2.9021.43233-3.1641.58203.26197.1497 1.0779.58203 3.1641.58203.44791-.005.87638-.01 1.3438-.0156.0833.56509.2889 1.0783.59375 1.498.40692.56025 1.0282.96485 1.7422.96485s1.3353-.4046 1.7422-.96485c.30159-.41522.50429-.92252.58985-1.4805.46704.006.89974.0104 1.3496.0156 2.0861 0 2.9021-.43233 3.1641-.58203-.26197-.1497-1.0779-.58203-3.1641-.58203-.44726.005-.87433.01-1.3418.0156-.079-.58518-.28389-1.1207-.59766-1.5527-.40692-.56025-1.0281-.96289-1.7422-.96288zm0 1.1992c.26759 0 .53511.14332.77148.46875.23637.32544.40625.82091.40625 1.3789s-.16988 1.0515-.40625 1.377-.50389.47071-.77148.47071-.53318-.14528-.76953-.47071c-.23638-.32543-.40625-.81895-.40626-1.377 0-.558.16989-1.0535.40626-1.3789.23635-.32543.50194-.46875.76953-.46875zM-270.5 618.13c-.71404 0-1.3353.40264-1.7422.96289-.31067.42773-.51549.95675-.5957 1.5352-.46747-.006-.89454-.0105-1.3418-.0156-2.0861 0-2.9021.43233-3.1641.58203.26197.1497 1.0779.58203 3.1641.58203.44791-.005.87638-.01 1.3438-.0156.0833.56509.2889 1.0783.59375 1.498.40692.56025 1.0282.96485 1.7422.96485s1.3353-.4046 1.7422-.96485c.30159-.41522.50429-.92252.58985-1.4805.46704.006.89974.0104 1.3496.0156 2.0861 0 2.9021-.43233 3.1641-.58203-.26197-.1497-1.0779-.58203-3.1641-.58203-.44726.005-.87433.01-1.3418.0156-.079-.58518-.28389-1.1207-.59766-1.5527-.40692-.56025-1.0281-.96289-1.7422-.96288zm0 1.1992c.26759 0 .53511.14332.77148.46875.23637.32544.40625.82091.40625 1.3789s-.16988 1.0515-.40625 1.377-.50389.47071-.77148.47071-.53318-.14528-.76953-.47071c-.23638-.32543-.40625-.81895-.40626-1.377 0-.558.16989-1.0535.40626-1.3789.23635-.32543.50194-.46875.76953-.46875z" style="block-progression:tb;isolation:auto;mix-blend-mode:normal;text-decoration-color:#000;text-decoration-line:none;text-decoration-style:solid;text-indent:0;text-transform:none;white-space:normal" transform="rotate(-90 -761.1621053 335.70728568) scale(2.68779)"/>
    <g>
      <path d="M-270.5 528.45c-.71404 0-1.3353.40264-1.7422.96289-.31067.42773-.51549.95675-.5957 1.5352-.46747-.006-.89454-.0105-1.3418-.0156-2.0861 0-2.9021.43233-3.1641.58203.26197.1497 1.0779.58203 3.1641.58203.44791-.005.87638-.01 1.3438-.0156.0833.56509.2889 1.0783.59375 1.498.40692.56025 1.0282.96485 1.7422.96485s1.3353-.4046 1.7422-.96485c.30159-.41522.50429-.92252.58985-1.4805.46704.006.89974.0104 1.3496.0156 2.0861 0 2.9021-.43233 3.1641-.58203-.26197-.1497-1.0779-.58203-3.1641-.58203-.44726.005-.87433.01-1.3418.0156-.079-.58518-.28389-1.1207-.59766-1.5527-.40692-.56025-1.0281-.96289-1.7422-.96288zm0 1.1992c.26759 0 .53511.14332.77148.46875.23637.32544.40625.82091.40625 1.3789s-.16988 1.0515-.40625 1.377-.50389.47071-.77148.47071-.53318-.14528-.76953-.47071c-.23638-.32543-.40625-.81895-.40626-1.377 0-.558.16989-1.0535.40626-1.3789.23635-.32543.50194-.46875.76953-.46875zM-270.5 618.13c-.71404 0-1.3353.40264-1.7422.96289-.31067.42773-.51549.95675-.5957 1.5352-.46747-.006-.89454-.0105-1.3418-.0156-2.0861 0-2.9021.43233-3.1641.58203.26197.1497 1.0779.58203 3.1641.58203.44791-.005.87638-.01 1.3438-.0156.0833.56509.2889 1.0783.59375 1.498.40692.56025 1.0282.96485 1.7422.96485s1.3353-.4046 1.7422-.96485c.30159-.41522.50429-.92252.58985-1.4805.46704.006.89974.0104 1.3496.0156 2.0861 0 2.9021-.43233 3.1641-.58203-.26197-.1497-1.0779-.58203-3.1641-.58203-.44726.005-.87433.01-1.3418.0156-.079-.58518-.28389-1.1207-.59766-1.5527-.40692-.56025-1.0281-.96289-1.7422-.96288zm0 1.1992c.26759 0 .53511.14332.77148.46875.23637.32544.40625.82091.40625 1.3789s-.16988 1.0515-.40625 1.377-.50389.47071-.77148.47071-.53318-.14528-.76953-.47071c-.23638-.32543-.40625-.81895-.40626-1.377 0-.558.16989-1.0535.40626-1.3789.23635-.32543.50194-.46875.76953-.46875z" style="block-progression:tb;isolation:auto;mix-blend-mode:normal;text-decoration-color:#000;text-decoration-line:none;text-decoration-style:solid;text-indent:0;text-transform:none;white-space:normal" transform="scale(-2.68768) rotate(59.9993 376.9364788 320.63970004)"/>
    </g>
    <g>
      <path d="M-270.5 528.45c-.71404 0-1.3353.40264-1.7422.96289-.31067.42773-.51549.95675-.5957 1.5352-.46747-.006-.89454-.0105-1.3418-.0156-2.0861 0-2.9021.43233-3.1641.58203.26197.1497 1.0779.58203 3.1641.58203.44791-.005.87638-.01 1.3438-.0156.0833.56509.2889 1.0783.59375 1.498.40692.56025 1.0282.96485 1.7422.96485s1.3353-.4046 1.7422-.96485c.30159-.41522.50429-.92252.58985-1.4805.46704.006.89974.0104 1.3496.0156 2.0861 0 2.9021-.43233 3.1641-.58203-.26197-.1497-1.0779-.58203-3.1641-.58203-.44726.005-.87433.01-1.3418.0156-.079-.58518-.28389-1.1207-.59766-1.5527-.40692-.56025-1.0281-.96289-1.7422-.96288zm0 1.1992c.26759 0 .53511.14332.77148.46875.23637.32544.40625.82091.40625 1.3789s-.16988 1.0515-.40625 1.377-.50389.47071-.77148.47071-.53318-.14528-.76953-.47071c-.23638-.32543-.40625-.81895-.40626-1.377 0-.558.16989-1.0535.40626-1.3789.23635-.32543.50194-.46875.76953-.46875zM-270.5 618.13c-.71404 0-1.3353.40264-1.7422.96289-.31067.42773-.51549.95675-.5957 1.5352-.46747-.006-.89454-.0105-1.3418-.0156-2.0861 0-2.9021.43233-3.1641.58203.26197.1497 1.0779.58203 3.1641.58203.44791-.005.87638-.01 1.3438-.0156.0833.56509.2889 1.0783.59375 1.498.40692.56025 1.0282.96485 1.7422.96485s1.3353-.4046 1.7422-.96485c.30159-.41522.50429-.92252.58985-1.4805.46704.006.89974.0104 1.3496.0156 2.0861 0 2.9021-.43233 3.1641-.58203-.26197-.1497-1.0779-.58203-3.1641-.58203-.44726.005-.87433.01-1.3418.0156-.079-.58518-.28389-1.1207-.59766-1.5527-.40692-.56025-1.0281-.96289-1.7422-.96288zm0 1.1992c.26759 0 .53511.14332.77148.46875.23637.32544.40625.82091.40625 1.3789s-.16988 1.0515-.40625 1.377-.50389.47071-.77148.47071-.53318-.14528-.76953-.47071c-.23638-.32543-.40625-.81895-.40626-1.377 0-.558.16989-1.0535.40626-1.3789.23635-.32543.50194-.46875.76953-.46875z" style="block-progression:tb;isolation:auto;mix-blend-mode:normal;text-decoration-color:#000;text-decoration-line:none;text-decoration-style:solid;text-indent:0;text-transform:none;white-space:normal" transform="matrix(-2.32758 -1.34387 1.34387 -2.32758 -951.943321 1279.51936)"/>
    </g>
    <g fill-rule="evenodd">
      <path d="M-270.5 529.87c-1.1831 0-1.8898-.0771-2.2549-.75.36511-.6729 1.0718-.75 2.2549-.75s1.8898.0771 2.2549.75c-.36511.6729-1.0718.75-2.2549.75zM-270.5 533.87c-1.1831 0-1.8898-.0771-2.2549-.75.36511-.6729 1.0718-.75 2.2549-.75s1.8898.0771 2.2549.75c-.36511.6729-1.0718.75-2.2549.75z" style="block-progression:tb;isolation:auto;mix-blend-mode:normal;text-decoration-color:#000;text-decoration-line:none;text-decoration-style:solid;text-indent:0;text-transform:none;white-space:normal" transform="rotate(-45 -1642.06039428 -498.71319953) scale(2.6878)"/>
      <path d="M-270.5 529.87c-1.1831 0-1.8898-.0771-2.2549-.75.36511-.6729 1.0718-.75 2.2549-.75s1.8898.0771 2.2549.75c-.36511.6729-1.0718.75-2.2549.75zM-270.5 533.87c-1.1831 0-1.8898-.0771-2.2549-.75.36511-.6729 1.0718-.75 2.2549-.75s1.8898.0771 2.2549.75c-.36511.6729-1.0718.75-2.2549.75z" style="block-progression:tb;isolation:auto;mix-blend-mode:normal;text-decoration-color:#000;text-decoration-line:none;text-decoration-style:solid;text-indent:0;text-transform:none;white-space:normal" transform="rotate(-45 -1351.1749445 -619.20030346) scale(2.6878)"/>
      <path d="M-270.5 529.87c-1.1831 0-1.8898-.0771-2.2549-.75.36511-.6729 1.0718-.75 2.2549-.75s1.8898.0771 2.2549.75c-.36511.6729-1.0718.75-2.2549.75zM-270.5 533.87c-1.1831 0-1.8898-.0771-2.2549-.75.36511-.6729 1.0718-.75 2.2549-.75s1.8898.0771 2.2549.75c-.36511.6729-1.0718.75-2.2549.75z" style="block-progression:tb;isolation:auto;mix-blend-mode:normal;text-decoration-color:#000;text-decoration-line:none;text-decoration-style:solid;text-indent:0;text-transform:none;white-space:normal" transform="rotate(-75 -949.63316682 156.34704342) scale(2.68771)"/>
      <path d="M-270.5 529.87c-1.1831 0-1.8898-.0771-2.2549-.75.36511-.6729 1.0718-.75 2.2549-.75s1.8898.0771 2.2549.75c-.36511.6729-1.0718.75-2.2549.75zM-270.5 533.87c-1.1831 0-1.8898-.0771-2.2549-.75.36511-.6729 1.0718-.75 2.2549-.75s1.8898.0771 2.2549.75c-.36511.6729-1.0718.75-2.2549.75z" style="block-progression:tb;isolation:auto;mix-blend-mode:normal;text-decoration-color:#000;text-decoration-line:none;text-decoration-style:solid;text-indent:0;text-transform:none;white-space:normal" transform="rotate(-75 -792.61439668 35.86227926) scale(2.68771)"/>
      <path d="M-270.5 529.87c-1.1831 0-1.8898-.0771-2.2549-.75.36511-.6729 1.0718-.75 2.2549-.75s1.8898.0771 2.2549.75c-.36511.6729-1.0718.75-2.2549.75zM-270.5 533.87c-1.1831 0-1.8898-.0771-2.2549-.75.36511-.6729 1.0718-.75 2.2549-.75s1.8898.0771 2.2549.75c-.36511.6729-1.0718.75-2.2549.75z" style="block-progression:tb;isolation:auto;mix-blend-mode:normal;text-decoration-color:#000;text-decoration-line:none;text-decoration-style:solid;text-indent:0;text-transform:none;white-space:normal" transform="rotate(-105 -615.64209856 472.32269478) scale(2.68771)"/>
      <path d="M-270.5 529.87c-1.1831 0-1.8898-.0771-2.2549-.75.36511-.6729 1.0718-.75 2.2549-.75s1.8898.0771 2.2549.75c-.36511.6729-1.0718.75-2.2549.75zM-270.5 533.87c-1.1831 0-1.8898-.0771-2.2549-.75.36511-.6729 1.0718-.75 2.2549-.75s1.8898.0771 2.2549.75c-.36511.6729-1.0718.75-2.2549.75z" style="block-progression:tb;isolation:auto;mix-blend-mode:normal;text-decoration-color:#000;text-decoration-line:none;text-decoration-style:solid;text-indent:0;text-transform:none;white-space:normal" transform="rotate(-105 -523.19102269 351.83797185) scale(2.68771)"/>
      <path d="M-270.5 529.87c-1.1831 0-1.8898-.0771-2.2549-.75.36511-.6729 1.0718-.75 2.2549-.75s1.8898.0771 2.2549.75c-.36511.6729-1.0718.75-2.2549.75zM-270.5 533.87c-1.1831 0-1.8898-.0771-2.2549-.75.36511-.6729 1.0718-.75 2.2549-.75s1.8898.0771 2.2549.75c-.36511.6729-1.0718.75-2.2549.75z" style="block-progression:tb;isolation:auto;mix-blend-mode:normal;text-decoration-color:#000;text-decoration-line:none;text-decoration-style:solid;text-indent:0;text-transform:none;white-space:normal" transform="rotate(-135 -395.5728073 680.49788774) scale(2.6878)"/>
      <path d="M-270.5 529.87c-1.1831 0-1.8898-.0771-2.2549-.75.36511-.6729 1.0718-.75 2.2549-.75s1.8898.0771 2.2549.75c-.36511.6729-1.0718.75-2.2549.75zM-270.5 533.87c-1.1831 0-1.8898-.0771-2.2549-.75.36511-.6729 1.0718-.75 2.2549-.75s1.8898.0771 2.2549.75c-.36511.6729-1.0718.75-2.2549.75z" style="block-progression:tb;isolation:auto;mix-blend-mode:normal;text-decoration-color:#000;text-decoration-line:none;text-decoration-style:solid;text-indent:0;text-transform:none;white-space:normal" transform="rotate(-135 -345.66475431 560.0094629) scale(2.6878)"/>
      <g>
        <path d="M-270.5 529.87c-1.1831 0-1.8898-.0771-2.2549-.75.36511-.6729 1.0718-.75 2.2549-.75s1.8898.0771 2.2549.75c-.36511.6729-1.0718.75-2.2549.75zM-270.5 533.87c-1.1831 0-1.8898-.0771-2.2549-.75.36511-.6729 1.0718-.75 2.2549-.75s1.8898.0771 2.2549.75c-.36511.6729-1.0718.75-2.2549.75z" style="block-progression:tb;isolation:auto;mix-blend-mode:normal;text-decoration-color:#000;text-decoration-line:none;text-decoration-style:solid;text-indent:0;text-transform:none;white-space:normal" transform="rotate(-165.0001 -219.45869903 847.10317544) scale(2.68771)"/>
        <g>
          <path d="M-270.5 529.87c-1.1831 0-1.8898-.0771-2.2549-.75.36511-.6729 1.0718-.75 2.2549-.75s1.8898.0771 2.2549.75c-.36511.6729-1.0718.75-2.2549.75zM-270.5 533.87c-1.1831 0-1.8898-.0771-2.2549-.75.36511-.6729 1.0718-.75 2.2549-.75s1.8898.0771 2.2549.75c-.36511.6729-1.0718.75-2.2549.75z" style="block-progression:tb;isolation:auto;mix-blend-mode:normal;text-decoration-color:#000;text-decoration-line:none;text-decoration-style:solid;text-indent:0;text-transform:none;white-space:normal" transform="rotate(-165.0001 -203.59655474 726.61847375) scale(2.68771)"/>
        </g>
      </g>
      <g>
        <path d="m-289.69 503.46-.33594.82227c-.81909 2.0128-.78392 4.5107-.84766 6.8574-15.134-1.3017-24.426 4.6173-31.059 10.439l-1.8144 1.5938 2.4141-.0176c8.692-.0595 16.88-.54343 27.102 7.6699l1.127-1.4043c-9.566-7.6864-17.779-8.0842-25.631-8.0508 6.4079-5.2056 14.834-9.8483 28.635-8.3926l.95117.0996.043-.95312c.10314-2.2712.17009-4.4912.56641-6.166 11.936 4.9826 17.233 12.353 19.385 18.625l1.7031-.58398c-2.3703-6.9097-8.2504-15.07-21.412-20.215l-.82617-.32422z" style="block-progression:tb;isolation:auto;mix-blend-mode:normal;text-decoration-color:#000;text-decoration-line:none;text-decoration-style:solid;text-indent:0;text-transform:none;white-space:normal" transform="rotate(-40 -1851.24841229 -694.6318201) scale(2.6877)"/>
        <path d="m-287.14 508.06-.12891 1.082c-.27508 2.3382.23686 4.3109.625 6.3613-8.0604-1.2818-16.201-.9182-24.316 2.9121l-2.248 1.0606 2.4453.44921c4.6105.84752 11.649 1.6308 19.109 9.1367l1.1348-1.1289c-6.3724-6.4117-12.571-8.1516-17.115-9.041 7.2606-2.7578 14.51-2.9857 21.834-1.6797l1.0977.19532-.16602-1.1016c-.3152-2.0912-.69855-3.8257-.74804-5.6211 6.3174 3.3421 10.719 9.3691 13.096 13.594l1.3945-.78516c-2.6173-4.6517-7.4943-11.602-15.02-14.986l-.99414-.44727z" style="block-progression:tb;isolation:auto;mix-blend-mode:normal;text-decoration-color:#000;text-decoration-line:none;text-decoration-style:solid;text-indent:0;text-transform:none;white-space:normal" transform="rotate(-40 -1851.24841229 -694.6318201) scale(2.6877)"/>
        <path transform="rotate(-40 -1660.5136442 -764.0569442) scale(2.6877)" d="M-282.83 462.48c-.51491.0564-.94228.41785-1.1816.81836-.38298.64081-.0155 1.6976.79817 2.4368.14331-.56923.25515-1.6327.39648-1.8691.18931-.64422.98746-.52216 1.4199-1.0391-.34961-.24293-1.124-.38083-1.4329-.34701zm-11.621 2.921c-.22933.004-.44793.029-.65625.0762-.83331.18893-1.4236.69641-1.8457 1.166-.42212.4696-.73185.9168-.93554 1.0996-.10185.0914-.15353.10875-.16602.11133-.0003.00006-.004-.00008-.004 0-.007-.0498-.0119-.0734-.0195-.16211-.0131-.15194.0108-.35704-.0918-.58398-.27945-.61807-.75124-.7117-1.1676-.62115-.46708.1016-.98534.47209-1.5194.67484-1.2092.4591-.78554-.51383-1.1347-.94345-.37768.9968-.17699 1.4197.1947 1.729.99684.35541 2.2848-.99429 2.6245-.41345.0784.13401-.20996.67465-.17671.92608.0435.32855.14195.52783.48203.69517.35149.17296.75362.24249 1.1152.16797.36161-.0745.64462-.2649.86523-.46289.44121-.396.70127-1.1066 1.0257-1.4675.32441-.36089.63662-.61046 1.0625-.70703.21517-.0488 1.1182-.0769 1.0524.46754-.0521.43089-.575.60545-.98504.86821-.45299.29028-.78858.54722-1.0117 1.1289-.26556.69227-.16433 1.2348.68621 1.7275-.2702-.68302-.31258-1.3926.28485-1.8105 1.3198-1.1343 4.2085-1.5048 2.3849-3.0779-.59557-.28818-.84097-.44626-1.3436-.53153-.2513-.0427-.49137-.0604-.7207-.0566zm7.8715.9201c-.47211.008-1.0139.30073-1.1562.70117-.60805 1.7104 2.8262 4.9394 2.8262 4.9394s.35613-4.6793-1.2383-5.5469c-.12445-.0677-.27428-.0963-.43164-.0937zm5.2637.61523c-.25067-.0213-.53396.0554-.73633.24219-1.2966 1.1967-.86133 4.873-.86133 4.873s2.6193-3.4166 2.1406-4.7637c-.0747-.21029-.29231-.33028-.54297-.35157zm3.7129 2.3965c-.0681-.002-.13516.006-.20117.0254-1.0209.30226-1.9824 2.2988-1.9824 2.2988s2.4195-.46778 2.9551-1.459c.18566-.3436-.29493-.84927-.77148-.86524zm-12.248.0508c-.39781.0455-.74883.32642-.72265.66016.11178 1.4252 3.8125 3.2031 3.8125 3.2031s-1.0178-3.2597-2.6895-3.8242c-.13046-.044-.26779-.0542-.40039-.0391zm-1.6348 3.3164c-.55011.0263-.97227.81044-.64258 1.1113.8322.75947 3.2715.40625 3.2715.40625s-1.5654-1.5685-2.6289-1.5176z" style="block-progression:tb;isolation:auto;mix-blend-mode:normal;text-decoration-color:#000;text-decoration-line:none;text-decoration-style:solid;text-indent:0;text-transform:none;white-space:normal"/>
      </g>
      <g>
        <path d="m-289.69 503.46-.33594.82227c-.81909 2.0128-.78392 4.5107-.84766 6.8574-15.134-1.3017-24.426 4.6173-31.059 10.439l-1.8144 1.5938 2.4141-.0176c8.692-.0595 16.88-.54343 27.102 7.6699l1.127-1.4043c-9.566-7.6864-17.779-8.0842-25.631-8.0508 6.4079-5.2056 14.834-9.8483 28.635-8.3926l.95117.0996.043-.95312c.10314-2.2712.17009-4.4912.56641-6.166 11.936 4.9826 17.233 12.353 19.385 18.625l1.7031-.58398c-2.3703-6.9097-8.2504-15.07-21.412-20.215l-.82617-.32422z" style="block-progression:tb;isolation:auto;mix-blend-mode:normal;text-decoration-color:#000;text-decoration-line:none;text-decoration-style:solid;text-indent:0;text-transform:none;white-space:normal" transform="rotate(-80 -881.49147364 222.38368594) scale(2.6878)"/>
        <path d="m-287.14 508.06-.12891 1.082c-.27508 2.3382.23686 4.3109.625 6.3613-8.0604-1.2818-16.201-.9182-24.316 2.9121l-2.248 1.0606 2.4453.44921c4.6105.84752 11.649 1.6308 19.109 9.1367l1.1348-1.1289c-6.3724-6.4117-12.571-8.1516-17.115-9.041 7.2606-2.7578 14.51-2.9857 21.834-1.6797l1.0977.19532-.16602-1.1016c-.3152-2.0912-.69855-3.8257-.74804-5.6211 6.3174 3.3421 10.719 9.3691 13.096 13.594l1.3945-.78516c-2.6173-4.6517-7.4943-11.602-15.02-14.986l-.99414-.44727z" style="block-progression:tb;isolation:auto;mix-blend-mode:normal;text-decoration-color:#000;text-decoration-line:none;text-decoration-style:solid;text-indent:0;text-transform:none;white-space:normal" transform="rotate(-80 -881.49147364 222.38368594) scale(2.6878)"/>
        <path transform="rotate(-80 -798.75338816 152.95822373) scale(2.6878)" d="M-282.83 462.48c-.51491.0564-.94228.41785-1.1816.81836-.38298.64081-.0155 1.6976.79817 2.4368.14331-.56923.25515-1.6327.39648-1.8691.18931-.64422.98746-.52216 1.4199-1.0391-.34961-.24293-1.124-.38083-1.4329-.34701zm-11.621 2.921c-.22933.004-.44793.029-.65625.0762-.83331.18893-1.4236.69641-1.8457 1.166-.42212.4696-.73185.9168-.93554 1.0996-.10185.0914-.15353.10875-.16602.11133-.0003.00006-.004-.00008-.004 0-.007-.0498-.0119-.0734-.0195-.16211-.0131-.15194.0108-.35704-.0918-.58398-.27945-.61807-.75124-.7117-1.1676-.62115-.46708.1016-.98534.47209-1.5194.67484-1.2092.4591-.78554-.51383-1.1347-.94345-.37768.9968-.17699 1.4197.1947 1.729.99684.35541 2.2848-.99429 2.6245-.41345.0784.13401-.20996.67465-.17671.92608.0435.32855.14195.52783.48203.69517.35149.17296.75362.24249 1.1152.16797.36161-.0745.64462-.2649.86523-.46289.44121-.396.70127-1.1066 1.0257-1.4675.32441-.36089.63662-.61046 1.0625-.70703.21517-.0488 1.1182-.0769 1.0524.46754-.0521.43089-.575.60545-.98504.86821-.45299.29028-.78858.54722-1.0117 1.1289-.26556.69227-.16433 1.2348.68621 1.7275-.2702-.68302-.31258-1.3926.28485-1.8105 1.3198-1.1343 4.2085-1.5048 2.3849-3.0779-.59557-.28818-.84097-.44626-1.3436-.53153-.2513-.0427-.49137-.0604-.7207-.0566zm7.8715.9201c-.47211.008-1.0139.30073-1.1562.70117-.60805 1.7104 2.8262 4.9394 2.8262 4.9394s.35613-4.6793-1.2383-5.5469c-.12445-.0677-.27428-.0963-.43164-.0937zm5.2637.61523c-.25067-.0213-.53396.0554-.73633.24219-1.2966 1.1967-.86133 4.873-.86133 4.873s2.6193-3.4166 2.1406-4.7637c-.0747-.21029-.29231-.33028-.54297-.35157zm3.7129 2.3965c-.0681-.002-.13516.006-.20117.0254-1.0209.30226-1.9824 2.2988-1.9824 2.2988s2.4195-.46778 2.9551-1.459c.18566-.3436-.29493-.84927-.77148-.86524zm-12.248.0508c-.39781.0455-.74883.32642-.72265.66016.11178 1.4252 3.8125 3.2031 3.8125 3.2031s-1.0178-3.2597-2.6895-3.8242c-.13046-.044-.26779-.0542-.40039-.0391zm-1.6348 3.3164c-.55011.0263-.97227.81044-.64258 1.1113.8322.75947 3.2715.40625 3.2715.40625s-1.5654-1.5685-2.6289-1.5176z" style="block-progression:tb;isolation:auto;mix-blend-mode:normal;text-decoration-color:#000;text-decoration-line:none;text-decoration-style:solid;text-indent:0;text-transform:none;white-space:normal"/>
      </g>
      <g>
        <path d="M-293.1 529.43c-9.566-7.6864-17.779-8.0842-25.631-8.0508 6.4079-5.2056 14.834-9.8483 28.635-8.3926l.95117.0996.043-.95312c.10314-2.2712.17009-4.4912.56641-6.166 11.936 4.9826 17.233 12.353 19.385 18.625l1.7031-.58398c-2.3703-6.9097-8.2504-15.07-21.412-20.215l-.82617-.32422-.00003.00004-.33594.82227c-.81909 2.0128-.78392 4.5107-.84766 6.8574-15.134-1.3017-24.426 4.6173-31.059 10.439l-1.8144 1.5938 2.4141-.0176c8.3685-.0573 16.27-.508 25.969 6.7886z" style="block-progression:tb;isolation:auto;mix-blend-mode:normal;text-decoration-color:#000;text-decoration-line:none;text-decoration-style:solid;text-indent:0;text-transform:none;white-space:normal" transform="scale(-2.68768) rotate(59.9993 376.46591385 321.20580144)"/>
        <path d="m-287.14 508.06-.12891 1.082c-.27508 2.3382.23686 4.3109.625 6.3613-8.0604-1.2818-16.201-.9182-24.316 2.9121l-2.248 1.0606 2.4453.44921c4.6105.84752 11.649 1.6308 19.109 9.1367l1.1348-1.1289c-6.3724-6.4117-12.571-8.1516-17.115-9.041 7.2606-2.7578 14.51-2.9857 21.834-1.6797l1.0977.19532-.16602-1.1016c-.3152-2.0912-.69855-3.8257-.74804-5.6211 6.3174 3.3421 10.719 9.3691 13.096 13.594l1.3945-.78516c-2.6173-4.6517-7.4943-11.602-15.02-14.986l-.99414-.44727z" style="block-progression:tb;isolation:auto;mix-blend-mode:normal;text-decoration-color:#000;text-decoration-line:none;text-decoration-style:solid;text-indent:0;text-transform:none;white-space:normal" transform="scale(-2.68768) rotate(59.9993 376.46591385 321.20580144)"/>
        <path transform="scale(-2.68768) rotate(59.9993 331.726427 295.37580145)" d="M-282.83 462.48c-.51491.0564-.94228.41785-1.1816.81836-.38298.64081-.0155 1.6976.79817 2.4368.14331-.56923.25515-1.6327.39648-1.8691.18931-.64422.98746-.52216 1.4199-1.0391-.34961-.24293-1.124-.38083-1.4329-.34701zm-11.621 2.921c-.22933.004-.44793.029-.65625.0762-.83331.18893-1.4236.69641-1.8457 1.166-.42212.4696-.73185.9168-.93554 1.0996-.10185.0914-.15353.10875-.16602.11133-.0003.00006-.004-.00008-.004 0-.007-.0498-.0119-.0734-.0195-.16211-.0131-.15194.0108-.35704-.0918-.58398-.27945-.61807-.75124-.7117-1.1676-.62115-.46708.1016-.98534.47209-1.5194.67484-1.2092.4591-.78554-.51383-1.1347-.94345-.37768.9968-.17699 1.4197.1947 1.729.99684.35541 2.2848-.99429 2.6245-.41345.0784.13401-.20996.67465-.17671.92608.0435.32855.14195.52783.48203.69517.35149.17296.75362.24249 1.1152.16797.36161-.0745.64462-.2649.86523-.46289.44121-.396.70127-1.1066 1.0257-1.4675.32441-.36089.63662-.61046 1.0625-.70703.21517-.0488 1.1182-.0769 1.0524.46754-.0521.43089-.575.60545-.98504.86821-.45299.29028-.78858.54722-1.0117 1.1289-.26556.69227-.16433 1.2348.68621 1.7275-.2702-.68302-.31258-1.3926.28485-1.8105 1.3198-1.1343 4.2085-1.5048 2.3849-3.0779-.59557-.28818-.84097-.44626-1.3436-.53153-.2513-.0427-.49137-.0604-.7207-.0566zm7.8715.9201c-.47211.008-1.0139.30073-1.1562.70117-.60805 1.7104 2.8262 4.9394 2.8262 4.9394s.35613-4.6793-1.2383-5.5469c-.12445-.0677-.27428-.0963-.43164-.0937zm5.2637.61523c-.25067-.0213-.53396.0554-.73633.24219-1.2966 1.1967-.86133 4.873-.86133 4.873s2.6193-3.4166 2.1406-4.7637c-.0747-.21029-.29231-.33028-.54297-.35157zm3.7129 2.3965c-.0681-.002-.13516.006-.20117.0254-1.0209.30226-1.9824 2.2988-1.9824 2.2988s2.4195-.46778 2.9551-1.459c.18566-.3436-.29493-.84927-.77148-.86524zm-12.248.0508c-.39781.0455-.74883.32642-.72265.66016.11178 1.4252 3.8125 3.2031 3.8125 3.2031s-1.0178-3.2597-2.6895-3.8242c-.13046-.044-.26779-.0542-.40039-.0391zm-1.6348 3.3164c-.55011.0263-.97227.81044-.64258 1.1113.8322.75947 3.2715.40625 3.2715.40625s-1.5654-1.5685-2.6289-1.5176z" style="block-progression:tb;isolation:auto;mix-blend-mode:normal;text-decoration-color:#000;text-decoration-line:none;text-decoration-style:solid;text-indent:0;text-transform:none;white-space:normal"/>
      </g>
      <g>
        <path d="M-293.77 528.9c-9.2809-7.1773-17.294-7.5559-24.962-7.5233 6.4079-5.2056 14.834-9.8483 28.635-8.3926l.95117.0996.043-.95312c.10314-2.2712.17009-4.4912.56641-6.166 11.342 4.7345 16.689 11.624 19.039 17.68l2.0484.36092c-2.3703-6.9097-8.2504-15.07-21.412-20.215l-.82617-.32422-.00003.00004-.33594.82227c-.81909 2.0128-.78392 4.5107-.84766 6.8574-15.134-1.3017-24.426 4.6173-31.059 10.439l-1.8144 1.5938 2.4141-.0176c8.3503-.0572 16.235-.50604 25.906 6.7412z" style="block-progression:tb;isolation:auto;mix-blend-mode:normal;text-decoration-color:#000;text-decoration-line:none;text-decoration-style:solid;text-indent:0;text-transform:none;white-space:normal" transform="rotate(-160 -247.89538476 820.4665108) scale(2.68769)"/>
        <path d="M-290.52 527.94c-6.3724-6.4117-12.571-8.1516-17.115-9.041 7.2606-2.7578 14.51-2.9857 21.834-1.6797l1.0977.19532-.16602-1.1016c-.3152-2.0912-.69855-3.8257-.74804-5.6211 6.3174 3.3421 10.719 9.3691 13.096 13.594l1.3945-.78516c-2.6173-4.6517-7.4943-11.602-15.02-14.986l-.99414-.44727-.12891 1.082c-.27508 2.3382.23686 4.3109.625 6.3613-8.0604-1.2818-16.201-.9182-24.316 2.9121l-2.248 1.0606 2.4453.44921c4.4248.81338 11.086 1.5676 18.21 8.2618z" style="block-progression:tb;isolation:auto;mix-blend-mode:normal;text-decoration-color:#000;text-decoration-line:none;text-decoration-style:solid;text-indent:0;text-transform:none;white-space:normal" transform="rotate(-160 -247.89538476 820.4665108) scale(2.68769)"/>
        <path transform="rotate(-160 -235.65411212 751.04345126) scale(2.68769)" d="M-282.83 462.48c-.51491.0564-.94228.41785-1.1816.81836-.38298.64081-.0155 1.6976.79817 2.4368.14331-.56923.25515-1.6327.39648-1.8691.18931-.64422.98746-.52216 1.4199-1.0391-.34961-.24293-1.124-.38083-1.4329-.34701zm-11.621 2.921c-.22933.004-.44793.029-.65625.0762-.83331.18893-1.4236.69641-1.8457 1.166-.42212.4696-.73185.9168-.93554 1.0996-.10185.0914-.15353.10875-.16602.11133-.0003.00006-.004-.00008-.004 0-.007-.0498-.0119-.0734-.0195-.16211-.0131-.15194.0108-.35704-.0918-.58398-.27945-.61807-.75124-.7117-1.1676-.62115-.46708.1016-.98534.47209-1.5194.67484-1.2092.4591-.78554-.51383-1.1347-.94345-.37768.9968-.17699 1.4197.1947 1.729.99684.35541 2.2848-.99429 2.6245-.41345.0784.13401-.20996.67465-.17671.92608.0435.32855.14195.52783.48203.69517.35149.17296.75362.24249 1.1152.16797.36161-.0745.64462-.2649.86523-.46289.44121-.396.70127-1.1066 1.0257-1.4675.32441-.36089.63662-.61046 1.0625-.70703.21517-.0488 1.1182-.0769 1.0524.46754-.0521.43089-.575.60545-.98504.86821-.45299.29028-.78858.54722-1.0117 1.1289-.26556.69227-.16433 1.2348.68621 1.7275-.2702-.68302-.31258-1.3926.28485-1.8105 1.3198-1.1343 4.2085-1.5048 2.3849-3.0779-.59557-.28818-.84097-.44626-1.3436-.53153-.2513-.0427-.49137-.0604-.7207-.0566zm7.8715.9201c-.47211.008-1.0139.30073-1.1562.70117-.60805 1.7104 2.8262 4.9394 2.8262 4.9394s.35613-4.6793-1.2383-5.5469c-.12445-.0677-.27428-.0963-.43164-.0937zm5.2637.61523c-.25067-.0213-.53396.0554-.73633.24219-1.2966 1.1967-.86133 4.873-.86133 4.873s2.6193-3.4166 2.1406-4.7637c-.0747-.21029-.29231-.33028-.54297-.35157zm3.7129 2.3965c-.0681-.002-.13516.006-.20117.0254-1.0209.30226-1.9824 2.2988-1.9824 2.2988s2.4195-.46778 2.9551-1.459c.18566-.3436-.29493-.84927-.77148-.86524zm-12.248.0508c-.39781.0455-.74883.32642-.72265.66016.11178 1.4252 3.8125 3.2031 3.8125 3.2031s-1.0178-3.2597-2.6895-3.8242c-.13046-.044-.26779-.0542-.40039-.0391zm-1.6348 3.3164c-.55011.0263-.97227.81044-.64258 1.1113.8322.75947 3.2715.40625 3.2715.40625s-1.5654-1.5685-2.6289-1.5176z" style="block-progression:tb;isolation:auto;mix-blend-mode:normal;text-decoration-color:#000;text-decoration-line:none;text-decoration-style:solid;text-indent:0;text-transform:none;white-space:normal"/>
      </g>
      <g>
        <path d="M-267.45 524c-2.3703-6.9097-8.2504-15.07-21.412-20.215l-.82617-.32422-.00003.00004-.33594.82227c-.81909 2.0128-.78392 4.5107-.84766 6.8574-15.134-1.3017-24.426 4.6173-31.059 10.439l-1.8144 1.5938 2.4141-.0176c8.3696-.0573 16.272-.50813 25.973 6.7917l1.4073-1.1916c-9.2048-7.0442-17.164-7.4177-24.782-7.3853 6.4079-5.2056 14.834-9.8483 28.635-8.3926l.95117.0996.043-.95312c.10314-2.2712.17009-4.4912.56641-6.166 11.288 4.7119 16.638 11.559 19.006 17.594z" style="block-progression:tb;isolation:auto;mix-blend-mode:normal;text-decoration-color:#000;text-decoration-line:none;text-decoration-style:solid;text-indent:0;text-transform:none;white-space:normal" transform="rotate(160 -28.07343012 1028.3904259) scale(2.68769)"/>
        <path d="M-271.13 523.5c-2.6173-4.6517-7.4943-11.602-15.02-14.986l-.99414-.44727-.12891 1.082c-.27508 2.3382.23686 4.3109.625 6.3613-8.0604-1.2818-16.201-.9182-24.316 2.9121l-2.248 1.0606 2.4453.44921c4.4375.81572 11.125 1.5719 18.272 8.3198l1.9726-.31203c-6.3724-6.4117-12.571-8.1516-17.115-9.041 7.2606-2.7578 14.51-2.9857 21.834-1.6797l1.0977.19532-.16602-1.1016c-.3152-2.0912-.69855-3.8257-.74804-5.6211 5.8645 3.1024 10.078 8.5187 12.553 12.659z" style="block-progression:tb;isolation:auto;mix-blend-mode:normal;text-decoration-color:#000;text-decoration-line:none;text-decoration-style:solid;text-indent:0;text-transform:none;white-space:normal" transform="rotate(160 -28.07343012 1028.3904259) scale(2.68769)"/>
        <path transform="rotate(160 -40.3147028 958.96736636) scale(2.68769)" d="M-282.83 462.48c-.51491.0564-.94228.41785-1.1816.81836-.38298.64081-.0155 1.6976.79817 2.4368.14331-.56923.25515-1.6327.39648-1.8691.18931-.64422.98746-.52216 1.4199-1.0391-.34961-.24293-1.124-.38083-1.4329-.34701zm-11.621 2.921c-.22933.004-.44793.029-.65625.0762-.83331.18893-1.4236.69641-1.8457 1.166-.42212.4696-.73185.9168-.93554 1.0996-.10185.0914-.15353.10875-.16602.11133-.0003.00006-.004-.00008-.004 0-.007-.0498-.0119-.0734-.0195-.16211-.0131-.15194.0108-.35704-.0918-.58398-.27945-.61807-.75124-.7117-1.1676-.62115-.46708.1016-.98534.47209-1.5194.67484-1.2092.4591-.78554-.51383-1.1347-.94345-.37768.9968-.17699 1.4197.1947 1.729.99684.35541 2.2848-.99429 2.6245-.41345.0784.13401-.20996.67465-.17671.92608.0435.32855.14195.52783.48203.69517.35149.17296.75362.24249 1.1152.16797.36161-.0745.64462-.2649.86523-.46289.44121-.396.70127-1.1066 1.0257-1.4675.32441-.36089.63662-.61046 1.0625-.70703.21517-.0488 1.1182-.0769 1.0524.46754-.0521.43089-.575.60545-.98504.86821-.45299.29028-.78858.54722-1.0117 1.1289-.26556.69227-.16433 1.2348.68621 1.7275-.2702-.68302-.31258-1.3926.28485-1.8105 1.3198-1.1343 4.2085-1.5048 2.3849-3.0779-.59557-.28818-.84097-.44626-1.3436-.53153-.2513-.0427-.49137-.0604-.7207-.0566zm7.8715.9201c-.47211.008-1.0139.30073-1.1562.70117-.60805 1.7104 2.8262 4.9394 2.8262 4.9394s.35613-4.6793-1.2383-5.5469c-.12445-.0677-.27428-.0963-.43164-.0937zm5.2637.61523c-.25067-.0213-.53396.0554-.73633.24219-1.2966 1.1967-.86133 4.873-.86133 4.873s2.6193-3.4166 2.1406-4.7637c-.0747-.21029-.29231-.33028-.54297-.35157zm3.7129 2.3965c-.0681-.002-.13516.006-.20117.0254-1.0209.30226-1.9824 2.2988-1.9824 2.2988s2.4195-.46778 2.9551-1.459c.18566-.3436-.29493-.84927-.77148-.86524zm-12.248.0508c-.39781.0455-.74883.32642-.72265.66016.11178 1.4252 3.8125 3.2031 3.8125 3.2031s-1.0178-3.2597-2.6895-3.8242c-.13046-.044-.26779-.0542-.40039-.0391zm-1.6348 3.3164c-.55011.0263-.97227.81044-.64258 1.1113.8322.75947 3.2715.40625 3.2715.40625s-1.5654-1.5685-2.6289-1.5176z" style="block-progression:tb;isolation:auto;mix-blend-mode:normal;text-decoration-color:#000;text-decoration-line:none;text-decoration-style:solid;text-indent:0;text-transform:none;white-space:normal"/>
      </g>
      <g>
        <path d="M-267.45 524c-2.3703-6.9097-8.2504-15.07-21.412-20.215l-.82617-.32422-.00003.00004-.33594.82227c-.81909 2.0128-.78392 4.5107-.84766 6.8574-15.134-1.3017-24.426 4.6173-31.059 10.439l-1.8144 1.5938 2.4141-.0176c8.4817-.0581 16.483-.52027 26.363 7.089l1.3205-1.2544c-9.3338-7.2705-17.384-7.6526-25.086-7.6198 6.4079-5.2056 14.834-9.8483 28.635-8.3926l.95117.0996.043-.95312c.10314-2.2712.17009-4.4912.56641-6.166 11.206 4.6778 16.56 11.46 18.954 17.462z" style="block-progression:tb;isolation:auto;mix-blend-mode:normal;text-decoration-color:#000;text-decoration-line:none;text-decoration-style:solid;text-indent:0;text-transform:none;white-space:normal" transform="matrix(-1.34387 2.32758 -2.32758 -1.34387 1428.64649 1704.11734)"/>
        <path d="M-290.52 527.94c-6.3724-6.4117-12.571-8.1516-17.115-9.041 7.2606-2.7578 14.51-2.9857 21.834-1.6797l1.0977.19532-.16602-1.1016c-.3152-2.0912-.69855-3.8257-.74804-5.6211 6.3174 3.3421 10.719 9.3691 13.096 13.594l1.3945-.78516c-2.6173-4.6517-7.4943-11.602-15.02-14.986l-.99414-.44727-.12891 1.082c-.27508 2.3382.23686 4.3109.625 6.3613-8.0604-1.2818-16.201-.9182-24.316 2.9121l-2.248 1.0606 2.4453.44921c4.4952.82632 11.299 1.5916 18.55 8.586z" style="block-progression:tb;isolation:auto;mix-blend-mode:normal;text-decoration-color:#000;text-decoration-line:none;text-decoration-style:solid;text-indent:0;text-transform:none;white-space:normal" transform="matrix(-1.34387 2.32758 -2.32758 -1.34387 1428.64649 1704.11734)"/>
        <path transform="scale(-2.68768) rotate(-59.9993 -770.14772336 117.4917928)" d="M-282.83 462.48c-.51491.0564-.94228.41785-1.1816.81836-.38298.64081-.0155 1.6976.79817 2.4368.14331-.56923.25515-1.6327.39648-1.8691.18931-.64422.98746-.52216 1.4199-1.0391-.34961-.24293-1.124-.38083-1.4329-.34701zm-11.621 2.921c-.22933.004-.44793.029-.65625.0762-.83331.18893-1.4236.69641-1.8457 1.166-.42212.4696-.73185.9168-.93554 1.0996-.10185.0914-.15353.10875-.16602.11133-.0003.00006-.004-.00008-.004 0-.007-.0498-.0119-.0734-.0195-.16211-.0131-.15194.0108-.35704-.0918-.58398-.27945-.61807-.75124-.7117-1.1676-.62115-.46708.1016-.98534.47209-1.5194.67484-1.2092.4591-.78554-.51383-1.1347-.94345-.37768.9968-.17699 1.4197.1947 1.729.99684.35541 2.2848-.99429 2.6245-.41345.0784.13401-.20996.67465-.17671.92608.0435.32855.14195.52783.48203.69517.35149.17296.75362.24249 1.1152.16797.36161-.0745.64462-.2649.86523-.46289.44121-.396.70127-1.1066 1.0257-1.4675.32441-.36089.63662-.61046 1.0625-.70703.21517-.0488 1.1182-.0769 1.0524.46754-.0521.43089-.575.60545-.98504.86821-.45299.29028-.78858.54722-1.0117 1.1289-.26556.69227-.16433 1.2348.68621 1.7275-.2702-.68302-.31258-1.3926.28485-1.8105 1.3198-1.1343 4.2085-1.5048 2.3849-3.0779-.59557-.28818-.84097-.44626-1.3436-.53153-.2513-.0427-.49137-.0604-.7207-.0566zm7.8715.9201c-.47211.008-1.0139.30073-1.1562.70117-.60805 1.7104 2.8262 4.9394 2.8262 4.9394s.35613-4.6793-1.2383-5.5469c-.12445-.0677-.27428-.0963-.43164-.0937zm5.2637.61523c-.25067-.0213-.53396.0554-.73633.24219-1.2966 1.1967-.86133 4.873-.86133 4.873s2.6193-3.4166 2.1406-4.7637c-.0747-.21029-.29231-.33028-.54297-.35157zm3.7129 2.3965c-.0681-.002-.13516.006-.20117.0254-1.0209.30226-1.9824 2.2988-1.9824 2.2988s2.4195-.46778 2.9551-1.459c.18566-.3436-.29493-.84927-.77148-.86524zm-12.248.0508c-.39781.0455-.74883.32642-.72265.66016.11178 1.4252 3.8125 3.2031 3.8125 3.2031s-1.0178-3.2597-2.6895-3.8242c-.13046-.044-.26779-.0542-.40039-.0391zm-1.6348 3.3164c-.55011.0263-.97227.81044-.64258 1.1113.8322.75947 3.2715.40625 3.2715.40625s-1.5654-1.5685-2.6289-1.5176z" style="block-progression:tb;isolation:auto;mix-blend-mode:normal;text-decoration-color:#000;text-decoration-line:none;text-decoration-style:solid;text-indent:0;text-transform:none;white-space:normal"/>
      </g>
      <g>
        <path d="m-289.69 503.46-.33594.82227c-.81909 2.0128-.78392 4.5107-.84766 6.8574-15.134-1.3017-24.426 4.6173-31.059 10.439l-1.8144 1.5938 2.4141-.0176c8.692-.0595 16.88-.54343 27.102 7.6699l1.127-1.4043c-9.566-7.6864-17.779-8.0842-25.631-8.0508 6.4079-5.2056 14.834-9.8483 28.635-8.3926l.95117.0996.043-.95312c.10314-2.2712.17009-4.4912.56641-6.166 11.936 4.9826 17.233 12.353 19.385 18.625l1.7031-.58398c-2.3703-6.9097-8.2504-15.07-21.412-20.215l-.82617-.32422z" style="block-progression:tb;isolation:auto;mix-blend-mode:normal;text-decoration-color:#000;text-decoration-line:none;text-decoration-style:solid;text-indent:0;text-transform:none;white-space:normal" transform="rotate(80 606.07164926 1626.40384015) scale(2.6878)"/>
        <path d="m-287.14 508.06-.12891 1.082c-.27508 2.3382.23686 4.3109.625 6.3613-8.0604-1.2818-16.201-.9182-24.316 2.9121l-2.248 1.0606 2.4453.44921c4.6105.84752 11.649 1.6308 19.109 9.1367l1.1348-1.1289c-6.3724-6.4117-12.571-8.1516-17.115-9.041 7.2606-2.7578 14.51-2.9857 21.834-1.6797l1.0977.19532-.16602-1.1016c-.3152-2.0912-.69855-3.8257-.74804-5.6211 6.3174 3.3421 10.719 9.3691 13.096 13.594l1.3945-.78516c-2.6173-4.6517-7.4943-11.602-15.02-14.986l-.99414-.44727z" style="block-progression:tb;isolation:auto;mix-blend-mode:normal;text-decoration-color:#000;text-decoration-line:none;text-decoration-style:solid;text-indent:0;text-transform:none;white-space:normal" transform="rotate(80 606.07164926 1626.40384015) scale(2.6878)"/>
        <path transform="rotate(80 523.33356375 1556.97837797) scale(2.6878)" d="M-282.83 462.48c-.51491.0564-.94228.41785-1.1816.81836-.38298.64081-.0155 1.6976.79817 2.4368.14331-.56923.25515-1.6327.39648-1.8691.18931-.64422.98746-.52216 1.4199-1.0391-.34961-.24293-1.124-.38083-1.4329-.34701zm-11.621 2.921c-.22933.004-.44793.029-.65625.0762-.83331.18893-1.4236.69641-1.8457 1.166-.42212.4696-.73185.9168-.93554 1.0996-.10185.0914-.15353.10875-.16602.11133-.0003.00006-.004-.00008-.004 0-.007-.0498-.0119-.0734-.0195-.16211-.0131-.15194.0108-.35704-.0918-.58398-.27945-.61807-.75124-.7117-1.1676-.62115-.46708.1016-.98534.47209-1.5194.67484-1.2092.4591-.78554-.51383-1.1347-.94345-.37768.9968-.17699 1.4197.1947 1.729.99684.35541 2.2848-.99429 2.6245-.41345.0784.13401-.20996.67465-.17671.92608.0435.32855.14195.52783.48203.69517.35149.17296.75362.24249 1.1152.16797.36161-.0745.64462-.2649.86523-.46289.44121-.396.70127-1.1066 1.0257-1.4675.32441-.36089.63662-.61046 1.0625-.70703.21517-.0488 1.1182-.0769 1.0524.46754-.0521.43089-.575.60545-.98504.86821-.45299.29028-.78858.54722-1.0117 1.1289-.26556.69227-.16433 1.2348.68621 1.7275-.2702-.68302-.31258-1.3926.28485-1.8105 1.3198-1.1343 4.2085-1.5048 2.3849-3.0779-.59557-.28818-.84097-.44626-1.3436-.53153-.2513-.0427-.49137-.0604-.7207-.0566zm7.8715.9201c-.47211.008-1.0139.30073-1.1562.70117-.60805 1.7104 2.8262 4.9394 2.8262 4.9394s.35613-4.6793-1.2383-5.5469c-.12445-.0677-.27428-.0963-.43164-.0937zm5.2637.61523c-.25067-.0213-.53396.0554-.73633.24219-1.2966 1.1967-.86133 4.873-.86133 4.873s2.6193-3.4166 2.1406-4.7637c-.0747-.21029-.29231-.33028-.54297-.35157zm3.7129 2.3965c-.0681-.002-.13516.006-.20117.0254-1.0209.30226-1.9824 2.2988-1.9824 2.2988s2.4195-.46778 2.9551-1.459c.18566-.3436-.29493-.84927-.77148-.86524zm-12.248.0508c-.39781.0455-.74883.32642-.72265.66016.11178 1.4252 3.8125 3.2031 3.8125 3.2031s-1.0178-3.2597-2.6895-3.8242c-.13046-.044-.26779-.0542-.40039-.0391zm-1.6348 3.3164c-.55011.0263-.97227.81044-.64258 1.1113.8322.75947 3.2715.40625 3.2715.40625s-1.5654-1.5685-2.6289-1.5176z" style="block-progression:tb;isolation:auto;mix-blend-mode:normal;text-decoration-color:#000;text-decoration-line:none;text-decoration-style:solid;text-indent:0;text-transform:none;white-space:normal"/>
      </g>
      <g>
        <path d="m-289.69 503.46-.33594.82227c-.81909 2.0128-.78392 4.5107-.84766 6.8574-15.134-1.3017-24.426 4.6173-31.059 10.439l-1.8144 1.5938 2.4141-.0176c8.692-.0595 16.88-.54343 27.102 7.6699l1.127-1.4043c-9.566-7.6864-17.779-8.0842-25.631-8.0508 6.4079-5.2056 14.834-9.8483 28.635-8.3926l.95117.0996.043-.95312c.10314-2.2712.17009-4.4912.56641-6.166 11.936 4.9826 17.233 12.353 19.385 18.625l1.7031-.58398c-2.3703-6.9097-8.2504-15.07-21.412-20.215l-.82617-.32422z" style="block-progression:tb;isolation:auto;mix-blend-mode:normal;text-decoration-color:#000;text-decoration-line:none;text-decoration-style:solid;text-indent:0;text-transform:none;white-space:normal" transform="rotate(40 1577.46180734 2542.35714457) scale(2.6877)"/>
        <path d="m-287.14 508.06-.12891 1.082c-.27508 2.3382.23686 4.3109.625 6.3613-8.0604-1.2818-16.201-.9182-24.316 2.9121l-2.248 1.0606 2.4453.44921c4.6105.84752 11.649 1.6308 19.109 9.1367l1.1348-1.1289c-6.3724-6.4117-12.571-8.1516-17.115-9.041 7.2606-2.7578 14.51-2.9857 21.834-1.6797l1.0977.19532-.16602-1.1016c-.3152-2.0912-.69855-3.8257-.74804-5.6211 6.3174 3.3421 10.719 9.3691 13.096 13.594l1.3945-.78516c-2.6173-4.6517-7.4943-11.602-15.02-14.986l-.99414-.44727z" style="block-progression:tb;isolation:auto;mix-blend-mode:normal;text-decoration-color:#000;text-decoration-line:none;text-decoration-style:solid;text-indent:0;text-transform:none;white-space:normal" transform="rotate(40 1577.46180734 2542.35714457) scale(2.6877)"/>
        <path transform="rotate(40 1386.72703922 2472.93202055) scale(2.6877)" d="M-282.83 462.48c-.51491.0564-.94228.41785-1.1816.81836-.38298.64081-.0155 1.6976.79817 2.4368.14331-.56923.25515-1.6327.39648-1.8691.18931-.64422.98746-.52216 1.4199-1.0391-.34961-.24293-1.124-.38083-1.4329-.34701zm-11.621 2.921c-.22933.004-.44793.029-.65625.0762-.83331.18893-1.4236.69641-1.8457 1.166-.42212.4696-.73185.9168-.93554 1.0996-.10185.0914-.15353.10875-.16602.11133-.0003.00006-.004-.00008-.004 0-.007-.0498-.0119-.0734-.0195-.16211-.0131-.15194.0108-.35704-.0918-.58398-.27945-.61807-.75124-.7117-1.1676-.62115-.46708.1016-.98534.47209-1.5194.67484-1.2092.4591-.78554-.51383-1.1347-.94345-.37768.9968-.17699 1.4197.1947 1.729.99684.35541 2.2848-.99429 2.6245-.41345.0784.13401-.20996.67465-.17671.92608.0435.32855.14195.52783.48203.69517.35149.17296.75362.24249 1.1152.16797.36161-.0745.64462-.2649.86523-.46289.44121-.396.70127-1.1066 1.0257-1.4675.32441-.36089.63662-.61046 1.0625-.70703.21517-.0488 1.1182-.0769 1.0524.46754-.0521.43089-.575.60545-.98504.86821-.45299.29028-.78858.54722-1.0117 1.1289-.26556.69227-.16433 1.2348.68621 1.7275-.2702-.68302-.31258-1.3926.28485-1.8105 1.3198-1.1343 4.2085-1.5048 2.3849-3.0779-.59557-.28818-.84097-.44626-1.3436-.53153-.2513-.0427-.49137-.0604-.7207-.0566zm7.8715.9201c-.47211.008-1.0139.30073-1.1562.70117-.60805 1.7104 2.8262 4.9394 2.8262 4.9394s.35613-4.6793-1.2383-5.5469c-.12445-.0677-.27428-.0963-.43164-.0937zm5.2637.61523c-.25067-.0213-.53396.0554-.73633.24219-1.2966 1.1967-.86133 4.873-.86133 4.873s2.6193-3.4166 2.1406-4.7637c-.0747-.21029-.29231-.33028-.54297-.35157zm3.7129 2.3965c-.0681-.002-.13516.006-.20117.0254-1.0209.30226-1.9824 2.2988-1.9824 2.2988s2.4195-.46778 2.9551-1.459c.18566-.3436-.29493-.84927-.77148-.86524zm-12.248.0508c-.39781.0455-.74883.32642-.72265.66016.11178 1.4252 3.8125 3.2031 3.8125 3.2031s-1.0178-3.2597-2.6895-3.8242c-.13046-.044-.26779-.0542-.40039-.0391zm-1.6348 3.3164c-.55011.0263-.97227.81044-.64258 1.1113.8322.75947 3.2715.40625 3.2715.40625s-1.5654-1.5685-2.6289-1.5176z" style="block-progression:tb;isolation:auto;mix-blend-mode:normal;text-decoration-color:#000;text-decoration-line:none;text-decoration-style:solid;text-indent:0;text-transform:none;white-space:normal"/>
      </g>
      <path d="m293.64 614.54-.63243 1.548c-1.542 3.7892-1.4758 8.4917-1.5958 12.91-28.49-2.4505-45.984 8.6924-58.47 19.653l-3.4158 3.0003 4.5446-.0331c16.363-.11201 31.777-1.023 51.02 14.439l2.1216-2.6437c-18.009-14.47-33.47-15.219-48.252-15.156 12.063-9.8 27.927-18.54 53.907-15.8l1.7906.18751.0809-1.7943c.19417-4.2757.32021-8.4549 1.0663-11.608 22.471 9.3801 32.442 23.255 36.493 35.063l3.2062-1.0994c-4.4623-13.008-15.532-28.369-40.31-38.056l-1.5553-.61036z" style="block-progression:tb;isolation:auto;mix-blend-mode:normal;text-decoration-color:#000;text-decoration-line:none;text-decoration-style:solid;text-indent:0;text-transform:none;white-space:normal" transform="translate(-18.613 -771.8) scale(1.4277)"/>
      <path d="m298.43 623.2-.24268 2.037c-.51786 4.4019.4459 8.1156 1.1766 11.976-15.174-2.4131-30.499-1.7286-45.777 5.4822l-4.2321 1.9966 4.6035.84567c8.6796 1.5955 21.931 3.07 35.975 17.2l2.1363-2.1252c-11.996-12.07-23.666-15.346-32.221-17.02 13.669-5.1917 27.317-5.6208 41.104-3.1621l2.0664.3677-.31254-2.0738c-.59339-3.9367-1.3151-7.2022-1.4082-10.582 11.893 6.2917 20.179 17.638 24.653 25.591l2.6253-1.4781c-4.9272-8.7571-14.109-21.842-28.275-28.213l-1.8715-.84201z" style="block-progression:tb;isolation:auto;mix-blend-mode:normal;text-decoration-color:#000;text-decoration-line:none;text-decoration-style:solid;text-indent:0;text-transform:none;white-space:normal" transform="translate(-18.613 -771.8) scale(1.4277)"/>
      <path d="M306.55 634.63c-.96935.10618-1.7739.78663-2.2245 1.5406-.72098 1.2064-.0292 3.1957 1.5026 4.5875.26979-1.0716.48033-3.0736.7464-3.5188.35638-1.2128 1.859-.983 2.6731-1.9561-.65817-.45733-2.116-.71694-2.6976-.65327zm-21.878 5.4991c-.43173.008-.84326.0546-1.2354.14346-1.5688.35567-2.68 1.311-3.4747 2.1951-.79467.88405-1.3778 1.7259-1.7612 2.0701-.19173.17207-.28903.20473-.31254.20958-.00056.00012-.008-.00015-.008 0-.0132-.0937-.0224-.13818-.0367-.30518-.0247-.28603.0203-.67215-.17282-1.0994-.52608-1.1636-1.4143-1.3398-2.198-1.1694-.87931.19127-1.855.88874-2.8603 1.2704-2.2764.86428-1.4788-.96732-2.1361-1.7761-.71101 1.8765-.3332 2.6727.36653 3.2549 1.8766.66908 4.3012-1.8718 4.9407-.77835.14759.25228-.39527 1.2701-.33267 1.7434.0819.61851.26723.99367.90745 1.3087.6617.32561 1.4187.4565 2.0995.31621.68075-.14025 1.2135-.49869 1.6288-.87142.83061-.74549 1.3202-2.0833 1.9309-2.7627.61072-.6794 1.1985-1.1492 2.0002-1.331.40507-.0919 2.1051-.14477 1.9813.88017-.0981.81118-1.0825 1.1398-1.8544 1.6345-.85279.54647-1.4846 1.0302-1.9046 2.1252-.49993 1.3032-.30936 2.3246 1.2918 3.2521-.50867-1.2858-.58845-2.6218.53625-3.4084 2.4846-2.1354 7.9228-2.833 4.4897-5.7943-1.1212-.54252-1.5832-.84011-2.5294-1.0006-.47309-.0804-.92503-.11371-1.3568-.10655zm14.819 1.7322c-.88878.0151-1.9087.56614-2.1767 1.32-1.1447 3.2199 5.3204 9.2988 5.3204 9.2988s.67044-8.8092-2.3311-10.442c-.23428-.12745-.51635-.18129-.81259-.1764zm9.9092 1.1582c-.4719-.0401-1.0052.10429-1.3862.45594-2.4409 2.2529-1.6215 9.1738-1.6215 9.1738s4.931-6.4319 4.0299-8.9679c-.14063-.39588-.55029-.62177-1.0222-.66185zm6.9898 4.5115c-.12821-.004-.25445.0113-.37872.0478-1.922.56903-3.732 4.3277-3.732 4.3277s4.5548-.88063 5.5631-2.7466c.34951-.64684-.55523-1.5988-1.4524-1.6289zm-23.058.0956c-.7489.0857-1.4097.61451-1.3604 1.2428.21043 2.6831 7.1773 6.0301 7.1773 6.0301s-1.916-6.1366-5.0631-7.1993c-.2456-.0828-.50413-.10203-.75376-.0736zm-3.0775 6.2434c-1.0356.0495-1.8304 1.5257-1.2097 2.0921 1.5667 1.4298 6.1588.76479 6.1588.76479s-2.947-2.9527-4.9491-2.8569z" style="block-progression:tb;isolation:auto;mix-blend-mode:normal;text-decoration-color:#000;text-decoration-line:none;text-decoration-style:solid;text-indent:0;text-transform:none;white-space:normal" transform="translate(-18.613 -771.8) scale(1.4277)"/>
    </g>
  </g>
</svg>
