<?xml version="1.0" encoding="UTF-8" standalone="no"?>
<!-- Created with Inkscape (http://www.inkscape.org/) -->

<svg
   version="1.0"
   width="900"
   height="600"
   id="svg2"
   xmlns:xlink="http://www.w3.org/1999/xlink"
   xmlns="http://www.w3.org/2000/svg"
   xmlns:svg="http://www.w3.org/2000/svg"
   xmlns:rdf="http://www.w3.org/1999/02/22-rdf-syntax-ns#"
   xmlns:cc="http://creativecommons.org/ns#"
   xmlns:dc="http://purl.org/dc/elements/1.1/">
  <metadata
     id="metadata7">
    <rdf:RDF>
      <cc:Work
         rdf:about="">
        <dc:format>image/svg+xml</dc:format>
        <dc:type
           rdf:resource="http://purl.org/dc/dcmitype/StillImage" />
      </cc:Work>
    </rdf:RDF>
  </metadata>
  <defs
     id="defs5">
    <filter
       color-interpolation-filters="sRGB"
       id="filter13749">
      <feGaussianBlur
         stdDeviation="3.3035713"
         id="feGaussianBlur13751" />
    </filter>
    <filter
       x="-0.18000001"
       y="-0.18000001"
       width="1.36"
       height="1.36"
       color-interpolation-filters="sRGB"
       id="filter13745">
      <feGaussianBlur
         stdDeviation="2.3571429"
         id="feGaussianBlur13747" />
    </filter>
    <linearGradient
       id="linearGradient14132">
      <stop
         id="stop14134"
         style="stop-color:#89c5e3;stop-opacity:0"
         offset="0" />
      <stop
         id="stop14140"
         style="stop-color:#89c5e3;stop-opacity:0.23571429"
         offset="0.69999999" />
      <stop
         id="stop14136"
         style="stop-color:#89c5e3;stop-opacity:1"
         offset="1" />
    </linearGradient>
    <radialGradient
       cx="251.39528"
       cy="92.36171"
       r="145.42854"
       fx="251.39528"
       fy="92.36171"
       id="radialGradient3490"
       xlink:href="#linearGradient14132"
       gradientUnits="userSpaceOnUse"
       gradientTransform="matrix(0.99084366,2.5685382e-8,-1.7646818e-8,0.68074665,122.95383,430.20154)"
       spreadMethod="pad" />
    <radialGradient
       cx="251.39528"
       cy="92.36171"
       r="145.42854"
       fx="251.39528"
       fy="92.36171"
       id="radialGradient7141"
       xlink:href="#linearGradient14132-7"
       gradientUnits="userSpaceOnUse"
       gradientTransform="matrix(0.26257357,0,0,0.18039786,782.53747,500.74651)"
       spreadMethod="pad" />
    <radialGradient
       cx="251.39528"
       cy="92.36171"
       r="145.42854"
       fx="251.39528"
       fy="92.36171"
       id="radialGradient6688"
       xlink:href="#linearGradient14132-7"
       gradientUnits="userSpaceOnUse"
       gradientTransform="matrix(0.26257357,0,0,0.18039786,782.53747,500.74651)"
       spreadMethod="pad" />
    <radialGradient
       cx="251.39528"
       cy="92.36171"
       r="145.42854"
       fx="251.39528"
       fy="92.36171"
       id="radialGradient15776"
       xlink:href="#linearGradient14132-7"
       gradientUnits="userSpaceOnUse"
       gradientTransform="matrix(0.99084366,2.5685382e-8,-1.7646818e-8,0.68074665,122.95383,430.20154)"
       spreadMethod="pad" />
    <filter
       color-interpolation-filters="sRGB"
       id="filter13749-8">
      <feGaussianBlur
         stdDeviation="3.3035713"
         id="feGaussianBlur13751-2" />
    </filter>
    <filter
       x="-0.18000001"
       y="-0.18000001"
       width="1.36"
       height="1.36"
       color-interpolation-filters="sRGB"
       id="filter13745-4">
      <feGaussianBlur
         stdDeviation="2.3571429"
         id="feGaussianBlur13747-8" />
    </filter>
    <linearGradient
       id="linearGradient14132-7">
      <stop
         id="stop14134-4"
         style="stop-color:#89c5e3;stop-opacity:0"
         offset="0" />
      <stop
         id="stop14140-0"
         style="stop-color:#89c5e3;stop-opacity:0.23571429"
         offset="0.69999999" />
      <stop
         id="stop14136-9"
         style="stop-color:#89c5e3;stop-opacity:1"
         offset="1" />
    </linearGradient>
    <radialGradient
       cx="251.39528"
       cy="92.36171"
       r="145.42854"
       fx="251.39528"
       fy="92.36171"
       id="radialGradient4398"
       xlink:href="#linearGradient14132-7"
       gradientUnits="userSpaceOnUse"
       gradientTransform="matrix(0.26257357,0,0,0.18039786,782.53747,500.74651)"
       spreadMethod="pad" />
  </defs>
  <rect
     width="900"
     height="600"
     x="0"
     y="0"
     id="rect24165"
     style="fill:#89c5e3" />
  <rect
     width="900"
     height="200"
     x="0"
     y="200"
     id="rect2545"
     style="fill:#ffffff" />
  <g
     transform="matrix(1.2,0,0,1.2,0.089472,-199.91158)"
     id="g6723">
    <path
       d="m 618.65459,374.26892 c 5e-5,117.24767 -94.15154,212.76623 -211.38703,214.45613 -117.23549,1.6899 -214.10111,-91.07524 -217.4805,-208.2742 -3.3794,-117.19895 87.98001,-215.3915 205.11809,-220.45969 117.13808,-5.06819 216.63716,84.86652 223.39309,201.91938"
       transform="matrix(0.2734494,0,0,0.2734494,264.40368,314.24936)"
       id="path2286-2-2"
       style="fill:#89c5e3;fill-opacity:1;stroke:none" />
    <g
       transform="matrix(1.0392586,0,0,1.0392586,-14.729031,-14.594655)"
       id="g6708">
      <g
         transform="matrix(0.2337005,0,0,0.2337005,85.21718,276.69291)"
         id="g2296">
        <path
           d="m 1449.2239,588.74725 c 1.0127,84.22919 -47.439,169.69543 -125.9512,203.78044 -82.0913,36.89226 -185.2352,10.52738 -242.7848,-57.75907 -44.406,-50.66573 -63.1097,-123.32488 -46.7182,-188.84454 12.2923,-16.88819 24.8467,-32.91011 41.0141,-46.44358 8.9251,-16.65177 28.5745,-25.47907 28.3533,-1.18672 12.0245,-10.80298 10.9007,-30.66756 25.9014,-39.35686 12.7825,-14.77652 15.2119,-39.91231 33.8988,-48.57355 19.5707,4.88219 26.6445,31.29531 46.9995,34.079 20.3772,-7.02426 25.0423,-43.16718 50.3093,-37.66364 25.3438,7.08796 27.6321,41.84335 51.8401,49.9594 6.7239,-11.49483 18.0985,-20.22096 24.8278,-2.16993 11.2313,16.73773 21.1285,36.80398 39.8628,46.1992 10.6268,0.0125 23.9309,-13.79522 30.0702,3.53123 10.8313,15.79961 12.5602,42.95964 33.6322,48.43222 l 2.4055,-0.31709"
           id="path2294"
           style="fill:#000000;fill-opacity:1;stroke:none" />
        <path
           d="m 1443.4126,590.15918 c 0.9905,82.38389 -46.3997,165.9777 -123.1919,199.31595 -80.2927,36.08402 -181.1769,10.29674 -237.4657,-56.49365 -43.4331,-49.55571 -61.7272,-120.62305 -45.6947,-184.70725 12.0229,-16.51827 24.3023,-32.18912 40.1156,-45.42607 8.7295,-16.28696 27.9484,-24.92087 27.732,-1.16074 11.761,-10.56634 10.6619,-29.99569 25.3339,-38.49461 12.5026,-14.45279 14.8788,-39.03791 33.1562,-47.50938 19.1419,4.77524 26.0608,30.6097 45.9698,33.33239 19.9307,-6.87035 24.4937,-42.22146 49.2071,-36.8385 24.7885,6.93273 27.0268,40.92668 50.7045,48.86489 6.5766,-11.24293 17.7018,-19.77802 24.2838,-2.12241 10.9852,16.37103 20.6656,35.99767 38.9895,45.18704 10.3939,0.0123 23.4065,-13.493 29.4113,3.45388 10.5941,15.45346 12.285,42.01847 32.8954,47.37114 l 2.3528,-0.31014"
           id="path2283"
           style="fill:#078930;fill-opacity:1;stroke:none" />
      </g>
      <path
         d="m 402.17164,402.66452 c -2.99108,5.61071 -10.90297,5.9514 -11.12,5.66314 -0.21704,-0.28826 7.91873,-1.01282 10.90979,-6.62353 2.99106,-5.6107 6.60914,-8.1672 6.82616,-7.87894 0.20906,0.27768 -3.43993,2.84098 -6.30438,8.25278"
         id="path2306"
         style="fill:#000000;fill-opacity:1;stroke:none" />
      <path
         d="m 386.32109,390.43745 c -2.94448,3.33948 -4.44745,5.74629 -4.74495,5.71479 -0.15578,-0.0165 1.00096,-2.90331 3.94544,-6.24279 2.94449,-3.33949 5.69573,-6.07003 5.85151,-5.87504 0.15006,0.18784 -0.98166,1.40348 -3.80471,4.62587"
         id="path1326"
         style="fill:#000000;fill-opacity:1;stroke:none" />
      <path
         d="m 364.75393,386.44353 c -2.94448,3.33949 -5.84532,10.1396 -6.14282,10.1081 -0.15578,-0.0165 2.39883,-7.29662 5.34331,-10.6361 2.94449,-3.33948 5.69572,-6.07003 5.85151,-5.87504 0.15006,0.18784 -0.98166,1.40348 -3.80471,4.62587"
         id="path1328"
         style="fill:#000000;fill-opacity:1;stroke:none" />
      <path
         d="m 344.4451,401.57776 c 2.54039,3.6563 7.87354,8.23397 8.17269,8.23693 0.15664,0.002 -5.07687,-2.71656 -7.61725,-6.37286 -2.5404,-3.65631 -1.36441,-10.28 -1.54162,-10.10424"
         id="path1330"
         style="fill:#000000;fill-opacity:1;stroke:none" />
      <path
         d="m 417.83897,432.07048 c -1.91744,-5.22966 -3.64148,-10.63766 -6.63092,-15.27558 -3.31977,-0.3981 -4.01453,4.02571 -5.68491,6.20225 -3.3067,5.41521 -6.03905,11.23854 -9.55657,16.50068 -0.6442,-2.9809 3.03095,-4.06907 3.42969,-6.84944 2.58235,-5.60127 5.7154,-10.89736 9.24012,-15.82002 3.08104,-2.32433 5.08369,3.04451 5.99433,5.54035 1.94018,4.12576 3.77652,8.32593 5.19114,12.71175"
         id="path2287"
         style="fill:#000000;fill-opacity:1;stroke:#ad0000;stroke-width:0.0268634;stroke-miterlimit:4;stroke-opacity:1" />
      <path
         d="m 345.84875,418.654 c -2.42857,-3.86308 -3.89397,-7.96455 -6.43496,-11.56762 -2.82174,-0.30928 -3.41228,3.12746 -4.83207,4.81835 -2.81064,4.20693 -5.13309,8.73091 -8.12293,12.81892 -0.54755,-2.31578 2.57626,-3.16115 2.91519,-5.32114 2.19495,-4.35147 4.85799,-8.46585 7.85394,-12.29013 2.61883,-1.80571 4.32105,2.3652 5.09508,4.30414 1.64912,3.20519 4.30831,6.66788 5.51071,10.07511"
         id="path3177"
         style="fill:#000000;fill-opacity:1;stroke:#ad0000;stroke-width:0.0218293;stroke-miterlimit:4;stroke-opacity:1" />
      <path
         d="m 353.18437,436.51821 c -3.20897,-0.22045 -3.88056,2.22923 -5.49519,3.43449 -3.19635,2.99867 -5.83753,6.22333 -9.23766,9.13724 -0.6227,-1.65067 2.92981,-2.25325 3.31524,-3.79287 2.49617,-3.1017 5.52467,-6.03441 8.93177,-8.76033 2.97822,-1.28709 6.21206,0.88711 7.09231,2.26918"
         id="path3179"
         style="fill:#000000;fill-opacity:1;stroke:#ad0000;stroke-width:0.0196538;stroke-miterlimit:4;stroke-opacity:1" />
      <path
         d="m 388.28175,456.52805 c -3.06774,-2.35861 -8.52193,-7.3937 -12.30632,-8.08756 -5.31133,-0.17955 -4.32609,1.11668 -6.99854,2.29802 -5.09074,3.14123 -10.06136,6.76607 -15.68908,9.13932 -1.03066,-1.3444 4.84926,-1.83517 5.48721,-3.08913 4.13153,-2.52622 8.74476,-6.51235 14.384,-8.7325 4.92939,-1.04829 8.53285,2.97066 9.98978,4.09629 3.10413,1.86075 3.74563,2.75657 6.00888,4.73461"
         id="path3181"
         style="fill:#000000;fill-opacity:1;stroke:#ad0000;stroke-width:0.0228192;stroke-miterlimit:4;stroke-opacity:1" />
      <path
         d="m 411.59545,447.48049 c -4.36204,-0.96547 -4.60247,-10.09183 -10.13454,-9.01431 -4.84905,3.21491 -4.63631,5.80195 -6.42879,8.42902 -3.24711,5.67055 -5.56292,10.92898 -9.15275,16.74941 -1.73176,-0.60935 3.21998,-4.81776 3.03213,-6.40504 2.16206,-5.01121 5.19362,-10.45417 8.88623,-16.13776 3.76664,-4.1278 3.4956,-3.38977 5.47572,-3.25802 1.99713,1.57179 3.56671,2.38239 4.68445,5.09961"
         id="path3183"
         style="fill:#000000;fill-opacity:1;stroke:#ad0000;stroke-width:0.0252587;stroke-miterlimit:4;stroke-opacity:1" />
      <path
         d="m 395.19718,439.22744 c -1.55883,-1.44274 -2.66482,-2.15545 -2.6593,-2.31368 0.003,-0.0829 1.31117,0.43072 2.87003,1.87348 1.55883,1.44275 2.59304,2.54235 2.51127,2.63124 -0.0787,0.0856 -0.3978,-0.20957 -1.90145,-1.59212"
         id="path3185"
         style="fill:#000000;fill-opacity:1;stroke:none" />
    </g>
    <path
       d="m 374.92544,350.84298 c -36.31272,0 -65.75,29.43728 -65.75,65.75 0,36.31272 29.43728,65.75 65.75,65.75 36.31272,0 65.75,-29.43728 65.75,-65.75 l -0.0937,-3.78125 c -2.00757,-34.78318 -30.81519,-61.96875 -65.65625,-61.96875 z m 0,16.5 c 26.09768,0 47.68373,20.38318 49.1875,46.4375 l 0.0625,2.8125 c 0,27.20002 -22.04998,49.25 -49.25,49.25 -27.20002,0 -49.25,-22.04998 -49.25,-49.25 0,-27.20002 22.04998,-49.25 49.25,-49.25 z"
       id="path5901"
       style="fill:#fcdd09;fill-opacity:1;stroke:#000000;stroke-opacity:1" />
    <g
       id="text2035"
       style="font-size:16.6667px;line-height:1.25;font-family:'TeX Gyre Termes';-inkscape-font-specification:'TeX Gyre Termes';text-align:center;letter-spacing:1pt;text-anchor:middle;stroke-width:0.416667">
      <path
         d="m 341.90007,460.53842 0.39617,0.24662 c 1.65872,-1.08771 2.47853,-1.04855 4.50186,0.211 l 0.38202,0.23781 c 0.67916,0.42279 1.2099,0.8317 1.27558,1.01002 0.0497,0.10944 -10e-4,0.2544 -0.16866,0.52323 l -2.17557,3.49484 -2.17897,-1.35643 c -1.16023,-0.72225 -1.25796,-1.03831 -0.71084,-2.32719 l -0.32543,-0.20259 -2.04345,3.2826 0.32543,0.20259 c 0.90619,-1.04573 1.24708,-1.08874 2.39316,-0.37529 l 2.17897,1.35643 -1.95537,3.14111 c -0.24663,0.39617 -0.38437,0.42822 -0.7664,0.19041 l -1.91013,-1.18908 c -1.59886,-0.99531 -1.77802,-1.40132 -1.22583,-2.82448 l -0.35373,-0.2202 -1.2171,2.04975 7.5132,4.67705 0.16735,-0.26884 c -0.99419,-0.73668 -1.06362,-1.03513 -0.43826,-2.03972 l 3.91075,-6.28222 c 0.62537,-1.00458 0.94677,-1.07936 2.02369,-0.50712 l 0.16736,-0.26884 -7.64054,-4.75631 z"
         id="path3163" />
      <path
         d="m 334.31396,453.47935 c -0.95875,0.9972 -1.03724,2.40145 -0.28301,4.79125 0.6031,1.89771 0.59945,2.9115 -0.0359,3.57229 -0.63532,0.6608 -1.56733,0.62019 -2.31222,-0.096 -0.54066,-0.51981 -0.82579,-1.23323 -0.83045,-2.07005 -0.003,-0.74255 0.12932,-1.21664 0.61861,-2.11032 l -0.30037,-0.28878 -2.19609,2.81321 0.25231,0.24258 c 0.30218,-0.21811 0.57295,-0.23522 0.7772,-0.0389 0.12015,0.11551 0.26617,0.34839 0.39002,0.65242 0.28282,0.5956 0.62293,1.10756 1.04344,1.51186 0.46857,0.45049 1.15799,0.74341 1.84279,0.80068 0.8382,0.066 1.56318,-0.23112 2.1985,-0.89192 0.91255,-0.94914 1.03078,-2.13021 0.36668,-4.1328 -0.41455,-1.30025 -0.57725,-2.3815 -0.43867,-3.12683 0.0536,-0.27216 0.22454,-0.57021 0.51332,-0.87057 0.76238,-0.79296 1.89447,-0.76806 2.77152,0.0752 1.08131,1.03961 1.19089,2.41658 0.38236,4.45991 l 0.27634,0.26568 2.08842,-2.89361 -0.26432,-0.25413 c -0.23148,0.21673 -0.53738,0.24632 -0.71759,0.0731 -0.13216,-0.12707 -0.2902,-0.37149 -0.43762,-0.67507 -0.28328,-0.61916 -0.67145,-1.17733 -1.15203,-1.63938 -1.39368,-1.33994 -3.36351,-1.4073 -4.55328,-0.16981 z"
         id="path3165" />
      <path
         d="m 322.45195,446.45199 -2.27333,1.69404 5.34735,7.73086 2.38711,-1.52955 -0.22755,-0.32897 c -1.73534,0.71395 -2.20013,0.56934 -3.26202,-0.96586 l -0.51198,-0.74019 6.8536,-4.74056 c 1.16511,-0.8059 1.42018,-0.75941 2.27565,0.33088 l 0.26044,-0.18014 -2.76849,-4.0025 -0.26043,0.18014 c 0.72262,1.16191 0.67716,1.47707 -0.32346,2.16919 l -7.00438,4.84485 -0.51198,-0.74019 c -1.08085,-1.56262 -1.0427,-2.03483 0.24702,-3.39302 z"
         id="path3167" />
      <path
         d="m 324.45866,430.20075 -0.2948,0.11563 c 0.22733,0.71647 0.13304,0.93249 -0.80211,1.92591 l -7.29748,7.32035 0.12172,0.31032 8.88414,0.23897 c 2.65481,0.10442 2.96058,0.19932 3.29927,0.92582 l 0.29479,-0.11564 -1.20505,-3.07211 -0.2948,0.11563 c 0.29213,0.74476 0.21215,1.13419 -0.22229,1.30461 -0.18619,0.073 -0.42167,0.11169 -0.6538,0.11323 l -2.0953,-0.002 -1.59458,-4.06512 1.23998,-1.22042 c 0.36141,-0.3566 0.7067,-0.61736 0.93943,-0.70866 0.13964,-0.0548 0.34683,-0.0286 0.45759,0.0712 0.18164,0.14358 0.26136,0.25554 0.48046,0.8141 l 0.2948,-0.11563 z m -2.41123,5.58271 1.40591,3.58413 -4.96673,-0.11061 z"
         id="path3169" />
      <path
         d="m 317.18353,417.89637 c -1.49004,0.17259 -2.72387,0.81886 -3.52898,1.83491 -1.01196,1.25813 -1.39894,3.13177 -1.13621,5.39995 l 0.51778,4.47012 0.31457,-0.0364 c -0.0356,-1.32135 0.0961,-1.48761 1.32128,-1.62952 l 7.35086,-0.85147 c 1.19203,-0.13808 1.43027,0.0357 1.6588,1.28433 l 0.31457,-0.0364 -0.54464,-4.7019 c -0.22245,-1.9205 -0.97016,-3.59559 -2.0162,-4.51467 -1.10145,-0.963 -2.64589,-1.40489 -4.25183,-1.21887 z m 0.32493,1.79118 c 1.95361,-0.22629 3.42294,0.29141 4.3564,1.54232 0.57793,0.78874 0.88783,1.72597 1.05467,3.16635 0.0767,0.66224 -0.0493,0.87817 -0.57907,0.93954 l -8.41045,0.9742 c -0.51324,0.0595 -0.66678,-0.10733 -0.74541,-0.78612 -0.16492,-1.42382 -0.0247,-2.53064 0.44618,-3.39053 0.74444,-1.39493 2.08963,-2.23865 3.87768,-2.44576 z"
         id="path3171" />
      <path
         d="m 318.86204,403.13278 c -1.63385,-0.2303 -3.10411,0.0506 -4.22227,0.8187 -1.2853,0.87922 -2.07482,2.18178 -2.29814,3.76612 -0.4443,3.15218 1.61585,5.73164 4.93307,6.1992 1.55133,0.21867 3.1276,-0.0978 4.21042,-0.85404 1.17464,-0.81066 2.02531,-2.18875 2.23002,-3.64107 0.45826,-3.2512 -1.53588,-5.82135 -4.8531,-6.28891 z m -0.28169,1.87908 c 0.97371,0.13724 2.08222,0.51229 2.89388,0.96333 0.39165,0.20668 0.7647,0.5454 1.09078,0.97848 0.49621,0.65905 0.68859,1.44358 0.5653,2.31827 -0.107,0.75916 -0.50875,1.45995 -1.10177,1.96546 -0.88013,0.75118 -2.62375,1.06086 -4.45565,0.80265 -1.68336,-0.23727 -3.21908,-0.92501 -3.89704,-1.72749 -0.61894,-0.74367 -0.86803,-1.60352 -0.74009,-2.51122 0.10701,-0.75916 0.51107,-1.47645 1.12293,-1.99614 0.93429,-0.77721 2.55774,-1.07016 4.52166,-0.79334 z"
         id="path3173" />
      <path
         d="m 328.72359,386.64347 -0.19508,0.36818 c 0.39061,0.50874 0.62791,0.87966 0.7543,1.21069 0.34545,0.84317 0.19611,1.80143 -0.47494,3.06798 l -0.52279,0.98673 c -0.56961,1.0751 -0.75941,1.21973 -1.27487,0.94663 l -6.96602,-3.69076 c -1.04564,-0.554 -1.14258,-0.86943 -0.59979,-2.0719 l -0.27982,-0.14825 -2.20041,4.1531 0.27982,0.14826 c 0.66577,-1.04301 0.95867,-1.13303 2.00431,-0.57902 l 6.53893,3.46448 c 1.04564,0.554 1.14258,0.86942 0.6466,1.98353 l 0.27982,0.14826 4.19795,-7.9233 z"
         id="path3175" />
      <path
         d="m 335.533,382.65394 -0.24934,-0.19521 c -0.88185,1.04529 -1.22996,1.11142 -2.18796,0.36141 l -5.82675,-4.56171 c -0.958,-0.75001 -0.98477,-1.0673 -0.17423,-2.21076 l -0.24935,-0.1952 -3.05141,3.89762 0.24934,0.19521 c 0.93892,-1.06411 1.20657,-1.10858 2.17769,-0.34829 l 5.82675,4.56171 c 0.98425,0.77056 1.00816,1.06445 0.18451,2.19763 l 0.24934,0.19521 z"
         id="path3178" />
      <path
         d="m 341.90067,372.47543 c -0.48437,-0.55061 -1.14995,-0.85301 -1.85712,-0.87465 -0.67264,-0.008 -1.14262,0.13943 -2.13215,0.65476 0.50761,-0.73512 0.66032,-1.09143 0.72948,-1.61842 0.0707,-0.55051 -0.14894,-1.17865 -0.60029,-1.69172 -1.23293,-1.40154 -2.98514,-1.1476 -5.15003,0.75684 l -3.50387,3.08234 0.20916,0.23776 c 1.1062,-0.86213 1.37746,-0.85658 2.19208,0.0694 l 4.8877,5.55613 c 0.81462,0.92602 0.79505,1.23181 -0.21057,2.18305 l 0.20915,0.23776 4.17962,-3.67679 c 0.97607,-0.85865 1.63338,-1.90303 1.7221,-2.73581 0.0982,-0.79674 -0.14686,-1.58003 -0.67526,-2.18069 z m -1.42808,1.27847 c 0.59445,0.67575 0.76098,1.39496 0.51362,2.12311 -0.20229,0.57752 -0.62729,1.12897 -1.4532,1.85552 -0.61318,0.53941 -0.88745,0.5809 -1.23971,0.18046 l -2.73007,-3.10342 c 1.21384,-1.06781 1.84451,-1.51163 2.46014,-1.72022 0.97748,-0.32715 1.75569,-0.12382 2.44922,0.66455 z m -3.66437,-3.63559 c 0.85865,0.97608 0.67978,2.11013 -0.49651,3.14491 l -1.18881,1.04579 -2.52092,-2.86566 c -0.23117,-0.26279 -0.24265,-0.45247 -0.0549,-0.6176 l 0.55061,-0.48436 c 1.43908,-1.26596 2.73083,-1.33681 3.71057,-0.22308 z"
         id="path3180" />
      <path
         d="m 355.67772,368.03456 -0.14684,-0.28056 c -0.58431,0.24939 -0.95693,0.2563 -1.64793,-0.0216 l -4.99724,-2.14378 c 0.88888,-0.70978 1.23913,-1.11884 1.51774,-1.77258 0.27158,-0.63124 0.22753,-1.39828 -0.13572,-2.0923 -0.33233,-0.63495 -0.81025,-1.08083 -1.41831,-1.30811 -0.878,-0.31173 -2.30456,-0.0542 -3.6926,0.67232 l -4.07552,2.13313 0.14685,0.28056 c 1.1693,-0.46152 1.40198,-0.37638 1.95072,0.67203 l 3.34653,6.39384 c 0.64149,1.22561 0.58657,1.4801 -0.47454,2.14835 l 0.14685,0.28056 4.09028,-2.14085 -0.14684,-0.28056 c -1.17566,0.52127 -1.46809,0.42978 -2.02456,-0.6334 l -1.52256,-2.90897 0.81146,-0.46234 5.89485,2.70861 z m -7.03498,-5.49795 c 0.38644,0.73832 0.40095,1.52081 0.0162,2.0796 -0.47831,0.73945 -0.94876,1.09855 -2.35088,1.87004 l -1.90126,-3.63253 c -0.2164,-0.41346 -0.1158,-0.6166 0.47485,-0.92575 1.8458,-0.96609 3.03458,-0.7794 3.76108,0.60864 z"
         id="path3182" />
      <path
         d="m 366.04487,362.33699 -0.45215,0.1155 c -0.36194,1.95024 -0.95732,2.51517 -3.26651,3.10501 l -0.43601,0.11137 c -0.77511,0.19799 -1.43754,0.29839 -1.61175,0.22247 -0.11338,-0.0398 -0.1828,-0.17693 -0.26118,-0.48374 l -1.01881,-3.98862 2.48682,-0.63521 c 1.32416,-0.33823 1.62,-0.19018 2.17228,1.0965 l 0.37141,-0.0949 -0.95694,-3.74638 -0.37141,0.0949 c 0.1283,1.37777 -0.0765,1.6537 -1.38445,1.9878 l -2.48683,0.63522 -0.9157,-3.58491 c -0.11549,-0.45215 -0.0433,-0.57379 0.39265,-0.68516 L 360.4863,355.93 c 1.82475,-0.4661 2.24188,-0.31462 2.88763,1.0686 l 0.40371,-0.10312 -0.63829,-2.29682 -8.57471,2.19025 0.0784,0.30682 c 1.21972,-0.20835 1.48327,-0.052 1.77613,1.09448 l 1.8314,7.16981 c 0.29286,1.14653 0.12453,1.43035 -1.03367,1.8122 l 0.0784,0.30682 8.72004,-2.22738 z"
         id="path3184" />
      <path
         d="m 385.73285,359.84873 c 0.14048,-1.49341 -0.23557,-2.83453 -1.06236,-3.83302 -1.02065,-1.25109 -2.77315,-2.01859 -5.04645,-2.23244 l -4.48023,-0.42144 -0.0297,0.31527 c 1.29996,0.23947 1.43525,0.40286 1.31974,1.63077 l -0.69304,7.3675 c -0.11238,1.19472 -0.3318,1.39171 -1.6007,1.35605 l -0.0297,0.31527 4.71254,0.4433 c 1.92484,0.18106 3.71866,-0.20262 4.83486,-1.03508 1.17067,-0.87756 1.92355,-2.29662 2.07496,-3.90618 z m -1.81961,-0.054 c -0.18419,1.95803 -0.99564,3.28788 -2.41307,3.94134 -0.89153,0.4016 -1.87268,0.51019 -3.31631,0.37439 -0.66374,-0.0624 -0.84881,-0.23051 -0.79886,-0.7615 l 0.79294,-8.42947 c 0.0484,-0.51439 0.2434,-0.62997 0.92373,-0.56597 1.42704,0.13423 2.48064,0.50119 3.22405,1.14029 1.21,1.0178 1.75609,2.50883 1.58752,4.30092 z"
         id="path3186" />
      <path
         d="m 397.47822,366.44818 -0.44086,-0.15303 c -1.37753,1.42718 -2.18574,1.57005 -4.43728,0.78847 l -0.42512,-0.14757 c -0.75576,-0.26234 -1.3637,-0.54395 -1.46715,-0.70335 -0.0726,-0.0958 -0.0549,-0.24841 0.0489,-0.54757 l 1.34999,-3.88902 2.42474,0.84169 c 1.29109,0.44818 1.45621,0.73484 1.20726,2.11274 l 0.36214,0.1257 1.268,-3.65285 -0.36213,-0.12571 c -0.65286,1.22005 -0.97584,1.33728 -2.25119,0.89457 l -2.42473,-0.84169 1.21335,-3.4954 c 0.15303,-0.44086 0.2803,-0.50254 0.70541,-0.35497 l 2.12559,0.73785 c 1.77919,0.61761 2.0436,0.97402 1.81936,2.48399 l 0.39363,0.13664 0.73434,-2.26794 -8.36063,-2.90221 -0.10384,0.29916 c 1.13234,0.49892 1.26597,0.77466 0.87792,1.89256 l -2.42671,6.9908 c -0.38805,1.1179 -0.685,1.26181 -1.86172,0.94155 l -0.10384,0.29916 8.50233,2.9514 z"
         id="path3188" />
      <path
         d="m 412.29155,377.52837 -0.049,-0.42144 c -1.70151,0.16207 -2.87428,-0.1288 -3.95879,-0.98756 -0.78398,-0.62079 -1.30332,-1.4147 -1.48998,-2.30657 -0.26394,-1.25069 0.23606,-2.7681 1.43625,-4.28379 1.87271,-2.36501 4.29842,-2.93155 6.19304,-1.43131 0.75785,0.6001 1.20695,1.40216 1.31575,2.33868 0.087,0.74921 -0.007,1.27026 -0.43094,2.31616 l 0.30053,0.23797 2.22071,-3.04611 -0.27439,-0.21728 c -0.29568,0.21231 -0.6289,0.20357 -0.87716,0.007 -0.13066,-0.10346 -0.28255,-0.28751 -0.42953,-0.53145 -0.47471,-0.71604 -1.03219,-1.32755 -1.67244,-1.83453 -1.00611,-0.79668 -2.3384,-1.23513 -3.65277,-1.21295 -1.64487,0.0369 -3.1635,0.85395 -4.343,2.34351 -2.10034,2.65246 -1.76964,5.80557 0.83056,7.86452 1.4765,1.16915 3.246,1.5924 4.88112,1.16517 z"
         id="path3190" />
      <path
         d="m 423.76697,385.96415 c 1.30815,-1.00561 2.13673,-2.25222 2.37087,-3.58843 0.2718,-1.53334 -0.10575,-3.00896 -1.0809,-4.27747 -1.94012,-2.5238 -5.22433,-2.85813 -7.88027,-0.81643 -1.24208,0.95482 -2.11947,2.30201 -2.33734,3.6047 -0.24331,1.40632 0.1454,2.97849 1.03928,4.14128 2.00107,2.60308 5.23242,2.97805 7.88836,0.93635 z m -1.14477,-1.51651 c -0.7796,0.59931 -1.82339,1.12841 -2.71365,1.39234 -0.42176,0.13502 -0.92478,0.16434 -1.46232,0.094 -0.818,-0.10696 -1.51294,-0.51873 -2.0513,-1.21905 -0.46726,-0.60783 -0.68651,-1.38528 -0.63241,-2.16264 0.0796,-1.15437 1.07899,-2.61635 2.54571,-3.74385 1.34778,-1.03609 2.91392,-1.65141 3.96158,-1.57385 0.96434,0.0786 1.75277,0.50254 2.31144,1.22929 0.46726,0.60783 0.69667,1.39849 0.63951,2.19923 -0.099,1.21126 -1.02614,2.57571 -2.59856,3.78448 z"
         id="path3192" />
      <path
         d="m 426.29496,397.28725 c 1.25867,-0.57391 1.84891,-1.8505 2.02805,-4.35008 0.13837,-1.98642 0.5152,-2.92758 1.34926,-3.30788 0.83406,-0.3803 1.68556,7.8e-4 2.11427,0.94099 0.31115,0.68241 0.31343,1.45071 0.01,2.23039 -0.27092,0.69138 -0.5684,1.08346 -1.35248,1.73405 l 0.17286,0.37912 3.07796,-1.80642 -0.1452,-0.31846 c -0.36129,0.0915 -0.61932,0.008 -0.73687,-0.25017 -0.0691,-0.15165 -0.11912,-0.42194 -0.12226,-0.75023 -0.0435,-0.65789 -0.17114,-1.25914 -0.41315,-1.7899 -0.26966,-0.59143 -0.80271,-1.11771 -1.41826,-1.4232 -0.75493,-0.37016 -1.53839,-0.36097 -2.37245,0.0193 -1.19801,0.54625 -1.743,1.60071 -1.86329,3.70711 -0.0936,1.36153 -0.34061,2.42668 -0.744,3.06854 -0.15008,0.23329 -0.4188,0.4474 -0.79792,0.62027 -1.00087,0.45636 -2.04417,0.0162 -2.54893,-1.09083 -0.62231,-1.36483 -0.21695,-2.68534 1.28742,-4.28714 l -0.15904,-0.34879 -3.00748,1.92082 0.15212,0.33362 c 0.29505,-0.11621 0.59033,-0.031 0.69404,0.19643 0.0761,0.16682 0.13295,0.45227 0.15818,0.78881 0.0353,0.67997 0.19054,1.34188 0.46712,1.94846 0.80209,1.75911 2.60858,2.54736 4.17054,1.83516 z"
         id="path3194" />
      <path
         d="m 434.71453,408.21484 2.7392,-0.73117 -2.1024,-9.16189 -2.78393,0.53623 0.0895,0.38987 c 1.87635,-0.0202 2.25449,0.28635 2.67199,2.10574 l 0.20129,0.8772 -8.12224,1.86383 c -1.38079,0.31685 -1.60048,0.17916 -1.9911,-1.15049 l -0.30864,0.0708 1.08847,4.74339 0.30865,-0.0708 c -0.24069,-1.34696 -0.0817,-1.62284 1.10415,-1.89496 l 8.30093,-1.90483 0.20129,0.8772 c 0.42496,1.85187 0.21456,2.27635 -1.48659,3.06001 z"
         id="path3196" />
      <path
         d="m 426.83732,422.56669 0.31666,0.001 c 0.0532,-0.74978 0.22057,-0.91574 1.45638,-1.49381 l 9.48427,-4.10967 0.001,-0.33333 -8.16851,-3.50148 c -2.42878,-1.07702 -2.67792,-1.27809 -2.72452,-2.07829 l -0.31666,-10e-4 -0.014,3.29997 0.31666,0.001 c 0.003,-0.79999 0.22149,-1.1324 0.68816,-1.13041 0.2,8.5e-4 0.43311,0.0518 0.64943,0.1361 l 1.94672,0.77496 -0.0186,4.36664 -1.6029,0.67651 c -0.46752,0.19801 -0.88468,0.31291 -1.13468,0.31184 -0.14999,-6.4e-4 -0.3329,-0.10142 -0.399,-0.23503 -0.11581,-0.2005 -0.14858,-0.33397 -0.14602,-0.93397 l -0.31667,-0.001 z m 4.30168,-4.2984 0.0164,-3.84997 4.57514,1.93617 z"
         id="path3198" />
      <path
         d="m 421.66512,439.90972 0.2965,0.11119 c 0.26921,-0.57544 0.54232,-0.82902 1.24262,-1.08259 l 5.15377,-1.73401 c -0.18925,1.12164 -0.17756,1.66003 0.0507,2.33302 0.21846,0.65154 0.76269,1.19385 1.49614,1.46892 0.67103,0.25166 1.32451,0.26533 1.92923,0.0293 0.86222,-0.35305 1.75371,-1.49612 2.30385,-2.96303 l 1.6153,-4.30707 -0.2965,-0.1112 c -0.56378,1.12358 -0.79397,1.21526 -1.90195,0.79973 l -6.75711,-2.53415 c -1.29525,-0.48576 -1.42398,-0.71204 -1.07868,-1.91756 l -0.2965,-0.1112 -1.62115,4.32268 0.2965,0.1112 c 0.52867,-1.17235 0.80763,-1.29913 1.93121,-0.87775 l 3.07425,1.15295 -0.29653,0.8856 -6.19934,1.9115 z m 8.90882,-0.59275 c -0.78027,-0.29263 -1.31279,-0.86615 -1.3986,-1.53914 -0.13653,-0.87001 -0.0253,-1.45131 0.50531,-2.96113 l 3.83892,1.43972 c 0.43695,0.16388 0.49741,0.38235 0.26331,1.00657 -0.73157,1.95067 -1.74204,2.60412 -3.20894,2.05398 z"
         id="path3200" />
      <path
         d="m 418.06613,445.62729 0.27068,0.16436 c 0.75206,-1.14223 1.08991,-1.24907 2.12988,-0.61759 l 6.32527,3.84073 c 1.03996,0.63147 1.10406,0.94337 0.43441,2.17464 l 0.27068,0.16436 2.56914,-4.23109 -0.27068,-0.16436 c -0.8065,1.16767 -1.06701,1.24347 -2.12122,0.60335 l -6.32527,-3.84074 c -1.06846,-0.64877 -1.12696,-0.93777 -0.44307,-2.16039 l -0.27068,-0.16436 z"
         id="path3202" />
      <path
         d="m 411.68608,456.2438 0.42355,-0.0247 c -0.0641,-1.70801 0.29365,-2.86215 1.21326,-3.89555 0.66479,-0.74704 1.4872,-1.21994 2.38832,-1.35508 1.26379,-0.19168 2.74998,0.39463 4.19425,1.67988 2.25357,2.00543 2.67988,4.45966 1.07332,6.26501 -0.64262,0.72213 -1.46915,1.12444 -2.41037,1.17928 -0.75297,0.0439 -1.26778,-0.0796 -2.28759,-0.56322 l -0.25483,0.28636 2.91356,2.39196 0.23267,-0.26146 c -0.19498,-0.30738 -0.16711,-0.63954 0.0434,-0.87611 0.1108,-0.1245 0.30327,-0.26557 0.55525,-0.39831 0.74211,-0.4328 1.38462,-0.95424 1.92753,-1.56433 0.85314,-0.9587 1.36737,-2.26361 1.4207,-3.57708 0.0577,-1.64428 -0.67087,-3.20733 -2.09025,-4.47042 -2.52748,-2.24918 -5.69437,-2.10009 -7.89923,0.37759 -1.25201,1.40692 -1.77618,3.1492 -1.44354,4.80615 z"
         id="path3204" />
      <path
         d="m 399.4834,462.7276 0.17886,0.26132 c 0.64715,-0.38236 0.87883,-0.33896 2.05681,0.34933 l 8.77162,5.46804 0.27507,-0.18827 -1.76136,-8.71107 c -0.49417,-2.6105 -0.47033,-2.92977 0.1616,-3.42288 l -0.17886,-0.26132 -2.72321,1.86391 0.17886,0.26131 c 0.66017,-0.45185 1.05762,-0.46133 1.3212,-0.0762 0.11297,0.16505 0.2035,0.38584 0.25711,0.6117 l 0.46873,2.0422 -3.60344,2.46639 -1.46761,-0.93439 c -0.42863,-0.27214 -0.76025,-0.55008 -0.90145,-0.75638 -0.0847,-0.12379 -0.10575,-0.33156 -0.0334,-0.46188 0.0992,-0.20924 0.19035,-0.31206 0.68548,-0.65095 l -0.17886,-0.26132 z m 5.9815,1.09653 3.17708,-2.17456 1.0071,4.86482 z"
         id="path3206" />
    </g>
    <g
       transform="matrix(0.2337005,0,0,0.2337005,57.091972,341.71573)"
       id="g1344">
      <g
         transform="translate(353.637,156.8983)"
         id="g2259">
        <path
           d="m 687.01421,405.03076 c 0,63.06149 -50.63932,114.436 -113.69426,115.34488 -63.05494,0.90889 -115.15396,-48.98473 -116.97153,-112.02002 -1.81758,-63.03529 47.31996,-115.848 110.32251,-118.57389 63.00255,-2.7259 116.51797,45.64537 120.15162,108.60209"
           transform="translate(434.7092,-241.5307)"
           id="path2255"
           style="fill:#000000;fill-opacity:1;stroke:none" />
        <path
           d="m 687.01421,405.03076 c 0,63.06149 -50.63932,114.436 -113.69426,115.34488 -63.05494,0.90889 -115.15396,-48.98473 -116.97153,-112.02002 -1.81758,-63.03529 47.31996,-115.848 110.32251,-118.57389 63.00255,-2.7259 116.51797,45.64537 120.15162,108.60209"
           transform="matrix(0.968573,0,0,0.968573,452.6747,-228.8018)"
           id="path2257"
           style="fill:#89c5e3;fill-opacity:1;stroke:none" />
      </g>
      <path
         id="path1367"
         style="fill:#ffc694;fill-opacity:1;fill-rule:evenodd;stroke:#000000;stroke-width:0.560881px;stroke-linecap:butt;stroke-linejoin:miter;stroke-opacity:1"
         d="m 111.92578,117.72266 c -10.07745,11.48856 -16.042947,26.6252 -15.568358,43.08398 0.468225,16.239 7.130158,30.82361 17.605468,41.66992 1.71319,1.7181 3.48818,3.37942 5.4082,4.91016 0.0557,0.1091 0.0947,0.14061 0.14844,0.24023 0.68783,0.55901 1.40188,1.08143 2.11328,1.61133 0.76853,-0.94792 0.82382,-4.32652 0.61328,-5.92578 0.016,-5.56532 -2.26311,-10.87545 -4.88086,-15.50195 1.56301,-5.50695 0.90083,-11.23595 2.03516,-16.79493 2.9531,-4.39591 3.8237,-9.88151 5.42188,-14.74414 3.74943,-5.48702 9.20867,-1.02875 13.24023,1.27149 4.4281,2.95649 9.51459,4.48342 14.58008,6.4707 5.4162,0.71307 10.45056,3.58134 16.0918,2.875 4.91825,-2.99264 11.02767,-0.16031 16.26367,-2.08594 6.0532,-1.44498 10.67188,2.9756 16.6875,1.84571 5.32702,0.34965 10.42477,-0.89622 15.2207,-2.84571 4.75807,0.93071 5.43518,-5.76673 3.07617,-7.63867 -0.066,-0.28266 -0.17405,-0.5208 -0.3164,-0.7207 -0.14241,-0.1999 -0.31955,-0.36062 -0.5254,-0.49024 -0.20589,-0.12961 -0.44077,-0.22699 -0.69726,-0.29882 -0.25644,-0.0718 -0.53394,-0.118 -0.82813,-0.14453 -0.29418,-0.0268 -0.60479,-0.0336 -0.92382,-0.0274 -0.31903,0.006 -0.64749,0.0262 -0.97852,0.0527 -0.33103,0.0265 -0.66406,0.0594 -0.99414,0.0937 -0.33013,0.0344 -0.65638,0.0699 -0.97266,0.0996 -0.31633,0.0297 -0.62241,0.0539 -0.91211,0.0664 -0.28963,0.0125 -0.5643,0.0133 -0.81445,-0.004 -0.25015,-0.0172 -0.47606,-0.0539 -0.67383,-0.11329 -0.19771,-0.0593 -0.36752,-0.14184 -0.5,-0.25585 -0.13248,-0.11402 -0.22879,-0.25829 -0.2832,-0.43946 -0.0544,-0.18117 -0.0663,-0.39933 -0.0293,-0.66015 0.0367,-0.26083 0.42612,-0.35859 0.71289,-0.63282 0.37047,-0.35423 0.77081,-0.63606 0.14453,-1.49804 -3.66507,-1.28643 -8.58259,2.36318 -12.53124,3.625 -5.17873,0.86959 -11.45016,1.32151 -16.05079,-1.56055 -5.72542,-1.30243 -11.82462,0.31822 -17.57421,-1.25977 -5.809,-0.93888 -5.97225,-8.8171 -12.16993,-9.48242 -3.98012,-3.47056 -10.28715,-3.43298 -12.12695,-9.17383 -4.51683,-3.28703 -8.98424,-6.52598 -14.73047,-6.70703 -6.00243,-0.47412 -10.03509,-5.30179 -14.28125,-8.91015 z"
         transform="matrix(1.7829088,0,0,1.7829088,1076.5209,36.915835)" />
      <path
         d="m 1064.2739,435.57895 c 0,1.05103 -11.7283,1.90707 -26.3244,1.92197 -14.5961,0.0149 -26.6534,-0.81687 -27.0706,-1.86746 -0.4173,-1.0506 10.96,-1.93062 25.5441,-1.9758 14.5841,-0.0452 26.9692,0.76122 27.8069,1.81051"
         transform="matrix(0.404,0,0,0.277778,1040.132,196.0057)"
         id="path1370"
         style="fill:#000000;fill-opacity:1;stroke:none" />
      <path
         d="m 1064.2739,435.57895 c 0,1.05103 -11.7283,1.90707 -26.3244,1.92197 -14.5961,0.0149 -26.6534,-0.81687 -27.0706,-1.86746 -0.4173,-1.0506 10.96,-1.93062 25.5441,-1.9758 14.5841,-0.0452 26.9692,0.76122 27.8069,1.81051"
         transform="matrix(0.404,0,0,0.277778,1040.044,200.9449)"
         id="path1372"
         style="fill:#000000;fill-opacity:1;stroke:none" />
      <path
         d="m 1064.2739,435.57895 c 0,1.05103 -11.7283,1.90707 -26.3244,1.92197 -14.5961,0.0149 -26.6534,-0.81687 -27.0706,-1.86746 -0.4173,-1.0506 10.96,-1.93062 25.5441,-1.9758 14.5841,-0.0452 26.9692,0.76122 27.8069,1.81051"
         transform="matrix(0.364,0,0,0.277778,1083.318,205.2433)"
         id="path1374"
         style="fill:#000000;fill-opacity:1;stroke:none" />
      <path
         d="m 1452.0227,310.89986 c 0.141,0.41253 -3.9997,2.0986 -8.9019,4.76631 -4.9024,2.66775 -7.7059,7.1721 -7.8468,6.75956 -0.141,-0.41254 2.7103,-4.77268 7.6126,-7.44041 4.7223,-2.56982 8.6991,-4.36916 9.1068,-4.1205"
         id="path1376"
         style="fill:#000000;fill-opacity:1;stroke:none" />
      <path
         d="m 1287.8318,329.48223 c -10.5557,12.6933 -30.3451,13.22191 -34.6971,9.60281 -4.3521,-3.61909 12.6458,-0.62267 23.2015,-13.31598 10.5556,-12.69331 18.382,-23.90318 22.734,-20.28408 4.1923,3.48629 2.7508,1.70843 -7.159,14.11637"
         id="path1379"
         style="fill:#ff9c6b;fill-opacity:1;stroke:none" />
    </g>
    <g
       transform="matrix(0.2337005,0,0,0.2337005,285.48558,301.16601)"
       id="g5274">
      <path
         d="m 381.03087,716.27233 2.39361,-3.66589 3.17658,-2.01718 3.39338,1.90718 1.9007,3.58885 1.90921,14.17433 -3.72071,-3.41244 -3.23225,-1.45917 -3.63726,1.72525 -3.45591,3.38152 z"
         id="rect4392"
         style="fill:#000000;fill-opacity:1;stroke:none" />
      <path
         d="m 381.03088,758.77791 2.39361,3.66589 3.17658,2.01718 3.39338,-1.90718 1.9007,-3.58885 1.90921,-14.17433 -3.72071,3.41244 -3.23225,1.45917 -3.63726,-1.72525 -3.45591,-3.38152 z"
         id="path5268"
         style="fill:#000000;fill-opacity:1;stroke:none" />
      <path
         d="m 408.14088,731.6679 3.66589,2.39361 2.01718,3.17658 -1.90718,3.39338 -3.58885,1.9007 -14.17433,1.90921 3.41244,-3.72071 1.45917,-3.23225 -1.72525,-3.63726 -3.38152,-3.45591 z"
         id="path5270"
         style="fill:#000000;fill-opacity:1;stroke:none" />
      <path
         d="m 365.63532,742.95509 -3.66589,-2.39361 -2.01719,-3.17658 1.90719,-3.39338 3.58885,-1.9007 14.17432,-1.90921 -3.41244,3.72071 -1.45916,3.23225 1.72524,3.63726 3.38153,3.45591 z"
         id="path5272"
         style="fill:#000000;fill-opacity:1;stroke:none" />
    </g>
  </g>
</svg>
