<?xml version="1.0" encoding="UTF-8"?>
<svg id="Capa_1" data-name="Capa 1" xmlns="http://www.w3.org/2000/svg" viewBox="0 0 800 500">
  <defs>
    <style>
      .cls-1 {
        stroke-width: 1.5px;
      }

      .cls-1, .cls-2, .cls-3, .cls-4, .cls-5, .cls-6 {
        fill: #f6b40e;
        stroke: #85340a;
      }

      .cls-2 {
        stroke-miterlimit: 4;
      }

      .cls-2, .cls-3 {
        stroke-width: 1.11px;
      }

      .cls-3 {
        stroke-miterlimit: 4;
      }

      .cls-4 {
        stroke-miterlimit: 4;
        stroke-width: 1.11px;
      }

      .cls-5 {
        stroke-miterlimit: 4;
        stroke-width: 1.11px;
      }

      .cls-7 {
        fill: #fff;
      }

      .cls-8 {
        fill: #3b3481;
      }

      .cls-9 {
        fill: #85340a;
      }

      .cls-10 {
        fill: #843511;
      }

      .cls-6 {
        stroke-width: 1.11px;
      }
    </style>
  </defs>
  <rect class="cls-8" width="800" height="500"/>
  <rect class="cls-7" y="166.67" width="800" height="166.67"/>
  <g id="rays">
    <path id="ray1" class="cls-6" d="m396.84,251.31l28.45,61.99s.49,1.19,1.28.86c.79-.33.3-1.51.3-1.51l-23.71-63.96m-.68,24.12c-.35,9.43,5.45,14.61,4.69,23.03-.76,8.42,3.87,13.18,4.94,16.45,1.07,3.27-1.16,5.23-.2,5.7.96.47,3.07-2.12,2.38-6.78-.69-4.65-4.22-6.04-3.39-16.32.83-10.28-4.21-12.68-2.98-22.06"/>
    <path id="ray1-2" data-name="ray1" class="cls-3" d="m396.58,250l2.56,68.16s0,1.28.85,1.28c.86,0,.85-1.28.85-1.28l2.57-68.16m-9.86,22.02c-3.93,8.58-.55,15.59-4.48,23.07-3.92,7.49-1.47,13.66-1.73,17.09-.26,3.44-3.07,4.39-2.36,5.19.71.8,3.65-.78,4.79-5.35,1.15-4.56-1.59-7.19,3.11-16.38,4.7-9.18.97-13.32,5.69-21.52"/>
    <path id="ray1-3" data-name="ray1" class="cls-5" d="m396.84,248.69l-23.71,63.95s-.49,1.18.3,1.51c.79.33,1.28-.86,1.28-.86l28.45-61.99m-17.54,16.57c-6.91,6.42-6.48,14.19-12.97,19.61-6.49,5.42-6.58,12.05-8.14,15.13-1.56,3.07-4.52,2.88-4.17,3.89.35,1.01,3.67.67,6.48-3.11,2.81-3.78,1.28-7.25,9.14-13.94,7.86-6.68,5.99-11.94,13.49-17.7"/>
    <path id="ray1-4" data-name="ray1" class="cls-2" d="m397.58,247.58l-46.38,50.01s-.91.91-.3,1.51c.6.61,1.51-.3,1.51-.3l50.01-46.38m-22.54,8.6c-8.84,3.29-11.41,10.63-19.48,13.15-8.07,2.52-10.7,8.62-13.31,10.86-2.61,2.24-5.28.93-5.34,2-.06,1.07,3.13,2.02,7.17-.39,4.04-2.42,3.96-6.21,13.78-9.38,9.82-3.17,10.1-8.74,19.24-11.19"/>
    <path id="ray2" class="cls-9" d="m404.31,274.41c.45,9.05,5.59,13.06,4.58,21.31,2.21-6.52-3.12-11.58-2.82-21.22m-7.65-23.76l19.49,42.58-16.33-43.89"/>
    <path id="ray2-2" data-name="ray2" class="cls-9" d="m394.64,274.2c-3.05,8.54.16,14.21-3.93,21.44,4.54-5.18,1.55-11.9,5.52-20.68m2.02-24.88l1.71,46.79,1.71-46.8"/>
    <path id="ray2-3" data-name="ray2" class="cls-9" d="m385.79,270.31c-6.08,6.72-5.29,13.19-11.83,18.31,6.18-3.05,5.98-10.4,13.01-17m11.39-22.21l-16.33,43.89,19.49-42.58"/>
    <path id="ray2-4" data-name="ray2" class="cls-9" d="m379.1,263.32c-8.19,3.88-9.93,10.16-17.94,12.39,6.88-.45,9.51-7.32,18.53-10.73m19.02-16.16l-31.88,34.3,34.3-31.88"/>
  </g>
  <g id="rays-2" data-name="rays">
    <path id="ray1-5" data-name="ray1" class="cls-6" d="m398.69,246.84l-61.99,28.45s-1.19.49-.86,1.28c.33.79,1.51.3,1.51.3l63.96-23.71m-24.12-.68c-9.43-.35-14.61,5.45-23.03,4.69-8.42-.76-13.18,3.87-16.45,4.94-3.27,1.07-5.23-1.16-5.7-.2-.47.96,2.12,3.07,6.78,2.38,4.65-.69,6.04-4.22,16.32-3.39,10.28.83,12.68-4.21,22.06-2.98"/>
    <path id="ray1-6" data-name="ray1" class="cls-2" d="m400,246.58l-68.16,2.56s-1.28,0-1.28.85c0,.86,1.28.85,1.28.85l68.16,2.57m-22.02-9.86c-8.58-3.93-15.59-.55-23.07-4.48-7.49-3.92-13.66-1.47-17.09-1.73-3.44-.26-4.39-3.07-5.19-2.36-.8.71.78,3.65,5.35,4.79,4.56,1.15,7.19-1.59,16.38,3.11,9.18,4.7,13.32.97,21.52,5.69"/>
    <path id="ray1-7" data-name="ray1" class="cls-5" d="m401.31,246.84l-63.95-23.71s-1.18-.49-1.51.3c-.33.79.86,1.28.86,1.28l61.99,28.45m-16.57-17.54c-6.42-6.91-14.19-6.48-19.61-12.97-5.42-6.49-12.05-6.58-15.13-8.14-3.07-1.56-2.88-4.52-3.89-4.17-1.01.35-.67,3.67,3.11,6.48,3.78,2.81,7.25,1.28,13.94,9.14,6.68,7.86,11.94,5.99,17.7,13.49"/>
    <path id="ray1-8" data-name="ray1" class="cls-3" d="m402.42,247.58l-50.01-46.38s-.91-.91-1.51-.3c-.61.6.3,1.51.3,1.51l46.38,50.01m-8.6-22.54c-3.29-8.84-10.63-11.41-13.15-19.48-2.52-8.07-8.62-10.7-10.86-13.31-2.24-2.61-.93-5.28-2-5.34-1.07-.06-2.02,3.13.39,7.17,2.42,4.04,6.21,3.96,9.38,13.78,3.17,9.82,8.74,10.1,11.19,19.24"/>
    <path id="ray2-5" data-name="ray2" class="cls-9" d="m375.59,254.31c-9.05.45-13.06,5.59-21.31,4.58,6.52,2.21,11.58-3.12,21.22-2.82m23.76-7.65l-42.58,19.49,43.89-16.33"/>
    <path id="ray2-6" data-name="ray2" class="cls-9" d="m375.8,244.64c-8.54-3.05-14.21.16-21.44-3.93,5.18,4.54,11.9,1.55,20.68,5.52m24.88,2.02l-46.79,1.71,46.8,1.71"/>
    <path id="ray2-7" data-name="ray2" class="cls-9" d="m379.69,235.79c-6.72-6.08-13.19-5.29-18.31-11.83,3.05,6.18,10.4,5.98,17,13.01m22.21,11.39l-43.89-16.33,42.58,19.49"/>
    <path id="ray2-8" data-name="ray2" class="cls-9" d="m386.68,229.1c-3.88-8.19-10.16-9.93-12.39-17.94.45,6.88,7.32,9.51,10.73,18.53m16.16,19.02l-34.3-31.88,31.88,34.3"/>
  </g>
  <g id="rays-3" data-name="rays">
    <path id="ray1-9" data-name="ray1" class="cls-6" d="m403.16,248.69l-28.45-61.99s-.49-1.19-1.28-.86c-.79.33-.3,1.51-.3,1.51l23.71,63.96m.68-24.12c.35-9.43-5.45-14.61-4.69-23.03.76-8.42-3.87-13.18-4.94-16.45-1.07-3.27,1.16-5.23.2-5.7-.96-.47-3.07,2.12-2.38,6.78.69,4.65,4.22,6.04,3.39,16.32-.83,10.28,4.21,12.68,2.98,22.06"/>
    <path id="ray1-10" data-name="ray1" class="cls-3" d="m403.42,250l-2.56-68.16s0-1.28-.85-1.28c-.86,0-.85,1.28-.85,1.28l-2.57,68.16m9.86-22.02c3.93-8.58.55-15.59,4.48-23.07,3.92-7.49,1.47-13.66,1.73-17.09.26-3.44,3.07-4.39,2.36-5.19-.71-.8-3.65.78-4.79,5.35-1.15,4.56,1.59,7.19-3.11,16.38-4.7,9.18-.97,13.32-5.69,21.52"/>
    <path id="ray1-11" data-name="ray1" class="cls-5" d="m403.16,251.31l23.71-63.95s.49-1.18-.3-1.51c-.79-.33-1.28.86-1.28.86l-28.45,61.99m17.54-16.57c6.91-6.42,6.48-14.19,12.97-19.61,6.49-5.42,6.58-12.05,8.14-15.13,1.56-3.07,4.52-2.88,4.17-3.89-.35-1.01-3.67-.67-6.48,3.11-2.81,3.78-1.28,7.25-9.14,13.94-7.86,6.68-5.99,11.94-13.49,17.7"/>
    <path id="ray1-12" data-name="ray1" class="cls-2" d="m402.42,252.42l46.38-50.01s.91-.91.3-1.51c-.6-.61-1.51.3-1.51.3l-50.01,46.38m22.54-8.6c8.84-3.29,11.41-10.63,19.48-13.15,8.07-2.52,10.7-8.62,13.31-10.86,2.61-2.24,5.28-.93,5.34-2,.06-1.07-3.13-2.02-7.17.39-4.04,2.42-3.96,6.21-13.78,9.38-9.82,3.17-10.1,8.74-19.24,11.19"/>
    <path id="ray2-9" data-name="ray2" class="cls-9" d="m395.69,225.59c-.45-9.05-5.59-13.06-4.58-21.31-2.21,6.52,3.12,11.58,2.82,21.22m7.65,23.76l-19.49-42.58,16.33,43.89"/>
    <path id="ray2-10" data-name="ray2" class="cls-9" d="m405.36,225.8c3.05-8.54-.16-14.21,3.93-21.44-4.54,5.18-1.55,11.9-5.52,20.68m-2.02,24.88l-1.71-46.79-1.71,46.8"/>
    <path id="ray2-11" data-name="ray2" class="cls-9" d="m414.21,229.69c6.08-6.72,5.29-13.19,11.83-18.31-6.18,3.05-5.98,10.4-13.01,17m-11.39,22.21l16.33-43.89-19.49,42.58"/>
    <path id="ray2-12" data-name="ray2" class="cls-9" d="m420.9,236.68c8.19-3.88,9.93-10.16,17.94-12.39-6.88.45-9.51,7.32-18.53,10.73m-19.02,16.16l31.88-34.3-34.3,31.88"/>
  </g>
  <g id="rays-4" data-name="rays">
    <path id="ray1-13" data-name="ray1" class="cls-6" d="m401.31,253.16l61.99-28.45s1.19-.49.86-1.28c-.33-.79-1.51-.3-1.51-.3l-63.96,23.71m24.12.68c9.43.35,14.61-5.45,23.03-4.69,8.42.76,13.18-3.87,16.45-4.94,3.27-1.07,5.23,1.16,5.7.2.47-.96-2.12-3.07-6.78-2.38-4.65.69-6.04,4.22-16.32,3.39-10.28-.83-12.68,4.21-22.06,2.98"/>
    <path id="ray1-14" data-name="ray1" class="cls-4" d="m400,253.42l68.16-2.56s1.28,0,1.28-.85c0-.86-1.28-.85-1.28-.85l-68.16-2.57m22.02,9.86c8.58,3.93,15.59.55,23.07,4.48,7.49,3.92,13.66,1.47,17.09,1.73,3.44.26,4.39,3.07,5.19,2.36.8-.71-.78-3.65-5.35-4.79-4.56-1.15-7.19,1.59-16.38-3.11-9.18-4.7-13.32-.97-21.52-5.69"/>
    <path id="ray1-15" data-name="ray1" class="cls-5" d="m398.69,253.16l63.95,23.71s1.18.49,1.51-.3c.33-.79-.86-1.28-.86-1.28l-61.99-28.45m16.57,17.54c6.42,6.91,14.19,6.48,19.61,12.97,5.42,6.49,12.05,6.58,15.13,8.14,3.07,1.56,2.88,4.52,3.89,4.17,1.01-.35.67-3.67-3.11-6.48-3.78-2.81-7.25-1.28-13.94-9.14-6.68-7.86-11.94-5.99-17.7-13.49"/>
    <path id="ray1-16" data-name="ray1" class="cls-3" d="m397.58,252.42l50.01,46.38s.91.91,1.51.3c.61-.6-.3-1.51-.3-1.51l-46.38-50.01m8.6,22.54c3.29,8.84,10.63,11.41,13.15,19.48,2.52,8.07,8.62,10.7,10.86,13.31,2.24,2.61.93,5.28,2,5.34,1.07.06,2.02-3.13-.39-7.17-2.42-4.04-6.21-3.96-9.38-13.78-3.17-9.82-8.74-10.1-11.19-19.24"/>
    <path id="ray2-13" data-name="ray2" class="cls-9" d="m424.41,245.69c9.05-.45,13.06-5.59,21.31-4.58-6.52-2.21-11.58,3.12-21.22,2.82m-23.76,7.65l42.58-19.49-43.89,16.33"/>
    <path id="ray2-14" data-name="ray2" class="cls-9" d="m424.2,255.36c8.54,3.05,14.21-.16,21.44,3.93-5.18-4.54-11.9-1.55-20.68-5.52m-24.88-2.02l46.79-1.71-46.8-1.71"/>
    <path id="ray2-15" data-name="ray2" class="cls-9" d="m420.31,264.21c6.72,6.08,13.19,5.29,18.31,11.83-3.05-6.18-10.4-5.98-17-13.01m-22.21-11.39l43.89,16.33-42.58-19.49"/>
    <path id="ray2-16" data-name="ray2" class="cls-9" d="m413.32,270.9c3.88,8.19,10.16,9.93,12.39,17.94-.45-6.88-7.32-9.51-10.73-18.53m-16.16-19.02l34.3,31.88-31.88-34.3"/>
  </g>
  <circle class="cls-1" cx="400" cy="250" r="27.78"/>
  <path id="loweyecontour" class="cls-10" d="m409.47,244.06c-1.9,0-3.71.82-4.78,2.53,2.14,1.92,6.86,2.13,10.06-.22-1.39-1.5-3.38-2.31-5.28-2.31Zm-.03.44c1.85-.03,3.57.81,3.81,1.66-2.14,2.35-5.55,2.15-7.69.44.93-1.5,2.44-2.07,3.88-2.09Z"/>
  <path id="uppalpebra" class="cls-9" d="m409.83,242.74c-2.78,0-3.42.64-4.7,1.71-1.28,1.07-1.92.85-2.14,1.07-.21.21,0,.85.43.64s1.28-.64,2.56-1.71c1.28-1.07,2.56-1.07,3.85-1.07,3.85,0,5.98,3.2,6.41,2.99.43-.21-2.14-3.63-6.41-3.63h0Z"/>
  <path id="eyebrow_nose" data-name="eyebrow nose" class="cls-9" d="m417.52,244.02c-4.91-4.27-11.11-4.91-14.53-1.71-.84,1.12-1.37,2.32-1.59,3.57-.43,2.43.33,5.06,2.24,7.76-.22,0-.64.21-.86.43-1.7-3.24-2.3-6.58-1.74-9.75.15-.83.37-1.64.67-2.44,4.7-3.85,11.11-4.27,15.81,2.14h0Z"/>
  <circle id="pupil" class="cls-9" cx="409.4" cy="246.15" r="1.92"/>
  <path id="lowpalpebra" class="cls-9" d="m414.96,247.44c-3.63,2.78-7.26,2.56-9.4,1.28-2.14-1.28-2.14-1.71-1.71-1.71s.85.43,2.56,1.28c1.71.86,4.27.86,8.55-.85h0Z"/>
  <path class="cls-9" d="m395.75,253.84c-.91.17-1.56.98-1.56,1.91,0,1.06.88,1.91,1.94,1.91.63,0,1.2-.3,1.56-.81.74.56,1.76.62,2.31.62.08,0,.19,0,.25,0,.55-.01,1.57-.07,2.31-.62.36.52.94.81,1.56.81,1.06,0,1.94-.84,1.94-1.91,0-.93-.65-1.74-1.56-1.91.51.18.84.68.84,1.22,0,.71-.57,1.28-1.28,1.28s-1.24-.54-1.28-1.22c-.21.42-1.03,1.66-2.66,1.72-1.62-.06-2.45-1.3-2.66-1.72-.04.68-.6,1.22-1.28,1.22s-1.28-.57-1.28-1.28c0-.54.33-1.04.84-1.22Z"/>
  <path class="cls-9" d="m397.84,259.53c-2.14,0-2.98,1.94-4.91,3.22,1.07-.43,1.91-1.27,3.41-2.12,1.5-.85,2.77.19,3.62.19h.03c.85,0,2.13-1.04,3.62-.19,1.5.86,2.37,1.7,3.44,2.12-1.92-1.28-2.8-3.22-4.94-3.22-.43,0-1.27.23-2.12.66h-.03c-.85-.43-1.7-.66-2.12-.66Z"/>
  <path class="cls-9" d="m397.12,262.06c-.84.04-1.96.21-3.56.69,3.85-.85,4.7.44,6.41.44h.03c1.71,0,2.56-1.29,6.41-.44-4.27-1.28-5.12-.44-6.41-.44h-.03c-.8,0-1.44-.31-2.84-.25Z"/>
  <path class="cls-9" d="m393.75,262.72c-.25,0-.52,0-.81.03,4.49.43,2.33,3,7.03,3h.03c4.7,0,2.57-2.57,7.06-3-4.7-.43-3.21,2.34-7.06,2.34h-.03c-3.61,0-2.5-2.42-6.22-2.38h0Z"/>
  <path class="cls-9" d="m403.85,269.66c0-2.12-1.72-3.85-3.85-3.85s-3.85,1.72-3.85,3.85c.42-1.78,2.02-3.04,3.85-3.04s3.42,1.26,3.85,3.04m0,0h0Z"/>
  <path id="eyebrow_nose-2" data-name="eyebrow nose" class="cls-9" d="m382.73,244.02c4.91-4.27,11.11-4.91,14.53-1.71.84,1.12,1.37,2.32,1.59,3.57.43,2.43-.33,5.06-2.24,7.76.22,0,.64.21.86.43,1.7-3.24,2.3-6.58,1.74-9.75-.15-.83-.37-1.64-.67-2.44-4.7-3.85-11.11-4.27-15.81,2.14h0Z"/>
  <path id="uppalpebra-2" data-name="uppalpebra" class="cls-9" d="m390.42,242.74c2.78,0,3.42.64,4.7,1.71,1.28,1.07,1.92.85,2.14,1.07.21.21,0,.85-.43.64s-1.28-.64-2.56-1.71c-1.28-1.07-2.56-1.07-3.85-1.07-3.85,0-5.98,3.2-6.41,2.99-.43-.21,2.14-3.63,6.41-3.63h0Z"/>
  <path id="loweyecontour-2" data-name="loweyecontour" class="cls-10" d="m390.29,244.06c-1.9,0-3.71.82-4.78,2.53,2.14,1.92,6.86,2.13,10.06-.22-1.39-1.5-3.38-2.31-5.28-2.31Zm-.03.44c1.85-.03,3.57.81,3.81,1.66-2.14,2.35-5.55,2.15-7.69.44.93-1.5,2.44-2.07,3.88-2.09Z"/>
  <circle id="pupil-2" data-name="pupil" class="cls-9" cx="390.54" cy="246.15" r="1.92"/>
  <path id="lowpalpebra-2" data-name="lowpalpebra" class="cls-9" d="m385.29,247.44c3.63,2.78,7.26,2.56,9.4,1.28,2.14-1.28,2.14-1.71,1.71-1.71s-.85.43-2.56,1.28c-1.71.86-4.27.86-8.55-.85h0Z"/>
</svg>