<?xml version="1.0" encoding="UTF-8" standalone="no"?>
<svg width="720" height="440" viewBox="0 0 540 330" version="1.1" id="svg7855" xmlns:xlink="http://www.w3.org/1999/xlink" xmlns="http://www.w3.org/2000/svg" xmlns:svg="http://www.w3.org/2000/svg">
<style id="style7783">
<![CDATA[.B{fill:none}.C{stroke-width:.1}.D{stroke-miterlimit:10}.E{stroke:rgb(80.000007%,0%,0%)}.F{fill:#bf0a22}.G{stroke:rgb(100%,100%,100%)}.H{fill:rgb(100%,100%,100%)}]]></style>
<defs id="defs7791">
<clipPath id="A">
<path d="M 0,0 H 570 V 349 H 0 Z" id="path7785" />
</clipPath>
<path id="B" d="m 0,0 h 189.995 l 0.005,27 -0.005,26 0.003,28 -10e-4,27 v 28 l 0.002,26 0.001,26.999 C 126.667,189.003 63.335,188.998 0.001,189 V 0 Z m 0,0" />
<path id="C" d="m 71.013,14.027 46.984,0.001 0.016,56.973 55.949,0.014 0.009,46.986 c -18.655,-0.021 -37.308,0.011 -55.961,0.014 l -0.026,55.948 -46.986,0.009 -0.014,-55.958 -56.959,-0.028 10e-4,-46.984 56.97,-0.016 0.016,-56.96 z m 0,0" />
<path id="D" d="m 0,241 h 570 v 27 c -190.001,0 -380,0 -570,0 z m 0,0" />
</defs>
<path d="M 0.00191033,0 H 539.97232 v 25.523016 c -179.98824,0 -359.97507,0 -539.96331842,0 L 0,0 Z m 0,0" class="F" id="path7799" style="stroke-width:1.15898" />
<path d="M 0.00709124,25.584256 H 539.97041 V 50.161977 H 0 Z m 0,0" class="H" id="path7807" style="stroke-width:1.15898" />
<path d="M 0,50.161977 H 539.97041 V 76.63029 c -179.98967,0 -359.97791,0 -539.96614925,0 z m 0,0" class="F" id="path7811" style="stroke-width:1.15898" />
<path d="M 0.0028505,76.63029 H 539.969 v 25.52303 c -179.99109,0 -359.97934,0 -539.969,0 L 0.00100018,76.63029 Z m 0,0" class="H" id="path7815" style="stroke-width:1.15898" />
<path d="m 0,102.15332 h 539.969 v 26.4683 c -179.99109,0 -359.97934,0 -539.969,0 z m 0,0" class="F" id="path7819" style="stroke-width:1.15898" />
<path d="m 0,128.62162 h 539.969 v 24.57772 c -179.98967,0 -359.97791,0 -539.9661495,0 z m 0,0" class="H" id="path7823" style="stroke-width:1.15898" />
<path d="m 0,153.19934 h 539.96615 v 25.52301 c -179.98967,-9.4e-4 -359.97649,0.002 -539.96472975,-9.4e-4 z m 0,0" class="F" id="path7827" style="stroke-width:1.15898" />
<path d="m 0,203.3144 h 540.00019 v 24.5808 c -180.00102,0 -360.00013,0 -540.00019,0 z m 0,0" class="F" id="path7835" style="stroke-width:0.946392" />
<use xlink:href="#D" class="H" id="use7839" x="0" y="0" width="100%" height="100%" transform="matrix(0.94736873,0,0,0.94541582,0,0.05000701)" />
<path d="m 0,253.42144 h 540.00019 v 26.47164 c -180.00102,0 -360.00013,0 -540.00019,0 z m 0,0" class="F" id="path7843" style="stroke-width:0.946392" />
<path d="m 0,279.89308 h 540.00019 v 25.52623 c -180.00102,0 -360.00013,0 -540.00019,0 z m 0,0" class="H" id="path7847" style="stroke-width:0.946392" />
<path d="m 0,305.41931 h 540.00019 v 24.5808 H 0 Z m 0,0" class="F" id="path7851" style="stroke-width:0.946392" />
<use xlink:href="#B" fill="#002868" id="use7795-9" x="0" y="0" width="100%" height="100%" transform="scale(0.94342138,0.94841001)" />
<use xlink:href="#C" class="H" id="use7803-4" x="0" y="0" width="100%" height="100%" transform="matrix(0.94342138,0,0,0.94841001,0.06976976,-0.00114418)" style="fill:#ffffff" />
<path d="m 0,178.7335 179.99912,-9.4e-4 360.00107,9.4e-4 v 24.58081 c -180.00102,0 -360.00013,0 -540.00019,0 z m 0,0" class="H" id="path7831-9" style="fill:#ffffff;stroke-width:0.946392" />
</svg>