<?xml version="1.0" encoding="utf-8"?>
<!-- Generator: Adobe Illustrator 15.1.0, SVG Export Plug-In . SVG Version: 6.00 Build 0)  -->
<!DOCTYPE svg PUBLIC "-//W3C//DTD SVG 1.1//EN" "http://www.w3.org/Graphics/SVG/1.1/DTD/svg11.dtd">
<svg version="1.1" id="레이어_1" xmlns="http://www.w3.org/2000/svg" xmlns:xlink="http://www.w3.org/1999/xlink" x="0px"
	 y="0px" width="850.39px" height="566.93px" viewBox="0 0 850.39 566.93" enable-background="new 0 0 850.39 566.93"
	 xml:space="preserve">
<rect fill="#FFFFFF" width="850.39" height="566.93"/>
<circle fill="#D9241D" cx="425.195" cy="283.464" r="144.194"/>
<g>
	<g>
		<path fill="#29176E" d="M386.514,144.526c1.433-0.344,3.609-0.9,6.389-1.621C390.754,143.396,388.625,143.94,386.514,144.526z"/>
		<path fill="#29176E" d="M551.869,313.938c0.975-31.164-13.967-59.933-17.221-66.058c-28.369-53.408-95.602-55.535-99.895-55.406
			c-39.959,1.198-59.443,29.433-59.139,52.346c0.311,23.492,18.216,36.588,34.764,36.762c47.549,0.496,62.334,17.21,62.334,45.552
			c0,15.584-13.926,47.949-59.937,47.949c-61.137,0-111.484-48.35-111.484-119.675c0-27.558,7.61-52.758,20.192-72.11
			c-25.061,25.94-40.483,61.251-40.483,100.168c0,79.635,64.558,144.194,144.194,144.194c44.842,0,84.902-20.471,111.35-52.576
			C549.215,348.051,551.07,339.51,551.869,313.938z"/>
	</g>
</g>
<rect x="211.245" y="58.002" transform="matrix(0.7601 0.6498 -0.6498 0.7601 123.363 -117.7048)" fill="#29176E" width="19.696" height="100.439"/>
<rect x="219.037" y="139.552" transform="matrix(0.6498 -0.7601 0.7601 0.6498 -19.2695 256.9713)" fill="#29176E" width="100.439" height="19.695"/>
<rect x="234.867" y="78.591" transform="matrix(0.7601 0.6498 -0.6498 0.7601 142.5226 -128.416)" fill="#29176E" width="20.616" height="100.439"/>
<rect x="619.45" y="58.002" transform="matrix(-0.7601 0.6498 -0.6498 -0.7601 1177.9509 -218.4392)" fill="#29176E" width="19.696" height="100.439"/>
<rect x="530.913" y="139.551" transform="matrix(-0.6498 -0.7601 0.7601 -0.6498 845.2198 688.1878)" fill="#29176E" width="100.44" height="19.695"/>
<g>
	<polygon fill="#29176E" points="609.528,117.992 580.415,83.941 564.747,97.337 593.841,131.367 	"/>
	<polygon fill="#29176E" points="616.589,126.251 600.901,139.626 630.015,173.68 645.685,160.283 	"/>
</g>
<g>
	<polygon fill="#29176E" points="592.19,419.752 621.253,385.759 606.282,372.961 577.19,406.99 	"/>
	
		<rect x="540.652" y="428.823" transform="matrix(0.6498 -0.7601 0.7601 0.6498 -136.2559 581.5839)" fill="#29176E" width="44.817" height="19.694"/>
</g>
<g>
	<polygon fill="#29176E" points="225.03,448.159 195.944,414.138 180.974,426.936 210.043,460.938 	"/>
	<polygon fill="#29176E" points="217.104,469.196 246.242,503.278 261.212,490.48 232.091,456.418 	"/>
</g>
<rect x="234.868" y="387.899" transform="matrix(0.7601 -0.6498 0.6498 0.7601 -225.877 264.4274)" fill="#29176E" width="20.616" height="100.44"/>
<g>
	<polygon fill="#29176E" points="273.249,407.046 244.108,372.961 229.139,385.759 258.263,419.823 	"/>
	<polygon fill="#29176E" points="280.31,415.305 265.323,428.082 294.407,462.101 309.376,449.303 	"/>
</g>
<g>
	
		<rect x="564.735" y="448.951" transform="matrix(0.6498 -0.7601 0.7601 0.6498 -143.4744 607.0876)" fill="#29176E" width="44.816" height="20.614"/>
	<polygon fill="#29176E" points="616.671,440.582 645.685,406.646 630.015,393.25 600.97,427.223 	"/>
</g>
<g>
	<polygon fill="#29176E" points="640.452,460.815 669.417,426.936 654.446,414.138 625.452,448.053 	"/>
	
		<rect x="588.817" y="469.999" transform="matrix(0.6498 -0.7601 0.7601 0.6498 -150.6883 632.6127)" fill="#29176E" width="44.817" height="19.695"/>
</g>
</svg>
