<svg height="600" width="1200" xmlns="http://www.w3.org/2000/svg" xmlns:xlink="http://www.w3.org/1999/xlink"><clipPath id="c1"><path d="m0 0h650v350h0-650z"/></clipPath><clipPath id="c2"><path d="m0 0v150h700v150h-100zm0 300v50h300v-350h300z"/></clipPath><path d="m0 0h1200v600h-1200z" fill="#012169"/><path clip-path="url(#c1)" d="m0 0 600 300m0-300-600 300" stroke="#fff" stroke-width="60"/><path clip-path="url(#c2)" d="m0 0 600 300m0-300-600 300" stroke="#c8102e" stroke-width="40"/><path d="m0 150h700m-400-150v350" stroke="#fff" stroke-width="100"/><path d="m0 150h700m-400-150v350" stroke="#c8102e" stroke-width="60"/><path d="m0 300h600v-300h600v600h-1200z" fill="#009cde"/><g fill="#fedd00"><path d="m555.613 324.281 70.832-.051-57.341 41.582 21.937 67.349-57.267-41.685-57.273 41.675 21.948-67.345-57.334-41.592 70.831.064 21.839-67.381z" transform="matrix(.60325829 0 0 .56772541 756.40895 -139.42161)"/><path d="m555.613 324.281 70.832-.051-57.341 41.582 21.937 67.349-57.267-41.685-57.273 41.675 21.948-67.345-57.334-41.592 70.831.064 21.839-67.381z" transform="matrix(.60325829 0 0 .56772541 645.54491 147.10416)"/><path d="m555.613 324.281 70.832-.051-57.341 41.582 21.937 67.349-57.267-41.685-57.273 41.675 21.948-67.345-57.334-41.592 70.831.064 21.839-67.381z" transform="matrix(.60325829 0 0 .56772541 759.68997 75.74019)"/><path d="m555.613 324.281 70.832-.051-57.341 41.582 21.937 67.349-57.267-41.685-57.273 41.675 21.948-67.345-57.334-41.592 70.831.064 21.839-67.381z" transform="matrix(-.60325829 0 0 -.56772541 1049.9733 556.34276)"/><path d="m555.613 324.281 70.832-.051-57.341 41.582 21.937 67.349-57.267-41.685-57.273 41.675 21.948-67.345-57.334-41.592 70.831.064 21.839-67.381z" transform="matrix(-.60325829 0 0 -.56772541 1244.4332 348.67657)"/><path d="m555.613 324.281 70.832-.051-57.341 41.582 21.937 67.349-57.267-41.685-57.273 41.675 21.948-67.345-57.334-41.592 70.831.064 21.839-67.381z" transform="matrix(-.60325829 0 0 -.56772541 1197.2224 653.58554)"/><path d="m555.613 324.281 70.832-.051-57.341 41.582 21.937 67.349-57.267-41.685-57.273 41.675 21.948-67.345-57.334-41.592 70.831.064 21.839-67.381z" transform="matrix(-.60325829 0 0 -.56772541 1050.0114 717.37143)"/><path d="m555.613 324.281 70.832-.051-57.341 41.582 21.937 67.349-57.267-41.685-57.273 41.675 21.948-67.345-57.334-41.592 70.831.064 21.839-67.381z" transform="matrix(.60325829 0 0 .56772541 272.40905 349.26727)"/></g></svg>