<svg xmlns:xlink="http://www.w3.org/1999/xlink" xmlns="http://www.w3.org/2000/svg" width="1000" height="600" viewBox="0 0 65 39">
<clipPath id="a"><path d="M0 0h40v25H0z"/></clipPath>
<path d="M0 0v24h36V0z" fill="#012169"/>
<path d="m0 0 35 21M-5 21 35-3" stroke="#fff" stroke-width="3.6" clip-path="url(#a)"/>
<path d="M15 0v24M0 9h36" stroke="#fff" stroke-width="6"/>
<path d="M15 0v24M0 9h36" stroke="#C8102E" stroke-width="3.6"/>
<path d="m30 0 1.5 1.5-1.5 1.5v3l1.5 1.5-1.5 1.5v3l1.5 1.5-1.5 1.5v4H0V39h65V0z" fill="#fff"/>
<path d="M30 1.5h35m0 6H30m0 6h35M0 19.5h65m0 6H0m0 6h65m0 6H0" stroke="#C8102E" stroke-width="3"/>
</svg>