<svg height="400" viewBox="-138 -92 600 400" width="600" xmlns="http://www.w3.org/2000/svg"><path d="m-138-92h600v400h-600z" fill="#0041ad"/><path d="m-138-92h120v400h-120z" fill="#ce1021"/><path d="m-138-92h60v400h-60z" fill="#00a531"/><path d="m221.29024-6.2603472-5.80079 4.26758v8.27929c-19.19859 2.87104-33.95142 17.4926802-34.89648 38.6621102v.0039.0019c-1.03284 24.478384 17.24314 46.473054 18.12305 47.517584l-58.63282 58.386723c-.53117-.00025-1.01563.00077-1.31445-.01-.0374-.001-.0449-.004-.0781-.006v-.082h-8.89454l-11.9707 21.38281.11524.23633s1.06012 2.15349 4.01367 5.29688 7.8206 7.31613 15.48437 11.48437c15.32756 8.33648 41.83879 16.64915 86.65039 16.69922 43.71972.0501 69.7191-9.06775 84.79883-18.23633 7.53987-4.58429 12.34785-9.17886 15.27344-12.63867s3.98437-5.82227 3.98437-5.82227l.12891-.28515-15.58203-18.55274-.27539.041s-1.84795.27435-3.86914.54883c-2.0212.27448-4.28838.54492-4.85742.54492h-.49414l-59.48245-58.905833c.34613-.38866 18.26876-20.65074 18.57618-50.367194v-.002-.0019c.10553-11.76661-4.27631-21.10879-11.57227-27.28125-6.17368-5.2230102-14.31061-8.1802102-23.39844-8.9375002l.17578-7.65235zm5.91406 17.2324202c8.10927.72755 15.11966 3.37768 20.2832 7.74609 6.17904 5.22754 9.8972 12.88663 9.80274 23.41992-.27352 26.292574-14.88446 44.171934-16.71485 46.322274h-.99414l-8.5918-8.50781v-33.287114l11.83008-2.52735-.14844-.51562c-1.87139-6.47401-4.53772-10.04853-7.46874-12.09766-2.78923-1.94998-5.75561-2.48576-8.40235-2.96484zm-11.71485.3457v17.41016c-8.56955 2.58148-13.28339 7.798-14.49218 15.05078l-.0762.45312 11.06446 2.81641-.39258 32.601564-8.84766 8.81055h-.77734c-2.06813-2.61014-17.25763-22.43574-16.38086-43.289064v-.002c.00006-.001-.00006-.0029 0-.0039.83889-18.73463 13.11858-31.15391 29.90234-33.84766zm-77.44921 145.115247 13.11328 7.40234-13.11328 9.41211v-16.38672zm160.94335 4.99414-1.49023 15.01367-10.86133-8.625 11.94336-6.17774zm8.65626 5.72265 10.95117 2.36328-10.95117 10.95118v-13.00391zm-145.72852 2.04688 15.07031 4.13867-10.50781 10.08203-4.42188-13.78125zm115.28906 1.76367-5.20898 14.35547-9.46485-9.46485 14.1836-4.72851zm-123.54101 3.16992 2.96484 14.92969-15.35352-6.03516 12.07422-8.66797zm99.29882.40625-7.55468 13.51172-7.12891-11.27734 14.17774-2.15821zm-66.31835.72656 14.70703 1.49219-7.88672 10.8711-6.58985-11.94532zm96.69726 1.67969 10.94531 7.86524-14.66406 6.80078 3.62891-14.31055zm-72.14844.15235 17.37891.42773-7.25 10.12695-9.70899-10.11718zm-29.71875 6.55078 6.38867 13.52148-15.75781-4.89648 9.11914-8.39453zm76.25782.35742 9.06445 10.55664-14.7168 1.49414 5.48828-11.69922zm-51.53711 3.53515 8.29296 11.27149h-16.58789l8.09375-10.99805zm26.76757.0195 9.78321 10.52929-17.33399.74414 7.375-11.00976z" fill="#fff"/></svg>