<svg xmlns="http://www.w3.org/2000/svg" width="900" height="600"><path fill="#007fff" d="M0 0h900v600H0z"/><path d="M318 268.8h100.8L450 168l31.2 100.8H582l-81.6 62.4L531.6 432 450 369.6 368.4 432l31.2-100.8zM33.6 51.84h30.24L73.2 21.6l9.36 30.24h30.24L88.32 70.56l9.36 30.24L73.2 82.08 48.72 100.8l9.36-30.24zm0 96h30.24l9.36-30.24 9.36 30.24h30.24l-24.48 18.72 9.36 30.24-24.48-18.72-24.48 18.72 9.36-30.24zm0 96h30.24l9.36-30.24 9.36 30.24h30.24l-24.48 18.72 9.36 30.24-24.48-18.72-24.48 18.72 9.36-30.24zm0 96h30.24l9.36-30.24 9.36 30.24h30.24l-24.48 18.72 9.36 30.24-24.48-18.72-24.48 18.72 9.36-30.24zm0 96h30.24l9.36-30.24 9.36 30.24h30.24l-24.48 18.72 9.36 30.24-24.48-18.72-24.48 18.72 9.36-30.24zm0 96h30.24l9.36-30.24 9.36 30.24h30.24l-24.48 18.72 9.36 30.24-24.48-18.72-24.48 18.72 9.36-30.24-24.48-18.72" fill="#f7d618"/></svg>