<?xml version="1.0" encoding="UTF-8" standalone="no"?>
<svg xmlns="http://www.w3.org/2000/svg" width="1000" height="640">
  <path fill="#4a5d23" d="m0 0 999.99983 640H0z"/>
  <path fill="#fcd116" d="m4.444443 632.94081.653095 1.92957 2.113423.00001-1.709851 1.19254.653135 1.9296-1.709802-1.19252-1.709999 1.19252.65327-1.9296-1.709937-1.19254 2.113333-.00001zm0-33.06667.653095 1.92958 2.113423.00001-1.709851 1.19254.653135 1.9296-1.709802-1.19253-1.709999 1.19253.65327-1.9296-1.709937-1.19254 2.113333-.00001zm0-33.06666.653095 1.92958 2.113423.00001-1.709851 1.19254.653135 1.92959-1.709802-1.19252-1.709999 1.19252.65327-1.92959-1.709937-1.19254 2.113333-.00001zm0-33.06667.653095 1.92957 2.113423.00001-1.709851 1.19254.653135 1.92961-1.709802-1.19253-1.709999 1.19253.65327-1.92961-1.709937-1.19254 2.113333-.00001zm0-33.06666.653095 1.92956 2.113423.00002-1.709851 1.19254.653135 1.92961-1.709802-1.19253-1.709999 1.19253.65327-1.92961-1.709937-1.19254 2.113333-.00002zm0-33.06667.653095 1.92957 2.113423.00001-1.709851 1.19255.653135 1.9296-1.709802-1.19254-1.709999 1.19254.65327-1.9296-1.709937-1.19255 2.113333-.00001zm0-33.06668.653095 1.92957 2.113423.00001-1.709851 1.19256.653135 1.9296L4.444443 438.4l-1.709999 1.19254.65327-1.9296-1.709937-1.19256 2.113333-.00001zm0-33.06666.653095 1.92957 2.113423.00001-1.709851 1.19254.653135 1.92961-1.709802-1.19253-1.709999 1.19253.65327-1.92961-1.709937-1.19254 2.113333-.00001zm0-33.06667.653095 1.92959 2.113423.00001-1.709851 1.19253.653135 1.92961-1.709802-1.19254-1.709999 1.19254.65327-1.92961-1.709937-1.19253 2.113333-.00001zm0-33.06667.653095 1.92959 2.113423.00001-1.709851 1.19253.653135 1.9296L4.444443 339.2l-1.709999 1.19253.65327-1.9296-1.709937-1.19253 2.113333-.00001zm0-33.06666.653095 1.92958 2.113423.00001-1.709851 1.19255.653135 1.92959-1.709802-1.19253-1.709999 1.19253.65327-1.92959-1.709937-1.19255 2.113333-.00001zm0-33.06667.653095 1.92958 2.113423.00001-1.709851 1.19254.653135 1.92961-1.709802-1.19253-1.709999 1.19253.65327-1.92961-1.709937-1.19254 2.113333-.00001zm0-33.06667.653095 1.92958 2.113423.00001-1.709851 1.19255.653135 1.92959-1.709802-1.19254-1.709999 1.19254.65327-1.92959-1.709937-1.19255 2.113333-.00001zm0-33.06667.653095 1.92959 2.113423.00001-1.709851 1.19255.653135 1.92959-1.709802-1.19254-1.709999 1.19254.65327-1.92959-1.709937-1.19255 2.113333-.00001zm0-33.06667.653095 1.92958 2.113423.00001-1.709851 1.19255.653135 1.92959-1.709802-1.19253-1.709999 1.19253.65327-1.92959-1.709937-1.19255 2.113333-.00001zm0-33.06666.653095 1.92958 2.113423.00001-1.709851 1.19254.653135 1.9296-1.709802-1.19254-1.709999 1.19254.65327-1.9296-1.709937-1.19254 2.113333-.00001zm0-33.06667.653095 1.92959 2.113423.00001-1.709851 1.19254.653135 1.92959-1.709802-1.19252-1.709999 1.19252.65327-1.92959-1.709937-1.19254 2.113333-.00001zm0-33.06666.653095 1.92958 2.113423.00001-1.709851 1.19255.653135 1.92959-1.709802-1.19253-1.709999 1.19253.65327-1.92959-1.709937-1.19255 2.113333-.00001zm0-33.06667.653095 1.92959 2.113423.00001-1.709851 1.19254.653135 1.9296L4.444443 41.6l-1.709999 1.19254.65327-1.9296-1.709937-1.19254 2.113333-.00001zm0-33.06666.653095 1.92958 2.113423.00001L5.50111 7.79627l.653135 1.9296-1.709802-1.19253-1.709999 1.19253.65327-1.9296-1.709937-1.19254 2.113333-.00001zM30.23391 616.40748l.653095 1.92957 2.113423.00001-1.709851 1.19254.653135 1.9296-1.709802-1.19252-1.709998 1.19252.65327-1.9296-1.709937-1.19254 2.113332-.00001zm0-33.06667.653095 1.92958 2.113423.00001-1.709851 1.19254.653135 1.92959-1.709802-1.19252-1.709998 1.19252.65327-1.92959-1.709937-1.19254 2.113332-.00001zm0-33.06667.653095 1.92957 2.113423.00001-1.709851 1.19255.653135 1.9296-1.709802-1.19253-1.709998 1.19253.65327-1.9296-1.709937-1.19255 2.113332-.00001zm0-33.06666.653095 1.92956 2.113423.00002-1.709851 1.19254.653135 1.92961-1.709802-1.19253-1.709998 1.19253.65327-1.92961-1.709937-1.19254 2.113332-.00002zm0-33.06667.653095 1.92957 2.113423.00001-1.709851 1.19255.653135 1.92961L30.23391 488l-1.709998 1.19255.65327-1.92961-1.709937-1.19255 2.113332-.00001zm0-33.06668.653095 1.92958 2.113423.00001-1.709851 1.19255.653135 1.9296-1.709802-1.19254-1.709998 1.19254.65327-1.9296-1.709937-1.19255 2.113332-.00001zm0-33.06666.653095 1.92957 2.113423.00001-1.709851 1.19255.653135 1.92961-1.709802-1.19254-1.709998 1.19254.65327-1.92961-1.709937-1.19255 2.113332-.00001zm0-33.06666.653095 1.92958 2.113423.00001-1.709851 1.19253.653135 1.92961-1.709802-1.19253-1.709998 1.19253.65327-1.92961-1.709937-1.19253 2.113332-.00001zm0-33.06668.653095 1.92959 2.113423.00001-1.709851 1.19253.653135 1.9296-1.709802-1.19253-1.709998 1.19253.65327-1.9296-1.709937-1.19253 2.113332-.00001zm0-33.06666.653095 1.92958 2.113423.00001-1.709851 1.19254.653135 1.9296-1.709802-1.19253-1.709998 1.19253.65327-1.9296-1.709937-1.19254 2.113332-.00001zm0-33.06666.653095 1.92958 2.113423.00001-1.709851 1.19254.653135 1.9296-1.709802-1.19253-1.709998 1.19253.65327-1.9296-1.709937-1.19254 2.113332-.00001zm0-33.06668.653095 1.92958 2.113423.00002-1.709851 1.19254.653135 1.9296-1.709802-1.19255-1.709998 1.19255.65327-1.9296-1.709937-1.19254 2.113332-.00002zm0-33.06667.653095 1.92959 2.113423.00001-1.709851 1.19255.653135 1.92959-1.709802-1.19254-1.709998 1.19254.65327-1.92959-1.709937-1.19255 2.113332-.00001zm0-33.06666.653095 1.92958 2.113423.00001-1.709851 1.19256.653135 1.92959L30.23391 190.4l-1.709998 1.19254.65327-1.92959-1.709937-1.19256 2.113332-.00001zm0-33.06667.653095 1.92958 2.113423.00001-1.709851 1.19254.653135 1.9296-1.709802-1.19253-1.709998 1.19253.65327-1.9296-1.709937-1.19254 2.113332-.00001zm0-33.06666.653095 1.92958 2.113423.00001-1.709851 1.19254.653135 1.92959-1.709802-1.19252-1.709998 1.19252.65327-1.92959-1.709937-1.19254 2.113332-.00001zm0-33.06667.653095 1.92959 2.113423.00001-1.709851 1.19254.653135 1.9296-1.709802-1.19253-1.709998 1.19253.65327-1.9296-1.709937-1.19254 2.113332-.00001zm0-33.06666.653095 1.92958 2.113423.00001-1.709851 1.19254.653135 1.9296-1.709802-1.19253-1.709998 1.19253.65327-1.9296-1.709937-1.19254 2.113332-.00001zm0-33.06667.653095 1.92958 2.113423.00001-1.709851 1.19254.653135 1.9296-1.709802-1.19253-1.709998 1.19253.65327-1.9296-1.709937-1.19254 2.113332-.00001zm25.789412 611.73334.653095 1.92957 2.113421.00001-1.70985 1.19254.653135 1.9296-1.709801-1.19252-1.709999 1.19252.65327-1.9296-1.709938-1.19254 2.113334-.00001zm0-33.06667.653095 1.92958 2.113421.00001-1.70985 1.19254.653135 1.9296-1.709801-1.19253-1.709999 1.19253.65327-1.9296-1.709938-1.19254 2.113334-.00001zm0-33.06666.653095 1.92958 2.113421.00001-1.70985 1.19254.653135 1.92959-1.709801-1.19252-1.709999 1.19252.65327-1.92959-1.709938-1.19254 2.113334-.00001zm0-33.06667.653095 1.92957 2.113421.00001-1.70985 1.19254.653135 1.92961-1.709801-1.19253-1.709999 1.19253.65327-1.92961-1.709938-1.19254 2.113334-.00001zm0-33.06666.653095 1.92956 2.113421.00002-1.70985 1.19254.653135 1.92961-1.709801-1.19253-1.709999 1.19253.65327-1.92961-1.709938-1.19254 2.113334-.00002zm0-33.06667.653095 1.92957 2.113421.00001-1.70985 1.19255.653135 1.9296-1.709801-1.19254-1.709999 1.19254.65327-1.9296-1.709938-1.19255 2.113334-.00001zm0-33.06668.653095 1.92957 2.113421.00001-1.70985 1.19256.653135 1.9296L56.023322 438.4l-1.709999 1.19254.65327-1.9296-1.709938-1.19256 2.113334-.00001zm0-33.06666.653095 1.92957 2.113421.00001-1.70985 1.19254.653135 1.92961-1.709801-1.19253-1.709999 1.19253.65327-1.92961-1.709938-1.19254 2.113334-.00001zm0-33.06667.653095 1.92959 2.113421.00001-1.70985 1.19253.653135 1.92961-1.709801-1.19254-1.709999 1.19254.65327-1.92961-1.709938-1.19253 2.113334-.00001zm0-33.06667.653095 1.92959 2.113421.00001-1.70985 1.19253.653135 1.9296L56.023322 339.2l-1.709999 1.19253.65327-1.9296-1.709938-1.19253 2.113334-.00001zm0-33.06666.653095 1.92958 2.113421.00001-1.70985 1.19255.653135 1.92959-1.709801-1.19253-1.709999 1.19253.65327-1.92959-1.709938-1.19255 2.113334-.00001zm0-33.06667.653095 1.92958 2.113421.00001-1.70985 1.19254.653135 1.92961-1.709801-1.19253-1.709999 1.19253.65327-1.92961-1.709938-1.19254 2.113334-.00001zm0-33.06667.653095 1.92958 2.113421.00001-1.70985 1.19255.653135 1.92959-1.709801-1.19254-1.709999 1.19254.65327-1.92959-1.709938-1.19255 2.113334-.00001zm0-33.06667.653095 1.92959 2.113421.00001-1.70985 1.19255.653135 1.92959-1.709801-1.19254-1.709999 1.19254.65327-1.92959-1.709938-1.19255 2.113334-.00001zm0-33.06667.653095 1.92958 2.113421.00001-1.70985 1.19255.653135 1.92959-1.709801-1.19253-1.709999 1.19253.65327-1.92959-1.709938-1.19255 2.113334-.00001zm0-33.06666.653095 1.92958 2.113421.00001-1.70985 1.19254.653135 1.9296-1.709801-1.19254-1.709999 1.19254.65327-1.9296-1.709938-1.19254 2.113334-.00001zm0-33.06667.653095 1.92959 2.113421.00001-1.70985 1.19254.653135 1.92959-1.709801-1.19252-1.709999 1.19252.65327-1.92959-1.709938-1.19254 2.113334-.00001zm0-33.06666.653095 1.92958 2.113421.00001-1.70985 1.19255.653135 1.92959-1.709801-1.19253-1.709999 1.19253.65327-1.92959-1.709938-1.19255 2.113334-.00001zm0-33.06667.653095 1.92959 2.113421.00001-1.70985 1.19254.653135 1.9296L56.023322 41.6l-1.709999 1.19254.65327-1.9296-1.709938-1.19254 2.113334-.00001zm25.789523 578.66668.653094 1.92957 2.113423.00001-1.70985 1.19254.653135 1.9296-1.709802-1.19252-1.71 1.19252.65327-1.9296-1.709936-1.19254 2.113333-.00001zm0-33.06667.653094 1.92958 2.113423.00001-1.70985 1.19254.653135 1.92959-1.709802-1.19252-1.71 1.19252.65327-1.92959-1.709936-1.19254 2.113333-.00001zm0-33.06667.653094 1.92957 2.113423.00001-1.70985 1.19255.653135 1.9296-1.709802-1.19253-1.71 1.19253.65327-1.9296-1.709936-1.19255 2.113333-.00001zm0-33.06666.653094 1.92956 2.113423.00002-1.70985 1.19254.653135 1.92961-1.709802-1.19253-1.71 1.19253.65327-1.92961-1.709936-1.19254 2.113333-.00002zm0-33.06667.653094 1.92957 2.113423.00001-1.70985 1.19255.653135 1.92961L81.812845 488l-1.71 1.19255.65327-1.92961-1.709936-1.19255 2.113333-.00001zm0-33.06668.653094 1.92958 2.113423.00001-1.70985 1.19255.653135 1.9296-1.709802-1.19254-1.71 1.19254.65327-1.9296-1.709936-1.19255 2.113333-.00001zm0-33.06666.653094 1.92957 2.113423.00001-1.70985 1.19255.653135 1.92961-1.709802-1.19254-1.71 1.19254.65327-1.92961-1.709936-1.19255 2.113333-.00001zm0-33.06666.653094 1.92958 2.113423.00001-1.70985 1.19253.653135 1.92961-1.709802-1.19253-1.71 1.19253.65327-1.92961-1.709936-1.19253 2.113333-.00001zm0-33.06668.653094 1.92959 2.113423.00001-1.70985 1.19253.653135 1.9296-1.709802-1.19253-1.71 1.19253.65327-1.9296-1.709936-1.19253 2.113333-.00001zm0-33.06666.653094 1.92958 2.113423.00001-1.70985 1.19254.653135 1.9296-1.709802-1.19253-1.71 1.19253.65327-1.9296-1.709936-1.19254 2.113333-.00001zm0-33.06666.653094 1.92958 2.113423.00001-1.70985 1.19254.653135 1.9296-1.709802-1.19253-1.71 1.19253.65327-1.9296-1.709936-1.19254 2.113333-.00001zm0-33.06668.653094 1.92958 2.113423.00002-1.70985 1.19254.653135 1.9296-1.709802-1.19255-1.71 1.19255.65327-1.9296-1.709936-1.19254 2.113333-.00002zm0-33.06667.653094 1.92959 2.113423.00001-1.70985 1.19255.653135 1.92959-1.709802-1.19254-1.71 1.19254.65327-1.92959-1.709936-1.19255 2.113333-.00001zm0-33.06666.653094 1.92958 2.113423.00001-1.70985 1.19256.653135 1.92959L81.812845 190.4l-1.71 1.19254.65327-1.92959-1.709936-1.19256 2.113333-.00001zm0-33.06667.653094 1.92958 2.113423.00001-1.70985 1.19254.653135 1.9296-1.709802-1.19253-1.71 1.19253.65327-1.9296-1.709936-1.19254 2.113333-.00001zm0-33.06666.653094 1.92958 2.113423.00001-1.70985 1.19254.653135 1.92959-1.709802-1.19252-1.71 1.19252.65327-1.92959-1.709936-1.19254 2.113333-.00001zm0-33.06667.653094 1.92959 2.113423.00001-1.70985 1.19254.653135 1.9296-1.709802-1.19253-1.71 1.19253.65327-1.9296-1.709936-1.19254 2.113333-.00001zm0-33.06666.653094 1.92958 2.113423.00001-1.70985 1.19254.653135 1.9296-1.709802-1.19253-1.71 1.19253.65327-1.9296-1.709936-1.19254 2.113333-.00001zM107.6022 632.94081l.65309 1.92957 2.11343.00001-1.70985 1.19254.65313 1.9296-1.7098-1.19252-1.70999 1.19252.65326-1.9296-1.70993-1.19254 2.11333-.00001zm0-33.06667.65309 1.92958 2.11343.00001-1.70985 1.19254.65313 1.9296-1.7098-1.19253-1.70999 1.19253.65326-1.9296-1.70993-1.19254 2.11333-.00001zm0-33.06666.65309 1.92958 2.11343.00001-1.70985 1.19254.65313 1.92959-1.7098-1.19252-1.70999 1.19252.65326-1.92959-1.70993-1.19254 2.11333-.00001zm0-33.06667.65309 1.92957 2.11343.00001-1.70985 1.19254.65313 1.92961-1.7098-1.19253-1.70999 1.19253.65326-1.92961-1.70993-1.19254 2.11333-.00001zm0-33.06666.65309 1.92956 2.11343.00002-1.70985 1.19254.65313 1.92961-1.7098-1.19253-1.70999 1.19253.65326-1.92961-1.70993-1.19254 2.11333-.00002zm0-33.06667.65309 1.92957 2.11343.00001-1.70985 1.19255.65313 1.9296-1.7098-1.19254-1.70999 1.19254.65326-1.9296-1.70993-1.19255 2.11333-.00001zm0-33.06668.65309 1.92957 2.11343.00001-1.70985 1.19256.65313 1.9296-1.7098-1.19254-1.70999 1.19254.65326-1.9296-1.70993-1.19256 2.11333-.00001zm0-33.06666.65309 1.92957 2.11343.00001-1.70985 1.19254.65313 1.92961-1.7098-1.19253-1.70999 1.19253.65326-1.92961-1.70993-1.19254 2.11333-.00001zm0-33.06667.65309 1.92959 2.11343.00001-1.70985 1.19253.65313 1.92961-1.7098-1.19254-1.70999 1.19254.65326-1.92961-1.70993-1.19253 2.11333-.00001zm0-33.06667.65309 1.92959 2.11343.00001-1.70985 1.19253.65313 1.9296-1.7098-1.19253-1.70999 1.19253.65326-1.9296-1.70993-1.19253 2.11333-.00001zm0-33.06666.65309 1.92958 2.11343.00001-1.70985 1.19255.65313 1.92959-1.7098-1.19253-1.70999 1.19253.65326-1.92959-1.70993-1.19255 2.11333-.00001zm0-33.06667.65309 1.92958 2.11343.00001-1.70985 1.19254.65313 1.92961-1.7098-1.19253-1.70999 1.19253.65326-1.92961-1.70993-1.19254 2.11333-.00001zm0-33.06667.65309 1.92958 2.11343.00001-1.70985 1.19255.65313 1.92959-1.7098-1.19254-1.70999 1.19254.65326-1.92959-1.70993-1.19255 2.11333-.00001zm0-33.06667.65309 1.92959 2.11343.00001-1.70985 1.19255.65313 1.92959-1.7098-1.19254-1.70999 1.19254.65326-1.92959-1.70993-1.19255 2.11333-.00001zm0-33.06667.65309 1.92958 2.11343.00001-1.70985 1.19255.65313 1.92959-1.7098-1.19253-1.70999 1.19253.65326-1.92959-1.70993-1.19255 2.11333-.00001zm0-33.06666.65309 1.92958 2.11343.00001-1.70985 1.19254.65313 1.9296-1.7098-1.19254-1.70999 1.19254.65326-1.9296-1.70993-1.19254 2.11333-.00001zm0-33.06667.65309 1.92959 2.11343.00001-1.70985 1.19254.65313 1.92959-1.7098-1.19252-1.70999 1.19252.65326-1.92959-1.70993-1.19254 2.11333-.00001zm0-33.06666.65309 1.92958 2.11343.00001-1.70985 1.19255.65313 1.92959-1.7098-1.19253-1.70999 1.19253.65326-1.92959-1.70993-1.19255 2.11333-.00001zm25.7896 545.60001.6531 1.92957 2.11342.00001-1.70985 1.19254.65313 1.9296-1.7098-1.19252-1.71001 1.19252.65329-1.9296-1.70995-1.19254 2.11333-.00001zm0-33.06667.6531 1.92958 2.11342.00001-1.70985 1.19254.65313 1.92959-1.7098-1.19252-1.71001 1.19252.65329-1.92959-1.70995-1.19254 2.11333-.00001zm0-33.06667.6531 1.92957 2.11342.00001-1.70985 1.19255.65313 1.9296-1.7098-1.19253-1.71001 1.19253.65329-1.9296-1.70995-1.19255 2.11333-.00001zm0-33.06666.6531 1.92956 2.11342.00002-1.70985 1.19254.65313 1.92961-1.7098-1.19253-1.71001 1.19253.65329-1.92961-1.70995-1.19254 2.11333-.00002zm0-33.06667.6531 1.92957 2.11342.00001-1.70985 1.19255.65313 1.92961L133.3918 488l-1.71001 1.19255.65329-1.92961-1.70995-1.19255 2.11333-.00001zm0-33.06668.6531 1.92958 2.11342.00001-1.70985 1.19255.65313 1.9296-1.7098-1.19254-1.71001 1.19254.65329-1.9296-1.70995-1.19255 2.11333-.00001zm0-33.06666.6531 1.92957 2.11342.00001-1.70985 1.19255.65313 1.92961-1.7098-1.19254-1.71001 1.19254.65329-1.92961-1.70995-1.19255 2.11333-.00001zm0-33.06666.6531 1.92958 2.11342.00001-1.70985 1.19253.65313 1.92961-1.7098-1.19253-1.71001 1.19253.65329-1.92961-1.70995-1.19253 2.11333-.00001zm0-33.06668.6531 1.92959 2.11342.00001-1.70985 1.19253.65313 1.9296-1.7098-1.19253-1.71001 1.19253.65329-1.9296-1.70995-1.19253 2.11333-.00001zm0-33.06666.6531 1.92958 2.11342.00001-1.70985 1.19254.65313 1.9296-1.7098-1.19253-1.71001 1.19253.65329-1.9296-1.70995-1.19254 2.11333-.00001zm0-33.06666.6531 1.92958 2.11342.00001-1.70985 1.19254.65313 1.9296-1.7098-1.19253-1.71001 1.19253.65329-1.9296-1.70995-1.19254 2.11333-.00001zm0-33.06668.6531 1.92958 2.11342.00002-1.70985 1.19254.65313 1.9296-1.7098-1.19255-1.71001 1.19255.65329-1.9296-1.70995-1.19254 2.11333-.00002zm0-33.06667.6531 1.92959 2.11342.00001-1.70985 1.19255.65313 1.92959-1.7098-1.19254-1.71001 1.19254.65329-1.92959-1.70995-1.19255 2.11333-.00001zm0-33.06666.6531 1.92958 2.11342.00001-1.70985 1.19256.65313 1.92959-1.7098-1.19254-1.71001 1.19254.65329-1.92959-1.70995-1.19256 2.11333-.00001zm0-33.06667.6531 1.92958 2.11342.00001-1.70985 1.19254.65313 1.9296-1.7098-1.19253-1.71001 1.19253.65329-1.9296-1.70995-1.19254 2.11333-.00001zm0-33.06666.6531 1.92958 2.11342.00001-1.70985 1.19254.65313 1.92959-1.7098-1.19252-1.71001 1.19252.65329-1.92959-1.70995-1.19254 2.11333-.00001zm0-33.06667.6531 1.92959 2.11342.00001-1.70985 1.19254.65313 1.9296-1.7098-1.19253-1.71001 1.19253.65329-1.9296-1.70995-1.19254 2.11333-.00001zm25.78928 545.60001.65311 1.92957 2.11342.00001-1.70986 1.19254.65314 1.9296-1.70981-1.19252-1.71 1.19252.65327-1.9296-1.70993-1.19254 2.11333-.00001zm0-33.06667.65311 1.92958 2.11342.00001-1.70986 1.19254.65314 1.9296-1.70981-1.19253-1.71 1.19253.65327-1.9296-1.70993-1.19254 2.11333-.00001zm0-33.06666.65311 1.92958 2.11342.00001-1.70986 1.19254.65314 1.92959-1.70981-1.19252-1.71 1.19252.65327-1.92959-1.70993-1.19254 2.11333-.00001zm0-33.06667.65311 1.92957 2.11342.00001-1.70986 1.19254.65314 1.92961-1.70981-1.19253-1.71 1.19253.65327-1.92961-1.70993-1.19254 2.11333-.00001zm0-33.06666.65311 1.92956 2.11342.00002-1.70986 1.19254.65314 1.92961-1.70981-1.19253-1.71 1.19253.65327-1.92961-1.70993-1.19254 2.11333-.00002zm0-33.06667.65311 1.92957 2.11342.00001-1.70986 1.19255.65314 1.9296-1.70981-1.19254-1.71 1.19254.65327-1.9296-1.70993-1.19255 2.11333-.00001zm0-33.06668.65311 1.92957 2.11342.00001-1.70986 1.19256.65314 1.9296-1.70981-1.19254-1.71 1.19254.65327-1.9296-1.70993-1.19256 2.11333-.00001zm0-33.06666.65311 1.92957 2.11342.00001-1.70986 1.19254.65314 1.92961-1.70981-1.19253-1.71 1.19253.65327-1.92961-1.70993-1.19254 2.11333-.00001zm0-33.06667.65311 1.92959 2.11342.00001-1.70986 1.19253.65314 1.92961-1.70981-1.19254-1.71 1.19254.65327-1.92961-1.70993-1.19253 2.11333-.00001zm0-33.06667.65311 1.92959 2.11342.00001-1.70986 1.19253.65314 1.9296-1.70981-1.19253-1.71 1.19253.65327-1.9296-1.70993-1.19253 2.11333-.00001zm0-33.06666.65311 1.92958 2.11342.00001-1.70986 1.19255.65314 1.92959-1.70981-1.19253-1.71 1.19253.65327-1.92959-1.70993-1.19255 2.11333-.00001zm0-33.06667.65311 1.92958 2.11342.00001-1.70986 1.19254.65314 1.92961-1.70981-1.19253-1.71 1.19253.65327-1.92961-1.70993-1.19254 2.11333-.00001zm0-33.06667.65311 1.92958 2.11342.00001-1.70986 1.19255.65314 1.92959-1.70981-1.19254-1.71 1.19254.65327-1.92959-1.70993-1.19255 2.11333-.00001zm0-33.06667.65311 1.92959 2.11342.00001-1.70986 1.19255.65314 1.92959-1.70981-1.19254-1.71 1.19254.65327-1.92959-1.70993-1.19255 2.11333-.00001zm0-33.06667.65311 1.92958 2.11342.00001-1.70986 1.19255.65314 1.92959-1.70981-1.19253-1.71 1.19253.65327-1.92959-1.70993-1.19255 2.11333-.00001zm0-33.06666.65311 1.92958 2.11342.00001-1.70986 1.19254.65314 1.9296-1.70981-1.19254-1.71 1.19254.65327-1.9296-1.70993-1.19254 2.11333-.00001zm0-33.06667.65311 1.92959 2.11342.00001-1.70986 1.19254.65314 1.92959-1.70981-1.19252-1.71 1.19252.65327-1.92959-1.70993-1.19254 2.11333-.00001zm25.78963 512.53335.65309 1.92957 2.11342.00001-1.70984 1.19254.65313 1.9296-1.7098-1.19252-1.70999 1.19252.65326-1.9296-1.70993-1.19254 2.11334-.00001zm0-33.06667.65309 1.92958 2.11342.00001-1.70984 1.19254.65313 1.92959-1.7098-1.19252-1.70999 1.19252.65326-1.92959-1.70993-1.19254 2.11334-.00001zm0-33.06667.65309 1.92957 2.11342.00001-1.70984 1.19255.65313 1.9296-1.7098-1.19253-1.70999 1.19253.65326-1.9296-1.70993-1.19255 2.11334-.00001zm0-33.06666.65309 1.92956 2.11342.00002-1.70984 1.19254.65313 1.92961-1.7098-1.19253-1.70999 1.19253.65326-1.92961-1.70993-1.19254 2.11334-.00002zm0-33.06667.65309 1.92957 2.11342.00001-1.70984 1.19255.65313 1.92961L184.97071 488l-1.70999 1.19255.65326-1.92961-1.70993-1.19255 2.11334-.00001zm0-165.33334.65309 1.92958 2.11342.00001-1.70984 1.19254.65313 1.9296-1.7098-1.19253-1.70999 1.19253.65326-1.9296-1.70993-1.19254 2.11334-.00001zm0-33.06666.65309 1.92958 2.11342.00001-1.70984 1.19254.65313 1.9296-1.7098-1.19253-1.70999 1.19253.65326-1.9296-1.70993-1.19254 2.11334-.00001zm0-33.06668.65309 1.92958 2.11342.00002-1.70984 1.19254.65313 1.9296-1.7098-1.19255-1.70999 1.19255.65326-1.9296-1.70993-1.19254 2.11334-.00002zm0-33.06667.65309 1.92959 2.11342.00001-1.70984 1.19255.65313 1.92959-1.7098-1.19254-1.70999 1.19254.65326-1.92959-1.70993-1.19255 2.11334-.00001zm0-33.06666.65309 1.92958 2.11342.00001-1.70984 1.19256.65313 1.92959-1.7098-1.19254-1.70999 1.19254.65326-1.92959-1.70993-1.19256 2.11334-.00001zm0-33.06667.65309 1.92958 2.11342.00001-1.70984 1.19254.65313 1.9296-1.7098-1.19253-1.70999 1.19253.65326-1.9296-1.70993-1.19254 2.11334-.00001zm0-33.06666.65309 1.92958 2.11342.00001-1.70984 1.19254.65313 1.92959-1.7098-1.19252-1.70999 1.19252.65326-1.92959-1.70993-1.19254 2.11334-.00001zm25.78926 512.53334.65309 1.92957 2.11342.00001-1.70984 1.19254.65313 1.9296-1.7098-1.19252-1.71001 1.19252.65328-1.9296-1.70994-1.19254 2.11333-.00001zm0-33.06667.65309 1.92958 2.11342.00001-1.70984 1.19254.65313 1.9296-1.7098-1.19253-1.71001 1.19253.65328-1.9296-1.70994-1.19254 2.11333-.00001zm0-33.06666.65309 1.92958 2.11342.00001-1.70984 1.19254.65313 1.92959-1.7098-1.19252-1.71001 1.19252.65328-1.92959-1.70994-1.19254 2.11333-.00001zm0-264.53334.65309 1.92958 2.11342.00001-1.70984 1.19255.65313 1.92959-1.7098-1.19253-1.71001 1.19253.65328-1.92959-1.70994-1.19255 2.11333-.00001zm0-33.06667.65309 1.92958 2.11342.00001-1.70984 1.19254.65313 1.92961-1.7098-1.19253-1.71001 1.19253.65328-1.92961-1.70994-1.19254 2.11333-.00001zm0-33.06667.65309 1.92958 2.11342.00001-1.70984 1.19255.65313 1.92959-1.7098-1.19254-1.71001 1.19254.65328-1.92959-1.70994-1.19255 2.11333-.00001zm0-33.06667.65309 1.92959 2.11342.00001-1.70984 1.19255.65313 1.92959-1.7098-1.19254-1.71001 1.19254.65328-1.92959-1.70994-1.19255 2.11333-.00001zm0-33.06667.65309 1.92958 2.11342.00001-1.70984 1.19255.65313 1.92959-1.7098-1.19253-1.71001 1.19253.65328-1.92959-1.70994-1.19255 2.11333-.00001zm0-33.06666.65309 1.92958 2.11342.00001-1.70984 1.19254.65313 1.9296-1.7098-1.19254-1.71001 1.19254.65328-1.9296-1.70994-1.19254 2.11333-.00001zm25.78998 479.46668.65311 1.92957 2.11342.00001-1.70986 1.19254.65315 1.9296-1.70982-1.19252-1.71 1.19252.65328-1.9296-1.70994-1.19254 2.11333-.00001zm0-33.06667.65311 1.92958 2.11342.00001-1.70986 1.19254.65315 1.92959-1.70982-1.19252-1.71 1.19252.65328-1.92959-1.70994-1.19254 2.11333-.00001zm0-33.06667.65311 1.92957 2.11342.00001-1.70986 1.19255.65315 1.9296-1.70982-1.19253-1.71 1.19253.65328-1.9296-1.70994-1.19255 2.11333-.00001zm0-264.53333.65311 1.92958 2.11342.00001-1.70986 1.19254.65315 1.9296-1.70982-1.19253-1.71 1.19253.65328-1.9296-1.70994-1.19254 2.11333-.00001zm0-33.06668.65311 1.92958 2.11342.00002-1.70986 1.19254.65315 1.9296-1.70982-1.19255-1.71 1.19255.65328-1.9296-1.70994-1.19254 2.11333-.00002zm0-33.06667.65311 1.92959 2.11342.00001-1.70986 1.19255.65315 1.92959-1.70982-1.19254-1.71 1.19254.65328-1.92959-1.70994-1.19255 2.11333-.00001zm0-33.06666.65311 1.92958 2.11342.00001-1.70986 1.19256.65315 1.92959-1.70982-1.19254-1.71 1.19254.65328-1.92959-1.70994-1.19256 2.11333-.00001zm0-33.06667.65311 1.92958 2.11342.00001-1.70986 1.19254.65315 1.9296-1.70982-1.19253-1.71 1.19253.65328-1.9296-1.70994-1.19254 2.11333-.00001zm25.78889 479.46668.65308 1.92957 2.11343.00001-1.70984 1.19254.65313 1.9296-1.7098-1.19252-1.71 1.19252.65327-1.9296-1.70993-1.19254 2.11333-.00001zm0-33.06667.65308 1.92958 2.11343.00001-1.70984 1.19254.65313 1.9296-1.7098-1.19253-1.71 1.19253.65327-1.9296-1.70993-1.19254 2.11333-.00001zm0-33.06666.65308 1.92958 2.11343.00001-1.70984 1.19254.65313 1.92959-1.7098-1.19252-1.71 1.19252.65327-1.92959-1.70993-1.19254 2.11333-.00001zm0-34.45335.65308 1.92959 2.11343.00001-1.70984 1.19254.65313 1.92959-1.7098-1.19253-1.71 1.19253.65327-1.92959-1.70993-1.19254 2.11333-.00001zm0-263.14666.65308 1.92958 2.11343.00001-1.70984 1.19254.65313 1.92961-1.7098-1.19253-1.71 1.19253.65327-1.92961-1.70993-1.19254 2.11333-.00001zm0-33.06667.65308 1.92958 2.11343.00001-1.70984 1.19255.65313 1.92959-1.7098-1.19254-1.71 1.19254.65327-1.92959-1.70993-1.19255 2.11333-.00001zm0-33.06667.65308 1.92959 2.11343.00001-1.70984 1.19255.65313 1.92959-1.7098-1.19254-1.71 1.19254.65327-1.92959-1.70993-1.19255 2.11333-.00001zm0-33.06667.65308 1.92958 2.11343.00001-1.70984 1.19255.65313 1.92959-1.7098-1.19253-1.71 1.19253.65327-1.92959-1.70993-1.19255 2.11333-.00001zm25.78977 446.40002.65308 1.92957 2.11343.00001-1.70985 1.19254.65313 1.9296-1.70979-1.19252-1.71001 1.19252.65327-1.9296-1.70994-1.19254 2.11334-.00001zm0-33.06667.65308 1.92958 2.11343.00001-1.70985 1.19254.65313 1.92959-1.70979-1.19252-1.71001 1.19252.65327-1.92959-1.70994-1.19254 2.11334-.00001zm0-33.06667.65308 1.92957 2.11343.00001-1.70985 1.19255.65313 1.9296-1.70979-1.19253-1.71001 1.19253.65327-1.9296-1.70994-1.19255 2.11334-.00001zm0-297.60001.65308 1.92958 2.11343.00002-1.70985 1.19254.65313 1.9296-1.70979-1.19255-1.71001 1.19255.65327-1.9296-1.70994-1.19254 2.11334-.00002zm0-33.06667.65308 1.92959 2.11343.00001-1.70985 1.19255.65313 1.92959-1.70979-1.19254-1.71001 1.19254.65327-1.92959-1.70994-1.19255 2.11334-.00001zm0-33.06666.65308 1.92958 2.11343.00001-1.70985 1.19256.65313 1.92959-1.70979-1.19254-1.71001 1.19254.65327-1.92959-1.70994-1.19256 2.11334-.00001zm25.7891 446.40001.6531 1.92957 2.11343.00001-1.70986 1.19254.65314 1.9296-1.70981-1.19252-1.71 1.19252.65326-1.9296-1.70993-1.19254 2.11334-.00001zm0-33.06667.6531 1.92958 2.11343.00001-1.70986 1.19254.65314 1.9296-1.70981-1.19253-1.71 1.19253.65326-1.9296-1.70993-1.19254 2.11334-.00001zm0-33.06666.6531 1.92958 2.11343.00001-1.70986 1.19254.65314 1.92959-1.70981-1.19252-1.71 1.19252.65326-1.92959-1.70993-1.19254 2.11334-.00001zm0-297.60001.6531 1.92958 2.11343.00001-1.70986 1.19254.65314 1.92961-1.70981-1.19253-1.71 1.19253.65326-1.92961-1.70993-1.19254 2.11334-.00001zm0-33.06667.6531 1.92958 2.11343.00001-1.70986 1.19255.65314 1.92959-1.70981-1.19254-1.71 1.19254.65326-1.92959-1.70993-1.19255 2.11334-.00001zm0-33.06667.6531 1.92959 2.11343.00001-1.70986 1.19255.65314 1.92959-1.70981-1.19254-1.71 1.19254.65326-1.92959-1.70993-1.19255 2.11334-.00001zm25.78983 413.33335.65309 1.92957 2.11342.00001-1.70984 1.19254.65313 1.9296-1.7098-1.19252-1.70999 1.19252.65326-1.9296-1.70993-1.19254 2.11333-.00001zm0-33.06667.65309 1.92958 2.11342.00001-1.70984 1.19254.65313 1.92959-1.7098-1.19252-1.70999 1.19252.65326-1.92959-1.70993-1.19254 2.11333-.00001zm0-33.06667.65309 1.92957 2.11342.00001-1.70984 1.19255.65313 1.9296-1.7098-1.19253-1.70999 1.19253.65326-1.9296-1.70993-1.19255 2.11333-.00001zm0-264.53333.65309 1.92958 2.11342.00001-1.70984 1.19254.65313 1.9296-1.7098-1.19253-1.70999 1.19253.65326-1.9296-1.70993-1.19254 2.11333-.00001zm0-33.06668.65309 1.92958 2.11342.00002-1.70984 1.19254.65313 1.9296-1.7098-1.19255-1.70999 1.19255.65326-1.9296-1.70993-1.19254 2.11333-.00002zm0-33.06667.65309 1.92959 2.11342.00001-1.70984 1.19255.65313 1.92959-1.7098-1.19254-1.70999 1.19254.65326-1.92959-1.70993-1.19255 2.11333-.00001zm25.78904 413.33335.65309 1.92957 2.11343.00001-1.70986 1.19254.65313 1.9296-1.70979-1.19252-1.71001 1.19252.65327-1.9296-1.70994-1.19254 2.11334-.00001zm0-33.06667.65309 1.92958 2.11343.00001-1.70986 1.19254.65313 1.9296-1.70979-1.19253-1.71001 1.19253.65327-1.9296-1.70994-1.19254 2.11334-.00001zm0-33.06666.65309 1.92958 2.11343.00001-1.70986 1.19254.65313 1.92959-1.70979-1.19252-1.71001 1.19252.65327-1.92959-1.70994-1.19254 2.11334-.00001zm0-264.53334.65309 1.92958 2.11343.00001-1.70986 1.19255.65313 1.92959-1.70979-1.19253-1.71001 1.19253.65327-1.92959-1.70994-1.19255 2.11334-.00001zm0-33.06667.65309 1.92958 2.11343.00001-1.70986 1.19254.65313 1.92961-1.70979-1.19253-1.71001 1.19253.65327-1.92961-1.70994-1.19254 2.11334-.00001zm0-33.06667.65309 1.92958 2.11343.00001-1.70986 1.19255.65313 1.92959-1.70979-1.19254-1.71001 1.19254.65327-1.92959-1.70994-1.19255 2.11334-.00001zm25.78989 380.26668.65309 1.92957 2.11343.00001-1.70986 1.19254.65314 1.9296-1.7098-1.19252-1.71 1.19252.65326-1.9296-1.70993-1.19254 2.11334-.00001zm0-33.06667.65309 1.92958 2.11343.00001-1.70986 1.19254.65314 1.92959-1.7098-1.19252-1.71 1.19252.65326-1.92959-1.70993-1.19254 2.11334-.00001zm0-33.06667.65309 1.92957 2.11343.00001-1.70986 1.19255.65314 1.9296-1.7098-1.19253-1.71 1.19253.65326-1.9296-1.70993-1.19255 2.11334-.00001zm0-231.46667.65309 1.92958 2.11343.00001-1.70986 1.19254.65314 1.9296-1.7098-1.19253-1.71 1.19253.65326-1.9296-1.70993-1.19254 2.11334-.00001zm0-33.06666.65309 1.92958 2.11343.00001-1.70986 1.19254.65314 1.9296-1.7098-1.19253-1.71 1.19253.65326-1.9296-1.70993-1.19254 2.11334-.00001zm0-33.06668.65309 1.92958 2.11343.00002-1.70986 1.19254.65314 1.9296-1.7098-1.19255-1.71 1.19255.65326-1.9296-1.70993-1.19254 2.11334-.00002zm25.78901 380.26668.6531 1.92957 2.11342.00001-1.70985 1.19254.65313 1.9296-1.7098-1.19252-1.71 1.19252.65327-1.9296-1.70993-1.19254 2.11333-.00001zm0-33.06667.6531 1.92958 2.11342.00001-1.70985 1.19254.65313 1.9296-1.7098-1.19253-1.71 1.19253.65327-1.9296-1.70993-1.19254 2.11333-.00001zm0-33.06666.6531 1.92958 2.11342.00001-1.70985 1.19254.65313 1.92959-1.7098-1.19252-1.71 1.19252.65327-1.92959-1.70993-1.19254 2.11333-.00001zm0-231.46668.6531 1.92959 2.11342.00001-1.70985 1.19253.65313 1.9296-1.7098-1.19253-1.71 1.19253.65327-1.9296-1.70993-1.19253 2.11333-.00001zm0-33.06666.6531 1.92958 2.11342.00001-1.70985 1.19255.65313 1.92959-1.7098-1.19253-1.71 1.19253.65327-1.92959-1.70993-1.19255 2.11333-.00001zm0-33.06667.6531 1.92958 2.11342.00001-1.70985 1.19254.65313 1.92961-1.7098-1.19253-1.71 1.19253.65327-1.92961-1.70993-1.19254 2.11333-.00001zm25.78993 347.20001.65309 1.92957 2.11342.00001-1.70984 1.19254.65313 1.9296-1.7098-1.19252-1.71 1.19252.65327-1.9296-1.70994-1.19254 2.11333-.00001zm0-33.06667.65309 1.92958 2.11342.00001-1.70984 1.19254.65313 1.92959-1.7098-1.19252-1.71 1.19252.65327-1.92959-1.70994-1.19254 2.11333-.00001zm0-33.06667.65309 1.92957 2.11342.00001-1.70984 1.19255.65313 1.9296-1.7098-1.19253-1.71 1.19253.65327-1.9296-1.70994-1.19255 2.11333-.00001zm0-33.06666.65309 1.92956 2.11342.00002-1.70984 1.19254.65313 1.92961-1.7098-1.19253-1.71 1.19253.65327-1.92961-1.70994-1.19254 2.11333-.00002zm0-66.13335.65309 1.92958 2.11342.00001-1.70984 1.19255.65313 1.9296-1.7098-1.19254-1.71 1.19254.65327-1.9296-1.70994-1.19255 2.11333-.00001zm0-33.06666.65309 1.92957 2.11342.00001-1.70984 1.19255.65313 1.92961-1.7098-1.19254-1.71 1.19254.65327-1.92961-1.70994-1.19255 2.11333-.00001zm0-33.06666.65309 1.92958 2.11342.00001-1.70984 1.19253.65313 1.92961-1.7098-1.19253-1.71 1.19253.65327-1.92961-1.70994-1.19253 2.11333-.00001zm0-33.06668.65309 1.92959 2.11342.00001-1.70984 1.19253.65313 1.9296-1.7098-1.19253-1.71 1.19253.65327-1.9296-1.70994-1.19253 2.11333-.00001zm0-33.06666.65309 1.92958 2.11342.00001-1.70984 1.19254.65313 1.9296-1.7098-1.19253-1.71 1.19253.65327-1.9296-1.70994-1.19254 2.11333-.00001zm0-33.06666.65309 1.92958 2.11342.00001-1.70984 1.19254.65313 1.9296-1.7098-1.19253-1.71 1.19253.65327-1.9296-1.70994-1.19254 2.11333-.00001zm25.78893 347.2.6531 1.92957 2.11343.00001-1.70986 1.19254.65313 1.9296-1.7098-1.19252-1.71 1.19252.65326-1.9296-1.70993-1.19254 2.11334-.00001zm0-33.06667.6531 1.92958 2.11343.00001-1.70986 1.19254.65313 1.9296-1.7098-1.19253-1.71 1.19253.65326-1.9296-1.70993-1.19254 2.11334-.00001zm0-33.06666.6531 1.92958 2.11343.00001-1.70986 1.19254.65313 1.92959-1.7098-1.19252-1.71 1.19252.65326-1.92959-1.70993-1.19254 2.11334-.00001zm0-33.06667.6531 1.92957 2.11343.00001-1.70986 1.19254.65313 1.92961-1.7098-1.19253-1.71 1.19253.65326-1.92961-1.70993-1.19254 2.11334-.00001zm0-33.06666.6531 1.92956 2.11343.00002-1.70986 1.19254.65313 1.92961-1.7098-1.19253-1.71 1.19253.65326-1.92961-1.70993-1.19254 2.11334-.00002zm0-33.06667.6531 1.92957 2.11343.00001-1.70986 1.19255.65313 1.9296-1.7098-1.19254-1.71 1.19254.65326-1.9296-1.70993-1.19255 2.11334-.00001zm0-33.06668.6531 1.92957 2.11343.00001-1.70986 1.19256.65313 1.9296-1.7098-1.19254-1.71 1.19254.65326-1.9296-1.70993-1.19256 2.11334-.00001zm0-33.06666.6531 1.92957 2.11343.00001-1.70986 1.19254.65313 1.92961-1.7098-1.19253-1.71 1.19253.65326-1.92961-1.70993-1.19254 2.11334-.00001zm0-33.06667.6531 1.92959 2.11343.00001-1.70986 1.19253.65313 1.92961-1.7098-1.19254-1.71 1.19254.65326-1.92961-1.70993-1.19253 2.11334-.00001zm0-33.06667.6531 1.92959 2.11343.00001-1.70986 1.19253.65313 1.9296-1.7098-1.19253-1.71 1.19253.65326-1.9296-1.70993-1.19253 2.11334-.00001zm0-33.06666.6531 1.92958 2.11343.00001-1.70986 1.19255.65313 1.92959-1.7098-1.19253-1.71 1.19253.65326-1.92959-1.70993-1.19255 2.11334-.00001zm25.79 314.13334.65308 1.92957 2.11344.00001-1.70985 1.19254.65312 1.9296-1.70979-1.19252-1.71 1.19252.65326-1.9296-1.70993-1.19254 2.11334-.00001zm0-33.06667.65308 1.92958 2.11344.00001-1.70985 1.19254.65312 1.92959-1.70979-1.19252-1.71 1.19252.65326-1.92959-1.70993-1.19254 2.11334-.00001zm0-33.06667.65308 1.92957 2.11344.00001-1.70985 1.19255.65312 1.9296-1.70979-1.19253-1.71 1.19253.65326-1.9296-1.70993-1.19255 2.11334-.00001zm0-33.06666.65308 1.92956 2.11344.00002-1.70985 1.19254.65312 1.92961-1.70979-1.19253-1.71 1.19253.65326-1.92961-1.70993-1.19254 2.11334-.00002zm0-33.06667.65308 1.92957 2.11344.00001-1.70985 1.19255.65312 1.92961L494.44434 488l-1.71 1.19255.65326-1.92961-1.70993-1.19255 2.11334-.00001zm0-33.06668.65308 1.92958 2.11344.00001-1.70985 1.19255.65312 1.9296-1.70979-1.19254-1.71 1.19254.65326-1.9296-1.70993-1.19255 2.11334-.00001zm0-33.06666.65308 1.92957 2.11344.00001-1.70985 1.19255.65312 1.92961-1.70979-1.19254-1.71 1.19254.65326-1.92961-1.70993-1.19255 2.11334-.00001zm0-33.06666.65308 1.92958 2.11344.00001-1.70985 1.19253.65312 1.92961-1.70979-1.19253-1.71 1.19253.65326-1.92961-1.70993-1.19253 2.11334-.00001zm0-33.06668.65308 1.92959 2.11344.00001-1.70985 1.19253.65312 1.9296-1.70979-1.19253-1.71 1.19253.65326-1.9296-1.70993-1.19253 2.11334-.00001zm0-33.06666.65308 1.92958 2.11344.00001-1.70985 1.19254.65312 1.9296-1.70979-1.19253-1.71 1.19253.65326-1.9296-1.70993-1.19254 2.11334-.00001zm25.78949 314.13334.65309 1.92957 2.11343.00001-1.70986 1.19254.65313 1.9296-1.70979-1.19252-1.71001 1.19252.65327-1.9296-1.70994-1.19254 2.11334-.00001zm0-33.06667.65309 1.92958 2.11343.00001-1.70986 1.19254.65313 1.9296-1.70979-1.19253-1.71001 1.19253.65327-1.9296-1.70994-1.19254 2.11334-.00001zm0-33.06666.65309 1.92958 2.11343.00001-1.70986 1.19254.65313 1.92959-1.70979-1.19252-1.71001 1.19252.65327-1.92959-1.70994-1.19254 2.11334-.00001zm0-33.06667.65309 1.92957 2.11343.00001-1.70986 1.19254.65313 1.92961-1.70979-1.19253-1.71001 1.19253.65327-1.92961-1.70994-1.19254 2.11334-.00001zm0-33.06666.65309 1.92956 2.11343.00002-1.70986 1.19254.65313 1.92961-1.70979-1.19253-1.71001 1.19253.65327-1.92961-1.70994-1.19254 2.11334-.00002zm0-33.06667.65309 1.92957 2.11343.00001-1.70986 1.19255.65313 1.9296-1.70979-1.19254-1.71001 1.19254.65327-1.9296-1.70994-1.19255 2.11334-.00001zm0-33.06668.65309 1.92957 2.11343.00001-1.70986 1.19256.65313 1.9296-1.70979-1.19254-1.71001 1.19254.65327-1.9296-1.70994-1.19256 2.11334-.00001zm0-33.06666.65309 1.92957 2.11343.00001-1.70986 1.19254.65313 1.92961-1.70979-1.19253-1.71001 1.19253.65327-1.92961-1.70994-1.19254 2.11334-.00001zm0-33.06667.65309 1.92959 2.11343.00001-1.70986 1.19253.65313 1.92961-1.70979-1.19254-1.71001 1.19254.65327-1.92961-1.70994-1.19253 2.11334-.00001zm0-33.06667.65309 1.92959 2.11343.00001-1.70986 1.19253.65313 1.9296-1.70979-1.19253-1.71001 1.19253.65327-1.9296-1.70994-1.19253 2.11334-.00001zm25.78938 281.06668.65308 1.92957 2.11344.00001-1.70987 1.19254.65314 1.9296-1.70979-1.19252-1.71 1.19252.65326-1.9296-1.70993-1.19254 2.11334-.00001zm0-33.06667.65308 1.92958 2.11344.00001-1.70987 1.19254.65314 1.92959-1.70979-1.19252-1.71 1.19252.65326-1.92959-1.70993-1.19254 2.11334-.00001zm0-33.06667.65308 1.92957 2.11344.00001-1.70987 1.19255.65314 1.9296-1.70979-1.19253-1.71 1.19253.65326-1.9296-1.70993-1.19255 2.11334-.00001zm0-33.06666.65308 1.92956 2.11344.00002-1.70987 1.19254.65314 1.92961-1.70979-1.19253-1.71 1.19253.65326-1.92961-1.70993-1.19254 2.11334-.00002zm0-33.06667.65308 1.92957 2.11344.00001-1.70987 1.19255.65314 1.92961L546.02321 488l-1.71 1.19255.65326-1.92961-1.70993-1.19255 2.11334-.00001zm0-33.06668.65308 1.92958 2.11344.00001-1.70987 1.19255.65314 1.9296-1.70979-1.19254-1.71 1.19254.65326-1.9296-1.70993-1.19255 2.11334-.00001zm0-33.06666.65308 1.92957 2.11344.00001-1.70987 1.19255.65314 1.92961-1.70979-1.19254-1.71 1.19254.65326-1.92961-1.70993-1.19255 2.11334-.00001zm0-33.06666.65308 1.92958 2.11344.00001-1.70987 1.19253.65314 1.92961-1.70979-1.19253-1.71 1.19253.65326-1.92961-1.70993-1.19253 2.11334-.00001zm0-33.06668.65308 1.92959 2.11344.00001-1.70987 1.19253.65314 1.9296-1.70979-1.19253-1.71 1.19253.65326-1.9296-1.70993-1.19253 2.11334-.00001zm25.78954 281.06668.6531 1.92957 2.11342.00001-1.70985 1.19254.65313 1.9296-1.7098-1.19252-1.70999 1.19252.65326-1.9296-1.70993-1.19254 2.11333-.00001zm0-33.06667.6531 1.92958 2.11342.00001-1.70985 1.19254.65313 1.9296-1.7098-1.19253-1.70999 1.19253.65326-1.9296-1.70993-1.19254 2.11333-.00001zm0-33.06666.6531 1.92958 2.11342.00001-1.70985 1.19254.65313 1.92959-1.7098-1.19252-1.70999 1.19252.65326-1.92959-1.70993-1.19254 2.11333-.00001zm0-33.06667.6531 1.92957 2.11342.00001-1.70985 1.19254.65313 1.92961-1.7098-1.19253-1.70999 1.19253.65326-1.92961-1.70993-1.19254 2.11333-.00001zm0-33.06666.6531 1.92956 2.11342.00002-1.70985 1.19254.65313 1.92961-1.7098-1.19253-1.70999 1.19253.65326-1.92961-1.70993-1.19254 2.11333-.00002zm0-33.06667.6531 1.92957 2.11342.00001-1.70985 1.19255.65313 1.9296-1.7098-1.19254-1.70999 1.19254.65326-1.9296-1.70993-1.19255 2.11333-.00001zm0-33.06668.6531 1.92957 2.11342.00001-1.70985 1.19256.65313 1.9296-1.7098-1.19254-1.70999 1.19254.65326-1.9296-1.70993-1.19256 2.11333-.00001zm0-33.06666.6531 1.92957 2.11342.00001-1.70985 1.19254.65313 1.92961-1.7098-1.19253-1.70999 1.19253.65326-1.92961-1.70993-1.19254 2.11333-.00001zm0-33.06667.6531 1.92959 2.11342.00001-1.70985 1.19253.65313 1.92961-1.7098-1.19254-1.70999 1.19254.65326-1.92961-1.70993-1.19253 2.11333-.00001zm25.78933 248.00001.65308 1.92957 2.11343.00001-1.70985 1.19254.65313 1.9296-1.70979-1.19252-1.71001 1.19252.65327-1.9296-1.70994-1.19254 2.11334-.00001zm0-33.06667.65308 1.92958 2.11343.00001-1.70985 1.19254.65313 1.92959-1.70979-1.19252-1.71001 1.19252.65327-1.92959-1.70994-1.19254 2.11334-.00001zm0-33.06667.65308 1.92957 2.11343.00001-1.70985 1.19255.65313 1.9296-1.70979-1.19253-1.71001 1.19253.65327-1.9296-1.70994-1.19255 2.11334-.00001zm0-33.06666.65308 1.92956 2.11343.00002-1.70985 1.19254.65313 1.92961-1.70979-1.19253-1.71001 1.19253.65327-1.92961-1.70994-1.19254 2.11334-.00002zm0-33.06667.65308 1.92957 2.11343.00001-1.70985 1.19255.65313 1.92961L597.60208 488l-1.71001 1.19255.65327-1.92961-1.70994-1.19255 2.11334-.00001zm0-33.06668.65308 1.92958 2.11343.00001-1.70985 1.19255.65313 1.9296-1.70979-1.19254-1.71001 1.19254.65327-1.9296-1.70994-1.19255 2.11334-.00001zm0-33.06666.65308 1.92957 2.11343.00001-1.70985 1.19255.65313 1.92961-1.70979-1.19254-1.71001 1.19254.65327-1.92961-1.70994-1.19255 2.11334-.00001zm0-33.06666.65308 1.92958 2.11343.00001-1.70985 1.19253.65313 1.92961-1.70979-1.19253-1.71001 1.19253.65327-1.92961-1.70994-1.19253 2.11334-.00001zm25.78957 248 .65311 1.92957 2.11342.00001-1.70986 1.19254.65314 1.9296-1.70981-1.19252-1.70999 1.19252.65327-1.9296-1.70994-1.19254 2.11334-.00001zm0-33.06667.65311 1.92958 2.11342.00001-1.70986 1.19254.65314 1.9296-1.70981-1.19253-1.70999 1.19253.65327-1.9296-1.70994-1.19254 2.11334-.00001zm0-33.06666.65311 1.92958 2.11342.00001-1.70986 1.19254.65314 1.92959-1.70981-1.19252-1.70999 1.19252.65327-1.92959-1.70994-1.19254 2.11334-.00001zm0-33.06667.65311 1.92957 2.11342.00001-1.70986 1.19254.65314 1.92961-1.70981-1.19253-1.70999 1.19253.65327-1.92961-1.70994-1.19254 2.11334-.00001zm0-33.06666.65311 1.92956 2.11342.00002-1.70986 1.19254.65314 1.92961-1.70981-1.19253-1.70999 1.19253.65327-1.92961-1.70994-1.19254 2.11334-.00002zm0-33.06667.65311 1.92957 2.11342.00001-1.70986 1.19255.65314 1.9296-1.70981-1.19254-1.70999 1.19254.65327-1.9296-1.70994-1.19255 2.11334-.00001zm0-33.06668.65311 1.92957 2.11342.00001-1.70986 1.19256.65314 1.9296-1.70981-1.19254-1.70999 1.19254.65327-1.9296-1.70994-1.19256 2.11334-.00001zm0-33.06666.65311 1.92957 2.11342.00001-1.70986 1.19254.65314 1.92961-1.70981-1.19253-1.70999 1.19253.65327-1.92961-1.70994-1.19254 2.11334-.00001zm25.78932 214.93334.65309 1.92957 2.11343.00001-1.70986 1.19254.65313 1.9296-1.70979-1.19252-1.71 1.19252.65326-1.9296-1.70993-1.19254 2.11334-.00001zm0-33.06667.65309 1.92958 2.11343.00001-1.70986 1.19254.65313 1.92959-1.70979-1.19252-1.71 1.19252.65326-1.92959-1.70993-1.19254 2.11334-.00001zm0-33.06667.65309 1.92957 2.11343.00001-1.70986 1.19255.65313 1.9296-1.70979-1.19253-1.71 1.19253.65326-1.9296-1.70993-1.19255 2.11334-.00001zm0-33.06666.65309 1.92956 2.11343.00002-1.70986 1.19254.65313 1.92961-1.70979-1.19253-1.71 1.19253.65326-1.92961-1.70993-1.19254 2.11334-.00002zm0-33.06667.65309 1.92957 2.11343.00001-1.70986 1.19255.65313 1.92961L649.18097 488l-1.71 1.19255.65326-1.92961-1.70993-1.19255 2.11334-.00001zm0-33.06668.65309 1.92958 2.11343.00001-1.70986 1.19255.65313 1.9296-1.70979-1.19254-1.71 1.19254.65326-1.9296-1.70993-1.19255 2.11334-.00001zm0-33.06666.65309 1.92957 2.11343.00001-1.70986 1.19255.65313 1.92961-1.70979-1.19254-1.71 1.19254.65326-1.92961-1.70993-1.19255 2.11334-.00001zm25.78965 214.93334.6531 1.92957 2.11342.00001-1.70985 1.19254.65314 1.9296-1.70981-1.19252-1.71 1.19252.65328-1.9296-1.70995-1.19254 2.11333-.00001zm0-33.06667.6531 1.92958 2.11342.00001-1.70985 1.19254.65314 1.9296-1.70981-1.19253-1.71 1.19253.65328-1.9296-1.70995-1.19254 2.11333-.00001zm0-33.06666.6531 1.92958 2.11342.00001-1.70985 1.19254.65314 1.92959-1.70981-1.19252-1.71 1.19252.65328-1.92959-1.70995-1.19254 2.11333-.00001zm0-33.06667.6531 1.92957 2.11342.00001-1.70985 1.19254.65314 1.92961-1.70981-1.19253-1.71 1.19253.65328-1.92961-1.70995-1.19254 2.11333-.00001zm0-33.06666.6531 1.92956 2.11342.00002-1.70985 1.19254.65314 1.92961-1.70981-1.19253-1.71 1.19253.65328-1.92961-1.70995-1.19254 2.11333-.00002zm0-33.06667.6531 1.92957 2.11342.00001-1.70985 1.19255.65314 1.9296-1.70981-1.19254-1.71 1.19254.65328-1.9296-1.70995-1.19255 2.11333-.00001zm0-33.06668.6531 1.92957 2.11342.00001-1.70985 1.19256.65314 1.9296-1.70981-1.19254-1.71 1.19254.65328-1.9296-1.70995-1.19256 2.11333-.00001zm25.78925 181.86668.65311 1.92957 2.11342.00001-1.70986 1.19254.65314 1.9296-1.70981-1.19252-1.71 1.19252.65327-1.9296-1.70993-1.19254 2.11333-.00001zm0-33.06667.65311 1.92958 2.11342.00001-1.70986 1.19254.65314 1.92959-1.70981-1.19252-1.71 1.19252.65327-1.92959-1.70993-1.19254 2.11333-.00001zm0-33.06667.65311 1.92957 2.11342.00001-1.70986 1.19255.65314 1.9296-1.70981-1.19253-1.71 1.19253.65327-1.9296-1.70993-1.19255 2.11333-.00001zm0-33.06666.65311 1.92956 2.11342.00002-1.70986 1.19254.65314 1.92961-1.70981-1.19253-1.71 1.19253.65327-1.92961-1.70993-1.19254 2.11333-.00002zm0-33.06667.65311 1.92957 2.11342.00001-1.70986 1.19255.65314 1.92961L700.75987 488l-1.71 1.19255.65327-1.92961-1.70993-1.19255 2.11333-.00001zm0-33.06668.65311 1.92958 2.11342.00001-1.70986 1.19255.65314 1.9296-1.70981-1.19254-1.71 1.19254.65327-1.9296-1.70993-1.19255 2.11333-.00001zm25.78966 181.86668.65309 1.92957 2.11342.00001-1.70985 1.19254.65314 1.9296-1.7098-1.19252-1.71 1.19252.65327-1.9296-1.70994-1.19254 2.11334-.00001zm0-33.06667.65309 1.92958 2.11342.00001-1.70985 1.19254.65314 1.9296-1.7098-1.19253-1.71 1.19253.65327-1.9296-1.70994-1.19254 2.11334-.00001zm0-33.06666.65309 1.92958 2.11342.00001-1.70985 1.19254.65314 1.92959-1.7098-1.19252-1.71 1.19252.65327-1.92959-1.70994-1.19254 2.11334-.00001zm0-33.06667.65309 1.92957 2.11342.00001-1.70985 1.19254.65314 1.92961-1.7098-1.19253-1.71 1.19253.65327-1.92961-1.70994-1.19254 2.11334-.00001zm0-33.06666.65309 1.92956 2.11342.00002-1.70985 1.19254.65314 1.92961-1.7098-1.19253-1.71 1.19253.65327-1.92961-1.70994-1.19254 2.11334-.00002zm0-33.06667.65309 1.92957 2.11342.00001-1.70985 1.19255.65314 1.9296-1.7098-1.19254-1.71 1.19254.65327-1.9296-1.70994-1.19255 2.11334-.00001zm25.78917 148.8.6531 1.92957 2.11342.00001-1.70985 1.19254.65313 1.9296-1.7098-1.19252-1.71 1.19252.65327-1.9296-1.70994-1.19254 2.11334-.00001zm0-33.06667.6531 1.92958 2.11342.00001-1.70985 1.19254.65313 1.92959-1.7098-1.19252-1.71 1.19252.65327-1.92959-1.70994-1.19254 2.11334-.00001zm0-33.06667.6531 1.92957 2.11342.00001-1.70985 1.19255.65313 1.9296-1.7098-1.19253-1.71 1.19253.65327-1.9296-1.70994-1.19255 2.11334-.00001zm0-33.06666.6531 1.92956 2.11342.00002-1.70985 1.19254.65313 1.92961-1.7098-1.19253-1.71 1.19253.65327-1.92961-1.70994-1.19254 2.11334-.00002zm0-33.06667.6531 1.92957 2.11342.00001-1.70985 1.19255.65313 1.92961L752.3387 488l-1.71 1.19255.65327-1.92961-1.70994-1.19255 2.11334-.00001zm25.7898 148.8.65309 1.92957 2.11342.00001-1.70985 1.19254.65314 1.9296-1.7098-1.19252-1.71 1.19252.65326-1.9296-1.70993-1.19254 2.11334-.00001zm0-33.06667.65309 1.92958 2.11342.00001-1.70985 1.19254.65314 1.9296-1.7098-1.19253-1.71 1.19253.65326-1.9296-1.70993-1.19254 2.11334-.00001zm0-33.06666.65309 1.92958 2.11342.00001-1.70985 1.19254.65314 1.92959-1.7098-1.19252-1.71 1.19252.65326-1.92959-1.70993-1.19254 2.11334-.00001zm0-33.06667.65309 1.92957 2.11342.00001-1.70985 1.19254.65314 1.92961-1.7098-1.19253-1.71 1.19253.65326-1.92961-1.70993-1.19254 2.11334-.00001zm0-33.06666.65309 1.92956 2.11342.00002-1.70985 1.19254.65314 1.92961-1.7098-1.19253-1.71 1.19253.65326-1.92961-1.70993-1.19254 2.11334-.00002zm25.78911 115.73333.65309 1.92957 2.11343.00001-1.70986 1.19254.65313 1.9296-1.70979-1.19252-1.71 1.19252.65326-1.9296-1.70993-1.19254 2.11334-.00001zm0-33.06667.65309 1.92958 2.11343.00001-1.70986 1.19254.65313 1.92959-1.70979-1.19252-1.71 1.19252.65326-1.92959-1.70993-1.19254 2.11334-.00001zm0-33.06667.65309 1.92957 2.11343.00001-1.70986 1.19255.65313 1.9296-1.70979-1.19253-1.71 1.19253.65326-1.9296-1.70993-1.19255 2.11334-.00001zm0-33.06666.65309 1.92956 2.11343.00002-1.70986 1.19254.65313 1.92961-1.70979-1.19253-1.71 1.19253.65326-1.92961-1.70993-1.19254 2.11334-.00002zm25.78979 115.73333.65308 1.92957 2.11343.00001-1.70985 1.19254.65313 1.9296-1.70979-1.19252-1.71001 1.19252.65327-1.9296-1.70994-1.19254 2.11334-.00001zm0-33.06667.65308 1.92958 2.11343.00001-1.70985 1.19254.65313 1.9296-1.70979-1.19253-1.71001 1.19253.65327-1.9296-1.70994-1.19254 2.11334-.00001zm0-33.06666.65308 1.92958 2.11343.00001-1.70985 1.19254.65313 1.92959-1.70979-1.19252-1.71001 1.19252.65327-1.92959-1.70994-1.19254 2.11334-.00001zm0-33.06667.65308 1.92957 2.11343.00001-1.70985 1.19254.65313 1.92961-1.70979-1.19253-1.71001 1.19253.65327-1.92961-1.70994-1.19254 2.11334-.00001zm25.7891 82.66667.6531 1.92957 2.11343.00001-1.70986 1.19254.65314 1.9296-1.70981-1.19252-1.71 1.19252.65326-1.9296-1.70993-1.19254 2.11334-.00001zm0-33.06667.6531 1.92958 2.11343.00001-1.70986 1.19254.65314 1.92959-1.70981-1.19252-1.71 1.19252.65326-1.92959-1.70993-1.19254 2.11334-.00001zm0-33.06667.6531 1.92957 2.11343.00001-1.70986 1.19255.65314 1.9296-1.70981-1.19253-1.71 1.19253.65326-1.9296-1.70993-1.19255 2.11334-.00001zm25.78987 82.66667.65308 1.92957 2.11342.00001-1.70984 1.19254.65313 1.9296-1.70979-1.19252-1.71 1.19252.65326-1.9296-1.70993-1.19254 2.11334-.00001zm0-33.06667.65308 1.92958 2.11342.00001-1.70984 1.19254.65313 1.9296-1.70979-1.19253-1.71 1.19253.65326-1.9296-1.70993-1.19254 2.11334-.00001zm0-33.06666.65308 1.92958 2.11342.00001-1.70984 1.19254.65313 1.92959-1.70979-1.19252-1.71 1.19252.65326-1.92959-1.70993-1.19254 2.11334-.00001zm25.78897 49.6.6531 1.92957 2.11342.00001-1.70985 1.19254.65313 1.9296-1.7098-1.19252-1.71 1.19252.65327-1.9296-1.70994-1.19254 2.11333-.00001zm0-33.06667.6531 1.92958 2.11342.00001-1.70985 1.19254.65313 1.92959-1.7098-1.19252-1.71 1.19252.65327-1.92959-1.70994-1.19254 2.11333-.00001zm25.78992 49.6.65309 1.92957 2.11343.00001-1.70986 1.19254.65314 1.9296-1.7098-1.19252-1.71 1.19252.65326-1.9296-1.70993-1.19254 2.11334-.00001zm0-33.06667.65309 1.92958 2.11343.00001-1.70986 1.19254.65314 1.9296-1.7098-1.19253-1.71 1.19253.65326-1.9296-1.70993-1.19254 2.11334-.00001zm25.78898 16.53334.65309 1.92957 2.11343.00001-1.70986 1.19254.65313 1.9296-1.70979-1.19252-1.71 1.19252.65326-1.9296-1.70993-1.19254 2.11334-.00001zm25.79 16.53333.65309 1.92957 2.11343.00001-1.70986 1.19254.65313 1.9296-1.70979-1.19252-1.71001 1.19252.65327-1.9296-1.70994-1.19254 2.11334-.00001zM210.75997 499.07414l.65309 1.92959 2.11342.00001-1.70984 1.19253.65313 1.9296-1.7098-1.19253-1.71001 1.19253.65328-1.9296-1.70994-1.19253 2.11333-.00001zm0 33.06666.65309 1.92959 2.11342.00001-1.70984 1.19253.65313 1.92961-1.7098-1.19253-1.71001 1.19253.65328-1.92961-1.70994-1.19253 2.11333-.00001zm25.78998-14.29332.65311 1.92956 2.11342.00002-1.70986 1.19254.65315 1.9296-1.70982-1.19252-1.71 1.19252.65328-1.9296-1.70994-1.19254 2.11333-.00002zm77.36776 15.03999.6531 1.92957 2.11343.00001-1.70986 1.19256.65314 1.92959-1.70981-1.19253-1.71 1.19253.65326-1.92959-1.70993-1.19256 2.11334-.00001zm51.57887-.10666.65309 1.92957 2.11343.00001-1.70986 1.19254.65313 1.92961-1.70979-1.19253-1.71001 1.19253.65327-1.92961-1.70994-1.19254 2.11334-.00001zm25.78989-15.04001.65309 1.92958 2.11343.00001-1.70986 1.19254.65314 1.92961-1.7098-1.19254-1.71 1.19254.65326-1.92961-1.70993-1.19254 2.11334-.00001zm25.78901-51.73332.6531 1.92957 2.11342.00001-1.70985 1.19256.65313 1.92959-1.7098-1.19254-1.71 1.19254.65327-1.92959-1.70993-1.19256 2.11333-.00001zm0 33.06666.6531 1.92959 2.11342.00001-1.70985 1.19253.65313 1.9296-1.7098-1.19253-1.71 1.19253.65327-1.9296-1.70993-1.19253 2.11333-.00001zm0 34.23999.6531 1.92959 2.11342.00001-1.70985 1.19253.65313 1.92961-1.7098-1.19254-1.71 1.19254.65327-1.92961-1.70993-1.19253 2.11333-.00001zm25.78993-50.77332.65309 1.92958 2.11342.00002-1.70984 1.19253.65313 1.9296-1.7098-1.19253-1.71 1.19253.65327-1.9296-1.70994-1.19253 2.11333-.00002zm-257.8947-64.42667.65309 1.92958 2.11342.00001-1.70984 1.19254.65313 1.92959-1.7098-1.19252-1.70999 1.19252.65326-1.92959-1.70993-1.19254 2.11334-.00001zm0-33.06666.65309 1.92957 2.11342.00001-1.70984 1.19255.65313 1.92959-1.7098-1.19252-1.70999 1.19252.65326-1.92959-1.70993-1.19255 2.11334-.00001zm0-33.06667.65309 1.92956 2.11342.00002-1.70984 1.19254.65313 1.92961-1.7098-1.19253-1.70999 1.19253.65326-1.92961-1.70993-1.19254 2.11334-.00002zm25.78926 49.6.65309 1.92958 2.11342.00001-1.70984 1.19254.65313 1.92959-1.7098-1.19252-1.71001 1.19252.65328-1.92959-1.70994-1.19254 2.11333-.00001zm0-33.06666.65309 1.92957 2.11342.00001-1.70984 1.19254.65313 1.92961-1.7098-1.19253-1.71001 1.19253.65328-1.92961-1.70994-1.19254 2.11333-.00001zm0-33.06668.65309 1.92957 2.11342.00001-1.70984 1.19255.65313 1.92961-1.7098-1.19253-1.71001 1.19253.65328-1.92961-1.70994-1.19255 2.11333-.00001zm25.78998 49.60001.65311 1.92957 2.11342.00001-1.70986 1.19255.65315 1.92959-1.70982-1.19252-1.71 1.19252.65328-1.92959-1.70994-1.19255 2.11333-.00001zm0-33.06667.65311 1.92956 2.11342.00002-1.70986 1.19254.65315 1.92961-1.70982-1.19253-1.71 1.19253.65328-1.92961-1.70994-1.19254 2.11333-.00002zm0-33.06667.65311 1.92957 2.11342.00001-1.70986 1.19255.65315 1.92961-1.70982-1.19255-1.71 1.19255.65328-1.92961-1.70994-1.19255 2.11333-.00001zm25.78889 49.60001.65308 1.92957 2.11343.00001-1.70984 1.19254.65313 1.92961-1.7098-1.19253-1.71 1.19253.65327-1.92961-1.70993-1.19254 2.11333-.00001zm0-33.06668.65308 1.92957 2.11343.00001-1.70984 1.19255.65313 1.92961-1.7098-1.19253-1.71 1.19253.65327-1.92961-1.70993-1.19255 2.11333-.00001zm0-33.06667.65308 1.92958 2.11343.00001-1.70984 1.19255.65313 1.9296-1.7098-1.19254-1.71 1.19254.65327-1.9296-1.70993-1.19255 2.11333-.00001zm25.78977 49.60001.65308 1.92956 2.11343.00002-1.70985 1.19254.65313 1.92961-1.70979-1.19253-1.71001 1.19253.65327-1.92961-1.70994-1.19254 2.11334-.00002zm0-33.06667.65308 1.92957 2.11343.00001-1.70985 1.19255.65313 1.92961-1.70979-1.19255-1.71001 1.19255.65327-1.92961-1.70994-1.19255 2.11334-.00001zm0-33.06667.65308 1.92958 2.11343.00001-1.70985 1.19255.65313 1.9296-1.70979-1.19254-1.71001 1.19254.65327-1.9296-1.70994-1.19255 2.11334-.00001zm25.7891 82.66668.6531 1.92957 2.11343.00001-1.70986 1.19254.65314 1.92961-1.70981-1.19253-1.71 1.19253.65326-1.92961-1.70993-1.19254 2.11334-.00001zm0-33.06668.6531 1.92957 2.11343.00001-1.70986 1.19255.65314 1.92961-1.70981-1.19253-1.71 1.19253.65326-1.92961-1.70993-1.19255 2.11334-.00001zm0-33.06667.6531 1.92958 2.11343.00001-1.70986 1.19255.65314 1.9296-1.70981-1.19254-1.71 1.19254.65326-1.9296-1.70993-1.19255 2.11334-.00001zm25.78983 82.66668.65309 1.92957 2.11342.00001-1.70984 1.19255.65313 1.92959-1.7098-1.19252-1.70999 1.19252.65326-1.92959-1.70993-1.19255 2.11333-.00001zm0-33.06667.65309 1.92956 2.11342.00002-1.70984 1.19254.65313 1.92961-1.7098-1.19253-1.70999 1.19253.65326-1.92961-1.70993-1.19254 2.11333-.00002zm0-33.06667.65309 1.92957 2.11342.00001-1.70984 1.19255.65313 1.92961-1.7098-1.19255-1.70999 1.19255.65326-1.92961-1.70993-1.19255 2.11333-.00001zm25.78904 82.66667.65309 1.92958 2.11343.00001-1.70986 1.19254.65313 1.92959-1.70979-1.19252-1.71001 1.19252.65327-1.92959-1.70994-1.19254 2.11334-.00001zm0-33.06666.65309 1.92957 2.11343.00001-1.70986 1.19254.65313 1.92961-1.70979-1.19253-1.71001 1.19253.65327-1.92961-1.70994-1.19254 2.11334-.00001zm0-33.06668.65309 1.92957 2.11343.00001-1.70986 1.19255.65313 1.92961-1.70979-1.19253-1.71001 1.19253.65327-1.92961-1.70994-1.19255 2.11334-.00001zm25.78989 82.66667.65309 1.92958 2.11343.00001-1.70986 1.19254.65314 1.92959-1.7098-1.19252-1.71 1.19252.65326-1.92959-1.70993-1.19254 2.11334-.00001zm0-33.06666.65309 1.92957 2.11343.00001-1.70986 1.19255.65314 1.92959-1.7098-1.19252-1.71 1.19252.65326-1.92959-1.70993-1.19255 2.11334-.00001zm0-33.06667.65309 1.92956 2.11343.00002-1.70986 1.19254.65314 1.92961-1.7098-1.19253-1.71 1.19253.65326-1.92961-1.70993-1.19254 2.11334-.00002zm25.78901 82.66666.6531 1.92958 2.11342.00001-1.70985 1.19254.65313 1.9296-1.7098-1.19253-1.71 1.19253.65327-1.9296-1.70993-1.19254 2.11333-.00001zm0-33.06666.6531 1.92958 2.11342.00001-1.70985 1.19254.65313 1.92959-1.7098-1.19252-1.71 1.19252.65327-1.92959-1.70993-1.19254 2.11333-.00001zm0-33.06666.6531 1.92957 2.11342.00001-1.70985 1.19254.65313 1.92961-1.7098-1.19253-1.71 1.19253.65327-1.92961-1.70993-1.19254 2.11333-.00001zM184.97071 451.8208l.65309 1.92958 2.11342.00001-1.70984 1.19254.65313 1.9296-1.7098-1.19253-1.70999 1.19253.65326-1.9296-1.70993-1.19254 2.11334-.00001zm25.78926 16.53334.65309 1.92958 2.11342.00001-1.70984 1.19254.65313 1.9296-1.7098-1.19253-1.71001 1.19253.65328-1.9296-1.70994-1.19254 2.11333-.00001zm0-33.06668.65309 1.92959 2.11342.00001-1.70984 1.19254.65313 1.9296-1.7098-1.19254-1.71001 1.19254.65328-1.9296-1.70994-1.19254 2.11333-.00001zm25.78998 16.53334.65311 1.92958 2.11342.00001-1.70986 1.19254.65315 1.9296-1.70982-1.19253-1.71 1.19253.65328-1.9296-1.70994-1.19254 2.11333-.00001zm0-33.06667.65311 1.92959 2.11342.00001-1.70986 1.19254.65315 1.9296-1.70982-1.19254-1.71 1.19254.65328-1.9296-1.70994-1.19254 2.11333-.00001zm25.78889 49.60001.65308 1.92958 2.11343.00001-1.70984 1.19254.65313 1.9296-1.7098-1.19253-1.71 1.19253.65327-1.9296-1.70993-1.19254 2.11333-.00001zm0-33.06668.65308 1.92959 2.11343.00001-1.70984 1.19254.65313 1.9296-1.7098-1.19254-1.71 1.19254.65327-1.9296-1.70993-1.19254 2.11333-.00001zm0-33.06665.65308 1.92958 2.11343.00001-1.70984 1.19254.65313 1.92959-1.7098-1.19253-1.71 1.19253.65327-1.92959-1.70993-1.19254 2.11333-.00001zm25.78977 49.59999.65308 1.92958 2.11343.00001-1.70985 1.19254.65313 1.9296-1.70979-1.19253-1.71001 1.19253.65327-1.9296-1.70994-1.19254 2.11334-.00001zm0-33.06667.65308 1.92959 2.11343.00001-1.70985 1.19254.65313 1.9296-1.70979-1.19254-1.71001 1.19254.65327-1.9296-1.70994-1.19254 2.11334-.00001zm0-33.06665.65308 1.92958 2.11343.00001-1.70985 1.19254.65313 1.92959-1.70979-1.19252-1.71001 1.19252.65327-1.92959-1.70994-1.19254 2.11334-.00001zm25.7891 82.66666.6531 1.92958 2.11343.00001-1.70986 1.19254.65314 1.9296-1.70981-1.19253-1.71 1.19253.65326-1.9296-1.70993-1.19254 2.11334-.00001zm0-33.06668.6531 1.92959 2.11343.00001-1.70986 1.19254.65314 1.9296-1.70981-1.19254-1.71 1.19254.65326-1.9296-1.70993-1.19254 2.11334-.00001zm0-33.06665.6531 1.92958 2.11343.00001-1.70986 1.19254.65314 1.92959-1.70981-1.19253-1.71 1.19253.65326-1.92959-1.70993-1.19254 2.11334-.00001zm25.78983 49.59999.65309 1.92958 2.11342.00001-1.70984 1.19254.65313 1.9296-1.7098-1.19253-1.70999 1.19253.65326-1.9296-1.70993-1.19254 2.11333-.00001zm0-33.06667.65309 1.92959 2.11342.00001-1.70984 1.19254.65313 1.9296-1.7098-1.19254-1.70999 1.19254.65326-1.9296-1.70993-1.19254 2.11333-.00001zm25.78904 49.60001.65309 1.92958 2.11343.00001-1.70986 1.19254.65313 1.9296-1.70979-1.19253-1.71001 1.19253.65327-1.9296-1.70994-1.19254 2.11334-.00001zm0-33.06668.65309 1.92959 2.11343.00001-1.70986 1.19254.65313 1.9296-1.70979-1.19254-1.71001 1.19254.65327-1.9296-1.70994-1.19254 2.11334-.00001zm25.78989 16.53334.65309 1.92958 2.11343.00001-1.70986 1.19254.65314 1.9296-1.7098-1.19253-1.71 1.19253.65326-1.9296-1.70993-1.19254 2.11334-.00001zm-154.73652 32.10668.65311 1.92957 2.11342.00001-1.70986 1.19255.65315 1.92959-1.70982-1.19252-1.71 1.19252.65328-1.92959-1.70994-1.19255 2.11333-.00001zm25.78889 16.53333.65308 1.92957 2.11343.00001-1.70984 1.19255.65313 1.9296-1.7098-1.19254-1.71 1.19254.65327-1.9296-1.70993-1.19255 2.11333-.00001zm25.78977 16.53332.65308 1.92958 2.11343.00001-1.70985 1.19256.65313 1.92959-1.70979-1.19254-1.71001 1.19254.65327-1.92959-1.70994-1.19256 2.11334-.00001zm0-33.06665.65308 1.92957 2.11343.00001-1.70985 1.19255.65313 1.92959-1.70979-1.19252-1.71001 1.19252.65327-1.92959-1.70994-1.19255 2.11334-.00001zm25.7891 16.53333.6531 1.92957 2.11343.00001-1.70986 1.19255.65314 1.9296-1.70981-1.19254-1.71 1.19254.65326-1.9296-1.70993-1.19255 2.11334-.00001zm25.78983 16.53332.65309 1.92958 2.11342.00001-1.70984 1.19256.65313 1.92959-1.7098-1.19254-1.70999 1.19254.65326-1.92959-1.70993-1.19256 2.11333-.00001zm0-33.06665.65309 1.92957 2.11342.00001-1.70984 1.19255.65313 1.92959-1.7098-1.19252-1.70999 1.19252.65326-1.92959-1.70993-1.19255 2.11333-.00001zm25.78904 16.53333.65309 1.92957 2.11343.00001-1.70986 1.19255.65313 1.9296-1.70979-1.19254-1.71001 1.19254.65327-1.9296-1.70994-1.19255 2.11334-.00001zm25.78989-16.53333.65309 1.92957 2.11343.00001-1.70986 1.19255.65314 1.92959-1.7098-1.19252-1.71 1.19252.65326-1.92959-1.70993-1.19255 2.11334-.00001z"/>
  <g fill="#fcd116" transform="matrix(.75733 -.2257 .20293 .84232 2.40532762 222.25644851)">
    <path d="m254.83715 165.43849-.77906 95.49524-5.5743.33161-32.8346-92.09405 26.36554 93.7245-5.33611 1.47019-57.27459-82.23273 51.68016 85.58406-4.4693 2.90775-78.05602-67.18269 73.41625 71.4075-3.19642 4.07237-93.63989-47.37711 89.95477 52.47539-1.62356 4.86701-1.80184 5.90074-.37672 5.08716.17187 6.23355.65797 5.1132 2.12997 5.9997 1.89439 4.95555 3.97157 5.29098 3.42558 4.23903 4.87937 4.46439 4.63596 3.13692 5.78715 3.6378 5.42465 1.74103 6.56801 1.95857 5.60035.61291 6.82894.17187 5.5743-.33162 6.46905-1.63044 5.33612-1.47019 5.59442-3.35134 4.46931-2.90774 4.63977-4.22481 3.19642-4.07237 93.63988 47.37711-89.95476-52.4754 1.62356-4.86701 102.61925 24.2907-100.81741-30.19144.37672-5.08715 104.62455-.48137-104.79642-5.75218-.65797-5.11321 99.29137-25.15499-101.42134 19.1553-1.89439-4.95556 87.18393-48.01706-91.1555 42.72609-3.42559-4.23903 69.57771-67.80857-74.45707 63.34418-4.63596-3.13693 47.02913-83.0997-52.81628 79.46191-5.42465-1.74103 21.23014-92.52657-27.79815 90.568-5.60035-.61286-6.04988-95.66711z"/>
    <path d="m128.84569 370.13782 87.55538-48.28944-2.4763-4.71109-101.19706 19.18163 99.47039-25.27053-1.30889-5.08501-104.3116-5.66919 104.60618-.56524.44756-5.09554-100.82197-30.12585 102.39736 24.23404 2.15529-4.63876-90.35915-52.71725 93.21534 47.16804 3.67197-3.75269 4.53499-4.4139 4.49691-2.8458 5.82643-2.97053 5.03723-2.01505 6.58816-1.25707 5.50906-.92814 6.85451.59833 5.61327.67807 6.54629 1.75109 5.20231 2.21504 6.23804 2.90383 4.31039 3.55477 5.08128 4.37859 3.35913 4.26098 3.56609 5.48295 2.47629 4.71108 1.72667 6.08888 1.30889 5.08506-.2946 6.23442-.44756 5.09553-1.57538 5.89182-2.15527 4.63875 90.35916 52.71723-93.21537-47.16802-3.67197 3.75268 73.57916 71.56016-78.11414-67.14624-4.49692 2.84579 51.76658 85.55721-57.59298-82.58668-5.03723 2.01503 26.38259 93.52087-32.97076-92.26378-5.50906.92815-.71361 95.0564-6.14091-95.65477-5.61327-.67803-27.72598 90.57563 21.1797-92.32672-5.20231-2.21506-53.06026 79.81881 46.82219-82.72264-4.31036-3.55476-74.61596 63.485 69.53467-67.86358-3.35909-4.26102-91.12146 42.8065z"/>
    <path stroke="#806600" stroke-linecap="square" stroke-width="1.98234808" d="M321.71312 305.21403c.8751 31.73819-26.60182 56.75763-61.37142 55.88253-34.7696-.8751-63.66533-27.31336-64.54043-59.05153-.8751-31.73816 26.60181-56.75762 61.37141-55.88253 34.76961.8751 63.66535 27.31337 64.54044 59.05153z"/>
  </g>
</svg>