<svg xmlns="http://www.w3.org/2000/svg" height="600" preserveAspectRatio="xMidYMid meet" viewBox="-15 -7.5 30 15" width="1200" zoomAndPan="magnify"><title>Flag of the Bahamas (1923–1953)</title><style><![CDATA[.B{stroke:#000}.C{fill:none}.D{fill:#fed100}.E{stroke-width:.5}.F{fill:#fff}.G{fill-rule:evenodd}.H{stroke-width:1.176}.I{fill:#012169}.J{fill:#f7c600}.K{stroke-width:1.17}.L{stroke-width:2.66}.M{stroke-width:1.428}.N{stroke-width:1.361}.O{fill:#c8102e}.P{fill:#f6e078}.Q{stroke-width:.933}.R{stroke-width:.934}.S{fill:#f7dec6}.T{fill:#5a6b6b}.U{opacity:.452}.V{stroke-width:1.154}.W{stroke-linejoin:round}]]></style><clipPath id="A"><path d="m-15-7.5h30v15h-30z"/></clipPath><path d="m-15-7.5h30v15h-30z" class="I"/><g clip-path="url(#A)" transform="matrix(.5 0 0 .5 -7.5 -3.75)"><circle r="20" class="I"/><path d="m-20-10 40 20m-40 0 40-20" stroke="#fff" stroke-width="3"/><path d="m-20-10 40 20m-40 0 40-20" stroke="#c8102e" stroke-width="2"/><path d="M0 0l20 10h-3L-3 0m3 0l20-10h3L3 0M0 0l-20 10h-3L-3 0m3 0l-20-10h3L3 0" class="F"/><path d="M-20 0h40M0-10v20" stroke="#fff" stroke-width="5"/><path d="M-20 0h40M0-10v20" stroke="#c8102e" stroke-width="3"/></g><g transform="matrix(.025 0 0 .025 4.99375 -3.607445)"><g transform="matrix(.497444 0 0 .535828 -440.699993 -362.139886)"><use href="#C" class="F"/><path d="M1093.48 813.817l-6.238-1.311-4.855-1.489c.461.744 1.134 1.489 2.764 2.056-1.311-.035-3.048.461-3.686.744.638.248 2.446.744 3.757.709-1.595.567-2.197 1.311-2.552 2.056l4.43-1.382 6.379-1.382zm-23.533.107a59.52 59.52 0 0 1-6.238-1.134l-4.891-1.347c.425.744 1.134 1.453 2.8 1.985-1.347 0-3.048.567-3.65.851.638.248 2.445.673 3.757.602-1.559.602-2.162 1.382-2.516 2.126l4.395-1.524c1.985-.602 4.076-1.099 6.344-1.559zm-23.356 1.134l-6.344-.709-4.962-.992c.496.709 1.241 1.382 2.942 1.772-1.311.106-2.977.78-3.58 1.099.673.177 2.481.496 3.792.354-1.524.709-2.056 1.524-2.339 2.304l4.288-1.843a53.18 53.18 0 0 1 6.202-1.985zm70.422-.78l-6.273 1.134a44.33 44.33 0 0 0-4.891 1.382c.461-.744 1.134-1.489 2.8-1.985-1.311-.035-3.048-.567-3.65-.851.638-.248 2.445-.673 3.757-.638-1.56-.602-2.162-1.347-2.481-2.126l4.395 1.559 6.344 1.524zm23.285 1.949l-6.309.673-4.997 1.028c.532-.709 1.276-1.382 2.977-1.772-1.347-.106-3.013-.78-3.615-1.099.673-.213 2.481-.532 3.828-.354-1.524-.709-2.091-1.524-2.375-2.304l4.288 1.843 6.202 1.985z"/><path d="M1087.491 818.921c-36.079 0-57.947 2.091-56.139 3.686 12.653 5.281 37.568 6.982 56.139 7.017 18.536-.035 43.451-1.737 56.104-7.017 1.807-1.595-20.06-3.686-56.104-3.686z" fill="#ccc"/><g stroke-width=".616" class="B C"><path d="M1143.523 822.713c.319-.851-1.099-1.099-2.587-1.276-5.777-.744-12.192-1.24-17.898-1.666-8.931-.567-17.933-.744-26.935-.851h-8.612-8.648c-9.002.106-18.004.284-26.935.851-5.706.425-12.121.921-17.898 1.666-1.488.177-2.906.425-2.587 1.276"/><use href="#C"/></g></g><use href="#D" class="G O"/><use href="#D" stroke-width=".32" class="B C"/><g transform="matrix(.328343 0 0 .353729 1.746946 -218.639716)"><g transform="matrix(.798256 0 0 .798256 -314.32464 498.95953)"><g transform="matrix(-1 0 0 1 1539.1702 0)"><use href="#E" class="D"/><g class="B K"><use href="#E" class="C"/><g class="F"><ellipse cx="635.643" cy="288.303" rx="6.98" ry="7.095"/><ellipse cx="647.67" cy="275.224" rx="6.98" ry="7.095"/><ellipse cx="741.362" cy="226.831" rx="6.98" ry="7.095"/><ellipse cx="661.887" cy="262.976" rx="6.98" ry="7.095"/><ellipse cx="676.487" cy="252.205" rx="6.98" ry="7.095"/><ellipse cx="692.056" cy="243.114" rx="6.98" ry="7.095"/><ellipse cx="723.701" cy="230.687" rx="6.98" ry="7.095"/><ellipse cx="707.68" cy="236.293" rx="6.98" ry="7.095"/></g></g></g><use href="#E" class="P"/><g class="B K"><use href="#E" class="D"/><g class="F"><ellipse cx="635.643" cy="288.303" rx="6.98" ry="7.095"/><ellipse cx="647.67" cy="275.224" rx="6.98" ry="7.095"/><ellipse cx="741.362" cy="226.831" rx="6.98" ry="7.095"/><ellipse cx="661.887" cy="262.976" rx="6.98" ry="7.095"/><ellipse cx="676.487" cy="252.205" rx="6.98" ry="7.095"/><ellipse cx="692.056" cy="243.114" rx="6.98" ry="7.095"/><ellipse cx="723.701" cy="230.687" rx="6.98" ry="7.095"/><ellipse cx="707.68" cy="236.293" rx="6.98" ry="7.095"/></g></g></g><g class="B"><path d="M286.485 654.51c1.505-1.905 3.303-3.32 4.759-5.257 1.531-2.035 2.699-4.607 3.299-7.205-2.661.663-5.233 1.831-7.268 3.362-1.937 1.457-3.352 3.254-5.257 4.759v-24.401c1.905 1.505 3.32 3.303 5.257 4.759 2.035 1.531 4.607 2.699 7.268 3.362-.6-2.598-1.768-5.17-3.299-7.205-1.457-1.937-3.254-3.352-4.759-5.257h27.033c-1.505 1.905-3.303 3.32-4.759 5.257-1.531 2.035-2.699 4.607-3.299 7.205 2.661-.663 5.233-1.831 7.268-3.362 1.937-1.457 3.352-3.254 5.257-4.759v24.401c-1.905-1.505-3.32-3.303-5.257-4.759-2.035-1.531-4.607-2.699-7.268-3.362.6 2.598 1.768 5.17 3.299 7.205 1.457 1.937 3.254 3.352 4.759 5.257z" class="D Q"/><ellipse cx="300.001" cy="637.969" rx="6.703" ry="6.813" class="F R"/></g><g transform="matrix(.748448 0 0 .748448 150.171131 632.133397)"><g transform="matrix(1.863469 0 0 1.833425 97.191875 -1597.6892)"><ellipse cx="55.271" cy="898.872" rx="10.908" ry="11.086" class="D"/><ellipse cx="55.271" cy="898.872" rx="10.908" ry="11.086" stroke-width=".675" class="B C"/></g><path d="M195.844 28.438V45.5h-17.062v8.688h42.813V45.5H204.5V28.438z" class="D"/><path d="M195.844 28.437V45.5h-17.062v8.688h42.813V45.5H204.5V28.437z" stroke-width="1.247" class="B C"/></g><rect height="56.917" ry="5.068" width="20.095" x="289.954" y="681.869" class="D G"/><rect height="56.917" ry="5.068" width="20.095" x="289.954" y="681.869" class="B C R"/><g transform="matrix(.793594 0 0 .793594 -95.494354 430.81347)"><g transform="matrix(1.146997 0 0 .906733 226.83512 -537.15201)"><rect height="79.256" ry="3.8" width="7.041" x="221.335" y="941.218" class="D G"/><path d="M224.855 941.218c1.95 0 3.52 1.695 3.52 3.8v71.656c0 2.105-1.57 3.8-3.52 3.8s-3.52-1.695-3.52-3.8v-71.656c0-2.105 1.57-3.8 3.52-3.8z" class="B C V"/></g><g transform="matrix(1.146997 0 0 .906733 232.09304 -537.15198)"><rect height="79.256" ry="3.8" width="7.041" x="240.494" y="941.218" class="D G"/><rect height="79.256" ry="3.8" width="7.041" x="240.494" y="941.218" class="B C V"/></g></g><g class="B F R"><ellipse cx="300.001" cy="683.081" rx="5.539" ry="5.63"/><ellipse cx="300.001" cy="694.276" rx="5.539" ry="5.63"/><ellipse cx="300.001" cy="705.488" rx="5.539" ry="5.63"/><ellipse cx="300.001" cy="716.7" rx="5.539" ry="5.63"/><ellipse cx="300.001" cy="727.911" rx="5.539" ry="5.63"/></g><path d="M399.481 763.498c-5.333 11.922-9.604 23.562-13.789 35.539h-85.956-85.956c-4.046-11.578-8.172-24.032-13.259-35.539 0 0 10.699 14.971 18.712 18.591 4.451 2.011 10.017 2.61 14.619.975 6.064-2.156 14.132-13.157 14.132-13.157s7.254 8.49 12.182 10.721c4.625 2.093 10.034 2.178 15.106 1.949 4.488-.203 9.459-.372 13.157-2.924 5.599-3.864 11.208-17.055 11.208-17.055s5.426 10.379 9.746 14.132c3.564 3.097 8.04 5.409 12.67 6.335s9.69.627 14.132-.975c6.022-2.171 15.593-11.208 15.593-11.208s6.588 8.171 11.208 10.233c4.472 1.996 9.852 2.584 14.619 1.462 5.045-1.187 9.283-4.841 13.157-8.284 3.457-3.073 8.72-10.795 8.72-10.795z" class="D"/><path d="M399.481 763.498c-5.333 11.922-9.604 23.562-13.789 35.539h-22.448-63.508-65.553-20.403c-4.046-11.578-8.172-24.032-13.259-35.539 0 0 10.699 14.971 18.712 18.591 4.451 2.011 10.017 2.61 14.619.975 6.064-2.156 14.132-13.157 14.132-13.157s7.254 8.49 12.182 10.721c4.625 2.093 10.034 2.178 15.106 1.949 4.488-.203 9.459-.372 13.157-2.924 5.599-3.864 11.208-17.055 11.208-17.055s5.426 10.379 9.746 14.132c3.564 3.097 8.04 5.409 12.67 6.335s9.69.627 14.132-.975c6.022-2.171 15.593-11.208 15.593-11.208s6.588 8.171 11.208 10.233c4.472 1.996 9.852 2.584 14.619 1.462 5.045-1.187 9.283-4.841 13.157-8.284 3.457-3.073 8.72-10.795 8.72-10.795z" class="B C Q"/><g transform="matrix(.793594 0 0 .793594 516.371209 -99.097878)"><g class="D"><use href="#F"/><path d="M-365.992 1115.504c-10.867-.586-21.005-7.374-29.137-21.138-5.273-12.47-11.337-25.099-18.912-38.342 8.729-3.09 18.903-4.736 30.187-5.271-4.589 12.931-9.35 25.528-7.666 35.937 9.481-7.101 12.547-16.767 15.812-26.353l11.021 38.812c-6.689-1.173-3.132-2.555-20.698-5.885 3.52 6.637 11.578 14.832 20.462 15.639zm185.624-6.601c8.884-.807 16.942-9.002 20.462-15.639-17.566 3.33-14.009 4.712-20.698 5.885l11.021-38.812c3.265 9.587 6.331 19.253 15.812 26.353 1.684-10.409-3.077-23.005-7.666-35.937 11.284.535 21.457 2.181 30.187 5.271-7.574 13.242-13.639 25.871-18.912 38.342-8.132 13.764-18.27 20.552-29.137 21.138l-.208.383z"/><path d="M-311.649 1115.504c-5.477-.3-11.112-1.888-16.048-4.28-4.291-2.079-11.127-8.131-11.127-8.131-3.323 4.312-7.555 7.341-11.583 9.579-5.151 2.862-10.24 3.12-15.586 2.832l-.188 1.873 1.256-8.474c5.974.543 10.31-1.303 14.107-4.596 2.728-2.366 5.215-5.495 5.182-9.02l-.056-6.056c-.012-1.297-1.613-3.132-2.909-3.151-1.236-.017-1.578 1.988-1.908 3.179-.66 2.383.665 5.037 0 7.419-.734 2.626-2.141 4.699-4.451 6.147-1.924 1.206-6.571 1.484-6.571 1.484l1.484-5.723c1.047-4.037-2.872-7.171-3.815-11.234-.607-2.615-.941-5.54 0-8.054 1.018-2.72 3.079-5.368 5.723-6.571.965-.439 2.122-.499 3.179-.424 1.495.106 4.451 1.06 4.451 1.06s-.848-4.091-.636-6.571c.258-3.007 2.805-8.578 4.239-11.234 2.381-4.41 6.168-8.383 6.6-8.81.415.417 4.52 4.238 7.202 8.471 1.615 2.55 3.272 6.234 3.739 9.216.384 2.459.247 7.659.247 7.659s4.366-1.793 5.85-2.003c1.049-.149 2.208-.169 3.201.202 2.721 1.016 4.961 3.514 6.166 6.157 1.114 2.443.984 5.384.56 8.035-.658 4.119-3.078 7.305-1.753 11.26l1.878 5.606s-4.654.046-6.658-1.023c-2.405-1.283-3.954-3.254-4.868-5.822-.829-2.33-.348-5.183-1.788-7.189-.637-.888-1.528-1.87-2.76-1.767-1.292.108-2.2 2.22-2.254 3.516l-.229 5.451c-.07 1.675.693 3.416 1.59 4.771 2.197 3.32 5.468 5.334 9.158 6.83 3.997 1.62 7.601 2.242 11.913 2.293z"/><path d="M-272.665 1079.321l6.793 8.052 3.27 13.197 9.618 6.733 14.042 3.078 14.042-1.731 10.772-6.925 1.539-7.502 10.965.385 2.116 8.079 11.157 7.502 10.003.577 12.311-6.54 6.733-8.849 7.31 2.308-7.31 8.464-8.079 6.348-6.156 2.116-4.617.769h-5.963l-4.809-.577-4.617-1.154-5.578-3.463-7.31-6.733-6.733 4.809-6.54 3.847-8.464 2.885-8.464.577-10.003-.962-8.656-2.501-8.272-5.386-6.54-7.502-2.561-3.847-2.561 3.847-6.54 7.502-8.272 5.386-8.656 2.501-10.003.962-8.464-.577-8.464-2.885-6.54-3.847-6.733-4.809-7.31 6.733-5.579 3.463-4.617 1.154-4.809.577h-5.963l-4.617-.769-6.156-2.116-8.079-6.348-7.31-8.464 7.31-2.308 6.733 8.849 12.311 6.54 10.003-.577 11.157-7.502 2.116-8.079 10.965-.385 1.539 7.502 10.772 6.925 14.042 1.731 14.042-3.078 9.618-6.733 3.27-14.015z"/></g><path d="M-203.848 1095.145l-.126-.211c-.151-2.569.719-6.969.719-6.969.484-2.19 2.362-4.533 4.688-5.375 1.254-.454 2.776-.629 4.125.031.823.402 1.486.714 2.031 1.281s.884 1.312 1.25 2.375c.535 1.554.302 3.174.031 4.563-.447 2.291-.397 4.293.25 5.844.457 1.094 1.377 1.916 2.563 2.625-.22-.783-.379-1.163-.5-2.031-.179-1.287.038-2.617.531-3.781.858-2.028 2.043-3.627 2.844-5.406.764-1.697 1.163-3.62 1.031-5.438-.109-1.499-.552-3.048-1.406-4.125-.926-1.168-2.34-2.137-3.75-2.406-1.255-.24-3.315.187-4.969.719s-2.906 1.125-2.906 1.125l-1.469.687.25-1.594c.859-5.36 1.618-8.081 0-13.094-.665-2.061-1.777-4.334-3.656-6.969-.913-1.28-1.932-2.807-3.094-4.219-3.028 3.447-5.139 6.94-6.344 10.469-1.319 3.863-1.371 9-1.062 13.125l.125 1.656-1.406-.844s-1.599-.98-3.531-1.906-4.287-1.743-5.281-1.656c-1.874.164-3.125 1.06-4.344 2.625-1.035 1.329-1.258 2.48-1.469 4.313-.133 1.158.158 3.334.344 4.75.217 1.659 1.194 3.403 1.469 5.5.091.693.306 1.237.469 1.906s.245 1.455.063 2.375c-.126.636-.314 1.096-.562 1.875.479-.233.809-.349 1.063-.531.927-.666 1.304-1.848 1.906-3.281.324-.771.396-1.464.438-2.281s.082-1.778.5-2.844c.714-1.821 1.554-3.984 3.406-5.312 1.516-1.087 3.538-1.39 5.313-.844 1.051.324 1.803.972 2.344 1.719s.904 1.562 1.281 2.375c.484 1.04.773 2.597 1 3.969a44.76 44.76 0 0 1 .344 2.531l.031.125-.031.156-1.291 4.292-1.646-.371 1.25-4.104a60.17 60.17 0 0 0-.344-2.344c-.219-1.321-.549-2.898-.844-3.531-.387-.832-.735-1.555-1.125-2.094s-.787-.884-1.469-1.094c-1.223-.377-2.811-.147-3.844.594-1.311.94-2.106 2.76-2.812 4.562-.307.783-.333 1.488-.375 2.313s-.086 1.784-.531 2.844c-.552 1.312-1.009 2.928-2.5 4-1.099.79-3.094 1.563-3.094 1.563l-1.75.719.625-1.781s.881-2.613 1.063-3.531c.126-.636.074-1.095-.062-1.656s-.385-1.214-.5-2.094c-.217-1.659-1.194-3.403-1.469-5.5-.179-1.367-.531-3.526-.344-5.156.219-1.901.538-3.551 1.813-5.187 1.396-1.792 3.165-3.043 5.531-3.25 1.87-.164 4.17.846 6.188 1.813 1.298.622 1.692.908 2.344 1.281-.212-3.96-.147-8.526 1.156-12.344 1.382-4.047 3.75-8.036 7.344-11.906l.625-.656.625.656c1.671 1.798 2.812 3.772 3.844 5.219 1.967 2.757 3.185 5.202 3.906 7.438 1.546 4.788.979 8.057.25 12.469.569-.24.768-.372 1.75-.687 1.767-.568 3.922-1.105 5.781-.75 1.901.363 3.613 1.527 4.781 3 1.159 1.462 1.655 3.329 1.781 5.062.156 2.15-.319 4.351-1.187 6.281-.899 1.997-2.088 3.589-2.844 5.375-.381.899-.567 1.943-.437 2.875.194 1.396.938 3.656.938 3.656l.531 1.594-1.625-.531c-2.594-.88-4.292-2.474-5.125-4.469s-.829-4.324-.344-6.812c.255-1.307.39-2.613.031-3.656-.332-.966-.575-1.438-.875-1.75s-.762-.546-1.562-.938c-.739-.362-1.881-.306-2.812.031-1.545.56-3.395 2.628-3.562 4.094-.296 2.589-1.031 5.222-2.28 6.863zm48.749-3.052l.438-.875-.937-.313c-6.979-2.21-13.424-.538-19.5 2.031a134.46 134.46 0 0 0 5.656-20.125c6.625 11.903 12.246 15.797 17.531 18.219l.969.438.219-1.063c1.577-8.127 1.699-18.955-4.969-35.062 7.472.388 14.902 1.284 22.281 4.562l.688-1.562c-8.101-3.6-16.194-4.494-24.187-4.844l-1.375-.062.563 1.25c6.848 15.896 6.849 26.242 5.469 34.219-5.079-2.472-10.219-6.204-16.781-18.719l-1.156-2.187-.437 2.438c-1.425 7.889-3.65 15.789-6.656 23.688l-.75 1.938 1.875-.875c6.137-2.785 12.342-4.598 19.031-2.844l.165.103zm-233.063.25c6.68-1.743 12.871.062 19 2.844l1.875.875-.719-1.937c-3.007-7.898-5.231-15.799-6.656-23.687l-.437-2.437-1.156 2.188c-6.565 12.52-11.732 16.247-16.812 18.719-1.38-7.976-1.348-18.322 5.5-34.219l.531-1.25-1.344.062c-7.994.35-16.086 1.244-24.187 4.844l.688 1.562c7.388-3.283 14.8-4.175 22.281-4.562-6.668 16.108-6.546 26.935-4.969 35.062l.188 1.063 1-.438c5.282-2.42 10.913-6.304 17.531-18.187 1.33 6.704 3.205 13.397 5.656 20.094-6.076-2.569-12.521-4.241-19.5-2.031l-.937.313.438.875-.181.091 2.212.159zm54.883 3.778l-.977-3.652c.017-.154.111-1.031.313-2.25.219-1.321.58-2.898.875-3.531.387-.832.735-1.555 1.125-2.094s.787-.884 1.469-1.094c1.223-.377 2.78-.147 3.813.594 1.311.94 2.137 2.76 2.844 4.562.307.783.333 1.488.375 2.313s.086 1.784.531 2.844c.552 1.312 1.009 2.928 2.5 4 1.099.79 3.094 1.563 3.094 1.563l1.719.719-.594-1.781s-.881-2.613-1.062-3.531c-.126-.636-.074-1.095.063-1.656s.353-1.214.469-2.094c.217-1.659 1.194-3.403 1.469-5.5.179-1.367.563-3.526.375-5.156-.219-1.901-.538-3.551-1.812-5.187-1.396-1.792-3.165-3.043-5.531-3.25-1.87-.164-4.17.846-6.187 1.813-1.298.622-1.692.908-2.344 1.281.212-3.96.147-8.526-1.156-12.344-1.382-4.047-3.75-8.036-7.344-11.906l-.625-.656-.625.656c-1.671 1.798-2.843 3.772-3.875 5.219-1.967 2.757-3.153 5.202-3.875 7.438-1.546 4.788-.979 8.057-.25 12.469-.569-.24-.759-.369-1.75-.687-1.767-.568-3.922-1.105-5.781-.75-1.901.363-3.613 1.527-4.781 3-1.159 1.462-1.655 3.329-1.781 5.062-.156 2.15.319 4.351 1.188 6.281.899 1.997 2.088 3.589 2.844 5.375.381.899.536 1.943.406 2.875-.194 1.396-.906 3.656-.906 3.656l-.531 1.594 1.625-.531c2.594-.88 4.292-2.474 5.125-4.469s.829-4.324.344-6.812c-.255-1.307-.39-2.613-.031-3.656.332-.966.575-1.438.875-1.75s.731-.546 1.531-.938c.739-.361 1.912-.306 2.844.031 1.545.56 3.231 2.65 3.563 4.094v.031c.008.042.806 4.509.688 6.531l2.006.355c-.167-2.83-1.037-7.229-1.037-7.229-.484-2.19-2.33-4.533-4.656-5.375-1.254-.454-2.807-.628-4.156.031-.823.402-1.455.714-2 1.281s-.915 1.312-1.281 2.375c-.535 1.554-.302 3.174-.031 4.563.447 2.291.397 4.293-.25 5.844-.457 1.094-1.346 1.916-2.531 2.625.22-.783.379-1.163.5-2.031.179-1.287-.038-2.617-.531-3.781-.858-2.028-2.043-3.627-2.844-5.406-.764-1.697-1.195-3.62-1.062-5.438.109-1.499.552-3.048 1.406-4.125.926-1.168 2.371-2.137 3.781-2.406 1.255-.24 3.284.187 4.938.719s2.938 1.125 2.938 1.125l1.469.687-.281-1.594c-.859-5.36-1.587-8.081.031-13.094.665-2.061 1.745-4.334 3.625-6.969.913-1.28 1.962-2.807 3.125-4.219 3.027 3.446 5.139 6.94 6.344 10.469 1.319 3.863 1.34 9 1.031 13.125l-.094 1.656 1.406-.844s1.568-.98 3.5-1.906 4.319-1.743 5.313-1.656c1.874.164 3.125 1.06 4.344 2.625 1.035 1.329 1.258 2.48 1.469 4.313.133 1.158-.19 3.334-.375 4.75-.217 1.659-1.163 3.403-1.437 5.5-.091.693-.306 1.237-.469 1.906s-.276 1.455-.094 2.375c.126.636.314 1.096.563 1.875-.479-.233-.809-.349-1.062-.531-.927-.666-1.304-1.848-1.906-3.281-.324-.771-.365-1.464-.406-2.281s-.082-1.778-.5-2.844c-.714-1.821-1.554-3.984-3.406-5.312-1.516-1.087-3.538-1.39-5.312-.844-1.051.324-1.834.972-2.375 1.719s-.872 1.562-1.25 2.375c-.484 1.04-.773 2.597-1 3.969s-.375 2.531-.375 2.531v.125l.031.156 1.008 3.746.497.054 1.159-.428zm64.679-13.84l.031-1.062 1.031.25c4.755 1.192 8.39 2.803 11.406 4.594 3.827 2.272 6.653 4.822 9.625 7.281l.5-28.219c-2.533 2.796-4.91 5.792-8.406 8.188-2.855 1.957-8.21 4.528-13.219 5.094l-1.187.125.25-1.156c.705-3.18.685-5.389 2.281-9.156 1.515-3.574 4.708-8.757 11.063-17.438-5.495-.607-10.283-1.281-17.437-1.281s-11.913.674-17.406 1.281c6.354 8.681 9.548 13.864 11.063 17.438 1.597 3.767 1.576 5.976 2.281 9.156l.25 1.156-1.187-.125c-5.009-.565-10.363-3.137-13.219-5.094-3.483-2.387-5.885-5.369-8.406-8.156l.5 28.156c2.96-2.451 5.813-4.987 9.625-7.25 3.016-1.79 6.62-3.401 11.375-4.594l1.063-.25v1.062l-1.713 1.197c-4.015 1.131-7.225 2.495-9.85 4.053-4.203 2.495-7.24 5.408-10.812 8.25l-1.344 1.063-.031-1.719-.531-32.187-.062-2.125 1.5 1.5c3.298 3.326 5.771 6.952 9.625 9.594 2.377 1.629 7.037 3.807 11.313 4.563-.476-2.563-.686-4.568-1.969-7.594-1.502-3.544-4.595-8.74-11.656-18.281l-.875-1.188 1.469-.156c6.085-.631 11.105-1.469 19-1.469v.001c7.895 0 12.915.838 19 1.469l1.5.156-.875 1.188c-7.061 9.541-10.185 14.737-11.687 18.281-1.287 3.037-1.457 5.048-1.937 7.625 4.278-.755 8.903-2.964 11.281-4.594 3.855-2.641 6.358-6.268 9.656-9.594l1.469-1.5-.031 2.125-.562 32.188v1.719l-1.375-1.063c-3.572-2.842-6.578-5.755-10.781-8.25-2.624-1.558-5.834-2.921-9.844-4.031z"/><use href="#F" class="B C H"/></g><g transform="matrix(.793594 0 0 .793594 145.284807 626.79374)" class="B F"><g class="H"><ellipse cx="194.957" cy="164.999" rx="7.678" ry="7.804"/><ellipse cx="73.473" cy="175.734" rx="7.678" ry="7.804"/></g><ellipse cx="2689.701" cy="785.026" rx="10.489" ry="10.66" stroke-width="1.607" transform="matrix(-.73205 0 0 .73205 2285.436247 -398.944278)"/></g><g transform="matrix(.793594 0 0 .793594 516.370709 -99.097878)"><g transform="matrix(.998531 -.054185 .054185 .998531 -59.740351 -16.657444)"><use href="#G" class="D"/><use href="#G" class="B C H"/></g><g transform="matrix(-.998531 -.054185 -.054185 .998531 -485.55003 -16.657439)"><use href="#G" class="D"/><use href="#G" class="B C H"/></g></g><path d="M215.422 818.896l26.425-1.653c16.857-.952 34.918-1.451 44.131-1.451h28.083c8.924 0 27.409.5 44.131 1.451l26.232 1.75 5.863-26.193s-60.075-5.421-90.268-5.421-90.268 5.421-90.268 5.421z" class="D G"/><path d="M299.632 787.665c30.166-.015 60.329 1.62 90.361 4.947l-5.498 26.436c-29.871-2.681-54.322-3.399-84.525-3.635m.4-27.749c-30.166-.015-60.329 1.62-90.361 4.947l5.498 26.436c29.871-2.681 54.322-3.399 84.525-3.635" class="B C Q"/><use href="#H" class="P"/><use href="#H" stroke-width=".95" class="B D"/><path d="M245.666 815.591l-.023.019h-.023c-9.974.772-21.518 1.614-31.591 3.09-1.424 1.831-1.542 3.501 1.049 4.836 9.671-1.417 21.073-2.279 31.055-3.051 13.537-.844 27.186-1.371 40.801-1.516h26.112c8.144 0 25.343.534 40.801 1.535 15.388.996 31.102 3.032 31.102 3.032 2.682-1.473 2.39-3.12.933-4.836 0 0-15.86-2.092-31.568-3.109-15.638-1.012-32.815-1.535-41.267-1.535h-26.112c-13.776.044-27.53.743-41.267 1.535z" class="P"/><path d="M245.666 815.591l-.023.019h-.023c-9.974.772-21.518 1.614-31.591 3.09-1.424 1.831-1.542 3.501 1.049 4.836 9.671-1.417 21.073-2.279 31.055-3.051 13.537-.844 27.186-1.092 40.801-1.237h26.112c8.144 0 25.343.255 40.801 1.256 15.388.996 31.102 3.032 31.102 3.032 2.682-1.473 2.39-3.12.933-4.836 0 0-15.86-2.092-31.568-3.109-15.638-1.012-32.815-1.256-41.267-1.256h-26.112c-13.776.044-27.53.464-41.267 1.256z" stroke-width=".942" class="B D"/><g transform="matrix(.793594 0 0 .793594 -94.6372 517.333348)"><g transform="matrix(.505536 0 0 .386916 -961.10956 29.49087)"><path d="M2840.095 823.565h89.493v59.169h-89.493z" class="D G"/><rect height="59.169" ry="3.006" width="89.493" x="2840.095" y="823.565" class="B C L"/></g><g transform="matrix(.505536 0 0 .386916 -961.10957 29.490878)" class="L"><g class="G"><g stroke="#a0892c"><rect height="43.637" ry="5.177" width="70.263" x="2849.71" y="831.331" class="I"/><path d="M2918.459 873.455a5.16 5.16 0 0 1-3.664 1.513h-59.908a5.16 5.16 0 0 1-5.177-5.177v-33.282a5.16 5.16 0 0 1 1.513-3.664c.936-.936 68.172 39.675 67.237 40.611z" fill="#2b96f6"/></g><g class="B I"><path d="M2918.459 873.455a5.16 5.16 0 0 1-3.664 1.513h-59.908a5.16 5.16 0 0 1-5.177-5.177v-33.282a5.16 5.16 0 0 1 1.513-3.664c.475-.475 18.04 9.759 35.096 20.073 16.539 10.001 32.601 20.077 32.14 20.538z"/><path d="M2918.459 832.844a5.16 5.16 0 0 1 1.513 3.664v33.282a5.16 5.16 0 0 1-5.177 5.177h-59.908a5.16 5.16 0 0 1-3.664-1.513c-.936-.936 66.301-41.547 67.237-40.611z"/><path d="M2918.459 873.455a5.16 5.16 0 0 1-3.664 1.513h-59.908a5.16 5.16 0 0 1-3.664-1.513c-.475-.475 16.6-11.163 33.661-21.457 0 0 34.512 20.521 33.576 21.457z"/></g></g><g class="B"><rect height="43.637" ry="5.177" width="70.263" x="2849.71" y="831.331" class="C"/><path d="M2865.158 841.292h39.367v22.304h-39.367z" class="G I"/></g></g></g><g transform="matrix(.793594 0 0 .793594 -94.570895 517.333348)"><g transform="matrix(.865705 -.085066 .135965 .770241 -53.130928 133.63024)"><g class="G"><rect height="22.674" ry="10.771" width="35.829" x="494.629" y="340.211" class="B D M"/><rect fill="#306947" height="16.542" ry="8.271" width="29.954" x="497.566" y="343.276"/></g><rect height="16.542" ry="8.271" width="29.954" x="497.566" y="343.276" class="B C M"/></g><g transform="matrix(-.818136 .142819 .154669 .886016 852.10246 11.280044)"><use href="#I" class="B D N"/><g class="O"><use href="#J"/><use href="#K"/></g><g class="B C N"><use href="#L"/><use href="#M"/></g></g><g class="B F H"><ellipse cx="463.659" cy="353.665" rx="3.823" ry="3.886"/><ellipse cx="464.441" cy="365.853" rx="3.823" ry="3.886"/><ellipse cx="412.223" cy="356.477" rx="3.823" ry="3.886"/><ellipse cx="413.005" cy="368.666" rx="3.823" ry="3.886"/></g><g transform="matrix(-1 0 0 1 994.39268 0)"><g transform="matrix(.865705 -.085066 .135965 .770241 -53.130928 133.63024)"><g class="G"><rect height="22.674" ry="10.771" width="35.829" x="494.629" y="340.211" class="B D M"/><rect fill="#306947" height="16.542" ry="8.271" width="29.954" x="497.566" y="343.276"/></g><rect height="16.542" ry="8.271" width="29.954" x="497.566" y="343.276" class="B C M"/></g><g transform="matrix(-.818136 .142819 .154669 .886016 852.10246 11.280044)"><use href="#I" class="B D N"/><g class="O"><use href="#J"/><use href="#K"/></g><g class="B C N"><use href="#L"/><use href="#M"/></g></g><g class="B F H"><ellipse cx="463.659" cy="353.665" rx="3.823" ry="3.886"/><ellipse cx="464.441" cy="365.853" rx="3.823" ry="3.886"/><ellipse cx="412.223" cy="356.477" rx="3.823" ry="3.886"/><ellipse cx="413.005" cy="368.666" rx="3.823" ry="3.886"/></g></g></g></g><g class="B E"><path d="M188.631 146.627a88.381 72.026 0 1 1-176.763 0 88.381 72.026 0 1 1 176.763 0z" class="J"/><path d="M185.828 146.627a85.578 68.403 0 1 1-171.156 0 85.578 68.403 0 1 1 171.156 0z" class="F"/><path d="M170.753 146.627a70.503 54.403 0 1 1-141.006 0 70.503 54.403 0 1 1 141.006 0z" class="J"/><use href="#N" fill="#fff79c"/></g><path d="M166.8 146.627a66.55 50.731 0 1 1-133.1 0h66.55z" fill="#9ccee7"/><path d="M76.804 194.248c-1.02 0 13.219-1.605 11.174-1.807l-1.909-.143v-2.182h15.878l4.304-2.96c11.629-.836 23.369-.799 34.909-2.553-5.705 2.699-11.524 5.469-17.818 5.513l-.82 2.459c-7.475 1.521-14.865 1.82-22.4 1.905.51.824 1.019 1.999 1.529 2.823-5.933-.047-13.832-.098-24.846-3.055zm-16.372-8.034c6.121-1.853 11.732-1.538 18-1.553v2.469l-8.727-1.171c-2.718 3.218-4.964 1.216-9.273.254zm31.091-3.734h8.856l-1.348 2.182h-7.508v-2.182zm17.448.538l-1.451-1.749 6.456.333 6.456.333v1.091 1.091l-5.005.325-5.005.325zm-58.079-4.902c2.434-.191 4.594.473 6.8 1.32-2.199 3.42-5.006.842-6.8-1.32zm8.874-.183l.848-2.544 11.273-.312v1.948h-5.326c-1.987 3.096-3.88 1.663-6.795.908zm29.575.183v-1.091h14.311l-.674 1.091-.674 1.091H89.341zm27.428-3.342l7.481 1.403v1.939l-14.727-.178 7.246-3.164zm-37.614-3.748l9.641-1.39 10.364 1.148v1.878H81.883l-3.749 1.439 1.021-3.075zm-35.632-8.43l10.364 1.518 2.073 2.002-4.855-.086c-3.619-.802-7.582.45-7.582-3.434zm99.411 18.495l10.791-5.56-2.276-1.407 1.462-3.811c12.102-2.242 8.979-3.361-.479-4.013l-8.962-.362 2.633 3.172-6.58 1.316v2.522l7.636-1.239v1.735l-9.273 2.23 6 .262v2.293l-3.818 1.595c-4.689 1.959-4.738 2.45-.4 3.962l5.655-.305" fill="#75b4a1"/><use href="#N" class="B C E"/><path d="M63.234 205.013l1.008-2.808.233.084c-.088.796.037 1.475.375 2.037s.809.952 1.415 1.169a2.55 2.55 0 0 0 1.549.064 2.7 2.7 0 0 0 1.336-.809c.467-.511.833-1.135 1.097-1.872.26-.725.406-1.418.436-2.079s-.095-1.214-.376-1.659-.732-.779-1.353-1.002c-.51-.183-1.017-.239-1.521-.168s-1.089.295-1.755.671l.251-.699c.624-.311 1.221-.485 1.789-.521s1.181.063 1.838.299c.864.31 1.57.759 2.116 1.347s.886 1.271 1.017 2.051a4.43 4.43 0 0 1-.198 2.269c-.277.773-.743 1.433-1.396 1.981a4.54 4.54 0 0 1-2.216 1.025 4.71 4.71 0 0 1-2.395-.213c-.57-.204-1.127-.544-1.671-1.018-.315-.275-.522-.43-.622-.466a.48.48 0 0 0-.382.021c-.127.06-.241.187-.342.38zm-7.659-3.751c-1.236-.596-2.034-1.47-2.394-2.623s-.241-2.294.356-3.423c.51-.965 1.242-1.665 2.194-2.1 1.262-.577 2.576-.505 3.942.217s2.183 1.747 2.441 3.071c.203 1.046.039 2.072-.493 3.078-.597 1.13-1.48 1.868-2.647 2.216s-2.3.202-3.399-.436zm.123-.395c.696.368 1.413.292 2.152-.227.604-.427 1.195-1.187 1.772-2.28.686-1.298.965-2.378.837-3.241-.089-.602-.419-1.054-.991-1.357-.385-.204-.757-.28-1.114-.23-.456.065-.914.312-1.375.741s-.915 1.066-1.362 1.911c-.532 1.006-.836 1.809-.913 2.407s-.025 1.077.156 1.436.461.638.839.838zm-8.684-12.005l-5.341 3.023-2.757-2.163.145-.185.22.172c.2.157.387.247.562.271.12.019.248-.007.384-.078.099-.051.281-.245.545-.581l3.503-4.465c.272-.346.423-.577.454-.692s.016-.25-.047-.404-.188-.305-.378-.454l-.22-.172.145-.185 3.536 2.774-.145.185-.22-.172c-.2-.157-.387-.247-.562-.271-.12-.019-.249.009-.388.083-.099.051-.282.247-.549.586l-3.938 5.019 7.444-4.14.12.094-2.174 8.202 3.742-4.769.457-.634c.087-.2.1-.41.037-.628s-.249-.449-.558-.692l.145-.185 2.317 1.818-.145.185-.07-.055a1.36 1.36 0 0 0-.476-.257c-.17-.051-.323-.058-.457-.024s-.281.115-.441.243c-.035.031-.172.199-.41.502l-3.362 4.285c-.269.343-.419.571-.449.685s-.014.247.048.401.188.305.378.454l.215.168-.145.185-2.767-2.171zm-10.452-10.244l-5.884 1.744-2.2-2.727.183-.147.175.217c.159.198.322.328.486.391a.62.62 0 0 0 .392.01c.108-.028.329-.175.661-.444l4.417-3.563c.343-.276.542-.467.598-.572a.63.63 0 0 0 .045-.404c-.027-.164-.115-.34-.266-.527l-.175-.217.183-.147L38 175.73l-.183.147-.175-.217c-.159-.198-.322-.328-.486-.391a.62.62 0 0 0-.397-.006c-.108.028-.33.177-.666.448l-4.966 4.005 8.184-2.36.096.119-3.963 7.502 4.719-3.806.588-.515a.91.91 0 0 0 .178-.604c-.011-.227-.141-.494-.388-.8l.183-.147 1.849 2.293-.183.147-.056-.069c-.116-.151-.252-.27-.406-.357a.86.86 0 0 0-.44-.126c-.139.003-.3.049-.484.138-.042.023-.212.155-.512.397l-4.239 3.419c-.339.274-.536.462-.591.566s-.069.238-.043.402.115.34.266.527l.171.212-.183.147-2.208-2.737zm-11.194-7.846l3.159-1.516-.074-.155c-.236-.492-.562-.775-.977-.848s-.939.005-1.571.233l-.104-.217 4.063-1.95.104.217c-.421.258-.737.528-.949.811s-.32.544-.324.785.083.547.261.917L31.142 168c.427-.205.68-.349.758-.431a.52.52 0 0 0 .137-.316c.013-.129-.033-.303-.139-.525l-.222-.464c-.348-.725-.795-1.225-1.34-1.501s-1.207-.344-1.985-.205l-.102-.212 2.634-.835 3.219 6.707-.212.102-.124-.258c-.108-.225-.235-.387-.381-.486-.101-.074-.229-.106-.385-.097-.112.002-.362.096-.751.283l-5.105 2.45-.633.339c-.115.102-.184.222-.207.36-.037.196.005.42.125.672l.124.258-.212.102-3.117-6.495 2.295-1.101.104.217c-.508.38-.836.728-.984 1.046s-.191.687-.13 1.108c.034.247.192.664.474 1.251zm-.129-12.328l2.355-.522c.454-.101.734-.192.84-.274s.178-.201.217-.357.016-.426-.069-.81l.229-.051.954 4.301-.229.051c-.086-.388-.181-.644-.284-.766s-.218-.199-.347-.229-.419.005-.874.106l-5.453 1.209c-.454.101-.734.192-.84.274s-.178.201-.217.357-.016.426.069.81l-.229.051-.866-3.904c-.225-1.016-.32-1.776-.284-2.278a2.3 2.3 0 0 1 .522-1.325 2.14 2.14 0 0 1 1.23-.741 2.03 2.03 0 0 1 1.685.329c.319.228.6.584.842 1.068l2.397-2.651c.309-.346.497-.585.563-.716a1.08 1.08 0 0 0 .08-.635l.229-.051.587 2.646-3.229 3.557zm-4.121.914l3.681-.816-.078-.353c-.127-.574-.275-.992-.444-1.254s-.408-.444-.719-.546-.687-.104-1.129-.006c-.64.142-1.08.397-1.32.764s-.285.884-.138 1.549zm-2.05-18.322l2.982.089-.007.247c-.784.163-1.391.492-1.82.987s-.654 1.064-.674 1.707a2.55 2.55 0 0 0 .419 1.492 2.7 2.7 0 0 0 1.182 1.02c.631.286 1.337.44 2.12.464.77.023 1.474-.053 2.112-.229s1.125-.466 1.461-.871.514-.937.534-1.597c.016-.541-.087-1.041-.311-1.499s-.617-.945-1.182-1.461l.742.022c.489.497.839 1.011 1.049 1.54s.305 1.143.284 1.841c-.028.918-.236 1.728-.625 2.429s-.935 1.236-1.636 1.602a4.43 4.43 0 0 1-2.219.514c-.821-.025-1.592-.263-2.316-.714a4.54 4.54 0 0 1-1.661-1.79 4.71 4.71 0 0 1-.539-2.344c.018-.605.168-1.24.451-1.904.164-.385.248-.63.251-.735a.48.48 0 0 0-.139-.357c-.096-.102-.252-.172-.467-.208zm10.097-6.793l.229.053-1.015 4.385-.229-.053.064-.278c.056-.243.058-.449.006-.618-.033-.121-.113-.226-.24-.316-.088-.068-.343-.151-.763-.248l-5.516-1.277c-.429-.099-.702-.139-.82-.118s-.233.091-.345.21-.196.297-.25.532l-.064.278-.229-.053 1.015-4.385.229.053-.064.278c-.056.243-.058.449-.006.618.033.121.112.228.238.322.088.068.343.151.763.248l5.516 1.277c.429.099.702.138.82.115s.233-.094.346-.213.196-.297.25-.532zm.59-7.814l-1.231 2.78.62.67c.207.221.394.369.561.443.221.098.422.081.606-.051.108-.077.268-.314.481-.71l.215.095-1.159 2.618-.215-.095a1.28 1.28 0 0 0-.043-.852c-.111-.267-.407-.666-.889-1.199l-5.034-5.595.049-.11 7.711.019c.731 0 1.215-.052 1.451-.156.178-.079.33-.233.456-.465l.215.095-1.686 3.808-.215-.095.069-.157c.135-.306.188-.539.157-.701-.024-.113-.094-.195-.21-.246a.78.78 0 0 0-.23-.06c-.038-.008-.209-.014-.512-.019zm-.517.007l-3.23-.027 2.176 2.407zm8.335-20.629l2.437 2.518.123-.119c.392-.38.557-.778.495-1.195s-.301-.889-.717-1.417l.173-.168 3.134 3.239-.173.168c-.378-.317-.734-.532-1.069-.644s-.617-.131-.847-.059-.493.252-.788.537l1.686 1.742c.33.341.546.535.648.583a.52.52 0 0 0 .343.03c.126-.028.277-.127.454-.298l.369-.358c.578-.559.911-1.141 1.001-1.746s-.055-1.254-.433-1.949l.169-.163 1.624 2.235-5.346 5.174-.163-.169.205-.199c.179-.174.293-.345.341-.515.038-.119.028-.251-.029-.396-.037-.105-.206-.313-.506-.623l-3.938-4.069-.522-.493c-.133-.077-.269-.105-.407-.083-.198.027-.397.137-.598.331l-.205.199-.163-.169 5.177-5.01 1.77 1.829-.173.168c-.521-.362-.955-.563-1.303-.603s-.712.035-1.092.227c-.223.11-.569.392-1.037.845zm12.195-6.048l3.961 1.535c.657.254 1.089.385 1.298.392a1.19 1.19 0 0 0 .616-.154l.134.193-3.444 2.397-.134-.193c.26-.212.408-.377.444-.495s.023-.222-.04-.313a.45.45 0 0 0-.153-.141c-.121-.07-.378-.18-.771-.33l-2.094-.808-.161 2.069c-.045.624-.018 1.008.081 1.15.07.101.177.165.321.194s.311.005.5-.07c.087-.03.244-.123.47-.281l.134.193-2.714 1.89-.134-.193c.278-.26.463-.513.555-.758.121-.322.214-.881.278-1.678l.212-2.684-3.636-1.39-1.009-.372a1.19 1.19 0 0 0-.447-.053 1.42 1.42 0 0 0-.451.152l-.134-.193 3.506-2.441.134.193-.177.123c-.201.14-.32.27-.355.39s-.019.228.049.326a.6.6 0 0 0 .174.173l.737.292 1.804.724.11-1.43c.056-.735.018-1.196-.112-1.384-.065-.094-.153-.162-.262-.204s-.23-.051-.362-.026-.304.111-.516.259l-.134-.193 2.6-1.81.134.193c-.202.146-.35.286-.442.42s-.165.315-.218.542c-.032.146-.078.562-.137 1.248zm8.818-3.891l1.08 2.129c.211.415.369.664.474.745s.24.122.402.12.418-.091.765-.267l.106.209-3.9 1.978-.106-.209c.355-.18.579-.335.672-.465s.138-.261.135-.393-.109-.405-.32-.82l-2.527-4.982c-.211-.415-.369-.664-.474-.745a.63.63 0 0 0-.4-.121c-.161.001-.417.09-.768.268l-.106-.209 3.346-1.697c1.102-.559 1.992-.764 2.671-.614s1.167.518 1.466 1.107c.253.498.314 1.003.185 1.515s-.433.97-.912 1.374c-.32.276-.916.636-1.788 1.078zm-1.907-3.759l1.683 3.317.289-.132c.46-.234.746-.55.856-.95s.02-.887-.271-1.46-.625-.924-1.008-1.062-.822-.081-1.316.169zm6.404-3.613l4.185-1.493.079.221-.209.075c-.315.112-.519.222-.613.33a.6.6 0 0 0-.154.362c-.009.134.07.431.235.894l1.416 3.97c.259.725.485 1.186.678 1.382s.444.327.75.393.651.031 1.034-.106c.438-.156.777-.388 1.015-.696a1.93 1.93 0 0 0 .402-1.064c.03-.401-.109-1.033-.416-1.894l-1.18-3.306c-.129-.363-.26-.608-.391-.737s-.265-.202-.402-.22c-.212-.028-.482.017-.808.133l-.079-.221 2.804-1 .079.221-.167.06c-.227.081-.4.194-.519.34a.83.83 0 0 0-.182.53c-.006.146.049.384.168.715l1.099 3.079c.34.953.522 1.663.548 2.13s-.142.965-.502 1.493-.96.942-1.801 1.242c-.701.25-1.277.35-1.726.299-.613-.069-1.098-.264-1.456-.586s-.656-.819-.897-1.493l-1.416-3.97c-.166-.466-.296-.747-.388-.842s-.214-.154-.366-.176-.398.03-.74.156zm20.265-.076l.343 3.019-7.459 1.666-.051-.229.279-.062c.244-.054.43-.142.559-.262.094-.082.155-.199.181-.353.023-.109-.012-.375-.106-.796l-1.235-5.526c-.096-.43-.179-.693-.248-.79s-.182-.171-.339-.22-.352-.048-.588.004l-.279.062-.051-.229 4.479-1.001.051.229-.365.082c-.244.055-.43.142-.559.262-.094.082-.157.2-.188.354-.023.109.012.375.106.796l1.196 5.352c.096.43.182.698.258.804s.193.173.35.198c.112.014.366-.023.762-.112l.7-.156c.446-.1.8-.261 1.062-.485s.464-.529.605-.916.235-.933.281-1.637zm7.629-6.805l.399 2.842-.259.03c-.205-.701-.571-1.241-1.098-1.621s-1.069-.538-1.624-.474c-.429.05-.755.203-.979.461s-.318.536-.284.835c.022.189.085.352.191.489.145.183.363.356.654.519.214.116.698.309 1.454.579 1.057.376 1.786.763 2.185 1.159s.625.878.691 1.441c.083.715-.125 1.362-.622 1.941s-1.175.919-2.032 1.018a3.43 3.43 0 0 1-.772.006c-.246-.027-.558-.095-.937-.205-.212-.061-.382-.084-.513-.069-.109.013-.22.068-.332.166s-.196.238-.252.419l-.233.027-.373-3.228.233-.027c.29.887.726 1.538 1.309 1.954s1.179.589 1.788.518c.471-.055.831-.226 1.081-.515s.355-.603.316-.944a1.18 1.18 0 0 0-.229-.568c-.129-.177-.313-.338-.551-.483s-.651-.322-1.237-.531c-.822-.293-1.419-.554-1.79-.783s-.668-.5-.889-.811a2.25 2.25 0 0 1-.401-1.065c-.079-.681.104-1.29.549-1.827s1.048-.85 1.809-.938c.277-.032.55-.03.819.008a4.07 4.07 0 0 1 .754.197c.299.104.506.149.62.136a.33.33 0 0 0 .247-.131c.055-.075.095-.243.12-.506zm8.292 8.161l.008.235-4.498.153-.008-.235.285-.01c.25-.008.449-.06.598-.154.108-.063.189-.167.243-.313.043-.103.057-.37.043-.802l-.192-5.659c-.015-.44-.047-.714-.098-.822s-.148-.201-.292-.279-.337-.112-.578-.104l-.285.01-.008-.235 4.498-.153.008.235-.285.01c-.25.008-.449.06-.598.154-.108.063-.191.167-.25.313-.043.103-.057.37-.043.802l.192 5.659c.015.44.049.714.101.822s.151.201.295.279.337.112.578.104zm8.211-8.325l-.062 2.869-.26-.012c-.09-.724-.364-1.316-.824-1.776s-.968-.702-1.526-.728c-.431-.02-.778.08-1.04.298s-.4.478-.414.778c-.009.19.028.361.11.513.113.204.301.41.563.617.192.149.64.417 1.342.805.983.541 1.64 1.039 1.971 1.495a2.34 2.34 0 0 1 .45 1.533c-.033.719-.342 1.324-.926 1.816s-1.307.718-2.169.678a3.47 3.47 0 0 1-.763-.118c-.238-.066-.536-.184-.892-.352-.199-.094-.364-.144-.495-.15-.11-.005-.228.032-.355.111s-.232.203-.316.373l-.235-.011.15-3.247.235.011c.144.922.47 1.635.979 2.139s1.069.77 1.682.799c.473.022.857-.09 1.15-.335s.447-.539.463-.881c.009-.203-.035-.402-.135-.597s-.255-.383-.466-.565-.591-.422-1.136-.723c-.764-.421-1.311-.774-1.641-1.061s-.579-.601-.748-.943a2.25 2.25 0 0 1-.225-1.116 2.33 2.33 0 0 1 .835-1.715c.525-.458 1.17-.67 1.936-.635a3.24 3.24 0 0 1 .807.139c.196.06.434.165.713.316s.476.228.59.234a.34.34 0 0 0 .265-.09c.067-.065.133-.225.2-.48zm12.884 6.791l-.513 2.331c-.1.455-.135.747-.105.877s.108.246.236.348.381.194.761.278l-.05.229-4.271-.939.05-.229c.388.085.66.107.814.065a.65.65 0 0 0 .353-.218c.081-.103.172-.382.272-.837l1.2-5.456c.1-.455.135-.747.105-.877s-.107-.246-.232-.347-.38-.194-.764-.279l.05-.229 3.664.806c1.207.265 2.025.671 2.456 1.216s.575 1.14.433 1.785c-.12.546-.392.975-.816 1.289s-.95.476-1.576.485c-.423.011-1.111-.088-2.066-.298zm.905-4.116l-.799 3.633.307.081c.504.111.926.046 1.264-.193s.577-.674.715-1.302.101-1.111-.108-1.46-.584-.583-1.126-.703zm8.567 10.526l-.071.224-4.289-1.364.071-.224.272.087c.238.076.443.094.615.056.123-.023.234-.094.334-.213.075-.083.178-.33.309-.741l1.716-5.396c.133-.419.195-.689.184-.808s-.072-.239-.182-.361-.28-.219-.51-.292l-.272-.087.071-.224 4.289 1.364-.071.224-.272-.087c-.238-.076-.443-.094-.615-.056-.123.023-.236.094-.34.211-.075.083-.178.33-.309.741l-1.716 5.396c-.133.419-.194.689-.181.809s.075.24.185.362.28.219.51.292zm6.361-1.487l-.969 2.209c-.187.426-.279.706-.275.839a.63.63 0 0 0 .16.386c.103.124.334.265.695.423l-.094.215-4.034-1.77.094-.215c.364.16.626.234.786.224s.289-.059.389-.145.243-.341.43-.768l2.245-5.115c.187-.426.279-.706.275-.839a.63.63 0 0 0-.16-.386c-.103-.124-.334-.265-.695-.423l.094-.215 3.662 1.607c.953.418 1.622.79 2.006 1.116a2.3 2.3 0 0 1 .761 1.204c.123.477.081.954-.129 1.43-.255.581-.675.97-1.26 1.166-.373.123-.826.139-1.359.048l.724 3.5c.097.454.179.746.246.877a1.07 1.07 0 0 0 .465.44l-.094.215-2.482-1.089-.964-4.707zm1.696-3.865l-1.515 3.453.331.145c.539.236.963.364 1.274.382s.599-.067.865-.258.49-.493.672-.908c.264-.601.318-1.106.163-1.516s-.545-.752-1.168-1.026zm9.443 11.335l-2.581-1.607-.75.52c-.248.174-.42.339-.517.493-.127.205-.139.407-.034.607.061.118.273.31.636.575l-.124.199-2.43-1.513.124-.199a1.28 1.28 0 0 0 .85.076c.28-.073.717-.31 1.311-.713l6.243-4.204.102.064-1.095 7.633c-.102.724-.118 1.21-.048 1.458.053.187.185.359.397.516l-.124.199-3.535-2.201.124-.199.145.091c.284.177.508.261.672.254.115-.008.206-.066.273-.174a.78.78 0 0 0 .092-.22 5.95 5.95 0 0 0 .09-.505zm.065-.513l.478-3.194-2.687 1.819zm15.132 4.476l-1.52 1.765-.173-.149c.248-.496.386-.886.415-1.172s-.021-.575-.148-.869c-.072-.163-.261-.375-.565-.638l-.486-.418-4.333 5.031c-.287.333-.448.558-.483.673a.65.65 0 0 0 .028.405c.054.155.173.313.359.473l.216.186-.153.178-3.415-2.941.153-.178.216.186c.189.163.37.26.544.293.122.027.254.007.396-.061.102-.047.293-.233.575-.56l4.333-5.031-.471-.406c-.439-.378-.838-.56-1.197-.545-.503.019-.998.238-1.486.655l-.183-.157 1.52-1.765zm-.904 11.406l-.176.156-2.981-3.371.176-.156.189.214c.165.187.332.308.499.363.117.043.249.039.396-.012.107-.032.322-.192.645-.478l4.242-3.751c.33-.292.52-.491.572-.599s.061-.242.029-.403-.128-.332-.288-.512l-.189-.214.176-.156 2.981 3.371-.176.156-.189-.214c-.165-.187-.332-.308-.499-.363-.117-.043-.251-.041-.401.007-.107.032-.322.192-.645.478l-4.242 3.751c-.33.292-.52.492-.57.601s-.059.244-.027.405.128.332.288.512zm11.738 1.761l-2.351 1.646-.144-.217c.531-.5.847-1.072.946-1.714s-.006-1.196-.315-1.662c-.239-.36-.524-.58-.855-.663s-.622-.04-.873.126a.96.96 0 0 0-.349.392c-.098.212-.153.485-.165.818-.006.243.042.762.143 1.558.145 1.113.131 1.937-.041 2.473a2.34 2.34 0 0 1-.971 1.269c-.599.398-1.27.507-2.012.327s-1.352-.63-1.829-1.349a3.42 3.42 0 0 1-.356-.685 5.82 5.82 0 0 1-.243-.928c-.042-.216-.099-.379-.172-.488-.061-.092-.161-.165-.299-.221s-.301-.067-.488-.034l-.13-.196 2.707-1.798.13.196c-.658.661-1.041 1.345-1.147 2.053s.01 1.318.35 1.829c.262.395.579.638.949.73s.699.043.984-.147a1.18 1.18 0 0 0 .402-.461c.099-.195.159-.432.18-.71s-.008-.726-.088-1.343c-.112-.865-.151-1.515-.115-1.951s.142-.822.319-1.161a2.25 2.25 0 0 1 .767-.841c.571-.379 1.197-.493 1.877-.34s1.233.548 1.656 1.186a3.24 3.24 0 0 1 .365.733 4.09 4.09 0 0 1 .167.762c.044.314.097.519.16.614s.137.145.229.161.26-.025.505-.122zm2.078 17.809l-2.363.485c-.456.094-.737.18-.844.261s-.181.198-.222.353-.023.426.056.811l-.23.047-.885-4.315.23-.047c.08.39.17.647.271.771s.215.202.343.234.419.001.875-.092l5.472-1.122c.456-.094.737-.18.844-.261s.181-.198.222-.353.023-.426-.056-.811l.23-.047.803 3.917c.209 1.02.292 1.78.248 2.282a2.3 2.3 0 0 1-.543 1.317c-.318.376-.732.617-1.242.721-.622.128-1.182.009-1.68-.355-.316-.233-.59-.594-.824-1.082l-2.438 2.612c-.315.341-.506.577-.574.707-.094.196-.124.408-.09.634l-.23.047-.545-2.655 3.286-3.505zm4.135-.848l-3.694.757.073.354c.118.576.259.997.424 1.261s.401.45.71.557.686.115 1.129.024c.643-.132 1.086-.379 1.332-.743s.299-.879.162-1.546zm1.297 13.106l-3.501-.132-.006.171c-.021.546.136.947.469 1.206s.833.434 1.498.527l-.009.241-4.504-.17.009-.241c.492-.032.898-.124 1.217-.275s.537-.332.653-.544.182-.522.197-.933l-2.423-.092c-.474-.018-.764-.009-.871.027s-.197.108-.269.215-.112.284-.122.529l-.019.514c-.03.803.131 1.454.485 1.953s.907.867 1.661 1.108l-.009.235-2.719-.49.281-7.434.235.009-.011.285c-.009.249.027.452.11.608.055.112.153.201.295.265.1.05.365.084.797.1l5.658.214.718-.005c.15-.037.267-.111.351-.222.124-.156.192-.374.203-.653l.011-.285.235.009-.272 7.199-2.544-.096.009-.241c.626-.099 1.079-.255 1.358-.466s.49-.518.632-.919c.085-.234.14-.677.165-1.328zm-1.628 14.646l-2.796-.648.065-.252c.727.06 1.363-.087 1.907-.443s.886-.804 1.025-1.345c.108-.418.081-.778-.079-1.079s-.386-.489-.677-.564a.97.97 0 0 0-.525.002c-.223.069-.463.211-.719.424-.185.158-.539.541-1.063 1.149-.731.852-1.353 1.393-1.867 1.623s-1.044.269-1.593.127c-.697-.179-1.226-.605-1.588-1.277s-.436-1.426-.22-2.262c.067-.262.158-.503.271-.723a5.8 5.8 0 0 1 .528-.801c.133-.176.215-.327.248-.454a.62.62 0 0 0-.036-.37c-.052-.14-.152-.268-.301-.385l.059-.227 3.147.81-.059.227c-.932-.048-1.696.126-2.294.52s-.973.889-1.126 1.483c-.118.459-.087.857.092 1.194s.436.548.768.634a1.17 1.17 0 0 0 .612-.01c.211-.058.427-.171.648-.341s.534-.492.94-.964c.568-.662 1.026-1.125 1.374-1.39a3.01 3.01 0 0 1 1.076-.539 2.25 2.25 0 0 1 1.138.008c.664.171 1.167.56 1.508 1.168s.417 1.283.226 2.025a3.24 3.24 0 0 1-.301.762c-.099.18-.25.391-.455.633s-.321.419-.349.529-.016.199.034.277.193.176.429.294zm-5.225 11.672l-2.092-1.025.101-.205c.542.115.955.15 1.239.105s.551-.166.803-.363c.139-.111.297-.347.474-.708l.282-.576-5.963-2.921c-.395-.194-.653-.293-.773-.297s-.249.038-.385.129-.259.247-.367.467l-.126.257-.211-.103 1.983-4.047.211.103-.126.257c-.11.224-.158.424-.146.6.005.125.058.247.159.368.071.087.3.225.688.415l5.963 2.921.274-.559c.255-.521.33-.953.225-1.296-.146-.481-.482-.905-1.01-1.272l.106-.217 2.092 1.025zm-11.479 1.956l-.191-.136 2.613-3.664.191.136-.166.233c-.145.203-.225.393-.242.568-.016.124.018.252.101.384.056.097.259.271.611.521l4.61 3.287c.358.256.596.396.712.422s.25.005.399-.062.294-.199.434-.396l.166-.233.191.136-2.613 3.664-.191-.136.166-.233c.145-.203.225-.393.242-.568.016-.124-.017-.254-.097-.389-.056-.097-.259-.271-.611-.521l-4.61-3.287c-.358-.256-.596-.395-.714-.42s-.251-.003-.401.065-.294.199-.434.396zm-.75 13.259l-1.679-1.615.158-.165c.481.275.864.434 1.147.478s.576.01.876-.1c.166-.063.389-.24.668-.529l.444-.462-4.786-4.602c-.317-.305-.532-.478-.645-.519s-.248-.039-.406.006-.322.156-.492.333l-.198.206-.169-.163 3.124-3.248.169.163-.198.206c-.173.18-.28.356-.322.527a.61.61 0 0 0 .039.399c.041.104.217.306.528.605l4.786 4.602.431-.448c.402-.418.605-.806.61-1.166.008-.503-.183-1.01-.573-1.52l.167-.174 1.679 1.615zm-2.853 2.539l-3.565 2.653-.14-.188.178-.133c.268-.2.432-.365.49-.495a.6.6 0 0 0 .041-.391c-.031-.13-.193-.392-.486-.786l-2.516-3.381c-.46-.618-.811-.992-1.053-1.123a1.45 1.45 0 0 0-.832-.156c-.312.027-.632.161-.957.404-.373.278-.629.599-.767.963a1.93 1.93 0 0 0-.073 1.135c.089.393.406.956.952 1.689l2.096 2.816c.23.309.426.506.589.59s.313.115.449.093c.211-.036.456-.157.734-.364l.14.188-2.388 1.777-.14-.188.143-.106c.194-.144.326-.303.397-.477a.83.83 0 0 0 .019-.56c-.037-.141-.16-.353-.37-.635l-1.952-2.623c-.604-.811-.986-1.437-1.147-1.876s-.147-.964.043-1.575.642-1.182 1.358-1.715c.597-.445 1.119-.708 1.563-.791.606-.114 1.128-.069 1.564.134s.867.591 1.294 1.165l2.516 3.381c.296.397.501.628.618.692a.62.62 0 0 0 .402.061c.152-.023.372-.145.662-.366zm-16.93 10.79l-1.103-2.052.201-.108c.374.409.689.678.945.807s.545.187.864.173c.178-.009.444-.109.798-.299l.565-.303-3.143-5.849c-.208-.388-.36-.618-.455-.692s-.224-.114-.388-.119-.354.05-.57.166l-.252.135-.111-.207 3.97-2.133.111.207-.252.135c-.22.118-.376.252-.468.403-.069.104-.097.235-.085.392.007.111.113.357.317.738l3.143 5.849.548-.294c.511-.274.824-.582.938-.922.162-.476.136-1.017-.079-1.622l.212-.114 1.103 2.052zm-10.092-2.512l2.846-1.071.044-.912c.012-.303-.013-.54-.077-.71-.085-.226-.239-.358-.461-.396-.131-.023-.412.028-.844.155l-.083-.22 2.679-1.008.083.22a1.28 1.28 0 0 0-.578.628c-.112.266-.19.758-.232 1.474l-.463 7.512-.113.042-5.391-5.513c-.513-.521-.889-.83-1.128-.925-.181-.072-.398-.072-.651.001l-.083-.22 3.897-1.466.083.22-.16.06c-.313.118-.516.244-.61.379-.063.096-.073.204-.028.322a.78.78 0 0 0 .118.206 5.85 5.85 0 0 0 .346.379zm.367.364l2.244 2.323.192-3.239z"/><g class="B"><path d="M110.382 102.373v-3.144c-11.655-1.654-22.346-1.291-30.279 1.398 10.625-.658 20.582.241 30.279 1.747z" fill="#4892a2" class="E"/><g class="E S"><path d="M60.431 132.811c4.233 1.353 6.044 3.594 5.929 7.432 2.406-2.444 6.251.897 7.448 2.1 2.733-18.501 8.37-23.393 13.674-30.408z"/><path d="M100.329 112.265c-2.315 4.117-.993 8.317-.494 12.435l-15.317.082c-1.561-5.17.353-8.95 1.976-12.847zM83.2 124.782c-4.727 5.604-3.67 11.94-2.965 17.787l18.776-.988c-2.648-4.882-2.834-11.389-.165-16.305zm36.563-19.599c-2.35 5.008-2.631 10.09 1.153 15.317l-17.458.165c-1.861-6.557-.611-10.974.988-15.152z"/><path d="M100.741 120.665c-2.771 6.523-6.19 12.455-2.059 25.281l23.058-.082c-4.149-8.572-4.095-17.664-.43-25.117z"/><path d="M118.363 129.476c-2.018 3.893-4.048 7.784-.494 12.105h12.188c-2.424-4.283-2.737-8.234-.988-11.858z"/></g><path d="M79.742 155.91l2.8 6.259c16.988.18 35.749-.526 50.398.824l4.117-7.082z" class="E T"/><g class="C"><path d="M67.06 147.675l12.764 8.153c-8.887-7.558-14.583-17.031-21.493-25.775" class="E"/><path d="M95.388 155.91v-54.35m28.493 54.186v-49.245"/><path d="M110.211 155.746V97.936" stroke-width="1.5"/><path d="M99.301 120.665h22.654m-39.908 4.117H98.97m18.652 4.941h11.983M86 112.265h16.115"/><g class="E"><path d="M60.472 132.688l34.916-27.34 6.259 6.917m9.058-12.023l4.217 5.045m-38.639 47.329l19.105-22.728m-24.54 16.47l18.776-21.74"/><path d="M80.312 142.483l10.629-17.536m-24.684 15.338l14.424-23.407m16.192 7.855l12.927-12.927m-24.224 44.022l9.666-22.826m.233 10.364l-7.221 12.228m12.578.466l-5.707-11.18"/><path d="M96.756 155.828l4.891-11.413"/><path d="M110.149 155.595L94.893 135.68m2.446 3.144l12.927-14.325 7.337 18.517m6.521-17.817l-3.261 4.6m8.502-.466l-5.532-4.775m-2.97-3.843l2.62-5.532m3.553 6.871h-6.464m3.145-7.162l2.97 7.046m-2.854 11.122l-12.811 22.71m20.264.232l-11.529-14.499"/><path d="M123.775 136.612l7.046 18.983m-13.16.233l6.114-16.188m-8.443 16.304l-5.008-15.897"/><path d="M102.405 155.886L116.03 138.3"/></g></g><use href="#O" class="E T"/><g class="E S"><use href="#P"/><use href="#Q"/><use href="#R"/></g><use href="#O" x="-16.635" y="-2.8" class="E T"/><g class="E S"><use href="#P" x="-16.635" y="-2.8"/><use href="#Q" x="-16.635" y="-2.8"/><use href="#R" x="-16.635" y="-2.8"/></g><g transform="translate(-799.75 -155.702)"><g class="E"><path d="M931.948-245.722l33.436.39-.026.543 11.662-.478-.837 16.554-11.089-1.033.019 1.045-26.708.029z" transform="matrix(.808209 .588896 -.596196 .802839 0 0)" class="J"/><path d="M916.384 384.492l10.047-12.929m-1.853 2.388l9.614 6.526m-11.447-4.22l9.594 6.691m-10.932-5.085l8.894 7.288m-10.458-5.188l8.729 7.164m-10.376-5.27l8.585 7.556" class="C"/><path d="M932.277-241.963l29.196.203.628 9.838-23.053.113z" transform="matrix(.808209 .588896 -.596196 .802839 0 0)" class="F"/><g class="J"><path d="M910.293 269.634h19.733v21.461h-19.733z" transform="matrix(.995995 .089403 -.098426 .995144 0 0)"/><g transform="matrix(.9957 .092638 -.091799 .995778 0 0)"><path d="M911.214 269.536h12.842v15.793h-12.842z"/><path d="M915.938 276.326h3.037v3.735h-3.037z"/></g></g></g><g class="C W"><g stroke-width=".502"><use href="#S" class="U"/><use href="#S" x="11.005" y="8.792" class="U"/></g><path d="M911.551 369.754c0 .706-.315 1.359-.826 1.712a1.42 1.42 0 0 1-1.653 0c-.511-.353-.826-1.006-.826-1.712s.315-1.359.826-1.712a1.42 1.42 0 0 1 1.653 0c.511.353.826 1.006.826 1.712z" stroke-width=".523" class="U"/></g><g class="E J"><path d="M821 360v19c24 6 38.987 45 79 45s55-39 79-45v-19c-39 0-44 40-79 40s-40-40-79-40zm-2.347 15.582l-18.575-6.871m18.575 4.61l-18.575-6.871m18.575 4.61l-18.575-6.871m18.575 4.61l-18.575-6.871m18.575 4.61l-18.575-6.871m18.575 4.61l-18.575-6.871m18.575 4.61l-18.575-6.871M819 360l-19-8v19l19 7z"/><path d="M818 359h3v20h-3zm163.347 16.582l18.575-6.871m-18.575 4.61l18.575-6.871m-18.575 4.61l18.575-6.871m-18.575 4.61l18.575-6.871m-18.575 4.61l18.575-6.871m-18.575 4.61l18.575-6.871m-18.575 4.61l18.575-6.871M981 360l19-8v19l-19 7z"/><path d="M982 359h-3v20h3z"/></g></g><path d="M21.25 219.298c31.768 5 33.906 44 79 44s47.232-39 79-44l-.031-10c-37.583.017-39.404 38-78.969 38s-41.386-37.983-78.969-38z" class="E F"/></g><path d="M33.048 220.215l-1.015.255-1.287-.793-.408.662 7.259 4.47 1.155.659a7.51 7.51 0 0 0 1.428.548c.312.077.592.117.842.12.274.028.531.01.771-.052.494-.117.947-.495 1.361-1.133.189-.306.284-.615.286-.925a2.35 2.35 0 0 0-.253-1.114c-.366-.653-.898-1.305-1.595-1.955-.164-.167-.266-.292-.307-.374-.01-.016-.021-.016-.032.001-.004.005.187.067.573.185a7.35 7.35 0 0 0 1.468.372c.422.04.829-.015 1.218-.167a1.64 1.64 0 0 0 .869-.706c.287-.514.407-.976.358-1.386-.068-.437-.27-.855-.605-1.255a4.36 4.36 0 0 0-.862-.86l-.987-.637-7.51-4.625-.408.662 1.185.73.326 1.094zm4.521-1.299l1.933 1.191c.419.258.726.53.919.815.172.273.265.542.278.808a1.71 1.71 0 0 1-.08.76 4.07 4.07 0 0 1-.339.702c-.217.353-.555.653-1.013.9-.221.094-.51.13-.865.109-.239-.019-.534-.136-.883-.352l-1.513-.932-.261-1.04zm2.017-3.276l.965-.28 1.359.837c.471.29.824.668 1.06 1.134.175.367.082.856-.28 1.468-.236.383-.486.633-.749.748-.303.136-.588.193-.854.17a2.55 2.55 0 0 1-.794-.181c-.253-.108-.462-.214-.628-.316l-1.656-1.019zm16.088 24.998l-1.143-1.178-.558.541 5.046 5.199.558-.541a4.66 4.66 0 0 1-.748-.942 1.62 1.62 0 0 1-.152-.549 1.17 1.17 0 0 1 .057-.642l3.778-8.998-.944-.973-9.56 2.453c-.399.105-.763.121-1.094.048-.386-.065-.781-.219-1.183-.463l-.518.503 3.286 3.386.558-.541-.61-.629.529-1.509.968-.233 3.106 3.2-.774 1.831zm-.834-5.442l4.144-.951c.009-.001-.003-.017-.034-.049-.012-.019-.014-.039-.007-.062l-1.462 3.784zm13.796 16.485l-1.005.294-1.427-.804-.382.677 6.386 3.596.382-.677-.892-.502-.301-1.029 1.737-3.085 3.838 2.161-1.738 3.086-.941.328-1.004-.566-.382.677 6.404 3.607.382-.677-1.43-.806-.268-1.007 3.589-6.372 1.111-.244 1.326.747.382-.677-6.404-3.607-.382.677.904.509.304 1.037-1.398 2.483-3.838-2.161 1.403-2.491.953-.318.972.548.382-.677-6.386-3.596-.382.677 1.323.745.368 1.081zm28.346 9.869l-1.637-.115-.055.776 7.227.509.055-.776a4.66 4.66 0 0 1-1.186-.203 1.64 1.64 0 0 1-.48-.308 1.17 1.17 0 0 1-.386-.516l-3.186-9.224-1.352-.095-5.487 8.203c-.227.344-.488.599-.783.765-.331.209-.728.357-1.19.445l-.051.72 4.706.331.055-.776-.874-.062-.612-1.477.566-.82 4.448.313.644 1.88zm-4.251-3.498l2.453-3.473c.006-.006-.013-.011-.058-.014-.022-.006-.037-.02-.046-.042l1.434 3.795zm19.479 4.041l5.74-2.086-.266-.731-1.278.465-1.717-.936-2.321-6.388c-.013-.037-.025-.054-.034-.05.012-.004.03.008.054.036l7.011 7.079.514-.187.293-9.491a.93.93 0 0 1 .079-.347c.008-.034.01-.051.006-.049-.01.004.024.113.103.328l2.488 6.848-.487.982-1.65.6.266.731 7.562-2.748-.266-.731-1.503.546-.939-.452-2.498-6.874.539-1.002 1.39-.505-.266-.731-5.605 2.037-.28 6.691.164-.06-4.778-4.853-5.862 2.13.266.731 1.964-.714c.217-.068.352-.077.404-.024a1.74 1.74 0 0 1 .197.395l2.321 6.387-.644 1.796-1.23.447zm29.655-18.394l-1.187 1.133.537.563 5.242-5.001-.537-.563a4.66 4.66 0 0 1-.949.74 1.64 1.64 0 0 1-.551.148 1.18 1.18 0 0 1-.641-.062l-8.966-3.855-.981.936 2.371 9.58c.102.4.115.764.039 1.094-.068.386-.226.779-.473 1.179l.498.522 3.414-3.257-.537-.563-.634.605-1.504-.542-.225-.97 3.227-3.078 1.824.789zm-5.449.788l-.916-4.152c-.001-.009-.017.002-.049.033-.019.012-.04.014-.062.006l3.771 1.494zm17.563-12.117l.474-.401.253-1.552c.071.027.222.02.453-.024.227-.051.5-.131.821-.239.603-.179 1.363-.648 2.282-1.406 1.04-.879 1.797-1.866 2.269-2.959.468-1.043.266-2.107-.608-3.19-.431-.51-.951-.859-1.56-1.047-.478-.136-.976-.138-1.495-.006-.554.131-1.105.357-1.651.678-.454.277-.901.584-1.342.92-1.087.763-1.985 1.3-2.696 1.61-.642.283-1.125.234-1.448-.149-.188-.223-.278-.461-.268-.715a1.6 1.6 0 0 1 .218-.769 3.82 3.82 0 0 1 .242-.419 2.25 2.25 0 0 1 .278-.337l.693-.641c1.197-.976 2.262-1.492 3.195-1.546.473-.052.923-.04 1.35.035a7.61 7.61 0 0 1 1.174.373l.529-.447-2.324-2.749-.485.41-.179 1.434c-.263.014-.749.164-1.459.451-.716.294-1.558.839-2.525 1.634-.537.454-.977.946-1.32 1.478-.319.549-.526 1.093-.623 1.632a2.89 2.89 0 0 0 .116 1.337 2.66 2.66 0 0 0 .556 1.065c.835.965 1.793 1.322 2.871 1.07 1.109-.238 2.259-.785 3.451-1.642l1.078-.777a8.87 8.87 0 0 1 1.215-.687c.377-.199.733-.308 1.067-.326.283-.015.512.081.688.289.326.405.349.914.069 1.529-.25.568-.727 1.15-1.432 1.746-.637.539-1.232.9-1.785 1.082-.564.218-1.095.326-1.594.324a5.05 5.05 0 0 1-1.348-.219 9.06 9.06 0 0 1-1.345-.439l-.517.437z"/></g><defs ><path id="C" d="M1078.843 808.643c-9.002.106-18.004.284-26.935.851-6.592.496-14.106 1.063-20.521 1.985l-1.63.284c-4.04.78-4.607 5.6-2.481 8.222 4.324 5.423 29.948 9.64 60.215 9.64 30.231 0 55.855-4.218 60.179-9.64 2.127-2.623 1.559-7.443-2.481-8.222l-1.63-.284c-6.379-.921-13.928-1.489-20.521-1.985-8.931-.567-17.933-.744-26.935-.851h-8.612z"/><path id="D" d="M124.453 66.898l2.168-6.822.876-2.824 2.17-1.453 2.198-5.382 1.035-1.407.16-4.959s-1.519-3.517-3.869-4.781c-3.362-1.807-7.925-1.558-7.925-1.558s-1.054-3.003-2.988-4.172-4.08-1.45-6.334-1.45-6.297 2.17-8.484 2.808c-1.137.332-3.704 1.45-3.704 1.45l-3.704-1.45c-2.187-.638-6.231-2.808-8.484-2.808s-4.33.239-6.334 1.45c-1.863 1.126-4.421 4.172-4.421 4.172s-2.929-.428-4.986.905c-2.566 1.663-4.375 5.162-4.375 5.162l.177 5.418.404 2.071 1.658 2.053 2.162 4.147 1.549 4.09 1.658 5.338z"/><path id="E" d="M771.158 228.303c-39.76-1.074-94.774 15.069-140.062 71.531l10.156 8.125c42.842-53.413 93.601-67.627 129.563-66.656z"/><path id="F" d="M-272.646 1095.46s-4.939 7.603-7.977 10.201c-4.218 3.608-6.992 5.781-12.411 7.489-5.409 1.705-12.953 2.664-18.616 2.354-5.477-.3-11.112-1.888-16.048-4.28-4.291-2.079-11.127-8.131-11.127-8.131-3.323 4.312-7.555 7.341-11.583 9.579-5.151 2.862-10.24 3.12-15.586 2.832-10.867-.586-21.005-7.374-29.137-21.138-5.273-12.47-11.337-25.099-18.912-38.342 8.729-3.09 18.903-4.736 30.187-5.271-4.589 12.931-9.35 25.528-7.666 35.937 9.481-7.101 12.547-16.767 15.812-26.353l11.021 38.812c-6.689-1.173-3.132-2.555-20.698-5.885 3.52 6.637 11.578 14.832 20.462 15.639 5.974.543 10.31-1.303 14.107-4.596 2.728-2.366 5.215-5.495 5.182-9.02l-.056-6.056c-.012-1.297-1.613-3.132-2.909-3.151-1.236-.017-1.578 1.988-1.908 3.179-.66 2.383.665 5.037 0 7.419-.734 2.626-2.141 4.699-4.451 6.147-1.924 1.206-6.571 1.484-6.571 1.484l1.484-5.723c1.047-4.037-2.872-7.171-3.815-11.234-.607-2.615-.941-5.54 0-8.054 1.018-2.72 3.079-5.368 5.723-6.571.965-.439 2.122-.499 3.179-.424 1.495.106 4.451 1.06 4.451 1.06s-.848-4.091-.636-6.571c.258-3.007 2.805-8.578 4.239-11.234 2.381-4.41 6.168-8.383 6.6-8.81.415.417 4.52 4.238 7.202 8.471 1.615 2.55 3.272 6.234 3.739 9.216.384 2.459.247 7.659.247 7.659s4.366-1.793 5.85-2.003c1.049-.149 2.208-.169 3.201.202 2.721 1.016 4.961 3.514 6.166 6.157 1.114 2.443.984 5.384.56 8.035-.658 4.119-3.078 7.305-1.753 11.26l1.878 5.606s-4.654.046-6.658-1.023c-2.405-1.283-3.954-3.254-4.868-5.822-.829-2.33-.348-5.183-1.788-7.189-.637-.888-1.528-1.87-2.76-1.767-1.292.108-2.2 2.22-2.254 3.516l-.229 5.451c-.07 1.675.693 3.416 1.59 4.771 2.197 3.32 5.468 5.334 9.158 6.83 3.997 1.62 7.601 2.242 11.913 2.293 3.597.042 9.85-.547 13.258-1.699 4.199-1.419 6.669-3.221 9.917-6.236 1.831-1.7 3.055-4.168 3.86-6.533.928-2.724.594-7.424.594-7.424-4.178 1.584-7.811 3.713-11.086 6.201-3.701 2.812-6.943 6.081-9.998 9.538l-.297-46.919c4.353 4.802 7.517 9.102 11.87 12.718 3.665 3.045 5.549 4.207 9.214 5.396-1.047-3.774-1.401-6.064-4.103-9.838-3.747-5.233-7.396-10.852-11.932-16.086 8.353-1.391 16.702-1.766 25.167-1.766s16.813.375 25.167 1.766c-4.537 5.233-8.186 10.852-11.932 16.086-2.702 3.774-3.056 6.064-4.103 9.838 3.665-1.189 5.549-2.351 9.214-5.396 4.353-3.616 7.517-7.917 11.87-12.718l-.297 46.919c-3.055-3.457-6.298-6.726-9.998-9.538-3.274-2.488-6.907-4.617-11.086-6.201 0 0-.334 4.7.594 7.424.806 2.365 2.029 4.833 3.86 6.533 3.248 3.015 5.718 4.817 9.917 6.236 3.408 1.152 9.661 1.741 13.258 1.699 4.312-.05 7.917-.673 11.913-2.293 3.69-1.495 6.96-3.509 9.158-6.83.897-1.355 1.66-3.096 1.59-4.771l-.229-5.451c-.054-1.296-.962-3.408-2.254-3.516-1.232-.103-2.123.88-2.76 1.767-1.44 2.006-.958 4.859-1.788 7.189-.914 2.568-2.463 4.539-4.868 5.822-2.004 1.069-6.658 1.023-6.658 1.023l1.878-5.606c1.325-3.955-1.095-7.141-1.753-11.26-.424-2.651-.554-5.592.56-8.035 1.205-2.643 3.445-5.14 6.166-6.157.993-.371 2.152-.35 3.201-.202 1.484.21 5.85 2.003 5.85 2.003s-.138-5.2.247-7.659c.466-2.982 2.123-6.666 3.739-9.216 2.682-4.234 6.787-8.054 7.202-8.471.432.427 4.219 4.4 6.6 8.81 1.434 2.656 3.982 8.226 4.239 11.234.212 2.48-.636 6.571-.636 6.571s2.956-.954 4.451-1.06c1.057-.075 2.215-.015 3.179.424 2.644 1.203 4.704 3.851 5.723 6.571.941 2.514.607 5.439 0 8.054-.943 4.063-4.862 7.196-3.815 11.234l1.484 5.723s-4.646-.278-6.571-1.484c-2.31-1.447-3.718-3.521-4.451-6.147-.665-2.382.66-5.035 0-7.419-.33-1.191-.672-3.197-1.908-3.179-1.297.018-2.897 1.854-2.909 3.151l-.056 6.056c-.033 3.525 2.455 6.654 5.182 9.02 3.797 3.293 8.133 5.139 14.107 4.596 8.884-.807 16.942-9.002 20.462-15.639-17.566 3.33-14.009 4.712-20.698 5.885l11.021-38.812c3.265 9.587 6.331 19.253 15.812 26.353 1.684-10.409-3.077-23.005-7.666-35.937 11.284.535 21.457 2.181 30.187 5.271-7.574 13.242-13.639 25.871-18.912 38.342-8.132 13.764-18.27 20.552-29.137 21.138-5.346.288-10.435.03-15.586-2.832-4.028-2.238-8.259-5.267-11.583-9.579 0 0-6.836 6.052-11.127 8.131-4.936 2.391-10.571 3.979-16.048 4.28-5.663.31-13.207-.649-18.616-2.354-5.418-1.708-8.192-3.881-12.411-7.489-3.037-2.598-7.977-10.201-7.977-10.201z"/><path id="G" d="M-346.459 1090.707h16.902l2.199 3.806-2.199 3.806h-16.902l-2.707-3.806z"/><path id="H" d="M241.565 788.3l-.025.019h-.025c-10.727.772-23.142 1.614-33.976 3.09-1.532 1.831-1.659 3.501 1.128 4.836 10.401-1.417 22.664-2.279 33.399-3.051 14.559-.844 29.238-1.371 43.88-1.516h28.083c8.758 0 27.255.534 43.88 1.535 16.549.996 33.449 3.032 33.449 3.032 2.884-1.473 2.571-3.12 1.003-4.836 0 0-17.057-2.092-33.951-3.109-16.818-1.012-35.292-1.535-44.382-1.535h-28.083c-14.816.044-29.608.743-44.382 1.535z"/><path id="I" d="M626.165 310.883l-23.701-12.771 23.701-12.082 2.881 13.147z"/><path id="J" d="M626.165 307.466l-17.183-9.259 17.183-8.759 5.657 8.579z"/><path id="K" d="M626.165 307.466l-17.183-9.259 22.66-.18z"/><path id="L" d="M608.937 298.141l22.953-.025"/><path id="M" d="M626.165 307.466l-17.183-9.259 17.183-8.759 5.837 8.399z"/><path id="N" d="M166.8 146.627a66.55 50.731 0 1 1-133.1 0 66.55 50.731 0 1 1 133.1 0z"/><path id="O" d="M54.049 156.857s.891 2.775 5.023 2.676c3.557-.085 5.064-2.718 5.064-2.718-2.816.834-5.85.848-10.088.041z"/><path id="P" d="M54.419 156.94c1.352-2.036 1.949-4.98 2.8-7.617-.134 2.607-.967 5.005-.124 7.906z"/><path id="Q" d="M58.989 157.434c-.347-4.901.95-6.506 1.647-8.935-.198 3.206-.098 8.199-1.647 8.935z"/><path id="R" d="M62.654 157.043c1.548-1.007 1.454-3.773 1.276-6.526-.954 1.595-1.865 3.843-1.276 6.526z"/><path id="S" d="M904.914 365.387c0 .706-.226 1.359-.594 1.712s-.82.353-1.187 0-.594-1.006-.594-1.712.226-1.359.594-1.712.82-.353 1.187 0 .594 1.006.594 1.712z"/></defs></svg>