<?xml version="1.0" encoding="UTF-8"?>
<svg id="svg2" width="600" height="900" version="1.0" xmlns="http://www.w3.org/2000/svg" xmlns:cc="http://creativecommons.org/ns#" xmlns:dc="http://purl.org/dc/elements/1.1/" xmlns:rdf="http://www.w3.org/1999/02/22-rdf-syntax-ns#">
 <metadata id="metadata721">
  <rdf:RDF>
   <cc:Work rdf:about="">
    <dc:format>image/svg+xml</dc:format>
    <dc:type rdf:resource="http://purl.org/dc/dcmitype/StillImage"/>
   </cc:Work>
  </rdf:RDF>
 </metadata>
 <g stroke-width="180">
  <rect id="orange_stripe" transform="rotate(-90)" x="-900" width="900" height="600" fill="#f78200"/>
  <rect id="white_stripe" transform="rotate(-90)" x="-900" y="200" width="900" height="400" fill="#ffffff"/>
  <rect id="blue_stripe" transform="rotate(-90)" x="-900" y="400" width="900" height="200" fill="#0088aa"/>
 </g>
 <g id="emblem" transform="matrix(1.933063,0,0,1.5019937,30.39843,152.92947)">
  <g id="g2568" transform="matrix(.300903 0 0 .300903 140.6722 .1505)">
   <g id="g2570" stroke="#000000" stroke-linejoin="round" stroke-width="1.76061416">
    <path id="21162512" d="m-5 493c15 0 24-21 20-32-5-16-31-20-35 1-4 20 7 31 15 31z" fill="#ffffff"/>
    <path id="21162424" d="m-3 508c0-23-1-32-1-40 1-10-18-9-6 5 1 15 2 30 2 36z" fill="#ffffff"/>
    <path id="21162336" d="m3 449c10 10 5 31-7 36" fill="none" stroke-linecap="round"/>
    <path id="21162248" d="m-31 629c4-33 7-88 10-114-2-4-4-6-5-9 3-2 6-4 8-5 2 3 4 5 5 6 2 1 3 1 3 1l2-6h4l3 5 4-1 2-6h3l2 7 2 2 4-5 6 3c-3 4-4 6-6 9-1 17-1 28 1 43s9 59 10 67c0 7-60 10-58 3z" fill="#ffffff"/>
    <path id="21162160" d="m-105 449c13 0 25 20 15 37s-29 5-30-6c-2-10 0-31 15-31z" fill="#ffffff"/>
    <path id="21162072" d="m-105 449c15 3 21 29 2 40" fill="none" stroke-linecap="round"/>
    <g fill="#ffffff">
     <path id="21161984" d="m-102 510v-33c0-5-2-13-6-13-5 0-13 9 0 15 1 7 0 23 0 29z"/>
     <path id="21161896" d="m-135 629c4-28 12-104 14-113-3-5-8-9-10-12l6-4 2 6h4l2-6h5v5l5 1 2-6h8l1 6h6l3-4 7 3-6 12c1 35 3 85 5 110 1 14-56 18-54 2z"/>
     <path id="21161808" d="m92 451c-16 0-23 21-12 35 10 14 24 16 30-3 5-17-4-32-18-32z"/>
    </g>
    <path id="21161720" d="m83 453c15-7 32 17 11 37" fill="none" stroke-linecap="round"/>
    <path id="21161632" d="m99 515c0-9-1-27-1-33s-4-16-10-16c-7 0-13 9 1 14 1 5 3 29 3 35z" fill="#ffffff"/>
    <path id="21161544" d="m62 627c3-31 9-95 9-106l-4-9 11-6 5 6 4-1 1-7 5 1 2 6h5l4-5 6 1-2 5 4 3 3-4 4 4-5 7c1 33 5 95 6 105 1 17-60 19-58 0z" fill="#ffffff"/>
   </g>
   <g id="g2584" fill="none" stroke="#000000" stroke-linecap="round" stroke-linejoin="round" stroke-width="1.76061416">
    <path id="21161368" d="m-25 559c11 0 35 2 42 2"/>
    <path id="21161280" d="m-23 546c6-4 33 2 39 0"/>
    <path id="21161192" d="m16 527c-10-4-30-5-38 0"/>
    <path id="21161104" d="m-21 517c10-5 26-5 37-1"/>
    <path id="21161016" d="m20 576c-15-2-36-5-46-1"/>
    <path id="21160928" d="m-26 588c8 0 33-1 48 3"/>
    <path id="21160840" d="m24 604c-16-1-39-4-53 0"/>
    <path id="21160752" d="m-29 615c11-1 46-1 54-1"/>
    <path id="21160664" d="m-133 615c4-3 42-2 51-1"/>
    <path id="21160576" d="m-132 603c9-3 42-1 50-1"/>
    <path id="21160488" d="m-83 590c-8-1-40 0-47 2"/>
    <path id="21160400" d="m-129 581c9-3 36-3 45-1"/>
    <path id="21160312" d="m-128 570c6-3 27-6 44-1"/>
    <path id="21160224" d="m-85 558c-14-3-34-2-41 2"/>
    <path id="21160136" d="m-125 552c8-2 31-3 40-2"/>
    <path id="21160048" d="m-87 526c-10-5-26-4-35 0"/>
    <path id="21159960" d="m-121 516c7-3 21-5 35 1"/>
    <path id="21159872" d="m-108 566v13"/>
    <path id="21159784" d="m-107 523v6"/>
    <path id="21159696" d="m-106 550v7"/>
    <path id="21159608" d="m-124 539h9"/>
    <path id="21159520" d="m-104 538c3 1 15 1 18 1"/>
    <path id="21159432" d="m-23 532c7-1 23-1 30 0"/>
    <path id="21159344" d="m-6 545c0 4 1 13 0 15"/>
    <path id="21159256" d="m-17 560v6"/>
    <path id="21159168" d="m-3 572v-5"/>
    <path id="21159080" d="m-14 531s0 4 1 6c0 2 4 2 7 2"/>
    <path id="21158992" d="m3 532v8"/>
    <path id="21158904" d="m63 609c13-3 36-5 55-1"/>
    <path id="21158816" d="m65 594c12 1 37 0 53 5"/>
    <path id="21158728" d="m65 587c12-6 35-7 52 1"/>
    <path id="21158640" d="m67 573c14-5 40-6 49-2"/>
    <path id="21158552" d="m68 563c14-4 38-5 48-2"/>
    <path id="21158464" d="m70 549c12-2 36-4 45 1"/>
    <path id="21158376" d="m71 540c9-3 37-4 44-2"/>
    <path id="21158288" d="m114 530c-11-3-35-5-43 2"/>
    <path id="21158200" d="m71 521c11-5 31-4 43 1"/>
    <path id="21158112" d="m92 527 1 10"/>
    <path id="21158024" d="m85 537 1 10"/>
    <path id="21157936" d="m100 537v10"/>
    <path id="21157848" d="m93 547v12"/>
    <path id="21157760" d="m92 569-2 13"/>
   </g>
   <g id="g2628">
    <path id="21157584" d="m-112 534c-6 0-6 10-1 10s6-10 1-10z" fill="#000000"/>
    <path id="21157496" d="m-99 533c-4 0-3 9 1 9 3 0 4-9-1-9z" fill="#000000"/>
    <g id="g2632">
     <path id="21157320" d="m-17 632c1-26-1-46 11-46 12 1 9 17 10 46-9 1-15 1-21 0z" fill="#000000"/>
     <path id="21157232" d="m-122 629c0-16-3-44 10-44s9 31 9 43" fill="none" stroke="#000000" stroke-linecap="round" stroke-linejoin="round" stroke-width="8.21619987"/>
     <path id="21157144" d="m80 638c0-23-3-49 9-49 9 0 10 23 10 48z" fill="#000000"/>
    </g>
   </g>
   <g id="g2637" fill="none" stroke="#000000" stroke-linecap="round" stroke-linejoin="round" stroke-width="1.76061416">
    <path id="21156968" d="m106 590c2 0 9 2 12 3"/>
    <path id="21156880" d="m106 602c3 0 10 1 12 2"/>
    <path id="21156792" d="m105 613c4 0 10 1 14 2"/>
    <path id="21156704" d="m105 578c3 0 8 1 12 2"/>
    <path id="21349224" d="m105 573c5 0 9 1 12 2"/>
    <path id="21349136" d="m105 564c3 0 9 1 11 1"/>
    <path id="21349048" d="m107 553c3 1 6 1 9 2"/>
    <path id="21348960" d="m107 543c3 0 6 0 8 1"/>
    <path id="21348872" d="m12 609h13"/>
    <path id="21348784" d="m12 598c3 0 9 1 11 1"/>
    <path id="21348696" d="m12 593c3 1 8 2 10 2"/>
    <path id="21348608" d="m11 584c3 1 9 1 10 2"/>
    <path id="21348520" d="m11 579c2 0 7 2 9 2"/>
    <path id="21348432" d="m11 570h8"/>
    <path id="21348344" d="m11 564c1 0 7 1 7 1"/>
    <path id="21348256" d="m9 555c3 0 6 0 8 1"/>
    <path id="21348168" d="m10 551h6"/>
    <path id="21348080" d="m10 540h5"/>
    <path id="21347992" d="m11 529c1 0 2 1 4 1"/>
    <path id="21347904" d="m-94 618c4 0 10 1 12 1"/>
    <path id="21347816" d="m-94 607c3 0 10 2 12 2"/>
    <path id="21347728" d="m-94 598h11"/>
    <path id="21347640" d="m-92 593c3 0 7 1 9 1"/>
    <path id="21347552" d="m-93 587h10"/>
    <path id="21347464" d="m-92 582c2 0 6 1 8 1"/>
    <path id="21347376" d="m-91 574h7"/>
    <path id="21347288" d="m-92 562c3 0 6 1 8 1"/>
    <path id="21347200" d="m-90 554h5"/>
    <path id="21347112" d="m-91 544h6"/>
    <path id="21347024" d="m-91 533h5"/>
   </g>
  </g>
  <g id="g2669" transform="matrix(.300903 0 0 .300903 140.6722 .1505)" stroke="#000000" stroke-linejoin="round" stroke-width="1.76061416">
   <path id="21346848" d="m150 658c-11-10-21-24-27-34-5-9-17-3-31 3-7 0-19-3-23-7-5-3-7-2-13 5-5 7-4 7-3 14 1 6-4 12-9 19-1-1-1-2-2-2-4-6-5-19-10-31-4-12-10-9-20 1-6-5-20-3-25-1-6 2-13 3-20 1-8-2-7 0-9 8s-6 17-9 29c-4-2-8-5-13-8-4-19-7-25-12-30s-15-5-23-3c-9 1-21 3-32 2-5-4-10-2-13 3-4 6-10 19-14 27 12 40 73 146 155 166 47-25 142-99 153-162z" fill="#00ab39"/>
   <g id="g2672" fill="none" stroke-linecap="round">
    <path id="21346672" d="m44 658c5 6 11 17 14 26s7 20 12 25c4 6 13 23 15 34"/>
    <path id="21346584" d="m-51 663c15 11 18 19 23 37 9 8 18 17 22 22 4 6 7 18 7 27 18 16 26 29 33 47"/>
    <path id="21346496" d="m-94 751c7-4 14-13 16-20 7 4 17 8 22 12 4 11 8 26 13 33 9 0 17-2 22-6-5-5-12-10-15-16 3-9 6-22 6-28-5-5-12-10-17-13"/>
    <path id="21346408" d="m-64 655c-8-5-30-7-38-7"/>
    <path id="21346320" d="m12 626c-7 8-13 14-13 21s2 30-2 37"/>
    <path id="21346232" d="m3 635c1 11 5 34 4 43 5-2 13-9 13-15 2 20-4 35-4 43 0-8 17-13 19-20 2 5 4 18 3 21"/>
    <path id="21346144" d="m38 707 6-9"/>
    <path id="21346056" d="m44 698c4 1 10-1 13-3-1 7 0 18 0 23"/>
    <path id="21345968" d="m20 757c1-5 0-11-8-14 0-4 0-10-4-13 5-2 15 0 19 4 7-4 25-1 32 8-11-29-36-16-49-22 6 1 20-2 23-5 4-2 11 0 17-4"/>
    <path id="21345880" d="m50 711 1 6"/>
    <path id="21345792" d="m92 627c-9 5-8 10-20 12 10-2 18 2 24 4 6 3 20 6 29-1 0 4 0 6 3 10-9 4-22 5-30 2-8-2-14 0-20-3-4 4-7 7-7 10 8-4 17 6 26 2 6 9 9 17 12 23-1 3-2 5-3 9-12-4-15-8-16-11-6-6-13-9-21-7"/>
    <path id="21345704" d="m90 684c-4 4-4 15-4 18"/>
    <path id="21345616" d="m86 702h-4"/>
    <path id="21345528" d="m82 702c1 9 0 22 0 29"/>
    <path id="21345440" d="m-25 703c-11 0-40-9-49-19-7 1-20 0-29-8"/>
    <path id="21345352" d="m-51 663c-3 7-12 9-18 9-9 6-29 6-39 4"/>
   </g>
   <g fill="none" stroke-linecap="round">
    <path id="21345264" d="m-27 658v9"/>
    <path id="21345176" d="m-21 655-2 29"/>
    <path id="21345088" d="m-14 657s-2 11-2 14"/>
    <path id="21345000" d="m9 628v17"/>
    <path id="21344912" d="m13 624c1 7 1 23 1 23"/>
    <path id="21344824" d="m14 647h-2"/>
    <path id="21344736" d="m12 647s0 11-1 16"/>
    <path id="21344648" d="m18 620v29"/>
    <path id="21344560" d="m23 617v26"/>
    <path id="21344472" d="m28 619c0 5 1 20 0 22"/>
    <path id="21344384" d="m34 631c0 4-1 14-2 17"/>
    <path id="21344296" d="m25 663c0 9 2 26 1 32"/>
    <path id="21344208" d="m30 660c1 8 2 26 2 31"/>
    <path id="21344120" d="m35 663c0 9 1 23 1 27"/>
    <path id="21344032" d="m40 665c1 7 2 28 2 34"/>
    <path id="21343944" d="m47 664c1 8 2 27 2 33"/>
    <path id="21343856" d="m55 667c0 8-1 23 0 28"/>
    <path id="21343768" d="m-68 640c-5-1-11-3-11-3"/>
    <path id="21343680" d="m-66 647c-6-1-17-4-17-4"/>
    <path id="21343592" d="m-6 630h6"/>
    <path id="21343504" d="m-6 636h6"/>
    <path id="21343416" d="m-7 642h6"/>
    <path id="21343328" d="m-108 622c-1 9-11 20-12 28"/>
    <path id="21343240" d="m-118 623c0 6-4 19-7 23"/>
    <path id="21343152" d="m-125 624c1 4-1 11-2 13"/>
    <path id="21343064" d="m-131 624c0 3-1 8-2 11"/>
    <path id="21342976" d="m-111 687v7"/>
    <path id="21342888" d="m-105 688v10"/>
    <path id="21342800" d="m-98 692 1 10"/>
    <path id="21342712" d="m-92 695v10"/>
    <path id="21342624" d="m-87 698 1 11"/>
    <path id="21342536" d="m-80 701c-2 5 0 10 0 13"/>
    <path id="21342448" d="m-115 670v9"/>
    <path id="21342360" d="m-37 677c1 6 1 18 0 24"/>
    <path id="21342272" d="m-43 669c0 12-1 35-2 44"/>
    <path id="21342184" d="m-49 665c-1 7-2 28-1 33 0 5-1 9 0 14"/>
    <path id="21342096" d="m-54 668c-1 10-2 23-2 28-1 4-1 15 0 20"/>
    <path id="21342008" d="m-63 672c1 10 0 17 1 22-3 4-1 16-2 22"/>
    <path id="21341920" d="m-69 672c1 7 2 14 2 18-2 3-5 15-4 23"/>
    <path id="21341832" d="m-76 674c0 3 1 8 0 10"/>
    <path id="21341744" d="m-82 685v-9c8-1 22-1 34 8"/>
    <path id="21341656" d="m-32 709c1 4 3 12 2 17"/>
    <path id="21341568" d="m-27 710c3 9 2 32 0 40"/>
    <path id="21341480" d="m-22 709c2 7 3 17 4 21-2 6-2 15-1 20"/>
    <path id="21341392" d="m-15 713c0 6 0 26-1 33"/>
    <path id="21341304" d="m-79 734c0 6-4 22-5 26"/>
    <path id="21341216" d="m-74 733c0 7-4 28-5 33"/>
    <path id="21341128" d="m-69 736c-1 8-3 27-4 31"/>
    <path id="21423552" d="m-64 738c0 7 0 18-1 23"/>
    <path id="21423464" d="m-58 741c-1 7-3 27-3 32"/>
    <path id="21423376" d="m-54 750c0 7-1 20-1 23"/>
    <path id="21423288" d="m-49 762v19"/>
    <path id="21423200" d="m-44 775c0 4-1 18-1 18"/>
    <path id="21423112" d="m-37 776-1 22"/>
    <path id="21423024" d="m-32 775c0 6 1 23 0 26"/>
    <path id="21422936" d="m-27 773c1 7 0 27-1 31"/>
    <path id="21422848" d="m-21 770c0 11-1 34-2 40"/>
    <path id="21422760" d="m-14 765c-1 11-4 42-4 46"/>
    <path id="21422672" d="m-8 765c0 9-2 33-2 36"/>
    <path id="21422584" d="m-3 764v27"/>
    <path id="21422496" d="m2 767v7"/>
    <path id="21422408" d="m7 766c-1 7-2 21-2 24"/>
    <path id="21422320" d="m11 766c0 5-1 19-1 22"/>
    <path id="21422232" d="m18 764c0 6 0 17-1 20"/>
    <path id="21422144" d="m-9 718c-1 9-2 28-3 32"/>
    <path id="21422056" d="m-4 736c0 5-2 11-2 13"/>
    <path id="21421968" d="m-37 709v10"/>
    <path id="21421880" d="m17 730c0 3-1 12-1 15"/>
    <path id="21421792" d="m23 732c0 5 2 28 1 32"/>
    <path id="21421704" d="m30 734c0 7-1 32-1 35"/>
    <path id="21421616" d="m35 732c0 9 0 36-2 41"/>
    <path id="21421528" d="m41 732c0 10-1 39-2 44"/>
    <path id="21421440" d="m47 735c1 7 1 39 0 43"/>
    <path id="21421352" d="m53 737c1 7-1 24-1 28"/>
    <path id="21421264" d="m57 728c1 9 3 37 2 42"/>
    <path id="21421176" d="m61 670c0 6-1 14-1 20 2 6 2 24 2 27"/>
    <path id="21421088" d="m67 702c0 11-3 52-3 60"/>
    <path id="21421000" d="m72 711c0 9-1 43-1 48"/>
    <path id="21420912" d="m78 722c-1 7 0 28 0 33"/>
    <path id="21420824" d="m94 689c-1 5-4 21-5 24"/>
    <path id="21420736" d="m100 693c-1 6-3 18-4 21"/>
    <path id="21420648" d="m106 695c-2 6-6 21-2 29"/>
    <path id="21420560" d="m64 674v15"/>
    <path id="21420472" d="m71 677c0 3-1 8-1 10"/>
    <path id="21420384" d="m76 676c0 4 0 17-1 20"/>
    <path id="21420296" d="m81 678c0 5 0 15-1 19"/>
    <path id="21420208" d="m83 652v9"/>
    <path id="21420120" d="m89 653v10"/>
    <path id="21420032" d="m95 653v10"/>
    <path id="21419944" d="m104 655-2 16"/>
    <path id="21419856" d="m108 656v26"/>
    <path id="21419768" d="m115 655c0 16-1 49-2 55"/>
    <path id="21419680" d="m121 654c1 8 1 41 0 46"/>
    <path id="21419592" d="m128 652v41"/>
    <path id="21419504" d="m134 640c0 9 2 35 1 42"/>
    <path id="21419416" d="m122 681c7 1 15-2 19-2"/>
    <path id="21419328" d="m115 670c6 0 22-1 27-1"/>
    <path id="21419240" d="m109 664c15-2 32-4 38-4"/>
    <path id="21419152" d="m126 644c4 0 8-1 10 0"/>
    <path id="21419064" d="m108 639c7 0 20-1 24-1"/>
    <path id="21418976" d="m109 634c6 0 18-1 20-1"/>
    <path id="21418888" d="m106 629c6 0 16-1 18-1"/>
    <path id="21418800" d="m90 635h5"/>
    <path id="21418712" d="m95 639h6"/>
    <path id="21418624" d="m-71 699c9 5 12 7 17 10 9 1 29 0 35 1"/>
   </g>
  </g>
  <g id="g2954" transform="matrix(.300903 0 0 .300903 140.6722 .1505)" fill="#000000">
   <path id="21588952" d="m-137 815c-2 1-3 5 1 4 0 0 1 0 1 2 1 2 2 17 2 18s0 3-1 3c-2 1-3 4 1 4 3-1 11-1 15-1 2 0 4-1 5-3 0-1 1-4 1-6 0-1-3-2-4 1-2 5-5 4-7 4-3 0-3-2-3-4s-2-14-2-17c-1-2 0-2 1-3 2-1 2-4-1-4s-7 1-9 2z"/>
   <path id="21588864" d="m-105 815c-2 0-4 1-2 3 2 1 3 1 3 3v17c0 2 1 3-1 4-1 0-2 4 1 3 3 0 4 1 7 1 2 0 3-3 1-4s-1-2-1-4v-17c0-1 0-2 1-2 1-1 2-3-1-3-3-1-5-1-8-1z"/>
   <path id="21588776" d="m-76 842v-4c11 2 15 6 13 10-1 3-8 1-14-2 0-1 0-3 1-4l-8-2c0 2 0 3-1 4-2 1-4 4-1 4 5 2 12 5 15 6 4 1 10 1 13-2 2-3 1-9-3-12 4-3 5-10 1-13-4-4-13-7-22-8-4-1-5 2-2 4 1 1 2 2 2 4l7 1v-3c4 1 9 2 11 4 3 3 2 7-2 7-2-1-7-2-10-3 1-2 1-4 1-5l-7-1c-1 4-2 12-2 13z"/>
   <path id="21588688" d="m-39 829c-5-2-7 3-5 5 1 1 2 2 1 4-1 3-3 11-3 13-1 2-1 3-3 3-3 0-5 4-1 5 6 1 17 4 20 5 2 1 4 1 5 0 2-1 3-2 5-3 1-1-1-5-3-3-2 1-3 3-5 2-3-1-9-3-11-3-2-1-1-2 0-4 0-1 1-5 1-6 1-1 1-1 3 0 1 0 2 0 2 1l3 3c1 1 3 1 3-1s-1-5-2-6c0-1-2-3-3-1-1 1-2 1-3 0-2 0-1-1-1-2 1 0 1-3 1-4s1-1 2 0c2 0 6 2 7 2 1 1 2 1 2 2s1 2 2 3c1 3 3 2 3 0v-6c-1-1-2-3-3-3-2 1-3 0-5 0-5-2-9-4-12-6z"/>
   <path id="21588600" d="m-5 844v-4c6 0 12 0 12 4-1 4-7 4-12 3v-3h-6c0 4-1 12-1 16 0 1 0 2-1 2-2 0-3 4 0 4s7 0 9 1c2 0 2-3 1-3-2-1-3-1-3-2v-10c0-2 2-1 3-1h3c1 0 2 0 3 2 2 4 5 10 6 11 1 2 2 2 3 2h5c1 0 2-3 0-3-4-1-5-2-5-4-1-1-4-7-5-8 4-2 6-7 5-10-1-4-5-6-9-6-5 0-12 1-15 1-4 0-4 5-1 5 1 0 2 0 2 1v2z"/>
   <path id="21588512" d="m22 840c-2 3 1 5 2 3 1-1 2-3 3-4s3-1 4-1 2 0 2 2v15c0 2 0 3-2 5-2 1-2 4 1 3s9-2 11-2 3-2 0-3c-2-1-4-1-4-4v-16c0-2 2-2 4-3 2 0 3 0 5 2 1 2 3 3 4 3 1-1 2-2 0-5 0-1-2-3-2-4-1-1-3-2-7-1-4 2-13 3-15 3s-3 1-4 2-2 3-2 5z"/>
   <path id="21588424" d="m77 837c-5 1-3 1-2-5 2-5 2-4 6 1 4 3 1 3-4 4l2 3c2 0 3-1 4-1 2 0 2 0 3 1l3 3v2c-1 1-1 3 0 3 2 0 8-1 10-1s3-2 0-3c-2-1-3 0-5-2-3-4-6-9-10-14-1-1-1-2 0-3 2 0 2-1 5 0 3 2 5 1 3-2-3-3-5-3-9-2-3 1-10 4-16 6-2 1-3 2-4 5 0 3 2 4 3 1 1-2 2-2 3-3 0 0 1 0 1 2-1 1-4 14-5 16 0 2-3 2-4 3-3 1-3 4 0 4 3-1 8-2 10-3 2 0 1-2 0-3-1 0-2-2-1-4 1-3 2-3 4-3 1-1 3-1 5-2z"/>
   <path id="21588336" d="m136 819c1-2-2-5-5-2-1 1-2 1-5 0-5-1-13 0-15 5s2 10 9 10c7-1 7 4 6 6-1 4-7 3-10 2-3 0-2-1-4-4-1-2-3-2-4 1s-2 6-2 8c0 1 1 3 3 1 3-2 3-3 5-2 3 2 13 4 17-2s1-13-5-14c-7-1-7-4-6-5 1-2 4-2 7-1 1 1 2 1 2 3 0 1 3 2 4 0s1-3 3-6z"/>
  </g>
 </g>
</svg>
