<?xml version="1.0" encoding="UTF-8" standalone="no"?>
<!-- Generator: Adobe Illustrator 12.0.0, SVG Export Plug-In . SVG Version: 6.00 Build 51448)  -->

<svg
   version="1.1"
   id="Flag_of_RSFSR_1918"
   width="600"
   height="300"
   viewBox="0 0 600 300"
   overflow="visible"
   enable-background="new 0 0 600 300"
   xml:space="preserve"
   sodipodi:docname="Dehai.svg"
   inkscape:version="1.2.1 (9c6d41e410, 2022-07-14)"
   xmlns:inkscape="http://www.inkscape.org/namespaces/inkscape"
   xmlns:sodipodi="http://sodipodi.sourceforge.net/DTD/sodipodi-0.dtd"
   xmlns="http://www.w3.org/2000/svg"
   xmlns:svg="http://www.w3.org/2000/svg"><defs
   id="defs336">
	

		
		
	
			
			
			
			
			
			
			
		</defs><sodipodi:namedview
   id="namedview334"
   pagecolor="#505050"
   bordercolor="#eeeeee"
   borderopacity="1"
   inkscape:showpageshadow="0"
   inkscape:pageopacity="0"
   inkscape:pagecheckerboard="0"
   inkscape:deskcolor="#505050"
   showgrid="false"
   inkscape:zoom="1.9883333"
   inkscape:cx="218.27326"
   inkscape:cy="108.6337"
   inkscape:window-width="2560"
   inkscape:window-height="1387"
   inkscape:window-x="-8"
   inkscape:window-y="-8"
   inkscape:window-maximized="1"
   inkscape:current-layer="Flag_of_RSFSR_1918" />

<g
   id="g327">
		</g>
<g
   id="g3946"><rect
     fill="#CC0000"
     width="600"
     height="300"
     id="rect309"
     style="fill:#bc0000;fill-opacity:1" /><g
     id="g993"
     style="fill:#fcd116;fill-opacity:1"><path
       id="path311"
       d="M 170.25 20.839844 L 170.25 95.660156 L 170.25 106.41016 L 170.25 125.78906 L 183.2207 125.78906 L 183.26953 97 C 192.75877 84.613201 203.73678 74.856919 216.26953 68.060547 L 216.26953 20.839844 L 170.25 20.839844 z M 202.43945 27.710938 L 202.43945 68.609375 C 195.97946 72.059372 189.52054 78.249929 183.06055 85.669922 L 183.06055 27.769531 L 202.43945 27.710938 z "
       style="fill:#fcd116;fill-opacity:1" /><path
       id="path313"
       d="M 147.25 73.650391 C 136.90001 73.590391 131.12023 81.170551 128.99023 85.310547 C 127.23024 88.730543 127.77024 94.240628 128.99023 97.140625 C 130.69023 101.16062 135.13086 104.0593 139.13086 107.2793 C 143.63085 111.57929 144.17023 114.43039 143.24023 116.65039 C 142.71023 117.92039 141.69969 118.98047 140.67969 119.98047 C 139.73969 120.90047 136.85938 119.45922 136.85938 116.94922 C 142.36937 119.83922 141.73007 107.18977 133.83008 111.50977 C 131.68008 112.68976 130.30946 117.42094 135.43945 121.46094 C 143.32945 128.28093 151.19962 126.09093 159.09961 121.46094 C 160.38961 120.70094 166.26953 115.15015 167.51953 106.41016 L 155.33008 106.41016 C 155.42008 115.28015 153.13944 121.39953 144.68945 120.26953 C 145.24945 119.34953 145.72914 118.36055 146.11914 117.31055 C 147.53914 113.49055 147.68086 108.85914 145.38086 104.11914 C 143.82086 101.56914 142.24969 99.010935 140.67969 96.460938 C 140.22969 93.340941 139.96969 90.320387 140.67969 86.650391 C 142.88969 75.230402 154.45055 77.3404 154.06055 86.650391 C 154.08055 89.650388 154.09914 92.650159 154.11914 95.660156 L 167.57031 95.660156 C 167.48031 86.360166 162.22999 73.730391 147.25 73.650391 z "
       style="fill:#fcd116;fill-opacity:1" /><path
       id="path317"
       d="M 90.964844 20.839844 C 85.69104 21.067048 80.982001 22.963827 79.169922 25.990234 C 63.849937 51.570209 90.620173 72.890561 107.66016 87.060547 L 107.65039 125.39062 L 113.68945 125.39062 L 114.00977 125.39062 L 119.96094 125.39062 L 119.94922 87.060547 C 136.7392 72.890561 163.10952 51.570209 148.01953 25.990234 C 146.2311 22.96402 141.59215 21.067249 136.39648 20.839844 L 134.3457 20.839844 C 129.07145 21.061922 123.53747 23.008975 119.98047 27.300781 L 119.94141 20.839844 L 107.66797 20.839844 L 107.63086 27.300781 C 104.01761 23.008878 98.39857 21.061848 93.044922 20.839844 L 90.964844 20.839844 z M 98.595703 29.283203 C 103.04784 29.154729 107.66578 30.836488 107.66016 34.599609 L 107.63086 79.050781 C 97.16087 68.270792 81.609775 52.350215 90.759766 32.740234 C 91.77039 30.578987 95.132928 29.383127 98.595703 29.283203 z M 128.88281 29.283203 C 132.29483 29.383127 135.60649 30.578987 136.59961 32.740234 L 136.58984 32.740234 C 145.60983 52.350215 130.30046 68.270792 119.98047 79.050781 L 119.94922 34.599609 C 119.94359 30.836488 124.49593 29.154729 128.88281 29.283203 z "
       style="fill:#fcd116;fill-opacity:1" /><path
       id="path319"
       d="M 75.130859 73.650391 C 64.78087 73.590391 59.010857 81.170551 56.880859 85.310547 C 55.120861 88.730543 55.650861 94.240628 56.880859 97.140625 C 58.580858 101.16062 63.009535 104.0593 67.019531 107.2793 C 71.509527 111.57929 72.04914 114.43039 71.119141 116.65039 C 70.589141 117.92039 69.590311 118.98047 68.570312 119.98047 C 67.630313 120.90047 64.740234 119.45922 64.740234 116.94922 C 70.260229 119.83922 69.61093 107.18977 61.710938 111.50977 C 59.57094 112.68976 58.200083 117.42094 63.330078 121.46094 C 71.21007 128.28093 79.080242 126.09093 86.990234 121.46094 C 88.280233 120.70094 94.150158 115.15015 95.410156 106.41016 L 83.210938 106.41016 C 83.300937 115.28015 81.03007 121.39953 72.580078 120.26953 C 73.140078 119.34953 73.619766 118.36055 74.009766 117.31055 C 75.429764 113.49055 75.569529 108.85914 73.269531 104.11914 C 71.699533 101.56914 70.140311 99.010935 68.570312 96.460938 C 68.120313 93.340941 67.860313 90.320387 68.570312 86.650391 C 70.77031 75.230402 82.339218 77.3404 81.949219 86.650391 C 81.969219 89.650388 81.989766 92.650159 82.009766 95.660156 L 95.460938 95.660156 C 95.370938 86.360166 90.120844 73.730391 75.130859 73.650391 z "
       style="fill:#fcd116;fill-opacity:1" /><path
       id="path323"
       d="M 22.410156 20.839844 L 22.410156 125.78906 L 35.390625 125.78906 L 35.439453 97 C 44.928697 84.613201 55.897025 74.856919 68.429688 68.060547 L 68.429688 20.839844 L 22.410156 20.839844 z M 54.599609 27.710938 L 54.599609 68.609375 C 48.139616 72.059372 41.680697 78.249929 35.220703 85.669922 L 35.220703 27.769531 L 54.599609 27.710938 z "
       style="fill:#fcd116;fill-opacity:1" /><polygon
       fill="#FFD700"
       points="240,150 0,150 0,141.125 231.126,141.125 231.126,0 240,0 "
       id="polygon331"
       style="fill:#fcd116;fill-opacity:1" /></g></g>
</svg>
