<?xml version="1.0" encoding="utf-8"?>
<!-- Generator: Adobe Illustrator 22.0.1, SVG Export Plug-In . SVG Version: 6.00 Build 0)  -->
<svg version="1.1" id="레이어_1" xmlns="http://www.w3.org/2000/svg" xmlns:xlink="http://www.w3.org/1999/xlink" x="0px"
	 y="0px" viewBox="0 0 800 584" style="enable-background:new 0 0 800 584;" xml:space="preserve">
<style type="text/css">
	.st0{fill:#FFFFFF;}
	.st1{fill:#29176E;}
	.st2{fill:#D9241D;}
</style>
<g>
	<rect class="st0" width="800" height="584"/>
	<rect x="613" y="63" transform="matrix(0.8192 -0.5736 0.5736 0.8192 32.1643 383.9976)" class="st1" width="24" height="156"/>
	<rect x="556.4" y="93.1" transform="matrix(0.8192 -0.5736 0.5736 0.8192 29.3203 349.1832)" class="st1" width="24" height="70"/>
	<rect x="620.3" y="48.4" transform="matrix(0.8192 -0.5736 0.5736 0.8192 66.5271 377.7614)" class="st1" width="24" height="70"/>
	
		<rect x="605.7" y="163.6" transform="matrix(0.8192 -0.5736 0.5736 0.8192 -2.1985 390.2339)" class="st1" width="24" height="70"/>
	<rect x="669.7" y="118.9" transform="matrix(0.8192 -0.5736 0.5736 0.8192 35.0083 418.812)" class="st1" width="24" height="70"/>
	
		<rect x="129" y="151.4" transform="matrix(0.5736 -0.8192 0.8192 0.5736 -45.5467 239.2239)" class="st1" width="156" height="24"/>
	<rect x="97" y="129" transform="matrix(0.5736 -0.8192 0.8192 0.5736 -40.8691 203.4703)" class="st1" width="156" height="24"/>
	<rect x="65" y="106.6" transform="matrix(0.5736 -0.8192 0.8192 0.5736 -36.1914 167.7167)" class="st1" width="156" height="24"/>
	
		<rect x="533.4" y="443.9" transform="matrix(0.5736 -0.8192 0.8192 0.5736 -131.1027 660.0228)" class="st1" width="70" height="24"/>
	
		<rect x="565.3" y="466.2" transform="matrix(0.5736 -0.8192 0.8192 0.5736 -135.7355 695.6982)" class="st1" width="70" height="24"/>
	
		<rect x="597.3" y="488.6" transform="matrix(0.5736 -0.8192 0.8192 0.5736 -140.4718 731.4534)" class="st1" width="70" height="24"/>
	
		<rect x="582.7" y="373.4" transform="matrix(0.5736 -0.8192 0.8192 0.5736 -52.3054 670.3724)" class="st1" width="70" height="24"/>
	
		<rect x="614.7" y="395.9" transform="matrix(0.5736 -0.8192 0.8192 0.5736 -57.0418 706.1275)" class="st1" width="70" height="24"/>
	
		<rect x="646.6" y="418.1" transform="matrix(0.5736 -0.8192 0.8192 0.5736 -61.6746 741.8031)" class="st1" width="70" height="24"/>
	
		<rect x="195" y="342.6" transform="matrix(0.8192 -0.5736 0.5736 0.8192 -203.8196 194.7843)" class="st1" width="24" height="156"/>
	
		<rect x="131" y="387.3" transform="matrix(0.8192 -0.5736 0.5736 0.8192 -241.0553 166.1645)" class="st1" width="24" height="156"/>
	
		<rect x="187.6" y="443.2" transform="matrix(0.8192 -0.5736 0.5736 0.8192 -238.2059 200.9873)" class="st1" width="24" height="70"/>
	
		<rect x="138.3" y="372.7" transform="matrix(0.8192 -0.5736 0.5736 0.8192 -206.6689 159.9614)" class="st1" width="24" height="70"/>
	<g>
		<path class="st1" d="M546.7,292c0,1.6,0,3.1-0.1,4.7c-1.1,35.5-14.9,67.9-36.9,92.7c-1.9,2.2-3.9,4.3-6,6.3s-4.2,4-6.3,6
			c-24.8,22-57.1,35.8-92.7,36.9c-1.5,0-3.1,0.1-4.7,0.1c-1.6,0-3.1,0-4.7-0.1c-35.5-1.1-67.9-14.9-92.7-36.9
			c-2.2-1.9-4.3-3.9-6.3-6s-4-4.2-6-6.3c-22-24.8-35.8-57.1-36.9-92.7c0-1.5-0.1-3.1-0.1-4.7c0-1.6,0-3.1,0.1-4.7
			c1.1-35.5,14.9-67.9,36.9-92.7c1.9-2.2,3.9-4.3,6-6.3c2.1-2,4.2-4,6.3-6c24.8-22,57.1-35.8,92.7-36.9c1.5,0,3.1-0.1,4.7-0.1
			c1.6,0,3.1,0,4.7,0.1c35.5,1.1,67.9,14.9,92.7,36.9c2.2,1.9,4.3,3.9,6.3,6c2,2,4,4.2,6,6.3c22,24.8,35.8,57.1,36.9,92.7
			C546.7,288.9,546.7,290.4,546.7,292z"/>
		<path class="st2" d="M293,191.6c-24.4,26-37.5,58.5-39.5,91.7c-0.1,2.9-0.1,5.8-0.2,8.7c-0.1,2.9,0,5.8,0.2,8.7
			c2,33.1,15.2,65.8,39.5,91.7c1.1,1.2,2.1,2.3,3.2,3.4c1.1,1.1,2.3,2.2,3.4,3.2c26,24.4,58.5,37.5,91.7,39.5
			c2.9,0.1,5.8,0.1,8.7,0.2s5.8,0,8.7-0.2c33.1-2,65.8-15.2,91.7-39.5c1.2-1.1,2.3-2.1,3.4-3.2c0,0,0.6-1,2.2-3.4
			c37.7-52.9,31.3-134.2-25.9-173.1c-28.3-18.4-62.2-24-92.6-9.2c-23.3,12-41.7,36.1-39.6,63.6c2.1,19.1,15.6,36.8,34.6,37.5
			c16.3-0.7,16.3-16.3,19.8-28.3c2.1-6.4,9.2-9.2,15.6-9.9c17.7,0.7,30.4,14.8,33.9,31.1c5.7,32.5-15.6,60.8-43.8,72.1
			c-16.3,6.4-34.6,7.8-52.3,4.2c-40.3-9.2-68.6-40.3-79.9-78.5c-10.6-38.9-2.8-79.2,19-110.9c1.4-2.2,1.6-2.8,1.6-2.8
			C295.1,189.4,294.1,190.6,293,191.6z"/>
	</g>
</g>
</svg>
