<?xml version="1.0" encoding="UTF-8" standalone="no"?>
<!-- Created with Inkscape (http://www.inkscape.org/) -->

<svg
   xmlns:dc="http://purl.org/dc/elements/1.1/"
   xmlns:cc="http://creativecommons.org/ns#"
   xmlns:rdf="http://www.w3.org/1999/02/22-rdf-syntax-ns#"
   xmlns:svg="http://www.w3.org/2000/svg"
   xmlns="http://www.w3.org/2000/svg"
   xmlns:sodipodi="http://sodipodi.sourceforge.net/DTD/sodipodi-0.dtd"
   xmlns:inkscape="http://www.inkscape.org/namespaces/inkscape"
   width="450"
   height="300"
   id="svg2"
   sodipodi:version="0.32"
   inkscape:version="0.48.1 "
   version="1.0"
   sodipodi:docname="ZZ1.svg"
   inkscape:output_extension="org.inkscape.output.svg.inkscape">
  <defs
     id="defs4">
    <inkscape:perspective
       sodipodi:type="inkscape:persp3d"
       inkscape:vp_x="0 : 150 : 1"
       inkscape:vp_y="0 : 1000 : 0"
       inkscape:vp_z="450 : 150 : 1"
       inkscape:persp3d-origin="225 : 100 : 1"
       id="perspective17" />
  </defs>
  <sodipodi:namedview
     id="base"
     pagecolor="#ffffff"
     bordercolor="#666666"
     borderopacity="1.0"
     gridtolerance="10000"
     guidetolerance="10"
     objecttolerance="10"
     inkscape:pageopacity="0.0"
     inkscape:pageshadow="2"
     inkscape:zoom="1"
     inkscape:cx="109.60402"
     inkscape:cy="75.324384"
     inkscape:document-units="px"
     inkscape:current-layer="layer1"
     showgrid="false"
     inkscape:window-width="1280"
     inkscape:window-height="1004"
     inkscape:window-x="-8"
     inkscape:window-y="-8"
     inkscape:window-maximized="1" />
  <metadata
     id="metadata7">
    <rdf:RDF>
      <cc:Work
         rdf:about="">
        <dc:format>image/svg+xml</dc:format>
        <dc:type
           rdf:resource="http://purl.org/dc/dcmitype/StillImage" />
      </cc:Work>
    </rdf:RDF>
  </metadata>
  <g
     inkscape:label="Layer 1"
     inkscape:groupmode="layer"
     id="layer1">
    <rect
       style="opacity:1;fill:#f7de10;fill-opacity:1;stroke:none;stroke-width:10;stroke-linecap:round;stroke-linejoin:round;stroke-miterlimit:4;stroke-dasharray:none;stroke-opacity:1"
       id="rect3376"
       width="450"
       height="300"
       x="0"
       y="0" />
    <rect
       style="opacity:1;fill:#0039ad;fill-opacity:1;stroke:none;stroke-width:10;stroke-linecap:round;stroke-linejoin:round;stroke-miterlimit:4;stroke-dasharray:none;stroke-opacity:1"
       id="rect3378"
       width="450"
       height="100"
       x="0"
       y="0" />
    <rect
       style="opacity:1;fill:#009400;fill-opacity:1;stroke:none;stroke-width:10;stroke-linecap:round;stroke-linejoin:round;stroke-miterlimit:4;stroke-dasharray:none;stroke-opacity:1"
       id="rect3380"
       width="450"
       height="100"
       x="0"
       y="200" />
    <path
       sodipodi:type="arc"
       style="opacity:1;fill:#ffffff;fill-opacity:1;stroke:#d63931;stroke-width:3.76107454000000010;stroke-linecap:round;stroke-linejoin:round;stroke-miterlimit:4;stroke-dasharray:none;stroke-opacity:1"
       id="path3388"
       sodipodi:cx="221"
       sodipodi:cy="149"
       sodipodi:rx="62"
       sodipodi:ry="75"
       d="M 283,149 A 62,75 0 1 1 159,149 A 62,75 0 1 1 283,149 z"
       transform="matrix(0.7822581,0,0,0.8133333,52.12096,28.817629)" />
    <g
       id="g2399">
      <path
         sodipodi:nodetypes="cssssssssssssc"
         id="path3261"
         d="M 213.41225,152.66594 C 212.80517,147.50056 213.32081,142.77405 215.25151,135.80689 C 218.64253,123.56998 218.62361,122.93128 214.89665,123.83512 C 204.97762,126.24065 192.14551,129.04955 206.53173,123.54118 C 210.41181,122.05553 219.52366,119.15574 225.11259,112.58149 C 230.72554,105.97901 233.16095,105.82105 234.8276,107.20426 C 237.5954,109.50132 237.38034,110.70634 233.23196,116.14514 C 230.2211,120.09259 229.52714,122.61713 229.01339,131.49173 C 228.47307,140.82541 237.52199,150.31897 240.04257,153.52337 C 243.39,157.77894 243.86094,160.62505 240.79688,158.08211 C 237.83653,155.62523 226.43467,142.421 225.30643,136.40704 C 224.71762,133.26839 223.86312,131.77335 223.09632,132.54015 C 221.13494,134.50153 217.96807,147.77325 217.95038,154.10572 C 217.92604,162.81992 214.47706,161.72568 213.41225,152.66594 z"
         style="fill:#7a5100;fill-opacity:1" />
      <path
         id="path2450"
         d="M 253.71177,180.05313 C 250.74157,176.87497 246.02343,172.87071 243.227,171.15475 C 240.43059,169.43878 237.30546,166.43704 236.28227,164.48422 C 234.60589,161.28472 234.75551,160.29568 237.79541,154.48197 C 240.6054,149.10799 241.80337,148.03031 244.96726,148.03031 C 247.05635,148.03031 249.75249,148.40901 250.95868,148.87186 C 253.71473,149.92945 258.43379,159.01549 258.37288,163.14705 C 258.34766,164.85726 258.7372,170.66121 259.23852,176.0447 C 259.73983,181.42818 259.91648,185.83257 259.63107,185.83221 C 259.34566,185.83186 256.68197,183.23127 253.71177,180.05313 z M 188.23236,150.2569 C 188.23236,147.02625 188.77124,142.62157 189.42987,140.46875 C 190.08851,138.31593 191.29799,134.07255 192.11763,131.03902 C 193.91485,124.38733 198.62442,121.43061 202.61124,124.45105 C 203.98473,125.49161 206.09799,126.36229 207.30736,126.38592 C 209.96488,126.4378 213.08607,133.3648 211.99641,136.79253 C 211.08873,139.64785 204.84581,146.68022 203.21872,146.68022 C 202.61072,146.68022 199.44571,148.80071 196.18538,151.39243 C 192.92504,153.98416 189.80184,156.11055 189.24492,156.11774 C 188.68801,156.12495 188.23236,153.48758 188.23236,150.2569 z"
         style="fill:#108400;fill-opacity:1" />
      <g
         id="g3420">
        <path
           sodipodi:type="arc"
           style="fill:#7a5100;fill-opacity:1;stroke:none;stroke-width:10;stroke-linecap:round;stroke-linejoin:round;stroke-miterlimit:4;stroke-dasharray:none;stroke-opacity:1"
           id="path3328"
           sodipodi:cx="220.125"
           sodipodi:cy="154.375"
           sodipodi:rx="5.625"
           sodipodi:ry="6.875"
           d="M 225.75,154.375 A 5.625,6.875 0 1 1 214.5,154.375 A 5.625,6.875 0 1 1 225.75,154.375 z"
           transform="matrix(1.350091,0,0,1.350091,-75.710438,-37.269681)" />
        <path
           style="fill:#d63931;fill-opacity:1;stroke:none"
           d="m 213.04028,155.79333 c -0.81895,0.047 -1.64202,0.41653 -2.48923,0.97038 -1.69441,1.10768 -3.44143,3.04136 -4.68313,5.44255 -2.02354,3.91312 -2.41782,8.89424 -1.56104,13.37434 0.85678,4.4801 2.96632,8.49424 6.20198,10.37883 1.36264,0.79368 3.17397,1.30524 4.72532,1.47666 0.77568,0.0857 1.47925,0.0744 2.06732,-0.0422 0.29404,-0.0583 0.58965,-0.15387 0.84381,-0.33752 0.25415,-0.18366 0.46409,-0.51735 0.46409,-0.886 0,-0.45635 -0.13811,-0.59288 -0.29533,-0.84381 -0.15722,-0.25093 -0.38078,-0.5279 -0.63285,-0.8438 -0.19966,-0.25022 -0.51135,-0.56278 -0.75943,-0.84381 1.56027,1.37666 2.911,2.28199 4.26122,2.40485 1.50064,0.13655 2.80408,-0.70097 4.00809,-2.15171 0.35068,-0.42255 0.64954,-0.77568 0.8438,-1.09695 0.19427,-0.32127 0.36084,-0.61332 0.29534,-1.05476 -0.0328,-0.22072 -0.17554,-0.44717 -0.33753,-0.59066 -0.16198,-0.14349 -0.33933,-0.20432 -0.50628,-0.25314 -0.33389,-0.0976 -0.66826,-0.12658 -1.09695,-0.12658 -0.30403,0 -1.00478,-0.24077 -1.7298,-0.67504 -0.72503,-0.43427 -1.51653,-1.03237 -2.10952,-1.68761 -0.89579,-0.98984 -1.35734,-1.81063 -1.56104,-3.24866 -0.20371,-1.43804 -0.0962,-3.52186 0.25314,-6.70827 l 0.59066,-5.35817 c 1.39949,3.74613 3.56616,8.28774 5.73789,12.10863 1.17613,2.06924 2.31522,3.8954 3.29085,5.2316 0.48781,0.66811 0.94455,1.20065 1.35009,1.60324 0.40554,0.40258 0.67612,0.75942 1.3079,0.75942 1.17541,0 2.15967,-0.70457 2.6158,-1.7298 0.45613,-1.02523 0.55081,-2.35705 0.37971,-3.88151 -0.3422,-3.04893 -1.76962,-6.94675 -4.13465,-10.88511 -2.38839,-3.97728 -4.90484,-6.96013 -7.25674,-8.69121 -1.17594,-0.86555 -2.31213,-1.42424 -3.41742,-1.60324 -1.10529,-0.17899 -2.18941,0.0554 -3.0377,0.75943 -0.47349,0.39296 -0.80595,0.5112 -0.97038,0.50628 -0.16443,-0.005 -0.28685,-0.0669 -0.50628,-0.4219 -0.45723,-0.73981 -1.33276,-1.10176 -2.15171,-1.05476 z m 0.0844,1.35009 c 0.45829,-0.0263 0.67267,0.0767 0.886,0.42191 0.36644,0.59292 0.97819,1.0348 1.64542,1.05475 0.66723,0.02 1.24775,-0.2965 1.85637,-0.80161 0.55029,-0.4567 1.18079,-0.63619 1.98295,-0.50629 0.80216,0.12991 1.76589,0.61145 2.82675,1.39228 2.12173,1.56167 4.55147,4.39668 6.87703,8.26931 2.28173,3.79966 3.65592,7.61708 3.96589,10.37883 0.15499,1.38087 0.045,2.49413 -0.25314,3.16427 -0.29815,0.67015 -0.67857,0.92819 -1.39228,0.92819 0.21057,0 -0.0603,-0.0626 -0.37971,-0.37971 -0.31941,-0.31709 -0.71856,-0.80067 -1.18133,-1.43447 -0.92553,-1.2676 -2.04758,-3.06612 -3.20647,-5.10504 -2.31778,-4.07785 -4.77137,-9.11846 -6.07541,-12.86805 -0.17798,-0.51178 -0.3633,-0.86664 -0.54847,-1.22352 l 0.21095,-1.98295 -0.92819,1.09695 c -0.24985,-0.11975 -0.58914,-0.14957 -0.84381,-0.0844 -0.53455,0.13685 -0.89451,0.47353 -1.39228,0.97038 -0.49776,0.49685 -1.07949,1.1691 -1.85637,2.06733 -2.95506,3.41662 -4.53987,7.19788 -4.64094,10.84291 -0.10107,3.64503 1.31142,7.1337 4.13465,9.95693 0.71663,0.71662 1.35198,1.44589 1.81419,2.02513 0.23111,0.28962 0.39275,0.53604 0.50628,0.71724 -0.04,0.0124 -0.0308,0.0315 -0.0844,0.0422 -0.35515,0.0704 -0.95771,0.076 -1.64542,0 -1.37542,-0.15198 -3.11279,-0.62138 -4.21904,-1.26571 -2.71853,-1.5834 -4.71974,-5.27204 -5.52693,-9.49283 -0.80719,-4.22079 -0.4045,-8.93217 1.43447,-12.48834 1.13841,-2.20143 2.78134,-3.99641 4.21903,-4.93627 0.71886,-0.46994 1.3559,-0.73313 1.81419,-0.75943 z m 5.40036,5.44256 -0.63285,5.73788 c -0.35304,3.22017 -0.44676,5.33892 -0.21095,7.0036 0.2358,1.66468 0.84356,2.84675 1.85637,3.96589 0.69684,0.76999 1.56158,1.47785 2.40485,1.98295 0.84327,0.50509 1.66141,0.84381 2.44704,0.84381 0.2433,0 0.33183,0.0256 0.46409,0.0422 -0.13091,0.21218 -0.35353,0.49858 -0.67504,0.88599 -1.06618,1.28468 -1.89723,1.73384 -2.86895,1.64543 -0.97171,-0.0884 -2.30187,-0.85746 -4.00808,-2.44704 -5.21572,-4.85918 -5.32061,-12.14255 -0.16876,-18.05747 z m -5.94483,9.17133 c -0.11575,0.74947 -0.51909,1.13868 -0.51029,1.88254 0.17735,0.3986 0.44152,0.45337 0.44395,0.36557 0.018,-0.64959 -0.0556,-1.58719 0.0663,-2.24811 z m -0.11254,3.51372 c 0.0293,1.62115 -0.49361,1.93809 0.61482,3.17852 -0.67177,-1.50843 -0.61413,-1.5317 -0.61482,-3.17852 z"
           id="path3295"
           inkscape:connector-curvature="0"
           sodipodi:nodetypes="ssssscccssscsscccsssssccsssssssssscsssscscsssscssscccccssssscccsssssccsssscccsccccccccc" />
        <path
           style="fill:#f7de10;fill-opacity:1;stroke:none;stroke-opacity:1"
           d="M 210.85024,185.38661 C 204.89606,181.91862 202.61393,169.98547 206.47645,162.51619 C 208.85656,157.91357 213.26017,155.0348 214.60128,157.20476 C 215.18715,158.15272 216.0165,158.17752 217.09861,157.27946 C 219.89577,154.95802 225.08745,158.77929 229.8014,166.62919 C 234.44817,174.36721 235.31828,182.11954 231.54002,182.11954 C 229.85522,182.11954 222.68561,169.50552 220.02948,161.86817 C 219.1384,159.30598 218.92346,159.36101 215.82377,162.94482 C 210.07996,169.58577 209.86274,177.41926 215.27241,182.82893 C 216.73862,184.29514 217.93825,185.79854 217.93825,186.16981 C 217.93825,187.33501 213.31914,186.82462 210.85024,185.38661 z M 216.85908,182.75721 C 211.39411,177.66583 211.30761,169.85816 216.64823,163.72651 L 219.44275,160.51808 L 218.57976,168.38995 C 217.8774,174.79652 218.15329,176.74418 220.06188,178.85316 C 221.35171,180.27839 223.29855,181.44449 224.38821,181.44449 C 225.99621,181.44449 226.05281,181.82597 224.6887,183.46963 C 222.41851,186.20505 220.35872,186.01763 216.85908,182.75721 z"
           id="path3305" />
      </g>
    </g>
  </g>
</svg>
