<svg xmlns="http://www.w3.org/2000/svg" height="600" preserveAspectRatio="xMidYMid meet" viewBox="-15 -7.5 30 15" width="1200" zoomAndPan="magnify"><title>Flag of the Gold Coast (1877–1957)</title><style><![CDATA[.B{stroke:#000}.C{fill:none}.D{fill-rule:evenodd}.E{stroke:#337321}.F{stroke-width:.014}.G{stroke-width:.006}.H{stroke-width:.015}.I{fill:#1a472b}.J{fill:#144d29}.K{fill:#337321}.L{fill:#96877d}.M{fill:#5c3021}.N{stroke-width:2.514}.O{stroke-width:.028}.P{stroke-width:.005}.Q{stroke-linecap:round}]]></style><clipPath id="A"><path d="m-15-7.5h30v15h-30z"/></clipPath><path d="m-15-7.5h30v15h-30z" fill="#012169"/><g clip-path="url(#A)" transform="matrix(.5 0 0 .5 -7.5 -3.75)"><circle fill="#012169" r="20"/><path d="m-20-10 40 20m-40 0 40-20" stroke="#fff" stroke-width="3"/><path d="m-20-10 40 20m-40 0 40-20" stroke="#c8102e" stroke-width="2"/><path d="M0 0l20 10h-3L-3 0m3 0l20-10h3L3 0M0 0l-20 10h-3L-3 0m3 0l-20-10h3L3 0" fill="#fff"/><path d="M-20 0h40M0-10v20" stroke="#fff" stroke-width="5"/><path d="M-20 0h40M0-10v20" stroke="#c8102e" stroke-width="3"/></g><g transform="matrix(.011345 0 0 .011345 -18.592455 7.941191)"><path d="M2597.5-700c0 15.898-1.399 32.453-3.8 47.676H2006.3c-2.501-15.524-3.801-31.446-3.801-47.676 0-164.305 133.195-297.5 297.5-297.5s297.5 133.195 297.5 297.5z" fill="#fcc917"/><path d="M2593.699-652.324C2571.281-510.218 2448.407-402.5 2300-402.5c-148.075 0-270.883-108.186-293.699-249.824z" fill="#f7e017"/><g class="D"><path d="M2516.614-893.95c-.503 17.149-18.553 11.151-20.36 22.595s49.818 2.257 49.655 10.549c-.149 7.679 15.988 12.371 16.43 26.494.467 14.974-250.968 154.28-250.968 154.28s-309.757-69.316-292.409-86.758c17.783-17.88 10.349-35.035 9.407-44.023-1.873-17.868 39.309-9.734 40.161-20.02.922-11.132-16.517-4.783-16.821-22.794-.309-18.863 40.681-10.941 41.369-19.498 1.09-13.541-12.734-4.603-12.056-23.593.705-19.79 436.121-15.227 435.592 2.769z" fill="#f56600"/><path d="M2197.078-550.655s46.327 7.443 73.324 13.332 21.22 7.999 34.662 10.221 15.776 1.555 19.108-1.333-14.776-7.443-5.776-10.221 23.219-2.889 41.772-.889 20.108 3.333 32.44 8.888.886 11.776 16.887 13.332 32.44-1.555 47.105-7.11 17.331-8.332 11.554-15.109-34.662-11.998-34.662-11.998H2206.41l-9.332.889z"/><path d="M2247.738-767.072c-9.777-2.889 51.771-15.554 75.546-15.109s73.546 14.443 59.548 16.887-125.317 1.111-135.094-1.778zm140.426-55.104c-9.777-4.222 32.218-15.554 55.993-15.109s53.104 13.109 39.106 16.887-85.322 2.444-95.099-1.777zM2104.201-808.4c-9.777-2.889 30.441-9.332 54.215-8.888s67.325 7.332 53.326 9.777-97.765 2-107.542-.889z" fill="#c8102e"/><g class="J"><path d="M2512.554-758.349s-43.064-55.712-80.104-51.195c-37.634 4.59-149.82 120.759-175.267 158.403l254.769-2.409.6-104.799z" class="B N"/><path d="M2069.485-779.657c-36.823.842-54.889 11.655-59.982 15.288-4.572 20.728-7.024 42.287-7.024 64.389 0 16.687 1.422 33.025 4.063 48.964l371.048-.275c-69.419-20.017-232.011-124.401-289.718-128.021-6.561-.412-12.722-.474-18.387-.344z"/><path d="M2516.63-847.903c-3.373-.041-6.859.128-10.537.482-39.156 3.774-131.012 164.408-150.816 195.923l238.551-1.722c2.406-15.237 3.65-30.846 3.65-46.76 0-46.781-10.786-91.051-30.025-130.432 0-.009-.065.009-.069 0 0 0-18.154-17.101-50.754-17.492z"/></g><g class="K"><path d="M2068.315-747.427c-36.757.412-62.293 12.347-63.839 13.084-1.049 9.129-1.656 18.391-1.859 27.753 120.4-57.511 318.716 66.293 329.936 50.616 10.503-14.676-201.105-86.68-247.297-90.765-5.852-.518-11.524-.749-16.941-.689z"/><path d="M2529.164-806.79c-36.026 2.582-152.038 117.992-208.87 154.328h273.466c2.485-15.476 3.719-31.341 3.719-47.517 0-32.863-5.311-64.514-15.15-94.071-.616-.377-1.228-.742-1.86-1.102 0 0-14.4-10.534-49.652-11.638-.531-.018-1.081-.041-1.653 0z"/></g><path d="M2539.976-794.05l-4.269.275c-22.762 2.6-180.971 115.366-237.587 140.211l295.71.62c2.434-15.323 3.65-31.027 3.65-47.035 0-28.164-3.912-55.44-11.225-81.262-.071-.007-.136.004-.207 0 0 0-24.24-13.295-46.071-12.809z" class="J"/><path d="M2562.151-734.756l-2.204.138c-23.731 2.296-219.544 81.537-219.544 81.537l253.77-1.928c2.223-14.663 3.306-29.686 3.306-44.969 0-4.602-.069-9.222-.276-13.773l-1.033-.344s-11.182-21.459-34.019-20.66z" class="K"/><g class="B"><g stroke-width=".712"><path d="M2490.631-573.041c-17.961-9.569-18.428-40.573-18.428-40.573s18.869 32.329 27.555 33.801c-12.219-17.372-7.126-27.606-7.126-27.606s4.476 15.184 13.898 28.287c.58-10.949-5.026-34.521-5.026-34.521s11.47 19.753 14.103 33.688c-.593-17.873 1.27-31.602 1.27-31.602s4.391 20.09 5.624 31.989c3.975-14.427 11.983-26.597 11.983-26.597s3.079 11.236-5.821 25.835c12.312-6.751 22.461-21.057 22.461-21.057s-3.129 19.652-20.492 28.337c0 0-24.136-1.747-40.002.017z" class="K"/><path d="M2487.164-567.502c-17.961-9.569-18.844-34.744-18.844-34.744s19.286 26.499 27.972 27.972c-12.219-17.372-12.955-28.855-12.955-28.855s10.305 13.102 19.727 26.205c-4.417-14.28-2.944-33.271-2.944-33.271s3.975 20.169 11.189 33.271c-3.092-23.702-2.061-45.343-2.061-45.343s3.975 30.916 8.539 42.399c3.975-14.427 3.239-40.338 3.239-40.338s10.158 24.144 5.005 39.16c8.98-8.833 14.133-23.555 14.133-23.555s3.533 18.402-8.833 27.088c5.005.736 20.905-9.716 20.905-9.716s-6.625 13.691-25.616 19.138c-4.858-2.208-22.672-1.619-39.455.589z" class="J"/></g><g stroke-width=".716"><path d="M2100.91-542.822c-18.079-9.632-17.292-36.231-17.292-36.231s14.802 30.447 26.061 35.282c-7.689-14.972-10.526-33.237-10.526-33.237s6.182 16.123 15.666 29.312c-4.446-14.375-.868-38.102-.868-38.102s3.163 25.751 10.424 38.94c-.178-22.182-1.236-51.092-1.236-51.092s8.612 38.665 7.757 51.062c5.593-6.223 9.589-12.593 19.591-34.956 0 0 1.686 22.317-14.053 40.943-4.89-2.223-18.63-4.145-35.524-1.922z" class="K"/><path d="M2093.921-538.757c-18.079-9.632-18.549-40.841-18.549-40.841s18.994 32.543 27.737 34.024c-12.3-17.487-7.173-27.788-7.173-27.788s4.505 15.285 13.99 28.474c.584-11.021-5.06-34.749-5.06-34.749s11.546 19.883 14.197 33.91c-.597-17.991 1.278-31.811 1.278-31.811s4.42 20.222 5.661 32.2c4.001-14.523 12.062-26.773 12.062-26.773s3.1 11.31-5.859 26.006c12.393-6.796 22.609-21.196 22.609-21.196s-3.15 19.781-20.628 28.525c0 0-24.295-1.759-40.266.017z" class="J"/></g></g></g><g class="B C N"><path d="M2593.829-653.219l-238.551 1.722c19.803-31.515 111.66-192.149 150.816-195.923 3.678-.354 7.164-.523 10.537-.482h0c29.679.356 47.385 14.561 50.32 17.104l.349-.519"/><path d="M2586.254-781.241c-.071-.007-.136.004-.207 0 0 0-24.24-13.295-46.071-12.809h.001c-1.455.032-2.843.113-4.269.275-22.762 2.6-180.972 115.366-237.587 140.211l295.71.62"/><path d="M2006.542-651.015l371.048-.275c-69.419-20.017-232.011-124.401-289.718-128.021-6.561-.412-12.722-.474-18.387-.344-36.823.842-54.889 11.655-59.982 15.288l-.359-.018"/></g><g transform="matrix(73.37596 0 0 73.37596 2299.7287 -719.73976)"><path d="M-.137-2.292h.275v3.5h-.275z" class="B M O"/><g id="B"><g class="F"><path d="M-.012-2.113C-.32-2.193-.507-.941-.757-.991c-.261-.052.133-1.219.288-1.331.161-.117.447-.179.457.209z" class="B D I"/><path d="M-.014-2.121c-.406-.472-.563.514-.741 1.131" class="C E"/></g><path d="M-.635-1.053L-.697-1.2h-.149m.295 0l-.094-.204-.184.005m.358.001l-.124-.186-.191.015m.409-.078l-.154-.142-.196.017m.442-.073l-.189-.104-.191-.007m.455-.031l-.139-.181-.223.01" class="G C E"/></g><use height="15" transform="matrix(.835168 -.549995 .549995 .835168 1.635061 -.818447)" width="15" href="#C"/><use height="15" transform="matrix(-.986406 -.164328 -.164328 .986406 -.440888 -.113285)" width="15" href="#B"/><use height="15" transform="matrix(-1.017232 .403358 .429734 .954797 .858663 -.081013)" width="15" href="#B"/><use height="15" transform="matrix(.954549 .298054 -.298054 .954549 -.726203 .018471)" width="15" href="#B"/><g id="C" transform="matrix(.878139 .478405 -.478405 .878139 -1.385779 -.057788)"><g class="F"><path d="M.193-2.441c-.41-.12-.7 1.5-.95 1.45-.261-.052.183-1.293.359-1.45s.386-.29.591 0z" class="B D I"/><path d="M.172-2.454c-.595-.202-.749.848-.927 1.464" class="C E"/></g><path d="M-.634-1.088l-.056-.136-.147.005m.298-.032l-.101-.171-.174.018" class="P C E"/><path d="M-.458-1.417l-.124-.186-.191.015m.404-.08l-.15-.155-.185.023m.414-.054l-.185-.123-.162-.012m.417-.021l-.148-.162-.2.017m.105-.202l.197.02.132.138m-.129-.352l.181.094.062.108" class="G C E"/></g><use height="15" transform="matrix(-.952381 .304911 .304911 .952381 .523696 -.091822)" width="15" href="#C"/><path d="M.137 1.071s.344.221.344.277c0 .03-.291-.112-.316-.109s.039.176.021.207-.284.088-.284.088.176-.119.179-.154-.053-.105-.053-.105-.151.042-.172.084.018.116.018.116-.165-.032-.172-.074.098-.144.098-.144-.109-.011-.144.004-.123.112-.123.112.028-.158.06-.165.137-.011.165-.021.091-.112.091-.112l.084.074.109-.042.077.032.018-.067z" class="B D G M"/><g transform="matrix(.81634 .57757 -.57757 .81634 -1.628 -.644265)"><path d="M.372-2.3C-.146-2.469-.507-.941-.757-.991c-.261-.052.183-1.293.359-1.45s.565-.149.769.141z" class="B D F I"/><g class="C E"><path d="M.391-2.315C-.445-2.74-.577-1.606-.755-.99" class="F"/><path d="M-.634-1.088l-.056-.136-.147.005m.298-.032l-.101-.171-.174.018" class="P"/><path d="M-.458-1.417l-.124-.186-.191.015m.404-.08l-.15-.155-.185.023m.414-.054l-.185-.123-.162-.012m.417-.021l-.148-.162-.2.017" class="G"/><path d="M-.665-2.349l.164.112.05.184m.054-.371l.114.169.002.124" transform="matrix(.878139 -.478405 .478405 .878139 1.244553 -.612218)" class="G"/></g></g><use height="15" transform="matrix(-.712759 .701408 .701408 .712759 1.402607 -.932092)" width="15" href="#D"/><g id="D"><g class="F"><path d="M-.053-2.138c-.101-.019-.137-.548.091-.797.234-.256.813-.152.808-.014s-.415.06-.586.169-.216.661-.312.643z" class="B D I"/><path d="M-.053-2.156c.018-.515.091-.938.899-.783" class="C E"/></g><path d="M-.129-2.392l.074.196.127-.214m-.188-.195l.07.278.201-.313m-.216-.149l.04.295.214-.218m-.15-.238l-.012.261.263-.112m.067-.288l-.184.218.256.03m.213-.238l-.305.132.427.067m.01-.155l-.107.07" class="G C E"/></g><g id="E"><g class="F"><path d="M-.07-2.149c.088.09.227-.387.586-.372s.779.405.934.298c.15-.103-.55-.575-.962-.572s-.651.551-.558.646z" class="B D I"/><path d="M-.056-2.149c.199-.45.38-.824 1.51-.088" class="C E"/></g><path d="M-.061-2.367l.065.092.097.005m-.103-.216l.06.107.099.032m-.084-.241l.045.119.139.035m-.083-.248l.002.137.156.062m-.043-.271l-.025.151.159.084m.02-.275l-.065.149.156.119m.132-.253l-.146.132.201.166m.136-.238l-.181.097.189.199m.163-.222l-.211.06.201.241m.145-.219l-.211.037.226.251m.151-.171l-.243-.017.238.248m.124-.11l-.194-.035" class="G C E"/></g><use height="15" transform="matrix(-.994733 .422766 .422766 .994733 .806849 .029964)" width="15" href="#E"/><path d="M.095-2.001c0 .089-.072.162-.162.162s-.162-.072-.162-.162.072-.162.162-.162.162.072.162.162z" class="B M O"/></g><g transform="matrix(89.492483 0 0 89.492483 3980.0302 -751.15125)"><g class="B D L"><path d="M-19.366 1.353s.213.408.241.812c0 0-.07.059-.042.077h.452c.084-.38-.238-.946-.253-1.109l-.397.219z" stroke-width=".019"/><path d="M-18.172 2.241l.02-.065c.175-.238.07-1.125.07-1.125l.353.211s.03.635-.089.909l-.033.065-.322.004z" stroke-width=".023"/><path d="M-19.834 2.075l-.074.169h.433s.056-.542.164-.686c.103-.137.411-.153.459-.237.142.032.625-.029.675-.1.029.129.526.448.58.538s.062.251.021.443l-.021.043h.327l.091-.547c-.008-.063-.111-.095-.136-.141s.224-1.098-.441-1.338c-.655-.237-1.393-.264-1.393-.264l-.433.559c.13.43-.194 1.099-.253 1.561z" class="H"/></g><g fill="#fff" transform="matrix(1.032112 .251524 -.251524 1.032112 -2.035657 4.532348)"><use href="#G" class="B D F"/><use href="#H"/></g><g class="B H"><g class="D L"><path d="M-18.932-.03c-.239-.004-.378-.249-.686-.295s-.543.111-.543.111l-.1.211.079.179s.175.037.116.153-.538-.153-.543-.111.458.276.607.338.485.22.543.543"/><path d="M-19.501.159c-.099.418.097.813.205.828s.532-.153.593-.216.159-.336-.022-.63-.372-.248-.695-.405c-.129.015.038.15.053.241s.311.259.395.343m-1.057-.545c-.418-.054-.596-.339-.955-.385s-.48.2-.48.2-.024.063.005.095.111.032.111.032.093-.136.39-.079c.291.055.504.419.782.541"/></g><g class="C"><path d="M-21.462-.408c.077-.021.139.062.114.127"/><path d="M-20.404-.347c.024.046.024.133 0 .168m-.084-.209c.021.041.028.108.002.149m-.088-.205c.023.039.039.103.017.14m.241-.005c.058.069.042.162.024.218m.303-.096c.053-.008.156.056.134.093m-.158-.058c.008.052.093.105.123.09" class="Q"/></g></g><path d="M-19.904-.123c0 .019-.015.034-.034.034s-.034-.015-.034-.034.015-.034.034-.034.034.015.034.034z"/><g fill="#fff" transform="matrix(1.048426 .171236 -.171236 1.048426 -1.705418 3.192659)"><use href="#G" class="B D F"/><use href="#H"/></g><g class="B"><path d="M-20.389.034c.149.157.429.213.507.117" class="D H L"/><g class="C H"><path d="M-18.179 1.22c-.141-.181-.236-.319-.145-.5"/><path d="M-19.485 1.984c-.043.075-.031.199-.061.25m1.707-.216c.026.087-.024.165-.063.21m.039-1.78c.055.072.036.163.015.219m.508.946c.127.075.109.21.096.268m-.734-1.484c.074.052.083.145.08.204m-.882 1.341c.071.056.043.224.01.288m-.967-.469c.025-.09.037-.209.072-.257m2.412.464c.005.076-.04.208-.053.268" class="Q"/></g><path d="M-17.56.354c.77.523.309 1.237.218 1.236s.511-.412-.179-1.033" class="D F L"/></g></g><path d="M2597.5-700c0 164.305-133.195 297.5-297.5 297.5S2002.5-535.695 2002.5-700s133.195-297.5 297.5-297.5 297.5 133.195 297.5 297.5z" stroke="#012169" stroke-width="4.999" class="C"/></g><g fill="#c8102e"><path d="M6.889 2.714v-.121H7.2v.285q-.045.044-.132.078-.086.033-.174.033-.112 0-.196-.047-.083-.047-.125-.135-.042-.088-.042-.191 0-.112.047-.199.047-.087.137-.133.069-.036.171-.036.133 0 .208.056.075.056.097.154l-.144.027q-.015-.053-.057-.083-.042-.031-.104-.031-.095 0-.151.06-.056.06-.056.178 0 .127.057.191.057.063.148.063.045 0 .091-.018.046-.018.079-.043v-.091z"/><path d="M7.332 2.977V2.84h.137v.137z"/><path d="M8.068 2.714l.14.044q-.032.117-.107.174-.075.057-.19.057-.143 0-.234-.097-.092-.098-.092-.267 0-.179.092-.277.092-.099.243-.099.131 0 .213.078.049.046.073.132l-.143.034q-.013-.056-.053-.088-.04-.032-.098-.032-.08 0-.129.057-.049.057-.049.185 0 .136.049.193.049.058.127.058.058 0 .099-.037.042-.037.06-.115z"/><path d="M8.332 2.977V2.84h.137v.137z"/></g><defs ><path id="G" d="M-17.521-.065c-.209.058-.817-.074-.817-.074s.529.278.871.209"/><path id="H" d="M-17.424-.001c0 .023-.012.044-.032.056s-.045.012-.065 0-.032-.033-.032-.056.012-.044.032-.056.045-.012.065 0 .032.033.032.056z"/></defs></svg>