<svg xmlns="http://www.w3.org/2000/svg" viewBox="0 0 810 540">
  <rect fill="#003399" width="810" height="540"/>
  <g fill="#FFCC00" transform="translate(405,270)">
    <g id="star">
      <polygon points="0,-85 19,-26 81,-26 31,10 50,70 0,35 -50,70 -31,10 -81,-26 -19,-26" transform="scale(0.5)"/>
    </g>
    <use href="#star" transform="rotate(0) translate(0,-140)"/>
    <use href="#star" transform="rotate(30) translate(0,-140)"/>
    <use href="#star" transform="rotate(60) translate(0,-140)"/>
    <use href="#star" transform="rotate(90) translate(0,-140)"/>
    <use href="#star" transform="rotate(120) translate(0,-140)"/>
    <use href="#star" transform="rotate(150) translate(0,-140)"/>
    <use href="#star" transform="rotate(180) translate(0,-140)"/>
    <use href="#star" transform="rotate(210) translate(0,-140)"/>
    <use href="#star" transform="rotate(240) translate(0,-140)"/>
    <use href="#star" transform="rotate(270) translate(0,-140)"/>
    <use href="#star" transform="rotate(300) translate(0,-140)"/>
    <use href="#star" transform="rotate(330) translate(0,-140)"/>
  </g>
</svg>


