<svg width="900" height="600" viewBox="0 0 900 600" fill="none" xmlns="http://www.w3.org/2000/svg">
<g clip-path="url(#clip0_914_6)">
<path d="M0 0V600H900V0H0Z" fill="white"/>
<path d="M231.587 64.252L148.382 189.06ZM179.584 209.861L262.789 85.0532ZM293.991 105.854L210.786 230.662ZM606.01 494.145L644.145 436.941ZM651.079 426.541L689.215 369.337ZM720.416 390.138L682.281 447.342ZM675.347 457.742L637.211 514.946ZM668.413 535.747L706.549 478.544ZM713.483 468.143L751.618 410.94Z" fill="black"/>
<path d="M231.587 64.252L148.382 189.06M179.584 209.861L262.789 85.0532M293.991 105.854L210.786 230.662M606.01 494.145L644.145 436.941M651.079 426.541L689.215 369.337M720.416 390.138L682.281 447.342M675.347 457.742L637.211 514.946M668.413 535.747L706.549 478.544M713.483 468.143L751.618 410.94" stroke="black" stroke-width="25"/>
<path d="M148.382 410.939L231.587 535.747ZM262.789 514.946L224.653 457.742ZM217.719 447.342L179.584 390.138ZM210.786 369.337L293.991 494.144ZM689.215 230.662L651.079 173.458ZM644.145 163.058L606.01 105.854ZM637.211 85.0531L720.416 209.861ZM751.618 189.059L713.483 131.856ZM706.549 121.455L668.413 64.2518Z" fill="black"/>
<path d="M148.382 410.939L231.587 535.747M262.789 514.946L224.653 457.742M217.719 447.342L179.584 390.138M210.786 369.337L293.991 494.144M689.215 230.662L651.079 173.458M644.145 163.058L606.01 105.854M637.211 85.0531L720.416 209.861M751.618 189.059L713.483 131.856M706.549 121.455L668.413 64.2518" stroke="black" stroke-width="25"/>
<path d="M512.404 341.603C495.853 366.429 470.119 383.663 440.861 389.515C411.604 395.366 381.22 389.356 356.394 372.805C331.569 356.255 314.334 330.52 308.483 301.263C302.631 272.005 308.642 241.622 325.192 216.796C347.26 183.695 381.573 160.716 420.583 152.914C459.592 145.112 500.104 153.126 533.205 175.193C566.306 197.261 589.285 231.574 597.087 270.583C604.889 309.593 596.875 350.105 574.808 383.206" fill="#CD2E3A"/>
<path d="M450 300.001C461.034 283.451 478.19 271.961 497.695 268.06C517.2 264.159 537.456 268.166 554.006 279.2C570.557 290.234 582.046 307.39 585.947 326.895C589.848 346.4 585.841 366.656 574.808 383.206C552.74 416.307 518.427 439.286 479.417 447.088C440.407 454.89 399.896 446.876 366.795 424.809C333.694 402.742 310.715 368.429 302.913 329.419C295.111 290.409 303.125 249.897 325.192 216.796C314.159 233.347 310.152 253.603 314.053 273.108C317.954 292.613 329.443 309.769 345.994 320.803C362.544 331.836 382.8 335.843 402.305 331.942C421.81 328.041 438.966 316.552 450 300.001Z" fill="#0047A0"/>
</g>
<defs>
<clipPath id="clip0_914_6">
<rect width="900" height="600" fill="white"/>
</clipPath>
</defs>
</svg>
