<svg xmlns="http://www.w3.org/2000/svg" width="900" height="600" fill="none"><g clip-path="url(#a)"><path fill="#fff" d="M0 0h900v600H0z"/><path fill="#0B4EA2" d="M0 200h900v400H0z"/><path fill="#EE1C25" d="M0 400h900v200H0z"/><path fill="#EE1C25" d="M389.833 145.5s4.667 46.75 4.667 140.25c-.667 95.5-72.083 143.833-124.5 169.25-52.417-25.417-123.833-73.75-124.5-169.25 0-93.5 4.667-140.25 4.667-140.25z"/><mask id="b" width="250" height="310" x="145" y="145" maskUnits="userSpaceOnUse" style="mask-type:luminance"><path fill="#fff" d="M389.833 145.5s4.667 46.75 4.667 140.25c-.667 95.5-72.083 143.833-124.5 169.25-52.417-25.417-123.833-73.75-124.5-169.25 0-93.5 4.667-140.25 4.667-140.25z"/></mask><g mask="url(#b)"><path fill="#0B4EA2" d="M205.25 491.918c-6.76-.002-13.421-2.778-19.423-8.095-6.003-5.316-11.172-13.018-15.073-22.459s-6.421-20.344-7.348-31.795c-.926-11.45-.232-23.114 2.024-34.012s6.007-20.709 10.94-28.613c4.934-7.904 10.904-13.668 17.409-16.809 6.506-3.141 13.357-3.566 19.979-1.24s12.821 7.335 18.076 14.606c4.556-10.689 10.356-19.326 16.966-25.264 6.609-5.938 13.857-9.022 21.2-9.022s14.591 3.084 21.201 9.022 12.41 14.575 16.966 25.264c5.255-7.271 11.454-12.28 18.076-14.606s13.473-1.901 19.978 1.24 12.476 8.905 17.409 16.809 8.685 17.716 10.941 28.613c2.256 10.898 2.95 22.562 2.023 34.012-.926 11.451-3.446 22.355-7.347 31.795s-9.07 17.143-15.073 22.459c-6.003 5.317-12.664 8.093-19.424 8.095z"/></g><path fill="#fff" d="M259.417 400.001V283.084c-39.584 0-50.834 3.5-62.667 7.083a193.6 193.6 0 0 0 0-35.916c11.833 3.583 23.083 7.083 62.667 7.083v-32.5c-12.5 0-29.75.5-49.584 7.25a193.5 193.5 0 0 0 0-36c19.834 6.667 37.084 7.167 49.584 7.167 0-9.417-2.917-29.667-6.584-46.417a193.6 193.6 0 0 0 34.334 0c-3.667 16.75-6.584 37-6.584 46.417 12.5 0 29.75-.5 49.584-7.167a193.5 193.5 0 0 0 0 36c-19.834-6.75-37.084-7.25-49.584-7.25v32.5c39.584 0 50.834-3.5 62.667-7.083a193.6 193.6 0 0 0 0 35.916c-11.833-3.583-23.083-7.083-62.667-7.083v116.917z"/><path stroke="#fff" stroke-width="9" d="M389.833 145.5s4.667 46.75 4.667 140.25c-.667 95.5-72.083 143.833-124.5 169.25-52.417-25.417-123.833-73.75-124.5-169.25 0-93.5 4.667-140.25 4.667-140.25z"/></g><defs><clipPath id="a"><path fill="#fff" d="M0 0h900v600H0z"/></clipPath></defs></svg>