<svg width="1200" height="800" viewBox="0 0 1200 800" fill="none" xmlns="http://www.w3.org/2000/svg"><g clip-path="url(#clip0_1007_242)"><path d="M0 0H1200V800H0V0Z" fill="#13A439"/><path d="M604.8 667.1C586.7 667.1 572 662.2 572 656.3C572 650.3 586.7 645.5 604.8 645.5C622.9 645.5 637.6 650.4 637.6 656.3C637.6 662.3 622.9 667.1 604.8 667.1ZM673.2 586.7H662.9V563.6L643.5 563.5V608.7H629.5V578.3C629.5 573.7 625.1 570.3 621 570.3H543.6V585.8H610.1V608.8H583.4V592.9H564.1V608.8H540.5V624.2H643.6V636.2C633.3 631.9 619.9 629.2 604.9 629.2C572.8 629.2 546.8 641.3 546.8 656.2C546.8 671.1 572.8 683.2 604.9 683.2C636.8 683.2 662.6 671.3 662.9 656.5L663 602.1H673.3L673.2 586.7ZM508.1 566.9H396.1V582.4L496.4 582.5V620H392.8V635.4H445V679.4H464.3V635.4H520.3V620H515.7V572.6C515.7 572.9 515.7 572.3 515.7 572.6C515.5 568.3 512 567 508.1 566.9ZM257.4 656.4C253 656.4 250 652.6 250 648V569.8L305.2 569.7V585.2H269.3V640.9H318.8V563.5L338.3 563.4V608H350.3V563.5H369.7V679.3H350.4V623.4H338.4V679.3H318.9V656.4H257.4ZM930.6 563.5C930.6 563.7 930.6 605.9 930.6 639.7C914.5 639.5 902.4 637.2 897 631.5C883.6 617.5 881.5 606.7 879.7 594.8C879.1 591.1 879.2 584.1 879.2 584.1V566.1H859.7V584.1C859.7 584.1 859.7 591 859.2 594.8C857.4 606.6 858.3 619.7 843.4 632.8C836.1 639.2 827.3 643.5 821.3 645.7L835 658.8C848.8 652.3 856.5 645.4 861.6 638.5C864.2 634.9 866.7 631.4 869.6 623.7C872.5 631.4 874.9 635.1 878 638.2C893.2 653.2 908.2 656.8 930.8 656.3L930.9 679.3H950V563.6L930.6 563.5ZM775.9 601.9C776.1 600.8 776.2 599.7 776.2 598.6C776.2 597.3 776.1 596.1 775.9 594.9H790.9V601.9H775.9ZM732.2 613.5C719.2 613.5 708.8 606.8 708.8 598.5C708.8 590.2 719.3 583.5 732.2 583.5C745.2 583.5 755.7 590.2 755.7 598.5C755.6 606.8 745.1 613.5 732.2 613.5ZM810.2 563.6L790.9 563.5V579.3H766.4C758.3 572.4 746 567.9 732.2 567.9C707.9 567.9 688.2 581.6 688.2 598.5C688.2 615.4 707.9 629.1 732.2 629.1C746.4 629.1 759 624.4 767 617.2H790.9V635H697.9V650.4L790.8 650.5V679.3H810.3L810.2 563.6ZM681 440.3C681 456.3 671.8 463.2 657.3 463.2C652 463.2 644.1 461.8 639 455.8C635.9 452.1 634.7 447.2 634.5 441.1V400.8H646.8V440.3C646.8 448.8 651.5 452.5 657.1 452.5C665.4 452.5 668.8 448.3 668.8 440.9V400.9H681V440.3ZM599.3 428.8H623.4V461.6H615.4L614.2 454C611.1 457.7 606.7 463.2 596.2 463.2C582.3 463.2 569.7 452.7 569.7 431.4C569.7 414.8 578.5 399.1 597.9 399.2C615.6 399.2 622.6 411.3 623.2 419.7H611.1C611.1 417.3 607 409.7 598.5 409.7C589.9 409.7 581.9 416 581.9 431.5C581.9 448.1 590.5 452.4 598.7 452.4C601.4 452.4 610.2 451.3 612.7 439H599.3V428.8ZM561 411.5H530.4V424.3H558.6V435.1H530.4V450.8H562.4V461.6H518.6V400.8H561V411.5ZM472.7 449.1H494L497.7 461.6H510.8L490.4 400.8H476.5L455.9 461.6H468.6L472.7 449.1ZM483.3 414.5H483.5L490.7 438.5H476L483.3 414.5ZM405.6 461.6H430.6C449.7 461.6 454.6 442.8 454.6 429.8C454.6 418.3 450.6 400.8 431.1 400.8H405.6V461.6ZM417.4 411.3H429C434.1 411.3 442.3 412.7 442.3 430.7C442.3 440.7 439 451.1 429.2 451.1H417.5L417.4 411.3ZM651.8 116.7L490.5 373.1C490.5 373.1 618 367.5 683.4 378.7C683.4 378.7 816.5 397.5 781.3 438.4C781.3 438.4 766.2 454.9 713.6 466.6C713.6 466.6 809.6 461.9 823.2 416.3C823.2 416.3 828.8 402.2 820.8 389.9L651.8 116.7ZM593.7 130.9L440.4 371.7C440.4 371.7 466.7 369.3 471.4 369.8L607.8 157.6L593.7 130.9ZM375 386.3L519 159.5L539.2 194.3L423.9 374.6C423.9 374.6 382.5 382.6 375 386.3ZM250 511.5H950V521.9H250V511.5Z" fill="white"/></g><defs><clipPath id="clip0_1007_242"><rect width="1200" height="800" fill="white"/></clipPath></defs></svg>