<?xml version="1.0" encoding="utf-8"?><svg version="1.2" baseProfile="tiny" id="레이어_1" xmlns="http://www.w3.org/2000/svg" xmlns:xlink="http://www.w3.org/1999/xlink" x="0px" y="0px" viewBox="0 0 1350 900" overflow="visible" xml:space="preserve"><rect fill="#FFFFFF" width="1350" height="900"/><g><path fill="#6E6C70" d="M886.891,425.889c0,1.269,1.038,2.3,2.316,2.3h113.981c1.285,0,2.323-1.031,2.323-2.3V139.631 c0-1.277-1.037-2.308-2.323-2.308h-53.746c-1.27,0-2.316,1.031-2.316,2.308v237.228c0,0.9-0.735,1.63-1.634,1.63h-56.286 c-1.278,0-2.316,1.031-2.316,2.3V425.889z"/><path fill="#6E6C70" d="M708.982,530.364h300.695c1.394,0,2.316-0.922,2.316-2.299v-46.946c0-1.377-0.922-2.3-2.316-2.3H761.093 L708.982,530.364z"/><path fill="#6E6C70" d="M807.194,118c-53.745,0-98.228,38.661-98.228,91.122c0,52.461,44.483,91.122,98.228,91.122 c53.753,0,98.228-38.661,98.228-91.122C905.423,156.661,860.947,118,807.194,118 M807.194,250.544 c-22.706,0-41.695-17.492-41.695-41.423c0-23.93,18.989-41.422,41.695-41.422c22.706,0,41.703,17.492,41.703,41.422 C848.897,233.052,829.901,250.544,807.194,250.544"/><path fill="#E60F33" d="M695.065,368.751c0,1.269,1.037,2.3,2.316,2.3h90.809c1.472,0,2.2,1.776,1.155,2.799l-77.095,75.076 c-2.099,2.046-3.284,4.838-3.284,7.761v73.676l208.422-206.12c2.416-2.4,0.713-6.508-2.703-6.508H697.381 c-1.278,0-2.316,1.031-2.316,2.3V368.751z"/><path fill="#6E6C70" d="M500.458,311.298c-73.206,0-129.732,54.3-129.732,121.037c0,66.73,56.525,121.037,129.732,121.037 c73.215,0,129.74-54.307,129.74-121.037C630.199,365.597,573.674,311.298,500.458,311.298 M500.458,500.911 c-41.702,0-72.277-30.377-72.277-68.577s30.575-68.576,72.277-68.576c41.703,0,72.286,30.376,72.286,68.576 S542.161,500.911,500.458,500.911"/><path fill="#E60F33" d="M334.793,391.643L547.66,146.946c2.021-2.323,0.356-5.938-2.734-5.938H335.978 c-1.278,0-2.316,1.03-2.316,2.307v48.715c0,1.27,1.038,2.3,2.316,2.3h92.815c1.688,0,2.595,1.969,1.495,3.238l-98.6,113.43 c-1.719,1.977-2.656,4.492-2.656,7.1v71.415C329.032,392.535,332.802,393.928,334.793,391.643"/><path fill="#6E6C70" d="M574.138,319.575h53.745c1.278,0,2.316-1.031,2.316-2.3V196.03c0-0.907,0.728-1.631,1.642-1.631h37.738 c1.285,0,2.316-1.031,2.316-2.308v-48.784c0-1.27-1.03-2.3-2.316-2.3h-95.44c-1.278,0-2.324,1.03-2.324,2.3v173.967 C571.815,318.543,572.86,319.575,574.138,319.575"/><path fill="#6E6C70" d="M888.703,761.147c0,0.484,0.403,0.885,0.891,0.885h121.515c0.496,0,0.891-0.4,0.891-0.885v-18.815 c0-0.492-0.395-0.885-0.891-0.885h-50.222c-0.248,0-0.387-0.284-0.232-0.484l46.203-57.323c0.759-0.954,0.062-2.369-1.162-2.369 h-89.377c-0.349,0-0.635-0.284-0.635-0.63v-42.577c0-0.346,0.286-0.623,0.635-0.623h90.321c0.488,0,0.891-0.408,0.891-0.892 v-18.461c0-0.492-0.403-0.885-0.891-0.885H894.062c-0.496,0-0.891,0.392-0.891,0.885v82.53c0,0.5,0.395,0.892,0.891,0.892h70.086 c0.534,0,0.821,0.615,0.488,1.023l-31.209,38.307c-0.31,0.385-0.775,0.608-1.278,0.608h-42.555c-0.489,0-0.891,0.392-0.891,0.885 V761.147z M845.893,764.693c0,0.531,0.356,0.885,0.899,0.885h20.716c0.542,0,0.898-0.354,0.898-0.885V614.894 c0-0.539-0.356-0.892-0.898-0.892h-20.716c-0.543,0-0.899,0.354-0.899,0.892V764.693z M747.904,763.808h20.832 c0.403,0,0.751-0.269,0.86-0.654l15.946-56.931c0.085-0.269,0.325-0.454,0.611-0.454h11.903c0.286,0,0.534,0.184,0.611,0.454 l15.946,56.931c0.116,0.384,0.465,0.654,0.868,0.654h20.832c0.512,0,0.875-0.477,0.736-0.962l-21.53-76.661 c-0.108-0.385-0.457-0.654-0.86-0.654h-22.652c-0.31,0-0.534-0.292-0.45-0.585l11.625-41.184c0.108-0.384,0.457-0.646,0.859-0.646 h28.809c0.488,0,0.891-0.4,0.891-0.892v-18.815c0-0.492-0.403-0.885-0.891-0.885h-28.855c-0.348,0-0.635-0.284-0.635-0.63v-16.231 c0-0.492-0.395-0.892-0.883-0.892h-20.732c-0.503,0-0.898,0.4-0.898,0.892v16.231c0,0.346-0.287,0.63-0.635,0.63h-28.848 c-0.488,0-0.898,0.392-0.898,0.885v18.815c0,0.492,0.411,0.892,0.898,0.892h28.87c0.31,0,0.534,0.292,0.45,0.584l-33.518,119.145 C747.037,763.331,747.401,763.808,747.904,763.808 M698.712,764.693c0,0.492,0.395,0.885,0.883,0.885h20.731 c0.496,0,0.899-0.392,0.899-0.885V636.64c0-0.346,0.279-0.63,0.635-0.63h14.551c0.488,0,0.891-0.393,0.891-0.878V616.31 c0-0.484-0.403-0.878-0.891-0.878h-36.816c-0.489,0-0.883,0.393-0.883,0.878V764.693z M604.271,763.808h20.839 c0.403,0,0.759-0.277,0.868-0.669l15.248-58.676c0.07-0.277,0.325-0.477,0.612-0.477h11.523c0.286,0,0.542,0.2,0.611,0.477 l15.249,58.676c0.109,0.392,0.465,0.669,0.875,0.669h20.84c0.496,0,0.86-0.469,0.728-0.947l-20.484-78.438 c-0.101-0.392-0.458-0.661-0.86-0.661h-23.016c-0.302,0-0.527-0.285-0.449-0.577l12.011-46.507c0.093-0.392,0.45-0.669,0.868-0.669 h27.717c0.488,0,0.891-0.393,0.891-0.885V616.31c0-0.484-0.403-0.878-0.891-0.878h-79.704c-0.488,0-0.883,0.393-0.883,0.878v18.822 c0,0.484,0.395,0.878,0.883,0.878h28.181c0.302,0,0.519,0.284,0.442,0.577l-32.836,126.275 C603.404,763.339,603.768,763.808,604.271,763.808 M549.503,669.201c0,0.492,0.395,0.892,0.891,0.892h13.661 c0.348,0,0.635,0.277,0.635,0.623v19.077c0,0.492,0.395,0.885,0.898,0.885h20.716c0.504,0,0.898-0.392,0.898-0.885V616.31 c0-0.484-0.395-0.878-0.898-0.878h-35.91c-0.496,0-0.891,0.393-0.891,0.878v18.461c0,0.492,0.395,0.885,0.891,0.885h13.661 c0.348,0,0.635,0.285,0.635,0.631v12.946c0,0.346-0.287,0.63-0.635,0.63h-13.661c-0.496,0-0.891,0.392-0.891,0.878V669.201z M491.065,666.978v-15.777c0-0.347,0.286-0.631,0.634-0.631h29.468c0.348,0,0.634,0.284,0.634,0.631v15.777 c0,0.346-0.286,0.631-0.634,0.631H491.7C491.351,667.609,491.065,667.324,491.065,666.978 M474.624,764.693 c0,0.492,0.411,0.885,0.898,0.885h112.579c0.488,0,0.891-0.392,0.891-0.892v-16.669c0-0.5-0.403-0.892-0.891-0.892h-90.685 c-0.349,0-0.627-0.284-0.627-0.631v-6.731c0-0.346,0.278-0.623,0.627-0.623h88.888c0.504,0,0.898-0.4,0.898-0.892v-41.353 c0-0.492-0.395-0.892-0.898-0.892H475.522c-0.488,0-0.898,0.399-0.898,0.892v16.685c0,0.484,0.411,0.885,0.898,0.885h88.889 c0.348,0,0.635,0.284,0.635,0.631v6.377c0,0.346-0.287,0.63-0.635,0.63h-88.889c-0.488,0-0.898,0.392-0.898,0.878V764.693z M469.264,685.886c0,0.492,0.403,0.892,0.898,0.892h72.185c0.496,0,0.898-0.4,0.898-0.892V616.31c0-0.484-0.402-0.878-0.898-0.878 H522.7c-0.496,0-0.898,0.393-0.898,0.878v14.815c0,0.354-0.286,0.623-0.634,0.623H491.7c-0.348,0-0.634-0.269-0.634-0.623V616.31 c0-0.484-0.395-0.878-0.891-0.878h-20.012c-0.496,0-0.898,0.393-0.898,0.878V685.886z M333.461,684.117 c0,0.484,0.403,0.885,0.898,0.885h112.579c0.488,0,0.883-0.4,0.883-0.885v-16.685c0-0.492-0.395-0.892-0.883-0.892h-90.685 c-0.349,0-0.635-0.276-0.635-0.63v-6.554c0-0.346,0.286-0.615,0.635-0.615h88.889c0.503,0,0.898-0.408,0.898-0.892v-15.269 c0-0.484-0.395-0.885-0.898-0.885h-88.889c-0.349,0-0.635-0.276-0.635-0.623v-6.554c0-0.346,0.286-0.631,0.635-0.631h90.685 c0.488,0,0.883-0.4,0.883-0.892V616.31c0-0.484-0.395-0.878-0.883-0.878H334.359c-0.496,0-0.898,0.393-0.898,0.878V684.117z M332.748,741.262c0,0.492,0.403,0.892,0.899,0.892h91.026c0.348,0,0.635,0.285,0.635,0.631v23.33c0,0.485,0.403,0.885,0.898,0.885 h20.731c0.488,0,0.883-0.399,0.883-0.885V723.87c0-0.485-0.395-0.892-0.883-0.892H333.647c-0.496,0-0.899,0.407-0.899,0.892 V741.262z M329,712.87c0,0.53,0.357,0.885,0.891,0.885h121.507c0.543,0,0.898-0.354,0.898-0.885v-17.754 c0-0.531-0.356-0.885-0.898-0.885H329.891c-0.534,0-0.891,0.354-0.891,0.885V712.87z"/></g></svg>