<?xml version="1.0" encoding="utf-8"?><svg version="1.2" baseProfile="tiny" id="레이어_1" xmlns="http://www.w3.org/2000/svg" xmlns:xlink="http://www.w3.org/1999/xlink" x="0px" y="0px" viewBox="0 0 1200 800" overflow="visible" xml:space="preserve"><g><rect fill="#FFFFFF" width="1200" height="800"/><g><g><g><polygon fill="#724598" points="718,168.05 683.466,148.134 634.536,176.35 634.536,119.916 600,100 565.467,119.916 565.467,176.351 516.536,148.135 482.001,168.05 482.001,207.88 530.931,236.097 482,264.316 482,304.145 516.536,324.062 600,275.928 683.466,324.061 717.999,304.144 717.999,264.316 669.069,236.097 718,207.88 "/></g><g><path fill="#00AEBB" d="M551.07,386.293v-40.66l-34.536-19.916l-34.534,19.916v136.095L600,549.776l117.999-68.22V345.633 l-34.536-19.916l-34.534,19.916v40.66L600,358.005L551.07,386.293z M648.19,452.616L600,480.477l-48.19-27.862L600,424.755 L648.19,452.616z"/></g></g><g><g><path fill="#001655" d="M771.74,669.423v-22.375h31.65v-14.078h-63.175v-33.509h61.891v-14.067h-77.752l0.04,54.539 c0.003,3.93,3.184,7.114,7.107,7.114h24.377v22.375h-44.261v14.067H816v-14.067H771.74z"/></g><g><path fill="#001655" d="M624.912,630.192h68.74v-49.844h-15.861v12.301h-44.533v-12.301h-15.861v42.315 C617.396,626.821,620.761,630.192,624.912,630.192z M633.258,617.483v-12.125h44.533v12.125H633.258z"/></g><g><polygon fill="#001655" points="707.715,652.078 707.715,639.369 603.333,639.369 603.333,652.078 647.594,652.078 647.594,661.532 615.103,661.532 615.103,674.241 680.085,674.241 680.085,697.448 695.946,697.448 695.946,661.532 663.455,661.532 663.455,652.078 "/></g><g><polygon fill="#001655" points="574.854,646.335 590.715,646.335 590.715,580.348 574.854,580.348 574.854,604.503 559.031,604.503 559.031,618.57 574.854,618.57 "/></g><g><path fill="#001655" d="M592.767,675.009c0,13.866-18.039,25.107-41.33,25.107s-41.33-11.241-41.33-25.107 c0-13.866,18.039-25.107,41.33-25.107S592.767,661.143,592.767,675.009z M551.437,663.747c-14.191,0-24.6,5.042-24.6,11.262 s10.409,11.262,24.6,11.262s24.6-5.042,24.6-11.262S565.628,663.747,551.437,663.747z"/></g><g><path fill="#001655" d="M530.21,623.692c1.597,2.51,4.475,5.836,9.626,9.359l16.063,10.874l7.682-11.766l-16.129-10.918 c-5.811-3.808-9.312-10.294-9.312-17.25v-4.787h22.074v-14.066h-22.074v-10.36h-16.128v10.36h-21.808v14.066h21.808v4.787 c0,6.955-2.023,12.491-9.046,17.25l-16.129,10.918l7.682,11.766l16.063-10.874C525.735,629.528,528.613,626.202,530.21,623.692" /></g><g><g><path fill="#001655" d="M488.382,644.918v-14.067H384v14.067h44.261v5.445c-19.326,2.218-33.399,12.402-33.399,24.646 c0,13.866,18.039,25.107,41.33,25.107c23.291,0,41.33-11.241,41.33-25.107c0-12.244-14.074-22.427-33.4-24.646v-5.445H488.382z M460.791,675.009c0,6.22-10.41,11.262-24.6,11.262c-14.191,0-24.6-5.042-24.6-11.262c0-6.22,10.41-11.262,24.6-11.262 C450.382,663.747,460.791,668.789,460.791,675.009z"/></g><g><path fill="#001655" d="M414.478,610.034l-20.607,5.992l3.954,13.275l20.734-6.029l0.25-0.078 c4.79-1.599,11.994-3.765,17.121-8.738c5.127,4.973,12.33,7.139,17.12,8.738l0.25,0.078l20.734,6.029l3.954-13.275 l-20.607-5.992c-11.493-3.85-13.255-6.397-13.255-10.312v-0.518h30.884v-14.066h-30.884v-10.36h-16.394v10.36h-30.883v14.066 h30.883v0.518C427.732,603.637,425.972,606.184,414.478,610.034z"/></g></g></g></g></g></svg>