<svg xmlns="http://www.w3.org/2000/svg" width="750" height="500" fill="none"><g clip-path="url(#a)"><path fill="#000F5D" d="M0 0h750v500H0z"/><path fill="#FFB900" d="M346.554 222.899a2 2 0 0 1-.113-.154c-16.592-20.453.312-32.758.685-49.705 13.223 22.029-3.998 28.773 15.324 49.875z"/><path fill="#FFB900" d="M366.585 222.912c-6.385-8.982-10.864-23.319-8.948-32.685 1.9-9.362 8.387-18.581 7.488-25.667 1.12 2.695 5.106 8.835 6.303 15.392 5.832-15.071 16.017-21.433 31.838-22.211-28.454 21.622 8.689 38.239-15.871 65.197z"/><path fill="#FFB900" d="M392.668 222.95c11.582-14.622 8.519-25.728 7.472-34.603-.905-7.674-.518-12.496 11.971-18.462-.972 2.211-2.282 3.628-3.063 5.54-.926 2.268-2.242 4.862-.446 10.307 1.904 4.226 1.961 10.156.411 13.143-1.483.409 6.625-10.024 9.729-10.762-3.445 7.125-2.024 15.281-7.495 24.309-2.014 3.324-5.474 7.131-9.725 10.527M388.632 281.903c1.008-25.563 6.477-33.53 16.847-44.221-20.122-.048-42.609.011-60.906-.064 10.326 10.707 15.85 18.743 16.804 44.303 9.168.004 18.149-.04 27.255-.018M374.965 344.185l7.961 24.97 4.397-74.147c-8.198-.028-16.396.024-24.594.012l4.22 74.119zM374.974 456.148c3.512-3.257 4.509-13.866 4.509-13.866l2.185-45.299-6.635-4.662-6.649 4.647 2.115 45.31s.942 10.579 4.459 13.873zM337.982 111.99l-15.482-7.939 1.078-2.102 15.482 7.939zm2.638-5.718L328.11 94.18l1.798-1.86 14.735 2.94q.486.094.889.203.404.11.714.247l-10.139-9.802 1.568-1.622 12.509 12.093-1.782 1.842-14.985-2.937a8 8 0 0 1-.688-.172 11 11 0 0 1-.689-.255l10.14 9.802zm13.206-28.688-3.786 1.476 4.819 12.358 3.785-1.476q2.433-.948 3.062-3.006.626-2.07-.58-5.162-1.154-2.961-3.033-4.041t-4.267-.15m-.396 16.674-6.32-16.211 6.173-2.407q3.39-1.322 5.973.004 2.595 1.32 4.083 5.14 1.54 3.951.528 6.88-1.006 2.916-4.351 4.22zm16.362-4.931-1.375-17.344 2.355-.187 1.375 17.344zm10.644-7.121 5.324 1.02-1.198-8.046zm-6.304 6.15 9.624-15.87 2.563.493 3.09 18.309-2.517-.483-.83-5.451-6.728-1.291-2.801 4.754zm17.006 3.859 9.835-14.353 2.134 1.462-.44 15.02q-.01.494-.051.91a5 5 0 0 1-.124.745l7.971-11.634 1.861 1.275-9.834 14.353-2.115-1.45.394-15.264a8 8 0 0 1 .055-.707q.054-.35.137-.723l-7.971 11.635zm21.632 9.467 2.888 4.589 5.063-6.37zm-8.798-.407 18.166-3.801 1.391 2.209-11.27 14.757-1.366-2.169 3.417-4.328-3.65-5.798-5.386 1.199z"/><mask id="b" width="1000" height="667" x="0" y="0" maskUnits="userSpaceOnUse" style="mask-type:luminance"><path fill="#fff" d="M0 0h1000v666.667H0z"/></mask><g mask="url(#b)"><path fill="#FFB900" fill-rule="evenodd" d="M344.811 115.084h23.062L375 93.176l7.127 21.908h23.062l-18.658 13.539 7.127 21.907L375 136.991l-18.658 13.539 7.127-21.907z" clip-rule="evenodd"/></g><mask id="c" width="1000" height="667" x="0" y="0" maskUnits="userSpaceOnUse" style="mask-type:luminance"><path fill="#fff" d="M0 0h1000v666.667H0z"/></mask><g mask="url(#c)"><path fill="#FFB900" fill-rule="evenodd" d="M353.858 43.447h16.151L375 28.1l4.991 15.348h16.151l-13.067 9.486 4.991 15.347L375 58.795l-13.066 9.485 4.991-15.347z" clip-rule="evenodd"/></g><mask id="d" width="1000" height="667" x="0" y="0" maskUnits="userSpaceOnUse" style="mask-type:luminance"><path fill="#fff" d="M0 0h1000v666.667H0z"/></mask><g mask="url(#d)"><path fill="#FFB900" fill-rule="evenodd" d="M449.614 69.554h16.151l4.991-15.348 4.991 15.348h16.151l-13.067 9.485 4.991 15.348-13.066-9.486-13.066 9.486 4.991-15.348z" clip-rule="evenodd"/></g><mask id="e" width="1000" height="667" x="0" y="0" maskUnits="userSpaceOnUse" style="mask-type:luminance"><path fill="#fff" d="M0 0h1000v666.667H0z"/></mask><g mask="url(#e)"><path fill="#FFB900" fill-rule="evenodd" d="M520.201 132.162h16.151l4.99-15.348 4.991 15.348h16.151l-13.066 9.485 4.991 15.348-13.067-9.486-13.066 9.486 4.991-15.348z" clip-rule="evenodd"/></g><mask id="f" width="1000" height="667" x="0" y="0" maskUnits="userSpaceOnUse" style="mask-type:luminance"><path fill="#fff" d="M0 0h1000v666.667H0z"/></mask><g mask="url(#f)"><path fill="#FFB900" fill-rule="evenodd" d="M339.154 226.723h71.692v6.756h-71.692z" clip-rule="evenodd"/></g><mask id="g" width="1000" height="667" x="0" y="0" maskUnits="userSpaceOnUse" style="mask-type:luminance"><path fill="#fff" d="M0 0h1000v666.667H0z"/></mask><g mask="url(#g)"><path fill="#FFB900" fill-rule="evenodd" d="M558.25 222.219h16.151l4.991-15.348 4.99 15.348h16.151l-13.066 9.485 4.991 15.348-13.066-9.485-13.067 9.485 4.991-15.348z" clip-rule="evenodd"/></g><mask id="h" width="1000" height="667" x="0" y="0" maskUnits="userSpaceOnUse" style="mask-type:luminance"><path fill="#fff" d="M0 0h1000v666.667H0z"/></mask><g mask="url(#h)"><path fill="#FFB900" fill-rule="evenodd" d="M545.833 322.065h16.151l4.99-15.347 4.991 15.347h16.151l-13.066 9.486 4.991 15.348-13.067-9.486-13.066 9.486 4.991-15.348z" clip-rule="evenodd"/></g><mask id="i" width="1000" height="667" x="0" y="0" maskUnits="userSpaceOnUse" style="mask-type:luminance"><path fill="#fff" d="M0 0h1000v666.667H0z"/></mask><g mask="url(#i)"><path fill="#FFB900" fill-rule="evenodd" d="m490.718 399.183 16.151.001 4.991-15.348 4.991 15.348 16.151-.001-13.067 9.486 4.991 15.348-13.066-9.486-13.066 9.486 4.991-15.348z" clip-rule="evenodd"/></g><mask id="j" width="1000" height="667" x="0" y="0" maskUnits="userSpaceOnUse" style="mask-type:luminance"><path fill="#fff" d="M0 0h1000v666.667H0z"/></mask><g mask="url(#j)"><path fill="#FFB900" fill-rule="evenodd" d="M406.856 447.067h16.151l4.991-15.347 4.991 15.347h16.151l-13.067 9.486 4.991 15.348-13.066-9.486-13.066 9.486 4.991-15.348z" clip-rule="evenodd"/></g><mask id="k" width="1000" height="667" x="0" y="0" maskUnits="userSpaceOnUse" style="mask-type:luminance"><path fill="#fff" d="M0 0h1000v666.667H0z"/></mask><g mask="url(#k)"><path fill="#FFB900" fill-rule="evenodd" d="m442.803 335.059 16.151.001 4.991-15.348 4.991 15.348 16.15-.001-13.066 9.486 4.991 15.348-13.066-9.486-13.067 9.486 4.992-15.348z" clip-rule="evenodd"/></g><mask id="l" width="1000" height="667" x="0" y="0" maskUnits="userSpaceOnUse" style="mask-type:luminance"><path fill="#fff" d="M0 0h1000v666.667H0z"/></mask><g mask="url(#l)"><path fill="#FFB900" fill-rule="evenodd" d="M480.886 245.66h16.151l4.99-15.348 4.991 15.348h16.151l-13.066 9.485 4.991 15.348-13.067-9.486-13.066 9.486 4.991-15.348z" clip-rule="evenodd"/></g><mask id="m" width="1000" height="667" x="0" y="0" maskUnits="userSpaceOnUse" style="mask-type:luminance"><path fill="#fff" d="M0 0h1000v666.667H0z"/></mask><g mask="url(#m)"><path fill="#FFB900" fill-rule="evenodd" d="M353.858 372.054h16.151L375 356.706l4.991 15.348h16.151l-13.067 9.485 4.991 15.348L375 387.401l-13.066 9.486 4.991-15.348z" clip-rule="evenodd"/></g><mask id="n" width="1000" height="667" x="0" y="0" maskUnits="userSpaceOnUse" style="mask-type:luminance"><path fill="#fff" d="M0 0h1000v666.667H0z"/></mask><g mask="url(#n)"><path fill="#FFB900" fill-rule="evenodd" d="m526.22 141.716 1.371 3.401-104.575 42.26-1.37-3.402z" clip-rule="evenodd"/></g><mask id="o" width="1000" height="667" x="0" y="0" maskUnits="userSpaceOnUse" style="mask-type:luminance"><path fill="#fff" d="M0 0h1000v666.667H0z"/></mask><g mask="url(#o)"><path fill="#FFB900" fill-rule="evenodd" d="m555.218 222.377-.401 3.637-137.174-14.433.402-3.638z" clip-rule="evenodd"/></g><mask id="p" width="1000" height="667" x="0" y="0" maskUnits="userSpaceOnUse" style="mask-type:luminance"><path fill="#fff" d="M0 0h1000v666.667H0z"/></mask><g mask="url(#p)"><path fill="#FFB900" fill-rule="evenodd" d="M300.386 69.554h-16.151l-4.991-15.348-4.991 15.348h-16.151l13.067 9.485-4.991 15.348 13.066-9.486 13.066 9.486-4.991-15.348z" clip-rule="evenodd"/></g><mask id="q" width="1000" height="667" x="0" y="0" maskUnits="userSpaceOnUse" style="mask-type:luminance"><path fill="#fff" d="M0 0h1000v666.667H0z"/></mask><g mask="url(#q)"><path fill="#FFB900" fill-rule="evenodd" d="M229.799 132.162h-16.151l-4.99-15.348-4.991 15.348h-16.151l13.066 9.485-4.991 15.348 13.067-9.486 13.066 9.486-4.991-15.348z" clip-rule="evenodd"/></g><mask id="r" width="1000" height="667" x="0" y="0" maskUnits="userSpaceOnUse" style="mask-type:luminance"><path fill="#fff" d="M0 0h1000v666.667H0z"/></mask><g mask="url(#r)"><path fill="#FFB900" fill-rule="evenodd" d="M191.75 222.219h-16.151l-4.991-15.348-4.99 15.348h-16.151l13.066 9.485-4.991 15.348 13.066-9.485 13.067 9.485-4.991-15.348z" clip-rule="evenodd"/></g><mask id="s" width="1000" height="667" x="0" y="0" maskUnits="userSpaceOnUse" style="mask-type:luminance"><path fill="#fff" d="M0 0h1000v666.667H0z"/></mask><g mask="url(#s)"><path fill="#FFB900" fill-rule="evenodd" d="M204.167 322.065h-16.151l-4.99-15.347-4.991 15.347h-16.151l13.066 9.486-4.991 15.348 13.067-9.486 13.066 9.486-4.991-15.348z" clip-rule="evenodd"/></g><mask id="t" width="1000" height="667" x="0" y="0" maskUnits="userSpaceOnUse" style="mask-type:luminance"><path fill="#fff" d="M0 0h1000v666.667H0z"/></mask><g mask="url(#t)"><path fill="#FFB900" fill-rule="evenodd" d="m259.282 399.183-16.151.001-4.991-15.348-4.991 15.348-16.151-.001 13.067 9.486-4.991 15.348 13.066-9.486 13.066 9.486-4.991-15.348z" clip-rule="evenodd"/></g><mask id="u" width="1000" height="667" x="0" y="0" maskUnits="userSpaceOnUse" style="mask-type:luminance"><path fill="#fff" d="M0 0h1000v666.667H0z"/></mask><g mask="url(#u)"><path fill="#FFB900" fill-rule="evenodd" d="M343.144 447.067h-16.151l-4.991-15.347-4.991 15.347H300.86l13.067 9.486-4.991 15.348 13.066-9.486 13.066 9.486-4.991-15.348z" clip-rule="evenodd"/></g><mask id="v" width="1000" height="667" x="0" y="0" maskUnits="userSpaceOnUse" style="mask-type:luminance"><path fill="#fff" d="M0 0h1000v666.667H0z"/></mask><g mask="url(#v)"><path fill="#FFB900" fill-rule="evenodd" d="m307.197 335.059-16.151.001-4.991-15.348-4.991 15.348-16.15-.001 13.066 9.486-4.991 15.348 13.066-9.486 13.066 9.486-4.991-15.348z" clip-rule="evenodd"/></g><mask id="w" width="1000" height="667" x="0" y="0" maskUnits="userSpaceOnUse" style="mask-type:luminance"><path fill="#fff" d="M0 0h1000v666.667H0z"/></mask><g mask="url(#w)"><path fill="#FFB900" fill-rule="evenodd" d="M269.114 245.66h-16.151l-4.99-15.348-4.991 15.348h-16.151l13.066 9.485-4.991 15.348 13.067-9.486 13.066 9.486-4.991-15.348z" clip-rule="evenodd"/></g><mask id="x" width="1000" height="667" x="0" y="0" maskUnits="userSpaceOnUse" style="mask-type:luminance"><path fill="#fff" d="M0 0h1000v666.667H0z"/></mask><g mask="url(#x)"><path fill="#FFB900" fill-rule="evenodd" d="m223.78 141.716-1.371 3.401 112.134 45.307 1.37-3.401z" clip-rule="evenodd"/></g><mask id="y" width="1000" height="667" x="0" y="0" maskUnits="userSpaceOnUse" style="mask-type:luminance"><path fill="#fff" d="M0 0h1000v666.667H0z"/></mask><g mask="url(#y)"><path fill="#FFB900" fill-rule="evenodd" d="m194.782 222.377.401 3.637 137.174-14.433-.402-3.638z" clip-rule="evenodd"/></g><mask id="z" width="750" height="500" x="0" y="0" maskUnits="userSpaceOnUse" style="mask-type:luminance"><path fill="#fff" d="M0 0h750v500H0z"/></mask><g fill="#FFB900" fill-rule="evenodd" clip-rule="evenodd" mask="url(#z)"><path d="M373.146 141.717h3.708v25.606h-3.708zM294.935 95.553l-3.047 2.103 49.157 71.504 3.047-2.103zM454.945 95.896l3.047 2.102-45.519 66.213-3.048-2.103z"/></g></g><defs><clipPath id="a"><path fill="#fff" d="M0 0h750v500H0z"/></clipPath></defs></svg>