<svg width="20" height="14" viewBox="0 0 20 14" fill="none" xmlns="http://www.w3.org/2000/svg"><g clip-path="url(#clip0_2022_233)"><path d="M0 0H20V14H0" fill="white"/><path d="M13 0H0V9" fill="#1946B4"/><path d="M7 14H20V5" fill="#FFD700"/><path d="M9.08001 5.69L8.89001 4.98L9.39001 5.52L9.36001 4.79L9.72001 5.42L10 3L10.28 5.42L10 7.04" fill="#FFD700"/><path d="M10.2758 5.42319L10.6435 4.78679L10.6152 5.52218L11.1102 4.98478L10.9193 5.68482L12.8285 4.17161L11.3153 6.0808L9.97176 7.02832" fill="#FFD700"/><path d="M11.31 6.08014L12.02 5.89014L11.48 6.39014L12.21 6.36014L11.58 6.72014L14 7.00014L11.58 7.28014L9.96 7.00014" fill="#FFD700"/><path d="M11.5768 7.27569L12.2132 7.64339L11.4778 7.6151L12.0152 8.11008L11.3152 7.91916L12.8284 9.82835L10.9192 8.31514L9.97168 6.97163" fill="#FFD700"/><path d="M10.92 8.31L11.11 9.02L10.61 8.48L10.64 9.21L10.28 8.58L9.99999 11L9.71999 8.58L9.99999 6.96" fill="#FFD700"/><path d="M9.72419 8.57681L9.35649 9.21321L9.38478 8.47782L8.8898 9.01522L9.08072 8.31518L7.17153 9.82839L8.68474 7.9192L10.0282 6.97168" fill="#FFD700"/><path d="M8.69 7.91986L7.98 8.10986L8.52 7.60986L7.79 7.63986L8.42 7.27986L6 6.99986L8.42 6.71986L10.04 6.99986" fill="#FFD700"/><path d="M8.42319 6.72431L7.78679 6.35661L8.52218 6.3849L7.98478 5.88992L8.68482 6.08084L7.17161 4.17165L9.0808 5.68486L10.0283 7.02837" fill="#FFD700"/></g><defs><clipPath id="clip0_2022_233"><rect width="20" height="14" fill="white"/></clipPath></defs></svg>