<svg width="1277" height="847" viewBox="0 0 1277 847" fill="none" xmlns="http://www.w3.org/2000/svg">
<g clip-path="url(#clip0_993_192)">
<path d="M1276.2 0H0V847H1276.2V0Z" fill="#FCDD09"/>
<path d="M425.4 0H0V847H425.4V0Z" fill="#0072BC"/>
<path d="M1276.2 188.3V94.2H426V0H331.8V847H426V752.8H1276.2V658.7H426V564.7H1276.2V470.6H426V376.4H1276.2V282.3H426V188.3H1276.2Z" fill="#DA121A"/>
<path d="M194.2 772.303C194.2 772.303 155.6 857.603 138.4 816.703C138.4 816.703 143.3 818.603 147.1 814.803C150.5 811.403 150.1 808.203 146.2 803.503C142 798.403 129.9 800.703 127.5 806.703C122 820.703 135.1 839.203 147 838.303C178.4 836.203 181.8 802.603 202.6 774.003C203.8 772.103 194.2 772.303 194.2 772.303Z" fill="#FCDD09" stroke="black"/>
<path d="M194.9 674.199C194.9 674.199 156.3 588.899 139.1 629.799C139.1 629.799 144 627.899 147.8 631.699C151.2 635.099 150.8 638.299 146.9 642.999C142.7 648.099 130.6 645.799 128.2 639.799C122.7 625.799 135.8 607.499 147.7 608.199C179.1 610.299 182.5 643.899 203.3 672.499C204.4 674.199 194.9 674.199 194.9 674.199Z" fill="#FCDD09" stroke="black"/>
<path d="M324.4 694.199C318.9 704.799 273.5 722.199 273.5 722.199C273.5 722.199 317.7 738.999 323.8 750.199L324.4 766.599C301.9 735.999 279.4 733.099 262 732.199C249.7 731.599 250.8 738.799 253.1 741.699C273.3 767.399 247.2 774.799 243.3 796.099C243.1 797.199 240.1 792.499 239.1 786.299C238.5 782.299 239.7 776.299 239.7 776.299C230.6 791.199 219.3 779.299 212.3 794.299C212.3 794.299 210.8 791.999 210 791.299C207.9 789.399 201.5 790.399 200.5 773.499C200.5 772.899 193.1 774.799 193.1 774.799C197.3 760.799 233 745.299 223.7 735.999C213.1 725.799 212.4 757.899 195.9 760.199C195 760.399 198.4 750.899 198.4 750.899C190.6 751.299 187.2 760.199 186.5 765.499L184.6 760.599C177.2 756.399 186.5 735.499 183.1 731.899C180.5 729.099 171.6 740.599 167.8 742.499C164 744.399 142.5 744.399 153.1 757.399C153.9 758.499 151 751.499 155.9 750.599C161.4 749.699 161.2 756.099 161.2 756.599C161.2 759.199 156.3 765.899 148.5 762.099C148.1 761.899 133.8 751.499 152.5 736.799C152.5 736.799 141 743.799 129.1 731.299C126.5 728.699 123.1 725.299 118.9 722.599C123.1 719.999 126.1 716.899 128.7 714.099C140.8 701.599 152.1 708.399 152.1 708.399C133.4 693.699 147.6 683.299 148.1 683.099C155.7 679.299 160.6 685.899 160.8 688.599C160.8 689.199 161 695.599 155.5 694.599C150.6 693.699 153.4 686.799 152.7 687.799C142.1 700.799 163.7 700.799 167.6 702.699C171.4 704.599 180.3 716.099 182.9 713.299C186.3 709.699 177 688.699 184.4 684.599L186.1 679.699C187 684.999 190.4 693.899 198.2 694.299C198.2 694.299 194.8 684.799 195.7 684.999C212.1 687.099 213.1 719.399 223.5 708.999C232.8 699.899 197 684.399 192.9 670.399C192.9 670.399 200.3 672.299 200.3 671.699C201.2 654.699 207.7 655.599 209.6 653.699C210.4 652.899 211.7 650.699 211.7 650.699C218.7 665.599 230.2 653.499 239.1 668.499C239.1 668.499 237.8 662.499 238.3 658.499C239.2 652.299 242.3 647.699 242.5 648.699C246.7 670.099 272.7 677.199 252.5 702.999C250.2 705.799 249.1 713.199 261.6 712.499C279 711.599 301.5 708.499 323.8 677.899L324.4 694.199Z" fill="#FCDD09" stroke="black"/>
<path d="M184.5 760.403C187 739.603 204.5 732.803 204.2 722.603C203.8 712.403 186.1 701.803 184 684.403M209.1 790.703C195.3 762.003 239.7 752.303 238.4 722.603C237.1 694.403 194.9 682.003 208.9 654.203M273 722.203H118.7" stroke="black"/>
<path d="M259 563.203C254.1 549.803 239.9 546.003 231.8 545.803C222.7 545.403 208.5 557.903 199.8 563.203C192 567.903 178.1 561.703 175.8 556.203C170.9 544.103 178.6 541.803 182.4 542.403C182.4 542.403 177.9 551.103 185.4 550.003C190.1 549.203 191.4 542.203 190.7 539.403C189.2 533.703 181.1 534.303 177.8 535.203C167.4 538.203 169.1 552.803 172.7 558.303C177.8 566.603 190.7 567.803 198.8 566.603C211.3 564.703 221.3 552.003 228.7 552.403C230.6 552.403 232.7 559.203 230.8 559.603C218.3 561.903 220 570.803 220 570.803V571.003C220 571.003 218.3 579.703 230.8 582.203C232.7 582.603 230.2 589.603 228.3 589.603C220.9 590.003 211.3 576.903 198.8 575.203C190.7 574.103 177.8 575.203 172.7 583.503C169.3 589.003 167.6 603.503 177.8 606.603C181 607.503 189 608.103 190.7 602.403C191.5 599.603 190.3 592.403 185.4 591.803C177.8 590.703 182.4 599.403 182.4 599.403C178.6 600.203 170.9 597.703 175.8 585.603C178.1 580.103 192.1 573.903 199.8 578.603C208.5 584.103 222.7 596.403 231.8 596.003C239.9 595.603 254.1 592.003 259 578.603V563.003V563.203Z" fill="#FCDD09" stroke="black"/>
<path d="M321.6 554.3C319.9 563.2 297.4 570.9 297.4 570.9C297.4 570.9 319.5 582.4 322.5 591.7L321.9 602.5C314.7 578.1 287.3 576.2 287.3 576.2C293.2 584.5 298.3 595.9 284.3 607.2C284.3 607.2 288.5 596.6 286.4 594.2C286.4 594.2 284.5 600.8 276.6 606.9C273.4 609.4 264.5 609 260.5 611.4L263.9 600.6C259.7 609.3 248 610.4 248 610.4C247.2 607.4 247.6 600.2 251.2 594.7C258 584.3 256.5 576.7 256.5 576.7C250.6 589.7 227.4 590.9 223 587.7C222.4 587.3 228.1 581.7 228.1 581.7C226 582.1 220.2 577.9 220.3 576.8C220.5 575.1 224.3 571.5 225 570.4C225 570.4 220.7 566.8 220.5 565.1C220.3 564 226.2 559.8 228.3 560.2C228.3 560.2 222.4 554.5 223.2 554.2C227.5 551 250.8 552.1 256.7 565.2C256.7 565.2 258.4 557.8 251.6 547.2C248 541.7 247.6 534.3 248.2 531.5C248.2 531.5 260.1 532.6 264.1 541.3L260.7 530.5C264.7 532.8 273.6 532.4 276.8 535C284.7 541 286.6 547.7 286.6 547.7C288.7 545.2 284.5 534.7 284.5 534.7C298.5 546 293.4 557.4 287.5 565.7C287.5 565.7 315.1 563.8 322.1 539.4L321.6 554.3Z" fill="#FCDD09" stroke="black"/>
<path d="M191.3 573.798C183.7 573.998 173.3 579.298 163.9 577.998C157.1 577.098 145 568.898 145 568.898C145 568.898 157.3 562.498 163.5 561.098C173.5 558.798 183.5 567.498 191.1 567.698C192.7 567.698 192.8 573.798 191.3 573.798Z" fill="#FCDD09" stroke="black"/>
<path d="M191.5 558.701C195.7 557.801 194.9 570.801 194.9 570.801C194.9 572.501 195.5 582.101 191.5 582.901C187 582.301 188.3 570.801 188.3 570.801C188.3 570.801 187.7 558.501 191.5 558.701Z" fill="#FCDD09" stroke="black"/>
<path d="M219.7 570.403L298 571.003ZM263.6 602.003L274.8 570.803ZM274.7 570.803L263.7 540.203Z" fill="#FCDD09"/>
<path d="M219.7 570.403L298 571.003M263.6 602.003L274.8 570.803M274.7 570.803L263.7 540.203" stroke="black"/>
<path d="M194.9 469.803C194.9 469.803 156.3 555.103 139.1 514.203C139.1 514.203 144 516.103 147.8 512.303C151.2 508.903 150.8 505.703 146.9 501.003C142.7 495.903 130.6 498.203 128.2 504.203C122.7 518.203 135.8 536.703 147.7 535.803C179.1 533.703 182.5 500.103 203.3 471.503C204.4 469.603 194.9 469.803 194.9 469.803Z" fill="#FCDD09" stroke="black"/>
<path d="M195.5 371.699C195.5 371.699 156.9 286.399 139.7 327.299C139.7 327.299 144.6 325.399 148.4 329.199C151.8 332.599 151.4 335.799 147.5 340.499C143.3 345.599 131.2 343.299 128.8 337.299C123.3 323.299 136.4 304.999 148.3 305.699C179.7 307.799 183.1 341.399 203.9 369.999C204.9 371.899 195.5 371.699 195.5 371.699Z" fill="#FCDD09" stroke="black"/>
<path d="M325 391.696C319.5 402.296 274.1 419.696 274.1 419.696C274.1 419.696 318.3 436.496 324.4 447.696L325 464.096C302.5 433.496 280 430.596 262.6 429.696C250.3 429.096 251.4 436.296 253.7 439.196C273.9 464.896 247.8 472.296 243.9 493.596C243.7 494.696 240.7 489.996 239.7 483.796C239.1 479.796 240.3 473.796 240.3 473.796C231.2 488.696 219.9 476.796 212.9 491.796C212.9 491.796 211.4 489.496 210.6 488.796C208.5 486.896 202.1 487.896 201.1 470.996C201.1 470.396 193.7 472.296 193.7 472.296C197.9 458.296 233.6 442.796 224.3 433.496C213.7 423.296 213 455.396 196.5 457.696C195.6 457.896 199 448.396 199 448.396C191.2 448.796 187.8 457.696 187.1 462.996L185.2 458.096C177.8 453.896 187.1 432.996 183.7 429.396C181.1 426.596 172.2 438.096 168.4 439.996C164.6 441.896 143.1 441.896 153.7 454.896C154.5 455.996 151.6 448.996 156.5 448.096C162 447.196 161.8 453.596 161.8 454.096C161.8 456.696 156.9 463.396 149.1 459.596C148.7 459.396 134.4 448.996 153.1 434.096C153.1 434.096 141.6 441.096 129.7 428.596C127.1 425.996 123.7 422.596 119.5 419.896C123.7 417.296 126.7 414.196 129.3 411.396C141.4 398.696 152.7 405.696 152.7 405.696C134 390.996 148.2 380.596 148.7 380.396C156.3 376.596 161.2 383.196 161.4 385.896C161.4 386.496 161.6 392.896 156.1 391.896C151.2 390.996 154 384.096 153.3 385.096C142.7 398.096 164.3 398.096 168.2 399.996C172 401.896 180.9 413.396 183.5 410.596C186.9 406.996 177.5 385.996 185 381.896L186.7 376.996C187.6 382.296 191 391.196 198.8 391.596C198.8 391.596 195.4 382.096 196.3 382.296C212.7 384.396 213.7 416.696 224.1 406.296C233.4 397.196 197.6 381.696 193.5 367.696C193.5 367.696 200.9 369.596 200.9 368.996C201.8 351.996 208.3 352.896 210.2 350.996C211 350.196 212.3 347.996 212.3 347.996C219.3 362.896 230.8 350.796 239.7 365.796C239.7 365.796 238.4 359.796 238.9 355.796C239.8 349.596 242.9 344.996 243.1 345.996C247.3 367.396 273.3 374.496 253.1 400.296C250.8 403.096 249.7 410.296 262.2 409.796C279.6 408.896 302.1 405.796 324.4 375.196L325 391.696Z" fill="#FCDD09" stroke="black"/>
<path d="M185.3 457.903C187.8 437.103 205.3 430.303 205 420.103C204.6 409.903 186.9 399.303 184.8 381.903M209.7 488.203C195.9 459.503 240.3 449.803 239 420.103C237.7 391.903 195.5 379.503 209.5 351.703M273.6 419.903H119.3" stroke="black"/>
<path d="M193.6 170.498C193.6 170.498 155 255.798 137.8 214.898C137.8 214.898 142.7 216.798 146.5 212.998C149.9 209.598 149.5 206.398 145.6 201.698C141.4 196.598 129.3 198.898 126.9 204.898C121.4 218.898 134.5 237.398 146.4 236.498C177.8 234.398 181.2 200.798 202 172.198C203.1 170.298 193.6 170.498 193.6 170.498Z" fill="#FCDD09" stroke="black"/>
<path d="M194.2 72.3988C194.2 72.3988 155.6 -12.9012 138.4 27.9988C138.4 27.9988 143.3 26.0988 147.1 29.8988C150.5 33.2988 150.1 36.4988 146.2 41.1988C142 46.2988 129.9 43.9988 127.5 37.9988C122 23.9988 135.1 5.49881 147 6.39881C178.2 8.69881 181.8 42.0988 202.6 70.8988C203.8 72.5988 194.2 72.3988 194.2 72.3988Z" fill="#FCDD09" stroke="black"/>
<path d="M323.7 92.4979C318.2 103.098 272.8 120.498 272.8 120.498C272.8 120.498 317 137.298 323.1 148.498L323.7 164.898C301.2 134.298 278.7 131.398 261.3 130.498C248.8 129.898 250.1 137.098 252.4 139.998C272.6 165.698 246.5 173.098 242.6 194.398C242.4 195.498 239.4 190.798 238.4 184.598C237.8 180.598 239 174.598 239 174.598C229.9 189.498 218.6 177.598 211.6 192.398C211.6 192.398 210.1 190.098 209.3 189.398C207.2 187.498 200.8 188.498 199.8 171.598C199.8 170.998 192.4 172.898 192.4 172.898C196.6 158.898 232.3 143.398 223 134.098C212.4 123.898 211.7 155.998 195.2 158.298C194.3 158.498 197.7 148.998 197.7 148.998C189.9 149.398 186.5 158.298 185.8 163.598L183.9 158.698C176.5 154.498 185.6 133.598 182.4 129.998C179.8 127.198 170.9 138.698 167.1 140.598C163.3 142.498 141.8 142.498 152.4 155.498C153.2 156.598 150.3 149.598 155.2 148.698C160.7 147.798 160.5 154.198 160.5 154.698C160.5 157.298 155.6 163.998 147.8 160.198C147.4 159.998 133.1 149.598 151.8 134.698C151.8 134.698 140.3 141.698 128.4 129.198C125.8 126.598 122.4 123.198 118.2 120.498C122.4 117.898 125.4 114.798 128 111.998C140.1 99.4979 151.4 106.298 151.4 106.298C132.7 91.5979 146.9 81.1979 147.4 80.9979C155.2 77.1979 159.9 83.7979 160.1 86.4979C160.1 87.0979 160.3 93.4979 154.8 92.4979C149.9 91.5979 152.7 84.6979 152 85.6979C141.4 98.6979 163 98.6979 166.9 100.598C170.7 102.498 179.6 113.998 182.2 111.198C185.6 107.598 176.3 86.5979 183.7 82.4979L185.4 77.5979C186.3 82.8979 189.7 91.7979 197.5 92.1979C197.5 92.1979 194.1 82.6979 195 82.8979C211.4 84.9979 212.4 117.298 222.8 106.898C232.1 97.7979 196.3 82.2979 192.2 68.2979C192.2 68.2979 199.6 70.1979 199.6 69.5979C200.5 52.5979 207 53.4979 208.9 51.5979C209.7 50.7979 211 48.5979 211 48.5979C218 63.4979 229.5 51.3979 238.4 66.3979C238.4 66.3979 237.1 60.3979 237.6 56.3979C238.5 50.1979 241.6 45.5979 241.8 46.5979C246 67.9979 272 75.0979 251.8 100.898C249.5 103.698 248.4 111.098 260.9 110.398C278.3 109.498 300.8 106.398 323.1 75.7979L323.7 92.4979Z" fill="#FCDD09" stroke="black"/>
<path d="M184 158.598C186.5 137.798 204 130.998 203.7 120.798C203.3 110.598 185.6 99.9984 183.5 82.5984M208.5 188.898C194.7 160.198 239.1 150.498 237.8 120.798C236.5 92.5984 194.3 80.1984 208.3 52.3984M272.4 120.598H118.2" stroke="black"/>
<path d="M258.3 262.602C253.4 249.202 239.2 245.402 231.1 245.202C222 244.802 207.8 257.302 199.1 262.602C191.3 267.302 177.4 261.102 175.1 255.602C170.2 243.502 177.9 241.202 181.7 241.802C181.7 241.802 177.2 250.502 184.7 249.402C189.4 248.602 190.7 241.602 189.8 238.802C188.3 233.102 180.3 233.702 177.1 234.602C166.7 237.602 168.4 252.202 172 257.702C177.1 266.002 190 267.202 198.1 266.002C210.4 264.102 220.6 251.402 228 251.802C229.9 251.802 232 258.602 230.1 259.002C217.6 261.302 219.3 270.202 219.3 270.202V270.402C219.3 270.402 217.6 279.102 230.1 281.402C232 281.802 229.5 288.802 227.6 288.802C220.2 289.202 210.6 276.102 198.1 274.402C190 273.302 177.1 274.402 172 282.702C168.6 288.202 166.9 302.702 177.1 305.802C180.3 306.702 188.3 307.302 190 301.602C190.8 298.802 189.6 291.602 184.9 291.002C177.3 289.902 181.9 298.602 181.9 298.602C178.1 299.402 170.4 296.902 175.3 284.802C177.6 279.302 191.6 273.102 199.3 277.802C208 283.102 222.2 295.602 231.3 295.202C239.4 294.802 253.6 291.202 258.5 277.802V262.702H258.3V262.602Z" fill="#FCDD09" stroke="black"/>
<path d="M321 253.698C319.3 262.598 296.8 270.298 296.8 270.298C296.8 270.298 318.9 281.798 321.9 291.098L321.3 301.898C314.1 277.498 286.7 275.598 286.7 275.598C292.6 283.898 297.7 295.298 283.7 306.598C283.7 306.598 287.9 295.998 285.8 293.598C285.8 293.598 283.9 300.198 276 306.298C272.8 308.898 263.9 308.398 259.9 310.798L263.3 299.998C259.1 308.698 247.4 309.798 247.4 309.798C246.6 306.798 247 299.598 250.8 294.098C257.6 283.698 255.9 276.098 255.9 276.098C250 289.098 226.8 290.298 222.4 287.098C221.8 286.698 227.5 281.098 227.5 281.098C225.4 281.498 219.6 277.298 219.7 276.198C219.9 274.498 223.7 270.898 224.4 269.798C224.4 269.798 220.1 266.198 219.9 264.498C219.7 263.398 225.6 259.198 227.7 259.598C227.7 259.598 221.8 253.898 222.6 253.598C226.9 250.398 250.2 251.498 256.1 264.598C256.1 264.598 257.8 257.198 250.8 246.598C247.2 241.098 246.8 233.698 247.6 230.898C247.6 230.898 259.5 231.998 263.5 240.698L260.1 229.898C264.1 232.198 273 231.798 276.2 234.398C284.1 240.398 286 247.098 286 247.098C288.1 244.598 283.9 234.098 283.9 234.098C297.9 245.398 292.8 256.798 286.9 265.098C286.9 265.098 314.5 263.198 321.5 238.798L321 253.698Z" fill="#FCDD09" stroke="black"/>
<path d="M190.8 273.399C183.2 273.599 172.8 278.899 163.4 277.599C156.6 276.699 144.5 268.499 144.5 268.499C144.5 268.499 156.8 262.099 163 260.699C173 258.399 183 267.099 190.6 267.299C191.9 267.299 192.3 273.199 190.8 273.399Z" fill="#FCDD09" stroke="black"/>
<path d="M191 258.1C195.2 257.2 194.4 270 194.4 270C194.4 271.9 195 281.3 191 282.1C186.5 281.5 187.8 270 187.8 270C187.8 270 187.2 257.9 191 258.1Z" fill="#FCDD09" stroke="black"/>
<path d="M219.1 270.002L297.4 270.602ZM262.8 301.402L274 270.202ZM274.1 270.202L263.1 239.602Z" fill="#FCDD09"/>
<path d="M219.1 270.002L297.4 270.602M262.8 301.402L274 270.202M274.1 270.202L263.1 239.602" stroke="black"/>
<path d="M323.3 661.098C315.5 640.298 287.6 642.598 287.6 642.598C287.6 642.598 315.6 642.798 322.8 618.398L323.3 661.098Z" fill="#FCDD09" stroke="black"/>
<path d="M323.3 785.398C315.5 806.198 287.6 803.898 287.6 803.898C287.6 803.898 315.6 803.698 322.8 828.098L323.3 785.398Z" fill="#FCDD09" stroke="black"/>
<path d="M258.8 804.5C258.8 804.5 270.3 813.8 278.1 811.9C278.1 811.9 269.2 820.4 276.6 827.2C276.6 827.2 278.9 818.3 289.5 816.8C298.4 815.5 302 808.1 302 804.5V804.7C302.2 801.1 298.6 793.9 289.5 792.4C278.9 790.7 276.6 782 276.6 782C269.2 788.6 278.1 797.3 278.1 797.3C270.4 795.4 258.8 804.5 258.8 804.5Z" fill="#FCDD09" stroke="black"/>
<path d="M322.3 481.297C314.5 502.097 286.6 499.797 286.6 499.797C286.6 499.797 314.6 499.597 321.8 523.997L322.3 481.297Z" fill="#FCDD09" stroke="black"/>
<path d="M323.3 360.903C315.5 340.103 287.6 342.403 287.6 342.403C287.6 342.403 315.6 342.603 322.8 318.203L323.3 360.903Z" fill="#FCDD09" stroke="black"/>
<path d="M323.3 179.203C315.5 200.003 287.6 197.703 287.6 197.703C287.6 197.703 315.6 197.503 322.8 221.903L323.3 179.203Z" fill="#FCDD09" stroke="black"/>
<path d="M323.3 59.7C315.5 38.9 287.6 41.2 287.6 41.2C287.6 41.2 315.6 41.4 322.8 17L323.3 59.7Z" fill="#FCDD09" stroke="black"/>
<path d="M331.8 -1.5H321.4V848.9H331.8V-1.5Z" fill="#FCDD09" stroke="black"/>
<path d="M259.4 641.297C259.4 641.297 270.9 650.597 278.7 648.697C278.7 648.697 269.8 657.197 277.2 663.997C277.2 663.997 279.5 655.097 290.1 653.597C299 652.297 302.6 644.897 302.6 641.297V641.497C302.8 637.897 299.2 630.697 290.1 629.197C279.5 627.497 277.2 618.797 277.2 618.797C269.8 625.397 278.7 634.097 278.7 634.097C270.9 632.197 259.4 641.297 259.4 641.297Z" fill="#FCDD09" stroke="black"/>
<path d="M258.8 500.102C258.8 500.102 270.3 509.402 278.1 507.502C278.1 507.502 269.2 516.002 276.6 522.802C276.6 522.802 278.9 513.902 289.5 512.402C298.4 511.102 302 503.702 302 500.102V500.302C302.2 496.702 298.6 489.502 289.5 488.002C278.9 486.302 276.6 477.602 276.6 477.602C269.2 484.202 278.1 492.902 278.1 492.902C270.4 491.002 258.8 500.102 258.8 500.102Z" fill="#FCDD09" stroke="black"/>
<path d="M259.4 342.602C259.4 342.602 270.9 351.902 278.7 350.002C278.7 350.002 269.8 358.502 277.2 365.302C277.2 365.302 279.5 356.402 290.1 354.902C299 353.602 302.6 346.202 302.6 342.602V342.802C302.8 339.202 299.2 332.002 290.1 330.502C279.5 328.802 277.2 320.102 277.2 320.102C269.8 326.702 278.7 335.402 278.7 335.402C270.9 333.502 259.4 342.602 259.4 342.602Z" fill="#FCDD09" stroke="black"/>
<path d="M259.4 197.797C259.4 197.797 270.9 207.097 278.7 205.197C278.7 205.197 269.8 213.697 277.2 220.497C277.2 220.497 279.5 211.597 290.1 210.097C299 208.797 302.6 201.397 302.6 197.797V197.997C302.8 194.397 299.2 187.197 290.1 185.697C279.5 183.997 277.2 175.297 277.2 175.297C269.8 181.897 278.7 190.597 278.7 190.597C270.9 188.697 259.4 197.797 259.4 197.797Z" fill="#FCDD09" stroke="black"/>
<path d="M260.1 40.7969C260.1 40.7969 271.6 50.0969 279.4 48.1969C279.4 48.1969 270.5 56.6969 277.9 63.4969C277.9 63.4969 280.2 54.5969 290.8 53.0969C299.7 51.7969 303.3 44.3969 303.3 40.7969V40.9969C303.5 37.3969 299.9 30.1969 290.8 28.6969C280.2 26.9969 277.9 18.2969 277.9 18.2969C270.5 24.8969 279.4 33.5969 279.4 33.5969C271.7 31.7969 260.1 40.7969 260.1 40.7969Z" fill="#FCDD09" stroke="black"/>
<path d="M390.2 800.302C390.2 808.102 383.8 814.502 376 814.502C368.2 814.502 361.8 808.302 361.8 800.302C361.8 792.502 368.2 786.102 376 786.102C384 786.102 390.2 792.502 390.2 800.302Z" fill="white" stroke="black"/>
<path d="M390.2 611.997C390.2 619.797 383.8 626.197 376 626.197C368.2 626.197 361.8 619.997 361.8 611.997C361.8 604.197 368.2 597.797 376 597.797C384 597.997 390.2 604.197 390.2 611.997Z" fill="white" stroke="black"/>
<path d="M390.2 423.903C390.2 431.703 383.8 438.103 376 438.103C368.2 438.103 361.8 431.903 361.8 423.903C361.8 416.103 368.2 409.703 376 409.703C384 409.703 390.2 415.903 390.2 423.903Z" fill="white" stroke="black"/>
<path d="M390.2 235.598C390.2 243.398 383.8 249.798 376 249.798C368.2 249.798 361.8 243.598 361.8 235.598C361.8 227.798 368.2 221.398 376 221.398C384 221.398 390.2 227.798 390.2 235.598Z" fill="white" stroke="black"/>
<path d="M390.2 47.4969C390.2 55.2969 383.8 61.6969 376 61.6969C368.2 61.6969 361.8 55.4969 361.8 47.4969C361.8 39.6969 368.2 33.2969 376 33.2969C384 33.2969 390.2 39.4969 390.2 47.4969Z" fill="white" stroke="black"/>
<path d="M352.6 142.398L376 118.898L399.5 142.398L376 165.598L352.6 142.398Z" fill="#FCDD09" stroke="black"/>
<path d="M354.3 142.402L361.3 149.502H368.7V156.902L375.9 163.902H376.2L383.2 156.902V149.502H390.6L397.8 142.402V142.202L390.6 135.002H383.2V127.602L376.2 120.602H375.9L368.7 127.602V135.002H361.3L354.3 142.202V142.402Z" fill="#DA121A" stroke="black"/>
<path d="M366.2 123.598C367.3 124.698 366.2 127.598 363.7 129.798C361.2 132.298 358.4 133.398 357.5 132.298C356.4 131.198 357.5 128.498 360 126.098C362.2 123.598 365.1 122.498 366.2 123.598Z" fill="#FCDD09" stroke="black"/>
<path d="M385.9 123.598C384.8 124.698 385.9 127.598 388.4 129.798C390.9 132.298 393.7 133.398 394.6 132.298C395.7 131.198 394.6 128.498 392.1 126.098C389.8 123.598 387 122.498 385.9 123.598Z" fill="#FCDD09" stroke="black"/>
<path d="M385.9 160.899C384.8 159.799 385.9 157.099 388.4 154.699C390.9 152.199 393.7 151.099 394.6 152.199C395.7 153.299 394.6 156.199 392.1 158.399C389.8 160.699 387 161.799 385.9 160.899Z" fill="#FCDD09" stroke="black"/>
<path d="M366.2 160.899C365.1 161.999 362.2 160.899 360 158.399C357.5 155.899 356.4 153.099 357.5 152.199C358.6 151.099 361.5 152.199 363.7 154.699C366 156.899 367.2 159.799 366.2 160.899Z" fill="#FCDD09" stroke="black"/>
<path d="M368.7 115.697C368.7 114.597 371.3 113.397 374.6 113.097C375.2 113.097 376.1 112.297 376.1 112.297C376.1 112.297 377 113.097 377.4 113.097C380.8 113.297 383.4 114.397 383.4 115.697C383.4 117.197 380 118.297 375.8 118.297C371.9 118.397 368.7 116.997 368.7 115.697Z" fill="#FCDD09" stroke="black"/>
<path d="M383.6 168.803C383.6 169.903 381 171.103 377.7 171.403C377.1 171.403 376.2 172.203 376.2 172.203C376.2 172.203 375.3 171.403 374.9 171.403C371.5 171.203 368.9 170.103 368.9 168.803C368.9 167.303 372.3 166.203 376.5 166.203C380.2 166.203 383.6 167.503 383.6 168.803Z" fill="#FCDD09" stroke="black"/>
<path d="M349.2 149.7C348.1 149.7 346.9 147.1 346.6 143.8C346.6 143.2 345.8 142.3 345.8 142.3C345.8 142.3 346.6 141.4 346.6 141C346.8 137.6 347.9 135 349.2 135C350.7 135 351.8 138.4 351.8 142.4C352 146.3 350.7 149.7 349.2 149.7Z" fill="#FCDD09" stroke="black"/>
<path d="M402.9 134.797C404 134.797 405.2 137.397 405.5 140.697C405.5 141.297 406.3 142.197 406.3 142.197C406.3 142.197 405.5 143.097 405.5 143.497C405.3 146.897 404.2 149.497 402.9 149.497C401.4 149.497 400.3 146.097 400.3 142.097C400.2 138.197 401.4 134.797 402.9 134.797Z" fill="#FCDD09" stroke="black"/>
<path d="M371.9 362.097C371.9 364.397 373.8 366.297 376.1 366.297C378.4 366.297 380.4 364.397 380.4 362.097C380.4 359.797 378.5 357.897 376.1 357.897C373.8 357.697 371.9 359.597 371.9 362.097Z" fill="#FCDD09" stroke="black"/>
<path d="M371.9 295.699C371.9 297.999 373.8 299.899 376.1 299.899C378.4 299.899 380.4 297.999 380.4 295.699C380.4 293.399 378.5 291.499 376.1 291.499C373.8 291.299 371.9 293.199 371.9 295.699Z" fill="#FCDD09" stroke="black"/>
<path d="M391.7 329C391.7 344.3 384.7 356.8 375.8 356.8C367.1 356.8 359.9 344.3 359.9 329C359.9 313.7 366.9 301 375.8 301C384.7 301 391.7 313.5 391.7 329Z" fill="#FCDD09" stroke="black"/>
<path d="M389.3 328.597C389.3 315.397 384 304.597 377.4 303.297C377 303.297 376.1 304.997 376.1 304.997C376.1 304.997 375.2 303.297 374.8 303.297C368.2 304.597 362.9 315.397 362.9 328.597C362.9 328.597 362.9 328.597 362.9 328.797C362.9 328.797 362.9 328.797 362.9 328.997C362.9 342.197 368.2 352.997 374.8 354.297C375.2 354.297 376.1 352.597 376.1 352.597C376.1 352.597 377 354.297 377.4 354.297C384 352.997 389.3 342.197 389.3 328.997C389.3 328.997 389.3 328.997 389.3 328.797C389.3 328.797 389.3 328.797 389.3 328.597Z" fill="#078930" stroke="black"/>
<path d="M396.8 328.998C396.8 327.898 395.9 326.898 394.7 326.898C393.6 326.898 392.6 327.798 392.6 328.998C392.6 330.098 393.5 331.098 394.7 331.098C395.9 330.998 396.8 330.098 396.8 328.998Z" fill="#FCDD09" stroke="black"/>
<path d="M359.4 328.998C359.4 327.898 358.5 326.898 357.3 326.898C356.1 326.898 355.2 327.798 355.2 328.998C355.2 330.098 356.1 331.098 357.3 331.098C358.5 331.098 359.4 330.098 359.4 328.998Z" fill="#FCDD09" stroke="black"/>
<path d="M389.7 353.498C389.7 352.398 388.8 351.398 387.6 351.398C386.4 351.398 385.5 352.298 385.5 353.498C385.5 354.598 386.4 355.598 387.6 355.598C388.8 355.598 389.7 354.698 389.7 353.498Z" fill="#FCDD09" stroke="black"/>
<path d="M366.6 353.498C366.6 352.398 365.7 351.398 364.5 351.398C363.4 351.398 362.4 352.298 362.4 353.498C362.4 354.598 363.3 355.598 364.5 355.598C365.6 355.598 366.6 354.698 366.6 353.498Z" fill="#FCDD09" stroke="black"/>
<path d="M360.9 341.802C360.9 339.502 359 337.602 356.7 337.602C354.4 337.602 352.4 339.502 352.4 341.802C352.4 344.102 354.3 346.002 356.7 346.002C359 346.002 360.9 344.102 360.9 341.802Z" fill="#FCDD09" stroke="black"/>
<path d="M399.7 341.598C399.7 339.298 397.8 337.398 395.5 337.398C393.2 337.398 391.3 339.298 391.3 341.598C391.3 343.898 393.2 345.798 395.5 345.798C397.8 345.798 399.7 343.898 399.7 341.598Z" fill="#FCDD09" stroke="black"/>
<path d="M362.4 304.204C362.4 305.304 363.3 306.304 364.5 306.304C365.6 306.304 366.6 305.404 366.6 304.204C366.6 303.004 365.7 302.104 364.5 302.104C363.4 301.904 362.4 302.904 362.4 304.204Z" fill="#FCDD09" stroke="black"/>
<path d="M385.5 304.204C385.5 305.304 386.4 306.304 387.6 306.304C388.8 306.304 389.7 305.404 389.7 304.204C389.7 303.004 388.8 302.104 387.6 302.104C386.4 301.904 385.5 302.904 385.5 304.204Z" fill="#FCDD09" stroke="black"/>
<path d="M391.2 315.903C391.2 318.203 393.1 320.103 395.4 320.103C397.7 320.103 399.6 318.203 399.6 315.903C399.6 313.603 397.7 311.703 395.4 311.703C393.1 311.703 391.2 313.503 391.2 315.903Z" fill="#FCDD09" stroke="black"/>
<path d="M352.4 315.903C352.4 318.203 354.3 320.103 356.7 320.103C359 320.103 360.9 318.203 360.9 315.903C360.9 313.603 359 311.703 356.7 311.703C354.3 311.803 352.4 313.703 352.4 315.903Z" fill="#FCDD09" stroke="black"/>
<path d="M371.9 735.403C371.9 737.703 373.8 739.603 376.1 739.603C378.4 739.603 380.4 737.703 380.4 735.403C380.4 733.103 378.5 731.203 376.1 731.203C373.8 731.303 371.9 733.203 371.9 735.403Z" fill="#FCDD09" stroke="black"/>
<path d="M371.9 669.098C371.9 671.398 373.8 673.298 376.1 673.298C378.4 673.298 380.4 671.398 380.4 669.098C380.4 666.798 378.5 664.898 376.1 664.898C373.8 664.898 371.9 666.798 371.9 669.098Z" fill="#FCDD09" stroke="black"/>
<path d="M391.7 702.402C391.7 717.702 384.7 730.402 375.8 730.402C367.1 730.402 359.9 717.902 359.9 702.402C359.9 687.102 366.9 674.602 375.8 674.602C384.7 674.602 391.7 687.002 391.7 702.402Z" fill="#FCDD09" stroke="black"/>
<path d="M389.3 702.198C389.3 688.998 384 678.198 377.4 676.898C377 676.898 376.1 678.598 376.1 678.598C376.1 678.598 375.2 676.898 374.8 676.898C368.2 678.198 362.9 688.998 362.9 702.198V702.398C362.9 702.398 362.9 702.398 362.9 702.598C362.9 715.798 368.2 726.598 374.8 727.898C375.2 727.898 376.1 726.198 376.1 726.198C376.1 726.198 377 727.898 377.4 727.898C384 726.598 389.3 715.798 389.3 702.598C389.3 702.598 389.3 702.598 389.3 702.398C389.3 702.198 389.3 702.198 389.3 702.198Z" fill="#078930" stroke="black"/>
<path d="M396.8 702.397C396.8 701.297 395.9 700.297 394.7 700.297C393.6 700.297 392.6 701.197 392.6 702.397C392.6 703.497 393.5 704.497 394.7 704.497C395.9 704.397 396.8 703.497 396.8 702.397Z" fill="#FCDD09" stroke="black"/>
<path d="M359.4 702.397C359.4 701.297 358.5 700.297 357.3 700.297C356.1 700.297 355.2 701.197 355.2 702.397C355.2 703.497 356.1 704.497 357.3 704.497C358.5 704.497 359.4 703.497 359.4 702.397Z" fill="#FCDD09" stroke="black"/>
<path d="M389.7 726.897C389.7 725.797 388.8 724.797 387.6 724.797C386.4 724.797 385.5 725.697 385.5 726.897C385.5 728.097 386.4 728.997 387.6 728.997C388.8 728.997 389.7 728.097 389.7 726.897Z" fill="#FCDD09" stroke="black"/>
<path d="M366.6 726.897C366.6 725.797 365.7 724.797 364.5 724.797C363.4 724.797 362.4 725.697 362.4 726.897C362.4 728.097 363.3 728.997 364.5 728.997C365.6 728.997 366.6 728.097 366.6 726.897Z" fill="#FCDD09" stroke="black"/>
<path d="M360.9 715.2C360.9 712.9 359 711 356.7 711C354.4 711 352.4 712.9 352.4 715.2C352.4 717.5 354.3 719.4 356.7 719.4C359 719.4 360.9 717.5 360.9 715.2Z" fill="#FCDD09" stroke="black"/>
<path d="M399.7 714.997C399.7 712.697 397.8 710.797 395.5 710.797C393.2 710.797 391.3 712.697 391.3 714.997C391.3 717.297 393.2 719.197 395.5 719.197C397.8 719.197 399.7 717.497 399.7 714.997Z" fill="#FCDD09" stroke="black"/>
<path d="M362.4 677.6C362.4 678.7 363.3 679.7 364.5 679.7C365.6 679.7 366.6 678.8 366.6 677.6C366.6 676.5 365.7 675.5 364.5 675.5C363.4 675.5 362.4 676.5 362.4 677.6Z" fill="#FCDD09" stroke="black"/>
<path d="M385.5 677.6C385.5 678.7 386.4 679.7 387.6 679.7C388.8 679.7 389.7 678.8 389.7 677.6C389.7 676.5 388.8 675.5 387.6 675.5C386.4 675.5 385.5 676.5 385.5 677.6Z" fill="#FCDD09" stroke="black"/>
<path d="M391.2 689.302C391.2 691.602 393.1 693.502 395.4 693.502C397.7 693.502 399.6 691.602 399.6 689.302C399.6 687.002 397.7 685.102 395.4 685.102C393.1 685.102 391.2 687.002 391.2 689.302Z" fill="#FCDD09" stroke="black"/>
<path d="M352.4 689.501C352.4 691.801 354.3 693.701 356.7 693.701C359 693.701 360.9 691.801 360.9 689.501C360.9 687.201 359 685.301 356.7 685.301C354.3 685.201 352.4 687.001 352.4 689.501Z" fill="#FCDD09" stroke="black"/>
<path d="M399.5 518.197L376 541.697L352.6 518.197L376 494.797L399.5 518.197Z" fill="#FCDD09" stroke="black"/>
<path d="M354.3 518.603L361.3 525.603H368.7V533.003L375.9 540.003H376.2L383.2 533.003V525.603H390.6L397.8 518.603V518.203L390.6 511.203H383.2V503.803L376.2 496.703H375.9L368.7 503.803V511.203H361.3L354.3 518.203V518.603Z" fill="#DA121A" stroke="black"/>
<path d="M366.2 499.899C367.3 500.999 366.2 503.699 363.7 506.099C361.2 508.599 358.4 509.699 357.5 508.599C356.4 507.499 357.5 504.799 360 502.399C362.2 499.899 365.1 498.699 366.2 499.899Z" fill="#FCDD09" stroke="black"/>
<path d="M385.9 499.699C387 498.599 389.9 499.699 392.1 502.199C394.6 504.699 395.7 507.499 394.6 508.399C393.5 509.499 390.6 508.399 388.4 505.899C385.9 503.699 384.7 500.799 385.9 499.699Z" fill="#FCDD09" stroke="black"/>
<path d="M385.9 536.9C384.8 535.8 385.9 533.1 388.4 530.7C390.9 528.3 393.7 527.1 394.6 528.2C395.7 529.3 394.6 532 392.1 534.4C389.6 536.8 387 538.1 385.9 536.9Z" fill="#FCDD09" stroke="black"/>
<path d="M366.2 536.899C365.1 537.999 362.2 536.899 359.8 534.399C357.3 531.899 356.2 529.099 357.3 528.199C358.4 527.099 361.3 528.199 363.5 530.699C366.2 533.199 367.2 535.999 366.2 536.899Z" fill="#FCDD09" stroke="black"/>
<path d="M368.7 491.697C368.7 490.597 371.3 489.397 374.6 489.097C375.2 489.097 376.1 488.297 376.1 488.297C376.1 488.297 377 489.097 377.4 489.097C380.8 489.297 383.4 490.397 383.4 491.697C383.4 493.197 380 494.297 375.8 494.297C371.9 494.397 368.7 493.297 368.7 491.697Z" fill="#FCDD09" stroke="black"/>
<path d="M383.6 545.098C383.6 546.198 381 547.399 377.7 547.699C377.1 547.699 376.2 548.498 376.2 548.498C376.2 548.498 375.3 547.699 374.9 547.699C371.5 547.499 368.9 546.398 368.9 545.098C368.9 543.598 372.3 542.498 376.5 542.498C380.2 542.398 383.6 543.498 383.6 545.098Z" fill="#FCDD09" stroke="black"/>
<path d="M349.2 525.802C348.1 525.802 346.9 523.202 346.6 519.902C346.6 519.302 345.8 518.402 345.8 518.402C345.8 518.402 346.6 517.502 346.6 517.102C346.8 513.702 347.9 511.102 349.2 511.102C350.7 511.102 351.8 514.502 351.8 518.502C352 522.602 350.7 525.802 349.2 525.802Z" fill="#FCDD09" stroke="black"/>
<path d="M402.9 511C404 511 405.2 513.6 405.5 516.9C405.5 517.5 406.3 518.4 406.3 518.4C406.3 518.4 405.5 519.3 405.5 519.7C405.3 523.1 404.2 525.7 402.9 525.7C401.4 525.7 400.3 522.3 400.3 518.3C400.2 514.2 401.4 511 402.9 511Z" fill="#FCDD09" stroke="black"/>
</g>
<defs>
<clipPath id="clip0_993_192">
<rect width="1276.2" height="847" fill="white"/>
</clipPath>
</defs>
</svg>
