<svg width="700" height="500" viewBox="0 0 700 500" fill="none" xmlns="http://www.w3.org/2000/svg">
<g clip-path="url(#clip0_2022_1226)">
<path d="M700 0H0V500H700V0Z" fill="white"/>
<path d="M300 0H0V200H300V0Z" fill="#001E78"/>
<path d="M700 166.667H0V333.334H700V166.667Z" fill="#D20000"/>
<path d="M157.02 83.3337L150 61.667L142.98 83.3337H157.02Z" fill="white"/>
<path d="M152.169 90.0101L170.606 76.6383L147.831 76.6573L152.169 90.0101Z" fill="white"/>
<path d="M144.321 79.2071L137.265 100.862L155.679 87.4596L144.321 79.2071Z" fill="white"/>
<path d="M144.321 87.4601L162.735 100.863L155.679 79.2076L144.321 87.4601Z" fill="white"/>
<path d="M152.169 76.657L129.393 76.638L147.83 90.0098L152.169 76.657Z" fill="white"/>
<path d="M36.8432 33.3333L33.3332 22.5L29.8232 33.3333H36.8432Z" fill="white"/>
<path d="M34.4179 36.6716L43.6364 29.9857L32.2486 29.9951L34.4179 36.6716Z" fill="white"/>
<path d="M30.4936 31.2705L26.9655 42.098L36.1728 35.3968L30.4936 31.2705Z" fill="white"/>
<path d="M30.4936 35.3971L39.7009 42.0983L36.1729 31.2708L30.4936 35.3971Z" fill="white"/>
<path d="M34.4177 29.9955L23.03 29.986L32.2484 36.6719L34.4177 29.9955Z" fill="white"/>
<path d="M103.51 33.3333L99.9997 22.5L96.4897 33.3333H103.51Z" fill="white"/>
<path d="M101.084 36.6716L110.303 29.9857L98.9151 29.9951L101.084 36.6716Z" fill="white"/>
<path d="M97.1601 31.2705L93.632 42.098L102.839 35.3968L97.1601 31.2705Z" fill="white"/>
<path d="M97.1601 35.3971L106.367 42.0983L102.839 31.2708L97.1601 35.3971Z" fill="white"/>
<path d="M101.084 29.9955L89.6965 29.986L98.9149 36.6719L101.084 29.9955Z" fill="white"/>
<path d="M36.8432 100L33.3332 89.167L29.8232 100H36.8432Z" fill="white"/>
<path d="M34.4179 103.339L43.6364 96.6527L32.2486 96.6621L34.4179 103.339Z" fill="white"/>
<path d="M30.4936 97.9375L26.9655 108.765L36.1728 102.064L30.4936 97.9375Z" fill="white"/>
<path d="M30.4936 102.064L39.7009 108.765L36.1729 97.9378L30.4936 102.064Z" fill="white"/>
<path d="M34.4177 96.6625L23.03 96.653L32.2484 103.339L34.4177 96.6625Z" fill="white"/>
<path d="M103.51 100L99.9997 89.167L96.4897 100H103.51Z" fill="white"/>
<path d="M101.084 103.339L110.303 96.6527L98.9151 96.6621L101.084 103.339Z" fill="white"/>
<path d="M97.1601 97.9375L93.632 108.765L102.839 102.064L97.1601 97.9375Z" fill="white"/>
<path d="M97.1601 102.064L106.367 108.765L102.839 97.9378L97.1601 102.064Z" fill="white"/>
<path d="M101.084 96.6625L89.6965 96.653L98.9149 103.339L101.084 96.6625Z" fill="white"/>
<path d="M36.8432 66.6663L33.3332 55.833L29.8232 66.6663H36.8432Z" fill="white"/>
<path d="M34.4179 70.0046L43.6364 63.3187L32.2486 63.3282L34.4179 70.0046Z" fill="white"/>
<path d="M30.4936 64.6035L26.9655 75.431L36.1728 68.7298L30.4936 64.6035Z" fill="white"/>
<path d="M30.4936 68.7301L39.7009 75.4313L36.1729 64.6038L30.4936 68.7301Z" fill="white"/>
<path d="M34.4177 63.3285L23.03 63.319L32.2484 70.0049L34.4177 63.3285Z" fill="white"/>
<path d="M103.51 66.6663L99.9997 55.833L96.4897 66.6663H103.51Z" fill="white"/>
<path d="M101.084 70.0046L110.303 63.3187L98.9151 63.3282L101.084 70.0046Z" fill="white"/>
<path d="M97.1601 64.6035L93.632 75.431L102.839 68.7298L97.1601 64.6035Z" fill="white"/>
<path d="M97.1601 68.7301L106.367 75.4313L102.839 64.6038L97.1601 68.7301Z" fill="white"/>
<path d="M101.084 63.3285L89.6965 63.319L98.9149 70.0049L101.084 63.3285Z" fill="white"/>
<path d="M36.8432 133.333L33.3332 122.5L29.8232 133.333H36.8432Z" fill="white"/>
<path d="M34.4179 136.672L43.6364 129.986L32.2486 129.995L34.4179 136.672Z" fill="white"/>
<path d="M30.4936 131.271L26.9655 142.098L36.1728 135.397L30.4936 131.271Z" fill="white"/>
<path d="M30.4936 135.397L39.7009 142.098L36.1729 131.271L30.4936 135.397Z" fill="white"/>
<path d="M34.4177 129.995L23.03 129.986L32.2484 136.672L34.4177 129.995Z" fill="white"/>
<path d="M103.51 133.333L99.9997 122.5L96.4897 133.333H103.51Z" fill="white"/>
<path d="M101.084 136.672L110.303 129.986L98.9151 129.995L101.084 136.672Z" fill="white"/>
<path d="M97.1601 131.271L93.632 142.098L102.839 135.397L97.1601 131.271Z" fill="white"/>
<path d="M97.1601 135.397L106.367 142.098L102.839 131.271L97.1601 135.397Z" fill="white"/>
<path d="M101.084 129.995L89.6965 129.986L98.9149 136.672L101.084 129.995Z" fill="white"/>
<path d="M70.1767 33.3333L66.6667 22.5L63.1567 33.3333H70.1767Z" fill="white"/>
<path d="M67.7514 36.6716L76.9699 29.9857L65.5821 29.9951L67.7514 36.6716Z" fill="white"/>
<path d="M63.827 31.2705L60.299 42.098L69.5063 35.3968L63.827 31.2705Z" fill="white"/>
<path d="M63.827 35.3971L73.0344 42.0983L69.5063 31.2708L63.827 35.3971Z" fill="white"/>
<path d="M67.7512 29.9955L56.3635 29.986L65.5819 36.6719L67.7512 29.9955Z" fill="white"/>
<path d="M136.843 33.3333L133.333 22.5L129.823 33.3333H136.843Z" fill="white"/>
<path d="M134.418 36.6716L143.636 29.9857L132.249 29.9951L134.418 36.6716Z" fill="white"/>
<path d="M130.494 31.2705L126.966 42.098L136.173 35.3968L130.494 31.2705Z" fill="white"/>
<path d="M130.494 35.3971L139.701 42.0983L136.173 31.2708L130.494 35.3971Z" fill="white"/>
<path d="M134.418 29.9955L123.03 29.986L132.248 36.6719L134.418 29.9955Z" fill="white"/>
<path d="M70.1767 133.333L66.6667 122.5L63.1567 133.333H70.1767Z" fill="white"/>
<path d="M67.7514 136.672L76.9699 129.986L65.5821 129.995L67.7514 136.672Z" fill="white"/>
<path d="M63.827 131.271L60.299 142.098L69.5063 135.397L63.827 131.271Z" fill="white"/>
<path d="M63.827 135.397L73.0344 142.098L69.5063 131.271L63.827 135.397Z" fill="white"/>
<path d="M67.7512 129.995L56.3635 129.986L65.5819 136.672L67.7512 129.995Z" fill="white"/>
<path d="M136.843 133.333L133.333 122.5L129.823 133.333H136.843Z" fill="white"/>
<path d="M134.418 136.672L143.636 129.986L132.249 129.995L134.418 136.672Z" fill="white"/>
<path d="M130.494 131.271L126.966 142.098L136.173 135.397L130.494 131.271Z" fill="white"/>
<path d="M130.494 135.397L139.701 142.098L136.173 131.271L130.494 135.397Z" fill="white"/>
<path d="M134.418 129.995L123.03 129.986L132.248 136.672L134.418 129.995Z" fill="white"/>
<path d="M263.156 33.3333L266.666 22.5L270.176 33.3333H263.156Z" fill="white"/>
<path d="M265.582 36.6716L256.363 29.9857L267.751 29.9951L265.582 36.6716Z" fill="white"/>
<path d="M269.506 31.2705L273.034 42.098L263.827 35.3968L269.506 31.2705Z" fill="white"/>
<path d="M269.506 35.3971L260.299 42.0983L263.827 31.2708L269.506 35.3971Z" fill="white"/>
<path d="M265.582 29.9955L276.97 29.986L267.751 36.6719L265.582 29.9955Z" fill="white"/>
<path d="M196.49 33.3333L200 22.5L203.51 33.3333H196.49Z" fill="white"/>
<path d="M198.915 36.6716L189.697 29.9857L201.084 29.9951L198.915 36.6716Z" fill="white"/>
<path d="M202.839 31.2705L206.367 42.098L197.16 35.3968L202.839 31.2705Z" fill="white"/>
<path d="M202.839 35.3971L193.632 42.0983L197.16 31.2708L202.839 35.3971Z" fill="white"/>
<path d="M198.915 29.9955L210.303 29.986L201.085 36.6719L198.915 29.9955Z" fill="white"/>
<path d="M263.156 100L266.666 89.167L270.176 100H263.156Z" fill="white"/>
<path d="M265.582 103.339L256.363 96.6527L267.751 96.6621L265.582 103.339Z" fill="white"/>
<path d="M269.506 97.9375L273.034 108.765L263.827 102.064L269.506 97.9375Z" fill="white"/>
<path d="M269.506 102.064L260.299 108.765L263.827 97.9378L269.506 102.064Z" fill="white"/>
<path d="M265.582 96.6625L276.97 96.653L267.751 103.339L265.582 96.6625Z" fill="white"/>
<path d="M196.49 100L200 89.167L203.51 100H196.49Z" fill="white"/>
<path d="M198.915 103.339L189.697 96.6527L201.084 96.6621L198.915 103.339Z" fill="white"/>
<path d="M202.839 97.9375L206.367 108.765L197.16 102.064L202.839 97.9375Z" fill="white"/>
<path d="M202.839 102.064L193.632 108.765L197.16 97.9378L202.839 102.064Z" fill="white"/>
<path d="M198.915 96.6625L210.303 96.653L201.085 103.339L198.915 96.6625Z" fill="white"/>
<path d="M263.156 66.6663L266.666 55.833L270.176 66.6663H263.156Z" fill="white"/>
<path d="M265.582 70.0046L256.363 63.3187L267.751 63.3282L265.582 70.0046Z" fill="white"/>
<path d="M269.506 64.6035L273.034 75.431L263.827 68.7298L269.506 64.6035Z" fill="white"/>
<path d="M269.506 68.7301L260.299 75.4313L263.827 64.6038L269.506 68.7301Z" fill="white"/>
<path d="M265.582 63.3285L276.97 63.319L267.751 70.0049L265.582 63.3285Z" fill="white"/>
<path d="M196.49 66.6663L200 55.833L203.51 66.6663H196.49Z" fill="white"/>
<path d="M198.915 70.0046L189.697 63.3187L201.084 63.3282L198.915 70.0046Z" fill="white"/>
<path d="M202.839 64.6035L206.367 75.431L197.16 68.7298L202.839 64.6035Z" fill="white"/>
<path d="M202.839 68.7301L193.632 75.4313L197.16 64.6038L202.839 68.7301Z" fill="white"/>
<path d="M198.915 63.3285L210.303 63.319L201.085 70.0049L198.915 63.3285Z" fill="white"/>
<path d="M263.156 133.333L266.666 122.5L270.176 133.333H263.156Z" fill="white"/>
<path d="M265.582 136.672L256.363 129.986L267.751 129.995L265.582 136.672Z" fill="white"/>
<path d="M269.506 131.271L273.034 142.098L263.827 135.397L269.506 131.271Z" fill="white"/>
<path d="M269.506 135.397L260.299 142.098L263.827 131.271L269.506 135.397Z" fill="white"/>
<path d="M265.582 129.995L276.97 129.986L267.751 136.672L265.582 129.995Z" fill="white"/>
<path d="M196.49 133.333L200 122.5L203.51 133.333H196.49Z" fill="white"/>
<path d="M198.915 136.672L189.697 129.986L201.084 129.995L198.915 136.672Z" fill="white"/>
<path d="M202.839 131.271L206.367 142.098L197.16 135.397L202.839 131.271Z" fill="white"/>
<path d="M202.839 135.397L193.632 142.098L197.16 131.271L202.839 135.397Z" fill="white"/>
<path d="M198.915 129.995L210.303 129.986L201.085 136.672L198.915 129.995Z" fill="white"/>
<path d="M229.823 33.3333L233.333 22.5L236.843 33.3333H229.823Z" fill="white"/>
<path d="M232.248 36.6716L223.03 29.9857L234.417 29.9951L232.248 36.6716Z" fill="white"/>
<path d="M236.172 31.2705L239.7 42.098L230.493 35.3968L236.172 31.2705Z" fill="white"/>
<path d="M236.172 35.3971L226.965 42.0983L230.493 31.2708L236.172 35.3971Z" fill="white"/>
<path d="M232.248 29.9955L243.636 29.986L234.418 36.6719L232.248 29.9955Z" fill="white"/>
<path d="M163.156 33.3333L166.666 22.5L170.176 33.3333H163.156Z" fill="white"/>
<path d="M165.582 36.6716L156.363 29.9857L167.751 29.9951L165.582 36.6716Z" fill="white"/>
<path d="M169.506 31.2705L173.034 42.098L163.827 35.3968L169.506 31.2705Z" fill="white"/>
<path d="M169.506 35.3971L160.299 42.0983L163.827 31.2708L169.506 35.3971Z" fill="white"/>
<path d="M165.582 29.9955L176.97 29.986L167.751 36.6719L165.582 29.9955Z" fill="white"/>
<path d="M229.823 133.333L233.333 122.5L236.843 133.333H229.823Z" fill="white"/>
<path d="M232.248 136.672L223.03 129.986L234.417 129.995L232.248 136.672Z" fill="white"/>
<path d="M236.172 131.271L239.7 142.098L230.493 135.397L236.172 131.271Z" fill="white"/>
<path d="M236.172 135.397L226.965 142.098L230.493 131.271L236.172 135.397Z" fill="white"/>
<path d="M232.248 129.995L243.636 129.986L234.418 136.672L232.248 129.995Z" fill="white"/>
<path d="M163.156 133.333L166.666 122.5L170.176 133.333H163.156Z" fill="white"/>
<path d="M165.582 136.672L156.363 129.986L167.751 129.995L165.582 136.672Z" fill="white"/>
<path d="M169.506 131.271L173.034 142.098L163.827 135.397L169.506 131.271Z" fill="white"/>
<path d="M169.506 135.397L160.299 142.098L163.827 131.271L169.506 135.397Z" fill="white"/>
<path d="M165.582 129.995L176.97 129.986L167.751 136.672L165.582 129.995Z" fill="white"/>
</g>
<defs>
<clipPath id="clip0_2022_1226">
<rect width="700" height="500" fill="white"/>
</clipPath>
</defs>
</svg>
