<svg width="560" height="392" viewBox="0 0 560 392" fill="none" xmlns="http://www.w3.org/2000/svg"><g clip-path="url(#clip0_2022_423)"><path d="M560 0H0V392H560V0Z" fill="#1FA22E"/><path d="M560 49H0V98H560V49Z" fill="#FFDD00"/><path d="M0 0H196V147H0V0Z" fill="#00519E"/><path d="M111.765 94.7738L98 84.7298L84.2349 94.7738L89.4927 78.5222L75.7277 68.4782H92.7422L98 52.2266L103.258 68.4782H120.272L106.507 78.5222L111.765 94.7738Z" fill="white"/><path d="M57.8071 136.164L39.4537 122.772L21.1002 136.164L28.1106 114.495L9.7572 101.103H32.4433L39.4537 79.4346L46.464 101.103H69.1501L50.7967 114.495L57.8071 136.164Z" fill="white"/><path d="M57.8071 67.5656L39.4537 54.1736L21.1002 67.5656L28.1106 45.8968L9.7572 32.5048H32.4433L39.4537 10.8359L46.464 32.5048H69.1501L50.7967 45.8968L57.8071 67.5656Z" fill="white"/><path d="M174.9 67.5656L156.546 54.1736L138.193 67.5656L145.203 45.8968L126.85 32.5048H149.536L156.546 10.8359L163.557 32.5048H186.243L167.889 45.8968L174.9 67.5656Z" fill="white"/><path d="M174.9 136.164L156.546 122.772L138.193 136.164L145.203 114.495L126.85 101.103H149.536L156.546 79.4346L163.557 101.103H186.243L167.889 114.495L174.9 136.164Z" fill="white"/><path d="M560 147H0V196H560V147Z" fill="#FFDD00"/><path d="M560 245H0V294H560V245Z" fill="#FFDD00"/><path d="M560 343H0V392H560V343Z" fill="#FFDD00"/></g><defs><clipPath id="clip0_2022_423"><rect width="560" height="392" fill="white"/></clipPath></defs></svg>