<svg width="2000" height="1400" viewBox="0 0 2000 1400" fill="none" xmlns="http://www.w3.org/2000/svg">
<g clip-path="url(#clip0_2022_836)">
<path d="M2000 0H0V1400H2000V0Z" fill="black"/>
<path d="M2000 0H666.667V1400H2000V0Z" fill="#F00000"/>
<path d="M1083.33 763.333V637H1109.33L1161.33 721.333V637H1183.33V763.333H1159.33L1107.33 681V763.333H1083.33ZM1211.33 763.333V637H1305.33V658.333H1237.33V686.333H1299.33V707.667H1237.33V742H1307.33V763.333H1211.33ZM1387.33 716.667V695.667H1443.33V746C1437.33 751 1429.33 755.667 1419.33 759.667C1409.33 763.333 1399.33 765.333 1389.33 765.333C1375.33 765.333 1363.33 762.667 1353.33 757C1345.33 751.667 1337.33 743.667 1331.33 733.333C1327.33 723 1325.33 711.667 1325.33 699.667C1325.33 686.667 1327.33 675 1333.33 664.667C1339.33 654.333 1347.33 646.667 1357.33 641C1365.33 637 1375.33 635 1387.33 635C1403.33 635 1415.33 638 1423.33 644.667C1433.33 651.333 1439.33 660.333 1441.33 672L1415.33 676.667C1413.33 670.667 1411.33 665.667 1405.33 662C1401.33 658.333 1395.33 656.667 1387.33 656.667C1375.33 656.667 1367.33 660 1361.33 667C1353.33 674.333 1351.33 684.667 1351.33 698.667C1351.33 713.667 1353.33 725 1361.33 732.333C1367.33 740 1375.33 743.667 1387.33 743.667C1393.33 743.667 1397.33 742.667 1403.33 740.667C1409.33 738.333 1413.33 735.667 1417.33 733V716.667H1387.33ZM1461.33 701C1461.33 688 1463.33 677.333 1467.33 668.667C1469.33 662 1473.33 656.333 1479.33 651C1483.33 646 1489.33 642.333 1495.33 640C1503.33 636.667 1511.33 635 1521.33 635C1541.33 635 1555.33 640.667 1567.33 652C1577.33 663.667 1583.33 679.667 1583.33 700.333C1583.33 720.667 1577.33 736.667 1567.33 748C1555.33 759.667 1541.33 765.333 1523.33 765.333C1503.33 765.333 1489.33 759.667 1477.33 748C1467.33 736.667 1461.33 721 1461.33 701ZM1487.33 700C1487.33 714.333 1491.33 725 1497.33 732.667C1503.33 740 1511.33 743.667 1521.33 743.667C1533.33 743.667 1541.33 740 1547.33 732.667C1553.33 725.333 1557.33 714.333 1557.33 699.667C1557.33 685 1553.33 674.333 1547.33 667.333C1541.33 660 1533.33 656.667 1521.33 656.667C1511.33 656.667 1503.33 660 1497.33 667.667C1491.33 674.667 1487.33 685.667 1487.33 700Z" fill="white"/>
</g>
<defs>
<clipPath id="clip0_2022_836">
<rect width="2000" height="1400" fill="white"/>
</clipPath>
</defs>
</svg>
