<svg width="540" height="360" viewBox="0 0 540 360" fill="none" xmlns="http://www.w3.org/2000/svg"><g clip-path="url(#clip0_2022_1895)"><path d="M0 0H540V216H0V0Z" fill="#3155A4"/><path d="M69 270C69 216.691 90.1767 165.566 127.872 127.872C165.566 90.1767 216.691 69 270 69C323.309 69 374.434 90.1767 412.128 127.872C449.823 165.566 471 216.691 471 270" stroke="#C34342" stroke-width="12"/><path d="M81 270C81 219.874 100.912 171.801 136.357 136.357C171.801 100.912 219.874 81 270 81C320.126 81 368.199 100.912 403.643 136.357C439.088 171.801 459 219.874 459 270" stroke="#FFB511" stroke-width="12"/><path d="M93 270C93 223.057 111.648 178.036 144.842 144.842C178.036 111.648 223.057 93 270 93C293.244 93 316.26 97.5782 337.735 106.473C359.21 115.368 378.722 128.406 395.158 144.842C428.352 178.036 447 223.057 447 270" stroke="#00AD4A" stroke-width="12"/><path d="M0 216H540V360H0V216Z" fill="white"/><path d="M270 243V333M243 274.5H297" stroke="#C34342" stroke-width="12"/><path d="M270 126L272.937 135.192L278.153 127.073L278.61 136.713L285.75 130.22L283.697 139.65L292.274 135.226L287.85 143.803L297.28 141.75L290.787 148.89L300.427 149.347L292.307 154.563L301.5 157.5L292.307 160.437L300.427 165.653L290.787 166.11L297.28 173.25L287.85 171.197L292.274 179.774L283.697 175.35L285.75 184.78L278.61 178.287L278.153 187.927L272.937 179.808L270 189L267.063 179.808L261.847 187.927L261.39 178.287L254.25 184.78L256.303 175.35L247.726 179.774L252.15 171.197L242.72 173.25L249.213 166.11L239.573 165.653L247.692 160.437L238.5 157.5L247.692 154.563L239.573 149.347L249.213 148.89L242.72 141.75L252.15 143.803L247.726 135.226L256.303 139.65L254.25 130.22L261.39 136.713L261.847 127.073L267.063 135.192L270 126Z" fill="#FFB511"/><path d="M270 18L278.773 45L255.805 28.3131H284.195L261.227 45L270 18Z" fill="#FFB511"/></g><defs><clipPath id="clip0_2022_1895"><rect width="540" height="360" fill="white"/></clipPath></defs></svg>