<svg width="1950" height="1300" viewBox="0 0 1950 1300" fill="none" xmlns="http://www.w3.org/2000/svg"><g clip-path="url(#clip0_2022_1787)"><path d="M1950 0H0V1300H1950V0Z" fill="#FFD500"/><path d="M100 0H0V100H100V0Z" fill="#56A134"/><path d="M100 200H0V300H100V200Z" fill="#56A134"/><path d="M100 400H0V500H100V400Z" fill="#56A134"/><path d="M100 600H0V700H100V600Z" fill="#56A134"/><path d="M100 800H0V900H100V800Z" fill="#56A134"/><path d="M100 1000H0V1100H100V1000Z" fill="#56A134"/><path d="M100 1200H0V1300H100V1200Z" fill="#56A134"/><path d="M750 0H0V500H750V0Z" fill="#0B1097"/><path d="M68.8916 470H63.6182V436.396C62.3486 437.607 60.6787 438.818 58.6084 440.029C56.5576 441.24 54.7119 442.148 53.0713 442.754V437.656C56.0205 436.27 58.5986 434.59 60.8057 432.617C63.0127 430.645 64.5752 428.73 65.4932 426.875H68.8916V470ZM82.4268 458.662L87.7002 457.959C88.3057 460.947 89.3311 463.105 90.7764 464.434C92.2412 465.742 94.0186 466.396 96.1084 466.396C98.5889 466.396 100.679 465.537 102.378 463.818C104.097 462.1 104.956 459.971 104.956 457.432C104.956 455.01 104.165 453.018 102.583 451.455C101.001 449.873 98.9893 449.082 96.5479 449.082C95.5518 449.082 94.3115 449.277 92.8271 449.668L93.4131 445.039C93.7646 445.078 94.0479 445.098 94.2627 445.098C96.5088 445.098 98.5303 444.512 100.327 443.34C102.124 442.168 103.022 440.361 103.022 437.92C103.022 435.986 102.368 434.385 101.06 433.115C99.751 431.846 98.0615 431.211 95.9912 431.211C93.9404 431.211 92.2314 431.855 90.8643 433.145C89.4971 434.434 88.6182 436.367 88.2275 438.945L82.9541 438.008C83.5986 434.473 85.0635 431.738 87.3486 429.805C89.6338 427.852 92.4756 426.875 95.874 426.875C98.2178 426.875 100.376 427.383 102.349 428.398C104.321 429.395 105.825 430.762 106.86 432.5C107.915 434.238 108.442 436.084 108.442 438.037C108.442 439.893 107.944 441.582 106.948 443.105C105.952 444.629 104.478 445.84 102.524 446.738C105.063 447.324 107.036 448.545 108.442 450.4C109.849 452.236 110.552 454.541 110.552 457.314C110.552 461.064 109.185 464.248 106.45 466.865C103.716 469.463 100.259 470.762 96.0791 470.762C92.3096 470.762 89.1748 469.639 86.6748 467.393C84.1943 465.146 82.7783 462.236 82.4268 458.662ZM134.575 470V427.051H149.37C152.71 427.051 155.259 427.256 157.017 427.666C159.478 428.232 161.577 429.258 163.315 430.742C165.581 432.656 167.271 435.107 168.384 438.096C169.517 441.064 170.083 444.463 170.083 448.291C170.083 451.553 169.702 454.443 168.94 456.963C168.179 459.482 167.202 461.572 166.011 463.232C164.819 464.873 163.511 466.172 162.085 467.129C160.679 468.066 158.97 468.779 156.958 469.268C154.966 469.756 152.671 470 150.073 470H134.575ZM140.259 464.932H149.429C152.261 464.932 154.478 464.668 156.079 464.141C157.7 463.613 158.989 462.871 159.946 461.914C161.294 460.566 162.339 458.76 163.081 456.494C163.843 454.209 164.224 451.445 164.224 448.203C164.224 443.711 163.481 440.264 161.997 437.861C160.532 435.439 158.745 433.818 156.636 432.998C155.112 432.412 152.661 432.119 149.282 432.119H140.259V464.932ZM178.022 470V427.051H209.077V432.119H183.706V445.273H207.466V450.312H183.706V464.932H210.073V470H178.022ZM234.419 470V427.051H242.974L253.14 457.461C254.077 460.293 254.761 462.412 255.19 463.818C255.679 462.256 256.44 459.961 257.476 456.934L267.759 427.051H275.405V470H269.927V434.053L257.446 470H252.319L239.897 433.438V470H234.419ZM279.858 470L296.353 427.051H302.476L320.054 470H313.579L308.569 456.992H290.61L285.894 470H279.858ZM292.251 452.363H306.812L302.329 440.469C300.962 436.855 299.946 433.887 299.282 431.562C298.735 434.316 297.964 437.051 296.968 439.766L292.251 452.363ZM324.683 470V427.051H343.726C347.554 427.051 350.464 427.441 352.456 428.223C354.448 428.984 356.04 430.342 357.231 432.295C358.423 434.248 359.019 436.406 359.019 438.77C359.019 441.816 358.032 444.385 356.06 446.475C354.087 448.564 351.04 449.893 346.919 450.459C348.423 451.182 349.565 451.895 350.347 452.598C352.007 454.121 353.579 456.025 355.063 458.311L362.534 470H355.386L349.702 461.064C348.042 458.486 346.675 456.514 345.601 455.146C344.526 453.779 343.56 452.822 342.7 452.275C341.86 451.729 341.001 451.348 340.122 451.133C339.478 450.996 338.423 450.928 336.958 450.928H330.366V470H324.683ZM330.366 446.006H342.583C345.181 446.006 347.212 445.742 348.677 445.215C350.142 444.668 351.255 443.809 352.017 442.637C352.778 441.445 353.159 440.156 353.159 438.77C353.159 436.738 352.417 435.068 350.933 433.76C349.468 432.451 347.144 431.797 343.96 431.797H330.366V446.006ZM398.569 454.941L404.253 456.377C403.062 461.045 400.913 464.609 397.808 467.07C394.722 469.512 390.942 470.732 386.47 470.732C381.841 470.732 378.071 469.795 375.161 467.92C372.271 466.025 370.063 463.291 368.54 459.717C367.036 456.143 366.284 452.305 366.284 448.203C366.284 443.73 367.134 439.834 368.833 436.514C370.552 433.174 372.983 430.645 376.128 428.926C379.292 427.188 382.769 426.318 386.558 426.318C390.854 426.318 394.468 427.412 397.397 429.6C400.327 431.787 402.368 434.863 403.521 438.828L397.925 440.146C396.929 437.021 395.483 434.746 393.589 433.32C391.694 431.895 389.312 431.182 386.44 431.182C383.14 431.182 380.376 431.973 378.149 433.555C375.942 435.137 374.39 437.266 373.491 439.941C372.593 442.598 372.144 445.342 372.144 448.174C372.144 451.826 372.671 455.02 373.726 457.754C374.8 460.469 376.46 462.5 378.706 463.848C380.952 465.195 383.384 465.869 386.001 465.869C389.185 465.869 391.88 464.951 394.087 463.115C396.294 461.279 397.788 458.555 398.569 454.941ZM381.46 474.512L382.983 469.326H386.909L385.942 472.461C387.603 472.656 388.853 473.164 389.692 473.984C390.532 474.824 390.952 475.752 390.952 476.768C390.952 478.232 390.249 479.521 388.843 480.635C387.437 481.768 385.317 482.334 382.485 482.334C380.884 482.334 379.478 482.217 378.267 481.982L378.589 478.555C379.839 478.633 380.757 478.672 381.343 478.672C383.179 478.672 384.468 478.418 385.21 477.91C385.776 477.52 386.06 477.041 386.06 476.475C386.06 476.123 385.942 475.811 385.708 475.537C385.493 475.264 385.083 475.029 384.478 474.834C383.872 474.639 382.866 474.531 381.46 474.512ZM409.526 449.082C409.526 441.953 411.44 436.377 415.269 432.354C419.097 428.311 424.038 426.289 430.093 426.289C434.058 426.289 437.632 427.236 440.815 429.131C443.999 431.025 446.421 433.672 448.081 437.07C449.761 440.449 450.601 444.287 450.601 448.584C450.601 452.939 449.722 456.836 447.964 460.273C446.206 463.711 443.716 466.318 440.493 468.096C437.271 469.854 433.794 470.732 430.063 470.732C426.021 470.732 422.407 469.756 419.224 467.803C416.04 465.85 413.628 463.184 411.987 459.805C410.347 456.426 409.526 452.852 409.526 449.082ZM415.386 449.17C415.386 454.346 416.772 458.428 419.546 461.416C422.339 464.385 425.835 465.869 430.034 465.869C434.312 465.869 437.827 464.365 440.581 461.357C443.354 458.35 444.741 454.082 444.741 448.555C444.741 445.059 444.146 442.012 442.954 439.414C441.782 436.797 440.054 434.775 437.769 433.35C435.503 431.904 432.954 431.182 430.122 431.182C426.099 431.182 422.632 432.568 419.722 435.342C416.831 438.096 415.386 442.705 415.386 449.17ZM474.595 470V427.051H489.39C492.729 427.051 495.278 427.256 497.036 427.666C499.497 428.232 501.597 429.258 503.335 430.742C505.601 432.656 507.29 435.107 508.403 438.096C509.536 441.064 510.103 444.463 510.103 448.291C510.103 451.553 509.722 454.443 508.96 456.963C508.198 459.482 507.222 461.572 506.03 463.232C504.839 464.873 503.53 466.172 502.104 467.129C500.698 468.066 498.989 468.779 496.978 469.268C494.985 469.756 492.69 470 490.093 470H474.595ZM480.278 464.932H489.448C492.28 464.932 494.497 464.668 496.099 464.141C497.72 463.613 499.009 462.871 499.966 461.914C501.313 460.566 502.358 458.76 503.101 456.494C503.862 454.209 504.243 451.445 504.243 448.203C504.243 443.711 503.501 440.264 502.017 437.861C500.552 435.439 498.765 433.818 496.655 432.998C495.132 432.412 492.681 432.119 489.302 432.119H480.278V464.932ZM518.042 470V427.051H549.097V432.119H523.726V445.273H547.485V450.312H523.726V464.932H550.093V470H518.042ZM592.339 470H587.065V436.396C585.796 437.607 584.126 438.818 582.056 440.029C580.005 441.24 578.159 442.148 576.519 442.754V437.656C579.468 436.27 582.046 434.59 584.253 432.617C586.46 430.645 588.022 428.73 588.94 426.875H592.339V470ZM613.96 446.709C611.772 445.908 610.151 444.766 609.097 443.281C608.042 441.797 607.515 440.02 607.515 437.949C607.515 434.824 608.638 432.197 610.884 430.068C613.13 427.939 616.118 426.875 619.849 426.875C623.599 426.875 626.616 427.969 628.901 430.156C631.187 432.324 632.329 434.971 632.329 438.096C632.329 440.088 631.802 441.826 630.747 443.311C629.712 444.775 628.13 445.908 626.001 446.709C628.638 447.568 630.64 448.955 632.007 450.869C633.394 452.783 634.087 455.068 634.087 457.725C634.087 461.396 632.788 464.482 630.19 466.982C627.593 469.482 624.175 470.732 619.937 470.732C615.698 470.732 612.28 469.482 609.683 466.982C607.085 464.463 605.786 461.328 605.786 457.578C605.786 454.785 606.489 452.451 607.896 450.576C609.321 448.682 611.343 447.393 613.96 446.709ZM612.905 437.773C612.905 439.805 613.56 441.465 614.868 442.754C616.177 444.043 617.876 444.688 619.966 444.688C621.997 444.688 623.657 444.053 624.946 442.783C626.255 441.494 626.909 439.922 626.909 438.066C626.909 436.133 626.235 434.512 624.888 433.203C623.56 431.875 621.899 431.211 619.907 431.211C617.896 431.211 616.226 431.855 614.897 433.145C613.569 434.434 612.905 435.977 612.905 437.773ZM611.206 457.607C611.206 459.111 611.558 460.566 612.261 461.973C612.983 463.379 614.048 464.473 615.454 465.254C616.86 466.016 618.374 466.396 619.995 466.396C622.515 466.396 624.595 465.586 626.235 463.965C627.876 462.344 628.696 460.283 628.696 457.783C628.696 455.244 627.847 453.145 626.147 451.484C624.468 449.824 622.358 448.994 619.819 448.994C617.339 448.994 615.278 449.814 613.638 451.455C612.017 453.096 611.206 455.146 611.206 457.607ZM666.929 464.932V470H638.54C638.501 468.73 638.706 467.51 639.155 466.338C639.878 464.404 641.03 462.5 642.612 460.625C644.214 458.75 646.519 456.582 649.526 454.121C654.194 450.293 657.349 447.266 658.989 445.039C660.63 442.793 661.45 440.674 661.45 438.682C661.45 436.592 660.698 434.834 659.194 433.408C657.71 431.963 655.767 431.24 653.364 431.24C650.825 431.24 648.794 432.002 647.271 433.525C645.747 435.049 644.976 437.158 644.956 439.854L639.536 439.297C639.907 435.254 641.304 432.178 643.726 430.068C646.147 427.939 649.399 426.875 653.481 426.875C657.603 426.875 660.864 428.018 663.267 430.303C665.669 432.588 666.87 435.42 666.87 438.799C666.87 440.518 666.519 442.207 665.815 443.867C665.112 445.527 663.94 447.275 662.3 449.111C660.679 450.947 657.974 453.467 654.185 456.67C651.021 459.326 648.989 461.133 648.091 462.09C647.192 463.027 646.45 463.975 645.864 464.932H666.929ZM672.612 458.662L677.886 457.959C678.491 460.947 679.517 463.105 680.962 464.434C682.427 465.742 684.204 466.396 686.294 466.396C688.774 466.396 690.864 465.537 692.563 463.818C694.282 462.1 695.142 459.971 695.142 457.432C695.142 455.01 694.351 453.018 692.769 451.455C691.187 449.873 689.175 449.082 686.733 449.082C685.737 449.082 684.497 449.277 683.013 449.668L683.599 445.039C683.95 445.078 684.233 445.098 684.448 445.098C686.694 445.098 688.716 444.512 690.513 443.34C692.31 442.168 693.208 440.361 693.208 437.92C693.208 435.986 692.554 434.385 691.245 433.115C689.937 431.846 688.247 431.211 686.177 431.211C684.126 431.211 682.417 431.855 681.05 433.145C679.683 434.434 678.804 436.367 678.413 438.945L673.14 438.008C673.784 434.473 675.249 431.738 677.534 429.805C679.819 427.852 682.661 426.875 686.06 426.875C688.403 426.875 690.562 427.383 692.534 428.398C694.507 429.395 696.011 430.762 697.046 432.5C698.101 434.238 698.628 436.084 698.628 438.037C698.628 439.893 698.13 441.582 697.134 443.105C696.138 444.629 694.663 445.84 692.71 446.738C695.249 447.324 697.222 448.545 698.628 450.4C700.034 452.236 700.737 454.541 700.737 457.314C700.737 461.064 699.37 464.248 696.636 466.865C693.901 469.463 690.444 470.762 686.265 470.762C682.495 470.762 679.36 469.639 676.86 467.393C674.38 465.146 672.964 462.236 672.612 458.662Z" fill="white"/><path d="M375 25L313.197 215.211L408.302 246.113L375 25Z" fill="white"/><path d="M375 25L436.803 215.211L341.698 246.113L375 25Z" fill="white"/><path d="M565.211 163.196H365.211V263.196L565.211 163.196Z" fill="white"/><path d="M565.211 163.196L403.408 280.753L344.629 199.852L565.211 163.196Z" fill="white"/><path d="M184.789 163.197L346.592 280.754L405.371 199.853L184.789 163.197Z" fill="white"/><path d="M184.789 163.197H384.789V263.197L184.789 163.197Z" fill="white"/><path d="M492.557 386.804L430.754 196.592L335.648 227.494L492.557 386.804Z" fill="white"/><path d="M492.557 386.804L330.754 269.247L389.532 188.345L492.557 386.804Z" fill="white"/><path d="M257.443 386.803L419.246 269.246L360.468 188.344L257.443 386.803Z" fill="white"/><path d="M257.443 386.803L319.246 196.591L414.352 227.493L257.443 386.803Z" fill="white"/></g><defs><clipPath id="clip0_2022_1787"><rect width="1950" height="1300" fill="white"/></clipPath></defs></svg>