<svg width="780" height="520" viewBox="0 0 780 520" fill="none" xmlns="http://www.w3.org/2000/svg">
<g clip-path="url(#clip0_2022_1816)">
<path d="M780 0H0V520H780V0Z" fill="white"/>
<path d="M390 0V520" stroke="#212125" stroke-width="780" stroke-dasharray="40 40"/>
<path d="M0 0L306 204H0V0Z" fill="white"/>
<path d="M300 0H0V200H300V0Z" fill="#C40008"/>
<path d="M40 10L30.7295 38.5317L44.9953 43.167L40 10Z" fill="#FFEC00"/>
<path d="M40 10L49.2705 38.5317L35.0047 43.167L40 10Z" fill="#FFEC00"/>
<path d="M68.5317 30.7285H38.5317V45.7285L68.5317 30.7285Z" fill="#FFEC00"/>
<path d="M68.5317 30.7285L44.2612 48.3621L35.4444 36.2268L68.5317 30.7285Z" fill="#FFEC00"/>
<path d="M22.3664 64.2695L46.637 46.636L37.8202 34.5007L22.3664 64.2695Z" fill="#FFEC00"/>
<path d="M22.3664 64.2695L31.6369 35.7378L45.9028 40.3731L22.3664 64.2695Z" fill="#FFEC00"/>
<path d="M57.6338 64.2695L48.3633 35.7378L34.0974 40.3731L57.6338 64.2695Z" fill="#FFEC00"/>
<path d="M57.6338 64.2695L33.3633 46.636L42.18 34.5007L57.6338 64.2695Z" fill="#FFEC00"/>
<path d="M11.4685 30.7295L35.739 48.3631L44.5558 36.2278L11.4685 30.7295Z" fill="#FFEC00"/>
<path d="M11.4685 30.7295H41.4685V45.7295L11.4685 30.7295Z" fill="#FFEC00"/>
<path d="M40 130L30.7295 158.532L44.9953 163.167L40 130Z" fill="#FFEC00"/>
<path d="M40 130L49.2705 158.532L35.0047 163.167L40 130Z" fill="#FFEC00"/>
<path d="M68.5317 150.729H38.5317V165.729L68.5317 150.729Z" fill="#FFEC00"/>
<path d="M68.5317 150.729L44.2612 168.362L35.4444 156.227L68.5317 150.729Z" fill="#FFEC00"/>
<path d="M22.3664 184.27L46.637 166.636L37.8202 154.501L22.3664 184.27Z" fill="#FFEC00"/>
<path d="M22.3664 184.27L31.6369 155.738L45.9028 160.373L22.3664 184.27Z" fill="#FFEC00"/>
<path d="M57.6338 184.27L48.3633 155.738L34.0974 160.373L57.6338 184.27Z" fill="#FFEC00"/>
<path d="M57.6338 184.27L33.3633 166.636L42.18 154.501L57.6338 184.27Z" fill="#FFEC00"/>
<path d="M11.4685 150.729L35.739 168.363L44.5558 156.228L11.4685 150.729Z" fill="#FFEC00"/>
<path d="M11.4685 150.729H41.4685V165.729L11.4685 150.729Z" fill="#FFEC00"/>
<path d="M260 10L250.729 38.5317L264.995 43.167L260 10Z" fill="#FFEC00"/>
<path d="M260 10L269.27 38.5317L255.005 43.167L260 10Z" fill="#FFEC00"/>
<path d="M288.532 30.7285H258.532V45.7285L288.532 30.7285Z" fill="#FFEC00"/>
<path d="M288.532 30.7285L264.261 48.3621L255.444 36.2268L288.532 30.7285Z" fill="#FFEC00"/>
<path d="M242.366 64.2695L266.637 46.636L257.82 34.5007L242.366 64.2695Z" fill="#FFEC00"/>
<path d="M242.366 64.2695L251.637 35.7378L265.903 40.3731L242.366 64.2695Z" fill="#FFEC00"/>
<path d="M277.634 64.2695L268.363 35.7378L254.097 40.3731L277.634 64.2695Z" fill="#FFEC00"/>
<path d="M277.634 64.2695L253.363 46.636L262.18 34.5007L277.634 64.2695Z" fill="#FFEC00"/>
<path d="M231.469 30.7295L255.739 48.3631L264.556 36.2278L231.469 30.7295Z" fill="#FFEC00"/>
<path d="M231.469 30.7295H261.469V45.7295L231.469 30.7295Z" fill="#FFEC00"/>
<path d="M260 130L250.729 158.532L264.995 163.167L260 130Z" fill="#FFEC00"/>
<path d="M260 130L269.27 158.532L255.005 163.167L260 130Z" fill="#FFEC00"/>
<path d="M288.532 150.729H258.532V165.729L288.532 150.729Z" fill="#FFEC00"/>
<path d="M288.532 150.729L264.261 168.362L255.444 156.227L288.532 150.729Z" fill="#FFEC00"/>
<path d="M242.366 184.27L266.637 166.636L257.82 154.501L242.366 184.27Z" fill="#FFEC00"/>
<path d="M242.366 184.27L251.637 155.738L265.903 160.373L242.366 184.27Z" fill="#FFEC00"/>
<path d="M277.634 184.271L268.363 155.739L254.097 160.374L277.634 184.271Z" fill="#FFEC00"/>
<path d="M277.634 184.271L253.363 166.637L262.18 154.502L277.634 184.271Z" fill="#FFEC00"/>
<path d="M231.468 150.729L255.739 168.363L264.556 156.228L231.468 150.729Z" fill="#FFEC00"/>
<path d="M231.468 150.729H261.468V165.729L231.468 150.729Z" fill="#FFEC00"/>
<path d="M150 180C194.183 180 230 144.183 230 100C230 55.8172 194.183 20 150 20C105.817 20 70 55.8172 70 100C70 144.183 105.817 180 150 180Z" fill="white"/>
<path d="M87.6384 87.1934C87.824 87.5646 88.1952 87.7502 88.4736 88.0286C88.6592 88.307 88.8448 88.6782 89.0304 89.0494C89.216 89.4206 89.5872 89.699 89.5872 90.0702C89.5872 90.3486 89.1232 90.5342 89.0304 90.8126C89.0304 90.9982 89.0304 91.1838 89.1232 91.4622L89.4016 91.7406C89.7728 91.7406 89.8656 91.3694 90.144 91.1838H90.608C90.7936 91.2766 90.7936 91.6478 90.9792 91.6478C91.072 91.7406 91.2576 91.3694 91.4432 91.4622C91.6288 91.4622 91.8144 91.555 91.9072 91.7406C92.1856 92.1118 92.0928 92.5758 92.3712 92.947C92.5568 93.2254 92.928 93.3182 93.2992 93.411C93.5776 93.411 93.9488 93.3182 94.1344 93.1326C94.4128 92.8542 94.4128 92.483 94.5984 92.2974C94.784 92.1118 95.0624 92.2046 95.248 92.1118C95.4336 92.019 95.6192 91.8334 95.8976 91.7406C95.9904 91.6478 96.2688 91.3694 96.3616 91.4622C96.64 91.8334 96.5472 92.2974 96.5472 92.6686C96.64 93.7822 96.2688 94.9886 96.64 96.0094C96.7328 96.3806 97.2896 96.2878 97.6608 96.195C98.032 96.1022 98.3104 95.731 98.6816 95.731C99.1456 95.6382 99.6096 95.731 99.9808 95.731C100.538 95.8238 101.187 95.8238 101.744 95.8238C102.394 95.9166 103.043 96.0094 103.693 95.8238C103.971 95.8238 104.25 95.4526 104.342 95.1742C104.528 94.9886 104.342 94.6174 104.528 94.4318C104.621 94.339 104.992 94.339 105.178 94.339C105.363 94.339 105.456 94.6174 105.549 94.5246C105.92 94.4318 106.198 94.1534 106.384 93.9678C106.662 93.6894 106.755 93.2254 107.034 93.0398C107.219 92.947 107.405 93.3182 107.498 93.2254C107.776 93.0398 107.869 92.6686 108.054 92.3902C108.333 92.1118 108.704 91.8334 108.982 91.7406C109.446 91.555 110.003 91.4622 110.467 91.3694C110.746 91.3694 110.931 91.2766 111.21 91.2766C111.488 91.2766 111.766 91.3694 112.045 91.3694C112.23 91.3694 112.416 91.1838 112.602 91.1838C112.694 91.091 112.88 90.9054 112.973 91.091C113.251 91.3694 113.344 91.9262 113.344 92.2974C113.344 92.6686 112.973 92.8542 112.973 93.1326C112.88 93.5038 112.973 93.875 113.066 94.1534C113.158 94.4318 113.437 94.5246 113.53 94.803C113.622 95.0814 113.622 95.3598 113.53 95.6382C113.437 95.8238 113.066 95.731 113.066 95.9166C113.066 96.2878 113.251 96.5662 113.344 96.8446C113.53 97.2158 113.53 97.587 113.808 97.9582C114.086 98.4222 114.458 98.8862 114.922 99.1646C115.293 99.443 115.757 99.443 116.128 99.6286C116.314 99.8142 116.221 100.278 116.499 100.464C116.778 100.649 117.149 100.649 117.427 100.557C117.798 100.557 118.077 100.464 118.355 100.371C118.448 100.371 118.541 100.185 118.726 100.185C119.098 100.278 119.562 100.557 119.933 100.742C120.211 100.928 120.304 101.299 120.582 101.485C120.861 101.577 121.139 101.392 121.325 101.577C121.696 101.67 121.882 102.134 122.253 102.227C122.531 102.413 122.902 102.505 123.181 102.505C123.366 102.598 123.645 102.413 123.83 102.598C124.202 102.877 124.387 103.433 124.851 103.712C125.13 103.897 125.594 103.99 126.058 103.897C126.243 103.805 126.243 103.341 126.522 103.341C126.893 103.248 127.171 103.526 127.542 103.619C127.821 103.805 128.099 103.99 128.378 104.176C128.749 104.361 129.306 104.454 129.491 104.825C129.677 105.104 129.306 105.568 129.398 105.939C129.491 106.403 129.862 106.774 130.048 107.238C130.141 107.517 130.048 107.981 130.048 108.352C130.048 108.445 130.141 108.537 130.048 108.63C129.77 108.723 129.491 108.537 129.306 108.63C129.213 108.723 129.306 109.001 129.398 109.094C129.491 109.28 129.77 109.373 129.862 109.651C130.048 110.022 130.141 110.486 130.141 110.95C130.234 111.321 130.141 111.693 130.234 111.971C130.326 112.342 130.605 112.713 130.883 112.806C131.626 112.992 132.461 112.806 133.296 112.806C134.038 112.899 134.781 112.899 135.523 112.899C135.709 112.992 136.173 112.713 136.173 112.992C136.266 113.27 135.709 113.456 135.616 113.827C135.616 114.105 135.894 114.291 135.987 114.477C136.173 114.848 136.173 115.312 136.358 115.59C136.544 115.869 136.822 115.961 137.101 116.147C137.379 116.425 137.565 116.704 137.843 116.982C138.122 117.261 138.4 117.632 138.586 118.003C138.771 118.374 138.771 118.745 138.771 119.209C138.771 119.581 138.678 119.952 138.493 120.323C138.4 120.787 138.122 121.251 137.936 121.715C137.843 122.272 137.658 122.736 137.472 123.2C137.379 123.478 137.101 123.849 137.194 124.128C137.286 124.406 137.658 124.406 137.843 124.499C137.936 124.685 138.029 124.87 137.936 124.963C137.843 125.149 137.565 124.963 137.379 125.149C137.194 125.334 137.101 125.705 137.194 125.984C137.194 126.355 137.472 126.633 137.565 127.005C137.658 127.19 137.75 127.376 137.843 127.654C137.936 127.84 138.122 128.025 138.122 128.304C138.214 128.675 138.214 129.046 138.122 129.51C138.122 129.696 138.029 129.881 137.936 130.16C137.936 130.345 138.029 130.624 138.029 130.809C138.029 131.088 137.843 131.366 137.843 131.645C137.843 131.923 137.843 132.294 138.122 132.48C138.4 132.573 138.678 132.201 138.957 132.201C139.235 132.201 139.606 132.294 139.978 132.294C140.256 132.387 140.627 132.294 140.906 132.387C141.184 132.387 141.37 132.573 141.555 132.573C141.741 132.665 142.019 132.758 142.205 132.758C142.39 132.665 142.39 132.109 142.669 132.201C142.947 132.201 142.947 132.665 143.226 132.851C143.597 133.037 144.154 132.851 144.525 133.037C144.803 133.315 144.989 133.872 145.082 134.243C145.36 134.985 145.36 135.635 145.546 136.377C145.638 136.749 145.638 137.305 146.01 137.584C146.195 137.769 146.659 137.769 147.03 137.862C147.494 137.862 147.958 137.677 148.33 137.769C148.701 137.862 149.258 138.048 149.35 138.419C149.536 138.883 148.979 139.347 148.979 139.811C148.979 140.182 149.258 140.461 149.165 140.832C149.165 141.11 148.886 141.389 148.886 141.76C148.794 141.945 149.165 142.038 149.072 142.224C148.979 142.409 148.701 142.317 148.608 142.502C148.515 142.688 148.515 142.966 148.608 143.245C148.608 143.523 148.608 143.801 148.886 143.894C149.258 143.987 149.814 143.523 150.186 143.709C150.65 143.987 150.835 144.637 151.021 145.101C151.206 145.379 151.299 145.75 151.299 146.029C151.206 146.214 150.928 146.307 150.928 146.493C150.835 146.771 151.021 147.049 151.021 147.421C151.021 147.699 150.928 147.977 150.835 148.256C150.65 148.627 150.557 148.905 150.278 149.184C150.093 149.369 149.907 149.462 149.629 149.555C149.35 149.648 148.979 149.555 148.608 149.648C148.237 149.833 147.958 150.205 147.68 150.39C147.402 150.576 147.216 150.854 146.938 151.04C146.566 151.318 146.102 151.504 145.638 151.782C145.453 151.968 145.36 152.246 145.082 152.525C144.896 152.803 144.618 153.081 144.432 153.36C144.246 153.545 144.154 153.731 143.968 153.917C143.69 154.195 143.411 154.288 143.133 154.473C142.947 154.752 142.854 155.123 142.669 155.309C142.483 155.587 142.205 155.68 142.019 155.958C141.834 156.237 141.834 156.701 141.555 156.979C141.277 157.257 140.813 157.165 140.627 157.443C140.349 157.629 140.349 158 140.256 158.278C140.163 158.464 139.978 158.742 140.163 158.835C140.349 159.021 140.627 158.649 140.813 158.742C140.998 158.742 141.091 159.021 141.184 159.021C141.37 159.021 141.462 158.835 141.555 158.742C141.648 158.649 141.648 158.464 141.741 158.371C141.926 158.278 142.205 158.185 142.39 158.185C142.576 158.185 142.576 158.464 142.762 158.557C142.854 158.649 143.04 158.649 143.133 158.742C143.318 158.928 143.226 159.206 143.411 159.392C143.597 159.577 143.968 159.577 144.061 159.67C144.246 159.856 144.246 160.134 144.339 160.32C144.432 160.598 144.525 160.877 144.618 160.969C144.71 161.062 144.896 161.062 145.082 160.969C145.174 160.969 145.36 160.877 145.546 160.784C145.638 160.691 145.731 160.691 145.731 160.598C145.824 160.505 145.731 160.32 145.731 160.227C145.824 160.134 145.917 160.134 146.01 160.134C146.195 160.134 146.566 160.134 146.566 160.32C146.659 160.505 146.288 160.691 146.195 160.877C146.195 161.062 146.288 161.248 146.381 161.341C146.659 161.712 147.03 162.083 147.494 162.269C147.773 162.454 148.237 162.454 148.515 162.64C148.794 162.825 149.072 163.104 149.258 163.289C149.443 163.568 149.536 163.846 149.814 164.032C150.093 164.31 150.557 164.31 150.835 164.681C151.206 164.96 151.206 165.517 151.485 165.888C152.227 166.909 153.248 166.352 152.506 167.558C152.506 167.651 152.32 167.744 152.227 167.837C152.042 167.929 151.949 167.929 151.856 168.022C151.763 168.208 151.67 168.301 151.67 168.486C151.67 168.672 151.578 168.95 151.67 169.229C151.67 169.414 151.856 169.6 151.949 169.693C152.134 169.785 152.227 169.785 152.413 169.693C152.506 169.693 152.598 169.507 152.691 169.414C152.97 169.321 153.248 169.229 153.434 169.136C153.712 168.95 154.083 168.765 154.269 168.486C154.454 168.301 154.454 168.022 154.454 167.744C154.547 167.558 154.547 167.373 154.547 167.187C154.64 167.001 154.733 166.816 154.733 166.63C154.918 166.259 155.197 165.888 155.197 165.517C155.29 165.331 155.011 165.145 155.011 164.867C155.011 164.681 155.197 164.589 155.197 164.496C155.29 164.217 155.29 163.939 155.475 163.661C155.661 163.289 156.032 162.825 156.31 162.454C156.496 162.269 156.774 162.269 156.867 162.176C157.053 162.083 157.146 161.99 157.238 161.805C157.331 161.619 157.238 161.341 157.331 161.062C157.424 160.784 157.702 160.598 157.795 160.32C157.888 160.134 158.074 160.041 158.074 159.763C158.074 159.67 157.888 159.577 157.888 159.485C157.702 159.299 157.61 159.113 157.517 158.835C157.517 158.742 157.424 158.649 157.517 158.557C157.795 158.557 158.074 158.557 158.259 158.742C158.538 159.021 158.445 159.392 158.63 159.67C158.816 159.856 159.002 159.949 159.094 159.949C159.28 159.949 159.187 159.763 159.187 159.67C159.28 159.577 159.187 159.299 159.28 159.392C159.466 159.392 159.466 159.67 159.651 159.763C159.744 159.763 159.837 159.485 159.93 159.577C160.022 159.67 160.022 159.856 159.93 160.041C159.837 160.134 159.466 160.041 159.373 160.227C159.28 160.32 159.466 160.598 159.373 160.784C159.28 160.969 159.094 161.062 158.909 161.341C158.816 161.433 158.909 161.619 158.723 161.712C158.445 161.897 157.981 161.712 157.795 161.99C157.61 162.269 157.981 162.733 157.888 163.011C157.795 163.197 157.424 163.104 157.238 163.197C157.053 163.289 156.96 163.475 156.867 163.568C156.589 163.846 156.125 164.032 155.846 164.31C155.754 164.496 155.754 164.774 155.846 164.96C156.032 165.145 156.403 165.238 156.589 165.053C156.774 165.053 156.774 164.681 156.96 164.496C157.146 164.31 157.424 164.125 157.61 163.939C157.981 163.753 158.259 163.568 158.538 163.289C158.816 163.104 158.909 162.825 159.094 162.64C159.373 162.361 159.651 162.361 159.837 162.176C160.115 161.805 160.301 161.433 160.486 160.969C160.672 160.784 160.858 160.505 160.858 160.227C161.043 159.856 161.043 159.485 161.136 159.113C161.136 159.021 161.043 158.835 161.136 158.742C161.229 158.557 161.507 158.557 161.6 158.371C161.693 158.278 161.693 158.093 161.786 158C161.971 157.721 162.25 157.721 162.342 157.443C162.435 157.257 162.157 156.979 162.157 156.793C162.157 156.701 162.157 156.515 162.25 156.515C162.435 156.515 162.621 156.701 162.899 156.701C163.085 156.608 163.178 156.329 163.27 156.237C163.456 155.958 163.642 155.773 163.827 155.587C164.198 155.401 164.57 155.401 164.941 155.216C165.126 155.03 165.312 154.752 165.498 154.473C165.59 154.288 165.776 154.102 165.869 153.917C165.962 153.545 165.869 153.174 165.962 152.896C166.054 152.432 166.333 152.061 166.333 151.597C166.426 151.318 166.147 151.225 166.147 150.947C166.24 150.669 166.611 150.39 166.611 150.019C166.611 149.833 166.333 149.648 166.333 149.462C166.24 149.091 166.24 148.72 166.24 148.349C166.24 147.977 166.24 147.699 166.333 147.328C166.333 146.864 166.426 146.493 166.611 146.029C166.704 145.75 167.168 145.657 167.168 145.286C167.168 145.101 166.797 145.008 166.611 144.822V144.544C166.704 144.451 166.797 144.358 166.89 144.265C167.261 144.265 167.632 144.915 168.003 144.822C168.56 144.729 168.467 143.894 168.746 143.523C169.117 143.152 169.488 142.966 169.952 142.688C170.416 142.317 170.973 142.038 171.53 141.667C171.808 141.481 172.086 141.203 172.365 141.017C172.55 140.832 172.736 140.646 173.014 140.553C173.293 140.368 173.664 140.275 174.035 140.089C174.314 139.904 174.592 139.533 174.963 139.533C175.334 139.44 175.798 139.718 176.17 139.718C176.541 139.718 177.005 139.718 177.283 139.533C177.654 139.347 177.747 138.883 178.026 138.697C178.304 138.419 178.768 138.419 179.046 138.141C179.232 137.955 179.139 137.677 179.325 137.398C179.418 137.213 179.51 137.027 179.696 136.934C179.974 136.934 180.253 137.12 180.531 137.213C180.717 137.213 180.995 137.398 181.274 137.398C181.459 137.398 181.645 137.027 181.923 136.934C182.109 136.934 182.387 136.934 182.573 137.027C182.758 137.12 182.758 137.398 182.944 137.584C183.037 137.677 183.222 137.769 183.408 137.769C183.872 137.677 184.429 137.677 184.8 137.398C184.986 137.305 184.893 136.934 185.078 136.841C185.264 136.841 185.357 137.213 185.542 137.305C185.821 137.398 186.285 137.398 186.563 137.491C186.842 137.584 186.934 137.955 187.12 137.862C187.584 137.769 188.048 137.491 188.326 137.12C188.512 136.841 188.326 136.377 188.512 136.192C188.698 135.913 189.069 135.913 189.254 135.728C189.904 135.449 190.554 135.264 191.018 134.8C191.203 134.707 191.11 134.429 191.11 134.243C191.11 134.057 190.832 134.057 190.832 133.965C190.832 133.779 191.018 133.501 191.203 133.501C191.389 133.501 191.574 133.965 191.667 133.779C191.853 133.593 191.574 133.222 191.667 132.851C191.667 132.758 191.76 132.573 191.853 132.387C192.131 132.016 192.41 131.645 192.781 131.273C193.059 130.902 193.523 130.531 193.802 130.16C193.894 129.974 193.894 129.696 194.08 129.51C194.451 129.046 194.915 128.489 195.286 128.025C195.75 127.561 196.214 127.19 196.493 126.726C196.771 126.262 196.771 125.705 196.864 125.149C196.957 124.777 196.864 124.313 196.957 123.849C197.05 123.385 197.142 122.921 197.421 122.55C197.606 121.993 197.978 121.529 198.256 121.065C198.534 120.787 198.906 120.509 198.998 120.137C199.184 119.766 198.998 119.302 199.091 118.931C199.184 118.096 199.462 117.353 199.741 116.704C199.926 116.054 200.298 115.497 200.483 114.941C200.576 114.755 200.762 114.569 200.762 114.384C200.762 114.013 200.576 113.734 200.576 113.363C200.576 113.085 200.854 112.806 200.854 112.528C200.762 112.064 200.39 111.693 200.39 111.229C200.39 110.857 200.576 110.393 200.762 110.022C200.854 109.373 201.226 108.816 201.226 108.259C201.226 107.702 200.669 107.331 200.669 106.774C200.669 106.31 201.04 105.846 201.226 105.382C201.318 105.104 201.318 104.825 201.411 104.64C201.597 104.454 201.968 104.361 201.968 104.176C201.968 103.897 201.597 103.712 201.597 103.433C201.597 103.248 201.875 102.969 202.061 103.062C202.432 103.248 202.246 103.897 202.618 104.083C202.896 104.269 203.36 103.99 203.638 103.805C203.917 103.619 204.102 103.248 204.381 103.062C204.845 102.598 205.402 102.413 205.773 101.949C206.144 101.577 206.33 101.021 206.608 100.557V100.464C206.608 100.185 206.701 99.8142 206.794 99.5358C206.886 99.2574 207.165 98.979 207.258 98.6078C207.35 98.4222 207.165 98.2366 207.258 98.1438C207.443 98.051 207.629 98.4222 207.722 98.3294C208 98.1438 208 97.6798 208.186 97.4014C208.464 97.123 208.835 96.8446 209.206 96.5662C209.763 96.0094 210.32 95.4526 210.97 94.9886C211.248 94.803 211.526 94.6174 211.805 94.339C211.99 94.1534 211.898 93.7822 212.083 93.5966C212.269 93.5038 212.547 93.5966 212.733 93.5038C212.918 93.3182 213.104 93.1326 213.197 92.8542C213.29 92.7614 213.104 92.483 213.197 92.2974C213.568 91.8334 214.125 91.555 214.496 91.091C214.867 90.7198 215.238 90.2558 215.424 89.7918C215.795 89.235 215.888 88.6782 216.166 88.0286C216.445 87.379 216.816 86.7294 217.002 85.987C217.094 85.2446 217.094 84.5022 217.002 83.8526C217.002 82.9246 217.002 82.0894 216.909 81.1614C216.816 80.6974 216.723 80.1406 216.63 79.5838C216.538 79.2126 216.538 78.8414 216.445 78.3774C216.166 77.635 215.888 76.8926 215.517 76.243C215.331 75.9646 215.053 75.779 214.774 75.6862C214.032 75.4078 213.29 75.315 212.547 75.2222C211.99 75.1294 211.434 75.4078 210.877 75.315C210.227 75.1294 209.67 74.6654 209.114 74.387C208.464 73.923 208 73.459 207.443 73.0878C206.794 72.6238 206.237 72.1598 205.68 71.603C205.123 71.139 204.659 70.5822 204.102 70.0254C203.638 69.6542 203.174 69.1902 202.618 68.9118C202.061 68.5406 201.318 68.5406 200.669 68.2622C200.298 67.9838 199.926 67.6126 199.462 67.427C198.906 67.2414 198.349 67.2414 197.792 67.1486C197.235 67.1486 196.586 67.2414 196.029 67.3342C195.658 67.427 195.286 67.7982 194.822 67.7982C194.358 67.7054 193.987 67.2414 193.523 67.0558C193.245 66.963 192.874 66.7774 192.502 66.7774C192.131 66.6846 191.667 66.963 191.296 66.8702C191.11 66.7774 191.018 66.4062 190.832 66.4062C190.461 66.2206 189.997 66.4062 189.626 66.3134C189.44 66.2206 189.44 65.8494 189.254 65.7566C188.79 65.571 188.234 65.571 187.77 65.3854C187.677 65.3854 187.584 65.107 187.398 65.107C187.213 65.1998 187.306 65.6638 187.12 65.7566C186.842 65.8494 186.563 65.6638 186.378 65.4782C186.192 65.3854 186.285 64.9214 186.099 65.0142C185.821 65.1998 185.914 65.6638 185.728 65.9422C185.542 66.035 185.357 66.035 185.171 65.9422C184.986 65.9422 184.8 65.7566 184.707 65.6638C184.522 65.571 184.336 65.4782 184.15 65.571C183.965 65.8494 183.965 66.3134 183.872 66.6846C183.686 66.963 183.594 67.2414 183.315 67.5198C183.13 67.7054 182.758 67.7982 182.573 68.0766C182.387 68.4478 182.48 69.6542 182.294 69.283C182.109 68.819 182.294 68.2622 182.48 67.7982C182.48 67.6126 182.666 67.3342 182.758 67.0558C182.851 66.8702 182.758 66.6846 182.851 66.499C182.944 66.2206 183.13 65.9422 183.315 65.6638C183.408 65.4782 183.594 65.2926 183.779 65.107C183.872 65.0142 184.15 64.9214 184.15 64.8286C184.058 64.643 183.872 64.4574 183.686 64.4574C183.501 64.5502 183.315 65.0142 183.13 64.8286C182.944 64.7358 183.222 64.4574 183.315 64.2718C183.408 64.0862 183.686 63.9934 183.686 63.8078C183.686 63.5294 183.501 63.3438 183.315 63.1582C183.222 63.0654 182.944 63.1582 182.851 63.0654C182.666 62.787 182.573 62.4158 182.387 62.2302C182.294 62.1374 182.109 62.2302 182.016 62.1374C181.83 62.1374 181.738 61.859 181.552 61.9518C181.274 61.9518 181.088 62.1374 180.995 62.4158C180.902 62.6942 181.366 63.1582 181.088 63.251C180.717 63.3438 180.531 62.787 180.438 62.5086C180.346 62.2302 180.81 62.0446 180.81 61.7662C180.717 61.5806 180.531 61.4878 180.253 61.4878C180.16 61.395 180.16 61.6734 180.067 61.6734C179.882 61.5806 180.067 61.2094 179.882 61.2094C179.603 61.1166 179.325 61.395 179.046 61.395C178.768 61.395 178.49 61.0238 178.211 61.0238C178.118 61.0238 178.026 61.395 177.933 61.3022C177.747 61.1166 177.933 60.6526 177.747 60.5598C177.469 60.467 177.19 61.0238 176.912 60.931C176.634 60.8382 176.634 60.1886 176.262 60.003C175.798 59.7246 175.334 59.7246 174.778 59.6318C174.314 59.4462 173.85 59.1678 173.386 59.075C173.2 59.075 173.664 59.539 173.478 59.4462C173.107 59.4462 172.736 58.9822 172.365 58.8894C172.086 58.8894 171.994 59.2606 171.901 59.2606C171.622 59.4462 171.344 59.3534 171.158 59.539C170.88 59.6318 170.787 59.9102 170.602 60.0958C170.323 60.3742 170.045 60.6526 169.766 60.931C169.581 61.1166 169.21 61.3022 169.21 61.4878C169.21 61.9518 170.045 62.2302 169.766 62.5086C169.581 62.787 169.117 62.1374 168.838 62.1374C168.467 62.2302 168.282 62.6942 168.003 62.8798C167.818 62.9726 167.725 62.8798 167.632 62.8798C167.261 62.8798 166.89 62.787 166.518 62.9726C166.147 63.0654 165.869 63.5294 165.498 63.715C165.219 63.8078 164.941 63.715 164.662 63.715C164.291 63.715 163.92 63.4366 163.549 63.5294C163.27 63.715 163.363 64.4574 162.992 64.3646C162.435 64.3646 162.342 63.4366 161.878 63.3438C161.6 63.251 161.6 63.9934 161.322 64.0862C161.043 64.179 160.858 63.8078 160.858 63.5294C160.95 63.251 161.507 63.251 161.693 62.8798C161.786 62.6014 161.786 62.1374 161.693 61.859C161.6 61.5806 161.507 61.2094 161.229 61.2094C160.486 61.2094 159.837 61.6734 159.094 61.9518C158.445 62.1374 157.702 62.5086 157.053 62.6014C156.589 62.6942 156.125 62.8798 155.754 62.6014C155.568 62.5086 156.032 62.1374 156.218 62.0446C156.682 61.859 157.331 62.1374 157.795 61.859C158.166 61.4878 158.166 60.931 158.352 60.3742C158.352 60.2814 158.352 60.0958 158.445 60.003C158.816 59.3534 159.187 58.611 159.651 58.0542C160.208 57.3118 160.765 56.755 161.414 56.1054C161.693 55.827 162.157 55.6414 162.435 55.2702C162.992 54.8062 163.363 54.2494 163.734 53.6926C164.106 53.2286 164.57 52.6718 164.662 52.0222C164.662 51.651 164.384 51.2798 164.106 51.0942C163.549 50.8158 162.899 51.187 162.435 50.9086C162.064 50.723 161.971 50.259 161.878 49.8878C161.786 49.7022 161.971 49.5166 161.971 49.2382C161.878 48.867 161.693 48.4958 161.507 48.1246C161.229 47.5678 160.95 47.1038 160.765 46.4542C160.672 45.8974 160.672 45.3406 160.579 44.7838C160.486 44.4126 160.579 43.9486 160.394 43.5774C160.115 43.0206 159.744 42.1854 159.094 42.0926C158.723 42.0926 159.558 43.0206 159.373 43.3918C159.187 43.6702 158.909 42.7422 158.63 42.835C157.981 43.299 157.61 44.1342 157.146 44.7838C156.682 45.619 156.218 46.4542 155.754 47.2894C155.568 47.7534 155.382 48.1246 155.197 48.4958C155.011 48.867 155.011 49.331 154.733 49.5166C154.362 49.795 153.805 49.9806 153.341 49.8878C152.877 49.795 152.784 49.2382 152.413 49.1454C152.227 49.0526 152.042 49.4238 151.856 49.4238C151.67 49.4238 151.485 49.0526 151.299 49.0526C150.742 49.1454 150.464 49.795 150 49.795C149.536 49.8878 149.258 49.4238 148.794 49.2382C148.701 49.2382 148.515 49.5166 148.422 49.4238C147.958 49.1454 147.68 48.3102 147.123 48.3102C146.381 48.2174 145.638 49.0526 144.896 49.1454C144.525 49.1454 144.246 48.4958 143.968 48.5886C143.504 48.6814 143.133 49.0526 143.04 49.5166C143.04 49.9806 143.69 50.3518 143.69 50.8158C143.69 51.0014 143.318 51.187 143.133 51.0942C142.669 50.9086 142.39 50.259 141.926 50.1662C141.741 50.0734 142.112 50.6302 141.926 50.8158C141.741 51.0014 141.277 51.187 140.906 51.187C140.627 51.187 140.349 50.8158 139.978 50.8158C139.514 50.723 138.864 50.6302 138.4 50.9086C138.214 51.0014 138.678 51.4654 138.4 51.5582C137.936 51.8366 137.194 51.5582 136.637 51.7438C136.451 51.7438 136.822 52.115 136.637 52.2078C136.358 52.3006 136.08 51.9294 135.894 52.0222C135.338 52.3006 135.245 53.043 134.688 53.2286C134.317 53.4142 133.76 53.1358 133.389 52.9502C132.832 52.6718 132.275 52.3006 131.904 51.8366C131.626 51.5582 131.533 51.187 131.44 50.8158C131.44 50.4446 131.811 50.0734 131.718 49.7022C131.626 49.4238 131.069 49.331 130.976 49.0526C130.79 48.5886 130.698 47.939 130.698 47.475C130.79 47.1966 131.162 47.1038 131.254 46.9182C131.44 46.6398 131.162 46.3614 131.347 46.083C131.626 45.7118 132.275 45.7118 132.368 45.3406C132.554 44.7838 132.182 44.3198 132.09 43.763C131.997 43.3918 131.811 43.0206 131.718 42.7422C131.533 42.5566 131.44 42.2782 131.254 42.1854C131.069 42.0926 130.698 42.2782 130.512 42.0926C130.141 41.7214 129.955 41.2574 129.955 40.7934C129.862 40.4222 130.326 40.1438 130.234 39.7726C130.141 39.587 129.77 39.4014 129.491 39.4014C129.213 39.4942 129.12 39.8654 128.842 40.051C128.656 40.1438 128.47 40.1438 128.285 40.051C128.006 39.9582 127.821 39.4014 127.728 39.587C127.542 39.8654 128.006 40.1438 128.006 40.4222C128.099 40.7006 128.099 40.979 127.914 41.1646C127.635 41.5358 127.264 41.8142 126.8 41.9998C126.336 42.2782 125.686 42.2782 125.222 42.5566C124.944 42.7422 124.944 43.2062 124.666 43.3918C124.294 43.5774 123.738 43.5774 123.366 43.6702C122.81 43.763 122.346 43.4846 121.882 43.6702C121.418 43.8558 121.046 44.1342 120.768 44.5054C120.675 44.7838 120.954 45.0622 120.861 45.3406C120.768 45.5262 120.49 45.4334 120.397 45.3406C120.118 45.155 120.026 44.691 119.747 44.5982C119.469 44.4126 119.098 44.5982 118.819 44.5054C118.262 44.4126 117.706 44.227 117.242 43.9486C116.87 43.763 116.778 43.0206 116.314 43.0206C115.85 43.0206 115.386 43.5774 115.107 44.0414C114.922 44.3198 115.014 44.8766 115.293 45.0622C115.664 45.3406 116.314 44.8766 116.685 45.2478C116.963 45.4334 116.87 45.8974 116.778 46.2686C116.685 46.547 116.499 46.7326 116.314 47.011C116.221 47.2894 116.035 47.5678 116.035 47.939C116.035 48.403 116.128 48.7742 116.221 49.2382C116.314 49.5166 116.406 49.7022 116.592 49.8878C116.685 50.0734 116.963 50.0734 117.149 50.0734C117.334 50.1662 117.613 50.4446 117.891 50.3518C118.077 50.3518 118.262 49.9806 118.448 49.9806C118.819 50.0734 119.283 50.5374 119.005 50.723C118.541 51.187 117.706 50.723 117.242 51.187C116.592 51.651 116.778 52.8574 116.128 53.3214C115.85 53.5998 115.85 52.579 115.478 52.579C115.107 52.579 115.014 53.2286 114.736 53.507C114.086 54.0638 113.437 54.435 112.88 54.899C112.602 55.1774 112.509 55.9198 112.138 55.827C111.674 55.827 111.952 54.9918 111.581 54.7134C111.302 54.5278 110.931 54.435 110.653 54.7134C110.374 54.9918 110.653 55.9198 110.189 55.9198C109.539 56.0126 109.168 55.2702 108.611 54.899C108.147 54.6206 107.59 54.435 107.312 53.971C107.126 53.7854 107.405 53.4142 107.312 53.1358C106.941 52.3934 106.662 51.3726 105.92 51.0942C105.363 50.9086 105.27 52.2078 104.714 52.3006C104.342 52.3934 104.25 51.651 103.878 51.4654C103.6 51.3726 103.229 51.3726 103.136 51.651C103.043 51.9294 103.786 52.4862 103.414 52.579C102.208 53.043 100.909 52.7646 99.6096 52.7646C99.1456 52.7646 98.4032 52.3934 98.2176 52.8574C97.9392 53.5998 98.1248 54.5278 98.496 55.363C98.5888 55.6414 99.1456 55.363 99.424 55.363C99.7024 55.2702 99.9808 55.0846 100.166 55.2702C100.445 55.4558 100.352 55.9198 100.352 56.1982C100.259 56.4766 100.074 56.8478 99.7952 56.8478C99.5168 56.8478 99.3312 56.1982 98.96 56.1982C98.496 56.291 97.8464 56.5694 97.6608 57.0334C97.3824 57.7758 97.568 58.611 97.6608 59.3534C97.7536 59.6318 97.9392 59.8174 98.2176 60.0958C98.4032 60.1886 98.7744 60.1886 98.8672 60.467C99.1456 60.7454 99.0528 61.1166 99.2384 61.4878C99.3312 61.7662 99.6096 61.9518 99.6096 62.2302C99.6096 62.6942 99.3312 63.0654 99.3312 63.5294C99.3312 63.9006 99.5168 64.3646 99.424 64.7358C99.1456 66.7774 98.7744 68.9118 98.3104 70.9534C98.1248 71.7886 98.1248 72.8094 97.568 73.3662C97.2896 73.6446 96.8256 72.6238 96.4544 72.7166C95.8976 72.8094 95.712 73.5518 95.1552 73.6446C94.8768 73.7374 94.5984 73.1806 94.32 73.2734C94.0416 73.2734 93.9488 73.6446 93.6704 73.7374C93.392 73.923 93.0208 73.6446 92.7424 73.7374C92.1856 74.0158 91.8144 74.4798 91.3504 74.851C90.8864 75.2222 90.3296 75.4078 89.9584 75.8718C89.4944 76.3358 89.216 76.9854 89.0304 77.5422C88.8448 78.0062 88.752 78.4702 88.6592 78.9342C88.6592 79.3054 88.752 79.6766 88.6592 80.0478C88.5664 80.5118 88.5664 81.0686 88.1952 81.4398C88.0096 81.811 87.36 81.6254 87.1744 81.9966C86.896 82.4606 86.9888 83.0174 86.9888 83.4814C86.9888 83.7598 87.1744 84.131 86.9888 84.3166C86.8032 84.595 86.3392 84.4094 86.2464 84.6878C86.1536 84.8734 86.3392 85.1518 86.432 85.3374C86.6176 85.523 86.896 85.523 87.0816 85.7086C87.2672 85.8942 87.1744 86.2654 87.2672 86.451C87.36 86.7294 87.4528 87.0078 87.6384 87.1934ZM159.094 60.003C159.373 59.539 159.651 58.9822 160.022 58.5182C160.301 58.2398 160.765 57.4046 161.043 57.683C161.414 58.147 160.95 58.8894 160.765 59.3534C160.579 59.9102 160.208 60.467 159.744 60.8382C159.373 61.2094 158.723 62.1374 158.352 61.6734C157.888 61.2094 158.816 60.5598 159.094 60.003ZM162.157 58.7038C162.064 59.075 162.435 59.4462 162.435 59.8174C162.342 60.1886 161.878 60.3742 161.878 60.6526C161.786 61.1166 161.878 61.6734 162.157 62.0446C162.342 62.2302 162.806 62.0446 162.992 62.2302C163.178 62.4158 162.806 62.787 162.992 62.8798C163.456 63.0654 163.92 62.8798 164.291 62.9726C164.57 62.9726 164.755 63.251 165.034 63.1582C165.219 63.1582 165.126 62.787 165.312 62.6014C165.683 62.4158 166.054 62.5086 166.333 62.323C166.704 62.2302 166.89 61.859 167.261 61.859C167.446 61.859 167.539 62.2302 167.818 62.2302C168.003 62.2302 168.282 62.0446 168.374 61.7662C168.374 61.4878 167.91 61.0238 168.096 60.7454C168.374 60.2814 169.117 60.2814 169.488 59.8174C169.859 59.3534 170.694 58.7038 170.323 58.147C169.859 57.4974 168.653 57.3118 167.91 57.683C167.354 58.0542 167.91 59.1678 167.446 59.7246C167.261 60.003 167.075 59.075 167.075 58.7038C167.075 58.5182 167.539 58.611 167.539 58.4254C167.539 58.147 167.354 57.8686 167.168 57.7758C166.518 57.4974 165.869 57.5902 165.219 57.5902C164.662 57.4974 164.013 57.4974 163.456 57.5902C163.178 57.683 162.992 57.9614 162.714 58.147C162.528 58.3326 162.157 58.4254 162.157 58.7038ZM163.92 57.0334C164.477 56.9406 165.034 57.1262 165.405 56.8478C165.683 56.6622 165.962 56.1054 165.776 55.9198C165.312 55.5486 164.57 56.0126 164.106 55.7342C163.92 55.5486 164.662 54.899 164.384 54.899C163.827 54.899 163.363 55.2702 162.992 55.6414C162.714 55.827 162.435 56.1054 162.435 56.4766C162.342 56.755 162.435 57.1262 162.714 57.219C162.899 57.3118 162.899 56.8478 162.992 56.6622C163.178 56.4766 163.178 56.1982 163.456 56.1054C163.549 56.0126 163.827 56.1982 163.734 56.3838C163.734 56.6622 163.178 56.8478 163.27 57.0334C163.27 57.3118 163.734 57.0334 163.92 57.0334ZM161.414 56.9406C161.043 57.0334 161.229 57.8686 161.414 58.147C161.6 58.4254 162.157 58.2398 162.157 58.0542C162.157 57.5902 161.878 56.8478 161.414 56.9406Z" fill="#294292"/>
</g>
<defs>
<clipPath id="clip0_2022_1816">
<rect width="780" height="520" fill="white"/>
</clipPath>
</defs>
</svg>
