<svg width="1500" height="1050" viewBox="0 0 1500 1050" fill="none" xmlns="http://www.w3.org/2000/svg"><g clip-path="url(#clip0_2022_322)"><path d="M1500 0H0V1050H1500V0Z" fill="white"/><path d="M1010 265H490V785H1010V265Z" fill="#00923F"/><path d="M713 488V383L739 357V309H713L750 272L787 309H761V357L787 383V488H892L918 514H966V488L1003 525L966 562V536H918L892 562H787V667L761 693V741H787L750 778L713 741H739V693L713 667V562H608L582 536H534V562L497 525L534 488V514H582L608 488H713Z" fill="#F8C300"/><path d="M676 525L750 451L824 525L750 599L676 525Z" fill="#00923F"/></g><defs><clipPath id="clip0_2022_322"><rect width="1500" height="1050" fill="white"/></clipPath></defs></svg>