<svg width="600" height="420" viewBox="0 0 600 420" fill="none" xmlns="http://www.w3.org/2000/svg"><g clip-path="url(#clip0_2022_2193)"><path fill-rule="evenodd" clip-rule="evenodd" d="M-0.22998 0.0595703H599.77V420.06H-0.22998V0.0595703ZM299.77 97.1296L359.77 201.06L419.77 304.98H179.77L239.77 201.06L299.77 97.1296ZM338.98 317.38H325V323.46H334.77V325.86H325V332.58H338.98V334.98H322.6V314.98H338.98V317.38ZM236.77 334.98V317.38H228.62V314.98H247.32V317.38H239.17V334.98H236.77ZM263.96 317.9L259.76 327.21H268.15L263.96 317.9ZM262.64 314.98H265.27L274.28 334.98H271.65L269.23 329.61H258.68L256.26 334.98H253.64L262.64 314.98ZM284.55 334.98V314.98H286.2L297.86 325.24L309.51 314.98H311.16V334.98H308.76V318.84L297.86 328.44L297.05 327.72L297.04 327.73L287.43 319.25L286.95 318.84V334.98H284.55ZM349.9 334.98V314.98H351.58L368.52 331.08V314.98H370.92V334.98H369.15L352.3 318.97V334.98H349.9ZM338 134.16C336.8 134.85 335.62 134.88 334.6 134.58C334.02 134.42 333.5 134.14 333.05 133.82L332.98 134.22L330.62 133.8L331.07 131.35L328.82 127.45C328.4 126.72 327.97 125.26 328.28 123.85C328.51 122.82 329.1 121.83 330.31 121.13L340.49 115.25C341.39 114.74 342.44 114.6 343.43 114.89C344.33 115.15 345.16 115.75 345.72 116.72L349.4 123.09L349.71 123.62L349.67 123.64C349.97 124.38 350.06 125.2 349.9 125.96C349.71 126.87 349.18 127.7 348.23 128.25L338 134.16ZM334.49 125.93L333.59 130.9L333.73 131.16C333.95 131.53 334.52 132.07 335.26 132.28C335.72 132.41 336.25 132.4 336.8 132.08L347.03 126.17C347.33 126 347.5 125.75 347.56 125.47C347.63 125.11 347.54 124.68 347.33 124.31L347.32 124.29L343.64 117.92C343.41 117.52 343.1 117.28 342.76 117.18C342.41 117.08 342.03 117.14 341.69 117.33L331.51 123.21C330.97 123.52 330.72 123.94 330.62 124.37C330.46 125.11 330.68 125.87 330.9 126.25L331.74 127.7L332.14 125.5L334.49 125.93ZM402.61 220.06L396.85 210.07L391.59 213.11L395.58 220.03L393.5 221.23L389.51 214.31L383.68 217.67L389.45 227.66L387.37 228.86L380.4 216.79L397.73 206.79L404.69 218.86L402.61 220.06ZM411.88 236.11L407.46 228.46L402.2 231.5L406.62 239.15C406.8 239.46 407.14 239.68 407.51 239.79C407.9 239.9 408.29 239.89 408.55 239.74L411.34 238.13C411.67 237.94 411.93 237.63 412.04 237.27C412.15 236.92 412.12 236.51 411.89 236.11L411.88 236.12L413.96 234.91L411.88 236.11ZM413.96 234.91V234.92C414.55 235.94 414.62 237.02 414.33 237.97C414.04 238.91 413.39 239.71 412.54 240.2H412.53L409.75 241.81C408.91 242.29 407.83 242.37 406.86 242.09C405.92 241.82 405.05 241.23 404.54 240.35L404.22 239.79L398.62 248.34L397.28 246.02L402.88 237.47L400.12 232.7L392.22 237.26L391.02 235.18L408.34 225.18L413.96 234.91ZM420.26 252.15L410.55 253.47L414.26 259.89L420.26 252.15ZM400.95 252.38L402.24 254.61L407.99 253.82L412.67 261.94L409.12 266.53L410.41 268.76L423.64 251.69L423 250.57L422.35 249.45L400.95 252.38ZM382.02 201.35L378.77 195.72C378.27 194.85 378.15 193.81 378.35 192.88C378.57 191.9 379.13 191.02 379.97 190.53L382.96 188.81C383.86 188.29 384.91 188.16 385.89 188.44C386.8 188.7 387.63 189.31 388.19 190.28L391.87 196.64L392.17 197.18L392.14 197.2C392.43 197.94 392.53 198.75 392.37 199.51C392.18 200.43 391.65 201.26 390.7 201.81L390.42 201.97L389.22 199.89L389.5 199.73C389.8 199.55 389.97 199.3 390.02 199.03C390.1 198.66 390.01 198.24 389.8 197.86L389.79 197.84L386.11 191.48C385.88 191.08 385.56 190.84 385.23 190.74C384.88 190.64 384.5 190.69 384.16 190.89L381.17 192.61C380.93 192.75 380.76 193.04 380.69 193.38C380.61 193.76 380.65 194.18 380.85 194.52L384.1 200.15L384.13 200.21L384.15 200.22C384.6 201.01 384.87 202.15 384.74 203.26C384.6 204.43 384.04 205.59 382.82 206.35L382.71 206.41L382.7 206.43L380.47 207.71C379.27 208.41 378.09 208.43 377.06 208.14C375.66 207.73 374.55 206.66 374.12 205.91L371.29 201.01C370.87 200.27 370.44 198.81 370.75 197.41C370.98 196.38 371.57 195.38 372.77 194.69L373.13 194.48L374.33 196.56L373.97 196.77C373.44 197.08 373.18 197.5 373.09 197.93C372.92 198.66 373.15 199.43 373.37 199.81L376.2 204.71C376.41 205.08 376.98 205.62 377.73 205.84C378.19 205.97 378.72 205.95 379.27 205.64L381.5 204.35L381.56 204.32C382.06 204.01 382.3 203.5 382.36 202.98C382.43 202.39 382.29 201.81 382.07 201.42L382.04 201.36L383.06 200.75L382.02 201.35ZM365.71 157.66L356 158.98L359.71 165.4L365.71 157.66ZM346.39 157.89L347.68 160.12L353.43 159.34L358.12 167.45L354.56 172.04L355.85 174.27L361.33 183.75L363.4 182.55L357.44 172.22L361.89 166.48L365.54 172.79L367.62 171.59L363.48 164.43L367.5 159.24L373.05 168.85L375.12 167.65L369.09 157.2L368.44 156.08L367.8 154.96L346.39 157.89ZM348.6 152.51C347.4 153.2 346.22 153.23 345.19 152.93C343.79 152.53 342.68 151.45 342.25 150.71L339.42 145.81C338.99 145.07 338.57 143.61 338.88 142.2C339.11 141.18 339.7 140.18 340.9 139.49L354.37 131.71L355.57 133.79L342.1 141.57C341.57 141.87 341.31 142.3 341.22 142.73C341.05 143.46 341.28 144.22 341.5 144.61L344.33 149.51C344.54 149.88 345.11 150.42 345.86 150.63C346.31 150.77 346.85 150.75 347.4 150.43L360.74 142.73L361.94 144.81L348.6 152.51ZM211.38 195.04L205.61 205.02L210.87 208.06L214.87 201.14L216.95 202.34L212.95 209.26L218.78 212.62L224.54 202.64L226.62 203.84L219.66 215.9L202.34 205.9L209.3 193.84L211.38 195.04ZM221.6 177.33L217.19 184.98L222.45 188.02L226.87 180.36C227.04 180.05 227.07 179.65 226.97 179.28C226.87 178.89 226.67 178.55 226.4 178.4L223.62 176.79C223.29 176.59 222.89 176.53 222.52 176.61C222.17 176.7 221.83 176.93 221.6 177.32H221.61L219.53 176.13C220.12 175.1 221.02 174.5 221.99 174.28C222.94 174.06 223.96 174.22 224.82 174.72L227.6 176.33C228.44 176.81 229.05 177.71 229.29 178.69C229.53 179.63 229.45 180.69 228.94 181.56L228.62 182.12L238.82 182.7L237.48 185.02L227.28 184.45L224.52 189.22L232.43 193.78L231.23 195.86L213.91 185.86L219.53 176.13L221.6 177.33ZM197.39 219.26L193.4 226.18L198.66 229.22L202.66 222.3C202.83 222 202.83 221.6 202.73 221.21C202.61 220.79 202.39 220.43 202.11 220.26L199.52 218.77C199.15 218.56 198.69 218.49 198.28 218.59C197.93 218.68 197.61 218.89 197.39 219.26ZM204.73 223.5L200.74 230.42L206.56 233.78L210.56 226.86C210.87 226.31 211.08 225.63 210.94 225.02C210.83 224.58 210.53 224.15 209.91 223.79L207.75 222.54C207.13 222.21 206.57 222.07 206.1 222.17C205.66 222.27 205.23 222.63 204.83 223.32L204.73 223.5ZM212.64 228.06L207.44 237.06L190.12 227.06L195.32 218.06C195.88 217.08 196.75 216.5 197.7 216.27C198.72 216.01 199.84 216.18 200.72 216.69L203.31 218.19C204 218.58 204.55 219.28 204.87 220.07C205.1 219.97 205.33 219.89 205.58 219.84C206.64 219.6 207.76 219.84 208.88 220.43L209.11 220.56L211.11 221.71C212.38 222.45 213.03 223.43 213.27 224.48C213.56 225.76 213.21 227.06 212.64 228.06ZM185.09 235.77L202.41 245.77L201.21 247.85L183.89 237.85L185.09 235.77ZM173.72 255.46L188.96 264.26L194.99 253.83L197.06 255.03L189.84 267.54L172.52 257.54L173.72 255.46ZM245.75 170.7L230.51 161.9L227.4 167.29L225.32 166.09L229.03 159.66L229.63 158.62L232.74 153.24L234.82 154.44L231.71 159.82L246.95 168.62L245.75 170.7ZM242.29 143.01L248.29 150.75L252 144.34L242.29 143.01ZM252.15 159.62L253.44 157.39L249.88 152.8L254.57 144.69L260.32 145.47L261.61 143.24L240.2 140.31L239.56 141.43L238.91 142.55L252.15 159.62ZM262.11 124.11L258.86 129.75C258.36 130.61 257.52 131.23 256.61 131.52C255.66 131.83 254.62 131.78 253.77 131.29L250.78 129.57C249.89 129.05 249.25 128.2 249 127.21C248.77 126.3 248.88 125.28 249.44 124.31L253.12 117.94L253.43 117.41L253.46 117.43C253.96 116.8 254.61 116.31 255.35 116.07C256.24 115.78 257.22 115.82 258.17 116.37L258.45 116.53L257.25 118.61L256.97 118.45C256.67 118.27 256.37 118.26 256.1 118.35C255.75 118.46 255.43 118.75 255.21 119.12L255.2 119.14L251.52 125.51C251.29 125.91 251.24 126.3 251.32 126.64C251.41 126.99 251.65 127.3 251.98 127.49L254.97 129.22C255.21 129.36 255.55 129.36 255.88 129.25C256.25 129.13 256.59 128.88 256.78 128.55L260.04 122.91L260.07 122.85L260.08 122.84C260.53 122.05 261.38 121.25 262.41 120.81C263.49 120.34 264.78 120.25 266.05 120.93L266.16 120.99H266.18L268.4 122.28C269.6 122.97 270.22 123.98 270.47 125.01C270.82 126.43 270.45 127.93 270.02 128.67L267.19 133.58C266.76 134.31 265.71 135.42 264.34 135.85C263.33 136.16 262.17 136.15 260.97 135.45L260.61 135.25L261.81 133.17L262.17 133.37C262.7 133.68 263.2 133.69 263.62 133.56C264.34 133.34 264.89 132.76 265.11 132.38L267.94 127.47C268.15 127.1 268.33 126.34 268.15 125.59C268.03 125.13 267.75 124.67 267.2 124.36L264.98 123.07L264.92 123.03C264.4 122.75 263.84 122.8 263.36 123.01C262.82 123.24 262.38 123.65 262.16 124.04L262.15 124.03L262.12 124.09L261.07 123.51L262.11 124.11Z" fill="white"/><path fill-rule="evenodd" clip-rule="evenodd" d="M299.77 97.1299L359.77 201.06L419.77 304.98H179.77L239.77 201.06L299.77 97.1299Z" fill="#ED1C24"/><path fill-rule="evenodd" clip-rule="evenodd" d="M338 134.159C336.8 134.849 335.62 134.879 334.6 134.579C334.02 134.419 333.5 134.139 333.05 133.819L332.98 134.219L330.62 133.799L331.07 131.349L328.82 127.449C328.4 126.719 327.97 125.259 328.28 123.849C328.51 122.819 329.1 121.829 330.31 121.129L340.49 115.249C341.39 114.739 342.44 114.599 343.43 114.889C344.33 115.149 345.16 115.749 345.72 116.719L349.4 123.089L349.71 123.619L349.67 123.639C349.97 124.379 350.06 125.199 349.9 125.959C349.71 126.869 349.18 127.699 348.23 128.249L338 134.159ZM334.49 125.929L333.59 130.899L333.73 131.159C333.95 131.529 334.52 132.069 335.26 132.279C335.72 132.409 336.25 132.399 336.8 132.079L347.03 126.169C347.33 125.999 347.5 125.749 347.56 125.469C347.63 125.109 347.54 124.679 347.33 124.309L347.32 124.289L343.64 117.919C343.41 117.519 343.1 117.279 342.76 117.179C342.41 117.079 342.03 117.139 341.69 117.329L331.51 123.209C330.97 123.519 330.72 123.939 330.62 124.369C330.46 125.109 330.68 125.869 330.9 126.249L331.74 127.699L332.14 125.499L334.49 125.929ZM402.61 220.059L396.85 210.069L391.59 213.109L395.58 220.029L393.5 221.229L389.51 214.309L383.68 217.669L389.45 227.659L387.37 228.859L380.4 216.789L397.73 206.789L404.69 218.859L402.61 220.059ZM411.88 236.109L407.46 228.459L402.2 231.499L406.62 239.149C406.8 239.459 407.14 239.679 407.51 239.789C407.9 239.899 408.29 239.889 408.55 239.739L411.34 238.129C411.67 237.939 411.93 237.629 412.04 237.269C412.15 236.919 412.12 236.509 411.89 236.109L411.88 236.119L413.96 234.909L411.88 236.109ZM413.96 234.909V234.919C414.55 235.939 414.62 237.019 414.33 237.969C414.04 238.909 413.39 239.709 412.54 240.199H412.53L409.75 241.809C408.91 242.289 407.83 242.369 406.86 242.089C405.92 241.819 405.05 241.229 404.54 240.349L404.22 239.789L398.62 248.339L397.28 246.019L402.88 237.469L400.12 232.699L392.22 237.259L391.02 235.179L408.34 225.179L413.96 234.909ZM420.26 252.149L410.55 253.469L414.26 259.889L420.26 252.149ZM400.95 252.379L402.24 254.609L407.99 253.819L412.67 261.939L409.12 266.529L410.41 268.759L423.64 251.689L423 250.569L422.35 249.449L400.95 252.379ZM382.02 201.349L378.77 195.719C378.27 194.849 378.15 193.809 378.35 192.879C378.57 191.899 379.13 191.019 379.97 190.529L382.96 188.809C383.86 188.289 384.91 188.159 385.89 188.439C386.8 188.699 387.63 189.309 388.19 190.279L391.87 196.639L392.17 197.179L392.14 197.199C392.43 197.939 392.53 198.749 392.37 199.509C392.18 200.429 391.65 201.259 390.7 201.809L390.42 201.969L389.22 199.889L389.5 199.729C389.8 199.549 389.97 199.299 390.02 199.029C390.1 198.659 390.01 198.239 389.8 197.859L389.79 197.839L386.11 191.479C385.88 191.079 385.56 190.839 385.23 190.739C384.88 190.639 384.5 190.689 384.16 190.889L381.17 192.609C380.93 192.749 380.76 193.039 380.69 193.379C380.61 193.759 380.65 194.179 380.85 194.519L384.1 200.149L384.13 200.209L384.15 200.219C384.6 201.009 384.87 202.149 384.74 203.259C384.6 204.429 384.04 205.589 382.82 206.349L382.71 206.409L382.7 206.429L380.47 207.709C379.27 208.409 378.09 208.429 377.06 208.139C375.66 207.729 374.55 206.659 374.12 205.909L371.29 201.009C370.87 200.269 370.44 198.809 370.75 197.409C370.98 196.379 371.57 195.379 372.77 194.689L373.13 194.479L374.33 196.559L373.97 196.769C373.44 197.079 373.18 197.499 373.09 197.929C372.92 198.659 373.15 199.429 373.37 199.809L376.2 204.709C376.41 205.079 376.98 205.619 377.73 205.839C378.19 205.969 378.72 205.949 379.27 205.639L381.5 204.349L381.56 204.319C382.06 204.009 382.3 203.499 382.36 202.979C382.43 202.389 382.29 201.809 382.07 201.419L382.04 201.359L383.06 200.749L382.02 201.349ZM365.71 157.659L356 158.979L359.71 165.399L365.71 157.659ZM346.39 157.889L347.68 160.119L353.43 159.339L358.12 167.449L354.56 172.039L355.85 174.269L361.33 183.749L363.4 182.549L357.44 172.219L361.89 166.479L365.54 172.789L367.62 171.589L363.48 164.429L367.5 159.239L373.05 168.849L375.12 167.649L369.09 157.199L368.44 156.079L367.8 154.959L346.39 157.889ZM348.6 152.509C347.4 153.199 346.22 153.229 345.19 152.929C343.79 152.529 342.68 151.449 342.25 150.709L339.42 145.809C338.99 145.069 338.57 143.609 338.88 142.199C339.11 141.179 339.7 140.179 340.9 139.489L354.37 131.709L355.57 133.789L342.1 141.569C341.57 141.869 341.31 142.299 341.22 142.729C341.05 143.459 341.28 144.219 341.5 144.609L344.33 149.509C344.54 149.879 345.11 150.419 345.86 150.629C346.31 150.769 346.85 150.749 347.4 150.429L360.74 142.729L361.94 144.809L348.6 152.509Z" fill="black"/><path fill-rule="evenodd" clip-rule="evenodd" d="M211.38 195.04L205.61 205.02L210.87 208.06L214.87 201.14L216.95 202.34L212.95 209.26L218.78 212.62L224.54 202.64L226.62 203.84L219.66 215.9L202.34 205.9L209.3 193.84L211.38 195.04ZM221.6 177.33L217.19 184.98L222.45 188.02L226.87 180.36C227.04 180.05 227.07 179.65 226.97 179.28C226.87 178.89 226.67 178.55 226.4 178.4L223.62 176.79C223.29 176.59 222.89 176.53 222.52 176.61C222.17 176.7 221.83 176.93 221.6 177.32H221.61L219.53 176.13C220.12 175.1 221.02 174.5 221.99 174.28C222.94 174.06 223.96 174.22 224.82 174.72L227.6 176.33C228.44 176.81 229.05 177.71 229.29 178.69C229.53 179.63 229.45 180.69 228.94 181.56L228.62 182.12L238.82 182.7L237.48 185.02L227.28 184.45L224.52 189.22L232.43 193.78L231.23 195.86L213.91 185.86L219.53 176.13L221.6 177.33ZM197.39 219.26L193.4 226.18L198.66 229.22L202.66 222.3C202.83 222 202.83 221.6 202.73 221.21C202.61 220.79 202.39 220.43 202.11 220.26L199.52 218.77C199.15 218.56 198.69 218.49 198.28 218.59C197.93 218.68 197.61 218.89 197.39 219.26ZM204.73 223.5L200.74 230.42L206.56 233.78L210.56 226.86C210.87 226.31 211.08 225.63 210.94 225.02C210.83 224.58 210.53 224.15 209.91 223.79L207.75 222.54C207.13 222.21 206.57 222.07 206.1 222.17C205.66 222.27 205.23 222.63 204.83 223.32L204.73 223.5ZM212.64 228.06L207.44 237.06L190.12 227.06L195.32 218.06C195.88 217.08 196.75 216.5 197.7 216.27C198.72 216.01 199.84 216.18 200.72 216.69L203.31 218.19C204 218.58 204.55 219.28 204.87 220.07C205.1 219.97 205.33 219.89 205.58 219.84C206.64 219.6 207.76 219.84 208.88 220.43L209.11 220.56L211.11 221.71C212.38 222.45 213.03 223.43 213.27 224.48C213.56 225.76 213.21 227.06 212.64 228.06ZM185.09 235.77L202.41 245.77L201.21 247.85L183.89 237.85L185.09 235.77ZM173.72 255.46L188.96 264.26L194.99 253.83L197.06 255.03L189.84 267.54L172.52 257.54L173.72 255.46ZM245.75 170.7L230.51 161.9L227.4 167.29L225.32 166.09L229.03 159.66L229.63 158.62L232.74 153.24L234.82 154.44L231.71 159.82L246.95 168.62L245.75 170.7ZM242.29 143.01L248.29 150.75L252 144.34L242.29 143.01ZM252.15 159.62L253.44 157.39L249.88 152.8L254.57 144.69L260.32 145.47L261.61 143.24L240.2 140.31L239.56 141.43L238.91 142.55L252.15 159.62ZM262.11 124.11L258.86 129.75C258.36 130.61 257.52 131.23 256.61 131.52C255.66 131.83 254.62 131.78 253.77 131.29L250.78 129.57C249.89 129.05 249.25 128.2 249 127.21C248.77 126.3 248.88 125.28 249.44 124.31L253.12 117.94L253.43 117.41L253.46 117.43C253.96 116.8 254.61 116.31 255.35 116.07C256.24 115.78 257.22 115.82 258.17 116.37L258.45 116.53L257.25 118.61L256.97 118.45C256.67 118.27 256.37 118.26 256.1 118.35C255.75 118.46 255.43 118.75 255.21 119.12L255.2 119.14L251.52 125.51C251.29 125.91 251.24 126.3 251.32 126.64C251.41 126.99 251.65 127.3 251.98 127.49L254.97 129.22C255.21 129.36 255.55 129.36 255.88 129.25C256.25 129.13 256.59 128.88 256.78 128.55L260.04 122.91L260.07 122.85L260.08 122.84C260.53 122.05 261.38 121.25 262.41 120.81C263.49 120.34 264.78 120.25 266.05 120.93L266.16 120.99H266.18L268.4 122.28C269.6 122.97 270.22 123.98 270.47 125.01C270.82 126.43 270.45 127.93 270.02 128.67L267.19 133.58C266.76 134.31 265.71 135.42 264.34 135.85C263.33 136.16 262.17 136.15 260.97 135.45L260.61 135.25L261.81 133.17L262.17 133.37C262.7 133.68 263.2 133.69 263.62 133.56C264.34 133.34 264.89 132.76 265.11 132.38L267.94 127.47C268.15 127.1 268.33 126.34 268.15 125.59C268.03 125.13 267.75 124.67 267.2 124.36L264.98 123.07L264.92 123.03C264.4 122.75 263.84 122.8 263.36 123.01C262.82 123.24 262.38 123.65 262.16 124.04L262.15 124.03L262.12 124.09L261.07 123.51L262.11 124.11Z" fill="black"/><path fill-rule="evenodd" clip-rule="evenodd" d="M338.98 317.379H325V323.459H334.77V325.859H325V332.579H338.98V334.979H322.6V314.979H338.98V317.379ZM236.77 334.979V317.379H228.62V314.979H247.32V317.379H239.17V334.979H236.77ZM263.96 317.899L259.76 327.209H268.15L263.96 317.899ZM262.64 314.979H265.27L274.28 334.979H271.65L269.23 329.609H258.68L256.26 334.979H253.64L262.64 314.979ZM284.55 334.979V314.979H286.2L297.86 325.239L309.51 314.979H311.16V334.979H308.76V318.839L297.86 328.439L297.05 327.719L297.04 327.729L287.43 319.249L286.95 318.839V334.979H284.55ZM349.9 334.979V314.979H351.58L368.52 331.079V314.979H370.92V334.979H369.15L352.3 318.969V334.979H349.9Z" fill="black"/></g><defs><clipPath id="clip0_2022_2193"><rect width="600" height="420" fill="white"/></clipPath></defs></svg>