<svg width="980" height="700" viewBox="0 0 980 700" fill="none"
    xmlns="http://www.w3.org/2000/svg">
    <g clip-path="url(#clip0_1978_12601)">
        <path id="1" d="M980 0H0V700H980V0Z" fill="#EDEDF0"/>
        <path id="2" fill-rule="evenodd" clip-rule="evenodd" d="M516.512 528.945C510.362 523.613 502.907 512.815 503.012 502.407C503.562 494.646 508.885 490.137 512.324 499.611C517.186 510.068 527.614 527.36 541.984 517.216C548.262 512.608 548.164 505.824 539.556 506.602C528.926 505.874 522.396 500.025 517.639 484.966C516.774 476.684 520.219 476.891 525.026 482.219C531.206 489.309 543.504 500.025 557.072 494.282C564.612 491.122 566.74 484.602 555.349 482.997C544.565 483.154 535.762 476.163 526.999 465.499C522.194 459.599 529.281 453.643 533.536 458.665C537.331 461.925 542.646 467.931 547.201 468.759C552.468 469.793 558.997 469.279 566.231 465.449C574.029 458.922 571.497 454.213 562.031 453.129C554.693 453.493 550.696 456.282 541.231 449.969C524.217 438.469 510.691 423.104 508.578 404.622C507.19 392.466 513.726 388.785 519.16 390.184C533.94 393.986 543.609 421.606 553.835 436.779C557.183 441.152 560.259 441.223 562.435 439.875C566.537 436.358 569.813 433.467 573.915 429.535C573.915 429.535 604 434.941 620.383 440.281L602.141 446.764C595.234 442.95 586.898 447.062 586.898 453.679C580.362 458.199 580.888 463.498 583.708 468.612C584.568 465.051 585.302 460.426 590.465 459.811C597.834 462.859 606.42 458.509 606.42 452.754L627.939 444.296L649.679 456.604C649.679 464.924 657.562 467.56 665.764 465.314C669.629 467.714 672.114 471.878 673.423 476.331C675.843 469.909 675.338 465.375 671.548 462.224C673.723 453.921 662.088 445.937 653.081 451.254L637.441 442.274L664.211 441.524C667.318 447.024 678.548 447.327 681.824 441.524C684.624 440.757 686.99 440.269 692.449 444.327C690.729 437.761 687.381 434.954 682.359 434.954C678.543 428.193 664.733 428.224 662.739 435.836L634.858 436.611L651.401 424.833C657.576 428.479 666.241 424.426 667.976 417.803C670.438 414.876 673.474 413.501 679.45 415.487C676.37 410.032 672.03 408.404 664.192 412.107C657.042 406.689 647.618 413.26 649.048 418.715L627.038 433.69C611.062 428.923 582.128 421.5 582.128 421.5C585.573 417.876 589.068 414.509 592.507 410.835C593.749 408.683 591.851 406.177 589.214 405.655C563.398 400.327 548.617 389.92 539.661 363.469C535.915 352.391 544.014 349.081 546.797 355.857C550.647 365.281 554.895 375.581 566.487 383.557C570.485 386.353 582.386 384.07 575.347 377.393C568.057 371.387 564.919 368.805 561.327 354.203C561.327 346.805 568.867 343.488 573.073 350.579C577.573 365.124 578.033 371.387 586.18 380.759C592.353 387.851 600.403 392.616 604.4 392.509C611.592 392.409 618.832 384.639 609.213 378.998C595.088 373.356 589.926 365.645 587.847 358.29C585.573 345.457 588.057 339.244 595.799 345.557C606.779 358.033 627.739 381.274 638.719 392.095C651.024 401.519 665.142 401.825 676.379 392.252C682.811 384.848 680.529 376.88 670.458 378.585C647.732 380.503 630.523 369.218 611.641 338.723C607.944 331.839 606.931 321.952 615.086 329.307C624.496 342.04 638.216 352.861 650.976 357.519C663.782 362.121 674.356 359.579 678.457 355.551C683.4 350.609 682.1 338.159 673.547 341.161C666.509 343.645 656.59 344.265 646.267 340.278C635.936 336.24 625.207 327.545 613.817 312.793C609.917 304.461 611.187 297.42 619.082 301.713C637.762 317.558 661.857 330.391 674.154 322.68C683.216 317.037 683.369 302.542 671.88 303.476C648.743 306.629 639.989 301.508 617.765 281.891C612.707 278.11 613.057 268.53 621.105 274.643C639.785 286.706 665.295 291.413 675.319 285.101C684.332 279.458 683.013 262.216 667.828 268.323C655.677 275.727 642.263 275.52 615.386 256.317C608.606 250.675 613.663 243.32 619.23 246.48C640.847 258.8 672.334 264.078 680.53 239.026C683.718 229.452 677.95 223.86 669.495 230.486C650.919 247.671 629.86 239.232 618.072 230.586C614.696 228.596 608.502 218.524 619.382 220.393C647.529 226.813 675.368 221.221 680.432 201.29C683.369 194.82 677.592 183.378 667.319 192.958C653.807 206.312 639.479 206.775 621.462 206.675C612.296 204.757 612.199 194.663 619.892 193.165C634.115 193.471 648.136 187.258 659.374 180.945C670.36 174.632 679.47 165.779 682.358 153.51C684.128 142.538 673.548 130.89 667.172 142.538C657.755 159.566 636.899 175.616 613.712 178.513C612.505 176.493 609.464 171.315 605.718 172.77C598.91 175.41 590.798 178.942 582.446 182.909C564.442 191.458 556.939 195.578 559.101 210.349C561.358 225.762 549.475 235.502 539.661 232.812C531.101 230.508 526.379 222.776 527.913 209.365C529.142 198.679 539.87 185.753 551.959 178.975C559.785 174.595 571.601 172.199 585.824 169.039C594.48 167.334 598.889 163.967 599.392 160.443C599.392 160.443 593.475 164.773 584.004 164.123C579.526 163.803 576.526 161.833 575.396 159.823C578.689 159.153 584.66 159.93 590.024 159.93C597.159 159.873 613.726 158.275 618.121 148.23C619.488 141.604 615.134 140.413 611.083 144.657C606.73 149.244 604.937 153.367 596.203 154.907C590.889 155.842 585.573 156.927 578.737 155.272C582.587 150.699 588.705 146.02 593.923 146.882C595.639 147.168 597.92 148.752 599.747 151.598C600.863 144.35 598.882 136.168 579.497 139.585C579.805 134.1 568.259 131.717 561.327 131.824C557.379 131.924 549.329 134.257 543.511 137.046C534.297 139.899 525.187 141.968 514.451 142.746C520.681 148.074 521.846 148.388 528.067 152.889C518.657 156.406 511.367 163.654 508.076 168.419C508.076 168.419 519.062 168.112 521.846 169.353C510.35 172.713 505.187 174.732 499.113 180.945C501.24 181.309 504.427 181.929 505.795 182.45C507.218 182.964 506.848 183.898 505.697 184.776C503.221 186.666 492.989 198.55 490.003 201.396C487.017 198.55 476.785 186.666 474.309 184.776C473.158 183.898 472.788 182.964 474.211 182.45C475.578 181.93 478.766 181.309 480.893 180.945C474.818 174.732 469.656 172.713 458.16 169.353C460.944 168.112 471.93 168.419 471.93 168.419C468.637 163.654 461.348 156.406 451.938 152.889C458.16 148.388 459.325 148.074 465.554 142.745C454.819 141.968 445.709 139.899 436.494 137.045C430.677 134.257 422.627 131.924 418.679 131.824C411.746 131.717 400.201 134.1 400.509 139.584C381.124 136.168 379.143 144.35 380.259 151.598C382.086 148.752 384.367 147.168 386.083 146.883C391.301 146.02 397.418 150.699 401.269 155.272C394.433 156.927 389.117 155.842 383.802 154.908C375.069 153.368 373.276 149.244 368.922 144.658C364.871 140.413 360.518 141.604 361.885 148.231C366.28 158.275 382.845 159.873 389.982 159.93C395.346 159.93 401.317 159.152 404.61 159.823C403.48 161.835 400.48 163.803 396.002 164.123C386.53 164.773 380.614 160.443 380.614 160.443C381.117 163.967 385.524 167.333 394.182 169.039C408.405 172.199 420.221 174.596 428.047 178.976C440.136 185.753 450.864 198.679 452.092 209.365C453.626 222.775 448.904 230.508 440.345 232.812C430.531 235.502 418.648 225.762 420.905 210.349C423.067 195.578 415.564 191.458 397.56 182.909C389.208 178.942 381.096 175.409 374.288 172.769C370.542 171.315 367.501 176.494 366.294 178.513C343.107 175.616 322.251 159.566 312.834 142.538C306.458 130.89 295.877 142.538 297.648 153.51C300.536 165.78 309.646 174.632 320.632 180.945C331.87 187.258 345.891 193.471 360.114 193.165C367.807 194.663 367.71 204.757 358.544 206.675C340.526 206.775 326.199 206.312 312.687 192.958C302.413 183.378 296.637 194.82 299.574 201.29C304.638 221.22 332.477 226.813 360.623 220.393C371.503 218.523 365.31 228.597 361.933 230.587C350.146 239.232 329.087 247.671 310.511 230.487C302.057 223.86 296.287 229.452 299.476 239.026C307.672 264.078 339.159 258.8 360.776 246.48C366.343 243.32 371.4 250.675 364.62 256.317C337.743 275.52 324.33 275.727 312.178 268.323C296.993 262.216 295.674 279.458 304.687 285.101C314.71 291.414 340.22 286.706 358.9 274.643C366.95 268.53 367.298 278.11 362.24 281.891C340.017 301.508 331.263 306.629 308.126 303.476C296.636 302.542 296.79 317.036 305.852 322.68C318.149 330.39 342.242 317.558 360.922 301.714C368.819 297.42 370.088 304.461 366.189 312.793C354.799 327.545 344.069 336.24 333.739 340.278C323.416 344.265 313.497 343.645 306.459 341.162C297.906 338.159 296.606 350.609 301.548 355.551C305.651 359.579 316.224 362.121 329.031 357.519C341.789 352.861 355.51 342.039 364.92 329.307C373.074 321.952 372.062 331.839 368.365 338.723C349.483 369.218 332.275 380.503 309.548 378.585C299.476 376.88 297.195 384.848 303.626 392.252C314.864 401.825 328.982 401.519 341.286 392.095C352.266 381.274 373.226 358.033 384.206 345.557C391.949 339.244 394.433 345.457 392.159 358.29C390.079 365.645 384.919 373.356 370.793 378.998C361.173 384.641 368.413 392.408 375.606 392.508C379.603 392.616 387.653 387.851 393.826 380.76C401.973 371.387 402.434 365.124 406.933 350.579C411.139 343.488 418.679 346.805 418.679 354.202C415.087 368.805 411.948 371.387 404.659 377.392C397.619 384.07 409.521 386.352 413.518 383.557C425.111 375.581 429.358 365.281 433.208 355.857C435.992 349.081 444.091 352.391 440.345 363.469C431.389 389.919 416.608 400.327 390.792 405.656C388.155 406.176 386.257 408.683 387.498 410.835C390.938 414.509 394.433 417.875 397.878 421.5C397.878 421.5 368.943 428.923 352.967 433.69L330.957 418.715C332.387 413.26 322.964 406.689 315.813 412.105C307.974 408.404 303.635 410.032 300.555 415.487C306.531 413.501 309.567 414.876 312.029 417.802C313.764 424.426 322.429 428.479 328.604 424.832L345.147 436.612L317.267 435.836C315.272 428.225 301.462 428.193 297.645 434.954C292.625 434.954 289.275 437.761 287.555 444.327C293.015 440.269 295.382 440.757 298.181 441.524C301.457 447.327 312.687 447.024 315.793 441.524L342.564 442.274L326.924 451.254C317.917 445.937 306.282 453.921 308.457 462.224C304.667 465.374 304.161 469.909 306.582 476.331C307.89 471.878 310.376 467.714 314.242 465.313C322.442 467.56 330.326 464.925 330.326 456.603L352.066 444.296L373.586 452.754C373.586 458.509 382.171 462.859 389.54 459.811C394.703 460.426 395.437 465.051 396.297 468.611C399.117 463.498 399.643 458.199 393.107 453.679C393.107 447.062 384.771 442.949 377.864 446.764L359.622 440.281C376.005 434.941 406.091 429.536 406.091 429.536C410.192 433.466 413.468 436.358 417.571 439.876C419.747 441.223 422.823 441.152 426.171 436.779C436.397 421.606 446.065 393.986 460.846 390.184C466.28 388.784 472.816 392.466 471.428 404.622C469.314 423.104 455.788 438.47 438.776 449.969C429.31 456.282 425.313 453.493 417.975 453.129C408.509 454.213 405.977 458.922 413.775 465.449C421.009 469.279 427.538 469.793 432.805 468.759C437.36 467.931 442.675 461.925 446.47 458.665C450.725 453.643 457.812 459.599 453.006 465.499C444.244 476.163 435.441 483.154 424.656 482.997C413.266 484.602 415.394 491.122 422.934 494.282C436.502 500.025 448.799 489.31 454.98 482.219C459.786 476.891 463.232 476.684 462.367 484.966C457.609 500.025 451.08 505.874 440.45 506.602C431.842 505.824 431.744 512.608 438.022 517.216C452.392 527.36 462.82 510.068 467.682 499.611C471.121 490.138 476.442 494.646 476.994 502.407C477.099 512.815 469.644 523.613 463.494 528.945C457.346 534.279 490.002 568.181 490.002 568.181C490.002 568.181 522.659 534.277 516.511 528.944L516.512 528.945ZM560.275 145.005C555.192 145.005 552.052 146.785 552.052 148.945C552.052 151.139 555.192 152.927 560.275 152.927C565.328 152.927 568.537 150.977 568.537 148.78C568.537 146.62 565.327 145.005 560.275 145.005ZM419.731 145.005C424.814 145.005 427.954 146.785 427.954 148.945C427.954 151.139 424.814 152.927 419.731 152.927C414.678 152.927 411.469 150.977 411.469 148.78C411.469 146.62 414.679 145.005 419.731 145.005Z" fill="#DDDDDD"/>
    </g>
    <defs>
        <clipPath id="clip0_1978_12601">
            <rect width="980" height="700" fill="white"/>
        </clipPath>
    </defs>
</svg>
