<svg xmlns="http://www.w3.org/2000/svg" width="1416" height="1000" fill="none" viewBox="0 0 1416 1000">
  <g id="alaska" clip-path="url(#clip0_969_5780)">
    <path id="1" fill="#EEE" d="M0 0h1416v1000H0V0Z"/>
    <g id="2">
      <g id="Group">
        <g id="b">
          <path id="a" fill="#DDD" d="m1158 130-17.77 54.676 27.34 8.883L1158 130Z"/>
          <path id="a_2" fill="#DDD" d="m1158 130 17.76 54.676-27.34 8.883L1158 130Z"/>
        </g>
        <g id="b_2">
          <path id="a_3" fill="#DDD" d="M1212.67 169.727h-57.49v28.744l57.49-28.744Z"/>
          <path id="a_4" fill="#DDD" d="m1212.67 169.727-46.51 33.791-16.89-23.255 63.4-10.536Z"/>
        </g>
        <g id="b_3">
          <path id="a_5" fill="#DDD" d="m1103.32 169.727 46.51 33.791 16.89-23.255-63.4-10.536Z"/>
          <path id="a_6" fill="#DDD" d="M1103.32 169.727h57.49v28.744l-57.49-28.744Z"/>
        </g>
        <g id="b_4">
          <path id="a_7" fill="#DDD" d="m1191.79 234-17.77-54.676-27.33 8.883 45.1 45.793Z"/>
          <path id="a_8" fill="#DDD" d="m1191.79 234-46.51-33.792 16.89-23.255L1191.79 234Z"/>
        </g>
        <g id="b_5">
          <path id="a_9" fill="#DDD" d="m1124.2 234 46.51-33.792-16.89-23.255L1124.2 234Z"/>
          <path id="a_10" fill="#DDD" d="m1124.2 234.008 17.77-54.676 27.34 8.882-45.11 45.794Z"/>
        </g>
      </g>
      <g id="c">
        <path id="Vector" fill="#DDD" d="m228.995 365-10.59 32.593 16.313 5.313L228.995 365Z"/>
        <path id="a_11" fill="#DDD" d="m228.995 365 10.591 32.595-16.298 5.296L228.995 365Z"/>
        <g id="b_6">
          <path id="a_12" fill="#DDD" d="M261.592 388.68h-34.273v17.136l34.273-17.136Z"/>
          <path id="a_13" fill="#DDD" d="m261.591 388.68-27.727 20.145-10.072-13.864 37.799-6.281Z"/>
        </g>
        <g id="b_7">
          <path id="a_14" fill="#DDD" d="m196.398 388.68 27.728 20.145 10.072-13.864-37.8-6.281Z"/>
          <path id="a_15" fill="#DDD" d="M196.398 388.68h34.273v17.136l-34.273-17.136Z"/>
        </g>
        <g id="b_8">
          <path id="a_16" fill="#DDD" d="m249.141 427.008-10.591-32.596-16.298 5.296 26.889 27.3Z"/>
          <path id="a_17" fill="#DDD" d="m249.141 427.008-27.727-20.145 10.072-13.864 17.655 34.009Z"/>
        </g>
        <g id="b_9">
          <path id="a_18" fill="#DDD" d="m208.849 427 27.727-20.145-10.072-13.864L208.849 427Z"/>
          <path id="a_19" fill="#DDD" d="m208.849 427 10.591-32.595 16.298 5.295-26.889 27.3Z"/>
        </g>
      </g>
      <g id="c_2">
        <path id="Vector_2" fill="#DDD" d="m395.995 427-10.59 32.593 16.313 5.313L395.995 427Z"/>
        <path id="a_20" fill="#DDD" d="m395.995 427 10.591 32.595-16.298 5.296L395.995 427Z"/>
        <g id="b_10">
          <path id="a_21" fill="#DDD" d="M428.592 450.68h-34.273v17.136l34.273-17.136Z"/>
          <path id="a_22" fill="#DDD" d="m428.591 450.68-27.727 20.145-10.072-13.864 37.799-6.281Z"/>
        </g>
        <g id="b_11">
          <path id="a_23" fill="#DDD" d="m363.398 450.68 27.728 20.145 10.072-13.864-37.8-6.281Z"/>
          <path id="a_24" fill="#DDD" d="M363.398 450.68h34.273v17.136l-34.273-17.136Z"/>
        </g>
        <g id="b_12">
          <path id="a_25" fill="#DDD" d="m416.141 489.008-10.591-32.596-16.298 5.296 26.889 27.3Z"/>
          <path id="a_26" fill="#DDD" d="m416.141 489.008-27.727-20.145 10.072-13.864 17.655 34.009Z"/>
        </g>
        <g id="b_13">
          <path id="a_27" fill="#DDD" d="m375.849 489 27.727-20.145-10.072-13.864L375.849 489Z"/>
          <path id="a_28" fill="#DDD" d="m375.849 489 10.591-32.595 16.298 5.295-26.889 27.3Z"/>
        </g>
      </g>
      <g id="c_3">
        <path id="Vector_3" fill="#DDD" d="m478.995 516-10.59 32.593 16.313 5.313L478.995 516Z"/>
        <path id="a_29" fill="#DDD" d="m478.995 516 10.591 32.595-16.298 5.296L478.995 516Z"/>
        <g id="b_14">
          <path id="a_30" fill="#DDD" d="M511.592 539.68h-34.273v17.136l34.273-17.136Z"/>
          <path id="a_31" fill="#DDD" d="m511.592 539.68-27.728 20.145-10.072-13.864 37.8-6.281Z"/>
        </g>
        <g id="b_15">
          <path id="a_32" fill="#DDD" d="m446.398 539.68 27.728 20.145 10.072-13.864-37.8-6.281Z"/>
          <path id="a_33" fill="#DDD" d="M446.398 539.68h34.273v17.136l-34.273-17.136Z"/>
        </g>
        <g id="b_16">
          <path id="a_34" fill="#DDD" d="m499.141 578.008-10.591-32.596-16.298 5.296 26.889 27.3Z"/>
          <path id="a_35" fill="#DDD" d="m499.141 578.008-27.727-20.145 10.072-13.864 17.655 34.009Z"/>
        </g>
        <g id="b_17">
          <path id="a_36" fill="#DDD" d="m458.849 578 27.727-20.145-10.072-13.864L458.849 578Z"/>
          <path id="a_37" fill="#DDD" d="m458.849 578 10.591-32.595 16.298 5.295-26.889 27.3Z"/>
        </g>
      </g>
      <g id="c_4">
        <path id="Vector_4" fill="#DDD" d="m562.995 609-10.59 32.593 16.313 5.313L562.995 609Z"/>
        <path id="a_38" fill="#DDD" d="m562.995 609 10.591 32.595-16.298 5.296L562.995 609Z"/>
        <g id="b_18">
          <path id="a_39" fill="#DDD" d="M595.592 632.68h-34.273v17.136l34.273-17.136Z"/>
          <path id="a_40" fill="#DDD" d="m595.591 632.68-27.727 20.145-10.072-13.864 37.799-6.281Z"/>
        </g>
        <g id="b_19">
          <path id="a_41" fill="#DDD" d="m530.398 632.68 27.728 20.145 10.072-13.864-37.8-6.281Z"/>
          <path id="a_42" fill="#DDD" d="M530.398 632.68h34.273v17.136l-34.273-17.136Z"/>
        </g>
        <g id="b_20">
          <path id="a_43" fill="#DDD" d="m583.141 671.008-10.591-32.596-16.298 5.296 26.889 27.3Z"/>
          <path id="a_44" fill="#DDD" d="m583.141 671.008-27.727-20.145 10.072-13.864 17.655 34.009Z"/>
        </g>
        <g id="b_21">
          <path id="a_45" fill="#DDD" d="m542.849 671 27.727-20.145-10.072-13.864L542.849 671Z"/>
          <path id="a_46" fill="#DDD" d="m542.849 671 10.591-32.595 16.298 5.295-26.889 27.3Z"/>
        </g>
      </g>
      <g id="c_5">
        <path id="Vector_5" fill="#DDD" d="m812.995 698-10.59 32.593 16.313 5.313L812.995 698Z"/>
        <path id="a_47" fill="#DDD" d="m812.995 698 10.591 32.595-16.298 5.296L812.995 698Z"/>
        <g id="b_22">
          <path id="a_48" fill="#DDD" d="M845.592 721.68h-34.273v17.136l34.273-17.136Z"/>
          <path id="a_49" fill="#DDD" d="m845.591 721.68-27.727 20.145-10.072-13.864 37.799-6.281Z"/>
        </g>
        <g id="b_23">
          <path id="a_50" fill="#DDD" d="m780.398 721.68 27.728 20.145 10.072-13.864-37.8-6.281Z"/>
          <path id="a_51" fill="#DDD" d="M780.398 721.68h34.273v17.136l-34.273-17.136Z"/>
        </g>
        <g id="b_24">
          <path id="a_52" fill="#DDD" d="m833.141 760.008-10.591-32.596-16.298 5.296 26.889 27.3Z"/>
          <path id="a_53" fill="#DDD" d="m833.141 760.008-27.727-20.145 10.072-13.864 17.655 34.009Z"/>
        </g>
        <g id="b_25">
          <path id="a_54" fill="#DDD" d="m792.849 760 27.727-20.145-10.072-13.864L792.849 760Z"/>
          <path id="a_55" fill="#DDD" d="m792.849 760 10.591-32.595 16.298 5.295-26.889 27.3Z"/>
        </g>
      </g>
      <g id="c_6">
        <path id="Vector_6" fill="#DDD" d="m551.995 740-10.59 32.593 16.313 5.313L551.995 740Z"/>
        <path id="a_56" fill="#DDD" d="m551.995 740 10.591 32.595-16.298 5.296L551.995 740Z"/>
        <g id="b_26">
          <path id="a_57" fill="#DDD" d="M584.592 763.68h-34.273v17.136l34.273-17.136Z"/>
          <path id="a_58" fill="#DDD" d="m584.591 763.68-27.727 20.145-10.072-13.864 37.799-6.281Z"/>
        </g>
        <g id="b_27">
          <path id="a_59" fill="#DDD" d="m519.398 763.68 27.728 20.145 10.072-13.864-37.8-6.281Z"/>
          <path id="a_60" fill="#DDD" d="M519.398 763.68h34.273v17.136l-34.273-17.136Z"/>
        </g>
        <g id="b_28">
          <path id="a_61" fill="#DDD" d="m572.141 802.008-10.591-32.596-16.298 5.296 26.889 27.3Z"/>
          <path id="a_62" fill="#DDD" d="m572.141 802.008-27.727-20.145 10.072-13.864 17.655 34.009Z"/>
        </g>
        <g id="b_29">
          <path id="a_63" fill="#DDD" d="m531.849 802 27.727-20.145-10.072-13.864L531.849 802Z"/>
          <path id="a_64" fill="#DDD" d="m531.849 802 10.591-32.595 16.298 5.295-26.889 27.3Z"/>
        </g>
      </g>
      <g id="c_7">
        <path id="Vector_7" fill="#DDD" d="m739.995 802-10.59 32.593 16.313 5.313L739.995 802Z"/>
        <path id="a_65" fill="#DDD" d="m739.995 802 10.591 32.595-16.298 5.296L739.995 802Z"/>
        <g id="b_30">
          <path id="a_66" fill="#DDD" d="M772.592 825.68h-34.273v17.136l34.273-17.136Z"/>
          <path id="a_67" fill="#DDD" d="m772.591 825.68-27.727 20.145-10.072-13.864 37.799-6.281Z"/>
        </g>
        <g id="b_31">
          <path id="a_68" fill="#DDD" d="m707.398 825.68 27.728 20.145 10.072-13.864-37.8-6.281Z"/>
          <path id="a_69" fill="#DDD" d="M707.398 825.68h34.273v17.136l-34.273-17.136Z"/>
        </g>
        <g id="b_32">
          <path id="a_70" fill="#DDD" d="m760.141 864.008-10.591-32.596-16.298 5.296 26.889 27.3Z"/>
          <path id="a_71" fill="#DDD" d="m760.141 864.008-27.727-20.145 10.072-13.864 17.655 34.009Z"/>
        </g>
        <g id="b_33">
          <path id="a_72" fill="#DDD" d="m719.849 864 27.727-20.145-10.072-13.864L719.849 864Z"/>
          <path id="a_73" fill="#DDD" d="m719.849 864 10.591-32.595 16.298 5.295-26.889 27.3Z"/>
        </g>
      </g>
    </g>
  </g>
  <defs>
    <clipPath id="clip0_969_5780">
      <path fill="#fff" d="M0 0h1416v1000H0z"/>
    </clipPath>
  </defs>
</svg>
