<svg width="900" height="600" viewBox="0 0 900 600" fill="none"
    xmlns="http://www.w3.org/2000/svg">
    <g clip-path="url(#clip0_2029_149)">
        <path id="2" d="M0 300H900V600H0V300Z" fill="#DDDDDD"/>
        <path id="1" d="M0 0H900V300H0V0Z" fill="#EDEDF0"/>
        <g id="3">
            <path fill-rule="evenodd" clip-rule="evenodd" d="M390.858 205.799H427.502L438.614 171.262L450.024 205.799H486.664L457.231 227.725L468.64 262.86L438.614 241.536L408.883 262.86L420.293 227.725L390.858 205.799Z" fill="#CCCCCC"/>
            <path fill-rule="evenodd" clip-rule="evenodd" d="M524.801 394.708L495.974 372.178C525.101 348.454 544.026 312.114 544.026 271.573C544.026 209.707 499.882 157.749 441.615 145.436L446.119 124.411C454.229 126.214 463.743 129.628 471.551 132.327L479.061 119.719C487.161 123.619 496.179 127.522 503.682 132.327L497.979 145.845C505.489 150.653 514.554 158.096 519.595 163.957L530.872 155.148C536.88 161.752 544.09 168.655 549.195 175.869L538.984 186.381C545.578 196.061 548.127 200.516 552.988 211.668L567.315 208.308C570.021 216.716 574.129 227.01 575.635 235.716L562.069 241.048C563.689 247.814 565.787 259.632 565.652 269.573C565.641 270.171 565.596 270.849 565.596 271.451L579.763 273.472C579.163 282.184 578.866 292.097 577.059 300.805H562.345C560.245 309.81 557.535 320.825 554.235 329.23L566.543 336.443C562.642 344.248 558.743 353.56 553.635 361.069L540.121 355.366C535.011 362.871 529.311 370.076 523.003 376.687L531.709 388.097C529.311 390.197 527.207 392.302 524.801 394.707M461.439 392.003L483.211 405.123C481.181 406.98 475.099 410.129 473.487 410.767L477.047 424.433C468.64 427.141 459.627 431.041 450.323 432.845L444.918 419.332C436.208 421.132 427.502 422.332 418.491 422.332L416.684 436.446C408.278 435.848 398.067 436.446 388.756 434.344V420.234C380.345 418.728 372.237 416.628 364.432 413.922L357.522 426.244C350.315 423.234 340.706 419.629 332.894 414.828L338.002 401.314C331.692 398.007 325.987 393.805 320.582 389.594L334.097 372.476C356.323 390.198 384.25 400.704 414.884 400.704C431.105 400.704 447.016 398.007 461.439 392.004" fill="#CCCCCC"/>
            <path fill-rule="evenodd" clip-rule="evenodd" d="M552.192 426.813L408.462 317.432L407.152 319.298L550.512 428.871L542.003 439.518L402.25 349.878C364.411 326.152 365.913 307.534 373.722 287.412L380.33 271.195C383.935 292.218 405.553 308.139 428.078 325.853L554.992 423.35L552.192 426.813ZM588.276 459.413C587.983 459.413 587.692 459.355 587.421 459.242C587.15 459.13 586.903 458.965 586.696 458.757C586.489 458.549 586.325 458.302 586.213 458.031C586.102 457.759 586.045 457.468 586.046 457.175C586.046 456.882 586.103 456.592 586.215 456.321C586.327 456.05 586.491 455.804 586.698 455.597C586.906 455.389 587.152 455.225 587.422 455.113C587.693 455 587.983 454.943 588.276 454.943C589.513 454.943 590.516 455.943 590.516 457.175C590.516 457.469 590.458 457.76 590.346 458.032C590.233 458.304 590.068 458.551 589.86 458.759C589.652 458.967 589.405 459.131 589.133 459.244C588.862 459.356 588.57 459.413 588.276 459.413ZM579.686 453.106C579.093 453.105 578.525 452.869 578.106 452.45C577.687 452.031 577.45 451.463 577.449 450.871C577.449 450.428 577.58 449.996 577.825 449.628C578.071 449.261 578.42 448.974 578.828 448.804C579.237 448.635 579.686 448.59 580.12 448.677C580.554 448.763 580.953 448.975 581.265 449.288C581.578 449.601 581.791 449.999 581.878 450.433C581.964 450.866 581.92 451.316 581.751 451.724C581.582 452.133 581.296 452.483 580.928 452.728C580.561 452.974 580.128 453.106 579.686 453.106ZM570.896 446.1C569.664 446.1 568.66 445.1 568.66 443.869C568.677 443.288 568.92 442.736 569.338 442.331C569.755 441.926 570.314 441.7 570.895 441.7C571.476 441.7 572.035 441.926 572.452 442.331C572.87 442.736 573.113 443.288 573.13 443.869C573.13 445.1 572.13 446.1 570.896 446.1ZM600.45 458.5L557.385 425.135L544.871 441.262L582.281 467.497C585.286 469.597 585.581 479.215 596.688 480.719C601.201 481.315 604.196 478.009 604.196 478.009C609.036 472.117 607.717 464.007 600.45 458.5Z" fill="#CCCCCC"/>
        </g>
    </g>
    <defs>
        <clipPath id="clip0_2029_149">
            <rect width="900" height="600" fill="white"/>
        </clipPath>
    </defs>
</svg>
