<svg xmlns="http://www.w3.org/2000/svg" width="450" height="300" fill="none" viewBox="0 0 450 300">
  <g id="arkansas" clip-path="url(#clip0_1030_1386)">
    <path id="1" fill="#EEE" d="M0 0h450v300H0V0Z"/>
    <path id="2" fill="#DDD" d="M37.5 148.84 224.225 275 412.5 148.595 224.225 25 37.5 148.84Z"/>
    <path id="3" fill="#EEE" d="M84 149.128 224.417 244 366 148.944 224.417 56 84 149.128Z"/>
    <path id="Vector" fill="#002868" d="M148.175 145.016h7.835l1.36 4.376h4.82l-7.48-21.228h-5.116l-7.568 21.228h4.671l1.478-4.376Zm3.903-12.063h.059l2.631 8.397h-5.41l2.72-8.397Zm12.97 16.439h4.345v-8.308h4.583c1.58-.014 2.567.294 2.96.924.394.629.56 1.661.499 3.097.001 1.073.043 1.935.126 2.587.082.651.198 1.218.347 1.7h4.908v-.562c-.454-.138-.73-.499-.828-1.083-.098-.585-.138-1.633-.118-3.145-.003-1.91-.233-3.206-.691-3.888-.457-.682-1.124-1.18-2-1.493 1.056-.375 1.865-1.014 2.428-1.918.564-.904.848-1.95.854-3.138.022-.65-.137-1.44-.477-2.37-.34-.93-.994-1.757-1.963-2.483-.966-.726-2.38-1.108-4.242-1.148h-10.732l.001 21.228Zm4.345-11.886v-5.676h5.529c1.268.045 2.11.368 2.528.968.418.6.61 1.203.576 1.811.002 1.039-.282 1.784-.85 2.236-.568.451-1.428.671-2.58.661h-5.203Zm21.78 4.701 2.07-2.128 6.563 9.313h5.706l-9.165-12.536 8.662-8.692h-5.735l-8.101 8.633v-8.633h-4.435v21.228h4.435v-7.185Zm21.1 2.809h7.834l1.36 4.376h4.82l-7.48-21.228h-5.115l-7.569 21.228h4.671l1.479-4.376Zm3.902-12.063h.06l2.63 8.397h-5.41l2.72-8.397Zm25.919 9.993h-.06l-8.425-14.782h-4.672v21.228h4.14v-15.138h.059l8.662 15.138h4.435v-21.228h-4.14l.001 14.782Zm7.322-.088c-.03.916.18 1.919.632 3.009.454 1.09 1.337 2.033 2.649 2.831 1.314.798 3.246 1.216 5.796 1.255.69.032 1.689-.095 2.997-.382 1.309-.288 2.514-.93 3.614-1.926 1.102-.997 1.688-2.544 1.756-4.64-.05-1.862-.614-3.201-1.693-4.017-1.077-.816-2.366-1.379-3.866-1.689l-5.174-1.27a4.116 4.116 0 0 1-1.456-.566c-.488-.298-.752-.849-.79-1.652.048-.947.453-1.611 1.215-1.992a5.29 5.29 0 0 1 2.48-.55c1.868.073 3.062.486 3.581 1.24.52.754.775 1.405.765 1.952h4.258c.009-.904-.229-1.882-.714-2.934-.485-1.054-1.33-1.962-2.534-2.725-1.204-.763-2.881-1.163-5.03-1.2-2.27.036-3.996.426-5.178 1.168-1.773 1.113-1.981 1.616-2.398 2.62-.416 1.005-.611 1.92-.585 2.746.067 2.253.762 3.777 2.085 4.571 1.324.794 2.876 1.349 4.656 1.667l2.277.532c1.143.239 2.064.537 2.764.895.7.356 1.06.935 1.08 1.737-.054 1.097-.531 1.836-1.431 2.217-.9.38-1.901.557-3.005.532-1.88-.07-3.109-.493-3.688-1.271-.578-.779-.847-1.498-.805-2.158h-4.258Zm25.337 2.158h7.835l1.36 4.376h4.819l-7.48-21.228h-5.115l-7.569 21.228h4.672l1.478-4.376Zm3.902-12.063h.06l2.63 8.397h-5.41l2.72-8.397Zm11.876 9.905c-.032.916.179 1.919.632 3.009.452 1.09 1.335 2.033 2.648 2.831 1.314.798 3.246 1.216 5.796 1.255.69.032 1.689-.095 2.997-.382 1.31-.288 2.515-.93 3.615-1.926 1.101-.997 1.686-2.544 1.755-4.64-.05-1.862-.614-3.201-1.692-4.017-1.078-.816-2.366-1.379-3.866-1.689l-5.174-1.27a4.116 4.116 0 0 1-1.456-.566c-.49-.298-.753-.849-.79-1.652.048-.947.453-1.611 1.215-1.992a5.29 5.29 0 0 1 2.48-.55c1.869.073 3.062.486 3.58 1.24.52.754.776 1.405.766 1.952h4.257c.01-.904-.228-1.882-.714-2.934-.485-1.054-1.33-1.962-2.534-2.725-1.203-.763-2.88-1.163-5.03-1.2-2.269.036-3.995.426-5.177 1.168-1.182.742-1.982 1.616-2.398 2.62-.416 1.005-.611 1.92-.585 2.746.067 2.253.762 3.777 2.084 4.571 1.324.794 2.876 1.349 4.657 1.667l2.276.532c1.144.239 2.065.537 2.765.895.7.356 1.06.935 1.079 1.737-.053 1.097-.53 1.836-1.43 2.217-.9.38-1.901.557-3.005.532-1.88-.07-3.109-.493-3.688-1.271-.58-.779-.848-1.498-.806-2.158h-4.257Z"/>
    <path id="Vector_2" fill="#fff" d="m229.484 49.981-5.521-4L218.452 50l2.095-6.491-5.522-4.004 6.815-.012 2.1-6.493 2.118 6.484 6.818-.01-5.507 4.02 2.116 6.487h-.001Z"/>
    <path id="Vector_3" fill="#002868" d="M234.964 190 225 197.081l-9.976-7.075 3.81 11.453-9.966 7.088 12.319-.003L225.004 220l3.804-11.454 12.324-.009-9.968-7.076 3.8-11.461Z"/>
    <path id="a" fill="#002868" d="m202.7 190-9.965-7.081-9.976 7.075 3.81-11.453-9.965-7.088 12.319.003L192.74 160l3.803 11.454 12.325.009-9.968 7.076L202.7 190Z"/>
    <path id="b" fill="#fff" d="m215.981 243.539-4 5.521 4.019 5.511-6.491-2.095-4.004 5.522-.012-6.815-6.493-2.099 6.484-2.118-.01-6.818 4.02 5.507 6.487-2.116Z"/>
    <path id="c" fill="#fff" d="m233.019 243.539 4 5.521-4.019 5.511 6.491-2.095 4.004 5.522.012-6.815 6.493-2.099-6.484-2.118.01-6.818-4.02 5.507-6.487-2.116Z"/>
    <path id="a_2" fill="#002868" d="m267.228 190-9.965-7.081-9.976 7.075 3.81-11.453-9.965-7.088 12.319.003L257.268 160l3.803 11.454 12.325.009-9.968 7.076 3.8 11.461Z"/>
    <path id="a_3" fill="#002868" d="m234.964 105-9.965-7.081-9.976 7.075 3.81-11.453-9.965-7.088 12.319.003L225.004 75l3.803 11.454 12.325.009-9.968 7.076 3.8 11.461Z"/>
    <path id="b_2" fill="#fff" d="m367.459 124.539-4 5.521 4.019 5.511-6.491-2.095-4.004 5.522-.012-6.815-6.493-2.099 6.484-2.118-.01-6.818 4.02 5.507 6.487-2.116Z"/>
    <path id="b_3" fill="#fff" d="m340.459 106.539-4 5.521 4.019 5.511-6.491-2.095-4.004 5.522-.012-6.815-6.493-2.099 6.484-2.118-.01-6.818 4.02 5.507 6.487-2.116Z"/>
    <path id="b_4" fill="#fff" d="m313.459 88.54-4 5.52 4.019 5.511-6.491-2.095-4.004 5.522-.012-6.815-6.493-2.099 6.484-2.118-.01-6.818 4.02 5.507 6.487-2.116Z"/>
    <path id="b_5" fill="#fff" d="m286.459 71.54-4 5.52 4.019 5.511-6.491-2.095-4.004 5.522-.012-6.815-6.493-2.099 6.484-2.118-.01-6.818 4.02 5.507 6.487-2.116Z"/>
    <path id="b_6" fill="#fff" d="m259.459 53.54-4 5.52 4.019 5.511-6.491-2.095-4.004 5.522-.012-6.815-6.493-2.099 6.484-2.118-.01-6.818 4.02 5.507 6.487-2.116Z"/>
    <path id="b_7" fill="#fff" d="m95.981 161.539-4 5.521L96 172.571l-6.491-2.095-4.004 5.522-.012-6.815L79 167.084l6.484-2.118-.01-6.818 4.02 5.507 6.487-2.116Z"/>
    <path id="b_8" fill="#fff" d="m119.981 177.539-4 5.521 4.019 5.511-6.491-2.095-4.004 5.522-.012-6.815-6.493-2.099 6.484-2.118-.01-6.818 4.02 5.507 6.487-2.116Z"/>
    <path id="b_9" fill="#fff" d="m143.981 193.539-4 5.521 4.019 5.511-6.491-2.095-4.004 5.522-.012-6.815-6.493-2.099 6.484-2.118-.01-6.818 4.02 5.507 6.487-2.116Z"/>
    <path id="b_10" fill="#fff" d="m167.981 210.539-4 5.521 4.019 5.511-6.491-2.095-4.004 5.522-.012-6.815-6.493-2.099 6.484-2.118-.01-6.818 4.02 5.507 6.487-2.116Z"/>
    <path id="b_11" fill="#fff" d="m191.981 226.539-4 5.521 4.019 5.511-6.491-2.095-4.004 5.522-.012-6.815-6.493-2.099 6.484-2.118-.01-6.818 4.02 5.507 6.487-2.116Z"/>
    <path id="b_12" fill="#fff" d="m71.981 144.469-4 5.521L72 155.501l-6.491-2.095-4.004 5.522-.012-6.815L55 150.014l6.484-2.118-.01-6.818 4.02 5.507 6.487-2.116Z"/>
    <path id="c_2" fill="#fff" d="m82.019 124.539 4 5.521L82 135.571l6.491-2.095 4.004 5.522.012-6.815L99 130.084l-6.484-2.118.01-6.818-4.02 5.507-6.487-2.116Z"/>
    <path id="c_3" fill="#fff" d="m109.019 106.539 4 5.521-4.019 5.511 6.491-2.095 4.004 5.522.012-6.815 6.493-2.099-6.484-2.118.01-6.818-4.02 5.507-6.487-2.116Z"/>
    <path id="c_4" fill="#fff" d="m136.019 88.54 4 5.52L136 99.571l6.491-2.095 4.004 5.522.012-6.815L153 94.084l-6.484-2.118.01-6.818-4.02 5.507-6.487-2.116Z"/>
    <path id="c_5" fill="#fff" d="m163.019 71.54 4 5.52L163 82.571l6.491-2.095 4.004 5.522.012-6.815L180 77.084l-6.484-2.118.01-6.818-4.02 5.507-6.487-2.116Z"/>
    <path id="c_6" fill="#fff" d="m190.019 53.54 4 5.52L190 64.571l6.491-2.095 4.004 5.522.012-6.815L207 59.084l-6.484-2.118.01-6.818-4.02 5.507-6.487-2.116Z"/>
    <path id="c_7" fill="#fff" d="m377.019 144.469 4 5.521-4.019 5.511 6.491-2.095 4.004 5.522.012-6.815 6.493-2.099-6.484-2.118.01-6.818-4.02 5.507-6.487-2.116Z"/>
    <path id="c_8" fill="#fff" d="m353.019 161.539 4 5.521-4.019 5.511 6.491-2.095 4.004 5.522.012-6.815 6.493-2.099-6.484-2.118.01-6.818-4.02 5.507-6.487-2.116Z"/>
    <path id="c_9" fill="#fff" d="m329.019 177.539 4 5.521-4.019 5.511 6.491-2.095 4.004 5.522.012-6.815 6.493-2.099-6.484-2.118.01-6.818-4.02 5.507-6.487-2.116Z"/>
    <path id="c_10" fill="#fff" d="m305.019 193.539 4 5.521-4.019 5.511 6.491-2.095 4.004 5.522.012-6.815 6.493-2.099-6.484-2.118.01-6.818-4.02 5.507-6.487-2.116Z"/>
    <path id="c_11" fill="#fff" d="m281.019 210.539 4 5.521-4.019 5.511 6.491-2.095 4.004 5.522.012-6.815 6.493-2.099-6.484-2.118.01-6.818-4.02 5.507-6.487-2.116Z"/>
    <path id="c_12" fill="#fff" d="m257.019 226.539 4 5.521-4.019 5.511 6.491-2.095 4.004 5.522.012-6.815 6.493-2.099-6.484-2.118.01-6.818-4.02 5.507-6.487-2.116Z"/>
  </g>
  <defs>
    <clipPath id="clip0_1030_1386">
      <path fill="#fff" d="M0 0h450v300H0z"/>
    </clipPath>
  </defs>
</svg>
