<svg width="1280" height="640" viewBox="0 0 1280 640" fill="none"
    xmlns="http://www.w3.org/2000/svg">
    <g clip-path="url(#clip0_1808_22)">
        <path id="1" d="M0 0H1280V640H0V0Z" fill="#EDEDF0"/>
        <mask id="mask0_1808_22" style="mask-type:luminance" maskUnits="userSpaceOnUse" x="0" y="0" width="640" height="321">
            <path d="M640 0H0V321H640V0Z" fill="white"/>
        </mask>
        <g mask="url(#mask0_1808_22)">
            <path d="M0 320V0H640V320H0Z" fill="#012169"/>
            <path d="M0 0L640 320M640 0L0 320" stroke="white" stroke-width="64"/>
            <mask id="mask1_1808_22" style="mask-type:luminance" maskUnits="userSpaceOnUse" x="0" y="0" width="747" height="374">
                <path d="M0 0V160H746.667V320H640L0 0ZM640 0H320V373.333H0V320L640 0Z" fill="white"/>
            </mask>
            <g mask="url(#mask1_1808_22)">
                <path d="M0 0L640 320M640 0L0 320" stroke="#E4002B" stroke-width="42.6667"/>
            </g>
            <path d="M320 0V373.333M0 160H746.667" stroke="white" stroke-width="106.667"/>
            <path d="M320 0V373.333M0 160H746.667" stroke="#E4002B" stroke-width="64"/>
        </g>
        <g id="2">
            <path d="M319.999 384L338.512 441.559L395.055 420.145L361.597 470.506L413.593 501.362L353.358 506.602L361.652 566.493L319.999 522.667L278.347 566.493L286.641 506.602L226.406 501.362L278.403 470.506L244.944 420.145L301.487 441.559L319.999 384Z" fill="#DDDDDD"/>
            <path d="M959.998 487.621L968.813 515.03L995.739 504.833L979.806 528.814L1004.57 543.508L975.883 546.003L979.833 574.522L959.998 553.653L940.163 574.523L944.113 546.003L915.43 543.508L940.19 528.814L924.257 504.833L951.182 515.03L959.998 487.621Z" fill="#DDDDDD"/>
            <path d="M799.998 234.285L808.813 261.694L835.739 251.497L819.806 275.478L844.566 290.172L815.883 292.667L819.833 321.186L799.998 300.317L780.163 321.187L784.113 292.667L755.43 290.172L780.19 275.478L764.257 251.497L791.182 261.694L799.998 234.285Z" fill="#DDDDDD"/>
            <path d="M959.998 60.9531L968.813 88.362L995.739 78.1651L979.806 102.146L1004.57 116.84L975.883 119.335L979.833 147.854L959.998 126.985L940.163 147.855L944.113 119.335L915.43 116.84L940.19 102.146L924.257 78.1651L951.182 88.362L959.998 60.9531Z" fill="#DDDDDD"/>
            <path d="M1102.22 191.621L1111.04 219.03L1137.96 208.833L1122.03 232.814L1146.79 247.508L1118.11 250.003L1122.06 278.522L1102.22 257.653L1082.39 278.523L1086.34 250.003L1057.65 247.508L1082.41 232.814L1066.48 208.833L1093.41 219.03L1102.22 191.621Z" fill="#DDDDDD"/>
            <path d="M1024 320L1030.96 337.078L1049.36 338.426L1035.27 350.329L1039.67 368.241L1024 358.519L1008.32 368.241L1012.73 350.329L998.637 338.426L1017.03 337.078L1024 320Z" fill="#DDDDDD"/>
        </g>
    </g>
    <defs>
        <clipPath id="clip0_1808_22">
            <rect width="1280" height="640" fill="white"/>
        </clipPath>
    </defs>
</svg>
