<svg width="1200" height="600" viewBox="0 0 1200 600" fill="none"
    xmlns="http://www.w3.org/2000/svg">
    <g clip-path="url(#clip0_1969_838)">
        <path id="3" d="M0 400H1200V600H0V400Z" fill="#EDEDF0"/>
        <path id="2" d="M0 200H1200V400H0V200Z" fill="#DDDDDD"/>
        <path id="1" d="M0 0H1200V200H0V0Z" fill="#EDEDF0"/>
        <g id="4">
            <path d="M651.898 354.145C635.471 375.922 609.38 390 580 390C530.294 390 490 349.706 490 300C490 250.294 530.294 210 580 210C609.38 210 635.471 224.078 651.898 245.855C638.424 232.938 620.139 225 600 225C558.579 225 525 258.579 525 300C525 341.421 558.579 375 600 375C620.139 375 638.424 367.062 651.898 354.145Z" fill="#EDEDF0"/>
            <path d="M680 250L689.567 276.903L715.355 264.645L703.097 290.433L730 300L703.097 309.567L715.355 335.355L689.567 323.097L680 350L670.433 323.097L644.645 335.355L656.903 309.567L630 300L656.903 290.433L644.645 264.645L670.433 276.903L680 250Z" fill="#EDEDF0"/>
        </g>
    </g>
    <defs>
        <clipPath id="clip0_1969_838">
            <rect width="1200" height="600" fill="white"/>
        </clipPath>
    </defs>
</svg>
