<svg width="800" height="400" viewBox="0 0 800 400" fill="none"
    xmlns="http://www.w3.org/2000/svg">
    <g clip-path="url(#clip0_2029_155)">
        <path id="1" d="M0 0H800V400H0V0Z" fill="#EDEDF0"/>
        <path id="2" d="M212 0H612V400L212 0Z" fill="#DDDDDD"/>
        <g id="3">
            <path d="M117.652 26.25L140.002 -42.5L162.352 26.25L103.852 -16.25H176.152L117.652 26.25Z" fill="#CCCCCC"/>
            <path d="M167.652 76.25L190.002 7.5L212.352 76.25L153.852 33.75H226.152L167.652 76.25Z" fill="#CCCCCC"/>
            <path d="M217.652 126.25L240.002 57.5L262.352 126.25L203.852 83.75H276.152L217.652 126.25Z" fill="#CCCCCC"/>
            <path d="M267.652 176.25L290.002 107.5L312.352 176.25L253.852 133.75H326.152L267.652 176.25Z" fill="#CCCCCC"/>
            <path d="M317.652 226.25L340.002 157.5L362.352 226.25L303.852 183.75H376.152L317.652 226.25Z" fill="#CCCCCC"/>
            <path d="M367.652 276.25L390.002 207.5L412.352 276.25L353.852 233.75H426.152L367.652 276.25Z" fill="#CCCCCC"/>
            <path d="M417.652 326.25L440.002 257.5L462.352 326.25L403.852 283.75H476.152L417.652 326.25Z" fill="#CCCCCC"/>
            <path d="M467.652 376.25L490.002 307.5L512.352 376.25L453.852 333.75H526.152L467.652 376.25Z" fill="#CCCCCC"/>
            <path d="M517.652 426.25L540.002 357.5L562.352 426.25L503.852 383.75H576.152L517.652 426.25Z" fill="#CCCCCC"/>
        </g>
    </g>
    <defs>
        <clipPath id="clip0_2029_155">
            <rect width="800" height="400" fill="white"/>
        </clipPath>
    </defs>
</svg>
