<svg width="1000" height="600" viewBox="0 0 1000 600" fill="none"
    xmlns="http://www.w3.org/2000/svg">
    <g clip-path="url(#clip0_2055_302)">
        <path id="1" d="M0 0H1000V600H0V0Z" fill="#EDEDF0"/>
        <path id="2" class="only-fill" d="M-100 -60V660L1100 -60V660L-100 -60Z" fill="#DDDDDD" stroke="white" stroke-width="80"/>
        <path d="M500 470C593.888 470 670 393.888 670 300C670 206.112 593.888 130 500 130C406.112 130 330 206.112 330 300C330 393.888 406.112 470 500 470Z" fill="white"/>
        <g id="3">
            <path d="M510.501 193.802H531.501L521.001 212.002L531.501 230.202H510.501L500.001 248.402L489.501 230.202H468.501L479.001 212.002L468.501 193.802H489.501L500.001 175.602L510.501 193.802Z" fill="#DDDDDD"/>
            <path d="M434.301 325.802H455.301L444.801 344.002L455.301 362.202H434.301L423.801 380.402L413.301 362.202H392.301L402.801 344.002L392.301 325.802H413.301L423.801 307.602L434.301 325.802Z" fill="#DDDDDD"/>
            <path d="M586.701 325.802H607.701L597.201 344.002L607.701 362.202H586.701L576.201 380.402L565.701 362.202H544.701L555.201 344.002L544.701 325.802H565.701L576.201 307.602L586.701 325.802Z" fill="#DDDDDD"/>
        </g>
        <path d="M510.501 193.802H531.501L521.001 212.002L531.501 230.202H510.501L500.001 248.402L489.501 230.202H468.501L479.001 212.002L468.501 193.802H489.501L500.001 175.602L510.501 193.802Z" stroke="#1EB53A" stroke-width="3.6"/>
        <path d="M434.301 325.802H455.301L444.801 344.002L455.301 362.202H434.301L423.801 380.402L413.301 362.202H392.301L402.801 344.002L392.301 325.802H413.301L423.801 307.602L434.301 325.802Z" stroke="#1EB53A" stroke-width="3.6"/>
        <path d="M586.701 325.802H607.701L597.201 344.002L607.701 362.202H586.701L576.201 380.402L565.701 362.202H544.701L555.201 344.002L544.701 325.802H565.701L576.201 307.602L586.701 325.802Z" stroke="#1EB53A" stroke-width="3.6"/>
    </g>
    <defs>
        <clipPath id="clip0_2055_302">
            <rect width="1000" height="600" fill="white"/>
        </clipPath>
    </defs>
</svg>
