<svg width="1440" height="720" viewBox="0 0 1440 720" fill="none"
    xmlns="http://www.w3.org/2000/svg">
    <g clip-path="url(#clip0_2000_12618)">
        <path id="1" d="M0 0H1440V720H0V0Z" fill="#EDEDF0"/>
        <path id="2" d="M0 50V370L1440 520V350L0 50Z" fill="#CCCCCC"/>
        <path id="3" d="M0 220V370L1440 670V520L0 220Z" fill="#DDDDDD"/>
        <path d="M695.738 569.716C676.378 567.146 658.628 560.986 646.298 552.546C643.908 550.906 641.658 549.566 641.308 549.566C640.948 549.566 640.658 551.386 640.658 553.636C640.658 560.006 638.098 563.216 631.658 564.886C625.498 566.486 616.098 563.256 608.478 556.936C600.588 550.386 591.478 545.386 583.768 543.386C577.418 541.726 568.988 541.996 562.898 544.036C560.068 544.986 556.848 546.326 555.728 547.016C554.618 547.706 553.368 548.266 552.968 548.266C551.888 548.266 552.038 541.416 553.168 539.226C554.658 536.356 558.328 533.526 562.608 531.966C564.768 531.176 566.538 530.166 566.538 529.716C566.538 529.266 565.808 527.616 564.918 526.066C562.018 520.986 563.208 516.066 568.268 512.196C573.448 508.236 582.218 507.556 589.968 510.506C591.918 511.246 593.738 511.856 594.008 511.856C595.028 511.856 594.408 510.426 591.598 506.336C588.358 501.596 587.718 499.256 588.118 493.616C588.638 486.476 594.458 480.636 601.588 480.116C607.408 479.696 611.028 481.656 619.618 489.836C645.268 514.296 673.158 527.776 705.688 531.426C713.898 532.346 730.418 531.856 740.108 530.396C769.378 525.986 798.868 511.266 821.898 489.576C828.278 483.566 831.348 481.976 836.578 481.956C841.128 481.936 844.318 483.406 847.578 487.006C850.548 490.306 851.558 493.436 851.238 498.446C851.028 501.656 850.508 503.236 848.598 506.346C845.778 510.936 846.258 511.356 851.838 509.196C859.378 506.256 868.668 507.616 873.678 512.376C878.088 516.566 878.508 520.756 875.078 526.436C873.828 528.516 872.808 530.466 872.808 530.776C872.808 531.346 873.758 531.616 878.338 532.356C884.328 533.316 887.758 537.766 887.758 544.566C887.758 546.606 887.508 548.266 887.198 548.266C886.898 548.266 884.628 547.436 882.158 546.416C875.178 543.536 871.208 542.796 863.048 542.846C856.838 542.886 854.698 543.176 850.368 544.586C843.738 546.756 836.648 550.936 830.868 556.086C824.498 561.766 820.488 563.556 814.288 563.506C808.528 563.446 804.588 561.776 802.508 558.486C801.398 556.726 801.238 555.656 801.508 551.676C801.688 549.086 801.648 546.966 801.438 546.966C801.218 546.966 798.978 548.386 796.448 550.136C789.808 554.696 785.578 556.956 777.978 559.966C754.798 569.136 721.348 573.106 695.738 569.716Z" fill="#CF1126"/>
        <path d="M706.339 525.165C667.759 521.462 630.845 501.367 608.4 469.508C584.03 436.273 576.35 392.391 583.789 352.268C587.743 334.001 595.718 315.722 609.333 302.714C598.483 325.717 594.817 352.083 600.603 377.004C609.593 426.757 651.639 468.874 701.943 476.16C721.843 481.921 742.43 475.836 761.439 469.667C803.374 454.887 835.319 415.084 839.216 370.587C842.552 346.51 838.856 321.474 828.009 299.672C834.192 302.941 841.996 315.759 846.599 324.379C862.601 355.382 863.332 392.534 853.911 425.619C841.131 467.716 808.946 504.597 766.4 518.001C747.092 524.309 726.558 526.232 706.342 525.168L706.339 525.165Z" fill="#CF1126"/>
        <path d="M512.019 469.893C509.491 469.497 506.703 471.985 507.656 474.59C509.479 477.223 512.62 478.51 515.454 479.77C522.246 482.492 529.634 483.552 536.925 483.375C534.412 483.369 537.788 483.401 538.727 483.375C544.501 483.392 550.243 482.351 555.671 480.395C558.689 479.333 562.535 478.37 563.771 475.032C564.978 472.857 562.791 470.685 560.586 471.121C557.514 471.791 554.642 473.185 551.596 473.978C545.024 475.832 538.102 476.548 531.293 475.99C526.313 475.382 521.489 473.79 516.883 471.847C515.286 471.142 513.787 470.114 512.018 469.893H512.019Z" fill="#CF1126"/>
        <path d="M514.83 459.518C512.274 459.138 510.072 462.078 511.138 464.426C513.103 467.274 516.405 468.791 519.494 470.125C524.864 472.273 530.698 473.172 536.469 473C534.278 472.994 537.222 473.026 538.034 473C542.949 473.001 547.815 472.039 552.359 470.168C555.133 469.09 558.529 468.044 559.684 464.991C560.58 463.314 559.896 460.875 557.784 460.744C555.855 460.648 554.191 461.876 552.406 462.427C545.921 465.108 538.784 466.245 531.792 465.641C527.435 465.081 523.272 463.473 519.322 461.611C517.837 460.893 516.501 459.775 514.83 459.518Z" fill="#CF1126"/>
        <path d="M518.279 449.566C516.089 449.303 514.581 451.775 514.95 453.748C515.277 455.481 516.833 456.646 518.12 457.708C523.448 461.606 530.202 463.266 536.745 463.048C534.204 463.039 540.155 463.09 538.34 463.041C542.484 463.024 546.578 462.011 550.306 460.216C552.795 459.134 555.717 457.88 556.556 455.039C556.957 453.715 557.208 451.812 555.715 451.069C554.151 450.195 552.598 451.539 551.176 452.085C546.387 454.522 541.051 455.878 535.669 455.853C531.019 456.01 526.636 454.053 522.601 451.946C521.137 451.2 519.93 449.903 518.279 449.566Z" fill="#CF1126"/>
        <path d="M481.529 302.695C478.272 305.955 480.759 311.966 480.583 316.238C482.271 329.396 484.368 342.722 489.28 355.108C495.295 367.21 508.07 373.681 515.813 384.376C518.58 389.531 517.598 395.731 518.181 401.37C518.639 416.736 518.497 432.113 518.228 447.481C525.167 450.963 532.702 454.467 540.684 453.128C545.414 451.998 554.196 451.296 555.18 446.585C554.797 420.085 554.55 393.575 554.197 367.079C551.507 358.96 543.246 354.759 537.068 349.564C531.974 344.531 527.233 339.152 522.88 333.465C520.258 329.048 510.012 327.456 513.719 335.142C515.892 341.796 521.439 346.752 522.828 353.744C523.131 357.575 527.705 364.623 523.801 366.858C521.317 362.636 517.719 359.043 513.119 356.9C508.687 353.596 501.36 352.22 499.76 346.383C498.585 338.103 494.345 330.601 488.873 324.397C490.283 316.961 488.878 307.66 482.45 302.907L481.529 302.695Z" fill="#CF1126"/>
        <path d="M491.441 304.188C488.478 304.665 488.579 308.441 489.95 310.426C491.408 314.714 491.805 319.372 491.016 323.836C496.283 330.002 500.363 337.378 501.592 345.475C501.622 348.519 504.825 349.526 506.901 351.03C511.772 354.132 517.249 356.381 521.587 360.263C522.5 361.239 523.189 362.29 522.544 360.298C521.867 357.751 521.518 354.94 519.523 353.013C516.788 350.073 513.373 347.45 509.39 346.553C509.058 342.439 507.098 338.66 505.288 335.021C503.282 331.542 501.186 327.816 497.748 325.56C497.886 319.462 497.786 313.064 495.162 307.438C494.392 305.992 493.259 304.274 491.442 304.188H491.441Z" fill="#CF1126"/>
        <path d="M499.729 306.617C497.665 307.23 498.059 309.776 498.713 311.333C499.702 315.649 499.857 320.107 499.776 324.517C503.567 327.517 505.939 331.867 508.098 336.104C509.451 338.934 510.734 341.855 511.253 344.969C514.329 345.987 517.021 347.915 519.424 350.046C518.472 347.164 516.348 344.933 514.92 342.302C513.369 339.565 511.887 336.71 511.23 333.609C508.272 330.452 506.643 325.979 507.289 321.657C507.422 316.881 505.879 311.947 502.683 308.347C501.878 307.554 500.917 306.677 499.729 306.617Z" fill="#CF1126"/>
        <path d="M509.158 307.962C508.036 308.16 507.353 309.228 506.752 310.099C506.519 310.972 507.589 311.911 507.76 312.859C509.077 316.166 509.563 319.746 509.176 323.285C509.09 325.787 509.985 328.231 511.26 330.35C511.628 328.787 513.076 327.663 514.646 327.51C515.217 327.409 516.057 327.698 515.724 326.827C515.325 322.041 514.596 317.229 512.924 312.707C512.275 311.093 511.539 309.393 510.14 308.287C509.856 308.086 509.517 307.913 509.158 307.962Z" fill="#CF1126"/>
        <path d="M927.981 469.893C930.509 469.497 933.297 471.985 932.344 474.59C930.521 477.223 927.38 478.51 924.546 479.77C917.754 482.492 910.366 483.552 903.075 483.375C905.588 483.369 902.212 483.401 901.273 483.375C895.499 483.392 889.757 482.351 884.329 480.395C881.311 479.333 877.465 478.37 876.229 475.032C875.022 472.857 877.209 470.685 879.414 471.121C882.486 471.791 885.358 473.185 888.404 473.978C894.976 475.832 901.898 476.548 908.707 475.99C913.687 475.382 918.511 473.79 923.117 471.847C924.714 471.142 926.213 470.114 927.982 469.893H927.981Z" fill="#CF1126"/>
        <path d="M925.17 459.518C927.726 459.138 929.928 462.078 928.862 464.426C926.897 467.274 923.595 468.791 920.506 470.125C915.136 472.273 909.302 473.172 903.531 473C905.722 472.994 902.778 473.026 901.966 473C897.051 473.001 892.185 472.039 887.641 470.168C884.867 469.09 881.471 468.044 880.316 464.991C879.42 463.314 880.104 460.875 882.216 460.744C884.145 460.648 885.809 461.876 887.594 462.427C894.079 465.108 901.216 466.245 908.208 465.641C912.565 465.081 916.728 463.473 920.678 461.611C922.163 460.893 923.499 459.775 925.17 459.518Z" fill="#CF1126"/>
        <path d="M921.721 449.566C923.911 449.303 925.419 451.775 925.05 453.748C924.723 455.481 923.167 456.646 921.88 457.708C916.552 461.606 909.798 463.266 903.255 463.048C905.796 463.039 899.845 463.09 901.66 463.041C897.516 463.024 893.422 462.011 889.694 460.216C887.205 459.134 884.283 457.88 883.444 455.039C883.043 453.715 882.792 451.812 884.285 451.069C885.849 450.195 887.402 451.539 888.824 452.085C893.613 454.522 898.949 455.878 904.331 455.853C908.981 456.01 913.364 454.053 917.399 451.946C918.863 451.2 920.07 449.903 921.721 449.566Z" fill="#CF1126"/>
        <path d="M958.471 302.695C961.728 305.955 959.241 311.966 959.417 316.238C957.729 329.396 955.632 342.722 950.72 355.108C944.705 367.21 931.93 373.681 924.187 384.376C921.42 389.531 922.402 395.731 921.819 401.37C921.361 416.736 921.503 432.113 921.772 447.481C914.833 450.963 907.298 454.467 899.316 453.128C894.586 451.998 885.804 451.296 884.82 446.585C885.203 420.085 885.45 393.575 885.803 367.079C888.493 358.96 896.754 354.759 902.932 349.564C908.026 344.531 912.767 339.152 917.12 333.465C919.742 329.048 929.988 327.456 926.281 335.142C924.108 341.796 918.561 346.752 917.172 353.744C916.869 357.575 912.295 364.623 916.199 366.858C918.683 362.636 922.281 359.043 926.881 356.9C931.313 353.596 938.64 352.22 940.24 346.383C941.415 338.103 945.655 330.601 951.127 324.397C949.717 316.961 951.122 307.66 957.55 302.907L958.471 302.695Z" fill="#CF1126"/>
        <path d="M948.559 304.188C951.522 304.665 951.421 308.441 950.05 310.426C948.592 314.714 948.195 319.372 948.984 323.836C943.717 330.002 939.637 337.378 938.408 345.475C938.378 348.519 935.175 349.526 933.099 351.03C928.228 354.132 922.751 356.381 918.413 360.263C917.5 361.239 916.811 362.29 917.456 360.298C918.133 357.751 918.482 354.94 920.477 353.013C923.212 350.073 926.627 347.45 930.61 346.553C930.942 342.439 932.902 338.66 934.712 335.021C936.718 331.542 938.814 327.816 942.252 325.56C942.114 319.462 942.214 313.064 944.838 307.438C945.608 305.992 946.741 304.274 948.558 304.188H948.559Z" fill="#CF1126"/>
        <path d="M940.271 306.617C942.335 307.23 941.941 309.776 941.287 311.333C940.298 315.649 940.143 320.107 940.224 324.517C936.433 327.517 934.061 331.867 931.902 336.104C930.549 338.934 929.266 341.855 928.747 344.969C925.671 345.987 922.979 347.915 920.576 350.046C921.528 347.164 923.652 344.933 925.08 342.302C926.631 339.565 928.113 336.71 928.77 333.609C931.728 330.452 933.357 325.979 932.711 321.657C932.578 316.881 934.121 311.947 937.317 308.347C938.122 307.554 939.083 306.677 940.271 306.617Z" fill="#CF1126"/>
        <path d="M930.842 307.962C931.964 308.16 932.647 309.228 933.248 310.099C933.481 310.972 932.411 311.911 932.24 312.859C930.923 316.166 930.437 319.746 930.824 323.285C930.91 325.787 930.015 328.231 928.74 330.35C928.372 328.787 926.924 327.663 925.354 327.51C924.783 327.409 923.943 327.698 924.276 326.827C924.675 322.041 925.404 317.229 927.076 312.707C927.725 311.093 928.461 309.393 929.86 308.287C930.144 308.086 930.483 307.913 930.842 307.962Z" fill="#CF1126"/>
        <path d="M715.669 475.98C702.176 474.695 690.002 464.86 685.84 451.98C686.064 449.761 688.827 453.221 690.132 453.454C692.582 454.814 695.232 455.934 698.052 456.108C701.61 457.637 703.809 461.143 707.204 462.971C708.781 464.199 714.359 466.611 713.323 462.707C712.016 460.667 711.117 458.082 712.242 455.745C714.134 451.595 717.044 447.982 719.972 444.519C722.125 443.799 723.567 448.046 725.106 449.476C727.237 452.755 729.806 456.756 728.553 460.828C727.333 462.337 726.532 466.875 729.794 465.35C733.816 463.58 737.11 460.608 740.445 457.833C743.364 455.794 747.099 455.65 750.158 453.863C751.575 453.503 754.528 450.668 755.144 452.24C753.468 456.728 750.662 460.747 747.662 464.451C742.802 470.001 736.23 474.176 728.876 475.353C724.53 476.149 720.07 476.316 715.669 475.98Z" fill="#CF1126"/>
        <path d="M731.529 460.222C731.826 457.514 731.209 454.749 729.826 452.287C727.703 447.961 724.705 444.121 721.78 440.327C719.023 438.711 717.493 443.984 715.66 445.497C712.803 449.774 709.217 454.154 709.043 459.533C707.436 462.035 704.439 457.493 703.147 455.998C700.679 452.507 698.811 448.378 699.117 444.011C698.825 436.975 700.174 429.97 702.737 423.43C704.672 417.847 707.813 412.424 707.494 406.325C707.718 401.735 706.786 396.667 703.068 393.58C699.53 390.804 705.359 390.212 707.211 391.652C710.379 391.864 712.093 397.1 714.988 395.804C716.141 393.069 716.37 389.807 718.748 387.674C721.081 384.478 723.52 389.03 724.318 391.162C725.966 393.035 724.226 397.669 726.901 397.79C730.107 395.543 732.393 391.768 736.492 390.946C738.155 389.997 740.996 390.819 738.804 392.731C735.77 395.575 733.178 399.131 732.625 403.361C731.697 408.669 733.025 414.051 735.338 418.831C739.784 428.221 743.223 438.828 740.974 449.276C739.931 453.92 736.776 457.921 732.942 460.616C732.458 460.909 731.692 460.889 731.529 460.222Z" fill="#CF1126"/>
        <path d="M726.73 389.625C725.274 387.001 723.506 384.415 721.057 382.63C718.676 382.625 717.207 385.629 715.589 387.203C714.455 389.313 713.077 392.841 710.284 390.083C705.84 387.489 705.054 381.807 705.082 377.124C704.802 369.534 707.859 362.45 710.574 355.537C712.302 351.209 711.876 346.338 710.822 341.903C709.495 336.811 705.408 333.28 702.262 329.308C702.476 327.772 706.497 328.611 708.01 328.903C711.37 329.755 713.377 332.728 715.88 334.829C717.662 334.289 716.935 330.689 717.764 328.996C717.826 326.614 720.997 323.474 722.305 326.884C724.264 329.052 722.243 333.349 724.774 334.699C727.185 333.806 728.374 331.17 730.64 329.979C732.87 328.459 736.018 328.289 738.418 329.482C739.263 331.695 735.778 333.537 734.768 335.459C730.717 340.465 729.293 347.369 731.028 353.571C732.405 358.436 734.842 362.977 735.683 368.005C736.696 373.658 736.663 379.595 735.199 385.165C734.325 388.545 731.397 390.805 728.374 392.209C727.628 391.515 727.234 390.495 726.73 389.626V389.625Z" fill="#CF1126"/>
        <path d="M711.609 326.885C708.249 324.425 707.139 322.075 707.139 317.425C707.139 315.045 707.579 313.755 709.149 311.595C711.459 308.395 711.039 307.385 707.769 308.325C702.509 309.835 699.999 308.455 699.819 303.975C699.739 301.785 700.199 300.855 703.149 297.315C705.509 294.475 706.369 292.985 705.899 292.515C705.439 292.055 702.649 294.475 696.919 300.305C692.349 304.955 687.209 309.705 685.499 310.865C675.659 317.505 666.259 318.535 661.969 313.425C659.769 310.815 659.889 309.345 662.429 307.765C663.599 307.045 665.569 305.385 666.819 304.075C669.769 301.005 678.559 294.665 682.919 292.465C686.459 290.675 687.299 289.465 684.999 289.465C682.019 289.465 672.459 295.685 665.209 302.345C663.079 304.315 660.009 306.505 658.399 307.215C654.779 308.815 647.669 309.405 644.509 308.365C642.279 307.625 638.209 303.785 638.209 302.415C638.209 302.055 639.139 301.255 640.269 300.645C641.399 300.045 643.429 298.575 644.769 297.405C650.569 292.315 661.559 287.075 670.279 285.245C673.049 284.665 672.029 283.265 668.939 283.405C662.949 283.665 651.059 289.235 643.959 295.095C635.639 301.955 623.089 301.305 619.049 293.805C618.349 292.515 617.939 291.305 618.139 291.115C618.329 290.925 620.799 290.185 623.629 289.465C626.689 288.695 632.749 286.185 638.539 283.295C647.649 278.755 650.349 277.785 656.619 276.775C659.439 276.325 659.589 274.945 656.849 274.625C653.319 274.205 647.909 275.975 638.349 280.675C626.069 286.715 622.629 287.755 616.159 287.375C610.259 287.015 606.929 285.505 602.139 280.975C599.009 278.005 594.569 270.465 595.439 269.595C595.649 269.385 597.089 269.595 598.639 270.045C600.359 270.555 605.289 270.895 611.229 270.905C619.539 270.925 621.749 270.705 626.179 269.425C633.589 267.285 643.439 262.275 650.179 257.245C663.069 247.605 673.579 243.735 686.979 243.675C699.349 243.625 707.219 246.485 714.189 253.555C716.549 255.945 718.559 257.495 718.889 257.165C719.199 256.855 719.539 252.675 719.639 247.875C719.639 247.875 723.279 247.525 724.049 248.545C724.049 256.335 724.139 256.945 725.269 256.945C726.009 256.945 726.799 256.185 727.289 255.005C728.349 252.455 732.269 248.965 736.459 246.845C745.509 242.255 761.169 242.115 773.749 246.505C779.049 248.365 784.929 251.685 790.529 256.005C796.149 260.325 807.639 266.105 814.429 268.035C821.299 269.985 833.409 270.475 839.619 269.065C842.179 268.485 844.579 268.005 844.959 268.005C847.249 268.005 843.349 275.635 838.769 280.105C830.399 288.285 819.509 288.245 804.189 279.985C794.639 274.845 783.219 272.035 783.219 274.835C783.219 275.415 783.819 275.805 784.709 275.805C788.029 275.805 794.439 278.035 803.379 282.275C813.049 286.875 818.479 288.815 821.699 288.815C824.039 288.815 824.109 290.265 821.929 293.465C819.619 296.875 815.699 298.565 810.159 298.555C804.869 298.535 801.929 297.375 797.199 293.445C789.289 286.865 769.579 279.525 770.339 283.445C770.489 284.225 771.439 284.705 773.469 285.015C780.329 286.065 788.379 289.905 796.619 296.075C799.159 297.985 801.799 299.865 802.469 300.265C803.599 300.925 803.619 301.125 802.729 302.795C801.249 305.555 797.519 307.695 793.479 308.115C788.249 308.655 783.699 307.095 778.989 303.155C769.049 294.835 759.679 288.815 756.679 288.815C754.229 288.815 755.329 290.165 759.649 292.455C765.329 295.465 771.169 299.535 775.469 303.485C777.499 305.365 779.789 307.225 780.549 307.635C782.349 308.595 782.279 310.005 780.299 312.595C778.279 315.235 774.939 316.395 770.609 315.935C761.969 315.025 755.229 310.855 744.639 299.865C740.499 295.575 736.809 292.065 736.429 292.065C735.019 292.065 735.849 293.975 738.579 297.035C741.959 300.815 742.609 302.945 741.329 306.015C740.199 308.735 738.319 309.365 734.459 308.325C730.509 307.255 729.889 308.225 732.479 311.445C736.339 316.255 735.769 322.145 731.039 326.195C729.569 327.445 728.029 328.475 727.609 328.475C727.199 328.475 726.159 327.405 725.289 326.095C722.249 321.475 719.579 321.505 716.619 326.175C715.589 327.805 714.719 329.125 714.689 329.115C714.649 329.105 713.259 328.105 711.609 326.885Z" fill="#CF1126"/>
        <path d="M726.667 233.031L721.537 237.091L716.938 233.621V261.361L726.667 261.481V233.031Z" fill="#CF1126"/>
        <path d="M694.89 204.248C693.87 217.358 690.54 226.508 685.91 236.598L697.01 226.308L704.73 235.478L713.09 226.148L721.62 234.028L729.82 225.828L738.34 235.798L745.74 227.598L758.28 236.598C753.73 226.508 747.57 217.958 748.34 203.758C736.19 212.788 707.32 214.418 694.89 204.248Z" fill="#CF1126"/>
        <path d="M716.95 197.555C712.49 197.635 707.79 197.695 703.56 198.525C700.63 199.105 697.97 200.055 695.75 201.625C696.11 210.155 736.75 213.715 747.65 201.785C745.36 200.115 742.56 199.125 739.48 198.525C735.41 197.735 730.91 197.655 726.64 197.585C726.64 199.925 726.66 202.275 726.66 204.625L716.95 204.595V197.555Z" fill="#CF1126"/>
        <path d="M724.9 153.969L718.59 154.019V203.399L725.03 203.429L724.9 153.969Z" fill="#CF1126"/>
        <path d="M724.888 155.238L722.478 178.878L746.798 190.758L734.488 174.298L751.298 168.848L724.888 155.238ZM722.178 149.078C718.488 149.078 715.758 150.458 715.758 152.098C715.758 153.738 718.488 155.128 722.178 155.128C725.868 155.128 728.578 153.738 728.578 152.098C728.578 150.458 725.868 149.078 722.178 149.078Z" fill="#CF1126"/>
        <path d="M711.05 563.813C715.04 562.493 717.31 560.073 718.94 555.413C719.75 553.093 720.3 550.683 720.16 550.053C719.82 548.563 718.1 548.643 716.2 550.223C714.9 551.313 714.74 551.863 715.11 554.083C716.06 559.683 714.07 561.073 703.47 562.213C702.42 562.323 699.38 562.143 696.7 561.813C691.66 561.183 689.86 561.683 691.69 563.203C692.24 563.663 693.64 564.283 694.8 564.573C697.63 565.303 708.02 564.813 711.05 563.813ZM733.021 562.883C733.621 562.333 735.68 561.383 737.6 560.763C740.16 559.943 741.48 559.063 742.56 557.453C745.67 552.823 745.091 548.833 740.521 543.453C738.041 540.533 736.941 540.613 734.961 543.853C733.251 546.653 733.29 546.833 735.75 547.473C737.04 547.803 738.281 548.753 738.961 549.923C741.641 554.563 740.85 557.433 736.88 557.463C733.28 557.493 732.29 558.003 731.32 560.333C730.81 561.543 730.401 562.833 730.401 563.203C730.401 564.183 731.761 564.013 733.021 562.883ZM725.81 557.643C726.49 555.803 726.731 552.493 726.651 545.743C726.601 540.603 726.4 536.243 726.2 536.043C725.6 535.443 722.64 537.353 722.25 538.583C722.05 539.223 722.38 540.703 722.98 541.863C723.9 543.653 724.02 545.323 723.74 552.333C723.38 561.193 723.96 562.683 725.81 557.643Z" fill="#F7E017"/>
        <path d="M708.892 553.425C709.252 551.775 709.712 548.395 709.922 545.925C710.132 543.455 710.642 540.335 711.042 538.985C712.062 535.525 711.032 534.615 708.302 536.555L706.272 538.005L706.692 542.975C707.082 547.455 706.372 555.805 705.342 559.045C705.062 559.905 705.462 559.685 706.592 558.365C707.502 557.305 708.542 555.075 708.892 553.425ZM693.882 555.835C697.533 552.78 697.114 547.565 697.922 543.315C697.838 540.49 699.726 537.103 698.508 534.632C695.096 535.256 692.993 538.488 694.739 541.707C694.885 545.445 694.752 549.514 692.831 552.82C691.261 554.982 686.289 554.443 686.517 551.38C687.765 546.773 682.246 549.014 680.091 550.222C678.425 551.382 674.909 551.467 676.131 548.565C675.324 544.699 670.351 547.117 667.649 547.1C665.097 547.054 667.439 541.93 663.776 542.83C656.97 542.292 649.456 542.89 643.566 538.778C640.117 537.12 640.629 532.972 642.424 530.288C644.568 526.624 645.18 522.04 648.584 519.196C651.952 515.965 645.406 517.329 643.931 518.418C640.649 520.214 643.698 524.841 641.012 527.407C639.442 530.067 637.376 533.743 633.742 533.237C628.502 532.245 625.482 527.371 621.725 524.104C618.507 523.462 620.317 529.326 621.978 530.559C625.266 533.021 629.108 534.815 633.07 535.877C637.014 535.247 637.142 540.411 640.515 541.221C646.702 544.104 653.598 544.968 660.348 545.32C662.998 545.54 661.508 550.262 664.993 549.33C666.941 549.834 671.341 548.604 671.562 550.867C668.609 554.373 674.396 554.295 676.537 553.667C679.279 553.248 682.783 552.201 683.508 555.96C685.798 558.373 690 558.017 692.788 556.636C693.179 556.409 693.548 556.141 693.881 555.836L693.882 555.835Z" fill="#F7E017"/>
        <path d="M634.123 525.569C635.233 524.159 636.893 521.309 637.813 519.229C638.723 517.139 640.093 514.769 640.843 513.959C642.603 512.059 641.623 510.889 638.783 511.519C637.283 511.849 636.673 512.399 636.423 513.699C635.573 517.939 634.033 522.279 632.663 524.299C630.183 527.959 630.123 528.109 631.143 528.109C631.673 528.109 633.013 526.969 634.123 525.569ZM596.663 502.089C593.863 502.089 593.743 503.859 596.473 504.809C597.793 505.269 598.913 506.379 599.813 508.189C602.473 513.479 604.033 514.419 611.093 515.029L615.623 515.439L615.843 518.189C615.953 519.709 616.313 520.969 616.663 520.969C617.013 520.969 618.763 520.209 620.533 519.309C623.853 517.629 627.003 513.709 627.003 511.279C627.003 509.689 624.353 507.969 621.943 507.969C620.873 507.969 618.833 508.829 617.223 509.999C612.183 513.649 606.793 512.909 603.843 508.159C601.423 504.239 598.893 502.089 596.663 502.089ZM621.123 511.839C622.463 511.839 622.793 512.829 622.063 514.719C621.563 516.019 619.933 516.059 619.443 514.779C618.863 513.269 619.673 511.839 621.123 511.839ZM810.843 505.689C809.013 505.759 808.473 506.159 807.313 507.879C805.413 510.699 805.223 516.809 806.973 518.969C808.063 520.309 808.223 520.339 810.533 519.379C813.753 518.029 814.293 518.079 814.283 519.809C814.263 524.229 807.923 532.749 801.283 537.279C799.493 538.499 797.893 539.859 797.723 540.309C797.243 541.569 799.703 541.289 802.723 539.749C806.843 537.649 812.253 532.129 814.473 527.779C816.233 524.309 816.483 523.129 816.693 517.059C816.883 511.469 816.733 509.829 815.783 507.969C814.723 505.879 814.383 505.689 811.723 505.689C811.403 505.689 811.113 505.679 810.843 505.689ZM811.063 509.589C812.443 509.589 812.683 509.899 812.843 511.879C812.983 513.519 812.693 514.519 811.783 515.339C810.543 516.459 810.443 516.449 809.343 514.779C807.803 512.419 808.753 509.589 811.063 509.589ZM780.703 552.269C786.553 549.389 790.003 546.149 792.223 541.459C793.273 539.229 794.133 537.129 794.133 536.769C794.133 535.959 791.253 534.619 789.523 534.619C787.803 534.619 787.453 533.429 788.193 530.139C788.913 526.929 788.043 522.909 786.633 522.909C786.123 522.909 785.223 523.659 784.623 524.569C783.703 525.979 783.653 526.579 784.333 528.629C785.333 531.669 784.543 533.939 781.823 535.879C780.533 536.799 779.823 537.859 779.823 538.889C779.823 539.759 779.933 540.469 780.063 540.469C780.203 540.469 781.623 539.729 783.223 538.839L786.143 537.209L787.863 538.559C788.803 539.299 789.583 540.509 789.583 541.249C789.583 544.809 779.433 550.789 772.463 551.349C768.753 551.649 768.123 551.519 766.833 550.239C765.783 549.189 765.483 548.309 765.743 547.069C765.943 546.119 766.303 544.389 766.543 543.229C767.183 540.129 765.853 540.549 763.553 544.169C761.663 547.159 761.103 550.349 762.163 552.029C763.033 553.399 768.813 554.709 772.903 554.459C775.473 554.309 778.013 553.589 780.703 552.269ZM819.743 530.489C823.423 526.819 824.983 522.349 825.003 515.439L825.013 510.249L828.053 508.809C832.003 506.929 835.743 503.189 835.743 501.109C835.743 498.969 834.793 499.079 833.073 501.409C831.823 503.099 830.153 504.119 824.043 506.929C822.503 507.639 822.403 508.019 822.053 514.479C821.643 521.929 820.633 524.719 816.473 529.809C813.923 532.909 813.833 533.319 815.603 533.319C816.333 533.319 818.193 532.049 819.743 530.489ZM779.663 526.329C780.013 525.259 777.983 524.499 777.103 525.369C776.733 525.739 776.633 526.379 776.883 526.789C777.463 527.719 779.303 527.409 779.663 526.329ZM834.933 512.019C835.293 510.949 833.253 510.189 832.383 511.059C832.003 511.439 831.903 512.079 832.153 512.489C832.733 513.419 834.573 513.109 834.933 512.019ZM768.413 473.279C766.983 473.959 766.242 475.503 765.248 476.682C764.533 477.168 765.106 477.622 765.518 478.081C768.04 480.798 769.108 484.467 770.306 487.889C771.483 491.929 772.966 496.268 771.734 500.477C771.25 502.09 769.982 503.759 768.088 503.223C765.058 503.034 762.076 502.23 759.037 502.262C756.332 502.402 754.241 504.864 751.475 504.596C749.708 504.712 749.783 500.978 748.141 501.976C747.328 503.924 747.729 506.096 747.631 508.156C747.938 508.45 748.797 508.193 749.311 508.279H754.757C755.142 510.159 755.094 512.315 756.444 513.811C758.334 514.483 760.46 513.902 762.256 513.168C764.181 512.272 764.439 509.956 764.983 508.152C765.562 506.214 768.1 506.722 769.598 505.961C773.263 504.891 775.665 501.082 775.45 497.334C775.213 491.612 773.03 486.229 771.374 480.814C770.541 478.427 769.964 475.938 768.997 473.609C768.884 473.409 768.652 473.239 768.413 473.279ZM759.343 505.999C761.379 505.866 762.264 508.369 761.833 510.029C761.071 512.284 758.298 510.838 757.737 509.212C756.707 507.761 757.344 505.808 759.343 505.999Z" fill="#F7E017"/>
        <path d="M683.941 487.22C683.031 487.2 682.011 487.54 681.001 488.25C675.691 491.97 674.331 496.37 677.941 498.09C680.591 499.36 679.921 500.85 675.751 502.94C669.781 505.92 664.511 505.55 654.501 501.41C652.041 500.39 651.401 500.78 651.971 503.03C652.521 505.24 654.541 506.45 659.561 507.59C664.961 508.83 671.491 508.43 675.691 506.62C677.741 505.74 680.171 503.89 682.221 501.66L685.471 498.09L689.251 498.56C693.911 499.13 694.001 499.18 694.001 501.41C694.001 503.18 694.101 503.22 698.381 503.62C700.791 503.85 703.961 504.06 705.441 504.06C707.331 504.07 708.401 504.4 709.031 505.28C709.871 506.45 710.371 506.51 717.411 505.88C723.991 505.28 725.281 505.33 728.251 506.34C730.361 507.06 732.681 507.35 734.441 507.16C739.481 506.59 746.431 502.47 747.441 499.44C747.561 499.07 749.391 498.42 751.501 498C756.591 496.98 756.811 495.87 752.061 495.28C750.001 495.02 746.911 494.27 745.191 493.59C743.461 492.91 741.101 492.34 739.941 492.34C737.381 492.34 734.971 493.94 734.971 495.59C734.971 496.67 735.351 496.78 738.381 496.47C741.231 496.18 742.061 496.34 743.561 497.53C744.551 498.31 745.211 499.23 745.001 499.56C744.331 500.65 738.381 503.36 735.751 503.78C733.991 504.06 732.571 503.87 731.191 503.16C728.881 501.96 725.481 501.78 724.841 502.81C724.571 503.26 723.841 502.97 722.841 502.03L721.281 500.56L717.751 502.03C714.161 503.52 712.841 503.46 712.841 501.75C712.841 500.97 711.791 500.88 706.501 501.22C700.671 501.6 700.061 501.5 698.971 500.28C697.961 499.16 697.941 498.77 698.661 497.62C699.321 496.56 699.321 496.1 698.691 495.47C698.061 494.84 697.241 494.85 694.941 495.47C689.141 497.02 687.501 496.15 687.501 491.62C687.501 488.9 685.941 487.25 683.941 487.22ZM682.501 491.38C682.811 491.38 683.071 491.57 683.471 491.97C683.981 492.48 684.251 493.37 684.031 493.94C683.511 495.29 681.051 495.24 680.531 493.88C680.281 493.22 680.601 492.48 681.341 491.94C681.861 491.56 682.191 491.37 682.501 491.38Z" fill="#F7E017"/>
        <path d="M672.099 495.598C675.629 493.358 675.549 493.527 676.059 487.307C676.409 482.917 676.349 482.587 675.159 482.587C673.429 482.587 672.529 484.487 672.529 488.107C672.529 490.427 672.169 491.468 670.929 492.698C667.989 495.638 660.689 494.297 659.769 490.647C659.459 489.397 659.859 488.268 661.389 486.098C664.579 481.568 663.859 480.457 659.949 483.897C657.259 486.247 656.779 486.318 657.289 484.288C657.759 482.418 656.779 481.678 654.589 482.228C653.469 482.508 652.859 483.208 652.589 484.568C652.329 485.898 651.719 486.637 650.659 486.897C648.889 487.347 645.869 485.667 645.869 484.237C645.869 483.177 650.389 477.658 656.189 471.638C658.379 469.358 660.169 467.238 660.169 466.918C660.169 466.598 658.999 466.337 657.569 466.337C655.479 466.337 654.969 466.568 654.969 467.538C654.969 468.198 652.049 472.027 648.469 476.057C641.009 484.457 640.389 486.208 644.079 488.448C647.049 490.268 650.859 490.128 653.849 488.098L656.269 486.448V489.438C656.269 493.257 657.029 494.627 660.029 496.217C663.799 498.207 668.359 497.968 672.099 495.598ZM828.659 443.688C825.892 445.339 828.057 448.811 828.476 451.116C827.346 454.262 823.305 455.11 820.358 455.694C816.185 456.386 813.228 459.877 811.64 463.586C810.78 465.996 808.703 469.73 806.44 466.062C804.474 464.069 800.858 462.489 798.532 464.816C796.766 466.498 796.318 468.974 795.659 471.219C794.616 469.493 794.149 466.922 791.939 466.376C788.411 466.872 789.686 471.321 791.345 473.155C792.852 475.293 794.301 478.112 792.823 480.651C791.52 483.702 787.013 485.761 784.366 483.151C781.894 481.845 783.547 477.186 781.112 476.93C779.908 477.8 779.809 482.676 777.882 480.033C776.492 477.774 777.229 474.679 775.527 472.647C773.517 472.897 771.9 476.36 772.569 478.219C775.251 481.837 776.354 486.374 777.4 490.685C778.052 492.412 777.305 495.912 778.92 496.595C780.04 493.817 779 490.666 779.88 487.861C782.499 487.532 785.411 488.726 788.157 488.09C792.085 487.581 795.121 484.267 796.499 480.736C796.916 478.082 796.42 475.389 796.346 472.719C799.45 473.2 802.675 473.189 805.66 474.198C807.14 476.468 805.19 479.647 804.78 482.128C803.222 487.18 799.265 490.847 795.415 494.224C793.805 495.177 793.588 497.702 795.966 496.342C801.14 494.13 804.996 489.444 807.214 484.372C808.834 480.471 807.532 476.125 808.589 472.135C810.151 469.139 813.91 469.771 816.692 469.78C819.572 469.67 822.029 466.315 821.067 463.518C820.151 460.271 823.586 458.708 825.933 457.547C829.045 455.977 831.431 452.788 831.19 449.189C831.062 447.349 831.153 443.857 828.659 443.689V443.688ZM817.628 462.438C820.962 463.323 817.025 469.689 815.253 465.656C814.708 464.116 816.003 462.383 817.628 462.438ZM802.158 466.997C806.496 466.744 804.938 473.078 801.273 470.202C799.373 469.247 800.001 466.879 802.158 466.997ZM645.099 491.478C645.219 490.848 644.899 490.397 644.329 490.397C643.119 490.397 642.389 491.458 642.959 492.378C643.549 493.328 644.849 492.788 645.099 491.478ZM695.939 485.797C695.939 484.867 695.589 484.518 694.809 484.668C693.109 484.988 692.919 487.147 694.589 487.147C695.519 487.147 695.939 486.727 695.939 485.797ZM633.029 455.277C631 454.86 629.724 456.577 629.029 458.215C627.512 460.765 625.659 463.373 622.936 464.724C620.978 465.268 618.842 464.524 617.154 463.514C615.139 462.51 615.597 460.087 614.734 458.413C613.277 457.269 610.694 458.906 610.75 460.685C610.59 463.071 612.822 464.448 614.675 465.371C616.249 466.336 618.532 466.872 619.162 468.824C619.118 470.483 619.785 472.381 621.805 471.741C624.065 471.703 624.65 474.456 623.738 476.108C622.808 477.969 622.181 480.15 622.626 482.224C623.706 483.134 624.809 480.693 625.591 479.996L627.185 477.871C631.184 478.088 635.178 478.599 639.186 478.456C642.036 478.405 644.464 476.646 646.276 474.581C648.84 471.901 650.946 468.752 653.874 466.439C655.958 465.931 654.838 462.005 652.661 463.138C650.701 463.874 650.083 466.091 648.725 467.503C646.41 470.305 644.048 473.149 641.131 475.345C639.006 476.226 636.56 475.842 634.377 475.345C633.467 474.549 636.186 473.901 636.565 473.016C637.817 471.766 639.304 470.578 640.029 468.934C639.335 467.42 637.213 467.297 635.717 467.267C632.031 467.709 629.216 470.803 625.494 471.094C622.668 471.194 624.139 468.134 625.412 467.09C627.904 464.13 630.597 461.344 633.198 458.482C633.936 457.594 636.607 456.749 634.898 455.501C634.301 455.286 633.656 455.286 633.029 455.277ZM634.842 470.246C636.7 471.291 633.656 473.004 632.373 472.77C630.691 473.274 630.661 471.557 632.155 471.216C632.995 470.778 633.882 470.322 634.841 470.246H634.842ZM629.122 474.152C630.181 474.132 632.397 475.148 630.316 475.799C628.866 476.922 627.229 474.656 629.123 474.152H629.122Z" fill="#F7E017"/>
        <path d="M674.151 476.736C674.151 475.326 671.621 475.526 671.341 476.956C671.161 477.876 671.451 478.096 672.631 477.926C673.471 477.806 674.151 477.276 674.151 476.736ZM786.201 466.816C786.461 465.466 784.581 464.566 783.591 465.556C782.601 466.546 783.511 468.426 784.851 468.166C785.471 468.046 786.081 467.436 786.201 466.816ZM611.821 453.086C613.581 451.576 613.601 451.476 612.841 448.156C611.761 443.506 611.831 443.006 613.601 442.566C615.841 441.996 621.531 445.046 622.791 447.486C623.771 449.376 623.741 449.506 622.081 451.046C620.291 452.696 620.301 454.626 622.091 454.626C623.571 454.626 627.661 450.756 627.661 449.366C627.661 447.436 623.121 442.876 619.531 441.206C617.311 440.166 615.091 439.686 612.521 439.676C607.921 439.676 607.301 440.666 608.541 446.016C610.001 452.286 608.021 453.136 602.971 448.406C599.221 444.896 597.741 441.246 597.761 435.496C597.771 429.326 600.131 426.276 605.451 425.556C608.981 425.086 608.891 424.256 605.261 423.716C599.961 422.916 595.481 426.456 593.781 432.776C591.891 439.786 596.221 448.326 603.881 452.726C607.891 455.026 609.491 455.096 611.821 453.086ZM820.661 445.396C821.091 444.966 821.441 443.996 821.441 443.246C821.441 442.496 822.171 440.886 823.061 439.676C823.961 438.466 824.691 437.226 824.691 436.926C824.691 435.696 822.661 435.736 821.061 437.006C819.421 438.286 818.191 438.316 818.191 437.066C818.191 436.756 818.971 436.116 819.931 435.646C822.311 434.486 822.511 433.336 820.501 432.416C817.921 431.246 815.331 433.386 815.061 436.916C814.891 439.276 815.081 439.686 816.901 440.756C818.561 441.736 818.871 442.256 818.591 443.656C818.111 446.086 819.121 446.936 820.661 445.396ZM840.291 443.176C841.731 441.886 842.901 440.416 842.901 439.926C842.901 439.436 844.141 438.136 845.661 437.046C849.971 433.946 850.921 430.816 848.991 426.006C848.241 424.116 845.881 421.506 840.751 416.886C836.811 413.326 833.181 410.416 832.711 410.416C831.311 410.416 831.561 415.566 832.981 416.016C835.541 416.836 837.091 417.886 841.121 421.516C845.801 425.746 847.961 429.696 846.781 431.896C845.651 434.026 844.151 433.366 840.021 428.936C837.851 426.606 835.701 424.706 835.261 424.706C834.781 424.716 834.441 425.556 834.441 426.736C834.441 428.216 835.231 429.626 837.371 432.006C840.861 435.886 841.201 438.216 838.581 440.276C837.641 441.016 836.671 441.626 836.431 441.626C836.201 441.626 835.431 440.466 834.731 439.056C833.271 436.096 824.341 426.666 823.001 426.666C822.391 426.666 822.091 427.426 822.091 428.926C822.091 430.736 822.451 431.376 823.891 432.116C825.661 433.036 830.041 437.446 834.441 442.766C835.701 444.286 836.941 445.516 837.211 445.526C837.471 445.526 838.861 444.466 840.291 443.176ZM849.051 418.106C848.471 416.236 836.491 403.906 835.261 403.906C834.621 403.906 834.421 404.666 834.571 406.626C834.741 409.006 835.001 409.416 836.641 409.846C837.661 410.116 840.821 412.596 843.651 415.346C846.471 418.096 848.951 420.186 849.151 419.976C849.351 419.776 849.311 418.936 849.051 418.106ZM777.501 556.886C777.501 557.319 777.314 557.734 776.98 558.041C776.646 558.347 776.193 558.519 775.721 558.519C775.249 558.519 774.796 558.347 774.462 558.041C774.128 557.734 773.94 557.319 773.94 556.886C773.94 556.453 774.128 556.038 774.462 555.732C774.796 555.426 775.249 555.254 775.721 555.254C776.193 555.254 776.646 555.426 776.98 555.732C777.314 556.038 777.501 556.453 777.501 556.886ZM783.791 554.786C783.791 555.219 783.604 555.634 783.27 555.941C782.936 556.247 782.483 556.419 782.011 556.419C781.539 556.419 781.086 556.247 780.752 555.941C780.418 555.634 780.23 555.219 780.23 554.786C780.23 554.353 780.418 553.938 780.752 553.632C781.086 553.326 781.539 553.154 782.011 553.154C782.483 553.154 782.936 553.326 783.27 553.632C783.604 553.938 783.791 554.353 783.791 554.786Z" fill="#F7E017"/>
    </g>
    <defs>
        <clipPath id="clip0_2000_12618">
            <rect width="1440" height="720" fill="white"/>
        </clipPath>
    </defs>
</svg>
