<svg width="900" height="600" viewBox="0 0 900 600" fill="none"
    xmlns="http://www.w3.org/2000/svg">
    <g clip-path="url(#clip0_2000_12657)">
        <path  id = "1" d="M0 0H900V600H0V0Z" fill="#EDEDF0"/>
        <path id = "2" d="M0 600H900V0L0 600Z" fill="#DDDDDD"/>
        <path d="M481.739 187.592C476.752 185.822 473.531 188.397 473.693 194.836C473.852 201.276 477.235 204.978 482.223 202.563L481.739 187.593V187.592Z" fill="white" stroke="black" stroke-width="0.521"/>
        <path d="M486.118 175.532C481.964 172.252 478.088 173.658 476.172 179.808C474.256 185.957 476.268 190.55 481.768 189.866L486.118 175.533V175.532Z" fill="white" stroke="black" stroke-width="0.521"/>
        <path d="M493.039 163.862C489.459 159.957 485.409 160.724 482.531 166.487C479.656 172.25 480.906 177.105 486.448 177.312L493.039 163.862ZM488.499 220.592C482.382 222.846 481.736 231.217 485.603 236.368C489.466 241.519 496.549 242.485 500.411 236.368L488.501 220.588L488.499 220.592Z" fill="white" stroke="black" stroke-width="0.521"/>
        <path d="M481.419 202.885C475.623 200.953 470.402 208.738 469.506 215.763C468.381 224.617 455.823 227.514 462.748 240.876C464.193 232.344 469.831 227.676 474.336 227.354C478.844 227.032 485.606 226.066 488.503 220.593L481.419 202.885ZM499.769 237.335C493.006 238.945 492.039 247.96 496.869 254.399C501.002 259.912 513.932 258.584 513.611 253.111L499.769 237.335ZM518.929 291.585C519.249 285.79 509.917 283.536 505.408 284.663C500.9 285.79 492.287 284.503 490.275 279.673C488.667 283.536 491 287.722 497.521 289.814C502.454 291.399 502.35 294.966 500.9 296.576C504.604 297.22 515.55 297.22 518.929 291.586V291.585Z" fill="white" stroke="black" stroke-width="0.521"/>
        <path d="M513.62 254.563C507.02 251.666 503.107 256.079 500.582 260.358C496.878 266.636 485.449 258.588 481.586 266.958C486.819 264.705 492.144 269.511 494.624 271.144C501.707 275.812 515.391 274.364 517.324 263.417L513.62 254.563Z" fill="white" stroke="black" stroke-width="0.521"/>
        <path d="M517.477 262.281C510.877 267.271 508.302 273.227 508.465 277.252C508.627 281.277 514.26 290.13 520.378 290.613C523.919 283.369 525.69 268.076 517.478 262.281H517.477ZM490.117 293.351C490.117 290.936 493.659 289.971 496.071 290.775C498.488 291.58 502.188 293.995 500.901 296.571L490.117 293.351ZM453.727 280.151C453.085 277.254 457.752 272.263 464.031 275C470.306 277.736 471.114 283.049 468.535 285.142L453.727 280.152V280.151Z" fill="white" stroke="black" stroke-width="0.521"/>
        <path d="M469.021 285.462C468.538 283.852 473.058 280.637 480.775 282.564C488.5 284.496 490.395 289.471 490.113 293.35L469.021 285.462ZM452.931 280.152C456.956 277.094 455.431 271.297 451.801 269.527C445.201 266.307 447.618 257.937 443.431 256.327C439.248 254.717 435.223 251.819 435.061 248.922C432.969 252.946 434.256 256.649 437.156 259.225C440.052 261.801 434.902 272.264 438.602 275.001L452.931 280.152ZM366.641 277.902C363.261 272.59 355.211 273.556 351.831 277.258C348.451 280.961 348.934 286.434 352.153 288.848L366.641 277.902ZM385.961 270.012C384.673 262.929 376.141 262.124 371.473 263.895C366.805 265.665 363.585 272.749 366.643 277.9L385.962 270.012H385.961Z" fill="white" stroke="black" stroke-width="0.521"/>
        <path d="M398.839 269.042C401.897 263.086 395.942 254.232 389.18 252.944C383.536 251.87 376.865 251.898 374.692 246.344C373.324 251.174 376.946 254.232 381.132 256.969C385.317 259.706 380.326 266.789 387.088 270.813L398.84 269.043L398.839 269.042Z" fill="white" stroke="black" stroke-width="0.521"/>
        <path d="M398.199 269.252C396.79 264.985 399.648 259.309 405.431 259.707C411.216 260.105 414.511 264.307 411.961 269.562L398.198 269.252H398.199Z" fill="white" stroke="black" stroke-width="0.521"/>
        <path d="M411.07 269.572C410.274 265.15 413.9 259.932 419.57 261.137C425.242 262.342 427.913 266.967 424.654 271.812L411.07 269.572Z" fill="white" stroke="black" stroke-width="0.521"/>
        <path d="M423.86 271.603C423.285 267.146 427.168 262.115 432.772 263.602C438.377 265.089 440.814 269.842 437.314 274.517L423.86 271.603ZM326.72 345.353C315.934 345.353 313.3 347.921 311.749 359.036C309.817 372.88 328.652 374.49 326.72 345.353Z" fill="white" stroke="black" stroke-width="0.521"/>
        <path d="M331.549 330.859C314.968 324.581 305.954 350.82 289.534 346.152C295.409 355.489 309.652 346.169 314.968 347.118C323.983 348.728 343.461 345.348 331.549 330.859ZM320.759 366.759C312.549 363.057 303.695 375.613 305.305 381.086C307.349 388.038 326.071 382.374 320.759 366.759ZM282.449 420.849C286.957 422.132 292.429 424.711 291.464 433.403C290.498 442.095 274.079 459.803 259.269 460.77C244.459 461.737 239.146 479.603 226.429 474.612C238.341 472.362 238.341 458.837 247.678 454.654C240.916 452.237 237.375 467.533 228.683 467.533C219.99 467.533 215.805 481.375 205.18 480.408C194.555 479.445 193.437 497.262 172.18 497.475C155.92 497.633 135.799 516.629 128.555 508.421C144.331 506.167 150.697 497.425 160.107 487.813C175.239 472.363 192.303 479.283 198.097 465.6C191.175 470.267 183.127 472.52 175.239 472.363C165.337 472.158 154.473 488.138 143.365 481.054C149.804 480.25 153.99 477.513 160.751 470.429C167.674 463.175 177.834 467.863 185.864 460.45C198.42 448.858 209.206 458.517 221.279 444.029C217.898 442.421 210.654 443.546 203.893 447.087C197.131 450.629 188.439 444.671 180.712 448.858C181.677 439.362 199.707 444.796 210.976 438.233C223.694 430.829 234.238 433 244.299 433.887C230.294 433.808 224.821 420.524 205.504 424.387C197.079 426.075 190.372 412.799 182.001 419.558C182.241 414.571 191.016 410.545 200.031 415.375C209.045 420.204 212.679 411.149 230.617 422.458C238.022 427.125 250.739 419.558 258.787 424.55C257.741 421.492 253.153 419.558 247.761 419.962C251.141 413.042 272.954 413.925 282.451 420.85L282.449 420.849Z" fill="white" stroke="black" stroke-width="0.521"/>
        <path d="M296.777 410.383C289.694 404.91 279.874 411.511 273.113 408.934C273.113 413.44 275.367 420.204 282.772 422.778C285.026 421.17 295.167 412.315 296.777 410.383Z" fill="white" stroke="black" stroke-width="0.521"/>
        <path d="M307.888 394.772C296.78 389.138 294.849 403.142 286.156 400.245C286.478 404.27 289.698 409.26 296.781 410.387L307.888 394.772Z" fill="white" stroke="black" stroke-width="0.521"/>
        <path d="M314.487 382.053C298.067 375.613 295.974 391.39 286.316 388.331C288.57 393.804 302.414 396.701 309.497 394.771L314.487 382.053ZM337.017 312.993C332.67 306.876 323.495 311.866 322.046 319.11C320.597 326.354 324.138 336.496 330.256 334.242L337.017 312.993Z" fill="white" stroke="black" stroke-width="0.521"/>
        <path d="M348.129 293.676C340.563 291.906 331.87 292.71 332.836 300.116C329.938 301.403 329.133 310.901 337.021 312.993L348.129 293.675V293.676Z" fill="white" stroke="black" stroke-width="0.521"/>
        <path d="M353.12 288.683C345.715 279.99 337.457 280.193 332.837 283.853C324.305 290.615 316.014 286.751 315.773 293.513C320.925 289.568 325.432 294.317 329.617 292.868C333.802 291.42 336.861 299.468 348.452 296.088L353.12 288.683ZM335.25 418.603C336.377 420.695 343.299 421.661 346.68 418.12C351.16 413.424 346.197 400.41 339.114 399.445C332.031 398.479 331.387 414.095 335.25 418.603Z" fill="white" stroke="black" stroke-width="0.521"/>
        <path d="M327.199 418.919C337.34 422.619 341.687 414.248 336.214 408.938C334.764 410.707 329.452 417.148 327.199 418.919Z" fill="white" stroke="black" stroke-width="0.521"/>
        <path d="M289.21 432.765C287.278 438.561 277.297 439.528 266.029 457.557C254.76 475.586 243.975 468.02 241.238 480.415C254.76 469.469 265.38 476.74 273.433 465.927C285.668 449.506 295.742 451.864 300.478 440.814C307.238 425.039 336.859 425.36 338.469 400.57C328.489 398.638 296.936 425.36 289.21 432.764V432.765ZM543.24 189.365C556.119 193.55 556.44 210.292 571.248 215.765C586.061 221.238 587.511 234.438 599.581 231.219C588.314 228.16 589.118 215.121 577.368 211.901C563.585 208.125 558.372 187.11 547.422 183.891M602.32 276.775C604.574 281.926 604.253 291.102 596.203 293.517C600.549 296.254 606.986 293.677 610.528 287.722C605.216 299.473 608.758 310.098 617.128 312.191C613.103 303.981 622.12 300.117 619.224 294.805C624.537 297.059 629.204 304.303 629.041 308.81C635.966 301.083 623.891 290.78 626.145 283.537L602.32 276.776V276.775ZM518.93 359.515C511.042 352.593 507.676 361.325 503.797 358.307C500.177 355.49 495.347 355.087 493.497 357.905C500.259 358.147 496.955 363.378 510.076 364.666C496.955 365.552 499.372 380.201 490.597 379.476C499.935 388.33 504.764 371.588 512.33 374.326C510.076 374.969 515.872 380.281 511.847 387.364C518.367 387.204 521.022 378.188 521.83 373.52L518.93 359.515ZM345.23 434.695C342.332 432.282 333.961 431.153 330.742 433.087C327.522 435.016 328.65 435.499 332.512 435.824C336.377 436.145 341.365 442.395 332.996 442.745C329.132 442.903 330.42 452.241 322.371 452.887C325.671 456.912 335.089 454.254 338.469 449.829C337.825 453.449 342.654 456.749 340.723 461.096C346.679 461.742 343.218 449.025 352.636 449.666C348.772 450.15 350.382 458.842 357.143 456.588C353.118 458.521 355.211 463.188 359.718 462.063C356.821 463.029 355.855 466.729 359.879 468.825C363.743 463.513 359.396 444.517 345.23 434.696V434.695ZM695.85 257.075C708.171 257.075 718.158 247.085 718.158 234.763C718.158 222.443 708.17 212.453 695.85 212.453C683.525 212.453 673.537 222.443 673.537 234.763C673.537 247.085 683.525 257.075 695.85 257.075Z" fill="white"/>
        <path d="M543.24 189.365C556.119 193.55 556.44 210.292 571.248 215.765C586.061 221.238 587.511 234.438 599.581 231.219C588.314 228.16 589.118 215.121 577.368 211.901C563.585 208.125 558.372 187.11 547.422 183.891M289.21 432.765C287.278 438.561 277.297 439.528 266.029 457.557C254.76 475.586 243.975 468.02 241.238 480.415C254.76 469.469 265.38 476.74 273.433 465.927C285.668 449.506 295.742 451.864 300.478 440.814C307.238 425.039 336.859 425.36 338.469 400.57C328.489 398.638 296.936 425.36 289.21 432.764V432.765ZM602.32 276.775C604.574 281.926 604.253 291.102 596.203 293.517C600.549 296.254 606.986 293.677 610.528 287.722C605.216 299.473 608.758 310.098 617.128 312.191C613.103 303.981 622.12 300.117 619.224 294.805C624.537 297.059 629.204 304.303 629.041 308.81C635.966 301.083 623.891 290.78 626.145 283.537L602.32 276.776V276.775ZM518.93 359.515C511.042 352.593 507.676 361.325 503.797 358.307C500.177 355.49 495.347 355.087 493.497 357.905C500.259 358.147 496.955 363.378 510.076 364.666C496.955 365.552 499.372 380.201 490.597 379.476C499.935 388.33 504.764 371.588 512.33 374.326C510.076 374.969 515.872 380.281 511.847 387.364C518.367 387.204 521.022 378.188 521.83 373.52L518.93 359.515ZM345.23 434.695C342.332 432.282 333.961 431.153 330.742 433.087C327.522 435.016 328.65 435.499 332.512 435.824C336.377 436.145 341.365 442.395 332.996 442.745C329.132 442.903 330.42 452.241 322.371 452.887C325.671 456.912 335.089 454.254 338.469 449.829C337.825 453.449 342.654 456.749 340.723 461.096C346.679 461.742 343.218 449.025 352.636 449.666C348.772 450.15 350.382 458.842 357.143 456.588C353.118 458.521 355.211 463.188 359.718 462.063C356.821 463.029 355.855 466.729 359.879 468.825C363.743 463.513 359.396 444.517 345.23 434.696V434.695ZM695.85 257.075C708.171 257.075 718.158 247.085 718.158 234.763C718.158 222.443 708.17 212.453 695.85 212.453C683.525 212.453 673.537 222.443 673.537 234.763C673.537 247.085 683.525 257.075 695.85 257.075Z" stroke="black" stroke-width="0.521"/>
        <path d="M579.3 284.025C586.063 277.585 596.367 274.366 603.446 279.195C610.529 284.025 634.034 289.82 645.625 281.771C657.213 273.722 662.688 269.536 667.838 270.502C671.705 276.298 676.371 279.034 682.167 279.517C683.937 281.449 690.217 283.059 693.759 282.575C698.909 283.863 705.188 282.254 710.176 276.78C717.906 277.907 725.147 272.112 727.884 263.42C736.092 262.454 736.576 253.277 731.426 247.16C726.596 246.195 730.301 229.935 712.751 233.155C720.159 237.663 714.521 246.677 720.642 250.863C716.455 250.863 711.063 252.634 709.775 258.913C711.384 254.566 709.534 251.668 708.405 250.703C708.567 247 700.359 237.905 692.63 241.205C698.184 242.412 695.046 251.347 699.071 254.727C696.171 254.888 693.113 256.337 691.342 258.912C689.25 255.21 681.846 251.346 677.338 251.024C677.338 249.736 677.096 247.161 676.534 245.874C674.521 242.01 672.83 237.422 673.634 231.546C669.771 235.731 666.551 241.526 664.621 245.712C658.505 241.527 643.371 247.644 636.288 249.253C629.205 250.863 605.38 247 599.905 241.204C594.435 235.409 583.809 231.868 573.83 228.97C560.105 224.987 559.984 209.975 544.851 199.672C544.531 218.346 572.864 277.586 579.301 284.025H579.3ZM421.54 426.325C433.453 426.325 443.111 416.667 443.111 404.754C443.111 392.841 433.453 383.184 421.54 383.184C409.627 383.184 399.969 392.842 399.969 404.754C399.969 416.667 409.627 426.325 421.54 426.325Z" fill="white" stroke="black" stroke-width="0.521"/>
        <path d="M370.02 409.745C374.366 415.38 381.771 415.059 384.83 414.575C387.406 421.334 395.615 421.175 399.157 424.875C402.699 428.58 414.77 428.259 418.312 426.163C415.095 425.843 410.909 423.913 406.884 420.53C402.026 416.45 404.308 408.296 400.444 405.399C403.342 402.179 403.825 396.867 403.181 394.774C406.241 393.003 408.494 390.105 408.816 388.656C414.129 388.334 418.796 385.598 420.729 383.506C423.466 386.081 430.387 382.7 434.092 387.046C434.896 376.421 424.754 370.787 417.992 374.329C415.254 372.881 408.012 373.847 406.724 375.779C404.47 374.812 398.192 378.032 395.294 380.125C398.514 378.355 398.996 373.042 397.708 371.11C400.445 369.983 403.504 366.28 403.825 363.544C407.689 364.188 413.483 361.612 416.058 362.256C411.875 356.783 404.953 354.851 397.869 355.334C390.544 355.737 387.406 360.888 386.44 366.442C382.094 369.018 380.645 377.71 382.255 380.769C379.759 380.689 377.425 383.104 376.46 384.472C373.08 383.022 368.25 381.977 364.789 381.977M366.32 373.205C364.871 369.02 366.79 365.252 367.769 361.937C370.264 353.487 368.735 351.312 361.169 352.439C360.525 356.464 364.389 369.664 366.32 373.205Z" fill="white"/>
        <path d="M370.02 409.745C374.366 415.38 381.771 415.059 384.83 414.575C387.406 421.334 395.615 421.175 399.157 424.875C402.699 428.58 414.77 428.259 418.312 426.163C415.095 425.843 410.909 423.913 406.884 420.53C402.026 416.45 404.308 408.296 400.444 405.399C403.342 402.179 403.825 396.867 403.181 394.774C406.241 393.003 408.494 390.105 408.816 388.656C414.129 388.334 418.796 385.598 420.729 383.506C423.466 386.081 430.387 382.7 434.092 387.046C434.896 376.421 424.754 370.787 417.992 374.329C415.254 372.881 408.012 373.847 406.724 375.779C404.47 374.812 398.192 378.032 395.294 380.125C398.514 378.355 398.996 373.042 397.708 371.11C400.445 369.983 403.504 366.28 403.825 363.544C407.689 364.188 413.483 361.612 416.058 362.256C411.875 356.783 404.953 354.851 397.869 355.334C390.544 355.737 387.406 360.888 386.44 366.442C382.094 369.018 380.645 377.71 382.255 380.769C379.759 380.689 377.425 383.104 376.46 384.472C373.08 383.022 368.25 381.977 364.789 381.977M366.32 373.205C364.871 369.02 366.79 365.252 367.769 361.937C370.264 353.487 368.735 351.312 361.169 352.439C360.525 356.464 364.389 369.664 366.32 373.205Z" stroke="black" stroke-width="0.521"/>
        <path d="M360.77 352.914C362.702 354.846 369.544 355.731 370.268 349.614C371.1 342.592 368.256 339.874 362.138 342.611C361.656 344.221 361.092 350.821 360.77 352.914Z" fill="white" stroke="black" stroke-width="0.521"/>
        <path d="M362.219 342.369C364.795 343.415 370.349 345.508 373.407 339.552C375.973 334.556 372.602 330.698 367.29 331.019C366.002 332.469 363.427 337.619 362.219 342.369Z" fill="white" stroke="black" stroke-width="0.521"/>
        <path d="M366.969 330.541C367.613 332.473 374.213 338.911 379.042 334.244C383.872 329.575 383.872 322.654 376.627 320.078C374.695 320.399 368.9 327.16 366.969 330.541Z" fill="white" stroke="black" stroke-width="0.521"/>
        <path d="M376.617 320.08C378.066 324.104 382.573 331.026 390.944 327.807C399.315 324.587 395.774 314.124 391.91 312.031C389.656 312.191 380.48 316.377 376.617 320.08Z" fill="white" stroke="black" stroke-width="0.521"/>
        <path d="M391.917 312.032C391.273 315.574 391.917 325.232 403.346 325.071C414.774 324.911 411.557 311.549 408.659 309.617C403.99 309.617 396.103 309.777 391.917 312.032Z" fill="white" stroke="black" stroke-width="0.521"/>
        <path d="M409.138 310.09C407.85 312.827 404.948 330.84 427.329 325.866C430.225 325.222 437.792 308.641 409.138 310.09Z" fill="white" stroke="black" stroke-width="0.521"/>
        <path d="M421.367 311.702C419.117 313.955 424.909 332.146 440.042 329.087C455.175 326.028 442.459 308.804 421.367 311.702Z" fill="white" stroke="black" stroke-width="0.521"/>
        <path d="M434.25 314.445C431.837 319.435 435.462 334.245 454.133 334.245C471.054 334.245 453.246 314.767 434.25 314.445Z" fill="white" stroke="black" stroke-width="0.521"/>
        <path d="M448.9 318.795C447.688 321.561 446.204 337.263 468.217 338.595C484.155 339.561 480.292 317.024 448.9 318.795Z" fill="white" stroke="black" stroke-width="0.521"/>
        <path d="M472.569 325.391C469.836 330.221 466.936 342.294 491.082 343.26C506.553 343.88 497.04 325.713 472.569 325.391Z" fill="white" stroke="black" stroke-width="0.521"/>
        <path d="M492.689 329.089C489.147 333.919 491.756 343.392 500.735 345.187C512.005 347.441 513.614 336.817 505.889 331.665C498.159 326.514 492.689 329.089 492.689 329.089Z" fill="white" stroke="black" stroke-width="0.521"/>
        <path d="M503.641 331.344C501.066 335.852 502.661 346.798 519.737 346.798C523.279 346.798 536.804 332.954 503.641 331.344ZM371.48 541.274C385.31 541.274 396.522 530.061 396.522 516.232C396.522 502.399 385.31 491.186 371.48 491.186C357.649 491.186 346.438 502.399 346.438 516.232C346.438 530.061 357.649 541.274 371.48 541.274Z" fill="white" stroke="black" stroke-width="0.521"/>
        <path d="M555.147 177.135C553.214 179.067 549.193 184.862 548.384 187.115C540.014 212.228 562.359 230.986 575.43 257.945C585.734 279.195 584.447 312.678 568.347 333.927C562.839 341.196 564.485 343.264 557.401 350.669C554.684 353.51 551.605 357.109 552.572 367.411C557.08 365.801 563.518 369.987 564.805 373.529C568.025 371.919 572.535 372.563 574.142 374.494C579.613 371.919 584.122 373.206 588.95 378.358C593.138 377.714 597.646 378.358 601.83 382.865C604.084 378.358 608.592 376.748 611.809 377.714C611.488 371.919 617.284 367.734 622.434 369.987C620.825 362.26 627.909 356.464 634.672 358.718C640.463 354.211 652.055 353.889 657.851 360.65C647.547 357.753 647.871 368.7 639.176 367.733C641.43 374.173 635.634 377.875 629.842 379.967C633.542 378.197 637.567 376.104 638.855 378.357C642.075 375.541 648.513 376.587 650.125 378.036C654.388 376.668 658.497 377.714 660.425 382.865C666.222 386.407 670.085 395.421 665.901 402.183C664.613 395.1 659.784 395.422 657.851 392.524C653.342 394.134 648.834 394.134 647.547 391.236C644.972 393.812 636.28 396.066 632.417 392.202C630.967 397.997 625.977 402.827 620.18 402.827C621.792 407.334 617.284 415.063 613.742 418.925C619.217 421.821 617.605 428.262 616.317 432.125C624.688 433.412 617.605 440.817 632.092 445.646C625.013 447.9 611.167 445.646 609.234 436.954C602.151 436.634 597.321 429.55 597.646 422.141C592.171 416.991 591.367 409.587 598.934 404.436C592.492 406.368 588.95 396.066 579.613 400.251C574.971 402.333 562.713 398.802 562.875 394.455C560.941 397.675 549.192 396.388 547.579 390.915C543.716 393.007 534.699 389.465 534.862 384.153C529.87 386.407 523.112 382.383 523.432 377.231C518.766 376.587 518.282 372.401 518.604 368.861C514.416 366.928 515.545 362.904 517.154 358.075C514.258 354.855 515.545 350.348 517.799 346.162C514.579 342.942 515.224 339.079 516.187 334.572C500.733 333.284 481.374 329.557 436.987 315.899C370.02 295.294 351.99 343.587 366.8 373.851C383.887 408.771 364.868 416.351 370.664 442.431C376.781 443.718 380 448.868 379.679 454.343C383.299 454.501 385.875 457.881 384.588 464.323C387.646 463.76 391.591 464.643 394.166 467.218C396.42 463.035 403.826 462.068 407.689 466.898C416.059 466.251 420.245 473.014 419.924 481.385C424.429 489.435 422.82 499.256 417.991 505.531C418.474 502.152 417.991 497.323 417.833 494.427C417.533 489.098 410.103 487.986 410.909 483.639C407.045 483.96 403.342 481.869 402.055 478.973C399.801 480.902 396.581 481.548 393.845 480.581C398.191 482.514 401.572 490.239 400.284 495.389C402.538 499.256 402.054 506.339 399.318 509.397C398.03 515.672 393.201 517.927 386.923 515.189C390.465 512.939 391.753 508.914 391.591 505.53C389.338 503.601 388.211 499.897 388.05 497.643C381.772 498.609 373.079 493.297 371.476 491.197C357.645 491.197 346.433 502.41 346.433 516.243C345.789 511.089 339.273 506.014 340.078 501.668C336.215 489.755 341.688 478.647 357.464 476.397C355.533 471.889 362.294 467.217 359.718 462.068C356.428 455.488 350.382 446.935 341.368 436.955C346.841 427.617 345.231 415.063 342.011 407.335C337.388 396.239 332.996 398.965 316.576 416.993C289.816 446.376 254.116 438.243 222.564 457.56C214.18 462.693 205.823 464.643 214.837 455.63C223.852 446.614 247.677 437.602 263.13 429.873C292.07 415.402 316.575 391.238 326.234 344.233C348.931 233.773 432.474 270.183 485.274 290.788C534.845 310.134 525.841 266.318 500.728 239.918C470.545 208.187 476.582 183.255 490.749 163.293C516.182 159.751 564.962 168.605 555.141 177.138L555.147 177.135Z" fill="white" stroke="black" stroke-width="0.521"/>
        <path d="M644.82 448.479C660.037 448.479 672.374 436.146 672.374 420.929C672.374 405.711 660.036 393.375 644.82 393.375C629.603 393.375 617.266 405.711 617.266 420.929C617.266 436.146 629.604 448.479 644.82 448.479Z" fill="white" stroke="black" stroke-width="0.521"/>
        <path d="M539.698 178.414C533.581 205.459 538.731 217.693 547.748 229.605C566.377 254.226 581.231 310.416 559.981 347.115" stroke="black" stroke-width="0.521"/>
        <path d="M571.889 315.411C574.464 314.445 579.293 311.387 580.422 306.074M573.819 303.661C574.623 298.993 581.865 296.98 582.027 291.99M573.979 285.46C573.496 280.63 581.225 276.284 580.096 271.455M569.799 268.08C569.153 265.343 576.237 260.192 574.307 255.846M564.489 251.18C563.039 248.121 567.869 244.581 565.777 241.361M556.759 237.65C556.276 235.558 559.255 230.97 557.646 228.234M549.029 221.721C549.671 220.916 552.249 218.984 551.199 216.57M543.719 210.051C544.765 209.487 547.902 208.52 547.502 206.188" stroke="black" stroke-width="0.521" stroke-linecap="round"/>
        <path d="M382.578 513.572C376.138 511.318 368.09 514.539 366.48 520.014M371.308 525.002C372.113 519.532 380.484 517.114 383.059 519.689C377.747 516.794 375.171 527.094 379.839 527.419M423.148 397.672C419.286 399.604 418.161 406.687 423.148 412.001M428.938 399.282C426.205 401.536 426.363 408.297 430.388 409.907C427.008 407.492 430.388 403.307 432.805 403.146C435.217 402.985 436.825 405.882 433.93 408.78M655.118 415.212C646.106 412.799 638.86 423.262 647.068 432.6C646.91 423.583 653.348 417.629 661.235 419.237M657.608 425.472C655.391 425.472 654.146 427.205 654.146 428.892C654.146 430.664 655.675 432.355 658.171 432.355C659.783 432.355 661.071 430.505 661.071 429.055M689.398 227.832C690.848 233.305 698.415 235.559 704.369 234.272M704.368 230.732C699.701 230.893 695.838 226.547 696.16 222.844C696.16 225.581 702.439 226.869 704.368 225.098" stroke="black" stroke-width="0.521" stroke-linecap="round" stroke-linejoin="round"/>
        <path d="M384.828 414.568C383.54 411.348 388.692 408.128 388.853 405.068C389.013 402.011 394.648 399.596 400.443 405.391M397.708 371.107C396.581 371.59 395.615 372.234 394.649 372.556M408.818 388.647C407.449 388.728 404.633 388.568 403.103 387.521M403.188 394.767C402.061 395.331 399.565 396.298 398.116 396.62M347.968 491.997C347.807 494.897 350.705 499.08 352.314 500.367M360.528 485.077C358.918 487.49 357.953 491.677 358.918 494.573M384.508 494.737C381.61 492.804 383.542 487.812 383.22 484.595C382.898 481.375 386.6 476.225 393.845 480.57M357.468 476.388C360.366 475.905 363.424 476.062 365.356 476.867M394.168 467.207C392.88 468.977 392.558 470.911 392.398 472.199M407.688 466.888C405.434 466.888 403.503 468.495 402.537 470.107M376.458 384.467C379.034 385.353 385.714 389.457 385.956 393.724M403.828 363.538C395.94 363.377 392.882 355.327 398.838 355.327M417.998 374.318C414.94 375.606 416.39 380.917 420.735 383.493M399.158 424.867C397.628 422.937 399.641 417.304 404.631 418.992M410.908 483.628C411.228 478.72 417.428 475.82 419.924 481.374M388.048 497.628C387.645 492.236 390.382 490.466 392.796 490.145C395.211 489.824 398.673 491.832 400.283 495.374M340.078 501.658C340.4 498.438 343.137 495.057 346.034 495.54M634.668 358.707C632.572 360.237 631.206 367.078 639.172 367.723M622.438 369.978C622.438 370.783 623.484 371.909 624.13 372.392M660.428 382.857C658.336 381.247 652.941 387.768 657.853 392.517M609.238 436.948C608.03 432.36 612.296 431.151 616.321 432.117M598.938 404.427C601.351 402.817 603.768 401.047 606.826 400.242M597.648 422.128C597.648 418.266 599.578 415.048 601.348 414.082M611.808 377.707C611.488 382.375 613.421 386.883 614.871 389.297M650.128 378.027C647.791 378.752 645.698 379.637 644.815 381.569M647.548 391.228C648.678 390.262 649.965 389.136 650.528 388.331M708.398 250.688C708.398 255.194 702.765 257.61 699.065 254.712M720.638 250.848C723.13 252.78 731.742 250.929 729.73 245.938M710.168 276.767C708.398 276.445 705.338 274.514 704.051 272.905M727.878 263.408C724.982 264.052 723.048 263.407 721.598 262.763M682.158 279.508C683.766 279.508 687.628 278.863 690.288 277.495M677.328 251.018C675.236 250.778 673.703 251.178 672.498 251.983M709.768 258.897C709.205 260.91 707.755 264.049 705.985 265.418" stroke="black" stroke-width="0.521" stroke-linecap="round"/>
        <path d="M671.859 265.988C675.884 264.218 680.876 277.9 690.534 273.071M691.339 258.898C690.051 260.668 689.247 263.406 689.085 265.82" stroke="black" stroke-width="0.521" stroke-linecap="round" stroke-linejoin="round"/>
        <path d="M498.806 237.983C500.094 237.823 502.348 237.339 502.831 235.729M333.156 387.853C337.986 390.59 341.366 395.258 339.273 402.18M554.496 223.173C555.946 224.139 561.421 224.139 564.479 223.013M568.346 226.393C568.183 228.647 568.829 237.178 564.484 238.949M566.096 237.823C570.121 239.111 578.171 238.628 580.746 231.223M575.106 237.493C577.198 240.713 577.839 246.991 571.564 250.371M576.716 242.813C581.383 244.423 592.17 244.583 591.041 235.408M587.346 242.813C590.566 247.32 604.734 252.633 602.479 243.296M574.306 255.843C579.776 257.131 587.506 253.428 584.286 243.77M599.736 248.603C600.54 252.306 618.569 256.169 616.157 247.798M612.776 252.633C616.159 260.36 634.026 259.716 628.393 249.413M625.496 257.453C629.038 261.8 644.817 259.223 638.538 248.76M638.366 257.293C648.186 264.698 659.616 254.073 647.22 246.346M652.856 254.883C661.552 261.805 672.177 249.248 664.61 245.707M584.116 251.983C586.853 252.788 592.649 252.466 593.936 247.476M591.766 250.853C591.446 258.178 603.762 260.995 606.899 252.543M602.796 257.133C605.05 261.963 615.834 263.893 617.604 256.972M615.836 260.193C617.606 265.023 626.944 264.54 629.519 259.549M626.136 262.773C629.032 269.051 640.944 269.051 643.682 259.875M641.596 263.893C646.263 266.791 656.246 265.663 655.438 256.649M653.506 263.093C660.426 268.728 670.248 263.254 665.419 253.756M664.936 270.493C668.64 269.849 670.569 262.444 666.706 260.513M579.136 271.783C586.861 267.598 588.311 260.515 582.998 253.593M585.736 264.703C590.566 267.6 599.74 264.543 601.349 257.459M592.336 265.503C595.069 269.044 595.553 273.391 592.011 277.415M594.586 270.013C603.116 264.701 613.74 274.521 605.853 280.477M604.406 269.533C606.339 269.05 609.719 265.509 610.039 261.484M608.266 273.233C611.808 269.53 635.958 277.097 620.662 284.823M619.536 263.093C624.203 264.863 626.619 271.464 619.536 273.718M625.656 279.193C630.806 273.881 646.906 277.261 641.11 284.023M637.246 277.093C640.142 267.273 657.367 273.39 651.734 277.415M633.706 267.273C634.189 269.205 634.348 274.034 631.131 276.61M648.196 265.343C648.838 266.953 648.679 270.011 647.229 271.943M659.136 265.503C660.103 267.273 661.711 270.654 658.169 273.391M521.346 191.453C521.504 200.628 524.726 206.746 537.121 200.951M525.206 202.403C519.089 210.613 526.01 219.467 538.085 210.613M506.366 206.423C514.736 215.438 529.708 208.838 520.049 195.154M530.196 214.153C528.583 223.007 535.829 224.778 541.784 220.753M498.966 207.873C500.491 216.774 509.591 223.81 518.445 218.337M509.916 220.113C509.916 232.831 527.462 234.279 531.487 221.079M525.206 229.123C530.839 240.713 543.073 236.045 547.098 228.963M512.806 210.613C515.06 216.247 519.569 222.526 530.031 217.857M480.616 207.873C482.066 212.541 490.436 218.176 500.095 211.736M486.566 213.833C481.412 221.399 491.716 228.482 504.112 217.213M492.686 223.173C494.778 233.798 498.961 242.33 514.094 228.646M506.526 234.113C512.001 240.873 520.372 245.059 528.259 233.63" stroke="black" stroke-width="0.521"/>
        <path d="M534.057 236.039C533.574 244.088 535.182 248.112 541.461 247.79C546.411 247.537 551.12 243.605 553.857 239.42M540.337 247.799C540.174 256.975 547.417 264.219 560.941 254.882M545.967 258.579C543.392 265.501 551.117 276.769 566.25 270.974M513.937 240.229C512.974 249.083 521.183 255.039 534.383 243.609M520.377 250.049C520.86 257.293 529.069 265.986 541.144 253.429M526.167 259.229C525.2 271.624 536.63 275.166 546.288 265.669M508.947 250.049C511.522 250.21 513.614 247.957 514.901 246.346M514.417 259.059C516.671 259.542 520.537 257.449 521.825 254.874M520.057 273.709C522.632 276.446 531.324 274.514 532.449 270.812M529.717 273.549C534.547 284.817 547.421 284.334 552.734 271.617M550.317 276.129C552.73 282.729 558.85 286.914 568.83 284.661M555.147 282.889C549.514 292.065 556.917 302.85 569.472 292.226M558.207 296.569C557.565 302.364 562.877 308.964 570.12 309.769M534.377 279.669C532.444 292.708 541.781 298.987 553.535 292.064M520.697 285.949C523.755 288.364 529.23 288.686 534.38 286.754M540.657 294.319C537.757 305.266 549.027 313.154 558.686 300.919M525.047 287.719C525.21 293.353 530.685 299.47 540.18 297.699M566.737 308.969C560.295 313.315 559.007 321.042 568.025 326.032M550.957 306.709C551.282 313.309 554.34 317.012 561.582 317.655M541.467 303.329C531.809 312.183 541.304 322.486 552.734 313.793M548.227 316.529C545.007 326.671 557.081 332.788 563.519 322.485M528.267 294.959C524.725 304.939 529.234 311.54 537.442 310.896M515.547 293.029C516.03 298.985 521.18 301.078 526.976 299.79M519.247 299.309C514.901 307.679 521.501 312.187 530.197 308.968M556.597 327.639C555.147 332.951 555.951 336.815 563.839 338.586M557.077 335.209C547.577 339.556 546.773 348.732 554.177 354.687M549.427 324.989C544.44 329.497 545.402 337.303 550.877 340.362M507.177 295.609C501.702 301.002 506.935 315.892 519.006 307.764M538.567 314.439C531.159 320.556 534.542 331.664 546.775 328.605M526.327 309.769C522.465 320.716 526.169 324.579 534.86 324.74" stroke="black" stroke-width="0.521"/>
        <path d="M499.128 295.121C492.528 300.111 494.298 307.194 497.198 310.414C500.095 313.634 505.566 312.184 507.337 307.999M485.278 290.781C477.874 300.279 485.278 311.547 495.745 308.167M524.888 318.951C517.321 321.688 511.55 328.558 516.192 334.566C518.93 338.108 530.842 338.591 534.222 324.907M511.198 310.091C506.852 316.369 508.298 322.326 516.348 325.384M510.718 321.851C506.048 324.427 502.988 327.486 504.118 333.12M500.258 312.031C498.488 319.597 500.578 324.266 505.245 326.519M500.098 321.041C492.852 320.558 489.152 323.616 491.565 330.7M492.208 322.811C485.125 320.235 483.995 314.118 487.054 307.679M486.088 317.181C478.358 317.503 474.98 321.366 474.98 326.679" stroke="black" stroke-width="0.521"/>
        <path d="M475.619 287.072C469.986 289.487 468.215 297.052 470.306 301.238C472.402 305.423 479.002 305.746 483.027 303.008M459.849 281.122C454.699 286.917 460.653 298.186 469.832 295.449M446.649 276.612C441.819 283.372 447.132 294.642 459.528 291.422M460.169 322.812C458.881 314.762 467.252 309.451 477.557 319.914M472.569 303.662C469.511 306.399 468.065 310.745 468.544 314.287M433.449 272.752C428.136 281.767 434.579 289.977 446.007 286.757M463.229 295.122C455.662 302.688 458.237 310.254 463.871 314.6M458.399 303.982C446.97 304.142 446.328 317.343 455.666 321.529M449.709 290.782C445.042 294.002 443.592 302.855 451.642 306.397M449.389 310.582C444.559 308.328 438.764 311.065 439.247 316.699M442.139 310.742C437.793 300.439 425.076 302.21 426.206 312.835M445.679 298.022C442.946 298.505 437.471 300.114 435.379 304.3M436.189 286.432C431.039 292.227 435.059 299.149 439.247 300.598M420.899 270.172C419.932 277.094 422.669 280.475 431.362 279.831M423.949 279.032C420.566 287.402 425.074 291.105 433.766 290.622M425.879 289.332C420.729 295.449 424.271 302.05 429.259 304.786M423.469 297.062C414.294 295.935 412.844 306.56 415.902 311.55" stroke="black" stroke-width="0.521"/>
        <path d="M416.056 269.375C410.424 271.79 407.204 278.873 410.263 283.219C413.323 287.565 419.439 286.116 422.819 283.863M412.196 285.145C407.528 292.228 411.713 297.54 416.704 299.633" stroke="black" stroke-width="0.521"/>
        <path d="M394.169 268.562C390.467 272.425 392.72 280.314 401.735 280.475C408.993 280.605 412.681 273.714 410.428 268.885M400.449 280.473C397.552 286.913 399.322 293.834 410.269 292.707M414.939 302.853C408.179 299.795 399.163 302.852 403.027 310.902M402.059 291.423C399.322 295.286 400.289 300.759 403.347 304.139M401.579 301.723C397.071 302.528 392.725 304.943 395.462 312.026M394.809 306.233C389.014 304.463 381.609 308.648 386.116 314.603M385.159 308.973C380.169 308.168 374.213 313.48 379.042 318.793M377.109 314.443C372.601 315.57 367.289 320.721 371.957 324.746M399.809 289.173C393.369 292.07 392.726 299.314 395.784 304.626M393.039 275.812C383.38 279.516 383.541 292.394 394.166 296.418M389.659 293.513C383.864 296.893 382.737 303.333 386.601 307.518M379.519 270.983C375.655 272.271 375.977 284.183 386.28 283.861M368.899 275.003C361.172 280.154 370.509 293.193 383.065 283.857M376.139 287.073C375.012 292.386 376.461 298.18 384.993 298.824M376.619 294.163C370.502 296.416 369.375 308.973 380.482 309.939M357.149 282.733C349.261 289.977 363.589 296.255 368.901 285.792M346.199 294.802C342.335 299.47 355.857 311.705 361.814 291.26M363.259 290.943C363.581 295.773 366.479 298.67 372.434 298.992M372.279 303.663C362.781 305.112 359.723 317.023 370.347 319.599M354.729 302.052C354.407 306.559 359.075 310.262 364.388 309.457M369.219 319.272C360.526 321.204 359.399 332.472 367.127 331.828M363.099 342.293C355.854 340.12 355.694 331.507 362.133 328.288" stroke="black" stroke-width="0.521"/>
        <path d="M357.147 334.723C351.03 338.426 353.445 347.278 356.664 348.566C359.884 349.854 362.459 348.245 362.782 345.509M362.297 357.902C362.941 362.087 347.406 360.479 355.375 347.44M355.287 358.633C350.056 366.843 358.587 373.523 363.98 366.521M356.017 368.533C353.924 375.133 361.892 379.882 367.043 374.73M338.627 306.712C335.729 312.668 350.217 314.922 351.183 302.688M334.607 315.573C331.71 327.163 353.602 324.748 347.968 309.777M348.447 317.503C351.505 319.273 360.682 319.435 362.935 309.615M356.337 317.823C356.981 320.881 359.717 324.583 362.293 325.711M345.877 320.883C344.911 327.161 351.189 332.312 358.433 331.829M346.997 327.003C343.456 331.833 342.329 341.169 353.437 341.812M330.097 328.612C328.327 333.602 338.79 338.754 344.907 330.544M326.877 341.323C325.991 345.107 335.409 350.176 340.721 334.078M336.537 342.293C338.791 346.317 346.357 349.536 351.025 341.648M343.457 346.483C341.525 352.117 346.837 357.428 353.277 355.819M331.387 345.193C330.099 353.242 339.436 357.909 345.231 353.724M325.267 348.733C322.531 359.036 335.731 362.899 340.721 355.172M337.347 358.233C337.83 364.028 346.845 369.018 353.928 364.189M321.247 363.062C320.603 365.638 331.389 368.214 332.998 359.199M327.527 365.312C330.102 371.912 338.795 373.523 343.786 365.474M340.887 368.693C342.014 374.81 349.902 378.191 356.824 374.005M359.717 376.423C357.947 384.633 366.478 391.232 371.79 386.725M346.037 374.973C343.462 383.988 354.73 389.138 361.008 384.148M332.517 370.462C331.873 378.832 338.473 383.824 346.039 380.121M318.187 371.272C315.933 376.745 327.846 381.253 333.48 376.586M310.777 386.242C313.836 389.783 324.46 386.242 325.426 378.354M322.537 384.143C326.4 388.651 335.576 391.065 339.279 381.406M336.057 386.402C335.896 393.324 348.292 398.316 352.316 385.598M366.877 388.092C365.75 391.472 368.407 396.865 373.96 397.509M356.657 386.003C355.852 389.866 361.487 395.258 367.443 393.086M368.577 394.693C366.967 398.878 368.335 404.913 373.969 404.833M369.137 402.503C364.952 406.044 366.722 412.323 372.76 412.565M366.967 408.453C361.011 412.475 363.104 421.329 370.991 420.85M348.937 391.393C348.937 400.086 359.722 401.372 361.815 393.324M357.627 398.473C356.017 403.624 360.202 408.614 366.802 407.165M358.917 460.612C360.367 462.708 366.322 459.166 364.712 455.625C363.102 452.083 356.793 454.008 357.468 457.716M363.257 454.173C364.062 447.09 355.691 445.965 353.598 452.081M356.657 448.543C358.75 445.001 351.667 440.173 348.769 445.323M351.347 443.223C353.279 438.069 345.23 435.819 344.586 440.486M342.817 433.723C343.783 431.148 352.797 432.756 348.934 438.069M355.857 444.513C359.399 441.293 353.443 434.692 349.74 437.108M379.677 454.332C376.859 454.652 373.961 456.502 376.054 462.462C377.505 466.595 383.701 466.807 384.586 464.312" stroke="black" stroke-width="0.521"/>
        <path d="M375.577 457.312C372.84 455.542 366.884 458.52 369.621 464.316C371.681 468.679 376.866 466.891 377.671 464.637M360.198 465.602C361.565 468.015 368.407 466.972 369.615 464.314M364.867 457.632C366.316 456.665 368.971 457.869 369.535 459.078M364.388 417.952C359.72 421.01 362.618 430.348 369.861 427.932M362.938 425.522C359.234 428.418 362.616 437.435 369.538 434.055M364.068 434.052C361.493 436.627 363.988 443.79 370.668 442.422M363.098 437.592C361.648 436.946 357.865 437.429 356.254 439.842M358.918 404.992C355.377 408.372 357.065 415.296 363.665 415.858M357.628 412.072C352.556 414.568 352.556 424.626 362.698 425.03M357.228 423.422C354.411 425.676 355.778 434.368 363.022 433.239M359.557 432.922C358.51 433.968 358.35 436.626 359.236 437.752M356.337 429.622C353.762 429.702 350.382 431.555 349.495 434.21M344.827 424.872C345.793 422.297 353.763 422.459 354.326 430.026M355.128 421.012C354.001 421.254 351.827 422.3 351.264 424.474M351.668 397.432C348.206 400.571 346.517 410.472 357.06 412.402M344.668 417.872C344.668 415.214 351.832 412.96 354.327 416.905M340.077 403.462C341.123 405.475 346.113 408.212 349.172 405.958M314.158 387.692C313.998 392.36 317.86 396.546 323.172 395.902C328.484 395.258 329.613 390.589 328.003 387.531M323.978 396.062C320.436 400.408 324.782 406.526 328.807 404.755M328.008 393.002C330.101 392.197 337.023 391.232 339.116 394.451M305.628 394.292C304.018 396.707 313.999 399.122 317.379 394.452M313.997 396.862C313.674 400.082 315.285 405.555 323.495 403.302" stroke="black" stroke-width="0.521"/>
        <path d="M324.786 408.288C326.074 405.551 319.956 401.044 315.288 406.034C310.62 411.024 315.932 416.659 318.83 414.726M303.376 397.508C300.961 401.693 310.298 409.341 315.611 402.258" stroke="black" stroke-width="0.521"/>
        <path d="M297.178 404.747C293.798 408.209 297.983 414.567 303.054 412.635C308.124 410.703 307.642 405.391 306.435 404.023" stroke="black" stroke-width="0.521"/>
        <path d="M290.657 411.191C287.92 413.685 290.576 419.561 294.36 419.561C298.142 419.561 300.477 416.585 299.752 412.801M306.027 410.711C305.544 414.413 311.017 416.988 314.559 413.53M314.727 406.761C315.21 405.956 314.808 404.587 314.004 403.943M284.787 416.181C281.649 418.677 288.41 425.598 292.675 419.239M309.007 414.811C306.994 416.741 310.214 421.811 313.433 420.281M297.987 418.351C298.47 421.809 305.231 424.384 309.497 419.076M301.687 421.811C300.641 423.986 302.734 427.449 305.31 426.965M365.757 441.701C363.263 446.609 371.23 452.326 377.026 446.368M371.547 449.021C370.34 451.675 371.789 455.379 373.962 456.746M363.987 454.571C364.551 452.154 368.011 449.901 371.151 451.029M359.797 448.211C360.28 446.041 363.177 443.865 365.351 444.431M549.347 347.761C537.918 347.922 542.747 366.274 552.567 362.571M545.647 361.291C543.393 364.994 547.739 370.87 552.567 367.408M551.287 368.131C547.904 373.765 559.979 382.377 564.808 373.523M560.947 376.901C561.105 382.214 576.56 385.594 574.31 374.969M572.857 380.761C576.557 387.039 590.403 387.683 588.953 378.346M585.897 384.791C588.797 388.976 602.318 391.551 601.835 382.859M530.997 331.831C532.927 336.821 539.527 338.592 546.772 335.694M526.817 335.371C531.325 338.268 524.725 351.469 517.805 346.156M526.817 343.581C531.809 345.996 537.925 344.225 539.696 337.141M536.637 342.611C537.12 346.314 542.433 349.211 549.354 347.762M524.237 346.481C530.679 351.954 521.341 363.223 517.154 358.071M526.657 350.661C529.715 352.915 537.603 351.627 538.407 345.671M534.867 350.661C535.513 354.524 538.571 355.973 542.917 356.134M524.887 355.971C528.104 360.479 536.154 361.766 539.695 355.811M545.647 366.113C540.655 367.079 535.827 363.538 536.147 359.191C536.793 365.308 529.227 368.528 524.397 365.791M518.607 368.851C522.79 370.943 527.299 363.056 523.757 357.583M523.437 377.221C528.429 377.543 529.07 369.977 524.404 365.791M534.867 384.141C539.055 383.175 537.763 373.999 527.621 373.194M547.577 390.911C551.602 389.784 548.381 379.642 537.277 380.286M562.877 394.451C565.61 390.266 556.597 383.183 549.194 386.885M570.437 400.241C575.429 401.69 578.807 388.49 563.033 390.582M579.617 400.241C583.967 399.114 587.025 391.226 574.309 393.801M589.277 400.891C593.139 402.823 594.91 391.554 583.157 394.613M534.217 364.511C535.83 367.408 535.184 373.043 532.125 374.491M534.697 371.271C537.917 372.559 542.264 371.432 544.839 366.281M540.337 371.271C541.3 373.525 541.625 378.032 539.529 380.286M541.147 375.131C544.689 377.063 548.872 374.487 550.643 370.784M548.387 374.001C550.962 375.611 553.217 383.177 548.87 386.236M551.287 382.701C554.345 382.861 558.854 382.861 561.75 378.998M559.657 381.091C562.394 381.896 565.611 386.404 564.487 390.428M564.647 388.971C567.71 388.649 573.017 386.556 574.467 382.854M573.017 385.271C575.597 386.72 577.367 389.778 577.042 393.32M577.037 390.741C580.095 390.581 582.833 388.971 583.637 385.59M582.837 387.851C585.091 388.656 587.829 391.231 587.991 394.291M587.667 392.351C589.921 392.029 591.529 390.581 592.98 388.326M599.097 388.011C601.997 390.909 598.134 400.568 592.177 398.797M537.277 192.901C531.319 196.442 514.414 195.316 522.785 181.311M538.887 183.401C527.137 188.069 512.645 179.055 527.779 169.235M523.757 166.021C513.937 166.021 507.336 181.797 520.54 187.27M485.607 172.621C483.032 177.611 492.207 183.084 498.486 178.094C503.349 174.228 502.99 163.767 500.094 159.742M480.617 184.531C477.397 195.155 501.063 195.799 497.359 178.896M479.327 200.311C480.131 208.36 502.027 205.784 494.94 189.525M497.517 185.011C499.287 187.426 504.117 191.611 512.325 190.806M501.377 173.581C502.102 176.478 507.01 178.732 513.29 176.56M281.727 418.511C276.174 422.457 284.706 428.653 287.844 421.811M277.377 421.571C271.824 425.513 280.356 431.709 283.494 424.867M272.787 424.551C267.232 428.497 275.765 434.693 278.904 427.851M267.957 427.291C262.644 430.108 268.842 437.029 274.235 430.911M262.727 429.951C257.414 432.764 263.613 439.689 269.005 433.571M289.697 421.651C289.616 425.755 297.424 427.447 300.24 421.326M294.607 425.441C292.192 428.499 296.62 432.283 299.035 430.911M284.217 424.871C283.975 428.333 290.736 430.346 294.037 426.563M287.927 428.501C285.753 431.318 290.019 435.101 292.757 433.971M279.717 428.011C279.957 430.748 283.821 433.886 288.007 432.115M282.207 431.711C280.597 433.161 281.402 436.544 283.656 437.591M273.837 431.471C273.193 433.967 277.46 438.396 281.806 435.496M274.717 434.371C272.142 436.384 272.463 439.441 275.763 439.841M268.527 434.051C268.205 435.739 270.379 438.476 273.116 438.155M254.757 433.891C252.182 435.258 258.782 442.261 262.886 435.741M248.397 436.781C245.177 438.314 253.147 446.039 256.688 438.151M269.247 436.461C266.751 437.024 265.142 440.649 267.234 442.094M261.117 437.751C260.795 439.201 263.854 441.613 266.35 440.731M259.027 438.401C256.612 439.931 257.9 444.193 260.717 443.551M250.417 441.211C248.163 442.899 249.692 446.281 252.832 445.478M254.517 440.971C254.598 441.854 256.61 443.225 258.301 442.663M242.607 439.521C239.791 440.729 239.952 447.813 249.45 443.951M236.247 442.341C232.302 444.274 233.59 449.587 242.203 444.516M242.927 444.921C241.881 445.725 240.755 449.267 244.697 447.896M235.687 446.601C234.077 448.051 235.124 451.031 238.667 449.901M227.397 447.091C224.5 448.783 230.857 451.037 235.124 446.528M229.327 449.181C228.039 450.469 228.039 454.251 231.419 452.885M221.117 450.711C219.185 452.161 222.485 454.094 228.522 451.436M223.527 452.801C221.273 454.651 221.514 456.984 224.815 456.259M216.847 453.851C214.352 456.105 217.974 457.634 222.32 455.781M216.927 456.351C212.66 458.281 214.512 461.821 217.167 460.455M359.397 468.661C358.407 470.791 361.651 472.523 364.71 472.041C367.647 471.578 370.458 469.157 368.25 465.765M368.407 469.951C371.304 472.205 376.456 469.631 376.456 466.247" stroke="black" stroke-width="0.521"/>
        <path d="M545.972 128.832C533.093 122.392 506.372 110.48 498.805 120.139C505.725 117.242 526.009 120.3 542.751 135.754L545.972 128.832Z" fill="white" stroke="black" stroke-width="0.521"/>
        <path d="M553.781 128.148C538.889 110.801 530.118 114.684 519.41 108.709C509.352 103.095 493.331 101.948 490.227 110.876C504.923 103.719 518.415 114.725 526.702 116.056C538.085 117.884 544.51 126.685 547.84 130.732L553.781 128.148ZM609.881 125.928C602.151 108.22 585.627 112.845 578.327 105.323C567.706 94.377 540.823 84.235 529.714 91.801C554.181 90.513 564.602 108.666 577.685 114.982C587.023 119.49 597.002 129.147 609.881 125.928Z" fill="white" stroke="black" stroke-width="0.521"/>
        <path d="M580.912 124.002C567.712 107.582 547.424 93.0945 538.091 98.5675C550.324 99.2115 554.187 107.743 562.883 113.216C571.575 118.689 567.713 126.577 580.912 124.002ZM518.122 152.982C504.276 147.831 477.234 145.255 464.676 161.032C485.605 164.572 517.155 162.641 518.122 152.982Z" fill="white" stroke="black" stroke-width="0.521"/>
        <path d="M515.55 159.098C501.704 152.658 490.892 161.653 477.879 160.386C453.091 157.971 435.383 159.42 433.129 171.332C447.296 158.615 471.121 169.079 480.779 166.503C490.437 163.927 526.175 166.181 537.442 171.01C531.646 163.927 522.634 161.996 515.55 159.098ZM559.01 122.228C555.793 111.603 555.952 100.335 571.889 101.14C567.864 96.1496 553.056 93.5736 550.639 112.248C533.093 99.3696 513.935 97.1156 510.397 108.224C519.409 100.497 533.414 106.131 550.155 125.127C551.605 124.322 555.468 122.712 559.009 122.229L559.01 122.228Z" fill="white" stroke="black" stroke-width="0.521"/>
        <path d="M534.87 136.877C524.89 130.438 511.366 119.974 535.033 115.789C524.891 110.316 510.079 112.73 511.691 131.404C484.645 120.457 465.224 124.152 461.141 134.945C456.632 146.858 473.379 153.458 476.274 145.892C473.215 147.18 462.753 143.639 468.224 136.877C473.699 130.117 501.749 135.192 528.432 149.112C535.836 152.976 561.271 152.332 534.87 136.877Z" fill="white" stroke="black" stroke-width="0.521"/>
        <path d="M527.78 154.589C520.08 138.867 495.101 153.14 490.067 137.911C483.187 160.223 525.588 147.877 527.78 154.589ZM686.67 171.649C691.907 174.252 696.437 170.16 688.424 166.951C693.666 169.552 698.237 165.559 690.224 162.348C695.466 164.949 700.037 160.956 692.024 157.746C689.887 159.897 686.828 167.786 686.67 171.649ZM689.4 141.389C700.992 129.155 688.437 124.969 702.6 112.413C714.192 102.14 704.812 95.2929 715.804 87.2999C719.346 84.7249 727.071 79.5729 727.717 74.4219C732.384 86.0119 713.225 87.6219 714.513 106.296C715.333 118.186 707.296 117.147 704.213 137.204C703.567 141.389 700.671 150.726 689.4 141.389Z" fill="white" stroke="black" stroke-width="0.521"/>
        <path d="M694.559 146.861C700.997 133.017 708.388 133.283 711.942 127.866C718.705 117.563 733.03 129.636 745.105 120.461C743.013 133.5 726.755 128.831 719.672 137.203C712.589 145.573 706.793 149.437 694.559 146.861Z" fill="white" stroke="black" stroke-width="0.521"/>
        <path d="M696.171 151.368C707.442 142.353 715.746 148.368 723.538 143.641C743.176 131.728 751.067 146.055 768.613 140.421C763.943 151.689 738.025 142.031 726.759 150.402C715.488 158.772 675.888 166.822 696.171 151.368ZM663.331 215.598C663.168 210.447 658.339 203.846 651.577 203.042C644.819 202.237 641.919 195.154 636.769 194.832C631.619 194.51 628.236 184.207 621.152 184.368C614.069 184.529 611.172 193.705 627.752 202.076C644.335 210.447 662.685 220.105 663.331 215.598ZM642.401 219.948C635.318 220.27 634.351 230.573 627.593 230.895C636.926 235.885 643.689 228.641 648.518 222.202L642.401 219.948Z" fill="white" stroke="black" stroke-width="0.521"/>
        <path d="M648.201 221.228C642.084 226.379 640.313 237.165 649.168 240.223C643.855 232.898 658.505 229.598 653.997 222.837L648.201 221.228Z" fill="white" stroke="black" stroke-width="0.521"/>
        <path d="M654.311 221.56C649.481 230.897 661.878 232.023 658.657 239.107C665.74 237.497 666.869 224.136 660.427 220.594L654.311 221.56Z" fill="white" stroke="black" stroke-width="0.521"/>
        <path d="M606.98 201.586C618.572 200.942 629.173 207.213 636.281 217.362C640.789 223.801 655.919 226.377 661.073 221.225C666.223 216.075 663.327 205.127 650.448 208.669C647.228 203.196 637.889 205.128 633.384 200.62C628.876 196.113 611.488 183.235 606.98 201.586Z" fill="white" stroke="black" stroke-width="0.521"/>
        <path d="M650.45 208.678C647.392 209.322 646.425 214.634 648.354 217.371ZM657.05 211.898C658.017 213.508 657.37 215.761 656.887 216.888ZM625.34 202.078C631.294 202.4 632.423 206.747 638.861 208.356Z" fill="white"/>
        <path d="M650.45 208.678C647.392 209.322 646.425 214.634 648.354 217.371M657.05 211.898C658.017 213.508 657.37 215.761 656.887 216.888M625.34 202.078C631.294 202.4 632.423 206.747 638.861 208.356" stroke="black" stroke-width="0.521" stroke-linecap="round"/>
        <path d="M621.399 187.426C641.97 192.577 658.291 197.085 668.412 202.88C678.533 208.675 694.203 210.285 707.915 206.422C721.628 202.558 748.07 199.017 746.766 216.081C753.954 207.548 744.808 198.372 726.524 196.762C726.854 188.392 717.893 180.825 711.452 185.815C717.41 185.011 722.553 196.118 710.803 200.625C713.086 192.255 704.761 184.688 696.111 188.391C701.661 190.001 707.273 199.308 694.856 202.879C687.018 205.133 675.593 202.236 667.106 197.084C658.618 191.933 610.953 173.259 621.399 187.426Z" fill="white" stroke="black" stroke-width="0.521"/>
        <path d="M673.31 179.059C666.872 181.956 671.056 188.718 661.077 192.581C651.094 196.444 644.173 205.298 646.427 212.864C653.19 198.054 665.102 198.698 669.285 192.903C673.473 187.108 679.589 178.576 673.31 179.059Z" fill="white" stroke="black" stroke-width="0.521"/>
        <path d="M675.078 180.016C674.758 191.767 665.508 187.486 669.12 204.002C670.249 209.153 672.34 217.524 668.799 225.895C679.182 218.329 672.503 202.435 677.169 196.436C679.424 193.539 682.319 189.031 683.449 185.168C681.032 191.928 681.195 204.486 687.795 207.705C682.482 195.148 702.124 184.846 688.599 170.358C686.669 173.9 680.549 180.177 675.078 180.016ZM642.238 168.266C643.851 170.681 645.458 176.798 644.008 180.179C647.23 178.247 651.901 173.257 653.346 169.876C659.946 170.842 662.521 179.052 656.246 182.593C660.109 182.593 666.709 182.593 670.409 178.247C665.905 173.257 651.901 165.529 642.239 168.266H642.238Z" fill="white" stroke="black" stroke-width="0.521"/>
        <path d="M542.111 145.18C541.069 144.23 539.311 143.328 536.157 142.68C526.411 140.682 531.444 131.896 539.74 131.974C557.444 112.657 567.386 127.548 588.957 121.431C596.507 119.291 601.69 119.924 605.803 121.703C615.461 115.263 626.791 117.063 635.003 124.629C635.916 123.178 637.141 122.07 638.861 121.592C646.424 119.492 652.541 125.94 654.632 134.312C660.528 133.219 667.262 136.137 671.69 140.162C677.824 137.012 682.048 136.872 683.603 140.11C689.078 137.535 696.17 135.92 699.711 144.612C703.253 153.305 691.341 150.73 689.407 169.082C688.216 180.402 675.565 184.857 665.582 178.096C649.615 167.279 634.032 165.539 626.303 181.96C618.578 198.38 612.524 207.92 593.786 202.565C587.028 200.633 578.332 203.209 572.861 210.614C567.386 218.019 559.015 211.096 549.036 211.901C561.59 209.97 556.782 206.811 567.711 206.106C577.691 205.462 575.116 196.126 581.553 194.838C556.44 201.278 557.407 191.94 536.803 198.379C545.816 186.789 559.983 193.228 567.066 186.467C548.391 186.145 540.041 173.945 531.649 179.062C518.449 187.112 524.241 210.027 489.795 208.038C473.053 207.072 462.428 209.326 452.449 219.308C469.837 183.248 493.487 203.058 504.929 191.619C511.691 184.858 516.841 179.706 520.382 173.267C521.628 171.001 523.316 169.705 525.424 169.204C496.77 160.189 514.099 146.146 542.112 145.181L542.111 145.18Z" fill="white" stroke="black" stroke-width="0.521"/>
        <path d="M683.589 140.109C684.027 141.014 684.251 142.189 684.251 143.642C684.251 150.724 673.627 151.047 672.985 161.511C672.647 166.984 672.018 170.042 668.314 169.398C664.614 168.754 661.393 162.959 664.934 156.198" fill="white"/>
        <path d="M683.589 140.109C684.027 141.014 684.251 142.189 684.251 143.642C684.251 150.724 673.627 151.047 672.985 161.511C672.647 166.984 672.018 170.042 668.314 169.398C664.614 168.754 661.393 162.959 664.934 156.198" stroke="black" stroke-width="0.521" stroke-linecap="round"/>
        <path d="M547.42 134.628C544.753 132.754 542.087 131.993 539.695 131.971ZM605.74 121.648C614.265 125.338 618.423 134.194 630.807 134.628C642.728 135.046 650.128 152.336 670.086 141.067C670.628 140.762 671.156 140.477 671.669 140.213M635 124.628C633.22 127.458 632.817 131.406 633.304 134.872ZM596.04 161.028C580.911 161.028 577.044 168.755 577.044 176.16C577.044 183.565 584.127 193.224 596.686 193.224C609.24 193.224 616.003 185.497 616.003 177.126C616.003 168.755 608.273 161.028 596.04 161.028Z" fill="white"/>
        <path d="M547.42 134.628C544.753 132.754 542.087 131.993 539.695 131.971M605.74 121.648C614.265 125.338 618.423 134.194 630.807 134.628C642.728 135.046 650.128 152.336 670.086 141.067C670.628 140.762 671.156 140.477 671.669 140.213M635 124.628C633.22 127.458 632.817 131.406 633.304 134.872M596.04 161.028C580.911 161.028 577.044 168.755 577.044 176.16C577.044 183.565 584.127 193.224 596.686 193.224C609.24 193.224 616.003 185.497 616.003 177.126C616.003 168.755 608.273 161.028 596.04 161.028Z" stroke="black" stroke-width="0.521"/>
        <path d="M598.768 192.898C598.448 188.713 590.88 189.356 591.201 186.137C591.522 182.917 595.389 181.629 595.389 177.122C595.389 172.615 602.147 172.292 604.401 175.834C606.656 179.375 613.418 186.297 614.868 182.756M604.408 175.838C600.866 179.379 599.258 186.623 603.925 192.258ZM609.238 181.308C608.113 183.723 607.792 187.425 609.08 189.678Z" fill="white"/>
        <path d="M598.768 192.898C598.448 188.713 590.88 189.356 591.201 186.137C591.522 182.917 595.389 181.629 595.389 177.122C595.389 172.615 602.147 172.292 604.401 175.834C606.656 179.375 613.418 186.297 614.868 182.756M604.408 175.838C600.866 179.379 599.258 186.623 603.925 192.258M609.238 181.308C608.113 183.723 607.792 187.425 609.08 189.678" stroke="black" stroke-width="0.521"/>
        <path d="M669.36 169.479C681.193 170.445 683.206 157.405 674.352 156.601M654.8 134.309C650.696 129.078 641.279 127.307 641.117 138.414" stroke="black" stroke-width="0.521"/>
        <path d="M639.989 151.049C635.964 141.069 625.66 139.619 620.185 144.609C615.631 148.763 615.518 159.581 625.339 161.835C628.719 157.811 635.319 152.497 639.989 151.049ZM635.559 144.769C629.763 139.617 621.23 149.357 628.959 158.291ZM525.309 169.159C529.189 168.239 534.859 170.137 543.555 174.226C549.03 176.802 565.451 182.276 575.751 176.802C565.126 180.666 557.08 164.567 549.03 166.499C540.98 168.431 526.251 171.409 520.055 165.533C535.184 166.499 543.322 154.512 560.618 164.889C565.451 167.787 571.568 169.719 577.039 169.397C562.876 152.333 544.201 163.279 542.268 149.436C550.801 158.612 571.647 147.343 582.272 164.568M545.329 152.009C543.337 149.529 544.237 147.059 542.099 145.104Z" fill="white"/>
        <path d="M635.559 144.769C629.763 139.617 621.23 149.357 628.959 158.291M525.309 169.159C529.189 168.239 534.859 170.137 543.555 174.226C549.03 176.802 565.451 182.276 575.751 176.802C565.126 180.666 557.08 164.567 549.03 166.499C540.98 168.431 526.251 171.409 520.055 165.533C535.184 166.499 543.322 154.512 560.618 164.889C565.451 167.787 571.568 169.719 577.039 169.397C562.876 152.333 544.201 163.279 542.268 149.436C550.801 158.612 571.647 147.343 582.272 164.568M545.329 152.009C543.337 149.529 544.237 147.059 542.099 145.104M639.989 151.049C635.964 141.069 625.66 139.619 620.185 144.609C615.631 148.763 615.518 159.581 625.339 161.835C628.719 157.811 635.319 152.497 639.989 151.049Z" stroke="black" stroke-width="0.521"/>
        <path d="M654.8 134.308C651.258 130.525 643.533 133.503 645.704 141.15C647.396 137.609 651.017 134.63 654.8 134.308ZM632.91 154.928C635.348 153.158 637.864 151.705 639.985 151.046C638.827 148.182 637.155 146.02 635.227 144.512C633.385 143.24 628.093 150.356 632.91 154.928Z" fill="black"/>
        <path d="M623.398 141.866C617.602 138.003 612.29 138.325 610.519 141.544C606.336 141.384 602.873 144.442 602.711 150.559M611.648 153.136C604.728 148.388 595.227 150.158 595.873 160.783M591.688 166.816C595.068 164.079 599.896 162.148 603.601 166.977M643.368 156.356C642.08 158.126 641.113 160.863 643.204 165.049C640.629 161.669 634.193 161.669 627.267 170.683M658.658 155.876C650.288 156.842 650.45 162.315 657.208 164.73M599.097 135.426C592.014 133.977 586.865 138.163 596.685 141.704M612.618 130.596C602.635 128.181 598.61 130.756 603.118 133.011M583.798 170.686C583.478 174.228 585.406 178.896 591.202 173.584M585.738 181.306C585.738 182.272 585.575 183.398 584.93 184.203M562.548 134.136C556.431 132.366 555.306 126.731 562.39 127.214M560.458 147.176C553.695 144.922 553.695 138.322 559.328 138.966M573.018 143.796C565.13 141.864 564.81 136.391 570.768 137.196M573.978 127.056C569.795 126.734 563.353 131.403 574.141 134.139M585.738 136.396C575.918 134.947 576.08 138.972 581.871 141.548M593.138 127.056C585.571 125.607 582.996 130.115 588.146 132.046M569.318 154.906C567.464 153.377 565.938 146.052 574.788 148.226M587.668 152.656C581.714 151.046 576.08 156.841 581.551 160.222M595.548 145.736C589.273 144.609 583.96 146.38 587.34 148.633" stroke="black" stroke-width="0.521" stroke-linecap="round"/>
        <path d="M654.457 134.312C650.919 134.967 647.749 137.046 645.695 141.152Z" fill="white"/>
        <path d="M654.457 134.312C650.919 134.967 647.749 137.046 645.695 141.152" stroke="black" stroke-width="0.521"/>
    </g>
    <defs>
        <clipPath id="clip0_2000_12657">
            <rect width="900" height="600" fill="white"/>
        </clipPath>
    </defs>
</svg>
