<svg width="900" height="600" viewBox="0 0 900 600" fill="none"
    xmlns="http://www.w3.org/2000/svg">
    <g clip-path="url(#clip0_1764_590)">
        <path id="1" d="M0 0H900V600H0V0Z" fill="#EDEDF0"/>
        <path id="2" d="M150 60L202.92 222.81L64.3203 122.19H235.68L97.0803 222.81L150 60ZM311.736 32.3867L306.733 89.2319L277.341 40.2879L329.906 62.6395L274.266 75.4265L311.736 32.3867ZM381.534 99.1204L354.864 149.569L346.769 93.0551L386.541 134.054L330.299 124.247L381.534 99.1204ZM388.184 199.731L343.254 234.911L358.918 180.011L378.505 233.668L331.156 201.771L388.184 199.731ZM310.587 241.936L307.945 298.94L276.549 251.256L329.996 271.409L274.933 286.492L310.587 241.936Z" fill="#ddd"/>
    </g>
    <defs>
        <clipPath id="clip0_1764_590">
            <rect width="900" height="600" fill="white"/>
        </clipPath>
    </defs>
</svg>
