<svg width="1020" height="600" viewBox="0 0 1020 600" fill="none"
    xmlns="http://www.w3.org/2000/svg">
    <g clip-path="url(#clip0_2062_632)">
        <path id="1" d="M0 0H1020V600H0V0Z" fill="#EDEDF0"/>
        <path id="2" d="M0 300H1020V450H0V300Z" fill="#DDDDDD"/>
        <path id="3" d="M0 350H1020V400H0V350Z" fill="#CCCCCC"/>
        <g id="4">
            <path d="M382.5 195L373.229 223.532L387.495 228.167" fill="#BBBBBB"/>
            <path d="M382.5 195L391.771 223.532L377.505 228.167" fill="#BBBBBB"/>
            <path d="M411.031 215.734H381.031V230.734" fill="#BBBBBB"/>
            <path d="M411.031 215.734L386.761 233.368L377.944 221.233" fill="#BBBBBB"/>
            <path d="M400.129 249.266L390.858 220.734L376.593 225.369" fill="#BBBBBB"/>
            <path d="M400.129 249.266L375.858 231.632L384.675 219.497" fill="#BBBBBB"/>
            <path d="M364.863 249.273L389.134 231.64L380.317 219.505" fill="#BBBBBB"/>
            <path d="M364.863 249.273L374.134 220.742L388.4 225.377" fill="#BBBBBB"/>
            <path d="M353.969 215.727L378.239 233.36L387.056 221.225" fill="#BBBBBB"/>
            <path d="M353.969 215.727H383.969V230.727" fill="#BBBBBB"/>
            <path d="M382.5 495L373.229 523.532L387.495 528.167" fill="#BBBBBB"/>
            <path d="M382.5 495L391.771 523.532L377.505 528.167" fill="#BBBBBB"/>
            <path d="M411.031 515.734H381.031V530.734" fill="#BBBBBB"/>
            <path d="M411.031 515.734L386.761 533.368L377.944 521.233" fill="#BBBBBB"/>
            <path d="M400.129 549.266L390.858 520.734L376.593 525.369" fill="#BBBBBB"/>
            <path d="M400.129 549.266L375.858 531.632L384.675 519.497" fill="#BBBBBB"/>
            <path d="M364.863 549.273L389.134 531.64L380.317 519.505" fill="#BBBBBB"/>
            <path d="M364.863 549.273L374.134 520.742L388.4 525.377" fill="#BBBBBB"/>
            <path d="M353.969 515.727L378.239 533.36L387.056 521.225" fill="#BBBBBB"/>
            <path d="M353.969 515.727H383.969V530.727" fill="#BBBBBB"/>
            <path d="M553.691 319.375H523.691V334.375" fill="#BBBBBB"/>
            <path d="M553.691 319.375L529.421 337.009L520.604 324.873" fill="#BBBBBB"/>
            <path d="M542.789 352.914L533.519 324.382L519.253 329.018" fill="#BBBBBB"/>
            <path d="M542.789 352.914L518.519 335.281L527.335 323.145" fill="#BBBBBB"/>
            <path d="M507.523 352.922L531.794 335.288L522.977 323.153" fill="#BBBBBB"/>
            <path d="M507.523 352.922L516.794 324.39L531.06 329.025" fill="#BBBBBB"/>
            <path d="M496.629 319.375L520.899 337.009L529.716 324.873" fill="#BBBBBB"/>
            <path d="M496.629 319.375H526.629V334.375" fill="#BBBBBB"/>
            <path d="M525.16 298.648L515.89 327.18L530.155 331.815" fill="#BBBBBB"/>
            <path d="M525.16 298.648L534.431 327.18L520.165 331.815" fill="#BBBBBB"/>
            <path d="M268.375 412.078H238.375V427.078" fill="#BBBBBB"/>
            <path d="M268.375 412.078L244.104 429.712L235.288 417.576" fill="#BBBBBB"/>
            <path d="M257.473 445.617L248.202 417.085L233.936 421.721" fill="#BBBBBB"/>
            <path d="M257.473 445.617L233.202 427.984L242.019 415.848" fill="#BBBBBB"/>
            <path d="M222.207 445.625L246.478 427.991L237.661 415.856" fill="#BBBBBB"/>
            <path d="M222.207 445.625L231.478 417.093L245.743 421.729" fill="#BBBBBB"/>
            <path d="M211.312 412.078L235.583 429.712L244.4 417.576" fill="#BBBBBB"/>
            <path d="M211.312 412.078H241.312V427.078" fill="#BBBBBB"/>
            <path d="M239.844 391.352L230.573 419.883L244.839 424.519" fill="#BBBBBB"/>
            <path d="M239.844 391.352L249.114 419.883L234.848 424.519" fill="#BBBBBB"/>
            <path d="M488.297 520.617L479.026 492.085L464.761 496.721" fill="#BBBBBB"/>
            <path d="M488.297 520.617L464.026 502.984L472.843 490.848" fill="#BBBBBB"/>
            <path d="M453.031 520.625L477.302 502.991L468.485 490.856" fill="#BBBBBB"/>
            <path d="M453.031 520.625L462.302 492.093L476.568 496.729" fill="#BBBBBB"/>
            <path d="M442.137 487.078L466.407 504.712L475.224 492.576" fill="#BBBBBB"/>
            <path d="M442.137 487.078H472.137V502.078" fill="#BBBBBB"/>
            <path d="M470.668 466.352L461.397 494.883L475.663 499.519" fill="#BBBBBB"/>
            <path d="M470.668 466.352L479.938 494.883L465.673 499.519" fill="#BBBBBB"/>
            <path d="M499.199 487.078H469.199V502.078" fill="#BBBBBB"/>
            <path d="M499.199 487.078L474.929 504.712L466.112 492.576" fill="#BBBBBB"/>
            <path d="M311.961 277.914L302.69 249.382L288.425 254.018" fill="#BBBBBB"/>
            <path d="M311.961 277.914L287.69 260.281L296.507 248.145" fill="#BBBBBB"/>
            <path d="M276.695 277.922L300.966 260.288L292.149 248.153" fill="#BBBBBB"/>
            <path d="M276.695 277.922L285.966 249.39L300.232 254.025" fill="#BBBBBB"/>
            <path d="M265.801 244.375L290.071 262.009L298.888 249.873" fill="#BBBBBB"/>
            <path d="M265.801 244.375H295.801V259.375" fill="#BBBBBB"/>
            <path d="M294.332 223.648L285.062 252.18L299.327 256.815" fill="#BBBBBB"/>
            <path d="M294.332 223.648L303.603 252.18L289.337 256.815" fill="#BBBBBB"/>
            <path d="M322.863 244.375H292.863V259.375" fill="#BBBBBB"/>
            <path d="M322.863 244.375L298.593 262.009L289.776 249.873" fill="#BBBBBB"/>
            <path d="M276.695 520.625L300.966 502.991L292.149 490.856" fill="#BBBBBB"/>
            <path d="M276.695 520.625L285.966 492.093L300.232 496.729" fill="#BBBBBB"/>
            <path d="M265.801 487.078L290.071 504.712L298.888 492.576" fill="#BBBBBB"/>
            <path d="M265.801 487.078H295.801V502.078" fill="#BBBBBB"/>
            <path d="M294.332 466.352L285.062 494.883L299.327 499.519" fill="#BBBBBB"/>
            <path d="M294.332 466.352L303.603 494.883L289.337 499.519" fill="#BBBBBB"/>
            <path d="M322.867 487.086H292.867V502.086" fill="#BBBBBB"/>
            <path d="M322.867 487.086L298.597 504.719L289.78 492.584" fill="#BBBBBB"/>
            <path d="M311.965 520.617L302.694 492.085L288.428 496.721" fill="#BBBBBB"/>
            <path d="M311.965 520.617L287.694 502.984L296.511 490.848" fill="#BBBBBB"/>
            <path d="M453.031 277.922L477.302 260.288L468.485 248.153" fill="#BBBBBB"/>
            <path d="M453.031 277.922L462.302 249.39L476.568 254.025" fill="#BBBBBB"/>
            <path d="M442.137 244.375L466.407 262.009L475.224 249.873" fill="#BBBBBB"/>
            <path d="M442.137 244.375H472.137V259.375" fill="#BBBBBB"/>
            <path d="M470.668 223.648L461.397 252.18L475.663 256.815" fill="#BBBBBB"/>
            <path d="M470.668 223.648L479.938 252.18L465.673 256.815" fill="#BBBBBB"/>
            <path d="M499.203 244.383H469.203V259.383" fill="#BBBBBB"/>
            <path d="M499.203 244.383L474.933 262.016L466.116 249.881" fill="#BBBBBB"/>
            <path d="M488.301 277.914L479.03 249.382L464.764 254.018" fill="#BBBBBB"/>
            <path d="M488.301 277.914L464.03 260.281L472.847 248.145" fill="#BBBBBB"/>
            <path d="M211.312 319.375L235.583 337.009L244.4 324.873" fill="#BBBBBB"/>
            <path d="M211.312 319.375H241.312V334.375" fill="#BBBBBB"/>
            <path d="M239.844 298.648L230.573 327.18L244.839 331.815" fill="#BBBBBB"/>
            <path d="M239.844 298.648L249.114 327.18L234.848 331.815" fill="#BBBBBB"/>
            <path d="M268.379 319.375H238.379V334.375" fill="#BBBBBB"/>
            <path d="M268.379 319.375L244.108 337.009L235.292 324.873" fill="#BBBBBB"/>
            <path d="M257.477 352.914L248.206 324.382L233.94 329.018" fill="#BBBBBB"/>
            <path d="M257.477 352.914L233.206 335.281L242.023 323.145" fill="#BBBBBB"/>
            <path d="M222.207 352.922L246.478 335.288L237.661 323.153" fill="#BBBBBB"/>
            <path d="M222.207 352.922L231.478 324.39L245.743 329.025" fill="#BBBBBB"/>
            <path d="M496.629 412.078L520.899 429.712L529.716 417.576" fill="#BBBBBB"/>
            <path d="M496.629 412.078H526.629V427.078" fill="#BBBBBB"/>
            <path d="M525.16 391.352L515.89 419.883L530.155 424.519" fill="#BBBBBB"/>
            <path d="M525.16 391.352L534.431 419.883L520.165 424.519" fill="#BBBBBB"/>
            <path d="M553.695 412.078H523.695V427.078" fill="#BBBBBB"/>
            <path d="M553.695 412.078L529.425 429.712L520.608 417.576" fill="#BBBBBB"/>
            <path d="M542.793 445.617L533.522 417.085L519.257 421.721" fill="#BBBBBB"/>
            <path d="M542.793 445.617L518.522 427.984L527.339 415.848" fill="#BBBBBB"/>
            <path d="M507.523 445.625L531.794 427.991L522.977 415.856" fill="#BBBBBB"/>
            <path d="M507.523 445.625L516.794 417.093L531.06 421.729" fill="#BBBBBB"/>
        </g>
    </g>
    <defs>
        <clipPath id="clip0_2062_632">
            <rect width="1020" height="600" fill="white"/>
        </clipPath>
    </defs>
</svg>
