<svg width="900" height="600" viewBox="0 0 900 600" fill="none"
    xmlns="http://www.w3.org/2000/svg">
    <g clip-path="url(#clip0_1978_12604)">
        <path id="1" d="M0 0H900V600H0V0Z" fill="#EDEDF0"/>
        <path d="M463.103 506.742C462.971 506.686 462.853 506.602 462.756 506.498L462.631 506.381C462.075 505.862 461.546 505.313 461.049 504.738C459.717 503.225 457.929 501.01 456.359 499.053C453.244 495.17 450.669 491.825 450.185 491.195L449.392 490.163L441.625 487.768L435.954 485.124L438.984 481.718L449.392 486.174L457.159 487.768L471.522 498.332L471.511 498.341C471.481 498.365 469.421 500.079 467.375 501.94C466.462 502.77 465.311 503.836 464.498 504.723C464.123 505.131 463.793 505.536 463.568 505.863C463.468 506.01 463.383 506.168 463.316 506.333L464.208 505.779L465.175 506.531L463.207 506.715L463.117 506.735L463.103 506.742ZM409.763 490.722C402.986 490.722 396.292 488.849 389.868 485.156L389.861 485.152L389.864 485.144C389.864 485.144 390.704 483.543 392.742 482.048C394.682 480.623 398.184 478.92 403.842 478.898H403.959C410.659 478.898 418.859 481.176 428.332 485.668C428.012 485.881 420.576 490.723 409.766 490.723L409.776 490.733L409.763 490.722ZM380.393 484.212C379.14 484.212 378.013 483.739 377.223 482.88C376.573 482.174 376.109 481.234 375.801 480.002C375.297 477.984 375.436 475.977 375.45 475.785C375.944 475.571 376.474 475.451 377.012 475.431L377.124 475.429C379.634 475.429 381.614 477.607 382.462 479.766C382.942 480.993 383.036 482.025 382.736 482.833C382.436 483.643 381.496 484.203 380.396 484.203L380.393 484.212ZM432.073 478.222C414.713 475.744 407.356 469.468 404.24 464.64C400.917 459.49 401.599 454.728 401.606 454.68L401.609 454.666L401.622 454.662C401.627 454.662 402.682 454.377 404.28 454.369C408.898 454.369 420.71 456.692 432.078 478.211L432.085 478.225L432.065 478.215L432.073 478.222ZM396.493 474.782C389.077 474.782 383.431 473.502 379.711 470.979C377.573 469.529 376.527 467.936 376.025 466.854C375.555 465.84 375.448 464.998 375.431 464.831C375.627 464.741 378.663 463.393 383.196 463.181C383.579 463.163 383.965 463.151 384.37 463.151C390.102 463.151 398.818 465.021 408.016 473.931L408.025 473.94H408.014C403.814 474.49 399.934 474.78 396.484 474.78L396.493 474.782ZM360.583 473.402C352.763 473.402 342.02 471.015 335.32 464.316L335.313 464.308L335.333 464.303C335.403 464.285 342.675 462.44 350.856 462.241C351.344 462.229 351.835 462.221 352.331 462.221C359.663 462.221 365.275 463.644 369.013 466.447C370.318 467.426 371.031 468.337 371.191 469.23C371.325 469.976 370.931 470.78 370.135 471.38C368.452 472.65 365.443 473.329 361.19 473.397L360.59 473.417L360.583 473.402ZM335.243 460.402C334.769 460.403 334.301 460.299 333.872 460.097C333.443 459.895 333.064 459.601 332.763 459.236C332.258 458.622 331.906 457.82 331.656 456.714C331.238 454.866 331.364 453.058 331.365 453.04V453.022C331.747 452.845 332.162 452.752 332.583 452.747H332.586C333.743 452.747 334.625 453.377 335.175 453.905C335.931 454.646 336.509 455.551 336.863 456.55C337.228 457.58 337.287 458.442 337.043 459.185C336.843 459.775 336.163 460.395 335.243 460.395V460.402ZM393.773 459.082C392.52 459.082 391.393 458.609 390.603 457.75C389.953 457.044 389.489 456.104 389.181 454.872C388.677 452.854 388.816 450.847 388.83 450.655C389.324 450.441 389.854 450.321 390.392 450.301L390.504 450.299C393.014 450.299 394.994 452.477 395.842 454.636C396.322 455.863 396.416 456.895 396.116 457.703C395.816 458.523 394.866 459.073 393.776 459.073L393.773 459.082ZM365.263 457.902C349.526 457.349 341.359 452.876 337.279 449.22C334.982 447.162 333.705 445.122 333.039 443.773C332.411 442.499 332.173 441.523 332.131 441.335L332.151 441.325C332.155 441.325 333.641 440.794 336.037 440.747L336.405 440.743C341.712 440.743 352.515 442.972 365.257 457.896V457.906L365.263 457.902ZM382.353 456.312C369.692 454.385 362.519 448.95 358.731 444.728C354.76 440.303 353.571 436.182 353.518 435.99C353.541 435.983 355.088 435.58 357.418 435.52C357.777 435.509 358.136 435.509 358.495 435.52C364.863 435.66 376.429 438.544 382.35 456.306H382.36L382.353 456.312ZM317.353 450.232C313.203 450.232 309.179 449.752 305.391 448.806C298.761 447.148 295.918 444.616 294.7 442.785C294.008 441.745 293.757 440.833 293.669 440.251C293.613 439.896 293.603 439.535 293.638 439.178L293.668 439.167C293.686 439.163 298.068 437.932 304.133 437.839C307.25 437.782 310.364 438.058 313.422 438.663C323.958 440.77 329.422 448.723 329.475 448.803L329.48 448.812L329.467 448.815C329.407 448.825 324.387 450.235 317.347 450.235L317.353 450.232ZM346.743 439.552C345.473 439.552 344.348 439.09 343.571 438.249C342.931 437.558 342.467 436.606 342.151 435.341C341.645 433.326 341.786 431.339 341.8 431.156C342.294 430.942 342.824 430.822 343.362 430.802L343.474 430.8C345.98 430.8 347.962 432.979 348.813 435.138C349.281 436.326 349.363 437.346 349.056 438.172C348.746 439.012 347.836 439.552 346.746 439.552H346.743ZM324.643 436.522C324.548 436.5 318.666 434.987 312.676 431.298C307.132 427.885 300.35 421.848 299.523 412.468V412.463L299.537 412.459C299.537 412.459 300.053 412.334 300.815 412.305C300.926 412.301 301.037 412.299 301.149 412.299C302.805 412.299 306.195 412.765 310.296 415.883C315.516 419.863 320.336 426.803 324.646 436.533L324.643 436.522ZM339.073 435.992C339.036 435.978 334.843 434.3 329.603 429.909C324.722 425.817 317.858 418.449 312.888 406.579C312.891 406.578 314.03 405.971 315.774 405.861C315.874 405.854 315.977 405.851 316.08 405.851C316.23 405.851 316.385 405.857 316.543 405.861C318.953 405.929 322.626 406.931 326.697 411.324C331.373 416.371 335.547 424.664 339.101 435.974L339.111 436.007L339.081 435.997L339.073 435.992ZM301.683 434.902C296.862 434.902 295.212 432.288 294.726 431.162C293.928 429.314 294.17 427.474 294.172 427.456L294.175 427.436C294.955 427.241 295.78 427.133 296.573 427.122L296.738 427.121C300.537 427.121 303.536 429.05 304.822 430.961C305.077 431.341 305.859 432.656 305.212 433.683C304.692 434.493 303.512 434.903 301.682 434.903L301.683 434.902ZM291.003 421.432C288.311 421.432 284.192 421.268 279.862 420.481C275.568 419.7 273.134 416.049 271.849 413.125C270.449 409.94 270.055 406.902 270.051 406.871H270.063C283.345 407.261 289.618 411.141 292.541 414.328C295.559 417.618 295.738 421.034 295.747 421.25H295.737C295.717 421.25 293.847 421.43 290.997 421.43L291.003 421.432ZM304.833 407.612C303.754 406.253 302.741 404.842 301.8 403.385C300.227 400.94 298.772 398.389 298.772 396.301C298.772 394.285 298.298 390.035 298.015 387.681C297.657 384.697 297.295 382.141 297.265 381.925L297.278 381.929C297.615 382.052 305.586 385.043 305.586 392.519C305.586 400.009 304.848 407.534 304.841 407.609L304.84 407.619H304.83L304.833 407.612ZM294.503 406.902C294.419 406.902 294.336 406.895 294.253 406.882C291.897 406.489 287.757 404.688 283.18 402.064C278.098 399.15 273.97 396.028 271.56 393.273C269.362 390.761 268.057 386.816 267.68 381.547C267.413 377.807 267.733 374.693 267.767 374.384C268.179 374.247 268.617 374.18 269.082 374.18C270.846 374.209 272.729 375.003 275.271 376.754C277.251 378.119 279.436 379.974 281.761 382.268C285.773 386.225 288.929 390.2 288.96 390.238L288.992 390.278C289.257 390.754 291.529 394.85 293.299 398.837C294.423 401.369 295.066 403.194 295.323 404.583C295.47 405.373 295.513 405.893 295.319 406.363C295.238 406.559 295.084 406.74 294.934 406.812C294.794 406.872 294.654 406.902 294.494 406.902H294.503Z" fill="#4E5B31"/>
        <path d="M436.897 506.742C437.029 506.686 437.147 506.602 437.244 506.498L437.369 506.381C437.925 505.862 438.454 505.313 438.951 504.738C440.283 503.225 442.071 501.01 443.641 499.053C446.756 495.17 449.331 491.825 449.815 491.195L450.608 490.163L458.375 487.768L464.046 485.124L461.016 481.718L450.608 486.174L442.841 487.768L428.478 498.332L428.489 498.341C428.519 498.365 430.579 500.079 432.625 501.94C433.538 502.77 434.689 503.836 435.502 504.723C435.877 505.131 436.207 505.536 436.432 505.863C436.532 506.01 436.617 506.168 436.684 506.333L435.792 505.779L434.825 506.531L436.793 506.715L436.883 506.735L436.897 506.742ZM490.237 490.722C497.014 490.722 503.708 488.849 510.132 485.156L510.139 485.152L510.136 485.144C510.136 485.144 509.296 483.543 507.258 482.048C505.318 480.623 501.816 478.92 496.158 478.898H496.041C489.341 478.898 481.141 481.176 471.668 485.668C471.988 485.881 479.424 490.723 490.234 490.723L490.224 490.733L490.237 490.722ZM519.607 484.212C520.86 484.212 521.987 483.739 522.777 482.88C523.427 482.174 523.891 481.234 524.199 480.002C524.703 477.984 524.564 475.977 524.55 475.785C524.056 475.571 523.526 475.451 522.988 475.431L522.876 475.429C520.366 475.429 518.386 477.607 517.538 479.766C517.058 480.993 516.964 482.025 517.264 482.833C517.564 483.643 518.504 484.203 519.604 484.203L519.607 484.212ZM467.927 478.222C485.287 475.744 492.644 469.468 495.76 464.64C499.083 459.49 498.401 454.728 498.394 454.68L498.391 454.666L498.378 454.662C498.373 454.662 497.318 454.377 495.72 454.369C491.102 454.369 479.29 456.692 467.922 478.211L467.915 478.225L467.935 478.215L467.927 478.222ZM503.507 474.782C510.923 474.782 516.569 473.502 520.289 470.979C522.427 469.529 523.473 467.936 523.975 466.854C524.445 465.84 524.552 464.998 524.569 464.831C524.373 464.741 521.337 463.393 516.804 463.181C516.421 463.163 516.035 463.151 515.63 463.151C509.898 463.151 501.182 465.021 491.984 473.931L491.975 473.94H491.986C496.186 474.49 500.066 474.78 503.516 474.78L503.507 474.782ZM539.417 473.402C547.237 473.402 557.98 471.015 564.68 464.316L564.687 464.308L564.667 464.303C564.597 464.285 557.325 462.44 549.144 462.241C548.656 462.229 548.165 462.221 547.669 462.221C540.337 462.221 534.725 463.644 530.987 466.447C529.682 467.426 528.969 468.337 528.809 469.23C528.675 469.976 529.069 470.78 529.865 471.38C531.548 472.65 534.557 473.329 538.81 473.397L539.41 473.417L539.417 473.402ZM564.757 460.402C565.231 460.403 565.699 460.299 566.128 460.097C566.557 459.895 566.936 459.601 567.237 459.236C567.742 458.622 568.094 457.82 568.344 456.714C568.762 454.866 568.636 453.058 568.635 453.04V453.022C568.253 452.845 567.838 452.752 567.417 452.747H567.414C566.257 452.747 565.375 453.377 564.825 453.905C564.069 454.646 563.491 455.551 563.137 456.55C562.772 457.58 562.713 458.442 562.957 459.185C563.157 459.775 563.837 460.395 564.757 460.395V460.402ZM506.227 459.082C507.48 459.082 508.607 458.609 509.397 457.75C510.047 457.044 510.511 456.104 510.819 454.872C511.323 452.854 511.184 450.847 511.17 450.655C510.676 450.441 510.146 450.321 509.608 450.301L509.496 450.299C506.986 450.299 505.006 452.477 504.158 454.636C503.678 455.863 503.584 456.895 503.884 457.703C504.184 458.523 505.134 459.073 506.224 459.073L506.227 459.082ZM534.737 457.902C550.474 457.349 558.641 452.876 562.721 449.22C565.018 447.162 566.295 445.122 566.961 443.773C567.589 442.499 567.827 441.523 567.869 441.335L567.849 441.325C567.845 441.325 566.359 440.794 563.963 440.747L563.595 440.743C558.288 440.743 547.485 442.972 534.743 457.896V457.906L534.737 457.902ZM517.647 456.312C530.308 454.385 537.481 448.95 541.269 444.728C545.24 440.303 546.429 436.182 546.482 435.99C546.459 435.983 544.912 435.58 542.582 435.52C542.223 435.509 541.864 435.509 541.505 435.52C535.137 435.66 523.571 438.544 517.65 456.306H517.64L517.647 456.312ZM582.647 450.232C586.797 450.232 590.821 449.752 594.609 448.806C601.239 447.148 604.082 444.616 605.3 442.785C605.992 441.745 606.243 440.833 606.331 440.251C606.387 439.896 606.397 439.535 606.362 439.178L606.332 439.167C606.314 439.163 601.932 437.932 595.867 437.839C592.75 437.782 589.636 438.058 586.578 438.663C576.042 440.77 570.578 448.723 570.525 448.803L570.52 448.812L570.533 448.815C570.593 448.825 575.613 450.235 582.653 450.235L582.647 450.232ZM553.257 439.552C554.527 439.552 555.652 439.09 556.429 438.249C557.069 437.558 557.533 436.606 557.849 435.341C558.355 433.326 558.214 431.339 558.2 431.156C557.706 430.942 557.176 430.822 556.638 430.802L556.526 430.8C554.02 430.8 552.038 432.979 551.187 435.138C550.719 436.326 550.637 437.346 550.944 438.172C551.254 439.012 552.164 439.552 553.254 439.552H553.257ZM575.357 436.522C575.452 436.5 581.334 434.987 587.324 431.298C592.868 427.885 599.65 421.848 600.477 412.468V412.463L600.463 412.459C600.463 412.459 599.947 412.334 599.185 412.305C599.074 412.301 598.963 412.299 598.851 412.299C597.195 412.299 593.805 412.765 589.704 415.883C584.484 419.863 579.664 426.803 575.354 436.533L575.357 436.522ZM560.927 435.992C560.964 435.978 565.157 434.3 570.397 429.909C575.278 425.817 582.142 418.449 587.112 406.579C587.109 406.578 585.97 405.971 584.226 405.861C584.126 405.854 584.023 405.851 583.92 405.851C583.77 405.851 583.615 405.857 583.457 405.861C581.047 405.929 577.374 406.931 573.303 411.324C568.627 416.371 564.453 424.664 560.899 435.974L560.889 436.007L560.919 435.997L560.927 435.992ZM598.317 434.902C603.138 434.902 604.788 432.288 605.274 431.162C606.072 429.314 605.83 427.474 605.828 427.456L605.825 427.436C605.045 427.241 604.22 427.133 603.427 427.122L603.262 427.121C599.463 427.121 596.464 429.05 595.178 430.961C594.923 431.341 594.141 432.656 594.788 433.683C595.308 434.493 596.488 434.903 598.318 434.903L598.317 434.902ZM608.997 421.432C611.689 421.432 615.808 421.268 620.138 420.481C624.432 419.7 626.866 416.049 628.151 413.125C629.551 409.94 629.945 406.902 629.949 406.871H629.937C616.655 407.261 610.382 411.141 607.459 414.328C604.441 417.618 604.262 421.034 604.253 421.25H604.263C604.283 421.25 606.153 421.43 609.003 421.43L608.997 421.432ZM595.167 407.612C596.246 406.253 597.259 404.842 598.2 403.385C599.773 400.94 601.228 398.389 601.228 396.301C601.228 394.285 601.702 390.035 601.985 387.681C602.343 384.697 602.705 382.141 602.735 381.925L602.722 381.929C602.385 382.052 594.414 385.043 594.414 392.519C594.414 400.009 595.152 407.534 595.159 407.609L595.16 407.619H595.17L595.167 407.612ZM605.497 406.902C605.581 406.902 605.664 406.895 605.747 406.882C608.103 406.489 612.243 404.688 616.82 402.064C621.902 399.15 626.03 396.028 628.44 393.273C630.638 390.761 631.943 386.816 632.32 381.547C632.587 377.807 632.267 374.693 632.233 374.384C631.821 374.247 631.383 374.18 630.918 374.18C629.154 374.209 627.271 375.003 624.729 376.754C622.749 378.119 620.564 379.974 618.239 382.268C614.227 386.225 611.071 390.2 611.04 390.238L611.008 390.278C610.743 390.754 608.471 394.85 606.701 398.837C605.577 401.369 604.934 403.194 604.677 404.583C604.53 405.373 604.487 405.893 604.681 406.363C604.762 406.559 604.916 406.74 605.066 406.812C605.206 406.872 605.346 406.902 605.506 406.902H605.497Z" fill="#4E5B31"/>
        <path id="2" d="M727.134 103.965L724.779 104.903L723.856 105.271L721.002 105.114L718.329 106.397L713.589 109.636L713.379 109.786L711.613 110.246L709.972 109.539L709.04 109.963L708.719 111.883L707.832 113.262L706.74 114.029L702.957 114.416L699.767 116.061L695.617 114.95L693.689 115.705L689.589 119.397L687.495 120.389L686.763 120.347L683.985 120.204L682.812 120.588L681.06 122.281L677.745 122.539L676.712 123.254L675.094 126.514L673.341 128.322L672.338 128.534L671.251 128.136L670.434 128.28L670.064 130.366L669.271 131.24L667.051 132.004L665.279 133.481L663.723 134.28L661.639 134.228H661.159L659.084 135.374L655.179 135.716L653.555 137.265L653.197 137.595L652.439 138.054L651.199 138.794L650.895 138.978L649.4 138.711L647.65 139.404L646.942 138.314L645.731 139.042L644.127 139.111L642.129 138.221L640.607 137.544L639.494 137.704L639.107 139.644L639.067 139.851L637.897 141.408L635.714 142.731L635.417 143.118L632.932 146.326L628.21 151.292L624.217 153.32L620.077 154.579L617.181 156.959L609.581 160.726L597.588 166.693L595.135 167.479L591.615 168.041L585.337 170.353L579.797 172.023L579.49 172.118L578.394 172.45L570.584 174.813L566.949 174.429L564.796 175.211L559.191 174.589L555.294 174.666L552.827 175.179L548.19 177.403L540.363 181.165L537.777 183.531L533.75 185.631L529.035 187.125L529.045 185.144L529.018 185.06L527.382 185.577L526.201 185.95L522.376 186.54H520.248L518.927 186.156L518.723 186.225L510.905 188.801L502.185 189.643L497.823 191.042L494.563 190.99L492.525 191.597L488.53 192.085L487.102 191.704L486.78 191.616L475.03 192.126L469.658 191.519L467.094 192.102L462.798 190.657L456.528 189.93L455.064 189.49L451.769 188.513L450.278 189.372L449.162 189.491L446.495 188.524L445.535 188.499L443.333 189.295L442.066 188.97L440.889 188.032L438.128 187.621L436.446 186.207L427.044 187.453L424.493 186.703L415.939 184.211L414.578 184.28L412.882 185.55L410.334 186.48L408.122 187.055L405.11 187.16L401.613 186.242L398.007 184.494L396.674 184.177L393.7 184.477L392.79 184.56L387.324 181.628L380.282 177.224L375.504 174.928L373.71 174.637L373.469 175.49L374.359 178.295L374.662 181.069L374.571 183.632L374.521 185.219L374.968 186.644L376.693 188.556L377.412 190.476L377.938 195.76L377.932 201.122L377.092 209.672L376.81 210.975L375.809 215.405L374.895 219.474L371.349 230.307L370.375 231.65L367.984 233.28L362.564 236.969L358.574 239.269L357.312 239.793L354.072 240.038L352.055 239.933L349.542 238.572L347.075 237.937L343.843 235.613L340.248 234.869L336.307 232.591L335.281 231.358L333.135 231.156L330.159 230.263L330.161 230.258L329.068 229.931L328.313 229.711L324.517 229.606L320.977 227.972L319.113 227.522L316.566 227.392L313.9 228.632L313.899 228.628L312.548 229.257L310.841 228.579L309.606 228.656L308.206 230.771L307.998 231.099L307.034 231.609L305.834 231.592L304.894 231.567L303.879 232.011L302.511 232.604V232.607L301.303 233.134L300.713 233.389L300.703 233.379L300.34 233.452L299.695 233.564L298.895 233.717L297.485 232.893L296.735 232.451L295.478 232.195L294.801 232.684L294.668 234.984L294.05 236.363L292.089 238.097L290.096 239.852L288.706 241.899L285.031 250.289L282.728 253.674L282.013 254.463L279.605 257.119L277.469 258.776L272.547 262.591L267.887 264.331L263.875 265.151L261.924 265.16L258.228 264.668L254.905 263.648L251.255 261.366L247.252 258.149L241.458 252.425L240.638 251.932L240.467 251.818L238.642 250.651L237.288 250.686L236.758 251.56L236.468 252.823L236.223 253.943L235.559 260.31L235.608 260.679L235.957 263.301L240.357 269.451L241.716 272.718L241.939 273.091L242.847 274.616L243.537 275.779L243.607 275.897L245.111 280.385L244.054 282.919L244.588 284.616L243.252 285.653L243.007 287.118L246.957 292.071L247.82 294.256L246.857 297.285L245.321 298.955L244.891 299.413L245.108 300.693L246.926 302.328L250.015 305.078L251.662 309.164L252.915 310.26L254.371 309.95L255.181 310.568L256.409 310.547L257.617 311.755L258.399 312.134L259.635 312.75L260.612 314.022L260.828 317.932L262.65 322.792L262.678 325.428L262.688 325.802L263.822 327.75L264.178 329.288L263.574 333.357L265.019 334.663L266.586 334.343L267.598 334.503L269.224 335.857L271.193 338.857L273.119 338.576L274.341 339.165L280.243 344.499L281.582 345.175L281.656 345.217L282.619 345.7L283.816 346.908L285.672 345.676L285.878 345.655L287.896 345.477L288.782 346.074L290.486 347.223L292.72 347.193L297.564 348.679L299.683 349.222L303.943 351.87L305.755 352.99L306.827 353.86L308.251 355.022L311.096 356.246L313.536 356.83L314.858 357.144L315.853 357.528L315.878 357.466L315.892 357.47L315.868 357.533L321.152 359.556L324.014 360.224L326.662 361.199L328.589 361.902L330.003 361.925L332.003 360.243L333.94 360.131L335.549 360.531L337.119 360.269L339.604 358.738L340.089 358.018L341.851 357.18L347.795 356.442L349.532 357.006L353.992 355.066L356.98 355.896L359.625 354.959L365.404 356.243L366.94 357.323L368.657 359.289L368.867 359.298L370.779 359.335L369.979 360.665L372.503 363.313L374.782 366.758L374.936 367.213L376.593 372.077L377.825 373.8L378.687 376.205L378.729 377.773L377.389 378.795L377.169 379.378L377.093 379.594L377.365 380.249L377.871 379.973L378.834 379.44L380 379.259L382.066 379.479L383.43 379.622L385.584 378.552L387.011 377.842L389.304 378.83L391.824 378.802L392.882 379.272L395.877 380.631L397.406 380.775L397.971 380.404L398.331 379.548L398.146 378.552L397.001 377.229L394.47 374.291L393.434 372.781L392.644 370.595L392.4 367.801L392.226 365.916L392.54 363.439L393.22 362.555L393.72 360.587H393.729L393.858 360.072L395.264 358.206L398.988 355.813L402.988 352.231L406.15 350.146L409.41 348.734L409.497 348.338L409.86 348.484L418.152 345.664L418.289 345.649L421.981 345.006L446.901 346.761L447.825 346.481L447.829 346.476L448.659 344.146L449.106 343.714L449.403 343.432L452.143 342.226L453.423 342.043L456.98 342.921L458.436 343.28L460.768 341.973L462.422 342.001L465.839 340.135L467.949 340.188L468.753 339.867L472.865 336.912L476.825 335.777L477.855 335.229L478.219 335.029L482.279 332.886L484.858 330.905L487.084 329.722L489.522 329.092L495.902 328.644L497.185 326.506L499.929 326.14L501.586 324.27L503.482 323.499L504.841 321.541L505.98 319.9L507.57 318.979L512.67 318.659L518.716 319.408L519.515 318.923L520.881 314.048L522.311 313.133L526.161 307.521L526.175 305.476L526.179 303.768L526.812 301.336L526.382 296.945L526.892 292.499L529.286 286.849L531.395 284.569L534.795 282.269L536.525 281.516L538.974 281.104V281.098L539.334 281.037L539.958 280.93L548.391 280.814C548.508 280.727 551.458 280.772 551.458 280.772L554.27 280.734L561.384 282L561.89 282.088L564.295 282.867L567.069 285.024L570.005 287.892L570.555 288.427L572.458 289.227L573.033 289.479L574.603 289.228L576.841 288.063L578.529 286.636L580.829 285.379L580.886 285.299L582.181 283.351L582.22 283.311L582.248 283.318L582.251 283.307L582.229 283.302L582.739 282.527L587.187 280.794L592.417 280.49L593.005 280.172L593.332 279.997L594.714 278.374L596.009 278.363L599.144 279.497L601.348 279.06L603.098 279.759L604.458 279.598L607.023 279.294L609.777 281.232L611.382 281.437L617.04 284.747L617.334 284.795L617.486 284.823L617.81 284.876L618.48 284.676L619.479 284.388L619.611 284.348L619.737 284.523L620.38 285.43L621.262 285.556L622.306 284.163L621.891 283.531L621.734 283.301L619.713 282.89L617.898 279.787L619.626 277.926L616.915 274.6L616.465 274.049L616.312 273.815L615.375 272.392L610.629 265.157L604.447 260.222L604.445 260.226L602.28 258.494L602.266 258.484L601.508 257.888L598.206 254.53L595.848 251.4L595.538 250.726L595.052 249.664L593.639 246.586L591.177 244.69L589.171 242.499L589.073 242.369L584.933 236.744L584.253 235.801L583.275 235.236L581.209 235.222L581.014 235.026L580.898 234.905L580.968 234.831L581.958 233.846L583.064 233.568L583.54 232.478L581.432 226.375L581.418 226.162L581.261 224.212L582.979 215.357L583.199 214.277L586.127 208.32L587.941 206.834L589.921 202.942L591.617 200.454L593.242 198.872L593.526 198.704L596.46 196.928L598.925 196.581L601.273 196.25L605.372 197.514L609.272 197.438L610.034 197.357L611.804 197.154L614.714 196.237L616.089 195.389L616.802 194.296L618.289 189.309L618.767 187.722L619.684 185.998L624.99 179.89L629 176.18L638.02 169.567L642.435 166.927L644.689 165.581L664.815 156.635L670.045 151.333L672.77 148.576L677.59 145.341L683.232 143.03L688.086 139.188L689.146 137.854L690.482 133.551L691.595 133.281L692.6 131.108L692.886 130.49L696.846 127.698L697.295 127.475L712.683 119.765L714.919 120.072L716.116 118.279L720.593 117.528L721.417 117.388L722.521 116.837L723.46 115.237V114.922L723.589 110.649L724.545 109.494L725.065 106.678L725.557 106.028L726.07 105.352L727.338 104.461L727.118 103.93L727.134 103.965Z" fill="#DDDDDD"/>
    </g>
    <defs>
        <clipPath id="clip0_1978_12604">
            <rect width="900" height="600" fill="white"/>
        </clipPath>
    </defs>
</svg>
