<svg xmlns="http://www.w3.org/2000/svg" width="2000" height="1000" fill="none" viewBox="0 0 2000 1000">
  <g id="district_of_columbia" clip-path="url(#clip0_1056_2978)">
    <path id="1" fill="#EEE" d="M0 0h2000v1000H0V0Z"/>
    <g id="2">
      <path id="Vector" fill="#DDD" d="M0 300h2000v200H0V300Zm0 300h2000v200H0V600Z"/>
      <g id="d">
        <g id="b">
          <path id="a" fill="#DDD" d="m450.004 54.89-32.492 100.001 50 16.246-17.508-116.246Z"/>
          <path id="a_2" fill="#DDD" d="m450.004 54.89 32.492 100.001-50 16.246 17.508-116.246Z"/>
        </g>
        <g id="c">
          <g id="b_2">
            <path id="a_3" fill="#DDD" d="M550.004 127.539H444.858v52.573l105.146-52.573Z"/>
            <path id="a_4" fill="#DDD" d="m550.004 127.539-85.065 61.804-30.902-42.533 115.967-19.271Z"/>
          </g>
          <g id="b_3">
            <path id="a_5" fill="#DDD" d="m388.199 245.109 85.065-61.803-30.901-42.533-54.164 104.336Z"/>
            <path id="a_6" fill="#DDD" d="m388.199 245.109 32.492-100 50 16.246-82.492 83.754Z"/>
          </g>
        </g>
        <g id="c_2">
          <g id="b_4">
            <path id="a_7" fill="#DDD" d="m511.805 245.102-32.492-100.001-50 16.246 82.492 83.755Z"/>
            <path id="a_8" fill="#DDD" d="m511.805 245.102-85.066-61.804 30.902-42.533 54.164 104.337Z"/>
          </g>
          <g id="b_5">
            <path id="a_9" fill="#DDD" d="m350 127.547 85.065 61.803 30.902-42.532L350 127.547Z"/>
            <path id="a_10" fill="#DDD" d="M350 127.547h105.146v52.573L350 127.547Z"/>
          </g>
        </g>
      </g>
      <g id="d_2">
        <g id="b_6">
          <path id="a_11" fill="#DDD" d="m1000 54.89-32.492 100.001 50.002 16.246L1000 54.891Z"/>
          <path id="a_12" fill="#DDD" d="m1000 54.89 32.49 100.001-49.998 16.246L1000 54.891Z"/>
        </g>
        <g id="c_3">
          <g id="b_7">
            <path id="a_13" fill="#DDD" d="M1100 127.539H994.858v52.573L1100 127.539Z"/>
            <path id="a_14" fill="#DDD" d="m1100 127.539-85.06 61.804-30.903-42.533L1100 127.539Z"/>
          </g>
          <g id="b_8">
            <path id="a_15" fill="#DDD" d="m938.199 245.109 85.061-61.803-30.897-42.533-54.164 104.336Z"/>
            <path id="a_16" fill="#DDD" d="m938.199 245.109 32.492-100 49.999 16.246-82.491 83.754Z"/>
          </g>
        </g>
        <g id="c_4">
          <g id="b_9">
            <path id="a_17" fill="#DDD" d="m1061.8 245.102-32.49-100.001-49.997 16.246 82.487 83.755Z"/>
            <path id="a_18" fill="#DDD" d="m1061.8 245.102-85.061-61.804 30.901-42.533 54.16 104.337Z"/>
          </g>
          <g id="b_10">
            <path id="a_19" fill="#DDD" d="m900 127.547 85.065 61.803 30.905-42.532L900 127.547Z"/>
            <path id="a_20" fill="#DDD" d="M900 127.547h105.15v52.573L900 127.547Z"/>
          </g>
        </g>
      </g>
      <g id="d_3">
        <g id="b_11">
          <path id="a_21" fill="#DDD" d="m1550 54.89-32.5 100.001 50 16.246L1550 54.891Z"/>
          <path id="a_22" fill="#DDD" d="m1550 54.89 32.49 100.001-50 16.246L1550 54.891Z"/>
        </g>
        <g id="c_5">
          <g id="b_12">
            <path id="a_23" fill="#DDD" d="M1650 127.539h-105.15v52.573L1650 127.539Z"/>
            <path id="a_24" fill="#DDD" d="m1650 127.539-85.07 61.804-30.9-42.533L1650 127.539Z"/>
          </g>
          <g id="b_13">
            <path id="a_25" fill="#DDD" d="m1488.2 245.109 85.06-61.803-30.9-42.533-54.16 104.336Z"/>
            <path id="a_26" fill="#DDD" d="m1488.2 245.109 32.49-100 50 16.246-82.49 83.754Z"/>
          </g>
        </g>
        <g id="c_6">
          <g id="b_14">
            <path id="a_27" fill="#DDD" d="m1611.8 245.102-32.49-100.001-50 16.246 82.49 83.755Z"/>
            <path id="a_28" fill="#DDD" d="m1611.8 245.102-85.06-61.804 30.9-42.533 54.16 104.337Z"/>
          </g>
          <g id="b_15">
            <path id="a_29" fill="#DDD" d="m1450 127.547 85.06 61.803 30.9-42.532L1450 127.547Z"/>
            <path id="a_30" fill="#DDD" d="M1450 127.547h105.14v52.573L1450 127.547Z"/>
          </g>
        </g>
      </g>
    </g>
  </g>
  <defs>
    <clipPath id="clip0_1056_2978">
      <path fill="#fff" d="M0 0h2000v1000H0z"/>
    </clipPath>
  </defs>
</svg>
