<svg width="1200" height="600" viewBox="0 0 1200 600" fill="none"
    xmlns="http://www.w3.org/2000/svg">
    <g clip-path="url(#clip0_2055_325)">
        <path id="1" d="M0 0H1200V600H0V0Z" fill="#EDEDF0"/>
        <g id="2">
            <path d="M0 225H1200V275H0V225Z" fill="#DDDDDD"/>
            <path d="M525 0H575V600H525V0Z" fill="#DDDDDD"/>
        </g>
        <g id="4">
            <path d="M0 325H1200V375H0V325Z" fill="#DDDDDD"/>
            <path d="M625 0H675V600H625V0Z" fill="#DDDDDD"/>
        </g>
        <g id="3">
            <path d="M0 275H1200V325H0V275Z" fill="#EDEDF0"/>
            <path d="M575 0H625V600H575V0Z" fill="#EDEDF0"/>
        </g>
        <g id="5">
            <path d="M600 450C682.843 450 750 382.843 750 300C750 217.157 682.843 150 600 150C517.157 150 450 217.157 450 300C450 382.843 517.157 450 600 450Z" fill="#CCCCCC"/>
        </g>
        <path d="M595.19 181.587L600 167.867L604.37 181.367L619.02 181.587L607.43 190.437L612.68 205.487L600 196.197L587.54 205.047L592.35 190.437L580.98 181.807L595.19 181.587Z" fill="#006B3F" stroke="black"/>
        <path d="M604.81 418.405L600 432.125L595.63 418.625L580.98 418.405L592.57 409.555L587.32 394.505L600 403.795L612.46 394.945L607.65 409.555L619.02 418.185L604.81 418.405Z" fill="#006B3F" stroke="black"/>
        <path d="M665.709 201.374L677.665 193.102L673.265 206.592L684.988 215.381L670.41 215.728L665.811 230.99L661.013 216.021L645.731 215.857L658.21 206.865L654.084 193.2L665.709 201.374Z" fill="#006B3F" stroke="black"/>
        <path d="M534.291 398.618L522.335 406.891L526.735 393.4L515.012 384.611L529.59 384.264L534.189 369.002L538.987 383.971L554.269 384.135L541.79 393.128L545.916 406.793L534.291 398.618Z" fill="#006B3F" stroke="black"/>
        <path d="M711.132 258.832L725.667 259.167L714.178 267.495L718.496 281.496L706.497 273.208L693.806 282.852L698.723 267.922L686.456 258.806L701.837 258.866L706.531 245.386L711.132 258.832Z" fill="#006B3F" stroke="black"/>
        <path d="M488.876 341.16L474.341 340.825L485.83 332.497L481.512 318.496L493.511 326.784L506.202 317.14L501.285 332.071L513.552 341.186L498.171 341.126L493.476 354.606L488.876 341.16Z" fill="#006B3F" stroke="black"/>
        <path d="M714.103 332.017L725.665 340.831L711.476 340.816L706.739 354.681L701.904 340.923L685.968 341.265L698.722 332.077L694.156 317.492L706.564 326.581L718.285 318.434L714.103 332.017Z" fill="#006B3F" stroke="black"/>
        <path d="M485.901 267.983L474.338 259.169L488.528 259.184L493.264 245.319L498.1 259.077L514.036 258.735L501.282 267.923L505.848 282.508L493.44 273.419L481.719 281.566L485.901 267.983Z" fill="#006B3F" stroke="black"/>
        <path d="M673.494 392.964L677.667 406.891L666.197 398.537L654.215 406.971L658.39 392.998L645.296 383.909L661.015 383.971L665.894 369.488L670.59 384.135L684.861 384.433L673.494 392.964Z" fill="#006B3F" stroke="black"/>
        <path d="M526.514 207.029L522.341 193.102L533.811 201.455L545.793 193.022L541.618 206.994L554.711 216.084L538.993 216.021L534.114 230.505L529.418 215.858L515.147 215.559L526.514 207.029Z" fill="#006B3F" stroke="black"/>
        <path d="M623.714 383.761C628.64 383.248 631.224 363.093 629.484 338.744C627.745 314.395 622.342 295.072 617.416 295.586C612.49 296.099 609.906 316.254 611.645 340.603C613.384 364.952 618.788 384.275 623.714 383.761Z" fill="#006B3F" stroke="black" stroke-width="0.650901"/>
        <path d="M632.54 383.667C637.751 383.125 640.556 362.948 638.806 338.601C637.057 314.253 631.414 294.954 626.204 295.496C620.993 296.037 618.188 316.214 619.938 340.562C621.687 364.91 627.33 384.209 632.54 383.667Z" fill="#006B3F" stroke="black" stroke-width="0.669406"/>
        <path d="M628.597 390.667C632.765 390.226 634.623 368.049 632.746 341.133C630.87 314.216 625.969 292.754 621.801 293.194C617.633 293.635 615.775 315.812 617.652 342.728C619.528 369.645 624.428 391.108 628.597 390.667Z" fill="#006B3F" stroke="black" stroke-width="0.629523"/>
        <path d="M555.789 362.56C563.446 362.241 560.121 358.144 563.989 355.964C567.853 353.787 573.354 355.227 575.004 357.95C576.654 360.672 575.331 363.347 577.454 363.383C579.58 363.42 637.382 360.996 639.464 363.278C641.549 365.558 641.893 370.054 639.734 371.802C637.574 373.572 564.499 374.39 561.983 372.54C559.466 370.716 555.781 363.01 555.789 362.56Z" fill="#9C4A00" stroke="black" stroke-width="0.657"/>
        <path d="M596.627 368.197C596.488 373.972 605.031 372.337 605.148 377.16C604.891 382.274 590.824 377.473 590.688 368.119C591.272 358.774 605.041 354.156 605.212 359.494C605.338 363.929 596.766 362.421 596.627 368.197Z" fill="#FCD116" stroke="black" stroke-width="0.633"/>
        <path d="M601.666 368.259C601.526 374.035 610.069 372.399 610.186 377.223C609.929 382.336 595.862 377.535 595.727 368.181C596.312 358.836 610.081 354.219 610.251 359.556C610.378 363.991 601.805 362.484 601.666 368.259Z" fill="#FCD116" stroke="black" stroke-width="0.633"/>
        <path d="M607.075 368.056C606.937 373.831 615.479 372.196 615.597 377.019C615.34 382.133 601.273 377.332 601.137 367.977C601.722 358.633 615.491 354.015 615.661 359.353C615.788 363.788 607.214 362.28 607.075 368.056Z" fill="#FCD116" stroke="black" stroke-width="0.633"/>
        <path d="M612.115 368.126C611.977 373.902 620.519 372.266 620.636 377.09C620.379 382.203 606.312 377.402 606.176 368.048C606.762 358.703 620.531 354.086 620.701 359.423C620.827 363.858 612.254 362.351 612.115 368.126Z" fill="#FCD116" stroke="black" stroke-width="0.633"/>
        <path d="M636.055 372.332C638.748 372.372 640.978 370.189 641.036 367.456C641.093 364.722 638.957 362.473 636.263 362.433C633.57 362.392 631.34 364.575 631.283 367.309C631.225 370.042 633.362 372.291 636.055 372.332Z" fill="#9C4A00" stroke="black" stroke-width="0.565354"/>
        <path d="M607.881 360.351C610.266 359.991 611.742 355.428 611.178 350.159C610.615 344.89 608.225 340.911 605.841 341.27C603.456 341.63 601.98 346.193 602.544 351.462C603.107 356.731 605.497 360.711 607.881 360.351Z" fill="#006B3F" stroke="black" stroke-width="0.721806"/>
        <path d="M600.522 359.773C602.906 359.413 604.382 354.85 603.819 349.581C603.255 344.312 600.866 340.332 598.481 340.692C596.097 341.052 594.621 345.615 595.184 350.884C595.748 356.153 598.138 360.133 600.522 359.773Z" fill="#006B3F" stroke="black" stroke-width="0.721806"/>
        <path d="M595.256 350.359C597.641 349.999 599.117 345.436 598.553 340.167C597.99 334.898 595.6 330.918 593.216 331.278C590.831 331.638 589.355 336.201 589.919 341.47C590.482 346.739 592.872 350.719 595.256 350.359Z" fill="#006B3F" stroke="black" stroke-width="0.721806"/>
        <path d="M602.813 350.933C605.106 350.57 606.464 345.564 605.846 339.751C605.228 333.938 602.869 329.52 600.577 329.883C598.284 330.245 596.926 335.251 597.544 341.064C598.162 346.877 600.521 351.295 602.813 350.933Z" fill="#006B3F" stroke="black" stroke-width="0.74378"/>
        <path d="M613.033 350.369C615.326 350.014 616.715 345.309 616.134 339.858C615.553 334.408 613.223 330.277 610.93 330.632C608.636 330.986 607.248 335.692 607.829 341.142C608.41 346.592 610.74 350.723 613.033 350.369Z" fill="#006B3F" stroke="black" stroke-width="0.720154"/>
        <path d="M607.381 346.963C609.674 346.608 611.062 341.902 610.482 336.452C609.901 331.002 607.571 326.871 605.277 327.225C602.984 327.58 601.596 332.286 602.177 337.736C602.758 343.186 605.088 347.317 607.381 346.963Z" fill="#006B3F" stroke="black" stroke-width="0.720154"/>
        <path d="M600.248 342.048C602.541 341.694 603.93 336.988 603.349 331.538C602.768 326.088 600.438 321.957 598.145 322.311C595.851 322.666 594.463 327.371 595.044 332.822C595.625 338.272 597.955 342.403 600.248 342.048Z" fill="#006B3F" stroke="black" stroke-width="0.720154"/>
        <path d="M593.643 339.072C595.936 338.717 597.324 334.012 596.743 328.561C596.162 323.111 593.832 318.98 591.539 319.335C589.246 319.689 587.858 324.395 588.438 329.845C589.019 335.295 591.349 339.426 593.643 339.072Z" fill="#006B3F" stroke="black" stroke-width="0.720154"/>
        <path d="M585.268 247.312C585.268 247.312 570.613 260.033 572.258 294.457C574.102 329.076 604.65 345.351 604.65 345.351C604.65 345.351 612.436 335.524 611.532 307.707C609.349 267.039 594.924 249.069 594.924 249.069L585.268 247.312Z" fill="#9461C9" stroke="black" stroke-width="0.575"/>
        <path d="M617.577 361.494C619.987 361.565 622.253 357.338 622.638 352.053C623.022 346.768 621.38 342.426 618.97 342.355C616.559 342.284 614.294 346.511 613.909 351.796C613.525 357.081 615.167 361.423 617.577 361.494Z" fill="#006B3F" stroke="black" stroke-width="0.721805"/>
        <path d="M610.444 359.611C612.855 359.682 615.12 355.455 615.505 350.17C615.889 344.885 614.247 340.543 611.837 340.472C609.427 340.401 607.161 344.628 606.776 349.913C606.392 355.198 608.034 359.54 610.444 359.611Z" fill="#006B3F" stroke="black" stroke-width="0.721805"/>
        <path d="M606.936 349.408C609.347 349.479 611.613 345.252 611.997 339.967C612.382 334.682 610.739 330.34 608.329 330.269C605.919 330.198 603.653 334.425 603.269 339.71C602.884 344.995 604.526 349.337 606.936 349.408Z" fill="#006B3F" stroke="black" stroke-width="0.721805"/>
        <path d="M614.272 351.315C616.593 351.367 618.821 346.683 619.249 340.853C619.677 335.023 618.143 330.255 615.823 330.203C613.502 330.151 611.274 334.835 610.846 340.665C610.418 346.495 611.952 351.263 614.272 351.315Z" fill="#006B3F" stroke="black" stroke-width="0.743778"/>
        <path d="M624.428 352.584C626.748 352.644 628.953 348.261 629.352 342.795C629.752 337.328 628.196 332.848 625.876 332.788C623.556 332.728 621.352 337.111 620.952 342.578C620.552 348.044 622.109 352.524 624.428 352.584Z" fill="#006B3F" stroke="black" stroke-width="0.72015"/>
        <path d="M619.475 348.225C621.795 348.285 624 343.902 624.399 338.435C624.799 332.969 623.243 328.489 620.923 328.429C618.603 328.369 616.399 332.752 615.999 338.218C615.599 343.685 617.156 348.165 619.475 348.225Z" fill="#006B3F" stroke="black" stroke-width="0.72015"/>
        <path d="M613.331 342.116C615.65 342.175 617.855 337.792 618.255 332.326C618.655 326.859 617.098 322.379 614.778 322.319C612.459 322.259 610.254 326.642 609.854 332.109C609.455 337.576 611.011 342.056 613.331 342.116Z" fill="#006B3F" stroke="black" stroke-width="0.72015"/>
        <path d="M607.362 338.014C609.682 338.074 611.886 333.691 612.286 328.224C612.686 322.758 611.129 318.278 608.81 318.218C606.49 318.158 604.285 322.541 603.886 328.007C603.486 333.474 605.042 337.954 607.362 338.014Z" fill="#006B3F" stroke="black" stroke-width="0.72015"/>
        <path d="M631.308 341.354C637.676 338.894 636.141 321.278 627.877 302.007C619.614 282.737 607.752 269.109 601.383 271.569C595.015 274.029 596.55 291.645 604.814 310.916C613.077 330.186 624.939 343.814 631.308 341.354Z" fill="#D41C30" stroke="black" stroke-width="0.277071"/>
        <path d="M606.755 275.549C609.733 275.602 612.185 273.513 612.232 270.883C612.279 268.253 609.903 266.079 606.924 266.026C603.946 265.973 601.493 268.061 601.446 270.691C601.4 273.321 603.776 275.496 606.755 275.549Z" fill="#006B3F" stroke="black" stroke-width="0.627822"/>
        <path d="M610.806 268.82C613.474 268.867 615.675 266.774 615.722 264.144C615.769 261.515 613.644 259.345 610.976 259.297C608.307 259.249 606.107 261.343 606.06 263.972C606.013 266.602 608.138 268.772 610.806 268.82Z" fill="#006B3F" stroke="black" stroke-width="0.627503"/>
        <path d="M604.286 268.703C606.955 268.75 609.156 266.657 609.202 264.027C609.249 261.398 607.124 259.227 604.456 259.18C601.788 259.132 599.587 261.226 599.54 263.855C599.493 266.485 601.618 268.655 604.286 268.703Z" fill="#006B3F" stroke="black" stroke-width="0.627503"/>
        <path d="M605.729 263.475C608.521 263.525 610.82 261.564 610.864 259.095C610.908 256.627 608.68 254.585 605.888 254.535C603.096 254.486 600.796 256.447 600.752 258.915C600.708 261.384 602.936 263.425 605.729 263.475Z" fill="#006B3F" stroke="black" stroke-width="0.627606"/>
        <path d="M605.158 257.835C607.951 257.884 610.25 255.923 610.294 253.455C610.338 250.986 608.11 248.944 605.318 248.895C602.525 248.845 600.226 250.806 600.182 253.275C600.138 255.743 602.366 257.785 605.158 257.835Z" fill="#006B3F" stroke="black" stroke-width="0.627606"/>
        <path d="M598.064 264.898C600.732 264.945 602.933 262.852 602.98 260.223C603.027 257.593 600.902 255.423 598.233 255.375C595.565 255.328 593.364 257.421 593.318 260.05C593.271 262.68 595.396 264.85 598.064 264.898Z" fill="#006B3F" stroke="black" stroke-width="0.627503"/>
        <path d="M599.52 258.704C602.188 258.751 604.389 256.701 604.434 254.125C604.48 251.549 602.355 249.423 599.687 249.375C597.018 249.328 594.818 251.377 594.772 253.953C594.726 256.529 596.852 258.656 599.52 258.704Z" fill="#006B3F" stroke="black" stroke-width="0.627494"/>
        <path d="M591.54 258.947C594.518 259 596.971 256.911 597.017 254.282C597.064 251.652 594.688 249.477 591.709 249.424C588.731 249.371 586.278 251.46 586.232 254.09C586.185 256.719 588.561 258.894 591.54 258.947Z" fill="#006B3F" stroke="black" stroke-width="0.627822"/>
        <path d="M601.463 250.764C604.255 250.814 606.555 248.853 606.598 246.384C606.642 243.916 604.415 241.874 601.622 241.824C598.83 241.775 596.531 243.736 596.487 246.204C596.443 248.673 598.671 250.714 601.463 250.764Z" fill="#006B3F" stroke="black" stroke-width="0.627606"/>
        <path d="M594.696 251.813C597.364 251.861 599.564 249.811 599.61 247.235C599.656 244.659 597.53 242.532 594.862 242.484C592.194 242.437 589.994 244.487 589.948 247.063C589.902 249.639 592.028 251.765 594.696 251.813Z" fill="#006B3F" stroke="black" stroke-width="0.627494"/>
        <path d="M584.451 259.21C587.119 259.258 589.32 257.165 589.366 254.535C589.413 251.905 587.288 249.735 584.62 249.688C581.952 249.64 579.751 251.733 579.704 254.363C579.657 256.993 581.782 259.163 584.451 259.21Z" fill="#006B3F" stroke="black" stroke-width="0.627503"/>
        <path d="M586.13 255.563C588.798 255.611 590.998 253.561 591.044 250.985C591.09 248.409 588.964 246.282 586.296 246.234C583.628 246.187 581.428 248.237 581.382 250.813C581.336 253.389 583.462 255.515 586.13 255.563Z" fill="#006B3F" stroke="black" stroke-width="0.627494"/>
        <path d="M588.18 251.641C590.849 251.689 593.049 249.639 593.095 247.063C593.141 244.487 591.015 242.36 588.347 242.313C585.679 242.265 583.478 244.315 583.433 246.891C583.387 249.467 585.512 251.594 588.18 251.641Z" fill="#006B3F" stroke="black" stroke-width="0.627494"/>
        <path d="M637.807 342.084C645.975 339.2 644.603 318.262 634.741 295.319C624.88 272.375 610.264 256.113 602.095 258.997C593.927 261.881 595.299 282.818 605.16 305.762C615.022 328.706 629.638 344.968 637.807 342.084Z" fill="#006B3F" stroke="black" stroke-width="0.57555"/>
        <path d="M636.703 316.452C638.216 315.732 637.713 311.277 635.579 306.501C633.446 301.725 630.489 298.438 628.975 299.157C627.461 299.877 627.964 304.332 630.098 309.108C632.232 313.884 635.189 317.172 636.703 316.452Z" fill="#006B3F" stroke="black" stroke-width="0.574951"/>
        <path d="M631.466 307.796C644.276 323.394 642.659 333.299 641.323 341.679C637.298 332.016 635.1 325.933 622.288 310.332C609.475 294.732 615.87 283.784 616.75 278.016C618.676 283.009 618.653 292.195 631.466 307.796Z" fill="#006B3F" stroke="black" stroke-width="0.575"/>
        <path d="M632.618 320.397C645.428 335.995 643.812 345.899 642.475 354.279C638.451 344.616 636.253 338.533 623.44 322.932C610.627 307.333 617.023 296.386 617.902 290.617C619.829 295.61 619.805 304.796 632.618 320.397Z" fill="#006B3F" stroke="black" stroke-width="0.575"/>
        <path d="M633.003 330.545C646.123 345.868 644.703 355.805 643.535 364.212C639.318 354.636 636.999 348.602 623.877 333.276C610.755 317.951 616.93 306.871 617.694 301.086C619.72 306.036 619.88 315.219 633.003 330.545Z" fill="#006B3F" stroke="black" stroke-width="0.575"/>
        <path d="M630.714 308.495C633.714 307.731 633.098 300.214 629.336 291.704C625.575 283.195 620.093 276.916 617.093 277.68C614.093 278.443 614.709 285.961 618.471 294.47C622.232 302.979 627.713 309.258 630.714 308.495Z" fill="#006B3F" stroke="black" stroke-width="0.579022"/>
        <path d="M624.113 314.513C626.812 314.049 626.63 307.962 623.706 300.918C620.782 293.873 616.223 288.539 613.524 289.003C610.825 289.467 611.007 295.554 613.931 302.599C616.855 309.643 621.414 314.977 624.113 314.513Z" fill="#006B3F" stroke="black" stroke-width="0.5822"/>
        <path d="M617.774 320.505C620.482 320.099 620.426 314.009 617.649 306.905C614.872 299.801 610.425 294.372 607.717 294.779C605.008 295.186 605.064 301.275 607.841 308.379C610.618 315.483 615.065 320.912 617.774 320.505Z" fill="#006B3F" stroke="black" stroke-width="0.582223"/>
        <path d="M622.319 295.841C624.501 295.441 624.233 290.86 621.72 285.609C619.208 280.357 615.402 276.424 613.22 276.823C611.038 277.223 611.306 281.804 613.819 287.056C616.331 292.307 620.137 296.24 622.319 295.841Z" fill="#006B3F" stroke="black" stroke-width="0.585303"/>
        <path d="M616.572 300.019C618.775 299.74 618.793 295.153 616.612 289.774C614.431 284.395 610.877 280.261 608.673 280.541C606.47 280.82 606.452 285.407 608.633 290.786C610.814 296.165 614.368 300.299 616.572 300.019Z" fill="#006B3F" stroke="black" stroke-width="0.584824"/>
        <path d="M608.623 284.227C612.41 293.482 613.943 301.805 612.043 302.805C610.144 303.804 605.53 297.105 601.742 287.849" fill="#006B3F"/>
        <path d="M608.623 284.227C612.41 293.482 613.943 301.805 612.043 302.805C610.144 303.804 605.53 297.105 601.742 287.849" stroke="black" stroke-width="0.575"/>
        <path d="M615.947 289.144C618.15 288.865 618.168 284.278 615.987 278.899C613.806 273.52 610.252 269.386 608.048 269.666C605.845 269.945 605.827 274.532 608.008 279.911C610.189 285.29 613.743 289.424 615.947 289.144Z" fill="#006B3F" stroke="black" stroke-width="0.584824"/>
        <path d="M609.387 292.27C611.597 292.034 611.718 287.449 609.657 282.029C607.597 276.609 604.136 272.407 601.926 272.643C599.717 272.879 599.596 277.464 601.656 282.884C603.716 288.304 607.178 292.507 609.387 292.27Z" fill="#006B3F" stroke="black" stroke-width="0.58464"/>
        <path d="M602.03 271.656C605.708 277.91 607.688 283.75 606.448 284.693C605.21 285.635 601.221 281.325 597.543 275.071" fill="#006B3F"/>
        <path d="M602.03 271.656C605.708 277.91 607.688 283.75 606.448 284.693C605.21 285.635 601.221 281.325 597.543 275.071" stroke="black" stroke-width="0.575"/>
        <path d="M604.578 267.508C608.255 273.762 610.235 279.602 608.995 280.545C607.757 281.487 603.768 277.177 600.09 270.923M616.018 268.386C621.143 276.929 623.901 284.906 622.172 286.196C620.445 287.486 614.884 281.598 609.759 273.056" fill="#006B3F"/>
        <path d="M604.578 267.508C608.255 273.762 610.235 279.602 608.995 280.545C607.757 281.487 603.768 277.177 600.09 270.923M616.018 268.386C621.143 276.929 623.901 284.906 622.172 286.196C620.445 287.486 614.884 281.598 609.759 273.056" stroke="black" stroke-width="0.575"/>
        <path d="M608.456 263.914C612.149 270.818 614.143 277.262 612.906 278.299C611.669 279.335 607.67 274.572 603.977 267.667" fill="#006B3F"/>
        <path d="M608.456 263.914C612.149 270.818 614.143 277.262 612.906 278.299C611.669 279.335 607.67 274.572 603.977 267.667" stroke="black" stroke-width="0.575"/>
        <path d="M608.124 253.906C605.658 256.388 608.073 261.029 610.329 262.706C612.859 265.001 627.071 279.993 637.098 267.379C629.064 267.233 614.071 248.375 608.124 253.906Z" fill="#9461C9" stroke="black" stroke-width="0.591"/>
        <path d="M606.369 246.508C603.904 248.991 606.319 253.632 608.575 255.31C611.105 257.604 625.317 272.596 635.343 259.982C627.31 259.836 612.317 240.977 606.369 246.508Z" fill="#9461C9" stroke="black" stroke-width="0.591"/>
        <path d="M604.124 239.414C601.658 241.896 604.073 246.538 606.329 248.215C608.859 250.509 623.071 265.501 633.098 252.887C625.064 252.741 610.071 233.883 604.124 239.414Z" fill="#9461C9" stroke="black" stroke-width="0.591"/>
        <path d="M599.24 231.305C596.775 233.788 599.19 238.429 601.446 240.106C603.976 242.401 618.188 257.393 628.215 244.779C620.181 244.632 605.189 225.774 599.24 231.305Z" fill="#9461C9" stroke="black" stroke-width="0.591"/>
        <path d="M581.728 223.547C586.808 219.767 596.14 218.663 603.409 222.364C609.465 225.33 619.557 237.437 627.144 240.299C621.804 241.251 618.554 240.446 615.142 238.807C608.403 243.687 606.002 244.418 599.134 245.377C589.583 246.755 581.654 244.269 578.868 239.287C576.029 234.588 577.253 227.049 581.728 223.547Z" fill="#9461C9" stroke="black" stroke-width="0.628"/>
        <path d="M592.464 233.622C594.881 233.665 596.86 232.563 596.885 231.162C596.909 229.761 594.971 228.59 592.555 228.547C590.138 228.504 588.159 229.605 588.135 231.006C588.11 232.408 590.048 233.579 592.464 233.622Z" fill="#D41C30" stroke="black" stroke-width="0.572038"/>
        <path d="M580.457 244.844C583.614 243.669 585.594 241.157 584.88 239.232C584.167 237.308 581.029 236.699 577.872 237.874C574.715 239.048 572.735 241.56 573.449 243.485C574.163 245.41 577.3 246.018 580.457 244.844Z" fill="#FCD116" stroke="black" stroke-width="0.61911"/>
        <path d="M592.259 232.272C593.128 232.288 593.843 231.691 593.856 230.94C593.869 230.188 593.176 229.567 592.307 229.551C591.439 229.536 590.724 230.132 590.71 230.884C590.697 231.635 591.39 232.257 592.259 232.272Z" fill="black"/>
        <path d="M582.874 234.478C583.276 236.428 581.831 239.061 578.694 239.993C575.499 241.316 573.076 244.315 571.678 249.22C566.822 238.036 569.908 233.304 575.066 232.154C579.502 230.739 582.176 230.918 582.874 234.478Z" fill="#FCD116" stroke="black" stroke-width="0.732"/>
    </g>
    <defs>
        <clipPath id="clip0_2055_325">
            <rect width="1200" height="600" fill="white"/>
        </clipPath>
    </defs>
</svg>
