<svg width="900" height="600" viewBox="0 0 900 600" fill="none"
    xmlns="http://www.w3.org/2000/svg">
    <g clip-path="url(#clip0_1942_658)">
        <path id="1" d="M0 0H450V600H0V0Z" fill="#EDEDF0"/>
        <path id="2" d="M450 0H900V600H450V0Z" fill="#DDDDDD"/>
        <path id="3" d="M580 225C563.489 196.404 538.005 174.054 507.498 161.418C476.992 148.782 443.168 146.565 411.273 155.111C379.378 163.657 351.194 182.489 331.093 208.686C310.991 234.882 300.096 266.98 300.096 300C300.096 333.02 310.991 365.118 331.093 391.314C351.194 417.511 379.378 436.343 411.273 444.889C443.168 453.435 476.992 451.218 507.498 438.582C538.005 425.946 563.489 403.596 580 375C564.461 394.408 543.278 408.51 519.378 415.358C495.477 422.206 470.04 421.462 446.582 413.228C423.123 404.994 402.801 389.677 388.424 369.393C374.047 349.11 366.325 324.862 366.325 300C366.325 275.138 374.047 250.89 388.424 230.607C402.801 210.323 423.123 195.006 446.582 186.772C470.04 178.538 495.477 177.794 519.378 184.642C543.278 191.49 564.461 205.592 580 225ZM585 300L450 256L534 371V229L450 344L585 300Z" fill="#CCCCCC"/>
    </g>
    <defs>
        <clipPath id="clip0_1942_658">
            <rect width="900" height="600" fill="white"/>
        </clipPath>
    </defs>
</svg>
