<svg width="900" height="600" viewBox="0 0 900 600" fill="none"
    xmlns="http://www.w3.org/2000/svg">
    <g clip-path="url(#clip0_1775_625)">
        <path id="1" d="M0 0H900V200H0V0Z" fill="#EDEDF0"/>
        <path id="2" d="M0 200H900V400H0V200Z" fill="#EDEDF0"/>
        <path id="3" d="M0 400H900V600H0V400Z" fill="#EDEDF0"/>
        <path class='divider' d="M0 200H900" stroke="#DDDDDD" stroke-width="2" />
        <path class='divider' d="M0 400H900" stroke="#DDDDDD" stroke-width="2"/>
        <path d="M450.806 302.41L519.296 365.99L514.42 250.517C513.704 233.017 498.496 237.032 487.449 243.345C476.258 250.517 463.49 250.517 450.002 245.782C436.516 250.517 423.748 250.517 412.556 243.345C401.51 237.032 386.304 233.016 385.586 250.517L380.707 365.99L450.806 302.41Z" fill="white" stroke="#C09300" stroke-width="1.27039" stroke-linejoin="round"/>
        <path d="M393.465 246.496L388.731 358.819L380.695 365.987L385.574 250.514C387.869 248.936 391.888 246.496 393.465 246.496ZM403.085 254.536L399.068 348.494L391.036 356.714L395.913 248.221C397.492 249.798 402.227 253.671 403.085 254.531V254.536ZM411.835 261.707L408.68 340.071L402.225 346.381L406.243 256.972C407.817 258.55 410.973 260.846 411.835 261.707ZM421.305 265.727L418.149 332.515L411.836 337.636L414.992 263.289C416.571 264.006 419.727 265.727 421.305 265.727ZM430.056 265.727L427.759 321.385L421.303 327.698L423.743 266.445C425.319 266.445 429.337 266.445 430.056 265.727Z" fill="#C09300"/>
        <path d="M506.528 246.496L511.262 358.819L519.297 365.987L514.418 250.514C512.124 248.936 508.105 246.496 506.528 246.496ZM496.907 254.536L500.924 348.494L508.957 356.714L504.079 248.221C502.5 249.798 497.765 253.671 496.907 254.531V254.536ZM488.157 261.707L491.312 340.071L497.767 346.381L493.749 256.972C492.175 258.55 489.019 260.846 488.157 261.707ZM478.687 265.727L481.843 332.515L488.156 337.636L485 263.289C483.421 264.006 480.265 265.727 478.687 265.727ZM469.937 265.727L472.234 321.385L478.689 327.698L476.249 266.445C474.674 266.445 470.656 266.445 469.937 265.727Z" fill="#C09300"/>
        <path d="M453.156 315.071L462.769 358.827L459.611 361.982L456.312 359.543L450.86 320.524L453.156 359.543L449.998 363.559L446.842 359.543L449.138 320.524L443.688 359.543L440.385 361.982L437.23 358.827L446.842 315.07L453.156 315.071Z" fill="#C09300" stroke="#C09300" stroke-width="1.07389"/>
        <path d="M428.475 295.848L409.395 363.555L435.65 367.573L446.839 316.647L428.475 295.848L428.475 295.848Z" fill="white" stroke="#C09300" stroke-width="1.18904" stroke-linejoin="round"/>
        <path d="M422.164 318.947L424.46 324.54L436.865 312.691" stroke="#C09300" stroke-width="1.26993" stroke-linejoin="round"/>
        <path d="M430.757 304.93L433.353 329.276L441.243 318.948M438.087 322.96L442.397 337.835M444.087 332.37L435.369 345.612M438.088 358.828L435.298 345.63L432.862 332.206L427.022 340.115L424.46 330.996L416.285 339.381L420.443 354.633L426.18 345.197L429.336 354.81L435.227 345.648" stroke="#C09300" stroke-width="1.26993" stroke-linejoin="round"/>
        <path d="M414.984 361.979L420.284 354.535L423.737 365.992L428.471 357.96L431.629 367.574" stroke="#C09300" stroke-width="1.26993" stroke-linejoin="round"/>
        <path d="M471.517 295.848L490.598 363.555L464.342 367.573L453.154 316.647L471.517 295.848L471.517 295.848Z" fill="white" stroke="#C09300" stroke-width="1.18904" stroke-linejoin="round"/>
        <path d="M477.828 318.947L475.533 324.54L463.127 312.691" stroke="#C09300" stroke-width="1.26993" stroke-linejoin="round"/>
        <path d="M469.235 304.93L466.64 329.276L458.749 318.948M461.905 322.96L457.595 337.835M455.905 332.37L464.623 345.612M461.904 358.828L464.694 345.63L467.13 332.206L472.971 340.115L475.532 330.996L483.707 339.381L479.549 354.633L473.812 345.197L470.656 354.81L464.766 345.648" stroke="#C09300" stroke-width="1.26993" stroke-linejoin="round"/>
        <path d="M485.008 361.979L479.708 354.535L476.255 365.992L471.521 357.96L468.363 367.574" stroke="#C09300" stroke-width="1.26993" stroke-linejoin="round"/>
        <path d="M449.995 393.821C469.939 393.821 489.02 392.243 500.209 389.087C504.945 388.228 504.945 385.789 504.945 382.631C509.681 381.054 507.24 375.461 510.539 375.461C507.24 376.323 506.524 369.866 502.506 370.729C502.506 365.132 496.911 364.416 492.176 365.991C482.706 369.149 465.92 369.866 449.995 369.866C434.07 369.149 417.427 369.149 407.815 365.991C403.08 364.416 397.487 365.132 397.487 370.729C393.469 369.866 392.752 376.323 389.453 375.461C392.752 375.461 390.313 381.054 395.048 382.631C395.048 385.789 395.048 388.228 399.925 389.087C410.971 392.243 430.054 393.821 449.995 393.821H449.995Z" fill="white" stroke="#C09300" stroke-width="2.37809" stroke-linecap="round" stroke-linejoin="round"/>
        <path d="M422.884 363.549C429.338 364.411 436.512 365.127 442.109 364.411C445.263 364.411 447.559 369.861 441.247 370.724C435.653 371.439 426.901 370.724 422.166 369.861C418.149 369.144 409.398 367.567 403.802 365.986C398.207 363.55 402.225 358.818 405.379 359.534C410.258 361.111 416.571 362.69 422.885 363.55L422.884 363.549ZM477.115 363.549C470.658 364.411 463.487 365.127 458.034 364.411C454.733 364.411 452.437 369.861 458.751 370.724C464.346 371.439 473.098 370.724 477.829 369.861C481.848 369.144 490.599 367.567 496.194 365.986C501.791 363.55 497.774 358.818 494.616 359.534C489.739 361.111 483.426 362.69 477.115 363.55L477.115 363.549Z" fill="white" stroke="#C09300" stroke-width="1.26993" stroke-linecap="round" stroke-linejoin="round"/>
        <path d="M403.083 360.402C398.206 359.54 395.911 365.133 397.491 368.288C398.207 366.711 401.507 366.711 402.225 365.133C403.083 362.696 401.507 362.696 403.083 360.402ZM422.164 375.072C422.164 371.919 425.319 372.307 425.319 369.15C425.319 367.573 424.46 365.133 422.882 365.133C421.303 365.133 419.724 366.711 419.724 368.288C419.006 371.445 422.164 371.919 422.164 375.072ZM444.875 365.992C449.605 365.992 449.137 372.306 446.84 375.462C446.84 373.167 442.824 372.306 442.824 370.73C442.824 368.288 446.45 368.288 444.875 365.992H444.875ZM496.906 360.402C501.784 359.54 504.081 365.133 502.501 368.288C501.784 366.711 498.484 366.711 497.767 365.133C496.906 362.696 498.485 362.696 496.906 360.402ZM477.826 375.072C477.826 371.919 474.672 372.307 474.672 369.15C474.672 367.573 475.532 365.133 477.111 365.133C478.688 365.133 480.267 366.711 480.267 368.288C480.985 371.445 477.826 371.919 477.826 375.072ZM455.115 365.992C450.382 365.992 450.852 372.306 453.147 375.462C453.147 373.167 457.163 372.306 457.163 370.73C457.164 368.288 453.537 368.288 455.115 365.992Z" fill="white" stroke="#C09300" stroke-width="1.26993" stroke-linecap="round" stroke-linejoin="round"/>
        <path d="M404.665 361.98C406.245 361.98 408.683 362.697 409.4 363.557L404.66 361.977L404.665 361.98ZM412.545 364.42C413.407 364.42 416.564 365.136 418.141 365.995L412.541 364.415L412.545 364.42ZM441.246 367.57C439.668 367.57 436.512 367.57 435.653 368.285L441.243 367.565L441.246 367.57ZM432.496 367.57C431.637 366.707 428.479 366.707 426.902 367.57H432.492H432.496ZM495.337 361.98C493.76 361.98 491.463 362.697 490.602 363.557L495.337 361.98ZM487.447 364.42C486.587 364.42 483.43 365.136 481.852 365.995L487.452 364.415L487.447 364.42ZM458.746 367.57C460.326 367.57 463.482 367.57 464.342 368.285L458.742 367.565L458.746 367.57ZM467.496 367.57C468.357 366.707 471.515 366.707 473.092 367.57H467.492H467.496Z" fill="white" stroke="#C09300" stroke-width="0.890908" stroke-linecap="round" stroke-linejoin="round"/>
        <path d="M403.331 374.59C402.797 374.488 402.516 374.065 402.65 373.565C402.814 372.956 403.302 372.607 403.763 372.771C404.056 372.874 404.593 373.415 404.595 373.609C404.598 373.832 404.314 374.362 404.192 374.363C404.14 374.364 404.058 374.41 404.011 374.465C403.911 374.583 403.598 374.641 403.331 374.59ZM458.262 378.51C458.063 378.436 457.747 377.991 457.747 377.786C457.749 377.399 458.322 376.768 458.676 376.765C458.851 376.763 459.331 377.013 459.511 377.199C459.835 377.537 459.765 378.092 459.356 378.407C459.155 378.562 458.556 378.618 458.262 378.51L458.262 378.51ZM458.622 380.99C458.202 380.847 458.048 380.642 458.014 380.176C457.979 379.691 458.026 379.615 458.539 379.335L458.905 379.136L459.251 379.291C459.731 379.505 459.944 379.735 459.961 380.058C459.979 380.406 459.721 380.761 459.321 380.941C458.969 381.099 458.948 381.1 458.622 380.99Z" fill="#C09300"/>
        <path d="M407.743 370.098C407.396 370.087 406.921 370.405 406.649 370.566C406 370.719 405.244 371.118 404.617 370.692C404 370.501 403.179 370.651 403.086 371.411C403.245 372.062 404.158 372.435 404.711 372.004C405.122 371.467 406.243 371.151 406.367 372.067C405.91 372.759 405.962 373.676 405.586 374.411C405.525 374.868 405.335 375.303 405.086 375.692C404.624 375.738 404.132 375.684 403.742 375.973C403.116 376.007 402.478 376.318 402.117 376.848C401.714 377.426 401.329 378.014 401.211 378.723C401.318 379.448 402.148 379.656 402.774 379.692C403.44 379.876 404.108 380.116 404.774 380.317C405.859 380.56 406.876 380.952 407.961 381.192C409.546 381.67 411.209 381.889 412.805 382.317C412.972 382.372 413.129 382.421 413.305 382.442C413.968 382.579 414.313 381.859 414.368 381.317C414.696 380.157 414.947 378.978 415.274 377.817C415.499 377.351 415.77 376.3 414.868 376.536C414.353 376.844 413.916 377.309 413.274 377.348C412.4 377.399 412.899 378.293 413.243 378.661C413.319 379.248 413.133 379.95 412.743 380.411C412.223 380.74 411.571 380.355 411.024 380.223C410.449 380.233 409.3 379.94 409.836 379.161C410.027 378.584 410.043 377.952 410.274 377.379C410.568 376.765 410.61 376.094 410.742 375.442C410.381 374.665 409.764 375.698 409.274 375.786C408.936 376.02 407.668 376.12 408.336 376.723C408.911 377.16 408.47 377.92 408.367 378.473C408.331 379.243 407.53 379.427 406.899 379.255C406.271 379.224 405.397 378.757 405.93 378.067C406.051 377.492 406.252 376.927 406.367 376.348C406.605 375.65 406.805 374.985 407.055 374.286C407.163 373.666 407.386 373.078 407.68 372.535C407.697 371.85 408.158 371.26 408.148 370.567C408.102 370.228 407.95 370.104 407.742 370.098H407.743ZM404.149 377.348C404.23 377.334 404.289 377.346 404.367 377.379C404.617 377.486 404.624 377.689 404.367 377.911C404.255 378.007 404.127 378.101 404.086 378.098C403.618 378.058 403.48 377.988 403.461 377.817C403.444 377.666 403.492 377.622 403.805 377.473C403.96 377.399 404.067 377.362 404.149 377.348ZM403.112 382.368C402.616 381.902 402.696 381.562 403.43 381.015C403.744 380.781 403.934 380.807 404.293 381.135C404.845 381.639 404.867 381.958 404.38 382.39C404.139 382.603 404.033 382.647 403.753 382.65C403.459 382.653 403.376 382.616 403.112 382.368ZM406.162 383.288C406.048 383.261 405.941 383.211 405.847 383.14C405.753 383.07 405.674 382.981 405.616 382.879C405.558 382.777 405.521 382.664 405.508 382.548C405.495 382.431 405.506 382.313 405.54 382.201C405.668 381.766 405.743 381.723 406.38 381.717C407.095 381.71 407.234 381.829 407.241 382.459C407.244 382.813 407.217 382.895 407.041 383.059C406.834 383.252 406.436 383.356 406.162 383.288ZM495.275 383.368C495.048 383.179 495.002 383.094 495 382.853C494.997 382.443 495.233 382.142 495.746 381.91C496.428 381.601 496.705 381.643 496.963 382.095C497.304 382.697 497.288 382.942 496.879 383.347C496.653 383.571 496.611 383.584 496.093 383.589C495.586 383.592 495.528 383.579 495.275 383.368H495.275ZM410.213 384.518C409.849 384.421 409.66 384.148 409.655 383.712C409.651 383.378 409.675 383.324 409.909 383.142C410.06 383.023 410.299 382.922 410.487 382.896C410.754 382.86 410.852 382.883 411.067 383.034C411.617 383.421 411.734 383.804 411.415 384.175C411.076 384.571 410.754 384.663 410.213 384.518ZM432.133 385.498C432.052 385.398 431.874 385.338 431.856 385.211C431.888 384.656 431.914 384.095 432.091 383.563C432.187 383.04 432.103 382.494 432.285 381.984C432.472 381.057 432.472 380.102 432.687 379.181C432.697 378.706 432.742 378.232 432.88 377.775C433.037 377.053 432.893 376.299 433.106 375.586C433.083 375.318 433.392 374.603 433.662 375.026C434.056 375.603 434.574 376.071 435.083 376.542C435.521 376.794 435.119 377.166 434.817 377.291C434.402 377.455 434.301 377.912 434.33 378.314C434.272 378.728 434.106 379.121 434.089 379.544C434.001 380.166 434.018 380.798 433.937 381.42C433.755 382.029 433.825 382.68 433.764 383.308C433.772 383.706 433.582 384.068 433.609 384.468C433.56 384.874 433.542 385.362 433.201 385.641C432.873 385.807 432.397 385.778 432.133 385.498H432.133ZM461.834 375.698C461.352 376.063 460.92 376.493 460.49 376.917C459.898 377.366 460.977 377.627 461.115 378.011C461.272 378.597 461.263 379.221 461.303 379.823C461.482 380.375 461.561 380.962 461.521 381.542C461.47 382.165 460.658 382.033 460.303 382.386C459.811 382.593 459.615 383.076 459.24 383.417C458.994 383.9 458.928 384.493 458.896 385.042C458.932 385.49 458.594 385.991 458.896 386.386C458.935 386.442 458.982 386.518 459.021 386.573C459.123 386.719 459.364 386.603 459.521 386.636C460.025 386.608 460.55 386.683 461.021 386.48C462.231 386.27 463.453 386.254 464.678 386.198C465.427 386.222 466.148 385.962 466.897 385.98C467.483 386.11 467.748 385.473 467.741 385.011C467.408 384.357 467.695 383.582 467.428 382.917C467.193 382.245 467.286 381.489 467.178 380.792C467.163 380.244 466.467 380.04 466.115 380.448C465.774 380.793 465.223 380.862 464.959 381.292C464.662 381.894 465.586 381.895 465.74 382.355C465.916 382.819 465.859 383.335 465.896 383.823C466.011 384.416 465.367 384.45 464.959 384.511C464.422 384.712 463.669 384.847 463.365 384.199C463.174 383.719 463.2 383.206 463.147 382.698C463.133 381.807 462.919 380.93 462.865 380.042C462.814 378.945 462.624 377.855 462.553 376.761C462.543 376.305 462.482 375.563 461.834 375.698V375.698ZM461.209 383.948L461.522 383.98L461.553 384.355L461.584 384.729L461.178 384.855C461.044 384.894 460.909 384.926 460.771 384.948C460.707 384.909 460.645 384.868 460.584 384.823C460.364 384.665 460.421 384.438 460.709 384.136C460.871 383.965 460.948 383.932 461.209 383.948H461.209ZM431.243 374.668C430.863 374.803 430.381 375.361 429.993 375.356C429.113 375.418 429.236 376.275 429.868 376.574C429.951 376.834 429.873 377.162 429.899 377.449C430.022 378.239 429.524 378.874 429.618 379.668C429.574 380.538 429.311 381.386 429.274 382.262C429.027 383.166 429.024 384.094 428.868 385.012C428.764 385.835 428.169 385.545 427.649 385.325C427.645 384.968 427.622 384.619 427.618 384.262C427.835 383.445 427.177 383.207 426.524 383.106C425.838 383.171 425.501 382.583 425.649 381.981C425.944 381.63 426.685 381.728 427.149 381.669C428.13 381.872 428.091 380.557 427.587 380.106C427.242 379.47 426.389 379.197 426.149 378.543C426.245 377.677 425.669 376.811 424.962 376.387C423.873 376.311 423.051 377.25 422.649 378.168C422.196 378.299 421.745 378.435 421.305 378.606C420.596 378.783 419.586 380.013 420.555 380.481C421.099 380.631 422.756 381.009 422.024 381.762C421.612 382.469 420.823 382.481 420.118 382.293C419.394 382.294 418.589 381.942 418.618 381.106C418.47 380.356 418.494 379.548 418.149 378.856C418 378.017 417.048 378.213 416.993 378.981C416.259 379.515 416.357 380.379 416.868 381.012C417.186 381.741 416.871 382.59 416.555 383.262C416.364 384.137 415.399 384.167 414.712 384.45C414.374 384.581 413.083 384.372 413.555 385.106C414.308 385.372 415.208 385.611 415.993 385.418C416.816 385.316 417.53 384.754 417.93 384.043C418.483 383.483 419.432 383.776 420.149 383.762C420.922 383.76 421.712 384.305 422.462 383.95C422.679 383.385 423.684 382.454 423.993 383.418C423.94 384.281 424.702 384.744 425.493 384.637C426.357 384.588 426.037 385.248 426.024 385.762C426.081 386.697 426.684 387.187 427.462 387.575C427.727 387.646 428.007 387.622 428.274 387.575C429.023 387.34 429.828 387.006 430.056 386.169C430.359 385.488 430.366 384.718 430.587 384.012C430.764 382.882 430.993 381.752 431.024 380.606C431.3 379.568 431.221 378.47 431.43 377.418C431.563 376.637 431.661 375.855 431.743 375.075C431.651 374.657 431.471 374.587 431.243 374.668ZM424.462 378.824C424.613 378.843 424.697 379.028 424.712 379.356C424.728 379.72 424.918 380.016 425.149 380.074C425.332 380.12 425.316 380.313 425.118 380.449C425.003 380.529 424.797 380.576 424.43 380.574C423.852 380.571 423.494 380.422 423.181 380.106L422.993 379.918L423.274 379.731C423.471 379.575 423.659 379.408 423.837 379.231C424.122 378.94 424.31 378.806 424.462 378.824ZM490.495 370.948C489.936 370.976 489.381 371.059 488.839 371.198C487.798 371.133 487.276 372.225 488.276 372.76C488.878 374.295 489.816 372.444 490.776 372.573C492.214 372.853 492.335 374.405 492.557 375.573C492.638 376.73 492.972 377.855 493.307 378.948C494.27 380.018 492.587 380.688 491.87 379.854C491.259 379.19 489.949 378.375 489.214 379.292C488.31 379.675 488.273 380.882 487.526 381.229C486.317 381.598 486.165 380.11 485.526 379.479C484.939 378.655 483.816 378.583 482.901 378.292C482.472 377.423 482.696 375.946 481.807 375.354C481.061 375.659 479.694 377.056 480.838 377.698C481.956 378.659 480.35 379.099 479.838 379.761C479.107 380.575 478.99 381.697 478.869 382.73C477.61 383.425 477.365 381.942 477.213 381.011C477.115 379.899 476.177 380.225 475.526 380.636C474.573 381.022 474.098 381.926 473.432 382.636C473.352 383.283 473.469 383.992 473.463 384.667C473.679 385.478 474.665 385.097 475.276 385.042C476.255 384.633 476.655 385.669 475.869 386.261C475.337 386.937 473.65 386.584 473.807 387.667C474.351 387.731 474.917 387.71 475.463 387.667C476.554 387.369 477.724 386.6 477.838 385.386C477.982 384.328 479.506 384.52 480.338 384.292C481.379 383.992 482.633 383.915 482.87 385.23C483.579 385.975 485.118 386.814 485.901 385.792C486.695 385.307 487.077 384.454 487.026 383.542C486.864 382.757 488.295 382.729 488.651 383.167C489.172 384.025 490.802 383.772 491.588 383.292C492.425 382.675 492.606 381.587 493.808 381.573C495.59 381.039 497.442 380.732 499.182 380.073C500.593 379.766 498.973 378.875 498.62 378.354C497.546 377.823 496.612 379.996 495.401 378.917C494.465 378.201 494.529 376.84 494.182 375.792C493.945 374.434 494.005 372.869 493.026 371.792C492.354 371.077 491.44 370.904 490.495 370.948H490.495ZM483.682 380.417C483.808 380.414 483.95 380.476 484.182 380.604C484.62 380.846 484.933 381.247 484.932 381.573C484.932 381.786 484.878 381.8 484.557 381.948C484.36 382.039 484.136 382.137 484.057 382.136C483.876 382.134 483.433 381.779 483.432 381.636C483.431 381.576 483.374 381.349 483.307 381.167C483.189 380.846 483.208 380.851 483.37 380.636C483.473 380.498 483.557 380.42 483.682 380.417ZM490.214 380.761C490.586 380.736 490.807 380.852 490.964 381.136C491.145 381.465 491.022 381.717 490.557 381.917C490.354 382.005 490.15 382.076 490.12 382.073C490.089 382.07 489.922 381.971 489.745 381.855C489.475 381.677 489.435 381.591 489.432 381.386C489.429 381.07 489.781 380.789 490.213 380.761H490.214ZM481.276 380.854C481.385 380.838 481.484 380.894 481.619 381.01C481.799 381.165 481.856 381.29 481.901 381.604C481.932 381.823 481.927 382.106 481.901 382.229C481.852 382.455 481.847 382.445 481.338 382.448C480.698 382.454 480.639 382.384 480.651 381.792C480.659 381.415 480.662 381.314 480.87 381.104C481.03 380.942 481.167 380.871 481.276 380.854ZM475.776 382.292C475.975 382.339 476.164 382.49 476.213 382.729C476.279 383.047 476.221 383.192 475.963 383.323C475.741 383.436 475.229 383.474 475.088 383.386C475.042 383.357 474.948 383.283 474.901 383.198C474.833 383.077 474.845 383.019 474.932 382.948C474.992 382.899 475.057 382.828 475.057 382.792C475.056 382.755 475.124 382.629 475.213 382.511C475.359 382.317 475.576 382.245 475.776 382.292ZM485.026 383.479C485.204 383.479 485.354 383.54 485.463 383.636C485.649 383.798 485.642 384.036 485.432 384.198C485.297 384.303 484.56 384.293 484.307 384.198C484.194 384.156 484.151 384.1 484.151 383.98C484.149 383.839 484.188 383.752 484.432 383.636C484.636 383.538 484.848 383.481 485.026 383.479H485.026ZM467.854 388.298C467.759 388.236 467.616 388.181 467.759 388.077C467.932 387.774 468.277 387.67 468.584 387.557C469.132 387.32 469.605 386.917 469.957 386.439C470.007 386.106 470.381 385.925 470.38 385.577C470.383 385.102 470.411 384.615 470.295 384.151C470.167 383.725 469.844 383.399 469.468 383.177C469.212 382.975 468.795 382.92 468.7 382.563C468.647 382.22 468.953 381.959 469.06 381.654C469.284 381.232 469.471 380.79 469.711 380.379C469.97 380.091 470.37 380.363 470.504 380.641C470.693 380.918 470.861 381.217 470.955 381.538C471.257 381.87 471.525 382.259 471.634 382.7C471.782 383.011 472.017 383.303 472.003 383.666C472.003 384.083 472.238 384.454 472.224 384.872C472.237 385.433 472.237 386.017 472.032 386.547C471.892 386.84 471.611 387.016 471.425 387.279C471.106 387.575 470.755 387.858 470.346 388.015C470.057 388.107 469.889 388.441 469.526 388.36C469.012 388.369 468.49 388.439 467.979 388.356C468.011 388.41 467.823 388.265 467.854 388.299V388.298ZM461.004 388.748C460.761 388.499 460.709 388.393 460.706 388.148C460.703 387.9 460.751 387.802 460.988 387.562C461.426 387.12 461.641 387.109 462.397 387.492C463.12 387.858 463.365 387.891 463.43 387.632C463.492 387.382 463.909 387.153 464.304 387.151C464.554 387.149 464.696 387.199 464.896 387.355C465.147 387.551 465.16 387.581 465.166 388.034C465.17 388.497 465.164 388.515 464.875 388.77C464.598 389.014 464.554 389.029 464.21 388.995C463.773 388.951 463.511 388.751 463.439 388.406C463.388 388.156 463.3 388.097 463.234 388.266C463.213 388.321 463.105 388.389 462.995 388.416C462.792 388.468 462.446 388.685 462.201 388.916C462.108 389.004 461.946 389.045 461.682 389.048C461.326 389.051 461.277 389.029 461.004 388.748H461.004ZM441.184 379.848C440.519 379.855 439.803 380.414 439.715 381.067C439.867 381.819 440.492 382.556 440.09 383.348C440.367 384.361 439.328 384.746 438.621 384.161C438.194 383.19 437.977 382.125 437.34 381.255C436.535 381.027 436.185 382.311 435.621 382.755C435.9 383.51 436.716 384.187 436.808 385.13C437.003 386.045 436.447 387.06 435.652 387.536C434.966 388.191 434.027 387.957 433.183 388.098C432.159 388.697 433.935 388.916 434.402 388.942C435.45 389.049 436.537 388.91 437.308 388.13C438.077 387.762 438.018 386.432 438.933 386.286C440.522 386.215 442.096 386.529 443.683 386.567C444.533 386.77 445.847 386.466 446.434 387.098C446.435 388.206 447.374 388.889 448.277 389.317C448.776 389.456 449.302 388.838 449.809 388.723C450.774 388.416 450.48 387.221 451.059 386.755C452.709 386.665 454.375 386.684 456.027 386.661C456.342 386.669 456.435 386.221 456.653 386.036C456.616 385.397 456.593 384.763 456.496 384.13C456.178 383.323 456.548 382.285 455.965 381.598C455.135 381.372 454.429 382.132 453.59 382.192C452.664 382.605 451.884 383.46 451.84 384.504C451.292 385.401 450.412 384.345 450.715 383.598C450.68 383.273 450.785 382.894 450.684 382.598C450.177 381.99 449.289 382.189 448.59 382.098C447.571 382.139 446.577 381.919 445.558 381.942C444.666 381.875 443.737 382.02 442.871 381.786C441.839 381.756 441.981 380.748 441.808 380.036C441.625 379.9 441.405 379.846 441.184 379.848ZM443.184 383.536C443.527 383.543 443.85 383.588 444.184 383.629C444.614 383.7 445.073 383.481 445.496 383.629C446.473 383.796 447.45 383.756 448.434 383.848C448.693 383.844 448.879 384.033 449.058 384.192C449.061 384.876 449.059 385.571 449.058 386.255C449.029 386.512 449.135 386.853 448.902 387.036C448.828 387.087 448.744 387.143 448.652 387.161C448.382 387.091 448.095 386.913 447.965 386.661C447.923 386.303 447.983 385.957 447.996 385.598C447.989 385.506 448.037 385.361 447.996 385.286C447.783 385.135 447.542 385.037 447.277 385.036C446.428 385.007 445.595 384.944 444.746 384.911C444.039 384.866 443.313 384.971 442.621 384.786C442.353 384.688 442.003 384.722 441.84 384.442C441.606 384.17 441.943 383.845 442.183 383.723C442.502 383.579 442.841 383.529 443.183 383.536L443.184 383.536ZM454.465 383.786C454.623 383.784 454.674 383.836 454.746 384.13C454.792 384.317 454.846 384.547 454.871 384.63C454.907 384.748 454.849 384.786 454.684 384.848C454.189 385.035 453.698 385.016 453.527 384.786C453.45 384.681 453.54 384.351 453.684 384.223C453.973 383.965 454.293 383.786 454.465 383.786Z" fill="#C09300"/>
        <path d="M462.308 253.098C462.975 253.138 461.406 249.53 461.406 249.53C463.171 251.334 469.836 251.765 469.836 251.765C465.836 249.999 461.838 236.668 462.308 226.043C462.74 215.379 460.78 211.183 459.211 209.615C457.211 207.615 450.781 205.851 446.547 205.615C444.155 205.498 444.547 207.419 444.547 207.419C440.117 206.282 435.686 205.851 433.686 207.184C431.803 208.439 431.411 214.712 432.784 213.614C436.116 210.948 439.018 213.379 441.018 216.28C442.782 218.829 442.665 226.043 440.116 234.472C437.449 243.334 430.156 252.195 430.156 252.195C434.116 252.195 439.685 248.667 439.685 248.667L438.351 254.195C442.547 252.195 445.88 249.098 445.88 249.098L449.879 253.293C451.212 251.529 453.879 249.098 453.879 249.098C453.879 249.098 457.211 252.627 462.308 253.098Z" fill="white" stroke="#C09300" stroke-width="1.21803"/>
        <path d="M446.118 227.578C446.118 227.578 443.883 244.007 439.688 248.673M449.648 227.148C449.648 227.148 448.785 243.772 445.884 249.105M452.778 227.818C452.778 227.818 452.778 246.011 453.876 249.108M456.738 228.718C456.738 228.718 457.64 244.01 461.404 249.538" stroke="#C09300" stroke-width="1.27003"/>
        <path d="M442.077 219.616C441.881 218.166 441.528 217.028 441.018 216.283C439.018 213.382 436.118 210.951 432.785 213.617C432.785 213.617 433.922 210.088 436.353 209.971C438.235 209.853 442.508 211.382 446.274 217.812C446.274 217.812 443.489 217.185 442.823 217.773C441.567 218.871 442.077 219.616 442.077 219.616Z" fill="#C09300" stroke="#C09300" stroke-width="0.35401"/>
        <path d="M432.438 209.269C432.712 208.366 433.144 207.543 433.693 207.19C435.693 205.857 440.124 206.288 444.554 207.425C444.554 207.425 444.162 205.504 446.554 205.622C450.788 205.857 457.218 207.622 459.217 209.622C459.687 210.132 460.237 210.877 460.707 212.013H460.629C459.649 210.641 456.865 210.72 456.198 210.798C455.139 210.916 454.473 210.876 453.061 211.229C452.395 211.386 451.375 211.582 450.826 212.013C450.396 212.366 450.042 213.66 449.376 213.66C448.317 213.66 448.396 213.386 448.121 213.072C447.768 212.641 447.572 212.013 447.219 212.052C446.122 212.249 444.357 211.386 442.123 209.622C439.888 207.856 439.025 207.425 436.123 207.621C433.261 207.856 432.359 209.465 432.359 209.465L432.438 209.269Z" fill="#C09300" stroke="#C09300" stroke-width="0.35401"/>
        <path d="M448.821 211.856C449.47 211.856 449.997 211.329 449.997 210.68C449.997 210.03 449.47 209.504 448.821 209.504C448.171 209.504 447.645 210.03 447.645 210.68C447.645 211.329 448.171 211.856 448.821 211.856Z" fill="white"/>
        <path d="M449.977 327.238C482.62 302.132 479.821 265.353 479.821 265.353C478.96 265.525 478.142 265.612 477.28 265.612C470.433 265.612 454.102 261.694 450.292 256.719C446.21 261.222 429.521 265.612 422.717 265.612C421.855 265.612 420.994 265.525 420.176 265.353C420.176 265.353 417.334 302.13 449.977 327.238L449.977 327.238Z" fill="white" stroke="#C09300" stroke-width="1.15004"/>
        <path d="M477.217 268.048C476.935 268.066 476.652 268.075 476.37 268.075C470.164 268.075 455.75 264.891 450.194 260.117C444.374 264.527 429.722 268.075 423.617 268.075C423.331 268.075 423.048 268.04 422.767 267.988C422.753 269.379 422.826 270.82 422.912 272.132C423.235 277.033 424.094 281.951 425.4 286.684C429.508 301.58 437.916 314.238 449.972 323.84C462.039 314.23 470.457 301.56 474.574 286.653C475.881 281.921 476.744 277.003 477.07 272.103C477.146 270.731 477.222 269.051 477.217 268.048Z" stroke="#C09300" stroke-width="0.916029"/>
        <mask id="mask0_1775_625" style="mask-type:luminance" maskUnits="userSpaceOnUse" x="423" y="260" width="54" height="64">
            <path d="M476.93 268.252C476.652 268.27 476.372 268.278 476.093 268.278C469.953 268.278 455.694 265.129 450.197 260.406C444.439 264.77 429.941 268.278 423.902 268.278C423.619 268.275 423.338 268.246 423.061 268.192C423.046 269.568 423.12 270.996 423.206 272.294C423.524 277.14 424.373 282.009 425.667 286.691C429.732 301.424 438.048 313.951 449.977 323.449C461.917 313.943 470.244 301.409 474.32 286.661C475.626 281.957 476.453 277.134 476.788 272.264C476.863 270.907 476.938 269.246 476.93 268.252Z" fill="white"/>
        </mask>
        <g mask="url(#mask0_1775_625)">
            <path fill-rule="evenodd" clip-rule="evenodd" d="M422.609 259.77H440.869V324.08H422.609V259.77Z" fill="#C09300"/>
            <path fill-rule="evenodd" clip-rule="evenodd" d="M440.867 259.77H459.127V324.08H440.867V259.77Z" fill="white"/>
            <path fill-rule="evenodd" clip-rule="evenodd" d="M459.129 259.77H477.388V324.08H459.129V259.77Z" fill="#C09300"/>
        </g>
    </g>
    <defs>
        <clipPath id="clip0_1775_625">
            <rect width="900" height="600" fill="white"/>
        </clipPath>
    </defs>
</svg>
