<svg width="1000" height="500" viewBox="0 0 1000 500" fill="none"
    xmlns="http://www.w3.org/2000/svg">
    <g clip-path="url(#clip0_2052_6)">
        <path id="1" d="M0 0H1000V500H0V0Z" fill="#EDEDF0"/>
        <path id="2" d="M0 500H1000V250" fill="#DDDDDD"/>
        <path id="3" d="M0 0H1000V250" fill="#DDDDDD"/>
        <path id="4" d="M230.25 369.16C219.44 372.145 213.242 380.531 213.4 388.444L266.611 388.231C267.089 379.728 260.094 371.864 249.445 368.767C301.542 367.691 346.802 348.177 355.025 335.655C346.887 332.123 337.477 337.807 330.768 336.499C346.696 329.138 394.415 298.251 386.657 265.139C380.626 283.531 362.357 298.748 354.576 302.833C372.402 275.766 396.742 247.586 375.625 225.764C376.691 238.412 367.588 252.331 363.567 253.377C373.907 224.777 383.773 188.87 361.37 165.198C364.312 173.754 363.124 197.889 359.073 198.974C357.825 179.526 354.507 138.621 334.026 139.204C340.531 144.994 343.377 160.799 343.522 176.764C338.854 165.827 333.55 157.593 322.204 149.517C313.026 131.915 296.696 117.331 280.364 106.883C282.197 119.695 283.714 129.803 301.604 143.092C292.276 142.512 282.952 124.83 272.984 124.34C265.054 123.958 258.833 131.525 245.876 127.17C247.31 131.447 253.356 133.341 254.631 136.505C251.856 138.422 245.267 136.206 239.791 133.354C247.325 143.617 258.999 149.651 268.911 147.614C280.697 145.348 293.335 146.546 305.388 153.405C302.309 154.986 290.328 154.976 282.638 154.014C289.628 161.09 294.315 165.78 306.468 165.703C317.323 165.632 323.014 159.913 325.802 163.455C332.61 171.522 337.192 179.585 342.887 189.083C330.307 190.473 334.099 174.855 320.088 166.867C312.216 183.16 329.143 202.475 340.665 210.504C340.82 222.751 342.61 232.998 347.805 242.322C351.306 248.896 355.833 255.625 354.126 270.462C347.229 265.438 340.488 248.496 342.968 235.046C334.335 237.401 330.96 252.581 335.028 260.223C338.068 266.041 340.098 277.174 336.592 282.151C333.175 286.788 332.817 286.269 332.862 296.221C332.984 302.176 329.657 309.218 324.239 314.128C325.37 309.932 326.66 302.713 325.407 298.201C321.124 305.466 310.379 312.984 306.995 320.796C303.673 328.625 302.83 342.186 286.75 345.313C266.064 349.419 258.924 353.004 245.613 358.451C244.136 348.341 248.558 327.258 257.012 328.461C265.266 329.929 290.292 319.837 281.34 298.754C279.572 305.399 273.674 311.884 267.297 312.171C274.187 303.232 286.482 293.977 280.494 278.999C277.165 285.366 271.93 293.006 263.991 297.305C272.501 280.995 264.979 276.116 254.873 289.549C251.056 294.731 248.751 305.116 246.326 318.305C242.356 307.578 242.618 293.458 237.914 281.992C233 269.593 244.435 266.319 249.817 267.314C262.994 270.832 285.015 270.83 283.379 249.061C277.688 256.425 267.708 258.699 256.93 256.048C269.034 247.21 278.591 230.584 265.103 221.905C264.653 231.109 257.53 241.429 248.02 246.182C245.794 238.416 245.794 230.173 247.703 221.137C242.393 226.727 238.514 238.357 235.43 251.578C235.198 238.509 237.67 229.093 239.503 222.063C242.283 211.794 249.19 218.476 259.765 219.233C269.948 219.811 283.969 214.183 281.289 200.373C277.812 205.837 270.674 207.963 263.382 207.385C272.162 202.067 287.458 192.615 279.069 178.078C275.545 183.584 274.404 188.294 264.204 189.983C266.876 183.838 267.319 175.15 275.236 171.707C261.113 168.895 253.028 178.163 248.918 192.679C247.251 182.615 245.268 178.909 244.873 171.549C252.507 163.07 253.306 146.483 236.779 142.774C235.799 151.33 236.089 153.369 237.969 160.335C230.211 155.727 219.277 153.184 211.997 159.701C216.929 165.023 224.563 169.709 236.329 163.904C233.549 172.997 226.321 171.441 216.387 167.974C222.459 179.378 230.121 181.404 238.577 180.09C243.005 191.763 243.2 200.632 230.262 217.632C230.86 207.068 230.109 199.198 221.716 190.656C214.524 183.612 208.678 190.957 219.918 206.618C213.099 201.597 205.382 191.405 203.058 181.215C200.81 193.804 202.834 208.641 209.803 216.958C206.507 220.48 202.759 216.584 197.215 207.967C199.312 235.543 211.077 240.864 226.888 234.717C227.338 249.853 227.338 263.867 228.238 282.151C219.018 268.889 207.331 258.997 200.81 256.524C198.788 263.943 206.432 273.608 210.703 279.004C204.183 277.654 190.02 266.864 190.02 266.864C188.596 279.154 204.485 290.544 214.75 295.639C202.686 295.114 197.363 290.544 189.57 283.05C189.721 317.145 226.512 311.224 233.407 305.98C234.307 322.765 235.589 342.17 236.487 358.956C226.087 357.141 226.905 354.014 218.005 353.19C193.305 352.227 173.71 323.538 167.222 302.435C165.36 305.908 166.837 309.542 165.134 313.809C161.124 303.45 156 290.072 149.129 283.846C150.879 289.885 151.064 296.021 150.456 307.308C148.098 299.995 145.904 297.753 145.746 289.168C145.896 282.578 152.104 277.716 151.76 268.446C151.506 261.678 145.333 247.01 144.425 235.655C141.436 247.342 139.56 259.662 134.982 266.897C137.257 254.417 136.528 245.804 140.376 237.405C144.822 228.562 148.602 220.667 145.642 211.743C142.804 215.19 143.78 218.321 136.649 226.696C135.099 217.589 145.869 203.013 156.322 197.153C163.694 193.269 172.986 179.376 166.932 169.853C160.001 174.833 156.888 181.559 147.095 193.053C154.08 165.748 172.229 158.603 193.957 158.51C198.765 158.488 208.458 156.752 211.179 150.39C205.054 152.754 197.813 153.055 191.369 151.765C196.059 144.88 205.935 145.775 215.139 145.735C222.357 145.7 233.627 144.721 238.183 134.44C229.377 138.255 215.643 139.049 206.995 136.347C220.748 129.221 242.289 128.454 253.337 119.103C240.744 109.705 209.233 121.293 189.33 134.943C194.893 129.856 203.685 120.833 208.536 113.548C197.65 108.329 170.121 138.827 160.637 156.948C151.63 162.034 148.027 170.008 144.529 175.573C149.329 159.355 149.837 147.586 153.842 134.231C122.965 144.86 135.799 201.91 129.082 215.558C129.873 200.49 129.233 181.132 123.029 171.15C113.519 178.405 112.751 221.109 121.68 256.66C118.456 247.147 112.37 238.265 110.418 226.686C96.3418 252.357 118.669 282.643 137.338 306.567C123.283 299.247 109.387 283.5 100.258 270.299C102.778 316.246 150.759 325.793 158.208 337.085C148.098 332.379 128.769 323.066 120.568 332.825C133.919 335.907 144.57 339.47 153.152 345.095C165.604 360.643 189.184 367.442 230.25 369.16Z" fill="#DDDDDD"/>
    </g>
    <defs>
        <clipPath id="clip0_2052_6">
            <rect width="1000" height="500" fill="white"/>
        </clipPath>
    </defs>
</svg>
