<svg width="1200" height="600" viewBox="0 0 1200 600" fill="none"
    xmlns="http://www.w3.org/2000/svg">
    <g clip-path="url(#clip0_1937_2)">
        <path id="1" d="M0 0H1200V200H0V0Z" fill="#EDEDF0"/>
        <path id="2" d="M0 200H1200V400H0V200Z" fill="#DDDDDD"/>
        <path id="3" d="M0 400H1200V600H0V400Z" fill="#EDEDF0"/>
        <path id="4" d="M600 500.001C710.458 500.001 800.001 410.458 800.001 300C800.001 189.543 710.458 100 600 100C489.543 100 400 189.543 400 300C400 410.458 489.543 500.001 600 500.001Z" fill="#CCCCCC"/>
        <path d="M600 140L592.99 161.573L621.903 250.557H583.353L579.021 263.89H702.627L720.978 250.557H635.922L600 140Z" fill="#FCDD09"/>
        <path d="M643.105 240.674L694.046 170.559Z" fill="black"/>
        <path d="M643.105 240.674L694.046 170.559" stroke="#FCDD09" stroke-width="6.66668"/>
        <path d="M752.17 250.557L729.486 250.557L653.793 305.552L641.88 268.889L627.861 268.89L666.057 386.445L684.409 399.779L658.125 318.885L752.17 250.557Z" fill="#FCDD09"/>
        <path d="M669.746 322.663L752.171 349.443Z" fill="black"/>
        <path d="M669.746 322.663L752.171 349.443" stroke="#FCDD09" stroke-width="6.66668"/>
        <path d="M694.046 429.444L687.036 407.87L611.342 352.876L642.529 330.217L638.197 316.884L538.198 389.537L531.188 411.111L600.001 361.116L694.046 429.444Z" fill="#FCDD09"/>
        <path d="M600 373.334L600.001 460Z" fill="black"/>
        <path d="M600 373.334L600.001 460" stroke="#FCDD09" stroke-width="6.66668"/>
        <path d="M505.954 429.443L524.306 416.11L553.217 327.126L584.405 349.785L595.747 341.544L495.748 268.891L473.064 268.891L541.876 318.886L505.954 429.443Z" fill="#FCDD09"/>
        <path d="M530.254 322.662L447.83 349.445Z" fill="black"/>
        <path d="M530.254 322.662L447.83 349.445" stroke="#FCDD09" stroke-width="6.66668"/>
        <path d="M447.83 250.556L466.182 263.89L559.745 263.889L547.832 300.552L559.174 308.792L597.37 191.236L590.361 169.663L564.077 250.557L447.83 250.556Z" fill="#FCDD09"/>
        <path d="M556.894 240.671L505.952 170.557Z" fill="black"/>
        <path d="M556.894 240.671L505.952 170.557" stroke="#FCDD09" stroke-width="6.66668"/>
    </g>
    <defs>
        <clipPath id="clip0_1937_2">
            <rect width="1200" height="600" fill="white"/>
        </clipPath>
    </defs>
</svg>
