<svg width="1200" height="600" viewBox="0 0 1200 600" fill="none"
    xmlns="http://www.w3.org/2000/svg">
    <g clip-path="url(#clip0_2064_2385)">
        <path d="M0 0H1200V600H0V0Z" fill="#012169"/>
        <path d="M0 0L600 300ZM0 300L600 0Z" fill="black"/>
        <path d="M0 0L600 300M0 300L600 0" stroke="white" stroke-width="60"/>
        <mask id="mask0_2064_2385" style="mask-type:luminance" maskUnits="userSpaceOnUse" x="0" y="0" width="700" height="400">
            <path d="M0 0V150H700V300H600L0 0ZM0 300V400H300V0H600L0 300Z" fill="white"/>
        </mask>
        <g mask="url(#mask0_2064_2385)">
            <path d="M0 0L600 300ZM0 300L600 0Z" fill="black"/>
            <path d="M0 0L600 300M0 300L600 0" stroke="#C8102E" stroke-width="40"/>
        </g>
        <path d="M300 0V400ZM0 150H700Z" fill="black"/>
        <path d="M300 0V400M0 150H700" stroke="white" stroke-width="100"/>
        <path d="M300 0V400ZM0 150H700Z" fill="black"/>
        <path d="M300 0V400M0 150H700" stroke="#C8102E" stroke-width="60"/>
        <path id="1" d="M0 300H600V0H1200V600H0V300Z" fill="#EDEDF0"/>
        <path d="M778.797 143.938V349.027C778.797 416.107 899.997 455.938 899.997 455.938C899.997 455.938 1021.2 416.104 1021.2 349.027V143.938H778.797Z" fill="white"/>
        <path d="M883.197 216V308.344H778.797V341.944H883.197V449.544L899.997 455.94L916.797 449.544V341.944H1021.2V308.344H916.797V216H883.197Z" fill="#C8102E"/>
        <path d="M778.797 143.938H1021.2V223.137H778.797V143.938Z" fill="#C8102E"/>
        <path d="M798.225 203.174C805.748 203.174 811.848 198.266 811.848 192.212C811.848 186.158 805.748 181.25 798.225 181.25C790.701 181.25 784.602 186.158 784.602 192.212C784.602 198.266 790.701 203.174 798.225 203.174Z" fill="white" stroke="black" stroke-width="0.803" stroke-miterlimit="3"/>
        <path d="M798.223 192.644C804.914 192.644 810.337 189.903 810.337 186.521C810.337 183.14 804.914 180.398 798.223 180.398C791.533 180.398 786.109 183.14 786.109 186.521C786.109 189.903 791.533 192.644 798.223 192.644Z" fill="white" stroke="black" stroke-width="0.805" stroke-miterlimit="3"/>
        <path d="M798.223 204.887C804.914 204.887 810.337 202.145 810.337 198.764C810.337 195.382 804.914 192.641 798.223 192.641C791.533 192.641 786.109 195.382 786.109 198.764C786.109 202.145 791.533 204.887 798.223 204.887Z" fill="white" stroke="black" stroke-width="0.805" stroke-miterlimit="3"/>
        <path d="M798.223 198.332C804.914 198.332 810.337 195.591 810.337 192.209C810.337 188.827 804.914 186.086 798.223 186.086C791.533 186.086 786.109 188.827 786.109 192.209C786.109 195.591 791.533 198.332 798.223 198.332Z" fill="white" stroke="black" stroke-width="0.805" stroke-miterlimit="3"/>
        <path d="M1015.2 207.426L1013.21 201.95C1013.21 201.95 1007.78 199.734 1007.37 196.848C1006.4 189.154 1003.65 186.27 999.536 185.17C995.411 184.07 992.668 185.859 992.668 185.859C991.428 187.646 985.242 187.646 981.809 187.78C978.375 187.92 978.316 186.288 978.316 186.288C975.648 186.308 974.526 184.347 974.526 184.347C972.78 180.86 971.481 179.555 970.618 179.114C975.075 179.18 978.431 177.123 983.462 171.844C988.955 166.072 992.877 168.304 992.877 168.304C990.211 173.694 993.764 173.217 993.764 173.217C1001.04 169.511 994.724 160.166 992.527 160.579C990.329 160.989 989.702 159.509 989.702 159.509C989.769 161.187 987.262 161.854 987.262 161.854C989.142 151.18 982.773 148.35 982.773 148.35C981.809 149.312 981.257 151.234 981.257 151.234C979.474 157.692 973.567 156.731 966.967 153.569C960.375 150.411 942.788 156.869 937.295 159.066C931.795 161.265 921.767 164.7 912.699 159.616C903.635 154.529 901.43 155.492 897.86 156.456C894.286 157.416 887.972 158.931 885.638 157.691C883.3 156.455 880.636 156.378 880.636 156.378C881.272 156.023 880.278 154.532 880.278 154.532C877.531 150.824 880.636 148.551 880.636 148.551C880.636 148.551 875.521 149.991 877.556 158.72L878.49 160.029C878.49 160.029 879.175 162.775 880.69 163.6L880.636 164.201C880.636 164.201 881.929 163.601 882.336 165.385C882.754 167.17 884.676 165.523 885.5 164.013C885.5 164.013 884.124 171.983 894.02 173.905C894.02 173.905 892.913 172.667 893.327 171.843C893.737 171.019 892.093 170.326 892.232 169.093C892.368 167.861 889.762 167.311 891.818 166.345C893.876 165.383 894.844 163.459 899.238 166.07C903.632 168.681 907.072 168.134 907.072 168.134C907.072 168.134 904.391 162.632 905.868 162.635C907.345 162.637 913.991 170.865 917.262 170.458C920.534 170.055 926.855 166.345 930.016 167.718C930.016 167.718 930.287 166.07 942.376 164.008C954.468 161.947 969.382 155.921 974.975 161.201C974.975 161.201 975.629 165.383 977.962 166.484C977.962 166.484 977.544 175.138 962.577 170.326L957.147 168.898C957.147 168.898 956.313 166.269 927.843 173.591C927.843 173.591 926.168 174.176 925.068 175.003C923.966 175.823 922.454 174.589 916.821 176.648C911.193 178.713 890.167 185.583 877.257 183.108L877.24 183.142C874.396 182.292 871.732 182.732 871.624 182.283C871.484 181.733 873.137 182.423 873.137 182.423C872.177 181.321 871.763 181.232 871.763 181.232C860.908 180.042 862.827 175.138 862.827 175.138L863.38 176.65C865.167 174.316 862.688 168.82 862.688 168.82L862.583 168.838C862.557 168.67 862.524 168.503 862.483 168.338L863.38 167.718C868.602 163.321 874.649 162.496 874.649 162.496C871.074 158.102 863.515 160.438 863.515 160.438C863.655 155.08 861.457 148.896 861.457 148.896C854.034 149.721 849.779 155.902 849.779 155.902C849.504 150.408 842.495 147.25 842.495 147.25C845.103 150.408 843.459 157.964 843.459 157.964L843.733 158.102C843.299 158.091 843.045 158.102 843.045 158.102L842.889 159.722L842.632 159.614C842.632 159.614 840.024 160.574 837.002 167.444C837.002 167.444 836.697 169.067 835.528 170.531C835.518 170.341 835.538 170.171 835.515 169.972C835.515 169.972 832.139 174.395 824.339 169.972C824.339 169.972 813.741 163.684 810.016 163.917C806.291 164.149 803.842 165.896 804.079 166.943C804.079 166.943 795.575 166.243 792.666 171.133C792.666 171.133 786.263 173.462 791.736 178.703C791.736 178.703 792.469 180.98 794.062 182.2C794.062 182.2 793.836 177.416 794.995 178.822C794.995 178.822 795.297 179.294 795.869 179.624C796.021 180.294 796.535 182.158 797.673 183.107L798.493 182.847C798.617 181.654 798.875 180.147 799.14 179.513C799.265 179.53 799.365 179.545 799.41 179.548C799.374 179.583 799.34 179.603 799.306 179.635L800.819 181.964L802.564 181.033C803.381 180.913 804.427 181.733 804.427 181.733L806.407 180.101C806.395 180.083 806.383 180.08 806.371 180.061C808.321 180.387 808.854 176.607 808.854 176.607C810.606 177.067 812.244 176.552 813.639 175.707C814.489 178.841 821.43 182.203 821.43 182.203L821.729 182.177C821.141 182.553 820.792 182.835 820.792 182.835C823.95 185.037 829.859 184.486 829.859 184.486C827.389 185.45 827.734 190.023 827.734 190.023C826.29 190.616 826.149 192.041 826.149 192.041C830.959 193.961 834.244 192.371 834.244 192.371C834.508 193.936 834.119 194.103 834.119 194.103C832.197 198.223 831.372 202.208 831.372 202.208C831.414 202.226 831.463 202.235 831.504 202.25C831.445 202.358 831.372 202.462 831.327 202.574C831.327 202.574 822.943 205.484 819.217 209.56C819.217 209.56 818.867 208.394 817.818 208.394C816.771 208.394 813.51 205.719 811.996 205.251C810.486 204.788 808.271 205.719 807.688 205.021C807.161 204.386 807.398 199.616 806.39 198.847L806.409 198.851L805.36 195.941C804.662 197.453 801.752 197.102 801.752 197.102C801.636 197.172 801.189 197.498 800.555 197.971C799.975 198.002 799.306 197.801 799.306 197.801C799.007 197.863 798.712 198.701 798.495 199.517C798.378 199.603 798.26 199.693 798.142 199.783V198.966C797.562 199.431 796.397 198.733 795.929 198.733C795.701 198.733 795.419 199.4 795.19 200.085C794.006 200.305 792.436 200.364 792.436 200.364C791.97 200.597 792.317 204.206 792.317 204.206C788.943 206.071 790.571 208.863 790.571 208.863C792.435 217.946 807.921 213.87 809.086 215.037C810.248 216.203 812.929 216.432 814.326 216.432C815.721 216.432 817.466 219.81 819.448 220.159C821.429 220.509 819.448 217.482 828.631 215.289C837.809 213.095 840.87 209.33 840.87 209.33C843.745 208.776 844.545 205.281 844.76 203.87C844.788 204.52 844.864 205.24 844.969 206.06C845.383 209.221 843.199 210.372 843.199 210.372L851.154 207.984C854.311 207.159 853.9 204.409 853.9 204.409C856.922 213.066 862.42 213.615 862.42 213.615C863.518 210.317 863.383 209.355 863.383 209.355L865.855 209.22C865.955 207.356 864.31 205.994 863.358 205.36L867.228 207.708L868.736 207.433C868.736 208.807 870.798 210.041 870.798 210.041L871.076 208.259C872.863 210.594 876.159 209.769 876.159 209.769C876.088 209.336 875.991 208.907 875.868 208.485C882.908 212.831 894.154 207.296 894.154 207.296C897.175 207.983 897.588 206.196 897.588 206.196C901.022 206.606 901.819 204.259 901.819 204.259C909.902 203.559 915.591 197.813 915.591 197.813C919.571 197.538 919.701 194.691 919.701 194.691C919.701 194.691 923.692 195.479 927.541 190.669C936.469 177.894 949.821 184.545 949.821 184.545L942.101 185.034C921.907 184.898 930.279 198.632 930.279 198.632L931.524 198.5C933.447 198.911 940.039 204.133 937.609 208.022C937.57 208.09 937.518 208.152 937.473 208.215C933.356 213.851 925.731 208.475 923.558 203.72C921.358 198.913 916.959 200.013 916.959 200.013C916.959 200.013 905.559 201.937 910.229 211.004L910.399 211.009C910.485 213.222 911.874 215.743 915.941 218.249C918.225 221.48 925.735 221.817 931.251 220.622C933.817 220.062 947.363 214.238 947.363 214.238C948.356 211.288 951.723 211.968 954.743 207.709C957.763 203.45 950.483 201.937 948.836 199.604C947.185 197.265 949.25 197.679 949.25 197.679C955.842 201.252 956.391 189.847 956.391 189.847C957.081 196.44 962.849 198.227 962.849 198.227C966.423 194.659 963.816 187.375 963.816 187.375C972.335 202.625 977.494 200.197 977.494 200.197C972.907 197.357 975.216 193.557 975.216 193.557C979.333 209.768 996.238 195.619 996.238 195.619C995.414 197.951 996.242 199.324 997.751 200.836C999.261 202.348 1001.05 203.036 1000.23 205.784C999.4 208.531 991.574 207.984 991.574 207.984C991.574 207.984 983.876 207.573 984.567 214.03C984.97 215.539 990.057 216.088 991.981 215.678C991.981 215.678 991.187 215.851 994.031 216.231C994.984 216.353 996.135 216.374 997.306 216.335C1000.59 216.235 1004.08 215.678 1004.08 215.678C1008.47 214.719 1007.78 213.202 1007.78 213.202C1014.51 211.962 1015.2 207.427 1015.2 207.427L1015.2 207.426Z" fill="#FEDD00" stroke="black" stroke-width="1.2" stroke-miterlimit="3"/>
        <path d="M791.951 179.288C791.956 179.281 792.312 178.44 792.991 178.338C793.513 178.261 794.148 178.648 794.819 179.463L795.186 179.187C795.171 179.16 793.373 176.541 794.089 174.692C794.409 173.868 795.203 173.302 796.446 173.022L796.346 172.57C794.943 172.892 794.04 173.55 793.66 174.528C793.523 174.891 793.454 175.276 793.458 175.664C793.458 176.568 793.776 177.484 794.103 178.186C793.696 177.931 793.3 177.826 792.919 177.883C792.229 177.987 791.893 178.484 791.711 178.808L791.951 179.288ZM1004 215.273C999.407 216.001 992.669 216.405 992.133 215.016C992.039 214.769 992.023 213.778 995.781 211.331L995.343 210.658C992.207 212.7 990.945 214.176 991.383 215.304C992.345 217.804 1002.18 216.376 1004.15 216.063L1004 215.273ZM916.197 217.923C915.151 216.323 915.621 214.13 917.595 211.4L916.945 210.93C914.751 213.949 914.273 216.454 915.523 218.365L916.197 217.923Z" fill="black"/>
        <path d="M909.996 211.016C910.096 213.784 912.052 216.355 915.796 218.648L916.216 217.962C912.712 215.818 910.894 213.472 910.799 210.988C910.661 207.176 914.689 204.236 914.728 204.205L914.258 203.551C914.078 203.679 909.84 206.767 909.996 211.016ZM988.286 212.046C987.027 213.905 987.448 216.156 987.466 216.251L988.254 216.096C988.247 216.074 987.882 214.07 988.957 212.492C989.602 211.543 990.643 210.928 992.054 210.66L991.909 209.87C990.274 210.18 989.059 210.91 988.286 212.046ZM808.916 176.886L808.668 176.824L808.634 177.079C808.627 177.104 808.276 179.543 807.17 180.206C806.86 180.391 806.527 180.412 806.142 180.271L804.264 179.129C803.889 178.799 803.568 178.556 803.026 178.715C802.918 178.575 802.488 177.991 802.488 177.053C802.488 176.948 802.495 176.837 802.51 176.724C802.644 175.624 803.412 174.563 804.8 173.573L804.536 173.197C803.031 174.272 802.198 175.44 802.052 176.677C801.954 177.552 802.204 178.432 802.749 179.125L802.861 179.254L803.013 179.184C803.431 178.999 803.552 179.108 803.959 179.468L805.986 180.701C806.5 180.891 806.976 180.856 807.408 180.599C808.552 179.914 808.953 177.918 809.047 177.364C813.924 178.412 817.849 172.484 818.019 172.229L817.629 171.977C817.594 172.039 813.589 178.111 808.916 176.886Z" fill="black"/>
        <path d="M797.225 175.978C796.981 176.966 797.148 177.935 797.712 178.86C798.251 179.738 798.782 180.204 799.335 180.278C800.009 180.371 800.548 179.871 801.023 179.433C801.369 179.109 801.697 178.808 801.967 178.828L802.387 179.118L802.747 178.83L802 178.37C801.528 178.335 801.132 178.702 800.71 179.096C800.289 179.482 799.857 179.889 799.396 179.826C798.996 179.77 798.564 179.363 798.106 178.619C797.609 177.804 797.459 176.95 797.67 176.089C798.196 173.913 800.797 172.314 800.825 172.299L800.589 171.906C800.472 171.974 797.797 173.616 797.225 175.978ZM790.515 207.038C790.748 206.197 791.395 205.48 792.434 204.903C792.229 204.923 793.453 205.918 794.503 205.807L795.184 205.438C795.463 205.678 797.281 207.333 797.281 209.43C797.281 209.871 797.201 210.324 797.002 210.783L797.428 210.962C798.758 207.812 795.413 205.018 795.382 204.988L795.26 204.892L795.053 205.026L794.457 205.35C793.597 205.44 792.478 204.531 792.47 204.523C791.059 205.138 790.337 205.953 790.07 206.922L790.515 207.038ZM806.045 198.998C805.041 199.083 802.243 199.618 801.33 201.069C801 201.596 800.951 202.176 801.191 202.802L801.558 203.779C802.429 206.122 803.334 208.544 804.321 209.091L804.544 208.691C803.706 208.226 802.794 205.778 801.988 203.619L801.623 202.642C801.436 202.148 801.467 201.714 801.718 201.314C802.468 200.124 804.983 199.549 806.083 199.458C806.724 199.406 806.933 201.771 807.06 203.185L807.517 203.143C807.334 201.06 807.141 198.907 806.045 198.998Z" fill="black"/>
        <path d="M798.375 201.298C797.787 201.824 797.905 202.616 797.913 202.65C797.918 202.868 798.179 208.718 800.957 209.927L801.14 209.506C798.626 208.41 798.373 202.661 798.369 202.605C798.368 202.57 798.286 201.989 798.686 201.639C799.107 201.264 799.945 201.236 801.106 201.555L801.229 201.113C799.889 200.743 798.929 200.805 798.375 201.298Z" fill="black"/>
        <path d="M796.178 201.776C794.949 202.632 795 205.074 795.001 205.176L795.461 205.168C795.461 205.142 795.415 202.865 796.441 202.153C796.824 201.889 797.328 201.878 797.942 202.126L798.112 201.701C797.347 201.389 796.694 201.414 796.178 201.776Z" fill="black"/>
        <path d="M862.325 169.482C862.347 169.52 863.635 172.427 863.635 174.787C863.635 175.206 863.437 175.504 863.344 175.868C863.292 175.733 862.844 174.502 862.844 174.502L862.454 175.489C862.437 175.544 861.929 176.873 862.836 178.372C864.036 180.349 867.023 181.615 871.72 182.13H871.718C871.718 182.134 871.777 182.185 871.784 182.195C871.589 182.221 871.443 182.275 871.399 182.317L871.21 182.477L871.235 182.877C871.357 183.365 871.913 183.389 873.019 183.431C873.206 183.441 873.509 183.486 873.724 183.497C873.999 183.574 874.281 183.65 874.281 183.65L874.187 183.542C875.257 183.616 876.461 183.88 877.768 184.368C877.479 184.444 876.773 184.62 876.773 184.62L877.935 185.078C878.023 185.113 886.583 188.552 890.126 191.381C889.12 192.253 884.826 195.461 877.39 193.628L876.144 193.322L876.989 194.287C877.041 194.345 881.885 199.901 882.889 203.27C881.202 203.287 874.704 203.228 872.434 201.299L871.846 201.834C871.876 201.884 874.961 206.41 875.65 209.939C874.766 210.055 872.65 210.142 871.398 208.506L870.821 207.755L870.508 209.792C869.903 209.336 869.141 208.655 869.141 207.925V207.445L867.308 207.778L863.543 205.495C863.347 205.365 863.145 205.243 862.938 205.13C862.934 205.126 862.903 205.108 862.903 205.108L862.876 205.092L862.486 205.798C862.486 205.798 862.934 206.065 863.063 206.146C863.869 206.671 865.249 207.816 865.388 209.334C864.793 209.369 862.94 209.47 862.94 209.47L862.986 209.896V209.963C862.986 210.215 862.906 211.267 862.138 213.642C860.98 213.366 856.768 211.898 854.28 204.768L853.505 204.96C853.509 204.98 853.518 205.074 853.518 205.225C853.518 205.875 853.288 207.504 851.053 208.085C851.04 208.089 846.903 209.333 844.601 210.022C845.031 209.406 845.425 208.562 845.425 207.337C845.425 207.077 845.408 206.797 845.374 206.5C845.234 205.464 845.15 204.601 845.15 203.881C845.15 202.38 845.519 201.486 846.556 200.85L846.194 200.134C846.097 200.172 836.576 203.954 831.855 202.384C832.071 201.462 832.871 198.222 834.483 194.768L834.275 194.966C834.585 194.834 834.9 194.351 834.639 192.8L834.553 192.272L834.069 192.505C834.039 192.52 831.017 193.868 826.652 192.269C826.741 191.911 826.972 191.268 827.887 190.889L828.155 190.781L828.129 190.489C828.129 190.479 828.119 190.276 828.119 189.958C828.119 188.779 828.303 186.018 829.999 185.356L829.819 184.579C829.764 184.586 824.658 184.994 821.562 183.272C822.374 182.712 824.081 181.68 826.067 181.394L826.385 181.349L826.407 181.031C826.411 181.015 826.418 180.921 826.418 180.771C826.418 180.368 826.262 179.552 825.907 178.731C827.085 179.059 828.497 179.356 828.998 178.98L829.168 178.852L829.022 175.753L828.219 175.792L828.342 178.354C827.838 178.381 826.554 178.124 825.307 177.728L824.073 177.336L824.868 178.36C825.513 179.189 825.595 180.218 825.605 180.691C822.815 181.21 820.629 182.942 820.535 183.021L820.125 183.358L820.56 183.661C822.96 185.333 826.713 185.478 828.64 185.436C827.504 186.716 827.312 188.857 827.312 189.928C827.312 190.148 827.319 190.206 827.323 190.314C825.96 191.05 825.755 192.432 825.746 192.496L825.716 192.796L825.998 192.912C830.123 194.556 832.939 193.762 833.895 193.409C833.902 193.537 833.93 193.711 833.93 193.802C833.93 194.18 833.86 194.296 833.86 194.296C831.834 198.544 830.985 202.582 830.975 202.62L830.909 202.954L831.222 203.078C835.05 204.608 841.927 202.519 844.972 201.444C844.573 202.133 844.34 202.908 844.34 203.873C844.34 204.682 844.438 205.591 844.573 206.604C844.608 206.861 844.623 207.098 844.623 207.328C844.623 209.608 843.082 210.47 843.008 210.508L843.314 211.249L851.269 208.86C853.109 208.382 853.8 207.295 854.093 206.371C857.232 213.815 862.159 214.486 862.378 214.511L862.698 214.538L862.798 214.236C863.564 211.949 863.741 210.787 863.776 210.226C864.597 210.185 865.417 210.141 866.238 210.095L866.258 209.734C866.262 209.671 866.262 209.611 866.262 209.552C866.262 208.894 866.057 208.312 865.772 207.788C866.27 208.088 867.149 208.622 867.149 208.622L868.467 208.382C868.811 209.712 870.39 210.756 870.594 210.881L871.106 211.188C871.106 211.188 871.294 209.976 871.373 209.448C873.338 211.206 876.126 210.683 876.258 210.65L876.61 210.56L876.558 210.203C876.158 207.515 874.354 204.317 873.293 202.607C876.784 204.194 883.143 204.078 883.456 204.068L883.93 204.052L883.837 203.587C883.273 200.762 879.743 196.315 878.267 194.547C886.468 196.088 890.873 191.833 891.062 191.64L891.35 191.334L891.033 191.056C888.276 188.654 881.921 185.866 879.368 184.799L880.262 184.573L879.379 184.079C877.244 182.879 874.981 182.73 873.451 182.664L873.444 182.652C872.474 181.541 871.98 181.363 871.855 181.336C866.309 180.724 864.276 179.17 863.538 177.97C863.476 177.871 863.507 177.804 863.461 177.708C863.581 177.548 863.705 177.39 863.705 177.39C864.24 176.693 864.431 175.76 864.431 174.773C864.431 172.226 863.137 169.316 863.064 169.148L862.325 169.482Z" fill="black"/>
        <path d="M836.795 167.856C836.778 167.936 836.187 170.975 833.599 172.399C831.652 173.469 829.079 173.381 825.96 172.133L825.609 171.993L825.646 172.369C825.654 172.447 825.859 174.233 827.543 175.541C828.945 176.633 830.951 177.016 833.465 176.741C832.624 177.739 829.921 181.193 829.921 184.543C829.921 184.72 829.932 184.897 829.949 185.071C830.293 185.318 834.529 186.466 836.493 183.955C836.563 185.032 836.872 188.477 838.217 189.825C838.954 190.558 839.127 191.629 839.127 192.485C839.127 193.256 838.981 193.852 838.981 193.864L838.829 194.477L839.34 194.105C839.503 193.986 843.397 191.134 844.642 187.398C844.638 187.408 845.265 186.461 846.467 186.073C846.442 186.236 846.421 186.403 846.421 186.636C846.421 188.08 847.054 190.7 851.257 192.307L851.602 192.439L851.571 192.072C851.55 191.831 851.54 191.589 851.543 191.346C851.543 190.291 851.689 188.353 852.693 187.349C853.355 186.689 853.553 185.945 853.553 185.3C853.553 184.793 853.441 184.382 853.327 184.08C854.176 184.295 856.182 184.942 856.999 186.47C858.185 188.693 862.337 186.924 862.515 186.85L862.372 186.413C862.355 186.417 860.626 186.804 859.535 186.055C859.055 185.725 858.767 185.218 858.666 184.545L858.474 182.235C858.432 181.188 858.287 180.523 857.761 179.964C858.311 179.914 859.413 179.933 859.879 180.964C860.613 182.581 863.13 182.738 863.235 182.747L864.096 182.792L863.373 182.324C863.349 182.31 861.175 180.868 861.551 178.988L861.864 177.612C862.459 175.132 863.449 170.98 862.643 168.431L862.205 168.571C862.405 169.207 862.487 169.961 862.487 170.767C862.487 173.027 861.847 175.711 861.415 177.505L861.099 178.9C861.063 179.077 861.046 179.258 861.047 179.438C861.047 180.655 861.837 181.584 862.452 182.143C861.712 181.983 860.686 181.631 860.301 180.773C859.696 179.447 858.072 179.386 857.297 179.543L856.755 179.652L857.217 179.959C857.947 180.446 857.967 181.013 858.019 182.252L858.214 184.61C858.329 185.414 858.687 186.029 859.274 186.434C859.789 186.784 860.391 186.834 860.94 186.874C859.707 187.195 858.016 187.396 857.409 186.254C856.264 184.122 853.117 183.552 852.985 183.527L852.505 183.444L852.745 183.865C852.771 183.911 853.103 184.517 853.103 185.287C853.103 185.833 852.936 186.458 852.37 187.022C851.254 188.148 851.083 190.189 851.083 191.318C851.083 191.539 851.094 191.57 851.098 191.705C847.503 190.194 846.867 187.956 846.867 186.689C846.867 186.15 846.971 185.791 846.985 185.744L847.09 185.39L846.725 185.452C844.979 185.74 844.253 187.162 844.222 187.222C843.223 190.213 840.512 192.581 839.531 193.37C839.573 193.074 839.595 192.775 839.597 192.475C839.597 191.54 839.395 190.349 838.547 189.499C837.117 188.07 836.923 183.526 836.923 183.48L836.893 182.66L836.493 183.372C834.911 186.205 830.293 184.844 830.248 184.832C830.053 181.252 834.114 176.672 834.156 176.626L834.581 176.154L833.955 176.246C831.303 176.63 829.243 176.276 827.832 175.186C827.023 174.558 826.445 173.679 826.188 172.687C829.264 173.833 831.844 173.897 833.83 172.8C836.604 171.266 837.213 168.125 837.237 167.993C840.15 161.387 842.695 160.344 842.723 160.337L842.563 159.906C842.448 159.946 839.823 160.979 836.795 167.856Z" fill="black"/>
        <path d="M843.449 158.064L843.255 158.071L840.891 161.311L841.593 161.381C854.422 162.629 861.206 170.369 861.272 170.449L861.568 170.793L863.894 168.266L863.724 168.006C857.218 157.762 843.588 158.059 843.449 158.064ZM843.669 158.868C845.254 158.872 856.939 159.233 862.858 168.199C862.568 168.512 861.923 169.218 861.578 169.596C860.191 168.158 853.616 162.014 842.341 160.69C842.778 160.088 843.505 159.091 843.669 158.868Z" fill="black"/>
        <path d="M841.595 164.834C840.499 166.329 839.481 168.541 839.481 169.576C839.481 169.774 839.519 169.93 839.603 170.029C839.61 170.039 839.649 170.042 839.662 170.058C838.326 171.255 837.531 173.254 837.531 175.514C837.531 176.757 837.751 178.052 838.212 179.287L838.469 179.982C839.728 183.406 840.813 186.366 846.257 184.623C851.501 182.948 851.707 182.612 853.027 180.434L853.372 179.87C854.092 178.7 854.878 178.466 855.715 178.218C856.714 177.918 857.749 177.61 858.657 175.818L859.54 174.494C860.493 173.181 861.682 171.554 861.825 169.471L861.365 169.44C861.233 171.39 860.085 172.958 859.168 174.22L858.246 175.608C857.426 177.224 856.531 177.492 855.582 177.775C854.699 178.038 853.792 178.309 852.978 179.628L852.63 180.194C851.36 182.29 851.199 182.56 846.118 184.188C841.091 185.794 840.172 183.288 838.9 179.824L838.643 179.122C837.21 175.304 838.33 171.453 840.193 170.073L840.833 169.598C840.833 169.598 840.04 169.687 839.946 169.698C839.936 169.66 839.926 169.627 839.926 169.567C839.926 168.943 840.607 166.956 841.963 165.103C843.121 163.525 845.853 161.961 845.883 161.946L845.653 161.547C845.538 161.616 842.808 163.177 841.595 164.834Z" fill="black"/>
        <path d="M839.154 178.641C840.054 179.265 841.32 179.221 842.846 178.641C842.853 179.185 842.975 180.341 843.924 181.179C845.04 182.167 846.889 182.357 849.424 181.753L849.316 181.307C846.941 181.874 845.227 181.714 844.229 180.838C843.157 179.893 843.307 178.388 843.311 178.375L843.353 177.981L842.988 178.136C841.451 178.798 840.248 178.838 839.413 178.261C837.918 177.221 838.03 174.506 838.033 174.475L837.573 174.453C837.572 174.577 837.446 177.455 839.154 178.641Z" fill="black"/>
        <path d="M842.065 174.987C841.409 175.143 841.238 175.693 841.238 176.117C841.238 176.219 841.249 176.314 841.262 176.396C841.377 177.578 842.66 178.365 843.825 178.702C844.958 179.03 846.353 179.052 846.902 178.346C847.122 178.064 847.282 177.556 846.802 176.736C845.052 173.759 842.221 174.925 842.065 174.987ZM843.953 178.258C842.933 177.967 841.811 177.305 841.721 176.325C841.699 176.231 841.589 175.573 842.169 175.435L842.215 175.42C842.319 175.373 844.826 174.284 846.405 176.97C846.686 177.45 846.732 177.815 846.537 178.063C846.199 178.503 845.083 178.589 843.953 178.258ZM842.019 175.004C842.023 175 842.065 174.986 842.065 174.986L842.019 175.004ZM843.645 180.977C843.35 183.491 843.53 183.551 843.711 183.607L843.871 183.657L844.051 183.445L845.507 181.525L843.679 180.659L843.645 180.977ZM844.066 181.353L844.803 181.701C844.605 181.954 844.237 182.445 843.958 182.811C843.965 182.433 844.011 181.899 844.066 181.353ZM839.855 178.957L839.758 181.333L841.753 178.92L839.866 178.711L839.855 178.957ZM840.304 179.223L840.856 179.283C840.661 179.516 840.532 179.675 840.271 179.989C840.291 179.619 840.298 179.414 840.304 179.223Z" fill="black"/>
        <path d="M838.525 178.194C838.542 178.225 840.009 181.094 840.27 182.141C840.437 182.806 841.285 183.563 842.297 183.938C843.305 184.318 844.25 184.256 844.956 183.764L846.281 182.663C846.722 182.238 846.869 182.119 847.226 182.18L847.303 181.727C846.702 181.626 846.409 181.906 845.963 182.33L844.694 183.388C843.912 183.934 842.955 183.701 842.455 183.508C841.509 183.158 840.825 182.48 840.713 182.028C840.438 180.934 838.992 178.108 838.933 177.988L838.525 178.194ZM840.435 169.594C838.815 170.342 838.13 172.307 838.102 172.39L838.537 172.541C838.544 172.522 839.191 170.671 840.629 170.011C841.331 169.689 842.117 169.7 842.973 170.036L843.143 169.611C842.17 169.218 841.259 169.215 840.435 169.594ZM851.325 174.754C851.453 174.85 854.513 177.168 852.755 179.997L853.145 180.24C855.129 177.052 851.631 174.41 851.6 174.382L851.325 174.754ZM842.125 175.204C842.125 175.204 841.649 176.934 844.082 177.544C844.082 177.544 841.794 177.524 841.649 176.934C841.495 176.343 841.662 175.034 842.125 175.204ZM849.565 177.274C849.565 177.424 849.443 177.548 849.294 177.548C849.222 177.546 849.153 177.517 849.102 177.466C849.051 177.415 849.023 177.346 849.023 177.274C849.023 177.126 849.147 177.003 849.293 177.003C849.443 177.003 849.565 177.126 849.565 177.274ZM849.835 178.354C849.835 178.504 849.713 178.629 849.564 178.629C849.415 178.629 849.296 178.504 849.296 178.354C849.296 178.208 849.415 178.084 849.564 178.084C849.713 178.084 849.835 178.209 849.835 178.354Z" fill="black"/>
        <path d="M848.004 178.087C848.154 178.087 848.274 177.966 848.274 177.817C848.274 177.668 848.154 177.547 848.004 177.547C847.855 177.547 847.734 177.668 847.734 177.817C847.734 177.966 847.855 178.087 848.004 178.087Z" fill="black"/>
        <path d="M848.748 179.443C848.743 179.511 848.713 179.576 848.663 179.623C848.613 179.67 848.547 179.696 848.478 179.696C848.409 179.696 848.343 179.67 848.293 179.623C848.243 179.576 848.213 179.511 848.209 179.443C848.209 179.292 848.332 179.168 848.477 179.168C848.626 179.168 848.748 179.291 848.748 179.443ZM841.648 172.123C841.648 172.195 841.619 172.264 841.568 172.316C841.516 172.367 841.447 172.396 841.375 172.396C841.302 172.396 841.233 172.367 841.182 172.316C841.13 172.264 841.102 172.195 841.102 172.123C841.102 171.977 841.227 171.852 841.373 171.852C841.527 171.852 841.648 171.977 841.648 172.123Z" fill="black"/>
        <path d="M841.645 173.485C841.794 173.485 841.915 173.364 841.915 173.215C841.915 173.066 841.794 172.945 841.645 172.945C841.496 172.945 841.375 173.066 841.375 173.215C841.375 173.364 841.496 173.485 841.645 173.485Z" fill="black"/>
        <path d="M840.083 172.946C840.232 172.946 840.352 172.825 840.352 172.676C840.352 172.527 840.232 172.406 840.083 172.406C839.933 172.406 839.812 172.527 839.812 172.676C839.812 172.825 839.933 172.946 840.083 172.946Z" fill="black"/>
        <path d="M840.821 174.297C840.82 174.369 840.791 174.438 840.739 174.489C840.688 174.539 840.619 174.568 840.546 174.568C840.474 174.568 840.405 174.539 840.353 174.488C840.302 174.437 840.273 174.368 840.273 174.295C840.273 174.223 840.302 174.153 840.353 174.102C840.405 174.051 840.474 174.022 840.546 174.022C840.619 174.023 840.689 174.052 840.74 174.104C840.791 174.155 840.821 174.225 840.821 174.297ZM845.561 164.747C845.561 164.747 849.079 166.912 845.693 170.975C845.693 170.975 847.359 169.738 847.529 167.613C847.707 165.49 846.322 163.797 845.561 164.747ZM859.061 170.587C857.928 171.169 856.297 170.091 855.481 169.073C854.667 168.053 852.981 167.793 851.931 169.653C850.883 171.517 849.371 172.215 849.371 172.215C849.371 172.215 850.848 171.343 852.369 169.712C853.881 168.085 854.754 169.392 856.239 170.178C857.724 170.964 857.956 171.137 859.002 170.73L859.061 170.587Z" fill="black"/>
        <path d="M858.774 170.853C858.311 171.201 857.462 171.493 856.562 170.763C855.662 170.036 854.904 169.048 853.77 169.629C852.632 170.213 850.477 171.841 850.477 171.841C850.477 171.841 853.972 169.424 854.642 169.949C855.31 170.475 856.885 171.754 857.844 171.379C858.805 170.996 858.774 170.853 858.774 170.853Z" fill="black"/>
        <path d="M856.099 172.331C854.994 171.487 853.887 173.321 852.956 173.092C852.025 172.855 851.266 171.312 851.266 171.312C851.266 171.312 852.143 172.943 853.363 172.564C854.587 172.187 855.432 171.43 856.187 172.01C856.944 172.595 856.099 172.331 856.099 172.331Z" fill="black"/>
        <path d="M854.368 172.561C852.185 172.787 851.969 170.748 851.969 170.727C851.969 170.727 852.658 172.507 854.588 172.184L854.368 172.561Z" fill="black"/>
        <path d="M854.299 171.172C854.442 171.724 854.411 171.975 853.826 171.975C853.238 171.975 852.839 171.779 852.839 171.209C852.839 170.638 854.213 170.817 854.299 171.172ZM846.459 168.142C846.459 168.522 846.146 168.827 845.759 168.827C845.372 168.827 845.297 168.567 845.297 168.191C845.297 167.815 845.373 167.461 845.759 167.461C846.145 167.461 846.459 167.768 846.459 168.142Z" fill="black"/>
        <path d="M844.048 165.703C844.048 165.703 847.788 165.743 845.936 170.423C845.936 170.423 847.361 168.093 846.467 166.417C845.57 164.743 844.162 165.165 844.162 165.165C844.162 165.165 843.819 165.482 844.048 165.703Z" fill="black"/>
        <path d="M843.938 167.573C843.928 168.511 844.554 169.48 845.794 170.449L846.08 170.089C844.957 169.213 844.39 168.369 844.398 167.583C844.405 166.797 845.01 166.33 845.017 166.323L844.742 165.953C844.71 165.979 843.952 166.557 843.938 167.573Z" fill="black"/>
        <path d="M844.766 168.367C844.926 168.906 845.343 169.313 846.01 169.579L846.18 169.154C845.653 168.944 845.325 168.636 845.208 168.241C844.971 167.445 845.611 166.517 845.618 166.509L845.246 166.242C845.21 166.29 844.467 167.362 844.766 168.367ZM849.896 170.967C849.896 170.967 850.592 172.479 849.576 174.11C848.556 175.74 848.584 175.654 848.584 175.654C848.584 175.654 849.808 173.413 849.343 172.479C848.881 171.548 849.896 170.967 849.896 170.967ZM864.446 186.757C868.288 187.481 876.956 194.277 877.046 194.347L877.544 193.711C877.179 193.429 868.629 186.726 864.596 185.967L864.446 186.757ZM867.856 196.347C868.113 199.757 871.823 201.875 871.983 201.961L872.375 201.261C872.337 201.243 868.885 199.265 868.655 196.286L867.856 196.347ZM858.646 197.057C858.646 200.881 862.23 205.507 862.384 205.704L863.016 205.207C862.982 205.164 859.449 200.605 859.449 197.057H858.646ZM846.496 197.487C847.128 198.749 847.062 199.389 846.899 199.702C846.709 200.055 846.319 200.109 846.305 200.112L846.399 200.913C846.694 200.878 847.286 200.673 847.599 200.097C847.982 199.397 847.852 198.397 847.216 197.133L846.496 197.487Z" fill="black"/>
        <path d="M791.852 178.624C791.852 178.624 792.085 181.184 794.064 182.703C794.064 182.703 793.831 179.903 794.414 178.743C794.414 178.743 793.368 177.578 791.852 178.624ZM795.802 180.254C795.802 180.254 796.27 182.58 797.667 183.63L798.487 183.397C798.487 183.397 798.834 180.483 799.3 180.135C799.766 179.788 797.321 181.183 795.802 180.254Z" fill="white" stroke="black" stroke-width="0.36" stroke-miterlimit="3"/>
        <path d="M799.305 180.133L800.818 182.463L802.563 181.531L802.215 178.739C802.215 178.739 801.169 178.502 799.305 180.133Z" fill="white" stroke="black" stroke-width="0.36" stroke-miterlimit="3"/>
        <path d="M806.402 180.606L804.422 182.236C804.422 182.236 803.376 181.42 802.558 181.537L802.91 178.975C802.91 178.975 804.307 177.928 806.402 180.606ZM792.312 204.706C792.312 204.706 791.964 201.096 792.431 200.864C792.431 200.864 793.825 201.329 794.408 200.744C794.408 200.744 795.224 203.658 794.99 204.822C794.759 205.985 793.362 205.523 792.312 204.706ZM801.282 200.976C801.282 200.976 801.167 197.948 801.748 197.596C801.748 197.596 804.658 197.947 805.356 196.436L806.405 199.346C806.405 199.346 803.145 198.995 801.282 200.976Z" fill="white" stroke="black" stroke-width="0.36" stroke-miterlimit="3"/>
        <path d="M798.138 201.552C798.138 201.552 798.718 198.409 799.303 198.292C799.303 198.292 800.816 198.757 801.282 198.172L801.167 202.019C801.167 202.018 801.282 200.387 798.138 201.552ZM794.758 202.022C794.758 202.022 795.456 199.227 795.923 199.227C796.391 199.227 797.555 199.926 798.136 199.46V201.556C798.136 201.556 795.57 200.976 795.225 204.466L794.758 202.022Z" fill="white" stroke="black" stroke-width="0.35" stroke-miterlimit="3"/>
        <path d="M840.153 259.996C840.153 259.996 848.067 267.346 845.998 273.754C845.998 273.754 851.085 262.822 845.623 259.617C840.153 256.414 839.966 258.869 840.153 259.997V259.996Z" fill="#00AD50" stroke="black" stroke-width="0.78" stroke-miterlimit="4.8"/>
        <path d="M830.165 267.142C830.165 267.142 828.095 269.975 830.353 272.048C830.353 272.048 827.905 275.622 829.793 278.643C829.793 278.643 828.283 281.846 828.66 285.239C828.66 285.239 827.339 290.514 830.165 292.969C830.165 292.969 833.183 294.477 834.505 293.157C834.505 293.157 837.141 289.2 835.443 285.048C835.443 285.048 837.328 281.658 835.255 277.323C835.255 277.323 835.822 274.873 834.125 272.049C834.125 272.049 835.255 270.161 834.311 268.655C834.311 268.655 830.544 264.694 830.165 267.142Z" fill="#862633" stroke="black" stroke-width="0.78" stroke-miterlimit="4.8"/>
        <path d="M832.422 257.914C832.422 257.914 823 239.824 816.402 239.066C809.804 238.311 809.43 231.906 809.43 231.906C809.43 231.906 810.182 234.921 815.461 234.921C820.739 234.921 830.917 242.27 832.046 247.924C833.176 253.577 834.309 252.826 834.309 252.826L832.422 257.914Z" fill="#00AD50" stroke="black" stroke-width="0.78" stroke-miterlimit="4.8"/>
        <path d="M832.428 256.591C832.428 256.591 835.822 233.786 850.714 233.407C865.599 233.027 860.703 234.537 864.281 232.086C864.281 232.086 854.296 237.367 848.073 238.118C841.856 238.872 836.765 250.93 836.954 253.198C837.141 255.457 833.563 259.794 831.866 258.288C830.169 256.779 832.429 256.591 832.429 256.591H832.428Z" fill="#00AD50" stroke="black" stroke-width="0.78" stroke-miterlimit="4.8"/>
        <path d="M835.812 265.087C835.812 265.087 839.203 256.04 845.047 259.058C845.047 259.058 840.521 250.385 832.418 257.924C832.418 257.924 836 262.824 835.812 265.087ZM824.502 256.027C824.502 256.027 829.404 276.197 821.863 282.414C821.863 282.414 822.05 272.053 817.528 265.832C813.008 259.609 822.05 252.829 824.502 256.027Z" fill="#00AD50" stroke="black" stroke-width="0.78" stroke-miterlimit="4.8"/>
        <path d="M825.071 259.614C825.071 259.614 833.931 268.098 834.498 270.924C835.065 273.751 837.135 262.444 832.99 259.242C828.843 256.033 824.32 255.469 824.32 255.469L825.071 259.614Z" fill="#00AD50" stroke="black" stroke-width="0.78" stroke-miterlimit="4.8"/>
        <path d="M808.734 281.846C808.734 281.846 809.537 285.406 811.722 286.096C811.722 286.096 811.835 288.741 813.79 289.544C813.79 289.544 812.753 291.728 814.48 293.104C814.48 293.104 814.133 297.471 815.743 298.393C815.743 298.393 819.654 298.163 821.028 297.013C821.028 297.013 821.834 294.145 819.654 291.266C819.654 291.266 819.994 288.508 817.811 287.016C817.811 287.016 818.501 283.336 815.742 281.959C815.742 281.959 815.285 278.969 813.558 277.477C813.559 277.476 810.228 282.187 808.734 281.846Z" fill="#862633" stroke="black" stroke-width="0.78" stroke-miterlimit="4.8"/>
        <path d="M813.097 277.475C813.097 277.475 801.491 273.223 795.055 279.315C795.055 279.315 804.935 280.695 806.202 282.648C807.466 284.598 813.554 279.432 813.097 277.475Z" fill="#00AD50" stroke="black" stroke-width="0.78" stroke-miterlimit="4.8"/>
        <path d="M809.535 284.713C809.535 284.713 808.617 283.91 807.469 283.103C806.319 282.301 796.553 279.657 795.169 289.08C795.169 289.08 791.606 279.773 796.778 278.507C801.953 277.241 806.09 280.231 809.535 284.713ZM801.895 265.453C801.895 265.453 805.472 273.179 806.795 273.561C808.113 273.933 809.055 272.619 809.055 272.619C809.055 272.619 804.345 265.645 801.895 265.453ZM799.255 253.583C799.255 253.583 796.237 243.595 792.659 246.233C789.078 248.872 790.019 256.031 790.019 256.031C790.019 256.031 782.857 248.685 787.002 242.839C791.154 236.997 799.255 243.405 799.255 253.583Z" fill="#00AD50" stroke="black" stroke-width="0.78" stroke-miterlimit="4.8"/>
        <path d="M807.367 274.123C807.367 274.123 807.367 276.008 808.687 276.571C810.007 277.137 812.457 278.076 812.457 276.951C812.457 275.82 810.573 271.484 809.815 272.051C809.06 272.618 807.746 272.611 807.367 274.123Z" fill="#862633" stroke="black" stroke-width="0.78" stroke-miterlimit="4.8"/>
        <path d="M805.107 262.447C805.107 262.447 804.73 253.779 810.381 250.571C810.381 250.571 811.515 250.765 812.081 249.07C812.081 249.07 807.553 259.997 808.874 265.463L808.687 266.218" fill="#00AD50"/>
        <path d="M805.107 262.447C805.107 262.447 804.73 253.779 810.381 250.571C810.381 250.571 811.515 250.765 812.081 249.07C812.081 249.07 807.553 259.997 808.874 265.463L808.687 266.218" stroke="black" stroke-width="0.78" stroke-miterlimit="4.8"/>
        <path d="M806.234 251.886C806.234 251.886 816.411 230.774 828.852 238.124C828.852 238.124 815.848 240.764 811.138 250L806.423 256.967L806.235 251.885L806.234 251.886Z" fill="#00AD50" stroke="black" stroke-width="0.78" stroke-miterlimit="4.8"/>
        <path d="M800.762 259.611C800.762 259.611 797.745 245.477 795.862 243.595C793.975 241.709 790.771 239.636 787 242.839C787 242.839 793.6 236.994 800.572 241.897C807.543 246.797 806.036 254.525 806.036 254.525L805.285 264.327L800.572 259.991" fill="#00AD50"/>
        <path d="M800.762 259.611C800.762 259.611 797.745 245.477 795.862 243.595C793.975 241.709 790.771 239.636 787 242.839C787 242.839 793.6 236.994 800.572 241.897C807.543 246.797 806.036 254.525 806.036 254.525L805.285 264.327L800.572 259.991" stroke="black" stroke-width="0.78" stroke-miterlimit="4.8"/>
        <path d="M811.696 276.388C811.696 276.388 799.256 252.836 791.154 269.608C791.154 269.608 789.642 273.94 791.338 275.633C791.338 275.633 786.814 272.243 788.888 263.951C790.958 255.661 804.716 259.427 808.678 266.214C812.635 272.998 813.768 276.394 813.202 276.766C812.635 277.146 811.695 276.388 811.695 276.388H811.696ZM846.756 283.178C846.756 283.178 855.806 264.518 861.08 272.998C861.08 272.998 862.586 277.143 860.323 278.843C860.323 278.843 856.746 274.508 853.543 279.785C850.338 285.06 851.658 284.687 851.658 284.687C851.658 284.687 848.264 285.629 846.756 283.177V283.178Z" fill="#00AD50" stroke="black" stroke-width="0.78" stroke-miterlimit="4.8"/>
        <path d="M860.312 278.833C860.312 278.833 865.212 281.468 863.521 286.746C863.521 286.746 870.113 274.121 861.07 272.988C861.071 272.988 862.767 276.948 860.312 278.833ZM860.883 266.023C860.883 266.023 872.759 269.414 873.135 274.508C873.135 274.508 875.211 264.703 868.424 261.688C868.424 261.689 860.317 263.009 860.883 266.023Z" fill="#00AD50" stroke="black" stroke-width="0.78" stroke-miterlimit="4.8"/>
        <path d="M866.165 250.372C871.255 240.383 877.663 253.576 877.663 253.576C877.663 253.576 879.923 243.212 873.518 241.324C867.107 239.44 862.962 263.374 862.962 263.374L855.422 265.071C855.422 265.071 857.496 244.154 868.803 242.266L870.121 242.456" fill="#00AD50"/>
        <path d="M866.165 250.372C871.255 240.383 877.663 253.576 877.663 253.576C877.663 253.576 879.923 243.212 873.518 241.324C867.107 239.44 862.962 263.374 862.962 263.374L855.422 265.071C855.422 265.071 857.496 244.154 868.803 242.266L870.121 242.456" stroke="black" stroke-width="0.78" stroke-miterlimit="4.8"/>
        <path d="M857.113 256.404C857.113 256.404 849.953 241.704 845.052 240.198C840.15 238.69 847.694 236.428 850.709 239.254C853.719 242.078 859.374 245.662 858.81 253.202L857.113 256.404ZM849.763 276.574C849.763 276.574 851.835 266.589 857.489 263.571C863.142 260.553 868.421 261.687 868.421 261.687C868.421 261.687 861.633 263.192 860.507 266.589C859.374 269.979 857.489 270.166 857.489 270.166L849.763 276.574Z" fill="#00AD50" stroke="black" stroke-width="0.78" stroke-miterlimit="4.8"/>
        <path d="M846.758 283.172C846.758 283.172 843.555 289.204 844.306 290.144C844.306 290.144 840.916 295.044 842.234 297.494C842.234 297.494 845.628 300.133 847.136 299C847.136 299 851.089 293.538 849.96 290.52C849.96 290.52 852.598 286.942 851.66 284.682C851.66 284.682 847.704 284.869 846.758 283.172Z" fill="#862633" stroke="black" stroke-width="0.78" stroke-miterlimit="4.8"/>
        <path d="M830.173 272.402C830.385 272.51 832.289 273.435 833.569 273.008L834.485 272.224L833.765 271.867C833.295 272.798 831.223 272.03 830.531 271.688L830.173 272.402ZM829.863 278.253L829.707 279.042C829.869 279.072 833.693 279.813 835.517 278.193L834.982 277.594C833.458 278.947 829.902 278.264 829.863 278.253ZM828.893 284.913L828.421 285.562C828.467 285.598 832.911 288.762 835.755 285.306L835.132 284.794C832.77 287.662 829.052 285.028 828.893 284.913ZM811.633 285.872L811.8 286.302C811.96 286.237 815.725 284.725 815.964 281.971L815.507 281.93C815.292 284.402 811.669 285.858 811.633 285.872ZM813.763 289.312L813.795 289.771C813.942 289.761 817.418 289.5 818.025 287.07L817.577 286.954C817.053 289.061 813.797 289.308 813.763 289.312ZM814.483 292.872L814.458 293.335C814.625 293.342 818.518 293.544 819.84 291.387L819.447 291.143C818.267 293.07 814.521 292.876 814.483 292.872ZM844.013 290.432C844.083 290.505 845.761 292.164 847.723 292.09C848.683 292.056 849.534 291.615 850.253 290.788L849.645 290.259C849.078 290.912 848.421 291.26 847.697 291.288C846.091 291.346 844.593 289.88 844.578 289.862L844.013 290.432Z" fill="black"/>
        <path d="M961.056 304.218C960.826 304.306 960.619 304.443 960.448 304.621L961.056 304.218ZM974.916 300.748C974.782 300.404 974.694 300.548 974.516 300.396C974.263 300.188 974.116 299.52 973.894 299.271C973.762 299.118 973.609 299.267 973.466 299.229C973.142 298.516 972.761 297.765 972.42 297.077C972.481 296.982 972.514 296.871 972.514 296.757C972.514 296.729 972.354 296.18 972.344 296.156C972.246 296.003 972.092 296.093 971.999 295.856C971.894 295.62 971.974 295.155 971.936 294.876C971.909 294.644 971.818 294.516 971.832 294.188C971.846 293.903 971.999 293.572 971.981 293.322C971.974 293.166 971.79 292.815 971.735 292.682C971.512 292.144 971.325 291.636 971.297 290.972C971.269 290.37 971.39 290.002 971.435 289.48C971.491 288.855 971.16 288.551 971.16 287.974C971.164 287.532 971.35 287.036 971.404 286.64C971.477 286.097 971.483 285.311 971.437 284.756C971.397 284.224 971.247 283.904 971.329 283.306C971.351 283.16 971.42 283.042 971.437 282.836C971.433 282.69 971.433 282.549 971.433 282.406V281.548C971.433 281.27 971.461 280.956 971.437 280.685C971.413 280.46 971.281 280.227 971.281 280.049C971.281 279.743 971.476 279.598 971.434 279.183C971.407 278.884 971.364 278.814 971.296 278.554C971.164 278.061 971.254 277.563 971.173 277.034C971.135 276.782 971.054 276.701 971.03 276.412C970.997 276.072 971.101 275.954 971.135 275.712C971.17 275.472 971.205 275.157 971.173 274.902C971.135 274.596 970.99 274.38 971.03 274.047L970.919 277.829C970.825 274.529 970.693 271.474 970.693 271.474L965.675 269.117C965.675 269.117 965.25 278.331 965.358 279.613C965.458 280.9 965.89 289.689 965.675 290.76C965.459 291.832 964.931 297.189 964.931 297.189C964.931 297.189 962.477 298.903 961.517 300.829C960.553 302.759 960.769 303.402 960.445 303.402L962.83 303.03L961.054 304.216C961.237 304.142 961.436 304.118 961.631 304.148C961.826 304.178 962.009 304.261 962.16 304.387C962.2 304.421 962.466 304.647 962.5 304.647C962.593 304.647 962.723 304.409 962.837 304.367C963.207 304.242 963.518 304.935 963.869 304.882C964.057 304.854 964.314 304.656 964.468 304.455C964.595 304.285 964.644 303.985 964.778 303.871C964.9 303.767 965.198 303.888 965.327 303.888C965.677 303.888 966.032 303.899 966.383 303.888C966.85 303.875 967.228 303.218 967.658 302.845C968.059 302.508 968.354 302.389 968.783 302.415C969.252 302.449 969.676 302.887 970.153 302.915C970.514 302.933 970.765 302.977 971.057 302.598C971.258 302.334 971.401 301.942 971.592 301.667L972.778 301.483C973.013 301.581 973.253 301.689 973.454 301.681C973.757 301.667 974.07 301.63 974.37 301.677C974.484 301.692 974.71 301.959 974.803 301.893C974.867 301.844 974.975 301.483 975.04 301.375C975.013 301.23 974.969 300.869 974.916 300.747V300.748Z" fill="#862633" stroke="black" stroke-width="0.42" stroke-miterlimit="4.8"/>
        <path d="M964.767 304.051C965.069 304.051 965.347 303.981 965.601 304.203C965.643 304.283 965.681 304.361 965.72 304.436C965.755 304.462 965.797 304.479 965.841 304.486C965.884 304.492 965.929 304.487 965.97 304.471C966.141 304.586 966.176 304.651 966.363 304.694C966.537 304.731 966.728 304.687 966.902 304.69C967.122 304.697 967.228 304.773 967.433 304.857C967.791 305.003 968.027 304.864 968.337 304.641C968.696 304.377 968.827 304.579 969.171 304.91C969.429 305.156 969.376 305.133 969.609 304.965C969.644 304.885 969.685 304.809 969.724 304.742C969.839 304.694 969.957 304.662 970.074 304.641C970.267 304.551 970.457 304.561 970.639 304.492C970.829 304.418 970.969 304.207 971.17 304.245C971.344 304.28 971.543 304.421 971.709 304.475C971.869 304.529 971.939 304.561 972.071 304.658C972.311 304.165 972.839 304.018 973.177 303.779C973.528 303.536 973.855 303.831 974.241 303.835C974.446 303.835 974.529 303.715 974.675 303.668C974.839 303.608 975.025 303.694 975.183 303.629C975.35 303.567 975.381 303.406 975.565 303.386C975.905 303.344 976.285 303.899 976.625 304.004C976.816 304.067 977.701 304.265 977.571 303.615C977.446 302.995 976.891 303.425 976.771 302.99C976.708 302.743 976.838 302.391 976.761 302.114C976.695 301.861 976.417 301.568 976.25 301.513C976.041 301.447 975.92 301.665 975.742 301.495C975.596 301.359 975.541 300.851 975.412 300.65C975.241 300.775 975.134 300.89 974.908 300.844C974.65 300.782 974.675 300.694 974.483 300.451C974.066 299.929 973.826 300.764 973.441 300.631C973.148 300.538 972.877 299.801 972.647 299.501C972.525 299.341 972.181 298.823 972.004 298.939C971.705 299.133 971.977 299.697 971.821 299.947C971.709 300.121 971.313 299.943 971.171 299.971C970.945 300.02 970.903 300.079 970.739 300.35C970.409 300.896 970.217 301.33 969.704 301.268C969.46 301.24 969.277 300.993 969.039 301.083C968.786 301.18 968.643 301.451 968.365 301.483C968.163 301.499 967.93 301.507 967.732 301.431C967.538 301.343 967.318 300.979 967.141 300.878C967.109 300.848 967.07 300.828 967.028 300.82C966.985 300.812 966.941 300.816 966.901 300.832C966.881 300.822 966.613 300.665 966.609 300.665C966.299 300.575 966.325 300.586 966.199 300.995C966.125 301.249 966.098 301.51 966.004 301.75C965.914 301.952 965.716 302.201 965.601 302.337C965.385 302.57 965.281 302.507 965 302.591C964.774 302.665 964.474 303.016 964.353 302.564C964.173 301.882 964.853 300.864 964.095 301.041C963.897 301.087 963.778 301.124 963.657 301.417C963.523 301.754 963.631 301.972 963.571 302.342C963.491 302.807 962.603 303.59 962.779 304.011C962.897 304.307 963.293 303.851 963.401 303.925C963.581 304.049 963.53 304.345 963.658 304.544C963.927 304.954 964.723 303.908 964.768 304.474M961.547 300.401C961.545 300.342 961.534 300.286 961.53 300.225C961.318 300.186 961.078 299.961 960.883 299.957C960.7 299.947 960.341 300.395 960.215 300.61C959.826 301.253 959.935 302.129 959.28 302.116C959.12 302.112 958.745 302.004 958.605 302.101C958.359 302.275 958.515 302.791 958.515 303.141C958.515 303.471 958.665 303.141 958.488 303.569C958.435 303.687 958.276 303.725 958.234 303.882C958.102 304.442 958.567 304.264 958.773 304.258C959.301 304.254 959.826 304.254 960.348 304.258C960.665 304.265 960.856 304.153 961.151 304.038C961.345 303.972 961.759 303.976 961.924 303.802C961.983 303.736 962.174 303.294 962.201 303.19C962.243 302.974 962.161 302.713 962.211 302.533C962.295 302.217 962.578 302.338 962.629 301.911C962.765 300.863 961.647 301.647 961.823 300.617" fill="#862633"/>
        <path d="M964.767 304.051C965.069 304.051 965.347 303.981 965.601 304.203C965.643 304.283 965.681 304.361 965.72 304.436C965.755 304.462 965.797 304.479 965.841 304.486C965.884 304.492 965.929 304.487 965.97 304.471C966.141 304.586 966.176 304.651 966.363 304.694C966.537 304.731 966.728 304.687 966.902 304.69C967.122 304.697 967.228 304.773 967.433 304.857C967.791 305.003 968.027 304.864 968.337 304.641C968.696 304.377 968.827 304.579 969.171 304.91C969.429 305.156 969.376 305.133 969.609 304.965C969.644 304.885 969.685 304.809 969.724 304.742C969.839 304.694 969.957 304.662 970.074 304.641C970.267 304.551 970.457 304.561 970.639 304.492C970.829 304.418 970.969 304.207 971.17 304.245C971.344 304.28 971.543 304.421 971.709 304.475C971.869 304.529 971.939 304.561 972.071 304.658C972.311 304.165 972.839 304.018 973.177 303.779C973.528 303.536 973.855 303.831 974.241 303.835C974.446 303.835 974.529 303.715 974.675 303.668C974.839 303.608 975.025 303.694 975.183 303.629C975.35 303.567 975.381 303.406 975.565 303.386C975.905 303.344 976.285 303.899 976.625 304.004C976.816 304.067 977.701 304.265 977.571 303.615C977.446 302.995 976.891 303.425 976.771 302.99C976.708 302.743 976.838 302.391 976.761 302.114C976.695 301.861 976.417 301.568 976.25 301.513C976.041 301.447 975.92 301.665 975.742 301.495C975.596 301.359 975.541 300.851 975.412 300.65C975.241 300.775 975.134 300.89 974.908 300.844C974.65 300.782 974.675 300.694 974.483 300.451C974.066 299.929 973.826 300.764 973.441 300.631C973.148 300.538 972.877 299.801 972.647 299.501C972.525 299.341 972.181 298.823 972.004 298.939C971.705 299.133 971.977 299.697 971.821 299.947C971.709 300.121 971.313 299.943 971.171 299.971C970.945 300.02 970.903 300.079 970.739 300.35C970.409 300.896 970.217 301.33 969.704 301.268C969.46 301.24 969.277 300.993 969.039 301.083C968.786 301.18 968.643 301.451 968.365 301.483C968.163 301.499 967.93 301.507 967.732 301.431C967.538 301.343 967.318 300.979 967.141 300.878C967.109 300.848 967.07 300.828 967.028 300.82C966.985 300.812 966.941 300.816 966.901 300.832C966.881 300.822 966.613 300.665 966.609 300.665C966.299 300.575 966.325 300.586 966.199 300.995C966.125 301.249 966.098 301.51 966.004 301.75C965.914 301.952 965.716 302.201 965.601 302.337C965.385 302.57 965.281 302.507 965 302.591C964.774 302.665 964.474 303.016 964.353 302.564C964.173 301.882 964.853 300.864 964.095 301.041C963.897 301.087 963.778 301.124 963.657 301.417C963.523 301.754 963.631 301.972 963.571 302.342C963.491 302.807 962.603 303.59 962.779 304.011C962.897 304.307 963.293 303.851 963.401 303.925C963.581 304.049 963.53 304.345 963.658 304.544C963.927 304.954 964.723 303.908 964.768 304.474M961.547 300.401C961.545 300.342 961.534 300.286 961.53 300.225C961.318 300.186 961.078 299.961 960.883 299.957C960.7 299.947 960.341 300.395 960.215 300.61C959.826 301.253 959.935 302.129 959.28 302.116C959.12 302.112 958.745 302.004 958.605 302.101C958.359 302.275 958.515 302.791 958.515 303.141C958.515 303.471 958.665 303.141 958.488 303.569C958.435 303.687 958.276 303.725 958.234 303.882C958.102 304.442 958.567 304.264 958.773 304.258C959.301 304.254 959.826 304.254 960.348 304.258C960.665 304.265 960.856 304.153 961.151 304.038C961.345 303.972 961.759 303.976 961.924 303.802C961.983 303.736 962.174 303.294 962.201 303.19C962.243 302.974 962.161 302.713 962.211 302.533C962.295 302.217 962.578 302.338 962.629 301.911C962.765 300.863 961.647 301.647 961.823 300.617" stroke="black" stroke-width="0.42" stroke-miterlimit="4.8"/>
        <path d="M974.205 271.275C974.205 272.631 973.277 273.723 972.127 273.723C970.99 273.723 970.054 272.631 970.054 271.275C970.054 269.923 970.989 268.823 972.127 268.823C973.277 268.824 974.205 269.923 974.205 271.275ZM967.425 268.255C967.425 269.607 966.496 270.703 965.351 270.703C964.204 270.703 963.273 269.607 963.273 268.255C963.273 266.903 964.204 265.805 965.351 265.805C966.496 265.805 967.425 266.903 967.425 268.255Z" fill="black" stroke="black" stroke-width="0.78" stroke-miterlimit="4.8"/>
        <path d="M971.005 269.192C971.005 270.548 970.076 271.64 968.931 271.64C967.786 271.64 966.859 270.548 966.859 269.192C966.859 267.836 967.787 266.742 968.931 266.742C970.075 266.742 971.005 267.837 971.005 269.192Z" fill="black" stroke="black" stroke-width="0.78" stroke-miterlimit="4.8"/>
        <path d="M967.539 271.432C967.539 272.788 966.607 273.886 965.463 273.886C964.319 273.886 963.391 272.786 963.391 271.432C963.391 270.08 964.318 268.984 965.463 268.984C966.608 268.984 967.539 270.078 967.539 271.432Z" fill="black" stroke="black" stroke-width="0.78" stroke-miterlimit="4.8"/>
        <path d="M970.753 273.307C970.753 274.659 969.818 275.761 968.678 275.761C967.535 275.761 966.602 274.659 966.602 273.307C966.602 271.955 967.535 270.859 968.678 270.859C969.817 270.86 970.753 271.955 970.753 273.307Z" fill="black" stroke="black" stroke-width="0.78" stroke-miterlimit="4.8"/>
        <path d="M971.756 246.576C971.756 246.576 992.674 217.367 1015.1 247.71C1015.1 247.71 1015.29 250.728 1013.22 253.93L1012.65 251.482L1011.33 251.856L1010.96 250.349L1008.5 250.162L1009.26 246.956L1006.62 249.03L1007 246.767L1003.98 249.787L1004.36 243.376L1001.15 248.842L1001.53 245.075L1000.4 246.768L999.721 244.572L998.708 246.768L997.196 245.64V247.147L994.561 244.885L993.619 247.9L992.3 244.698L991.922 246.958L990.6 244.318L990.416 247.148L986.077 245.261L987.019 247.9L984.95 246.395L985.326 247.9L982.502 247.337L982.687 249.031L979.672 248.465L980.239 249.971L976.091 249.409L977.593 251.105L977.176 251.795C977.176 251.795 999.836 244.322 1001.34 272.591L997.196 274.663L998.329 272.407L997.196 271.65L993.806 269.015L994.748 265.43L993.619 265.81L993.429 263.737L992.864 264.113L991.542 262.04L991.166 262.795L990.224 260.341L989.282 262.041L988.715 257.893L987.21 260.536L987.018 259.027L986.452 259.969L984.568 257.706L984.008 259.214L983.248 258.084L982.686 259.402L980.612 257.514V259.027L979.295 257.893L978.724 258.648L975.526 256.951L975.33 258.456L973.638 256.951L973.07 258.456C973.07 258.456 993.62 270.145 987.207 289.181L986.073 291.629L985.701 285.225L983.817 288.615L985.127 281.265L983.817 282.582L983.623 279.759L981.933 282.582L981.359 279.381L980.611 280.323L979.475 275.421L978.533 277.497L977.027 272.031L975.897 274.291L975.143 269.583L974.388 272.409L972.125 268.26L971.751 269.953L970.434 266.563L969.675 267.697C969.675 267.697 965.906 267.505 964.777 266.563C963.647 265.625 960.441 272.22 960.441 272.22L960.819 268.26L959.502 270.895V268.26L957.05 276.174L956.484 270.521L955.165 275.421L954.597 273.916L954.222 275.991L953.467 275.233L952.809 277.458L951.579 276.555V279.569L950.45 278.061L949.508 282.585L948.944 280.705V282.773L948.002 281.647L947.057 286.171L945.739 284.287L945.554 287.487L946.114 289.941L944.609 289.186L945.176 293.139C945.176 293.139 939.332 282.212 946.309 271.655C953.277 261.105 962.702 258.275 962.702 258.275L961.756 257.337L961.569 256.392L955.916 259.218L956.106 257.518L954.597 258.838L954.222 256.954L953.276 258.651L953.092 257.896L951.77 259.972L951.013 256.954L950.073 260.539L949.184 258.032L947.247 263.362V259.405L945.739 263.553L945.175 259.029L944.045 264.303V259.592L942.345 264.303L941.216 259.783L940.461 264.115L939.332 260.725L938.198 265.812L936.505 261.288L935.563 268.075L934.433 265.432L934.243 270.334L932.928 267.32L934.243 273.724L932.546 271.276L933.114 275.233L930.666 270.897L930.853 275.991L929.532 274.291L928.964 276.176C928.964 276.176 928.404 256.576 941.78 252.804C955.166 249.036 963.835 253.937 963.835 253.937L958.748 249.792L959.312 248.471H957.428L958.182 246.962L954.225 247.153L955.355 245.645L952.337 246.02V245.08L950.453 246.583L951.207 244.89L948.569 246.583L948.408 244.076L947.059 246.211L946.311 243.948L940.277 249.976L941.972 243.758L940.843 245.08L940.656 243.758L938.959 246.4L938.581 244.513L937.826 246.773L937.259 244.136L935.945 246.773L934.622 244.327L934.059 247.532L933.114 245.832L931.984 248.282L930.479 246.772L930.288 248.282L927.272 246.962L928.027 249.226L925.764 247.342L925.196 250.356L923.881 248.848L922.939 252.62L921.997 249.037L921.055 251.864C921.055 251.864 932.841 221.578 962.66 241.338C962.66 241.338 965.907 244.514 966.662 246.774C967.417 249.038 966.852 247.154 966.852 247.154L966.285 226.234L967.415 235.281L968.169 232.075L967.982 236.788L970.994 230.19C970.994 230.19 967.417 241.123 968.734 245.08C968.734 245.08 970.056 232.454 974.582 230.944L970.434 239.99L971.751 239.8L970.809 241.688H971.939L970.573 244.678L969.866 246.212L970.617 247.718L971.756 246.576Z" fill="#00AD50" stroke="black" stroke-width="0.78" stroke-miterlimit="4.8"/>
        <path d="M968.66 258.864L969.255 259.399C969.335 259.316 971.198 257.33 974.328 259.973L974.846 259.357C971.104 256.193 968.676 258.835 968.66 258.864ZM967.75 248.604L967.628 249.329C967.628 249.329 968.704 248.87 969.081 248.709C968.848 249.124 968.082 250.457 968.082 250.457L970.25 249.736C969.355 250.908 968.459 252.081 967.562 253.253L968.203 253.747L972.479 248.146L969.821 249.032C970.098 248.55 970.961 247.027 970.961 247.027L968.664 248.015L969.138 245.141L968.344 245.008L967.75 248.604Z" fill="black"/>
        <path d="M963.756 248.838C963.756 248.838 964.284 250.007 964.681 250.877C964.51 250.806 963.206 250.284 963.206 250.284L967.556 257.978C967.556 257.978 968.081 257.308 968.112 257.266C967.674 258.389 967.236 259.522 967.236 259.522L967.987 259.814L969.862 254.992L969.17 254.599L967.66 256.532C967.254 255.809 965.75 253.146 965.035 251.887C965.125 251.921 966.242 252.371 966.242 252.371C966.242 252.371 965.422 250.559 965.039 249.718L966.669 250.736V247.868H965.866V249.287L963.203 247.625L963.756 248.838ZM961.016 258.498L961.336 259.235C962.514 258.731 963.484 258.647 964.221 258.998C965.084 259.412 965.344 260.302 965.347 260.308L966.122 260.1C966.112 260.048 965.77 258.852 964.579 258.278C963.627 257.82 962.427 257.893 961.016 258.498ZM964.392 266.648L963.732 262.433L964.527 262.308L965.188 266.522L964.392 266.648ZM970.181 265.954L969.107 262.734L969.872 262.479L970.945 265.699L970.181 265.954ZM972.305 268.334L971.498 265.118L972.28 264.922L973.087 268.138L972.305 268.334Z" fill="black"/>
        <path d="M811.411 365.036C811.411 365.036 807.877 363.43 806.268 364.606C804.66 365.787 804.879 367.498 803.485 367.39C803.485 367.39 808.839 368.569 810.017 367.174C811.194 365.787 811.411 365.355 811.411 365.355M812.061 366.516C812.061 366.516 809.735 369.626 810.539 371.446C811.341 373.268 813.062 373.424 812.655 374.761C812.655 374.761 814.957 369.787 813.851 368.335C812.746 366.893 812.377 366.59 812.377 366.59M808.141 357.906C808.141 357.906 804.431 359.056 804.015 361.001C803.589 362.947 804.894 364.087 803.783 364.932C803.783 364.932 808.565 362.252 808.52 360.426C808.475 358.603 808.357 358.142 808.357 358.142M810.321 359.186C810.321 359.186 812.081 355.719 810.973 354.068C809.867 352.405 808.141 352.548 808.311 351.164C808.311 351.164 806.897 356.46 808.238 357.7C809.581 358.93 810.001 359.168 810.001 359.168M806.681 357.926C806.681 357.926 806.766 354.05 805.049 353.037C803.334 352.022 801.84 352.896 801.391 351.57C801.391 351.57 802.417 356.959 804.165 357.498C805.911 358.023 806.392 358.054 806.392 358.054M813.021 364.386C813.021 364.386 817.089 362.989 817.413 367.384C817.733 371.774 817.197 370.277 817.197 370.277C817.197 370.277 815.055 365.564 812.701 364.813L813.021 364.386Z" fill="#00AD50"/>
        <path d="M811.411 365.036C811.411 365.036 807.877 363.43 806.268 364.606C804.66 365.787 804.879 367.498 803.485 367.39C803.485 367.39 808.839 368.569 810.017 367.174C811.194 365.787 811.411 365.355 811.411 365.355M812.061 366.516C812.061 366.516 809.735 369.626 810.539 371.446C811.341 373.268 813.062 373.424 812.655 374.761C812.655 374.761 814.957 369.787 813.851 368.335C812.746 366.893 812.377 366.59 812.377 366.59M808.141 357.906C808.141 357.906 804.431 359.056 804.015 361.001C803.589 362.947 804.894 364.087 803.783 364.932C803.783 364.932 808.565 362.252 808.52 360.426C808.475 358.603 808.357 358.142 808.357 358.142M810.321 359.186C810.321 359.186 812.081 355.719 810.973 354.068C809.867 352.405 808.141 352.548 808.311 351.164C808.311 351.164 806.897 356.46 808.238 357.7C809.581 358.93 810.001 359.168 810.001 359.168M806.681 357.926C806.681 357.926 806.766 354.05 805.049 353.037C803.334 352.022 801.84 352.896 801.391 351.57C801.391 351.57 802.417 356.959 804.165 357.498C805.911 358.023 806.392 358.054 806.392 358.054M813.021 364.386C813.021 364.386 817.089 362.989 817.413 367.384C817.733 371.774 817.197 370.277 817.197 370.277C817.197 370.277 815.055 365.564 812.701 364.813L813.021 364.386Z" stroke="black" stroke-width="0.78" stroke-miterlimit="4.8"/>
        <path d="M811.992 366.581C811.992 366.675 812.418 369.995 812.418 369.995L812.99 369.922L812.56 366.6C812.574 366.604 813.95 359.3 813.95 359.3L813.383 359.195L811.992 366.581Z" fill="black"/>
        <path d="M808.293 365.506L808.103 366.048C810.049 366.732 812.764 364.594 812.877 364.504L812.517 364.056C812.493 364.073 809.939 366.09 808.293 365.506ZM813.391 361.22L804.289 356.615L804.652 355.898L813.754 360.503L813.391 361.22Z" fill="black"/>
        <path d="M806.787 360.182L806.219 359.615L808.04 357.795L808.607 358.363L806.787 360.182ZM809.972 359.297L808.045 355.117L808.774 354.781L810.702 358.961L809.972 359.297ZM812.667 364.412L812.719 365.216C815.194 365.048 815.799 366.651 815.803 366.669L816.593 366.505C816.499 366.046 815.507 364.221 812.667 364.412Z" fill="black"/>
        <path d="M854.429 366.264C857.464 364.564 858.072 358.607 858.072 358.607C857.346 360.798 851.762 362.982 851.762 362.982C855.888 360.426 860.863 348.898 860.863 348.898C859.529 353.028 848.725 356.424 841.803 360.309C834.88 364.192 838.524 375.367 838.524 375.367C836.584 374.03 832.818 368.084 832.092 362.858C831.359 357.639 829.296 355.578 824.561 354.969C819.823 354.361 817.032 359.701 817.032 359.701L809.992 363.348L817.151 363.588C817.151 363.588 822.257 365.292 822.257 369.298C822.257 373.306 817.764 389.332 825.167 398.319C830.32 404.564 849.333 408.152 849.333 408.152" fill="white"/>
        <path d="M854.429 366.264C857.464 364.564 858.072 358.607 858.072 358.607C857.346 360.798 851.762 362.982 851.762 362.982C855.888 360.426 860.863 348.898 860.863 348.898C859.529 353.028 848.725 356.424 841.803 360.309C834.88 364.192 838.524 375.367 838.524 375.367C836.584 374.03 832.818 368.084 832.092 362.858C831.359 357.639 829.296 355.578 824.561 354.969C819.823 354.361 817.032 359.701 817.032 359.701L809.992 363.348L817.151 363.588C817.151 363.588 822.257 365.292 822.257 369.298C822.257 373.306 817.764 389.332 825.167 398.319C830.32 404.564 849.333 408.152 849.333 408.152" stroke="black" stroke-miterlimit="4.8"/>
        <path d="M840.469 378.645C840.469 378.645 841.926 371.48 846.661 371.723C851.396 371.966 852.731 366.383 855.524 365.531C858.317 364.683 872.766 360.8 874.345 353.875C874.345 353.875 873.01 365.291 859.777 370.997C859.777 370.997 870.458 367.474 871.675 365.167C871.675 365.167 866.936 375.367 855.403 376.945C855.403 376.945 866.209 376.096 867.788 373.184C867.788 373.184 862.931 379.617 854.919 380.469C854.919 380.469 862.324 383.504 864.269 380.953C864.269 380.953 860.26 385.688 855.28 386.049L856.62 386.415C856.62 386.415 851.884 392.002 846.662 388.237C841.443 384.471 841.318 389.211 841.318 389.211" fill="white"/>
        <path d="M840.469 378.645C840.469 378.645 841.926 371.48 846.661 371.723C851.396 371.966 852.731 366.383 855.524 365.531C858.317 364.683 872.766 360.8 874.345 353.875C874.345 353.875 873.01 365.291 859.777 370.997C859.777 370.997 870.458 367.474 871.675 365.167C871.675 365.167 866.936 375.367 855.403 376.945C855.403 376.945 866.209 376.096 867.788 373.184C867.788 373.184 862.931 379.617 854.919 380.469C854.919 380.469 862.324 383.504 864.269 380.953C864.269 380.953 860.26 385.688 855.28 386.049L856.62 386.415C856.62 386.415 851.884 392.002 846.662 388.237C841.443 384.471 841.318 389.211 841.318 389.211" stroke="black" stroke-miterlimit="4.8"/>
        <path d="M851.247 389.445C851.247 389.445 857.345 399.647 857.954 405.11C857.954 405.11 869.612 417.982 873.982 418.705C873.982 418.705 871.917 419.553 868.151 416.4C868.151 416.4 871.308 419.678 871.917 419.8C872.521 419.925 869.365 419.557 868.878 418.705C868.878 418.705 870.216 420.653 871.065 420.895C871.917 421.139 870.216 420.653 870.216 420.653C870.216 420.653 868.635 420.409 867.907 419.801C867.177 419.196 867.664 421.376 867.664 421.376C867.664 421.376 865.842 420.89 865.237 420.284C864.629 419.679 865.481 421.624 865.481 421.624L863.903 421.257L862.811 421.983C862.811 421.983 862.689 422.713 861.955 422.106C861.232 421.505 859.894 422.106 859.894 422.106C859.894 422.106 858.919 422.958 858.437 422.349C857.955 421.743 856.114 424.685 856.114 424.685L848.469 406.23" fill="white"/>
        <path d="M851.247 389.445C851.247 389.445 857.345 399.647 857.954 405.11C857.954 405.11 869.612 417.982 873.982 418.705C873.982 418.705 871.917 419.553 868.151 416.4C868.151 416.4 871.308 419.678 871.917 419.8C872.521 419.925 869.365 419.557 868.878 418.705C868.878 418.705 870.216 420.653 871.065 420.895C871.917 421.139 870.216 420.653 870.216 420.653C870.216 420.653 868.635 420.409 867.907 419.801C867.177 419.196 867.664 421.376 867.664 421.376C867.664 421.376 865.842 420.89 865.237 420.284C864.629 419.679 865.481 421.624 865.481 421.624L863.903 421.257L862.811 421.983C862.811 421.983 862.689 422.713 861.955 422.106C861.232 421.505 859.894 422.106 859.894 422.106C859.894 422.106 858.919 422.958 858.437 422.349C857.955 421.743 856.114 424.685 856.114 424.685L848.469 406.23" stroke="black" stroke-miterlimit="4.8"/>
        <path d="M858.506 422.925L848.844 404.532L849.858 403.999L859.521 422.392L858.506 422.925ZM866.948 421.685L850.417 403.175L851.275 402.409L867.807 420.919L866.948 421.685ZM870.719 420.053L851.855 402.473L852.638 401.633L871.503 419.213L870.719 420.053Z" fill="black"/>
        <path d="M823.441 360.835C823.441 360.835 822.21 358.631 821.138 359.459C820.069 360.284 819.453 360.435 819.268 360.378C819.268 360.378 820.344 360.437 820.955 359.856C821.568 359.27 822.611 359.64 823.441 360.835ZM816.781 359.825C816.781 359.825 817.457 361.224 817.466 361.248C817.398 361.252 816.703 363.505 816.703 363.505L817.256 363.674L818.006 361.222C817.993 361.009 817.303 359.58 817.303 359.58L816.781 359.825Z" fill="black"/>
        <path d="M823.162 360.492C823.162 360.492 822.244 361.567 820.986 361.258L819.734 360.952C819.734 360.952 820.8 361.012 821.51 361.045C822.21 361.074 823.128 360.708 823.162 360.492Z" fill="black"/>
        <path d="M822.861 360.717C822.861 360.717 821.729 359.522 820.961 359.859C820.961 359.859 822.311 359.429 823.077 360.589L822.861 360.717Z" fill="black"/>
        <path d="M822.668 360.496C822.668 360.496 821.382 361.383 819.969 360.406L819.883 360.34L820.066 360.281C820.066 360.281 821.844 361.016 822.668 360.496Z" fill="black"/>
        <path d="M821.57 360.664C821.782 360.664 821.953 360.493 821.953 360.281C821.953 360.07 821.782 359.898 821.57 359.898C821.359 359.898 821.188 360.07 821.188 360.281C821.188 360.493 821.359 360.664 821.57 360.664Z" fill="black"/>
        <path d="M822.61 394.195C822.61 394.195 821.614 396.029 822.135 397.134C822.663 398.237 825.025 398.809 825.34 400.28C825.657 401.755 826.445 401.751 827.548 401.546C828.653 401.334 828.862 401.282 828.862 401.282C828.862 401.282 824.237 398.809 823.028 394.822L822.61 394.195Z" fill="black"/>
        <path d="M972.086 356.844C972.086 356.844 980.504 345.745 987.968 348.66C995.433 351.577 1000.28 352.981 1000.28 352.981C1000.28 352.981 1000.43 360.456 996.456 360.456C992.496 360.456 988.699 352.991 985.09 355.21C981.474 357.425 978.506 360.46 978.272 361.506C978.039 362.554 968.709 362.789 972.086 356.844Z" fill="#862633" stroke="black" stroke-width="0.48" stroke-miterlimit="4.8"/>
        <path d="M940.136 410.36C940.136 410.36 937.808 412.804 938.858 413.391C939.912 413.972 942.004 413.269 942.004 412.456C942.004 411.636 940.609 410.127 940.136 410.36Z" fill="#862633" stroke="black" stroke-width="0.78" stroke-miterlimit="4.8"/>
        <path d="M938.278 412.693C938.278 412.693 933.966 410.238 930.584 416.069C927.197 421.899 924.402 431.346 922.42 432.629C920.439 433.911 941.661 423.301 941.895 418.871C941.895 418.871 943.292 413.155 941.078 413.269C938.863 413.391 938.745 413.625 938.278 412.693Z" fill="#862633" stroke="black" stroke-width="0.78" stroke-miterlimit="4.8"/>
        <path d="M938.855 413.394C938.855 413.394 934.425 414.437 933.493 420.731C932.561 427.034 926.379 430.296 926.031 430.528M1000.3 352.984C1000.3 352.984 993.557 355.328 994.721 359.994Z" fill="#862633"/>
        <path d="M938.855 413.394C938.855 413.394 934.425 414.437 933.493 420.731C932.561 427.034 926.379 430.296 926.031 430.528M1000.3 352.984C1000.3 352.984 993.557 355.328 994.721 359.994" stroke="black" stroke-width="0.48" stroke-miterlimit="4.8"/>
        <path d="M948.539 366.635C948.539 366.635 948.771 350.659 961.823 351.358C964.296 351.588 963.117 354.504 963.117 354.504C963.117 354.504 965.94 352.527 967.23 355.67C967.23 355.67 971.347 353.806 971.815 357.888C971.815 357.888 976.285 357.308 975.695 360.92C975.695 360.92 978.751 360.221 978.637 362.787C978.637 362.787 982.163 361.387 981.807 365.002C981.807 365.002 985.689 362.436 985.104 367.098C985.104 367.098 989.103 364.304 990.508 368.967C991.919 373.629 986.513 383.541 981.221 386.105" fill="#FEDD00"/>
        <path d="M948.539 366.635C948.539 366.635 948.771 350.659 961.823 351.358C964.296 351.588 963.117 354.504 963.117 354.504C963.117 354.504 965.94 352.527 967.23 355.67C967.23 355.67 971.347 353.806 971.815 357.888C971.815 357.888 976.285 357.308 975.695 360.92C975.695 360.92 978.751 360.221 978.637 362.787C978.637 362.787 982.163 361.387 981.807 365.002C981.807 365.002 985.689 362.436 985.104 367.098C985.104 367.098 989.103 364.304 990.508 368.967C991.919 373.629 986.513 383.541 981.221 386.105" stroke="black" stroke-width="0.48" stroke-miterlimit="4.8"/>
        <path d="M984.805 367.604C984.823 367.729 986.565 380.102 979.548 384.63L979.795 385.02C987.065 380.33 985.277 367.664 985.261 367.536L984.805 367.604ZM976.355 381.154L976.679 381.484C981.123 377.159 982.079 365.508 982.113 365.015L981.658 364.977C981.647 365.099 980.681 376.951 976.355 381.154ZM972.205 378.384L972.663 378.421C973.235 371.226 978.859 362.996 978.919 362.912L978.539 362.654C978.481 362.736 972.789 371.067 972.205 378.384ZM968.945 376.284L969.403 376.33C970.203 367.65 975.936 361.134 975.993 361.072L975.652 360.764C975.592 360.828 969.761 367.452 968.945 376.284ZM964.395 373.384L964.853 373.401C965.309 363.151 972.033 358.121 972.1 358.071L971.828 357.7C971.763 357.751 964.861 362.9 964.395 373.384ZM960.195 370.834L960.657 370.82C960.321 361.492 967.492 355.908 967.567 355.85L967.288 355.486C967.215 355.546 959.854 361.266 960.195 370.834ZM952.625 367.424L953.08 367.48C954.329 357.383 963.316 354.755 963.406 354.73L963.281 354.289C963.191 354.313 953.908 357.018 952.625 367.424Z" fill="black"/>
        <path d="M940.839 385.994C940.839 385.994 938.627 371.181 947.487 366.522C947.487 366.522 949.124 366.17 950.053 368.27C950.053 368.27 954.719 366.29 954.837 370.248C954.837 370.248 957.167 368.384 957.751 370.948C957.751 370.948 962.764 369.901 961.831 373.631C961.831 373.631 966.028 372.466 965.678 376.076C965.678 376.076 969.878 374.562 969.175 377.711C969.175 377.711 973.604 376.664 972.557 380.278C972.557 380.278 978.04 379.697 976.407 383.543C976.407 383.543 980.488 382.495 979.553 385.643C979.553 385.643 984.919 386.578 982.467 389.958C980.019 393.336 973.837 398.468 967.781 400.682" fill="#00AD50"/>
        <path d="M940.839 385.994C940.839 385.994 938.627 371.181 947.487 366.522C947.487 366.522 949.124 366.17 950.053 368.27C950.053 368.27 954.719 366.29 954.837 370.248C954.837 370.248 957.167 368.384 957.751 370.948C957.751 370.948 962.764 369.901 961.831 373.631C961.831 373.631 966.028 372.466 965.678 376.076C965.678 376.076 969.878 374.562 969.175 377.711C969.175 377.711 973.604 376.664 972.557 380.278C972.557 380.278 978.04 379.697 976.407 383.543C976.407 383.543 980.488 382.495 979.553 385.643C979.553 385.643 984.919 386.578 982.467 389.958C980.019 393.336 973.837 398.468 967.781 400.682" stroke="black" stroke-width="0.48" stroke-miterlimit="4.8"/>
        <path d="M936.058 400.912C936.058 400.912 932.442 388.557 939.327 385.403C939.327 385.403 940.602 385.051 940.837 386.338C940.837 386.338 942.356 384.353 943.523 386.105C943.523 386.105 947.018 384.472 947.838 387.036C947.838 387.036 950.168 385.051 951.336 387.964C951.336 387.964 953.552 387.036 953.552 389.365C953.552 389.365 956.582 388.083 956.582 390.882C956.582 390.882 959.492 389.717 958.912 392.863C958.912 392.863 963.345 393.562 962.062 395.661C962.062 395.661 966.032 396.707 964.51 398.344C964.51 398.344 968.822 397.878 966.491 400.792C966.491 400.792 969.756 399.745 967.893 403.362C966.024 406.974 960.198 410.938 956.117 411.403" fill="#00AD50"/>
        <path d="M936.058 400.912C936.058 400.912 932.442 388.557 939.327 385.403C939.327 385.403 940.602 385.051 940.837 386.338C940.837 386.338 942.356 384.353 943.523 386.105C943.523 386.105 947.018 384.472 947.838 387.036C947.838 387.036 950.168 385.051 951.336 387.964C951.336 387.964 953.552 387.036 953.552 389.365C953.552 389.365 956.582 388.083 956.582 390.882C956.582 390.882 959.492 389.717 958.912 392.863C958.912 392.863 963.345 393.562 962.062 395.661C962.062 395.661 966.032 396.707 964.51 398.344C964.51 398.344 968.822 397.878 966.491 400.792C966.491 400.792 969.756 399.745 967.893 403.362C966.024 406.974 960.198 410.938 956.117 411.403" stroke="black" stroke-width="0.48" stroke-miterlimit="4.8"/>
        <path d="M940.371 410.707C940.371 410.707 932.677 403.245 936.296 401.031C936.296 401.031 937.922 401.493 938.507 403.128C938.507 403.128 940.371 400.447 941.425 403.243C941.425 403.243 944.225 402.312 944.225 404.181L946.435 405.815C946.435 405.815 949.005 405.579 948.539 407.213C948.539 407.213 951.338 406.861 951.219 408.378C951.219 408.378 953.671 408.493 953.438 410.123C953.438 410.123 957.631 410.823 955.767 412.926C955.767 412.926 948.421 414.438 943.292 412.341C943.292 412.341 940.603 411.405 940.371 410.707Z" fill="#00AD50" stroke="black" stroke-width="0.48" stroke-miterlimit="4.8"/>
        <path d="M966.761 398.37L966.925 398.797C971.485 397.042 979.403 386.233 979.741 385.773L979.369 385.498C979.285 385.615 971.195 396.662 966.761 398.369V398.37ZM964.171 396.4L964.394 396.8C968.361 394.587 976.261 384.124 976.594 383.679L976.228 383.401C976.149 383.513 968.054 394.235 964.17 396.399L964.171 396.4ZM961.921 395.48L962.217 395.832C966.407 392.354 972.508 380.866 972.769 380.38L972.363 380.164C972.301 380.281 966.043 392.06 961.922 395.481L961.921 395.48ZM959.861 392.83L960.317 392.894C961.113 387.087 969.27 377.947 969.349 377.857L969.009 377.549C968.671 377.929 960.675 386.885 959.861 392.83ZM943.531 385.77L943.991 385.73C943.305 377.527 950.171 368.492 950.241 368.402L949.877 368.125C949.803 368.214 942.833 377.387 943.531 385.77ZM947.851 386.49L948.307 386.41C947.171 379.834 954.937 370.482 955.017 370.39L954.666 370.092C954.339 370.481 946.682 379.697 947.851 386.49ZM954.491 388.91L954.951 388.897C954.725 381.39 961.927 373.865 962.001 373.787L961.671 373.467C961.599 373.544 954.257 381.21 954.491 388.91ZM938.651 402.51L939.081 402.35C936.466 395.413 941.007 386.531 941.053 386.444L940.639 386.232C940.594 386.323 935.962 395.381 938.651 402.51ZM941.671 402.96L942.109 402.818C939.828 395.753 943.694 386.283 943.735 386.19L943.308 386.014C943.271 386.106 939.342 395.735 941.671 402.96ZM954.171 410.02L954.328 410.454C961.768 407.778 966.633 400.994 966.681 400.929L966.306 400.66C966.26 400.727 961.48 407.398 954.172 410.02H954.171ZM952.641 408.4L952.828 408.821C958.762 406.144 964.295 398.675 964.348 398.598L963.978 398.329C963.922 398.404 958.464 405.772 952.641 408.399V408.4ZM951.201 407.84L951.47 408.213C956.111 404.851 962.074 396.231 962.137 396.143L961.759 395.886C961.698 395.974 955.782 404.524 951.201 407.839V407.84ZM943.761 403.51L944.217 403.444C943.191 396.03 947.99 387.236 948.041 387.149L947.638 386.926C947.587 387.017 942.715 395.944 943.761 403.51ZM946.991 405.52L947.301 405.86C952.089 401.538 953.719 389.889 953.785 389.396L953.329 389.332C953.315 389.451 951.657 401.313 946.991 405.52Z" fill="black"/>
        <path d="M950.275 406.898L950.544 407.27C957.302 402.382 959.134 392.996 959.149 392.905L958.7 392.819C958.682 392.909 956.885 402.114 950.275 406.899V406.898ZM951.055 386.668C951.055 387.106 951.077 387.543 951.117 387.986C951.11 387.948 945.992 404.569 945.992 404.569L946.43 404.704L951.569 388.03C950.775 379.97 957.865 371.171 957.935 371.085L957.581 370.797C957.51 370.877 951.055 378.89 951.055 386.668Z" fill="black"/>
        <path d="M956.411 390.732C956.344 390.965 954.784 402.35 948.643 406.55L948.903 406.93C955.218 402.61 956.752 391.385 956.814 390.911C959.539 387.668 965.819 376.297 965.883 376.183L965.479 375.961C965.416 376.075 959.161 387.412 956.411 390.732ZM938.281 403.172C938.327 403.411 939.353 409.068 940.527 411.063L940.923 410.832C939.787 408.906 938.748 403.152 938.737 403.092L938.281 403.172ZM941.191 403.242C941.241 406.058 941.255 410.678 941.097 411.089L941.525 411.257C941.761 410.665 941.671 404.473 941.653 403.238L941.191 403.242Z" fill="black"/>
        <path d="M941.453 411.313L941.871 411.5C943.842 407.21 944.449 404.251 944.457 404.223L944.005 404.133C943.998 404.157 943.403 407.075 941.453 411.313Z" fill="black"/>
        <path d="M941.891 411.438L942.124 411.834C945.781 409.709 946.63 406.013 946.66 405.858L946.212 405.758C946.202 405.794 945.371 409.418 941.891 411.438Z" fill="black"/>
        <path d="M942.57 411.757L942.616 412.212C946.2 411.854 948.641 407.501 948.746 407.317L948.341 407.094C948.318 407.139 945.912 411.422 942.57 411.757Z" fill="black"/>
        <path d="M942.93 411.986L942.958 412.444C948.712 412.09 951.301 408.651 951.406 408.506L951.034 408.234C951.01 408.266 948.457 411.649 942.93 411.986Z" fill="black"/>
        <path d="M943.344 412.108L943.25 412.557C943.56 412.627 950.892 414.182 953.402 410.36L953.017 410.109C950.683 413.667 943.416 412.122 943.344 412.108Z" fill="black"/>
        <path d="M778.797 143.938V349.027C778.797 416.107 899.997 455.938 899.997 455.938C899.997 455.938 1021.2 416.104 1021.2 349.027V143.938H778.797Z" stroke="black" stroke-width="4.2" stroke-miterlimit="4.8"/>
    </g>
    <defs>
        <clipPath id="clip0_2064_2385">
            <rect width="1200" height="600" fill="white"/>
        </clipPath>
    </defs>
</svg>
