<svg width="760" height="400" viewBox="0 0 760 400" fill="none"
    xmlns="http://www.w3.org/2000/svg">
    <g clip-path="url(#clip0_2064_2507)">
        <path id="1" d="M0 0H760V400H0V0Z" fill="#EDEDF0"/>
        <g id="2">
            <path d="M380 40L367.639 78.0423L386.66 84.2226" fill="#DDDDDD"/>
            <path d="M380 40L392.361 78.0423L373.34 84.2226" fill="#DDDDDD"/>
            <path d="M418.042 67.6393H378.042V87.6393" fill="#DDDDDD"/>
            <path d="M418.042 67.6393L385.682 91.1507L373.926 74.9704" fill="#DDDDDD"/>
            <path d="M403.511 112.361L391.151 74.3184L372.13 80.4988" fill="#DDDDDD"/>
            <path d="M403.511 112.361L371.151 88.8493L382.906 72.6689" fill="#DDDDDD"/>
            <path d="M356.489 112.361L388.849 88.8493L377.094 72.6689" fill="#DDDDDD"/>
            <path d="M356.489 112.361L368.849 74.3184L387.87 80.4988" fill="#DDDDDD"/>
            <path d="M341.958 67.6393L374.318 91.1507L386.074 74.9704" fill="#DDDDDD"/>
            <path d="M341.958 67.6393H381.958V87.6393" fill="#DDDDDD"/>
            <path d="M540 200L501.958 187.639L495.777 206.66" fill="#DDDDDD"/>
            <path d="M540 200L501.958 212.361L495.777 193.34" fill="#DDDDDD"/>
            <path d="M512.361 238.042V198.042H492.361" fill="#DDDDDD"/>
            <path d="M512.361 238.042L488.849 205.682L505.03 193.926" fill="#DDDDDD"/>
            <path d="M467.639 223.511L505.682 211.151L499.501 192.13" fill="#DDDDDD"/>
            <path d="M467.639 223.511L491.151 191.151L507.331 202.906" fill="#DDDDDD"/>
            <path d="M467.639 176.489L491.151 208.849L507.331 197.094" fill="#DDDDDD"/>
            <path d="M467.639 176.489L505.682 188.849L499.501 207.87" fill="#DDDDDD"/>
            <path d="M512.361 161.958L488.849 194.318L505.03 206.074" fill="#DDDDDD"/>
            <path d="M512.361 161.958V201.958H492.361" fill="#DDDDDD"/>
            <path d="M380 360L392.361 321.958L373.34 315.777" fill="#DDDDDD"/>
            <path d="M380 360L367.639 321.958L386.66 315.777" fill="#DDDDDD"/>
            <path d="M341.958 332.361H381.958V312.361" fill="#DDDDDD"/>
            <path d="M341.958 332.361L374.318 308.849L386.074 325.03" fill="#DDDDDD"/>
            <path d="M356.489 287.639L368.849 325.682L387.87 319.501" fill="#DDDDDD"/>
            <path d="M356.489 287.639L388.849 311.151L377.094 327.331" fill="#DDDDDD"/>
            <path d="M403.511 287.639L371.151 311.151L382.906 327.331" fill="#DDDDDD"/>
            <path d="M403.511 287.639L391.151 325.682L372.13 319.501" fill="#DDDDDD"/>
            <path d="M418.042 332.361L385.682 308.849L373.926 325.03" fill="#DDDDDD"/>
            <path d="M418.042 332.361H378.042V312.361" fill="#DDDDDD"/>
            <path d="M220 200L258.042 212.361L264.223 193.34" fill="#DDDDDD"/>
            <path d="M220 200L258.042 187.639L264.223 206.66" fill="#DDDDDD"/>
            <path d="M247.639 161.958V201.958H267.639" fill="#DDDDDD"/>
            <path d="M247.639 161.958L271.151 194.318L254.97 206.074" fill="#DDDDDD"/>
            <path d="M292.361 176.489L254.318 188.849L260.499 207.87" fill="#DDDDDD"/>
            <path d="M292.361 176.489L268.849 208.849L252.669 197.094" fill="#DDDDDD"/>
            <path d="M292.361 223.511L268.849 191.151L252.669 202.906" fill="#DDDDDD"/>
            <path d="M292.361 223.511L254.318 211.151L260.499 192.13" fill="#DDDDDD"/>
            <path d="M247.639 238.042L271.151 205.682L254.97 193.926" fill="#DDDDDD"/>
            <path d="M247.639 238.042V198.042H267.639" fill="#DDDDDD"/>
        </g>
    </g>
    <defs>
        <clipPath id="clip0_2064_2507">
            <rect width="760" height="400" fill="white"/>
        </clipPath>
    </defs>
</svg>
