<svg width="600" height="360" viewBox="0 0 600 360" fill="none"
    xmlns="http://www.w3.org/2000/svg">
    <g clip-path="url(#clip0_2055_421)">
        <path id="1" d="M0 0H600V360H0V0Z" fill="#EDEDF0"/>
        <path id="2" d="M50.3984 50.3984H549.598V309.598H50.3984V50.3984Z" fill="#DDDDDD"/>
        <path id="3" d="M50.3984 50.3984H549.598L50.3984 309.598H549.598L50.3984 50.3984Z" fill="#CCCCCC"/>
        <path id="4" d="M300.001 223.197C323.859 223.197 343.201 203.856 343.201 179.997C343.201 156.138 323.859 136.797 300.001 136.797C276.142 136.797 256.801 156.138 256.801 179.997C256.801 203.856 276.142 223.197 300.001 223.197Z" fill="#BBBBBB"/>
        <path d="M300 140.398L287.763 178.06L306.594 184.179" fill="#FCD116"/>
        <path d="M300 140.398L312.237 178.06L293.406 184.179" fill="#FCD116"/>
        <path d="M337.664 167.758H298.064V187.558" fill="#FCD116"/>
        <path d="M337.664 167.758L305.627 191.034L293.989 175.016" fill="#FCD116"/>
        <path d="M323.277 212.039L311.04 174.377L292.209 180.496" fill="#FCD116"/>
        <path d="M323.277 212.039L291.24 188.763L302.878 172.744" fill="#FCD116"/>
        <path d="M276.723 212.031L308.76 188.755L297.122 172.736" fill="#FCD116"/>
        <path d="M276.723 212.031L288.96 174.369L307.791 180.488" fill="#FCD116"/>
        <path d="M262.34 167.766L294.377 191.042L306.015 175.023" fill="#FCD116"/>
        <path d="M262.34 167.766H301.94V187.566" fill="#FCD116"/>
        <path d="M180.004 1.79688L172.773 24.0516L183.9 27.6671" fill="#FCD116"/>
        <path d="M180.004 1.79688L187.235 24.0516L176.108 27.6671" fill="#FCD116"/>
        <path d="M202.254 17.9688H178.854V29.6687" fill="#FCD116"/>
        <path d="M202.254 17.9688L183.323 31.7229L176.446 22.2574" fill="#FCD116"/>
        <path d="M193.754 44.125L186.523 21.8703L175.396 25.4858" fill="#FCD116"/>
        <path d="M193.754 44.125L174.823 30.3708L181.7 20.9053" fill="#FCD116"/>
        <path d="M166.246 44.1328L185.177 30.3786L178.3 20.9131" fill="#FCD116"/>
        <path d="M166.246 44.1328L173.477 21.8781L184.604 25.4936" fill="#FCD116"/>
        <path d="M157.746 17.9609L176.677 31.7151L183.554 22.2496" fill="#FCD116"/>
        <path d="M157.746 17.9609H181.146V29.6609" fill="#FCD116"/>
        <path d="M300.004 1.79688L292.773 24.0516L303.9 27.6671" fill="#FCD116"/>
        <path d="M300.004 1.79688L307.235 24.0516L296.108 27.6671" fill="#FCD116"/>
        <path d="M322.254 17.9688H298.854V29.6687" fill="#FCD116"/>
        <path d="M322.254 17.9688L303.323 31.7229L296.446 22.2574" fill="#FCD116"/>
        <path d="M313.754 44.125L306.523 21.8703L295.396 25.4858" fill="#FCD116"/>
        <path d="M313.754 44.125L294.823 30.3708L301.7 20.9053" fill="#FCD116"/>
        <path d="M286.246 44.1328L305.177 30.3786L298.3 20.9131" fill="#FCD116"/>
        <path d="M286.246 44.1328L293.477 21.8781L304.604 25.4936" fill="#FCD116"/>
        <path d="M277.746 17.9609L296.677 31.7151L303.554 22.2496" fill="#FCD116"/>
        <path d="M277.746 17.9609H301.146V29.6609" fill="#FCD116"/>
        <path d="M420.004 1.79688L412.773 24.0516L423.9 27.6671" fill="#FCD116"/>
        <path d="M420.004 1.79688L427.235 24.0516L416.108 27.6671" fill="#FCD116"/>
        <path d="M442.254 17.9688H418.854V29.6687" fill="#FCD116"/>
        <path d="M442.254 17.9688L423.323 31.7229L416.446 22.2574" fill="#FCD116"/>
        <path d="M433.754 44.125L426.523 21.8703L415.396 25.4858" fill="#FCD116"/>
        <path d="M433.754 44.125L414.823 30.3708L421.7 20.9053" fill="#FCD116"/>
        <path d="M406.246 44.1328L425.177 30.3786L418.3 20.9131" fill="#FCD116"/>
        <path d="M406.246 44.1328L413.477 21.8781L424.604 25.4936" fill="#FCD116"/>
        <path d="M397.746 17.9609L416.677 31.7151L423.554 22.2496" fill="#FCD116"/>
        <path d="M397.746 17.9609H421.146V29.6609" fill="#FCD116"/>
        <path d="M180.004 311.398L172.773 333.653L183.9 337.269" fill="#FCD116"/>
        <path d="M180.004 311.398L187.235 333.653L176.108 337.269" fill="#FCD116"/>
        <path d="M202.254 327.57H178.854V339.27" fill="#FCD116"/>
        <path d="M202.254 327.57L183.323 341.324L176.446 331.859" fill="#FCD116"/>
        <path d="M193.754 353.727L186.523 331.472L175.396 335.087" fill="#FCD116"/>
        <path d="M193.754 353.727L174.823 339.972L181.7 330.507" fill="#FCD116"/>
        <path d="M166.246 353.734L185.177 339.98L178.3 330.515" fill="#FCD116"/>
        <path d="M166.246 353.734L173.477 331.48L184.604 335.095" fill="#FCD116"/>
        <path d="M157.746 327.562L176.677 341.317L183.554 331.851" fill="#FCD116"/>
        <path d="M157.746 327.562H181.146V339.262" fill="#FCD116"/>
        <path d="M300.004 311.398L292.773 333.653L303.9 337.269" fill="#FCD116"/>
        <path d="M300.004 311.398L307.235 333.653L296.108 337.269" fill="#FCD116"/>
        <path d="M322.254 327.57H298.854V339.27" fill="#FCD116"/>
        <path d="M322.254 327.57L303.323 341.324L296.446 331.859" fill="#FCD116"/>
        <path d="M313.754 353.727L306.523 331.472L295.396 335.087" fill="#FCD116"/>
        <path d="M313.754 353.727L294.823 339.972L301.7 330.507" fill="#FCD116"/>
        <path d="M286.246 353.734L305.177 339.98L298.3 330.515" fill="#FCD116"/>
        <path d="M286.246 353.734L293.477 331.48L304.604 335.095" fill="#FCD116"/>
        <path d="M277.746 327.562L296.677 341.317L303.554 331.851" fill="#FCD116"/>
        <path d="M277.746 327.562H301.146V339.262" fill="#FCD116"/>
        <path d="M420.004 311.398L412.773 333.653L423.9 337.269" fill="#FCD116"/>
        <path d="M420.004 311.398L427.235 333.653L416.108 337.269" fill="#FCD116"/>
        <path d="M442.254 327.57H418.854V339.27" fill="#FCD116"/>
        <path d="M442.254 327.57L423.323 341.324L416.446 331.859" fill="#FCD116"/>
        <path d="M433.754 353.727L426.523 331.472L415.396 335.087" fill="#FCD116"/>
        <path d="M433.754 353.727L414.823 339.972L421.7 330.507" fill="#FCD116"/>
        <path d="M406.246 353.734L425.177 339.98L418.3 330.515" fill="#FCD116"/>
        <path d="M406.246 353.734L413.477 331.48L424.604 335.095" fill="#FCD116"/>
        <path d="M397.746 327.562L416.677 341.317L423.554 331.851" fill="#FCD116"/>
        <path d="M397.746 327.562H421.146V339.262" fill="#FCD116"/>
        <path d="M81.2969 180.494C86.7017 190.562 97.2149 201.518 106.396 205.37C106.544 195.146 102.916 182.042 97.9553 171.602L81.2969 180.494Z" fill="#CE1126"/>
        <path d="M72.1337 145.953C79.9685 162.285 51.8141 201.249 98.7209 210.381C92.9345 202.485 89.2037 189.453 90.6149 178.989C100.456 182.733 110.811 193.689 114.995 202.065C127.271 157.485 83.5073 160.197 72.1337 145.953Z" fill="#FCD116"/>
    </g>
    <defs>
        <clipPath id="clip0_2055_421">
            <rect width="600" height="360" fill="white"/>
        </clipPath>
    </defs>
</svg>
