<svg width="900" height="600" viewBox="0 0 900 600" fill="none"
    xmlns="http://www.w3.org/2000/svg">
    <g clip-path="url(#clip0_1969_845)">
        <path id="1" d="M0 0H900V600H0V0Z" fill="#EDEDF0"/>
        <path id="2" d="M390 0H510V600H390V0ZM0 240H900V360H0V240Z" fill="#DDDDDD"/>
        <g id="3">
            <path d="M173.902 58.6172C187.906 60.4565 202.09 60.4565 216.094 58.6172C207.965 99.1334 207.965 140.861 216.094 181.377C202.09 179.538 187.906 179.538 173.902 181.377C182.032 140.861 182.032 99.1334 173.902 58.6172Z" fill="#DDDDDD"/>
            <path d="M256.379 98.8984C254.54 112.902 254.54 127.087 256.379 141.09C215.863 132.961 174.135 132.961 133.619 141.09C135.458 127.087 135.458 112.902 133.619 98.8984C174.135 107.028 215.863 107.028 256.379 98.8984Z" fill="#DDDDDD"/>
            <path d="M683.902 58.6172C697.906 60.4565 712.09 60.4565 726.094 58.6172C717.965 99.1334 717.965 140.861 726.094 181.377C712.09 179.538 697.906 179.538 683.902 181.377C692.032 140.861 692.032 99.1334 683.902 58.6172Z" fill="#DDDDDD"/>
            <path d="M766.379 98.8984C764.54 112.902 764.54 127.087 766.379 141.09C725.863 132.961 684.135 132.961 643.619 141.09C645.458 127.087 645.458 112.902 643.619 98.8984C684.135 107.028 725.863 107.028 766.379 98.8984Z" fill="#DDDDDD"/>
            <path d="M173.902 418.617C187.906 420.456 202.09 420.456 216.094 418.617C207.965 459.133 207.965 500.861 216.094 541.377C202.09 539.538 187.906 539.538 173.902 541.377C182.032 500.861 182.032 459.133 173.902 418.617Z" fill="#DDDDDD"/>
            <path d="M256.379 458.898C254.54 472.902 254.54 487.087 256.379 501.09C215.863 492.961 174.135 492.961 133.619 501.09C135.458 487.087 135.458 472.902 133.619 458.898C174.135 467.028 215.863 467.028 256.379 458.898Z" fill="#DDDDDD"/>
            <path d="M683.902 418.617C697.906 420.456 712.09 420.456 726.094 418.617C717.965 459.133 717.965 500.861 726.094 541.377C712.09 539.538 697.906 539.538 683.902 541.377C692.032 500.861 692.032 459.133 683.902 418.617Z" fill="#DDDDDD"/>
            <path d="M766.379 458.898C764.54 472.902 764.54 487.087 766.379 501.09C725.863 492.961 684.135 492.961 643.619 501.09C645.458 487.087 645.458 472.902 643.619 458.898C684.135 467.028 725.863 467.028 766.379 458.898Z" fill="#DDDDDD"/>
        </g>
    </g>
    <defs>
        <clipPath id="clip0_1969_845">
            <rect width="900" height="600" fill="white"/>
        </clipPath>
    </defs>
</svg>
