<svg xmlns="http://www.w3.org/2000/svg" width="960" height="600" fill="none" viewBox="0 0 960 600">
  <g id="georgia" clip-path="url(#clip0_969_5710)">
    <path id="1" fill="#EEE" d="M0 0h960v600H0V0Z"/>
    <path id="2" fill="#DDD" d="M0 200h960v200H400L0 200Z"/>
    <path id="3" fill="#CCC" d="M0 0h400v400H0V0Z"/>
    <path id="Vector" fill="#fff" d="m208.953 54.694 14.249-10.047-17.439-.251-5.161-16.662-5.617 16.508-17.438-.25 13.967 10.453-5.615 16.508 14.248-10.048 13.968 10.452-5.162-16.663Zm-68.524 12.263 7.947-15.518-15.558 7.882-12.312-12.355 2.698 17.226-15.557 7.882 17.224 2.765 2.699 17.226 7.947-15.518 17.224 2.765-12.312-12.355Zm-55.19 43.04-.174-17.432-10.114 14.208-16.642-5.219 10.393 14-10.112 14.207 16.535-5.555 10.394 13.998-.173-17.433 16.535-5.555-16.643-5.219ZM56.8 173.627l-8.254-15.354-2.353 17.279-17.16 3.112 15.707 7.567-2.352 17.278 12.06-12.602 15.708 7.565-8.254-15.355 12.06-12.602-17.162 3.112Zm4.017 69.395-14.443-9.76 5.945 16.393-13.748 10.729 17.424-.599 5.945 16.392 4.824-16.762 17.423-.6-14.444-9.76 4.823-16.762-13.75 10.729Zm35.963 59.975-17.324-1.931 12.882 11.753-7.188 15.888 15.149-8.626 12.881 11.751-3.518-17.083 15.148-8.627-17.324-1.931-3.518-17.083-7.188 15.889Zm59.822 36.011-16.236 6.339 16.866 4.421 1.019 17.408 9.405-14.678 16.866 4.42-11.053-13.491 9.404-14.678-16.236 6.34-11.053-13.49 1.018 17.409Zm69.339 4.285L214.51 356.45l16.989-3.923 8.99 14.94 1.508-17.366 16.987-3.923-16.055-6.81 1.506-17.366-11.43 13.158-16.055-6.809 8.991 14.942Zm63.783-28.361-4.007 16.961 13.22-11.367 14.902 9.051-6.734-16.077 13.218-11.368-17.38 1.431-6.736-16.076-4.006 16.962-17.38 1.431 14.903 9.052Zm43.064-55.078 4.334 16.88 6.423-16.208 17.401 1.09-13.433-11.107 6.422-16.207-14.725 9.343-13.434-11.105 4.334 16.881-14.724 9.343 17.402 1.09Zm-7.864-134.992 16.352 6.023-9.688-14.492 10.782-13.7-16.77 4.744-9.688-14.491-.677 17.424-16.769 4.745 16.352 6.024-.676 17.423 10.782-13.7Zm-49.432-49.487 17.278-2.265-15.312-8.33 3.181-17.14-12.645 11.993-15.311-8.33 7.496 15.742-12.643 11.994 17.278-2.264 7.497 15.74 3.181-17.14Zm69.818 116.111 11.681 12.933-1.844-17.335 15.914-7.121-17.055-3.592-1.845-17.335-8.696 15.114-17.055-3.59 11.681 12.933-8.695 15.114 15.914-7.121Z"/>
    <path id="Vector_2" fill="#EED000" fill-rule="evenodd" stroke="#EED000" stroke-miterlimit="3.864" stroke-width=".227" d="M127.593 290.277h-5.049v-.561l.616-.048c.269-.021.459-.052.569-.095a.791.791 0 0 0 .38-.277c.079-.121.118-.287.118-.498v-8.134c0-.184-.029-.337-.087-.459-.058-.126-.195-.232-.411-.316a3.914 3.914 0 0 0-.6-.174 3.665 3.665 0 0 0-.585-.103v-.562h5.05v.562a4.947 4.947 0 0 0-.585.063 3.742 3.742 0 0 0-.593.127c-.2.063-.334.166-.403.309-.068.142-.103.3-.103.474v8.126c0 .174.037.33.111.467a.813.813 0 0 0 .395.316c.111.042.29.09.538.142a4.3 4.3 0 0 0 .64.08v.561h-.001Zm13.836-10.665c-.147.005-.374.048-.679.127-.306.079-.524.16-.656.245-.19.132-.319.385-.387.759-.063.375-.095.85-.095 1.425v8.22h-.688l-6.796-9.186v5.792c0 .649.04 1.147.119 1.495.084.349.211.596.379.744.121.116.371.224.751.325.379.1.629.153.751.158v.561h-4.6v-.561a4.63 4.63 0 0 0 .72-.151c.337-.095.547-.179.632-.253.184-.147.311-.372.379-.672.068-.306.103-.826.103-1.559v-5.531c0-.242-.042-.485-.126-.727a1.366 1.366 0 0 0-.34-.562c-.19-.174-.448-.322-.775-.443-.321-.127-.582-.195-.782-.206v-.562h3.2l6.307 8.561v-5.34c0-.654-.043-1.155-.127-1.504-.084-.353-.205-.588-.363-.704-.148-.1-.39-.198-.727-.293a3.903 3.903 0 0 0-.759-.158v-.562h4.56v.562h-.001Zm16.539 6.179c-.127.016-.298.043-.514.079-.211.032-.382.08-.513.143a.706.706 0 0 0-.34.34 1.242 1.242 0 0 0-.095.506v.871c0 .633.003 1.06.008 1.281.01.222.021.404.032.546a11.89 11.89 0 0 1-2.095.728 8.639 8.639 0 0 1-2.046.253 5.463 5.463 0 0 1-2.071-.403 5.168 5.168 0 0 1-1.738-1.147 5.51 5.51 0 0 1-1.194-1.828c-.295-.717-.442-1.519-.442-2.405 0-.855.139-1.646.418-2.374a5.707 5.707 0 0 1 1.202-1.907 5.21 5.21 0 0 1 1.786-1.226 5.644 5.644 0 0 1 2.228-.443c.632 0 1.183.077 1.652.229.468.154.882.338 1.24.554l.324-.538h.632l.072 3.925h-.648a11.122 11.122 0 0 0-.411-1.274 4.488 4.488 0 0 0-.632-1.132 2.888 2.888 0 0 0-.949-.791c-.369-.2-.811-.3-1.327-.301-.564 0-1.067.116-1.51.348a3.267 3.267 0 0 0-1.154 1.021c-.321.438-.569.984-.742 1.638a8.53 8.53 0 0 0-.261 2.192c0 .712.084 1.384.253 2.017.174.628.424 1.171.75 1.63.327.469.735.839 1.225 1.108.49.269 1.046.403 1.668.403.463 0 .885-.071 1.264-.213.385-.143.656-.293.814-.451.042-.275.063-.551.063-.831.005-.279.008-.517.008-.712v-.617c0-.222-.031-.417-.095-.586a.62.62 0 0 0-.371-.38 2.505 2.505 0 0 0-.711-.174 9.674 9.674 0 0 0-.696-.079v-.577h4.916v.577Zm11.026-5.412a5.521 5.521 0 0 1 1.162 1.876c.279.727.418 1.535.419 2.421 0 .891-.143 1.701-.427 2.429-.427 1.092-.68 1.348-1.185 1.859a5.141 5.141 0 0 1-1.707 1.171 5.268 5.268 0 0 1-2.071.411c-.78 0-1.501-.145-2.165-.435a5.06 5.06 0 0 1-1.699-1.226 5.605 5.605 0 0 1-1.122-1.859 6.77 6.77 0 0 1-.403-2.35c0-.913.142-1.725.426-2.437a5.696 5.696 0 0 1 1.178-1.86 5.092 5.092 0 0 1 1.723-1.186 5.326 5.326 0 0 1 2.062-.412c.743 0 1.444.14 2.102.42a5.014 5.014 0 0 1 1.707 1.178Zm-1.177 7.96c.295-.48.508-1.023.64-1.63a9.245 9.245 0 0 0 .205-2.033c0-.77-.076-1.477-.229-2.121-.147-.643-.366-1.192-.656-1.646a3.13 3.13 0 0 0-1.09-1.044c-.438-.253-.938-.38-1.502-.38-.632 0-1.169.145-1.612.435a3.394 3.394 0 0 0-1.083 1.163 5.665 5.665 0 0 0-.592 1.63 9.808 9.808 0 0 0-.19 1.963c0 .759.069 1.445.205 2.057.137.612.353 1.155.649 1.63.284.464.642.828 1.074 1.091.432.259.948.388 1.549.388a2.98 2.98 0 0 0 1.525-.395 3.101 3.101 0 0 0 1.107-1.108Zm15.18-3.608c0 .955-.179 1.783-.537 2.484a5.088 5.088 0 0 1-1.399 1.725c-.58.449-1.23.784-1.952 1.005a7.563 7.563 0 0 1-2.236.332h-4.647v-.561c.152 0 .35-.013.592-.04.248-.031.411-.066.49-.103a.66.66 0 0 0 .34-.3 1.02 1.02 0 0 0 .111-.491v-8.102c0-.179-.032-.34-.095-.482-.058-.143-.177-.256-.356-.34a2.148 2.148 0 0 0-.529-.175 4.736 4.736 0 0 0-.49-.071v-.562h4.9c.674 0 1.337.106 1.991.317a5.86 5.86 0 0 1 1.707.839 4.857 4.857 0 0 1 1.549 1.843c.374.759.561 1.654.561 2.682Zm-1.936-.008c0-.754-.1-1.435-.301-2.041a4.697 4.697 0 0 0-.877-1.599 3.857 3.857 0 0 0-1.343-1.02 4.086 4.086 0 0 0-1.762-.372c-.216 0-.461.005-.735.016-.269.005-.469.011-.601.016v8.631c0 .481.14.813.419.997.279.185.709.277 1.288.277.669 0 1.254-.118 1.754-.356a3.154 3.154 0 0 0 1.217-.989c.327-.443.564-.954.712-1.535.152-.585.229-1.26.229-2.025Zm23.35-5.111a1.71 1.71 0 0 0-.458.095 2.079 2.079 0 0 0-.482.214 1.67 1.67 0 0 0-.451.403 2.087 2.087 0 0 0-.292.625 1462.68 1462.68 0 0 0-1.304 4.273 865.606 865.606 0 0 1-1.604 5.198h-.727l-2.829-8.64-2.948 8.64h-.695c-.541-1.915-1.081-3.829-1.62-5.744l-1.123-3.996a1.336 1.336 0 0 0-.213-.435 1.419 1.419 0 0 0-.371-.348 1.381 1.381 0 0 0-.467-.198 2.61 2.61 0 0 0-.474-.087v-.562h4.576v.562a7.057 7.057 0 0 0-1.027.119c-.28.058-.419.156-.419.293 0 .053.008.124.023.213l.04.206c.121.464.334 1.232.64 2.302.311 1.066.769 2.664 1.375 4.795l2.797-8.331h.775l2.821 8.513c.331-1.141.658-2.283.98-3.426.274-.981.5-1.82.679-2.516.127-.49.206-.825.238-1.005a2.9 2.9 0 0 0 .047-.467c0-.179-.124-.329-.371-.451-.243-.121-.638-.203-1.186-.245v-.562h4.07v.562Zm10.888 7.358-.213 3.307h-9.309v-.561c.211-.016.422-.037.632-.064.263-.036.435-.073.514-.11.168-.08.284-.182.348-.309.068-.127.102-.287.102-.483v-8.07c0-.174-.029-.327-.087-.459-.058-.137-.179-.248-.363-.332a2.666 2.666 0 0 0-.577-.182 4.078 4.078 0 0 0-.569-.095v-.562h8.677v2.706h-.593c-.105-.401-.334-.825-.687-1.274-.348-.453-.68-.701-.996-.744a7.6 7.6 0 0 0-.585-.047 16.156 16.156 0 0 0-.774-.016h-1.762v4.463h1.264c.406 0 .701-.037.885-.111.19-.079.356-.209.498-.388.116-.153.213-.356.292-.609.085-.258.14-.501.166-.728h.593v4.391h-.593a3.402 3.402 0 0 0-.173-.799c-.09-.285-.185-.491-.285-.617a1.136 1.136 0 0 0-.561-.404c-.205-.063-.479-.095-.822-.095h-1.264v3.371c0 .338.024.604.071.799.047.195.14.343.276.443.137.1.324.166.562.198.237.026.574.039 1.011.039h.688c.284 0 .524-.009.719-.031.207-.023.413-.06.616-.111.216-.058.369-.134.458-.229.243-.254.495-.636.759-1.148.269-.516.44-.896.514-1.139h.568Zm16.494-4.874h-.545a3.605 3.605 0 0 0-.261-.672 5.669 5.669 0 0 0-.411-.744 3.509 3.509 0 0 0-.522-.633c-.184-.184-.363-.29-.537-.316a7.677 7.677 0 0 0-.616-.048 15.466 15.466 0 0 0-.688-.015h-.458v8.98c0 .174.037.335.11.482a.745.745 0 0 0 .388.333c.094.037.292.087.592.15.306.063.543.098.712.103v.562h-5.295v-.562c.147-.011.371-.032.672-.063.305-.032.516-.072.632-.119a.752.752 0 0 0 .379-.293c.084-.132.126-.306.127-.522v-9.051h-.459c-.163 0-.366.005-.608.015a7.35 7.35 0 0 0-.696.048c-.174.021-.355.127-.545.316a4.193 4.193 0 0 0-.514.633c-.237.356-.297.491-.418.76a4.295 4.295 0 0 0-.253.657h-.553v-3.047h9.767v3.046Zm12.745 8.181h-3.019a68.166 68.166 0 0 0-1.817-2.721 61.538 61.538 0 0 0-1.754-2.366h-1.146v3.56c0 .185.029.349.087.491.058.137.181.243.371.316.095.037.261.072.498.103.237.032.437.05.601.056v.561h-4.742v-.561c.126-.012.308-.029.545-.056.242-.026.411-.06.506-.103a.66.66 0 0 0 .34-.3 1.04 1.04 0 0 0 .111-.507v-8.117c0-.185-.027-.348-.079-.491-.053-.142-.177-.251-.372-.324a3.136 3.136 0 0 0-.513-.127 4.346 4.346 0 0 0-.538-.079v-.562h5.176c.474 0 .92.05 1.336.15.416.096.793.251 1.13.467.326.211.587.488.782.831.195.338.293.746.293 1.226 0 .433-.066.815-.198 1.148a2.354 2.354 0 0 1-.585.862 3.52 3.52 0 0 1-.853.593 6.671 6.671 0 0 1-1.098.42c.553.733 1.011 1.35 1.375 1.851.368.501.819 1.11 1.351 1.828.232.316.44.551.624.704.19.148.377.269.561.364.137.068.308.121.514.158.205.037.376.058.513.063v.562Zm-4.156-8.371c0-.68-.195-1.218-.585-1.614-.39-.4-.941-.601-1.652-.601h-1.343v4.818h1.035c.727 0 1.333-.232 1.818-.696.484-.469.726-1.105.727-1.907Zm15.883-2.294a4.431 4.431 0 0 0-.648.095 2.019 2.019 0 0 0-.695.261c-.179.121-.303.372-.371.752-.069.38-.103.844-.103 1.392v4.882c0 .622-.129 1.163-.387 1.622a3.403 3.403 0 0 1-1.02 1.131 4.199 4.199 0 0 1-1.32.609c-.458.127-.898.19-1.319.19-.675 0-1.275-.089-1.802-.269-.527-.174-.97-.411-1.328-.712a3.012 3.012 0 0 1-.798-1.028 2.896 2.896 0 0 1-.269-1.219v-6.638a.98.98 0 0 0-.095-.459c-.058-.126-.179-.242-.363-.348a1.755 1.755 0 0 0-.506-.174 3.757 3.757 0 0 0-.506-.087v-.562h4.671v.562a4.068 4.068 0 0 0-.561.071 3.781 3.781 0 0 0-.49.119.578.578 0 0 0-.364.316 1.312 1.312 0 0 0-.087.483v6.203c0 .301.032.617.095.95.068.327.2.633.395.917.206.291.485.528.838.712.353.185.837.277 1.454.277.579 0 1.064-.092 1.454-.277.395-.184.706-.427.932-.727.216-.285.369-.583.459-.895.089-.311.134-.624.134-.941v-4.605c0-.585-.042-1.063-.126-1.432-.085-.374-.209-.62-.372-.736-.184-.132-.437-.235-.758-.309a4.968 4.968 0 0 0-.727-.126v-.562h4.583v.562Zm8.317 5.515c.237.263.411.554.521.87.116.311.174.675.174 1.092 0 .992-.366 1.809-1.098 2.453-.733.643-1.641.965-2.726.965a5.117 5.117 0 0 1-1.502-.23 5.948 5.948 0 0 1-1.296-.569l-.34.577h-.632l-.111-3.845h.641c.131.475.284.905.458 1.29.179.379.413.735.703 1.068.268.307.593.559.956.743.369.185.796.277 1.281.277.363 0 .679-.047.948-.142.274-.095.495-.23.664-.403a1.61 1.61 0 0 0 .371-.61 2.46 2.46 0 0 0 .127-.815c0-.448-.127-.865-.38-1.25-.253-.39-.629-.685-1.13-.886-.39-.155-.783-.306-1.177-.451a18.686 18.686 0 0 1-1.146-.475c-.632-.284-1.125-.656-1.478-1.115-.348-.464-.521-1.068-.521-1.812 0-.427.087-.825.26-1.195.174-.369.422-.698.743-.989a3.332 3.332 0 0 1 1.083-.641 3.65 3.65 0 0 1 1.304-.237c.516 0 .977.079 1.383.237.411.159.785.343 1.122.554l.324-.538h.632l.063 3.727h-.64a13.582 13.582 0 0 0-.395-1.227 4.237 4.237 0 0 0-.561-1.06 2.57 2.57 0 0 0-.83-.728c-.327-.184-.727-.276-1.201-.277a1.83 1.83 0 0 0-1.28.483c-.353.322-.53.715-.53 1.179 0 .485.113.889.34 1.211.227.316.556.577.988.783.369.178.746.339 1.13.482.374.133.735.275 1.083.428.312.135.616.291.908.467.295.174.551.377.767.609Zm12.137-3.031h-.545a3.605 3.605 0 0 0-.261-.672 5.669 5.669 0 0 0-.411-.744 3.509 3.509 0 0 0-.522-.633c-.184-.184-.363-.29-.537-.316a7.64 7.64 0 0 0-.616-.048 15.466 15.466 0 0 0-.688-.015h-.458v8.98c0 .174.037.335.11.482a.745.745 0 0 0 .388.333c.094.037.292.087.592.15.306.063.543.098.711.103v.562h-5.294v-.562c.147-.011.371-.032.671-.063.306-.032.517-.072.633-.119a.757.757 0 0 0 .379-.293c.084-.132.126-.306.126-.522v-9.051h-.458c-.163 0-.366.005-.608.015a7.35 7.35 0 0 0-.696.048c-.174.021-.355.127-.545.316a4.193 4.193 0 0 0-.514.633 4.096 4.096 0 0 0-.418.76 4.295 4.295 0 0 0-.253.657h-.554v-3.047h9.768v3.046Z" clip-rule="evenodd"/>
    <path id="Vector_3" fill="#EED000" d="M200.401 148.083a.197.197 0 0 1 .036-.013c.009-.002 1.395.496 1.407 2.667 1.226-.23 1.721.417 1.485 1.942 0 0-1.456-.393-1.694.437-.357.959-.085 1.741.817 2.345 0 0 1.514 1.2 2.466-1.074a196.791 196.791 0 0 1 1.296-3.048c.265-.837 1.842-2.801 3.274-3.076.546-.218 1.068-.175 1.651-.036 0 0 1.254.271 1.289 1.319.036 1.047-.392 1.503-1.099 1.807-.781.336-1.746-.386-1.746-.386-.336-.063-.444.054-.65.197-.095.066-.492.502-.722.992 0 0-.696 1.47-1.027 2.593-.262.885-.838 3.56-3.546 3.962h-6.392c-2.709-.402-3.285-3.077-3.546-3.962-.332-1.123-1.028-2.593-1.028-2.593-.23-.49-.626-.926-.721-.992-.207-.143-.315-.259-.651-.197 0 0-.965.722-1.746.386-.707-.304-1.135-.76-1.099-1.807.036-1.048 1.289-1.319 1.289-1.319.583-.139 1.105-.182 1.651.036 1.432.275 3.01 2.239 3.274 3.076 0 0 .343.774 1.296 3.048.952 2.274 2.466 1.074 2.466 1.074.902-.604 1.174-1.386.817-2.345-.237-.831-1.693-.437-1.693-.437-.237-1.525.258-2.172 1.484-1.942.012-2.171 1.398-2.67 1.407-2.667l.036.013h-.081Z"/>
    <path id="Vector_4" fill="#EED000" fill-rule="evenodd" stroke="#002D56" stroke-miterlimit="3.864" stroke-width="1.179" d="M208.355 221.106h-15.473l1.826-60.372h11.893l1.754 60.372Zm-.066 33.572h-16.431l-.001-27.416 16.432-.005v27.421Z" clip-rule="evenodd"/>
    <path id="Vector_5" fill="#EED000" stroke="#002D56" stroke-miterlimit="3.864" stroke-width="1.179" d="M191.589 224.133h16.656c1.16 0 2.101.707 2.101 1.579 0 .873-.941 1.58-2.101 1.58h-16.656c-1.161 0-2.101-.707-2.101-1.58 0-.872.94-1.579 2.101-1.579Z"/>
    <path id="Vector_6" fill="#EED000" fill-rule="evenodd" stroke="#002D56" stroke-miterlimit="3.864" stroke-width="1.179" d="M192.824 221.172h14.54c1.033 0 1.87.663 1.87 1.482 0 .818-.837 1.481-1.87 1.481h-14.54c-1.033 0-1.871-.663-1.871-1.481 0-.819.838-1.482 1.871-1.482Z" clip-rule="evenodd"/>
    <path id="Vector_7" stroke="#002D56" stroke-miterlimit="3.864" stroke-width="1.179" d="M195.566 232.398h8.778v18.075h-8.778v-18.075Z"/>
    <path id="Vector_8" fill="#EED000" stroke="#002D56" stroke-miterlimit="3.864" stroke-width=".681" d="M195.383 158.625h10.084c.828 0 1.5.488 1.5 1.091 0 .602-.672 1.09-1.5 1.09h-10.084c-.829 0-1.501-.488-1.501-1.09 0-.603.672-1.091 1.501-1.091Z"/>
    <path id="Vector_9" fill="#EED000" fill-rule="evenodd" stroke="#002D56" stroke-miterlimit="3.864" stroke-width="1.389" d="M117.738 257.961h167.464v5.647H117.738v-5.647Z" clip-rule="evenodd"/>
    <path id="Vector_10" fill="#EED000" stroke="#002D56" stroke-miterlimit="3.864" stroke-width=".833" d="M110.594 263.555h181.869v5.979H110.594v-5.979Z"/>
    <path id="Vector_11" fill="#EED000" fill-rule="evenodd" stroke="#002D56" stroke-miterlimit="3.864" stroke-width="1.326" d="M122.69 135.344h156.359v3.459H122.69v-3.459Z" clip-rule="evenodd"/>
    <path id="Vector_12" fill="#EED000" fill-rule="evenodd" stroke="#002D56" stroke-linejoin="round" stroke-miterlimit="3.864" stroke-width=".681" d="M249.597 135.237c-8.101-19.408-26.902-32.968-48.802-32.968-21.888 0-40.679 13.579-48.788 32.968h-19.436c8.99-29.83 36.164-51.698 68.224-51.698 32.081 0 59.271 21.827 68.252 51.688l-19.45.01Z" clip-rule="evenodd"/>
    <path id="Vector_13" fill="#EED000" fill-rule="evenodd" stroke="#002D56" stroke-miterlimit="3.864" stroke-width=".833" d="M126.892 138.846s2.702 1.617 4.953 6.43l139.101-.005s2.288-5.382 5.439-6.435l-149.493.01Z" clip-rule="evenodd"/>
    <path id="Vector_14" fill="#EED000" fill-rule="evenodd" stroke="#002D56" stroke-linejoin="round" stroke-miterlimit="3.864" stroke-width=".681" d="M161.402 146.523s12.886 22.116 39.089 21.811c25.885-.3 39.09-21.058 39.09-21.058l6.903 10.228s2.551 3.46-2.401 7.822c-17.494 15.411-31.351 18.439-43.591 18.351-18.078-.989-32.658-7.106-43.742-18.351-1.994-1.658-2.401-3.836-1.801-5.641l6.453-13.162Z" clip-rule="evenodd"/>
    <path id="Vector_15" stroke="#002D56" stroke-miterlimit="3.864" stroke-width=".884" d="M154.687 161.982s-.788-4.475 6.265-.865l.525-14.515m85.495 12.334c-2.251-4.851-6.378 1.091-6.378 1.091l-1.039-12.673"/>
    <path id="Vector_16" fill="#EED000" stroke="#002D56" stroke-miterlimit="3.864" stroke-width=".694" d="M131.093 145.539h139.853c.497 0 .901.42.901.939v.313c0 .518-.404.939-.901.939H131.093c-.497 0-.9-.421-.9-.939v-.313c-.001-.519.403-.939.9-.939Z"/>
    <path id="Vector_17" fill="#EED000" d="M143.455 147.911a.171.171 0 0 1 .036-.013c.009-.002 1.395.496 1.407 2.667 1.226-.23 1.721.418 1.485 1.942 0 0-1.456-.393-1.694.437-.357.96-.085 1.741.817 2.345 0 0 1.514 1.2 2.466-1.074a192.253 192.253 0 0 1 1.296-3.047c.265-.838 1.842-2.801 3.274-3.077.546-.218 1.069-.175 1.651-.036 0 0 1.254.271 1.289 1.319.036 1.047-.392 1.503-1.099 1.807-.781.336-1.746-.385-1.746-.385-.336-.063-.444.053-.65.196-.095.066-.492.502-.722.992 0 0-.696 1.47-1.027 2.594-.262.884-.838 3.559-3.546 3.961H140.3c-2.709-.402-3.285-3.077-3.546-3.961-.332-1.124-1.028-2.594-1.028-2.594-.23-.49-.626-.926-.721-.992-.207-.143-.314-.259-.651-.196 0 0-.965.721-1.746.385-.707-.304-1.135-.76-1.099-1.807.036-1.047 1.289-1.319 1.289-1.319.583-.139 1.105-.182 1.651.036 1.432.276 3.01 2.239 3.274 3.077 0 0 .343.773 1.296 3.047.953 2.274 2.467 1.074 2.467 1.074.901-.604 1.173-1.385.816-2.345-.238-.83-1.693-.437-1.693-.437-.237-1.524.258-2.172 1.484-1.942.012-2.171 1.398-2.67 1.407-2.667l.037.013h-.082Z"/>
    <path id="Vector_18" fill="#EED000" fill-rule="evenodd" stroke="#002D56" stroke-miterlimit="3.864" stroke-width="1.179" d="M151.232 221.106h-15.473l2.058-60.372h11.43l1.985 60.372Zm.479 33.572H135.28v-27.416l16.431-.005v27.421Z" clip-rule="evenodd"/>
    <path id="Vector_19" fill="#EED000" fill-rule="evenodd" stroke="#002D56" stroke-miterlimit="3.864" stroke-width="1.179" d="M135.167 224.135h16.657c1.16 0 2.1.707 2.1 1.58 0 .872-.94 1.579-2.1 1.579h-16.657c-1.16 0-2.1-.707-2.1-1.579 0-.873.94-1.58 2.1-1.58Zm1.059-2.963h14.54c1.033 0 1.87.663 1.87 1.482 0 .818-.837 1.481-1.87 1.481h-14.54c-1.034 0-1.871-.663-1.871-1.481 0-.819.837-1.482 1.871-1.482Z" clip-rule="evenodd"/>
    <path id="Vector_20" stroke="#002D56" stroke-miterlimit="3.864" stroke-width="1.179" d="M139.106 232.398h8.779v18.075h-8.779v-18.075Z"/>
    <path id="Vector_21" fill="#EED000" stroke="#002D56" stroke-miterlimit="3.864" stroke-width=".681" d="M138.454 158.859h10.083c.829 0 1.501.489 1.501 1.091s-.672 1.09-1.501 1.09h-10.083c-.829 0-1.501-.488-1.501-1.09 0-.602.672-1.091 1.501-1.091Z"/>
    <path id="Vector_22" fill="#EED000" fill-rule="evenodd" stroke="#002D56" stroke-miterlimit="3.864" stroke-width=".567" d="M131.791 254.75H155.2v3.159h-23.409v-3.159Z" clip-rule="evenodd"/>
    <path id="Vector_23" fill="#EED000" d="M258.193 148.083a.19.19 0 0 1 .037-.013c.009-.002 1.394.496 1.406 2.667 1.227-.23 1.721.417 1.485 1.942 0 0-1.456-.393-1.693.437-.357.959-.085 1.741.816 2.345 0 0 1.514 1.2 2.467-1.074.952-2.274 1.295-3.048 1.295-3.048.265-.837 1.842-2.801 3.275-3.076.546-.218 1.068-.175 1.651-.036 0 0 1.253.271 1.289 1.319.035 1.047-.392 1.503-1.099 1.807-.781.336-1.746-.386-1.746-.386-.337-.063-.444.054-.651.197-.095.066-.492.502-.722.992 0 0-.695 1.47-1.027 2.593-.261.885-.838 3.56-3.546 3.962h-6.392c-2.708-.402-3.285-3.077-3.546-3.962-.332-1.123-1.028-2.593-1.028-2.593-.229-.49-.626-.926-.721-.992-.207-.143-.314-.259-.651-.197 0 0-.965.722-1.746.386-.707-.304-1.135-.76-1.099-1.807.036-1.048 1.289-1.319 1.289-1.319.583-.139 1.105-.182 1.651.036 1.432.275 3.01 2.239 3.275 3.076 0 0 .343.774 1.295 3.048.953 2.274 2.467 1.074 2.467 1.074.901-.604 1.173-1.386.816-2.345-.237-.831-1.693-.437-1.693-.437-.237-1.525.258-2.172 1.485-1.942.011-2.171 1.397-2.67 1.406-2.667l.037.013h-.082Z"/>
    <path id="Vector_24" fill="#EED000" fill-rule="evenodd" stroke="#002D56" stroke-miterlimit="3.864" stroke-width="1.179" d="M266.264 221.106h-15.473l2.058-60.372h11.43l1.985 60.372Zm.855 33.572h-16.432l-.173-27.416 16.605-.005v27.421Z" clip-rule="evenodd"/>
    <path id="Vector_25" fill="#EED000" stroke="#002D56" stroke-miterlimit="3.864" stroke-width="1.179" d="M250.536 224.133h16.656c1.16 0 2.101.707 2.101 1.579 0 .873-.941 1.58-2.101 1.58h-16.656c-1.161 0-2.101-.707-2.101-1.58 0-.872.94-1.579 2.101-1.579Z"/>
    <path id="Vector_26" fill="#EED000" fill-rule="evenodd" stroke="#002D56" stroke-miterlimit="3.864" stroke-width="1.179" d="M251.382 221.172h14.54c1.033 0 1.87.663 1.87 1.482 0 .818-.837 1.481-1.87 1.481h-14.54c-1.033 0-1.871-.663-1.871-1.481 0-.819.837-1.482 1.871-1.482Z" clip-rule="evenodd"/>
    <path id="Vector_27" stroke="#002D56" stroke-miterlimit="3.864" stroke-width="1.179" d="M254.362 232.398h8.779v18.075h-8.779v-18.075Z"/>
    <path id="Vector_28" fill="#EED000" stroke="#002D56" stroke-miterlimit="3.864" stroke-width=".681" d="M253.408 158.625h10.084c.829 0 1.5.488 1.5 1.091 0 .602-.671 1.09-1.5 1.09h-10.084c-.829 0-1.501-.488-1.501-1.09 0-.603.672-1.091 1.501-1.091Z"/>
    <path id="Vector_29" fill="#EED000" fill-rule="evenodd" stroke="#002D56" stroke-miterlimit="3.864" stroke-width=".567" d="M187.987 254.75h23.409v3.159h-23.409v-3.159Z" clip-rule="evenodd"/>
    <path id="Vector_30" fill="#EED000" fill-rule="evenodd" stroke="#002D56" stroke-miterlimit="3.864" stroke-width="1.032" d="M101.082 211.94c-3.977-2.858-8.178-2.106-8.178-2.106s3.036-4.043 7.878-2.03c3.076 1.278 5.702 6.017 13.505 1.053 7.803-4.964 10.831-7.472 17.707-9.778 7.064-2.368 12.604-2.858 14.255-3.459 1.651-.602 4.233-1.545 5.552-9.477.3-1.805 7.503 15.042 7.503 15.042s-1.051 5.566-7.953 8.725c-6.903 3.159-18.863 5.048-25.51 10.379-2.251 1.805-6.576 4.926-9.191 8.762-6.152 9.025-12.567 10.04-12.567 10.04s5.817-5.094 7.428-11.958c.3-1.279-.191-7.03 2.101-9.326-2.433 2.439-8.593-2.367-7.803-1.73 0 0-.751-1.279-4.727-4.137Zm148.931-25.652s1.201 6.844 14.631 10.304c13.43 3.459 15.531 7.822 17.707 8.875 2.176 1.052 7.829 5.107 13.88 3.083 2.384-.797 9.045-2.632 9.589-2.224.204.339-1.903 3.874-2.161 4.18-4.456 5.28-6.153 6.092-7.803 6.919-3.605 1.807-3.884 2.026-6.453 2.181 0 0 2.401 3.009 2.776 7.897.376 4.889 6.903 9.853 6.903 9.853s-8.703-2.257-12.53-7.446c-3.826-5.19-10.128-9.627-12.454-10.755-2.326-1.129-14.181-5.19-16.657-6.168-2.476-.977-10.204-5.039-11.254-11.582-1.051-6.543 3.826-15.117 3.826-15.117Z" clip-rule="evenodd"/>
    <path id="Vector_31" fill="#EED000" stroke="#002D56" stroke-miterlimit="3.864" stroke-width="1.032" d="M122.682 191.554c-9.116-3.572-6.301-5.983-6.301-5.983 2.243-4.011 5.181-9.048 16.288-13.322 14.856-5.716 30.011-3.158 25.96 3.46-2.463 4.024-6.715 11.056-6.715 11.056s-1.763-4.738-9.866-1.73c-8.103 3.009-10.605 4.283-11.085 5.874-.751 2.482-.451 4.061 5.402 3.159-3.827 1.278-8.09-.056-12.876-2.185l-.807-.329Z"/>
    <path id="Vector_32" fill="#EED000" stroke="#002D56" stroke-linejoin="round" stroke-miterlimit="3.864" stroke-width=".884" d="M261.605 184.808c1.685.434 4.561 1.83 6.256 3.047 8.259 5.932 6.738 11.106 4.448 11.241-2.551.151 16.194-.374 18.445-1.577 2.251-1.203 3.001-2.557 1.65-5.415-1.35-2.858-11.554-20.307-28.21-23.616-16.657-3.309-23.257 3.714-21.833 6.092 1.35 2.256 7.502 9.777 7.727 12.861 1.709-3.227 5.552-4.147 11.517-2.633Z"/>
    <g id="Group">
      <path id="Vector_33" fill="#002D56" fill-rule="evenodd" d="m253.622 181.577-3.215-4.619.837 5.018-1.29.216-1.459-8.744 1.383-.232 4.176 5.846 2.1-6.899 1.225-.205 1.459 8.744-1.708.286-.837-5.018-1.705 5.445-.966.162Zm13.273-3.351c-.278 1.37-.8 2.353-1.564 2.948-.764.592-1.653.784-2.668.577-1.004-.204-1.744-.729-2.22-1.574-.476-.848-.576-1.948-.302-3.299l.101-.495c.255-1.258.753-2.226 1.492-2.903.743-.675 1.675-.899 2.795-.671 1.095.224 1.84.795 2.237 1.716.4.921.474 1.999.224 3.235l-.095.466Zm-1.842-.496.048-.236c.217-1.071.291-1.883.222-2.437-.07-.553-.434-.897-1.092-1.031-.607-.124-1.058.024-1.351.443-.29.421-.555 1.224-.796 2.41l-.043.213c-.243 1.194-.32 2.031-.232 2.513.088.481.455.788 1.103.92.531.109.963-.053 1.297-.485.337-.43.618-1.2.844-2.31Zm8.948 4.331c-.684 1.264-1.43 2.072-2.238 2.425-.805.356-1.672.28-2.602-.226l-2.705-1.473 4.22-7.791 2.426 1.321c1.109.604 1.72 1.371 1.833 2.301.118.929-.137 1.972-.763 3.128l-.171.315Zm-1.645-.962.115-.212c.462-.854.675-1.582.639-2.186-.037-.603-.296-1.036-.779-1.299l-.621-.339-2.962 5.468.764.416c.472.257.926.27 1.36.038.435-.235.93-.864 1.484-1.886Zm6.463 1.328-1.663 1.697 1.782 1.757-.936.955-1.783-1.756-1.75 1.785 2.458 2.422-.924.943-3.809-3.752 6.199-6.324 3.646 3.591-.924.943-2.296-2.261Zm.884 14.017-.949-1.616c1.221-.738 2.032-1.368 2.433-1.89.406-.521.476-1.009.208-1.464l-.226-.385-3.424 2.022-.96-1.635 7.62-4.5 1.678 2.857c.409.696.539 1.281.393 1.757-.146.478-.449.854-.91 1.126l-.414.245c-.434.256-.857.335-1.268.237-.412-.098-.79-.387-1.135-.865.157.676.011 1.338-.437 1.987-.443.651-1.313 1.359-2.609 2.124Zm4.346-5.002.207-.122c.33-.195.517-.417.56-.668.044-.25-.031-.538-.223-.865l-.313-.534-2.015 1.19.26.442c.227.388.464.622.711.701.246.079.517.031.813-.144Zm-28.271 15.944-1.567-1.141.747-2.085-2.243-1.634-1.76 1.347-1.248-.909 7.486-5.506 1.428 1.04-2.843 8.888Zm-.393-4.499 1.074-3.248-2.696 2.067 1.622 1.181Zm10.237.817-1.641-.802-3.299 6.78-1.701-.832 3.299-6.78-1.681-.823.578-1.188 5.023 2.457-.578 1.188Zm4.061.174-3.455 8.161-1.743-.742 3.456-8.161 1.742.742Zm6.702 8.104c-.567 1.277-1.289 2.124-2.164 2.539-.873.412-1.783.406-2.729-.016-.936-.418-1.545-1.09-1.828-2.018-.281-.932-.142-2.027.418-3.287l.205-.461c.521-1.174 1.216-2.011 2.084-2.511.871-.499 1.829-.515 2.873-.049 1.021.456 1.625 1.176 1.814 2.161.191.986.032 2.055-.48 3.207l-.193.435Zm-1.692-.884.098-.22c.443-.998.691-1.775.743-2.331.078-.834-.229-.971-.843-1.245-.566-.252-1.038-.206-1.415.141-.374.347-.806 1.074-1.297 2.18l-.089.198c-.494 1.113-.75 1.914-.768 2.403-.018.49.274.869.878 1.138.495.221.952.157 1.371-.192.422-.347.863-1.038 1.322-2.072Zm7.601 4.618 2.616-4.544 1.167.676-4.422 7.678-.703-.408-.863-6.93-2.778 4.823-1.166-.675 4.421-7.678.878.508.85 6.55Zm-151.061-29.363-1.174.707-6.545-6.401 1.642-.989 4.136 4.061-1.459-5.673 1.15-.693 4.322 3.949-1.712-5.522 1.313-.79 2.56 8.801-1.174.707-4.48-4.039 1.421 5.882Zm6.549-12.552 2.585 8.478-1.81.555-2.586-8.479 1.811-.554Zm10.169 4.524c.13.931-.067 1.661-.593 2.19-.526.525-1.313.861-2.36 1.009-.6.084-1.11.119-1.532.103a4.967 4.967 0 0 1-1.059-.136l-.212-1.512c.228.106.575.186 1.04.239.464.049.913.043 1.347-.018.61-.086 1.017-.23 1.221-.433.207-.203.283-.503.228-.899a1.039 1.039 0 0 0-.344-.645c-.193-.175-.7-.37-1.521-.587-.655-.176-1.18-.445-1.575-.805-.396-.363-.643-.898-.742-1.604-.094-.674.098-1.283.576-1.825.483-.543 1.205-.882 2.168-1.018a5.936 5.936 0 0 1 1.274-.054c.386.024.659.057.818.098l.188 1.338a17.64 17.64 0 0 0-.973-.082 5.226 5.226 0 0 0-1.011.047c-.5.07-.849.203-1.046.397-.198.194-.28.413-.246.657.044.311.16.534.347.669.188.136.706.302 1.554.499.79.181 1.375.471 1.753.869.381.393.614.894.7 1.503Zm27.37-6.027c-.272.534-.67.9-1.195 1.097-.521.196-1.123.119-1.808-.23-.4-.205-.708-.398-.925-.578a2.266 2.266 0 0 1-.48-.53l.614-1.209c.101.122.244.263.429.423.187.157.39.292.607.403a.923.923 0 0 0 .622.093c.209-.042.384-.203.526-.482l3.007-5.916 1.687.861-3.084 6.068Zm9.608 3.543c-.298.779-.759 1.302-1.382 1.57-.622.264-1.41.213-2.363-.153-1.022-.394-1.666-.912-1.932-1.556-.399-.965-.222-1.43.134-2.358l2.133-5.568 1.767.68-2.219 5.792c-.172.45-.207.825-.103 1.125.109.298.4.538.875.721.44.169.804.194 1.093.074.291-.119.537-.438.736-.957l2.206-5.76 1.31.504-2.255 5.886Zm9.355 1.911c-.114.933-.494 1.587-1.138 1.962-.643.37-1.49.491-2.54.362a8.825 8.825 0 0 1-1.506-.298c-.606-.187-.733-.26-.988-.406l.185-1.516c.194.162.508.329.943.501a5.51 5.51 0 0 0 1.306.332c.611.075 1.042.041 1.291-.102.253-.142.404-.411.452-.808a1.036 1.036 0 0 0-.165-.713c-.212-.328-.581-.539-1.318-.961-.586-.341-1.024-.736-1.313-1.186-.289-.454-.39-1.035-.303-1.742.083-.677.426-1.215 1.028-1.614.606-.399 1.391-.539 2.357-.42.468.057.883.15 1.245.277.366.124.621.227.764.308l-.164 1.341c-.303-.119-.609-.23-.919-.332a5.18 5.18 0 0 0-.988-.217c-.501-.061-.872-.024-1.113.112s-.377.327-.407.571c-.038.312.016.557.162.737.147.18.604.475 1.373.885.716.38 1.205.811 1.468 1.294.267.478.363 1.023.288 1.633Zm8.719-4.403-1.826-.032-.131 7.543-1.893-.034.132-7.542-1.871-.033.023-1.321 5.589.097-.023 1.322Zm5.164-1.815 1.077 8.8-1.878.231-1.078-8.799 1.879-.232Zm10.584 6.163c-.098.124-.299.276-.601.454a4.89 4.89 0 0 1-1.096.472c-1.083.331-2.074.25-2.974-.244-.897-.499-1.554-1.433-1.972-2.8l-.104-.343c-.389-1.273-.354-2.402.102-3.386.461-.984 1.214-1.637 2.262-1.958.45-.138.835-.226 1.154-.262.318-.04.574-.04.768-.001l.411 1.348a2.758 2.758 0 0 0-.693-.039c-.28.012-.595.072-.947.179-.653.2-1.082.625-1.288 1.274-.202.647-.159 1.443.129 2.387l.036.118c.308 1.011.706 1.707 1.194 2.085.492.378 1.034.476 1.627.295a3.92 3.92 0 0 0 .99-.439c.257-.173.458-.323.602-.449l.4 1.309Zm2.621-9.394 1.078 2.12 2.227-1.137.607 1.193-2.228 1.138 1.134 2.23 3.07-1.568.599 1.177-4.757 2.43-4.015-7.899 4.554-2.326.598 1.178-2.867 1.464Zm-93.238 42.213c.696 1.258.975 2.323.839 3.196-.134.871-.663 1.564-1.588 2.078l-2.692 1.495-4.29-7.755 2.415-1.342c1.103-.613 2.077-.717 2.921-.312.844.4 1.585 1.175 2.222 2.327l.173.313Zm-1.693.874-.117-.211c-.47-.85-.969-1.422-1.496-1.715-.527-.294-1.031-.308-1.512-.041l-.618.344 3.01 5.442.76-.422c.471-.261.725-.637.763-1.129.036-.494-.228-1.251-.79-2.268Zm9.674-4.208c.545 1.288.671 2.394.377 3.319-.295.922-.92 1.585-1.873 1.991-.943.401-1.849.389-2.719-.037-.871-.429-1.576-1.278-2.113-2.548l-.197-.465c-.501-1.182-.638-2.262-.41-3.24.23-.979.872-1.693 1.924-2.141 1.029-.437 1.966-.389 2.813.144.85.532 1.521 1.378 2.013 2.539l.185.438Zm-1.798.638-.094-.222c-.426-1.006-.824-1.717-1.195-2.134-.37-.417-.864-.494-1.482-.231-.571.243-.859.621-.863 1.133-.002.512.234 1.324.705 2.439l.085.2c.475 1.121.885 1.855 1.229 2.202.345.347.821.392 1.429.133.499-.213.764-.591.795-1.137.035-.546-.168-1.341-.609-2.383Zm8.766 1.607-4.001-3.955 1.736 4.782-1.23.448-3.024-8.331 1.318-.481 5.169 4.985.811-7.167 1.166-.426 3.025 8.332-1.627.593-1.736-4.781-.686 5.665-.921.336Zm11.659-87.746c-.005.182-.085.463-.24.842a5.981 5.981 0 0 1-.679 1.22c-.76 1.086-1.716 1.739-2.866 1.957-1.152.212-2.377-.136-3.677-1.046l-.326-.228c-1.211-.848-1.939-1.876-2.187-3.084-.245-1.211 0-2.342.736-3.393a8.27 8.27 0 0 1 .873-1.076c.262-.267.494-.455.697-.563l1.282.898a3.364 3.364 0 0 0-.657.471 4.723 4.723 0 0 0-.739.852c-.459.655-.563 1.346-.314 2.073.253.723.828 1.399 1.725 2.027l.112.079c.961.673 1.791.999 2.49.979.701-.024 1.26-.333 1.676-.928.282-.402.484-.773.605-1.113.117-.342.199-.621.245-.839l1.244.872Zm4.801-11.839c1.116 1.078 1.711 2.166 1.786 3.265.071 1.097-.315 2.081-1.157 2.953-.833.863-1.8 1.28-2.901 1.25-1.104-.033-2.207-.581-3.308-1.644l-.403-.39c-1.025-.99-1.622-2.046-1.789-3.168-.164-1.126.219-2.17 1.149-3.133.909-.941 1.924-1.335 3.045-1.183 1.125.15 2.191.711 3.198 1.683l.38.367Zm-1.643 1.513-.192-.186c-.873-.842-1.593-1.392-2.16-1.65-.567-.257-1.124-.103-1.67.463-.504.522-.652 1.051-.443 1.585.212.531.801 1.263 1.768 2.196l.173.168c.973.939 1.714 1.507 2.225 1.704.51.197 1.034.017 1.572-.539.441-.457.564-.976.37-1.556-.192-.584-.739-1.312-1.643-2.185Zm10.412-7.561-3.422-4.71 1.277-.928 5.783 7.96-.771.56-7.615-2.108 3.633 5.001-1.277.927-5.782-7.959.959-.698 7.215 1.955Zm12.255-4.985c.441.945.452 1.791.033 2.538-.421.743-1.193 1.377-2.316 1.9-.642.3-1.201.515-1.677.646a6.086 6.086 0 0 1-1.225.226l-.717-1.537c.289.034.701-.002 1.237-.109a6.745 6.745 0 0 0 1.498-.49c.654-.305 1.063-.601 1.226-.888.168-.289.158-.634-.03-1.036a1.117 1.117 0 0 0-.588-.568c-.271-.118-.899-.149-1.885-.092-.787.04-1.458-.061-2.013-.306-.557-.248-1.003-.731-1.337-1.448-.32-.685-.298-1.4.064-2.145.367-.747 1.066-1.36 2.098-1.842a7.37 7.37 0 0 1 1.405-.504c.439-.109.754-.17.944-.181l.634 1.359a21.03 21.03 0 0 0-1.112.252 6.37 6.37 0 0 0-1.114.404c-.536.25-.883.513-1.042.789-.239.413-.181.537-.066.786.147.315.347.512.6.59.252.08.883.075 1.893-.012.94-.083 1.684.02 2.232.312.55.285.97.737 1.258 1.356Zm8.513-8.15-2.066.553 2.167 8.086-2.142.574-2.166-8.087-2.116.568-.38-1.417 6.323-1.695.38 1.417Zm5.746-2.19 2.212-.154.687 9.815-2.212.154-.687-9.815Zm14.062 1.724-2.133-.149-.584 8.352-2.211-.155.584-8.352-2.186-.152.103-1.464 6.53.457-.103 1.463Zm10.764 8.424c-.271.886-.755 1.497-1.453 1.833-.697.333-1.617.324-2.761-.026-1.226-.375-2.025-.912-2.397-1.612-.373-.7-.397-1.578-.074-2.634l1.934-6.329 2.12.648-2.013 6.585c-.156.51-.159.93-.01 1.258.156.325.518.574 1.088.748.527.162.953.167 1.277.015.327-.15.581-.52.762-1.11l2.001-6.546 1.572.48-2.046 6.69ZM232.01 98l-1.905-.971-3.801 7.459-1.975-1.006 3.8-7.46-1.951-.994.665-1.307 5.833 2.972L232.01 98Zm5.436 1.754 1.794 1.303-5.783 7.959-1.794-1.303 5.783-7.96Zm8.629 14.392c-1.097 1.097-2.196 1.673-3.296 1.729-1.098.052-2.075-.351-2.933-1.208-.848-.848-1.248-1.823-1.198-2.923.052-1.103.619-2.196 1.701-3.278l.396-.396c1.008-1.009 2.075-1.586 3.2-1.734 1.128-.145 2.165.257 3.112 1.203.925.925 1.301 1.947 1.129 3.066-.169 1.122-.748 2.178-1.738 3.168l-.373.373Zm-1.484-1.669.189-.189c.857-.858 1.42-1.568 1.687-2.13.401-.844.123-1.122-.433-1.678-.514-.514-1.039-.67-1.577-.47-.535.202-1.277.779-2.227 1.728l-.171.171c-.956.956-1.536 1.687-1.742 2.195-.206.507-.036 1.034.512 1.581.448.449.965.581 1.549.396.586-.181 1.324-.716 2.213-1.604Zm7.589 10.236 4.711-3.422.927 1.276-7.96 5.783-.559-.77 2.107-7.615-5 3.633-.928-1.277 7.96-5.783.697.96-1.955 7.215Z" clip-rule="evenodd"/>
      <path id="Vector_34" fill="#EED000" fill-rule="evenodd" stroke="#EED000" stroke-miterlimit="3.864" stroke-width=".227" d="M232.375 194.301s.542-.597.718-.162c.176.436.214.807.063.969-.151.163-.133.266-.346.539-.213.273-.119.429-.324.56-.206.131-.3.072-.527.06l-.092.677-.148.566.085.544.387.865-.295-.648.413.707c.312.824 3.283 1.652 4.359 2.134 2.241 1.002 1.89 5.766 2.126 6.238.236.472 1.179 6.78 1.179 7.841s-1.179 6.78-1.297 7.959c-.059.588-.205 1.995-.352 3.42-.029.281-.433-.089-.561.165-.169.335-.145 1.302-.105 1.621-.07.696-.268 1.237-.3 1.59-.118 1.297-1.313 1.419-1.313 1.419s-.043 4.436-.278 5.497c-.236 1.061-.397 1.263-.043 4.211.354 2.948-.472 6.603-.472 6.603s-1.217 5.374-1.453 6.2c-.236.825.156 1.583.274 2.172.118.59.118 1.533.118 1.533h-10.368c-.263 0 .183-.933.531-1.592.161-.305.648-.766 1.356-.884.707-.118.766-.884 1.179-1.828.413-.943.236-2.948-.118-4.186s-.825-4.245-.825-5.306-.585-3.478-1.175-5.129c-.589-1.651-.884-5.247-.884-5.601 0-.154-.068-.353-.192-.666-.162-.404-.188-.997-.52-1.928-.59-1.651-.535-3.655-.594-5.365-.059-1.71-.707-3.597-1.006-4.015l-.183-.738-1.818.567-1.758 1.376c-.387.35-.809.409-1.52.472-1.376.123-2.752-1.492-3.075-3.826-.357-2.581.153-3.686 3.024-3.678l1.276.003 1.109.037h.537s.322.628-.179.85c-.501.222-.644.259-.644.259l.641.733c-.012.002.347-.241 1.415-.825l.398-.929c.029-.589.073-.722-.045-1.37-.117-.649-.346-4.377-.346-5.262 0-.884.025-1.93.115-2.951.082-.929.07-2.998.521-3.877.56-1.091 3.588-1.563 3.588-1.563s1.311-.143 1.487-.497c.066-.132.395-.698.535-.918-.842-.3-1.119-1.336-1.242-1.588-.129-.262-.354-1.474-.383-1.592-.044-.174-.308-1.269-.456-1.702-.147-.434-.022-1.225-.022-1.225l-.959-.105-1.16-.089s-.648-.091-.815-.156c-.167-.066-.729-.181-.729-.181s-.922-.789-.008-1.423c.914-.633 1.988-1.221 2.164-1.325a.64.64 0 0 0 .246-.278l-.016-.228c-.211-.324-.415-.761-.677-1.712-.263-.951 2.233-1.348 2.233-1.348.722-.062 3.142.259 2.893.204.506.112.836.093 1.802.087.966-.005 2.226.344 2.928.495.702.15 1.418.8 1.781 1.472.362.673 1.829 1.523 2.262 1.943.654.636 1.432 1.969 1.731 2.456.523.851-.041.648-.217.752-.818.486-5.373-.542-4.976-.492.326.04.249-.076-.103-.266l-.002.321-.266 1.002-.287.335Z" clip-rule="evenodd"/>
    </g>
    <path id="Vector_35" stroke="#002D56" stroke-miterlimit="3.864" stroke-width=".567" d="M227.534 207.053c.144-2.415.343-4.406.707-5.955.118-.501 0-.737 0-.737-.628-.015-1.05-.063-1.7-.814"/>
    <path id="Vector_36" stroke="#002D56" stroke-miterlimit="3.864" stroke-width=".681" d="m223.556 233.39.139-1s.31-.573.192-1.693 0-4.245.295-5.836c.279-1.508 2.644-6.191 2.88-7.429.204-1.068.236-4.658.236-4.952 0-.098-.117-.439-.059-1.769"/>
    <path id="Vector_37" stroke="#002D56" stroke-linejoin="round" stroke-miterlimit="3.864" stroke-width=".753" d="m226.654 198.945-.535.918s-4.515.97-5.076 2.06c-.451.879-.636 5.945-.636 6.829 0 .884.229 4.613.347 5.261.118.649.073.781.044 1.371"/>
    <path id="Vector_38" stroke="#002D56" stroke-miterlimit="3.864" stroke-width=".681" d="M229.243 213.719c.059.471-.062 3.492 1.18 5.424.53.825 2.85 5.321 3.36 5.895.306.344 1.091.478 1.289.946 1.025 2.421-.057 4.803 1.389 5.15l.406 1.389"/>
    <path id="Vector_39" stroke="#002D56" stroke-miterlimit="3.864" stroke-width=".567" d="M232.468 198.898c-.246.341-1.894 1.331-2.864 1.331-.354 0-.145.724-.302 1.578-.165.901-.176 6.014-.059 6.663.048.263-.045.397-.059 1.238"/>
    <path id="Vector_40" stroke="#002D56" stroke-linecap="round" stroke-linejoin="round" stroke-miterlimit="3.864" stroke-width=".681" d="m234.007 205.219.601 2.365.826 4.362.295 2.653.059 2.359-.059 2.004-.236 1.415-.295 1.297-.531 4.245c1.71-.412 2.835-.012 3.656.649"/>
    <path id="Vector_41" stroke="#002D56" stroke-miterlimit="3.864" stroke-width=".681" d="m222.722 200.875.115.405c-.16-.888 2.692 11.724 12.42 17.62l.472.295"/>
    <path id="Vector_42" stroke="#002D56" stroke-miterlimit="3.864" stroke-width=".681" d="M224.631 200.359c1.022 3.248 4.081 11.364 11.068 15.598l.089.59m-9.686 3.127c1.794.376 2.952.376 4.572-.058m-1.764 9.245c.353 2.45.789 5.377.923 5.844.236.826.472 4.953.472 4.953l.118 4.009.118 5.07v5.896c-.969.677-1.477 1.688-1.526 3.033"/>
    <path id="Vector_43" stroke="#002D56" stroke-linejoin="round" stroke-miterlimit="3.864" stroke-width=".627" d="M219.211 216.242c-.601.905-3.573-.813-3.723 1.751-.116 1.97.265 4.197 2.171 4.442l1.402-.928.375-.376"/>
    <path id="Vector_44" fill="#EED000" fill-rule="evenodd" d="M217.444 215.196c-.817-12.798-.437-24.011 1.685-32.501-5.715 8.298-3.365 32.51-3.365 32.51l1.68-.009Z" clip-rule="evenodd"/>
    <path id="Vector_45" stroke="#002D56" stroke-linejoin="round" stroke-miterlimit="3.864" stroke-width=".753" d="m220.813 215.188-.413 1.12c-1.068.584-1.399.615-1.387.614"/>
    <path id="Vector_46" stroke="#002D56" stroke-linejoin="round" stroke-miterlimit="3.864" stroke-width=".627" d="M218.871 216.648s1.047 2.786.19 4.863"/>
    <path id="Vector_47" stroke="#002D56" stroke-linejoin="round" stroke-miterlimit="3.864" stroke-width=".484" d="m217.472 215.266 1.158.025h.537s.322.628-.179.85c-.501.222-.843.217-.843.217"/>
    <path id="Vector_48" stroke="#002D56" stroke-miterlimit="3.864" stroke-width=".484" d="M217.817 222.285c-.387.349-.809.408-1.52.471-1.377.123-2.753-1.492-3.076-3.826-.356-2.58-.013-3.654 2.544-3.727"/>
    <path id="Vector_49" stroke="#002D56" stroke-miterlimit="3.864" stroke-width=".484" d="M218.261 216.336h-1.835s-.975.26-1.019 1.053c-.069 1.264-.092 3.051.451 3.753l.544.561"/>
    <path id="Vector_50" stroke="#002D56" stroke-miterlimit="3.864" stroke-width=".567" d="m224.554 191.694.16.955-.227.41-.991-.066-1.163-.038s-.651-.063-.821-.121c-.17-.058-.736-.148-.736-.148s-.841-1.113.044-1.786 1.796-1.147 1.967-1.259c.172-.112.256-.083.256-.083"/>
    <path id="Vector_51" stroke="#002D56" stroke-miterlimit="3.864" stroke-width=".227" d="M224.544 191.898v1.08"/>
    <path id="Vector_52" stroke="#002D56" stroke-miterlimit="3.864" stroke-width=".454" d="M224.701 192.703s-.276.923-.128 1.357c.147.433.412 1.529.455 1.703.029.117.255 1.329.383 1.591.128.263.422 1.373 1.347 1.62.924.247 1.956.074 2.544-.321"/>
    <path id="Vector_53" stroke="#002D56" stroke-miterlimit="3.864" stroke-width=".34" d="M226.49 196.813s.45-.164.602-.099c.153.064.591.116.591.116s.544-.1.726-.047c.182.052.472.053.558.043m-2.082.571s1.074.209 1.524.02m-.036-4.628s.969-.398 1.816.228"/>
    <path id="Vector_54" stroke="#002D56" stroke-miterlimit="3.864" stroke-width=".272" d="M227.142 192.734c.074.203-.07.792-.196 1.027-.126.234-.163.659-.243.839-.081.181-.182.488-.176.658.005.171.005.157.268.298.262.142.447.02.649-.041.202-.06.382-.118.564-.066.182.052.445-.09.44-.275-.004-.185-.061-.457-.183-.563-.123-.106-.383-.276-.383-.276"/>
    <path id="Vector_55" stroke="#002D56" stroke-miterlimit="3.864" stroke-width=".34" d="M225.332 192.849c.146-.021 1.076-.542 1.848-.005"/>
    <path id="Vector_56" fill="#002D56" stroke="#002D56" stroke-miterlimit="3.864" stroke-width=".227" d="M226.141 193.322c-.351-.006-.636.059-.638.146-.001.088.282.163.633.169.35.006.636-.059.638-.146.001-.087-.282-.163-.633-.169Z"/>
    <path id="Vector_57" stroke="#002D56" stroke-miterlimit="3.864" stroke-width=".454" d="M226.654 198.945a.895.895 0 0 0 .104.032c.924.248 1.956.075 2.544-.321"/>
    <path id="Vector_58" stroke="#002D56" stroke-miterlimit="3.864" stroke-width=".453" d="M224.379 185.994s-2.417.717-2.113 1.655c.304.938.527 1.366.751 1.68.224.313.667 1.537.806 1.878.139.342.055.963.618.686 3.198-1.574 10.082 1.15 8.601 1.031-.399-.032 4.457.972 5.252.451.172-.112.514-.336-.046-1.163-.32-.473-1.294-1.713-1.975-2.32-.451-.401-1.757-1.256-2.149-1.912-.391-.656-1.33-1.203-2.038-1.323-.708-.12-1.981-.414-2.946-.366-.964.048-1.247-.039-1.757-.129.251.045-2.286-.261-3.004-.168Z"/>
    <path id="Vector_59" stroke="#002D56" stroke-miterlimit="3.864" stroke-width=".681" d="M230.211 236.915s2.546 1.562 5.556-.058c2.804-1.51.521-.29.521-.29m-12.095.695s2.818 1.332 5.711-.172"/>
    <path id="Vector_60" fill="#002D56" stroke="#002D56" stroke-miterlimit="3.864" stroke-width=".227" d="M229.242 193.397c-.367-.039-.672.004-.682.095-.01.091.28.196.647.235.367.039.672-.004.681-.095.01-.091-.28-.197-.646-.235Z"/>
    <path id="Vector_61" stroke="#002D56" stroke-miterlimit="3.864" stroke-width=".681" d="M225.524 221.292c1.707.637 4.34.463 5.989-.058"/>
    <path id="Vector_62" fill="#EED000" fill-rule="evenodd" stroke="#002D56" stroke-miterlimit="3.864" stroke-width=".094" d="M247.199 254.75h23.408v3.159h-23.408v-3.159Z" clip-rule="evenodd"/>
  </g>
  <defs>
    <clipPath id="clip0_969_5710">
      <path fill="#fff" d="M0 0h960v600H0z"/>
    </clipPath>
  </defs>
</svg>
