<svg width="1200" height="800" viewBox="0 0 1200 800" fill="none"
    xmlns="http://www.w3.org/2000/svg">
    <g clip-path="url(#clip0_2062_802)">
        <path id="3" d="M0 533H1200V800H0V533Z" fill="#EDEDF0"/>
        <path id="2" d="M0 267H1200V533H0V267Z" fill="#DDDDDD"/>
        <path id="1" d="M0 0H1200V266.667H0V0Z" fill="#EDEDF0"/>
        <path id="4" d="M0 0V800L300 400L0 0Z" fill="#CCCCCC"/>
        <path d="M536 319.602H663.667V453.335C663.667 498.335 605 463.668 600 487.668C591.333 463.002 536.333 498.668 536.333 450.668C536.333 404.002 536 319.602 536 319.602Z" fill="white" stroke="black" stroke-width="1.6"/>
        <path d="M609 466.328C609 466.328 607.333 467.995 604.333 466.661C601.333 465.328 601 380.995 601 380.995C607.667 373.661 613 371.328 613 371.328L617 374.661C602 382.328 603.333 393.328 604.667 412.328C605 419.328 605 428.328 606.667 436.995C609 447.995 613.667 457.328 614 464.328C614.333 468.661 609 466.328 609 466.328Z" fill="#73452B" stroke="black" stroke-width="0.333333"/>
        <path d="M598.669 369.328H604.669C599.669 417.661 604.003 446.328 604.003 460.328C604.003 464.995 606.669 466.661 606.336 466.661C600.336 473.328 597.336 466.328 597.336 466.328L598.669 369.328Z" fill="#73452B" stroke="black" stroke-width="0.333333"/>
        <path d="M589.336 466.331C583.669 468.997 583.003 463.664 583.336 462.997C595.669 437.997 601.003 382.997 589.669 376.997L590.336 371.664C594.669 372.997 598.669 378.664 598.669 378.664C600.336 440.331 598.669 465.664 597.669 466.664C591.669 472.997 589.336 465.664 589.003 464.997" fill="#A36629"/>
        <path d="M589.336 466.331C583.669 468.997 583.003 463.664 583.336 462.997C595.669 437.997 601.003 382.997 589.669 376.997L590.336 371.664C594.669 372.997 598.669 378.664 598.669 378.664C600.336 440.331 598.669 465.664 597.669 466.664C591.669 472.997 589.336 465.664 589.003 464.997" stroke="black" stroke-width="0.333333"/>
        <path d="M589.002 465.333C588.002 460 597.669 446.333 597.002 432M605.336 443.667C608.336 452 609.669 459.333 609.002 466.333" stroke="black" stroke-width="0.333333"/>
        <path d="M618.337 346.663C620.337 344.33 620.337 344.33 624.003 344.33C624.67 339.33 633.003 339.33 633.67 345.663C640.337 344.33 641.67 348.33 639.003 352.33C645.337 350.663 651.003 352.33 649.337 359.663C660.67 362.663 656.337 370.663 651.337 372.33C650.67 377.33 646.003 378.996 639.67 376.996C631.67 382.663 627.003 380.663 623.337 374.996C614.337 376.33 613.67 374.33 609.67 369.33C602.67 372.33 601.337 372.33 595.337 368.663C595.003 373.33 593.337 371.996 590.337 371.663C590.67 377.663 588.337 380.33 583.003 378.33C587.003 386.663 576.67 390.33 571.67 383.33C567.003 383.663 566.67 382.33 564.337 380.663C562.337 387.33 555.003 386.33 553.67 382.663C544.337 381.33 545.337 376.33 553.003 375.996C553.67 370.663 558.337 371.663 561.337 372.33C561.67 368.996 563.67 369.663 565.337 370.33C564.337 367.996 565.003 366.663 568.003 365.996C563.67 360.33 566.337 358.33 570.67 356.33C568.337 350.996 572.337 351.33 575.337 350.996C575.003 345.33 576.67 344.33 582.67 343.663C582.003 341.663 583.003 339.996 586.337 339.996C584.337 334.33 587.003 333.03 593.003 333.996C594.003 325.763 611.67 329.663 610.337 340.996C615.337 341.663 617.003 342.663 618.337 346.663Z" fill="#009A3B" stroke="black" stroke-width="0.333333"/>
        <path d="M582.667 343.667C584 344.333 585.667 343.667 586 347.333C588.667 342.667 592 345.333 592 350.667M610.333 341C609 343 604 343 604.667 348.333C603 346 599.667 345.333 598.333 347.667M618.333 346.667C618.333 348 618 352 616.667 354M639 352.333C639.333 352.667 634.333 352.333 632 354M651.333 372.333C650 371.667 647.333 370 645.333 372.667C645.333 371.333 645.333 367.667 641.667 367.667M639.667 377C639.667 373.667 639 372.667 638.333 371.667M628.667 372.333C626 370.333 623.333 373.333 623.333 375M609.333 369.333C609.333 368 608.333 365.333 610.667 364.333M571.333 383.333C572 380 574.333 380 574 378.333M574 378.333C573.667 375.667 570.667 373.333 567 377M574 378.333C576 377.667 578 378 578.667 379M568.333 366C569.667 364.667 573 365 575 366M575 358C576.667 358 579.667 357.333 580.667 360.333C584.333 354.667 587 355.333 587.667 356.667M594.333 356C597 355 601.667 357.667 604.333 362.333C605.667 358.667 607.667 359.333 609.667 359M622.333 362.333C626.667 360.333 629.333 364.333 630.667 366C632.667 363.333 634.333 363.333 636.333 363.333M582 370.333C583 368.667 585.333 368.333 587 369.333C586.667 366.333 588.667 365 590 365.667" stroke="black" stroke-width="0.333333"/>
        <path d="M595.669 300.865L588.336 301.198L584.669 307.765L580.669 301.498L573.336 301.798L576.669 295.198L572.669 288.931L580.336 288.598L583.669 282.031L587.669 288.298L595.003 287.998L591.669 294.598L595.669 300.865ZM564.336 303.298L557.003 305.098L555.003 312.198L549.669 306.865L542.669 308.598L544.669 301.498L539.669 296.098L546.669 294.331L548.669 287.198L554.003 292.531L561.336 290.798L559.003 297.931L564.336 303.298ZM534.003 309.531L527.336 312.831L527.003 320.231L520.669 316.165L514.003 319.431L514.669 312.031L508.336 307.931L515.003 304.598L515.669 297.198L521.669 301.265L528.336 297.998L528.003 305.398L534.003 309.531ZM605.336 300.865L612.669 301.198L616.003 307.765L620.003 301.498L627.336 301.798L624.003 295.198L628.003 288.931L620.669 288.598L617.003 282.031L613.003 288.298L605.669 287.998L609.003 294.598L605.336 300.865ZM636.669 303.298L643.669 305.098L645.669 312.198L651.003 306.865L658.003 308.598L656.003 301.498L661.336 296.098L654.003 294.331L652.003 287.198L646.669 292.531L639.669 290.798L641.669 297.931L636.669 303.298ZM666.669 309.531L673.336 312.831L673.669 320.231L680.003 316.165L686.669 319.431L686.336 312.031L692.336 307.931L685.669 304.598L685.336 297.198L679.003 301.265L672.336 297.998L673.003 305.398L666.669 309.531Z" fill="#FFD700" stroke="black" stroke-width="1.16667"/>
        <path d="M675.669 450.659L684.003 462.659L691.669 451.326L686.336 441.659L675.669 450.659ZM622.669 485.659L623.336 497.659C623.336 497.659 626.669 497.659 629.669 496.659C632.336 495.659 634.669 493.659 634.669 493.659L634.336 487.326L622.669 485.659ZM578.003 485.659L577.336 497.326C577.336 497.326 574.336 497.326 571.336 496.659C568.669 495.992 566.336 494.326 566.336 494.326L563.003 486.326L578.003 485.659ZM524.336 450.659L515.669 462.659L506.336 447.326L513.336 439.992L524.336 450.659Z" fill="white" stroke="black" stroke-width="1.16667"/>
        <path d="M566 509.664C566 520.997 634.667 520.997 634.667 509.664V493.664C634.667 501.997 566 500.331 566 493.664V509.664Z" fill="white" stroke="black" stroke-width="1.16667"/>
        <path d="M504.668 472.664C510.668 503.331 566.001 503.997 566.001 503.997V493.664C564.668 489.664 567.001 488.331 576.001 486.997C579.668 486.664 578.001 481.331 578.001 481.331C578.001 481.331 554.001 485.664 537.001 478.997C514.001 469.664 510.668 451.664 510.668 451.664C510.668 451.664 509.001 465.664 504.668 472.664ZM695.668 472.664C690.001 503.331 634.668 503.997 634.668 503.997V493.664C635.668 489.664 633.335 488.331 624.335 486.997C620.668 486.664 622.668 481.331 622.668 481.331C622.668 481.331 646.668 485.664 663.668 478.997C686.335 469.664 689.001 451.664 689.001 451.664C689.001 451.664 691.335 465.664 695.668 472.664Z" fill="white" stroke="black" stroke-width="1.16667"/>
        <path d="M509.002 460.995C493.668 452.661 505.668 443.995 507.002 419.328C509.335 434.328 526.335 440.661 524.335 450.328C517.335 450.661 514.002 439.995 510.668 451.661L509.002 460.995ZM691.335 460.995C706.668 452.328 694.002 443.995 692.668 419.328C690.335 434.328 673.668 440.661 675.668 450.328C682.335 450.661 685.668 439.995 689.002 451.661L691.335 460.661V460.995Z" fill="white" stroke="black" stroke-width="1.16667"/>
        <path d="M518.337 472.331L520.004 473.664L516.337 477.664C514.869 479.265 514.515 480.324 515.534 481.299C516.799 482.509 517.689 482.088 519.004 480.664L523.004 476.331L524.337 477.664L520.34 482.327C518.171 484.858 516.157 484.279 514.468 482.701C512.996 481.327 512.152 479.334 514.317 476.883L518.35 472.35L518.337 472.331ZM525.004 477.997L526.67 478.997L526.337 486.997L530.004 481.331L531.67 482.331L526.337 490.997L524.337 489.997L524.67 481.997L521.004 487.664L519.337 486.664L525.004 477.997ZM528.004 491.997L532.67 482.664L534.337 483.664L530.004 492.664L528.004 491.997ZM535.337 483.997L531.657 493.657L535.337 494.997C538.767 496.247 540.377 494.737 541.467 491.837C542.567 488.887 542.087 486.717 538.657 485.337L535.337 483.997ZM536.657 486.337C540.107 487.537 540.317 488.847 539.377 491.217C538.467 493.467 537.617 494.347 534.337 492.657L536.657 486.337ZM546.337 487.664L540.337 496.664L542.657 497.344L543.997 495.004L547.997 496.004L548.337 498.344L550.657 498.664L548.337 488.004L546.337 487.664ZM546.997 490.004L547.657 494.004L544.997 493.664L546.997 490.004ZM552.037 488.531L551.676 498.861L555.6 498.937C559.247 499.007 560.283 497.064 560.372 493.967C560.463 490.817 559.303 488.916 555.606 488.729L552.037 488.531ZM554.038 490.323C557.693 490.338 558.317 491.504 558.189 494.055C558.067 496.479 557.537 497.584 553.894 497.044L554.038 490.323ZM587.004 502.997V513.657H589.344V509.657C589.344 509.657 591.344 509.777 593.004 509.337C594.314 508.997 595.224 508.157 595.254 506.087C595.284 504.057 594.104 502.997 592.064 502.997H586.997H587.004ZM589.344 504.657L591.694 504.687C593.654 504.687 593.284 507.657 591.754 507.657H589.344V504.657ZM599.004 502.997L594.664 513.657H597.004L598.004 510.997H602.344L603.344 513.657H605.664L601.33 502.991H598.997L599.004 502.997ZM600.004 505.337L601.664 509.337H598.664L600.004 505.337ZM605.67 511.664L611.337 504.664H606.337V502.997H614.337V504.664L608.337 511.664H614.337V513.664H605.67V511.664ZM639.337 490.997L641.337 490.664L642.337 496.664C642.693 498.798 641.718 500.252 640.199 500.812C638.469 501.45 636.264 500.867 636.004 497.997L637.67 497.664C638.059 499.381 638.749 499.53 639.549 499.261C640.184 499.048 640.512 498.048 640.337 496.998L639.337 490.997ZM642.67 490.397L644.644 490.023L645.557 495.016C645.948 497.153 646.618 498.061 648.007 497.819C649.732 497.518 649.921 496.552 649.554 494.649L648.327 489.322L650.346 489.017L651.686 494.558C652.469 497.799 650.776 499.084 648.504 499.508C646.524 499.878 644.42 499.375 643.73 496.179L642.67 490.397ZM653.004 494.997L654.67 494.331C655.488 495.799 656.764 495.723 657.755 495.285C659.133 494.676 659.291 493.472 658.609 493.064C657.638 492.483 655.32 493.308 654.071 492.853C652.577 492.308 651.936 491.467 652.012 490.175C652.104 488.62 653.472 487.765 654.961 487.304C656.626 486.787 658.269 486.969 659.337 488.997L657.337 489.664C656.686 488.568 655.848 488.62 655.105 488.971C654.483 489.265 653.51 489.817 654.031 490.707C654.456 491.433 656.906 490.962 658.197 491.014C659.531 491.069 660.61 491.96 660.79 493.243C661.042 495.033 660.379 496.002 658.31 496.809C655.755 497.806 653.449 496.689 653.004 494.997ZM662.004 486.664L659.337 487.997L658.67 486.331L666.004 483.331L666.67 484.664L664.004 485.997L667.004 493.331L665.337 494.331L662.004 486.664ZM666.337 482.997L668.004 481.997L672.67 490.664L671.004 491.664L666.337 482.997ZM677.67 483.664L679.67 482.997C680.611 484.975 679.199 488.569 675.745 488.495C670.691 488.387 670.144 482.819 670.938 480.983C672.273 477.899 676.013 477.958 677.67 479.664L676.004 480.997C674.947 479.642 672.6 480.496 672.441 481.743C672.182 483.778 673.078 485.672 674.898 486.571C676.441 487.332 678.819 485.417 677.67 483.664ZM676.67 476.664L678.337 475.331L684.337 483.331L682.67 484.664L676.67 476.664ZM683.004 471.664L681.344 473.004L685.004 483.004L686.664 481.344L685.664 479.344L688.664 476.664L690.664 477.664L692.344 476.344L683.004 471.664ZM683.664 474.004L687.004 475.664L685.004 477.664L683.664 474.004Z" fill="black"/>
    </g>
    <defs>
        <clipPath id="clip0_2062_802">
            <rect width="1200" height="800" fill="white"/>
        </clipPath>
    </defs>
</svg>
