<svg width="1000" height="500" viewBox="0 0 1000 500" fill="none"
    xmlns="http://www.w3.org/2000/svg">
    <g clip-path="url(#clip0_2062_826)">
        <path id="1" d="M0 0H1000V500H0V0Z" fill="#EDEDF0"/>
        <path id="2" d="M0 166.664H1000V333.331H0V166.664Z" fill="#DDDDDD"/>
        <path d="M500.004 222.219L491.42 248.637L504.629 252.929L500.004 222.219Z" fill="#00BCE4"/>
        <path d="M500.004 222.219L508.588 248.637L495.379 252.929L500.004 222.219Z" fill="#00BCE4"/>
        <path d="M526.422 241.414H498.644V255.303L526.422 241.414Z" fill="#00BCE4"/>
        <path d="M526.422 241.414L503.949 257.741L495.785 246.505L526.422 241.414Z" fill="#00BCE4"/>
        <path d="M473.582 241.414L496.055 257.741L504.218 246.505L473.582 241.414Z" fill="#00BCE4"/>
        <path d="M473.582 241.414H501.36V255.303L473.582 241.414Z" fill="#00BCE4"/>
        <path d="M516.328 272.469L507.744 246.051L494.535 250.342L516.328 272.469Z" fill="#00BCE4"/>
        <path d="M516.328 272.469L493.855 256.141L502.019 244.905L516.328 272.469Z" fill="#00BCE4"/>
        <path d="M483.672 272.469L506.145 256.141L497.981 244.905L483.672 272.469Z" fill="#00BCE4"/>
        <path d="M483.672 272.469L492.256 246.051L505.465 250.342L483.672 272.469Z" fill="#00BCE4"/>
        <path d="M638.891 177.773L630.307 204.192L643.516 208.484L638.891 177.773Z" fill="#00BCE4"/>
        <path d="M638.891 177.773L647.474 204.192L634.265 208.484L638.891 177.773Z" fill="#00BCE4"/>
        <path d="M665.309 196.969H637.531V210.858L665.309 196.969Z" fill="#00BCE4"/>
        <path d="M665.309 196.969L642.836 213.296L634.672 202.06L665.309 196.969Z" fill="#00BCE4"/>
        <path d="M612.469 196.969L634.941 213.296L643.105 202.06L612.469 196.969Z" fill="#00BCE4"/>
        <path d="M612.469 196.969H640.247V210.858L612.469 196.969Z" fill="#00BCE4"/>
        <path d="M655.215 228.023L646.631 201.605L633.422 205.897L655.215 228.023Z" fill="#00BCE4"/>
        <path d="M655.215 228.023L632.742 211.696L640.906 200.46L655.215 228.023Z" fill="#00BCE4"/>
        <path d="M622.559 228.023L645.031 211.696L636.868 200.46L622.559 228.023Z" fill="#00BCE4"/>
        <path d="M622.559 228.023L631.142 201.605L644.352 205.897L622.559 228.023Z" fill="#00BCE4"/>
        <path d="M638.891 261.109L630.307 287.528L643.516 291.82L638.891 261.109Z" fill="#00BCE4"/>
        <path d="M638.891 261.109L647.474 287.528L634.265 291.82L638.891 261.109Z" fill="#00BCE4"/>
        <path d="M665.309 280.305H637.531V294.194L665.309 280.305Z" fill="#00BCE4"/>
        <path d="M665.309 280.305L642.836 296.632L634.672 285.396L665.309 280.305Z" fill="#00BCE4"/>
        <path d="M612.469 280.305L634.941 296.632L643.105 285.396L612.469 280.305Z" fill="#00BCE4"/>
        <path d="M612.469 280.305H640.247V294.194L612.469 280.305Z" fill="#00BCE4"/>
        <path d="M655.215 311.359L646.631 284.941L633.422 289.233L655.215 311.359Z" fill="#00BCE4"/>
        <path d="M655.215 311.359L632.742 295.032L640.906 283.796L655.215 311.359Z" fill="#00BCE4"/>
        <path d="M622.559 311.359L645.031 295.032L636.868 283.796L622.559 311.359Z" fill="#00BCE4"/>
        <path d="M622.559 311.359L631.142 284.941L644.352 289.233L622.559 311.359Z" fill="#00BCE4"/>
        <path d="M361.113 177.773L352.529 204.192L365.739 208.484L361.113 177.773Z" fill="#00BCE4"/>
        <path d="M361.113 177.773L369.697 204.192L356.488 208.484L361.113 177.773Z" fill="#00BCE4"/>
        <path d="M387.531 196.969H359.753V210.858L387.531 196.969Z" fill="#00BCE4"/>
        <path d="M387.531 196.969L365.059 213.296L356.895 202.06L387.531 196.969Z" fill="#00BCE4"/>
        <path d="M334.691 196.969L357.164 213.296L365.328 202.06L334.691 196.969Z" fill="#00BCE4"/>
        <path d="M334.691 196.969H362.469V210.858L334.691 196.969Z" fill="#00BCE4"/>
        <path d="M377.438 228.023L368.854 201.605L355.645 205.897L377.438 228.023Z" fill="#00BCE4"/>
        <path d="M377.438 228.023L354.965 211.696L363.128 200.46L377.438 228.023Z" fill="#00BCE4"/>
        <path d="M344.781 228.023L367.254 211.696L359.09 200.46L344.781 228.023Z" fill="#00BCE4"/>
        <path d="M344.781 228.023L353.365 201.605L366.574 205.897L344.781 228.023Z" fill="#00BCE4"/>
        <path d="M361.113 261.109L352.529 287.528L365.739 291.82L361.113 261.109Z" fill="#00BCE4"/>
        <path d="M361.113 261.109L369.697 287.528L356.488 291.82L361.113 261.109Z" fill="#00BCE4"/>
        <path d="M387.531 280.305H359.753V294.194L387.531 280.305Z" fill="#00BCE4"/>
        <path d="M387.531 280.305L365.059 296.632L356.895 285.396L387.531 280.305Z" fill="#00BCE4"/>
        <path d="M334.691 280.305L357.164 296.632L365.328 285.396L334.691 280.305Z" fill="#00BCE4"/>
        <path d="M334.691 280.305H362.469V294.194L334.691 280.305Z" fill="#00BCE4"/>
        <path d="M377.438 311.359L368.854 284.941L355.645 289.233L377.438 311.359Z" fill="#00BCE4"/>
        <path d="M377.438 311.359L354.965 295.032L363.128 283.796L377.438 311.359Z" fill="#00BCE4"/>
        <path d="M344.781 311.359L367.254 295.032L359.09 283.796L344.781 311.359Z" fill="#00BCE4"/>
        <path d="M344.781 311.359L353.365 284.941L366.574 289.233L344.781 311.359Z" fill="#00BCE4"/>
    </g>
    <defs>
        <clipPath id="clip0_2062_826">
            <rect width="1000" height="500" fill="white"/>
        </clipPath>
    </defs>
</svg>
