<svg width="900" height="600" viewBox="0 0 900 600" fill="none"
    xmlns="http://www.w3.org/2000/svg">
    <g clip-path="url(#clip0_2000_12754)">
        <path id="1" d="M0 0H900V200H0V0Z" fill="#EDEDF0"/>
        <path id="2" d="M0 200H900V400H0V200Z" fill="#DDDDDD"/>
        <path id="3" d="M0 400H900V600H0V400Z" fill="#EDEDF0"/>
        <path d="M537.746 262.571C536.524 261.925 535.149 260.889 534.691 260.263C534.004 259.304 534.402 259.264 537.238 260.035C542.314 261.415 545.59 260.874 548.84 258.123L551.704 255.708L555.076 257.425C556.933 258.362 558.904 259.012 559.473 258.861C560.934 258.476 563.962 254.591 563.864 253.247C563.745 251.582 565.149 252.003 565.826 253.825C567.172 257.394 565.213 261.493 561.742 262.404C560.049 262.842 558.483 262.682 555.917 261.791C552.768 260.692 552.229 260.709 550.65 261.918C547.107 264.634 542.176 264.885 537.744 262.575L537.746 262.571ZM550.302 251.092C549.069 249.522 547.587 243.594 548.069 242.14C548.489 240.879 548.945 240.607 550.07 240.986C552.08 241.615 552.545 243.001 552.245 247.696C552.01 251.521 551.443 252.526 550.304 251.09L550.302 251.092ZM402.457 246.852C402.052 249.699 407.548 256.855 410.029 258.147C408.343 258.903 406.245 258.559 404.699 259.409C396.054 268.054 364.48 298.838 358.714 306.196C375.794 306.533 394.732 305.963 410.743 305.232C410.728 293.626 421.732 293.031 429.094 288.804C432.882 294.771 442.396 294.314 443.586 303.294L443.607 341.935H297.689C295.123 353.269 284.892 361.917 270.637 358.358C275.047 353.751 282.472 352.168 285.133 345.802C287.375 331.864 280.653 323.256 276.308 315.351C283.499 312.734 284.59 312.079 291.899 307.168C286.767 322.759 305.257 321.047 318.95 320.69C319.388 315.397 319.169 309.15 315.083 308.374C320.329 306.469 321.201 305.817 329.579 298.713V319.72L430.615 319.501C430.615 312.927 432.356 302.368 427.156 302.368C422.185 302.368 426.921 315.885 423.061 315.885H345.039L344.989 302.473C348.273 299.188 347.901 299.451 370.495 276.859C372.746 274.604 388.596 260.287 402.466 246.831L402.457 246.852ZM597.479 246.274C602.925 249.209 607.239 253.282 613.907 254.972C613.131 257.731 610.675 258.826 610.031 261.732V320.637C617.48 322.279 619.048 318.058 622.594 315.809C623.561 325.24 629.57 334.487 629.356 341.867H597.47L597.475 246.231L597.479 246.274ZM554.971 277.834L566.568 267.666V319.091L574.92 319.078L574.661 261.404C578.051 258.009 584.691 253.082 586.35 249.671V341.773L513.118 341.799C512.038 322.682 511.854 302.887 534.14 307.144V299.342C533.483 298.028 532.239 299.663 531.954 297.929C535.491 294.388 536.691 293.484 546.271 285.115L546.446 319.056L554.892 319.065C554.894 319.069 554.971 279.154 554.971 277.834ZM527.485 318.568C529.053 320.922 534.391 320.88 534.142 316.914C533.266 313.645 526.223 314.891 527.485 318.568Z" fill="#007A3D"/>
        <path d="M315.487 357.24C317.957 357.24 319.959 355.238 319.959 352.768C319.959 350.299 317.957 348.297 315.487 348.297C313.018 348.297 311.016 350.299 311.016 352.768C311.016 355.238 313.018 357.24 315.487 357.24Z" fill="#007A3D"/>
        <path d="M453.493 246.37C458.941 249.304 463.253 253.355 469.92 255.063C469.147 257.823 466.688 258.917 466.049 261.823V320.75C473.494 322.393 475.064 318.166 478.609 315.92C479.573 325.353 485.584 334.594 485.371 341.978H453.488L453.493 246.344V246.37Z" fill="#007A3D"/>
    </g>
    <defs>
        <clipPath id="clip0_2000_12754">
            <rect width="900" height="600" fill="white"/>
        </clipPath>
    </defs>
</svg>
