<svg width="630" height="360" viewBox="0 0 630 360" fill="none"
    xmlns="http://www.w3.org/2000/svg">
    <g clip-path="url(#clip0_1823_26)">
        <path id="3" d="M0 240H630V360H0V240Z" fill="#EDEDF0"/>
        <path id="2" d="M0 120H630V240H0V120Z" fill="#EDEDF0"/>
        <path id="1" d="M0 0H630V120H0V0Z" fill="#EDEDF0"/>
        <path class="divider" d="M0 120H630" stroke="#DDDDDD" stroke-width="2"/>
        <path class="divider" d="M0 240H630" stroke="#DDDDDD" stroke-width="2"/>
        <path d="M8.39844 101.798H44.7984M9.79844 114.398V107.398H20.9984V112.998H32.1984V107.398H25.1984M13.9984 112.998H16.7984M44.7984 112.998H37.7984V107.398H48.9984M48.9984 100.398V112.998H60.1984V100.398M54.5984 100.398V112.998" stroke="white" stroke-width="2.8"/>
        <path d="M8.39844 120H33.5984M36.3984 120H61.5984" stroke="white" stroke-width="5.6"/>
        <path d="M8.39844 240H33.5984M36.3984 240H61.5984" stroke="white" stroke-width="5.6"/>
        <path d="M8.39844 246.998H44.7984M9.79844 259.598V252.598H20.9984V258.198H32.1984V252.598H25.1984M13.9984 258.198H16.7984M44.7984 258.198H37.7984V252.598H48.9984M48.9984 245.598V258.198H60.1984V245.598M54.5984 245.598V258.198" stroke="white" stroke-width="2.8"/>
        <path d="M64.3984 101.798H100.798M65.7984 114.398V107.398H76.9984V112.998H88.1984V107.398H81.1984M69.9984 112.998H72.7984M100.798 112.998H93.7984V107.398H104.998M104.998 100.398V112.998H116.198V100.398M110.598 100.398V112.998" stroke="white" stroke-width="2.8"/>
        <path d="M64.3984 120H89.5984M92.3984 120H117.598" stroke="white" stroke-width="5.6"/>
        <path d="M64.3984 240H89.5984M92.3984 240H117.598" stroke="white" stroke-width="5.6"/>
        <path d="M64.3984 246.998H100.798M65.7984 259.598V252.598H76.9984V258.198H88.1984V252.598H81.1984M69.9984 258.198H72.7984M100.798 258.198H93.7984V252.598H104.998M104.998 245.598V258.198H116.198V245.598M110.598 245.598V258.198" stroke="white" stroke-width="2.8"/>
        <path d="M120.398 101.798H156.798M121.798 114.398V107.398H132.998V112.998H144.198V107.398H137.198M125.998 112.998H128.798M156.798 112.998H149.798V107.398H160.998M160.998 100.398V112.998H172.198V100.398M166.598 100.398V112.998" stroke="white" stroke-width="2.8"/>
        <path d="M120.398 120H145.598M148.398 120H173.598" stroke="white" stroke-width="5.6"/>
        <path d="M120.398 240H145.598M148.398 240H173.598" stroke="white" stroke-width="5.6"/>
        <path d="M120.398 246.998H156.798M121.798 259.598V252.598H132.998V258.198H144.198V252.598H137.198M125.998 258.198H128.798M156.798 258.198H149.798V252.598H160.998M160.998 245.598V258.198H172.198V245.598M166.598 245.598V258.198" stroke="white" stroke-width="2.8"/>
        <path d="M176.398 101.798H212.798M177.798 114.398V107.398H188.998V112.998H200.198V107.398H193.198M181.998 112.998H184.798M212.798 112.998H205.798V107.398H216.998M216.998 100.398V112.998H228.198V100.398M222.598 100.398V112.998" stroke="white" stroke-width="2.8"/>
        <path d="M176.398 120H201.598M204.398 120H229.598" stroke="white" stroke-width="5.6"/>
        <path d="M176.398 240H201.598M204.398 240H229.598" stroke="white" stroke-width="5.6"/>
        <path d="M176.398 246.998H212.798M177.798 259.598V252.598H188.998V258.198H200.198V252.598H193.198M181.998 258.198H184.798M212.798 258.198H205.798V252.598H216.998M216.998 245.598V258.198H228.198V245.598M222.598 245.598V258.198" stroke="white" stroke-width="2.8"/>
        <path d="M232.398 101.798H268.798M233.798 114.398V107.398H244.998V112.998H256.198V107.398H249.198M237.998 112.998H240.798M268.798 112.998H261.798V107.398H272.998M272.998 100.398V112.998H284.198V100.398M278.598 100.398V112.998" stroke="white" stroke-width="2.8"/>
        <path d="M232.398 120H257.598M260.398 120H285.598" stroke="white" stroke-width="5.6"/>
        <path d="M232.398 240H257.598M260.398 240H285.598" stroke="white" stroke-width="5.6"/>
        <path d="M232.398 246.998H268.798M233.798 259.598V252.598H244.998V258.198H256.198V252.598H249.198M237.998 258.198H240.798M268.798 258.198H261.798V252.598H272.998M272.998 245.598V258.198H284.198V245.598M278.598 245.598V258.198" stroke="white" stroke-width="2.8"/>
        <path d="M288.398 101.798H324.798M289.798 114.398V107.398H300.998V112.998H312.198V107.398H305.198M293.998 112.998H296.798M324.798 112.998H317.798V107.398H328.998M328.998 100.398V112.998H340.198V100.398M334.598 100.398V112.998" stroke="white" stroke-width="2.8"/>
        <path d="M288.398 120H313.598M316.398 120H341.598" stroke="white" stroke-width="5.6"/>
        <path d="M288.398 240H313.598M316.398 240H341.598" stroke="white" stroke-width="5.6"/>
        <path d="M288.398 246.998H324.798M289.798 259.598V252.598H300.998V258.198H312.198V252.598H305.198M293.998 258.198H296.798M324.798 258.198H317.798V252.598H328.998M328.998 245.598V258.198H340.198V245.598M334.598 245.598V258.198" stroke="white" stroke-width="2.8"/>
        <path d="M344.398 101.798H380.798M345.798 114.398V107.398H356.998V112.998H368.198V107.398H361.198M349.998 112.998H352.798M380.798 112.998H373.798V107.398H384.998M384.998 100.398V112.998H396.198V100.398M390.598 100.398V112.998" stroke="white" stroke-width="2.8"/>
        <path d="M344.398 120H369.598M372.398 120H397.598" stroke="white" stroke-width="5.6"/>
        <path d="M344.398 240H369.598M372.398 240H397.598" stroke="white" stroke-width="5.6"/>
        <path d="M344.398 246.998H380.798M345.798 259.598V252.598H356.998V258.198H368.198V252.598H361.198M349.998 258.198H352.798M380.798 258.198H373.798V252.598H384.998M384.998 245.598V258.198H396.198V245.598M390.598 245.598V258.198" stroke="white" stroke-width="2.8"/>
        <path d="M400.398 101.798H436.798M401.798 114.398V107.398H412.998V112.998H424.198V107.398H417.198M405.998 112.998H408.798M436.798 112.998H429.798V107.398H440.998M440.998 100.398V112.998H452.198V100.398M446.598 100.398V112.998" stroke="white" stroke-width="2.8"/>
        <path d="M400.398 120H425.598M428.398 120H453.598" stroke="white" stroke-width="5.6"/>
        <path d="M400.398 240H425.598M428.398 240H453.598" stroke="white" stroke-width="5.6"/>
        <path d="M400.398 246.998H436.798M401.798 259.598V252.598H412.998V258.198H424.198V252.598H417.198M405.998 258.198H408.798M436.798 258.198H429.798V252.598H440.998M440.998 245.598V258.198H452.198V245.598M446.598 245.598V258.198" stroke="white" stroke-width="2.8"/>
        <path d="M456.398 101.798H492.798M457.798 114.398V107.398H468.998V112.998H480.198V107.398H473.198M461.998 112.998H464.798M492.798 112.998H485.798V107.398H496.998M496.998 100.398V112.998H508.198V100.398M502.598 100.398V112.998" stroke="white" stroke-width="2.8"/>
        <path d="M456.398 120H481.598M484.398 120H509.598" stroke="white" stroke-width="5.6"/>
        <path d="M456.398 240H481.598M484.398 240H509.598" stroke="white" stroke-width="5.6"/>
        <path d="M456.398 246.998H492.798M457.798 259.598V252.598H468.998V258.198H480.198V252.598H473.198M461.998 258.198H464.798M492.798 258.198H485.798V252.598H496.998M496.998 245.598V258.198H508.198V245.598M502.598 245.598V258.198" stroke="white" stroke-width="2.8"/>
        <path d="M512.398 101.798H548.798M513.798 114.398V107.398H524.998V112.998H536.198V107.398H529.198M517.998 112.998H520.798M548.798 112.998H541.798V107.398H552.998M552.998 100.398V112.998H564.198V100.398M558.598 100.398V112.998" stroke="white" stroke-width="2.8"/>
        <path d="M512.398 120H537.598M540.398 120H565.598" stroke="white" stroke-width="5.6"/>
        <path d="M512.398 240H537.598M540.398 240H565.598" stroke="white" stroke-width="5.6"/>
        <path d="M512.398 246.998H548.798M513.798 259.598V252.598H524.998V258.198H536.198V252.598H529.198M517.998 258.198H520.798M548.798 258.198H541.798V252.598H552.998M552.998 245.598V258.198H564.198V245.598M558.598 245.598V258.198" stroke="white" stroke-width="2.8"/>
        <path d="M568.398 101.798H604.798M569.798 114.398V107.398H580.998V112.998H592.198V107.398H585.198M573.998 112.998H576.798M604.798 112.998H597.798V107.398H608.998M608.998 100.398V112.998H620.198V100.398M614.598 100.398V112.998" stroke="white" stroke-width="2.8"/>
        <path d="M568.398 120H593.598M596.398 120H621.598" stroke="white" stroke-width="5.6"/>
        <path d="M568.398 240H593.598M596.398 240H621.598" stroke="white" stroke-width="5.6"/>
        <path d="M568.398 246.998H604.798M569.798 259.598V252.598H580.998V258.198H592.198V252.598H585.198M573.998 258.198H576.798M604.798 258.198H597.798V252.598H608.998M608.998 245.598V258.198H620.198V245.598M614.598 245.598V258.198" stroke="white" stroke-width="2.8"/>
        <path d="M290.34 217.622C299.352 220.542 309.097 220.254 317.922 216.807C326.746 213.36 334.106 206.967 338.753 198.711C343.4 190.456 345.048 180.847 343.417 171.514C341.786 162.182 336.977 153.702 329.805 147.512C334.473 154.433 337.124 162.517 337.46 170.859C337.797 179.201 335.806 187.472 331.711 194.747C327.616 202.022 321.577 208.015 314.271 212.055C306.965 216.094 298.679 218.022 290.34 217.622Z" fill="#DA0000"/>
        <path d="M342.81 209.746C348.714 206.314 353.462 201.201 356.449 195.059C359.435 188.917 360.525 182.025 359.579 175.261C358.633 168.497 355.693 162.169 351.136 157.082C346.579 151.996 340.61 148.382 333.99 146.701C338.71 150.261 342.683 154.715 345.681 159.81C348.679 164.906 350.644 170.542 351.463 176.396C352.282 182.251 351.939 188.21 350.455 193.932C348.97 199.655 346.372 205.028 342.81 209.746ZM315 225.001L312.75 180.001L315 144.586C316.367 146.494 318.193 148.027 320.31 149.041V175.501L318.51 220.186L315 225.001ZM314.1 141.751L315 142.606C315.897 143.952 317.266 144.914 318.836 145.302C320.407 145.691 322.065 145.478 323.487 144.705C324.908 143.932 325.989 142.656 326.517 141.127C327.045 139.598 326.982 137.926 326.34 136.441C326.116 137.678 325.516 138.815 324.623 139.699C323.73 140.582 322.586 141.17 321.348 141.381C320.109 141.593 318.836 141.418 317.7 140.88C316.564 140.342 315.622 139.468 315 138.376" fill="#DA0000"/>
        <path d="M339.66 217.622C330.648 220.542 320.903 220.254 312.078 216.807C303.254 213.36 295.894 206.967 291.247 198.711C286.6 190.456 284.952 180.847 286.583 171.514C288.214 162.182 293.023 153.702 300.195 147.512C295.527 154.433 292.876 162.517 292.54 170.859C292.203 179.201 294.194 187.472 298.289 194.747C302.384 202.022 308.423 208.015 315.729 212.055C323.035 216.094 331.321 218.022 339.66 217.622Z" fill="#DA0000"/>
        <path d="M287.19 209.746C281.286 206.314 276.538 201.201 273.551 195.059C270.565 188.917 269.475 182.025 270.421 175.261C271.367 168.497 274.307 162.169 278.864 157.082C283.421 151.996 289.39 148.382 296.01 146.701C291.29 150.261 287.317 154.715 284.319 159.81C281.321 164.906 279.356 170.542 278.537 176.396C277.718 182.251 278.061 188.21 279.545 193.932C281.03 199.655 283.628 205.028 287.19 209.746ZM315 225.001L317.25 180.001L315 144.586C313.633 146.494 311.807 148.027 309.69 149.041V175.501L311.49 220.186L315 225.001ZM315.9 141.751L315 142.606C314.103 143.952 312.734 144.914 311.164 145.302C309.593 145.691 307.935 145.478 306.513 144.705C305.092 143.932 304.011 142.656 303.483 141.127C302.955 139.598 303.018 137.926 303.66 136.441C303.884 137.678 304.484 138.815 305.377 139.699C306.27 140.582 307.414 141.17 308.652 141.381C309.891 141.593 311.164 141.418 312.3 140.88C313.436 140.342 314.378 139.468 315 138.376" fill="#DA0000"/>
    </g>
    <defs>
        <clipPath id="clip0_1823_26">
            <rect width="630" height="360" fill="white"/>
        </clipPath>
    </defs>
</svg>
