<svg width="900" height="600" viewBox="0 0 900 600" fill="none"
    xmlns="http://www.w3.org/2000/svg">
    <g clip-path="url(#clip0_1795_1334)">
        <path id="1" d="M0 0H900V600H0V0Z" fill="#EDEDF0"/>
        <path id="2" d="M270 300C270 347.739 288.964 393.523 322.721 427.279C356.477 461.036 402.261 480 450 480C497.739 480 543.523 461.036 577.279 427.279C611.036 393.523 630 347.739 630 300C630 252.261 611.036 206.477 577.279 172.721C543.523 138.964 497.739 120 450 120C402.261 120 356.477 138.964 322.721 172.721C288.964 206.477 270 252.261 270 300Z" fill="#CCCCCC"/>
    </g>
    <defs>
        <clipPath id="clip0_1795_1334">
            <rect width="900" height="600" fill="white"/>
        </clipPath>
    </defs>
</svg>
