<svg width="900" height="600" viewBox="0 0 900 600" fill="none"
    xmlns="http://www.w3.org/2000/svg">
    <g clip-path="url(#clip0_1937_45)">
        <path d="M0 0H900V600H0V0Z" fill="white"/>
        <path id="1" d="M0 0H900V180H0V0Z" fill="#EDEDF0"/>
        <path id="2" d="M0 210H900V390H0V210Z" fill="#DDDDDD"/>
        <path id="3" d="M0 420H900V600H0V420Z" fill="#EDEDF0"/>
        <path d="M342.828 478.125L349.323 481.875L524.497 178.466C534.742 175.72 540.367 165.978 545.992 156.235C549.742 149.74 564.742 123.759 571.243 90C545.257 112.509 530.257 138.49 526.507 144.985C520.882 154.728 515.257 164.47 518.002 174.716L342.828 478.125Z" fill="black"/>
        <path d="M342.828 478.125L349.323 481.875L524.497 178.466C534.742 175.72 540.367 165.978 545.992 156.235C549.742 149.74 564.742 123.759 571.243 90C545.257 112.509 530.257 138.49 526.507 144.985C520.882 154.728 515.257 164.47 518.002 174.716L342.828 478.125Z" fill="white"/>
        <path d="M557.172 478.125L550.677 481.875L375.503 178.466C365.258 175.72 359.633 165.978 354.008 156.235C350.258 149.74 335.258 123.759 328.757 90C354.743 112.509 369.743 138.49 373.493 144.985C379.118 154.728 384.743 164.47 381.998 174.716L557.172 478.125Z" fill="black"/>
        <path d="M557.172 478.125L550.677 481.875L375.503 178.466C365.258 175.72 359.633 165.978 354.008 156.235C350.258 149.74 335.258 123.759 328.757 90C354.743 112.509 369.743 138.49 373.493 144.985C379.118 154.728 384.743 164.47 381.998 174.716L557.172 478.125Z" fill="white"/>
        <path d="M378.75 390C390 420 427.5 480 450 480C472.5 480 510 420 521.25 390V210C510 180 472.5 120 450 120C427.5 120 390 180 378.75 210V390Z" fill="#BB0000"/>
        <path d="M521.25 390C532.5 360 540 330 540 300C540 270 532.5 240 521.25 210C510 240 502.5 270 502.5 300C502.5 330 510 360 521.25 390Z" fill="black"/>
        <path d="M378.75 390C367.5 360 360 330 360 300C360 270 367.5 240 378.75 210C390 240 397.5 270 397.5 300C397.5 330 390 360 378.75 390Z" fill="black"/>
        <path d="M450 322.5C458.284 322.5 465 312.426 465 300C465 287.574 458.284 277.5 450 277.5C441.716 277.5 435 287.574 435 300C435 312.426 441.716 322.5 450 322.5Z" fill="white"/>
        <path d="M453.75 321.938C453.75 321.938 468.75 351.938 468.75 400.688C468.75 449.438 453.75 479.438 453.75 479.438V321.938Z" fill="white"/>
        <path d="M446.25 278.062C446.25 278.062 431.25 248.062 431.25 199.312C431.25 150.562 446.25 120.562 446.25 120.562V278.062Z" fill="white"/>
        <path d="M446.25 321.938C446.25 321.938 431.25 351.938 431.25 400.688C431.25 449.438 446.25 479.438 446.25 479.438V321.938Z" fill="white"/>
        <path d="M453.75 278.062C453.75 278.062 468.75 248.062 468.75 199.312C468.75 150.562 453.75 120.562 453.75 120.562V278.062Z" fill="white"/>
    </g>
    <defs>
        <clipPath id="clip0_1937_45">
            <rect width="900" height="600" fill="white"/>
        </clipPath>
    </defs>
</svg>
