<svg width="1000" height="600" viewBox="0 0 1000 600" fill="none"
    xmlns="http://www.w3.org/2000/svg">
    <g clip-path="url(#clip0_1978_12354)">
        <path id="1" d="M0 0H1000V600H0V0Z" fill="#EDEDF0"/>
        <path id="2" d="M454.867 259.272C443.69 252.329 431.835 246.571 419.642 241.829C409.142 257.409 403.046 276.037 403.046 296.189C403.046 306.181 404.57 315.834 407.449 324.979C412.529 313.294 418.965 301.948 426.755 291.109C434.895 279.47 444.326 268.79 454.867 259.272ZM425.061 234.716C438.271 239.289 450.971 245.216 463.165 252.159C465.875 249.789 468.753 247.756 471.463 245.724C458.593 238.611 444.875 232.854 430.819 228.45C428.787 230.483 426.755 232.515 425.061 234.716ZM436.916 222.693C452.157 226.757 466.721 232.345 480.438 239.627C483.656 237.595 486.874 235.732 489.922 233.87C475.358 226.418 459.947 221 444.028 217.104C441.515 218.778 439.136 220.646 436.916 222.693ZM451.31 212.532C468.076 215.919 484.333 221.338 499.575 228.789C514.985 221.338 531.243 215.919 547.839 212.532C533.783 204.234 517.187 199.492 499.575 199.492C481.963 199.492 465.535 204.234 451.31 212.532ZM555.12 217.274C539.228 220.998 523.826 226.568 509.227 233.87C512.426 235.727 515.588 237.647 518.711 239.627C532.597 232.345 547.161 226.757 562.233 222.693C560.032 220.66 557.661 218.798 555.121 217.273L555.12 217.274ZM568.33 228.62C554.274 232.854 540.726 238.611 527.686 245.724C530.58 247.774 533.404 249.921 536.154 252.159C548.177 245.216 560.879 239.289 574.088 234.716C572.394 232.515 570.531 230.483 568.33 228.62ZM579.507 241.998C567.282 246.587 555.54 252.373 544.452 259.272C554.782 268.586 564.096 279.255 572.564 291.109C580.062 301.76 586.526 313.101 591.869 324.979C594.579 315.665 596.103 306.181 596.103 296.189C596.103 276.037 590.006 257.408 579.507 241.998ZM571.209 308.383C561.048 291.956 548.855 277.392 535.307 265.03C532.259 267.231 529.041 269.433 526.162 271.634C549.024 292.972 567.483 319.729 579.168 350.889C581.878 346.825 584.418 342.591 586.45 338.357C582.216 328.197 577.136 318.205 571.209 308.383ZM517.525 264.353C520.574 262.151 523.622 259.949 526.84 257.917C524.13 255.547 521.251 253.345 518.372 251.143C515.155 253.175 511.937 255.207 508.719 257.409H508.889C511.768 259.611 514.647 261.981 517.525 264.352V264.353ZM499.575 250.804C502.792 248.772 506.179 246.74 509.227 244.877C506.01 242.845 502.792 240.813 499.575 238.95C496.357 240.813 493.309 242.845 490.091 244.877C493.309 246.74 496.357 248.772 499.575 250.804ZM490.43 257.409C487.212 255.207 484.164 253.175 480.946 251.143L472.31 257.748C475.527 259.949 478.575 261.981 481.624 264.183C484.487 261.832 487.423 259.573 490.43 257.409ZM499.575 264.183C496.695 266.384 493.817 268.755 490.769 271.296C493.817 273.666 496.696 276.206 499.575 278.746C502.454 276.206 505.332 273.666 508.381 271.296C505.501 268.925 502.623 266.384 499.575 264.183ZM499.575 295.851C486.342 310.122 475.117 326.132 466.213 343.438C459.947 355.292 455.036 367.655 451.31 380.017C465.536 387.977 481.962 392.718 499.575 392.718C517.188 392.718 533.614 387.976 547.839 380.017C544.113 367.655 539.202 355.292 532.936 343.437C523.791 325.657 512.614 309.737 499.575 295.851ZM443.69 360.034C454.697 331.922 470.955 307.367 490.938 287.044C488.058 284.335 485.18 281.795 482.132 279.086C458.932 301.609 440.302 329.551 428.956 361.896C432.147 365.426 435.601 368.71 439.286 371.719C440.642 367.824 442.166 363.929 443.69 360.034ZM508.211 287.044C528.194 307.367 544.451 331.922 555.629 360.034C557.153 363.929 558.508 367.824 559.862 371.719C563.588 368.671 567.144 365.453 570.362 361.897C558.846 329.551 540.218 301.609 517.017 279.086C513.969 281.796 511.09 284.336 508.211 287.045V287.044ZM419.981 350.889C431.666 319.729 450.125 293.141 473.156 271.804C470.122 269.451 467.016 267.192 463.842 265.03C450.294 277.561 438.102 292.125 427.94 308.552C422.094 318.076 416.998 328.042 412.7 338.357C414.731 342.76 417.271 346.825 419.981 350.889ZM500.083 191.702C559.693 191.702 608.296 240.305 608.296 299.915C608.296 359.525 559.693 408.129 500.083 408.129C440.473 408.129 391.869 359.526 391.869 299.915C391.869 240.305 440.472 191.702 500.083 191.702ZM547.839 167.993C544.791 171.55 541.404 176.122 538.017 183.403C537.17 181.541 537.17 179.34 537.677 176.969C538.525 169.179 540.727 164.437 544.791 157.832C546.145 155.462 547.501 153.429 548.177 150.889C550.717 143.269 550.21 133.108 544.621 125.149C545.468 134.124 542.758 141.575 539.711 146.147C539.202 146.994 538.694 147.502 538.017 148.18C534.799 151.397 531.243 154.615 526.67 162.066C524.13 166.13 521.59 171.041 519.219 178.831C518.203 177.138 517.864 175.106 518.034 172.735C517.694 164.775 519.05 159.865 521.929 152.583C522.945 150.043 523.961 147.841 524.299 145.131C525.485 137.341 523.453 127.35 516.679 120.406C518.88 129.043 517.525 136.833 515.155 141.914C514.647 142.76 514.308 143.438 513.8 144.115C511.09 147.841 508.211 151.566 504.655 159.525C502.962 164.098 501.099 169.348 500.083 177.307C498.728 175.783 498.05 173.751 497.881 171.38C496.357 163.59 496.865 158.51 498.559 150.89C499.236 148.349 499.913 145.978 499.744 143.268C499.744 135.309 496.188 125.826 488.398 119.898C491.954 128.196 491.785 136.156 490.26 141.575C489.922 142.252 489.583 143.099 489.244 143.776C487.212 148.01 484.841 152.075 482.64 160.542C481.624 165.284 480.608 170.872 480.777 178.832C479.422 177.477 478.407 175.614 477.729 173.412C475.019 165.792 474.68 160.881 475.358 152.922C475.528 150.212 475.697 147.841 475.358 145.301C474.003 137.341 468.923 128.535 460.455 123.963C465.197 131.583 466.213 139.543 465.535 144.962L465.028 147.502C463.673 151.905 461.979 156.308 461.133 165.114C460.793 169.856 460.625 175.444 462.149 183.404C460.455 182.218 459.269 180.525 458.254 178.493C454.359 171.38 453.343 166.469 452.665 158.679C452.495 155.969 452.326 153.599 451.31 151.059C448.94 143.438 442.504 135.479 433.36 132.43C439.287 139.035 441.658 146.655 441.658 152.244C441.658 153.091 441.658 153.937 441.488 154.784C440.811 159.356 439.964 164.098 440.472 172.735C440.98 177.477 441.658 183.065 444.367 190.685C442.504 189.839 440.98 188.315 439.625 186.452C434.715 180.186 433.021 175.445 431.158 167.824C430.481 165.114 429.973 162.913 428.618 160.373C425.061 153.429 417.441 146.486 407.958 144.793C414.731 150.55 418.288 157.833 419.304 163.251C419.473 164.098 419.473 164.945 419.473 165.791C419.643 170.364 419.473 175.106 421.336 183.743C422.521 188.315 424.046 193.734 427.94 200.677C426.078 200.169 424.384 198.984 422.69 197.29C416.763 191.871 414.223 187.468 411.344 180.186C410.328 177.646 409.312 175.445 407.788 173.243C403.046 166.977 394.578 161.389 384.757 161.219C392.547 165.792 397.119 172.227 398.982 177.477L399.49 180.017C400.337 184.589 400.845 189.331 404.062 197.46C405.925 201.863 408.465 206.943 413.376 213.21C411.344 213.04 409.481 212.024 407.619 210.669C401.014 206.266 397.796 202.202 393.563 195.597C392.208 193.227 391.023 191.194 388.99 189.331C383.402 183.743 374.088 179.509 364.435 180.864C372.733 184.251 378.321 190.008 381.031 194.92C381.37 195.597 381.708 196.444 382.047 197.29C383.571 201.524 384.757 206.097 389.16 213.717C391.7 217.782 394.918 222.354 400.845 227.942C398.813 227.942 396.78 227.265 394.748 226.249C387.466 222.862 383.741 219.475 378.66 213.548C376.797 211.516 375.273 209.653 373.072 207.959C366.636 203.387 356.814 200.677 347.5 203.556C356.306 205.588 362.741 210.33 365.959 214.733C366.636 215.411 366.975 216.088 367.314 216.935C369.515 220.999 371.548 225.402 377.136 232.007C380.184 235.732 384.079 239.797 390.684 244.369C388.821 244.708 386.789 244.369 384.418 243.522C376.798 241.49 372.564 238.612 366.636 233.531C364.604 231.837 362.741 230.313 360.371 228.959C353.258 225.402 343.097 224.386 334.291 228.619C343.266 229.128 350.379 233.023 354.443 236.749C354.951 237.426 355.459 237.934 355.967 238.781C358.847 242.337 361.387 246.401 367.991 252.159C371.548 255.207 376.12 258.594 383.401 262.151C381.539 262.828 379.338 262.828 377.136 262.321C369.176 261.473 364.604 259.271 357.83 255.207C355.46 253.853 353.427 252.497 350.887 251.82C343.267 249.28 333.275 249.788 325.315 255.377C334.122 254.53 341.742 257.24 346.315 260.287C346.992 260.796 347.669 261.304 348.177 261.981C351.564 265.199 354.782 268.755 362.064 273.328C366.128 275.868 371.209 278.578 378.829 280.779C377.136 281.795 375.104 282.134 372.733 282.134C364.773 282.304 359.863 280.948 352.581 278.069C350.041 277.053 347.839 276.037 345.129 275.699C337.339 274.513 327.348 276.545 320.404 283.319C329.041 281.118 337.001 282.472 341.912 284.843C342.758 285.351 343.436 285.69 344.113 286.198C347.839 288.908 351.564 291.787 359.693 295.343C364.096 297.036 369.346 298.899 377.305 299.915C375.781 301.27 373.749 301.947 371.548 302.117C363.588 303.81 358.678 303.133 350.888 301.439C348.347 300.762 345.976 300.254 343.266 300.254C335.307 300.254 325.824 303.81 320.066 311.6C328.194 308.044 336.154 308.213 341.573 309.738C342.42 310.076 343.097 310.415 343.943 310.754C348.008 312.786 352.242 315.157 360.709 317.358C365.282 318.374 370.87 319.39 378.829 319.221C377.475 320.576 375.612 321.591 373.41 322.269C365.959 324.979 360.879 325.318 353.089 324.64C350.379 324.47 348.009 324.301 345.299 324.64C337.509 325.995 328.702 331.075 324.13 339.712C331.581 334.801 339.54 333.785 345.13 334.462C345.976 334.632 346.653 334.801 347.5 334.97C351.903 336.495 356.306 338.019 365.112 338.865C369.854 339.205 375.442 339.373 383.402 337.849C382.216 339.543 380.523 340.729 378.491 341.744C371.548 345.639 366.467 346.655 358.677 347.333C355.967 347.671 353.597 347.841 351.057 348.688C343.436 351.058 335.646 357.494 332.428 366.638C339.202 360.711 346.823 358.51 352.411 358.34C353.258 358.34 354.105 358.34 354.951 358.51C359.354 359.187 364.096 360.034 372.902 359.526C377.644 359.187 383.232 358.34 390.684 355.631C390.006 357.494 388.482 359.018 386.45 360.373C380.184 365.283 375.443 366.977 367.822 368.84C365.282 369.517 362.911 370.025 360.54 371.38C353.427 374.937 346.653 382.557 344.96 392.04C350.548 385.267 357.83 381.71 363.25 380.694C364.096 380.525 364.943 380.525 365.79 380.525C370.362 380.355 375.273 380.525 383.74 378.662C388.313 377.477 393.732 375.952 400.845 372.058C400.337 373.92 398.982 375.783 397.288 377.308C391.869 383.235 387.466 385.775 380.184 388.654C377.814 389.839 375.612 390.686 373.41 392.21C366.975 396.952 361.387 405.42 361.217 415.241C365.79 407.451 372.394 402.879 377.644 401.016C378.491 400.846 379.168 400.677 380.014 400.508C384.587 399.661 389.329 399.153 397.458 395.936C401.861 394.073 406.941 391.533 413.376 386.791C413.038 388.654 412.191 390.517 410.666 392.379C406.264 398.984 402.369 402.202 395.595 406.435C393.393 407.79 391.361 408.975 389.329 411.008C383.741 416.596 379.676 425.91 381.031 435.563C384.249 427.265 390.006 421.677 394.918 418.967C395.764 418.628 396.442 418.29 397.288 417.951C401.691 416.596 406.264 415.241 413.715 410.838C417.78 408.298 422.352 405.08 427.94 399.153C428.11 401.185 427.432 403.218 426.247 405.25C422.86 412.532 419.473 416.257 413.546 421.338C411.514 423.201 409.651 424.725 408.126 426.926C403.554 433.362 400.845 443.184 403.724 452.498C405.586 443.692 410.328 437.257 414.901 434.039C415.578 433.531 416.255 433.023 416.933 432.684C420.997 430.483 425.4 428.45 432.174 422.862C435.73 419.814 439.794 415.919 444.367 409.314C444.706 411.177 444.367 413.378 443.69 415.58C441.488 423.2 438.779 427.434 433.529 433.362C431.835 435.394 430.311 437.257 429.126 439.797C425.57 446.909 424.384 456.901 428.618 465.707C429.295 456.732 433.021 449.619 436.916 445.724C437.424 445.047 438.101 444.539 438.779 444.03C442.504 441.152 446.399 438.611 452.157 432.007C455.205 428.45 458.592 423.878 462.149 416.597C462.826 418.459 462.826 420.66 462.487 422.862C461.471 430.822 459.439 435.394 455.375 442.168C453.851 444.538 452.665 446.571 451.818 449.111C449.448 456.731 449.956 466.892 455.544 474.851C454.697 465.876 457.238 458.256 460.455 453.683C460.963 453.006 461.471 452.329 461.979 451.821C465.197 448.434 468.753 445.216 473.495 437.934C475.865 433.87 478.575 428.789 480.777 421.169C481.793 422.862 482.132 424.894 482.132 427.265C482.47 435.225 481.116 440.135 478.067 447.417C477.051 449.957 476.205 452.159 475.697 454.869C474.511 462.659 476.543 472.65 483.317 479.594C481.116 470.957 482.47 462.997 485.011 458.086C485.349 457.24 485.688 456.562 486.196 455.885C488.906 452.159 491.954 448.434 495.341 440.305C497.204 435.902 499.067 430.652 500.083 422.693C501.268 424.217 501.945 426.249 502.284 428.45C503.808 436.41 503.3 441.32 501.437 449.11C500.76 451.651 500.252 454.022 500.252 456.732C500.252 464.691 503.978 474.174 511.768 479.932C508.211 471.804 508.211 463.844 509.905 458.425C510.075 457.578 510.413 456.901 510.752 456.055C512.784 451.99 515.155 447.756 517.356 439.289C518.372 434.716 519.388 429.128 519.219 421.169C520.743 422.523 521.589 424.386 522.267 426.588C525.147 434.039 525.316 439.119 524.807 447.078C524.469 449.619 524.299 451.99 524.807 454.699C525.993 462.659 531.073 471.465 539.71 476.037C534.968 468.417 533.783 460.457 534.63 455.038C534.63 454.191 534.799 453.345 535.138 452.498C536.492 448.095 538.186 443.692 539.033 434.886C539.202 430.144 539.371 424.556 538.017 416.596C539.541 417.782 540.896 419.475 541.912 421.507C545.807 428.45 546.822 433.531 547.5 441.321C547.67 444.031 547.839 446.401 548.686 448.941C551.226 456.562 557.492 464.352 566.806 467.57C560.879 460.796 558.508 453.175 558.338 447.587C558.338 446.74 558.338 445.893 558.508 445.047C559.185 440.644 560.201 435.902 559.524 427.096C559.185 422.354 558.338 416.766 555.798 409.314C557.492 410.161 559.016 411.516 560.371 413.548C565.281 419.814 567.144 424.555 569.007 432.176C569.515 434.716 570.193 437.087 571.378 439.458C575.104 446.571 582.555 453.345 592.208 455.038C585.265 449.45 581.708 442.168 580.692 436.748C580.523 435.902 580.523 435.055 580.523 434.208C580.523 429.636 580.693 424.894 578.829 416.258C577.644 411.685 575.951 406.266 572.056 399.153C574.088 399.661 575.781 401.016 577.306 402.71C583.233 408.129 585.773 412.532 588.821 419.814C589.837 422.184 590.684 424.386 592.377 426.588C597.119 433.023 605.587 438.611 615.239 438.781C607.619 434.208 603.046 427.604 601.183 422.354C600.845 421.507 600.675 420.83 600.506 419.984C599.829 415.411 599.151 410.669 595.934 402.54C594.071 398.137 591.7 393.057 586.789 386.79C588.821 386.96 590.684 387.807 592.547 389.331C599.151 393.734 602.369 397.629 606.433 404.403C607.788 406.605 609.143 408.806 611.006 410.669C616.594 416.257 625.908 420.322 635.561 418.967C627.263 415.749 621.675 409.992 619.134 405.08C618.626 404.234 618.288 403.556 618.118 402.71C616.594 398.307 615.239 393.734 610.836 386.283C608.296 382.218 605.078 377.646 599.321 372.058C601.183 372.058 603.216 372.566 605.417 373.751C612.53 377.138 616.425 380.525 621.505 386.452C623.199 388.484 624.723 390.347 626.925 391.872C633.36 396.613 643.182 399.153 652.495 396.444C643.859 394.412 637.424 389.67 634.037 385.097C633.529 384.42 633.021 383.743 632.682 383.065C630.481 379.001 628.618 374.598 623.029 367.824C619.812 364.268 615.917 360.204 609.312 355.631C611.344 355.292 613.376 355.631 615.578 356.308C623.198 358.51 627.432 361.388 633.528 366.469C635.561 368.163 637.424 369.687 639.795 370.872C646.907 374.428 656.899 375.614 665.705 371.38C656.73 370.703 649.786 366.977 645.722 363.082C645.045 362.574 644.537 361.897 644.028 361.219C641.318 357.494 638.609 353.599 632.174 347.841C628.448 344.793 623.876 341.406 616.764 337.849C618.626 337.172 620.658 337.172 623.029 337.511C630.819 338.527 635.561 340.559 642.166 344.793C644.536 346.147 646.569 347.333 649.109 348.18C656.729 350.55 666.89 350.042 674.849 344.454C665.874 345.301 658.423 342.76 653.851 339.543L651.818 338.019C648.601 334.801 645.383 331.245 637.932 326.503C633.868 324.133 628.956 321.423 621.166 319.221C622.86 318.205 625.061 317.866 627.263 317.866C635.392 317.528 640.303 318.882 647.415 321.931C649.955 322.947 652.157 323.793 654.867 324.301C662.657 325.487 672.648 323.455 679.592 316.681C670.955 318.882 663.165 317.528 658.084 314.987C657.407 314.649 656.56 314.31 655.883 313.802C652.157 311.092 648.432 308.213 640.473 304.657C636.069 302.964 630.65 301.101 622.691 299.915C624.215 298.73 626.247 298.053 628.618 297.714C636.408 296.19 641.488 296.698 649.108 298.561C651.649 299.238 654.02 299.746 656.73 299.746C664.689 299.746 674.172 296.02 680.1 288.4C671.802 291.787 663.842 291.787 658.592 290.093C657.746 289.923 656.899 289.585 656.222 289.246C651.988 287.214 647.923 284.843 639.456 282.642C634.714 281.626 629.296 280.61 621.166 280.779C622.521 279.255 624.384 278.409 626.586 277.731C634.206 274.851 639.286 274.682 647.076 275.191C649.786 275.529 652.157 275.699 654.866 275.191C662.656 274.005 671.463 268.925 676.036 260.288C668.415 265.03 660.625 266.215 655.036 265.538C654.189 265.368 653.343 265.199 652.496 264.86C648.093 263.506 643.69 261.812 635.053 260.965C630.311 260.795 624.553 260.627 616.763 262.151C617.78 260.457 619.473 259.102 621.675 258.086C628.618 254.191 633.529 253.176 641.319 252.498C644.029 252.328 646.399 252.159 648.939 251.312C656.56 248.772 664.519 242.506 667.568 233.192C660.963 239.119 653.343 241.49 647.754 241.66C646.907 241.66 646.061 241.66 645.214 241.49C640.641 240.813 635.9 239.797 627.263 240.474C622.521 240.813 616.933 241.66 609.313 244.369C610.159 242.506 611.683 240.982 613.546 239.627C619.812 234.717 624.553 232.854 632.174 230.991C634.884 230.483 637.085 229.805 639.625 228.62C646.569 224.894 653.512 217.443 655.205 207.79C649.448 214.733 642.335 218.29 636.746 219.306C635.9 219.475 635.053 219.475 634.206 219.475C629.634 219.475 624.892 219.305 616.425 221.169C611.683 222.354 606.264 224.047 599.321 227.942C599.829 225.91 601.014 224.217 602.708 222.692C608.127 216.765 612.53 214.225 619.812 211.177C622.352 210.161 624.553 209.314 626.755 207.621C633.021 202.879 638.609 194.411 638.779 184.759C634.206 192.379 627.771 196.952 622.521 198.815C621.675 199.153 620.828 199.323 619.981 199.492C615.409 200.339 610.667 200.847 602.538 204.064C598.304 205.927 593.224 208.298 586.788 213.209C586.958 211.346 587.974 209.314 589.329 207.451C593.732 200.847 597.796 197.629 604.401 193.565C606.771 192.21 608.804 190.855 610.667 188.992C616.255 183.404 620.489 174.09 619.134 164.437C615.747 172.735 609.99 178.323 605.078 181.033C604.401 181.372 603.554 181.71 602.877 181.88C598.474 183.404 593.901 184.759 586.281 189.162C582.216 191.702 577.644 194.92 572.056 200.677C572.056 198.815 572.733 196.782 573.749 194.75C577.136 187.468 580.523 183.743 586.45 178.493C588.482 176.799 590.345 175.275 592.039 173.073C596.611 166.638 599.321 156.816 596.442 147.503C594.409 156.139 589.668 162.574 585.265 165.961C584.587 166.469 583.91 166.977 583.063 167.316C578.999 169.517 574.596 171.38 567.991 176.969C564.266 180.186 560.201 184.081 555.798 190.686C555.29 188.823 555.628 186.622 556.476 184.42C558.677 176.8 561.386 172.566 566.467 166.47C568.161 164.437 569.854 162.743 571.039 160.203C574.596 153.091 575.612 143.099 571.379 134.293C570.87 143.268 567.144 150.212 563.249 154.276C562.572 154.953 562.064 155.461 561.387 155.97C557.661 158.68 553.597 161.389 547.839 167.993Z" fill="#DDDDDD"/>
    </g>
    <defs>
        <clipPath id="clip0_1978_12354">
            <rect width="1000" height="600" fill="white"/>
        </clipPath>
    </defs>
</svg>
