<svg width="625" height="400" viewBox="0 0 625 400" fill="none"
    xmlns="http://www.w3.org/2000/svg">
    <g clip-path="url(#clip0_1978_11853)">
        <path id="1" d="M0 0H625V400H0V0Z" fill="#EDEDF0"/>
        <path id="2" d="M0 100H625V300H0V100Z" fill="#DDDDDD"/>
        <path d="M256.164 188.531H369.964V232.319H256.164V188.531Z" fill="white" stroke="black" stroke-width="0.96" stroke-linejoin="bevel"/>
        <path d="M364.094 212.714H367.68V229.209H364.094V212.714ZM256.164 204.564H369.964V209.654H256.164V204.564ZM256.164 197.664H369.964V202.154H256.164V197.664Z" fill="white" stroke="black" stroke-width="0.96" stroke-linejoin="bevel"/>
        <path d="M256.164 190.773H369.964V195.127H256.164V190.773Z" fill="white" stroke="black" stroke-width="0.945" stroke-linejoin="bevel"/>
        <path d="M286.122 212.711H289.708V229.206H286.122V212.711ZM335.113 212.711H338.699V229.206H335.113V212.711ZM257.062 212.711H260.648V229.206H257.062V212.711ZM264.092 212.711H267.678V229.206H264.092V212.711ZM271.592 212.711H275.178V229.206H271.592V212.711ZM279.092 212.711H282.678V229.206H279.092V212.711ZM341.913 212.711H345.499V229.206H341.913V212.711ZM349.413 212.711H352.999V229.206H349.413V212.711ZM356.913 212.711H360.499V229.206H356.913V212.711Z" fill="white" stroke="black" stroke-width="0.96" stroke-linejoin="bevel"/>
        <path d="M211.652 234.625C213.412 233.728 215.419 231.641 216.076 229.305H409.146C409.803 231.641 411.811 233.728 413.571 234.625H211.652Z" fill="white" stroke="black" stroke-width="0.96"/>
        <path d="M310.144 121.868C310.144 121.868 310 117.756 312.394 117.711C314.79 117.755 314.644 121.868 314.644 121.868H310.144ZM297.654 176.408V170.872C297.574 168.104 294.894 167.904 294.816 165.886C294.816 165.886 294.47 162.859 295.268 161.478C296.352 165.525 298.324 164.782 298.324 163.118C298.324 161.665 297.207 160.314 294.916 156.788C294.184 155.66 294.636 152.128 295.663 150.865C296.06 153.935 296.515 155.405 297.833 155.405C298.638 155.405 299.295 154.881 299.295 153.343C299.295 151.386 297.97 150.398 297.318 148.618C296.558 146.54 297.082 144.422 298.344 143.238C298.886 146.268 298.724 147.475 300.071 147.475C302.784 146.617 300.071 142.689 299.491 141.698C298.825 140.543 300.388 138.238 300.388 138.238C301.251 140.928 301.528 141.148 302.458 140.898C303.632 140.583 303.481 138.842 302.048 137.435C301.144 136.545 301.24 135.223 302.211 134.161C303.186 136.066 304.434 135.951 304.554 134.819L303.77 130.427H321.025L320.169 134.677C319.924 135.892 321.565 136.157 322.585 134.162C323.557 135.224 323.652 136.547 322.748 137.436C321.316 138.843 321.164 140.584 322.338 140.899C323.268 141.149 323.546 140.929 324.408 138.239C324.408 138.239 325.811 139.809 325.305 141.699C324.725 142.689 322.012 146.619 324.725 147.476C326.071 147.476 325.91 146.268 326.451 143.239C327.714 144.423 328.237 146.541 327.477 148.619C326.827 150.399 325.501 151.387 325.501 153.344C325.501 154.882 326.158 155.406 326.961 155.406C328.281 155.406 328.736 153.936 329.134 150.866C330.159 152.129 330.612 155.661 329.88 156.788C327.59 160.314 326.472 161.665 326.472 163.118C326.472 164.782 328.442 165.525 329.528 161.478C330.325 162.858 329.978 165.886 329.978 165.886C329.9 167.904 327.22 168.104 327.141 170.872V176.408H297.654ZM304.874 130.388L304.477 127.263H320.315L319.919 130.388H304.874ZM305.934 127.198L305.594 124.628H319.197L318.857 127.198H305.934ZM308.094 124.538L307.867 121.968H316.925L316.699 124.538H308.094ZM341.114 234.618C339.087 233.838 336.137 231.698 336.137 229.548V205.251L338.775 201.893H286L288.53 205.253V229.549C288.53 231.699 286.503 233.839 284.477 234.619L341.114 234.618Z" fill="white" stroke="black" stroke-width="0.96"/>
        <path d="M295.383 212.711H298.969V229.206H295.383V212.711ZM325.703 212.711H329.289V229.206H325.703V212.711Z" fill="white" stroke="black" stroke-width="0.96" stroke-linejoin="bevel"/>
        <path d="M285.055 174.235V201.891H339.078V195.934L339.156 174.234C336.948 175.102 336.56 177.104 336.56 177.104V188.882H287.81V177.105C287.81 177.105 287.265 175.103 285.055 174.235Z" fill="white" stroke="black" stroke-width="0.96"/>
        <path d="M331.742 234.618C329.976 233.838 326.13 231.698 326.13 229.548V202.358C326.508 200.84 328.566 199.944 329.89 199H294.068C295.773 199.902 297.674 200.652 298.353 202.36V229.55C298.353 231.7 295.313 233.84 293.547 234.62L331.742 234.618Z" fill="white" stroke="black" stroke-width="0.96"/>
        <path d="M336.555 199.286V179.699H331.645V177.789H292.805V179.699H287.895V199.286H336.555ZM324.005 234.616C322.275 233.836 319.755 231.696 319.755 229.546V206.332L321.177 204.222H303.487L304.907 206.332V229.547C304.907 231.699 302.387 233.837 300.657 234.617L324.005 234.616Z" fill="white" stroke="black" stroke-width="0.96"/>
        <path d="M307.852 204.227H316.818V234.604H307.852V204.227Z" fill="white" stroke="black" stroke-width="0.981"/>
        <path d="M321.522 197.545C321.542 195.545 327.36 195.455 330.354 193.75H294.402C297.396 195.454 303.077 195.594 303.077 197.545L304.294 201.427L319.177 202.025L321.522 197.545Z" fill="white" stroke="black" stroke-width="0.96" stroke-linejoin="bevel"/>
        <path d="M328.553 176.408C328.553 171.508 328.758 169.622 330.263 169.622V185.202C326.573 186.542 323.938 191.252 323.938 191.252H300.728C300.728 191.252 298.093 186.542 294.402 185.202V169.622C296.257 169.622 296.269 171.594 296.269 176.408H328.553ZM330.263 174.398C330.263 168.78 335.113 168.148 335.113 168.148V173.148C333.268 173.068 332.377 174.726 332.377 177.192C332.377 179.658 333.864 179.698 333.864 179.698V193.888H330.264L330.263 174.398Z" fill="white" stroke="black" stroke-width="0.96"/>
        <path d="M294.424 174.398C294.424 168.78 289.574 168.148 289.574 168.148V173.148C291.419 173.068 292.31 174.726 292.31 177.192C292.31 179.658 290.823 179.698 290.823 179.698V193.888H294.423L294.424 174.398Z" fill="white" stroke="black" stroke-width="0.96"/>
        <path d="M303.985 135.688H321.113M301.955 141.037H322.875M299.925 147.528H324.829M297.805 155.458H327.341M297.125 164.497H327.551" stroke="black" stroke-width="0.8"/>
        <path d="M287.895 193.984H336.555M303.335 193.994H321.371V200.624H303.335V193.994Z" stroke="black" stroke-width="0.96"/>
        <path d="M301.074 179.309C304.064 182.899 303.787 188.989 303.754 192.579H321.096C321.061 188.989 320.784 182.899 323.774 179.309H301.074ZM310.824 138.179L308.448 136.955V133.458C309.418 133.748 310.51 133.868 310.616 135.416C310.954 133.206 311.564 133.314 312.523 132.453C313.48 133.313 314.09 133.206 314.428 135.416C314.535 133.868 315.625 133.749 316.598 133.456V136.954L314.22 138.178L310.824 138.179Z" fill="white" stroke="black" stroke-width="0.96"/>
        <path d="M310.665 143.922L306.719 141.209V137.986C308.102 138.306 309.655 138.436 309.807 140.136C310.289 137.712 311.157 136.46 312.522 135.516C313.887 136.46 314.755 137.712 315.237 140.136C315.389 138.436 316.942 138.306 318.327 137.986V141.209L314.379 143.922H310.665Z" fill="white" stroke="black" stroke-width="0.96"/>
        <path d="M310.381 152.868L305.843 148.883V144.147C307.433 144.617 309.22 144.809 309.395 147.303C309.948 143.743 310.947 141.903 312.515 140.516C314.085 141.903 315.085 143.742 315.638 147.302C315.813 144.808 317.598 144.616 319.188 144.145V148.88L314.652 152.865L310.381 152.868ZM318.751 158.158L314.647 163.834H310.001L305.897 158.158H318.751ZM303.531 167.688C305.584 168.81 306.341 171.045 306.561 175.241H318.111C318.331 171.045 319.088 168.811 321.141 167.688H303.531Z" fill="white" stroke="black" stroke-width="0.96"/>
        <path d="M321.312 158.155V152.453C319.362 152.99 318.099 154.143 317.536 155.711C317.536 153.818 315.046 149.454 312.329 147.281C309.605 149.713 307.072 153.661 307.123 155.711C306.66 154.219 305.298 152.991 303.348 152.453V158.155H321.312Z" fill="white" stroke="black" stroke-width="0.96" stroke-linejoin="bevel"/>
        <path d="M322.182 167.687V161.985C320.044 162.522 318.66 163.675 318.042 165.243C318.042 163.35 315.312 158.984 312.335 156.812C309.349 159.244 306.572 163.193 306.628 165.243C306.12 163.751 304.626 162.523 302.488 161.985V167.687H322.182Z" fill="white" stroke="black" stroke-width="0.96" stroke-linejoin="bevel"/>
        <path d="M324.582 179.389V172.812C321.922 173.499 320.27 175.465 319.432 176.612C319.432 173.052 315.412 167.622 312.332 165.844C309.172 167.669 305.232 173.279 305.232 176.612C304.372 175.472 302.742 173.499 300.082 172.812V179.389H324.582Z" fill="white" stroke="black" stroke-width="0.96" stroke-linejoin="bevel"/>
        <path d="M323.143 193.989V187.227C320.797 188.147 320.095 190.407 319.357 191.944C319.647 185.084 315.495 177.714 312.333 175.844C309.17 177.714 304.94 185.244 305.309 191.944C304.551 190.417 303.869 188.147 301.523 187.227V193.989H323.143Z" fill="white" stroke="black" stroke-width="0.96" stroke-linejoin="bevel"/>
        <path d="M321.505 204.224V197.462C319.047 198.047 318.895 198.952 318.113 200.468C318.403 196.371 315.503 191.698 312.34 189.828C309.177 191.698 306.276 196.372 306.566 200.468C305.786 198.953 305.689 198.048 303.176 197.462V204.224H321.505Z" fill="white" stroke="black" stroke-width="0.96"/>
        <path d="M216.079 229.292V208.852C215.409 206.249 213.199 203.947 211.539 203.486V185.492L215.279 187.516L219.551 206.326V229.292H216.079Z" fill="white" stroke="black" stroke-width="0.96"/>
        <path d="M216.079 229.378V208.858C215.409 206.256 213.199 203.954 211.539 203.493V184.25C214.049 184.25 215.279 187.523 215.279 187.523L219.551 206.333V229.22L216.079 229.378Z" fill="white" stroke="black" stroke-width="0.96"/>
        <path d="M213.418 234.616C215.148 233.836 217.668 231.696 217.668 229.546V203.999L216.481 201.891H260.004L258.306 203.999V229.546C258.306 231.696 260.036 233.836 261.766 234.616H213.418Z" fill="white" stroke="black" stroke-width="0.96"/>
        <path d="M252.985 234.618C251.255 233.838 248.735 231.698 248.735 229.548V205.251L252.355 201.891L222.767 201.893L226.387 205.251V229.548C226.387 231.698 223.867 233.838 222.137 234.618H252.985Z" fill="white" stroke="black" stroke-width="0.96"/>
        <path d="M248.835 234.614C247.105 233.834 244.585 231.694 244.585 229.544V207.579L246.955 204.219H228.157L230.527 207.579V229.544C230.527 231.694 228.007 233.834 226.277 234.614H248.835Z" fill="white" stroke="black" stroke-width="0.96"/>
        <path d="M233.062 204.227H242.045V234.62H233.062V204.227Z" fill="white" stroke="black" stroke-width="0.96"/>
        <path d="M220.845 212.703H224.431V229.198H220.845V212.703ZM251.595 212.703H255.181V229.198H251.595V212.703ZM217.785 184.883H222.105V201.793H217.785V184.883ZM217.785 181.703H222.08V184.843H217.785V181.703Z" fill="white" stroke="black" stroke-width="0.96" stroke-linejoin="bevel"/>
        <path d="M253.312 188.523H259.473V201.577H253.312V188.523Z" fill="white" stroke="black" stroke-width="1.034" stroke-linejoin="bevel"/>
        <path d="M222.036 201.665V172.725C223.268 172.725 223.458 176.965 226.286 176.965C227.756 176.965 227.6 175.209 226.774 173.778C226.042 172.51 225.137 170.76 226.367 167.498C227.211 169.994 229.48 170.786 229.061 169.221C228.341 166.533 226.266 166.091 227.821 161.919C228.363 165.399 230.595 165.246 230.053 163.223C229.443 160.943 228.18 160.009 229.737 156.795C230.61 160.445 231.789 160.23 231.789 157.965C231.789 154.619 231.661 151.009 235.992 149.67C235.992 149.67 236.242 146.602 237.804 146.602C239.366 146.602 239.617 149.67 239.617 149.67C243.947 151.01 243.819 154.62 243.819 157.966C243.819 160.231 244.999 160.446 245.871 156.796C247.429 160.01 246.166 160.944 245.556 163.224C245.012 165.247 247.246 165.401 247.786 161.92C249.342 166.092 247.268 166.534 246.546 169.222C246.128 170.787 248.396 169.995 249.24 167.5C250.47 170.76 249.565 172.51 248.833 173.78C248.007 175.21 247.85 176.967 249.323 176.967C252.149 176.967 252.339 172.727 253.571 172.727V201.667L222.036 201.665ZM215.27 179.805V201.885H217.78V179.749C216.876 179.292 216.026 179.222 215.27 179.805Z" fill="white" stroke="black" stroke-width="0.96"/>
        <path d="M215.348 194.094C218.46 195.684 221.543 197.527 222.323 201.887H215.348V194.094ZM258.515 187.484V201.891H260.55V187.448C259.915 187.15 259.047 187.103 258.515 187.484Z" fill="white" stroke="black" stroke-width="0.96"/>
        <path d="M260.556 193.984C257.444 195.574 254.361 197.417 253.581 201.777H260.556V193.984ZM239.976 160.334L241.79 158.809V156.856C241.126 156.921 240.764 157.149 240.274 157.792C239.857 156.497 238.94 155.487 237.712 154.859C236.482 155.487 235.566 156.452 235.149 157.746C234.659 157.103 234.297 156.921 233.633 156.856V158.809L235.448 160.334H239.976Z" fill="white" stroke="black" stroke-width="0.96"/>
        <path d="M240.943 165.225L241.786 163.4V160.86C241.122 160.927 240.76 161.158 240.27 161.81C239.853 160.497 238.936 159.472 237.708 158.836C236.478 159.473 235.562 160.452 235.145 161.764C234.655 161.114 234.293 160.928 233.629 160.862V163.402L234.473 165.226L240.943 165.225Z" fill="white" stroke="black" stroke-width="0.96"/>
        <path d="M241.075 171.858L243.77 168.571V165.328C242.784 165.438 242.246 165.831 241.518 166.934C240.898 164.712 239.538 164.226 237.712 163.148C235.887 164.226 234.525 164.633 233.906 166.855C233.178 165.752 232.64 165.439 231.656 165.328V168.571L234.349 171.858H241.075Z" fill="white" stroke="black" stroke-width="0.96"/>
        <path d="M241.865 178.368C241.865 178.368 245.005 175.628 245.192 174.124V170.657C243.975 170.799 242.824 171.115 241.925 172.539C241.16 169.669 239.965 168.869 237.713 167.477C235.46 168.869 234.266 169.669 233.501 172.539C232.601 171.114 231.451 170.799 230.234 170.656V174.122C230.63 175.626 233.56 178.366 233.56 178.366L241.865 178.368Z" fill="white" stroke="black" stroke-width="0.96"/>
        <path d="M243.202 190.384C243.202 190.384 247.502 185.624 247.602 183.768V178.362C245.992 178.585 244.47 179.692 243.282 181.912C242.27 177.438 240.692 174.318 237.712 172.148C234.732 174.318 233.152 177.438 232.142 181.913C230.952 179.691 229.429 178.583 227.82 178.361V183.767C228.128 185.622 232.22 190.383 232.22 190.383L243.202 190.384Z" fill="white" stroke="black" stroke-width="0.96"/>
        <path d="M243.202 197.498C243.202 197.498 246.878 193.756 247.602 192.132V186.726C245.992 186.949 244.47 188.056 243.282 190.276C242.27 185.802 240.692 183.24 237.712 181.07C234.732 183.24 233.152 185.802 232.142 190.277C230.952 188.054 229.429 186.947 227.82 186.725V192.131C228.753 193.755 232.22 197.497 232.22 197.497L243.202 197.498Z" fill="white" stroke="black" stroke-width="0.96"/>
        <path d="M244.685 201.624C243.612 196.956 242.689 193.494 237.522 189.984C232.355 193.494 231.432 196.956 230.359 201.624H244.685Z" fill="white" stroke="black" stroke-width="0.96"/>
        <path d="M247.343 204.225V197.463C244.997 198.383 242.876 199.743 242.093 201.258C241.221 197.504 239.537 195.85 237.441 193.578C235.344 195.85 233.941 197.504 233.066 201.258C232.284 199.743 230.164 198.383 227.816 197.463V204.225H247.343Z" fill="white" stroke="black" stroke-width="0.96"/>
        <path d="M408.948 229.292V208.852C409.618 206.249 411.828 203.947 413.488 203.486V185.492L409.748 187.516L405.476 206.326V229.292H408.948Z" fill="white" stroke="black" stroke-width="0.96"/>
        <path d="M408.948 229.378V208.858C409.618 206.256 411.828 203.954 413.488 203.493V184.25C410.978 184.25 409.748 187.523 409.748 187.523L405.476 206.333V229.22L408.948 229.378Z" fill="white" stroke="black" stroke-width="0.96"/>
        <path d="M411.609 234.616C409.879 233.836 407.359 231.696 407.359 229.546V203.999L408.546 201.891H365.023L366.721 203.999V229.546C366.721 231.696 364.991 233.836 363.261 234.616H411.609Z" fill="white" stroke="black" stroke-width="0.96"/>
        <path d="M372.043 234.618C373.773 233.838 376.293 231.698 376.293 229.548V205.251L372.673 201.891L402.261 201.893L398.641 205.251V229.548C398.641 231.698 401.161 233.838 402.891 234.618H372.043Z" fill="white" stroke="black" stroke-width="0.96"/>
        <path d="M376.192 234.614C377.922 233.834 380.442 231.694 380.442 229.544V207.579L378.072 204.219H396.87L394.5 207.579V229.544C394.5 231.694 397.02 233.834 398.75 234.614H376.192Z" fill="white" stroke="black" stroke-width="0.96"/>
        <path d="M391.965 204.227H382.983V234.62H391.965V204.227Z" fill="white" stroke="black" stroke-width="0.96"/>
        <path d="M404.182 212.703H400.596V229.198H404.182V212.703ZM373.432 212.703H369.846V229.198H373.432V212.703ZM407.242 184.883H402.922V201.793H407.242V184.883ZM407.242 181.703H402.947V184.843H407.242V181.703Z" fill="white" stroke="black" stroke-width="0.96" stroke-linejoin="bevel"/>
        <path d="M371.715 188.523H365.555V201.577H371.715V188.523Z" fill="white" stroke="black" stroke-width="1.034" stroke-linejoin="bevel"/>
        <path d="M402.992 201.665V172.725C401.76 172.725 401.57 176.965 398.742 176.965C397.272 176.965 397.428 175.209 398.254 173.778C398.986 172.51 399.891 170.76 398.661 167.498C397.817 169.994 395.548 170.786 395.967 169.221C396.687 166.533 398.762 166.091 397.207 161.919C396.665 165.399 394.433 165.246 394.975 163.223C395.585 160.943 396.848 160.009 395.291 156.795C394.418 160.445 393.239 160.23 393.239 157.965C393.239 154.619 393.367 151.009 389.036 149.67C389.036 149.67 388.786 146.602 387.224 146.602C385.662 146.602 385.411 149.67 385.411 149.67C381.081 151.01 381.209 154.62 381.209 157.966C381.209 160.231 380.029 160.446 379.157 156.796C377.599 160.01 378.862 160.944 379.472 163.224C380.016 165.247 377.782 165.401 377.242 161.92C375.686 166.092 377.76 166.534 378.482 169.222C378.9 170.787 376.632 169.995 375.788 167.5C374.558 170.76 375.463 172.51 376.195 173.78C377.021 175.21 377.178 176.967 375.705 176.967C372.879 176.967 372.689 172.727 371.457 172.727V201.667L402.992 201.665ZM409.758 179.805V201.885H407.248V179.749C408.152 179.292 409.002 179.222 409.758 179.805Z" fill="white" stroke="black" stroke-width="0.96"/>
        <path d="M409.68 194.094C406.568 195.684 403.485 197.527 402.705 201.887H409.68V194.094ZM366.513 187.484V201.891H364.478V187.448C365.113 187.15 365.981 187.103 366.513 187.484Z" fill="white" stroke="black" stroke-width="0.96"/>
        <path d="M364.472 193.984C367.584 195.574 370.667 197.417 371.447 201.777H364.472V193.984ZM385.052 160.334L383.238 158.809V156.856C383.902 156.921 384.264 157.149 384.754 157.792C385.171 156.497 386.088 155.487 387.316 154.859C388.546 155.487 389.462 156.452 389.879 157.746C390.369 157.103 390.731 156.921 391.395 156.856V158.809L389.58 160.334H385.052Z" fill="white" stroke="black" stroke-width="0.96"/>
        <path d="M384.084 165.225L383.241 163.4V160.86C383.905 160.927 384.267 161.158 384.757 161.81C385.174 160.497 386.091 159.472 387.319 158.836C388.549 159.473 389.465 160.452 389.882 161.764C390.372 161.114 390.734 160.928 391.398 160.862V163.402L390.554 165.226L384.084 165.225Z" fill="white" stroke="black" stroke-width="0.96"/>
        <path d="M383.952 171.858L381.257 168.571V165.328C382.243 165.438 382.781 165.831 383.509 166.934C384.129 164.712 385.489 164.226 387.315 163.148C389.14 164.226 390.502 164.633 391.121 166.855C391.849 165.752 392.387 165.439 393.371 165.328V168.571L390.678 171.858H383.952Z" fill="white" stroke="black" stroke-width="0.96"/>
        <path d="M383.162 178.368C383.162 178.368 380.022 175.628 379.835 174.124V170.657C381.052 170.799 382.203 171.115 383.102 172.539C383.867 169.669 385.062 168.869 387.314 167.477C389.567 168.869 390.761 169.669 391.526 172.539C392.426 171.114 393.576 170.799 394.793 170.656V174.122C394.397 175.626 391.467 178.366 391.467 178.366L383.162 178.368Z" fill="white" stroke="black" stroke-width="0.96"/>
        <path d="M381.825 190.384C381.825 190.384 377.525 185.624 377.425 183.768V178.362C379.035 178.585 380.557 179.692 381.745 181.912C382.757 177.438 384.335 174.318 387.315 172.148C390.295 174.318 391.875 177.438 392.885 181.913C394.075 179.691 395.598 178.583 397.207 178.361V183.767C396.899 185.622 392.807 190.383 392.807 190.383L381.825 190.384Z" fill="white" stroke="black" stroke-width="0.96"/>
        <path d="M381.825 197.498C381.825 197.498 378.149 193.756 377.425 192.132V186.726C379.035 186.949 380.557 188.056 381.745 190.276C382.757 185.802 384.335 183.24 387.315 181.07C390.295 183.24 391.875 185.802 392.885 190.277C394.075 188.054 395.598 186.947 397.207 186.725V192.131C396.274 193.755 392.807 197.497 392.807 197.497L381.825 197.498Z" fill="white" stroke="black" stroke-width="0.96"/>
        <path d="M380.342 201.624C381.415 196.956 382.338 193.494 387.505 189.984C392.672 193.494 393.595 196.956 394.668 201.624H380.342Z" fill="white" stroke="black" stroke-width="0.96"/>
        <path d="M377.684 204.225V197.463C380.03 198.383 382.151 199.743 382.934 201.258C383.806 197.504 385.49 195.85 387.586 193.578C389.683 195.85 391.086 197.504 391.961 201.258C392.743 199.743 394.863 198.383 397.211 197.463V204.225H377.684Z" fill="white" stroke="black" stroke-width="0.96"/>
        <path d="M206.555 234.345V240.518H418.445V234.344L206.555 234.345ZM202.719 240.575V248.625H422.279V240.575H202.719ZM422.279 248.625L202.719 248.685L196.301 248.625V259.247H428.699V248.627L422.279 248.625ZM189.836 259.315L189.838 271.825H435.168L435.166 259.315H189.836ZM435.168 271.825V271.845H189.838V271.825H183.371V284.335H441.631V271.825H435.168Z" fill="white"/>
        <path d="M422.279 248.625H202.719V240.575H422.279V248.625ZM422.279 248.625L202.719 248.685L196.301 248.625V259.247H428.699V248.627L422.279 248.625ZM189.838 271.825L189.836 259.315H435.166L435.168 271.825M189.838 271.825H435.168M189.838 271.825V271.845H435.168V271.825M189.838 271.825H183.371V284.335H441.631V271.825H435.168M206.555 234.345V240.518H418.445V234.344L206.555 234.345Z" stroke="black" stroke-width="0.96"/>
        <path d="M229.555 234.375H245.56V284.31H229.555V234.375Z" fill="white" stroke="black" stroke-width="1.045"/>
        <path d="M233.094 234.375H242.011V284.311H233.094V234.375Z" fill="white" stroke="black" stroke-width="1.043"/>
        <path d="M304.223 234.375H320.229V284.31H304.223V234.375Z" fill="white" stroke="black" stroke-width="1.045"/>
        <path d="M307.875 234.375H316.792V284.311H307.875V234.375Z" fill="white" stroke="black" stroke-width="1.043"/>
        <path d="M379.332 234.375H395.337V284.31H379.332V234.375Z" fill="white" stroke="black" stroke-width="1.045"/>
        <path d="M382.875 234.375H391.792V284.311H382.875V234.375Z" fill="white" stroke="black" stroke-width="1.043"/>
        <path d="M216.078 229.297H409.148M232.933 278.037H242.177M232.933 271.787H242.177M232.933 265.537H242.177M232.933 259.287H242.177M232.933 253.037H242.177M232.933 246.787H242.177M232.933 240.537H242.177M307.913 278.047H316.52M307.913 271.794H316.52M307.913 265.54H316.52M307.913 259.287H316.52M307.913 253.034H316.52M307.913 246.781H316.52M307.913 240.527H316.52M382.713 278.037H391.957M382.713 271.787H391.957M382.713 265.537H391.957M382.713 259.287H391.957M382.713 253.037H391.957M382.713 246.787H391.957M382.713 240.537H391.957" stroke="black" stroke-width="0.96"/>
    </g>
    <defs>
        <clipPath id="clip0_1978_11853">
            <rect width="625" height="400" fill="white"/>
        </clipPath>
    </defs>
</svg>
