<svg width="600" height="300" viewBox="0 0 600 300" fill="none"
    xmlns="http://www.w3.org/2000/svg">
    <g clip-path="url(#clip0_2052_38)">
        <path id="1" d="M0 0H600V162H0V0Z" fill="#EDEDF0"/>
        <g id="4">
            <path class="only-fill" d="M305.752 27.3397C286.672 19.4497 274.992 17.9997 261.942 17.8697C243.042 17.9997 234.022 26.1197 216.002 26.8697C223.142 34.5597 249.022 36.4397 259.932 26.3397C276.152 28.0297 279.832 32.4097 284.182 37.8597C277.412 36.7897 269.612 34.8397 263.142 41.9997C257.682 43.0997 255.152 41.9997 245.812 41.9997C241.452 41.9997 239.942 44.1397 240.002 47.9997C242.822 44.0997 262.312 46.3997 267.092 47.9997C270.762 49.2297 274.662 54.3197 279.312 55.1497C291.502 57.3197 308.992 50.9497 325.122 46.6097L360.002 41.9997H336.072L366.002 35.9997H333.462C332.772 35.2097 331.122 34.1897 329.802 33.3197C338.172 27.9297 345.572 18.1297 347.462 13.3997C362.552 13.2497 372.292 11.8497 384.002 9.10967C306.822 0.569673 324.392 9.77967 305.752 27.3397Z" fill="#DDDDDD"/>
            <path class="only-fill" d="M270.062 39.8897C270.892 39.8897 271.562 40.5597 271.562 41.3897C271.562 42.2197 270.892 42.8897 270.062 42.8897C269.242 42.8897 268.562 42.2197 268.562 41.3897C268.562 40.5597 269.242 39.8897 270.062 39.8897Z" fill="black"/>
            <path class="only-fill" d="M249.513 148.808C242.518 147.857 235.804 145.436 229.813 141.703C223.821 137.971 218.687 133.012 214.75 127.153C220.885 130.645 227.69 132.798 234.717 133.471C241.744 134.144 248.833 133.321 255.52 131.057" fill="#DDDDDD"/>
            <path class="only-fill" d="M249.221 160.704L207.398 147.419L250.95 142.044" fill="#DDDDDD"/>
            <path class="only-fill" d="M255.522 131.052C249.343 127.638 243.958 122.955 239.719 117.31C235.481 111.665 232.485 105.186 230.931 98.3005C235.39 103.773 240.957 108.239 247.266 111.405C253.576 114.571 260.484 116.366 267.536 116.67" fill="#DDDDDD"/>
            <path class="only-fill" d="M250.951 142.04L216.754 114.541L259.306 125.265" fill="#DDDDDD"/>
            <path class="only-fill" d="M267.533 116.673C263.004 111.258 259.674 104.945 257.76 98.1506C255.846 91.3559 255.392 84.2329 256.429 77.2504C258.611 83.9639 262.19 90.1392 266.93 95.3702C271.67 100.601 277.464 104.769 283.931 107.6" fill="#DDDDDD"/>
            <path class="only-fill" d="M259.303 125.268L237.344 87.2752L273.152 112.642" fill="#DDDDDD"/>
            <path class="only-fill" d="M283.935 107.598C281.669 100.913 280.844 93.8235 281.514 86.7963C282.184 79.7691 284.335 72.9635 287.825 66.8273C287.434 73.8755 288.539 80.9267 291.069 87.5169C293.599 94.1071 297.496 100.087 302.503 105.063" fill="#DDDDDD"/>
            <path class="only-fill" d="M273.156 112.639L266.407 69.2795L290.63 105.87" fill="#DDDDDD"/>
            <path class="only-fill" d="M302.508 105.063C302.81 98.0105 304.602 91.1017 307.766 84.7914C310.93 78.4811 315.394 72.9122 320.865 68.4513C317.954 74.8822 316.437 81.8566 316.415 88.9156C316.393 95.9747 317.866 102.958 320.737 109.407" fill="#DDDDDD"/>
            <path class="only-fill" d="M290.635 105.869L300.008 62.9997L309.375 105.87" fill="#DDDDDD"/>
            <path class="only-fill" d="M320.734 109.406C323.562 102.938 327.728 97.1428 332.958 92.4009C338.187 87.6591 344.361 84.0784 351.074 81.8942C346.037 86.8397 342.104 92.7958 339.534 99.3705C336.964 105.945 335.816 112.99 336.164 120.04" fill="#DDDDDD"/>
            <path class="only-fill" d="M309.371 105.87L333.593 69.2783L326.846 112.639" fill="#DDDDDD"/>
            <path class="only-fill" d="M336.168 120.044C341.142 115.035 347.12 111.136 353.71 108.604C360.299 106.072 367.35 104.964 374.398 105.352C367.915 108.144 362.096 112.277 357.324 117.479C352.552 122.681 348.936 128.835 346.714 135.535" fill="#DDDDDD"/>
            <path class="only-fill" d="M326.85 112.641L362.657 87.273L340.699 125.266" fill="#DDDDDD"/>
            <path class="only-fill" d="M346.716 135.539C353.164 132.666 360.147 131.191 367.206 131.21C374.265 131.23 381.24 132.744 387.672 135.653C380.617 135.914 373.698 137.665 367.369 140.791C361.04 143.918 355.445 148.35 350.952 153.794" fill="#DDDDDD"/>
            <path class="only-fill" d="M340.702 125.27L383.255 114.553L349.054 142.046" fill="#DDDDDD"/>
            <path class="only-fill" d="M350.952 153.79C358.002 153.439 365.047 154.586 371.623 157.153C378.198 159.721 384.156 163.652 389.103 168.687C382.431 166.382 375.346 165.516 368.315 166.147C361.284 166.777 354.466 168.889 348.31 172.343" fill="#DDDDDD"/>
            <path class="only-fill" d="M349.053 142.043L392.605 147.416L350.783 160.703" fill="#DDDDDD"/>
            <path class="only-fill" d="M300.002 207C328.168 207 351.002 184.166 351.002 156C351.002 127.833 328.168 105 300.002 105C271.835 105 249.002 127.833 249.002 156C249.002 184.166 271.835 207 300.002 207Z" fill="#DDDDDD"/>
            <path class="only-fill" d="M305.752 27.3397C286.672 19.4497 274.992 17.9997 261.942 17.8697C243.042 17.9997 234.022 26.1197 216.002 26.8697M305.752 27.3397C324.392 9.77967 306.822 0.569673 384.002 9.10967M305.752 27.3397C302.182 30.7097 297.292 34.3797 290.132 38.2897M216.002 26.8697C223.142 34.5597 249.022 36.4397 259.932 26.3397M216.002 26.8697C216.002 26.8697 227.492 30.0097 236.832 25.5197M259.932 26.3397C276.152 28.0297 279.832 32.4097 284.182 37.8597M259.932 26.3397C241.612 23.9897 233.952 25.6597 233.952 25.6597M284.182 37.8597C277.412 36.7897 269.612 34.8397 263.142 41.9997C257.682 43.0997 255.152 41.9997 245.812 41.9997C241.452 41.9997 239.942 44.1397 240.002 47.9997C242.822 44.0997 262.312 46.3997 267.092 47.9997C270.762 49.2297 274.662 54.3197 279.312 55.1497C291.502 57.3197 308.992 50.9497 325.122 46.6097M284.182 37.8597C286.292 38.1897 288.302 38.4397 290.132 38.2897M325.122 46.6097L360.002 41.9997H336.072M325.122 46.6097C325.122 46.6097 330.852 41.9997 336.072 41.9997M336.072 41.9997L366.002 35.9997H333.462C332.772 35.2097 331.122 34.1897 329.802 33.3197M329.802 33.3197C338.172 27.9297 345.572 18.1297 347.462 13.3997M329.802 33.3197C320.842 31.4597 318.462 28.4697 318.462 28.4697M347.462 13.3997C362.552 13.2497 372.292 11.8497 384.002 9.10967M347.462 13.3997C341.682 12.5497 335.482 8.68967 335.482 8.68967M384.002 9.10967C363.292 11.4197 351.372 9.01967 351.372 9.01967M290.132 38.2897C290.132 38.2897 283.862 41.9997 279.702 41.9997M233.822 24.5997C233.822 24.5997 238.482 22.1597 240.682 21.5097M253.132 21.1197C253.132 21.1197 260.522 17.9297 268.752 18.0897M273.112 21.8997C273.112 21.8997 282.802 20.2697 291.752 22.2597M284.252 24.2397C284.252 24.2397 292.292 22.8897 300.002 25.0697M292.522 26.6897C292.522 26.6897 300.712 26.7997 304.782 28.3797M217.462 28.2297C217.462 28.2297 232.382 31.9097 239.202 25.0797M222.462 30.8097C222.462 30.8097 233.702 34.4297 242.542 25.0897M232.902 33.0797C232.902 33.0797 241.982 30.4797 245.422 25.1297M240.002 33.2297C240.002 33.2297 246.092 29.0097 248.282 25.2497M320.042 27.0597C320.042 27.0597 323.892 30.9097 331.912 31.8497M321.982 25.2497C321.982 25.2497 325.892 28.6097 334.402 29.8597M323.912 23.3197C323.912 23.3197 329.892 27.3097 336.702 27.7697M326.272 20.7997C326.272 20.7997 330.462 24.7097 338.772 25.6797M328.032 18.7897C328.032 18.7897 332.942 23.0097 340.662 23.5897M329.762 16.6897C329.762 16.6897 332.772 20.1697 342.702 21.0797M331.522 14.4197C331.522 14.4197 334.872 18.0997 344.302 18.8997M332.892 12.5497C332.892 12.5497 338.792 16.9997 345.622 16.9097M334.062 10.8497C334.062 10.8497 341.862 15.5297 346.512 15.3797M308.842 30.3797C308.842 30.3797 311.342 32.2697 313.682 32.1897M310.282 28.9797C310.282 28.9797 312.452 30.8297 315.432 30.8197M312.032 27.2597C312.032 27.2597 314.492 29.5597 317.442 29.1397M313.692 25.5997C313.692 25.5997 316.632 27.5997 319.262 27.5397M315.532 23.7097C315.532 23.7097 317.712 25.5997 321.162 25.7797M317.172 21.6297C317.172 21.6297 319.732 23.8997 322.992 23.9797M318.902 20.1297C318.902 20.1297 321.382 21.7197 324.892 22.0197M320.472 18.3797C320.472 18.3797 323.822 19.5597 326.892 19.8497M322.282 16.2397C322.282 16.2397 324.592 17.8597 328.692 17.7597M323.912 14.0997C323.912 14.0997 326.652 15.9197 330.172 15.9597M325.112 12.0697C325.112 12.0697 328.792 14.1297 331.962 13.6697M326.452 9.63967C326.452 9.63967 328.782 12.1897 333.122 12.0997M327.392 8.53967C327.392 8.53967 331.572 10.8897 334.402 10.2897M329.162 7.20967C329.162 7.20967 332.332 9.13967 335.232 9.05967M332.382 6.23967C332.382 6.23967 338.032 9.11967 345.672 5.99967M337.192 8.28967C337.192 8.28967 348.612 10.9097 353.562 6.32967M346.152 8.96967C346.152 8.96967 354.002 9.78967 362.782 7.00967M243.242 32.9597C243.242 32.9597 248.572 29.4497 250.782 25.4097M247.232 32.3097C247.232 32.3097 251.522 28.1497 252.772 25.5697M251.192 31.2397C251.192 31.2397 254.722 28.0697 255.502 25.8497M241.032 22.5997C241.032 22.5997 247.452 19.4897 253.172 18.5397M247.412 21.3097C247.412 21.3097 252.102 19.0997 259.022 17.9997M258.072 20.8897C258.072 20.8897 264.562 18.1197 272.502 18.3797M266.282 20.9397C266.282 20.9397 275.182 18.9497 283.382 20.0697M290.112 25.2897C290.112 25.2897 296.902 24.9797 304.712 26.9197M278.502 22.5597C278.502 22.5597 288.232 22.0397 294.902 23.2697M338.672 8.56967C338.672 8.56967 342.032 11.4797 351.392 13.3297M343.952 9.03967C343.952 9.03967 349.212 12.0297 357.512 13.0697M349.472 9.07967C349.472 9.07967 356.852 12.2897 364.652 12.4897M357.642 9.77967C357.642 9.77967 365.162 11.5897 374.482 11.0997M262.412 20.7797C262.412 20.7797 267.512 18.6797 276.552 18.8497M296.042 28.4197C296.042 28.4197 299.102 28.0497 302.902 29.8597M249.513 148.808C242.518 147.857 235.804 145.436 229.813 141.703C223.821 137.971 218.687 133.012 214.75 127.153C220.885 130.645 227.69 132.798 234.717 133.471C241.744 134.144 248.833 133.321 255.52 131.057M249.221 160.704L207.398 147.419L250.95 142.044M255.522 131.052C249.343 127.638 243.958 122.955 239.719 117.31C235.481 111.665 232.485 105.186 230.931 98.3005C235.39 103.773 240.957 108.239 247.266 111.405C253.576 114.571 260.484 116.366 267.536 116.67M250.951 142.04L216.754 114.541L259.306 125.265M267.533 116.673C263.004 111.258 259.674 104.945 257.76 98.1506C255.846 91.3559 255.392 84.2329 256.429 77.2504C258.611 83.9639 262.19 90.1392 266.93 95.3702C271.67 100.601 277.464 104.769 283.931 107.6M259.303 125.268L237.344 87.2752L273.152 112.642M283.935 107.598C281.669 100.913 280.844 93.8235 281.514 86.7963C282.184 79.7691 284.335 72.9635 287.825 66.8273C287.434 73.8755 288.539 80.9267 291.069 87.5169C293.599 94.1071 297.496 100.087 302.503 105.063M273.156 112.639L266.407 69.2795L290.63 105.87M302.508 105.063C302.81 98.0105 304.602 91.1017 307.766 84.7914C310.93 78.4811 315.394 72.9122 320.865 68.4513C317.954 74.8822 316.437 81.8566 316.415 88.9156C316.393 95.9747 317.866 102.958 320.737 109.407M290.635 105.869L300.008 62.9997L309.375 105.87M320.734 109.406C323.562 102.938 327.728 97.1428 332.958 92.4009C338.187 87.6591 344.361 84.0784 351.074 81.8942C346.037 86.8397 342.104 92.7958 339.534 99.3705C336.964 105.945 335.816 112.99 336.164 120.04M309.371 105.87L333.593 69.2783L326.846 112.639M336.168 120.044C341.142 115.035 347.12 111.136 353.71 108.604C360.299 106.072 367.35 104.964 374.398 105.352C367.915 108.144 362.096 112.277 357.324 117.479C352.552 122.681 348.936 128.835 346.714 135.535M326.85 112.641L362.657 87.273L340.699 125.266M346.716 135.539C353.164 132.666 360.147 131.191 367.206 131.21C374.265 131.23 381.24 132.744 387.672 135.653C380.617 135.914 373.698 137.665 367.369 140.791C361.04 143.918 355.445 148.35 350.952 153.794M340.702 125.27L383.255 114.553L349.054 142.046M350.952 153.79C358.002 153.439 365.047 154.586 371.623 157.153C378.198 159.721 384.156 163.652 389.103 168.687C382.431 166.382 375.346 165.516 368.315 166.147C361.284 166.777 354.466 168.889 348.31 172.343M349.053 142.043L392.605 147.416L350.783 160.703M270.062 39.8897C270.892 39.8897 271.562 40.5597 271.562 41.3897C271.562 42.2197 270.892 42.8897 270.062 42.8897C269.242 42.8897 268.562 42.2197 268.562 41.3897C268.562 40.5597 269.242 39.8897 270.062 39.8897ZM351.002 156C351.002 184.166 328.168 207 300.002 207C271.835 207 249.002 184.166 249.002 156C249.002 127.833 271.835 105 300.002 105C328.168 105 351.002 127.833 351.002 156Z" stroke="black" stroke-width="0.46" stroke-miterlimit="22.926"/>
        </g>
        <path id="2" d="M0 162H600V300H0V162Z" fill="#DDDDDD"/>
        <path id="3" d="M-36 168C-16 160 4 160 24 168C44 176 64 176 84 168C104 160 124 160 144 168C164 176 184 176 204 168C224 160 245 160 267 168C289 176 311 176 333 168C355 160 376 160 396 168C416 176 436 176 456 168C476 160 496 160 516 168C536 176 556 176 576 168C596 160 616 160 636 168M-36 216C-16 208 4 208 24 216C44 224 64 224 84 216C104 208 124 208 144 216C164 224 184 224 204 216C224 208 245 208 267 216C289 224 311 224 333 216C355 208 376 208 396 216C416 224 436 224 456 216C476 208 496 208 516 216C536 224 556 224 576 216C596 208 616 208 636 216M-36 264C-16 256 4 256 24 264C44 272 64 272 84 264C104 256 124 256 144 264C164 272 184 272 204 264C224 256 245 256 267 264C289 272 311 272 333 264C355 256 376 256 396 264C416 272 436 272 456 264C476 256 496 256 516 264C536 272 556 272 576 264C596 256 616 256 636 264" stroke="#CCCCCC" stroke-width="24"/>
    </g>
    <defs>
        <clipPath id="clip0_2052_38">
            <rect width="600" height="300" fill="white"/>
        </clipPath>
    </defs>
</svg>
