<svg width="1600" height="800" viewBox="0 0 1600 800" fill="none"
    xmlns="http://www.w3.org/2000/svg">
    <g clip-path="url(#clip0_2000_12767)">
        <path id="1" d="M0 0H1600V800H0V0Z" fill="#EDEDF0"/>
        <path d="M0 133.336H1600V666.669H0V133.336Z" fill="white"/>
        <path id="2" d="M0 155.555H1600V644.444H0V155.555Z" fill="#DDDDDD"/>
        <path id="3" d="M533.332 577.774C631.516 577.774 711.11 498.18 711.11 399.997C711.11 301.813 631.516 222.219 533.332 222.219C435.148 222.219 355.555 301.813 355.555 399.997C355.555 498.18 435.148 577.774 533.332 577.774Z" fill="#CCCCCC"/>
        <g id="4">
            <path d="M533.336 227.773L480.116 391.567L562.013 418.176L533.336 227.773Z" fill="#EDEDF0"/>
            <path d="M533.336 227.773L586.556 391.567L504.659 418.176L533.336 227.773Z" fill="#EDEDF0"/>
            <path d="M697.133 346.781H524.911V432.892L697.133 346.781Z" fill="#EDEDF0"/>
            <path d="M697.133 346.781L557.802 448.011L507.187 378.346L697.133 346.781Z" fill="#EDEDF0"/>
            <path d="M369.535 346.781L508.866 448.011L559.481 378.346L369.535 346.781Z" fill="#EDEDF0"/>
            <path d="M369.535 346.781H541.757V432.892L369.535 346.781Z" fill="#EDEDF0"/>
            <path d="M634.566 539.344L581.347 375.551L499.45 402.16L634.566 539.344Z" fill="#EDEDF0"/>
            <path d="M634.57 539.344L495.24 438.114L545.854 368.449L634.57 539.344Z" fill="#EDEDF0"/>
            <path d="M432.098 539.336L571.428 438.106L520.814 368.441L432.098 539.336Z" fill="#EDEDF0"/>
            <path d="M432.102 539.336L485.321 375.543L567.218 402.153L432.102 539.336Z" fill="#EDEDF0"/>
        </g>
    </g>
    <defs>
        <clipPath id="clip0_2000_12767">
            <rect width="1600" height="800" fill="white"/>
        </clipPath>
    </defs>
</svg>
