<svg width="900" height="600" viewBox="0 0 900 600" fill="none"
    xmlns="http://www.w3.org/2000/svg">
    <g clip-path="url(#clip0_2000_12792)">
        <path id="1" d="M0 0H900V600H0V0Z" fill="#EDEDF0"/>
        <path id="2" d="M0 150H900V450H0V150Z" fill="#DDDDDD"/>
        <path id="3" d="M445.907 150C439.467 163.56 427.341 173.037 415.75 182.006C413.843 183.671 409.102 186.896 412.541 189.351C415.488 186.058 423.575 190.419 418.875 193.961C414.665 197.901 408.868 199.344 404.193 202.596C400.053 204.846 395.853 207.194 392.57 210.637C392.347 216.017 399.244 213.039 402.043 215.28C405.688 219.176 400.498 225.746 395.714 224.243C389.598 224.431 385.374 229.813 383.06 234.947C378.276 242.345 369.21 244.537 361.991 248.747C357.861 251.154 353.854 253.818 350.01 256.627C345.053 260.017 349.365 266.727 354.64 265.08C360.333 264.512 365.455 260.039 371.35 261.328C376.695 263.206 378.195 270.192 376.374 275.07C375.024 278.975 371.754 281.726 369.135 284.776C364.882 289.085 359.32 291.882 353.455 293.216C347.788 295.119 342.693 298.591 338.975 303.279C334.661 307.623 330.363 312.037 325.403 315.659C323.836 319.657 328.258 323.062 331.943 322.956C339.711 322.466 345.093 316.11 351.708 312.843C357.198 310.376 363.658 316.293 362.315 322.011C361.89 327.575 356.681 330.398 352.05 332.11C338.435 338.954 326.613 348.88 316.117 359.83C313.946 364.259 307.977 362.955 304.764 366.042C302.671 369.948 307.924 372.008 311.059 371.607C324.529 369.987 337.099 364.293 349.006 358.029C353.434 355.912 357.592 353.126 362.196 351.439C366.52 350.37 372.55 352.249 373.323 357.171C373.317 362.367 368.17 365.244 364.094 367.274C351.524 373.878 337.729 377.529 324.294 381.895C319.264 380.489 315.474 389.438 320.992 391.047C326.826 393.047 333.029 391.443 338.997 391.181C357.452 388.354 373.592 378.368 390.842 371.913C398.014 369.575 406.479 372.837 410.018 379.557C413.574 385.547 413.248 393.424 409.498 399.244C403.57 411.926 394.558 423.582 382.46 430.874C374.866 434.634 366.002 436.072 359.493 441.828C353.473 443.812 362.511 451.946 363.817 445.49C367.434 440.557 373.814 439.082 379.6 438.878C388.297 437.932 397.533 436.328 404.29 430.308C410.348 425.603 416.318 419.113 424.544 419.012C429.09 419.551 433.587 423.204 438.204 420.975C442.244 419.125 448.581 420.209 449.636 425.176C451.565 430.987 457.554 433.631 462.304 436.74C464.023 439.154 469.735 445.38 471.052 439.891C469.989 435.976 471.508 429.985 476.644 431.293C481.13 431.493 485.405 433.148 489.883 433.419C495.845 434.654 500.819 438.736 504.205 443.665C506.534 446.882 511.636 452.408 515.427 448.143C517.779 443.732 513.289 440.053 509.633 438.478C504.303 435.175 499.746 430.776 495.085 426.611C488.215 420.195 482.283 412.035 481.192 402.451C479.714 392.896 480.492 383.149 481.739 373.619C483.309 367.484 491.155 364.134 496.641 367.394C504.36 370.916 512.026 375.956 520.876 375.41C533.664 375.685 546.805 373.237 559.302 376.942C571.464 380.773 580.159 391.036 592.005 395.477C594.657 397.089 598.05 395.555 599.022 392.722C600.196 390.177 599.367 386.921 596.915 385.47C583.185 371.611 564.422 364.879 548.536 354.05C543.535 352.78 542.624 344.733 547.248 342.41C553.326 337.993 561.927 340.05 567.319 344.604C571.873 347.271 577.004 349.27 582.347 349.274C587.82 347.561 585.167 339.642 580.267 339.046C571.387 334.033 565.028 325.806 557.336 319.286C552.906 315.536 548.059 311.739 542.106 311.012C538.853 310.419 535.526 310.29 532.229 310.511C529.137 307.151 533.257 302.006 537.255 302.427C541.357 302.703 545.435 303.008 549.532 302.437C554.111 302.102 558.685 301.628 563.279 301.597C566.988 304.122 574.399 299.76 571.052 295.405C567.395 292.201 562.108 292.479 557.739 290.835C550.068 288.327 542.255 286.273 534.341 284.685C528.808 284.355 529.491 277.073 534.354 276.269C537.537 275.082 540.304 277.527 543.359 277.906C548.577 279.028 553.964 279.013 559.179 280.15C563.602 277.967 560.183 271.507 556.183 271.13C546.745 267.755 538.588 261.664 530.613 255.738C521.809 249.117 513.822 241.46 504.91 234.991C501.676 232.988 496.376 232.411 495.526 227.97C495.226 223.884 500.034 222.024 503.443 222.979C508.28 224.407 512.786 226.894 517.716 228.115C521.583 228.773 525.571 229.917 529.298 229.43C534.03 226.456 527.268 224.556 524.821 223.525C518.513 220.122 512.907 215.589 507.229 211.265C502.431 207.17 511.299 205.361 514.349 206.938C519.449 209.071 520.03 201.64 516.218 199.77C511.726 197.86 507.864 194.69 503.791 191.924C496.431 186.686 488.097 182.539 479.051 181.387C468.908 180.368 459.441 174.536 454.06 165.862C450.723 160.919 448.274 155.452 445.907 150ZM412.6 206.901C417.827 207.056 417.023 216.478 411.877 215.849C406.879 215.527 407.185 205.889 412.6 206.901ZM461.908 211.975C466.995 211.065 468.072 220.347 462.99 220.783C457.694 221.731 455.732 211.387 461.908 211.975ZM447.466 213.185C452.623 214.199 451.706 223.183 446.501 223.261C442.693 224.109 438.589 226.708 434.737 224.761C431.604 221.447 436.132 216.548 439.629 215.471C442.311 214.93 444.779 213.712 447.466 213.185ZM480.704 213.224C485.674 215.036 483.921 223.809 478.679 223.697C473.722 224.362 471.413 216.092 476.036 214.131C477.532 213.601 479.1 213.154 480.704 213.224ZM424.634 223.175C428.289 226.653 426.13 233.365 421.624 234.969C418.377 236.775 413.949 241.049 410.412 237.532C408.492 233.237 413.31 230.003 416.144 227.619C418.673 225.653 421.464 223.868 424.634 223.175ZM466.368 242.572C471.6 245.042 468.944 254.471 463.202 253.885C458.486 252.69 459.102 244.601 463.852 243.956C464.75 243.612 465.573 243.106 466.368 242.572ZM449.767 243.508C454.66 245.799 450.924 253.965 445.995 252.788C440.885 252.188 440.979 243.204 446.615 244.015C447.677 243.963 448.773 243.935 449.767 243.508ZM485.553 248.192C490.916 246.528 497.373 252.052 495.633 257.656C493.243 262 487.333 262.549 483.098 260.926C478.237 260.686 474.967 253.377 479.298 250.282C481.09 248.929 483.349 248.372 485.553 248.192ZM406.334 249.597C410.769 247.184 415.477 254.435 411.706 257.633C409.208 261.306 402.793 262.806 399.965 258.723C397.615 254.733 401.414 248.032 406.334 249.597ZM385.874 253.031C390.904 253.719 394.182 258.288 396.042 262.639C396.495 267.94 388.672 270.849 385.26 266.992C381.422 264.585 378.063 259.634 380.075 255.039C381.315 253.214 383.784 252.461 385.875 253.031H385.874ZM508.278 272.193C513.738 270.755 517.701 279.479 513.013 282.635C508.727 286.528 500.393 281.371 502.629 275.816C503.739 273.756 505.961 272.388 508.278 272.193ZM438.793 282.145C443.371 282.728 441.888 290.662 437.655 290.395C433.113 289.553 434.153 281.698 438.793 282.145ZM415.573 286.36C419.306 283.718 424.122 290.166 421.016 293.17C417.294 295.792 412.466 289.447 415.573 286.36ZM452.493 287.14C456.82 289.77 459.389 294.673 459.927 299.62C457.853 304.243 449.843 303.129 448.94 298.206C447.357 294.313 448.816 289.306 452.492 287.141L452.493 287.14ZM465.377 294.79C470.954 293.389 468.952 305.046 464.296 301.003C462.748 299.165 463.577 296.141 465.376 294.79H465.377ZM384.459 302.907C388.152 301.826 393.535 302.963 394.554 307.201C394.984 311.184 390.604 313.256 387.394 314.243C382.251 315.831 377.22 318.437 371.688 318.087C367.541 315.717 366.053 310.867 364.575 306.637C368.576 302.885 374.469 303.986 379.429 303.047C381.105 302.964 382.782 302.917 384.459 302.907ZM509.977 321.172C514.687 318.862 519.754 326.34 515.811 329.832C510.878 335.51 501.381 336.565 495.481 331.795C494.773 326.771 499.791 323.121 504.251 322.4C506.126 321.87 507.99 321.079 509.977 321.172ZM536.454 326.909C541.807 325.988 546.023 333.623 542.2 337.575C538.583 343.03 529.956 344.46 525.024 339.989C523.101 335.467 527.002 330.755 531.154 329.304C532.938 328.544 534.628 327.571 536.454 326.909ZM403.325 335.027C408.282 334.537 412.823 339.455 412.173 344.342C415.761 347.873 409.407 354.452 405.832 350.795C402.682 346.978 402.698 341.8 401.478 337.231C401.423 336.216 402.175 334.902 403.325 335.027ZM441.377 337.876C446.502 335.66 453.132 341.791 450.342 346.981C448.349 351.208 440.579 349.791 440.837 344.895C440.824 342.552 440.635 340.15 441.377 337.875V337.876ZM422.865 341.193C428.003 340.015 432.717 346.676 429.862 351.12C424.739 351.576 422.08 345.496 422.865 341.193Z" fill="#CCCCCC"/>
    </g>
    <defs>
        <clipPath id="clip0_2000_12792">
            <rect width="900" height="600" fill="white"/>
        </clipPath>
    </defs>
</svg>
