<svg width="1000" height="600" viewBox="0 0 1000 600" fill="none"
    xmlns="http://www.w3.org/2000/svg">
    <g clip-path="url(#clip0_2029_248)">
        <path id="1" d="M0 0H1000V300H0V0Z" fill="#EDEDF0"/>
        <path id="2" d="M0 300H1000V600H0V300Z" fill="#DDDDDD"/>
        <path d="M216.379 122.286L214.541 184.786H151.121C143.319 169.617 136.875 156.734 136.875 139.289C136.875 124.689 148.358 113.094 164.908 113.094C182.428 113.094 201.678 118.998 216.379 122.286Z" fill="#FFD83D"/>
        <path d="M144.457 125.156V161.232ZM149.551 121.476V169.509ZM154.644 118.948V176.173ZM159.737 117.766V162.648ZM164.831 117.544V162.871ZM169.924 115.961V162.846ZM175.018 115.961V162.846ZM180.111 116.42V163.305ZM185.205 116.88V163.765ZM190.298 119.866V166.752ZM195.391 120.326V173.186ZM200.485 120.326V167.212ZM205.578 120.326V167.212Z" fill="#FFD83D"/>
        <path d="M144.457 125.156V161.232M149.551 121.476V169.509M154.644 118.948V176.173M159.737 117.766V162.648M164.831 117.544V162.871M169.924 115.961V162.846M175.018 115.961V162.846M180.111 116.42V163.305M185.205 116.88V163.765M190.298 119.866V166.752M195.391 120.326V173.186M200.485 120.326V167.212M205.578 120.326V167.212" stroke="black" stroke-width="1.5" stroke-linecap="round" stroke-linejoin="round"/>
        <path d="M176.395 117.922C187.159 119.697 210.802 130.759 208.105 145.725C204.284 166.935 191.897 158.423 175.476 155.375L163.068 159.512C158.628 164.044 152.09 168.195 147.673 162.729H140.32V191.451H221.662V122.059L176.395 117.922Z" fill="black" stroke="black" stroke-width="1.5" stroke-linecap="round" stroke-linejoin="round"/>
        <path d="M212.815 117.919C215.543 117.919 217.755 115.707 217.755 112.979C217.755 110.251 215.543 108.039 212.815 108.039C210.087 108.039 207.875 110.251 207.875 112.979C207.875 115.707 210.087 117.919 212.815 117.919Z" fill="#FFD83D" stroke="black" stroke-width="2" stroke-linecap="round" stroke-linejoin="round"/>
        <path d="M201.713 115.247C204.442 115.247 206.653 113.035 206.653 110.307C206.653 107.579 204.442 105.367 201.713 105.367C198.985 105.367 196.773 107.579 196.773 110.307C196.773 113.035 198.985 115.247 201.713 115.247Z" fill="#FFD83D" stroke="black" stroke-width="2" stroke-linecap="round" stroke-linejoin="round"/>
        <path d="M190.452 112.419C193.18 112.419 195.392 110.207 195.392 107.479C195.392 104.751 193.18 102.539 190.452 102.539C187.723 102.539 185.512 104.751 185.512 107.479C185.512 110.207 187.723 112.419 190.452 112.419Z" fill="#FFD83D" stroke="black" stroke-width="2" stroke-linecap="round" stroke-linejoin="round"/>
        <path d="M179.143 110.536C181.871 110.536 184.083 108.325 184.083 105.596C184.083 102.868 181.871 100.656 179.143 100.656C176.415 100.656 174.203 102.868 174.203 105.596C174.203 108.325 176.415 110.536 179.143 110.536Z" fill="#FFD83D" stroke="black" stroke-width="2" stroke-linecap="round" stroke-linejoin="round"/>
        <path d="M167.838 109.419C170.567 109.419 172.778 107.207 172.778 104.479C172.778 101.751 170.567 99.5391 167.838 99.5391C165.11 99.5391 162.898 101.751 162.898 104.479C162.898 107.207 165.11 109.419 167.838 109.419Z" fill="#FFD83D" stroke="black" stroke-width="2" stroke-linecap="round" stroke-linejoin="round"/>
        <path d="M156.749 110.052C159.477 110.052 161.689 107.84 161.689 105.112C161.689 102.384 159.477 100.172 156.749 100.172C154.02 100.172 151.809 102.384 151.809 105.112C151.809 107.84 154.02 110.052 156.749 110.052Z" fill="#FFD83D" stroke="black" stroke-width="2" stroke-linecap="round" stroke-linejoin="round"/>
        <path d="M146.178 113.669C148.907 113.669 151.118 111.457 151.118 108.729C151.118 106.001 148.907 103.789 146.178 103.789C143.45 103.789 141.238 106.001 141.238 108.729C141.238 111.457 143.45 113.669 146.178 113.669Z" fill="#FFD83D" stroke="black" stroke-width="2" stroke-linecap="round" stroke-linejoin="round"/>
        <path d="M137.276 120.216C140.004 120.216 142.216 118.004 142.216 115.276C142.216 112.548 140.004 110.336 137.276 110.336C134.548 110.336 132.336 112.548 132.336 115.276C132.336 118.004 134.548 120.216 137.276 120.216Z" fill="#FFD83D" stroke="black" stroke-width="2" stroke-linecap="round" stroke-linejoin="round"/>
        <path d="M130.96 129.349C133.688 129.349 135.9 127.137 135.9 124.409C135.9 121.68 133.688 119.469 130.96 119.469C128.231 119.469 126.02 121.68 126.02 124.409C126.02 127.137 128.231 129.349 130.96 129.349Z" fill="#FFD83D" stroke="black" stroke-width="2" stroke-linecap="round" stroke-linejoin="round"/>
        <path d="M127.913 140.091C130.641 140.091 132.853 137.879 132.853 135.151C132.853 132.423 130.641 130.211 127.913 130.211C125.184 130.211 122.973 132.423 122.973 135.151C122.973 137.879 125.184 140.091 127.913 140.091Z" fill="#FFD83D" stroke="black" stroke-width="2" stroke-linecap="round" stroke-linejoin="round"/>
        <path d="M128.026 151.239C130.754 151.239 132.966 149.028 132.966 146.299C132.966 143.571 130.754 141.359 128.026 141.359C125.298 141.359 123.086 143.571 123.086 146.299C123.086 149.028 125.298 151.239 128.026 151.239Z" fill="#FFD83D" stroke="black" stroke-width="2" stroke-linecap="round" stroke-linejoin="round"/>
        <path d="M130.151 162.153C132.879 162.153 135.091 159.942 135.091 157.213C135.091 154.485 132.879 152.273 130.151 152.273C127.423 152.273 125.211 154.485 125.211 157.213C125.211 159.942 127.423 162.153 130.151 162.153Z" fill="#FFD83D" stroke="black" stroke-width="2" stroke-linecap="round" stroke-linejoin="round"/>
        <path d="M214.998 119.527L214.538 125.961C202.248 124.078 184.824 117.229 168.583 117.229C153.577 117.229 141.929 123.232 141.929 138.369C141.929 153.288 148.246 166.854 156.634 180.649L147.903 184.785C140.1 169.616 133.656 156.733 133.656 139.288C133.656 124.688 145.14 110.336 164.906 110.336C182.426 110.336 200.296 116.24 214.998 119.527Z" fill="#FFD83D" stroke="black" stroke-width="2" stroke-linecap="round" stroke-linejoin="round"/>
        <path d="M227.559 122.286L229.396 184.786H292.816C300.618 169.617 307.062 156.734 307.062 139.289C307.062 124.689 295.579 113.094 279.029 113.094C261.509 113.094 242.26 118.998 227.559 122.286Z" fill="#FFD83D"/>
        <path d="M299.48 125.156V161.232ZM294.386 121.476V169.509ZM289.293 118.948V176.173ZM284.2 117.766V162.648ZM279.106 117.544V162.871ZM274.013 115.961V162.846ZM268.919 115.961V162.846ZM263.826 116.42V163.305ZM258.732 116.88V163.765ZM253.639 119.866V166.752ZM248.546 120.326V173.186ZM243.452 120.326V167.212ZM238.359 120.326V167.212Z" fill="#FFD83D"/>
        <path d="M299.48 125.156V161.232M294.386 121.476V169.509M289.293 118.948V176.173M284.2 117.766V162.648M279.106 117.544V162.871M274.013 115.961V162.846M268.919 115.961V162.846M263.826 116.42V163.305M258.732 116.88V163.765M253.639 119.866V166.752M248.546 120.326V173.186M243.452 120.326V167.212M238.359 120.326V167.212" stroke="black" stroke-width="1.5" stroke-linecap="round" stroke-linejoin="round"/>
        <path d="M267.542 117.922C256.778 119.697 233.135 130.759 235.832 145.725C239.653 166.935 252.04 158.423 268.461 155.375L280.869 159.512C285.309 164.044 291.847 168.195 296.264 162.729H303.617V191.451H222.275V122.059L267.542 117.922Z" fill="black" stroke="black" stroke-width="1.5" stroke-linecap="round" stroke-linejoin="round"/>
        <path d="M231.122 117.919C228.394 117.919 226.182 115.707 226.182 112.979C226.182 110.251 228.394 108.039 231.122 108.039C233.851 108.039 236.062 110.251 236.062 112.979C236.062 115.707 233.851 117.919 231.122 117.919Z" fill="#FFD83D" stroke="black" stroke-width="2" stroke-linecap="round" stroke-linejoin="round"/>
        <path d="M242.224 115.247C239.496 115.247 237.284 113.035 237.284 110.307C237.284 107.579 239.496 105.367 242.224 105.367C244.952 105.367 247.164 107.579 247.164 110.307C247.164 113.035 244.952 115.247 242.224 115.247Z" fill="#FFD83D" stroke="black" stroke-width="2" stroke-linecap="round" stroke-linejoin="round"/>
        <path d="M253.486 112.419C250.757 112.419 248.546 110.207 248.546 107.479C248.546 104.751 250.757 102.539 253.486 102.539C256.214 102.539 258.426 104.751 258.426 107.479C258.426 110.207 256.214 112.419 253.486 112.419Z" fill="#FFD83D" stroke="black" stroke-width="2" stroke-linecap="round" stroke-linejoin="round"/>
        <path d="M264.794 110.536C262.066 110.536 259.854 108.325 259.854 105.596C259.854 102.868 262.066 100.656 264.794 100.656C267.523 100.656 269.734 102.868 269.734 105.596C269.734 108.325 267.523 110.536 264.794 110.536Z" fill="#FFD83D" stroke="black" stroke-width="2" stroke-linecap="round" stroke-linejoin="round"/>
        <path d="M276.099 109.419C273.371 109.419 271.159 107.207 271.159 104.479C271.159 101.751 273.371 99.5391 276.099 99.5391C278.827 99.5391 281.039 101.751 281.039 104.479C281.039 107.207 278.827 109.419 276.099 109.419Z" fill="#FFD83D" stroke="black" stroke-width="2" stroke-linecap="round" stroke-linejoin="round"/>
        <path d="M287.189 110.052C284.461 110.052 282.249 107.84 282.249 105.112C282.249 102.384 284.461 100.172 287.189 100.172C289.917 100.172 292.129 102.384 292.129 105.112C292.129 107.84 289.917 110.052 287.189 110.052Z" fill="#FFD83D" stroke="black" stroke-width="2" stroke-linecap="round" stroke-linejoin="round"/>
        <path d="M297.759 113.669C295.031 113.669 292.819 111.457 292.819 108.729C292.819 106.001 295.031 103.789 297.759 103.789C300.488 103.789 302.699 106.001 302.699 108.729C302.699 111.457 300.488 113.669 297.759 113.669Z" fill="#FFD83D" stroke="black" stroke-width="2" stroke-linecap="round" stroke-linejoin="round"/>
        <path d="M306.662 120.216C303.933 120.216 301.722 118.004 301.722 115.276C301.722 112.548 303.933 110.336 306.662 110.336C309.39 110.336 311.602 112.548 311.602 115.276C311.602 118.004 309.39 120.216 306.662 120.216Z" fill="#FFD83D" stroke="black" stroke-width="2" stroke-linecap="round" stroke-linejoin="round"/>
        <path d="M312.978 129.349C310.25 129.349 308.038 127.137 308.038 124.409C308.038 121.68 310.25 119.469 312.978 119.469C315.706 119.469 317.918 121.68 317.918 124.409C317.918 127.137 315.706 129.349 312.978 129.349Z" fill="#FFD83D" stroke="black" stroke-width="2" stroke-linecap="round" stroke-linejoin="round"/>
        <path d="M316.025 140.091C313.297 140.091 311.085 137.879 311.085 135.151C311.085 132.423 313.297 130.211 316.025 130.211C318.753 130.211 320.965 132.423 320.965 135.151C320.965 137.879 318.753 140.091 316.025 140.091Z" fill="#FFD83D" stroke="black" stroke-width="2" stroke-linecap="round" stroke-linejoin="round"/>
        <path d="M315.912 151.239C313.183 151.239 310.972 149.028 310.972 146.299C310.972 143.571 313.183 141.359 315.912 141.359C318.64 141.359 320.852 143.571 320.852 146.299C320.852 149.028 318.64 151.239 315.912 151.239Z" fill="#FFD83D" stroke="black" stroke-width="2" stroke-linecap="round" stroke-linejoin="round"/>
        <path d="M313.787 162.153C311.058 162.153 308.847 159.942 308.847 157.213C308.847 154.485 311.058 152.273 313.787 152.273C316.515 152.273 318.727 154.485 318.727 157.213C318.727 159.942 316.515 162.153 313.787 162.153Z" fill="#FFD83D" stroke="black" stroke-width="2" stroke-linecap="round" stroke-linejoin="round"/>
        <path d="M228.939 119.527L229.399 125.961C241.689 124.078 259.113 117.229 275.354 117.229C290.36 117.229 302.008 123.232 302.008 138.369C302.008 153.288 295.691 166.854 287.303 180.649L296.034 184.785C303.837 169.616 310.281 156.733 310.281 139.288C310.281 124.688 298.797 110.336 279.031 110.336C261.511 110.336 243.641 116.24 228.939 119.527Z" fill="#FFD83D" stroke="black" stroke-width="2" stroke-linecap="round" stroke-linejoin="round"/>
        <path d="M221.968 53.125L216.812 62.781L221.968 72.406L227.124 62.781L221.968 53.125ZM221.968 77.5L216.812 87.125L221.968 96.781L227.124 87.125L221.968 77.5ZM203.586 74.953L211.718 80.109L219.823 74.953L211.718 69.797L203.586 74.953ZM224.112 74.953L232.218 80.109L240.349 74.953L232.218 69.797L224.112 74.953Z" fill="#FFD83D" stroke="black" stroke-width="2" stroke-linecap="round" stroke-linejoin="round"/>
        <path d="M221.968 78.9761C224.126 78.9761 225.874 77.2273 225.874 75.0701C225.874 72.9128 224.126 71.1641 221.968 71.1641C219.811 71.1641 218.062 72.9128 218.062 75.0701C218.062 77.2273 219.811 78.9761 221.968 78.9761Z" fill="#FFD83D" stroke="black" stroke-width="2" stroke-linecap="round" stroke-linejoin="round"/>
        <path d="M221.971 110.457C227.745 110.457 232.426 105.776 232.426 100.002C232.426 94.2277 227.745 89.5469 221.971 89.5469C216.196 89.5469 211.516 94.2277 211.516 100.002C211.516 105.776 216.196 110.457 221.971 110.457Z" fill="#FFD83D" stroke="black" stroke-width="2" stroke-linecap="round" stroke-linejoin="round"/>
        <path d="M219.344 89.875C219.344 92.989 219.322 94.799 219.313 96.5C216.793 96.612 214.307 96.877 211.875 97.281M232.063 97.281C229.601 96.8715 227.118 96.6107 224.625 96.5V89.875M211.844 102.563C215.19 102.002 218.576 101.72 221.969 101.719C225.419 101.719 228.799 102.012 232.094 102.563" stroke="black" stroke-width="1.5" stroke-linecap="round" stroke-linejoin="round"/>
        <path d="M211.75 117.688C210.758 134.77 208.741 152.166 202.094 164.811L212.906 160.436C216.683 146.108 217.476 127.594 218.625 118.843L211.75 117.688ZM232.188 117.688L225.313 118.843C226.461 127.593 227.255 146.108 231.031 160.438L241.844 164.812C235.196 152.167 233.179 134.77 232.188 117.688Z" fill="#FFD83D" stroke="black" stroke-width="2" stroke-linecap="round" stroke-linejoin="round"/>
        <path d="M221.953 154.689C209.04 154.689 199.554 160.775 198.984 176.282C195.828 170.727 182.474 153.256 170.016 155.594C162.606 156.984 156.059 167.261 157.172 179.032C151.037 161.402 133.065 158.512 119.953 168.938C131.595 178.51 136.774 206.773 146.578 219.032H297.328C307.132 206.773 312.342 178.51 323.984 168.938C310.872 158.512 292.901 161.402 286.766 179.032C287.879 167.261 281.3 156.984 273.891 155.594C261.432 153.256 248.11 170.727 244.953 176.282C244.383 160.775 234.867 154.688 221.953 154.688V154.689Z" fill="#FFD83D" stroke="black" stroke-width="2" stroke-linecap="round" stroke-linejoin="round"/>
        <path d="M297.104 219.025C297.104 224.605 263.442 230.743 221.966 230.743C180.49 230.743 146.828 224.606 146.828 219.025C146.828 213.444 180.49 210.523 221.966 210.523C263.442 210.523 297.104 213.443 297.104 219.025Z" fill="black" stroke="black" stroke-width="1.5" stroke-linecap="round" stroke-linejoin="round"/>
        <path d="M221.969 117.945C223.904 117.945 225.473 116.377 225.473 114.441C225.473 112.506 223.904 110.938 221.969 110.938C220.034 110.938 218.465 112.506 218.465 114.441C218.465 116.377 220.034 117.945 221.969 117.945Z" fill="#FFD83D" stroke="black" stroke-width="1.5" stroke-linecap="round" stroke-linejoin="round"/>
        <path d="M221.968 125.757C224.031 125.757 225.702 124.085 225.702 122.023C225.702 119.961 224.031 118.289 221.968 118.289C219.906 118.289 218.234 119.961 218.234 122.023C218.234 124.085 219.906 125.757 221.968 125.757Z" fill="#FFD83D" stroke="black" stroke-width="1.5" stroke-linecap="round" stroke-linejoin="round"/>
        <path d="M221.966 134.26C224.218 134.26 226.045 132.433 226.045 130.181C226.045 127.928 224.218 126.102 221.966 126.102C219.713 126.102 217.887 127.928 217.887 130.181C217.887 132.433 219.713 134.26 221.966 134.26Z" fill="#FFD83D" stroke="black" stroke-width="1.5" stroke-linecap="round" stroke-linejoin="round"/>
        <path d="M221.969 143.908C224.539 143.908 226.622 141.824 226.622 139.255C226.622 136.685 224.539 134.602 221.969 134.602C219.4 134.602 217.316 136.685 217.316 139.255C217.316 141.824 219.4 143.908 221.969 143.908Z" fill="#FFD83D" stroke="black" stroke-width="1.5" stroke-linecap="round" stroke-linejoin="round"/>
        <path d="M221.968 154.484C224.792 154.484 227.081 152.195 227.081 149.371C227.081 146.547 224.792 144.258 221.968 144.258C219.145 144.258 216.855 146.547 216.855 149.371C216.855 152.195 219.145 154.484 221.968 154.484Z" fill="#FFD83D" stroke="black" stroke-width="1.5" stroke-linecap="round" stroke-linejoin="round"/>
        <path d="M219.937 159.203C219.384 159.196 218.861 159.662 218.999 160.547C219.162 161.59 219.366 163.542 219.562 164.859C219.782 166.352 220.652 165.989 220.874 164.828C221.095 163.667 221.006 162.922 221.062 160.765C221.089 159.687 220.489 159.21 219.937 159.203ZM223.999 159.203C223.446 159.21 222.846 159.687 222.874 160.765C222.929 162.922 222.84 163.667 223.062 164.828C223.282 165.989 224.153 166.352 224.374 164.859C224.569 163.542 224.774 161.59 224.937 160.547C225.075 159.662 224.552 159.196 223.999 159.203ZM216.312 159.765C215.806 159.835 215.282 160.345 215.312 160.89C215.367 161.886 215.642 163.08 215.749 164.578C215.859 166.126 216.951 165.525 217.062 164.64C217.172 163.756 217.297 162.448 217.187 160.734C217.145 160.091 216.864 159.809 216.53 159.765C216.457 159.756 216.384 159.756 216.312 159.765ZM227.405 159.765C227.071 159.808 226.79 160.091 226.749 160.735C226.639 162.448 226.764 163.755 226.874 164.64C226.984 165.525 228.076 166.126 228.187 164.578C228.294 163.079 228.569 161.886 228.624 160.89C228.654 160.346 228.13 159.836 227.624 159.765C227.551 159.756 227.477 159.756 227.405 159.765ZM211.968 161.515C211.505 161.635 211.079 162.192 211.218 162.828C211.494 164.1 211.749 165.506 211.749 166.797C211.749 167.903 212.694 167.508 212.749 166.734C212.843 165.434 212.895 164.132 212.905 162.828C212.905 161.713 212.431 161.396 211.968 161.515ZM231.655 161.515C231.326 161.606 231.03 161.992 231.03 162.828C231.03 164.321 231.132 165.96 231.187 166.734C231.242 167.508 232.187 167.903 232.187 166.797C232.187 165.506 232.441 164.1 232.717 162.827C232.857 162.192 232.431 161.635 231.967 161.515C231.865 161.485 231.756 161.485 231.655 161.515ZM172.562 161.686C172.007 161.668 171.619 162.42 171.999 163.249C172.607 164.576 173.253 165.414 173.874 166.843C174.427 168.114 175.275 167.321 174.999 166.436C174.722 165.552 174.422 164.566 173.593 162.686C173.282 161.981 172.894 161.697 172.562 161.686ZM271.374 161.686C271.042 161.697 270.654 161.981 270.343 162.686C269.513 164.566 269.213 165.552 268.937 166.436C268.66 167.321 269.508 168.114 270.062 166.843C270.682 165.413 271.328 164.576 271.937 163.249C272.317 162.419 271.928 161.668 271.374 161.686ZM176.562 161.749C176.154 161.873 175.906 162.391 176.155 162.999C176.653 164.215 177.372 165.462 177.874 166.78C178.316 167.941 179.3 167.612 178.968 166.561C178.636 165.511 178.538 164.896 177.874 162.905C177.542 161.91 176.969 161.625 176.562 161.749ZM267.062 161.749C266.712 161.823 266.31 162.159 266.062 162.905C265.398 164.895 265.299 165.511 264.968 166.561C264.636 167.611 265.619 167.941 266.062 166.781C266.564 165.462 267.282 164.215 267.78 162.999C268.03 162.391 267.782 161.873 267.374 161.749C267.272 161.721 267.164 161.721 267.062 161.749ZM181.562 162.718C181.047 162.815 180.649 163.6 180.999 164.561C181.442 165.778 182.071 166.929 182.624 168.311C183.177 169.694 184.095 169.415 183.874 168.531C183.653 167.645 183.382 166.179 182.718 163.968C182.428 163 181.961 162.641 181.562 162.718ZM262.374 162.718C261.974 162.641 261.508 163 261.218 163.968C260.554 166.179 260.283 167.645 260.062 168.53C259.84 169.415 260.758 169.694 261.312 168.311C261.865 166.929 262.494 165.778 262.937 164.561C263.287 163.6 262.888 162.815 262.374 162.718ZM169.187 163.405C168.63 163.462 168.122 164.37 168.467 165.061C169.021 166.167 169.371 166.544 169.905 167.718C170.458 168.934 171.064 167.992 170.843 167.218C170.621 166.443 170.338 165.542 170.062 164.436C169.859 163.626 169.521 163.37 169.187 163.405ZM274.749 163.405C274.415 163.371 274.077 163.626 273.874 164.436C273.598 165.542 273.314 166.443 273.093 167.218C272.871 167.992 273.477 168.934 274.03 167.718C274.564 166.544 274.914 166.168 275.468 165.061C275.813 164.371 275.306 163.462 274.749 163.405ZM207.718 166.203C207.134 166.203 206.51 166.977 206.718 167.703C207.049 168.864 207.562 169.893 207.937 171.39C208.268 172.717 209.211 172.056 209.155 171.172C209.1 170.287 208.948 169.083 208.562 167.202C208.416 166.498 208.068 166.204 207.718 166.203ZM236.218 166.203C235.868 166.203 235.519 166.498 235.374 167.203C234.987 169.083 234.836 170.287 234.78 171.172C234.725 172.056 235.667 172.717 235.999 171.39C236.373 169.894 236.886 168.864 237.218 167.703C237.425 166.977 236.802 166.203 236.218 166.203ZM221.968 167.39C221.248 167.39 221.149 168.356 221.124 169.14C221.041 171.712 219.974 174.209 219.062 175.453C218.149 176.697 216.806 176.366 215.562 175.703C214.317 175.039 213.576 174.543 212.249 173.547C210.922 172.551 209.915 173.133 211.499 175.39C216.116 181.97 221.124 187.595 221.124 198.328C221.124 199.716 221.366 200.14 221.968 200.14C222.569 200.14 222.843 199.716 222.843 198.328C222.843 187.595 227.819 181.971 232.437 175.39C234.02 173.133 233.014 172.551 231.687 173.547C230.36 174.542 229.618 175.039 228.374 175.703C227.13 176.366 225.786 176.697 224.874 175.453C223.961 174.209 222.894 171.712 222.812 169.14C222.786 168.356 222.687 167.39 221.968 167.39ZM186.687 165.78C186.623 165.78 186.559 165.791 186.499 165.811C186.23 165.896 186.051 166.221 186.155 166.781C186.341 167.782 187.035 169.747 187.312 170.686C187.588 171.626 188.744 171.426 188.468 170.156C188.191 168.883 188.206 168.499 187.874 167.061C187.693 166.275 187.127 165.791 186.687 165.78ZM257.249 165.78C256.809 165.792 256.243 166.275 256.062 167.061C255.73 168.499 255.744 168.883 255.468 170.155C255.191 171.427 256.348 171.627 256.624 170.686C256.9 169.746 257.594 167.782 257.78 166.78C257.884 166.22 257.705 165.896 257.437 165.811C257.376 165.791 257.313 165.78 257.249 165.78ZM165.718 166.186C165.139 166.232 164.724 166.959 165.312 168.03C165.945 169.187 167.032 170.638 167.53 171.468C168.028 172.297 168.889 171.738 168.28 170.686C167.672 169.636 167.468 168.429 166.749 166.936C166.479 166.376 166.065 166.159 165.718 166.186ZM278.218 166.186C277.87 166.159 277.456 166.376 277.187 166.936C276.467 168.429 276.263 169.636 275.655 170.686C275.047 171.737 275.908 172.296 276.405 171.468C276.903 170.638 277.99 169.187 278.624 168.03C279.212 166.959 278.797 166.232 278.218 166.186ZM134.03 169.516C133.362 169.48 133.153 170.686 133.78 171.484C134.693 172.645 135.328 173.261 136.374 174.203C137.204 174.949 137.444 173.981 137.03 173.234C136.616 172.488 136.016 171.729 135.187 170.484C134.732 169.802 134.334 169.533 134.03 169.516ZM309.905 169.516C309.602 169.532 309.204 169.802 308.749 170.484C307.919 171.729 307.319 172.488 306.905 173.234C306.491 173.981 306.732 174.949 307.562 174.203C308.608 173.261 309.242 172.645 310.155 171.484C310.782 170.686 310.573 169.481 309.905 169.516ZM139.062 170.516C138.529 170.522 138.178 170.916 138.592 171.828C139.187 173.134 139.97 174.614 140.468 175.609C140.965 176.604 142.482 176.939 141.874 175.39C141.266 173.842 141.146 173.047 140.593 171.61C140.316 170.89 139.593 170.509 139.062 170.516ZM304.874 170.516C304.342 170.508 303.619 170.89 303.343 171.609C302.79 173.047 302.67 173.842 302.062 175.39C301.453 176.939 302.97 176.604 303.468 175.61C303.966 174.614 304.748 173.134 305.343 171.828C305.757 170.915 305.406 170.523 304.874 170.516ZM129.312 170.859C128.538 170.867 128.472 171.643 129.155 172.14C130.068 172.804 131.155 173.54 132.218 174.39C133.462 175.386 133.944 174.47 133.28 173.64C132.617 172.811 131.97 171.97 130.312 171.14C129.897 170.933 129.569 170.856 129.312 170.86V170.859ZM314.624 170.859C314.366 170.857 314.039 170.933 313.624 171.14C311.965 171.97 311.319 172.811 310.655 173.64C309.992 174.47 310.474 175.386 311.718 174.39C312.78 173.54 313.868 172.804 314.78 172.14C315.464 171.643 315.398 170.867 314.624 170.86V170.859ZM204.968 171.578C204.535 171.638 204.161 172.13 204.343 172.765C204.674 173.926 205.051 175.157 205.28 176.359C205.502 177.521 206.845 177.535 206.624 176.484C206.404 175.434 206.292 174.119 205.905 172.515C205.76 171.914 205.457 171.625 205.155 171.578C205.093 171.569 205.03 171.569 204.968 171.578ZM238.78 171.578C238.479 171.625 238.175 171.914 238.03 172.515C237.644 174.119 237.532 175.434 237.312 176.485C237.09 177.535 238.434 177.521 238.655 176.359C238.885 175.157 239.261 173.926 239.593 172.765C239.774 172.13 239.401 171.638 238.968 171.578C238.905 171.569 238.842 171.569 238.78 171.578ZM174.874 169.593C174.534 169.687 174.338 170.337 174.593 171.249C176.003 176.309 176.435 178.973 176.187 180.218C175.937 181.462 175.255 181.632 174.343 181.218C173.361 180.768 172.42 180.235 171.53 179.624C170.701 179.043 169.838 179.738 171.03 180.718C177.085 185.694 181.282 191.382 182.905 198.28C183.237 199.69 184.123 199.856 183.874 198.28C182.502 189.59 182.238 182.447 184.312 177.968C185.091 176.284 184.306 174.668 183.062 177.405C182.232 179.23 180.89 179.95 179.812 178.374C178.733 176.798 176.506 172.594 175.842 170.686C175.594 169.971 175.287 169.64 175.03 169.593C174.978 169.582 174.925 169.582 174.874 169.593ZM268.905 169.593C268.649 169.64 268.342 169.971 268.093 170.686C267.429 172.594 265.203 176.798 264.124 178.374C263.045 179.95 261.704 179.23 260.874 177.405C259.63 174.668 258.844 176.285 259.624 177.968C261.698 182.447 261.434 189.59 260.062 198.28C259.812 199.856 260.699 199.69 261.03 198.28C262.653 191.382 266.85 185.694 272.905 180.718C274.097 179.738 273.235 179.043 272.405 179.624C271.576 180.204 270.505 180.803 269.593 181.218C268.681 181.632 267.998 181.462 267.749 180.218C267.5 178.973 267.933 176.308 269.343 171.248C269.597 170.337 269.401 169.687 269.062 169.593C269.01 169.581 268.956 169.581 268.905 169.593ZM144.437 172.015C143.89 172.022 143.437 172.405 143.687 173.235C144.085 174.563 144.91 175.999 145.187 176.828C145.463 177.658 146.352 177.27 146.187 176.109C146.021 174.949 145.939 174.256 145.717 172.984C145.607 172.348 144.983 172.008 144.437 172.015ZM299.499 172.015C298.953 172.008 298.329 172.348 298.218 172.985C297.996 174.256 297.915 174.948 297.749 176.109C297.583 177.27 298.472 177.657 298.749 176.828C299.025 175.998 299.85 174.563 300.249 173.234C300.498 172.404 300.045 172.022 299.499 172.015ZM163.218 170.28C162.583 170.166 162.491 171.804 163.03 172.468C163.75 173.353 164.748 174.422 165.749 175.624C166.579 176.619 167.091 175.734 166.593 174.905C166.095 174.075 165.357 173.194 164.03 171.093C163.698 170.567 163.43 170.318 163.218 170.28ZM280.718 170.28C280.506 170.318 280.238 170.567 279.905 171.093C278.578 173.193 277.84 174.075 277.343 174.905C276.845 175.735 277.357 176.619 278.187 175.624C279.187 174.422 280.187 173.353 280.905 172.468C281.445 171.804 281.353 170.166 280.718 170.28ZM148.718 174.234C148.324 174.206 147.989 174.526 148.155 175.328C148.387 176.444 148.722 177.371 148.999 178.422C149.275 179.472 149.999 179.292 149.999 178.297C149.999 177.301 149.821 176.191 149.655 175.14C149.572 174.615 149.112 174.262 148.718 174.234ZM295.218 174.234C294.824 174.262 294.363 174.615 294.28 175.14C294.114 176.191 293.936 177.301 293.937 178.297C293.937 179.292 294.66 179.472 294.937 178.422C295.213 177.371 295.549 176.444 295.78 175.328C295.946 174.526 295.612 174.206 295.218 174.234ZM161.812 175.655C161.192 175.749 160.648 176.347 161.374 177.28C162.535 178.773 163.806 179.82 164.249 180.374C164.691 180.927 165.812 180.723 165.093 179.561C164.358 178.375 163.247 176.946 162.749 176.061C162.562 175.73 162.183 175.599 161.812 175.655ZM281.874 175.655C281.602 175.684 281.326 175.813 281.187 176.061C280.689 176.946 279.577 178.375 278.843 179.561C278.123 180.723 279.244 180.927 279.687 180.374C280.129 179.821 281.4 178.773 282.562 177.28C283.287 176.347 282.742 175.749 282.124 175.655C282.041 175.643 281.957 175.643 281.874 175.655ZM141.155 179.828C140.667 179.784 140.498 180.178 141.155 181.078C142.648 183.124 144.295 186.22 144.405 187.547C144.516 188.874 143.86 188.859 143.249 188.859C141.424 188.859 140.533 187.527 138.874 187.14C137.215 186.753 136.974 187.626 138.155 188.484C144.238 192.908 150.334 197.844 152.78 202.328C153.775 204.153 155.12 204.82 154.374 203.078C152.087 197.741 151.533 193.221 152.03 190.484C152.528 187.747 153.207 185.904 153.124 184.328C153.041 182.752 152.147 182.86 151.78 184.328C151.531 185.323 151.05 186.642 150.718 187.14C150.386 187.638 149.052 187.917 147.78 186.203C146.508 184.489 143.3 181.188 142.249 180.359C141.855 180.049 141.449 179.854 141.155 179.828ZM302.78 179.828C302.487 179.854 302.08 180.048 301.687 180.359C300.636 181.189 297.427 184.489 296.155 186.203C294.883 187.917 293.549 187.638 293.218 187.14C292.886 186.642 292.404 185.323 292.155 184.328C291.788 182.86 290.895 182.752 290.812 184.328C290.729 185.904 291.407 187.747 291.905 190.484C292.403 193.221 291.849 197.741 289.562 203.078C288.815 204.82 290.16 204.153 291.155 202.328C293.602 197.843 299.698 192.908 305.78 188.484C306.961 187.626 306.72 186.754 305.062 187.14C303.402 187.527 302.512 188.86 300.687 188.86C300.076 188.86 299.419 188.874 299.53 187.547C299.64 186.22 301.287 183.124 302.78 181.077C303.437 180.177 303.269 179.785 302.78 179.828Z" fill="black"/>
        <path d="M150.125 212.645L152.075 218.819ZM154.135 211.475L155.863 217.715ZM158.468 210.762L159.655 217.127ZM162.488 209.958L163.758 216.307ZM167.644 209.449L168.676 215.841ZM173.128 209.456L174.24 215.834ZM178.482 207.645L179.285 214.07ZM183.519 207.97L184.322 214.395ZM188.393 207.321L189.197 213.745ZM193.286 206.815L193.728 213.275ZM198.514 206.814L198.898 213.277ZM203.255 206.487L203.581 212.954ZM208.481 206.161L208.753 212.631ZM214.493 205.999L214.765 212.468ZM293.809 212.645L291.859 218.819ZM289.799 211.475L288.07 217.715ZM285.466 210.762L284.279 217.127ZM281.446 209.958L280.176 216.307ZM276.29 209.449L275.257 215.841ZM270.805 209.456L269.693 215.834ZM265.452 207.645L264.648 214.07ZM260.415 207.97L259.611 214.395ZM255.541 207.321L254.737 213.745ZM250.647 206.815L250.206 213.275ZM245.419 206.814L245.036 213.277ZM240.679 206.487L240.352 212.954ZM235.452 206.161L235.181 212.631ZM229.441 205.999L229.169 212.468ZM221.967 205.578V212.701Z" fill="#FFD83D"/>
        <path d="M150.125 212.645L152.075 218.819M154.135 211.475L155.863 217.715M158.468 210.762L159.655 217.127M162.488 209.958L163.758 216.307M167.644 209.449L168.676 215.841M173.128 209.456L174.24 215.834M178.482 207.645L179.285 214.07M183.519 207.97L184.322 214.395M188.393 207.321L189.197 213.745M193.286 206.815L193.728 213.275M198.514 206.814L198.898 213.277M203.255 206.487L203.581 212.954M208.481 206.161L208.753 212.631M214.493 205.999L214.765 212.468M293.809 212.645L291.859 218.819M289.799 211.475L288.07 217.715M285.466 210.762L284.279 217.127M281.446 209.958L280.176 216.307M276.29 209.449L275.257 215.841M270.805 209.456L269.693 215.834M265.452 207.645L264.648 214.07M260.415 207.97L259.611 214.395M255.541 207.321L254.737 213.745M250.647 206.815L250.206 213.275M245.419 206.814L245.036 213.277M240.679 206.487L240.352 212.954M235.452 206.161L235.181 212.631M229.441 205.999L229.169 212.468M221.967 205.578V212.701" stroke="black" stroke-width="1.5" stroke-linecap="round" stroke-linejoin="round"/>
    </g>
    <defs>
        <clipPath id="clip0_2029_248">
            <rect width="1000" height="600" fill="white"/>
        </clipPath>
    </defs>
</svg>
