<svg width="1200" height="600" viewBox="0 0 1200 600" fill="none"
    xmlns="http://www.w3.org/2000/svg">
    <g clip-path="url(#clip0_1943_710)">
        <path id="1" d="M0 0H1200V600H0V0Z" fill="#EDEDF0"/>
        <path id="3" d="M215 50H380V550H215V50Z" fill="#DDDDDD"/>
        <path id="2" d="M50 50H215V550H50V50Z" fill="#CCCCCC"/>
        <path id="4" d="M430 50H1155V550H430V50Z" fill="#DDDDDD"/>
        <path d="M1086.1 466.062C1086.1 466.062 1092.9 479.904 1100.41 485.543C1111.54 493.899 1134.35 493.295 1144.04 503.043C1155.64 514.538 1143.14 529.724 1143.24 531.042L1143.88 539.062C1143.88 539.062 1136.05 539.158 1132.76 539.672C1127.81 540.444 1125.87 544.474 1116.65 543.875C1093.46 542.37 1094.4 521.478 1093.08 503.625C1091.92 496.827 1089.22 487.964 1087.69 481.168C1086.38 475.34 1086.1 466.062 1086.1 466.062Z" fill="#FFBE29" stroke="black" stroke-width="2.126"/>
        <path d="M498.9 466.062C498.9 466.062 492.102 479.904 484.591 485.543C473.463 493.899 450.646 493.295 440.962 503.043C429.358 514.538 441.862 529.724 441.758 531.042L441.122 539.062C441.122 539.062 448.946 539.158 452.241 539.672C457.194 540.444 459.127 544.474 468.35 543.875C491.539 542.37 490.604 521.478 491.916 503.625C493.08 496.827 495.775 487.964 497.306 481.168C498.619 475.34 498.9 466.062 498.9 466.062Z" fill="#FFBE29" stroke="black" stroke-width="2.126"/>
        <path d="M1086.1 133.938C1086.1 133.938 1092.9 120.096 1100.41 114.457C1111.54 106.101 1134.35 106.705 1144.04 96.9575C1155.64 85.4625 1143.14 70.2755 1143.24 68.9575L1143.88 60.9375C1143.88 60.9375 1136.05 60.8425 1132.76 60.3285C1127.81 59.5565 1125.87 55.5255 1116.65 56.1245C1093.46 57.6295 1094.4 78.5215 1093.08 96.3745C1091.92 103.173 1089.22 112.036 1087.69 118.832C1086.38 124.66 1086.1 133.938 1086.1 133.938Z" fill="#FFBE29" stroke="black" stroke-width="2.126"/>
        <path d="M498.9 133.938C498.9 133.938 492.102 120.096 484.591 114.457C473.463 106.101 450.646 106.705 440.962 96.9575C429.358 85.4625 441.862 70.2755 441.758 68.9575L441.122 60.9375C441.122 60.9375 448.946 60.8425 452.241 60.3285C457.194 59.5565 459.127 55.5255 468.35 56.1245C491.539 57.6295 490.604 78.5215 491.916 96.3745C493.08 103.173 495.775 112.036 497.306 118.832C498.619 124.66 498.9 133.938 498.9 133.938Z" fill="#FFBE29" stroke="black" stroke-width="2.126"/>
        <path d="M681.54 479.565L685.9 477.048L687.764 479.57C690.249 482.929 697.124 482.891 701.685 479.492L705.173 476.894L708.094 479.492C711.934 482.909 719.106 482.914 723.685 479.504C726.891 477.116 727.338 477.068 729.458 478.885C730.722 479.968 734.428 481.201 737.695 481.625C743.577 482.389 743.666 482.347 747.108 477.183C749.991 472.859 750.442 471.108 749.754 466.914C749.298 464.134 748.807 459.658 748.662 456.969C748.402 452.099 748.429 452.069 755.522 449.599C759.439 448.235 763.974 446.406 765.598 445.534C768.431 444.014 776.241 434.835 776.241 433.026C776.241 432.546 773.191 431.812 769.461 431.394C754.628 429.73 752.116 421.765 761.759 406.971C777.484 382.843 786.974 359.346 787.037 344.378C787.066 337.688 787.447 335.441 788.307 336.896C791.82 342.842 785.525 367.773 775.99 385.676L772.151 392.885L775.814 392.041C777.829 391.578 789.675 386.58 802.139 380.934C836.254 365.484 847.972 362.455 870.05 363.385C888.548 364.165 896.425 367.778 909.485 381.475C916.403 388.732 923.068 393.925 935.26 401.555C961.235 417.815 962.318 419.222 963.553 438.343C964.804 457.716 964.181 458.767 949.529 462.004C937.005 464.771 929.154 470.61 927.048 478.721C925.923 483.053 928.29 483.178 934.604 479.12L939.231 476.146L941.289 479.12C943.994 483.03 949.744 483.046 954.519 479.156L958.125 476.217L961.812 479.156C967.541 483.721 975.159 482.614 977.309 476.904C977.723 475.806 978.826 476.158 981.059 478.099C985.245 481.736 995.973 483.296 997.131 480.436C997.574 479.346 996.734 476.65 995.265 474.448C989.023 465.088 987.07 460.625 986.989 455.53C986.876 448.443 988.99 445.025 997.049 439.262C1006.84 432.261 1009.87 423.229 1002.42 423.229C997.823 423.229 993.189 419.165 990.234 412.543C984.226 399.082 985.404 383.991 994.42 358.886C1003.58 333.386 1004.6 328.684 1004.63 311.63C1004.66 297.84 1004.31 295.456 1001.18 287.896C999.258 283.273 995.366 276.391 992.527 272.602L987.366 265.712L993.993 260.222C1014.23 243.458 1010.09 216.023 985.73 205.452C978.278 202.219 976.416 201.933 963.358 202.021C955.524 202.074 943.578 203.104 936.812 204.311C929.913 205.543 918.237 206.532 910.227 206.565C897.502 206.615 895.342 206.302 890.437 203.692C885.325 200.97 884.447 199.678 883.447 193.387C883.241 192.094 882.337 190.804 881.437 190.52C879.699 189.972 871.667 196.943 870.48 200.03C869.894 201.554 869.417 201.448 867.699 199.417C866.559 198.068 864.966 194.968 864.159 192.529C862.133 186.393 864.622 181.794 871.834 178.348L877.429 175.674L874.129 173.626C867.321 169.401 855.744 172.292 851.557 179.261C850.373 181.233 849.081 182.849 848.687 182.854C848.292 182.857 846.041 180.977 843.684 178.674C834.894 170.084 837.918 157.377 849.675 153.497C855.945 151.428 861.493 153.007 862.647 157.187C864.41 163.57 869.888 155.18 868.906 147.603C868.252 142.566 868.35 142.391 871.836 142.391C876.683 142.391 887.001 148.753 890.192 153.711C893.898 159.467 893.629 168.533 889.55 175.291L886.347 180.596L890.537 179.756C896.68 178.526 902.649 174.711 905.667 170.085C908.86 165.193 909.203 155.669 906.372 150.53C903.629 145.549 903.944 144.758 907.999 146.441C914.896 149.304 918.583 152.461 921.349 157.872C923.839 162.745 923.979 163.956 922.63 169.028C921.798 172.158 919.947 176.274 918.517 178.177C916.289 181.139 916.213 181.636 917.988 181.636C921.293 181.636 928.194 178.508 930.646 175.899C931.884 174.58 933.69 171.335 934.658 168.686L936.418 163.87L938.442 167.54C941.302 172.732 946.864 177.403 953.646 180.31C960.939 183.437 963.976 183.613 960.162 180.689C957.59 178.716 952.852 164.811 954.287 163.451C955.133 162.651 965.034 170.269 976.34 180.419C987.035 190.019 993.755 193.165 1003.58 193.165C1016.13 193.165 1023.43 182.242 1017.79 171.914C1014.5 165.892 1007.18 165.056 1002.9 170.213C1000.93 172.584 1000.39 174.47 1000.96 176.958C1001.67 180.005 1001.39 180.411 998.618 180.411C994.971 180.411 987.781 175.744 975.012 165.09C955.541 148.842 931.882 135.07 914.798 130.04C903.835 126.811 880.415 125.551 869.27 127.59C857.208 129.797 842.941 136.7 835.169 144.09C821.397 157.183 821.178 174.607 834.588 190.474L838.428 195.02L835.828 199.059C832.045 204.936 832.369 212.844 836.632 218.669C838.509 221.235 840.402 223.333 840.84 223.331C841.277 223.331 841.757 221.681 841.905 219.666C842.282 214.569 844.469 211.155 848.224 209.803C851.605 208.585 853.791 209.16 869.274 215.34C885.564 221.842 912.352 222.289 940.836 216.534C954.8 213.713 971.266 213.879 978.51 216.914C991.789 222.477 994.867 236.95 985.105 247.936C980.88 252.692 976.805 254.628 963.122 258.384C952.71 261.241 950.244 261.431 926.579 261.194C906.361 260.993 899.095 261.381 890.842 263.104C881.882 264.974 876.372 265.164 850.052 264.5L819.622 263.733L822.996 266.528C824.852 268.065 827.474 269.955 828.823 270.73C831.118 272.047 831.042 272.224 827.63 273.49C825.625 274.232 821.175 274.84 817.742 274.84H811.498L810.658 280.146C810.196 283.065 810.231 286.472 810.736 287.717C811.48 289.555 811.203 289.819 809.266 289.115C807.953 288.638 804.296 287.699 801.14 287.029C797.983 286.359 793.734 284.995 791.698 283.998C788.273 282.321 787.892 282.366 786.631 284.598C785.504 286.592 774.929 294.462 773.377 294.462C773.127 294.462 772.803 292.945 772.658 291.09C772.514 289.235 770.988 284.406 769.268 280.359C767.548 276.312 765.752 271.897 765.277 270.548C764.56 268.513 764.236 268.408 763.371 269.935C762.798 270.947 761.961 273.705 761.512 276.067C761.062 278.427 759.469 282.262 757.971 284.589L755.247 288.819L753.509 285.202C751.644 281.319 748.548 277.292 747.427 277.292C747.049 277.292 746.404 278.535 745.995 280.052C745.14 283.222 737.798 292.009 736.005 292.009C735.345 292.009 734.804 289.526 734.804 286.491C734.804 283.456 734.221 280.972 733.509 280.972C732.797 280.972 732.214 281.757 732.214 282.717C732.214 285.051 725.944 292.009 723.841 292.009C722.923 292.009 721.447 292.837 720.56 293.849C718.248 296.487 716.357 296.117 717.329 293.216C717.785 291.856 717.489 288.684 716.67 286.165L714.738 280.207C714.429 279.253 712.182 279.507 707.426 281.031C699.741 283.495 697.166 283.059 701.118 279.963C702.562 278.832 704.76 274.912 706.001 271.253C707.243 267.593 709.074 264.347 710.071 264.038C711.467 263.605 711.393 264.14 709.747 266.365C708.572 267.954 707.607 270.097 707.603 271.127C707.603 272.157 706.713 274.6 705.637 276.555C704.56 278.511 703.884 280.304 704.133 280.54C704.383 280.776 707.307 279.665 710.631 278.072L716.675 275.174L716.7 277.766C716.714 279.192 717.442 282.954 718.318 286.126L719.912 291.892L724.026 290.001C728.231 288.068 732.214 281.179 732.214 275.837C732.214 273.197 733.726 273.602 734.346 276.408C734.528 277.232 735.477 280.323 736.456 283.278L738.236 288.649L741.052 285.258C742.602 283.392 744.544 279.733 745.368 277.127C746.8 272.601 749.048 270.656 749.048 273.942C749.048 276.31 755.51 284.803 756.757 284.073C757.359 283.72 758.559 280.533 759.423 276.99C761.219 269.621 764.118 264.61 765.96 265.688C766.652 266.093 766.922 266.88 766.559 267.436C766.196 267.992 767.684 272.783 769.866 278.082C772.049 283.381 774.24 288.716 774.736 289.938C775.533 291.901 776.253 291.616 780.93 287.485C783.841 284.915 786.484 282.037 786.802 281.09C787.282 279.659 787.932 279.711 790.654 281.4C794.461 283.763 807.259 287.569 808.247 286.633C808.617 286.282 808.997 282.921 809.091 279.163L809.261 272.331L812.941 273.095C814.966 273.515 819.222 273.488 822.4 273.037L828.178 272.217L823.028 268.684C820.196 266.741 817.333 264.226 816.665 263.096C815.954 261.892 813.433 260.87 810.578 260.627C802.863 259.972 789.19 252.303 789.19 248.631C789.19 247.942 791.083 249.114 793.398 251.236C798.533 255.942 805.668 258.896 811.898 258.896H816.559L813.675 255.061C812.019 252.857 810.533 248.677 810.184 245.239C809.628 239.758 809.049 238.886 803.326 234.908C799.888 232.518 795.63 228.936 793.864 226.948L790.652 223.333L789.013 227.625C788.112 229.985 787.01 231.917 786.565 231.917C786.12 231.917 784.388 230.537 782.715 228.851C781.042 227.165 779.338 225.791 778.928 225.799C778.518 225.806 777.036 228.079 775.635 230.846L773.088 235.88L771.12 232.979C770.037 231.383 767.48 228.559 765.437 226.705C763.394 224.851 762.319 223.332 763.049 223.332C763.779 223.332 766.3 225.265 768.652 227.626L772.929 231.92L774.669 228.774C775.702 226.907 776.089 224.04 775.621 221.721C774.939 218.341 775.035 218.145 776.331 220.266C777.155 221.616 779.657 224.202 781.891 226.014L785.952 229.308L788.755 224.174C791.545 219.064 791.565 219.054 792.833 222.106C794.531 226.186 806.813 236.255 817.27 242.138C818.882 243.045 818.203 239.927 815.226 232.758C814.438 230.858 813.793 227.435 813.793 225.15C813.793 221.76 812.815 220.251 808.479 216.952C802.219 212.189 800.196 208.802 799.016 201.117C798.538 198.004 797.443 194.542 796.582 193.423C795.304 191.763 795.093 192.693 795.435 198.47C795.665 202.364 795.159 207.206 794.31 209.229L792.765 212.909L791.571 209.842C790.915 208.156 788.011 205.223 785.118 203.326C782.225 201.428 780.195 199.556 780.606 199.166C781.017 198.777 783.993 200.506 787.219 203.01C792.134 206.824 793.217 207.237 793.897 205.557C794.697 203.584 793.897 194.995 792.351 188.994C791.581 185.998 791.648 186.014 795.345 189.71C798.071 192.436 799.579 195.688 800.747 201.36C802.231 208.567 802.979 209.767 809.643 215.618C813.645 219.132 817.127 221.809 817.383 221.568C817.637 221.328 818.142 212.238 818.504 201.369C819.2 180.529 818.414 175.569 813.394 169.13L810.816 165.822L814.87 161.449C820.158 155.744 822.587 151.172 823.64 144.934L824.497 139.859L819.922 144.192C816.175 147.74 814.386 148.525 810.047 148.525C805.751 148.525 804.072 147.805 801.177 144.72C797.703 141.018 791.547 137.456 785.628 135.723C783.441 135.083 782.714 135.361 782.714 136.841C782.714 137.925 781.507 141.054 780.03 143.794L777.346 148.777L771.722 143.219C768.272 139.809 764.179 137.155 761.133 136.354C753.353 134.308 752.931 134.511 752.931 140.308C752.931 149.101 749.177 150.739 742.421 144.895C737.269 140.44 732.997 139.471 723.229 140.545L715.686 141.374L717.043 144.779C718.177 147.624 717.921 148.822 715.493 152.052C711.553 157.292 706.43 159.562 698.544 159.562C694.912 159.562 690.367 160.314 688.444 161.232C686.521 162.151 681.743 163.209 677.825 163.584C673.908 163.959 669.733 164.628 668.547 165.071C666.692 165.764 666.488 165.193 667.086 160.973C668.001 154.515 663.489 149.751 656.459 149.751C647.337 149.751 643.129 157.91 646.702 168.673C647.39 170.744 648.289 174.011 648.702 175.932C649.129 177.925 653.237 183.215 658.27 188.25C663.12 193.104 667.705 198.154 668.458 199.473C669.211 200.793 671.698 202.909 673.987 204.177L678.147 206.483L677.599 202.031C676.996 197.138 678.062 196.371 680.665 199.823C681.595 201.058 683.96 203.053 685.918 204.257C689.004 206.153 689.479 206.192 689.479 204.545C689.479 203.5 690.109 201.091 690.877 199.192L692.275 195.74L694.7 200.437C696.033 203.02 700.371 208.892 704.339 213.485C712.037 222.397 716.728 232.355 714.307 234.648C713.325 235.578 710.671 235.506 705.169 234.4C700.905 233.543 695.629 233.09 693.447 233.393C688.99 234.013 688.639 233.437 691.38 230.005C694.273 226.382 693.813 225.785 688.13 225.785C681.554 225.785 665.229 222.633 658.962 220.153C652.868 217.742 651.462 218.343 649.669 224.122C648.861 226.722 647.383 231.436 646.384 234.596L644.568 240.34L651.16 239.705C654.786 239.356 659.45 238.562 661.524 237.941C663.599 237.32 665.484 236.99 665.714 237.207C665.944 237.425 665.019 239.67 663.659 242.195L661.187 246.788L665.297 245.95C667.558 245.489 670.959 244.361 672.856 243.444C676.156 241.848 676.42 241.964 679.023 246.141C682.223 251.279 684.784 251.068 685.353 245.619C685.94 239.987 687.793 240.819 691.278 248.284C694.629 255.461 698.116 257.995 698.786 253.74C699.009 252.328 700.814 250.028 702.798 248.63C706.812 245.803 709.837 246.651 711.571 251.09C713.366 255.686 709.362 260.423 697.718 267.482C674.391 281.622 660.832 300.961 656.961 325.61C653.469 347.843 664.374 370.817 686.251 387.318C696.72 395.214 713.351 403.548 712.294 400.368C707.806 386.864 707.954 361.095 712.544 356.748C713.233 356.095 712.996 358.784 712.017 362.723C708.372 377.395 709.956 389.086 719.299 416.486C727.75 441.268 726.58 451.859 714.62 458.86C710.779 461.108 708.305 461.479 697.977 461.353C686.77 461.217 685.549 461.443 681.951 464.31C678.463 467.09 673.941 476.216 673.941 480.475C673.941 482.782 676.502 482.477 681.537 479.57L681.54 479.565Z" fill="#FFBE29" stroke="black" stroke-width="5.56"/>
        <path d="M863.451 479.063L868.152 476.042L871.342 479.063C875.522 483.021 880.418 482.933 884.436 478.826C886.19 477.034 887.765 475.793 887.936 476.067C888.106 476.341 888.889 477.67 889.673 479.019C890.667 480.726 892.709 481.585 896.396 481.845C900.837 482.158 902.03 481.728 903.795 479.177L905.899 476.137L910.526 479.111C923.196 487.253 929.946 478.711 924.284 461.7C921.405 453.05 922.988 448.188 932.267 437.179C936.18 432.536 939.385 427.581 939.389 426.168C939.389 423.914 938.665 423.612 933.457 423.715C928.474 423.815 927.017 423.279 924.393 420.392C920.127 415.695 920.38 410.317 925.149 404.348L928.959 399.579L922.199 394.992C918.482 392.469 911.778 386.5 907.301 381.727C897.247 371.008 887.361 365.925 874.326 364.772L865.586 363.999L865.598 370.615C865.615 379.132 869.612 387.325 880.522 401.203C892.927 416.982 893.793 419.425 894.296 440.049L894.721 457.491L891.131 460.897C887.888 463.974 886.425 464.367 875.958 464.97C865.994 465.545 863.9 466.059 860.976 468.65C857.093 472.09 855.931 473.961 854.732 478.712C854.033 481.482 854.317 482.085 856.315 482.085C857.653 482.085 860.865 480.725 863.45 479.063H863.451ZM596.821 433.983C597.93 432.483 598.837 430.063 598.837 428.603C598.837 426.398 599.822 425.81 604.668 425.122L610.5 424.294L606.61 421.194C601.99 417.512 601.563 414.636 605.635 414.63C609.691 414.63 616.56 410.418 617.605 407.302C618.09 405.853 617.785 403.918 616.914 402.925C614.64 400.33 610.365 400.721 609.571 403.597C608.718 406.687 607.289 406.696 604.049 403.627C599.176 399.012 599.067 389.458 603.823 383.895C606.065 381.274 606.045 381.102 603.187 378.395C600.112 375.483 597.917 369.72 599.361 368.352C599.821 367.917 602.25 368.263 604.759 369.123C608.324 370.344 609.732 370.363 611.201 369.208C615.651 365.71 610.83 361.213 603.694 362.205C600.822 362.605 599.636 362.205 599.224 360.715C598.912 359.585 596.4 358.11 593.57 357.395C588.513 356.117 588.477 356.132 588.477 359.616C588.477 363.434 586.297 364.155 582.157 361.706C578.791 359.715 575.527 361.26 575.527 364.844C575.527 368.187 578.89 369.836 584.917 369.448C589.538 369.15 589.71 372.587 585.32 377.528L582.164 381.08L584.664 384.673C588.368 389.993 588.056 398.831 584.01 403.22L580.838 406.66L578.757 403.901C575.865 400.067 571.909 400.324 570.825 404.417C570.115 407.097 570.702 408.322 574.058 411.162C576.313 413.07 579.606 414.632 581.376 414.632C585.754 414.632 585.583 418.075 581.031 421.554L577.471 424.275L582.974 425.129C586.001 425.599 588.477 426.482 588.477 427.092C588.477 429.431 592.291 436.707 593.517 436.707C594.226 436.707 595.712 435.48 596.821 433.981V433.983Z" fill="#FFBE29" stroke="black" stroke-width="5.56"/>
        <path d="M668.481 402.924C673.481 400.954 684.302 391.79 684.302 389.526C684.302 388.814 681.315 385.529 677.665 382.226C669.982 375.275 661.625 363.569 659.461 356.725C658.331 353.156 652.876 347.048 637.51 332.145L617.062 312.312L611.168 313.805C607.927 314.625 603.972 315.317 602.38 315.342C599.636 315.383 599.685 315.541 603.334 318.364L607.182 321.343L612.578 318.348C617.808 315.445 617.995 315.428 618.64 317.763C619.018 319.131 618.203 321.501 616.757 323.243C615.355 324.93 614.557 326.845 614.982 327.497C615.408 328.149 614.061 329.513 611.989 330.527C608.149 332.408 605.484 338.598 608.515 338.598C611.241 338.598 617.252 331.181 616.559 328.673C616.204 327.388 616.376 326.067 616.94 325.736C619.282 324.366 619.135 330.189 616.757 333.053C615.355 334.741 614.557 336.655 614.982 337.308C615.408 337.96 614.061 339.325 611.989 340.339C608.174 342.208 605.483 348.409 608.486 348.409C611.43 348.409 617.343 341.322 616.611 338.67C616.228 337.283 616.376 335.878 616.941 335.547C618.517 334.624 619.368 339.221 618.037 341.474C617.324 342.68 617.33 344.327 618.054 345.634C619.364 348 618.035 352.544 615.622 353.957C614.587 354.562 615.288 355.75 617.797 357.645C621.428 360.387 621.499 360.675 621.499 372.775C621.499 382.887 621.907 385.497 623.765 387.257C625.85 389.233 626.031 389.24 626.031 387.346C626.031 385.276 629.663 382.747 632.634 382.747C633.51 382.747 638.985 387.387 644.801 393.059C650.651 398.765 656.774 403.62 658.508 403.929C660.231 404.237 662.096 404.563 662.653 404.655C663.21 404.747 665.833 403.967 668.481 402.924ZM605.961 354.004C605.961 350.744 599.237 347.264 591.194 346.363C584.701 345.634 584.594 345.675 584.594 348.919C584.594 351.604 585.616 352.66 590.098 354.612C597.3 357.747 605.961 357.416 605.961 354.004Z" fill="#FFBE29" stroke="black" stroke-width="5.56"/>
        <path d="M613.331 353.701C616.611 350.725 618.165 347.185 616.191 347.185C613.922 347.185 607.899 352.591 607.899 354.627C607.899 357.806 609.017 357.615 613.331 353.701ZM606.341 344.061C606.619 342.221 605.481 340.994 602.071 339.454C594.716 336.132 585.921 334.594 583.803 336.258C579.903 339.325 582.502 343.441 588.806 344.182C591.344 344.48 594.786 345.254 596.454 345.902C601.3 347.784 605.908 346.926 606.341 344.061ZM606.341 334.211C606.737 331.587 605.059 330.648 591.363 325.828C581.138 322.228 576.611 323.926 579.879 330.133C581.017 332.296 582.928 333.283 587.213 333.925C590.4 334.403 594.756 335.335 596.893 335.999C602.6 337.771 605.898 337.147 606.341 334.211ZM613.201 324.981C615.268 322.886 616.958 320.414 616.958 319.487C616.958 316.481 608.797 321.8 607.757 325.483C606.509 329.902 608.532 329.715 613.201 324.981ZM606.341 324.361C606.791 321.372 601.821 318.673 592.047 316.599C584.876 315.077 581.713 315.94 582.25 319.272C582.543 321.092 584.931 322.421 591.707 324.535C602.55 327.919 605.811 327.88 606.341 324.361ZM615.901 310.451C628.426 304.876 629.509 290.816 617.699 287.125C612.795 285.592 609.664 286.418 607.787 289.74C606.35 292.283 607.311 296.907 609.277 296.907C609.941 296.907 610.485 297.763 610.485 298.809C610.485 303.691 591.362 305.903 583.52 301.929C580.765 300.532 579.565 296.907 581.858 296.907C583.572 296.907 584.756 293.214 583.881 290.601C582.688 287.042 579.101 285.809 573.898 287.17C562.158 290.24 562.488 304.035 574.441 309.889C584.241 314.689 605.728 314.98 615.901 310.451Z" fill="#FFBE29" stroke="black" stroke-width="5.56"/>
        <path d="M608.111 299.641C608.836 298.954 608.521 297.899 607.305 296.943C604.642 294.85 604.785 291.737 607.705 288.173C609.898 285.498 610.172 281.493 610.927 241.1C612.228 171.489 617.405 119.13 624.227 106.57C626.944 101.569 626.563 101.55 619.544 106.325C610.502 112.477 603.618 120.488 597.518 131.955C586.002 153.607 582 182.735 582 244.915C582 280.221 582.24 284.84 584.251 288.159C586.161 291.311 586.263 292.475 584.921 295.842C584.051 298.025 583.657 300.11 584.044 300.477C586.615 302.912 605.346 302.267 608.111 299.647V299.641ZM713.341 233.261C713.733 232.66 712.866 229.625 711.415 226.516C709.151 221.669 708.239 220.864 705.015 220.864C694.913 220.864 678.674 216.35 661.932 208.888C652.264 204.579 648.925 203.588 647.766 204.687C644.808 207.488 649.724 214.137 657.337 217.633C664.091 220.733 682.972 224.543 691.585 224.543C696.582 224.543 696.7 224.769 693.856 228.879L691.765 231.902L697.417 232.047C700.527 232.127 704.817 232.613 706.955 233.128C712.504 234.465 712.554 234.466 713.341 233.261Z" fill="#FFBE29" stroke="black" stroke-width="5.56"/>
        <path d="M772.351 264.629C772.351 262.829 767.067 257.954 761.713 254.812C757.508 252.345 756.813 252.27 756.804 254.282C756.79 257.337 754.074 265.013 753.006 265.013C752.405 265.013 751.516 263.513 751.029 261.68C750.543 259.847 748.505 256.234 746.499 253.651L742.854 248.956L740.014 253.306C737.368 257.362 732.783 261.334 730.748 261.334C730.262 261.334 730.168 259.198 730.537 256.587C730.939 253.751 730.629 251.501 729.767 250.997C728.973 250.532 728.323 250.694 728.323 251.357C728.323 252.885 721.956 260.107 720.609 260.107C720.054 260.107 719.277 258.038 718.882 255.509C718.488 252.979 717.817 248.979 717.392 246.618C716.966 244.257 717.872 245.858 719.406 250.175L722.195 258.025L725.253 253.241C726.934 250.61 728.313 247.735 728.317 246.851C728.317 245.969 728.889 245.578 729.581 245.982C730.272 246.387 731.235 249.55 731.72 253.011L732.601 259.303L735.966 255.614C737.816 253.585 739.985 250.869 740.784 249.578C742.211 247.274 742.292 247.276 745.131 249.684C746.721 251.033 749.167 254.259 750.565 256.854C751.964 259.449 753.295 261.38 753.524 261.146C753.752 260.912 754.264 258.237 754.662 255.202C755.06 252.167 755.415 249.571 755.452 249.433C755.649 248.681 765.586 255.141 769.263 258.411C771.626 260.513 773.87 261.939 774.25 261.579C774.63 261.219 774.941 258.118 774.941 254.687C774.941 249.37 774.378 247.945 771.126 245.039C767.386 241.696 767.282 241.678 765.9 244.123C764.107 247.296 761.992 247.342 761.992 244.207C761.992 241.92 754.926 233.127 753.088 233.127C752.611 233.127 751.123 235.059 749.781 237.42C748.438 239.78 746.995 241.71 746.573 241.707C744.76 241.696 734.799 230.59 734.803 228.585C734.803 226.991 735.475 227.398 737.221 230.061C738.548 232.085 741.199 235.106 743.111 236.774C746.985 240.153 748.393 239.331 749.887 232.821C750.313 230.966 751.053 229.448 751.532 229.448C753.188 229.448 761.859 238.658 763.079 241.712L764.303 244.778L765.231 241.405C766.365 237.281 767.616 237.128 769.426 240.891C770.183 242.463 773.918 245.731 777.728 248.154L784.654 252.559L786.044 248.129C786.808 245.692 787.821 244.292 788.294 245.017C789 246.098 787.2 253.44 785.841 255.019C785.638 255.256 783.393 253.949 780.854 252.114L776.237 248.779L776.218 254.749C776.206 258.033 775.849 261.962 775.42 263.479C774.58 266.447 772.351 267.282 772.351 264.629ZM737.821 217.029C729.59 210.157 728.34 208.584 728.522 205.327L728.716 201.86L729.253 205.209C729.567 207.164 731.759 210.094 734.522 212.251L739.254 215.945L742.161 212.582C743.761 210.732 745.09 208.529 745.116 207.686C745.183 205.487 745.577 205.672 751.15 210.507C756.102 214.803 756.18 214.824 756.915 212.04C757.326 210.488 757.18 207.567 756.592 205.548C754.974 199.998 755.291 199.16 757.742 202.508C758.964 204.175 760.928 206.533 762.107 207.746C764.159 209.859 764.284 209.833 765.048 207.133C765.487 205.582 765.854 202.743 765.863 200.824L765.882 197.336L770.346 202.396C774.516 207.124 774.9 207.298 776.173 205.046C776.923 203.72 777.545 200.529 777.556 197.956C777.57 194.631 777.92 193.792 778.766 195.058C780.178 197.172 779.197 202.928 776.59 207.833L774.719 211.353L772.262 207.526C769.12 202.633 768.074 202.712 766.058 207.992C764.153 212.982 762.914 213.362 761.058 209.525C759.856 207.042 759.628 207.346 758.775 212.562L757.827 218.359L752.148 213.952L746.47 209.545L743.917 212.448C742.513 214.044 741.345 216.04 741.321 216.883C741.269 218.71 739.904 218.767 737.821 217.029ZM811.041 191.429C808.045 188.729 805.981 186.154 806.454 185.706C806.928 185.258 807.461 185.129 807.639 185.421C807.817 185.712 810.266 188.287 813.081 191.144C819.564 197.72 818.231 197.906 811.041 191.429ZM713.511 181.349C710.786 177.664 710.974 175.222 714.291 171.228C716.689 168.342 717.784 167.95 721.971 168.482C724.655 168.822 730.434 171.195 734.811 173.754C739.867 176.709 745.096 178.689 749.146 179.181C752.653 179.607 755.522 179.768 755.522 179.538C755.522 179.308 754.066 176.935 752.285 174.264C748.057 167.92 748.202 167.24 752.971 171.04C757.866 174.941 763.721 176.082 776.807 175.684L783.2 175.49L779.49 171.824C774.304 166.697 775.9 166.237 781.628 171.208C787.001 175.871 786.664 176.199 775.357 177.328C770.552 177.808 765.385 177.46 761.09 176.368C754.664 174.733 754.415 174.758 755.632 176.912C756.334 178.154 757.47 179.169 758.157 179.169C758.844 179.169 759.407 179.799 759.407 180.567C759.407 182.932 745.527 180.852 738.895 177.494C723.745 169.824 721.837 169.159 718.231 170.295C716.225 170.928 714.216 172.779 713.524 174.633C711.214 180.821 719.99 185.63 723.609 180.161C724.658 178.575 724.413 177.491 722.569 175.562C720.044 172.92 720.281 172.543 723.689 173.782C726.109 174.662 726.435 180.472 724.184 182.603C721.608 185.043 715.731 184.352 713.51 181.349H713.511Z" fill="black" stroke="black" stroke-width="5.56"/>
        <path d="M773.19 166.074C771.295 164.28 772.78 163.84 781.275 163.682C791.783 163.486 798.165 161.735 805.695 156.982C811.728 153.172 813.364 153.922 807.637 157.872C802.413 161.474 794.265 164.243 786.398 165.09C782.588 165.5 778.248 166.068 776.751 166.353C775.254 166.637 773.651 166.511 773.19 166.074Z" fill="black" stroke="black" stroke-width="5.56"/>
        <path d="M681.54 479.565L685.9 477.048L687.764 479.57C690.249 482.929 697.124 482.891 701.685 479.492L705.173 476.894L708.094 479.492C711.934 482.909 719.106 482.914 723.685 479.504C726.891 477.116 727.338 477.068 729.458 478.885C730.722 479.968 734.428 481.201 737.695 481.625C743.577 482.389 743.666 482.347 747.108 477.183C749.991 472.859 750.442 471.108 749.754 466.914C749.298 464.134 748.807 459.658 748.662 456.969C748.402 452.099 748.429 452.069 755.522 449.599C759.439 448.235 763.974 446.406 765.598 445.534C768.431 444.014 776.241 434.835 776.241 433.026C776.241 432.546 773.191 431.812 769.461 431.394C754.628 429.73 752.116 421.765 761.759 406.971C777.484 382.843 786.974 359.346 787.037 344.378C787.066 337.688 787.447 335.441 788.307 336.896C791.82 342.842 785.525 367.773 775.99 385.676L772.151 392.885L775.814 392.041C777.829 391.578 789.675 386.58 802.139 380.934C836.254 365.484 847.972 362.455 870.05 363.385C888.548 364.165 896.425 367.778 909.485 381.475C916.403 388.732 923.068 393.925 935.26 401.555C961.235 417.815 962.318 419.222 963.553 438.343C964.804 457.716 964.181 458.767 949.529 462.004C937.005 464.771 929.154 470.61 927.048 478.721C925.923 483.053 928.29 483.178 934.604 479.12L939.231 476.146L941.289 479.12C943.994 483.03 949.744 483.046 954.519 479.156L958.125 476.217L961.812 479.156C967.541 483.721 975.159 482.614 977.309 476.904C977.723 475.806 978.826 476.158 981.059 478.099C985.245 481.736 995.973 483.296 997.131 480.436C997.574 479.346 996.734 476.65 995.265 474.448C989.023 465.088 987.07 460.625 986.989 455.53C986.876 448.443 988.99 445.025 997.049 439.262C1006.84 432.261 1009.87 423.229 1002.42 423.229C997.823 423.229 993.189 419.165 990.234 412.543C984.226 399.082 985.404 383.991 994.42 358.886C1003.58 333.386 1004.6 328.684 1004.63 311.63C1004.66 297.84 1004.31 295.456 1001.18 287.896C999.258 283.273 995.366 276.391 992.527 272.602L987.366 265.712L993.993 260.222C1014.23 243.458 1010.09 216.023 985.73 205.452C978.278 202.219 976.416 201.933 963.358 202.021C955.524 202.074 943.578 203.104 936.812 204.311C929.913 205.543 918.237 206.532 910.227 206.565C897.502 206.615 895.342 206.302 890.437 203.692C885.325 200.97 884.447 199.678 883.447 193.387C883.241 192.094 882.337 190.804 881.437 190.52C879.699 189.972 871.667 196.943 870.48 200.03C869.894 201.554 869.417 201.448 867.699 199.417C866.559 198.068 864.966 194.968 864.159 192.529C862.133 186.393 864.622 181.794 871.834 178.348L877.429 175.674L874.129 173.626C867.321 169.401 855.744 172.292 851.557 179.261C850.373 181.233 849.081 182.849 848.687 182.854C848.292 182.857 846.041 180.977 843.684 178.674C834.894 170.084 837.918 157.377 849.675 153.497C855.945 151.428 861.493 153.007 862.647 157.187C864.41 163.57 869.888 155.18 868.906 147.603C868.252 142.566 868.35 142.391 871.836 142.391C876.683 142.391 887.001 148.753 890.192 153.711C893.898 159.467 893.629 168.533 889.55 175.291L886.347 180.596L890.537 179.756C896.68 178.526 902.649 174.711 905.667 170.085C908.86 165.193 909.203 155.669 906.372 150.53C903.629 145.549 903.944 144.758 907.999 146.441C914.896 149.304 918.583 152.461 921.349 157.872C923.839 162.745 923.979 163.956 922.63 169.028C921.798 172.158 919.947 176.274 918.517 178.177C916.289 181.139 916.213 181.636 917.988 181.636C921.293 181.636 928.194 178.508 930.646 175.899C931.884 174.58 933.69 171.335 934.658 168.686L936.418 163.87L938.442 167.54C941.302 172.732 946.864 177.403 953.646 180.31C960.939 183.437 963.976 183.613 960.162 180.689C957.59 178.716 952.852 164.811 954.287 163.451C955.133 162.651 965.034 170.269 976.34 180.419C987.035 190.019 993.755 193.165 1003.58 193.165C1016.13 193.165 1023.43 182.242 1017.79 171.914C1014.5 165.892 1007.18 165.056 1002.9 170.213C1000.93 172.584 1000.39 174.47 1000.96 176.958C1001.67 180.005 1001.39 180.411 998.618 180.411C994.971 180.411 987.781 175.744 975.012 165.09C955.541 148.842 931.882 135.07 914.798 130.04C903.835 126.811 880.415 125.551 869.27 127.59C857.208 129.797 842.941 136.7 835.169 144.09C821.397 157.183 821.178 174.607 834.588 190.474L838.428 195.02L835.828 199.059C832.045 204.936 832.369 212.844 836.632 218.669C838.509 221.235 840.402 223.333 840.84 223.331C841.277 223.331 841.757 221.681 841.905 219.666C842.282 214.569 844.469 211.155 848.224 209.803C851.605 208.585 853.791 209.16 869.274 215.34C885.564 221.842 912.352 222.289 940.836 216.534C954.8 213.713 971.266 213.879 978.51 216.914C991.789 222.477 994.867 236.95 985.105 247.936C980.88 252.692 976.805 254.628 963.122 258.384C952.71 261.241 950.244 261.431 926.579 261.194C906.361 260.993 899.095 261.381 890.842 263.104C881.882 264.974 876.372 265.164 850.052 264.5L819.622 263.733L822.996 266.528C824.852 268.065 827.474 269.955 828.823 270.73C831.118 272.047 831.042 272.224 827.63 273.49C825.625 274.232 821.175 274.84 817.742 274.84H811.498L810.658 280.146C810.196 283.065 810.231 286.472 810.736 287.717C811.48 289.555 811.203 289.819 809.266 289.115C807.953 288.638 804.296 287.699 801.14 287.029C797.983 286.359 793.734 284.995 791.698 283.998C788.273 282.321 787.892 282.366 786.631 284.598C785.504 286.592 774.929 294.462 773.377 294.462C773.127 294.462 772.803 292.945 772.658 291.09C772.514 289.235 770.988 284.406 769.268 280.359C767.548 276.312 765.752 271.897 765.277 270.548C764.56 268.513 764.236 268.408 763.371 269.935C762.798 270.947 761.961 273.705 761.512 276.067C761.062 278.427 759.469 282.262 757.971 284.589L755.247 288.819L753.509 285.202C751.644 281.319 748.548 277.292 747.427 277.292C747.049 277.292 746.404 278.535 745.995 280.052C745.14 283.222 737.798 292.009 736.005 292.009C735.345 292.009 734.804 289.526 734.804 286.491C734.804 283.456 734.221 280.972 733.509 280.972C732.797 280.972 732.214 281.757 732.214 282.717C732.214 285.051 725.944 292.009 723.841 292.009C722.923 292.009 721.447 292.837 720.56 293.849C718.248 296.487 716.357 296.117 717.329 293.216C717.785 291.856 717.489 288.684 716.67 286.165L714.738 280.207C714.429 279.253 712.182 279.507 707.426 281.031C699.741 283.495 697.166 283.059 701.118 279.963C702.562 278.832 704.76 274.912 706.001 271.253C707.243 267.593 709.074 264.347 710.071 264.038C711.467 263.605 711.393 264.14 709.747 266.365C708.572 267.954 707.607 270.097 707.603 271.127C707.603 272.157 706.713 274.6 705.637 276.555C704.56 278.511 703.884 280.304 704.133 280.54C704.383 280.776 707.307 279.665 710.631 278.072L716.675 275.174L716.7 277.766C716.714 279.192 717.442 282.954 718.318 286.126L719.912 291.892L724.026 290.001C728.231 288.068 732.214 281.179 732.214 275.837C732.214 273.197 733.726 273.602 734.346 276.408C734.528 277.232 735.477 280.323 736.456 283.278L738.236 288.649L741.052 285.258C742.602 283.392 744.544 279.733 745.368 277.127C746.8 272.601 749.048 270.656 749.048 273.942C749.048 276.31 755.51 284.803 756.757 284.073C757.359 283.72 758.559 280.533 759.423 276.99C761.219 269.621 764.118 264.61 765.96 265.688C766.652 266.093 766.922 266.88 766.559 267.436C766.196 267.992 767.684 272.783 769.866 278.082C772.049 283.381 774.24 288.716 774.736 289.938C775.533 291.901 776.253 291.616 780.93 287.485C783.841 284.915 786.484 282.037 786.802 281.09C787.282 279.659 787.932 279.711 790.654 281.4C794.461 283.763 807.259 287.569 808.247 286.633C808.617 286.282 808.997 282.921 809.091 279.163L809.261 272.331L812.941 273.095C814.966 273.515 819.222 273.488 822.4 273.037L828.178 272.217L823.028 268.684C820.196 266.741 817.333 264.226 816.665 263.096C815.954 261.892 813.433 260.87 810.578 260.627C802.863 259.972 789.19 252.303 789.19 248.631C789.19 247.942 791.083 249.114 793.398 251.236C798.533 255.942 805.668 258.896 811.898 258.896H816.559L813.675 255.061C812.019 252.857 810.533 248.677 810.184 245.239C809.628 239.758 809.049 238.886 803.326 234.908C799.888 232.518 795.63 228.936 793.864 226.948L790.652 223.333L789.013 227.625C788.112 229.985 787.01 231.917 786.565 231.917C786.12 231.917 784.388 230.537 782.715 228.851C781.042 227.165 779.338 225.791 778.928 225.799C778.518 225.806 777.036 228.079 775.635 230.846L773.088 235.88L771.12 232.979C770.037 231.383 767.48 228.559 765.437 226.705C763.394 224.851 762.319 223.332 763.049 223.332C763.779 223.332 766.3 225.265 768.652 227.626L772.929 231.92L774.669 228.774C775.702 226.907 776.089 224.04 775.621 221.721C774.939 218.341 775.035 218.145 776.331 220.266C777.155 221.616 779.657 224.202 781.891 226.014L785.952 229.308L788.755 224.174C791.545 219.064 791.565 219.054 792.833 222.106C794.531 226.186 806.813 236.255 817.27 242.138C818.882 243.045 818.203 239.927 815.226 232.758C814.438 230.858 813.793 227.435 813.793 225.15C813.793 221.76 812.815 220.251 808.479 216.952C802.219 212.189 800.196 208.802 799.016 201.117C798.538 198.004 797.443 194.542 796.582 193.423C795.304 191.763 795.093 192.693 795.435 198.47C795.665 202.364 795.159 207.206 794.31 209.229L792.765 212.909L791.571 209.842C790.915 208.156 788.011 205.223 785.118 203.326C782.225 201.428 780.195 199.556 780.606 199.166C781.017 198.777 783.993 200.506 787.219 203.01C792.134 206.824 793.217 207.237 793.897 205.557C794.697 203.584 793.897 194.995 792.351 188.994C791.581 185.998 791.648 186.014 795.345 189.71C798.071 192.436 799.579 195.688 800.747 201.36C802.231 208.567 802.979 209.767 809.643 215.618C813.645 219.132 817.127 221.809 817.383 221.568C817.637 221.328 818.142 212.238 818.504 201.369C819.2 180.529 818.414 175.569 813.394 169.13L810.816 165.822L814.87 161.449C820.158 155.744 822.587 151.172 823.64 144.934L824.497 139.859L819.922 144.192C816.175 147.74 814.386 148.525 810.047 148.525C805.751 148.525 804.072 147.805 801.177 144.72C797.703 141.018 791.547 137.456 785.628 135.723C783.441 135.083 782.714 135.361 782.714 136.841C782.714 137.925 781.507 141.054 780.03 143.794L777.346 148.777L771.722 143.219C768.272 139.809 764.179 137.155 761.133 136.354C753.353 134.308 752.931 134.511 752.931 140.308C752.931 149.101 749.177 150.739 742.421 144.895C737.269 140.44 732.997 139.471 723.229 140.545L715.686 141.374L717.043 144.779C718.177 147.624 717.921 148.822 715.493 152.052C711.553 157.292 706.43 159.562 698.544 159.562C694.912 159.562 690.367 160.314 688.444 161.232C686.521 162.151 681.743 163.209 677.825 163.584C673.908 163.959 669.733 164.628 668.547 165.071C666.692 165.764 666.488 165.193 667.086 160.973C668.001 154.515 663.489 149.751 656.459 149.751C647.337 149.751 643.129 157.91 646.702 168.673C647.39 170.744 648.289 174.011 648.702 175.932C649.129 177.925 653.237 183.215 658.27 188.25C663.12 193.104 667.705 198.154 668.458 199.473C669.211 200.793 671.698 202.909 673.987 204.177L678.147 206.483L677.599 202.031C676.996 197.138 678.062 196.371 680.665 199.823C681.595 201.058 683.96 203.053 685.918 204.257C689.004 206.153 689.479 206.192 689.479 204.545C689.479 203.5 690.109 201.091 690.877 199.192L692.275 195.74L694.7 200.437C696.033 203.02 700.371 208.892 704.339 213.485C712.037 222.397 716.728 232.355 714.307 234.648C713.325 235.578 710.671 235.506 705.169 234.4C700.905 233.543 695.629 233.09 693.447 233.393C688.99 234.013 688.639 233.437 691.38 230.005C694.273 226.382 693.813 225.785 688.13 225.785C681.554 225.785 665.229 222.633 658.962 220.153C652.868 217.742 651.462 218.343 649.669 224.122C648.861 226.722 647.383 231.436 646.384 234.596L644.568 240.34L651.16 239.705C654.786 239.356 659.45 238.562 661.524 237.941C663.599 237.32 665.484 236.99 665.714 237.207C665.944 237.425 665.019 239.67 663.659 242.195L661.187 246.788L665.297 245.95C667.558 245.489 670.959 244.361 672.856 243.444C676.156 241.848 676.42 241.964 679.023 246.141C682.223 251.279 684.784 251.068 685.353 245.619C685.94 239.987 687.793 240.819 691.278 248.284C694.629 255.461 698.116 257.995 698.786 253.74C699.009 252.328 700.814 250.028 702.798 248.63C706.812 245.803 709.837 246.651 711.571 251.09C713.366 255.686 709.362 260.423 697.718 267.482C674.391 281.622 660.832 300.961 656.961 325.61C653.469 347.843 664.374 370.817 686.251 387.318C696.72 395.214 713.351 403.548 712.294 400.368C707.806 386.864 707.954 361.095 712.544 356.748C713.233 356.095 712.996 358.784 712.017 362.723C708.372 377.395 709.956 389.086 719.299 416.486C727.75 441.268 726.58 451.859 714.62 458.86C710.779 461.108 708.305 461.479 697.977 461.353C686.77 461.217 685.549 461.443 681.951 464.31C678.463 467.09 673.941 476.216 673.941 480.475C673.941 482.782 676.502 482.477 681.537 479.57L681.54 479.565Z" fill="#FFBE29"/>
        <path d="M863.451 479.063L868.152 476.042L871.342 479.063C875.522 483.021 880.418 482.933 884.436 478.826C886.19 477.034 887.765 475.793 887.936 476.067C888.106 476.341 888.889 477.67 889.673 479.019C890.667 480.726 892.709 481.585 896.396 481.845C900.837 482.158 902.03 481.728 903.795 479.177L905.899 476.137L910.526 479.111C923.196 487.253 929.946 478.711 924.284 461.7C921.405 453.05 922.988 448.188 932.267 437.179C936.18 432.536 939.385 427.581 939.389 426.168C939.389 423.914 938.665 423.612 933.457 423.715C928.474 423.815 927.017 423.279 924.393 420.392C920.127 415.695 920.38 410.317 925.149 404.348L928.959 399.579L922.199 394.992C918.482 392.469 911.778 386.5 907.301 381.727C897.247 371.008 887.361 365.925 874.326 364.772L865.586 363.999L865.598 370.615C865.615 379.132 869.612 387.325 880.522 401.203C892.927 416.982 893.793 419.425 894.296 440.049L894.721 457.491L891.131 460.897C887.888 463.974 886.425 464.367 875.958 464.97C865.994 465.545 863.9 466.059 860.976 468.65C857.093 472.09 855.931 473.961 854.732 478.712C854.033 481.482 854.317 482.085 856.315 482.085C857.653 482.085 860.865 480.725 863.45 479.063H863.451ZM596.821 433.983C597.93 432.483 598.837 430.063 598.837 428.603C598.837 426.398 599.822 425.81 604.668 425.122L610.5 424.294L606.61 421.194C601.99 417.512 601.563 414.636 605.635 414.63C609.691 414.63 616.56 410.418 617.605 407.302C618.09 405.853 617.785 403.918 616.914 402.925C614.64 400.33 610.365 400.721 609.571 403.597C608.718 406.687 607.289 406.696 604.049 403.627C599.176 399.012 599.067 389.458 603.823 383.895C606.065 381.274 606.045 381.102 603.187 378.395C600.112 375.483 597.917 369.72 599.361 368.352C599.821 367.917 602.25 368.263 604.759 369.123C608.324 370.344 609.732 370.363 611.201 369.208C615.651 365.71 610.83 361.213 603.694 362.205C600.822 362.605 599.636 362.205 599.224 360.715C598.912 359.585 596.4 358.11 593.57 357.395C588.513 356.117 588.477 356.132 588.477 359.616C588.477 363.434 586.297 364.155 582.157 361.706C578.791 359.715 575.527 361.26 575.527 364.844C575.527 368.187 578.89 369.836 584.917 369.448C589.538 369.15 589.71 372.587 585.32 377.528L582.164 381.08L584.664 384.673C588.368 389.993 588.056 398.831 584.01 403.22L580.838 406.66L578.757 403.901C575.865 400.067 571.909 400.324 570.825 404.417C570.115 407.097 570.702 408.322 574.058 411.162C576.313 413.07 579.606 414.632 581.376 414.632C585.754 414.632 585.583 418.075 581.031 421.554L577.471 424.275L582.974 425.129C586.001 425.599 588.477 426.482 588.477 427.092C588.477 429.431 592.291 436.707 593.517 436.707C594.226 436.707 595.712 435.48 596.821 433.981V433.983Z" fill="#FFBE29"/>
        <path d="M668.481 402.924C673.481 400.954 684.302 391.79 684.302 389.526C684.302 388.814 681.315 385.529 677.665 382.226C669.982 375.275 661.625 363.569 659.461 356.725C658.331 353.156 652.876 347.048 637.51 332.145L617.062 312.312L611.168 313.805C607.927 314.625 603.972 315.317 602.38 315.342C599.636 315.383 599.685 315.541 603.334 318.364L607.182 321.343L612.578 318.348C617.808 315.445 617.995 315.428 618.64 317.763C619.018 319.131 618.203 321.501 616.757 323.243C615.355 324.93 614.557 326.845 614.982 327.497C615.408 328.149 614.061 329.513 611.989 330.527C608.149 332.408 605.484 338.598 608.515 338.598C611.241 338.598 617.252 331.181 616.559 328.673C616.204 327.388 616.376 326.067 616.94 325.736C619.282 324.366 619.135 330.189 616.757 333.053C615.355 334.741 614.557 336.655 614.982 337.308C615.408 337.96 614.061 339.325 611.989 340.339C608.174 342.208 605.483 348.409 608.486 348.409C611.43 348.409 617.343 341.322 616.611 338.67C616.228 337.283 616.376 335.878 616.941 335.547C618.517 334.624 619.368 339.221 618.037 341.474C617.324 342.68 617.33 344.327 618.054 345.634C619.364 348 618.035 352.544 615.622 353.957C614.587 354.562 615.288 355.75 617.797 357.645C621.428 360.387 621.499 360.675 621.499 372.775C621.499 382.887 621.907 385.497 623.765 387.257C625.85 389.233 626.031 389.24 626.031 387.346C626.031 385.276 629.663 382.747 632.634 382.747C633.51 382.747 638.985 387.387 644.801 393.059C650.651 398.765 656.774 403.62 658.508 403.929C660.231 404.237 662.096 404.563 662.653 404.655C663.21 404.747 665.833 403.967 668.481 402.924ZM605.961 354.004C605.961 350.744 599.237 347.264 591.194 346.363C584.701 345.634 584.594 345.675 584.594 348.919C584.594 351.604 585.616 352.66 590.098 354.612C597.3 357.747 605.961 357.416 605.961 354.004Z" fill="#FFBE29"/>
        <path d="M613.331 353.701C616.611 350.725 618.165 347.185 616.191 347.185C613.922 347.185 607.899 352.591 607.899 354.627C607.899 357.806 609.017 357.615 613.331 353.701ZM606.341 344.061C606.619 342.221 605.481 340.994 602.071 339.454C594.716 336.132 585.921 334.594 583.803 336.258C579.903 339.325 582.502 343.441 588.806 344.182C591.344 344.48 594.786 345.254 596.454 345.902C601.3 347.784 605.908 346.926 606.341 344.061ZM606.341 334.211C606.737 331.587 605.059 330.648 591.363 325.828C581.138 322.228 576.611 323.926 579.879 330.133C581.017 332.296 582.928 333.283 587.213 333.925C590.4 334.403 594.756 335.335 596.893 335.999C602.6 337.771 605.898 337.147 606.341 334.211ZM613.201 324.981C615.268 322.886 616.958 320.414 616.958 319.487C616.958 316.481 608.797 321.8 607.757 325.483C606.509 329.902 608.532 329.715 613.201 324.981ZM606.341 324.361C606.791 321.372 601.821 318.673 592.047 316.599C584.876 315.077 581.713 315.94 582.25 319.272C582.543 321.092 584.931 322.421 591.707 324.535C602.55 327.919 605.811 327.88 606.341 324.361ZM615.901 310.451C628.426 304.876 629.509 290.816 617.699 287.125C612.795 285.592 609.664 286.418 607.787 289.74C606.35 292.283 607.311 296.907 609.277 296.907C609.941 296.907 610.485 297.763 610.485 298.809C610.485 303.691 591.362 305.903 583.52 301.929C580.765 300.532 579.565 296.907 581.858 296.907C583.572 296.907 584.756 293.214 583.881 290.601C582.688 287.042 579.101 285.809 573.898 287.17C562.158 290.24 562.488 304.035 574.441 309.889C584.241 314.689 605.728 314.98 615.901 310.451Z" fill="#FFBE29"/>
        <path d="M608.111 299.641C608.836 298.954 608.521 297.899 607.305 296.943C604.642 294.85 604.785 291.737 607.705 288.173C609.898 285.498 610.172 281.493 610.927 241.1C612.228 171.489 617.405 119.13 624.227 106.57C626.944 101.569 626.563 101.55 619.544 106.325C610.502 112.477 603.618 120.488 597.518 131.955C586.002 153.607 582 182.735 582 244.915C582 280.221 582.24 284.84 584.251 288.159C586.161 291.311 586.263 292.475 584.921 295.842C584.051 298.025 583.657 300.11 584.044 300.477C586.615 302.912 605.346 302.267 608.111 299.647V299.641ZM713.341 233.261C713.733 232.66 712.866 229.625 711.415 226.516C709.151 221.669 708.239 220.864 705.015 220.864C694.913 220.864 678.674 216.35 661.932 208.888C652.264 204.579 648.925 203.588 647.766 204.687C644.808 207.488 649.724 214.137 657.337 217.633C664.091 220.733 682.972 224.543 691.585 224.543C696.582 224.543 696.7 224.769 693.856 228.879L691.765 231.902L697.417 232.047C700.527 232.127 704.817 232.613 706.955 233.128C712.504 234.465 712.554 234.466 713.341 233.261Z" fill="#FFBE29"/>
        <path d="M772.351 264.629C772.351 262.829 767.067 257.954 761.713 254.812C757.508 252.345 756.813 252.27 756.804 254.282C756.79 257.337 754.074 265.013 753.006 265.013C752.405 265.013 751.516 263.513 751.029 261.68C750.543 259.847 748.505 256.234 746.499 253.651L742.854 248.956L740.014 253.306C737.368 257.362 732.783 261.334 730.748 261.334C730.262 261.334 730.168 259.198 730.537 256.587C730.939 253.751 730.629 251.501 729.767 250.997C728.973 250.532 728.323 250.694 728.323 251.357C728.323 252.885 721.956 260.107 720.609 260.107C720.054 260.107 719.277 258.038 718.882 255.509C718.488 252.979 717.817 248.979 717.392 246.618C716.966 244.257 717.872 245.858 719.406 250.175L722.195 258.025L725.253 253.241C726.934 250.61 728.313 247.735 728.317 246.851C728.317 245.969 728.889 245.578 729.581 245.982C730.272 246.387 731.235 249.55 731.72 253.011L732.601 259.303L735.966 255.614C737.816 253.585 739.985 250.869 740.784 249.578C742.211 247.274 742.292 247.276 745.131 249.684C746.721 251.033 749.167 254.259 750.565 256.854C751.964 259.449 753.295 261.38 753.524 261.146C753.752 260.912 754.264 258.237 754.662 255.202C755.06 252.167 755.415 249.571 755.452 249.433C755.649 248.681 765.586 255.141 769.263 258.411C771.626 260.513 773.87 261.939 774.25 261.579C774.63 261.219 774.941 258.118 774.941 254.687C774.941 249.37 774.378 247.945 771.126 245.039C767.386 241.696 767.282 241.678 765.9 244.123C764.107 247.296 761.992 247.342 761.992 244.207C761.992 241.92 754.926 233.127 753.088 233.127C752.611 233.127 751.123 235.059 749.781 237.42C748.438 239.78 746.995 241.71 746.573 241.707C744.76 241.696 734.799 230.59 734.803 228.585C734.803 226.991 735.475 227.398 737.221 230.061C738.548 232.085 741.199 235.106 743.111 236.774C746.985 240.153 748.393 239.331 749.887 232.821C750.313 230.966 751.053 229.448 751.532 229.448C753.188 229.448 761.859 238.658 763.079 241.712L764.303 244.778L765.231 241.405C766.365 237.281 767.616 237.128 769.426 240.891C770.183 242.463 773.918 245.731 777.728 248.154L784.654 252.559L786.044 248.129C786.808 245.692 787.821 244.292 788.294 245.017C789 246.098 787.2 253.44 785.841 255.019C785.638 255.256 783.393 253.949 780.854 252.114L776.237 248.779L776.218 254.749C776.206 258.033 775.849 261.962 775.42 263.479C774.58 266.447 772.351 267.282 772.351 264.629ZM737.821 217.029C729.59 210.157 728.34 208.584 728.522 205.327L728.716 201.86L729.253 205.209C729.567 207.164 731.759 210.094 734.522 212.251L739.254 215.945L742.161 212.582C743.761 210.732 745.09 208.529 745.116 207.686C745.183 205.487 745.577 205.672 751.15 210.507C756.102 214.803 756.18 214.824 756.915 212.04C757.326 210.488 757.18 207.567 756.592 205.548C754.974 199.998 755.291 199.16 757.742 202.508C758.964 204.175 760.928 206.533 762.107 207.746C764.159 209.859 764.284 209.833 765.048 207.133C765.487 205.582 765.854 202.743 765.863 200.824L765.882 197.336L770.346 202.396C774.516 207.124 774.9 207.298 776.173 205.046C776.923 203.72 777.545 200.529 777.556 197.956C777.57 194.631 777.92 193.792 778.766 195.058C780.178 197.172 779.197 202.928 776.59 207.833L774.719 211.353L772.262 207.526C769.12 202.633 768.074 202.712 766.058 207.992C764.153 212.982 762.914 213.362 761.058 209.525C759.856 207.042 759.628 207.346 758.775 212.562L757.827 218.359L752.148 213.952L746.47 209.545L743.917 212.448C742.513 214.044 741.345 216.04 741.321 216.883C741.269 218.71 739.904 218.767 737.821 217.029ZM811.041 191.429C808.045 188.729 805.981 186.154 806.454 185.706C806.928 185.258 807.461 185.129 807.639 185.421C807.817 185.712 810.266 188.287 813.081 191.144C819.564 197.72 818.231 197.906 811.041 191.429ZM713.511 181.349C710.786 177.664 710.974 175.222 714.291 171.228C716.689 168.342 717.784 167.95 721.971 168.482C724.655 168.822 730.434 171.195 734.811 173.754C739.867 176.709 745.096 178.689 749.146 179.181C752.653 179.607 755.522 179.768 755.522 179.538C755.522 179.308 754.066 176.935 752.285 174.264C748.057 167.92 748.202 167.24 752.971 171.04C757.866 174.941 763.721 176.082 776.807 175.684L783.2 175.49L779.49 171.824C774.304 166.697 775.9 166.237 781.628 171.208C787.001 175.871 786.664 176.199 775.357 177.328C770.552 177.808 765.385 177.46 761.09 176.368C754.664 174.733 754.415 174.758 755.632 176.912C756.334 178.154 757.47 179.169 758.157 179.169C758.844 179.169 759.407 179.799 759.407 180.567C759.407 182.932 745.527 180.852 738.895 177.494C723.745 169.824 721.837 169.159 718.231 170.295C716.225 170.928 714.216 172.779 713.524 174.633C711.214 180.821 719.99 185.63 723.609 180.161C724.658 178.575 724.413 177.491 722.569 175.562C720.044 172.92 720.281 172.543 723.689 173.782C726.109 174.662 726.435 180.472 724.184 182.603C721.608 185.043 715.731 184.352 713.51 181.349H713.511Z" fill="black"/>
        <path d="M773.19 166.074C771.295 164.28 772.78 163.84 781.275 163.682C791.783 163.486 798.165 161.735 805.695 156.982C811.728 153.172 813.364 153.922 807.637 157.872C802.413 161.474 794.265 164.243 786.398 165.09C782.588 165.5 778.248 166.068 776.751 166.353C775.254 166.637 773.651 166.511 773.19 166.074Z" fill="black"/>
    </g>
    <defs>
        <clipPath id="clip0_1943_710">
            <rect width="1200" height="600" fill="white"/>
        </clipPath>
    </defs>
</svg>
