<svg width="960" height="480" viewBox="0 0 960 480" fill="none"
    xmlns="http://www.w3.org/2000/svg">
    <g clip-path="url(#clip0_2052_107)">
        <path id="3" d="M0 360H960V480H0V360Z" fill="#EDEDF0"/>
        <path id="2" d="M0 120H960V360H0V120Z" fill="#DDDDDD"/>
        <path id="1" d="M0 0H960V120H0V0Z" fill="#EDEDF0"/>
        <g id="4">
            <path d="M522.412 282.441C511.555 293.29 496.561 300 480 300C446.863 300 420 273.137 420 240C420 206.863 446.863 180 480 180C496.558 180 511.55 186.707 522.406 197.554C513.872 191.455 503.421 187.867 492.132 187.867C463.34 187.867 440 211.207 440 239.999C440 268.791 463.34 292.131 492.132 292.131C503.424 292.131 513.877 288.541 522.412 282.441Z" fill="#CCCCCC"/>
            <path d="M509.175 240L589.875 213.779L540 282.426V197.574L589.875 266.221L509.175 240Z" fill="#CCCCCC"/>
        </g>
    </g>
    <defs>
        <clipPath id="clip0_2052_107">
            <rect width="960" height="480" fill="white"/>
        </clipPath>
    </defs>
</svg>
