<svg xmlns="http://www.w3.org/2000/svg" width="750" height="500" fill="none" viewBox="0 0 750 500">
  <g id="maryland" clip-path="url(#clip0_1030_2767)">
    <path id="2" fill="#DDD" d="M0 0h750v500H0V0Z"/>
    <path id="1" fill="#EEE" d="M0 500V41.667l62.5 41.666V500H125V0h62.5v500H250V0h62.5v500H375V0h62.5v500H500V0h62.5v500H625V0h62.5v500H750v-41.667L62.5 0v83.333L687.5 500H0Z"/>
    <g id="b">
      <path id="Vector" fill="#fff" d="M375 0h187.5v250H750V125H375V0Z"/>
      <path id="Vector_2" fill="#9D2235" d="M562.5 0H750v125H375v125h187.5V0Z"/>
      <g id="Group">
        <path id="Vector_3" fill="#9D2235" d="M562.5 232.5c4.243 0 8.313-1.686 11.314-4.686 3-3.001 4.686-7.071 4.686-11.314v-8H594c4.243 0 8.313-1.686 11.314-4.686a16.004 16.004 0 0 0 0-22.628A16.004 16.004 0 0 0 594 176.5h-15.5V141H678v15.5c0 4.243 1.686 8.313 4.686 11.314a16.004 16.004 0 0 0 22.628 0c3-3.001 4.686-7.071 4.686-11.314V141h14c4.243 0 8.313-1.686 11.314-4.686 3-3.001 4.686-7.071 4.686-11.314H562.5v107.5Z"/>
        <path id="Vector_4" fill="#fff" d="M562.5 232.5a16.004 16.004 0 0 1-11.314-4.686A16.004 16.004 0 0 1 546.5 216.5v-8H531a16.004 16.004 0 0 1-11.314-4.686 16.004 16.004 0 0 1 0-22.628c3.001-3 7.071-4.686 11.314-4.686h15.5V141H447v15.5c0 4.243-1.686 8.313-4.686 11.314a16.004 16.004 0 0 1-22.628 0A16.004 16.004 0 0 1 415 156.5V141h-14a16.004 16.004 0 0 1-11.314-4.686A16.004 16.004 0 0 1 385 125h177.5v107.5Z"/>
        <path id="Vector_5" fill="#fff" d="M562.5 17.5a16.002 16.002 0 0 1 16 16v8H594a16.002 16.002 0 0 1 16 16 16.002 16.002 0 0 1-16 16h-15.5V109H678V93.5a16.002 16.002 0 0 1 16-16 16.002 16.002 0 0 1 16 16V109h14c4.243 0 8.313 1.686 11.314 4.686 3 3.001 4.686 7.071 4.686 11.314H562.5V17.5Z"/>
        <path id="Vector_6" fill="#9D2235" d="M562.5 17.5a16.002 16.002 0 0 0-16 16v8H531a16.002 16.002 0 0 0-16 16 16.002 16.002 0 0 0 16 16h15.5V109H447V93.5a16.002 16.002 0 0 0-16-16 16.002 16.002 0 0 0-16 16V109h-14a16.004 16.004 0 0 0-11.314 4.686A16.004 16.004 0 0 0 385 125h177.5V17.5Z"/>
      </g>
    </g>
    <g id="b_2">
      <path id="Vector_7" fill="#fff" d="M0 250h187.5v250H375V375H0V250Z"/>
      <path id="Vector_8" fill="#9D2235" d="M187.5 250H375v125H0v125h187.5V250Z"/>
      <g id="Group_2">
        <path id="Vector_9" fill="#9D2235" d="M187.5 482.5c4.243 0 8.313-1.686 11.314-4.686 3-3.001 4.686-7.071 4.686-11.314v-8H219c4.243 0 8.313-1.686 11.314-4.686a16.004 16.004 0 0 0 0-22.628A16.004 16.004 0 0 0 219 426.5h-15.5V391H303v15.5c0 4.243 1.686 8.313 4.686 11.314a16.004 16.004 0 0 0 22.628 0c3-3.001 4.686-7.071 4.686-11.314V391h14c4.243 0 8.313-1.686 11.314-4.686 3-3.001 4.686-7.071 4.686-11.314H187.5v107.5Z"/>
        <path id="Vector_10" fill="#fff" d="M187.5 482.5a16.004 16.004 0 0 1-11.314-4.686A16.004 16.004 0 0 1 171.5 466.5v-8H156a16.004 16.004 0 0 1-11.314-4.686 16.004 16.004 0 0 1 0-22.628c3.001-3 7.071-4.686 11.314-4.686h15.5V391H72v15.5a16.002 16.002 0 0 1-16 16 16.002 16.002 0 0 1-16-16V391H26a16.002 16.002 0 0 1-16-16h177.5v107.5Z"/>
        <path id="Vector_11" fill="#fff" d="M187.5 267.5c4.243 0 8.313 1.686 11.314 4.686 3 3.001 4.686 7.071 4.686 11.314v8H219c4.243 0 8.313 1.686 11.314 4.686a16.004 16.004 0 0 1 0 22.628A16.004 16.004 0 0 1 219 323.5h-15.5V359H303v-15.5c0-4.243 1.686-8.313 4.686-11.314a16.004 16.004 0 0 1 22.628 0c3 3.001 4.686 7.071 4.686 11.314V359h14c4.243 0 8.313 1.686 11.314 4.686 3 3.001 4.686 7.071 4.686 11.314H187.5V267.5Z"/>
        <path id="Vector_12" fill="#9D2235" d="M187.5 267.5a16.004 16.004 0 0 0-11.314 4.686A16.004 16.004 0 0 0 171.5 283.5v8H156a16.004 16.004 0 0 0-11.314 4.686 16.004 16.004 0 0 0 0 22.628c3.001 3 7.071 4.686 11.314 4.686h15.5V359H72v-15.5a16.002 16.002 0 0 0-16-16 16.002 16.002 0 0 0-16 16V359H26a16.002 16.002 0 0 0-16 16h177.5V267.5Z"/>
      </g>
    </g>
  </g>
  <defs>
    <clipPath id="clip0_1030_2767">
      <path fill="#fff" d="M0 0h750v500H0z"/>
    </clipPath>
  </defs>
</svg>
