<svg width="1800" height="900" viewBox="0 0 1800 900" fill="none"
    xmlns="http://www.w3.org/2000/svg">
    <g clip-path="url(#clip0_2029_310)">
        <path id="3" d="M1200 0H1800V900H1200V0Z" fill="#EDEDF0"/>
        <path id="2" d="M600 0H1200V900H600V0Z" fill="#DDDDDD"/>
        <path id="1" d="M0 0H600V900H0V0Z" fill="#EDEDF0"/>
        <path d="M847.69 183.243C844.467 183.243 841.652 184.065 840.01 185.343C842.619 186.103 844.516 188.509 844.516 191.435V198.858H837.094C834.187 198.858 831.779 196.988 831.001 194.404C829.723 196.046 828.902 198.861 828.902 202.083C828.902 205.306 829.723 208.122 831.001 209.762C831.762 207.152 834.167 205.256 837.094 205.256H844.516V240.937C844.516 243.742 842.762 246.069 840.318 246.926C843.859 247.408 846.906 252.16 847.741 254.759C848.578 252.166 851.625 247.408 855.165 246.926C853.918 246.5 852.836 245.693 852.073 244.618C851.31 243.543 850.905 242.255 850.914 240.937V205.254H858.338C861.246 205.254 863.653 207.124 864.431 209.71C865.708 208.068 866.529 205.251 866.529 202.03C866.529 198.807 865.709 195.992 864.431 194.351C863.67 196.96 861.264 198.855 858.338 198.855H850.914V191.433C850.914 188.525 852.783 186.118 855.369 185.34C853.729 184.064 850.912 183.242 847.69 183.242V183.243Z" fill="black"/>
        <path d="M847.69 184.782C846.012 184.782 844.534 185.096 843.288 185.498C844.952 186.945 846.052 189.042 846.052 191.437V198.86C846.052 198.966 846.021 199.067 846 199.168V200.345H844.823C844.723 200.366 844.621 200.396 844.516 200.397H837.091C834.724 200.397 832.653 199.314 831.206 197.684C830.79 198.943 830.438 200.381 830.438 202.087C830.438 203.765 830.752 205.243 831.154 206.489C832.601 204.825 834.696 203.726 837.091 203.726H846.051C846.041 203.88 845.999 204.029 845.999 204.185V204.953C846.02 205.053 846.05 205.154 846.051 205.26V240.941C846.051 243.258 844.856 245.08 843.286 246.521C844.391 247.211 845.377 248.076 846.203 249.082C846.94 249.967 847.234 250.833 847.74 251.743C848.247 250.835 848.539 249.967 849.276 249.082C850.092 248.099 851.06 247.252 852.143 246.573C850.559 245.136 849.378 243.268 849.378 240.942V203.774H850.607C850.707 203.754 850.808 203.724 850.914 203.724H858.336C860.702 203.724 862.775 204.807 864.223 206.436C864.638 205.178 864.992 203.741 864.992 202.034C864.992 200.357 864.677 198.878 864.275 197.632C862.828 199.296 860.731 200.395 858.336 200.395H850.914C850.809 200.395 850.707 200.364 850.607 200.343H849.429V199.166C849.408 199.067 849.378 198.965 849.377 198.858V191.436C849.377 189.069 850.461 186.998 852.09 185.549C850.831 185.135 849.393 184.781 847.688 184.781" fill="#F5D402"/>
        <path d="M940.61 313.987C936.075 310.766 932.352 307.125 929.706 302.877C923.334 292.654 920.645 280.104 920.645 267.35C920.645 261.959 926.685 255.89 926.685 251.53C926.685 244.94 926.071 240.986 926.071 240.986C928.214 241.278 931.958 245.081 931.958 245.081C931.958 245.081 931.829 234.143 928.373 232.232C928.373 232.232 929.771 230.794 934.824 230.645C933.404 227.049 926.378 222.659 926.378 222.659C926.729 222.03 927.378 221.486 928.22 221.021C929.985 220.045 932.465 219.401 934.362 219.024C932.34 218.605 930.01 217.963 927.452 217.129C921.61 215.226 914.733 212.432 908.306 209.349C896.574 203.721 887.637 203.359 882.71 203.359C879.135 203.36 873.87 203.458 870.783 205.511C867.958 207.386 868.188 209.825 867.199 210.681C864.869 212.697 860.878 212.626 858.956 212.626C846.516 212.626 846.055 225.937 846.055 225.937C846.055 225.937 849.236 221.124 854.86 221.124C864.211 221.124 871.293 226.218 871.293 228.137C871.293 228.914 870.329 229.058 870.27 229.058C864.162 229.058 854.944 225.542 850.047 225.372V227.778C860.978 231.581 872.06 236.965 872.06 260.695C872.06 275.638 870.271 290.885 862.795 302.878C860.147 307.125 856.377 310.759 851.84 313.988L896.225 321.988L940.61 313.987Z" fill="black"/>
        <path d="M896.222 303.985L851.839 313.985C849.82 313.375 840.326 310.425 833.665 306.716C821.939 300.184 815.859 293.686 801.925 293.047V282.449C801.925 276.787 803.974 271.686 803.974 266.272C798.1 264.697 781.796 244.762 766.756 235.914C744.626 250.248 727.491 273.779 727.491 284.6C727.491 284.6 728.156 517.11 727.491 598.11C727.491 602.778 724.676 609.373 724.676 609.373C732.755 605.955 747.564 585.693 750.682 577.991V581.678C762.883 576.114 771.817 561.494 775.818 553.931C775.889 555.025 776.075 557.77 776.075 557.77C786.975 548.215 800.851 491.732 800.851 491.732L823.975 514.457C823.975 514.457 815.612 531.433 812.354 534.472C812.354 534.472 814.538 534.749 817.012 534.728C815.49 536.916 803.865 553.653 800.221 559.966C796.811 565.872 794.405 563.243 789.163 563.243C784.816 563.243 774.963 570.168 773.345 572.97C771.644 575.915 770.377 579.493 770.377 582.441C770.377 585.681 773.807 590.121 773.807 590.121C774.176 588.569 774.83 588.021 774.83 588.021C774.83 588.021 783.843 599.249 785.171 600.716C786.205 601.859 790.816 602.602 792.441 601.127C796.507 597.43 800.443 594.845 804.062 589.507C805.925 586.755 806.067 583.602 808.208 580.648C815.37 570.768 829.623 551.849 832.883 547.528C833.101 548.731 833.288 549.733 833.495 550.958C837.189 543.5 854.946 529.251 854.946 529.251L873.524 537.801C873.524 537.801 838.837 617.536 808.048 629.796C808.048 629.796 821.443 635.487 837.893 644.028C840.362 645.319 842.82 646.634 845.265 647.971C847.466 645.312 849.6 642.598 851.664 639.831C861.5 626.671 871.119 611.418 871.119 611.418C871.789 615.379 866.595 627.612 857.809 642.699C856.081 645.663 854.279 648.763 852.28 651.912C854.513 653.184 856.731 654.481 858.935 655.804C875.23 665.609 890.533 676.881 896.202 687.236L900.202 677.227L896.202 667.218V317.261L898.202 312.261L896.222 303.985Z" fill="black"/>
        <path d="M896.203 667.222C890.454 660.986 878.434 653.367 864.925 646.336C881.259 617.02 889.353 570.681 885.555 561.456C885.555 561.456 878.85 585.489 870.657 599.185C863.071 611.869 853.732 626.135 844.703 636.711C837.275 633.542 830.072 630.883 823.918 629.031C850.976 608.188 878.644 539.289 878.644 539.289L850.032 526.029C850.032 526.029 839.328 538.508 835.852 540.825C835.852 540.825 834.367 534.619 833.497 532.429C833.497 532.429 829.396 535.531 827.151 535.605C827.151 535.605 826.48 531.393 825.973 528.641C823.148 530.524 818.448 530.126 818.448 530.126C822.575 528.172 827.458 516.201 827.458 516.201L800.136 479.858C800.136 479.858 790.539 525.974 779.608 535.454V336.874L788.26 344.91L801.365 332.675V323.358L789.744 334.21V306.105C791.086 304.089 792.349 302.023 793.532 299.911C795.413 303.19 801.492 313.24 808.633 319.416C809.808 314.638 817.541 310.098 817.541 310.098C817.541 310.098 820.312 317.606 824.553 319.466C826.045 316.838 834.947 311.02 834.947 311.02C834.947 311.02 827.331 312.177 824.247 315.065C821.598 314.472 820.919 304.007 820.919 304.007C820.919 304.007 809.712 309.466 807.763 313.375C805.626 312.797 802.299 304.387 801.004 300.935C803.775 300.626 806.561 300.472 809.349 300.475C812.545 300.475 816.634 301.989 820.918 304.007C825.625 306.223 830.549 309.029 834.946 311.021C840.578 313.571 849.099 314.089 851.583 314.195C848.738 316.195 845.61 318.021 842.216 319.724C842.216 319.724 855.627 319.6 865.048 314.911C868.409 312.749 871.897 310.595 874.877 308.051C873.584 311.644 871.571 315.89 868.425 319.518C882.261 318.347 889.151 310.446 891.104 307.795C892.022 310.17 893.657 313.982 896.223 317.265H901.223V657.265L896.203 667.222ZM794.248 267.299L794.503 273.647V292.334C789.484 290.607 783.177 282.361 780.119 278V275.44C780.119 273.032 781.536 271.273 782.576 270.321L779.556 269.247C778.404 270.56 777.15 272.51 777.15 275.031V276.516L768.141 286.192L759.285 272.779V269.503C759.285 267.295 760.983 264.833 762.408 263.155L759.438 262.08C757.939 264.022 756.366 266.639 756.366 269.093V271.754C754.283 273.91 746.179 282.25 746.179 282.25L741.009 271.141C747.214 262.546 757.275 252.922 766.758 246.016C766.758 246.016 787.322 264.897 794.248 267.299ZM742.128 285.422V300.833L734.961 307.487V284.604C734.961 282.413 735.879 279.773 737.417 276.873L742.128 285.422Z" fill="#B07F55"/>
        <path d="M764.446 291.361V300.883L756.205 308.614V278.82L764.446 291.361ZM753.285 308.563L745.042 300.884V289.725L753.285 281.073V308.563ZM790.912 296.993C788.998 299.698 783.985 306.314 778.575 309.229V283.069C779.816 285.133 785.509 294.343 790.912 296.993ZM775.655 284.399V308.562L767.412 300.883V292.334L775.655 284.399ZM742.125 310.149V334.262L734.958 327.555V316.855L742.125 310.149ZM753.279 317.88V326.531L745.035 334.209V310.2L753.279 317.88ZM764.437 310.202V334.212L756.196 326.481V317.932L764.437 310.202ZM775.65 317.932V326.481L767.407 334.211V310.201L775.65 317.932ZM786.809 334.262L778.565 326.531V318.495C781.408 316.76 784.267 313.571 786.808 310.202L786.809 334.262ZM765.924 344.91L774.627 336.821V535.451C774.627 535.451 775.234 545.307 775.651 551.73L757.222 570.364V336.768L765.924 344.91ZM752.252 562.942C752.252 569.327 740.593 584.215 734.949 587.617V336.877L743.549 344.913L752.252 336.823V562.942Z" fill="#B07F55"/>
        <path d="M824.536 541.382L830.884 537.03C830.884 537.03 831.307 539.13 831.856 541.997C829.138 545.713 813.525 567.021 805.799 577.422C803.878 580.006 802.265 586.585 802.265 586.585C802.265 586.585 799.451 585.254 799.451 582.849C799.451 580.487 799.759 577.678 799.759 577.678C799.759 577.678 797.658 580.084 794.024 580.084C794.024 577.181 799.638 574.032 799.86 569.898C795.579 573.072 791.861 571.443 786.909 572.97C781.516 574.631 780.014 576.897 778.36 576.81C777.386 576.757 776.504 575.077 776.876 574.045C777.52 572.258 784.19 567.312 788.853 566.418C789.97 566.204 798.756 568.33 800.526 565.599C807.818 554.347 819.656 536.081 820.798 534.321C821.55 534.141 822.242 533.95 822.793 533.602C822.793 533.602 822.726 539.353 824.536 541.382Z" fill="#D10429"/>
        <path d="M783.723 576.444C784.076 576.852 784.045 577.45 783.67 577.774L780.804 580.282C780.429 580.606 779.827 580.537 779.474 580.128C779.12 579.72 779.15 579.122 779.526 578.797L782.392 576.289C782.482 576.21 782.588 576.151 782.703 576.116C782.817 576.08 782.938 576.07 783.057 576.085C783.295 576.112 783.545 576.239 783.723 576.444ZM788.074 579.464C788.931 580.452 788.876 581.852 787.971 582.639L781.009 588.73C780.103 589.518 778.642 589.36 777.783 588.373C776.926 587.385 776.98 585.934 777.886 585.148L784.848 579.107C785.195 578.813 785.624 578.634 786.077 578.594C786.789 578.536 787.537 578.848 788.074 579.464ZM792.064 584.174C792.921 585.162 792.867 586.561 791.961 587.348L784.949 593.44C784.043 594.227 782.633 594.07 781.774 593.082C780.916 592.095 780.971 590.644 781.878 589.858L788.839 583.817C789.167 583.525 789.58 583.345 790.017 583.304C790.728 583.246 791.527 583.556 792.064 584.174ZM794.467 587.911C794.841 587.879 795.217 587.937 795.564 588.08C795.911 588.222 796.22 588.445 796.464 588.73C797.322 589.718 797.267 591.169 796.362 591.955L789.399 597.997C788.493 598.784 787.083 598.626 786.225 597.638C785.367 596.65 785.371 595.25 786.276 594.463L793.29 588.372C793.628 588.076 794.039 587.945 794.467 587.911Z" fill="#D10429"/>
        <path d="M896.181 303.985L940.564 313.985C942.583 313.375 952.077 310.425 958.738 306.716C970.464 300.184 976.544 293.686 990.478 293.047V282.449C990.478 276.787 988.429 271.686 988.429 266.272C994.303 264.697 1010.61 244.762 1025.65 235.914C1047.78 250.248 1064.91 273.779 1064.91 284.6C1064.91 284.6 1064.25 517.11 1064.91 598.11C1064.91 602.778 1067.73 609.373 1067.73 609.373C1059.65 605.955 1044.84 585.693 1041.72 577.991V581.678C1029.52 576.114 1020.59 561.494 1016.58 553.931C1016.51 555.025 1016.33 557.77 1016.33 557.77C1005.43 548.215 991.552 491.732 991.552 491.732L968.428 514.457C968.428 514.457 976.791 531.433 980.049 534.472C980.049 534.472 977.865 534.749 975.391 534.728C976.913 536.916 988.538 553.653 992.182 559.966C995.592 565.872 997.998 563.243 1003.24 563.243C1007.59 563.243 1017.44 570.168 1019.06 572.97C1020.76 575.915 1022.03 579.493 1022.03 582.441C1022.03 585.681 1018.6 590.121 1018.6 590.121C1018.23 588.569 1017.57 588.021 1017.57 588.021C1017.57 588.021 1008.56 599.249 1007.23 600.716C1006.2 601.859 1001.59 602.602 999.962 601.127C995.896 597.43 991.96 594.845 988.341 589.507C986.478 586.755 986.336 583.602 984.195 580.648C977.033 570.768 962.78 551.849 959.52 547.528C959.302 548.731 959.115 549.733 958.908 550.958C955.214 543.5 937.457 529.251 937.457 529.251L918.879 537.801C918.879 537.801 953.566 617.536 984.355 629.796C984.355 629.796 970.96 635.487 954.51 644.028C952.04 645.319 949.583 646.634 947.138 647.971C944.936 645.312 942.802 642.598 940.739 639.831C930.903 626.671 921.284 611.418 921.284 611.418C920.614 615.379 925.808 627.612 934.594 642.699C936.322 645.663 938.124 648.763 940.123 651.912C937.889 653.184 935.671 654.481 933.468 655.804C917.173 665.609 901.87 676.881 896.201 687.236L892.201 677.227L896.201 667.218V317.261L894.201 312.261L896.181 303.985Z" fill="black"/>
        <path d="M896.199 667.222C901.948 660.986 913.968 653.367 927.477 646.336C911.143 617.02 903.049 570.681 906.847 561.456C906.847 561.456 913.552 585.489 921.745 599.185C929.331 611.869 938.67 626.135 947.699 636.711C955.127 633.542 962.33 630.883 968.484 629.031C941.426 608.188 913.758 539.289 913.758 539.289L942.37 526.029C942.37 526.029 953.074 538.508 956.55 540.825C956.55 540.825 958.035 534.619 958.905 532.429C958.905 532.429 963.006 535.531 965.251 535.605C965.251 535.605 965.922 531.393 966.429 528.641C969.254 530.524 973.954 530.126 973.954 530.126C969.827 528.172 964.944 516.201 964.944 516.201L992.266 479.858C992.266 479.858 1001.86 525.974 1012.79 535.454V336.874L1004.14 344.91L991.037 332.675V323.358L1002.66 334.21V306.105C1001.32 304.089 1000.05 302.023 998.87 299.911C996.989 303.19 990.91 313.24 983.769 319.416C982.594 314.638 974.861 310.098 974.861 310.098C974.861 310.098 972.09 317.606 967.849 319.466C966.357 316.838 957.455 311.02 957.455 311.02C957.455 311.02 965.071 312.177 968.155 315.065C970.804 314.472 971.483 304.007 971.483 304.007C971.483 304.007 982.69 309.466 984.639 313.375C986.776 312.797 990.103 304.387 991.398 300.935C988.628 300.626 985.841 300.472 983.053 300.475C979.857 300.475 975.768 301.989 971.484 304.007C966.777 306.223 961.853 309.029 957.456 311.021C951.824 313.571 943.303 314.089 940.819 314.195C943.664 316.195 946.792 318.021 950.186 319.724C950.186 319.724 936.775 319.6 927.354 314.911C923.993 312.749 920.505 310.595 917.525 308.051C918.818 311.644 920.831 315.89 923.977 319.518C910.141 318.347 903.251 310.446 901.298 307.795C900.38 310.17 898.745 313.982 896.179 317.265H891.179V657.265L896.199 667.222ZM998.154 267.299L997.899 273.647V292.334C1002.92 290.607 1009.23 282.361 1012.28 278V275.44C1012.28 273.032 1010.87 271.273 1009.83 270.321L1012.85 269.247C1014 270.56 1015.25 272.51 1015.25 275.031V276.516L1024.26 286.192L1033.12 272.779V269.503C1033.12 267.295 1031.42 264.833 1029.99 263.155L1032.96 262.08C1034.46 264.022 1036.04 266.639 1036.04 269.093V271.754C1038.12 273.91 1046.22 282.25 1046.22 282.25L1051.39 271.141C1045.19 262.546 1035.13 252.922 1025.64 246.016C1025.64 246.016 1005.08 264.897 998.154 267.299ZM1050.27 285.422V300.833L1057.44 307.487V284.604C1057.44 282.413 1056.52 279.773 1054.99 276.873L1050.27 285.422Z" fill="#B07F55"/>
        <path d="M1027.96 291.361V300.883L1036.2 308.614V278.82L1027.96 291.361ZM1039.12 308.563L1047.36 300.884V289.725L1039.12 281.073V308.563ZM1001.49 296.993C1003.4 299.698 1008.42 306.314 1013.83 309.229V283.069C1012.59 285.133 1006.89 294.343 1001.49 296.993ZM1016.75 284.399V308.562L1024.99 300.883V292.334L1016.75 284.399ZM1050.28 310.149V334.262L1057.44 327.555V316.855L1050.28 310.149ZM1039.12 317.88V326.531L1047.37 334.209V310.2L1039.12 317.88ZM1027.97 310.202V334.212L1036.21 326.481V317.932L1027.97 310.202ZM1016.75 317.932V326.481L1025 334.211V310.201L1016.75 317.932ZM1005.59 334.262L1013.84 326.531V318.495C1010.99 316.76 1008.14 313.571 1005.59 310.202L1005.59 334.262ZM1026.48 344.91L1017.78 336.821V535.451C1017.78 535.451 1017.17 545.307 1016.75 551.73L1035.18 570.364V336.768L1026.48 344.91ZM1040.15 562.942C1040.15 569.327 1051.81 584.215 1057.45 587.617V336.877L1048.85 344.913L1040.15 336.823V562.942Z" fill="#B07F55"/>
        <path d="M967.866 541.382L961.518 537.03C961.518 537.03 961.095 539.13 960.546 541.997C963.264 545.713 978.877 567.021 986.603 577.422C988.524 580.006 990.137 586.585 990.137 586.585C990.137 586.585 992.951 585.254 992.951 582.849C992.951 580.487 992.643 577.678 992.643 577.678C992.643 577.678 994.744 580.084 998.378 580.084C998.378 577.181 992.764 574.032 992.542 569.898C996.823 573.072 1000.54 571.443 1005.49 572.97C1010.89 574.631 1012.39 576.897 1014.04 576.81C1015.02 576.757 1015.9 575.077 1015.53 574.045C1014.88 572.258 1008.21 567.312 1003.55 566.418C1002.43 566.204 993.646 568.33 991.876 565.599C984.584 554.347 972.746 536.081 971.604 534.321C970.852 534.141 970.16 533.95 969.609 533.602C969.609 533.602 969.676 539.353 967.866 541.382Z" fill="#D10429"/>
        <path d="M1008.68 576.444C1008.33 576.852 1008.36 577.45 1008.73 577.774L1011.6 580.282C1011.97 580.606 1012.58 580.537 1012.93 580.128C1013.28 579.72 1013.25 579.122 1012.88 578.797L1010.01 576.289C1009.92 576.21 1009.81 576.151 1009.7 576.116C1009.59 576.08 1009.46 576.07 1009.35 576.085C1009.11 576.112 1008.86 576.239 1008.68 576.444ZM1004.33 579.464C1003.47 580.452 1003.53 581.852 1004.43 582.639L1011.39 588.73C1012.3 589.518 1013.76 589.36 1014.62 588.373C1015.48 587.385 1015.42 585.934 1014.52 585.148L1007.55 579.107C1007.21 578.813 1006.78 578.634 1006.33 578.594C1005.61 578.536 1004.87 578.848 1004.33 579.464ZM1000.34 584.174C999.482 585.162 999.536 586.561 1000.44 587.348L1007.45 593.44C1008.36 594.227 1009.77 594.07 1010.63 593.082C1011.49 592.095 1011.43 590.644 1010.52 589.858L1003.56 583.817C1003.24 583.525 1002.82 583.345 1002.39 583.304C1001.67 583.246 1000.88 583.556 1000.34 584.174ZM997.936 587.911C997.562 587.879 997.186 587.937 996.838 588.08C996.491 588.222 996.183 588.445 995.939 588.73C995.081 589.718 995.136 591.169 996.041 591.955L1003 597.997C1003.91 598.784 1005.32 598.626 1006.18 597.638C1007.04 596.65 1007.03 595.25 1006.13 594.463L999.113 588.372C998.775 588.076 998.364 587.945 997.936 587.911Z" fill="#D10429"/>
        <path d="M885.932 206.633C897.39 206.633 905.449 211.857 916.291 216.666C919.132 217.926 921.741 218.947 924.07 219.737C922.611 221.03 921.476 222.329 921.152 223.424C921.152 223.424 926.011 224.324 928.216 228.391C928.216 228.391 923.596 228.915 922.841 231.615C925.429 231.81 928 235.072 928.012 238.22L921.459 236.171C921.459 236.171 923.046 243.529 923.046 251.529C923.046 255.615 917.16 260.423 917.16 267.348C917.16 289.082 922.635 297.436 926.529 304.155C928.052 306.784 929.29 309.809 931.853 312.09C920.635 306.117 912.297 298.651 912.297 291.716V265.454H909.379V291.716C909.379 296.745 910.607 299.088 910.607 299.088C912.368 304.652 915.928 313.24 918.133 316.698C907.812 311.12 902.569 304.135 902.569 301.545V265.453H899.651V302.056L900.214 304.564C898.963 306.444 897.337 308.67 896.221 309.427C895.108 308.671 893.531 306.441 892.278 304.564L892.842 302.056V265.453H889.924V301.545C889.924 304.134 884.681 311.12 874.361 316.698C876.566 313.239 880.125 304.652 881.885 299.088C881.885 299.088 883.114 296.746 883.114 291.716V265.454H880.196V291.716C880.196 298.643 871.889 306.121 860.691 312.09C863.228 309.807 864.448 306.769 865.963 304.155C870.221 296.807 875.485 287.472 875.485 260.897C875.485 250.923 874.01 244.142 871.441 239.396C870.66 237.83 869.608 233.662 875.587 233.662C878.684 233.662 885.775 239.14 885.775 239.14C885.775 239.14 885.483 234.769 881.884 232.28C881.287 231.867 880.298 230.568 880.298 229.361C880.298 228.457 881.849 226.226 883.061 225.675C883.894 225.297 870.878 223.029 870.878 217.126C870.878 215.897 871.651 215.078 874.357 215.078C877.902 215.078 883.669 219.327 888.795 219.327C892.584 219.327 894.078 218.405 897.958 218.405C902.7 218.405 912.593 227.384 915.977 227.056C912.194 224.681 906.083 215.691 896.832 215.691C893.621 215.691 890.715 216.408 887.718 216.408C883.877 216.408 880.095 212.875 875.944 212.875C873.162 212.875 870.055 213.03 869.595 212.311C868.79 211.056 869.515 210.328 870.261 209.291C871.67 207.334 875.627 206.766 879.528 206.63C880.672 206.588 881.817 206.572 882.961 206.58C884.051 206.591 885.06 206.633 885.932 206.633Z" fill="#B07F55"/>
        <path d="M848.729 220.688C848.729 220.688 851.148 216.107 857.263 216.107C859.819 216.107 868.255 215.93 868.255 215.93C869.379 218.851 874.504 223.732 874.504 228.808C874.504 228.808 869.302 219.431 854.781 219.431C851.132 219.431 848.727 220.687 848.727 220.687L848.729 220.688Z" fill="#CC092F"/>
        <path d="M872.34 230.602C872.34 230.602 869.247 233.859 868.575 235.598C865.514 234.438 860.176 228.938 860.176 228.938C860.176 228.938 864.701 231.58 872.339 230.602H872.34Z" fill="#D10429"/>
        <path d="M867.439 221.97C867.439 221.97 863.871 220.826 863.871 219.628C863.871 218.102 865.604 218.102 866.64 219.291C867.353 220.11 867.438 221.971 867.438 221.971L867.439 221.97Z" fill="black"/>
        <path d="M882.799 226.102C885.623 226.102 887.911 224.292 887.911 222.059C887.911 219.826 885.623 218.016 882.799 218.016C879.976 218.016 877.688 219.826 877.688 222.059C877.688 224.292 879.976 226.102 882.799 226.102Z" fill="black"/>
        <path d="M882.798 225.62C884.764 225.62 886.358 224.026 886.358 222.06C886.358 220.094 884.764 218.5 882.798 218.5C880.832 218.5 879.238 220.094 879.238 222.06C879.238 224.026 880.832 225.62 882.798 225.62Z" fill="#F5D402"/>
        <path d="M882.8 223.569C883.635 223.569 884.311 222.892 884.311 222.058C884.311 221.223 883.635 220.547 882.8 220.547C881.966 220.547 881.289 221.223 881.289 222.058C881.289 222.892 881.966 223.569 882.8 223.569Z" fill="black"/>
        <path d="M801.375 591.953L817.576 600.791L813.646 618.82L797.445 609.98L801.375 591.953Z" fill="black"/>
        <path d="M725.898 418.734L720.062 421.397L785.998 565.817H793.012L725.898 418.734ZM803.66 589.054L798.9 593.969L801.869 600.522L807.654 597.86L803.66 589.054Z" fill="black"/>
        <path d="M746.39 532.603C746.39 532.603 751.944 544.075 756.165 545.648C753.982 545.053 746.894 547.654 746.894 547.654C746.894 547.654 759.393 558.819 769.994 559.552C778.984 560.171 783.349 555.684 783.349 555.684L781.548 546.16C781.548 546.16 776.048 539.518 767.246 536.453C758.352 533.355 746.389 532.605 746.389 532.605L746.39 532.603ZM788.26 512.053C788.26 512.053 780.591 518.618 778.492 526.222C776.392 533.827 779.86 542.469 779.86 542.469L786.304 554.49C786.304 554.49 795.235 549.737 799.034 542.63C802.833 535.522 801.44 525.932 801.44 525.932C801.44 525.932 794.365 528.566 793.465 529.732C794.958 521.848 788.259 512.053 788.259 512.053H788.26ZM763.61 508.983C763.61 508.983 754.888 511.931 746.418 511.421C738.35 510.934 731.641 504.159 731.641 504.159C731.641 504.159 738.329 499.633 741.63 500.236C737.999 498.909 732.734 489.813 732.734 489.813C732.734 489.813 740.216 487.552 746.85 490.053C753.484 492.556 759.269 499.823 759.269 499.823L763.611 508.983H763.61ZM766.61 466.383C766.61 466.383 770.972 475.415 769.938 478.554C771.291 476.464 776.412 473.209 776.412 473.209C776.412 473.209 779.508 487.833 776.547 496.865C773.587 505.896 764.573 509.335 764.573 509.335L754.63 489.998C754.63 489.998 753.15 482.834 756.25 477.161C759.351 471.488 766.61 466.382 766.61 466.382V466.383ZM709.86 442.473C709.86 442.473 719.287 441.483 727.911 445.056C735.121 448.049 737.331 453.489 737.331 453.489L740.882 463.009C740.882 463.009 730.621 466.857 722.514 463.915C714.406 460.97 708.449 451.235 708.449 451.235C708.449 451.235 714.115 449.086 716.272 449.892C713.13 448.502 709.862 442.473 709.862 442.473V442.474L709.86 442.473ZM739.51 424.803C739.51 424.803 743.647 430.116 743.771 436.227C744.874 432.978 750.039 429.387 750.039 429.387C750.039 429.387 755.351 442.242 754.185 451.369C753.019 460.497 745.376 465.896 745.376 465.896L735.845 447.804C735.845 447.804 732.739 440.389 733.654 434.637C734.57 428.887 739.51 424.801 739.51 424.801V424.803ZM706.86 390.203C706.86 390.203 705.151 400.057 708.059 405.733C710.657 410.798 712.311 411.909 712.311 411.909C707.357 408.64 699.867 408.358 699.867 408.358C699.867 408.358 702.533 419.079 708.904 423.97C715.275 428.861 725.099 427.718 725.099 427.718C725.099 427.718 731.559 419.118 731.109 409.853C730.66 400.588 723.301 390.656 723.301 390.656C723.301 390.656 720.399 396.676 720.143 401.17C718.265 396.537 706.858 390.204 706.858 390.204L706.86 390.203ZM783.86 555.273L784.125 558.81C790 558.865 790.875 558.28 792.381 560.132C793.384 561.366 795.77 562.443 798.168 561.347C800.568 560.252 801.643 557.37 800.548 554.971C799.453 552.572 797.222 552.051 795.073 552.475C793.754 552.735 792.886 553.788 791.767 554.366C789.639 555.468 783.858 555.274 783.858 555.274L783.86 555.273Z" fill="black"/>
        <path d="M783.351 552.572L786.21 554.667C783.143 559.681 782.186 560.113 782.959 562.372C783.474 563.876 783.125 566.469 780.924 567.925C778.724 569.38 775.71 568.766 774.255 566.567C772.801 564.367 773.54 562.201 775.038 560.602C775.958 559.62 777.308 559.442 778.391 558.799C780.453 557.576 783.35 552.571 783.35 552.571L783.351 552.572ZM763.451 510.572L763.715 514.109C769.591 514.163 770.465 513.579 771.971 515.43C772.973 516.663 775.36 517.741 777.758 516.645C780.159 515.55 781.234 512.669 780.137 510.27C779.042 507.87 776.812 507.35 774.663 507.774C773.343 508.035 772.476 509.087 771.358 509.665C769.229 510.766 763.449 510.573 763.449 510.573L763.451 510.572Z" fill="black"/>
        <path d="M764.639 511.822L767.139 514.339C763.33 518.813 762.315 519.092 762.728 521.443C763.004 523.01 762.255 525.518 759.854 526.613C757.455 527.708 754.575 526.634 753.478 524.234C752.383 521.835 753.45 519.809 755.179 518.463C756.24 517.638 757.604 517.67 758.772 517.205C760.999 516.318 764.639 511.823 764.639 511.823V511.822ZM743.669 468.722L743.934 472.259C749.81 472.313 750.684 471.729 752.191 473.582C753.194 474.813 755.579 475.891 757.979 474.795C760.377 473.7 761.453 470.82 760.358 468.418C759.261 466.019 757.032 465.499 754.882 465.923C753.562 466.184 752.695 467.236 751.576 467.814C749.448 468.916 743.668 468.721 743.668 468.721L743.669 468.722Z" fill="black"/>
        <path d="M745.3 467.982L747.799 470.498C743.99 474.973 742.977 475.252 743.388 477.603C743.664 479.169 742.915 481.677 740.515 482.772C738.116 483.866 735.235 482.792 734.139 480.393C733.045 477.993 734.112 475.967 735.84 474.622C736.901 473.795 738.264 473.829 739.434 473.362C741.661 472.475 745.3 467.982 745.3 467.982ZM722.6 424.542L722.864 428.078C728.74 428.133 729.615 427.548 731.12 429.399C732.124 430.633 734.51 431.71 736.908 430.616C739.308 429.519 740.383 426.639 739.288 424.239C738.193 421.839 735.962 421.318 733.812 421.743C732.494 422.004 731.626 423.057 730.507 423.634C728.379 424.735 722.598 424.542 722.598 424.542H722.6Z" fill="black"/>
        <path d="M724.23 423.805L726.728 426.322C722.92 430.797 721.905 431.075 722.318 433.427C722.594 434.993 721.844 437.501 719.445 438.596C717.045 439.691 714.165 438.617 713.07 436.217C711.974 433.818 713.042 431.79 714.769 430.446C715.831 429.621 717.194 429.653 718.363 429.186C720.589 428.3 724.229 423.806 724.229 423.806L724.23 423.805Z" fill="black"/>
        <path d="M803.712 597.068L813.76 602.55L811.322 613.733L801.273 608.251L803.712 597.068ZM759.722 500.096C757.616 500.97 754.492 491.801 752.198 486.778C749.845 481.623 745.067 473.678 746.424 473.058C747.913 472.378 749.875 476.55 752.283 481.825C754.691 487.098 761.695 499.274 759.722 500.094V500.096ZM738.092 451.806C735.987 452.683 733.682 446.679 731.389 441.655C729.036 436.501 726.744 432.86 728.101 432.24C729.591 431.56 731.791 436.077 733.717 440.295C735.583 444.383 740.065 450.985 738.091 451.807L738.092 451.806ZM788.132 561.296C786.479 561.738 779.263 546.634 773.429 533.854C767.596 521.075 763.252 510.735 764.609 510.118C766.099 509.437 770.822 521.509 776.658 534.29C782.493 547.071 789.37 560.963 788.132 561.296Z" fill="#F5D402"/>
        <path d="M709.761 396.195C709.761 396.195 709.506 403.396 711.888 407.48C714.271 411.566 719.592 413.195 719.592 413.195C719.592 413.195 719.846 405.996 717.464 401.912C715.081 397.826 709.761 396.195 709.761 396.195ZM704.781 412.485C704.781 412.485 711.036 412.853 714.649 415.621C718.259 418.389 719.658 424.156 719.658 424.156C719.658 424.156 715.512 424.577 711.902 421.809C708.291 419.04 704.781 412.485 704.781 412.485ZM724.411 397.945C724.411 397.945 722.331 402.715 722.571 407.857C722.81 413 725.811 418.794 725.811 418.794C725.811 418.794 728.524 412.62 728.285 407.476C728.047 402.333 725.138 399.401 724.411 397.945ZM713.881 444.305C713.881 444.305 716.952 448.593 721.68 450.931C726.408 453.268 733.453 453.355 733.453 453.355C733.453 453.355 729.937 448.793 725.208 446.455C720.48 444.118 713.881 444.303 713.881 444.303V444.305ZM715.401 454.265C715.401 454.265 717.658 458.686 721.785 460.581C725.914 462.477 734.359 462.321 734.359 462.321C734.359 462.321 731.119 458.19 726.991 456.294C722.863 454.397 715.4 454.265 715.4 454.265H715.401ZM739.171 430.685C739.171 430.685 736.676 434.808 736.92 439.351C737.165 443.896 740.147 448.862 740.147 448.862C740.147 448.862 742.244 443.169 741.999 438.625C741.755 434.08 739.171 430.685 739.171 430.685ZM748.361 436.515C748.361 436.515 744.092 442.245 743.479 448.136C742.866 454.026 745.907 460.078 745.907 460.078C745.907 460.078 751.064 454.9 751.677 449.01C752.29 443.118 748.361 436.517 748.361 436.517V436.515ZM736.591 490.915C736.591 490.915 737.104 493.033 738.888 495.282C740.671 497.533 743.724 499.914 743.724 499.914C743.724 499.914 746.673 498.966 750.339 499.759C754.004 500.554 758.879 503.819 758.879 503.819C758.879 503.819 753.632 495.988 748.184 492.943C742.736 489.9 736.593 490.914 736.593 490.914L736.591 490.915ZM736.051 504.375C736.051 504.375 742.844 501.473 748.438 502.222C754.033 502.971 759.077 507.393 759.077 507.393C759.077 507.393 751.516 510.009 745.922 509.261C740.326 508.512 736.051 504.375 736.051 504.375ZM764.761 472.795C764.761 472.795 758.754 479.159 758.25 484.682C757.747 490.204 763.121 495.351 763.121 495.351C763.121 495.351 762.857 491.809 763.782 489.477C764.708 487.145 766.675 484.655 766.675 484.655C766.675 484.655 767.513 481.812 767.189 479.532C766.736 476.346 764.761 472.795 764.761 472.795ZM773.381 480.165C773.381 480.165 767.719 485.894 766.223 492.029C764.726 498.164 767.393 504.705 767.393 504.705C767.393 504.705 772.542 500.643 774.039 494.509C775.536 488.374 773.381 480.165 773.381 480.165ZM787.561 517.145C787.561 517.145 790.126 522.5 790.776 526.978C791.428 531.455 790.824 533.005 790.824 533.005C790.824 533.005 788.172 535.612 786.983 537.145C785.455 539.115 785.231 542.721 785.231 542.721C785.231 542.721 779.906 534.805 780.727 529.018C781.547 523.232 787.561 517.144 787.561 517.144V517.145ZM798.781 529.535C798.781 529.535 791.963 534.038 789.258 538.658C786.55 543.275 787.954 548.007 787.954 548.007C787.954 548.007 792.812 547.579 795.52 542.961C798.226 538.343 798.78 529.534 798.78 529.534L798.781 529.535ZM753.981 548.555C753.981 548.555 763.807 548.287 769.813 549.764C775.819 551.239 778.005 554.459 778.005 554.459C778.005 554.459 771.252 557.621 765.246 556.145C759.24 554.67 753.98 548.554 753.98 548.554L753.981 548.555ZM752.321 536.895C752.321 536.895 756.754 543.768 762.485 546.262C770.383 549.697 779.528 548.032 779.528 548.032C779.528 548.032 774.56 541.943 767.724 539.255C760.886 536.568 752.321 536.895 752.321 536.895Z" fill="#097754"/>
        <path d="M1088.74 401.95L1090.02 404.662C1090.02 404.662 1087.94 405.376 1087 407.221C1086.06 409.068 1087.61 411.676 1087.61 411.676C1087.61 411.676 1076.81 410.733 1075.12 411.83C1073.6 412.82 1075.77 420.304 1074.76 426.625C1073.36 435.435 1069.89 434.695 1069.75 436.402C1069.61 438.061 1071.08 440.651 1071.08 440.651C1071.08 440.651 1069.05 441.289 1068.62 442.136C1067.93 443.498 1069.1 446.011 1068.26 447.664C1063.56 456.887 1056.62 470.5 1052.03 479.507C1051.39 480.764 1049.67 481.244 1048.81 482.937C1048.01 484.499 1048.66 486.776 1048.66 486.776C1048.66 486.776 1045.61 486.958 1044.56 489.029C1043.44 491.229 1044.1 494.199 1044.1 494.199C1044.1 494.199 1042.17 494.445 1041.23 496.298C1040.22 498.279 1041.93 499.318 1041.49 500.189C1035.32 512.291 1028.06 526.557 1023.62 535.257C1021.99 538.456 1016.28 539.097 1012.97 545.598C1009.76 551.904 1014.35 556.553 1014.35 556.553C1014.35 556.553 1009.58 556.985 1008.31 559.472C1007.02 562.007 1008.04 565.856 1011.49 567.611C1014.93 569.365 1018.69 567.945 1019.99 565.41C1021.25 562.923 1018.71 558.806 1018.71 558.806C1018.71 558.806 1025.17 559.737 1028.38 553.43C1031.69 546.929 1028.9 541.989 1030.53 538.789C1034.97 530.089 1042.23 515.824 1048.4 503.721C1048.84 502.85 1050.67 503.604 1051.68 501.623C1052.62 499.77 1051.68 498.091 1051.68 498.091C1051.68 498.091 1054.5 496.861 1055.62 494.66C1056.67 492.589 1055.06 490.002 1055.06 490.002C1055.06 490.002 1057.28 489.21 1058.07 487.648C1058.94 485.955 1058.3 484.298 1058.94 483.039C1063.53 474.033 1070.47 460.419 1075.17 451.198C1076.02 449.543 1078.73 448.977 1079.42 447.613C1079.85 446.767 1079.17 444.747 1079.17 444.747C1079.17 444.747 1082.16 444.451 1083.42 443.364C1084.71 442.246 1082.08 439.848 1088.38 433.535C1092.9 429.007 1100.2 426.343 1100.1 424.525C1100 422.515 1092.89 414.338 1092.89 414.338C1092.89 414.338 1095.89 414.085 1096.83 412.24C1097.77 410.394 1097.14 408.246 1097.14 408.246L1100.1 407.734V393.656L1088.74 401.95ZM990.604 598.024C990.362 598.509 990.237 599.043 990.237 599.585C990.237 600.126 990.362 600.661 990.604 601.145C990.604 601.145 987.021 600.025 985.792 600.633C984.634 601.206 985.792 618.091 985.792 618.091C985.792 618.091 1000.09 609.073 999.869 607.801C999.639 606.449 996.644 604.166 996.644 604.166C997.802 603.98 998.705 603.254 999.153 602.375C999.623 601.45 999.686 598.807 996.439 597.152C995.223 596.532 994.14 596.348 993.264 596.436C991.809 596.583 990.899 597.446 990.604 598.024Z" fill="black"/>
        <path d="M1091.34 402.514L1098.1 405.945L1098 397.805L1091.34 402.514ZM1088.73 407.429C1087.86 409.133 1088.71 411.315 1090.63 412.292C1092.55 413.269 1094.77 412.665 1095.64 410.962C1096.51 409.258 1095.67 407.077 1093.75 406.099C1093.07 405.747 1092.31 405.588 1091.55 405.637C1090.34 405.72 1089.27 406.364 1088.73 407.429ZM1077.11 413.624C1076.4 414.084 1077.37 420.169 1077.16 425.346C1076.97 430.228 1075.41 431.603 1074.55 433.281C1073.76 434.83 1070.92 436.66 1070.92 436.66L1073.27 439.015C1073.27 439.015 1074.8 436.629 1077.21 431.897C1080.06 426.318 1079.96 416.209 1080.8 415.67C1081.52 415.201 1087.45 413.724 1087.45 413.724C1087.45 413.724 1082.01 413.43 1079.01 413.469C1078 413.482 1077.28 413.517 1077.11 413.624Z" fill="#F5D402"/>
        <path d="M1077.73 441.728C1077.73 441.728 1078.52 439.54 1081.26 434.151C1084.57 427.652 1091.64 422.938 1091.81 421.762C1091.98 420.55 1089.35 414.852 1089.35 414.852C1089.35 414.852 1083.12 416.047 1082.23 416.9C1081.38 417.723 1081.76 426.167 1078.45 432.667C1075.7 438.055 1074.35 440.039 1074.35 440.039L1077.73 441.728Z" fill="#F5D402"/>
        <path d="M1093.65 422.225C1093.7 423.214 1085.49 429.086 1082.64 434.664C1080.23 439.395 1079.21 442.037 1079.21 442.037L1082.49 442.549C1082.49 442.549 1082.26 439.182 1083.05 437.634C1083.91 435.957 1084.13 433.903 1087.97 430.877C1092.04 427.668 1097.54 424.863 1097.49 424.016C1097.45 423.234 1091.35 415.672 1091.35 415.672C1091.35 415.672 1093.6 421.364 1093.65 422.225ZM1069.59 458.725C1074.53 449.037 1076.03 448.377 1076.66 447.156C1077.32 445.844 1077.16 444.078 1074.97 442.957C1074.14 442.538 1073.44 442.431 1072.82 442.498C1071.78 442.609 1071.03 443.265 1070.62 444.084C1069.99 445.306 1070.33 446.939 1065.39 456.628L1054.18 478.589C1054.18 478.589 1053.01 480.745 1055.2 481.865C1057.4 482.984 1058.38 480.738 1058.38 480.738L1069.59 458.725ZM1049.78 483.913C1049.17 485.114 1050.22 486.877 1052.14 487.856C1054.05 488.832 1056.13 488.647 1056.74 487.446C1057.35 486.246 1056.26 484.482 1054.34 483.503C1053.38 483.014 1052.4 482.816 1051.57 482.89C1050.74 482.962 1050.09 483.314 1049.78 483.913ZM1045.63 490.158C1044.84 491.711 1046.07 493.941 1048.4 495.126C1050.72 496.309 1053.24 496.012 1054.03 494.459C1054.82 492.905 1053.58 490.677 1051.26 489.492C1050.39 489.05 1049.53 488.815 1048.7 488.776C1047.33 488.711 1046.13 489.187 1045.63 490.158ZM1043.02 497.122C1042.41 498.321 1043.46 500.085 1045.38 501.063C1047.29 502.041 1049.37 501.854 1049.98 500.654C1050.59 499.454 1049.55 497.69 1047.63 496.712C1046.67 496.222 1045.64 496.024 1044.81 496.097C1043.98 496.17 1043.33 496.521 1043.02 497.122ZM1041.33 503.777C1041.33 503.777 1028.88 528.277 1024.49 536.898C1023.09 539.652 1017.18 541.368 1014.87 545.909C1012.54 550.477 1014.18 554.753 1017.22 556.301C1020.26 557.85 1024.72 556.724 1027.05 552.155C1029.36 547.615 1027.28 541.802 1028.69 539.049C1033.08 530.425 1045.53 505.927 1045.53 505.927C1045.53 505.927 1046.76 503.771 1044.56 502.651C1044.12 502.418 1043.62 502.329 1043.12 502.396C1041.91 502.551 1041.33 503.777 1041.33 503.777ZM1009.84 560.651C1008.91 562.481 1009.97 564.92 1012.25 566.077C1014.52 567.235 1017.15 566.678 1018.08 564.849C1019.02 563.019 1017.9 560.579 1015.63 559.422C1014.77 558.987 1013.9 558.785 1013.07 558.808C1011.67 558.848 1010.42 559.508 1009.84 560.651ZM993.258 598.074C992.548 598.098 991.96 598.323 991.723 598.791C991.246 599.726 992.231 601.204 993.924 602.067C995.617 602.929 997.388 602.849 997.866 601.913C998.343 600.976 997.356 599.499 995.665 598.637C994.818 598.205 993.97 598.05 993.258 598.074ZM987.422 602.68V614.762L997.252 607.697C997.252 607.697 995.919 605.343 993.002 603.857C990.085 602.372 987.422 602.68 987.422 602.68Z" fill="#F5D402"/>
        <path d="M993.645 333.594C993.645 326.968 1002.35 320.438 1002.35 320.438H790.102C790.102 320.438 798.805 326.967 798.805 333.594V491.581C798.805 495.743 800.091 498.453 802.133 501.102C804.174 503.955 808.523 507.896 813.036 510.828C826.976 519.881 850.282 529.428 867.916 537.45C882.61 544.134 888.587 546.831 896.225 556.289C903.864 546.831 909.892 544.135 924.586 537.45C942.217 529.429 965.524 519.881 979.465 510.828C983.98 507.896 988.329 503.956 990.369 501.102C992.411 498.453 993.645 495.743 993.645 491.581V333.594Z" fill="#F5D402"/>
        <path d="M803.822 422.977V333.592C803.822 328.533 801.262 325.453 801.262 325.453H991.19C991.19 325.453 988.63 328.534 988.63 333.592L988.684 422.977L896.253 450.977L803.822 422.977Z" fill="#D10429"/>
        <path d="M988.681 422.981L931.447 421.906H861.054L803.82 422.981V491.582C803.82 495.03 807.398 503.107 828.035 513.389C862.146 530.387 888.365 538.323 896.224 547.996C904.082 538.323 930.301 530.386 964.413 513.389C985.049 503.107 988.627 495.03 988.627 491.582L988.681 422.981Z" fill="#0B45BB"/>
        <path d="M930.063 419.4C930.063 419.4 963.082 411.074 963.082 375.783C963.082 348.22 929.979 334.546 929.038 327.969C925.803 339.35 940.096 355.069 940.096 373.684C940.096 397.77 922.332 398.923 922.332 398.923C918.175 398.923 916.491 401.891 914.857 401.891C911.36 401.526 909.714 397.078 906.256 397.078C903.009 397.078 900.516 402.095 896.223 402.095C891.931 402.095 889.488 397.078 886.24 397.078C882.784 397.078 881.137 401.526 877.64 401.891C876.006 401.891 874.321 398.923 870.164 398.923C870.164 398.923 852.401 397.77 852.401 373.684C852.401 355.069 866.696 339.348 863.459 327.969C862.521 334.546 829.418 348.219 829.418 375.783C829.418 411.074 862.437 419.4 862.437 419.4L853.017 436.549C853.017 436.549 866.662 437.232 873.904 443.41C882.637 450.858 881.787 466.639 881.787 478.119C881.787 487.164 880.644 496.709 876.003 500.643C869.771 505.927 865.558 506.318 865.558 512.521C865.558 517.695 869.535 518.732 876.003 522.146C884.29 526.519 883.904 532.384 896.223 532.384C908.544 532.384 908.208 526.52 916.496 522.146C922.964 518.732 926.94 517.695 926.94 512.521C926.94 506.318 922.726 505.927 916.496 500.643C911.855 496.707 910.712 487.163 910.712 478.119C910.712 466.639 909.863 450.858 918.595 443.41C925.838 437.233 939.482 436.549 939.482 436.549L930.063 419.4Z" fill="black"/>
        <path d="M896.22 330.414L890.485 346.695L874.871 339.271L882.294 354.886L866.015 360.67L882.294 366.455L874.871 382.018L890.485 374.595L896.22 390.874L902.005 374.595L917.619 382.018L910.197 366.455L926.476 360.67L910.197 354.886L917.619 339.271L902.005 346.695L896.22 330.414ZM861.05 421.904C861.05 421.904 840.663 416.92 833.048 406.853C819.735 418.829 803.816 422.979 803.816 422.979C803.816 422.979 820.423 430.477 833.048 440.027C838.865 431.691 861.05 421.904 861.05 421.904ZM931.44 421.904C931.44 421.904 953.626 431.69 959.444 440.027C972.067 430.477 988.673 422.979 988.673 422.979C988.673 422.979 972.756 418.828 959.444 406.853C951.829 416.919 931.44 421.904 931.44 421.904ZM869.4 443.604L861.465 451.538L869.4 459.473L877.335 451.538L869.4 443.604ZM923.1 443.604L915.166 451.538L923.1 459.473L931.035 451.538L923.1 443.604ZM867.403 489.934C867.403 499.959 866.431 505.241 866.431 505.241C866.431 505.241 877.617 501.948 879.845 490.6C880.889 485.28 882.052 465.682 876.67 462.341L862.08 459.474C863.656 463.373 867.403 475.451 867.403 489.934ZM915.829 462.342C910.448 465.682 911.611 485.28 912.655 490.601C914.882 501.949 926.068 505.242 926.068 505.242C926.068 505.242 925.096 499.96 925.096 489.935C925.096 475.452 928.843 463.373 930.42 459.475L915.829 462.342ZM833.005 462.909C827.974 464.171 824.934 469.294 826.197 474.325C826.39 475.095 826.708 475.806 827.067 476.475C826.322 476.224 825.548 476.069 824.763 476.014C824.44 475.998 824.115 475.998 823.791 476.014C819.03 476.174 815.061 479.917 814.73 484.769C814.376 489.943 818.309 494.398 823.485 494.752C824.237 494.808 824.993 494.774 825.736 494.649C825.28 495.265 824.902 495.936 824.611 496.645C822.674 501.458 825.02 506.996 829.833 508.933C834.645 510.868 840.131 508.472 842.067 503.66C842.347 502.953 842.537 502.213 842.631 501.458C843.087 502.085 843.62 502.653 844.217 503.147C848.196 506.475 854.148 505.948 857.476 501.97C858.268 501.026 858.865 499.935 859.235 498.76C859.604 497.585 859.737 496.349 859.628 495.122C859.519 493.895 859.168 492.701 858.597 491.61C858.026 490.519 857.244 489.551 856.298 488.762C855.696 488.258 855.028 487.862 854.353 487.534C855.09 487.298 855.795 486.972 856.451 486.562C860.846 483.807 862.176 477.953 859.42 473.558C857.526 470.537 854.198 468.984 850.871 469.207C849.308 469.313 847.795 469.806 846.468 470.641C845.815 471.043 845.213 471.525 844.677 472.074C844.687 471.299 844.601 470.525 844.421 469.771C843.317 465.368 839.27 462.466 834.899 462.654C834.261 462.675 833.627 462.761 833.005 462.909ZM932.825 490.244C933.842 499.831 941.633 507.863 951.254 510.158C949.611 507.471 948.519 504.476 948.182 501.302C946.977 489.932 955.77 480.721 967.789 480.721C969.683 480.721 971.518 480.955 973.317 481.388C969.08 474.441 961.102 469.613 952.43 469.613C940.412 469.614 931.617 478.876 932.825 490.244Z" fill="black"/>
        <path d="M847.592 373.679C847.592 391.807 857.259 402.5 870.168 402.5C872.63 402.5 875.323 405.828 877.643 405.828C881.425 405.828 883.941 401.63 886.244 401.63C889.171 401.63 891.144 406.237 896.226 406.237C901.309 406.237 903.333 401.63 906.26 401.63C908.562 401.63 911.078 405.828 914.86 405.828C917.181 405.828 919.872 402.5 922.335 402.5C935.244 402.5 944.912 391.807 944.912 373.679C944.912 358.895 932.496 340.869 933.854 337.945C933.854 337.945 958.068 355.314 958.068 375.777C958.068 408.74 924.639 416.886 924.639 416.886L932.164 433.83C932.164 433.83 921.802 435.384 915.475 440.486C907.036 447.291 906.925 465.677 906.925 478.112C906.925 492.76 907.47 498.967 912.762 502.941C918.342 507.134 922.539 508.037 922.539 512.31C922.539 516.033 918.194 517.556 912.556 520.04C906.143 522.867 905.504 527.771 896.226 527.771C886.947 527.771 886.359 522.867 879.946 520.04C874.309 517.556 869.963 516.034 869.963 512.31C869.963 508.037 874.16 507.134 879.74 502.941C885.032 498.967 885.576 492.76 885.576 478.112C885.576 465.677 885.466 447.291 877.027 440.486C870.699 435.382 860.338 433.83 860.338 433.83L867.862 416.886C867.862 416.886 834.434 408.741 834.434 375.777C834.434 355.314 858.649 337.945 858.649 337.945C860.007 340.869 847.592 358.895 847.592 373.679ZM883.58 509.805C877.013 509.805 872.83 511.191 872.83 513.184C872.83 515.178 877.014 516.512 883.58 516.512C885.33 516.512 887.317 515.493 887.317 513.184C887.317 510.875 885.329 509.805 883.58 509.805ZM908.92 509.805C907.17 509.805 905.183 510.876 905.183 513.184C905.182 515.493 907.17 516.512 908.92 516.512C915.488 516.512 919.67 515.179 919.67 513.184C919.67 511.19 915.487 509.805 908.92 509.805Z" fill="#FFD200"/>
        <path d="M896.28 341.375L899.966 351.769L909.897 347.008L905.187 356.99L915.529 360.677L905.187 364.363L909.897 374.294L899.966 369.584L896.229 379.925L892.543 369.584L882.612 374.294L887.322 364.363L876.981 360.677L887.322 356.99L882.612 347.008L892.543 351.769L896.28 341.375ZM850.147 422.523C850.145 422.523 833.048 435.219 833.048 435.219L832.842 435.474L832.484 435.167L813.543 423.29C813.543 423.29 825.63 419.123 832.741 411.875C839.469 419.578 850.147 422.523 850.147 422.523ZM978.948 423.29C978.948 423.29 966.339 429.57 960.005 435.167L959.648 435.474L959.444 435.219C953.458 428.348 942.346 422.523 942.346 422.523C942.346 422.523 953.022 419.578 959.751 411.875C966.862 419.123 978.948 423.29 978.948 423.29ZM869.4 447.395L873.547 451.54L869.4 455.739L865.202 451.54L869.4 447.395ZM923.1 447.395L927.299 451.54L923.1 455.739L918.954 451.54L923.1 447.395ZM875.033 465.514C877.93 469.512 877.438 475.976 877.438 484.969C877.438 494.036 870.63 497.51 870.63 497.51C870.63 475.716 868.383 470.476 867.2 463.875L875.033 465.514ZM925.3 463.875C924.115 470.477 921.871 475.716 921.871 497.509C921.871 497.509 915.062 494.035 915.062 484.968C915.062 475.975 914.57 469.513 917.468 465.514L925.3 463.875Z" fill="#FFD200"/>
        <path d="M842.83 472.12C843.034 472.936 843.056 473.738 842.983 474.527C842.923 475.181 842.749 475.775 842.523 476.369C841.39 475.955 840.164 475.754 838.888 475.754C835.729 475.754 832.901 477.144 830.953 479.339C830.44 478.891 829.993 478.374 829.623 477.803C829.203 477.154 828.848 476.444 828.65 475.653C827.668 471.74 830.061 467.777 833.974 466.796C834.462 466.672 834.974 466.611 835.458 466.592C837.136 466.524 838.785 467.036 840.128 468.044C841.471 469.051 842.426 470.491 842.83 472.12Z" fill="#FFD200"/>
        <path d="M853.745 485.781C853.032 486.227 852.276 486.496 851.503 486.67C850.863 486.815 850.244 486.833 849.609 486.802C849.653 485.596 849.465 484.368 849.071 483.155C848.095 480.15 845.899 477.89 843.21 476.716C843.477 476.09 843.83 475.504 844.259 474.976C844.747 474.376 845.312 473.819 846.003 473.386C849.421 471.243 853.93 472.295 856.072 475.713C856.341 476.139 856.557 476.607 856.725 477.061C857.308 478.635 857.33 480.363 856.787 481.951C856.245 483.54 855.17 484.893 853.745 485.781Z" fill="#FFD200"/>
        <path d="M844.128 500.378C843.484 499.838 842.994 499.202 842.59 498.52C842.254 497.956 842.045 497.373 841.879 496.76C843.039 496.429 844.149 495.871 845.181 495.121C847.737 493.264 849.208 490.477 849.494 487.556C850.172 487.617 850.838 487.772 851.473 488.017C852.194 488.295 852.898 488.661 853.523 489.185C856.618 491.773 857.011 496.386 854.422 499.48C854.1 499.867 853.722 500.217 853.342 500.517C852.025 501.558 850.389 502.113 848.71 502.088C847.032 502.062 845.413 501.458 844.128 500.378Z" fill="#FFD200"/>
        <path d="M827.271 495.746C827.585 494.966 828.039 494.304 828.562 493.709C828.995 493.215 829.484 492.837 830.016 492.489C830.69 493.49 831.563 494.373 832.596 495.123C835.151 496.98 838.256 497.518 841.123 496.887C841.274 497.55 841.333 498.232 841.296 498.911C841.254 499.683 841.124 500.466 840.819 501.223C839.314 504.965 835.048 506.765 831.306 505.259C830.838 505.072 830.388 504.821 829.985 504.551C828.588 503.621 827.555 502.236 827.06 500.632C826.566 499.028 826.64 497.302 827.271 495.746Z" fill="#FFD200"/>
        <path d="M826.471 478.28C827.31 478.338 828.08 478.565 828.807 478.878C829.411 479.138 829.922 479.487 830.417 479.885C829.673 480.835 829.103 481.939 828.709 483.152C827.733 486.157 828.181 489.276 829.666 491.807C829.082 492.156 828.452 492.422 827.795 492.597C827.048 492.796 826.263 492.914 825.449 492.858C821.424 492.583 818.395 489.082 818.671 485.057C818.704 484.555 818.804 484.049 818.935 483.583C819.389 481.967 820.386 480.556 821.759 479.59C823.132 478.624 824.796 478.161 826.471 478.28Z" fill="#FFD200"/>
        <path d="M838.889 493.528C842.791 493.528 845.954 490.365 845.954 486.463C845.954 482.562 842.791 479.398 838.889 479.398C834.987 479.398 831.824 482.562 831.824 486.463C831.824 490.365 834.987 493.528 838.889 493.528Z" fill="#FFD200"/>
        <path d="M962.926 476.939C951.197 479.207 942.756 489.567 943.984 501.666C940.246 498.57 937.511 494.4 937.022 489.789C936.071 480.81 942.593 473.867 952.432 473.867C956.193 473.867 959.807 475.019 962.926 476.939Z" fill="#FFD200"/>
    </g>
    <defs>
        <clipPath id="clip0_2029_310">
            <rect width="1800" height="900" fill="white"/>
        </clipPath>
    </defs>
</svg>
