<svg xmlns="http://www.w3.org/2000/svg" width="1200" height="720" fill="none" viewBox="0 0 1200 720">
  <g id="mississippi" clip-path="url(#clip0_1056_133)">
    <path id="1" fill="#EEE" d="M0 0h1200v720H0V0Z"/>
    <path id="2" fill="#DDD" d="M250 0h700v720H250V0Z"/>
    <path id="3" fill="#EEE" d="M300 0h600v720H300V0Z"/>
    <path id="Vector" fill="#D69A2D" d="M571.199 135.787h19.697l6.103 8.363-9.833 3.237-15.967-11.6Zm56.64 0h-19.696l-6.104 8.363 9.834 3.237 15.966-11.6Zm-28.293-20.56 5.973 18.64-6.03 8.36-5.97-8.304 6.027-18.696Zm17.333 53.76-15.8-11.41v-10.31l9.77 3.22 6.03 18.5Zm-34.68 0 15.8-11.41v-10.31l-9.77 3.22-6.03 18.5Z"/>
    <path id="Vector_2" fill="#fff" d="m401.285 224.147 13.584 4.523 8.54-11.493-.094 14.247 13.53 4.576-13.663 4.364-.147 14.243-8.313-11.64-13.61 4.37 8.487-11.55-8.314-11.64Zm-27.22 47.84 14.247 1.363 5.717-13.08 3.14 13.927 14.24 1.47-12.364 7.193 3.194 13.93-10.794-9.403-12.416 7.19 5.823-13.073-10.787-9.517Zm.634 36.747 6.246 12.923 14.177-1.95-10.267 9.927 6.254 12.813-12.617-6.773-10.377 9.92 2.51-14.01-12.616-6.774 14.12-1.956 2.57-14.12Zm-20.39 70.36 13.396-5.13-.693-14.304 9.007 11.18 13.343-5.13-7.8 11.964 9.063 11.18-13.913-3.71-7.853 11.96-.694-14.304-13.856-3.706Zm8.293 54.48 11.92-7.994-3.987-13.763 11.354 8.843 11.92-7.99-4.944 13.41 11.3 8.787-14.343-.443-4.89 13.356-3.99-13.653-14.34-.553Zm23.397 28.346 12.963 6.157 9.933-10.3-1.936 14.127 12.906 6.213-14.1 2.583-1.993 14.18-6.69-12.566-14.16 2.53 9.88-10.357-6.803-12.567Zm26.316 45.157 13.874 3.323 7.453-12.223 1.2 14.233 13.923 3.267-13.176 5.523 1.203 14.29-9.407-10.913-13.173 5.58 7.453-12.17-9.35-10.91Zm122.24-374.757 7.877 11.907 13.87-3.73-8.98 11.203 7.88 11.85-13.47-5.053-8.927 11.207.59-14.277-13.416-5.05 13.873-3.73.703-14.327Zm-51.14 20.157 10.347 9.94 12.583-6.747-6.243 12.897 10.35 9.883-14.177-1.963-6.246 12.95-2.57-14.07-14.177-1.967 12.697-6.74-2.564-14.183Zm-21.65 29.46-3.473 13.947 12.187 7.516-14.247 1.094-3.473 13.893-5.397-13.263-14.307 1.09 10.99-9.294-5.396-13.26 12.13 7.57 10.986-9.293Zm336.947 42.21-13.583 4.523-8.54-11.493.09 14.247L763.152 236l13.663 4.364.147 14.243 8.313-11.64 13.61 4.37-8.486-11.55 8.313-11.64Zm27.22 47.84-14.247 1.363-5.716-13.08-3.14 13.927-14.24 1.47 12.363 7.193-3.193 13.93 10.793-9.403 12.417 7.19-5.824-13.073 10.787-9.517Zm-.633 36.747-6.247 12.923-14.177-1.95 10.267 9.927-6.253 12.813 12.616-6.773 10.377 9.92-2.51-14.01 12.617-6.774-14.12-1.956-2.57-14.12Zm20.39 70.36-13.397-5.13.693-14.304-9.006 11.18-13.344-5.13 7.8 11.964-9.063 11.18 13.913-3.71 7.854 11.96.693-14.304 13.857-3.706Zm-8.294 54.48-11.92-7.994 3.987-13.763-11.353 8.843-11.92-7.99 4.943 13.41-11.3 8.787 14.343-.443 4.89 13.356 3.99-13.653 14.34-.553Zm-23.396 28.346-12.964 6.157-9.933-10.3 1.937 14.127-12.907 6.213 14.1 2.583 1.993 14.18 6.69-12.566 14.16 2.53-9.88-10.357 6.804-12.567Zm-26.317 45.157-13.873 3.323-7.454-12.223-1.2 14.233-13.923 3.267 13.177 5.523-1.204 14.29 9.407-10.913 13.173 5.58-7.453-12.17 9.35-10.91ZM665.442 132.32l-7.877 11.907-13.87-3.73 8.98 11.203-7.88 11.85 13.47-5.053 8.927 11.207-.59-14.277 13.417-5.05-13.874-3.73-.703-14.327Zm51.14 20.157-10.347 9.94-12.583-6.747 6.243 12.897-10.35 9.883 14.177-1.963 6.247 12.95 2.57-14.07 14.176-1.967-12.696-6.74 2.563-14.183Zm21.647 29.46 3.476 13.947-12.186 7.516 14.246 1.094 3.474 13.893 5.396-13.263 14.307 1.09-10.99-9.294 5.397-13.26-12.13 7.57-10.99-9.293Zm-286.374 370.4.28-.357c.83.104 1.664-.11 2.47-.69.8-.526 2.06-1.906 3.79-4.106.267-.337.534-.677.8-1.017 1.897-2.413 3.797-4.823 5.707-7.253.59-.75.92-1.304.987-1.654.05-.336-.034-.72-.267-1.136.1-.124.197-.25.283-.357.837.717 1.47 1.247 1.89 1.603.42.36.794.684 1.164.974.366.29.77.576 1.216.9.447.323 1.09.8 1.984 1.443-.084.107-.184.233-.28.36-.437-.113-.83-.103-1.144.027-.326.146-.783.596-1.373 1.346-2.18 2.77-4.343 5.52-6.507 8.274-1.73 2.196-2.773 3.746-3.12 4.63-.353.94-.363 1.8-.066 2.58-.097.126-.197.25-.28.356a72.777 72.777 0 0 0-1.72-1.466 93.397 93.397 0 0 0-1.977-1.584 82.716 82.716 0 0 0-2.007-1.55c-.62-.456-1.24-.916-1.83-1.323Zm22.407-4.24c-1.243 1.907-2.49 3.81-3.737 5.717-1.983 3.026-3.083 5.163-3.346 6.38-.264 1.213-.04 2.34.66 3.396-.087.134-.174.267-.25.38-.44-.34-.937-.693-1.434-1.046-.5-.354-1.056-.717-1.66-1.114-.603-.393-1.183-.773-1.706-1.086-.544-.33-1.044-.63-1.557-.91.073-.117.163-.25.25-.384 1.21.277 2.343.064 3.35-.663.983-.743 2.513-2.627 4.533-5.713 1.27-1.944 2.54-3.887 3.814-5.83.773-1.18 1.146-2.107 1.18-2.764.02-.64-.29-1.333-.87-2.066.073-.114.15-.23.213-.324.253.167.81.53 1.667 1.147.846.58 1.483 1.023 1.97 1.343.28.18.686.42 1.196.754.524.316.93.553 1.164.706.456 5.224 1.046 10.454 1.493 15.697l1.22-1.87c2.007-3.067 3.107-5.203 3.383-6.383.25-1.194-.01-2.317-.7-3.34.09-.134.177-.267.264-.4.36.263.763.553 1.203.843.43.307 1.08.733 1.96 1.31.883.577 1.533 1 1.987 1.27.416.273.846.527 1.23.75l-.26.4c-1.237-.29-2.367-.077-3.387.67s-2.527 2.647-4.51 5.673c-2.23 3.41-4.46 6.824-6.68 10.214-.207-.137-.393-.26-.58-.38-.6-7.44-1.433-14.924-2.06-22.377Zm43.04 29.327c-.017.116-.06.223-.103.326-.74-.006-1.39.267-1.92.91-.524.624-1.304 2.097-2.264 4.454l-.346.84-.42 1.033c-1.587.383-3.18.493-4.744.37-1.566-.1-3.083-.473-4.566-1.077-1.457-.593-2.664-1.356-3.607-2.333a9.098 9.098 0 0 1-2.157-3.407c-.45-1.386-.726-2.826-.66-4.296.064-1.474.34-2.88.907-4.27a12.092 12.092 0 0 1 2.193-3.55c.897-1.03 1.977-1.844 3.187-2.554 1.383-.76 2.913-1.143 4.523-1.223 1.597-.11 3.174.19 4.68.807a12.985 12.985 0 0 1 3.54 2.133c1.047.867 2.154 2.03 3.207 3.467-1.217 1.59-2.457 3.173-3.673 4.763-.137-.107-.247-.2-.384-.303.527-2.314.594-4.154.224-5.584-.38-1.406-1.24-2.37-2.544-2.9-1.633-.67-3.306-.37-4.99.98-1.676 1.33-3.106 3.447-4.31 6.394-1.15 2.82-1.666 5.186-1.553 7.1.12 1.89.893 3.14 2.247 3.69.92.376 1.8.343 2.55-.187.77-.497 1.446-1.423 1.986-2.747.827-2.023 1.214-3.41 1.174-4.186-.04-.78-.44-1.407-1.187-1.984.04-.106.083-.21.12-.293.73.323 1.437.637 2.17.96.69.28 1.423.603 2.163.907.717.29 1.467.573 2.234.886l2.323.874Zm9.61 15.673c1.52.517 2.95.09 4.257-1.267 1.276-1.343 2.473-3.673 3.583-6.946 1.113-3.27 1.57-5.827 1.383-7.69-.22-1.85-1.076-3.03-2.62-3.554-1.493-.506-2.91-.123-4.176 1.197-1.25 1.353-2.44 3.663-3.574 7-1.123 3.313-1.59 5.893-1.423 7.727.193 1.84 1.077 3.026 2.57 3.533Zm-6.897-13.26c.54-1.593 1.3-2.967 2.277-4.123.983-1.18 2.21-2.037 3.583-2.724 1.224-.593 2.524-.896 3.89-.96 1.374-.086 2.73.134 4.094.597 1.413.48 2.65 1.14 3.67 2.013a10.189 10.189 0 0 1 2.486 3.174c.71 1.44 1.154 2.886 1.214 4.346a12.735 12.735 0 0 1-.687 4.617 12.57 12.57 0 0 1-1.557 3.12c-.606.923-1.38 1.74-2.263 2.45a11.25 11.25 0 0 1-4.87 2.21c-1.753.343-3.51.18-5.213-.4-1.387-.47-2.617-1.15-3.674-2.087-1.056-.933-1.943-2.026-2.513-3.276a10.178 10.178 0 0 1-1.133-4.32c-.064-1.534.163-3.067.696-4.637Zm32.627-.67c-.993 4.693-1.987 9.383-2.977 14.077-.44 2.066-.55 3.39-.366 4.01.18.62.666 1 1.51 1.18 1.686.356 3.136-.197 4.353-1.657 1.213-1.44 2.157-3.75 2.827-6.907.68-3.223.743-5.673.223-7.363-.497-1.683-1.7-2.707-3.52-3.09-.273-.06-.573-.123-.877-.163-.36-.03-.723-.06-1.173-.087Zm-11.737 18.31.094-.447c.826-.29 1.49-.87 1.99-1.76.5-.893 1.043-2.776 1.65-5.646.063-.31.13-.624.193-.91.633-3.004 1.27-6.004 1.91-9.03.187-.887.237-1.527.14-1.874-.097-.346-.367-.683-.763-.953l.093-.443c.833.223 1.643.416 2.427.606a78.7 78.7 0 0 0 2.22.517c.733.153 1.606.317 2.616.507.984.186 1.61.316 1.88.373 3.507.743 6.05 2.14 7.5 4.283 1.454 2.12 1.884 4.787 1.197 8.034-.753 3.56-2.257 6.096-4.463 7.676-2.21 1.577-4.997 2.007-8.287 1.314-.433-.094-1.213-.304-2.287-.6-1.1-.304-1.963-.51-2.616-.647-.407-.087-.93-.173-1.64-.3-.707-.15-1.994-.377-3.854-.7Zm65.67-14.38c-.006.137-.016.297-.026.453-.87.224-1.71.86-2.52 1.907-.81 1.07-1.677 2.613-2.544 4.663-2.1 5.077-4.306 10.127-6.406 15.204l-.25-.014c-1.45-4.923-2.987-9.806-4.41-14.706-1.884 4.703-3.877 9.376-5.76 14.103-.084-.003-.167-.01-.277-.017-1.793-6.153-3.697-12.29-5.49-18.443-.507-1.717-.967-2.84-1.4-3.46-.41-.57-.943-.92-1.597-1.05.007-.16.017-.32.027-.457.193.014.467.027.88.077 1.703.167 2.887.283 3.52.32.747.047 2.21.087 4.363.147.554.01.967.033 1.244.05-.01.136-.02.296-.027.453-.533.083-.953.22-1.22.5-.263.257-.4.66-.43 1.16-.017.273.02.617.08 1.01.06.39.173.787.287 1.25.8 2.83 1.653 5.663 2.453 8.517 1.847-4.52 3.77-9.017 5.617-13.54l.246.016c1.54 4.837 3.164 9.634 4.677 14.447.5-1.43 1.03-2.86 1.527-4.29.436-1.3.84-2.463 1.093-3.473.253-1.014.407-1.734.433-2.187.044-.73-.086-1.33-.363-1.803-.307-.45-.733-.727-1.307-.83.01-.16.02-.317.027-.454.717.064 1.377.127 2.007.187.636.037 1.24.097 1.846.133.47.027 1.024.037 1.657.074.607.013 1.297.033 2.043.053Zm3.2 21.47-.036-.453c.683-.487 1.153-1.21 1.356-2.137.234-.91.254-2.393.087-4.433l-.94-11.69c-.077-.954-.21-1.58-.4-1.884-.163-.283-.487-.51-.943-.653l-.037-.453c1.357-.064 2.63-.144 3.817-.217 1.216-.077 2.27-.137 3.153-.21 2.813-.227 5.603-.45 8.393-.673.567 1.87 1.164 3.76 1.73 5.653l-.496.04c-1.517-1.613-2.997-2.723-4.357-3.39-1.39-.687-2.853-.933-4.4-.81-.277.023-.44.037-.58.047-.11.01-.22.04-.353.073.223 2.81.453 5.643.68 8.453.306.02.553 0 .723.01.167.01.303-.003.413-.01 1.494-.12 2.627-.51 3.44-1.143.81-.637 1.344-1.57 1.61-2.777l.497-.04c.217 2.697.437 5.417.653 8.137l-.496.04c-.457-1.197-1.134-2.007-2.037-2.53-.903-.497-2.083-.673-3.573-.553-.11.006-.25.02-.414.053-.163.037-.413.057-.713.127.137 1.676.27 3.33.403 5.006.13 1.587.44 2.68.964 3.324.523.64 1.323.916 2.4.83 1.243-.1 2.526-.727 3.796-1.877 1.267-1.153 2.557-2.76 3.777-4.867.167.034.31.067.48.1-.36 2.467-.773 4.92-1.157 7.39-3.203.257-6.406.517-9.636.774-.634.053-1.657.133-3.064.27-1.403.136-2.976.286-4.74.473Zm38.08-4.903c-.03-.134-.063-.29-.1-.444.634-.586.967-1.36 1.054-2.36.066-.946-.207-2.796-.824-5.526-.093-.42-.19-.844-.283-1.264-.72-3.196-1.437-6.37-2.153-9.563-.09-.4-.18-.66-.29-.773-.104-.094-.254-.13-.47-.084-.674.154-1.444.747-2.277 1.82-.803 1.067-1.627 2.44-2.35 4.12-.167.014-.333.027-.5.044-.047-2.09-.06-4.16-.073-6.234l16.463-3.71c.85 1.884 1.727 3.764 2.553 5.674-.156.06-.313.12-.47.176-1.373-1.206-2.68-2.1-3.89-2.713-1.213-.613-2.136-.823-2.81-.673-.216.05-.363.153-.416.28-.054.153-.02.423.07.823l.196.867 2.244 9.96c.616 2.73 1.16 4.52 1.656 5.34.477.87 1.14 1.423 1.96 1.68.037.156.07.31.1.443-.736.12-1.466.26-2.253.413-.757.15-1.62.344-2.48.537-.887.2-1.723.387-2.47.58-.777.197-1.497.383-2.187.587Zm18.534-4.7c-.044-.13-.097-.28-.15-.43.563-.654.836-1.47.783-2.464-.037-.95-.52-2.753-1.44-5.393-.143-.41-.287-.817-.427-1.227-1.01-2.896-2.02-5.793-3.036-8.713-.314-.9-.604-1.477-.837-1.73-.253-.223-.623-.36-1.103-.387-.05-.15-.104-.3-.147-.43l2.32-.736c.783-.274 1.887-.634 3.243-1.107l2.484-.863c3.29-1.147 5.793-1.61 7.473-1.33 1.687.303 2.827 1.303 3.423 3.02.464 1.33.307 2.566-.426 3.736-.76 1.18-2.107 2.274-4.09 3.304 1.423-.28 2.67-.234 3.73.12 1.07.373 2.026 1.026 2.91 2.043.34.387.8.95 1.376 1.687 1.91 2.366 3.424 3.43 4.5 3.246.047.127.09.257.127.364-1.2.42-2.097.706-2.783.923-.704.243-1.304.453-1.88.653l-1.777.62a17.64 17.64 0 0 0-1.113.414c-.264-.417-.664-.974-1.157-1.717-3.343-4.973-5.91-7.137-7.66-6.527-.107.037-.313.11-.56.244-.027.01-.053.016-.07.05.267.77.543 1.566.82 2.36.937 2.683 1.713 4.41 2.29 5.22.6.803 1.297 1.283 2.143 1.443.05.15.104.303.15.43-.72.203-1.433.427-2.2.67-.736.233-1.546.517-2.41.817a84.337 84.337 0 0 0-4.506 1.69Zm3.27-13.897c.19-.043.356-.077.536-.14.194-.043.427-.123.794-.25 1.303-.457 2.166-1.093 2.523-1.917.36-.823.32-1.94-.167-3.336-.456-1.31-1.08-2.174-1.886-2.64-.797-.444-1.797-.457-2.974-.047-.39.137-.68.237-.906.34-.2.093-.404.19-.61.26l2.69 7.73Zm10.91-12.613c-.067-.147-.107-.304-.167-.427 1.23-.513 2.147-.91 2.76-1.17.613-.257 1.177-.49 1.68-.723.957-.44 2.34-1.15 4.223-2.097.027-.01.05-.02.104-.043l.19.413c-.5.707-.684 1.567-.554 2.51.137.963.794 2.72 1.957 5.243l.55 1.2a4026.53 4026.53 0 0 1 1.63 3.537c1.047 2.273 2.137 3.78 3.293 4.5 1.167.743 2.46.773 3.974.077a4.076 4.076 0 0 0 1.723-1.497c.447-.683.703-1.453.793-2.32.04-.57-.016-1.223-.193-1.943-.197-.687-.567-1.694-1.167-2.997l-1.19-2.587c-1.533-3.33-2.763-5.396-3.65-6.266-.863-.88-1.953-1.257-3.186-1.217-.067-.143-.134-.29-.19-.413.403-.187.866-.374 1.353-.574.463-.186 1.193-.523 2.15-.963.957-.443 1.663-.767 2.107-.997.47-.24.913-.47 1.29-.643.056.123.123.27.19.413-.83.91-1.227 1.97-1.137 3.23.067 1.274.867 3.54 2.39 6.85.4.867.79 1.717 1.183 2.564 1.36 2.96 1.714 5.38 1.13 7.226-.566 1.89-2.233 3.437-4.88 4.654-2.543 1.17-4.706 1.44-6.463.743-1.743-.673-3.227-2.3-4.433-4.927-.66-1.426-1.327-2.873-1.984-4.303-1.39-3.02-2.43-4.947-3.136-5.75-.68-.813-1.48-1.223-2.34-1.303Zm32.206 7.106c-.713-1.95-1.39-3.896-2.113-5.863.16-.06.31-.14.493-.217 1.44 1.487 2.977 2.4 4.547 2.787 1.573.383 2.967.14 4.117-.68.97-.697 1.56-1.59 1.74-2.67.146-1.083-.107-2.103-.82-3.103-.607-.85-1.31-1.354-2.094-1.547-.82-.143-1.806.003-2.993.49-.23.107-.587.227-1.037.407-2.19.896-3.763 1.32-4.766 1.2-.754-.047-1.434-.287-2.084-.717-.65-.43-1.273-1.017-1.856-1.833-1.19-1.664-1.477-3.497-.967-5.454.523-1.94 1.843-3.666 3.943-5.166a13.477 13.477 0 0 1 3.127-1.68 16.284 16.284 0 0 1 3.823-1c.597 1.696 1.164 3.443 1.764 5.14-.137.096-.284.173-.42.27-1.104-1.307-2.364-2.11-3.657-2.444-1.307-.35-2.5-.11-3.537.63-.813.584-1.27 1.327-1.383 2.217-.113.893.12 1.79.727 2.64.583.813 1.246 1.263 1.943 1.377.71.136 1.957-.17 3.72-.9 2.293-.94 4.107-1.314 5.477-1.064 1.35.264 2.553 1.137 3.61 2.614 1.323 1.85 1.666 3.81 1.12 5.906-.57 2.114-2 3.974-4.28 5.604a17.294 17.294 0 0 1-3.984 2.15c-1.433.523-2.8.856-4.16.906Zm23.454-14.283c-.084-.11-.177-.24-.274-.367.32-.776.337-1.636.01-2.586-.32-.897-1.323-2.474-2.993-4.72-.257-.347-.513-.694-.773-1.04l-5.85-7.864c-.244-.326-.43-.53-.577-.59-.137-.043-.287-.013-.467.117-.553.417-1.023 1.273-1.35 2.597-.33 1.32-.506 2.896-.49 4.726-.146.084-.293.164-.463.26-.867-1.906-1.72-3.793-2.593-5.666 4.536-3.377 9.073-6.75 13.633-10.144 1.54 1.377 3.083 2.754 4.637 4.147l-.357.353c-1.75-.543-3.333-.81-4.673-.893-1.36-.063-2.317.137-2.85.533-.2.15-.27.287-.27.43.016.157.156.394.4.724l.53.71 6.096 8.193c1.67 2.243 2.894 3.657 3.68 4.207.794.6 1.624.833 2.46.75.094.126.19.253.27.363-.603.393-1.24.84-1.876 1.283-.66.464-1.347.977-2.06 1.507a80.19 80.19 0 0 0-2.034 1.54 63.64 63.64 0 0 0-1.766 1.43Zm-18.294-137.033c-.133-.067 4.017-.467 4.017-.467s3.35 0 6.763-.133c2.877-.334 5.824-.667 6.627-.8.87-.4 1.807-.804 2.61-1.27l1.877-1 1.673-1.27c2.277-1.534 4.283-3.604 5.89-5.807 3.35-4.407 4.487-10.013 2.947-15.287-1.54-5.273-5.087-10.013-9.307-13.816-3.01-2.737-6.427-5.007-10.04-6.81-.337-.134-.737-.267-1.273-.467-1.274-.467-2.947-1.133-4.754-1.47-.936-.2-1.806-.467-2.61-.667-.87-.133-1.673-.133-2.343-.2-1.34-.133-2.21-.2-2.21-.2-.87-.133-1.74-.066-2.61-.133l-3.347-.067-4.82.334c-1.61.2-3.283.466-4.89.666-6.426 1.137-12.786 3.074-19.213 5.14-8.637 2.737-17.473 6.01-26.71 7.877-1.877.537-3.817.937-5.76 1.337-.67.666-1.27 1.4-1.873 2.07-3.617 4.203-7.43 8.343-11.517 12.213a48.39 48.39 0 0 1-2.743 2.537l.87.87c4.016 3.336 8.57 6.073 13.39 8.21 2.41 1.066 4.886 1.803 7.43 2.603 2.543.533 5.023 1.133 7.766 1.267l7.967.87 8.167.466 11.983.667s5.693.667 9.71 1.47c6.76 1.133 4.017 1.8-.203 2.07.403.067-10.174.133-10.174.133l-12.386-.67c-2.677-.133-5.357-.266-8.034-.466l-8.1-.867c-2.613-.133-5.423-.803-8.1-1.403-2.613-.867-5.29-1.667-7.766-2.87-2.747-1.2-5.424-2.604-7.9-4.204 1.473 2.4 3.013 4.67 4.82 6.674 5.89 6.743 14.393 11.013 23.163 13.283 8.637 2.003 17.943 1.337 26.98-.133 2.41-.6 4.82-1.267 7.297-1.937 2.61-.8 5.356-1.6 8.033-2.403a98.033 98.033 0 0 1 8.437-2.2c1.003-.267 2.006-.47 3.013-.67-.803-.267-2.01-.6-3.013-1-2.677-1.134-1.34-1.804.266-2.07Zm-212.306 1.676c.2.067-4.954.734-4.954.734h-5.156c.336.133.67.266 1.003.333 1.81.67 3.617 1.337 5.023 1.803 1.337.534 2.277.8 2.277.8l2.41.934c.87.333 1.27.4 3.413 1.07 1.74.466 3.48.733 5.29 1.066 1.74.067 3.48.4 5.287.2 7.167-.266 14.463-2.136 21.223-5.136 7.097-3.137 13.727-7.474 19.684-12.614-8.367 4.27-17.474 6.74-26.51 8.544-1.14.2-2.277.4-3.484.6 0 0-5.756.533-9.84.4-6.896-.134-4.22-1.27-.133-2.07-.203-.067 2.277-.467 4.82-1 2.477-.534 5.02-1.134 5.02-1.134l1.807-.266 2.01-.4c1.74-.337 3.413-.737 5.156-1.137 3.414-.8 6.76-1.733 10.04-2.87 4.017-1.4 7.9-3.133 11.584-5.137a33.573 33.573 0 0 1-1.54-1.6c-2.01-2.27-3.817-4.603-5.49-6.94-.87.2-1.74.467-2.61.6l-3.214.267c-2.143.267-4.22.067-6.293.067-1.207 0-2.343-.134-3.55-.267 0 0-5.823-.867-9.707-2.133-6.63-2.07-3.683-2.337.467-2.07-.2-.067 2.343.266 4.89.333 2.543.2 5.153.2 5.153.2.937.067 1.944.2 2.88.2 1.94-.067 3.95.2 5.89-.067l2.947-.266.803-.2c-.736-1.134-1.54-2.27-2.276-3.404l-2.277-3.603-1.403-2.467s-.204-.47-.604-1.336c-.403-.8-.87-1.867-1.54-3.137-.066-.067-.066-.133-.133-.2-6.63-.867-13.323-2.067-19.887-3.737-2.006-.466-4.016-1.266-6.023-1.933-2.01-.733-4.017-1.2-5.96-2.137-2.543-1.266-5.087-2.333-7.63-3.603-.403-.067-.873-.133-1.273-.133-5.09-.334-10.244-1.334-15.467-.667-5.22.4-10.577 1.537-15.8 3.203-5.22 1.667-10.377 4.004-14.863 7.274-4.417 3.203-8.1 7.673-8.5 12.876-.47 5.274 2.343 10.477 5.956 14.88 3.55 4.404 8.504 7.34 14.127 8.807 4.687 1.337 9.707 2.003 14.797 3.27 0-.067.066-.133.066-.133.067 0 1.204.066 2.81.133 1.61.133 3.75.267 5.894.2h8.636s2.744.333 4.754.937c3.346.8 2.076 1.6 0 2.066Zm133.576-1.213-2.343-2.867-2.073-3.136-3.75-5.937c-.534-.8-1.004-1.467-1.537-2.267-6.093 4.804-12.92 8.804-20.547 11.207.2 1 .4 2.133.6 3.333.337 2.737.404 5.604.404 5.604s-.134.403-.404 1.07c-.2.666-.466 1.4-.936 2-1.407 2-1.874.533-2.074-.534.067.134-.403-2.736-.403-2.736s0-2.4-.333-4.934c-.134-1.003-.337-2.003-.47-2.803-1.807.4-3.614.733-5.42 1 .066 1.937 0 3.87-.067 5.803-.2 2.87-.47 5.737-1.07 8.607-.27 1.2-.47 2.333-.803 3.533 0 0-.137.334-.337.934-.267.536-.533 1.403-1.003 2.27-.804 1.866-2.007 4.136-3.28 5.736-1.674 2.134-2.61 2.934-3.01 3-.134 0-.204-.066-.204-.2-.133-.4.27-1.266.804-2.466l5.086-21.28c0-.134.067-.267.067-.334.07-1.8.07-3.533 0-5.336a53.855 53.855 0 0 1-4.617 0c-.066.2-.133.466-.266.666-.404 1.07-1.074 2.47-1.674 3.804-.736 1.333-1.406 2.67-2.01 3.67-.6.933-1.07 1.6-1.07 1.6s-.333.266-.87.8a8.589 8.589 0 0 1-2.006 1.266c-2.21 1.07-2.01-.333-1.474-1.533-.066 0 .4-.533.67-1.333.334-.734.67-1.467.67-1.467s.4-.537.937-1.403c.533-.867 1.137-2.067 1.807-3.334.466-1.066 1.003-2.136 1.336-3.003-4.683-.533-9.503-1.867-13.786-4-1.94-1.003-3.747-2.137-5.554-3.403-7.363 7.003-15.93 12.806-25.3 16.876-2.41 1-4.82 1.867-7.226 2.6-.47 2.804-.337 5.67.733 8.474.87 2.6 2.277 5.07 3.95 7.47l5.087 2.603c7.16 3.533 14.323 7.003 21.753 9.803 1.07.4 2.14.867 3.277 1.2 0 0 1.206.534 3.013 1.27.87.4 1.807.867 2.877 1.334.936.333 1.943.733 3.013 1.066 6.357 2.4 3.68 2.6-.67 2 .267.067-2.343-.2-4.887-.933-2.543-.667-5.086-1.4-5.086-1.4-1.004-.267-1.94-.667-2.877-1.067-6.427-2.403-12.583-5.27-18.74-8.273 7.763 7.34 17.2 13.21 27.24 17.343 5.353 2.204 10.843 3.87 16.463 3.537 5.69-.133 11.447-1.133 17-2.467 10.51-2.536 20.614-6.473 29.114-12.21-8.967 2.804-18.204 4.537-27.374 5.737l-3.546.4s-1.34.067-3.347.133c-2.007 0-4.483-.066-6.49-.133-6.897-.467-4.15-1.4 0-2.133-.203 0 2.273-.4 4.817-.734 2.543-.466 5.086-.866 5.086-.866l2.947-.4c10.373-1.334 20.68-3.27 30.383-6.737l5.624-2.27c1.473-1.667 2.743-3.4 3.68-5.27 2.276-4.333 2.41-9.337 1.873-14.14-.333-2-.803-3.937-1.337-5.87-3.75-2.337-7.163-5.203-10.04-8.54Zm-106.23-108.743c-4.416-2-9.103-3.737-13.92-5.14-5.02-1.467-10.24-2.604-15.46-3.07-5.286-.534-10.71-.4-15.593 1.336-2.41.8-4.55 2.204-6.157 4.004-1.74 1.803-2.61 4.14-3.413 6.676-1.473 5.074-1.207 10.547.267 15.754a45.162 45.162 0 0 0 3.813 9.08c.203.266.403.6.67 1.066.403.534.87 1.204 1.34 1.937.533.667 1.137 1.333 1.673 2.07.6.733 1.204 1.467 1.74 2.137.6.666 1.204 1.266 1.674 1.8a50.982 50.982 0 0 1 1.606 1.67c.6.666 1.204 1.266 1.807 1.936.667.667.87.934 2.61 2.604 2.877 2.536 5.887 5.073 9.167 7.01 1.54 1.066 3.346 1.866 5.086 2.67l5.287 2.536 5.557 1.867c1.873.603 3.68 1.27 5.62 1.67 4.82 1.2 9.773 2.137 14.723 2.87-.4-.867-.737-1.737-1.003-2.603-.334-1-.537-1.87-.67-2.67-2.81-.867-5.687-1.87-8.43-2.937-5.957-2.27-11.78-4.807-17.47-7.677-2.81-1.403-5.62-2.803-8.364-4.34l-3.546-1.936s-4.82-3.137-7.967-5.74c-5.42-4.274-2.61-3.537 1.207-1.737-.204-.133 2.073 1.003 4.35 2.203 2.34 1.137 4.683 2.27 4.683 2.27l4.017 2.204a313.185 313.185 0 0 0 8.163 4.14 178.273 178.273 0 0 0 16.8 7.343 142.48 142.48 0 0 0 6.893 2.403c.134-.066.2-.066.334.067.536.467 1.273 2.737 2.946 5.273-.136-.333 1.67 2.737 4.014 5.874 1.14 1.536 2.276 3.136 3.146 4.54.804 1.2 1.337 2.003 1.337 2.003l1.34 2.267.67 1.136 1.07 1.604a60.171 60.171 0 0 0 2.14 3.336c3.08 4.407 6.09 8.677 9.84 12.217 3.68 3.537 7.897 6.407 12.58 8.21 4.62 1.87 9.773 2.603 14.86 2.537 5.153 0 10.237-.934 15.057-2.67 6.56-2.27 12.583-6.074 18.136-10.547l-.066.067.736-.6c.067-.067.134-.067.2-.137l1.607-1.4.067-.067c.2-.133.4-.333.536-.466l.267-.2c1.407-1.337 2.877-2.604 4.217-3.94 3.813-3.737 7.293-7.61 10.906-11.884.94-1 1.81-1.933 2.544-2.87.336-.466.67-.933.94-1.4.133-.2.266-.4.333-.603l.067-.133-.604-.334c-.936-.533-2.006-1-3.21-1.333-1.14-.4-2.41-.737-3.75-1.07l-2.006-.467c-.604-.2-1.207-.333-1.807-.466-2.477-.467-4.953-.734-7.497-.734-5.086-.066-10.24.867-15.326 2.204-2.544.666-5.087 1.466-7.627 2.333-1.273.403-2.477.87-4.017 1.27-1.406.4-2.81.733-4.15 1-2.743.537-5.486.937-8.163 1.403l-4.017.6c-1.806.267-3.546.067-5.086-.266-3.08-.667-5.757-1.937-8.23-3.337-2.544-1.403-4.887-3.14-7.03-4.673-4.417-3.204-8.7-6.21-13.25-7.81-2.677-.87-5.287-1.204-7.897-.804-.133 0-.2.067-.337-.066-.6-.334-1.403-.8-1.873-1.667-.467-.803-.6-2.003.87-3.54.067 0 .27-.267.47-.267.2-.066.4-.066.67-.066-3.08-3.137-5.823-6.607-8.033-10.414-1.137-2.07-2.477-4.07-3.277-6.406l-1.34-3.34-.937-3.537c-.736-2.27-.803-4.74-1.07-7.21-.136-2.403.067-4.807.2-7.143a87.507 87.507 0 0 1 1.74-9.48Zm99.654-10.04c-1.207-4.404-3.214-8.474-5.69-12.207l-1.807-2.403c-.537-.734-1.14-1.334-1.743-2 0 0-.334-.334-.87-1.004-.534-.666-1.204-1.666-2.207-2.666-1.003-1.067-2.21-2.27-3.413-3.537-2.947-2.333-6.027-4.603-9.307-6.937-5.553-4.606-9.637-10.01-14.657-14.48-2.476-2.2-5.156-4.136-8.033-5.07-2.677-.8-5.623.134-8.5 1.737-5.623 3.333-10.51 8.403-14.993 13.61-4.42 5.27-8.57 10.873-12.184 16.677-1.473 2.536-2.81 5.136-4.083 7.806-.537 1.267-1.34 3.404-2.077 5.604-.6 1.803-1.203 3.603-1.536 5.003-.404 1.403-.67 2.337-.67 2.337-.27.8-.604 1.666-.804 2.533l-1.07 3.803c-.603 2.07-.94 4.204-1.406 6.274-.337 2.066-.67 4.203-.87 6.336-.67 8.34 1.673 16.414 6.156 23.617 3.28 5.073 7.43 9.543 12.117 13.477.2.066.4.066.603.133 5.087 1.803 9.37 4.737 13.387 7.54.333-1.067 1.137-2.067 2.41-2.2 1.54.133 2.273 1.467 2.743 2.467v.133c0 .333-.2.733-.536.867-.2.066-.4.066-.667-.067.067.333.133.67.133.937 0-.067 0 .266-.066.733.4.333.803.6 1.27.867-.067-.467 0-1 .133-1.4.337-1.137 1.207-2.204 2.543-2.337 1.54.067 2.277 1.467 2.68 2.403 0 .067.067.067 0 .134 0 .4-.136.733-.47.866h-.066c-.134.067-.404.067-.67 0 .133.267.2.6.2.934 0-.067 0 .266-.2.866 0 .2-.2.534-.467.734.533.333 1.07.603 1.607.803.066-.267.066-.603.2-.87.333-1.133 1.136-2.2 2.476-2.333 1.54.066 2.274 1.4 2.744 2.4v.133c0 .337-.2.737-.537.87-.2.067-.4.067-.667-.067.067.334.134.667.134 1 0-.066.066.067 0 .334h.066c1.204.2 2.007.266 3.147.066l4.083-.666c.4-.067.734-.134 1.07-.2.067-.2.067-.4.134-.534-.2.067-.537.2-.87.067-.2-.133-.404-.333-.47-.803 0-.067-.067-.134 0-.2.403-1 1.14-2.334 2.68-2.4 1.336.133 2.206 1.2 2.543 2.333.067.267.067.537.133.87.467-.133 1.004-.2 1.474-.333-.404-.47-.604-1.137-.537-1.67-.067-.4.067-.667.2-.867-.2.067-.533.2-.87.067-.2-.067-.4-.334-.533-.8v-.2c.466-.934 1.203-2.337 2.743-2.404 1.337.134 2.14 1.2 2.477 2.337.266.733.266 1.533 0 2.333.066 0-.067.2-.267.534.667-.134 1.27-.334 1.873-.534l.534-.133.536-.933c-.066 0-.066 0-.133-.067a2.189 2.189 0 0 1-.737-1.867c0-.4.134-.67.267-.936-.2.133-.6.266-.937.133-.2-.133-.4-.333-.466-.8v-.2c.4-1 1.136-2.333 2.676-2.467 1.07.134 1.74.8 2.21 1.6.667-1.333 1.27-2.736 2.007-4.003 1.07-2.067 2.073-4.137 2.81-6.337.737-2.136 1.607-4.27 2.343-6.473l1.54-6.67c1.004-4.47 1.54-9.14 1.874-13.677a59.242 59.242 0 0 0 0-6.873c-.067-1.533-.2-2.4-.334-3.67 0 0-.403-5.403-1.873-9.073-.603-1.534-1.073-2.467-1.273-3.134-.267-.6-.2-.87.066-.803.47.067 1.874 1.203 3.147 3.07-.067-.2 1.34 2.07 2.277 4.67.936 2.537 1.403 5.27 1.403 5.27l.27 1.87.133 2.467c.067 2.403.067 4.736-.133 7.14-.337 4.736-.87 9.34-1.943 13.943l-1.674 6.94-2.41 6.603c-.733 2.27-1.873 4.337-2.876 6.47-1.07 2.004-1.94 4.137-3.214 6.007 1.94-.6 3.95-1.2 5.957-1.737.87-.2 1.81-.4 2.747-.6 7.43-12.473 13.386-25.816 15.996-39.896 1.674-9.14 1.474-18.414-1.136-27.22Zm-71.22-17.88c.133-.2-1.14 1.936-2.41 4.203a122.816 122.816 0 0 0-2.344 4.537l-1.473 2.536c-1.807 3.404-3.413 6.804-4.687 10.34-.666 1.937-1.27 3.87-1.74 5.804 0 .07-.066.07-.133.203-.737.6-2.343 1.533-3.48-.803 0 0-.067-.2-.067-.334.537-2.066 1.137-4.136 1.874-6.136a87.82 87.82 0 0 1 4.953-10.807l1.74-3.07s3.28-4.87 6.093-7.807c4.75-5.07 3.747-2.333 1.674 1.334Zm37.416 69.386c1.337.134 2.14 1.267 2.477 2.4.267.67.267 1.537 0 2.337 0-.067-.337 1.133-1.407 1.6-.466.2-1.34.333-1.94-.2-.603-.533-.736-1.267-.736-1.867 0-.4.133-.666.266-.866-.2.066-.533.2-.87.066-.266-.133-.4-.333-.536-.803v-.2c.47-1 1.206-2.333 2.746-2.467Zm-7.766-2.003c.403-1 1.14-2.4 2.68-2.467 1.336.134 2.206 1.267 2.543 2.334.2.736.267 1.603 0 2.403 0-.067-.403 1.067-1.473 1.533-.47.267-1.274.4-1.874-.133a2.185 2.185 0 0 1-.736-1.867c0-.4.066-.666.2-.933-.2.133-.537.267-.87.133-.2-.133-.404-.333-.47-.87 0 0-.067-.133 0-.133Zm0 7.54c.403-1 1.14-2.333 2.68-2.467 1.336.134 2.206 1.267 2.543 2.4.2.667.267 1.534 0 2.337 0-.067-.403 1.067-1.473 1.533-.47.267-1.274.4-1.874-.133a2.187 2.187 0 0 1-.736-1.87c0-.4.066-.667.2-.933-.2.133-.537.266-.87.133-.2-.133-.404-.333-.47-.867 0 0-.067-.133 0-.133Zm-5.42-10.073c.333-1.134 1.203-2.204 2.476-2.337 1.607.067 2.344 1.47 2.744 2.403v.2c0 .334-.134.667-.467.8v.067l-.067-.067c-.136.067-.403.067-.67 0 .134.267.2.6.2.934 0-.067 0 .266-.2.866-.133.537-.87 1.47-1.806 1.337-.804-.133-1.474-.6-1.81-1.133-.4-.537-.534-1.07-.534-1.07a4.04 4.04 0 0 1 .134-2Zm0 7.54c.333-1.137 1.203-2.204 2.476-2.337 1.607.067 2.344 1.467 2.744 2.403v.2c0 .334-.134.667-.467.8v.067h-.067c-.136.067-.403.067-.67-.067.134.267.2.6.2.934 0-.067 0 .333-.2.866-.133.6-.87 1.467-1.806 1.334-.804-.134-1.474-.534-1.81-1.134-.4-.533-.534-1.066-.534-1.066-.133-.667-.066-1.334.134-2Zm-5.89-5.14c.333-1.134 1.136-2.2 2.476-2.334 1.54.067 2.274 1.467 2.744 2.467v.133c0 .334-.2.67-.537.804v.066c-.2.067-.4.067-.667-.066.067.266.2.6.134.933 0-.067.066.333-.134.867-.136.6-.94 1.466-1.81 1.333-.803-.133-1.47-.533-1.873-1.133-.333-.534-.467-1-.467-1-.136-.734-.066-1.4.134-2.07Zm-5.224 4.336c.337-1.133 1.14-2.2 2.477-2.333 1.54.067 2.343 1.4 2.747 2.4v.133c0 .334-.2.737-.537.87-.2.067-.4.067-.67-.066.133.333.203.666.133.933 0-.067.07.333-.133.933-.133.534-.87 1.467-1.807 1.267-.803-.067-1.473-.533-1.806-1.067-.404-.6-.537-1.066-.537-1.066a4.055 4.055 0 0 1 .133-2.004Zm.07 6.407c-.203.067-.403.067-.736-.067.133.267.2.6.2.934 0-.067.066.333-.134.866-.133.6-.936 1.467-1.806 1.334-.804-.134-1.474-.534-1.877-1.134-.4-.533-.467-1-.467-1-.133-.733-.133-1.4.134-2.066.333-1.137 1.136-2.204 2.476-2.337 1.54.067 2.277 1.467 2.744 2.47v.133c0 .334-.2.667-.534.867Zm4.35 2.267c.134.266.2.6.2.933 0-.067 0 .337-.2.937-.133.533-.87 1.4-1.806 1.266-.804-.133-1.474-.533-1.81-1.133a3.43 3.43 0 0 1-.534-1.003c-.133-.734-.066-1.4.134-2.067.333-1.067 1.203-2.2 2.476-2.333 1.607.066 2.344 1.466 2.744 2.466v.134c0 .333-.134.666-.467.866h-.067c-.136.067-.403.067-.67-.066Zm5.624 3.403h-.07c-.2.067-.4.067-.667-.067.133.267.2.6.2.934 0-.067 0 .333-.2.933-.133.537-.87 1.403-1.81 1.27-.8-.133-1.403-.533-1.807-1.137-.4-.533-.533-1-.533-1a3.984 3.984 0 0 1 .133-2c.334-1.133 1.204-2.27 2.477-2.403 1.607.133 2.343 1.47 2.743 2.47v.133c0 .334-.133.734-.466.867Zm.2-7.54c-.2.067-.404.067-.67-.067.133.267.2.6.133.937 0-.067.067.333-.133.933-.134.534-.87 1.4-1.807 1.267-.803-.133-1.473-.533-1.807-1.133-.403-.534-.536-1-.536-1a3.985 3.985 0 0 1 .133-2.004c.337-1.133 1.14-2.266 2.477-2.4 1.606.134 2.343 1.467 2.743 2.467v.133c0 .334-.2.734-.533.867Zm.87 3.87c.333-1.133 1.203-2.267 2.476-2.4 1.607.133 2.344 1.467 2.744 2.467v.133c0 .333-.134.733-.467.867h-.067c-.136.066-.403.066-.67-.067.134.267.2.603.2.937 0-.067 0 .333-.2.933-.133.533-.87 1.4-1.806 1.267-.804-.134-1.474-.534-1.81-1.134-.4-.533-.534-1-.534-1a3.993 3.993 0 0 1 .134-2.003Zm4.753 8.607h-.067c-.136.066-.403.066-.67-.067.134.333.2.667.2.933 0-.066 0 .334-.2.937-.133.533-.87 1.467-1.806 1.267-.804-.134-1.474-.534-1.81-1.134-.4-.536-.534-1.003-.534-1.003a3.983 3.983 0 0 1 .134-2c.333-1.133 1.203-2.27 2.476-2.403 1.607.133 2.344 1.47 2.744 2.47v.133c0 .333-.134.733-.467.867Zm5.687-3.67s-.4 1.136-1.47 1.603c-.47.2-1.274.4-1.944-.2-.533-.467-.736-1.27-.666-1.87 0-.333.066-.667.2-.867-.2.134-.537.267-.87.067-.204-.067-.404-.267-.47-.8-.067 0-.067-.133 0-.2.403-.933 1.14-2.337 2.676-2.403 1.34.133 2.21 1.203 2.544 2.336.203.734.203 1.6 0 2.334Zm5.09-3s-.404 1.133-1.474 1.6c-.47.2-1.273.4-1.873-.134-.603-.533-.803-1.333-.737-1.933 0-.337.067-.603.2-.87-.2.133-.536.267-.87.067-.2-.067-.403-.267-.47-.8 0 0-.066-.134 0-.2.404-.934 1.14-2.334 2.68-2.4 1.337.133 2.207 1.2 2.544 2.333.2.733.266 1.6 0 2.337Zm5.02-2.604c.066-.066-.337 1.134-1.407 1.6-.47.2-1.34.4-1.94-.2-.603-.533-.737-1.266-.737-1.866 0-.4.134-.667.267-.867-.2.067-.537.2-.87.067-.2-.134-.4-.334-.537-.8v-.2c.47-1.004 1.207-2.337 2.747-2.404 1.337.067 2.14 1.2 2.477 2.337.266.667.266 1.533 0 2.333Zm111.356-41.753c-.066-2.94-.336-5.677-1.14-8.347-.666-2.603-1.94-5.006-3.746-6.81-.804-.866-1.807-1.536-2.877-2.07-.203.334-.403.667-.603 1.004-3.414 6.006-3.08 3.136-1.874-.937-.133.2.67-2.137 1.404-4.607.67-2.403 1.14-4.873 1.14-4.873.133-.6.266-1.137.4-1.67l.133-.867v-.2l.137-1.07c.133-.933.133-1.87.066-2.736-.203-3.54-2.276-6.144-5.69-7.41-3.346-1.27-7.363-1.537-11.243-1.67-7.763-.134-15.527 1.536-22.49 4.94-6.96 3.406-13.183 8.346-18.537 14.086-4.686 5.144-8.703 10.817-12.25 16.827.2 5.407-.266 10.75-1.27 15.89-2.476 12.617-7.296 24.37-13.386 35.387 1.136-.67 2.276-1.47 3.346-2.27 1.54-1.204 3.01-2.54 4.484-3.807l15.663-15.223a563.993 563.993 0 0 0 6.423-6.944l2.344-2.603s4.083-4.007 7.16-6.677c1.943-1.736 2.946-2.47 3.346-2.47.604-.066-.333 1.804-1.873 3.94.2-.133-1.34 1.934-2.943 3.937l-3.214 4.14-6.156 6.743c-2.41 2.604-4.82 5.14-7.297 7.61-4.55 4.61-9.237 9.15-14.323 13.287l1.273-.467c1.807-.6 3.613-1.536 5.42-2.27 1.07-.466 2.073-1 3.08-1.536 0 0 4.08-1.667 9.033-3.67 2.344-1.07 3.547-1.404 3.95-1.27.604.133-.936 1.536-3.08 3.14.204-.134-1.873 1.333-4.083 2.67-2.207 1.4-4.55 2.736-4.55 2.736-.937.4-1.807.867-2.743 1.27-1.137.467-2.21 1-3.28 1.467 1.07.2 2.143.333 3.213.603 2.677.734 5.353 1.267 8.3 2.404.733.266 1.47.6 2.207 1 .403.2.736.4 1.07.666.336.2 1.006.737 1.473 1.204.937.933 1.407 2.27 1.273 3.67 0 .336-.066.736-.203 1.136 7.833-2.203 15.327-5.876 21.82-10.816 6.29-4.74 11.78-10.68 16.197-17.29l3.146-5.077c.737-1.733 1.674-3.337 2.074-5.207l.47-1.536c.133-.4.2-.8.266-1.2l.47-2.537s.134-.537.267-1.337c.133-.866.333-2.07.603-3.47.467-2.806.937-6.476 1.74-9.55 1.27-5.073 2.477-6.406 2.81-5.74.2.334.267 1.134.334 2.27-.067 1.067-.067 2.47-.067 4.074.067-.334 0 3.336.067 7.21 0 1.936-.067 3.94-.134 5.473 0 1.537-.2 2.603-.2 2.603l-.47 2.874c-.266 1-.4 1.4-1.203 4.003-.333 1.07-.87 2.07-1.34 3.073-.467 1-.937 2.07-1.47 2.87-1.14 1.804-2.143 3.674-3.413 5.34-4.084 5.944-9.037 11.284-14.59 15.89 6.423-2.066 12.983-4.003 19.876-5.073 2.344-.4 4.75-.6 7.16-.733.204-.4.47-.734.67-1.137 5.22-10.147 7.164-21.963 7.497-33.513.067-2.94.067-5.81-.067-8.747Zm-50.063 28.773c-.2.2-.803.804-1.34 1.27-.533.534-1.07 1-1.07 1s-.533.47-1.137.937c-.536.533-1.34.933-1.606 1.133-.47.267-.937.067-1.607-.4.067-.933.067-1.4.403-1.67.2-.133.804-.4 1.337-.933a21.7 21.7 0 0 1 1.07-.867s.47-.403 1.007-.87c.466-.533 1.07-1.066 1.27-1.266.333-.334.803-.2 1.673 0 .267.8.333 1.333 0 1.666Z"/>
    <path id="Vector_3" fill="#041E42" d="M606.277 377.25c-4.04 1.043-12.41 2.25-20.157 3.21-6.623-.877-21.16-5-20.91-10.627.667-8.583 14.454-23.667 21.99-24.5 7.5-.833 22.117 16.917 25.2 22.043-3.75 6.25-2.373 6.25-6.123 9.874Z"/>
    <path id="Vector_4" fill="#D69A2D" d="M604.112 377.816c-3.62 1.04-10.95 2.25-17.863 3.206-5.87-.873-18.57-4.206-18.364-9.833.25-.917 12.494-21.54 19.197-22.373 6.703-.834 19.57 18.083 22.237 18.873-3.33 6.25-1.874 6.5-5.207 10.127Z"/>
  </g>
  <defs>
    <clipPath id="clip0_1056_133">
      <path fill="#fff" d="M0 0h1200v720H0z"/>
    </clipPath>
  </defs>
</svg>
