<svg width="1200" height="600" viewBox="0 0 1200 600" fill="none"
    xmlns="http://www.w3.org/2000/svg">
    <g clip-path="url(#clip0_2029_495)">
        <path id="1" d="M0 0H1200V600H0V0Z" fill="#EDEDF0"/>
        <g id="2">
            <path d="M672.857 342.857L0 0H180L672.857 342.857ZM527.143 257.143L1020 600H1200L527.143 257.143ZM527.143 342.857L1020 0H1200L527.143 342.857ZM672.857 257.143L0 600H180L672.857 257.143ZM600 300L0 240V360L600 300ZM600 300L1200 240V360L600 300ZM600 300L540 0H660L600 300ZM600 300L540 600H660L600 300Z" fill="#DDDDDD"/>
            <path d="M599.999 396.427C653.255 396.427 696.427 353.255 696.427 299.999C696.427 246.743 653.255 203.57 599.999 203.57C546.743 203.57 503.57 246.743 503.57 299.999C503.57 353.255 546.743 396.427 599.999 396.427Z" fill="#DDDDDD"/>
        </g>
    </g>
    <defs>
        <clipPath id="clip0_2029_495">
            <rect width="1200" height="600" fill="white"/>
        </clipPath>
    </defs>
</svg>
