<svg width="1200" height="600" viewBox="0 0 1200 600" fill="none"
    xmlns="http://www.w3.org/2000/svg">
    <g clip-path="url(#clip0_1954_757)">
        <path id="1" d="M0 0H1200V600H0V0Z" fill="#EDEDF0"/>
        <path id="2" d="M400 0H800V600H400V0Z" fill="#DDDDDD"/>
        <g id="3">
            <path d="M90 270H140V510H90V270ZM260 270H310V510H260V270ZM150 480L200 510L250 480H150ZM150 450H250V470H150V450ZM150 270L200 300L250 270H150ZM150 310H250V330H150V310ZM223.75 346.054C227.47 351.109 229.481 357.219 229.492 363.496C229.499 379.79 216.293 393.003 200 393.007C193.768 393.008 187.792 395.484 183.385 399.89C178.979 404.296 176.503 410.272 176.503 416.504C176.504 422.735 178.98 428.711 183.386 433.117C187.792 437.524 193.768 439.999 200 440C227.613 440 250 417.614 250 390C250 371.644 239.902 354.773 223.75 346.054ZM200 406.504C202.652 406.504 205.195 407.558 207.071 409.433C208.946 411.308 210 413.852 210 416.504C210 419.156 208.946 421.7 207.071 423.575C205.195 425.45 202.652 426.504 200 426.504C197.347 426.504 194.804 425.45 192.928 423.575C191.053 421.7 190 419.156 190 416.504C190 413.852 191.053 411.308 192.928 409.433C194.804 407.558 197.347 406.504 200 406.504Z" fill="#DDDDDD"/>
            <path d="M176.249 433.95C172.528 428.895 170.517 422.785 170.507 416.508C170.499 400.214 183.706 387.001 199.999 386.997C206.23 386.996 212.206 384.521 216.613 380.114C221.019 375.708 223.495 369.732 223.496 363.5C223.494 357.269 221.019 351.293 216.612 346.887C212.206 342.481 206.23 340.005 199.999 340.004C172.386 340.004 149.999 362.39 149.999 390.004C149.999 408.36 160.097 425.231 176.249 433.95ZM199.999 373.5C197.346 373.5 194.803 372.447 192.927 370.571C191.052 368.696 189.999 366.152 189.999 363.5C189.999 360.848 191.052 358.305 192.927 356.429C194.803 354.554 197.346 353.5 199.999 353.5C202.651 353.5 205.194 354.554 207.07 356.429C208.945 358.305 209.999 360.848 209.999 363.5C209.999 366.152 208.945 368.696 207.07 370.571C205.194 372.447 202.651 373.5 199.999 373.5ZM145.098 203.909C145.061 204.274 145.028 204.639 144.998 205.004C144.998 219.591 150.793 233.581 161.107 243.895C171.422 254.21 185.411 260.004 199.998 260.004C214.585 260.004 228.574 254.21 238.889 243.895C249.203 233.581 254.998 219.591 254.998 205.004C255.001 204.671 255.001 204.338 254.998 204.004C250.33 214.699 242.644 223.8 232.882 230.193C223.12 236.587 211.706 239.995 200.037 240C188.36 239.983 176.943 236.558 167.184 230.147C157.425 223.736 149.748 214.616 145.096 203.906L145.098 203.909Z" fill="#DDDDDD"/>
            <path d="M200.041 230C222.132 230 240.041 212.091 240.041 190C240.041 167.909 222.132 150 200.041 150C177.95 150 160.041 167.909 160.041 190C160.041 212.091 177.95 230 200.041 230Z" fill="#DDDDDD"/>
            <path d="M204.203 60.0156C199.233 62.2706 197.376 66.3366 196.976 70.3866C196.726 73.7966 198.231 77.6376 198.381 80.9726C198.381 86.7116 192.443 88.6016 192.443 96.7926C192.443 99.6076 195.043 102.71 195.043 110.016C194.593 113.851 192.453 114.716 190.043 115.016C188.717 115.016 187.445 114.489 186.507 113.551C185.57 112.613 185.043 111.342 185.043 110.016C185.047 108.734 185.542 107.502 186.428 106.576C186.586 106.397 186.756 106.23 186.938 106.076C188.078 104.926 189.643 104.481 189.633 101.446C189.633 99.8856 188.623 98.4656 187.658 95.7036C186.748 93.0236 187.408 88.5436 189.573 85.8986C186.073 87.2486 183.916 90.6036 182.816 93.6136C181.656 97.3136 182.666 99.4446 181.076 102.52C180.106 104.51 178.951 105.335 177.856 106.995C176.561 108.805 175.041 113.038 175.041 115.003C175.041 118.286 175.688 121.537 176.944 124.57C178.2 127.603 180.042 130.359 182.363 132.68C184.685 135.002 187.441 136.843 190.474 138.1C193.507 139.356 196.758 140.003 200.041 140.003C206.671 140.003 213.03 137.369 217.719 132.68C222.407 127.992 225.041 121.633 225.041 115.003C225.041 113.038 223.541 108.805 222.246 106.995C221.151 105.335 219.976 104.51 219.006 102.52C217.436 99.4446 218.446 97.3136 217.286 93.6136C216.186 90.6036 214.026 87.2496 210.528 85.8986C212.693 88.5436 213.353 93.0236 212.443 95.7036C211.473 98.4636 210.453 99.8836 210.453 101.446C210.453 104.481 212.008 104.926 213.148 106.076C213.33 106.23 213.5 106.397 213.658 106.576C214.544 107.502 215.039 108.734 215.043 110.016C215.043 111.342 214.516 112.613 213.579 113.551C212.641 114.489 211.369 115.016 210.043 115.016C207.278 114.666 205.293 113.376 205.043 110.016C205.043 100.39 209.163 99.7756 209.163 92.6526C209.163 82.4816 200.042 77.6666 200.042 70.2306C200.042 67.7106 200.632 63.4156 204.202 60.0156H204.203Z" fill="#DDDDDD"/>
        </g>
    </g>
    <defs>
        <clipPath id="clip0_1954_757">
            <rect width="1200" height="600" fill="white"/>
        </clipPath>
    </defs>
</svg>
