<svg width="900" height="600" viewBox="0 0 900 600" fill="none"
    xmlns="http://www.w3.org/2000/svg">
    <g clip-path="url(#clip0_2062_926)">
        <path id="1" d="M0 0H900V600H0V0Z" fill="#EDEDF0"/>
        <path id="2" d="M0 90H900V510H0V90Z" fill="#DDDDDD"/>
        <g id="3">
            <path d="M637.499 193.25C636.999 296.35 553.199 379.75 449.999 379.75C346.799 379.75 262.999 296.35 262.499 193.25C258.315 209.247 256.198 225.715 256.199 242.25C256.199 349.25 342.899 436.05 449.999 436.05C557.099 436.05 643.799 349.35 643.799 242.25C643.807 225.714 641.69 209.246 637.499 193.25Z" fill="#EDEDF0"/>
            <path d="M449.999 117.25L433.162 169.069H378.668L422.749 201.106L405.918 252.925L449.999 220.9L494.08 252.925L477.249 201.106L521.33 169.075H466.837L449.999 117.25Z" fill="#EDEDF0"/>
        </g>
    </g>
    <defs>
        <clipPath id="clip0_2062_926">
            <rect width="900" height="600" fill="white"/>
        </clipPath>
    </defs>
</svg>
