<svg width="900" height="600" viewBox="0 0 900 600" fill="none"
    xmlns="http://www.w3.org/2000/svg">
    <g clip-path="url(#clip0_2029_499)">
        <path id="2" d="M450 0H900V600H450V0Z" fill="#DDDDDD"/>
        <path id="1" d="M0 0H450V600H0V0Z" fill="#EDEDF0"/>
        <path d="M22.2227 82.8316V128.289H67.6777C67.6777 135.863 75.2537 143.44 82.8297 143.44V188.894H128.282V143.44C135.858 143.44 143.434 135.863 143.434 128.289H188.889V82.8316H143.434C143.434 75.2576 135.858 67.6806 128.282 67.6806V22.2266H82.8297V67.6806C75.2537 67.6806 67.6777 75.2576 67.6777 82.8316H22.2227Z" fill="#E60D2E"/>
        <path d="M25.2539 85.855V125.252H70.7059C70.7059 132.826 78.2819 140.402 85.8579 140.402V185.856H125.25V140.402C132.826 140.402 140.402 132.825 140.402 125.252H185.854V85.855H140.402C140.402 78.281 132.826 70.704 125.25 70.704V25.25H85.8579V70.704C78.2819 70.704 70.7059 78.281 70.7059 85.855H25.2539Z" fill="#96877D"/>
        <path d="M26.7695 87.3696V123.734H72.2215C72.2215 131.308 79.7975 138.887 87.3735 138.887V184.341H123.736V138.887C131.312 138.887 138.888 131.307 138.888 123.734H184.34V87.3696H138.888C138.888 79.7956 131.312 72.2196 123.736 72.2196V26.7656H87.3735V72.2196C79.7975 72.2196 72.2215 79.7966 72.2215 87.3696H26.7695Z" fill="#CCCCCC"/>
        <path d="M84.5342 71.6779C87.1972 74.3409 86.4772 79.3779 82.9272 82.9279C79.3772 86.4779 74.3402 87.1979 71.6772 84.5349C69.0152 81.8729 69.7352 76.8349 73.2852 73.2849C76.8352 69.7349 81.8722 69.0149 84.5342 71.6779Z" fill="#96877D"/>
        <path d="M71.1406 79.7099L72.2116 78.6379L76.4976 80.7799L74.3546 76.4949L75.4256 75.4229L79.7116 83.9929L71.1406 79.7079V79.7099ZM77.5696 73.2819L78.6406 72.2109L85.0696 78.6389L83.9976 79.7099L77.5696 73.2819Z" fill="#D0D0D0"/>
        <path d="M139.431 84.5342C136.768 87.1972 131.731 86.4772 128.181 82.9272C124.631 79.3772 123.911 74.3402 126.574 71.6772C129.236 69.0152 134.274 69.7352 137.824 73.2852C141.374 76.8352 142.094 81.8722 139.431 84.5342Z" fill="#96877D"/>
        <path d="M131.396 71.1406L132.468 72.2116L130.326 76.4976L134.611 74.3546L135.683 75.4256L127.113 79.7116L131.398 71.1406H131.396ZM137.824 77.5696L138.895 78.6406L132.467 85.0696L131.396 83.9976L137.824 77.5696Z" fill="#D0D0D0"/>
        <path d="M126.575 139.431C123.912 136.768 124.632 131.731 128.182 128.181C131.732 124.631 136.769 123.911 139.432 126.574C142.094 129.236 141.374 134.274 137.824 137.824C134.274 141.374 129.237 142.094 126.575 139.431Z" fill="#96877D"/>
        <path d="M139.969 131.399L138.898 132.471L134.612 130.329L136.755 134.614L135.684 135.686L131.398 127.116L139.969 131.401V131.399ZM133.54 137.827L132.469 138.898L126.04 132.47L127.112 131.399L133.54 137.827Z" fill="#D0D0D0"/>
        <path d="M71.6779 126.575C74.3409 123.912 79.3779 124.632 82.9279 128.182C86.4779 131.732 87.1979 136.769 84.5349 139.432C81.8729 142.094 76.8349 141.374 73.2849 137.824C69.7349 134.274 69.0149 129.237 71.6779 126.575Z" fill="#96877D"/>
        <path d="M79.7138 139.969L78.6418 138.898L80.7838 134.612L76.4988 136.755L75.4268 135.684L83.9968 131.398L79.7118 139.969H79.7138ZM73.2858 133.54L72.2148 132.469L78.6428 126.04L79.7138 127.112L73.2858 133.54Z" fill="#D0D0D0"/>
        <path d="M105.556 137.378C123.131 137.378 137.378 123.131 137.378 105.556C137.378 87.9816 123.131 73.7344 105.556 73.7344C87.9816 73.7344 73.7344 87.9816 73.7344 105.556C73.7344 123.131 87.9816 137.378 105.556 137.378Z" stroke="#96877D" stroke-width="0.514"/>
        <path d="M105.558 129.803C118.948 129.803 129.803 118.948 129.803 105.558C129.803 92.1674 118.948 81.3125 105.558 81.3125C92.1674 81.3125 81.3125 92.1674 81.3125 105.558C81.3125 118.948 92.1674 129.803 105.558 129.803Z" stroke="#96877D" stroke-width="0.514"/>
        <path d="M93.433 132.827C94.2697 132.827 94.948 132.149 94.948 131.312C94.948 130.475 94.2697 129.797 93.433 129.797C92.5963 129.797 91.918 130.475 91.918 131.312C91.918 132.149 92.5963 132.827 93.433 132.827Z" fill="black"/>
        <path d="M117.675 132.827C118.512 132.827 119.19 132.149 119.19 131.312C119.19 130.475 118.512 129.797 117.675 129.797C116.838 129.797 116.16 130.475 116.16 131.312C116.16 132.149 116.838 132.827 117.675 132.827Z" fill="black"/>
        <path d="M104.551 131.314V132.894H102.531C100.511 132.894 100.511 134.474 102.531 134.474H104.551V136.054C104.558 137.69 106.314 137.889 106.443 136.191L106.571 134.483H108.591C110.611 134.483 110.611 132.903 108.591 132.903H106.571V131.323C106.571 129.743 104.551 129.743 104.551 131.323V131.314ZM75.9546 113.404L78.0386 112.907L77.8086 111.942C77.7556 111.72 77.6686 111.57 77.5456 111.49C77.4236 111.41 77.2136 111.388 76.9156 111.423L76.8816 111.278L78.6756 110.851L78.7106 110.995C78.5046 111.047 78.3606 111.11 78.2756 111.184C78.195 111.252 78.1371 111.344 78.1096 111.446C78.0826 111.548 78.0896 111.687 78.1326 111.864L78.3626 112.83L80.0276 112.433C80.2966 112.369 80.4696 112.31 80.5476 112.255C80.6128 112.204 80.6584 112.132 80.6766 112.051C80.7117 111.926 80.7144 111.795 80.6846 111.669L80.6386 111.478L80.7836 111.443L81.3256 113.718L81.1816 113.753L81.1366 113.565C81.0846 113.346 80.9826 113.202 80.8316 113.134C80.7326 113.091 80.5246 113.108 80.2066 113.184L76.7826 114C76.5136 114.064 76.3406 114.123 76.2626 114.177C76.1979 114.227 76.1521 114.297 76.1326 114.377C76.0967 114.502 76.0939 114.634 76.1246 114.76L76.1696 114.947L76.0246 114.982L75.0846 111.038L76.2376 110.709L76.2696 110.846C76.0386 110.973 75.8756 111.095 75.7806 111.212C75.6882 111.325 75.6283 111.461 75.6076 111.605C75.5876 111.749 75.6096 111.959 75.6756 112.235L75.9546 113.404ZM74.6126 104.002C74.6526 103.296 74.9546 102.699 75.5206 102.212C76.0856 101.724 76.7706 101.503 77.5726 101.548C78.3986 101.595 79.0706 101.894 79.5866 102.447C80.1026 102.999 80.3406 103.646 80.2986 104.387C80.2566 105.136 79.9546 105.75 79.3936 106.23C78.8326 106.71 78.1296 106.925 77.2836 106.877C76.4206 106.829 75.7316 106.495 75.2196 105.876C74.7801 105.355 74.5622 104.682 74.6126 104.002ZM74.9006 104.095C74.8736 104.582 75.0326 104.982 75.3766 105.297C75.8056 105.689 76.4536 105.909 77.3196 105.957C78.2076 106.007 78.9016 105.857 79.4026 105.503C79.5857 105.377 79.7364 105.209 79.8424 105.014C79.9484 104.819 80.0067 104.601 80.0126 104.379C80.0308 104.136 79.9928 103.893 79.9015 103.667C79.8103 103.442 79.6683 103.241 79.4866 103.079C79.1066 102.724 78.4866 102.522 77.6286 102.473C76.6986 102.421 75.9936 102.565 75.5156 102.906C75.1356 103.179 74.9306 103.576 74.9006 104.095ZM82.7946 94.1439L82.2776 95.5039L79.2396 96.3209C79.1922 96.4618 79.1411 96.6015 79.0866 96.7399C79.0705 96.7781 79.0538 96.8161 79.0366 96.8539L80.5166 97.4169C80.8366 97.5389 81.0496 97.5799 81.1536 97.5389C81.3006 97.4859 81.4096 97.3639 81.4826 97.1739L81.5576 96.9749L81.6976 97.0279L80.8666 99.2099L80.7266 99.1569L80.7996 98.9659C80.8816 98.7499 80.8706 98.5699 80.7656 98.4239C80.7076 98.3419 80.5336 98.2449 80.2436 98.1339L76.9536 96.8819C76.6336 96.7599 76.4206 96.7189 76.3166 96.7599C76.1686 96.8159 76.0586 96.9399 75.9856 97.1329L75.9126 97.3239L75.7726 97.2709L76.4796 95.4159C76.6856 94.8759 76.8766 94.4909 77.0536 94.2649C77.2296 94.0379 77.4576 93.8749 77.7376 93.7769C78.0176 93.6789 78.3036 93.6849 78.5976 93.7969C78.9096 93.9159 79.1426 94.1209 79.2956 94.4129C79.4476 94.7049 79.4906 95.0829 79.4226 95.5469L81.2836 95.0519C81.7106 94.9389 82.0126 94.8169 82.1886 94.6869C82.3646 94.5559 82.5206 94.3569 82.6556 94.0909L82.7946 94.1439ZM78.8006 96.7639C78.8265 96.6934 78.8545 96.6237 78.8846 96.5549C79.0686 96.0689 79.1036 95.6629 78.9866 95.3359C78.9347 95.1802 78.848 95.0385 78.7331 94.9213C78.6183 94.8042 78.4782 94.7148 78.3236 94.6599C78.0056 94.5399 77.7096 94.5399 77.4346 94.6639C77.1596 94.7869 76.9596 95.0129 76.8346 95.3409C76.7796 95.4859 76.7286 95.6909 76.6816 95.9569L78.8006 96.7639ZM90.3966 78.7109L91.4496 80.0779L91.3316 80.1549C90.9796 79.8719 90.6496 79.7009 90.3426 79.6409C89.9006 79.5539 89.4656 79.6489 89.0386 79.9259C88.4556 80.3029 88.1616 80.8199 88.1566 81.4779C88.1546 82.0319 88.3276 82.5769 88.6766 83.1149C88.9586 83.5509 89.3006 83.8949 89.7026 84.1449C90.1036 84.3949 90.4956 84.5149 90.8776 84.5059C91.2596 84.4969 91.5936 84.3989 91.8816 84.2129C92.2141 83.9993 92.4834 83.7006 92.6616 83.3479L91.8056 82.0259C91.6576 81.7959 91.5426 81.6569 91.4616 81.6089C91.3817 81.5609 91.2882 81.5408 91.1956 81.5519C91.0986 81.5619 90.9576 81.6269 90.7726 81.7469L90.6896 81.6179L92.4606 80.4709L92.5436 80.5999L92.4596 80.6539C92.2846 80.7679 92.2016 80.9039 92.2126 81.0639C92.2216 81.1759 92.3046 81.3539 92.4636 81.5999L93.3706 82.9999C93.2146 83.2891 93.0242 83.5583 92.8036 83.8019C92.5936 84.0309 92.3346 84.2449 92.0266 84.4439C91.1436 85.0159 90.2886 85.1679 89.4626 84.8979C88.8542 84.7044 88.3339 84.302 87.9936 83.7619C87.7326 83.358 87.5749 82.8961 87.5346 82.4169C87.4749 81.859 87.5755 81.2956 87.8246 80.7929C88.0326 80.3809 88.3646 80.0269 88.8216 79.7309C88.9876 79.6229 89.1476 79.5389 89.3016 79.4779C89.4546 79.4159 89.6856 79.3509 89.9956 79.2819C90.0991 79.265 90.1998 79.2337 90.2946 79.1889C90.3161 79.1745 90.3337 79.1552 90.3461 79.1326C90.3584 79.1099 90.3651 79.0847 90.3656 79.0589C90.3706 78.9989 90.3386 78.9109 90.2716 78.7919L90.3966 78.7109ZM99.2696 79.3249L97.2306 79.8679L97.0946 80.7939C97.0606 81.0219 97.0576 81.1859 97.0846 81.2869C97.1056 81.3669 97.1626 81.4269 97.2546 81.4679C97.3466 81.5089 97.5236 81.5039 97.7816 81.4549L97.8196 81.5989L96.1616 82.0389L96.1236 81.8959C96.3336 81.7989 96.4626 81.7099 96.5106 81.6309C96.6096 81.4709 96.6886 81.1809 96.7476 80.7569L97.4476 75.9299L97.5836 75.8939L100.582 79.7869C100.824 80.0999 101.018 80.2929 101.167 80.3659C101.315 80.4389 101.498 80.4529 101.717 80.4089L101.755 80.5529L99.6766 81.1049L99.6386 80.9609C99.8456 80.8949 99.9786 80.8229 100.036 80.7429C100.063 80.7087 100.082 80.6686 100.092 80.6257C100.101 80.5828 100.1 80.5383 100.089 80.4959C100.059 80.3829 99.9586 80.2159 99.7896 79.9979L99.2696 79.3249ZM99.0846 79.0669L97.6246 77.1759L97.2746 79.5479L99.0846 79.0669ZM108.706 79.0389L108.837 79.0719L108.314 80.5319L104.098 80.3669L104.104 80.2189L104.308 80.2269C104.538 80.2359 104.706 80.1669 104.811 80.0209C104.871 79.9379 104.906 79.7409 104.919 79.4309L105.055 75.9159C105.068 75.5759 105.039 75.3619 104.968 75.2739C104.868 75.1519 104.715 75.0869 104.508 75.0789L104.304 75.0709L104.31 74.9219L106.776 75.0179L106.77 75.1669C106.48 75.1529 106.277 75.1719 106.158 75.2229C106.055 75.2614 105.968 75.3332 105.911 75.4269C105.865 75.5109 105.835 75.7149 105.823 76.0389L105.69 79.4599C105.68 79.6819 105.697 79.8359 105.736 79.9199C105.766 79.9779 105.814 80.0209 105.88 80.0499C105.946 80.0799 106.154 80.1019 106.505 80.1149L106.902 80.1309C107.32 80.1469 107.614 80.1279 107.785 80.0729C107.956 80.0179 108.115 79.9139 108.26 79.7629C108.405 79.6119 108.554 79.3699 108.706 79.0389ZM115.963 80.9809L116.08 81.0489L115.173 82.3069L111.167 80.9819L111.214 80.8409L111.408 80.9049C111.628 80.9769 111.807 80.9579 111.948 80.8469C112.028 80.7829 112.118 80.6029 112.215 80.3079L113.319 76.9699C113.426 76.6469 113.457 76.4329 113.413 76.3279C113.351 76.1829 113.222 76.0779 113.026 76.0139L112.831 75.9489L112.878 75.8079L115.221 76.5829L115.174 76.7229C114.9 76.6309 114.699 76.5929 114.571 76.6089C114.461 76.6172 114.358 76.6619 114.277 76.7359C114.209 76.8039 114.125 76.9919 114.023 77.2999L112.948 80.5499C112.878 80.7619 112.85 80.9139 112.865 81.0059C112.878 81.071 112.914 81.1294 112.967 81.1709C113.022 81.2169 113.217 81.2959 113.55 81.4059L113.927 81.5309C114.324 81.6609 114.612 81.7249 114.792 81.7189C114.972 81.7139 115.152 81.6589 115.334 81.5529C115.515 81.4479 115.724 81.2569 115.963 80.9809ZM121.812 84.0779L120.09 82.8589L119.291 83.3469C119.095 83.4669 118.966 83.5699 118.906 83.6549C118.858 83.7229 118.848 83.8049 118.876 83.9029C118.904 83.9999 119.02 84.1319 119.223 84.2989L119.137 84.4199L117.737 83.4289L117.823 83.3069C118.032 83.4069 118.183 83.4489 118.274 83.4349C118.46 83.4089 118.734 83.2829 119.097 83.0579L123.253 80.5039L123.368 80.5859L122.298 85.3819C122.212 85.7669 122.188 86.0399 122.227 86.2009C122.266 86.3609 122.372 86.5109 122.547 86.6509L122.46 86.7719L120.705 85.5299L120.791 85.4089C120.975 85.5249 121.115 85.5799 121.213 85.5739C121.257 85.5733 121.3 85.5624 121.339 85.5421C121.377 85.5218 121.411 85.4926 121.437 85.4569C121.505 85.3609 121.569 85.1769 121.628 84.9079L121.812 84.0779ZM121.892 83.7699L122.41 81.4389L120.363 82.6889L121.892 83.7699ZM128.355 84.9609L129.235 86.1489L127.935 91.2589L130.46 89.3889C130.73 89.1889 130.875 89.0339 130.897 88.9239C130.928 88.7779 130.88 88.6179 130.753 88.4459L130.64 88.2939L130.76 88.2059L131.89 89.7299L131.77 89.8179L131.655 89.6629C131.518 89.4779 131.365 89.3879 131.195 89.3929C131.091 89.3979 130.916 89.4899 130.671 89.6729L126.981 92.4079L126.894 92.2909L128.281 86.7909L125.585 88.7899C125.315 88.9899 125.169 89.1429 125.145 89.2499C125.115 89.3999 125.164 89.5589 125.29 89.7289L125.405 89.8839L125.285 89.9719L124.156 88.4479L124.276 88.3599L124.388 88.5109C124.527 88.6989 124.681 88.7899 124.85 88.7839C124.954 88.7799 125.129 88.6879 125.374 88.5059L128.419 86.2489C128.473 86.0119 128.499 85.8429 128.499 85.7419C128.497 85.6419 128.469 85.5119 128.417 85.3549C128.37 85.2452 128.309 85.1426 128.235 85.0499L128.355 84.9609ZM135.225 97.6229L134.041 98.1059L133.991 97.9619C134.192 97.8589 134.331 97.7679 134.405 97.6879C134.517 97.5703 134.591 97.4214 134.618 97.2609C134.637 97.074 134.611 96.8852 134.541 96.7109L134.284 95.9869L130.359 97.3749C130.044 97.4869 129.859 97.5909 129.805 97.6869C129.732 97.8199 129.732 97.9869 129.803 98.1869L129.865 98.3639L129.725 98.4139L128.955 96.2359L129.095 96.1859L129.159 96.3679C129.236 96.5849 129.356 96.7159 129.519 96.7599C129.62 96.7869 129.814 96.7499 130.102 96.6479L134.027 95.2589L133.809 94.6419C133.724 94.4019 133.646 94.2369 133.575 94.1489C133.471 94.0288 133.333 93.9448 133.179 93.9089C133.009 93.8639 132.806 93.8739 132.567 93.9389L132.517 93.7949L133.742 93.4289L135.226 97.6229H135.225ZM130.912 107.289L130.837 105.836L133.285 103.862C133.271 103.714 133.261 103.565 133.255 103.417V103.292L131.675 103.374C131.332 103.392 131.121 103.44 131.042 103.52C130.929 103.627 130.878 103.783 130.889 103.986L130.9 104.199L130.752 104.207L130.63 101.875L130.779 101.867L130.789 102.072C130.802 102.302 130.885 102.462 131.039 102.554C131.126 102.606 131.324 102.624 131.634 102.608L135.15 102.425C135.492 102.407 135.703 102.358 135.782 102.279C135.895 102.169 135.945 102.011 135.935 101.804L135.924 101.6L136.073 101.592L136.176 103.574C136.206 104.152 136.186 104.581 136.116 104.859C136.046 105.138 135.902 105.379 135.686 105.582C135.47 105.785 135.206 105.894 134.893 105.911C134.572 105.933 134.254 105.832 134.005 105.629C133.747 105.424 133.555 105.095 133.43 104.643L131.927 105.848C131.582 106.123 131.356 106.356 131.247 106.547C131.138 106.738 131.077 106.982 131.06 107.281L130.912 107.289ZM133.508 103.279C133.511 103.329 133.512 103.374 133.513 103.411L133.516 103.504C133.543 104.023 133.676 104.408 133.915 104.66C134.153 104.912 134.446 105.029 134.794 105.01C135.134 104.993 135.404 104.872 135.606 104.649C135.808 104.425 135.899 104.138 135.881 103.787C135.863 103.575 135.827 103.366 135.772 103.161L133.508 103.279ZM135.003 114.489L134.52 116.327L134.376 116.29L134.403 116.189C134.421 116.121 134.417 116.015 134.391 115.869C134.365 115.723 134.311 115.584 134.227 115.449C134.097 115.256 133.949 115.077 133.786 114.913L132.118 113.117L130.796 112.77C130.472 112.685 130.26 112.668 130.161 112.72C130.026 112.79 129.931 112.93 129.875 113.143L129.83 113.314L129.687 113.277L130.274 111.037L130.418 111.075L130.368 111.262C130.31 111.485 130.336 111.661 130.447 111.789C130.515 111.869 130.697 111.946 130.992 112.024L132.239 112.351L134.827 111.484C135.131 111.381 135.323 111.308 135.404 111.264C135.484 111.22 135.596 111.114 135.737 110.946C135.785 110.882 135.818 110.809 135.835 110.731L135.978 110.769L135.387 113.023L135.243 112.986L135.273 112.869C135.305 112.752 135.306 112.628 135.277 112.51C135.265 112.456 135.239 112.407 135.2 112.368C135.162 112.329 135.113 112.302 135.06 112.29C134.967 112.265 134.778 112.3 134.493 112.394L132.505 113.048L133.859 114.508C134.062 114.728 134.223 114.853 134.342 114.885C134.412 114.905 134.486 114.902 134.555 114.879C134.624 114.855 134.684 114.811 134.728 114.753C134.791 114.662 134.835 114.559 134.858 114.451L135.003 114.489Z" fill="black"/>
        <path d="M122.851 110.192C123.383 110.057 124.261 110.166 124.261 110.166C124.261 110.166 124.337 110.531 124.106 110.653C124.363 110.801 125.286 110.756 125.286 110.756C125.286 110.756 124.926 111.031 124.747 111.14C125.08 111.172 125.49 111.601 125.49 111.601C125.49 111.601 124.721 111.729 124.388 111.55C124.593 111.96 124.568 112.319 124.568 112.319C124.568 112.319 123.325 112.011 122.877 111.191M120.771 109.492C120.47 110.235 118.261 108.852 118.261 108.852C118.261 108.852 119.234 110.395 120.694 110.568M93.1823 123.662H119.059L121.057 122.073L117.727 120.28L112.602 118.538L110.552 117.411L106.761 117.615L103.584 119.306L99.2283 119.819L98.2033 120.997L94.9753 121.254L89.9023 121.151L98.3573 122.484L91.3883 122.124L93.1823 123.662Z" fill="#96877D"/>
        <path d="M122.851 110.192C123.383 110.057 124.261 110.166 124.261 110.166C124.261 110.166 124.337 110.531 124.106 110.653C124.363 110.801 125.286 110.756 125.286 110.756C125.286 110.756 124.926 111.031 124.747 111.14C125.08 111.172 125.49 111.601 125.49 111.601C125.49 111.601 124.721 111.729 124.388 111.55C124.593 111.96 124.568 112.319 124.568 112.319C124.568 112.319 123.325 112.011 122.877 111.191M120.771 109.492C120.47 110.235 118.261 108.852 118.261 108.852C118.261 108.852 119.234 110.395 120.694 110.568M93.1823 123.662H119.059L121.057 122.073L117.727 120.28L112.602 118.538L110.552 117.411L106.761 117.615L103.584 119.306L99.2283 119.819L98.2033 120.997L94.9753 121.254L89.9023 121.151L98.3573 122.484L91.3883 122.124L93.1823 123.662Z" stroke="black" stroke-width="0.203"/>
        <path d="M107.12 116.226C103.879 114.484 102.931 118.776 101.535 119.813C103.418 120.133 104.84 118.365 106.454 117.507C107.678 120.84 109.605 118.634 109.605 118.634C109.605 118.634 111.616 121.824 114.294 120.377C115.024 120.927 115.831 120.427 115.831 120.427C115.831 120.427 116.805 120.607 117.01 120.171C117.522 120.351 118.086 119.711 118.086 119.711C118.086 119.711 119.2 119.723 119.418 119.147C121.071 119.441 123.261 115.765 123.261 115.765L123.927 114.484L124.901 114.279C124.901 114.279 124.965 113.639 124.44 113.664C124.427 113.279 124.094 113.074 123.62 113.151C123.71 112.921 123.364 112.741 123.364 112.741C122.441 112.972 122.39 115.304 122.39 115.304C122.39 115.304 120.776 116.534 120.187 116.841C120.161 115.508 117.932 113.702 118.393 112.844C118.854 111.986 120.302 114.164 121.57 113.766C122.838 113.369 123.461 111.719 123.517 110.436C123.159 109.564 122.287 108.13 122.287 108.13L121.467 108.078L120.75 106.336C120.75 106.336 119.239 107.323 119.264 108.181C119.29 109.039 120.853 109.769 120.853 109.769C120.853 109.769 119.952 110.333 119.111 110.077C119.034 110.947 120.135 110.781 120.545 110.794C120.75 111.422 121.365 111.768 121.365 111.768C121.365 111.768 121.75 112.728 120.75 112.638C119.751 112.549 118.572 110.247 117.163 111.307C115.665 112.434 117.83 114.484 117.83 114.484C117.83 114.484 116.51 115.175 115.729 116.944C112.539 114.253 110.669 115.508 107.12 116.226Z" fill="#96877D" stroke="black" stroke-width="0.203"/>
        <path d="M102.46 111.673C103.792 112.928 102.863 115.015 103.382 115.413C103.933 115.836 104.715 115.209 104.715 115.209C106.111 115.58 108.609 114.799 108.609 114.799C109.709 115.414 109.274 114.506 109.941 114.543C110.531 116.054 112.503 115.773 112.503 115.773C112.503 115.773 110.697 113.928 109.583 113.415C108.724 113.928 106.226 114.005 105.791 113.928C105.305 113.842 105.611 113.248 105.381 112.903C106.299 112.009 105.573 109.79 105.073 108.957C103.037 107.601 100.605 109.925 102.46 111.673ZM93.5987 107.923C91.9227 108.376 89.0157 105.758 87.6567 106.763C86.2977 107.768 86.9317 110.242 87.8367 111.473C88.7227 112.678 86.5427 113.113 85.9537 113.829C85.3997 114.502 86.1337 115.279 86.1337 115.279L86.7507 115.677L86.6417 116.583L86.9677 117.67C86.9677 117.67 87.2677 117.932 87.3667 117.597C87.6467 117.878 87.3967 118.69 88.0917 118.793C87.8417 118.273 88.2717 116.836 88.2717 116.836C88.2717 116.836 89.4867 116.927 89.7947 116.402C90.1017 115.876 89.5047 114.735 89.5047 114.735H89.8667C89.4587 114.455 89.3227 113.612 89.3227 113.612C89.3227 113.612 91.0077 113.077 90.9897 111.8C90.9717 110.523 88.2547 109.164 89.2507 108.503C90.3557 107.769 92.2757 110.405 93.9247 109.191C95.5567 107.99 94.5047 109.155 94.5047 109.155C94.5047 109.155 95.2507 107.477 93.5987 107.923ZM102.25 89.9737C100.008 89.0387 95.4277 88.9807 92.8727 87.7188C91.7517 87.7888 91.2527 88.6737 91.2067 89.0257C90.0347 88.9677 89.2407 90.8127 89.4137 91.1777C87.2807 90.3137 86.2877 93.6887 86.9797 94.3807C85.1597 94.4577 85.3847 96.7827 85.2117 97.4297C84.6287 98.8447 85.3417 99.3217 86.4927 98.8127C86.6657 99.4277 86.4227 99.7727 85.9027 99.8887C89.0607 103.503 90.8457 97.6657 93.6157 97.6857C97.0737 96.6737 98.4317 94.9697 98.4317 94.9697L99.7897 95.1497L102.25 89.9737Z" fill="#96877D" stroke="black" stroke-width="0.203"/>
        <path d="M105.145 90.6881C106.97 90.6881 108.45 89.2084 108.45 87.3831C108.45 85.5578 106.97 84.0781 105.145 84.0781C103.32 84.0781 101.84 85.5578 101.84 87.3831C101.84 89.2084 103.32 90.6881 105.145 90.6881Z" fill="#96877D" stroke="black" stroke-width="0.203"/>
        <path d="M99.3291 113.41C97.2791 113.038 93.8851 110.912 93.5391 108.132C95.4471 100.638 105.294 104.552 106.143 98.9152C105.926 95.1962 106.593 91.5152 108.655 88.4042C109.615 87.1872 110.858 86.8672 110.858 86.8672C110.858 86.8672 111.081 87.6602 110.756 88.1992C112.382 88.0192 114.612 88.9292 116.136 89.0192C116.584 89.9292 116.546 90.2612 116.443 90.8122C116.341 91.3632 115.726 91.2222 115.726 91.2222C115.328 91.5992 114.85 91.9832 113.779 91.7862C112.972 92.4012 111.268 92.5542 111.268 92.5542C111.268 92.5542 114.829 96.3082 114.24 97.4742C114.983 97.8192 116.085 99.4722 116.085 99.4722C116.085 99.4722 118.519 98.1912 119.313 97.0122C120.723 97.0122 123.028 98.4862 124.181 98.6522C125.591 99.7922 126.999 100.958 126.999 100.958C126.999 100.958 125.321 102.06 124.591 100.599C123.707 100.676 121.798 98.5622 119.159 99.2162C119.082 101.56 116.495 103.213 116.495 103.213C116.495 103.213 118.91 102.875 120.235 103.673C121.348 104.596 122.476 105.502 123.617 106.39L125.411 109.464C125.411 109.464 123.771 109.746 123.156 107.619C122.541 109.336 122.516 106.556 120.082 105.262C119.339 105.352 118.967 105.403 118.339 104.904C116.584 105.378 114.509 106.402 112.037 106.134C110.282 106.684 109 108.144 107.22 108.952C105.44 109.759 104.914 109.362 104.914 109.362L103.479 109.412C103.272 110.277 103.389 111.591 102.609 111.822C103.108 112.359 102.249 114.652 101.379 115.049C101.789 116.523 102.989 116.974 104.248 117.714C104.248 117.714 105.362 117.202 106.092 117.868C106.822 118.534 107.578 120.43 107.578 120.43C107.578 120.43 106.058 120.533 105.58 120.327C105.101 120.122 105.055 119.623 104.504 119.764C101.032 116.676 99.2021 117.904 98.8671 117.202C98.5251 116.482 99.6871 114.602 99.3291 113.41Z" fill="#96877D" stroke="black" stroke-width="0.203"/>
        <path d="M90.9888 99.6542C91.1698 99.4282 92.4388 99.9082 92.4388 99.9082L94.7568 101.357L99.4668 104.401L101.134 106.828L98.1268 105.85L93.9598 102.263L91.7138 100.813C91.7138 100.813 90.8078 99.8812 90.9888 99.6542ZM118.849 107.369C117.222 106.959 113.212 111.827 113.212 111.827L116.236 115.107C116.236 115.107 116.326 109.521 118.849 107.369Z" fill="#96877D" stroke="black" stroke-width="0.203"/>
        <path d="M99.0224 93.7874C98.1354 94.9244 98.0554 97.2164 99.2104 98.1404C99.3184 99.5314 100.501 102.337 101.43 102.6C102.446 102.888 106.503 103.83 108.092 103.574C107.788 106.149 109.808 108.215 111.679 109.569C111.665 109.801 111.662 110.083 111.878 110.369C112.088 110.645 113.07 110.695 113.113 110.543C113.549 111.156 115.661 111.425 115.813 111.152C115.963 110.886 112.708 108.622 111.986 107.93C111.373 106.786 110.211 104.236 109.936 102.19C108.339 100.29 105.596 100.328 105.596 100.328L105.683 96.6054L105.837 92.4034L104.351 91.6354C104.351 91.6354 104.651 91.4984 104.812 91.3274C105.173 91.4834 105.852 90.7574 105.94 90.5534C106.281 90.6734 106.59 90.6734 106.65 90.4894C106.704 90.3294 106.765 89.6104 106.89 89.2394C108.01 88.2524 106.726 86.1594 105.012 86.1254C103.315 86.0904 102.935 88.1484 102.968 88.3054C103.127 88.9504 103.093 89.2754 102.968 89.4314C102.84 89.5914 102.25 89.9444 102.25 89.9444C102.25 89.9444 101.302 89.4954 100.15 89.9444C98.9984 90.3934 97.7024 90.9944 97.6384 91.7374C97.1134 91.8144 96.2554 92.4934 96.1014 93.0704C95.6404 92.9804 95.0384 93.3644 94.0514 94.9664C92.2844 95.7474 92.1814 99.5264 92.1814 99.5264C92.1814 99.5264 91.7044 100.221 91.6814 100.589C91.6594 100.958 91.8484 101.294 92.0794 101.229C92.1044 101.473 92.4254 101.691 92.5654 101.614C92.6174 101.858 92.9684 101.994 93.1804 101.96C93.2004 102.127 93.8824 102.085 93.9364 101.934C93.9964 101.768 93.8694 100.938 93.9494 100.871C94.0234 100.811 94.5894 101.243 94.7434 101.127C94.8974 101.012 94.7134 100.643 94.6284 100.5C94.5514 100.372 94.0644 100.23 93.9494 99.6294C93.8344 99.0284 94.2564 98.1944 94.2564 98.1944C94.2564 98.1944 96.1784 96.6824 96.3964 95.3884C97.8434 95.5294 98.6094 94.2644 99.0224 93.7874Z" fill="#96877D" stroke="black" stroke-width="0.203"/>
        <path d="M95.6797 88.3688C96.1187 87.2958 97.7037 87.3948 97.7037 87.3948C97.7037 87.3948 98.2707 85.9028 100.407 86.7928C101.211 86.1718 103.327 87.0628 103.327 87.0628C103.327 87.0628 104.121 86.0058 105.16 86.1268C107.085 86.3508 107.405 88.1158 107.286 88.4198C106.233 88.6858 104.407 87.5638 103.02 87.8818C102.21 88.3398 100.897 88.8238 100.407 89.4838C99.1227 89.6178 97.7517 88.3018 95.6797 88.3688ZM99.6897 90.1498C100.17 89.8548 101.349 89.3368 102.15 89.9698C102.989 90.8738 104.276 91.7128 104.276 91.7128L105.736 92.3278L106.403 92.7378L105.967 99.4248C104.615 98.0418 103.348 97.7988 102.38 96.1708C101.861 95.4728 102.258 93.7948 101.355 92.6858C100.452 91.5778 99.4907 90.8288 99.6897 90.1498Z" fill="#96877D" stroke="black" stroke-width="0.203"/>
        <path d="M103.199 92.0784C103.199 92.0784 103.964 91.9334 104.177 92.1144C104.445 92.2044 104.703 92.2824 104.775 92.5134C105.065 92.5994 105.265 92.7484 105.265 92.9664C105.536 93.0384 105.645 93.5274 105.645 93.5274L105.391 93.9074C105.391 93.9074 105.101 93.6364 105.065 93.3474C104.882 93.2564 104.476 93.1604 104.377 92.8934C104.06 92.8624 103.856 92.6984 103.797 92.4234C103.502 92.4904 103.199 92.0784 103.199 92.0784Z" fill="#96877D" stroke="black" stroke-width="0.203"/>
        <path d="M109.681 87.7164C109.245 87.2294 108.477 87.5884 108.477 87.5884L106.427 91.1244L105.53 91.8674L105.453 94.6344L106.196 97.2214L105.94 99.2204C105.94 99.2204 106.972 98.2514 107.093 97.7084C107.209 97.1894 106.709 95.5054 106.709 95.5054C106.709 95.5054 106.094 94.4554 106.837 92.5074C107.58 90.5604 109.271 88.9454 109.681 87.7164Z" fill="#96877D" stroke="black" stroke-width="0.203"/>
        <path d="M114.74 90.8672C114.74 90.8672 111.54 95.4402 106.3 97.0672C104.853 97.4132 105.378 93.6852 105.378 93.6852L105.019 93.7882C105.019 93.7882 104.212 97.4382 106.146 97.4782C111.412 96.4402 115.362 90.8972 115.362 90.8972L114.732 90.8692L114.74 90.8672ZM116.91 117.159C116.91 117.159 116.423 117.518 115.783 117.159C115.45 116.39 114.553 116.339 114.553 116.339C114.553 116.339 113.975 114.679 113.067 115.161C112.926 114.302 111.94 114.751 111.94 114.751C111.94 114.751 111.914 113.508 110.761 113.675C111.145 112.252 109.172 112.342 109.172 112.342C109.172 112.342 109.108 110.741 106.2 111.062C112.465 108.256 117.422 115.468 117.422 115.468M119.88 117.769C119.88 117.769 121.328 119.396 122.083 119.409C122.839 119.422 122.903 117.82 122.903 117.82C122.903 117.82 123.147 118.512 123.518 118.333C123.48 118.819 123.979 118.948 123.979 118.948C123.979 118.948 122.673 121.984 118.958 119.101M108.55 118.389L108.038 120.489C108.038 120.489 107.384 121.079 107.576 121.207C107.769 121.335 108.806 121.002 108.806 121.002C108.806 121.002 110.42 120.81 110.907 120.336C111.24 121.092 111.983 121.156 111.983 121.156C111.983 121.156 112.034 120.836 111.932 120.644C112.291 120.708 112.598 120.592 112.598 120.592C112.598 120.592 112.803 120.003 112.342 119.772C112.393 119.337 112.611 118.952 111.83 119.004C111.253 119.619 109.831 120.324 109.472 120.08C109.114 119.837 110.882 119.055 110.395 118.03" fill="#96877D"/>
        <path d="M116.91 117.159C116.91 117.159 116.423 117.518 115.783 117.159C115.45 116.39 114.553 116.339 114.553 116.339C114.553 116.339 113.975 114.679 113.067 115.161C112.926 114.302 111.94 114.751 111.94 114.751C111.94 114.751 111.914 113.508 110.761 113.675C111.145 112.252 109.172 112.342 109.172 112.342C109.172 112.342 109.108 110.741 106.2 111.062C112.465 108.256 117.422 115.468 117.422 115.468M119.88 117.769C119.88 117.769 121.328 119.396 122.083 119.409C122.839 119.422 122.903 117.82 122.903 117.82C122.903 117.82 123.147 118.512 123.518 118.333C123.48 118.819 123.979 118.948 123.979 118.948C123.979 118.948 122.673 121.984 118.958 119.101M108.55 118.389L108.038 120.489C108.038 120.489 107.384 121.079 107.576 121.207C107.769 121.335 108.806 121.002 108.806 121.002C108.806 121.002 110.42 120.81 110.907 120.336C111.24 121.092 111.983 121.156 111.983 121.156C111.983 121.156 112.034 120.836 111.932 120.644C112.291 120.708 112.598 120.592 112.598 120.592C112.598 120.592 112.803 120.003 112.342 119.772C112.393 119.337 112.611 118.952 111.83 119.004C111.253 119.619 109.831 120.324 109.472 120.08C109.114 119.837 110.882 119.055 110.395 118.03M114.74 90.8672C114.74 90.8672 111.54 95.4402 106.3 97.0672C104.853 97.4132 105.378 93.6852 105.378 93.6852L105.019 93.7882C105.019 93.7882 104.212 97.4382 106.146 97.4782C111.412 96.4402 115.362 90.8972 115.362 90.8972L114.732 90.8692L114.74 90.8672Z" stroke="black" stroke-width="0.203"/>
    </g>
    <defs>
        <clipPath id="clip0_2029_499">
            <rect width="900" height="600" fill="white"/>
        </clipPath>
    </defs>
</svg>
