<svg width="900" height="600" viewBox="0 0 900 600" fill="none"
    xmlns="http://www.w3.org/2000/svg">
    <g clip-path="url(#clip0_2052_123)">
        <path id="1" d="M0 0H900V200H0V0Z" fill="#EDEDF0"/>
        <path id="4" fill-rule="evenodd" clip-rule="evenodd" d="M450 24C445.666 24 444 30.5 444 37C444 50.5032 445.427 58.4536 448.433 75.2111L448.434 75.2152L448.438 75.2363L448.44 75.2463L448.443 75.2647L448.443 75.265C448.922 77.9341 449.441 80.8265 450 84C450.561 80.8196 451.081 77.9216 451.561 75.2477L451.561 75.2457L451.563 75.2363L451.567 75.2152L451.567 75.2111C454.574 58.4536 456 50.5032 456 37C456 30.5 454.334 24 450 24ZM450 357C521.245 357 579 299.245 579 228C579 218.385 577.948 209.015 575.953 200H324.048C322.052 209.015 321 218.385 321 228C321 299.245 378.756 357 450 357ZM257.563 200H300.008C302.511 200.92 305.22 201.914 308.188 202.995C304.944 202.995 301.987 203.003 299.261 203.012H299.26C282.236 203.063 274.158 203.087 260.86 200.742C259.741 200.545 258.63 200.297 257.563 200ZM298.687 185H266.408C265.609 184.798 264.793 184.585 263.956 184.361C257.677 182.679 251.83 179.387 252.952 175.201C254.073 171.015 260.783 171.088 267.061 172.77C278.88 175.937 285.992 179.055 298.687 185ZM328.341 185C346.05 134.897 393.833 99 450 99C506.168 99 553.951 134.897 571.66 185H328.341ZM633.593 185H601.314C614.009 179.055 621.121 175.937 632.939 172.77C639.218 171.088 645.928 171.015 647.049 175.201C648.171 179.387 642.324 182.679 636.045 184.361C635.208 184.585 634.392 184.798 633.593 185ZM460.67 37.2039C461.236 30.7286 463.463 24.3985 467.78 24.7763C472.098 25.154 473.191 31.7745 472.624 38.2497C471.447 51.7015 469.333 59.4974 464.878 75.929C464.164 78.5609 463.39 81.4143 462.551 84.548C462.268 81.3162 462.002 78.3718 461.756 75.6561V75.6559C460.221 58.7002 459.493 50.6557 460.67 37.2039ZM485.425 27.0992C481.156 26.3466 478.387 32.4586 477.258 38.8598C474.914 52.1579 474.938 60.2353 474.989 77.2603C474.997 79.9872 475.006 82.9436 475.006 86.1877C476.115 83.1391 477.135 80.3641 478.075 77.8044C483.946 61.8236 486.731 54.2417 489.076 40.9436C490.205 34.5424 489.693 27.8518 485.425 27.0992ZM493.639 41.9552C495.322 35.6767 498.613 29.8294 502.799 30.9511C506.986 32.0728 506.913 38.7826 505.23 45.0611C501.736 58.1042 498.3 65.4145 491.059 80.8228C489.899 83.2907 488.641 85.9664 487.27 88.9067C487.553 85.6759 487.802 82.7307 488.031 80.0142L488.032 80.0117C489.465 63.0471 490.144 54.9983 493.639 41.9552ZM519.773 36.3027C515.7 34.8204 511.911 40.3586 509.688 46.4666C505.07 59.1555 503.691 67.1143 500.785 83.8896C500.319 86.5765 499.815 89.4894 499.251 92.6843C500.871 89.8788 502.355 87.3264 503.724 84.9718L503.73 84.9612L503.73 84.9606C512.287 70.2425 516.346 63.2595 520.964 50.5708C523.188 44.4628 523.845 37.785 519.773 36.3027ZM525.283 52.3595C528.03 46.4685 532.287 41.2816 536.215 43.1132C540.142 44.9448 538.905 51.5399 536.158 57.4309C530.452 69.6683 525.799 76.271 515.993 90.1862L515.993 90.1866L515.993 90.1873L515.992 90.1879L515.992 90.1885L515.989 90.193C514.419 92.4208 512.717 94.836 510.857 97.4917C511.697 94.358 512.454 91.4999 513.152 88.8638C517.509 72.4059 519.576 64.5975 525.283 52.3595ZM552 51.3308C548.247 49.1638 543.554 53.96 540.304 59.5891C533.553 71.2833 530.813 78.8818 525.038 94.8975L525.035 94.9055C524.111 97.4685 523.109 100.247 522 103.292C524.086 100.807 525.993 98.548 527.752 96.4644C538.734 83.4553 543.945 77.2833 550.697 65.5891C553.947 59.96 555.754 53.4978 552 51.3308ZM554.639 68.1005C558.367 62.776 563.46 58.4071 567.01 60.893C570.56 63.3789 568.197 69.6589 564.468 74.9834C556.723 86.0446 550.995 91.739 538.92 103.741L538.915 103.746L538.907 103.755L538.892 103.769L538.889 103.772L538.883 103.779L538.851 103.81L538.848 103.813L538.836 103.825L538.816 103.844C536.911 105.738 534.848 107.789 532.595 110.042C533.967 107.102 535.208 104.419 536.353 101.944C543.502 86.4925 546.893 79.1617 554.639 68.1005ZM581.129 71.7269C577.809 68.9411 572.355 72.8495 568.177 77.8288C559.497 88.1729 555.479 95.1802 547.011 109.95L547.009 109.953L546.992 109.983C545.641 112.339 544.176 114.893 542.562 117.69C545.044 115.607 547.311 113.716 549.403 111.971L549.412 111.964C562.486 101.06 568.689 95.8863 577.369 85.5422C581.547 80.5629 584.449 74.5128 581.129 71.7269ZM580.815 88.7C585.411 84.1038 591.186 80.6856 594.25 83.7502C597.315 86.8148 593.897 92.5891 589.3 97.1852C579.753 106.733 573.122 111.346 559.148 121.069L559.148 121.069L559.147 121.069L559.147 121.07L559.147 121.07L559.142 121.073L559.13 121.081L559.089 121.11C556.867 122.656 554.458 124.332 551.824 126.177C553.685 123.519 555.373 121.093 556.93 118.854C566.654 104.879 571.267 98.2482 580.815 88.7ZM606.273 96.8713C603.488 93.5513 597.437 96.4532 592.458 100.631C582.114 109.311 576.941 115.514 566.036 128.589C564.29 130.683 562.396 132.953 560.311 135.439C563.12 133.816 565.685 132.346 568.051 130.99C582.82 122.521 589.828 118.504 600.172 109.824C605.151 105.646 609.059 100.191 606.273 96.8713ZM603.017 113.532C608.341 109.804 614.622 107.44 617.107 110.99C619.593 114.541 615.224 119.634 609.9 123.362C598.839 131.107 591.508 134.499 576.057 141.647L576.049 141.651L576.03 141.66L576.009 141.669C573.547 142.808 570.88 144.043 567.958 145.405C570.249 143.114 572.331 141.02 574.251 139.088L574.259 139.08C586.261 127.006 591.956 121.277 603.017 113.532ZM626.67 126C624.503 122.247 618.04 124.054 612.411 127.304C600.717 134.055 594.545 139.266 581.536 150.249C579.452 152.008 577.193 153.915 574.708 156C577.757 154.89 580.538 153.887 583.103 152.963C599.119 147.188 606.717 144.448 618.411 137.696C624.04 134.446 628.837 129.753 626.67 126ZM620.57 141.842C626.461 139.095 633.056 137.858 634.887 141.786C636.719 145.714 631.532 149.971 625.641 152.718C613.403 158.424 605.595 160.492 589.136 164.849C586.5 165.547 583.642 166.303 580.509 167.143C583.121 165.314 585.501 163.637 587.699 162.088L587.72 162.073L587.742 162.058L587.762 162.044L587.793 162.022L587.796 162.02L587.801 162.016L587.812 162.008L587.812 162.008L587.813 162.008C601.729 152.201 608.332 147.549 620.57 141.842ZM641.698 158.228C640.215 154.155 633.538 154.813 627.43 157.036C614.741 161.654 607.758 165.714 593.039 174.271L593.028 174.277L593.003 174.291C590.656 175.656 588.112 177.135 585.316 178.749C588.511 178.186 591.424 177.681 594.11 177.216L594.111 177.216C610.886 174.309 618.845 172.931 631.534 168.312C637.642 166.089 643.18 162.301 641.698 158.228ZM258.303 158.228C256.821 162.301 262.359 166.089 268.467 168.312C281.156 172.931 289.115 174.309 305.89 177.216L305.89 177.216L305.927 177.222L305.942 177.225L305.958 177.227C308.626 177.69 311.517 178.19 314.685 178.749C311.876 177.127 309.321 175.642 306.964 174.272L306.962 174.271C292.243 165.714 285.26 161.654 272.571 157.036C266.463 154.813 259.785 154.155 258.303 158.228ZM274.36 152.718C268.469 149.971 263.282 145.714 265.114 141.786C266.945 137.858 273.54 139.095 279.431 141.842C291.669 147.549 298.272 152.201 312.188 162.008L312.188 162.008L312.188 162.008L312.189 162.008C314.418 163.579 316.834 165.282 319.492 167.143C316.359 166.303 313.501 165.547 310.865 164.849C294.406 160.492 286.598 158.424 274.36 152.718ZM273.331 126C271.164 129.753 275.96 134.446 281.59 137.696C293.284 144.448 300.882 147.188 316.898 152.963C319.463 153.888 322.244 154.89 325.293 156C322.807 153.915 320.548 152.008 318.465 150.248C305.456 139.266 299.284 134.055 287.59 127.304C281.96 124.054 275.498 122.247 273.331 126ZM290.101 123.362C284.776 119.634 280.407 114.541 282.893 110.99C285.379 107.44 291.659 109.804 296.984 113.532C308.045 121.277 313.739 127.006 325.742 139.08L325.742 139.08C327.664 141.014 329.748 143.111 332.042 145.405C329.112 144.039 326.437 142.801 323.97 141.659L323.959 141.654L323.947 141.649L323.944 141.647C308.493 134.499 301.162 131.107 290.101 123.362ZM293.727 96.8713C290.941 100.191 294.85 105.646 299.829 109.824C310.173 118.504 317.18 122.521 331.95 130.989L331.952 130.99L331.971 131.001C334.331 132.354 336.889 133.821 339.69 135.439C337.605 132.954 335.712 130.684 333.965 128.59L333.964 128.589C323.06 115.514 317.887 109.311 307.543 100.631C302.563 96.4532 296.513 93.5513 293.727 96.8713ZM310.7 97.1852C306.104 92.5891 302.686 86.8148 305.751 83.7502C308.815 80.6856 314.589 84.1038 319.186 88.7C328.734 98.2482 333.347 104.879 343.07 118.854C344.628 121.092 346.316 123.519 348.177 126.177C345.52 124.316 343.093 122.627 340.854 121.07L340.854 121.07L340.854 121.07C326.879 111.347 320.248 106.733 310.7 97.1852ZM318.872 71.7269C315.552 74.5128 318.454 80.5629 322.632 85.5422C331.311 95.8863 337.515 101.06 350.589 111.964L350.591 111.966C352.685 113.712 354.955 115.605 357.439 117.69C355.817 114.88 354.346 112.315 352.99 109.95C344.522 95.1801 340.504 88.1728 331.824 77.8288C327.646 72.8495 322.192 68.9411 318.872 71.7269ZM335.532 74.9834C331.804 69.6589 329.441 63.3789 332.991 60.893C336.541 58.4071 341.634 62.776 345.362 68.1005C353.107 79.1617 356.499 86.4925 363.648 101.944C364.793 104.419 366.034 107.102 367.405 110.042C365.111 107.748 363.015 105.664 361.081 103.741C349.006 91.739 343.278 86.0446 335.532 74.9834ZM348 51.3308C344.247 53.4978 346.054 59.96 349.304 65.5891C356.056 77.2833 361.266 83.4553 372.249 96.4644C374.008 98.548 375.915 100.807 378 103.292C376.892 100.247 375.89 97.4691 374.966 94.9063L374.965 94.9024L374.963 94.8974L374.963 94.8973L374.963 94.897L374.963 94.8969C369.188 78.8816 366.448 71.2831 359.697 59.5891C356.447 53.96 351.754 49.1638 348 51.3308ZM363.842 57.4309C361.095 51.5399 359.858 44.9448 363.786 43.1132C367.714 41.2816 371.971 46.4685 374.718 52.3595C380.425 64.5975 382.492 72.4059 386.849 88.8639L386.849 88.8649C387.547 91.5007 388.304 94.3584 389.143 97.4917C387.283 94.8342 385.58 92.4175 384.009 90.1884C374.202 76.2717 369.549 69.669 363.842 57.4309ZM380.228 36.3027C376.156 37.785 376.813 44.4628 379.036 50.5708C383.655 63.2596 387.714 70.2427 396.271 84.9611C397.642 87.3186 399.127 89.8746 400.749 92.6843C400.186 89.4894 399.681 86.5764 399.216 83.8896L399.216 83.8892C396.31 67.1142 394.931 59.1554 390.313 46.4666C388.09 40.3586 384.301 34.8204 380.228 36.3027ZM394.77 45.0611C393.088 38.7826 393.015 32.0728 397.201 30.9511C401.388 29.8294 404.679 35.6767 406.362 41.9552C409.856 54.9983 410.536 63.0471 411.969 80.0117L411.969 80.0142C412.199 82.7307 412.448 85.6759 412.73 88.9067C411.36 85.9673 410.103 83.2924 408.943 80.825L408.942 80.8226C401.701 65.4144 398.265 58.1041 394.77 45.0611ZM414.576 27.0992C410.308 27.8518 409.796 34.5424 410.925 40.9436C413.27 54.2417 416.055 61.8236 421.926 77.8045L421.929 77.8124L421.933 77.824C422.871 80.3782 423.888 83.1469 424.995 86.1877C424.995 82.9434 425.004 79.9869 425.012 77.26V77.2597C425.063 60.2351 425.087 52.1577 422.742 38.8598C421.614 32.4586 418.844 26.3466 414.576 27.0992ZM427.376 38.2497C426.81 31.7745 427.903 25.154 432.221 24.7763C436.538 24.3985 438.764 30.7286 439.331 37.2039C440.508 50.6556 439.78 58.7001 438.245 75.6557L438.244 75.6675L438.243 75.6718C437.998 78.3832 437.732 81.3224 437.45 84.548C436.611 81.418 435.838 78.5677 435.126 75.9384L435.123 75.9289L435.123 75.9287L435.123 75.9284C430.667 59.4972 428.553 51.7014 427.376 38.2497Z" fill="#CCCCCC"/>
        <path id="2" d="M0 200H900V400H0V200Z" fill="#DDDDDD"/>
        <path id="3" d="M0 400H900V600H0V400Z" fill="#EDEDF0"/>
    </g>
    <defs>
        <clipPath id="clip0_2052_123">
            <rect width="900" height="600" fill="white"/>
        </clipPath>
    </defs>
</svg>
