<svg width="900" height="600" viewBox="0 0 900 600" fill="none"
    xmlns="http://www.w3.org/2000/svg">
    <g clip-path="url(#clip0_1945_831)">
        <path id="1" d="M0 0H900V187.5H0V0Z" fill="#EDEDF0"/>
        <path id="2" d="M0 206H900V394H0V206Z" fill="#DDDDDD"/>
        <path id="3" d="M0 412.5H900V600H0V412.5Z" fill="#EDEDF0"/>
        <path d="M0 188H900V206H0V188Z" fill="white"/>
        <path d="M0 394H900V413H0V394Z" fill="white"/>
        <path id="4" d="M0 0V600L393.75 300L0 0Z" fill="#CCCCCC"/>
        <path d="M204.371 412.485L131.217 358.925L58.1608 412.5L86.4928 326.376L12.9648 273.452L103.629 273.784L131.242 187.5L158.942 273.83L249.536 273.427L175.992 326.45L204.371 412.485Z" fill="#FCE100"/>
        <path fill-rule="evenodd" clip-rule="evenodd" d="M67.7246 352.429H120.424C124.664 357.186 134.124 359.126 143.135 352.373C159.653 343.328 191.608 352.429 191.608 352.429L197.9 345.744L182.562 295.404L177.056 289.505C177.056 289.505 165.259 282.427 142.841 284.786C120.424 287.146 112.558 284 112.558 284C112.558 284 92.8946 286.36 87.3876 289.112C86.7836 289.602 81.0956 295.404 81.0956 295.404L67.7246 352.429Z" fill="white" stroke="black" stroke-width="1.57465" stroke-linecap="round" stroke-linejoin="round"/>
        <path d="M78.3438 339.448C78.3438 339.448 128.683 333.155 143.234 352.425C135.016 358.049 127.781 358.512 120.031 352.82C121.265 350.763 138.121 333.155 180.989 339.055" stroke="black" stroke-width="1.57465" stroke-linecap="round" stroke-linejoin="round"/>
        <path d="M132.222 289.109L131.829 344.562ZM177.056 289.895L186.495 333.943ZM87.9079 289.203L82.6699 311.919Z" fill="black"/>
        <path d="M132.222 289.109L131.829 344.562M177.056 289.895L186.495 333.943M87.9079 289.203L82.6699 311.919" stroke="black" stroke-width="1.57465" stroke-linecap="round" stroke-linejoin="round"/>
        <path fill-rule="evenodd" clip-rule="evenodd" d="M33.4961 358.462L45.8891 372.993C47.3451 373.861 48.6371 373.806 49.9301 372.993L68.2971 350.953L76.0121 341.402C77.2061 339.987 77.5871 338.409 77.4811 336.994L92.2291 323.889C93.4351 323.972 94.1541 324.109 95.3601 324.19C93.9351 323.821 92.8901 323.127 94.0111 321.565L97.3171 318.994L99.8881 322.299C99.8881 322.299 96.2161 327.075 95.8481 327.075H91.8081L84.0931 334.055L87.4651 337.035L92.5421 350.953L98.7871 346.544L94.7471 332.219L103.563 322.667L100.256 317.524L102.461 314.585C102.461 314.585 132.974 333.795 144.729 328.653C145.047 328.768 145.439 314.953 145.439 314.953C145.439 314.953 113.849 311.647 113.113 305.402C112.379 299.157 120.093 298.422 120.093 298.422L116.786 293.647L117.522 291.075L123.032 298.055L135.522 287.401L208.99 371.156C213.001 369.53 213.858 368.549 214.134 364.544C214.03 364.444 142.134 281.891 142.134 281.891L147.644 276.015C148.73 274.79 149.112 274.27 149.114 272.34L157.562 264.994C160.103 265.867 161.723 267.39 163.072 269.401L186.3 249.716C186.912 250.328 188.772 250.94 190.034 250.252L228.436 213.391L186.582 242.953L185.113 241.851C185.113 240.626 186.631 240.324 185.113 238.178C183.487 236.226 181.073 240.014 180.706 240.014C180.338 240.014 174.648 238.004 173.401 235.456L172.991 242.218L162.338 252.137L154.257 251.769L142.501 263.157L141.032 267.565L142.869 271.239C142.869 271.239 136.623 276.749 136.623 276.381C136.623 276.015 135.361 274.758 135.307 274.595L140.664 269.769L141.399 266.463L139.611 263.672C139.069 264.066 132.215 271.239 131.847 270.504C131.235 269.818 112.012 248.096 112.012 248.096L113.113 244.056L100.624 230.463C96.0711 228.891 88.8691 228.627 87.3991 238.545C86.2551 240.875 76.7461 238.912 76.7461 238.912L71.6031 240.014L42.5831 281.157L58.7461 300.626L91.8071 258.749L92.7891 246.885L99.7261 254.642C102.039 254.939 104.242 254.965 106.338 253.907L125.926 275.77L122.664 278.953C123.766 280.177 124.524 280.959 125.627 282.183C126.729 281.449 127.781 280.568 128.883 279.832C129.251 280.323 129.863 281.254 130.231 281.744C128.59 282.637 127.438 283.826 125.797 284.72C123.171 283.008 120.635 280.876 120.827 277.484L109.807 286.667L109.44 288.504L76.7461 315.687L73.8071 316.055L73.0731 324.504L94.3791 306.872V304.299L96.5831 306.136L113.113 292.913C113.113 292.913 114.215 294.382 113.849 294.382C113.481 294.382 99.1541 307.606 99.1541 307.606L98.7871 309.075L96.2161 311.279L94.7461 310.177L74.9091 327.809H71.9711L60.9511 338.831C58.1081 339.078 55.6451 339.379 53.2361 341.034L33.4961 358.462Z" fill="black" stroke="black" stroke-width="1.57465" stroke-linecap="round" stroke-linejoin="round"/>
    </g>
    <defs>
        <clipPath id="clip0_1945_831">
            <rect width="900" height="600" fill="white"/>
        </clipPath>
    </defs>
</svg>
