<svg width="900" height="600" viewBox="0 0 900 600" fill="none"
    xmlns="http://www.w3.org/2000/svg">
    <g clip-path="url(#clip0_2055_555)">
        <path id="1" d="M0 600V0H900L0 600Z" fill="#EDEDF0"/>
        <path id="2" d="M900 0V600H0L900 0Z" fill="#DDDDDD"/>
        <path d="M0 600L900 0" stroke="white" stroke-width="200"/>
        <path id="3" d="M0 600L900 0" stroke="#CCCCCC" stroke-width="150"/>
        <g id="4">
            <path fill-rule="evenodd" clip-rule="evenodd" d="M195.5 105.406L180 63.4062L164.5 105.406L130 76.8063L137.592 120.961C148.449 110.114 163.441 103.406 180 103.406C196.559 103.406 211.551 110.114 222.408 120.961L230 76.8063L195.5 105.406ZM222.445 120.999C233.292 131.855 240 146.847 240 163.406C240 179.965 233.292 194.958 222.445 205.814L266.6 213.406L238 178.906L280 163.406L238 147.906L266.6 113.406L222.445 120.999ZM222.408 205.851C211.551 216.698 196.559 223.406 180 223.406C163.441 223.406 148.449 216.698 137.592 205.851L130 250.006L164.5 221.406L180 263.406L195.5 221.406L230 250.006L222.408 205.851ZM137.555 205.814C126.708 194.958 120 179.965 120 163.406C120 146.847 126.708 131.855 137.555 120.999L93.4 113.406L122 147.906L80 163.406L122 178.906L93.4 213.406L137.555 205.814Z" fill="#DDDDDD"/>
            <path d="M180 218.406C210.376 218.406 235 193.782 235 163.406C235 133.031 210.376 108.406 180 108.406C149.624 108.406 125 133.031 125 163.406C125 193.782 149.624 218.406 180 218.406Z" fill="#DDDDDD"/>
        </g>
    </g>
    <defs>
        <clipPath id="clip0_2055_555">
            <rect width="900" height="600" fill="white"/>
        </clipPath>
    </defs>
</svg>
