<svg width="1000" height="600" viewBox="0 0 1000 600" fill="none"
    xmlns="http://www.w3.org/2000/svg">
    <g clip-path="url(#clip0_2062_931)">
        <path id="1" d="M0 0H1000V600H0V0Z" fill="#EDEDF0"/>
        <path id="2" d="M0 200H1000V400H0V200Z" fill="#DDDDDD"/>
        <path d="M410 299.329L419.979 299.996C420.012 299.51 420.043 299.024 420.077 298.538L416.152 298.276C416.251 296.673 416.385 295.071 416.456 293.466C417.844 292.462 419.234 291.46 420.617 290.449L420.741 288.601L416.353 291.787C416.205 290.749 415.631 289.68 414.588 289.319C413.675 288.989 412.556 288.931 411.765 289.584C410.762 290.322 410.581 291.642 410.451 292.791C410.276 294.968 410.154 297.151 410 299.329ZM411.52 297.967C411.64 296.329 411.714 294.687 411.87 293.053C411.994 292.245 412.142 291.311 412.85 290.796C413.49 290.372 414.434 290.688 414.696 291.41C415.218 292.657 414.986 294.032 414.919 295.34L414.729 298.181C413.659 298.111 412.589 298.039 411.52 297.967ZM411.299 284.006L421.037 286.28L423.25 276.802L421.867 276.478L419.984 284.541L417.02 283.849L418.716 276.583L417.339 276.262L415.643 283.528L413.02 282.915L414.832 275.155L413.442 274.83L411.299 284.006ZM414.807 270.929L424.252 274.214L424.732 272.834L421.017 271.542C421.502 270.113 422.033 268.7 422.479 267.258C422.799 266.081 423.046 264.706 422.353 263.611C421.791 262.802 420.791 262.284 419.803 262.315C418.715 262.361 417.828 263.162 417.345 264.09C416.631 265.432 416.232 266.908 415.711 268.33L414.807 270.929ZM416.632 270.017C417.138 268.6 417.594 267.165 418.142 265.763C418.482 265.014 418.897 264.126 419.759 263.888C420.467 263.725 421.21 264.27 421.272 264.996C421.445 266.332 420.861 267.593 420.451 268.833L419.671 271.074L416.632 270.017ZM420.024 258.833C421.804 259.866 423.571 260.926 425.362 261.94C426.372 262.483 427.652 262.794 428.709 262.186C430.149 261.388 431.052 259.915 431.759 258.478C432.318 257.268 432.722 255.765 432.011 254.528C431.246 253.293 429.855 252.725 428.668 251.988L425.211 249.966L424.477 251.22C426.171 252.218 427.877 253.195 429.563 254.206C430.37 254.697 431.038 255.586 430.899 256.575C430.739 257.753 430.066 258.786 429.396 259.739C428.842 260.509 427.913 261.132 426.926 260.924C425.897 260.727 425.061 260.054 424.157 259.567L420.757 257.578L420.024 258.833ZM427.227 247.062L435.169 253.139C436.401 251.529 437.629 249.916 438.87 248.315C439.582 247.293 440.238 245.965 439.756 244.711C439.317 243.713 438.29 242.941 437.188 242.891C436.691 242.821 436.043 243.198 435.774 243.364C436.057 242.298 435.184 241.296 434.202 241.014C433.02 240.594 431.822 241.352 431.039 242.192C430.119 243.193 429.351 244.321 428.509 245.387L427.227 247.062ZM429.241 246.764C430.171 245.574 431.051 244.343 432.024 243.188C432.477 242.684 433.204 242.113 433.906 242.483C434.546 242.76 434.704 243.568 434.398 244.149C433.913 245.189 433.112 246.032 432.444 246.954L431.354 248.38L429.241 246.764ZM432.477 249.24C433.442 248.007 434.35 246.727 435.367 245.537C435.887 244.993 436.54 244.308 437.364 244.465C438.069 244.627 438.581 245.391 438.338 246.101C437.941 247.41 436.962 248.412 436.173 249.497L434.933 251.119L432.477 249.24ZM436.231 236.455L443.098 243.724L448.981 238.166L448.005 237.133L443.3 241.579L443.18 241.693L443.092 241.601L437.287 235.457L436.231 236.455ZM445.035 228.752L451.13 236.68L452.32 235.765L446.224 227.838L445.035 228.752ZM453.991 222.67C453.003 223.285 452.207 224.005 451.593 224.846C450.982 225.683 450.652 226.556 450.604 227.468C450.557 228.38 450.8 229.262 451.337 230.125C451.82 230.905 452.502 231.541 453.313 231.969C454.133 232.408 455.019 232.57 455.989 232.462C456.954 232.354 458.044 231.927 459.259 231.17C460.424 230.444 461.249 229.608 461.759 228.646C462.247 227.722 462.384 226.742 462.175 225.698L460.792 226.241C461.154 228.239 459.865 229.199 458.422 230.115C456.163 231.489 453.962 231.39 452.614 229.325C451.216 226.998 452.744 225.075 454.665 223.825C456.029 222.975 457.373 222.393 458.653 223.207L459.735 222.243C458.99 221.729 458.143 221.491 457.18 221.543C456.168 221.599 455.111 221.972 453.991 222.67ZM465.808 216.773L464.761 227.979L466.318 227.351L466.633 223.877L466.639 223.874L471.697 221.834L474.334 224.118L475.891 223.491L467.365 216.145L465.807 216.773H465.808ZM467.176 217.922L470.501 220.799L466.778 222.301L467.176 217.922ZM487.726 210.591L488.35 220.571C490.155 220.45 491.962 220.365 493.764 220.216C495.182 220.053 496.703 219.685 497.672 218.556C498.923 217.169 499.101 215.095 498.553 213.368C498.093 211.848 496.726 210.697 495.178 210.405C493.653 210.112 492.099 210.344 490.564 210.413L487.726 210.591ZM489.266 211.918C490.702 211.843 492.136 211.702 493.575 211.694C494.395 211.666 495.2 211.913 495.863 212.395C496.863 213.079 497.451 214.311 497.32 215.52C497.248 216.91 496.226 218.189 494.875 218.54C494.103 218.74 493.299 218.797 492.508 218.884L489.712 219.059L489.265 211.919L489.266 211.918ZM501.664 210L501.094 219.984L510.811 220.539L510.891 219.121C508.136 218.963 505.381 218.805 502.625 218.649C502.683 217.636 502.742 216.623 502.799 215.609L510.248 216.035L510.328 214.624C507.846 214.482 505.363 214.339 502.879 214.198L503.033 211.509C505.685 211.659 508.337 211.812 510.989 211.963L511.071 210.538L501.664 210ZM527.774 214.166L524.158 223.489L525.444 223.989L528.311 216.596L528.46 216.212L528.62 216.639L532.068 226.557L533.752 227.21L537.368 217.887L536.078 217.387L533.213 224.776L533.067 225.153L532.909 224.731L529.455 214.818L527.774 214.166ZM541.208 219.937L536.662 228.844L535.326 228.162L539.872 219.255L541.208 219.937ZM548.751 224.356C547.78 223.716 546.793 223.291 545.773 223.085C544.758 222.878 543.826 222.943 542.978 223.28C542.129 223.617 541.428 224.206 540.868 225.055C540.361 225.819 540.067 226.704 540.017 227.62C539.961 228.548 540.182 229.42 540.686 230.257C541.186 231.089 542.03 231.902 543.223 232.689C544.37 233.446 545.474 233.847 546.561 233.909C547.604 233.967 548.552 233.683 549.413 233.057L548.343 232.027C546.678 233.19 545.268 232.419 543.833 231.489C541.643 230.009 540.814 227.968 542.128 225.881C543.66 223.639 546.045 224.226 547.982 225.451C549.325 226.336 550.414 227.314 550.208 228.817L551.536 229.398C551.692 228.506 551.556 227.638 551.105 226.784C550.632 225.888 549.853 225.083 548.751 224.356ZM558.272 231.538L547.818 235.708L549.087 236.808L552.323 235.507L552.328 235.512L556.447 239.087L555.614 242.474L556.882 243.575L559.54 232.639L558.272 231.539V231.538ZM557.872 233.279L556.824 237.549L553.792 234.918L557.872 233.279ZM565.825 238.486L558.109 244.849L559.038 245.976L562.073 243.473C563.101 244.707 564.102 245.965 565.153 247.18C564.831 248.863 564.509 250.546 564.196 252.23L565.374 253.66L566.38 248.33C567.244 249.038 568.507 249.394 569.54 248.833C570.428 248.413 571.21 247.605 571.256 246.576C571.364 245.197 570.381 244.08 569.594 243.057C568.338 241.533 567.08 240.01 565.825 238.486ZM565.655 240.52C566.735 241.854 567.869 243.146 568.901 244.518C569.376 245.226 569.969 246.22 569.424 247.046C568.974 247.753 567.989 247.691 567.384 247.233C566.16 246.409 565.351 245.146 564.395 244.049L563.172 242.566L565.655 240.52ZM577.523 254.401L566.28 254.916L567.118 256.372L570.602 256.202L570.605 256.208L573.325 260.935L571.429 263.863L572.266 265.318L578.36 255.856L577.523 254.401ZM576.575 255.915L574.185 259.606L572.183 256.126L576.575 255.916V255.915ZM583.939 267.638C583.314 265.941 582.328 264.204 580.659 263.356C578.803 262.423 576.331 262.876 575.015 264.511C573.868 265.871 573.809 267.792 574.115 269.463C574.477 271.381 575.357 273.207 576.678 274.649L575.931 274.917L576.41 276.248L581.094 274.565L579.272 269.506L578.19 269.896L579.53 273.624L577.943 274.194C576.543 272.991 575.763 271.214 575.357 269.446C575.056 268.119 575.044 266.529 576.05 265.486C577.205 264.284 579.252 263.911 580.637 264.936C582.004 265.936 582.776 267.557 583.166 269.169C583.432 270.229 583.389 271.489 582.585 272.316C582.36 272.484 582.716 272.719 582.777 272.921L583.159 273.553C583.581 273.22 583.922 272.795 584.155 272.31C584.388 271.825 584.507 271.294 584.503 270.756C584.531 269.692 584.297 268.636 583.939 267.638ZM586.811 275.447L581.218 276.535C580.181 276.737 579.403 277.065 578.884 277.503C578.366 277.94 578.034 278.555 577.875 279.374C577.717 280.184 577.739 281.177 577.972 282.384C577.974 282.394 577.976 282.403 577.977 282.413C578.214 283.62 578.565 284.548 579.016 285.24C579.471 285.94 580.009 286.386 580.652 286.596C581.297 286.807 582.142 286.821 583.18 286.619L588.772 285.531L588.495 284.104L583.037 285.166C580.587 285.642 579.762 284.353 579.341 282.147L579.336 282.119C578.899 279.917 579.181 278.412 581.631 277.935L587.089 276.874L586.811 275.447ZM589.879 292.467L579.531 288.042L579.652 289.717L582.864 291.079V291.086L583.258 296.526L580.277 298.337L580.398 300.012L590 294.142L589.879 292.467ZM588.367 293.418L584.61 295.703L584.32 291.699L588.367 293.419V293.418ZM417.752 318.335L416.301 318.717L417.905 324.809L419.355 324.428L417.752 318.335ZM582.283 318.335L583.733 318.717L582.13 324.809L580.68 324.427L582.283 318.335ZM433.217 343.989L422.037 345.275L422.972 346.67L426.436 346.261L426.44 346.267L429.479 350.797L427.787 353.847L428.723 355.242L434.153 345.384L433.217 343.989ZM432.375 345.565L430.245 349.411L428.008 346.078L432.375 345.565ZM437.497 350.098L430.37 356.763L431.322 357.781L437.328 352.164L434.177 360.834L435.268 362.001L443.88 359.387L437.982 364.903L438.933 365.92L446.06 359.256L444.615 357.71L435.864 360.324L439.14 351.855L437.497 350.098ZM447.878 360.689L441.862 368.677L449.638 374.532L450.492 373.397L443.878 368.417L445.709 365.985L451.669 370.473L452.52 369.344L446.56 364.856L448.18 362.704L454.546 367.498L455.406 366.358L447.878 360.689ZM457.662 367.85L452.952 376.673C453.382 376.903 453.812 377.131 454.24 377.361L456.093 373.891C457.513 374.64 458.918 375.421 460.353 376.145C460.697 377.823 461.04 379.502 461.392 381.179L463.026 382.051L461.926 376.741C462.995 377.066 464.298 376.913 465.039 376.001C465.669 375.296 466.097 374.308 465.795 373.361C465.444 372.058 464.161 371.376 463.078 370.744C461.275 369.775 459.466 368.816 457.662 367.85ZM458.279 369.795C459.786 370.617 461.327 371.38 462.804 372.255C463.488 372.718 464.357 373.35 464.271 374.282C464.195 375.1 463.313 375.536 462.568 375.362C461.108 375.121 459.878 374.251 458.578 373.602L456.764 372.633L458.279 369.795ZM468.957 373.756L465.178 383.015L466.568 383.581L470.346 374.323L468.957 373.756ZM477.975 376.871C476.87 376.504 475.808 376.351 474.769 376.416C473.735 376.481 472.852 376.785 472.12 377.331C471.388 377.877 470.864 378.628 470.544 379.592C470.252 380.462 470.198 381.393 470.388 382.291C470.575 383.201 471.015 383.987 471.718 384.664C472.418 385.337 473.443 385.904 474.8 386.354C476.104 386.786 477.275 386.888 478.34 386.664C479.362 386.45 480.204 385.93 480.874 385.102L479.573 384.384C478.267 385.94 476.705 385.562 475.078 385.036C472.578 384.176 471.248 382.42 471.975 380.063C472.872 377.501 475.328 377.448 477.517 378.128C479.043 378.634 480.349 379.296 480.54 380.801L481.973 381.017C481.893 380.115 481.535 379.312 480.879 378.605C480.189 377.862 479.228 377.287 477.975 376.871ZM488.029 379.122L481.489 388.282L483.151 388.522L485.17 385.677H485.177L490.575 386.459L491.705 389.759L493.367 389.999L489.691 379.362L488.029 379.122ZM488.634 380.802L490.06 384.962L486.087 384.387L488.634 380.803V380.802ZM511.47 379.193C510.327 379.413 509.326 379.8 508.452 380.365C507.582 380.928 506.96 381.625 506.589 382.459C506.219 383.293 506.129 384.205 506.322 385.203C506.493 386.104 506.902 386.943 507.506 387.633C508.115 388.336 508.883 388.805 509.828 389.051C510.768 389.296 511.938 389.287 513.343 389.016C514.691 388.756 515.761 388.271 516.581 387.555C517.368 386.867 517.848 386.001 518.026 384.952L516.541 384.962C516.163 386.959 514.616 387.393 512.94 387.732C510.339 388.205 508.32 387.324 507.8 384.913C507.328 382.239 509.444 380.991 511.686 380.513C513.264 380.208 514.727 380.146 515.63 381.365L516.986 380.852C516.474 380.105 515.769 379.579 514.851 379.284C513.886 378.974 512.766 378.943 511.47 379.193ZM518.148 378.01L520.992 387.597L530.323 384.828L529.919 383.466L521.982 385.821L521.116 382.903L528.269 380.781L527.867 379.426L520.714 381.548L519.948 378.966L527.588 376.699L527.181 375.329L518.148 378.01ZM528.966 374.61L533.164 383.686L534.416 383.106L530.915 375.537C534.152 377.005 537.37 378.517 540.599 380.001C540.814 380.188 541.029 380.063 541.245 379.948L542.504 379.366L538.306 370.29L537.051 370.87L540.548 378.43C537.224 376.923 533.918 375.376 530.602 373.853L528.966 374.61ZM539.947 369.452L540.73 370.642L544.302 368.292L544.438 368.202L544.505 368.305L549.152 375.365L550.366 374.566L545.719 367.506L545.652 367.403L545.79 367.313L549.38 364.95L548.596 363.76L539.947 369.452ZM550.009 362.562L556.786 369.917L557.861 368.927L555.195 366.035C556.371 364.94 557.571 363.872 558.727 362.756C560.425 362.984 562.123 363.213 563.822 363.434L565.184 362.179L559.808 361.467C560.468 360.565 560.753 359.284 560.136 358.284C559.668 357.421 558.818 356.684 557.788 356.694C556.406 356.663 555.344 357.706 554.366 358.548C552.914 359.885 551.461 361.226 550.009 362.562ZM552.049 362.62C553.322 361.469 554.549 360.265 555.863 359.16C556.543 358.646 557.503 358 558.359 358.498C559.089 358.908 559.082 359.896 558.657 360.524C557.901 361.794 556.682 362.671 555.639 363.687L554.229 364.987L552.049 362.62ZM561.643 350.918L566.116 361.245L567.18 359.945L565.784 356.748L565.788 356.743L569.241 352.522L572.651 353.256L573.715 351.956L562.705 349.619L561.643 350.919V350.918ZM563.395 351.267L567.695 352.19L565.152 355.297L563.395 351.267ZM565.998 345.253L574.388 350.693L578.791 343.903L577.599 343.131L574.077 348.562L573.987 348.702L573.881 348.632L566.789 344.034L565.998 345.253Z" fill="#C8A400"/>
        <mask id="mask0_2062_931" style="mask-type:luminance" maskUnits="userSpaceOnUse" x="436" y="226" width="128" height="111">
            <path d="M499.999 226.375L436.297 336.707H563.699L499.999 226.375Z" fill="white"/>
        </mask>
        <g mask="url(#mask0_2062_931)">
            <path d="M500.001 226.414L468.522 280.949L453.102 307.651H546.9L532.186 282.167L500.002 226.414H500.001Z" fill="white"/>
            <path opacity="0.62" d="M500.002 226.414L497.645 230.496L500.002 285.473L502.359 230.496L500.002 226.414Z" fill="#17C0EB" stroke="#17C0EB" stroke-width="0.129"/>
            <path d="M500.001 277.484L499.867 277.487L500.001 280.598L500.135 277.487L500.001 277.484Z" fill="white"/>
            <path opacity="0.62" d="M556.17 267.226L551.559 266.246L500.001 285.476L553.016 270.729L556.17 267.226Z" fill="#17C0EB" stroke="#17C0EB" stroke-width="0.129"/>
            <path d="M507.604 283.01L507.56 282.884L504.642 283.973L507.642 283.139L507.604 283.01Z" fill="white"/>
            <path opacity="0.62" d="M534.718 333.253L534.226 328.565L500.004 285.473L530.412 331.336L534.718 333.253Z" fill="#17C0EB" stroke="#17C0EB" stroke-width="0.129"/>
            <path d="M504.7 291.938L504.807 291.857L502.87 289.419L504.59 292.014L504.7 291.938Z" fill="white"/>
            <path opacity="0.62" d="M465.288 333.255L469.595 331.338L500.002 285.475L465.781 328.567L465.288 333.255Z" fill="#17C0EB" stroke="#17C0EB" stroke-width="0.129"/>
            <path d="M495.306 291.945L495.416 292.021L497.136 289.425L495.199 291.863L495.306 291.945Z" fill="white"/>
            <path opacity="0.62" d="M443.834 267.219L446.988 270.722L500.002 285.47L448.444 266.239L443.834 267.219Z" fill="#17C0EB" stroke="#17C0EB" stroke-width="0.129"/>
            <path d="M492.401 282.998L492.362 283.126L495.362 283.96L492.445 282.871L492.401 282.998Z" fill="white"/>
            <path opacity="0.62" d="M508.221 226.992L505.319 230.706L500.001 285.476L509.987 231.362L508.221 226.992Z" fill="#17C0EB" stroke="#17C0EB" stroke-width="0.129"/>
            <path d="M501.113 277.566L500.98 277.55L500.68 280.649L501.245 277.587L501.113 277.566Z" fill="white"/>
            <path opacity="0.62" d="M558.163 275.22L553.734 273.607L500.001 285.475L554.552 278.25L558.163 275.22Z" fill="#17C0EB" stroke="#17C0EB" stroke-width="0.129"/>
            <path d="M507.871 284.085L507.845 283.954L504.804 284.626L507.891 284.218L507.871 284.085Z" fill="white"/>
            <path opacity="0.62" d="M527.727 337.622L527.892 332.911L500.001 285.476L523.73 335.125L527.727 337.622Z" fill="#17C0EB" stroke="#17C0EB" stroke-width="0.129"/>
            <path d="M503.753 292.532L503.87 292.466L502.291 289.782L503.633 292.592L503.753 292.532Z" fill="white"/>
            <path opacity="0.62" d="M458.976 327.956L463.507 326.657L500.002 285.473L460.117 323.383L458.976 327.956Z" fill="#17C0EB" stroke="#17C0EB" stroke-width="0.129"/>
            <path d="M494.45 291.219L494.549 291.31L496.614 288.979L494.356 291.124L494.45 291.219Z" fill="white"/>
            <path opacity="0.62" d="M446.92 259.585L449.556 263.493L500.002 285.474L451.622 259.256L446.92 259.585Z" fill="#17C0EB" stroke="#17C0EB" stroke-width="0.129"/>
            <path d="M492.82 281.973L492.764 282.095L495.619 283.338L492.882 281.854L492.82 281.973Z" fill="white"/>
            <path opacity="0.62" d="M516.277 228.697L512.887 231.971L499.999 285.468L517.418 233.27L516.277 228.697Z" fill="#17C0EB" stroke="#17C0EB" stroke-width="0.129"/>
            <path d="M502.203 277.787L502.073 277.753L501.345 280.78L502.331 277.827L502.203 277.787Z" fill="white"/>
            <path opacity="0.62" d="M559.024 283.41L554.862 281.197L500.001 285.471L555.026 285.908L559.024 283.41Z" fill="#17C0EB" stroke="#17C0EB" stroke-width="0.129"/>
            <path d="M507.989 285.189L507.981 285.055L504.877 285.297L507.991 285.323L507.989 285.189Z" fill="white"/>
            <path opacity="0.62" d="M520.199 340.97L521.018 336.328L500 285.473L516.588 337.941L520.199 340.97Z" fill="#17C0EB" stroke="#17C0EB" stroke-width="0.129"/>
            <path d="M502.733 292.983L502.858 292.935L501.668 290.057L502.607 293.026L502.733 292.983Z" fill="white"/>
            <path opacity="0.62" d="M453.459 321.83L458.127 321.174L499.998 285.47L455.225 317.46L453.459 321.83Z" fill="#17C0EB" stroke="#17C0EB" stroke-width="0.129"/>
            <path d="M493.699 290.387L493.784 290.49L496.153 288.469L493.619 290.279L493.699 290.387Z" fill="white"/>
            <path opacity="0.62" d="M451.037 252.444L453.103 256.681L499.999 285.47L455.739 252.773L451.037 252.444Z" fill="#17C0EB" stroke="#17C0EB" stroke-width="0.129"/>
            <path d="M493.372 280.998L493.299 281.111L495.953 282.74L493.449 280.889L493.372 280.998Z" fill="white"/>
            <path opacity="0.62" d="M524.02 231.513L520.207 234.284L499.999 285.466L524.513 236.201L524.02 231.513Z" fill="#17C0EB" stroke="#17C0EB" stroke-width="0.129"/>
            <path d="M503.251 278.164L503.128 278.112L501.985 281.009L503.373 278.221L503.251 278.164Z" fill="white"/>
            <path opacity="0.62" d="M558.734 291.641L554.921 288.87L499.999 285.468L554.428 293.558L558.734 291.641Z" fill="#17C0EB" stroke="#17C0EB" stroke-width="0.129"/>
            <path d="M507.947 286.305L507.958 286.172L504.85 285.98L507.93 286.438L507.947 286.305Z" fill="white"/>
            <path opacity="0.62" d="M512.277 343.24L513.733 338.757L499.997 285.472L509.122 339.737L512.277 343.24Z" fill="#17C0EB" stroke="#17C0EB" stroke-width="0.129"/>
            <path d="M501.658 293.286L501.788 293.255L501.011 290.24L501.526 293.311L501.658 293.286Z" fill="white"/>
            <path opacity="0.62" d="M448.853 314.998L453.566 314.998L499.999 285.468L451.209 310.916L448.853 314.998Z" fill="#17C0EB" stroke="#17C0EB" stroke-width="0.129"/>
            <path d="M493.078 289.462L493.147 289.577L495.774 287.905L493.013 289.345L493.078 289.462Z" fill="white"/>
            <path opacity="0.62" d="M456.108 245.952L457.565 250.435L499.998 285.47L460.719 246.931L456.108 245.952Z" fill="#17C0EB" stroke="#17C0EB" stroke-width="0.129"/>
            <path d="M494.058 280.119L493.971 280.221L496.373 282.203L494.15 280.022L494.058 280.119Z" fill="white"/>
            <path opacity="0.62" d="M531.3 235.382L527.138 237.595L500.003 285.467L531.135 240.093L531.3 235.382Z" fill="#17C0EB" stroke="#17C0EB" stroke-width="0.129"/>
            <path d="M504.239 278.688L504.123 278.62L502.588 281.329L504.351 278.762L504.239 278.688Z" fill="white"/>
            <path opacity="0.62" d="M557.305 299.756L553.914 296.481L500 285.468L552.774 301.055L557.305 299.756Z" fill="#17C0EB" stroke="#17C0EB" stroke-width="0.129"/>
            <path d="M507.757 287.403L507.786 287.273L504.735 286.65L507.721 287.533L507.757 287.403Z" fill="white"/>
            <path opacity="0.62" d="M504.121 344.383L506.188 340.147L500.002 285.468L501.485 340.476L504.121 344.383Z" fill="#17C0EB" stroke="#17C0EB" stroke-width="0.129"/>
            <path d="M500.558 293.439L500.691 293.427L500.341 290.333L500.424 293.445L500.558 293.439Z" fill="white"/>
            <path opacity="0.62" d="M445.242 307.596L449.91 308.252L500.001 285.472L448.144 303.881L445.242 307.596Z" fill="#17C0EB" stroke="#17C0EB" stroke-width="0.129"/>
            <path d="M492.59 288.47L492.643 288.593L495.478 287.303L492.543 288.344L492.59 288.47Z" fill="white"/>
            <path opacity="0.62" d="M462.04 240.227L462.858 244.869L500.002 285.469L466.469 241.839L462.04 240.227Z" fill="#17C0EB" stroke="#17C0EB" stroke-width="0.129"/>
            <path d="M494.864 279.344L494.764 279.432L496.866 281.729L494.969 279.26L494.864 279.344Z" fill="white"/>
            <path opacity="0.62" d="M537.966 240.226L533.536 241.838L500.003 285.468L537.147 244.868L537.966 240.226Z" fill="#17C0EB" stroke="#17C0EB" stroke-width="0.129"/>
            <path d="M505.142 279.344L505.037 279.26L503.14 281.729L505.242 279.432L505.142 279.344Z" fill="white"/>
            <path opacity="0.62" d="M554.762 307.592L551.86 303.877L500.003 285.468L550.094 308.248L554.762 307.592Z" fill="#17C0EB" stroke="#17C0EB" stroke-width="0.129"/>
            <path d="M507.415 288.46L507.462 288.335L504.527 287.294L507.362 288.583L507.415 288.46Z" fill="white"/>
            <path opacity="0.62" d="M495.883 344.382L498.519 340.475L500.003 285.467L493.817 340.146L495.883 344.382Z" fill="#17C0EB" stroke="#17C0EB" stroke-width="0.129"/>
            <path d="M499.444 293.436L499.578 293.442L499.662 290.33L499.311 293.424L499.444 293.436Z" fill="white"/>
            <path opacity="0.62" d="M442.695 299.76L447.226 301.059L500 285.472L446.086 296.485L442.695 299.76Z" fill="#17C0EB" stroke="#17C0EB" stroke-width="0.129"/>
            <path d="M492.245 287.409L492.28 287.538L495.266 286.656L492.215 287.278L492.245 287.409Z" fill="white"/>
            <path opacity="0.62" d="M468.706 235.384L468.87 240.095L500.002 285.469L472.868 237.597L468.706 235.384Z" fill="#17C0EB" stroke="#17C0EB" stroke-width="0.129"/>
            <path d="M495.766 278.695L495.654 278.768L497.416 281.335L495.881 278.626L495.766 278.695Z" fill="white"/>
            <path opacity="0.62" d="M543.894 245.955L539.283 246.935L500.004 285.473L542.437 250.438L543.894 245.955Z" fill="#17C0EB" stroke="#17C0EB" stroke-width="0.129"/>
            <path d="M505.945 280.123L505.853 280.025L503.631 282.207L506.033 280.225L505.945 280.123Z" fill="white"/>
            <path opacity="0.62" d="M551.15 315.002L548.793 310.92L500.003 285.473L546.436 315.002L551.15 315.002Z" fill="#17C0EB" stroke="#17C0EB" stroke-width="0.129"/>
            <path d="M506.925 289.468L506.99 289.35L504.228 287.911L506.856 289.582L506.925 289.468Z" fill="white"/>
            <path opacity="0.62" d="M487.722 343.244L490.876 339.742L500.001 285.476L486.265 338.761L487.722 343.244Z" fill="#17C0EB" stroke="#17C0EB" stroke-width="0.129"/>
            <path d="M498.338 293.292L498.469 293.317L498.985 290.247L498.207 293.262L498.338 293.292Z" fill="white"/>
            <path opacity="0.62" d="M441.265 291.648L445.571 293.566L500.001 285.475L445.079 288.877L441.265 291.648Z" fill="#17C0EB" stroke="#17C0EB" stroke-width="0.129"/>
            <path d="M492.052 286.312L492.069 286.445L495.149 285.987L492.041 286.178L492.052 286.312Z" fill="white"/>
            <path opacity="0.62" d="M475.981 231.518L475.488 236.206L500.003 285.471L479.795 234.288L475.981 231.518Z" fill="#17C0EB" stroke="#17C0EB" stroke-width="0.129"/>
            <path d="M496.751 278.172L496.63 278.229L498.018 281.017L496.875 278.12L496.751 278.172Z" fill="white"/>
            <path opacity="0.62" d="M548.966 252.446L544.264 252.775L500.004 285.472L546.9 256.683L548.966 252.446Z" fill="#17C0EB" stroke="#17C0EB" stroke-width="0.129"/>
            <path d="M506.63 281.002L506.552 280.892L504.048 282.743L506.702 281.114L506.63 281.002Z" fill="white"/>
            <path opacity="0.62" d="M546.541 321.826L544.776 317.456L500.002 285.466L541.873 321.17L546.541 321.826Z" fill="#17C0EB" stroke="#17C0EB" stroke-width="0.129"/>
            <path d="M506.3 290.387L506.38 290.279L503.846 288.47L506.215 290.491L506.3 290.387Z" fill="white"/>
            <path opacity="0.62" d="M479.805 340.967L483.416 337.938L500.004 285.47L478.986 336.325L479.805 340.967Z" fill="#17C0EB" stroke="#17C0EB" stroke-width="0.129"/>
            <path d="M497.273 292.978L497.399 293.021L498.338 290.051L497.148 292.929L497.273 292.978Z" fill="white"/>
            <path opacity="0.62" d="M440.981 283.41L444.978 285.908L500.004 285.471L445.142 281.197L440.981 283.41Z" fill="#17C0EB" stroke="#17C0EB" stroke-width="0.129"/>
            <path d="M492.016 285.194L492.015 285.328L495.128 285.303L492.024 285.06L492.016 285.194Z" fill="white"/>
            <path opacity="0.62" d="M483.723 228.694L482.582 233.268L500.002 285.465L487.114 231.968L483.723 228.694Z" fill="#17C0EB" stroke="#17C0EB" stroke-width="0.129"/>
            <path d="M497.797 277.783L497.669 277.823L498.655 280.777L497.926 277.749L497.797 277.783Z" fill="white"/>
            <path opacity="0.62" d="M553.084 259.587L548.382 259.258L500.002 285.477L550.448 263.495L553.084 259.587Z" fill="#17C0EB" stroke="#17C0EB" stroke-width="0.129"/>
            <path d="M507.184 281.972L507.122 281.853L504.385 283.337L507.24 282.094L507.184 281.972Z" fill="white"/>
            <path opacity="0.62" d="M541.027 327.958L539.887 323.384L500.001 285.474L536.496 326.659L541.027 327.958Z" fill="#17C0EB" stroke="#17C0EB" stroke-width="0.129"/>
            <path d="M505.552 291.226L505.646 291.131L503.389 288.986L505.454 291.317L505.552 291.226Z" fill="white"/>
            <path opacity="0.62" d="M472.274 337.62L476.272 335.122L500.001 285.474L472.11 332.909L472.274 337.62Z" fill="#17C0EB" stroke="#17C0EB" stroke-width="0.129"/>
            <path d="M496.249 292.531L496.369 292.591L497.711 289.781L496.132 292.465L496.249 292.531Z" fill="white"/>
            <path opacity="0.62" d="M441.839 275.218L445.45 278.248L500.001 285.473L446.268 273.606L441.839 275.218Z" fill="#17C0EB" stroke="#17C0EB" stroke-width="0.129"/>
            <path d="M492.129 284.087L492.108 284.219L495.195 284.628L492.155 283.955L492.129 284.087Z" fill="white"/>
            <path opacity="0.62" d="M491.779 226.992L490.013 231.363L499.999 285.477L494.682 230.707L491.779 226.992Z" fill="#17C0EB" stroke="#17C0EB" stroke-width="0.129"/>
            <path d="M498.887 277.559L498.754 277.581L499.32 280.643L499.02 277.544L498.887 277.559Z" fill="white"/>
            <path d="M500 265.844C489.366 265.828 479.081 269.645 471.031 276.594L456.375 302C455.87 304.721 455.619 307.483 455.625 310.25H460.656C460.656 288.524 478.274 270.906 500 270.906C521.727 270.906 539.344 288.524 539.344 310.25H544.375C544.375 307.437 544.125 304.668 543.625 302L528.969 276.594C520.918 269.646 510.634 265.83 500 265.844Z" fill="#FF0000"/>
            <path d="M499.999 266.656C488.235 266.656 477.559 271.331 469.718 278.906L457.687 299.75C456.836 303.185 456.405 306.711 456.406 310.25H460.656C460.656 288.524 478.273 270.906 499.999 270.906C521.726 270.906 539.343 288.524 539.343 310.25H543.593C543.593 306.625 543.146 303.086 542.312 299.719L530.281 278.906C522.44 271.332 511.763 266.656 499.999 266.656Z" fill="#FF6600"/>
            <path d="M500 267.47C487.298 267.47 475.9 272.992 468.062 281.783L459.344 296.876C457.929 301.193 457.212 305.708 457.219 310.251H460.656C460.656 288.525 478.274 270.907 500 270.907C521.726 270.907 539.344 288.525 539.344 310.251H542.781C542.781 305.578 542.041 301.086 540.656 296.876L531.937 281.781C524.101 272.993 512.7 267.469 499.999 267.469L500 267.47Z" fill="#FFFF00"/>
            <path d="M500.001 268.25C485.451 268.25 472.629 275.664 465.095 286.906L462.282 291.781C459.459 297.529 457.994 303.848 458 310.251H460.657C460.657 288.524 478.274 270.906 500 270.906C521.727 270.906 539.344 288.524 539.344 310.25H542.001C542.002 303.858 540.538 297.551 537.721 291.813L534.876 286.876C527.34 275.649 514.539 268.251 500.001 268.251V268.25Z" fill="#00FF00"/>
            <path d="M500 269.062C477.253 269.062 458.812 287.502 458.812 310.25H460.656C460.656 288.523 478.274 270.906 500 270.906C521.726 270.906 539.344 288.523 539.344 310.25H541.188C541.188 287.502 522.748 269.062 500 269.062Z" fill="#00CCFF"/>
            <path d="M500 269.844C477.694 269.844 459.625 287.944 459.625 310.25H460.969C460.969 288.69 478.441 271.219 500 271.219C521.559 271.219 539.031 288.691 539.031 310.25H540.406C540.406 287.944 522.306 269.844 500 269.844Z" fill="#0000FF"/>
            <path d="M499.999 270.664C478.135 270.664 460.41 288.389 460.41 310.253C460.41 310.498 460.413 310.743 460.417 310.986H461.218C461.213 310.742 461.211 310.497 461.211 310.253C461.211 288.831 478.577 271.465 499.999 271.465C521.421 271.465 538.787 288.831 538.787 310.253C538.787 310.498 538.785 310.743 538.78 310.986H539.577C539.581 310.743 539.584 310.498 539.584 310.253C539.584 288.389 521.863 270.664 499.999 270.664Z" fill="#800080"/>
            <path d="M500.394 288.133C499.75 288.009 499.168 287.649 498.619 287.523C497.863 288.248 497.784 288.98 497.888 289.603C498.15 289.743 498.198 289.956 498.766 290.463C499.334 290.97 499.262 291.236 499.228 292.428C499.213 292.931 499.298 294.009 499.807 294.11C500.355 294.22 500.739 293.764 500.897 292.95C501.049 292.16 501.314 291.734 501.595 291.248C501.901 289.396 501.402 288.74 500.394 288.133Z" fill="#510000"/>
            <path d="M497.166 283.527C496.571 283.542 495.638 284.539 495.223 284.002C494.984 283.694 494.944 283.1 495.186 282.602C495.745 281.451 496.31 280.886 497.353 280.272C499.731 278.871 501.243 279.322 502.427 281.335C503.525 283.107 504.579 285.065 504.673 286.706C504.703 287.207 504.956 288.114 504.517 288.566C503.169 289.956 499.921 287.131 498.02 287.578C497.38 287.728 496.643 288.195 496.04 287.796C495.57 287.486 495.962 286.799 496.312 286.502C496.924 285.982 497.813 284.137 497.692 283.337C497.625 282.891 497.612 283.516 497.166 283.527Z" fill="#FF0000"/>
            <path d="M496.928 282.549C495.845 282.994 495.962 283.625 495.418 284.139C495.572 284.197 496.184 284.449 496.782 283.838C497.04 283.624 497.33 283.545 497.459 283.476C497.154 283.697 496.936 284.03 496.775 284.16C496.371 284.489 495.741 285.243 495.435 286.006C495.128 286.77 495.005 287.679 495.059 287.788C495.115 287.898 495.485 288.568 496.625 289.02C498.655 289.827 499.042 291.459 501.102 291.459C502.716 291.459 502.457 290.403 503.748 290.627C504.868 290.821 505.462 289.931 504.384 289.395C503.013 288.927 500.292 289.203 499.012 289.428C498.598 285.345 498.956 286.778 498.86 285.023C498.763 283.268 498.237 283.163 498.932 281.742C498.354 282.614 497.655 282.476 496.928 282.549Z" fill="url(#paint0_linear_2062_931)"/>
            <path d="M500.937 279.797C500.897 280.02 500.86 280.313 500.881 280.397C500.968 280.736 501.056 281.09 501.159 281.391C501.274 281.727 501.321 281.971 501.399 282.319C501.481 282.679 501.8 282.819 502.093 283.041C502.463 283.321 502.177 284.078 502.408 284.11C502.592 284.135 502.896 283.038 502.898 282.863C502.904 282.647 502.892 282.43 502.861 282.216C502.728 281.921 502.586 281.63 502.435 281.344C502.433 281.34 502.428 281.338 502.426 281.334C502.367 281.222 502.302 281.112 502.232 281.007C502.011 280.684 501.747 280.394 501.446 280.144L501.39 280.097C501.306 280.033 501.22 279.967 501.131 279.91C501.069 279.87 501.002 279.834 500.937 279.797Z" fill="#FF2A2A"/>
            <path d="M501.247 287.404C500.529 287.216 499.821 286.861 499.21 286.679C498.01 286.32 496.73 285.545 495.844 285.865C495.527 286.005 495.555 286.321 495.454 286.775C495.412 287.308 494.858 288.095 495.318 287.837C496.003 287.454 497.808 288.57 498.413 288.943C498.7 289.12 499.305 289.467 499.495 289.965C499.685 290.463 499.587 291.721 499.536 292.261C499.483 292.827 499.655 294.096 500.222 294.248C500.833 294.411 501.3 293.925 501.538 293.018C501.768 292.137 501.943 291.631 502.295 291.103C502.647 290.575 503.051 290.347 503.615 290.24C504.179 290.134 504.997 290.702 504.997 290.037C504.997 289.6 504.613 289.182 504.777 288.583C504.905 288.111 504.375 288.205 503.935 288.011C502.899 287.692 501.965 287.591 501.247 287.404Z" fill="url(#paint1_linear_2062_931)"/>
            <path d="M498.363 288.909C498.036 288.731 496.048 287.431 495.32 287.838C495.09 287.966 495.003 287.822 495 287.581C494.996 287.34 495.109 286.987 495.184 286.715C495.258 286.442 495.379 285.923 495.7 285.653C496.387 285.073 497.969 286.228 498.808 286.539C498.736 286.975 498.338 288.895 498.363 288.909Z" fill="#910000"/>
            <path d="M501.764 291.361C502.68 289.758 503.272 289.964 504.377 289.987C504.746 289.995 504.854 289.658 504.77 289.32C504.492 289.944 503.108 289.25 502.355 289.583C500.782 290.275 501.075 293.353 500.328 293.653C501.104 294.304 501.452 291.907 501.764 291.361Z" fill="#FF3A3A"/>
            <path d="M453.103 307.648L443.148 324.885H556.856L546.9 307.648H453.103Z" fill="white"/>
            <path d="M449.704 321.365C448.046 321.365 446.507 321.532 444.994 321.718L444.508 322.564C446.941 322.348 449.205 321.915 451.648 321.855C454.941 321.935 457.931 322.685 461.434 322.685C462.952 322.699 464.461 322.655 465.96 322.685C469.46 322.685 472.449 321.935 475.743 321.855C479.038 321.935 482.047 322.685 485.546 322.685C487.064 322.689 488.724 322.661 490.076 322.685C493.576 322.685 496.55 321.935 499.841 321.855C503.134 321.935 506.111 322.685 509.61 322.685C511.14 322.699 512.643 322.655 514.153 322.685C517.653 322.685 520.643 321.935 523.94 321.855C527.236 321.935 530.22 322.685 533.722 322.685C535.238 322.699 536.753 322.655 538.252 322.685C541.751 322.685 544.727 321.935 548.017 321.855C550.567 321.917 552.937 322.373 555.503 322.579L554.988 321.686C553.585 321.518 552.153 321.365 550.62 321.365C549.091 321.345 547.584 321.395 546.073 321.365C542.573 321.365 539.599 322.113 536.308 322.194C533.012 322.114 530.025 321.365 526.522 321.365C525.009 321.345 523.492 321.396 521.996 321.365C518.496 321.365 515.503 322.114 512.21 322.194C508.916 322.114 505.926 321.365 502.427 321.365C500.905 321.345 499.385 321.395 497.88 321.365C494.38 321.365 491.404 322.114 488.115 322.194C484.821 322.114 481.845 321.365 478.346 321.365C476.824 321.344 475.32 321.396 473.82 321.365C470.318 321.365 467.33 322.114 464.034 322.194C460.74 322.114 457.751 321.365 454.251 321.365C452.731 321.345 451.208 321.396 449.704 321.365Z" fill="url(#paint2_linear_2062_931)"/>
            <path d="M449.704 320.255C448.046 320.255 446.507 320.422 444.994 320.608L444.508 321.454C446.941 321.238 449.205 320.805 451.648 320.745C454.941 320.825 457.931 321.575 461.434 321.575C462.952 321.589 464.461 321.545 465.96 321.575C469.46 321.575 472.449 320.825 475.743 320.745C479.038 320.825 482.047 321.575 485.546 321.575C487.064 321.579 488.724 321.551 490.076 321.575C493.576 321.575 496.55 320.825 499.841 320.745C503.134 320.825 506.111 321.575 509.61 321.575C511.14 321.589 512.643 321.545 514.153 321.575C517.653 321.575 520.643 320.825 523.94 320.745C527.236 320.825 530.22 321.575 533.722 321.575C535.238 321.589 536.753 321.545 538.252 321.575C541.751 321.575 544.727 320.825 548.017 320.745C550.567 320.807 552.937 321.263 555.503 321.469L554.988 320.576C553.585 320.408 552.153 320.255 550.62 320.255C549.091 320.235 547.584 320.285 546.073 320.255C542.573 320.255 539.599 321.003 536.308 321.084C533.012 321.004 530.025 320.255 526.522 320.255C525.009 320.235 523.492 320.286 521.996 320.255C518.496 320.255 515.503 321.004 512.21 321.084C508.916 321.004 505.926 320.255 502.427 320.255C500.905 320.235 499.385 320.285 497.88 320.255C494.38 320.255 491.404 321.004 488.115 321.084C484.821 321.004 481.845 320.255 478.346 320.255C476.824 320.234 475.32 320.286 473.82 320.255C470.318 320.255 467.33 321.004 464.034 321.084C460.74 321.004 457.751 320.255 454.251 320.255C452.731 320.235 451.208 320.286 449.704 320.255Z" fill="url(#paint3_linear_2062_931)"/>
            <path d="M449.704 319.138C448.046 319.138 446.507 319.305 444.994 319.491L444.508 320.337C446.941 320.121 449.205 319.688 451.648 319.628C454.941 319.708 457.931 320.458 461.434 320.458C462.952 320.472 464.461 320.428 465.96 320.458C469.46 320.458 472.449 319.708 475.743 319.628C479.038 319.708 482.047 320.458 485.546 320.458C487.064 320.462 488.724 320.434 490.076 320.458C493.576 320.458 496.55 319.708 499.841 319.628C503.134 319.708 506.111 320.458 509.61 320.458C511.14 320.472 512.643 320.428 514.153 320.458C517.653 320.458 520.643 319.708 523.94 319.628C527.236 319.708 530.22 320.458 533.722 320.458C535.238 320.472 536.753 320.428 538.252 320.458C541.751 320.458 544.727 319.708 548.017 319.628C550.567 319.69 552.937 320.146 555.503 320.352L554.988 319.459C553.585 319.291 552.153 319.138 550.62 319.138C549.091 319.118 547.584 319.168 546.073 319.138C542.573 319.138 539.599 319.886 536.308 319.967C533.012 319.887 530.025 319.138 526.522 319.138C525.009 319.118 523.492 319.169 521.996 319.138C518.496 319.138 515.503 319.887 512.21 319.967C508.916 319.887 505.926 319.138 502.427 319.138C500.905 319.118 499.385 319.168 497.88 319.138C494.38 319.138 491.404 319.887 488.115 319.967C484.821 319.887 481.845 319.138 478.346 319.138C476.824 319.117 475.32 319.169 473.82 319.138C470.318 319.138 467.33 319.887 464.034 319.967C460.74 319.887 457.751 319.138 454.251 319.138C452.731 319.118 451.208 319.169 449.704 319.138Z" fill="url(#paint4_linear_2062_931)"/>
            <path d="M449.704 318.021C448.046 318.021 446.507 318.188 444.994 318.374L444.508 319.22C446.941 319.004 449.205 318.571 451.648 318.511C454.941 318.591 457.931 319.341 461.434 319.341C462.952 319.355 464.461 319.311 465.96 319.341C469.46 319.341 472.449 318.591 475.743 318.511C479.038 318.591 482.047 319.341 485.546 319.341C487.064 319.345 488.724 319.317 490.076 319.341C493.576 319.341 496.55 318.591 499.841 318.511C503.134 318.591 506.111 319.341 509.61 319.341C511.14 319.355 512.643 319.311 514.153 319.341C517.653 319.341 520.643 318.591 523.94 318.511C527.236 318.591 530.22 319.341 533.722 319.341C535.238 319.355 536.753 319.311 538.252 319.341C541.751 319.341 544.727 318.591 548.017 318.511C550.567 318.573 552.937 319.029 555.503 319.235L554.988 318.342C553.585 318.174 552.153 318.021 550.62 318.021C549.091 318.001 547.584 318.051 546.073 318.021C542.573 318.021 539.599 318.769 536.308 318.85C533.012 318.77 530.025 318.021 526.522 318.021C525.009 318.001 523.492 318.052 521.996 318.021C518.496 318.021 515.503 318.77 512.21 318.85C508.916 318.77 505.926 318.021 502.427 318.021C500.905 318.001 499.385 318.051 497.88 318.021C494.38 318.021 491.404 318.77 488.115 318.85C484.821 318.77 481.845 318.021 478.346 318.021C476.824 318 475.32 318.052 473.82 318.021C470.318 318.021 467.33 318.77 464.034 318.85C460.74 318.77 457.751 318.021 454.251 318.021C452.731 318.001 451.208 318.052 449.704 318.021Z" fill="url(#paint5_linear_2062_931)"/>
            <path d="M449.704 316.911C448.046 316.911 446.507 317.078 444.994 317.264L444.508 318.11C446.941 317.894 449.205 317.461 451.648 317.401C454.941 317.481 457.931 318.231 461.434 318.231C462.952 318.245 464.461 318.201 465.96 318.231C469.46 318.231 472.449 317.481 475.743 317.401C479.038 317.481 482.047 318.231 485.546 318.231C487.064 318.235 488.724 318.207 490.076 318.231C493.576 318.231 496.55 317.481 499.841 317.401C503.134 317.481 506.111 318.231 509.61 318.231C511.14 318.245 512.643 318.201 514.153 318.231C517.653 318.231 520.643 317.481 523.94 317.401C527.236 317.481 530.22 318.231 533.722 318.231C535.238 318.245 536.753 318.201 538.252 318.231C541.751 318.231 544.727 317.481 548.017 317.401C550.567 317.463 552.937 317.919 555.503 318.125L554.988 317.232C553.585 317.064 552.153 316.911 550.62 316.911C549.091 316.891 547.584 316.941 546.073 316.911C542.573 316.911 539.599 317.659 536.308 317.74C533.012 317.66 530.025 316.911 526.522 316.911C525.009 316.891 523.492 316.942 521.996 316.911C518.496 316.911 515.503 317.66 512.21 317.74C508.916 317.66 505.926 316.911 502.427 316.911C500.905 316.891 499.385 316.941 497.88 316.911C494.38 316.911 491.404 317.66 488.115 317.74C484.821 317.66 481.845 316.911 478.346 316.911C476.824 316.89 475.32 316.942 473.82 316.911C470.318 316.911 467.33 317.66 464.034 317.74C460.74 317.66 457.751 316.911 454.251 316.911C452.731 316.891 451.208 316.942 449.704 316.911Z" fill="url(#paint6_linear_2062_931)"/>
            <path d="M449.704 315.794C448.046 315.794 446.507 315.961 444.994 316.147L444.508 316.993C446.941 316.777 449.205 316.344 451.648 316.284C454.941 316.364 457.931 317.114 461.434 317.114C462.952 317.128 464.461 317.084 465.96 317.114C469.46 317.114 472.449 316.364 475.743 316.284C479.038 316.364 482.047 317.114 485.546 317.114C487.064 317.118 488.724 317.09 490.076 317.114C493.576 317.114 496.55 316.364 499.841 316.284C503.134 316.364 506.111 317.114 509.61 317.114C511.14 317.128 512.643 317.084 514.153 317.114C517.653 317.114 520.643 316.364 523.94 316.284C527.236 316.364 530.22 317.114 533.722 317.114C535.238 317.128 536.753 317.084 538.252 317.114C541.751 317.114 544.727 316.364 548.017 316.284C550.567 316.346 552.937 316.802 555.503 317.008L554.988 316.115C553.585 315.947 552.153 315.794 550.62 315.794C549.091 315.774 547.584 315.824 546.073 315.794C542.573 315.794 539.599 316.542 536.308 316.623C533.012 316.543 530.025 315.794 526.522 315.794C525.009 315.774 523.492 315.825 521.996 315.794C518.496 315.794 515.503 316.543 512.21 316.623C508.916 316.543 505.926 315.794 502.427 315.794C500.905 315.774 499.385 315.824 497.88 315.794C494.38 315.794 491.404 316.543 488.115 316.623C484.821 316.543 481.845 315.794 478.346 315.794C476.824 315.773 475.32 315.825 473.82 315.794C470.318 315.794 467.33 316.543 464.034 316.623C460.74 316.543 457.751 315.794 454.251 315.794C452.731 315.774 451.208 315.825 449.704 315.794Z" fill="url(#paint7_linear_2062_931)"/>
            <path d="M449.704 314.669C448.046 314.669 446.507 314.836 444.994 315.022L444.508 315.868C446.941 315.652 449.205 315.219 451.648 315.159C454.941 315.239 457.931 315.989 461.434 315.989C462.952 316.003 464.461 315.959 465.96 315.989C469.46 315.989 472.449 315.239 475.743 315.159C479.038 315.239 482.047 315.989 485.546 315.989C487.064 315.993 488.724 315.965 490.076 315.989C493.576 315.989 496.55 315.239 499.841 315.159C503.134 315.239 506.111 315.989 509.61 315.989C511.14 316.003 512.643 315.959 514.153 315.989C517.653 315.989 520.643 315.239 523.94 315.159C527.236 315.239 530.22 315.989 533.722 315.989C535.238 316.003 536.753 315.959 538.252 315.989C541.751 315.989 544.727 315.239 548.017 315.159C550.567 315.221 552.937 315.677 555.503 315.883L554.988 314.99C553.585 314.822 552.153 314.669 550.62 314.669C549.091 314.649 547.584 314.699 546.073 314.669C542.573 314.669 539.599 315.417 536.308 315.498C533.012 315.418 530.025 314.669 526.522 314.669C525.009 314.649 523.492 314.7 521.996 314.669C518.496 314.669 515.503 315.418 512.21 315.498C508.916 315.418 505.926 314.669 502.427 314.669C500.905 314.649 499.385 314.699 497.88 314.669C494.38 314.669 491.404 315.418 488.115 315.498C484.821 315.418 481.845 314.669 478.346 314.669C476.824 314.648 475.32 314.7 473.82 314.669C470.318 314.669 467.33 315.418 464.034 315.498C460.74 315.418 457.751 314.669 454.251 314.669C452.731 314.649 451.208 314.7 449.704 314.669Z" fill="url(#paint8_linear_2062_931)"/>
            <path d="M449.704 313.56C448.046 313.56 446.507 313.727 444.994 313.913L444.508 314.759C446.941 314.543 449.205 314.11 451.648 314.05C454.941 314.13 457.931 314.88 461.434 314.88C462.952 314.894 464.461 314.85 465.96 314.88C469.46 314.88 472.449 314.13 475.743 314.05C479.038 314.13 482.047 314.88 485.546 314.88C487.064 314.884 488.724 314.856 490.076 314.88C493.576 314.88 496.55 314.13 499.841 314.05C503.134 314.13 506.111 314.88 509.61 314.88C511.14 314.894 512.643 314.85 514.153 314.88C517.653 314.88 520.643 314.13 523.94 314.05C527.236 314.13 530.22 314.88 533.722 314.88C535.238 314.894 536.753 314.85 538.252 314.88C541.751 314.88 544.727 314.13 548.017 314.05C550.567 314.112 552.937 314.568 555.503 314.774L554.988 313.881C553.585 313.713 552.153 313.56 550.62 313.56C549.091 313.54 547.584 313.59 546.073 313.56C542.573 313.56 539.599 314.308 536.308 314.389C533.012 314.309 530.025 313.56 526.522 313.56C525.009 313.54 523.492 313.591 521.996 313.56C518.496 313.56 515.503 314.309 512.21 314.389C508.916 314.309 505.926 313.56 502.427 313.56C500.905 313.54 499.385 313.59 497.88 313.56C494.38 313.56 491.404 314.309 488.115 314.389C484.821 314.309 481.845 313.56 478.346 313.56C476.824 313.539 475.32 313.591 473.82 313.56C470.318 313.56 467.33 314.309 464.034 314.389C460.74 314.309 457.751 313.56 454.251 313.56C452.731 313.54 451.208 313.591 449.704 313.56Z" fill="url(#paint9_linear_2062_931)"/>
            <path d="M449.704 312.443C448.046 312.443 446.507 312.61 444.994 312.796L444.508 313.642C446.941 313.426 449.205 312.993 451.648 312.933C454.941 313.013 457.931 313.763 461.434 313.763C462.952 313.777 464.461 313.733 465.96 313.763C469.46 313.763 472.449 313.013 475.743 312.933C479.038 313.013 482.047 313.763 485.546 313.763C487.064 313.767 488.724 313.739 490.076 313.763C493.576 313.763 496.55 313.013 499.841 312.933C503.134 313.013 506.111 313.763 509.61 313.763C511.14 313.777 512.643 313.733 514.153 313.763C517.653 313.763 520.643 313.013 523.94 312.933C527.236 313.013 530.22 313.763 533.722 313.763C535.238 313.777 536.753 313.733 538.252 313.763C541.751 313.763 544.727 313.013 548.017 312.933C550.567 312.995 552.937 313.451 555.503 313.657L554.988 312.764C553.585 312.596 552.153 312.443 550.62 312.443C549.091 312.423 547.584 312.473 546.073 312.443C542.573 312.443 539.599 313.191 536.308 313.272C533.012 313.192 530.025 312.443 526.522 312.443C525.009 312.423 523.492 312.474 521.996 312.443C518.496 312.443 515.503 313.192 512.21 313.272C508.916 313.192 505.926 312.443 502.427 312.443C500.905 312.423 499.385 312.473 497.88 312.443C494.38 312.443 491.404 313.192 488.115 313.272C484.821 313.192 481.845 312.443 478.346 312.443C476.824 312.422 475.32 312.474 473.82 312.443C470.318 312.443 467.33 313.192 464.034 313.272C460.74 313.192 457.751 312.443 454.251 312.443C452.731 312.423 451.208 312.474 449.704 312.443Z" fill="url(#paint10_linear_2062_931)"/>
            <path d="M453.23 307.461L453.107 307.676H546.896L546.773 307.461H453.23ZM453.01 307.838L452.884 308.058H547.119L546.992 307.838H453.012H453.01ZM452.811 308.184L452.605 308.54H547.398L547.193 308.184H452.81H452.811ZM452.493 308.734L452.243 309.168H547.76L547.51 308.735H452.493V308.734ZM452.094 309.426L451.844 309.86H548.159L547.909 309.426H452.094ZM451.695 310.117L451.448 310.547H548.555L548.307 310.117H451.695ZM451.297 310.809L451.047 311.239H548.956L548.706 310.809H451.297ZM450.867 311.553L450.562 312.083H549.44L549.137 311.553H450.867ZM457.357 312.29C460.807 312.952 461.139 312.29 461.139 312.29H457.357ZM538.859 312.29C538.859 312.29 539.191 312.952 542.642 312.29H538.859Z" fill="url(#paint11_linear_2062_931)"/>
            <path d="M530.631 297.047C528.922 297.047 528.399 297.909 528.399 297.909C525.663 308.485 516.592 319.242 505.799 319.242H497.719V330.01C497.719 330.013 497.729 330.01 497.735 330.01H559.233L553.046 319.056C543.339 317.607 535.406 307.683 532.88 297.909C532.88 297.909 532.341 297.047 530.631 297.047Z" fill="url(#paint12_linear_2062_931)"/>
            <path d="M530.631 297.469C529.847 297.469 529.371 297.649 529.093 297.824C528.829 297.989 528.778 298.1 528.772 298.112C528.772 298.119 528.757 298.122 528.754 298.128C527.354 303.451 524.402 308.797 520.42 312.835C516.408 316.905 511.35 319.665 505.815 319.665H498.141V329.587H558.996L553.316 319.529C548.629 318.917 544.343 316.366 540.858 312.835C536.872 308.797 533.926 303.451 532.524 298.128L532.507 298.112C532.5 298.1 532.437 298.007 532.169 297.841C531.886 297.665 531.415 297.469 530.631 297.469Z" fill="#97C924"/>
            <path d="M530.629 297.469C530.776 297.469 530.909 297.49 531.035 297.503C531.059 300.52 531.035 305.613 531.035 308.304C531.006 310.644 530.205 312.527 529.023 314.745C528.476 316.299 528.037 315.708 526.673 317.602C524.843 318.256 523.487 318.511 521.535 318.818C519.018 319.216 513.414 319.568 510.648 318.954C514.289 317.886 517.609 315.684 520.419 312.834C521.171 312.072 521.882 311.27 522.549 310.434C523.671 309.023 524.678 307.525 525.559 305.954C525.911 305.328 526.245 304.706 526.556 304.061C527.023 303.095 527.439 302.111 527.806 301.121C527.93 300.79 528.051 300.454 528.162 300.123C528.384 299.459 528.579 298.793 528.754 298.128C528.756 298.122 528.769 298.118 528.77 298.111C528.776 298.099 528.828 297.989 529.091 297.824C529.227 297.739 529.423 297.654 529.666 297.587H529.683C529.935 297.52 530.237 297.469 530.629 297.469Z" fill="#EDE71F"/>
            <path d="M529.938 298.906C529.526 304.94 527.661 312.098 523.294 316.716C521.687 318.053 519.634 319.266 517.648 318.971C524.418 313.461 528.533 305.024 529.938 298.906Z" fill="#C6CB24"/>
            <path d="M524.496 309.281C523.494 312.002 519.708 316.027 515.656 319.326C514.506 319.361 513.896 319.427 512.852 319.364C515.32 319.139 521.073 314.281 524.496 309.281Z" fill="#9ECB34"/>
            <path d="M515.291 297.047C513.582 297.047 513.059 297.909 513.059 297.909C510.323 308.485 501.252 319.242 490.459 319.242H482.379V330.01C482.379 330.013 482.389 330.01 482.395 330.01H543.893L537.706 319.056C527.999 317.607 520.066 307.683 517.54 297.909C517.54 297.909 517.001 297.047 515.291 297.047Z" fill="url(#paint13_linear_2062_931)"/>
            <path d="M515.291 297.469C514.507 297.469 514.031 297.649 513.753 297.824C513.489 297.989 513.438 298.1 513.432 298.112C513.432 298.119 513.417 298.122 513.414 298.128C512.014 303.451 509.062 308.797 505.08 312.835C501.068 316.905 496.01 319.665 490.475 319.665H482.801V329.587H543.656L537.976 319.529C533.289 318.917 529.003 316.366 525.518 312.835C521.532 308.797 518.586 303.451 517.184 298.128L517.167 298.112C517.16 298.1 517.097 298.007 516.829 297.841C516.546 297.665 516.075 297.469 515.291 297.469Z" fill="#97C924"/>
            <path d="M515.29 297.469C515.437 297.469 515.57 297.49 515.696 297.503C515.72 300.52 515.696 305.613 515.696 308.304C515.667 310.644 514.866 312.527 513.684 314.745C513.137 316.299 512.698 315.708 511.334 317.602C509.504 318.256 508.148 318.511 506.196 318.818C503.679 319.216 498.075 319.568 495.309 318.954C498.95 317.886 502.27 315.684 505.08 312.834C505.831 312.072 506.542 311.27 507.21 310.434C508.331 309.023 509.338 307.525 510.22 305.954C510.572 305.328 510.906 304.706 511.217 304.061C511.684 303.095 512.1 302.111 512.467 301.121C512.591 300.79 512.712 300.454 512.823 300.123C513.045 299.459 513.24 298.793 513.415 298.128C513.417 298.122 513.43 298.118 513.431 298.111C513.437 298.099 513.489 297.989 513.752 297.824C513.888 297.739 514.084 297.654 514.327 297.587H514.344C514.596 297.52 514.898 297.469 515.29 297.469Z" fill="#EDE71F"/>
            <path d="M514.599 298.906C514.187 304.94 512.322 312.098 507.955 316.716C506.348 318.053 504.295 319.266 502.309 318.971C509.079 313.461 513.194 305.024 514.599 298.906Z" fill="#C6CB24"/>
            <path d="M509.156 309.281C508.154 312.002 504.368 316.027 500.316 319.326C499.166 319.361 498.556 319.427 497.512 319.364C499.98 319.139 505.733 314.281 509.156 309.281Z" fill="#9ECB34"/>
            <path d="M502.219 297.913C504.954 308.488 514.01 319.246 524.803 319.246H532.892V330.014C532.892 330.017 532.876 330.014 532.874 330.014H467.079C467.073 330.014 467.062 330.017 467.062 330.014V319.246H475.134C485.926 319.246 494.997 308.488 497.734 297.913C497.734 297.913 498.269 297.047 499.978 297.047C501.687 297.047 502.22 297.913 502.22 297.913H502.219Z" fill="url(#paint14_linear_2062_931)"/>
            <path d="M499.978 297.469C500.762 297.469 501.233 297.665 501.516 297.841C501.785 298.007 501.848 298.1 501.855 298.111L501.872 298.128C503.273 303.451 506.22 308.797 510.205 312.835C514.222 316.905 519.292 319.665 524.828 319.665H532.468V329.587H467.488V319.664H475.163C480.698 319.664 485.756 316.904 489.768 312.834C493.75 308.797 496.702 303.451 498.102 298.128C498.105 298.121 498.117 298.118 498.119 298.112C498.125 298.1 498.176 297.989 498.439 297.824C498.719 297.65 499.194 297.469 499.978 297.469Z" fill="#97C924"/>
            <path d="M499.263 297.531C499.182 297.547 499.101 297.565 499.021 297.586H499.003C498.802 297.637 498.61 297.717 498.431 297.822C498.167 297.987 498.117 298.096 498.111 298.108C498.108 298.114 498.094 298.118 498.093 298.125C497.918 298.791 497.723 299.458 497.5 300.122C497.388 300.456 497.269 300.788 497.144 301.117C496.774 302.117 496.357 303.099 495.895 304.059C495.582 304.701 495.25 305.332 494.897 305.953C494.015 307.524 493.009 309.021 491.887 310.43C491.22 311.268 490.509 312.07 489.757 312.833C486.947 315.683 483.629 317.883 479.988 318.95C482.753 319.565 484.02 318.894 486.537 318.496C488.489 318.188 490.747 317.933 492.58 317.279C493.944 315.385 493.479 315.979 494.026 314.425C495.207 312.207 496.932 310.203 497.36 307.744C498.979 304.722 499.263 299.13 499.263 297.531Z" fill="#EDE71F"/>
            <path d="M499.278 298.906C498.866 304.94 497.001 312.098 492.634 316.716C491.028 318.053 488.974 319.266 486.988 318.971C493.758 313.461 497.873 305.024 499.278 298.906Z" fill="#C6CB24"/>
            <path d="M493.835 309.281C492.833 312.002 489.047 316.028 484.995 319.326C483.845 319.361 483.235 319.427 482.191 319.364C484.658 319.139 490.413 314.281 493.835 309.281Z" fill="#9ECB34"/>
            <path d="M500.953 297.586H500.971C501.213 297.653 501.406 297.737 501.542 297.822C501.806 297.987 501.857 298.096 501.863 298.108C501.865 298.114 501.879 298.119 501.881 298.126C502.056 298.791 502.251 299.459 502.473 300.122C502.584 300.454 502.707 300.787 502.83 301.117C503.198 302.107 503.612 303.093 504.079 304.059C504.39 304.704 504.724 305.327 505.077 305.954C505.959 307.524 506.965 309.022 508.087 310.431C508.754 311.268 509.465 312.07 510.217 312.833C513.027 315.683 516.345 318.278 519.985 319.345C512.74 319.373 509.596 318.715 506.963 315.329C504.33 311.942 503.357 310.461 502.823 308.392C502.288 306.324 500.797 301.822 500.953 297.586Z" fill="#EDE71F"/>
            <path d="M501.477 298.906C501.889 304.94 503.697 310.912 508.064 315.531C509.671 316.868 511.724 318.081 513.71 317.786C506.375 312.784 502.881 305.024 501.477 298.906Z" fill="#C6CB24"/>
            <path d="M484.75 297.047C483.04 297.047 482.502 297.909 482.502 297.909C479.979 307.656 470.677 320.227 461.005 321.72L456.215 330.01H505.23V318.662C496.405 316.291 489.34 307.032 486.982 297.909C486.982 297.909 486.459 297.047 484.75 297.047Z" fill="url(#paint15_linear_2062_931)"/>
            <path d="M484.75 297.469C483.966 297.469 483.495 297.665 483.212 297.841C482.943 298.007 482.88 298.1 482.874 298.111L482.857 298.128C481.455 303.451 478.179 308.833 474.777 313.118C471.375 317.401 465.057 321.735 460.735 322.194L456.453 329.587H504.513V318.894C500.959 317.803 497.713 315.627 494.961 312.834C490.979 308.797 488.027 303.451 486.627 298.128C486.625 298.121 486.612 298.118 486.61 298.112C486.604 298.1 486.552 297.989 486.289 297.824C486.009 297.65 485.534 297.469 484.75 297.469Z" fill="#97C924"/>
            <path d="M483.446 298.906C482.829 307.949 477.793 319.36 472.106 321.326C470.251 321.966 467.007 322.19 465.879 322.334C475.827 317.603 481.707 306.481 483.446 298.906Z" fill="#93BC30"/>
            <path d="M484.748 297.469C484.601 297.469 484.468 297.49 484.342 297.503C484.319 300.52 484.342 305.613 484.342 308.304C484.372 310.644 485.173 312.527 486.354 314.745C486.423 314.939 486.49 315.099 486.557 315.235C486.967 316.321 487.27 316.698 488.839 317.889C493.826 321.676 500.009 322.242 503.647 321.929C502.507 321.031 501.289 320.214 500.216 319.462C501.927 319.406 503.566 319.212 504.729 318.954C501.089 317.887 497.769 315.684 494.959 312.834C494.474 312.332 494.006 311.814 493.556 311.28C493.363 311.006 493.166 310.736 492.964 310.468C491.846 309.068 490.701 307.521 489.819 305.955C489.467 305.334 489.135 304.702 488.822 304.061C488.205 302.783 487.669 301.468 487.216 300.123C486.997 299.465 486.8 298.799 486.624 298.128C486.622 298.122 486.609 298.118 486.607 298.111C486.601 298.099 486.55 297.989 486.286 297.824C486.107 297.718 485.913 297.638 485.711 297.587H485.694C485.386 297.506 485.067 297.466 484.748 297.469Z" fill="#EDE71F"/>
            <path d="M485.445 298.906C485.857 304.94 487.722 312.098 492.089 316.716C493.695 318.053 495.749 319.266 497.735 318.971C490.965 313.461 486.849 305.024 485.445 298.906Z" fill="#CCD11E"/>
            <path d="M489.613 307.25C491.982 313.087 497.983 318.54 504.156 322.204C505.306 322.239 505.648 322.207 506.693 322.144C502.274 319.773 495.154 316.39 489.613 307.25Z" fill="#9ECB34"/>
            <path d="M469.32 297.047C467.61 297.047 467.072 297.909 467.072 297.909C464.549 307.656 455.247 320.227 445.575 321.72L440.785 330.01H489.8V318.662C480.975 316.291 473.91 307.032 471.552 297.909C471.552 297.909 471.029 297.047 469.32 297.047Z" fill="url(#paint16_linear_2062_931)"/>
            <path d="M469.32 297.469C468.536 297.469 468.065 297.665 467.782 297.841C467.513 298.007 467.45 298.1 467.444 298.111L467.427 298.128C466.025 303.451 462.749 308.833 459.347 313.118C455.945 317.401 449.627 321.735 445.305 322.194L441.023 329.587H489.083V318.894C485.529 317.803 482.283 315.627 479.531 312.834C475.549 308.797 472.597 303.451 471.197 298.128C471.195 298.121 471.182 298.118 471.18 298.112C471.174 298.1 471.122 297.989 470.859 297.824C470.579 297.65 470.104 297.469 469.32 297.469Z" fill="#97C924"/>
            <path d="M468.016 298.906C467.399 307.949 462.363 319.36 456.676 321.326C454.821 321.966 451.577 322.19 450.449 322.334C460.397 317.603 466.277 306.481 468.016 298.906Z" fill="#93BC30"/>
            <path d="M469.319 297.469C469.172 297.469 469.039 297.49 468.913 297.503C468.89 300.52 468.913 305.613 468.913 308.304C468.943 310.644 469.744 312.527 470.925 314.745C470.994 314.939 471.061 315.099 471.128 315.235C471.538 316.321 471.841 316.698 473.41 317.889C478.397 321.676 484.58 322.242 488.218 321.929C487.078 321.031 485.86 320.214 484.787 319.462C486.498 319.406 488.137 319.212 489.3 318.954C485.66 317.887 482.34 315.684 479.53 312.834C479.044 312.332 478.576 311.814 478.127 311.28C477.933 311.006 477.736 310.736 477.535 310.468C476.417 309.068 475.272 307.521 474.39 305.955C474.038 305.334 473.705 304.702 473.393 304.061C472.776 302.783 472.239 301.468 471.787 300.123C471.567 299.465 471.37 298.799 471.195 298.128C471.193 298.122 471.18 298.118 471.178 298.111C471.172 298.099 471.121 297.989 470.857 297.824C470.677 297.718 470.483 297.638 470.282 297.587H470.265C469.956 297.506 469.638 297.466 469.319 297.469Z" fill="#EDE71F"/>
            <path d="M470.016 298.906C470.428 304.94 472.293 312.098 476.66 316.716C478.266 318.053 480.32 319.266 482.306 318.971C475.536 313.461 471.42 305.024 470.016 298.906Z" fill="#C6CB24"/>
            <path d="M474.184 307.25C476.553 313.087 482.554 318.54 488.727 322.204C489.877 322.239 490.219 322.207 491.264 322.144C486.845 319.773 479.725 316.39 474.184 307.25Z" fill="#9ECB34"/>
            <path d="M556.5 324.695C555.926 324.898 552.079 324.505 550.067 324.651L548.787 324.987C547.664 324.979 546.549 325.011 545.457 324.987C541.855 324.987 538.808 325.935 535.382 325.935C531.949 325.935 528.912 324.987 525.307 324.987C524.187 324.979 523.073 325.012 521.977 324.987C518.375 324.987 515.33 325.935 511.901 325.935C508.471 325.935 505.428 324.987 501.826 324.987C500.695 324.98 499.584 325.01 498.478 324.987C494.876 324.987 491.846 325.935 488.42 325.935C484.991 325.935 481.964 324.987 478.362 324.987C478.095 324.987 477.846 324.996 477.586 325.004C477.408 325 477.209 324.987 477.029 324.987C476.909 324.987 476.807 324.984 476.689 324.987C476.573 324.984 476.453 324.987 476.334 324.987C476.153 324.987 475.989 325 475.811 325.004C475.551 324.996 475.3 324.987 475.031 324.987C471.426 324.987 468.389 325.936 464.956 325.935C461.527 325.935 458.483 324.987 454.881 324.987C454.619 324.987 454.359 324.997 454.105 325.004C453.925 325 453.766 324.987 453.583 324.987C453.459 324.987 453.331 324.984 453.209 324.987C453.092 324.984 452.972 324.987 452.853 324.987C452.672 324.987 452.491 325 452.313 325.004C452.053 324.996 451.804 324.987 451.537 324.987C448.657 324.987 445.319 325.594 442.601 325.837L436.328 336.695L499.3 336.688L563.675 336.695L556.5 324.695Z" fill="white"/>
            <path d="M547.993 323.117C547.793 323.117 547.595 323.117 547.397 323.124C544.157 323.219 541.833 324.239 536.197 324.239C530.559 324.239 529.978 323.22 523.613 323.36C517.666 323.491 515.17 324.622 511.943 324.577C508.715 324.533 503.47 323.88 499.433 324.302C495.396 324.725 490.605 325.586 487.46 325.593C483.551 325.576 479.64 324.863 475.554 325.269C471.467 325.675 469.557 326.769 464.491 326.754C460.135 326.741 455.408 326.056 451.745 326.059C448.31 326.062 444.478 327.016 441.659 327.502L440.816 328.966C443.063 328.706 449.367 327.748 451.618 327.689C453.962 327.628 462.335 328.172 466.953 328.014C471.571 327.855 472.111 326.842 477.571 326.842C481.372 326.842 484.237 327.241 488.137 327.241C490.571 327.241 492.78 325.999 496.48 325.999C497.416 325.972 498.345 325.939 499.274 325.908C502.393 325.393 507.658 325.953 511.322 326.14C514.637 326.313 516.779 325.525 520.236 325.41C521.732 325.342 523.234 325.344 524.71 325.262C528.17 325.147 531.132 325.902 534.39 325.886C537.64 325.686 540.793 324.964 544.25 324.849C545.761 324.778 547.248 324.777 548.74 324.701C551.027 324.625 554.577 324.779 557.013 325.202L556.173 323.752C553.794 323.676 550.862 323.117 547.993 323.117Z" fill="url(#paint17_linear_2062_931)"/>
            <path d="M450.314 334.755C446.857 334.755 443.912 335.608 440.662 335.7C439.452 335.667 438.295 335.517 437.127 335.355L436.637 336.205C437.123 336.237 437.612 336.268 438.125 336.268C439.627 336.286 441.115 336.232 442.599 336.268C446.056 336.268 448.981 335.416 452.233 335.323C455.487 335.415 458.439 336.268 461.899 336.268C463.4 336.287 464.892 336.232 466.373 336.268C469.83 336.268 472.785 335.415 476.039 335.323C479.295 335.415 482.269 336.268 485.726 336.268C487.221 336.286 488.719 336.232 490.196 336.268C493.653 336.268 496.597 335.415 499.848 335.323C503.101 335.415 506.039 336.268 509.497 336.268C511.009 336.287 512.496 336.232 513.987 336.268C517.445 336.268 520.397 335.415 523.654 335.323C526.911 335.415 529.864 336.268 533.324 336.268C534.819 336.286 536.315 336.232 537.794 336.268C541.25 336.268 544.194 335.415 547.445 335.323C550.698 335.415 553.655 336.268 557.111 336.268C558.611 336.286 560.107 336.232 561.585 336.268C562.19 336.268 562.781 336.234 563.363 336.191L562.9 335.394C561.836 335.538 560.767 335.67 559.665 335.7C556.411 335.608 553.47 334.755 550.013 334.755C548.503 334.735 547.016 334.785 545.523 334.755C542.065 334.755 539.126 335.608 535.874 335.7C532.617 335.609 529.668 334.755 526.208 334.755C524.712 334.735 523.215 334.785 521.735 334.755C518.277 334.755 515.322 335.608 512.068 335.7C508.814 335.608 505.859 334.755 502.402 334.755C500.899 334.735 499.399 334.785 497.912 334.755C494.454 334.755 491.512 335.608 488.262 335.7C485.009 335.608 482.068 334.755 478.611 334.755C477.105 334.735 475.621 334.785 474.137 334.755C470.677 334.755 467.728 335.609 464.471 335.7C461.217 335.608 458.263 334.755 454.805 334.755C453.303 334.735 451.798 334.785 450.314 334.755Z" fill="url(#paint18_linear_2062_931)"/>
            <path d="M450.314 333.466C446.857 333.466 443.912 334.319 440.662 334.411C439.452 334.378 438.295 334.228 437.127 334.066L436.637 334.916C437.123 334.948 437.612 334.979 438.125 334.979C439.627 334.997 441.115 334.943 442.599 334.979C446.056 334.979 448.981 334.127 452.233 334.034C455.487 334.126 458.439 334.979 461.899 334.979C463.4 334.998 464.892 334.943 466.373 334.979C469.83 334.979 472.785 334.126 476.039 334.034C479.295 334.126 482.269 334.979 485.726 334.979C487.221 334.997 488.719 334.943 490.196 334.979C493.653 334.979 496.597 334.126 499.848 334.034C503.101 334.126 506.039 334.979 509.497 334.979C511.009 334.998 512.496 334.943 513.987 334.979C517.445 334.979 520.397 334.126 523.654 334.034C526.911 334.126 529.864 334.979 533.324 334.979C534.819 334.997 536.315 334.943 537.794 334.979C541.25 334.979 544.194 334.126 547.445 334.034C550.698 334.126 553.655 334.979 557.111 334.979C558.611 334.997 560.107 334.943 561.585 334.979C562.19 334.979 562.781 334.945 563.363 334.902L562.9 334.105C561.836 334.249 560.767 334.381 559.665 334.411C556.411 334.319 553.47 333.466 550.013 333.466C548.503 333.446 547.016 333.496 545.523 333.466C542.065 333.466 539.126 334.319 535.874 334.411C532.617 334.32 529.668 333.466 526.208 333.466C524.712 333.446 523.215 333.496 521.735 333.466C518.277 333.466 515.322 334.319 512.068 334.411C508.814 334.319 505.859 333.466 502.402 333.466C500.899 333.446 499.399 333.496 497.912 333.466C494.454 333.466 491.512 334.319 488.262 334.411C485.009 334.319 482.068 333.466 478.611 333.466C477.105 333.446 475.621 333.496 474.137 333.466C470.677 333.466 467.728 334.32 464.471 334.411C461.217 334.319 458.263 333.466 454.805 333.466C453.303 333.446 451.798 333.496 450.314 333.466Z" fill="url(#paint19_linear_2062_931)"/>
            <path d="M450.314 332.177C446.857 332.177 443.912 333.03 440.662 333.122C439.452 333.089 438.295 332.939 437.127 332.777L436.637 333.627C437.123 333.659 437.612 333.69 438.125 333.69C439.627 333.708 441.115 333.654 442.599 333.69C446.056 333.69 448.981 332.838 452.233 332.745C455.487 332.837 458.439 333.69 461.899 333.69C463.4 333.709 464.892 333.654 466.373 333.69C469.83 333.69 472.785 332.837 476.039 332.745C479.295 332.837 482.269 333.69 485.726 333.69C487.221 333.708 488.719 333.654 490.196 333.69C493.653 333.69 496.597 332.837 499.848 332.745C503.101 332.837 506.039 333.69 509.497 333.69C511.009 333.709 512.496 333.654 513.987 333.69C517.445 333.69 520.397 332.837 523.654 332.745C526.911 332.837 529.864 333.69 533.324 333.69C534.819 333.708 536.315 333.654 537.794 333.69C541.25 333.69 544.194 332.837 547.445 332.745C550.698 332.837 553.655 333.69 557.111 333.69C558.611 333.708 560.107 333.654 561.585 333.69C562.19 333.69 562.781 333.656 563.363 333.613L562.9 332.816C561.836 332.96 560.767 333.092 559.665 333.122C556.411 333.03 553.47 332.177 550.013 332.177C548.503 332.157 547.016 332.207 545.523 332.177C542.065 332.177 539.126 333.03 535.874 333.122C532.617 333.031 529.668 332.177 526.208 332.177C524.712 332.157 523.215 332.207 521.735 332.177C518.277 332.177 515.322 333.03 512.068 333.122C508.814 333.03 505.859 332.177 502.402 332.177C500.899 332.157 499.399 332.207 497.912 332.177C494.454 332.177 491.512 333.03 488.262 333.122C485.009 333.03 482.068 332.177 478.611 332.177C477.105 332.157 475.621 332.207 474.137 332.177C470.677 332.177 467.728 333.031 464.471 333.122C461.217 333.03 458.263 332.177 454.805 332.177C453.303 332.157 451.798 332.207 450.314 332.177Z" fill="url(#paint20_linear_2062_931)"/>
            <path d="M450.314 330.888C446.857 330.888 443.912 331.741 440.662 331.833C439.452 331.8 438.295 331.65 437.127 331.488L436.637 332.338C437.123 332.37 437.612 332.401 438.125 332.401C439.627 332.419 441.115 332.365 442.599 332.401C446.056 332.401 448.981 331.549 452.233 331.456C455.487 331.548 458.439 332.401 461.899 332.401C463.4 332.42 464.892 332.365 466.373 332.401C469.83 332.401 472.785 331.548 476.039 331.456C479.295 331.548 482.269 332.401 485.726 332.401C487.221 332.419 488.719 332.365 490.196 332.401C493.653 332.401 496.597 331.548 499.848 331.456C503.101 331.548 506.039 332.401 509.497 332.401C511.009 332.42 512.496 332.365 513.987 332.401C517.445 332.401 520.397 331.548 523.654 331.456C526.911 331.548 529.864 332.401 533.324 332.401C534.819 332.419 536.315 332.365 537.794 332.401C541.25 332.401 544.194 331.548 547.445 331.456C550.698 331.548 553.655 332.401 557.111 332.401C558.611 332.419 560.107 332.365 561.585 332.401C562.19 332.401 562.781 332.367 563.363 332.324L562.9 331.527C561.836 331.671 560.767 331.803 559.665 331.833C556.411 331.741 553.47 330.888 550.013 330.888C548.503 330.868 547.016 330.918 545.523 330.888C542.065 330.888 539.126 331.741 535.874 331.833C532.617 331.742 529.668 330.888 526.208 330.888C524.712 330.868 523.215 330.918 521.735 330.888C518.277 330.888 515.322 331.741 512.068 331.833C508.814 331.741 505.859 330.888 502.402 330.888C500.899 330.868 499.399 330.918 497.912 330.888C494.454 330.888 491.512 331.741 488.262 331.833C485.009 331.741 482.068 330.888 478.611 330.888C477.105 330.868 475.621 330.918 474.137 330.888C470.677 330.888 467.728 331.742 464.471 331.833C461.217 331.741 458.263 330.888 454.805 330.888C453.303 330.868 451.798 330.918 450.314 330.888Z" fill="url(#paint21_linear_2062_931)"/>
            <path d="M450.314 329.599C446.857 329.599 443.912 330.452 440.662 330.544C439.452 330.511 438.295 330.361 437.127 330.199L436.637 331.049C437.123 331.081 437.612 331.112 438.125 331.112C439.627 331.13 441.115 331.076 442.599 331.112C446.056 331.112 448.981 330.26 452.233 330.167C455.487 330.259 458.439 331.112 461.899 331.112C463.4 331.131 464.892 331.076 466.373 331.112C469.83 331.112 472.785 330.259 476.039 330.167C479.295 330.259 482.269 331.112 485.726 331.112C487.221 331.13 488.719 331.076 490.196 331.112C493.653 331.112 496.597 330.259 499.848 330.167C503.101 330.259 506.039 331.112 509.497 331.112C511.009 331.131 512.496 331.076 513.987 331.112C517.445 331.112 520.397 330.259 523.654 330.167C526.911 330.259 529.864 331.112 533.324 331.112C534.819 331.13 536.315 331.076 537.794 331.112C541.25 331.112 544.194 330.259 547.445 330.167C550.698 330.259 553.655 331.112 557.111 331.112C558.611 331.13 560.107 331.076 561.585 331.112C562.19 331.112 562.781 331.078 563.363 331.035L562.9 330.238C561.836 330.382 560.767 330.514 559.665 330.544C556.411 330.452 553.47 329.599 550.013 329.599C548.503 329.579 547.016 329.629 545.523 329.599C542.065 329.599 539.126 330.452 535.874 330.544C532.617 330.453 529.668 329.599 526.208 329.599C524.712 329.579 523.215 329.629 521.735 329.599C518.277 329.599 515.322 330.452 512.068 330.544C508.814 330.452 505.859 329.599 502.402 329.599C500.899 329.579 499.399 329.629 497.912 329.599C494.454 329.599 491.512 330.452 488.262 330.544C485.009 330.452 482.068 329.599 478.611 329.599C477.105 329.579 475.621 329.629 474.137 329.599C470.677 329.599 467.728 330.453 464.471 330.544C461.217 330.452 458.263 329.599 454.805 329.599C453.303 329.579 451.798 329.629 450.314 329.599Z" fill="url(#paint22_linear_2062_931)"/>
            <path d="M450.314 328.31C446.857 328.31 443.912 329.163 440.662 329.255C439.452 329.222 438.295 329.072 437.127 328.91L436.637 329.76C437.123 329.792 437.612 329.823 438.125 329.823C439.627 329.841 441.115 329.787 442.599 329.823C446.056 329.823 448.981 328.971 452.233 328.878C455.487 328.97 458.439 329.823 461.899 329.823C463.4 329.842 464.892 329.787 466.373 329.823C469.83 329.823 472.785 328.97 476.039 328.878C479.295 328.97 482.269 329.823 485.726 329.823C487.221 329.841 488.719 329.787 490.196 329.823C493.653 329.823 496.597 328.97 499.848 328.878C503.101 328.97 506.039 329.823 509.497 329.823C511.009 329.842 512.496 329.787 513.987 329.823C517.445 329.823 520.397 328.97 523.654 328.878C526.911 328.97 529.864 329.823 533.324 329.823C534.819 329.841 536.315 329.787 537.794 329.823C541.25 329.823 544.194 328.97 547.445 328.878C550.698 328.97 553.655 329.823 557.111 329.823C558.611 329.841 560.107 329.787 561.585 329.823C562.19 329.823 562.781 329.789 563.363 329.746L562.9 328.949C561.836 329.093 560.767 329.225 559.665 329.255C556.411 329.163 553.47 328.31 550.013 328.31C548.503 328.29 547.016 328.34 545.523 328.31C542.065 328.31 539.126 329.163 535.874 329.255C532.617 329.164 529.668 328.31 526.208 328.31C524.712 328.29 523.215 328.34 521.735 328.31C518.277 328.31 515.322 329.163 512.068 329.255C508.814 329.163 505.859 328.31 502.402 328.31C500.899 328.29 499.399 328.34 497.912 328.31C494.454 328.31 491.512 329.163 488.262 329.255C485.009 329.163 482.068 328.31 478.611 328.31C477.105 328.29 475.621 328.34 474.137 328.31C470.677 328.31 467.728 329.164 464.471 329.255C461.217 329.163 458.263 328.31 454.805 328.31C453.303 328.29 451.798 328.34 450.314 328.31Z" fill="url(#paint23_linear_2062_931)"/>
            <path d="M450.314 327.028C446.857 327.028 443.912 327.881 440.662 327.973C439.452 327.94 438.295 327.79 437.127 327.628L436.637 328.478C437.123 328.51 437.612 328.541 438.125 328.541C439.627 328.559 441.115 328.505 442.599 328.541C446.056 328.541 448.981 327.689 452.233 327.596C455.487 327.688 458.439 328.541 461.899 328.541C463.4 328.56 464.892 328.505 466.373 328.541C469.83 328.541 472.785 327.688 476.039 327.596C479.295 327.688 482.269 328.541 485.726 328.541C487.221 328.559 488.719 328.505 490.196 328.541C493.653 328.541 496.597 327.688 499.848 327.596C503.101 327.688 506.039 328.541 509.497 328.541C511.009 328.56 512.496 328.505 513.987 328.541C517.445 328.541 520.397 327.688 523.654 327.596C526.911 327.688 529.864 328.541 533.324 328.541C534.819 328.559 536.315 328.505 537.794 328.541C541.25 328.541 544.194 327.688 547.445 327.596C550.698 327.688 553.655 328.541 557.111 328.541C558.611 328.559 560.107 328.505 561.585 328.541C562.19 328.541 562.781 328.507 563.363 328.464L562.9 327.667C561.836 327.811 560.767 327.943 559.665 327.973C556.411 327.881 553.47 327.028 550.013 327.028C548.503 327.008 547.016 327.058 545.523 327.028C542.065 327.028 539.126 327.881 535.874 327.973C532.617 327.882 529.668 327.028 526.208 327.028C524.712 327.008 523.215 327.058 521.735 327.028C518.277 327.028 515.322 327.881 512.068 327.973C508.814 327.881 505.859 327.028 502.402 327.028C500.899 327.008 499.399 327.058 497.912 327.028C494.454 327.028 491.512 327.881 488.262 327.973C485.009 327.881 482.068 327.028 478.611 327.028C477.105 327.008 475.621 327.058 474.137 327.028C470.677 327.028 467.728 327.882 464.471 327.973C461.217 327.881 458.263 327.028 454.805 327.028C453.303 327.008 451.798 327.058 450.314 327.028Z" fill="url(#paint24_linear_2062_931)"/>
            <path d="M450.314 325.739C446.857 325.739 443.912 326.592 440.662 326.684C439.452 326.651 438.295 326.501 437.127 326.339L436.637 327.189C437.123 327.221 437.612 327.252 438.125 327.252C439.627 327.27 441.115 327.216 442.599 327.252C446.056 327.252 448.981 326.4 452.233 326.307C455.487 326.399 458.439 327.252 461.899 327.252C463.4 327.271 464.892 327.216 466.373 327.252C469.83 327.252 472.785 326.399 476.039 326.307C479.295 326.399 482.269 327.252 485.726 327.252C487.221 327.27 488.719 327.216 490.196 327.252C493.653 327.252 496.597 326.399 499.848 326.307C503.101 326.399 506.039 327.252 509.497 327.252C511.009 327.271 512.496 327.216 513.987 327.252C517.445 327.252 520.397 326.399 523.654 326.307C526.911 326.399 529.864 327.252 533.324 327.252C534.819 327.27 536.315 327.216 537.794 327.252C541.25 327.252 544.194 326.399 547.445 326.307C550.698 326.399 553.655 327.252 557.111 327.252C558.611 327.27 560.107 327.216 561.585 327.252C562.19 327.252 562.781 327.218 563.363 327.175L562.9 326.378C561.836 326.522 560.767 326.654 559.665 326.684C556.411 326.592 553.47 325.739 550.013 325.739C548.503 325.719 547.016 325.769 545.523 325.739C542.065 325.739 539.126 326.592 535.874 326.684C532.617 326.593 529.668 325.739 526.208 325.739C524.712 325.719 523.215 325.769 521.735 325.739C518.277 325.739 515.322 326.592 512.068 326.684C508.814 326.592 505.859 325.739 502.402 325.739C500.899 325.719 499.399 325.769 497.912 325.739C494.454 325.739 491.512 326.592 488.262 326.684C485.009 326.592 482.068 325.739 478.611 325.739C477.105 325.719 475.621 325.769 474.137 325.739C470.677 325.739 467.728 326.593 464.471 326.684C461.217 326.592 458.263 325.739 454.805 325.739C453.303 325.719 451.798 325.769 450.314 325.739Z" fill="url(#paint25_linear_2062_931)"/>
            <path d="M450.314 324.45C446.857 324.45 443.912 325.303 440.662 325.395C439.452 325.362 438.295 325.212 437.127 325.05L436.637 325.9C437.123 325.932 437.612 325.963 438.125 325.963C439.627 325.981 441.115 325.927 442.599 325.963C446.056 325.963 448.981 325.111 452.233 325.018C455.487 325.11 458.439 325.963 461.899 325.963C463.4 325.982 464.892 325.927 466.373 325.963C469.83 325.963 472.785 325.11 476.039 325.018C479.295 325.11 482.269 325.963 485.726 325.963C487.221 325.981 488.719 325.927 490.196 325.963C493.653 325.963 496.597 325.11 499.848 325.018C503.101 325.11 506.039 325.963 509.497 325.963C511.009 325.982 512.496 325.927 513.987 325.963C517.445 325.963 520.397 325.11 523.654 325.018C526.911 325.11 529.864 325.963 533.324 325.963C534.819 325.981 536.315 325.927 537.794 325.963C541.25 325.963 544.194 325.11 547.445 325.018C550.698 325.11 553.655 325.963 557.111 325.963C558.611 325.981 560.107 325.927 561.585 325.963C562.19 325.963 562.781 325.929 563.363 325.886L562.9 325.089C561.836 325.233 560.767 325.365 559.665 325.395C556.411 325.303 553.47 324.45 550.013 324.45C548.503 324.43 547.016 324.48 545.523 324.45C542.065 324.45 539.126 325.303 535.874 325.395C532.617 325.304 529.668 324.45 526.208 324.45C524.712 324.43 523.215 324.48 521.735 324.45C518.277 324.45 515.322 325.303 512.068 325.395C508.814 325.303 505.859 324.45 502.402 324.45C500.899 324.43 499.399 324.48 497.912 324.45C494.454 324.45 491.512 325.303 488.262 325.395C485.009 325.303 482.068 324.45 478.611 324.45C477.105 324.43 475.621 324.48 474.137 324.45C470.677 324.45 467.728 325.304 464.471 325.395C461.217 325.303 458.263 324.45 454.805 324.45C453.303 324.43 451.798 324.48 450.314 324.45Z" fill="url(#paint26_linear_2062_931)"/>
            <path d="M443.845 324.708L441.418 328.899C444.257 328.429 448.52 327.196 452.052 327.193C455.715 327.19 460.134 328.096 464.49 328.109C469.556 328.123 471.466 327.03 475.553 326.624C479.639 326.217 483.551 327.151 487.459 327.169C490.604 327.162 495.395 326.079 499.432 325.657C503.469 325.235 507.169 325.95 512.035 326.026C516.901 326.101 517.665 324.846 523.611 324.716C529.977 324.575 530.558 325.593 536.195 325.593C540.437 325.822 544.078 324.739 547.861 324.472C551.645 324.204 553.4 324.515 556.166 324.581L554.328 321.328C554.298 321.328 554.268 321.331 554.236 321.332L452.99 323.558L443.845 324.708Z" fill="#97C924"/>
            <path d="M550.066 324.651C550.066 324.651 552.776 324.799 553.913 324.927C554.897 325.027 555.882 325.111 556.868 325.18L556.498 324.695C555.925 324.898 552.078 324.505 550.066 324.651Z" fill="white"/>
        </g>
        <path d="M500 224.875L467.858 280.561L435 337.46L499.298 337.453L565 337.46L532.847 281.777L500 224.875ZM500 227.877L531.55 282.529L562.4 335.957L499.298 335.953L437.597 335.957L469.157 281.312L500 227.877Z" fill="#C8A400"/>
    </g>
    <defs>
        <linearGradient id="paint0_linear_2062_931" x1="498.739" y1="289.056" x2="500.627" y2="283.421" gradientUnits="userSpaceOnUse">
            <stop stop-color="#510000"/>
            <stop offset="0.3" stop-color="#8A0000"/>
            <stop offset="1" stop-color="#AA0000"/>
        </linearGradient>
        <linearGradient id="paint1_linear_2062_931" x1="501.442" y1="291.379" x2="502.925" y2="287.455" gradientUnits="userSpaceOnUse">
            <stop stop-color="#FF2A2A"/>
            <stop offset="1" stop-color="#FF0000"/>
        </linearGradient>
        <linearGradient id="paint2_linear_2062_931" x1="444.508" y1="317.487" x2="634.41" y2="317.487" gradientUnits="userSpaceOnUse">
            <stop stop-color="#002255"/>
            <stop offset="0.5" stop-color="#0044AA"/>
            <stop offset="1" stop-color="#002255"/>
        </linearGradient>
        <linearGradient id="paint3_linear_2062_931" x1="444.508" y1="316.377" x2="634.41" y2="316.377" gradientUnits="userSpaceOnUse">
            <stop stop-color="#002255"/>
            <stop offset="0.5" stop-color="#0044AA"/>
            <stop offset="1" stop-color="#002255"/>
        </linearGradient>
        <linearGradient id="paint4_linear_2062_931" x1="444.508" y1="315.26" x2="634.41" y2="315.26" gradientUnits="userSpaceOnUse">
            <stop stop-color="#002255"/>
            <stop offset="0.5" stop-color="#0044AA"/>
            <stop offset="1" stop-color="#002255"/>
        </linearGradient>
        <linearGradient id="paint5_linear_2062_931" x1="444.508" y1="314.143" x2="634.41" y2="314.143" gradientUnits="userSpaceOnUse">
            <stop stop-color="#002255"/>
            <stop offset="0.5" stop-color="#0044AA"/>
            <stop offset="1" stop-color="#002255"/>
        </linearGradient>
        <linearGradient id="paint6_linear_2062_931" x1="444.508" y1="313.033" x2="634.41" y2="313.033" gradientUnits="userSpaceOnUse">
            <stop stop-color="#002255"/>
            <stop offset="0.5" stop-color="#0044AA"/>
            <stop offset="1" stop-color="#002255"/>
        </linearGradient>
        <linearGradient id="paint7_linear_2062_931" x1="444.508" y1="311.916" x2="634.41" y2="311.916" gradientUnits="userSpaceOnUse">
            <stop stop-color="#002255"/>
            <stop offset="0.5" stop-color="#0044AA"/>
            <stop offset="1" stop-color="#002255"/>
        </linearGradient>
        <linearGradient id="paint8_linear_2062_931" x1="444.508" y1="310.791" x2="634.41" y2="310.791" gradientUnits="userSpaceOnUse">
            <stop stop-color="#002255"/>
            <stop offset="0.5" stop-color="#0044AA"/>
            <stop offset="1" stop-color="#002255"/>
        </linearGradient>
        <linearGradient id="paint9_linear_2062_931" x1="444.508" y1="309.682" x2="634.41" y2="309.682" gradientUnits="userSpaceOnUse">
            <stop stop-color="#002255"/>
            <stop offset="0.5" stop-color="#0044AA"/>
            <stop offset="1" stop-color="#002255"/>
        </linearGradient>
        <linearGradient id="paint10_linear_2062_931" x1="444.508" y1="308.565" x2="634.41" y2="308.565" gradientUnits="userSpaceOnUse">
            <stop stop-color="#002255"/>
            <stop offset="0.5" stop-color="#0044AA"/>
            <stop offset="1" stop-color="#002255"/>
        </linearGradient>
        <linearGradient id="paint11_linear_2062_931" x1="444.508" y1="317.489" x2="634.411" y2="317.489" gradientUnits="userSpaceOnUse">
            <stop stop-color="#002255"/>
            <stop offset="0.5" stop-color="#0044AA"/>
            <stop offset="1" stop-color="#002255"/>
        </linearGradient>
        <linearGradient id="paint12_linear_2062_931" x1="484.764" y1="311.713" x2="484.764" y2="317.651" gradientUnits="userSpaceOnUse">
            <stop stop-color="#F5F549"/>
            <stop offset="1" stop-color="#97C924"/>
        </linearGradient>
        <linearGradient id="paint13_linear_2062_931" x1="469.424" y1="311.713" x2="469.424" y2="317.651" gradientUnits="userSpaceOnUse">
            <stop stop-color="#F5F549"/>
            <stop offset="1" stop-color="#97C924"/>
        </linearGradient>
        <linearGradient id="paint14_linear_2062_931" x1="484.766" y1="311.711" x2="484.766" y2="317.649" gradientUnits="userSpaceOnUse">
            <stop stop-color="#F5F549"/>
            <stop offset="1" stop-color="#97C924"/>
        </linearGradient>
        <linearGradient id="paint15_linear_2062_931" x1="484.765" y1="311.713" x2="484.765" y2="317.651" gradientUnits="userSpaceOnUse">
            <stop stop-color="#F5F549"/>
            <stop offset="1" stop-color="#97C924"/>
        </linearGradient>
        <linearGradient id="paint16_linear_2062_931" x1="469.335" y1="311.713" x2="469.335" y2="317.651" gradientUnits="userSpaceOnUse">
            <stop stop-color="#F5F549"/>
            <stop offset="1" stop-color="#97C924"/>
        </linearGradient>
        <linearGradient id="paint17_linear_2062_931" x1="440.816" y1="323.117" x2="557.013" y2="323.117" gradientUnits="userSpaceOnUse">
            <stop stop-color="#002255"/>
            <stop offset="0.5" stop-color="#0044AA"/>
            <stop offset="1" stop-color="#002255"/>
        </linearGradient>
        <linearGradient id="paint18_linear_2062_931" x1="436.637" y1="334.75" x2="563.363" y2="334.75" gradientUnits="userSpaceOnUse">
            <stop stop-color="#002255"/>
            <stop offset="0.5" stop-color="#0044AA"/>
            <stop offset="1" stop-color="#002255"/>
        </linearGradient>
        <linearGradient id="paint19_linear_2062_931" x1="436.637" y1="333.461" x2="563.363" y2="333.461" gradientUnits="userSpaceOnUse">
            <stop stop-color="#002255"/>
            <stop offset="0.5" stop-color="#0044AA"/>
            <stop offset="1" stop-color="#002255"/>
        </linearGradient>
        <linearGradient id="paint20_linear_2062_931" x1="436.637" y1="332.172" x2="563.363" y2="332.172" gradientUnits="userSpaceOnUse">
            <stop stop-color="#002255"/>
            <stop offset="0.5" stop-color="#0044AA"/>
            <stop offset="1" stop-color="#002255"/>
        </linearGradient>
        <linearGradient id="paint21_linear_2062_931" x1="436.637" y1="330.883" x2="563.363" y2="330.883" gradientUnits="userSpaceOnUse">
            <stop stop-color="#002255"/>
            <stop offset="0.5" stop-color="#0044AA"/>
            <stop offset="1" stop-color="#002255"/>
        </linearGradient>
        <linearGradient id="paint22_linear_2062_931" x1="436.637" y1="329.594" x2="563.363" y2="329.594" gradientUnits="userSpaceOnUse">
            <stop stop-color="#002255"/>
            <stop offset="0.5" stop-color="#0044AA"/>
            <stop offset="1" stop-color="#002255"/>
        </linearGradient>
        <linearGradient id="paint23_linear_2062_931" x1="436.637" y1="328.305" x2="563.363" y2="328.305" gradientUnits="userSpaceOnUse">
            <stop stop-color="#002255"/>
            <stop offset="0.5" stop-color="#0044AA"/>
            <stop offset="1" stop-color="#002255"/>
        </linearGradient>
        <linearGradient id="paint24_linear_2062_931" x1="436.637" y1="327.023" x2="563.363" y2="327.023" gradientUnits="userSpaceOnUse">
            <stop stop-color="#002255"/>
            <stop offset="0.5" stop-color="#0044AA"/>
            <stop offset="1" stop-color="#002255"/>
        </linearGradient>
        <linearGradient id="paint25_linear_2062_931" x1="436.637" y1="325.734" x2="563.363" y2="325.734" gradientUnits="userSpaceOnUse">
            <stop stop-color="#002255"/>
            <stop offset="0.5" stop-color="#0044AA"/>
            <stop offset="1" stop-color="#002255"/>
        </linearGradient>
        <linearGradient id="paint26_linear_2062_931" x1="436.637" y1="324.445" x2="563.363" y2="324.445" gradientUnits="userSpaceOnUse">
            <stop stop-color="#002255"/>
            <stop offset="0.5" stop-color="#0044AA"/>
            <stop offset="1" stop-color="#002255"/>
        </linearGradient>
        <clipPath id="clip0_2062_931">
            <rect width="1000" height="600" fill="white"/>
        </clipPath>
    </defs>
</svg>
