<svg xmlns="http://www.w3.org/2000/svg" width="520" height="320" fill="none" viewBox="0 0 520 320">
  <g id="ohio" clip-path="url(#clip0_1030_1728)">
    <g id="1">
      <path fill="#DDD" d="M0 0v320l320-160L0 0Z"/>
      <path fill="#DDD" d="M320 0h200v53.33h-200V0Z"/>
      <path fill="#DDD" d="M320 106.67h200v53.33h-200v-53.33Z"/>
      <path fill="#DDD" d="M320 213.33h200v53.33h-200v-53.33Z"/>
      <path fill="#DDD" d="M320 320h200v-53.33h-200V320Z"/>
    </g>
    <g id="2">
      <path fill="#002868" d="M98.88 200c22.091 0 40-17.909 40-40s-17.909-40-40-40-40 17.909-40 40 17.908 40 40 40Z"/>
    </g>
    <g id="Group_2">
      <path id="Vector_4" fill="#fff" d="M98.88 220c33.137 0 60-26.863 60-60s-26.863-60-60-60-60 26.863-60 60 26.863 60 60 60Z"/>
      <g id="e">
        <g id="c">
          <g id="b">
            <path id="a" fill="#fff" d="m270.259 160.003-11.888-3.862-1.931 5.944 13.819-2.082Z"/>
            <path id="Vector_5" fill="#fff" d="m270.259 160.004-11.888 3.863-1.931-5.944 13.819 2.081Z"/>
          </g>
          <g id="b_2">
            <path id="a_2" fill="#fff" d="M261.621 171.898v-12.5h-6.25l6.25 12.5Z"/>
            <path id="Vector_6" fill="#fff" d="m261.622 171.894-7.348-10.113 5.057-3.673 2.291 13.786Z"/>
          </g>
        </g>
        <g id="b_3">
          <path id="a_3" fill="#fff" d="m261.623 148.114-7.348 10.113 5.057 3.673 2.291-13.786Z"/>
          <path id="Vector_7" fill="#fff" d="M261.623 148.117v12.5h-6.25l6.25-12.5Z"/>
        </g>
        <g id="c_2">
          <g id="b_4">
            <path id="a_4" fill="#fff" d="m247.647 167.355 11.888-3.863-1.931-5.944-9.957 9.807Z"/>
            <path id="Vector_8" fill="#fff" d="m247.647 167.355 7.347-10.113 5.056 3.674-12.403 6.439Z"/>
          </g>
          <g id="b_5">
            <path id="a_5" fill="#fff" d="m247.647 152.661 7.347 10.112 5.056-3.673-12.403-6.439Z"/>
            <path id="Vector_9" fill="#fff" d="m247.647 152.661 11.888 3.862-1.931 5.945-9.957-9.807Z"/>
          </g>
        </g>
      </g>
      <g id="g">
        <g id="e_2">
          <g id="c_3">
            <g id="b_6">
              <path id="a_6" fill="#fff" d="m190.26 159.996-11.888-3.863-1.931 5.944 13.819-2.081Z"/>
              <path id="Vector_10" fill="#fff" d="m190.26 159.997-11.888 3.862-1.931-5.944 13.819 2.082Z"/>
            </g>
            <g id="b_7">
              <path id="a_7" fill="#fff" d="M181.622 171.891v-12.5h-6.25l6.25 12.5Z"/>
              <path id="Vector_11" fill="#fff" d="m181.623 171.886-7.348-10.113 5.057-3.673 2.291 13.786Z"/>
            </g>
          </g>
          <g id="b_8">
            <path id="a_8" fill="#fff" d="m181.624 148.114-7.348 10.113 5.057 3.673 2.291-13.786Z"/>
            <path id="Vector_12" fill="#fff" d="M181.624 148.117v12.5h-6.25l6.25-12.5Z"/>
          </g>
          <g id="c_4">
            <g id="b_9">
              <path id="a_9" fill="#fff" d="m167.648 167.347 11.888-3.863-1.931-5.944-9.957 9.807Z"/>
              <path id="Vector_13" fill="#fff" d="m167.648 167.347 7.347-10.113 5.056 3.674-12.403 6.439Z"/>
            </g>
            <g id="b_10">
              <path id="a_10" fill="#fff" d="m167.648 152.653 7.347 10.113 5.056-3.674-12.403-6.439Z"/>
              <path id="Vector_14" fill="#fff" d="m167.648 152.653 11.888 3.863-1.931 5.944-9.957-9.807Z"/>
            </g>
          </g>
        </g>
        <g id="e_3">
          <g id="c_5">
            <g id="b_11">
              <path id="a_11" fill="#fff" d="m228.401 137.971-12.368-1.815-.907 6.184 13.275-4.369Z"/>
              <path id="Vector_15" fill="#fff" d="m228.401 137.973-11.073 5.8-2.9-5.536 13.973-.264Z"/>
            </g>
            <g id="b_12">
              <path id="a_12" fill="#fff" d="m221.879 151.143-2.096-12.323-6.161 1.048 8.257 11.275Z"/>
              <path id="Vector_16" fill="#fff" d="m221.879 151.144-8.939-8.738 4.369-4.469 4.57 13.207Z"/>
            </g>
          </g>
          <g id="b_13">
            <path id="a_13" fill="#fff" d="m217.893 127.705-5.548 11.201 5.6 2.774-.052-13.975Z"/>
            <path id="Vector_17" fill="#fff" d="m217.893 127.7 2.095 12.323-6.161 1.048 4.066-13.371Z"/>
          </g>
          <g id="c_6">
            <g id="b_14">
              <path id="a_14" fill="#fff" d="m207.34 149.012 11.072-5.801-2.9-5.536-8.172 11.337Z"/>
              <path id="Vector_18" fill="#fff" d="m207.34 149.006 5.548-11.201 5.6 2.774-11.148 8.427Z"/>
            </g>
            <g id="b_15">
              <path id="a_15" fill="#fff" d="m204.877 134.528 8.938 8.738 4.369-4.47-13.307-4.268Z"/>
              <path id="Vector_19" fill="#fff" d="m204.877 134.529 12.367 1.815-.907 6.183-11.46-7.998Z"/>
            </g>
          </g>
        </g>
        <g id="e_4">
          <g id="c_7">
            <g id="b_16">
              <path id="a_16" fill="#fff" d="m228.401 182.02-11.073-5.801-2.9 5.536 13.973.265Z"/>
              <path id="Vector_20" fill="#fff" d="m228.401 182.021-12.368 1.815-.907-6.184 13.275 4.369Z"/>
            </g>
            <g id="b_17">
              <path id="a_17" fill="#fff" d="m217.893 192.292 2.095-12.323-6.161-1.048 4.066 13.371Z"/>
              <path id="Vector_21" fill="#fff" d="m217.893 192.287-5.548-11.201 5.6-2.774-.052 13.975Z"/>
            </g>
          </g>
          <g id="b_18">
            <path id="a_18" fill="#fff" d="m221.878 168.856-8.939 8.738 4.369 4.469 4.57-13.207Z"/>
            <path id="Vector_22" fill="#fff" d="m221.879 168.857-2.096 12.323-6.161-1.048 8.257-11.275Z"/>
          </g>
          <g id="c_8">
            <g id="b_19">
              <path id="a_19" fill="#fff" d="m204.877 185.479 12.367-1.815-.907-6.184-11.46 7.999Z"/>
              <path id="Vector_23" fill="#fff" d="m204.877 185.48 8.938-8.738 4.369 4.469-13.307 4.269Z"/>
            </g>
            <g id="b_20">
              <path id="a_20" fill="#fff" d="m207.34 170.994 5.548 11.201 5.6-2.774-11.148-8.427Z"/>
              <path id="Vector_24" fill="#fff" d="m207.34 170.996 11.072 5.801-2.9 5.536-8.172-11.337Z"/>
            </g>
          </g>
        </g>
      </g>
      <g id="h">
        <g id="e_5">
          <g id="c_9">
            <g id="b_21">
              <path id="a_21" fill="#fff" d="m139.746 241.736-1.861-12.361-6.181.931 8.042 11.43Z"/>
              <path id="Vector_25" fill="#fff" d="m139.747 241.734-8.771-8.906 4.452-4.386 4.319 13.292Z"/>
            </g>
            <g id="b_22">
              <path id="a_22" fill="#fff" d="m125.251 239.317 11.181-5.59-2.795-5.591-8.386 11.181Z"/>
              <path id="Vector_26" fill="#fff" d="m125.251 239.321 5.76-11.094 5.547 2.879-11.307 8.215Z"/>
            </g>
          </g>
          <g id="b_23">
            <path id="a_23" fill="#fff" d="m146.517 228.69-12.33-2.049-1.025 6.165 13.355-4.116Z"/>
            <path id="Vector_27" fill="#fff" d="m146.517 228.691-11.18 5.59-2.795-5.59h13.975Z"/>
          </g>
          <g id="c_10">
            <g id="b_24">
              <path id="a_24" fill="#fff" d="m123.063 224.79 8.771 8.905 4.453-4.385-13.224-4.52Z"/>
              <path id="Vector_28" fill="#fff" d="m123.062 224.795 12.331 2.049-1.025 6.165-11.306-8.214Z"/>
            </g>
            <g id="b_25">
              <path id="a_25" fill="#fff" d="m136.207 218.218-5.76 11.094 5.547 2.88.213-13.974Z"/>
              <path id="Vector_29" fill="#fff" d="m136.206 218.218 1.861 12.36-6.18.931 4.319-13.291Z"/>
            </g>
          </g>
        </g>
        <g id="e_6">
          <g id="c_11">
            <g id="b_26">
              <path id="a_26" fill="#fff" d="m94.773 251.289 4.393-11.703-5.851-2.197 1.458 13.9Z"/>
              <path id="Vector_30" fill="#fff" d="m94.773 251.292-3.325-12.05 6.025-1.662-2.7 13.712Z"/>
            </g>
            <g id="b_27">
              <path id="a_27" fill="#fff" d="m83.285 242.126 12.487.562.281-6.244-12.768 5.682Z"/>
              <path id="Vector_31" fill="#fff" d="m83.285 242.128 10.433-6.886 3.442 5.217-13.875 1.669Z"/>
            </g>
          </g>
          <g id="b_28">
            <path id="a_28" fill="#fff" d="m107.037 243.201-9.772-7.795-3.898 4.886 13.67 2.909Z"/>
            <path id="Vector_32" fill="#fff" d="m107.037 243.195-12.487-.562.28-6.244 12.207 6.806Z"/>
          </g>
          <g id="c_12">
            <g id="b_29">
              <path id="a_29" fill="#fff" d="m88.449 228.372 3.324 12.05 6.025-1.662-9.35-10.388Z"/>
              <path id="Vector_33" fill="#fff" d="m88.45 228.37 9.772 7.794-3.897 4.886-5.876-12.68Z"/>
            </g>
            <g id="b_30">
              <path id="a_30" fill="#fff" d="m103.129 229.029-10.433 6.885 3.443 5.216 6.99-12.101Z"/>
              <path id="Vector_34" fill="#fff" d="m103.128 229.032-4.393 11.702-5.85-2.196 10.243-9.506Z"/>
            </g>
          </g>
        </g>
        <g id="g_2">
          <g id="e_7">
            <g id="c_13">
              <g id="b_31">
                <path id="a_31" fill="#fff" d="m50.84 237.73 9.536-8.082-4.041-4.767-5.495 12.849Z"/>
                <path id="Vector_35" fill="#fff" d="m50.84 237.737 2.964-12.143 6.072 1.482-9.036 10.661Z"/>
              </g>
              <g id="b_32">
                <path id="a_32" fill="#fff" d="m45.267 224.139 10.633 6.572 3.286-5.317-13.919-1.255Z"/>
                <path id="Vector_36" fill="#fff" d="m45.267 224.144 12.465-.933.467 6.232-12.932-5.299Z"/>
              </g>
            </g>
            <g id="b_33">
              <path id="a_33" fill="#fff" d="m65.494 236.637-4.74-11.567-5.783 2.37 10.523 9.197Z"/>
              <path id="Vector_37" fill="#fff" d="m65.493 236.634-10.633-6.572 3.286-5.316 7.347 11.888Z"/>
            </g>
            <g id="c_14">
              <g id="b_34">
                <path id="a_34" fill="#fff" d="m56.479 214.638-2.964 12.143 6.071 1.482-3.107-13.625Z"/>
                <path id="Vector_38" fill="#fff" d="m56.478 214.644 4.74 11.567-5.784 2.37 1.044-13.937Z"/>
              </g>
              <g id="b_35">
                <path id="a_35" fill="#fff" d="m68.978 222.363-12.465.934.467 6.232 11.998-7.166Z"/>
                <path id="Vector_39" fill="#fff" d="m68.978 222.363-9.536 8.082-4.04-4.768 13.576-3.314Z"/>
              </g>
            </g>
          </g>
          <g id="e_8">
            <g id="c_15">
              <g id="b_36">
                <path id="a_36" fill="#fff" d="m49.523 281.754 8.046-9.566-4.783-4.024-3.263 13.59Z"/>
                <path id="Vector_40" fill="#fff" d="m49.523 281.758.886-12.469 6.234.443-7.12 12.026Z"/>
              </g>
              <g id="b_37">
                <path id="a_37" fill="#fff" d="m41.75 269.288 11.584 4.696 2.348-5.792-13.932 1.096Z"/>
                <path id="Vector_41" fill="#fff" d="m41.75 269.283 12.133-3.01 1.505 6.067-13.637-3.057Z"/>
              </g>
            </g>
            <g id="b_38">
              <path id="a_38" fill="#fff" d="m63.784 278.226-6.611-10.609-5.304 3.306 11.915 7.303Z"/>
              <path id="Vector_42" fill="#fff" d="M63.785 278.22 52.2 273.523l2.348-5.792 9.236 10.489Z"/>
            </g>
            <g id="c_16">
              <g id="b_39">
                <path id="a_39" fill="#fff" d="m51.208 258.047-.887 12.469 6.235.443-5.348-12.912Z"/>
                <path id="Vector_43" fill="#fff" d="m51.208 258.04 6.611 10.608-5.304 3.306-1.307-13.914Z"/>
              </g>
              <g id="b_40">
                <path id="a_40" fill="#fff" d="m64.827 263.56-12.133 3.01 1.505 6.066 10.628-9.076Z"/>
                <path id="Vector_44" fill="#fff" d="m64.827 263.559-8.046 9.566-4.783-4.023 12.83-5.543Z"/>
              </g>
            </g>
          </g>
          <g id="e_9">
            <g id="c_17">
              <g id="b_41">
                <path id="a_41" fill="#fff" d="m12.054 258.604 10.756-6.37-3.185-5.377-7.571 11.747Z"/>
                <path id="Vector_45" fill="#fff" d="m12.054 258.6 4.958-11.475 5.737 2.479-10.695 8.996Z"/>
              </g>
              <g id="b_42">
                <path id="a_42" fill="#fff" d="m8.84 244.262 9.38 8.261 4.131-4.69-13.511-3.571Z"/>
                <path id="Vector_46" fill="#fff" d="m8.84 244.261 12.445 1.169-.584 6.222-11.861-7.391Z"/>
              </g>
            </g>
            <g id="b_43">
              <path id="a_43" fill="#fff" d="m26.684 259.979-2.734-12.198-6.098 1.367 8.832 10.831Z"/>
              <path id="Vector_47" fill="#fff" d="m26.684 259.98-9.381-8.261 4.13-4.691 5.25 12.952Z"/>
            </g>
            <g id="c_18">
              <g id="b_44">
                <path id="a_44" fill="#fff" d="m21.484 236.775-4.958 11.475 5.738 2.479-.78-13.954Z"/>
                <path id="Vector_48" fill="#fff" d="m21.484 236.771 2.734 12.198-6.099 1.367 3.365-13.565Z"/>
              </g>
              <g id="b_45">
                <path id="a_45" fill="#fff" d="m32.513 246.482-12.446-1.17-.584 6.223 13.03-5.053Z"/>
                <path id="Vector_49" fill="#fff" d="m32.512 246.482-10.755 6.37-3.185-5.378 13.94-.992Z"/>
              </g>
            </g>
          </g>
        </g>
        <g id="e_10">
          <g id="c_19">
            <g id="b_46">
              <path id="a_46" fill="#fff" d="m19.068 204.501 12.264-2.415-1.208-6.132-11.056 8.547Z"/>
              <path id="Vector_50" fill="#fff" d="m19.068 204.499 8.502-9.163 4.582 4.251-13.084 4.912Z"/>
            </g>
            <g id="b_47">
              <path id="a_47" fill="#fff" d="m20.822 189.91 6.087 10.918 5.46-3.043-11.547-7.875Z"/>
              <path id="Vector_51" fill="#fff" d="m20.822 189.917 11.342 5.255-2.627 5.671-8.715-10.926Z"/>
            </g>
          </g>
          <g id="b_48">
            <path id="a_48" fill="#fff" d="m32.4 210.676 1.494-12.41-6.206-.747 4.713 13.157Z"/>
            <path id="Vector_52" fill="#fff" d="m32.4 210.676-6.086-10.918 5.458-3.044.629 13.962Z"/>
          </g>
          <g id="c_20">
            <g id="b_49">
              <path id="a_49" fill="#fff" d="m35.24 187.072-8.503 9.162 4.582 4.252 3.92-13.414Z"/>
              <path id="Vector_53" fill="#fff" d="m35.24 187.066-1.493 12.411-6.205-.747 7.698-11.664Z"/>
            </g>
            <g id="b_50">
              <path id="a_50" fill="#fff" d="m42.395 199.903-11.341-5.255-2.628 5.671 13.97-.416Z"/>
              <path id="Vector_54" fill="#fff" d="m42.395 199.905-12.264 2.415-1.208-6.132 13.472 3.717Z"/>
            </g>
          </g>
        </g>
      </g>
      <g id="e_11">
        <g id="c_21">
          <g id="b_51">
            <path id="a_51" fill="#fff" d="m7.5 160.004 11.889 3.863 1.931-5.944-13.82 2.081Z"/>
            <path id="Vector_55" fill="#fff" d="m7.5 160.003 11.889-3.862 1.931 5.944-13.82-2.082Z"/>
          </g>
          <g id="b_52">
            <path id="a_52" fill="#fff" d="M16.139 148.109v12.5h6.25l-6.25-12.5Z"/>
            <path id="Vector_56" fill="#fff" d="m16.138 148.114 7.347 10.113-5.056 3.673-2.291-13.786Z"/>
          </g>
        </g>
        <g id="b_53">
          <path id="a_53" fill="#fff" d="m16.137 171.886 7.347-10.113-5.056-3.673-2.29 13.786Z"/>
          <path id="Vector_57" fill="#fff" d="M16.137 171.883v-12.5h6.25l-6.25 12.5Z"/>
        </g>
        <g id="c_22">
          <g id="b_54">
            <path id="a_54" fill="#fff" d="m30.113 152.653-11.888 3.863 1.931 5.944 9.957-9.807Z"/>
            <path id="Vector_58" fill="#fff" d="m30.113 152.653-7.347 10.113-5.057-3.674 12.404-6.439Z"/>
          </g>
          <g id="b_55">
            <path id="a_55" fill="#fff" d="m30.113 167.347-7.347-10.113-5.057 3.674 12.404 6.439Z"/>
            <path id="Vector_59" fill="#fff" d="m30.113 167.347-11.888-3.863 1.931-5.944 9.957 9.807Z"/>
          </g>
        </g>
      </g>
      <g id="h_2">
        <g id="e_12">
          <g id="c_23">
            <g id="b_56">
              <path id="a_56" fill="#fff" d="m139.746 78.272-1.861 12.36-6.181-.93 8.042-11.43Z"/>
              <path id="Vector_60" fill="#fff" d="m139.747 78.274-8.771 8.906 4.452 4.385 4.319-13.291Z"/>
            </g>
            <g id="b_57">
              <path id="a_57" fill="#fff" d="m125.251 80.691 11.181 5.59-2.795 5.59-8.386-11.18Z"/>
              <path id="Vector_61" fill="#fff" d="m125.251 80.687 5.76 11.094 5.547-2.88-11.307-8.214Z"/>
            </g>
          </g>
          <g id="b_58">
            <path id="a_58" fill="#fff" d="m146.517 91.318-12.33 2.05-1.025-6.166 13.355 4.116Z"/>
            <path id="Vector_62" fill="#fff" d="m146.517 91.317-11.18-5.59-2.795 5.59h13.975Z"/>
          </g>
          <g id="c_24">
            <g id="b_59">
              <path id="a_59" fill="#fff" d="m123.063 95.218 8.771-8.906 4.453 4.386-13.224 4.52Z"/>
              <path id="Vector_63" fill="#fff" d="m123.062 95.213 12.331-2.049L134.368 87l-11.306 8.214Z"/>
            </g>
            <g id="b_60">
              <path id="a_60" fill="#fff" d="m136.207 101.789-5.76-11.094 5.547-2.88.213 13.974Z"/>
              <path id="Vector_64" fill="#fff" d="m136.206 101.79 1.861-12.36-6.18-.931 4.319 13.291Z"/>
            </g>
          </g>
        </g>
        <g id="e_13">
          <g id="c_25">
            <g id="b_61">
              <path id="a_61" fill="#fff" d="m94.773 68.72 4.393 11.702-5.851 2.196 1.458-13.899Z"/>
              <path id="Vector_65" fill="#fff" d="m94.773 68.716-3.325 12.05 6.025 1.662-2.7-13.712Z"/>
            </g>
            <g id="b_62">
              <path id="a_62" fill="#fff" d="m83.285 77.882 12.487-.562.281 6.244-12.768-5.682Z"/>
              <path id="Vector_66" fill="#fff" d="m83.285 77.88 10.433 6.886 3.442-5.217-13.875-1.669Z"/>
            </g>
          </g>
          <g id="b_63">
            <path id="a_63" fill="#fff" d="m107.037 76.807-9.772 7.795-3.898-4.887 13.67-2.908Z"/>
            <path id="Vector_67" fill="#fff" d="m107.037 76.813-12.487.562.28 6.244 12.207-6.806Z"/>
          </g>
          <g id="c_26">
            <g id="b_64">
              <path id="a_64" fill="#fff" d="m88.449 91.636 3.324-12.05 6.025 1.662-9.35 10.388Z"/>
              <path id="Vector_68" fill="#fff" d="m88.45 91.638 9.772-7.794-3.897-4.886-5.876 12.68Z"/>
            </g>
            <g id="b_65">
              <path id="a_65" fill="#fff" d="m103.129 90.98-10.433-6.886 3.443-5.217 6.99 12.102Z"/>
              <path id="Vector_69" fill="#fff" d="m103.128 90.976-4.393-11.703-5.85 2.197 10.243 9.506Z"/>
            </g>
          </g>
        </g>
        <g id="g_3">
          <g id="e_14">
            <g id="c_27">
              <g id="b_66">
                <path id="a_66" fill="#fff" d="m50.84 82.277 9.536 8.082-4.041 4.768-5.495-12.85Z"/>
                <path id="Vector_70" fill="#fff" d="m50.84 82.27 2.964 12.144 6.072-1.482-9.036-10.661Z"/>
              </g>
              <g id="b_67">
                <path id="a_67" fill="#fff" d="M45.267 95.868 55.9 89.297l3.286 5.317-13.919 1.254Z"/>
                <path id="Vector_71" fill="#fff" d="m45.267 95.863 12.465.934.467-6.233-12.932 5.3Z"/>
              </g>
            </g>
            <g id="b_68">
              <path id="a_68" fill="#fff" d="m65.494 83.371-4.74 11.567-5.783-2.37 10.523-9.197Z"/>
              <path id="Vector_72" fill="#fff" d="M65.493 83.374 54.86 89.945l3.286 5.317 7.347-11.888Z"/>
            </g>
            <g id="c_28">
              <g id="b_69">
                <path id="a_69" fill="#fff" d="m56.479 105.37-2.964-12.143 6.071-1.483-3.107 13.626Z"/>
                <path id="Vector_73" fill="#fff" d="m56.478 105.363 4.74-11.566-5.784-2.37 1.044 13.936Z"/>
              </g>
              <g id="b_70">
                <path id="a_70" fill="#fff" d="m68.978 97.644-12.465-.933.467-6.233 11.998 7.166Z"/>
                <path id="Vector_74" fill="#fff" d="m68.978 97.644-9.536-8.082-4.04 4.768 13.576 3.314Z"/>
              </g>
            </g>
          </g>
          <g id="e_15">
            <g id="c_29">
              <g id="b_71">
                <path id="a_71" fill="#fff" d="m49.523 38.254 8.046 9.566-4.783 4.023-3.263-13.589Z"/>
                <path id="Vector_75" fill="#fff" d="m49.523 38.25.886 12.469 6.234-.444-7.12-12.025Z"/>
              </g>
              <g id="b_72">
                <path id="a_72" fill="#fff" d="m41.75 50.72 11.584-4.697 2.348 5.793L41.75 50.72Z"/>
                <path id="Vector_76" fill="#fff" d="m41.75 50.724 12.133 3.01 1.505-6.066-13.637 3.056Z"/>
              </g>
            </g>
            <g id="b_73">
              <path id="a_73" fill="#fff" d="m63.784 41.782-6.611 10.609-5.304-3.306 11.915-7.303Z"/>
              <path id="Vector_77" fill="#fff" d="M63.785 41.788 52.2 46.484l2.348 5.792 9.236-10.488Z"/>
            </g>
            <g id="c_30">
              <g id="b_74">
                <path id="a_74" fill="#fff" d="m51.208 61.96-.887-12.468 6.235-.443-5.348 12.912Z"/>
                <path id="Vector_78" fill="#fff" d="m51.208 61.968 6.611-10.609-5.304-3.305-1.307 13.914Z"/>
              </g>
              <g id="b_75">
                <path id="a_75" fill="#fff" d="m64.827 56.447-12.133-3.01 1.505-6.066 10.628 9.076Z"/>
                <path id="Vector_79" fill="#fff" d="m64.827 56.449-8.046-9.566-4.783 4.023 12.83 5.543Z"/>
              </g>
            </g>
          </g>
          <g id="e_16">
            <g id="c_31">
              <g id="b_76">
                <path id="a_76" fill="#fff" d="m12.054 61.404 10.756 6.37-3.185 5.377-7.571-11.747Z"/>
                <path id="Vector_80" fill="#fff" d="m12.054 61.408 4.958 11.475 5.737-2.48-10.695-8.995Z"/>
              </g>
              <g id="b_77">
                <path id="a_77" fill="#fff" d="m8.84 75.745 9.38-8.26 4.131 4.69-13.511 3.57Z"/>
                <path id="Vector_81" fill="#fff" d="m8.84 75.747 12.445-1.169-.584-6.222L8.84 75.747Z"/>
              </g>
            </g>
            <g id="b_78">
              <path id="a_78" fill="#fff" d="M26.684 60.03 23.95 72.226l-6.098-1.367 8.832-10.83Z"/>
              <path id="Vector_82" fill="#fff" d="m26.684 60.028-9.381 8.261 4.13 4.69 5.25-12.95Z"/>
            </g>
            <g id="c_32">
              <g id="b_79">
                <path id="a_79" fill="#fff" d="m21.484 83.233-4.958-11.475 5.738-2.48-.78 13.955Z"/>
                <path id="Vector_83" fill="#fff" d="m21.484 83.236 2.734-12.197-6.099-1.367 3.365 13.564Z"/>
              </g>
              <g id="b_80">
                <path id="a_80" fill="#fff" d="m32.513 73.526-12.446 1.17-.584-6.223 13.03 5.053Z"/>
                <path id="Vector_84" fill="#fff" d="m32.512 73.525-10.755-6.369-3.185 5.378 13.94.991Z"/>
              </g>
            </g>
          </g>
        </g>
        <g id="e_17">
          <g id="c_33">
            <g id="b_81">
              <path id="a_81" fill="#fff" d="m19.068 115.507 12.264 2.415-1.208 6.132-11.056-8.547Z"/>
              <path id="Vector_85" fill="#fff" d="m19.068 115.509 8.502 9.163 4.582-4.251-13.084-4.912Z"/>
            </g>
            <g id="b_82">
              <path id="a_82" fill="#fff" d="m20.822 130.097 6.087-10.917 5.46 3.043-11.547 7.874Z"/>
              <path id="Vector_86" fill="#fff" d="m20.822 130.091 11.342-5.255-2.627-5.671-8.715 10.926Z"/>
            </g>
          </g>
          <g id="b_83">
            <path id="a_83" fill="#fff" d="m32.4 109.332 1.494 12.41-6.206.747 4.713-13.157Z"/>
            <path id="Vector_87" fill="#fff" d="m32.4 109.332-6.086 10.918 5.458 3.044.629-13.962Z"/>
          </g>
          <g id="c_34">
            <g id="b_84">
              <path id="a_84" fill="#fff" d="m35.24 132.936-8.503-9.163 4.582-4.251 3.92 13.414Z"/>
              <path id="Vector_88" fill="#fff" d="m35.24 132.942-1.493-12.411-6.205.747 7.698 11.664Z"/>
            </g>
            <g id="b_85">
              <path id="a_85" fill="#fff" d="m42.395 120.105-11.341 5.254-2.628-5.671 13.97.417Z"/>
              <path id="Vector_89" fill="#fff" d="m42.395 120.103-12.264-2.415-1.208 6.132 13.472-3.717Z"/>
            </g>
          </g>
        </g>
      </g>
    </g>
  </g>
  <defs>
    <clipPath id="clip0_1030_1728">
      <path fill="#fff" d="M0 0h520v320H0z"/>
    </clipPath>
  </defs>
</svg>
