<svg width="1200" height="600" viewBox="0 0 1200 600" fill="none"
    xmlns="http://www.w3.org/2000/svg">
    <g clip-path="url(#clip0_1938_179)">
        <path id="1" d="M0 0H1200V600H0V0Z" fill="#EDEDF0"/>
        <path id="2" d="M300 0H1200V200H300V0Z" fill="#DDDDDD"/>
        <path id="3" d="M300 400H1200V600H300V400Z" fill="#DDDDDD"/>
        <path d="M101.308 102.641H69.0685C67.2929 102.641 65.8535 103.99 65.8535 105.656V120.843C65.8535 122.508 67.2929 123.858 69.0685 123.858H101.308C103.083 123.858 104.523 122.508 104.523 120.843V105.656C104.523 103.99 103.083 102.641 101.308 102.641Z" fill="white" stroke="#DB161B" stroke-width="0.378"/>
        <path d="M100.482 103.52H69.8957C68.2112 103.52 66.8457 104.757 66.8457 106.284V120.205C66.8457 121.731 68.2112 122.969 69.8957 122.969H100.482C102.166 122.969 103.532 121.731 103.532 120.205V106.284C103.532 104.757 102.166 103.52 100.482 103.52Z" fill="white" stroke="#DB161B" stroke-width="0.352"/>
        <path fill-rule="evenodd" clip-rule="evenodd" d="M83.9038 108.832L85.7568 108.892L85.8408 109.732L87.3568 110.502L88.5368 109.542L89.9678 110.312L88.6208 111.152L88.9578 112.312L90.6418 112.252V113.802L89.2948 113.732L88.6208 114.702L90.1368 115.802L88.9578 116.702L87.6938 115.732L85.8408 116.122L85.9248 117.542L83.9038 117.672L83.6508 116.312L81.9668 115.602L81.0398 116.572L79.6078 115.862L80.4508 114.762L79.4398 114.052H78.0078L77.9238 112.052L79.3558 112.182L80.3658 111.022L79.1868 110.122L80.7028 109.082L81.7978 109.922L83.6508 109.672L83.9038 108.832Z" fill="white" stroke="#DB161B" stroke-width="0.222"/>
        <path d="M84.4627 114.762C85.5866 114.762 86.4977 113.982 86.4977 113.02C86.4977 112.057 85.5866 111.277 84.4627 111.277C83.3388 111.277 82.4277 112.057 82.4277 113.02C82.4277 113.982 83.3388 114.762 84.4627 114.762Z" fill="white" stroke="#DB161B" stroke-width="0.239452"/>
        <path fill-rule="evenodd" clip-rule="evenodd" d="M71.8021 104.41L68.8281 107.06ZM73.7851 104.41L70.8111 107.06ZM75.7681 104.41L72.7941 107.06ZM77.7511 104.41L74.7771 107.06ZM79.7341 104.41L76.7601 107.06ZM81.7171 104.41L78.7431 107.06ZM83.7011 104.41L80.7261 107.06ZM85.6841 104.41L82.7091 107.06ZM87.6671 104.41L84.6921 107.06ZM89.6501 104.41L86.6751 107.06ZM91.6331 104.41L88.6581 107.06ZM93.6161 104.41L90.6411 107.06ZM85.6841 104.41L82.7091 107.06ZM95.5991 104.41L92.6241 107.06ZM97.5821 104.41L94.6071 107.06ZM99.5651 104.41L96.5901 107.06ZM101.549 104.41L98.5731 107.06ZM98.5731 104.41L101.549 107.06ZM96.5901 104.41L99.5651 107.06ZM94.6071 104.41L97.5821 107.06ZM92.6241 104.41L95.5991 107.06ZM90.6411 104.41L93.6161 107.06ZM88.6581 104.41L91.6331 107.06ZM86.6751 104.41L89.6501 107.06ZM84.6921 104.41L87.6671 107.06ZM82.7091 104.41L85.6841 107.06ZM80.7261 104.41L83.7011 107.06ZM78.7431 104.41L81.7181 107.06ZM76.7601 104.41L79.7341 107.06ZM84.6921 104.41L87.6671 107.06ZM74.7771 104.41L77.7511 107.06ZM72.7941 104.41L75.7681 107.06ZM70.8111 104.41L73.7851 107.06ZM68.8281 104.41L71.8021 107.06ZM71.8021 119.43L68.8281 122.09ZM73.7851 119.43L70.8111 122.09ZM75.7681 119.43L72.7941 122.09ZM77.7511 119.43L74.7771 122.09ZM79.7341 119.43L76.7601 122.09ZM81.7171 119.43L78.7431 122.09ZM83.7011 119.43L80.7261 122.09ZM85.6841 119.43L82.7091 122.09ZM87.6671 119.43L84.6921 122.09ZM89.6501 119.43L86.6751 122.09ZM91.6331 119.43L88.6581 122.09ZM93.6161 119.43L90.6411 122.09ZM85.6841 119.43L82.7091 122.09ZM95.5991 119.43L92.6241 122.09ZM97.5821 119.43L94.6071 122.09ZM99.5651 119.43L96.5901 122.09ZM101.549 119.43L98.5731 122.09ZM98.5731 119.43L101.549 122.09ZM96.5901 119.43L99.5651 122.09ZM94.6071 119.43L97.5821 122.09ZM92.6241 119.43L95.5991 122.09ZM90.6411 119.43L93.6161 122.09ZM88.6581 119.43L91.6331 122.09ZM86.6751 119.43L89.6501 122.09ZM84.6921 119.43L87.6671 122.09ZM82.7091 119.43L85.6841 122.09ZM80.7261 119.43L83.7011 122.09ZM78.7431 119.43L81.7181 122.09ZM76.7601 119.43L79.7341 122.09ZM84.6921 119.43L87.6671 122.09ZM74.7771 119.43L77.7511 122.09ZM72.7941 119.43L75.7681 122.09ZM70.8111 119.43L73.7851 122.09ZM68.8281 119.43L71.8021 122.09Z" fill="white"/>
        <path d="M71.8021 104.41L68.8281 107.06M73.7851 104.41L70.8111 107.06M75.7681 104.41L72.7941 107.06M77.7511 104.41L74.7771 107.06M79.7341 104.41L76.7601 107.06M81.7171 104.41L78.7431 107.06M83.7011 104.41L80.7261 107.06M85.6841 104.41L82.7091 107.06M87.6671 104.41L84.6921 107.06M89.6501 104.41L86.6751 107.06M91.6331 104.41L88.6581 107.06M93.6161 104.41L90.6411 107.06M95.5991 104.41L92.6241 107.06M97.5821 104.41L94.6071 107.06M99.5651 104.41L96.5901 107.06M101.549 104.41L98.5731 107.06M98.5731 104.41L101.549 107.06M96.5901 104.41L99.5651 107.06M94.6071 104.41L97.5821 107.06M92.6241 104.41L95.5991 107.06M90.6411 104.41L93.6161 107.06M88.6581 104.41L91.6331 107.06M86.6751 104.41L89.6501 107.06M84.6921 104.41L87.6671 107.06M82.7091 104.41L85.6841 107.06M80.7261 104.41L83.7011 107.06M78.7431 104.41L81.7181 107.06M76.7601 104.41L79.7341 107.06M74.7771 104.41L77.7511 107.06M72.7941 104.41L75.7681 107.06M70.8111 104.41L73.7851 107.06M68.8281 104.41L71.8021 107.06M71.8021 119.43L68.8281 122.09M73.7851 119.43L70.8111 122.09M75.7681 119.43L72.7941 122.09M77.7511 119.43L74.7771 122.09M79.7341 119.43L76.7601 122.09M81.7171 119.43L78.7431 122.09M83.7011 119.43L80.7261 122.09M85.6841 119.43L82.7091 122.09M87.6671 119.43L84.6921 122.09M89.6501 119.43L86.6751 122.09M91.6331 119.43L88.6581 122.09M93.6161 119.43L90.6411 122.09M95.5991 119.43L92.6241 122.09M97.5821 119.43L94.6071 122.09M99.5651 119.43L96.5901 122.09M101.549 119.43L98.5731 122.09M98.5731 119.43L101.549 122.09M96.5901 119.43L99.5651 122.09M94.6071 119.43L97.5821 122.09M92.6241 119.43L95.5991 122.09M90.6411 119.43L93.6161 122.09M88.6581 119.43L91.6331 122.09M86.6751 119.43L89.6501 122.09M84.6921 119.43L87.6671 122.09M82.7091 119.43L85.6841 122.09M80.7261 119.43L83.7011 122.09M78.7431 119.43L81.7181 122.09M76.7601 119.43L79.7341 122.09M74.7771 119.43L77.7511 122.09M72.7941 119.43L75.7681 122.09M70.8111 119.43L73.7851 122.09M68.8281 119.43L71.8021 122.09" stroke="#DB161B" stroke-width="0.352"/>
        <path d="M198.692 102.641H230.931C232.707 102.641 234.146 103.99 234.146 105.656V120.843C234.146 122.508 232.707 123.858 230.931 123.858H198.692C196.917 123.858 195.477 122.508 195.477 120.843V105.656C195.477 103.99 196.917 102.641 198.692 102.641Z" fill="white" stroke="#DB161B" stroke-width="0.378"/>
        <path d="M199.518 103.52H230.104C231.789 103.52 233.154 104.757 233.154 106.284V120.205C233.154 121.731 231.789 122.969 230.104 122.969H199.518C197.834 122.969 196.468 121.731 196.468 120.205V106.284C196.468 104.757 197.834 103.52 199.518 103.52Z" fill="white" stroke="#DB161B" stroke-width="0.352"/>
        <path fill-rule="evenodd" clip-rule="evenodd" d="M216.096 108.832L214.243 108.892L214.159 109.732L212.643 110.502L211.463 109.542L210.032 110.312L211.379 111.152L211.042 112.312L209.358 112.252V113.802L210.705 113.732L211.379 114.702L209.863 115.802L211.042 116.702L212.306 115.732L214.159 116.122L214.075 117.542L216.096 117.672L216.349 116.312L218.033 115.602L218.96 116.572L220.392 115.862L219.549 114.762L220.56 114.052H221.992L222.076 112.052L220.644 112.182L219.634 111.022L220.813 110.122L219.297 109.082L218.202 109.922L216.349 109.672L216.096 108.832Z" fill="white" stroke="#DB161B" stroke-width="0.222"/>
        <path d="M215.537 114.762C214.413 114.762 213.502 113.982 213.502 113.02C213.502 112.057 214.413 111.277 215.537 111.277C216.661 111.277 217.572 112.057 217.572 113.02C217.572 113.982 216.661 114.762 215.537 114.762Z" fill="white" stroke="#DB161B" stroke-width="0.239452"/>
        <path fill-rule="evenodd" clip-rule="evenodd" d="M228.198 104.41L231.172 107.06ZM226.215 104.41L229.189 107.06ZM224.232 104.41L227.206 107.06ZM222.249 104.41L225.223 107.06ZM220.266 104.41L223.24 107.06ZM218.283 104.41L221.257 107.06ZM216.299 104.41L219.274 107.06ZM214.316 104.41L217.291 107.06ZM212.333 104.41L215.308 107.06ZM210.35 104.41L213.325 107.06ZM208.367 104.41L211.342 107.06ZM206.384 104.41L209.359 107.06ZM214.316 104.41L217.291 107.06ZM204.401 104.41L207.376 107.06ZM202.418 104.41L205.393 107.06ZM200.435 104.41L203.41 107.06ZM198.451 104.41L201.427 107.06ZM201.427 104.41L198.451 107.06ZM203.41 104.41L200.435 107.06ZM205.393 104.41L202.418 107.06ZM207.376 104.41L204.401 107.06ZM209.359 104.41L206.384 107.06ZM211.342 104.41L208.367 107.06ZM213.325 104.41L210.35 107.06ZM215.308 104.41L212.333 107.06ZM217.291 104.41L214.316 107.06ZM219.274 104.41L216.299 107.06ZM221.257 104.41L218.282 107.06ZM223.24 104.41L220.266 107.06ZM215.308 104.41L212.333 107.06ZM225.223 104.41L222.249 107.06ZM227.206 104.41L224.232 107.06ZM229.189 104.41L226.215 107.06ZM231.172 104.41L228.198 107.06ZM228.198 119.43L231.172 122.09ZM226.215 119.43L229.189 122.09ZM224.232 119.43L227.206 122.09ZM222.249 119.43L225.223 122.09ZM220.266 119.43L223.24 122.09ZM218.283 119.43L221.257 122.09ZM216.299 119.43L219.274 122.09ZM214.316 119.43L217.291 122.09ZM212.333 119.43L215.308 122.09ZM210.35 119.43L213.325 122.09ZM208.367 119.43L211.342 122.09ZM206.384 119.43L209.359 122.09ZM214.316 119.43L217.291 122.09ZM204.401 119.43L207.376 122.09ZM202.418 119.43L205.393 122.09ZM200.435 119.43L203.41 122.09ZM198.451 119.43L201.427 122.09ZM201.427 119.43L198.451 122.09ZM203.41 119.43L200.435 122.09ZM205.393 119.43L202.418 122.09ZM207.376 119.43L204.401 122.09ZM209.359 119.43L206.384 122.09ZM211.342 119.43L208.367 122.09ZM213.325 119.43L210.35 122.09ZM215.308 119.43L212.333 122.09ZM217.291 119.43L214.316 122.09ZM219.274 119.43L216.299 122.09ZM221.257 119.43L218.282 122.09ZM223.24 119.43L220.266 122.09ZM215.308 119.43L212.333 122.09ZM225.223 119.43L222.249 122.09ZM227.206 119.43L224.232 122.09ZM229.189 119.43L226.215 122.09ZM231.172 119.43L228.198 122.09Z" fill="white"/>
        <path d="M228.198 104.41L231.172 107.06M226.215 104.41L229.189 107.06M224.232 104.41L227.206 107.06M222.249 104.41L225.223 107.06M220.266 104.41L223.24 107.06M218.283 104.41L221.257 107.06M216.299 104.41L219.274 107.06M214.316 104.41L217.291 107.06M212.333 104.41L215.308 107.06M210.35 104.41L213.325 107.06M208.367 104.41L211.342 107.06M206.384 104.41L209.359 107.06M204.401 104.41L207.376 107.06M202.418 104.41L205.393 107.06M200.435 104.41L203.41 107.06M198.451 104.41L201.427 107.06M201.427 104.41L198.451 107.06M203.41 104.41L200.435 107.06M205.393 104.41L202.418 107.06M207.376 104.41L204.401 107.06M209.359 104.41L206.384 107.06M211.342 104.41L208.367 107.06M213.325 104.41L210.35 107.06M215.308 104.41L212.333 107.06M217.291 104.41L214.316 107.06M219.274 104.41L216.299 107.06M221.257 104.41L218.282 107.06M223.24 104.41L220.266 107.06M225.223 104.41L222.249 107.06M227.206 104.41L224.232 107.06M229.189 104.41L226.215 107.06M231.172 104.41L228.198 107.06M228.198 119.43L231.172 122.09M226.215 119.43L229.189 122.09M224.232 119.43L227.206 122.09M222.249 119.43L225.223 122.09M220.266 119.43L223.24 122.09M218.283 119.43L221.257 122.09M216.299 119.43L219.274 122.09M214.316 119.43L217.291 122.09M212.333 119.43L215.308 122.09M210.35 119.43L213.325 122.09M208.367 119.43L211.342 122.09M206.384 119.43L209.359 122.09M204.401 119.43L207.376 122.09M202.418 119.43L205.393 122.09M200.435 119.43L203.41 122.09M198.451 119.43L201.427 122.09M201.427 119.43L198.451 122.09M203.41 119.43L200.435 122.09M205.393 119.43L202.418 122.09M207.376 119.43L204.401 122.09M209.359 119.43L206.384 122.09M211.342 119.43L208.367 122.09M213.325 119.43L210.35 122.09M215.308 119.43L212.333 122.09M217.291 119.43L214.316 122.09M219.274 119.43L216.299 122.09M221.257 119.43L218.282 122.09M223.24 119.43L220.266 122.09M225.223 119.43L222.249 122.09M227.206 119.43L224.232 122.09M229.189 119.43L226.215 122.09M231.172 119.43L228.198 122.09" stroke="#DB161B" stroke-width="0.352"/>
        <path fill-rule="evenodd" clip-rule="evenodd" d="M126.509 147.12C78.3955 194.17 57.8715 200.12 67.5035 203.91C77.1355 207.7 108.119 183.42 140.359 151.16C172.599 118.91 192.34 90.2038 182.71 86.4128C173.08 82.6208 177.679 97.0747 126.509 147.12Z" fill="white" stroke="#DB161B" stroke-width="0.565"/>
        <path fill-rule="evenodd" clip-rule="evenodd" d="M86.0083 181.309L102.86 185.729C86.9993 200.759 69.1523 206.949 64.1953 204.299C59.2373 201.649 73.1183 195.459 86.0083 181.309Z" fill="white" stroke="#DB161B" stroke-width="0.33"/>
        <path fill-rule="evenodd" clip-rule="evenodd" d="M86.0088 183.082L99.8898 186.622C84.4368 201.072 69.1528 205.182 65.1978 203.422C61.2208 201.652 73.4528 196.682 86.0088 183.082Z" fill="white" stroke="#DB161B" stroke-width="0.33"/>
        <path d="M137.791 145.059C137.751 145.289 137.641 146.299 137.541 146.699C137.541 147.259 137.481 147.679 137.421 148.119C137.261 148.499 137.291 148.849 136.801 148.989C136.471 149.449 136.261 149.569 135.821 149.759C135.521 149.989 135.061 150.219 134.581 150.409C134.091 150.599 133.641 150.619 133.111 150.519C132.671 150.249 132.361 149.979 132.001 149.759C131.911 149.409 131.841 148.899 131.751 148.559C131.881 148.909 131.981 149.469 132.001 149.969C131.951 150.519 131.751 150.759 131.511 151.169M133.231 152.369C133.191 152.339 133.151 152.299 133.111 152.259C133.401 152.519 133.281 152.399 132.611 152.049C132.141 151.829 131.631 151.709 131.011 151.609H129.291C128.621 151.609 128.171 151.699 127.691 151.829C127.341 152.139 126.821 152.309 126.461 152.589C126.081 152.819 125.921 153.089 125.721 153.459C125.381 153.759 125.161 154.219 124.851 154.449C124.721 154.949 124.431 154.929 124.241 155.319C124.821 155.359 125.291 155.429 125.591 155.749C126.111 155.989 125.161 155.519 124.981 155.319C124.571 155.209 124.471 155.099 123.871 155.099C123.311 154.939 122.971 155.229 122.391 155.319C122.061 155.489 121.961 155.539 121.531 155.539M126.581 157.829C126.331 157.839 125.181 158.029 124.731 157.829C124.231 157.709 123.931 157.469 123.621 157.059C123.471 156.769 123.621 157.589 123.621 157.939C123.571 158.579 123.351 158.589 123.011 159.029C122.651 159.229 122.271 159.519 121.901 159.679C121.591 159.919 121.211 160.079 120.791 160.229C120.421 160.379 119.981 160.539 119.681 160.769C119.271 161.029 119.311 161.349 119.071 161.749C119.111 162.289 119.211 162.589 119.561 162.849C119.701 163.209 120.031 163.579 120.301 163.829C120.601 164.329 120.941 164.559 120.171 164.699C119.751 164.859 119.521 164.729 119.071 164.699M118.821 165.459C118.521 165.399 117.441 165.079 116.971 164.919H115.251C114.581 164.959 114.451 165.139 113.891 165.349C113.531 165.679 113.281 165.909 112.781 166.119C112.521 166.419 112.001 166.929 111.801 167.319C111.651 167.689 111.551 168.189 111.551 168.739C111.561 169.369 111.751 169.479 111.801 170.049C111.941 170.509 112.161 170.939 112.541 171.349C112.591 171.489 112.631 171.529 112.781 171.569M112.951 172.999C112.901 172.999 112.781 173.279 112.601 173.519C112.211 173.919 112.161 173.949 111.551 173.949C111.011 173.929 111.061 173.739 110.681 173.599C110.501 173.329 110.271 173.109 110.071 172.739C109.931 172.519 109.801 172.169 109.631 171.969C109.471 171.709 109.271 171.519 109.101 171.279C108.941 171.209 108.881 171.139 108.671 171.109C109.171 171.189 109.211 171.359 109.541 171.619C109.691 171.869 109.851 172.119 109.981 172.399C110.031 172.769 110.151 173.059 110.151 173.519C110.151 173.989 110.151 174.329 109.981 174.719C109.771 174.939 109.621 175.159 109.371 175.329C109.161 175.519 108.911 175.779 108.751 176.009C108.481 176.179 108.281 176.319 107.971 176.529C107.701 176.679 107.421 176.839 107.011 176.879C106.491 176.839 106.341 176.699 105.961 176.529C105.631 176.289 105.371 176.139 105.081 175.929C104.851 175.769 104.621 175.459 104.471 175.239C104.001 175.119 103.701 175.169 103.421 175.409C103.181 175.569 102.971 175.779 102.811 176.009C102.661 176.079 102.431 176.289 102.281 176.359M103.321 176.559C103.461 176.619 103.961 176.969 104.191 177.099C104.331 177.549 104.551 177.799 104.621 178.279C104.741 178.749 104.731 179.259 104.731 179.789C104.611 180.339 104.381 180.739 104.191 181.179C103.841 181.419 103.671 181.579 103.211 181.829C102.781 181.889 102.351 181.939 101.801 181.939C101.461 182.049 100.821 182.099 100.491 181.939C100.011 181.869 99.6481 181.679 99.2971 181.509C98.8951 181.279 98.6481 181.069 98.2091 180.859C97.9961 180.549 97.6651 180.269 97.3401 179.889C97.0691 179.529 96.8701 179.329 96.6871 178.929C96.8481 179.389 97.0921 179.789 97.2311 180.219C97.4781 180.669 97.6221 180.839 97.6661 181.399C97.8171 181.849 97.7751 182.389 97.7751 182.899C97.7271 183.249 97.7021 183.909 97.5571 184.189V184.519M87.2431 186.229V186.389C87.2431 185.969 87.2321 186.179 87.4181 187.009C87.7481 187.379 88.5221 187.479 89.1671 187.319C89.7331 186.909 89.7151 186.589 90.7411 186.389C91.7321 186.449 92.1101 186.709 92.6651 187.009C93.3231 187.299 93.6271 187.449 94.0641 188.099C94.2811 188.629 94.4021 188.989 93.7141 189.189C93.1671 189.539 92.5171 189.729 91.7901 189.819C90.9821 189.819 90.4001 189.729 90.0411 190.129C89.4861 190.639 89.5171 190.949 89.5171 191.839C89.3301 192.119 89.2931 192.939 89.1671 193.249C88.6811 193.449 88.3961 193.559 87.5931 193.559C87.4041 193.079 87.1951 192.209 87.0681 191.689C86.9311 191.129 86.8891 190.349 86.5431 189.969C86.2051 189.534 85.7903 189.164 85.3191 188.879C85.1051 188.609 84.6971 188.389 84.2701 188.259C84.9561 188.569 85.0541 188.909 85.1441 189.659C84.5411 189.929 84.3801 190.119 83.3951 190.129C82.4271 190.059 82.1931 189.839 81.8211 189.349C81.7541 190.129 81.4731 190.389 81.2971 191.069C80.9371 191.539 80.7841 192.019 80.4221 192.619C80.5761 193.379 80.9081 193.409 80.9471 194.339C81.1741 194.949 81.1491 195.529 81.6461 195.899C81.8681 196.139 82.0341 196.189 82.5211 196.209C81.5081 196.209 80.9181 196.109 80.2471 195.739C79.7281 195.459 79.3361 195.099 78.8481 194.809C78.2291 194.409 77.4641 194.039 76.7491 193.869C75.9411 193.869 75.3591 193.789 75.0001 194.179C74.5051 194.499 74.1721 195.039 73.9511 195.739C73.7891 196.549 73.7271 197.089 74.1261 197.609C74.4221 198.219 74.4891 198.449 74.1261 199.169C73.7191 199.679 73.1141 199.739 72.2021 199.949C71.6079 199.924 71.0197 199.819 70.4531 199.639" stroke="#DB161B" stroke-width="0.33"/>
        <path fill-rule="evenodd" clip-rule="evenodd" d="M181.411 104.661C202.761 67.8025 216.931 36.4385 213.031 34.6465C209.141 32.8555 188.661 61.3115 167.311 98.1645L181.411 104.661Z" fill="white" stroke="#DB161B" stroke-width="0.447"/>
        <path fill-rule="evenodd" clip-rule="evenodd" d="M180.001 104.009C200.591 68.4524 214.781 38.4354 211.671 37.0024C208.561 35.5694 189.321 63.2604 168.721 98.8124" fill="white"/>
        <path d="M180.001 104.009C200.591 68.4524 214.781 38.4354 211.671 37.0024C208.561 35.5694 189.321 63.2604 168.721 98.8124" stroke="#DB161B" stroke-width="0.393"/>
        <path fill-rule="evenodd" clip-rule="evenodd" d="M176.461 85.4609C173.951 89.6179 171.301 94.3689 168.721 98.8129L180.001 104.01C182.571 99.5619 185.381 94.8799 187.731 90.6539L176.461 85.4609Z" fill="white" stroke="#DB161B" stroke-width="0.446"/>
        <path fill-rule="evenodd" clip-rule="evenodd" d="M177.41 86.8945C174.91 91.0515 173.16 94.2325 170.59 98.6765L179.04 102.57C181.62 98.1275 183.52 95.0155 185.87 90.7895L177.41 86.8945Z" fill="white" stroke="#DB161B" stroke-width="0.446"/>
        <path d="M183.545 91.7109L177.907 89.1147L172.902 97.7548L178.54 100.351L183.545 91.7109Z" fill="white" stroke="#DB161B" stroke-width="0.447"/>
        <path fill-rule="evenodd" clip-rule="evenodd" d="M183.55 91.7109L172.91 97.7539ZM178.54 100.349L177.91 89.1139ZM209.03 47.7259L203.39 45.1289Z" fill="white"/>
        <path d="M183.55 91.7109L172.91 97.7539M178.54 100.349L177.91 89.1139M209.03 47.7259L203.39 45.1289" stroke="#DB161B" stroke-width="0.446"/>
        <path d="M209.037 43.653C208.159 43.8745 207.286 43.4293 207.088 42.6586C206.889 41.8879 207.441 41.0835 208.319 40.862C209.198 40.6405 210.071 41.0857 210.269 41.8564C210.468 42.6271 209.916 43.4315 209.037 43.653Z" fill="#DB161B" stroke="#DB161B" stroke-width="0.578469"/>
        <path fill-rule="evenodd" clip-rule="evenodd" d="M173.491 147.12C221.604 194.17 242.129 200.12 232.497 203.91C222.865 207.7 191.881 183.42 159.641 151.16C127.401 118.91 107.66 90.2038 117.29 86.4128C126.92 82.6208 122.321 97.0747 173.491 147.12Z" fill="white" stroke="#DB161B" stroke-width="0.565"/>
        <path fill-rule="evenodd" clip-rule="evenodd" d="M213.992 181.309L197.14 185.729C213.001 200.759 230.848 206.949 235.805 204.299C240.763 201.649 226.882 195.459 213.992 181.309Z" fill="white" stroke="#DB161B" stroke-width="0.33"/>
        <path fill-rule="evenodd" clip-rule="evenodd" d="M213.991 183.082L200.11 186.622C215.563 201.072 230.847 205.182 234.802 203.422C238.779 201.652 226.547 196.682 213.991 183.082Z" fill="white" stroke="#DB161B" stroke-width="0.33"/>
        <path d="M162.209 145.059C162.249 145.289 162.359 146.299 162.459 146.699C162.459 147.259 162.519 147.679 162.579 148.119C162.739 148.499 162.709 148.849 163.199 148.989C163.529 149.449 163.739 149.569 164.179 149.759C164.479 149.989 164.939 150.219 165.419 150.409C165.909 150.599 166.359 150.619 166.889 150.519C167.329 150.249 167.639 149.979 167.999 149.759C168.089 149.409 168.159 148.899 168.249 148.559C168.119 148.909 168.019 149.469 167.999 149.969C168.049 150.519 168.249 150.759 168.489 151.169M166.769 152.369C166.809 152.339 166.849 152.299 166.889 152.259C166.599 152.519 166.719 152.399 167.389 152.049C167.859 151.829 168.369 151.709 168.989 151.609H170.709C171.379 151.609 171.829 151.699 172.309 151.829C172.659 152.139 173.179 152.309 173.539 152.589C173.919 152.819 174.079 153.089 174.279 153.459C174.619 153.759 174.839 154.219 175.149 154.449C175.279 154.949 175.569 154.929 175.759 155.319C175.179 155.359 174.709 155.429 174.409 155.749C173.889 155.989 174.839 155.519 175.019 155.319C175.429 155.209 175.529 155.099 176.129 155.099C176.689 154.939 177.029 155.229 177.609 155.319C177.939 155.489 178.039 155.539 178.469 155.539M173.419 157.829C173.669 157.839 174.819 158.029 175.269 157.829C175.769 157.709 176.069 157.469 176.379 157.059C176.529 156.769 176.379 157.589 176.379 157.939C176.429 158.579 176.649 158.589 176.989 159.029C177.349 159.229 177.729 159.519 178.099 159.679C178.409 159.919 178.789 160.079 179.209 160.229C179.579 160.379 180.019 160.539 180.319 160.769C180.729 161.029 180.689 161.349 180.929 161.749C180.889 162.289 180.789 162.589 180.439 162.849C180.299 163.209 179.969 163.579 179.699 163.829C179.399 164.329 179.059 164.559 179.829 164.699C180.249 164.859 180.479 164.729 180.929 164.699M181.179 165.459C181.479 165.399 182.559 165.079 183.029 164.919H184.749C185.419 164.959 185.549 165.139 186.109 165.349C186.469 165.679 186.719 165.909 187.219 166.119C187.479 166.419 187.999 166.929 188.199 167.319C188.349 167.689 188.449 168.189 188.449 168.739C188.439 169.369 188.249 169.479 188.199 170.049C188.059 170.509 187.839 170.939 187.459 171.349C187.409 171.489 187.369 171.529 187.219 171.569M187.049 172.999C187.099 172.999 187.219 173.279 187.399 173.519C187.789 173.919 187.839 173.949 188.449 173.949C188.989 173.929 188.939 173.739 189.319 173.599C189.499 173.329 189.729 173.109 189.929 172.739C190.069 172.519 190.199 172.169 190.369 171.969C190.529 171.709 190.729 171.519 190.899 171.279C191.059 171.209 191.119 171.139 191.329 171.109C190.829 171.189 190.789 171.359 190.459 171.619C190.309 171.869 190.149 172.119 190.019 172.399C189.969 172.769 189.849 173.059 189.849 173.519C189.849 173.989 189.849 174.329 190.019 174.719C190.229 174.939 190.379 175.159 190.629 175.329C190.839 175.519 191.089 175.779 191.249 176.009C191.519 176.179 191.719 176.319 192.029 176.529C192.299 176.679 192.579 176.839 192.989 176.879C193.509 176.839 193.659 176.699 194.039 176.529C194.369 176.289 194.629 176.139 194.919 175.929C195.149 175.769 195.379 175.459 195.529 175.239C195.999 175.119 196.299 175.169 196.579 175.409C196.819 175.569 197.029 175.779 197.189 176.009C197.339 176.079 197.569 176.289 197.719 176.359M196.679 176.559C196.539 176.619 196.039 176.969 195.809 177.099C195.669 177.549 195.449 177.799 195.379 178.279C195.259 178.749 195.269 179.259 195.269 179.789C195.389 180.339 195.619 180.739 195.809 181.179C196.159 181.419 196.329 181.579 196.789 181.829C197.219 181.889 197.649 181.939 198.199 181.939C198.539 182.049 199.179 182.099 199.509 181.939C199.989 181.869 200.352 181.679 200.703 181.509C201.105 181.279 201.352 181.069 201.791 180.859C202.004 180.549 202.335 180.269 202.66 179.889C202.931 179.529 203.13 179.329 203.313 178.929C203.152 179.389 202.908 179.789 202.769 180.219C202.522 180.669 202.378 180.839 202.334 181.399C202.183 181.849 202.225 182.389 202.225 182.899C202.273 183.249 202.298 183.909 202.443 184.189V184.519M212.757 186.229V186.389C212.757 185.969 212.768 186.179 212.582 187.009C212.252 187.379 211.478 187.479 210.833 187.319C210.267 186.909 210.285 186.589 209.259 186.389C208.268 186.449 207.89 186.709 207.335 187.009C206.677 187.299 206.373 187.449 205.936 188.099C205.719 188.629 205.598 188.989 206.286 189.189C206.833 189.539 207.483 189.729 208.21 189.819C209.018 189.819 209.6 189.729 209.959 190.129C210.514 190.639 210.483 190.949 210.483 191.839C210.67 192.119 210.707 192.939 210.833 193.249C211.319 193.449 211.604 193.559 212.407 193.559C212.596 193.079 212.805 192.209 212.932 191.689C213.069 191.129 213.111 190.349 213.457 189.969C213.795 189.534 214.21 189.164 214.681 188.879C214.895 188.609 215.303 188.389 215.73 188.259C215.044 188.569 214.946 188.909 214.856 189.659C215.459 189.929 215.62 190.119 216.605 190.129C217.573 190.059 217.807 189.839 218.179 189.349C218.246 190.129 218.527 190.389 218.703 191.069C219.063 191.539 219.216 192.019 219.578 192.619C219.424 193.379 219.092 193.409 219.053 194.339C218.826 194.949 218.851 195.529 218.354 195.899C218.132 196.139 217.966 196.189 217.479 196.209C218.492 196.209 219.082 196.109 219.753 195.739C220.272 195.459 220.664 195.099 221.152 194.809C221.771 194.409 222.536 194.039 223.251 193.869C224.059 193.869 224.641 193.789 225 194.179C225.495 194.499 225.828 195.039 226.049 195.739C226.211 196.549 226.273 197.089 225.874 197.609C225.578 198.219 225.511 198.449 225.874 199.169C226.281 199.679 226.886 199.739 227.798 199.949C228.392 199.924 228.98 199.819 229.547 199.639" stroke="#DB161B" stroke-width="0.33"/>
        <path fill-rule="evenodd" clip-rule="evenodd" d="M118.589 104.661C97.2394 67.8025 83.0695 36.4385 86.9695 34.6465C90.8595 32.8555 111.339 61.3115 132.689 98.1645L118.589 104.661Z" fill="white" stroke="#DB161B" stroke-width="0.447"/>
        <path fill-rule="evenodd" clip-rule="evenodd" d="M119.999 104.009C99.4093 68.4524 85.2193 38.4354 88.3293 37.0024C91.4393 35.5694 110.679 63.2604 131.279 98.8124" fill="white"/>
        <path d="M119.999 104.009C99.4093 68.4524 85.2193 38.4354 88.3293 37.0024C91.4393 35.5694 110.679 63.2604 131.279 98.8124" stroke="#DB161B" stroke-width="0.393"/>
        <path fill-rule="evenodd" clip-rule="evenodd" d="M123.539 85.4609C126.049 89.6179 128.699 94.3689 131.279 98.8129L119.999 104.01C117.429 99.5619 114.619 94.8799 112.269 90.6539L123.539 85.4609Z" fill="white" stroke="#DB161B" stroke-width="0.446"/>
        <path fill-rule="evenodd" clip-rule="evenodd" d="M122.59 86.8945C125.09 91.0515 126.84 94.2325 129.41 98.6765L120.96 102.57C118.38 98.1275 116.48 95.0155 114.13 90.7895L122.59 86.8945Z" fill="white" stroke="#DB161B" stroke-width="0.446"/>
        <path d="M116.455 91.7109L122.093 89.1147L127.098 97.7548L121.46 100.351L116.455 91.7109Z" fill="white" stroke="#DB161B" stroke-width="0.447"/>
        <path fill-rule="evenodd" clip-rule="evenodd" d="M116.45 91.7109L127.09 97.7539ZM121.46 100.349L122.09 89.1139ZM90.9698 47.7259L96.6098 45.1289Z" fill="white"/>
        <path d="M116.45 91.7109L127.09 97.7539M121.46 100.349L122.09 89.1139M90.9698 47.7259L96.6098 45.1289" stroke="#DB161B" stroke-width="0.446"/>
        <path d="M90.9625 43.653C91.8411 43.8745 92.7141 43.4293 92.9124 42.6586C93.1107 41.8879 92.5592 41.0835 91.6806 40.862C90.8021 40.6405 89.9291 41.0857 89.7308 41.8564C89.5325 42.6271 90.084 43.4315 90.9625 43.653Z" fill="#DB161B" stroke="#DB161B" stroke-width="0.578469"/>
        <path fill-rule="evenodd" clip-rule="evenodd" d="M135.26 84.957C135.26 115.899 135.441 127.559 133.161 129.159C131.001 130.869 70.8125 129.159 70.8125 137.999C70.8125 146.839 120.39 155.679 135.26 155.679C155.09 155.679 165.01 146.839 165.01 129.159V84.957H135.26Z" fill="white" stroke="#DB161B" stroke-width="0.407"/>
        <path fill-rule="evenodd" clip-rule="evenodd" d="M135.26 93.797V98.217C145.122 99.691 155.148 99.691 165.01 98.217V93.797C155.148 95.271 145.122 95.271 135.26 93.797ZM135.26 84.957V89.377C145.122 90.85 155.148 90.85 165.01 89.377V84.957C155.148 86.43 145.122 86.43 135.26 84.957Z" fill="white" stroke="#DB161B" stroke-width="0.352"/>
        <path fill-rule="evenodd" clip-rule="evenodd" d="M135.26 89.3789V93.7989C145.122 95.2729 155.148 95.2729 165.01 93.7989V89.3789C155.148 90.8519 145.122 90.8519 135.26 89.3789ZM135.26 98.2189V102.641C145.18 104.111 155.09 104.111 165.01 102.641V98.2189C155.148 99.6929 145.122 99.6929 135.26 98.2189Z" fill="white" stroke="#DB161B" stroke-width="0.352"/>
        <path d="M136.612 92.8445C137.358 92.8445 137.964 92.4176 137.964 91.891C137.964 91.3644 137.358 90.9375 136.612 90.9375C135.865 90.9375 135.26 91.3644 135.26 91.891C135.26 92.4176 135.865 92.8445 136.612 92.8445Z" fill="white" stroke="#DB161B" stroke-width="0.330273"/>
        <path d="M142.02 93.3211C142.767 93.3211 143.372 92.8942 143.372 92.3676C143.372 91.841 142.767 91.4141 142.02 91.4141C141.273 91.4141 140.668 91.841 140.668 92.3676C140.668 92.8942 141.273 93.3211 142.02 93.3211Z" fill="white" stroke="#DB161B" stroke-width="0.330273"/>
        <path d="M147.428 93.7976C148.175 93.7976 148.78 93.3707 148.78 92.8441C148.78 92.3175 148.175 91.8906 147.428 91.8906C146.681 91.8906 146.076 92.3175 146.076 92.8441C146.076 93.3707 146.681 93.7976 147.428 93.7976Z" fill="white" stroke="#DB161B" stroke-width="0.330273"/>
        <path d="M152.836 93.7976C153.583 93.7976 154.188 93.3707 154.188 92.8441C154.188 92.3175 153.583 91.8906 152.836 91.8906C152.09 91.8906 151.484 92.3175 151.484 92.8441C151.484 93.3707 152.09 93.7976 152.836 93.7976Z" fill="white" stroke="#DB161B" stroke-width="0.330273"/>
        <path d="M158.245 93.3211C158.991 93.3211 159.597 92.8942 159.597 92.3676C159.597 91.841 158.991 91.4141 158.245 91.4141C157.498 91.4141 156.893 91.841 156.893 92.3676C156.893 92.8942 157.498 93.3211 158.245 93.3211Z" fill="white" stroke="#DB161B" stroke-width="0.330273"/>
        <path d="M163.653 92.8445C164.399 92.8445 165.005 92.4176 165.005 91.891C165.005 91.3644 164.399 90.9375 163.653 90.9375C162.906 90.9375 162.301 91.3644 162.301 91.891C162.301 92.4176 162.906 92.8445 163.653 92.8445Z" fill="white" stroke="#DB161B" stroke-width="0.330273"/>
        <path fill-rule="evenodd" clip-rule="evenodd" d="M135.259 107.061L165.009 130.931ZM138.229 107.061L165.009 128.271ZM142.199 107.941L165.009 125.621ZM145.179 107.941L165.009 122.971ZM148.149 107.941L165.009 120.321ZM151.119 107.941L165.009 117.671ZM154.099 107.941L165.009 115.011ZM157.069 107.941L165.009 113.251ZM160.049 107.941L165.009 111.481ZM163.019 107.941L165.009 109.711ZM135.259 109.711L165.009 133.581ZM165.009 107.061L132.289 133.581ZM162.029 107.061L133.279 130.041ZM158.069 107.941L135.259 125.621ZM155.089 107.941L135.259 122.971ZM152.119 107.941L135.259 120.321ZM149.139 107.941L135.259 117.671ZM146.169 107.941L135.259 115.011ZM143.189 107.941L135.259 113.251ZM140.219 107.941L135.259 111.481ZM137.239 107.941L135.259 109.711ZM165.009 109.711L132.289 136.231ZM165.009 112.361L132.289 138.881ZM165.009 115.011L132.289 141.541ZM165.009 117.671L132.289 144.191ZM165.009 120.321L132.289 146.841ZM165.009 122.971L132.289 149.491ZM165.009 125.621L132.289 152.141ZM165.009 128.281L132.289 154.801ZM165.009 130.931L134.269 155.681ZM165.009 133.581L137.239 155.681ZM164.009 137.121L142.199 154.801ZM163.019 140.651L145.179 154.801ZM161.039 145.071L152.119 152.141ZM135.259 112.361L164.009 135.351ZM135.259 115.011L164.009 138.001ZM135.259 117.671L163.019 139.771ZM135.259 120.321L163.019 142.421ZM135.259 122.971L162.029 144.191ZM134.269 124.741L161.039 145.961ZM134.269 127.391L159.059 146.841ZM133.279 129.161L158.069 148.611ZM132.289 130.931L156.079 149.491ZM132.289 133.581L155.089 151.261ZM132.289 136.231L152.119 152.141ZM135.259 102.641V107.061C145.179 108.531 155.089 108.531 165.009 107.061V102.641C155.089 104.111 145.179 104.111 135.259 102.641ZM132.289 138.881L150.129 153.031ZM132.289 141.541L148.149 153.911ZM132.289 144.191L146.169 154.801ZM132.289 146.841L142.199 154.801ZM132.289 149.491L140.219 155.681ZM132.289 152.141L137.239 155.681Z" fill="white"/>
        <path d="M135.259 107.061L165.009 130.931L134.269 155.681M135.259 107.061V102.641C145.179 104.111 155.089 104.111 165.009 102.641V107.061M135.259 107.061C145.179 108.531 155.089 108.531 165.009 107.061M138.229 107.061L165.009 128.271M142.199 107.941L165.009 125.621L132.289 152.141L137.239 155.681L165.009 133.581L135.259 109.711L137.239 107.941M145.179 107.941L165.009 122.971L132.289 149.491L140.219 155.681M148.149 107.941L165.009 120.321L132.289 146.841L142.199 154.801L164.009 137.121M151.119 107.941L165.009 117.671L132.289 144.191L146.169 154.801M154.099 107.941L165.009 115.011L132.289 141.541L148.149 153.911M157.069 107.941L165.009 113.251M160.049 107.941L165.009 111.481M163.019 107.941L165.009 109.711L132.289 136.231L152.119 152.141L161.039 145.071M165.009 107.061L132.289 133.581L155.089 151.261M162.029 107.061L133.279 130.041M158.069 107.941L135.259 125.621M155.089 107.941L135.259 122.971L162.029 144.191M152.119 107.941L135.259 120.321L163.019 142.421M149.139 107.941L135.259 117.671L163.019 139.771M146.169 107.941L135.259 115.011L164.009 138.001M143.189 107.941L135.259 113.251M140.219 107.941L135.259 111.481M165.009 112.361L132.289 138.881L150.129 153.031M165.009 128.281L132.289 154.801M163.019 140.651L145.179 154.801M135.259 112.361L164.009 135.351M134.269 124.741L161.039 145.961M134.269 127.391L159.059 146.841M133.279 129.161L158.069 148.611M132.289 130.931L156.079 149.491" stroke="#DB161B" stroke-width="0.352"/>
        <path d="M136.612 106.102C137.358 106.102 137.964 105.675 137.964 105.149C137.964 104.622 137.358 104.195 136.612 104.195C135.865 104.195 135.26 104.622 135.26 105.149C135.26 105.675 135.865 106.102 136.612 106.102Z" fill="white" stroke="#DB161B" stroke-width="0.330273"/>
        <path d="M142.02 106.579C142.767 106.579 143.372 106.152 143.372 105.625C143.372 105.099 142.767 104.672 142.02 104.672C141.273 104.672 140.668 105.099 140.668 105.625C140.668 106.152 141.273 106.579 142.02 106.579Z" fill="white" stroke="#DB161B" stroke-width="0.330273"/>
        <path d="M147.428 107.055C148.175 107.055 148.78 106.629 148.78 106.102C148.78 105.575 148.175 105.148 147.428 105.148C146.681 105.148 146.076 105.575 146.076 106.102C146.076 106.629 146.681 107.055 147.428 107.055Z" fill="white" stroke="#DB161B" stroke-width="0.330273"/>
        <path d="M152.836 107.055C153.583 107.055 154.188 106.629 154.188 106.102C154.188 105.575 153.583 105.148 152.836 105.148C152.09 105.148 151.484 105.575 151.484 106.102C151.484 106.629 152.09 107.055 152.836 107.055Z" fill="white" stroke="#DB161B" stroke-width="0.330273"/>
        <path d="M158.245 106.579C158.991 106.579 159.597 106.152 159.597 105.625C159.597 105.099 158.991 104.672 158.245 104.672C157.498 104.672 156.893 105.099 156.893 105.625C156.893 106.152 157.498 106.579 158.245 106.579Z" fill="white" stroke="#DB161B" stroke-width="0.330273"/>
        <path d="M163.653 106.102C164.399 106.102 165.005 105.675 165.005 105.149C165.005 104.622 164.399 104.195 163.653 104.195C162.906 104.195 162.301 104.622 162.301 105.149C162.301 105.675 162.906 106.102 163.653 106.102Z" fill="white" stroke="#DB161B" stroke-width="0.330273"/>
        <path fill-rule="evenodd" clip-rule="evenodd" d="M92.6243 148.61L128.319 130.04ZM90.6413 147.72L124.349 130.04ZM89.6503 145.96L120.389 130.04ZM88.6583 144.19L115.429 130.04ZM86.6753 142.42L111.459 130.04ZM87.6673 139.77L104.519 130.93ZM86.6753 138L99.5653 130.93ZM86.6753 135.35L95.5993 130.93ZM95.5993 149.49L129.309 131.81ZM98.5733 150.38L130.299 133.58ZM101.549 151.26L131.289 135.35ZM104.519 152.14L129.309 138.88ZM108.489 152.14L130.299 140.65ZM111.459 153.03L130.299 143.3ZM114.439 153.91L129.309 145.96ZM118.399 153.91L130.299 147.72ZM122.369 154.8L130.299 150.38ZM126.339 154.8L131.289 152.14ZM133.279 129.16H128.319C126.669 137.923 126.669 146.917 128.319 155.68H133.279C131.619 146.918 131.619 137.922 133.279 129.16ZM74.7773 141.54L86.6753 132.7ZM74.7773 135.35L86.6753 145.96Z" fill="white"/>
        <path d="M92.6243 148.61L128.319 130.04M90.6413 147.72L124.349 130.04M89.6503 145.96L120.389 130.04M88.6583 144.19L115.429 130.04M86.6753 142.42L111.459 130.04M87.6673 139.77L104.519 130.93M86.6753 138L99.5653 130.93M86.6753 135.35L95.5993 130.93M95.5993 149.49L129.309 131.81M98.5733 150.38L130.299 133.58M101.549 151.26L131.289 135.35M104.519 152.14L129.309 138.88M108.489 152.14L130.299 140.65M111.459 153.03L130.299 143.3M114.439 153.91L129.309 145.96M118.399 153.91L130.299 147.72M122.369 154.8L130.299 150.38M126.339 154.8L131.289 152.14M74.7773 141.54L86.6753 132.7M74.7773 135.35L86.6753 145.96M133.279 129.16H128.319C126.669 137.923 126.669 146.917 128.319 155.68H133.279C131.619 146.918 131.619 137.922 133.279 129.16Z" stroke="#DB161B" stroke-width="0.352"/>
        <path fill-rule="evenodd" clip-rule="evenodd" d="M92.6241 130.93L86.6751 131.81C85.3531 137.41 85.3531 142.12 86.6751 147.72L92.6241 149.49C91.3021 143.89 91.3021 136.53 92.6241 130.93Z" fill="white" stroke="#DB161B" stroke-width="0.251"/>
        <path fill-rule="evenodd" clip-rule="evenodd" d="M164.97 86.7268V82.2698C160.52 82.3068 157.54 79.6548 157.54 76.9648L142.69 77.0018C142.69 79.6548 139.72 82.3068 135.26 82.3068V86.7268H164.97Z" fill="white" stroke="#DB161B" stroke-width="0.431"/>
        <path d="M143.75 71.6978H156.484V77.0018H143.75V71.6978ZM144.81 66.3938H155.422V71.6978H144.81V66.3938ZM144.81 61.0898H155.422V66.3938H144.81V61.0898Z" fill="white"/>
        <path d="M144.81 66.3938H155.422M144.81 66.3938V71.6978H155.422V66.3938M144.81 66.3938V61.0898H155.422V66.3938M143.75 71.6978H156.484V77.0018H143.75V71.6978Z" stroke="#DB161B" stroke-width="0.364"/>
        <path d="M145.869 54.0156H154.358V61.0876H145.869V54.0156Z" fill="white" stroke="#DB161B" stroke-width="0.364"/>
        <path d="M145.51 47.8281H154.731V54.0161H145.51V47.8281Z" fill="white" stroke="#DB161B" stroke-width="0.38"/>
        <path d="M150.629 50.4843C157.419 50.4843 162.924 46.7242 162.924 42.0859C162.924 37.4476 157.419 33.6875 150.629 33.6875C143.839 33.6875 138.334 37.4476 138.334 42.0859C138.334 46.7242 143.839 50.4843 150.629 50.4843Z" fill="white" stroke="#DB161B" stroke-width="0.358042"/>
        <path fill-rule="evenodd" clip-rule="evenodd" d="M156.78 41.6396C156.78 43.9586 159.85 47.8286 159.85 47.8286C157.62 49.3486 154.02 50.4806 150.63 50.4806C147.24 50.4806 143.01 49.8496 141.41 47.8286C141.41 47.8286 144.48 43.9586 144.48 41.6396C144.48 39.3216 141.41 36.3356 141.41 36.3356C143.63 34.8156 147.24 33.6836 150.63 33.6836C154.02 33.6836 157.62 34.8156 159.85 36.3356C159.85 36.3356 156.78 39.3216 156.78 41.6396Z" fill="white" stroke="#DB161B" stroke-width="0.358"/>
        <path fill-rule="evenodd" clip-rule="evenodd" d="M154.731 41.6396C154.731 43.9586 157.801 48.7126 157.801 48.7126C155.581 50.2326 154.021 50.4806 150.631 50.4806C147.241 50.4806 145.061 50.7336 143.461 48.7126C143.461 48.7126 146.531 43.9586 146.531 41.6396C146.531 39.3216 143.461 35.4516 143.461 35.4516C145.681 33.9316 147.241 33.6836 150.631 33.6836C154.021 33.6836 155.581 33.9316 157.801 35.4516C157.801 35.4516 154.731 39.3216 154.731 41.6396Z" fill="white" stroke="#DB161B" stroke-width="0.358"/>
        <path d="M138.334 45.1794C140.031 45.1794 141.407 43.9919 141.407 42.5272C141.407 41.0624 140.031 39.875 138.334 39.875C136.636 39.875 135.26 41.0624 135.26 42.5272C135.26 43.9919 136.636 45.1794 138.334 45.1794Z" fill="white" stroke="#DB161B" stroke-width="0.358042"/>
        <path d="M162.923 45.1794C164.621 45.1794 165.997 43.9919 165.997 42.5272C165.997 41.0624 164.621 39.875 162.923 39.875C161.226 39.875 159.85 41.0624 159.85 42.5272C159.85 43.9919 161.226 45.1794 162.923 45.1794Z" fill="white" stroke="#DB161B" stroke-width="0.358042"/>
        <path d="M150.63 45.1794C152.328 45.1794 153.704 43.9919 153.704 42.5272C153.704 41.0624 152.328 39.875 150.63 39.875C148.933 39.875 147.557 41.0624 147.557 42.5272C147.557 43.9919 148.933 45.1794 150.63 45.1794Z" fill="white" stroke="#DB161B" stroke-width="0.358042"/>
        <path d="M150.63 36.3395C152.328 36.3395 153.704 35.1521 153.704 33.6873C153.704 32.2226 152.328 31.0352 150.63 31.0352C148.933 31.0352 147.557 32.2226 147.557 33.6873C147.557 35.1521 148.933 36.3395 150.63 36.3395Z" fill="white" stroke="#DB161B" stroke-width="0.358042"/>
        <path d="M141.627 86.7262C143.385 86.7262 144.81 85.5388 144.81 84.0741C144.81 82.6093 143.385 81.4219 141.627 81.4219C139.869 81.4219 138.443 82.6093 138.443 84.0741C138.443 85.5388 139.869 86.7262 141.627 86.7262Z" fill="white" stroke="#DB161B" stroke-width="0.364376"/>
        <path d="M158.605 86.7262C160.364 86.7262 161.789 85.5388 161.789 84.0741C161.789 82.6093 160.364 81.4219 158.605 81.4219C156.847 81.4219 155.422 82.6093 155.422 84.0741C155.422 85.5388 156.847 86.7262 158.605 86.7262Z" fill="white" stroke="#DB161B" stroke-width="0.364376"/>
        <path fill-rule="evenodd" clip-rule="evenodd" d="M142.689 77H157.539L150.119 84.957L142.689 77Z" fill="white" stroke="#DB161B" stroke-width="0.364"/>
        <path d="M150.116 86.7286C152.46 86.7286 154.36 85.1454 154.36 83.1924C154.36 81.2394 152.46 79.6562 150.116 79.6562C147.771 79.6562 145.871 81.2394 145.871 83.1924C145.871 85.1454 147.771 86.7286 150.116 86.7286Z" fill="white" stroke="#DB161B" stroke-width="0.485831"/>
        <path d="M155.337 109.719H135.008C134.324 109.719 133.77 110.139 133.77 110.657V114.085C133.77 114.603 134.324 115.023 135.008 115.023H155.337C156.02 115.023 156.575 114.603 156.575 114.085V110.657C156.575 110.139 156.02 109.719 155.337 109.719Z" fill="white" stroke="#DB161B" stroke-width="0.33"/>
        <path fill-rule="evenodd" clip-rule="evenodd" d="M163.519 105.302C160.769 105.302 158.559 107.362 158.559 109.922V113.942C158.559 116.502 160.769 118.562 163.519 118.562C166.269 118.562 168.479 116.502 168.479 113.942V109.922C168.479 107.362 166.269 105.302 163.519 105.302ZM163.519 107.072C161.869 107.072 160.539 108.722 160.539 110.772V113.102C160.539 115.152 161.869 116.792 163.519 116.792C165.169 116.792 166.489 115.152 166.489 113.102V110.772C166.489 108.722 165.169 107.072 163.519 107.072ZM137.739 106.192C136.089 106.192 134.769 107.832 134.769 109.882V113.982C134.769 116.032 136.089 117.682 137.739 117.682C139.389 117.682 140.709 116.032 140.709 113.982V109.882C140.709 107.832 139.389 106.192 137.739 106.192ZM137.739 104.422C134.989 104.422 132.779 106.482 132.779 109.042V114.832C132.779 117.392 134.989 119.452 137.739 119.452C140.489 119.452 142.699 117.392 142.699 114.832V109.042C142.699 106.482 140.489 104.422 137.739 104.422Z" fill="white" stroke="#DB161B" stroke-width="0.33"/>
        <path fill-rule="evenodd" clip-rule="evenodd" d="M129.81 107.951C128.16 107.951 126.83 109.601 126.83 111.651V112.611C126.83 114.661 128.16 116.311 129.81 116.311C131.46 116.311 132.78 114.661 132.78 112.611V111.651C132.78 109.601 131.46 107.951 129.81 107.951ZM129.81 106.191C127.06 106.191 124.85 108.251 124.85 110.811V113.461C124.85 116.021 127.06 118.081 129.81 118.081C132.55 118.081 134.77 116.021 134.77 113.461V110.811C134.77 108.251 132.55 106.191 129.81 106.191Z" fill="white" stroke="#DB161B" stroke-width="0.33"/>
        <path fill-rule="evenodd" clip-rule="evenodd" d="M117.91 105.511C114.94 105.511 112.56 107.351 112.56 109.641V114.221C112.56 116.511 114.94 118.351 117.91 118.351C120.88 118.351 123.26 116.511 123.26 114.221V109.641C123.26 107.351 120.88 105.511 117.91 105.511ZM117.91 103.531C112.97 103.531 108.99 105.841 108.99 108.701V115.171C108.99 118.031 112.97 120.331 117.91 120.331C122.85 120.331 126.83 118.031 126.83 115.171V108.701C126.83 105.841 122.85 103.531 117.91 103.531ZM182.36 106.391C179.39 106.391 177 108.241 177 110.531V115.111C177 117.401 179.39 119.241 182.36 119.241C185.32 119.241 187.71 117.401 187.71 115.111V110.531C187.71 108.241 185.32 106.391 182.36 106.391ZM182.36 104.421C177.41 104.421 173.43 106.721 173.43 109.581V116.051C173.43 118.911 177.41 121.211 182.36 121.211C187.3 121.211 191.28 118.911 191.28 116.051V109.581C191.28 106.721 187.3 104.421 182.36 104.421Z" fill="white" stroke="#DB161B" stroke-width="0.33"/>
        <path d="M176.752 109.719H166.146C165.789 109.719 165.5 110.139 165.5 110.657V114.085C165.5 114.603 165.789 115.023 166.146 115.023H176.752C177.109 115.023 177.398 114.603 177.398 114.085V110.657C177.398 110.139 177.109 109.719 176.752 109.719Z" fill="white" stroke="#DB161B" stroke-width="0.33"/>
        <path d="M161.164 108.84H154.977C154.768 108.84 154.6 109.4 154.6 110.091V114.661C154.6 115.352 154.768 115.912 154.977 115.912H161.164C161.372 115.912 161.541 115.352 161.541 114.661V110.091C161.541 109.4 161.372 108.84 161.164 108.84Z" fill="white" stroke="#DB161B" stroke-width="0.33"/>
        <path d="M128.445 108.84H122.258C122.05 108.84 121.881 109.4 121.881 110.091V114.661C121.881 115.352 122.05 115.912 122.258 115.912H128.445C128.653 115.912 128.822 115.352 128.822 114.661V110.091C128.822 109.4 128.653 108.84 128.445 108.84Z" fill="white" stroke="#DB161B" stroke-width="0.33"/>
        <path d="M113.189 107.949H100.814C100.398 107.949 100.061 108.649 100.061 109.512V115.226C100.061 116.089 100.398 116.789 100.814 116.789H113.189C113.604 116.789 113.942 116.089 113.942 115.226V109.512C113.942 108.649 113.604 107.949 113.189 107.949Z" fill="white" stroke="#DB161B" stroke-width="0.33"/>
        <path d="M198.51 108.84H187.02C186.634 108.84 186.32 109.54 186.32 110.403V116.117C186.32 116.98 186.634 117.68 187.02 117.68H198.51C198.897 117.68 199.21 116.98 199.21 116.117V110.403C199.21 109.54 198.897 108.84 198.51 108.84Z" fill="white" stroke="#DB161B" stroke-width="0.33"/>
    </g>
    <defs>
        <clipPath id="clip0_1938_179">
            <rect width="1200" height="600" fill="white"/>
        </clipPath>
    </defs>
</svg>
