<svg width="600" height="450" viewBox="0 0 600 450" fill="none"
    xmlns="http://www.w3.org/2000/svg">
    <g clip-path="url(#clip0_2052_196)">
        <path id="1" d="M0 0H600V450H0V0Z" fill="#EDEDF0"/>
        <path id="2" d="M0 0H600V450L0 0Z" fill="#DDDDDD"/>
        <path id="4" d="M371.473 130.745C367.041 136.468 356.555 124.987 343.993 124.724C331.43 124.463 322.531 136.763 318.868 140.951C315.204 145.139 303.426 167.123 303.688 169.478C303.95 171.834 311.016 162.936 313.633 161.366C313.895 164.506 310.754 168.17 311.539 169.217C312.325 170.264 320.699 162.936 323.579 162.674C324.364 164.768 322.008 166.862 322.793 170.002C323.84 171.049 328.551 164.768 331.692 163.46C332.215 165.815 328.813 170.264 330.645 173.143C331.954 173.404 339.804 164.245 342.422 163.198C345.039 162.15 341.113 171.834 342.422 172.62C344.778 171.049 352.106 162.674 354.461 161.627C356.817 160.581 354.2 172.358 355.246 172.358C358.125 170.264 365.454 160.319 366.239 158.749C367.024 157.178 365.454 173.928 373.567 182.827C381.68 191.725 393.982 201.932 395.289 201.932C396.86 199.053 394.767 193.034 396.075 193.295C399.739 197.221 406.543 202.979 408.114 202.979C409.684 202.979 407.067 196.698 409.161 196.698C413.348 200.624 425.387 216.065 448.942 223.131C447.371 218.682 443.968 214.756 443.707 212.663C445.278 212.924 450.775 215.542 451.821 215.28C452.868 215.017 440.305 199.577 441.09 197.483C443.969 197.221 445.278 199.053 446.325 197.744C445.016 195.65 434.024 183.35 434.024 180.47C434.024 177.592 437.427 180.994 438.473 180.47C439.52 179.947 434.286 168.955 435.332 167.647C436.379 166.338 447.895 174.713 450.774 174.713C453.653 174.713 451.559 164.506 452.868 163.982C454.176 163.459 463.861 169.478 465.953 169.478C468.047 169.478 467.786 165.029 468.571 165.552C469.356 166.076 492.125 188.846 484.274 215.542C476.422 234.647 460.72 244.854 437.688 236.479C438.996 238.573 451.297 248.78 464.645 245.116C477.993 241.452 494.218 230.983 492.387 204.811C490.555 178.639 481.918 174.975 480.61 171.049C479.301 167.124 482.704 172.096 485.582 173.143C488.461 174.191 485.059 167.647 484.274 164.768C483.489 161.888 492.911 170.788 495.266 171.573C497.621 172.358 489.77 150.112 487.414 148.542C485.059 146.971 489.77 149.065 491.34 149.588C492.911 150.112 476.945 125.249 473.543 125.249C470.141 125.249 476.421 123.939 478.254 123.939C480.086 123.939 459.935 107.713 456.532 107.713C453.129 107.713 463.859 103.525 464.907 103.263C466.739 103.524 441.614 89.9158 419.106 103.524C417.797 102.479 429.707 94.2345 430.098 90.7017C430.229 89.7853 426.173 87.822 425.911 86.7759C425.649 85.7291 432.192 82.5884 432.453 80.233C430.883 78.1392 428.004 78.9244 426.434 78.4009C426.042 76.4384 431.931 71.5962 431.407 69.5025C431.014 68.3252 426.696 67.9322 425.649 68.7181C424.602 69.5033 428.397 63.222 427.743 61.39C427.219 60.6048 425.125 61.1283 423.032 61.6517C421.723 61.39 429.836 50.1361 428.266 48.5658C426.696 46.9955 404.711 60.0806 396.598 74.7369C388.485 89.3931 394.767 101.17 393.719 106.143C392.672 111.116 391.363 116.088 387.961 116.088C384.559 116.088 376.708 110.854 374.09 108.237C371.473 105.62 370.95 103.788 367.286 102.741C363.621 101.694 355.246 104.835 352.106 105.096C348.965 105.358 336.664 102.741 335.879 103.526C335.094 104.311 347.918 109.022 350.797 110.592C353.676 112.163 353.939 114.256 356.032 115.565C358.125 116.873 377.754 122.631 371.473 130.745ZM448.157 167.647C454.438 173.928 496.836 202.194 496.836 236.741C496.836 271.288 465.954 270.241 457.055 269.194C467 277.569 504.688 275.999 504.688 236.741C504.688 202.194 456.008 167.647 449.727 164.506C443.446 161.366 441.875 161.366 448.157 167.647Z" fill="#EDEDF0"/>
        <g id="3">
            <path d="M172.073 327.032L181.023 298.242L189.972 327.345L166.406 309.508H195.639L172.073 327.032Z" fill="#DDDDDD"/>
            <path d="M150.327 139.453L132.429 197.033L179.559 161.984H121.094L168.224 197.659L150.327 139.453Z" fill="#DDDDDD"/>
            <path d="M81.5766 227.344L63.6789 284.923L110.809 249.875H52.3438L99.4742 285.55L81.5766 227.344Z" fill="#DDDDDD"/>
            <path d="M218.748 221.094L200.851 278.673L247.981 243.625H189.516L236.646 279.3L218.748 221.094Z" fill="#DDDDDD"/>
            <path d="M150.327 346.094L132.429 403.673L179.559 368.625H121.094L168.224 404.3L150.327 346.094Z" fill="#DDDDDD"/>
        </g>
    </g>
    <defs>
        <clipPath id="clip0_2052_196">
            <rect width="600" height="450" fill="white"/>
        </clipPath>
    </defs>
</svg>
