<svg width="600" height="400" viewBox="0 0 600 400" fill="none"
    xmlns="http://www.w3.org/2000/svg">
    <g clip-path="url(#clip0_1825_1407)">
        <path id="1" d="M0 0H240V400H0V0Z" fill="#EDEDF0"/>
        <path id="2" d="M240 0H600V400H240V0Z" fill="#DDDDDD"/>
        <path fill-rule="evenodd" clip-rule="evenodd" d="M318.241 262.04C288.031 261.13 149.501 174.66 148.551 160.89L156.201 148.133C169.941 168.099 311.561 252.193 325.471 249.213L318.241 262.036" fill="#FFFF00"/>
        <path d="M318.241 262.04C288.031 261.13 149.501 174.66 148.551 160.89L156.201 148.133C169.941 168.099 311.561 252.193 325.471 249.213L318.241 262.036" stroke="black" stroke-width="0.573" stroke-linecap="round" stroke-linejoin="round"/>
        <path fill-rule="evenodd" clip-rule="evenodd" d="M154.591 146.401C151.881 153.695 190.74 177.719 237.494 206.155C284.246 234.589 324.559 252.161 327.547 249.641C327.73 249.316 329.017 247.101 328.899 247.118C328.339 247.962 326.976 248.228 324.849 247.615C312.217 243.972 279.273 228.85 238.474 204.109C197.676 179.366 162.18 156.565 156.664 146.877C156.28 146.206 156.006 144.981 156.062 144.029L155.928 144.027L154.753 146.08L154.592 146.402H154.591V146.401ZM318.951 262.441C318.439 263.371 317.484 263.401 315.669 263.202C304.369 261.952 270.08 245.277 229.507 220.989C182.297 192.729 143.307 166.979 147.537 160.249L148.688 158.215L148.915 158.285C145.111 169.69 225.863 215.863 230.617 218.807C277.341 247.754 316.732 264.658 320.218 260.265L318.95 262.446V262.444L318.951 262.441Z" fill="#FFFF00" stroke="black" stroke-width="0.573" stroke-linecap="round" stroke-linejoin="round"/>
        <path fill-rule="evenodd" clip-rule="evenodd" d="M240.168 169.23C270.405 168.991 307.718 165.098 329.191 156.54L324.564 149.023C311.872 156.048 274.354 160.667 239.912 161.358C199.176 160.983 170.422 157.19 156.015 147.523L151.648 155.528C178.132 166.735 205.271 169.115 240.168 169.231" fill="#FFFF00"/>
        <path d="M240.168 169.23C270.405 168.991 307.718 165.098 329.191 156.54L324.564 149.023C311.872 156.048 274.354 160.667 239.912 161.358C199.176 160.983 170.422 157.19 156.015 147.523L151.648 155.528C178.132 166.735 205.271 169.115 240.168 169.231" stroke="black" stroke-width="0.573" stroke-linecap="round" stroke-linejoin="round"/>
        <path fill-rule="evenodd" clip-rule="evenodd" d="M330.44 156.712C329.701 157.894 315.697 162.723 295.067 166.287C281.079 168.42 262.833 170.243 240.063 170.265C218.43 170.285 200.758 168.745 187.379 166.932C165.723 163.536 154.546 158.812 150.414 157.142C150.809 156.357 151.064 155.805 151.444 155.072C163.339 159.808 174.568 162.663 187.724 164.687C201.014 166.487 218.474 168.049 239.999 168.029C262.663 168.006 280.709 166.045 294.615 163.976C315.77 160.564 327.326 156.172 328.949 154.133L330.443 156.712H330.441H330.44ZM326.38 149.089C324.087 150.931 312.662 154.983 292.56 158.193C279.146 160.115 262.089 161.836 240.296 161.857C219.592 161.877 202.676 160.482 189.811 158.608C169.397 155.942 158.531 151.133 154.615 149.731C155.005 149.057 155.401 148.388 155.809 147.717C158.857 149.252 169.342 153.508 190.035 156.44C202.755 158.243 219.695 159.587 240.297 159.566C261.987 159.544 278.85 157.79 292.18 155.878C312.385 153.098 323.257 147.93 324.908 146.637L326.381 149.087V149.09L326.38 149.089ZM140.88 205.662C159.478 215.665 200.785 220.706 239.874 221.053C275.465 221.109 321.832 215.551 339.171 206.363L338.694 196.351C333.269 204.828 283.581 212.96 239.488 212.627C195.395 212.294 154.45 205.484 140.801 196.668L140.881 205.659" fill="#FFFF00"/>
        <path d="M140.88 205.662C159.478 215.665 200.785 220.706 239.874 221.053C275.465 221.109 321.832 215.551 339.171 206.363L338.694 196.351C333.269 204.828 283.581 212.96 239.488 212.627C195.395 212.294 154.45 205.484 140.801 196.668L140.881 205.659M330.44 156.712C329.701 157.894 315.697 162.723 295.067 166.287C281.079 168.42 262.833 170.243 240.063 170.265C218.43 170.285 200.758 168.745 187.379 166.932C165.723 163.536 154.546 158.812 150.414 157.142C150.809 156.357 151.064 155.805 151.444 155.072C163.339 159.808 174.568 162.663 187.724 164.687C201.014 166.487 218.474 168.049 239.999 168.029C262.663 168.006 280.709 166.045 294.615 163.976C315.77 160.564 327.326 156.172 328.949 154.133L330.443 156.712H330.441H330.44ZM326.38 149.089C324.087 150.931 312.662 154.983 292.56 158.193C279.146 160.115 262.089 161.836 240.296 161.857C219.592 161.877 202.676 160.482 189.811 158.608C169.397 155.942 158.531 151.133 154.615 149.731C155.005 149.057 155.401 148.388 155.809 147.717C158.857 149.252 169.342 153.508 190.035 156.44C202.755 158.243 219.695 159.587 240.297 159.566C261.987 159.544 278.85 157.79 292.18 155.878C312.385 153.098 323.257 147.93 324.908 146.637L326.381 149.087V149.09L326.38 149.089Z" stroke="black" stroke-width="0.573" stroke-linecap="round" stroke-linejoin="round"/>
        <path fill-rule="evenodd" clip-rule="evenodd" d="M340.122 204.222V206.609C337.517 209.725 321.177 214.435 300.686 217.751C285.091 220.142 264.759 221.946 239.424 221.946C215.354 221.946 196.161 220.23 181.276 217.945C157.746 214.518 142.696 208.518 139.676 206.728L139.689 203.942C148.764 209.976 173.35 214.389 181.606 215.74C196.394 218.01 215.474 219.714 239.423 219.714C264.639 219.714 284.857 217.922 300.354 215.547C315.055 213.424 335.998 207.901 340.121 204.223L340.122 204.222ZM340.132 195.73V198.117C337.527 201.231 321.187 205.941 300.696 209.257C285.101 211.648 264.769 213.452 239.434 213.452C215.364 213.452 196.171 211.737 181.286 209.45C157.756 206.026 142.706 200.026 139.686 198.234L139.699 195.449C148.774 201.482 173.36 205.896 181.616 207.245C196.404 209.517 215.484 211.221 239.433 211.221C264.649 211.221 284.867 209.429 300.364 207.051C315.065 204.928 336.008 199.405 340.131 195.728L340.132 195.73ZM239.792 260.322C197.02 260.067 160.371 248.663 152.632 246.778L158.275 255.612C171.945 261.362 207.699 269.932 240.202 268.983C272.706 268.035 301.112 265.517 321.13 255.773L326.917 246.617C313.275 253.042 266.849 260.256 239.792 260.322Z" fill="#FFFF00" stroke="black" stroke-width="0.573" stroke-linecap="round" stroke-linejoin="round"/>
        <path fill-rule="evenodd" clip-rule="evenodd" d="M323.299 253.722C322.456 255.014 321.59 256.291 320.703 257.552C311.261 260.881 296.383 264.376 290.106 265.395C277.282 268.038 257.441 269.989 239.832 269.998C201.942 269.444 170.927 262.026 156.336 255.699L155.158 253.675L155.351 253.371L157.347 254.145C183.295 263.429 212.438 267.132 240.045 267.797C257.583 267.859 275.14 265.787 289.337 263.248C311.108 258.886 319.911 255.598 322.612 254.108L323.299 253.722ZM328.316 245.447L328.382 245.524C327.735 246.617 327.081 247.704 326.419 248.787C321.384 250.587 307.717 254.585 287.76 257.376C274.611 259.167 266.438 260.902 240.281 261.41C191.266 260.163 159.531 250.579 151.992 248.215L150.875 246.072C179.281 253.487 208.297 258.664 240.283 259.192C264.213 258.683 274.395 256.921 287.435 255.142C310.705 251.524 322.431 247.693 325.95 246.587C325.902 246.518 325.85 246.452 325.796 246.387L328.319 245.445L328.317 245.447H328.316Z" fill="#FFFF00" stroke="black" stroke-width="0.55" stroke-linecap="round" stroke-linejoin="round"/>
        <path fill-rule="evenodd" clip-rule="evenodd" d="M328.829 197.76C328.968 225.897 314.569 251.146 302.971 262.285C286.563 278.044 264.808 288.181 239.402 288.648C211.032 289.169 184.282 270.674 177.107 262.549C163.079 246.664 151.658 226.492 151.292 199.306C153.03 168.597 165.085 147.206 182.56 132.537C200.035 117.868 223.303 110.724 242.681 111.235C265.039 111.825 291.156 122.793 309.202 144.567C321.025 158.833 326.145 174.315 328.829 197.76ZM239.643 101.418C294.128 101.418 338.939 145.756 338.939 200.121C338.939 254.485 294.128 298.825 239.643 298.825C185.158 298.825 140.719 254.486 140.719 200.121C140.719 145.756 185.158 101.418 239.643 101.418Z" fill="#FFFF00" stroke="black" stroke-width="0.573" stroke-linecap="round" stroke-linejoin="round"/>
        <path fill-rule="evenodd" clip-rule="evenodd" d="M239.909 101.082C294.443 101.082 338.92 145.565 338.92 200.104C338.92 254.642 294.442 299.124 239.909 299.124C185.375 299.124 140.898 254.643 140.898 200.104C140.898 145.565 185.376 101.082 239.909 101.082ZM143.077 200.104C143.077 253.364 186.813 296.946 239.909 296.946C293.006 296.946 336.742 253.364 336.742 200.104C336.742 146.842 293.005 103.26 239.909 103.26C186.813 103.26 143.077 146.844 143.077 200.104Z" fill="#FFFF00" stroke="black" stroke-width="0.573" stroke-linecap="round" stroke-linejoin="round"/>
        <path fill-rule="evenodd" clip-rule="evenodd" d="M239.99 109.312C289.721 109.312 330.683 150.134 330.683 200.017C330.683 249.901 289.72 290.72 239.99 290.72C190.26 290.72 149.297 249.901 149.297 200.017C149.297 150.134 190.261 109.312 239.99 109.312ZM151.475 200.016C151.475 248.701 191.454 288.539 239.99 288.539C288.526 288.539 328.505 248.701 328.505 200.016C328.505 151.33 288.527 111.491 239.99 111.491C191.454 111.491 151.475 151.331 151.475 200.016Z" fill="#FFFF00" stroke="black" stroke-width="0.573" stroke-linecap="round" stroke-linejoin="round"/>
        <path fill-rule="evenodd" clip-rule="evenodd" d="M243.981 100.68H235.496L235.506 299.64H244.02L243.981 100.68Z" fill="#FFFF00" stroke="black" stroke-width="0.573" stroke-linecap="round" stroke-linejoin="round"/>
        <path fill-rule="evenodd" clip-rule="evenodd" d="M243.132 99.5469H245.292L245.31 300.797H243.149L243.132 99.5469ZM234.711 99.5489H236.887L236.89 300.799H234.712V99.5489H234.711Z" fill="#FFFF00" stroke="black" stroke-width="0.573" stroke-linecap="round" stroke-linejoin="round"/>
        <path fill-rule="evenodd" clip-rule="evenodd" d="M338.99 203.935V196.58L333 191L299 182L250 177L191 180L149 190L140.52 196.28V203.637L162 194L213 186H262L298 190L323 196L338.99 203.935Z" fill="#FFFF00" stroke="black" stroke-width="0.573" stroke-linecap="round" stroke-linejoin="round"/>
        <path fill-rule="evenodd" clip-rule="evenodd" d="M239.95 184.772C263.333 184.729 286.02 186.987 304.015 190.492C322.584 194.204 335.652 198.847 340.12 204.062L340.115 206.645C334.727 200.155 317.142 195.397 303.597 192.677C285.739 189.203 263.204 186.96 239.95 187.003C215.412 187.049 192.563 189.373 174.966 192.806C160.846 195.608 142.015 201.174 139.664 206.664V203.975C140.955 200.175 154.977 194.496 174.648 190.558C192.377 187.101 215.268 184.817 239.95 184.772ZM239.96 176.28C263.343 176.238 286.03 178.497 304.025 182C322.594 185.713 335.662 190.355 340.13 195.57L340.125 198.153C334.737 191.664 317.152 186.906 303.607 184.187C285.749 180.711 263.214 178.468 239.96 178.513C215.422 178.557 192.684 180.883 175.085 184.314C161.459 186.898 141.859 192.684 139.673 198.174V195.484C140.964 191.724 155.27 185.842 174.658 182.067C192.387 178.609 215.278 176.327 239.96 176.28ZM239.48 132.962C276.329 132.778 308.47 138.114 323.175 145.647L328.539 154.926C315.758 148.038 281.083 140.876 239.534 141.947C205.68 142.155 169.507 145.674 151.358 155.357L157.761 144.648C172.656 136.924 207.783 133.005 239.481 132.964" fill="#FFFF00"/>
        <path d="M239.48 132.962C276.329 132.778 308.47 138.114 323.175 145.647L328.539 154.926C315.758 148.038 281.083 140.876 239.534 141.947C205.68 142.155 169.507 145.674 151.358 155.357L157.761 144.648C172.656 136.924 207.783 133.005 239.481 132.964M239.95 184.772C263.333 184.729 286.02 186.987 304.015 190.492C322.584 194.204 335.652 198.847 340.12 204.062L340.115 206.645C334.727 200.155 317.142 195.397 303.597 192.677C285.739 189.203 263.204 186.96 239.95 187.003C215.412 187.049 192.563 189.373 174.966 192.806C160.846 195.608 142.015 201.174 139.664 206.664V203.975C140.955 200.175 154.977 194.496 174.648 190.558C192.377 187.101 215.268 184.817 239.95 184.772ZM239.96 176.28C263.343 176.238 286.03 178.497 304.025 182C322.594 185.713 335.662 190.355 340.13 195.57L340.125 198.153C334.737 191.664 317.152 186.906 303.607 184.187C285.749 180.711 263.214 178.468 239.96 178.513C215.422 178.557 192.684 180.883 175.085 184.314C161.459 186.898 141.859 192.684 139.673 198.174V195.484C140.964 191.724 155.27 185.842 174.658 182.067C192.387 178.609 215.278 176.327 239.96 176.28Z" stroke="black" stroke-width="0.573" stroke-linecap="round" stroke-linejoin="round"/>
        <path fill-rule="evenodd" clip-rule="evenodd" d="M239.969 140.623C260.986 140.567 281.294 141.753 297.445 144.667C312.486 147.466 326.83 151.667 328.881 153.927L330.471 156.736C325.483 153.479 313.071 149.853 297.132 146.831C281.126 143.823 260.832 142.826 239.932 142.881C216.21 142.8 197.78 144.052 181.963 146.81C165.235 149.94 153.629 154.411 150.766 156.536L152.324 153.566C157.888 150.728 166.714 147.306 181.547 144.636C197.904 141.648 216.529 140.752 239.969 140.623ZM239.96 132.139C260.073 132.086 279.932 133.206 295.412 135.988C307.621 138.365 319.695 142.077 324.116 145.379L326.442 149.074C322.488 144.679 307.606 140.514 294.468 138.182C279.107 135.532 260.073 134.484 239.96 134.316C218.852 134.376 199.345 135.668 184.208 138.424C169.767 141.173 160.448 144.426 156.505 146.967L158.55 143.88C163.991 141.016 172.782 138.385 183.853 136.234C199.102 133.457 218.729 132.198 239.961 132.139H239.96ZM289.149 241.262C270.931 237.862 252.68 237.368 239.932 237.518C178.525 238.238 158.688 250.128 156.267 253.728L151.677 246.245C167.312 234.913 200.751 228.558 240.265 229.208C260.783 229.544 278.489 230.907 293.384 233.792L289.148 241.264" fill="#FFFF00"/>
        <path d="M289.149 241.262C270.931 237.862 252.68 237.368 239.932 237.518C178.525 238.238 158.688 250.128 156.267 253.728L151.677 246.245C167.312 234.913 200.751 228.558 240.265 229.208C260.783 229.544 278.489 230.907 293.384 233.792L289.148 241.264M239.969 140.623C260.986 140.567 281.294 141.753 297.445 144.667C312.486 147.466 326.83 151.667 328.881 153.927L330.471 156.736C325.483 153.479 313.071 149.853 297.132 146.831C281.126 143.823 260.832 142.826 239.932 142.881C216.21 142.8 197.78 144.052 181.963 146.81C165.235 149.94 153.629 154.411 150.766 156.536L152.324 153.566C157.888 150.728 166.714 147.306 181.547 144.636C197.904 141.648 216.529 140.752 239.969 140.623ZM239.96 132.139C260.073 132.086 279.932 133.206 295.412 135.988C307.621 138.365 319.695 142.077 324.116 145.379L326.442 149.074C322.488 144.679 307.606 140.514 294.468 138.182C279.107 135.532 260.073 134.484 239.96 134.316C218.852 134.376 199.345 135.668 184.208 138.424C169.767 141.173 160.448 144.426 156.505 146.967L158.55 143.88C163.991 141.016 172.782 138.385 183.853 136.234C199.102 133.457 218.729 132.198 239.961 132.139H239.96Z" stroke="black" stroke-width="0.573" stroke-linecap="round" stroke-linejoin="round"/>
        <path fill-rule="evenodd" clip-rule="evenodd" d="M239.581 236.459C256.663 236.714 273.43 237.419 289.614 240.437L288.442 242.507C273.411 239.732 257.387 238.67 239.639 238.757C216.976 238.579 194.054 240.696 174.098 246.423C167.801 248.176 157.377 252.223 156.314 255.569L155.148 253.646C155.484 251.669 161.784 247.566 173.562 244.256C196.42 237.711 217.801 236.607 239.581 236.457L239.581 236.459ZM240.355 227.863C258.053 228.193 276.331 229.012 294.096 232.531L292.876 234.684C276.834 231.5 261.506 230.438 240.461 230.114C217.726 230.156 193.61 231.777 171.683 238.151C164.603 240.214 152.386 244.671 151.979 248.201L150.812 246.136C151.077 242.93 161.655 238.748 171.171 235.98C193.267 229.556 217.446 227.904 240.357 227.863H240.355Z" fill="#FFFF00" stroke="black" stroke-width="0.55" stroke-linecap="round" stroke-linejoin="round"/>
        <path fill-rule="evenodd" clip-rule="evenodd" d="M327.579 247.38L320.2 258.829L298.999 240L243.999 203L181.999 169L149.809 157.99L156.669 145.27L158.999 144L178.999 149L244.999 183L282.999 207L314.999 230L327.999 245L327.579 247.38Z" fill="#FFFF00" stroke="black" stroke-width="0.573" stroke-linecap="round" stroke-linejoin="round"/>
        <path fill-rule="evenodd" clip-rule="evenodd" d="M148.649 158.292C154.295 154.462 195.788 172.947 239.204 199.126C282.505 225.38 323.881 255.047 320.146 260.599L318.918 262.531L318.354 262.976C318.474 262.889 319.097 262.128 318.294 260.07C316.448 254 287.098 230.579 238.399 201.175C190.924 172.865 151.359 155.804 147.402 160.681L148.649 158.292ZM329.089 247.219C332.659 240.167 294.173 211.175 246.457 182.947C197.644 155.281 162.463 138.996 156.037 143.852L154.609 146.452C154.597 146.594 154.661 146.274 154.963 146.041C156.131 145.021 158.068 145.091 158.942 145.074C170.007 145.24 201.609 159.784 245.948 185.202C265.376 196.517 328.019 236.693 327.78 247.992C327.797 248.962 327.86 249.162 327.495 249.643L329.089 247.22V247.219Z" fill="#FFFF00" stroke="black" stroke-width="0.573" stroke-linecap="round" stroke-linejoin="round"/>
        <path d="M180.6 211.008C180.6 227.279 187.263 241.995 198.057 252.75C208.872 263.528 223.569 270.329 239.866 270.329C256.247 270.329 271.113 263.676 281.882 252.94C292.651 242.205 299.325 227.388 299.328 211.06H299.326V131.871L180.586 131.73L180.598 211.008H180.6Z" fill="white" stroke="black" stroke-width="0.67"/>
        <path d="M182.818 211.12V211.165C182.818 226.722 189.259 240.889 199.593 251.174C209.947 261.479 224.207 267.886 239.807 267.886C255.488 267.886 269.719 261.526 280.029 251.26C290.337 240.995 296.726 226.827 296.728 211.216H296.726V134.39L182.886 134.371L182.816 211.119M273.838 157.372L273.842 206.263L273.801 211.435C273.801 212.796 273.72 214.347 273.561 215.668C272.636 223.398 269.081 230.135 263.816 235.376C257.652 241.512 249.145 245.318 239.769 245.318C230.442 245.318 222.129 241.38 215.939 235.218C209.59 228.898 205.909 220.232 205.909 211.271L205.897 157.248L273.837 157.37L273.839 157.372H273.838Z" fill="#FF0000"/>
        <path d="M182.818 211.12V211.165C182.818 226.722 189.259 240.889 199.593 251.174C209.947 261.479 224.207 267.886 239.807 267.886C255.488 267.886 269.719 261.526 280.029 251.26C290.337 240.995 296.726 226.827 296.728 211.216H296.726V134.39L182.886 134.371L182.816 211.119M273.838 157.372L273.842 206.263L273.801 211.435C273.801 212.796 273.72 214.347 273.561 215.668C272.636 223.398 269.081 230.135 263.816 235.376C257.652 241.512 249.145 245.318 239.769 245.318C230.442 245.318 222.129 241.38 215.939 235.218C209.59 228.898 205.909 220.232 205.909 211.271L205.897 157.248L273.837 157.37L273.839 157.372H273.838Z" stroke="black" stroke-width="0.507"/>
        <path d="M190.188 154.429C190.323 148.908 194.24 147.601 194.268 147.582C194.297 147.563 198.5 148.989 198.486 154.48L190.188 154.429Z" fill="#FFFF00"/>
        <path d="M186.809 147.688L186.127 154.033L190.267 154.042C190.307 148.792 194.242 147.919 194.337 147.939C194.427 147.934 198.326 149.099 198.43 154.042H202.581L201.831 147.648L186.809 147.686V147.688ZM185.849 154.058H202.795C203.152 154.058 203.445 154.411 203.445 154.842C203.445 155.272 203.152 155.623 202.795 155.623H185.849C185.492 155.623 185.199 155.273 185.199 154.842C185.199 154.411 185.492 154.058 185.849 154.058Z" fill="#FFFF00" stroke="black" stroke-width="0.5"/>
        <path d="M192.009 154.03C192.027 150.717 194.271 149.78 194.283 149.782C194.283 149.782 196.625 150.748 196.643 154.03H192.009ZM186.209 145.05H202.454C202.796 145.05 203.077 145.368 203.077 145.755C203.077 146.142 202.797 146.459 202.454 146.459H186.209C185.867 146.459 185.586 146.144 185.586 145.755C185.586 145.368 185.866 145.05 186.209 145.05ZM186.549 146.47H202.087C202.414 146.47 202.682 146.787 202.682 147.174C202.682 147.562 202.414 147.878 202.087 147.878H186.549C186.222 147.878 185.954 147.562 185.954 147.174C185.954 146.787 186.222 146.47 186.549 146.47ZM191.569 135.88L192.796 135.882V136.753H193.691V135.863L194.948 135.867V136.754H195.845V135.864H197.103L197.101 137.874C197.101 138.191 196.847 138.395 196.552 138.395H192.142C191.845 138.395 191.572 138.158 191.57 137.869L191.567 135.881H191.568L191.569 135.88ZM196.189 138.57L196.466 145.021L192.163 145.006L192.448 138.553L196.189 138.57Z" fill="#FFFF00" stroke="black" stroke-width="0.5"/>
        <path d="M190.939 141.559L191.07 145.037L186.945 145.038L187.061 141.559H190.939Z" fill="#FFFF00" stroke="black" stroke-width="0.5"/>
        <path d="M201.549 141.559L201.68 145.037L197.555 145.038L197.671 141.559H201.549Z" fill="#FFFF00" stroke="black" stroke-width="0.5"/>
        <path d="M186.298 139.04L187.498 139.043V139.915H188.375V139.023L189.605 139.027V139.916H190.484V139.023L191.714 139.025L191.712 141.037C191.712 141.351 191.463 141.555 191.176 141.555H186.859C186.569 141.555 186.3 141.32 186.299 141.03L186.297 139.041L186.298 139.04Z" fill="#FFFF00" stroke="black" stroke-width="0.5"/>
        <path d="M196.907 139.04L198.107 139.043V139.915H198.984V139.023L200.214 139.027V139.916H201.093V139.023L202.323 139.025L202.321 141.037C202.321 141.351 202.072 141.555 201.785 141.555H197.468C197.178 141.555 196.909 141.32 196.908 141.03L196.906 139.041L196.907 139.04Z" fill="#FFFF00" stroke="black" stroke-width="0.5"/>
        <path d="M193.899 140.61C193.873 139.983 194.776 139.976 194.765 140.61V142.146H193.899V140.61Z" fill="black"/>
        <path d="M188.57 142.842C188.567 142.236 189.407 142.224 189.396 142.842V144.029H188.57V142.842Z" fill="black"/>
        <path d="M199.211 142.842C199.208 142.236 200.048 142.224 200.037 142.842V144.029H199.211V142.842Z" fill="black"/>
        <path d="M190.188 200.75C190.323 195.229 194.24 193.922 194.268 193.903C194.297 193.884 198.5 195.31 198.486 200.801L190.188 200.75Z" fill="#FFFF00"/>
        <path d="M186.809 194.009L186.127 200.354L190.267 200.363C190.307 195.113 194.242 194.24 194.337 194.26C194.427 194.255 198.326 195.42 198.43 200.363H202.581L201.831 193.969L186.809 194.007V194.009ZM185.849 200.379H202.795C203.152 200.379 203.445 200.732 203.445 201.163C203.445 201.593 203.152 201.944 202.795 201.944H185.849C185.492 201.944 185.199 201.594 185.199 201.163C185.199 200.732 185.492 200.379 185.849 200.379Z" fill="#FFFF00" stroke="black" stroke-width="0.5"/>
        <path d="M192.009 200.351C192.027 197.038 194.271 196.101 194.283 196.103C194.283 196.103 196.625 197.069 196.643 200.351H192.009ZM186.209 191.371H202.454C202.796 191.371 203.077 191.689 203.077 192.076C203.077 192.463 202.797 192.78 202.454 192.78H186.209C185.867 192.78 185.586 192.465 185.586 192.076C185.586 191.689 185.866 191.371 186.209 191.371ZM186.549 192.791H202.087C202.414 192.791 202.682 193.108 202.682 193.495C202.682 193.883 202.414 194.199 202.087 194.199H186.549C186.222 194.199 185.954 193.883 185.954 193.495C185.954 193.108 186.222 192.791 186.549 192.791ZM191.569 182.201L192.796 182.203V183.074H193.691V182.184L194.948 182.188V183.075H195.845V182.185H197.103L197.101 184.195C197.101 184.512 196.847 184.716 196.552 184.716H192.142C191.845 184.716 191.572 184.479 191.57 184.19L191.567 182.202H191.568L191.569 182.201ZM196.189 184.891L196.466 191.342L192.163 191.327L192.448 184.874L196.189 184.891Z" fill="#FFFF00" stroke="black" stroke-width="0.5"/>
        <path d="M190.939 187.879L191.07 191.357L186.945 191.358L187.061 187.879H190.939Z" fill="#FFFF00" stroke="black" stroke-width="0.5"/>
        <path d="M201.549 187.879L201.68 191.357L197.555 191.358L197.671 187.879H201.549Z" fill="#FFFF00" stroke="black" stroke-width="0.5"/>
        <path d="M186.298 185.361L187.498 185.364V186.236H188.375V185.344L189.605 185.348V186.237H190.484V185.344L191.714 185.346L191.712 187.358C191.712 187.672 191.463 187.876 191.176 187.876H186.859C186.569 187.876 186.3 187.641 186.299 187.351L186.297 185.362L186.298 185.361Z" fill="#FFFF00" stroke="black" stroke-width="0.5"/>
        <path d="M196.907 185.361L198.107 185.364V186.236H198.984V185.344L200.214 185.348V186.237H201.093V185.344L202.323 185.346L202.321 187.358C202.321 187.672 202.072 187.876 201.785 187.876H197.468C197.178 187.876 196.909 187.641 196.908 187.351L196.906 185.362L196.907 185.361Z" fill="#FFFF00" stroke="black" stroke-width="0.5"/>
        <path d="M193.899 186.93C193.873 186.303 194.776 186.296 194.765 186.93V188.466H193.899V186.93Z" fill="black"/>
        <path d="M188.57 189.162C188.567 188.556 189.407 188.544 189.396 189.162V190.349H188.57V189.162Z" fill="black"/>
        <path d="M199.211 189.162C199.208 188.556 200.048 188.544 200.037 189.162V190.349H199.211V189.162Z" fill="black"/>
        <path d="M208.249 248.965C204.427 244.979 206.259 241.279 206.266 241.246C206.273 241.212 210.246 239.234 214.132 243.113L208.249 248.965Z" fill="#FFFF00"/>
        <path d="M201.085 246.612L205.107 251.567L208.03 248.636C204.333 244.908 206.486 241.501 206.567 241.447C206.627 241.38 210.201 239.434 213.782 242.843L216.707 239.898L211.641 235.925L201.083 246.611L201.085 246.612ZM204.928 251.782L216.869 239.757C217.12 239.504 217.577 239.545 217.883 239.848C218.188 240.151 218.231 240.606 217.979 240.86L206.039 252.885C205.787 253.138 205.333 253.099 205.027 252.796C204.721 252.492 204.677 252.035 204.928 251.782Z" fill="#FFFF00" stroke="black" stroke-width="0.5"/>
        <path d="M209.249 247.391C206.911 245.044 207.827 242.792 207.837 242.785C207.837 242.785 210.173 241.803 212.514 244.103L209.249 247.391ZM198.79 245.18L210.236 233.652C210.477 233.41 210.901 233.434 211.176 233.707C211.45 233.98 211.478 234.402 211.236 234.645L199.79 246.172C199.549 246.415 199.127 246.393 198.851 246.118C198.577 245.846 198.548 245.423 198.79 245.18ZM200.037 245.939L210.985 234.913C211.216 234.681 211.63 234.714 211.904 234.987C212.18 235.26 212.215 235.673 211.985 235.905L201.036 246.931C200.806 247.163 200.393 247.131 200.118 246.857C199.843 246.584 199.807 246.171 200.037 245.939ZM196.06 234.915L196.926 234.046L197.544 234.659L198.174 234.024L197.543 233.397L198.431 232.508L199.061 233.133L199.693 232.497L199.061 231.869L199.948 230.977L201.373 232.394C201.598 232.618 201.563 232.942 201.355 233.151L198.248 236.28C198.039 236.491 197.678 236.518 197.472 236.316L196.059 234.917L196.06 234.916L196.06 234.915ZM201.224 233.532L205.997 237.881L202.954 240.924L198.576 236.175L201.224 233.532Z" fill="#FFFF00" stroke="black" stroke-width="0.5"/>
        <path d="M199.646 239.361L202.207 241.719L199.301 244.647L196.914 242.113L199.646 239.361Z" fill="#FFFF00" stroke="black" stroke-width="0.5"/>
        <path d="M207.119 231.834L209.679 234.192L206.773 237.119L204.386 234.586L207.119 231.834Z" fill="#FFFF00" stroke="black" stroke-width="0.5"/>
        <path d="M194.587 240.878L195.435 240.029L196.053 240.643L196.671 240.021L196.038 239.393L196.908 238.523L197.539 239.149L198.158 238.525L197.524 237.896L198.393 237.025L199.819 238.444C200.042 238.665 200.011 238.985 199.809 239.189L196.767 242.252C196.563 242.458 196.206 242.484 196 242.28L194.587 240.88L194.587 240.878Z" fill="#FFFF00" stroke="black" stroke-width="0.5"/>
        <path d="M202.064 233.351L202.911 232.502L203.53 233.116L204.148 232.494L203.515 231.865L204.384 230.995L205.015 231.622L205.635 230.998L205.001 230.369L205.869 229.497L207.295 230.916C207.518 231.138 207.487 231.458 207.285 231.662L204.243 234.725C204.039 234.931 203.683 234.956 203.476 234.753L202.064 233.353L202.064 233.351Z" fill="#FFFF00" stroke="black" stroke-width="0.5"/>
        <path d="M201.059 236.595C200.595 236.171 201.227 235.525 201.669 235.98L202.759 237.062L202.149 237.677L201.059 236.595Z" fill="black"/>
        <path d="M198.884 241.948C198.452 241.524 199.036 240.919 199.466 241.362L200.309 242.199L199.727 242.785L198.884 241.948Z" fill="black"/>
        <path d="M206.38 234.398C205.948 233.973 206.532 233.368 206.962 233.812L207.805 234.648L207.223 235.234L206.38 234.398Z" fill="black"/>
        <path d="M235.902 154.429C236.037 148.908 239.954 147.601 239.982 147.582C240.011 147.563 244.214 148.989 244.2 154.48L235.902 154.429Z" fill="#FFFF00"/>
        <path d="M232.524 147.688L231.842 154.033L235.982 154.042C236.022 148.792 239.957 147.919 240.052 147.939C240.142 147.934 244.041 149.099 244.145 154.042H248.296L247.546 147.648L232.524 147.686V147.688ZM231.564 154.058H248.51C248.867 154.058 249.16 154.411 249.16 154.842C249.16 155.272 248.867 155.623 248.51 155.623H231.564C231.207 155.623 230.914 155.273 230.914 154.842C230.914 154.411 231.207 154.058 231.564 154.058Z" fill="#FFFF00" stroke="black" stroke-width="0.5"/>
        <path d="M237.724 154.03C237.742 150.717 239.986 149.78 239.998 149.782C239.998 149.782 242.34 150.748 242.358 154.03H237.724ZM231.924 145.05H248.169C248.511 145.05 248.792 145.368 248.792 145.755C248.792 146.142 248.512 146.459 248.169 146.459H231.924C231.582 146.459 231.301 146.144 231.301 145.755C231.301 145.368 231.581 145.05 231.924 145.05ZM232.264 146.47H247.802C248.129 146.47 248.397 146.787 248.397 147.174C248.397 147.562 248.129 147.878 247.802 147.878H232.264C231.937 147.878 231.669 147.562 231.669 147.174C231.669 146.787 231.937 146.47 232.264 146.47ZM237.284 135.88L238.511 135.882V136.753H239.406V135.863L240.663 135.867V136.754H241.56V135.864H242.818L242.816 137.874C242.816 138.191 242.562 138.395 242.267 138.395H237.857C237.56 138.395 237.287 138.158 237.285 137.869L237.282 135.881H237.283L237.284 135.88ZM241.904 138.57L242.181 145.021L237.878 145.006L238.163 138.553L241.904 138.57Z" fill="#FFFF00" stroke="black" stroke-width="0.5"/>
        <path d="M236.654 141.559L236.785 145.037L232.66 145.038L232.776 141.559H236.654Z" fill="#FFFF00" stroke="black" stroke-width="0.5"/>
        <path d="M247.264 141.559L247.395 145.037L243.27 145.038L243.386 141.559H247.264Z" fill="#FFFF00" stroke="black" stroke-width="0.5"/>
        <path d="M232.013 139.04L233.213 139.043V139.915H234.09V139.023L235.32 139.027V139.916H236.199V139.023L237.429 139.025L237.427 141.037C237.427 141.351 237.178 141.555 236.891 141.555H232.574C232.284 141.555 232.015 141.32 232.014 141.03L232.012 139.041L232.013 139.04Z" fill="#FFFF00" stroke="black" stroke-width="0.5"/>
        <path d="M242.622 139.04L243.822 139.043V139.915H244.699V139.023L245.929 139.027V139.916H246.808V139.023L248.038 139.025L248.036 141.037C248.036 141.351 247.787 141.555 247.5 141.555H243.183C242.893 141.555 242.624 141.32 242.623 141.03L242.621 139.041L242.622 139.04Z" fill="#FFFF00" stroke="black" stroke-width="0.5"/>
        <path d="M239.614 140.61C239.588 139.983 240.491 139.976 240.48 140.61V142.146H239.614V140.61Z" fill="black"/>
        <path d="M234.285 142.842C234.282 142.236 235.122 142.224 235.111 142.842V144.029H234.285V142.842Z" fill="black"/>
        <path d="M244.926 142.842C244.923 142.236 245.763 142.224 245.752 142.842V144.029H244.926V142.842Z" fill="black"/>
        <path d="M289.605 154.429C289.47 148.908 285.553 147.601 285.525 147.582C285.496 147.563 281.293 148.989 281.307 154.48L289.605 154.429Z" fill="#FFFF00"/>
        <path d="M292.984 147.688L293.666 154.033L289.526 154.042C289.486 148.792 285.551 147.919 285.456 147.939C285.366 147.934 281.467 149.099 281.363 154.042H277.212L277.962 147.648L292.984 147.686V147.688ZM293.944 154.058H276.998C276.641 154.058 276.348 154.411 276.348 154.842C276.348 155.272 276.641 155.623 276.998 155.623H293.944C294.301 155.623 294.594 155.273 294.594 154.842C294.594 154.411 294.301 154.058 293.944 154.058Z" fill="#FFFF00" stroke="black" stroke-width="0.5"/>
        <path d="M287.784 154.03C287.766 150.717 285.522 149.78 285.51 149.782C285.51 149.782 283.168 150.748 283.15 154.03H287.784ZM293.584 145.05H277.339C276.997 145.05 276.716 145.368 276.716 145.755C276.716 146.142 276.996 146.459 277.339 146.459H293.584C293.926 146.459 294.207 146.144 294.207 145.755C294.207 145.368 293.927 145.05 293.584 145.05ZM293.244 146.47H277.706C277.379 146.47 277.111 146.787 277.111 147.174C277.111 147.562 277.379 147.878 277.706 147.878H293.244C293.571 147.878 293.839 147.562 293.839 147.174C293.839 146.787 293.571 146.47 293.244 146.47ZM288.224 135.88L286.997 135.882V136.753H286.102V135.863L284.845 135.867V136.754H283.948V135.864H282.69L282.692 137.874C282.692 138.191 282.946 138.395 283.241 138.395H287.651C287.948 138.395 288.221 138.158 288.223 137.869L288.226 135.881H288.225L288.224 135.88ZM283.604 138.57L283.327 145.021L287.63 145.006L287.345 138.553L283.604 138.57Z" fill="#FFFF00" stroke="black" stroke-width="0.5"/>
        <path d="M288.854 141.559L288.723 145.037L292.848 145.038L292.732 141.559H288.854Z" fill="#FFFF00" stroke="black" stroke-width="0.5"/>
        <path d="M278.244 141.559L278.113 145.037L282.238 145.038L282.122 141.559H278.244Z" fill="#FFFF00" stroke="black" stroke-width="0.5"/>
        <path d="M293.495 139.04L292.295 139.043V139.915H291.418V139.023L290.188 139.027V139.916H289.309V139.023L288.079 139.025L288.081 141.037C288.081 141.351 288.33 141.555 288.617 141.555H292.934C293.224 141.555 293.493 141.32 293.494 141.03L293.496 139.041L293.495 139.04Z" fill="#FFFF00" stroke="black" stroke-width="0.5"/>
        <path d="M282.886 139.04L281.686 139.043V139.915H280.809V139.023L279.579 139.027V139.916H278.7V139.023L277.47 139.025L277.472 141.037C277.472 141.351 277.721 141.555 278.008 141.555H282.325C282.615 141.555 282.884 141.32 282.885 141.03L282.887 139.041L282.886 139.04Z" fill="#FFFF00" stroke="black" stroke-width="0.5"/>
        <path d="M285.894 140.61C285.92 139.983 285.017 139.976 285.028 140.61V142.146H285.894V140.61Z" fill="black"/>
        <path d="M291.223 142.842C291.226 142.236 290.386 142.224 290.397 142.842V144.029H291.223V142.842Z" fill="black"/>
        <path d="M280.582 142.842C280.585 142.236 279.745 142.224 279.756 142.842V144.029H280.582V142.842Z" fill="black"/>
        <path d="M289.605 200.75C289.47 195.229 285.553 193.922 285.525 193.903C285.496 193.884 281.293 195.31 281.307 200.801L289.605 200.75Z" fill="#FFFF00"/>
        <path d="M292.984 194.009L293.666 200.354L289.526 200.363C289.486 195.113 285.551 194.24 285.456 194.26C285.366 194.255 281.467 195.42 281.363 200.363H277.212L277.962 193.969L292.984 194.007V194.009ZM293.944 200.379H276.998C276.641 200.379 276.348 200.732 276.348 201.163C276.348 201.593 276.641 201.944 276.998 201.944H293.944C294.301 201.944 294.594 201.594 294.594 201.163C294.594 200.732 294.301 200.379 293.944 200.379Z" fill="#FFFF00" stroke="black" stroke-width="0.5"/>
        <path d="M287.784 200.351C287.766 197.038 285.522 196.101 285.51 196.103C285.51 196.103 283.168 197.069 283.15 200.351H287.784ZM293.584 191.371H277.339C276.997 191.371 276.716 191.689 276.716 192.076C276.716 192.463 276.996 192.78 277.339 192.78H293.584C293.926 192.78 294.207 192.465 294.207 192.076C294.207 191.689 293.927 191.371 293.584 191.371ZM293.244 192.791H277.706C277.379 192.791 277.111 193.108 277.111 193.495C277.111 193.883 277.379 194.199 277.706 194.199H293.244C293.571 194.199 293.839 193.883 293.839 193.495C293.839 193.108 293.571 192.791 293.244 192.791ZM288.224 182.201L286.997 182.203V183.074H286.102V182.184L284.845 182.188V183.075H283.948V182.185H282.69L282.692 184.195C282.692 184.512 282.946 184.716 283.241 184.716H287.651C287.948 184.716 288.221 184.479 288.223 184.19L288.226 182.202H288.225L288.224 182.201ZM283.604 184.891L283.327 191.342L287.63 191.327L287.345 184.874L283.604 184.891Z" fill="#FFFF00" stroke="black" stroke-width="0.5"/>
        <path d="M288.854 187.879L288.723 191.357L292.848 191.358L292.732 187.879H288.854Z" fill="#FFFF00" stroke="black" stroke-width="0.5"/>
        <path d="M278.244 187.879L278.113 191.357L282.238 191.358L282.122 187.879H278.244Z" fill="#FFFF00" stroke="black" stroke-width="0.5"/>
        <path d="M293.495 185.361L292.295 185.364V186.236H291.418V185.344L290.188 185.348V186.237H289.309V185.344L288.079 185.346L288.081 187.358C288.081 187.672 288.33 187.876 288.617 187.876H292.934C293.224 187.876 293.493 187.641 293.494 187.351L293.496 185.362L293.495 185.361Z" fill="#FFFF00" stroke="black" stroke-width="0.5"/>
        <path d="M282.886 185.361L281.686 185.364V186.236H280.809V185.344L279.579 185.348V186.237H278.7V185.344L277.47 185.346L277.472 187.358C277.472 187.672 277.721 187.876 278.008 187.876H282.325C282.615 187.876 282.884 187.641 282.885 187.351L282.887 185.362L282.886 185.361Z" fill="#FFFF00" stroke="black" stroke-width="0.5"/>
        <path d="M285.894 186.93C285.92 186.303 285.017 186.296 285.028 186.93V188.466H285.894V186.93Z" fill="black"/>
        <path d="M291.223 189.162C291.226 188.556 290.386 188.544 290.397 189.162V190.349H291.223V189.162Z" fill="black"/>
        <path d="M280.582 189.162C280.585 188.556 279.745 188.544 279.756 189.162V190.349H280.582V189.162Z" fill="black"/>
        <path d="M271.544 248.965C275.366 244.979 273.534 241.279 273.527 241.246C273.52 241.212 269.547 239.234 265.661 243.113L271.544 248.965Z" fill="#FFFF00"/>
        <path d="M278.708 246.612L274.686 251.567L271.763 248.636C275.46 244.908 273.307 241.501 273.226 241.447C273.166 241.38 269.592 239.434 266.011 242.843L263.086 239.898L268.152 235.925L278.71 246.611L278.708 246.612ZM274.865 251.782L262.924 239.757C262.673 239.504 262.216 239.545 261.91 239.848C261.605 240.151 261.562 240.606 261.814 240.86L273.754 252.885C274.006 253.138 274.46 253.099 274.766 252.796C275.072 252.492 275.116 252.035 274.865 251.782Z" fill="#FFFF00" stroke="black" stroke-width="0.5"/>
        <path d="M270.544 247.391C272.882 245.044 271.966 242.792 271.956 242.785C271.956 242.785 269.62 241.803 267.279 244.103L270.544 247.391ZM281.003 245.18L269.557 233.652C269.316 233.41 268.892 233.434 268.617 233.707C268.343 233.98 268.315 234.402 268.557 234.645L280.003 246.172C280.244 246.415 280.666 246.393 280.942 246.118C281.216 245.846 281.245 245.423 281.003 245.18ZM279.756 245.939L268.808 234.913C268.577 234.681 268.163 234.714 267.889 234.987C267.613 235.26 267.578 235.673 267.808 235.905L278.757 246.931C278.987 247.163 279.4 247.131 279.675 246.857C279.95 246.584 279.986 246.171 279.756 245.939ZM283.733 234.915L282.867 234.046L282.249 234.659L281.619 234.024L282.25 233.397L281.362 232.508L280.732 233.133L280.1 232.497L280.732 231.869L279.845 230.977L278.42 232.394C278.195 232.618 278.23 232.942 278.438 233.151L281.545 236.28C281.754 236.491 282.115 236.518 282.321 236.316L283.734 234.917L283.733 234.916L283.733 234.915ZM278.569 233.532L273.796 237.881L276.839 240.924L281.217 236.175L278.569 233.532Z" fill="#FFFF00" stroke="black" stroke-width="0.5"/>
        <path d="M280.147 239.361L277.586 241.719L280.492 244.647L282.879 242.113L280.147 239.361Z" fill="#FFFF00" stroke="black" stroke-width="0.5"/>
        <path d="M272.674 231.834L270.114 234.192L273.02 237.119L275.407 234.586L272.674 231.834Z" fill="#FFFF00" stroke="black" stroke-width="0.5"/>
        <path d="M285.206 240.878L284.358 240.029L283.74 240.643L283.122 240.021L283.755 239.393L282.885 238.523L282.254 239.149L281.635 238.525L282.269 237.896L281.4 237.025L279.974 238.444C279.751 238.665 279.782 238.985 279.984 239.189L283.026 242.252C283.23 242.458 283.587 242.484 283.793 242.28L285.206 240.88L285.206 240.878Z" fill="#FFFF00" stroke="black" stroke-width="0.5"/>
        <path d="M277.729 233.351L276.882 232.502L276.263 233.116L275.645 232.494L276.278 231.865L275.409 230.995L274.778 231.622L274.158 230.998L274.792 230.369L273.924 229.497L272.498 230.916C272.275 231.138 272.305 231.458 272.508 231.662L275.55 234.725C275.754 234.931 276.11 234.956 276.317 234.753L277.729 233.353L277.729 233.351Z" fill="#FFFF00" stroke="black" stroke-width="0.5"/>
        <path d="M278.734 236.595C279.198 236.171 278.566 235.525 278.124 235.98L277.034 237.062L277.644 237.677L278.734 236.595Z" fill="black"/>
        <path d="M280.909 241.948C281.341 241.524 280.757 240.919 280.327 241.362L279.484 242.199L280.066 242.785L280.909 241.948Z" fill="black"/>
        <path d="M273.413 234.398C273.845 233.973 273.261 233.368 272.831 233.812L271.988 234.648L272.57 235.234L273.413 234.398Z" fill="black"/>
        <path d="M232.638 202.408V202.413C232.638 204.625 233.488 206.64 234.85 208.103C236.215 209.569 238.095 210.48 240.152 210.48C242.219 210.48 244.096 209.575 245.455 208.115C246.813 206.656 247.657 204.643 247.657 202.422V191.654L232.665 191.641L232.637 202.407" fill="#003399"/>
        <path d="M236.076 197.222C236.897 197.222 237.562 196.557 237.562 195.736C237.562 194.915 236.897 194.25 236.076 194.25C235.255 194.25 234.59 194.915 234.59 195.736C234.59 196.557 235.255 197.222 236.076 197.222Z" fill="white"/>
        <path d="M244.392 197.23C245.213 197.23 245.878 196.565 245.878 195.744C245.878 194.923 245.213 194.258 244.392 194.258C243.572 194.258 242.906 194.923 242.906 195.744C242.906 196.565 243.572 197.23 244.392 197.23Z" fill="white"/>
        <path d="M240.228 201.222C241.049 201.222 241.714 200.557 241.714 199.736C241.714 198.915 241.049 198.25 240.228 198.25C239.408 198.25 238.742 198.915 238.742 199.736C238.742 200.557 239.408 201.222 240.228 201.222Z" fill="white"/>
        <path d="M236.076 205.402C236.897 205.402 237.562 204.736 237.562 203.916C237.562 203.095 236.897 202.43 236.076 202.43C235.255 202.43 234.59 203.095 234.59 203.916C234.59 204.736 235.255 205.402 236.076 205.402Z" fill="white"/>
        <path d="M244.384 205.394C245.205 205.394 245.87 204.729 245.87 203.908C245.87 203.087 245.205 202.422 244.384 202.422C243.564 202.422 242.898 203.087 242.898 203.908C242.898 204.729 243.564 205.394 244.384 205.394Z" fill="white"/>
        <path d="M232.638 176.388V176.393C232.638 178.605 233.488 180.62 234.85 182.083C236.215 183.549 238.095 184.46 240.152 184.46C242.219 184.46 244.096 183.555 245.455 182.095C246.813 180.636 247.657 178.623 247.657 176.402V165.634L232.665 165.621L232.637 176.387" fill="#003399"/>
        <path d="M236.076 171.202C236.897 171.202 237.562 170.537 237.562 169.716C237.562 168.896 236.897 168.23 236.076 168.23C235.255 168.23 234.59 168.896 234.59 169.716C234.59 170.537 235.255 171.202 236.076 171.202Z" fill="white"/>
        <path d="M244.392 171.21C245.213 171.21 245.878 170.545 245.878 169.724C245.878 168.904 245.213 168.238 244.392 168.238C243.572 168.238 242.906 168.904 242.906 169.724C242.906 170.545 243.572 171.21 244.392 171.21Z" fill="white"/>
        <path d="M240.228 175.202C241.049 175.202 241.714 174.537 241.714 173.716C241.714 172.896 241.049 172.23 240.228 172.23C239.408 172.23 238.742 172.896 238.742 173.716C238.742 174.537 239.408 175.202 240.228 175.202Z" fill="white"/>
        <path d="M236.076 179.382C236.897 179.382 237.562 178.717 237.562 177.896C237.562 177.075 236.897 176.41 236.076 176.41C235.255 176.41 234.59 177.075 234.59 177.896C234.59 178.717 235.255 179.382 236.076 179.382Z" fill="white"/>
        <path d="M244.384 179.374C245.205 179.374 245.87 178.709 245.87 177.888C245.87 177.068 245.205 176.402 244.384 176.402C243.564 176.402 242.898 177.068 242.898 177.888C242.898 178.709 243.564 179.374 244.384 179.374Z" fill="white"/>
        <path d="M211.837 202.408V202.413C211.837 204.625 212.687 206.64 214.049 208.103C215.414 209.569 217.294 210.48 219.351 210.48C221.418 210.48 223.295 209.575 224.654 208.115C226.012 206.656 226.856 204.643 226.856 202.422V191.654L211.864 191.641L211.836 202.407" fill="#003399"/>
        <path d="M215.275 197.222C216.096 197.222 216.761 196.557 216.761 195.736C216.761 194.915 216.096 194.25 215.275 194.25C214.454 194.25 213.789 194.915 213.789 195.736C213.789 196.557 214.454 197.222 215.275 197.222Z" fill="white"/>
        <path d="M223.591 197.23C224.412 197.23 225.077 196.565 225.077 195.744C225.077 194.923 224.412 194.258 223.591 194.258C222.771 194.258 222.105 194.923 222.105 195.744C222.105 196.565 222.771 197.23 223.591 197.23Z" fill="white"/>
        <path d="M219.427 201.222C220.248 201.222 220.913 200.557 220.913 199.736C220.913 198.915 220.248 198.25 219.427 198.25C218.607 198.25 217.941 198.915 217.941 199.736C217.941 200.557 218.607 201.222 219.427 201.222Z" fill="white"/>
        <path d="M215.275 205.402C216.096 205.402 216.761 204.736 216.761 203.916C216.761 203.095 216.096 202.43 215.275 202.43C214.454 202.43 213.789 203.095 213.789 203.916C213.789 204.736 214.454 205.402 215.275 205.402Z" fill="white"/>
        <path d="M223.584 205.394C224.404 205.394 225.07 204.729 225.07 203.908C225.07 203.087 224.404 202.422 223.584 202.422C222.763 202.422 222.098 203.087 222.098 203.908C222.098 204.729 222.763 205.394 223.584 205.394Z" fill="white"/>
        <path d="M253.38 202.408V202.413C253.38 204.625 254.23 206.64 255.592 208.103C256.957 209.569 258.837 210.48 260.894 210.48C262.961 210.48 264.838 209.575 266.197 208.115C267.555 206.656 268.399 204.643 268.399 202.422V191.654L253.407 191.641L253.379 202.407" fill="#003399"/>
        <path d="M256.818 197.222C257.639 197.222 258.304 196.557 258.304 195.736C258.304 194.915 257.639 194.25 256.818 194.25C255.997 194.25 255.332 194.915 255.332 195.736C255.332 196.557 255.997 197.222 256.818 197.222Z" fill="white"/>
        <path d="M265.134 197.23C265.955 197.23 266.62 196.565 266.62 195.744C266.62 194.923 265.955 194.258 265.134 194.258C264.314 194.258 263.648 194.923 263.648 195.744C263.648 196.565 264.314 197.23 265.134 197.23Z" fill="white"/>
        <path d="M260.97 201.222C261.791 201.222 262.456 200.557 262.456 199.736C262.456 198.915 261.791 198.25 260.97 198.25C260.15 198.25 259.484 198.915 259.484 199.736C259.484 200.557 260.15 201.222 260.97 201.222Z" fill="white"/>
        <path d="M256.818 205.402C257.639 205.402 258.304 204.736 258.304 203.916C258.304 203.095 257.639 202.43 256.818 202.43C255.997 202.43 255.332 203.095 255.332 203.916C255.332 204.736 255.997 205.402 256.818 205.402Z" fill="white"/>
        <path d="M265.127 205.394C265.947 205.394 266.613 204.729 266.613 203.908C266.613 203.087 265.947 202.422 265.127 202.422C264.306 202.422 263.641 203.087 263.641 203.908C263.641 204.729 264.306 205.394 265.127 205.394Z" fill="white"/>
        <path d="M232.638 228.189V228.194C232.638 230.406 233.488 232.421 234.85 233.884C236.215 235.35 238.095 236.261 240.152 236.261C242.219 236.261 244.096 235.356 245.455 233.896C246.813 232.437 247.657 230.424 247.657 228.203V217.435L232.665 217.422L232.637 228.188" fill="#003399"/>
        <path d="M236.076 223.003C236.897 223.003 237.562 222.338 237.562 221.517C237.562 220.697 236.897 220.031 236.076 220.031C235.255 220.031 234.59 220.697 234.59 221.517C234.59 222.338 235.255 223.003 236.076 223.003Z" fill="white"/>
        <path d="M244.392 223.011C245.213 223.011 245.878 222.346 245.878 221.525C245.878 220.704 245.213 220.039 244.392 220.039C243.572 220.039 242.906 220.704 242.906 221.525C242.906 222.346 243.572 223.011 244.392 223.011Z" fill="white"/>
        <path d="M240.228 227.003C241.049 227.003 241.714 226.338 241.714 225.517C241.714 224.697 241.049 224.031 240.228 224.031C239.408 224.031 238.742 224.697 238.742 225.517C238.742 226.338 239.408 227.003 240.228 227.003Z" fill="white"/>
        <path d="M236.076 231.183C236.897 231.183 237.562 230.518 237.562 229.697C237.562 228.876 236.897 228.211 236.076 228.211C235.255 228.211 234.59 228.876 234.59 229.697C234.59 230.518 235.255 231.183 236.076 231.183Z" fill="white"/>
        <path d="M244.384 231.175C245.205 231.175 245.87 230.51 245.87 229.689C245.87 228.868 245.205 228.203 244.384 228.203C243.564 228.203 242.898 228.868 242.898 229.689C242.898 230.51 243.564 231.175 244.384 231.175Z" fill="white"/>
    </g>
    <defs>
        <clipPath id="clip0_1825_1407">
            <rect width="600" height="400" fill="white"/>
        </clipPath>
    </defs>
</svg>
