<svg width="1200" height="660" viewBox="0 0 1200 660" fill="none"
    xmlns="http://www.w3.org/2000/svg">
    <g clip-path="url(#clip0_1954_834)">
        <path id="3" d="M0 440H1200V660H0V440Z" fill="#EDEDF0"/>
        <path id="2" d="M0 220H1200V440H0V220Z" fill="#DDDDDD"/>
        <path id="1" d="M0 0H1200V220H0V0Z" fill="#EDEDF0"/>
        <path d="M683.656 329.978C683.656 376.196 646.214 413.656 599.998 413.656C553.805 413.656 516.344 376.196 516.344 329.978C516.344 283.78 553.806 246.344 599.998 246.344C646.214 246.344 683.656 283.78 683.656 329.978Z" fill="white" stroke="black" stroke-width="3.687" stroke-miterlimit="10"/>
        <path d="M640.447 317.018C638.416 316.938 638.404 319.176 638.404 319.176C638.404 319.176 638.474 318.514 638.416 319.266C638.377 320.009 638.749 321.821 640.249 321.969C641.832 322.108 642.358 320.258 642.371 319.36C642.371 319.004 642.255 317.064 640.447 317.02" fill="#009B3A"/>
        <path d="M640.447 317.018C638.416 316.938 638.404 319.176 638.404 319.176C638.404 319.176 638.474 318.514 638.416 319.266C638.377 320.009 638.749 321.821 640.249 321.969C641.832 322.108 642.358 320.258 642.371 319.36C642.371 319.004 642.255 317.064 640.447 317.02" stroke="black" stroke-width="0.985"/>
        <path d="M547.515 363.467L546.798 362.28C546.726 362.148 546.539 361.93 546.24 361.605C546.098 361.445 545.899 361.347 545.686 361.332C545.46 361.299 545.23 361.346 545.034 361.464C544.756 361.634 544.574 361.861 544.544 362.139C544.491 362.422 544.623 362.811 544.937 363.336L545.662 364.571L547.515 363.467ZM554.595 363.059L545.495 368.471L542.717 363.803C542.202 362.927 541.889 362.231 541.767 361.681C541.624 361.122 541.692 360.598 541.923 360.077C542.153 359.551 542.571 359.113 543.153 358.764C543.601 358.491 544.11 358.334 544.633 358.307C545.143 358.307 545.608 358.433 546.059 358.672C546.337 358.832 546.661 359.08 547.014 359.44C546.93 359.051 546.882 358.744 546.901 358.506C546.959 358.258 547.033 358.014 547.122 357.776C547.245 357.436 547.362 357.198 547.435 357.047L549.274 354.119L551.149 357.299L549.274 360.456C549.039 360.855 548.896 361.162 548.877 361.376C548.866 361.672 548.931 361.93 549.072 362.183L549.228 362.441L552.915 360.247L554.595 363.059ZM538.575 355.649L535.797 347.347L537.939 346.627L539.679 351.831L541.285 351.291L539.649 346.461L541.707 345.79L543.323 350.596L545.293 349.959L543.515 344.604L545.788 343.83L548.61 352.288L538.575 355.649ZM538.871 338.749L538.759 337.972C538.686 337.324 538.529 336.906 538.289 336.688C538.169 336.579 538.026 336.498 537.872 336.45C537.717 336.401 537.554 336.386 537.393 336.406C537.089 336.447 536.809 336.595 536.603 336.823C536.393 337.077 536.323 337.495 536.411 338.103L536.5 339.037L538.871 338.749ZM534.755 342.539L534.124 337.145C533.997 335.987 534.164 335.063 534.648 334.411C535.148 333.765 535.913 333.376 536.941 333.259C538 333.127 538.877 333.355 539.543 333.916C540.201 334.485 540.622 335.433 540.779 336.736L540.979 338.512L544.875 338.059L545.257 341.323L534.755 342.539ZM534.388 321.899L534.726 318.649L541.008 319.325C541.6 319.392 542.178 319.555 542.718 319.807C543.254 320.046 543.722 320.415 544.08 320.881C544.443 321.349 544.698 321.796 544.816 322.278C544.976 322.914 545.021 323.693 544.918 324.588C544.859 325.145 544.761 325.698 544.624 326.242C544.492 326.839 544.287 327.332 544.031 327.711C543.76 328.116 543.414 328.465 543.012 328.741C542.627 329.014 542.187 329.201 541.723 329.291C541.027 329.433 540.43 329.461 539.911 329.403L533.658 328.743L533.995 325.488L540.411 326.184C540.989 326.242 541.449 326.135 541.806 325.842C542.165 325.555 542.366 325.138 542.434 324.588C542.494 324.008 542.375 323.562 542.095 323.217C541.817 322.861 541.385 322.662 540.802 322.594L534.388 321.899ZM544.911 313.007L545.475 311.441C545.646 310.911 545.695 310.501 545.578 310.205C545.522 310.066 545.436 309.941 545.324 309.841C545.213 309.741 545.08 309.668 544.936 309.627C544.621 309.519 544.362 309.539 544.108 309.695C543.844 309.855 543.617 310.195 543.436 310.725L542.878 312.301L544.911 313.007ZM540.987 311.631L541.462 310.302C541.622 309.816 541.667 309.447 541.549 309.198C541.462 308.959 541.255 308.77 540.937 308.678C540.814 308.626 540.68 308.602 540.546 308.608C540.413 308.614 540.282 308.65 540.163 308.712C539.933 308.848 539.741 309.139 539.585 309.607L539.089 310.973L540.987 311.631ZM535.992 313.386L538.002 307.594C538.35 306.63 538.845 305.988 539.511 305.624C539.822 305.457 540.164 305.357 540.515 305.331C540.866 305.305 541.219 305.353 541.551 305.472C542.128 305.7 542.568 306.052 542.873 306.567C543.053 306.907 543.167 307.355 543.167 307.875C543.583 307.215 544.063 306.795 544.597 306.615C545.141 306.421 545.734 306.431 546.376 306.655C546.88 306.829 547.302 307.116 547.636 307.495C547.954 307.895 548.164 308.333 548.268 308.829C548.316 309.149 548.292 309.577 548.179 310.108C548.013 310.852 547.915 311.323 547.831 311.543L545.969 316.873L535.992 313.386ZM541.384 299.831L543.094 297.04L549.905 301.168L552.557 296.812L554.777 298.168L550.455 305.313L541.384 299.831ZM548.37 289.425L550.473 286.92L558.543 293.743L556.437 296.248L548.37 289.425ZM563.027 283.739L565.777 282.563C566.13 283.303 566.331 284.007 566.359 284.698C566.387 285.36 566.253 286.019 565.969 286.618C565.654 287.226 565.14 287.815 564.435 288.433C563.537 289.163 562.714 289.639 561.935 289.848C561.165 290.048 560.303 289.999 559.343 289.697C558.417 289.391 557.535 288.725 556.683 287.727C555.575 286.372 555.065 285.043 555.178 283.739C555.286 282.412 556.001 281.22 557.304 280.121C558.339 279.265 559.299 278.818 560.244 278.745C561.166 278.657 562.146 278.935 563.13 279.552L561.323 281.896C561.048 281.716 560.819 281.596 560.623 281.556C560.337 281.47 560.033 281.466 559.745 281.546C559.449 281.611 559.173 281.748 558.941 281.945C558.367 282.425 558.118 283.019 558.201 283.729C558.25 284.259 558.588 284.878 559.176 285.612C559.936 286.512 560.592 287.016 561.132 287.119C561.7 287.236 562.224 287.076 562.714 286.667C563.19 286.259 563.449 285.831 563.459 285.364C563.473 284.867 563.341 284.328 563.027 283.739ZM573.727 277.384L570.964 274.524L571.66 278.448L573.727 277.384ZM575.374 279.12L572.062 280.804L572.4 282.598L569.425 284.11L568.165 272.88L571.345 271.255L579.691 278.878L576.648 280.434L575.374 279.12ZM588.237 268.095L589.05 273.805L589.845 273.688C590.525 273.604 591.001 273.454 591.27 273.264C591.53 273.055 591.707 272.788 591.814 272.369C591.931 271.98 591.931 271.373 591.81 270.526C591.654 269.422 591.359 268.683 590.947 268.332C590.527 267.982 589.893 267.856 589.051 267.982L588.237 268.095ZM584.68 266.183L589.482 265.492C590.428 265.366 591.197 265.375 591.814 265.551C592.42 265.714 592.977 266.023 593.436 266.451C593.893 266.891 594.254 267.42 594.495 268.007C594.77 268.644 594.955 269.316 595.043 270.005C595.215 271.114 595.215 272.009 595.033 272.646C594.882 273.271 594.598 273.857 594.2 274.362C593.798 274.835 593.352 275.19 592.857 275.389C592.254 275.667 591.616 275.862 590.961 275.968L586.149 276.645L584.68 266.183ZM599.071 264.133L607.798 264.78L607.636 267.031L602.172 266.623L602.045 268.301L607.113 268.675L606.93 270.82L601.889 270.46L601.741 272.523L607.362 272.94L607.186 275.323L598.291 274.667L599.071 264.133ZM612.517 265.367L615.659 266.243L613.487 273.928L618.393 275.314L617.677 277.804L609.625 275.524L612.517 265.367ZM630.357 277.099L631.033 277.537C631.553 277.882 631.993 278.028 632.313 277.993C632.473 277.982 632.628 277.931 632.764 277.847C632.9 277.762 633.013 277.645 633.093 277.507C633.266 277.243 633.337 276.925 633.293 276.612C633.229 276.302 632.94 275.986 632.43 275.65L631.65 275.124L630.357 277.099ZM630.097 271.53L634.641 274.527C635.625 275.173 636.203 275.903 636.381 276.69C636.571 277.488 636.381 278.325 635.796 279.191C635.229 280.071 634.493 280.587 633.621 280.737C632.739 280.878 631.773 280.606 630.671 279.881L629.177 278.889L627.03 282.162L624.29 280.348L630.097 271.53ZM641.569 287.652L643.411 284.127L639.913 286.019L641.569 287.652ZM640.452 289.753L637.8 287.147L636.204 288.023L633.828 285.688L638.712 283.432L644.093 280.945L646.621 283.446L642.025 293.781L639.595 291.369L640.452 289.753ZM650.273 294.34L651.018 295.517C651.107 295.635 651.268 295.863 651.601 296.173C651.754 296.323 651.957 296.412 652.171 296.422C652.392 296.448 652.615 296.393 652.797 296.266C653.077 296.086 653.233 295.863 653.283 295.576C653.321 295.303 653.175 294.894 652.846 294.399L652.091 293.193L650.273 294.34ZM643.203 294.967L652.116 289.277L655.042 293.863C655.585 294.709 655.929 295.405 656.095 295.945C656.222 296.481 656.173 297.043 655.957 297.55C655.741 298.085 655.345 298.528 654.787 298.894C654.282 299.214 653.797 299.394 653.297 299.394C652.822 299.423 652.337 299.302 651.861 299.101C651.512 298.887 651.189 298.634 650.896 298.348C650.989 298.737 651.048 299.053 651.037 299.272C650.991 299.519 650.929 299.763 650.851 300.002C650.772 300.262 650.665 300.512 650.533 300.75L648.808 303.737L646.808 300.619L648.603 297.419C648.843 296.991 648.96 296.685 648.96 296.471C648.97 296.183 648.925 295.911 648.735 295.667L648.593 295.425L644.967 297.735L643.203 294.967ZM655.699 309.207L658.869 306.814L654.906 307.034L655.699 309.207ZM653.775 310.623L652.505 307.126L650.701 307.252L649.549 304.115L660.849 304.247L662.07 307.583L653.49 314.937L652.314 311.707L653.775 310.623ZM658.835 321.869L661.011 321.582L661.641 326.622L657.168 327.162C656.413 326.286 655.836 325.502 655.527 324.787C655.183 324.078 654.963 323.217 654.837 322.21C654.675 320.965 654.757 319.924 655.105 319.087C655.419 318.251 655.978 317.555 656.761 317.005C657.551 316.485 658.482 316.14 659.565 316.009C660.707 315.859 661.74 315.975 662.641 316.349C663.544 316.709 664.269 317.317 664.833 318.173C665.268 318.85 665.557 319.779 665.694 320.985C665.856 322.137 665.856 323.017 665.704 323.616C665.59 324.201 665.314 324.741 664.906 325.176C664.478 325.645 663.946 326.009 663.352 326.237L662.402 323.187C662.78 322.998 663.058 322.756 663.225 322.409C663.397 322.079 663.441 321.66 663.397 321.203C663.279 320.483 662.985 319.949 662.447 319.589C661.893 319.229 661.078 319.116 660.01 319.249C658.874 319.389 658.105 319.715 657.658 320.187C657.238 320.683 657.081 321.319 657.159 322.079C657.199 322.439 657.305 322.775 657.443 323.086C657.595 323.416 657.815 323.752 658.119 324.171L659.115 324.034L658.835 321.869ZM665.529 337.725L665.157 340.963L658.905 340.258C658.306 340.193 657.722 340.027 657.179 339.766C656.652 339.516 656.19 339.148 655.827 338.692C655.469 338.236 655.224 337.772 655.107 337.306C654.954 336.63 654.915 335.871 655.017 334.981C655.087 334.475 655.186 333.916 655.307 333.318C655.45 332.719 655.66 332.233 655.925 331.854C656.2 331.459 656.542 331.115 656.935 330.837C657.395 330.55 657.816 330.37 658.237 330.297C658.924 330.166 659.536 330.123 660.051 330.201L666.313 330.915L665.941 334.145L659.536 333.409C658.953 333.347 658.492 333.449 658.129 333.736C657.777 334.027 657.565 334.436 657.508 334.996C657.444 335.569 657.552 336.022 657.835 336.367C658.111 336.717 658.541 336.927 659.115 337.014L665.529 337.725ZM655.797 349.759L659.781 349.901L656.565 347.556L655.797 349.759ZM653.434 349.639L654.64 346.132L653.164 345.076L654.262 341.92L662.955 349.143L661.759 352.522L650.494 352.799L651.601 349.56L653.434 349.639ZM659.271 359.373L657.432 362.5L653.268 362.514L655.261 366.172L653.434 369.261L650.22 362.601L646.408 360.355L648.083 357.529L651.891 359.791L659.271 359.373Z" fill="black"/>
        <path d="M670.009 330.003C670.009 368.693 638.657 400.048 599.986 400.048C561.304 400.048 529.953 368.692 529.953 330.004C529.953 291.342 561.303 259.992 599.985 259.992C638.657 259.992 670.008 291.342 670.008 330.002L670.009 330.003Z" stroke="black" stroke-width="1.475" stroke-miterlimit="10"/>
        <path d="M652.092 329.75C652.092 358.549 628.769 381.874 599.985 381.874C571.2 381.874 547.867 358.549 547.867 329.75C547.867 300.98 571.2 277.648 599.983 277.648C628.769 277.648 652.092 300.98 652.092 329.75Z" stroke="black" stroke-width="1.475" stroke-miterlimit="10"/>
        <path d="M599.99 311.016L604.367 323.546L617.611 323.842L607.057 331.868L610.894 344.566L599.99 337.018L589.082 344.566L592.9 331.868L582.33 323.842L595.6 323.546L599.99 311.016Z" fill="#FEDF00" stroke="black" stroke-width="0.602"/>
        <path d="M624.052 365.732C623.61 366.102 621.832 366.301 621.362 366.38C620.886 366.442 619.019 366.461 618.229 366.49C617.794 366.52 616.956 366.641 616.52 366.641C612.692 366.205 622.739 366.266 624.052 365.731M614.021 362.771C614.271 362.323 615.526 359.531 615.977 358.738C616.437 357.959 617.476 355.882 618.097 355.018C618.417 354.55 619.666 353.194 619.964 353.801C617.789 355.681 616.074 358.964 615.16 361.171C615.042 361.409 614.327 362.638 614.063 362.96C613.807 363.275 613.912 363.872 613.511 363.92C613.088 363.973 613.384 364.05 613.384 364.05C613.384 364.05 613.746 363.242 614.021 362.77V362.771ZM628.452 364.906C628.452 364.906 626.722 364.647 625.649 364.268C624.581 363.908 622.787 363.632 621.258 363.67C619.744 363.69 618.358 364.147 617.123 364.618C615.893 365.075 614.3 365.114 614.3 365.114C614.3 365.114 613.398 365.255 613.82 365.047C614.221 364.847 615.618 363.757 615.618 363.757L616.52 362.522C616.78 362.45 621.356 356.445 620.858 354.833C621.559 353.647 622.38 351.53 622.072 351.161C621.925 351.011 618.509 352.245 617.76 352.925C616.892 353.675 616.28 355.237 616.02 356.137C615.766 357.031 614.452 357.77 614.452 357.77C613.384 358.538 612.61 360.97 612.247 362.96C611.88 364.924 607.039 366.013 607.039 366.013C607.039 366.013 605.696 366.514 606.888 366.893C607.093 366.951 607.625 367.85 608.052 367.864C608.644 367.933 611.65 366.646 612.115 366.748C613.136 366.979 614.146 367.256 615.143 367.576C616.29 367.965 617.236 368.164 618.038 367.868C618.852 367.575 620.014 367.688 620.886 367.858C621.744 368.043 622.704 367.965 623.257 367.794C623.85 367.614 625.409 366.748 625.409 366.748C625.409 366.748 627.095 366.018 628.069 365.561C629.045 365.105 628.452 364.905 628.452 364.905" fill="#009B3A"/>
        <path d="M624.052 365.732C623.61 366.102 621.832 366.301 621.362 366.38C620.886 366.442 619.019 366.461 618.229 366.49C617.794 366.52 616.956 366.641 616.52 366.641C612.692 366.205 622.739 366.266 624.052 365.731M628.452 364.906C628.452 364.906 626.722 364.647 625.649 364.268C624.581 363.908 622.787 363.632 621.258 363.67C619.744 363.69 618.358 364.147 617.123 364.618C615.893 365.075 614.3 365.114 614.3 365.114C614.3 365.114 613.398 365.255 613.82 365.047C614.221 364.847 615.618 363.757 615.618 363.757L616.52 362.522C616.78 362.45 621.356 356.445 620.858 354.833C621.559 353.647 622.38 351.53 622.072 351.161C621.925 351.011 618.509 352.245 617.76 352.925C616.892 353.675 616.28 355.237 616.02 356.137C615.766 357.031 614.452 357.77 614.452 357.77C613.384 358.538 612.61 360.97 612.247 362.96C611.88 364.924 607.039 366.013 607.039 366.013C607.039 366.013 605.696 366.514 606.888 366.893C607.093 366.951 607.625 367.85 608.052 367.864C608.644 367.933 611.65 366.646 612.115 366.748C613.136 366.979 614.146 367.256 615.143 367.576C616.29 367.965 617.236 368.164 618.038 367.868C618.852 367.575 620.014 367.688 620.886 367.858C621.744 368.043 622.704 367.965 623.257 367.794C623.85 367.614 625.409 366.748 625.409 366.748C625.409 366.748 627.095 366.018 628.069 365.561C629.045 365.105 628.452 364.905 628.452 364.905M614.021 362.771C614.271 362.323 615.526 359.531 615.977 358.738C616.437 357.959 617.476 355.882 618.097 355.018C618.417 354.55 619.666 353.194 619.964 353.801C617.789 355.681 616.074 358.964 615.16 361.171C615.042 361.409 614.327 362.638 614.063 362.96C613.807 363.275 613.912 363.872 613.511 363.92C613.088 363.973 613.384 364.05 613.384 364.05C613.384 364.05 613.746 363.242 614.021 362.77V362.771Z" stroke="black" stroke-width="0.754"/>
        <path d="M615.299 370.742C615.299 370.742 608.634 367.255 608.276 367.172C608.066 367.143 605.252 365.592 603.965 365.192C603.034 364.891 601.75 364.812 601.289 364.842C600.192 364.919 598.4 365.403 598.4 365.403L600.056 366.08C600.056 366.08 601.61 366.843 602.37 367.252C603.457 367.826 603.506 368.525 603.506 368.525L609.541 371.18L610.765 372.06C610.765 372.06 611.879 370.523 615.299 370.742Z" fill="#009B3A" stroke="black" stroke-width="0.602"/>
        <path d="M622.002 356.902C624.098 355.032 625.123 352.374 626.848 350.902C627.128 351.102 627.128 351.436 626.786 352.025C626.46 352.605 626.026 352.805 625.836 353.107C625.484 353.579 624.434 354.451 624.15 354.975C623.898 355.471 623.572 356.165 622.657 356.693C621.747 357.237 622.033 358.102 621.957 358.465C621.884 358.865 620.482 359.869 619.805 361.11C619.676 362.404 619.618 361.861 618.833 362.321C620.261 360.168 621.012 358.781 622.002 356.901M617.291 362.818C617.156 363.101 613.022 365.448 614.315 365.1C615.6 364.762 619.42 363.383 620.505 362.9C621.832 362.321 622.628 361.105 623.625 360.117C624.642 359.107 627.788 356.1 628.332 354.941C628.864 353.747 629.348 352.087 627.215 348.359C627.215 348.359 626.884 349.072 626.089 349.769C625.303 350.482 624.131 351.271 624.131 351.271L622.763 352.564C622.763 352.564 617.932 361.439 617.291 362.819" fill="#009B3A"/>
        <path d="M622.002 356.902C624.098 355.032 625.123 352.374 626.848 350.902C627.128 351.102 627.128 351.436 626.786 352.025C626.46 352.605 626.026 352.805 625.836 353.107C625.484 353.579 624.434 354.451 624.15 354.975C623.898 355.471 623.572 356.165 622.657 356.693C621.747 357.237 622.033 358.102 621.957 358.465C621.884 358.865 620.482 359.869 619.805 361.11C619.676 362.404 619.618 361.861 618.833 362.321C620.261 360.168 621.012 358.781 622.002 356.901M617.291 362.818C617.156 363.101 613.022 365.448 614.315 365.1C615.6 364.762 619.42 363.383 620.505 362.9C621.832 362.321 622.628 361.105 623.625 360.117C624.642 359.107 627.788 356.1 628.332 354.941C628.864 353.747 629.348 352.087 627.215 348.359C627.215 348.359 626.884 349.072 626.089 349.769C625.303 350.482 624.131 351.271 624.131 351.271L622.763 352.564C622.763 352.564 617.932 361.439 617.291 362.819" stroke="black" stroke-width="0.794"/>
        <path d="M634.085 359.697C634.085 359.697 631.439 359.46 631.209 359.46C630.959 359.46 629.509 359.26 627.401 359.26C625.313 359.26 624.529 359.984 623.981 360.567C623.388 361.22 621.741 362.727 621.741 362.727L622.629 362.649C624.745 361.001 626.392 361.605 627.049 361.557C627.735 361.533 628.56 361.601 630.679 360.851C632.829 360.097 632.703 360.803 632.467 360.875C631.441 361.244 630.365 361.461 629.275 361.519C627.679 361.607 626.278 361.916 625.651 361.916C625.019 361.916 620.361 363.191 620.361 363.191C620.361 363.191 625.401 363.486 625.945 363.666C626.485 363.886 627.333 363.783 628.033 363.447C629.964 362.557 630.837 362.387 631.63 362.207C632.429 362.052 633.38 361.512 633.38 361.512C633.38 361.512 633.89 361.19 634.36 360.336C634.845 359.46 634.085 359.697 634.085 359.697ZM636.558 345.887C636.876 345.098 637.671 343.245 638.514 342.516C639.028 342.068 639.914 341.859 640.385 341.66C640.585 341.592 642.033 341.522 640.225 342.019C639.475 342.219 638.461 342.662 638.011 343.417C637.379 345.171 636.827 346.7 635.653 347.821C634.791 348.726 634.245 349.904 634.245 349.904L633.321 350.224C635.015 349.187 635.751 347.263 636.558 345.887ZM644.751 344.899C643.786 345.221 643.447 345.487 643.447 345.487C641.287 346.135 640.403 347.491 639.457 348.595C638.977 349.173 638.301 349.605 636.022 350.582C633.94 351.477 632.329 352.86 632.29 352.86C632.29 352.86 631.63 352.995 631.756 353.316C631.805 353.468 632.368 353.346 632.368 353.346C632.368 353.346 636.658 352.734 638.446 351.646C639.588 350.93 640.234 350.409 641.316 348.736C641.801 347.997 642.345 346.606 642.37 347.501C642.454 349.874 638.767 352.175 637.162 352.885C636.302 353.25 635.157 353.401 633.658 353.648C632.177 353.921 631.276 353.839 631.384 353.513C631.535 353.041 631.708 352.943 632.099 352.477C632.805 351.636 634.509 351.338 635.764 350.749C637.249 350.084 638.656 349.105 639.361 348.269C640.081 347.424 640.331 347.112 640.527 346.398C641.077 344.529 641.105 343.494 641.62 342.827C643.432 340.595 643.697 339.875 643.786 338.879C643.805 338.649 642.845 339.408 642.346 339.685C641.37 340.263 641.008 340.263 639.009 340.785C636.979 341.291 637.024 342.599 636.709 343.217C636.617 343.464 635.794 344.491 635.401 344.681C635.009 344.88 634.044 346.275 633.687 347.093C633.423 347.69 632.951 348.119 632.574 348.071C632.178 347.997 633.334 343.674 633.588 342.959C633.863 342.249 633.917 340.862 633.917 340.395C633.917 339.948 633.933 338.771 633.149 338.639C632.369 338.507 632.333 337.43 632.333 337.43C630.457 339.055 631.505 341.918 631.707 343.615C631.908 345.297 631.32 348.41 631.32 348.41C633.132 349.184 631.707 351.386 631.144 352.098C630.551 352.821 629.428 352.953 628.924 353.591C628.39 354.247 624.593 359.534 624.593 359.534L629.316 358.196C629.316 358.196 629.756 358.274 629.051 357.74C628.336 357.228 629.281 355.244 629.889 354.758C631.05 353.848 632.619 354.51 632.619 354.51C632.619 354.51 634.809 354.846 637.494 353.78C639.738 352.895 640.703 351.46 641.766 350.38C642.345 349.793 643.403 347.841 644.07 346.685C644.472 346.017 645.192 344.748 644.75 344.899" fill="#009B3A"/>
        <path d="M644.751 344.899C643.786 345.221 643.447 345.487 643.447 345.487C641.287 346.135 640.403 347.491 639.457 348.595C638.977 349.173 638.301 349.605 636.022 350.582C633.94 351.477 632.329 352.86 632.29 352.86C632.29 352.86 631.63 352.995 631.756 353.316C631.805 353.468 632.368 353.346 632.368 353.346C632.368 353.346 636.658 352.734 638.446 351.646C639.588 350.93 640.234 350.409 641.316 348.736C641.801 347.997 642.345 346.606 642.37 347.501C642.454 349.874 638.767 352.175 637.162 352.885C636.302 353.25 635.157 353.401 633.658 353.648C632.177 353.921 631.276 353.839 631.384 353.513C631.535 353.041 631.708 352.943 632.099 352.477C632.805 351.636 634.509 351.338 635.764 350.749C637.249 350.084 638.656 349.105 639.361 348.269C640.081 347.424 640.331 347.112 640.527 346.398C641.077 344.529 641.105 343.494 641.62 342.827C643.432 340.595 643.697 339.875 643.786 338.879C643.805 338.649 642.845 339.408 642.346 339.685C641.37 340.263 641.008 340.263 639.009 340.785C636.979 341.291 637.024 342.599 636.709 343.217C636.617 343.464 635.794 344.491 635.401 344.681C635.009 344.88 634.044 346.275 633.687 347.093C633.423 347.69 632.951 348.119 632.574 348.071C632.178 347.997 633.334 343.674 633.588 342.959C633.863 342.249 633.917 340.862 633.917 340.395C633.917 339.948 633.933 338.771 633.149 338.639C632.369 338.507 632.333 337.43 632.333 337.43C630.457 339.055 631.505 341.918 631.707 343.615C631.908 345.297 631.32 348.41 631.32 348.41C633.132 349.184 631.707 351.386 631.144 352.098C630.551 352.821 629.428 352.953 628.924 353.591C628.39 354.247 624.593 359.534 624.593 359.534L629.316 358.196C629.316 358.196 629.756 358.274 629.051 357.74C628.336 357.228 629.281 355.244 629.889 354.758C631.05 353.848 632.619 354.51 632.619 354.51C632.619 354.51 634.809 354.846 637.494 353.78C639.738 352.895 640.703 351.46 641.766 350.38C642.345 349.793 643.403 347.841 644.07 346.685C644.472 346.017 645.192 344.748 644.75 344.899M634.085 359.697C634.085 359.697 631.439 359.46 631.209 359.46C630.959 359.46 629.509 359.26 627.401 359.26C625.313 359.26 624.529 359.984 623.981 360.567C623.388 361.22 621.741 362.727 621.741 362.727L622.629 362.649C624.745 361.001 626.392 361.605 627.049 361.557C627.735 361.533 628.56 361.601 630.679 360.851C632.829 360.097 632.703 360.803 632.467 360.875C631.441 361.244 630.365 361.461 629.275 361.519C627.679 361.607 626.278 361.916 625.651 361.916C625.019 361.916 620.361 363.191 620.361 363.191C620.361 363.191 625.401 363.486 625.945 363.666C626.485 363.886 627.333 363.783 628.033 363.447C629.964 362.557 630.837 362.387 631.63 362.207C632.429 362.052 633.38 361.512 633.38 361.512C633.38 361.512 633.89 361.19 634.36 360.336C634.845 359.46 634.085 359.697 634.085 359.697ZM636.558 345.887C636.876 345.098 637.671 343.245 638.514 342.516C639.028 342.068 639.914 341.859 640.385 341.66C640.585 341.592 642.033 341.522 640.225 342.019C639.475 342.219 638.461 342.662 638.011 343.417C637.379 345.171 636.827 346.7 635.653 347.821C634.791 348.726 634.245 349.904 634.245 349.904L633.321 350.224C635.015 349.187 635.751 347.263 636.558 345.887Z" stroke="black" stroke-width="0.754"/>
        <path d="M631.359 357.594C631.719 357.448 631.773 357.383 632.434 356.662C633.084 355.942 632.511 354.726 631.505 354.775C631.013 354.808 630.49 354.694 629.523 355.995C628.589 357.297 629.97 357.773 630.495 357.827C630.719 357.839 631.015 357.741 631.359 357.594Z" fill="#009B3A" stroke="black" stroke-width="0.84"/>
        <path d="M628.917 349.36C628.291 350.407 627.957 351.609 628.449 351.98C628.559 352.041 628.995 352.424 629.363 352.424C629.725 352.424 630.753 351.931 631.338 351.027C631.925 350.151 632.405 349.189 631.205 348.591C630.117 348.052 629.369 348.556 628.917 349.359" fill="#009B3A"/>
        <path d="M628.917 349.36C628.291 350.407 627.957 351.609 628.449 351.98C628.559 352.041 628.995 352.424 629.363 352.424C629.725 352.424 630.753 351.931 631.338 351.027C631.925 350.151 632.405 349.189 631.205 348.591C630.117 348.052 629.369 348.556 628.917 349.359" stroke="black" stroke-width="0.858"/>
        <path d="M632.492 336.578C632.492 336.578 632.591 336.417 632.179 335.99C631.527 335.322 630.711 334.133 630.711 334.133C629.413 334.843 628.981 336.278 628.981 336.848C628.981 337.44 629.201 338.729 629.001 340.043C628.931 340.49 628.859 341.001 628.217 342.626C627.56 344.23 628.31 345.704 628.457 346.224C628.569 346.74 629.105 348.344 629.105 348.344C629.105 348.344 629.613 348.018 629.785 347.98C629.985 347.926 630.677 347.956 630.677 347.956C630.677 347.956 631.459 346.542 631.487 345.756C631.502 345.176 631.41 344.194 631.135 342.686C630.753 340.492 630.777 339.866 631.037 338.639C631.297 337.394 632.492 336.576 632.492 336.576" fill="#009B3A"/>
        <path d="M632.492 336.578C632.492 336.578 632.591 336.417 632.179 335.99C631.527 335.322 630.711 334.133 630.711 334.133C629.413 334.843 628.981 336.278 628.981 336.848C628.981 337.44 629.201 338.729 629.001 340.043C628.931 340.49 628.859 341.001 628.217 342.626C627.56 344.23 628.31 345.704 628.457 346.224C628.569 346.74 629.105 348.344 629.105 348.344C629.105 348.344 629.613 348.018 629.785 347.98C629.985 347.926 630.677 347.956 630.677 347.956C630.677 347.956 631.459 346.542 631.487 345.756C631.502 345.176 631.41 344.194 631.135 342.686C630.753 340.492 630.777 339.866 631.037 338.639C631.297 337.394 632.492 336.576 632.492 336.576" stroke="black" stroke-width="0.754"/>
        <path d="M634.429 338.77C634.429 338.77 635.166 338.594 635.537 337.926C636.005 337.12 635.882 336.264 635.882 336.264C634.74 334.051 633.206 335.837 633.206 335.837C631.832 338.647 634.428 338.771 634.428 338.771" fill="#009B3A"/>
        <path d="M634.429 338.77C634.429 338.77 635.166 338.594 635.537 337.926C636.005 337.12 635.882 336.264 635.882 336.264C634.74 334.051 633.206 335.837 633.206 335.837C631.832 338.647 634.428 338.771 634.428 338.771" stroke="black" stroke-width="0.828"/>
        <path d="M638.315 334.714C636.611 334.802 635.773 337.864 635.773 337.864C635.773 337.864 635.497 338.621 634.589 339.206C633.623 339.803 634.193 340.661 634.193 342.186C634.193 343.71 633.13 346.406 633.13 346.406L632.734 347.32C632.734 347.32 632.771 348.006 633.392 346.76C634.448 344.664 635.606 345.173 636.042 342.917C636.318 341.239 639.096 340.705 639.096 340.705L638.315 340.559C635.428 339.206 638.482 335.832 638.975 335.234C639.499 334.638 639.998 334.638 638.315 334.714Z" fill="#009B3A" stroke="black" stroke-width="0.984"/>
        <path d="M637.829 338.345C637.049 340.018 639.269 340.099 639.781 339.807C639.988 339.687 640.457 339.13 640.457 339.13C641.357 337.836 640.534 336.96 640.064 336.835C639.612 336.685 638.647 336.57 637.829 338.345Z" fill="#009B3A" stroke="black" stroke-width="0.838"/>
        <path d="M633.612 331.855C634.195 332.94 635.822 335.959 636.204 335.771C636.444 335.654 636.254 335.036 636.254 335.036C636.254 335.036 636.205 334.219 635.94 333.231C635.68 332.235 635.743 330.96 635.224 330.143C634.72 329.327 633.51 328.358 633.034 327.069C632.564 325.776 632.933 323.329 632.972 323.028C633.02 322.746 633.163 322.931 632.912 322.639C632.658 322.322 630.602 321.228 630.602 321.228C630.602 321.228 630.722 322.026 630.672 323.471C630.652 323.821 630.554 324.229 630.5 324.837C630.452 325.416 630.8 326.145 631.643 327.809C632.622 329.735 633.093 330.917 633.612 331.855ZM645.948 317.492C645.948 317.492 645.355 318.48 645.144 318.698C644.924 318.918 641.573 321.797 641.382 321.918C641.22 322.045 639.47 322.604 637.878 326.908C636.281 331.198 636.972 335.21 636.972 335.21L637.746 335.114L637.878 334.694C637.878 334.694 638.138 333.27 638.338 332.19C638.56 331.125 639.754 329.636 640.547 328.537C641.303 327.462 641.912 325.917 641.912 325.917C642.81 324.107 643.242 322.489 644.132 321.227C644.167 322.73 638.455 331.969 637.843 335.113L639.535 334.855C640.886 333.62 642.655 331.027 643.852 329.355C645.056 327.677 645.568 325.055 645.787 323.893C645.997 322.745 645.949 317.493 645.949 317.493" fill="#009B3A"/>
        <path d="M645.948 317.492C645.948 317.492 645.355 318.48 645.144 318.698C644.924 318.918 641.573 321.797 641.382 321.918C641.22 322.045 639.47 322.604 637.878 326.908C636.281 331.198 636.972 335.21 636.972 335.21L637.746 335.114L637.878 334.694C637.878 334.694 638.138 333.27 638.338 332.19C638.56 331.125 639.754 329.636 640.547 328.537C641.303 327.462 641.912 325.917 641.912 325.917C642.81 324.107 643.242 322.489 644.132 321.227C644.167 322.73 638.455 331.969 637.843 335.113L639.535 334.855C640.886 333.62 642.655 331.027 643.852 329.355C645.056 327.677 645.568 325.055 645.787 323.893C645.997 322.745 645.949 317.493 645.949 317.493M633.612 331.855C634.195 332.94 635.822 335.959 636.204 335.771C636.444 335.654 636.254 335.036 636.254 335.036C636.254 335.036 636.205 334.219 635.94 333.231C635.68 332.235 635.743 330.96 635.224 330.143C634.72 329.327 633.51 328.358 633.034 327.069C632.564 325.776 632.933 323.329 632.972 323.028C633.02 322.746 633.163 322.931 632.912 322.639C632.658 322.322 630.602 321.228 630.602 321.228C630.602 321.228 630.722 322.026 630.672 323.471C630.652 323.821 630.554 324.229 630.5 324.837C630.452 325.416 630.8 326.145 631.643 327.809C632.622 329.735 633.093 330.917 633.612 331.855Z" stroke="black" stroke-width="0.754"/>
        <path d="M634.559 318.446C633.696 317.648 633.025 317.409 633.025 317.409C633.025 317.409 633.231 318.975 633.231 319.929C633.231 320.886 633.315 322.492 633.265 323.349C633.231 324.203 632.805 325.619 633.412 327.005C634.035 328.372 634.735 329.068 635.23 329.928C635.681 330.77 636.507 335.145 636.507 335.145C636.507 335.145 636.205 329.229 636.465 327.555C636.705 325.911 636.784 323.348 636.417 322.064C636.034 320.774 635.401 319.263 634.559 318.446ZM638.502 312.67C638.762 312.164 639.37 311.118 639.624 309.527C639.717 308.852 639.78 307.757 639.756 306.999C639.737 306.492 639.536 305.613 639.756 305.554C639.952 305.506 639.789 305.828 639.9 306.578C639.954 306.845 639.77 307.586 639.736 308.534C639.691 309.292 639.661 309.926 639.323 310.952C639.029 311.856 639.295 312.86 639.114 313.142C638.919 313.428 638.399 314.513 638.399 314.513C638.399 314.513 638.081 315.389 638.135 316.186C638.164 317.002 638.213 317.884 638.213 317.884C638.213 317.884 638.59 317.184 639.433 317.067C639.433 317.067 639.624 315.699 639.624 315.272C639.624 314.843 640.173 312.042 640.452 311.186C640.834 309.932 641.104 307.748 640.497 305.213C640.329 304.528 640.207 302.383 640.207 302.383C640.207 302.383 639.399 303.03 638.919 305.476C638.771 306.22 639.085 308.214 638.962 310.34C638.914 311.512 637.789 316.263 637.637 316.56" fill="#009B3A"/>
        <path d="M638.502 312.67C638.762 312.164 639.37 311.118 639.624 309.527C639.717 308.852 639.78 307.757 639.756 306.999C639.737 306.492 639.536 305.613 639.756 305.554C639.952 305.506 639.789 305.828 639.9 306.578C639.954 306.845 639.77 307.586 639.736 308.534C639.691 309.292 639.661 309.926 639.323 310.952C639.029 311.856 639.295 312.86 639.114 313.142C638.919 313.428 638.399 314.513 638.399 314.513C638.399 314.513 638.081 315.389 638.135 316.186C638.164 317.002 638.213 317.884 638.213 317.884C638.213 317.884 638.59 317.184 639.433 317.067C639.433 317.067 639.624 315.699 639.624 315.272C639.624 314.843 640.173 312.042 640.452 311.186C640.834 309.932 641.104 307.748 640.497 305.213C640.329 304.528 640.207 302.383 640.207 302.383C640.207 302.383 639.399 303.03 638.919 305.476C638.771 306.22 639.085 308.214 638.962 310.34C638.914 311.512 637.789 316.263 637.637 316.56M634.559 318.446C633.696 317.648 633.025 317.409 633.025 317.409C633.025 317.409 633.231 318.975 633.231 319.929C633.231 320.886 633.315 322.492 633.265 323.349C633.231 324.203 632.805 325.619 633.412 327.005C634.035 328.372 634.735 329.068 635.23 329.928C635.681 330.77 636.507 335.145 636.507 335.145C636.507 335.145 636.205 329.229 636.465 327.555C636.705 325.911 636.784 323.348 636.417 322.064C636.034 320.774 635.401 319.263 634.559 318.446Z" stroke="black" stroke-width="0.754"/>
        <path d="M638.503 312.664C638.463 312.736 638.449 312.766 638.449 312.766C638.449 312.766 638.483 312.736 638.503 312.664Z" fill="#009B3A" stroke="black" stroke-width="0.754"/>
        <path d="M635.317 300.333C635.749 300.333 635.749 300.8 635.66 301.169C635.592 301.549 635.602 302.254 635.602 302.399C635.602 302.565 635.782 303.572 635.926 304.097C636.082 304.637 636.352 304.807 636.234 305.891C636.154 306.573 635.454 307.374 635.7 308.532C635.832 309.141 636.268 309.778 636.484 310.302C636.664 310.667 636.566 311.559 636.616 312.288C636.635 312.998 637.027 313.478 637.027 313.478C637.027 313.478 636.542 314.384 636.38 313.251C636.204 311.951 636.145 311.373 635.896 310.785C635.489 309.821 635.116 308.088 635.748 306.752C635.856 306.494 635.94 306.014 635.94 305.444C635.94 304.865 635.584 303.876 635.515 303.264C635.455 302.777 635.495 301.751 635.495 301.38M633.23 306.82C633.332 307.554 633.568 307.972 634.396 309.568C634.651 310.094 635.23 311.436 635.317 311.864C635.42 312.292 635.509 312.808 635.509 312.939C635.509 313.08 635.602 314.087 635.602 314.087V314.505C635.602 314.505 633.308 313.168 632.304 312.453C631.304 311.733 630.168 310.745 629.442 310.148C628.619 309.471 626.658 307.146 626.634 305.284L625.733 304.467C625.733 304.467 625.046 308.606 628.29 311.285C629.226 312.053 630.246 312.9 632.426 313.887C634.612 314.895 634.325 315.796 635.236 317.732C636.133 319.677 636.695 320.796 636.808 321.346C636.886 321.934 636.559 330.203 636.559 330.203L636.637 330.953C636.637 330.953 638.635 323.293 639.595 322.438C639.595 322.438 637.69 322.145 637.841 319.15L637.507 317.175C637.507 317.175 637.126 314.801 637.841 313.328C637.841 313.328 638.689 310.628 638.4 308.294C638.219 306.898 638.154 306.48 637.984 305.142C637.724 303.06 636.89 300.084 636.797 299.724C636.512 298.679 636.415 298.518 636.082 297.692C635.983 297.4 635.797 296.436 635.489 296.422C635.312 296.412 635.042 297.662 635.042 297.662C635.042 297.662 634.642 299.024 634.558 299.393C634.298 300.493 633.69 301.416 633.412 303.887C633.362 304.335 633.313 305.541 633.259 305.702C633.23 305.838 633.172 306.548 633.23 306.82Z" fill="#009B3A"/>
        <path d="M635.317 300.333C635.749 300.333 635.749 300.8 635.66 301.169C635.592 301.549 635.602 302.254 635.602 302.399C635.602 302.565 635.782 303.572 635.926 304.097C636.082 304.637 636.352 304.807 636.234 305.891C636.154 306.573 635.454 307.374 635.7 308.532C635.832 309.141 636.268 309.778 636.484 310.302C636.664 310.667 636.566 311.559 636.616 312.288C636.635 312.998 637.027 313.478 637.027 313.478C637.027 313.478 636.542 314.384 636.38 313.251C636.204 311.951 636.145 311.373 635.896 310.785C635.489 309.821 635.116 308.088 635.748 306.752C635.856 306.494 635.94 306.014 635.94 305.444C635.94 304.865 635.584 303.876 635.515 303.264C635.455 302.777 635.495 301.751 635.495 301.38M633.23 306.82C633.332 307.554 633.568 307.972 634.396 309.568C634.651 310.094 635.23 311.436 635.317 311.864C635.42 312.292 635.509 312.808 635.509 312.939C635.509 313.08 635.602 314.087 635.602 314.087V314.505C635.602 314.505 633.308 313.168 632.304 312.453C631.304 311.733 630.168 310.745 629.442 310.148C628.619 309.471 626.658 307.146 626.634 305.284L625.733 304.467C625.733 304.467 625.046 308.606 628.29 311.285C629.226 312.053 630.246 312.9 632.426 313.887C634.612 314.895 634.325 315.796 635.236 317.732C636.133 319.677 636.695 320.796 636.808 321.346C636.886 321.934 636.559 330.203 636.559 330.203L636.637 330.953C636.637 330.953 638.635 323.293 639.595 322.438C639.595 322.438 637.69 322.145 637.841 319.15L637.507 317.175C637.507 317.175 637.126 314.801 637.841 313.328C637.841 313.328 638.689 310.628 638.4 308.294C638.219 306.898 638.154 306.48 637.984 305.142C637.724 303.06 636.89 300.084 636.797 299.724C636.512 298.679 636.415 298.518 636.082 297.692C635.983 297.4 635.797 296.436 635.489 296.422C635.312 296.412 635.042 297.662 635.042 297.662C635.042 297.662 634.642 299.024 634.558 299.393C634.298 300.493 633.69 301.416 633.412 303.887C633.362 304.335 633.313 305.541 633.259 305.702C633.23 305.838 633.172 306.548 633.23 306.82Z" stroke="black" stroke-width="0.754"/>
        <path d="M634.933 317.276C634.933 317.276 634.6 316.536 634.261 316.157C633.581 315.355 632.665 314.674 630.058 313.4C627.461 312.106 626.774 309.98 625.451 309.105C624.844 308.686 623.668 308.487 623.668 308.487C623.668 308.487 624.824 310.078 625.098 310.627C625.451 311.327 625.535 311.804 626.965 313.137C628.386 314.475 630.121 314.942 631.238 315.273C632.816 315.763 634.933 317.276 634.933 317.276ZM626.748 304.985C626.818 305.195 627.488 307.481 628.894 309.257C631.044 311.975 635.185 313.917 635.185 313.917C634.798 312.225 634.123 310.269 633.589 309.403C631.706 306.363 626.734 304.873 626.734 304.873C626.734 304.873 626.646 304.757 626.748 304.985ZM632.684 306.267C633.798 303.827 630.472 301.497 629.534 299.797C629.881 299.521 630.293 300.245 630.674 300.727C631.219 301.451 632.753 303.547 632.753 303.547L633.228 301.315L629.267 297.711C629.219 298.235 627.995 298.666 627.995 298.666C627.402 302.002 632.685 306.266 632.685 306.266" fill="#009B3A"/>
        <path d="M632.684 306.267C633.798 303.827 630.472 301.497 629.534 299.797C629.881 299.521 630.293 300.245 630.674 300.727C631.219 301.451 632.753 303.547 632.753 303.547L633.228 301.315L629.267 297.711C629.219 298.235 627.995 298.666 627.995 298.666C627.402 302.002 632.685 306.266 632.685 306.266M634.933 317.276C634.933 317.276 634.6 316.536 634.261 316.157C633.581 315.355 632.665 314.674 630.058 313.4C627.461 312.106 626.774 309.98 625.451 309.105C624.844 308.686 623.668 308.487 623.668 308.487C623.668 308.487 624.824 310.078 625.098 310.627C625.451 311.327 625.535 311.804 626.965 313.137C628.386 314.475 630.121 314.942 631.238 315.273C632.816 315.763 634.933 317.276 634.933 317.276ZM626.748 304.985C626.818 305.195 627.488 307.481 628.894 309.257C631.044 311.975 635.185 313.917 635.185 313.917C634.798 312.225 634.123 310.269 633.589 309.403C631.706 306.363 626.734 304.873 626.734 304.873C626.734 304.873 626.646 304.757 626.748 304.985Z" stroke="black" stroke-width="0.754"/>
        <path d="M625.786 300.609C624.831 301.037 624.492 301.037 624.492 301.037L625.025 302.451L625.335 302.835C625.335 302.835 626.579 304.635 627.304 304.859C627.607 304.971 628.74 305.169 629.877 305.656C631.307 306.264 633.642 308.306 633.642 308.306C633.642 308.306 629.758 303.926 628.269 300.642L627.767 298.75L626.359 298.843C626.359 298.843 626.746 300.172 625.786 300.61" fill="#009B3A"/>
        <path d="M625.786 300.609C624.831 301.037 624.492 301.037 624.492 301.037L625.025 302.451L625.335 302.835C625.335 302.835 626.579 304.635 627.304 304.859C627.607 304.971 628.74 305.169 629.877 305.656C631.307 306.264 633.642 308.306 633.642 308.306C633.642 308.306 629.758 303.926 628.269 300.642L627.767 298.75L626.359 298.843C626.359 298.843 626.746 300.172 625.786 300.61" stroke="black" stroke-width="0.754"/>
        <path d="M611.251 297.809C611.903 298.396 612.611 298.921 613.363 299.375C614.22 299.891 616.69 301.344 618.538 301.695C618.97 301.763 621.29 302.055 621.29 302.055C621.383 301.038 622.486 300.95 622.486 300.95L619.199 300.59C616.548 300.394 614.531 299.286 612.961 297.512C615.067 298.789 618.095 300.8 620.549 300.692C630.624 299.702 617.513 299.452 616.376 298.723C615.17 297.979 614.142 296.743 614.142 296.743L611.188 296.611C611.188 296.611 609.736 296.52 611.251 297.809Z" fill="#009B3A" stroke="black" stroke-width="0.754"/>
        <path d="M623.114 303.549C623.766 303.501 624.222 303.379 624.369 302.665C624.501 301.867 624.198 301.288 623.237 301.078C622.703 300.946 621.767 300.918 621.385 301.867C620.969 302.839 622.482 303.463 622.482 303.463C622.482 303.463 622.771 303.589 623.114 303.549ZM624.244 297.773C623.391 297.773 623.102 298.469 623.284 299.825C623.509 301.193 625.601 300.595 625.601 300.595L625.988 300.395C625.988 300.395 626.273 300.175 626.115 299.087C625.968 297.973 625.102 297.773 624.244 297.773ZM627.669 298.733H627.636C627.62 298.743 627.669 298.733 627.669 298.733Z" fill="#009B3A" stroke="black" stroke-width="0.754"/>
        <path d="M627.635 298.732C627.659 298.722 627.718 298.692 627.939 298.63C628.374 298.465 628.815 297.418 628.815 297.418C629.035 296.004 628.023 295.654 628.023 295.654C626.316 295.314 626.272 296.811 626.272 296.811C625.802 298.761 627.384 298.742 627.634 298.731M620.039 292.034C620.134 292.682 621.054 293.62 621.197 293.781C621.363 293.926 622.54 295.153 622.937 295.701C623.333 296.252 624.653 298.744 624.653 298.744C624.653 298.744 624.883 298.706 624.981 298.516C625.211 298.128 624.097 295.108 623.985 294.9C623.577 293.983 622.911 293.299 622.24 292.584C622.084 292.483 621.534 291.777 620.932 291.019C622.125 292.545 625.182 296.884 626.083 298.813C626.083 298.813 625.974 296.757 625.861 295.653C625.48 292.433 624.641 291.436 624.372 290.97C623.897 290.1 622.692 289.254 621.828 288.956C620.967 288.644 619.947 288.216 618.855 287.866C617.727 287.522 618.595 288.538 619.011 289.414C619.531 290.45 619.947 291.379 620.041 292.035" fill="#009B3A"/>
        <path d="M627.635 298.732C627.659 298.722 627.718 298.692 627.939 298.63C628.374 298.465 628.815 297.418 628.815 297.418C629.035 296.004 628.023 295.654 628.023 295.654C626.316 295.314 626.272 296.811 626.272 296.811C625.802 298.761 627.384 298.742 627.634 298.731M620.039 292.034C620.134 292.682 621.054 293.62 621.197 293.781C621.363 293.926 622.54 295.153 622.937 295.701C623.333 296.252 624.653 298.744 624.653 298.744C624.653 298.744 624.883 298.706 624.981 298.516C625.211 298.128 624.097 295.108 623.985 294.9C623.577 293.983 622.911 293.299 622.24 292.584C622.084 292.483 621.534 291.777 620.932 291.019C622.125 292.545 625.182 296.884 626.083 298.813C626.083 298.813 625.974 296.757 625.861 295.653C625.48 292.433 624.641 291.436 624.372 290.97C623.897 290.1 622.692 289.254 621.828 288.956C620.967 288.644 619.947 288.216 618.855 287.866C617.727 287.522 618.595 288.538 619.011 289.414C619.531 290.45 619.947 291.379 620.041 292.035" stroke="black" stroke-width="0.754"/>
        <path d="M615.835 297.325C616.948 298.268 617.447 298.925 619.755 299.265C622.082 299.63 622.278 299.475 622.278 299.475C622.278 299.475 623.485 298.892 622.872 298.381C619.452 296.877 616.214 295.087 614.57 293.074C614.57 293.074 614.855 292.797 616.04 293.984C616.727 294.68 617.188 295.029 617.609 295.356C618.853 296.226 619.392 296.474 620.633 297.15C621.293 297.51 622.945 297.898 622.945 297.898C622.945 297.898 623.18 297.398 623.39 297.339C623.592 297.291 623.263 296.506 621.827 295.344C621.028 294.684 620.323 293.918 619.73 293.067C619.73 293.067 618.03 292.695 616.188 292.388C614.815 292.17 612.233 290.166 612.278 290.71C612.325 291.27 612.665 293.006 613.361 294.11C614.061 295.219 614.728 296.352 615.835 297.325Z" fill="#009B3A" stroke="black" stroke-width="0.754"/>
        <path d="M596.61 366.915C595.602 367.212 588.038 370.052 588.038 370.052L585.926 370.898C588.842 370.242 591.076 371.711 591.076 371.711L599.501 367.811C599.501 367.811 599.477 367.683 599.267 367.532C599.046 367.382 597.63 366.608 596.61 366.915Z" fill="#009B3A" stroke="black" stroke-width="0.602"/>
        <path d="M585.606 371.154C585.55 371.202 585.493 371.402 585.64 371.466C586.06 371.699 585.947 371.791 587.856 372.02C589.781 372.229 591.036 371.864 591.365 371.5C591.751 371.077 586.597 370.289 585.606 371.154Z" fill="#009B3A" stroke="black" stroke-width="0.644"/>
        <path d="M573.504 343.944L573.154 341.58C573.154 341.58 572.714 335.188 571.988 333.906C571.849 333.622 571.912 332.958 571.451 332.947C570.569 332.881 570.569 334.96 570.462 336.844C569.028 346.344 576.605 353.598 576.605 353.598L573.504 343.944Z" fill="#009B3A" stroke="black" stroke-width="0.836"/>
        <path d="M611 372.088C611 372.088 610.205 371.911 610.708 371.29C611.19 370.7 612.623 370.384 612.91 370.384C613.192 370.372 613.996 370.442 614.594 370.609C615.198 370.758 616.032 371.29 615.788 371.676C615.533 372.043 614.717 372.501 613.601 372.501C612.644 372.501 612.154 372.477 611.732 372.357C611.324 372.202 611 372.088 611 372.088Z" fill="#009B3A" stroke="black" stroke-width="0.77"/>
        <path d="M602.785 367.572C602.785 367.572 600.184 366.376 597.719 365.17C594.469 363.583 590.564 361.38 587.845 357.338C584.44 352.334 581.479 349.654 580.764 349.115C580.028 348.575 579.922 348.375 579.652 348.755C579.407 349.085 579.578 349.372 579.784 349.722C580.484 350.861 582.205 353 582.822 354.149C583.885 356.201 586.086 358.442 586.066 359.771C586.066 359.956 585.424 359.639 585.424 359.639C585.424 359.639 580.274 357.875 578.188 351.635C576.668 347.111 577.314 345.782 576.961 343.522C576.359 339.504 576.236 339.178 574.247 334.674C574.193 334.562 573.031 332.68 572.875 333.098C572.659 333.638 573.071 335.652 573.071 335.652L573.282 337.972C573.282 337.972 573.114 343.122 573.114 343.434C573.114 343.746 571.817 346.96 577.328 352.364C577.328 352.364 577.412 353.282 576.672 352.474C576.148 351.896 572.203 348.866 571.003 343.882C569.767 338.896 569.587 333.906 570.523 331.834C571.37 329.962 573.071 325.384 572.346 321.386C572.262 320.969 572.144 319.742 571.88 320.064C571.768 320.22 571.272 322.244 570.973 322.944C570.557 323.902 569.91 324.844 569.71 325.506C569.322 326.629 567.421 328.366 567.793 331.561C568.214 335.233 568.454 335.807 568.896 337.116C569.047 337.592 569.416 338.808 569.176 338.93C568.955 339.047 568.176 337.476 568.176 337.476C568.176 337.476 564.686 330.618 566.838 325.054C569.014 319.514 574.472 314.261 574.472 314.261C574.472 314.261 578.906 310.584 579.809 309.728C580.162 309.398 580.078 309.15 579.96 309.188C578.858 309.466 570.326 311.231 567.328 321.396C567.328 321.396 567.172 321.824 566.951 321.718C566.676 321.595 566.951 321.118 566.951 321.118C566.951 321.118 568.828 313.912 574.094 310.643C579.842 307.058 579.167 307.583 581.068 306.455C582.264 305.711 583.346 304.715 584.684 302.501C584.821 302.254 585.364 300.965 585.292 300.745C585.232 300.527 584.974 300.828 584.852 301.193C584.852 301.193 583.224 303.707 580.788 304.553C578.344 305.4 576.358 304.193 573.904 306.907C571.444 309.636 569.489 313.415 569.489 313.415C569.489 313.415 568.847 314.393 568.705 314.363C568.435 314.281 568.837 313.323 568.837 313.323C568.837 313.323 572.12 306.358 574.757 304.943C577.397 303.517 579.749 302.15 581.249 300.993C583.073 299.563 586.213 296.062 587.345 294.856C587.585 294.598 589.271 292.89 589.643 292.336C589.868 292.034 590.403 291.596 590.315 291.52C590.075 291.34 588.476 292.108 588.476 292.108C588.476 292.108 579.781 294.504 574.372 302.675C574.122 303.054 573.527 303.825 573.208 304.151C572.63 304.75 572.341 305.748 572.341 305.748C571.988 305.456 575.399 301.193 575.399 301.193L575.996 298.435C575.996 298.435 577.006 294.292 579.128 291.367C579.338 291.101 580.592 289.836 580.804 289.573C581.224 289.117 580.004 289.973 580.22 289.782C580.22 289.782 572.11 295.604 572.11 302.939C572.11 304.256 571.292 305.459 570.16 307.097C568.837 308.999 568.396 310.167 567.823 312.997C567.584 314.187 567.336 315.375 567.078 316.561C567.078 316.561 567.156 317.608 566.818 317.53C566.465 317.452 566.588 316.586 566.588 316.586C566.588 316.586 567.416 311.119 568.004 309.436C568.577 307.802 568.954 306.689 568.954 306.689C568.954 306.689 568.616 302.579 569.528 300.326C570.302 298.362 572.262 295.775 572.566 295.128C572.698 294.846 573.605 293.003 573.859 290.902C573.894 290.62 573.673 290.854 573.306 291.674C572.414 293.684 571.669 294.209 570.204 296.1C570.204 296.1 566.446 298.824 565.084 306.926C565.084 306.926 565.039 309.946 564.58 314.68C564.246 318.148 564.53 321.396 564.922 323.352C565.172 324.548 565.648 324.558 565.354 324.703C565.171 324.796 565.47 324.719 565.044 323.815C564.524 322.73 564.126 321.061 564.126 318.755C564.126 314.528 564.493 311.135 564.493 311.135C564.493 311.135 564.769 304.305 561.937 301.226C561.8 301.066 562.433 302.608 562.717 304.145C563.065 306.052 562.433 308.698 562.247 309.728C562.066 310.764 560.178 315.278 560.845 319.514C560.845 319.514 562.441 326.698 564.5 330.18C564.5 330.18 565.78 331.68 564.648 330.274C563.526 328.868 561.222 323.278 561.022 322.802C560.845 322.345 559.194 318.866 557.64 317.452C556.836 316.702 554.627 315.376 554.627 315.376C554.627 315.376 553.427 314.461 554.337 315.676C555.057 316.636 556.024 318.356 556.483 319.106C557.441 320.654 558.292 322.266 559.032 323.929C559.772 325.555 561.492 330.336 561.492 330.336L562.592 333.368C562.592 333.368 564.437 334.392 565.442 335.51C566.264 336.415 567.97 338.492 569.386 342.188C570.023 343.823 571.294 345.32 571.294 345.32C571.294 345.32 571.024 345.839 569.892 343.88C568.776 341.894 567.682 338.17 564.992 335.273C562.948 333.049 557.449 330.808 557.449 330.808C557.449 330.808 560.982 336.965 561.859 338.064C563.344 339.824 565.49 342.295 566.044 342.948C566.617 343.614 569.94 347.718 570.43 348.376C571.204 349.402 571.714 349.854 572.12 350.272C572.996 351.205 575.593 352.908 575.795 353.176C575.833 353.448 575.885 353.224 575.665 353.063C574.513 352.376 573.138 351.292 571.717 350.368C570.301 349.429 564.833 347.095 561.149 342.018C560.276 340.516 559.86 339.918 559.566 340.073C559.115 340.312 562.046 350.009 568.073 353.093C568.073 353.093 574.722 356.05 576.197 356.94C577.006 357.426 578.637 358.146 579.392 358.754C579.823 359.11 579 359.09 578.946 359.08C575.413 358.804 570.342 358.336 567.229 356.53C567.229 356.53 565.892 355.592 566.989 356.911C567.862 357.931 569.518 360.446 572.713 361.862C575.913 363.266 580.563 364.085 582.264 364.172C583.934 364.265 589.892 364.294 591.034 364.664C592.151 365.042 594.053 366.26 595.141 366.611C596.13 366.931 599.114 368.075 599.114 368.075C599.114 368.075 600.012 368.567 600.492 368.741C601.031 368.956 603.266 368.936 603.424 368.518C603.574 368.143 602.785 367.572 602.785 367.572Z" fill="#009B3A" stroke="black" stroke-width="0.602"/>
        <path d="M641.424 317.071C642.099 317.318 642.398 319.322 642.398 319.322C642.398 319.322 642.339 318.175 642.339 317.61C642.339 317.04 642.061 314.906 642.061 314.906L641.462 315.334C640.747 315.904 640.35 316.91 640.35 316.91C640.35 316.91 640.761 316.842 641.424 317.07" fill="#009B3A"/>
        <path d="M641.424 317.071C642.099 317.318 642.398 319.322 642.398 319.322C642.398 319.322 642.339 318.175 642.339 317.61C642.339 317.04 642.061 314.906 642.061 314.906L641.462 315.334C640.747 315.904 640.35 316.91 640.35 316.91C640.35 316.91 640.761 316.842 641.424 317.07" stroke="black" stroke-width="0.754"/>
    </g>
    <defs>
        <clipPath id="clip0_1954_834">
            <rect width="1200" height="660" fill="white"/>
        </clipPath>
    </defs>
</svg>
