<svg xmlns="http://www.w3.org/2000/svg" width="660" height="580" fill="none" viewBox="0 0 660 580">
  <g id="rhode_island" clip-path="url(#clip0_1030_1699)">
    <path id="1" fill="#EEE" d="M0 0h660v580H0V0Z"/>
    <g id="Group">
      <path id="Vector" fill="#003271" stroke="#fff" stroke-linejoin="round" d="M232.37 378.367s14.01 12.8 27.72 14.62c13.71 1.83 35.3 8.27 35.3 8.27s.57 19.72-.1 21.43c-.67 1.71-1.1 2.16-3.07 2.23-6.39.23-21.95.25-38.88-3.69-22.13-5.15-43.84-18.47-43.84-18.47 5.06-2.08 17.3-3.91 25.2-5.87l-2.33-18.52Zm195.26 0s-14.01 12.8-27.72 14.62c-13.71 1.83-35.3 8.27-35.3 8.27s-.57 19.72.1 21.43c.67 1.71 1.1 2.16 3.07 2.23 6.39.23 21.95.25 38.88-3.69 22.13-5.15 43.84-18.47 43.84-18.47-5.06-2.08-17.3-3.91-25.2-5.87l2.33-18.52Z"/>
      <path id="Vector_2" fill="#003271" stroke="#fff" stroke-linejoin="round" d="M277.26 407.987c-2.44-.76-3.86.83-3.86.83v-34.16s1.48-1.34 4.06-.21c9.1 3.97 32.56 12.02 52.54 12.02 19.98 0 43.44-8.05 52.54-12.02 2.58-1.13 4.06.2 4.06.2v34.17s-1.42-1.6-3.86-.83c-9.7 3.01-35.06 10.5-52.74 10.5s-43.04-7.49-52.74-10.49v-.01Z"/>
      <g id="Vector_3">
        <path fill="#003271" d="M386.6 408.82c1.5 4-22.18 7.7-21.89 13.87Zm-113.2 0c-1.5 4 22.18 7.7 21.89 13.87Z"/>
        <path stroke="#fff" stroke-linejoin="round" d="M386.6 408.82c1.5 4-22.18 7.7-21.89 13.87m-91.31-13.87c-1.5 4 22.18 7.7 21.89 13.87"/>
      </g>
    </g>
    <g id="2">
      <g id="Group_2">
        <path id="Vector_4" fill="#DDD" stroke="#DDD" stroke-width="1.5" d="M325.78 185.52s-1.06 118.22-1.06 126.82c0 8.6 0 20.42-9.5 18.27-9.48-2.15-21.09-2.15-37.97-13.97-16.87-11.82-16.87-13.97-16.87-13.97l15.82-5.38s-15.82-3.22-26.37-10.74c-10.55-7.53-18.99-13.98-18.99-13.98s-1.05 16.13 4.22 27.95c5.28 11.82 15.82 22.57 15.82 22.57v-13.97s14.77 13.97 20.05 17.2c5.27 3.22 26.37 11.82 34.8 17.2 8.44 5.36 23.904 20.41 23.904 20.41s16.186-17.2 26.736-21.5c10.55-4.3 24.26-10.74 30.59-15.04 6.33-4.3 23.2-20.42 23.2-20.42v18.27s11.6-13.97 14.77-23.65c3.17-9.67 4.22-26.87 4.22-26.87s-8.44 6.45-15.82 9.68c-7.39 3.22-28.48 11.82-28.48 11.82l16.87 4.3s-27.42 21.5-36.91 25.8c-17.286 8.311-29.54 6.44-29.54-4.3s1.06-136.5 1.06-136.5h-10.55Zm1.05-39.77h7.38v32.24h-7.38v-32.24Z"/>
        <path id="Vector_5" fill="#DDD" stroke="#fff" stroke-width="1.5" d="M274.1 177.997s29.53-6.45 56.95-6.45 55.9 6.44 55.9 6.44v11.83s-37.97 5.37-60.12 5.37-52.738-6.45-52.738-6.45l.008-10.74Z"/>
        <path id="Vector_6" fill="#DDD" fill-rule="evenodd" stroke="#fff" stroke-width="1.5" d="M347.92 172.084c0-4.9-1.89-9.332-4.945-12.54a16.895 16.895 0 0 0-5.366-3.798c-1.01-.448-.83-.62-1.93-.855l.033 6.142c1.324.653 1.632 1.304 2.634 2.471 2.004 2.335 3.244 5.56 3.244 9.12 0 7.12-4.96 11.732-11.07 11.732s-11.07-4.612-11.07-11.732c0-3.56 1.24-6.785 3.244-9.12 1.002-1.167 1.31-1.818 2.634-2.47l.032-6.143c-1.099.236-.92.407-1.93.855a16.89 16.89 0 0 0-5.365 3.798c-3.055 3.208-4.945 7.64-4.945 12.54 0 9.8 8.032 17.74 17.4 17.74 9.368 0 17.4-7.94 17.4-17.74Z" clip-rule="evenodd"/>
      </g>
      <g id="Group_3">
        <path id="Vector_7" fill="#DDD" d="m330.001 45 23.52 72.36-61.6-44.72h76.16l-61.6 44.72L330.001 45Z"/>
        <g id="b">
          <path id="Vector_8" fill="#DDD" d="m443.849 73.063-12.799 75.002-33.764-68.223 67.438 35.39-75.326 10.974 54.451-53.144Z"/>
          <path id="Vector_9" fill="#DDD" d="m531.621 150.814-46.186 60.466 1.805-76.1 43.269 62.675-71.798-25.286 72.91-21.755Z"/>
          <path id="Vector_10" fill="#DDD" d="m573.216 260.482-68.999 32.067 36.972-66.539 9.176 75.605-51.816-55.763 74.667 14.63Z"/>
          <path id="Vector_11" fill="#DDD" d="m559.078 376.886-75.998-3.668 63.658-41.738-27.007 71.21-19.97-73.455 59.317 47.651Z"/>
          <path id="Vector_12" fill="#DDD" d="m492.471 473.385-65.59-38.564 75.763-7.377-57.005 50.505 16.452-74.322 30.38 69.758Z"/>
          <path id="Vector_13" fill="#DDD" d="m388.649 527.881-40.158-64.626 70.515 28.674-73.946 18.231 49.104-58.165-5.515 75.886Z"/>
        </g>
        <g id="b_2">
          <path id="Vector_14" fill="#DDD" d="m216.152 73.063 12.799 75.002 33.764-68.223-67.438 35.39 75.326 10.974-54.451-53.144Z"/>
          <path id="Vector_15" fill="#DDD" d="m128.38 150.814 46.186 60.466-1.805-76.1-43.269 62.675 71.798-25.286-72.91-21.755Z"/>
          <path id="Vector_16" fill="#DDD" d="m86.785 260.482 68.999 32.067-36.972-66.539-9.176 75.605 51.816-55.763-74.667 14.63Z"/>
          <path id="Vector_17" fill="#DDD" d="m100.923 376.886 75.998-3.668-63.658-41.738 27.007 71.21 19.97-73.455-59.317 47.651Z"/>
          <path id="Vector_18" fill="#DDD" d="m167.53 473.385 65.59-38.564-75.763-7.377 57.005 50.505-16.452-74.322-30.38 69.758Z"/>
          <path id="Vector_19" fill="#DDD" d="m271.352 527.881 40.158-64.626-70.515 28.674 73.946 18.231-49.104-58.165 5.515 75.886Z"/>
        </g>
      </g>
    </g>
    <path id="Vector_20" fill="#FEC500" d="M363.248 385.218c5.637-1.534 11.224-3.258 16.789-5.04.074 1.725.134 3.455.178 5.189a714.09 714.09 0 0 1-10.606 3.196c.01 1.276.016 2.553.018 3.832 3.293-.947 6.586-1.93 9.888-2.917.018 1.66.022 3.324.014 4.993-3.312.955-6.613 1.918-9.91 2.85-.008 1.59-.022 3.181-.04 4.772 3.648-1.016 7.301-2.06 10.97-3.074-.04 1.866-.098 3.737-.174 5.613-5.747 1.514-11.46 3.146-17.2 4.652.085-8.039.109-16.06.073-24.065m-25.996 5.129c3.606-.332 7.194-.874 10.759-1.552 2.333-.444 4.064-.191 5.213.834a4.31 4.31 0 0 1 1.015 1.35c.474.96.711 2.197.709 3.711-.002 1.493-.242 2.839-.72 4.04a8.609 8.609 0 0 1-1.164 2.07c-1.237 1.634-3.142 2.73-5.72 3.185-1.168.207-2.339.396-3.515.568-.014 2.957-.04 5.917-.08 8.879-2.161.303-4.33.544-6.505.71.106-7.943.108-15.874.008-23.795Zm6.584 9.364c.526-.079 1.052-.161 1.577-.247 1.238-.202 2.106-.607 2.603-1.189a3.093 3.093 0 0 0 .745-2.053c-.002-.751-.22-1.347-.656-1.788-.436-.442-1.252-.55-2.455-.346-.612.103-1.224.201-1.836.295.013 1.775.02 3.551.022 5.328Zm-36.93.117c-.019-3.9.917-6.716 2.81-8.504 1.902-1.796 4.538-2.364 7.95-1.896 3.49.479 6.188 1.743 8.096 3.962 1.908 2.208 2.88 5.168 2.881 8.984.001 2.769-.424 5.04-1.265 6.792-.83 1.74-2.033 3.072-3.595 3.951-1.553.87-3.486 1.187-5.799.897-2.347-.294-4.3-1.035-5.845-2.155-1.538-1.12-2.793-2.717-3.76-4.765-.967-2.048-1.458-4.479-1.472-7.266m6.403 1.284c.009 2.4.41 4.195 1.194 5.365.795 1.171 1.867 1.857 3.218 2.031 1.388.18 2.465-.219 3.226-1.166.761-.948 1.139-2.754 1.135-5.405-.003-2.234-.406-3.894-1.211-5.003-.796-1.118-1.877-1.757-3.243-1.941-1.308-.177-2.355.183-3.146 1.105-.79.92-1.181 2.591-1.173 5.014Zm-34.187-21.324c2.052.737 4.114 1.447 6.185 2.131a460.655 460.655 0 0 0-.124 8.395c2.302.73 4.607 1.432 6.915 2.105-.003-2.793.007-5.58.03-8.36 2.098.623 4.206 1.215 6.324 1.776-.004 7.944.04 15.921.13 23.93a295.56 295.56 0 0 1-6.35-1.707 965.744 965.744 0 0 1-.112-9.748 380.398 380.398 0 0 1-6.934-2.068c.022 3.264.077 6.541.166 9.832-2.094-.618-4.185-1.243-6.273-1.865a279.733 279.733 0 0 1 .044-24.421"/>
  </g>
  <defs>
    <clipPath id="clip0_1030_1699">
      <path fill="#fff" d="M0 0h660v580H0z"/>
    </clipPath>
  </defs>
</svg>
