<svg width="1080" height="720" viewBox="0 0 1080 720" fill="none"
    xmlns="http://www.w3.org/2000/svg">
    <g clip-path="url(#clip0_2052_209)">
        <path id="1" d="M0 0H1080V360H0V0Z" fill="#EDEDF0"/>
        <path id="2" d="M0 360H1080V540H0V360Z" fill="#DDDDDD"/>
        <path id="3" d="M0 540H1080V720H0V540Z" fill="#EDEDF0"/>
        <g id="4">
            <path class="only-fill" d="M923.648 183.486L1002.6 188.1L924.085 192.689C924.161 191.735 924.199 190.77 924.199 189.797C924.199 187.644 924.01 185.535 923.648 183.486Z" fill="#DDDDDD"/>
            <path class="only-fill" d="M923.549 182.952L998.646 158.051L920.628 174.145C921.961 176.903 922.953 179.857 923.549 182.952Z" fill="#DDDDDD"/>
            <path class="only-fill" d="M920.483 173.849L987.048 130.05L915.28 166.076C917.333 168.418 919.087 171.029 920.483 173.849Z" fill="#DDDDDD"/>
            <path class="only-fill" d="M915.22 166.008L968.596 106.005L908.416 159.539L944.551 87.554L900.279 154.84L916.551 75.956L891.201 152.408L886.502 72L881.803 152.408L856.453 75.956L872.725 154.84L828.453 87.554L864.588 159.539L804.408 106.005L857.942 166.185L785.956 130.05L853.242 174.323L774.358 158.051L850.81 183.401L770.402 188.1L850.81 192.799L774.358 218.149L853.242 201.877L785.956 246.15L857.942 210.015L804.408 270.195L864.411 216.818C856.923 210.221 852.199 200.561 852.199 189.797C852.199 169.915 868.317 153.797 888.199 153.797C898.963 153.797 908.623 158.521 915.22 166.008Z" fill="#DDDDDD"/>
            <path class="only-fill" d="M864.479 216.878L828.453 288.646L872.251 222.081C869.432 220.685 866.821 218.931 864.479 216.878Z" fill="#DDDDDD"/>
            <path class="only-fill" d="M872.547 222.225L856.453 300.244L881.354 225.147C878.259 224.551 875.305 223.559 872.547 222.225Z" fill="#DDDDDD"/>
            <path class="only-fill" d="M881.888 225.246L886.502 304.2L891.091 225.682C890.137 225.758 889.173 225.797 888.199 225.797C886.046 225.797 883.937 225.608 881.888 225.246Z" fill="#DDDDDD"/>
            <path class="only-fill" d="M891.807 225.618L916.551 300.244L900.732 223.555C897.907 224.604 894.915 225.309 891.807 225.618Z" fill="#DDDDDD"/>
            <path class="only-fill" d="M901.523 223.251L944.551 288.646L909.501 218.821C907.058 220.617 904.381 222.112 901.523 223.251Z" fill="#DDDDDD"/>
            <path class="only-fill" d="M910.228 218.272L968.596 270.195L916.674 211.827C914.806 214.238 912.639 216.405 910.228 218.272Z" fill="#DDDDDD"/>
            <path class="only-fill" d="M917.223 211.1L987.048 246.15L921.653 203.121C920.514 205.979 919.019 208.657 917.223 211.1Z" fill="#DDDDDD"/>
            <path class="only-fill" d="M921.958 202.33L998.646 218.149L924.021 193.405C923.711 196.513 923.007 199.505 921.958 202.33Z" fill="#DDDDDD"/>
            <path class="only-fill" d="M922.499 189.8C922.499 208.743 907.143 224.1 888.199 224.1C869.256 224.1 853.899 208.743 853.899 189.8C853.899 170.857 869.256 155.5 888.199 155.5C907.143 155.5 922.499 170.857 922.499 189.8Z" fill="#DDDDDD"/>
        </g>
    </g>
    <defs>
        <clipPath id="clip0_2052_209">
            <rect width="1080" height="720" fill="white"/>
        </clipPath>
    </defs>
</svg>
