<svg width="900" height="600" viewBox="0 0 900 600" fill="none"
    xmlns="http://www.w3.org/2000/svg">
    <g clip-path="url(#clip0_1824_107)">
        <path id="1" d="M0 0H900V600H0V0Z" fill="#EDEDF0"/>
        <g id="2">
        <path  fill-rule="evenodd" clip-rule="evenodd" d="M562.26 412.5C562.25 412.504 562.232 412.526 562.223 412.532C554.978 414.101 555.203 420.441 559.854 423.235C483.347 423.235 365.94 422.139 340.761 422.139C326.674 422.139 282.108 420.72 281.25 420.72C290.808 432.518 304.653 434.922 322.77 435.163L559.012 434.808C555.827 439.582 559.302 447.274 561.8 448.671C561.853 448.701 561.938 448.745 561.991 448.768C562.087 448.812 562.19 448.844 562.297 448.864C562.327 448.87 562.383 448.861 562.411 448.864C565.378 449.454 566.683 447.641 567.682 446.317C572.495 446.674 599.58 447.004 602.059 446.285C602.067 446.282 602.089 446.255 602.096 446.253C603.773 448.336 605.437 450.303 608.629 449.961C614.213 448.95 618.611 448.438 618.75 438.871C618.75 438.871 618.18 422.571 605.495 423.591C602.495 423.974 594.075 424.688 594.075 424.688C584.331 423.709 577.183 423.609 566.23 423.269C567.241 422.186 569.026 417.799 566.84 416.209C566.27 415.809 565.421 415.586 564.243 415.661H564.206C564.189 415.661 564.145 415.663 564.129 415.661C564.121 415.659 564.099 415.631 564.092 415.629C564.062 415.62 564.007 415.612 563.978 415.597C563.908 415.55 563.844 415.496 563.788 415.437C563.774 415.422 563.724 415.387 563.711 415.372C563.157 414.692 562.855 413.022 562.488 412.6L562.451 412.568C562.446 412.565 562.417 412.538 562.413 412.536C562.389 412.524 562.363 412.513 562.337 412.504H562.261L562.26 412.5ZM567.455 435.809C567.468 435.804 567.48 435.814 567.493 435.809C578.654 436.269 589.141 435.897 600.303 436.357C602.073 437.625 601.188 440.533 600.036 441.063C599.974 441.089 599.911 441.111 599.846 441.128C599.805 441.137 599.744 441.127 599.693 441.128C599.642 441.128 599.591 441.137 599.54 441.128L590.182 440.903C590.18 440.75 590.155 440.598 590.106 440.451C589.246 438.299 583.016 438.444 581.55 440.129C581.523 440.161 581.5 440.192 581.474 440.225C581.444 440.266 581.418 440.309 581.397 440.355C581.369 440.407 581.344 440.461 581.321 440.515C581.298 440.579 581.292 440.674 581.283 440.741C581.273 440.827 581.237 440.917 581.245 440.999C576.356 441.496 571.935 440.861 567.036 440.709C565.61 439.199 565.766 436.466 567.457 435.809H567.455Z" fill="#ddd"/>
        <path d="M602.161 258.64C603.705 259.398 607.765 254.8 607.621 249.025C608.068 246.063 606.473 235.122 602.424 233.267C601.95 233.112 601.449 233.061 600.954 233.117C598.838 233.4 596.836 235.2 597.754 238.148C597.174 239.877 600.626 245.935 601.521 249.151C602.326 251.44 600.483 257.911 602.159 258.591L602.161 258.64ZM282.526 165.744C287.483 167.92 296.779 167.006 296.386 159.636C296.386 158.998 296.23 156.794 296.159 156.199C295.655 155.115 294.718 154.704 293.824 154.845L293.834 154.847C292.93 154.997 292.076 155.683 291.762 156.789C291.563 157.526 292.102 158.745 291.386 159.113C290.975 159.539 289.4 159.263 289.465 157.207C289.465 156.57 288.947 155.881 288.636 155.471C288.325 155.259 288.112 155.188 287.544 155.188C286.857 155.206 286.871 155.399 286.49 155.917C286.32 156.414 286.107 156.995 286.107 157.617C286.023 158.339 285.71 158.589 285.127 158.694C284.483 158.694 284.625 158.75 284.111 158.411C283.813 158.056 283.438 157.985 283.438 157.439C283.438 156.943 283.282 155.994 283.098 155.632C282.821 155.278 282.396 155.135 281.893 154.994C279.186 155.004 278.988 157.864 279.143 158.949C278.946 159.161 278.839 164.221 282.534 165.646L282.526 165.744ZM242.794 165.461C243.554 167.205 242.041 172.821 243.623 173.34C245.077 173.906 247.08 169.449 247.841 165.322C248.26 163.061 247.941 155.325 242.231 153.728C241.933 153.672 241.635 153.578 241.326 153.578C239.142 153.522 236.732 154.768 237.672 157.185C237.126 158.503 241.947 162.954 242.794 165.413V165.461ZM417.849 167.538C420.695 160.448 420.709 157.426 420.899 154.418C420.46 152.13 419.376 151.024 418.151 151.116C416.925 151.266 415.568 152.526 414.461 155.071C413.51 157.013 412.351 167.115 412.539 167.115C411.781 170.127 415.951 171.395 417.849 167.541V167.538ZM382.481 165.561C383.888 167.417 385.274 167.226 388.093 165.915C389.712 164.816 390.259 164.107 390.804 162.265C391.477 159.175 387.274 163.725 386.736 160.281C385.797 157.085 388.48 155.774 391.029 152.679C391.087 151.226 391.114 150.036 390.089 150C389.621 149.988 388.923 150.212 387.942 150.758C385.739 152.112 381.372 156.314 381.238 161.136C381.103 163.857 380.55 163.843 382.48 165.58L382.481 165.561ZM237.941 214.376C252.41 215.658 244.417 191.835 249.655 187.51C250.645 185.377 252.48 185.334 252.63 188.007V208.243C252.495 214.819 257.195 216.777 260.84 218.136C264.634 217.853 267.15 217.924 268.637 221.361L270.445 256.383C270.445 256.383 279.215 258.7 279.635 236.702C280.052 223.782 276.842 212.94 278.731 210.427C278.796 207.961 282.233 207.833 284.606 209.037C288.388 211.497 290.066 214.522 295.942 213.304C304.885 211.036 310.272 207.032 310.404 200.704C309.887 194.687 309.127 188.669 306.3 182.654C306.69 181.563 304.588 178.721 304.981 177.622C306.588 179.947 309.018 179.748 309.576 177.622C308.054 173.002 305.684 168.57 301.856 166.654C298.692 164.082 294.06 164.62 292.365 169.985C291.578 176.158 294.793 183.477 299.671 189.457C300.707 191.788 302.157 195.679 301.516 199.177C298.919 200.543 296.346 199.969 294.171 197.858C294.171 197.858 287.054 192.948 287.054 191.856C288.941 180.709 287.457 179.434 286.416 176.339C285.685 172.073 283.489 170.719 281.709 167.801C279.928 166.065 277.513 166.065 276.361 167.801C273.215 172.825 274.691 183.628 276.964 188.454C278.606 192.897 281.124 195.674 279.939 195.674C278.962 198.182 276.927 197.601 275.457 194.702C273.36 188.707 272.933 179.777 272.933 175.75C272.31 170.761 271.603 160.095 268.037 157.389C267.087 156.191 265.963 155.78 264.874 155.894C263.474 156.044 262.155 157.093 261.522 158.495C261.289 163.449 261.26 168.404 261.862 172.97C264.308 180.978 265.082 188.023 266.269 196.224C266.595 207.211 259.385 200.972 259.715 195.516C261.381 188.443 260.92 177.304 259.453 174.481C258.28 171.661 256.923 170.959 254.067 171.427C251.8 171.277 245.949 177.181 244.313 186.908C244.313 186.908 242.95 191.904 242.354 196.35C241.554 201.374 237.94 204.934 235.424 195.64C233.249 188.901 231.911 172.281 228.268 176.17C227.224 189.143 225.986 211.973 237.947 214.316L237.941 214.376ZM331.158 192.361C331.164 192.364 331.188 192.359 331.196 192.361C331.203 192.364 331.226 192.398 331.233 192.398C331.24 192.401 331.261 192.398 331.271 192.398L331.308 192.436C332.251 193.002 343.848 193.002 345.131 192.473C345.141 192.467 345.161 192.436 345.168 192.436C345.175 192.43 345.202 192.438 345.206 192.436C345.209 192.434 345.204 192.398 345.206 192.398C349.19 191.044 368.104 171.121 368.104 171.121C367.124 170.348 366.221 169.774 365.242 169.001C364.192 168.158 364.298 167.344 365.242 166.501C369.926 163.991 368.442 158.46 365.995 155.947C363.967 155.111 362.058 154.828 360.346 154.905C358.773 154.953 357.23 155.345 355.826 156.052C352.541 158.951 351.77 163.6 354.358 166.5C356.876 167.592 359.379 169.93 357.709 171.22C350.579 178.229 332.054 189.943 331.12 192.08C331.111 192.101 331.098 192.121 331.083 192.137C331.079 192.153 331.083 192.193 331.083 192.212V192.249C331.093 192.269 331.105 192.287 331.12 192.324L331.158 192.362V192.361ZM359.221 161.131C359.3 161.115 359.369 161.094 359.448 161.094C360.605 160.944 362.001 161.966 362.688 163.347C363.418 164.821 363.048 166.232 361.858 166.508C360.667 166.791 359.125 165.799 358.394 164.325C357.664 162.852 358.033 161.398 359.223 161.129L359.221 161.131ZM385.381 204.054C391.166 206.258 394.838 196.111 397.207 184.999C398.827 181.874 400.065 181.527 400.897 183.121C400.685 197.901 402.047 201.198 406.17 205.683C415.367 212.223 422.975 206.511 423.571 205.966L430.727 199.368C432.321 197.823 434.427 197.731 436.677 199.085C438.865 200.913 438.585 204.081 443.269 206.271C447.211 207.724 455.629 206.625 457.581 203.493C460.208 199.34 460.845 197.916 462.063 196.342C463.937 194.039 467.148 195.067 467.148 195.847C466.85 197.129 464.963 198.391 466.244 200.708C468.474 202.246 468.992 201.205 470.312 200.92C474.978 198.865 478.484 189.535 478.484 189.535C478.689 186.055 476.542 186.325 475.17 187.033C473.379 188.045 473.27 188.387 471.479 189.393C469.197 189.747 464.778 191.093 462.591 187.968C460.357 184.219 460.343 178.99 458.636 175.195C458.636 174.912 455.651 169.242 458.409 168.881C459.801 169.164 462.795 169.83 463.267 167.527C464.727 165.281 460.117 158.907 456.977 155.691C454.252 152.934 450.489 152.601 446.847 155.408C444.296 157.569 444.673 159.993 444.172 162.282C443.527 164.912 443.648 168.171 446.545 171.654C449.092 176.274 453.72 182.222 452.195 190.604C452.195 190.604 449.505 194.588 444.775 194.077C442.805 193.652 439.592 192.894 437.883 181.27C436.591 172.471 438.203 160.142 434.153 154.37C433.25 152.195 432.453 150.076 431.141 150.239C430.354 150.295 429.389 151.251 428.053 153.506C427.095 155.844 422.961 159.388 425.943 166.696C428.384 171.324 429.386 178.858 428.279 187.244C426.588 189.624 426.202 190.454 423.986 192.828C420.873 195.918 417.498 195.124 414.91 193.975C412.49 192.474 410.591 191.701 409.486 186.931C409.685 179.323 410.159 166.873 408.658 164.231C406.433 160.141 402.768 161.608 401.201 162.841C393.671 169.183 389.952 179.898 387.679 188.421C385.59 194.622 383.366 192.836 381.804 190.328C378 187.039 377.733 161.357 373.141 165.58C365.786 184.951 377.361 206.171 385.381 204.108V204.054ZM355.077 190.25C350.694 192.433 348.997 198.92 351.727 202.711C354.277 206.042 358.307 204.831 358.844 204.831C363.139 205.327 365.699 197.403 365.699 197.403C365.699 197.403 365.826 195.17 360.727 199.38C358.581 199.805 358.289 199.025 357.752 197.927C357.305 195.865 357.404 193.774 358.425 191.719C358.9 190.485 358.427 189.699 357.409 189.599C356.806 189.544 355.996 189.749 355.074 190.237L355.077 190.25ZM638.402 289.153C637.462 288.161 635.343 288.727 633.919 288.656C633.246 288.656 631.007 288.302 632.075 286.537C632.958 285.41 633.284 284.737 633.883 283.341C634.549 281.981 633.961 281.066 631.547 280.322C630.318 280.11 629.467 280.039 628.572 280.039C627.677 280.077 626.736 280.189 625.372 280.322C623.895 280.605 623.38 281.207 623.112 282.852C623.218 285.354 624.878 285.226 626.576 286.218C627.561 287.373 628.201 288.415 626.498 290.308L622.129 293.78C621.369 294.97 620.894 296.813 623.221 297.387C627.517 298.499 637.457 292.547 637.457 292.419C639.067 291.307 638.533 289.195 638.399 289.195L638.402 289.153ZM669.25 184.589C668.924 182.378 667.864 177.302 668.27 176.639C668.922 175.086 672.247 176.789 673.43 175.009C675.164 173.373 664.842 161.197 661.227 155.989C660.504 154.685 660.059 153.607 659.419 153.664C658.923 153.701 658.314 154.451 657.385 156.264C655.15 159.644 654.372 165.681 655.276 171.017C660.658 204.564 664.656 237.049 665.483 266.783C665.023 269.603 664.888 271.105 663.449 274.661C660.273 278.409 656.771 283.118 653.469 285.386C650.169 287.654 643.148 289.816 640.852 291.495C633.568 295.378 633.52 299.837 639.42 299.999C649.57 298.915 661.579 298.149 669.851 286.636C672.065 283.412 674.671 274.666 674.786 269.316C675.56 237.941 674.353 207.264 669.248 184.589H669.25ZM229.902 246.109L267.564 229.449C265.505 226.615 267.437 224.064 259.694 223.859C247.792 224.07 230.362 238.236 229.902 246.107V246.109ZM236.611 282.063C233.48 287.923 232.177 283.912 231.904 280.638C231.429 274.43 232.074 268.713 232.808 264.186C233.198 261.862 233.184 261.054 232.887 261.061C232.589 261.071 231.987 261.897 231.192 262.818C224.112 273.215 223.482 288.732 227.388 293.363C229.465 295.553 232.887 296.509 235.41 295.829C239.859 294.049 241.813 285.747 240.757 282.709C239.273 280.562 238.096 280.229 236.614 282.072L236.611 282.063ZM325.393 266.439C330.55 250.615 325.286 238.678 327.013 237.214C327.028 237.202 327.073 237.195 327.093 237.176C327.107 237.166 327.15 237.158 327.171 237.139C327.188 237.131 327.227 237.101 327.25 237.101C327.323 237.079 327.399 237.067 327.476 237.064C333.84 243.378 342.768 237.864 344.725 235.674C345.565 234.584 347.664 233.874 349.131 235.249C354.095 238.537 362.794 236.985 364.611 231.189C365.661 225.519 366.547 219.681 366.757 213.626C363.523 214.554 360.916 215.248 359.865 216.262C359.617 216.545 359.433 216.759 359.375 217.099L358.547 222.13C358.521 222.28 358.469 222.413 358.399 222.556C358.251 222.768 358.038 222.981 357.797 223.053C356.654 223.619 354.66 223.336 354.557 221.77C353.022 215.328 346.691 214.487 342.845 224.477C340.258 226.412 335.539 226.787 335.048 223.911C335.672 217.207 332.738 216.31 326.876 219.468L321.227 180.247C323.675 180.191 325.919 181.813 328.157 179.233C325.747 172.288 320.612 158.17 317.725 156.844C317.703 156.835 317.673 156.826 317.646 156.807C317.516 156.658 317.38 156.516 317.236 156.381C317.166 156.342 317.104 156.292 317.052 156.231C316.999 156.194 316.917 156.175 316.868 156.081C316.748 156.025 316.62 155.931 316.492 155.931C316.237 155.875 315.968 155.875 315.701 155.875H315.703C314.985 155.931 314.191 156.301 313.255 156.513C310.18 157.42 307.3 159.865 308.208 164.635L317.85 220.9C318.41 223.28 316.24 226.427 313.444 226.108C308.69 223.146 307.518 217.131 299.397 217.397C293.523 217.453 286.825 223.349 285.989 229.024C285.009 233.531 284.661 238.421 285.989 242.353C290.106 246.923 295.061 246.442 299.397 245.407C302.962 244.053 305.894 240.815 307.155 241.587C307.159 241.591 307.189 241.584 307.193 241.587C307.196 241.593 307.189 241.625 307.193 241.625C307.97 242.879 307.121 253.468 290.394 261.652C280.116 265.904 271.934 266.917 267.533 259.186C264.806 254.353 267.731 235.954 261.018 240.199C241.162 287.368 307.536 293.953 314.95 242.14C315.432 240.681 316.893 239.213 317.926 239.575C318.372 239.787 318.793 240.319 318.943 241.375C317.404 288.286 267.595 291.501 259.136 276.745C257.039 273.265 256.407 265.523 256.198 260.883C255.816 258.077 255.05 256.453 254.164 255.816C252.156 254.426 249.444 258.07 248.854 264.389C248.014 269.478 248.252 270.866 248.252 275.775C250.908 312.826 315.006 296.906 325.422 266.299L325.393 266.439ZM300.633 234.379C300.628 234.385 300.636 234.416 300.633 234.416C300.623 234.433 300.606 234.472 300.595 234.472C300.099 235.039 298.341 234.827 297.093 234.827C295.581 234.77 294.837 234.544 293.929 233.402C293.497 232.14 294.816 230.9 295.399 229.965C295.405 229.955 295.431 229.945 295.437 229.927C295.515 229.871 295.6 229.715 295.699 229.644C296.152 229.218 296.932 228.907 297.77 228.808C297.933 228.789 298.09 228.77 298.26 228.77C299.426 228.782 300.657 229.267 301.309 230.818C301.79 232.024 301.535 233.377 300.635 234.362L300.633 234.379ZM512.575 198.998C517.532 201.173 526.867 200.217 526.472 192.854C526.472 192.216 526.281 190.012 526.21 189.417C525.707 188.326 524.77 187.922 523.875 188.063C522.981 188.213 522.118 188.92 521.804 190.047C521.605 190.784 522.186 191.967 521.464 192.337C521.052 192.762 519.44 192.487 519.504 190.458C519.504 189.821 518.994 189.098 518.676 188.686C518.364 188.475 518.152 188.403 517.584 188.403C516.897 188.423 516.911 188.615 516.53 189.133C516.367 189.63 516.154 190.216 516.154 190.833C516.07 191.555 515.793 191.805 515.214 191.911C514.568 191.911 514.682 191.968 514.159 191.628C513.861 191.274 513.485 191.203 513.485 190.658C513.485 190.16 513.33 189.218 513.145 188.85C512.876 188.495 512.444 188.424 511.941 188.283C509.233 188.293 509.073 191.125 509.229 192.203C509.031 192.413 508.889 197.524 512.58 198.934L512.575 198.998ZM592.5 217.986C592.584 213.685 593.038 207.97 593.29 204.413C593.397 203.067 593.736 201.593 595.134 201.253C596.529 200.898 598.948 202.543 598.976 201.103C598.721 198.367 598.129 194.335 596.452 192.426C595.594 191.25 594.185 190.618 592.724 190.548C590.29 190.398 587.699 191.894 587.036 194.956C587.046 196.763 587.922 197.756 587.751 199.392C587.496 200.328 586.448 200.945 583.947 199.818C584.344 199.463 582.327 196.863 582.327 196.863C580.376 195.772 577.771 196.919 576.075 197.939C575.142 199.499 574.453 202.184 575.515 204.912C578.315 209.682 587.921 217.815 592.502 217.894L592.5 217.986ZM561.612 277.33C565.066 277.35 569.058 270.05 570.764 262.823C571.698 252.867 570.14 246.808 569.86 240.956C569.576 235.103 562.672 187.626 561.273 183.198C559.586 174.827 567.99 182.091 567.073 177.231C564.168 171.093 556.915 162.144 554.645 156.821C553.792 155.391 553.686 154.072 552.988 154.186C552.57 154.261 551.95 154.823 550.803 156.234C547.967 164.776 546.971 171.754 548.053 177.059C555.335 212.084 562.797 243.993 561.612 277.335V277.33ZM535.702 270.182C527.731 277.852 516.238 287.306 503.727 291.668C502.381 293.058 507.073 298.997 513.143 298.991C523.293 297.908 532.213 292.656 540.486 278.826C542.699 275.601 546.586 268.696 546.701 263.344C547.475 231.97 544.994 207.576 539.885 184.9C539.559 182.689 539.778 180.088 540.182 179.415C540.834 178.691 543.068 179.432 544.25 177.643C545.984 176.013 539.618 162.476 536.002 157.267C535.279 155.962 534.834 154.922 534.194 154.978C533.698 155.016 533.089 155.73 532.159 157.551C529.923 160.931 528.405 166.802 528.58 172.303C533.421 203.197 534.907 230.232 538.071 261.126C538.327 264.116 537.851 268.454 535.699 270.186L535.702 270.182ZM556.542 257.522C556.662 257.097 556.642 257.097 556.542 257.522ZM515.922 170.424C517.691 174.988 514.572 179.34 516.412 179.97C518.105 180.678 520.462 175.25 521.346 170.25C522.367 166.204 519.233 157.906 514.792 156.194C514.452 156.119 514.091 156.119 513.738 156.044C511.198 155.969 508.388 157.454 509.482 160.381C508.844 161.982 514.939 167.418 515.922 170.377V170.424ZM605.428 217.802C605.29 217.783 605.149 217.796 605.018 217.84L581.479 233.424C579.201 235.295 580.341 241.853 581.479 241.096C583.126 241.662 606.251 227.236 605.809 225.545C606.817 225.601 607.302 218.115 605.434 217.805L605.428 217.802ZM589.258 175.66C596.241 183.581 603.072 191.635 609.747 199.817C611.2 217.052 611.587 232.849 613.061 250.111C612.856 257.495 610.388 267.3 608.053 268.231C608.053 268.231 604.486 270.115 602.103 268.019C600.37 267.381 593.44 257.362 593.44 257.362C589.893 254.364 587.528 255.222 585.004 257.362C578.044 263.556 574.895 275.16 570.166 283.152C568.947 284.937 565.511 286.447 561.693 283.002C553.835 273.099 556.064 259.823 556.553 257.509L556.454 257.935C547.814 266.908 551.641 281.776 553.592 284.975C556.44 290.225 558.744 293.588 564.288 296.185C569.338 299.608 573.266 297.475 575.435 295.079C580.515 290.224 580.584 277.819 582.968 275.364C584.641 270.85 588.833 271.629 590.878 273.628C592.858 276.25 595.198 277.965 598.108 279.389C602.848 283.237 608.503 283.939 614.078 280.432C617.886 278.462 620.358 275.896 622.589 270.851C624.983 264.955 623.799 234.041 623.262 216.843L633.883 231.039C635.423 246.126 636.123 261.002 635.616 275.259C635.254 278.093 646.349 266.795 646.275 261.444V248.566C651.658 256.486 656.867 264.538 661.791 272.69C664.842 271.209 663.797 255.276 661.87 253.08C656.713 245.106 650.11 236.49 644.997 229.824C643.986 221.4 642.609 211.484 641.984 208.441C641.01 203.701 640.032 196.576 638.556 190.948C638.152 188.751 636.929 181.731 637.315 181.057C637.917 179.491 640.187 181.113 641.307 179.285C642.982 177.597 635.502 159.739 631.702 154.64C630.337 152.351 627.868 153.146 624.81 156.865C621.974 159.31 623.002 164.889 624.095 170.194C626.907 183.715 629.415 197.487 631.401 211.222L618.821 194.214L618.261 191.535C618.261 191.252 617.659 180.475 617.131 177.895C617.032 176.848 616.771 176.549 617.961 176.685C619.223 177.661 619.394 177.712 620.183 178.038C621.459 178.25 622.572 176.266 621.803 174.431L609.977 154.299C609.503 153.874 608.971 153.414 608.357 153.329C607.748 153.253 607.075 153.539 606.323 154.539C604.885 155.702 603.339 157.806 603.385 160.506C603.733 165.268 604.655 170.146 605.005 174.911L605.381 176.818C604.967 176.32 604.526 175.845 604.062 175.393C593.987 165.637 608.682 173.799 602.141 166.263C596.602 160.658 594.981 158.874 590.24 155.503C587.863 154.086 586.426 151.379 585.645 155.929C585.347 159.975 585.014 164.665 585.312 168.079C585.295 169.97 587.426 173.542 589.266 175.645L589.258 175.66ZM647.678 183.485C648.483 185.775 646.452 193.149 648.124 193.829C649.667 194.586 651.838 188.733 652.644 183.311C653.09 180.349 650.705 169.929 646.654 168.074C646.336 168.018 646.01 167.924 645.676 167.924C643.36 167.868 640.835 169.469 641.834 172.644C641.253 174.373 646.775 180.258 647.672 183.473L647.678 183.485ZM472.08 290.263C472.08 290.475 474.02 291.972 476.298 290.689C481.106 288.996 484.102 287.351 490.835 286.005C492.603 285.967 492.5 281.611 489.705 281.462C486.059 281.674 482.692 281.817 479.045 284.446C476.802 284.871 476.417 283.666 475.919 282.539C475.352 279.74 477.202 277.763 476.823 275.665C476.922 275.74 475.691 274.737 474.111 274.659C473.537 274.639 472.965 274.734 472.455 275.013C472.355 275.013 467.385 278.103 465.789 280.25C464.814 280.959 464.925 281.525 465.229 282.716C465.989 284.325 467.326 283.822 468.845 283.07C470.86 282.787 471.835 284.034 471.669 286.266C470.739 289.044 472.08 290.086 472.08 290.263ZM494.812 246.031L494.849 245.993C494.853 245.99 494.883 245.956 494.887 245.956C494.89 245.952 494.917 245.937 494.924 245.918V245.843C494.928 245.724 494.916 245.605 494.887 245.489L492.702 244.306L449.654 244.094C449.122 243.882 448.726 243.668 448.487 243.597C448.459 243.573 448.433 243.548 448.407 243.522L448.37 243.485L448.333 243.447L448.295 243.391L448.258 243.353V243.316L448.22 243.278V242.941L448.258 242.903L448.295 242.847C448.494 242.564 449.014 242.35 449.651 242.117C459.931 240.827 478.192 238.071 479.405 221.883C479.207 213.46 475.491 207.931 464.266 206.4C456.017 206.966 450.136 214.342 451.083 222.438C450.693 224.613 451.884 228.901 449.463 229.375C433.641 230.709 416.373 239.834 415.793 246.383H415.755L415.717 246.42L415.638 246.458H415.559C415.522 246.47 415.481 246.476 415.447 246.495H415.221C415.171 246.485 415.121 246.476 415.073 246.458C414.044 246.175 412.719 244.63 412.927 242.433C412.325 231.129 408.332 218.337 402.08 208.486C399.849 206.431 398.866 205.602 398.239 205.503C398.218 205.501 398.184 205.503 398.159 205.503H397.926C397.886 205.515 397.85 205.534 397.818 205.56C397.787 205.586 397.761 205.617 397.742 205.653C397.702 205.672 397.664 205.69 397.63 205.709C397.148 206.063 396.574 206.815 395.295 207.651C393.138 209.911 392.752 211.485 392.884 216.016C393.004 216.441 396.978 226.66 400.341 233.821C402.609 241.254 404.706 249.768 403.166 257.806C397.856 268.434 387.182 277.966 376.879 283.144C371.629 284.689 367.097 284.164 365.882 283.106L365.846 283.069C362.833 281.197 362.764 277.889 362.949 277.307V277.27L362.986 277.232C371.681 271.648 381.611 267.144 389.386 252.068C391.683 246.306 392.384 242.853 390.102 233.949C389.213 230.633 388.113 227.904 385.658 225.549L385.695 225.512C387.175 224.874 391.015 227.468 391.608 225.866C390.699 221.614 387.576 215.909 384.038 212.989C380.941 210.395 377.57 210.097 374.735 212.492C371.542 214.129 370.862 220.012 372.4 225.161C374.107 229.037 378.72 229.711 382.004 237.517V237.555C382.072 237.981 383.131 243.387 381.48 245.538C380.137 249.393 362.9 261.921 361.669 262.684C361.655 262.698 361.569 262.74 361.554 262.759L361.517 262.797C361.504 262.807 361.492 262.815 361.479 262.834C361.467 262.846 361.455 262.853 361.442 262.872H361.362C361.35 262.86 361.337 262.852 361.325 262.834V262.797C361.309 262.774 361.296 262.749 361.288 262.722C361.235 262.367 361.328 261.615 361.288 260.326C361.174 257.981 362.228 252.664 362.153 251.752V251.715L362.116 251.677V251.64H362.078C356.378 255.027 354.496 265.432 353.454 268.51C339.022 277.701 322.622 284.538 313.194 293.848C308.278 300.921 347.064 285.724 351.572 283.886C351.612 283.905 351.651 283.961 351.685 284.036C352.541 284.9 352.615 287.934 355.187 290.662C359.217 295.693 367.788 298.794 376.127 296.87C390.112 292.214 398.168 283.428 406.371 273.684C407.543 272.111 409.381 270.877 411.078 272.09C416.714 283.72 432.965 291.994 453.975 292.847C458.836 287.397 456.512 284.721 454.535 283.579C453.933 283.153 444.086 279.667 442.559 276.151C441.596 272.877 443.934 269.971 448.622 267.786C462.112 266.284 475.372 264.611 488.206 260.812C488.333 256.837 490.876 250.897 492.575 248.316C493.755 246.524 494.513 246.346 494.797 246.091L494.812 246.031ZM459.307 221.119C459.337 220.969 459.385 220.907 459.455 220.764C459.479 220.727 459.502 220.708 459.534 220.614L459.571 220.577C459.627 220.502 459.691 220.427 459.755 220.365C460.024 220.153 460.414 220.011 460.848 219.939C461.785 219.864 463.015 220.151 464.198 220.776C465.913 221.691 466.971 223.072 466.835 224.078C466.83 224.097 466.841 224.134 466.835 224.228C466.829 224.247 466.769 224.284 466.756 224.378L466.719 224.528C466.712 224.544 466.689 224.584 466.681 224.584C466.669 224.603 466.657 224.622 466.644 224.659C466.58 224.734 466.501 224.871 466.417 224.942C465.594 225.652 463.691 225.509 461.897 224.588C460.199 223.68 459.149 222.292 459.262 221.293C459.266 221.273 459.294 221.236 459.299 221.143L459.307 221.119ZM442.097 260.855C437.477 262.315 433.041 263.455 433.021 269.602C433.624 272.649 433.496 274.243 432.984 274.98C432.939 275.037 432.892 275.13 432.836 275.192L432.798 275.23L432.761 275.267C432.749 275.279 432.736 275.287 432.723 275.305L432.686 275.342C432.659 275.353 432.633 275.362 432.606 275.38C432.536 275.436 432.459 275.436 432.38 275.53C432.316 275.549 432.225 275.549 432.154 275.567C431.056 275.717 429.462 274.752 428.274 274.178C425.426 272.293 417.434 267.729 416.297 257.933C416.134 255.723 417.93 253.816 420.817 253.632C420.959 253.622 421.078 253.632 421.227 253.632H421.306C426.101 254.83 433.171 254.957 439.31 255.538C444.308 255.821 446.779 259.436 442.097 260.952V260.855ZM341.09 247.319C340.976 249.083 346.374 251.23 346.701 255.302C347.473 256.982 345.546 262.367 347.155 262.868C348.629 263.434 350.675 259.148 351.448 255.163C351.873 252.98 349.596 245.349 345.723 243.987C345.121 243.837 344.497 243.775 343.879 243.837C342.009 243.987 340.339 244.879 341.091 247.309L341.09 247.319ZM427.848 222.461C432.805 224.637 444.62 223.361 441.745 216.324C441.745 215.686 441.554 213.482 441.483 212.887C440.979 211.803 440.043 211.392 439.148 211.533C438.253 211.683 437.39 212.369 437.076 213.475C436.878 214.212 437.459 215.431 436.743 215.806C436.333 216.232 434.72 215.956 434.784 213.928C434.784 213.291 434.267 212.568 433.956 212.157C433.644 211.945 433.474 211.873 432.902 211.873C432.214 211.893 432.2 212.085 431.81 212.603C431.646 213.1 431.434 213.687 431.434 214.303C431.35 215.025 431.073 215.275 430.493 215.38C429.848 215.38 429.99 215.455 429.475 215.097C429.178 214.742 428.76 214.671 428.76 214.125C428.76 213.628 428.64 212.687 428.463 212.325C428.193 211.971 427.716 211.9 427.22 211.759C424.513 211.769 424.353 214.601 424.509 215.678C424.31 215.89 424.169 221 427.859 222.41L427.848 222.461ZM469.823 172.151C478.133 182.447 486.13 192.792 493.853 203.495C495.057 211.442 495.956 219.215 496.527 226.959C497.778 243.934 498.157 265.067 497.016 282.945C500.467 283.095 505.996 277.807 507.938 270.103C509.201 259.443 507.491 237.691 507.378 231.401C507.299 228.793 507.123 225.675 506.924 222.411C516.315 236.547 525.074 251.094 533.174 266.007C536.294 264.646 535.602 248.46 533.777 246.187C526.93 232.607 517.472 219.201 514.457 214.044C513.367 212.194 509.661 206.986 505.267 200.994C504.458 192.444 503.58 185.202 503.007 183.014C501.594 173.975 507.037 184.027 506.284 178.776C504.516 169.75 499.111 163.616 492.725 155.348C490.667 152.662 490.717 152.109 487.528 155.985C485.628 159.961 485.654 163.263 486.209 166.364C485.156 164.949 484.038 163.585 482.858 162.274L472.426 154.119C470.982 153.175 468.235 151.709 466.136 151.894C464.876 152.044 463.874 152.681 463.5 154.394C462.996 158.427 463.259 160.617 463.989 163.974C464.549 166.214 468.086 169.956 469.826 172.133L469.823 172.151ZM487.419 171.585C487.617 172.457 487.844 173.329 487.986 174.221C488.46 176.141 488.869 178.048 489.304 179.947C487.477 177.623 485.964 175.752 485.313 175.086C481.175 170.55 485.404 172.116 487.421 171.586L487.419 171.585Z" fill="#ddd"/>
        </g>
    </g>
    <defs>
        <clipPath id="clip0_1824_107">
            <rect width="900" height="600" fill="white"/>
        </clipPath>
    </defs>
</svg>
