<svg width="1200" height="600" viewBox="0 0 1200 600" fill="none"
    xmlns="http://www.w3.org/2000/svg">
    <g clip-path="url(#clip0_2067_2862)">
        <path id="1" d="M0 0H1200V600H0V0Z" fill="#EDEDF0"/>
        <path id="2" d="M0 600V0H1200" fill="#DDDDDD"/>
        <path d="M1200 0L0 600Z" fill="black"/>
        <path id="3" d="M1200 0L0 600" stroke="#CCCCCC" stroke-width="54"/>
        <g id="4">
            <path d="M210.002 119.997L191.462 177.057L220.022 186.357L210.002 119.997Z" fill="#EDEDF0"/>
            <path d="M210.002 119.997L228.542 177.057L199.982 186.357L210.002 119.997Z" fill="#EDEDF0"/>
            <path d="M267.065 161.456L207.069 161.456L207.05 191.492L267.065 161.456Z" fill="#EDEDF0"/>
            <path d="M267.065 161.456L218.527 196.721L200.857 172.433L267.065 161.456Z" fill="#EDEDF0"/>
            <path d="M152.939 161.456L201.477 196.721L219.147 172.433L152.939 161.456Z" fill="#EDEDF0"/>
            <path d="M152.939 161.456L212.935 161.456L212.954 191.492L152.939 161.456Z" fill="#EDEDF0"/>
            <path d="M245.269 228.538L226.729 171.478L198.157 180.742L245.269 228.538Z" fill="#EDEDF0"/>
            <path d="M245.269 228.538L196.731 193.273L214.37 168.962L245.269 228.538Z" fill="#EDEDF0"/>
            <path d="M174.735 228.538L223.273 193.273L205.634 168.962L174.735 228.538Z" fill="#EDEDF0"/>
            <path d="M174.735 228.538L193.275 171.478L221.847 180.742L174.735 228.538Z" fill="#EDEDF0"/>
            <path d="M328.448 18.4766L309.908 75.5366L338.468 84.8366L328.448 18.4766Z" fill="#EDEDF0"/>
            <path d="M328.448 18.4766L346.988 75.5366L318.428 84.8366L328.448 18.4766Z" fill="#EDEDF0"/>
            <path d="M385.512 59.9355L325.515 59.9355L325.496 89.9715L385.512 59.9355Z" fill="#EDEDF0"/>
            <path d="M385.512 59.9355L336.974 95.2006L319.303 70.9123L385.512 59.9355Z" fill="#EDEDF0"/>
            <path d="M271.385 59.9355L319.923 95.2006L337.593 70.9123L271.385 59.9355Z" fill="#EDEDF0"/>
            <path d="M271.385 59.9355L331.381 59.9355L331.401 89.9715L271.385 59.9355Z" fill="#EDEDF0"/>
            <path d="M363.715 127.018L345.175 69.9575L316.604 79.2208L363.715 127.018Z" fill="#EDEDF0"/>
            <path d="M363.715 127.018L315.177 91.7526L332.816 67.4416L363.715 127.018Z" fill="#EDEDF0"/>
            <path d="M293.181 127.018L341.719 91.7526L324.08 67.4416L293.181 127.018Z" fill="#EDEDF0"/>
            <path d="M293.181 127.018L311.721 69.9575L340.293 79.2208L293.181 127.018Z" fill="#EDEDF0"/>
            <path d="M328.448 221.518L309.908 278.578L338.468 287.878L328.448 221.518Z" fill="#EDEDF0"/>
            <path d="M328.448 221.518L346.988 278.578L318.428 287.878L328.448 221.518Z" fill="#EDEDF0"/>
            <path d="M385.512 262.977L325.515 262.977L325.496 293.013L385.512 262.977Z" fill="#EDEDF0"/>
            <path d="M385.512 262.977L336.974 298.242L319.303 273.954L385.512 262.977Z" fill="#EDEDF0"/>
            <path d="M271.385 262.977L319.923 298.242L337.593 273.954L271.385 262.977Z" fill="#EDEDF0"/>
            <path d="M271.385 262.977L331.381 262.977L331.401 293.013L271.385 262.977Z" fill="#EDEDF0"/>
            <path d="M363.715 330.059L345.175 272.999L316.604 282.262L363.715 330.059Z" fill="#EDEDF0"/>
            <path d="M363.715 330.059L315.177 294.794L332.816 270.483L363.715 330.059Z" fill="#EDEDF0"/>
            <path d="M293.181 330.059L341.719 294.794L324.08 270.483L293.181 330.059Z" fill="#EDEDF0"/>
            <path d="M293.181 330.059L311.721 272.999L340.293 282.262L293.181 330.059Z" fill="#EDEDF0"/>
            <path d="M91.5556 221.518L73.0156 278.578L101.576 287.878L91.5556 221.518Z" fill="#EDEDF0"/>
            <path d="M91.5556 221.518L110.096 278.578L81.5356 287.878L91.5556 221.518Z" fill="#EDEDF0"/>
            <path d="M148.619 262.977L88.6225 262.977L88.6032 293.013L148.619 262.977Z" fill="#EDEDF0"/>
            <path d="M148.619 262.977L100.081 298.242L82.4105 273.954L148.619 262.977Z" fill="#EDEDF0"/>
            <path d="M34.4922 262.977L83.0303 298.242L100.701 273.954L34.4922 262.977Z" fill="#EDEDF0"/>
            <path d="M34.4922 262.977L94.4887 262.977L94.508 293.013L34.4922 262.977Z" fill="#EDEDF0"/>
            <path d="M126.823 330.059L108.283 272.999L79.7109 282.262L126.823 330.059Z" fill="#EDEDF0"/>
            <path d="M126.823 330.059L78.2845 294.794L95.9236 270.483L126.823 330.059Z" fill="#EDEDF0"/>
            <path d="M56.2885 330.059L104.827 294.794L87.1875 270.483L56.2885 330.059Z" fill="#EDEDF0"/>
            <path d="M56.2885 330.059L74.8283 272.999L103.4 282.262L56.2885 330.059Z" fill="#EDEDF0"/>
            <path d="M91.5556 18.4766L73.0156 75.5366L101.576 84.8366L91.5556 18.4766Z" fill="#EDEDF0"/>
            <path d="M91.5556 18.4766L110.096 75.5366L81.5356 84.8366L91.5556 18.4766Z" fill="#EDEDF0"/>
            <path d="M148.619 59.9355L88.6225 59.9355L88.6032 89.9715L148.619 59.9355Z" fill="#EDEDF0"/>
            <path d="M148.619 59.9355L100.081 95.2006L82.4105 70.9123L148.619 59.9355Z" fill="#EDEDF0"/>
            <path d="M34.4922 59.9355L83.0303 95.2006L100.701 70.9123L34.4922 59.9355Z" fill="#EDEDF0"/>
            <path d="M34.4922 59.9355L94.4887 59.9355L94.5079 89.9715L34.4922 59.9355Z" fill="#EDEDF0"/>
            <path d="M126.823 127.018L108.283 69.9575L79.7109 79.2208L126.823 127.018Z" fill="#EDEDF0"/>
            <path d="M126.823 127.018L78.2845 91.7526L95.9236 67.4416L126.823 127.018Z" fill="#EDEDF0"/>
            <path d="M56.2885 127.018L104.827 91.7526L87.1875 67.4416L56.2885 127.018Z" fill="#EDEDF0"/>
            <path d="M56.2885 127.018L74.8283 69.9575L103.4 79.2208L56.2885 127.018Z" fill="#EDEDF0"/>
        </g>
    </g>
    <defs>
        <clipPath id="clip0_2067_2862">
            <rect width="1200" height="600" fill="white"/>
        </clipPath>
    </defs>
</svg>
