<svg width="900" height="600" viewBox="0 0 900 600" fill="none"
    xmlns="http://www.w3.org/2000/svg">
    <g clip-path="url(#clip0_1978_12325)">
        <path id="1" d="M0 0H900V200H0V0Z" fill="#EDEDF0"/>
        <path id="2" d="M0 200H900V400H0V200Z" fill="#DDDDDD"/>
        <path id="3" d="M0 400H900V600H0V400Z" fill="#EDEDF0"/>
        <path d="M389.833 145.5C389.833 145.5 394.5 192.25 394.5 285.75C393.833 381.25 322.417 429.583 270 455C217.583 429.583 146.167 381.25 145.5 285.75C145.5 192.25 150.167 145.5 150.167 145.5H389.833Z" fill="#EE1C25"/>
        <mask id="mask0_1978_12325" style="mask-type:luminance" maskUnits="userSpaceOnUse" x="145" y="145" width="250" height="310">
            <path d="M389.833 145.5C389.833 145.5 394.5 192.25 394.5 285.75C393.833 381.25 322.417 429.583 270 455C217.583 429.583 146.167 381.25 145.5 285.75C145.5 192.25 150.167 145.5 150.167 145.5H389.833Z" fill="white"/>
        </mask>
        <g mask="url(#mask0_1978_12325)">
            <path d="M205.25 491.922C198.49 491.92 191.829 489.144 185.827 483.827C179.824 478.511 174.655 470.809 170.754 461.368C166.853 451.928 164.333 441.024 163.406 429.573C162.48 418.123 163.174 406.459 165.43 395.561C167.686 384.664 171.437 374.852 176.37 366.948C181.304 359.044 187.274 353.28 193.779 350.139C200.285 346.998 207.136 346.573 213.758 348.899C220.38 351.225 226.579 356.234 231.834 363.505C236.39 352.816 242.19 344.179 248.8 338.241C255.409 332.303 262.657 329.219 270 329.219C277.343 329.219 284.591 332.303 291.201 338.241C297.811 344.179 303.611 352.816 308.167 363.505C313.422 356.234 319.621 351.225 326.243 348.899C332.864 346.573 339.716 346.998 346.221 350.139C352.727 353.28 358.697 359.044 363.63 366.948C368.563 374.852 372.315 384.664 374.571 395.561C376.827 406.459 377.521 418.123 376.594 429.573C375.668 441.024 373.148 451.928 369.247 461.368C365.346 470.809 360.177 478.511 354.174 483.827C348.171 489.144 341.51 491.92 334.75 491.922H205.25Z" fill="#0B4EA2"/>
        </g>
        <path d="M259.417 400.003V283.086C219.833 283.086 208.583 286.586 196.75 290.169C197.863 278.223 197.863 266.199 196.75 254.253C208.583 257.836 219.833 261.336 259.417 261.336V228.836C246.917 228.836 229.667 229.336 209.833 236.086C210.952 224.112 210.952 212.06 209.833 200.086C229.667 206.753 246.917 207.253 259.417 207.253C259.417 197.836 256.5 177.586 252.833 160.836C264.255 161.853 275.745 161.853 287.167 160.836C283.5 177.586 280.583 197.836 280.583 207.253C293.083 207.253 310.333 206.753 330.167 200.086C329.048 212.06 329.048 224.112 330.167 236.086C310.333 229.336 293.083 228.836 280.583 228.836V261.336C320.167 261.336 331.417 257.836 343.25 254.253C342.137 266.199 342.137 278.223 343.25 290.169C331.417 286.586 320.167 283.086 280.583 283.086V400.003H259.417Z" fill="white"/>
        <path d="M389.833 145.5C389.833 145.5 394.5 192.25 394.5 285.75C393.833 381.25 322.417 429.583 270 455C217.583 429.583 146.167 381.25 145.5 285.75C145.5 192.25 150.167 145.5 150.167 145.5H389.833Z" stroke="white" stroke-width="9"/>
    </g>
    <defs>
        <clipPath id="clip0_1978_12325">
            <rect width="900" height="600" fill="white"/>
        </clipPath>
    </defs>
</svg>
