<svg width="900" height="600" viewBox="0 0 900 600" fill="none"
    xmlns="http://www.w3.org/2000/svg">
    <g clip-path="url(#clip0_1966_31)">
        <path id="1" d="M0 0H300V600H0V0Z" fill="#EDEDF0"/>
        <path id="2" d="M300 0H600V600H300V0Z" fill="#DDDDDD"/>
        <path id="3" d="M600 0H900V600H600V0Z" fill="#EDEDF0"/>
        <g id="4">
            <path d="M450 200L419.098 295.106L466.651 310.557L450 200Z" fill="#EDEDF0"/>
            <path d="M450 200L480.902 295.106L433.349 310.557L450 200Z" fill="#EDEDF0"/>
            <path d="M545.106 269.098H445.106V319.098L545.106 269.098Z" fill="#EDEDF0"/>
            <path d="M545.106 269.098L464.204 327.877L434.815 287.426L545.106 269.098Z" fill="#EDEDF0"/>
            <path d="M508.779 380.902L477.877 285.796L430.324 301.247L508.779 380.902Z" fill="#EDEDF0"/>
            <path d="M508.779 380.902L427.877 322.123L457.266 281.672L508.779 380.902Z" fill="#EDEDF0"/>
            <path d="M391.222 380.902L472.123 322.123L442.734 281.672L391.222 380.902Z" fill="#EDEDF0"/>
            <path d="M391.222 380.902L422.123 285.796L469.676 301.247L391.222 380.902Z" fill="#EDEDF0"/>
            <path d="M354.895 269.098L435.796 327.877L465.186 287.426L354.895 269.098Z" fill="#EDEDF0"/>
            <path d="M354.895 269.098H454.895V319.098L354.895 269.098Z" fill="#EDEDF0"/>
        </g >
    </g>
    <defs>
        <clipPath id="clip0_1966_31">
            <rect width="900" height="600" fill="white"/>
        </clipPath>
    </defs>
</svg>
