<svg width="900" height="600" viewBox="0 0 900 600" fill="none"
    xmlns="http://www.w3.org/2000/svg">
    <g clip-path="url(#clip0_2064_2610)">
        <path id="1" d="M0 0H900V600H0V0Z" fill="#EDEDF0"/>
        <path id="2" d="M0 112.5H900V487.5H0V112.5Z" fill="#DDDDDD"/>
        <path id="3" d="M0 150H900V450H0V150Z" fill="#EDEDF0"/>
        <path d="M739.271 231.422L702.844 244.278L739.271 257.135L775.699 244.278L739.271 231.422Z" fill="white" stroke="black" stroke-width="1.512"/>
        <path d="M715.309 240H188.932C186.359 240 184.273 241.919 184.273 244.285C184.273 246.652 186.359 248.571 188.932 248.571H715.309C717.883 248.571 719.968 246.652 719.968 244.285C719.968 241.919 717.883 240 715.309 240Z" fill="#FFD900" stroke="black" stroke-width="1.512"/>
        <path d="M707.158 248.563C709.299 248.563 711.447 246.42 711.447 244.278C711.447 242.136 709.3 239.992 707.16 239.992M702.868 248.563C705.009 248.563 707.157 246.42 707.157 244.278C707.157 242.136 705.01 239.992 702.87 239.992M698.578 248.563C700.719 248.563 702.867 246.42 702.867 244.278C702.867 242.136 700.72 239.992 698.58 239.992" fill="#FFD900"/>
        <path d="M707.158 248.563C709.299 248.563 711.447 246.42 711.447 244.278C711.447 242.136 709.3 239.992 707.16 239.992M702.868 248.563C705.009 248.563 707.157 246.42 707.157 244.278C707.157 242.136 705.01 239.992 702.87 239.992M698.578 248.563C700.719 248.563 702.867 246.42 702.867 244.278C702.867 242.136 700.72 239.992 698.58 239.992" stroke="black" stroke-width="1.512"/>
        <path d="M704.365 257.148L667.938 270.005L704.365 282.861L740.793 270.005L704.365 257.148Z" fill="white" stroke="black" stroke-width="1.512"/>
        <path d="M680.403 265.727H154.026C151.453 265.727 149.367 267.645 149.367 270.012C149.367 272.379 151.453 274.298 154.026 274.298H680.403C682.976 274.298 685.062 272.379 685.062 270.012C685.062 267.645 682.976 265.727 680.403 265.727Z" fill="#FFD900" stroke="black" stroke-width="1.512"/>
        <path d="M672.252 274.29C674.392 274.29 676.54 272.146 676.54 270.004C676.54 267.862 674.394 265.719 672.253 265.719M667.962 274.29C670.102 274.29 672.25 272.146 672.25 270.004C672.25 267.862 670.104 265.719 667.963 265.719M663.672 274.29C665.812 274.29 667.96 272.146 667.96 270.004C667.96 267.862 665.814 265.719 663.673 265.719" fill="#FFD900"/>
        <path d="M672.252 274.29C674.392 274.29 676.54 272.146 676.54 270.004C676.54 267.862 674.394 265.719 672.253 265.719M667.962 274.29C670.102 274.29 672.25 272.146 672.25 270.004C672.25 267.862 670.104 265.719 667.963 265.719M663.672 274.29C665.812 274.29 667.96 272.146 667.96 270.004C667.96 267.862 665.814 265.719 663.673 265.719" stroke="black" stroke-width="1.512"/>
        <path d="M811.933 293.578H96.0548C92.5555 293.578 89.7188 296.456 89.7188 300.006C89.7188 303.557 92.5555 306.435 96.0548 306.435H811.933C815.432 306.435 818.269 303.557 818.269 300.006C818.269 296.456 815.432 293.578 811.933 293.578Z" fill="#FFD900" stroke="black" stroke-width="1.62"/>
        <path d="M664.275 300.004C621.419 342.857 564.273 428.57 449.985 428.57C349.983 428.57 278.565 342.858 235.695 300.004C278.552 257.143 349.977 171.43 449.985 171.43C564.267 171.43 621.405 257.143 664.275 300.004Z" fill="white" stroke="black" stroke-width="1.512"/>
        <path d="M435.03 216.154C446.432 228.977 436.911 234.148 448.98 234.989C461.707 235.924 454.492 248.54 465.198 248.979C472.683 249.306 464.451 279.205 471.655 289.072C478.995 299.358 485.142 292.086 485.271 299.516C485.398 307.202 465.295 306.427 464.943 330.101C464.353 343.745 447.978 344.618 447.196 353.398C446.224 361.655 479.457 366.29 479.013 373.682C478.557 381.052 443.13 379.898 441.588 388.303C440.798 395.853 490.257 402.04 494.235 423.873C486.855 426.286 465.856 428.558 449.986 428.57C350.001 428.642 278.566 342.85 235.711 299.996C278.568 257.136 349.993 171.422 450.001 171.422C450.001 171.422 420.318 198.545 435.045 216.145L435.03 216.154Z" fill="black"/>
        <path d="M320.898 288.567V254.281ZM341.673 254.281V288.567ZM362.463 254.281V288.567Z" fill="black"/>
        <path d="M320.898 288.567V254.281M341.673 254.281V288.567M362.463 254.281V288.567" stroke="white" stroke-width="10.3905"/>
        <path d="M320.898 345.715V311.43ZM341.673 311.43V345.715ZM362.463 311.43V345.715Z" fill="black"/>
        <path d="M320.898 345.715V311.43M341.673 311.43V345.715M362.463 311.43V345.715" stroke="white" stroke-width="10.3905"/>
        <path d="M383.242 288.567V254.281ZM404.017 254.281V288.567ZM424.807 254.281V288.567Z" fill="black"/>
        <path d="M383.242 288.567V254.281M404.017 254.281V288.567M424.807 254.281V288.567" stroke="white" stroke-width="10.3905"/>
        <path d="M383.242 345.715V311.43ZM404.017 311.43V345.715ZM424.807 311.43V345.715Z" fill="black"/>
        <path d="M383.242 345.715V311.43M404.017 311.43V345.715M424.807 311.43V345.715" stroke="white" stroke-width="10.3905"/>
        <path d="M478.039 288.567V254.281ZM498.814 254.281V288.567ZM519.604 254.281V288.567Z" fill="black"/>
        <path d="M478.039 288.567V254.281M498.814 254.281V288.567M519.604 254.281V288.567" stroke="black" stroke-width="10.3905"/>
        <path d="M478.039 345.715V311.43ZM498.814 311.43V345.715ZM519.604 311.43V345.715Z" fill="black"/>
        <path d="M478.039 345.715V311.43M498.814 311.43V345.715M519.604 311.43V345.715" stroke="black" stroke-width="10.3905"/>
        <path d="M540.383 288.567V254.281ZM561.158 254.281V288.567ZM581.948 254.281V288.567Z" fill="black"/>
        <path d="M540.383 288.567V254.281M561.158 254.281V288.567M581.948 254.281V288.567" stroke="black" stroke-width="10.3905"/>
        <path d="M540.383 345.715V311.43ZM561.158 311.43V345.715ZM581.948 311.43V345.715Z" fill="black"/>
        <path d="M540.383 345.715V311.43M561.158 311.43V345.715M581.948 311.43V345.715" stroke="black" stroke-width="10.3905"/>
        <path d="M767.021 294.898C760.529 306.142 772.003 291.158 799.999 309.982C805.187 313.479 809.72 322.716 809.72 329.121C808.403 328.24 807.425 326.28 805.975 325.006C803.944 327.041 807.914 336.372 808.495 340.781C804.118 338.332 804.539 337.172 803.085 334.162C803.375 337.801 802.334 347.822 804.075 351.682C800.625 350.696 800.855 347.92 799.054 347.362C800.279 351.73 797.986 356.484 798.594 361.395C796.579 359.4 794.431 357.837 793.494 357.031C793.337 359.369 789.617 365.515 789.533 367.726C787.823 366.693 787.358 365.082 787.073 363.997C784.947 366.668 777.392 376.534 776.908 379.543C771.086 374.401 756.173 361.88 754.232 355.234C752.516 359.006 750.032 360.28 745.122 363.034C743.183 352.501 735.928 340.662 739.808 331.633C737.058 333.263 734.795 334.894 732.047 336.9C734.651 321.645 747.927 303.757 767.026 294.898H767.021Z" fill="#3D5DA7" stroke="black" stroke-width="1.282"/>
        <path d="M742.812 350.578C745.507 345.19 747.99 343.482 749.732 340.012C752.808 333.914 753.248 329.063 755.929 329.774C758.609 330.485 758.605 332.983 755.133 338.978C751.66 344.974 750.01 346.255 742.812 350.578ZM761.037 363.418C760.69 359.315 761.88 357.602 761.664 354.961C761.294 350.312 759.393 347.122 761.865 346.895C764.337 346.669 765.493 348.255 765.5 352.939C765.508 357.624 764.782 358.854 761.039 363.419L761.037 363.418ZM774.867 371.458C773.787 365.731 774.596 363.191 773.904 359.501C772.701 353.009 770.322 348.736 772.612 348.142C774.902 347.548 776.285 349.648 777.151 356.232C778.019 362.815 777.561 364.624 774.867 371.458ZM789.253 331.333C785.875 328.769 783.904 328.597 781.726 326.95C777.889 324.06 775.948 320.965 774.713 322.501C773.479 324.037 774.354 325.717 778.375 328.384C782.395 331.051 783.757 331.261 789.253 331.333ZM786.867 350.338C785.087 346.641 783.214 345.703 782.062 343.324C780.027 339.144 780.023 335.527 777.815 336.454C775.607 337.381 775.431 339.274 777.792 343.321C780.152 347.367 781.388 348.1 786.867 350.338Z" fill="#A70000"/>
        <path d="M121.171 305.728C120.808 302.454 121.509 302.062 119.494 299.593C122.427 300.82 122.538 304.081 126.104 301.767C127.413 301.089 127.984 301.067 126.393 297.43C130.111 297.603 142.287 301.778 144.237 301.874C149.357 302.11 158.703 296.496 165.19 303.399C171.417 309.693 169.338 316.225 169.338 324.942C166.836 323.743 168.042 323.152 165.387 320.035C167.377 327.654 165.281 341.391 165.281 349.471C164.259 347.523 164.409 348.368 163.41 346.351C160.755 353.726 157.573 355.244 157.573 363.961C156.615 360.543 157.54 361.265 156.474 359.467C153.894 365.067 136.584 369.852 143.254 375.496C137.234 371.966 134.594 372.337 131.864 369.162C130.687 369.921 129.753 371.358 128.659 373.327C118.074 368.457 121.859 357.952 113.566 350.935C112.131 353.877 112.785 353.451 111.234 358.239C109.555 351.588 109.096 347.362 107.208 342.472C105.579 345.182 105.724 344.143 102.766 348.24C101.542 340.138 99.5504 338.226 100.338 332.865C97.1944 335.083 99.2524 334.185 96.1094 336.915C99.0874 316.155 111.946 300.814 121.174 305.727L121.171 305.728Z" fill="#3D5DA7" stroke="black" stroke-width="1.6"/>
        <path d="M108.148 339.617C110.876 332.933 113.334 330.834 115.097 326.531C118.209 318.968 118.716 312.921 121.33 313.844C123.945 314.766 123.903 317.881 120.405 325.311C116.907 332.744 115.27 334.319 108.148 339.615V339.617ZM118.474 356.342C119.568 350.35 121.293 348.167 122.002 344.308C123.261 337.522 122.559 332.468 124.989 332.735C127.419 333.001 127.968 335.563 126.351 342.313C124.734 349.064 123.619 350.662 118.474 356.342ZM130.825 367.967C131.133 362.157 132.495 359.89 132.699 356.147C133.068 349.565 131.801 344.854 134.118 344.827C136.435 344.8 137.261 347.167 136.551 353.756C135.841 360.346 134.984 361.99 130.825 367.967ZM157.347 329.972C152.276 324.92 149.21 323.976 145.938 320.727C140.175 315.021 137.391 309.663 135.339 311.562C133.287 313.462 134.522 316.308 140.589 321.738C146.657 327.168 148.767 327.96 157.347 329.972ZM154.257 349.502C150.954 344.429 148.53 343.115 146.397 339.851C142.637 334.115 141.343 329.186 139.212 330.407C137.079 331.628 137.556 334.203 141.632 339.764C145.707 345.323 147.346 346.346 154.257 349.504V349.502Z" fill="#A70000"/>
        <path d="M380.697 194.25C374.76 205.732 391.092 190.431 416.694 209.654C421.439 213.225 428.24 227.334 428.24 233.874C422.789 232.714 413.136 227.334 413.136 227.334C413.136 227.334 424.464 238.68 424.464 251.76C420.462 249.258 418.46 249.633 417.129 246.561C417.129 250.795 420.689 253.494 420.689 260.034C418.254 258.078 415.65 256.341 412.909 254.844C416.685 261.384 406.029 274.071 411.362 278.306C402.035 276.957 392.492 270.998 388.716 264.458C386.715 265.806 386.498 267.924 386.42 270.181C386.714 270.426 372.222 259.425 373.554 255.199C371.61 257.926 371.337 259.425 370.893 262.499C365.57 257.249 360.69 251.999 358.914 245.211C356.549 248.284 356.4 248.284 354.034 251.358C352.26 240.601 352.26 240.985 355.809 231.766C353.295 233.431 351.225 235.096 348.711 237.146C351.091 221.568 363.234 203.301 380.699 194.254L380.697 194.25Z" fill="#3D5DA7" stroke="black" stroke-width="1.239"/>
        <path d="M366.055 250.351C367.005 242.439 369.073 239.458 369.691 234.363C370.794 225.402 369.485 218.851 372.661 219.018C375.837 219.183 376.751 222.488 375.181 231.432C373.612 240.373 372.288 242.544 366.055 250.351ZM382.63 264.841C381.987 258.166 383.22 255.324 382.81 251.023C382.105 243.457 379.768 238.332 382.536 237.861C385.303 237.39 386.703 239.928 387.001 247.567C387.3 255.207 386.56 257.242 382.629 264.841H382.63ZM408.505 276.661C405.691 270.884 403.273 269.162 401.457 265.444C398.248 258.91 397.577 253.574 395.103 254.54C392.628 255.508 392.764 258.268 396.339 264.664C399.913 271.06 401.529 272.365 408.505 276.661ZM417.46 224.926C410.293 221.153 406.612 221.106 401.994 218.681C393.861 214.431 389.127 209.629 387.447 212.272C385.765 214.915 388.009 217.543 396.394 221.407C404.779 225.271 407.354 225.454 417.461 224.926H417.46ZM420.085 246.541C414.867 242.2 411.781 241.561 408.415 238.768C402.485 233.868 399.535 229.054 397.554 231.006C395.574 232.957 396.897 235.534 403.12 240.151C409.344 244.768 411.472 245.341 420.085 246.541Z" fill="#A70000"/>
    </g>
    <defs>
        <clipPath id="clip0_2064_2610">
            <rect width="900" height="600" fill="white"/>
        </clipPath>
    </defs>
</svg>
