<svg xmlns="http://www.w3.org/2000/svg" width="1000" height="600" fill="none" viewBox="0 0 1000 600">
  <g id="tennessee" clip-path="url(#clip0_969_5952)">
    <path id="1" fill="#EEE" d="M0 0h925v600H0V0Z"/>
    <path id="2" fill="#DDD" d="M925 0h75v600h-75V0Z"/>
    <path id="3" fill="#EEE" d="M937.5 0h62.5v600h-62.5V0Z"/>
    <path id="Vector" fill="#fff" d="M925 0h75v600h-75V0Z"/>
    <path id="Vector_2" fill="#002D65" d="M937.5 0h62.5v600h-62.5V0Z"/>
    <g id="Group">
      <path id="Vector_3" fill="#fff" d="M462.5 462.5c89.746 0 162.5-72.754 162.5-162.5s-72.754-162.5-162.5-162.5S300 210.254 300 300s72.754 162.5 162.5 162.5Z"/>
      <path id="3" fill="#DDD" d="M462.5 450c82.843 0 150-67.157 150-150s-67.157-150-150-150-150 67.157-150 150 67.157 150 150 150Z"/>
      <g id="Group_2">
        <g id="4">
          <g id="d" fill="#eee">
            <g id="b">
              <path id="a" fill="#fff" d="m460.569 305.953-41.635 57.306 28.652 20.817"/>
              <path id="a_2" fill="#fff" d="M460.569 305.953v70.833h-35.417"/>
            </g>
            <g id="b_2">
              <path id="a_3" fill="#fff" d="m509.513 373.312-67.366-21.888-10.945 33.683"/>
              <path id="a_4" fill="#fff" d="m509.513 373.312-67.366 21.889-10.945-33.683"/>
            </g>
            <g id="b_3">
              <path id="a_5" fill="#fff" d="M460.569 440.688v-70.834h-35.417"/>
              <path id="a_6" fill="#fff" d="m460.569 440.688-41.635-57.306 28.652-20.817"/>
            </g>
            <g id="b_4">
              <path id="a_7" fill="#fff" d="m381.375 414.953 67.366-21.889-10.944-33.683"/>
              <path id="a_8" fill="#fff" d="m381.375 414.953 41.634-57.305 28.653 20.817"/>
            </g>
            <g id="b_5">
              <path id="a_9" fill="#fff" d="m381.375 331.688 41.634 57.305 28.653-20.818"/>
              <path id="a_10" fill="#fff" d="m381.375 331.688 67.366 21.888-10.944 33.683"/>
            </g>
          </g>
          <g id="d_2">
            <g id="b_6">
              <path id="a_11" fill="#fff" d="m458.318 295.367-28.811-64.709-32.354 14.405"/>
              <path id="a_12" fill="#fff" d="m458.318 295.367-61.343-35.416 17.708-30.672"/>
            </g>
            <g id="b_7">
              <path id="a_13" fill="#fff" d="m375.505 304.07 52.639-47.396-23.698-26.32"/>
              <path id="a_14" fill="#fff" d="m375.505 304.07 14.727-69.285 34.642 7.363"/>
            </g>
            <g id="b_8">
              <path id="a_15" fill="#fff" d="m341.636 227.992 61.343 35.417 17.709-30.672"/>
              <path id="a_16" fill="#fff" d="m341.636 227.992 70.445-7.404 3.702 35.223"/>
            </g>
            <g id="b_9">
              <path id="a_17" fill="#fff" d="m403.517 172.281-14.727 69.286 34.643 7.363"/>
              <path id="a_18" fill="#fff" d="m403.517 172.281 28.811 64.71-32.355 14.405"/>
            </g>
            <g id="b_10">
              <path id="a_19" fill="#fff" d="m475.631 213.914-70.446 7.404 3.702 35.223"/>
              <path id="a_20" fill="#fff" d="m475.631 213.914-52.64 47.397-23.698-26.32"/>
            </g>
          </g>
          <g id="d_3">
            <g id="b_11">
              <path id="a_21" fill="#fff" d="m468.613 298.703 70.445 7.404 3.702-35.222"/>
              <path id="a_22" fill="#fff" d="m468.613 298.703 61.344-35.417 17.708 30.672"/>
            </g>
            <g id="b_12">
              <path id="a_23" fill="#fff" d="m502.482 222.633 14.727 69.285 34.643-7.363"/>
              <path id="a_24" fill="#fff" d="m502.482 222.633 52.639 47.397-23.698 26.319"/>
            </g>
            <g id="b_13">
              <path id="a_25" fill="#fff" d="m585.295 231.336-61.343 35.417 17.708 30.671"/>
              <path id="a_26" fill="#fff" d="m585.295 231.336-28.81 64.709-32.355-14.405"/>
            </g>
            <g id="b_14">
              <path id="a_27" fill="#fff" d="m602.608 312.781-52.639-47.396-23.699 26.319"/>
              <path id="a_28" fill="#fff" d="m602.608 312.781-70.445-7.404 3.702-35.223"/>
            </g>
            <g id="b_15">
              <path id="a_29" fill="#fff" d="m530.494 354.422 28.811-64.71-32.355-14.405"/>
              <path id="a_30" fill="#fff" d="m530.494 354.422-14.727-69.286 34.643-7.363"/>
            </g>
          </g>
        </g>
      </g>
    </g>
  </g>
  <defs>
    <clipPath id="clip0_969_5952">
      <path fill="#fff" d="M0 0h1000v600H0z"/>
    </clipPath>
  </defs>
</svg>
