<svg width="1200" height="800" viewBox="0 0 1200 800" fill="none"
    xmlns="http://www.w3.org/2000/svg">
    <g clip-path="url(#clip0_1942_646)">
        <path id="1" d="M0 0H1200V800H0V0Z" fill="#EDEDF0"/>
        <path id="2" d="M600 600C710.457 600 800 510.457 800 400C800 289.543 710.457 200 600 200C489.543 200 400 289.543 400 400C400 510.457 489.543 600 600 600Z" fill="#DDDDDD"/>
        <g id="3">
            <path d="M600 250C560.218 250 522.064 265.804 493.934 293.934C465.804 322.064 450 360.218 450 400C450 439.782 465.804 477.936 493.934 506.066C522.064 534.196 560.218 550 600 550C623.6 549.969 646.859 544.369 667.887 533.657C688.916 522.945 707.12 507.422 721.02 488.35C698.922 508.661 670.014 519.954 640 520C608.174 520 577.652 507.357 555.147 484.853C532.643 462.348 520 431.826 520 400C520 368.174 532.643 337.652 555.147 315.147C577.652 292.643 608.174 280 640 280C670.014 280.054 698.917 291.354 721.01 311.67C707.113 292.596 688.911 277.07 667.885 266.354C646.858 255.639 623.6 250.035 600 250Z" fill="#EDEDF0"/>
            <path d="M550 400L712.81 347.1L612.2 485.6V314.4L712.8 452.9L550 400Z" fill="#EDEDF0"/>
        </g>
    </g>
    <defs>
        <clipPath id="clip0_1942_646">
            <rect width="1200" height="800" fill="white"/>
        </clipPath>
    </defs>
</svg>
