<svg width="1200" height="800" viewBox="0 0 1200 800" fill="none"
    xmlns="http://www.w3.org/2000/svg">
    <g clip-path="url(#clip0_1820_2)">
        <path id="1" fill="#EDEDF0" d="M0 0H1200V800H0V0Z" />
        <g id="2">
            <path fill-rule="evenodd" clip-rule="evenodd" d="M594.098 506.846C558.65 562.831 496.166 600 425 600C314.543 600 225 510.457 225 400C225 289.543 314.543 200 425 200C496.166 200 558.65 237.17 594.098 293.154C564.806 260.525 522.3 240 475 240C386.634 240 315 311.634 315 400C315 488.366 386.634 560 475 560C522.3 560 564.806 539.475 594.098 506.846Z" fill="#ddd"/>
            <path d="M583.336 400.001L764.237 458.78L652.433 304.895V495.107L764.237 341.222L583.336 400.001Z" fill="#ddd"/>
        </g>
    </g>
    <defs>
        <clipPath id="clip0_1820_2">
            <rect width="1200" height="800" fill="white"/>
        </clipPath>
    </defs>
</svg>
