<svg xmlns="http://www.w3.org/2000/svg" width="720" height="432" fill="none" viewBox="0 0 720 432">
  <g id="utah" clip-path="url(#clip0_969_6009)">
    <path id="2" fill="#DDD" d="M0 0h720v432H0V0Z"/>
    <path id="1" fill="#EEE" d="M720 0v174.44l-72-41.578-36 20.798-108-62.362-35.981 20.784L360 49.72l-108.019 62.362L216 91.298 108 153.66l-36-20.798-72 41.575V0h720Z"/>
    <path id="Vector" fill="#071D49" d="M484.709 288V144L360.011 72l-124.724 72v144l124.724 72 124.698-72Z"/>
    <g id="Group">
      <path id="Vector_2" fill="#FFB81D" d="m360 85.055-113.401 65.48v130.942L360 346.957l113.401-65.48V150.535L360 85.055Zm108 193.3-108 62.366-108-62.362V153.657l108-62.362 108 62.362v124.698Z"/>
      <path id="Vector_3" fill="#FFB81D" d="M399.061 151.114h-78.066c-1.5 0-2.26-1.841-1.179-2.88 11.361-10.882 25.119-17.961 40.161-17.961 15.043 0 28.94 7.079 40.241 17.961a1.672 1.672 0 0 1 .381 1.839 1.678 1.678 0 0 1-1.564 1.041h.026Zm17.859 27.919H303.08a2.99 2.99 0 0 1-2.989-2.884 2.983 2.983 0 0 1 .329-1.477 109.623 109.623 0 0 1 7.441-12.341 9.721 9.721 0 0 1 7.96-4.138h88.399a9.695 9.695 0 0 1 7.96 4.157 109.47 109.47 0 0 1 7.4 12.322c.235.456.348.965.329 1.477a2.998 2.998 0 0 1-2.989 2.884Zm10.299 27.901H292.781a2.99 2.99 0 0 1-2.93-2.372 2.99 2.99 0 0 1 .027-1.347 193.295 193.295 0 0 1 3.523-12.223 7.14 7.14 0 0 1 6.799-4.899h119.622a7.189 7.189 0 0 1 6.8 4.899c1.217 3.662 2.4 7.823 3.515 12.223a2.99 2.99 0 0 1-.542 2.564 2.998 2.998 0 0 1-2.353 1.155h-.023Zm6.062 27.919h-146.54a2.988 2.988 0 0 1-2.897-2.239 2.98 2.98 0 0 1-.043-1.302c.718-3.78 1.478-7.699 2.298-11.619a7.181 7.181 0 0 1 7-5.68H426.92c3.402 0 6.32 2.381 7 5.68.82 3.92 1.58 7.82 2.302 11.619a2.98 2.98 0 0 1-.637 2.463 2.984 2.984 0 0 1-2.304 1.078Zm-59.342 27.9a2.975 2.975 0 0 1-2.117-.869 2.975 2.975 0 0 1-.88-2.113c0-3.019-1.221-5.737-3.202-7.717a10.91 10.91 0 0 0-7.74-3.202 10.925 10.925 0 0 0-10.942 10.9 2.981 2.981 0 0 1-1.852 2.759 2.995 2.995 0 0 1-1.145.224h-64.063a2.98 2.98 0 0 1-2.876-2.149 2.972 2.972 0 0 1-.083-1.272c.4-2.619 1.02-6.603 1.821-11.441a7.146 7.146 0 0 1 7.061-5.96h144.177c3.5 0 6.482 2.521 7.06 5.96a911.921 911.921 0 0 1 1.822 11.441 2.972 2.972 0 0 1-2.959 3.421h-64.063l-.019.018Z"/>
    </g>
    <g id="Group_2">
      <path id="3" fill="#CCC" d="M720 299.141v132.861H0V299.141h216l144 83.142 144-83.142h216Z"/>
      <path id="Vector_4" fill="#fff" d="m360 281.141 4.46 13.757h14.46l-11.701 8.504 4.482 13.739L360 308.64l-11.702 8.501 4.46-13.739-11.678-8.504h14.437L360 281.141Z"/>
    </g>
  </g>
  <defs>
    <clipPath id="clip0_969_6009">
      <path fill="#fff" d="M0 0h720v432H0z"/>
    </clipPath>
  </defs>
</svg>
