<svg width="945" height="630" viewBox="0 0 945 630" fill="none"
    xmlns="http://www.w3.org/2000/svg">
    <g clip-path="url(#clip0_1954_766)">
        <path id="1" d="M0 0H945V630H0V0Z" fill="#EDEDF0"/>
        <path id="2" d="M350 70H945V140H350V70ZM350 210H945V280H350V210ZM0 350H945V420H0V350ZM0 490H945V560H0V490Z" fill="#DDDDDD"/>
        <path d="M167.073 209.227L178.661 226.529C131.05 260.98 160.119 281.355 126.379 292.384C147.363 271.906 123.605 268.747 141.285 226.064" fill="#FCD116"/>
        <path d="M167.073 209.227L178.661 226.529C131.05 260.98 160.119 281.355 126.379 292.384C147.363 271.906 123.605 268.747 141.285 226.064" stroke="#7B3F00" stroke-width="2.30929" stroke-miterlimit="20" stroke-linecap="square"/>
        <path d="M145.197 193.596L141.152 214.024C83.1291 204.723 89.2747 239.679 57.6211 223.624C86.9389 223.979 73.034 204.688 115.716 187.008" fill="#FCD116"/>
        <path d="M145.197 193.596L141.152 214.024C83.1291 204.723 89.2747 239.679 57.6211 223.624C86.9389 223.979 73.034 204.688 115.716 187.008" stroke="#7B3F00" stroke-width="2.31001" stroke-miterlimit="20" stroke-linecap="square"/>
        <path d="M145.196 193.601L136.053 191.953L136.148 192.331C111.759 198.31 98.5151 208.421 88.1441 216.104C82.9548 219.948 78.476 223.214 73.6231 224.986C70.4064 226.177 66.954 226.592 63.5469 226.196C88.7261 235.142 87.0593 205.363 141.156 214.033L145.196 193.601Z" fill="#7B3F00" stroke="#7B3F00" stroke-width="1.05106" stroke-miterlimit="20" stroke-linecap="square"/>
        <path d="M135.872 191.203C86.6857 203.245 82.0331 232.256 57.6211 223.616" stroke="#7B3F00" stroke-width="2.31001" stroke-miterlimit="20"/>
        <path d="M174.998 175.003L158.663 158.672L85.1582 264.839L191.333 191.338L174.998 175.003L85.1582 264.839Z" fill="#FCD116"/>
        <path d="M174.998 175.003L158.663 158.672L85.1582 264.839M174.998 175.003L191.333 191.338L85.1582 264.839M174.998 175.003L85.1582 264.839" stroke="#7B3F00" stroke-width="2.30929" stroke-miterlimit="20"/>
        <path d="M140.775 167.081L123.476 178.665C89.0214 131.058 68.646 160.123 57.6211 126.383C78.0986 147.367 81.451 123.65 124.137 141.331" fill="#FCD116"/>
        <path d="M140.775 167.081L123.476 178.665C89.0214 131.058 68.646 160.123 57.6211 126.383C78.0986 147.367 81.451 123.65 124.137 141.331" stroke="#7B3F00" stroke-width="2.31001" stroke-miterlimit="20" stroke-linecap="square"/>
        <path d="M140.774 167.087L135.475 159.456L135.275 159.789C113.799 146.768 97.2866 144.557 84.5156 142.652C78.132 141.7 72.6592 140.846 67.9726 138.665C64.8555 137.234 62.1205 135.087 59.9902 132.398C71.4724 156.527 91.349 134.288 123.471 178.675L140.774 167.087Z" fill="#7B3F00" stroke="#7B3F00" stroke-width="1.05106" stroke-miterlimit="20" stroke-linecap="square"/>
        <path d="M135.872 158.796C92.578 132.528 68.7745 149.755 57.6211 126.383" stroke="#7B3F00" stroke-width="2.31001" stroke-miterlimit="20"/>
        <path d="M174.998 174.999V151.898L47.9492 174.999L174.998 198.099V174.999H47.9492Z" fill="#FCD116"/>
        <path d="M174.998 174.999V151.898L47.9492 174.999M174.998 174.999V198.099L47.9492 174.999M174.998 174.999H47.9492" stroke="#7B3F00" stroke-width="2.31001" stroke-miterlimit="20"/>
        <path d="M174.998 175H47.9492L174.998 198.101" fill="#7B3F00"/>
        <path d="M156.403 145.2L135.978 141.16C145.276 83.133 110.319 89.2786 126.378 57.625C126.019 86.9428 146.304 75.385 163.984 118.067" fill="#FCD116"/>
        <path d="M156.403 145.2L135.978 141.16C145.276 83.133 110.319 89.2786 126.378 57.625C126.019 86.9428 146.304 75.385 163.984 118.067" stroke="#7B3F00" stroke-width="2.31001" stroke-miterlimit="20" stroke-linecap="square"/>
        <path d="M156.398 145.204L158.046 136.057L157.668 136.156C151.693 111.763 141.579 98.5191 133.895 88.1481C130.055 82.9588 126.789 78.4838 125.017 73.6271C123.827 70.4116 123.412 66.9606 123.807 63.5547C114.861 88.7301 144.64 87.0634 135.97 141.164L156.398 145.204Z" fill="#7B3F00" stroke="#7B3F00" stroke-width="1.05106" stroke-miterlimit="20" stroke-linecap="square"/>
        <path d="M158.792 135.876C146.754 86.6896 117.739 82.0408 126.379 57.625" stroke="#7B3F00" stroke-width="2.31001" stroke-miterlimit="20"/>
        <path d="M174.998 175.003L191.333 158.672L85.1582 85.1678L158.663 191.339L174.998 175.003L85.1582 85.1678Z" fill="#FCD116"/>
        <path d="M174.998 175.003L191.333 158.672L85.1582 85.1678M174.998 175.003L158.663 191.339L85.1582 85.1678M174.998 175.003L85.1582 85.1678" stroke="#7B3F00" stroke-width="2.31001" stroke-miterlimit="20"/>
        <path d="M174.998 175.003L85.1582 85.1641L158.663 191.339" fill="#7B3F00"/>
        <path d="M182.924 140.782L171.336 123.48C218.947 89.0253 189.878 68.6537 223.618 57.625C202.634 78.1025 226.271 81.4814 208.591 124.164" fill="#FCD116"/>
        <path d="M182.924 140.782L171.336 123.48C218.947 89.0253 189.878 68.6537 223.618 57.625C202.634 78.1025 226.271 81.4814 208.591 124.164" stroke="#7B3F00" stroke-width="2.31001" stroke-miterlimit="20" stroke-linecap="square"/>
        <path d="M182.92 140.78L190.547 135.481L190.214 135.281C203.235 113.809 205.45 97.2964 207.351 84.5254C208.303 78.138 209.157 72.6652 211.342 67.9786C212.773 64.8633 214.918 62.1296 217.605 60C193.476 71.4784 215.715 91.355 171.328 123.477L182.92 140.78Z" fill="#7B3F00" stroke="#7B3F00" stroke-width="1.05106" stroke-miterlimit="20" stroke-linecap="square"/>
        <path d="M191.209 135.876C217.473 92.5819 200.246 68.7784 223.618 57.625" stroke="#7B3F00" stroke-width="2.31001" stroke-miterlimit="20"/>
        <path d="M174.999 175.002H198.099L174.999 47.9531L151.898 175.002H174.999V47.9531Z" fill="#FCD116"/>
        <path d="M174.999 175.002H198.099L174.999 47.9531M174.999 175.002H151.898L174.999 47.9531M174.999 175.002V47.9531" stroke="#7B3F00" stroke-width="2.31001" stroke-miterlimit="20"/>
        <path d="M174.999 175.002V47.9531L151.898 175.002" fill="#7B3F00"/>
        <path d="M204.801 156.408L208.845 135.984C266.868 145.285 260.723 110.324 292.38 126.384C263.058 126.028 276.121 145.417 233.438 163.098" fill="#FCD116"/>
        <path d="M204.801 156.408L208.845 135.984C266.868 145.285 260.723 110.324 292.38 126.384C263.058 126.028 276.121 145.417 233.438 163.098" stroke="#7B3F00" stroke-width="2.31001" stroke-miterlimit="20" stroke-linecap="square"/>
        <path d="M204.801 156.404L213.943 158.052L213.849 157.674C238.238 151.699 251.482 141.588 261.853 133.901C267.042 130.061 271.521 126.795 276.374 125.023C279.59 123.832 283.043 123.417 286.45 123.813C261.271 114.867 262.941 144.646 208.841 135.976L204.801 156.404Z" fill="#7B3F00" stroke="#7B3F00" stroke-width="1.05106" stroke-miterlimit="20" stroke-linecap="square"/>
        <path d="M214.125 158.8C263.312 146.762 267.964 117.746 292.38 126.386" stroke="#7B3F00" stroke-width="2.31001" stroke-miterlimit="20"/>
        <path d="M174.999 175.003L191.334 191.339L264.835 85.1678L158.66 158.672L174.999 175.003L264.835 85.1678Z" fill="#FCD116"/>
        <path d="M174.999 175.003L191.334 191.339L264.835 85.1678M174.999 175.003L158.66 158.672L264.835 85.1678M174.999 175.003L264.835 85.1678" stroke="#7B3F00" stroke-width="2.31001" stroke-miterlimit="20"/>
        <path d="M174.999 175.003L264.839 85.1641L158.664 158.672" fill="#7B3F00"/>
        <path d="M209.223 182.928L226.522 171.344C260.976 218.951 281.351 189.886 292.38 223.622C271.899 202.638 268.055 226.12 225.369 208.44" fill="#FCD116"/>
        <path d="M209.223 182.928L226.522 171.344C260.976 218.951 281.351 189.886 292.38 223.622C271.899 202.638 268.055 226.12 225.369 208.44" stroke="#7B3F00" stroke-width="2.31001" stroke-miterlimit="20" stroke-linecap="square"/>
        <path d="M209.223 182.928L214.522 190.555L214.722 190.218C236.197 203.239 252.71 205.454 265.481 207.355C271.865 208.307 277.341 209.165 282.024 211.346C285.141 212.777 287.876 214.924 290.006 217.612C278.528 193.484 258.648 215.719 226.525 171.336L209.223 182.928Z" fill="#7B3F00" stroke="#7B3F00" stroke-width="1.05106" stroke-miterlimit="20" stroke-linecap="square"/>
        <path d="M214.123 191.203C257.418 217.471 281.221 200.244 292.378 223.616" stroke="#7B3F00" stroke-width="2.31001" stroke-miterlimit="20"/>
        <path d="M174.998 174.999V198.099L302.047 174.999L174.998 151.898V174.999H302.047Z" fill="#FCD116"/>
        <path d="M174.998 174.999V198.099L302.047 174.999M174.998 174.999V151.898L302.047 174.999M174.998 174.999H302.047" stroke="#7B3F00" stroke-width="2.31001" stroke-miterlimit="20"/>
        <path d="M174.998 174.999H302.047L174.998 151.898" fill="#7B3F00"/>
        <path d="M193.593 204.812L214.022 208.853C204.716 266.88 239.677 260.731 223.622 292.388C223.977 263.07 204.671 276.646 186.994 233.964" fill="#FCD116"/>
        <path d="M193.593 204.812L214.022 208.853C204.716 266.88 239.677 260.731 223.622 292.388C223.977 263.07 204.671 276.646 186.994 233.964" stroke="#7B3F00" stroke-width="2.31001" stroke-miterlimit="20" stroke-linecap="square"/>
        <path d="M193.597 204.805L191.949 213.947L192.327 213.853C198.306 238.242 208.417 251.486 216.1 261.86C219.94 267.05 223.206 271.525 224.979 276.381C226.17 279.597 226.586 283.048 226.192 286.454C235.138 261.275 205.355 262.945 214.025 208.845L193.597 204.805Z" fill="#7B3F00" stroke="#7B3F00" stroke-width="1.05106" stroke-miterlimit="20" stroke-linecap="square"/>
        <path d="M191.207 214.133C203.241 263.32 232.253 267.968 223.613 292.384" stroke="#7B3F00" stroke-width="2.31001" stroke-miterlimit="20"/>
        <path d="M174.997 175.003L158.662 191.338L264.837 264.843L191.332 158.672L174.997 175.003L264.837 264.843Z" fill="#FCD116"/>
        <path d="M174.997 175.003L158.662 191.338L264.837 264.843M174.997 175.003L191.332 158.672L264.837 264.843M174.997 175.003L264.837 264.843" stroke="#7B3F00" stroke-width="2.31001" stroke-miterlimit="20"/>
        <path d="M174.998 175.003L264.837 264.843L191.333 158.672" fill="#7B3F00"/>
        <path d="M167.075 209.227L159.448 214.529L159.781 214.73C146.76 236.201 144.549 252.714 142.644 265.485C141.692 271.872 140.838 277.345 138.653 282.028C137.223 285.145 135.077 287.879 132.391 290.01C156.519 278.532 134.28 258.651 178.667 226.529L167.075 209.227Z" fill="#7B3F00" stroke="#7B3F00" stroke-width="1.05071" stroke-miterlimit="20" stroke-linecap="square"/>
        <path d="M158.792 214.133C132.524 257.424 149.752 281.227 126.379 292.384" stroke="#7B3F00" stroke-width="2.30929" stroke-miterlimit="20"/>
        <path d="M174.999 175H151.898L174.999 302.053L198.099 175H174.999V302.053Z" fill="#FCD116"/>
        <path d="M174.999 175H151.898L174.999 302.053M174.999 175H198.099L174.999 302.053M174.999 175V302.053" stroke="#7B3F00" stroke-width="2.30929" stroke-miterlimit="20"/>
        <path d="M174.998 175V302.053L198.099 175" fill="#7B3F00"/>
        <path d="M174.998 175L85.1582 264.839L191.333 191.335" fill="#7B3F00"/>
        <path d="M174.998 217.355C198.387 217.355 217.348 198.395 217.348 175.006C217.348 151.617 198.387 132.656 174.998 132.656C151.609 132.656 132.648 151.617 132.648 175.006C132.648 198.395 151.609 217.355 174.998 217.355Z" fill="#FCD116" stroke="#7B3F00" stroke-width="2.30929" stroke-miterlimit="20"/>
        <path d="M206.183 158.065C203.488 161.145 201.95 155.759 192.323 155.759C182.697 155.759 181.159 161.53 179.616 160.374C178.078 159.221 187.705 152.289 190.785 151.908C193.862 151.522 202.717 154.603 206.183 158.068M195.018 161.53C197.713 163.84 195.404 168.848 192.709 168.848C190.014 168.848 185.01 164.225 187.319 161.145" fill="#7B3F00"/>
        <path d="M182.311 164.999C182.697 160.377 186.548 159.609 192.705 159.609C198.865 159.609 201.564 164.228 203.873 165.384C201.179 165.384 198.869 161.533 192.709 161.533C186.548 161.533 186.548 161.533 182.315 165.384M183.468 166.152C185.01 163.846 186.933 168.465 191.167 168.465C195.4 168.465 197.713 167.308 200.408 165.384C203.102 163.457 196.556 170.003 192.323 170.003C188.09 170.003 182.311 167.694 183.468 166.152ZM153.439 161.148C151.512 161.919 148.431 165.77 153.439 168.465C149.584 165.77 152.668 161.919 153.439 161.148Z" fill="#7B3F00"/>
        <path d="M196.56 161.148C197.327 161.919 200.407 165.771 196.56 168.466C201.564 165.771 198.483 161.919 196.56 161.148ZM168.837 177.703C165.371 178.474 166.528 183.478 163.447 183.863C160.367 184.249 158.829 187.715 159.214 187.329C161.138 185.791 165.375 184.634 168.451 184.634C171.532 184.634 172.303 186.562 174.997 186.562C177.692 186.562 178.463 184.634 181.544 184.634C184.624 184.634 188.857 185.791 190.785 187.329C191.166 187.715 189.628 184.249 186.551 183.863C183.467 183.478 184.624 178.474 181.158 177.703C181.158 179.245 182.311 178.859 182.696 181.169C182.696 183.096 179.234 183.096 178.463 181.169C179.234 184.249 176.921 184.249 174.997 184.249C173.074 184.249 170.764 184.249 171.532 181.169C170.764 183.096 167.299 183.096 167.299 181.169C167.684 178.859 168.837 179.241 168.837 177.703ZM156.901 190.795C153.821 193.104 153.053 194.261 152.668 196.956C153.59 195.338 154.044 194.673 154.747 193.724L154.21 193.49C154.433 193.516 154.633 193.55 154.853 193.581C155.314 192.953 155.729 192.409 156.901 190.795Z" fill="#7B3F00"/>
        <path d="M154.848 193.578L154.799 193.646C155.283 193.76 155.793 193.809 156.326 193.813C155.836 193.726 155.341 193.648 154.848 193.578ZM156.326 193.813C158.73 194.236 160.612 194.788 162.339 195.347C164.493 195.188 167.468 194.64 175 194.64C182.533 194.64 185.5 195.188 187.654 195.347C189.382 194.788 191.268 194.236 193.664 193.813C189.423 193.828 183.769 190.789 181.153 190.789C178.077 190.789 177.306 191.56 174.997 191.56C172.687 191.56 171.916 190.793 168.836 190.793C166.224 190.793 160.57 193.828 156.326 193.813ZM193.664 193.813C194.2 193.813 194.714 193.756 195.194 193.646L195.145 193.578C194.631 193.654 194.132 193.73 193.664 193.813Z" fill="#7B3F00"/>
        <path d="M195.146 193.575C195.361 193.544 195.562 193.51 195.789 193.484C195.596 193.563 195.437 193.635 195.248 193.718C195.951 194.667 196.405 195.332 197.327 196.95C196.941 194.255 196.174 193.098 193.094 190.789C194.265 192.403 194.681 192.943 195.146 193.575Z" fill="#7B3F00"/>
        <path d="M195.252 193.72C195.245 193.71 195.238 193.701 195.229 193.694C191.212 195.243 189.798 195.508 187.655 195.345C184.004 196.528 180.996 197.723 174.997 197.723C168.999 197.723 165.991 196.528 162.34 195.345C160.197 195.504 158.783 195.243 154.766 193.694C154.76 193.703 154.754 193.712 154.747 193.72C166.841 198.925 165.518 200.799 174.997 200.799C184.476 200.799 183.154 198.925 195.248 193.72H195.252ZM154.766 193.694C154.778 193.677 154.791 193.661 154.803 193.644C154.599 193.599 154.399 193.554 154.21 193.486C154.429 193.573 154.561 193.614 154.766 193.694ZM195.229 193.694C195.433 193.614 195.569 193.573 195.789 193.486C195.6 193.554 195.396 193.599 195.195 193.644C195.208 193.661 195.22 193.677 195.233 193.694H195.229ZM143.812 158.064C146.507 161.144 148.046 155.758 157.672 155.758C167.298 155.758 168.837 161.53 170.379 160.373C171.921 159.217 162.291 152.289 159.214 151.907C156.138 151.525 147.278 154.602 143.812 158.068M154.977 161.53C152.282 163.839 154.592 168.847 157.287 168.847C159.981 168.847 164.989 164.225 162.676 161.144" fill="#7B3F00"/>
        <path d="M167.683 164.999C167.298 160.377 163.45 159.609 157.29 159.609C151.129 159.609 148.43 164.228 146.121 165.384C148.816 165.384 151.125 161.533 157.286 161.533C163.446 161.533 163.446 161.533 167.68 165.384M166.527 166.152C164.989 163.846 163.061 168.465 158.828 168.465C154.595 168.465 152.282 167.308 149.587 165.384C146.892 163.461 153.438 170.003 157.675 170.003C161.912 170.003 167.683 167.694 166.527 166.152ZM174.997 204.268C173.069 204.268 168.069 205.425 174.997 205.425C181.925 205.425 176.924 204.268 174.997 204.268Z" fill="#7B3F00"/>
    </g>
    <defs>
        <clipPath id="clip0_1954_766">
            <rect width="945" height="630" fill="white"/>
        </clipPath>
    </defs>
</svg>
