<svg width="1000" height="500" viewBox="0 0 1000 500" fill="none"
    xmlns="http://www.w3.org/2000/svg">
    <g clip-path="url(#clip0_1954_458)">
        <path id="3" d="M0 340H1000V500H0V340Z" fill="#EDEDF0"/>
        <path id="1" d="M0 0H1000V160H0V0Z" fill="#EDEDF0"/>
        <path d="M0 160H1000V340H0V160Z" fill="#CE1126"/>
        <path id="2" d="M0 170H1000V330H0V170Z" fill="#DDDDDD"/>
        <path fill-rule="evenodd" clip-rule="evenodd" d="M150 139.17C146.748 139.716 143.407 140 140 140C106.863 140 80 113.137 80 80C80 46.8629 106.863 20 140 20C143.407 20 146.748 20.284 150 20.8296C121.623 25.5904 100 50.27 100 80C100 109.73 121.623 134.41 150 139.17Z" fill="white"/>
        <path d="M272 116L268.292 127.413L273.998 129.267" fill="white"/>
        <path d="M272 116L275.708 127.413L270.002 129.267" fill="white"/>
        <path d="M283.412 124.297H271.412V130.297" fill="white"/>
        <path d="M283.412 124.297L273.704 131.35L270.177 126.496" fill="white"/>
        <path d="M260.588 124.289L270.296 131.342L273.823 126.488" fill="white"/>
        <path d="M260.588 124.289H272.588V130.289" fill="white"/>
        <path d="M279.053 137.703L275.345 126.29L269.638 128.145" fill="white"/>
        <path d="M279.053 137.703L269.345 130.65L272.871 125.796" fill="white"/>
        <path d="M264.945 137.711L274.654 130.658L271.127 125.803" fill="white"/>
        <path d="M264.945 137.711L268.654 126.298L274.36 128.152" fill="white"/>
        <path d="M272 68L268.292 79.4127L273.998 81.2668" fill="white"/>
        <path d="M272 68L275.708 79.4127L270.002 81.2668" fill="white"/>
        <path d="M283.412 76.2969H271.412V82.2969" fill="white"/>
        <path d="M283.412 76.2969L273.704 83.3503L270.177 78.4962" fill="white"/>
        <path d="M260.588 76.2891L270.296 83.3425L273.823 78.4884" fill="white"/>
        <path d="M260.588 76.2891H272.588V82.2891" fill="white"/>
        <path d="M279.053 89.7031L275.345 78.2904L269.638 80.1445" fill="white"/>
        <path d="M279.053 89.7031L269.345 82.6497L272.871 77.7956" fill="white"/>
        <path d="M264.945 89.7109L274.654 82.6575L271.127 77.8034" fill="white"/>
        <path d="M264.945 89.7109L268.654 78.2983L274.36 80.1524" fill="white"/>
        <path d="M272 20L268.292 31.4127L273.998 33.2668" fill="white"/>
        <path d="M272 20L275.708 31.4127L270.002 33.2668" fill="white"/>
        <path d="M283.412 28.2969H271.412V34.2969" fill="white"/>
        <path d="M283.412 28.2969L273.704 35.3503L270.177 30.4962" fill="white"/>
        <path d="M260.588 28.2891L270.296 35.3425L273.823 30.4884" fill="white"/>
        <path d="M260.588 28.2891H272.588V34.2891" fill="white"/>
        <path d="M279.053 41.7031L275.345 30.2904L269.638 32.1445" fill="white"/>
        <path d="M279.053 41.7031L269.345 34.6497L272.871 29.7956" fill="white"/>
        <path d="M264.945 41.7109L274.654 34.6575L271.127 29.8034" fill="white"/>
        <path d="M264.945 41.7109L268.654 30.2983L274.36 32.1524" fill="white"/>
        <path d="M320 116L316.292 127.413L321.998 129.267" fill="white"/>
        <path d="M320 116L323.708 127.413L318.002 129.267" fill="white"/>
        <path d="M331.412 124.297H319.412V130.297" fill="white"/>
        <path d="M331.412 124.297L321.704 131.35L318.177 126.496" fill="white"/>
        <path d="M308.588 124.289L318.296 131.342L321.823 126.488" fill="white"/>
        <path d="M308.588 124.289H320.588V130.289" fill="white"/>
        <path d="M327.053 137.703L323.345 126.29L317.638 128.145" fill="white"/>
        <path d="M327.053 137.703L317.345 130.65L320.871 125.796" fill="white"/>
        <path d="M312.945 137.711L322.654 130.658L319.127 125.803" fill="white"/>
        <path d="M312.945 137.711L316.654 126.298L322.36 128.152" fill="white"/>
        <path d="M320 68L316.292 79.4127L321.998 81.2668" fill="white"/>
        <path d="M320 68L323.708 79.4127L318.002 81.2668" fill="white"/>
        <path d="M331.412 76.2969H319.412V82.2969" fill="white"/>
        <path d="M331.412 76.2969L321.704 83.3503L318.177 78.4962" fill="white"/>
        <path d="M308.588 76.2891L318.296 83.3425L321.823 78.4884" fill="white"/>
        <path d="M308.588 76.2891H320.588V82.2891" fill="white"/>
        <path d="M327.053 89.7031L323.345 78.2904L317.638 80.1445" fill="white"/>
        <path d="M327.053 89.7031L317.345 82.6497L320.871 77.7956" fill="white"/>
        <path d="M312.945 89.7109L322.654 82.6575L319.127 77.8034" fill="white"/>
        <path d="M312.945 89.7109L316.654 78.2983L322.36 80.1524" fill="white"/>
        <path d="M320 20L316.292 31.4127L321.998 33.2668" fill="white"/>
        <path d="M320 20L323.708 31.4127L318.002 33.2668" fill="white"/>
        <path d="M331.412 28.2969H319.412V34.2969" fill="white"/>
        <path d="M331.412 28.2969L321.704 35.3503L318.177 30.4962" fill="white"/>
        <path d="M308.588 28.2891L318.296 35.3425L321.823 30.4884" fill="white"/>
        <path d="M308.588 28.2891H320.588V34.2891" fill="white"/>
        <path d="M327.053 41.7031L323.345 30.2904L317.638 32.1445" fill="white"/>
        <path d="M327.053 41.7031L317.345 34.6497L320.871 29.7956" fill="white"/>
        <path d="M312.945 41.7109L322.654 34.6575L319.127 29.8034" fill="white"/>
        <path d="M312.945 41.7109L316.654 30.2983L322.36 32.1524" fill="white"/>
        <path d="M368 116L364.292 127.413L369.998 129.267" fill="white"/>
        <path d="M368 116L371.708 127.413L366.002 129.267" fill="white"/>
        <path d="M379.412 124.297H367.412V130.297" fill="white"/>
        <path d="M379.412 124.297L369.704 131.35L366.177 126.496" fill="white"/>
        <path d="M356.588 124.289L366.296 131.342L369.823 126.488" fill="white"/>
        <path d="M356.588 124.289H368.588V130.289" fill="white"/>
        <path d="M375.053 137.703L371.345 126.29L365.638 128.145" fill="white"/>
        <path d="M375.053 137.703L365.345 130.65L368.871 125.796" fill="white"/>
        <path d="M360.945 137.711L370.654 130.658L367.127 125.803" fill="white"/>
        <path d="M360.945 137.711L364.654 126.298L370.36 128.152" fill="white"/>
        <path d="M368 68L364.292 79.4127L369.998 81.2668" fill="white"/>
        <path d="M368 68L371.708 79.4127L366.002 81.2668" fill="white"/>
        <path d="M379.412 76.2969H367.412V82.2969" fill="white"/>
        <path d="M379.412 76.2969L369.704 83.3503L366.177 78.4962" fill="white"/>
        <path d="M356.588 76.2891L366.296 83.3425L369.823 78.4884" fill="white"/>
        <path d="M356.588 76.2891H368.588V82.2891" fill="white"/>
        <path d="M375.053 89.7031L371.345 78.2904L365.638 80.1445" fill="white"/>
        <path d="M375.053 89.7031L365.345 82.6497L368.871 77.7956" fill="white"/>
        <path d="M360.945 89.7109L370.654 82.6575L367.127 77.8034" fill="white"/>
        <path d="M360.945 89.7109L364.654 78.2983L370.36 80.1524" fill="white"/>
        <path d="M368 20L364.292 31.4127L369.998 33.2668" fill="white"/>
        <path d="M368 20L371.708 31.4127L366.002 33.2668" fill="white"/>
        <path d="M379.412 28.2969H367.412V34.2969" fill="white"/>
        <path d="M379.412 28.2969L369.704 35.3503L366.177 30.4962" fill="white"/>
        <path d="M356.588 28.2891L366.296 35.3425L369.823 30.4884" fill="white"/>
        <path d="M356.588 28.2891H368.588V34.2891" fill="white"/>
        <path d="M375.053 41.7031L371.345 30.2904L365.638 32.1445" fill="white"/>
        <path d="M375.053 41.7031L365.345 34.6497L368.871 29.7956" fill="white"/>
        <path d="M360.945 41.7109L370.654 34.6575L367.127 29.8034" fill="white"/>
        <path d="M360.945 41.7109L364.654 30.2983L370.36 32.1524" fill="white"/>
        <path d="M176 116L172.292 127.413L177.998 129.267" fill="white"/>
        <path d="M176 116L179.708 127.413L174.002 129.267" fill="white"/>
        <path d="M187.412 124.297H175.412V130.297" fill="white"/>
        <path d="M187.412 124.297L177.704 131.35L174.177 126.496" fill="white"/>
        <path d="M164.588 124.289L174.296 131.342L177.823 126.488" fill="white"/>
        <path d="M164.588 124.289H176.588V130.289" fill="white"/>
        <path d="M183.053 137.703L179.345 126.29L173.638 128.145" fill="white"/>
        <path d="M183.053 137.703L173.345 130.65L176.871 125.796" fill="white"/>
        <path d="M168.945 137.711L178.654 130.658L175.127 125.803" fill="white"/>
        <path d="M168.945 137.711L172.654 126.298L178.36 128.152" fill="white"/>
        <path d="M224 116L220.292 127.413L225.998 129.267" fill="white"/>
        <path d="M224 116L227.708 127.413L222.002 129.267" fill="white"/>
        <path d="M235.412 124.297H223.412V130.297" fill="white"/>
        <path d="M235.412 124.297L225.704 131.35L222.177 126.496" fill="white"/>
        <path d="M212.588 124.289L222.296 131.342L225.823 126.488" fill="white"/>
        <path d="M212.588 124.289H224.588V130.289" fill="white"/>
        <path d="M231.053 137.703L227.345 126.29L221.638 128.145" fill="white"/>
        <path d="M231.053 137.703L221.345 130.65L224.871 125.796" fill="white"/>
        <path d="M216.945 137.711L226.654 130.658L223.127 125.803" fill="white"/>
        <path d="M216.945 137.711L220.654 126.298L226.36 128.152" fill="white"/>
        <path d="M224 68L220.292 79.4127L225.998 81.2668" fill="white"/>
        <path d="M224 68L227.708 79.4127L222.002 81.2668" fill="white"/>
        <path d="M235.412 76.2969H223.412V82.2969" fill="white"/>
        <path d="M235.412 76.2969L225.704 83.3503L222.177 78.4962" fill="white"/>
        <path d="M212.588 76.2891L222.296 83.3425L225.823 78.4884" fill="white"/>
        <path d="M212.588 76.2891H224.588V82.2891" fill="white"/>
        <path d="M231.053 89.7031L227.345 78.2904L221.638 80.1445" fill="white"/>
        <path d="M231.053 89.7031L221.345 82.6497L224.871 77.7956" fill="white"/>
        <path d="M216.945 89.7109L226.654 82.6575L223.127 77.8034" fill="white"/>
        <path d="M216.945 89.7109L220.654 78.2983L226.36 80.1524" fill="white"/>
    </g>
    <defs>
        <clipPath id="clip0_1954_458">
            <rect width="1000" height="500" fill="white"/>
        </clipPath>
    </defs>
</svg>
