<svg width="900" height="600" viewBox="0 0 900 600" fill="none"
    xmlns="http://www.w3.org/2000/svg">
    <g clip-path="url(#clip0_1939_451)">
        <path id="3" d="M0 400H900V600H0V400Z" fill="#EDEDF0"/>
        <path id="2" d="M0 200H900V400H0V200Z" fill="#DDDDDD"/>
        <path id="1" d="M0 0H900V200H0V0Z" fill="#EDEDF0"/>
        <path d="M485.6 218.117L473.863 240.191L487.107 247.233L485.6 218.117Z" fill="white"/>
        <path d="M485.6 218.117L489.079 242.874L474.225 244.961L485.6 218.117Z" fill="white"/>
        <path d="M506.016 239.258L481.395 234.917L478.791 249.689L506.016 239.258Z" fill="white"/>
        <path d="M506.016 239.258L483.546 250.217L476.97 236.735L506.016 239.258Z" fill="white"/>
        <path d="M459.184 231L476.55 248.983L487.34 238.564L459.184 231Z" fill="white"/>
        <path d="M459.184 231L483.804 235.341L481.199 250.113L459.184 231Z" fill="white"/>
        <path d="M492.217 265.203L488.737 240.446L473.883 242.534L492.217 265.203Z" fill="white"/>
        <path d="M492.217 265.203L474.85 247.22L485.64 236.8L492.217 265.203Z" fill="white"/>
        <path d="M463.273 260.102L485.743 249.142L479.168 235.66L463.273 260.102Z" fill="white"/>
        <path d="M463.273 260.102L475.01 238.028L488.254 245.07L463.273 260.102Z" fill="white"/>
        <path d="M552.502 242.461L533.923 259.189L543.96 270.336L552.502 242.461Z" fill="white"/>
        <path d="M552.502 242.461L547.304 266.915L532.632 263.796L552.502 242.461Z" fill="white"/>
        <path d="M564.453 269.305L542.802 256.805L535.302 269.795L564.453 269.305Z" fill="white"/>
        <path d="M564.453 269.305L539.59 271.918L538.022 257L564.453 269.305Z" fill="white"/>
        <path d="M523.271 245.531L533.44 268.37L547.143 262.269L523.271 245.531Z" fill="white"/>
        <path d="M523.271 245.531L544.922 258.031L537.422 271.022L523.271 245.531Z" fill="white"/>
        <path d="M542.613 288.977L547.811 264.523L533.139 261.404L542.613 288.977Z" fill="white"/>
        <path d="M542.613 288.977L532.445 266.138L546.148 260.037L542.613 288.977Z" fill="white"/>
        <path d="M517.16 274.281L542.023 271.668L540.455 256.75L517.16 274.281Z" fill="white"/>
        <path d="M517.16 274.281L535.739 257.553L545.776 268.7L517.16 274.281Z" fill="white"/>
        <path d="M607.039 288.234L583.859 297.6L589.479 311.507L607.039 288.234Z" fill="white"/>
        <path d="M607.039 288.234L593.791 309.436L581.07 301.487L607.039 288.234Z" fill="white"/>
        <path d="M609.088 317.555L593.018 298.404L581.528 308.045L609.088 317.555Z" fill="white"/>
        <path d="M609.088 317.555L584.83 311.507L588.459 296.952L609.088 317.555Z" fill="white"/>
        <path d="M578.521 281.125L580.265 306.064L595.229 305.018L578.521 281.125Z" fill="white"/>
        <path d="M578.521 281.125L594.591 300.276L583.101 309.918L578.521 281.125Z" fill="white"/>
        <path d="M581.84 328.555L595.088 307.353L582.367 299.405L581.84 328.555Z" fill="white"/>
        <path d="M581.84 328.555L580.096 303.616L595.059 302.569L581.84 328.555Z" fill="white"/>
        <path d="M562.947 306.039L587.205 312.087L590.833 297.533L562.947 306.039Z" fill="white"/>
        <path d="M562.947 306.039L586.127 296.674L591.746 310.582L562.947 306.039Z" fill="white"/>
        <path d="M642.637 349.883L617.652 350.755L618.175 365.746L642.637 349.883Z" fill="white"/>
        <path d="M642.637 349.883L622.936 365.274L613.702 353.454L642.637 349.883Z" fill="white"/>
        <path d="M634.535 378.133L625.985 354.64L611.889 359.771L634.535 378.133Z" fill="white"/>
        <path d="M634.535 378.133L613.809 364.153L622.197 351.717L634.535 378.133Z" fill="white"/>
        <path d="M618.273 333.453L611.383 357.485L625.801 361.619L618.273 333.453Z" fill="white"/>
        <path d="M618.273 333.453L626.824 356.945L612.729 362.076L618.273 333.453Z" fill="white"/>
        <path d="M605.166 379.164L624.866 363.773L615.631 351.952L605.166 379.164Z" fill="white"/>
        <path d="M605.166 379.164L612.057 355.133L626.476 359.267L605.166 379.164Z" fill="white"/>
        <path d="M595.113 351.547L615.839 365.527L624.227 353.091L595.113 351.547Z" fill="white"/>
        <path d="M595.113 351.547L620.098 350.674L620.622 365.665L595.113 351.547Z" fill="white"/>
        <path d="M257.363 349.891L277.064 365.282L286.298 353.462L257.363 349.891Z" fill="white"/>
        <path d="M257.363 349.891L282.348 350.763L281.825 365.754L257.363 349.891Z" fill="white"/>
        <path d="M281.729 333.461L273.178 356.953L287.273 362.084L281.729 333.461Z" fill="white"/>
        <path d="M281.729 333.461L288.619 357.492L274.201 361.627L281.729 333.461Z" fill="white"/>
        <path d="M265.463 378.141L286.189 364.161L277.801 351.725L265.463 378.141Z" fill="white"/>
        <path d="M265.463 378.141L274.013 354.648L288.109 359.779L265.463 378.141Z" fill="white"/>
        <path d="M304.887 351.547L279.902 350.674L279.378 365.665L304.887 351.547Z" fill="white"/>
        <path d="M304.887 351.547L284.161 365.527L275.773 353.091L304.887 351.547Z" fill="white"/>
        <path d="M294.836 379.164L287.945 355.133L273.526 359.267L294.836 379.164Z" fill="white"/>
        <path d="M294.836 379.164L275.136 363.773L284.371 351.952L294.836 379.164Z" fill="white"/>
        <path d="M292.961 288.227L306.209 309.428L318.93 301.479L292.961 288.227Z" fill="white"/>
        <path d="M292.961 288.227L316.141 297.592L310.521 311.499L292.961 288.227Z" fill="white"/>
        <path d="M321.477 281.117L305.407 300.268L316.898 309.91L321.477 281.117Z" fill="white"/>
        <path d="M321.477 281.117L319.733 306.056L304.769 305.01L321.477 281.117Z" fill="white"/>
        <path d="M290.91 317.547L315.168 311.499L311.539 296.944L290.91 317.547Z" fill="white"/>
        <path d="M290.91 317.547L306.98 298.396L318.471 308.038L290.91 317.547Z" fill="white"/>
        <path d="M337.051 306.047L313.871 296.682L308.252 310.589L337.051 306.047Z" fill="white"/>
        <path d="M337.051 306.047L312.793 312.095L309.165 297.54L337.051 306.047Z" fill="white"/>
        <path d="M318.16 328.562L319.904 303.623L304.941 302.577L318.16 328.562Z" fill="white"/>
        <path d="M318.16 328.562L304.912 307.361L317.633 299.413L318.16 328.562Z" fill="white"/>
        <path d="M347.5 242.469L352.698 266.922L367.37 263.804L347.5 242.469Z" fill="white"/>
        <path d="M347.5 242.469L366.079 259.197L356.042 270.344L347.5 242.469Z" fill="white"/>
        <path d="M376.727 245.539L355.076 258.039L362.576 271.029L376.727 245.539Z" fill="white"/>
        <path d="M376.727 245.539L366.558 268.378L352.855 262.277L376.727 245.539Z" fill="white"/>
        <path d="M335.545 269.312L360.408 271.926L361.976 257.008L335.545 269.312Z" fill="white"/>
        <path d="M335.545 269.312L357.196 256.813L364.696 269.803L335.545 269.312Z" fill="white"/>
        <path d="M382.838 274.281L364.259 257.553L354.222 268.7L382.838 274.281Z" fill="white"/>
        <path d="M382.838 274.281L357.975 271.668L359.543 256.75L382.838 274.281Z" fill="white"/>
        <path d="M357.387 288.977L367.555 266.138L353.852 260.037L357.387 288.977Z" fill="white"/>
        <path d="M357.387 288.977L352.189 264.523L366.861 261.404L357.387 288.977Z" fill="white"/>
        <path d="M414.402 218.117L410.923 242.874L425.777 244.961L414.402 218.117Z" fill="white"/>
        <path d="M414.402 218.117L426.139 240.191L412.895 247.233L414.402 218.117Z" fill="white"/>
        <path d="M440.818 231L416.198 235.341L418.803 250.113L440.818 231Z" fill="white"/>
        <path d="M440.818 231L423.452 248.983L412.662 238.564L440.818 231Z" fill="white"/>
        <path d="M393.988 239.258L416.458 250.217L423.034 236.735L393.988 239.258Z" fill="white"/>
        <path d="M393.988 239.258L418.608 234.917L421.213 249.689L393.988 239.258Z" fill="white"/>
        <path d="M436.727 260.109L424.99 238.036L411.746 245.078L436.727 260.109Z" fill="white"/>
        <path d="M436.727 260.109L414.257 249.15L420.832 235.668L436.727 260.109Z" fill="white"/>
        <path d="M407.783 265.211L425.15 247.227L414.36 236.808L407.783 265.211Z" fill="white"/>
        <path d="M407.783 265.211L411.263 240.454L426.117 242.542L407.783 265.211Z" fill="white"/>
    </g>
    <defs>
        <clipPath id="clip0_1939_451">
            <rect width="900" height="600" fill="white"/>
        </clipPath>
    </defs>
</svg>
