<svg width="600" height="360" viewBox="0 0 600 360" fill="none"
    xmlns="http://www.w3.org/2000/svg">
    <g clip-path="url(#clip0_2062_2214)">
        <path id="1" d="M0 0H600V180H0V0Z" fill="#EDEDF0"/>
        <path id="2" d="M0 180H600V360H0V180Z" fill="#EDEDF0"/>
        <path id="3" fill-rule="evenodd" clip-rule="evenodd" d="M286.666 147.789L0 0V46.8984V313.103V360L286.666 212.211H600V147.789H286.666Z" fill="#DDDDDD"/>
        <path id="4" fill-rule="evenodd" clip-rule="evenodd" d="M0 25.5781L281.149 170.523H600V189.471H281.152L0 334.416V313.103L258.178 180.001L0 46.8984V25.5781Z" fill="#EDEDF0"/>
        <g id="5">
            <path class="only-fill" d="M72.9345 214.438V234.949C90.7785 234.949 125.798 221.276 125.798 177.251C125.798 133.226 88.4436 125.055 77.2703 125.055C66.0977 125.055 31.5781 133.059 31.5781 169.08C31.5781 205.1 65.4308 208.435 72.1009 208.435C78.771 208.435 103.785 202.431 100.951 175.416C100.951 183.087 92.2792 199.263 74.1017 199.263C55.9249 199.263 44.5855 185.755 44.5855 172.415C44.5855 159.073 55.5914 141.23 74.7687 141.23C93.9459 141.23 107.954 158.239 107.954 175.416C107.954 192.593 94.4468 214.438 72.9345 214.438Z" fill="#CCCCCC"/>
            <path class="only-fill" d="M57.3008 187.737L58.3637 188.425C58.3637 188.425 66.806 169.164 89.5063 155.469C86.6294 157.032 71.4336 164.599 57.3008 187.737Z" fill="#CCCCCC" stroke="#CCCCCC" stroke-width="0.631579"/>
            <path class="only-fill" d="M59.4883 184.422C59.4883 184.422 56.8622 179.044 59.1756 176.668C61.4897 174.291 60.4268 182.984 60.4268 182.984L61.4272 181.546C61.4272 181.546 59.8634 174.979 61.6148 173.603C63.3655 172.228 62.4902 179.919 62.4902 179.919L63.5531 178.544C63.5531 178.544 62.4276 172.165 64.1158 170.977C65.8047 169.789 64.7417 176.98 64.7417 176.98L65.9923 175.542C65.9923 175.542 65.0544 169.476 67.1177 168.038C69.1817 166.599 67.3678 173.791 67.3678 173.791L68.7434 172.29C68.7434 172.29 68.1182 166.724 69.8695 165.474C71.6203 164.223 70.1196 170.727 70.1196 170.727L71.3702 169.414C71.3702 169.414 70.995 164.223 72.6832 163.035C74.3721 161.847 72.8083 167.975 72.8083 167.975L74.122 166.724C74.122 166.724 73.8093 161.534 75.9352 160.534C78.0611 159.533 75.5601 165.411 75.5601 165.411L76.9982 164.161C76.9982 164.161 77.4358 158.095 79.2497 157.532C81.063 156.969 78.4369 162.91 78.4369 162.91L79.75 161.847C79.75 161.847 80.4377 156.656 82.4386 156.031C84.4401 155.406 81.1881 160.784 81.1881 160.784L82.5011 159.783C82.5011 159.783 83.9398 154.593 85.8156 154.03C87.6921 153.467 83.8773 158.908 83.8773 158.908L85.1278 158.032C85.1278 158.032 87.1912 153.342 88.8801 153.029C90.5683 152.717 87.0036 156.906 87.0036 156.906L88.5674 155.968C88.5674 155.968 91.2561 151.091 92.1946 152.591C93.1325 154.093 88.4424 156.281 88.4424 156.281L86.8786 157.156C86.8786 157.156 92.5697 154.468 93.2575 155.843C93.9453 157.219 85.4405 158.095 85.4405 158.095L84.0649 159.033C84.0649 159.033 89.7554 157.469 89.0676 158.908C88.3798 160.346 82.7518 160.033 82.7518 160.033L81.4382 160.971C81.4382 160.971 87.1287 159.596 86.3784 160.909C85.6281 162.222 80.0626 162.097 80.0626 162.097L78.687 163.223C78.687 163.223 84.2525 161.784 83.4396 163.473C82.6262 165.161 76.3104 165.099 76.3104 165.099L74.7472 166.537C74.7472 166.537 80.6253 164.536 80.1251 166.099C79.6249 167.663 72.9333 168.476 72.9333 168.476L71.4327 169.976C71.4327 169.976 77.7485 167.85 75.8727 169.789C73.9969 171.728 69.4318 172.228 69.4318 172.228L67.618 174.416C67.618 174.416 73.8718 170.664 72.9958 172.791C72.1205 174.916 65.9923 176.355 65.9923 176.355L64.7417 177.856C64.7417 177.856 70.3697 174.604 69.807 176.418C69.2443 178.231 63.2405 180.169 63.2405 180.169L62.2401 181.546C62.2401 181.546 68.8685 177.606 68.3057 179.607C67.743 181.608 61.4272 183.046 61.4272 183.046L60.6144 184.297C60.6144 184.297 66.7426 180.795 66.8051 182.483C66.8676 184.172 59.6133 185.86 59.6133 185.86L59.4883 184.422Z" fill="#CCCCCC"/>
            <path class="only-fill" d="M93.3281 187.737L92.2652 188.425C92.2652 188.425 83.8229 169.164 61.1226 155.469C63.9995 157.032 79.1953 164.599 93.3281 187.737Z" fill="#CCCCCC" stroke="#CCCCCC" stroke-width="0.631579"/>
            <path class="only-fill" d="M91.1406 184.422C91.1406 184.422 93.7667 179.044 91.4533 176.668C89.1392 174.291 90.2021 182.984 90.2021 182.984L89.2017 181.546C89.2017 181.546 90.7655 174.979 89.0141 173.603C87.2634 172.228 88.1387 179.919 88.1387 179.919L87.0758 178.544C87.0758 178.544 88.2013 172.165 86.5131 170.977C84.8242 169.789 85.8872 176.98 85.8872 176.98L84.6366 175.542C84.6366 175.542 85.5745 169.476 83.5112 168.038C81.4472 166.599 83.2611 173.791 83.2611 173.791L81.8855 172.29C81.8855 172.29 82.5107 166.724 80.7594 165.474C79.0086 164.223 80.5093 170.727 80.5093 170.727L79.2587 169.414C79.2587 169.414 79.6339 164.223 77.9457 163.035C76.2569 161.847 77.8206 167.975 77.8206 167.975L76.507 166.724C76.507 166.724 76.8196 161.534 74.6937 160.534C72.5678 159.533 75.0689 165.411 75.0689 165.411L73.6307 164.161C73.6307 164.161 73.1931 158.095 71.3792 157.532C69.5659 156.969 72.192 162.91 72.192 162.91L70.879 161.847C70.879 161.847 70.1912 156.656 68.1903 156.031C66.1888 155.406 69.4409 160.784 69.4409 160.784L68.1278 159.783C68.1278 159.783 66.6891 154.593 64.8133 154.03C62.9368 153.467 66.7516 158.908 66.7516 158.908L65.5011 158.032C65.5011 158.032 63.4377 153.342 61.7489 153.029C60.0606 152.717 63.6253 156.906 63.6253 156.906L62.0615 155.968C62.0615 155.968 59.3729 151.091 58.4343 152.591C57.4964 154.093 62.1865 156.281 62.1865 156.281L63.7503 157.156C63.7503 157.156 58.0592 154.468 57.3714 155.843C56.6836 157.219 65.1884 158.095 65.1884 158.095L66.564 159.033C66.564 159.033 60.8735 157.469 61.5613 158.908C62.2491 160.346 67.8771 160.033 67.8771 160.033L69.1907 160.971C69.1907 160.971 63.5002 159.596 64.2505 160.909C65.0009 162.222 70.5663 162.097 70.5663 162.097L71.9419 163.223C71.9419 163.223 66.3764 161.784 67.1893 163.473C68.0027 165.161 74.3185 165.099 74.3185 165.099L75.8817 166.537C75.8817 166.537 70.0036 164.536 70.5038 166.099C71.004 167.663 77.6956 168.476 77.6956 168.476L79.1962 169.976C79.1962 169.976 72.8804 167.85 74.7562 169.789C76.632 171.728 81.1971 172.228 81.1971 172.228L83.011 174.416C83.011 174.416 76.7571 170.664 77.6331 172.791C78.5084 174.916 84.6366 176.355 84.6366 176.355L85.8872 177.856C85.8872 177.856 80.2592 174.604 80.8219 176.418C81.3846 178.231 87.3884 180.169 87.3884 180.169L88.3888 181.546C88.3888 181.546 81.7604 177.606 82.3232 179.607C82.8859 181.608 89.2017 183.046 89.2017 183.046L90.0145 184.297C90.0145 184.297 83.8863 180.795 83.8238 182.483C83.7613 184.172 91.0156 185.86 91.0156 185.86L91.1406 184.422Z" fill="#CCCCCC"/>
        </g>
    </g>
    <defs>
        <clipPath id="clip0_2062_2214">
            <rect width="600" height="360" fill="white"/>
        </clipPath>
    </defs>
</svg>
