<svg width="2100" height="1400" viewBox="0 0 2100 1400" fill="none"
    xmlns="http://www.w3.org/2000/svg">
    <g clip-path="url(#clip0_1969_899)">
        <path id="1" d="M0 0H2100V1400H0V0Z" fill="#EDEDF0"/>
        <path id="2" d="M1350 500H1600V1400H1350V500Z" fill="#DDDDDD"/>
        <path id="3" d="M1600 500H1850V1400H1600V500Z" fill="#CCCCCC"/>
        <path id="4" d="M1850 500H2100V1400H1850V500Z" fill="#DDDDDD"/>
        <g id="5">
            <path class="only-fill" d="M1916.42 168.336C1916.42 168.336 2002.43 134.63 2010.76 127.68C2014.55 131.85 1976.28 174.244 1902.03 189.88C1969.46 175.286 2027.05 129.418 2038.8 130.808C2042.21 131.503 2041.45 175.634 1886.87 213.858C1993.71 188.143 2055.84 140.885 2055.09 146.098C2055.84 147.14 2044.48 183.278 1950.9 211.425C1977.04 205.865 2047.89 166.251 2047.13 173.896C2049.4 177.024 1978.56 260.42 1850.5 233.317C1952.8 257.641 2019.09 198.915 2028.57 199.957C2030.46 200.305 2009.62 251.386 1880.81 254.513C1942.57 248.606 1924.76 254.165 1924.76 254.165C1924.76 254.165 1888.39 280.226 1844.44 262.506C1878.92 271.194 1882.71 271.54 1883.46 274.32C1881.19 277.794 1852.78 283.007 1825.5 269.454C1847.47 277.794 1867.17 279.184 1867.55 282.312C1867.17 283.354 1853.16 290.652 1840.65 285.44C1828.15 280.226 1712.98 215.247 1712.98 215.247L1909.23 165.904L1916.42 168.336ZM1685.71 344.107C1668.46 344.107 1667.98 358.192 1667.98 358.192C1667.98 358.192 1666.55 359.209 1667.5 366.036C1670.35 361.387 1671.78 359.936 1671.78 359.936C1673.68 360.226 1681.6 362.404 1694.1 353.401C1682.7 364.291 1689.51 368.358 1689.51 368.358C1689.51 368.358 1686.82 376.926 1695.53 378.669C1692.84 375.183 1694.42 372.134 1694.42 372.134C1694.42 372.134 1706.61 370.973 1705.82 357.323C1706.3 369.664 1713.58 372.714 1713.58 372.714C1713.58 372.714 1713.58 379.539 1721.49 380.121C1717.22 376.635 1718.17 371.262 1718.17 371.262C1718.17 371.262 1728.46 364.437 1719.75 352.819C1724.98 350.059 1729.25 342.364 1729.25 342.364C1729.25 342.364 1722.13 339.604 1718.8 337.282C1717.22 334.231 1718.65 317.532 1718.65 317.532L1714.37 295.893L1702.18 329.586C1702.65 324.793 1702.97 344.107 1685.71 344.107Z" fill="#DDDDDD" stroke="black" stroke-width="2.25" stroke-linecap="round" stroke-linejoin="round"/>
            <path class="only-fill" d="M1770.94 295.516C1771.32 295.864 1783.82 308.722 1795.95 308.026C1800.49 304.552 1786.47 296.907 1786.47 295.169C1791.4 299.339 1812.24 315.67 1825.5 309.763C1830.8 302.813 1816.03 303.857 1799.73 285.092C1811.1 292.042 1839.51 307.331 1852.77 301.424C1858.46 295.864 1823.22 278.488 1811.48 264.937L1781.17 250.691L1739.88 281.618L1770.94 295.516ZM1724.34 189.881C1724.34 189.881 1738.36 182.236 1794.43 186.058C1800.49 186.753 1832.7 175.981 1842.93 172.854C1859.22 170.074 1911.12 159.649 1925.14 149.919C1934.99 148.877 1922.48 166.599 1909.98 170.769C1896.72 176.329 1848.61 191.618 1831.56 189.533C1852.02 189.881 1840.65 205.17 1806.55 197.873C1822.85 206.213 1816.78 207.603 1816.78 207.603C1816.78 207.603 1787.99 208.993 1780.41 203.085C1799.74 209.687 1791.78 212.12 1791.78 212.12C1791.78 212.12 1772.08 213.857 1762.99 210.035C1777 213.857 1769.81 216.29 1769.81 216.29C1769.81 216.29 1758.44 218.027 1748.97 214.9C1739.5 211.772 1725.1 189.881 1724.34 189.881ZM1746.83 302.718L1748.89 336.7C1748.89 336.7 1747.78 338.443 1746.83 339.46C1745.88 340.476 1720.54 335.828 1724.03 353.545C1724.03 360.807 1724.19 362.694 1729.57 366.76C1728.14 361.968 1728.62 358.629 1728.62 358.629C1728.62 358.629 1735.74 362.55 1742.71 351.804C1737.96 362.404 1741.28 366.18 1742.39 366.471C1743.5 368.36 1740.49 376.926 1749.99 376.781C1746.35 373.586 1748.09 368.938 1748.09 368.938C1748.09 368.938 1758.07 367.488 1754.58 350.932C1758.23 347.592 1759.65 350.787 1759.65 350.787C1759.65 350.787 1760.76 360.661 1769.47 358.629C1773.43 360.661 1768.83 366.034 1768.83 366.034C1768.83 366.034 1775.17 366.18 1777.07 361.242C1778.97 356.305 1781.18 347.446 1770.73 343.816C1769.47 340.332 1774.85 340.041 1774.85 340.041C1774.85 340.041 1781.5 342.073 1783.4 345.123C1785.3 348.173 1784.67 337.137 1776.43 335.974C1766.3 335.683 1765.67 333.796 1765.67 333.361C1765.67 332.924 1763.93 308.674 1763.13 301.703L1746.83 302.718Z" fill="#DDDDDD" stroke="black" stroke-width="2.25" stroke-linecap="round" stroke-linejoin="round"/>
            <path class="only-fill" d="M1782.07 331.678C1782.19 330.12 1764.78 308.619 1769.2 305.84C1773.61 306.673 1780.86 316.453 1786.72 313.278C1784.94 309.467 1779.7 311.613 1773.75 301.855C1767.8 290.823 1766.93 274.262 1746.1 256.197C1759.59 275.313 1790.19 286.519 1791.49 280.945C1792.78 275.37 1764.54 254.292 1765.99 249.212C1771.6 259.645 1799.96 282.89 1820.85 280.965C1822.29 276.49 1803.74 267.457 1798.97 259.023C1785.63 250.799 1749.91 222.561 1749.19 216.012C1736.19 198.625 1728.08 193.365 1724.3 191.362C1722.84 189.785 1722.48 188.277 1722.19 187.318C1714.12 169.872 1724.81 164.208 1731.06 163.369C1736.21 162.845 1737.71 163.551 1741.41 161.906C1737.02 160.332 1732.64 158.86 1728.25 157.286C1733.97 161.134 1748.58 157.746 1745.41 168.828C1751.82 166.593 1765.44 151.724 1729.97 148.368C1718.43 136.221 1670.96 129.24 1659.08 182.256C1660.03 182.999 1660.53 183.61 1663.55 185.678C1648.56 179.015 1608.12 173.876 1593.55 171.717C1554.19 161.3 1513.31 136.197 1509.38 139.284C1504.12 141.424 1533.16 166.204 1531.65 166.752C1506.47 153.286 1483.47 143.746 1462.07 135.065C1447.01 129.902 1431.93 117.883 1430.27 120.169C1424.72 130.699 1454.41 157.165 1459.93 160.279C1465.45 163.257 1508.88 181.732 1508.24 181.963C1442.83 154.734 1431.86 149.798 1428.58 146.658C1422.82 145.468 1408.77 128.077 1404.86 129.195C1402.72 131.125 1407.02 158.605 1438.23 170.939C1443.31 174.339 1505.13 194.678 1504.52 196.272C1504.37 196.671 1433.72 169.529 1430.98 168.558C1417.36 163.659 1400.64 146.488 1397.52 148.418C1394.54 150.171 1405.22 168.757 1418.99 174.586C1426.2 177.506 1453.87 190.078 1478.81 198.079C1480.4 198.606 1433.99 181.938 1411.68 173.386C1401.56 168.236 1396.8 161.818 1395.26 163.199C1392.98 164.579 1398.94 192.036 1470.64 207.529C1472.53 208.266 1495.88 202.455 1494.72 203.226C1494.43 203.419 1471.54 207.991 1469.31 207.834C1467.32 207.556 1454.78 209.196 1454.55 209.793C1453.8 211.65 1459.1 221.481 1496.12 219.431C1500.85 219.17 1526.53 210.852 1524.38 212.641C1523.3 213.537 1489.4 223.638 1486.82 223.837C1484.58 224.128 1472.67 225.27 1472.23 226.432C1471.69 228.016 1481.05 235.012 1500.93 236.134C1518.53 236.991 1551.98 226.269 1551.3 226.964C1550.63 227.659 1519.06 237.582 1518.23 238.187C1517.09 238.78 1505.53 239.355 1505.12 240.169C1504.18 242.195 1521.8 257.307 1573.91 241.179C1568.68 247.665 1543.42 252.1 1543.45 253.269C1543.34 254.116 1549.02 259.151 1557.85 260.953C1562.26 261.853 1568.31 261.67 1573.83 260.87C1583.75 259.049 1594.2 255.45 1607.48 244.192C1609.07 247.725 1574.31 263.86 1575.94 265.399C1583.48 271.809 1608.52 264.572 1610.16 263.732C1611.8 262.89 1658.37 238.802 1658.21 236.014C1658.93 239.587 1598.16 269.873 1598.82 271.115C1602.72 276.825 1623.48 270.815 1624.47 270.29C1625.46 269.767 1650.97 257.13 1651.66 256.758C1652.36 256.385 1621.69 273.222 1624.42 275.785C1623.1 286.718 1672.32 268.239 1676.18 265.938C1678.11 264.788 1652.54 276.251 1652.47 281.697C1660.7 294.467 1687.07 290.416 1691.14 287.607C1693.17 286.202 1688.74 297.093 1690.17 296.104C1690.67 295.899 1695.91 290.218 1697.92 286.106C1697.28 289.674 1694.39 295.295 1692.7 301.744C1691.01 308.193 1690.53 315.47 1688.21 323.202C1687.68 326.598 1704.46 316.562 1702.02 292.571C1703.46 305.05 1696.72 328.384 1698.48 329.597C1702.01 332.023 1711.75 317.976 1712.74 308.477C1715.63 313.275 1721.71 323.29 1726.93 325.594C1726.36 318.336 1727.03 318.669 1724.68 311.535C1726.04 302.065 1726.23 288.957 1726.55 274.155C1740.75 299.103 1746.42 309.638 1742.45 328.743C1746.67 330.358 1753.42 315.408 1752.87 307.713C1758.29 329.094 1781.7 332.3 1782.07 331.678Z" fill="#DDDDDD" stroke="black" stroke-width="2.25" stroke-linecap="round" stroke-linejoin="round"/>
            <path class="only-fill" d="M1545.57 173.289C1545.57 173.289 1535.91 179.986 1523.88 179.592C1526.89 190.622 1551.8 182.152 1551.8 182.152C1551.8 182.152 1539.78 194.365 1531.19 196.335C1536.34 200.275 1558.03 198.895 1561.68 196.926C1565.33 194.956 1571.78 187.274 1571.78 187.274C1571.78 187.274 1549.44 210.911 1546.22 210.714C1545.79 213.472 1569.63 212.487 1574.57 208.351C1579.51 204.214 1591.96 198.108 1591.96 198.108C1591.96 198.108 1559.32 218.988 1557.82 218.988C1570.06 221.942 1594.54 215.442 1610.22 206.578C1587.02 220.76 1584.88 223.321 1573.06 228.048C1583.59 230.215 1588.95 236.716 1624.61 222.533C1645.01 213.669 1656.6 197.517 1656.6 197.517C1643.93 213.078 1623.96 226.277 1601.84 239.277C1600.55 241.64 1625.46 251.291 1657.25 220.957M1718.24 239.079C1718.24 239.079 1720.39 248.337 1728.98 255.429C1737.57 262.519 1738.21 269.413 1738.21 269.413M1713.95 178.804C1713.95 178.804 1716.95 187.077 1725.76 192.396C1734.78 197.714 1748.31 214.456 1749.38 217.412C1750.42 220.988 1755.61 246.762 1755.18 249.518" fill="#DDDDDD"/>
            <path class="only-fill" d="M1545.57 173.289C1545.57 173.289 1535.91 179.986 1523.88 179.592C1526.89 190.622 1551.8 182.152 1551.8 182.152C1551.8 182.152 1539.78 194.365 1531.19 196.335C1536.34 200.275 1558.03 198.895 1561.68 196.926C1565.33 194.956 1571.78 187.274 1571.78 187.274C1571.78 187.274 1549.44 210.911 1546.22 210.714C1545.79 213.472 1569.63 212.487 1574.57 208.351C1579.51 204.214 1591.96 198.108 1591.96 198.108C1591.96 198.108 1559.32 218.988 1557.82 218.988C1570.06 221.942 1594.54 215.442 1610.22 206.578C1587.02 220.76 1584.88 223.321 1573.06 228.048C1583.59 230.215 1588.95 236.716 1624.61 222.533C1645.01 213.669 1656.6 197.517 1656.6 197.517C1643.93 213.078 1623.96 226.277 1601.84 239.277C1600.55 241.64 1625.46 251.291 1657.25 220.957M1718.24 239.079C1718.24 239.079 1720.39 248.337 1728.98 255.429C1737.57 262.519 1738.21 269.413 1738.21 269.413M1713.95 178.804C1713.95 178.804 1716.95 187.077 1725.76 192.396C1734.78 197.714 1748.31 214.456 1749.38 217.412C1750.42 220.988 1755.61 246.762 1755.18 249.518" stroke="black" stroke-width="2.25" stroke-linecap="round" stroke-linejoin="round"/>
            <path class="only-fill" d="M1659.18 191.609C1659.83 194.761 1646.51 210.716 1664.77 229.429C1648.23 247.944 1648.23 250.309 1648.23 250.309C1648.23 250.309 1657.46 255.036 1674 242.035C1701.27 272.765 1692.19 286.827 1692.19 286.827" fill="#DDDDDD"/>
            <path class="only-fill" d="M1659.18 191.609C1659.83 194.761 1646.51 210.716 1664.77 229.429C1648.23 247.944 1648.23 250.309 1648.23 250.309C1648.23 250.309 1657.46 255.036 1674 242.035C1701.27 272.765 1692.19 286.827 1692.19 286.827" stroke="black" stroke-width="2.25" stroke-linecap="round" stroke-linejoin="round"/>
            <path class="only-fill" d="M1690.01 265.133C1690.01 265.133 1687.5 261.833 1691.98 249.507C1696.01 253.963 1700.5 254.914 1702.46 256.718C1704.43 258.522 1725.02 261.256 1726.33 273.878M1714.22 149.435C1714.22 148.508 1710.08 140.347 1694.61 150.548C1702.9 151.012 1711.09 155.37 1714.22 149.435ZM1861.87 186.754C1862.63 187.102 1908.09 196.136 1923.24 191.619C1903.92 215.249 1865.28 199.264 1865.28 199.264C1884.22 204.476 1884.98 204.129 1891.04 208.994C1892.93 213.511 1856.19 211.426 1844.06 205.171C1877.78 214.901 1878.54 214.206 1879.68 218.028C1881.19 223.24 1824.36 216.638 1819.44 209.688C1834.59 220.46 1842.93 222.545 1851.26 227.41C1841.03 231.58 1822.09 235.749 1787.23 213.163C1833.07 251.387 1874.37 248.953 1880.81 255.903C1864.9 277.448 1803.15 243.047 1774.73 225.673C1746.32 208.298 1836.86 267.719 1845.2 266.676C1841.03 272.583 1811.1 267.371 1809.21 264.591M1873.61 226.715C1868.31 227.41 1852.4 227.41 1850.13 227.063ZM1532.26 166.987C1532.26 166.987 1566.84 183.73 1581.44 182.549C1577.57 185.897 1571.77 187.276 1571.77 187.276C1575.43 188.655 1585.52 193.579 1600.77 190.428C1597.12 193.776 1592.39 197.519 1592.39 197.519C1592.39 197.519 1605.49 202.049 1620.31 194.959C1615.8 200.079 1613.22 203.822 1613.22 203.822L1623.53 204.413" fill="#DDDDDD"/>
            <path class="only-fill" d="M1690.01 265.133C1690.01 265.133 1687.5 261.833 1691.98 249.507C1696.01 253.963 1700.5 254.914 1702.46 256.718C1704.43 258.522 1725.02 261.256 1726.33 273.878M1861.87 186.754C1862.63 187.102 1908.09 196.136 1923.24 191.619C1903.92 215.249 1865.28 199.264 1865.28 199.264C1884.22 204.476 1884.98 204.129 1891.04 208.994C1892.93 213.511 1856.19 211.426 1844.06 205.171C1877.78 214.901 1878.54 214.206 1879.68 218.028C1881.19 223.24 1824.36 216.638 1819.44 209.688C1834.59 220.46 1842.93 222.545 1851.26 227.41C1841.03 231.58 1822.09 235.749 1787.23 213.163C1833.07 251.387 1874.37 248.953 1880.81 255.903C1864.9 277.448 1803.15 243.047 1774.73 225.673C1746.32 208.298 1836.86 267.719 1845.2 266.676C1841.03 272.583 1811.1 267.371 1809.21 264.591M1873.61 226.715C1868.31 227.41 1852.4 227.41 1850.13 227.063M1532.26 166.987C1532.26 166.987 1566.84 183.73 1581.44 182.549C1577.57 185.897 1571.77 187.276 1571.77 187.276C1575.43 188.655 1585.52 193.579 1600.77 190.428C1597.12 193.776 1592.39 197.519 1592.39 197.519C1592.39 197.519 1605.49 202.049 1620.31 194.959C1615.8 200.079 1613.22 203.822 1613.22 203.822L1623.53 204.413M1714.22 149.435C1714.22 148.508 1710.08 140.347 1694.61 150.548C1702.9 151.012 1711.09 155.37 1714.22 149.435Z" stroke="black" stroke-width="2.25" stroke-linecap="round" stroke-linejoin="round"/>
        </g>
    </g>
    <defs>
        <clipPath id="clip0_1969_899">
            <rect width="2100" height="1400" fill="white"/>
        </clipPath>
    </defs>
</svg>
