<svg width="1260" height="630" viewBox="0 0 1260 630" fill="none"
    xmlns="http://www.w3.org/2000/svg">
    <g clip-path="url(#clip0_1969_883)">
        <path id="1" d="M0 0H1260V630H0V0Z" fill="#EDEDF0"/>
        <path id="2" d="M0 90H1260V540H0V90Z" fill="#DDDDDD"/>
        <path id="3" d="M0 180H1260V450H0V180Z" fill="#EDEDF0"/>
        <path id="4" d="M0 270H1260V360H0V270Z" fill="#DDDDDD"/>
        <mask id="mask0_1969_883" style="mask-type:luminance" maskUnits="userSpaceOnUse" x="0" y="0" width="1260" height="630">
            <path d="M0 0H1260V630H0V0Z" fill="white"/>
        </mask>
        <g mask="url(#mask0_1969_883)">
            <path d="M0 0V630L420 315L0 0Z" fill="black" stroke="black" stroke-width="30"/>
        </g>
        <path id="5" d="M0 0V630L420 315L0 0Z" fill="#EDEDF0"/>
        <path d="M159.781 156.625L242.971 412.653L25.1797 254.419H294.383L76.5927 412.653L159.781 156.625Z" fill="#D40000"/>
        <path d="M124.153 380.491L138.854 377.818L166.117 376.748L176.14 377.684L198.592 381.426L200.33 379.154V362.984L202.87 349.084L207.547 334.918L212.357 323.692L218.639 312.065L228.929 314.605H231.602L231.87 312.6L210.353 294.157L187.767 276.917L155.292 252.594L152.352 251.792L148.744 226.4L146.204 218.649L142.864 215.709L136.314 213.57L129.098 213.838L125.891 215.708L118.941 217.312L115.333 217.847L112.927 220.654L112.66 224.262L122.683 224.529L125.223 225.599L124.955 226.667L119.209 227.469L116.536 228.271L119.743 230.677L122.951 231.88L127.227 233.483L128.029 236.29L128.429 275.18L126.158 281.194L125.356 292.42L128.697 305.918L120.277 315.406L115.6 323.96L114.798 329.305L112.259 334.517L111.859 337.858L113.596 341.333L120.01 362.716L123.351 380.223L124.153 380.491Z" fill="#FFCC00"/>
        <path d="M131.934 212.875C129.362 212.873 128.127 213.318 125.578 214.703C123.278 215.953 120.548 216.785 118.688 216.785C114.906 216.785 111.853 219.499 111.853 222.888V225.138L117.366 224.968C133.166 225.498 118.741 226.954 117.591 227.163C113.668 227.874 118.461 231.074 123.075 232.619C128.04 234.281 127.828 233.319 127.828 255.091C127.828 272.967 127.673 275.496 126.309 279.616C124.307 285.664 124.307 294.653 126.309 300.569C127.119 302.959 127.786 305.189 127.8 305.519C127.814 305.849 125.462 308.773 122.569 312.016C117.344 317.873 114.131 324.158 114.131 328.553C114.131 329.565 113.449 331.273 112.612 332.378C110.682 334.928 110.627 339.318 112.5 340.985C114.443 342.713 122.463 373.674 122.484 379.515C122.492 381.646 122.873 381.633 135.056 379.178C144.892 377.196 168.145 376.776 179.916 378.363C185.353 379.096 191.678 380.163 193.978 380.753C201.223 382.613 200.824 382.996 200.841 374.256C200.867 360.743 203.33 347.892 208.547 334.15C210.92 327.899 217.159 315.204 218.813 313.253C218.976 313.06 221.633 313.551 224.719 314.35C231.032 315.984 232.763 315.679 232.763 312.944C232.763 311.378 226.319 306.005 194.766 281.304C173.505 264.659 156.066 251.547 155.194 251.547C154.336 251.547 153.469 251.106 153.281 250.563C153.094 250.019 152.091 243.585 151.031 236.247C149.971 228.909 148.54 221.664 147.853 220.16C145.845 215.762 141.688 213.43 135.056 212.988C134.017 212.916 132.975 212.878 131.934 212.875ZM132.159 214.45C132.987 214.44 133.919 214.475 135.056 214.535C145.018 215.057 146.902 217.806 149.512 235.515C150.526 242.389 151.36 248.745 151.369 249.663C151.381 250.855 149.996 252.265 146.503 254.613C141.36 258.07 134.722 264.376 131.484 268.844L129.544 271.488L129.178 265.272C128.965 261.855 128.965 253.882 129.178 247.553C129.619 234.474 129.276 233.183 124.988 231.747C121.486 230.575 116.916 229.314 118.266 228.513C119.739 227.637 121.102 228.263 124.846 227.332C126.173 227.002 126.101 227.058 125.887 225.925C125.503 223.885 123.511 222.949 117.872 223.253C113.443 223.493 112.875 223.377 113.175 222.185C113.782 219.774 116.288 218.19 120.009 217.825C122.013 217.629 124.935 216.741 126.534 215.856C128.304 214.877 129.677 214.48 132.159 214.45ZM154.463 253.263C154.672 253.26 154.868 253.262 155.053 253.291C157.606 253.691 231.243 311.265 231.243 312.86C231.243 313.49 230.653 313.996 229.922 313.985C229.19 313.973 210.448 308.665 188.297 302.2C152.897 291.869 147.807 290.181 146.278 288.335C144.106 285.71 144.034 281.703 146.081 278.997C146.918 277.892 147.6 276.533 147.6 275.96C147.6 274.21 143.847 278.671 143.128 281.275C142.288 284.319 143.853 289.413 146.138 291.063C147.04 291.715 153.788 294.033 161.128 296.21C173.656 299.923 174.498 300.323 175.163 302.397C176.759 307.377 171.498 313.157 163.884 314.8C161.429 315.33 158.307 316.775 156.15 318.4C147.577 324.86 141.607 328.676 136.603 330.831C133.661 332.099 130.818 333.531 130.303 334.038C129.788 334.544 129.037 336.848 128.616 339.156C127.721 344.058 127.342 344.81 125.888 344.81C125.046 344.81 124.97 344.37 125.55 342.785C126.62 339.862 126.503 336.119 125.325 336.119C124.702 336.119 124.313 337.16 124.313 338.903C124.313 340.425 123.883 342.101 123.328 342.644C122.494 343.461 122.388 342.857 122.738 339.1C122.969 336.6 122.868 334.544 122.513 334.544C121.83 334.544 120.49 338.332 120.009 341.66C119.728 343.61 119.711 343.595 119.081 341.294C118.59 339.497 118.828 338.292 120.094 336.006C120.996 334.376 121.754 332.006 121.754 330.719C121.754 328.781 123.181 326.907 130.191 319.806C134.844 315.093 140.261 309.244 142.228 306.813C145.631 302.605 145.81 302.159 145.688 297.897C145.617 295.434 145.332 293.221 145.068 292.947C144.18 292.023 142.996 296.785 143.466 299.387C143.89 301.741 143.452 302.542 138.544 308.331C135.581 311.826 130.549 317.094 127.378 320.06C121.537 325.522 119.447 328.474 119.447 331.253C119.447 332.097 118.792 334.328 117.984 336.203C117.176 338.079 116.73 339.996 116.972 340.45C117.242 340.958 117.05 340.925 116.494 340.394C115.835 339.765 115.782 338.601 116.325 336.091C116.735 334.198 116.903 332.369 116.691 332.013C115.875 330.641 114.919 332.403 114.441 336.147C114.167 338.295 113.653 339.869 113.288 339.635C112.188 338.928 112.535 335.019 113.878 333.025C114.571 331.998 115.435 329.55 115.791 327.569C116.789 322.012 119.177 317.602 124.481 311.594C127.155 308.566 129.347 305.976 129.347 305.828C129.347 305.681 128.634 303.446 127.772 300.878C125.778 294.941 125.646 285.9 127.462 280.403C129.377 274.611 133.322 268.877 139.556 262.825C145.59 256.969 151.323 253.315 154.463 253.263ZM176.991 301.525C177.174 301.506 177.362 301.513 177.54 301.547C177.719 301.58 177.885 301.639 178.026 301.719C178.167 301.799 178.281 301.899 178.36 302.011C178.438 302.123 178.48 302.245 178.481 302.369C178.442 302.577 178.29 302.768 178.054 302.907C177.819 303.046 177.515 303.122 177.201 303.122C176.886 303.122 176.583 303.046 176.347 302.907C176.111 302.768 175.96 302.577 175.921 302.369C175.922 302.167 176.03 301.972 176.225 301.817C176.421 301.663 176.692 301.559 176.991 301.525ZM180.703 302.003C180.712 302.003 180.721 302.003 180.731 302.003C180.92 301.98 181.114 301.986 181.299 302.02C181.485 302.053 181.656 302.114 181.802 302.198C181.948 302.281 182.063 302.385 182.141 302.503C182.218 302.62 182.255 302.747 182.25 302.875C182.25 303.104 182.113 303.323 181.871 303.485C181.628 303.647 181.299 303.738 180.956 303.738C180.613 303.738 180.283 303.647 180.041 303.485C179.798 303.323 179.662 303.104 179.662 302.875C179.652 302.671 179.751 302.471 179.942 302.311C180.132 302.152 180.402 302.042 180.703 302.003ZM184.641 302.735C184.687 302.733 184.734 302.733 184.781 302.735C184.959 302.727 185.137 302.743 185.305 302.784C185.473 302.824 185.627 302.887 185.756 302.969C185.886 303.051 185.989 303.15 186.058 303.259C186.127 303.369 186.161 303.487 186.159 303.606C186.119 303.813 185.967 304.004 185.731 304.142C185.496 304.28 185.193 304.356 184.879 304.356C184.566 304.356 184.263 304.28 184.027 304.142C183.792 304.004 183.64 303.813 183.6 303.606C183.59 303.402 183.689 303.203 183.88 303.043C184.07 302.884 184.34 302.774 184.64 302.735H184.641ZM188.184 303.465C188.24 303.462 188.297 303.462 188.354 303.465C188.532 303.457 188.711 303.474 188.879 303.514C189.047 303.555 189.2 303.618 189.33 303.7C189.459 303.782 189.562 303.881 189.631 303.991C189.7 304.101 189.734 304.219 189.731 304.338C189.721 304.563 189.581 304.776 189.339 304.933C189.098 305.089 188.774 305.177 188.437 305.177C188.1 305.177 187.777 305.089 187.535 304.933C187.293 304.776 187.153 304.563 187.144 304.338C187.134 304.134 187.233 303.934 187.423 303.775C187.614 303.615 187.883 303.505 188.184 303.466V303.465ZM178.734 304.338C178.743 304.338 178.752 304.338 178.762 304.338C178.951 304.315 179.145 304.321 179.33 304.354C179.516 304.388 179.687 304.449 179.833 304.532C179.979 304.615 180.095 304.72 180.172 304.837C180.25 304.954 180.287 305.081 180.282 305.209C180.282 305.438 180.145 305.657 179.903 305.819C179.66 305.981 179.331 306.072 178.988 306.072C178.645 306.072 178.315 305.981 178.073 305.819C177.83 305.657 177.694 305.438 177.694 305.209C177.684 305.005 177.783 304.806 177.974 304.646C178.164 304.487 178.434 304.377 178.734 304.338ZM182.447 304.956C182.632 304.934 182.823 304.939 183.005 304.971C183.187 305.003 183.357 305.061 183.502 305.142C183.646 305.222 183.763 305.323 183.843 305.437C183.923 305.55 183.965 305.674 183.966 305.8C183.966 306.029 183.829 306.248 183.587 306.41C183.344 306.572 183.015 306.663 182.672 306.663C182.329 306.663 181.999 306.572 181.757 306.41C181.514 306.248 181.378 306.029 181.378 305.8C181.379 305.598 181.487 305.403 181.682 305.248C181.878 305.094 182.148 304.991 182.447 304.956ZM190.237 305.266C190.422 305.244 190.613 305.249 190.795 305.281C190.977 305.313 191.147 305.371 191.292 305.451C191.437 305.531 191.553 305.632 191.634 305.746C191.714 305.859 191.756 305.983 191.757 306.109C191.757 306.338 191.62 306.557 191.378 306.719C191.135 306.881 190.806 306.972 190.463 306.972C190.12 306.972 189.79 306.881 189.548 306.719C189.305 306.557 189.169 306.338 189.169 306.109C189.17 305.907 189.278 305.712 189.474 305.558C189.669 305.404 189.939 305.301 190.238 305.266H190.237ZM186.131 305.322C186.316 305.3 186.507 305.305 186.689 305.337C186.871 305.369 187.041 305.427 187.186 305.508C187.33 305.588 187.447 305.689 187.527 305.803C187.607 305.916 187.649 306.04 187.65 306.166C187.64 306.391 187.5 306.604 187.258 306.761C187.017 306.917 186.693 307.005 186.356 307.005C186.019 307.005 185.696 306.917 185.454 306.761C185.212 306.604 185.072 306.391 185.063 306.166C185.064 305.964 185.171 305.769 185.367 305.615C185.562 305.46 185.832 305.357 186.131 305.322ZM193.725 306.194C193.84 306.025 199.238 307.398 205.706 309.259L217.463 312.634L215.184 316.684C213.931 318.904 212.349 321.881 211.669 323.294C210.289 326.162 209.799 326.212 202.725 324.588C194.902 322.791 182.535 321.084 169.959 320.059L157.866 319.075L162.422 317.359C164.932 316.409 168.539 314.779 170.438 313.731C173.416 312.088 174.616 311.876 179.184 312.213C185.967 312.712 190.538 311.46 192.234 308.641C192.722 307.82 193.219 307.005 193.725 306.194ZM180.45 307.038C180.459 307.038 180.468 307.038 180.478 307.038C180.667 307.015 180.861 307.021 181.046 307.054C181.231 307.088 181.403 307.149 181.548 307.232C181.694 307.316 181.81 307.42 181.887 307.537C181.965 307.654 182.002 307.781 181.997 307.909C181.997 308.138 181.86 308.357 181.618 308.519C181.375 308.681 181.046 308.772 180.703 308.772C180.36 308.772 180.03 308.681 179.788 308.519C179.545 308.357 179.409 308.138 179.409 307.909C179.399 307.705 179.498 307.506 179.689 307.346C179.88 307.186 180.149 307.077 180.45 307.038ZM188.916 307.038C188.925 307.038 188.934 307.038 188.944 307.038C189.133 307.015 189.327 307.021 189.512 307.054C189.697 307.088 189.869 307.149 190.014 307.232C190.16 307.316 190.276 307.42 190.353 307.537C190.431 307.654 190.468 307.781 190.463 307.909C190.463 308.138 190.326 308.357 190.084 308.519C189.841 308.681 189.512 308.772 189.169 308.772C188.826 308.772 188.496 308.681 188.254 308.519C188.011 308.357 187.875 308.138 187.875 307.909C187.865 307.705 187.964 307.506 188.155 307.346C188.345 307.187 188.615 307.077 188.915 307.038H188.916ZM176.766 307.15C176.822 307.148 176.878 307.148 176.934 307.15C177.112 307.142 177.291 307.158 177.459 307.199C177.627 307.239 177.781 307.302 177.911 307.384C178.04 307.466 178.143 307.565 178.212 307.675C178.281 307.785 178.316 307.903 178.313 308.022C178.313 308.251 178.176 308.47 177.934 308.632C177.691 308.794 177.362 308.885 177.019 308.885C176.676 308.885 176.346 308.794 176.104 308.632C175.861 308.47 175.725 308.251 175.725 308.022C175.715 307.818 175.814 307.618 176.004 307.459C176.195 307.299 176.464 307.189 176.765 307.15H176.766ZM184.781 307.29C184.966 307.268 185.157 307.273 185.339 307.305C185.522 307.337 185.691 307.395 185.836 307.476C185.981 307.557 186.098 307.657 186.178 307.771C186.258 307.885 186.299 308.009 186.3 308.135C186.29 308.36 186.15 308.573 185.908 308.73C185.667 308.886 185.343 308.974 185.006 308.974C184.669 308.974 184.346 308.886 184.104 308.73C183.862 308.573 183.722 308.36 183.713 308.135C183.714 307.933 183.821 307.738 184.017 307.584C184.212 307.429 184.482 307.326 184.781 307.291V307.29ZM174.938 309.063C174.947 309.063 174.956 309.063 174.966 309.063C175.153 309.043 175.344 309.051 175.525 309.087C175.707 309.122 175.875 309.183 176.017 309.266C176.159 309.349 176.272 309.453 176.348 309.568C176.424 309.684 176.461 309.809 176.456 309.935C176.417 310.143 176.265 310.334 176.029 310.473C175.794 310.612 175.49 310.688 175.176 310.688C174.861 310.688 174.558 310.612 174.322 310.473C174.086 310.334 173.935 310.143 173.896 309.935C173.886 309.731 173.985 309.531 174.176 309.371C174.366 309.212 174.636 309.102 174.937 309.063H174.938ZM178.622 309.119C178.668 309.117 178.715 309.117 178.762 309.119C178.94 309.111 179.119 309.127 179.287 309.168C179.455 309.208 179.609 309.271 179.739 309.353C179.868 309.435 179.971 309.534 180.04 309.644C180.109 309.754 180.144 309.872 180.141 309.991C180.102 310.199 179.95 310.39 179.714 310.529C179.479 310.668 179.175 310.744 178.861 310.744C178.546 310.744 178.243 310.668 178.007 310.529C177.771 310.39 177.62 310.199 177.581 309.991C177.571 309.787 177.67 309.587 177.861 309.427C178.051 309.268 178.321 309.158 178.622 309.119ZM182.559 309.259C182.744 309.237 182.935 309.242 183.117 309.274C183.3 309.306 183.469 309.364 183.614 309.444C183.759 309.525 183.876 309.626 183.956 309.739C184.036 309.853 184.078 309.977 184.079 310.103C184.079 310.332 183.942 310.551 183.7 310.713C183.457 310.875 183.128 310.966 182.785 310.966C182.442 310.966 182.112 310.875 181.87 310.713C181.627 310.551 181.491 310.332 181.491 310.103C181.492 309.901 181.6 309.706 181.795 309.552C181.99 309.398 182.261 309.295 182.559 309.26V309.259ZM186.722 309.372C186.731 309.372 186.74 309.372 186.75 309.372C186.937 309.352 187.128 309.36 187.309 309.396C187.491 309.431 187.659 309.492 187.801 309.575C187.943 309.658 188.056 309.761 188.132 309.877C188.208 309.993 188.245 310.118 188.24 310.244C188.2 310.451 188.048 310.642 187.812 310.78C187.577 310.918 187.274 310.994 186.96 310.994C186.647 310.994 186.344 310.918 186.108 310.78C185.873 310.642 185.721 310.451 185.681 310.244C185.671 310.04 185.77 309.84 185.96 309.681C186.151 309.521 186.42 309.411 186.721 309.372H186.722ZM156.262 321.494C161.409 321.33 179.376 322.632 187.903 323.913C195.408 325.04 208.553 327.48 208.997 327.823C209.107 327.908 207.981 331.505 206.466 335.81C204.95 340.114 203.568 344.133 203.4 344.725C203.17 345.533 202.247 345.659 199.688 345.26C187.191 343.312 151.184 343.488 137.334 345.569C129.461 346.752 128.304 346.666 128.981 345.007C129.291 344.246 129.95 341.864 130.444 339.691L131.344 335.725L139.697 331.394C144.288 329.004 149.405 325.956 151.059 324.616C152.714 323.276 154.44 321.946 154.913 321.663C155.06 321.574 155.527 321.518 156.263 321.494H156.262ZM115.819 342.841C116.194 342.841 117.131 343.273 118.209 343.966C119.618 344.871 121.416 345.616 122.203 345.626C126.121 345.673 128.275 351.193 131.597 369.728C131.981 371.878 132.385 374.025 132.807 376.168C133.112 377.67 132.683 378.007 129.319 378.756C125.067 379.704 124.031 379.774 124.031 379.206C124.031 377.615 119.803 358.625 117.956 351.926C116.698 347.362 115.65 343.344 115.65 342.981C115.65 342.936 115.672 342.89 115.706 342.869C115.74 342.848 115.779 342.839 115.819 342.841ZM158.738 345.625H163.041L161.606 347.256C159.059 350.182 157.842 350.46 156.066 348.494C155.171 347.504 154.434 346.458 154.434 346.159C154.434 345.861 156.372 345.625 158.738 345.625ZM167.85 345.625H176.006L174.206 347.594C172.001 350.034 171.856 350.034 169.65 347.594L167.85 345.625ZM180.169 345.625H182.053C183.078 345.625 184.961 345.837 186.243 346.103L188.578 346.581L186.413 348.466C185.226 349.503 184.143 350.346 183.993 350.322C183.845 350.298 182.913 349.212 181.941 347.932L180.169 345.625ZM192.853 346.188L194.738 346.666C195.783 346.939 198.015 347.192 199.688 347.2H202.725L200.447 349.14C199.192 350.21 197.982 351.094 197.747 351.11C197.511 351.125 196.303 350.029 195.075 348.663L192.853 346.188ZM147.543 346.441C147.763 346.447 147.899 346.457 147.938 346.497C148.092 346.658 147.456 347.737 146.503 348.887L144.759 350.969L142.566 349.169L140.372 347.341L144.028 346.778C145.531 346.544 146.888 346.422 147.544 346.441H147.543ZM151.003 346.666C151.003 346.591 152.096 347.544 153.422 348.776L155.841 351.026L151.369 351.278L146.897 351.531L148.95 349.169C150.08 347.867 151.003 346.741 151.003 346.666ZM178.172 346.666C178.492 346.687 178.802 346.87 179.184 347.2C179.847 347.772 180.714 348.907 181.125 349.703C181.768 350.952 181.573 351.121 179.747 351.053C178.582 351.01 176.839 350.747 175.866 350.463L174.094 349.956L176.034 348.072C177.059 347.072 177.638 346.63 178.172 346.666ZM165.572 346.694C166.413 346.578 167.068 347.205 167.962 348.606C169.058 350.321 169.019 350.346 164.982 350.322L160.903 350.294L163.069 348.324C164.141 347.344 164.917 346.784 165.572 346.694ZM191.025 346.975L192.881 348.803C194.915 350.789 195.274 352.001 193.781 351.784C193.258 351.708 191.371 351.529 189.591 351.363L186.356 351.053L188.691 349.028L191.025 346.975ZM138.319 347.987C138.67 347.987 139.757 348.847 140.709 349.9L142.425 351.812L138.741 352.319C136.711 352.592 134.374 352.959 133.538 353.134C132.408 353.37 132.748 352.744 134.859 350.716C136.422 349.214 137.967 347.988 138.319 347.988V347.987ZM132.694 348.1C132.944 348.095 133.173 348.124 133.369 348.156C134.615 348.359 134.496 348.677 132.469 350.688L130.134 352.994L129.459 351.081C128.896 349.513 129.059 349.066 130.359 348.55C131.011 348.292 131.942 348.112 132.694 348.1ZM201.628 350.744C201.988 350.722 202.065 351.014 201.853 351.587C201.392 352.837 200.053 353.146 200.053 352.009C200.053 351.621 200.573 351.126 201.178 350.884C201.362 350.811 201.508 350.751 201.628 350.744ZM169.65 353.134C181.152 353.134 192.87 353.421 195.694 353.781C200.444 354.388 200.813 354.571 200.813 356.341C200.813 358.449 200.171 358.55 193.978 357.438C192.096 357.1 184.548 356.382 177.188 355.835C164.411 354.885 148.575 355.398 134.466 357.213C131.553 357.587 130.866 357.444 130.866 356.481C130.866 354.443 146.116 353.135 169.65 353.135V353.134ZM154.181 357.466H162.309L160.509 359.435C158.304 361.875 158.159 361.875 155.953 359.435L154.181 357.466ZM164.616 357.466L166.753 359.576C167.928 360.745 168.891 361.83 168.891 361.966C168.891 362.102 166.938 362.219 164.559 362.219H160.229L162.422 359.829L164.616 357.466ZM167.85 357.466H176.006L174.206 359.435C172.001 361.875 171.856 361.875 169.65 359.435L167.85 357.466ZM148.612 357.578C148.969 357.601 148.648 358.202 147.572 359.716C146.593 361.092 145.56 362.219 145.294 362.219C145.027 362.219 144.026 361.309 143.044 360.222L141.244 358.253H143.972C145.474 358.253 147.297 358.008 148.022 357.719C148.288 357.613 148.494 357.571 148.612 357.579V357.578ZM151.678 358.253L153.618 360.025C154.691 361.003 155.678 361.871 155.812 361.938C155.946 362.004 154.184 362.181 151.875 362.331L147.656 362.613L149.681 360.419L151.678 358.253ZM177.722 358.253L179.916 360.643C182.306 363.237 182.066 363.35 176.625 362.303L174.065 361.825L175.894 360.025L177.722 358.253ZM180.787 358.253H184.331C188.171 358.253 188.667 358.856 186.497 360.897C184.713 362.575 184.703 362.563 182.587 360.222L180.787 358.253ZM134.859 359.069C136.588 359.053 136.536 359.217 134.297 361.403C132.58 363.08 132.372 363.116 131.907 361.853C131.347 360.341 132.687 359.089 134.859 359.069ZM193.05 359.294C193.634 359.289 194.833 359.422 196.172 359.66L199.434 360.222L197.55 362.05L195.694 363.878L194.062 361.741C193.17 360.561 192.548 359.492 192.684 359.351C192.719 359.315 192.855 359.296 193.05 359.294ZM139.106 359.997C139.567 359.918 139.976 360.294 140.766 361.037C142.273 362.456 142.292 362.586 140.991 363.119C140.231 363.43 138.58 363.707 137.334 363.738L135.084 363.794L137.137 361.656C138.147 360.606 138.644 360.076 139.106 359.997ZM190.237 360.419C190.766 360.389 191.185 360.841 191.925 361.881L193.303 363.794H190.153C188.102 363.794 187.12 363.467 187.313 362.866C187.475 362.36 188.271 361.504 189.084 360.953C189.564 360.628 189.92 360.436 190.237 360.419ZM199.857 362.444C200.024 362.482 200.053 362.757 200.053 363.259C200.053 364.735 198.825 365.703 198.225 364.694C197.992 364.301 198.305 363.544 198.928 363.006C199.388 362.609 199.689 362.406 199.857 362.444ZM160.959 364.244C173.965 364.229 188.429 365.094 196.819 366.663L199.294 367.141V373.751C199.294 378.586 199.059 380.355 198.366 380.275C197.843 380.215 194.496 379.528 190.941 378.728C180.214 376.317 168.087 375.383 154.434 375.944C147.534 376.227 140.313 376.746 138.375 377.097L134.831 377.744L133.959 372.231C133.479 369.206 133.207 366.632 133.341 366.494C133.474 366.355 136.808 365.791 140.766 365.256C145.861 364.568 153.156 364.253 160.959 364.244Z" fill="black"/>
        <path d="M187.143 326.641C182.696 326.641 179.521 329.922 179.521 334.544C179.521 341.745 187.616 345.232 192.515 340.141C197.413 335.049 194.071 326.641 187.143 326.641ZM187.115 328.497C190.4 328.367 193.218 330.923 193.218 334.628C193.218 338.964 188.2 341.988 184.33 339.972C180.192 337.816 180.5 330.886 184.808 329.032C185.538 328.712 186.32 328.53 187.115 328.497Z" fill="black"/>
        <path d="M167.079 326.047C162.632 326.047 159.457 329.328 159.457 333.95C159.457 341.151 167.552 344.638 172.451 339.547C177.349 334.455 174.007 326.047 167.079 326.047ZM167.051 327.903C170.336 327.773 173.154 330.329 173.154 334.034C173.154 338.37 168.136 341.394 164.266 339.378C160.128 337.222 160.436 330.292 164.744 328.438C165.473 328.118 166.256 327.937 167.051 327.903Z" fill="black"/>
        <path d="M132.019 217.914C131.368 217.964 130.76 218.265 130.317 218.755C129.873 219.246 129.628 219.89 129.629 220.558C129.629 221.261 129.901 221.935 130.387 222.431C130.872 222.928 131.53 223.207 132.216 223.207C132.902 223.207 133.56 222.928 134.045 222.431C134.53 221.935 134.803 221.261 134.803 220.558C134.804 220.193 134.731 219.831 134.588 219.497C134.446 219.162 134.238 218.861 133.976 218.612C133.715 218.364 133.406 218.174 133.069 218.053C132.732 217.933 132.375 217.886 132.019 217.914ZM132.188 218.843C132.64 218.857 133.069 219.043 133.384 219.364C133.699 219.684 133.875 220.112 133.875 220.558C133.88 220.787 133.84 221.016 133.754 221.229C133.669 221.442 133.542 221.637 133.379 221.801C133.217 221.965 133.023 222.095 132.808 222.184C132.594 222.273 132.364 222.319 132.131 222.319C131.899 222.319 131.669 222.273 131.454 222.184C131.24 222.095 131.046 221.965 130.884 221.801C130.721 221.637 130.594 221.442 130.508 221.229C130.423 221.016 130.382 220.787 130.388 220.558C130.388 220.328 130.435 220.1 130.526 219.888C130.617 219.676 130.751 219.484 130.919 219.324C131.087 219.164 131.286 219.039 131.504 218.956C131.722 218.874 131.954 218.835 132.188 218.843Z" fill="black"/>
    </g>
    <defs>
        <clipPath id="clip0_1969_883">
            <rect width="1260" height="630" fill="white"/>
        </clipPath>
    </defs>
</svg>
