<svg xmlns="http://www.w3.org/2000/svg" width="960" height="600" viewBox="0 0 6912 4320"><path fill="#b50027" d="M0 0h6912v4320H0z"/><path fill="#fff" d="M0 1440h6912v1440H2880z"/><path fill="#002d56" d="M0 0h2880v2880H0z"/><path fill="#fff" d="m1504.465 393.787 102.59-72.344-125.564-1.805-37.159-119.964-40.439 118.857-125.556-1.802 100.562 75.261-40.426 118.858 102.589-72.347 100.563 75.255zm-493.377 88.287 57.221-111.726-112.017 56.746-88.645-88.954 19.422 124.031-112.009 56.746 124.012 19.911 19.433 124.026 57.22-111.728 124.01 19.906zM613.715 791.968l-1.25-125.515-72.816 102.296-119.822-37.574 74.829 100.798-72.81 102.29 119.057-39.993 74.837 100.787-1.251-125.516 119.053-39.997zm-204.754 458.135-59.428-110.554-16.941 124.411-123.554 22.407 113.092 54.48-16.938 124.403 86.835-90.732 113.095 54.467-59.43-110.555 86.829-90.734zm28.921 499.644-103.99-70.275 42.808 118.03-98.987 77.251 125.45-4.312 42.808 118.023 34.727-120.687 125.447-4.324-103.992-70.274 34.721-120.686zm258.931 431.821-124.731-13.905 92.748 84.618-51.751 114.396 109.075-62.11 92.744 84.61-25.33-122.997 109.066-62.118-124.732-13.903-25.335-122.993zm430.721 259.273-116.902 45.646 121.441 31.827 7.332 125.338 67.72-105.678 121.434 31.823-79.58-97.136 67.708-105.682-116.903 45.648-79.582-97.13zm499.239 30.852-82.3 94.736 122.317-28.248 64.732 107.571 10.858-125.037 122.308-28.248-115.598-49.03 10.845-125.035-82.299 94.738-115.597-49.023zm459.243-204.198-28.85 122.124 95.177-81.847 107.301 65.169-48.486-115.758 95.17-81.844-125.137 10.301-48.497-115.75-28.849 122.126-125.134 10.307zm310.061-396.563 31.202 121.539 46.242-116.696 125.29 7.844-96.72-79.966 46.238-116.69-106.015 67.267-96.725-79.955 31.203 121.54-106.009 67.27zm-56.622-971.942 117.735 43.371-69.754-104.345 77.63-98.639-120.746 34.159-69.752-104.338-4.875 125.449-120.739 34.169 117.736 43.37-4.869 125.446zm-355.909-356.305 124.399-16.304-110.248-59.979 22.904-123.41-91.041 86.351-110.243-59.973 53.975 113.342-91.03 86.358 124.4-16.306L1960.64 666.1zm502.688 836.001 84.101 93.117-13.279-124.814 114.581-51.271-122.796-25.864-13.281-124.806-62.613 108.822-122.796-25.851 84.104 93.117-62.607 108.822z"/><path fill="#eed000" fill-rule="evenodd" stroke="#eed000" stroke-miterlimit="3.864" stroke-width="1.633" d="M918.673 2090.018h-36.357v-4.044c1.024-.08 2.503-.189 4.438-.342q2.901-.226 4.097-.684 1.878-.74 2.731-1.993.854-1.31.854-3.589v-58.562q-.001-1.993-.626-3.304-.627-1.366-2.959-2.279-1.708-.683-4.324-1.253-2.562-.625-4.21-.741v-4.044h36.357v4.044q-1.765.06-4.21.456-2.448.342-4.267.912-2.163.683-2.902 2.222-.741 1.538-.74 3.418v58.504q0 1.88.797 3.361.853 1.425 2.845 2.278 1.195.457 3.869 1.025 2.731.513 4.609.57v4.045zm99.619-76.791q-1.594.059-4.893.912-3.301.854-4.722 1.766-2.05 1.426-2.788 5.469-.683 4.045-.683 10.254v59.188h-4.95l-48.932-66.138v41.7q0 7.006.854 10.767.909 3.76 2.731 5.354 1.306 1.255 5.405 2.336 4.096 1.084 5.405 1.139v4.044h-33.114v-4.044c1.024-.08 2.749-.436 5.178-1.083q3.64-1.026 4.552-1.823 1.99-1.593 2.731-4.842.738-3.302.74-11.222v-39.82q0-2.619-.91-5.241-.911-2.62-2.447-4.044-2.049-1.88-5.576-3.19-3.473-1.366-5.633-1.481v-4.044h23.044l45.404 61.638v-38.453q0-7.061-.91-10.824-.911-3.815-2.617-5.07-1.594-1.08-5.234-2.108-3.584-1.025-5.462-1.14v-4.044h32.83v4.044zm119.077 44.491q-1.367.172-3.698.569-2.277.343-3.698 1.025-1.707.855-2.447 2.45-.683 1.538-.683 3.646v6.267q0 6.835.057 9.228.112 2.393.228 3.931-7.568 3.418-15.078 5.241-7.511 1.82-14.737 1.823-7.74 0-14.907-2.905-7.17-2.905-12.518-8.26-5.407-5.41-8.592-13.159-3.187-7.746-3.186-17.318 0-9.229 3.015-17.09 3.072-7.917 8.648-13.729 5.403-5.695 12.859-8.83 7.51-3.187 16.045-3.19 6.827.001 11.891 1.652 5.063 1.654 8.933 3.988l2.333-3.874h4.552l.512 28.255h-4.666a79 79 0 0 0-2.958-9.172q-1.765-4.554-4.552-8.146a20.7 20.7 0 0 0-6.828-5.697q-3.985-2.163-9.559-2.165-6.088.001-10.867 2.506-4.78 2.45-8.307 7.349-3.472 4.729-5.349 11.792-1.878 7.064-1.878 15.78 0 7.69 1.821 14.526 1.878 6.78 5.405 11.735 3.525 5.071 8.819 7.975 5.29 2.907 12.006 2.906 5.005 0 9.104-1.538 4.152-1.539 5.86-3.247.452-2.961.455-5.981.055-3.017.057-5.127v-4.443q0-2.392-.683-4.216-.627-1.88-2.674-2.734-1.878-.854-5.121-1.254-3.187-.454-5.007-.569v-4.158h35.391v4.158zm79.389-38.965q5.348 5.584 8.364 13.501 3.013 7.861 3.016 17.432 0 9.628-3.073 17.489c-3.073 7.861-4.893 9.704-8.535 13.387a37 37 0 0 1-12.29 8.431q-7 2.96-14.907 2.962-8.421 0-15.59-3.133-7.112-3.187-12.233-8.83-5.121-5.524-8.08-13.387-2.901-7.917-2.902-16.919 0-9.853 3.073-17.546 3.072-7.745 8.478-13.387 5.347-5.581 12.404-8.545a38.3 38.3 0 0 1 14.85-2.962q8.022.001 15.135 3.019 7.111 3.02 12.29 8.488zm-8.477 57.308q3.184-5.184 4.609-11.735 1.477-6.55 1.479-14.641 0-8.316-1.65-15.267-1.594-6.949-4.723-11.849-3.131-4.84-7.852-7.52-4.724-2.734-10.811-2.734-6.828 0-11.607 3.133-4.78 3.135-7.795 8.374-2.846 5.014-4.267 11.735-1.366 6.723-1.366 14.128 0 8.204 1.479 14.812 1.478 6.609 4.666 11.735 3.071 5.014 7.738 7.861 4.664 2.793 11.152 2.792 6.087 0 10.981-2.849 4.892-2.845 7.967-7.975zm109.297-25.976q-.001 10.311-3.869 17.887-3.87 7.577-10.071 12.419-6.26 4.843-14.054 7.234-7.796 2.393-16.102 2.393h-33.456v-4.044c1.099 0 2.521-.09 4.267-.285q2.672-.341 3.528-.741 1.706-.74 2.447-2.164.795-1.479.796-3.532v-58.333q0-1.936-.683-3.475-.627-1.537-2.56-2.449a15.6 15.6 0 0 0-3.812-1.253q-2.048-.399-3.528-.514v-4.044h35.277q7.28 0 14.338 2.278 7.054 2.222 12.29 6.039 7.11 5.07 11.152 13.273 4.037 8.202 4.04 19.311zm-13.941-.06q-.001-8.145-2.162-14.697-2.163-6.606-6.316-11.507-3.927-4.67-9.672-7.349-5.69-2.675-12.688-2.677-2.333.001-5.291.114-2.901.062-4.324.114v62.15q0 5.186 3.016 7.178 3.014 1.994 9.274 1.994 7.225 0 12.631-2.563 5.405-2.563 8.762-7.121 3.526-4.784 5.121-11.052 1.647-6.323 1.649-14.584zm168.122-36.798q-1.423.06-3.3.684a15.2 15.2 0 0 0-3.471 1.538q-1.992 1.255-3.243 2.905-1.196 1.595-2.105 4.5-4.04 13.158-9.388 30.762a6091 6091 0 0 1-11.551 37.427h-5.234l-20.369-62.207-21.223 62.207h-5.007a45894 45894 0 0 1-11.664-41.357q-6.032-21.475-8.08-28.768a9.7 9.7 0 0 0-1.536-3.133q-.968-1.366-2.674-2.506-1.424-.968-3.357-1.424-1.878-.512-3.414-.627v-4.044h32.944v4.044q-4.325.23-7.396.855-3.016.628-3.016 2.108 0 .572.171 1.538.17.913.284 1.481 1.307 5.015 4.609 16.577 3.356 11.509 9.9 34.522l20.141-59.986h5.576l20.312 61.296a3095 3095 0 0 0 7.056-24.667q2.957-10.596 4.893-18.115 1.365-5.297 1.707-7.235.342-1.992.342-3.361-.001-1.936-2.674-3.247-2.619-1.309-8.535-1.767v-4.044h29.302zm78.396 52.979-1.536 23.812h-67.025v-4.044a93 93 0 0 0 4.552-.456q2.843-.398 3.698-.798 1.819-.854 2.504-2.222.737-1.366.74-3.475v-58.106q-.001-1.88-.626-3.304-.627-1.478-2.617-2.393-1.537-.739-4.153-1.31-2.56-.569-4.097-.684v-4.044h62.474v19.482h-4.267q-1.14-4.328-4.95-9.172-3.755-4.898-7.169-5.354a53 53 0 0 0-4.211-.342c-1.632-.08-3.49-.112-5.576-.114h-12.688v32.129h9.104q4.379 0 6.373-.797 2.049-.854 3.584-2.792 1.25-1.65 2.105-4.386.91-2.79 1.195-5.241h4.268v31.616h-4.268q-.229-2.734-1.251-5.754-.968-3.075-2.048-4.443-1.765-2.221-4.04-2.905-2.22-.684-5.917-.684h-9.104v24.268q0 3.648.512 5.754.513 2.109 1.991 3.19 1.477 1.083 4.04 1.424 2.56.285 7.283.285h4.95c2.048 0 3.773-.07 5.177-.228a32 32 0 0 0 4.438-.798q2.332-.624 3.3-1.652 2.616-2.733 5.462-8.26 2.902-5.581 3.698-8.203h4.095zm118.753-35.091h-3.926q-.512-2.05-1.877-4.842a40.6 40.6 0 0 0-2.959-5.355q-1.706-2.62-3.755-4.557-1.993-1.992-3.869-2.279-1.766-.227-4.438-.341c-1.783-.08-3.434-.112-4.95-.114h-3.3v64.656q0 1.881.797 3.476.795 1.537 2.788 2.393 1.024.4 4.268 1.082 3.298.684 5.121.741v4.044h-38.122v-4.044c1.062-.08 2.673-.226 4.836-.456q3.3-.342 4.552-.854 1.878-.739 2.731-2.108.909-1.422.91-3.76v-65.169h-3.3q-1.765.001-4.381.114a53 53 0 0 0-5.007.341q-1.878.229-3.926 2.279-1.991 1.994-3.698 4.557c-1.707 2.563-2.144 3.532-3.015 5.469q-1.309 2.848-1.821 4.728h-3.983v-21.932h70.325zm91.767 58.903h-21.735q-7.227-11.335-13.086-19.596a437 437 0 0 0-12.631-17.033h-8.25v25.635q0 1.994.626 3.531.624 1.483 2.674 2.279 1.024.4 3.585.74 2.56.342 4.324.399v4.044h-34.139v-4.044c.91-.08 2.219-.208 3.926-.399q2.615-.283 3.642-.74 1.706-.739 2.446-2.165.795-1.423.797-3.646v-58.448q0-1.992-.569-3.532-.57-1.538-2.674-2.336-1.424-.513-3.698-.911-2.278-.455-3.869-.57v-4.044h37.268q5.12 0 9.616 1.082 4.493 1.027 8.136 3.361 3.526 2.281 5.633 5.981 2.104 3.647 2.105 8.83 0 4.673-1.422 8.26a17 17 0 0 1-4.21 6.209q-2.56 2.452-6.145 4.272-3.584 1.768-7.908 3.02 5.973 7.92 9.9 13.33 3.982 5.412 9.729 13.159 2.502 3.418 4.495 5.07 2.049 1.596 4.04 2.62 1.477.742 3.698 1.14 2.218.4 3.698.456v4.046zm-29.928-60.271q0-7.348-4.21-11.621-4.211-4.328-11.892-4.329h-9.672v34.692h7.454q7.852 0 13.086-5.013 5.23-5.067 5.234-13.729zm114.364-16.52q-1.593.06-4.666.684-3.073.627-5.007 1.88-1.936 1.311-2.674 5.412-.74 4.102-.74 10.026v35.148q0 6.723-2.788 11.678-2.79 4.957-7.34 8.146-4.496 3.077-9.502 4.386-4.951 1.367-9.502 1.367-7.284 0-12.973-1.937-5.692-1.88-9.559-5.127-3.813-3.246-5.747-7.406-1.936-4.214-1.935-8.773v-47.794q0-1.993-.683-3.304-.627-1.366-2.617-2.506-1.423-.797-3.642-1.253-2.22-.512-3.642-.627v-4.044h33.627v4.044q-1.594.06-4.04.514-2.39.456-3.528.854-1.936.684-2.617 2.279-.626 1.596-.626 3.475v44.662q0 3.247.683 6.836.738 3.532 2.845 6.607 2.218 3.135 6.031 5.127 3.81 1.995 10.469 1.994 6.257 0 10.469-1.994 4.267-1.992 6.714-5.24 2.332-3.076 3.3-6.438.966-3.359.967-6.779v-33.155q0-6.322-.91-10.311-.912-4.043-2.674-5.298-1.992-1.423-5.462-2.222-3.415-.796-5.235-.912v-4.044h33.001v4.045zm59.879 39.706q2.56 2.848 3.755 6.267 1.25 3.361 1.252 7.861 0 10.71-7.909 17.659-7.91 6.949-19.629 6.95-5.406-.001-10.811-1.652-5.406-1.71-9.331-4.102l-2.447 4.159h-4.552l-.797-27.686h4.609q1.42 5.128 3.3 9.286 1.933 4.101 5.064 7.69a22.9 22.9 0 0 0 6.885 5.354q3.982 1.995 9.218 1.994 3.926 0 6.827-1.025 2.958-1.026 4.78-2.905a11.6 11.6 0 0 0 2.674-4.387q.908-2.563.91-5.868 0-4.84-2.731-9-2.732-4.215-8.136-6.38a350 350 0 0 0-8.478-3.247q-4.78-1.822-8.25-3.418-6.828-3.075-10.64-8.032-3.755-5.011-3.755-13.045 0-4.613 1.878-8.602 1.877-3.986 5.348-7.121 3.298-2.961 7.795-4.614a26.2 26.2 0 0 1 9.388-1.709q5.575 0 9.957 1.709 4.438 1.71 8.079 3.988l2.333-3.874h4.552l.455 26.831h-4.609a97 97 0 0 0-2.845-8.83q-1.537-4.213-4.04-7.633-2.449-3.303-5.974-5.241-3.529-1.992-8.648-1.994-5.406 0-9.218 3.475t-3.812 8.488q-.001 5.242 2.447 8.716 2.446 3.419 7.112 5.64a96 96 0 0 0 8.137 3.475q4.038 1.426 7.795 3.077a56 56 0 0 1 6.543 3.36q3.186 1.88 5.519 4.386zm87.386-21.818h-3.926q-.512-2.05-1.877-4.842a40.6 40.6 0 0 0-2.959-5.355q-1.707-2.62-3.755-4.557-1.992-1.992-3.869-2.279-1.765-.227-4.438-.341c-1.783-.08-3.433-.112-4.95-.114h-3.3v64.656q0 1.881.796 3.476.795 1.537 2.788 2.393 1.024.4 4.267 1.082 3.299.684 5.121.741v4.044h-38.122v-4.044c1.062-.08 2.672-.226 4.836-.456q3.298-.342 4.552-.854 1.877-.739 2.731-2.108.909-1.423.911-3.76v-65.169h-3.3q-1.765.002-4.381.114a53 53 0 0 0-5.007.341q-1.877.229-3.926 2.279-1.992 1.994-3.698 4.557c-1.706 2.563-2.145 3.532-3.016 5.469q-1.309 2.848-1.821 4.728h-3.983v-21.932h70.326z"/><path fill="#eed000" d="M1442.886 1066.189c.164-.07.257-.09.263-.09.064-.02 10.041 3.569 10.126 19.197q13.244-2.48 10.691 13.987s-10.482-2.834-12.193 3.143q-3.855 10.365 5.879 16.888s10.9 8.638 17.759-7.735 9.328-21.942 9.328-21.942c1.908-6.032 13.265-20.168 23.578-22.149 3.929-1.575 7.69-1.264 11.886-.261 0 0 9.024 1.953 9.28 9.494s-2.822 10.822-7.911 13.01c-5.626 2.419-12.573-2.773-12.573-2.773-2.422-.453-3.195.385-4.683 1.417-.685.475-3.541 3.61-5.196 7.139 0 0-5.009 10.588-7.398 18.675-1.882 6.368-6.03 25.629-25.531 28.52h-46.022c-19.501-2.891-23.649-22.152-25.531-28.52-2.39-8.087-7.398-18.675-7.398-18.675-1.655-3.529-4.511-6.664-5.196-7.139-1.487-1.031-2.261-1.869-4.683-1.417 0 0-6.948 5.192-12.574 2.773-5.089-2.188-8.168-5.469-7.911-13.01s9.281-9.494 9.281-9.494c4.196-1.002 7.957-1.314 11.886.261 10.313 1.981 21.67 16.117 23.577 22.149 0 0 2.469 5.569 9.328 21.942 6.858 16.373 17.759 7.735 17.759 7.735q9.733-6.524 5.879-16.888c-1.71-5.978-12.193-3.143-12.193-3.143q-2.552-16.467 10.691-13.987c.085-15.628 10.062-19.222 10.127-19.197q.016 0 .263.09z"/><path fill="#eed000" fill-rule="evenodd" stroke="#002d56" stroke-miterlimit="3.864" stroke-width="8.489" d="M1500.156 1591.96h-111.407l13.148-434.677h85.629zm-.477 241.716h-118.304l-.005-197.392 118.309-.037z"/><path fill="#eed000" stroke="#002d56" stroke-miterlimit="3.864" stroke-width="8.489" d="M1379.438 1613.774h119.926c8.354 0 15.125 5.091 15.125 11.372s-6.772 11.372-15.125 11.372h-119.926c-8.354 0-15.125-5.091-15.125-11.372s6.771-11.372 15.125-11.372z"/><path fill="#eed000" fill-rule="evenodd" stroke="#002d56" stroke-miterlimit="3.864" stroke-width="8.489" d="M1388.33 1592.438h104.688c7.438 0 13.468 4.776 13.468 10.668s-6.03 10.668-13.468 10.668H1388.33c-7.438 0-13.468-4.776-13.468-10.668s6.03-10.668 13.468-10.668z"/><path fill="none" stroke="#002d56" stroke-miterlimit="3.864" stroke-width="8.489" d="M1408.073 1673.258h63.204v130.138h-63.204z"/><path fill="#eed000" stroke="#002d56" stroke-miterlimit="3.864" stroke-width="4.9" d="M1406.756 1142.121h72.604c5.967 0 10.804 3.515 10.804 7.852s-4.837 7.851-10.804 7.851h-72.604c-5.967 0-10.804-3.515-10.804-7.851.001-4.336 4.838-7.852 10.804-7.852z"/><path fill="#eed000" fill-rule="evenodd" stroke="#002d56" stroke-miterlimit="3.864" stroke-width="10" d="M847.716 1857.296h1205.739v40.657H847.716z"/><path fill="#eed000" stroke="#002d56" stroke-miterlimit="3.864" stroke-width="6" d="M796.275 1897.608H2105.73v43.05H796.275z"/><path fill="#eed000" fill-rule="evenodd" stroke="#002d56" stroke-miterlimit="3.864" stroke-width="9.55" d="M883.369 974.46h1125.787v24.909H883.369z"/><path d="M1797.101 973.698c-58.327-139.731-193.696-237.364-351.38-237.364-157.589 0-292.886 97.769-351.272 237.364H954.513c64.724-214.771 260.381-372.222 491.209-372.222 230.985 0 426.756 157.157 491.414 372.153z" style="fill:#eed000;fill-rule:evenodd;stroke:#002d56;stroke-width:4.89989996;stroke-linejoin:round;stroke-miterlimit:3.86369991"/><path fill="#eed000" fill-rule="evenodd" stroke="#002d56" stroke-miterlimit="3.864" stroke-width="6" d="M913.621 999.682s19.459 11.64 35.665 46.297l1001.527-.04s16.471-38.751 39.159-46.332z"/><path d="M1162.093 1054.981s92.78 159.232 281.446 157.039c186.37-2.166 281.447-151.624 281.447-151.624l49.699 73.646s18.367 24.909-17.286 56.317c-125.957 110.957-225.731 132.764-313.859 132.129q-195.234-10.686-314.939-132.129c-14.354-11.935-17.287-27.617-12.965-40.614z" style="fill:#eed000;fill-rule:evenodd;stroke:#002d56;stroke-width:4.89989996;stroke-linejoin:round;stroke-miterlimit:3.86369991"/><path fill="none" stroke="#002d56" stroke-miterlimit="3.864" stroke-width="6.367" d="M1113.745 1166.262s-5.672-32.219 45.107-6.226l3.781-104.514m615.563 88.809c-16.206-34.927-45.918 7.851-45.918 7.851l-7.481-91.244"/><path fill="#eed000" stroke="#002d56" stroke-miterlimit="3.864" stroke-width="5" d="M943.869 1047.856h1006.944c3.58 0 6.482 3.027 6.482 6.761v2.252c0 3.734-2.902 6.761-6.482 6.761H943.869c-3.58 0-6.482-3.027-6.482-6.761v-2.252c-.001-3.734 2.902-6.761 6.482-6.761z"/><path fill="#eed000" d="M1032.874 1064.939c.164-.07.257-.09.263-.09.065-.02 10.041 3.569 10.126 19.197q13.244-2.48 10.692 13.987s-10.482-2.834-12.193 3.143q-3.855 10.365 5.879 16.888s10.9 8.638 17.759-7.735 9.328-21.942 9.328-21.942c1.907-6.032 13.264-20.168 23.578-22.149 3.929-1.575 7.69-1.264 11.886-.261 0 0 9.024 1.953 9.28 9.494s-2.823 10.822-7.911 13.01c-5.626 2.419-12.573-2.773-12.573-2.773-2.422-.453-3.196.385-4.683 1.417-.685.475-3.541 3.61-5.196 7.139 0 0-5.009 10.588-7.398 18.675-1.882 6.368-6.03 25.629-25.531 28.52h-46.022c-19.501-2.891-23.649-22.152-25.531-28.52-2.389-8.087-7.398-18.675-7.398-18.675-1.655-3.529-4.511-6.664-5.196-7.139-1.487-1.031-2.261-1.869-4.683-1.417 0 0-6.948 5.192-12.573 2.773-5.089-2.188-8.168-5.469-7.912-13.01.257-7.54 9.281-9.494 9.281-9.494 4.196-1.002 7.957-1.314 11.886.261 10.313 1.981 21.67 16.117 23.577 22.149 0 0 2.469 5.569 9.328 21.942s17.759 7.735 17.759 7.735q9.733-6.524 5.879-16.888c-1.711-5.978-12.193-3.143-12.193-3.143q-2.551-16.467 10.691-13.987c.086-15.628 10.062-19.222 10.127-19.197q.016 0 .263.09z"/><path fill="#eed000" fill-rule="evenodd" stroke="#002d56" stroke-miterlimit="3.864" stroke-width="8.489" d="M1088.871 1591.96H977.464l14.816-434.677h82.295zm3.449 241.716H974.016l-.001-197.392 118.305-.037z"/><path fill="#eed000" fill-rule="evenodd" stroke="#002d56" stroke-miterlimit="3.864" stroke-width="8.489" d="M973.205 1613.774h119.926c8.354 0 15.125 5.091 15.125 11.372s-6.772 11.372-15.125 11.372H973.205c-8.353 0-15.125-5.091-15.125-11.372-.001-6.281 6.771-11.372 15.125-11.372zm7.619-21.336h104.688c7.438 0 13.468 4.776 13.468 10.668s-6.03 10.668-13.468 10.668H980.824c-7.438 0-13.468-4.776-13.468-10.668s6.03-10.668 13.468-10.668z"/><path fill="none" stroke="#002d56" stroke-miterlimit="3.864" stroke-width="8.489" d="M1001.566 1673.258h63.204v130.138h-63.204z"/><path fill="#eed000" stroke="#002d56" stroke-miterlimit="3.864" stroke-width="4.9" d="M996.866 1143.786h72.604c5.967 0 10.804 3.515 10.804 7.852s-4.837 7.852-10.804 7.852h-72.604c-5.967 0-10.804-3.515-10.804-7.852s4.837-7.852 10.804-7.852z"/><path fill="#eed000" fill-rule="evenodd" stroke="#002d56" stroke-miterlimit="3.864" stroke-width="4.083" d="M948.896 1834.177h168.544v22.744H948.896z"/><path fill="#eed000" d="M1858.991 1066.189c.164-.07.257-.09.263-.09.065-.02 10.042 3.569 10.127 19.197q13.244-2.48 10.691 13.987s-10.482-2.834-12.193 3.143q-3.855 10.365 5.879 16.888s10.9 8.638 17.759-7.735 9.328-21.942 9.328-21.942c1.908-6.032 13.264-20.168 23.578-22.149 3.929-1.575 7.69-1.264 11.886-.261 0 0 9.024 1.953 9.28 9.494s-2.822 10.822-7.912 13.01c-5.625 2.419-12.573-2.773-12.573-2.773-2.422-.453-3.195.385-4.683 1.417-.685.475-3.541 3.61-5.196 7.139 0 0-5.009 10.588-7.398 18.675-1.882 6.368-6.03 25.629-25.531 28.52h-46.022c-19.501-2.891-23.649-22.152-25.531-28.52-2.39-8.087-7.399-18.675-7.399-18.675-1.655-3.529-4.51-6.664-5.196-7.139-1.487-1.031-2.261-1.869-4.683-1.417 0 0-6.948 5.192-12.574 2.773-5.089-2.188-8.168-5.469-7.911-13.01s9.281-9.494 9.281-9.494c4.196-1.002 7.957-1.314 11.886.261 10.313 1.981 21.67 16.117 23.578 22.149 0 0 2.469 5.569 9.328 21.942 6.858 16.373 17.759 7.735 17.759 7.735q9.733-6.524 5.878-16.888c-1.71-5.978-12.193-3.143-12.193-3.143q-2.552-16.467 10.691-13.987c.085-15.628 10.062-19.222 10.126-19.197q.016 0 .263.09z"/><path fill="#eed000" fill-rule="evenodd" stroke="#002d56" stroke-miterlimit="3.864" stroke-width="8.489" d="M1917.102 1591.96h-111.407l14.815-434.677h82.296zm6.152 241.716h-118.305l-1.248-197.392 119.553-.037z"/><path fill="#eed000" stroke="#002d56" stroke-miterlimit="3.864" stroke-width="8.489" d="M1803.856 1613.774h119.926c8.354 0 15.125 5.091 15.125 11.372s-6.772 11.372-15.125 11.372h-119.926c-8.354 0-15.125-5.091-15.125-11.372s6.771-11.372 15.125-11.372z"/><path fill="#eed000" fill-rule="evenodd" stroke="#002d56" stroke-miterlimit="3.864" stroke-width="8.489" d="M1809.948 1592.438h104.688c7.438 0 13.468 4.776 13.468 10.668s-6.03 10.668-13.468 10.668h-104.688c-7.438 0-13.468-4.776-13.468-10.668s6.029-10.668 13.468-10.668z"/><path fill="none" stroke="#002d56" stroke-miterlimit="3.864" stroke-width="8.489" d="M1831.408 1673.258h63.204v130.138h-63.204z"/><path fill="#eed000" stroke="#002d56" stroke-miterlimit="3.864" stroke-width="4.9" d="M1824.538 1142.121h72.604c5.967 0 10.804 3.515 10.804 7.852s-4.837 7.851-10.804 7.851h-72.604c-5.967 0-10.804-3.515-10.804-7.851s4.837-7.852 10.804-7.852z"/><path fill="#eed000" fill-rule="evenodd" stroke="#002d56" stroke-miterlimit="3.864" stroke-width="4.083" d="M1353.505 1834.177h168.544v22.744h-168.544z"/><path fill="#eed000" fill-rule="evenodd" stroke="#002d56" stroke-miterlimit="3.864" stroke-width="7.428" d="M727.79 1525.974c-28.631-20.578-58.882-15.162-58.882-15.162s21.861-29.11 56.721-14.621c22.148 9.206 41.056 43.321 97.237 7.581s77.986-53.798 127.488-70.397c50.861-17.054 90.754-20.577 102.639-24.909s30.48-11.121 39.975-68.231c2.161-12.997 54.02 108.303 54.02 108.303s-7.563 40.072-57.262 62.816-135.811 36.349-183.669 74.729c-16.206 12.996-47.347 35.467-66.175 63.087-44.297 64.981-90.484 72.292-90.484 72.292s41.88-36.678 53.48-86.101c2.161-9.206-1.371-50.612 15.126-67.148-17.517 17.56-61.868-17.038-56.181-12.455 0 0-5.402-9.207-34.033-29.784zm1072.306-184.698s8.643 49.278 105.34 74.188 111.823 56.318 127.489 63.899 56.371 36.771 99.938 22.202c17.164-5.74 65.126-18.954 69.041-16.017 1.468 2.447-13.703 27.896-15.561 30.097-32.083 38.016-44.297 43.863-56.181 49.819-25.956 13.01-27.962 14.589-46.457 15.704 0 0 17.286 21.661 19.987 56.859s49.699 70.938 49.699 70.938-62.664-16.245-90.214-53.61c-27.551-37.365-72.927-69.314-89.674-77.437-16.746-8.123-102.098-37.365-119.925-44.404s-73.468-36.281-81.031-83.393c-7.565-47.112 27.549-108.845 27.549-108.845z"/><path fill="#eed000" stroke="#002d56" stroke-miterlimit="3.864" stroke-width="7.428" d="M883.307 1379.172c-65.635-25.722-45.367-43.083-45.367-43.083 16.15-28.875 37.307-65.144 117.277-95.913 106.96-41.155 216.082-22.743 186.911 24.91-17.734 28.969-48.348 79.603-48.348 79.603s-12.695-34.115-71.037-12.455-76.352 30.839-79.813 42.288c-5.402 17.87-3.241 29.242 38.895 22.744-27.551 9.206-58.244-.399-92.704-15.732z"/><path fill="#eed000" stroke="#002d56" stroke-linejoin="round" stroke-miterlimit="3.864" stroke-width="6.367" d="M1883.557 1330.608c12.13 3.125 32.835 13.174 45.04 21.939 59.464 42.705 48.516 79.96 32.031 80.933-18.367 1.083 116.593-2.691 132.799-11.355s21.608-18.412 11.885-38.989-83.191-146.209-203.117-170.036-167.449 26.739-157.199 43.863c9.723 16.245 54.02 70.396 55.64 92.598 12.301-23.234 39.972-29.853 82.921-18.953z"/><g fill-rule="evenodd"><path fill="#002d56" d="m1826.076 1307.34-23.147-33.257 6.029 36.129-9.291 1.559-10.505-62.956 9.963-1.671 30.066 42.09 15.12-49.67 8.816-1.479 10.505 62.955-12.295 2.063-6.028-36.13-12.276 39.2zm95.567-24.126q-3.005 14.798-11.262 21.229-8.25 6.389-19.209 4.154-10.84-2.21-15.984-11.332-5.134-9.162-2.173-23.753l.724-3.565q2.76-13.594 10.746-20.902 8.025-7.298 20.124-4.831 11.822 2.411 16.104 12.35 4.32 9.947 1.612 23.293zm-13.264-3.569.345-1.699q2.347-11.565 1.598-17.545-.75-5.98-7.858-7.43-6.56-1.338-9.729 3.195-3.13 4.542-5.73 17.35l-.312 1.534q-2.618 12.891-1.668 18.092.948 5.201 7.94 6.627 5.734 1.17 9.339-3.491 3.643-4.653 6.075-16.633m64.429 31.184q-7.391 13.644-16.116 17.46-8.693 3.837-18.731-1.628l-19.48-10.604 30.384-56.097 17.472 9.511q11.976 6.519 13.193 16.569 1.272 10.031-5.494 22.522zm-11.846-6.93.826-1.524q4.993-9.22 4.602-15.739-.394-6.517-5.605-9.357l-4.474-2.435-21.323 39.368 5.495 2.991q5.107 2.78 9.793.277 4.705-2.54 10.686-13.581m46.537 9.562-11.979 12.221 12.837 12.648-6.744 6.88-12.838-12.648-12.6 12.854 17.698 17.438-6.655 6.789-27.42-27.016 44.635-45.533 26.247 25.86-6.655 6.789zm6.365 100.924-6.835-11.635q13.188-7.975 17.519-13.61 4.385-5.621 1.497-10.539l-1.628-2.77-24.651 14.556-6.917-11.773 54.864-32.398 12.084 20.568q4.414 7.513 2.827 12.649-1.568 5.168-6.547 8.111l-2.982 1.76q-4.69 2.77-9.133 1.709-4.444-1.061-8.166-6.231 1.693 7.3-3.149 14.312-4.785 7.026-18.783 15.291m31.291-36.014 1.49-.88q3.562-2.103 4.032-4.806t-1.606-6.234l-2.258-3.844-14.507 8.567 1.871 3.186q2.46 4.19 5.119 5.046 2.657.853 5.859-1.035m-203.551 114.797-11.285-8.22 5.378-15.01-16.149-11.763-12.675 9.696-8.983-6.543 53.898-39.643 10.28 7.488zm-2.834-32.392 7.733-23.387-19.407 14.884zm73.71 5.881-11.816-5.779-23.75 48.818-12.249-5.99 23.75-48.817-12.105-5.92 4.161-8.554 36.172 17.687zm29.238 1.25-24.878 58.758-12.545-5.339 24.878-58.758zm48.255 58.348q-6.128 13.797-15.579 18.282-9.435 4.448-19.651-.113-10.107-4.511-13.159-14.533-3.036-10.06 3.005-23.663l1.476-3.323q5.628-12.674 15.004-18.076 9.411-5.384 20.69-.35 11.022 4.92 13.057 15.553 2.07 10.649-3.454 23.092zm-12.181-6.363.704-1.584q4.788-10.782 5.348-16.783c.56-6.001-1.651-6.988-6.069-8.96q-6.116-2.73-10.189 1.009-4.037 3.755-9.34 15.696l-.635 1.43q-5.339 12.02-5.534 17.302-.198 5.284 6.322 8.193 5.345 2.387 9.872-1.381 4.562-3.752 9.521-14.922m54.722 33.251 18.84-32.715 8.4 4.863-31.835 55.281-5.068-2.934-6.209-49.899-20.001 34.729-8.4-4.863 31.835-55.281 6.318 3.657zM944.877 1341.726l-8.452 5.091-47.121-46.084 11.819-7.12 29.778 29.241-10.503-40.852 8.281-4.988 31.117 28.433-12.323-39.755 9.449-5.692 18.431 63.367-8.452 5.092-32.254-29.082zm47.15-90.375 18.616 61.043-13.033 3.995-18.616-61.043zm73.217 32.578q1.41 10.054-4.266 15.766-5.683 5.671-16.995 7.264-6.471.911-11.028.742t-7.625-.976l-1.527-10.892q2.468 1.148 7.487 1.722 5.011.533 9.697-.128 6.589-.927 8.792-3.118 2.243-2.194 1.643-6.469-.388-2.765-2.473-4.649-2.087-1.885-10.955-4.224-7.069-1.907-11.337-5.793-4.275-3.925-5.343-11.55-1.022-7.288 4.148-13.143 5.208-5.86 15.61-7.326 5.04-.71 9.174-.395 4.167.269 5.888.708l1.351 9.635a126 126 0 0 0-7.005-.594c-2.313-.129-4.738-.01-7.279.342q-5.399.76-7.534 2.855t-1.765 4.734q.47 3.353 2.497 4.817 2.028 1.467 11.19 3.592 8.532 1.96 12.616 6.253 4.116 4.252 5.039 10.827m197.065-43.398q-2.931 5.768-8.605 7.902-5.62 2.115-13.013-1.661-4.323-2.209-6.658-4.161-2.303-1.934-3.462-3.81l4.425-8.707q1.086 1.315 3.085 3.048a23.5 23.5 0 0 0 4.375 2.9q2.213 1.131 4.473.671t3.792-3.476l21.649-42.594 12.144 6.203zm69.182 25.51q-3.223 8.412-9.955 11.306-6.719 2.853-17.008-1.105-11.04-4.246-13.914-11.198c-2.874-6.952-1.595-10.295.967-16.983l15.356-40.087 12.723 4.894-15.977 41.707q-1.861 4.858-.741 8.098 1.172 3.216 6.299 5.188 4.752 1.829 7.867.534 3.15-1.28 5.301-6.888l15.886-41.47 9.43 3.627zm67.354 13.763q-1.235 10.077-8.191 14.122-6.953 4.003-18.292 2.607-6.486-.799-10.844-2.145c-4.358-1.346-5.277-1.871-7.114-2.922l1.337-10.917q2.088 1.749 6.787 3.606 4.704 1.815 9.4 2.393 6.604.813 9.298-.731 2.732-1.537 3.258-5.822.34-2.772-1.189-5.133c-1.529-2.361-4.183-3.882-9.491-6.922q-6.335-3.676-9.455-8.537-3.116-4.9-2.18-12.543.895-7.307 7.4-11.619 6.544-4.309 16.97-3.026 5.052.622 8.963 1.999 3.955 1.34 5.504 2.212l-1.183 9.657a127 127 0 0 0-6.613-2.391q-3.3-1.086-7.119-1.558-5.412-.666-8.014.803-2.603 1.47-2.927 4.115-.411 3.36 1.168 5.301 1.58 1.943 9.881 6.374 7.736 4.107 10.572 9.314 2.881 5.17 2.074 11.763m62.776-31.705-13.146-.229-.947 54.306-13.626-.238.947-54.306-13.466-.236.166-9.516 40.238.703zm37.181-13.066 7.758 63.358-13.527 1.665-7.758-63.357zm76.203 44.373q-1.06 1.342-4.325 3.272-3.257 1.969-7.893 3.392-11.693 3.584-21.41-1.756-9.692-5.391-14.196-20.157l-.753-2.468q-4.196-13.755.738-24.379 4.971-10.634 16.28-14.102 4.867-1.491 8.312-1.884 3.43-.432 5.529-.01l2.961 9.709q-1.933-.423-4.991-.284c-2.015.09-4.286.517-6.816 1.292q-7.054 2.162-9.276 9.168-2.184 6.995.926 17.19l.259.85q3.332 10.923 8.603 15.014 5.31 4.08 11.712 2.118 4.33-1.327 7.127-3.157 2.782-1.869 4.338-3.231zm18.875-67.635 7.758 15.265 16.036-8.192 4.368 8.594-16.037 8.191 8.161 16.057 22.107-11.293 4.31 8.48-34.25 17.496-28.907-56.875 32.787-16.748 4.31 8.48zm-671.314 303.931q7.511 13.582 6.037 23.01-1.44 9.411-11.43 14.96l-19.385 10.769-30.885-55.839 17.387-9.658q11.917-6.62 21.028-2.248 9.124 4.317 16.001 16.75zm-12.193 6.29-.839-1.517q-5.076-9.176-10.772-12.35-5.696-3.171-10.884-.291l-4.452 2.473 21.675 39.188 5.469-3.038q5.082-2.823 5.493-8.131.388-5.342-5.69-16.334m69.656-30.291q5.886 13.904 2.713 23.894c-2.127 6.636-6.622 11.411-13.485 14.333q-10.185 4.336-19.578-.263-9.41-4.635-15.214-18.344l-1.418-3.349q-5.408-12.772-2.954-23.332 2.49-10.574 13.857-15.41 11.107-4.727 20.253 1.033 9.181 5.745 14.492 18.284zm-12.95 4.592-.676-1.597q-4.6-10.865-8.598-15.369t-10.676-1.661q-6.163 2.622-6.214 8.159-.014 5.521 5.081 17.555l.61 1.441q5.128 12.112 8.849 15.859 3.72 3.749 10.289.953 5.387-2.292 5.725-8.181.376-5.903-4.39-17.159m63.118 11.569-28.807-28.473 12.498 34.424-8.852 3.23-21.777-59.983 9.492-3.464 37.217 35.893 5.836-51.603 8.4-3.065 21.777 59.984-11.715 4.274-12.497-34.424-4.942 40.788zm83.948-631.775q-.058 1.967-1.728 6.068-1.633 4.13-4.889 8.783-8.212 11.73-20.639 14.089-12.437 2.294-26.474-7.534l-2.346-1.642q-13.074-9.155-15.745-22.2c-1.762-8.722 0-16.864 5.299-24.428q3.42-4.883 6.285-7.748 2.827-2.891 5.016-4.053l9.229 6.462q-2.042 1.037-4.727 3.395-2.658 2.323-5.323 6.13-4.955 7.077-2.256 14.925 2.726 7.812 12.416 14.597l.808.565q10.383 7.27 17.928 7.052 7.572-.257 12.069-6.678 3.043-4.344 4.351-8.014 1.27-3.694 1.766-6.042zm34.562-85.24q12.056 11.643 12.86 23.513c.514 7.894-2.263 14.978-8.327 21.26q-9 9.32-20.891 8.997-11.923-.355-23.812-11.835l-2.904-2.804q-11.075-10.695-12.882-22.815-1.773-12.153 8.271-22.554 9.815-10.164 21.929-8.517 12.145 1.615 23.02 12.114zm-11.828 10.897-1.385-1.337q-9.421-9.098-15.546-11.88t-12.027 3.331q-5.446 5.64-3.187 11.41 2.29 5.736 12.726 15.813l1.249 1.207q10.503 10.143 16.017 12.27 5.514 2.129 11.32-3.883 4.76-4.93 2.66-11.201-2.067-6.305-11.827-15.73m74.97-54.438-24.641-33.915 9.191-6.678 41.638 57.31-5.545 4.029-54.832-15.172 26.158 36.004-9.191 6.678-41.637-57.31 6.912-5.022zm88.233-35.895q4.762 10.21.236 18.278-4.546 8.024-16.671 13.679-6.935 3.234-12.077 4.647-5.143 1.415-8.823 1.628l-5.158-11.062c2.08.239 5.048-.02 8.905-.786q5.765-1.187 10.787-3.528 7.062-3.293 8.827-6.396 1.808-3.12-.216-7.461-1.31-2.808-4.236-4.085-2.927-1.277-13.57-.665-8.497.442-14.494-2.202-6.018-2.684-9.628-10.428-3.453-7.402.464-15.445 3.957-8.061 15.105-13.26 5.403-2.519 10.117-3.63 4.737-1.172 6.798-1.305l4.563 9.786a155 155 0 0 0-8.01 1.818q-3.934 1.007-8.018 2.91-5.786 2.699-7.506 5.676c-1.72 2.977-1.303 3.871-.47 5.658q1.588 3.405 4.315 4.255 2.729.853 13.633-.09 10.148-.899 16.068 2.245 5.944 3.084 9.059 9.763m61.291-58.684-14.873 3.985 15.6 58.223-15.417 4.131-15.6-58.223-15.236 4.083-2.734-10.203 45.526-12.198zm41.377-15.76 15.923-1.114 4.945 70.668-15.923 1.114zm101.247 12.413-15.361-1.074-4.205 60.129-15.922-1.113 4.205-60.13-15.734-1.1.737-10.536 47.016 3.288zm77.499 60.652q-2.924 9.562-10.465 13.196-7.529 3.59-19.874-.185-13.244-4.05-17.264-11.611t-.534-18.965l13.931-45.566 15.263 4.667-14.494 47.406q-1.689 5.522-.07 9.06 1.676 3.508 7.827 5.387 5.7 1.744 9.195.111 3.536-1.617 5.487-7.993l14.411-47.137 11.313 3.459zm88.977-4.447-13.72-6.991-27.365 53.707-14.221-7.246 27.365-53.707-14.054-7.161 4.795-9.411 41.995 21.398zm39.141 12.629 12.912 9.382-41.639 57.309-12.912-9.382zm62.126 103.624q-11.851 11.85-23.734 12.448-11.85.563-21.112-8.697-9.162-9.161-8.631-21.045.563-11.916 12.249-23.601l2.854-2.855q10.887-10.887 23.037-12.481 12.182-1.562 22.406 8.664 9.99 9.991 8.133 22.074-1.828 12.115-12.514 22.805zm-10.688-12.017 1.361-1.361q9.261-9.261 12.149-15.336c2.888-6.075.885-8.077-3.12-12.083q-5.544-5.544-11.352-3.385-5.776 2.191-16.033 12.448l-1.229 1.228q-10.325 10.323-12.547 15.801-2.225 5.476 3.685 11.386 4.845 4.845 11.153 2.855 6.337-1.959 15.933-11.553m54.647 73.701 33.915-24.64 6.678 9.191-57.311 41.637-4.028-5.545 15.171-54.832-36.004 26.158-6.677-9.19 57.31-41.638 5.021 6.912z"/><path fill="#eed000" stroke="#eed000" stroke-miterlimit="3.864" stroke-width="1.633" d="M1673.098 1398.951s3.906-4.294 5.173-1.16 1.536 5.806.452 6.977-.955 1.911-2.49 3.876c-1.534 1.965-.854 3.088-2.335 4.033s-2.161.519-3.793.433l-.664 4.873-1.062 4.073.612 3.918 2.784 6.23-2.123-4.669 2.972 5.094c2.25 5.935 23.638 11.897 31.387 15.364 16.131 7.216 13.608 41.517 15.307 44.913s8.489 48.816 8.489 56.457-8.489 48.816-9.338 57.306c-.423 4.23-1.479 14.363-2.536 24.621-.209 2.027-3.119-.638-4.039 1.186-1.219 2.418-1.042 9.375-.753 11.677-.507 5.008-1.932 8.902-2.163 11.448-.849 9.339-9.455 10.211-9.455 10.211s-.306 31.94-2.004 39.58c-1.698 7.641-2.853 9.096-.306 30.321s-3.396 47.543-3.396 47.543-8.767 38.694-10.465 44.637 1.126 11.396 1.975 15.64c.849 4.245.849 11.037.849 11.037h-74.647c-1.898 0 1.311-6.715 3.82-11.461 1.162-2.198 4.669-5.518 9.763-6.367s5.518-6.367 8.49-13.159c2.971-6.792 1.698-21.224-.849-30.139s-5.943-30.563-5.943-38.204-4.213-25.045-8.458-36.931-6.367-37.779-6.367-40.326c0-1.111-.485-2.545-1.384-4.796-1.162-2.908-1.349-7.181-3.741-13.882-4.245-11.885-3.852-26.318-4.276-38.628s-5.094-25.894-7.245-28.904l-1.313-5.318-13.092 4.083-12.657 9.911c-2.787 2.519-5.826 2.939-10.944 3.396-9.909.885-19.817-10.743-22.142-27.55-2.569-18.578 1.101-26.54 21.775-26.476l9.187.02 7.984.266H1578s2.318 4.523-1.288 6.119-4.635 1.862-4.635 1.862l4.613 5.282c-.086.01 2.499-1.738 10.188-5.943l2.865-6.686c.212-4.245.531-5.2-.318-9.869s-2.497-31.513-2.497-37.88.185-13.9.833-21.25c.59-6.686.5-21.587 3.75-27.917 4.032-7.853 25.833-11.25 25.833-11.25s9.435-1.033 10.708-3.581c.475-.949 2.845-5.021 3.853-6.611-6.068-2.154-8.059-9.613-8.947-11.429-.924-1.889-2.547-10.613-2.759-11.461-.313-1.253-2.214-9.138-3.278-12.261-1.063-3.123-.16-8.814-.16-8.814l-6.905-.759-8.351-.642s-4.669-.654-5.871-1.125c-1.202-.472-5.249-1.298-5.249-1.298s-6.634-5.682-.055-10.245 14.313-8.793 15.579-9.545 1.773-2.002 1.773-2.002l-.118-1.642c-1.514-2.329-2.985-5.474-4.876-12.321-1.89-6.847 16.079-9.705 16.079-9.705 5.198-.446 22.627 1.861 20.833 1.465 3.639.804 6.019.674 12.974.63 6.955-.04 16.025 2.476 21.081 3.559s10.211 5.763 12.82 10.604 13.172 10.963 16.286 13.989c4.711 4.579 10.31 14.174 12.465 17.678 3.769 6.128-.296 4.665-1.562 5.417-5.89 3.496-38.687-3.9-35.828-3.545 2.348.292 1.797-.544-.74-1.913l-.017 2.313-1.91 7.216z"/></g><path fill="none" stroke="#002d56" stroke-miterlimit="3.864" stroke-width="4.083" d="M1638.242 1490.782c1.041-17.388 2.469-31.719 5.094-42.874.849-3.608 0-5.306 0-5.306-4.52-.108-7.562-.451-12.24-5.861"/><path fill="none" stroke="#002d56" stroke-miterlimit="3.864" stroke-width="4.9" d="m1609.604 1680.391.999-7.205s2.233-4.119 1.384-12.184 0-30.563 2.123-42.024c2.009-10.852 19.039-44.571 20.737-53.486 1.465-7.689 1.698-33.535 1.698-35.657 0-.704-.841-3.159-.425-12.735"/><path fill="none" d="M1595.341 1591.771c2.151 3.01 6.82 16.594 7.245 28.904s-1.635 26.743 2.61 38.628c2.393 6.701 4.246 10.973 5.408 13.882.899 2.25 4.717 3.685 4.717 4.796 0 2.547 2.122 28.441 6.367 40.326s6.792 29.29 6.792 36.931 3.396 29.29 5.943 38.204 3.82 23.347.849 30.139-3.805 10.987-8.49 13.159c-3.602 1.67-5.356 2.389-8.185 5.836-3.405 4.151-7.297 11.992-5.399 11.992h71.314s0-6.792-.849-11.037-5.943-10.188-4.245-16.131 12.735-44.147 12.735-44.147 5.943-26.318 3.396-47.543-3.396-21.225-1.698-28.865c1.698-7.641 3.542-38.112 3.542-38.112s13.318-3.578 14.167-12.917 6.062-40.661 6.911-49.151 9.338-49.665 9.338-57.306-6.792-53.061-8.489-56.457 0-29.714-16.131-36.93c-7.75-3.467-28.313-17.412-30.563-23.347l-2.972-5.094"/><path fill="none" stroke="#002d56" stroke-linejoin="round" stroke-miterlimit="3.864" stroke-width="5.421" d="m1631.908 1432.383-3.853 6.608s-32.509 6.98-36.542 14.833c-3.25 6.33-4.583 42.8-4.583 49.167s1.647 33.211 2.497 37.88.531 5.624.318 9.869"/><path fill="none" stroke="#002d56" stroke-miterlimit="3.864" stroke-width="4.9" d="M1650.553 1538.749c.424 3.396-.451 25.145 8.49 39.053 3.821 5.943 20.519 38.312 24.196 42.449 2.2 2.475 7.857 3.437 9.283 6.806 7.375 17.43-.417 34.583 10 37.083l2.917 10"/><path fill="none" stroke="#002d56" stroke-miterlimit="3.864" stroke-width="4.083" d="M1673.771 1432.057c-1.772 2.453-13.635 9.583-20.625 9.583-2.547 0-1.042 5.208-2.169 11.362-1.187 6.482-1.273 43.298-.424 47.968.344 1.896-.325 2.864-.425 8.914"/><path d="m1684.847 1477.575 4.334 17.027 5.943 31.412 2.122 19.102.425 16.979-.425 14.433-1.698 10.188-2.122 9.339-3.821 30.563c12.31-2.971 20.409-.09 26.318 4.669" style="fill:none;stroke:#002d56;stroke-width:4.89989996;stroke-linecap:round;stroke-linejoin:round;stroke-miterlimit:3.86369991"/><path fill="none" stroke="#002d56" stroke-miterlimit="3.864" stroke-width="4.9" d="m1603.596 1446.325.833 2.917c-1.158-6.398 19.38 84.414 89.421 126.863l3.396 2.124"/><path fill="none" stroke="#002d56" stroke-miterlimit="3.864" stroke-width="4.9" d="M1617.346 1442.575c7.356 23.38 29.381 81.816 79.688 112.305l.637 4.245m-69.733 22.518c12.917 2.707 21.249 2.705 32.916-.42m-12.702 66.566c2.543 17.639 5.684 38.712 6.646 42.078 1.698 5.943 3.396 35.657 3.396 35.657l.849 28.865.849 36.506v42.449q-10.458 7.316-10.982 21.836"/><path fill="none" stroke="#002d56" stroke-linejoin="round" stroke-miterlimit="3.864" stroke-width="4.517" d="M1578.322 1556.962c-4.333 6.515-25.726-5.853-26.81 12.606-.833 14.186 1.913 30.217 15.631 31.979l10.096-6.678 2.703-2.709"/><path fill="#eed000" fill-rule="evenodd" d="M1565.595 1549.397c-5.883-92.15-3.148-172.881 12.134-234.008-41.149 59.743-24.225 234.072-24.225 234.072z"/><path fill="none" stroke="#002d56" stroke-linejoin="round" stroke-miterlimit="3.864" stroke-width="5.421" d="m1589.851 1549.361-2.971 8.065c-7.689 4.205-10.07 4.427-9.984 4.422"/><path fill="none" stroke="#002d56" stroke-linejoin="round" stroke-miterlimit="3.864" stroke-width="4.517" d="M1575.868 1559.857s7.545 20.054 1.37 35.011"/><path fill="none" stroke="#002d56" stroke-linejoin="round" stroke-miterlimit="3.864" stroke-width="3.488" d="m1565.802 1549.922 8.337.184h3.863s2.318 4.523-1.288 6.119-6.069 1.561-6.069 1.561"/><path fill="none" stroke="#002d56" stroke-miterlimit="3.864" stroke-width="3.488" d="M1568.28 1600.448c-2.787 2.519-5.826 2.939-10.944 3.396-9.909.885-19.817-10.743-22.142-27.55-2.569-18.578-.094-26.309 18.311-26.832"/><path fill="none" stroke="#002d56" stroke-miterlimit="3.864" stroke-width="3.488" d="M1571.481 1557.615h-13.211s-7.026 1.87-7.34 7.583c-.5 9.099-.665 21.964 3.25 27.019l3.915 4.044"/><path fill="none" stroke="#002d56" stroke-miterlimit="3.864" stroke-width="4.083" d="m1616.792 1380.182 1.146 6.875-1.628 2.95-7.142-.471-8.368-.277s-4.692-.449-5.914-.868-5.299-1.067-5.299-1.067-6.055-8.015.316-12.86 12.934-8.258 14.167-9.064c1.232-.806 1.843-.596 1.843-.596"/><path fill="none" stroke="#002d56" stroke-miterlimit="3.864" stroke-width="1.633" d="m1616.717 1381.679.001 7.77" clip-rule="evenodd"/><path fill="none" stroke="#002d56" stroke-miterlimit="3.864" stroke-width="3.267" d="M1617.845 1387.464s-1.984 6.644-.921 9.767 2.965 11.009 3.278 12.261c.212.849 1.836 9.573 2.759 11.461.923 1.889 3.04 9.881 9.695 11.662s14.082.534 18.321-2.312"/><path fill="none" stroke="#002d56" stroke-miterlimit="3.864" stroke-width="2.45" d="M1630.726 1417.067s3.239-1.181 4.339-.714 4.25.836 4.25.836 3.923-.715 5.232-.339 3.397.381 4.015.311m-14.989 4.111s7.731 1.508 10.972.145m-.256-33.323s6.973-2.867 13.075 1.645"/><path fill="none" stroke="#002d56" stroke-miterlimit="3.864" stroke-width="1.96" d="M1635.42 1387.669c.537 1.46-.503 5.7-1.41 7.39s-1.169 4.744-1.748 6.043c-.58 1.299-1.309 3.51-1.271 4.739s.043 1.127 1.933 2.146 3.222.139 4.676-.296 2.746-.849 4.055-.474c1.31.375 3.204-.65 3.172-1.981s-.441-3.295-1.321-4.057-2.759-1.985-2.759-1.985"/><path fill="none" stroke="#002d56" stroke-miterlimit="3.864" stroke-width="2.45" d="M1622.391 1388.52c1.054-.154 7.747-3.906 13.305-.04"/><ellipse cx="-1652.333" cy="-1364.352" fill="#002d56" stroke="#002d56" stroke-miterlimit="3.864" stroke-width="1.633" rx="4.574" ry="1.136" transform="rotate(-178.997)"/><path fill="none" stroke="#002d56" stroke-miterlimit="3.864" stroke-width="3.267" d="M1631.908 1432.383c.243.09.492.164.748.232 6.655 1.78 14.082.534 18.321-2.312"/><path fill="none" stroke="#002d56" stroke-miterlimit="3.864" stroke-width="3.265" d="M1615.528 1339.161s-17.399 5.157-15.212 11.913 3.794 9.833 5.407 12.093c1.614 2.26 4.803 11.067 5.803 13.526s.394 6.934 4.449 4.939c23.026-11.331 72.591 8.278 61.929 7.423-2.872-.23 32.086 6.995 37.816 3.247 1.232-.806 3.696-2.418-.335-8.374-2.305-3.406-9.316-12.335-14.221-16.703-3.242-2.887-12.651-9.047-15.469-13.768-2.817-4.72-9.578-8.664-14.674-9.525-5.097-.861-14.266-2.983-21.211-2.635s-8.98-.282-12.65-.927c1.807.319-16.46-1.88-21.632-1.209z"/><path fill="none" stroke="#002d56" stroke-miterlimit="3.864" stroke-width="4.9" d="M1657.521 1705.81s18.333 11.248 40-.419c20.187-10.869 3.75-2.084 3.75-2.084m-87.085 5s20.29 9.595 41.123-1.239"/><ellipse cx="-1787.134" cy="-1213.38" fill="#002d56" stroke="#002d56" stroke-miterlimit="3.864" stroke-width="1.633" rx="4.808" ry="1.195" transform="rotate(-173.996)"/><path fill="none" stroke="#002d56" stroke-miterlimit="3.864" stroke-width="4.9" d="M1623.772 1593.309c12.292 4.582 31.25 3.332 43.124-.418"/><path fill="#eed000" fill-rule="evenodd" stroke="#002d56" stroke-miterlimit="3.864" stroke-width=".68" d="M1779.83 1834.177h168.543v22.744H1779.83z"/><path fill="#b50027" d="M0 2880h6912v1440H0z"/></svg>