<?xml version="1.0" encoding="utf-8"?><svg version="1.1" id="레이어_1" xmlns="http://www.w3.org/2000/svg" xmlns:xlink="http://www.w3.org/1999/xlink" x="0px" y="0px" viewBox="0 0 1350 900" enable-background="new 0 0 1350 900" xml:space="preserve"><g><rect x="0" y="0" fill="#FFFFFF" width="1350" height="900"/><g><g><path fill="#014693" d="M932.7158,385.7912c1.27-6.1104,1.9575-11.4441,2.0641-16.0033h-59.4053 c-4.7643,0-10.0616-0.3106-15.8826-0.9316v19.5764h45.8394c-5.0599,24.458-21.926,52.0807-53.3343,75.7117l14.4836,13.0059 c14.8488-10.1459,27.2674-21.215,37.3405-33.1753l31.436,32.0873l16.5195-13.0505l-35.2344-36.6637 C924.2417,413.7061,929.6604,400.1975,932.7158,385.7912z"/><path fill="#014693" d="M585.301,472.9546v18.9561h85.7039v28.8979h24.1456v-46.9217h-94.467 C596.1243,473.8869,590.9967,473.5756,585.301,472.9546z"/><path fill="#014693" d="M588.5637,438.7734h105.1882v-17.7123H612.243v-8.0803h80.2659V395.579H612.243v-8.0787h81.8195v-17.7125 H585.923c1.7597,4.6612,2.6407,9.8415,2.6407,15.5371V438.7734z"/><path fill="#014693" d="M574.1137,446.3867v18.9545h135.019v-18.0237h-119.481 C585.0923,447.3175,579.9137,447.0078,574.1137,446.3867z"/><path fill="#014693" d="M765.7521,494.5521h74.6712v-43.1936h-83.2789c-4.5591,0-9.6337-0.3627-15.2264-1.0881v18.4892h74.8267 v8.39H739.899c1.449,5.2831,2.1744,10.2035,2.1744,14.7611v28.8979h99.1284v-17.8665h-75.4497V494.5521z"/><path fill="#014693" d="M819.6039,383.3053v3.7289h-20.3541v-17.868h-25.0757c1.242,4.8698,1.8633,9.1667,1.8633,12.8955v9.9443 h-30.4836v-22.5292h-25.3881c1.345,4.8705,2.0189,9.3761,2.0189,13.5173v60.1287h77.0651V432.558h20.3541v10.5646h22.0635 v-76.4424h-25.7915C818.3617,373.1034,819.6039,378.6441,819.6039,383.3053z M776.0375,425.5658h-30.4836v-16.1581h30.4836 V425.5658z M819.6039,415.9329h-20.3541v-12.4293h20.3541V415.9329z"/><path fill="#014693" d="M1217.8282,483.9077v-31.541h42.3866v-18.9546h-84.3058v-44.4366h84.6173v-19.2658h-110.9376 c1.6564,4.6612,2.4858,9.7886,2.4858,15.3814v67.2756h42.075v31.541h-40.2101c-4.5593,0-9.7382-0.3112-15.538-0.9323v20.1983 h135.0195v-19.2659H1217.8282z"/><path fill="#014693" d="M977.9928,366.6801h-27.5643c2.486,6.4232,3.7299,11.964,3.7299,16.6251v137.5033h23.8344v-84.367 h16.7161v-19.8868h-16.7161V366.6801z"/><path fill="#014693" d="M1098.8118,383.3053v137.5033h23.8342V366.6801h-27.564 C1097.5677,373.1034,1098.8118,378.6441,1098.8118,383.3053z"/><path fill="#014693" d="M1077.1909,385.7912c1.2698-6.1104,1.9575-11.4441,2.0641-16.0033h-23.9027v-15.713h-26.8794 c1.2422,4.8698,1.8651,9.1161,1.8651,12.7406v2.9724h-10.4883c-4.7643,0-10.0618-0.3106-15.8828-0.9316v19.5764h45.8396 c-5.0598,24.458-21.9259,52.0807-53.3345,75.7117l14.4838,13.0059c14.8487-10.1459,27.2674-21.215,37.3405-33.1753 l31.4359,32.0873l16.5192-13.0505l-35.2344-36.6637C1068.7168,413.7061,1074.1353,400.1975,1077.1909,385.7912z"/></g><g><radialGradient id="SVGID_1_" cx="1970.0016" cy="1463.4406" r="106.6218" gradientTransform="matrix(1.1861 0 0 1.1861 -1916.5099 -1342.6669)" gradientUnits="userSpaceOnUse"><stop offset="0" style="stop-color:#FFFFFF"/><stop offset="0.0158" style="stop-color:#F3FBF7"/><stop offset="0.0932" style="stop-color:#BEE8D4"/><stop offset="0.1716" style="stop-color:#90D8B6"/><stop offset="0.2494" style="stop-color:#6ACB9E"/><stop offset="0.3265" style="stop-color:#4DC18B"/><stop offset="0.4027" style="stop-color:#39BA7D"/><stop offset="0.4777" style="stop-color:#2CB575"/><stop offset="0.55" style="stop-color:#28B472"/><stop offset="0.5993" style="stop-color:#21A278"/><stop offset="0.6982" style="stop-color:#117286"/><stop offset="0.78" style="stop-color:#014693"/></radialGradient><path fill="url(#SVGID_1_)" d="M419.7069,344.7639c34.218,0,65.3435,13.1875,88.6164,34.7358v-106.726h-44.8956v35.0104 c-11.873-4.5028-25.6387-7.7563-41.0789-8.3748c-0.8722-0.0331-4.4112-0.0331-5.2828,0 c-15.4413,0.6184-29.2064,3.872-41.0794,8.3748v-35.0104h-44.8956v106.726 C354.3634,357.9514,385.4895,344.7639,419.7069,344.7639z"/><polygon fill="#014693" points="158.9207,478.0418 114.0073,478.0418 114.0073,549.1101 297.2168,549.1101 297.2168,510.8364 158.9207,510.8364 "/><path fill="#014693" d="M157.1864,432.1265c11.5043,6.6277,26.5587,19.3048,31.4539,41.7303h41.6727 c-5.8204-43.7789-33.8869-66.9721-54.4175-78.2959c3.1172-10.5063,4.5451-20.5319,5.0869-29.097h41.0089v-38.2755H89.151v38.2755 h47.0748c-0.7713,13.1841-4.0207,30.6652-14.5417,44.2973c-10.1927,13.2075-24.8273,23.0909-45.1051,28.1424l17.5412,32.7527 C120.984,464.4979,142.1189,451.263,157.1864,432.1265z"/><path fill="#014693" d="M444.9981,415.6357H561.051c-36.1631-25.0849-86.1372-40.6032-141.3435-40.6032 c-46.1757,0-88.656,10.8853-122.4907,29.1154v-75.9591h-44.9149v48.3767h-30.3107v39.0724h30.3107v58.2184h44.9149v-58.2206 h97.1855v19.9471h-63.3116v38.2735h132.3376v47.802h44.896v-86.0755h-63.3261V415.6357z"/></g></g><path fill="#2BB673" d="M1349.9999,900c0,0-247.5264-153.3585-674.9999-153.3585S0.0001,900,0.0001,900H1349.9999z"/></g></svg>